<?xml version="1.0" encoding="utf-8" standalone="no"?>
<!DOCTYPE svg PUBLIC "-//W3C//DTD SVG 1.1//EN"
  "http://www.w3.org/Graphics/SVG/1.1/DTD/svg11.dtd">
<svg xmlns:xlink="http://www.w3.org/1999/xlink" width="576pt" height="432pt" viewBox="0 0 576 432" xmlns="http://www.w3.org/2000/svg" version="1.1">
 <metadata>
  <rdf:RDF xmlns:dc="http://purl.org/dc/elements/1.1/" xmlns:cc="http://creativecommons.org/ns#" xmlns:rdf="http://www.w3.org/1999/02/22-rdf-syntax-ns#">
   <cc:Work>
    <dc:type rdf:resource="http://purl.org/dc/dcmitype/StillImage"/>
    <dc:date>2025-11-20T22:09:12.541882</dc:date>
    <dc:format>image/svg+xml</dc:format>
    <dc:creator>
     <cc:Agent>
      <dc:title>Matplotlib v3.9.4, https://matplotlib.org/</dc:title>
     </cc:Agent>
    </dc:creator>
   </cc:Work>
  </rdf:RDF>
 </metadata>
 <defs>
  <style type="text/css">*{stroke-linejoin: round; stroke-linecap: butt}</style>
 </defs>
 <g id="figure_1">
  <g id="patch_1">
   <path d="M 0 432 
L 576 432 
L 576 0 
L 0 0 
z
" style="fill: #ffffff"/>
  </g>
  <g id="axes_1">
   <g id="patch_2">
    <path d="M 72 384.48 
L 518.4 384.48 
L 518.4 51.84 
L 72 51.84 
L 72 384.48 
z
" style="fill: none"/>
   </g>
   <g id="matplotlib.axis_1">
    <g id="xtick_1">
     <g id="line2d_1">
      <defs>
       <path id="mc13ebf8306" d="M 0 0 
L 0 5 
" style="stroke: #262626; stroke-width: 1.5"/>
      </defs>
      <g>
       <use xlink:href="#mc13ebf8306" x="80.493869" y="384.48" style="fill: #262626; stroke: #262626; stroke-width: 1.5"/>
      </g>
     </g>
     <g id="text_1">
      <!-- −250 -->
      <g style="fill: #262626" transform="translate(63.601291 403.716719) scale(0.15 -0.15)">
       <defs>
        <path id="ArialMT-2212" d="M 3381 1997 
L 356 1997 
L 356 2522 
L 3381 2522 
L 3381 1997 
z
" transform="scale(0.015625)"/>
        <path id="ArialMT-32" d="M 3222 541 
L 3222 0 
L 194 0 
Q 188 203 259 391 
Q 375 700 629 1000 
Q 884 1300 1366 1694 
Q 2113 2306 2375 2664 
Q 2638 3022 2638 3341 
Q 2638 3675 2398 3904 
Q 2159 4134 1775 4134 
Q 1369 4134 1125 3890 
Q 881 3647 878 3216 
L 300 3275 
Q 359 3922 746 4261 
Q 1134 4600 1788 4600 
Q 2447 4600 2831 4234 
Q 3216 3869 3216 3328 
Q 3216 3053 3103 2787 
Q 2991 2522 2730 2228 
Q 2469 1934 1863 1422 
Q 1356 997 1212 845 
Q 1069 694 975 541 
L 3222 541 
z
" transform="scale(0.015625)"/>
        <path id="ArialMT-35" d="M 266 1200 
L 856 1250 
Q 922 819 1161 601 
Q 1400 384 1738 384 
Q 2144 384 2425 690 
Q 2706 997 2706 1503 
Q 2706 1984 2436 2262 
Q 2166 2541 1728 2541 
Q 1456 2541 1237 2417 
Q 1019 2294 894 2097 
L 366 2166 
L 809 4519 
L 3088 4519 
L 3088 3981 
L 1259 3981 
L 1013 2750 
Q 1425 3038 1878 3038 
Q 2478 3038 2890 2622 
Q 3303 2206 3303 1553 
Q 3303 931 2941 478 
Q 2500 -78 1738 -78 
Q 1113 -78 717 272 
Q 322 622 266 1200 
z
" transform="scale(0.015625)"/>
        <path id="ArialMT-30" d="M 266 2259 
Q 266 3072 433 3567 
Q 600 4063 929 4331 
Q 1259 4600 1759 4600 
Q 2128 4600 2406 4451 
Q 2684 4303 2865 4023 
Q 3047 3744 3150 3342 
Q 3253 2941 3253 2259 
Q 3253 1453 3087 958 
Q 2922 463 2592 192 
Q 2263 -78 1759 -78 
Q 1097 -78 719 397 
Q 266 969 266 2259 
z
M 844 2259 
Q 844 1131 1108 757 
Q 1372 384 1759 384 
Q 2147 384 2411 759 
Q 2675 1134 2675 2259 
Q 2675 3391 2411 3762 
Q 2147 4134 1753 4134 
Q 1366 4134 1134 3806 
Q 844 3388 844 2259 
z
" transform="scale(0.015625)"/>
       </defs>
       <use xlink:href="#ArialMT-2212"/>
       <use xlink:href="#ArialMT-32" x="58.398438"/>
       <use xlink:href="#ArialMT-35" x="114.013672"/>
       <use xlink:href="#ArialMT-30" x="169.628906"/>
      </g>
     </g>
    </g>
    <g id="xtick_2">
     <g id="line2d_2">
      <g>
       <use xlink:href="#mc13ebf8306" x="139.47907" y="384.48" style="fill: #262626; stroke: #262626; stroke-width: 1.5"/>
      </g>
     </g>
     <g id="text_2">
      <!-- 0 -->
      <g style="fill: #262626" transform="translate(135.308367 403.716719) scale(0.15 -0.15)">
       <use xlink:href="#ArialMT-30"/>
      </g>
     </g>
    </g>
    <g id="xtick_3">
     <g id="line2d_3">
      <g>
       <use xlink:href="#mc13ebf8306" x="198.464271" y="384.48" style="fill: #262626; stroke: #262626; stroke-width: 1.5"/>
      </g>
     </g>
     <g id="text_3">
      <!-- 250 -->
      <g style="fill: #262626" transform="translate(185.952161 403.716719) scale(0.15 -0.15)">
       <use xlink:href="#ArialMT-32"/>
       <use xlink:href="#ArialMT-35" x="55.615234"/>
       <use xlink:href="#ArialMT-30" x="111.230469"/>
      </g>
     </g>
    </g>
    <g id="xtick_4">
     <g id="line2d_4">
      <g>
       <use xlink:href="#mc13ebf8306" x="257.449471" y="384.48" style="fill: #262626; stroke: #262626; stroke-width: 1.5"/>
      </g>
     </g>
     <g id="text_4">
      <!-- 500 -->
      <g style="fill: #262626" transform="translate(244.937362 403.716719) scale(0.15 -0.15)">
       <use xlink:href="#ArialMT-35"/>
       <use xlink:href="#ArialMT-30" x="55.615234"/>
       <use xlink:href="#ArialMT-30" x="111.230469"/>
      </g>
     </g>
    </g>
    <g id="xtick_5">
     <g id="line2d_5">
      <g>
       <use xlink:href="#mc13ebf8306" x="316.434672" y="384.48" style="fill: #262626; stroke: #262626; stroke-width: 1.5"/>
      </g>
     </g>
     <g id="text_5">
      <!-- 750 -->
      <g style="fill: #262626" transform="translate(303.922563 403.716719) scale(0.15 -0.15)">
       <defs>
        <path id="ArialMT-37" d="M 303 3981 
L 303 4522 
L 3269 4522 
L 3269 4084 
Q 2831 3619 2401 2847 
Q 1972 2075 1738 1259 
Q 1569 684 1522 0 
L 944 0 
Q 953 541 1156 1306 
Q 1359 2072 1739 2783 
Q 2119 3494 2547 3981 
L 303 3981 
z
" transform="scale(0.015625)"/>
       </defs>
       <use xlink:href="#ArialMT-37"/>
       <use xlink:href="#ArialMT-35" x="55.615234"/>
       <use xlink:href="#ArialMT-30" x="111.230469"/>
      </g>
     </g>
    </g>
    <g id="xtick_6">
     <g id="line2d_6">
      <g>
       <use xlink:href="#mc13ebf8306" x="375.419873" y="384.48" style="fill: #262626; stroke: #262626; stroke-width: 1.5"/>
      </g>
     </g>
     <g id="text_6">
      <!-- 1000 -->
      <g style="fill: #262626" transform="translate(358.737061 403.716719) scale(0.15 -0.15)">
       <defs>
        <path id="ArialMT-31" d="M 2384 0 
L 1822 0 
L 1822 3584 
Q 1619 3391 1289 3197 
Q 959 3003 697 2906 
L 697 3450 
Q 1169 3672 1522 3987 
Q 1875 4303 2022 4600 
L 2384 4600 
L 2384 0 
z
" transform="scale(0.015625)"/>
       </defs>
       <use xlink:href="#ArialMT-31"/>
       <use xlink:href="#ArialMT-30" x="55.615234"/>
       <use xlink:href="#ArialMT-30" x="111.230469"/>
       <use xlink:href="#ArialMT-30" x="166.845703"/>
      </g>
     </g>
    </g>
    <g id="xtick_7">
     <g id="line2d_7">
      <g>
       <use xlink:href="#mc13ebf8306" x="434.405074" y="384.48" style="fill: #262626; stroke: #262626; stroke-width: 1.5"/>
      </g>
     </g>
     <g id="text_7">
      <!-- 1250 -->
      <g style="fill: #262626" transform="translate(417.722261 403.716719) scale(0.15 -0.15)">
       <use xlink:href="#ArialMT-31"/>
       <use xlink:href="#ArialMT-32" x="55.615234"/>
       <use xlink:href="#ArialMT-35" x="111.230469"/>
       <use xlink:href="#ArialMT-30" x="166.845703"/>
      </g>
     </g>
    </g>
    <g id="xtick_8">
     <g id="line2d_8">
      <g>
       <use xlink:href="#mc13ebf8306" x="493.390275" y="384.48" style="fill: #262626; stroke: #262626; stroke-width: 1.5"/>
      </g>
     </g>
     <g id="text_8">
      <!-- 1500 -->
      <g style="fill: #262626" transform="translate(476.707462 403.716719) scale(0.15 -0.15)">
       <use xlink:href="#ArialMT-31"/>
       <use xlink:href="#ArialMT-35" x="55.615234"/>
       <use xlink:href="#ArialMT-30" x="111.230469"/>
       <use xlink:href="#ArialMT-30" x="166.845703"/>
      </g>
     </g>
    </g>
    <g id="text_9">
     <!-- time -->
     <g style="fill: #262626" transform="translate(281.032031 421.434687) scale(0.15 -0.15)">
      <defs>
       <path id="ArialMT-74" d="M 1650 503 
L 1731 6 
Q 1494 -44 1306 -44 
Q 1000 -44 831 53 
Q 663 150 594 308 
Q 525 466 525 972 
L 525 2881 
L 113 2881 
L 113 3319 
L 525 3319 
L 525 4141 
L 1084 4478 
L 1084 3319 
L 1650 3319 
L 1650 2881 
L 1084 2881 
L 1084 941 
Q 1084 700 1114 631 
Q 1144 563 1211 522 
Q 1278 481 1403 481 
Q 1497 481 1650 503 
z
" transform="scale(0.015625)"/>
       <path id="ArialMT-69" d="M 425 3934 
L 425 4581 
L 988 4581 
L 988 3934 
L 425 3934 
z
M 425 0 
L 425 3319 
L 988 3319 
L 988 0 
L 425 0 
z
" transform="scale(0.015625)"/>
       <path id="ArialMT-6d" d="M 422 0 
L 422 3319 
L 925 3319 
L 925 2853 
Q 1081 3097 1340 3245 
Q 1600 3394 1931 3394 
Q 2300 3394 2536 3241 
Q 2772 3088 2869 2813 
Q 3263 3394 3894 3394 
Q 4388 3394 4653 3120 
Q 4919 2847 4919 2278 
L 4919 0 
L 4359 0 
L 4359 2091 
Q 4359 2428 4304 2576 
Q 4250 2725 4106 2815 
Q 3963 2906 3769 2906 
Q 3419 2906 3187 2673 
Q 2956 2441 2956 1928 
L 2956 0 
L 2394 0 
L 2394 2156 
Q 2394 2531 2256 2718 
Q 2119 2906 1806 2906 
Q 1569 2906 1367 2781 
Q 1166 2656 1075 2415 
Q 984 2175 984 1722 
L 984 0 
L 422 0 
z
" transform="scale(0.015625)"/>
       <path id="ArialMT-65" d="M 2694 1069 
L 3275 997 
Q 3138 488 2766 206 
Q 2394 -75 1816 -75 
Q 1088 -75 661 373 
Q 234 822 234 1631 
Q 234 2469 665 2931 
Q 1097 3394 1784 3394 
Q 2450 3394 2872 2941 
Q 3294 2488 3294 1666 
Q 3294 1616 3291 1516 
L 816 1516 
Q 847 969 1125 678 
Q 1403 388 1819 388 
Q 2128 388 2347 550 
Q 2566 713 2694 1069 
z
M 847 1978 
L 2700 1978 
Q 2663 2397 2488 2606 
Q 2219 2931 1791 2931 
Q 1403 2931 1139 2672 
Q 875 2413 847 1978 
z
" transform="scale(0.015625)"/>
      </defs>
      <use xlink:href="#ArialMT-74"/>
      <use xlink:href="#ArialMT-69" x="27.783203"/>
      <use xlink:href="#ArialMT-6d" x="50"/>
      <use xlink:href="#ArialMT-65" x="133.300781"/>
     </g>
    </g>
   </g>
   <g id="matplotlib.axis_2">
    <g id="ytick_1">
     <g id="line2d_9">
      <defs>
       <path id="m95a60f54f0" d="M 0 0 
L -5 0 
" style="stroke: #262626; stroke-width: 1.5"/>
      </defs>
      <g>
       <use xlink:href="#m95a60f54f0" x="72" y="340.915839" style="fill: #262626; stroke: #262626; stroke-width: 1.5"/>
      </g>
     </g>
     <g id="text_10">
      <!-- 0.00 -->
      <g style="fill: #262626" transform="translate(34.308594 346.284199) scale(0.15 -0.15)">
       <defs>
        <path id="ArialMT-2e" d="M 581 0 
L 581 641 
L 1222 641 
L 1222 0 
L 581 0 
z
" transform="scale(0.015625)"/>
       </defs>
       <use xlink:href="#ArialMT-30"/>
       <use xlink:href="#ArialMT-2e" x="55.615234"/>
       <use xlink:href="#ArialMT-30" x="83.398438"/>
       <use xlink:href="#ArialMT-30" x="139.013672"/>
      </g>
     </g>
    </g>
    <g id="ytick_2">
     <g id="line2d_10">
      <g>
       <use xlink:href="#m95a60f54f0" x="72" y="271.136299" style="fill: #262626; stroke: #262626; stroke-width: 1.5"/>
      </g>
     </g>
     <g id="text_11">
      <!-- 0.02 -->
      <g style="fill: #262626" transform="translate(34.308594 276.504659) scale(0.15 -0.15)">
       <use xlink:href="#ArialMT-30"/>
       <use xlink:href="#ArialMT-2e" x="55.615234"/>
       <use xlink:href="#ArialMT-30" x="83.398438"/>
       <use xlink:href="#ArialMT-32" x="139.013672"/>
      </g>
     </g>
    </g>
    <g id="ytick_3">
     <g id="line2d_11">
      <g>
       <use xlink:href="#m95a60f54f0" x="72" y="201.35676" style="fill: #262626; stroke: #262626; stroke-width: 1.5"/>
      </g>
     </g>
     <g id="text_12">
      <!-- 0.04 -->
      <g style="fill: #262626" transform="translate(34.308594 206.725119) scale(0.15 -0.15)">
       <defs>
        <path id="ArialMT-34" d="M 2069 0 
L 2069 1097 
L 81 1097 
L 81 1613 
L 2172 4581 
L 2631 4581 
L 2631 1613 
L 3250 1613 
L 3250 1097 
L 2631 1097 
L 2631 0 
L 2069 0 
z
M 2069 1613 
L 2069 3678 
L 634 1613 
L 2069 1613 
z
" transform="scale(0.015625)"/>
       </defs>
       <use xlink:href="#ArialMT-30"/>
       <use xlink:href="#ArialMT-2e" x="55.615234"/>
       <use xlink:href="#ArialMT-30" x="83.398438"/>
       <use xlink:href="#ArialMT-34" x="139.013672"/>
      </g>
     </g>
    </g>
    <g id="ytick_4">
     <g id="line2d_12">
      <g>
       <use xlink:href="#m95a60f54f0" x="72" y="131.57722" style="fill: #262626; stroke: #262626; stroke-width: 1.5"/>
      </g>
     </g>
     <g id="text_13">
      <!-- 0.06 -->
      <g style="fill: #262626" transform="translate(34.308594 136.945579) scale(0.15 -0.15)">
       <defs>
        <path id="ArialMT-36" d="M 3184 3459 
L 2625 3416 
Q 2550 3747 2413 3897 
Q 2184 4138 1850 4138 
Q 1581 4138 1378 3988 
Q 1113 3794 959 3422 
Q 806 3050 800 2363 
Q 1003 2672 1297 2822 
Q 1591 2972 1913 2972 
Q 2475 2972 2870 2558 
Q 3266 2144 3266 1488 
Q 3266 1056 3080 686 
Q 2894 316 2569 119 
Q 2244 -78 1831 -78 
Q 1128 -78 684 439 
Q 241 956 241 2144 
Q 241 3472 731 4075 
Q 1159 4600 1884 4600 
Q 2425 4600 2770 4297 
Q 3116 3994 3184 3459 
z
M 888 1484 
Q 888 1194 1011 928 
Q 1134 663 1356 523 
Q 1578 384 1822 384 
Q 2178 384 2434 671 
Q 2691 959 2691 1453 
Q 2691 1928 2437 2201 
Q 2184 2475 1800 2475 
Q 1419 2475 1153 2201 
Q 888 1928 888 1484 
z
" transform="scale(0.015625)"/>
       </defs>
       <use xlink:href="#ArialMT-30"/>
       <use xlink:href="#ArialMT-2e" x="55.615234"/>
       <use xlink:href="#ArialMT-30" x="83.398438"/>
       <use xlink:href="#ArialMT-36" x="139.013672"/>
      </g>
     </g>
    </g>
    <g id="ytick_5">
     <g id="line2d_13">
      <g>
       <use xlink:href="#m95a60f54f0" x="72" y="61.79768" style="fill: #262626; stroke: #262626; stroke-width: 1.5"/>
      </g>
     </g>
     <g id="text_14">
      <!-- 0.08 -->
      <g style="fill: #262626" transform="translate(34.308594 67.166039) scale(0.15 -0.15)">
       <defs>
        <path id="ArialMT-38" d="M 1131 2484 
Q 781 2613 612 2850 
Q 444 3088 444 3419 
Q 444 3919 803 4259 
Q 1163 4600 1759 4600 
Q 2359 4600 2725 4251 
Q 3091 3903 3091 3403 
Q 3091 3084 2923 2848 
Q 2756 2613 2416 2484 
Q 2838 2347 3058 2040 
Q 3278 1734 3278 1309 
Q 3278 722 2862 322 
Q 2447 -78 1769 -78 
Q 1091 -78 675 323 
Q 259 725 259 1325 
Q 259 1772 486 2073 
Q 713 2375 1131 2484 
z
M 1019 3438 
Q 1019 3113 1228 2906 
Q 1438 2700 1772 2700 
Q 2097 2700 2305 2904 
Q 2513 3109 2513 3406 
Q 2513 3716 2298 3927 
Q 2084 4138 1766 4138 
Q 1444 4138 1231 3931 
Q 1019 3725 1019 3438 
z
M 838 1322 
Q 838 1081 952 856 
Q 1066 631 1291 507 
Q 1516 384 1775 384 
Q 2178 384 2440 643 
Q 2703 903 2703 1303 
Q 2703 1709 2433 1975 
Q 2163 2241 1756 2241 
Q 1359 2241 1098 1978 
Q 838 1716 838 1322 
z
" transform="scale(0.015625)"/>
       </defs>
       <use xlink:href="#ArialMT-30"/>
       <use xlink:href="#ArialMT-2e" x="55.615234"/>
       <use xlink:href="#ArialMT-30" x="83.398438"/>
       <use xlink:href="#ArialMT-38" x="139.013672"/>
      </g>
     </g>
    </g>
    <g id="text_15">
     <!-- firing rate -->
     <g style="fill: #262626" transform="translate(27.151562 249.420937) rotate(-90) scale(0.15 -0.15)">
      <defs>
       <path id="ArialMT-66" d="M 556 0 
L 556 2881 
L 59 2881 
L 59 3319 
L 556 3319 
L 556 3672 
Q 556 4006 616 4169 
Q 697 4388 901 4523 
Q 1106 4659 1475 4659 
Q 1713 4659 2000 4603 
L 1916 4113 
Q 1741 4144 1584 4144 
Q 1328 4144 1222 4034 
Q 1116 3925 1116 3625 
L 1116 3319 
L 1763 3319 
L 1763 2881 
L 1116 2881 
L 1116 0 
L 556 0 
z
" transform="scale(0.015625)"/>
       <path id="ArialMT-72" d="M 416 0 
L 416 3319 
L 922 3319 
L 922 2816 
Q 1116 3169 1280 3281 
Q 1444 3394 1641 3394 
Q 1925 3394 2219 3213 
L 2025 2691 
Q 1819 2813 1613 2813 
Q 1428 2813 1281 2702 
Q 1134 2591 1072 2394 
Q 978 2094 978 1738 
L 978 0 
L 416 0 
z
" transform="scale(0.015625)"/>
       <path id="ArialMT-6e" d="M 422 0 
L 422 3319 
L 928 3319 
L 928 2847 
Q 1294 3394 1984 3394 
Q 2284 3394 2536 3286 
Q 2788 3178 2913 3003 
Q 3038 2828 3088 2588 
Q 3119 2431 3119 2041 
L 3119 0 
L 2556 0 
L 2556 2019 
Q 2556 2363 2490 2533 
Q 2425 2703 2258 2804 
Q 2091 2906 1866 2906 
Q 1506 2906 1245 2678 
Q 984 2450 984 1813 
L 984 0 
L 422 0 
z
" transform="scale(0.015625)"/>
       <path id="ArialMT-67" d="M 319 -275 
L 866 -356 
Q 900 -609 1056 -725 
Q 1266 -881 1628 -881 
Q 2019 -881 2231 -725 
Q 2444 -569 2519 -288 
Q 2563 -116 2559 434 
Q 2191 0 1641 0 
Q 956 0 581 494 
Q 206 988 206 1678 
Q 206 2153 378 2554 
Q 550 2956 876 3175 
Q 1203 3394 1644 3394 
Q 2231 3394 2613 2919 
L 2613 3319 
L 3131 3319 
L 3131 450 
Q 3131 -325 2973 -648 
Q 2816 -972 2473 -1159 
Q 2131 -1347 1631 -1347 
Q 1038 -1347 672 -1080 
Q 306 -813 319 -275 
z
M 784 1719 
Q 784 1066 1043 766 
Q 1303 466 1694 466 
Q 2081 466 2343 764 
Q 2606 1063 2606 1700 
Q 2606 2309 2336 2618 
Q 2066 2928 1684 2928 
Q 1309 2928 1046 2623 
Q 784 2319 784 1719 
z
" transform="scale(0.015625)"/>
       <path id="ArialMT-20" transform="scale(0.015625)"/>
       <path id="ArialMT-61" d="M 2588 409 
Q 2275 144 1986 34 
Q 1697 -75 1366 -75 
Q 819 -75 525 192 
Q 231 459 231 875 
Q 231 1119 342 1320 
Q 453 1522 633 1644 
Q 813 1766 1038 1828 
Q 1203 1872 1538 1913 
Q 2219 1994 2541 2106 
Q 2544 2222 2544 2253 
Q 2544 2597 2384 2738 
Q 2169 2928 1744 2928 
Q 1347 2928 1158 2789 
Q 969 2650 878 2297 
L 328 2372 
Q 403 2725 575 2942 
Q 747 3159 1072 3276 
Q 1397 3394 1825 3394 
Q 2250 3394 2515 3294 
Q 2781 3194 2906 3042 
Q 3031 2891 3081 2659 
Q 3109 2516 3109 2141 
L 3109 1391 
Q 3109 606 3145 398 
Q 3181 191 3288 0 
L 2700 0 
Q 2613 175 2588 409 
z
M 2541 1666 
Q 2234 1541 1622 1453 
Q 1275 1403 1131 1340 
Q 988 1278 909 1158 
Q 831 1038 831 891 
Q 831 666 1001 516 
Q 1172 366 1500 366 
Q 1825 366 2078 508 
Q 2331 650 2450 897 
Q 2541 1088 2541 1459 
L 2541 1666 
z
" transform="scale(0.015625)"/>
      </defs>
      <use xlink:href="#ArialMT-66"/>
      <use xlink:href="#ArialMT-69" x="27.783203"/>
      <use xlink:href="#ArialMT-72" x="50"/>
      <use xlink:href="#ArialMT-69" x="83.300781"/>
      <use xlink:href="#ArialMT-6e" x="105.517578"/>
      <use xlink:href="#ArialMT-67" x="161.132812"/>
      <use xlink:href="#ArialMT-20" x="216.748047"/>
      <use xlink:href="#ArialMT-72" x="244.53125"/>
      <use xlink:href="#ArialMT-61" x="277.832031"/>
      <use xlink:href="#ArialMT-74" x="333.447266"/>
      <use xlink:href="#ArialMT-65" x="361.230469"/>
     </g>
    </g>
   </g>
   <g id="PolyCollection_1">
    <defs>
     <path id="m0fe03ba04a" d="M 92.290909 -136.86297 
L 92.290909 -107.805976 
L 97.009725 -88.084043 
L 101.728541 -91.356637 
L 106.447357 -87.826622 
L 111.166173 -87.560421 
L 115.884989 -91.431369 
L 120.603805 -88.569001 
L 125.322622 -90.659639 
L 130.041438 -89.575538 
L 134.760254 -93.651894 
L 139.47907 -110.274194 
L 144.197886 -110.190116 
L 148.916702 -100.555395 
L 153.635518 -93.574196 
L 158.354334 -99.239872 
L 163.07315 -98.58567 
L 167.791966 -96.558273 
L 172.510782 -98.883676 
L 177.229598 -107.977636 
L 181.948414 -110.982099 
L 186.66723 -111.336716 
L 191.386047 -115.001238 
L 196.104863 -117.832429 
L 200.823679 -122.915438 
L 205.542495 -118.101147 
L 210.261311 -127.994956 
L 214.980127 -133.950354 
L 219.698943 -136.45701 
L 224.417759 -138.519985 
L 229.136575 -137.457195 
L 233.855391 -138.003316 
L 238.574207 -137.903627 
L 243.293023 -143.784092 
L 248.011839 -147.340826 
L 252.730655 -152.696916 
L 257.449471 -150.735193 
L 262.168288 -159.060751 
L 266.887104 -166.69829 
L 271.60592 -159.807976 
L 276.324736 -161.825011 
L 281.043552 -168.382746 
L 285.762368 -178.356386 
L 290.481184 -184.32159 
L 295.2 -185.895966 
L 299.918816 -196.500984 
L 304.637632 -192.776099 
L 309.356448 -182.363957 
L 314.075264 -183.29356 
L 318.79408 -197.621089 
L 323.512896 -206.304111 
L 328.231712 -200.76699 
L 332.950529 -211.424521 
L 337.669345 -213.055249 
L 342.388161 -218.706297 
L 347.106977 -218.683861 
L 351.825793 -226.369112 
L 356.544609 -225.953946 
L 361.263425 -218.441959 
L 365.982241 -204.333914 
L 370.701057 -203.705195 
L 375.419873 -192.135101 
L 380.138689 -260.29191 
L 384.857505 -289.24505 
L 389.576321 -228.465676 
L 394.295137 -171.767691 
L 399.013953 -185.37844 
L 403.73277 -203.883712 
L 408.451586 -242.176372 
L 413.170402 -255.207654 
L 417.889218 -247.954004 
L 422.608034 -228.667274 
L 427.32685 -216.523579 
L 432.045666 -223.118884 
L 436.764482 -229.410105 
L 441.483298 -225.491836 
L 446.202114 -235.518233 
L 450.92093 -231.904226 
L 455.639746 -237.310438 
L 460.358562 -241.424629 
L 465.077378 -235.845054 
L 469.796195 -220.350197 
L 474.515011 -216.385893 
L 479.233827 -223.198341 
L 483.952643 -242.326064 
L 488.671459 -244.026724 
L 493.390275 -235.054568 
L 498.109091 -221.499789 
L 498.109091 -339.036025 
L 498.109091 -339.036025 
L 493.390275 -348.107085 
L 488.671459 -354.418654 
L 483.952643 -354.818742 
L 479.233827 -332.840145 
L 474.515011 -327.702801 
L 469.796195 -331.345114 
L 465.077378 -345.964732 
L 460.358562 -346.538836 
L 455.639746 -340.975165 
L 450.92093 -336.822396 
L 446.202114 -334.685278 
L 441.483298 -322.14706 
L 436.764482 -325.956371 
L 432.045666 -318.245029 
L 427.32685 -308.587913 
L 422.608034 -320.331155 
L 417.889218 -331.736806 
L 413.170402 -337.738834 
L 408.451586 -325.209096 
L 403.73277 -278.140329 
L 399.013953 -259.608351 
L 394.295137 -244.480619 
L 389.576321 -298.090649 
L 384.857505 -365.04 
L 380.138689 -330.702222 
L 375.419873 -220.224849 
L 370.701057 -235.855373 
L 365.982241 -241.713937 
L 361.263425 -254.269081 
L 356.544609 -259.104503 
L 351.825793 -256.573209 
L 347.106977 -253.395514 
L 342.388161 -254.495992 
L 337.669345 -254.289875 
L 332.950529 -250.860169 
L 328.231712 -237.252491 
L 323.512896 -240.287575 
L 318.79408 -233.971306 
L 314.075264 -220.861462 
L 309.356448 -213.755387 
L 304.637632 -219.428469 
L 299.918816 -221.9275 
L 295.2 -217.077787 
L 290.481184 -214.54041 
L 285.762368 -205.457312 
L 281.043552 -194.954149 
L 276.324736 -191.079199 
L 271.60592 -189.400058 
L 266.887104 -194.74339 
L 262.168288 -186.62136 
L 257.449471 -181.443227 
L 252.730655 -182.713216 
L 248.011839 -174.141126 
L 243.293023 -166.707616 
L 238.574207 -165.058431 
L 233.855391 -164.675109 
L 229.136575 -162.361127 
L 224.417759 -159.662938 
L 219.698943 -156.817701 
L 214.980127 -161.469598 
L 210.261311 -153.441002 
L 205.542495 -142.452427 
L 200.823679 -147.386944 
L 196.104863 -139.776603 
L 191.386047 -139.03476 
L 186.66723 -133.541186 
L 181.948414 -128.943453 
L 177.229598 -126.688769 
L 172.510782 -120.353367 
L 167.791966 -114.899087 
L 163.07315 -116.668696 
L 158.354334 -116.436125 
L 153.635518 -105.670015 
L 148.916702 -111.765561 
L 144.197886 -119.816855 
L 139.47907 -123.111462 
L 134.760254 -98.921811 
L 130.041438 -93.70176 
L 125.322622 -97.558986 
L 120.603805 -92.796621 
L 115.884989 -96.749465 
L 111.166173 -93.58438 
L 106.447357 -93.064204 
L 101.728541 -94.653174 
L 97.009725 -92.727012 
L 92.290909 -136.86297 
z
" style="stroke: #1e72ff; stroke-opacity: 0.2"/>
    </defs>
    <g clip-path="url(#p134439f465)">
     <use xlink:href="#m0fe03ba04a" x="0" y="432" style="fill: #1e72ff; fill-opacity: 0.2; stroke: #1e72ff; stroke-opacity: 0.2"/>
    </g>
   </g>
   <g id="PolyCollection_2">
    <defs>
     <path id="mfc1dfbe040" d="M 92.290909 -124.930825 
L 92.290909 -102.934139 
L 97.009725 -89.049891 
L 101.728541 -85.217085 
L 106.447357 -86.734407 
L 111.166173 -94.673348 
L 115.884989 -88.453431 
L 120.603805 -87.617115 
L 125.322622 -87.643053 
L 130.041438 -91.782826 
L 134.760254 -87.933678 
L 139.47907 -136.376928 
L 144.197886 -142.050254 
L 148.916702 -132.811623 
L 153.635518 -120.077794 
L 158.354334 -126.132733 
L 163.07315 -126.780989 
L 167.791966 -122.308235 
L 172.510782 -122.926121 
L 177.229598 -124.545007 
L 181.948414 -116.405096 
L 186.66723 -105.109985 
L 191.386047 -110.39708 
L 196.104863 -118.492981 
L 200.823679 -126.443951 
L 205.542495 -133.143073 
L 210.261311 -127.78759 
L 214.980127 -113.126782 
L 219.698943 -102.90674 
L 224.417759 -110.209519 
L 229.136575 -114.526451 
L 233.855391 -122.391015 
L 238.574207 -124.301777 
L 243.293023 -119.306599 
L 248.011839 -114.87024 
L 252.730655 -109.245977 
L 257.449471 -109.771779 
L 262.168288 -125.711536 
L 266.887104 -128.253909 
L 271.60592 -119.889386 
L 276.324736 -124.415552 
L 281.043552 -130.286422 
L 285.762368 -129.9512 
L 290.481184 -133.958616 
L 295.2 -138.216902 
L 299.918816 -137.586682 
L 304.637632 -123.594769 
L 309.356448 -117.06274 
L 314.075264 -120.184658 
L 318.79408 -128.170284 
L 323.512896 -139.972495 
L 328.231712 -136.24814 
L 332.950529 -123.161395 
L 337.669345 -127.451577 
L 342.388161 -134.134302 
L 347.106977 -135.252508 
L 351.825793 -122.194461 
L 356.544609 -113.524528 
L 361.263425 -116.94905 
L 365.982241 -119.682081 
L 370.701057 -110.871443 
L 375.419873 -87.39374 
L 380.138689 -85.0299 
L 384.857505 -86.940206 
L 389.576321 -85.897321 
L 394.295137 -91.322318 
L 399.013953 -91.393849 
L 403.73277 -84.93251 
L 408.451586 -83.218403 
L 413.170402 -86.740775 
L 417.889218 -88.535074 
L 422.608034 -86.829199 
L 427.32685 -91.438064 
L 432.045666 -89.482048 
L 436.764482 -84.774862 
L 441.483298 -80.587087 
L 446.202114 -87.437942 
L 450.92093 -96.782277 
L 455.639746 -87.665837 
L 460.358562 -79.896401 
L 465.077378 -78.582611 
L 469.796195 -87.918572 
L 474.515011 -85.502072 
L 479.233827 -90.876045 
L 483.952643 -86.40876 
L 488.671459 -80.967978 
L 493.390275 -86.824942 
L 498.109091 -92.158165 
L 498.109091 -100.863978 
L 498.109091 -100.863978 
L 493.390275 -95.246915 
L 488.671459 -91.913359 
L 483.952643 -92.550447 
L 479.233827 -98.670087 
L 474.515011 -95.08135 
L 469.796195 -94.496339 
L 465.077378 -88.294293 
L 460.358562 -84.569158 
L 455.639746 -96.558075 
L 450.92093 -105.700352 
L 446.202114 -93.954003 
L 441.483298 -91.992533 
L 436.764482 -91.222989 
L 432.045666 -99.196041 
L 427.32685 -99.05157 
L 422.608034 -97.583462 
L 417.889218 -101.055852 
L 413.170402 -95.5645 
L 408.451586 -92.654672 
L 403.73277 -94.171588 
L 399.013953 -101.754751 
L 394.295137 -106.344288 
L 389.576321 -104.670535 
L 384.857505 -103.822633 
L 380.138689 -102.079694 
L 375.419873 -102.153894 
L 370.701057 -132.356886 
L 365.982241 -142.495735 
L 361.263425 -141.549198 
L 356.544609 -137.058895 
L 351.825793 -143.600464 
L 347.106977 -154.046943 
L 342.388161 -154.964357 
L 337.669345 -149.335629 
L 332.950529 -145.662569 
L 328.231712 -158.639699 
L 323.512896 -163.63403 
L 318.79408 -153.230087 
L 314.075264 -144.803949 
L 309.356448 -136.915367 
L 304.637632 -142.865476 
L 299.918816 -155.687493 
L 295.2 -156.995358 
L 290.481184 -151.014947 
L 285.762368 -145.788398 
L 281.043552 -142.113673 
L 276.324736 -142.816233 
L 271.60592 -147.480847 
L 266.887104 -153.511593 
L 262.168288 -153.295975 
L 257.449471 -136.336762 
L 252.730655 -128.645853 
L 248.011839 -135.964787 
L 243.293023 -142.048954 
L 238.574207 -147.448783 
L 233.855391 -145.670268 
L 229.136575 -138.862692 
L 224.417759 -132.826448 
L 219.698943 -125.67823 
L 214.980127 -141.790037 
L 210.261311 -156.244362 
L 205.542495 -165.822309 
L 200.823679 -159.452165 
L 196.104863 -155.506205 
L 191.386047 -151.022781 
L 186.66723 -142.20459 
L 181.948414 -145.659515 
L 177.229598 -155.390217 
L 172.510782 -154.506381 
L 167.791966 -155.86637 
L 163.07315 -157.522793 
L 158.354334 -157.658922 
L 153.635518 -143.314625 
L 148.916702 -146.168609 
L 144.197886 -156.919057 
L 139.47907 -153.335524 
L 134.760254 -93.329184 
L 130.041438 -97.213818 
L 125.322622 -92.779256 
L 120.603805 -94.053906 
L 115.884989 -93.949438 
L 111.166173 -98.944078 
L 106.447357 -92.148928 
L 101.728541 -90.128959 
L 97.009725 -94.152069 
L 92.290909 -124.930825 
z
" style="stroke: #1e72ff; stroke-opacity: 0.2"/>
    </defs>
    <g clip-path="url(#p134439f465)">
     <use xlink:href="#mfc1dfbe040" x="0" y="432" style="fill: #1e72ff; fill-opacity: 0.2; stroke: #1e72ff; stroke-opacity: 0.2"/>
    </g>
   </g>
   <g id="PathCollection_1">
    <defs>
     <path id="m50a596635e" d="M -2.5 2.5 
L 2.5 2.5 
L 2.5 -2.5 
L -2.5 -2.5 
z
" style="stroke: #1e72ff"/>
    </defs>
    <g clip-path="url(#p134439f465)">
     <use xlink:href="#m50a596635e" x="148.916702" y="362.012708" style="fill: #1e72ff; stroke: #1e72ff"/>
     <use xlink:href="#m50a596635e" x="153.635518" y="362.012708" style="fill: #1e72ff; stroke: #1e72ff"/>
     <use xlink:href="#m50a596635e" x="252.730655" y="362.012708" style="fill: #1e72ff; stroke: #1e72ff"/>
     <use xlink:href="#m50a596635e" x="257.449471" y="362.012708" style="fill: #1e72ff; stroke: #1e72ff"/>
     <use xlink:href="#m50a596635e" x="262.168288" y="362.012708" style="fill: #1e72ff; stroke: #1e72ff"/>
     <use xlink:href="#m50a596635e" x="266.887104" y="362.012708" style="fill: #1e72ff; stroke: #1e72ff"/>
     <use xlink:href="#m50a596635e" x="271.60592" y="362.012708" style="fill: #1e72ff; stroke: #1e72ff"/>
     <use xlink:href="#m50a596635e" x="276.324736" y="362.012708" style="fill: #1e72ff; stroke: #1e72ff"/>
     <use xlink:href="#m50a596635e" x="281.043552" y="362.012708" style="fill: #1e72ff; stroke: #1e72ff"/>
     <use xlink:href="#m50a596635e" x="285.762368" y="362.012708" style="fill: #1e72ff; stroke: #1e72ff"/>
     <use xlink:href="#m50a596635e" x="290.481184" y="362.012708" style="fill: #1e72ff; stroke: #1e72ff"/>
     <use xlink:href="#m50a596635e" x="295.2" y="362.012708" style="fill: #1e72ff; stroke: #1e72ff"/>
     <use xlink:href="#m50a596635e" x="299.918816" y="362.012708" style="fill: #1e72ff; stroke: #1e72ff"/>
     <use xlink:href="#m50a596635e" x="304.637632" y="362.012708" style="fill: #1e72ff; stroke: #1e72ff"/>
     <use xlink:href="#m50a596635e" x="309.356448" y="362.012708" style="fill: #1e72ff; stroke: #1e72ff"/>
     <use xlink:href="#m50a596635e" x="314.075264" y="362.012708" style="fill: #1e72ff; stroke: #1e72ff"/>
     <use xlink:href="#m50a596635e" x="318.79408" y="362.012708" style="fill: #1e72ff; stroke: #1e72ff"/>
     <use xlink:href="#m50a596635e" x="323.512896" y="362.012708" style="fill: #1e72ff; stroke: #1e72ff"/>
     <use xlink:href="#m50a596635e" x="328.231712" y="362.012708" style="fill: #1e72ff; stroke: #1e72ff"/>
     <use xlink:href="#m50a596635e" x="332.950529" y="362.012708" style="fill: #1e72ff; stroke: #1e72ff"/>
     <use xlink:href="#m50a596635e" x="337.669345" y="362.012708" style="fill: #1e72ff; stroke: #1e72ff"/>
     <use xlink:href="#m50a596635e" x="342.388161" y="362.012708" style="fill: #1e72ff; stroke: #1e72ff"/>
     <use xlink:href="#m50a596635e" x="347.106977" y="362.012708" style="fill: #1e72ff; stroke: #1e72ff"/>
     <use xlink:href="#m50a596635e" x="351.825793" y="362.012708" style="fill: #1e72ff; stroke: #1e72ff"/>
     <use xlink:href="#m50a596635e" x="356.544609" y="362.012708" style="fill: #1e72ff; stroke: #1e72ff"/>
     <use xlink:href="#m50a596635e" x="361.263425" y="362.012708" style="fill: #1e72ff; stroke: #1e72ff"/>
     <use xlink:href="#m50a596635e" x="365.982241" y="362.012708" style="fill: #1e72ff; stroke: #1e72ff"/>
     <use xlink:href="#m50a596635e" x="370.701057" y="362.012708" style="fill: #1e72ff; stroke: #1e72ff"/>
     <use xlink:href="#m50a596635e" x="375.419873" y="362.012708" style="fill: #1e72ff; stroke: #1e72ff"/>
     <use xlink:href="#m50a596635e" x="380.138689" y="362.012708" style="fill: #1e72ff; stroke: #1e72ff"/>
     <use xlink:href="#m50a596635e" x="384.857505" y="362.012708" style="fill: #1e72ff; stroke: #1e72ff"/>
     <use xlink:href="#m50a596635e" x="389.576321" y="362.012708" style="fill: #1e72ff; stroke: #1e72ff"/>
     <use xlink:href="#m50a596635e" x="394.295137" y="362.012708" style="fill: #1e72ff; stroke: #1e72ff"/>
     <use xlink:href="#m50a596635e" x="399.013953" y="362.012708" style="fill: #1e72ff; stroke: #1e72ff"/>
     <use xlink:href="#m50a596635e" x="403.73277" y="362.012708" style="fill: #1e72ff; stroke: #1e72ff"/>
     <use xlink:href="#m50a596635e" x="408.451586" y="362.012708" style="fill: #1e72ff; stroke: #1e72ff"/>
     <use xlink:href="#m50a596635e" x="413.170402" y="362.012708" style="fill: #1e72ff; stroke: #1e72ff"/>
     <use xlink:href="#m50a596635e" x="417.889218" y="362.012708" style="fill: #1e72ff; stroke: #1e72ff"/>
     <use xlink:href="#m50a596635e" x="422.608034" y="362.012708" style="fill: #1e72ff; stroke: #1e72ff"/>
     <use xlink:href="#m50a596635e" x="427.32685" y="362.012708" style="fill: #1e72ff; stroke: #1e72ff"/>
     <use xlink:href="#m50a596635e" x="432.045666" y="362.012708" style="fill: #1e72ff; stroke: #1e72ff"/>
     <use xlink:href="#m50a596635e" x="436.764482" y="362.012708" style="fill: #1e72ff; stroke: #1e72ff"/>
     <use xlink:href="#m50a596635e" x="441.483298" y="362.012708" style="fill: #1e72ff; stroke: #1e72ff"/>
     <use xlink:href="#m50a596635e" x="446.202114" y="362.012708" style="fill: #1e72ff; stroke: #1e72ff"/>
     <use xlink:href="#m50a596635e" x="450.92093" y="362.012708" style="fill: #1e72ff; stroke: #1e72ff"/>
     <use xlink:href="#m50a596635e" x="455.639746" y="362.012708" style="fill: #1e72ff; stroke: #1e72ff"/>
     <use xlink:href="#m50a596635e" x="460.358562" y="362.012708" style="fill: #1e72ff; stroke: #1e72ff"/>
     <use xlink:href="#m50a596635e" x="465.077378" y="362.012708" style="fill: #1e72ff; stroke: #1e72ff"/>
     <use xlink:href="#m50a596635e" x="469.796195" y="362.012708" style="fill: #1e72ff; stroke: #1e72ff"/>
     <use xlink:href="#m50a596635e" x="474.515011" y="362.012708" style="fill: #1e72ff; stroke: #1e72ff"/>
     <use xlink:href="#m50a596635e" x="479.233827" y="362.012708" style="fill: #1e72ff; stroke: #1e72ff"/>
     <use xlink:href="#m50a596635e" x="483.952643" y="362.012708" style="fill: #1e72ff; stroke: #1e72ff"/>
     <use xlink:href="#m50a596635e" x="488.671459" y="362.012708" style="fill: #1e72ff; stroke: #1e72ff"/>
     <use xlink:href="#m50a596635e" x="493.390275" y="362.012708" style="fill: #1e72ff; stroke: #1e72ff"/>
     <use xlink:href="#m50a596635e" x="498.109091" y="362.012708" style="fill: #1e72ff; stroke: #1e72ff"/>
    </g>
   </g>
   <g id="PathCollection_2">
    <defs>
     <path id="mca6a90fce2" d="M 0 -2.5 
L -2.5 2.5 
L 2.5 2.5 
z
" style="stroke: #1e72ff"/>
    </defs>
    <g clip-path="url(#p134439f465)">
     <use xlink:href="#mca6a90fce2" x="111.166173" y="369.36" style="fill: #1e72ff; stroke: #1e72ff"/>
     <use xlink:href="#mca6a90fce2" x="290.481184" y="369.36" style="fill: #1e72ff; stroke: #1e72ff"/>
     <use xlink:href="#mca6a90fce2" x="295.2" y="369.36" style="fill: #1e72ff; stroke: #1e72ff"/>
     <use xlink:href="#mca6a90fce2" x="450.92093" y="369.36" style="fill: #1e72ff; stroke: #1e72ff"/>
     <use xlink:href="#mca6a90fce2" x="460.358562" y="369.36" style="fill: #1e72ff; stroke: #1e72ff"/>
    </g>
   </g>
   <g id="line2d_14">
    <path d="M 92.290909 309.665527 
L 97.009725 341.594472 
L 101.728541 338.995094 
L 106.447357 341.554587 
L 111.166173 341.4276 
L 115.884989 337.909583 
L 120.603805 341.317189 
L 125.322622 337.890688 
L 130.041438 340.361351 
L 134.760254 335.713147 
L 139.47907 315.307172 
L 144.197886 316.996515 
L 148.916702 325.839522 
L 153.635518 332.377894 
L 158.354334 324.162001 
L 163.07315 324.372817 
L 167.791966 326.27132 
L 172.510782 322.381479 
L 177.229598 314.666798 
L 181.948414 312.037224 
L 186.66723 309.561049 
L 191.386047 304.982001 
L 196.104863 303.195484 
L 200.823679 296.848809 
L 205.542495 301.723213 
L 210.261311 291.282021 
L 214.980127 284.290024 
L 219.698943 285.362644 
L 224.417759 282.908539 
L 229.136575 282.090839 
L 233.855391 280.660788 
L 238.574207 280.518971 
L 243.293023 276.754146 
L 248.011839 271.259024 
L 252.730655 264.294934 
L 257.449471 265.91079 
L 262.168288 259.158945 
L 266.887104 251.27916 
L 271.60592 257.395983 
L 276.324736 255.547895 
L 281.043552 250.331552 
L 285.762368 240.093151 
L 290.481184 232.569 
L 295.2 230.513124 
L 299.918816 222.785758 
L 304.637632 225.897716 
L 309.356448 233.940328 
L 314.075264 229.922489 
L 318.79408 216.203803 
L 323.512896 208.704157 
L 328.231712 212.99026 
L 332.950529 200.857655 
L 337.669345 198.327438 
L 342.388161 195.398855 
L 347.106977 195.960313 
L 351.825793 190.52884 
L 356.544609 189.470776 
L 361.263425 195.64448 
L 365.982241 208.976074 
L 370.701057 212.219716 
L 375.419873 225.820025 
L 380.138689 136.502934 
L 384.857505 104.857475 
L 389.576321 168.721838 
L 394.295137 223.875845 
L 399.013953 209.506604 
L 403.73277 190.987979 
L 408.451586 148.307266 
L 413.170402 135.526756 
L 417.889218 142.154595 
L 422.608034 157.500786 
L 427.32685 169.444254 
L 432.045666 161.318044 
L 436.764482 154.316762 
L 441.483298 158.180552 
L 446.202114 146.898244 
L 450.92093 147.636689 
L 455.639746 142.857199 
L 460.358562 138.018267 
L 465.077378 141.095107 
L 469.796195 156.152344 
L 474.515011 159.955653 
L 479.233827 153.980757 
L 483.952643 133.427597 
L 488.671459 132.777311 
L 493.390275 140.419174 
L 498.109091 151.732093 
" clip-path="url(#p134439f465)" style="fill: none; stroke: #1e72ff; stroke-width: 2; stroke-linecap: round"/>
   </g>
   <g id="line2d_15">
    <path d="M 92.290909 339.87548 
L 97.009725 340.726761 
L 101.728541 341.079179 
L 106.447357 341.245713 
L 111.166173 340.825939 
L 115.884989 341.208094 
L 120.603805 341.895467 
L 125.322622 340.703846 
L 130.041438 340.553884 
L 134.760254 340.432975 
L 139.47907 307.641018 
L 144.197886 306.57575 
L 148.916702 308.948024 
L 153.635518 309.82204 
L 158.354334 306.150403 
L 163.07315 306.191779 
L 167.791966 307.471023 
L 172.510782 308.018168 
L 177.229598 306.926818 
L 181.948414 305.253833 
L 186.66723 303.011443 
L 191.386047 301.356815 
L 196.104863 300.214978 
L 200.823679 303.133093 
L 205.542495 301.404956 
L 210.261311 298.612906 
L 214.980127 296.29338 
L 219.698943 299.46201 
L 224.417759 303.831872 
L 229.136575 303.050373 
L 233.855391 301.070188 
L 238.574207 302.519648 
L 243.293023 300.186949 
L 248.011839 299.84648 
L 252.730655 299.451352 
L 257.449471 299.14296 
L 262.168288 299.500017 
L 266.887104 298.793379 
L 271.60592 299.877497 
L 276.324736 300.533419 
L 281.043552 297.347428 
L 285.762368 295.434428 
L 290.481184 296.297576 
L 295.2 296.903905 
L 299.918816 297.517708 
L 304.637632 295.383464 
L 309.356448 293.066229 
L 314.075264 290.941154 
L 318.79408 292.346907 
L 323.512896 295.940359 
L 328.231712 296.630475 
L 332.950529 294.818703 
L 337.669345 292.735126 
L 342.388161 293.91396 
L 347.106977 293.691333 
L 351.825793 293.98933 
L 356.544609 293.554165 
L 361.263425 294.733317 
L 365.982241 297.831113 
L 370.701057 305.486014 
L 375.419873 327.377637 
L 380.138689 331.60728 
L 384.857505 333.878063 
L 389.576321 333.714451 
L 394.295137 332.100125 
L 399.013953 331.608014 
L 403.73277 333.189389 
L 408.451586 331.967005 
L 413.170402 331.258208 
L 417.889218 332.399481 
L 422.608034 332.875913 
L 427.32685 330.697596 
L 432.045666 329.89209 
L 436.764482 331.253003 
L 441.483298 331.199378 
L 446.202114 330.807631 
L 450.92093 330.511572 
L 455.639746 330.062112 
L 460.358562 330.905118 
L 465.077378 331.926841 
L 469.796195 331.308894 
L 474.515011 330.207868 
L 479.233827 330.451189 
L 483.952643 330.840614 
L 488.671459 331.990653 
L 493.390275 330.732154 
L 498.109091 331.552574 
" clip-path="url(#p134439f465)" style="fill: none; stroke-dasharray: 5.55,2.4; stroke-dashoffset: 0; stroke: #1e72ff; stroke-opacity: 0.8; stroke-width: 1.5"/>
   </g>
   <g id="line2d_16">
    <path d="M 92.290909 318.067518 
L 97.009725 340.39902 
L 101.728541 344.326978 
L 106.447357 342.558332 
L 111.166173 335.191287 
L 115.884989 340.798565 
L 120.603805 341.16449 
L 125.322622 341.788846 
L 130.041438 337.501678 
L 134.760254 341.368569 
L 139.47907 287.143774 
L 144.197886 282.515344 
L 148.916702 292.509884 
L 153.635518 300.30379 
L 158.354334 290.104172 
L 163.07315 289.848109 
L 167.791966 292.912697 
L 172.510782 293.283749 
L 177.229598 292.032388 
L 181.948414 300.967694 
L 186.66723 308.342712 
L 191.386047 301.290069 
L 196.104863 295.000407 
L 200.823679 289.051942 
L 205.542495 282.517309 
L 210.261311 289.984024 
L 214.980127 304.54159 
L 219.698943 317.707515 
L 224.417759 310.482017 
L 229.136575 305.305429 
L 233.855391 297.969358 
L 238.574207 296.12472 
L 243.293023 301.322223 
L 248.011839 306.582486 
L 252.730655 313.054085 
L 257.449471 308.94573 
L 262.168288 292.496244 
L 266.887104 291.117249 
L 271.60592 298.314884 
L 276.324736 298.384107 
L 281.043552 295.799953 
L 285.762368 294.130201 
L 290.481184 289.513219 
L 295.2 284.39387 
L 299.918816 285.362912 
L 304.637632 298.769878 
L 309.356448 305.010946 
L 314.075264 299.505696 
L 318.79408 291.299815 
L 323.512896 280.196737 
L 328.231712 284.55608 
L 332.950529 297.588018 
L 337.669345 293.606397 
L 342.388161 287.450671 
L 347.106977 287.350274 
L 351.825793 299.102538 
L 356.544609 306.708289 
L 361.263425 302.750876 
L 365.982241 300.911092 
L 370.701057 310.385835 
L 375.419873 337.226183 
L 380.138689 338.445203 
L 384.857505 336.618581 
L 389.576321 336.716072 
L 394.295137 333.166697 
L 399.013953 335.4257 
L 403.73277 342.447951 
L 408.451586 344.063463 
L 413.170402 340.847363 
L 417.889218 337.204537 
L 422.608034 339.79367 
L 427.32685 336.755183 
L 432.045666 337.660955 
L 436.764482 344.001074 
L 441.483298 345.71019 
L 446.202114 341.304028 
L 450.92093 330.758686 
L 455.639746 339.888044 
L 460.358562 349.76722 
L 465.077378 348.561548 
L 469.796195 340.792545 
L 474.515011 341.708289 
L 479.233827 337.226934 
L 483.952643 342.520396 
L 488.671459 345.559331 
L 493.390275 340.964072 
L 498.109091 335.488929 
" clip-path="url(#p134439f465)" style="fill: none; stroke: #1e72ff; stroke-width: 4; stroke-linecap: round"/>
   </g>
   <g id="line2d_17">
    <path d="M 92.290909 318.067518 
L 97.009725 340.39902 
L 101.728541 344.326978 
L 106.447357 342.558332 
L 111.166173 335.191287 
L 115.884989 340.798565 
L 120.603805 341.16449 
L 125.322622 341.788846 
L 130.041438 337.501678 
L 134.760254 341.368569 
L 139.47907 287.143774 
L 144.197886 282.515344 
L 148.916702 292.509884 
L 153.635518 300.30379 
L 158.354334 290.104172 
L 163.07315 289.848109 
L 167.791966 292.912697 
L 172.510782 293.283749 
L 177.229598 292.032388 
L 181.948414 300.967694 
L 186.66723 308.342712 
L 191.386047 301.290069 
L 196.104863 295.000407 
L 200.823679 289.051942 
L 205.542495 282.517309 
L 210.261311 289.984024 
L 214.980127 304.54159 
L 219.698943 317.707515 
L 224.417759 310.482017 
L 229.136575 305.305429 
L 233.855391 297.969358 
L 238.574207 296.12472 
L 243.293023 301.322223 
L 248.011839 306.582486 
L 252.730655 313.054085 
L 257.449471 308.94573 
L 262.168288 292.496244 
L 266.887104 291.117249 
L 271.60592 298.314884 
L 276.324736 298.384107 
L 281.043552 295.799953 
L 285.762368 294.130201 
L 290.481184 289.513219 
L 295.2 284.39387 
L 299.918816 285.362912 
L 304.637632 298.769878 
L 309.356448 305.010946 
L 314.075264 299.505696 
L 318.79408 291.299815 
L 323.512896 280.196737 
L 328.231712 284.55608 
L 332.950529 297.588018 
L 337.669345 293.606397 
L 342.388161 287.450671 
L 347.106977 287.350274 
L 351.825793 299.102538 
L 356.544609 306.708289 
L 361.263425 302.750876 
L 365.982241 300.911092 
L 370.701057 310.385835 
L 375.419873 337.226183 
L 380.138689 338.445203 
L 384.857505 336.618581 
L 389.576321 336.716072 
L 394.295137 333.166697 
L 399.013953 335.4257 
L 403.73277 342.447951 
L 408.451586 344.063463 
L 413.170402 340.847363 
L 417.889218 337.204537 
L 422.608034 339.79367 
L 427.32685 336.755183 
L 432.045666 337.660955 
L 436.764482 344.001074 
L 441.483298 345.71019 
L 446.202114 341.304028 
L 450.92093 330.758686 
L 455.639746 339.888044 
L 460.358562 349.76722 
L 465.077378 348.561548 
L 469.796195 340.792545 
L 474.515011 341.708289 
L 479.233827 337.226934 
L 483.952643 342.520396 
L 488.671459 345.559331 
L 493.390275 340.964072 
L 498.109091 335.488929 
" clip-path="url(#p134439f465)" style="fill: none; stroke: #ffffff; stroke-width: 1.5; stroke-linecap: round"/>
   </g>
   <g id="line2d_18">
    <path d="M 92.290909 338.401704 
L 97.009725 341.158514 
L 101.728541 340.557576 
L 106.447357 341.903062 
L 111.166173 340.311128 
L 115.884989 340.229373 
L 120.603805 339.844149 
L 125.322622 340.644938 
L 130.041438 341.55564 
L 134.760254 340.180919 
L 139.47907 287.794535 
L 144.197886 299.155162 
L 148.916702 302.898667 
L 153.635518 305.770335 
L 158.354334 297.561927 
L 163.07315 300.324246 
L 167.791966 301.983617 
L 172.510782 300.975177 
L 177.229598 299.053473 
L 181.948414 299.266763 
L 186.66723 296.864244 
L 191.386047 296.251516 
L 196.104863 294.889455 
L 200.823679 297.123137 
L 205.542495 299.195436 
L 210.261311 299.934575 
L 214.980127 300.646132 
L 219.698943 303.08667 
L 224.417759 304.28373 
L 229.136575 304.460661 
L 233.855391 303.691632 
L 238.574207 304.090644 
L 243.293023 304.36455 
L 248.011839 303.262376 
L 252.730655 302.318502 
L 257.449471 304.420773 
L 262.168288 305.207814 
L 266.887104 304.629838 
L 271.60592 303.851392 
L 276.324736 303.421445 
L 281.043552 305.588304 
L 285.762368 308.215734 
L 290.481184 309.000681 
L 295.2 307.341706 
L 299.918816 304.778442 
L 304.637632 300.853384 
L 309.356448 299.918527 
L 314.075264 297.917974 
L 318.79408 299.488756 
L 323.512896 299.047161 
L 328.231712 300.911114 
L 332.950529 299.228192 
L 337.669345 295.405791 
L 342.388161 297.291782 
L 347.106977 296.672266 
L 351.825793 297.81264 
L 356.544609 299.159642 
L 361.263425 300.912709 
L 365.982241 305.971375 
L 370.701057 313.980439 
L 375.419873 334.123025 
L 380.138689 335.236208 
L 384.857505 336.534391 
L 389.576321 341.578801 
L 394.295137 342.583395 
L 399.013953 340.968671 
L 403.73277 339.712305 
L 408.451586 339.802971 
L 413.170402 340.683529 
L 417.889218 340.722834 
L 422.608034 340.781436 
L 427.32685 341.507013 
L 432.045666 341.07451 
L 436.764482 339.205012 
L 441.483298 339.863208 
L 446.202114 340.31649 
L 450.92093 340.792746 
L 455.639746 340.093901 
L 460.358562 340.337731 
L 465.077378 342.262797 
L 469.796195 339.745697 
L 474.515011 339.645523 
L 479.233827 340.132605 
L 483.952643 341.239701 
L 488.671459 340.385842 
L 493.390275 341.473276 
L 498.109091 341.500012 
" clip-path="url(#p134439f465)" style="fill: none; stroke-dasharray: 5.55,2.4; stroke-dashoffset: 0; stroke: #1e72ff; stroke-opacity: 0.8; stroke-width: 1.5"/>
   </g>
   <g id="line2d_19">
    <path d="M 139.47907 384.48 
L 139.47907 51.84 
" clip-path="url(#p134439f465)" style="fill: none; stroke-dasharray: 5.55,2.4; stroke-dashoffset: 0; stroke: #808080; stroke-opacity: 0.7; stroke-width: 1.5"/>
   </g>
   <g id="line2d_20">
    <path d="M 375.419873 384.48 
L 375.419873 51.84 
" clip-path="url(#p134439f465)" style="fill: none; stroke-dasharray: 5.55,2.4; stroke-dashoffset: 0; stroke: #808080; stroke-opacity: 0.7; stroke-width: 1.5"/>
   </g>
   <g id="patch_3">
    <path d="M 72 384.48 
L 72 51.84 
" style="fill: none; stroke: #000000; stroke-width: 1.5; stroke-linejoin: miter; stroke-linecap: square"/>
   </g>
   <g id="patch_4">
    <path d="M 72 384.48 
L 518.4 384.48 
" style="fill: none; stroke: #000000; stroke-width: 1.5; stroke-linejoin: miter; stroke-linecap: square"/>
   </g>
   <g id="text_16">
    <!-- L1_sactemporal -->
    <g style="fill: #262626" transform="translate(238.093359 45.84) scale(0.15 -0.15)">
     <defs>
      <path id="Arial-BoldMT-4c" d="M 491 0 
L 491 4544 
L 1416 4544 
L 1416 772 
L 3716 772 
L 3716 0 
L 491 0 
z
" transform="scale(0.015625)"/>
      <path id="Arial-BoldMT-31" d="M 2519 0 
L 1641 0 
L 1641 3309 
Q 1159 2859 506 2644 
L 506 3441 
Q 850 3553 1253 3867 
Q 1656 4181 1806 4600 
L 2519 4600 
L 2519 0 
z
" transform="scale(0.015625)"/>
      <path id="Arial-BoldMT-5f" d="M -59 -1266 
L -59 -697 
L 3591 -697 
L 3591 -1266 
L -59 -1266 
z
" transform="scale(0.015625)"/>
      <path id="Arial-BoldMT-73" d="M 150 947 
L 1031 1081 
Q 1088 825 1259 692 
Q 1431 559 1741 559 
Q 2081 559 2253 684 
Q 2369 772 2369 919 
Q 2369 1019 2306 1084 
Q 2241 1147 2013 1200 
Q 950 1434 666 1628 
Q 272 1897 272 2375 
Q 272 2806 612 3100 
Q 953 3394 1669 3394 
Q 2350 3394 2681 3172 
Q 3013 2950 3138 2516 
L 2309 2363 
Q 2256 2556 2107 2659 
Q 1959 2763 1684 2763 
Q 1338 2763 1188 2666 
Q 1088 2597 1088 2488 
Q 1088 2394 1175 2328 
Q 1294 2241 1995 2081 
Q 2697 1922 2975 1691 
Q 3250 1456 3250 1038 
Q 3250 581 2869 253 
Q 2488 -75 1741 -75 
Q 1063 -75 667 200 
Q 272 475 150 947 
z
" transform="scale(0.015625)"/>
      <path id="Arial-BoldMT-61" d="M 1116 2306 
L 319 2450 
Q 453 2931 781 3162 
Q 1109 3394 1756 3394 
Q 2344 3394 2631 3255 
Q 2919 3116 3036 2902 
Q 3153 2688 3153 2116 
L 3144 1091 
Q 3144 653 3186 445 
Q 3228 238 3344 0 
L 2475 0 
Q 2441 88 2391 259 
Q 2369 338 2359 363 
Q 2134 144 1878 34 
Q 1622 -75 1331 -75 
Q 819 -75 523 203 
Q 228 481 228 906 
Q 228 1188 362 1408 
Q 497 1628 739 1745 
Q 981 1863 1438 1950 
Q 2053 2066 2291 2166 
L 2291 2253 
Q 2291 2506 2166 2614 
Q 2041 2722 1694 2722 
Q 1459 2722 1328 2630 
Q 1197 2538 1116 2306 
z
M 2291 1594 
Q 2122 1538 1756 1459 
Q 1391 1381 1278 1306 
Q 1106 1184 1106 997 
Q 1106 813 1243 678 
Q 1381 544 1594 544 
Q 1831 544 2047 700 
Q 2206 819 2256 991 
Q 2291 1103 2291 1419 
L 2291 1594 
z
" transform="scale(0.015625)"/>
      <path id="Arial-BoldMT-63" d="M 3353 2338 
L 2488 2181 
Q 2444 2441 2289 2572 
Q 2134 2703 1888 2703 
Q 1559 2703 1364 2476 
Q 1169 2250 1169 1719 
Q 1169 1128 1367 884 
Q 1566 641 1900 641 
Q 2150 641 2309 783 
Q 2469 925 2534 1272 
L 3397 1125 
Q 3263 531 2881 228 
Q 2500 -75 1859 -75 
Q 1131 -75 698 384 
Q 266 844 266 1656 
Q 266 2478 700 2936 
Q 1134 3394 1875 3394 
Q 2481 3394 2839 3133 
Q 3197 2872 3353 2338 
z
" transform="scale(0.015625)"/>
      <path id="Arial-BoldMT-74" d="M 1981 3319 
L 1981 2619 
L 1381 2619 
L 1381 1281 
Q 1381 875 1398 808 
Q 1416 741 1477 697 
Q 1538 653 1625 653 
Q 1747 653 1978 738 
L 2053 56 
Q 1747 -75 1359 -75 
Q 1122 -75 931 4 
Q 741 84 652 211 
Q 563 338 528 553 
Q 500 706 500 1172 
L 500 2619 
L 97 2619 
L 97 3319 
L 500 3319 
L 500 3978 
L 1381 4491 
L 1381 3319 
L 1981 3319 
z
" transform="scale(0.015625)"/>
      <path id="Arial-BoldMT-65" d="M 2381 1056 
L 3256 909 
Q 3088 428 2723 176 
Q 2359 -75 1813 -75 
Q 947 -75 531 491 
Q 203 944 203 1634 
Q 203 2459 634 2926 
Q 1066 3394 1725 3394 
Q 2466 3394 2894 2905 
Q 3322 2416 3303 1406 
L 1103 1406 
Q 1113 1016 1316 798 
Q 1519 581 1822 581 
Q 2028 581 2168 693 
Q 2309 806 2381 1056 
z
M 2431 1944 
Q 2422 2325 2234 2523 
Q 2047 2722 1778 2722 
Q 1491 2722 1303 2513 
Q 1116 2303 1119 1944 
L 2431 1944 
z
" transform="scale(0.015625)"/>
      <path id="Arial-BoldMT-6d" d="M 394 3319 
L 1203 3319 
L 1203 2866 
Q 1638 3394 2238 3394 
Q 2556 3394 2790 3262 
Q 3025 3131 3175 2866 
Q 3394 3131 3647 3262 
Q 3900 3394 4188 3394 
Q 4553 3394 4806 3245 
Q 5059 3097 5184 2809 
Q 5275 2597 5275 2122 
L 5275 0 
L 4397 0 
L 4397 1897 
Q 4397 2391 4306 2534 
Q 4184 2722 3931 2722 
Q 3747 2722 3584 2609 
Q 3422 2497 3350 2280 
Q 3278 2063 3278 1594 
L 3278 0 
L 2400 0 
L 2400 1819 
Q 2400 2303 2353 2443 
Q 2306 2584 2207 2653 
Q 2109 2722 1941 2722 
Q 1738 2722 1575 2612 
Q 1413 2503 1342 2297 
Q 1272 2091 1272 1613 
L 1272 0 
L 394 0 
L 394 3319 
z
" transform="scale(0.015625)"/>
      <path id="Arial-BoldMT-70" d="M 434 3319 
L 1253 3319 
L 1253 2831 
Q 1413 3081 1684 3237 
Q 1956 3394 2288 3394 
Q 2866 3394 3269 2941 
Q 3672 2488 3672 1678 
Q 3672 847 3265 386 
Q 2859 -75 2281 -75 
Q 2006 -75 1782 34 
Q 1559 144 1313 409 
L 1313 -1263 
L 434 -1263 
L 434 3319 
z
M 1303 1716 
Q 1303 1156 1525 889 
Q 1747 622 2066 622 
Q 2372 622 2575 867 
Q 2778 1113 2778 1672 
Q 2778 2194 2568 2447 
Q 2359 2700 2050 2700 
Q 1728 2700 1515 2451 
Q 1303 2203 1303 1716 
z
" transform="scale(0.015625)"/>
      <path id="Arial-BoldMT-6f" d="M 256 1706 
Q 256 2144 472 2553 
Q 688 2963 1083 3178 
Q 1478 3394 1966 3394 
Q 2719 3394 3200 2905 
Q 3681 2416 3681 1669 
Q 3681 916 3195 420 
Q 2709 -75 1972 -75 
Q 1516 -75 1102 131 
Q 688 338 472 736 
Q 256 1134 256 1706 
z
M 1156 1659 
Q 1156 1166 1390 903 
Q 1625 641 1969 641 
Q 2313 641 2545 903 
Q 2778 1166 2778 1666 
Q 2778 2153 2545 2415 
Q 2313 2678 1969 2678 
Q 1625 2678 1390 2415 
Q 1156 2153 1156 1659 
z
" transform="scale(0.015625)"/>
      <path id="Arial-BoldMT-72" d="M 1300 0 
L 422 0 
L 422 3319 
L 1238 3319 
L 1238 2847 
Q 1447 3181 1614 3287 
Q 1781 3394 1994 3394 
Q 2294 3394 2572 3228 
L 2300 2463 
Q 2078 2606 1888 2606 
Q 1703 2606 1575 2504 
Q 1447 2403 1373 2137 
Q 1300 1872 1300 1025 
L 1300 0 
z
" transform="scale(0.015625)"/>
      <path id="Arial-BoldMT-6c" d="M 459 0 
L 459 4581 
L 1338 4581 
L 1338 0 
L 459 0 
z
" transform="scale(0.015625)"/>
     </defs>
     <use xlink:href="#Arial-BoldMT-4c"/>
     <use xlink:href="#Arial-BoldMT-31" x="61.083984"/>
     <use xlink:href="#Arial-BoldMT-5f" x="116.699219"/>
     <use xlink:href="#Arial-BoldMT-73" x="172.314453"/>
     <use xlink:href="#Arial-BoldMT-61" x="227.929688"/>
     <use xlink:href="#Arial-BoldMT-63" x="283.544922"/>
     <use xlink:href="#Arial-BoldMT-74" x="339.160156"/>
     <use xlink:href="#Arial-BoldMT-65" x="372.460938"/>
     <use xlink:href="#Arial-BoldMT-6d" x="428.076172"/>
     <use xlink:href="#Arial-BoldMT-70" x="516.992188"/>
     <use xlink:href="#Arial-BoldMT-6f" x="578.076172"/>
     <use xlink:href="#Arial-BoldMT-72" x="639.160156"/>
     <use xlink:href="#Arial-BoldMT-61" x="678.076172"/>
     <use xlink:href="#Arial-BoldMT-6c" x="733.691406"/>
    </g>
   </g>
  </g>
 </g>
 <defs>
  <clipPath id="p134439f465">
   <rect x="72" y="51.84" width="446.4" height="332.64"/>
  </clipPath>
 </defs>
</svg>
