<?xml version="1.0" encoding="utf-8" standalone="no"?>
<!DOCTYPE svg PUBLIC "-//W3C//DTD SVG 1.1//EN"
  "http://www.w3.org/Graphics/SVG/1.1/DTD/svg11.dtd">
<svg xmlns:xlink="http://www.w3.org/1999/xlink" width="720pt" height="432pt" viewBox="0 0 720 432" xmlns="http://www.w3.org/2000/svg" version="1.1">
 <metadata>
  <rdf:RDF xmlns:dc="http://purl.org/dc/elements/1.1/" xmlns:cc="http://creativecommons.org/ns#" xmlns:rdf="http://www.w3.org/1999/02/22-rdf-syntax-ns#">
   <cc:Work>
    <dc:type rdf:resource="http://purl.org/dc/dcmitype/StillImage"/>
    <dc:date>2025-11-20T21:32:01.390661</dc:date>
    <dc:format>image/svg+xml</dc:format>
    <dc:creator>
     <cc:Agent>
      <dc:title>Matplotlib v3.9.4, https://matplotlib.org/</dc:title>
     </cc:Agent>
    </dc:creator>
   </cc:Work>
  </rdf:RDF>
 </metadata>
 <defs>
  <style type="text/css">*{stroke-linejoin: round; stroke-linecap: butt}</style>
 </defs>
 <g id="figure_1">
  <g id="patch_1">
   <path d="M 0 432 
L 720 432 
L 720 0 
L 0 0 
z
" style="fill: #ffffff"/>
  </g>
  <g id="axes_1">
   <g id="patch_2">
    <path d="M 77.3 379.18 
L 607.76 379.18 
L 607.76 27.6 
L 77.3 27.6 
L 77.3 379.18 
z
" style="fill: none"/>
   </g>
   <g id="matplotlib.axis_1">
    <g id="xtick_1">
     <g id="line2d_1">
      <defs>
       <path id="m78db907e53" d="M 0 0 
L 0 5 
" style="stroke: #262626; stroke-width: 1.5"/>
      </defs>
      <g>
       <use xlink:href="#m78db907e53" x="87.393319" y="379.18" style="fill: #262626; stroke: #262626; stroke-width: 1.5"/>
      </g>
     </g>
     <g id="text_1">
      <!-- −250 -->
      <g style="fill: #262626" transform="translate(70.500741 398.416719) scale(0.15 -0.15)">
       <defs>
        <path id="ArialMT-2212" d="M 3381 1997 
L 356 1997 
L 356 2522 
L 3381 2522 
L 3381 1997 
z
" transform="scale(0.015625)"/>
        <path id="ArialMT-32" d="M 3222 541 
L 3222 0 
L 194 0 
Q 188 203 259 391 
Q 375 700 629 1000 
Q 884 1300 1366 1694 
Q 2113 2306 2375 2664 
Q 2638 3022 2638 3341 
Q 2638 3675 2398 3904 
Q 2159 4134 1775 4134 
Q 1369 4134 1125 3890 
Q 881 3647 878 3216 
L 300 3275 
Q 359 3922 746 4261 
Q 1134 4600 1788 4600 
Q 2447 4600 2831 4234 
Q 3216 3869 3216 3328 
Q 3216 3053 3103 2787 
Q 2991 2522 2730 2228 
Q 2469 1934 1863 1422 
Q 1356 997 1212 845 
Q 1069 694 975 541 
L 3222 541 
z
" transform="scale(0.015625)"/>
        <path id="ArialMT-35" d="M 266 1200 
L 856 1250 
Q 922 819 1161 601 
Q 1400 384 1738 384 
Q 2144 384 2425 690 
Q 2706 997 2706 1503 
Q 2706 1984 2436 2262 
Q 2166 2541 1728 2541 
Q 1456 2541 1237 2417 
Q 1019 2294 894 2097 
L 366 2166 
L 809 4519 
L 3088 4519 
L 3088 3981 
L 1259 3981 
L 1013 2750 
Q 1425 3038 1878 3038 
Q 2478 3038 2890 2622 
Q 3303 2206 3303 1553 
Q 3303 931 2941 478 
Q 2500 -78 1738 -78 
Q 1113 -78 717 272 
Q 322 622 266 1200 
z
" transform="scale(0.015625)"/>
        <path id="ArialMT-30" d="M 266 2259 
Q 266 3072 433 3567 
Q 600 4063 929 4331 
Q 1259 4600 1759 4600 
Q 2128 4600 2406 4451 
Q 2684 4303 2865 4023 
Q 3047 3744 3150 3342 
Q 3253 2941 3253 2259 
Q 3253 1453 3087 958 
Q 2922 463 2592 192 
Q 2263 -78 1759 -78 
Q 1097 -78 719 397 
Q 266 969 266 2259 
z
M 844 2259 
Q 844 1131 1108 757 
Q 1372 384 1759 384 
Q 2147 384 2411 759 
Q 2675 1134 2675 2259 
Q 2675 3391 2411 3762 
Q 2147 4134 1753 4134 
Q 1366 4134 1134 3806 
Q 844 3388 844 2259 
z
" transform="scale(0.015625)"/>
       </defs>
       <use xlink:href="#ArialMT-2212"/>
       <use xlink:href="#ArialMT-32" x="58.398438"/>
       <use xlink:href="#ArialMT-35" x="114.013672"/>
       <use xlink:href="#ArialMT-30" x="169.628906"/>
      </g>
     </g>
    </g>
    <g id="xtick_2">
     <g id="line2d_2">
      <g>
       <use xlink:href="#m78db907e53" x="157.485814" y="379.18" style="fill: #262626; stroke: #262626; stroke-width: 1.5"/>
      </g>
     </g>
     <g id="text_2">
      <!-- 0 -->
      <g style="fill: #262626" transform="translate(153.315111 398.416719) scale(0.15 -0.15)">
       <use xlink:href="#ArialMT-30"/>
      </g>
     </g>
    </g>
    <g id="xtick_3">
     <g id="line2d_3">
      <g>
       <use xlink:href="#m78db907e53" x="227.578309" y="379.18" style="fill: #262626; stroke: #262626; stroke-width: 1.5"/>
      </g>
     </g>
     <g id="text_3">
      <!-- 250 -->
      <g style="fill: #262626" transform="translate(215.066199 398.416719) scale(0.15 -0.15)">
       <use xlink:href="#ArialMT-32"/>
       <use xlink:href="#ArialMT-35" x="55.615234"/>
       <use xlink:href="#ArialMT-30" x="111.230469"/>
      </g>
     </g>
    </g>
    <g id="xtick_4">
     <g id="line2d_4">
      <g>
       <use xlink:href="#m78db907e53" x="297.670803" y="379.18" style="fill: #262626; stroke: #262626; stroke-width: 1.5"/>
      </g>
     </g>
     <g id="text_4">
      <!-- 500 -->
      <g style="fill: #262626" transform="translate(285.158694 398.416719) scale(0.15 -0.15)">
       <use xlink:href="#ArialMT-35"/>
       <use xlink:href="#ArialMT-30" x="55.615234"/>
       <use xlink:href="#ArialMT-30" x="111.230469"/>
      </g>
     </g>
    </g>
    <g id="xtick_5">
     <g id="line2d_5">
      <g>
       <use xlink:href="#m78db907e53" x="367.763298" y="379.18" style="fill: #262626; stroke: #262626; stroke-width: 1.5"/>
      </g>
     </g>
     <g id="text_5">
      <!-- 750 -->
      <g style="fill: #262626" transform="translate(355.251189 398.416719) scale(0.15 -0.15)">
       <defs>
        <path id="ArialMT-37" d="M 303 3981 
L 303 4522 
L 3269 4522 
L 3269 4084 
Q 2831 3619 2401 2847 
Q 1972 2075 1738 1259 
Q 1569 684 1522 0 
L 944 0 
Q 953 541 1156 1306 
Q 1359 2072 1739 2783 
Q 2119 3494 2547 3981 
L 303 3981 
z
" transform="scale(0.015625)"/>
       </defs>
       <use xlink:href="#ArialMT-37"/>
       <use xlink:href="#ArialMT-35" x="55.615234"/>
       <use xlink:href="#ArialMT-30" x="111.230469"/>
      </g>
     </g>
    </g>
    <g id="xtick_6">
     <g id="line2d_6">
      <g>
       <use xlink:href="#m78db907e53" x="437.855793" y="379.18" style="fill: #262626; stroke: #262626; stroke-width: 1.5"/>
      </g>
     </g>
     <g id="text_6">
      <!-- 1000 -->
      <g style="fill: #262626" transform="translate(421.17298 398.416719) scale(0.15 -0.15)">
       <defs>
        <path id="ArialMT-31" d="M 2384 0 
L 1822 0 
L 1822 3584 
Q 1619 3391 1289 3197 
Q 959 3003 697 2906 
L 697 3450 
Q 1169 3672 1522 3987 
Q 1875 4303 2022 4600 
L 2384 4600 
L 2384 0 
z
" transform="scale(0.015625)"/>
       </defs>
       <use xlink:href="#ArialMT-31"/>
       <use xlink:href="#ArialMT-30" x="55.615234"/>
       <use xlink:href="#ArialMT-30" x="111.230469"/>
       <use xlink:href="#ArialMT-30" x="166.845703"/>
      </g>
     </g>
    </g>
    <g id="xtick_7">
     <g id="line2d_7">
      <g>
       <use xlink:href="#m78db907e53" x="507.948288" y="379.18" style="fill: #262626; stroke: #262626; stroke-width: 1.5"/>
      </g>
     </g>
     <g id="text_7">
      <!-- 1250 -->
      <g style="fill: #262626" transform="translate(491.265475 398.416719) scale(0.15 -0.15)">
       <use xlink:href="#ArialMT-31"/>
       <use xlink:href="#ArialMT-32" x="55.615234"/>
       <use xlink:href="#ArialMT-35" x="111.230469"/>
       <use xlink:href="#ArialMT-30" x="166.845703"/>
      </g>
     </g>
    </g>
    <g id="xtick_8">
     <g id="line2d_8">
      <g>
       <use xlink:href="#m78db907e53" x="578.040782" y="379.18" style="fill: #262626; stroke: #262626; stroke-width: 1.5"/>
      </g>
     </g>
     <g id="text_8">
      <!-- 1500 -->
      <g style="fill: #262626" transform="translate(561.35797 398.416719) scale(0.15 -0.15)">
       <use xlink:href="#ArialMT-31"/>
       <use xlink:href="#ArialMT-35" x="55.615234"/>
       <use xlink:href="#ArialMT-30" x="111.230469"/>
       <use xlink:href="#ArialMT-30" x="166.845703"/>
      </g>
     </g>
    </g>
    <g id="text_9">
     <!-- Time (s) -->
     <g style="fill: #262626" transform="translate(315.317891 416.3175) scale(0.15 -0.15)">
      <defs>
       <path id="ArialMT-54" d="M 1659 0 
L 1659 4041 
L 150 4041 
L 150 4581 
L 3781 4581 
L 3781 4041 
L 2266 4041 
L 2266 0 
L 1659 0 
z
" transform="scale(0.015625)"/>
       <path id="ArialMT-69" d="M 425 3934 
L 425 4581 
L 988 4581 
L 988 3934 
L 425 3934 
z
M 425 0 
L 425 3319 
L 988 3319 
L 988 0 
L 425 0 
z
" transform="scale(0.015625)"/>
       <path id="ArialMT-6d" d="M 422 0 
L 422 3319 
L 925 3319 
L 925 2853 
Q 1081 3097 1340 3245 
Q 1600 3394 1931 3394 
Q 2300 3394 2536 3241 
Q 2772 3088 2869 2813 
Q 3263 3394 3894 3394 
Q 4388 3394 4653 3120 
Q 4919 2847 4919 2278 
L 4919 0 
L 4359 0 
L 4359 2091 
Q 4359 2428 4304 2576 
Q 4250 2725 4106 2815 
Q 3963 2906 3769 2906 
Q 3419 2906 3187 2673 
Q 2956 2441 2956 1928 
L 2956 0 
L 2394 0 
L 2394 2156 
Q 2394 2531 2256 2718 
Q 2119 2906 1806 2906 
Q 1569 2906 1367 2781 
Q 1166 2656 1075 2415 
Q 984 2175 984 1722 
L 984 0 
L 422 0 
z
" transform="scale(0.015625)"/>
       <path id="ArialMT-65" d="M 2694 1069 
L 3275 997 
Q 3138 488 2766 206 
Q 2394 -75 1816 -75 
Q 1088 -75 661 373 
Q 234 822 234 1631 
Q 234 2469 665 2931 
Q 1097 3394 1784 3394 
Q 2450 3394 2872 2941 
Q 3294 2488 3294 1666 
Q 3294 1616 3291 1516 
L 816 1516 
Q 847 969 1125 678 
Q 1403 388 1819 388 
Q 2128 388 2347 550 
Q 2566 713 2694 1069 
z
M 847 1978 
L 2700 1978 
Q 2663 2397 2488 2606 
Q 2219 2931 1791 2931 
Q 1403 2931 1139 2672 
Q 875 2413 847 1978 
z
" transform="scale(0.015625)"/>
       <path id="ArialMT-20" transform="scale(0.015625)"/>
       <path id="ArialMT-28" d="M 1497 -1347 
Q 1031 -759 709 28 
Q 388 816 388 1659 
Q 388 2403 628 3084 
Q 909 3875 1497 4659 
L 1900 4659 
Q 1522 4009 1400 3731 
Q 1209 3300 1100 2831 
Q 966 2247 966 1656 
Q 966 153 1900 -1347 
L 1497 -1347 
z
" transform="scale(0.015625)"/>
       <path id="ArialMT-73" d="M 197 991 
L 753 1078 
Q 800 744 1014 566 
Q 1228 388 1613 388 
Q 2000 388 2187 545 
Q 2375 703 2375 916 
Q 2375 1106 2209 1216 
Q 2094 1291 1634 1406 
Q 1016 1563 777 1677 
Q 538 1791 414 1992 
Q 291 2194 291 2438 
Q 291 2659 392 2848 
Q 494 3038 669 3163 
Q 800 3259 1026 3326 
Q 1253 3394 1513 3394 
Q 1903 3394 2198 3281 
Q 2494 3169 2634 2976 
Q 2775 2784 2828 2463 
L 2278 2388 
Q 2241 2644 2061 2787 
Q 1881 2931 1553 2931 
Q 1166 2931 1000 2803 
Q 834 2675 834 2503 
Q 834 2394 903 2306 
Q 972 2216 1119 2156 
Q 1203 2125 1616 2013 
Q 2213 1853 2448 1751 
Q 2684 1650 2818 1456 
Q 2953 1263 2953 975 
Q 2953 694 2789 445 
Q 2625 197 2315 61 
Q 2006 -75 1616 -75 
Q 969 -75 630 194 
Q 291 463 197 991 
z
" transform="scale(0.015625)"/>
       <path id="ArialMT-29" d="M 791 -1347 
L 388 -1347 
Q 1322 153 1322 1656 
Q 1322 2244 1188 2822 
Q 1081 3291 891 3722 
Q 769 4003 388 4659 
L 791 4659 
Q 1378 3875 1659 3084 
Q 1900 2403 1900 1659 
Q 1900 816 1576 28 
Q 1253 -759 791 -1347 
z
" transform="scale(0.015625)"/>
      </defs>
      <use xlink:href="#ArialMT-54"/>
      <use xlink:href="#ArialMT-69" x="57.333984"/>
      <use xlink:href="#ArialMT-6d" x="79.550781"/>
      <use xlink:href="#ArialMT-65" x="162.851562"/>
      <use xlink:href="#ArialMT-20" x="218.466797"/>
      <use xlink:href="#ArialMT-28" x="246.25"/>
      <use xlink:href="#ArialMT-73" x="279.550781"/>
      <use xlink:href="#ArialMT-29" x="329.550781"/>
     </g>
    </g>
   </g>
   <g id="matplotlib.axis_2">
    <g id="ytick_1">
     <g id="line2d_9">
      <defs>
       <path id="m7b5e8ecb74" d="M 0 0 
L -5 0 
" style="stroke: #262626; stroke-width: 1.5"/>
      </defs>
      <g>
       <use xlink:href="#m7b5e8ecb74" x="77.3" y="346.143169" style="fill: #262626; stroke: #262626; stroke-width: 1.5"/>
      </g>
     </g>
     <g id="text_10">
      <!-- −0.05 -->
      <g style="fill: #262626" transform="translate(30.847656 351.511528) scale(0.15 -0.15)">
       <defs>
        <path id="ArialMT-2e" d="M 581 0 
L 581 641 
L 1222 641 
L 1222 0 
L 581 0 
z
" transform="scale(0.015625)"/>
       </defs>
       <use xlink:href="#ArialMT-2212"/>
       <use xlink:href="#ArialMT-30" x="58.398438"/>
       <use xlink:href="#ArialMT-2e" x="114.013672"/>
       <use xlink:href="#ArialMT-30" x="141.796875"/>
       <use xlink:href="#ArialMT-35" x="197.412109"/>
      </g>
     </g>
    </g>
    <g id="ytick_2">
     <g id="line2d_10">
      <g>
       <use xlink:href="#m7b5e8ecb74" x="77.3" y="302.344817" style="fill: #262626; stroke: #262626; stroke-width: 1.5"/>
      </g>
     </g>
     <g id="text_11">
      <!-- 0.00 -->
      <g style="fill: #262626" transform="translate(39.608594 307.713176) scale(0.15 -0.15)">
       <use xlink:href="#ArialMT-30"/>
       <use xlink:href="#ArialMT-2e" x="55.615234"/>
       <use xlink:href="#ArialMT-30" x="83.398438"/>
       <use xlink:href="#ArialMT-30" x="139.013672"/>
      </g>
     </g>
    </g>
    <g id="ytick_3">
     <g id="line2d_11">
      <g>
       <use xlink:href="#m7b5e8ecb74" x="77.3" y="258.546466" style="fill: #262626; stroke: #262626; stroke-width: 1.5"/>
      </g>
     </g>
     <g id="text_12">
      <!-- 0.05 -->
      <g style="fill: #262626" transform="translate(39.608594 263.914825) scale(0.15 -0.15)">
       <use xlink:href="#ArialMT-30"/>
       <use xlink:href="#ArialMT-2e" x="55.615234"/>
       <use xlink:href="#ArialMT-30" x="83.398438"/>
       <use xlink:href="#ArialMT-35" x="139.013672"/>
      </g>
     </g>
    </g>
    <g id="ytick_4">
     <g id="line2d_12">
      <g>
       <use xlink:href="#m7b5e8ecb74" x="77.3" y="214.748114" style="fill: #262626; stroke: #262626; stroke-width: 1.5"/>
      </g>
     </g>
     <g id="text_13">
      <!-- 0.10 -->
      <g style="fill: #262626" transform="translate(39.608594 220.116474) scale(0.15 -0.15)">
       <use xlink:href="#ArialMT-30"/>
       <use xlink:href="#ArialMT-2e" x="55.615234"/>
       <use xlink:href="#ArialMT-31" x="83.398438"/>
       <use xlink:href="#ArialMT-30" x="139.013672"/>
      </g>
     </g>
    </g>
    <g id="ytick_5">
     <g id="line2d_13">
      <g>
       <use xlink:href="#m7b5e8ecb74" x="77.3" y="170.949763" style="fill: #262626; stroke: #262626; stroke-width: 1.5"/>
      </g>
     </g>
     <g id="text_14">
      <!-- 0.15 -->
      <g style="fill: #262626" transform="translate(39.608594 176.318122) scale(0.15 -0.15)">
       <use xlink:href="#ArialMT-30"/>
       <use xlink:href="#ArialMT-2e" x="55.615234"/>
       <use xlink:href="#ArialMT-31" x="83.398438"/>
       <use xlink:href="#ArialMT-35" x="139.013672"/>
      </g>
     </g>
    </g>
    <g id="ytick_6">
     <g id="line2d_14">
      <g>
       <use xlink:href="#m7b5e8ecb74" x="77.3" y="127.151411" style="fill: #262626; stroke: #262626; stroke-width: 1.5"/>
      </g>
     </g>
     <g id="text_15">
      <!-- 0.20 -->
      <g style="fill: #262626" transform="translate(39.608594 132.519771) scale(0.15 -0.15)">
       <use xlink:href="#ArialMT-30"/>
       <use xlink:href="#ArialMT-2e" x="55.615234"/>
       <use xlink:href="#ArialMT-32" x="83.398438"/>
       <use xlink:href="#ArialMT-30" x="139.013672"/>
      </g>
     </g>
    </g>
    <g id="ytick_7">
     <g id="line2d_15">
      <g>
       <use xlink:href="#m7b5e8ecb74" x="77.3" y="83.35306" style="fill: #262626; stroke: #262626; stroke-width: 1.5"/>
      </g>
     </g>
     <g id="text_16">
      <!-- 0.25 -->
      <g style="fill: #262626" transform="translate(39.608594 88.721419) scale(0.15 -0.15)">
       <use xlink:href="#ArialMT-30"/>
       <use xlink:href="#ArialMT-2e" x="55.615234"/>
       <use xlink:href="#ArialMT-32" x="83.398438"/>
       <use xlink:href="#ArialMT-35" x="139.013672"/>
      </g>
     </g>
    </g>
    <g id="ytick_8">
     <g id="line2d_16">
      <g>
       <use xlink:href="#m7b5e8ecb74" x="77.3" y="39.554709" style="fill: #262626; stroke: #262626; stroke-width: 1.5"/>
      </g>
     </g>
     <g id="text_17">
      <!-- 0.30 -->
      <g style="fill: #262626" transform="translate(39.608594 44.923068) scale(0.15 -0.15)">
       <defs>
        <path id="ArialMT-33" d="M 269 1209 
L 831 1284 
Q 928 806 1161 595 
Q 1394 384 1728 384 
Q 2125 384 2398 659 
Q 2672 934 2672 1341 
Q 2672 1728 2419 1979 
Q 2166 2231 1775 2231 
Q 1616 2231 1378 2169 
L 1441 2663 
Q 1497 2656 1531 2656 
Q 1891 2656 2178 2843 
Q 2466 3031 2466 3422 
Q 2466 3731 2256 3934 
Q 2047 4138 1716 4138 
Q 1388 4138 1169 3931 
Q 950 3725 888 3313 
L 325 3413 
Q 428 3978 793 4289 
Q 1159 4600 1703 4600 
Q 2078 4600 2393 4439 
Q 2709 4278 2876 4000 
Q 3044 3722 3044 3409 
Q 3044 3113 2884 2869 
Q 2725 2625 2413 2481 
Q 2819 2388 3044 2092 
Q 3269 1797 3269 1353 
Q 3269 753 2831 336 
Q 2394 -81 1725 -81 
Q 1122 -81 723 278 
Q 325 638 269 1209 
z
" transform="scale(0.015625)"/>
       </defs>
       <use xlink:href="#ArialMT-30"/>
       <use xlink:href="#ArialMT-2e" x="55.615234"/>
       <use xlink:href="#ArialMT-33" x="83.398438"/>
       <use xlink:href="#ArialMT-30" x="139.013672"/>
      </g>
     </g>
    </g>
    <g id="text_18">
     <!-- Divergence -->
     <g style="fill: #262626" transform="translate(23.690625 241.323594) rotate(-90) scale(0.15 -0.15)">
      <defs>
       <path id="ArialMT-44" d="M 494 0 
L 494 4581 
L 2072 4581 
Q 2606 4581 2888 4516 
Q 3281 4425 3559 4188 
Q 3922 3881 4101 3404 
Q 4281 2928 4281 2316 
Q 4281 1794 4159 1391 
Q 4038 988 3847 723 
Q 3656 459 3429 307 
Q 3203 156 2883 78 
Q 2563 0 2147 0 
L 494 0 
z
M 1100 541 
L 2078 541 
Q 2531 541 2789 625 
Q 3047 709 3200 863 
Q 3416 1078 3536 1442 
Q 3656 1806 3656 2325 
Q 3656 3044 3420 3430 
Q 3184 3816 2847 3947 
Q 2603 4041 2063 4041 
L 1100 4041 
L 1100 541 
z
" transform="scale(0.015625)"/>
       <path id="ArialMT-76" d="M 1344 0 
L 81 3319 
L 675 3319 
L 1388 1331 
Q 1503 1009 1600 663 
Q 1675 925 1809 1294 
L 2547 3319 
L 3125 3319 
L 1869 0 
L 1344 0 
z
" transform="scale(0.015625)"/>
       <path id="ArialMT-72" d="M 416 0 
L 416 3319 
L 922 3319 
L 922 2816 
Q 1116 3169 1280 3281 
Q 1444 3394 1641 3394 
Q 1925 3394 2219 3213 
L 2025 2691 
Q 1819 2813 1613 2813 
Q 1428 2813 1281 2702 
Q 1134 2591 1072 2394 
Q 978 2094 978 1738 
L 978 0 
L 416 0 
z
" transform="scale(0.015625)"/>
       <path id="ArialMT-67" d="M 319 -275 
L 866 -356 
Q 900 -609 1056 -725 
Q 1266 -881 1628 -881 
Q 2019 -881 2231 -725 
Q 2444 -569 2519 -288 
Q 2563 -116 2559 434 
Q 2191 0 1641 0 
Q 956 0 581 494 
Q 206 988 206 1678 
Q 206 2153 378 2554 
Q 550 2956 876 3175 
Q 1203 3394 1644 3394 
Q 2231 3394 2613 2919 
L 2613 3319 
L 3131 3319 
L 3131 450 
Q 3131 -325 2973 -648 
Q 2816 -972 2473 -1159 
Q 2131 -1347 1631 -1347 
Q 1038 -1347 672 -1080 
Q 306 -813 319 -275 
z
M 784 1719 
Q 784 1066 1043 766 
Q 1303 466 1694 466 
Q 2081 466 2343 764 
Q 2606 1063 2606 1700 
Q 2606 2309 2336 2618 
Q 2066 2928 1684 2928 
Q 1309 2928 1046 2623 
Q 784 2319 784 1719 
z
" transform="scale(0.015625)"/>
       <path id="ArialMT-6e" d="M 422 0 
L 422 3319 
L 928 3319 
L 928 2847 
Q 1294 3394 1984 3394 
Q 2284 3394 2536 3286 
Q 2788 3178 2913 3003 
Q 3038 2828 3088 2588 
Q 3119 2431 3119 2041 
L 3119 0 
L 2556 0 
L 2556 2019 
Q 2556 2363 2490 2533 
Q 2425 2703 2258 2804 
Q 2091 2906 1866 2906 
Q 1506 2906 1245 2678 
Q 984 2450 984 1813 
L 984 0 
L 422 0 
z
" transform="scale(0.015625)"/>
       <path id="ArialMT-63" d="M 2588 1216 
L 3141 1144 
Q 3050 572 2676 248 
Q 2303 -75 1759 -75 
Q 1078 -75 664 370 
Q 250 816 250 1647 
Q 250 2184 428 2587 
Q 606 2991 970 3192 
Q 1334 3394 1763 3394 
Q 2303 3394 2647 3120 
Q 2991 2847 3088 2344 
L 2541 2259 
Q 2463 2594 2264 2762 
Q 2066 2931 1784 2931 
Q 1359 2931 1093 2626 
Q 828 2322 828 1663 
Q 828 994 1084 691 
Q 1341 388 1753 388 
Q 2084 388 2306 591 
Q 2528 794 2588 1216 
z
" transform="scale(0.015625)"/>
      </defs>
      <use xlink:href="#ArialMT-44"/>
      <use xlink:href="#ArialMT-69" x="72.216797"/>
      <use xlink:href="#ArialMT-76" x="94.433594"/>
      <use xlink:href="#ArialMT-65" x="144.433594"/>
      <use xlink:href="#ArialMT-72" x="200.048828"/>
      <use xlink:href="#ArialMT-67" x="233.349609"/>
      <use xlink:href="#ArialMT-65" x="288.964844"/>
      <use xlink:href="#ArialMT-6e" x="344.580078"/>
      <use xlink:href="#ArialMT-63" x="400.195312"/>
      <use xlink:href="#ArialMT-65" x="450.195312"/>
     </g>
    </g>
   </g>
   <g id="PolyCollection_1">
    <defs>
     <path id="m4a5032e22a" d="M 101.411818 -125.991774 
L 101.411818 -68.800909 
L 107.019218 -127.429729 
L 112.626617 -129.996198 
L 118.234017 -130.095095 
L 123.841416 -129.133705 
L 129.448816 -128.161894 
L 135.056216 -125.37114 
L 140.663615 -125.85166 
L 146.271015 -126.96705 
L 151.878414 -126.649357 
L 157.485814 -138.326169 
L 163.093214 -147.990435 
L 168.700613 -129.441496 
L 174.308013 -112.144751 
L 179.915412 -120.728581 
L 185.522812 -129.82821 
L 191.130211 -134.522596 
L 196.737611 -140.360667 
L 202.345011 -144.483687 
L 207.95241 -144.425589 
L 213.55981 -147.280078 
L 219.167209 -154.777783 
L 224.774609 -168.731317 
L 230.382008 -173.233468 
L 235.989408 -182.574299 
L 241.596808 -187.976386 
L 247.204207 -196.412119 
L 252.811607 -204.824141 
L 258.419006 -216.29641 
L 264.026406 -223.771651 
L 269.633805 -233.161608 
L 275.241205 -240.149714 
L 280.848605 -249.961264 
L 286.456004 -253.503283 
L 292.063404 -248.359141 
L 297.670803 -248.267099 
L 303.278203 -247.133262 
L 308.885603 -255.587262 
L 314.493002 -266.660824 
L 320.100402 -275.536985 
L 325.707801 -283.044869 
L 331.315201 -287.067264 
L 336.9226 -291.120567 
L 342.53 -293.250653 
L 348.1374 -298.012267 
L 353.744799 -292.807336 
L 359.352199 -293.732717 
L 364.959598 -289.714379 
L 370.566998 -289.905182 
L 376.174397 -290.293455 
L 381.781797 -292.884287 
L 387.389197 -298.785173 
L 392.996596 -302.659096 
L 398.603996 -301.338994 
L 404.211395 -300.951014 
L 409.818795 -298.786126 
L 415.426195 -297.831534 
L 421.033594 -294.35617 
L 426.640994 -291.664175 
L 432.248393 -286.508174 
L 437.855793 -277.429565 
L 443.463192 -273.455789 
L 449.070592 -270.059536 
L 454.677992 -268.485666 
L 460.285391 -267.342254 
L 465.892791 -262.121665 
L 471.50019 -259.236428 
L 477.10759 -258.494294 
L 482.714989 -261.10393 
L 488.322389 -265.484617 
L 493.929789 -266.946556 
L 499.537188 -267.931161 
L 505.144588 -271.484208 
L 510.751987 -273.722737 
L 516.359387 -273.751321 
L 521.966786 -274.394501 
L 527.574186 -272.871197 
L 533.181586 -271.59831 
L 538.788985 -270.474659 
L 544.396385 -269.818636 
L 550.003784 -272.011434 
L 555.611184 -271.557296 
L 561.218584 -270.829576 
L 566.825983 -269.57412 
L 572.433383 -269.653836 
L 578.040782 -268.483798 
L 583.648182 -268.192781 
L 583.648182 -312.246485 
L 583.648182 -312.246485 
L 578.040782 -312.471134 
L 572.433383 -313.756587 
L 566.825983 -313.587143 
L 561.218584 -314.815757 
L 555.611184 -315.738371 
L 550.003784 -316.105989 
L 544.396385 -313.688342 
L 538.788985 -314.537849 
L 533.181586 -315.645435 
L 527.574186 -317.128658 
L 521.966786 -318.697919 
L 516.359387 -317.97222 
L 510.751987 -317.786551 
L 505.144588 -315.005633 
L 499.537188 -311.20289 
L 493.929789 -309.589672 
L 488.322389 -307.650474 
L 482.714989 -302.569002 
L 477.10759 -299.428364 
L 471.50019 -299.515054 
L 465.892791 -302.20403 
L 460.285391 -307.433009 
L 454.677992 -308.226823 
L 449.070592 -309.331121 
L 443.463192 -312.713614 
L 437.855793 -316.341196 
L 432.248393 -326.361774 
L 426.640994 -332.263167 
L 421.033594 -334.995159 
L 415.426195 -338.883611 
L 409.818795 -339.681539 
L 404.211395 -342.410106 
L 398.603996 -343.53847 
L 392.996596 -344.759673 
L 387.389197 -339.278245 
L 381.781797 -331.42879 
L 376.174397 -328.190802 
L 370.566998 -327.392716 
L 364.959598 -326.794848 
L 359.352199 -329.773636 
L 353.744799 -327.764912 
L 348.1374 -333.00552 
L 342.53 -327.86704 
L 336.9226 -323.973964 
L 331.315201 -319.507743 
L 325.707801 -315.510374 
L 320.100402 -308.189686 
L 314.493002 -298.977399 
L 308.885603 -286.835404 
L 303.278203 -277.128272 
L 297.670803 -277.177056 
L 292.063404 -275.850697 
L 286.456004 -279.775986 
L 280.848605 -275.745533 
L 275.241205 -264.902311 
L 269.633805 -257.717295 
L 264.026406 -247.035898 
L 258.419006 -238.133217 
L 252.811607 -225.108566 
L 247.204207 -216.234652 
L 241.596808 -208.364884 
L 235.989408 -202.506299 
L 230.382008 -192.114563 
L 224.774609 -186.113447 
L 219.167209 -169.725057 
L 213.55981 -159.958518 
L 207.95241 -156.347908 
L 202.345011 -155.308642 
L 196.737611 -150.10447 
L 191.130211 -144.973172 
L 185.522812 -141.050577 
L 179.915412 -136.450951 
L 174.308013 -128.984072 
L 168.700613 -150.203738 
L 163.093214 -171.365019 
L 157.485814 -152.923544 
L 151.878414 -129.507568 
L 146.271015 -132.345626 
L 140.663615 -131.996363 
L 135.056216 -130.290833 
L 129.448816 -130.608732 
L 123.841416 -130.698402 
L 118.234017 -132.044065 
L 112.626617 -132.730115 
L 107.019218 -131.574783 
L 101.411818 -125.991774 
z
" style="stroke: #1e72ff; stroke-opacity: 0.1"/>
    </defs>
    <g clip-path="url(#p38fa145dae)">
     <use xlink:href="#m4a5032e22a" x="0" y="432" style="fill: #1e72ff; fill-opacity: 0.1; stroke: #1e72ff; stroke-opacity: 0.1"/>
    </g>
   </g>
   <g id="PolyCollection_2">
    <defs>
     <path id="m03649dae25" d="M 101.411818 -139.042786 
L 101.411818 -127.341347 
L 107.019218 -127.399945 
L 112.626617 -129.301296 
L 118.234017 -129.18129 
L 123.841416 -129.863851 
L 129.448816 -129.229598 
L 135.056216 -129.524858 
L 140.663615 -130.193343 
L 146.271015 -129.936416 
L 151.878414 -129.759342 
L 157.485814 -134.539507 
L 163.093214 -144.103022 
L 168.700613 -143.156539 
L 174.308013 -141.103704 
L 179.915412 -137.959679 
L 185.522812 -136.846582 
L 191.130211 -135.740962 
L 196.737611 -136.762149 
L 202.345011 -137.87892 
L 207.95241 -137.930277 
L 213.55981 -136.408534 
L 219.167209 -136.231614 
L 224.774609 -136.098377 
L 230.382008 -137.421158 
L 235.989408 -139.990537 
L 241.596808 -142.058321 
L 247.204207 -143.156626 
L 252.811607 -145.070426 
L 258.419006 -146.76647 
L 264.026406 -148.614987 
L 269.633805 -147.491918 
L 275.241205 -145.438365 
L 280.848605 -145.017438 
L 286.456004 -145.719899 
L 292.063404 -145.609069 
L 297.670803 -145.438729 
L 303.278203 -146.255991 
L 308.885603 -147.649423 
L 314.493002 -148.443573 
L 320.100402 -149.766822 
L 325.707801 -150.233119 
L 331.315201 -150.001521 
L 336.9226 -150.161528 
L 342.53 -148.740578 
L 348.1374 -148.23932 
L 353.744799 -146.492677 
L 359.352199 -145.153458 
L 364.959598 -143.495882 
L 370.566998 -142.534706 
L 376.174397 -140.882305 
L 381.781797 -141.1275 
L 387.389197 -140.286744 
L 392.996596 -140.30032 
L 398.603996 -140.640147 
L 404.211395 -139.108461 
L 409.818795 -137.045939 
L 415.426195 -138.057886 
L 421.033594 -139.595029 
L 426.640994 -138.913921 
L 432.248393 -138.689973 
L 437.855793 -137.455479 
L 443.463192 -136.550478 
L 449.070592 -136.445969 
L 454.677992 -135.647013 
L 460.285391 -135.145811 
L 465.892791 -134.918512 
L 471.50019 -134.888843 
L 477.10759 -134.890646 
L 482.714989 -134.529173 
L 488.322389 -134.616912 
L 493.929789 -135.051227 
L 499.537188 -135.370712 
L 505.144588 -135.207859 
L 510.751987 -135.029629 
L 516.359387 -134.75236 
L 521.966786 -134.391601 
L 527.574186 -134.750232 
L 533.181586 -134.437022 
L 538.788985 -134.649922 
L 544.396385 -134.990012 
L 550.003784 -134.630418 
L 555.611184 -134.664923 
L 561.218584 -134.349796 
L 566.825983 -134.632037 
L 572.433383 -134.561479 
L 578.040782 -134.542578 
L 583.648182 -134.196595 
L 583.648182 -135.60562 
L 583.648182 -135.60562 
L 578.040782 -135.984488 
L 572.433383 -136.056904 
L 566.825983 -136.177386 
L 561.218584 -135.773186 
L 555.611184 -136.177668 
L 550.003784 -136.111317 
L 544.396385 -136.534282 
L 538.788985 -136.158076 
L 533.181586 -135.912021 
L 527.574186 -136.303274 
L 521.966786 -135.91634 
L 516.359387 -136.274238 
L 510.751987 -136.635315 
L 505.144588 -136.815397 
L 499.537188 -136.991446 
L 493.929789 -136.660937 
L 488.322389 -136.226433 
L 482.714989 -136.081557 
L 477.10759 -136.479071 
L 471.50019 -136.42368 
L 465.892791 -136.42975 
L 460.285391 -136.686741 
L 454.677992 -137.219563 
L 449.070592 -138.067494 
L 443.463192 -138.188398 
L 437.855793 -139.208085 
L 432.248393 -140.664457 
L 426.640994 -140.839526 
L 421.033594 -141.730154 
L 415.426195 -140.055607 
L 409.818795 -138.995047 
L 404.211395 -141.223591 
L 398.603996 -142.910453 
L 392.996596 -142.61158 
L 387.389197 -142.681384 
L 381.781797 -143.685633 
L 376.174397 -143.286508 
L 370.566998 -145.120925 
L 364.959598 -146.07755 
L 359.352199 -147.888661 
L 353.744799 -149.355994 
L 348.1374 -151.334817 
L 342.53 -151.878936 
L 336.9226 -153.432977 
L 331.315201 -153.273992 
L 325.707801 -154.26724 
L 320.100402 -153.228408 
L 314.493002 -151.974332 
L 308.885603 -151.35267 
L 303.278203 -149.759936 
L 297.670803 -148.744917 
L 292.063404 -148.799113 
L 286.456004 -148.79015 
L 280.848605 -147.883479 
L 275.241205 -148.229976 
L 269.633805 -150.480137 
L 264.026406 -151.721108 
L 258.419006 -149.767992 
L 252.811607 -148.046532 
L 247.204207 -146.137172 
L 241.596808 -144.997601 
L 235.989408 -142.60441 
L 230.382008 -139.704521 
L 224.774609 -138.100522 
L 219.167209 -138.321227 
L 213.55981 -138.407532 
L 207.95241 -139.722742 
L 202.345011 -139.665719 
L 196.737611 -138.535945 
L 191.130211 -137.751787 
L 185.522812 -139.089206 
L 179.915412 -140.525233 
L 174.308013 -144.513529 
L 168.700613 -148.260031 
L 163.093214 -150.209474 
L 157.485814 -137.882586 
L 151.878414 -130.554567 
L 146.271015 -130.690399 
L 140.663615 -131.302776 
L 135.056216 -130.550272 
L 129.448816 -129.793647 
L 123.841416 -130.281536 
L 118.234017 -129.721501 
L 112.626617 -129.798947 
L 107.019218 -128.95751 
L 101.411818 -139.042786 
z
" style="stroke: #1e72ff; stroke-opacity: 0.1"/>
    </defs>
    <g clip-path="url(#p38fa145dae)">
     <use xlink:href="#m03649dae25" x="0" y="432" style="fill: #1e72ff; fill-opacity: 0.1; stroke: #1e72ff; stroke-opacity: 0.1"/>
    </g>
   </g>
   <g id="PathCollection_1">
    <defs>
     <path id="m9ded5e27d3" d="M -2.5 2.5 
L 2.5 2.5 
L 2.5 -2.5 
L -2.5 -2.5 
z
" style="stroke: #1e72ff"/>
    </defs>
    <g clip-path="url(#p38fa145dae)">
     <use xlink:href="#m9ded5e27d3" x="219.167209" y="311.104487" style="fill: #1e72ff; stroke: #1e72ff"/>
     <use xlink:href="#m9ded5e27d3" x="224.774609" y="311.104487" style="fill: #1e72ff; stroke: #1e72ff"/>
     <use xlink:href="#m9ded5e27d3" x="230.382008" y="311.104487" style="fill: #1e72ff; stroke: #1e72ff"/>
     <use xlink:href="#m9ded5e27d3" x="235.989408" y="311.104487" style="fill: #1e72ff; stroke: #1e72ff"/>
     <use xlink:href="#m9ded5e27d3" x="241.596808" y="311.104487" style="fill: #1e72ff; stroke: #1e72ff"/>
     <use xlink:href="#m9ded5e27d3" x="247.204207" y="311.104487" style="fill: #1e72ff; stroke: #1e72ff"/>
     <use xlink:href="#m9ded5e27d3" x="252.811607" y="311.104487" style="fill: #1e72ff; stroke: #1e72ff"/>
     <use xlink:href="#m9ded5e27d3" x="258.419006" y="311.104487" style="fill: #1e72ff; stroke: #1e72ff"/>
     <use xlink:href="#m9ded5e27d3" x="264.026406" y="311.104487" style="fill: #1e72ff; stroke: #1e72ff"/>
     <use xlink:href="#m9ded5e27d3" x="269.633805" y="311.104487" style="fill: #1e72ff; stroke: #1e72ff"/>
     <use xlink:href="#m9ded5e27d3" x="275.241205" y="311.104487" style="fill: #1e72ff; stroke: #1e72ff"/>
     <use xlink:href="#m9ded5e27d3" x="280.848605" y="311.104487" style="fill: #1e72ff; stroke: #1e72ff"/>
     <use xlink:href="#m9ded5e27d3" x="286.456004" y="311.104487" style="fill: #1e72ff; stroke: #1e72ff"/>
     <use xlink:href="#m9ded5e27d3" x="292.063404" y="311.104487" style="fill: #1e72ff; stroke: #1e72ff"/>
     <use xlink:href="#m9ded5e27d3" x="297.670803" y="311.104487" style="fill: #1e72ff; stroke: #1e72ff"/>
     <use xlink:href="#m9ded5e27d3" x="303.278203" y="311.104487" style="fill: #1e72ff; stroke: #1e72ff"/>
     <use xlink:href="#m9ded5e27d3" x="308.885603" y="311.104487" style="fill: #1e72ff; stroke: #1e72ff"/>
     <use xlink:href="#m9ded5e27d3" x="314.493002" y="311.104487" style="fill: #1e72ff; stroke: #1e72ff"/>
     <use xlink:href="#m9ded5e27d3" x="320.100402" y="311.104487" style="fill: #1e72ff; stroke: #1e72ff"/>
     <use xlink:href="#m9ded5e27d3" x="325.707801" y="311.104487" style="fill: #1e72ff; stroke: #1e72ff"/>
     <use xlink:href="#m9ded5e27d3" x="331.315201" y="311.104487" style="fill: #1e72ff; stroke: #1e72ff"/>
     <use xlink:href="#m9ded5e27d3" x="336.9226" y="311.104487" style="fill: #1e72ff; stroke: #1e72ff"/>
     <use xlink:href="#m9ded5e27d3" x="342.53" y="311.104487" style="fill: #1e72ff; stroke: #1e72ff"/>
     <use xlink:href="#m9ded5e27d3" x="348.1374" y="311.104487" style="fill: #1e72ff; stroke: #1e72ff"/>
     <use xlink:href="#m9ded5e27d3" x="353.744799" y="311.104487" style="fill: #1e72ff; stroke: #1e72ff"/>
     <use xlink:href="#m9ded5e27d3" x="359.352199" y="311.104487" style="fill: #1e72ff; stroke: #1e72ff"/>
     <use xlink:href="#m9ded5e27d3" x="364.959598" y="311.104487" style="fill: #1e72ff; stroke: #1e72ff"/>
     <use xlink:href="#m9ded5e27d3" x="370.566998" y="311.104487" style="fill: #1e72ff; stroke: #1e72ff"/>
     <use xlink:href="#m9ded5e27d3" x="376.174397" y="311.104487" style="fill: #1e72ff; stroke: #1e72ff"/>
     <use xlink:href="#m9ded5e27d3" x="381.781797" y="311.104487" style="fill: #1e72ff; stroke: #1e72ff"/>
     <use xlink:href="#m9ded5e27d3" x="387.389197" y="311.104487" style="fill: #1e72ff; stroke: #1e72ff"/>
     <use xlink:href="#m9ded5e27d3" x="392.996596" y="311.104487" style="fill: #1e72ff; stroke: #1e72ff"/>
     <use xlink:href="#m9ded5e27d3" x="398.603996" y="311.104487" style="fill: #1e72ff; stroke: #1e72ff"/>
     <use xlink:href="#m9ded5e27d3" x="404.211395" y="311.104487" style="fill: #1e72ff; stroke: #1e72ff"/>
     <use xlink:href="#m9ded5e27d3" x="409.818795" y="311.104487" style="fill: #1e72ff; stroke: #1e72ff"/>
     <use xlink:href="#m9ded5e27d3" x="415.426195" y="311.104487" style="fill: #1e72ff; stroke: #1e72ff"/>
     <use xlink:href="#m9ded5e27d3" x="421.033594" y="311.104487" style="fill: #1e72ff; stroke: #1e72ff"/>
     <use xlink:href="#m9ded5e27d3" x="426.640994" y="311.104487" style="fill: #1e72ff; stroke: #1e72ff"/>
     <use xlink:href="#m9ded5e27d3" x="432.248393" y="311.104487" style="fill: #1e72ff; stroke: #1e72ff"/>
     <use xlink:href="#m9ded5e27d3" x="437.855793" y="311.104487" style="fill: #1e72ff; stroke: #1e72ff"/>
     <use xlink:href="#m9ded5e27d3" x="443.463192" y="311.104487" style="fill: #1e72ff; stroke: #1e72ff"/>
     <use xlink:href="#m9ded5e27d3" x="449.070592" y="311.104487" style="fill: #1e72ff; stroke: #1e72ff"/>
     <use xlink:href="#m9ded5e27d3" x="454.677992" y="311.104487" style="fill: #1e72ff; stroke: #1e72ff"/>
     <use xlink:href="#m9ded5e27d3" x="460.285391" y="311.104487" style="fill: #1e72ff; stroke: #1e72ff"/>
     <use xlink:href="#m9ded5e27d3" x="465.892791" y="311.104487" style="fill: #1e72ff; stroke: #1e72ff"/>
     <use xlink:href="#m9ded5e27d3" x="471.50019" y="311.104487" style="fill: #1e72ff; stroke: #1e72ff"/>
     <use xlink:href="#m9ded5e27d3" x="477.10759" y="311.104487" style="fill: #1e72ff; stroke: #1e72ff"/>
     <use xlink:href="#m9ded5e27d3" x="482.714989" y="311.104487" style="fill: #1e72ff; stroke: #1e72ff"/>
     <use xlink:href="#m9ded5e27d3" x="488.322389" y="311.104487" style="fill: #1e72ff; stroke: #1e72ff"/>
     <use xlink:href="#m9ded5e27d3" x="493.929789" y="311.104487" style="fill: #1e72ff; stroke: #1e72ff"/>
     <use xlink:href="#m9ded5e27d3" x="499.537188" y="311.104487" style="fill: #1e72ff; stroke: #1e72ff"/>
     <use xlink:href="#m9ded5e27d3" x="505.144588" y="311.104487" style="fill: #1e72ff; stroke: #1e72ff"/>
     <use xlink:href="#m9ded5e27d3" x="510.751987" y="311.104487" style="fill: #1e72ff; stroke: #1e72ff"/>
     <use xlink:href="#m9ded5e27d3" x="516.359387" y="311.104487" style="fill: #1e72ff; stroke: #1e72ff"/>
     <use xlink:href="#m9ded5e27d3" x="521.966786" y="311.104487" style="fill: #1e72ff; stroke: #1e72ff"/>
     <use xlink:href="#m9ded5e27d3" x="527.574186" y="311.104487" style="fill: #1e72ff; stroke: #1e72ff"/>
     <use xlink:href="#m9ded5e27d3" x="533.181586" y="311.104487" style="fill: #1e72ff; stroke: #1e72ff"/>
     <use xlink:href="#m9ded5e27d3" x="538.788985" y="311.104487" style="fill: #1e72ff; stroke: #1e72ff"/>
     <use xlink:href="#m9ded5e27d3" x="544.396385" y="311.104487" style="fill: #1e72ff; stroke: #1e72ff"/>
     <use xlink:href="#m9ded5e27d3" x="550.003784" y="311.104487" style="fill: #1e72ff; stroke: #1e72ff"/>
     <use xlink:href="#m9ded5e27d3" x="555.611184" y="311.104487" style="fill: #1e72ff; stroke: #1e72ff"/>
     <use xlink:href="#m9ded5e27d3" x="561.218584" y="311.104487" style="fill: #1e72ff; stroke: #1e72ff"/>
     <use xlink:href="#m9ded5e27d3" x="566.825983" y="311.104487" style="fill: #1e72ff; stroke: #1e72ff"/>
     <use xlink:href="#m9ded5e27d3" x="572.433383" y="311.104487" style="fill: #1e72ff; stroke: #1e72ff"/>
     <use xlink:href="#m9ded5e27d3" x="578.040782" y="311.104487" style="fill: #1e72ff; stroke: #1e72ff"/>
     <use xlink:href="#m9ded5e27d3" x="583.648182" y="311.104487" style="fill: #1e72ff; stroke: #1e72ff"/>
    </g>
   </g>
   <g id="PolyCollection_3">
    <defs>
     <path id="m4c11431a37" d="M 101.411818 -149.416159 
L 101.411818 -130.910757 
L 107.019218 -134.529333 
L 112.626617 -150.985732 
L 118.234017 -151.175978 
L 123.841416 -147.90383 
L 129.448816 -153.717475 
L 135.056216 -154.318234 
L 140.663615 -165.281288 
L 146.271015 -161.947101 
L 151.878414 -161.38946 
L 157.485814 -162.723653 
L 163.093214 -180.201737 
L 168.700613 -179.545322 
L 174.308013 -176.885953 
L 179.915412 -186.573356 
L 185.522812 -181.852322 
L 191.130211 -177.516796 
L 196.737611 -174.616613 
L 202.345011 -169.918878 
L 207.95241 -166.853321 
L 213.55981 -162.266408 
L 219.167209 -157.914044 
L 224.774609 -159.722548 
L 230.382008 -156.846039 
L 235.989408 -160.348028 
L 241.596808 -163.138115 
L 247.204207 -163.609946 
L 252.811607 -163.446931 
L 258.419006 -162.477122 
L 264.026406 -166.471984 
L 269.633805 -173.509292 
L 275.241205 -176.671435 
L 280.848605 -182.131535 
L 286.456004 -187.68153 
L 292.063404 -191.908032 
L 297.670803 -196.042723 
L 303.278203 -200.809415 
L 308.885603 -203.918938 
L 314.493002 -206.579919 
L 320.100402 -214.254609 
L 325.707801 -219.150616 
L 331.315201 -223.601036 
L 336.9226 -228.517421 
L 342.53 -230.586464 
L 348.1374 -235.322479 
L 353.744799 -239.0841 
L 359.352199 -241.12697 
L 364.959598 -243.052073 
L 370.566998 -244.686972 
L 376.174397 -248.634728 
L 381.781797 -252.620517 
L 387.389197 -254.561204 
L 392.996596 -256.26658 
L 398.603996 -257.300993 
L 404.211395 -259.185693 
L 409.818795 -260.618926 
L 415.426195 -261.973648 
L 421.033594 -263.962909 
L 426.640994 -266.576036 
L 432.248393 -268.580582 
L 437.855793 -270.281292 
L 443.463192 -272.770847 
L 449.070592 -273.122601 
L 454.677992 -273.748129 
L 460.285391 -274.012573 
L 465.892791 -275.211485 
L 471.50019 -277.49833 
L 477.10759 -280.169896 
L 482.714989 -280.940764 
L 488.322389 -282.057919 
L 493.929789 -283.712723 
L 499.537188 -285.631269 
L 505.144588 -285.214094 
L 510.751987 -287.087808 
L 516.359387 -287.53998 
L 521.966786 -288.786186 
L 527.574186 -290.81904 
L 533.181586 -292.854108 
L 538.788985 -293.732884 
L 544.396385 -293.603371 
L 550.003784 -295.023972 
L 555.611184 -295.239633 
L 561.218584 -298.540618 
L 566.825983 -300.568453 
L 572.433383 -301.372879 
L 578.040782 -301.788989 
L 583.648182 -303.257547 
L 583.648182 -388.419091 
L 583.648182 -388.419091 
L 578.040782 -386.577925 
L 572.433383 -385.857629 
L 566.825983 -384.792115 
L 561.218584 -382.654699 
L 555.611184 -378.774122 
L 550.003784 -377.848414 
L 544.396385 -375.793645 
L 538.788985 -375.226909 
L 533.181586 -373.700226 
L 527.574186 -370.880213 
L 521.966786 -368.106186 
L 516.359387 -366.572926 
L 510.751987 -365.819001 
L 505.144588 -363.552371 
L 499.537188 -362.901885 
L 493.929789 -360.029544 
L 488.322389 -357.511575 
L 482.714989 -355.405505 
L 477.10759 -353.668851 
L 471.50019 -349.590861 
L 465.892791 -346.33094 
L 460.285391 -344.450663 
L 454.677992 -343.439425 
L 449.070592 -341.758885 
L 443.463192 -340.562147 
L 437.855793 -337.197377 
L 432.248393 -334.302542 
L 426.640994 -331.430318 
L 421.033594 -327.20116 
L 415.426195 -324.273338 
L 409.818795 -321.891707 
L 404.211395 -319.120691 
L 398.603996 -315.885344 
L 392.996596 -314.019637 
L 387.389197 -311.13394 
L 381.781797 -308.011102 
L 376.174397 -302.479293 
L 370.566998 -297.088363 
L 364.959598 -294.342623 
L 359.352199 -291.298547 
L 353.744799 -288.42161 
L 348.1374 -283.025071 
L 342.53 -276.815965 
L 336.9226 -273.492277 
L 331.315201 -266.785935 
L 325.707801 -260.348103 
L 320.100402 -253.808525 
L 314.493002 -244.045507 
L 308.885603 -239.800765 
L 303.278203 -235.333817 
L 297.670803 -228.555492 
L 292.063404 -222.437255 
L 286.456004 -215.737279 
L 280.848605 -208.488768 
L 275.241205 -200.747981 
L 269.633805 -195.451074 
L 264.026406 -186.630074 
L 258.419006 -180.471624 
L 252.811607 -180.310657 
L 247.204207 -179.572451 
L 241.596808 -177.973558 
L 235.989408 -173.889222 
L 230.382008 -169.239557 
L 224.774609 -171.200754 
L 219.167209 -169.480714 
L 213.55981 -174.014674 
L 207.95241 -178.636985 
L 202.345011 -182.397528 
L 196.737611 -188.635423 
L 191.130211 -191.681763 
L 185.522812 -195.688883 
L 179.915412 -200.943449 
L 174.308013 -193.197837 
L 168.700613 -196.783833 
L 163.093214 -197.558844 
L 157.485814 -182.55116 
L 151.878414 -182.669576 
L 146.271015 -184.523818 
L 140.663615 -186.707818 
L 135.056216 -176.344529 
L 129.448816 -178.610404 
L 123.841416 -174.389288 
L 118.234017 -175.326374 
L 112.626617 -173.414303 
L 107.019218 -156.115813 
L 101.411818 -149.416159 
z
" style="stroke: #1e408b; stroke-opacity: 0.1"/>
    </defs>
    <g clip-path="url(#p38fa145dae)">
     <use xlink:href="#m4c11431a37" x="0" y="432" style="fill: #1e408b; fill-opacity: 0.1; stroke: #1e408b; stroke-opacity: 0.1"/>
    </g>
   </g>
   <g id="PolyCollection_4">
    <defs>
     <path id="ma3b376b43e" d="M 101.411818 -135.325854 
L 101.411818 -131.11188 
L 107.019218 -135.728746 
L 112.626617 -139.454458 
L 118.234017 -146.666944 
L 123.841416 -151.160905 
L 129.448816 -155.685219 
L 135.056216 -159.955557 
L 140.663615 -163.972387 
L 146.271015 -169.932271 
L 151.878414 -177.43048 
L 157.485814 -181.40102 
L 163.093214 -182.454756 
L 168.700613 -180.398855 
L 174.308013 -178.526748 
L 179.915412 -178.511554 
L 185.522812 -176.917626 
L 191.130211 -172.532855 
L 196.737611 -168.759674 
L 202.345011 -161.331021 
L 207.95241 -156.863026 
L 213.55981 -151.574957 
L 219.167209 -149.275189 
L 224.774609 -146.22078 
L 230.382008 -144.710055 
L 235.989408 -142.997297 
L 241.596808 -142.197538 
L 247.204207 -141.737621 
L 252.811607 -141.531878 
L 258.419006 -140.749285 
L 264.026406 -139.856272 
L 269.633805 -140.216742 
L 275.241205 -139.846331 
L 280.848605 -139.664904 
L 286.456004 -140.011505 
L 292.063404 -140.195315 
L 297.670803 -140.296167 
L 303.278203 -139.97296 
L 308.885603 -139.901693 
L 314.493002 -140.309914 
L 320.100402 -140.21317 
L 325.707801 -140.434192 
L 331.315201 -140.69731 
L 336.9226 -141.222663 
L 342.53 -141.111064 
L 348.1374 -141.538595 
L 353.744799 -141.572317 
L 359.352199 -141.802661 
L 364.959598 -141.64988 
L 370.566998 -141.223877 
L 376.174397 -141.183746 
L 381.781797 -140.930238 
L 387.389197 -141.02423 
L 392.996596 -141.257882 
L 398.603996 -140.629798 
L 404.211395 -140.203597 
L 409.818795 -139.743088 
L 415.426195 -139.39987 
L 421.033594 -139.091411 
L 426.640994 -138.477155 
L 432.248393 -138.390497 
L 437.855793 -138.382602 
L 443.463192 -137.683268 
L 449.070592 -137.270503 
L 454.677992 -136.883921 
L 460.285391 -136.913475 
L 465.892791 -136.842059 
L 471.50019 -136.883539 
L 477.10759 -136.459115 
L 482.714989 -136.150521 
L 488.322389 -136.38241 
L 493.929789 -135.704222 
L 499.537188 -136.029814 
L 505.144588 -135.777616 
L 510.751987 -135.671886 
L 516.359387 -135.593786 
L 521.966786 -135.81802 
L 527.574186 -135.946405 
L 533.181586 -136.229424 
L 538.788985 -136.323369 
L 544.396385 -135.978031 
L 550.003784 -135.914905 
L 555.611184 -135.662441 
L 561.218584 -135.822954 
L 566.825983 -136.092105 
L 572.433383 -135.896155 
L 578.040782 -135.596651 
L 583.648182 -135.631526 
L 583.648182 -139.389053 
L 583.648182 -139.389053 
L 578.040782 -139.24617 
L 572.433383 -139.591943 
L 566.825983 -139.821726 
L 561.218584 -139.569915 
L 555.611184 -139.390382 
L 550.003784 -139.640833 
L 544.396385 -139.646444 
L 538.788985 -139.979459 
L 533.181586 -139.88876 
L 527.574186 -139.635685 
L 521.966786 -139.43626 
L 516.359387 -139.155613 
L 510.751987 -139.259968 
L 505.144588 -139.358026 
L 499.537188 -139.619034 
L 493.929789 -139.347102 
L 488.322389 -140.050564 
L 482.714989 -139.80446 
L 477.10759 -140.161946 
L 471.50019 -140.634094 
L 465.892791 -140.576068 
L 460.285391 -140.718565 
L 454.677992 -140.674711 
L 449.070592 -141.138203 
L 443.463192 -141.659021 
L 437.855793 -142.450574 
L 432.248393 -142.411159 
L 426.640994 -142.552373 
L 421.033594 -143.195707 
L 415.426195 -143.518625 
L 409.818795 -143.908188 
L 404.211395 -144.394357 
L 398.603996 -144.904117 
L 392.996596 -145.595831 
L 387.389197 -145.321724 
L 381.781797 -145.262503 
L 376.174397 -145.5852 
L 370.566998 -145.63878 
L 364.959598 -146.179234 
L 359.352199 -146.338397 
L 353.744799 -146.074696 
L 348.1374 -145.972428 
L 342.53 -145.422524 
L 336.9226 -145.528974 
L 331.315201 -144.800894 
L 325.707801 -144.410919 
L 320.100402 -144.197682 
L 314.493002 -144.256411 
L 308.885603 -143.704403 
L 303.278203 -143.6773 
L 297.670803 -143.857397 
L 292.063404 -143.717904 
L 286.456004 -143.413846 
L 280.848605 -142.995594 
L 275.241205 -143.050439 
L 269.633805 -143.348816 
L 264.026406 -142.912221 
L 258.419006 -143.692779 
L 252.811607 -144.622477 
L 247.204207 -144.826289 
L 241.596808 -145.312247 
L 235.989408 -145.982046 
L 230.382008 -147.802776 
L 224.774609 -149.424926 
L 219.167209 -152.925157 
L 213.55981 -155.390275 
L 207.95241 -161.066313 
L 202.345011 -166.028548 
L 196.737611 -174.135654 
L 191.130211 -178.619802 
L 185.522812 -183.531639 
L 179.915412 -185.458811 
L 174.308013 -185.576934 
L 168.700613 -187.731284 
L 163.093214 -190.153266 
L 157.485814 -189.553608 
L 151.878414 -185.286855 
L 146.271015 -177.495617 
L 140.663615 -172.001819 
L 135.056216 -167.859231 
L 129.448816 -163.680724 
L 123.841416 -158.253279 
L 118.234017 -153.628688 
L 112.626617 -145.394068 
L 107.019218 -140.898831 
L 101.411818 -135.325854 
z
" style="stroke: #1e408b; stroke-opacity: 0.1"/>
    </defs>
    <g clip-path="url(#p38fa145dae)">
     <use xlink:href="#ma3b376b43e" x="0" y="432" style="fill: #1e408b; fill-opacity: 0.1; stroke: #1e408b; stroke-opacity: 0.1"/>
    </g>
   </g>
   <g id="PathCollection_2">
    <defs>
     <path id="m124533d442" d="M -2.5 2.5 
L 2.5 2.5 
L 2.5 -2.5 
L -2.5 -2.5 
z
" style="stroke: #1e408b"/>
    </defs>
    <g clip-path="url(#p38fa145dae)">
     <use xlink:href="#m124533d442" x="235.989408" y="319.864158" style="fill: #1e408b; stroke: #1e408b"/>
     <use xlink:href="#m124533d442" x="241.596808" y="319.864158" style="fill: #1e408b; stroke: #1e408b"/>
     <use xlink:href="#m124533d442" x="247.204207" y="319.864158" style="fill: #1e408b; stroke: #1e408b"/>
     <use xlink:href="#m124533d442" x="252.811607" y="319.864158" style="fill: #1e408b; stroke: #1e408b"/>
     <use xlink:href="#m124533d442" x="258.419006" y="319.864158" style="fill: #1e408b; stroke: #1e408b"/>
     <use xlink:href="#m124533d442" x="264.026406" y="319.864158" style="fill: #1e408b; stroke: #1e408b"/>
     <use xlink:href="#m124533d442" x="269.633805" y="319.864158" style="fill: #1e408b; stroke: #1e408b"/>
     <use xlink:href="#m124533d442" x="275.241205" y="319.864158" style="fill: #1e408b; stroke: #1e408b"/>
     <use xlink:href="#m124533d442" x="280.848605" y="319.864158" style="fill: #1e408b; stroke: #1e408b"/>
     <use xlink:href="#m124533d442" x="286.456004" y="319.864158" style="fill: #1e408b; stroke: #1e408b"/>
     <use xlink:href="#m124533d442" x="292.063404" y="319.864158" style="fill: #1e408b; stroke: #1e408b"/>
     <use xlink:href="#m124533d442" x="297.670803" y="319.864158" style="fill: #1e408b; stroke: #1e408b"/>
     <use xlink:href="#m124533d442" x="303.278203" y="319.864158" style="fill: #1e408b; stroke: #1e408b"/>
     <use xlink:href="#m124533d442" x="308.885603" y="319.864158" style="fill: #1e408b; stroke: #1e408b"/>
     <use xlink:href="#m124533d442" x="314.493002" y="319.864158" style="fill: #1e408b; stroke: #1e408b"/>
     <use xlink:href="#m124533d442" x="320.100402" y="319.864158" style="fill: #1e408b; stroke: #1e408b"/>
     <use xlink:href="#m124533d442" x="325.707801" y="319.864158" style="fill: #1e408b; stroke: #1e408b"/>
     <use xlink:href="#m124533d442" x="331.315201" y="319.864158" style="fill: #1e408b; stroke: #1e408b"/>
     <use xlink:href="#m124533d442" x="336.9226" y="319.864158" style="fill: #1e408b; stroke: #1e408b"/>
     <use xlink:href="#m124533d442" x="342.53" y="319.864158" style="fill: #1e408b; stroke: #1e408b"/>
     <use xlink:href="#m124533d442" x="348.1374" y="319.864158" style="fill: #1e408b; stroke: #1e408b"/>
     <use xlink:href="#m124533d442" x="353.744799" y="319.864158" style="fill: #1e408b; stroke: #1e408b"/>
     <use xlink:href="#m124533d442" x="359.352199" y="319.864158" style="fill: #1e408b; stroke: #1e408b"/>
     <use xlink:href="#m124533d442" x="364.959598" y="319.864158" style="fill: #1e408b; stroke: #1e408b"/>
     <use xlink:href="#m124533d442" x="370.566998" y="319.864158" style="fill: #1e408b; stroke: #1e408b"/>
     <use xlink:href="#m124533d442" x="376.174397" y="319.864158" style="fill: #1e408b; stroke: #1e408b"/>
     <use xlink:href="#m124533d442" x="381.781797" y="319.864158" style="fill: #1e408b; stroke: #1e408b"/>
     <use xlink:href="#m124533d442" x="387.389197" y="319.864158" style="fill: #1e408b; stroke: #1e408b"/>
     <use xlink:href="#m124533d442" x="392.996596" y="319.864158" style="fill: #1e408b; stroke: #1e408b"/>
     <use xlink:href="#m124533d442" x="398.603996" y="319.864158" style="fill: #1e408b; stroke: #1e408b"/>
     <use xlink:href="#m124533d442" x="404.211395" y="319.864158" style="fill: #1e408b; stroke: #1e408b"/>
     <use xlink:href="#m124533d442" x="409.818795" y="319.864158" style="fill: #1e408b; stroke: #1e408b"/>
     <use xlink:href="#m124533d442" x="415.426195" y="319.864158" style="fill: #1e408b; stroke: #1e408b"/>
     <use xlink:href="#m124533d442" x="421.033594" y="319.864158" style="fill: #1e408b; stroke: #1e408b"/>
     <use xlink:href="#m124533d442" x="426.640994" y="319.864158" style="fill: #1e408b; stroke: #1e408b"/>
     <use xlink:href="#m124533d442" x="432.248393" y="319.864158" style="fill: #1e408b; stroke: #1e408b"/>
     <use xlink:href="#m124533d442" x="437.855793" y="319.864158" style="fill: #1e408b; stroke: #1e408b"/>
     <use xlink:href="#m124533d442" x="443.463192" y="319.864158" style="fill: #1e408b; stroke: #1e408b"/>
     <use xlink:href="#m124533d442" x="449.070592" y="319.864158" style="fill: #1e408b; stroke: #1e408b"/>
     <use xlink:href="#m124533d442" x="454.677992" y="319.864158" style="fill: #1e408b; stroke: #1e408b"/>
     <use xlink:href="#m124533d442" x="460.285391" y="319.864158" style="fill: #1e408b; stroke: #1e408b"/>
     <use xlink:href="#m124533d442" x="465.892791" y="319.864158" style="fill: #1e408b; stroke: #1e408b"/>
     <use xlink:href="#m124533d442" x="471.50019" y="319.864158" style="fill: #1e408b; stroke: #1e408b"/>
     <use xlink:href="#m124533d442" x="477.10759" y="319.864158" style="fill: #1e408b; stroke: #1e408b"/>
     <use xlink:href="#m124533d442" x="482.714989" y="319.864158" style="fill: #1e408b; stroke: #1e408b"/>
     <use xlink:href="#m124533d442" x="488.322389" y="319.864158" style="fill: #1e408b; stroke: #1e408b"/>
     <use xlink:href="#m124533d442" x="493.929789" y="319.864158" style="fill: #1e408b; stroke: #1e408b"/>
     <use xlink:href="#m124533d442" x="499.537188" y="319.864158" style="fill: #1e408b; stroke: #1e408b"/>
     <use xlink:href="#m124533d442" x="505.144588" y="319.864158" style="fill: #1e408b; stroke: #1e408b"/>
     <use xlink:href="#m124533d442" x="510.751987" y="319.864158" style="fill: #1e408b; stroke: #1e408b"/>
     <use xlink:href="#m124533d442" x="516.359387" y="319.864158" style="fill: #1e408b; stroke: #1e408b"/>
     <use xlink:href="#m124533d442" x="521.966786" y="319.864158" style="fill: #1e408b; stroke: #1e408b"/>
     <use xlink:href="#m124533d442" x="527.574186" y="319.864158" style="fill: #1e408b; stroke: #1e408b"/>
     <use xlink:href="#m124533d442" x="533.181586" y="319.864158" style="fill: #1e408b; stroke: #1e408b"/>
     <use xlink:href="#m124533d442" x="538.788985" y="319.864158" style="fill: #1e408b; stroke: #1e408b"/>
     <use xlink:href="#m124533d442" x="544.396385" y="319.864158" style="fill: #1e408b; stroke: #1e408b"/>
     <use xlink:href="#m124533d442" x="550.003784" y="319.864158" style="fill: #1e408b; stroke: #1e408b"/>
     <use xlink:href="#m124533d442" x="555.611184" y="319.864158" style="fill: #1e408b; stroke: #1e408b"/>
     <use xlink:href="#m124533d442" x="561.218584" y="319.864158" style="fill: #1e408b; stroke: #1e408b"/>
     <use xlink:href="#m124533d442" x="566.825983" y="319.864158" style="fill: #1e408b; stroke: #1e408b"/>
     <use xlink:href="#m124533d442" x="572.433383" y="319.864158" style="fill: #1e408b; stroke: #1e408b"/>
     <use xlink:href="#m124533d442" x="578.040782" y="319.864158" style="fill: #1e408b; stroke: #1e408b"/>
     <use xlink:href="#m124533d442" x="583.648182" y="319.864158" style="fill: #1e408b; stroke: #1e408b"/>
    </g>
   </g>
   <g id="line2d_17">
    <path d="M 101.411818 334.603658 
L 107.019218 302.497744 
L 112.626617 300.636843 
L 118.234017 300.93042 
L 123.841416 302.083946 
L 129.448816 302.614687 
L 135.056216 304.169014 
L 140.663615 303.075989 
L 146.271015 302.343662 
L 151.878414 303.921538 
L 157.485814 286.375144 
L 163.093214 272.322273 
L 168.700613 292.177383 
L 174.308013 311.435589 
L 179.915412 303.410234 
L 185.522812 296.560607 
L 191.130211 292.252116 
L 196.737611 286.767431 
L 202.345011 282.103836 
L 207.95241 281.613252 
L 213.55981 278.380702 
L 219.167209 269.74858 
L 224.774609 254.577618 
L 230.382008 249.325984 
L 235.989408 239.459701 
L 241.596808 233.829365 
L 247.204207 225.676614 
L 252.811607 217.033647 
L 258.419006 204.785186 
L 264.026406 196.596226 
L 269.633805 186.560548 
L 275.241205 179.473988 
L 280.848605 169.146601 
L 286.456004 165.360366 
L 292.063404 169.895081 
L 297.670803 169.277922 
L 303.278203 169.869233 
L 308.885603 160.788667 
L 314.493002 149.180888 
L 320.100402 140.136665 
L 325.707801 132.722378 
L 331.315201 128.712496 
L 336.9226 124.452734 
L 342.53 121.441154 
L 348.1374 116.491107 
L 353.744799 121.713876 
L 359.352199 120.246824 
L 364.959598 123.745387 
L 370.566998 123.351051 
L 376.174397 122.757872 
L 381.781797 119.843462 
L 387.389197 112.968291 
L 392.996596 108.290616 
L 398.603996 109.561268 
L 404.211395 110.31944 
L 409.818795 112.766168 
L 415.426195 113.642428 
L 421.033594 117.324335 
L 426.640994 120.036329 
L 432.248393 125.565026 
L 437.855793 135.114619 
L 443.463192 138.915299 
L 449.070592 142.304672 
L 454.677992 143.643755 
L 460.285391 144.612368 
L 465.892791 149.837153 
L 471.50019 152.624259 
L 477.10759 153.038671 
L 482.714989 150.163534 
L 488.322389 145.432454 
L 493.929789 143.731886 
L 499.537188 142.432975 
L 505.144588 138.75508 
L 510.751987 136.245356 
L 516.359387 136.138229 
L 521.966786 135.45379 
L 527.574186 137.000072 
L 533.181586 138.378127 
L 538.788985 139.493746 
L 544.396385 140.246511 
L 550.003784 137.941288 
L 555.611184 138.352166 
L 561.218584 139.177333 
L 566.825983 140.419368 
L 572.433383 140.294789 
L 578.040782 141.522534 
L 583.648182 141.780367 
" clip-path="url(#p38fa145dae)" style="fill: none; stroke: #1e72ff; stroke-width: 2; stroke-linecap: round"/>
   </g>
   <g id="line2d_18">
    <path d="M 101.411818 298.807934 
L 107.019218 303.821273 
L 112.626617 302.449878 
L 118.234017 302.548604 
L 123.841416 301.927307 
L 129.448816 302.488377 
L 135.056216 301.962435 
L 140.663615 301.251941 
L 146.271015 301.686592 
L 151.878414 301.843046 
L 157.485814 295.788954 
L 163.093214 284.843752 
L 168.700613 286.291715 
L 174.308013 289.191383 
L 179.915412 292.757544 
L 185.522812 294.032106 
L 191.130211 295.253625 
L 196.737611 294.350953 
L 202.345011 293.22768 
L 207.95241 293.17349 
L 213.55981 294.591967 
L 219.167209 294.72358 
L 224.774609 294.90055 
L 230.382008 293.43716 
L 235.989408 290.702527 
L 241.596808 288.472039 
L 247.204207 287.353101 
L 252.811607 285.441521 
L 258.419006 283.732769 
L 264.026406 281.831952 
L 269.633805 283.013972 
L 275.241205 285.16583 
L 280.848605 285.549541 
L 286.456004 284.744975 
L 292.063404 284.795909 
L 297.670803 284.908177 
L 303.278203 283.992036 
L 308.885603 282.498954 
L 314.493002 281.791047 
L 320.100402 280.502385 
L 325.707801 279.749821 
L 331.315201 280.362244 
L 336.9226 280.202747 
L 342.53 281.690243 
L 348.1374 282.212931 
L 353.744799 284.075665 
L 359.352199 285.478941 
L 364.959598 287.213284 
L 370.566998 288.172184 
L 376.174397 289.915593 
L 381.781797 289.593433 
L 387.389197 290.515936 
L 392.996596 290.54405 
L 398.603996 290.2247 
L 404.211395 291.833974 
L 409.818795 293.979507 
L 415.426195 292.943254 
L 421.033594 291.337409 
L 426.640994 292.123277 
L 432.248393 292.322785 
L 437.855793 293.668218 
L 443.463192 294.630562 
L 449.070592 294.743268 
L 454.677992 295.566712 
L 460.285391 296.083724 
L 465.892791 296.325869 
L 471.50019 296.343738 
L 477.10759 296.315141 
L 482.714989 296.694635 
L 488.322389 296.578327 
L 493.929789 296.143918 
L 499.537188 295.818921 
L 505.144588 295.988372 
L 510.751987 296.167528 
L 516.359387 296.486701 
L 521.966786 296.84603 
L 527.574186 296.473247 
L 533.181586 296.825479 
L 538.788985 296.596001 
L 544.396385 296.237853 
L 550.003784 296.629132 
L 555.611184 296.578704 
L 561.218584 296.938509 
L 566.825983 296.595288 
L 572.433383 296.690809 
L 578.040782 296.736467 
L 583.648182 297.098892 
" clip-path="url(#p38fa145dae)" style="fill: none; stroke-dasharray: 7.4,3.2; stroke-dashoffset: 0; stroke: #1e72ff; stroke-width: 2"/>
   </g>
   <g id="line2d_19">
    <path d="M 157.485814 379.18 
L 157.485814 27.6 
" clip-path="url(#p38fa145dae)" style="fill: none; stroke-dasharray: 5.55,2.4; stroke-dashoffset: 0; stroke: #1a1a1a; stroke-width: 1.5"/>
   </g>
   <g id="line2d_20">
    <path d="M 437.855793 379.18 
L 437.855793 27.6 
" clip-path="url(#p38fa145dae)" style="fill: none; stroke-dasharray: 5.55,2.4; stroke-dashoffset: 0; stroke: #1a1a1a; stroke-width: 1.5"/>
   </g>
   <g id="line2d_21">
    <path d="M 101.411818 291.836542 
L 107.019218 286.677427 
L 112.626617 269.799983 
L 118.234017 268.748824 
L 123.841416 270.853441 
L 129.448816 265.83606 
L 135.056216 266.668619 
L 140.663615 256.005447 
L 146.271015 258.764541 
L 151.878414 259.970482 
L 157.485814 259.362594 
L 163.093214 243.11971 
L 168.700613 243.835422 
L 174.308013 246.958105 
L 179.915412 238.241597 
L 185.522812 243.229398 
L 191.130211 247.40072 
L 196.737611 250.373982 
L 202.345011 255.841797 
L 207.95241 259.254847 
L 213.55981 263.859459 
L 219.167209 268.302621 
L 224.774609 266.538349 
L 230.382008 268.957202 
L 235.989408 264.881375 
L 241.596808 261.444164 
L 247.204207 260.408802 
L 252.811607 260.121206 
L 258.419006 260.525627 
L 264.026406 255.448971 
L 269.633805 247.519817 
L 275.241205 243.290292 
L 280.848605 236.689849 
L 286.456004 230.290595 
L 292.063404 224.827357 
L 297.670803 219.700893 
L 303.278203 213.928384 
L 308.885603 210.140148 
L 314.493002 206.687287 
L 320.100402 197.968433 
L 325.707801 192.250641 
L 331.315201 186.806515 
L 336.9226 180.995151 
L 342.53 178.298785 
L 348.1374 172.826225 
L 353.744799 168.247145 
L 359.352199 165.787242 
L 364.959598 163.302652 
L 370.566998 161.112332 
L 376.174397 156.442989 
L 381.781797 151.68419 
L 387.389197 149.152428 
L 392.996596 146.856892 
L 398.603996 145.406831 
L 404.211395 142.846808 
L 409.818795 140.744683 
L 415.426195 138.876507 
L 421.033594 136.417966 
L 426.640994 132.996823 
L 432.248393 130.558438 
L 437.855793 128.260665 
L 443.463192 125.333503 
L 449.070592 124.559257 
L 454.677992 123.406223 
L 460.285391 122.768382 
L 465.892791 121.228787 
L 471.50019 118.455405 
L 477.10759 115.080627 
L 482.714989 113.826865 
L 488.322389 112.215253 
L 493.929789 110.128866 
L 499.537188 107.733423 
L 505.144588 107.616767 
L 510.751987 105.546595 
L 516.359387 104.943547 
L 521.966786 103.553814 
L 527.574186 101.150374 
L 533.181586 98.722833 
L 538.788985 97.520104 
L 544.396385 97.301492 
L 550.003784 95.563807 
L 555.611184 94.993122 
L 561.218584 91.402342 
L 566.825983 89.319716 
L 572.433383 88.384746 
L 578.040782 87.816543 
L 583.648182 86.161681 
" clip-path="url(#p38fa145dae)" style="fill: none; stroke: #1e408b; stroke-width: 2; stroke-linecap: round"/>
   </g>
   <g id="line2d_22">
    <path d="M 101.411818 298.781133 
L 107.019218 293.686212 
L 112.626617 289.575737 
L 118.234017 281.852184 
L 123.841416 277.292908 
L 129.448816 272.317029 
L 135.056216 268.092606 
L 140.663615 264.012897 
L 146.271015 258.286056 
L 151.878414 250.641332 
L 157.485814 246.522686 
L 163.093214 245.695989 
L 168.700613 247.934931 
L 174.308013 249.948159 
L 179.915412 250.014817 
L 185.522812 251.775367 
L 191.130211 256.423671 
L 196.737611 260.552336 
L 202.345011 268.320216 
L 207.95241 273.03533 
L 213.55981 278.517384 
L 219.167209 280.899827 
L 224.774609 284.177147 
L 230.382008 285.743585 
L 235.989408 287.510329 
L 241.596808 288.245108 
L 247.204207 288.718045 
L 252.811607 288.922823 
L 258.419006 289.778968 
L 264.026406 290.615753 
L 269.633805 290.217221 
L 275.241205 290.551615 
L 280.848605 290.669751 
L 286.456004 290.287324 
L 292.063404 290.04339 
L 297.670803 289.923218 
L 303.278203 290.17487 
L 308.885603 290.196952 
L 314.493002 289.716837 
L 320.100402 289.794574 
L 325.707801 289.577445 
L 331.315201 289.250898 
L 336.9226 288.624182 
L 342.53 288.733206 
L 348.1374 288.244489 
L 353.744799 288.176493 
L 359.352199 287.929471 
L 364.959598 288.085443 
L 370.566998 288.568672 
L 376.174397 288.615527 
L 381.781797 288.903629 
L 387.389197 288.827023 
L 392.996596 288.573143 
L 398.603996 289.233043 
L 404.211395 289.701023 
L 409.818795 290.174362 
L 415.426195 290.540752 
L 421.033594 290.856441 
L 426.640994 291.485236 
L 432.248393 291.599172 
L 437.855793 291.583412 
L 443.463192 292.328856 
L 449.070592 292.795647 
L 454.677992 293.220684 
L 460.285391 293.18398 
L 465.892791 293.290937 
L 471.50019 293.241183 
L 477.10759 293.689469 
L 482.714989 294.02251 
L 488.322389 293.783513 
L 493.929789 294.474338 
L 499.537188 294.175576 
L 505.144588 294.432179 
L 510.751987 294.534073 
L 516.359387 294.6253 
L 521.966786 294.37286 
L 527.574186 294.208955 
L 533.181586 293.940908 
L 538.788985 293.848586 
L 544.396385 294.187763 
L 550.003784 294.222131 
L 555.611184 294.473589 
L 561.218584 294.303566 
L 566.825983 294.043085 
L 572.433383 294.255951 
L 578.040782 294.57859 
L 583.648182 294.489711 
" clip-path="url(#p38fa145dae)" style="fill: none; stroke-dasharray: 7.4,3.2; stroke-dashoffset: 0; stroke: #1e408b; stroke-width: 2"/>
   </g>
   <g id="line2d_23">
    <path d="M 157.485814 379.18 
L 157.485814 27.6 
" clip-path="url(#p38fa145dae)" style="fill: none; stroke-dasharray: 5.55,2.4; stroke-dashoffset: 0; stroke: #1a1a1a; stroke-width: 1.5"/>
   </g>
   <g id="line2d_24">
    <path d="M 437.855793 379.18 
L 437.855793 27.6 
" clip-path="url(#p38fa145dae)" style="fill: none; stroke-dasharray: 5.55,2.4; stroke-dashoffset: 0; stroke: #1a1a1a; stroke-width: 1.5"/>
   </g>
   <g id="patch_3">
    <path d="M 77.3 379.18 
L 77.3 27.6 
" style="fill: none; stroke: #000000; stroke-width: 1.5; stroke-linejoin: miter; stroke-linecap: square"/>
   </g>
   <g id="patch_4">
    <path d="M 77.3 379.18 
L 607.76 379.18 
" style="fill: none; stroke: #000000; stroke-width: 1.5; stroke-linejoin: miter; stroke-linecap: square"/>
   </g>
   <g id="text_19">
    <!-- Divergence Comparison: Original vs Shuffled -->
    <g style="fill: #262626" transform="translate(222.92 21.6) scale(0.12 -0.12)">
     <defs>
      <path id="ArialMT-43" d="M 3763 1606 
L 4369 1453 
Q 4178 706 3683 314 
Q 3188 -78 2472 -78 
Q 1731 -78 1267 223 
Q 803 525 561 1097 
Q 319 1669 319 2325 
Q 319 3041 592 3573 
Q 866 4106 1370 4382 
Q 1875 4659 2481 4659 
Q 3169 4659 3637 4309 
Q 4106 3959 4291 3325 
L 3694 3184 
Q 3534 3684 3231 3912 
Q 2928 4141 2469 4141 
Q 1941 4141 1586 3887 
Q 1231 3634 1087 3207 
Q 944 2781 944 2328 
Q 944 1744 1114 1308 
Q 1284 872 1643 656 
Q 2003 441 2422 441 
Q 2931 441 3284 734 
Q 3638 1028 3763 1606 
z
" transform="scale(0.015625)"/>
      <path id="ArialMT-6f" d="M 213 1659 
Q 213 2581 725 3025 
Q 1153 3394 1769 3394 
Q 2453 3394 2887 2945 
Q 3322 2497 3322 1706 
Q 3322 1066 3130 698 
Q 2938 331 2570 128 
Q 2203 -75 1769 -75 
Q 1072 -75 642 372 
Q 213 819 213 1659 
z
M 791 1659 
Q 791 1022 1069 705 
Q 1347 388 1769 388 
Q 2188 388 2466 706 
Q 2744 1025 2744 1678 
Q 2744 2294 2464 2611 
Q 2184 2928 1769 2928 
Q 1347 2928 1069 2612 
Q 791 2297 791 1659 
z
" transform="scale(0.015625)"/>
      <path id="ArialMT-70" d="M 422 -1272 
L 422 3319 
L 934 3319 
L 934 2888 
Q 1116 3141 1344 3267 
Q 1572 3394 1897 3394 
Q 2322 3394 2647 3175 
Q 2972 2956 3137 2557 
Q 3303 2159 3303 1684 
Q 3303 1175 3120 767 
Q 2938 359 2589 142 
Q 2241 -75 1856 -75 
Q 1575 -75 1351 44 
Q 1128 163 984 344 
L 984 -1272 
L 422 -1272 
z
M 931 1641 
Q 931 1000 1190 694 
Q 1450 388 1819 388 
Q 2194 388 2461 705 
Q 2728 1022 2728 1688 
Q 2728 2322 2467 2637 
Q 2206 2953 1844 2953 
Q 1484 2953 1207 2617 
Q 931 2281 931 1641 
z
" transform="scale(0.015625)"/>
      <path id="ArialMT-61" d="M 2588 409 
Q 2275 144 1986 34 
Q 1697 -75 1366 -75 
Q 819 -75 525 192 
Q 231 459 231 875 
Q 231 1119 342 1320 
Q 453 1522 633 1644 
Q 813 1766 1038 1828 
Q 1203 1872 1538 1913 
Q 2219 1994 2541 2106 
Q 2544 2222 2544 2253 
Q 2544 2597 2384 2738 
Q 2169 2928 1744 2928 
Q 1347 2928 1158 2789 
Q 969 2650 878 2297 
L 328 2372 
Q 403 2725 575 2942 
Q 747 3159 1072 3276 
Q 1397 3394 1825 3394 
Q 2250 3394 2515 3294 
Q 2781 3194 2906 3042 
Q 3031 2891 3081 2659 
Q 3109 2516 3109 2141 
L 3109 1391 
Q 3109 606 3145 398 
Q 3181 191 3288 0 
L 2700 0 
Q 2613 175 2588 409 
z
M 2541 1666 
Q 2234 1541 1622 1453 
Q 1275 1403 1131 1340 
Q 988 1278 909 1158 
Q 831 1038 831 891 
Q 831 666 1001 516 
Q 1172 366 1500 366 
Q 1825 366 2078 508 
Q 2331 650 2450 897 
Q 2541 1088 2541 1459 
L 2541 1666 
z
" transform="scale(0.015625)"/>
      <path id="ArialMT-3a" d="M 578 2678 
L 578 3319 
L 1219 3319 
L 1219 2678 
L 578 2678 
z
M 578 0 
L 578 641 
L 1219 641 
L 1219 0 
L 578 0 
z
" transform="scale(0.015625)"/>
      <path id="ArialMT-4f" d="M 309 2231 
Q 309 3372 921 4017 
Q 1534 4663 2503 4663 
Q 3138 4663 3647 4359 
Q 4156 4056 4423 3514 
Q 4691 2972 4691 2284 
Q 4691 1588 4409 1038 
Q 4128 488 3612 205 
Q 3097 -78 2500 -78 
Q 1853 -78 1343 234 
Q 834 547 571 1087 
Q 309 1628 309 2231 
z
M 934 2222 
Q 934 1394 1379 917 
Q 1825 441 2497 441 
Q 3181 441 3623 922 
Q 4066 1403 4066 2288 
Q 4066 2847 3877 3264 
Q 3688 3681 3323 3911 
Q 2959 4141 2506 4141 
Q 1863 4141 1398 3698 
Q 934 3256 934 2222 
z
" transform="scale(0.015625)"/>
      <path id="ArialMT-6c" d="M 409 0 
L 409 4581 
L 972 4581 
L 972 0 
L 409 0 
z
" transform="scale(0.015625)"/>
      <path id="ArialMT-53" d="M 288 1472 
L 859 1522 
Q 900 1178 1048 958 
Q 1197 738 1509 602 
Q 1822 466 2213 466 
Q 2559 466 2825 569 
Q 3091 672 3220 851 
Q 3350 1031 3350 1244 
Q 3350 1459 3225 1620 
Q 3100 1781 2813 1891 
Q 2628 1963 1997 2114 
Q 1366 2266 1113 2400 
Q 784 2572 623 2826 
Q 463 3081 463 3397 
Q 463 3744 659 4045 
Q 856 4347 1234 4503 
Q 1613 4659 2075 4659 
Q 2584 4659 2973 4495 
Q 3363 4331 3572 4012 
Q 3781 3694 3797 3291 
L 3216 3247 
Q 3169 3681 2898 3903 
Q 2628 4125 2100 4125 
Q 1550 4125 1298 3923 
Q 1047 3722 1047 3438 
Q 1047 3191 1225 3031 
Q 1400 2872 2139 2705 
Q 2878 2538 3153 2413 
Q 3553 2228 3743 1945 
Q 3934 1663 3934 1294 
Q 3934 928 3725 604 
Q 3516 281 3123 101 
Q 2731 -78 2241 -78 
Q 1619 -78 1198 103 
Q 778 284 539 648 
Q 300 1013 288 1472 
z
" transform="scale(0.015625)"/>
      <path id="ArialMT-68" d="M 422 0 
L 422 4581 
L 984 4581 
L 984 2938 
Q 1378 3394 1978 3394 
Q 2347 3394 2619 3248 
Q 2891 3103 3008 2847 
Q 3125 2591 3125 2103 
L 3125 0 
L 2563 0 
L 2563 2103 
Q 2563 2525 2380 2717 
Q 2197 2909 1863 2909 
Q 1613 2909 1392 2779 
Q 1172 2650 1078 2428 
Q 984 2206 984 1816 
L 984 0 
L 422 0 
z
" transform="scale(0.015625)"/>
      <path id="ArialMT-75" d="M 2597 0 
L 2597 488 
Q 2209 -75 1544 -75 
Q 1250 -75 995 37 
Q 741 150 617 320 
Q 494 491 444 738 
Q 409 903 409 1263 
L 409 3319 
L 972 3319 
L 972 1478 
Q 972 1038 1006 884 
Q 1059 663 1231 536 
Q 1403 409 1656 409 
Q 1909 409 2131 539 
Q 2353 669 2445 892 
Q 2538 1116 2538 1541 
L 2538 3319 
L 3100 3319 
L 3100 0 
L 2597 0 
z
" transform="scale(0.015625)"/>
      <path id="ArialMT-66" d="M 556 0 
L 556 2881 
L 59 2881 
L 59 3319 
L 556 3319 
L 556 3672 
Q 556 4006 616 4169 
Q 697 4388 901 4523 
Q 1106 4659 1475 4659 
Q 1713 4659 2000 4603 
L 1916 4113 
Q 1741 4144 1584 4144 
Q 1328 4144 1222 4034 
Q 1116 3925 1116 3625 
L 1116 3319 
L 1763 3319 
L 1763 2881 
L 1116 2881 
L 1116 0 
L 556 0 
z
" transform="scale(0.015625)"/>
      <path id="ArialMT-64" d="M 2575 0 
L 2575 419 
Q 2259 -75 1647 -75 
Q 1250 -75 917 144 
Q 584 363 401 755 
Q 219 1147 219 1656 
Q 219 2153 384 2558 
Q 550 2963 881 3178 
Q 1213 3394 1622 3394 
Q 1922 3394 2156 3267 
Q 2391 3141 2538 2938 
L 2538 4581 
L 3097 4581 
L 3097 0 
L 2575 0 
z
M 797 1656 
Q 797 1019 1065 703 
Q 1334 388 1700 388 
Q 2069 388 2326 689 
Q 2584 991 2584 1609 
Q 2584 2291 2321 2609 
Q 2059 2928 1675 2928 
Q 1300 2928 1048 2622 
Q 797 2316 797 1656 
z
" transform="scale(0.015625)"/>
     </defs>
     <use xlink:href="#ArialMT-44"/>
     <use xlink:href="#ArialMT-69" x="72.216797"/>
     <use xlink:href="#ArialMT-76" x="94.433594"/>
     <use xlink:href="#ArialMT-65" x="144.433594"/>
     <use xlink:href="#ArialMT-72" x="200.048828"/>
     <use xlink:href="#ArialMT-67" x="233.349609"/>
     <use xlink:href="#ArialMT-65" x="288.964844"/>
     <use xlink:href="#ArialMT-6e" x="344.580078"/>
     <use xlink:href="#ArialMT-63" x="400.195312"/>
     <use xlink:href="#ArialMT-65" x="450.195312"/>
     <use xlink:href="#ArialMT-20" x="505.810547"/>
     <use xlink:href="#ArialMT-43" x="533.59375"/>
     <use xlink:href="#ArialMT-6f" x="605.810547"/>
     <use xlink:href="#ArialMT-6d" x="661.425781"/>
     <use xlink:href="#ArialMT-70" x="744.726562"/>
     <use xlink:href="#ArialMT-61" x="800.341797"/>
     <use xlink:href="#ArialMT-72" x="855.957031"/>
     <use xlink:href="#ArialMT-69" x="889.257812"/>
     <use xlink:href="#ArialMT-73" x="911.474609"/>
     <use xlink:href="#ArialMT-6f" x="961.474609"/>
     <use xlink:href="#ArialMT-6e" x="1017.089844"/>
     <use xlink:href="#ArialMT-3a" x="1072.705078"/>
     <use xlink:href="#ArialMT-20" x="1100.488281"/>
     <use xlink:href="#ArialMT-4f" x="1128.271484"/>
     <use xlink:href="#ArialMT-72" x="1206.054688"/>
     <use xlink:href="#ArialMT-69" x="1239.355469"/>
     <use xlink:href="#ArialMT-67" x="1261.572266"/>
     <use xlink:href="#ArialMT-69" x="1317.1875"/>
     <use xlink:href="#ArialMT-6e" x="1339.404297"/>
     <use xlink:href="#ArialMT-61" x="1395.019531"/>
     <use xlink:href="#ArialMT-6c" x="1450.634766"/>
     <use xlink:href="#ArialMT-20" x="1472.851562"/>
     <use xlink:href="#ArialMT-76" x="1500.634766"/>
     <use xlink:href="#ArialMT-73" x="1550.634766"/>
     <use xlink:href="#ArialMT-20" x="1600.634766"/>
     <use xlink:href="#ArialMT-53" x="1628.417969"/>
     <use xlink:href="#ArialMT-68" x="1695.117188"/>
     <use xlink:href="#ArialMT-75" x="1750.732422"/>
     <use xlink:href="#ArialMT-66" x="1806.347656"/>
     <use xlink:href="#ArialMT-66" x="1832.380859"/>
     <use xlink:href="#ArialMT-6c" x="1860.164062"/>
     <use xlink:href="#ArialMT-65" x="1882.380859"/>
     <use xlink:href="#ArialMT-64" x="1937.996094"/>
    </g>
   </g>
   <g id="legend_1">
    <g id="patch_5">
     <path d="M 615.46 260.055469 
L 705.061875 260.055469 
Q 707.261875 260.055469 707.261875 257.855469 
L 707.261875 148.924531 
Q 707.261875 146.724531 705.061875 146.724531 
L 615.46 146.724531 
Q 613.26 146.724531 613.26 148.924531 
L 613.26 257.855469 
Q 613.26 260.055469 615.46 260.055469 
z
" style="fill: #ffffff; opacity: 0.8; stroke: #cccccc; stroke-linejoin: miter"/>
    </g>
    <g id="line2d_25">
     <path d="M 617.66 155.289062 
L 628.66 155.289062 
L 639.66 155.289062 
" style="fill: none; stroke: #1e72ff; stroke-width: 2; stroke-linecap: round"/>
    </g>
    <g id="text_20">
     <!-- Original -->
     <g style="fill: #262626" transform="translate(648.46 159.139062) scale(0.11 -0.11)">
      <use xlink:href="#ArialMT-4f"/>
      <use xlink:href="#ArialMT-72" x="77.783203"/>
      <use xlink:href="#ArialMT-69" x="111.083984"/>
      <use xlink:href="#ArialMT-67" x="133.300781"/>
      <use xlink:href="#ArialMT-69" x="188.916016"/>
      <use xlink:href="#ArialMT-6e" x="211.132812"/>
      <use xlink:href="#ArialMT-61" x="266.748047"/>
      <use xlink:href="#ArialMT-6c" x="322.363281"/>
     </g>
    </g>
    <g id="line2d_26">
     <path d="M 617.66 171.11875 
L 628.66 171.11875 
L 639.66 171.11875 
" style="fill: none; stroke-dasharray: 7.4,3.2; stroke-dashoffset: 0; stroke: #1e72ff; stroke-width: 2"/>
    </g>
    <g id="text_21">
     <!-- Original -->
     <g style="fill: #262626" transform="translate(648.46 174.96875) scale(0.11 -0.11)">
      <use xlink:href="#ArialMT-4f"/>
      <use xlink:href="#ArialMT-72" x="77.783203"/>
      <use xlink:href="#ArialMT-69" x="111.083984"/>
      <use xlink:href="#ArialMT-67" x="133.300781"/>
      <use xlink:href="#ArialMT-69" x="188.916016"/>
      <use xlink:href="#ArialMT-6e" x="211.132812"/>
      <use xlink:href="#ArialMT-61" x="266.748047"/>
      <use xlink:href="#ArialMT-6c" x="322.363281"/>
     </g>
    </g>
    <g id="PathCollection_3">
     <g>
      <use xlink:href="#m9ded5e27d3" x="628.66" y="187.802656" style="fill: #1e72ff; stroke: #1e72ff"/>
     </g>
    </g>
    <g id="text_22">
     <!-- p &lt; 0.001 -->
     <g style="fill: #262626" transform="translate(648.46 190.690156) scale(0.11 -0.11)">
      <defs>
       <path id="ArialMT-3c" d="M 350 2003 
L 350 2528 
L 3384 3809 
L 3384 3250 
L 978 2263 
L 3384 1266 
L 3384 706 
L 350 2003 
z
" transform="scale(0.015625)"/>
      </defs>
      <use xlink:href="#ArialMT-70"/>
      <use xlink:href="#ArialMT-20" x="55.615234"/>
      <use xlink:href="#ArialMT-3c" x="83.398438"/>
      <use xlink:href="#ArialMT-20" x="141.796875"/>
      <use xlink:href="#ArialMT-30" x="169.580078"/>
      <use xlink:href="#ArialMT-2e" x="225.195312"/>
      <use xlink:href="#ArialMT-30" x="252.978516"/>
      <use xlink:href="#ArialMT-30" x="308.59375"/>
      <use xlink:href="#ArialMT-31" x="364.208984"/>
     </g>
    </g>
    <g id="line2d_27">
     <path d="M 617.66 202.4 
L 628.66 202.4 
L 639.66 202.4 
" style="fill: none; stroke-dasharray: 5.55,2.4; stroke-dashoffset: 0; stroke: #1a1a1a; stroke-width: 1.5"/>
    </g>
    <g id="text_23">
     <!-- Stim Onset -->
     <g style="fill: #262626" transform="translate(648.46 206.25) scale(0.11 -0.11)">
      <defs>
       <path id="ArialMT-74" d="M 1650 503 
L 1731 6 
Q 1494 -44 1306 -44 
Q 1000 -44 831 53 
Q 663 150 594 308 
Q 525 466 525 972 
L 525 2881 
L 113 2881 
L 113 3319 
L 525 3319 
L 525 4141 
L 1084 4478 
L 1084 3319 
L 1650 3319 
L 1650 2881 
L 1084 2881 
L 1084 941 
Q 1084 700 1114 631 
Q 1144 563 1211 522 
Q 1278 481 1403 481 
Q 1497 481 1650 503 
z
" transform="scale(0.015625)"/>
      </defs>
      <use xlink:href="#ArialMT-53"/>
      <use xlink:href="#ArialMT-74" x="66.699219"/>
      <use xlink:href="#ArialMT-69" x="94.482422"/>
      <use xlink:href="#ArialMT-6d" x="116.699219"/>
      <use xlink:href="#ArialMT-20" x="200"/>
      <use xlink:href="#ArialMT-4f" x="227.783203"/>
      <use xlink:href="#ArialMT-6e" x="305.566406"/>
      <use xlink:href="#ArialMT-73" x="361.181641"/>
      <use xlink:href="#ArialMT-65" x="411.181641"/>
      <use xlink:href="#ArialMT-74" x="466.796875"/>
     </g>
    </g>
    <g id="line2d_28">
     <path d="M 617.66 217.959844 
L 628.66 217.959844 
L 639.66 217.959844 
" style="fill: none; stroke-dasharray: 5.55,2.4; stroke-dashoffset: 0; stroke: #1a1a1a; stroke-width: 1.5"/>
    </g>
    <g id="text_24">
     <!-- Stim End -->
     <g style="fill: #262626" transform="translate(648.46 221.809844) scale(0.11 -0.11)">
      <defs>
       <path id="ArialMT-45" d="M 506 0 
L 506 4581 
L 3819 4581 
L 3819 4041 
L 1113 4041 
L 1113 2638 
L 3647 2638 
L 3647 2100 
L 1113 2100 
L 1113 541 
L 3925 541 
L 3925 0 
L 506 0 
z
" transform="scale(0.015625)"/>
      </defs>
      <use xlink:href="#ArialMT-53"/>
      <use xlink:href="#ArialMT-74" x="66.699219"/>
      <use xlink:href="#ArialMT-69" x="94.482422"/>
      <use xlink:href="#ArialMT-6d" x="116.699219"/>
      <use xlink:href="#ArialMT-20" x="200"/>
      <use xlink:href="#ArialMT-45" x="227.783203"/>
      <use xlink:href="#ArialMT-6e" x="294.482422"/>
      <use xlink:href="#ArialMT-64" x="350.097656"/>
     </g>
    </g>
    <g id="line2d_29">
     <path d="M 617.66 233.660625 
L 628.66 233.660625 
L 639.66 233.660625 
" style="fill: none; stroke: #1e408b; stroke-width: 2; stroke-linecap: round"/>
    </g>
    <g id="text_25">
     <!-- Original -->
     <g style="fill: #262626" transform="translate(648.46 237.510625) scale(0.11 -0.11)">
      <use xlink:href="#ArialMT-4f"/>
      <use xlink:href="#ArialMT-72" x="77.783203"/>
      <use xlink:href="#ArialMT-69" x="111.083984"/>
      <use xlink:href="#ArialMT-67" x="133.300781"/>
      <use xlink:href="#ArialMT-69" x="188.916016"/>
      <use xlink:href="#ArialMT-6e" x="211.132812"/>
      <use xlink:href="#ArialMT-61" x="266.748047"/>
      <use xlink:href="#ArialMT-6c" x="322.363281"/>
     </g>
    </g>
    <g id="line2d_30">
     <path d="M 617.66 249.490312 
L 628.66 249.490312 
L 639.66 249.490312 
" style="fill: none; stroke-dasharray: 7.4,3.2; stroke-dashoffset: 0; stroke: #1e408b; stroke-width: 2"/>
    </g>
    <g id="text_26">
     <!-- Original -->
     <g style="fill: #262626" transform="translate(648.46 253.340312) scale(0.11 -0.11)">
      <use xlink:href="#ArialMT-4f"/>
      <use xlink:href="#ArialMT-72" x="77.783203"/>
      <use xlink:href="#ArialMT-69" x="111.083984"/>
      <use xlink:href="#ArialMT-67" x="133.300781"/>
      <use xlink:href="#ArialMT-69" x="188.916016"/>
      <use xlink:href="#ArialMT-6e" x="211.132812"/>
      <use xlink:href="#ArialMT-61" x="266.748047"/>
      <use xlink:href="#ArialMT-6c" x="322.363281"/>
     </g>
    </g>
   </g>
  </g>
 </g>
 <defs>
  <clipPath id="p38fa145dae">
   <rect x="77.3" y="27.6" width="530.46" height="351.58"/>
  </clipPath>
 </defs>
</svg>
