<?xml version="1.0" encoding="utf-8" standalone="no"?>
<!DOCTYPE svg PUBLIC "-//W3C//DTD SVG 1.1//EN"
  "http://www.w3.org/Graphics/SVG/1.1/DTD/svg11.dtd">
<svg xmlns:xlink="http://www.w3.org/1999/xlink" width="576pt" height="432pt" viewBox="0 0 576 432" xmlns="http://www.w3.org/2000/svg" version="1.1">
 <metadata>
  <rdf:RDF xmlns:dc="http://purl.org/dc/elements/1.1/" xmlns:cc="http://creativecommons.org/ns#" xmlns:rdf="http://www.w3.org/1999/02/22-rdf-syntax-ns#">
   <cc:Work>
    <dc:type rdf:resource="http://purl.org/dc/dcmitype/StillImage"/>
    <dc:date>2025-11-20T21:53:57.026996</dc:date>
    <dc:format>image/svg+xml</dc:format>
    <dc:creator>
     <cc:Agent>
      <dc:title>Matplotlib v3.9.4, https://matplotlib.org/</dc:title>
     </cc:Agent>
    </dc:creator>
   </cc:Work>
  </rdf:RDF>
 </metadata>
 <defs>
  <style type="text/css">*{stroke-linejoin: round; stroke-linecap: butt}</style>
 </defs>
 <g id="figure_1">
  <g id="patch_1">
   <path d="M 0 432 
L 576 432 
L 576 0 
L 0 0 
z
" style="fill: #ffffff"/>
  </g>
  <g id="axes_1">
   <g id="patch_2">
    <path d="M 72 384.48 
L 518.4 384.48 
L 518.4 51.84 
L 72 51.84 
L 72 384.48 
z
" style="fill: none"/>
   </g>
   <g id="matplotlib.axis_1">
    <g id="xtick_1">
     <g id="line2d_1">
      <defs>
       <path id="m1afc65eff4" d="M 0 0 
L 0 5 
" style="stroke: #262626; stroke-width: 1.5"/>
      </defs>
      <g>
       <use xlink:href="#m1afc65eff4" x="80.493869" y="384.48" style="fill: #262626; stroke: #262626; stroke-width: 1.5"/>
      </g>
     </g>
     <g id="text_1">
      <!-- −250 -->
      <g style="fill: #262626" transform="translate(63.601291 403.716719) scale(0.15 -0.15)">
       <defs>
        <path id="ArialMT-2212" d="M 3381 1997 
L 356 1997 
L 356 2522 
L 3381 2522 
L 3381 1997 
z
" transform="scale(0.015625)"/>
        <path id="ArialMT-32" d="M 3222 541 
L 3222 0 
L 194 0 
Q 188 203 259 391 
Q 375 700 629 1000 
Q 884 1300 1366 1694 
Q 2113 2306 2375 2664 
Q 2638 3022 2638 3341 
Q 2638 3675 2398 3904 
Q 2159 4134 1775 4134 
Q 1369 4134 1125 3890 
Q 881 3647 878 3216 
L 300 3275 
Q 359 3922 746 4261 
Q 1134 4600 1788 4600 
Q 2447 4600 2831 4234 
Q 3216 3869 3216 3328 
Q 3216 3053 3103 2787 
Q 2991 2522 2730 2228 
Q 2469 1934 1863 1422 
Q 1356 997 1212 845 
Q 1069 694 975 541 
L 3222 541 
z
" transform="scale(0.015625)"/>
        <path id="ArialMT-35" d="M 266 1200 
L 856 1250 
Q 922 819 1161 601 
Q 1400 384 1738 384 
Q 2144 384 2425 690 
Q 2706 997 2706 1503 
Q 2706 1984 2436 2262 
Q 2166 2541 1728 2541 
Q 1456 2541 1237 2417 
Q 1019 2294 894 2097 
L 366 2166 
L 809 4519 
L 3088 4519 
L 3088 3981 
L 1259 3981 
L 1013 2750 
Q 1425 3038 1878 3038 
Q 2478 3038 2890 2622 
Q 3303 2206 3303 1553 
Q 3303 931 2941 478 
Q 2500 -78 1738 -78 
Q 1113 -78 717 272 
Q 322 622 266 1200 
z
" transform="scale(0.015625)"/>
        <path id="ArialMT-30" d="M 266 2259 
Q 266 3072 433 3567 
Q 600 4063 929 4331 
Q 1259 4600 1759 4600 
Q 2128 4600 2406 4451 
Q 2684 4303 2865 4023 
Q 3047 3744 3150 3342 
Q 3253 2941 3253 2259 
Q 3253 1453 3087 958 
Q 2922 463 2592 192 
Q 2263 -78 1759 -78 
Q 1097 -78 719 397 
Q 266 969 266 2259 
z
M 844 2259 
Q 844 1131 1108 757 
Q 1372 384 1759 384 
Q 2147 384 2411 759 
Q 2675 1134 2675 2259 
Q 2675 3391 2411 3762 
Q 2147 4134 1753 4134 
Q 1366 4134 1134 3806 
Q 844 3388 844 2259 
z
" transform="scale(0.015625)"/>
       </defs>
       <use xlink:href="#ArialMT-2212"/>
       <use xlink:href="#ArialMT-32" x="58.398438"/>
       <use xlink:href="#ArialMT-35" x="114.013672"/>
       <use xlink:href="#ArialMT-30" x="169.628906"/>
      </g>
     </g>
    </g>
    <g id="xtick_2">
     <g id="line2d_2">
      <g>
       <use xlink:href="#m1afc65eff4" x="139.47907" y="384.48" style="fill: #262626; stroke: #262626; stroke-width: 1.5"/>
      </g>
     </g>
     <g id="text_2">
      <!-- 0 -->
      <g style="fill: #262626" transform="translate(135.308367 403.716719) scale(0.15 -0.15)">
       <use xlink:href="#ArialMT-30"/>
      </g>
     </g>
    </g>
    <g id="xtick_3">
     <g id="line2d_3">
      <g>
       <use xlink:href="#m1afc65eff4" x="198.464271" y="384.48" style="fill: #262626; stroke: #262626; stroke-width: 1.5"/>
      </g>
     </g>
     <g id="text_3">
      <!-- 250 -->
      <g style="fill: #262626" transform="translate(185.952161 403.716719) scale(0.15 -0.15)">
       <use xlink:href="#ArialMT-32"/>
       <use xlink:href="#ArialMT-35" x="55.615234"/>
       <use xlink:href="#ArialMT-30" x="111.230469"/>
      </g>
     </g>
    </g>
    <g id="xtick_4">
     <g id="line2d_4">
      <g>
       <use xlink:href="#m1afc65eff4" x="257.449471" y="384.48" style="fill: #262626; stroke: #262626; stroke-width: 1.5"/>
      </g>
     </g>
     <g id="text_4">
      <!-- 500 -->
      <g style="fill: #262626" transform="translate(244.937362 403.716719) scale(0.15 -0.15)">
       <use xlink:href="#ArialMT-35"/>
       <use xlink:href="#ArialMT-30" x="55.615234"/>
       <use xlink:href="#ArialMT-30" x="111.230469"/>
      </g>
     </g>
    </g>
    <g id="xtick_5">
     <g id="line2d_5">
      <g>
       <use xlink:href="#m1afc65eff4" x="316.434672" y="384.48" style="fill: #262626; stroke: #262626; stroke-width: 1.5"/>
      </g>
     </g>
     <g id="text_5">
      <!-- 750 -->
      <g style="fill: #262626" transform="translate(303.922563 403.716719) scale(0.15 -0.15)">
       <defs>
        <path id="ArialMT-37" d="M 303 3981 
L 303 4522 
L 3269 4522 
L 3269 4084 
Q 2831 3619 2401 2847 
Q 1972 2075 1738 1259 
Q 1569 684 1522 0 
L 944 0 
Q 953 541 1156 1306 
Q 1359 2072 1739 2783 
Q 2119 3494 2547 3981 
L 303 3981 
z
" transform="scale(0.015625)"/>
       </defs>
       <use xlink:href="#ArialMT-37"/>
       <use xlink:href="#ArialMT-35" x="55.615234"/>
       <use xlink:href="#ArialMT-30" x="111.230469"/>
      </g>
     </g>
    </g>
    <g id="xtick_6">
     <g id="line2d_6">
      <g>
       <use xlink:href="#m1afc65eff4" x="375.419873" y="384.48" style="fill: #262626; stroke: #262626; stroke-width: 1.5"/>
      </g>
     </g>
     <g id="text_6">
      <!-- 1000 -->
      <g style="fill: #262626" transform="translate(358.737061 403.716719) scale(0.15 -0.15)">
       <defs>
        <path id="ArialMT-31" d="M 2384 0 
L 1822 0 
L 1822 3584 
Q 1619 3391 1289 3197 
Q 959 3003 697 2906 
L 697 3450 
Q 1169 3672 1522 3987 
Q 1875 4303 2022 4600 
L 2384 4600 
L 2384 0 
z
" transform="scale(0.015625)"/>
       </defs>
       <use xlink:href="#ArialMT-31"/>
       <use xlink:href="#ArialMT-30" x="55.615234"/>
       <use xlink:href="#ArialMT-30" x="111.230469"/>
       <use xlink:href="#ArialMT-30" x="166.845703"/>
      </g>
     </g>
    </g>
    <g id="xtick_7">
     <g id="line2d_7">
      <g>
       <use xlink:href="#m1afc65eff4" x="434.405074" y="384.48" style="fill: #262626; stroke: #262626; stroke-width: 1.5"/>
      </g>
     </g>
     <g id="text_7">
      <!-- 1250 -->
      <g style="fill: #262626" transform="translate(417.722261 403.716719) scale(0.15 -0.15)">
       <use xlink:href="#ArialMT-31"/>
       <use xlink:href="#ArialMT-32" x="55.615234"/>
       <use xlink:href="#ArialMT-35" x="111.230469"/>
       <use xlink:href="#ArialMT-30" x="166.845703"/>
      </g>
     </g>
    </g>
    <g id="xtick_8">
     <g id="line2d_8">
      <g>
       <use xlink:href="#m1afc65eff4" x="493.390275" y="384.48" style="fill: #262626; stroke: #262626; stroke-width: 1.5"/>
      </g>
     </g>
     <g id="text_8">
      <!-- 1500 -->
      <g style="fill: #262626" transform="translate(476.707462 403.716719) scale(0.15 -0.15)">
       <use xlink:href="#ArialMT-31"/>
       <use xlink:href="#ArialMT-35" x="55.615234"/>
       <use xlink:href="#ArialMT-30" x="111.230469"/>
       <use xlink:href="#ArialMT-30" x="166.845703"/>
      </g>
     </g>
    </g>
    <g id="text_9">
     <!-- time -->
     <g style="fill: #262626" transform="translate(281.032031 421.434687) scale(0.15 -0.15)">
      <defs>
       <path id="ArialMT-74" d="M 1650 503 
L 1731 6 
Q 1494 -44 1306 -44 
Q 1000 -44 831 53 
Q 663 150 594 308 
Q 525 466 525 972 
L 525 2881 
L 113 2881 
L 113 3319 
L 525 3319 
L 525 4141 
L 1084 4478 
L 1084 3319 
L 1650 3319 
L 1650 2881 
L 1084 2881 
L 1084 941 
Q 1084 700 1114 631 
Q 1144 563 1211 522 
Q 1278 481 1403 481 
Q 1497 481 1650 503 
z
" transform="scale(0.015625)"/>
       <path id="ArialMT-69" d="M 425 3934 
L 425 4581 
L 988 4581 
L 988 3934 
L 425 3934 
z
M 425 0 
L 425 3319 
L 988 3319 
L 988 0 
L 425 0 
z
" transform="scale(0.015625)"/>
       <path id="ArialMT-6d" d="M 422 0 
L 422 3319 
L 925 3319 
L 925 2853 
Q 1081 3097 1340 3245 
Q 1600 3394 1931 3394 
Q 2300 3394 2536 3241 
Q 2772 3088 2869 2813 
Q 3263 3394 3894 3394 
Q 4388 3394 4653 3120 
Q 4919 2847 4919 2278 
L 4919 0 
L 4359 0 
L 4359 2091 
Q 4359 2428 4304 2576 
Q 4250 2725 4106 2815 
Q 3963 2906 3769 2906 
Q 3419 2906 3187 2673 
Q 2956 2441 2956 1928 
L 2956 0 
L 2394 0 
L 2394 2156 
Q 2394 2531 2256 2718 
Q 2119 2906 1806 2906 
Q 1569 2906 1367 2781 
Q 1166 2656 1075 2415 
Q 984 2175 984 1722 
L 984 0 
L 422 0 
z
" transform="scale(0.015625)"/>
       <path id="ArialMT-65" d="M 2694 1069 
L 3275 997 
Q 3138 488 2766 206 
Q 2394 -75 1816 -75 
Q 1088 -75 661 373 
Q 234 822 234 1631 
Q 234 2469 665 2931 
Q 1097 3394 1784 3394 
Q 2450 3394 2872 2941 
Q 3294 2488 3294 1666 
Q 3294 1616 3291 1516 
L 816 1516 
Q 847 969 1125 678 
Q 1403 388 1819 388 
Q 2128 388 2347 550 
Q 2566 713 2694 1069 
z
M 847 1978 
L 2700 1978 
Q 2663 2397 2488 2606 
Q 2219 2931 1791 2931 
Q 1403 2931 1139 2672 
Q 875 2413 847 1978 
z
" transform="scale(0.015625)"/>
      </defs>
      <use xlink:href="#ArialMT-74"/>
      <use xlink:href="#ArialMT-69" x="27.783203"/>
      <use xlink:href="#ArialMT-6d" x="50"/>
      <use xlink:href="#ArialMT-65" x="133.300781"/>
     </g>
    </g>
   </g>
   <g id="matplotlib.axis_2">
    <g id="ytick_1">
     <g id="line2d_9">
      <defs>
       <path id="mb21a9e6072" d="M 0 0 
L -5 0 
" style="stroke: #262626; stroke-width: 1.5"/>
      </defs>
      <g>
       <use xlink:href="#mb21a9e6072" x="72" y="348.27468" style="fill: #262626; stroke: #262626; stroke-width: 1.5"/>
      </g>
     </g>
     <g id="text_10">
      <!-- 0.00 -->
      <g style="fill: #262626" transform="translate(34.308594 353.643039) scale(0.15 -0.15)">
       <defs>
        <path id="ArialMT-2e" d="M 581 0 
L 581 641 
L 1222 641 
L 1222 0 
L 581 0 
z
" transform="scale(0.015625)"/>
       </defs>
       <use xlink:href="#ArialMT-30"/>
       <use xlink:href="#ArialMT-2e" x="55.615234"/>
       <use xlink:href="#ArialMT-30" x="83.398438"/>
       <use xlink:href="#ArialMT-30" x="139.013672"/>
      </g>
     </g>
    </g>
    <g id="ytick_2">
     <g id="line2d_10">
      <g>
       <use xlink:href="#mb21a9e6072" x="72" y="232.437304" style="fill: #262626; stroke: #262626; stroke-width: 1.5"/>
      </g>
     </g>
     <g id="text_11">
      <!-- 0.15 -->
      <g style="fill: #262626" transform="translate(34.308594 237.805663) scale(0.15 -0.15)">
       <use xlink:href="#ArialMT-30"/>
       <use xlink:href="#ArialMT-2e" x="55.615234"/>
       <use xlink:href="#ArialMT-31" x="83.398438"/>
       <use xlink:href="#ArialMT-35" x="139.013672"/>
      </g>
     </g>
    </g>
    <g id="ytick_3">
     <g id="line2d_11">
      <g>
       <use xlink:href="#mb21a9e6072" x="72" y="116.599928" style="fill: #262626; stroke: #262626; stroke-width: 1.5"/>
      </g>
     </g>
     <g id="text_12">
      <!-- 0.30 -->
      <g style="fill: #262626" transform="translate(34.308594 121.968287) scale(0.15 -0.15)">
       <defs>
        <path id="ArialMT-33" d="M 269 1209 
L 831 1284 
Q 928 806 1161 595 
Q 1394 384 1728 384 
Q 2125 384 2398 659 
Q 2672 934 2672 1341 
Q 2672 1728 2419 1979 
Q 2166 2231 1775 2231 
Q 1616 2231 1378 2169 
L 1441 2663 
Q 1497 2656 1531 2656 
Q 1891 2656 2178 2843 
Q 2466 3031 2466 3422 
Q 2466 3731 2256 3934 
Q 2047 4138 1716 4138 
Q 1388 4138 1169 3931 
Q 950 3725 888 3313 
L 325 3413 
Q 428 3978 793 4289 
Q 1159 4600 1703 4600 
Q 2078 4600 2393 4439 
Q 2709 4278 2876 4000 
Q 3044 3722 3044 3409 
Q 3044 3113 2884 2869 
Q 2725 2625 2413 2481 
Q 2819 2388 3044 2092 
Q 3269 1797 3269 1353 
Q 3269 753 2831 336 
Q 2394 -81 1725 -81 
Q 1122 -81 723 278 
Q 325 638 269 1209 
z
" transform="scale(0.015625)"/>
       </defs>
       <use xlink:href="#ArialMT-30"/>
       <use xlink:href="#ArialMT-2e" x="55.615234"/>
       <use xlink:href="#ArialMT-33" x="83.398438"/>
       <use xlink:href="#ArialMT-30" x="139.013672"/>
      </g>
     </g>
    </g>
    <g id="text_13">
     <!-- firing rate -->
     <g style="fill: #262626" transform="translate(27.151562 249.420937) rotate(-90) scale(0.15 -0.15)">
      <defs>
       <path id="ArialMT-66" d="M 556 0 
L 556 2881 
L 59 2881 
L 59 3319 
L 556 3319 
L 556 3672 
Q 556 4006 616 4169 
Q 697 4388 901 4523 
Q 1106 4659 1475 4659 
Q 1713 4659 2000 4603 
L 1916 4113 
Q 1741 4144 1584 4144 
Q 1328 4144 1222 4034 
Q 1116 3925 1116 3625 
L 1116 3319 
L 1763 3319 
L 1763 2881 
L 1116 2881 
L 1116 0 
L 556 0 
z
" transform="scale(0.015625)"/>
       <path id="ArialMT-72" d="M 416 0 
L 416 3319 
L 922 3319 
L 922 2816 
Q 1116 3169 1280 3281 
Q 1444 3394 1641 3394 
Q 1925 3394 2219 3213 
L 2025 2691 
Q 1819 2813 1613 2813 
Q 1428 2813 1281 2702 
Q 1134 2591 1072 2394 
Q 978 2094 978 1738 
L 978 0 
L 416 0 
z
" transform="scale(0.015625)"/>
       <path id="ArialMT-6e" d="M 422 0 
L 422 3319 
L 928 3319 
L 928 2847 
Q 1294 3394 1984 3394 
Q 2284 3394 2536 3286 
Q 2788 3178 2913 3003 
Q 3038 2828 3088 2588 
Q 3119 2431 3119 2041 
L 3119 0 
L 2556 0 
L 2556 2019 
Q 2556 2363 2490 2533 
Q 2425 2703 2258 2804 
Q 2091 2906 1866 2906 
Q 1506 2906 1245 2678 
Q 984 2450 984 1813 
L 984 0 
L 422 0 
z
" transform="scale(0.015625)"/>
       <path id="ArialMT-67" d="M 319 -275 
L 866 -356 
Q 900 -609 1056 -725 
Q 1266 -881 1628 -881 
Q 2019 -881 2231 -725 
Q 2444 -569 2519 -288 
Q 2563 -116 2559 434 
Q 2191 0 1641 0 
Q 956 0 581 494 
Q 206 988 206 1678 
Q 206 2153 378 2554 
Q 550 2956 876 3175 
Q 1203 3394 1644 3394 
Q 2231 3394 2613 2919 
L 2613 3319 
L 3131 3319 
L 3131 450 
Q 3131 -325 2973 -648 
Q 2816 -972 2473 -1159 
Q 2131 -1347 1631 -1347 
Q 1038 -1347 672 -1080 
Q 306 -813 319 -275 
z
M 784 1719 
Q 784 1066 1043 766 
Q 1303 466 1694 466 
Q 2081 466 2343 764 
Q 2606 1063 2606 1700 
Q 2606 2309 2336 2618 
Q 2066 2928 1684 2928 
Q 1309 2928 1046 2623 
Q 784 2319 784 1719 
z
" transform="scale(0.015625)"/>
       <path id="ArialMT-20" transform="scale(0.015625)"/>
       <path id="ArialMT-61" d="M 2588 409 
Q 2275 144 1986 34 
Q 1697 -75 1366 -75 
Q 819 -75 525 192 
Q 231 459 231 875 
Q 231 1119 342 1320 
Q 453 1522 633 1644 
Q 813 1766 1038 1828 
Q 1203 1872 1538 1913 
Q 2219 1994 2541 2106 
Q 2544 2222 2544 2253 
Q 2544 2597 2384 2738 
Q 2169 2928 1744 2928 
Q 1347 2928 1158 2789 
Q 969 2650 878 2297 
L 328 2372 
Q 403 2725 575 2942 
Q 747 3159 1072 3276 
Q 1397 3394 1825 3394 
Q 2250 3394 2515 3294 
Q 2781 3194 2906 3042 
Q 3031 2891 3081 2659 
Q 3109 2516 3109 2141 
L 3109 1391 
Q 3109 606 3145 398 
Q 3181 191 3288 0 
L 2700 0 
Q 2613 175 2588 409 
z
M 2541 1666 
Q 2234 1541 1622 1453 
Q 1275 1403 1131 1340 
Q 988 1278 909 1158 
Q 831 1038 831 891 
Q 831 666 1001 516 
Q 1172 366 1500 366 
Q 1825 366 2078 508 
Q 2331 650 2450 897 
Q 2541 1088 2541 1459 
L 2541 1666 
z
" transform="scale(0.015625)"/>
      </defs>
      <use xlink:href="#ArialMT-66"/>
      <use xlink:href="#ArialMT-69" x="27.783203"/>
      <use xlink:href="#ArialMT-72" x="50"/>
      <use xlink:href="#ArialMT-69" x="83.300781"/>
      <use xlink:href="#ArialMT-6e" x="105.517578"/>
      <use xlink:href="#ArialMT-67" x="161.132812"/>
      <use xlink:href="#ArialMT-20" x="216.748047"/>
      <use xlink:href="#ArialMT-72" x="244.53125"/>
      <use xlink:href="#ArialMT-61" x="277.832031"/>
      <use xlink:href="#ArialMT-74" x="333.447266"/>
      <use xlink:href="#ArialMT-65" x="361.230469"/>
     </g>
    </g>
   </g>
   <g id="PolyCollection_1">
    <defs>
     <path id="m0e299115bd" d="M 92.290909 -93.857989 
L 92.290909 -87.426522 
L 97.009725 -83.061275 
L 101.728541 -83.78563 
L 106.447357 -83.004297 
L 111.166173 -82.945377 
L 115.884989 -83.802171 
L 120.603805 -83.168615 
L 125.322622 -83.631356 
L 130.041438 -83.391402 
L 134.760254 -84.293661 
L 139.47907 -87.972837 
L 144.197886 -87.954227 
L 148.916702 -85.82168 
L 153.635518 -84.276464 
L 158.354334 -85.530503 
L 163.07315 -85.385702 
L 167.791966 -84.936958 
L 172.510782 -85.451663 
L 177.229598 -87.464517 
L 181.948414 -88.129524 
L 186.66723 -88.208015 
L 191.386047 -89.019119 
L 196.104863 -89.645774 
L 200.823679 -90.770846 
L 205.542495 -89.705252 
L 210.261311 -91.895145 
L 214.980127 -93.213311 
L 219.698943 -93.768134 
L 224.417759 -94.224752 
L 229.136575 -93.989514 
L 233.855391 -94.110393 
L 238.574207 -94.088328 
L 243.293023 -95.389908 
L 248.011839 -96.177154 
L 252.730655 -97.36267 
L 257.449471 -96.928463 
L 262.168288 -98.771239 
L 266.887104 -100.46173 
L 271.60592 -98.93663 
L 276.324736 -99.38308 
L 281.043552 -100.834567 
L 285.762368 -103.042129 
L 290.481184 -104.362466 
L 295.2 -104.710938 
L 299.918816 -107.05825 
L 304.637632 -106.233785 
L 309.356448 -103.929164 
L 314.075264 -104.134922 
L 318.79408 -107.306173 
L 323.512896 -109.228071 
L 328.231712 -108.002486 
L 332.950529 -110.361421 
L 337.669345 -110.722366 
L 342.388161 -111.973167 
L 347.106977 -111.968201 
L 351.825793 -113.669253 
L 356.544609 -113.57736 
L 361.263425 -111.914659 
L 365.982241 -108.791988 
L 370.701057 -108.652828 
L 375.419873 -106.091906 
L 380.138689 -121.177715 
L 384.857505 -127.586195 
L 389.576321 -114.133306 
L 394.295137 -101.58379 
L 399.013953 -104.596389 
L 403.73277 -108.692341 
L 408.451586 -117.168027 
L 413.170402 -120.052367 
L 417.889218 -118.446847 
L 422.608034 -114.177927 
L 427.32685 -111.490045 
L 432.045666 -112.949848 
L 436.764482 -114.342345 
L 441.483298 -113.475077 
L 446.202114 -115.694317 
L 450.92093 -114.894393 
L 455.639746 -116.091003 
L 460.358562 -117.001636 
L 465.077378 -115.766655 
L 469.796195 -112.337028 
L 474.515011 -111.45957 
L 479.233827 -112.967435 
L 483.952643 -117.20116 
L 488.671459 -117.577584 
L 493.390275 -115.591689 
L 498.109091 -112.591478 
L 498.109091 -138.606915 
L 498.109091 -138.606915 
L 493.390275 -140.614701 
L 488.671459 -142.011702 
L 483.952643 -142.100257 
L 479.233827 -137.235521 
L 474.515011 -136.098423 
L 469.796195 -136.904611 
L 465.077378 -140.140513 
L 460.358562 -140.267585 
L 455.639746 -139.036124 
L 450.92093 -138.116951 
L 446.202114 -137.643922 
L 441.483298 -134.868716 
L 436.764482 -135.711868 
L 432.045666 -134.005042 
L 427.32685 -131.867539 
L 422.608034 -134.466785 
L 417.889218 -136.991308 
L 413.170402 -138.319795 
L 408.451586 -135.546467 
L 403.73277 -125.128279 
L 399.013953 -121.026416 
L 394.295137 -117.678048 
L 389.576321 -129.544077 
L 384.857505 -144.362628 
L 380.138689 -136.762314 
L 375.419873 -112.309283 
L 370.701057 -115.768939 
L 365.982241 -117.065672 
L 361.263425 -119.844624 
L 356.544609 -120.914895 
L 351.825793 -120.354619 
L 347.106977 -119.651269 
L 342.388161 -119.894848 
L 337.669345 -119.849226 
L 332.950529 -119.090096 
L 328.231712 -116.078177 
L 323.512896 -116.749961 
L 318.79408 -115.35192 
L 314.075264 -112.450191 
L 309.356448 -110.877334 
L 304.637632 -112.133013 
L 299.918816 -112.686148 
L 295.2 -111.612713 
L 290.481184 -111.051091 
L 285.762368 -109.040641 
L 281.043552 -106.715874 
L 276.324736 -105.858193 
L 271.60592 -105.486533 
L 266.887104 -106.669224 
L 262.168288 -104.871496 
L 257.449471 -103.72537 
L 252.730655 -104.006469 
L 248.011839 -102.109125 
L 243.293023 -100.463794 
L 238.574207 -100.098764 
L 233.855391 -100.01392 
L 229.136575 -99.501744 
L 224.417759 -98.904527 
L 219.698943 -98.274763 
L 214.980127 -99.304413 
L 210.261311 -97.527366 
L 205.542495 -95.095158 
L 200.823679 -96.187362 
L 196.104863 -94.502891 
L 191.386047 -94.338692 
L 186.66723 -93.122746 
L 181.948414 -92.105085 
L 177.229598 -91.606034 
L 172.510782 -90.203758 
L 167.791966 -88.996509 
L 163.07315 -89.388194 
L 158.354334 -89.336717 
L 153.635518 -86.953749 
L 148.916702 -88.302935 
L 144.197886 -90.085006 
L 139.47907 -90.814234 
L 134.760254 -85.460103 
L 130.041438 -84.304699 
L 125.322622 -85.158456 
L 120.603805 -84.104356 
L 115.884989 -84.979277 
L 111.166173 -84.278718 
L 106.447357 -84.163582 
L 101.728541 -84.515284 
L 97.009725 -84.088948 
L 92.290909 -93.857989 
z
" style="stroke: #1e72ff; stroke-opacity: 0.1"/>
    </defs>
    <g clip-path="url(#p66cf9f8939)">
     <use xlink:href="#m0e299115bd" x="0" y="432" style="fill: #1e72ff; fill-opacity: 0.1; stroke: #1e72ff; stroke-opacity: 0.1"/>
    </g>
   </g>
   <g id="PolyCollection_2">
    <defs>
     <path id="mf7352558f3" d="M 92.290909 -87.097814 
L 92.290909 -83.03068 
L 97.009725 -87.420126 
L 101.728541 -84.241122 
L 106.447357 -91.67182 
L 111.166173 -92.189186 
L 115.884989 -96.377697 
L 120.603805 -99.878772 
L 125.322622 -101.805844 
L 130.041438 -107.304514 
L 134.760254 -113.961706 
L 139.47907 -120.303637 
L 144.197886 -121.611835 
L 148.916702 -119.200546 
L 153.635518 -117.741987 
L 158.354334 -116.70408 
L 163.07315 -116.476242 
L 167.791966 -115.083287 
L 172.510782 -113.882468 
L 177.229598 -112.57017 
L 181.948414 -112.421318 
L 186.66723 -110.188595 
L 191.386047 -109.143619 
L 196.104863 -109.657312 
L 200.823679 -108.991615 
L 205.542495 -109.306407 
L 210.261311 -110.692336 
L 214.980127 -112.087239 
L 219.698943 -114.276808 
L 224.417759 -116.065972 
L 229.136575 -119.569505 
L 233.855391 -122.283734 
L 238.574207 -126.098254 
L 243.293023 -129.264859 
L 248.011839 -133.69085 
L 252.730655 -138.233367 
L 257.449471 -143.020541 
L 262.168288 -147.846523 
L 266.887104 -152.076685 
L 271.60592 -156.481744 
L 276.324736 -161.302716 
L 281.043552 -166.242786 
L 285.762368 -171.327469 
L 290.481184 -175.80095 
L 295.2 -179.883467 
L 299.918816 -183.948863 
L 304.637632 -188.461646 
L 309.356448 -192.454299 
L 314.075264 -197.169587 
L 318.79408 -201.586759 
L 323.512896 -205.416222 
L 328.231712 -209.007439 
L 332.950529 -212.242765 
L 337.669345 -215.910325 
L 342.388161 -219.961631 
L 347.106977 -223.728855 
L 351.825793 -226.649219 
L 356.544609 -229.245662 
L 361.263425 -231.456927 
L 365.982241 -234.389974 
L 370.701057 -237.691311 
L 375.419873 -239.396946 
L 380.138689 -241.184361 
L 384.857505 -247.038102 
L 389.576321 -255.596588 
L 394.295137 -263.317615 
L 399.013953 -269.241612 
L 403.73277 -272.610382 
L 408.451586 -276.212898 
L 413.170402 -280.798948 
L 417.889218 -284.877569 
L 422.608034 -289.947591 
L 427.32685 -293.885798 
L 432.045666 -296.893621 
L 436.764482 -299.180817 
L 441.483298 -302.173284 
L 446.202114 -304.260395 
L 450.92093 -306.826971 
L 455.639746 -308.849225 
L 460.358562 -312.020331 
L 465.077378 -313.744168 
L 469.796195 -315.729649 
L 474.515011 -317.332242 
L 479.233827 -319.567405 
L 483.952643 -319.813452 
L 488.671459 -321.553232 
L 493.390275 -322.582996 
L 498.109091 -323.689217 
L 498.109091 -365.04 
L 498.109091 -365.04 
L 493.390275 -362.78458 
L 488.671459 -361.262733 
L 483.952643 -358.767084 
L 479.233827 -358.211204 
L 474.515011 -355.419729 
L 469.796195 -353.215324 
L 465.077378 -350.621202 
L 460.358562 -348.007619 
L 455.639746 -344.281033 
L 450.92093 -341.727805 
L 446.202114 -338.181984 
L 441.483298 -335.100821 
L 436.764482 -331.127963 
L 432.045666 -328.226245 
L 427.32685 -324.038364 
L 422.608034 -319.327084 
L 417.889218 -313.562479 
L 413.170402 -308.361225 
L 408.451586 -302.597179 
L 403.73277 -298.434288 
L 399.013953 -294.283443 
L 394.295137 -287.373456 
L 389.576321 -278.530239 
L 384.857505 -268.36454 
L 380.138689 -260.895102 
L 375.419873 -258.879034 
L 370.701057 -256.663091 
L 365.982241 -253.156042 
L 361.263425 -249.561934 
L 356.544609 -246.932844 
L 351.825793 -243.705023 
L 347.106977 -240.195102 
L 342.388161 -235.880819 
L 337.669345 -230.958556 
L 332.950529 -226.614209 
L 328.231712 -222.68558 
L 323.512896 -217.878464 
L 318.79408 -213.389734 
L 314.075264 -208.454799 
L 309.356448 -203.10731 
L 304.637632 -198.246157 
L 299.918816 -193.207635 
L 295.2 -188.74689 
L 290.481184 -183.843509 
L 285.762368 -179.020002 
L 281.043552 -173.666088 
L 276.324736 -168.653305 
L 271.60592 -163.094053 
L 266.887104 -158.04705 
L 262.168288 -153.389741 
L 257.449471 -148.69736 
L 252.730655 -144.314815 
L 248.011839 -139.446429 
L 243.293023 -134.06902 
L 238.574207 -131.158125 
L 233.855391 -127.763607 
L 229.136575 -125.199365 
L 224.417759 -122.006387 
L 219.698943 -119.975577 
L 214.980127 -117.966652 
L 210.261311 -117.142584 
L 205.542495 -116.028443 
L 200.823679 -115.584343 
L 196.104863 -115.87937 
L 191.386047 -115.241574 
L 186.66723 -116.162414 
L 181.948414 -118.194784 
L 177.229598 -118.553464 
L 172.510782 -120.122837 
L 167.791966 -121.317919 
L 163.07315 -122.475386 
L 158.354334 -121.930341 
L 153.635518 -123.309205 
L 148.916702 -123.776895 
L 144.197886 -125.541154 
L 139.47907 -123.769188 
L 134.760254 -117.909968 
L 130.041438 -111.021706 
L 125.322622 -106.679006 
L 120.603805 -103.832651 
L 115.884989 -100.997536 
L 111.166173 -97.151052 
L 106.447357 -96.881748 
L 101.728541 -89.825324 
L 97.009725 -92.117657 
L 92.290909 -87.097814 
z
" style="stroke: #1e408b; stroke-opacity: 0.2"/>
    </defs>
    <g clip-path="url(#p66cf9f8939)">
     <use xlink:href="#mf7352558f3" x="0" y="432" style="fill: #1e408b; fill-opacity: 0.2; stroke: #1e408b; stroke-opacity: 0.2"/>
    </g>
   </g>
   <g id="PathCollection_1">
    <defs>
     <path id="m2a7ade6d96" d="M -2.5 2.5 
L 2.5 2.5 
L 2.5 -2.5 
L -2.5 -2.5 
z
" style="stroke: #1e72ff"/>
    </defs>
    <g clip-path="url(#p66cf9f8939)">
     <use xlink:href="#m2a7ade6d96" x="148.916702" y="361.534316" style="fill: #1e72ff; stroke: #1e72ff"/>
     <use xlink:href="#m2a7ade6d96" x="153.635518" y="361.534316" style="fill: #1e72ff; stroke: #1e72ff"/>
     <use xlink:href="#m2a7ade6d96" x="252.730655" y="361.534316" style="fill: #1e72ff; stroke: #1e72ff"/>
     <use xlink:href="#m2a7ade6d96" x="257.449471" y="361.534316" style="fill: #1e72ff; stroke: #1e72ff"/>
     <use xlink:href="#m2a7ade6d96" x="262.168288" y="361.534316" style="fill: #1e72ff; stroke: #1e72ff"/>
     <use xlink:href="#m2a7ade6d96" x="266.887104" y="361.534316" style="fill: #1e72ff; stroke: #1e72ff"/>
     <use xlink:href="#m2a7ade6d96" x="271.60592" y="361.534316" style="fill: #1e72ff; stroke: #1e72ff"/>
     <use xlink:href="#m2a7ade6d96" x="276.324736" y="361.534316" style="fill: #1e72ff; stroke: #1e72ff"/>
     <use xlink:href="#m2a7ade6d96" x="281.043552" y="361.534316" style="fill: #1e72ff; stroke: #1e72ff"/>
     <use xlink:href="#m2a7ade6d96" x="285.762368" y="361.534316" style="fill: #1e72ff; stroke: #1e72ff"/>
     <use xlink:href="#m2a7ade6d96" x="290.481184" y="361.534316" style="fill: #1e72ff; stroke: #1e72ff"/>
     <use xlink:href="#m2a7ade6d96" x="295.2" y="361.534316" style="fill: #1e72ff; stroke: #1e72ff"/>
     <use xlink:href="#m2a7ade6d96" x="299.918816" y="361.534316" style="fill: #1e72ff; stroke: #1e72ff"/>
     <use xlink:href="#m2a7ade6d96" x="304.637632" y="361.534316" style="fill: #1e72ff; stroke: #1e72ff"/>
     <use xlink:href="#m2a7ade6d96" x="309.356448" y="361.534316" style="fill: #1e72ff; stroke: #1e72ff"/>
     <use xlink:href="#m2a7ade6d96" x="314.075264" y="361.534316" style="fill: #1e72ff; stroke: #1e72ff"/>
     <use xlink:href="#m2a7ade6d96" x="318.79408" y="361.534316" style="fill: #1e72ff; stroke: #1e72ff"/>
     <use xlink:href="#m2a7ade6d96" x="323.512896" y="361.534316" style="fill: #1e72ff; stroke: #1e72ff"/>
     <use xlink:href="#m2a7ade6d96" x="328.231712" y="361.534316" style="fill: #1e72ff; stroke: #1e72ff"/>
     <use xlink:href="#m2a7ade6d96" x="332.950529" y="361.534316" style="fill: #1e72ff; stroke: #1e72ff"/>
     <use xlink:href="#m2a7ade6d96" x="337.669345" y="361.534316" style="fill: #1e72ff; stroke: #1e72ff"/>
     <use xlink:href="#m2a7ade6d96" x="342.388161" y="361.534316" style="fill: #1e72ff; stroke: #1e72ff"/>
     <use xlink:href="#m2a7ade6d96" x="347.106977" y="361.534316" style="fill: #1e72ff; stroke: #1e72ff"/>
     <use xlink:href="#m2a7ade6d96" x="351.825793" y="361.534316" style="fill: #1e72ff; stroke: #1e72ff"/>
     <use xlink:href="#m2a7ade6d96" x="356.544609" y="361.534316" style="fill: #1e72ff; stroke: #1e72ff"/>
     <use xlink:href="#m2a7ade6d96" x="361.263425" y="361.534316" style="fill: #1e72ff; stroke: #1e72ff"/>
     <use xlink:href="#m2a7ade6d96" x="365.982241" y="361.534316" style="fill: #1e72ff; stroke: #1e72ff"/>
     <use xlink:href="#m2a7ade6d96" x="370.701057" y="361.534316" style="fill: #1e72ff; stroke: #1e72ff"/>
     <use xlink:href="#m2a7ade6d96" x="375.419873" y="361.534316" style="fill: #1e72ff; stroke: #1e72ff"/>
     <use xlink:href="#m2a7ade6d96" x="380.138689" y="361.534316" style="fill: #1e72ff; stroke: #1e72ff"/>
     <use xlink:href="#m2a7ade6d96" x="384.857505" y="361.534316" style="fill: #1e72ff; stroke: #1e72ff"/>
     <use xlink:href="#m2a7ade6d96" x="389.576321" y="361.534316" style="fill: #1e72ff; stroke: #1e72ff"/>
     <use xlink:href="#m2a7ade6d96" x="394.295137" y="361.534316" style="fill: #1e72ff; stroke: #1e72ff"/>
     <use xlink:href="#m2a7ade6d96" x="399.013953" y="361.534316" style="fill: #1e72ff; stroke: #1e72ff"/>
     <use xlink:href="#m2a7ade6d96" x="403.73277" y="361.534316" style="fill: #1e72ff; stroke: #1e72ff"/>
     <use xlink:href="#m2a7ade6d96" x="408.451586" y="361.534316" style="fill: #1e72ff; stroke: #1e72ff"/>
     <use xlink:href="#m2a7ade6d96" x="413.170402" y="361.534316" style="fill: #1e72ff; stroke: #1e72ff"/>
     <use xlink:href="#m2a7ade6d96" x="417.889218" y="361.534316" style="fill: #1e72ff; stroke: #1e72ff"/>
     <use xlink:href="#m2a7ade6d96" x="422.608034" y="361.534316" style="fill: #1e72ff; stroke: #1e72ff"/>
     <use xlink:href="#m2a7ade6d96" x="427.32685" y="361.534316" style="fill: #1e72ff; stroke: #1e72ff"/>
     <use xlink:href="#m2a7ade6d96" x="432.045666" y="361.534316" style="fill: #1e72ff; stroke: #1e72ff"/>
     <use xlink:href="#m2a7ade6d96" x="436.764482" y="361.534316" style="fill: #1e72ff; stroke: #1e72ff"/>
     <use xlink:href="#m2a7ade6d96" x="441.483298" y="361.534316" style="fill: #1e72ff; stroke: #1e72ff"/>
     <use xlink:href="#m2a7ade6d96" x="446.202114" y="361.534316" style="fill: #1e72ff; stroke: #1e72ff"/>
     <use xlink:href="#m2a7ade6d96" x="450.92093" y="361.534316" style="fill: #1e72ff; stroke: #1e72ff"/>
     <use xlink:href="#m2a7ade6d96" x="455.639746" y="361.534316" style="fill: #1e72ff; stroke: #1e72ff"/>
     <use xlink:href="#m2a7ade6d96" x="460.358562" y="361.534316" style="fill: #1e72ff; stroke: #1e72ff"/>
     <use xlink:href="#m2a7ade6d96" x="465.077378" y="361.534316" style="fill: #1e72ff; stroke: #1e72ff"/>
     <use xlink:href="#m2a7ade6d96" x="469.796195" y="361.534316" style="fill: #1e72ff; stroke: #1e72ff"/>
     <use xlink:href="#m2a7ade6d96" x="474.515011" y="361.534316" style="fill: #1e72ff; stroke: #1e72ff"/>
     <use xlink:href="#m2a7ade6d96" x="479.233827" y="361.534316" style="fill: #1e72ff; stroke: #1e72ff"/>
     <use xlink:href="#m2a7ade6d96" x="483.952643" y="361.534316" style="fill: #1e72ff; stroke: #1e72ff"/>
     <use xlink:href="#m2a7ade6d96" x="488.671459" y="361.534316" style="fill: #1e72ff; stroke: #1e72ff"/>
     <use xlink:href="#m2a7ade6d96" x="493.390275" y="361.534316" style="fill: #1e72ff; stroke: #1e72ff"/>
     <use xlink:href="#m2a7ade6d96" x="498.109091" y="361.534316" style="fill: #1e72ff; stroke: #1e72ff"/>
    </g>
   </g>
   <g id="PathCollection_2">
    <defs>
     <path id="maef3f3ae5b" d="M -2.5 2.5 
L 2.5 2.5 
L 2.5 -2.5 
L -2.5 -2.5 
z
" style="stroke: #1e408b"/>
    </defs>
    <g clip-path="url(#p66cf9f8939)">
     <use xlink:href="#maef3f3ae5b" x="101.728541" y="369.36" style="fill: #1e408b; stroke: #1e408b"/>
     <use xlink:href="#maef3f3ae5b" x="120.603805" y="369.36" style="fill: #1e408b; stroke: #1e408b"/>
     <use xlink:href="#maef3f3ae5b" x="125.322622" y="369.36" style="fill: #1e408b; stroke: #1e408b"/>
     <use xlink:href="#maef3f3ae5b" x="130.041438" y="369.36" style="fill: #1e408b; stroke: #1e408b"/>
     <use xlink:href="#maef3f3ae5b" x="196.104863" y="369.36" style="fill: #1e408b; stroke: #1e408b"/>
     <use xlink:href="#maef3f3ae5b" x="200.823679" y="369.36" style="fill: #1e408b; stroke: #1e408b"/>
     <use xlink:href="#maef3f3ae5b" x="205.542495" y="369.36" style="fill: #1e408b; stroke: #1e408b"/>
     <use xlink:href="#maef3f3ae5b" x="210.261311" y="369.36" style="fill: #1e408b; stroke: #1e408b"/>
     <use xlink:href="#maef3f3ae5b" x="214.980127" y="369.36" style="fill: #1e408b; stroke: #1e408b"/>
     <use xlink:href="#maef3f3ae5b" x="219.698943" y="369.36" style="fill: #1e408b; stroke: #1e408b"/>
     <use xlink:href="#maef3f3ae5b" x="224.417759" y="369.36" style="fill: #1e408b; stroke: #1e408b"/>
     <use xlink:href="#maef3f3ae5b" x="229.136575" y="369.36" style="fill: #1e408b; stroke: #1e408b"/>
     <use xlink:href="#maef3f3ae5b" x="233.855391" y="369.36" style="fill: #1e408b; stroke: #1e408b"/>
     <use xlink:href="#maef3f3ae5b" x="238.574207" y="369.36" style="fill: #1e408b; stroke: #1e408b"/>
     <use xlink:href="#maef3f3ae5b" x="243.293023" y="369.36" style="fill: #1e408b; stroke: #1e408b"/>
     <use xlink:href="#maef3f3ae5b" x="248.011839" y="369.36" style="fill: #1e408b; stroke: #1e408b"/>
     <use xlink:href="#maef3f3ae5b" x="252.730655" y="369.36" style="fill: #1e408b; stroke: #1e408b"/>
     <use xlink:href="#maef3f3ae5b" x="257.449471" y="369.36" style="fill: #1e408b; stroke: #1e408b"/>
     <use xlink:href="#maef3f3ae5b" x="262.168288" y="369.36" style="fill: #1e408b; stroke: #1e408b"/>
     <use xlink:href="#maef3f3ae5b" x="266.887104" y="369.36" style="fill: #1e408b; stroke: #1e408b"/>
     <use xlink:href="#maef3f3ae5b" x="271.60592" y="369.36" style="fill: #1e408b; stroke: #1e408b"/>
     <use xlink:href="#maef3f3ae5b" x="276.324736" y="369.36" style="fill: #1e408b; stroke: #1e408b"/>
     <use xlink:href="#maef3f3ae5b" x="281.043552" y="369.36" style="fill: #1e408b; stroke: #1e408b"/>
     <use xlink:href="#maef3f3ae5b" x="285.762368" y="369.36" style="fill: #1e408b; stroke: #1e408b"/>
     <use xlink:href="#maef3f3ae5b" x="290.481184" y="369.36" style="fill: #1e408b; stroke: #1e408b"/>
     <use xlink:href="#maef3f3ae5b" x="295.2" y="369.36" style="fill: #1e408b; stroke: #1e408b"/>
     <use xlink:href="#maef3f3ae5b" x="299.918816" y="369.36" style="fill: #1e408b; stroke: #1e408b"/>
     <use xlink:href="#maef3f3ae5b" x="304.637632" y="369.36" style="fill: #1e408b; stroke: #1e408b"/>
     <use xlink:href="#maef3f3ae5b" x="309.356448" y="369.36" style="fill: #1e408b; stroke: #1e408b"/>
     <use xlink:href="#maef3f3ae5b" x="314.075264" y="369.36" style="fill: #1e408b; stroke: #1e408b"/>
     <use xlink:href="#maef3f3ae5b" x="318.79408" y="369.36" style="fill: #1e408b; stroke: #1e408b"/>
     <use xlink:href="#maef3f3ae5b" x="323.512896" y="369.36" style="fill: #1e408b; stroke: #1e408b"/>
     <use xlink:href="#maef3f3ae5b" x="328.231712" y="369.36" style="fill: #1e408b; stroke: #1e408b"/>
     <use xlink:href="#maef3f3ae5b" x="332.950529" y="369.36" style="fill: #1e408b; stroke: #1e408b"/>
     <use xlink:href="#maef3f3ae5b" x="337.669345" y="369.36" style="fill: #1e408b; stroke: #1e408b"/>
     <use xlink:href="#maef3f3ae5b" x="342.388161" y="369.36" style="fill: #1e408b; stroke: #1e408b"/>
     <use xlink:href="#maef3f3ae5b" x="347.106977" y="369.36" style="fill: #1e408b; stroke: #1e408b"/>
     <use xlink:href="#maef3f3ae5b" x="351.825793" y="369.36" style="fill: #1e408b; stroke: #1e408b"/>
     <use xlink:href="#maef3f3ae5b" x="356.544609" y="369.36" style="fill: #1e408b; stroke: #1e408b"/>
     <use xlink:href="#maef3f3ae5b" x="361.263425" y="369.36" style="fill: #1e408b; stroke: #1e408b"/>
     <use xlink:href="#maef3f3ae5b" x="365.982241" y="369.36" style="fill: #1e408b; stroke: #1e408b"/>
     <use xlink:href="#maef3f3ae5b" x="370.701057" y="369.36" style="fill: #1e408b; stroke: #1e408b"/>
     <use xlink:href="#maef3f3ae5b" x="375.419873" y="369.36" style="fill: #1e408b; stroke: #1e408b"/>
     <use xlink:href="#maef3f3ae5b" x="380.138689" y="369.36" style="fill: #1e408b; stroke: #1e408b"/>
     <use xlink:href="#maef3f3ae5b" x="384.857505" y="369.36" style="fill: #1e408b; stroke: #1e408b"/>
     <use xlink:href="#maef3f3ae5b" x="389.576321" y="369.36" style="fill: #1e408b; stroke: #1e408b"/>
     <use xlink:href="#maef3f3ae5b" x="394.295137" y="369.36" style="fill: #1e408b; stroke: #1e408b"/>
     <use xlink:href="#maef3f3ae5b" x="399.013953" y="369.36" style="fill: #1e408b; stroke: #1e408b"/>
     <use xlink:href="#maef3f3ae5b" x="403.73277" y="369.36" style="fill: #1e408b; stroke: #1e408b"/>
     <use xlink:href="#maef3f3ae5b" x="408.451586" y="369.36" style="fill: #1e408b; stroke: #1e408b"/>
     <use xlink:href="#maef3f3ae5b" x="413.170402" y="369.36" style="fill: #1e408b; stroke: #1e408b"/>
     <use xlink:href="#maef3f3ae5b" x="417.889218" y="369.36" style="fill: #1e408b; stroke: #1e408b"/>
     <use xlink:href="#maef3f3ae5b" x="422.608034" y="369.36" style="fill: #1e408b; stroke: #1e408b"/>
     <use xlink:href="#maef3f3ae5b" x="427.32685" y="369.36" style="fill: #1e408b; stroke: #1e408b"/>
     <use xlink:href="#maef3f3ae5b" x="432.045666" y="369.36" style="fill: #1e408b; stroke: #1e408b"/>
     <use xlink:href="#maef3f3ae5b" x="436.764482" y="369.36" style="fill: #1e408b; stroke: #1e408b"/>
     <use xlink:href="#maef3f3ae5b" x="441.483298" y="369.36" style="fill: #1e408b; stroke: #1e408b"/>
     <use xlink:href="#maef3f3ae5b" x="446.202114" y="369.36" style="fill: #1e408b; stroke: #1e408b"/>
     <use xlink:href="#maef3f3ae5b" x="450.92093" y="369.36" style="fill: #1e408b; stroke: #1e408b"/>
     <use xlink:href="#maef3f3ae5b" x="455.639746" y="369.36" style="fill: #1e408b; stroke: #1e408b"/>
     <use xlink:href="#maef3f3ae5b" x="460.358562" y="369.36" style="fill: #1e408b; stroke: #1e408b"/>
     <use xlink:href="#maef3f3ae5b" x="465.077378" y="369.36" style="fill: #1e408b; stroke: #1e408b"/>
     <use xlink:href="#maef3f3ae5b" x="469.796195" y="369.36" style="fill: #1e408b; stroke: #1e408b"/>
     <use xlink:href="#maef3f3ae5b" x="474.515011" y="369.36" style="fill: #1e408b; stroke: #1e408b"/>
     <use xlink:href="#maef3f3ae5b" x="479.233827" y="369.36" style="fill: #1e408b; stroke: #1e408b"/>
     <use xlink:href="#maef3f3ae5b" x="483.952643" y="369.36" style="fill: #1e408b; stroke: #1e408b"/>
     <use xlink:href="#maef3f3ae5b" x="488.671459" y="369.36" style="fill: #1e408b; stroke: #1e408b"/>
     <use xlink:href="#maef3f3ae5b" x="493.390275" y="369.36" style="fill: #1e408b; stroke: #1e408b"/>
     <use xlink:href="#maef3f3ae5b" x="498.109091" y="369.36" style="fill: #1e408b; stroke: #1e408b"/>
    </g>
   </g>
   <g id="line2d_12">
    <path d="M 92.290909 341.357745 
L 97.009725 348.424888 
L 101.728541 347.849543 
L 106.447357 348.41606 
L 111.166173 348.387953 
L 115.884989 347.609276 
L 120.603805 348.363515 
L 125.322622 347.605094 
L 130.041438 348.15195 
L 134.760254 347.123118 
L 139.47907 342.606465 
L 144.197886 342.980384 
L 148.916702 344.937692 
L 153.635518 346.384894 
L 158.354334 344.56639 
L 163.07315 344.613052 
L 167.791966 345.033266 
L 172.510782 344.17229 
L 177.229598 342.464725 
L 181.948414 341.882696 
L 186.66723 341.33462 
L 191.386047 340.321094 
L 196.104863 339.925667 
L 200.823679 338.520896 
L 205.542495 339.599795 
L 210.261311 337.288745 
L 214.980127 335.741138 
L 219.698943 335.978552 
L 224.417759 335.435361 
L 229.136575 335.254371 
L 233.855391 334.937844 
L 238.574207 334.906454 
L 243.293023 334.073149 
L 248.011839 332.85686 
L 252.730655 331.315431 
L 257.449471 331.673084 
L 262.168288 330.178632 
L 266.887104 328.434523 
L 271.60592 329.788419 
L 276.324736 329.379363 
L 281.043552 328.22478 
L 285.762368 325.958615 
L 290.481184 324.293221 
L 295.2 323.838174 
L 299.918816 322.127801 
L 304.637632 322.816601 
L 309.356448 324.596751 
L 314.075264 323.707443 
L 318.79408 320.670953 
L 323.512896 319.010984 
L 328.231712 319.959669 
L 332.950529 317.274241 
L 337.669345 316.714204 
L 342.388161 316.065992 
L 347.106977 316.190265 
L 351.825793 314.988064 
L 356.544609 314.753873 
L 361.263425 316.120359 
L 365.982241 319.07117 
L 370.701057 319.789117 
L 375.419873 322.799405 
L 380.138689 303.029986 
L 384.857505 296.025589 
L 389.576321 310.161309 
L 394.295137 322.369081 
L 399.013953 319.188597 
L 403.73277 315.08969 
L 408.451586 305.642753 
L 413.170402 302.813919 
L 417.889218 304.280923 
L 422.608034 307.677644 
L 427.32685 310.321208 
L 432.045666 308.522555 
L 436.764482 306.972893 
L 441.483298 307.828104 
L 446.202114 305.330881 
L 450.92093 305.494328 
L 455.639746 304.436437 
L 460.358562 303.365389 
L 465.077378 304.046416 
L 469.796195 307.379181 
L 474.515011 308.221004 
L 479.233827 306.898522 
L 483.952643 302.349291 
L 488.671459 302.205357 
L 493.390275 303.896805 
L 498.109091 306.400803 
" clip-path="url(#p66cf9f8939)" style="fill: none; stroke: #1e72ff; stroke-width: 2; stroke-linecap: round"/>
   </g>
   <g id="line2d_13">
    <path d="M 92.290909 348.044407 
L 97.009725 348.232829 
L 101.728541 348.310833 
L 106.447357 348.347694 
L 111.166173 348.254782 
L 115.884989 348.339368 
L 120.603805 348.49151 
L 125.322622 348.227757 
L 130.041438 348.194565 
L 134.760254 348.167803 
L 139.47907 340.909641 
L 144.197886 340.673854 
L 148.916702 341.198933 
L 153.635518 341.392387 
L 158.354334 340.579708 
L 163.07315 340.588866 
L 167.791966 340.872014 
L 172.510782 340.993119 
L 177.229598 340.75156 
L 181.948414 340.381262 
L 186.66723 339.884932 
L 191.386047 339.518697 
L 196.104863 339.265963 
L 200.823679 339.911858 
L 205.542495 339.529352 
L 210.261311 338.911361 
L 214.980127 338.397958 
L 219.698943 339.099301 
L 224.417759 340.066525 
L 229.136575 339.893548 
L 233.855391 339.455255 
L 238.574207 339.776078 
L 243.293023 339.259759 
L 248.011839 339.1844 
L 252.730655 339.096942 
L 257.449471 339.028683 
L 262.168288 339.107714 
L 266.887104 338.951307 
L 271.60592 339.191265 
L 276.324736 339.336447 
L 281.043552 338.63126 
L 285.762368 338.207837 
L 290.481184 338.398886 
L 295.2 338.533091 
L 299.918816 338.66895 
L 304.637632 338.196557 
L 309.356448 337.683661 
L 314.075264 337.213297 
L 318.79408 337.524446 
L 323.512896 338.31982 
L 328.231712 338.47257 
L 332.950529 338.071553 
L 337.669345 337.610375 
L 342.388161 337.871297 
L 347.106977 337.822021 
L 351.825793 337.88798 
L 356.544609 337.79166 
L 361.263425 338.052654 
L 365.982241 338.738319 
L 370.701057 340.432653 
L 375.419873 345.278138 
L 380.138689 346.214326 
L 384.857505 346.716941 
L 389.576321 346.680727 
L 394.295137 346.323412 
L 399.013953 346.214488 
L 403.73277 346.56451 
L 408.451586 346.293948 
L 413.170402 346.137063 
L 417.889218 346.389672 
L 422.608034 346.495125 
L 427.32685 346.012977 
L 432.045666 345.834686 
L 436.764482 346.13591 
L 441.483298 346.124041 
L 446.202114 346.037332 
L 450.92093 345.971802 
L 455.639746 345.872319 
L 460.358562 346.05891 
L 465.077378 346.285058 
L 469.796195 346.148282 
L 474.515011 345.904581 
L 479.233827 345.958437 
L 483.952643 346.044632 
L 488.671459 346.299182 
L 493.390275 346.020626 
L 498.109091 346.202217 
" clip-path="url(#p66cf9f8939)" style="fill: none; stroke-dasharray: 5.55,2.4; stroke-dashoffset: 0; stroke: #1e72ff; stroke-opacity: 0.8; stroke-width: 1.5"/>
   </g>
   <g id="line2d_14">
    <path d="M 92.290909 346.935753 
L 97.009725 342.231108 
L 101.728541 344.966777 
L 106.447357 337.723216 
L 111.166173 337.329881 
L 115.884989 333.312384 
L 120.603805 330.144288 
L 125.322622 327.757575 
L 130.041438 322.83689 
L 134.760254 316.064163 
L 139.47907 309.963587 
L 144.197886 308.423505 
L 148.916702 310.511279 
L 153.635518 311.474404 
L 158.354334 312.682789 
L 163.07315 312.524186 
L 167.791966 313.799397 
L 172.510782 314.997348 
L 177.229598 316.438183 
L 181.948414 316.691949 
L 186.66723 318.824495 
L 191.386047 319.807403 
L 196.104863 319.231659 
L 200.823679 319.712021 
L 205.542495 319.332575 
L 210.261311 318.08254 
L 214.980127 316.973055 
L 219.698943 314.873807 
L 224.417759 312.963821 
L 229.136575 309.615565 
L 233.855391 306.976329 
L 238.574207 303.371811 
L 243.293023 300.333061 
L 248.011839 295.43136 
L 252.730655 290.725909 
L 257.449471 286.14105 
L 262.168288 281.381868 
L 266.887104 276.938132 
L 271.60592 272.212102 
L 276.324736 267.021989 
L 281.043552 262.045563 
L 285.762368 256.826264 
L 290.481184 252.177771 
L 295.2 247.684822 
L 299.918816 243.421751 
L 304.637632 238.646099 
L 309.356448 234.219196 
L 314.075264 229.187807 
L 318.79408 224.511753 
L 323.512896 220.352657 
L 328.231712 216.153491 
L 332.950529 212.571513 
L 337.669345 208.565559 
L 342.388161 204.078775 
L 347.106977 200.038021 
L 351.825793 196.822879 
L 356.544609 193.910747 
L 361.263425 191.49057 
L 365.982241 188.226992 
L 370.701057 184.822799 
L 375.419873 182.86201 
L 380.138689 180.960268 
L 384.857505 174.298679 
L 389.576321 164.936587 
L 394.295137 156.654465 
L 399.013953 150.237473 
L 403.73277 146.477665 
L 408.451586 142.594961 
L 413.170402 137.419913 
L 417.889218 132.779976 
L 422.608034 127.362663 
L 427.32685 123.037919 
L 432.045666 119.440067 
L 436.764482 116.84561 
L 441.483298 113.362947 
L 446.202114 110.778811 
L 450.92093 107.722612 
L 455.639746 105.434871 
L 460.358562 101.986025 
L 465.077378 99.817315 
L 469.796195 97.527514 
L 474.515011 95.624014 
L 479.233827 93.110696 
L 483.952643 92.709732 
L 488.671459 90.592017 
L 493.390275 89.316212 
L 498.109091 87.635392 
" clip-path="url(#p66cf9f8939)" style="fill: none; stroke: #1e408b; stroke-width: 2; stroke-linecap: round"/>
   </g>
   <g id="line2d_15">
    <path d="M 92.290909 345.512182 
L 97.009725 341.639132 
L 101.728541 338.345974 
L 106.447357 335.621706 
L 111.166173 332.857097 
L 115.884989 329.929705 
L 120.603805 325.618618 
L 125.322622 321.993272 
L 130.041438 318.29777 
L 134.760254 313.866902 
L 139.47907 309.98257 
L 144.197886 308.809845 
L 148.916702 308.700905 
L 153.635518 310.00255 
L 158.354334 311.338087 
L 163.07315 313.476354 
L 167.791966 316.2027 
L 172.510782 318.228601 
L 177.229598 320.640663 
L 181.948414 322.564003 
L 186.66723 324.314781 
L 191.386047 326.035591 
L 196.104863 327.209402 
L 200.823679 328.175309 
L 205.542495 329.209999 
L 210.261311 329.909691 
L 214.980127 330.587979 
L 219.698943 331.142444 
L 224.417759 331.720901 
L 229.136575 331.983866 
L 233.855391 332.452742 
L 238.574207 332.643981 
L 243.293023 332.670899 
L 248.011839 332.714626 
L 252.730655 332.810438 
L 257.449471 333.128683 
L 262.168288 333.091028 
L 266.887104 333.144613 
L 271.60592 333.309405 
L 276.324736 333.365261 
L 281.043552 333.260882 
L 285.762368 333.257584 
L 290.481184 333.201173 
L 295.2 333.233701 
L 299.918816 333.405312 
L 304.637632 333.493457 
L 309.356448 333.442774 
L 314.075264 333.619588 
L 318.79408 333.773689 
L 323.512896 333.839304 
L 328.231712 333.895438 
L 332.950529 333.97749 
L 337.669345 334.07996 
L 342.388161 334.17844 
L 347.106977 334.252059 
L 351.825793 334.574398 
L 356.544609 334.990653 
L 361.263425 335.336081 
L 365.982241 335.94836 
L 370.701057 336.681998 
L 375.419873 337.302272 
L 380.138689 337.835929 
L 384.857505 337.972098 
L 389.576321 338.151214 
L 394.295137 338.297045 
L 399.013953 338.373063 
L 403.73277 338.773336 
L 408.451586 339.002738 
L 413.170402 339.277328 
L 417.889218 339.185841 
L 422.608034 339.158215 
L 427.32685 339.313076 
L 432.045666 339.396465 
L 436.764482 339.547832 
L 441.483298 339.432375 
L 446.202114 339.479549 
L 450.92093 339.682031 
L 455.639746 339.657165 
L 460.358562 339.585481 
L 465.077378 339.685186 
L 469.796195 339.60273 
L 474.515011 339.566587 
L 479.233827 339.72552 
L 483.952643 339.643973 
L 488.671459 339.771343 
L 493.390275 339.700149 
L 498.109091 339.877159 
" clip-path="url(#p66cf9f8939)" style="fill: none; stroke-dasharray: 5.55,2.4; stroke-dashoffset: 0; stroke: #1e408b; stroke-opacity: 0.8; stroke-width: 1.5"/>
   </g>
   <g id="line2d_16">
    <path d="M 139.47907 384.48 
L 139.47907 51.84 
" clip-path="url(#p66cf9f8939)" style="fill: none; stroke-dasharray: 5.55,2.4; stroke-dashoffset: 0; stroke: #808080; stroke-opacity: 0.7; stroke-width: 1.5"/>
   </g>
   <g id="line2d_17">
    <path d="M 375.419873 384.48 
L 375.419873 51.84 
" clip-path="url(#p66cf9f8939)" style="fill: none; stroke-dasharray: 5.55,2.4; stroke-dashoffset: 0; stroke: #808080; stroke-opacity: 0.7; stroke-width: 1.5"/>
   </g>
   <g id="patch_3">
    <path d="M 72 384.48 
L 72 51.84 
" style="fill: none; stroke: #000000; stroke-width: 1.5; stroke-linejoin: miter; stroke-linecap: square"/>
   </g>
   <g id="patch_4">
    <path d="M 72 384.48 
L 518.4 384.48 
" style="fill: none; stroke: #000000; stroke-width: 1.5; stroke-linejoin: miter; stroke-linecap: square"/>
   </g>
   <g id="text_14">
    <!-- L1_sactemporal -->
    <g style="fill: #262626" transform="translate(238.093359 45.84) scale(0.15 -0.15)">
     <defs>
      <path id="Arial-BoldMT-4c" d="M 491 0 
L 491 4544 
L 1416 4544 
L 1416 772 
L 3716 772 
L 3716 0 
L 491 0 
z
" transform="scale(0.015625)"/>
      <path id="Arial-BoldMT-31" d="M 2519 0 
L 1641 0 
L 1641 3309 
Q 1159 2859 506 2644 
L 506 3441 
Q 850 3553 1253 3867 
Q 1656 4181 1806 4600 
L 2519 4600 
L 2519 0 
z
" transform="scale(0.015625)"/>
      <path id="Arial-BoldMT-5f" d="M -59 -1266 
L -59 -697 
L 3591 -697 
L 3591 -1266 
L -59 -1266 
z
" transform="scale(0.015625)"/>
      <path id="Arial-BoldMT-73" d="M 150 947 
L 1031 1081 
Q 1088 825 1259 692 
Q 1431 559 1741 559 
Q 2081 559 2253 684 
Q 2369 772 2369 919 
Q 2369 1019 2306 1084 
Q 2241 1147 2013 1200 
Q 950 1434 666 1628 
Q 272 1897 272 2375 
Q 272 2806 612 3100 
Q 953 3394 1669 3394 
Q 2350 3394 2681 3172 
Q 3013 2950 3138 2516 
L 2309 2363 
Q 2256 2556 2107 2659 
Q 1959 2763 1684 2763 
Q 1338 2763 1188 2666 
Q 1088 2597 1088 2488 
Q 1088 2394 1175 2328 
Q 1294 2241 1995 2081 
Q 2697 1922 2975 1691 
Q 3250 1456 3250 1038 
Q 3250 581 2869 253 
Q 2488 -75 1741 -75 
Q 1063 -75 667 200 
Q 272 475 150 947 
z
" transform="scale(0.015625)"/>
      <path id="Arial-BoldMT-61" d="M 1116 2306 
L 319 2450 
Q 453 2931 781 3162 
Q 1109 3394 1756 3394 
Q 2344 3394 2631 3255 
Q 2919 3116 3036 2902 
Q 3153 2688 3153 2116 
L 3144 1091 
Q 3144 653 3186 445 
Q 3228 238 3344 0 
L 2475 0 
Q 2441 88 2391 259 
Q 2369 338 2359 363 
Q 2134 144 1878 34 
Q 1622 -75 1331 -75 
Q 819 -75 523 203 
Q 228 481 228 906 
Q 228 1188 362 1408 
Q 497 1628 739 1745 
Q 981 1863 1438 1950 
Q 2053 2066 2291 2166 
L 2291 2253 
Q 2291 2506 2166 2614 
Q 2041 2722 1694 2722 
Q 1459 2722 1328 2630 
Q 1197 2538 1116 2306 
z
M 2291 1594 
Q 2122 1538 1756 1459 
Q 1391 1381 1278 1306 
Q 1106 1184 1106 997 
Q 1106 813 1243 678 
Q 1381 544 1594 544 
Q 1831 544 2047 700 
Q 2206 819 2256 991 
Q 2291 1103 2291 1419 
L 2291 1594 
z
" transform="scale(0.015625)"/>
      <path id="Arial-BoldMT-63" d="M 3353 2338 
L 2488 2181 
Q 2444 2441 2289 2572 
Q 2134 2703 1888 2703 
Q 1559 2703 1364 2476 
Q 1169 2250 1169 1719 
Q 1169 1128 1367 884 
Q 1566 641 1900 641 
Q 2150 641 2309 783 
Q 2469 925 2534 1272 
L 3397 1125 
Q 3263 531 2881 228 
Q 2500 -75 1859 -75 
Q 1131 -75 698 384 
Q 266 844 266 1656 
Q 266 2478 700 2936 
Q 1134 3394 1875 3394 
Q 2481 3394 2839 3133 
Q 3197 2872 3353 2338 
z
" transform="scale(0.015625)"/>
      <path id="Arial-BoldMT-74" d="M 1981 3319 
L 1981 2619 
L 1381 2619 
L 1381 1281 
Q 1381 875 1398 808 
Q 1416 741 1477 697 
Q 1538 653 1625 653 
Q 1747 653 1978 738 
L 2053 56 
Q 1747 -75 1359 -75 
Q 1122 -75 931 4 
Q 741 84 652 211 
Q 563 338 528 553 
Q 500 706 500 1172 
L 500 2619 
L 97 2619 
L 97 3319 
L 500 3319 
L 500 3978 
L 1381 4491 
L 1381 3319 
L 1981 3319 
z
" transform="scale(0.015625)"/>
      <path id="Arial-BoldMT-65" d="M 2381 1056 
L 3256 909 
Q 3088 428 2723 176 
Q 2359 -75 1813 -75 
Q 947 -75 531 491 
Q 203 944 203 1634 
Q 203 2459 634 2926 
Q 1066 3394 1725 3394 
Q 2466 3394 2894 2905 
Q 3322 2416 3303 1406 
L 1103 1406 
Q 1113 1016 1316 798 
Q 1519 581 1822 581 
Q 2028 581 2168 693 
Q 2309 806 2381 1056 
z
M 2431 1944 
Q 2422 2325 2234 2523 
Q 2047 2722 1778 2722 
Q 1491 2722 1303 2513 
Q 1116 2303 1119 1944 
L 2431 1944 
z
" transform="scale(0.015625)"/>
      <path id="Arial-BoldMT-6d" d="M 394 3319 
L 1203 3319 
L 1203 2866 
Q 1638 3394 2238 3394 
Q 2556 3394 2790 3262 
Q 3025 3131 3175 2866 
Q 3394 3131 3647 3262 
Q 3900 3394 4188 3394 
Q 4553 3394 4806 3245 
Q 5059 3097 5184 2809 
Q 5275 2597 5275 2122 
L 5275 0 
L 4397 0 
L 4397 1897 
Q 4397 2391 4306 2534 
Q 4184 2722 3931 2722 
Q 3747 2722 3584 2609 
Q 3422 2497 3350 2280 
Q 3278 2063 3278 1594 
L 3278 0 
L 2400 0 
L 2400 1819 
Q 2400 2303 2353 2443 
Q 2306 2584 2207 2653 
Q 2109 2722 1941 2722 
Q 1738 2722 1575 2612 
Q 1413 2503 1342 2297 
Q 1272 2091 1272 1613 
L 1272 0 
L 394 0 
L 394 3319 
z
" transform="scale(0.015625)"/>
      <path id="Arial-BoldMT-70" d="M 434 3319 
L 1253 3319 
L 1253 2831 
Q 1413 3081 1684 3237 
Q 1956 3394 2288 3394 
Q 2866 3394 3269 2941 
Q 3672 2488 3672 1678 
Q 3672 847 3265 386 
Q 2859 -75 2281 -75 
Q 2006 -75 1782 34 
Q 1559 144 1313 409 
L 1313 -1263 
L 434 -1263 
L 434 3319 
z
M 1303 1716 
Q 1303 1156 1525 889 
Q 1747 622 2066 622 
Q 2372 622 2575 867 
Q 2778 1113 2778 1672 
Q 2778 2194 2568 2447 
Q 2359 2700 2050 2700 
Q 1728 2700 1515 2451 
Q 1303 2203 1303 1716 
z
" transform="scale(0.015625)"/>
      <path id="Arial-BoldMT-6f" d="M 256 1706 
Q 256 2144 472 2553 
Q 688 2963 1083 3178 
Q 1478 3394 1966 3394 
Q 2719 3394 3200 2905 
Q 3681 2416 3681 1669 
Q 3681 916 3195 420 
Q 2709 -75 1972 -75 
Q 1516 -75 1102 131 
Q 688 338 472 736 
Q 256 1134 256 1706 
z
M 1156 1659 
Q 1156 1166 1390 903 
Q 1625 641 1969 641 
Q 2313 641 2545 903 
Q 2778 1166 2778 1666 
Q 2778 2153 2545 2415 
Q 2313 2678 1969 2678 
Q 1625 2678 1390 2415 
Q 1156 2153 1156 1659 
z
" transform="scale(0.015625)"/>
      <path id="Arial-BoldMT-72" d="M 1300 0 
L 422 0 
L 422 3319 
L 1238 3319 
L 1238 2847 
Q 1447 3181 1614 3287 
Q 1781 3394 1994 3394 
Q 2294 3394 2572 3228 
L 2300 2463 
Q 2078 2606 1888 2606 
Q 1703 2606 1575 2504 
Q 1447 2403 1373 2137 
Q 1300 1872 1300 1025 
L 1300 0 
z
" transform="scale(0.015625)"/>
      <path id="Arial-BoldMT-6c" d="M 459 0 
L 459 4581 
L 1338 4581 
L 1338 0 
L 459 0 
z
" transform="scale(0.015625)"/>
     </defs>
     <use xlink:href="#Arial-BoldMT-4c"/>
     <use xlink:href="#Arial-BoldMT-31" x="61.083984"/>
     <use xlink:href="#Arial-BoldMT-5f" x="116.699219"/>
     <use xlink:href="#Arial-BoldMT-73" x="172.314453"/>
     <use xlink:href="#Arial-BoldMT-61" x="227.929688"/>
     <use xlink:href="#Arial-BoldMT-63" x="283.544922"/>
     <use xlink:href="#Arial-BoldMT-74" x="339.160156"/>
     <use xlink:href="#Arial-BoldMT-65" x="372.460938"/>
     <use xlink:href="#Arial-BoldMT-6d" x="428.076172"/>
     <use xlink:href="#Arial-BoldMT-70" x="516.992188"/>
     <use xlink:href="#Arial-BoldMT-6f" x="578.076172"/>
     <use xlink:href="#Arial-BoldMT-72" x="639.160156"/>
     <use xlink:href="#Arial-BoldMT-61" x="678.076172"/>
     <use xlink:href="#Arial-BoldMT-6c" x="733.691406"/>
    </g>
   </g>
  </g>
 </g>
 <defs>
  <clipPath id="p66cf9f8939">
   <rect x="72" y="51.84" width="446.4" height="332.64"/>
  </clipPath>
 </defs>
</svg>
