<?xml version="1.0" encoding="utf-8" standalone="no"?>
<!DOCTYPE svg PUBLIC "-//W3C//DTD SVG 1.1//EN"
  "http://www.w3.org/Graphics/SVG/1.1/DTD/svg11.dtd">
<svg xmlns:xlink="http://www.w3.org/1999/xlink" width="720pt" height="432pt" viewBox="0 0 720 432" xmlns="http://www.w3.org/2000/svg" version="1.1">
 <metadata>
  <rdf:RDF xmlns:dc="http://purl.org/dc/elements/1.1/" xmlns:cc="http://creativecommons.org/ns#" xmlns:rdf="http://www.w3.org/1999/02/22-rdf-syntax-ns#">
   <cc:Work>
    <dc:type rdf:resource="http://purl.org/dc/dcmitype/StillImage"/>
    <dc:date>2025-11-02T16:35:09.041545</dc:date>
    <dc:format>image/svg+xml</dc:format>
    <dc:creator>
     <cc:Agent>
      <dc:title>Matplotlib v3.9.4, https://matplotlib.org/</dc:title>
     </cc:Agent>
    </dc:creator>
   </cc:Work>
  </rdf:RDF>
 </metadata>
 <defs>
  <style type="text/css">*{stroke-linejoin: round; stroke-linecap: butt}</style>
 </defs>
 <g id="figure_1">
  <g id="patch_1">
   <path d="M 0 432 
L 720 432 
L 720 0 
L 0 0 
z
" style="fill: #ffffff"/>
  </g>
  <g id="axes_1">
   <g id="patch_2">
    <path d="M 85.71 378.54 
L 607.44 378.54 
L 607.44 26.96 
L 85.71 26.96 
L 85.71 378.54 
z
" style="fill: none"/>
   </g>
   <g id="matplotlib.axis_1">
    <g id="xtick_1">
     <g id="line2d_1">
      <defs>
       <path id="mf0eff66be5" d="M 0 0 
L 0 5 
" style="stroke: #262626; stroke-width: 1.5"/>
      </defs>
      <g>
       <use xlink:href="#mf0eff66be5" x="90.122093" y="378.54" style="fill: #262626; stroke: #262626; stroke-width: 1.5"/>
      </g>
     </g>
     <g id="text_1">
      <!-- −250 -->
      <g style="fill: #262626" transform="translate(73.229515 397.776719) scale(0.15 -0.15)">
       <defs>
        <path id="ArialMT-2212" d="M 3381 1997 
L 356 1997 
L 356 2522 
L 3381 2522 
L 3381 1997 
z
" transform="scale(0.015625)"/>
        <path id="ArialMT-32" d="M 3222 541 
L 3222 0 
L 194 0 
Q 188 203 259 391 
Q 375 700 629 1000 
Q 884 1300 1366 1694 
Q 2113 2306 2375 2664 
Q 2638 3022 2638 3341 
Q 2638 3675 2398 3904 
Q 2159 4134 1775 4134 
Q 1369 4134 1125 3890 
Q 881 3647 878 3216 
L 300 3275 
Q 359 3922 746 4261 
Q 1134 4600 1788 4600 
Q 2447 4600 2831 4234 
Q 3216 3869 3216 3328 
Q 3216 3053 3103 2787 
Q 2991 2522 2730 2228 
Q 2469 1934 1863 1422 
Q 1356 997 1212 845 
Q 1069 694 975 541 
L 3222 541 
z
" transform="scale(0.015625)"/>
        <path id="ArialMT-35" d="M 266 1200 
L 856 1250 
Q 922 819 1161 601 
Q 1400 384 1738 384 
Q 2144 384 2425 690 
Q 2706 997 2706 1503 
Q 2706 1984 2436 2262 
Q 2166 2541 1728 2541 
Q 1456 2541 1237 2417 
Q 1019 2294 894 2097 
L 366 2166 
L 809 4519 
L 3088 4519 
L 3088 3981 
L 1259 3981 
L 1013 2750 
Q 1425 3038 1878 3038 
Q 2478 3038 2890 2622 
Q 3303 2206 3303 1553 
Q 3303 931 2941 478 
Q 2500 -78 1738 -78 
Q 1113 -78 717 272 
Q 322 622 266 1200 
z
" transform="scale(0.015625)"/>
        <path id="ArialMT-30" d="M 266 2259 
Q 266 3072 433 3567 
Q 600 4063 929 4331 
Q 1259 4600 1759 4600 
Q 2128 4600 2406 4451 
Q 2684 4303 2865 4023 
Q 3047 3744 3150 3342 
Q 3253 2941 3253 2259 
Q 3253 1453 3087 958 
Q 2922 463 2592 192 
Q 2263 -78 1759 -78 
Q 1097 -78 719 397 
Q 266 969 266 2259 
z
M 844 2259 
Q 844 1131 1108 757 
Q 1372 384 1759 384 
Q 2147 384 2411 759 
Q 2675 1134 2675 2259 
Q 2675 3391 2411 3762 
Q 2147 4134 1753 4134 
Q 1366 4134 1134 3806 
Q 844 3388 844 2259 
z
" transform="scale(0.015625)"/>
       </defs>
       <use xlink:href="#ArialMT-2212"/>
       <use xlink:href="#ArialMT-32" x="58.398438"/>
       <use xlink:href="#ArialMT-35" x="114.013672"/>
       <use xlink:href="#ArialMT-30" x="169.628906"/>
      </g>
     </g>
    </g>
    <g id="xtick_2">
     <g id="line2d_2">
      <g>
       <use xlink:href="#mf0eff66be5" x="159.061047" y="378.54" style="fill: #262626; stroke: #262626; stroke-width: 1.5"/>
      </g>
     </g>
     <g id="text_2">
      <!-- 0 -->
      <g style="fill: #262626" transform="translate(154.890343 397.776719) scale(0.15 -0.15)">
       <use xlink:href="#ArialMT-30"/>
      </g>
     </g>
    </g>
    <g id="xtick_3">
     <g id="line2d_3">
      <g>
       <use xlink:href="#mf0eff66be5" x="228" y="378.54" style="fill: #262626; stroke: #262626; stroke-width: 1.5"/>
      </g>
     </g>
     <g id="text_3">
      <!-- 250 -->
      <g style="fill: #262626" transform="translate(215.487891 397.776719) scale(0.15 -0.15)">
       <use xlink:href="#ArialMT-32"/>
       <use xlink:href="#ArialMT-35" x="55.615234"/>
       <use xlink:href="#ArialMT-30" x="111.230469"/>
      </g>
     </g>
    </g>
    <g id="xtick_4">
     <g id="line2d_4">
      <g>
       <use xlink:href="#mf0eff66be5" x="296.938953" y="378.54" style="fill: #262626; stroke: #262626; stroke-width: 1.5"/>
      </g>
     </g>
     <g id="text_4">
      <!-- 500 -->
      <g style="fill: #262626" transform="translate(284.426844 397.776719) scale(0.15 -0.15)">
       <use xlink:href="#ArialMT-35"/>
       <use xlink:href="#ArialMT-30" x="55.615234"/>
       <use xlink:href="#ArialMT-30" x="111.230469"/>
      </g>
     </g>
    </g>
    <g id="xtick_5">
     <g id="line2d_5">
      <g>
       <use xlink:href="#mf0eff66be5" x="365.877907" y="378.54" style="fill: #262626; stroke: #262626; stroke-width: 1.5"/>
      </g>
     </g>
     <g id="text_5">
      <!-- 750 -->
      <g style="fill: #262626" transform="translate(353.365798 397.776719) scale(0.15 -0.15)">
       <defs>
        <path id="ArialMT-37" d="M 303 3981 
L 303 4522 
L 3269 4522 
L 3269 4084 
Q 2831 3619 2401 2847 
Q 1972 2075 1738 1259 
Q 1569 684 1522 0 
L 944 0 
Q 953 541 1156 1306 
Q 1359 2072 1739 2783 
Q 2119 3494 2547 3981 
L 303 3981 
z
" transform="scale(0.015625)"/>
       </defs>
       <use xlink:href="#ArialMT-37"/>
       <use xlink:href="#ArialMT-35" x="55.615234"/>
       <use xlink:href="#ArialMT-30" x="111.230469"/>
      </g>
     </g>
    </g>
    <g id="xtick_6">
     <g id="line2d_6">
      <g>
       <use xlink:href="#mf0eff66be5" x="434.81686" y="378.54" style="fill: #262626; stroke: #262626; stroke-width: 1.5"/>
      </g>
     </g>
     <g id="text_6">
      <!-- 1000 -->
      <g style="fill: #262626" transform="translate(418.134048 397.776719) scale(0.15 -0.15)">
       <defs>
        <path id="ArialMT-31" d="M 2384 0 
L 1822 0 
L 1822 3584 
Q 1619 3391 1289 3197 
Q 959 3003 697 2906 
L 697 3450 
Q 1169 3672 1522 3987 
Q 1875 4303 2022 4600 
L 2384 4600 
L 2384 0 
z
" transform="scale(0.015625)"/>
       </defs>
       <use xlink:href="#ArialMT-31"/>
       <use xlink:href="#ArialMT-30" x="55.615234"/>
       <use xlink:href="#ArialMT-30" x="111.230469"/>
       <use xlink:href="#ArialMT-30" x="166.845703"/>
      </g>
     </g>
    </g>
    <g id="xtick_7">
     <g id="line2d_7">
      <g>
       <use xlink:href="#mf0eff66be5" x="503.755814" y="378.54" style="fill: #262626; stroke: #262626; stroke-width: 1.5"/>
      </g>
     </g>
     <g id="text_7">
      <!-- 1250 -->
      <g style="fill: #262626" transform="translate(487.073001 397.776719) scale(0.15 -0.15)">
       <use xlink:href="#ArialMT-31"/>
       <use xlink:href="#ArialMT-32" x="55.615234"/>
       <use xlink:href="#ArialMT-35" x="111.230469"/>
       <use xlink:href="#ArialMT-30" x="166.845703"/>
      </g>
     </g>
    </g>
    <g id="xtick_8">
     <g id="line2d_8">
      <g>
       <use xlink:href="#mf0eff66be5" x="572.694767" y="378.54" style="fill: #262626; stroke: #262626; stroke-width: 1.5"/>
      </g>
     </g>
     <g id="text_8">
      <!-- 1500 -->
      <g style="fill: #262626" transform="translate(556.011955 397.776719) scale(0.15 -0.15)">
       <use xlink:href="#ArialMT-31"/>
       <use xlink:href="#ArialMT-35" x="55.615234"/>
       <use xlink:href="#ArialMT-30" x="111.230469"/>
       <use xlink:href="#ArialMT-30" x="166.845703"/>
      </g>
     </g>
    </g>
    <g id="text_9">
     <!-- Time (s) -->
     <g style="fill: #262626" transform="translate(319.362891 415.6775) scale(0.15 -0.15)">
      <defs>
       <path id="ArialMT-54" d="M 1659 0 
L 1659 4041 
L 150 4041 
L 150 4581 
L 3781 4581 
L 3781 4041 
L 2266 4041 
L 2266 0 
L 1659 0 
z
" transform="scale(0.015625)"/>
       <path id="ArialMT-69" d="M 425 3934 
L 425 4581 
L 988 4581 
L 988 3934 
L 425 3934 
z
M 425 0 
L 425 3319 
L 988 3319 
L 988 0 
L 425 0 
z
" transform="scale(0.015625)"/>
       <path id="ArialMT-6d" d="M 422 0 
L 422 3319 
L 925 3319 
L 925 2853 
Q 1081 3097 1340 3245 
Q 1600 3394 1931 3394 
Q 2300 3394 2536 3241 
Q 2772 3088 2869 2813 
Q 3263 3394 3894 3394 
Q 4388 3394 4653 3120 
Q 4919 2847 4919 2278 
L 4919 0 
L 4359 0 
L 4359 2091 
Q 4359 2428 4304 2576 
Q 4250 2725 4106 2815 
Q 3963 2906 3769 2906 
Q 3419 2906 3187 2673 
Q 2956 2441 2956 1928 
L 2956 0 
L 2394 0 
L 2394 2156 
Q 2394 2531 2256 2718 
Q 2119 2906 1806 2906 
Q 1569 2906 1367 2781 
Q 1166 2656 1075 2415 
Q 984 2175 984 1722 
L 984 0 
L 422 0 
z
" transform="scale(0.015625)"/>
       <path id="ArialMT-65" d="M 2694 1069 
L 3275 997 
Q 3138 488 2766 206 
Q 2394 -75 1816 -75 
Q 1088 -75 661 373 
Q 234 822 234 1631 
Q 234 2469 665 2931 
Q 1097 3394 1784 3394 
Q 2450 3394 2872 2941 
Q 3294 2488 3294 1666 
Q 3294 1616 3291 1516 
L 816 1516 
Q 847 969 1125 678 
Q 1403 388 1819 388 
Q 2128 388 2347 550 
Q 2566 713 2694 1069 
z
M 847 1978 
L 2700 1978 
Q 2663 2397 2488 2606 
Q 2219 2931 1791 2931 
Q 1403 2931 1139 2672 
Q 875 2413 847 1978 
z
" transform="scale(0.015625)"/>
       <path id="ArialMT-20" transform="scale(0.015625)"/>
       <path id="ArialMT-28" d="M 1497 -1347 
Q 1031 -759 709 28 
Q 388 816 388 1659 
Q 388 2403 628 3084 
Q 909 3875 1497 4659 
L 1900 4659 
Q 1522 4009 1400 3731 
Q 1209 3300 1100 2831 
Q 966 2247 966 1656 
Q 966 153 1900 -1347 
L 1497 -1347 
z
" transform="scale(0.015625)"/>
       <path id="ArialMT-73" d="M 197 991 
L 753 1078 
Q 800 744 1014 566 
Q 1228 388 1613 388 
Q 2000 388 2187 545 
Q 2375 703 2375 916 
Q 2375 1106 2209 1216 
Q 2094 1291 1634 1406 
Q 1016 1563 777 1677 
Q 538 1791 414 1992 
Q 291 2194 291 2438 
Q 291 2659 392 2848 
Q 494 3038 669 3163 
Q 800 3259 1026 3326 
Q 1253 3394 1513 3394 
Q 1903 3394 2198 3281 
Q 2494 3169 2634 2976 
Q 2775 2784 2828 2463 
L 2278 2388 
Q 2241 2644 2061 2787 
Q 1881 2931 1553 2931 
Q 1166 2931 1000 2803 
Q 834 2675 834 2503 
Q 834 2394 903 2306 
Q 972 2216 1119 2156 
Q 1203 2125 1616 2013 
Q 2213 1853 2448 1751 
Q 2684 1650 2818 1456 
Q 2953 1263 2953 975 
Q 2953 694 2789 445 
Q 2625 197 2315 61 
Q 2006 -75 1616 -75 
Q 969 -75 630 194 
Q 291 463 197 991 
z
" transform="scale(0.015625)"/>
       <path id="ArialMT-29" d="M 791 -1347 
L 388 -1347 
Q 1322 153 1322 1656 
Q 1322 2244 1188 2822 
Q 1081 3291 891 3722 
Q 769 4003 388 4659 
L 791 4659 
Q 1378 3875 1659 3084 
Q 1900 2403 1900 1659 
Q 1900 816 1576 28 
Q 1253 -759 791 -1347 
z
" transform="scale(0.015625)"/>
      </defs>
      <use xlink:href="#ArialMT-54"/>
      <use xlink:href="#ArialMT-69" x="57.333984"/>
      <use xlink:href="#ArialMT-6d" x="79.550781"/>
      <use xlink:href="#ArialMT-65" x="162.851562"/>
      <use xlink:href="#ArialMT-20" x="218.466797"/>
      <use xlink:href="#ArialMT-28" x="246.25"/>
      <use xlink:href="#ArialMT-73" x="279.550781"/>
      <use xlink:href="#ArialMT-29" x="329.550781"/>
     </g>
    </g>
   </g>
   <g id="matplotlib.axis_2">
    <g id="ytick_1">
     <g id="line2d_9">
      <defs>
       <path id="m5ff0678ad0" d="M 0 0 
L -5 0 
" style="stroke: #262626; stroke-width: 1.5"/>
      </defs>
      <g>
       <use xlink:href="#m5ff0678ad0" x="85.71" y="371.566726" style="fill: #262626; stroke: #262626; stroke-width: 1.5"/>
      </g>
     </g>
     <g id="text_10">
      <!-- −0.025 -->
      <g style="fill: #262626" transform="translate(30.91625 376.935086) scale(0.15 -0.15)">
       <defs>
        <path id="ArialMT-2e" d="M 581 0 
L 581 641 
L 1222 641 
L 1222 0 
L 581 0 
z
" transform="scale(0.015625)"/>
       </defs>
       <use xlink:href="#ArialMT-2212"/>
       <use xlink:href="#ArialMT-30" x="58.398438"/>
       <use xlink:href="#ArialMT-2e" x="114.013672"/>
       <use xlink:href="#ArialMT-30" x="141.796875"/>
       <use xlink:href="#ArialMT-32" x="197.412109"/>
       <use xlink:href="#ArialMT-35" x="253.027344"/>
      </g>
     </g>
    </g>
    <g id="ytick_2">
     <g id="line2d_10">
      <g>
       <use xlink:href="#m5ff0678ad0" x="85.71" y="322.995203" style="fill: #262626; stroke: #262626; stroke-width: 1.5"/>
      </g>
     </g>
     <g id="text_11">
      <!-- 0.000 -->
      <g style="fill: #262626" transform="translate(39.677188 328.363562) scale(0.15 -0.15)">
       <use xlink:href="#ArialMT-30"/>
       <use xlink:href="#ArialMT-2e" x="55.615234"/>
       <use xlink:href="#ArialMT-30" x="83.398438"/>
       <use xlink:href="#ArialMT-30" x="139.013672"/>
       <use xlink:href="#ArialMT-30" x="194.628906"/>
      </g>
     </g>
    </g>
    <g id="ytick_3">
     <g id="line2d_11">
      <g>
       <use xlink:href="#m5ff0678ad0" x="85.71" y="274.42368" style="fill: #262626; stroke: #262626; stroke-width: 1.5"/>
      </g>
     </g>
     <g id="text_12">
      <!-- 0.025 -->
      <g style="fill: #262626" transform="translate(39.677188 279.792039) scale(0.15 -0.15)">
       <use xlink:href="#ArialMT-30"/>
       <use xlink:href="#ArialMT-2e" x="55.615234"/>
       <use xlink:href="#ArialMT-30" x="83.398438"/>
       <use xlink:href="#ArialMT-32" x="139.013672"/>
       <use xlink:href="#ArialMT-35" x="194.628906"/>
      </g>
     </g>
    </g>
    <g id="ytick_4">
     <g id="line2d_12">
      <g>
       <use xlink:href="#m5ff0678ad0" x="85.71" y="225.852157" style="fill: #262626; stroke: #262626; stroke-width: 1.5"/>
      </g>
     </g>
     <g id="text_13">
      <!-- 0.050 -->
      <g style="fill: #262626" transform="translate(39.677188 231.220516) scale(0.15 -0.15)">
       <use xlink:href="#ArialMT-30"/>
       <use xlink:href="#ArialMT-2e" x="55.615234"/>
       <use xlink:href="#ArialMT-30" x="83.398438"/>
       <use xlink:href="#ArialMT-35" x="139.013672"/>
       <use xlink:href="#ArialMT-30" x="194.628906"/>
      </g>
     </g>
    </g>
    <g id="ytick_5">
     <g id="line2d_13">
      <g>
       <use xlink:href="#m5ff0678ad0" x="85.71" y="177.280633" style="fill: #262626; stroke: #262626; stroke-width: 1.5"/>
      </g>
     </g>
     <g id="text_14">
      <!-- 0.075 -->
      <g style="fill: #262626" transform="translate(39.677188 182.648993) scale(0.15 -0.15)">
       <use xlink:href="#ArialMT-30"/>
       <use xlink:href="#ArialMT-2e" x="55.615234"/>
       <use xlink:href="#ArialMT-30" x="83.398438"/>
       <use xlink:href="#ArialMT-37" x="139.013672"/>
       <use xlink:href="#ArialMT-35" x="194.628906"/>
      </g>
     </g>
    </g>
    <g id="ytick_6">
     <g id="line2d_14">
      <g>
       <use xlink:href="#m5ff0678ad0" x="85.71" y="128.70911" style="fill: #262626; stroke: #262626; stroke-width: 1.5"/>
      </g>
     </g>
     <g id="text_15">
      <!-- 0.100 -->
      <g style="fill: #262626" transform="translate(39.677188 134.07747) scale(0.15 -0.15)">
       <use xlink:href="#ArialMT-30"/>
       <use xlink:href="#ArialMT-2e" x="55.615234"/>
       <use xlink:href="#ArialMT-31" x="83.398438"/>
       <use xlink:href="#ArialMT-30" x="139.013672"/>
       <use xlink:href="#ArialMT-30" x="194.628906"/>
      </g>
     </g>
    </g>
    <g id="ytick_7">
     <g id="line2d_15">
      <g>
       <use xlink:href="#m5ff0678ad0" x="85.71" y="80.137587" style="fill: #262626; stroke: #262626; stroke-width: 1.5"/>
      </g>
     </g>
     <g id="text_16">
      <!-- 0.125 -->
      <g style="fill: #262626" transform="translate(39.677188 85.505946) scale(0.15 -0.15)">
       <use xlink:href="#ArialMT-30"/>
       <use xlink:href="#ArialMT-2e" x="55.615234"/>
       <use xlink:href="#ArialMT-31" x="83.398438"/>
       <use xlink:href="#ArialMT-32" x="139.013672"/>
       <use xlink:href="#ArialMT-35" x="194.628906"/>
      </g>
     </g>
    </g>
    <g id="ytick_8">
     <g id="line2d_16">
      <g>
       <use xlink:href="#m5ff0678ad0" x="85.71" y="31.566064" style="fill: #262626; stroke: #262626; stroke-width: 1.5"/>
      </g>
     </g>
     <g id="text_17">
      <!-- 0.150 -->
      <g style="fill: #262626" transform="translate(39.677188 36.934423) scale(0.15 -0.15)">
       <use xlink:href="#ArialMT-30"/>
       <use xlink:href="#ArialMT-2e" x="55.615234"/>
       <use xlink:href="#ArialMT-31" x="83.398438"/>
       <use xlink:href="#ArialMT-35" x="139.013672"/>
       <use xlink:href="#ArialMT-30" x="194.628906"/>
      </g>
     </g>
    </g>
    <g id="text_18">
     <!-- Divergence -->
     <g style="fill: #262626" transform="translate(23.759219 240.683594) rotate(-90) scale(0.15 -0.15)">
      <defs>
       <path id="ArialMT-44" d="M 494 0 
L 494 4581 
L 2072 4581 
Q 2606 4581 2888 4516 
Q 3281 4425 3559 4188 
Q 3922 3881 4101 3404 
Q 4281 2928 4281 2316 
Q 4281 1794 4159 1391 
Q 4038 988 3847 723 
Q 3656 459 3429 307 
Q 3203 156 2883 78 
Q 2563 0 2147 0 
L 494 0 
z
M 1100 541 
L 2078 541 
Q 2531 541 2789 625 
Q 3047 709 3200 863 
Q 3416 1078 3536 1442 
Q 3656 1806 3656 2325 
Q 3656 3044 3420 3430 
Q 3184 3816 2847 3947 
Q 2603 4041 2063 4041 
L 1100 4041 
L 1100 541 
z
" transform="scale(0.015625)"/>
       <path id="ArialMT-76" d="M 1344 0 
L 81 3319 
L 675 3319 
L 1388 1331 
Q 1503 1009 1600 663 
Q 1675 925 1809 1294 
L 2547 3319 
L 3125 3319 
L 1869 0 
L 1344 0 
z
" transform="scale(0.015625)"/>
       <path id="ArialMT-72" d="M 416 0 
L 416 3319 
L 922 3319 
L 922 2816 
Q 1116 3169 1280 3281 
Q 1444 3394 1641 3394 
Q 1925 3394 2219 3213 
L 2025 2691 
Q 1819 2813 1613 2813 
Q 1428 2813 1281 2702 
Q 1134 2591 1072 2394 
Q 978 2094 978 1738 
L 978 0 
L 416 0 
z
" transform="scale(0.015625)"/>
       <path id="ArialMT-67" d="M 319 -275 
L 866 -356 
Q 900 -609 1056 -725 
Q 1266 -881 1628 -881 
Q 2019 -881 2231 -725 
Q 2444 -569 2519 -288 
Q 2563 -116 2559 434 
Q 2191 0 1641 0 
Q 956 0 581 494 
Q 206 988 206 1678 
Q 206 2153 378 2554 
Q 550 2956 876 3175 
Q 1203 3394 1644 3394 
Q 2231 3394 2613 2919 
L 2613 3319 
L 3131 3319 
L 3131 450 
Q 3131 -325 2973 -648 
Q 2816 -972 2473 -1159 
Q 2131 -1347 1631 -1347 
Q 1038 -1347 672 -1080 
Q 306 -813 319 -275 
z
M 784 1719 
Q 784 1066 1043 766 
Q 1303 466 1694 466 
Q 2081 466 2343 764 
Q 2606 1063 2606 1700 
Q 2606 2309 2336 2618 
Q 2066 2928 1684 2928 
Q 1309 2928 1046 2623 
Q 784 2319 784 1719 
z
" transform="scale(0.015625)"/>
       <path id="ArialMT-6e" d="M 422 0 
L 422 3319 
L 928 3319 
L 928 2847 
Q 1294 3394 1984 3394 
Q 2284 3394 2536 3286 
Q 2788 3178 2913 3003 
Q 3038 2828 3088 2588 
Q 3119 2431 3119 2041 
L 3119 0 
L 2556 0 
L 2556 2019 
Q 2556 2363 2490 2533 
Q 2425 2703 2258 2804 
Q 2091 2906 1866 2906 
Q 1506 2906 1245 2678 
Q 984 2450 984 1813 
L 984 0 
L 422 0 
z
" transform="scale(0.015625)"/>
       <path id="ArialMT-63" d="M 2588 1216 
L 3141 1144 
Q 3050 572 2676 248 
Q 2303 -75 1759 -75 
Q 1078 -75 664 370 
Q 250 816 250 1647 
Q 250 2184 428 2587 
Q 606 2991 970 3192 
Q 1334 3394 1763 3394 
Q 2303 3394 2647 3120 
Q 2991 2847 3088 2344 
L 2541 2259 
Q 2463 2594 2264 2762 
Q 2066 2931 1784 2931 
Q 1359 2931 1093 2626 
Q 828 2322 828 1663 
Q 828 994 1084 691 
Q 1341 388 1753 388 
Q 2084 388 2306 591 
Q 2528 794 2588 1216 
z
" transform="scale(0.015625)"/>
      </defs>
      <use xlink:href="#ArialMT-44"/>
      <use xlink:href="#ArialMT-69" x="72.216797"/>
      <use xlink:href="#ArialMT-76" x="94.433594"/>
      <use xlink:href="#ArialMT-65" x="144.433594"/>
      <use xlink:href="#ArialMT-72" x="200.048828"/>
      <use xlink:href="#ArialMT-67" x="233.349609"/>
      <use xlink:href="#ArialMT-65" x="288.964844"/>
      <use xlink:href="#ArialMT-6e" x="344.580078"/>
      <use xlink:href="#ArialMT-63" x="400.195312"/>
      <use xlink:href="#ArialMT-65" x="450.195312"/>
     </g>
    </g>
   </g>
   <g id="PolyCollection_1">
    <defs>
     <path id="m472f59c2f6" d="M 109.425 -110.135824 
L 109.425 -105.704923 
L 120.455233 -109.578907 
L 131.485465 -107.26388 
L 142.515698 -110.758137 
L 153.54593 -122.361294 
L 164.576163 -187.83727 
L 175.606395 -206.826615 
L 186.636628 -190.026508 
L 197.66686 -235.067411 
L 208.697093 -203.519315 
L 219.727326 -188.345994 
L 230.757558 -248.321559 
L 241.787791 -278.137795 
L 252.818023 -198.150057 
L 263.848256 -145.467368 
L 274.878488 -117.326411 
L 285.908721 -152.202477 
L 296.938953 -232.275946 
L 307.969186 -350.842377 
L 318.999419 -331.056482 
L 330.029651 -289.621752 
L 341.059884 -276.848868 
L 352.090116 -170.081074 
L 363.120349 -264.701162 
L 374.150581 -333.206302 
L 385.180814 -212.272099 
L 396.211047 -152.775943 
L 407.241279 -213.740246 
L 418.271512 -278.62887 
L 429.301744 -266.003288 
L 440.331977 -193.998659 
L 451.362209 -160.895749 
L 462.392442 -151.622083 
L 473.422674 -146.5861 
L 484.452907 -139.109701 
L 495.48314 -142.009478 
L 506.513372 -135.902799 
L 517.543605 -136.503594 
L 528.573837 -139.976172 
L 539.60407 -138.202028 
L 550.634302 -136.831099 
L 561.664535 -139.170979 
L 572.694767 -138.850719 
L 583.725 -119.295111 
L 583.725 -124.787126 
L 583.725 -124.787126 
L 572.694767 -153.586779 
L 561.664535 -153.546843 
L 550.634302 -150.739902 
L 539.60407 -152.074838 
L 528.573837 -154.697222 
L 517.543605 -151.665461 
L 506.513372 -150.819626 
L 495.48314 -157.137191 
L 484.452907 -155.157688 
L 473.422674 -163.001616 
L 462.392442 -168.821146 
L 451.362209 -180.83348 
L 440.331977 -216.294873 
L 429.301744 -293.306916 
L 418.271512 -310.889923 
L 407.241279 -244.270939 
L 396.211047 -182.39758 
L 385.180814 -242.011385 
L 374.150581 -373.04446 
L 363.120349 -296.344639 
L 352.090116 -196.45706 
L 341.059884 -308.865223 
L 330.029651 -331.510199 
L 318.999419 -372.121317 
L 307.969186 -389.059091 
L 296.938953 -266.570352 
L 285.908721 -182.040244 
L 274.878488 -146.355556 
L 263.848256 -171.525726 
L 252.818023 -225.905448 
L 241.787791 -308.766714 
L 230.757558 -273.124471 
L 219.727326 -208.213782 
L 208.697093 -227.532723 
L 197.66686 -267.733687 
L 186.636628 -216.195564 
L 175.606395 -231.733022 
L 164.576163 -214.608997 
L 153.54593 -131.873484 
L 142.515698 -115.178269 
L 131.485465 -110.870421 
L 120.455233 -113.808065 
L 109.425 -110.135824 
z
" style="stroke: #eb6ab0; stroke-opacity: 0.1"/>
    </defs>
    <g clip-path="url(#paae9b1af03)">
     <use xlink:href="#m472f59c2f6" x="0" y="432" style="fill: #eb6ab0; fill-opacity: 0.1; stroke: #eb6ab0; stroke-opacity: 0.1"/>
    </g>
   </g>
   <g id="PolyCollection_2">
    <defs>
     <path id="m8e5b02deab" d="M 109.425 -108.448733 
L 109.425 -107.023497 
L 120.455233 -106.771975 
L 131.485465 -107.997524 
L 142.515698 -108.834736 
L 153.54593 -123.171219 
L 164.576163 -152.546037 
L 175.606395 -152.575529 
L 186.636628 -153.433911 
L 197.66686 -166.729162 
L 208.697093 -174.805889 
L 219.727326 -165.024121 
L 230.757558 -142.005964 
L 241.787791 -138.672828 
L 252.818023 -155.634108 
L 263.848256 -153.601919 
L 274.878488 -165.394632 
L 285.908721 -171.745275 
L 296.938953 -177.972558 
L 307.969186 -175.727371 
L 318.999419 -178.37045 
L 330.029651 -195.298525 
L 341.059884 -187.39393 
L 352.090116 -165.48035 
L 363.120349 -166.139463 
L 374.150581 -182.634251 
L 385.180814 -170.317803 
L 396.211047 -158.325302 
L 407.241279 -151.075555 
L 418.271512 -152.231641 
L 429.301744 -154.17352 
L 440.331977 -144.033766 
L 451.362209 -135.060867 
L 462.392442 -133.753539 
L 473.422674 -131.927049 
L 484.452907 -127.691097 
L 495.48314 -125.839616 
L 506.513372 -123.585599 
L 517.543605 -124.194063 
L 528.573837 -124.726919 
L 539.60407 -124.354411 
L 550.634302 -125.22593 
L 561.664535 -125.35285 
L 572.694767 -125.099725 
L 583.725 -114.538274 
L 583.725 -117.615689 
L 583.725 -117.615689 
L 572.694767 -134.03319 
L 561.664535 -134.228628 
L 550.634302 -133.823457 
L 539.60407 -133.199199 
L 528.573837 -133.638898 
L 517.543605 -132.986876 
L 506.513372 -132.261347 
L 495.48314 -134.415593 
L 484.452907 -136.285794 
L 473.422674 -140.454781 
L 462.392442 -142.632597 
L 451.362209 -145.022216 
L 440.331977 -154.969172 
L 429.301744 -165.362563 
L 418.271512 -165.271551 
L 407.241279 -162.975148 
L 396.211047 -169.67408 
L 385.180814 -180.477377 
L 374.150581 -194.680956 
L 363.120349 -178.592338 
L 352.090116 -176.804508 
L 341.059884 -199.964026 
L 330.029651 -207.574714 
L 318.999419 -191.09628 
L 307.969186 -188.853967 
L 296.938953 -191.372449 
L 285.908721 -184.488293 
L 274.878488 -176.602963 
L 263.848256 -164.015151 
L 252.818023 -165.877701 
L 241.787791 -150.760241 
L 230.757558 -152.958464 
L 219.727326 -175.306934 
L 208.697093 -185.402201 
L 197.66686 -177.581946 
L 186.636628 -165.048984 
L 175.606395 -164.02879 
L 164.576163 -162.283279 
L 153.54593 -126.673378 
L 142.515698 -110.226975 
L 131.485465 -109.507046 
L 120.455233 -108.076473 
L 109.425 -108.448733 
z
" style="stroke: #eb6ab0; stroke-opacity: 0.1"/>
    </defs>
    <g clip-path="url(#paae9b1af03)">
     <use xlink:href="#m8e5b02deab" x="0" y="432" style="fill: #eb6ab0; fill-opacity: 0.1; stroke: #eb6ab0; stroke-opacity: 0.1"/>
    </g>
   </g>
   <g id="PathCollection_1">
    <defs>
     <path id="mf56447ef1f" d="M 0 -3 
L -0.673542 -0.927051 
L -2.85317 -0.927051 
L -1.089814 0.354102 
L -1.763356 2.427051 
L -0 1.145898 
L 1.763356 2.427051 
L 1.089814 0.354102 
L 2.85317 -0.927051 
L 0.673542 -0.927051 
z
" style="stroke: #eb6ab0"/>
    </defs>
    <g clip-path="url(#paae9b1af03)">
     <use xlink:href="#mf56447ef1f" x="175.606395" y="342.423812" style="fill: #eb6ab0; stroke: #eb6ab0"/>
     <use xlink:href="#mf56447ef1f" x="197.66686" y="342.423812" style="fill: #eb6ab0; stroke: #eb6ab0"/>
     <use xlink:href="#mf56447ef1f" x="230.757558" y="342.423812" style="fill: #eb6ab0; stroke: #eb6ab0"/>
     <use xlink:href="#mf56447ef1f" x="241.787791" y="342.423812" style="fill: #eb6ab0; stroke: #eb6ab0"/>
     <use xlink:href="#mf56447ef1f" x="252.818023" y="342.423812" style="fill: #eb6ab0; stroke: #eb6ab0"/>
     <use xlink:href="#mf56447ef1f" x="296.938953" y="342.423812" style="fill: #eb6ab0; stroke: #eb6ab0"/>
     <use xlink:href="#mf56447ef1f" x="307.969186" y="342.423812" style="fill: #eb6ab0; stroke: #eb6ab0"/>
     <use xlink:href="#mf56447ef1f" x="318.999419" y="342.423812" style="fill: #eb6ab0; stroke: #eb6ab0"/>
     <use xlink:href="#mf56447ef1f" x="330.029651" y="342.423812" style="fill: #eb6ab0; stroke: #eb6ab0"/>
     <use xlink:href="#mf56447ef1f" x="341.059884" y="342.423812" style="fill: #eb6ab0; stroke: #eb6ab0"/>
     <use xlink:href="#mf56447ef1f" x="363.120349" y="342.423812" style="fill: #eb6ab0; stroke: #eb6ab0"/>
     <use xlink:href="#mf56447ef1f" x="374.150581" y="342.423812" style="fill: #eb6ab0; stroke: #eb6ab0"/>
     <use xlink:href="#mf56447ef1f" x="385.180814" y="342.423812" style="fill: #eb6ab0; stroke: #eb6ab0"/>
     <use xlink:href="#mf56447ef1f" x="407.241279" y="342.423812" style="fill: #eb6ab0; stroke: #eb6ab0"/>
     <use xlink:href="#mf56447ef1f" x="418.271512" y="342.423812" style="fill: #eb6ab0; stroke: #eb6ab0"/>
     <use xlink:href="#mf56447ef1f" x="429.301744" y="342.423812" style="fill: #eb6ab0; stroke: #eb6ab0"/>
     <use xlink:href="#mf56447ef1f" x="440.331977" y="342.423812" style="fill: #eb6ab0; stroke: #eb6ab0"/>
    </g>
   </g>
   <g id="PolyCollection_3">
    <defs>
     <path id="m31edaba958" d="M 109.425 -138.280719 
L 109.425 -108.937005 
L 120.455233 -95.453694 
L 131.485465 -107.238775 
L 142.515698 -101.617279 
L 153.54593 -106.061583 
L 164.576163 -116.95846 
L 175.606395 -144.634008 
L 186.636628 -162.111836 
L 197.66686 -174.728726 
L 208.697093 -163.747054 
L 219.727326 -170.912082 
L 230.757558 -174.352009 
L 241.787791 -164.455173 
L 252.818023 -161.469032 
L 263.848256 -164.148019 
L 274.878488 -147.221142 
L 285.908721 -141.989205 
L 296.938953 -139.794134 
L 307.969186 -154.017274 
L 318.999419 -168.558737 
L 330.029651 -162.620438 
L 341.059884 -175.567546 
L 352.090116 -190.677644 
L 363.120349 -182.194153 
L 374.150581 -182.758399 
L 385.180814 -172.900848 
L 396.211047 -159.142797 
L 407.241279 -154.688934 
L 418.271512 -156.8016 
L 429.301744 -150.331966 
L 440.331977 -136.177593 
L 451.362209 -125.40519 
L 462.392442 -130.364647 
L 473.422674 -116.332887 
L 484.452907 -105.32356 
L 495.48314 -106.387656 
L 506.513372 -87.598976 
L 517.543605 -70.251597 
L 528.573837 -69.440909 
L 539.60407 -73.430482 
L 550.634302 -75.362308 
L 561.664535 -87.42104 
L 572.694767 -96.821942 
L 583.725 -103.927032 
L 583.725 -117.0529 
L 583.725 -117.0529 
L 572.694767 -134.06065 
L 561.664535 -122.081024 
L 550.634302 -109.703405 
L 539.60407 -106.773224 
L 528.573837 -105.508626 
L 517.543605 -109.028965 
L 506.513372 -123.003061 
L 495.48314 -140.871432 
L 484.452907 -139.780384 
L 473.422674 -151.553927 
L 462.392442 -165.487377 
L 451.362209 -162.144503 
L 440.331977 -173.916238 
L 429.301744 -187.705306 
L 418.271512 -191.967252 
L 407.241279 -189.59076 
L 396.211047 -195.346037 
L 385.180814 -210.459053 
L 374.150581 -218.895723 
L 363.120349 -218.414709 
L 352.090116 -227.80985 
L 341.059884 -210.662054 
L 330.029651 -196.570955 
L 318.999419 -203.512753 
L 307.969186 -187.780215 
L 296.938953 -172.064208 
L 285.908721 -173.040259 
L 274.878488 -180.583496 
L 263.848256 -199.496499 
L 252.818023 -197.335717 
L 241.787791 -199.738569 
L 230.757558 -209.425216 
L 219.727326 -207.885775 
L 208.697093 -200.974794 
L 197.66686 -214.393462 
L 186.636628 -204.611066 
L 175.606395 -189.535949 
L 164.576163 -161.700827 
L 153.54593 -149.730302 
L 142.515698 -148.724449 
L 131.485465 -154.16294 
L 120.455233 -136.125789 
L 109.425 -138.280719 
z
" style="stroke: #8b0a50; stroke-opacity: 0.1"/>
    </defs>
    <g clip-path="url(#paae9b1af03)">
     <use xlink:href="#m31edaba958" x="0" y="432" style="fill: #8b0a50; fill-opacity: 0.1; stroke: #8b0a50; stroke-opacity: 0.1"/>
    </g>
   </g>
   <g id="PolyCollection_4">
    <defs>
     <path id="m72f17dde7a" d="M 109.425 -120.739656 
L 109.425 -105.585724 
L 120.455233 -112.015683 
L 131.485465 -119.305247 
L 142.515698 -125.886308 
L 153.54593 -145.472072 
L 164.576163 -162.076407 
L 175.606395 -174.425357 
L 186.636628 -172.626915 
L 197.66686 -179.035452 
L 208.697093 -180.206669 
L 219.727326 -180.434486 
L 230.757558 -178.293552 
L 241.787791 -175.598143 
L 252.818023 -169.97161 
L 263.848256 -166.324541 
L 274.878488 -166.358817 
L 285.908721 -165.002482 
L 296.938953 -160.253591 
L 307.969186 -154.239238 
L 318.999419 -150.123358 
L 330.029651 -151.347756 
L 341.059884 -154.401991 
L 352.090116 -154.264265 
L 363.120349 -157.026784 
L 374.150581 -160.011828 
L 385.180814 -159.235596 
L 396.211047 -153.079271 
L 407.241279 -153.759742 
L 418.271512 -150.92378 
L 429.301744 -148.037428 
L 440.331977 -145.104345 
L 451.362209 -140.704773 
L 462.392442 -137.172168 
L 473.422674 -130.901982 
L 484.452907 -124.55006 
L 495.48314 -118.553665 
L 506.513372 -115.957994 
L 517.543605 -116.465365 
L 528.573837 -117.11839 
L 539.60407 -119.241939 
L 550.634302 -117.925691 
L 561.664535 -121.749882 
L 572.694767 -120.595525 
L 583.725 -111.131827 
L 583.725 -116.852391 
L 583.725 -116.852391 
L 572.694767 -136.724885 
L 561.664535 -138.163169 
L 550.634302 -133.606447 
L 539.60407 -132.630563 
L 528.573837 -130.116924 
L 517.543605 -130.719603 
L 506.513372 -130.761578 
L 495.48314 -132.414058 
L 484.452907 -136.894673 
L 473.422674 -142.51957 
L 462.392442 -149.08561 
L 451.362209 -152.46935 
L 440.331977 -156.040795 
L 429.301744 -158.700624 
L 418.271512 -162.206984 
L 407.241279 -165.539003 
L 396.211047 -165.720444 
L 385.180814 -173.01001 
L 374.150581 -174.388396 
L 363.120349 -171.09702 
L 352.090116 -167.755519 
L 341.059884 -167.008301 
L 330.029651 -163.702611 
L 318.999419 -162.307328 
L 307.969186 -166.459701 
L 296.938953 -172.672264 
L 285.908721 -177.903667 
L 274.878488 -181.243067 
L 263.848256 -181.451947 
L 252.818023 -185.659837 
L 241.787791 -191.073324 
L 230.757558 -193.520534 
L 219.727326 -195.925544 
L 208.697093 -196.564521 
L 197.66686 -196.022489 
L 186.636628 -189.040872 
L 175.606395 -194.242226 
L 164.576163 -181.631723 
L 153.54593 -163.566734 
L 142.515698 -144.661871 
L 131.485465 -137.536461 
L 120.455233 -132.375408 
L 109.425 -120.739656 
z
" style="stroke: #8b0a50; stroke-opacity: 0.1"/>
    </defs>
    <g clip-path="url(#paae9b1af03)">
     <use xlink:href="#m72f17dde7a" x="0" y="432" style="fill: #8b0a50; fill-opacity: 0.1; stroke: #8b0a50; stroke-opacity: 0.1"/>
    </g>
   </g>
   <g id="PathCollection_2"/>
   <g id="line2d_17">
    <path d="M 109.425 324.079627 
L 120.455233 320.306514 
L 131.485465 322.932849 
L 142.515698 319.031797 
L 153.54593 304.882611 
L 164.576163 230.776866 
L 175.606395 212.720182 
L 186.636628 228.888964 
L 197.66686 180.599451 
L 208.697093 216.473981 
L 219.727326 233.720112 
L 230.757558 171.276985 
L 241.787791 138.547745 
L 252.818023 219.972248 
L 263.848256 273.503453 
L 274.878488 300.159016 
L 285.908721 264.878639 
L 296.938953 182.576851 
L 307.969186 62.049266 
L 318.999419 80.411101 
L 330.029651 121.434025 
L 341.059884 139.142954 
L 352.090116 248.730933 
L 363.120349 151.477099 
L 374.150581 78.874619 
L 385.180814 204.858258 
L 396.211047 264.413239 
L 407.241279 202.994407 
L 418.271512 137.240604 
L 429.301744 152.344898 
L 440.331977 226.853234 
L 451.362209 261.135386 
L 462.392442 271.778385 
L 473.422674 277.206142 
L 484.452907 284.866306 
L 495.48314 282.426666 
L 506.513372 288.638788 
L 517.543605 287.915472 
L 528.573837 284.663303 
L 539.60407 286.861567 
L 550.634302 288.2145 
L 561.664535 285.641089 
L 572.694767 285.781251 
L 583.725 309.958882 
" clip-path="url(#paae9b1af03)" style="fill: none; stroke: #eb6ab0; stroke-width: 2; stroke-linecap: round"/>
   </g>
   <g id="line2d_18">
    <path d="M 109.425 324.263885 
L 120.455233 324.575776 
L 131.485465 323.247715 
L 142.515698 322.469145 
L 153.54593 307.077701 
L 164.576163 274.585342 
L 175.606395 273.697841 
L 186.636628 272.758552 
L 197.66686 259.844446 
L 208.697093 251.895955 
L 219.727326 261.834472 
L 230.757558 284.517786 
L 241.787791 287.283465 
L 252.818023 271.244095 
L 263.848256 273.191465 
L 274.878488 261.001202 
L 285.908721 253.883216 
L 296.938953 247.327496 
L 307.969186 249.709331 
L 318.999419 247.266635 
L 330.029651 230.563381 
L 341.059884 238.321022 
L 352.090116 260.857571 
L 363.120349 259.6341 
L 374.150581 243.342396 
L 385.180814 256.60241 
L 396.211047 268.000309 
L 407.241279 274.974648 
L 418.271512 273.248404 
L 429.301744 272.231959 
L 440.331977 282.498531 
L 451.362209 291.958459 
L 462.392442 293.806932 
L 473.422674 295.809085 
L 484.452907 300.011554 
L 495.48314 301.872395 
L 506.513372 304.076527 
L 517.543605 303.40953 
L 528.573837 302.817092 
L 539.60407 303.223195 
L 550.634302 302.475307 
L 561.664535 302.209261 
L 572.694767 302.433542 
L 583.725 315.923018 
" clip-path="url(#paae9b1af03)" style="fill: none; stroke-dasharray: 7.4,3.2; stroke-dashoffset: 0; stroke: #eb6ab0; stroke-width: 2"/>
   </g>
   <g id="line2d_19">
    <path d="M 159.061047 378.54 
L 159.061047 26.96 
" clip-path="url(#paae9b1af03)" style="fill: none; stroke-dasharray: 5.55,2.4; stroke-dashoffset: 0; stroke: #1a1a1a; stroke-width: 1.5"/>
   </g>
   <g id="line2d_20">
    <path d="M 434.81686 378.54 
L 434.81686 26.96 
" clip-path="url(#paae9b1af03)" style="fill: none; stroke-dasharray: 5.55,2.4; stroke-dashoffset: 0; stroke: #1a1a1a; stroke-width: 1.5"/>
   </g>
   <g id="line2d_21">
    <path d="M 109.425 308.391138 
L 120.455233 316.210259 
L 131.485465 301.299143 
L 142.515698 306.829136 
L 153.54593 304.104057 
L 164.576163 292.670356 
L 175.606395 264.915022 
L 186.636628 248.638549 
L 197.66686 237.438906 
L 208.697093 249.639076 
L 219.727326 242.601071 
L 230.757558 240.111387 
L 241.787791 249.903129 
L 252.818023 252.597626 
L 263.848256 250.177741 
L 274.878488 268.097681 
L 285.908721 274.485268 
L 296.938953 276.070829 
L 307.969186 261.101256 
L 318.999419 245.964255 
L 330.029651 252.404304 
L 341.059884 238.8852 
L 352.090116 222.756253 
L 363.120349 231.695569 
L 374.150581 231.172939 
L 385.180814 240.32005 
L 396.211047 254.755583 
L 407.241279 259.860153 
L 418.271512 257.615574 
L 429.301744 262.981364 
L 440.331977 276.953084 
L 451.362209 288.225154 
L 462.392442 284.073988 
L 473.422674 298.056593 
L 484.452907 309.448028 
L 495.48314 308.370456 
L 506.513372 326.698982 
L 517.543605 342.359719 
L 528.573837 344.525233 
L 539.60407 341.898147 
L 550.634302 339.467144 
L 561.664535 327.248968 
L 572.694767 316.558704 
L 583.725 321.510034 
" clip-path="url(#paae9b1af03)" style="fill: none; stroke: #8b0a50; stroke-width: 2; stroke-linecap: round"/>
   </g>
   <g id="line2d_22">
    <path d="M 109.425 318.83731 
L 120.455233 309.804454 
L 131.485465 303.579146 
L 142.515698 296.72591 
L 153.54593 277.480597 
L 164.576163 260.145935 
L 175.606395 247.666208 
L 186.636628 251.166106 
L 197.66686 244.47103 
L 208.697093 243.614405 
L 219.727326 243.819985 
L 230.757558 246.092957 
L 241.787791 248.664267 
L 252.818023 254.184277 
L 263.848256 258.111756 
L 274.878488 258.199058 
L 285.908721 260.546925 
L 296.938953 265.537072 
L 307.969186 271.65053 
L 318.999419 275.784657 
L 330.029651 274.474816 
L 341.059884 271.294854 
L 352.090116 270.990108 
L 363.120349 267.938098 
L 374.150581 264.799888 
L 385.180814 265.877197 
L 396.211047 272.600142 
L 407.241279 272.350628 
L 418.271512 275.434618 
L 429.301744 278.630974 
L 440.331977 281.42743 
L 451.362209 285.412939 
L 462.392442 288.871111 
L 473.422674 295.289224 
L 484.452907 301.277633 
L 495.48314 306.516139 
L 506.513372 308.640214 
L 517.543605 308.407516 
L 528.573837 308.382343 
L 539.60407 306.063749 
L 550.634302 306.233931 
L 561.664535 302.043475 
L 572.694767 303.339795 
L 583.725 318.007891 
" clip-path="url(#paae9b1af03)" style="fill: none; stroke-dasharray: 7.4,3.2; stroke-dashoffset: 0; stroke: #8b0a50; stroke-width: 2"/>
   </g>
   <g id="line2d_23">
    <path d="M 159.061047 378.54 
L 159.061047 26.96 
" clip-path="url(#paae9b1af03)" style="fill: none; stroke-dasharray: 5.55,2.4; stroke-dashoffset: 0; stroke: #1a1a1a; stroke-width: 1.5"/>
   </g>
   <g id="line2d_24">
    <path d="M 434.81686 378.54 
L 434.81686 26.96 
" clip-path="url(#paae9b1af03)" style="fill: none; stroke-dasharray: 5.55,2.4; stroke-dashoffset: 0; stroke: #1a1a1a; stroke-width: 1.5"/>
   </g>
   <g id="patch_3">
    <path d="M 85.71 378.54 
L 85.71 26.96 
" style="fill: none; stroke: #000000; stroke-width: 1.5; stroke-linejoin: miter; stroke-linecap: square"/>
   </g>
   <g id="patch_4">
    <path d="M 85.71 378.54 
L 607.44 378.54 
" style="fill: none; stroke: #000000; stroke-width: 1.5; stroke-linejoin: miter; stroke-linecap: square"/>
   </g>
   <g id="text_19">
    <!-- Divergence Comparison: Original vs Shuffled -->
    <g style="fill: #262626" transform="translate(197.0625 20.96) scale(0.15 -0.15)">
     <defs>
      <path id="ArialMT-43" d="M 3763 1606 
L 4369 1453 
Q 4178 706 3683 314 
Q 3188 -78 2472 -78 
Q 1731 -78 1267 223 
Q 803 525 561 1097 
Q 319 1669 319 2325 
Q 319 3041 592 3573 
Q 866 4106 1370 4382 
Q 1875 4659 2481 4659 
Q 3169 4659 3637 4309 
Q 4106 3959 4291 3325 
L 3694 3184 
Q 3534 3684 3231 3912 
Q 2928 4141 2469 4141 
Q 1941 4141 1586 3887 
Q 1231 3634 1087 3207 
Q 944 2781 944 2328 
Q 944 1744 1114 1308 
Q 1284 872 1643 656 
Q 2003 441 2422 441 
Q 2931 441 3284 734 
Q 3638 1028 3763 1606 
z
" transform="scale(0.015625)"/>
      <path id="ArialMT-6f" d="M 213 1659 
Q 213 2581 725 3025 
Q 1153 3394 1769 3394 
Q 2453 3394 2887 2945 
Q 3322 2497 3322 1706 
Q 3322 1066 3130 698 
Q 2938 331 2570 128 
Q 2203 -75 1769 -75 
Q 1072 -75 642 372 
Q 213 819 213 1659 
z
M 791 1659 
Q 791 1022 1069 705 
Q 1347 388 1769 388 
Q 2188 388 2466 706 
Q 2744 1025 2744 1678 
Q 2744 2294 2464 2611 
Q 2184 2928 1769 2928 
Q 1347 2928 1069 2612 
Q 791 2297 791 1659 
z
" transform="scale(0.015625)"/>
      <path id="ArialMT-70" d="M 422 -1272 
L 422 3319 
L 934 3319 
L 934 2888 
Q 1116 3141 1344 3267 
Q 1572 3394 1897 3394 
Q 2322 3394 2647 3175 
Q 2972 2956 3137 2557 
Q 3303 2159 3303 1684 
Q 3303 1175 3120 767 
Q 2938 359 2589 142 
Q 2241 -75 1856 -75 
Q 1575 -75 1351 44 
Q 1128 163 984 344 
L 984 -1272 
L 422 -1272 
z
M 931 1641 
Q 931 1000 1190 694 
Q 1450 388 1819 388 
Q 2194 388 2461 705 
Q 2728 1022 2728 1688 
Q 2728 2322 2467 2637 
Q 2206 2953 1844 2953 
Q 1484 2953 1207 2617 
Q 931 2281 931 1641 
z
" transform="scale(0.015625)"/>
      <path id="ArialMT-61" d="M 2588 409 
Q 2275 144 1986 34 
Q 1697 -75 1366 -75 
Q 819 -75 525 192 
Q 231 459 231 875 
Q 231 1119 342 1320 
Q 453 1522 633 1644 
Q 813 1766 1038 1828 
Q 1203 1872 1538 1913 
Q 2219 1994 2541 2106 
Q 2544 2222 2544 2253 
Q 2544 2597 2384 2738 
Q 2169 2928 1744 2928 
Q 1347 2928 1158 2789 
Q 969 2650 878 2297 
L 328 2372 
Q 403 2725 575 2942 
Q 747 3159 1072 3276 
Q 1397 3394 1825 3394 
Q 2250 3394 2515 3294 
Q 2781 3194 2906 3042 
Q 3031 2891 3081 2659 
Q 3109 2516 3109 2141 
L 3109 1391 
Q 3109 606 3145 398 
Q 3181 191 3288 0 
L 2700 0 
Q 2613 175 2588 409 
z
M 2541 1666 
Q 2234 1541 1622 1453 
Q 1275 1403 1131 1340 
Q 988 1278 909 1158 
Q 831 1038 831 891 
Q 831 666 1001 516 
Q 1172 366 1500 366 
Q 1825 366 2078 508 
Q 2331 650 2450 897 
Q 2541 1088 2541 1459 
L 2541 1666 
z
" transform="scale(0.015625)"/>
      <path id="ArialMT-3a" d="M 578 2678 
L 578 3319 
L 1219 3319 
L 1219 2678 
L 578 2678 
z
M 578 0 
L 578 641 
L 1219 641 
L 1219 0 
L 578 0 
z
" transform="scale(0.015625)"/>
      <path id="ArialMT-4f" d="M 309 2231 
Q 309 3372 921 4017 
Q 1534 4663 2503 4663 
Q 3138 4663 3647 4359 
Q 4156 4056 4423 3514 
Q 4691 2972 4691 2284 
Q 4691 1588 4409 1038 
Q 4128 488 3612 205 
Q 3097 -78 2500 -78 
Q 1853 -78 1343 234 
Q 834 547 571 1087 
Q 309 1628 309 2231 
z
M 934 2222 
Q 934 1394 1379 917 
Q 1825 441 2497 441 
Q 3181 441 3623 922 
Q 4066 1403 4066 2288 
Q 4066 2847 3877 3264 
Q 3688 3681 3323 3911 
Q 2959 4141 2506 4141 
Q 1863 4141 1398 3698 
Q 934 3256 934 2222 
z
" transform="scale(0.015625)"/>
      <path id="ArialMT-6c" d="M 409 0 
L 409 4581 
L 972 4581 
L 972 0 
L 409 0 
z
" transform="scale(0.015625)"/>
      <path id="ArialMT-53" d="M 288 1472 
L 859 1522 
Q 900 1178 1048 958 
Q 1197 738 1509 602 
Q 1822 466 2213 466 
Q 2559 466 2825 569 
Q 3091 672 3220 851 
Q 3350 1031 3350 1244 
Q 3350 1459 3225 1620 
Q 3100 1781 2813 1891 
Q 2628 1963 1997 2114 
Q 1366 2266 1113 2400 
Q 784 2572 623 2826 
Q 463 3081 463 3397 
Q 463 3744 659 4045 
Q 856 4347 1234 4503 
Q 1613 4659 2075 4659 
Q 2584 4659 2973 4495 
Q 3363 4331 3572 4012 
Q 3781 3694 3797 3291 
L 3216 3247 
Q 3169 3681 2898 3903 
Q 2628 4125 2100 4125 
Q 1550 4125 1298 3923 
Q 1047 3722 1047 3438 
Q 1047 3191 1225 3031 
Q 1400 2872 2139 2705 
Q 2878 2538 3153 2413 
Q 3553 2228 3743 1945 
Q 3934 1663 3934 1294 
Q 3934 928 3725 604 
Q 3516 281 3123 101 
Q 2731 -78 2241 -78 
Q 1619 -78 1198 103 
Q 778 284 539 648 
Q 300 1013 288 1472 
z
" transform="scale(0.015625)"/>
      <path id="ArialMT-68" d="M 422 0 
L 422 4581 
L 984 4581 
L 984 2938 
Q 1378 3394 1978 3394 
Q 2347 3394 2619 3248 
Q 2891 3103 3008 2847 
Q 3125 2591 3125 2103 
L 3125 0 
L 2563 0 
L 2563 2103 
Q 2563 2525 2380 2717 
Q 2197 2909 1863 2909 
Q 1613 2909 1392 2779 
Q 1172 2650 1078 2428 
Q 984 2206 984 1816 
L 984 0 
L 422 0 
z
" transform="scale(0.015625)"/>
      <path id="ArialMT-75" d="M 2597 0 
L 2597 488 
Q 2209 -75 1544 -75 
Q 1250 -75 995 37 
Q 741 150 617 320 
Q 494 491 444 738 
Q 409 903 409 1263 
L 409 3319 
L 972 3319 
L 972 1478 
Q 972 1038 1006 884 
Q 1059 663 1231 536 
Q 1403 409 1656 409 
Q 1909 409 2131 539 
Q 2353 669 2445 892 
Q 2538 1116 2538 1541 
L 2538 3319 
L 3100 3319 
L 3100 0 
L 2597 0 
z
" transform="scale(0.015625)"/>
      <path id="ArialMT-66" d="M 556 0 
L 556 2881 
L 59 2881 
L 59 3319 
L 556 3319 
L 556 3672 
Q 556 4006 616 4169 
Q 697 4388 901 4523 
Q 1106 4659 1475 4659 
Q 1713 4659 2000 4603 
L 1916 4113 
Q 1741 4144 1584 4144 
Q 1328 4144 1222 4034 
Q 1116 3925 1116 3625 
L 1116 3319 
L 1763 3319 
L 1763 2881 
L 1116 2881 
L 1116 0 
L 556 0 
z
" transform="scale(0.015625)"/>
      <path id="ArialMT-64" d="M 2575 0 
L 2575 419 
Q 2259 -75 1647 -75 
Q 1250 -75 917 144 
Q 584 363 401 755 
Q 219 1147 219 1656 
Q 219 2153 384 2558 
Q 550 2963 881 3178 
Q 1213 3394 1622 3394 
Q 1922 3394 2156 3267 
Q 2391 3141 2538 2938 
L 2538 4581 
L 3097 4581 
L 3097 0 
L 2575 0 
z
M 797 1656 
Q 797 1019 1065 703 
Q 1334 388 1700 388 
Q 2069 388 2326 689 
Q 2584 991 2584 1609 
Q 2584 2291 2321 2609 
Q 2059 2928 1675 2928 
Q 1300 2928 1048 2622 
Q 797 2316 797 1656 
z
" transform="scale(0.015625)"/>
     </defs>
     <use xlink:href="#ArialMT-44"/>
     <use xlink:href="#ArialMT-69" x="72.216797"/>
     <use xlink:href="#ArialMT-76" x="94.433594"/>
     <use xlink:href="#ArialMT-65" x="144.433594"/>
     <use xlink:href="#ArialMT-72" x="200.048828"/>
     <use xlink:href="#ArialMT-67" x="233.349609"/>
     <use xlink:href="#ArialMT-65" x="288.964844"/>
     <use xlink:href="#ArialMT-6e" x="344.580078"/>
     <use xlink:href="#ArialMT-63" x="400.195312"/>
     <use xlink:href="#ArialMT-65" x="450.195312"/>
     <use xlink:href="#ArialMT-20" x="505.810547"/>
     <use xlink:href="#ArialMT-43" x="533.59375"/>
     <use xlink:href="#ArialMT-6f" x="605.810547"/>
     <use xlink:href="#ArialMT-6d" x="661.425781"/>
     <use xlink:href="#ArialMT-70" x="744.726562"/>
     <use xlink:href="#ArialMT-61" x="800.341797"/>
     <use xlink:href="#ArialMT-72" x="855.957031"/>
     <use xlink:href="#ArialMT-69" x="889.257812"/>
     <use xlink:href="#ArialMT-73" x="911.474609"/>
     <use xlink:href="#ArialMT-6f" x="961.474609"/>
     <use xlink:href="#ArialMT-6e" x="1017.089844"/>
     <use xlink:href="#ArialMT-3a" x="1072.705078"/>
     <use xlink:href="#ArialMT-20" x="1100.488281"/>
     <use xlink:href="#ArialMT-4f" x="1128.271484"/>
     <use xlink:href="#ArialMT-72" x="1206.054688"/>
     <use xlink:href="#ArialMT-69" x="1239.355469"/>
     <use xlink:href="#ArialMT-67" x="1261.572266"/>
     <use xlink:href="#ArialMT-69" x="1317.1875"/>
     <use xlink:href="#ArialMT-6e" x="1339.404297"/>
     <use xlink:href="#ArialMT-61" x="1395.019531"/>
     <use xlink:href="#ArialMT-6c" x="1450.634766"/>
     <use xlink:href="#ArialMT-20" x="1472.851562"/>
     <use xlink:href="#ArialMT-76" x="1500.634766"/>
     <use xlink:href="#ArialMT-73" x="1550.634766"/>
     <use xlink:href="#ArialMT-20" x="1600.634766"/>
     <use xlink:href="#ArialMT-53" x="1628.417969"/>
     <use xlink:href="#ArialMT-68" x="1695.117188"/>
     <use xlink:href="#ArialMT-75" x="1750.732422"/>
     <use xlink:href="#ArialMT-66" x="1806.347656"/>
     <use xlink:href="#ArialMT-66" x="1832.380859"/>
     <use xlink:href="#ArialMT-6c" x="1860.164062"/>
     <use xlink:href="#ArialMT-65" x="1882.380859"/>
     <use xlink:href="#ArialMT-64" x="1937.996094"/>
    </g>
   </g>
   <g id="legend_1">
    <g id="patch_5">
     <path d="M 615.14 259.415469 
L 704.741875 259.415469 
Q 706.941875 259.415469 706.941875 257.215469 
L 706.941875 148.284531 
Q 706.941875 146.084531 704.741875 146.084531 
L 615.14 146.084531 
Q 612.94 146.084531 612.94 148.284531 
L 612.94 257.215469 
Q 612.94 259.415469 615.14 259.415469 
z
" style="fill: #ffffff; opacity: 0.8; stroke: #cccccc; stroke-linejoin: miter"/>
    </g>
    <g id="line2d_25">
     <path d="M 617.34 154.649062 
L 628.34 154.649062 
L 639.34 154.649062 
" style="fill: none; stroke: #eb6ab0; stroke-width: 2; stroke-linecap: round"/>
    </g>
    <g id="text_20">
     <!-- Original -->
     <g style="fill: #262626" transform="translate(648.14 158.499062) scale(0.11 -0.11)">
      <use xlink:href="#ArialMT-4f"/>
      <use xlink:href="#ArialMT-72" x="77.783203"/>
      <use xlink:href="#ArialMT-69" x="111.083984"/>
      <use xlink:href="#ArialMT-67" x="133.300781"/>
      <use xlink:href="#ArialMT-69" x="188.916016"/>
      <use xlink:href="#ArialMT-6e" x="211.132812"/>
      <use xlink:href="#ArialMT-61" x="266.748047"/>
      <use xlink:href="#ArialMT-6c" x="322.363281"/>
     </g>
    </g>
    <g id="line2d_26">
     <path d="M 617.34 170.47875 
L 628.34 170.47875 
L 639.34 170.47875 
" style="fill: none; stroke-dasharray: 7.4,3.2; stroke-dashoffset: 0; stroke: #eb6ab0; stroke-width: 2"/>
    </g>
    <g id="text_21">
     <!-- Original -->
     <g style="fill: #262626" transform="translate(648.14 174.32875) scale(0.11 -0.11)">
      <use xlink:href="#ArialMT-4f"/>
      <use xlink:href="#ArialMT-72" x="77.783203"/>
      <use xlink:href="#ArialMT-69" x="111.083984"/>
      <use xlink:href="#ArialMT-67" x="133.300781"/>
      <use xlink:href="#ArialMT-69" x="188.916016"/>
      <use xlink:href="#ArialMT-6e" x="211.132812"/>
      <use xlink:href="#ArialMT-61" x="266.748047"/>
      <use xlink:href="#ArialMT-6c" x="322.363281"/>
     </g>
    </g>
    <g id="PathCollection_3">
     <g>
      <use xlink:href="#mf56447ef1f" x="628.34" y="187.162656" style="fill: #eb6ab0; stroke: #eb6ab0"/>
     </g>
    </g>
    <g id="text_22">
     <!-- p &lt; 0.001 -->
     <g style="fill: #262626" transform="translate(648.14 190.050156) scale(0.11 -0.11)">
      <defs>
       <path id="ArialMT-3c" d="M 350 2003 
L 350 2528 
L 3384 3809 
L 3384 3250 
L 978 2263 
L 3384 1266 
L 3384 706 
L 350 2003 
z
" transform="scale(0.015625)"/>
      </defs>
      <use xlink:href="#ArialMT-70"/>
      <use xlink:href="#ArialMT-20" x="55.615234"/>
      <use xlink:href="#ArialMT-3c" x="83.398438"/>
      <use xlink:href="#ArialMT-20" x="141.796875"/>
      <use xlink:href="#ArialMT-30" x="169.580078"/>
      <use xlink:href="#ArialMT-2e" x="225.195312"/>
      <use xlink:href="#ArialMT-30" x="252.978516"/>
      <use xlink:href="#ArialMT-30" x="308.59375"/>
      <use xlink:href="#ArialMT-31" x="364.208984"/>
     </g>
    </g>
    <g id="line2d_27">
     <path d="M 617.34 201.76 
L 628.34 201.76 
L 639.34 201.76 
" style="fill: none; stroke-dasharray: 5.55,2.4; stroke-dashoffset: 0; stroke: #1a1a1a; stroke-width: 1.5"/>
    </g>
    <g id="text_23">
     <!-- Stim Onset -->
     <g style="fill: #262626" transform="translate(648.14 205.61) scale(0.11 -0.11)">
      <defs>
       <path id="ArialMT-74" d="M 1650 503 
L 1731 6 
Q 1494 -44 1306 -44 
Q 1000 -44 831 53 
Q 663 150 594 308 
Q 525 466 525 972 
L 525 2881 
L 113 2881 
L 113 3319 
L 525 3319 
L 525 4141 
L 1084 4478 
L 1084 3319 
L 1650 3319 
L 1650 2881 
L 1084 2881 
L 1084 941 
Q 1084 700 1114 631 
Q 1144 563 1211 522 
Q 1278 481 1403 481 
Q 1497 481 1650 503 
z
" transform="scale(0.015625)"/>
      </defs>
      <use xlink:href="#ArialMT-53"/>
      <use xlink:href="#ArialMT-74" x="66.699219"/>
      <use xlink:href="#ArialMT-69" x="94.482422"/>
      <use xlink:href="#ArialMT-6d" x="116.699219"/>
      <use xlink:href="#ArialMT-20" x="200"/>
      <use xlink:href="#ArialMT-4f" x="227.783203"/>
      <use xlink:href="#ArialMT-6e" x="305.566406"/>
      <use xlink:href="#ArialMT-73" x="361.181641"/>
      <use xlink:href="#ArialMT-65" x="411.181641"/>
      <use xlink:href="#ArialMT-74" x="466.796875"/>
     </g>
    </g>
    <g id="line2d_28">
     <path d="M 617.34 217.319844 
L 628.34 217.319844 
L 639.34 217.319844 
" style="fill: none; stroke-dasharray: 5.55,2.4; stroke-dashoffset: 0; stroke: #1a1a1a; stroke-width: 1.5"/>
    </g>
    <g id="text_24">
     <!-- Stim End -->
     <g style="fill: #262626" transform="translate(648.14 221.169844) scale(0.11 -0.11)">
      <defs>
       <path id="ArialMT-45" d="M 506 0 
L 506 4581 
L 3819 4581 
L 3819 4041 
L 1113 4041 
L 1113 2638 
L 3647 2638 
L 3647 2100 
L 1113 2100 
L 1113 541 
L 3925 541 
L 3925 0 
L 506 0 
z
" transform="scale(0.015625)"/>
      </defs>
      <use xlink:href="#ArialMT-53"/>
      <use xlink:href="#ArialMT-74" x="66.699219"/>
      <use xlink:href="#ArialMT-69" x="94.482422"/>
      <use xlink:href="#ArialMT-6d" x="116.699219"/>
      <use xlink:href="#ArialMT-20" x="200"/>
      <use xlink:href="#ArialMT-45" x="227.783203"/>
      <use xlink:href="#ArialMT-6e" x="294.482422"/>
      <use xlink:href="#ArialMT-64" x="350.097656"/>
     </g>
    </g>
    <g id="line2d_29">
     <path d="M 617.34 233.020625 
L 628.34 233.020625 
L 639.34 233.020625 
" style="fill: none; stroke: #8b0a50; stroke-width: 2; stroke-linecap: round"/>
    </g>
    <g id="text_25">
     <!-- Original -->
     <g style="fill: #262626" transform="translate(648.14 236.870625) scale(0.11 -0.11)">
      <use xlink:href="#ArialMT-4f"/>
      <use xlink:href="#ArialMT-72" x="77.783203"/>
      <use xlink:href="#ArialMT-69" x="111.083984"/>
      <use xlink:href="#ArialMT-67" x="133.300781"/>
      <use xlink:href="#ArialMT-69" x="188.916016"/>
      <use xlink:href="#ArialMT-6e" x="211.132812"/>
      <use xlink:href="#ArialMT-61" x="266.748047"/>
      <use xlink:href="#ArialMT-6c" x="322.363281"/>
     </g>
    </g>
    <g id="line2d_30">
     <path d="M 617.34 248.850313 
L 628.34 248.850313 
L 639.34 248.850313 
" style="fill: none; stroke-dasharray: 7.4,3.2; stroke-dashoffset: 0; stroke: #8b0a50; stroke-width: 2"/>
    </g>
    <g id="text_26">
     <!-- Original -->
     <g style="fill: #262626" transform="translate(648.14 252.700312) scale(0.11 -0.11)">
      <use xlink:href="#ArialMT-4f"/>
      <use xlink:href="#ArialMT-72" x="77.783203"/>
      <use xlink:href="#ArialMT-69" x="111.083984"/>
      <use xlink:href="#ArialMT-67" x="133.300781"/>
      <use xlink:href="#ArialMT-69" x="188.916016"/>
      <use xlink:href="#ArialMT-6e" x="211.132812"/>
      <use xlink:href="#ArialMT-61" x="266.748047"/>
      <use xlink:href="#ArialMT-6c" x="322.363281"/>
     </g>
    </g>
   </g>
  </g>
 </g>
 <defs>
  <clipPath id="paae9b1af03">
   <rect x="85.71" y="26.96" width="521.73" height="351.58"/>
  </clipPath>
 </defs>
</svg>
