<?xml version="1.0" encoding="utf-8" standalone="no"?>
<!DOCTYPE svg PUBLIC "-//W3C//DTD SVG 1.1//EN"
  "http://www.w3.org/Graphics/SVG/1.1/DTD/svg11.dtd">
<svg xmlns:xlink="http://www.w3.org/1999/xlink" width="720pt" height="432pt" viewBox="0 0 720 432" xmlns="http://www.w3.org/2000/svg" version="1.1">
 <metadata>
  <rdf:RDF xmlns:dc="http://purl.org/dc/elements/1.1/" xmlns:cc="http://creativecommons.org/ns#" xmlns:rdf="http://www.w3.org/1999/02/22-rdf-syntax-ns#">
   <cc:Work>
    <dc:type rdf:resource="http://purl.org/dc/dcmitype/StillImage"/>
    <dc:date>2025-08-23T09:55:07.895908</dc:date>
    <dc:format>image/svg+xml</dc:format>
    <dc:creator>
     <cc:Agent>
      <dc:title>Matplotlib v3.9.4, https://matplotlib.org/</dc:title>
     </cc:Agent>
    </dc:creator>
   </cc:Work>
  </rdf:RDF>
 </metadata>
 <defs>
  <style type="text/css">*{stroke-linejoin: round; stroke-linecap: butt}</style>
 </defs>
 <g id="figure_1">
  <g id="patch_1">
   <path d="M 0 432 
L 720 432 
L 720 0 
L 0 0 
z
" style="fill: #ffffff"/>
  </g>
  <g id="axes_1">
   <g id="patch_2">
    <path d="M 69.57 378.18 
L 607.76 378.18 
L 607.76 27.6 
L 69.57 27.6 
L 69.57 378.18 
z
" style="fill: none"/>
   </g>
   <g id="matplotlib.axis_1">
    <g id="xtick_1">
     <g id="text_1">
      <!-- −500 -->
      <g style="fill: #262626" transform="translate(81.937306 398.416719) scale(0.15 -0.15)">
       <defs>
        <path id="ArialMT-2212" d="M 3381 1997 
L 356 1997 
L 356 2522 
L 3381 2522 
L 3381 1997 
z
" transform="scale(0.015625)"/>
        <path id="ArialMT-35" d="M 266 1200 
L 856 1250 
Q 922 819 1161 601 
Q 1400 384 1738 384 
Q 2144 384 2425 690 
Q 2706 997 2706 1503 
Q 2706 1984 2436 2262 
Q 2166 2541 1728 2541 
Q 1456 2541 1237 2417 
Q 1019 2294 894 2097 
L 366 2166 
L 809 4519 
L 3088 4519 
L 3088 3981 
L 1259 3981 
L 1013 2750 
Q 1425 3038 1878 3038 
Q 2478 3038 2890 2622 
Q 3303 2206 3303 1553 
Q 3303 931 2941 478 
Q 2500 -78 1738 -78 
Q 1113 -78 717 272 
Q 322 622 266 1200 
z
" transform="scale(0.015625)"/>
        <path id="ArialMT-30" d="M 266 2259 
Q 266 3072 433 3567 
Q 600 4063 929 4331 
Q 1259 4600 1759 4600 
Q 2128 4600 2406 4451 
Q 2684 4303 2865 4023 
Q 3047 3744 3150 3342 
Q 3253 2941 3253 2259 
Q 3253 1453 3087 958 
Q 2922 463 2592 192 
Q 2263 -78 1759 -78 
Q 1097 -78 719 397 
Q 266 969 266 2259 
z
M 844 2259 
Q 844 1131 1108 757 
Q 1372 384 1759 384 
Q 2147 384 2411 759 
Q 2675 1134 2675 2259 
Q 2675 3391 2411 3762 
Q 2147 4134 1753 4134 
Q 1366 4134 1134 3806 
Q 844 3388 844 2259 
z
" transform="scale(0.015625)"/>
       </defs>
       <use xlink:href="#ArialMT-2212"/>
       <use xlink:href="#ArialMT-35" x="58.398438"/>
       <use xlink:href="#ArialMT-30" x="114.013672"/>
       <use xlink:href="#ArialMT-30" x="169.628906"/>
      </g>
     </g>
    </g>
    <g id="xtick_2">
     <g id="text_2">
      <!-- −250 -->
      <g style="fill: #262626" transform="translate(141.896085 398.416719) scale(0.15 -0.15)">
       <defs>
        <path id="ArialMT-32" d="M 3222 541 
L 3222 0 
L 194 0 
Q 188 203 259 391 
Q 375 700 629 1000 
Q 884 1300 1366 1694 
Q 2113 2306 2375 2664 
Q 2638 3022 2638 3341 
Q 2638 3675 2398 3904 
Q 2159 4134 1775 4134 
Q 1369 4134 1125 3890 
Q 881 3647 878 3216 
L 300 3275 
Q 359 3922 746 4261 
Q 1134 4600 1788 4600 
Q 2447 4600 2831 4234 
Q 3216 3869 3216 3328 
Q 3216 3053 3103 2787 
Q 2991 2522 2730 2228 
Q 2469 1934 1863 1422 
Q 1356 997 1212 845 
Q 1069 694 975 541 
L 3222 541 
z
" transform="scale(0.015625)"/>
       </defs>
       <use xlink:href="#ArialMT-2212"/>
       <use xlink:href="#ArialMT-32" x="58.398438"/>
       <use xlink:href="#ArialMT-35" x="114.013672"/>
       <use xlink:href="#ArialMT-30" x="169.628906"/>
      </g>
     </g>
    </g>
    <g id="xtick_3">
     <g id="text_3">
      <!-- 0 -->
      <g style="fill: #262626" transform="translate(214.576739 398.416719) scale(0.15 -0.15)">
       <use xlink:href="#ArialMT-30"/>
      </g>
     </g>
    </g>
    <g id="xtick_4">
     <g id="text_4">
      <!-- 250 -->
      <g style="fill: #262626" transform="translate(266.194112 398.416719) scale(0.15 -0.15)">
       <use xlink:href="#ArialMT-32"/>
       <use xlink:href="#ArialMT-35" x="55.615234"/>
       <use xlink:href="#ArialMT-30" x="111.230469"/>
      </g>
     </g>
    </g>
    <g id="xtick_5">
     <g id="text_5">
      <!-- 500 -->
      <g style="fill: #262626" transform="translate(326.152891 398.416719) scale(0.15 -0.15)">
       <use xlink:href="#ArialMT-35"/>
       <use xlink:href="#ArialMT-30" x="55.615234"/>
       <use xlink:href="#ArialMT-30" x="111.230469"/>
      </g>
     </g>
    </g>
    <g id="xtick_6">
     <g id="text_6">
      <!-- 750 -->
      <g style="fill: #262626" transform="translate(386.11167 398.416719) scale(0.15 -0.15)">
       <defs>
        <path id="ArialMT-37" d="M 303 3981 
L 303 4522 
L 3269 4522 
L 3269 4084 
Q 2831 3619 2401 2847 
Q 1972 2075 1738 1259 
Q 1569 684 1522 0 
L 944 0 
Q 953 541 1156 1306 
Q 1359 2072 1739 2783 
Q 2119 3494 2547 3981 
L 303 3981 
z
" transform="scale(0.015625)"/>
       </defs>
       <use xlink:href="#ArialMT-37"/>
       <use xlink:href="#ArialMT-35" x="55.615234"/>
       <use xlink:href="#ArialMT-30" x="111.230469"/>
      </g>
     </g>
    </g>
    <g id="xtick_7">
     <g id="text_7">
      <!-- 1000 -->
      <g style="fill: #262626" transform="translate(441.899745 398.416719) scale(0.15 -0.15)">
       <defs>
        <path id="ArialMT-31" d="M 2384 0 
L 1822 0 
L 1822 3584 
Q 1619 3391 1289 3197 
Q 959 3003 697 2906 
L 697 3450 
Q 1169 3672 1522 3987 
Q 1875 4303 2022 4600 
L 2384 4600 
L 2384 0 
z
" transform="scale(0.015625)"/>
       </defs>
       <use xlink:href="#ArialMT-31"/>
       <use xlink:href="#ArialMT-30" x="55.615234"/>
       <use xlink:href="#ArialMT-30" x="111.230469"/>
       <use xlink:href="#ArialMT-30" x="166.845703"/>
      </g>
     </g>
    </g>
    <g id="xtick_8">
     <g id="text_8">
      <!-- 1250 -->
      <g style="fill: #262626" transform="translate(501.858524 398.416719) scale(0.15 -0.15)">
       <use xlink:href="#ArialMT-31"/>
       <use xlink:href="#ArialMT-32" x="55.615234"/>
       <use xlink:href="#ArialMT-35" x="111.230469"/>
       <use xlink:href="#ArialMT-30" x="166.845703"/>
      </g>
     </g>
    </g>
    <g id="xtick_9">
     <g id="text_9">
      <!-- 1500 -->
      <g style="fill: #262626" transform="translate(561.817303 398.416719) scale(0.15 -0.15)">
       <use xlink:href="#ArialMT-31"/>
       <use xlink:href="#ArialMT-35" x="55.615234"/>
       <use xlink:href="#ArialMT-30" x="111.230469"/>
       <use xlink:href="#ArialMT-30" x="166.845703"/>
      </g>
     </g>
    </g>
    <g id="text_10">
     <!-- Time (s) -->
     <g style="fill: #262626" transform="translate(311.452891 416.3175) scale(0.15 -0.15)">
      <defs>
       <path id="ArialMT-54" d="M 1659 0 
L 1659 4041 
L 150 4041 
L 150 4581 
L 3781 4581 
L 3781 4041 
L 2266 4041 
L 2266 0 
L 1659 0 
z
" transform="scale(0.015625)"/>
       <path id="ArialMT-69" d="M 425 3934 
L 425 4581 
L 988 4581 
L 988 3934 
L 425 3934 
z
M 425 0 
L 425 3319 
L 988 3319 
L 988 0 
L 425 0 
z
" transform="scale(0.015625)"/>
       <path id="ArialMT-6d" d="M 422 0 
L 422 3319 
L 925 3319 
L 925 2853 
Q 1081 3097 1340 3245 
Q 1600 3394 1931 3394 
Q 2300 3394 2536 3241 
Q 2772 3088 2869 2813 
Q 3263 3394 3894 3394 
Q 4388 3394 4653 3120 
Q 4919 2847 4919 2278 
L 4919 0 
L 4359 0 
L 4359 2091 
Q 4359 2428 4304 2576 
Q 4250 2725 4106 2815 
Q 3963 2906 3769 2906 
Q 3419 2906 3187 2673 
Q 2956 2441 2956 1928 
L 2956 0 
L 2394 0 
L 2394 2156 
Q 2394 2531 2256 2718 
Q 2119 2906 1806 2906 
Q 1569 2906 1367 2781 
Q 1166 2656 1075 2415 
Q 984 2175 984 1722 
L 984 0 
L 422 0 
z
" transform="scale(0.015625)"/>
       <path id="ArialMT-65" d="M 2694 1069 
L 3275 997 
Q 3138 488 2766 206 
Q 2394 -75 1816 -75 
Q 1088 -75 661 373 
Q 234 822 234 1631 
Q 234 2469 665 2931 
Q 1097 3394 1784 3394 
Q 2450 3394 2872 2941 
Q 3294 2488 3294 1666 
Q 3294 1616 3291 1516 
L 816 1516 
Q 847 969 1125 678 
Q 1403 388 1819 388 
Q 2128 388 2347 550 
Q 2566 713 2694 1069 
z
M 847 1978 
L 2700 1978 
Q 2663 2397 2488 2606 
Q 2219 2931 1791 2931 
Q 1403 2931 1139 2672 
Q 875 2413 847 1978 
z
" transform="scale(0.015625)"/>
       <path id="ArialMT-20" transform="scale(0.015625)"/>
       <path id="ArialMT-28" d="M 1497 -1347 
Q 1031 -759 709 28 
Q 388 816 388 1659 
Q 388 2403 628 3084 
Q 909 3875 1497 4659 
L 1900 4659 
Q 1522 4009 1400 3731 
Q 1209 3300 1100 2831 
Q 966 2247 966 1656 
Q 966 153 1900 -1347 
L 1497 -1347 
z
" transform="scale(0.015625)"/>
       <path id="ArialMT-73" d="M 197 991 
L 753 1078 
Q 800 744 1014 566 
Q 1228 388 1613 388 
Q 2000 388 2187 545 
Q 2375 703 2375 916 
Q 2375 1106 2209 1216 
Q 2094 1291 1634 1406 
Q 1016 1563 777 1677 
Q 538 1791 414 1992 
Q 291 2194 291 2438 
Q 291 2659 392 2848 
Q 494 3038 669 3163 
Q 800 3259 1026 3326 
Q 1253 3394 1513 3394 
Q 1903 3394 2198 3281 
Q 2494 3169 2634 2976 
Q 2775 2784 2828 2463 
L 2278 2388 
Q 2241 2644 2061 2787 
Q 1881 2931 1553 2931 
Q 1166 2931 1000 2803 
Q 834 2675 834 2503 
Q 834 2394 903 2306 
Q 972 2216 1119 2156 
Q 1203 2125 1616 2013 
Q 2213 1853 2448 1751 
Q 2684 1650 2818 1456 
Q 2953 1263 2953 975 
Q 2953 694 2789 445 
Q 2625 197 2315 61 
Q 2006 -75 1616 -75 
Q 969 -75 630 194 
Q 291 463 197 991 
z
" transform="scale(0.015625)"/>
       <path id="ArialMT-29" d="M 791 -1347 
L 388 -1347 
Q 1322 153 1322 1656 
Q 1322 2244 1188 2822 
Q 1081 3291 891 3722 
Q 769 4003 388 4659 
L 791 4659 
Q 1378 3875 1659 3084 
Q 1900 2403 1900 1659 
Q 1900 816 1576 28 
Q 1253 -759 791 -1347 
z
" transform="scale(0.015625)"/>
      </defs>
      <use xlink:href="#ArialMT-54"/>
      <use xlink:href="#ArialMT-69" x="57.333984"/>
      <use xlink:href="#ArialMT-6d" x="79.550781"/>
      <use xlink:href="#ArialMT-65" x="162.851562"/>
      <use xlink:href="#ArialMT-20" x="218.466797"/>
      <use xlink:href="#ArialMT-28" x="246.25"/>
      <use xlink:href="#ArialMT-73" x="279.550781"/>
      <use xlink:href="#ArialMT-29" x="329.550781"/>
     </g>
    </g>
   </g>
   <g id="matplotlib.axis_2">
    <g id="ytick_1">
     <g id="text_11">
      <!-- 0.00 -->
      <g style="fill: #262626" transform="translate(30.878594 332.659968) scale(0.15 -0.15)">
       <defs>
        <path id="ArialMT-2e" d="M 581 0 
L 581 641 
L 1222 641 
L 1222 0 
L 581 0 
z
" transform="scale(0.015625)"/>
       </defs>
       <use xlink:href="#ArialMT-30"/>
       <use xlink:href="#ArialMT-2e" x="55.615234"/>
       <use xlink:href="#ArialMT-30" x="83.398438"/>
       <use xlink:href="#ArialMT-30" x="139.013672"/>
      </g>
     </g>
    </g>
    <g id="ytick_2">
     <g id="text_12">
      <!-- 0.05 -->
      <g style="fill: #262626" transform="translate(30.878594 280.908138) scale(0.15 -0.15)">
       <use xlink:href="#ArialMT-30"/>
       <use xlink:href="#ArialMT-2e" x="55.615234"/>
       <use xlink:href="#ArialMT-30" x="83.398438"/>
       <use xlink:href="#ArialMT-35" x="139.013672"/>
      </g>
     </g>
    </g>
    <g id="ytick_3">
     <g id="text_13">
      <!-- 0.10 -->
      <g style="fill: #262626" transform="translate(30.878594 229.156308) scale(0.15 -0.15)">
       <use xlink:href="#ArialMT-30"/>
       <use xlink:href="#ArialMT-2e" x="55.615234"/>
       <use xlink:href="#ArialMT-31" x="83.398438"/>
       <use xlink:href="#ArialMT-30" x="139.013672"/>
      </g>
     </g>
    </g>
    <g id="ytick_4">
     <g id="text_14">
      <!-- 0.15 -->
      <g style="fill: #262626" transform="translate(30.878594 177.404478) scale(0.15 -0.15)">
       <use xlink:href="#ArialMT-30"/>
       <use xlink:href="#ArialMT-2e" x="55.615234"/>
       <use xlink:href="#ArialMT-31" x="83.398438"/>
       <use xlink:href="#ArialMT-35" x="139.013672"/>
      </g>
     </g>
    </g>
    <g id="ytick_5">
     <g id="text_15">
      <!-- 0.20 -->
      <g style="fill: #262626" transform="translate(30.878594 125.652648) scale(0.15 -0.15)">
       <use xlink:href="#ArialMT-30"/>
       <use xlink:href="#ArialMT-2e" x="55.615234"/>
       <use xlink:href="#ArialMT-32" x="83.398438"/>
       <use xlink:href="#ArialMT-30" x="139.013672"/>
      </g>
     </g>
    </g>
    <g id="ytick_6">
     <g id="text_16">
      <!-- 0.25 -->
      <g style="fill: #262626" transform="translate(30.878594 73.900819) scale(0.15 -0.15)">
       <use xlink:href="#ArialMT-30"/>
       <use xlink:href="#ArialMT-2e" x="55.615234"/>
       <use xlink:href="#ArialMT-32" x="83.398438"/>
       <use xlink:href="#ArialMT-35" x="139.013672"/>
      </g>
     </g>
    </g>
    <g id="text_17">
     <!-- Divergence -->
     <g style="fill: #262626" transform="translate(23.721563 240.823594) rotate(-90) scale(0.15 -0.15)">
      <defs>
       <path id="ArialMT-44" d="M 494 0 
L 494 4581 
L 2072 4581 
Q 2606 4581 2888 4516 
Q 3281 4425 3559 4188 
Q 3922 3881 4101 3404 
Q 4281 2928 4281 2316 
Q 4281 1794 4159 1391 
Q 4038 988 3847 723 
Q 3656 459 3429 307 
Q 3203 156 2883 78 
Q 2563 0 2147 0 
L 494 0 
z
M 1100 541 
L 2078 541 
Q 2531 541 2789 625 
Q 3047 709 3200 863 
Q 3416 1078 3536 1442 
Q 3656 1806 3656 2325 
Q 3656 3044 3420 3430 
Q 3184 3816 2847 3947 
Q 2603 4041 2063 4041 
L 1100 4041 
L 1100 541 
z
" transform="scale(0.015625)"/>
       <path id="ArialMT-76" d="M 1344 0 
L 81 3319 
L 675 3319 
L 1388 1331 
Q 1503 1009 1600 663 
Q 1675 925 1809 1294 
L 2547 3319 
L 3125 3319 
L 1869 0 
L 1344 0 
z
" transform="scale(0.015625)"/>
       <path id="ArialMT-72" d="M 416 0 
L 416 3319 
L 922 3319 
L 922 2816 
Q 1116 3169 1280 3281 
Q 1444 3394 1641 3394 
Q 1925 3394 2219 3213 
L 2025 2691 
Q 1819 2813 1613 2813 
Q 1428 2813 1281 2702 
Q 1134 2591 1072 2394 
Q 978 2094 978 1738 
L 978 0 
L 416 0 
z
" transform="scale(0.015625)"/>
       <path id="ArialMT-67" d="M 319 -275 
L 866 -356 
Q 900 -609 1056 -725 
Q 1266 -881 1628 -881 
Q 2019 -881 2231 -725 
Q 2444 -569 2519 -288 
Q 2563 -116 2559 434 
Q 2191 0 1641 0 
Q 956 0 581 494 
Q 206 988 206 1678 
Q 206 2153 378 2554 
Q 550 2956 876 3175 
Q 1203 3394 1644 3394 
Q 2231 3394 2613 2919 
L 2613 3319 
L 3131 3319 
L 3131 450 
Q 3131 -325 2973 -648 
Q 2816 -972 2473 -1159 
Q 2131 -1347 1631 -1347 
Q 1038 -1347 672 -1080 
Q 306 -813 319 -275 
z
M 784 1719 
Q 784 1066 1043 766 
Q 1303 466 1694 466 
Q 2081 466 2343 764 
Q 2606 1063 2606 1700 
Q 2606 2309 2336 2618 
Q 2066 2928 1684 2928 
Q 1309 2928 1046 2623 
Q 784 2319 784 1719 
z
" transform="scale(0.015625)"/>
       <path id="ArialMT-6e" d="M 422 0 
L 422 3319 
L 928 3319 
L 928 2847 
Q 1294 3394 1984 3394 
Q 2284 3394 2536 3286 
Q 2788 3178 2913 3003 
Q 3038 2828 3088 2588 
Q 3119 2431 3119 2041 
L 3119 0 
L 2556 0 
L 2556 2019 
Q 2556 2363 2490 2533 
Q 2425 2703 2258 2804 
Q 2091 2906 1866 2906 
Q 1506 2906 1245 2678 
Q 984 2450 984 1813 
L 984 0 
L 422 0 
z
" transform="scale(0.015625)"/>
       <path id="ArialMT-63" d="M 2588 1216 
L 3141 1144 
Q 3050 572 2676 248 
Q 2303 -75 1759 -75 
Q 1078 -75 664 370 
Q 250 816 250 1647 
Q 250 2184 428 2587 
Q 606 2991 970 3192 
Q 1334 3394 1763 3394 
Q 2303 3394 2647 3120 
Q 2991 2847 3088 2344 
L 2541 2259 
Q 2463 2594 2264 2762 
Q 2066 2931 1784 2931 
Q 1359 2931 1093 2626 
Q 828 2322 828 1663 
Q 828 994 1084 691 
Q 1341 388 1753 388 
Q 2084 388 2306 591 
Q 2528 794 2588 1216 
z
" transform="scale(0.015625)"/>
      </defs>
      <use xlink:href="#ArialMT-44"/>
      <use xlink:href="#ArialMT-69" x="72.216797"/>
      <use xlink:href="#ArialMT-76" x="94.433594"/>
      <use xlink:href="#ArialMT-65" x="144.433594"/>
      <use xlink:href="#ArialMT-72" x="200.048828"/>
      <use xlink:href="#ArialMT-67" x="233.349609"/>
      <use xlink:href="#ArialMT-65" x="288.964844"/>
      <use xlink:href="#ArialMT-6e" x="344.580078"/>
      <use xlink:href="#ArialMT-63" x="400.195312"/>
      <use xlink:href="#ArialMT-65" x="450.195312"/>
     </g>
    </g>
   </g>
   <g id="PolyCollection_1">
    <defs>
     <path id="ma573872372" d="M 94.033182 -105.145596 
L 94.033182 -96.310541 
L 103.626586 -104.473968 
L 113.219991 -104.112877 
L 122.813396 -103.221415 
L 132.4068 -104.086516 
L 142.000205 -105.094807 
L 151.59361 -104.998759 
L 161.187014 -103.136281 
L 170.780419 -102.809993 
L 180.373824 -102.967362 
L 189.967228 -101.993535 
L 199.560633 -102.429867 
L 209.154037 -104.515883 
L 218.747442 -92.93586 
L 228.340847 -96.825535 
L 237.934251 -116.004131 
L 247.527656 -125.302252 
L 257.121061 -151.079693 
L 266.714465 -165.286225 
L 276.30787 -161.173411 
L 285.901275 -162.712406 
L 295.494679 -185.600016 
L 305.088084 -198.403781 
L 314.681488 -191.481027 
L 324.274893 -196.421383 
L 333.868298 -192.930759 
L 343.461702 -211.98687 
L 353.055107 -241.260808 
L 362.648512 -235.388384 
L 372.241916 -249.694455 
L 381.835321 -290.52744 
L 391.428725 -297.626221 
L 401.02213 -301.552443 
L 410.615535 -327.788863 
L 420.208939 -352.866574 
L 429.802344 -351.090952 
L 439.395749 -348.106724 
L 448.989153 -345.986496 
L 458.582558 -317.748104 
L 468.175963 -308.945767 
L 477.769367 -283.162286 
L 487.362772 -268.98497 
L 496.956176 -262.867978 
L 506.549581 -261.741157 
L 516.142986 -258.541778 
L 525.73639 -254.145459 
L 535.329795 -251.54998 
L 544.9232 -252.209496 
L 554.516604 -248.659138 
L 564.110009 -247.735345 
L 573.703414 -245.023597 
L 583.296818 -197.900614 
L 583.296818 -215.60907 
L 583.296818 -215.60907 
L 573.703414 -271.910177 
L 564.110009 -275.072402 
L 554.516604 -276.161361 
L 544.9232 -279.835334 
L 535.329795 -279.131062 
L 525.73639 -282.255875 
L 516.142986 -287.009756 
L 506.549581 -290.319058 
L 496.956176 -292.31857 
L 487.362772 -299.122914 
L 477.769367 -315.844637 
L 468.175963 -344.245144 
L 458.582558 -352.750644 
L 448.989153 -381.054824 
L 439.395749 -383.138343 
L 429.802344 -387.359631 
L 420.208939 -388.464545 
L 410.615535 -359.875912 
L 401.02213 -331.665206 
L 391.428725 -327.058748 
L 381.835321 -319.322207 
L 372.241916 -279.517718 
L 362.648512 -264.342792 
L 353.055107 -268.947551 
L 343.461702 -239.96931 
L 333.868298 -221.24084 
L 324.274893 -222.80973 
L 314.681488 -214.898011 
L 305.088084 -218.438786 
L 295.494679 -205.210903 
L 285.901275 -182.968935 
L 276.30787 -180.536457 
L 266.714465 -184.49799 
L 257.121061 -171.48417 
L 247.527656 -141.743069 
L 237.934251 -132.262984 
L 228.340847 -112.724799 
L 218.747442 -101.963263 
L 209.154037 -106.099593 
L 199.560633 -103.762661 
L 189.967228 -103.497864 
L 180.373824 -104.679661 
L 170.780419 -104.219198 
L 161.187014 -104.355963 
L 151.59361 -106.575073 
L 142.000205 -106.396545 
L 132.4068 -105.240254 
L 122.813396 -104.734126 
L 113.219991 -105.669474 
L 103.626586 -106.09952 
L 94.033182 -105.145596 
z
" style="stroke: #8b0a50; stroke-opacity: 0.1"/>
    </defs>
    <g clip-path="url(#p1d1a6facdb)">
     <use xlink:href="#ma573872372" x="0" y="432" style="fill: #8b0a50; fill-opacity: 0.1; stroke: #8b0a50; stroke-opacity: 0.1"/>
    </g>
   </g>
   <g id="PolyCollection_2">
    <defs>
     <path id="m45a28341df" d="M 94.033182 -105.548342 
L 94.033182 -104.847984 
L 103.626586 -104.79349 
L 113.219991 -104.818772 
L 122.813396 -104.600213 
L 132.4068 -104.646973 
L 142.000205 -104.723109 
L 151.59361 -104.589762 
L 161.187014 -104.712158 
L 170.780419 -104.554837 
L 180.373824 -104.622536 
L 189.967228 -104.708367 
L 199.560633 -104.632365 
L 209.154037 -104.555822 
L 218.747442 -104.139232 
L 228.340847 -106.846619 
L 237.934251 -109.694476 
L 247.527656 -110.484527 
L 257.121061 -112.054457 
L 266.714465 -113.685974 
L 276.30787 -115.218433 
L 285.901275 -116.168496 
L 295.494679 -117.210727 
L 305.088084 -119.336388 
L 314.681488 -121.322374 
L 324.274893 -121.596766 
L 333.868298 -123.340031 
L 343.461702 -128.599647 
L 353.055107 -135.347177 
L 362.648512 -136.760329 
L 372.241916 -137.360226 
L 381.835321 -137.654797 
L 391.428725 -138.269809 
L 401.02213 -140.09926 
L 410.615535 -141.018782 
L 420.208939 -137.942508 
L 429.802344 -137.173613 
L 439.395749 -135.475526 
L 448.989153 -130.895682 
L 458.582558 -125.090522 
L 468.175963 -124.080305 
L 477.769367 -122.802541 
L 487.362772 -122.078081 
L 496.956176 -121.705505 
L 506.549581 -121.661112 
L 516.142986 -121.862519 
L 525.73639 -121.525383 
L 535.329795 -121.434428 
L 544.9232 -121.404497 
L 554.516604 -121.192383 
L 564.110009 -120.995873 
L 573.703414 -120.250812 
L 583.296818 -115.094425 
L 583.296818 -116.638383 
L 583.296818 -116.638383 
L 573.703414 -122.543213 
L 564.110009 -123.377984 
L 554.516604 -123.566809 
L 544.9232 -123.844546 
L 535.329795 -123.842749 
L 525.73639 -123.934256 
L 516.142986 -124.23707 
L 506.549581 -124.017803 
L 496.956176 -124.080964 
L 487.362772 -124.480249 
L 477.769367 -125.314712 
L 468.175963 -126.622919 
L 458.582558 -127.320368 
L 448.989153 -133.648354 
L 439.395749 -138.342615 
L 429.802344 -140.175092 
L 420.208939 -140.789454 
L 410.615535 -144.009921 
L 401.02213 -143.175802 
L 391.428725 -141.430201 
L 381.835321 -141.105788 
L 372.241916 -140.831336 
L 362.648512 -139.716618 
L 353.055107 -138.637967 
L 343.461702 -131.655671 
L 333.868298 -126.227988 
L 324.274893 -124.311902 
L 314.681488 -123.910481 
L 305.088084 -121.643054 
L 295.494679 -119.709357 
L 285.901275 -118.659571 
L 276.30787 -117.721425 
L 266.714465 -115.841361 
L 257.121061 -114.291013 
L 247.527656 -112.409437 
L 237.934251 -111.755082 
L 228.340847 -108.655026 
L 218.747442 -105.105914 
L 209.154037 -104.757569 
L 199.560633 -104.885274 
L 189.967228 -104.86493 
L 180.373824 -104.785394 
L 170.780419 -104.739317 
L 161.187014 -104.874575 
L 151.59361 -104.805145 
L 142.000205 -104.913251 
L 132.4068 -104.836208 
L 122.813396 -104.798965 
L 113.219991 -105.060222 
L 103.626586 -105.072729 
L 94.033182 -105.548342 
z
" style="stroke: #8b0a50; stroke-opacity: 0.1"/>
    </defs>
    <g clip-path="url(#p1d1a6facdb)">
     <use xlink:href="#m45a28341df" x="0" y="432" style="fill: #8b0a50; fill-opacity: 0.1; stroke: #8b0a50; stroke-opacity: 0.1"/>
    </g>
   </g>
   <g id="PathCollection_1">
    <defs>
     <path id="meed67928fa" d="M 0 -3 
L -0.673542 -0.927051 
L -2.85317 -0.927051 
L -1.089814 0.354102 
L -1.763356 2.427051 
L -0 1.145898 
L 1.763356 2.427051 
L 1.089814 0.354102 
L 2.85317 -0.927051 
L 0.673542 -0.927051 
z
" style="stroke: #8b0a50"/>
    </defs>
    <g clip-path="url(#p1d1a6facdb)">
     <use xlink:href="#meed67928fa" x="247.527656" y="337.641975" style="fill: #8b0a50; stroke: #8b0a50"/>
     <use xlink:href="#meed67928fa" x="257.121061" y="337.641975" style="fill: #8b0a50; stroke: #8b0a50"/>
     <use xlink:href="#meed67928fa" x="266.714465" y="337.641975" style="fill: #8b0a50; stroke: #8b0a50"/>
     <use xlink:href="#meed67928fa" x="276.30787" y="337.641975" style="fill: #8b0a50; stroke: #8b0a50"/>
     <use xlink:href="#meed67928fa" x="285.901275" y="337.641975" style="fill: #8b0a50; stroke: #8b0a50"/>
     <use xlink:href="#meed67928fa" x="295.494679" y="337.641975" style="fill: #8b0a50; stroke: #8b0a50"/>
     <use xlink:href="#meed67928fa" x="305.088084" y="337.641975" style="fill: #8b0a50; stroke: #8b0a50"/>
     <use xlink:href="#meed67928fa" x="314.681488" y="337.641975" style="fill: #8b0a50; stroke: #8b0a50"/>
     <use xlink:href="#meed67928fa" x="324.274893" y="337.641975" style="fill: #8b0a50; stroke: #8b0a50"/>
     <use xlink:href="#meed67928fa" x="333.868298" y="337.641975" style="fill: #8b0a50; stroke: #8b0a50"/>
     <use xlink:href="#meed67928fa" x="343.461702" y="337.641975" style="fill: #8b0a50; stroke: #8b0a50"/>
     <use xlink:href="#meed67928fa" x="353.055107" y="337.641975" style="fill: #8b0a50; stroke: #8b0a50"/>
     <use xlink:href="#meed67928fa" x="362.648512" y="337.641975" style="fill: #8b0a50; stroke: #8b0a50"/>
     <use xlink:href="#meed67928fa" x="372.241916" y="337.641975" style="fill: #8b0a50; stroke: #8b0a50"/>
     <use xlink:href="#meed67928fa" x="381.835321" y="337.641975" style="fill: #8b0a50; stroke: #8b0a50"/>
     <use xlink:href="#meed67928fa" x="391.428725" y="337.641975" style="fill: #8b0a50; stroke: #8b0a50"/>
     <use xlink:href="#meed67928fa" x="401.02213" y="337.641975" style="fill: #8b0a50; stroke: #8b0a50"/>
     <use xlink:href="#meed67928fa" x="410.615535" y="337.641975" style="fill: #8b0a50; stroke: #8b0a50"/>
     <use xlink:href="#meed67928fa" x="420.208939" y="337.641975" style="fill: #8b0a50; stroke: #8b0a50"/>
     <use xlink:href="#meed67928fa" x="429.802344" y="337.641975" style="fill: #8b0a50; stroke: #8b0a50"/>
     <use xlink:href="#meed67928fa" x="439.395749" y="337.641975" style="fill: #8b0a50; stroke: #8b0a50"/>
     <use xlink:href="#meed67928fa" x="448.989153" y="337.641975" style="fill: #8b0a50; stroke: #8b0a50"/>
     <use xlink:href="#meed67928fa" x="458.582558" y="337.641975" style="fill: #8b0a50; stroke: #8b0a50"/>
     <use xlink:href="#meed67928fa" x="468.175963" y="337.641975" style="fill: #8b0a50; stroke: #8b0a50"/>
     <use xlink:href="#meed67928fa" x="477.769367" y="337.641975" style="fill: #8b0a50; stroke: #8b0a50"/>
     <use xlink:href="#meed67928fa" x="487.362772" y="337.641975" style="fill: #8b0a50; stroke: #8b0a50"/>
     <use xlink:href="#meed67928fa" x="496.956176" y="337.641975" style="fill: #8b0a50; stroke: #8b0a50"/>
     <use xlink:href="#meed67928fa" x="506.549581" y="337.641975" style="fill: #8b0a50; stroke: #8b0a50"/>
     <use xlink:href="#meed67928fa" x="516.142986" y="337.641975" style="fill: #8b0a50; stroke: #8b0a50"/>
     <use xlink:href="#meed67928fa" x="525.73639" y="337.641975" style="fill: #8b0a50; stroke: #8b0a50"/>
     <use xlink:href="#meed67928fa" x="535.329795" y="337.641975" style="fill: #8b0a50; stroke: #8b0a50"/>
     <use xlink:href="#meed67928fa" x="544.9232" y="337.641975" style="fill: #8b0a50; stroke: #8b0a50"/>
     <use xlink:href="#meed67928fa" x="554.516604" y="337.641975" style="fill: #8b0a50; stroke: #8b0a50"/>
     <use xlink:href="#meed67928fa" x="564.110009" y="337.641975" style="fill: #8b0a50; stroke: #8b0a50"/>
     <use xlink:href="#meed67928fa" x="573.703414" y="337.641975" style="fill: #8b0a50; stroke: #8b0a50"/>
     <use xlink:href="#meed67928fa" x="583.296818" y="337.641975" style="fill: #8b0a50; stroke: #8b0a50"/>
    </g>
   </g>
   <g id="PolyCollection_3">
    <defs>
     <path id="m0804670051" d="M 94.033182 -114.680686 
L 94.033182 -85.20035 
L 103.626586 -69.755455 
L 113.219991 -96.163324 
L 122.813396 -94.068633 
L 132.4068 -97.036333 
L 142.000205 -88.045387 
L 151.59361 -85.137745 
L 161.187014 -93.598118 
L 170.780419 -91.959049 
L 180.373824 -96.362825 
L 189.967228 -94.094631 
L 199.560633 -92.789869 
L 209.154037 -98.483773 
L 218.747442 -102.287945 
L 228.340847 -97.260413 
L 237.934251 -93.928832 
L 247.527656 -93.250266 
L 257.121061 -95.829633 
L 266.714465 -102.846914 
L 276.30787 -104.224051 
L 285.901275 -108.316818 
L 295.494679 -113.860337 
L 305.088084 -113.978342 
L 314.681488 -112.97867 
L 324.274893 -114.430668 
L 333.868298 -121.03409 
L 343.461702 -126.443746 
L 353.055107 -134.552584 
L 362.648512 -142.207647 
L 372.241916 -148.028588 
L 381.835321 -152.465513 
L 391.428725 -159.657212 
L 401.02213 -166.037656 
L 410.615535 -166.65077 
L 420.208939 -170.543173 
L 429.802344 -175.612047 
L 439.395749 -177.883213 
L 448.989153 -179.353179 
L 458.582558 -180.523892 
L 468.175963 -176.496196 
L 477.769367 -166.895868 
L 487.362772 -158.562558 
L 496.956176 -156.253057 
L 506.549581 -152.854367 
L 516.142986 -151.142314 
L 525.73639 -151.171647 
L 535.329795 -149.462425 
L 544.9232 -153.705082 
L 554.516604 -151.702381 
L 564.110009 -151.924799 
L 573.703414 -155.647115 
L 583.296818 -138.153631 
L 583.296818 -151.425572 
L 583.296818 -151.425572 
L 573.703414 -174.307281 
L 564.110009 -170.659357 
L 554.516604 -170.728312 
L 544.9232 -171.959388 
L 535.329795 -167.28884 
L 525.73639 -169.117819 
L 516.142986 -169.267297 
L 506.549581 -171.058677 
L 496.956176 -174.412859 
L 487.362772 -177.405484 
L 477.769367 -187.10836 
L 468.175963 -197.789526 
L 458.582558 -203.323868 
L 448.989153 -203.384877 
L 439.395749 -201.259186 
L 429.802344 -197.597496 
L 420.208939 -192.021662 
L 410.615535 -187.691034 
L 401.02213 -185.819668 
L 391.428725 -178.26743 
L 381.835321 -169.045795 
L 372.241916 -163.196833 
L 362.648512 -156.675517 
L 353.055107 -149.001855 
L 343.461702 -139.841434 
L 333.868298 -133.525819 
L 324.274893 -126.330283 
L 314.681488 -125.501268 
L 305.088084 -127.168135 
L 295.494679 -126.341462 
L 285.901275 -120.393487 
L 276.30787 -116.542428 
L 266.714465 -114.837713 
L 257.121061 -108.812914 
L 247.527656 -106.490527 
L 237.934251 -105.757368 
L 228.340847 -109.052969 
L 218.747442 -114.28555 
L 209.154037 -111.010565 
L 199.560633 -106.763553 
L 189.967228 -109.876819 
L 180.373824 -112.999097 
L 170.780419 -109.561988 
L 161.187014 -111.167665 
L 151.59361 -105.893056 
L 142.000205 -111.195404 
L 132.4068 -124.350726 
L 122.813396 -127.692449 
L 113.219991 -130.179038 
L 103.626586 -106.345271 
L 94.033182 -114.680686 
z
" style="stroke: #eb6ab0; stroke-opacity: 0.1"/>
    </defs>
    <g clip-path="url(#p1d1a6facdb)">
     <use xlink:href="#m0804670051" x="0" y="432" style="fill: #eb6ab0; fill-opacity: 0.1; stroke: #eb6ab0; stroke-opacity: 0.1"/>
    </g>
   </g>
   <g id="PolyCollection_4">
    <defs>
     <path id="m91dc134c42" d="M 94.033182 -110.246382 
L 94.033182 -106.652364 
L 103.626586 -105.504034 
L 113.219991 -99.542955 
L 122.813396 -97.477395 
L 132.4068 -96.927612 
L 142.000205 -97.393688 
L 151.59361 -98.991379 
L 161.187014 -100.766864 
L 170.780419 -103.052954 
L 180.373824 -103.493897 
L 189.967228 -103.659633 
L 199.560633 -103.912728 
L 209.154037 -103.654319 
L 218.747442 -103.56822 
L 228.340847 -103.998353 
L 237.934251 -103.875023 
L 247.527656 -103.942914 
L 257.121061 -104.306991 
L 266.714465 -104.008188 
L 276.30787 -104.931098 
L 285.901275 -106.715389 
L 295.494679 -107.85274 
L 305.088084 -108.774559 
L 314.681488 -110.23967 
L 324.274893 -112.927739 
L 333.868298 -114.893213 
L 343.461702 -116.538828 
L 353.055107 -119.210715 
L 362.648512 -120.51451 
L 372.241916 -121.197002 
L 381.835321 -121.862504 
L 391.428725 -122.014632 
L 401.02213 -122.012798 
L 410.615535 -121.696559 
L 420.208939 -122.017352 
L 429.802344 -122.230448 
L 439.395749 -122.997767 
L 448.989153 -122.711652 
L 458.582558 -121.767802 
L 468.175963 -120.736564 
L 477.769367 -119.407589 
L 487.362772 -118.453685 
L 496.956176 -118.538909 
L 506.549581 -119.015925 
L 516.142986 -120.049333 
L 525.73639 -120.798509 
L 535.329795 -121.355005 
L 544.9232 -122.020555 
L 554.516604 -122.611535 
L 564.110009 -122.597299 
L 573.703414 -121.7904 
L 583.296818 -115.49838 
L 583.296818 -118.258541 
L 583.296818 -118.258541 
L 573.703414 -125.843979 
L 564.110009 -126.772289 
L 554.516604 -126.911142 
L 544.9232 -126.166825 
L 535.329795 -125.276997 
L 525.73639 -124.507253 
L 516.142986 -123.680046 
L 506.549581 -122.54218 
L 496.956176 -121.995321 
L 487.362772 -121.930551 
L 477.769367 -122.991412 
L 468.175963 -124.422073 
L 458.582558 -125.549878 
L 448.989153 -126.54467 
L 439.395749 -126.881854 
L 429.802344 -126.114765 
L 420.208939 -125.887878 
L 410.615535 -125.593184 
L 401.02213 -125.977617 
L 391.428725 -126.084781 
L 381.835321 -125.876833 
L 372.241916 -124.997105 
L 362.648512 -124.183234 
L 353.055107 -122.68989 
L 343.461702 -119.563724 
L 333.868298 -117.532557 
L 324.274893 -115.221399 
L 314.681488 -112.166853 
L 305.088084 -110.417698 
L 295.494679 -109.375571 
L 285.901275 -108.093979 
L 276.30787 -106.265807 
L 266.714465 -105.467382 
L 257.121061 -105.468987 
L 247.527656 -104.955466 
L 237.934251 -105.12152 
L 228.340847 -105.28962 
L 218.747442 -105.023518 
L 209.154037 -105.173749 
L 199.560633 -105.673117 
L 189.967228 -105.67944 
L 180.373824 -105.859496 
L 170.780419 -105.535754 
L 161.187014 -103.461429 
L 151.59361 -102.242681 
L 142.000205 -101.113048 
L 132.4068 -101.463716 
L 122.813396 -102.766354 
L 113.219991 -105.00172 
L 103.626586 -110.738845 
L 94.033182 -110.246382 
z
" style="stroke: #eb6ab0; stroke-opacity: 0.1"/>
    </defs>
    <g clip-path="url(#p1d1a6facdb)">
     <use xlink:href="#m91dc134c42" x="0" y="432" style="fill: #eb6ab0; fill-opacity: 0.1; stroke: #eb6ab0; stroke-opacity: 0.1"/>
    </g>
   </g>
   <g id="PathCollection_2">
    <defs>
     <path id="mccd5bf14a1" d="M 0 -3 
L -0.673542 -0.927051 
L -2.85317 -0.927051 
L -1.089814 0.354102 
L -1.763356 2.427051 
L -0 1.145898 
L 1.763356 2.427051 
L 1.089814 0.354102 
L 2.85317 -0.927051 
L 0.673542 -0.927051 
z
" style="stroke: #eb6ab0"/>
    </defs>
    <g clip-path="url(#p1d1a6facdb)">
     <use xlink:href="#mccd5bf14a1" x="295.494679" y="347.992341" style="fill: #eb6ab0; stroke: #eb6ab0"/>
     <use xlink:href="#mccd5bf14a1" x="333.868298" y="347.992341" style="fill: #eb6ab0; stroke: #eb6ab0"/>
     <use xlink:href="#mccd5bf14a1" x="343.461702" y="347.992341" style="fill: #eb6ab0; stroke: #eb6ab0"/>
     <use xlink:href="#mccd5bf14a1" x="353.055107" y="347.992341" style="fill: #eb6ab0; stroke: #eb6ab0"/>
     <use xlink:href="#mccd5bf14a1" x="362.648512" y="347.992341" style="fill: #eb6ab0; stroke: #eb6ab0"/>
     <use xlink:href="#mccd5bf14a1" x="372.241916" y="347.992341" style="fill: #eb6ab0; stroke: #eb6ab0"/>
     <use xlink:href="#mccd5bf14a1" x="381.835321" y="347.992341" style="fill: #eb6ab0; stroke: #eb6ab0"/>
     <use xlink:href="#mccd5bf14a1" x="391.428725" y="347.992341" style="fill: #eb6ab0; stroke: #eb6ab0"/>
     <use xlink:href="#mccd5bf14a1" x="401.02213" y="347.992341" style="fill: #eb6ab0; stroke: #eb6ab0"/>
     <use xlink:href="#mccd5bf14a1" x="410.615535" y="347.992341" style="fill: #eb6ab0; stroke: #eb6ab0"/>
     <use xlink:href="#mccd5bf14a1" x="420.208939" y="347.992341" style="fill: #eb6ab0; stroke: #eb6ab0"/>
     <use xlink:href="#mccd5bf14a1" x="429.802344" y="347.992341" style="fill: #eb6ab0; stroke: #eb6ab0"/>
     <use xlink:href="#mccd5bf14a1" x="439.395749" y="347.992341" style="fill: #eb6ab0; stroke: #eb6ab0"/>
     <use xlink:href="#mccd5bf14a1" x="448.989153" y="347.992341" style="fill: #eb6ab0; stroke: #eb6ab0"/>
     <use xlink:href="#mccd5bf14a1" x="458.582558" y="347.992341" style="fill: #eb6ab0; stroke: #eb6ab0"/>
     <use xlink:href="#mccd5bf14a1" x="468.175963" y="347.992341" style="fill: #eb6ab0; stroke: #eb6ab0"/>
     <use xlink:href="#mccd5bf14a1" x="477.769367" y="347.992341" style="fill: #eb6ab0; stroke: #eb6ab0"/>
     <use xlink:href="#mccd5bf14a1" x="487.362772" y="347.992341" style="fill: #eb6ab0; stroke: #eb6ab0"/>
     <use xlink:href="#mccd5bf14a1" x="496.956176" y="347.992341" style="fill: #eb6ab0; stroke: #eb6ab0"/>
     <use xlink:href="#mccd5bf14a1" x="506.549581" y="347.992341" style="fill: #eb6ab0; stroke: #eb6ab0"/>
     <use xlink:href="#mccd5bf14a1" x="516.142986" y="347.992341" style="fill: #eb6ab0; stroke: #eb6ab0"/>
     <use xlink:href="#mccd5bf14a1" x="525.73639" y="347.992341" style="fill: #eb6ab0; stroke: #eb6ab0"/>
     <use xlink:href="#mccd5bf14a1" x="535.329795" y="347.992341" style="fill: #eb6ab0; stroke: #eb6ab0"/>
     <use xlink:href="#mccd5bf14a1" x="544.9232" y="347.992341" style="fill: #eb6ab0; stroke: #eb6ab0"/>
     <use xlink:href="#mccd5bf14a1" x="554.516604" y="347.992341" style="fill: #eb6ab0; stroke: #eb6ab0"/>
     <use xlink:href="#mccd5bf14a1" x="564.110009" y="347.992341" style="fill: #eb6ab0; stroke: #eb6ab0"/>
     <use xlink:href="#mccd5bf14a1" x="573.703414" y="347.992341" style="fill: #eb6ab0; stroke: #eb6ab0"/>
     <use xlink:href="#mccd5bf14a1" x="583.296818" y="347.992341" style="fill: #eb6ab0; stroke: #eb6ab0"/>
    </g>
   </g>
   <g id="line2d_1">
    <path d="M 94.033182 331.271931 
L 103.626586 326.713256 
L 113.219991 327.108824 
L 122.813396 328.022229 
L 132.4068 327.336615 
L 142.000205 326.254324 
L 151.59361 326.213084 
L 161.187014 328.253878 
L 170.780419 328.485405 
L 180.373824 328.176488 
L 189.967228 329.2543 
L 199.560633 328.903736 
L 209.154037 326.692262 
L 218.747442 334.550439 
L 228.340847 327.224833 
L 237.934251 307.866442 
L 247.527656 298.477339 
L 257.121061 270.718068 
L 266.714465 257.107893 
L 276.30787 261.145066 
L 285.901275 259.159329 
L 295.494679 236.59454 
L 305.088084 223.578717 
L 314.681488 228.810481 
L 324.274893 222.384444 
L 333.868298 224.914201 
L 343.461702 206.02191 
L 353.055107 176.89582 
L 362.648512 182.134412 
L 372.241916 167.393913 
L 381.835321 127.075177 
L 391.428725 119.657516 
L 401.02213 115.391175 
L 410.615535 88.167612 
L 420.208939 61.33444 
L 429.802344 62.774708 
L 439.395749 66.377467 
L 448.989153 68.47934 
L 458.582558 96.750626 
L 468.175963 105.404545 
L 477.769367 132.496538 
L 487.362772 147.946058 
L 496.956176 154.406726 
L 506.549581 155.969892 
L 516.142986 159.224233 
L 525.73639 163.799333 
L 535.329795 166.659479 
L 544.9232 165.977585 
L 554.516604 169.58975 
L 564.110009 170.596127 
L 573.703414 173.533113 
L 583.296818 225.245158 
" clip-path="url(#p1d1a6facdb)" style="fill: none; stroke: #8b0a50; stroke-width: 2; stroke-linecap: round"/>
   </g>
   <g id="line2d_2">
    <path d="M 94.033182 326.801837 
L 103.626586 327.06689 
L 113.219991 327.060503 
L 122.813396 327.300411 
L 132.4068 327.25841 
L 142.000205 327.18182 
L 151.59361 327.302546 
L 161.187014 327.206633 
L 170.780419 327.352923 
L 180.373824 327.296035 
L 189.967228 327.213351 
L 199.560633 327.24118 
L 209.154037 327.343304 
L 218.747442 327.377427 
L 228.340847 324.249177 
L 237.934251 321.275221 
L 247.527656 320.553018 
L 257.121061 318.827265 
L 266.714465 317.236333 
L 276.30787 315.530071 
L 285.901275 314.585967 
L 295.494679 313.539958 
L 305.088084 311.510279 
L 314.681488 309.383572 
L 324.274893 309.045666 
L 333.868298 307.215991 
L 343.461702 301.872341 
L 353.055107 295.007428 
L 362.648512 293.761526 
L 372.241916 292.904219 
L 381.835321 292.619708 
L 391.428725 292.149995 
L 401.02213 290.362469 
L 410.615535 289.485648 
L 420.208939 292.634019 
L 429.802344 293.325648 
L 439.395749 295.09093 
L 448.989153 299.727982 
L 458.582558 305.794555 
L 468.175963 306.648388 
L 477.769367 307.941374 
L 487.362772 308.720835 
L 496.956176 309.106766 
L 506.549581 309.160542 
L 516.142986 308.950205 
L 525.73639 309.27018 
L 535.329795 309.361411 
L 544.9232 309.375478 
L 554.516604 309.620404 
L 564.110009 309.813072 
L 573.703414 310.602987 
L 583.296818 316.133596 
" clip-path="url(#p1d1a6facdb)" style="fill: none; stroke-dasharray: 7.4,3.2; stroke-dashoffset: 0; stroke: #8b0a50; stroke-width: 2"/>
   </g>
   <g id="line2d_3">
    <path d="M 218.747442 378.18 
L 218.747442 27.6 
" clip-path="url(#p1d1a6facdb)" style="fill: none; stroke-dasharray: 5.55,2.4; stroke-dashoffset: 0; stroke: #1a1a1a; stroke-width: 1.5"/>
   </g>
   <g id="line2d_4">
    <path d="M 458.582558 378.18 
L 458.582558 27.6 
" clip-path="url(#p1d1a6facdb)" style="fill: none; stroke-dasharray: 5.55,2.4; stroke-dashoffset: 0; stroke: #1a1a1a; stroke-width: 1.5"/>
   </g>
   <g id="line2d_5">
    <path d="M 94.033182 332.059482 
L 103.626586 343.949637 
L 113.219991 318.828819 
L 122.813396 321.119459 
L 132.4068 321.306471 
L 142.000205 332.379605 
L 151.59361 336.4846 
L 161.187014 329.617109 
L 170.780419 331.239481 
L 180.373824 327.319039 
L 189.967228 330.014275 
L 199.560633 332.223289 
L 209.154037 327.252831 
L 218.747442 323.713252 
L 228.340847 328.843309 
L 237.934251 332.1569 
L 247.527656 332.129604 
L 257.121061 329.678727 
L 266.714465 323.157686 
L 276.30787 321.616761 
L 285.901275 317.644847 
L 295.494679 311.899101 
L 305.088084 311.426761 
L 314.681488 312.760031 
L 324.274893 311.619525 
L 333.868298 304.720046 
L 343.461702 298.85741 
L 353.055107 290.22278 
L 362.648512 282.558418 
L 372.241916 276.38729 
L 381.835321 271.244346 
L 391.428725 263.037679 
L 401.02213 256.071338 
L 410.615535 254.829098 
L 420.208939 250.717583 
L 429.802344 245.395228 
L 439.395749 242.4288 
L 448.989153 240.630972 
L 458.582558 240.07612 
L 468.175963 244.857139 
L 477.769367 254.997886 
L 487.362772 264.015979 
L 496.956176 266.667042 
L 506.549581 270.043478 
L 516.142986 271.795195 
L 525.73639 271.855267 
L 535.329795 273.624368 
L 544.9232 269.167765 
L 554.516604 270.784653 
L 564.110009 270.707922 
L 573.703414 267.022802 
L 583.296818 287.210398 
" clip-path="url(#p1d1a6facdb)" style="fill: none; stroke: #eb6ab0; stroke-width: 2; stroke-linecap: round"/>
   </g>
   <g id="line2d_6">
    <path d="M 94.033182 323.550627 
L 103.626586 323.878561 
L 113.219991 329.727663 
L 122.813396 331.878125 
L 132.4068 332.804336 
L 142.000205 332.746632 
L 151.59361 331.38297 
L 161.187014 329.885853 
L 170.780419 327.705646 
L 180.373824 327.323303 
L 189.967228 327.330463 
L 199.560633 327.207078 
L 209.154037 327.585966 
L 218.747442 327.704131 
L 228.340847 327.356013 
L 237.934251 327.501728 
L 247.527656 327.55081 
L 257.121061 327.112011 
L 266.714465 327.262215 
L 276.30787 326.401547 
L 285.901275 324.595316 
L 295.494679 323.385845 
L 305.088084 322.403872 
L 314.681488 320.796739 
L 324.274893 317.925431 
L 333.868298 315.787115 
L 343.461702 313.948724 
L 353.055107 311.049697 
L 362.648512 309.651128 
L 372.241916 308.902946 
L 381.835321 308.130332 
L 391.428725 307.950293 
L 401.02213 308.004793 
L 410.615535 308.355128 
L 420.208939 308.047385 
L 429.802344 307.827394 
L 439.395749 307.060189 
L 448.989153 307.371839 
L 458.582558 308.34116 
L 468.175963 309.420682 
L 477.769367 310.800499 
L 487.362772 311.807882 
L 496.956176 311.732885 
L 506.549581 311.220948 
L 516.142986 310.135311 
L 525.73639 309.347119 
L 535.329795 308.683999 
L 544.9232 307.90631 
L 554.516604 307.238662 
L 564.110009 307.315206 
L 573.703414 308.182811 
L 583.296818 315.12154 
" clip-path="url(#p1d1a6facdb)" style="fill: none; stroke-dasharray: 7.4,3.2; stroke-dashoffset: 0; stroke: #eb6ab0; stroke-width: 2"/>
   </g>
   <g id="line2d_7">
    <path d="M 218.747442 378.18 
L 218.747442 27.6 
" clip-path="url(#p1d1a6facdb)" style="fill: none; stroke-dasharray: 5.55,2.4; stroke-dashoffset: 0; stroke: #1a1a1a; stroke-width: 1.5"/>
   </g>
   <g id="line2d_8">
    <path d="M 458.582558 378.18 
L 458.582558 27.6 
" clip-path="url(#p1d1a6facdb)" style="fill: none; stroke-dasharray: 5.55,2.4; stroke-dashoffset: 0; stroke: #1a1a1a; stroke-width: 1.5"/>
   </g>
   <g id="patch_3">
    <path d="M 69.57 378.18 
L 69.57 27.6 
" style="fill: none; stroke: #cccccc; stroke-width: 1.5; stroke-linejoin: miter; stroke-linecap: square"/>
   </g>
   <g id="patch_4">
    <path d="M 69.57 378.18 
L 607.76 378.18 
" style="fill: none; stroke: #cccccc; stroke-width: 1.5; stroke-linejoin: miter; stroke-linecap: square"/>
   </g>
   <g id="text_18">
    <!-- Divergence Comparison: Original vs Shuffled -->
    <g style="fill: #262626" transform="translate(189.1525 21.6) scale(0.15 -0.15)">
     <defs>
      <path id="ArialMT-43" d="M 3763 1606 
L 4369 1453 
Q 4178 706 3683 314 
Q 3188 -78 2472 -78 
Q 1731 -78 1267 223 
Q 803 525 561 1097 
Q 319 1669 319 2325 
Q 319 3041 592 3573 
Q 866 4106 1370 4382 
Q 1875 4659 2481 4659 
Q 3169 4659 3637 4309 
Q 4106 3959 4291 3325 
L 3694 3184 
Q 3534 3684 3231 3912 
Q 2928 4141 2469 4141 
Q 1941 4141 1586 3887 
Q 1231 3634 1087 3207 
Q 944 2781 944 2328 
Q 944 1744 1114 1308 
Q 1284 872 1643 656 
Q 2003 441 2422 441 
Q 2931 441 3284 734 
Q 3638 1028 3763 1606 
z
" transform="scale(0.015625)"/>
      <path id="ArialMT-6f" d="M 213 1659 
Q 213 2581 725 3025 
Q 1153 3394 1769 3394 
Q 2453 3394 2887 2945 
Q 3322 2497 3322 1706 
Q 3322 1066 3130 698 
Q 2938 331 2570 128 
Q 2203 -75 1769 -75 
Q 1072 -75 642 372 
Q 213 819 213 1659 
z
M 791 1659 
Q 791 1022 1069 705 
Q 1347 388 1769 388 
Q 2188 388 2466 706 
Q 2744 1025 2744 1678 
Q 2744 2294 2464 2611 
Q 2184 2928 1769 2928 
Q 1347 2928 1069 2612 
Q 791 2297 791 1659 
z
" transform="scale(0.015625)"/>
      <path id="ArialMT-70" d="M 422 -1272 
L 422 3319 
L 934 3319 
L 934 2888 
Q 1116 3141 1344 3267 
Q 1572 3394 1897 3394 
Q 2322 3394 2647 3175 
Q 2972 2956 3137 2557 
Q 3303 2159 3303 1684 
Q 3303 1175 3120 767 
Q 2938 359 2589 142 
Q 2241 -75 1856 -75 
Q 1575 -75 1351 44 
Q 1128 163 984 344 
L 984 -1272 
L 422 -1272 
z
M 931 1641 
Q 931 1000 1190 694 
Q 1450 388 1819 388 
Q 2194 388 2461 705 
Q 2728 1022 2728 1688 
Q 2728 2322 2467 2637 
Q 2206 2953 1844 2953 
Q 1484 2953 1207 2617 
Q 931 2281 931 1641 
z
" transform="scale(0.015625)"/>
      <path id="ArialMT-61" d="M 2588 409 
Q 2275 144 1986 34 
Q 1697 -75 1366 -75 
Q 819 -75 525 192 
Q 231 459 231 875 
Q 231 1119 342 1320 
Q 453 1522 633 1644 
Q 813 1766 1038 1828 
Q 1203 1872 1538 1913 
Q 2219 1994 2541 2106 
Q 2544 2222 2544 2253 
Q 2544 2597 2384 2738 
Q 2169 2928 1744 2928 
Q 1347 2928 1158 2789 
Q 969 2650 878 2297 
L 328 2372 
Q 403 2725 575 2942 
Q 747 3159 1072 3276 
Q 1397 3394 1825 3394 
Q 2250 3394 2515 3294 
Q 2781 3194 2906 3042 
Q 3031 2891 3081 2659 
Q 3109 2516 3109 2141 
L 3109 1391 
Q 3109 606 3145 398 
Q 3181 191 3288 0 
L 2700 0 
Q 2613 175 2588 409 
z
M 2541 1666 
Q 2234 1541 1622 1453 
Q 1275 1403 1131 1340 
Q 988 1278 909 1158 
Q 831 1038 831 891 
Q 831 666 1001 516 
Q 1172 366 1500 366 
Q 1825 366 2078 508 
Q 2331 650 2450 897 
Q 2541 1088 2541 1459 
L 2541 1666 
z
" transform="scale(0.015625)"/>
      <path id="ArialMT-3a" d="M 578 2678 
L 578 3319 
L 1219 3319 
L 1219 2678 
L 578 2678 
z
M 578 0 
L 578 641 
L 1219 641 
L 1219 0 
L 578 0 
z
" transform="scale(0.015625)"/>
      <path id="ArialMT-4f" d="M 309 2231 
Q 309 3372 921 4017 
Q 1534 4663 2503 4663 
Q 3138 4663 3647 4359 
Q 4156 4056 4423 3514 
Q 4691 2972 4691 2284 
Q 4691 1588 4409 1038 
Q 4128 488 3612 205 
Q 3097 -78 2500 -78 
Q 1853 -78 1343 234 
Q 834 547 571 1087 
Q 309 1628 309 2231 
z
M 934 2222 
Q 934 1394 1379 917 
Q 1825 441 2497 441 
Q 3181 441 3623 922 
Q 4066 1403 4066 2288 
Q 4066 2847 3877 3264 
Q 3688 3681 3323 3911 
Q 2959 4141 2506 4141 
Q 1863 4141 1398 3698 
Q 934 3256 934 2222 
z
" transform="scale(0.015625)"/>
      <path id="ArialMT-6c" d="M 409 0 
L 409 4581 
L 972 4581 
L 972 0 
L 409 0 
z
" transform="scale(0.015625)"/>
      <path id="ArialMT-53" d="M 288 1472 
L 859 1522 
Q 900 1178 1048 958 
Q 1197 738 1509 602 
Q 1822 466 2213 466 
Q 2559 466 2825 569 
Q 3091 672 3220 851 
Q 3350 1031 3350 1244 
Q 3350 1459 3225 1620 
Q 3100 1781 2813 1891 
Q 2628 1963 1997 2114 
Q 1366 2266 1113 2400 
Q 784 2572 623 2826 
Q 463 3081 463 3397 
Q 463 3744 659 4045 
Q 856 4347 1234 4503 
Q 1613 4659 2075 4659 
Q 2584 4659 2973 4495 
Q 3363 4331 3572 4012 
Q 3781 3694 3797 3291 
L 3216 3247 
Q 3169 3681 2898 3903 
Q 2628 4125 2100 4125 
Q 1550 4125 1298 3923 
Q 1047 3722 1047 3438 
Q 1047 3191 1225 3031 
Q 1400 2872 2139 2705 
Q 2878 2538 3153 2413 
Q 3553 2228 3743 1945 
Q 3934 1663 3934 1294 
Q 3934 928 3725 604 
Q 3516 281 3123 101 
Q 2731 -78 2241 -78 
Q 1619 -78 1198 103 
Q 778 284 539 648 
Q 300 1013 288 1472 
z
" transform="scale(0.015625)"/>
      <path id="ArialMT-68" d="M 422 0 
L 422 4581 
L 984 4581 
L 984 2938 
Q 1378 3394 1978 3394 
Q 2347 3394 2619 3248 
Q 2891 3103 3008 2847 
Q 3125 2591 3125 2103 
L 3125 0 
L 2563 0 
L 2563 2103 
Q 2563 2525 2380 2717 
Q 2197 2909 1863 2909 
Q 1613 2909 1392 2779 
Q 1172 2650 1078 2428 
Q 984 2206 984 1816 
L 984 0 
L 422 0 
z
" transform="scale(0.015625)"/>
      <path id="ArialMT-75" d="M 2597 0 
L 2597 488 
Q 2209 -75 1544 -75 
Q 1250 -75 995 37 
Q 741 150 617 320 
Q 494 491 444 738 
Q 409 903 409 1263 
L 409 3319 
L 972 3319 
L 972 1478 
Q 972 1038 1006 884 
Q 1059 663 1231 536 
Q 1403 409 1656 409 
Q 1909 409 2131 539 
Q 2353 669 2445 892 
Q 2538 1116 2538 1541 
L 2538 3319 
L 3100 3319 
L 3100 0 
L 2597 0 
z
" transform="scale(0.015625)"/>
      <path id="ArialMT-66" d="M 556 0 
L 556 2881 
L 59 2881 
L 59 3319 
L 556 3319 
L 556 3672 
Q 556 4006 616 4169 
Q 697 4388 901 4523 
Q 1106 4659 1475 4659 
Q 1713 4659 2000 4603 
L 1916 4113 
Q 1741 4144 1584 4144 
Q 1328 4144 1222 4034 
Q 1116 3925 1116 3625 
L 1116 3319 
L 1763 3319 
L 1763 2881 
L 1116 2881 
L 1116 0 
L 556 0 
z
" transform="scale(0.015625)"/>
      <path id="ArialMT-64" d="M 2575 0 
L 2575 419 
Q 2259 -75 1647 -75 
Q 1250 -75 917 144 
Q 584 363 401 755 
Q 219 1147 219 1656 
Q 219 2153 384 2558 
Q 550 2963 881 3178 
Q 1213 3394 1622 3394 
Q 1922 3394 2156 3267 
Q 2391 3141 2538 2938 
L 2538 4581 
L 3097 4581 
L 3097 0 
L 2575 0 
z
M 797 1656 
Q 797 1019 1065 703 
Q 1334 388 1700 388 
Q 2069 388 2326 689 
Q 2584 991 2584 1609 
Q 2584 2291 2321 2609 
Q 2059 2928 1675 2928 
Q 1300 2928 1048 2622 
Q 797 2316 797 1656 
z
" transform="scale(0.015625)"/>
     </defs>
     <use xlink:href="#ArialMT-44"/>
     <use xlink:href="#ArialMT-69" x="72.216797"/>
     <use xlink:href="#ArialMT-76" x="94.433594"/>
     <use xlink:href="#ArialMT-65" x="144.433594"/>
     <use xlink:href="#ArialMT-72" x="200.048828"/>
     <use xlink:href="#ArialMT-67" x="233.349609"/>
     <use xlink:href="#ArialMT-65" x="288.964844"/>
     <use xlink:href="#ArialMT-6e" x="344.580078"/>
     <use xlink:href="#ArialMT-63" x="400.195312"/>
     <use xlink:href="#ArialMT-65" x="450.195312"/>
     <use xlink:href="#ArialMT-20" x="505.810547"/>
     <use xlink:href="#ArialMT-43" x="533.59375"/>
     <use xlink:href="#ArialMT-6f" x="605.810547"/>
     <use xlink:href="#ArialMT-6d" x="661.425781"/>
     <use xlink:href="#ArialMT-70" x="744.726562"/>
     <use xlink:href="#ArialMT-61" x="800.341797"/>
     <use xlink:href="#ArialMT-72" x="855.957031"/>
     <use xlink:href="#ArialMT-69" x="889.257812"/>
     <use xlink:href="#ArialMT-73" x="911.474609"/>
     <use xlink:href="#ArialMT-6f" x="961.474609"/>
     <use xlink:href="#ArialMT-6e" x="1017.089844"/>
     <use xlink:href="#ArialMT-3a" x="1072.705078"/>
     <use xlink:href="#ArialMT-20" x="1100.488281"/>
     <use xlink:href="#ArialMT-4f" x="1128.271484"/>
     <use xlink:href="#ArialMT-72" x="1206.054688"/>
     <use xlink:href="#ArialMT-69" x="1239.355469"/>
     <use xlink:href="#ArialMT-67" x="1261.572266"/>
     <use xlink:href="#ArialMT-69" x="1317.1875"/>
     <use xlink:href="#ArialMT-6e" x="1339.404297"/>
     <use xlink:href="#ArialMT-61" x="1395.019531"/>
     <use xlink:href="#ArialMT-6c" x="1450.634766"/>
     <use xlink:href="#ArialMT-20" x="1472.851562"/>
     <use xlink:href="#ArialMT-76" x="1500.634766"/>
     <use xlink:href="#ArialMT-73" x="1550.634766"/>
     <use xlink:href="#ArialMT-20" x="1600.634766"/>
     <use xlink:href="#ArialMT-53" x="1628.417969"/>
     <use xlink:href="#ArialMT-68" x="1695.117188"/>
     <use xlink:href="#ArialMT-75" x="1750.732422"/>
     <use xlink:href="#ArialMT-66" x="1806.347656"/>
     <use xlink:href="#ArialMT-66" x="1832.380859"/>
     <use xlink:href="#ArialMT-6c" x="1860.164062"/>
     <use xlink:href="#ArialMT-65" x="1882.380859"/>
     <use xlink:href="#ArialMT-64" x="1937.996094"/>
    </g>
   </g>
   <g id="legend_1">
    <g id="patch_5">
     <path d="M 615.46 259.555469 
L 705.061875 259.555469 
Q 707.261875 259.555469 707.261875 257.355469 
L 707.261875 148.424531 
Q 707.261875 146.224531 705.061875 146.224531 
L 615.46 146.224531 
Q 613.26 146.224531 613.26 148.424531 
L 613.26 257.355469 
Q 613.26 259.555469 615.46 259.555469 
z
" style="fill: #ffffff; opacity: 0.8; stroke: #cccccc; stroke-linejoin: miter"/>
    </g>
    <g id="line2d_9">
     <path d="M 617.66 154.789062 
L 628.66 154.789062 
L 639.66 154.789062 
" style="fill: none; stroke: #8b0a50; stroke-width: 2; stroke-linecap: round"/>
    </g>
    <g id="text_19">
     <!-- Original -->
     <g style="fill: #262626" transform="translate(648.46 158.639062) scale(0.11 -0.11)">
      <use xlink:href="#ArialMT-4f"/>
      <use xlink:href="#ArialMT-72" x="77.783203"/>
      <use xlink:href="#ArialMT-69" x="111.083984"/>
      <use xlink:href="#ArialMT-67" x="133.300781"/>
      <use xlink:href="#ArialMT-69" x="188.916016"/>
      <use xlink:href="#ArialMT-6e" x="211.132812"/>
      <use xlink:href="#ArialMT-61" x="266.748047"/>
      <use xlink:href="#ArialMT-6c" x="322.363281"/>
     </g>
    </g>
    <g id="line2d_10">
     <path d="M 617.66 170.61875 
L 628.66 170.61875 
L 639.66 170.61875 
" style="fill: none; stroke-dasharray: 7.4,3.2; stroke-dashoffset: 0; stroke: #8b0a50; stroke-width: 2"/>
    </g>
    <g id="text_20">
     <!-- Original -->
     <g style="fill: #262626" transform="translate(648.46 174.46875) scale(0.11 -0.11)">
      <use xlink:href="#ArialMT-4f"/>
      <use xlink:href="#ArialMT-72" x="77.783203"/>
      <use xlink:href="#ArialMT-69" x="111.083984"/>
      <use xlink:href="#ArialMT-67" x="133.300781"/>
      <use xlink:href="#ArialMT-69" x="188.916016"/>
      <use xlink:href="#ArialMT-6e" x="211.132812"/>
      <use xlink:href="#ArialMT-61" x="266.748047"/>
      <use xlink:href="#ArialMT-6c" x="322.363281"/>
     </g>
    </g>
    <g id="PathCollection_3">
     <g>
      <use xlink:href="#meed67928fa" x="628.66" y="187.302656" style="fill: #8b0a50; stroke: #8b0a50"/>
     </g>
    </g>
    <g id="text_21">
     <!-- p &lt; 0.001 -->
     <g style="fill: #262626" transform="translate(648.46 190.190156) scale(0.11 -0.11)">
      <defs>
       <path id="ArialMT-3c" d="M 350 2003 
L 350 2528 
L 3384 3809 
L 3384 3250 
L 978 2263 
L 3384 1266 
L 3384 706 
L 350 2003 
z
" transform="scale(0.015625)"/>
      </defs>
      <use xlink:href="#ArialMT-70"/>
      <use xlink:href="#ArialMT-20" x="55.615234"/>
      <use xlink:href="#ArialMT-3c" x="83.398438"/>
      <use xlink:href="#ArialMT-20" x="141.796875"/>
      <use xlink:href="#ArialMT-30" x="169.580078"/>
      <use xlink:href="#ArialMT-2e" x="225.195312"/>
      <use xlink:href="#ArialMT-30" x="252.978516"/>
      <use xlink:href="#ArialMT-30" x="308.59375"/>
      <use xlink:href="#ArialMT-31" x="364.208984"/>
     </g>
    </g>
    <g id="line2d_11">
     <path d="M 617.66 201.9 
L 628.66 201.9 
L 639.66 201.9 
" style="fill: none; stroke-dasharray: 5.55,2.4; stroke-dashoffset: 0; stroke: #1a1a1a; stroke-width: 1.5"/>
    </g>
    <g id="text_22">
     <!-- Stim Onset -->
     <g style="fill: #262626" transform="translate(648.46 205.75) scale(0.11 -0.11)">
      <defs>
       <path id="ArialMT-74" d="M 1650 503 
L 1731 6 
Q 1494 -44 1306 -44 
Q 1000 -44 831 53 
Q 663 150 594 308 
Q 525 466 525 972 
L 525 2881 
L 113 2881 
L 113 3319 
L 525 3319 
L 525 4141 
L 1084 4478 
L 1084 3319 
L 1650 3319 
L 1650 2881 
L 1084 2881 
L 1084 941 
Q 1084 700 1114 631 
Q 1144 563 1211 522 
Q 1278 481 1403 481 
Q 1497 481 1650 503 
z
" transform="scale(0.015625)"/>
      </defs>
      <use xlink:href="#ArialMT-53"/>
      <use xlink:href="#ArialMT-74" x="66.699219"/>
      <use xlink:href="#ArialMT-69" x="94.482422"/>
      <use xlink:href="#ArialMT-6d" x="116.699219"/>
      <use xlink:href="#ArialMT-20" x="200"/>
      <use xlink:href="#ArialMT-4f" x="227.783203"/>
      <use xlink:href="#ArialMT-6e" x="305.566406"/>
      <use xlink:href="#ArialMT-73" x="361.181641"/>
      <use xlink:href="#ArialMT-65" x="411.181641"/>
      <use xlink:href="#ArialMT-74" x="466.796875"/>
     </g>
    </g>
    <g id="line2d_12">
     <path d="M 617.66 217.459844 
L 628.66 217.459844 
L 639.66 217.459844 
" style="fill: none; stroke-dasharray: 5.55,2.4; stroke-dashoffset: 0; stroke: #1a1a1a; stroke-width: 1.5"/>
    </g>
    <g id="text_23">
     <!-- Stim End -->
     <g style="fill: #262626" transform="translate(648.46 221.309844) scale(0.11 -0.11)">
      <defs>
       <path id="ArialMT-45" d="M 506 0 
L 506 4581 
L 3819 4581 
L 3819 4041 
L 1113 4041 
L 1113 2638 
L 3647 2638 
L 3647 2100 
L 1113 2100 
L 1113 541 
L 3925 541 
L 3925 0 
L 506 0 
z
" transform="scale(0.015625)"/>
      </defs>
      <use xlink:href="#ArialMT-53"/>
      <use xlink:href="#ArialMT-74" x="66.699219"/>
      <use xlink:href="#ArialMT-69" x="94.482422"/>
      <use xlink:href="#ArialMT-6d" x="116.699219"/>
      <use xlink:href="#ArialMT-20" x="200"/>
      <use xlink:href="#ArialMT-45" x="227.783203"/>
      <use xlink:href="#ArialMT-6e" x="294.482422"/>
      <use xlink:href="#ArialMT-64" x="350.097656"/>
     </g>
    </g>
    <g id="line2d_13">
     <path d="M 617.66 233.160625 
L 628.66 233.160625 
L 639.66 233.160625 
" style="fill: none; stroke: #eb6ab0; stroke-width: 2; stroke-linecap: round"/>
    </g>
    <g id="text_24">
     <!-- Original -->
     <g style="fill: #262626" transform="translate(648.46 237.010625) scale(0.11 -0.11)">
      <use xlink:href="#ArialMT-4f"/>
      <use xlink:href="#ArialMT-72" x="77.783203"/>
      <use xlink:href="#ArialMT-69" x="111.083984"/>
      <use xlink:href="#ArialMT-67" x="133.300781"/>
      <use xlink:href="#ArialMT-69" x="188.916016"/>
      <use xlink:href="#ArialMT-6e" x="211.132812"/>
      <use xlink:href="#ArialMT-61" x="266.748047"/>
      <use xlink:href="#ArialMT-6c" x="322.363281"/>
     </g>
    </g>
    <g id="line2d_14">
     <path d="M 617.66 248.990312 
L 628.66 248.990312 
L 639.66 248.990312 
" style="fill: none; stroke-dasharray: 7.4,3.2; stroke-dashoffset: 0; stroke: #eb6ab0; stroke-width: 2"/>
    </g>
    <g id="text_25">
     <!-- Original -->
     <g style="fill: #262626" transform="translate(648.46 252.840312) scale(0.11 -0.11)">
      <use xlink:href="#ArialMT-4f"/>
      <use xlink:href="#ArialMT-72" x="77.783203"/>
      <use xlink:href="#ArialMT-69" x="111.083984"/>
      <use xlink:href="#ArialMT-67" x="133.300781"/>
      <use xlink:href="#ArialMT-69" x="188.916016"/>
      <use xlink:href="#ArialMT-6e" x="211.132812"/>
      <use xlink:href="#ArialMT-61" x="266.748047"/>
      <use xlink:href="#ArialMT-6c" x="322.363281"/>
     </g>
    </g>
   </g>
  </g>
 </g>
 <defs>
  <clipPath id="p1d1a6facdb">
   <rect x="69.57" y="27.6" width="538.19" height="350.58"/>
  </clipPath>
 </defs>
</svg>
