<?xml version="1.0" encoding="utf-8" standalone="no"?>
<!DOCTYPE svg PUBLIC "-//W3C//DTD SVG 1.1//EN"
  "http://www.w3.org/Graphics/SVG/1.1/DTD/svg11.dtd">
<svg xmlns:xlink="http://www.w3.org/1999/xlink" width="720pt" height="432pt" viewBox="0 0 720 432" xmlns="http://www.w3.org/2000/svg" version="1.1">
 <metadata>
  <rdf:RDF xmlns:dc="http://purl.org/dc/elements/1.1/" xmlns:cc="http://creativecommons.org/ns#" xmlns:rdf="http://www.w3.org/1999/02/22-rdf-syntax-ns#">
   <cc:Work>
    <dc:type rdf:resource="http://purl.org/dc/dcmitype/StillImage"/>
    <dc:date>2025-11-02T16:35:04.911035</dc:date>
    <dc:format>image/svg+xml</dc:format>
    <dc:creator>
     <cc:Agent>
      <dc:title>Matplotlib v3.9.4, https://matplotlib.org/</dc:title>
     </cc:Agent>
    </dc:creator>
   </cc:Work>
  </rdf:RDF>
 </metadata>
 <defs>
  <style type="text/css">*{stroke-linejoin: round; stroke-linecap: butt}</style>
 </defs>
 <g id="figure_1">
  <g id="patch_1">
   <path d="M 0 432 
L 720 432 
L 720 0 
L 0 0 
z
" style="fill: #ffffff"/>
  </g>
  <g id="axes_1">
   <g id="patch_2">
    <path d="M 60.335 378.54 
L 607.44 378.54 
L 607.44 26.96 
L 60.335 26.96 
L 60.335 378.54 
z
" style="fill: none"/>
   </g>
   <g id="matplotlib.axis_1">
    <g id="xtick_1">
     <g id="line2d_1">
      <defs>
       <path id="m50461a63b0" d="M 0 0 
L 0 5 
" style="stroke: #262626; stroke-width: 1.5"/>
      </defs>
      <g>
       <use xlink:href="#m50461a63b0" x="70.745032" y="378.54" style="fill: #262626; stroke: #262626; stroke-width: 1.5"/>
      </g>
     </g>
     <g id="text_1">
      <!-- −250 -->
      <g style="fill: #262626" transform="translate(53.852454 397.776719) scale(0.15 -0.15)">
       <defs>
        <path id="ArialMT-2212" d="M 3381 1997 
L 356 1997 
L 356 2522 
L 3381 2522 
L 3381 1997 
z
" transform="scale(0.015625)"/>
        <path id="ArialMT-32" d="M 3222 541 
L 3222 0 
L 194 0 
Q 188 203 259 391 
Q 375 700 629 1000 
Q 884 1300 1366 1694 
Q 2113 2306 2375 2664 
Q 2638 3022 2638 3341 
Q 2638 3675 2398 3904 
Q 2159 4134 1775 4134 
Q 1369 4134 1125 3890 
Q 881 3647 878 3216 
L 300 3275 
Q 359 3922 746 4261 
Q 1134 4600 1788 4600 
Q 2447 4600 2831 4234 
Q 3216 3869 3216 3328 
Q 3216 3053 3103 2787 
Q 2991 2522 2730 2228 
Q 2469 1934 1863 1422 
Q 1356 997 1212 845 
Q 1069 694 975 541 
L 3222 541 
z
" transform="scale(0.015625)"/>
        <path id="ArialMT-35" d="M 266 1200 
L 856 1250 
Q 922 819 1161 601 
Q 1400 384 1738 384 
Q 2144 384 2425 690 
Q 2706 997 2706 1503 
Q 2706 1984 2436 2262 
Q 2166 2541 1728 2541 
Q 1456 2541 1237 2417 
Q 1019 2294 894 2097 
L 366 2166 
L 809 4519 
L 3088 4519 
L 3088 3981 
L 1259 3981 
L 1013 2750 
Q 1425 3038 1878 3038 
Q 2478 3038 2890 2622 
Q 3303 2206 3303 1553 
Q 3303 931 2941 478 
Q 2500 -78 1738 -78 
Q 1113 -78 717 272 
Q 322 622 266 1200 
z
" transform="scale(0.015625)"/>
        <path id="ArialMT-30" d="M 266 2259 
Q 266 3072 433 3567 
Q 600 4063 929 4331 
Q 1259 4600 1759 4600 
Q 2128 4600 2406 4451 
Q 2684 4303 2865 4023 
Q 3047 3744 3150 3342 
Q 3253 2941 3253 2259 
Q 3253 1453 3087 958 
Q 2922 463 2592 192 
Q 2263 -78 1759 -78 
Q 1097 -78 719 397 
Q 266 969 266 2259 
z
M 844 2259 
Q 844 1131 1108 757 
Q 1372 384 1759 384 
Q 2147 384 2411 759 
Q 2675 1134 2675 2259 
Q 2675 3391 2411 3762 
Q 2147 4134 1753 4134 
Q 1366 4134 1134 3806 
Q 844 3388 844 2259 
z
" transform="scale(0.015625)"/>
       </defs>
       <use xlink:href="#ArialMT-2212"/>
       <use xlink:href="#ArialMT-32" x="58.398438"/>
       <use xlink:href="#ArialMT-35" x="114.013672"/>
       <use xlink:href="#ArialMT-30" x="169.628906"/>
      </g>
     </g>
    </g>
    <g id="xtick_2">
     <g id="line2d_2">
      <g>
       <use xlink:href="#m50461a63b0" x="143.036919" y="378.54" style="fill: #262626; stroke: #262626; stroke-width: 1.5"/>
      </g>
     </g>
     <g id="text_2">
      <!-- 0 -->
      <g style="fill: #262626" transform="translate(138.866215 397.776719) scale(0.15 -0.15)">
       <use xlink:href="#ArialMT-30"/>
      </g>
     </g>
    </g>
    <g id="xtick_3">
     <g id="line2d_3">
      <g>
       <use xlink:href="#m50461a63b0" x="215.328805" y="378.54" style="fill: #262626; stroke: #262626; stroke-width: 1.5"/>
      </g>
     </g>
     <g id="text_3">
      <!-- 250 -->
      <g style="fill: #262626" transform="translate(202.816696 397.776719) scale(0.15 -0.15)">
       <use xlink:href="#ArialMT-32"/>
       <use xlink:href="#ArialMT-35" x="55.615234"/>
       <use xlink:href="#ArialMT-30" x="111.230469"/>
      </g>
     </g>
    </g>
    <g id="xtick_4">
     <g id="line2d_4">
      <g>
       <use xlink:href="#m50461a63b0" x="287.620692" y="378.54" style="fill: #262626; stroke: #262626; stroke-width: 1.5"/>
      </g>
     </g>
     <g id="text_4">
      <!-- 500 -->
      <g style="fill: #262626" transform="translate(275.108583 397.776719) scale(0.15 -0.15)">
       <use xlink:href="#ArialMT-35"/>
       <use xlink:href="#ArialMT-30" x="55.615234"/>
       <use xlink:href="#ArialMT-30" x="111.230469"/>
      </g>
     </g>
    </g>
    <g id="xtick_5">
     <g id="line2d_5">
      <g>
       <use xlink:href="#m50461a63b0" x="359.912579" y="378.54" style="fill: #262626; stroke: #262626; stroke-width: 1.5"/>
      </g>
     </g>
     <g id="text_5">
      <!-- 750 -->
      <g style="fill: #262626" transform="translate(347.40047 397.776719) scale(0.15 -0.15)">
       <defs>
        <path id="ArialMT-37" d="M 303 3981 
L 303 4522 
L 3269 4522 
L 3269 4084 
Q 2831 3619 2401 2847 
Q 1972 2075 1738 1259 
Q 1569 684 1522 0 
L 944 0 
Q 953 541 1156 1306 
Q 1359 2072 1739 2783 
Q 2119 3494 2547 3981 
L 303 3981 
z
" transform="scale(0.015625)"/>
       </defs>
       <use xlink:href="#ArialMT-37"/>
       <use xlink:href="#ArialMT-35" x="55.615234"/>
       <use xlink:href="#ArialMT-30" x="111.230469"/>
      </g>
     </g>
    </g>
    <g id="xtick_6">
     <g id="line2d_6">
      <g>
       <use xlink:href="#m50461a63b0" x="432.204466" y="378.54" style="fill: #262626; stroke: #262626; stroke-width: 1.5"/>
      </g>
     </g>
     <g id="text_6">
      <!-- 1000 -->
      <g style="fill: #262626" transform="translate(415.521654 397.776719) scale(0.15 -0.15)">
       <defs>
        <path id="ArialMT-31" d="M 2384 0 
L 1822 0 
L 1822 3584 
Q 1619 3391 1289 3197 
Q 959 3003 697 2906 
L 697 3450 
Q 1169 3672 1522 3987 
Q 1875 4303 2022 4600 
L 2384 4600 
L 2384 0 
z
" transform="scale(0.015625)"/>
       </defs>
       <use xlink:href="#ArialMT-31"/>
       <use xlink:href="#ArialMT-30" x="55.615234"/>
       <use xlink:href="#ArialMT-30" x="111.230469"/>
       <use xlink:href="#ArialMT-30" x="166.845703"/>
      </g>
     </g>
    </g>
    <g id="xtick_7">
     <g id="line2d_7">
      <g>
       <use xlink:href="#m50461a63b0" x="504.496353" y="378.54" style="fill: #262626; stroke: #262626; stroke-width: 1.5"/>
      </g>
     </g>
     <g id="text_7">
      <!-- 1250 -->
      <g style="fill: #262626" transform="translate(487.813541 397.776719) scale(0.15 -0.15)">
       <use xlink:href="#ArialMT-31"/>
       <use xlink:href="#ArialMT-32" x="55.615234"/>
       <use xlink:href="#ArialMT-35" x="111.230469"/>
       <use xlink:href="#ArialMT-30" x="166.845703"/>
      </g>
     </g>
    </g>
    <g id="xtick_8">
     <g id="line2d_8">
      <g>
       <use xlink:href="#m50461a63b0" x="576.78824" y="378.54" style="fill: #262626; stroke: #262626; stroke-width: 1.5"/>
      </g>
     </g>
     <g id="text_8">
      <!-- 1500 -->
      <g style="fill: #262626" transform="translate(560.105427 397.776719) scale(0.15 -0.15)">
       <use xlink:href="#ArialMT-31"/>
       <use xlink:href="#ArialMT-35" x="55.615234"/>
       <use xlink:href="#ArialMT-30" x="111.230469"/>
       <use xlink:href="#ArialMT-30" x="166.845703"/>
      </g>
     </g>
    </g>
    <g id="text_9">
     <!-- Time (s) -->
     <g style="fill: #262626" transform="translate(306.675391 415.6775) scale(0.15 -0.15)">
      <defs>
       <path id="ArialMT-54" d="M 1659 0 
L 1659 4041 
L 150 4041 
L 150 4581 
L 3781 4581 
L 3781 4041 
L 2266 4041 
L 2266 0 
L 1659 0 
z
" transform="scale(0.015625)"/>
       <path id="ArialMT-69" d="M 425 3934 
L 425 4581 
L 988 4581 
L 988 3934 
L 425 3934 
z
M 425 0 
L 425 3319 
L 988 3319 
L 988 0 
L 425 0 
z
" transform="scale(0.015625)"/>
       <path id="ArialMT-6d" d="M 422 0 
L 422 3319 
L 925 3319 
L 925 2853 
Q 1081 3097 1340 3245 
Q 1600 3394 1931 3394 
Q 2300 3394 2536 3241 
Q 2772 3088 2869 2813 
Q 3263 3394 3894 3394 
Q 4388 3394 4653 3120 
Q 4919 2847 4919 2278 
L 4919 0 
L 4359 0 
L 4359 2091 
Q 4359 2428 4304 2576 
Q 4250 2725 4106 2815 
Q 3963 2906 3769 2906 
Q 3419 2906 3187 2673 
Q 2956 2441 2956 1928 
L 2956 0 
L 2394 0 
L 2394 2156 
Q 2394 2531 2256 2718 
Q 2119 2906 1806 2906 
Q 1569 2906 1367 2781 
Q 1166 2656 1075 2415 
Q 984 2175 984 1722 
L 984 0 
L 422 0 
z
" transform="scale(0.015625)"/>
       <path id="ArialMT-65" d="M 2694 1069 
L 3275 997 
Q 3138 488 2766 206 
Q 2394 -75 1816 -75 
Q 1088 -75 661 373 
Q 234 822 234 1631 
Q 234 2469 665 2931 
Q 1097 3394 1784 3394 
Q 2450 3394 2872 2941 
Q 3294 2488 3294 1666 
Q 3294 1616 3291 1516 
L 816 1516 
Q 847 969 1125 678 
Q 1403 388 1819 388 
Q 2128 388 2347 550 
Q 2566 713 2694 1069 
z
M 847 1978 
L 2700 1978 
Q 2663 2397 2488 2606 
Q 2219 2931 1791 2931 
Q 1403 2931 1139 2672 
Q 875 2413 847 1978 
z
" transform="scale(0.015625)"/>
       <path id="ArialMT-20" transform="scale(0.015625)"/>
       <path id="ArialMT-28" d="M 1497 -1347 
Q 1031 -759 709 28 
Q 388 816 388 1659 
Q 388 2403 628 3084 
Q 909 3875 1497 4659 
L 1900 4659 
Q 1522 4009 1400 3731 
Q 1209 3300 1100 2831 
Q 966 2247 966 1656 
Q 966 153 1900 -1347 
L 1497 -1347 
z
" transform="scale(0.015625)"/>
       <path id="ArialMT-73" d="M 197 991 
L 753 1078 
Q 800 744 1014 566 
Q 1228 388 1613 388 
Q 2000 388 2187 545 
Q 2375 703 2375 916 
Q 2375 1106 2209 1216 
Q 2094 1291 1634 1406 
Q 1016 1563 777 1677 
Q 538 1791 414 1992 
Q 291 2194 291 2438 
Q 291 2659 392 2848 
Q 494 3038 669 3163 
Q 800 3259 1026 3326 
Q 1253 3394 1513 3394 
Q 1903 3394 2198 3281 
Q 2494 3169 2634 2976 
Q 2775 2784 2828 2463 
L 2278 2388 
Q 2241 2644 2061 2787 
Q 1881 2931 1553 2931 
Q 1166 2931 1000 2803 
Q 834 2675 834 2503 
Q 834 2394 903 2306 
Q 972 2216 1119 2156 
Q 1203 2125 1616 2013 
Q 2213 1853 2448 1751 
Q 2684 1650 2818 1456 
Q 2953 1263 2953 975 
Q 2953 694 2789 445 
Q 2625 197 2315 61 
Q 2006 -75 1616 -75 
Q 969 -75 630 194 
Q 291 463 197 991 
z
" transform="scale(0.015625)"/>
       <path id="ArialMT-29" d="M 791 -1347 
L 388 -1347 
Q 1322 153 1322 1656 
Q 1322 2244 1188 2822 
Q 1081 3291 891 3722 
Q 769 4003 388 4659 
L 791 4659 
Q 1378 3875 1659 3084 
Q 1900 2403 1900 1659 
Q 1900 816 1576 28 
Q 1253 -759 791 -1347 
z
" transform="scale(0.015625)"/>
      </defs>
      <use xlink:href="#ArialMT-54"/>
      <use xlink:href="#ArialMT-69" x="57.333984"/>
      <use xlink:href="#ArialMT-6d" x="79.550781"/>
      <use xlink:href="#ArialMT-65" x="162.851562"/>
      <use xlink:href="#ArialMT-20" x="218.466797"/>
      <use xlink:href="#ArialMT-28" x="246.25"/>
      <use xlink:href="#ArialMT-73" x="279.550781"/>
      <use xlink:href="#ArialMT-29" x="329.550781"/>
     </g>
    </g>
   </g>
   <g id="matplotlib.axis_2">
    <g id="ytick_1">
     <g id="line2d_9">
      <defs>
       <path id="mdccd10e8c3" d="M 0 0 
L -5 0 
" style="stroke: #262626; stroke-width: 1.5"/>
      </defs>
      <g>
       <use xlink:href="#mdccd10e8c3" x="60.335" y="354.180426" style="fill: #262626; stroke: #262626; stroke-width: 1.5"/>
      </g>
     </g>
     <g id="text_10">
      <!-- 0.0 -->
      <g style="fill: #262626" transform="translate(30.985 359.548785) scale(0.15 -0.15)">
       <defs>
        <path id="ArialMT-2e" d="M 581 0 
L 581 641 
L 1222 641 
L 1222 0 
L 581 0 
z
" transform="scale(0.015625)"/>
       </defs>
       <use xlink:href="#ArialMT-30"/>
       <use xlink:href="#ArialMT-2e" x="55.615234"/>
       <use xlink:href="#ArialMT-30" x="83.398438"/>
      </g>
     </g>
    </g>
    <g id="ytick_2">
     <g id="line2d_10">
      <g>
       <use xlink:href="#mdccd10e8c3" x="60.335" y="313.936114" style="fill: #262626; stroke: #262626; stroke-width: 1.5"/>
      </g>
     </g>
     <g id="text_11">
      <!-- 0.1 -->
      <g style="fill: #262626" transform="translate(30.985 319.304473) scale(0.15 -0.15)">
       <use xlink:href="#ArialMT-30"/>
       <use xlink:href="#ArialMT-2e" x="55.615234"/>
       <use xlink:href="#ArialMT-31" x="83.398438"/>
      </g>
     </g>
    </g>
    <g id="ytick_3">
     <g id="line2d_11">
      <g>
       <use xlink:href="#mdccd10e8c3" x="60.335" y="273.691802" style="fill: #262626; stroke: #262626; stroke-width: 1.5"/>
      </g>
     </g>
     <g id="text_12">
      <!-- 0.2 -->
      <g style="fill: #262626" transform="translate(30.985 279.060161) scale(0.15 -0.15)">
       <use xlink:href="#ArialMT-30"/>
       <use xlink:href="#ArialMT-2e" x="55.615234"/>
       <use xlink:href="#ArialMT-32" x="83.398438"/>
      </g>
     </g>
    </g>
    <g id="ytick_4">
     <g id="line2d_12">
      <g>
       <use xlink:href="#mdccd10e8c3" x="60.335" y="233.44749" style="fill: #262626; stroke: #262626; stroke-width: 1.5"/>
      </g>
     </g>
     <g id="text_13">
      <!-- 0.3 -->
      <g style="fill: #262626" transform="translate(30.985 238.815849) scale(0.15 -0.15)">
       <defs>
        <path id="ArialMT-33" d="M 269 1209 
L 831 1284 
Q 928 806 1161 595 
Q 1394 384 1728 384 
Q 2125 384 2398 659 
Q 2672 934 2672 1341 
Q 2672 1728 2419 1979 
Q 2166 2231 1775 2231 
Q 1616 2231 1378 2169 
L 1441 2663 
Q 1497 2656 1531 2656 
Q 1891 2656 2178 2843 
Q 2466 3031 2466 3422 
Q 2466 3731 2256 3934 
Q 2047 4138 1716 4138 
Q 1388 4138 1169 3931 
Q 950 3725 888 3313 
L 325 3413 
Q 428 3978 793 4289 
Q 1159 4600 1703 4600 
Q 2078 4600 2393 4439 
Q 2709 4278 2876 4000 
Q 3044 3722 3044 3409 
Q 3044 3113 2884 2869 
Q 2725 2625 2413 2481 
Q 2819 2388 3044 2092 
Q 3269 1797 3269 1353 
Q 3269 753 2831 336 
Q 2394 -81 1725 -81 
Q 1122 -81 723 278 
Q 325 638 269 1209 
z
" transform="scale(0.015625)"/>
       </defs>
       <use xlink:href="#ArialMT-30"/>
       <use xlink:href="#ArialMT-2e" x="55.615234"/>
       <use xlink:href="#ArialMT-33" x="83.398438"/>
      </g>
     </g>
    </g>
    <g id="ytick_5">
     <g id="line2d_13">
      <g>
       <use xlink:href="#mdccd10e8c3" x="60.335" y="193.203178" style="fill: #262626; stroke: #262626; stroke-width: 1.5"/>
      </g>
     </g>
     <g id="text_14">
      <!-- 0.4 -->
      <g style="fill: #262626" transform="translate(30.985 198.571537) scale(0.15 -0.15)">
       <defs>
        <path id="ArialMT-34" d="M 2069 0 
L 2069 1097 
L 81 1097 
L 81 1613 
L 2172 4581 
L 2631 4581 
L 2631 1613 
L 3250 1613 
L 3250 1097 
L 2631 1097 
L 2631 0 
L 2069 0 
z
M 2069 1613 
L 2069 3678 
L 634 1613 
L 2069 1613 
z
" transform="scale(0.015625)"/>
       </defs>
       <use xlink:href="#ArialMT-30"/>
       <use xlink:href="#ArialMT-2e" x="55.615234"/>
       <use xlink:href="#ArialMT-34" x="83.398438"/>
      </g>
     </g>
    </g>
    <g id="ytick_6">
     <g id="line2d_14">
      <g>
       <use xlink:href="#mdccd10e8c3" x="60.335" y="152.958866" style="fill: #262626; stroke: #262626; stroke-width: 1.5"/>
      </g>
     </g>
     <g id="text_15">
      <!-- 0.5 -->
      <g style="fill: #262626" transform="translate(30.985 158.327225) scale(0.15 -0.15)">
       <use xlink:href="#ArialMT-30"/>
       <use xlink:href="#ArialMT-2e" x="55.615234"/>
       <use xlink:href="#ArialMT-35" x="83.398438"/>
      </g>
     </g>
    </g>
    <g id="ytick_7">
     <g id="line2d_15">
      <g>
       <use xlink:href="#mdccd10e8c3" x="60.335" y="112.714554" style="fill: #262626; stroke: #262626; stroke-width: 1.5"/>
      </g>
     </g>
     <g id="text_16">
      <!-- 0.6 -->
      <g style="fill: #262626" transform="translate(30.985 118.082913) scale(0.15 -0.15)">
       <defs>
        <path id="ArialMT-36" d="M 3184 3459 
L 2625 3416 
Q 2550 3747 2413 3897 
Q 2184 4138 1850 4138 
Q 1581 4138 1378 3988 
Q 1113 3794 959 3422 
Q 806 3050 800 2363 
Q 1003 2672 1297 2822 
Q 1591 2972 1913 2972 
Q 2475 2972 2870 2558 
Q 3266 2144 3266 1488 
Q 3266 1056 3080 686 
Q 2894 316 2569 119 
Q 2244 -78 1831 -78 
Q 1128 -78 684 439 
Q 241 956 241 2144 
Q 241 3472 731 4075 
Q 1159 4600 1884 4600 
Q 2425 4600 2770 4297 
Q 3116 3994 3184 3459 
z
M 888 1484 
Q 888 1194 1011 928 
Q 1134 663 1356 523 
Q 1578 384 1822 384 
Q 2178 384 2434 671 
Q 2691 959 2691 1453 
Q 2691 1928 2437 2201 
Q 2184 2475 1800 2475 
Q 1419 2475 1153 2201 
Q 888 1928 888 1484 
z
" transform="scale(0.015625)"/>
       </defs>
       <use xlink:href="#ArialMT-30"/>
       <use xlink:href="#ArialMT-2e" x="55.615234"/>
       <use xlink:href="#ArialMT-36" x="83.398438"/>
      </g>
     </g>
    </g>
    <g id="ytick_8">
     <g id="line2d_16">
      <g>
       <use xlink:href="#mdccd10e8c3" x="60.335" y="72.470242" style="fill: #262626; stroke: #262626; stroke-width: 1.5"/>
      </g>
     </g>
     <g id="text_17">
      <!-- 0.7 -->
      <g style="fill: #262626" transform="translate(30.985 77.838601) scale(0.15 -0.15)">
       <use xlink:href="#ArialMT-30"/>
       <use xlink:href="#ArialMT-2e" x="55.615234"/>
       <use xlink:href="#ArialMT-37" x="83.398438"/>
      </g>
     </g>
    </g>
    <g id="ytick_9">
     <g id="line2d_17">
      <g>
       <use xlink:href="#mdccd10e8c3" x="60.335" y="32.22593" style="fill: #262626; stroke: #262626; stroke-width: 1.5"/>
      </g>
     </g>
     <g id="text_18">
      <!-- 0.8 -->
      <g style="fill: #262626" transform="translate(30.985 37.59429) scale(0.15 -0.15)">
       <defs>
        <path id="ArialMT-38" d="M 1131 2484 
Q 781 2613 612 2850 
Q 444 3088 444 3419 
Q 444 3919 803 4259 
Q 1163 4600 1759 4600 
Q 2359 4600 2725 4251 
Q 3091 3903 3091 3403 
Q 3091 3084 2923 2848 
Q 2756 2613 2416 2484 
Q 2838 2347 3058 2040 
Q 3278 1734 3278 1309 
Q 3278 722 2862 322 
Q 2447 -78 1769 -78 
Q 1091 -78 675 323 
Q 259 725 259 1325 
Q 259 1772 486 2073 
Q 713 2375 1131 2484 
z
M 1019 3438 
Q 1019 3113 1228 2906 
Q 1438 2700 1772 2700 
Q 2097 2700 2305 2904 
Q 2513 3109 2513 3406 
Q 2513 3716 2298 3927 
Q 2084 4138 1766 4138 
Q 1444 4138 1231 3931 
Q 1019 3725 1019 3438 
z
M 838 1322 
Q 838 1081 952 856 
Q 1066 631 1291 507 
Q 1516 384 1775 384 
Q 2178 384 2440 643 
Q 2703 903 2703 1303 
Q 2703 1709 2433 1975 
Q 2163 2241 1756 2241 
Q 1359 2241 1098 1978 
Q 838 1716 838 1322 
z
" transform="scale(0.015625)"/>
       </defs>
       <use xlink:href="#ArialMT-30"/>
       <use xlink:href="#ArialMT-2e" x="55.615234"/>
       <use xlink:href="#ArialMT-38" x="83.398438"/>
      </g>
     </g>
    </g>
    <g id="text_19">
     <!-- Divergence -->
     <g style="fill: #262626" transform="translate(23.827969 240.683594) rotate(-90) scale(0.15 -0.15)">
      <defs>
       <path id="ArialMT-44" d="M 494 0 
L 494 4581 
L 2072 4581 
Q 2606 4581 2888 4516 
Q 3281 4425 3559 4188 
Q 3922 3881 4101 3404 
Q 4281 2928 4281 2316 
Q 4281 1794 4159 1391 
Q 4038 988 3847 723 
Q 3656 459 3429 307 
Q 3203 156 2883 78 
Q 2563 0 2147 0 
L 494 0 
z
M 1100 541 
L 2078 541 
Q 2531 541 2789 625 
Q 3047 709 3200 863 
Q 3416 1078 3536 1442 
Q 3656 1806 3656 2325 
Q 3656 3044 3420 3430 
Q 3184 3816 2847 3947 
Q 2603 4041 2063 4041 
L 1100 4041 
L 1100 541 
z
" transform="scale(0.015625)"/>
       <path id="ArialMT-76" d="M 1344 0 
L 81 3319 
L 675 3319 
L 1388 1331 
Q 1503 1009 1600 663 
Q 1675 925 1809 1294 
L 2547 3319 
L 3125 3319 
L 1869 0 
L 1344 0 
z
" transform="scale(0.015625)"/>
       <path id="ArialMT-72" d="M 416 0 
L 416 3319 
L 922 3319 
L 922 2816 
Q 1116 3169 1280 3281 
Q 1444 3394 1641 3394 
Q 1925 3394 2219 3213 
L 2025 2691 
Q 1819 2813 1613 2813 
Q 1428 2813 1281 2702 
Q 1134 2591 1072 2394 
Q 978 2094 978 1738 
L 978 0 
L 416 0 
z
" transform="scale(0.015625)"/>
       <path id="ArialMT-67" d="M 319 -275 
L 866 -356 
Q 900 -609 1056 -725 
Q 1266 -881 1628 -881 
Q 2019 -881 2231 -725 
Q 2444 -569 2519 -288 
Q 2563 -116 2559 434 
Q 2191 0 1641 0 
Q 956 0 581 494 
Q 206 988 206 1678 
Q 206 2153 378 2554 
Q 550 2956 876 3175 
Q 1203 3394 1644 3394 
Q 2231 3394 2613 2919 
L 2613 3319 
L 3131 3319 
L 3131 450 
Q 3131 -325 2973 -648 
Q 2816 -972 2473 -1159 
Q 2131 -1347 1631 -1347 
Q 1038 -1347 672 -1080 
Q 306 -813 319 -275 
z
M 784 1719 
Q 784 1066 1043 766 
Q 1303 466 1694 466 
Q 2081 466 2343 764 
Q 2606 1063 2606 1700 
Q 2606 2309 2336 2618 
Q 2066 2928 1684 2928 
Q 1309 2928 1046 2623 
Q 784 2319 784 1719 
z
" transform="scale(0.015625)"/>
       <path id="ArialMT-6e" d="M 422 0 
L 422 3319 
L 928 3319 
L 928 2847 
Q 1294 3394 1984 3394 
Q 2284 3394 2536 3286 
Q 2788 3178 2913 3003 
Q 3038 2828 3088 2588 
Q 3119 2431 3119 2041 
L 3119 0 
L 2556 0 
L 2556 2019 
Q 2556 2363 2490 2533 
Q 2425 2703 2258 2804 
Q 2091 2906 1866 2906 
Q 1506 2906 1245 2678 
Q 984 2450 984 1813 
L 984 0 
L 422 0 
z
" transform="scale(0.015625)"/>
       <path id="ArialMT-63" d="M 2588 1216 
L 3141 1144 
Q 3050 572 2676 248 
Q 2303 -75 1759 -75 
Q 1078 -75 664 370 
Q 250 816 250 1647 
Q 250 2184 428 2587 
Q 606 2991 970 3192 
Q 1334 3394 1763 3394 
Q 2303 3394 2647 3120 
Q 2991 2847 3088 2344 
L 2541 2259 
Q 2463 2594 2264 2762 
Q 2066 2931 1784 2931 
Q 1359 2931 1093 2626 
Q 828 2322 828 1663 
Q 828 994 1084 691 
Q 1341 388 1753 388 
Q 2084 388 2306 591 
Q 2528 794 2588 1216 
z
" transform="scale(0.015625)"/>
      </defs>
      <use xlink:href="#ArialMT-44"/>
      <use xlink:href="#ArialMT-69" x="72.216797"/>
      <use xlink:href="#ArialMT-76" x="94.433594"/>
      <use xlink:href="#ArialMT-65" x="144.433594"/>
      <use xlink:href="#ArialMT-72" x="200.048828"/>
      <use xlink:href="#ArialMT-67" x="233.349609"/>
      <use xlink:href="#ArialMT-65" x="288.964844"/>
      <use xlink:href="#ArialMT-6e" x="344.580078"/>
      <use xlink:href="#ArialMT-63" x="400.195312"/>
      <use xlink:href="#ArialMT-65" x="450.195312"/>
     </g>
    </g>
   </g>
   <g id="PolyCollection_1">
    <defs>
     <path id="m18e683f417" d="M 85.203409 -77.796635 
L 85.203409 -76.793682 
L 90.98676 -77.482788 
L 96.770111 -77.129393 
L 102.553462 -77.527589 
L 108.336813 -78.37309 
L 114.120164 -78.002693 
L 119.903515 -77.275513 
L 125.686866 -77.92846 
L 131.470217 -77.797718 
L 137.253568 -78.126441 
L 143.036919 -72.186542 
L 148.82027 -75.23715 
L 154.603621 -75.432501 
L 160.386971 -76.303662 
L 166.170322 -72.05751 
L 171.953673 -69.468823 
L 177.737024 -69.440909 
L 183.520375 -73.543511 
L 189.303726 -77.674085 
L 195.087077 -83.75407 
L 200.870428 -92.936622 
L 206.653779 -104.922115 
L 212.43713 -110.906747 
L 218.220481 -121.020287 
L 224.003832 -125.946718 
L 229.787183 -127.268159 
L 235.570534 -131.754096 
L 241.353885 -141.377346 
L 247.137236 -155.835033 
L 252.920587 -171.312006 
L 258.703938 -181.195261 
L 264.487289 -190.061492 
L 270.27064 -206.144516 
L 276.05399 -218.861505 
L 281.837341 -225.983056 
L 287.620692 -229.153681 
L 293.404043 -239.890677 
L 299.187394 -249.867656 
L 304.970745 -255.511675 
L 310.754096 -266.557713 
L 316.537447 -278.163034 
L 322.320798 -286.031131 
L 328.104149 -286.255289 
L 333.8875 -293.634097 
L 339.670851 -303.465446 
L 345.454202 -302.266862 
L 351.237553 -297.216614 
L 357.020904 -295.618961 
L 362.804255 -293.599117 
L 368.587606 -292.713097 
L 374.370957 -295.701288 
L 380.154308 -292.675328 
L 385.937659 -290.010495 
L 391.72101 -291.46074 
L 397.50436 -290.078548 
L 403.287711 -289.913518 
L 409.071062 -291.197891 
L 414.854413 -292.425615 
L 420.637764 -295.622523 
L 426.421115 -292.237432 
L 432.204466 -284.789644 
L 437.987817 -288.669428 
L 443.771168 -276.101626 
L 449.554519 -266.244708 
L 455.33787 -260.342094 
L 461.121221 -257.646631 
L 466.904572 -258.707115 
L 472.687923 -260.5487 
L 478.471274 -261.498134 
L 484.254625 -262.574555 
L 490.037976 -262.763631 
L 495.821327 -259.878807 
L 501.604678 -259.709813 
L 507.388029 -257.365027 
L 513.171379 -256.977255 
L 518.95473 -254.10556 
L 524.738081 -253.349631 
L 530.521432 -250.393431 
L 536.304783 -249.371399 
L 542.088134 -248.439883 
L 547.871485 -246.334006 
L 553.654836 -244.732483 
L 559.438187 -243.354206 
L 565.221538 -243.139806 
L 571.004889 -240.903706 
L 576.78824 -238.542853 
L 582.571591 -237.772008 
L 582.571591 -261.475547 
L 582.571591 -261.475547 
L 576.78824 -262.271654 
L 571.004889 -264.756697 
L 565.221538 -267.155268 
L 559.438187 -267.526271 
L 553.654836 -269.028045 
L 547.871485 -270.610592 
L 542.088134 -273.047085 
L 536.304783 -273.975152 
L 530.521432 -275.075727 
L 524.738081 -278.296759 
L 518.95473 -279.11459 
L 513.171379 -282.054885 
L 507.388029 -282.535394 
L 501.604678 -285.067753 
L 495.821327 -285.378086 
L 490.037976 -288.418239 
L 484.254625 -288.230421 
L 478.471274 -287.402029 
L 472.687923 -286.634827 
L 466.904572 -285.204872 
L 461.121221 -284.648045 
L 455.33787 -287.743857 
L 449.554519 -294.101936 
L 443.771168 -304.006912 
L 437.987817 -315.531615 
L 432.204466 -309.722761 
L 426.421115 -316.447662 
L 420.637764 -319.259166 
L 414.854413 -315.545232 
L 409.071062 -314.011679 
L 403.287711 -312.682686 
L 397.50436 -313.080995 
L 391.72101 -314.631589 
L 385.937659 -312.64635 
L 380.154308 -315.170048 
L 374.370957 -318.136435 
L 368.587606 -314.864519 
L 362.804255 -315.176762 
L 357.020904 -316.945508 
L 351.237553 -318.23013 
L 345.454202 -323.005887 
L 339.670851 -324.040084 
L 333.8875 -313.713518 
L 328.104149 -306.045936 
L 322.320798 -305.064869 
L 316.537447 -296.896725 
L 310.754096 -284.676414 
L 304.970745 -273.152919 
L 299.187394 -266.93318 
L 293.404043 -256.610889 
L 287.620692 -245.383077 
L 281.837341 -240.967475 
L 276.05399 -233.191478 
L 270.27064 -219.806117 
L 264.487289 -202.738901 
L 258.703938 -192.938651 
L 252.920587 -181.993344 
L 247.137236 -165.517943 
L 241.353885 -150.278739 
L 235.570534 -139.592692 
L 229.787183 -134.374263 
L 224.003832 -132.49183 
L 218.220481 -126.727742 
L 212.43713 -115.827847 
L 206.653779 -109.960423 
L 200.870428 -98.261334 
L 195.087077 -88.708863 
L 189.303726 -82.455471 
L 183.520375 -77.847445 
L 177.737024 -73.819162 
L 171.953673 -73.547681 
L 166.170322 -75.475029 
L 160.386971 -79.506849 
L 154.603621 -79.145057 
L 148.82027 -79.062594 
L 143.036919 -75.53407 
L 137.253568 -79.107439 
L 131.470217 -78.87123 
L 125.686866 -78.854718 
L 119.903515 -78.339746 
L 114.120164 -78.866698 
L 108.336813 -79.419096 
L 102.553462 -78.3411 
L 96.770111 -77.825941 
L 90.98676 -78.259832 
L 85.203409 -77.796635 
z
" style="stroke: #6060eb; stroke-opacity: 0.1"/>
    </defs>
    <g clip-path="url(#p9a86c5fb3a)">
     <use xlink:href="#m18e683f417" x="0" y="432" style="fill: #6060eb; fill-opacity: 0.1; stroke: #6060eb; stroke-opacity: 0.1"/>
    </g>
   </g>
   <g id="PolyCollection_2">
    <defs>
     <path id="md6f8631ce4" d="M 85.203409 -78.010548 
L 85.203409 -77.804946 
L 90.98676 -77.711772 
L 96.770111 -77.728989 
L 102.553462 -77.713302 
L 108.336813 -77.771425 
L 114.120164 -77.651933 
L 119.903515 -77.959292 
L 125.686866 -77.889828 
L 131.470217 -77.864426 
L 137.253568 -77.657241 
L 143.036919 -80.829551 
L 148.82027 -80.71768 
L 154.603621 -80.801784 
L 160.386971 -80.654382 
L 166.170322 -82.204368 
L 171.953673 -83.55037 
L 177.737024 -84.273613 
L 183.520375 -84.283509 
L 189.303726 -83.55153 
L 195.087077 -82.133981 
L 200.870428 -82.096278 
L 206.653779 -83.168239 
L 212.43713 -83.809933 
L 218.220481 -85.257615 
L 224.003832 -87.339101 
L 229.787183 -88.128456 
L 235.570534 -86.449048 
L 241.353885 -85.223161 
L 247.137236 -85.024057 
L 252.920587 -84.973156 
L 258.703938 -84.862704 
L 264.487289 -84.612994 
L 270.27064 -85.498299 
L 276.05399 -86.429482 
L 281.837341 -87.205533 
L 287.620692 -87.847734 
L 293.404043 -88.68683 
L 299.187394 -89.10286 
L 304.970745 -88.772164 
L 310.754096 -88.71154 
L 316.537447 -89.526806 
L 322.320798 -90.290348 
L 328.104149 -89.480143 
L 333.8875 -88.282782 
L 339.670851 -86.708202 
L 345.454202 -86.679783 
L 351.237553 -87.504772 
L 357.020904 -87.378487 
L 362.804255 -86.768359 
L 368.587606 -87.357707 
L 374.370957 -88.528281 
L 380.154308 -89.107553 
L 385.937659 -90.020169 
L 391.72101 -91.419391 
L 397.50436 -91.59122 
L 403.287711 -89.624332 
L 409.071062 -89.561126 
L 414.854413 -89.7382 
L 420.637764 -88.173617 
L 426.421115 -86.797946 
L 432.204466 -85.549382 
L 437.987817 -85.436543 
L 443.771168 -84.99106 
L 449.554519 -84.876561 
L 455.33787 -84.454587 
L 461.121221 -84.103889 
L 466.904572 -83.917583 
L 472.687923 -83.953547 
L 478.471274 -84.01999 
L 484.254625 -83.765424 
L 490.037976 -83.613779 
L 495.821327 -83.589289 
L 501.604678 -83.393704 
L 507.388029 -83.387728 
L 513.171379 -83.578965 
L 518.95473 -83.762481 
L 524.738081 -83.74885 
L 530.521432 -83.603374 
L 536.304783 -83.399072 
L 542.088134 -83.398737 
L 547.871485 -83.242588 
L 553.654836 -83.201287 
L 559.438187 -83.068723 
L 565.221538 -82.866204 
L 571.004889 -82.764365 
L 576.78824 -82.815787 
L 582.571591 -82.584785 
L 582.571591 -83.453711 
L 582.571591 -83.453711 
L 576.78824 -83.704063 
L 571.004889 -83.66196 
L 565.221538 -83.729726 
L 559.438187 -83.976062 
L 553.654836 -84.109827 
L 547.871485 -84.172168 
L 542.088134 -84.379262 
L 536.304783 -84.338834 
L 530.521432 -84.567556 
L 524.738081 -84.73252 
L 518.95473 -84.763077 
L 513.171379 -84.5568 
L 507.388029 -84.394478 
L 501.604678 -84.392037 
L 495.821327 -84.6126 
L 490.037976 -84.620518 
L 484.254625 -84.772726 
L 478.471274 -85.029752 
L 472.687923 -85.021858 
L 466.904572 -84.971085 
L 461.121221 -85.194809 
L 455.33787 -85.544317 
L 449.554519 -85.985414 
L 443.771168 -86.087151 
L 437.987817 -86.540968 
L 432.204466 -86.593999 
L 426.421115 -88.029933 
L 420.637764 -89.356814 
L 414.854413 -90.905743 
L 409.071062 -90.747695 
L 403.287711 -90.752838 
L 397.50436 -92.718317 
L 391.72101 -92.72666 
L 385.937659 -91.38412 
L 380.154308 -90.569188 
L 374.370957 -89.865201 
L 368.587606 -88.55985 
L 362.804255 -87.939722 
L 357.020904 -88.582598 
L 351.237553 -88.756238 
L 345.454202 -88.022519 
L 339.670851 -88.12065 
L 333.8875 -89.660112 
L 328.104149 -90.860269 
L 322.320798 -91.733548 
L 316.537447 -90.854273 
L 310.754096 -90.000815 
L 304.970745 -90.022569 
L 299.187394 -90.300146 
L 293.404043 -89.825801 
L 287.620692 -88.958466 
L 281.837341 -88.279548 
L 276.05399 -87.551701 
L 270.27064 -86.656977 
L 264.487289 -85.711793 
L 258.703938 -85.98784 
L 252.920587 -86.102278 
L 247.137236 -86.081847 
L 241.353885 -86.157808 
L 235.570534 -87.335096 
L 229.787183 -89.030703 
L 224.003832 -88.229041 
L 218.220481 -86.270833 
L 212.43713 -84.712105 
L 206.653779 -84.18181 
L 200.870428 -83.223928 
L 195.087077 -83.337498 
L 189.303726 -84.712237 
L 183.520375 -85.387861 
L 177.737024 -85.272936 
L 171.953673 -84.471117 
L 166.170322 -83.026985 
L 160.386971 -81.509307 
L 154.603621 -81.689528 
L 148.82027 -81.627284 
L 143.036919 -81.655421 
L 137.253568 -77.900477 
L 131.470217 -78.097451 
L 125.686866 -78.118408 
L 119.903515 -78.180855 
L 114.120164 -77.882689 
L 108.336813 -77.964857 
L 102.553462 -77.902958 
L 96.770111 -77.914501 
L 90.98676 -77.890926 
L 85.203409 -78.010548 
z
" style="stroke: #6060eb; stroke-opacity: 0.1"/>
    </defs>
    <g clip-path="url(#p9a86c5fb3a)">
     <use xlink:href="#md6f8631ce4" x="0" y="432" style="fill: #6060eb; fill-opacity: 0.1; stroke: #6060eb; stroke-opacity: 0.1"/>
    </g>
   </g>
   <g id="PathCollection_1">
    <defs>
     <path id="m41225c0bfe" d="M 0 -3 
L -0.673542 -0.927051 
L -2.85317 -0.927051 
L -1.089814 0.354102 
L -1.763356 2.427051 
L -0 1.145898 
L 1.763356 2.427051 
L 1.089814 0.354102 
L 2.85317 -0.927051 
L 0.673542 -0.927051 
z
" style="stroke: #6060eb"/>
    </defs>
    <g clip-path="url(#p9a86c5fb3a)">
     <use xlink:href="#m41225c0bfe" x="200.870428" y="358.204857" style="fill: #6060eb; stroke: #6060eb"/>
     <use xlink:href="#m41225c0bfe" x="206.653779" y="358.204857" style="fill: #6060eb; stroke: #6060eb"/>
     <use xlink:href="#m41225c0bfe" x="212.43713" y="358.204857" style="fill: #6060eb; stroke: #6060eb"/>
     <use xlink:href="#m41225c0bfe" x="218.220481" y="358.204857" style="fill: #6060eb; stroke: #6060eb"/>
     <use xlink:href="#m41225c0bfe" x="224.003832" y="358.204857" style="fill: #6060eb; stroke: #6060eb"/>
     <use xlink:href="#m41225c0bfe" x="229.787183" y="358.204857" style="fill: #6060eb; stroke: #6060eb"/>
     <use xlink:href="#m41225c0bfe" x="235.570534" y="358.204857" style="fill: #6060eb; stroke: #6060eb"/>
     <use xlink:href="#m41225c0bfe" x="241.353885" y="358.204857" style="fill: #6060eb; stroke: #6060eb"/>
     <use xlink:href="#m41225c0bfe" x="247.137236" y="358.204857" style="fill: #6060eb; stroke: #6060eb"/>
     <use xlink:href="#m41225c0bfe" x="252.920587" y="358.204857" style="fill: #6060eb; stroke: #6060eb"/>
     <use xlink:href="#m41225c0bfe" x="258.703938" y="358.204857" style="fill: #6060eb; stroke: #6060eb"/>
     <use xlink:href="#m41225c0bfe" x="264.487289" y="358.204857" style="fill: #6060eb; stroke: #6060eb"/>
     <use xlink:href="#m41225c0bfe" x="270.27064" y="358.204857" style="fill: #6060eb; stroke: #6060eb"/>
     <use xlink:href="#m41225c0bfe" x="276.05399" y="358.204857" style="fill: #6060eb; stroke: #6060eb"/>
     <use xlink:href="#m41225c0bfe" x="281.837341" y="358.204857" style="fill: #6060eb; stroke: #6060eb"/>
     <use xlink:href="#m41225c0bfe" x="287.620692" y="358.204857" style="fill: #6060eb; stroke: #6060eb"/>
     <use xlink:href="#m41225c0bfe" x="293.404043" y="358.204857" style="fill: #6060eb; stroke: #6060eb"/>
     <use xlink:href="#m41225c0bfe" x="299.187394" y="358.204857" style="fill: #6060eb; stroke: #6060eb"/>
     <use xlink:href="#m41225c0bfe" x="304.970745" y="358.204857" style="fill: #6060eb; stroke: #6060eb"/>
     <use xlink:href="#m41225c0bfe" x="310.754096" y="358.204857" style="fill: #6060eb; stroke: #6060eb"/>
     <use xlink:href="#m41225c0bfe" x="316.537447" y="358.204857" style="fill: #6060eb; stroke: #6060eb"/>
     <use xlink:href="#m41225c0bfe" x="322.320798" y="358.204857" style="fill: #6060eb; stroke: #6060eb"/>
     <use xlink:href="#m41225c0bfe" x="328.104149" y="358.204857" style="fill: #6060eb; stroke: #6060eb"/>
     <use xlink:href="#m41225c0bfe" x="333.8875" y="358.204857" style="fill: #6060eb; stroke: #6060eb"/>
     <use xlink:href="#m41225c0bfe" x="339.670851" y="358.204857" style="fill: #6060eb; stroke: #6060eb"/>
     <use xlink:href="#m41225c0bfe" x="345.454202" y="358.204857" style="fill: #6060eb; stroke: #6060eb"/>
     <use xlink:href="#m41225c0bfe" x="351.237553" y="358.204857" style="fill: #6060eb; stroke: #6060eb"/>
     <use xlink:href="#m41225c0bfe" x="357.020904" y="358.204857" style="fill: #6060eb; stroke: #6060eb"/>
     <use xlink:href="#m41225c0bfe" x="362.804255" y="358.204857" style="fill: #6060eb; stroke: #6060eb"/>
     <use xlink:href="#m41225c0bfe" x="368.587606" y="358.204857" style="fill: #6060eb; stroke: #6060eb"/>
     <use xlink:href="#m41225c0bfe" x="374.370957" y="358.204857" style="fill: #6060eb; stroke: #6060eb"/>
     <use xlink:href="#m41225c0bfe" x="380.154308" y="358.204857" style="fill: #6060eb; stroke: #6060eb"/>
     <use xlink:href="#m41225c0bfe" x="385.937659" y="358.204857" style="fill: #6060eb; stroke: #6060eb"/>
     <use xlink:href="#m41225c0bfe" x="391.72101" y="358.204857" style="fill: #6060eb; stroke: #6060eb"/>
     <use xlink:href="#m41225c0bfe" x="397.50436" y="358.204857" style="fill: #6060eb; stroke: #6060eb"/>
     <use xlink:href="#m41225c0bfe" x="403.287711" y="358.204857" style="fill: #6060eb; stroke: #6060eb"/>
     <use xlink:href="#m41225c0bfe" x="409.071062" y="358.204857" style="fill: #6060eb; stroke: #6060eb"/>
     <use xlink:href="#m41225c0bfe" x="414.854413" y="358.204857" style="fill: #6060eb; stroke: #6060eb"/>
     <use xlink:href="#m41225c0bfe" x="420.637764" y="358.204857" style="fill: #6060eb; stroke: #6060eb"/>
     <use xlink:href="#m41225c0bfe" x="426.421115" y="358.204857" style="fill: #6060eb; stroke: #6060eb"/>
     <use xlink:href="#m41225c0bfe" x="432.204466" y="358.204857" style="fill: #6060eb; stroke: #6060eb"/>
     <use xlink:href="#m41225c0bfe" x="437.987817" y="358.204857" style="fill: #6060eb; stroke: #6060eb"/>
     <use xlink:href="#m41225c0bfe" x="443.771168" y="358.204857" style="fill: #6060eb; stroke: #6060eb"/>
     <use xlink:href="#m41225c0bfe" x="449.554519" y="358.204857" style="fill: #6060eb; stroke: #6060eb"/>
     <use xlink:href="#m41225c0bfe" x="455.33787" y="358.204857" style="fill: #6060eb; stroke: #6060eb"/>
     <use xlink:href="#m41225c0bfe" x="461.121221" y="358.204857" style="fill: #6060eb; stroke: #6060eb"/>
     <use xlink:href="#m41225c0bfe" x="466.904572" y="358.204857" style="fill: #6060eb; stroke: #6060eb"/>
     <use xlink:href="#m41225c0bfe" x="472.687923" y="358.204857" style="fill: #6060eb; stroke: #6060eb"/>
     <use xlink:href="#m41225c0bfe" x="478.471274" y="358.204857" style="fill: #6060eb; stroke: #6060eb"/>
     <use xlink:href="#m41225c0bfe" x="484.254625" y="358.204857" style="fill: #6060eb; stroke: #6060eb"/>
     <use xlink:href="#m41225c0bfe" x="490.037976" y="358.204857" style="fill: #6060eb; stroke: #6060eb"/>
     <use xlink:href="#m41225c0bfe" x="495.821327" y="358.204857" style="fill: #6060eb; stroke: #6060eb"/>
     <use xlink:href="#m41225c0bfe" x="501.604678" y="358.204857" style="fill: #6060eb; stroke: #6060eb"/>
     <use xlink:href="#m41225c0bfe" x="507.388029" y="358.204857" style="fill: #6060eb; stroke: #6060eb"/>
     <use xlink:href="#m41225c0bfe" x="513.171379" y="358.204857" style="fill: #6060eb; stroke: #6060eb"/>
     <use xlink:href="#m41225c0bfe" x="518.95473" y="358.204857" style="fill: #6060eb; stroke: #6060eb"/>
     <use xlink:href="#m41225c0bfe" x="524.738081" y="358.204857" style="fill: #6060eb; stroke: #6060eb"/>
     <use xlink:href="#m41225c0bfe" x="530.521432" y="358.204857" style="fill: #6060eb; stroke: #6060eb"/>
     <use xlink:href="#m41225c0bfe" x="536.304783" y="358.204857" style="fill: #6060eb; stroke: #6060eb"/>
     <use xlink:href="#m41225c0bfe" x="542.088134" y="358.204857" style="fill: #6060eb; stroke: #6060eb"/>
     <use xlink:href="#m41225c0bfe" x="547.871485" y="358.204857" style="fill: #6060eb; stroke: #6060eb"/>
     <use xlink:href="#m41225c0bfe" x="553.654836" y="358.204857" style="fill: #6060eb; stroke: #6060eb"/>
     <use xlink:href="#m41225c0bfe" x="559.438187" y="358.204857" style="fill: #6060eb; stroke: #6060eb"/>
     <use xlink:href="#m41225c0bfe" x="565.221538" y="358.204857" style="fill: #6060eb; stroke: #6060eb"/>
     <use xlink:href="#m41225c0bfe" x="571.004889" y="358.204857" style="fill: #6060eb; stroke: #6060eb"/>
     <use xlink:href="#m41225c0bfe" x="576.78824" y="358.204857" style="fill: #6060eb; stroke: #6060eb"/>
     <use xlink:href="#m41225c0bfe" x="582.571591" y="358.204857" style="fill: #6060eb; stroke: #6060eb"/>
    </g>
   </g>
   <g id="PolyCollection_3">
    <defs>
     <path id="me8ed3d1763" d="M 85.203409 -81.115527 
L 85.203409 -77.230741 
L 90.98676 -77.902212 
L 96.770111 -77.167184 
L 102.553462 -80.150472 
L 108.336813 -80.892993 
L 114.120164 -79.819434 
L 119.903515 -80.126161 
L 125.686866 -79.869721 
L 131.470217 -77.704864 
L 137.253568 -79.718002 
L 143.036919 -80.745021 
L 148.82027 -82.421045 
L 154.603621 -81.095485 
L 160.386971 -81.118114 
L 166.170322 -78.29262 
L 171.953673 -78.706367 
L 177.737024 -77.597743 
L 183.520375 -79.20397 
L 189.303726 -79.678355 
L 195.087077 -83.735661 
L 200.870428 -84.590664 
L 206.653779 -90.321707 
L 212.43713 -94.694757 
L 218.220481 -100.291485 
L 224.003832 -106.924283 
L 229.787183 -112.195743 
L 235.570534 -116.889101 
L 241.353885 -122.621334 
L 247.137236 -128.251418 
L 252.920587 -135.387156 
L 258.703938 -143.588649 
L 264.487289 -151.791749 
L 270.27064 -162.019175 
L 276.05399 -172.283932 
L 281.837341 -184.186498 
L 287.620692 -195.321031 
L 293.404043 -205.658898 
L 299.187394 -215.159467 
L 304.970745 -227.296934 
L 310.754096 -234.226963 
L 316.537447 -243.749553 
L 322.320798 -253.808133 
L 328.104149 -262.445184 
L 333.8875 -269.097154 
L 339.670851 -274.192534 
L 345.454202 -279.686325 
L 351.237553 -286.396318 
L 357.020904 -291.24131 
L 362.804255 -294.783683 
L 368.587606 -298.44243 
L 374.370957 -301.115952 
L 380.154308 -302.442205 
L 385.937659 -304.607224 
L 391.72101 -306.330565 
L 397.50436 -308.702978 
L 403.287711 -311.549745 
L 409.071062 -313.511459 
L 414.854413 -315.007387 
L 420.637764 -315.172999 
L 426.421115 -315.325809 
L 432.204466 -315.528911 
L 437.987817 -308.935767 
L 443.771168 -306.286529 
L 449.554519 -307.029355 
L 455.33787 -311.684573 
L 461.121221 -317.009737 
L 466.904572 -320.483445 
L 472.687923 -323.434397 
L 478.471274 -325.538865 
L 484.254625 -327.97398 
L 490.037976 -329.084125 
L 495.821327 -330.213418 
L 501.604678 -328.92 
L 507.388029 -332.05027 
L 513.171379 -330.474733 
L 518.95473 -331.432166 
L 524.738081 -333.004766 
L 530.521432 -332.730476 
L 536.304783 -336.102058 
L 542.088134 -337.08998 
L 547.871485 -336.185642 
L 553.654836 -335.064735 
L 559.438187 -335.118249 
L 565.221538 -334.88696 
L 571.004889 -334.387042 
L 576.78824 -333.893072 
L 582.571591 -331.879837 
L 582.571591 -383.217888 
L 582.571591 -383.217888 
L 576.78824 -385.443311 
L 571.004889 -386.253567 
L 565.221538 -386.748095 
L 559.438187 -386.886885 
L 553.654836 -387.020399 
L 547.871485 -388.201992 
L 542.088134 -389.059091 
L 536.304783 -388.285467 
L 530.521432 -384.865501 
L 524.738081 -385.010194 
L 518.95473 -383.077407 
L 513.171379 -382.051818 
L 507.388029 -383.690818 
L 501.604678 -380.442748 
L 495.821327 -381.263362 
L 490.037976 -379.995133 
L 484.254625 -378.482401 
L 478.471274 -375.724607 
L 472.687923 -372.890434 
L 466.904572 -368.936806 
L 461.121221 -364.451502 
L 455.33787 -357.637369 
L 449.554519 -351.723409 
L 443.771168 -350.111039 
L 437.987817 -352.786314 
L 432.204466 -360.670246 
L 426.421115 -360.595505 
L 420.637764 -360.195744 
L 414.854413 -359.38922 
L 409.071062 -357.808137 
L 403.287711 -355.323479 
L 397.50436 -351.966948 
L 391.72101 -348.92763 
L 385.937659 -346.752144 
L 380.154308 -343.95507 
L 374.370957 -341.911235 
L 368.587606 -338.323189 
L 362.804255 -333.764199 
L 357.020904 -329.381138 
L 351.237553 -323.562366 
L 345.454202 -315.602652 
L 339.670851 -308.677008 
L 333.8875 -302.296175 
L 328.104149 -293.946079 
L 322.320798 -284.153923 
L 316.537447 -272.614031 
L 310.754096 -261.447303 
L 304.970745 -252.678431 
L 299.187394 -238.623255 
L 293.404043 -227.231265 
L 287.620692 -215.340413 
L 281.837341 -202.557936 
L 276.05399 -188.885205 
L 270.27064 -176.987724 
L 264.487289 -165.106825 
L 258.703938 -155.645222 
L 252.920587 -145.689263 
L 247.137236 -137.378721 
L 241.353885 -130.653955 
L 235.570534 -124.444572 
L 229.787183 -118.661281 
L 224.003832 -112.74629 
L 218.220481 -105.716881 
L 212.43713 -100.149197 
L 206.653779 -95.878201 
L 200.870428 -90.385082 
L 195.087077 -89.260902 
L 189.303726 -85.426315 
L 183.520375 -85.938451 
L 177.737024 -84.619273 
L 171.953673 -85.789542 
L 166.170322 -85.681245 
L 160.386971 -88.813134 
L 154.603621 -89.546836 
L 148.82027 -90.959571 
L 143.036919 -88.376681 
L 137.253568 -86.846391 
L 131.470217 -84.884517 
L 125.686866 -86.027646 
L 119.903515 -85.633214 
L 114.120164 -85.129806 
L 108.336813 -86.172478 
L 102.553462 -86.033267 
L 96.770111 -81.734178 
L 90.98676 -82.446737 
L 85.203409 -81.115527 
z
" style="stroke: #00008b; stroke-opacity: 0.1"/>
    </defs>
    <g clip-path="url(#p9a86c5fb3a)">
     <use xlink:href="#me8ed3d1763" x="0" y="432" style="fill: #00008b; fill-opacity: 0.1; stroke: #00008b; stroke-opacity: 0.1"/>
    </g>
   </g>
   <g id="PolyCollection_4">
    <defs>
     <path id="me9d7cc00b0" d="M 85.203409 -79.347113 
L 85.203409 -78.638239 
L 90.98676 -79.517046 
L 96.770111 -80.345945 
L 102.553462 -81.075636 
L 108.336813 -82.116799 
L 114.120164 -83.246086 
L 119.903515 -83.965046 
L 125.686866 -84.2735 
L 131.470217 -84.57157 
L 137.253568 -85.461312 
L 143.036919 -87.029372 
L 148.82027 -88.088133 
L 154.603621 -88.97368 
L 160.386971 -89.108941 
L 166.170322 -89.109916 
L 171.953673 -89.091396 
L 177.737024 -88.910461 
L 183.520375 -89.647062 
L 189.303726 -89.60529 
L 195.087077 -89.003184 
L 200.870428 -89.258721 
L 206.653779 -88.3723 
L 212.43713 -88.566974 
L 218.220481 -88.231195 
L 224.003832 -88.568629 
L 229.787183 -87.793285 
L 235.570534 -87.855038 
L 241.353885 -87.955613 
L 247.137236 -88.329318 
L 252.920587 -88.793008 
L 258.703938 -88.583547 
L 264.487289 -88.322897 
L 270.27064 -88.084747 
L 276.05399 -87.885596 
L 281.837341 -88.272808 
L 287.620692 -88.6814 
L 293.404043 -88.988529 
L 299.187394 -90.036356 
L 304.970745 -90.581319 
L 310.754096 -90.862438 
L 316.537447 -90.845628 
L 322.320798 -90.931266 
L 328.104149 -91.169234 
L 333.8875 -91.650381 
L 339.670851 -91.944566 
L 345.454202 -91.882777 
L 351.237553 -92.143195 
L 357.020904 -91.967354 
L 362.804255 -92.092182 
L 368.587606 -92.23953 
L 374.370957 -92.479249 
L 380.154308 -92.54738 
L 385.937659 -92.225634 
L 391.72101 -92.168587 
L 397.50436 -92.223241 
L 403.287711 -91.675797 
L 409.071062 -91.044387 
L 414.854413 -91.076755 
L 420.637764 -90.496813 
L 426.421115 -90.098721 
L 432.204466 -89.412446 
L 437.987817 -88.522628 
L 443.771168 -88.058287 
L 449.554519 -87.594658 
L 455.33787 -87.487456 
L 461.121221 -87.138796 
L 466.904572 -86.956566 
L 472.687923 -86.416538 
L 478.471274 -86.170613 
L 484.254625 -85.809395 
L 490.037976 -85.70978 
L 495.821327 -85.313257 
L 501.604678 -85.291625 
L 507.388029 -85.351202 
L 513.171379 -85.089449 
L 518.95473 -85.440141 
L 524.738081 -85.393318 
L 530.521432 -85.348808 
L 536.304783 -85.20821 
L 542.088134 -85.292264 
L 547.871485 -84.534501 
L 553.654836 -84.26064 
L 559.438187 -84.36899 
L 565.221538 -84.73041 
L 571.004889 -84.925869 
L 576.78824 -84.9634 
L 582.571591 -84.570538 
L 582.571591 -86.729519 
L 582.571591 -86.729519 
L 576.78824 -87.160524 
L 571.004889 -87.05581 
L 565.221538 -86.888303 
L 559.438187 -86.537862 
L 553.654836 -86.46094 
L 547.871485 -86.71845 
L 542.088134 -87.473319 
L 536.304783 -87.417518 
L 530.521432 -87.485047 
L 524.738081 -87.543476 
L 518.95473 -87.637363 
L 513.171379 -87.311383 
L 507.388029 -87.598787 
L 501.604678 -87.585894 
L 495.821327 -87.652034 
L 490.037976 -88.051054 
L 484.254625 -88.154119 
L 478.471274 -88.518081 
L 472.687923 -88.753883 
L 466.904572 -89.298613 
L 461.121221 -89.47879 
L 455.33787 -89.849125 
L 449.554519 -89.944712 
L 443.771168 -90.428432 
L 437.987817 -90.859635 
L 432.204466 -91.826326 
L 426.421115 -92.492895 
L 420.637764 -92.88949 
L 414.854413 -93.489543 
L 409.071062 -93.479426 
L 403.287711 -94.075669 
L 397.50436 -94.643829 
L 391.72101 -94.533037 
L 385.937659 -94.557986 
L 380.154308 -94.827452 
L 374.370957 -94.78478 
L 368.587606 -94.541263 
L 362.804255 -94.362297 
L 357.020904 -94.170734 
L 351.237553 -94.31132 
L 345.454202 -93.940682 
L 339.670851 -94.019406 
L 333.8875 -93.618594 
L 328.104149 -93.146017 
L 322.320798 -92.86277 
L 316.537447 -92.708154 
L 310.754096 -92.691495 
L 304.970745 -92.279798 
L 299.187394 -91.635044 
L 293.404043 -90.561527 
L 287.620692 -90.178782 
L 281.837341 -89.69221 
L 276.05399 -89.230721 
L 270.27064 -89.339387 
L 264.487289 -89.484903 
L 258.703938 -89.758373 
L 252.920587 -89.88019 
L 247.137236 -89.546846 
L 241.353885 -89.287267 
L 235.570534 -89.242081 
L 229.787183 -89.139841 
L 224.003832 -90.041799 
L 218.220481 -89.713632 
L 212.43713 -90.100739 
L 206.653779 -89.903655 
L 200.870428 -91.038152 
L 195.087077 -90.77786 
L 189.303726 -91.527084 
L 183.520375 -91.690482 
L 177.737024 -90.999463 
L 171.953673 -91.332254 
L 166.170322 -91.617294 
L 160.386971 -91.802842 
L 154.603621 -91.763947 
L 148.82027 -90.844179 
L 143.036919 -89.692838 
L 137.253568 -87.904735 
L 131.470217 -86.941403 
L 125.686866 -86.504532 
L 119.903515 -86.237311 
L 114.120164 -85.363031 
L 108.336813 -83.970845 
L 102.553462 -82.711396 
L 96.770111 -81.693279 
L 90.98676 -80.477016 
L 85.203409 -79.347113 
z
" style="stroke: #00008b; stroke-opacity: 0.1"/>
    </defs>
    <g clip-path="url(#p9a86c5fb3a)">
     <use xlink:href="#me9d7cc00b0" x="0" y="432" style="fill: #00008b; fill-opacity: 0.1; stroke: #00008b; stroke-opacity: 0.1"/>
    </g>
   </g>
   <g id="PathCollection_2">
    <defs>
     <path id="m21d5b88b3f" d="M 0 -3 
L -0.673542 -0.927051 
L -2.85317 -0.927051 
L -1.089814 0.354102 
L -1.763356 2.427051 
L -0 1.145898 
L 1.763356 2.427051 
L 1.089814 0.354102 
L 2.85317 -0.927051 
L 0.673542 -0.927051 
z
" style="stroke: #00008b"/>
    </defs>
    <g clip-path="url(#p9a86c5fb3a)">
     <use xlink:href="#m21d5b88b3f" x="218.220481" y="362.229288" style="fill: #00008b; stroke: #00008b"/>
     <use xlink:href="#m21d5b88b3f" x="224.003832" y="362.229288" style="fill: #00008b; stroke: #00008b"/>
     <use xlink:href="#m21d5b88b3f" x="229.787183" y="362.229288" style="fill: #00008b; stroke: #00008b"/>
     <use xlink:href="#m21d5b88b3f" x="235.570534" y="362.229288" style="fill: #00008b; stroke: #00008b"/>
     <use xlink:href="#m21d5b88b3f" x="241.353885" y="362.229288" style="fill: #00008b; stroke: #00008b"/>
     <use xlink:href="#m21d5b88b3f" x="247.137236" y="362.229288" style="fill: #00008b; stroke: #00008b"/>
     <use xlink:href="#m21d5b88b3f" x="252.920587" y="362.229288" style="fill: #00008b; stroke: #00008b"/>
     <use xlink:href="#m21d5b88b3f" x="258.703938" y="362.229288" style="fill: #00008b; stroke: #00008b"/>
     <use xlink:href="#m21d5b88b3f" x="264.487289" y="362.229288" style="fill: #00008b; stroke: #00008b"/>
     <use xlink:href="#m21d5b88b3f" x="270.27064" y="362.229288" style="fill: #00008b; stroke: #00008b"/>
     <use xlink:href="#m21d5b88b3f" x="276.05399" y="362.229288" style="fill: #00008b; stroke: #00008b"/>
     <use xlink:href="#m21d5b88b3f" x="281.837341" y="362.229288" style="fill: #00008b; stroke: #00008b"/>
     <use xlink:href="#m21d5b88b3f" x="287.620692" y="362.229288" style="fill: #00008b; stroke: #00008b"/>
     <use xlink:href="#m21d5b88b3f" x="293.404043" y="362.229288" style="fill: #00008b; stroke: #00008b"/>
     <use xlink:href="#m21d5b88b3f" x="299.187394" y="362.229288" style="fill: #00008b; stroke: #00008b"/>
     <use xlink:href="#m21d5b88b3f" x="304.970745" y="362.229288" style="fill: #00008b; stroke: #00008b"/>
     <use xlink:href="#m21d5b88b3f" x="310.754096" y="362.229288" style="fill: #00008b; stroke: #00008b"/>
     <use xlink:href="#m21d5b88b3f" x="316.537447" y="362.229288" style="fill: #00008b; stroke: #00008b"/>
     <use xlink:href="#m21d5b88b3f" x="322.320798" y="362.229288" style="fill: #00008b; stroke: #00008b"/>
     <use xlink:href="#m21d5b88b3f" x="328.104149" y="362.229288" style="fill: #00008b; stroke: #00008b"/>
     <use xlink:href="#m21d5b88b3f" x="333.8875" y="362.229288" style="fill: #00008b; stroke: #00008b"/>
     <use xlink:href="#m21d5b88b3f" x="339.670851" y="362.229288" style="fill: #00008b; stroke: #00008b"/>
     <use xlink:href="#m21d5b88b3f" x="345.454202" y="362.229288" style="fill: #00008b; stroke: #00008b"/>
     <use xlink:href="#m21d5b88b3f" x="351.237553" y="362.229288" style="fill: #00008b; stroke: #00008b"/>
     <use xlink:href="#m21d5b88b3f" x="357.020904" y="362.229288" style="fill: #00008b; stroke: #00008b"/>
     <use xlink:href="#m21d5b88b3f" x="362.804255" y="362.229288" style="fill: #00008b; stroke: #00008b"/>
     <use xlink:href="#m21d5b88b3f" x="368.587606" y="362.229288" style="fill: #00008b; stroke: #00008b"/>
     <use xlink:href="#m21d5b88b3f" x="374.370957" y="362.229288" style="fill: #00008b; stroke: #00008b"/>
     <use xlink:href="#m21d5b88b3f" x="380.154308" y="362.229288" style="fill: #00008b; stroke: #00008b"/>
     <use xlink:href="#m21d5b88b3f" x="385.937659" y="362.229288" style="fill: #00008b; stroke: #00008b"/>
     <use xlink:href="#m21d5b88b3f" x="391.72101" y="362.229288" style="fill: #00008b; stroke: #00008b"/>
     <use xlink:href="#m21d5b88b3f" x="397.50436" y="362.229288" style="fill: #00008b; stroke: #00008b"/>
     <use xlink:href="#m21d5b88b3f" x="403.287711" y="362.229288" style="fill: #00008b; stroke: #00008b"/>
     <use xlink:href="#m21d5b88b3f" x="409.071062" y="362.229288" style="fill: #00008b; stroke: #00008b"/>
     <use xlink:href="#m21d5b88b3f" x="414.854413" y="362.229288" style="fill: #00008b; stroke: #00008b"/>
     <use xlink:href="#m21d5b88b3f" x="420.637764" y="362.229288" style="fill: #00008b; stroke: #00008b"/>
     <use xlink:href="#m21d5b88b3f" x="426.421115" y="362.229288" style="fill: #00008b; stroke: #00008b"/>
     <use xlink:href="#m21d5b88b3f" x="432.204466" y="362.229288" style="fill: #00008b; stroke: #00008b"/>
     <use xlink:href="#m21d5b88b3f" x="437.987817" y="362.229288" style="fill: #00008b; stroke: #00008b"/>
     <use xlink:href="#m21d5b88b3f" x="443.771168" y="362.229288" style="fill: #00008b; stroke: #00008b"/>
     <use xlink:href="#m21d5b88b3f" x="449.554519" y="362.229288" style="fill: #00008b; stroke: #00008b"/>
     <use xlink:href="#m21d5b88b3f" x="455.33787" y="362.229288" style="fill: #00008b; stroke: #00008b"/>
     <use xlink:href="#m21d5b88b3f" x="461.121221" y="362.229288" style="fill: #00008b; stroke: #00008b"/>
     <use xlink:href="#m21d5b88b3f" x="466.904572" y="362.229288" style="fill: #00008b; stroke: #00008b"/>
     <use xlink:href="#m21d5b88b3f" x="472.687923" y="362.229288" style="fill: #00008b; stroke: #00008b"/>
     <use xlink:href="#m21d5b88b3f" x="478.471274" y="362.229288" style="fill: #00008b; stroke: #00008b"/>
     <use xlink:href="#m21d5b88b3f" x="484.254625" y="362.229288" style="fill: #00008b; stroke: #00008b"/>
     <use xlink:href="#m21d5b88b3f" x="490.037976" y="362.229288" style="fill: #00008b; stroke: #00008b"/>
     <use xlink:href="#m21d5b88b3f" x="495.821327" y="362.229288" style="fill: #00008b; stroke: #00008b"/>
     <use xlink:href="#m21d5b88b3f" x="501.604678" y="362.229288" style="fill: #00008b; stroke: #00008b"/>
     <use xlink:href="#m21d5b88b3f" x="507.388029" y="362.229288" style="fill: #00008b; stroke: #00008b"/>
     <use xlink:href="#m21d5b88b3f" x="513.171379" y="362.229288" style="fill: #00008b; stroke: #00008b"/>
     <use xlink:href="#m21d5b88b3f" x="518.95473" y="362.229288" style="fill: #00008b; stroke: #00008b"/>
     <use xlink:href="#m21d5b88b3f" x="524.738081" y="362.229288" style="fill: #00008b; stroke: #00008b"/>
     <use xlink:href="#m21d5b88b3f" x="530.521432" y="362.229288" style="fill: #00008b; stroke: #00008b"/>
     <use xlink:href="#m21d5b88b3f" x="536.304783" y="362.229288" style="fill: #00008b; stroke: #00008b"/>
     <use xlink:href="#m21d5b88b3f" x="542.088134" y="362.229288" style="fill: #00008b; stroke: #00008b"/>
     <use xlink:href="#m21d5b88b3f" x="547.871485" y="362.229288" style="fill: #00008b; stroke: #00008b"/>
     <use xlink:href="#m21d5b88b3f" x="553.654836" y="362.229288" style="fill: #00008b; stroke: #00008b"/>
     <use xlink:href="#m21d5b88b3f" x="559.438187" y="362.229288" style="fill: #00008b; stroke: #00008b"/>
     <use xlink:href="#m21d5b88b3f" x="565.221538" y="362.229288" style="fill: #00008b; stroke: #00008b"/>
     <use xlink:href="#m21d5b88b3f" x="571.004889" y="362.229288" style="fill: #00008b; stroke: #00008b"/>
     <use xlink:href="#m21d5b88b3f" x="576.78824" y="362.229288" style="fill: #00008b; stroke: #00008b"/>
     <use xlink:href="#m21d5b88b3f" x="582.571591" y="362.229288" style="fill: #00008b; stroke: #00008b"/>
    </g>
   </g>
   <g id="line2d_18">
    <path d="M 85.203409 354.704841 
L 90.98676 354.12869 
L 96.770111 354.522333 
L 102.553462 354.065655 
L 108.336813 353.103907 
L 114.120164 353.565304 
L 119.903515 354.19237 
L 125.686866 353.608411 
L 131.470217 353.665526 
L 137.253568 353.38306 
L 143.036919 358.139694 
L 148.82027 354.850128 
L 154.603621 354.711221 
L 160.386971 354.094744 
L 166.170322 358.23373 
L 171.953673 360.491748 
L 177.737024 360.369964 
L 183.520375 356.304522 
L 189.303726 351.935222 
L 195.087077 345.768534 
L 200.870428 336.401022 
L 206.653779 324.558731 
L 212.43713 318.632703 
L 218.220481 308.125986 
L 224.003832 302.780726 
L 229.787183 301.178789 
L 235.570534 296.326606 
L 241.353885 286.171958 
L 247.137236 271.323512 
L 252.920587 255.347325 
L 258.703938 244.933044 
L 264.487289 235.599803 
L 270.27064 219.024683 
L 276.05399 205.973508 
L 281.837341 198.524735 
L 287.620692 194.731621 
L 293.404043 183.749217 
L 299.187394 173.599582 
L 304.970745 167.667703 
L 310.754096 156.382937 
L 316.537447 144.470121 
L 322.320798 136.452 
L 328.104149 135.849387 
L 333.8875 128.326193 
L 339.670851 118.247235 
L 345.454202 119.363626 
L 351.237553 124.276628 
L 357.020904 125.717766 
L 362.804255 127.612061 
L 368.587606 128.211192 
L 374.370957 125.081138 
L 380.154308 128.077312 
L 385.937659 130.671577 
L 391.72101 128.953836 
L 397.50436 130.420228 
L 403.287711 130.701898 
L 409.071062 129.395215 
L 414.854413 128.014576 
L 420.637764 124.559155 
L 426.421115 127.657453 
L 432.204466 134.743798 
L 437.987817 129.899479 
L 443.771168 141.945731 
L 449.554519 151.826678 
L 455.33787 157.957024 
L 461.121221 160.852662 
L 466.904572 160.044006 
L 472.687923 158.408236 
L 478.471274 157.549919 
L 484.254625 156.597512 
L 490.037976 156.409065 
L 495.821327 159.371554 
L 501.604678 159.611217 
L 507.388029 162.04979 
L 513.171379 162.48393 
L 518.95473 165.389925 
L 524.738081 166.176805 
L 530.521432 169.265421 
L 536.304783 170.326725 
L 542.088134 171.256516 
L 547.871485 173.527701 
L 553.654836 175.119736 
L 559.438187 176.559761 
L 565.221538 176.852463 
L 571.004889 179.169799 
L 576.78824 181.592746 
L 582.571591 182.376223 
" clip-path="url(#p9a86c5fb3a)" style="fill: none; stroke: #6060eb; stroke-width: 2; stroke-linecap: round"/>
   </g>
   <g id="line2d_19">
    <path d="M 85.203409 354.092253 
L 90.98676 354.198651 
L 96.770111 354.178255 
L 102.553462 354.19187 
L 108.336813 354.131859 
L 114.120164 354.232689 
L 119.903515 353.929927 
L 125.686866 353.995882 
L 131.470217 354.019061 
L 137.253568 354.221141 
L 143.036919 350.757514 
L 148.82027 350.827518 
L 154.603621 350.754344 
L 160.386971 350.918155 
L 166.170322 349.384323 
L 171.953673 347.989257 
L 177.737024 347.226725 
L 183.520375 347.164315 
L 189.303726 347.868116 
L 195.087077 349.264261 
L 200.870428 349.339897 
L 206.653779 348.324975 
L 212.43713 347.738981 
L 218.220481 346.235776 
L 224.003832 344.215929 
L 229.787183 343.42042 
L 235.570534 345.107928 
L 241.353885 346.309515 
L 247.137236 346.447048 
L 252.920587 346.462283 
L 258.703938 346.574728 
L 264.487289 346.837607 
L 270.27064 345.922362 
L 276.05399 345.009408 
L 281.837341 344.257459 
L 287.620692 343.5969 
L 293.404043 342.743685 
L 299.187394 342.298497 
L 304.970745 342.602634 
L 310.754096 342.643822 
L 316.537447 341.80946 
L 322.320798 340.988052 
L 328.104149 341.829794 
L 333.8875 343.028553 
L 339.670851 344.585574 
L 345.454202 344.648849 
L 351.237553 343.869495 
L 357.020904 344.019457 
L 362.804255 344.645959 
L 368.587606 344.041222 
L 374.370957 342.803259 
L 380.154308 342.161629 
L 385.937659 341.297855 
L 391.72101 339.926974 
L 397.50436 339.845231 
L 403.287711 341.811415 
L 409.071062 341.84559 
L 414.854413 341.678029 
L 420.637764 343.234785 
L 426.421115 344.586061 
L 432.204466 345.92831 
L 437.987817 346.011245 
L 443.771168 346.460895 
L 449.554519 346.569012 
L 455.33787 347.000548 
L 461.121221 347.350651 
L 466.904572 347.555666 
L 472.687923 347.512298 
L 478.471274 347.475129 
L 484.254625 347.730925 
L 490.037976 347.882851 
L 495.821327 347.899055 
L 501.604678 348.107129 
L 507.388029 348.108897 
L 513.171379 347.932117 
L 518.95473 347.737221 
L 524.738081 347.759315 
L 530.521432 347.914535 
L 536.304783 348.131047 
L 542.088134 348.111001 
L 547.871485 348.292622 
L 553.654836 348.344443 
L 559.438187 348.477607 
L 565.221538 348.702035 
L 571.004889 348.786837 
L 576.78824 348.740075 
L 582.571591 348.980752 
" clip-path="url(#p9a86c5fb3a)" style="fill: none; stroke-dasharray: 7.4,3.2; stroke-dashoffset: 0; stroke: #6060eb; stroke-width: 2"/>
   </g>
   <g id="line2d_20">
    <path d="M 143.036919 378.54 
L 143.036919 26.96 
" clip-path="url(#p9a86c5fb3a)" style="fill: none; stroke-dasharray: 5.55,2.4; stroke-dashoffset: 0; stroke: #1a1a1a; stroke-width: 1.5"/>
   </g>
   <g id="line2d_21">
    <path d="M 432.204466 378.54 
L 432.204466 26.96 
" clip-path="url(#p9a86c5fb3a)" style="fill: none; stroke-dasharray: 5.55,2.4; stroke-dashoffset: 0; stroke: #1a1a1a; stroke-width: 1.5"/>
   </g>
   <g id="line2d_22">
    <path d="M 85.203409 352.826866 
L 90.98676 351.825526 
L 96.770111 352.549319 
L 102.553462 348.90813 
L 108.336813 348.467265 
L 114.120164 349.52538 
L 119.903515 349.120313 
L 125.686866 349.051317 
L 131.470217 350.705309 
L 137.253568 348.717804 
L 143.036919 347.439149 
L 148.82027 345.309692 
L 154.603621 346.678839 
L 160.386971 347.034376 
L 166.170322 350.013068 
L 171.953673 349.752046 
L 177.737024 350.891492 
L 183.520375 349.428789 
L 189.303726 349.447665 
L 195.087077 345.501718 
L 200.870428 344.512127 
L 206.653779 338.900046 
L 212.43713 334.578023 
L 218.220481 328.995817 
L 224.003832 322.164714 
L 229.787183 316.571488 
L 235.570534 311.333163 
L 241.353885 305.362356 
L 247.137236 299.18493 
L 252.920587 291.46179 
L 258.703938 282.383064 
L 264.487289 273.550713 
L 270.27064 262.49655 
L 276.05399 251.415432 
L 281.837341 238.627783 
L 287.620692 226.669278 
L 293.404043 215.554918 
L 299.187394 205.108639 
L 304.970745 192.012318 
L 310.754096 184.162867 
L 316.537447 173.818208 
L 322.320798 163.018972 
L 328.104149 153.804369 
L 333.8875 146.303335 
L 339.670851 140.565229 
L 345.454202 134.355512 
L 351.237553 127.020658 
L 357.020904 121.688776 
L 362.804255 117.726059 
L 368.587606 113.617191 
L 374.370957 110.486407 
L 380.154308 108.801363 
L 385.937659 106.320316 
L 391.72101 104.370903 
L 397.50436 101.665037 
L 403.287711 98.563388 
L 409.071062 96.340202 
L 414.854413 94.801697 
L 420.637764 94.315628 
L 426.421115 94.039343 
L 432.204466 93.900421 
L 437.987817 101.138959 
L 443.771168 103.801216 
L 449.554519 102.623618 
L 455.33787 97.339029 
L 461.121221 91.269381 
L 466.904572 87.289875 
L 472.687923 83.837585 
L 478.471274 81.368264 
L 484.254625 78.77181 
L 490.037976 77.460371 
L 495.821327 76.26161 
L 501.604678 77.318626 
L 507.388029 74.129456 
L 513.171379 75.736725 
L 518.95473 74.745214 
L 524.738081 72.99252 
L 530.521432 73.202012 
L 536.304783 69.806237 
L 542.088134 68.925465 
L 547.871485 69.806183 
L 553.654836 70.957433 
L 559.438187 70.997433 
L 565.221538 71.182473 
L 571.004889 71.679695 
L 576.78824 72.331809 
L 582.571591 74.451137 
" clip-path="url(#p9a86c5fb3a)" style="fill: none; stroke: #00008b; stroke-width: 2; stroke-linecap: round"/>
   </g>
   <g id="line2d_23">
    <path d="M 85.203409 353.007324 
L 90.98676 352.002969 
L 96.770111 350.980388 
L 102.553462 350.106484 
L 108.336813 348.956178 
L 114.120164 347.695442 
L 119.903515 346.898822 
L 125.686866 346.610984 
L 131.470217 346.243513 
L 137.253568 345.316977 
L 143.036919 343.638895 
L 148.82027 342.533844 
L 154.603621 341.631187 
L 160.386971 341.544109 
L 166.170322 341.636395 
L 171.953673 341.788175 
L 177.737024 342.045038 
L 183.520375 341.331228 
L 189.303726 341.433813 
L 195.087077 342.109478 
L 200.870428 341.851563 
L 206.653779 342.862023 
L 212.43713 342.666143 
L 218.220481 343.027587 
L 224.003832 342.694786 
L 229.787183 343.533437 
L 235.570534 343.451441 
L 241.353885 343.37856 
L 247.137236 343.061918 
L 252.920587 342.663401 
L 258.703938 342.82904 
L 264.487289 343.0961 
L 270.27064 343.287933 
L 276.05399 343.441841 
L 281.837341 343.017491 
L 287.620692 342.569909 
L 293.404043 342.224972 
L 299.187394 341.1643 
L 304.970745 340.569441 
L 310.754096 340.223033 
L 316.537447 340.223109 
L 322.320798 340.102982 
L 328.104149 339.842375 
L 333.8875 339.365513 
L 339.670851 339.018014 
L 345.454202 339.08827 
L 351.237553 338.772742 
L 357.020904 338.930956 
L 362.804255 338.77276 
L 368.587606 338.609604 
L 374.370957 338.367985 
L 380.154308 338.312584 
L 385.937659 338.60819 
L 391.72101 338.649188 
L 397.50436 338.566465 
L 403.287711 339.124267 
L 409.071062 339.738094 
L 414.854413 339.716851 
L 420.637764 340.306848 
L 426.421115 340.704192 
L 432.204466 341.380614 
L 437.987817 342.308869 
L 443.771168 342.756641 
L 449.554519 343.230315 
L 455.33787 343.33171 
L 461.121221 343.691207 
L 466.904572 343.872411 
L 472.687923 344.41479 
L 478.471274 344.655653 
L 484.254625 345.018243 
L 490.037976 345.119583 
L 495.821327 345.517354 
L 501.604678 345.561241 
L 507.388029 345.525006 
L 513.171379 345.799584 
L 518.95473 345.461248 
L 524.738081 345.531603 
L 530.521432 345.583072 
L 536.304783 345.687136 
L 542.088134 345.617208 
L 547.871485 346.373524 
L 553.654836 346.63921 
L 559.438187 346.546574 
L 565.221538 346.190643 
L 571.004889 346.009161 
L 576.78824 345.938038 
L 582.571591 346.349972 
" clip-path="url(#p9a86c5fb3a)" style="fill: none; stroke-dasharray: 7.4,3.2; stroke-dashoffset: 0; stroke: #00008b; stroke-width: 2"/>
   </g>
   <g id="line2d_24">
    <path d="M 143.036919 378.54 
L 143.036919 26.96 
" clip-path="url(#p9a86c5fb3a)" style="fill: none; stroke-dasharray: 5.55,2.4; stroke-dashoffset: 0; stroke: #1a1a1a; stroke-width: 1.5"/>
   </g>
   <g id="line2d_25">
    <path d="M 432.204466 378.54 
L 432.204466 26.96 
" clip-path="url(#p9a86c5fb3a)" style="fill: none; stroke-dasharray: 5.55,2.4; stroke-dashoffset: 0; stroke: #1a1a1a; stroke-width: 1.5"/>
   </g>
   <g id="patch_3">
    <path d="M 60.335 378.54 
L 60.335 26.96 
" style="fill: none; stroke: #000000; stroke-width: 1.5; stroke-linejoin: miter; stroke-linecap: square"/>
   </g>
   <g id="patch_4">
    <path d="M 60.335 378.54 
L 607.44 378.54 
" style="fill: none; stroke: #000000; stroke-width: 1.5; stroke-linejoin: miter; stroke-linecap: square"/>
   </g>
   <g id="text_20">
    <!-- Divergence Comparison: Original vs Shuffled -->
    <g style="fill: #262626" transform="translate(214.2775 20.96) scale(0.12 -0.12)">
     <defs>
      <path id="ArialMT-43" d="M 3763 1606 
L 4369 1453 
Q 4178 706 3683 314 
Q 3188 -78 2472 -78 
Q 1731 -78 1267 223 
Q 803 525 561 1097 
Q 319 1669 319 2325 
Q 319 3041 592 3573 
Q 866 4106 1370 4382 
Q 1875 4659 2481 4659 
Q 3169 4659 3637 4309 
Q 4106 3959 4291 3325 
L 3694 3184 
Q 3534 3684 3231 3912 
Q 2928 4141 2469 4141 
Q 1941 4141 1586 3887 
Q 1231 3634 1087 3207 
Q 944 2781 944 2328 
Q 944 1744 1114 1308 
Q 1284 872 1643 656 
Q 2003 441 2422 441 
Q 2931 441 3284 734 
Q 3638 1028 3763 1606 
z
" transform="scale(0.015625)"/>
      <path id="ArialMT-6f" d="M 213 1659 
Q 213 2581 725 3025 
Q 1153 3394 1769 3394 
Q 2453 3394 2887 2945 
Q 3322 2497 3322 1706 
Q 3322 1066 3130 698 
Q 2938 331 2570 128 
Q 2203 -75 1769 -75 
Q 1072 -75 642 372 
Q 213 819 213 1659 
z
M 791 1659 
Q 791 1022 1069 705 
Q 1347 388 1769 388 
Q 2188 388 2466 706 
Q 2744 1025 2744 1678 
Q 2744 2294 2464 2611 
Q 2184 2928 1769 2928 
Q 1347 2928 1069 2612 
Q 791 2297 791 1659 
z
" transform="scale(0.015625)"/>
      <path id="ArialMT-70" d="M 422 -1272 
L 422 3319 
L 934 3319 
L 934 2888 
Q 1116 3141 1344 3267 
Q 1572 3394 1897 3394 
Q 2322 3394 2647 3175 
Q 2972 2956 3137 2557 
Q 3303 2159 3303 1684 
Q 3303 1175 3120 767 
Q 2938 359 2589 142 
Q 2241 -75 1856 -75 
Q 1575 -75 1351 44 
Q 1128 163 984 344 
L 984 -1272 
L 422 -1272 
z
M 931 1641 
Q 931 1000 1190 694 
Q 1450 388 1819 388 
Q 2194 388 2461 705 
Q 2728 1022 2728 1688 
Q 2728 2322 2467 2637 
Q 2206 2953 1844 2953 
Q 1484 2953 1207 2617 
Q 931 2281 931 1641 
z
" transform="scale(0.015625)"/>
      <path id="ArialMT-61" d="M 2588 409 
Q 2275 144 1986 34 
Q 1697 -75 1366 -75 
Q 819 -75 525 192 
Q 231 459 231 875 
Q 231 1119 342 1320 
Q 453 1522 633 1644 
Q 813 1766 1038 1828 
Q 1203 1872 1538 1913 
Q 2219 1994 2541 2106 
Q 2544 2222 2544 2253 
Q 2544 2597 2384 2738 
Q 2169 2928 1744 2928 
Q 1347 2928 1158 2789 
Q 969 2650 878 2297 
L 328 2372 
Q 403 2725 575 2942 
Q 747 3159 1072 3276 
Q 1397 3394 1825 3394 
Q 2250 3394 2515 3294 
Q 2781 3194 2906 3042 
Q 3031 2891 3081 2659 
Q 3109 2516 3109 2141 
L 3109 1391 
Q 3109 606 3145 398 
Q 3181 191 3288 0 
L 2700 0 
Q 2613 175 2588 409 
z
M 2541 1666 
Q 2234 1541 1622 1453 
Q 1275 1403 1131 1340 
Q 988 1278 909 1158 
Q 831 1038 831 891 
Q 831 666 1001 516 
Q 1172 366 1500 366 
Q 1825 366 2078 508 
Q 2331 650 2450 897 
Q 2541 1088 2541 1459 
L 2541 1666 
z
" transform="scale(0.015625)"/>
      <path id="ArialMT-3a" d="M 578 2678 
L 578 3319 
L 1219 3319 
L 1219 2678 
L 578 2678 
z
M 578 0 
L 578 641 
L 1219 641 
L 1219 0 
L 578 0 
z
" transform="scale(0.015625)"/>
      <path id="ArialMT-4f" d="M 309 2231 
Q 309 3372 921 4017 
Q 1534 4663 2503 4663 
Q 3138 4663 3647 4359 
Q 4156 4056 4423 3514 
Q 4691 2972 4691 2284 
Q 4691 1588 4409 1038 
Q 4128 488 3612 205 
Q 3097 -78 2500 -78 
Q 1853 -78 1343 234 
Q 834 547 571 1087 
Q 309 1628 309 2231 
z
M 934 2222 
Q 934 1394 1379 917 
Q 1825 441 2497 441 
Q 3181 441 3623 922 
Q 4066 1403 4066 2288 
Q 4066 2847 3877 3264 
Q 3688 3681 3323 3911 
Q 2959 4141 2506 4141 
Q 1863 4141 1398 3698 
Q 934 3256 934 2222 
z
" transform="scale(0.015625)"/>
      <path id="ArialMT-6c" d="M 409 0 
L 409 4581 
L 972 4581 
L 972 0 
L 409 0 
z
" transform="scale(0.015625)"/>
      <path id="ArialMT-53" d="M 288 1472 
L 859 1522 
Q 900 1178 1048 958 
Q 1197 738 1509 602 
Q 1822 466 2213 466 
Q 2559 466 2825 569 
Q 3091 672 3220 851 
Q 3350 1031 3350 1244 
Q 3350 1459 3225 1620 
Q 3100 1781 2813 1891 
Q 2628 1963 1997 2114 
Q 1366 2266 1113 2400 
Q 784 2572 623 2826 
Q 463 3081 463 3397 
Q 463 3744 659 4045 
Q 856 4347 1234 4503 
Q 1613 4659 2075 4659 
Q 2584 4659 2973 4495 
Q 3363 4331 3572 4012 
Q 3781 3694 3797 3291 
L 3216 3247 
Q 3169 3681 2898 3903 
Q 2628 4125 2100 4125 
Q 1550 4125 1298 3923 
Q 1047 3722 1047 3438 
Q 1047 3191 1225 3031 
Q 1400 2872 2139 2705 
Q 2878 2538 3153 2413 
Q 3553 2228 3743 1945 
Q 3934 1663 3934 1294 
Q 3934 928 3725 604 
Q 3516 281 3123 101 
Q 2731 -78 2241 -78 
Q 1619 -78 1198 103 
Q 778 284 539 648 
Q 300 1013 288 1472 
z
" transform="scale(0.015625)"/>
      <path id="ArialMT-68" d="M 422 0 
L 422 4581 
L 984 4581 
L 984 2938 
Q 1378 3394 1978 3394 
Q 2347 3394 2619 3248 
Q 2891 3103 3008 2847 
Q 3125 2591 3125 2103 
L 3125 0 
L 2563 0 
L 2563 2103 
Q 2563 2525 2380 2717 
Q 2197 2909 1863 2909 
Q 1613 2909 1392 2779 
Q 1172 2650 1078 2428 
Q 984 2206 984 1816 
L 984 0 
L 422 0 
z
" transform="scale(0.015625)"/>
      <path id="ArialMT-75" d="M 2597 0 
L 2597 488 
Q 2209 -75 1544 -75 
Q 1250 -75 995 37 
Q 741 150 617 320 
Q 494 491 444 738 
Q 409 903 409 1263 
L 409 3319 
L 972 3319 
L 972 1478 
Q 972 1038 1006 884 
Q 1059 663 1231 536 
Q 1403 409 1656 409 
Q 1909 409 2131 539 
Q 2353 669 2445 892 
Q 2538 1116 2538 1541 
L 2538 3319 
L 3100 3319 
L 3100 0 
L 2597 0 
z
" transform="scale(0.015625)"/>
      <path id="ArialMT-66" d="M 556 0 
L 556 2881 
L 59 2881 
L 59 3319 
L 556 3319 
L 556 3672 
Q 556 4006 616 4169 
Q 697 4388 901 4523 
Q 1106 4659 1475 4659 
Q 1713 4659 2000 4603 
L 1916 4113 
Q 1741 4144 1584 4144 
Q 1328 4144 1222 4034 
Q 1116 3925 1116 3625 
L 1116 3319 
L 1763 3319 
L 1763 2881 
L 1116 2881 
L 1116 0 
L 556 0 
z
" transform="scale(0.015625)"/>
      <path id="ArialMT-64" d="M 2575 0 
L 2575 419 
Q 2259 -75 1647 -75 
Q 1250 -75 917 144 
Q 584 363 401 755 
Q 219 1147 219 1656 
Q 219 2153 384 2558 
Q 550 2963 881 3178 
Q 1213 3394 1622 3394 
Q 1922 3394 2156 3267 
Q 2391 3141 2538 2938 
L 2538 4581 
L 3097 4581 
L 3097 0 
L 2575 0 
z
M 797 1656 
Q 797 1019 1065 703 
Q 1334 388 1700 388 
Q 2069 388 2326 689 
Q 2584 991 2584 1609 
Q 2584 2291 2321 2609 
Q 2059 2928 1675 2928 
Q 1300 2928 1048 2622 
Q 797 2316 797 1656 
z
" transform="scale(0.015625)"/>
     </defs>
     <use xlink:href="#ArialMT-44"/>
     <use xlink:href="#ArialMT-69" x="72.216797"/>
     <use xlink:href="#ArialMT-76" x="94.433594"/>
     <use xlink:href="#ArialMT-65" x="144.433594"/>
     <use xlink:href="#ArialMT-72" x="200.048828"/>
     <use xlink:href="#ArialMT-67" x="233.349609"/>
     <use xlink:href="#ArialMT-65" x="288.964844"/>
     <use xlink:href="#ArialMT-6e" x="344.580078"/>
     <use xlink:href="#ArialMT-63" x="400.195312"/>
     <use xlink:href="#ArialMT-65" x="450.195312"/>
     <use xlink:href="#ArialMT-20" x="505.810547"/>
     <use xlink:href="#ArialMT-43" x="533.59375"/>
     <use xlink:href="#ArialMT-6f" x="605.810547"/>
     <use xlink:href="#ArialMT-6d" x="661.425781"/>
     <use xlink:href="#ArialMT-70" x="744.726562"/>
     <use xlink:href="#ArialMT-61" x="800.341797"/>
     <use xlink:href="#ArialMT-72" x="855.957031"/>
     <use xlink:href="#ArialMT-69" x="889.257812"/>
     <use xlink:href="#ArialMT-73" x="911.474609"/>
     <use xlink:href="#ArialMT-6f" x="961.474609"/>
     <use xlink:href="#ArialMT-6e" x="1017.089844"/>
     <use xlink:href="#ArialMT-3a" x="1072.705078"/>
     <use xlink:href="#ArialMT-20" x="1100.488281"/>
     <use xlink:href="#ArialMT-4f" x="1128.271484"/>
     <use xlink:href="#ArialMT-72" x="1206.054688"/>
     <use xlink:href="#ArialMT-69" x="1239.355469"/>
     <use xlink:href="#ArialMT-67" x="1261.572266"/>
     <use xlink:href="#ArialMT-69" x="1317.1875"/>
     <use xlink:href="#ArialMT-6e" x="1339.404297"/>
     <use xlink:href="#ArialMT-61" x="1395.019531"/>
     <use xlink:href="#ArialMT-6c" x="1450.634766"/>
     <use xlink:href="#ArialMT-20" x="1472.851562"/>
     <use xlink:href="#ArialMT-76" x="1500.634766"/>
     <use xlink:href="#ArialMT-73" x="1550.634766"/>
     <use xlink:href="#ArialMT-20" x="1600.634766"/>
     <use xlink:href="#ArialMT-53" x="1628.417969"/>
     <use xlink:href="#ArialMT-68" x="1695.117188"/>
     <use xlink:href="#ArialMT-75" x="1750.732422"/>
     <use xlink:href="#ArialMT-66" x="1806.347656"/>
     <use xlink:href="#ArialMT-66" x="1832.380859"/>
     <use xlink:href="#ArialMT-6c" x="1860.164062"/>
     <use xlink:href="#ArialMT-65" x="1882.380859"/>
     <use xlink:href="#ArialMT-64" x="1937.996094"/>
    </g>
   </g>
   <g id="legend_1">
    <g id="patch_5">
     <path d="M 615.14 259.415469 
L 704.741875 259.415469 
Q 706.941875 259.415469 706.941875 257.215469 
L 706.941875 148.284531 
Q 706.941875 146.084531 704.741875 146.084531 
L 615.14 146.084531 
Q 612.94 146.084531 612.94 148.284531 
L 612.94 257.215469 
Q 612.94 259.415469 615.14 259.415469 
z
" style="fill: #ffffff; opacity: 0.8; stroke: #cccccc; stroke-linejoin: miter"/>
    </g>
    <g id="line2d_26">
     <path d="M 617.34 154.649062 
L 628.34 154.649062 
L 639.34 154.649062 
" style="fill: none; stroke: #6060eb; stroke-width: 2; stroke-linecap: round"/>
    </g>
    <g id="text_21">
     <!-- Original -->
     <g style="fill: #262626" transform="translate(648.14 158.499062) scale(0.11 -0.11)">
      <use xlink:href="#ArialMT-4f"/>
      <use xlink:href="#ArialMT-72" x="77.783203"/>
      <use xlink:href="#ArialMT-69" x="111.083984"/>
      <use xlink:href="#ArialMT-67" x="133.300781"/>
      <use xlink:href="#ArialMT-69" x="188.916016"/>
      <use xlink:href="#ArialMT-6e" x="211.132812"/>
      <use xlink:href="#ArialMT-61" x="266.748047"/>
      <use xlink:href="#ArialMT-6c" x="322.363281"/>
     </g>
    </g>
    <g id="line2d_27">
     <path d="M 617.34 170.47875 
L 628.34 170.47875 
L 639.34 170.47875 
" style="fill: none; stroke-dasharray: 7.4,3.2; stroke-dashoffset: 0; stroke: #6060eb; stroke-width: 2"/>
    </g>
    <g id="text_22">
     <!-- Original -->
     <g style="fill: #262626" transform="translate(648.14 174.32875) scale(0.11 -0.11)">
      <use xlink:href="#ArialMT-4f"/>
      <use xlink:href="#ArialMT-72" x="77.783203"/>
      <use xlink:href="#ArialMT-69" x="111.083984"/>
      <use xlink:href="#ArialMT-67" x="133.300781"/>
      <use xlink:href="#ArialMT-69" x="188.916016"/>
      <use xlink:href="#ArialMT-6e" x="211.132812"/>
      <use xlink:href="#ArialMT-61" x="266.748047"/>
      <use xlink:href="#ArialMT-6c" x="322.363281"/>
     </g>
    </g>
    <g id="PathCollection_3">
     <g>
      <use xlink:href="#m41225c0bfe" x="628.34" y="187.162656" style="fill: #6060eb; stroke: #6060eb"/>
     </g>
    </g>
    <g id="text_23">
     <!-- p &lt; 0.001 -->
     <g style="fill: #262626" transform="translate(648.14 190.050156) scale(0.11 -0.11)">
      <defs>
       <path id="ArialMT-3c" d="M 350 2003 
L 350 2528 
L 3384 3809 
L 3384 3250 
L 978 2263 
L 3384 1266 
L 3384 706 
L 350 2003 
z
" transform="scale(0.015625)"/>
      </defs>
      <use xlink:href="#ArialMT-70"/>
      <use xlink:href="#ArialMT-20" x="55.615234"/>
      <use xlink:href="#ArialMT-3c" x="83.398438"/>
      <use xlink:href="#ArialMT-20" x="141.796875"/>
      <use xlink:href="#ArialMT-30" x="169.580078"/>
      <use xlink:href="#ArialMT-2e" x="225.195312"/>
      <use xlink:href="#ArialMT-30" x="252.978516"/>
      <use xlink:href="#ArialMT-30" x="308.59375"/>
      <use xlink:href="#ArialMT-31" x="364.208984"/>
     </g>
    </g>
    <g id="line2d_28">
     <path d="M 617.34 201.76 
L 628.34 201.76 
L 639.34 201.76 
" style="fill: none; stroke-dasharray: 5.55,2.4; stroke-dashoffset: 0; stroke: #1a1a1a; stroke-width: 1.5"/>
    </g>
    <g id="text_24">
     <!-- Stim Onset -->
     <g style="fill: #262626" transform="translate(648.14 205.61) scale(0.11 -0.11)">
      <defs>
       <path id="ArialMT-74" d="M 1650 503 
L 1731 6 
Q 1494 -44 1306 -44 
Q 1000 -44 831 53 
Q 663 150 594 308 
Q 525 466 525 972 
L 525 2881 
L 113 2881 
L 113 3319 
L 525 3319 
L 525 4141 
L 1084 4478 
L 1084 3319 
L 1650 3319 
L 1650 2881 
L 1084 2881 
L 1084 941 
Q 1084 700 1114 631 
Q 1144 563 1211 522 
Q 1278 481 1403 481 
Q 1497 481 1650 503 
z
" transform="scale(0.015625)"/>
      </defs>
      <use xlink:href="#ArialMT-53"/>
      <use xlink:href="#ArialMT-74" x="66.699219"/>
      <use xlink:href="#ArialMT-69" x="94.482422"/>
      <use xlink:href="#ArialMT-6d" x="116.699219"/>
      <use xlink:href="#ArialMT-20" x="200"/>
      <use xlink:href="#ArialMT-4f" x="227.783203"/>
      <use xlink:href="#ArialMT-6e" x="305.566406"/>
      <use xlink:href="#ArialMT-73" x="361.181641"/>
      <use xlink:href="#ArialMT-65" x="411.181641"/>
      <use xlink:href="#ArialMT-74" x="466.796875"/>
     </g>
    </g>
    <g id="line2d_29">
     <path d="M 617.34 217.319844 
L 628.34 217.319844 
L 639.34 217.319844 
" style="fill: none; stroke-dasharray: 5.55,2.4; stroke-dashoffset: 0; stroke: #1a1a1a; stroke-width: 1.5"/>
    </g>
    <g id="text_25">
     <!-- Stim End -->
     <g style="fill: #262626" transform="translate(648.14 221.169844) scale(0.11 -0.11)">
      <defs>
       <path id="ArialMT-45" d="M 506 0 
L 506 4581 
L 3819 4581 
L 3819 4041 
L 1113 4041 
L 1113 2638 
L 3647 2638 
L 3647 2100 
L 1113 2100 
L 1113 541 
L 3925 541 
L 3925 0 
L 506 0 
z
" transform="scale(0.015625)"/>
      </defs>
      <use xlink:href="#ArialMT-53"/>
      <use xlink:href="#ArialMT-74" x="66.699219"/>
      <use xlink:href="#ArialMT-69" x="94.482422"/>
      <use xlink:href="#ArialMT-6d" x="116.699219"/>
      <use xlink:href="#ArialMT-20" x="200"/>
      <use xlink:href="#ArialMT-45" x="227.783203"/>
      <use xlink:href="#ArialMT-6e" x="294.482422"/>
      <use xlink:href="#ArialMT-64" x="350.097656"/>
     </g>
    </g>
    <g id="line2d_30">
     <path d="M 617.34 233.020625 
L 628.34 233.020625 
L 639.34 233.020625 
" style="fill: none; stroke: #00008b; stroke-width: 2; stroke-linecap: round"/>
    </g>
    <g id="text_26">
     <!-- Original -->
     <g style="fill: #262626" transform="translate(648.14 236.870625) scale(0.11 -0.11)">
      <use xlink:href="#ArialMT-4f"/>
      <use xlink:href="#ArialMT-72" x="77.783203"/>
      <use xlink:href="#ArialMT-69" x="111.083984"/>
      <use xlink:href="#ArialMT-67" x="133.300781"/>
      <use xlink:href="#ArialMT-69" x="188.916016"/>
      <use xlink:href="#ArialMT-6e" x="211.132812"/>
      <use xlink:href="#ArialMT-61" x="266.748047"/>
      <use xlink:href="#ArialMT-6c" x="322.363281"/>
     </g>
    </g>
    <g id="line2d_31">
     <path d="M 617.34 248.850313 
L 628.34 248.850313 
L 639.34 248.850313 
" style="fill: none; stroke-dasharray: 7.4,3.2; stroke-dashoffset: 0; stroke: #00008b; stroke-width: 2"/>
    </g>
    <g id="text_27">
     <!-- Original -->
     <g style="fill: #262626" transform="translate(648.14 252.700312) scale(0.11 -0.11)">
      <use xlink:href="#ArialMT-4f"/>
      <use xlink:href="#ArialMT-72" x="77.783203"/>
      <use xlink:href="#ArialMT-69" x="111.083984"/>
      <use xlink:href="#ArialMT-67" x="133.300781"/>
      <use xlink:href="#ArialMT-69" x="188.916016"/>
      <use xlink:href="#ArialMT-6e" x="211.132812"/>
      <use xlink:href="#ArialMT-61" x="266.748047"/>
      <use xlink:href="#ArialMT-6c" x="322.363281"/>
     </g>
    </g>
   </g>
  </g>
 </g>
 <defs>
  <clipPath id="p9a86c5fb3a">
   <rect x="60.335" y="26.96" width="547.105" height="351.58"/>
  </clipPath>
 </defs>
</svg>
