<?xml version="1.0" encoding="utf-8" standalone="no"?>
<!DOCTYPE svg PUBLIC "-//W3C//DTD SVG 1.1//EN"
  "http://www.w3.org/Graphics/SVG/1.1/DTD/svg11.dtd">
<svg xmlns:xlink="http://www.w3.org/1999/xlink" width="720pt" height="432pt" viewBox="0 0 720 432" xmlns="http://www.w3.org/2000/svg" version="1.1">
 <metadata>
  <rdf:RDF xmlns:dc="http://purl.org/dc/elements/1.1/" xmlns:cc="http://creativecommons.org/ns#" xmlns:rdf="http://www.w3.org/1999/02/22-rdf-syntax-ns#">
   <cc:Work>
    <dc:type rdf:resource="http://purl.org/dc/dcmitype/StillImage"/>
    <dc:date>2025-08-23T09:55:00.333978</dc:date>
    <dc:format>image/svg+xml</dc:format>
    <dc:creator>
     <cc:Agent>
      <dc:title>Matplotlib v3.9.4, https://matplotlib.org/</dc:title>
     </cc:Agent>
    </dc:creator>
   </cc:Work>
  </rdf:RDF>
 </metadata>
 <defs>
  <style type="text/css">*{stroke-linejoin: round; stroke-linecap: butt}</style>
 </defs>
 <g id="figure_1">
  <g id="patch_1">
   <path d="M 0 432 
L 720 432 
L 720 0 
L 0 0 
z
" style="fill: #ffffff"/>
  </g>
  <g id="axes_1">
   <g id="patch_2">
    <path d="M 69.57 378.18 
L 607.76 378.18 
L 607.76 27.6 
L 69.57 27.6 
L 69.57 378.18 
z
" style="fill: none"/>
   </g>
   <g id="matplotlib.axis_1">
    <g id="xtick_1">
     <g id="text_1">
      <!-- −500 -->
      <g style="fill: #262626" transform="translate(81.937306 398.416719) scale(0.15 -0.15)">
       <defs>
        <path id="ArialMT-2212" d="M 3381 1997 
L 356 1997 
L 356 2522 
L 3381 2522 
L 3381 1997 
z
" transform="scale(0.015625)"/>
        <path id="ArialMT-35" d="M 266 1200 
L 856 1250 
Q 922 819 1161 601 
Q 1400 384 1738 384 
Q 2144 384 2425 690 
Q 2706 997 2706 1503 
Q 2706 1984 2436 2262 
Q 2166 2541 1728 2541 
Q 1456 2541 1237 2417 
Q 1019 2294 894 2097 
L 366 2166 
L 809 4519 
L 3088 4519 
L 3088 3981 
L 1259 3981 
L 1013 2750 
Q 1425 3038 1878 3038 
Q 2478 3038 2890 2622 
Q 3303 2206 3303 1553 
Q 3303 931 2941 478 
Q 2500 -78 1738 -78 
Q 1113 -78 717 272 
Q 322 622 266 1200 
z
" transform="scale(0.015625)"/>
        <path id="ArialMT-30" d="M 266 2259 
Q 266 3072 433 3567 
Q 600 4063 929 4331 
Q 1259 4600 1759 4600 
Q 2128 4600 2406 4451 
Q 2684 4303 2865 4023 
Q 3047 3744 3150 3342 
Q 3253 2941 3253 2259 
Q 3253 1453 3087 958 
Q 2922 463 2592 192 
Q 2263 -78 1759 -78 
Q 1097 -78 719 397 
Q 266 969 266 2259 
z
M 844 2259 
Q 844 1131 1108 757 
Q 1372 384 1759 384 
Q 2147 384 2411 759 
Q 2675 1134 2675 2259 
Q 2675 3391 2411 3762 
Q 2147 4134 1753 4134 
Q 1366 4134 1134 3806 
Q 844 3388 844 2259 
z
" transform="scale(0.015625)"/>
       </defs>
       <use xlink:href="#ArialMT-2212"/>
       <use xlink:href="#ArialMT-35" x="58.398438"/>
       <use xlink:href="#ArialMT-30" x="114.013672"/>
       <use xlink:href="#ArialMT-30" x="169.628906"/>
      </g>
     </g>
    </g>
    <g id="xtick_2">
     <g id="text_2">
      <!-- −250 -->
      <g style="fill: #262626" transform="translate(141.896085 398.416719) scale(0.15 -0.15)">
       <defs>
        <path id="ArialMT-32" d="M 3222 541 
L 3222 0 
L 194 0 
Q 188 203 259 391 
Q 375 700 629 1000 
Q 884 1300 1366 1694 
Q 2113 2306 2375 2664 
Q 2638 3022 2638 3341 
Q 2638 3675 2398 3904 
Q 2159 4134 1775 4134 
Q 1369 4134 1125 3890 
Q 881 3647 878 3216 
L 300 3275 
Q 359 3922 746 4261 
Q 1134 4600 1788 4600 
Q 2447 4600 2831 4234 
Q 3216 3869 3216 3328 
Q 3216 3053 3103 2787 
Q 2991 2522 2730 2228 
Q 2469 1934 1863 1422 
Q 1356 997 1212 845 
Q 1069 694 975 541 
L 3222 541 
z
" transform="scale(0.015625)"/>
       </defs>
       <use xlink:href="#ArialMT-2212"/>
       <use xlink:href="#ArialMT-32" x="58.398438"/>
       <use xlink:href="#ArialMT-35" x="114.013672"/>
       <use xlink:href="#ArialMT-30" x="169.628906"/>
      </g>
     </g>
    </g>
    <g id="xtick_3">
     <g id="text_3">
      <!-- 0 -->
      <g style="fill: #262626" transform="translate(214.576739 398.416719) scale(0.15 -0.15)">
       <use xlink:href="#ArialMT-30"/>
      </g>
     </g>
    </g>
    <g id="xtick_4">
     <g id="text_4">
      <!-- 250 -->
      <g style="fill: #262626" transform="translate(266.194112 398.416719) scale(0.15 -0.15)">
       <use xlink:href="#ArialMT-32"/>
       <use xlink:href="#ArialMT-35" x="55.615234"/>
       <use xlink:href="#ArialMT-30" x="111.230469"/>
      </g>
     </g>
    </g>
    <g id="xtick_5">
     <g id="text_5">
      <!-- 500 -->
      <g style="fill: #262626" transform="translate(326.152891 398.416719) scale(0.15 -0.15)">
       <use xlink:href="#ArialMT-35"/>
       <use xlink:href="#ArialMT-30" x="55.615234"/>
       <use xlink:href="#ArialMT-30" x="111.230469"/>
      </g>
     </g>
    </g>
    <g id="xtick_6">
     <g id="text_6">
      <!-- 750 -->
      <g style="fill: #262626" transform="translate(386.11167 398.416719) scale(0.15 -0.15)">
       <defs>
        <path id="ArialMT-37" d="M 303 3981 
L 303 4522 
L 3269 4522 
L 3269 4084 
Q 2831 3619 2401 2847 
Q 1972 2075 1738 1259 
Q 1569 684 1522 0 
L 944 0 
Q 953 541 1156 1306 
Q 1359 2072 1739 2783 
Q 2119 3494 2547 3981 
L 303 3981 
z
" transform="scale(0.015625)"/>
       </defs>
       <use xlink:href="#ArialMT-37"/>
       <use xlink:href="#ArialMT-35" x="55.615234"/>
       <use xlink:href="#ArialMT-30" x="111.230469"/>
      </g>
     </g>
    </g>
    <g id="xtick_7">
     <g id="text_7">
      <!-- 1000 -->
      <g style="fill: #262626" transform="translate(441.899745 398.416719) scale(0.15 -0.15)">
       <defs>
        <path id="ArialMT-31" d="M 2384 0 
L 1822 0 
L 1822 3584 
Q 1619 3391 1289 3197 
Q 959 3003 697 2906 
L 697 3450 
Q 1169 3672 1522 3987 
Q 1875 4303 2022 4600 
L 2384 4600 
L 2384 0 
z
" transform="scale(0.015625)"/>
       </defs>
       <use xlink:href="#ArialMT-31"/>
       <use xlink:href="#ArialMT-30" x="55.615234"/>
       <use xlink:href="#ArialMT-30" x="111.230469"/>
       <use xlink:href="#ArialMT-30" x="166.845703"/>
      </g>
     </g>
    </g>
    <g id="xtick_8">
     <g id="text_8">
      <!-- 1250 -->
      <g style="fill: #262626" transform="translate(501.858524 398.416719) scale(0.15 -0.15)">
       <use xlink:href="#ArialMT-31"/>
       <use xlink:href="#ArialMT-32" x="55.615234"/>
       <use xlink:href="#ArialMT-35" x="111.230469"/>
       <use xlink:href="#ArialMT-30" x="166.845703"/>
      </g>
     </g>
    </g>
    <g id="xtick_9">
     <g id="text_9">
      <!-- 1500 -->
      <g style="fill: #262626" transform="translate(561.817303 398.416719) scale(0.15 -0.15)">
       <use xlink:href="#ArialMT-31"/>
       <use xlink:href="#ArialMT-35" x="55.615234"/>
       <use xlink:href="#ArialMT-30" x="111.230469"/>
       <use xlink:href="#ArialMT-30" x="166.845703"/>
      </g>
     </g>
    </g>
    <g id="text_10">
     <!-- Time (s) -->
     <g style="fill: #262626" transform="translate(311.452891 416.3175) scale(0.15 -0.15)">
      <defs>
       <path id="ArialMT-54" d="M 1659 0 
L 1659 4041 
L 150 4041 
L 150 4581 
L 3781 4581 
L 3781 4041 
L 2266 4041 
L 2266 0 
L 1659 0 
z
" transform="scale(0.015625)"/>
       <path id="ArialMT-69" d="M 425 3934 
L 425 4581 
L 988 4581 
L 988 3934 
L 425 3934 
z
M 425 0 
L 425 3319 
L 988 3319 
L 988 0 
L 425 0 
z
" transform="scale(0.015625)"/>
       <path id="ArialMT-6d" d="M 422 0 
L 422 3319 
L 925 3319 
L 925 2853 
Q 1081 3097 1340 3245 
Q 1600 3394 1931 3394 
Q 2300 3394 2536 3241 
Q 2772 3088 2869 2813 
Q 3263 3394 3894 3394 
Q 4388 3394 4653 3120 
Q 4919 2847 4919 2278 
L 4919 0 
L 4359 0 
L 4359 2091 
Q 4359 2428 4304 2576 
Q 4250 2725 4106 2815 
Q 3963 2906 3769 2906 
Q 3419 2906 3187 2673 
Q 2956 2441 2956 1928 
L 2956 0 
L 2394 0 
L 2394 2156 
Q 2394 2531 2256 2718 
Q 2119 2906 1806 2906 
Q 1569 2906 1367 2781 
Q 1166 2656 1075 2415 
Q 984 2175 984 1722 
L 984 0 
L 422 0 
z
" transform="scale(0.015625)"/>
       <path id="ArialMT-65" d="M 2694 1069 
L 3275 997 
Q 3138 488 2766 206 
Q 2394 -75 1816 -75 
Q 1088 -75 661 373 
Q 234 822 234 1631 
Q 234 2469 665 2931 
Q 1097 3394 1784 3394 
Q 2450 3394 2872 2941 
Q 3294 2488 3294 1666 
Q 3294 1616 3291 1516 
L 816 1516 
Q 847 969 1125 678 
Q 1403 388 1819 388 
Q 2128 388 2347 550 
Q 2566 713 2694 1069 
z
M 847 1978 
L 2700 1978 
Q 2663 2397 2488 2606 
Q 2219 2931 1791 2931 
Q 1403 2931 1139 2672 
Q 875 2413 847 1978 
z
" transform="scale(0.015625)"/>
       <path id="ArialMT-20" transform="scale(0.015625)"/>
       <path id="ArialMT-28" d="M 1497 -1347 
Q 1031 -759 709 28 
Q 388 816 388 1659 
Q 388 2403 628 3084 
Q 909 3875 1497 4659 
L 1900 4659 
Q 1522 4009 1400 3731 
Q 1209 3300 1100 2831 
Q 966 2247 966 1656 
Q 966 153 1900 -1347 
L 1497 -1347 
z
" transform="scale(0.015625)"/>
       <path id="ArialMT-73" d="M 197 991 
L 753 1078 
Q 800 744 1014 566 
Q 1228 388 1613 388 
Q 2000 388 2187 545 
Q 2375 703 2375 916 
Q 2375 1106 2209 1216 
Q 2094 1291 1634 1406 
Q 1016 1563 777 1677 
Q 538 1791 414 1992 
Q 291 2194 291 2438 
Q 291 2659 392 2848 
Q 494 3038 669 3163 
Q 800 3259 1026 3326 
Q 1253 3394 1513 3394 
Q 1903 3394 2198 3281 
Q 2494 3169 2634 2976 
Q 2775 2784 2828 2463 
L 2278 2388 
Q 2241 2644 2061 2787 
Q 1881 2931 1553 2931 
Q 1166 2931 1000 2803 
Q 834 2675 834 2503 
Q 834 2394 903 2306 
Q 972 2216 1119 2156 
Q 1203 2125 1616 2013 
Q 2213 1853 2448 1751 
Q 2684 1650 2818 1456 
Q 2953 1263 2953 975 
Q 2953 694 2789 445 
Q 2625 197 2315 61 
Q 2006 -75 1616 -75 
Q 969 -75 630 194 
Q 291 463 197 991 
z
" transform="scale(0.015625)"/>
       <path id="ArialMT-29" d="M 791 -1347 
L 388 -1347 
Q 1322 153 1322 1656 
Q 1322 2244 1188 2822 
Q 1081 3291 891 3722 
Q 769 4003 388 4659 
L 791 4659 
Q 1378 3875 1659 3084 
Q 1900 2403 1900 1659 
Q 1900 816 1576 28 
Q 1253 -759 791 -1347 
z
" transform="scale(0.015625)"/>
      </defs>
      <use xlink:href="#ArialMT-54"/>
      <use xlink:href="#ArialMT-69" x="57.333984"/>
      <use xlink:href="#ArialMT-6d" x="79.550781"/>
      <use xlink:href="#ArialMT-65" x="162.851562"/>
      <use xlink:href="#ArialMT-20" x="218.466797"/>
      <use xlink:href="#ArialMT-28" x="246.25"/>
      <use xlink:href="#ArialMT-73" x="279.550781"/>
      <use xlink:href="#ArialMT-29" x="329.550781"/>
     </g>
    </g>
   </g>
   <g id="matplotlib.axis_2">
    <g id="ytick_1">
     <g id="text_11">
      <!-- 0.00 -->
      <g style="fill: #262626" transform="translate(30.878594 351.722068) scale(0.15 -0.15)">
       <defs>
        <path id="ArialMT-2e" d="M 581 0 
L 581 641 
L 1222 641 
L 1222 0 
L 581 0 
z
" transform="scale(0.015625)"/>
       </defs>
       <use xlink:href="#ArialMT-30"/>
       <use xlink:href="#ArialMT-2e" x="55.615234"/>
       <use xlink:href="#ArialMT-30" x="83.398438"/>
       <use xlink:href="#ArialMT-30" x="139.013672"/>
      </g>
     </g>
    </g>
    <g id="ytick_2">
     <g id="text_12">
      <!-- 0.05 -->
      <g style="fill: #262626" transform="translate(30.878594 311.994976) scale(0.15 -0.15)">
       <use xlink:href="#ArialMT-30"/>
       <use xlink:href="#ArialMT-2e" x="55.615234"/>
       <use xlink:href="#ArialMT-30" x="83.398438"/>
       <use xlink:href="#ArialMT-35" x="139.013672"/>
      </g>
     </g>
    </g>
    <g id="ytick_3">
     <g id="text_13">
      <!-- 0.10 -->
      <g style="fill: #262626" transform="translate(30.878594 272.267884) scale(0.15 -0.15)">
       <use xlink:href="#ArialMT-30"/>
       <use xlink:href="#ArialMT-2e" x="55.615234"/>
       <use xlink:href="#ArialMT-31" x="83.398438"/>
       <use xlink:href="#ArialMT-30" x="139.013672"/>
      </g>
     </g>
    </g>
    <g id="ytick_4">
     <g id="text_14">
      <!-- 0.15 -->
      <g style="fill: #262626" transform="translate(30.878594 232.540793) scale(0.15 -0.15)">
       <use xlink:href="#ArialMT-30"/>
       <use xlink:href="#ArialMT-2e" x="55.615234"/>
       <use xlink:href="#ArialMT-31" x="83.398438"/>
       <use xlink:href="#ArialMT-35" x="139.013672"/>
      </g>
     </g>
    </g>
    <g id="ytick_5">
     <g id="text_15">
      <!-- 0.20 -->
      <g style="fill: #262626" transform="translate(30.878594 192.813701) scale(0.15 -0.15)">
       <use xlink:href="#ArialMT-30"/>
       <use xlink:href="#ArialMT-2e" x="55.615234"/>
       <use xlink:href="#ArialMT-32" x="83.398438"/>
       <use xlink:href="#ArialMT-30" x="139.013672"/>
      </g>
     </g>
    </g>
    <g id="ytick_6">
     <g id="text_16">
      <!-- 0.25 -->
      <g style="fill: #262626" transform="translate(30.878594 153.086609) scale(0.15 -0.15)">
       <use xlink:href="#ArialMT-30"/>
       <use xlink:href="#ArialMT-2e" x="55.615234"/>
       <use xlink:href="#ArialMT-32" x="83.398438"/>
       <use xlink:href="#ArialMT-35" x="139.013672"/>
      </g>
     </g>
    </g>
    <g id="ytick_7">
     <g id="text_17">
      <!-- 0.30 -->
      <g style="fill: #262626" transform="translate(30.878594 113.359517) scale(0.15 -0.15)">
       <defs>
        <path id="ArialMT-33" d="M 269 1209 
L 831 1284 
Q 928 806 1161 595 
Q 1394 384 1728 384 
Q 2125 384 2398 659 
Q 2672 934 2672 1341 
Q 2672 1728 2419 1979 
Q 2166 2231 1775 2231 
Q 1616 2231 1378 2169 
L 1441 2663 
Q 1497 2656 1531 2656 
Q 1891 2656 2178 2843 
Q 2466 3031 2466 3422 
Q 2466 3731 2256 3934 
Q 2047 4138 1716 4138 
Q 1388 4138 1169 3931 
Q 950 3725 888 3313 
L 325 3413 
Q 428 3978 793 4289 
Q 1159 4600 1703 4600 
Q 2078 4600 2393 4439 
Q 2709 4278 2876 4000 
Q 3044 3722 3044 3409 
Q 3044 3113 2884 2869 
Q 2725 2625 2413 2481 
Q 2819 2388 3044 2092 
Q 3269 1797 3269 1353 
Q 3269 753 2831 336 
Q 2394 -81 1725 -81 
Q 1122 -81 723 278 
Q 325 638 269 1209 
z
" transform="scale(0.015625)"/>
       </defs>
       <use xlink:href="#ArialMT-30"/>
       <use xlink:href="#ArialMT-2e" x="55.615234"/>
       <use xlink:href="#ArialMT-33" x="83.398438"/>
       <use xlink:href="#ArialMT-30" x="139.013672"/>
      </g>
     </g>
    </g>
    <g id="ytick_8">
     <g id="text_18">
      <!-- 0.35 -->
      <g style="fill: #262626" transform="translate(30.878594 73.632425) scale(0.15 -0.15)">
       <use xlink:href="#ArialMT-30"/>
       <use xlink:href="#ArialMT-2e" x="55.615234"/>
       <use xlink:href="#ArialMT-33" x="83.398438"/>
       <use xlink:href="#ArialMT-35" x="139.013672"/>
      </g>
     </g>
    </g>
    <g id="ytick_9">
     <g id="text_19">
      <!-- 0.40 -->
      <g style="fill: #262626" transform="translate(30.878594 33.905334) scale(0.15 -0.15)">
       <defs>
        <path id="ArialMT-34" d="M 2069 0 
L 2069 1097 
L 81 1097 
L 81 1613 
L 2172 4581 
L 2631 4581 
L 2631 1613 
L 3250 1613 
L 3250 1097 
L 2631 1097 
L 2631 0 
L 2069 0 
z
M 2069 1613 
L 2069 3678 
L 634 1613 
L 2069 1613 
z
" transform="scale(0.015625)"/>
       </defs>
       <use xlink:href="#ArialMT-30"/>
       <use xlink:href="#ArialMT-2e" x="55.615234"/>
       <use xlink:href="#ArialMT-34" x="83.398438"/>
       <use xlink:href="#ArialMT-30" x="139.013672"/>
      </g>
     </g>
    </g>
    <g id="text_20">
     <!-- Divergence -->
     <g style="fill: #262626" transform="translate(23.721563 240.823594) rotate(-90) scale(0.15 -0.15)">
      <defs>
       <path id="ArialMT-44" d="M 494 0 
L 494 4581 
L 2072 4581 
Q 2606 4581 2888 4516 
Q 3281 4425 3559 4188 
Q 3922 3881 4101 3404 
Q 4281 2928 4281 2316 
Q 4281 1794 4159 1391 
Q 4038 988 3847 723 
Q 3656 459 3429 307 
Q 3203 156 2883 78 
Q 2563 0 2147 0 
L 494 0 
z
M 1100 541 
L 2078 541 
Q 2531 541 2789 625 
Q 3047 709 3200 863 
Q 3416 1078 3536 1442 
Q 3656 1806 3656 2325 
Q 3656 3044 3420 3430 
Q 3184 3816 2847 3947 
Q 2603 4041 2063 4041 
L 1100 4041 
L 1100 541 
z
" transform="scale(0.015625)"/>
       <path id="ArialMT-76" d="M 1344 0 
L 81 3319 
L 675 3319 
L 1388 1331 
Q 1503 1009 1600 663 
Q 1675 925 1809 1294 
L 2547 3319 
L 3125 3319 
L 1869 0 
L 1344 0 
z
" transform="scale(0.015625)"/>
       <path id="ArialMT-72" d="M 416 0 
L 416 3319 
L 922 3319 
L 922 2816 
Q 1116 3169 1280 3281 
Q 1444 3394 1641 3394 
Q 1925 3394 2219 3213 
L 2025 2691 
Q 1819 2813 1613 2813 
Q 1428 2813 1281 2702 
Q 1134 2591 1072 2394 
Q 978 2094 978 1738 
L 978 0 
L 416 0 
z
" transform="scale(0.015625)"/>
       <path id="ArialMT-67" d="M 319 -275 
L 866 -356 
Q 900 -609 1056 -725 
Q 1266 -881 1628 -881 
Q 2019 -881 2231 -725 
Q 2444 -569 2519 -288 
Q 2563 -116 2559 434 
Q 2191 0 1641 0 
Q 956 0 581 494 
Q 206 988 206 1678 
Q 206 2153 378 2554 
Q 550 2956 876 3175 
Q 1203 3394 1644 3394 
Q 2231 3394 2613 2919 
L 2613 3319 
L 3131 3319 
L 3131 450 
Q 3131 -325 2973 -648 
Q 2816 -972 2473 -1159 
Q 2131 -1347 1631 -1347 
Q 1038 -1347 672 -1080 
Q 306 -813 319 -275 
z
M 784 1719 
Q 784 1066 1043 766 
Q 1303 466 1694 466 
Q 2081 466 2343 764 
Q 2606 1063 2606 1700 
Q 2606 2309 2336 2618 
Q 2066 2928 1684 2928 
Q 1309 2928 1046 2623 
Q 784 2319 784 1719 
z
" transform="scale(0.015625)"/>
       <path id="ArialMT-6e" d="M 422 0 
L 422 3319 
L 928 3319 
L 928 2847 
Q 1294 3394 1984 3394 
Q 2284 3394 2536 3286 
Q 2788 3178 2913 3003 
Q 3038 2828 3088 2588 
Q 3119 2431 3119 2041 
L 3119 0 
L 2556 0 
L 2556 2019 
Q 2556 2363 2490 2533 
Q 2425 2703 2258 2804 
Q 2091 2906 1866 2906 
Q 1506 2906 1245 2678 
Q 984 2450 984 1813 
L 984 0 
L 422 0 
z
" transform="scale(0.015625)"/>
       <path id="ArialMT-63" d="M 2588 1216 
L 3141 1144 
Q 3050 572 2676 248 
Q 2303 -75 1759 -75 
Q 1078 -75 664 370 
Q 250 816 250 1647 
Q 250 2184 428 2587 
Q 606 2991 970 3192 
Q 1334 3394 1763 3394 
Q 2303 3394 2647 3120 
Q 2991 2847 3088 2344 
L 2541 2259 
Q 2463 2594 2264 2762 
Q 2066 2931 1784 2931 
Q 1359 2931 1093 2626 
Q 828 2322 828 1663 
Q 828 994 1084 691 
Q 1341 388 1753 388 
Q 2084 388 2306 591 
Q 2528 794 2588 1216 
z
" transform="scale(0.015625)"/>
      </defs>
      <use xlink:href="#ArialMT-44"/>
      <use xlink:href="#ArialMT-69" x="72.216797"/>
      <use xlink:href="#ArialMT-76" x="94.433594"/>
      <use xlink:href="#ArialMT-65" x="144.433594"/>
      <use xlink:href="#ArialMT-72" x="200.048828"/>
      <use xlink:href="#ArialMT-67" x="233.349609"/>
      <use xlink:href="#ArialMT-65" x="288.964844"/>
      <use xlink:href="#ArialMT-6e" x="344.580078"/>
      <use xlink:href="#ArialMT-63" x="400.195312"/>
      <use xlink:href="#ArialMT-65" x="450.195312"/>
     </g>
    </g>
   </g>
   <g id="PolyCollection_1">
    <defs>
     <path id="m9af1836302" d="M 94.033182 -86.996451 
L 94.033182 -83.978393 
L 103.626586 -84.989365 
L 113.219991 -85.350318 
L 122.813396 -85.021708 
L 132.4068 -85.958952 
L 142.000205 -85.697811 
L 151.59361 -85.920497 
L 161.187014 -86.098041 
L 170.780419 -84.750305 
L 180.373824 -84.961354 
L 189.967228 -85.339099 
L 199.560633 -85.063121 
L 209.154037 -85.454619 
L 218.747442 -82.041722 
L 228.340847 -82.634068 
L 237.934251 -91.177849 
L 247.527656 -95.759061 
L 257.121061 -101.540442 
L 266.714465 -109.47852 
L 276.30787 -122.851368 
L 285.901275 -137.300753 
L 295.494679 -159.907197 
L 305.088084 -187.81145 
L 314.681488 -210.003494 
L 324.274893 -231.136247 
L 333.868298 -265.476774 
L 343.461702 -285.928809 
L 353.055107 -300.448136 
L 362.648512 -319.498093 
L 372.241916 -334.362495 
L 381.835321 -344.227645 
L 391.428725 -348.621059 
L 401.02213 -353.331317 
L 410.615535 -358.659791 
L 420.208939 -357.786222 
L 429.802344 -358.530234 
L 439.395749 -359.734603 
L 448.989153 -349.795301 
L 458.582558 -325.493214 
L 468.175963 -329.414836 
L 477.769367 -306.738072 
L 487.362772 -295.071056 
L 496.956176 -291.061521 
L 506.549581 -288.054065 
L 516.142986 -284.770447 
L 525.73639 -283.552237 
L 535.329795 -280.467899 
L 544.9232 -277.73122 
L 554.516604 -275.882556 
L 564.110009 -274.712905 
L 573.703414 -271.270895 
L 583.296818 -207.81245 
L 583.296818 -228.028865 
L 583.296818 -228.028865 
L 573.703414 -301.818804 
L 564.110009 -305.632135 
L 554.516604 -306.677181 
L 544.9232 -308.633248 
L 535.329795 -311.564509 
L 525.73639 -314.802768 
L 516.142986 -315.980647 
L 506.549581 -319.311066 
L 496.956176 -322.39057 
L 487.362772 -326.741909 
L 477.769367 -340.572505 
L 468.175963 -363.702745 
L 458.582558 -353.889557 
L 448.989153 -377.589712 
L 439.395749 -388.464545 
L 429.802344 -386.796655 
L 420.208939 -385.708385 
L 410.615535 -386.66918 
L 401.02213 -380.905303 
L 391.428725 -375.881385 
L 381.835321 -371.823465 
L 372.241916 -362.227984 
L 362.648512 -347.576813 
L 353.055107 -328.677548 
L 343.461702 -312.164469 
L 333.868298 -288.781962 
L 324.274893 -251.688028 
L 314.681488 -226.114747 
L 305.088084 -201.235048 
L 295.494679 -170.555161 
L 285.901275 -146.055449 
L 276.30787 -131.782882 
L 266.714465 -117.025813 
L 257.121061 -108.684024 
L 247.527656 -102.087001 
L 237.934251 -96.727686 
L 228.340847 -88.228147 
L 218.747442 -86.179777 
L 209.154037 -86.210509 
L 199.560633 -85.947955 
L 189.967228 -86.072391 
L 180.373824 -85.657622 
L 170.780419 -85.482172 
L 161.187014 -86.725863 
L 151.59361 -86.497617 
L 142.000205 -86.111323 
L 132.4068 -86.509118 
L 122.813396 -85.664965 
L 113.219991 -85.926644 
L 103.626586 -85.851295 
L 94.033182 -86.996451 
z
" style="stroke: #00008b; stroke-opacity: 0.1"/>
    </defs>
    <g clip-path="url(#pf2c08735ac)">
     <use xlink:href="#m9af1836302" x="0" y="432" style="fill: #00008b; fill-opacity: 0.1; stroke: #00008b; stroke-opacity: 0.1"/>
    </g>
   </g>
   <g id="PolyCollection_2">
    <defs>
     <path id="m110ae12fa6" d="M 94.033182 -86.43245 
L 94.033182 -85.561014 
L 103.626586 -85.386478 
L 113.219991 -85.376052 
L 122.813396 -85.521293 
L 132.4068 -85.722082 
L 142.000205 -85.591125 
L 151.59361 -85.562709 
L 161.187014 -85.532007 
L 170.780419 -85.390472 
L 180.373824 -85.534622 
L 189.967228 -85.587143 
L 199.560633 -85.528147 
L 209.154037 -85.71434 
L 218.747442 -85.603937 
L 228.340847 -85.269205 
L 237.934251 -86.246559 
L 247.527656 -88.826292 
L 257.121061 -88.884023 
L 266.714465 -88.573853 
L 276.30787 -88.653778 
L 285.901275 -90.046556 
L 295.494679 -92.265971 
L 305.088084 -94.230351 
L 314.681488 -95.274618 
L 324.274893 -99.351317 
L 333.868298 -101.426421 
L 343.461702 -102.928802 
L 353.055107 -107.012022 
L 362.648512 -111.630842 
L 372.241916 -110.732144 
L 381.835321 -108.473201 
L 391.428725 -110.696278 
L 401.02213 -109.850066 
L 410.615535 -110.237277 
L 420.208939 -112.276643 
L 429.802344 -113.039252 
L 439.395749 -110.066724 
L 448.989153 -106.559455 
L 458.582558 -102.113161 
L 468.175963 -102.180792 
L 477.769367 -100.449268 
L 487.362772 -100.390605 
L 496.956176 -100.291421 
L 506.549581 -100.129794 
L 516.142986 -100.077601 
L 525.73639 -100.136761 
L 535.329795 -99.981915 
L 544.9232 -99.647923 
L 554.516604 -99.680965 
L 564.110009 -99.580004 
L 573.703414 -99.168925 
L 583.296818 -94.515241 
L 583.296818 -95.823874 
L 583.296818 -95.823874 
L 573.703414 -101.175177 
L 564.110009 -101.611888 
L 554.516604 -101.72288 
L 544.9232 -101.642496 
L 535.329795 -101.994209 
L 525.73639 -102.190201 
L 516.142986 -102.115262 
L 506.549581 -102.17463 
L 496.956176 -102.330064 
L 487.362772 -102.40986 
L 477.769367 -102.505565 
L 468.175963 -104.320646 
L 458.582558 -103.916836 
L 448.989153 -108.541181 
L 439.395749 -112.180483 
L 429.802344 -115.30366 
L 420.208939 -114.565123 
L 410.615535 -112.523058 
L 401.02213 -112.196184 
L 391.428725 -112.884706 
L 381.835321 -111.743649 
L 372.241916 -114.159193 
L 362.648512 -113.859371 
L 353.055107 -109.213171 
L 343.461702 -105.03971 
L 333.868298 -103.719794 
L 324.274893 -101.486946 
L 314.681488 -97.254815 
L 305.088084 -96.106693 
L 295.494679 -94.229303 
L 285.901275 -91.796613 
L 276.30787 -90.425234 
L 266.714465 -90.345042 
L 257.121061 -91.057014 
L 247.527656 -91.018334 
L 237.934251 -88.035808 
L 228.340847 -86.697758 
L 218.747442 -86.492573 
L 209.154037 -85.847118 
L 199.560633 -85.67405 
L 189.967228 -85.735106 
L 180.373824 -85.693232 
L 170.780419 -85.538211 
L 161.187014 -85.689669 
L 151.59361 -85.703357 
L 142.000205 -85.706507 
L 132.4068 -85.843168 
L 122.813396 -85.658585 
L 113.219991 -85.534676 
L 103.626586 -85.587924 
L 94.033182 -86.43245 
z
" style="stroke: #00008b; stroke-opacity: 0.1"/>
    </defs>
    <g clip-path="url(#pf2c08735ac)">
     <use xlink:href="#m110ae12fa6" x="0" y="432" style="fill: #00008b; fill-opacity: 0.1; stroke: #00008b; stroke-opacity: 0.1"/>
    </g>
   </g>
   <g id="PathCollection_1">
    <defs>
     <path id="mf69784d41b" d="M 0 -3 
L -0.673542 -0.927051 
L -2.85317 -0.927051 
L -1.089814 0.354102 
L -1.763356 2.427051 
L -0 1.145898 
L 1.763356 2.427051 
L 1.089814 0.354102 
L 2.85317 -0.927051 
L 0.673542 -0.927051 
z
" style="stroke: #00008b"/>
    </defs>
    <g clip-path="url(#pf2c08735ac)">
     <use xlink:href="#mf69784d41b" x="151.59361" y="354.299127" style="fill: #00008b; stroke: #00008b"/>
     <use xlink:href="#mf69784d41b" x="161.187014" y="354.299127" style="fill: #00008b; stroke: #00008b"/>
     <use xlink:href="#mf69784d41b" x="237.934251" y="354.299127" style="fill: #00008b; stroke: #00008b"/>
     <use xlink:href="#mf69784d41b" x="247.527656" y="354.299127" style="fill: #00008b; stroke: #00008b"/>
     <use xlink:href="#mf69784d41b" x="257.121061" y="354.299127" style="fill: #00008b; stroke: #00008b"/>
     <use xlink:href="#mf69784d41b" x="266.714465" y="354.299127" style="fill: #00008b; stroke: #00008b"/>
     <use xlink:href="#mf69784d41b" x="276.30787" y="354.299127" style="fill: #00008b; stroke: #00008b"/>
     <use xlink:href="#mf69784d41b" x="285.901275" y="354.299127" style="fill: #00008b; stroke: #00008b"/>
     <use xlink:href="#mf69784d41b" x="295.494679" y="354.299127" style="fill: #00008b; stroke: #00008b"/>
     <use xlink:href="#mf69784d41b" x="305.088084" y="354.299127" style="fill: #00008b; stroke: #00008b"/>
     <use xlink:href="#mf69784d41b" x="314.681488" y="354.299127" style="fill: #00008b; stroke: #00008b"/>
     <use xlink:href="#mf69784d41b" x="324.274893" y="354.299127" style="fill: #00008b; stroke: #00008b"/>
     <use xlink:href="#mf69784d41b" x="333.868298" y="354.299127" style="fill: #00008b; stroke: #00008b"/>
     <use xlink:href="#mf69784d41b" x="343.461702" y="354.299127" style="fill: #00008b; stroke: #00008b"/>
     <use xlink:href="#mf69784d41b" x="353.055107" y="354.299127" style="fill: #00008b; stroke: #00008b"/>
     <use xlink:href="#mf69784d41b" x="362.648512" y="354.299127" style="fill: #00008b; stroke: #00008b"/>
     <use xlink:href="#mf69784d41b" x="372.241916" y="354.299127" style="fill: #00008b; stroke: #00008b"/>
     <use xlink:href="#mf69784d41b" x="381.835321" y="354.299127" style="fill: #00008b; stroke: #00008b"/>
     <use xlink:href="#mf69784d41b" x="391.428725" y="354.299127" style="fill: #00008b; stroke: #00008b"/>
     <use xlink:href="#mf69784d41b" x="401.02213" y="354.299127" style="fill: #00008b; stroke: #00008b"/>
     <use xlink:href="#mf69784d41b" x="410.615535" y="354.299127" style="fill: #00008b; stroke: #00008b"/>
     <use xlink:href="#mf69784d41b" x="420.208939" y="354.299127" style="fill: #00008b; stroke: #00008b"/>
     <use xlink:href="#mf69784d41b" x="429.802344" y="354.299127" style="fill: #00008b; stroke: #00008b"/>
     <use xlink:href="#mf69784d41b" x="439.395749" y="354.299127" style="fill: #00008b; stroke: #00008b"/>
     <use xlink:href="#mf69784d41b" x="448.989153" y="354.299127" style="fill: #00008b; stroke: #00008b"/>
     <use xlink:href="#mf69784d41b" x="458.582558" y="354.299127" style="fill: #00008b; stroke: #00008b"/>
     <use xlink:href="#mf69784d41b" x="468.175963" y="354.299127" style="fill: #00008b; stroke: #00008b"/>
     <use xlink:href="#mf69784d41b" x="477.769367" y="354.299127" style="fill: #00008b; stroke: #00008b"/>
     <use xlink:href="#mf69784d41b" x="487.362772" y="354.299127" style="fill: #00008b; stroke: #00008b"/>
     <use xlink:href="#mf69784d41b" x="496.956176" y="354.299127" style="fill: #00008b; stroke: #00008b"/>
     <use xlink:href="#mf69784d41b" x="506.549581" y="354.299127" style="fill: #00008b; stroke: #00008b"/>
     <use xlink:href="#mf69784d41b" x="516.142986" y="354.299127" style="fill: #00008b; stroke: #00008b"/>
     <use xlink:href="#mf69784d41b" x="525.73639" y="354.299127" style="fill: #00008b; stroke: #00008b"/>
     <use xlink:href="#mf69784d41b" x="535.329795" y="354.299127" style="fill: #00008b; stroke: #00008b"/>
     <use xlink:href="#mf69784d41b" x="544.9232" y="354.299127" style="fill: #00008b; stroke: #00008b"/>
     <use xlink:href="#mf69784d41b" x="554.516604" y="354.299127" style="fill: #00008b; stroke: #00008b"/>
     <use xlink:href="#mf69784d41b" x="564.110009" y="354.299127" style="fill: #00008b; stroke: #00008b"/>
     <use xlink:href="#mf69784d41b" x="573.703414" y="354.299127" style="fill: #00008b; stroke: #00008b"/>
     <use xlink:href="#mf69784d41b" x="583.296818" y="354.299127" style="fill: #00008b; stroke: #00008b"/>
    </g>
   </g>
   <g id="PolyCollection_3">
    <defs>
     <path id="m72d82d780f" d="M 94.033182 -101.88783 
L 94.033182 -88.200693 
L 103.626586 -90.176261 
L 113.219991 -92.862465 
L 122.813396 -95.353207 
L 132.4068 -90.911371 
L 142.000205 -88.246547 
L 151.59361 -91.13341 
L 161.187014 -84.550147 
L 170.780419 -80.569837 
L 180.373824 -78.795245 
L 189.967228 -80.847607 
L 199.560633 -80.542769 
L 209.154037 -79.29807 
L 218.747442 -79.856375 
L 228.340847 -80.812635 
L 237.934251 -81.643253 
L 247.527656 -82.868093 
L 257.121061 -84.025031 
L 266.714465 -85.994359 
L 276.30787 -87.300195 
L 285.901275 -92.932518 
L 295.494679 -98.378865 
L 305.088084 -103.966451 
L 314.681488 -111.067155 
L 324.274893 -121.826437 
L 333.868298 -135.519385 
L 343.461702 -150.818927 
L 353.055107 -168.037612 
L 362.648512 -182.723372 
L 372.241916 -197.763834 
L 381.835321 -210.375668 
L 391.428725 -222.62559 
L 401.02213 -232.482421 
L 410.615535 -239.765784 
L 420.208939 -245.306068 
L 429.802344 -247.934932 
L 439.395749 -252.526294 
L 448.989153 -258.010556 
L 458.582558 -258.419957 
L 468.175963 -248.696241 
L 477.769367 -235.593601 
L 487.362772 -227.459417 
L 496.956176 -223.37873 
L 506.549581 -222.942221 
L 516.142986 -222.604355 
L 525.73639 -224.208896 
L 535.329795 -224.892245 
L 544.9232 -224.843031 
L 554.516604 -225.052126 
L 564.110009 -226.713084 
L 573.703414 -226.735971 
L 583.296818 -180.392473 
L 583.296818 -213.06558 
L 583.296818 -213.06558 
L 573.703414 -275.302056 
L 564.110009 -274.712408 
L 554.516604 -273.059505 
L 544.9232 -272.503798 
L 535.329795 -272.226493 
L 525.73639 -270.633519 
L 516.142986 -268.376373 
L 506.549581 -268.322979 
L 496.956176 -268.530859 
L 487.362772 -272.2925 
L 477.769367 -280.454327 
L 468.175963 -294.733465 
L 458.582558 -307.048169 
L 448.989153 -307.042726 
L 439.395749 -300.646473 
L 429.802344 -294.865989 
L 420.208939 -290.430605 
L 410.615535 -282.929881 
L 401.02213 -273.337161 
L 391.428725 -260.984529 
L 381.835321 -246.021347 
L 372.241916 -230.010352 
L 362.648512 -211.315933 
L 353.055107 -192.25036 
L 343.461702 -170.408943 
L 333.868298 -150.795982 
L 324.274893 -133.713162 
L 314.681488 -120.446257 
L 305.088084 -111.508381 
L 295.494679 -104.102959 
L 285.901275 -98.060615 
L 276.30787 -92.090236 
L 266.714465 -90.622612 
L 257.121061 -88.298919 
L 247.527656 -87.307429 
L 237.934251 -86.411875 
L 228.340847 -85.698362 
L 218.747442 -84.969092 
L 209.154037 -84.615416 
L 199.560633 -85.344868 
L 189.967228 -86.049618 
L 180.373824 -86.007689 
L 170.780419 -87.33809 
L 161.187014 -92.431505 
L 151.59361 -100.379972 
L 142.000205 -99.069756 
L 132.4068 -103.711767 
L 122.813396 -109.052309 
L 113.219991 -108.929034 
L 103.626586 -107.788337 
L 94.033182 -101.88783 
z
" style="stroke: #6060eb; stroke-opacity: 0.1"/>
    </defs>
    <g clip-path="url(#pf2c08735ac)">
     <use xlink:href="#m72d82d780f" x="0" y="432" style="fill: #6060eb; fill-opacity: 0.1; stroke: #6060eb; stroke-opacity: 0.1"/>
    </g>
   </g>
   <g id="PolyCollection_4">
    <defs>
     <path id="m4a0181a876" d="M 94.033182 -85.259315 
L 94.033182 -82.197572 
L 103.626586 -79.233267 
L 113.219991 -79.083971 
L 122.813396 -80.871576 
L 132.4068 -82.059752 
L 142.000205 -82.250557 
L 151.59361 -82.701097 
L 161.187014 -83.582473 
L 170.780419 -84.008284 
L 180.373824 -84.82656 
L 189.967228 -84.617454 
L 199.560633 -84.751319 
L 209.154037 -85.402798 
L 218.747442 -85.566627 
L 228.340847 -86.040313 
L 237.934251 -86.574531 
L 247.527656 -86.602845 
L 257.121061 -86.328797 
L 266.714465 -86.419629 
L 276.30787 -86.744381 
L 285.901275 -87.749538 
L 295.494679 -88.378271 
L 305.088084 -89.017786 
L 314.681488 -90.314094 
L 324.274893 -92.363374 
L 333.868298 -94.881412 
L 343.461702 -96.520958 
L 353.055107 -98.532694 
L 362.648512 -99.843983 
L 372.241916 -100.4575 
L 381.835321 -100.761959 
L 391.428725 -101.419784 
L 401.02213 -101.76602 
L 410.615535 -101.281209 
L 420.208939 -101.120942 
L 429.802344 -101.579682 
L 439.395749 -101.812972 
L 448.989153 -101.544561 
L 458.582558 -101.270234 
L 468.175963 -100.656007 
L 477.769367 -99.143414 
L 487.362772 -98.294102 
L 496.956176 -98.154188 
L 506.549581 -98.462473 
L 516.142986 -99.168087 
L 525.73639 -100.068193 
L 535.329795 -101.182941 
L 544.9232 -101.875492 
L 554.516604 -101.64097 
L 564.110009 -101.863071 
L 573.703414 -102.24533 
L 583.296818 -96.250923 
L 583.296818 -98.807352 
L 583.296818 -98.807352 
L 573.703414 -106.060215 
L 564.110009 -105.594045 
L 554.516604 -105.285474 
L 544.9232 -105.568817 
L 535.329795 -104.888448 
L 525.73639 -103.639434 
L 516.142986 -102.660048 
L 506.549581 -101.796934 
L 496.956176 -101.47493 
L 487.362772 -101.655809 
L 477.769367 -102.566495 
L 468.175963 -104.147059 
L 458.582558 -104.784213 
L 448.989153 -105.09836 
L 439.395749 -105.414886 
L 429.802344 -105.227256 
L 420.208939 -104.678211 
L 410.615535 -104.804719 
L 401.02213 -105.354905 
L 391.428725 -104.997834 
L 381.835321 -104.315991 
L 372.241916 -103.95809 
L 362.648512 -103.083558 
L 353.055107 -101.429139 
L 343.461702 -99.111154 
L 333.868298 -97.210943 
L 324.274893 -94.28987 
L 314.681488 -92.005179 
L 305.088084 -90.49799 
L 295.494679 -89.809869 
L 285.901275 -89.158186 
L 276.30787 -88.045928 
L 266.714465 -87.643884 
L 257.121061 -87.424942 
L 247.527656 -87.682193 
L 237.934251 -87.733543 
L 228.340847 -87.302317 
L 218.747442 -86.87944 
L 209.154037 -86.726108 
L 199.560633 -86.243898 
L 189.967228 -86.190863 
L 180.373824 -86.417938 
L 170.780419 -85.680811 
L 161.187014 -85.2614 
L 151.59361 -84.762263 
L 142.000205 -84.758683 
L 132.4068 -84.983032 
L 122.813396 -84.390387 
L 113.219991 -82.940036 
L 103.626586 -83.190703 
L 94.033182 -85.259315 
z
" style="stroke: #6060eb; stroke-opacity: 0.1"/>
    </defs>
    <g clip-path="url(#pf2c08735ac)">
     <use xlink:href="#m4a0181a876" x="0" y="432" style="fill: #6060eb; fill-opacity: 0.1; stroke: #6060eb; stroke-opacity: 0.1"/>
    </g>
   </g>
   <g id="PathCollection_2">
    <defs>
     <path id="m6f020cb57d" d="M 0 -3 
L -0.673542 -0.927051 
L -2.85317 -0.927051 
L -1.089814 0.354102 
L -1.763356 2.427051 
L -0 1.145898 
L 1.763356 2.427051 
L 1.089814 0.354102 
L 2.85317 -0.927051 
L 0.673542 -0.927051 
z
" style="stroke: #6060eb"/>
    </defs>
    <g clip-path="url(#pf2c08735ac)">
     <use xlink:href="#m6f020cb57d" x="103.626586" y="362.244545" style="fill: #6060eb; stroke: #6060eb"/>
     <use xlink:href="#m6f020cb57d" x="113.219991" y="362.244545" style="fill: #6060eb; stroke: #6060eb"/>
     <use xlink:href="#m6f020cb57d" x="122.813396" y="362.244545" style="fill: #6060eb; stroke: #6060eb"/>
     <use xlink:href="#m6f020cb57d" x="132.4068" y="362.244545" style="fill: #6060eb; stroke: #6060eb"/>
     <use xlink:href="#m6f020cb57d" x="142.000205" y="362.244545" style="fill: #6060eb; stroke: #6060eb"/>
     <use xlink:href="#m6f020cb57d" x="151.59361" y="362.244545" style="fill: #6060eb; stroke: #6060eb"/>
     <use xlink:href="#m6f020cb57d" x="285.901275" y="362.244545" style="fill: #6060eb; stroke: #6060eb"/>
     <use xlink:href="#m6f020cb57d" x="295.494679" y="362.244545" style="fill: #6060eb; stroke: #6060eb"/>
     <use xlink:href="#m6f020cb57d" x="305.088084" y="362.244545" style="fill: #6060eb; stroke: #6060eb"/>
     <use xlink:href="#m6f020cb57d" x="314.681488" y="362.244545" style="fill: #6060eb; stroke: #6060eb"/>
     <use xlink:href="#m6f020cb57d" x="324.274893" y="362.244545" style="fill: #6060eb; stroke: #6060eb"/>
     <use xlink:href="#m6f020cb57d" x="333.868298" y="362.244545" style="fill: #6060eb; stroke: #6060eb"/>
     <use xlink:href="#m6f020cb57d" x="343.461702" y="362.244545" style="fill: #6060eb; stroke: #6060eb"/>
     <use xlink:href="#m6f020cb57d" x="353.055107" y="362.244545" style="fill: #6060eb; stroke: #6060eb"/>
     <use xlink:href="#m6f020cb57d" x="362.648512" y="362.244545" style="fill: #6060eb; stroke: #6060eb"/>
     <use xlink:href="#m6f020cb57d" x="372.241916" y="362.244545" style="fill: #6060eb; stroke: #6060eb"/>
     <use xlink:href="#m6f020cb57d" x="381.835321" y="362.244545" style="fill: #6060eb; stroke: #6060eb"/>
     <use xlink:href="#m6f020cb57d" x="391.428725" y="362.244545" style="fill: #6060eb; stroke: #6060eb"/>
     <use xlink:href="#m6f020cb57d" x="401.02213" y="362.244545" style="fill: #6060eb; stroke: #6060eb"/>
     <use xlink:href="#m6f020cb57d" x="410.615535" y="362.244545" style="fill: #6060eb; stroke: #6060eb"/>
     <use xlink:href="#m6f020cb57d" x="420.208939" y="362.244545" style="fill: #6060eb; stroke: #6060eb"/>
     <use xlink:href="#m6f020cb57d" x="429.802344" y="362.244545" style="fill: #6060eb; stroke: #6060eb"/>
     <use xlink:href="#m6f020cb57d" x="439.395749" y="362.244545" style="fill: #6060eb; stroke: #6060eb"/>
     <use xlink:href="#m6f020cb57d" x="448.989153" y="362.244545" style="fill: #6060eb; stroke: #6060eb"/>
     <use xlink:href="#m6f020cb57d" x="458.582558" y="362.244545" style="fill: #6060eb; stroke: #6060eb"/>
     <use xlink:href="#m6f020cb57d" x="468.175963" y="362.244545" style="fill: #6060eb; stroke: #6060eb"/>
     <use xlink:href="#m6f020cb57d" x="477.769367" y="362.244545" style="fill: #6060eb; stroke: #6060eb"/>
     <use xlink:href="#m6f020cb57d" x="487.362772" y="362.244545" style="fill: #6060eb; stroke: #6060eb"/>
     <use xlink:href="#m6f020cb57d" x="496.956176" y="362.244545" style="fill: #6060eb; stroke: #6060eb"/>
     <use xlink:href="#m6f020cb57d" x="506.549581" y="362.244545" style="fill: #6060eb; stroke: #6060eb"/>
     <use xlink:href="#m6f020cb57d" x="516.142986" y="362.244545" style="fill: #6060eb; stroke: #6060eb"/>
     <use xlink:href="#m6f020cb57d" x="525.73639" y="362.244545" style="fill: #6060eb; stroke: #6060eb"/>
     <use xlink:href="#m6f020cb57d" x="535.329795" y="362.244545" style="fill: #6060eb; stroke: #6060eb"/>
     <use xlink:href="#m6f020cb57d" x="544.9232" y="362.244545" style="fill: #6060eb; stroke: #6060eb"/>
     <use xlink:href="#m6f020cb57d" x="554.516604" y="362.244545" style="fill: #6060eb; stroke: #6060eb"/>
     <use xlink:href="#m6f020cb57d" x="564.110009" y="362.244545" style="fill: #6060eb; stroke: #6060eb"/>
     <use xlink:href="#m6f020cb57d" x="573.703414" y="362.244545" style="fill: #6060eb; stroke: #6060eb"/>
     <use xlink:href="#m6f020cb57d" x="583.296818" y="362.244545" style="fill: #6060eb; stroke: #6060eb"/>
    </g>
   </g>
   <g id="line2d_1">
    <path d="M 94.033182 346.512578 
L 103.626586 346.57967 
L 113.219991 346.361519 
L 122.813396 346.656663 
L 132.4068 345.765965 
L 142.000205 346.095433 
L 151.59361 345.790943 
L 161.187014 345.588048 
L 170.780419 346.883761 
L 180.373824 346.690512 
L 189.967228 346.294255 
L 199.560633 346.494462 
L 209.154037 346.167436 
L 218.747442 347.88925 
L 228.340847 346.568893 
L 237.934251 338.047232 
L 247.527656 333.076969 
L 257.121061 326.887767 
L 266.714465 318.747833 
L 276.30787 304.682875 
L 285.901275 290.321899 
L 295.494679 266.768821 
L 305.088084 237.476751 
L 314.681488 213.940879 
L 324.274893 190.587862 
L 333.868298 154.870632 
L 343.461702 132.953361 
L 353.055107 117.437158 
L 362.648512 98.462547 
L 372.241916 83.704761 
L 381.835321 73.974445 
L 391.428725 69.748778 
L 401.02213 64.88169 
L 410.615535 59.335515 
L 420.208939 60.252697 
L 429.802344 59.336556 
L 439.395749 57.900426 
L 448.989153 68.307494 
L 458.582558 92.308615 
L 468.175963 85.441209 
L 477.769367 108.344711 
L 487.362772 121.093517 
L 496.956176 125.273955 
L 506.549581 128.317435 
L 516.142986 131.624453 
L 525.73639 132.822498 
L 535.329795 135.983796 
L 544.9232 138.817766 
L 554.516604 140.720131 
L 564.110009 141.82748 
L 573.703414 145.45515 
L 583.296818 214.079342 
" clip-path="url(#pf2c08735ac)" style="fill: none; stroke: #00008b; stroke-width: 2; stroke-linecap: round"/>
   </g>
   <g id="line2d_2">
    <path d="M 94.033182 346.003268 
L 103.626586 346.512799 
L 113.219991 346.544636 
L 122.813396 346.410061 
L 132.4068 346.217375 
L 142.000205 346.351184 
L 151.59361 346.366967 
L 161.187014 346.389162 
L 170.780419 346.535658 
L 180.373824 346.386073 
L 189.967228 346.338875 
L 199.560633 346.398902 
L 209.154037 346.219271 
L 218.747442 345.951745 
L 228.340847 346.016518 
L 237.934251 344.858816 
L 247.527656 342.077687 
L 257.121061 342.029481 
L 266.714465 342.540553 
L 276.30787 342.460494 
L 285.901275 341.078416 
L 295.494679 338.752363 
L 305.088084 336.831478 
L 314.681488 335.735283 
L 324.274893 331.580868 
L 333.868298 329.426893 
L 343.461702 328.015744 
L 353.055107 323.887403 
L 362.648512 319.254894 
L 372.241916 319.554332 
L 381.835321 321.891575 
L 391.428725 320.209508 
L 401.02213 320.976875 
L 410.615535 320.619833 
L 420.208939 318.579117 
L 429.802344 317.828544 
L 439.395749 320.876397 
L 448.989153 324.449682 
L 458.582558 328.985002 
L 468.175963 328.749281 
L 477.769367 330.522583 
L 487.362772 330.599767 
L 496.956176 330.689257 
L 506.549581 330.847788 
L 516.142986 330.903569 
L 525.73639 330.836519 
L 535.329795 331.011938 
L 544.9232 331.354791 
L 554.516604 331.298077 
L 564.110009 331.404054 
L 573.703414 331.827949 
L 583.296818 336.830442 
" clip-path="url(#pf2c08735ac)" style="fill: none; stroke-dasharray: 7.4,3.2; stroke-dashoffset: 0; stroke: #00008b; stroke-width: 2"/>
   </g>
   <g id="line2d_3">
    <path d="M 218.747442 378.18 
L 218.747442 27.6 
" clip-path="url(#pf2c08735ac)" style="fill: none; stroke-dasharray: 5.55,2.4; stroke-dashoffset: 0; stroke: #1a1a1a; stroke-width: 1.5"/>
   </g>
   <g id="line2d_4">
    <path d="M 458.582558 378.18 
L 458.582558 27.6 
" clip-path="url(#pf2c08735ac)" style="fill: none; stroke-dasharray: 5.55,2.4; stroke-dashoffset: 0; stroke: #1a1a1a; stroke-width: 1.5"/>
   </g>
   <g id="line2d_5">
    <path d="M 94.033182 336.955738 
L 103.626586 333.017701 
L 113.219991 331.104251 
L 122.813396 329.797242 
L 132.4068 334.688431 
L 142.000205 338.341849 
L 151.59361 336.243309 
L 161.187014 343.509174 
L 170.780419 348.046037 
L 180.373824 349.598533 
L 189.967228 348.551388 
L 199.560633 349.056182 
L 209.154037 350.043257 
L 218.747442 349.587267 
L 228.340847 348.744501 
L 237.934251 347.972436 
L 247.527656 346.912239 
L 257.121061 345.838025 
L 266.714465 343.691515 
L 276.30787 342.304784 
L 285.901275 336.503433 
L 295.494679 330.759088 
L 305.088084 324.262584 
L 314.681488 316.243294 
L 324.274893 304.230201 
L 333.868298 288.842316 
L 343.461702 271.386065 
L 353.055107 251.856014 
L 362.648512 234.980347 
L 372.241916 218.112907 
L 381.835321 203.801492 
L 391.428725 190.194941 
L 401.02213 179.090209 
L 410.615535 170.652168 
L 420.208939 164.131664 
L 429.802344 160.59954 
L 439.395749 155.413617 
L 448.989153 149.473359 
L 458.582558 149.265937 
L 468.175963 160.285147 
L 477.769367 173.976036 
L 487.362772 182.124041 
L 496.956176 186.045205 
L 506.549581 186.3674 
L 516.142986 186.509636 
L 525.73639 184.578792 
L 535.329795 183.440631 
L 544.9232 183.326585 
L 554.516604 182.944184 
L 564.110009 181.287254 
L 573.703414 180.980986 
L 583.296818 235.270973 
" clip-path="url(#pf2c08735ac)" style="fill: none; stroke: #6060eb; stroke-width: 2; stroke-linecap: round"/>
   </g>
   <g id="line2d_6">
    <path d="M 94.033182 348.271556 
L 103.626586 350.788015 
L 113.219991 350.987997 
L 122.813396 349.369019 
L 132.4068 348.478608 
L 142.000205 348.49538 
L 151.59361 348.26832 
L 161.187014 347.578064 
L 170.780419 347.155453 
L 180.373824 346.377751 
L 189.967228 346.595842 
L 199.560633 346.502391 
L 209.154037 345.935547 
L 218.747442 345.776966 
L 228.340847 345.328685 
L 237.934251 344.845963 
L 247.527656 344.857481 
L 257.121061 345.123131 
L 266.714465 344.968243 
L 276.30787 344.604845 
L 285.901275 343.546138 
L 295.494679 342.90593 
L 305.088084 342.242112 
L 314.681488 340.840363 
L 324.274893 338.673378 
L 333.868298 335.953823 
L 343.461702 334.183944 
L 353.055107 332.019083 
L 362.648512 330.536229 
L 372.241916 329.792205 
L 381.835321 329.461025 
L 391.428725 328.791191 
L 401.02213 328.439537 
L 410.615535 328.957036 
L 420.208939 329.100423 
L 429.802344 328.596531 
L 439.395749 328.386071 
L 448.989153 328.678539 
L 458.582558 328.972777 
L 468.175963 329.598467 
L 477.769367 331.145046 
L 487.362772 332.025044 
L 496.956176 332.185441 
L 506.549581 331.870297 
L 516.142986 331.085932 
L 525.73639 330.146187 
L 535.329795 328.964305 
L 544.9232 328.277846 
L 554.516604 328.536778 
L 564.110009 328.271442 
L 573.703414 327.847228 
L 583.296818 334.470862 
" clip-path="url(#pf2c08735ac)" style="fill: none; stroke-dasharray: 7.4,3.2; stroke-dashoffset: 0; stroke: #6060eb; stroke-width: 2"/>
   </g>
   <g id="line2d_7">
    <path d="M 218.747442 378.18 
L 218.747442 27.6 
" clip-path="url(#pf2c08735ac)" style="fill: none; stroke-dasharray: 5.55,2.4; stroke-dashoffset: 0; stroke: #1a1a1a; stroke-width: 1.5"/>
   </g>
   <g id="line2d_8">
    <path d="M 458.582558 378.18 
L 458.582558 27.6 
" clip-path="url(#pf2c08735ac)" style="fill: none; stroke-dasharray: 5.55,2.4; stroke-dashoffset: 0; stroke: #1a1a1a; stroke-width: 1.5"/>
   </g>
   <g id="patch_3">
    <path d="M 69.57 378.18 
L 69.57 27.6 
" style="fill: none; stroke: #cccccc; stroke-width: 1.5; stroke-linejoin: miter; stroke-linecap: square"/>
   </g>
   <g id="patch_4">
    <path d="M 69.57 378.18 
L 607.76 378.18 
" style="fill: none; stroke: #cccccc; stroke-width: 1.5; stroke-linejoin: miter; stroke-linecap: square"/>
   </g>
   <g id="text_21">
    <!-- Divergence Comparison: Original vs Shuffled -->
    <g style="fill: #262626" transform="translate(219.055 21.6) scale(0.12 -0.12)">
     <defs>
      <path id="ArialMT-43" d="M 3763 1606 
L 4369 1453 
Q 4178 706 3683 314 
Q 3188 -78 2472 -78 
Q 1731 -78 1267 223 
Q 803 525 561 1097 
Q 319 1669 319 2325 
Q 319 3041 592 3573 
Q 866 4106 1370 4382 
Q 1875 4659 2481 4659 
Q 3169 4659 3637 4309 
Q 4106 3959 4291 3325 
L 3694 3184 
Q 3534 3684 3231 3912 
Q 2928 4141 2469 4141 
Q 1941 4141 1586 3887 
Q 1231 3634 1087 3207 
Q 944 2781 944 2328 
Q 944 1744 1114 1308 
Q 1284 872 1643 656 
Q 2003 441 2422 441 
Q 2931 441 3284 734 
Q 3638 1028 3763 1606 
z
" transform="scale(0.015625)"/>
      <path id="ArialMT-6f" d="M 213 1659 
Q 213 2581 725 3025 
Q 1153 3394 1769 3394 
Q 2453 3394 2887 2945 
Q 3322 2497 3322 1706 
Q 3322 1066 3130 698 
Q 2938 331 2570 128 
Q 2203 -75 1769 -75 
Q 1072 -75 642 372 
Q 213 819 213 1659 
z
M 791 1659 
Q 791 1022 1069 705 
Q 1347 388 1769 388 
Q 2188 388 2466 706 
Q 2744 1025 2744 1678 
Q 2744 2294 2464 2611 
Q 2184 2928 1769 2928 
Q 1347 2928 1069 2612 
Q 791 2297 791 1659 
z
" transform="scale(0.015625)"/>
      <path id="ArialMT-70" d="M 422 -1272 
L 422 3319 
L 934 3319 
L 934 2888 
Q 1116 3141 1344 3267 
Q 1572 3394 1897 3394 
Q 2322 3394 2647 3175 
Q 2972 2956 3137 2557 
Q 3303 2159 3303 1684 
Q 3303 1175 3120 767 
Q 2938 359 2589 142 
Q 2241 -75 1856 -75 
Q 1575 -75 1351 44 
Q 1128 163 984 344 
L 984 -1272 
L 422 -1272 
z
M 931 1641 
Q 931 1000 1190 694 
Q 1450 388 1819 388 
Q 2194 388 2461 705 
Q 2728 1022 2728 1688 
Q 2728 2322 2467 2637 
Q 2206 2953 1844 2953 
Q 1484 2953 1207 2617 
Q 931 2281 931 1641 
z
" transform="scale(0.015625)"/>
      <path id="ArialMT-61" d="M 2588 409 
Q 2275 144 1986 34 
Q 1697 -75 1366 -75 
Q 819 -75 525 192 
Q 231 459 231 875 
Q 231 1119 342 1320 
Q 453 1522 633 1644 
Q 813 1766 1038 1828 
Q 1203 1872 1538 1913 
Q 2219 1994 2541 2106 
Q 2544 2222 2544 2253 
Q 2544 2597 2384 2738 
Q 2169 2928 1744 2928 
Q 1347 2928 1158 2789 
Q 969 2650 878 2297 
L 328 2372 
Q 403 2725 575 2942 
Q 747 3159 1072 3276 
Q 1397 3394 1825 3394 
Q 2250 3394 2515 3294 
Q 2781 3194 2906 3042 
Q 3031 2891 3081 2659 
Q 3109 2516 3109 2141 
L 3109 1391 
Q 3109 606 3145 398 
Q 3181 191 3288 0 
L 2700 0 
Q 2613 175 2588 409 
z
M 2541 1666 
Q 2234 1541 1622 1453 
Q 1275 1403 1131 1340 
Q 988 1278 909 1158 
Q 831 1038 831 891 
Q 831 666 1001 516 
Q 1172 366 1500 366 
Q 1825 366 2078 508 
Q 2331 650 2450 897 
Q 2541 1088 2541 1459 
L 2541 1666 
z
" transform="scale(0.015625)"/>
      <path id="ArialMT-3a" d="M 578 2678 
L 578 3319 
L 1219 3319 
L 1219 2678 
L 578 2678 
z
M 578 0 
L 578 641 
L 1219 641 
L 1219 0 
L 578 0 
z
" transform="scale(0.015625)"/>
      <path id="ArialMT-4f" d="M 309 2231 
Q 309 3372 921 4017 
Q 1534 4663 2503 4663 
Q 3138 4663 3647 4359 
Q 4156 4056 4423 3514 
Q 4691 2972 4691 2284 
Q 4691 1588 4409 1038 
Q 4128 488 3612 205 
Q 3097 -78 2500 -78 
Q 1853 -78 1343 234 
Q 834 547 571 1087 
Q 309 1628 309 2231 
z
M 934 2222 
Q 934 1394 1379 917 
Q 1825 441 2497 441 
Q 3181 441 3623 922 
Q 4066 1403 4066 2288 
Q 4066 2847 3877 3264 
Q 3688 3681 3323 3911 
Q 2959 4141 2506 4141 
Q 1863 4141 1398 3698 
Q 934 3256 934 2222 
z
" transform="scale(0.015625)"/>
      <path id="ArialMT-6c" d="M 409 0 
L 409 4581 
L 972 4581 
L 972 0 
L 409 0 
z
" transform="scale(0.015625)"/>
      <path id="ArialMT-53" d="M 288 1472 
L 859 1522 
Q 900 1178 1048 958 
Q 1197 738 1509 602 
Q 1822 466 2213 466 
Q 2559 466 2825 569 
Q 3091 672 3220 851 
Q 3350 1031 3350 1244 
Q 3350 1459 3225 1620 
Q 3100 1781 2813 1891 
Q 2628 1963 1997 2114 
Q 1366 2266 1113 2400 
Q 784 2572 623 2826 
Q 463 3081 463 3397 
Q 463 3744 659 4045 
Q 856 4347 1234 4503 
Q 1613 4659 2075 4659 
Q 2584 4659 2973 4495 
Q 3363 4331 3572 4012 
Q 3781 3694 3797 3291 
L 3216 3247 
Q 3169 3681 2898 3903 
Q 2628 4125 2100 4125 
Q 1550 4125 1298 3923 
Q 1047 3722 1047 3438 
Q 1047 3191 1225 3031 
Q 1400 2872 2139 2705 
Q 2878 2538 3153 2413 
Q 3553 2228 3743 1945 
Q 3934 1663 3934 1294 
Q 3934 928 3725 604 
Q 3516 281 3123 101 
Q 2731 -78 2241 -78 
Q 1619 -78 1198 103 
Q 778 284 539 648 
Q 300 1013 288 1472 
z
" transform="scale(0.015625)"/>
      <path id="ArialMT-68" d="M 422 0 
L 422 4581 
L 984 4581 
L 984 2938 
Q 1378 3394 1978 3394 
Q 2347 3394 2619 3248 
Q 2891 3103 3008 2847 
Q 3125 2591 3125 2103 
L 3125 0 
L 2563 0 
L 2563 2103 
Q 2563 2525 2380 2717 
Q 2197 2909 1863 2909 
Q 1613 2909 1392 2779 
Q 1172 2650 1078 2428 
Q 984 2206 984 1816 
L 984 0 
L 422 0 
z
" transform="scale(0.015625)"/>
      <path id="ArialMT-75" d="M 2597 0 
L 2597 488 
Q 2209 -75 1544 -75 
Q 1250 -75 995 37 
Q 741 150 617 320 
Q 494 491 444 738 
Q 409 903 409 1263 
L 409 3319 
L 972 3319 
L 972 1478 
Q 972 1038 1006 884 
Q 1059 663 1231 536 
Q 1403 409 1656 409 
Q 1909 409 2131 539 
Q 2353 669 2445 892 
Q 2538 1116 2538 1541 
L 2538 3319 
L 3100 3319 
L 3100 0 
L 2597 0 
z
" transform="scale(0.015625)"/>
      <path id="ArialMT-66" d="M 556 0 
L 556 2881 
L 59 2881 
L 59 3319 
L 556 3319 
L 556 3672 
Q 556 4006 616 4169 
Q 697 4388 901 4523 
Q 1106 4659 1475 4659 
Q 1713 4659 2000 4603 
L 1916 4113 
Q 1741 4144 1584 4144 
Q 1328 4144 1222 4034 
Q 1116 3925 1116 3625 
L 1116 3319 
L 1763 3319 
L 1763 2881 
L 1116 2881 
L 1116 0 
L 556 0 
z
" transform="scale(0.015625)"/>
      <path id="ArialMT-64" d="M 2575 0 
L 2575 419 
Q 2259 -75 1647 -75 
Q 1250 -75 917 144 
Q 584 363 401 755 
Q 219 1147 219 1656 
Q 219 2153 384 2558 
Q 550 2963 881 3178 
Q 1213 3394 1622 3394 
Q 1922 3394 2156 3267 
Q 2391 3141 2538 2938 
L 2538 4581 
L 3097 4581 
L 3097 0 
L 2575 0 
z
M 797 1656 
Q 797 1019 1065 703 
Q 1334 388 1700 388 
Q 2069 388 2326 689 
Q 2584 991 2584 1609 
Q 2584 2291 2321 2609 
Q 2059 2928 1675 2928 
Q 1300 2928 1048 2622 
Q 797 2316 797 1656 
z
" transform="scale(0.015625)"/>
     </defs>
     <use xlink:href="#ArialMT-44"/>
     <use xlink:href="#ArialMT-69" x="72.216797"/>
     <use xlink:href="#ArialMT-76" x="94.433594"/>
     <use xlink:href="#ArialMT-65" x="144.433594"/>
     <use xlink:href="#ArialMT-72" x="200.048828"/>
     <use xlink:href="#ArialMT-67" x="233.349609"/>
     <use xlink:href="#ArialMT-65" x="288.964844"/>
     <use xlink:href="#ArialMT-6e" x="344.580078"/>
     <use xlink:href="#ArialMT-63" x="400.195312"/>
     <use xlink:href="#ArialMT-65" x="450.195312"/>
     <use xlink:href="#ArialMT-20" x="505.810547"/>
     <use xlink:href="#ArialMT-43" x="533.59375"/>
     <use xlink:href="#ArialMT-6f" x="605.810547"/>
     <use xlink:href="#ArialMT-6d" x="661.425781"/>
     <use xlink:href="#ArialMT-70" x="744.726562"/>
     <use xlink:href="#ArialMT-61" x="800.341797"/>
     <use xlink:href="#ArialMT-72" x="855.957031"/>
     <use xlink:href="#ArialMT-69" x="889.257812"/>
     <use xlink:href="#ArialMT-73" x="911.474609"/>
     <use xlink:href="#ArialMT-6f" x="961.474609"/>
     <use xlink:href="#ArialMT-6e" x="1017.089844"/>
     <use xlink:href="#ArialMT-3a" x="1072.705078"/>
     <use xlink:href="#ArialMT-20" x="1100.488281"/>
     <use xlink:href="#ArialMT-4f" x="1128.271484"/>
     <use xlink:href="#ArialMT-72" x="1206.054688"/>
     <use xlink:href="#ArialMT-69" x="1239.355469"/>
     <use xlink:href="#ArialMT-67" x="1261.572266"/>
     <use xlink:href="#ArialMT-69" x="1317.1875"/>
     <use xlink:href="#ArialMT-6e" x="1339.404297"/>
     <use xlink:href="#ArialMT-61" x="1395.019531"/>
     <use xlink:href="#ArialMT-6c" x="1450.634766"/>
     <use xlink:href="#ArialMT-20" x="1472.851562"/>
     <use xlink:href="#ArialMT-76" x="1500.634766"/>
     <use xlink:href="#ArialMT-73" x="1550.634766"/>
     <use xlink:href="#ArialMT-20" x="1600.634766"/>
     <use xlink:href="#ArialMT-53" x="1628.417969"/>
     <use xlink:href="#ArialMT-68" x="1695.117188"/>
     <use xlink:href="#ArialMT-75" x="1750.732422"/>
     <use xlink:href="#ArialMT-66" x="1806.347656"/>
     <use xlink:href="#ArialMT-66" x="1832.380859"/>
     <use xlink:href="#ArialMT-6c" x="1860.164062"/>
     <use xlink:href="#ArialMT-65" x="1882.380859"/>
     <use xlink:href="#ArialMT-64" x="1937.996094"/>
    </g>
   </g>
   <g id="legend_1">
    <g id="patch_5">
     <path d="M 615.46 259.555469 
L 705.061875 259.555469 
Q 707.261875 259.555469 707.261875 257.355469 
L 707.261875 148.424531 
Q 707.261875 146.224531 705.061875 146.224531 
L 615.46 146.224531 
Q 613.26 146.224531 613.26 148.424531 
L 613.26 257.355469 
Q 613.26 259.555469 615.46 259.555469 
z
" style="fill: #ffffff; opacity: 0.8; stroke: #cccccc; stroke-linejoin: miter"/>
    </g>
    <g id="line2d_9">
     <path d="M 617.66 154.789062 
L 628.66 154.789062 
L 639.66 154.789062 
" style="fill: none; stroke: #00008b; stroke-width: 2; stroke-linecap: round"/>
    </g>
    <g id="text_22">
     <!-- Original -->
     <g style="fill: #262626" transform="translate(648.46 158.639062) scale(0.11 -0.11)">
      <use xlink:href="#ArialMT-4f"/>
      <use xlink:href="#ArialMT-72" x="77.783203"/>
      <use xlink:href="#ArialMT-69" x="111.083984"/>
      <use xlink:href="#ArialMT-67" x="133.300781"/>
      <use xlink:href="#ArialMT-69" x="188.916016"/>
      <use xlink:href="#ArialMT-6e" x="211.132812"/>
      <use xlink:href="#ArialMT-61" x="266.748047"/>
      <use xlink:href="#ArialMT-6c" x="322.363281"/>
     </g>
    </g>
    <g id="line2d_10">
     <path d="M 617.66 170.61875 
L 628.66 170.61875 
L 639.66 170.61875 
" style="fill: none; stroke-dasharray: 7.4,3.2; stroke-dashoffset: 0; stroke: #00008b; stroke-width: 2"/>
    </g>
    <g id="text_23">
     <!-- Original -->
     <g style="fill: #262626" transform="translate(648.46 174.46875) scale(0.11 -0.11)">
      <use xlink:href="#ArialMT-4f"/>
      <use xlink:href="#ArialMT-72" x="77.783203"/>
      <use xlink:href="#ArialMT-69" x="111.083984"/>
      <use xlink:href="#ArialMT-67" x="133.300781"/>
      <use xlink:href="#ArialMT-69" x="188.916016"/>
      <use xlink:href="#ArialMT-6e" x="211.132812"/>
      <use xlink:href="#ArialMT-61" x="266.748047"/>
      <use xlink:href="#ArialMT-6c" x="322.363281"/>
     </g>
    </g>
    <g id="PathCollection_3">
     <g>
      <use xlink:href="#mf69784d41b" x="628.66" y="187.302656" style="fill: #00008b; stroke: #00008b"/>
     </g>
    </g>
    <g id="text_24">
     <!-- p &lt; 0.001 -->
     <g style="fill: #262626" transform="translate(648.46 190.190156) scale(0.11 -0.11)">
      <defs>
       <path id="ArialMT-3c" d="M 350 2003 
L 350 2528 
L 3384 3809 
L 3384 3250 
L 978 2263 
L 3384 1266 
L 3384 706 
L 350 2003 
z
" transform="scale(0.015625)"/>
      </defs>
      <use xlink:href="#ArialMT-70"/>
      <use xlink:href="#ArialMT-20" x="55.615234"/>
      <use xlink:href="#ArialMT-3c" x="83.398438"/>
      <use xlink:href="#ArialMT-20" x="141.796875"/>
      <use xlink:href="#ArialMT-30" x="169.580078"/>
      <use xlink:href="#ArialMT-2e" x="225.195312"/>
      <use xlink:href="#ArialMT-30" x="252.978516"/>
      <use xlink:href="#ArialMT-30" x="308.59375"/>
      <use xlink:href="#ArialMT-31" x="364.208984"/>
     </g>
    </g>
    <g id="line2d_11">
     <path d="M 617.66 201.9 
L 628.66 201.9 
L 639.66 201.9 
" style="fill: none; stroke-dasharray: 5.55,2.4; stroke-dashoffset: 0; stroke: #1a1a1a; stroke-width: 1.5"/>
    </g>
    <g id="text_25">
     <!-- Stim Onset -->
     <g style="fill: #262626" transform="translate(648.46 205.75) scale(0.11 -0.11)">
      <defs>
       <path id="ArialMT-74" d="M 1650 503 
L 1731 6 
Q 1494 -44 1306 -44 
Q 1000 -44 831 53 
Q 663 150 594 308 
Q 525 466 525 972 
L 525 2881 
L 113 2881 
L 113 3319 
L 525 3319 
L 525 4141 
L 1084 4478 
L 1084 3319 
L 1650 3319 
L 1650 2881 
L 1084 2881 
L 1084 941 
Q 1084 700 1114 631 
Q 1144 563 1211 522 
Q 1278 481 1403 481 
Q 1497 481 1650 503 
z
" transform="scale(0.015625)"/>
      </defs>
      <use xlink:href="#ArialMT-53"/>
      <use xlink:href="#ArialMT-74" x="66.699219"/>
      <use xlink:href="#ArialMT-69" x="94.482422"/>
      <use xlink:href="#ArialMT-6d" x="116.699219"/>
      <use xlink:href="#ArialMT-20" x="200"/>
      <use xlink:href="#ArialMT-4f" x="227.783203"/>
      <use xlink:href="#ArialMT-6e" x="305.566406"/>
      <use xlink:href="#ArialMT-73" x="361.181641"/>
      <use xlink:href="#ArialMT-65" x="411.181641"/>
      <use xlink:href="#ArialMT-74" x="466.796875"/>
     </g>
    </g>
    <g id="line2d_12">
     <path d="M 617.66 217.459844 
L 628.66 217.459844 
L 639.66 217.459844 
" style="fill: none; stroke-dasharray: 5.55,2.4; stroke-dashoffset: 0; stroke: #1a1a1a; stroke-width: 1.5"/>
    </g>
    <g id="text_26">
     <!-- Stim End -->
     <g style="fill: #262626" transform="translate(648.46 221.309844) scale(0.11 -0.11)">
      <defs>
       <path id="ArialMT-45" d="M 506 0 
L 506 4581 
L 3819 4581 
L 3819 4041 
L 1113 4041 
L 1113 2638 
L 3647 2638 
L 3647 2100 
L 1113 2100 
L 1113 541 
L 3925 541 
L 3925 0 
L 506 0 
z
" transform="scale(0.015625)"/>
      </defs>
      <use xlink:href="#ArialMT-53"/>
      <use xlink:href="#ArialMT-74" x="66.699219"/>
      <use xlink:href="#ArialMT-69" x="94.482422"/>
      <use xlink:href="#ArialMT-6d" x="116.699219"/>
      <use xlink:href="#ArialMT-20" x="200"/>
      <use xlink:href="#ArialMT-45" x="227.783203"/>
      <use xlink:href="#ArialMT-6e" x="294.482422"/>
      <use xlink:href="#ArialMT-64" x="350.097656"/>
     </g>
    </g>
    <g id="line2d_13">
     <path d="M 617.66 233.160625 
L 628.66 233.160625 
L 639.66 233.160625 
" style="fill: none; stroke: #6060eb; stroke-width: 2; stroke-linecap: round"/>
    </g>
    <g id="text_27">
     <!-- Original -->
     <g style="fill: #262626" transform="translate(648.46 237.010625) scale(0.11 -0.11)">
      <use xlink:href="#ArialMT-4f"/>
      <use xlink:href="#ArialMT-72" x="77.783203"/>
      <use xlink:href="#ArialMT-69" x="111.083984"/>
      <use xlink:href="#ArialMT-67" x="133.300781"/>
      <use xlink:href="#ArialMT-69" x="188.916016"/>
      <use xlink:href="#ArialMT-6e" x="211.132812"/>
      <use xlink:href="#ArialMT-61" x="266.748047"/>
      <use xlink:href="#ArialMT-6c" x="322.363281"/>
     </g>
    </g>
    <g id="line2d_14">
     <path d="M 617.66 248.990312 
L 628.66 248.990312 
L 639.66 248.990312 
" style="fill: none; stroke-dasharray: 7.4,3.2; stroke-dashoffset: 0; stroke: #6060eb; stroke-width: 2"/>
    </g>
    <g id="text_28">
     <!-- Original -->
     <g style="fill: #262626" transform="translate(648.46 252.840312) scale(0.11 -0.11)">
      <use xlink:href="#ArialMT-4f"/>
      <use xlink:href="#ArialMT-72" x="77.783203"/>
      <use xlink:href="#ArialMT-69" x="111.083984"/>
      <use xlink:href="#ArialMT-67" x="133.300781"/>
      <use xlink:href="#ArialMT-69" x="188.916016"/>
      <use xlink:href="#ArialMT-6e" x="211.132812"/>
      <use xlink:href="#ArialMT-61" x="266.748047"/>
      <use xlink:href="#ArialMT-6c" x="322.363281"/>
     </g>
    </g>
   </g>
  </g>
 </g>
 <defs>
  <clipPath id="pf2c08735ac">
   <rect x="69.57" y="27.6" width="538.19" height="350.58"/>
  </clipPath>
 </defs>
</svg>
