<?xml version="1.0" encoding="utf-8" standalone="no"?>
<!DOCTYPE svg PUBLIC "-//W3C//DTD SVG 1.1//EN"
  "http://www.w3.org/Graphics/SVG/1.1/DTD/svg11.dtd">
<svg xmlns:xlink="http://www.w3.org/1999/xlink" width="720pt" height="432pt" viewBox="0 0 720 432" xmlns="http://www.w3.org/2000/svg" version="1.1">
 <metadata>
  <rdf:RDF xmlns:dc="http://purl.org/dc/elements/1.1/" xmlns:cc="http://creativecommons.org/ns#" xmlns:rdf="http://www.w3.org/1999/02/22-rdf-syntax-ns#">
   <cc:Work>
    <dc:type rdf:resource="http://purl.org/dc/dcmitype/StillImage"/>
    <dc:date>2025-08-22T11:28:20.212970</dc:date>
    <dc:format>image/svg+xml</dc:format>
    <dc:creator>
     <cc:Agent>
      <dc:title>Matplotlib v3.9.4, https://matplotlib.org/</dc:title>
     </cc:Agent>
    </dc:creator>
   </cc:Work>
  </rdf:RDF>
 </metadata>
 <defs>
  <style type="text/css">*{stroke-linejoin: round; stroke-linecap: butt}</style>
 </defs>
 <g id="figure_1">
  <g id="patch_1">
   <path d="M 0 432 
L 720 432 
L 720 0 
L 0 0 
z
" style="fill: #ffffff"/>
  </g>
  <g id="axes_1">
   <g id="patch_2">
    <path d="M 86.67 378.18 
L 607.76 378.18 
L 607.76 27.6 
L 86.67 27.6 
L 86.67 378.18 
z
" style="fill: none"/>
   </g>
   <g id="matplotlib.axis_1">
    <g id="xtick_1">
     <g id="text_1">
      <!-- −500 -->
      <g style="fill: #262626" transform="translate(83.795613 398.416719) scale(0.15 -0.15)">
       <defs>
        <path id="ArialMT-2212" d="M 3381 1997 
L 356 1997 
L 356 2522 
L 3381 2522 
L 3381 1997 
z
" transform="scale(0.015625)"/>
        <path id="ArialMT-35" d="M 266 1200 
L 856 1250 
Q 922 819 1161 601 
Q 1400 384 1738 384 
Q 2144 384 2425 690 
Q 2706 997 2706 1503 
Q 2706 1984 2436 2262 
Q 2166 2541 1728 2541 
Q 1456 2541 1237 2417 
Q 1019 2294 894 2097 
L 366 2166 
L 809 4519 
L 3088 4519 
L 3088 3981 
L 1259 3981 
L 1013 2750 
Q 1425 3038 1878 3038 
Q 2478 3038 2890 2622 
Q 3303 2206 3303 1553 
Q 3303 931 2941 478 
Q 2500 -78 1738 -78 
Q 1113 -78 717 272 
Q 322 622 266 1200 
z
" transform="scale(0.015625)"/>
        <path id="ArialMT-30" d="M 266 2259 
Q 266 3072 433 3567 
Q 600 4063 929 4331 
Q 1259 4600 1759 4600 
Q 2128 4600 2406 4451 
Q 2684 4303 2865 4023 
Q 3047 3744 3150 3342 
Q 3253 2941 3253 2259 
Q 3253 1453 3087 958 
Q 2922 463 2592 192 
Q 2263 -78 1759 -78 
Q 1097 -78 719 397 
Q 266 969 266 2259 
z
M 844 2259 
Q 844 1131 1108 757 
Q 1372 384 1759 384 
Q 2147 384 2411 759 
Q 2675 1134 2675 2259 
Q 2675 3391 2411 3762 
Q 2147 4134 1753 4134 
Q 1366 4134 1134 3806 
Q 844 3388 844 2259 
z
" transform="scale(0.015625)"/>
       </defs>
       <use xlink:href="#ArialMT-2212"/>
       <use xlink:href="#ArialMT-35" x="58.398438"/>
       <use xlink:href="#ArialMT-30" x="114.013672"/>
       <use xlink:href="#ArialMT-30" x="169.628906"/>
      </g>
     </g>
    </g>
    <g id="xtick_2">
     <g id="text_2">
      <!-- −250 -->
      <g style="fill: #262626" transform="translate(144.21885 398.416719) scale(0.15 -0.15)">
       <defs>
        <path id="ArialMT-32" d="M 3222 541 
L 3222 0 
L 194 0 
Q 188 203 259 391 
Q 375 700 629 1000 
Q 884 1300 1366 1694 
Q 2113 2306 2375 2664 
Q 2638 3022 2638 3341 
Q 2638 3675 2398 3904 
Q 2159 4134 1775 4134 
Q 1369 4134 1125 3890 
Q 881 3647 878 3216 
L 300 3275 
Q 359 3922 746 4261 
Q 1134 4600 1788 4600 
Q 2447 4600 2831 4234 
Q 3216 3869 3216 3328 
Q 3216 3053 3103 2787 
Q 2991 2522 2730 2228 
Q 2469 1934 1863 1422 
Q 1356 997 1212 845 
Q 1069 694 975 541 
L 3222 541 
z
" transform="scale(0.015625)"/>
       </defs>
       <use xlink:href="#ArialMT-2212"/>
       <use xlink:href="#ArialMT-32" x="58.398438"/>
       <use xlink:href="#ArialMT-35" x="114.013672"/>
       <use xlink:href="#ArialMT-30" x="169.628906"/>
      </g>
     </g>
    </g>
    <g id="xtick_3">
     <g id="text_3">
      <!-- 0 -->
      <g style="fill: #262626" transform="translate(217.363963 398.416719) scale(0.15 -0.15)">
       <use xlink:href="#ArialMT-30"/>
      </g>
     </g>
    </g>
    <g id="xtick_4">
     <g id="text_4">
      <!-- 250 -->
      <g style="fill: #262626" transform="translate(269.445794 398.416719) scale(0.15 -0.15)">
       <use xlink:href="#ArialMT-32"/>
       <use xlink:href="#ArialMT-35" x="55.615234"/>
       <use xlink:href="#ArialMT-30" x="111.230469"/>
      </g>
     </g>
    </g>
    <g id="xtick_5">
     <g id="text_5">
      <!-- 500 -->
      <g style="fill: #262626" transform="translate(329.869032 398.416719) scale(0.15 -0.15)">
       <use xlink:href="#ArialMT-35"/>
       <use xlink:href="#ArialMT-30" x="55.615234"/>
       <use xlink:href="#ArialMT-30" x="111.230469"/>
      </g>
     </g>
    </g>
    <g id="xtick_6">
     <g id="text_6">
      <!-- 750 -->
      <g style="fill: #262626" transform="translate(390.292269 398.416719) scale(0.15 -0.15)">
       <defs>
        <path id="ArialMT-37" d="M 303 3981 
L 303 4522 
L 3269 4522 
L 3269 4084 
Q 2831 3619 2401 2847 
Q 1972 2075 1738 1259 
Q 1569 684 1522 0 
L 944 0 
Q 953 541 1156 1306 
Q 1359 2072 1739 2783 
Q 2119 3494 2547 3981 
L 303 3981 
z
" transform="scale(0.015625)"/>
       </defs>
       <use xlink:href="#ArialMT-37"/>
       <use xlink:href="#ArialMT-35" x="55.615234"/>
       <use xlink:href="#ArialMT-30" x="111.230469"/>
      </g>
     </g>
    </g>
    <g id="xtick_7">
     <g id="text_7">
      <!-- 1000 -->
      <g style="fill: #262626" transform="translate(446.544803 398.416719) scale(0.15 -0.15)">
       <defs>
        <path id="ArialMT-31" d="M 2384 0 
L 1822 0 
L 1822 3584 
Q 1619 3391 1289 3197 
Q 959 3003 697 2906 
L 697 3450 
Q 1169 3672 1522 3987 
Q 1875 4303 2022 4600 
L 2384 4600 
L 2384 0 
z
" transform="scale(0.015625)"/>
       </defs>
       <use xlink:href="#ArialMT-31"/>
       <use xlink:href="#ArialMT-30" x="55.615234"/>
       <use xlink:href="#ArialMT-30" x="111.230469"/>
       <use xlink:href="#ArialMT-30" x="166.845703"/>
      </g>
     </g>
    </g>
    <g id="xtick_8">
     <g id="text_8">
      <!-- 1250 -->
      <g style="fill: #262626" transform="translate(506.968041 398.416719) scale(0.15 -0.15)">
       <use xlink:href="#ArialMT-31"/>
       <use xlink:href="#ArialMT-32" x="55.615234"/>
       <use xlink:href="#ArialMT-35" x="111.230469"/>
       <use xlink:href="#ArialMT-30" x="166.845703"/>
      </g>
     </g>
    </g>
    <g id="xtick_9">
     <g id="text_9">
      <!-- 1500 -->
      <g style="fill: #262626" transform="translate(567.391278 398.416719) scale(0.15 -0.15)">
       <use xlink:href="#ArialMT-31"/>
       <use xlink:href="#ArialMT-35" x="55.615234"/>
       <use xlink:href="#ArialMT-30" x="111.230469"/>
       <use xlink:href="#ArialMT-30" x="166.845703"/>
      </g>
     </g>
    </g>
    <g id="text_10">
     <!-- Time (s) -->
     <g style="fill: #262626" transform="translate(320.002891 416.3175) scale(0.15 -0.15)">
      <defs>
       <path id="ArialMT-54" d="M 1659 0 
L 1659 4041 
L 150 4041 
L 150 4581 
L 3781 4581 
L 3781 4041 
L 2266 4041 
L 2266 0 
L 1659 0 
z
" transform="scale(0.015625)"/>
       <path id="ArialMT-69" d="M 425 3934 
L 425 4581 
L 988 4581 
L 988 3934 
L 425 3934 
z
M 425 0 
L 425 3319 
L 988 3319 
L 988 0 
L 425 0 
z
" transform="scale(0.015625)"/>
       <path id="ArialMT-6d" d="M 422 0 
L 422 3319 
L 925 3319 
L 925 2853 
Q 1081 3097 1340 3245 
Q 1600 3394 1931 3394 
Q 2300 3394 2536 3241 
Q 2772 3088 2869 2813 
Q 3263 3394 3894 3394 
Q 4388 3394 4653 3120 
Q 4919 2847 4919 2278 
L 4919 0 
L 4359 0 
L 4359 2091 
Q 4359 2428 4304 2576 
Q 4250 2725 4106 2815 
Q 3963 2906 3769 2906 
Q 3419 2906 3187 2673 
Q 2956 2441 2956 1928 
L 2956 0 
L 2394 0 
L 2394 2156 
Q 2394 2531 2256 2718 
Q 2119 2906 1806 2906 
Q 1569 2906 1367 2781 
Q 1166 2656 1075 2415 
Q 984 2175 984 1722 
L 984 0 
L 422 0 
z
" transform="scale(0.015625)"/>
       <path id="ArialMT-65" d="M 2694 1069 
L 3275 997 
Q 3138 488 2766 206 
Q 2394 -75 1816 -75 
Q 1088 -75 661 373 
Q 234 822 234 1631 
Q 234 2469 665 2931 
Q 1097 3394 1784 3394 
Q 2450 3394 2872 2941 
Q 3294 2488 3294 1666 
Q 3294 1616 3291 1516 
L 816 1516 
Q 847 969 1125 678 
Q 1403 388 1819 388 
Q 2128 388 2347 550 
Q 2566 713 2694 1069 
z
M 847 1978 
L 2700 1978 
Q 2663 2397 2488 2606 
Q 2219 2931 1791 2931 
Q 1403 2931 1139 2672 
Q 875 2413 847 1978 
z
" transform="scale(0.015625)"/>
       <path id="ArialMT-20" transform="scale(0.015625)"/>
       <path id="ArialMT-28" d="M 1497 -1347 
Q 1031 -759 709 28 
Q 388 816 388 1659 
Q 388 2403 628 3084 
Q 909 3875 1497 4659 
L 1900 4659 
Q 1522 4009 1400 3731 
Q 1209 3300 1100 2831 
Q 966 2247 966 1656 
Q 966 153 1900 -1347 
L 1497 -1347 
z
" transform="scale(0.015625)"/>
       <path id="ArialMT-73" d="M 197 991 
L 753 1078 
Q 800 744 1014 566 
Q 1228 388 1613 388 
Q 2000 388 2187 545 
Q 2375 703 2375 916 
Q 2375 1106 2209 1216 
Q 2094 1291 1634 1406 
Q 1016 1563 777 1677 
Q 538 1791 414 1992 
Q 291 2194 291 2438 
Q 291 2659 392 2848 
Q 494 3038 669 3163 
Q 800 3259 1026 3326 
Q 1253 3394 1513 3394 
Q 1903 3394 2198 3281 
Q 2494 3169 2634 2976 
Q 2775 2784 2828 2463 
L 2278 2388 
Q 2241 2644 2061 2787 
Q 1881 2931 1553 2931 
Q 1166 2931 1000 2803 
Q 834 2675 834 2503 
Q 834 2394 903 2306 
Q 972 2216 1119 2156 
Q 1203 2125 1616 2013 
Q 2213 1853 2448 1751 
Q 2684 1650 2818 1456 
Q 2953 1263 2953 975 
Q 2953 694 2789 445 
Q 2625 197 2315 61 
Q 2006 -75 1616 -75 
Q 969 -75 630 194 
Q 291 463 197 991 
z
" transform="scale(0.015625)"/>
       <path id="ArialMT-29" d="M 791 -1347 
L 388 -1347 
Q 1322 153 1322 1656 
Q 1322 2244 1188 2822 
Q 1081 3291 891 3722 
Q 769 4003 388 4659 
L 791 4659 
Q 1378 3875 1659 3084 
Q 1900 2403 1900 1659 
Q 1900 816 1576 28 
Q 1253 -759 791 -1347 
z
" transform="scale(0.015625)"/>
      </defs>
      <use xlink:href="#ArialMT-54"/>
      <use xlink:href="#ArialMT-69" x="57.333984"/>
      <use xlink:href="#ArialMT-6d" x="79.550781"/>
      <use xlink:href="#ArialMT-65" x="162.851562"/>
      <use xlink:href="#ArialMT-20" x="218.466797"/>
      <use xlink:href="#ArialMT-28" x="246.25"/>
      <use xlink:href="#ArialMT-73" x="279.550781"/>
      <use xlink:href="#ArialMT-29" x="329.550781"/>
     </g>
    </g>
   </g>
   <g id="matplotlib.axis_2">
    <g id="ytick_1">
     <g id="text_11">
      <!-- −0.050 -->
      <g style="fill: #262626" transform="translate(30.87625 352.00122) scale(0.15 -0.15)">
       <defs>
        <path id="ArialMT-2e" d="M 581 0 
L 581 641 
L 1222 641 
L 1222 0 
L 581 0 
z
" transform="scale(0.015625)"/>
       </defs>
       <use xlink:href="#ArialMT-2212"/>
       <use xlink:href="#ArialMT-30" x="58.398438"/>
       <use xlink:href="#ArialMT-2e" x="114.013672"/>
       <use xlink:href="#ArialMT-30" x="141.796875"/>
       <use xlink:href="#ArialMT-35" x="197.412109"/>
       <use xlink:href="#ArialMT-30" x="253.027344"/>
      </g>
     </g>
    </g>
    <g id="ytick_2">
     <g id="text_12">
      <!-- −0.025 -->
      <g style="fill: #262626" transform="translate(30.87625 312.239825) scale(0.15 -0.15)">
       <use xlink:href="#ArialMT-2212"/>
       <use xlink:href="#ArialMT-30" x="58.398438"/>
       <use xlink:href="#ArialMT-2e" x="114.013672"/>
       <use xlink:href="#ArialMT-30" x="141.796875"/>
       <use xlink:href="#ArialMT-32" x="197.412109"/>
       <use xlink:href="#ArialMT-35" x="253.027344"/>
      </g>
     </g>
    </g>
    <g id="ytick_3">
     <g id="text_13">
      <!-- 0.000 -->
      <g style="fill: #262626" transform="translate(39.637188 272.478429) scale(0.15 -0.15)">
       <use xlink:href="#ArialMT-30"/>
       <use xlink:href="#ArialMT-2e" x="55.615234"/>
       <use xlink:href="#ArialMT-30" x="83.398438"/>
       <use xlink:href="#ArialMT-30" x="139.013672"/>
       <use xlink:href="#ArialMT-30" x="194.628906"/>
      </g>
     </g>
    </g>
    <g id="ytick_4">
     <g id="text_14">
      <!-- 0.025 -->
      <g style="fill: #262626" transform="translate(39.637188 232.717034) scale(0.15 -0.15)">
       <use xlink:href="#ArialMT-30"/>
       <use xlink:href="#ArialMT-2e" x="55.615234"/>
       <use xlink:href="#ArialMT-30" x="83.398438"/>
       <use xlink:href="#ArialMT-32" x="139.013672"/>
       <use xlink:href="#ArialMT-35" x="194.628906"/>
      </g>
     </g>
    </g>
    <g id="ytick_5">
     <g id="text_15">
      <!-- 0.050 -->
      <g style="fill: #262626" transform="translate(39.637188 192.955638) scale(0.15 -0.15)">
       <use xlink:href="#ArialMT-30"/>
       <use xlink:href="#ArialMT-2e" x="55.615234"/>
       <use xlink:href="#ArialMT-30" x="83.398438"/>
       <use xlink:href="#ArialMT-35" x="139.013672"/>
       <use xlink:href="#ArialMT-30" x="194.628906"/>
      </g>
     </g>
    </g>
    <g id="ytick_6">
     <g id="text_16">
      <!-- 0.075 -->
      <g style="fill: #262626" transform="translate(39.637188 153.194243) scale(0.15 -0.15)">
       <use xlink:href="#ArialMT-30"/>
       <use xlink:href="#ArialMT-2e" x="55.615234"/>
       <use xlink:href="#ArialMT-30" x="83.398438"/>
       <use xlink:href="#ArialMT-37" x="139.013672"/>
       <use xlink:href="#ArialMT-35" x="194.628906"/>
      </g>
     </g>
    </g>
    <g id="ytick_7">
     <g id="text_17">
      <!-- 0.100 -->
      <g style="fill: #262626" transform="translate(39.637188 113.432847) scale(0.15 -0.15)">
       <use xlink:href="#ArialMT-30"/>
       <use xlink:href="#ArialMT-2e" x="55.615234"/>
       <use xlink:href="#ArialMT-31" x="83.398438"/>
       <use xlink:href="#ArialMT-30" x="139.013672"/>
       <use xlink:href="#ArialMT-30" x="194.628906"/>
      </g>
     </g>
    </g>
    <g id="ytick_8">
     <g id="text_18">
      <!-- 0.125 -->
      <g style="fill: #262626" transform="translate(39.637188 73.671452) scale(0.15 -0.15)">
       <use xlink:href="#ArialMT-30"/>
       <use xlink:href="#ArialMT-2e" x="55.615234"/>
       <use xlink:href="#ArialMT-31" x="83.398438"/>
       <use xlink:href="#ArialMT-32" x="139.013672"/>
       <use xlink:href="#ArialMT-35" x="194.628906"/>
      </g>
     </g>
    </g>
    <g id="ytick_9">
     <g id="text_19">
      <!-- 0.150 -->
      <g style="fill: #262626" transform="translate(39.637188 33.910056) scale(0.15 -0.15)">
       <use xlink:href="#ArialMT-30"/>
       <use xlink:href="#ArialMT-2e" x="55.615234"/>
       <use xlink:href="#ArialMT-31" x="83.398438"/>
       <use xlink:href="#ArialMT-35" x="139.013672"/>
       <use xlink:href="#ArialMT-30" x="194.628906"/>
      </g>
     </g>
    </g>
    <g id="text_20">
     <!-- Divergence -->
     <g style="fill: #262626" transform="translate(23.719219 240.823594) rotate(-90) scale(0.15 -0.15)">
      <defs>
       <path id="ArialMT-44" d="M 494 0 
L 494 4581 
L 2072 4581 
Q 2606 4581 2888 4516 
Q 3281 4425 3559 4188 
Q 3922 3881 4101 3404 
Q 4281 2928 4281 2316 
Q 4281 1794 4159 1391 
Q 4038 988 3847 723 
Q 3656 459 3429 307 
Q 3203 156 2883 78 
Q 2563 0 2147 0 
L 494 0 
z
M 1100 541 
L 2078 541 
Q 2531 541 2789 625 
Q 3047 709 3200 863 
Q 3416 1078 3536 1442 
Q 3656 1806 3656 2325 
Q 3656 3044 3420 3430 
Q 3184 3816 2847 3947 
Q 2603 4041 2063 4041 
L 1100 4041 
L 1100 541 
z
" transform="scale(0.015625)"/>
       <path id="ArialMT-76" d="M 1344 0 
L 81 3319 
L 675 3319 
L 1388 1331 
Q 1503 1009 1600 663 
Q 1675 925 1809 1294 
L 2547 3319 
L 3125 3319 
L 1869 0 
L 1344 0 
z
" transform="scale(0.015625)"/>
       <path id="ArialMT-72" d="M 416 0 
L 416 3319 
L 922 3319 
L 922 2816 
Q 1116 3169 1280 3281 
Q 1444 3394 1641 3394 
Q 1925 3394 2219 3213 
L 2025 2691 
Q 1819 2813 1613 2813 
Q 1428 2813 1281 2702 
Q 1134 2591 1072 2394 
Q 978 2094 978 1738 
L 978 0 
L 416 0 
z
" transform="scale(0.015625)"/>
       <path id="ArialMT-67" d="M 319 -275 
L 866 -356 
Q 900 -609 1056 -725 
Q 1266 -881 1628 -881 
Q 2019 -881 2231 -725 
Q 2444 -569 2519 -288 
Q 2563 -116 2559 434 
Q 2191 0 1641 0 
Q 956 0 581 494 
Q 206 988 206 1678 
Q 206 2153 378 2554 
Q 550 2956 876 3175 
Q 1203 3394 1644 3394 
Q 2231 3394 2613 2919 
L 2613 3319 
L 3131 3319 
L 3131 450 
Q 3131 -325 2973 -648 
Q 2816 -972 2473 -1159 
Q 2131 -1347 1631 -1347 
Q 1038 -1347 672 -1080 
Q 306 -813 319 -275 
z
M 784 1719 
Q 784 1066 1043 766 
Q 1303 466 1694 466 
Q 2081 466 2343 764 
Q 2606 1063 2606 1700 
Q 2606 2309 2336 2618 
Q 2066 2928 1684 2928 
Q 1309 2928 1046 2623 
Q 784 2319 784 1719 
z
" transform="scale(0.015625)"/>
       <path id="ArialMT-6e" d="M 422 0 
L 422 3319 
L 928 3319 
L 928 2847 
Q 1294 3394 1984 3394 
Q 2284 3394 2536 3286 
Q 2788 3178 2913 3003 
Q 3038 2828 3088 2588 
Q 3119 2431 3119 2041 
L 3119 0 
L 2556 0 
L 2556 2019 
Q 2556 2363 2490 2533 
Q 2425 2703 2258 2804 
Q 2091 2906 1866 2906 
Q 1506 2906 1245 2678 
Q 984 2450 984 1813 
L 984 0 
L 422 0 
z
" transform="scale(0.015625)"/>
       <path id="ArialMT-63" d="M 2588 1216 
L 3141 1144 
Q 3050 572 2676 248 
Q 2303 -75 1759 -75 
Q 1078 -75 664 370 
Q 250 816 250 1647 
Q 250 2184 428 2587 
Q 606 2991 970 3192 
Q 1334 3394 1763 3394 
Q 2303 3394 2647 3120 
Q 2991 2847 3088 2344 
L 2541 2259 
Q 2463 2594 2264 2762 
Q 2066 2931 1784 2931 
Q 1359 2931 1093 2626 
Q 828 2322 828 1663 
Q 828 994 1084 691 
Q 1341 388 1753 388 
Q 2084 388 2306 591 
Q 2528 794 2588 1216 
z
" transform="scale(0.015625)"/>
      </defs>
      <use xlink:href="#ArialMT-44"/>
      <use xlink:href="#ArialMT-69" x="72.216797"/>
      <use xlink:href="#ArialMT-76" x="94.433594"/>
      <use xlink:href="#ArialMT-65" x="144.433594"/>
      <use xlink:href="#ArialMT-72" x="200.048828"/>
      <use xlink:href="#ArialMT-67" x="233.349609"/>
      <use xlink:href="#ArialMT-65" x="288.964844"/>
      <use xlink:href="#ArialMT-6e" x="344.580078"/>
      <use xlink:href="#ArialMT-63" x="400.195312"/>
      <use xlink:href="#ArialMT-65" x="450.195312"/>
     </g>
    </g>
   </g>
   <g id="PolyCollection_1">
    <defs>
     <path id="m59532477b4" d="M 110.355909 -179.750143 
L 110.355909 -147.868785 
L 120.023627 -157.11814 
L 129.691345 -161.421973 
L 139.359063 -160.417463 
L 149.026781 -160.4098 
L 158.694499 -162.080227 
L 168.362217 -163.769138 
L 178.029935 -163.660183 
L 187.697653 -166.910137 
L 197.365371 -164.860829 
L 207.033089 -164.364361 
L 216.700807 -160.212754 
L 226.368525 -144.78206 
L 236.036243 -142.271578 
L 245.703961 -149.730425 
L 255.371679 -176.894822 
L 265.039397 -178.050905 
L 274.707115 -176.620449 
L 284.374833 -189.764955 
L 294.042551 -189.216629 
L 303.710269 -178.843216 
L 313.377987 -214.553422 
L 323.045705 -265.959502 
L 332.713423 -315.264082 
L 342.381141 -337.183352 
L 352.048859 -344.470575 
L 361.716577 -321.915363 
L 371.384295 -254.274718 
L 381.052013 -224.770728 
L 390.719731 -260.847031 
L 400.387449 -278.268976 
L 410.055167 -281.099084 
L 419.722885 -276.373446 
L 429.390603 -310.358331 
L 439.058321 -358.451738 
L 448.726039 -324.941761 
L 458.393757 -292.33819 
L 468.061475 -257.962641 
L 477.729193 -191.619442 
L 487.396911 -165.310394 
L 497.064629 -167.131791 
L 506.732347 -171.194446 
L 516.400065 -165.746497 
L 526.067783 -163.070378 
L 535.735501 -161.036006 
L 545.403219 -163.126683 
L 555.070937 -166.261565 
L 564.738655 -161.506965 
L 574.406373 -162.674832 
L 584.074091 -161.400909 
L 584.074091 -165.516653 
L 584.074091 -165.516653 
L 574.406373 -167.834873 
L 564.738655 -166.110377 
L 555.070937 -174.245522 
L 545.403219 -167.391995 
L 535.735501 -167.029484 
L 526.067783 -170.317445 
L 516.400065 -171.300888 
L 506.732347 -183.202784 
L 497.064629 -174.904961 
L 487.396911 -188.991564 
L 477.729193 -198.122804 
L 468.061475 -270.101071 
L 458.393757 -310.917322 
L 448.726039 -350.345898 
L 439.058321 -388.464545 
L 429.390603 -336.134437 
L 419.722885 -297.972195 
L 410.055167 -300.769944 
L 400.387449 -298.876386 
L 390.719731 -277.161396 
L 381.052013 -240.006701 
L 371.384295 -274.200736 
L 361.716577 -346.518755 
L 352.048859 -372.202058 
L 342.381141 -365.00592 
L 332.713423 -342.422749 
L 323.045705 -288.446327 
L 313.377987 -230.021651 
L 303.710269 -195.574252 
L 294.042551 -204.683994 
L 284.374833 -204.226818 
L 274.707115 -188.77462 
L 265.039397 -191.021396 
L 255.371679 -189.328117 
L 245.703961 -163.175989 
L 236.036243 -154.808161 
L 226.368525 -155.723358 
L 216.700807 -164.204127 
L 207.033089 -167.026046 
L 197.365371 -168.303726 
L 187.697653 -170.877082 
L 178.029935 -166.899885 
L 168.362217 -167.750509 
L 158.694499 -165.157021 
L 149.026781 -164.529885 
L 139.359063 -163.551743 
L 129.691345 -165.891091 
L 120.023627 -161.792686 
L 110.355909 -179.750143 
z
" style="stroke: #8b0a50; stroke-opacity: 0.1"/>
    </defs>
    <g clip-path="url(#p577b439e71)">
     <use xlink:href="#m59532477b4" x="0" y="432" style="fill: #8b0a50; fill-opacity: 0.1; stroke: #8b0a50; stroke-opacity: 0.1"/>
    </g>
   </g>
   <g id="PolyCollection_2">
    <defs>
     <path id="m00de2339b9" d="M 110.355909 -171.030618 
L 110.355909 -166.804862 
L 120.023627 -164.512921 
L 129.691345 -164.748798 
L 139.359063 -164.978101 
L 149.026781 -164.491825 
L 158.694499 -164.587548 
L 168.362217 -164.702246 
L 178.029935 -164.870792 
L 187.697653 -164.57593 
L 197.365371 -164.386189 
L 207.033089 -164.319582 
L 216.700807 -163.700113 
L 226.368525 -161.2821 
L 236.036243 -164.423705 
L 245.703961 -164.819035 
L 255.371679 -163.374617 
L 265.039397 -162.804734 
L 274.707115 -162.002689 
L 284.374833 -161.815238 
L 294.042551 -157.640127 
L 303.710269 -155.298332 
L 313.377987 -161.156428 
L 323.045705 -163.744646 
L 332.713423 -165.474711 
L 342.381141 -173.01789 
L 352.048859 -181.589151 
L 361.716577 -187.316882 
L 371.384295 -189.822473 
L 381.052013 -187.142343 
L 390.719731 -183.154438 
L 400.387449 -185.005708 
L 410.055167 -183.688576 
L 419.722885 -188.018885 
L 429.390603 -186.977899 
L 439.058321 -184.459917 
L 448.726039 -186.485623 
L 458.393757 -183.110742 
L 468.061475 -176.979293 
L 477.729193 -169.534827 
L 487.396911 -168.572933 
L 497.064629 -166.954345 
L 506.732347 -166.487116 
L 516.400065 -165.807098 
L 526.067783 -165.770067 
L 535.735501 -165.903199 
L 545.403219 -165.70022 
L 555.070937 -166.035619 
L 564.738655 -166.405983 
L 574.406373 -166.104337 
L 584.074091 -166.027225 
L 584.074091 -167.288777 
L 584.074091 -167.288777 
L 574.406373 -166.979518 
L 564.738655 -167.45925 
L 555.070937 -167.609961 
L 545.403219 -166.678414 
L 535.735501 -166.849729 
L 526.067783 -166.85929 
L 516.400065 -166.853887 
L 506.732347 -168.217731 
L 497.064629 -170.188773 
L 487.396911 -177.019297 
L 477.729193 -170.590069 
L 468.061475 -178.877579 
L 458.393757 -185.200576 
L 448.726039 -189.285135 
L 439.058321 -187.453762 
L 429.390603 -190.439579 
L 419.722885 -191.435093 
L 410.055167 -186.670453 
L 400.387449 -187.889771 
L 390.719731 -185.590069 
L 381.052013 -189.872173 
L 371.384295 -192.65805 
L 361.716577 -190.165495 
L 352.048859 -184.048583 
L 342.381141 -175.450882 
L 332.713423 -168.027618 
L 323.045705 -166.156266 
L 313.377987 -163.791358 
L 303.710269 -158.199035 
L 294.042551 -159.966717 
L 284.374833 -163.841237 
L 274.707115 -164.349261 
L 265.039397 -164.568543 
L 255.371679 -165.326245 
L 245.703961 -166.736112 
L 236.036243 -166.128755 
L 226.368525 -163.146719 
L 216.700807 -164.550806 
L 207.033089 -165.205678 
L 197.365371 -165.041508 
L 187.697653 -165.003439 
L 178.029935 -165.359502 
L 168.362217 -165.161207 
L 158.694499 -165.112692 
L 149.026781 -164.926095 
L 139.359063 -165.422325 
L 129.691345 -165.404602 
L 120.023627 -165.010418 
L 110.355909 -171.030618 
z
" style="stroke: #8b0a50; stroke-opacity: 0.1"/>
    </defs>
    <g clip-path="url(#p577b439e71)">
     <use xlink:href="#m00de2339b9" x="0" y="432" style="fill: #8b0a50; fill-opacity: 0.1; stroke: #8b0a50; stroke-opacity: 0.1"/>
    </g>
   </g>
   <g id="PathCollection_1">
    <defs>
     <path id="mb84ed81e70" d="M 0 -3 
L -0.673542 -0.927051 
L -2.85317 -0.927051 
L -1.089814 0.354102 
L -1.763356 2.427051 
L -0 1.145898 
L 1.763356 2.427051 
L 1.089814 0.354102 
L 2.85317 -0.927051 
L 0.673542 -0.927051 
z
" style="stroke: #8b0a50"/>
    </defs>
    <g clip-path="url(#p577b439e71)">
     <use xlink:href="#mb84ed81e70" x="187.697653" y="283.014628" style="fill: #8b0a50; stroke: #8b0a50"/>
     <use xlink:href="#mb84ed81e70" x="255.371679" y="283.014628" style="fill: #8b0a50; stroke: #8b0a50"/>
     <use xlink:href="#mb84ed81e70" x="265.039397" y="283.014628" style="fill: #8b0a50; stroke: #8b0a50"/>
     <use xlink:href="#mb84ed81e70" x="274.707115" y="283.014628" style="fill: #8b0a50; stroke: #8b0a50"/>
     <use xlink:href="#mb84ed81e70" x="284.374833" y="283.014628" style="fill: #8b0a50; stroke: #8b0a50"/>
     <use xlink:href="#mb84ed81e70" x="294.042551" y="283.014628" style="fill: #8b0a50; stroke: #8b0a50"/>
     <use xlink:href="#mb84ed81e70" x="303.710269" y="283.014628" style="fill: #8b0a50; stroke: #8b0a50"/>
     <use xlink:href="#mb84ed81e70" x="313.377987" y="283.014628" style="fill: #8b0a50; stroke: #8b0a50"/>
     <use xlink:href="#mb84ed81e70" x="323.045705" y="283.014628" style="fill: #8b0a50; stroke: #8b0a50"/>
     <use xlink:href="#mb84ed81e70" x="332.713423" y="283.014628" style="fill: #8b0a50; stroke: #8b0a50"/>
     <use xlink:href="#mb84ed81e70" x="342.381141" y="283.014628" style="fill: #8b0a50; stroke: #8b0a50"/>
     <use xlink:href="#mb84ed81e70" x="352.048859" y="283.014628" style="fill: #8b0a50; stroke: #8b0a50"/>
     <use xlink:href="#mb84ed81e70" x="361.716577" y="283.014628" style="fill: #8b0a50; stroke: #8b0a50"/>
     <use xlink:href="#mb84ed81e70" x="371.384295" y="283.014628" style="fill: #8b0a50; stroke: #8b0a50"/>
     <use xlink:href="#mb84ed81e70" x="381.052013" y="283.014628" style="fill: #8b0a50; stroke: #8b0a50"/>
     <use xlink:href="#mb84ed81e70" x="390.719731" y="283.014628" style="fill: #8b0a50; stroke: #8b0a50"/>
     <use xlink:href="#mb84ed81e70" x="400.387449" y="283.014628" style="fill: #8b0a50; stroke: #8b0a50"/>
     <use xlink:href="#mb84ed81e70" x="410.055167" y="283.014628" style="fill: #8b0a50; stroke: #8b0a50"/>
     <use xlink:href="#mb84ed81e70" x="419.722885" y="283.014628" style="fill: #8b0a50; stroke: #8b0a50"/>
     <use xlink:href="#mb84ed81e70" x="429.390603" y="283.014628" style="fill: #8b0a50; stroke: #8b0a50"/>
     <use xlink:href="#mb84ed81e70" x="439.058321" y="283.014628" style="fill: #8b0a50; stroke: #8b0a50"/>
     <use xlink:href="#mb84ed81e70" x="448.726039" y="283.014628" style="fill: #8b0a50; stroke: #8b0a50"/>
     <use xlink:href="#mb84ed81e70" x="458.393757" y="283.014628" style="fill: #8b0a50; stroke: #8b0a50"/>
     <use xlink:href="#mb84ed81e70" x="468.061475" y="283.014628" style="fill: #8b0a50; stroke: #8b0a50"/>
     <use xlink:href="#mb84ed81e70" x="477.729193" y="283.014628" style="fill: #8b0a50; stroke: #8b0a50"/>
    </g>
   </g>
   <g id="PolyCollection_3">
    <defs>
     <path id="mbbb3157757" d="M 110.355909 -164.042237 
L 110.355909 -124.857334 
L 120.023627 -95.474377 
L 129.691345 -69.755455 
L 139.359063 -85.101542 
L 149.026781 -112.806614 
L 158.694499 -125.949749 
L 168.362217 -131.726764 
L 178.029935 -136.568221 
L 187.697653 -149.441713 
L 197.365371 -165.154165 
L 207.033089 -170.061291 
L 216.700807 -170.53643 
L 226.368525 -161.583642 
L 236.036243 -156.280303 
L 245.703961 -156.49234 
L 255.371679 -157.171814 
L 265.039397 -158.907723 
L 274.707115 -159.275779 
L 284.374833 -159.905994 
L 294.042551 -165.553517 
L 303.710269 -175.29536 
L 313.377987 -183.403568 
L 323.045705 -188.340217 
L 332.713423 -198.371986 
L 342.381141 -210.784311 
L 352.048859 -225.157258 
L 361.716577 -241.39138 
L 371.384295 -250.734841 
L 381.052013 -253.504163 
L 390.719731 -254.092994 
L 400.387449 -257.722264 
L 410.055167 -262.379862 
L 419.722885 -265.162947 
L 429.390603 -271.832352 
L 439.058321 -278.462555 
L 448.726039 -284.445932 
L 458.393757 -288.800597 
L 468.061475 -292.006426 
L 477.729193 -292.950703 
L 487.396911 -289.128217 
L 497.064629 -284.234482 
L 506.732347 -281.138558 
L 516.400065 -277.364092 
L 526.067783 -270.753423 
L 535.735501 -267.259346 
L 545.403219 -264.195237 
L 555.070937 -256.334214 
L 564.738655 -251.205976 
L 574.406373 -243.688083 
L 584.074091 -239.791447 
L 584.074091 -272.402415 
L 584.074091 -272.402415 
L 574.406373 -277.412738 
L 564.738655 -286.776309 
L 555.070937 -292.11073 
L 545.403219 -300.993601 
L 535.735501 -304.595109 
L 526.067783 -309.114763 
L 516.400065 -316.950618 
L 506.732347 -320.965308 
L 497.064629 -324.814815 
L 487.396911 -331.284516 
L 477.729193 -336.937839 
L 468.061475 -337.536254 
L 458.393757 -334.343611 
L 448.726039 -327.898395 
L 439.058321 -319.11548 
L 429.390603 -310.307508 
L 419.722885 -301.767015 
L 410.055167 -297.312778 
L 400.387449 -290.310938 
L 390.719731 -284.920254 
L 381.052013 -283.971858 
L 371.384295 -281.13599 
L 361.716577 -269.432791 
L 352.048859 -249.002166 
L 342.381141 -229.729038 
L 332.713423 -213.19526 
L 323.045705 -200.750885 
L 313.377987 -194.038569 
L 303.710269 -184.675391 
L 294.042551 -174.390045 
L 284.374833 -168.488367 
L 274.707115 -167.741493 
L 265.039397 -167.510822 
L 255.371679 -168.310853 
L 245.703961 -172.696214 
L 236.036243 -176.528569 
L 226.368525 -183.574494 
L 216.700807 -192.852667 
L 207.033089 -190.852833 
L 197.365371 -185.301445 
L 187.697653 -172.450918 
L 178.029935 -165.150598 
L 168.362217 -163.195834 
L 158.694499 -167.131196 
L 149.026781 -162.516636 
L 139.359063 -137.423577 
L 129.691345 -126.69134 
L 120.023627 -149.346643 
L 110.355909 -164.042237 
z
" style="stroke: #eb6ab0; stroke-opacity: 0.1"/>
    </defs>
    <g clip-path="url(#p577b439e71)">
     <use xlink:href="#mbbb3157757" x="0" y="432" style="fill: #eb6ab0; fill-opacity: 0.1; stroke: #eb6ab0; stroke-opacity: 0.1"/>
    </g>
   </g>
   <g id="PolyCollection_4">
    <defs>
     <path id="ma5195e5d58" d="M 110.355909 -174.017887 
L 110.355909 -167.485036 
L 120.023627 -164.121293 
L 129.691345 -161.261841 
L 139.359063 -159.979978 
L 149.026781 -155.981532 
L 158.694499 -158.349937 
L 168.362217 -161.448248 
L 178.029935 -163.78209 
L 187.697653 -163.537554 
L 197.365371 -163.14215 
L 207.033089 -162.24812 
L 216.700807 -161.952431 
L 226.368525 -162.727151 
L 236.036243 -163.986689 
L 245.703961 -164.594976 
L 255.371679 -164.892516 
L 265.039397 -165.896262 
L 274.707115 -166.499312 
L 284.374833 -166.418065 
L 294.042551 -166.914662 
L 303.710269 -167.75808 
L 313.377987 -167.958918 
L 323.045705 -168.961396 
L 332.713423 -171.886382 
L 342.381141 -174.983665 
L 352.048859 -178.334762 
L 361.716577 -179.983813 
L 371.384295 -181.380598 
L 381.052013 -182.628644 
L 390.719731 -182.818169 
L 400.387449 -181.819226 
L 410.055167 -182.203861 
L 419.722885 -182.470745 
L 429.390603 -181.916541 
L 439.058321 -180.388541 
L 448.726039 -179.464928 
L 458.393757 -179.517813 
L 468.061475 -179.405953 
L 477.729193 -179.886946 
L 487.396911 -180.247434 
L 497.064629 -180.262637 
L 506.732347 -180.033306 
L 516.400065 -180.015375 
L 526.067783 -180.815342 
L 535.735501 -181.214639 
L 545.403219 -182.010195 
L 555.070937 -182.634892 
L 564.738655 -183.277722 
L 574.406373 -184.348905 
L 584.074091 -183.597188 
L 584.074091 -190.022682 
L 584.074091 -190.022682 
L 574.406373 -190.834735 
L 564.738655 -189.840178 
L 555.070937 -189.043154 
L 545.403219 -188.361308 
L 535.735501 -187.460409 
L 526.067783 -186.945779 
L 516.400065 -185.881474 
L 506.732347 -185.684294 
L 497.064629 -185.664501 
L 487.396911 -185.464685 
L 477.729193 -184.660674 
L 468.061475 -183.893525 
L 458.393757 -183.961469 
L 448.726039 -183.925687 
L 439.058321 -185.071122 
L 429.390603 -186.960044 
L 419.722885 -187.657594 
L 410.055167 -187.424654 
L 400.387449 -186.861479 
L 390.719731 -187.939157 
L 381.052013 -187.590654 
L 371.384295 -185.911432 
L 361.716577 -184.09207 
L 352.048859 -182.046832 
L 342.381141 -178.098025 
L 332.713423 -174.431366 
L 323.045705 -171.101861 
L 313.377987 -169.953987 
L 303.710269 -169.552653 
L 294.042551 -168.503959 
L 284.374833 -168.05734 
L 274.707115 -168.125039 
L 265.039397 -167.662565 
L 255.371679 -166.701696 
L 245.703961 -166.666419 
L 236.036243 -166.727113 
L 226.368525 -165.894165 
L 216.700807 -165.534093 
L 207.033089 -166.050668 
L 197.365371 -167.166124 
L 187.697653 -168.028935 
L 178.029935 -168.446901 
L 168.362217 -166.451866 
L 158.694499 -164.043633 
L 149.026781 -162.954511 
L 139.359063 -167.109156 
L 129.691345 -168.60297 
L 120.023627 -171.989263 
L 110.355909 -174.017887 
z
" style="stroke: #eb6ab0; stroke-opacity: 0.1"/>
    </defs>
    <g clip-path="url(#p577b439e71)">
     <use xlink:href="#ma5195e5d58" x="0" y="432" style="fill: #eb6ab0; fill-opacity: 0.1; stroke: #eb6ab0; stroke-opacity: 0.1"/>
    </g>
   </g>
   <g id="PathCollection_2">
    <defs>
     <path id="mcaf413fb3e" d="M 0 -3 
L -0.673542 -0.927051 
L -2.85317 -0.927051 
L -1.089814 0.354102 
L -1.763356 2.427051 
L -0 1.145898 
L 1.763356 2.427051 
L 1.089814 0.354102 
L 2.85317 -0.927051 
L 0.673542 -0.927051 
z
" style="stroke: #eb6ab0"/>
    </defs>
    <g clip-path="url(#p577b439e71)">
     <use xlink:href="#mcaf413fb3e" x="303.710269" y="298.919186" style="fill: #eb6ab0; stroke: #eb6ab0"/>
     <use xlink:href="#mcaf413fb3e" x="313.377987" y="298.919186" style="fill: #eb6ab0; stroke: #eb6ab0"/>
     <use xlink:href="#mcaf413fb3e" x="323.045705" y="298.919186" style="fill: #eb6ab0; stroke: #eb6ab0"/>
     <use xlink:href="#mcaf413fb3e" x="332.713423" y="298.919186" style="fill: #eb6ab0; stroke: #eb6ab0"/>
     <use xlink:href="#mcaf413fb3e" x="342.381141" y="298.919186" style="fill: #eb6ab0; stroke: #eb6ab0"/>
     <use xlink:href="#mcaf413fb3e" x="352.048859" y="298.919186" style="fill: #eb6ab0; stroke: #eb6ab0"/>
     <use xlink:href="#mcaf413fb3e" x="361.716577" y="298.919186" style="fill: #eb6ab0; stroke: #eb6ab0"/>
     <use xlink:href="#mcaf413fb3e" x="371.384295" y="298.919186" style="fill: #eb6ab0; stroke: #eb6ab0"/>
     <use xlink:href="#mcaf413fb3e" x="381.052013" y="298.919186" style="fill: #eb6ab0; stroke: #eb6ab0"/>
     <use xlink:href="#mcaf413fb3e" x="390.719731" y="298.919186" style="fill: #eb6ab0; stroke: #eb6ab0"/>
     <use xlink:href="#mcaf413fb3e" x="400.387449" y="298.919186" style="fill: #eb6ab0; stroke: #eb6ab0"/>
     <use xlink:href="#mcaf413fb3e" x="410.055167" y="298.919186" style="fill: #eb6ab0; stroke: #eb6ab0"/>
     <use xlink:href="#mcaf413fb3e" x="419.722885" y="298.919186" style="fill: #eb6ab0; stroke: #eb6ab0"/>
     <use xlink:href="#mcaf413fb3e" x="429.390603" y="298.919186" style="fill: #eb6ab0; stroke: #eb6ab0"/>
     <use xlink:href="#mcaf413fb3e" x="439.058321" y="298.919186" style="fill: #eb6ab0; stroke: #eb6ab0"/>
     <use xlink:href="#mcaf413fb3e" x="448.726039" y="298.919186" style="fill: #eb6ab0; stroke: #eb6ab0"/>
     <use xlink:href="#mcaf413fb3e" x="458.393757" y="298.919186" style="fill: #eb6ab0; stroke: #eb6ab0"/>
     <use xlink:href="#mcaf413fb3e" x="468.061475" y="298.919186" style="fill: #eb6ab0; stroke: #eb6ab0"/>
     <use xlink:href="#mcaf413fb3e" x="477.729193" y="298.919186" style="fill: #eb6ab0; stroke: #eb6ab0"/>
     <use xlink:href="#mcaf413fb3e" x="487.396911" y="298.919186" style="fill: #eb6ab0; stroke: #eb6ab0"/>
     <use xlink:href="#mcaf413fb3e" x="497.064629" y="298.919186" style="fill: #eb6ab0; stroke: #eb6ab0"/>
     <use xlink:href="#mcaf413fb3e" x="506.732347" y="298.919186" style="fill: #eb6ab0; stroke: #eb6ab0"/>
     <use xlink:href="#mcaf413fb3e" x="516.400065" y="298.919186" style="fill: #eb6ab0; stroke: #eb6ab0"/>
     <use xlink:href="#mcaf413fb3e" x="526.067783" y="298.919186" style="fill: #eb6ab0; stroke: #eb6ab0"/>
     <use xlink:href="#mcaf413fb3e" x="535.735501" y="298.919186" style="fill: #eb6ab0; stroke: #eb6ab0"/>
     <use xlink:href="#mcaf413fb3e" x="545.403219" y="298.919186" style="fill: #eb6ab0; stroke: #eb6ab0"/>
     <use xlink:href="#mcaf413fb3e" x="555.070937" y="298.919186" style="fill: #eb6ab0; stroke: #eb6ab0"/>
     <use xlink:href="#mcaf413fb3e" x="564.738655" y="298.919186" style="fill: #eb6ab0; stroke: #eb6ab0"/>
     <use xlink:href="#mcaf413fb3e" x="574.406373" y="298.919186" style="fill: #eb6ab0; stroke: #eb6ab0"/>
     <use xlink:href="#mcaf413fb3e" x="584.074091" y="298.919186" style="fill: #eb6ab0; stroke: #eb6ab0"/>
    </g>
   </g>
   <g id="line2d_1">
    <path d="M 110.355909 268.190536 
L 120.023627 272.544587 
L 129.691345 268.343468 
L 139.359063 270.015397 
L 149.026781 269.530157 
L 158.694499 268.381376 
L 168.362217 266.240177 
L 178.029935 266.719966 
L 187.697653 263.106391 
L 197.365371 265.417723 
L 207.033089 266.304797 
L 216.700807 269.791559 
L 226.368525 281.747291 
L 236.036243 283.460131 
L 245.703961 275.546793 
L 255.371679 248.888531 
L 265.039397 247.46385 
L 274.707115 249.302466 
L 284.374833 235.004113 
L 294.042551 235.049689 
L 303.710269 244.791266 
L 313.377987 209.712464 
L 323.045705 154.797086 
L 332.713423 103.156585 
L 342.381141 80.905364 
L 352.048859 73.663683 
L 361.716577 97.782941 
L 371.384295 167.762273 
L 381.052013 199.611285 
L 390.719731 162.995786 
L 400.387449 143.427319 
L 410.055167 141.065486 
L 419.722885 144.827179 
L 429.390603 108.753616 
L 439.058321 58.541858 
L 448.726039 94.35617 
L 458.393757 130.372244 
L 468.061475 167.968144 
L 477.729193 237.128877 
L 487.396911 254.849021 
L 497.064629 260.981624 
L 506.732347 254.801385 
L 516.400065 263.476307 
L 526.067783 265.306089 
L 535.735501 267.967255 
L 545.403219 266.740661 
L 555.070937 261.746456 
L 564.738655 268.191329 
L 574.406373 266.745147 
L 584.074091 268.541219 
" clip-path="url(#p577b439e71)" style="fill: none; stroke: #8b0a50; stroke-width: 2; stroke-linecap: round"/>
   </g>
   <g id="line2d_2">
    <path d="M 110.355909 263.08226 
L 120.023627 267.238331 
L 129.691345 266.9233 
L 139.359063 266.799787 
L 149.026781 267.29104 
L 158.694499 267.14988 
L 168.362217 267.068273 
L 178.029935 266.884853 
L 187.697653 267.210316 
L 197.365371 267.286152 
L 207.033089 267.23737 
L 216.700807 267.874541 
L 226.368525 269.78559 
L 236.036243 266.72377 
L 245.703961 266.222426 
L 255.371679 267.649569 
L 265.039397 268.313362 
L 274.707115 268.824025 
L 284.374833 269.171763 
L 294.042551 273.196578 
L 303.710269 275.251316 
L 313.377987 269.526107 
L 323.045705 267.049544 
L 332.713423 265.248836 
L 342.381141 257.765614 
L 352.048859 249.181133 
L 361.716577 243.258812 
L 371.384295 240.759739 
L 381.052013 243.492742 
L 390.719731 247.627747 
L 400.387449 245.55226 
L 410.055167 246.820486 
L 419.722885 242.273011 
L 429.390603 243.291261 
L 439.058321 246.04316 
L 448.726039 244.114621 
L 458.393757 247.844341 
L 468.061475 254.071564 
L 477.729193 261.937552 
L 487.396911 259.203885 
L 497.064629 263.428441 
L 506.732347 264.647577 
L 516.400065 265.669507 
L 526.067783 265.685321 
L 535.735501 265.623536 
L 545.403219 265.810683 
L 555.070937 265.17721 
L 564.738655 265.067384 
L 574.406373 265.458073 
L 584.074091 265.341999 
" clip-path="url(#p577b439e71)" style="fill: none; stroke-dasharray: 7.4,3.2; stroke-dashoffset: 0; stroke: #8b0a50; stroke-width: 2"/>
   </g>
   <g id="line2d_3">
    <path d="M 221.534666 378.18 
L 221.534666 27.6 
" clip-path="url(#p577b439e71)" style="fill: none; stroke-dasharray: 5.55,2.4; stroke-dashoffset: 0; stroke: #1a1a1a; stroke-width: 1.5"/>
   </g>
   <g id="line2d_4">
    <path d="M 463.227616 378.18 
L 463.227616 27.6 
" clip-path="url(#p577b439e71)" style="fill: none; stroke-dasharray: 5.55,2.4; stroke-dashoffset: 0; stroke: #1a1a1a; stroke-width: 1.5"/>
   </g>
   <g id="line2d_5">
    <path d="M 110.355909 287.550214 
L 120.023627 309.58949 
L 129.691345 333.776602 
L 139.359063 320.737441 
L 149.026781 294.338375 
L 158.694499 285.459528 
L 168.362217 284.538701 
L 178.029935 281.140591 
L 187.697653 271.053684 
L 197.365371 256.772195 
L 207.033089 251.542938 
L 216.700807 250.305452 
L 226.368525 259.420932 
L 236.036243 265.595564 
L 245.703961 267.405723 
L 255.371679 269.258666 
L 265.039397 268.790727 
L 274.707115 268.491364 
L 284.374833 267.80282 
L 294.042551 262.028219 
L 303.710269 252.014625 
L 313.377987 243.278932 
L 323.045705 237.454449 
L 332.713423 226.216377 
L 342.381141 211.743325 
L 352.048859 194.920288 
L 361.716577 176.587915 
L 371.384295 166.064585 
L 381.052013 163.26199 
L 390.719731 162.493376 
L 400.387449 157.983399 
L 410.055167 152.15368 
L 419.722885 148.535019 
L 429.390603 140.93007 
L 439.058321 133.210983 
L 448.726039 125.827836 
L 458.393757 120.427896 
L 468.061475 117.22866 
L 477.729193 117.055729 
L 487.396911 121.793634 
L 497.064629 127.475351 
L 506.732347 130.948067 
L 516.400065 134.842645 
L 526.067783 142.065907 
L 535.735501 146.072772 
L 545.403219 149.405581 
L 555.070937 157.777528 
L 564.738655 163.008858 
L 574.406373 171.449589 
L 584.074091 175.903069 
" clip-path="url(#p577b439e71)" style="fill: none; stroke: #eb6ab0; stroke-width: 2; stroke-linecap: round"/>
   </g>
   <g id="line2d_6">
    <path d="M 110.355909 261.248539 
L 120.023627 263.944722 
L 129.691345 267.067595 
L 139.359063 268.455433 
L 149.026781 272.531978 
L 158.694499 270.803215 
L 168.362217 268.049943 
L 178.029935 265.885505 
L 187.697653 266.216756 
L 197.365371 266.845863 
L 207.033089 267.850606 
L 216.700807 268.256738 
L 226.368525 267.689342 
L 236.036243 266.643099 
L 245.703961 266.369302 
L 255.371679 266.202894 
L 265.039397 265.220586 
L 274.707115 264.687824 
L 284.374833 264.762297 
L 294.042551 264.29069 
L 303.710269 263.344633 
L 313.377987 263.043547 
L 323.045705 261.968371 
L 332.713423 258.841126 
L 342.381141 255.459155 
L 352.048859 251.809203 
L 361.716577 249.962059 
L 371.384295 248.353985 
L 381.052013 246.890351 
L 390.719731 246.621337 
L 400.387449 247.659648 
L 410.055167 247.185743 
L 419.722885 246.935831 
L 429.390603 247.561708 
L 439.058321 249.270169 
L 448.726039 250.304692 
L 458.393757 250.260359 
L 468.061475 250.350261 
L 477.729193 249.72619 
L 487.396911 249.143941 
L 497.064629 249.036431 
L 506.732347 249.1412 
L 516.400065 249.051576 
L 526.067783 248.11944 
L 535.735501 247.662476 
L 545.403219 246.814248 
L 555.070937 246.160977 
L 564.738655 245.44105 
L 574.406373 244.40818 
L 584.074091 245.190065 
" clip-path="url(#p577b439e71)" style="fill: none; stroke-dasharray: 7.4,3.2; stroke-dashoffset: 0; stroke: #eb6ab0; stroke-width: 2"/>
   </g>
   <g id="line2d_7">
    <path d="M 221.534666 378.18 
L 221.534666 27.6 
" clip-path="url(#p577b439e71)" style="fill: none; stroke-dasharray: 5.55,2.4; stroke-dashoffset: 0; stroke: #1a1a1a; stroke-width: 1.5"/>
   </g>
   <g id="line2d_8">
    <path d="M 463.227616 378.18 
L 463.227616 27.6 
" clip-path="url(#p577b439e71)" style="fill: none; stroke-dasharray: 5.55,2.4; stroke-dashoffset: 0; stroke: #1a1a1a; stroke-width: 1.5"/>
   </g>
   <g id="patch_3">
    <path d="M 86.67 378.18 
L 86.67 27.6 
" style="fill: none; stroke: #cccccc; stroke-width: 1.5; stroke-linejoin: miter; stroke-linecap: square"/>
   </g>
   <g id="patch_4">
    <path d="M 86.67 378.18 
L 607.76 378.18 
" style="fill: none; stroke: #cccccc; stroke-width: 1.5; stroke-linejoin: miter; stroke-linecap: square"/>
   </g>
   <g id="text_21">
    <!-- Divergence Comparison: Original vs Shuffled -->
    <g style="fill: #262626" transform="translate(197.7025 21.6) scale(0.15 -0.15)">
     <defs>
      <path id="ArialMT-43" d="M 3763 1606 
L 4369 1453 
Q 4178 706 3683 314 
Q 3188 -78 2472 -78 
Q 1731 -78 1267 223 
Q 803 525 561 1097 
Q 319 1669 319 2325 
Q 319 3041 592 3573 
Q 866 4106 1370 4382 
Q 1875 4659 2481 4659 
Q 3169 4659 3637 4309 
Q 4106 3959 4291 3325 
L 3694 3184 
Q 3534 3684 3231 3912 
Q 2928 4141 2469 4141 
Q 1941 4141 1586 3887 
Q 1231 3634 1087 3207 
Q 944 2781 944 2328 
Q 944 1744 1114 1308 
Q 1284 872 1643 656 
Q 2003 441 2422 441 
Q 2931 441 3284 734 
Q 3638 1028 3763 1606 
z
" transform="scale(0.015625)"/>
      <path id="ArialMT-6f" d="M 213 1659 
Q 213 2581 725 3025 
Q 1153 3394 1769 3394 
Q 2453 3394 2887 2945 
Q 3322 2497 3322 1706 
Q 3322 1066 3130 698 
Q 2938 331 2570 128 
Q 2203 -75 1769 -75 
Q 1072 -75 642 372 
Q 213 819 213 1659 
z
M 791 1659 
Q 791 1022 1069 705 
Q 1347 388 1769 388 
Q 2188 388 2466 706 
Q 2744 1025 2744 1678 
Q 2744 2294 2464 2611 
Q 2184 2928 1769 2928 
Q 1347 2928 1069 2612 
Q 791 2297 791 1659 
z
" transform="scale(0.015625)"/>
      <path id="ArialMT-70" d="M 422 -1272 
L 422 3319 
L 934 3319 
L 934 2888 
Q 1116 3141 1344 3267 
Q 1572 3394 1897 3394 
Q 2322 3394 2647 3175 
Q 2972 2956 3137 2557 
Q 3303 2159 3303 1684 
Q 3303 1175 3120 767 
Q 2938 359 2589 142 
Q 2241 -75 1856 -75 
Q 1575 -75 1351 44 
Q 1128 163 984 344 
L 984 -1272 
L 422 -1272 
z
M 931 1641 
Q 931 1000 1190 694 
Q 1450 388 1819 388 
Q 2194 388 2461 705 
Q 2728 1022 2728 1688 
Q 2728 2322 2467 2637 
Q 2206 2953 1844 2953 
Q 1484 2953 1207 2617 
Q 931 2281 931 1641 
z
" transform="scale(0.015625)"/>
      <path id="ArialMT-61" d="M 2588 409 
Q 2275 144 1986 34 
Q 1697 -75 1366 -75 
Q 819 -75 525 192 
Q 231 459 231 875 
Q 231 1119 342 1320 
Q 453 1522 633 1644 
Q 813 1766 1038 1828 
Q 1203 1872 1538 1913 
Q 2219 1994 2541 2106 
Q 2544 2222 2544 2253 
Q 2544 2597 2384 2738 
Q 2169 2928 1744 2928 
Q 1347 2928 1158 2789 
Q 969 2650 878 2297 
L 328 2372 
Q 403 2725 575 2942 
Q 747 3159 1072 3276 
Q 1397 3394 1825 3394 
Q 2250 3394 2515 3294 
Q 2781 3194 2906 3042 
Q 3031 2891 3081 2659 
Q 3109 2516 3109 2141 
L 3109 1391 
Q 3109 606 3145 398 
Q 3181 191 3288 0 
L 2700 0 
Q 2613 175 2588 409 
z
M 2541 1666 
Q 2234 1541 1622 1453 
Q 1275 1403 1131 1340 
Q 988 1278 909 1158 
Q 831 1038 831 891 
Q 831 666 1001 516 
Q 1172 366 1500 366 
Q 1825 366 2078 508 
Q 2331 650 2450 897 
Q 2541 1088 2541 1459 
L 2541 1666 
z
" transform="scale(0.015625)"/>
      <path id="ArialMT-3a" d="M 578 2678 
L 578 3319 
L 1219 3319 
L 1219 2678 
L 578 2678 
z
M 578 0 
L 578 641 
L 1219 641 
L 1219 0 
L 578 0 
z
" transform="scale(0.015625)"/>
      <path id="ArialMT-4f" d="M 309 2231 
Q 309 3372 921 4017 
Q 1534 4663 2503 4663 
Q 3138 4663 3647 4359 
Q 4156 4056 4423 3514 
Q 4691 2972 4691 2284 
Q 4691 1588 4409 1038 
Q 4128 488 3612 205 
Q 3097 -78 2500 -78 
Q 1853 -78 1343 234 
Q 834 547 571 1087 
Q 309 1628 309 2231 
z
M 934 2222 
Q 934 1394 1379 917 
Q 1825 441 2497 441 
Q 3181 441 3623 922 
Q 4066 1403 4066 2288 
Q 4066 2847 3877 3264 
Q 3688 3681 3323 3911 
Q 2959 4141 2506 4141 
Q 1863 4141 1398 3698 
Q 934 3256 934 2222 
z
" transform="scale(0.015625)"/>
      <path id="ArialMT-6c" d="M 409 0 
L 409 4581 
L 972 4581 
L 972 0 
L 409 0 
z
" transform="scale(0.015625)"/>
      <path id="ArialMT-53" d="M 288 1472 
L 859 1522 
Q 900 1178 1048 958 
Q 1197 738 1509 602 
Q 1822 466 2213 466 
Q 2559 466 2825 569 
Q 3091 672 3220 851 
Q 3350 1031 3350 1244 
Q 3350 1459 3225 1620 
Q 3100 1781 2813 1891 
Q 2628 1963 1997 2114 
Q 1366 2266 1113 2400 
Q 784 2572 623 2826 
Q 463 3081 463 3397 
Q 463 3744 659 4045 
Q 856 4347 1234 4503 
Q 1613 4659 2075 4659 
Q 2584 4659 2973 4495 
Q 3363 4331 3572 4012 
Q 3781 3694 3797 3291 
L 3216 3247 
Q 3169 3681 2898 3903 
Q 2628 4125 2100 4125 
Q 1550 4125 1298 3923 
Q 1047 3722 1047 3438 
Q 1047 3191 1225 3031 
Q 1400 2872 2139 2705 
Q 2878 2538 3153 2413 
Q 3553 2228 3743 1945 
Q 3934 1663 3934 1294 
Q 3934 928 3725 604 
Q 3516 281 3123 101 
Q 2731 -78 2241 -78 
Q 1619 -78 1198 103 
Q 778 284 539 648 
Q 300 1013 288 1472 
z
" transform="scale(0.015625)"/>
      <path id="ArialMT-68" d="M 422 0 
L 422 4581 
L 984 4581 
L 984 2938 
Q 1378 3394 1978 3394 
Q 2347 3394 2619 3248 
Q 2891 3103 3008 2847 
Q 3125 2591 3125 2103 
L 3125 0 
L 2563 0 
L 2563 2103 
Q 2563 2525 2380 2717 
Q 2197 2909 1863 2909 
Q 1613 2909 1392 2779 
Q 1172 2650 1078 2428 
Q 984 2206 984 1816 
L 984 0 
L 422 0 
z
" transform="scale(0.015625)"/>
      <path id="ArialMT-75" d="M 2597 0 
L 2597 488 
Q 2209 -75 1544 -75 
Q 1250 -75 995 37 
Q 741 150 617 320 
Q 494 491 444 738 
Q 409 903 409 1263 
L 409 3319 
L 972 3319 
L 972 1478 
Q 972 1038 1006 884 
Q 1059 663 1231 536 
Q 1403 409 1656 409 
Q 1909 409 2131 539 
Q 2353 669 2445 892 
Q 2538 1116 2538 1541 
L 2538 3319 
L 3100 3319 
L 3100 0 
L 2597 0 
z
" transform="scale(0.015625)"/>
      <path id="ArialMT-66" d="M 556 0 
L 556 2881 
L 59 2881 
L 59 3319 
L 556 3319 
L 556 3672 
Q 556 4006 616 4169 
Q 697 4388 901 4523 
Q 1106 4659 1475 4659 
Q 1713 4659 2000 4603 
L 1916 4113 
Q 1741 4144 1584 4144 
Q 1328 4144 1222 4034 
Q 1116 3925 1116 3625 
L 1116 3319 
L 1763 3319 
L 1763 2881 
L 1116 2881 
L 1116 0 
L 556 0 
z
" transform="scale(0.015625)"/>
      <path id="ArialMT-64" d="M 2575 0 
L 2575 419 
Q 2259 -75 1647 -75 
Q 1250 -75 917 144 
Q 584 363 401 755 
Q 219 1147 219 1656 
Q 219 2153 384 2558 
Q 550 2963 881 3178 
Q 1213 3394 1622 3394 
Q 1922 3394 2156 3267 
Q 2391 3141 2538 2938 
L 2538 4581 
L 3097 4581 
L 3097 0 
L 2575 0 
z
M 797 1656 
Q 797 1019 1065 703 
Q 1334 388 1700 388 
Q 2069 388 2326 689 
Q 2584 991 2584 1609 
Q 2584 2291 2321 2609 
Q 2059 2928 1675 2928 
Q 1300 2928 1048 2622 
Q 797 2316 797 1656 
z
" transform="scale(0.015625)"/>
     </defs>
     <use xlink:href="#ArialMT-44"/>
     <use xlink:href="#ArialMT-69" x="72.216797"/>
     <use xlink:href="#ArialMT-76" x="94.433594"/>
     <use xlink:href="#ArialMT-65" x="144.433594"/>
     <use xlink:href="#ArialMT-72" x="200.048828"/>
     <use xlink:href="#ArialMT-67" x="233.349609"/>
     <use xlink:href="#ArialMT-65" x="288.964844"/>
     <use xlink:href="#ArialMT-6e" x="344.580078"/>
     <use xlink:href="#ArialMT-63" x="400.195312"/>
     <use xlink:href="#ArialMT-65" x="450.195312"/>
     <use xlink:href="#ArialMT-20" x="505.810547"/>
     <use xlink:href="#ArialMT-43" x="533.59375"/>
     <use xlink:href="#ArialMT-6f" x="605.810547"/>
     <use xlink:href="#ArialMT-6d" x="661.425781"/>
     <use xlink:href="#ArialMT-70" x="744.726562"/>
     <use xlink:href="#ArialMT-61" x="800.341797"/>
     <use xlink:href="#ArialMT-72" x="855.957031"/>
     <use xlink:href="#ArialMT-69" x="889.257812"/>
     <use xlink:href="#ArialMT-73" x="911.474609"/>
     <use xlink:href="#ArialMT-6f" x="961.474609"/>
     <use xlink:href="#ArialMT-6e" x="1017.089844"/>
     <use xlink:href="#ArialMT-3a" x="1072.705078"/>
     <use xlink:href="#ArialMT-20" x="1100.488281"/>
     <use xlink:href="#ArialMT-4f" x="1128.271484"/>
     <use xlink:href="#ArialMT-72" x="1206.054688"/>
     <use xlink:href="#ArialMT-69" x="1239.355469"/>
     <use xlink:href="#ArialMT-67" x="1261.572266"/>
     <use xlink:href="#ArialMT-69" x="1317.1875"/>
     <use xlink:href="#ArialMT-6e" x="1339.404297"/>
     <use xlink:href="#ArialMT-61" x="1395.019531"/>
     <use xlink:href="#ArialMT-6c" x="1450.634766"/>
     <use xlink:href="#ArialMT-20" x="1472.851562"/>
     <use xlink:href="#ArialMT-76" x="1500.634766"/>
     <use xlink:href="#ArialMT-73" x="1550.634766"/>
     <use xlink:href="#ArialMT-20" x="1600.634766"/>
     <use xlink:href="#ArialMT-53" x="1628.417969"/>
     <use xlink:href="#ArialMT-68" x="1695.117188"/>
     <use xlink:href="#ArialMT-75" x="1750.732422"/>
     <use xlink:href="#ArialMT-66" x="1806.347656"/>
     <use xlink:href="#ArialMT-66" x="1832.380859"/>
     <use xlink:href="#ArialMT-6c" x="1860.164062"/>
     <use xlink:href="#ArialMT-65" x="1882.380859"/>
     <use xlink:href="#ArialMT-64" x="1937.996094"/>
    </g>
   </g>
   <g id="legend_1">
    <g id="patch_5">
     <path d="M 615.46 259.555469 
L 705.061875 259.555469 
Q 707.261875 259.555469 707.261875 257.355469 
L 707.261875 148.424531 
Q 707.261875 146.224531 705.061875 146.224531 
L 615.46 146.224531 
Q 613.26 146.224531 613.26 148.424531 
L 613.26 257.355469 
Q 613.26 259.555469 615.46 259.555469 
z
" style="fill: #ffffff; opacity: 0.8; stroke: #cccccc; stroke-linejoin: miter"/>
    </g>
    <g id="line2d_9">
     <path d="M 617.66 154.789062 
L 628.66 154.789062 
L 639.66 154.789062 
" style="fill: none; stroke: #8b0a50; stroke-width: 2; stroke-linecap: round"/>
    </g>
    <g id="text_22">
     <!-- Original -->
     <g style="fill: #262626" transform="translate(648.46 158.639062) scale(0.11 -0.11)">
      <use xlink:href="#ArialMT-4f"/>
      <use xlink:href="#ArialMT-72" x="77.783203"/>
      <use xlink:href="#ArialMT-69" x="111.083984"/>
      <use xlink:href="#ArialMT-67" x="133.300781"/>
      <use xlink:href="#ArialMT-69" x="188.916016"/>
      <use xlink:href="#ArialMT-6e" x="211.132812"/>
      <use xlink:href="#ArialMT-61" x="266.748047"/>
      <use xlink:href="#ArialMT-6c" x="322.363281"/>
     </g>
    </g>
    <g id="line2d_10">
     <path d="M 617.66 170.61875 
L 628.66 170.61875 
L 639.66 170.61875 
" style="fill: none; stroke-dasharray: 7.4,3.2; stroke-dashoffset: 0; stroke: #8b0a50; stroke-width: 2"/>
    </g>
    <g id="text_23">
     <!-- Original -->
     <g style="fill: #262626" transform="translate(648.46 174.46875) scale(0.11 -0.11)">
      <use xlink:href="#ArialMT-4f"/>
      <use xlink:href="#ArialMT-72" x="77.783203"/>
      <use xlink:href="#ArialMT-69" x="111.083984"/>
      <use xlink:href="#ArialMT-67" x="133.300781"/>
      <use xlink:href="#ArialMT-69" x="188.916016"/>
      <use xlink:href="#ArialMT-6e" x="211.132812"/>
      <use xlink:href="#ArialMT-61" x="266.748047"/>
      <use xlink:href="#ArialMT-6c" x="322.363281"/>
     </g>
    </g>
    <g id="PathCollection_3">
     <g>
      <use xlink:href="#mb84ed81e70" x="628.66" y="187.302656" style="fill: #8b0a50; stroke: #8b0a50"/>
     </g>
    </g>
    <g id="text_24">
     <!-- p &lt; 0.001 -->
     <g style="fill: #262626" transform="translate(648.46 190.190156) scale(0.11 -0.11)">
      <defs>
       <path id="ArialMT-3c" d="M 350 2003 
L 350 2528 
L 3384 3809 
L 3384 3250 
L 978 2263 
L 3384 1266 
L 3384 706 
L 350 2003 
z
" transform="scale(0.015625)"/>
      </defs>
      <use xlink:href="#ArialMT-70"/>
      <use xlink:href="#ArialMT-20" x="55.615234"/>
      <use xlink:href="#ArialMT-3c" x="83.398438"/>
      <use xlink:href="#ArialMT-20" x="141.796875"/>
      <use xlink:href="#ArialMT-30" x="169.580078"/>
      <use xlink:href="#ArialMT-2e" x="225.195312"/>
      <use xlink:href="#ArialMT-30" x="252.978516"/>
      <use xlink:href="#ArialMT-30" x="308.59375"/>
      <use xlink:href="#ArialMT-31" x="364.208984"/>
     </g>
    </g>
    <g id="line2d_11">
     <path d="M 617.66 201.9 
L 628.66 201.9 
L 639.66 201.9 
" style="fill: none; stroke-dasharray: 5.55,2.4; stroke-dashoffset: 0; stroke: #1a1a1a; stroke-width: 1.5"/>
    </g>
    <g id="text_25">
     <!-- Stim Onset -->
     <g style="fill: #262626" transform="translate(648.46 205.75) scale(0.11 -0.11)">
      <defs>
       <path id="ArialMT-74" d="M 1650 503 
L 1731 6 
Q 1494 -44 1306 -44 
Q 1000 -44 831 53 
Q 663 150 594 308 
Q 525 466 525 972 
L 525 2881 
L 113 2881 
L 113 3319 
L 525 3319 
L 525 4141 
L 1084 4478 
L 1084 3319 
L 1650 3319 
L 1650 2881 
L 1084 2881 
L 1084 941 
Q 1084 700 1114 631 
Q 1144 563 1211 522 
Q 1278 481 1403 481 
Q 1497 481 1650 503 
z
" transform="scale(0.015625)"/>
      </defs>
      <use xlink:href="#ArialMT-53"/>
      <use xlink:href="#ArialMT-74" x="66.699219"/>
      <use xlink:href="#ArialMT-69" x="94.482422"/>
      <use xlink:href="#ArialMT-6d" x="116.699219"/>
      <use xlink:href="#ArialMT-20" x="200"/>
      <use xlink:href="#ArialMT-4f" x="227.783203"/>
      <use xlink:href="#ArialMT-6e" x="305.566406"/>
      <use xlink:href="#ArialMT-73" x="361.181641"/>
      <use xlink:href="#ArialMT-65" x="411.181641"/>
      <use xlink:href="#ArialMT-74" x="466.796875"/>
     </g>
    </g>
    <g id="line2d_12">
     <path d="M 617.66 217.459844 
L 628.66 217.459844 
L 639.66 217.459844 
" style="fill: none; stroke-dasharray: 5.55,2.4; stroke-dashoffset: 0; stroke: #1a1a1a; stroke-width: 1.5"/>
    </g>
    <g id="text_26">
     <!-- Stim End -->
     <g style="fill: #262626" transform="translate(648.46 221.309844) scale(0.11 -0.11)">
      <defs>
       <path id="ArialMT-45" d="M 506 0 
L 506 4581 
L 3819 4581 
L 3819 4041 
L 1113 4041 
L 1113 2638 
L 3647 2638 
L 3647 2100 
L 1113 2100 
L 1113 541 
L 3925 541 
L 3925 0 
L 506 0 
z
" transform="scale(0.015625)"/>
      </defs>
      <use xlink:href="#ArialMT-53"/>
      <use xlink:href="#ArialMT-74" x="66.699219"/>
      <use xlink:href="#ArialMT-69" x="94.482422"/>
      <use xlink:href="#ArialMT-6d" x="116.699219"/>
      <use xlink:href="#ArialMT-20" x="200"/>
      <use xlink:href="#ArialMT-45" x="227.783203"/>
      <use xlink:href="#ArialMT-6e" x="294.482422"/>
      <use xlink:href="#ArialMT-64" x="350.097656"/>
     </g>
    </g>
    <g id="line2d_13">
     <path d="M 617.66 233.160625 
L 628.66 233.160625 
L 639.66 233.160625 
" style="fill: none; stroke: #eb6ab0; stroke-width: 2; stroke-linecap: round"/>
    </g>
    <g id="text_27">
     <!-- Original -->
     <g style="fill: #262626" transform="translate(648.46 237.010625) scale(0.11 -0.11)">
      <use xlink:href="#ArialMT-4f"/>
      <use xlink:href="#ArialMT-72" x="77.783203"/>
      <use xlink:href="#ArialMT-69" x="111.083984"/>
      <use xlink:href="#ArialMT-67" x="133.300781"/>
      <use xlink:href="#ArialMT-69" x="188.916016"/>
      <use xlink:href="#ArialMT-6e" x="211.132812"/>
      <use xlink:href="#ArialMT-61" x="266.748047"/>
      <use xlink:href="#ArialMT-6c" x="322.363281"/>
     </g>
    </g>
    <g id="line2d_14">
     <path d="M 617.66 248.990312 
L 628.66 248.990312 
L 639.66 248.990312 
" style="fill: none; stroke-dasharray: 7.4,3.2; stroke-dashoffset: 0; stroke: #eb6ab0; stroke-width: 2"/>
    </g>
    <g id="text_28">
     <!-- Original -->
     <g style="fill: #262626" transform="translate(648.46 252.840312) scale(0.11 -0.11)">
      <use xlink:href="#ArialMT-4f"/>
      <use xlink:href="#ArialMT-72" x="77.783203"/>
      <use xlink:href="#ArialMT-69" x="111.083984"/>
      <use xlink:href="#ArialMT-67" x="133.300781"/>
      <use xlink:href="#ArialMT-69" x="188.916016"/>
      <use xlink:href="#ArialMT-6e" x="211.132812"/>
      <use xlink:href="#ArialMT-61" x="266.748047"/>
      <use xlink:href="#ArialMT-6c" x="322.363281"/>
     </g>
    </g>
   </g>
  </g>
 </g>
 <defs>
  <clipPath id="p577b439e71">
   <rect x="86.67" y="27.6" width="521.09" height="350.58"/>
  </clipPath>
 </defs>
</svg>
