<?xml version="1.0" encoding="utf-8" standalone="no"?>
<!DOCTYPE svg PUBLIC "-//W3C//DTD SVG 1.1//EN"
  "http://www.w3.org/Graphics/SVG/1.1/DTD/svg11.dtd">
<svg xmlns:xlink="http://www.w3.org/1999/xlink" width="460.8pt" height="345.6pt" viewBox="0 0 460.8 345.6" xmlns="http://www.w3.org/2000/svg" version="1.1">
 <metadata>
  <rdf:RDF xmlns:dc="http://purl.org/dc/elements/1.1/" xmlns:cc="http://creativecommons.org/ns#" xmlns:rdf="http://www.w3.org/1999/02/22-rdf-syntax-ns#">
   <cc:Work>
    <dc:type rdf:resource="http://purl.org/dc/dcmitype/StillImage"/>
    <dc:date>2025-08-23T11:15:28.403195</dc:date>
    <dc:format>image/svg+xml</dc:format>
    <dc:creator>
     <cc:Agent>
      <dc:title>Matplotlib v3.9.4, https://matplotlib.org/</dc:title>
     </cc:Agent>
    </dc:creator>
   </cc:Work>
  </rdf:RDF>
 </metadata>
 <defs>
  <style type="text/css">*{stroke-linejoin: round; stroke-linecap: butt}</style>
 </defs>
 <g id="figure_1">
  <g id="patch_1">
   <path d="M 0 345.6 
L 460.8 345.6 
L 460.8 0 
L 0 0 
z
" style="fill: #ffffff"/>
  </g>
  <g id="axes_1">
   <g id="patch_2">
    <path d="M 57.6 307.584 
L 414.72 307.584 
L 414.72 41.472 
L 57.6 41.472 
z
" style="fill: #ffffff"/>
   </g>
   <g id="matplotlib.axis_1">
    <g id="xtick_1">
     <g id="text_1">
      <!-- 0.0 -->
      <g style="fill: #262626" transform="translate(49.955 324.957594) scale(0.11 -0.11)">
       <defs>
        <path id="ArialMT-30" d="M 266 2259 
Q 266 3072 433 3567 
Q 600 4063 929 4331 
Q 1259 4600 1759 4600 
Q 2128 4600 2406 4451 
Q 2684 4303 2865 4023 
Q 3047 3744 3150 3342 
Q 3253 2941 3253 2259 
Q 3253 1453 3087 958 
Q 2922 463 2592 192 
Q 2263 -78 1759 -78 
Q 1097 -78 719 397 
Q 266 969 266 2259 
z
M 844 2259 
Q 844 1131 1108 757 
Q 1372 384 1759 384 
Q 2147 384 2411 759 
Q 2675 1134 2675 2259 
Q 2675 3391 2411 3762 
Q 2147 4134 1753 4134 
Q 1366 4134 1134 3806 
Q 844 3388 844 2259 
z
" transform="scale(0.015625)"/>
        <path id="ArialMT-2e" d="M 581 0 
L 581 641 
L 1222 641 
L 1222 0 
L 581 0 
z
" transform="scale(0.015625)"/>
       </defs>
       <use xlink:href="#ArialMT-30"/>
       <use xlink:href="#ArialMT-2e" x="55.615234"/>
       <use xlink:href="#ArialMT-30" x="83.398438"/>
      </g>
     </g>
    </g>
    <g id="xtick_2">
     <g id="text_2">
      <!-- 0.2 -->
      <g style="fill: #262626" transform="translate(121.379 324.957594) scale(0.11 -0.11)">
       <defs>
        <path id="ArialMT-32" d="M 3222 541 
L 3222 0 
L 194 0 
Q 188 203 259 391 
Q 375 700 629 1000 
Q 884 1300 1366 1694 
Q 2113 2306 2375 2664 
Q 2638 3022 2638 3341 
Q 2638 3675 2398 3904 
Q 2159 4134 1775 4134 
Q 1369 4134 1125 3890 
Q 881 3647 878 3216 
L 300 3275 
Q 359 3922 746 4261 
Q 1134 4600 1788 4600 
Q 2447 4600 2831 4234 
Q 3216 3869 3216 3328 
Q 3216 3053 3103 2787 
Q 2991 2522 2730 2228 
Q 2469 1934 1863 1422 
Q 1356 997 1212 845 
Q 1069 694 975 541 
L 3222 541 
z
" transform="scale(0.015625)"/>
       </defs>
       <use xlink:href="#ArialMT-30"/>
       <use xlink:href="#ArialMT-2e" x="55.615234"/>
       <use xlink:href="#ArialMT-32" x="83.398438"/>
      </g>
     </g>
    </g>
    <g id="xtick_3">
     <g id="text_3">
      <!-- 0.4 -->
      <g style="fill: #262626" transform="translate(192.803 324.957594) scale(0.11 -0.11)">
       <defs>
        <path id="ArialMT-34" d="M 2069 0 
L 2069 1097 
L 81 1097 
L 81 1613 
L 2172 4581 
L 2631 4581 
L 2631 1613 
L 3250 1613 
L 3250 1097 
L 2631 1097 
L 2631 0 
L 2069 0 
z
M 2069 1613 
L 2069 3678 
L 634 1613 
L 2069 1613 
z
" transform="scale(0.015625)"/>
       </defs>
       <use xlink:href="#ArialMT-30"/>
       <use xlink:href="#ArialMT-2e" x="55.615234"/>
       <use xlink:href="#ArialMT-34" x="83.398438"/>
      </g>
     </g>
    </g>
    <g id="xtick_4">
     <g id="text_4">
      <!-- 0.6 -->
      <g style="fill: #262626" transform="translate(264.227 324.957594) scale(0.11 -0.11)">
       <defs>
        <path id="ArialMT-36" d="M 3184 3459 
L 2625 3416 
Q 2550 3747 2413 3897 
Q 2184 4138 1850 4138 
Q 1581 4138 1378 3988 
Q 1113 3794 959 3422 
Q 806 3050 800 2363 
Q 1003 2672 1297 2822 
Q 1591 2972 1913 2972 
Q 2475 2972 2870 2558 
Q 3266 2144 3266 1488 
Q 3266 1056 3080 686 
Q 2894 316 2569 119 
Q 2244 -78 1831 -78 
Q 1128 -78 684 439 
Q 241 956 241 2144 
Q 241 3472 731 4075 
Q 1159 4600 1884 4600 
Q 2425 4600 2770 4297 
Q 3116 3994 3184 3459 
z
M 888 1484 
Q 888 1194 1011 928 
Q 1134 663 1356 523 
Q 1578 384 1822 384 
Q 2178 384 2434 671 
Q 2691 959 2691 1453 
Q 2691 1928 2437 2201 
Q 2184 2475 1800 2475 
Q 1419 2475 1153 2201 
Q 888 1928 888 1484 
z
" transform="scale(0.015625)"/>
       </defs>
       <use xlink:href="#ArialMT-30"/>
       <use xlink:href="#ArialMT-2e" x="55.615234"/>
       <use xlink:href="#ArialMT-36" x="83.398438"/>
      </g>
     </g>
    </g>
    <g id="xtick_5">
     <g id="text_5">
      <!-- 0.8 -->
      <g style="fill: #262626" transform="translate(335.651 324.957594) scale(0.11 -0.11)">
       <defs>
        <path id="ArialMT-38" d="M 1131 2484 
Q 781 2613 612 2850 
Q 444 3088 444 3419 
Q 444 3919 803 4259 
Q 1163 4600 1759 4600 
Q 2359 4600 2725 4251 
Q 3091 3903 3091 3403 
Q 3091 3084 2923 2848 
Q 2756 2613 2416 2484 
Q 2838 2347 3058 2040 
Q 3278 1734 3278 1309 
Q 3278 722 2862 322 
Q 2447 -78 1769 -78 
Q 1091 -78 675 323 
Q 259 725 259 1325 
Q 259 1772 486 2073 
Q 713 2375 1131 2484 
z
M 1019 3438 
Q 1019 3113 1228 2906 
Q 1438 2700 1772 2700 
Q 2097 2700 2305 2904 
Q 2513 3109 2513 3406 
Q 2513 3716 2298 3927 
Q 2084 4138 1766 4138 
Q 1444 4138 1231 3931 
Q 1019 3725 1019 3438 
z
M 838 1322 
Q 838 1081 952 856 
Q 1066 631 1291 507 
Q 1516 384 1775 384 
Q 2178 384 2440 643 
Q 2703 903 2703 1303 
Q 2703 1709 2433 1975 
Q 2163 2241 1756 2241 
Q 1359 2241 1098 1978 
Q 838 1716 838 1322 
z
" transform="scale(0.015625)"/>
       </defs>
       <use xlink:href="#ArialMT-30"/>
       <use xlink:href="#ArialMT-2e" x="55.615234"/>
       <use xlink:href="#ArialMT-38" x="83.398438"/>
      </g>
     </g>
    </g>
    <g id="xtick_6">
     <g id="text_6">
      <!-- 1.0 -->
      <g style="fill: #262626" transform="translate(407.075 324.957594) scale(0.11 -0.11)">
       <defs>
        <path id="ArialMT-31" d="M 2384 0 
L 1822 0 
L 1822 3584 
Q 1619 3391 1289 3197 
Q 959 3003 697 2906 
L 697 3450 
Q 1169 3672 1522 3987 
Q 1875 4303 2022 4600 
L 2384 4600 
L 2384 0 
z
" transform="scale(0.015625)"/>
       </defs>
       <use xlink:href="#ArialMT-31"/>
       <use xlink:href="#ArialMT-2e" x="55.615234"/>
       <use xlink:href="#ArialMT-30" x="83.398438"/>
      </g>
     </g>
    </g>
   </g>
   <g id="matplotlib.axis_2">
    <g id="ytick_1">
     <g id="text_7">
      <!-- 0.0 -->
      <g style="fill: #262626" transform="translate(32.81 311.520797) scale(0.11 -0.11)">
       <use xlink:href="#ArialMT-30"/>
       <use xlink:href="#ArialMT-2e" x="55.615234"/>
       <use xlink:href="#ArialMT-30" x="83.398438"/>
      </g>
     </g>
    </g>
    <g id="ytick_2">
     <g id="text_8">
      <!-- 0.2 -->
      <g style="fill: #262626" transform="translate(32.81 258.298397) scale(0.11 -0.11)">
       <use xlink:href="#ArialMT-30"/>
       <use xlink:href="#ArialMT-2e" x="55.615234"/>
       <use xlink:href="#ArialMT-32" x="83.398438"/>
      </g>
     </g>
    </g>
    <g id="ytick_3">
     <g id="text_9">
      <!-- 0.4 -->
      <g style="fill: #262626" transform="translate(32.81 205.075997) scale(0.11 -0.11)">
       <use xlink:href="#ArialMT-30"/>
       <use xlink:href="#ArialMT-2e" x="55.615234"/>
       <use xlink:href="#ArialMT-34" x="83.398438"/>
      </g>
     </g>
    </g>
    <g id="ytick_4">
     <g id="text_10">
      <!-- 0.6 -->
      <g style="fill: #262626" transform="translate(32.81 151.853597) scale(0.11 -0.11)">
       <use xlink:href="#ArialMT-30"/>
       <use xlink:href="#ArialMT-2e" x="55.615234"/>
       <use xlink:href="#ArialMT-36" x="83.398438"/>
      </g>
     </g>
    </g>
    <g id="ytick_5">
     <g id="text_11">
      <!-- 0.8 -->
      <g style="fill: #262626" transform="translate(32.81 98.631197) scale(0.11 -0.11)">
       <use xlink:href="#ArialMT-30"/>
       <use xlink:href="#ArialMT-2e" x="55.615234"/>
       <use xlink:href="#ArialMT-38" x="83.398438"/>
      </g>
     </g>
    </g>
    <g id="ytick_6">
     <g id="text_12">
      <!-- 1.0 -->
      <g style="fill: #262626" transform="translate(32.81 45.408797) scale(0.11 -0.11)">
       <use xlink:href="#ArialMT-31"/>
       <use xlink:href="#ArialMT-2e" x="55.615234"/>
       <use xlink:href="#ArialMT-30" x="83.398438"/>
      </g>
     </g>
    </g>
   </g>
   <g id="PathCollection_1">
    <defs>
     <path id="m66ffda94a1" d="M 0 3 
C 0.795609 3 1.55874 2.683901 2.12132 2.12132 
C 2.683901 1.55874 3 0.795609 3 0 
C 3 -0.795609 2.683901 -1.55874 2.12132 -2.12132 
C 1.55874 -2.683901 0.795609 -3 0 -3 
C -0.795609 -3 -1.55874 -2.683901 -2.12132 -2.12132 
C -2.683901 -1.55874 -3 -0.795609 -3 0 
C -3 0.795609 -2.683901 1.55874 -2.12132 2.12132 
C -1.55874 2.683901 -0.795609 3 0 3 
z
" style="stroke: #8080ff"/>
    </defs>
    <g clip-path="url(#p3c2b9d6dc5)">
     <use xlink:href="#m66ffda94a1" x="324.543974" y="92.844973" style="fill: #8080ff; stroke: #8080ff"/>
     <use xlink:href="#m66ffda94a1" x="240.389241" y="184.345946" style="fill: #8080ff; stroke: #8080ff"/>
     <use xlink:href="#m66ffda94a1" x="328.414805" y="95.413622" style="fill: #8080ff; stroke: #8080ff"/>
     <use xlink:href="#m66ffda94a1" x="277.233818" y="166.707892" style="fill: #8080ff; stroke: #8080ff"/>
     <use xlink:href="#m66ffda94a1" x="308.272148" y="101.863784" style="fill: #8080ff; stroke: #8080ff"/>
     <use xlink:href="#m66ffda94a1" x="249.206134" y="155.862486" style="fill: #8080ff; stroke: #8080ff"/>
     <use xlink:href="#m66ffda94a1" x="276.875407" y="128.748973" style="fill: #8080ff; stroke: #8080ff"/>
     <use xlink:href="#m66ffda94a1" x="224.905917" y="162.598054" style="fill: #8080ff; stroke: #8080ff"/>
     <use xlink:href="#m66ffda94a1" x="237.378595" y="174.356757" style="fill: #8080ff; stroke: #8080ff"/>
     <use xlink:href="#m66ffda94a1" x="314.436804" y="125.723676" style="fill: #8080ff; stroke: #8080ff"/>
     <use xlink:href="#m66ffda94a1" x="332.500682" y="108.256865" style="fill: #8080ff; stroke: #8080ff"/>
     <use xlink:href="#m66ffda94a1" x="215.013794" y="196.390054" style="fill: #8080ff; stroke: #8080ff"/>
     <use xlink:href="#m66ffda94a1" x="248.919406" y="186.229622" style="fill: #8080ff; stroke: #8080ff"/>
     <use xlink:href="#m66ffda94a1" x="312.931481" y="118.816865" style="fill: #8080ff; stroke: #8080ff"/>
     <use xlink:href="#m66ffda94a1" x="306.336732" y="101.521297" style="fill: #8080ff; stroke: #8080ff"/>
     <use xlink:href="#m66ffda94a1" x="175.875391" y="173.500541" style="fill: #8080ff; stroke: #8080ff"/>
     <use xlink:href="#m66ffda94a1" x="208.132316" y="179.436973" style="fill: #8080ff; stroke: #8080ff"/>
     <use xlink:href="#m66ffda94a1" x="283.828567" y="144.845838" style="fill: #8080ff; stroke: #8080ff"/>
     <use xlink:href="#m66ffda94a1" x="241.249426" y="210.660324" style="fill: #8080ff; stroke: #8080ff"/>
     <use xlink:href="#m66ffda94a1" x="315.583717" y="95.185297" style="fill: #8080ff; stroke: #8080ff"/>
     <use xlink:href="#m66ffda94a1" x="311.13943" y="96.555243" style="fill: #8080ff; stroke: #8080ff"/>
     <use xlink:href="#m66ffda94a1" x="298.523388" y="146.101622" style="fill: #8080ff; stroke: #8080ff"/>
     <use xlink:href="#m66ffda94a1" x="246.482216" y="174.185514" style="fill: #8080ff; stroke: #8080ff"/>
     <use xlink:href="#m66ffda94a1" x="291.785275" y="116.134054" style="fill: #8080ff; stroke: #8080ff"/>
     <use xlink:href="#m66ffda94a1" x="302.322537" y="101.464216" style="fill: #8080ff; stroke: #8080ff"/>
     <use xlink:href="#m66ffda94a1" x="244.905211" y="187.542486" style="fill: #8080ff; stroke: #8080ff"/>
     <use xlink:href="#m66ffda94a1" x="324.830703" y="125.894919" style="fill: #8080ff; stroke: #8080ff"/>
     <use xlink:href="#m66ffda94a1" x="253.363693" y="151.980973" style="fill: #8080ff; stroke: #8080ff"/>
     <use xlink:href="#m66ffda94a1" x="250.138001" y="149.069838" style="fill: #8080ff; stroke: #8080ff"/>
     <use xlink:href="#m66ffda94a1" x="276.588679" y="140.165189" style="fill: #8080ff; stroke: #8080ff"/>
     <use xlink:href="#m66ffda94a1" x="264.331048" y="142.505514" style="fill: #8080ff; stroke: #8080ff"/>
     <use xlink:href="#m66ffda94a1" x="286.552485" y="177.781622" style="fill: #8080ff; stroke: #8080ff"/>
     <use xlink:href="#m66ffda94a1" x="342.392806" y="97.011892" style="fill: #8080ff; stroke: #8080ff"/>
     <use xlink:href="#m66ffda94a1" x="238.668872" y="178.124108" style="fill: #8080ff; stroke: #8080ff"/>
     <use xlink:href="#m66ffda94a1" x="302.824312" y="110.368865" style="fill: #8080ff; stroke: #8080ff"/>
     <use xlink:href="#m66ffda94a1" x="317.160723" y="98.667243" style="fill: #8080ff; stroke: #8080ff"/>
     <use xlink:href="#m66ffda94a1" x="313.003163" y="93.472865" style="fill: #8080ff; stroke: #8080ff"/>
     <use xlink:href="#m66ffda94a1" x="241.177744" y="172.92973" style="fill: #8080ff; stroke: #8080ff"/>
     <use xlink:href="#m66ffda94a1" x="241.7512" y="180.464432" style="fill: #8080ff; stroke: #8080ff"/>
     <use xlink:href="#m66ffda94a1" x="235.658226" y="189.768649" style="fill: #8080ff; stroke: #8080ff"/>
     <use xlink:href="#m66ffda94a1" x="257.736299" y="170.646486" style="fill: #8080ff; stroke: #8080ff"/>
     <use xlink:href="#m66ffda94a1" x="239.600739" y="154.777946" style="fill: #8080ff; stroke: #8080ff"/>
     <use xlink:href="#m66ffda94a1" x="244.976893" y="156.661622" style="fill: #8080ff; stroke: #8080ff"/>
     <use xlink:href="#m66ffda94a1" x="318.952774" y="94.272" style="fill: #8080ff; stroke: #8080ff"/>
     <use xlink:href="#m66ffda94a1" x="249.994637" y="160.600216" style="fill: #8080ff; stroke: #8080ff"/>
     <use xlink:href="#m66ffda94a1" x="228.346656" y="182.861838" style="fill: #8080ff; stroke: #8080ff"/>
     <use xlink:href="#m66ffda94a1" x="291.498547" y="144.389189" style="fill: #8080ff; stroke: #8080ff"/>
     <use xlink:href="#m66ffda94a1" x="336.299831" y="112.880432" style="fill: #8080ff; stroke: #8080ff"/>
     <use xlink:href="#m66ffda94a1" x="206.698675" y="174.299676" style="fill: #8080ff; stroke: #8080ff"/>
     <use xlink:href="#m66ffda94a1" x="315.440353" y="102.662919" style="fill: #8080ff; stroke: #8080ff"/>
     <use xlink:href="#m66ffda94a1" x="327.482939" y="99.694703" style="fill: #8080ff; stroke: #8080ff"/>
     <use xlink:href="#m66ffda94a1" x="289.993224" y="104.774919" style="fill: #8080ff; stroke: #8080ff"/>
     <use xlink:href="#m66ffda94a1" x="309.920835" y="101.235892" style="fill: #8080ff; stroke: #8080ff"/>
     <use xlink:href="#m66ffda94a1" x="302.824312" y="99.409297" style="fill: #8080ff; stroke: #8080ff"/>
     <use xlink:href="#m66ffda94a1" x="236.805138" y="141.078486" style="fill: #8080ff; stroke: #8080ff"/>
     <use xlink:href="#m66ffda94a1" x="241.177744" y="201.356108" style="fill: #8080ff; stroke: #8080ff"/>
     <use xlink:href="#m66ffda94a1" x="288.559582" y="95.87027" style="fill: #8080ff; stroke: #8080ff"/>
     <use xlink:href="#m66ffda94a1" x="305.189819" y="111.567568" style="fill: #8080ff; stroke: #8080ff"/>
     <use xlink:href="#m66ffda94a1" x="348.772509" y="108.142703" style="fill: #8080ff; stroke: #8080ff"/>
     <use xlink:href="#m66ffda94a1" x="250.711457" y="166.08" style="fill: #8080ff; stroke: #8080ff"/>
     <use xlink:href="#m66ffda94a1" x="312.573071" y="101.635459" style="fill: #8080ff; stroke: #8080ff"/>
     <use xlink:href="#m66ffda94a1" x="250.783139" y="190.853189" style="fill: #8080ff; stroke: #8080ff"/>
     <use xlink:href="#m66ffda94a1" x="236.375046" y="134.171676" style="fill: #8080ff; stroke: #8080ff"/>
     <use xlink:href="#m66ffda94a1" x="334.292734" y="94.500324" style="fill: #8080ff; stroke: #8080ff"/>
     <use xlink:href="#m66ffda94a1" x="232.862625" y="201.698595" style="fill: #8080ff; stroke: #8080ff"/>
     <use xlink:href="#m66ffda94a1" x="214.440337" y="176.582919" style="fill: #8080ff; stroke: #8080ff"/>
     <use xlink:href="#m66ffda94a1" x="175.445299" y="174.128432" style="fill: #8080ff; stroke: #8080ff"/>
     <use xlink:href="#m66ffda94a1" x="248.274267" y="147.186162" style="fill: #8080ff; stroke: #8080ff"/>
     <use xlink:href="#m66ffda94a1" x="331.640498" y="116.876108" style="fill: #8080ff; stroke: #8080ff"/>
     <use xlink:href="#m66ffda94a1" x="206.125219" y="178.124108" style="fill: #8080ff; stroke: #8080ff"/>
     <use xlink:href="#m66ffda94a1" x="299.598619" y="104.546595" style="fill: #8080ff; stroke: #8080ff"/>
     <use xlink:href="#m66ffda94a1" x="214.010245" y="219.679135" style="fill: #8080ff; stroke: #8080ff"/>
     <use xlink:href="#m66ffda94a1" x="211.071281" y="184.745514" style="fill: #8080ff; stroke: #8080ff"/>
     <use xlink:href="#m66ffda94a1" x="293.649008" y="107.628973" style="fill: #8080ff; stroke: #8080ff"/>
     <use xlink:href="#m66ffda94a1" x="286.337439" y="110.65427" style="fill: #8080ff; stroke: #8080ff"/>
     <use xlink:href="#m66ffda94a1" x="219.959855" y="181.720216" style="fill: #8080ff; stroke: #8080ff"/>
     <use xlink:href="#m66ffda94a1" x="261.822176" y="196.047568" style="fill: #8080ff; stroke: #8080ff"/>
     <use xlink:href="#m66ffda94a1" x="220.963404" y="197.817081" style="fill: #8080ff; stroke: #8080ff"/>
     <use xlink:href="#m66ffda94a1" x="247.844175" y="182.804757" style="fill: #8080ff; stroke: #8080ff"/>
     <use xlink:href="#m66ffda94a1" x="243.758298" y="188.512865" style="fill: #8080ff; stroke: #8080ff"/>
     <use xlink:href="#m66ffda94a1" x="310.924384" y="115.848649" style="fill: #8080ff; stroke: #8080ff"/>
     <use xlink:href="#m66ffda94a1" x="257.592935" y="160.371892" style="fill: #8080ff; stroke: #8080ff"/>
     <use xlink:href="#m66ffda94a1" x="301.964127" y="109.912216" style="fill: #8080ff; stroke: #8080ff"/>
     <use xlink:href="#m66ffda94a1" x="336.58656" y="94.043676" style="fill: #8080ff; stroke: #8080ff"/>
     <use xlink:href="#m66ffda94a1" x="283.470157" y="118.188973" style="fill: #8080ff; stroke: #8080ff"/>
     <use xlink:href="#m66ffda94a1" x="254.438924" y="152.380541" style="fill: #8080ff; stroke: #8080ff"/>
     <use xlink:href="#m66ffda94a1" x="332.930775" y="92.16" style="fill: #8080ff; stroke: #8080ff"/>
     <use xlink:href="#m66ffda94a1" x="239.385692" y="211.801946" style="fill: #8080ff; stroke: #8080ff"/>
     <use xlink:href="#m66ffda94a1" x="317.805861" y="103.062486" style="fill: #8080ff; stroke: #8080ff"/>
     <use xlink:href="#m66ffda94a1" x="215.873978" y="172.130595" style="fill: #8080ff; stroke: #8080ff"/>
     <use xlink:href="#m66ffda94a1" x="259.313304" y="124.467892" style="fill: #8080ff; stroke: #8080ff"/>
     <use xlink:href="#m66ffda94a1" x="265.047868" y="170.874811" style="fill: #8080ff; stroke: #8080ff"/>
     <use xlink:href="#m66ffda94a1" x="299.526937" y="113.051676" style="fill: #8080ff; stroke: #8080ff"/>
     <use xlink:href="#m66ffda94a1" x="185.194059" y="199.872" style="fill: #8080ff; stroke: #8080ff"/>
     <use xlink:href="#m66ffda94a1" x="242.468021" y="192.736865" style="fill: #8080ff; stroke: #8080ff"/>
     <use xlink:href="#m66ffda94a1" x="305.476548" y="102.320432" style="fill: #8080ff; stroke: #8080ff"/>
     <use xlink:href="#m66ffda94a1" x="224.475825" y="156.832865" style="fill: #8080ff; stroke: #8080ff"/>
     <use xlink:href="#m66ffda94a1" x="336.729924" y="98.838486" style="fill: #8080ff; stroke: #8080ff"/>
     <use xlink:href="#m66ffda94a1" x="268.201879" y="121.899243" style="fill: #8080ff; stroke: #8080ff"/>
     <use xlink:href="#m66ffda94a1" x="259.384986" y="159.173189" style="fill: #8080ff; stroke: #8080ff"/>
     <use xlink:href="#m66ffda94a1" x="240.389241" y="179.322811" style="fill: #8080ff; stroke: #8080ff"/>
     <use xlink:href="#m66ffda94a1" x="295.44106" y="130.461405" style="fill: #8080ff; stroke: #8080ff"/>
     <use xlink:href="#m66ffda94a1" x="259.88676" y="162.198486" style="fill: #8080ff; stroke: #8080ff"/>
     <use xlink:href="#m66ffda94a1" x="303.899542" y="103.576216" style="fill: #8080ff; stroke: #8080ff"/>
     <use xlink:href="#m66ffda94a1" x="227.414789" y="169.79027" style="fill: #8080ff; stroke: #8080ff"/>
     <use xlink:href="#m66ffda94a1" x="278.309049" y="138.224432" style="fill: #8080ff; stroke: #8080ff"/>
     <use xlink:href="#m66ffda94a1" x="259.384986" y="119.159351" style="fill: #8080ff; stroke: #8080ff"/>
     <use xlink:href="#m66ffda94a1" x="267.915151" y="156.376216" style="fill: #8080ff; stroke: #8080ff"/>
     <use xlink:href="#m66ffda94a1" x="282.53829" y="175.669622" style="fill: #8080ff; stroke: #8080ff"/>
     <use xlink:href="#m66ffda94a1" x="194.65609" y="208.262919" style="fill: #8080ff; stroke: #8080ff"/>
     <use xlink:href="#m66ffda94a1" x="266.983284" y="185.772973" style="fill: #8080ff; stroke: #8080ff"/>
     <use xlink:href="#m66ffda94a1" x="308.487194" y="104.889081" style="fill: #8080ff; stroke: #8080ff"/>
     <use xlink:href="#m66ffda94a1" x="321.031554" y="110.083459" style="fill: #8080ff; stroke: #8080ff"/>
     <use xlink:href="#m66ffda94a1" x="312.358025" y="140.507676" style="fill: #8080ff; stroke: #8080ff"/>
     <use xlink:href="#m66ffda94a1" x="246.482216" y="154.378378" style="fill: #8080ff; stroke: #8080ff"/>
     <use xlink:href="#m66ffda94a1" x="331.783862" y="99.295135" style="fill: #8080ff; stroke: #8080ff"/>
     <use xlink:href="#m66ffda94a1" x="216.734163" y="218.080865" style="fill: #8080ff; stroke: #8080ff"/>
     <use xlink:href="#m66ffda94a1" x="255.514155" y="153.122595" style="fill: #8080ff; stroke: #8080ff"/>
     <use xlink:href="#m66ffda94a1" x="247.414083" y="173.215135" style="fill: #8080ff; stroke: #8080ff"/>
     <use xlink:href="#m66ffda94a1" x="320.888189" y="105.973622" style="fill: #8080ff; stroke: #8080ff"/>
     <use xlink:href="#m66ffda94a1" x="345.761863" y="95.984432" style="fill: #8080ff; stroke: #8080ff"/>
     <use xlink:href="#m66ffda94a1" x="287.269305" y="151.238919" style="fill: #8080ff; stroke: #8080ff"/>
     <use xlink:href="#m66ffda94a1" x="299.240209" y="111.168" style="fill: #8080ff; stroke: #8080ff"/>
     <use xlink:href="#m66ffda94a1" x="304.974773" y="104.489514" style="fill: #8080ff; stroke: #8080ff"/>
     <use xlink:href="#m66ffda94a1" x="243.328206" y="195.990486" style="fill: #8080ff; stroke: #8080ff"/>
     <use xlink:href="#m66ffda94a1" x="308.057102" y="94.329081" style="fill: #8080ff; stroke: #8080ff"/>
     <use xlink:href="#m66ffda94a1" x="192.433946" y="186.914595" style="fill: #8080ff; stroke: #8080ff"/>
     <use xlink:href="#m66ffda94a1" x="234.009538" y="212.715243" style="fill: #8080ff; stroke: #8080ff"/>
     <use xlink:href="#m66ffda94a1" x="289.061357" y="107.971459" style="fill: #8080ff; stroke: #8080ff"/>
     <use xlink:href="#m66ffda94a1" x="325.045749" y="97.297297" style="fill: #8080ff; stroke: #8080ff"/>
     <use xlink:href="#m66ffda94a1" x="304.114589" y="131.260541" style="fill: #8080ff; stroke: #8080ff"/>
     <use xlink:href="#m66ffda94a1" x="293.649008" y="114.022054" style="fill: #8080ff; stroke: #8080ff"/>
     <use xlink:href="#m66ffda94a1" x="318.522682" y="100.379676" style="fill: #8080ff; stroke: #8080ff"/>
     <use xlink:href="#m66ffda94a1" x="323.253697" y="114.250378" style="fill: #8080ff; stroke: #8080ff"/>
    </g>
   </g>
   <g id="PathCollection_2">
    <defs>
     <path id="m9874544913" d="M 0 3 
C 0.795609 3 1.55874 2.683901 2.12132 2.12132 
C 2.683901 1.55874 3 0.795609 3 0 
C 3 -0.795609 2.683901 -1.55874 2.12132 -2.12132 
C 1.55874 -2.683901 0.795609 -3 0 -3 
C -0.795609 -3 -1.55874 -2.683901 -2.12132 -2.12132 
C -2.683901 -1.55874 -3 -0.795609 -3 0 
C -3 0.795609 -2.683901 1.55874 -2.12132 2.12132 
C -1.55874 2.683901 -0.795609 3 0 3 
z
" style="stroke: #404080"/>
    </defs>
    <g clip-path="url(#p3c2b9d6dc5)">
     <use xlink:href="#m9874544913" x="240.675969" y="151.524324" style="fill: #404080; stroke: #404080"/>
     <use xlink:href="#m9874544913" x="290.56668" y="118.360216" style="fill: #404080; stroke: #404080"/>
     <use xlink:href="#m9874544913" x="248.776042" y="165.851676" style="fill: #404080; stroke: #404080"/>
     <use xlink:href="#m9874544913" x="247.915857" y="178.866162" style="fill: #404080; stroke: #404080"/>
     <use xlink:href="#m9874544913" x="266.481509" y="139.708541" style="fill: #404080; stroke: #404080"/>
     <use xlink:href="#m9874544913" x="194.584408" y="142.33427" style="fill: #404080; stroke: #404080"/>
     <use xlink:href="#m9874544913" x="212.146511" y="186.457946" style="fill: #404080; stroke: #404080"/>
     <use xlink:href="#m9874544913" x="223.974051" y="170.361081" style="fill: #404080; stroke: #404080"/>
     <use xlink:href="#m9874544913" x="243.901662" y="193.935568" style="fill: #404080; stroke: #404080"/>
     <use xlink:href="#m9874544913" x="233.292718" y="168.934054" style="fill: #404080; stroke: #404080"/>
     <use xlink:href="#m9874544913" x="229.493569" y="158.659459" style="fill: #404080; stroke: #404080"/>
     <use xlink:href="#m9874544913" x="314.078394" y="131.203459" style="fill: #404080; stroke: #404080"/>
     <use xlink:href="#m9874544913" x="335.367965" y="106.886919" style="fill: #404080; stroke: #404080"/>
     <use xlink:href="#m9874544913" x="255.442473" y="185.202162" style="fill: #404080; stroke: #404080"/>
     <use xlink:href="#m9874544913" x="243.47157" y="135.598703" style="fill: #404080; stroke: #404080"/>
     <use xlink:href="#m9874544913" x="309.490743" y="116.933189" style="fill: #404080; stroke: #404080"/>
     <use xlink:href="#m9874544913" x="259.16994" y="119.501838" style="fill: #404080; stroke: #404080"/>
     <use xlink:href="#m9874544913" x="249.922955" y="166.822054" style="fill: #404080; stroke: #404080"/>
     <use xlink:href="#m9874544913" x="300.67385" y="106.715676" style="fill: #404080; stroke: #404080"/>
     <use xlink:href="#m9874544913" x="286.409121" y="115.677405" style="fill: #404080; stroke: #404080"/>
     <use xlink:href="#m9874544913" x="289.849859" y="127.721514" style="fill: #404080; stroke: #404080"/>
     <use xlink:href="#m9874544913" x="334.077688" y="93.529946" style="fill: #404080; stroke: #404080"/>
     <use xlink:href="#m9874544913" x="305.476548" y="144.046703" style="fill: #404080; stroke: #404080"/>
     <use xlink:href="#m9874544913" x="323.110333" y="109.455568" style="fill: #404080; stroke: #404080"/>
     <use xlink:href="#m9874544913" x="308.415512" y="132.972973" style="fill: #404080; stroke: #404080"/>
     <use xlink:href="#m9874544913" x="323.612108" y="163.853838" style="fill: #404080; stroke: #404080"/>
     <use xlink:href="#m9874544913" x="302.895994" y="111.967135" style="fill: #404080; stroke: #404080"/>
     <use xlink:href="#m9874544913" x="223.472276" y="191.252757" style="fill: #404080; stroke: #404080"/>
     <use xlink:href="#m9874544913" x="251.284914" y="144.103784" style="fill: #404080; stroke: #404080"/>
     <use xlink:href="#m9874544913" x="284.402023" y="106.43027" style="fill: #404080; stroke: #404080"/>
     <use xlink:href="#m9874544913" x="317.447451" y="99.865946" style="fill: #404080; stroke: #404080"/>
     <use xlink:href="#m9874544913" x="305.54823" y="102.834162" style="fill: #404080; stroke: #404080"/>
     <use xlink:href="#m9874544913" x="205.766809" y="199.472432" style="fill: #404080; stroke: #404080"/>
     <use xlink:href="#m9874544913" x="225.407692" y="179.151568" style="fill: #404080; stroke: #404080"/>
     <use xlink:href="#m9874544913" x="309.132332" y="97.98227" style="fill: #404080; stroke: #404080"/>
     <use xlink:href="#m9874544913" x="248.919406" y="205.69427" style="fill: #404080; stroke: #404080"/>
     <use xlink:href="#m9874544913" x="238.812236" y="177.496216" style="fill: #404080; stroke: #404080"/>
     <use xlink:href="#m9874544913" x="213.938563" y="171.788108" style="fill: #404080; stroke: #404080"/>
     <use xlink:href="#m9874544913" x="299.311891" y="156.376216" style="fill: #404080; stroke: #404080"/>
     <use xlink:href="#m9874544913" x="317.304087" y="155.691243" style="fill: #404080; stroke: #404080"/>
     <use xlink:href="#m9874544913" x="197.738418" y="115.734486" style="fill: #404080; stroke: #404080"/>
     <use xlink:href="#m9874544913" x="196.304777" y="164.938378" style="fill: #404080; stroke: #404080"/>
     <use xlink:href="#m9874544913" x="170.069145" y="212.772324" style="fill: #404080; stroke: #404080"/>
     <use xlink:href="#m9874544913" x="318.594364" y="136.626162" style="fill: #404080; stroke: #404080"/>
     <use xlink:href="#m9874544913" x="294.294147" y="122.127568" style="fill: #404080; stroke: #404080"/>
     <use xlink:href="#m9874544913" x="209.99605" y="172.358919" style="fill: #404080; stroke: #404080"/>
     <use xlink:href="#m9874544913" x="278.094002" y="215.226811" style="fill: #404080; stroke: #404080"/>
     <use xlink:href="#m9874544913" x="342.464488" y="111.738811" style="fill: #404080; stroke: #404080"/>
     <use xlink:href="#m9874544913" x="327.769667" y="101.350054" style="fill: #404080; stroke: #404080"/>
     <use xlink:href="#m9874544913" x="182.255094" y="155.52" style="fill: #404080; stroke: #404080"/>
    </g>
   </g>
   <g id="line2d_1">
    <path d="M 236.16 307.584 
L 236.16 41.472 
" clip-path="url(#p3c2b9d6dc5)" style="fill: none; stroke-dasharray: 3.7,1.6; stroke-dashoffset: 0; stroke: #000000"/>
   </g>
   <g id="line2d_2">
    <path d="M 57.6 174.528 
L 414.72 174.528 
" clip-path="url(#p3c2b9d6dc5)" style="fill: none; stroke-dasharray: 3.7,1.6; stroke-dashoffset: 0; stroke: #000000"/>
   </g>
   <g id="patch_3">
    <path d="M 57.6 307.584 
L 57.6 41.472 
" style="fill: none; stroke: #cccccc; stroke-width: 1.25; stroke-linejoin: miter; stroke-linecap: square"/>
   </g>
   <g id="patch_4">
    <path d="M 57.6 307.584 
L 414.72 307.584 
" style="fill: none; stroke: #cccccc; stroke-width: 1.25; stroke-linejoin: miter; stroke-linecap: square"/>
   </g>
   <g id="text_13">
    <g id="patch_5">
     <path d="M 64.7424 99.530865 
L 139.133025 99.530865 
Q 142.733025 99.530865 142.733025 95.930865 
L 142.733025 46.79424 
Q 142.733025 43.19424 139.133025 43.19424 
L 64.7424 43.19424 
Q 61.1424 43.19424 61.1424 46.79424 
L 61.1424 95.930865 
Q 61.1424 99.530865 64.7424 99.530865 
z
" style="fill: #ffffff; opacity: 0.8; stroke: #ffffff; stroke-linejoin: miter"/>
    </g>
    <!-- r1 = 8.55e-1 -->
    <g style="fill: #262626" transform="translate(64.7424 55.383615) scale(0.12 -0.12)">
     <defs>
      <path id="ArialMT-72" d="M 416 0 
L 416 3319 
L 922 3319 
L 922 2816 
Q 1116 3169 1280 3281 
Q 1444 3394 1641 3394 
Q 1925 3394 2219 3213 
L 2025 2691 
Q 1819 2813 1613 2813 
Q 1428 2813 1281 2702 
Q 1134 2591 1072 2394 
Q 978 2094 978 1738 
L 978 0 
L 416 0 
z
" transform="scale(0.015625)"/>
      <path id="ArialMT-20" transform="scale(0.015625)"/>
      <path id="ArialMT-3d" d="M 3381 2694 
L 356 2694 
L 356 3219 
L 3381 3219 
L 3381 2694 
z
M 3381 1303 
L 356 1303 
L 356 1828 
L 3381 1828 
L 3381 1303 
z
" transform="scale(0.015625)"/>
      <path id="ArialMT-35" d="M 266 1200 
L 856 1250 
Q 922 819 1161 601 
Q 1400 384 1738 384 
Q 2144 384 2425 690 
Q 2706 997 2706 1503 
Q 2706 1984 2436 2262 
Q 2166 2541 1728 2541 
Q 1456 2541 1237 2417 
Q 1019 2294 894 2097 
L 366 2166 
L 809 4519 
L 3088 4519 
L 3088 3981 
L 1259 3981 
L 1013 2750 
Q 1425 3038 1878 3038 
Q 2478 3038 2890 2622 
Q 3303 2206 3303 1553 
Q 3303 931 2941 478 
Q 2500 -78 1738 -78 
Q 1113 -78 717 272 
Q 322 622 266 1200 
z
" transform="scale(0.015625)"/>
      <path id="ArialMT-65" d="M 2694 1069 
L 3275 997 
Q 3138 488 2766 206 
Q 2394 -75 1816 -75 
Q 1088 -75 661 373 
Q 234 822 234 1631 
Q 234 2469 665 2931 
Q 1097 3394 1784 3394 
Q 2450 3394 2872 2941 
Q 3294 2488 3294 1666 
Q 3294 1616 3291 1516 
L 816 1516 
Q 847 969 1125 678 
Q 1403 388 1819 388 
Q 2128 388 2347 550 
Q 2566 713 2694 1069 
z
M 847 1978 
L 2700 1978 
Q 2663 2397 2488 2606 
Q 2219 2931 1791 2931 
Q 1403 2931 1139 2672 
Q 875 2413 847 1978 
z
" transform="scale(0.015625)"/>
      <path id="ArialMT-2d" d="M 203 1375 
L 203 1941 
L 1931 1941 
L 1931 1375 
L 203 1375 
z
" transform="scale(0.015625)"/>
     </defs>
     <use xlink:href="#ArialMT-72"/>
     <use xlink:href="#ArialMT-31" x="33.300781"/>
     <use xlink:href="#ArialMT-20" x="88.916016"/>
     <use xlink:href="#ArialMT-3d" x="116.699219"/>
     <use xlink:href="#ArialMT-20" x="175.097656"/>
     <use xlink:href="#ArialMT-38" x="202.880859"/>
     <use xlink:href="#ArialMT-2e" x="258.496094"/>
     <use xlink:href="#ArialMT-35" x="286.279297"/>
     <use xlink:href="#ArialMT-35" x="341.894531"/>
     <use xlink:href="#ArialMT-65" x="397.509766"/>
     <use xlink:href="#ArialMT-2d" x="453.125"/>
     <use xlink:href="#ArialMT-31" x="486.425781"/>
    </g>
    <!-- p1 = 1.59e-39 -->
    <g style="fill: #262626" transform="translate(64.7424 68.118615) scale(0.12 -0.12)">
     <defs>
      <path id="ArialMT-70" d="M 422 -1272 
L 422 3319 
L 934 3319 
L 934 2888 
Q 1116 3141 1344 3267 
Q 1572 3394 1897 3394 
Q 2322 3394 2647 3175 
Q 2972 2956 3137 2557 
Q 3303 2159 3303 1684 
Q 3303 1175 3120 767 
Q 2938 359 2589 142 
Q 2241 -75 1856 -75 
Q 1575 -75 1351 44 
Q 1128 163 984 344 
L 984 -1272 
L 422 -1272 
z
M 931 1641 
Q 931 1000 1190 694 
Q 1450 388 1819 388 
Q 2194 388 2461 705 
Q 2728 1022 2728 1688 
Q 2728 2322 2467 2637 
Q 2206 2953 1844 2953 
Q 1484 2953 1207 2617 
Q 931 2281 931 1641 
z
" transform="scale(0.015625)"/>
      <path id="ArialMT-39" d="M 350 1059 
L 891 1109 
Q 959 728 1153 556 
Q 1347 384 1650 384 
Q 1909 384 2104 503 
Q 2300 622 2425 820 
Q 2550 1019 2634 1356 
Q 2719 1694 2719 2044 
Q 2719 2081 2716 2156 
Q 2547 1888 2255 1720 
Q 1963 1553 1622 1553 
Q 1053 1553 659 1965 
Q 266 2378 266 3053 
Q 266 3750 677 4175 
Q 1088 4600 1706 4600 
Q 2153 4600 2523 4359 
Q 2894 4119 3086 3673 
Q 3278 3228 3278 2384 
Q 3278 1506 3087 986 
Q 2897 466 2520 194 
Q 2144 -78 1638 -78 
Q 1100 -78 759 220 
Q 419 519 350 1059 
z
M 2653 3081 
Q 2653 3566 2395 3850 
Q 2138 4134 1775 4134 
Q 1400 4134 1122 3828 
Q 844 3522 844 3034 
Q 844 2597 1108 2323 
Q 1372 2050 1759 2050 
Q 2150 2050 2401 2323 
Q 2653 2597 2653 3081 
z
" transform="scale(0.015625)"/>
      <path id="ArialMT-33" d="M 269 1209 
L 831 1284 
Q 928 806 1161 595 
Q 1394 384 1728 384 
Q 2125 384 2398 659 
Q 2672 934 2672 1341 
Q 2672 1728 2419 1979 
Q 2166 2231 1775 2231 
Q 1616 2231 1378 2169 
L 1441 2663 
Q 1497 2656 1531 2656 
Q 1891 2656 2178 2843 
Q 2466 3031 2466 3422 
Q 2466 3731 2256 3934 
Q 2047 4138 1716 4138 
Q 1388 4138 1169 3931 
Q 950 3725 888 3313 
L 325 3413 
Q 428 3978 793 4289 
Q 1159 4600 1703 4600 
Q 2078 4600 2393 4439 
Q 2709 4278 2876 4000 
Q 3044 3722 3044 3409 
Q 3044 3113 2884 2869 
Q 2725 2625 2413 2481 
Q 2819 2388 3044 2092 
Q 3269 1797 3269 1353 
Q 3269 753 2831 336 
Q 2394 -81 1725 -81 
Q 1122 -81 723 278 
Q 325 638 269 1209 
z
" transform="scale(0.015625)"/>
     </defs>
     <use xlink:href="#ArialMT-70"/>
     <use xlink:href="#ArialMT-31" x="55.615234"/>
     <use xlink:href="#ArialMT-20" x="111.230469"/>
     <use xlink:href="#ArialMT-3d" x="139.013672"/>
     <use xlink:href="#ArialMT-20" x="197.412109"/>
     <use xlink:href="#ArialMT-31" x="225.195312"/>
     <use xlink:href="#ArialMT-2e" x="280.810547"/>
     <use xlink:href="#ArialMT-35" x="308.59375"/>
     <use xlink:href="#ArialMT-39" x="364.208984"/>
     <use xlink:href="#ArialMT-65" x="419.824219"/>
     <use xlink:href="#ArialMT-2d" x="475.439453"/>
     <use xlink:href="#ArialMT-33" x="508.740234"/>
     <use xlink:href="#ArialMT-39" x="564.355469"/>
    </g>
    <!-- r2 = 6.54e-1 -->
    <g style="fill: #262626" transform="translate(64.7424 80.810865) scale(0.12 -0.12)">
     <use xlink:href="#ArialMT-72"/>
     <use xlink:href="#ArialMT-32" x="33.300781"/>
     <use xlink:href="#ArialMT-20" x="88.916016"/>
     <use xlink:href="#ArialMT-3d" x="116.699219"/>
     <use xlink:href="#ArialMT-20" x="175.097656"/>
     <use xlink:href="#ArialMT-36" x="202.880859"/>
     <use xlink:href="#ArialMT-2e" x="258.496094"/>
     <use xlink:href="#ArialMT-35" x="286.279297"/>
     <use xlink:href="#ArialMT-34" x="341.894531"/>
     <use xlink:href="#ArialMT-65" x="397.509766"/>
     <use xlink:href="#ArialMT-2d" x="453.125"/>
     <use xlink:href="#ArialMT-31" x="486.425781"/>
    </g>
    <!-- p2 = 2.62e-7 -->
    <g style="fill: #262626" transform="translate(64.7424 93.545865) scale(0.12 -0.12)">
     <defs>
      <path id="ArialMT-37" d="M 303 3981 
L 303 4522 
L 3269 4522 
L 3269 4084 
Q 2831 3619 2401 2847 
Q 1972 2075 1738 1259 
Q 1569 684 1522 0 
L 944 0 
Q 953 541 1156 1306 
Q 1359 2072 1739 2783 
Q 2119 3494 2547 3981 
L 303 3981 
z
" transform="scale(0.015625)"/>
     </defs>
     <use xlink:href="#ArialMT-70"/>
     <use xlink:href="#ArialMT-32" x="55.615234"/>
     <use xlink:href="#ArialMT-20" x="111.230469"/>
     <use xlink:href="#ArialMT-3d" x="139.013672"/>
     <use xlink:href="#ArialMT-20" x="197.412109"/>
     <use xlink:href="#ArialMT-32" x="225.195312"/>
     <use xlink:href="#ArialMT-2e" x="280.810547"/>
     <use xlink:href="#ArialMT-36" x="308.59375"/>
     <use xlink:href="#ArialMT-32" x="364.208984"/>
     <use xlink:href="#ArialMT-65" x="419.824219"/>
     <use xlink:href="#ArialMT-2d" x="475.439453"/>
     <use xlink:href="#ArialMT-37" x="508.740234"/>
    </g>
   </g>
  </g>
 </g>
 <defs>
  <clipPath id="p3c2b9d6dc5">
   <rect x="57.6" y="41.472" width="357.12" height="266.112"/>
  </clipPath>
 </defs>
</svg>
