<?xml version="1.0" encoding="utf-8" standalone="no"?>
<!DOCTYPE svg PUBLIC "-//W3C//DTD SVG 1.1//EN"
  "http://www.w3.org/Graphics/SVG/1.1/DTD/svg11.dtd">
<svg xmlns:xlink="http://www.w3.org/1999/xlink" width="720pt" height="432pt" viewBox="0 0 720 432" xmlns="http://www.w3.org/2000/svg" version="1.1">
 <metadata>
  <rdf:RDF xmlns:dc="http://purl.org/dc/elements/1.1/" xmlns:cc="http://creativecommons.org/ns#" xmlns:rdf="http://www.w3.org/1999/02/22-rdf-syntax-ns#">
   <cc:Work>
    <dc:type rdf:resource="http://purl.org/dc/dcmitype/StillImage"/>
    <dc:date>2025-08-22T11:28:12.472084</dc:date>
    <dc:format>image/svg+xml</dc:format>
    <dc:creator>
     <cc:Agent>
      <dc:title>Matplotlib v3.9.4, https://matplotlib.org/</dc:title>
     </cc:Agent>
    </dc:creator>
   </cc:Work>
  </rdf:RDF>
 </metadata>
 <defs>
  <style type="text/css">*{stroke-linejoin: round; stroke-linecap: butt}</style>
 </defs>
 <g id="figure_1">
  <g id="patch_1">
   <path d="M 0 432 
L 720 432 
L 720 0 
L 0 0 
z
" style="fill: #ffffff"/>
  </g>
  <g id="axes_1">
   <g id="patch_2">
    <path d="M 69.57 378.18 
L 607.76 378.18 
L 607.76 27.6 
L 69.57 27.6 
L 69.57 378.18 
z
" style="fill: none"/>
   </g>
   <g id="matplotlib.axis_1">
    <g id="xtick_1">
     <g id="text_1">
      <!-- −500 -->
      <g style="fill: #262626" transform="translate(67.155632 398.416719) scale(0.15 -0.15)">
       <defs>
        <path id="ArialMT-2212" d="M 3381 1997 
L 356 1997 
L 356 2522 
L 3381 2522 
L 3381 1997 
z
" transform="scale(0.015625)"/>
        <path id="ArialMT-35" d="M 266 1200 
L 856 1250 
Q 922 819 1161 601 
Q 1400 384 1738 384 
Q 2144 384 2425 690 
Q 2706 997 2706 1503 
Q 2706 1984 2436 2262 
Q 2166 2541 1728 2541 
Q 1456 2541 1237 2417 
Q 1019 2294 894 2097 
L 366 2166 
L 809 4519 
L 3088 4519 
L 3088 3981 
L 1259 3981 
L 1013 2750 
Q 1425 3038 1878 3038 
Q 2478 3038 2890 2622 
Q 3303 2206 3303 1553 
Q 3303 931 2941 478 
Q 2500 -78 1738 -78 
Q 1113 -78 717 272 
Q 322 622 266 1200 
z
" transform="scale(0.015625)"/>
        <path id="ArialMT-30" d="M 266 2259 
Q 266 3072 433 3567 
Q 600 4063 929 4331 
Q 1259 4600 1759 4600 
Q 2128 4600 2406 4451 
Q 2684 4303 2865 4023 
Q 3047 3744 3150 3342 
Q 3253 2941 3253 2259 
Q 3253 1453 3087 958 
Q 2922 463 2592 192 
Q 2263 -78 1759 -78 
Q 1097 -78 719 397 
Q 266 969 266 2259 
z
M 844 2259 
Q 844 1131 1108 757 
Q 1372 384 1759 384 
Q 2147 384 2411 759 
Q 2675 1134 2675 2259 
Q 2675 3391 2411 3762 
Q 2147 4134 1753 4134 
Q 1366 4134 1134 3806 
Q 844 3388 844 2259 
z
" transform="scale(0.015625)"/>
       </defs>
       <use xlink:href="#ArialMT-2212"/>
       <use xlink:href="#ArialMT-35" x="58.398438"/>
       <use xlink:href="#ArialMT-30" x="114.013672"/>
       <use xlink:href="#ArialMT-30" x="169.628906"/>
      </g>
     </g>
    </g>
    <g id="xtick_2">
     <g id="text_2">
      <!-- −250 -->
      <g style="fill: #262626" transform="translate(129.561708 398.416719) scale(0.15 -0.15)">
       <defs>
        <path id="ArialMT-32" d="M 3222 541 
L 3222 0 
L 194 0 
Q 188 203 259 391 
Q 375 700 629 1000 
Q 884 1300 1366 1694 
Q 2113 2306 2375 2664 
Q 2638 3022 2638 3341 
Q 2638 3675 2398 3904 
Q 2159 4134 1775 4134 
Q 1369 4134 1125 3890 
Q 881 3647 878 3216 
L 300 3275 
Q 359 3922 746 4261 
Q 1134 4600 1788 4600 
Q 2447 4600 2831 4234 
Q 3216 3869 3216 3328 
Q 3216 3053 3103 2787 
Q 2991 2522 2730 2228 
Q 2469 1934 1863 1422 
Q 1356 997 1212 845 
Q 1069 694 975 541 
L 3222 541 
z
" transform="scale(0.015625)"/>
       </defs>
       <use xlink:href="#ArialMT-2212"/>
       <use xlink:href="#ArialMT-32" x="58.398438"/>
       <use xlink:href="#ArialMT-35" x="114.013672"/>
       <use xlink:href="#ArialMT-30" x="169.628906"/>
      </g>
     </g>
    </g>
    <g id="xtick_3">
     <g id="text_3">
      <!-- 0 -->
      <g style="fill: #262626" transform="translate(204.689659 398.416719) scale(0.15 -0.15)">
       <use xlink:href="#ArialMT-30"/>
      </g>
     </g>
    </g>
    <g id="xtick_4">
     <g id="text_4">
      <!-- 250 -->
      <g style="fill: #262626" transform="translate(258.754328 398.416719) scale(0.15 -0.15)">
       <use xlink:href="#ArialMT-32"/>
       <use xlink:href="#ArialMT-35" x="55.615234"/>
       <use xlink:href="#ArialMT-30" x="111.230469"/>
      </g>
     </g>
    </g>
    <g id="xtick_5">
     <g id="text_5">
      <!-- 500 -->
      <g style="fill: #262626" transform="translate(321.160405 398.416719) scale(0.15 -0.15)">
       <use xlink:href="#ArialMT-35"/>
       <use xlink:href="#ArialMT-30" x="55.615234"/>
       <use xlink:href="#ArialMT-30" x="111.230469"/>
      </g>
     </g>
    </g>
    <g id="xtick_6">
     <g id="text_6">
      <!-- 750 -->
      <g style="fill: #262626" transform="translate(383.566481 398.416719) scale(0.15 -0.15)">
       <defs>
        <path id="ArialMT-37" d="M 303 3981 
L 303 4522 
L 3269 4522 
L 3269 4084 
Q 2831 3619 2401 2847 
Q 1972 2075 1738 1259 
Q 1569 684 1522 0 
L 944 0 
Q 953 541 1156 1306 
Q 1359 2072 1739 2783 
Q 2119 3494 2547 3981 
L 303 3981 
z
" transform="scale(0.015625)"/>
       </defs>
       <use xlink:href="#ArialMT-37"/>
       <use xlink:href="#ArialMT-35" x="55.615234"/>
       <use xlink:href="#ArialMT-30" x="111.230469"/>
      </g>
     </g>
    </g>
    <g id="xtick_7">
     <g id="text_7">
      <!-- 1000 -->
      <g style="fill: #262626" transform="translate(441.801854 398.416719) scale(0.15 -0.15)">
       <defs>
        <path id="ArialMT-31" d="M 2384 0 
L 1822 0 
L 1822 3584 
Q 1619 3391 1289 3197 
Q 959 3003 697 2906 
L 697 3450 
Q 1169 3672 1522 3987 
Q 1875 4303 2022 4600 
L 2384 4600 
L 2384 0 
z
" transform="scale(0.015625)"/>
       </defs>
       <use xlink:href="#ArialMT-31"/>
       <use xlink:href="#ArialMT-30" x="55.615234"/>
       <use xlink:href="#ArialMT-30" x="111.230469"/>
       <use xlink:href="#ArialMT-30" x="166.845703"/>
      </g>
     </g>
    </g>
    <g id="xtick_8">
     <g id="text_8">
      <!-- 1250 -->
      <g style="fill: #262626" transform="translate(504.20793 398.416719) scale(0.15 -0.15)">
       <use xlink:href="#ArialMT-31"/>
       <use xlink:href="#ArialMT-32" x="55.615234"/>
       <use xlink:href="#ArialMT-35" x="111.230469"/>
       <use xlink:href="#ArialMT-30" x="166.845703"/>
      </g>
     </g>
    </g>
    <g id="xtick_9">
     <g id="text_9">
      <!-- 1500 -->
      <g style="fill: #262626" transform="translate(566.614006 398.416719) scale(0.15 -0.15)">
       <use xlink:href="#ArialMT-31"/>
       <use xlink:href="#ArialMT-35" x="55.615234"/>
       <use xlink:href="#ArialMT-30" x="111.230469"/>
       <use xlink:href="#ArialMT-30" x="166.845703"/>
      </g>
     </g>
    </g>
    <g id="text_10">
     <!-- Time (s) -->
     <g style="fill: #262626" transform="translate(311.452891 416.3175) scale(0.15 -0.15)">
      <defs>
       <path id="ArialMT-54" d="M 1659 0 
L 1659 4041 
L 150 4041 
L 150 4581 
L 3781 4581 
L 3781 4041 
L 2266 4041 
L 2266 0 
L 1659 0 
z
" transform="scale(0.015625)"/>
       <path id="ArialMT-69" d="M 425 3934 
L 425 4581 
L 988 4581 
L 988 3934 
L 425 3934 
z
M 425 0 
L 425 3319 
L 988 3319 
L 988 0 
L 425 0 
z
" transform="scale(0.015625)"/>
       <path id="ArialMT-6d" d="M 422 0 
L 422 3319 
L 925 3319 
L 925 2853 
Q 1081 3097 1340 3245 
Q 1600 3394 1931 3394 
Q 2300 3394 2536 3241 
Q 2772 3088 2869 2813 
Q 3263 3394 3894 3394 
Q 4388 3394 4653 3120 
Q 4919 2847 4919 2278 
L 4919 0 
L 4359 0 
L 4359 2091 
Q 4359 2428 4304 2576 
Q 4250 2725 4106 2815 
Q 3963 2906 3769 2906 
Q 3419 2906 3187 2673 
Q 2956 2441 2956 1928 
L 2956 0 
L 2394 0 
L 2394 2156 
Q 2394 2531 2256 2718 
Q 2119 2906 1806 2906 
Q 1569 2906 1367 2781 
Q 1166 2656 1075 2415 
Q 984 2175 984 1722 
L 984 0 
L 422 0 
z
" transform="scale(0.015625)"/>
       <path id="ArialMT-65" d="M 2694 1069 
L 3275 997 
Q 3138 488 2766 206 
Q 2394 -75 1816 -75 
Q 1088 -75 661 373 
Q 234 822 234 1631 
Q 234 2469 665 2931 
Q 1097 3394 1784 3394 
Q 2450 3394 2872 2941 
Q 3294 2488 3294 1666 
Q 3294 1616 3291 1516 
L 816 1516 
Q 847 969 1125 678 
Q 1403 388 1819 388 
Q 2128 388 2347 550 
Q 2566 713 2694 1069 
z
M 847 1978 
L 2700 1978 
Q 2663 2397 2488 2606 
Q 2219 2931 1791 2931 
Q 1403 2931 1139 2672 
Q 875 2413 847 1978 
z
" transform="scale(0.015625)"/>
       <path id="ArialMT-20" transform="scale(0.015625)"/>
       <path id="ArialMT-28" d="M 1497 -1347 
Q 1031 -759 709 28 
Q 388 816 388 1659 
Q 388 2403 628 3084 
Q 909 3875 1497 4659 
L 1900 4659 
Q 1522 4009 1400 3731 
Q 1209 3300 1100 2831 
Q 966 2247 966 1656 
Q 966 153 1900 -1347 
L 1497 -1347 
z
" transform="scale(0.015625)"/>
       <path id="ArialMT-73" d="M 197 991 
L 753 1078 
Q 800 744 1014 566 
Q 1228 388 1613 388 
Q 2000 388 2187 545 
Q 2375 703 2375 916 
Q 2375 1106 2209 1216 
Q 2094 1291 1634 1406 
Q 1016 1563 777 1677 
Q 538 1791 414 1992 
Q 291 2194 291 2438 
Q 291 2659 392 2848 
Q 494 3038 669 3163 
Q 800 3259 1026 3326 
Q 1253 3394 1513 3394 
Q 1903 3394 2198 3281 
Q 2494 3169 2634 2976 
Q 2775 2784 2828 2463 
L 2278 2388 
Q 2241 2644 2061 2787 
Q 1881 2931 1553 2931 
Q 1166 2931 1000 2803 
Q 834 2675 834 2503 
Q 834 2394 903 2306 
Q 972 2216 1119 2156 
Q 1203 2125 1616 2013 
Q 2213 1853 2448 1751 
Q 2684 1650 2818 1456 
Q 2953 1263 2953 975 
Q 2953 694 2789 445 
Q 2625 197 2315 61 
Q 2006 -75 1616 -75 
Q 969 -75 630 194 
Q 291 463 197 991 
z
" transform="scale(0.015625)"/>
       <path id="ArialMT-29" d="M 791 -1347 
L 388 -1347 
Q 1322 153 1322 1656 
Q 1322 2244 1188 2822 
Q 1081 3291 891 3722 
Q 769 4003 388 4659 
L 791 4659 
Q 1378 3875 1659 3084 
Q 1900 2403 1900 1659 
Q 1900 816 1576 28 
Q 1253 -759 791 -1347 
z
" transform="scale(0.015625)"/>
      </defs>
      <use xlink:href="#ArialMT-54"/>
      <use xlink:href="#ArialMT-69" x="57.333984"/>
      <use xlink:href="#ArialMT-6d" x="79.550781"/>
      <use xlink:href="#ArialMT-65" x="162.851562"/>
      <use xlink:href="#ArialMT-20" x="218.466797"/>
      <use xlink:href="#ArialMT-28" x="246.25"/>
      <use xlink:href="#ArialMT-73" x="279.550781"/>
      <use xlink:href="#ArialMT-29" x="329.550781"/>
     </g>
    </g>
   </g>
   <g id="matplotlib.axis_2">
    <g id="ytick_1">
     <g id="text_11">
      <!-- −0.02 -->
      <g style="fill: #262626" transform="translate(22.117656 367.612905) scale(0.15 -0.15)">
       <defs>
        <path id="ArialMT-2e" d="M 581 0 
L 581 641 
L 1222 641 
L 1222 0 
L 581 0 
z
" transform="scale(0.015625)"/>
       </defs>
       <use xlink:href="#ArialMT-2212"/>
       <use xlink:href="#ArialMT-30" x="58.398438"/>
       <use xlink:href="#ArialMT-2e" x="114.013672"/>
       <use xlink:href="#ArialMT-30" x="141.796875"/>
       <use xlink:href="#ArialMT-32" x="197.412109"/>
      </g>
     </g>
    </g>
    <g id="ytick_2">
     <g id="text_12">
      <!-- 0.00 -->
      <g style="fill: #262626" transform="translate(30.878594 319.118601) scale(0.15 -0.15)">
       <use xlink:href="#ArialMT-30"/>
       <use xlink:href="#ArialMT-2e" x="55.615234"/>
       <use xlink:href="#ArialMT-30" x="83.398438"/>
       <use xlink:href="#ArialMT-30" x="139.013672"/>
      </g>
     </g>
    </g>
    <g id="ytick_3">
     <g id="text_13">
      <!-- 0.02 -->
      <g style="fill: #262626" transform="translate(30.878594 270.624296) scale(0.15 -0.15)">
       <use xlink:href="#ArialMT-30"/>
       <use xlink:href="#ArialMT-2e" x="55.615234"/>
       <use xlink:href="#ArialMT-30" x="83.398438"/>
       <use xlink:href="#ArialMT-32" x="139.013672"/>
      </g>
     </g>
    </g>
    <g id="ytick_4">
     <g id="text_14">
      <!-- 0.04 -->
      <g style="fill: #262626" transform="translate(30.878594 222.129992) scale(0.15 -0.15)">
       <defs>
        <path id="ArialMT-34" d="M 2069 0 
L 2069 1097 
L 81 1097 
L 81 1613 
L 2172 4581 
L 2631 4581 
L 2631 1613 
L 3250 1613 
L 3250 1097 
L 2631 1097 
L 2631 0 
L 2069 0 
z
M 2069 1613 
L 2069 3678 
L 634 1613 
L 2069 1613 
z
" transform="scale(0.015625)"/>
       </defs>
       <use xlink:href="#ArialMT-30"/>
       <use xlink:href="#ArialMT-2e" x="55.615234"/>
       <use xlink:href="#ArialMT-30" x="83.398438"/>
       <use xlink:href="#ArialMT-34" x="139.013672"/>
      </g>
     </g>
    </g>
    <g id="ytick_5">
     <g id="text_15">
      <!-- 0.06 -->
      <g style="fill: #262626" transform="translate(30.878594 173.635688) scale(0.15 -0.15)">
       <defs>
        <path id="ArialMT-36" d="M 3184 3459 
L 2625 3416 
Q 2550 3747 2413 3897 
Q 2184 4138 1850 4138 
Q 1581 4138 1378 3988 
Q 1113 3794 959 3422 
Q 806 3050 800 2363 
Q 1003 2672 1297 2822 
Q 1591 2972 1913 2972 
Q 2475 2972 2870 2558 
Q 3266 2144 3266 1488 
Q 3266 1056 3080 686 
Q 2894 316 2569 119 
Q 2244 -78 1831 -78 
Q 1128 -78 684 439 
Q 241 956 241 2144 
Q 241 3472 731 4075 
Q 1159 4600 1884 4600 
Q 2425 4600 2770 4297 
Q 3116 3994 3184 3459 
z
M 888 1484 
Q 888 1194 1011 928 
Q 1134 663 1356 523 
Q 1578 384 1822 384 
Q 2178 384 2434 671 
Q 2691 959 2691 1453 
Q 2691 1928 2437 2201 
Q 2184 2475 1800 2475 
Q 1419 2475 1153 2201 
Q 888 1928 888 1484 
z
" transform="scale(0.015625)"/>
       </defs>
       <use xlink:href="#ArialMT-30"/>
       <use xlink:href="#ArialMT-2e" x="55.615234"/>
       <use xlink:href="#ArialMT-30" x="83.398438"/>
       <use xlink:href="#ArialMT-36" x="139.013672"/>
      </g>
     </g>
    </g>
    <g id="ytick_6">
     <g id="text_16">
      <!-- 0.08 -->
      <g style="fill: #262626" transform="translate(30.878594 125.141384) scale(0.15 -0.15)">
       <defs>
        <path id="ArialMT-38" d="M 1131 2484 
Q 781 2613 612 2850 
Q 444 3088 444 3419 
Q 444 3919 803 4259 
Q 1163 4600 1759 4600 
Q 2359 4600 2725 4251 
Q 3091 3903 3091 3403 
Q 3091 3084 2923 2848 
Q 2756 2613 2416 2484 
Q 2838 2347 3058 2040 
Q 3278 1734 3278 1309 
Q 3278 722 2862 322 
Q 2447 -78 1769 -78 
Q 1091 -78 675 323 
Q 259 725 259 1325 
Q 259 1772 486 2073 
Q 713 2375 1131 2484 
z
M 1019 3438 
Q 1019 3113 1228 2906 
Q 1438 2700 1772 2700 
Q 2097 2700 2305 2904 
Q 2513 3109 2513 3406 
Q 2513 3716 2298 3927 
Q 2084 4138 1766 4138 
Q 1444 4138 1231 3931 
Q 1019 3725 1019 3438 
z
M 838 1322 
Q 838 1081 952 856 
Q 1066 631 1291 507 
Q 1516 384 1775 384 
Q 2178 384 2440 643 
Q 2703 903 2703 1303 
Q 2703 1709 2433 1975 
Q 2163 2241 1756 2241 
Q 1359 2241 1098 1978 
Q 838 1716 838 1322 
z
" transform="scale(0.015625)"/>
       </defs>
       <use xlink:href="#ArialMT-30"/>
       <use xlink:href="#ArialMT-2e" x="55.615234"/>
       <use xlink:href="#ArialMT-30" x="83.398438"/>
       <use xlink:href="#ArialMT-38" x="139.013672"/>
      </g>
     </g>
    </g>
    <g id="ytick_7">
     <g id="text_17">
      <!-- 0.10 -->
      <g style="fill: #262626" transform="translate(30.878594 76.64708) scale(0.15 -0.15)">
       <use xlink:href="#ArialMT-30"/>
       <use xlink:href="#ArialMT-2e" x="55.615234"/>
       <use xlink:href="#ArialMT-31" x="83.398438"/>
       <use xlink:href="#ArialMT-30" x="139.013672"/>
      </g>
     </g>
    </g>
    <g id="text_18">
     <!-- Divergence -->
     <g style="fill: #262626" transform="translate(14.960625 240.823594) rotate(-90) scale(0.15 -0.15)">
      <defs>
       <path id="ArialMT-44" d="M 494 0 
L 494 4581 
L 2072 4581 
Q 2606 4581 2888 4516 
Q 3281 4425 3559 4188 
Q 3922 3881 4101 3404 
Q 4281 2928 4281 2316 
Q 4281 1794 4159 1391 
Q 4038 988 3847 723 
Q 3656 459 3429 307 
Q 3203 156 2883 78 
Q 2563 0 2147 0 
L 494 0 
z
M 1100 541 
L 2078 541 
Q 2531 541 2789 625 
Q 3047 709 3200 863 
Q 3416 1078 3536 1442 
Q 3656 1806 3656 2325 
Q 3656 3044 3420 3430 
Q 3184 3816 2847 3947 
Q 2603 4041 2063 4041 
L 1100 4041 
L 1100 541 
z
" transform="scale(0.015625)"/>
       <path id="ArialMT-76" d="M 1344 0 
L 81 3319 
L 675 3319 
L 1388 1331 
Q 1503 1009 1600 663 
Q 1675 925 1809 1294 
L 2547 3319 
L 3125 3319 
L 1869 0 
L 1344 0 
z
" transform="scale(0.015625)"/>
       <path id="ArialMT-72" d="M 416 0 
L 416 3319 
L 922 3319 
L 922 2816 
Q 1116 3169 1280 3281 
Q 1444 3394 1641 3394 
Q 1925 3394 2219 3213 
L 2025 2691 
Q 1819 2813 1613 2813 
Q 1428 2813 1281 2702 
Q 1134 2591 1072 2394 
Q 978 2094 978 1738 
L 978 0 
L 416 0 
z
" transform="scale(0.015625)"/>
       <path id="ArialMT-67" d="M 319 -275 
L 866 -356 
Q 900 -609 1056 -725 
Q 1266 -881 1628 -881 
Q 2019 -881 2231 -725 
Q 2444 -569 2519 -288 
Q 2563 -116 2559 434 
Q 2191 0 1641 0 
Q 956 0 581 494 
Q 206 988 206 1678 
Q 206 2153 378 2554 
Q 550 2956 876 3175 
Q 1203 3394 1644 3394 
Q 2231 3394 2613 2919 
L 2613 3319 
L 3131 3319 
L 3131 450 
Q 3131 -325 2973 -648 
Q 2816 -972 2473 -1159 
Q 2131 -1347 1631 -1347 
Q 1038 -1347 672 -1080 
Q 306 -813 319 -275 
z
M 784 1719 
Q 784 1066 1043 766 
Q 1303 466 1694 466 
Q 2081 466 2343 764 
Q 2606 1063 2606 1700 
Q 2606 2309 2336 2618 
Q 2066 2928 1684 2928 
Q 1309 2928 1046 2623 
Q 784 2319 784 1719 
z
" transform="scale(0.015625)"/>
       <path id="ArialMT-6e" d="M 422 0 
L 422 3319 
L 928 3319 
L 928 2847 
Q 1294 3394 1984 3394 
Q 2284 3394 2536 3286 
Q 2788 3178 2913 3003 
Q 3038 2828 3088 2588 
Q 3119 2431 3119 2041 
L 3119 0 
L 2556 0 
L 2556 2019 
Q 2556 2363 2490 2533 
Q 2425 2703 2258 2804 
Q 2091 2906 1866 2906 
Q 1506 2906 1245 2678 
Q 984 2450 984 1813 
L 984 0 
L 422 0 
z
" transform="scale(0.015625)"/>
       <path id="ArialMT-63" d="M 2588 1216 
L 3141 1144 
Q 3050 572 2676 248 
Q 2303 -75 1759 -75 
Q 1078 -75 664 370 
Q 250 816 250 1647 
Q 250 2184 428 2587 
Q 606 2991 970 3192 
Q 1334 3394 1763 3394 
Q 2303 3394 2647 3120 
Q 2991 2847 3088 2344 
L 2541 2259 
Q 2463 2594 2264 2762 
Q 2066 2931 1784 2931 
Q 1359 2931 1093 2626 
Q 828 2322 828 1663 
Q 828 994 1084 691 
Q 1341 388 1753 388 
Q 2084 388 2306 591 
Q 2528 794 2588 1216 
z
" transform="scale(0.015625)"/>
      </defs>
      <use xlink:href="#ArialMT-44"/>
      <use xlink:href="#ArialMT-69" x="72.216797"/>
      <use xlink:href="#ArialMT-76" x="94.433594"/>
      <use xlink:href="#ArialMT-65" x="144.433594"/>
      <use xlink:href="#ArialMT-72" x="200.048828"/>
      <use xlink:href="#ArialMT-67" x="233.349609"/>
      <use xlink:href="#ArialMT-65" x="288.964844"/>
      <use xlink:href="#ArialMT-6e" x="344.580078"/>
      <use xlink:href="#ArialMT-63" x="400.195312"/>
      <use xlink:href="#ArialMT-65" x="450.195312"/>
     </g>
    </g>
   </g>
   <g id="PolyCollection_1">
    <defs>
     <path id="m7a7323ca69" d="M 94.033182 -132.445745 
L 94.033182 -102.170538 
L 104.018154 -115.10309 
L 114.003126 -114.878039 
L 123.988098 -114.598834 
L 133.973071 -113.74816 
L 143.958043 -116.41286 
L 153.943015 -116.776634 
L 163.927987 -113.932162 
L 173.912959 -114.322367 
L 183.897931 -116.181649 
L 193.882904 -117.615123 
L 203.867876 -113.839568 
L 213.852848 -110.683518 
L 223.83782 -110.236853 
L 233.822792 -103.664249 
L 243.807764 -107.497979 
L 253.792737 -115.657698 
L 263.777709 -107.228604 
L 273.762681 -114.558835 
L 283.747653 -122.49339 
L 293.732625 -124.304745 
L 303.717597 -136.367413 
L 313.70257 -152.711393 
L 323.687542 -128.874359 
L 333.672514 -113.777027 
L 343.657486 -126.4256 
L 353.642458 -129.436165 
L 363.62743 -118.707951 
L 373.612403 -113.516815 
L 383.597375 -126.641407 
L 393.582347 -145.910238 
L 403.567319 -152.447692 
L 413.552291 -149.019841 
L 423.537263 -115.438024 
L 433.522236 -109.184378 
L 443.507208 -143.30815 
L 453.49218 -144.756984 
L 463.477152 -124.879292 
L 473.462124 -114.917574 
L 483.447096 -120.736567 
L 493.432069 -116.794876 
L 503.417041 -125.454044 
L 513.402013 -123.56196 
L 523.386985 -121.731679 
L 533.371957 -113.52373 
L 543.356929 -118.988391 
L 553.341902 -119.692947 
L 563.326874 -116.568339 
L 573.311846 -120.729755 
L 583.296818 -116.69971 
L 583.296818 -120.561806 
L 583.296818 -120.561806 
L 573.311846 -124.753238 
L 563.326874 -121.945687 
L 553.341902 -124.883279 
L 543.356929 -123.432868 
L 533.371957 -120.021981 
L 523.386985 -126.333354 
L 513.402013 -132.785722 
L 503.417041 -133.865501 
L 493.432069 -124.858473 
L 483.447096 -127.174806 
L 473.462124 -119.273617 
L 463.477152 -130.818105 
L 453.49218 -157.20801 
L 443.507208 -157.325074 
L 433.522236 -122.998348 
L 423.537263 -127.147398 
L 413.552291 -160.576233 
L 403.567319 -165.890495 
L 393.582347 -160.251255 
L 383.597375 -142.329179 
L 373.612403 -131.653818 
L 363.62743 -133.722297 
L 353.642458 -143.534751 
L 343.657486 -140.198406 
L 333.672514 -124.842807 
L 323.687542 -141.860271 
L 313.70257 -167.18678 
L 303.717597 -150.20249 
L 293.732625 -136.136897 
L 283.747653 -133.10451 
L 273.762681 -126.113779 
L 263.777709 -119.624474 
L 253.792737 -126.801471 
L 243.807764 -117.495726 
L 233.822792 -115.648149 
L 223.83782 -121.034525 
L 213.852848 -120.395721 
L 203.867876 -118.989114 
L 193.882904 -120.606725 
L 183.897931 -120.132143 
L 173.912959 -119.024032 
L 163.927987 -118.693051 
L 153.943015 -119.614327 
L 143.958043 -119.503809 
L 133.973071 -117.132069 
L 123.988098 -117.869872 
L 114.003126 -118.719327 
L 104.018154 -118.552351 
L 94.033182 -132.445745 
z
" style="stroke: #00008b; stroke-opacity: 0.1"/>
    </defs>
    <g clip-path="url(#p72d59f7c7b)">
     <use xlink:href="#m7a7323ca69" x="0" y="432" style="fill: #00008b; fill-opacity: 0.1; stroke: #00008b; stroke-opacity: 0.1"/>
    </g>
   </g>
   <g id="PolyCollection_2">
    <defs>
     <path id="mcb15721b20" d="M 94.033182 -127.869451 
L 94.033182 -119.963153 
L 104.018154 -117.841546 
L 114.003126 -117.946233 
L 123.988098 -117.97999 
L 133.973071 -117.043839 
L 143.958043 -118.061523 
L 153.943015 -118.16208 
L 163.927987 -117.618707 
L 173.912959 -118.29868 
L 183.897931 -117.701325 
L 193.882904 -117.16488 
L 203.867876 -117.320903 
L 213.852848 -116.893982 
L 223.83782 -118.462079 
L 233.822792 -117.855252 
L 243.807764 -115.576661 
L 253.792737 -118.843168 
L 263.777709 -120.918613 
L 273.762681 -122.818345 
L 283.747653 -126.667815 
L 293.732625 -126.097961 
L 303.717597 -122.430819 
L 313.70257 -120.415484 
L 323.687542 -124.181811 
L 333.672514 -133.28711 
L 343.657486 -141.048134 
L 353.642458 -147.081575 
L 363.62743 -149.853519 
L 373.612403 -152.394557 
L 383.597375 -152.560988 
L 393.582347 -147.158542 
L 403.567319 -142.815936 
L 413.552291 -150.144689 
L 423.537263 -156.856147 
L 433.522236 -155.925846 
L 443.507208 -147.316528 
L 453.49218 -137.337717 
L 463.477152 -127.051572 
L 473.462124 -121.701409 
L 483.447096 -122.168022 
L 493.432069 -121.534667 
L 503.417041 -121.163157 
L 513.402013 -119.658205 
L 523.386985 -118.480883 
L 533.371957 -119.176653 
L 543.356929 -119.884215 
L 553.341902 -120.695888 
L 563.326874 -120.478529 
L 573.311846 -120.546194 
L 583.296818 -119.761103 
L 583.296818 -122.015918 
L 583.296818 -122.015918 
L 573.311846 -121.815652 
L 563.326874 -122.266974 
L 553.341902 -123.512538 
L 543.356929 -121.13033 
L 533.371957 -120.218145 
L 523.386985 -119.536792 
L 513.402013 -120.841153 
L 503.417041 -124.439715 
L 493.432069 -125.919242 
L 483.447096 -131.938964 
L 473.462124 -122.990389 
L 463.477152 -129.233041 
L 453.49218 -140.636925 
L 443.507208 -151.759522 
L 433.522236 -160.650803 
L 423.537263 -161.590448 
L 413.552291 -154.548919 
L 403.567319 -147.247595 
L 393.582347 -151.330921 
L 383.597375 -156.837154 
L 373.612403 -156.624792 
L 363.62743 -154.027621 
L 353.642458 -151.098913 
L 343.657486 -144.838712 
L 333.672514 -137.237881 
L 323.687542 -128.381109 
L 313.70257 -124.524734 
L 303.717597 -126.489241 
L 293.732625 -130.027457 
L 283.747653 -130.691816 
L 273.762681 -126.230966 
L 263.777709 -124.295403 
L 253.792737 -121.80652 
L 243.807764 -118.475788 
L 233.822792 -120.266256 
L 223.83782 -121.110585 
L 213.852848 -119.364241 
L 203.867876 -118.197368 
L 193.882904 -118.176717 
L 183.897931 -118.49563 
L 173.912959 -119.115427 
L 163.927987 -118.828475 
L 153.943015 -118.852362 
L 143.958043 -118.808789 
L 133.973071 -118.030554 
L 123.988098 -119.090285 
L 114.003126 -118.708301 
L 104.018154 -118.54325 
L 94.033182 -127.869451 
z
" style="stroke: #00008b; stroke-opacity: 0.1"/>
    </defs>
    <g clip-path="url(#p72d59f7c7b)">
     <use xlink:href="#mcb15721b20" x="0" y="432" style="fill: #00008b; fill-opacity: 0.1; stroke: #00008b; stroke-opacity: 0.1"/>
    </g>
   </g>
   <g id="PathCollection_1">
    <defs>
     <path id="md5e186482b" d="M 0 -3 
L -0.673542 -0.927051 
L -2.85317 -0.927051 
L -1.089814 0.354102 
L -1.763356 2.427051 
L -0 1.145898 
L 1.763356 2.427051 
L 1.089814 0.354102 
L 2.85317 -0.927051 
L 0.673542 -0.927051 
z
" style="stroke: #00008b"/>
    </defs>
    <g clip-path="url(#p72d59f7c7b)">
     <use xlink:href="#md5e186482b" x="303.717597" y="337.997393" style="fill: #00008b; stroke: #00008b"/>
     <use xlink:href="#md5e186482b" x="313.70257" y="337.997393" style="fill: #00008b; stroke: #00008b"/>
     <use xlink:href="#md5e186482b" x="403.567319" y="337.997393" style="fill: #00008b; stroke: #00008b"/>
     <use xlink:href="#md5e186482b" x="453.49218" y="337.997393" style="fill: #00008b; stroke: #00008b"/>
     <use xlink:href="#md5e186482b" x="513.402013" y="337.997393" style="fill: #00008b; stroke: #00008b"/>
     <use xlink:href="#md5e186482b" x="523.386985" y="337.997393" style="fill: #00008b; stroke: #00008b"/>
    </g>
   </g>
   <g id="PolyCollection_3">
    <defs>
     <path id="mc4a5a59801" d="M 94.033182 -142.222297 
L 94.033182 -104.35249 
L 104.018154 -127.637523 
L 114.003126 -143.194246 
L 123.988098 -122.333058 
L 133.973071 -99.859222 
L 143.958043 -110.591255 
L 153.943015 -111.524257 
L 163.927987 -98.860782 
L 173.912959 -92.613479 
L 183.897931 -94.062885 
L 193.882904 -90.659356 
L 203.867876 -88.011816 
L 213.852848 -91.812154 
L 223.83782 -100.221039 
L 233.822792 -109.53439 
L 243.807764 -110.609479 
L 253.792737 -111.383248 
L 263.777709 -109.754078 
L 273.762681 -107.701304 
L 283.747653 -109.197206 
L 293.732625 -109.014053 
L 303.717597 -110.8783 
L 313.70257 -114.838416 
L 323.687542 -121.126212 
L 333.672514 -124.089973 
L 343.657486 -129.769308 
L 353.642458 -137.211631 
L 363.62743 -146.866766 
L 373.612403 -156.417968 
L 383.597375 -169.245905 
L 393.582347 -180.982595 
L 403.567319 -193.941458 
L 413.552291 -201.807736 
L 423.537263 -204.967393 
L 433.522236 -205.610631 
L 443.507208 -205.559971 
L 453.49218 -207.4642 
L 463.477152 -213.457436 
L 473.462124 -236.90192 
L 483.447096 -251.570136 
L 493.432069 -262.650776 
L 503.417041 -272.353116 
L 513.402013 -278.940617 
L 523.386985 -287.64486 
L 533.371957 -295.462166 
L 543.356929 -299.505824 
L 553.341902 -299.229525 
L 563.326874 -300.116356 
L 573.311846 -300.731299 
L 583.296818 -297.103553 
L 583.296818 -383.816558 
L 583.296818 -383.816558 
L 573.311846 -388.009398 
L 563.326874 -388.101216 
L 553.341902 -387.819062 
L 543.356929 -388.464545 
L 533.371957 -383.393187 
L 523.386985 -373.091398 
L 513.402013 -360.684305 
L 503.417041 -349.318703 
L 493.432069 -333.771878 
L 483.447096 -315.43992 
L 473.462124 -290.458998 
L 463.477152 -259.452362 
L 453.49218 -253.08129 
L 443.507208 -250.809163 
L 433.522236 -250.387422 
L 423.537263 -249.987355 
L 413.552291 -248.106581 
L 403.567319 -242.027166 
L 393.582347 -230.644047 
L 383.597375 -219.256565 
L 373.612403 -205.050518 
L 363.62743 -191.836095 
L 353.642458 -174.231224 
L 343.657486 -156.601285 
L 333.672514 -143.147566 
L 323.687542 -133.971889 
L 313.70257 -125.252592 
L 303.717597 -121.227448 
L 293.732625 -119.441407 
L 283.747653 -119.432161 
L 273.762681 -118.510101 
L 263.777709 -120.621695 
L 253.792737 -121.446054 
L 243.807764 -120.839412 
L 233.822792 -121.115811 
L 223.83782 -117.44322 
L 213.852848 -112.780212 
L 203.867876 -111.406347 
L 193.882904 -116.623113 
L 183.897931 -123.514512 
L 173.912959 -125.296082 
L 163.927987 -134.02646 
L 153.943015 -147.310755 
L 143.958043 -147.472708 
L 133.973071 -138.121455 
L 123.988098 -167.437211 
L 114.003126 -195.56418 
L 104.018154 -179.266021 
L 94.033182 -142.222297 
z
" style="stroke: #6060eb; stroke-opacity: 0.1"/>
    </defs>
    <g clip-path="url(#p72d59f7c7b)">
     <use xlink:href="#mc4a5a59801" x="0" y="432" style="fill: #6060eb; fill-opacity: 0.1; stroke: #6060eb; stroke-opacity: 0.1"/>
    </g>
   </g>
   <g id="PolyCollection_4">
    <defs>
     <path id="m71b557ef96" d="M 94.033182 -122.748634 
L 94.033182 -114.111866 
L 104.018154 -107.490464 
L 114.003126 -105.860474 
L 123.988098 -105.52617 
L 133.973071 -107.205666 
L 143.958043 -112.789695 
L 153.943015 -112.050271 
L 163.927987 -111.854017 
L 173.912959 -114.386074 
L 183.897931 -119.167433 
L 193.882904 -116.952696 
L 203.867876 -117.592127 
L 213.852848 -118.311424 
L 223.83782 -117.269189 
L 233.822792 -116.641948 
L 243.807764 -117.840739 
L 253.792737 -119.079069 
L 263.777709 -120.189687 
L 273.762681 -120.137987 
L 283.747653 -120.115296 
L 293.732625 -120.093983 
L 303.717597 -121.397023 
L 313.70257 -123.829875 
L 323.687542 -126.000935 
L 333.672514 -127.208441 
L 343.657486 -129.177855 
L 353.642458 -131.017508 
L 363.62743 -132.722536 
L 373.612403 -134.046299 
L 383.597375 -135.255024 
L 393.582347 -135.944741 
L 403.567319 -136.799265 
L 413.552291 -136.791497 
L 423.537263 -136.261415 
L 433.522236 -135.88889 
L 443.507208 -135.685498 
L 453.49218 -135.457039 
L 463.477152 -135.469346 
L 473.462124 -137.062933 
L 483.447096 -137.738748 
L 493.432069 -138.461027 
L 503.417041 -138.473406 
L 513.402013 -139.859487 
L 523.386985 -140.941087 
L 533.371957 -141.758743 
L 543.356929 -142.91982 
L 553.341902 -143.952307 
L 563.326874 -145.509786 
L 573.311846 -147.282837 
L 583.296818 -145.900176 
L 583.296818 -155.692121 
L 583.296818 -155.692121 
L 573.311846 -157.214539 
L 563.326874 -155.392557 
L 553.341902 -153.619826 
L 543.356929 -152.415694 
L 533.371957 -150.756767 
L 523.386985 -149.681192 
L 513.402013 -148.27863 
L 503.417041 -146.279766 
L 493.432069 -145.632178 
L 483.447096 -144.307622 
L 473.462124 -143.102924 
L 463.477152 -141.071118 
L 453.49218 -141.295599 
L 443.507208 -141.61374 
L 433.522236 -141.733932 
L 423.537263 -142.25159 
L 413.552291 -142.988354 
L 403.567319 -143.206352 
L 393.582347 -142.344312 
L 383.597375 -141.718839 
L 373.612403 -140.164693 
L 363.62743 -138.336513 
L 353.642458 -135.797606 
L 343.657486 -133.243255 
L 333.672514 -130.924684 
L 323.687542 -129.523547 
L 313.70257 -127.096979 
L 303.717597 -124.480649 
L 293.732625 -122.967611 
L 283.747653 -122.89099 
L 273.762681 -122.646456 
L 263.777709 -122.526819 
L 253.792737 -121.715682 
L 243.807764 -120.826847 
L 233.822792 -120.21367 
L 223.83782 -121.332457 
L 213.852848 -122.508999 
L 203.867876 -122.51201 
L 193.882904 -122.126074 
L 183.897931 -125.225369 
L 173.912959 -121.095663 
L 163.927987 -119.332152 
L 153.943015 -120.398482 
L 143.958043 -121.700619 
L 133.973071 -117.608106 
L 123.988098 -117.194963 
L 114.003126 -117.603715 
L 104.018154 -118.532179 
L 94.033182 -122.748634 
z
" style="stroke: #6060eb; stroke-opacity: 0.1"/>
    </defs>
    <g clip-path="url(#p72d59f7c7b)">
     <use xlink:href="#m71b557ef96" x="0" y="432" style="fill: #6060eb; fill-opacity: 0.1; stroke: #6060eb; stroke-opacity: 0.1"/>
    </g>
   </g>
   <g id="PathCollection_2">
    <defs>
     <path id="mab1f763717" d="M 0 -3 
L -0.673542 -0.927051 
L -2.85317 -0.927051 
L -1.089814 0.354102 
L -1.763356 2.427051 
L -0 1.145898 
L 1.763356 2.427051 
L 1.089814 0.354102 
L 2.85317 -0.927051 
L 0.673542 -0.927051 
z
" style="stroke: #6060eb"/>
    </defs>
    <g clip-path="url(#p72d59f7c7b)">
     <use xlink:href="#mab1f763717" x="114.003126" y="362.244545" style="fill: #6060eb; stroke: #6060eb"/>
     <use xlink:href="#mab1f763717" x="373.612403" y="362.244545" style="fill: #6060eb; stroke: #6060eb"/>
     <use xlink:href="#mab1f763717" x="383.597375" y="362.244545" style="fill: #6060eb; stroke: #6060eb"/>
     <use xlink:href="#mab1f763717" x="393.582347" y="362.244545" style="fill: #6060eb; stroke: #6060eb"/>
     <use xlink:href="#mab1f763717" x="403.567319" y="362.244545" style="fill: #6060eb; stroke: #6060eb"/>
     <use xlink:href="#mab1f763717" x="413.552291" y="362.244545" style="fill: #6060eb; stroke: #6060eb"/>
     <use xlink:href="#mab1f763717" x="423.537263" y="362.244545" style="fill: #6060eb; stroke: #6060eb"/>
     <use xlink:href="#mab1f763717" x="433.522236" y="362.244545" style="fill: #6060eb; stroke: #6060eb"/>
     <use xlink:href="#mab1f763717" x="443.507208" y="362.244545" style="fill: #6060eb; stroke: #6060eb"/>
     <use xlink:href="#mab1f763717" x="453.49218" y="362.244545" style="fill: #6060eb; stroke: #6060eb"/>
     <use xlink:href="#mab1f763717" x="463.477152" y="362.244545" style="fill: #6060eb; stroke: #6060eb"/>
     <use xlink:href="#mab1f763717" x="473.462124" y="362.244545" style="fill: #6060eb; stroke: #6060eb"/>
     <use xlink:href="#mab1f763717" x="483.447096" y="362.244545" style="fill: #6060eb; stroke: #6060eb"/>
     <use xlink:href="#mab1f763717" x="493.432069" y="362.244545" style="fill: #6060eb; stroke: #6060eb"/>
     <use xlink:href="#mab1f763717" x="503.417041" y="362.244545" style="fill: #6060eb; stroke: #6060eb"/>
     <use xlink:href="#mab1f763717" x="513.402013" y="362.244545" style="fill: #6060eb; stroke: #6060eb"/>
     <use xlink:href="#mab1f763717" x="523.386985" y="362.244545" style="fill: #6060eb; stroke: #6060eb"/>
     <use xlink:href="#mab1f763717" x="533.371957" y="362.244545" style="fill: #6060eb; stroke: #6060eb"/>
     <use xlink:href="#mab1f763717" x="543.356929" y="362.244545" style="fill: #6060eb; stroke: #6060eb"/>
     <use xlink:href="#mab1f763717" x="553.341902" y="362.244545" style="fill: #6060eb; stroke: #6060eb"/>
     <use xlink:href="#mab1f763717" x="563.326874" y="362.244545" style="fill: #6060eb; stroke: #6060eb"/>
     <use xlink:href="#mab1f763717" x="573.311846" y="362.244545" style="fill: #6060eb; stroke: #6060eb"/>
     <use xlink:href="#mab1f763717" x="583.296818" y="362.244545" style="fill: #6060eb; stroke: #6060eb"/>
    </g>
   </g>
   <g id="line2d_1">
    <path d="M 94.033182 314.691858 
L 104.018154 315.17228 
L 114.003126 315.201317 
L 123.988098 315.765647 
L 133.973071 316.559886 
L 143.958043 314.041665 
L 153.943015 313.804519 
L 163.927987 315.687394 
L 173.912959 315.326801 
L 183.897931 313.843104 
L 193.882904 312.889076 
L 203.867876 315.585659 
L 213.852848 316.46038 
L 223.83782 316.364311 
L 233.822792 322.343801 
L 243.807764 319.503148 
L 253.792737 310.770415 
L 263.777709 318.573461 
L 273.762681 311.663693 
L 283.747653 304.20105 
L 293.732625 301.779179 
L 303.717597 288.715049 
L 313.70257 272.050914 
L 323.687542 296.632685 
L 333.672514 312.690083 
L 343.657486 298.687997 
L 353.642458 295.514542 
L 363.62743 305.784876 
L 373.612403 309.414683 
L 383.597375 297.514707 
L 393.582347 278.919254 
L 403.567319 272.830907 
L 413.552291 277.201963 
L 423.537263 310.707289 
L 433.522236 315.908637 
L 443.507208 281.683388 
L 453.49218 281.017503 
L 463.477152 304.151302 
L 473.462124 314.904404 
L 483.447096 308.044313 
L 493.432069 311.173326 
L 503.417041 302.340228 
L 513.402013 303.826159 
L 523.386985 307.967484 
L 533.371957 315.227144 
L 543.356929 310.789371 
L 553.341902 309.711887 
L 563.326874 312.742987 
L 573.311846 309.258504 
L 583.296818 313.369242 
" clip-path="url(#p72d59f7c7b)" style="fill: none; stroke: #00008b; stroke-width: 2; stroke-linecap: round"/>
   </g>
   <g id="line2d_2">
    <path d="M 94.033182 308.083698 
L 104.018154 313.807602 
L 114.003126 313.672733 
L 123.988098 313.464863 
L 133.973071 314.462803 
L 143.958043 313.564844 
L 153.943015 313.492779 
L 163.927987 313.776409 
L 173.912959 313.292946 
L 183.897931 313.901522 
L 193.882904 314.329201 
L 203.867876 314.240864 
L 213.852848 313.870888 
L 223.83782 312.213668 
L 233.822792 312.939246 
L 243.807764 314.973776 
L 253.792737 311.675156 
L 263.777709 309.392992 
L 273.762681 307.475344 
L 283.747653 303.320185 
L 293.732625 303.937291 
L 303.717597 307.53997 
L 313.70257 309.529891 
L 323.687542 305.71854 
L 333.672514 296.737505 
L 343.657486 289.056577 
L 353.642458 282.909756 
L 363.62743 280.05943 
L 373.612403 277.490326 
L 383.597375 277.300929 
L 393.582347 282.755269 
L 403.567319 286.968235 
L 413.552291 279.653196 
L 423.537263 272.776703 
L 433.522236 273.711675 
L 443.507208 282.461975 
L 453.49218 293.012679 
L 463.477152 303.857693 
L 473.462124 309.654101 
L 483.447096 304.946507 
L 493.432069 308.273045 
L 503.417041 309.198564 
L 513.402013 311.750321 
L 523.386985 312.991162 
L 533.371957 312.302601 
L 543.356929 311.492727 
L 553.341902 309.895787 
L 563.326874 310.627248 
L 573.311846 310.819077 
L 583.296818 311.11149 
" clip-path="url(#p72d59f7c7b)" style="fill: none; stroke-dasharray: 7.4,3.2; stroke-dashoffset: 0; stroke: #00008b; stroke-width: 2"/>
   </g>
   <g id="line2d_3">
    <path d="M 208.860362 378.18 
L 208.860362 27.6 
" clip-path="url(#p72d59f7c7b)" style="fill: none; stroke-dasharray: 5.55,2.4; stroke-dashoffset: 0; stroke: #1a1a1a; stroke-width: 1.5"/>
   </g>
   <g id="line2d_4">
    <path d="M 458.484666 378.18 
L 458.484666 27.6 
" clip-path="url(#p72d59f7c7b)" style="fill: none; stroke-dasharray: 5.55,2.4; stroke-dashoffset: 0; stroke: #1a1a1a; stroke-width: 1.5"/>
   </g>
   <g id="line2d_5">
    <path d="M 94.033182 308.712607 
L 104.018154 278.548228 
L 114.003126 262.620787 
L 123.988098 287.114865 
L 133.973071 313.009662 
L 143.958043 302.968019 
L 153.943015 302.582494 
L 163.927987 315.556379 
L 173.912959 323.045219 
L 183.897931 323.211302 
L 193.882904 328.358766 
L 203.867876 332.290918 
L 213.852848 329.703817 
L 223.83782 323.167871 
L 233.822792 316.6749 
L 243.807764 316.275554 
L 253.792737 315.585349 
L 263.777709 316.812113 
L 273.762681 318.894297 
L 283.747653 317.685316 
L 293.732625 317.77227 
L 303.717597 315.947126 
L 313.70257 311.954496 
L 323.687542 304.450949 
L 333.672514 298.381231 
L 343.657486 288.814703 
L 353.642458 276.278572 
L 363.62743 262.64857 
L 373.612403 251.265757 
L 383.597375 237.748765 
L 393.582347 226.186679 
L 403.567319 214.015688 
L 413.552291 207.042841 
L 423.537263 204.522626 
L 433.522236 204.000974 
L 443.507208 203.815433 
L 453.49218 201.727255 
L 463.477152 195.545101 
L 473.462124 168.319541 
L 483.447096 148.494972 
L 493.432069 133.788673 
L 503.417041 121.16409 
L 513.402013 112.187539 
L 523.386985 101.631871 
L 533.371957 92.572324 
L 543.356929 88.014815 
L 553.341902 88.475706 
L 563.326874 87.891214 
L 573.311846 87.629651 
L 583.296818 91.539945 
" clip-path="url(#p72d59f7c7b)" style="fill: none; stroke: #6060eb; stroke-width: 2; stroke-linecap: round"/>
   </g>
   <g id="line2d_6">
    <path d="M 94.033182 313.56975 
L 104.018154 318.988678 
L 114.003126 320.267906 
L 123.988098 320.639433 
L 133.973071 319.593114 
L 143.958043 314.754843 
L 153.943015 315.775624 
L 163.927987 316.406915 
L 173.912959 314.259132 
L 183.897931 309.803599 
L 193.882904 312.460615 
L 203.867876 311.947932 
L 213.852848 311.589789 
L 223.83782 312.699177 
L 233.822792 313.572191 
L 243.807764 312.666207 
L 253.792737 311.602624 
L 263.777709 310.641747 
L 273.762681 310.607779 
L 283.747653 310.496857 
L 293.732625 310.469203 
L 303.717597 309.061164 
L 313.70257 306.536573 
L 323.687542 304.237759 
L 333.672514 302.933438 
L 343.657486 300.789445 
L 353.642458 298.592443 
L 363.62743 296.470475 
L 373.612403 294.894504 
L 383.597375 293.513068 
L 393.582347 292.855473 
L 403.567319 291.997191 
L 413.552291 292.110075 
L 423.537263 292.743498 
L 433.522236 293.188589 
L 443.507208 293.350381 
L 453.49218 293.623681 
L 463.477152 293.729768 
L 473.462124 291.917072 
L 483.447096 290.976815 
L 493.432069 289.953397 
L 503.417041 289.623414 
L 513.402013 287.930942 
L 523.386985 286.688861 
L 533.371957 285.742245 
L 543.356929 284.332243 
L 553.341902 283.213933 
L 563.326874 281.548828 
L 573.311846 279.751312 
L 583.296818 281.203852 
" clip-path="url(#p72d59f7c7b)" style="fill: none; stroke-dasharray: 7.4,3.2; stroke-dashoffset: 0; stroke: #6060eb; stroke-width: 2"/>
   </g>
   <g id="line2d_7">
    <path d="M 208.860362 378.18 
L 208.860362 27.6 
" clip-path="url(#p72d59f7c7b)" style="fill: none; stroke-dasharray: 5.55,2.4; stroke-dashoffset: 0; stroke: #1a1a1a; stroke-width: 1.5"/>
   </g>
   <g id="line2d_8">
    <path d="M 458.484666 378.18 
L 458.484666 27.6 
" clip-path="url(#p72d59f7c7b)" style="fill: none; stroke-dasharray: 5.55,2.4; stroke-dashoffset: 0; stroke: #1a1a1a; stroke-width: 1.5"/>
   </g>
   <g id="patch_3">
    <path d="M 69.57 378.18 
L 69.57 27.6 
" style="fill: none; stroke: #cccccc; stroke-width: 1.5; stroke-linejoin: miter; stroke-linecap: square"/>
   </g>
   <g id="patch_4">
    <path d="M 69.57 378.18 
L 607.76 378.18 
" style="fill: none; stroke: #cccccc; stroke-width: 1.5; stroke-linejoin: miter; stroke-linecap: square"/>
   </g>
   <g id="text_19">
    <!-- Divergence Comparison: Original vs Shuffled -->
    <g style="fill: #262626" transform="translate(219.055 21.6) scale(0.12 -0.12)">
     <defs>
      <path id="ArialMT-43" d="M 3763 1606 
L 4369 1453 
Q 4178 706 3683 314 
Q 3188 -78 2472 -78 
Q 1731 -78 1267 223 
Q 803 525 561 1097 
Q 319 1669 319 2325 
Q 319 3041 592 3573 
Q 866 4106 1370 4382 
Q 1875 4659 2481 4659 
Q 3169 4659 3637 4309 
Q 4106 3959 4291 3325 
L 3694 3184 
Q 3534 3684 3231 3912 
Q 2928 4141 2469 4141 
Q 1941 4141 1586 3887 
Q 1231 3634 1087 3207 
Q 944 2781 944 2328 
Q 944 1744 1114 1308 
Q 1284 872 1643 656 
Q 2003 441 2422 441 
Q 2931 441 3284 734 
Q 3638 1028 3763 1606 
z
" transform="scale(0.015625)"/>
      <path id="ArialMT-6f" d="M 213 1659 
Q 213 2581 725 3025 
Q 1153 3394 1769 3394 
Q 2453 3394 2887 2945 
Q 3322 2497 3322 1706 
Q 3322 1066 3130 698 
Q 2938 331 2570 128 
Q 2203 -75 1769 -75 
Q 1072 -75 642 372 
Q 213 819 213 1659 
z
M 791 1659 
Q 791 1022 1069 705 
Q 1347 388 1769 388 
Q 2188 388 2466 706 
Q 2744 1025 2744 1678 
Q 2744 2294 2464 2611 
Q 2184 2928 1769 2928 
Q 1347 2928 1069 2612 
Q 791 2297 791 1659 
z
" transform="scale(0.015625)"/>
      <path id="ArialMT-70" d="M 422 -1272 
L 422 3319 
L 934 3319 
L 934 2888 
Q 1116 3141 1344 3267 
Q 1572 3394 1897 3394 
Q 2322 3394 2647 3175 
Q 2972 2956 3137 2557 
Q 3303 2159 3303 1684 
Q 3303 1175 3120 767 
Q 2938 359 2589 142 
Q 2241 -75 1856 -75 
Q 1575 -75 1351 44 
Q 1128 163 984 344 
L 984 -1272 
L 422 -1272 
z
M 931 1641 
Q 931 1000 1190 694 
Q 1450 388 1819 388 
Q 2194 388 2461 705 
Q 2728 1022 2728 1688 
Q 2728 2322 2467 2637 
Q 2206 2953 1844 2953 
Q 1484 2953 1207 2617 
Q 931 2281 931 1641 
z
" transform="scale(0.015625)"/>
      <path id="ArialMT-61" d="M 2588 409 
Q 2275 144 1986 34 
Q 1697 -75 1366 -75 
Q 819 -75 525 192 
Q 231 459 231 875 
Q 231 1119 342 1320 
Q 453 1522 633 1644 
Q 813 1766 1038 1828 
Q 1203 1872 1538 1913 
Q 2219 1994 2541 2106 
Q 2544 2222 2544 2253 
Q 2544 2597 2384 2738 
Q 2169 2928 1744 2928 
Q 1347 2928 1158 2789 
Q 969 2650 878 2297 
L 328 2372 
Q 403 2725 575 2942 
Q 747 3159 1072 3276 
Q 1397 3394 1825 3394 
Q 2250 3394 2515 3294 
Q 2781 3194 2906 3042 
Q 3031 2891 3081 2659 
Q 3109 2516 3109 2141 
L 3109 1391 
Q 3109 606 3145 398 
Q 3181 191 3288 0 
L 2700 0 
Q 2613 175 2588 409 
z
M 2541 1666 
Q 2234 1541 1622 1453 
Q 1275 1403 1131 1340 
Q 988 1278 909 1158 
Q 831 1038 831 891 
Q 831 666 1001 516 
Q 1172 366 1500 366 
Q 1825 366 2078 508 
Q 2331 650 2450 897 
Q 2541 1088 2541 1459 
L 2541 1666 
z
" transform="scale(0.015625)"/>
      <path id="ArialMT-3a" d="M 578 2678 
L 578 3319 
L 1219 3319 
L 1219 2678 
L 578 2678 
z
M 578 0 
L 578 641 
L 1219 641 
L 1219 0 
L 578 0 
z
" transform="scale(0.015625)"/>
      <path id="ArialMT-4f" d="M 309 2231 
Q 309 3372 921 4017 
Q 1534 4663 2503 4663 
Q 3138 4663 3647 4359 
Q 4156 4056 4423 3514 
Q 4691 2972 4691 2284 
Q 4691 1588 4409 1038 
Q 4128 488 3612 205 
Q 3097 -78 2500 -78 
Q 1853 -78 1343 234 
Q 834 547 571 1087 
Q 309 1628 309 2231 
z
M 934 2222 
Q 934 1394 1379 917 
Q 1825 441 2497 441 
Q 3181 441 3623 922 
Q 4066 1403 4066 2288 
Q 4066 2847 3877 3264 
Q 3688 3681 3323 3911 
Q 2959 4141 2506 4141 
Q 1863 4141 1398 3698 
Q 934 3256 934 2222 
z
" transform="scale(0.015625)"/>
      <path id="ArialMT-6c" d="M 409 0 
L 409 4581 
L 972 4581 
L 972 0 
L 409 0 
z
" transform="scale(0.015625)"/>
      <path id="ArialMT-53" d="M 288 1472 
L 859 1522 
Q 900 1178 1048 958 
Q 1197 738 1509 602 
Q 1822 466 2213 466 
Q 2559 466 2825 569 
Q 3091 672 3220 851 
Q 3350 1031 3350 1244 
Q 3350 1459 3225 1620 
Q 3100 1781 2813 1891 
Q 2628 1963 1997 2114 
Q 1366 2266 1113 2400 
Q 784 2572 623 2826 
Q 463 3081 463 3397 
Q 463 3744 659 4045 
Q 856 4347 1234 4503 
Q 1613 4659 2075 4659 
Q 2584 4659 2973 4495 
Q 3363 4331 3572 4012 
Q 3781 3694 3797 3291 
L 3216 3247 
Q 3169 3681 2898 3903 
Q 2628 4125 2100 4125 
Q 1550 4125 1298 3923 
Q 1047 3722 1047 3438 
Q 1047 3191 1225 3031 
Q 1400 2872 2139 2705 
Q 2878 2538 3153 2413 
Q 3553 2228 3743 1945 
Q 3934 1663 3934 1294 
Q 3934 928 3725 604 
Q 3516 281 3123 101 
Q 2731 -78 2241 -78 
Q 1619 -78 1198 103 
Q 778 284 539 648 
Q 300 1013 288 1472 
z
" transform="scale(0.015625)"/>
      <path id="ArialMT-68" d="M 422 0 
L 422 4581 
L 984 4581 
L 984 2938 
Q 1378 3394 1978 3394 
Q 2347 3394 2619 3248 
Q 2891 3103 3008 2847 
Q 3125 2591 3125 2103 
L 3125 0 
L 2563 0 
L 2563 2103 
Q 2563 2525 2380 2717 
Q 2197 2909 1863 2909 
Q 1613 2909 1392 2779 
Q 1172 2650 1078 2428 
Q 984 2206 984 1816 
L 984 0 
L 422 0 
z
" transform="scale(0.015625)"/>
      <path id="ArialMT-75" d="M 2597 0 
L 2597 488 
Q 2209 -75 1544 -75 
Q 1250 -75 995 37 
Q 741 150 617 320 
Q 494 491 444 738 
Q 409 903 409 1263 
L 409 3319 
L 972 3319 
L 972 1478 
Q 972 1038 1006 884 
Q 1059 663 1231 536 
Q 1403 409 1656 409 
Q 1909 409 2131 539 
Q 2353 669 2445 892 
Q 2538 1116 2538 1541 
L 2538 3319 
L 3100 3319 
L 3100 0 
L 2597 0 
z
" transform="scale(0.015625)"/>
      <path id="ArialMT-66" d="M 556 0 
L 556 2881 
L 59 2881 
L 59 3319 
L 556 3319 
L 556 3672 
Q 556 4006 616 4169 
Q 697 4388 901 4523 
Q 1106 4659 1475 4659 
Q 1713 4659 2000 4603 
L 1916 4113 
Q 1741 4144 1584 4144 
Q 1328 4144 1222 4034 
Q 1116 3925 1116 3625 
L 1116 3319 
L 1763 3319 
L 1763 2881 
L 1116 2881 
L 1116 0 
L 556 0 
z
" transform="scale(0.015625)"/>
      <path id="ArialMT-64" d="M 2575 0 
L 2575 419 
Q 2259 -75 1647 -75 
Q 1250 -75 917 144 
Q 584 363 401 755 
Q 219 1147 219 1656 
Q 219 2153 384 2558 
Q 550 2963 881 3178 
Q 1213 3394 1622 3394 
Q 1922 3394 2156 3267 
Q 2391 3141 2538 2938 
L 2538 4581 
L 3097 4581 
L 3097 0 
L 2575 0 
z
M 797 1656 
Q 797 1019 1065 703 
Q 1334 388 1700 388 
Q 2069 388 2326 689 
Q 2584 991 2584 1609 
Q 2584 2291 2321 2609 
Q 2059 2928 1675 2928 
Q 1300 2928 1048 2622 
Q 797 2316 797 1656 
z
" transform="scale(0.015625)"/>
     </defs>
     <use xlink:href="#ArialMT-44"/>
     <use xlink:href="#ArialMT-69" x="72.216797"/>
     <use xlink:href="#ArialMT-76" x="94.433594"/>
     <use xlink:href="#ArialMT-65" x="144.433594"/>
     <use xlink:href="#ArialMT-72" x="200.048828"/>
     <use xlink:href="#ArialMT-67" x="233.349609"/>
     <use xlink:href="#ArialMT-65" x="288.964844"/>
     <use xlink:href="#ArialMT-6e" x="344.580078"/>
     <use xlink:href="#ArialMT-63" x="400.195312"/>
     <use xlink:href="#ArialMT-65" x="450.195312"/>
     <use xlink:href="#ArialMT-20" x="505.810547"/>
     <use xlink:href="#ArialMT-43" x="533.59375"/>
     <use xlink:href="#ArialMT-6f" x="605.810547"/>
     <use xlink:href="#ArialMT-6d" x="661.425781"/>
     <use xlink:href="#ArialMT-70" x="744.726562"/>
     <use xlink:href="#ArialMT-61" x="800.341797"/>
     <use xlink:href="#ArialMT-72" x="855.957031"/>
     <use xlink:href="#ArialMT-69" x="889.257812"/>
     <use xlink:href="#ArialMT-73" x="911.474609"/>
     <use xlink:href="#ArialMT-6f" x="961.474609"/>
     <use xlink:href="#ArialMT-6e" x="1017.089844"/>
     <use xlink:href="#ArialMT-3a" x="1072.705078"/>
     <use xlink:href="#ArialMT-20" x="1100.488281"/>
     <use xlink:href="#ArialMT-4f" x="1128.271484"/>
     <use xlink:href="#ArialMT-72" x="1206.054688"/>
     <use xlink:href="#ArialMT-69" x="1239.355469"/>
     <use xlink:href="#ArialMT-67" x="1261.572266"/>
     <use xlink:href="#ArialMT-69" x="1317.1875"/>
     <use xlink:href="#ArialMT-6e" x="1339.404297"/>
     <use xlink:href="#ArialMT-61" x="1395.019531"/>
     <use xlink:href="#ArialMT-6c" x="1450.634766"/>
     <use xlink:href="#ArialMT-20" x="1472.851562"/>
     <use xlink:href="#ArialMT-76" x="1500.634766"/>
     <use xlink:href="#ArialMT-73" x="1550.634766"/>
     <use xlink:href="#ArialMT-20" x="1600.634766"/>
     <use xlink:href="#ArialMT-53" x="1628.417969"/>
     <use xlink:href="#ArialMT-68" x="1695.117188"/>
     <use xlink:href="#ArialMT-75" x="1750.732422"/>
     <use xlink:href="#ArialMT-66" x="1806.347656"/>
     <use xlink:href="#ArialMT-66" x="1832.380859"/>
     <use xlink:href="#ArialMT-6c" x="1860.164062"/>
     <use xlink:href="#ArialMT-65" x="1882.380859"/>
     <use xlink:href="#ArialMT-64" x="1937.996094"/>
    </g>
   </g>
   <g id="legend_1">
    <g id="patch_5">
     <path d="M 615.46 259.555469 
L 705.061875 259.555469 
Q 707.261875 259.555469 707.261875 257.355469 
L 707.261875 148.424531 
Q 707.261875 146.224531 705.061875 146.224531 
L 615.46 146.224531 
Q 613.26 146.224531 613.26 148.424531 
L 613.26 257.355469 
Q 613.26 259.555469 615.46 259.555469 
z
" style="fill: #ffffff; opacity: 0.8; stroke: #cccccc; stroke-linejoin: miter"/>
    </g>
    <g id="line2d_9">
     <path d="M 617.66 154.789062 
L 628.66 154.789062 
L 639.66 154.789062 
" style="fill: none; stroke: #00008b; stroke-width: 2; stroke-linecap: round"/>
    </g>
    <g id="text_20">
     <!-- Original -->
     <g style="fill: #262626" transform="translate(648.46 158.639062) scale(0.11 -0.11)">
      <use xlink:href="#ArialMT-4f"/>
      <use xlink:href="#ArialMT-72" x="77.783203"/>
      <use xlink:href="#ArialMT-69" x="111.083984"/>
      <use xlink:href="#ArialMT-67" x="133.300781"/>
      <use xlink:href="#ArialMT-69" x="188.916016"/>
      <use xlink:href="#ArialMT-6e" x="211.132812"/>
      <use xlink:href="#ArialMT-61" x="266.748047"/>
      <use xlink:href="#ArialMT-6c" x="322.363281"/>
     </g>
    </g>
    <g id="line2d_10">
     <path d="M 617.66 170.61875 
L 628.66 170.61875 
L 639.66 170.61875 
" style="fill: none; stroke-dasharray: 7.4,3.2; stroke-dashoffset: 0; stroke: #00008b; stroke-width: 2"/>
    </g>
    <g id="text_21">
     <!-- Original -->
     <g style="fill: #262626" transform="translate(648.46 174.46875) scale(0.11 -0.11)">
      <use xlink:href="#ArialMT-4f"/>
      <use xlink:href="#ArialMT-72" x="77.783203"/>
      <use xlink:href="#ArialMT-69" x="111.083984"/>
      <use xlink:href="#ArialMT-67" x="133.300781"/>
      <use xlink:href="#ArialMT-69" x="188.916016"/>
      <use xlink:href="#ArialMT-6e" x="211.132812"/>
      <use xlink:href="#ArialMT-61" x="266.748047"/>
      <use xlink:href="#ArialMT-6c" x="322.363281"/>
     </g>
    </g>
    <g id="PathCollection_3">
     <g>
      <use xlink:href="#md5e186482b" x="628.66" y="187.302656" style="fill: #00008b; stroke: #00008b"/>
     </g>
    </g>
    <g id="text_22">
     <!-- p &lt; 0.001 -->
     <g style="fill: #262626" transform="translate(648.46 190.190156) scale(0.11 -0.11)">
      <defs>
       <path id="ArialMT-3c" d="M 350 2003 
L 350 2528 
L 3384 3809 
L 3384 3250 
L 978 2263 
L 3384 1266 
L 3384 706 
L 350 2003 
z
" transform="scale(0.015625)"/>
      </defs>
      <use xlink:href="#ArialMT-70"/>
      <use xlink:href="#ArialMT-20" x="55.615234"/>
      <use xlink:href="#ArialMT-3c" x="83.398438"/>
      <use xlink:href="#ArialMT-20" x="141.796875"/>
      <use xlink:href="#ArialMT-30" x="169.580078"/>
      <use xlink:href="#ArialMT-2e" x="225.195312"/>
      <use xlink:href="#ArialMT-30" x="252.978516"/>
      <use xlink:href="#ArialMT-30" x="308.59375"/>
      <use xlink:href="#ArialMT-31" x="364.208984"/>
     </g>
    </g>
    <g id="line2d_11">
     <path d="M 617.66 201.9 
L 628.66 201.9 
L 639.66 201.9 
" style="fill: none; stroke-dasharray: 5.55,2.4; stroke-dashoffset: 0; stroke: #1a1a1a; stroke-width: 1.5"/>
    </g>
    <g id="text_23">
     <!-- Stim Onset -->
     <g style="fill: #262626" transform="translate(648.46 205.75) scale(0.11 -0.11)">
      <defs>
       <path id="ArialMT-74" d="M 1650 503 
L 1731 6 
Q 1494 -44 1306 -44 
Q 1000 -44 831 53 
Q 663 150 594 308 
Q 525 466 525 972 
L 525 2881 
L 113 2881 
L 113 3319 
L 525 3319 
L 525 4141 
L 1084 4478 
L 1084 3319 
L 1650 3319 
L 1650 2881 
L 1084 2881 
L 1084 941 
Q 1084 700 1114 631 
Q 1144 563 1211 522 
Q 1278 481 1403 481 
Q 1497 481 1650 503 
z
" transform="scale(0.015625)"/>
      </defs>
      <use xlink:href="#ArialMT-53"/>
      <use xlink:href="#ArialMT-74" x="66.699219"/>
      <use xlink:href="#ArialMT-69" x="94.482422"/>
      <use xlink:href="#ArialMT-6d" x="116.699219"/>
      <use xlink:href="#ArialMT-20" x="200"/>
      <use xlink:href="#ArialMT-4f" x="227.783203"/>
      <use xlink:href="#ArialMT-6e" x="305.566406"/>
      <use xlink:href="#ArialMT-73" x="361.181641"/>
      <use xlink:href="#ArialMT-65" x="411.181641"/>
      <use xlink:href="#ArialMT-74" x="466.796875"/>
     </g>
    </g>
    <g id="line2d_12">
     <path d="M 617.66 217.459844 
L 628.66 217.459844 
L 639.66 217.459844 
" style="fill: none; stroke-dasharray: 5.55,2.4; stroke-dashoffset: 0; stroke: #1a1a1a; stroke-width: 1.5"/>
    </g>
    <g id="text_24">
     <!-- Stim End -->
     <g style="fill: #262626" transform="translate(648.46 221.309844) scale(0.11 -0.11)">
      <defs>
       <path id="ArialMT-45" d="M 506 0 
L 506 4581 
L 3819 4581 
L 3819 4041 
L 1113 4041 
L 1113 2638 
L 3647 2638 
L 3647 2100 
L 1113 2100 
L 1113 541 
L 3925 541 
L 3925 0 
L 506 0 
z
" transform="scale(0.015625)"/>
      </defs>
      <use xlink:href="#ArialMT-53"/>
      <use xlink:href="#ArialMT-74" x="66.699219"/>
      <use xlink:href="#ArialMT-69" x="94.482422"/>
      <use xlink:href="#ArialMT-6d" x="116.699219"/>
      <use xlink:href="#ArialMT-20" x="200"/>
      <use xlink:href="#ArialMT-45" x="227.783203"/>
      <use xlink:href="#ArialMT-6e" x="294.482422"/>
      <use xlink:href="#ArialMT-64" x="350.097656"/>
     </g>
    </g>
    <g id="line2d_13">
     <path d="M 617.66 233.160625 
L 628.66 233.160625 
L 639.66 233.160625 
" style="fill: none; stroke: #6060eb; stroke-width: 2; stroke-linecap: round"/>
    </g>
    <g id="text_25">
     <!-- Original -->
     <g style="fill: #262626" transform="translate(648.46 237.010625) scale(0.11 -0.11)">
      <use xlink:href="#ArialMT-4f"/>
      <use xlink:href="#ArialMT-72" x="77.783203"/>
      <use xlink:href="#ArialMT-69" x="111.083984"/>
      <use xlink:href="#ArialMT-67" x="133.300781"/>
      <use xlink:href="#ArialMT-69" x="188.916016"/>
      <use xlink:href="#ArialMT-6e" x="211.132812"/>
      <use xlink:href="#ArialMT-61" x="266.748047"/>
      <use xlink:href="#ArialMT-6c" x="322.363281"/>
     </g>
    </g>
    <g id="line2d_14">
     <path d="M 617.66 248.990312 
L 628.66 248.990312 
L 639.66 248.990312 
" style="fill: none; stroke-dasharray: 7.4,3.2; stroke-dashoffset: 0; stroke: #6060eb; stroke-width: 2"/>
    </g>
    <g id="text_26">
     <!-- Original -->
     <g style="fill: #262626" transform="translate(648.46 252.840312) scale(0.11 -0.11)">
      <use xlink:href="#ArialMT-4f"/>
      <use xlink:href="#ArialMT-72" x="77.783203"/>
      <use xlink:href="#ArialMT-69" x="111.083984"/>
      <use xlink:href="#ArialMT-67" x="133.300781"/>
      <use xlink:href="#ArialMT-69" x="188.916016"/>
      <use xlink:href="#ArialMT-6e" x="211.132812"/>
      <use xlink:href="#ArialMT-61" x="266.748047"/>
      <use xlink:href="#ArialMT-6c" x="322.363281"/>
     </g>
    </g>
   </g>
  </g>
 </g>
 <defs>
  <clipPath id="p72d59f7c7b">
   <rect x="69.57" y="27.6" width="538.19" height="350.58"/>
  </clipPath>
 </defs>
</svg>
