<?xml version="1.0" encoding="utf-8"?>
<!-- Generator: Adobe Illustrator 23.0.2, SVG Export Plug-In . SVG Version: 6.00 Build 0)  -->
<svg version="1.1" id="图层_1" xmlns="http://www.w3.org/2000/svg" xmlns:xlink="http://www.w3.org/1999/xlink" x="0px" y="0px"
	 viewBox="0 0 576 432" style="enable-background:new 0 0 576 432;" xml:space="preserve">
<style type="text/css">
	.st0{fill:#262626;stroke:#262626;stroke-width:1.5;stroke-linejoin:round;}
	.st1{fill:#EB6AB0;fill-opacity:0.1;stroke:#EB6AB0;stroke-linejoin:round;stroke-opacity:0.1;}
	.st2{fill:#8B0A50;fill-opacity:0.2;stroke:#8B0A50;stroke-linejoin:round;stroke-opacity:0.2;}
	.st3{fill:#EB6AB0;stroke:#EB6AB0;stroke-linejoin:round;}
	.st4{fill:#8B0A50;stroke:#8B0A50;stroke-linejoin:round;}
	.st5{fill:none;stroke:#EB6AB0;stroke-width:2;stroke-linecap:round;stroke-linejoin:round;}
	.st6{fill:none;stroke:#EB6AB0;stroke-width:1.5;stroke-linejoin:round;stroke-opacity:0.8;stroke-dasharray:5.55,2.4;}
	.st7{fill:none;stroke:#8B0A50;stroke-width:2;stroke-linecap:round;stroke-linejoin:round;}
	.st8{fill:none;stroke:#8B0A50;stroke-width:1.5;stroke-linejoin:round;stroke-opacity:0.8;stroke-dasharray:5.55,2.4;}
	.st9{fill:none;stroke:#808080;stroke-width:1.5;stroke-linejoin:round;stroke-opacity:0.7;stroke-dasharray:5.55,2.4;}
	.st10{fill:none;stroke:#000000;stroke-width:1.5;stroke-linecap:square;}
</style>
<g id="figure_1">
	<g id="axes_1">
		<g id="matplotlib.axis_1">
			<g id="xtick_1">
				<g id="line2d_1">
					<g>
						<g>
							<path id="m874179276f" class="st0" d="M80.5,378v5"/>
						</g>
					</g>
				</g>
			</g>
			<g id="xtick_2">
				<g id="line2d_2">
					<g>
						<g>
							<path class="st0" d="M139.5,378v5"/>
						</g>
					</g>
				</g>
			</g>
			<g id="xtick_3">
				<g id="line2d_3">
					<g>
						<g>
							<path class="st0" d="M198.5,378v5"/>
						</g>
					</g>
				</g>
			</g>
			<g id="xtick_4">
				<g id="line2d_4">
					<g>
						<g>
							<path class="st0" d="M257.4,378v5"/>
						</g>
					</g>
				</g>
			</g>
			<g id="xtick_5">
				<g id="line2d_5">
					<g>
						<g>
							<path class="st0" d="M316.4,378v5"/>
						</g>
					</g>
				</g>
			</g>
			<g id="xtick_6">
				<g id="line2d_6">
					<g>
						<g>
							<path class="st0" d="M375.4,378v5"/>
						</g>
					</g>
				</g>
			</g>
			<g id="xtick_7">
				<g id="line2d_7">
					<g>
						<g>
							<path class="st0" d="M434.4,378v5"/>
						</g>
					</g>
				</g>
			</g>
			<g id="xtick_8">
				<g id="line2d_8">
					<g>
						<g>
							<path class="st0" d="M493.4,378v5"/>
						</g>
					</g>
				</g>
			</g>
		</g>
		<g id="matplotlib.axis_2">
			<g id="ytick_1">
				<g id="line2d_9">
					<g>
						<g>
							<path id="mb8fa0f1a78" class="st0" d="M72,341.2h-5"/>
						</g>
					</g>
				</g>
			</g>
			<g id="ytick_2">
				<g id="line2d_10">
					<g>
						<g>
							<path class="st0" d="M72,244h-5"/>
						</g>
					</g>
				</g>
			</g>
			<g id="ytick_3">
				<g id="line2d_11">
					<g>
						<g>
							<path class="st0" d="M72,146.9h-5"/>
						</g>
					</g>
				</g>
			</g>
		</g>
		<g id="PolyCollection_1">
			<g>
				<g>
					<g>
						<path id="mdbfde21112" class="st1" d="M92.3,339.3v9.7l4.7-7.8l4.7-0.1l4.7-0.7l4.7,1.9l4.7-0.6l4.7,1.1l4.7-2.3l4.7,1l4.7,2
							l4.7-11.4l4.7,2.7l4.7-3.3l4.7-6.5l4.7-6.6l4.7-4.8l4.7-6.7l4.7-3.2l4.7-7.4l4.7-11.6l4.7-13.8l4.7-10.8l4.7-6.6l4.7-6.4
							l4.7-1.8l4.7-3.4l4.7-9.4l4.7-9.4l4.7-0.4l4.7-4.7l4.7-0.6l4.7-1.9l4.7,0.5l4.7-4.1l4.7-1.7l4.7-1.7l4.7-3.2l4.7,4.7l4.7,3.4
							l4.7-2.7l4.7-0.1l4.7-4.3l4.7-8.6l4.7-10.6l4.7-9.8l4.7,0.5l4.7-4.6l4.7-1.4l4.7,0.7l4.7-2.5l4.7-2.8l4.7-2.1l4.7,1.8l4.7-6
							l4.7-7.6l4.7-9.7l4.7-3.2l4.7-0.5l4.7,4.9l4.7,15.2l4.7,32.4l4.7-46.8l4.7,0l4.7,20.4l4.7,29.4l4.7,13.2l4.7-9.7l4.7-6.3
							l4.7-6.7l4.7-5.9l4.7,2.1l4.7,4.6l4.7,0.4l4.7,0.3l4.7-5.2l4.7,0l4.7,0.5l4.7,4.2l4.7,1.6l4.7-2.4l4.7-1l4.7,0.5l4.7,2.3
							l4.7,0l4.7-0.4l4.7,4l4.7-0.4v-78.8l0,0l-4.7,0l-4.7-3.1l-4.7,0.8l-4.7,0.7l-4.7-2.8l-4.7-1.9l-4.7,1.7l-4.7,1.5l-4.7,0.3
							l-4.7-1.9l-4.7-0.6l-4.7-3.3l-4.7,5.1l-4.7,1.7l-4.7,3.1l-4.7-3.8l-4.7-4.1l-4.7,4.4l-4.7,9.4l-4.7,11.1l-4.7,12l-4.7-24
							L389.6,82l-4.7-15.4l-4.7,20.9l-4.7,60.3l-4.7-36.5l-4.7-17l-4.7-3.9l-4.7,1.7l-4.7,3.7l-4.7,10.5l-4.7,9.3l-4.7,8l-4.7-2.3
							l-4.7,6.5l-4.7,6.9l-4.7,3.9l-4.7,1.4l-4.7,2.3l-4.7,6.6l-4.7,0.3l-4.7,10.8l-4.7,9.4l-4.7,8.5l-4.7,3.7l-4.7-0.6l-4.7,2.4
							l-4.7-2.1l-4.7-1.9l-4.7,2.8l-4.7,3.3l-4.7,3l-4.7,2.3l-4.7-1l-4.7,3l-4.7-1l-4.7,5.4l-4.7,2.8l-4.7,7.6l-4.7,11l-4.7,4.1
							l-4.7,2.7l-4.7,8.9l-4.7,8.2l-4.7,7.7l-4.7,10.6l-4.7,12.5l-4.7,9.4l-4.7,5.6l-4.7,7.2l-4.7,8.4l-4.7,8.4l-4.7,8.3l-4.7,4.6
							l-4.7-1l-4.7,15.6l-4.7-0.8l-4.7-0.4l-4.7,1.9l-4.7-1.7l-4.7,0.7l-4.7-1.9l-4.7,1l-4.7,0.5L92.3,339.3z"/>
					</g>
				</g>
			</g>
		</g>
		<g id="PolyCollection_2">
			<g>
				<g>
					<g>
						<path id="mbc67e17d50" class="st2" d="M92.3,334.3v7.4l4.7,1.4l4.7,1l4.7-8.1l4.7,0.9l4.7-6.4l4.7,0l4.7-1.8l4.7-5.1l4.7-8.2
							l4.7-3.8l4.7-8.8l4.7-2.8l4.7-3.1l4.7-0.8l4.7-1.4l4.7,3.8l4.7,5.1l4.7,7.4l4.7-3l4.7-3.9l4.7-0.3l4.7-0.7l4.7,1.2l4.7-3.6
							l4.7-3.6l4.7-1.7l4.7-4.3l4.7-3.3l4.7-4.6l4.7-4.8l4.7-3.3l4.7-4.1l4.7-4.5l4.7-6.8l4.7-5.8l4.7-2.3l4.7-2.9l4.7,0.3l4.7-3.8
							l4.7-4.8l4.7-4.4l4.7-2.8l4.7-2.7l4.7-2.2l4.7-4.9l4.7-4.1l4.7-3.3l4.7-1.8l4.7-2.6l4.7-4.4l4.7-3.4l4.7-3.7l4.7-5.7l4.7-3.9
							l4.7-2.6l4.7-3l4.7-5l4.7-2.2l4.7-4.6l4.7-3.3l4.7,0l4.7-4.9l4.7-3.9l4.7-2.1l4.7-0.1l4.7,0l4.7,1.4l4.7-0.2l4.7,1.7l4.7-1
							l4.7,0.8l4.7,0l4.7,0.8l4.7-0.9l4.7-1.7l4.7,0.2l4.7-2l4.7,1.4l4.7,1.1l4.7,0.3l4.7-2l4.7,0l4.7,0.9l4.7-0.7l4.7,2.7l4.7,1.7
							v-35.8l0,0l-4.7-1.6l-4.7-1.7l-4.7,0.9l-4.7-0.7l-4.7,1.6l-4.7,1.8l-4.7-0.5l-4.7,0.1l-4.7-0.4l-4.7,1.7l-4.7-0.6l-4.7,1.4
							l-4.7,0.9l-4.7-0.1l-4.7,1.1l-4.7,0l-4.7,1.1l-4.7-0.7l-4.7-0.6l-4.7-2.1l-4.7,0.5l-4.7,0.3l-4.7,3.2l-4.7,6.3l-4.7,6.1
							l-4.7,0l-4.7,4l-4.7,5.5l-4.7,3.3l-4.7,5l-4.7,3.2l-4.7,3.6l-4.7,5l-4.7,5.6l-4.7,3.3l-4.7,2.6l-4.7,4.8l-4.7,4.2l-4.7,2.5
							l-4.7,4.7l-4.7,4.9l-4.7,4l-4.7,2.2l-4.7,2l-4.7,3.5l-4.7,4.8l-4.7,5.4l-4.7,4.4l-4.7-0.5l-4.7,2.7l-4.7,3.3l-4.7,6.4l-4.7,7
							l-4.7,5l-4.7,5.2l-4.7,3.5l-4.7,4.6l-4.7,5.2l-4.7,3.4l-4.7,3.7l-4.7,2.6l-4.7,4.7l-4.7,4.1l-4.7,0l-4.7,0.7l-4.7,0.5
							l-4.7,5.1l-4.7,2.6l-4.7-6.8l-4.7-4.3l-4.7-4.1l-4.7-0.3l-4.7-0.7l-4.7,2.4l-4.7-0.1l-4.7,7.7l-4.7,1.1l-4.7,7.5l-4.7,7.9
							l-4.7,1.2l-4.7,2.8l-4.7,5.7l-4.7-2.3l-4.7,9.9l-4.7,2.1L92.3,334.3z"/>
					</g>
				</g>
			</g>
		</g>
		<g id="PathCollection_1">
			<g>
				<g>
					<g>
						<path id="m71412be97c" class="st3" d="M151.1,358.5h5v-5h-5V358.5z"/>
					</g>
					<g>
						<path class="st3" d="M155.9,358.5h5v-5h-5V358.5z"/>
					</g>
					<g>
						<path class="st3" d="M160.6,358.5h5v-5h-5V358.5z"/>
					</g>
					<g>
						<path class="st3" d="M165.3,358.5h5v-5h-5V358.5z"/>
					</g>
					<g>
						<path class="st3" d="M170,358.5h5v-5h-5V358.5z"/>
					</g>
					<g>
						<path class="st3" d="M174.7,358.5h5v-5h-5V358.5z"/>
					</g>
					<g>
						<path class="st3" d="M179.4,358.5h5v-5h-5V358.5z"/>
					</g>
					<g>
						<path class="st3" d="M184.2,358.5h5v-5h-5V358.5z"/>
					</g>
					<g>
						<path class="st3" d="M188.9,358.5h5v-5h-5V358.5z"/>
					</g>
					<g>
						<path class="st3" d="M193.6,358.5h5v-5h-5V358.5z"/>
					</g>
					<g>
						<path class="st3" d="M198.3,358.5h5v-5h-5V358.5z"/>
					</g>
					<g>
						<path class="st3" d="M203,358.5h5v-5h-5V358.5z"/>
					</g>
					<g>
						<path class="st3" d="M207.8,358.5h5v-5h-5V358.5z"/>
					</g>
					<g>
						<path class="st3" d="M212.5,358.5h5v-5h-5V358.5z"/>
					</g>
					<g>
						<path class="st3" d="M217.2,358.5h5v-5h-5V358.5z"/>
					</g>
					<g>
						<path class="st3" d="M221.9,358.5h5v-5h-5V358.5z"/>
					</g>
					<g>
						<path class="st3" d="M226.6,358.5h5v-5h-5V358.5z"/>
					</g>
					<g>
						<path class="st3" d="M231.4,358.5h5v-5h-5V358.5z"/>
					</g>
					<g>
						<path class="st3" d="M236.1,358.5h5v-5h-5V358.5z"/>
					</g>
					<g>
						<path class="st3" d="M240.8,358.5h5v-5h-5V358.5z"/>
					</g>
					<g>
						<path class="st3" d="M245.5,358.5h5v-5h-5V358.5z"/>
					</g>
					<g>
						<path class="st3" d="M250.2,358.5h5v-5h-5V358.5z"/>
					</g>
					<g>
						<path class="st3" d="M254.9,358.5h5v-5h-5V358.5z"/>
					</g>
					<g>
						<path class="st3" d="M259.7,358.5h5v-5h-5V358.5z"/>
					</g>
					<g>
						<path class="st3" d="M264.4,358.5h5v-5h-5V358.5z"/>
					</g>
					<g>
						<path class="st3" d="M269.1,358.5h5v-5h-5V358.5z"/>
					</g>
					<g>
						<path class="st3" d="M273.8,358.5h5v-5h-5V358.5z"/>
					</g>
					<g>
						<path class="st3" d="M278.5,358.5h5v-5h-5V358.5z"/>
					</g>
					<g>
						<path class="st3" d="M283.3,358.5h5v-5h-5V358.5z"/>
					</g>
					<g>
						<path class="st3" d="M288,358.5h5v-5h-5V358.5z"/>
					</g>
					<g>
						<path class="st3" d="M292.7,358.5h5v-5h-5V358.5z"/>
					</g>
					<g>
						<path class="st3" d="M297.4,358.5h5v-5h-5V358.5z"/>
					</g>
					<g>
						<path class="st3" d="M302.1,358.5h5v-5h-5V358.5z"/>
					</g>
					<g>
						<path class="st3" d="M306.9,358.5h5v-5h-5V358.5z"/>
					</g>
					<g>
						<path class="st3" d="M311.6,358.5h5v-5h-5V358.5z"/>
					</g>
					<g>
						<path class="st3" d="M316.3,358.5h5v-5h-5V358.5z"/>
					</g>
					<g>
						<path class="st3" d="M321,358.5h5v-5h-5V358.5z"/>
					</g>
					<g>
						<path class="st3" d="M325.7,358.5h5v-5h-5V358.5z"/>
					</g>
					<g>
						<path class="st3" d="M330.5,358.5h5v-5h-5V358.5z"/>
					</g>
					<g>
						<path class="st3" d="M335.2,358.5h5v-5h-5V358.5z"/>
					</g>
					<g>
						<path class="st3" d="M339.9,358.5h5v-5h-5V358.5z"/>
					</g>
					<g>
						<path class="st3" d="M344.6,358.5h5v-5h-5V358.5z"/>
					</g>
					<g>
						<path class="st3" d="M349.3,358.5h5v-5h-5V358.5z"/>
					</g>
					<g>
						<path class="st3" d="M354,358.5h5v-5h-5V358.5z"/>
					</g>
					<g>
						<path class="st3" d="M358.8,358.5h5v-5h-5V358.5z"/>
					</g>
					<g>
						<path class="st3" d="M363.5,358.5h5v-5h-5V358.5z"/>
					</g>
					<g>
						<path class="st3" d="M368.2,358.5h5v-5h-5V358.5z"/>
					</g>
					<g>
						<path class="st3" d="M372.9,358.5h5v-5h-5V358.5z"/>
					</g>
					<g>
						<path class="st3" d="M377.6,358.5h5v-5h-5V358.5z"/>
					</g>
					<g>
						<path class="st3" d="M382.4,358.5h5v-5h-5V358.5z"/>
					</g>
					<g>
						<path class="st3" d="M387.1,358.5h5v-5h-5V358.5z"/>
					</g>
					<g>
						<path class="st3" d="M391.8,358.5h5v-5h-5V358.5z"/>
					</g>
					<g>
						<path class="st3" d="M396.5,358.5h5v-5h-5V358.5z"/>
					</g>
					<g>
						<path class="st3" d="M401.2,358.5h5v-5h-5V358.5z"/>
					</g>
					<g>
						<path class="st3" d="M406,358.5h5v-5h-5V358.5z"/>
					</g>
					<g>
						<path class="st3" d="M410.7,358.5h5v-5h-5V358.5z"/>
					</g>
					<g>
						<path class="st3" d="M415.4,358.5h5v-5h-5V358.5z"/>
					</g>
					<g>
						<path class="st3" d="M420.1,358.5h5v-5h-5V358.5z"/>
					</g>
					<g>
						<path class="st3" d="M424.8,358.5h5v-5h-5V358.5z"/>
					</g>
					<g>
						<path class="st3" d="M429.5,358.5h5v-5h-5V358.5z"/>
					</g>
					<g>
						<path class="st3" d="M434.3,358.5h5v-5h-5V358.5z"/>
					</g>
					<g>
						<path class="st3" d="M439,358.5h5v-5h-5V358.5z"/>
					</g>
					<g>
						<path class="st3" d="M443.7,358.5h5v-5h-5V358.5z"/>
					</g>
					<g>
						<path class="st3" d="M448.4,358.5h5v-5h-5V358.5z"/>
					</g>
					<g>
						<path class="st3" d="M453.1,358.5h5v-5h-5V358.5z"/>
					</g>
					<g>
						<path class="st3" d="M457.9,358.5h5v-5h-5V358.5z"/>
					</g>
					<g>
						<path class="st3" d="M462.6,358.5h5v-5h-5V358.5z"/>
					</g>
					<g>
						<path class="st3" d="M467.3,358.5h5v-5h-5V358.5z"/>
					</g>
					<g>
						<path class="st3" d="M472,358.5h5v-5h-5V358.5z"/>
					</g>
					<g>
						<path class="st3" d="M476.7,358.5h5v-5h-5V358.5z"/>
					</g>
					<g>
						<path class="st3" d="M481.5,358.5h5v-5h-5V358.5z"/>
					</g>
					<g>
						<path class="st3" d="M486.2,358.5h5v-5h-5V358.5z"/>
					</g>
					<g>
						<path class="st3" d="M490.9,358.5h5v-5h-5V358.5z"/>
					</g>
					<g>
						<path class="st3" d="M495.6,358.5h5v-5h-5V358.5z"/>
					</g>
				</g>
			</g>
		</g>
		<g id="PathCollection_2">
			<g>
				<g>
					<g>
						<path id="m310221c8ba" class="st4" d="M184.2,365.7h5v-5h-5V365.7z"/>
					</g>
					<g>
						<path class="st4" d="M188.9,365.7h5v-5h-5V365.7z"/>
					</g>
					<g>
						<path class="st4" d="M193.6,365.7h5v-5h-5V365.7z"/>
					</g>
					<g>
						<path class="st4" d="M198.3,365.7h5v-5h-5V365.7z"/>
					</g>
					<g>
						<path class="st4" d="M203,365.7h5v-5h-5V365.7z"/>
					</g>
					<g>
						<path class="st4" d="M207.8,365.7h5v-5h-5V365.7z"/>
					</g>
					<g>
						<path class="st4" d="M212.5,365.7h5v-5h-5V365.7z"/>
					</g>
					<g>
						<path class="st4" d="M217.2,365.7h5v-5h-5V365.7z"/>
					</g>
					<g>
						<path class="st4" d="M221.9,365.7h5v-5h-5V365.7z"/>
					</g>
					<g>
						<path class="st4" d="M226.6,365.7h5v-5h-5V365.7z"/>
					</g>
					<g>
						<path class="st4" d="M231.4,365.7h5v-5h-5V365.7z"/>
					</g>
					<g>
						<path class="st4" d="M236.1,365.7h5v-5h-5V365.7z"/>
					</g>
					<g>
						<path class="st4" d="M240.8,365.7h5v-5h-5V365.7z"/>
					</g>
					<g>
						<path class="st4" d="M245.5,365.7h5v-5h-5V365.7z"/>
					</g>
					<g>
						<path class="st4" d="M250.2,365.7h5v-5h-5V365.7z"/>
					</g>
					<g>
						<path class="st4" d="M254.9,365.7h5v-5h-5V365.7z"/>
					</g>
					<g>
						<path class="st4" d="M259.7,365.7h5v-5h-5V365.7z"/>
					</g>
					<g>
						<path class="st4" d="M264.4,365.7h5v-5h-5V365.7z"/>
					</g>
					<g>
						<path class="st4" d="M269.1,365.7h5v-5h-5V365.7z"/>
					</g>
					<g>
						<path class="st4" d="M273.8,365.7h5v-5h-5V365.7z"/>
					</g>
					<g>
						<path class="st4" d="M278.5,365.7h5v-5h-5V365.7z"/>
					</g>
					<g>
						<path class="st4" d="M283.3,365.7h5v-5h-5V365.7z"/>
					</g>
					<g>
						<path class="st4" d="M288,365.7h5v-5h-5V365.7z"/>
					</g>
					<g>
						<path class="st4" d="M292.7,365.7h5v-5h-5V365.7z"/>
					</g>
					<g>
						<path class="st4" d="M297.4,365.7h5v-5h-5V365.7z"/>
					</g>
					<g>
						<path class="st4" d="M302.1,365.7h5v-5h-5V365.7z"/>
					</g>
					<g>
						<path class="st4" d="M306.9,365.7h5v-5h-5V365.7z"/>
					</g>
					<g>
						<path class="st4" d="M311.6,365.7h5v-5h-5V365.7z"/>
					</g>
					<g>
						<path class="st4" d="M316.3,365.7h5v-5h-5V365.7z"/>
					</g>
					<g>
						<path class="st4" d="M321,365.7h5v-5h-5V365.7z"/>
					</g>
					<g>
						<path class="st4" d="M325.7,365.7h5v-5h-5V365.7z"/>
					</g>
					<g>
						<path class="st4" d="M330.5,365.7h5v-5h-5V365.7z"/>
					</g>
					<g>
						<path class="st4" d="M335.2,365.7h5v-5h-5V365.7z"/>
					</g>
					<g>
						<path class="st4" d="M339.9,365.7h5v-5h-5V365.7z"/>
					</g>
					<g>
						<path class="st4" d="M344.6,365.7h5v-5h-5V365.7z"/>
					</g>
					<g>
						<path class="st4" d="M349.3,365.7h5v-5h-5V365.7z"/>
					</g>
					<g>
						<path class="st4" d="M354,365.7h5v-5h-5V365.7z"/>
					</g>
					<g>
						<path class="st4" d="M358.8,365.7h5v-5h-5V365.7z"/>
					</g>
					<g>
						<path class="st4" d="M363.5,365.7h5v-5h-5V365.7z"/>
					</g>
					<g>
						<path class="st4" d="M368.2,365.7h5v-5h-5V365.7z"/>
					</g>
					<g>
						<path class="st4" d="M372.9,365.7h5v-5h-5V365.7z"/>
					</g>
					<g>
						<path class="st4" d="M377.6,365.7h5v-5h-5V365.7z"/>
					</g>
					<g>
						<path class="st4" d="M382.4,365.7h5v-5h-5V365.7z"/>
					</g>
					<g>
						<path class="st4" d="M387.1,365.7h5v-5h-5V365.7z"/>
					</g>
					<g>
						<path class="st4" d="M391.8,365.7h5v-5h-5V365.7z"/>
					</g>
					<g>
						<path class="st4" d="M396.5,365.7h5v-5h-5V365.7z"/>
					</g>
					<g>
						<path class="st4" d="M401.2,365.7h5v-5h-5V365.7z"/>
					</g>
					<g>
						<path class="st4" d="M406,365.7h5v-5h-5V365.7z"/>
					</g>
					<g>
						<path class="st4" d="M410.7,365.7h5v-5h-5V365.7z"/>
					</g>
					<g>
						<path class="st4" d="M415.4,365.7h5v-5h-5V365.7z"/>
					</g>
					<g>
						<path class="st4" d="M420.1,365.7h5v-5h-5V365.7z"/>
					</g>
					<g>
						<path class="st4" d="M424.8,365.7h5v-5h-5V365.7z"/>
					</g>
					<g>
						<path class="st4" d="M429.5,365.7h5v-5h-5V365.7z"/>
					</g>
					<g>
						<path class="st4" d="M434.3,365.7h5v-5h-5V365.7z"/>
					</g>
					<g>
						<path class="st4" d="M439,365.7h5v-5h-5V365.7z"/>
					</g>
					<g>
						<path class="st4" d="M443.7,365.7h5v-5h-5V365.7z"/>
					</g>
					<g>
						<path class="st4" d="M448.4,365.7h5v-5h-5V365.7z"/>
					</g>
					<g>
						<path class="st4" d="M453.1,365.7h5v-5h-5V365.7z"/>
					</g>
					<g>
						<path class="st4" d="M457.9,365.7h5v-5h-5V365.7z"/>
					</g>
					<g>
						<path class="st4" d="M462.6,365.7h5v-5h-5V365.7z"/>
					</g>
					<g>
						<path class="st4" d="M467.3,365.7h5v-5h-5V365.7z"/>
					</g>
					<g>
						<path class="st4" d="M472,365.7h5v-5h-5V365.7z"/>
					</g>
					<g>
						<path class="st4" d="M476.7,365.7h5v-5h-5V365.7z"/>
					</g>
					<g>
						<path class="st4" d="M481.5,365.7h5v-5h-5V365.7z"/>
					</g>
					<g>
						<path class="st4" d="M486.2,365.7h5v-5h-5V365.7z"/>
					</g>
					<g>
						<path class="st4" d="M490.9,365.7h5v-5h-5V365.7z"/>
					</g>
					<g>
						<path class="st4" d="M495.6,365.7h5v-5h-5V365.7z"/>
					</g>
				</g>
			</g>
		</g>
		<g id="line2d_12">
			<g>
				<path class="st5" d="M92.3,344.1l4.7-3.9l4.7-0.3l4.7-0.9l4.7,1.9l4.7-0.6l4.7,1.4l4.7-2.1l4.7,0.7l4.7,1.4l4.7-13.5l4.7,1.8
					l4.7-3.9l4.7-7.4l4.7-7.5l4.7-6.6l4.7-6.9l4.7-4.4l4.7-8.4l4.7-12.1l4.7-12.2l4.7-9.3l4.7-7.4l4.7-7.6l4.7-2.3l4.7-3.7l4.7-10.2
					l4.7-8.5l4.7-1.6l4.7-5.1l4.7,0.2l4.7-2.4l4.7,0.8l4.7-3.2l4.7-2.4l4.7-2.5l4.7-3l4.7,3.3l4.7,2.7l4.7-2.6l4.7,0.3l4.7-4
					l4.7-8.5l4.7-10l4.7-10.3l4.7,0.1l4.7-5.6l4.7-1.8l4.7-0.4l4.7-3.2l4.7-4.9l4.7-4.3l4.7,2l4.7-7l4.7-8.4l4.7-10.1l4.7-3.5
					l4.7-1.1l4.7,4.4l4.7,16.1l4.7,34.4l4.7-53.6l4.7-10.5l4.7,17.9l4.7,32.9l4.7,18.6l4.7-10.8l4.7-8.7l4.7-8l4.7-5.1l4.7,3.1
					l4.7,4.2l4.7-1.4l4.7-0.7l4.7-5.1l4.7,1.6l4.7,0.6l4.7,3.1l4.7,0.7l4.7-1.9l4.7-1.3l4.7,1.2l4.7,2.5l4.7-0.4l4.7-0.6l4.7,3.6
					l4.7-0.2"/>
			</g>
		</g>
		<g id="line2d_13">
			<g>
				<path class="st6" d="M92.3,340.2l4.7,0.9l4.7,0.2l4.7-0.1l4.7,0.1l4.7-0.2l4.7-0.3l4.7,0.2l4.7,0.1l4.7-0.1l4.7-9.3l4.7,0.2
					l4.7,0.4l4.7,0.4l4.7-1l4.7-1.2l4.7,0.3l4.7-0.3l4.7,0.1l4.7-0.2l4.7-0.6l4.7,0.3l4.7,0.1l4.7,0.6l4.7-0.1l4.7-1l4.7,0.1l4.7,0
					l4.7,0.1l4.7-0.3l4.7,0.8l4.7-0.2l4.7-0.1l4.7,0.1l4.7-0.3l4.7-0.1l4.7,0.6l4.7-0.1l4.7,0l4.7,0.7l4.7-0.4l4.7-0.9l4.7-0.6
					l4.7-0.3l4.7,0.4l4.7,0.4l4.7-0.4l4.7,0l4.7-1.1l4.7-0.3l4.7-0.1l4.7-0.4l4.7,0.1l4.7-0.6l4.7-0.4l4.7,0.9l4.7,0.7l4.7,0.3
					l4.7,1.3l4.7,2.4l4.7,5.6l4.7,0.7l4.7,0.9l4.7-1l4.7,0.2l4.7-0.1l4.7-0.1l4.7-0.5l4.7-0.1l4.7,0.2l4.7,0.7l4.7,0.1l4.7-0.1
					l4.7-0.4l4.7-0.4l4.7,0.3l4.7,0.4l4.7-0.5l4.7,0.2l4.7-0.2l4.7-0.1l4.7,0.5l4.7,0.2l4.7-0.7l4.7,0l4.7,0.5l4.7,0.2"/>
			</g>
		</g>
		<g id="line2d_14">
			<g>
				<path class="st7" d="M92.3,338l4.7,0.4l4.7-0.5l4.7-9l4.7,1.6l4.7-6l4.7-1.4l4.7-1.5l4.7-6.5l4.7-7.8l4.7-2.4l4.7-8.3l4.7-1.3
					l4.7-2.7l4.7-0.1l4.7-0.6l4.7,4l4.7,4.7l4.7,7.1l4.7-2.8l4.7-4.5l4.7-0.4l4.7-0.7l4.7,0.6l4.7-3.9l4.7-4.1l4.7-2.2l4.7-4
					l4.7-3.3l4.7-4.9l4.7-4.7l4.7-3.4l4.7-4.7l4.7-4.7l4.7-6.9l4.7-6.1l4.7-2.8l4.7-2.8l4.7,0.4l4.7-4.1l4.7-5.1l4.7-4.6l4.7-3.2
					l4.7-2.3l4.7-2.2l4.7-4.4l4.7-4.5l4.7-4l4.7-2.1l4.7-3.4l4.7-4.6l4.7-3l4.7-3.5l4.7-5.6l4.7-4.4l4.7-3.1l4.7-3.1l4.7-5l4.7-2.8
					l4.7-5.1l4.7-3.6l4.7,0l4.7-5.5l4.7-5.1l4.7-2.7l4.7-0.2l4.7-0.2l4.7,1.8l4.7,0.2l4.7,1.2l4.7-1.1l4.7,0.4l4.7-0.6l4.7,0.5
					l4.7-0.9l4.7-1.5l4.7,0.4l4.7-1.9l4.7,0.9l4.7,0.5l4.7,0.4l4.7-1.9l4.7-0.8l4.7,0.8l4.7-0.8l4.7,2.2l4.7,1.7"/>
			</g>
		</g>
		<g id="line2d_15">
			<g>
				<path class="st8" d="M92.3,338.1l4.7-4.5l4.7-3.4l4.7-4.5l4.7-4.4l4.7-4.2l4.7-3.8l4.7-4.7l4.7-4.8l4.7-5.9l4.7-4.9l4.7-2.4
					l4.7-0.3l4.7,1.7l4.7,2.3l4.7,3l4.7,2.9l4.7,3l4.7,3.1l4.7,2.4l4.7,2.3l4.7,2.2l4.7,1.7l4.7,1.2l4.7,1.1l4.7,1l4.7,0.9l4.7,0.5
					l4.7,0.7l4.7,0.6l4.7,0.2l4.7,0.4l4.7-0.2l4.7,0l4.7,0l4.7,0.4l4.7-0.2l4.7,0l4.7-0.2l4.7,0l4.7,0.2l4.7-0.1l4.7,0l4.7,0.1
					l4.7,0.1l4.7,0.3l4.7-0.1l4.7,0l4.7,0l4.7,0l4.7,0.2l4.7,0.1l4.7-0.1l4.7,0.3l4.7,0.3l4.7,0.4l4.7,0.4l4.7,0.5l4.7,0.3l4.7,0.6
					l4.7,0.9l4.7,0.9l4.7,0.2l4.7,0.5l4.7,0.2l4.7,0.2l4.7,0.4l4.7,0.4l4.7,0.3l4.7,0.1l4.7,0.1l4.7,0l4.7,0.1l4.7-0.1l4.7,0.1
					l4.7,0.1l4.7,0.3l4.7,0l4.7,0.2l4.7,0.1l4.7,0.1l4.7,0.2l4.7,0.3l4.7,0.1l4.7-0.2l4.7,0l4.7,0.1"/>
			</g>
		</g>
		<g id="line2d_16">
			<g>
				<path class="st9" d="M139.5,378V51.8"/>
			</g>
		</g>
		<g id="line2d_17">
			<g>
				<path class="st9" d="M375.4,378V51.8"/>
			</g>
		</g>
		<g id="patch_3">
			<path class="st10" d="M72,378V51.8"/>
		</g>
		<g id="patch_4">
			<path class="st10" d="M72,378h446.4"/>
		</g>
	</g>
</g>
</svg>
