<?xml version="1.0" encoding="utf-8" standalone="no"?>
<!DOCTYPE svg PUBLIC "-//W3C//DTD SVG 1.1//EN"
  "http://www.w3.org/Graphics/SVG/1.1/DTD/svg11.dtd">
<svg xmlns:xlink="http://www.w3.org/1999/xlink" width="576pt" height="432pt" viewBox="0 0 576 432" xmlns="http://www.w3.org/2000/svg" version="1.1">
 <metadata>
  <rdf:RDF xmlns:dc="http://purl.org/dc/elements/1.1/" xmlns:cc="http://creativecommons.org/ns#" xmlns:rdf="http://www.w3.org/1999/02/22-rdf-syntax-ns#">
   <cc:Work>
    <dc:type rdf:resource="http://purl.org/dc/dcmitype/StillImage"/>
    <dc:date>2025-11-15T11:09:03.806174</dc:date>
    <dc:format>image/svg+xml</dc:format>
    <dc:creator>
     <cc:Agent>
      <dc:title>Matplotlib v3.9.4, https://matplotlib.org/</dc:title>
     </cc:Agent>
    </dc:creator>
   </cc:Work>
  </rdf:RDF>
 </metadata>
 <defs>
  <style type="text/css">*{stroke-linejoin: round; stroke-linecap: butt}</style>
 </defs>
 <g id="figure_1">
  <g id="patch_1">
   <path d="M 0 432 
L 576 432 
L 576 0 
L 0 0 
z
" style="fill: #ffffff"/>
  </g>
  <g id="axes_1">
   <g id="patch_2">
    <path d="M 72 378 
L 518.4 378 
L 518.4 51.84 
L 72 51.84 
L 72 378 
z
" style="fill: none"/>
   </g>
   <g id="PolyCollection_1">
    <defs>
     <path id="mf746b8c645" d="M 92.290909 -92.704689 
L 92.290909 -83.038171 
L 97.009725 -90.86644 
L 101.728541 -90.990048 
L 106.447357 -91.72813 
L 111.166173 -89.854873 
L 115.884989 -90.432985 
L 120.603805 -89.343452 
L 125.322622 -91.617911 
L 130.041438 -90.581992 
L 134.760254 -88.617028 
L 139.47907 -100.033979 
L 144.197886 -97.35837 
L 148.916702 -100.622071 
L 153.635518 -107.102774 
L 158.354334 -113.69937 
L 163.07315 -118.456802 
L 167.791966 -125.125036 
L 172.510782 -128.361495 
L 177.229598 -135.715532 
L 181.948414 -147.336433 
L 186.66723 -161.105175 
L 191.386047 -171.935109 
L 196.104863 -178.552034 
L 200.823679 -184.928906 
L 205.542495 -186.777874 
L 210.261311 -190.149578 
L 214.980127 -199.522298 
L 219.698943 -208.955149 
L 224.417759 -209.399719 
L 229.136575 -214.142921 
L 233.855391 -214.734339 
L 238.574207 -216.622758 
L 243.293023 -216.151012 
L 248.011839 -220.239375 
L 252.730655 -221.979509 
L 257.449471 -223.638587 
L 262.168288 -226.810651 
L 266.887104 -222.083999 
L 271.60592 -218.708908 
L 276.324736 -221.385115 
L 281.043552 -221.494734 
L 285.762368 -225.799168 
L 290.481184 -234.362321 
L 295.2 -244.994799 
L 299.918816 -254.776221 
L 304.637632 -254.251839 
L 309.356448 -258.82816 
L 314.075264 -260.183483 
L 318.79408 -259.508179 
L 323.512896 -262.016883 
L 328.231712 -264.854521 
L 332.950529 -266.969035 
L 337.669345 -265.2053 
L 342.388161 -271.236267 
L 347.106977 -278.813231 
L 351.825793 -288.482289 
L 356.544609 -291.728895 
L 361.263425 -292.244471 
L 365.982241 -287.327938 
L 370.701057 -272.095841 
L 375.419873 -239.722693 
L 380.138689 -286.548462 
L 384.857505 -286.557711 
L 389.576321 -266.160901 
L 394.295137 -236.754188 
L 399.013953 -223.578058 
L 403.73277 -233.249776 
L 408.451586 -239.502244 
L 413.170402 -246.176901 
L 417.889218 -252.097432 
L 422.608034 -249.950566 
L 427.32685 -245.389987 
L 432.045666 -244.977662 
L 436.764482 -244.707934 
L 441.483298 -249.868591 
L 446.202114 -249.871797 
L 450.92093 -249.400905 
L 455.639746 -245.191461 
L 460.358562 -243.553978 
L 465.077378 -245.92984 
L 469.796195 -246.890491 
L 474.515011 -246.42981 
L 479.233827 -244.146768 
L 483.952643 -244.183117 
L 488.671459 -244.599591 
L 493.390275 -240.621871 
L 498.109091 -240.975606 
L 498.109091 -319.797793 
L 498.109091 -319.797793 
L 493.390275 -319.84299 
L 488.671459 -322.969982 
L 483.952643 -322.168687 
L 479.233827 -321.486887 
L 474.515011 -324.287536 
L 469.796195 -326.16031 
L 465.077378 -324.449121 
L 460.358562 -322.952934 
L 455.639746 -322.62729 
L 450.92093 -324.574475 
L 446.202114 -325.203676 
L 441.483298 -328.466801 
L 436.764482 -323.361864 
L 432.045666 -321.651398 
L 427.32685 -318.514206 
L 422.608034 -322.294252 
L 417.889218 -326.422568 
L 413.170402 -322.044984 
L 408.451586 -312.685105 
L 403.73277 -301.549328 
L 399.013953 -289.590957 
L 394.295137 -313.621295 
L 389.576321 -349.98428 
L 384.857505 -365.334545 
L 380.138689 -344.396879 
L 375.419873 -284.053059 
L 370.701057 -320.509725 
L 365.982241 -337.549839 
L 361.263425 -341.46871 
L 356.544609 -339.720886 
L 351.825793 -336.04686 
L 347.106977 -325.49751 
L 342.388161 -316.17819 
L 337.669345 -308.219689 
L 332.950529 -310.50424 
L 328.231712 -304.014624 
L 323.512896 -297.12157 
L 318.79408 -293.263542 
L 314.075264 -291.814649 
L 309.356448 -289.540818 
L 304.637632 -282.891008 
L 299.918816 -282.542154 
L 295.2 -271.782268 
L 290.481184 -262.352587 
L 285.762368 -253.831983 
L 281.043552 -250.082675 
L 276.324736 -250.722676 
L 271.60592 -248.286145 
L 266.887104 -250.361115 
L 262.168288 -252.252008 
L 257.449471 -249.497955 
L 252.730655 -246.193371 
L 248.011839 -243.166756 
L 243.293023 -240.835162 
L 238.574207 -241.883418 
L 233.855391 -238.888408 
L 229.136575 -239.900597 
L 224.417759 -234.498564 
L 219.698943 -231.725326 
L 214.980127 -224.128956 
L 210.261311 -213.116482 
L 205.542495 -209.005076 
L 200.823679 -206.345914 
L 196.104863 -197.434599 
L 191.386047 -189.231599 
L 186.66723 -181.548653 
L 181.948414 -170.985874 
L 177.229598 -158.438486 
L 172.510782 -149.015281 
L 167.791966 -143.415728 
L 163.07315 -136.188903 
L 158.354334 -127.812551 
L 153.635518 -119.456211 
L 148.916702 -111.183145 
L 144.197886 -106.56122 
L 139.47907 -107.580068 
L 134.760254 -91.955582 
L 130.041438 -92.743505 
L 125.322622 -93.152855 
L 120.603805 -91.299236 
L 115.884989 -92.962387 
L 111.166173 -92.272324 
L 106.447357 -94.185023 
L 101.728541 -93.167399 
L 97.009725 -92.666327 
L 92.290909 -92.704689 
z
" style="stroke: #eb6ab0; stroke-opacity: 0.1"/>
    </defs>
    <g clip-path="url(#p0f7a93c61e)">
     <use xlink:href="#mf746b8c645" x="0" y="432" style="fill: #eb6ab0; fill-opacity: 0.1; stroke: #eb6ab0; stroke-opacity: 0.1"/>
    </g>
   </g>
   <g id="PolyCollection_2">
    <defs>
     <path id="m39d7da9647" d="M 92.290909 -97.692721 
L 92.290909 -90.317484 
L 97.009725 -88.871995 
L 101.728541 -87.827737 
L 106.447357 -95.88761 
L 111.166173 -94.959408 
L 115.884989 -101.349421 
L 120.603805 -101.321665 
L 125.322622 -103.159055 
L 130.041438 -108.251198 
L 134.760254 -116.456552 
L 139.47907 -120.248429 
L 144.197886 -129.080787 
L 148.916702 -131.891558 
L 153.635518 -134.95678 
L 158.354334 -135.75725 
L 163.07315 -137.176283 
L 167.791966 -133.342047 
L 172.510782 -128.25314 
L 177.229598 -120.902776 
L 181.948414 -123.886878 
L 186.66723 -127.835778 
L 191.386047 -128.13441 
L 196.104863 -128.807232 
L 200.823679 -127.651178 
L 205.542495 -131.29458 
L 210.261311 -134.851776 
L 214.980127 -136.535384 
L 219.698943 -140.791463 
L 224.417759 -144.129347 
L 229.136575 -148.775343 
L 233.855391 -153.572315 
L 238.574207 -156.878117 
L 243.293023 -160.9927 
L 248.011839 -165.497684 
L 252.730655 -172.277366 
L 257.449471 -178.029632 
L 262.168288 -180.300149 
L 266.887104 -183.176847 
L 271.60592 -182.891393 
L 276.324736 -186.656251 
L 281.043552 -191.48235 
L 285.762368 -195.851117 
L 290.481184 -198.621169 
L 295.2 -201.307987 
L 299.918816 -203.4825 
L 304.637632 -208.361675 
L 309.356448 -212.482466 
L 314.075264 -215.825421 
L 318.79408 -217.576388 
L 323.512896 -220.186378 
L 328.231712 -224.632012 
L 332.950529 -228.007961 
L 337.669345 -231.748256 
L 342.388161 -237.438122 
L 347.106977 -241.331659 
L 351.825793 -243.961498 
L 356.544609 -246.942393 
L 361.263425 -251.919129 
L 365.982241 -254.150911 
L 370.701057 -258.728378 
L 375.419873 -262.071907 
L 380.138689 -262.022412 
L 384.857505 -266.954014 
L 389.576321 -270.816365 
L 394.295137 -272.918718 
L 399.013953 -273.061221 
L 403.73277 -273.014827 
L 408.451586 -271.592537 
L 413.170402 -271.794155 
L 417.889218 -270.118432 
L 422.608034 -271.149642 
L 427.32685 -270.34271 
L 432.045666 -270.345243 
L 436.764482 -269.556362 
L 441.483298 -270.460053 
L 446.202114 -272.137095 
L 450.92093 -271.893335 
L 455.639746 -273.888588 
L 460.358562 -272.525923 
L 465.077378 -271.426637 
L 469.796195 -271.16217 
L 474.515011 -273.207266 
L 479.233827 -273.205678 
L 483.952643 -272.261241 
L 488.671459 -272.93721 
L 493.390275 -270.264184 
L 498.109091 -268.530324 
L 498.109091 -304.308821 
L 498.109091 -304.308821 
L 493.390275 -305.93442 
L 488.671459 -307.597037 
L 483.952643 -306.74677 
L 479.233827 -307.476935 
L 474.515011 -305.91305 
L 469.796195 -304.097595 
L 465.077378 -304.575151 
L 460.358562 -304.468814 
L 455.639746 -304.842451 
L 450.92093 -303.096061 
L 446.202114 -303.690242 
L 441.483298 -302.287332 
L 436.764482 -301.430205 
L 432.045666 -301.553036 
L 427.32685 -300.4321 
L 422.608034 -300.401918 
L 417.889218 -299.298161 
L 413.170402 -299.967369 
L 408.451586 -300.518975 
L 403.73277 -302.624043 
L 399.013953 -302.150508 
L 394.295137 -301.899053 
L 389.576321 -298.666728 
L 384.857505 -292.342328 
L 380.138689 -286.278938 
L 375.419873 -286.231935 
L 370.701057 -282.276093 
L 365.982241 -276.741523 
L 361.263425 -273.468489 
L 356.544609 -268.456531 
L 351.825793 -265.285131 
L 347.106977 -261.648045 
L 342.388161 -256.663579 
L 337.669345 -251.084956 
L 332.950529 -247.785994 
L 328.231712 -245.142687 
L 323.512896 -240.358657 
L 318.79408 -236.167323 
L 314.075264 -233.660151 
L 309.356448 -228.992967 
L 304.637632 -224.136505 
L 299.918816 -220.155455 
L 295.2 -217.927809 
L 290.481184 -215.949447 
L 285.762368 -212.408068 
L 281.043552 -207.579785 
L 276.324736 -202.197632 
L 271.60592 -197.845316 
L 266.887104 -198.313159 
L 262.168288 -195.564991 
L 257.449471 -192.231588 
L 252.730655 -185.855532 
L 248.011839 -178.817063 
L 243.293023 -173.848856 
L 238.574207 -168.626623 
L 233.855391 -165.094031 
L 229.136575 -160.527216 
L 224.417759 -155.376091 
L 219.698943 -152.021043 
L 214.980127 -148.294579 
L 210.261311 -145.649155 
L 205.542495 -140.935722 
L 200.823679 -136.864531 
L 196.104863 -136.884126 
L 191.386047 -136.193199 
L 186.66723 -135.699277 
L 181.948414 -130.61707 
L 177.229598 -128.012075 
L 172.510782 -134.851471 
L 167.791966 -139.14744 
L 163.07315 -143.215889 
L 158.354334 -143.520597 
L 153.635518 -144.208471 
L 148.916702 -141.853553 
L 144.197886 -141.984826 
L 139.47907 -134.281814 
L 134.760254 -133.210964 
L 130.041438 -125.740199 
L 125.322622 -117.811484 
L 120.603805 -116.625625 
L 115.884989 -113.783734 
L 111.166173 -108.106696 
L 106.447357 -110.36218 
L 101.728541 -100.501947 
L 97.009725 -98.42624 
L 92.290909 -97.692721 
z
" style="stroke: #8b0a50; stroke-opacity: 0.2"/>
    </defs>
    <g clip-path="url(#p0f7a93c61e)">
     <use xlink:href="#m39d7da9647" x="0" y="432" style="fill: #8b0a50; fill-opacity: 0.2; stroke: #8b0a50; stroke-opacity: 0.2"/>
    </g>
   </g>
   <g id="PathCollection_1">
    <defs>
     <path id="m363f9f36c7" d="M -2.5 2.5 
L 2.5 2.5 
L 2.5 -2.5 
L -2.5 -2.5 
z
" style="stroke: #eb6ab0"/>
    </defs>
    <g clip-path="url(#p0f7a93c61e)">
     <use xlink:href="#m363f9f36c7" x="139.47907" y="356.032305" style="fill: #eb6ab0; stroke: #eb6ab0"/>
     <use xlink:href="#m363f9f36c7" x="153.635518" y="356.032305" style="fill: #eb6ab0; stroke: #eb6ab0"/>
     <use xlink:href="#m363f9f36c7" x="158.354334" y="356.032305" style="fill: #eb6ab0; stroke: #eb6ab0"/>
     <use xlink:href="#m363f9f36c7" x="163.07315" y="356.032305" style="fill: #eb6ab0; stroke: #eb6ab0"/>
     <use xlink:href="#m363f9f36c7" x="167.791966" y="356.032305" style="fill: #eb6ab0; stroke: #eb6ab0"/>
     <use xlink:href="#m363f9f36c7" x="172.510782" y="356.032305" style="fill: #eb6ab0; stroke: #eb6ab0"/>
     <use xlink:href="#m363f9f36c7" x="177.229598" y="356.032305" style="fill: #eb6ab0; stroke: #eb6ab0"/>
     <use xlink:href="#m363f9f36c7" x="181.948414" y="356.032305" style="fill: #eb6ab0; stroke: #eb6ab0"/>
     <use xlink:href="#m363f9f36c7" x="186.66723" y="356.032305" style="fill: #eb6ab0; stroke: #eb6ab0"/>
     <use xlink:href="#m363f9f36c7" x="191.386047" y="356.032305" style="fill: #eb6ab0; stroke: #eb6ab0"/>
     <use xlink:href="#m363f9f36c7" x="196.104863" y="356.032305" style="fill: #eb6ab0; stroke: #eb6ab0"/>
     <use xlink:href="#m363f9f36c7" x="200.823679" y="356.032305" style="fill: #eb6ab0; stroke: #eb6ab0"/>
     <use xlink:href="#m363f9f36c7" x="205.542495" y="356.032305" style="fill: #eb6ab0; stroke: #eb6ab0"/>
     <use xlink:href="#m363f9f36c7" x="210.261311" y="356.032305" style="fill: #eb6ab0; stroke: #eb6ab0"/>
     <use xlink:href="#m363f9f36c7" x="214.980127" y="356.032305" style="fill: #eb6ab0; stroke: #eb6ab0"/>
     <use xlink:href="#m363f9f36c7" x="219.698943" y="356.032305" style="fill: #eb6ab0; stroke: #eb6ab0"/>
     <use xlink:href="#m363f9f36c7" x="224.417759" y="356.032305" style="fill: #eb6ab0; stroke: #eb6ab0"/>
     <use xlink:href="#m363f9f36c7" x="229.136575" y="356.032305" style="fill: #eb6ab0; stroke: #eb6ab0"/>
     <use xlink:href="#m363f9f36c7" x="233.855391" y="356.032305" style="fill: #eb6ab0; stroke: #eb6ab0"/>
     <use xlink:href="#m363f9f36c7" x="238.574207" y="356.032305" style="fill: #eb6ab0; stroke: #eb6ab0"/>
     <use xlink:href="#m363f9f36c7" x="243.293023" y="356.032305" style="fill: #eb6ab0; stroke: #eb6ab0"/>
     <use xlink:href="#m363f9f36c7" x="248.011839" y="356.032305" style="fill: #eb6ab0; stroke: #eb6ab0"/>
     <use xlink:href="#m363f9f36c7" x="252.730655" y="356.032305" style="fill: #eb6ab0; stroke: #eb6ab0"/>
     <use xlink:href="#m363f9f36c7" x="257.449471" y="356.032305" style="fill: #eb6ab0; stroke: #eb6ab0"/>
     <use xlink:href="#m363f9f36c7" x="262.168288" y="356.032305" style="fill: #eb6ab0; stroke: #eb6ab0"/>
     <use xlink:href="#m363f9f36c7" x="266.887104" y="356.032305" style="fill: #eb6ab0; stroke: #eb6ab0"/>
     <use xlink:href="#m363f9f36c7" x="271.60592" y="356.032305" style="fill: #eb6ab0; stroke: #eb6ab0"/>
     <use xlink:href="#m363f9f36c7" x="276.324736" y="356.032305" style="fill: #eb6ab0; stroke: #eb6ab0"/>
     <use xlink:href="#m363f9f36c7" x="281.043552" y="356.032305" style="fill: #eb6ab0; stroke: #eb6ab0"/>
     <use xlink:href="#m363f9f36c7" x="285.762368" y="356.032305" style="fill: #eb6ab0; stroke: #eb6ab0"/>
     <use xlink:href="#m363f9f36c7" x="290.481184" y="356.032305" style="fill: #eb6ab0; stroke: #eb6ab0"/>
     <use xlink:href="#m363f9f36c7" x="295.2" y="356.032305" style="fill: #eb6ab0; stroke: #eb6ab0"/>
     <use xlink:href="#m363f9f36c7" x="299.918816" y="356.032305" style="fill: #eb6ab0; stroke: #eb6ab0"/>
     <use xlink:href="#m363f9f36c7" x="304.637632" y="356.032305" style="fill: #eb6ab0; stroke: #eb6ab0"/>
     <use xlink:href="#m363f9f36c7" x="309.356448" y="356.032305" style="fill: #eb6ab0; stroke: #eb6ab0"/>
     <use xlink:href="#m363f9f36c7" x="314.075264" y="356.032305" style="fill: #eb6ab0; stroke: #eb6ab0"/>
     <use xlink:href="#m363f9f36c7" x="318.79408" y="356.032305" style="fill: #eb6ab0; stroke: #eb6ab0"/>
     <use xlink:href="#m363f9f36c7" x="323.512896" y="356.032305" style="fill: #eb6ab0; stroke: #eb6ab0"/>
     <use xlink:href="#m363f9f36c7" x="328.231712" y="356.032305" style="fill: #eb6ab0; stroke: #eb6ab0"/>
     <use xlink:href="#m363f9f36c7" x="332.950529" y="356.032305" style="fill: #eb6ab0; stroke: #eb6ab0"/>
     <use xlink:href="#m363f9f36c7" x="337.669345" y="356.032305" style="fill: #eb6ab0; stroke: #eb6ab0"/>
     <use xlink:href="#m363f9f36c7" x="342.388161" y="356.032305" style="fill: #eb6ab0; stroke: #eb6ab0"/>
     <use xlink:href="#m363f9f36c7" x="347.106977" y="356.032305" style="fill: #eb6ab0; stroke: #eb6ab0"/>
     <use xlink:href="#m363f9f36c7" x="351.825793" y="356.032305" style="fill: #eb6ab0; stroke: #eb6ab0"/>
     <use xlink:href="#m363f9f36c7" x="356.544609" y="356.032305" style="fill: #eb6ab0; stroke: #eb6ab0"/>
     <use xlink:href="#m363f9f36c7" x="361.263425" y="356.032305" style="fill: #eb6ab0; stroke: #eb6ab0"/>
     <use xlink:href="#m363f9f36c7" x="365.982241" y="356.032305" style="fill: #eb6ab0; stroke: #eb6ab0"/>
     <use xlink:href="#m363f9f36c7" x="370.701057" y="356.032305" style="fill: #eb6ab0; stroke: #eb6ab0"/>
     <use xlink:href="#m363f9f36c7" x="375.419873" y="356.032305" style="fill: #eb6ab0; stroke: #eb6ab0"/>
     <use xlink:href="#m363f9f36c7" x="380.138689" y="356.032305" style="fill: #eb6ab0; stroke: #eb6ab0"/>
     <use xlink:href="#m363f9f36c7" x="384.857505" y="356.032305" style="fill: #eb6ab0; stroke: #eb6ab0"/>
     <use xlink:href="#m363f9f36c7" x="389.576321" y="356.032305" style="fill: #eb6ab0; stroke: #eb6ab0"/>
     <use xlink:href="#m363f9f36c7" x="394.295137" y="356.032305" style="fill: #eb6ab0; stroke: #eb6ab0"/>
     <use xlink:href="#m363f9f36c7" x="399.013953" y="356.032305" style="fill: #eb6ab0; stroke: #eb6ab0"/>
     <use xlink:href="#m363f9f36c7" x="403.73277" y="356.032305" style="fill: #eb6ab0; stroke: #eb6ab0"/>
     <use xlink:href="#m363f9f36c7" x="408.451586" y="356.032305" style="fill: #eb6ab0; stroke: #eb6ab0"/>
     <use xlink:href="#m363f9f36c7" x="413.170402" y="356.032305" style="fill: #eb6ab0; stroke: #eb6ab0"/>
     <use xlink:href="#m363f9f36c7" x="417.889218" y="356.032305" style="fill: #eb6ab0; stroke: #eb6ab0"/>
     <use xlink:href="#m363f9f36c7" x="422.608034" y="356.032305" style="fill: #eb6ab0; stroke: #eb6ab0"/>
     <use xlink:href="#m363f9f36c7" x="427.32685" y="356.032305" style="fill: #eb6ab0; stroke: #eb6ab0"/>
     <use xlink:href="#m363f9f36c7" x="432.045666" y="356.032305" style="fill: #eb6ab0; stroke: #eb6ab0"/>
     <use xlink:href="#m363f9f36c7" x="436.764482" y="356.032305" style="fill: #eb6ab0; stroke: #eb6ab0"/>
     <use xlink:href="#m363f9f36c7" x="441.483298" y="356.032305" style="fill: #eb6ab0; stroke: #eb6ab0"/>
     <use xlink:href="#m363f9f36c7" x="446.202114" y="356.032305" style="fill: #eb6ab0; stroke: #eb6ab0"/>
     <use xlink:href="#m363f9f36c7" x="450.92093" y="356.032305" style="fill: #eb6ab0; stroke: #eb6ab0"/>
     <use xlink:href="#m363f9f36c7" x="455.639746" y="356.032305" style="fill: #eb6ab0; stroke: #eb6ab0"/>
     <use xlink:href="#m363f9f36c7" x="460.358562" y="356.032305" style="fill: #eb6ab0; stroke: #eb6ab0"/>
     <use xlink:href="#m363f9f36c7" x="465.077378" y="356.032305" style="fill: #eb6ab0; stroke: #eb6ab0"/>
     <use xlink:href="#m363f9f36c7" x="469.796195" y="356.032305" style="fill: #eb6ab0; stroke: #eb6ab0"/>
     <use xlink:href="#m363f9f36c7" x="474.515011" y="356.032305" style="fill: #eb6ab0; stroke: #eb6ab0"/>
     <use xlink:href="#m363f9f36c7" x="479.233827" y="356.032305" style="fill: #eb6ab0; stroke: #eb6ab0"/>
     <use xlink:href="#m363f9f36c7" x="483.952643" y="356.032305" style="fill: #eb6ab0; stroke: #eb6ab0"/>
     <use xlink:href="#m363f9f36c7" x="488.671459" y="356.032305" style="fill: #eb6ab0; stroke: #eb6ab0"/>
     <use xlink:href="#m363f9f36c7" x="493.390275" y="356.032305" style="fill: #eb6ab0; stroke: #eb6ab0"/>
     <use xlink:href="#m363f9f36c7" x="498.109091" y="356.032305" style="fill: #eb6ab0; stroke: #eb6ab0"/>
    </g>
   </g>
   <g id="PathCollection_2">
    <defs>
     <path id="m7a14f64331" d="M -2.5 2.5 
L 2.5 2.5 
L 2.5 -2.5 
L -2.5 -2.5 
z
" style="stroke: #8b0a50"/>
    </defs>
    <g clip-path="url(#p0f7a93c61e)">
     <use xlink:href="#m7a14f64331" x="186.66723" y="363.174545" style="fill: #8b0a50; stroke: #8b0a50"/>
     <use xlink:href="#m7a14f64331" x="191.386047" y="363.174545" style="fill: #8b0a50; stroke: #8b0a50"/>
     <use xlink:href="#m7a14f64331" x="196.104863" y="363.174545" style="fill: #8b0a50; stroke: #8b0a50"/>
     <use xlink:href="#m7a14f64331" x="200.823679" y="363.174545" style="fill: #8b0a50; stroke: #8b0a50"/>
     <use xlink:href="#m7a14f64331" x="205.542495" y="363.174545" style="fill: #8b0a50; stroke: #8b0a50"/>
     <use xlink:href="#m7a14f64331" x="210.261311" y="363.174545" style="fill: #8b0a50; stroke: #8b0a50"/>
     <use xlink:href="#m7a14f64331" x="214.980127" y="363.174545" style="fill: #8b0a50; stroke: #8b0a50"/>
     <use xlink:href="#m7a14f64331" x="219.698943" y="363.174545" style="fill: #8b0a50; stroke: #8b0a50"/>
     <use xlink:href="#m7a14f64331" x="224.417759" y="363.174545" style="fill: #8b0a50; stroke: #8b0a50"/>
     <use xlink:href="#m7a14f64331" x="229.136575" y="363.174545" style="fill: #8b0a50; stroke: #8b0a50"/>
     <use xlink:href="#m7a14f64331" x="233.855391" y="363.174545" style="fill: #8b0a50; stroke: #8b0a50"/>
     <use xlink:href="#m7a14f64331" x="238.574207" y="363.174545" style="fill: #8b0a50; stroke: #8b0a50"/>
     <use xlink:href="#m7a14f64331" x="243.293023" y="363.174545" style="fill: #8b0a50; stroke: #8b0a50"/>
     <use xlink:href="#m7a14f64331" x="248.011839" y="363.174545" style="fill: #8b0a50; stroke: #8b0a50"/>
     <use xlink:href="#m7a14f64331" x="252.730655" y="363.174545" style="fill: #8b0a50; stroke: #8b0a50"/>
     <use xlink:href="#m7a14f64331" x="257.449471" y="363.174545" style="fill: #8b0a50; stroke: #8b0a50"/>
     <use xlink:href="#m7a14f64331" x="262.168288" y="363.174545" style="fill: #8b0a50; stroke: #8b0a50"/>
     <use xlink:href="#m7a14f64331" x="266.887104" y="363.174545" style="fill: #8b0a50; stroke: #8b0a50"/>
     <use xlink:href="#m7a14f64331" x="271.60592" y="363.174545" style="fill: #8b0a50; stroke: #8b0a50"/>
     <use xlink:href="#m7a14f64331" x="276.324736" y="363.174545" style="fill: #8b0a50; stroke: #8b0a50"/>
     <use xlink:href="#m7a14f64331" x="281.043552" y="363.174545" style="fill: #8b0a50; stroke: #8b0a50"/>
     <use xlink:href="#m7a14f64331" x="285.762368" y="363.174545" style="fill: #8b0a50; stroke: #8b0a50"/>
     <use xlink:href="#m7a14f64331" x="290.481184" y="363.174545" style="fill: #8b0a50; stroke: #8b0a50"/>
     <use xlink:href="#m7a14f64331" x="295.2" y="363.174545" style="fill: #8b0a50; stroke: #8b0a50"/>
     <use xlink:href="#m7a14f64331" x="299.918816" y="363.174545" style="fill: #8b0a50; stroke: #8b0a50"/>
     <use xlink:href="#m7a14f64331" x="304.637632" y="363.174545" style="fill: #8b0a50; stroke: #8b0a50"/>
     <use xlink:href="#m7a14f64331" x="309.356448" y="363.174545" style="fill: #8b0a50; stroke: #8b0a50"/>
     <use xlink:href="#m7a14f64331" x="314.075264" y="363.174545" style="fill: #8b0a50; stroke: #8b0a50"/>
     <use xlink:href="#m7a14f64331" x="318.79408" y="363.174545" style="fill: #8b0a50; stroke: #8b0a50"/>
     <use xlink:href="#m7a14f64331" x="323.512896" y="363.174545" style="fill: #8b0a50; stroke: #8b0a50"/>
     <use xlink:href="#m7a14f64331" x="328.231712" y="363.174545" style="fill: #8b0a50; stroke: #8b0a50"/>
     <use xlink:href="#m7a14f64331" x="332.950529" y="363.174545" style="fill: #8b0a50; stroke: #8b0a50"/>
     <use xlink:href="#m7a14f64331" x="337.669345" y="363.174545" style="fill: #8b0a50; stroke: #8b0a50"/>
     <use xlink:href="#m7a14f64331" x="342.388161" y="363.174545" style="fill: #8b0a50; stroke: #8b0a50"/>
     <use xlink:href="#m7a14f64331" x="347.106977" y="363.174545" style="fill: #8b0a50; stroke: #8b0a50"/>
     <use xlink:href="#m7a14f64331" x="351.825793" y="363.174545" style="fill: #8b0a50; stroke: #8b0a50"/>
     <use xlink:href="#m7a14f64331" x="356.544609" y="363.174545" style="fill: #8b0a50; stroke: #8b0a50"/>
     <use xlink:href="#m7a14f64331" x="361.263425" y="363.174545" style="fill: #8b0a50; stroke: #8b0a50"/>
     <use xlink:href="#m7a14f64331" x="365.982241" y="363.174545" style="fill: #8b0a50; stroke: #8b0a50"/>
     <use xlink:href="#m7a14f64331" x="370.701057" y="363.174545" style="fill: #8b0a50; stroke: #8b0a50"/>
     <use xlink:href="#m7a14f64331" x="375.419873" y="363.174545" style="fill: #8b0a50; stroke: #8b0a50"/>
     <use xlink:href="#m7a14f64331" x="380.138689" y="363.174545" style="fill: #8b0a50; stroke: #8b0a50"/>
     <use xlink:href="#m7a14f64331" x="384.857505" y="363.174545" style="fill: #8b0a50; stroke: #8b0a50"/>
     <use xlink:href="#m7a14f64331" x="389.576321" y="363.174545" style="fill: #8b0a50; stroke: #8b0a50"/>
     <use xlink:href="#m7a14f64331" x="394.295137" y="363.174545" style="fill: #8b0a50; stroke: #8b0a50"/>
     <use xlink:href="#m7a14f64331" x="399.013953" y="363.174545" style="fill: #8b0a50; stroke: #8b0a50"/>
     <use xlink:href="#m7a14f64331" x="403.73277" y="363.174545" style="fill: #8b0a50; stroke: #8b0a50"/>
     <use xlink:href="#m7a14f64331" x="408.451586" y="363.174545" style="fill: #8b0a50; stroke: #8b0a50"/>
     <use xlink:href="#m7a14f64331" x="413.170402" y="363.174545" style="fill: #8b0a50; stroke: #8b0a50"/>
     <use xlink:href="#m7a14f64331" x="417.889218" y="363.174545" style="fill: #8b0a50; stroke: #8b0a50"/>
     <use xlink:href="#m7a14f64331" x="422.608034" y="363.174545" style="fill: #8b0a50; stroke: #8b0a50"/>
     <use xlink:href="#m7a14f64331" x="427.32685" y="363.174545" style="fill: #8b0a50; stroke: #8b0a50"/>
     <use xlink:href="#m7a14f64331" x="432.045666" y="363.174545" style="fill: #8b0a50; stroke: #8b0a50"/>
     <use xlink:href="#m7a14f64331" x="436.764482" y="363.174545" style="fill: #8b0a50; stroke: #8b0a50"/>
     <use xlink:href="#m7a14f64331" x="441.483298" y="363.174545" style="fill: #8b0a50; stroke: #8b0a50"/>
     <use xlink:href="#m7a14f64331" x="446.202114" y="363.174545" style="fill: #8b0a50; stroke: #8b0a50"/>
     <use xlink:href="#m7a14f64331" x="450.92093" y="363.174545" style="fill: #8b0a50; stroke: #8b0a50"/>
     <use xlink:href="#m7a14f64331" x="455.639746" y="363.174545" style="fill: #8b0a50; stroke: #8b0a50"/>
     <use xlink:href="#m7a14f64331" x="460.358562" y="363.174545" style="fill: #8b0a50; stroke: #8b0a50"/>
     <use xlink:href="#m7a14f64331" x="465.077378" y="363.174545" style="fill: #8b0a50; stroke: #8b0a50"/>
     <use xlink:href="#m7a14f64331" x="469.796195" y="363.174545" style="fill: #8b0a50; stroke: #8b0a50"/>
     <use xlink:href="#m7a14f64331" x="474.515011" y="363.174545" style="fill: #8b0a50; stroke: #8b0a50"/>
     <use xlink:href="#m7a14f64331" x="479.233827" y="363.174545" style="fill: #8b0a50; stroke: #8b0a50"/>
     <use xlink:href="#m7a14f64331" x="483.952643" y="363.174545" style="fill: #8b0a50; stroke: #8b0a50"/>
     <use xlink:href="#m7a14f64331" x="488.671459" y="363.174545" style="fill: #8b0a50; stroke: #8b0a50"/>
     <use xlink:href="#m7a14f64331" x="493.390275" y="363.174545" style="fill: #8b0a50; stroke: #8b0a50"/>
     <use xlink:href="#m7a14f64331" x="498.109091" y="363.174545" style="fill: #8b0a50; stroke: #8b0a50"/>
    </g>
   </g>
   <g id="matplotlib.axis_1">
    <g id="xtick_1">
     <g id="line2d_1">
      <defs>
       <path id="m3b45747f89" d="M 0 0 
L 0 5 
" style="stroke: #000000; stroke-width: 1.5"/>
      </defs>
      <g>
       <use xlink:href="#m3b45747f89" x="80.493869" y="378" style="stroke: #000000; stroke-width: 1.5"/>
      </g>
     </g>
     <g id="text_1">
      <!-- −250 -->
      <g transform="translate(59.893478 397.897656) scale(0.15 -0.15)">
       <defs>
        <path id="DejaVuSans-2212" d="M 678 2272 
L 4684 2272 
L 4684 1741 
L 678 1741 
L 678 2272 
z
" transform="scale(0.015625)"/>
        <path id="DejaVuSans-32" d="M 1228 531 
L 3431 531 
L 3431 0 
L 469 0 
L 469 531 
Q 828 903 1448 1529 
Q 2069 2156 2228 2338 
Q 2531 2678 2651 2914 
Q 2772 3150 2772 3378 
Q 2772 3750 2511 3984 
Q 2250 4219 1831 4219 
Q 1534 4219 1204 4116 
Q 875 4013 500 3803 
L 500 4441 
Q 881 4594 1212 4672 
Q 1544 4750 1819 4750 
Q 2544 4750 2975 4387 
Q 3406 4025 3406 3419 
Q 3406 3131 3298 2873 
Q 3191 2616 2906 2266 
Q 2828 2175 2409 1742 
Q 1991 1309 1228 531 
z
" transform="scale(0.015625)"/>
        <path id="DejaVuSans-35" d="M 691 4666 
L 3169 4666 
L 3169 4134 
L 1269 4134 
L 1269 2991 
Q 1406 3038 1543 3061 
Q 1681 3084 1819 3084 
Q 2600 3084 3056 2656 
Q 3513 2228 3513 1497 
Q 3513 744 3044 326 
Q 2575 -91 1722 -91 
Q 1428 -91 1123 -41 
Q 819 9 494 109 
L 494 744 
Q 775 591 1075 516 
Q 1375 441 1709 441 
Q 2250 441 2565 725 
Q 2881 1009 2881 1497 
Q 2881 1984 2565 2268 
Q 2250 2553 1709 2553 
Q 1456 2553 1204 2497 
Q 953 2441 691 2322 
L 691 4666 
z
" transform="scale(0.015625)"/>
        <path id="DejaVuSans-30" d="M 2034 4250 
Q 1547 4250 1301 3770 
Q 1056 3291 1056 2328 
Q 1056 1369 1301 889 
Q 1547 409 2034 409 
Q 2525 409 2770 889 
Q 3016 1369 3016 2328 
Q 3016 3291 2770 3770 
Q 2525 4250 2034 4250 
z
M 2034 4750 
Q 2819 4750 3233 4129 
Q 3647 3509 3647 2328 
Q 3647 1150 3233 529 
Q 2819 -91 2034 -91 
Q 1250 -91 836 529 
Q 422 1150 422 2328 
Q 422 3509 836 4129 
Q 1250 4750 2034 4750 
z
" transform="scale(0.015625)"/>
       </defs>
       <use xlink:href="#DejaVuSans-2212"/>
       <use xlink:href="#DejaVuSans-32" x="83.789062"/>
       <use xlink:href="#DejaVuSans-35" x="147.412109"/>
       <use xlink:href="#DejaVuSans-30" x="211.035156"/>
      </g>
     </g>
    </g>
    <g id="xtick_2">
     <g id="line2d_2">
      <g>
       <use xlink:href="#m3b45747f89" x="139.47907" y="378" style="stroke: #000000; stroke-width: 1.5"/>
      </g>
     </g>
     <g id="text_2">
      <!-- 0 -->
      <g transform="translate(134.707195 397.897656) scale(0.15 -0.15)">
       <use xlink:href="#DejaVuSans-30"/>
      </g>
     </g>
    </g>
    <g id="xtick_3">
     <g id="line2d_3">
      <g>
       <use xlink:href="#m3b45747f89" x="198.464271" y="378" style="stroke: #000000; stroke-width: 1.5"/>
      </g>
     </g>
     <g id="text_3">
      <!-- 250 -->
      <g transform="translate(184.148646 397.897656) scale(0.15 -0.15)">
       <use xlink:href="#DejaVuSans-32"/>
       <use xlink:href="#DejaVuSans-35" x="63.623047"/>
       <use xlink:href="#DejaVuSans-30" x="127.246094"/>
      </g>
     </g>
    </g>
    <g id="xtick_4">
     <g id="line2d_4">
      <g>
       <use xlink:href="#m3b45747f89" x="257.449471" y="378" style="stroke: #000000; stroke-width: 1.5"/>
      </g>
     </g>
     <g id="text_4">
      <!-- 500 -->
      <g transform="translate(243.133846 397.897656) scale(0.15 -0.15)">
       <use xlink:href="#DejaVuSans-35"/>
       <use xlink:href="#DejaVuSans-30" x="63.623047"/>
       <use xlink:href="#DejaVuSans-30" x="127.246094"/>
      </g>
     </g>
    </g>
    <g id="xtick_5">
     <g id="line2d_5">
      <g>
       <use xlink:href="#m3b45747f89" x="316.434672" y="378" style="stroke: #000000; stroke-width: 1.5"/>
      </g>
     </g>
     <g id="text_5">
      <!-- 750 -->
      <g transform="translate(302.119047 397.897656) scale(0.15 -0.15)">
       <defs>
        <path id="DejaVuSans-37" d="M 525 4666 
L 3525 4666 
L 3525 4397 
L 1831 0 
L 1172 0 
L 2766 4134 
L 525 4134 
L 525 4666 
z
" transform="scale(0.015625)"/>
       </defs>
       <use xlink:href="#DejaVuSans-37"/>
       <use xlink:href="#DejaVuSans-35" x="63.623047"/>
       <use xlink:href="#DejaVuSans-30" x="127.246094"/>
      </g>
     </g>
    </g>
    <g id="xtick_6">
     <g id="line2d_6">
      <g>
       <use xlink:href="#m3b45747f89" x="375.419873" y="378" style="stroke: #000000; stroke-width: 1.5"/>
      </g>
     </g>
     <g id="text_6">
      <!-- 1000 -->
      <g transform="translate(356.332373 397.897656) scale(0.15 -0.15)">
       <defs>
        <path id="DejaVuSans-31" d="M 794 531 
L 1825 531 
L 1825 4091 
L 703 3866 
L 703 4441 
L 1819 4666 
L 2450 4666 
L 2450 531 
L 3481 531 
L 3481 0 
L 794 0 
L 794 531 
z
" transform="scale(0.015625)"/>
       </defs>
       <use xlink:href="#DejaVuSans-31"/>
       <use xlink:href="#DejaVuSans-30" x="63.623047"/>
       <use xlink:href="#DejaVuSans-30" x="127.246094"/>
       <use xlink:href="#DejaVuSans-30" x="190.869141"/>
      </g>
     </g>
    </g>
    <g id="xtick_7">
     <g id="line2d_7">
      <g>
       <use xlink:href="#m3b45747f89" x="434.405074" y="378" style="stroke: #000000; stroke-width: 1.5"/>
      </g>
     </g>
     <g id="text_7">
      <!-- 1250 -->
      <g transform="translate(415.317574 397.897656) scale(0.15 -0.15)">
       <use xlink:href="#DejaVuSans-31"/>
       <use xlink:href="#DejaVuSans-32" x="63.623047"/>
       <use xlink:href="#DejaVuSans-35" x="127.246094"/>
       <use xlink:href="#DejaVuSans-30" x="190.869141"/>
      </g>
     </g>
    </g>
    <g id="xtick_8">
     <g id="line2d_8">
      <g>
       <use xlink:href="#m3b45747f89" x="493.390275" y="378" style="stroke: #000000; stroke-width: 1.5"/>
      </g>
     </g>
     <g id="text_8">
      <!-- 1500 -->
      <g transform="translate(474.302775 397.897656) scale(0.15 -0.15)">
       <use xlink:href="#DejaVuSans-31"/>
       <use xlink:href="#DejaVuSans-35" x="63.623047"/>
       <use xlink:href="#DejaVuSans-30" x="127.246094"/>
       <use xlink:href="#DejaVuSans-30" x="190.869141"/>
      </g>
     </g>
    </g>
    <g id="text_9">
     <!-- time -->
     <g transform="translate(278.255859 416.414844) scale(0.15 -0.15)">
      <defs>
       <path id="DejaVuSans-74" d="M 1172 4494 
L 1172 3500 
L 2356 3500 
L 2356 3053 
L 1172 3053 
L 1172 1153 
Q 1172 725 1289 603 
Q 1406 481 1766 481 
L 2356 481 
L 2356 0 
L 1766 0 
Q 1100 0 847 248 
Q 594 497 594 1153 
L 594 3053 
L 172 3053 
L 172 3500 
L 594 3500 
L 594 4494 
L 1172 4494 
z
" transform="scale(0.015625)"/>
       <path id="DejaVuSans-69" d="M 603 3500 
L 1178 3500 
L 1178 0 
L 603 0 
L 603 3500 
z
M 603 4863 
L 1178 4863 
L 1178 4134 
L 603 4134 
L 603 4863 
z
" transform="scale(0.015625)"/>
       <path id="DejaVuSans-6d" d="M 3328 2828 
Q 3544 3216 3844 3400 
Q 4144 3584 4550 3584 
Q 5097 3584 5394 3201 
Q 5691 2819 5691 2113 
L 5691 0 
L 5113 0 
L 5113 2094 
Q 5113 2597 4934 2840 
Q 4756 3084 4391 3084 
Q 3944 3084 3684 2787 
Q 3425 2491 3425 1978 
L 3425 0 
L 2847 0 
L 2847 2094 
Q 2847 2600 2669 2842 
Q 2491 3084 2119 3084 
Q 1678 3084 1418 2786 
Q 1159 2488 1159 1978 
L 1159 0 
L 581 0 
L 581 3500 
L 1159 3500 
L 1159 2956 
Q 1356 3278 1631 3431 
Q 1906 3584 2284 3584 
Q 2666 3584 2933 3390 
Q 3200 3197 3328 2828 
z
" transform="scale(0.015625)"/>
       <path id="DejaVuSans-65" d="M 3597 1894 
L 3597 1613 
L 953 1613 
Q 991 1019 1311 708 
Q 1631 397 2203 397 
Q 2534 397 2845 478 
Q 3156 559 3463 722 
L 3463 178 
Q 3153 47 2828 -22 
Q 2503 -91 2169 -91 
Q 1331 -91 842 396 
Q 353 884 353 1716 
Q 353 2575 817 3079 
Q 1281 3584 2069 3584 
Q 2775 3584 3186 3129 
Q 3597 2675 3597 1894 
z
M 3022 2063 
Q 3016 2534 2758 2815 
Q 2500 3097 2075 3097 
Q 1594 3097 1305 2825 
Q 1016 2553 972 2059 
L 3022 2063 
z
" transform="scale(0.015625)"/>
      </defs>
      <use xlink:href="#DejaVuSans-74"/>
      <use xlink:href="#DejaVuSans-69" x="39.208984"/>
      <use xlink:href="#DejaVuSans-6d" x="66.992188"/>
      <use xlink:href="#DejaVuSans-65" x="164.404297"/>
     </g>
    </g>
   </g>
   <g id="matplotlib.axis_2">
    <g id="ytick_1">
     <g id="line2d_9">
      <defs>
       <path id="m94ed93e639" d="M 0 0 
L -5 0 
" style="stroke: #000000; stroke-width: 1.5"/>
      </defs>
      <g>
       <use xlink:href="#m94ed93e639" x="72" y="341.164126" style="stroke: #000000; stroke-width: 1.5"/>
      </g>
     </g>
     <g id="text_10">
      <!-- 0.0 -->
      <g transform="translate(39.645313 346.862954) scale(0.15 -0.15)">
       <defs>
        <path id="DejaVuSans-2e" d="M 684 794 
L 1344 794 
L 1344 0 
L 684 0 
L 684 794 
z
" transform="scale(0.015625)"/>
       </defs>
       <use xlink:href="#DejaVuSans-30"/>
       <use xlink:href="#DejaVuSans-2e" x="63.623047"/>
       <use xlink:href="#DejaVuSans-30" x="95.410156"/>
      </g>
     </g>
    </g>
    <g id="ytick_2">
     <g id="line2d_10">
      <g>
       <use xlink:href="#m94ed93e639" x="72" y="244.031186" style="stroke: #000000; stroke-width: 1.5"/>
      </g>
     </g>
     <g id="text_11">
      <!-- 0.1 -->
      <g transform="translate(39.645313 249.730014) scale(0.15 -0.15)">
       <use xlink:href="#DejaVuSans-30"/>
       <use xlink:href="#DejaVuSans-2e" x="63.623047"/>
       <use xlink:href="#DejaVuSans-31" x="95.410156"/>
      </g>
     </g>
    </g>
    <g id="ytick_3">
     <g id="line2d_11">
      <g>
       <use xlink:href="#m94ed93e639" x="72" y="146.898246" style="stroke: #000000; stroke-width: 1.5"/>
      </g>
     </g>
     <g id="text_12">
      <!-- 0.2 -->
      <g transform="translate(39.645313 152.597074) scale(0.15 -0.15)">
       <use xlink:href="#DejaVuSans-30"/>
       <use xlink:href="#DejaVuSans-2e" x="63.623047"/>
       <use xlink:href="#DejaVuSans-32" x="95.410156"/>
      </g>
     </g>
    </g>
    <g id="text_13">
     <!-- firing rate -->
     <g transform="translate(32.525781 251.943047) rotate(-90) scale(0.15 -0.15)">
      <defs>
       <path id="DejaVuSans-66" d="M 2375 4863 
L 2375 4384 
L 1825 4384 
Q 1516 4384 1395 4259 
Q 1275 4134 1275 3809 
L 1275 3500 
L 2222 3500 
L 2222 3053 
L 1275 3053 
L 1275 0 
L 697 0 
L 697 3053 
L 147 3053 
L 147 3500 
L 697 3500 
L 697 3744 
Q 697 4328 969 4595 
Q 1241 4863 1831 4863 
L 2375 4863 
z
" transform="scale(0.015625)"/>
       <path id="DejaVuSans-72" d="M 2631 2963 
Q 2534 3019 2420 3045 
Q 2306 3072 2169 3072 
Q 1681 3072 1420 2755 
Q 1159 2438 1159 1844 
L 1159 0 
L 581 0 
L 581 3500 
L 1159 3500 
L 1159 2956 
Q 1341 3275 1631 3429 
Q 1922 3584 2338 3584 
Q 2397 3584 2469 3576 
Q 2541 3569 2628 3553 
L 2631 2963 
z
" transform="scale(0.015625)"/>
       <path id="DejaVuSans-6e" d="M 3513 2113 
L 3513 0 
L 2938 0 
L 2938 2094 
Q 2938 2591 2744 2837 
Q 2550 3084 2163 3084 
Q 1697 3084 1428 2787 
Q 1159 2491 1159 1978 
L 1159 0 
L 581 0 
L 581 3500 
L 1159 3500 
L 1159 2956 
Q 1366 3272 1645 3428 
Q 1925 3584 2291 3584 
Q 2894 3584 3203 3211 
Q 3513 2838 3513 2113 
z
" transform="scale(0.015625)"/>
       <path id="DejaVuSans-67" d="M 2906 1791 
Q 2906 2416 2648 2759 
Q 2391 3103 1925 3103 
Q 1463 3103 1205 2759 
Q 947 2416 947 1791 
Q 947 1169 1205 825 
Q 1463 481 1925 481 
Q 2391 481 2648 825 
Q 2906 1169 2906 1791 
z
M 3481 434 
Q 3481 -459 3084 -895 
Q 2688 -1331 1869 -1331 
Q 1566 -1331 1297 -1286 
Q 1028 -1241 775 -1147 
L 775 -588 
Q 1028 -725 1275 -790 
Q 1522 -856 1778 -856 
Q 2344 -856 2625 -561 
Q 2906 -266 2906 331 
L 2906 616 
Q 2728 306 2450 153 
Q 2172 0 1784 0 
Q 1141 0 747 490 
Q 353 981 353 1791 
Q 353 2603 747 3093 
Q 1141 3584 1784 3584 
Q 2172 3584 2450 3431 
Q 2728 3278 2906 2969 
L 2906 3500 
L 3481 3500 
L 3481 434 
z
" transform="scale(0.015625)"/>
       <path id="DejaVuSans-20" transform="scale(0.015625)"/>
       <path id="DejaVuSans-61" d="M 2194 1759 
Q 1497 1759 1228 1600 
Q 959 1441 959 1056 
Q 959 750 1161 570 
Q 1363 391 1709 391 
Q 2188 391 2477 730 
Q 2766 1069 2766 1631 
L 2766 1759 
L 2194 1759 
z
M 3341 1997 
L 3341 0 
L 2766 0 
L 2766 531 
Q 2569 213 2275 61 
Q 1981 -91 1556 -91 
Q 1019 -91 701 211 
Q 384 513 384 1019 
Q 384 1609 779 1909 
Q 1175 2209 1959 2209 
L 2766 2209 
L 2766 2266 
Q 2766 2663 2505 2880 
Q 2244 3097 1772 3097 
Q 1472 3097 1187 3025 
Q 903 2953 641 2809 
L 641 3341 
Q 956 3463 1253 3523 
Q 1550 3584 1831 3584 
Q 2591 3584 2966 3190 
Q 3341 2797 3341 1997 
z
" transform="scale(0.015625)"/>
      </defs>
      <use xlink:href="#DejaVuSans-66"/>
      <use xlink:href="#DejaVuSans-69" x="35.205078"/>
      <use xlink:href="#DejaVuSans-72" x="62.988281"/>
      <use xlink:href="#DejaVuSans-69" x="104.101562"/>
      <use xlink:href="#DejaVuSans-6e" x="131.884766"/>
      <use xlink:href="#DejaVuSans-67" x="195.263672"/>
      <use xlink:href="#DejaVuSans-20" x="258.740234"/>
      <use xlink:href="#DejaVuSans-72" x="290.527344"/>
      <use xlink:href="#DejaVuSans-61" x="331.640625"/>
      <use xlink:href="#DejaVuSans-74" x="392.919922"/>
      <use xlink:href="#DejaVuSans-65" x="432.128906"/>
     </g>
    </g>
   </g>
   <g id="line2d_12">
    <path d="M 92.290909 344.12857 
L 97.009725 340.233617 
L 101.728541 339.921277 
L 106.447357 339.043424 
L 111.166173 340.936401 
L 115.884989 340.302314 
L 120.603805 341.678656 
L 125.322622 339.614617 
L 130.041438 340.337252 
L 134.760254 341.713695 
L 139.47907 328.192977 
L 144.197886 330.040205 
L 148.916702 326.097392 
L 153.635518 318.720508 
L 158.354334 311.244039 
L 163.07315 304.677148 
L 167.791966 297.729618 
L 172.510782 293.311612 
L 177.229598 284.922991 
L 181.948414 272.838846 
L 186.66723 260.673086 
L 191.386047 251.416646 
L 196.104863 244.006683 
L 200.823679 236.36259 
L 205.542495 234.108525 
L 210.261311 230.36697 
L 214.980127 220.174373 
L 219.698943 211.659762 
L 224.417759 210.050859 
L 229.136575 204.978241 
L 233.855391 205.188627 
L 238.574207 202.746912 
L 243.293023 203.506913 
L 248.011839 200.296934 
L 252.730655 197.91356 
L 257.449471 195.431729 
L 262.168288 192.468671 
L 266.887104 195.777443 
L 271.60592 198.502474 
L 276.324736 195.946105 
L 281.043552 196.211295 
L 285.762368 192.184424 
L 290.481184 183.642546 
L 295.2 173.611466 
L 299.918816 163.340813 
L 304.637632 163.428576 
L 309.356448 157.815511 
L 314.075264 156.000934 
L 318.79408 155.61414 
L 323.512896 152.430773 
L 328.231712 147.565427 
L 332.950529 143.263362 
L 337.669345 145.287505 
L 342.388161 138.292771 
L 347.106977 129.84463 
L 351.825793 119.735426 
L 356.544609 116.275109 
L 361.263425 115.143409 
L 365.982241 119.561112 
L 370.701057 135.697217 
L 375.419873 170.112124 
L 380.138689 116.52733 
L 384.857505 106.053872 
L 389.576321 123.927409 
L 394.295137 156.812259 
L 399.013953 175.415493 
L 403.73277 164.600448 
L 408.451586 155.906325 
L 413.170402 147.889058 
L 417.889218 142.74 
L 422.608034 145.877591 
L 427.32685 150.047903 
L 432.045666 148.68547 
L 436.764482 147.965101 
L 441.483298 142.832304 
L 446.202114 144.462263 
L 450.92093 145.01231 
L 455.639746 148.090625 
L 460.358562 148.746544 
L 465.077378 146.81052 
L 469.796195 145.474599 
L 474.515011 146.641327 
L 479.233827 149.183172 
L 483.952643 148.824098 
L 488.671459 148.215214 
L 493.390275 151.767569 
L 498.109091 151.6133 
" clip-path="url(#p0f7a93c61e)" style="fill: none; stroke: #eb6ab0; stroke-width: 2; stroke-linecap: square"/>
   </g>
   <g id="line2d_13">
    <path d="M 92.290909 340.899143 
L 97.009725 340.951573 
L 101.728541 340.976696 
L 106.447357 341.383807 
L 111.166173 341.016418 
L 115.884989 340.843579 
L 120.603805 341.221129 
L 125.322622 341.059742 
L 130.041438 341.022768 
L 134.760254 340.925379 
L 139.47907 336.442578 
L 144.197886 334.935444 
L 148.916702 334.422649 
L 153.635518 334.235166 
L 158.354334 333.582565 
L 163.07315 332.847452 
L 167.791966 331.820915 
L 172.510782 330.512094 
L 177.229598 329.229442 
L 181.948414 328.384612 
L 186.66723 327.782954 
L 191.386047 326.963227 
L 196.104863 325.699185 
L 200.823679 325.560918 
L 205.542495 326.752597 
L 210.261311 327.13967 
L 214.980127 326.302151 
L 219.698943 326.184828 
L 224.417759 326.018176 
L 229.136575 327.13134 
L 233.855391 327.705731 
L 238.574207 326.884498 
L 243.293023 326.408899 
L 248.011839 326.083447 
L 252.730655 326.164703 
L 257.449471 326.100002 
L 262.168288 325.656177 
L 266.887104 325.490559 
L 271.60592 326.257572 
L 276.324736 326.919879 
L 281.043552 327.052962 
L 285.762368 326.973852 
L 290.481184 326.999518 
L 295.2 326.147124 
L 299.918816 325.169529 
L 304.637632 324.793765 
L 309.356448 325.549532 
L 314.075264 325.665729 
L 318.79408 325.636169 
L 323.512896 325.717573 
L 328.231712 325.976831 
L 332.950529 325.183138 
L 337.669345 323.820126 
L 342.388161 323.352413 
L 347.106977 323.64691 
L 351.825793 324.614795 
L 356.544609 324.912767 
L 361.263425 324.815135 
L 365.982241 325.284791 
L 370.701057 328.210865 
L 375.419873 333.906473 
L 380.138689 334.207131 
L 384.857505 333.732819 
L 389.576321 333.996062 
L 394.295137 334.233909 
L 399.013953 334.692445 
L 403.73277 334.410919 
L 408.451586 334.101122 
L 413.170402 334.146301 
L 417.889218 334.479331 
L 422.608034 334.224013 
L 427.32685 334.35502 
L 432.045666 334.053937 
L 436.764482 334.087976 
L 441.483298 334.168818 
L 446.202114 334.289481 
L 450.92093 334.380524 
L 455.639746 334.409395 
L 460.358562 334.219959 
L 465.077378 334.332411 
L 469.796195 334.255206 
L 474.515011 334.417641 
L 479.233827 334.223751 
L 483.952643 334.516333 
L 488.671459 334.557497 
L 493.390275 334.848428 
L 498.109091 334.197196 
" clip-path="url(#p0f7a93c61e)" style="fill: none; stroke-dasharray: 5.55,2.4; stroke-dashoffset: 0; stroke: #eb6ab0; stroke-opacity: 0.8; stroke-width: 1.5"/>
   </g>
   <g id="line2d_14">
    <path d="M 92.290909 337.994898 
L 97.009725 338.350883 
L 101.728541 337.835158 
L 106.447357 328.875105 
L 111.166173 330.466948 
L 115.884989 324.433422 
L 120.603805 323.026355 
L 125.322622 321.51473 
L 130.041438 315.004301 
L 134.760254 307.166242 
L 139.47907 304.734878 
L 144.197886 296.467194 
L 148.916702 295.127444 
L 153.635518 292.417375 
L 158.354334 292.361076 
L 163.07315 291.803914 
L 167.791966 295.755257 
L 172.510782 300.447694 
L 177.229598 307.542575 
L 181.948414 304.748026 
L 186.66723 300.232472 
L 191.386047 299.836196 
L 196.104863 299.154321 
L 200.823679 299.742146 
L 205.542495 295.884849 
L 210.261311 291.749535 
L 214.980127 289.585018 
L 219.698943 285.593747 
L 224.417759 282.247281 
L 229.136575 277.34872 
L 233.855391 272.666827 
L 238.574207 269.24763 
L 243.293023 264.579222 
L 248.011839 259.842626 
L 252.730655 252.933551 
L 257.449471 246.86939 
L 262.168288 244.06743 
L 266.887104 241.254997 
L 271.60592 241.631645 
L 276.324736 237.573058 
L 281.043552 232.468933 
L 285.762368 227.870408 
L 290.481184 224.714692 
L 295.2 222.382102 
L 299.918816 220.181022 
L 304.637632 215.75091 
L 309.356448 211.262284 
L 314.075264 207.257214 
L 318.79408 205.128144 
L 323.512896 201.727482 
L 328.231712 197.11265 
L 332.950529 194.103023 
L 337.669345 190.583394 
L 342.388161 184.94915 
L 347.106977 180.510148 
L 351.825793 177.376686 
L 356.544609 174.300538 
L 361.263425 169.306191 
L 365.982241 166.553783 
L 370.701057 161.497765 
L 375.419873 157.848079 
L 380.138689 157.849325 
L 384.857505 152.351829 
L 389.576321 147.258454 
L 394.295137 144.591115 
L 399.013953 144.394136 
L 403.73277 144.180565 
L 408.451586 145.944244 
L 413.170402 146.119238 
L 417.889218 147.291704 
L 422.608034 146.22422 
L 427.32685 146.612595 
L 432.045666 146.050861 
L 436.764482 146.506716 
L 441.483298 145.626307 
L 446.202114 144.086332 
L 450.92093 144.505302 
L 455.639746 142.63448 
L 460.358562 143.502631 
L 465.077378 143.999106 
L 469.796195 144.370118 
L 474.515011 142.439842 
L 479.233827 141.658693 
L 483.952643 142.495994 
L 488.671459 141.732876 
L 493.390275 143.900698 
L 498.109091 145.580427 
" clip-path="url(#p0f7a93c61e)" style="fill: none; stroke: #8b0a50; stroke-width: 2; stroke-linecap: square"/>
   </g>
   <g id="line2d_15">
    <path d="M 92.290909 338.088163 
L 97.009725 333.55241 
L 101.728541 330.177125 
L 106.447357 325.632076 
L 111.166173 321.210475 
L 115.884989 316.980045 
L 120.603805 313.228694 
L 125.322622 308.486311 
L 130.041438 303.643195 
L 134.760254 297.775236 
L 139.47907 292.874167 
L 144.197886 290.518203 
L 148.916702 290.220846 
L 153.635518 291.931098 
L 158.354334 294.234736 
L 163.07315 297.284217 
L 167.791966 300.163175 
L 172.510782 303.115355 
L 177.229598 306.247987 
L 181.948414 308.652412 
L 186.66723 310.941484 
L 191.386047 313.130819 
L 196.104863 314.85789 
L 200.823679 316.013942 
L 205.542495 317.116349 
L 210.261311 318.103667 
L 214.980127 318.96954 
L 219.698943 319.506202 
L 224.417759 320.242189 
L 229.136575 320.847156 
L 233.855391 321.062323 
L 238.574207 321.461442 
L 243.293023 321.244253 
L 248.011839 321.218675 
L 252.730655 321.1813 
L 257.449471 321.585297 
L 262.168288 321.423901 
L 266.887104 321.395469 
L 271.60592 321.18398 
L 276.324736 321.229275 
L 281.043552 321.394021 
L 285.762368 321.321267 
L 290.481184 321.309513 
L 295.2 321.41782 
L 299.918816 321.507061 
L 304.637632 321.757135 
L 309.356448 321.633191 
L 314.075264 321.625514 
L 318.79408 321.665421 
L 323.512896 321.632024 
L 328.231712 321.812196 
L 332.950529 321.925199 
L 337.669345 321.819744 
L 342.388161 322.084318 
L 347.106977 322.392563 
L 351.825793 322.772214 
L 356.544609 323.193146 
L 361.263425 323.740851 
L 365.982241 324.030505 
L 370.701057 324.640625 
L 375.419873 325.534763 
L 380.138689 326.424639 
L 384.857505 326.621019 
L 389.576321 327.103128 
L 394.295137 327.317395 
L 399.013953 327.516795 
L 403.73277 327.896052 
L 408.451586 328.32889 
L 413.170402 328.618039 
L 417.889218 328.707664 
L 422.608034 328.806009 
L 427.32685 328.760992 
L 432.045666 328.825405 
L 436.764482 328.751185 
L 441.483298 328.891249 
L 446.202114 329.018503 
L 450.92093 329.321533 
L 455.639746 329.358666 
L 460.358562 329.562658 
L 465.077378 329.683997 
L 469.796195 329.831483 
L 474.515011 330.026527 
L 479.233827 330.287788 
L 483.952643 330.34051 
L 488.671459 330.181131 
L 493.390275 330.214976 
L 498.109091 330.272607 
" clip-path="url(#p0f7a93c61e)" style="fill: none; stroke-dasharray: 5.55,2.4; stroke-dashoffset: 0; stroke: #8b0a50; stroke-opacity: 0.8; stroke-width: 1.5"/>
   </g>
   <g id="line2d_16">
    <path d="M 139.47907 378 
L 139.47907 51.84 
" clip-path="url(#p0f7a93c61e)" style="fill: none; stroke-dasharray: 5.55,2.4; stroke-dashoffset: 0; stroke: #808080; stroke-opacity: 0.7; stroke-width: 1.5"/>
   </g>
   <g id="line2d_17">
    <path d="M 375.419873 378 
L 375.419873 51.84 
" clip-path="url(#p0f7a93c61e)" style="fill: none; stroke-dasharray: 5.55,2.4; stroke-dashoffset: 0; stroke: #808080; stroke-opacity: 0.7; stroke-width: 1.5"/>
   </g>
   <g id="patch_3">
    <path d="M 72 378 
L 72 51.84 
" style="fill: none; stroke: #000000; stroke-width: 1.5; stroke-linejoin: miter; stroke-linecap: square"/>
   </g>
   <g id="patch_4">
    <path d="M 72 378 
L 518.4 378 
" style="fill: none; stroke: #000000; stroke-width: 1.5; stroke-linejoin: miter; stroke-linecap: square"/>
   </g>
   <g id="text_14">
    <!-- L2_sactemporal -->
    <g transform="translate(229.142578 45.84) scale(0.15 -0.15)">
     <defs>
      <path id="DejaVuSans-Bold-4c" d="M 588 4666 
L 1791 4666 
L 1791 909 
L 3903 909 
L 3903 0 
L 588 0 
L 588 4666 
z
" transform="scale(0.015625)"/>
      <path id="DejaVuSans-Bold-32" d="M 1844 884 
L 3897 884 
L 3897 0 
L 506 0 
L 506 884 
L 2209 2388 
Q 2438 2594 2547 2791 
Q 2656 2988 2656 3200 
Q 2656 3528 2436 3728 
Q 2216 3928 1850 3928 
Q 1569 3928 1234 3808 
Q 900 3688 519 3450 
L 519 4475 
Q 925 4609 1322 4679 
Q 1719 4750 2100 4750 
Q 2938 4750 3402 4381 
Q 3866 4013 3866 3353 
Q 3866 2972 3669 2642 
Q 3472 2313 2841 1759 
L 1844 884 
z
" transform="scale(0.015625)"/>
      <path id="DejaVuSans-Bold-5f" d="M 3200 -916 
L 3200 -1509 
L 0 -1509 
L 0 -916 
L 3200 -916 
z
" transform="scale(0.015625)"/>
      <path id="DejaVuSans-Bold-73" d="M 3272 3391 
L 3272 2541 
Q 2913 2691 2578 2766 
Q 2244 2841 1947 2841 
Q 1628 2841 1473 2761 
Q 1319 2681 1319 2516 
Q 1319 2381 1436 2309 
Q 1553 2238 1856 2203 
L 2053 2175 
Q 2913 2066 3209 1816 
Q 3506 1566 3506 1031 
Q 3506 472 3093 190 
Q 2681 -91 1863 -91 
Q 1516 -91 1145 -36 
Q 775 19 384 128 
L 384 978 
Q 719 816 1070 734 
Q 1422 653 1784 653 
Q 2113 653 2278 743 
Q 2444 834 2444 1013 
Q 2444 1163 2330 1236 
Q 2216 1309 1875 1350 
L 1678 1375 
Q 931 1469 631 1722 
Q 331 1975 331 2491 
Q 331 3047 712 3315 
Q 1094 3584 1881 3584 
Q 2191 3584 2531 3537 
Q 2872 3491 3272 3391 
z
" transform="scale(0.015625)"/>
      <path id="DejaVuSans-Bold-61" d="M 2106 1575 
Q 1756 1575 1579 1456 
Q 1403 1338 1403 1106 
Q 1403 894 1545 773 
Q 1688 653 1941 653 
Q 2256 653 2472 879 
Q 2688 1106 2688 1447 
L 2688 1575 
L 2106 1575 
z
M 3816 1997 
L 3816 0 
L 2688 0 
L 2688 519 
Q 2463 200 2181 54 
Q 1900 -91 1497 -91 
Q 953 -91 614 226 
Q 275 544 275 1050 
Q 275 1666 698 1953 
Q 1122 2241 2028 2241 
L 2688 2241 
L 2688 2328 
Q 2688 2594 2478 2717 
Q 2269 2841 1825 2841 
Q 1466 2841 1156 2769 
Q 847 2697 581 2553 
L 581 3406 
Q 941 3494 1303 3539 
Q 1666 3584 2028 3584 
Q 2975 3584 3395 3211 
Q 3816 2838 3816 1997 
z
" transform="scale(0.015625)"/>
      <path id="DejaVuSans-Bold-63" d="M 3366 3391 
L 3366 2478 
Q 3138 2634 2908 2709 
Q 2678 2784 2431 2784 
Q 1963 2784 1702 2511 
Q 1441 2238 1441 1747 
Q 1441 1256 1702 982 
Q 1963 709 2431 709 
Q 2694 709 2930 787 
Q 3166 866 3366 1019 
L 3366 103 
Q 3103 6 2833 -42 
Q 2563 -91 2291 -91 
Q 1344 -91 809 395 
Q 275 881 275 1747 
Q 275 2613 809 3098 
Q 1344 3584 2291 3584 
Q 2566 3584 2833 3536 
Q 3100 3488 3366 3391 
z
" transform="scale(0.015625)"/>
      <path id="DejaVuSans-Bold-74" d="M 1759 4494 
L 1759 3500 
L 2913 3500 
L 2913 2700 
L 1759 2700 
L 1759 1216 
Q 1759 972 1856 886 
Q 1953 800 2241 800 
L 2816 800 
L 2816 0 
L 1856 0 
Q 1194 0 917 276 
Q 641 553 641 1216 
L 641 2700 
L 84 2700 
L 84 3500 
L 641 3500 
L 641 4494 
L 1759 4494 
z
" transform="scale(0.015625)"/>
      <path id="DejaVuSans-Bold-65" d="M 4031 1759 
L 4031 1441 
L 1416 1441 
Q 1456 1047 1700 850 
Q 1944 653 2381 653 
Q 2734 653 3104 758 
Q 3475 863 3866 1075 
L 3866 213 
Q 3469 63 3072 -14 
Q 2675 -91 2278 -91 
Q 1328 -91 801 392 
Q 275 875 275 1747 
Q 275 2603 792 3093 
Q 1309 3584 2216 3584 
Q 3041 3584 3536 3087 
Q 4031 2591 4031 1759 
z
M 2881 2131 
Q 2881 2450 2695 2645 
Q 2509 2841 2209 2841 
Q 1884 2841 1681 2658 
Q 1478 2475 1428 2131 
L 2881 2131 
z
" transform="scale(0.015625)"/>
      <path id="DejaVuSans-Bold-6d" d="M 3781 2919 
Q 3994 3244 4286 3414 
Q 4578 3584 4928 3584 
Q 5531 3584 5847 3212 
Q 6163 2841 6163 2131 
L 6163 0 
L 5038 0 
L 5038 1825 
Q 5041 1866 5042 1909 
Q 5044 1953 5044 2034 
Q 5044 2406 4934 2573 
Q 4825 2741 4581 2741 
Q 4263 2741 4089 2478 
Q 3916 2216 3909 1719 
L 3909 0 
L 2784 0 
L 2784 1825 
Q 2784 2406 2684 2573 
Q 2584 2741 2328 2741 
Q 2006 2741 1831 2477 
Q 1656 2213 1656 1722 
L 1656 0 
L 531 0 
L 531 3500 
L 1656 3500 
L 1656 2988 
Q 1863 3284 2130 3434 
Q 2397 3584 2719 3584 
Q 3081 3584 3359 3409 
Q 3638 3234 3781 2919 
z
" transform="scale(0.015625)"/>
      <path id="DejaVuSans-Bold-70" d="M 1656 506 
L 1656 -1331 
L 538 -1331 
L 538 3500 
L 1656 3500 
L 1656 2988 
Q 1888 3294 2169 3439 
Q 2450 3584 2816 3584 
Q 3463 3584 3878 3070 
Q 4294 2556 4294 1747 
Q 4294 938 3878 423 
Q 3463 -91 2816 -91 
Q 2450 -91 2169 54 
Q 1888 200 1656 506 
z
M 2400 2772 
Q 2041 2772 1848 2508 
Q 1656 2244 1656 1747 
Q 1656 1250 1848 986 
Q 2041 722 2400 722 
Q 2759 722 2948 984 
Q 3138 1247 3138 1747 
Q 3138 2247 2948 2509 
Q 2759 2772 2400 2772 
z
" transform="scale(0.015625)"/>
      <path id="DejaVuSans-Bold-6f" d="M 2203 2784 
Q 1831 2784 1636 2517 
Q 1441 2250 1441 1747 
Q 1441 1244 1636 976 
Q 1831 709 2203 709 
Q 2569 709 2762 976 
Q 2956 1244 2956 1747 
Q 2956 2250 2762 2517 
Q 2569 2784 2203 2784 
z
M 2203 3584 
Q 3106 3584 3614 3096 
Q 4122 2609 4122 1747 
Q 4122 884 3614 396 
Q 3106 -91 2203 -91 
Q 1297 -91 786 396 
Q 275 884 275 1747 
Q 275 2609 786 3096 
Q 1297 3584 2203 3584 
z
" transform="scale(0.015625)"/>
      <path id="DejaVuSans-Bold-72" d="M 3138 2547 
Q 2991 2616 2845 2648 
Q 2700 2681 2553 2681 
Q 2122 2681 1889 2404 
Q 1656 2128 1656 1613 
L 1656 0 
L 538 0 
L 538 3500 
L 1656 3500 
L 1656 2925 
Q 1872 3269 2151 3426 
Q 2431 3584 2822 3584 
Q 2878 3584 2943 3579 
Q 3009 3575 3134 3559 
L 3138 2547 
z
" transform="scale(0.015625)"/>
      <path id="DejaVuSans-Bold-6c" d="M 538 4863 
L 1656 4863 
L 1656 0 
L 538 0 
L 538 4863 
z
" transform="scale(0.015625)"/>
     </defs>
     <use xlink:href="#DejaVuSans-Bold-4c"/>
     <use xlink:href="#DejaVuSans-Bold-32" x="63.720703"/>
     <use xlink:href="#DejaVuSans-Bold-5f" x="133.300781"/>
     <use xlink:href="#DejaVuSans-Bold-73" x="183.300781"/>
     <use xlink:href="#DejaVuSans-Bold-61" x="242.822266"/>
     <use xlink:href="#DejaVuSans-Bold-63" x="310.302734"/>
     <use xlink:href="#DejaVuSans-Bold-74" x="369.580078"/>
     <use xlink:href="#DejaVuSans-Bold-65" x="417.382812"/>
     <use xlink:href="#DejaVuSans-Bold-6d" x="485.205078"/>
     <use xlink:href="#DejaVuSans-Bold-70" x="589.404297"/>
     <use xlink:href="#DejaVuSans-Bold-6f" x="660.986328"/>
     <use xlink:href="#DejaVuSans-Bold-72" x="729.6875"/>
     <use xlink:href="#DejaVuSans-Bold-61" x="779.003906"/>
     <use xlink:href="#DejaVuSans-Bold-6c" x="846.484375"/>
    </g>
   </g>
  </g>
 </g>
 <defs>
  <clipPath id="p0f7a93c61e">
   <rect x="72" y="51.84" width="446.4" height="326.16"/>
  </clipPath>
 </defs>
</svg>
