<?xml version="1.0" encoding="utf-8" standalone="no"?>
<!DOCTYPE svg PUBLIC "-//W3C//DTD SVG 1.1//EN"
  "http://www.w3.org/Graphics/SVG/1.1/DTD/svg11.dtd">
<svg xmlns:xlink="http://www.w3.org/1999/xlink" width="576pt" height="432pt" viewBox="0 0 576 432" xmlns="http://www.w3.org/2000/svg" version="1.1">
 <metadata>
  <rdf:RDF xmlns:dc="http://purl.org/dc/elements/1.1/" xmlns:cc="http://creativecommons.org/ns#" xmlns:rdf="http://www.w3.org/1999/02/22-rdf-syntax-ns#">
   <cc:Work>
    <dc:type rdf:resource="http://purl.org/dc/dcmitype/StillImage"/>
    <dc:date>2025-11-20T21:53:57.253778</dc:date>
    <dc:format>image/svg+xml</dc:format>
    <dc:creator>
     <cc:Agent>
      <dc:title>Matplotlib v3.9.4, https://matplotlib.org/</dc:title>
     </cc:Agent>
    </dc:creator>
   </cc:Work>
  </rdf:RDF>
 </metadata>
 <defs>
  <style type="text/css">*{stroke-linejoin: round; stroke-linecap: butt}</style>
 </defs>
 <g id="figure_1">
  <g id="patch_1">
   <path d="M 0 432 
L 576 432 
L 576 0 
L 0 0 
z
" style="fill: #ffffff"/>
  </g>
  <g id="axes_1">
   <g id="patch_2">
    <path d="M 72 384.48 
L 518.4 384.48 
L 518.4 51.84 
L 72 51.84 
L 72 384.48 
z
" style="fill: none"/>
   </g>
   <g id="matplotlib.axis_1">
    <g id="xtick_1">
     <g id="line2d_1">
      <defs>
       <path id="m9ea165c7c3" d="M 0 0 
L 0 5 
" style="stroke: #262626; stroke-width: 1.5"/>
      </defs>
      <g>
       <use xlink:href="#m9ea165c7c3" x="80.493869" y="384.48" style="fill: #262626; stroke: #262626; stroke-width: 1.5"/>
      </g>
     </g>
     <g id="text_1">
      <!-- −250 -->
      <g style="fill: #262626" transform="translate(63.601291 403.716719) scale(0.15 -0.15)">
       <defs>
        <path id="ArialMT-2212" d="M 3381 1997 
L 356 1997 
L 356 2522 
L 3381 2522 
L 3381 1997 
z
" transform="scale(0.015625)"/>
        <path id="ArialMT-32" d="M 3222 541 
L 3222 0 
L 194 0 
Q 188 203 259 391 
Q 375 700 629 1000 
Q 884 1300 1366 1694 
Q 2113 2306 2375 2664 
Q 2638 3022 2638 3341 
Q 2638 3675 2398 3904 
Q 2159 4134 1775 4134 
Q 1369 4134 1125 3890 
Q 881 3647 878 3216 
L 300 3275 
Q 359 3922 746 4261 
Q 1134 4600 1788 4600 
Q 2447 4600 2831 4234 
Q 3216 3869 3216 3328 
Q 3216 3053 3103 2787 
Q 2991 2522 2730 2228 
Q 2469 1934 1863 1422 
Q 1356 997 1212 845 
Q 1069 694 975 541 
L 3222 541 
z
" transform="scale(0.015625)"/>
        <path id="ArialMT-35" d="M 266 1200 
L 856 1250 
Q 922 819 1161 601 
Q 1400 384 1738 384 
Q 2144 384 2425 690 
Q 2706 997 2706 1503 
Q 2706 1984 2436 2262 
Q 2166 2541 1728 2541 
Q 1456 2541 1237 2417 
Q 1019 2294 894 2097 
L 366 2166 
L 809 4519 
L 3088 4519 
L 3088 3981 
L 1259 3981 
L 1013 2750 
Q 1425 3038 1878 3038 
Q 2478 3038 2890 2622 
Q 3303 2206 3303 1553 
Q 3303 931 2941 478 
Q 2500 -78 1738 -78 
Q 1113 -78 717 272 
Q 322 622 266 1200 
z
" transform="scale(0.015625)"/>
        <path id="ArialMT-30" d="M 266 2259 
Q 266 3072 433 3567 
Q 600 4063 929 4331 
Q 1259 4600 1759 4600 
Q 2128 4600 2406 4451 
Q 2684 4303 2865 4023 
Q 3047 3744 3150 3342 
Q 3253 2941 3253 2259 
Q 3253 1453 3087 958 
Q 2922 463 2592 192 
Q 2263 -78 1759 -78 
Q 1097 -78 719 397 
Q 266 969 266 2259 
z
M 844 2259 
Q 844 1131 1108 757 
Q 1372 384 1759 384 
Q 2147 384 2411 759 
Q 2675 1134 2675 2259 
Q 2675 3391 2411 3762 
Q 2147 4134 1753 4134 
Q 1366 4134 1134 3806 
Q 844 3388 844 2259 
z
" transform="scale(0.015625)"/>
       </defs>
       <use xlink:href="#ArialMT-2212"/>
       <use xlink:href="#ArialMT-32" x="58.398438"/>
       <use xlink:href="#ArialMT-35" x="114.013672"/>
       <use xlink:href="#ArialMT-30" x="169.628906"/>
      </g>
     </g>
    </g>
    <g id="xtick_2">
     <g id="line2d_2">
      <g>
       <use xlink:href="#m9ea165c7c3" x="139.47907" y="384.48" style="fill: #262626; stroke: #262626; stroke-width: 1.5"/>
      </g>
     </g>
     <g id="text_2">
      <!-- 0 -->
      <g style="fill: #262626" transform="translate(135.308367 403.716719) scale(0.15 -0.15)">
       <use xlink:href="#ArialMT-30"/>
      </g>
     </g>
    </g>
    <g id="xtick_3">
     <g id="line2d_3">
      <g>
       <use xlink:href="#m9ea165c7c3" x="198.464271" y="384.48" style="fill: #262626; stroke: #262626; stroke-width: 1.5"/>
      </g>
     </g>
     <g id="text_3">
      <!-- 250 -->
      <g style="fill: #262626" transform="translate(185.952161 403.716719) scale(0.15 -0.15)">
       <use xlink:href="#ArialMT-32"/>
       <use xlink:href="#ArialMT-35" x="55.615234"/>
       <use xlink:href="#ArialMT-30" x="111.230469"/>
      </g>
     </g>
    </g>
    <g id="xtick_4">
     <g id="line2d_4">
      <g>
       <use xlink:href="#m9ea165c7c3" x="257.449471" y="384.48" style="fill: #262626; stroke: #262626; stroke-width: 1.5"/>
      </g>
     </g>
     <g id="text_4">
      <!-- 500 -->
      <g style="fill: #262626" transform="translate(244.937362 403.716719) scale(0.15 -0.15)">
       <use xlink:href="#ArialMT-35"/>
       <use xlink:href="#ArialMT-30" x="55.615234"/>
       <use xlink:href="#ArialMT-30" x="111.230469"/>
      </g>
     </g>
    </g>
    <g id="xtick_5">
     <g id="line2d_5">
      <g>
       <use xlink:href="#m9ea165c7c3" x="316.434672" y="384.48" style="fill: #262626; stroke: #262626; stroke-width: 1.5"/>
      </g>
     </g>
     <g id="text_5">
      <!-- 750 -->
      <g style="fill: #262626" transform="translate(303.922563 403.716719) scale(0.15 -0.15)">
       <defs>
        <path id="ArialMT-37" d="M 303 3981 
L 303 4522 
L 3269 4522 
L 3269 4084 
Q 2831 3619 2401 2847 
Q 1972 2075 1738 1259 
Q 1569 684 1522 0 
L 944 0 
Q 953 541 1156 1306 
Q 1359 2072 1739 2783 
Q 2119 3494 2547 3981 
L 303 3981 
z
" transform="scale(0.015625)"/>
       </defs>
       <use xlink:href="#ArialMT-37"/>
       <use xlink:href="#ArialMT-35" x="55.615234"/>
       <use xlink:href="#ArialMT-30" x="111.230469"/>
      </g>
     </g>
    </g>
    <g id="xtick_6">
     <g id="line2d_6">
      <g>
       <use xlink:href="#m9ea165c7c3" x="375.419873" y="384.48" style="fill: #262626; stroke: #262626; stroke-width: 1.5"/>
      </g>
     </g>
     <g id="text_6">
      <!-- 1000 -->
      <g style="fill: #262626" transform="translate(358.737061 403.716719) scale(0.15 -0.15)">
       <defs>
        <path id="ArialMT-31" d="M 2384 0 
L 1822 0 
L 1822 3584 
Q 1619 3391 1289 3197 
Q 959 3003 697 2906 
L 697 3450 
Q 1169 3672 1522 3987 
Q 1875 4303 2022 4600 
L 2384 4600 
L 2384 0 
z
" transform="scale(0.015625)"/>
       </defs>
       <use xlink:href="#ArialMT-31"/>
       <use xlink:href="#ArialMT-30" x="55.615234"/>
       <use xlink:href="#ArialMT-30" x="111.230469"/>
       <use xlink:href="#ArialMT-30" x="166.845703"/>
      </g>
     </g>
    </g>
    <g id="xtick_7">
     <g id="line2d_7">
      <g>
       <use xlink:href="#m9ea165c7c3" x="434.405074" y="384.48" style="fill: #262626; stroke: #262626; stroke-width: 1.5"/>
      </g>
     </g>
     <g id="text_7">
      <!-- 1250 -->
      <g style="fill: #262626" transform="translate(417.722261 403.716719) scale(0.15 -0.15)">
       <use xlink:href="#ArialMT-31"/>
       <use xlink:href="#ArialMT-32" x="55.615234"/>
       <use xlink:href="#ArialMT-35" x="111.230469"/>
       <use xlink:href="#ArialMT-30" x="166.845703"/>
      </g>
     </g>
    </g>
    <g id="xtick_8">
     <g id="line2d_8">
      <g>
       <use xlink:href="#m9ea165c7c3" x="493.390275" y="384.48" style="fill: #262626; stroke: #262626; stroke-width: 1.5"/>
      </g>
     </g>
     <g id="text_8">
      <!-- 1500 -->
      <g style="fill: #262626" transform="translate(476.707462 403.716719) scale(0.15 -0.15)">
       <use xlink:href="#ArialMT-31"/>
       <use xlink:href="#ArialMT-35" x="55.615234"/>
       <use xlink:href="#ArialMT-30" x="111.230469"/>
       <use xlink:href="#ArialMT-30" x="166.845703"/>
      </g>
     </g>
    </g>
    <g id="text_9">
     <!-- time -->
     <g style="fill: #262626" transform="translate(281.032031 421.434687) scale(0.15 -0.15)">
      <defs>
       <path id="ArialMT-74" d="M 1650 503 
L 1731 6 
Q 1494 -44 1306 -44 
Q 1000 -44 831 53 
Q 663 150 594 308 
Q 525 466 525 972 
L 525 2881 
L 113 2881 
L 113 3319 
L 525 3319 
L 525 4141 
L 1084 4478 
L 1084 3319 
L 1650 3319 
L 1650 2881 
L 1084 2881 
L 1084 941 
Q 1084 700 1114 631 
Q 1144 563 1211 522 
Q 1278 481 1403 481 
Q 1497 481 1650 503 
z
" transform="scale(0.015625)"/>
       <path id="ArialMT-69" d="M 425 3934 
L 425 4581 
L 988 4581 
L 988 3934 
L 425 3934 
z
M 425 0 
L 425 3319 
L 988 3319 
L 988 0 
L 425 0 
z
" transform="scale(0.015625)"/>
       <path id="ArialMT-6d" d="M 422 0 
L 422 3319 
L 925 3319 
L 925 2853 
Q 1081 3097 1340 3245 
Q 1600 3394 1931 3394 
Q 2300 3394 2536 3241 
Q 2772 3088 2869 2813 
Q 3263 3394 3894 3394 
Q 4388 3394 4653 3120 
Q 4919 2847 4919 2278 
L 4919 0 
L 4359 0 
L 4359 2091 
Q 4359 2428 4304 2576 
Q 4250 2725 4106 2815 
Q 3963 2906 3769 2906 
Q 3419 2906 3187 2673 
Q 2956 2441 2956 1928 
L 2956 0 
L 2394 0 
L 2394 2156 
Q 2394 2531 2256 2718 
Q 2119 2906 1806 2906 
Q 1569 2906 1367 2781 
Q 1166 2656 1075 2415 
Q 984 2175 984 1722 
L 984 0 
L 422 0 
z
" transform="scale(0.015625)"/>
       <path id="ArialMT-65" d="M 2694 1069 
L 3275 997 
Q 3138 488 2766 206 
Q 2394 -75 1816 -75 
Q 1088 -75 661 373 
Q 234 822 234 1631 
Q 234 2469 665 2931 
Q 1097 3394 1784 3394 
Q 2450 3394 2872 2941 
Q 3294 2488 3294 1666 
Q 3294 1616 3291 1516 
L 816 1516 
Q 847 969 1125 678 
Q 1403 388 1819 388 
Q 2128 388 2347 550 
Q 2566 713 2694 1069 
z
M 847 1978 
L 2700 1978 
Q 2663 2397 2488 2606 
Q 2219 2931 1791 2931 
Q 1403 2931 1139 2672 
Q 875 2413 847 1978 
z
" transform="scale(0.015625)"/>
      </defs>
      <use xlink:href="#ArialMT-74"/>
      <use xlink:href="#ArialMT-69" x="27.783203"/>
      <use xlink:href="#ArialMT-6d" x="50"/>
      <use xlink:href="#ArialMT-65" x="133.300781"/>
     </g>
    </g>
   </g>
   <g id="matplotlib.axis_2">
    <g id="ytick_1">
     <g id="line2d_9">
      <defs>
       <path id="m9da8964285" d="M 0 0 
L -5 0 
" style="stroke: #262626; stroke-width: 1.5"/>
      </defs>
      <g>
       <use xlink:href="#m9da8964285" x="72" y="346.912287" style="fill: #262626; stroke: #262626; stroke-width: 1.5"/>
      </g>
     </g>
     <g id="text_10">
      <!-- 0.0 -->
      <g style="fill: #262626" transform="translate(42.65 352.280646) scale(0.15 -0.15)">
       <defs>
        <path id="ArialMT-2e" d="M 581 0 
L 581 641 
L 1222 641 
L 1222 0 
L 581 0 
z
" transform="scale(0.015625)"/>
       </defs>
       <use xlink:href="#ArialMT-30"/>
       <use xlink:href="#ArialMT-2e" x="55.615234"/>
       <use xlink:href="#ArialMT-30" x="83.398438"/>
      </g>
     </g>
    </g>
    <g id="ytick_2">
     <g id="line2d_10">
      <g>
       <use xlink:href="#m9da8964285" x="72" y="247.849554" style="fill: #262626; stroke: #262626; stroke-width: 1.5"/>
      </g>
     </g>
     <g id="text_11">
      <!-- 0.1 -->
      <g style="fill: #262626" transform="translate(42.65 253.217913) scale(0.15 -0.15)">
       <use xlink:href="#ArialMT-30"/>
       <use xlink:href="#ArialMT-2e" x="55.615234"/>
       <use xlink:href="#ArialMT-31" x="83.398438"/>
      </g>
     </g>
    </g>
    <g id="ytick_3">
     <g id="line2d_11">
      <g>
       <use xlink:href="#m9da8964285" x="72" y="148.78682" style="fill: #262626; stroke: #262626; stroke-width: 1.5"/>
      </g>
     </g>
     <g id="text_12">
      <!-- 0.2 -->
      <g style="fill: #262626" transform="translate(42.65 154.155179) scale(0.15 -0.15)">
       <use xlink:href="#ArialMT-30"/>
       <use xlink:href="#ArialMT-2e" x="55.615234"/>
       <use xlink:href="#ArialMT-32" x="83.398438"/>
      </g>
     </g>
    </g>
    <g id="text_13">
     <!-- firing rate -->
     <g style="fill: #262626" transform="translate(35.492969 249.420937) rotate(-90) scale(0.15 -0.15)">
      <defs>
       <path id="ArialMT-66" d="M 556 0 
L 556 2881 
L 59 2881 
L 59 3319 
L 556 3319 
L 556 3672 
Q 556 4006 616 4169 
Q 697 4388 901 4523 
Q 1106 4659 1475 4659 
Q 1713 4659 2000 4603 
L 1916 4113 
Q 1741 4144 1584 4144 
Q 1328 4144 1222 4034 
Q 1116 3925 1116 3625 
L 1116 3319 
L 1763 3319 
L 1763 2881 
L 1116 2881 
L 1116 0 
L 556 0 
z
" transform="scale(0.015625)"/>
       <path id="ArialMT-72" d="M 416 0 
L 416 3319 
L 922 3319 
L 922 2816 
Q 1116 3169 1280 3281 
Q 1444 3394 1641 3394 
Q 1925 3394 2219 3213 
L 2025 2691 
Q 1819 2813 1613 2813 
Q 1428 2813 1281 2702 
Q 1134 2591 1072 2394 
Q 978 2094 978 1738 
L 978 0 
L 416 0 
z
" transform="scale(0.015625)"/>
       <path id="ArialMT-6e" d="M 422 0 
L 422 3319 
L 928 3319 
L 928 2847 
Q 1294 3394 1984 3394 
Q 2284 3394 2536 3286 
Q 2788 3178 2913 3003 
Q 3038 2828 3088 2588 
Q 3119 2431 3119 2041 
L 3119 0 
L 2556 0 
L 2556 2019 
Q 2556 2363 2490 2533 
Q 2425 2703 2258 2804 
Q 2091 2906 1866 2906 
Q 1506 2906 1245 2678 
Q 984 2450 984 1813 
L 984 0 
L 422 0 
z
" transform="scale(0.015625)"/>
       <path id="ArialMT-67" d="M 319 -275 
L 866 -356 
Q 900 -609 1056 -725 
Q 1266 -881 1628 -881 
Q 2019 -881 2231 -725 
Q 2444 -569 2519 -288 
Q 2563 -116 2559 434 
Q 2191 0 1641 0 
Q 956 0 581 494 
Q 206 988 206 1678 
Q 206 2153 378 2554 
Q 550 2956 876 3175 
Q 1203 3394 1644 3394 
Q 2231 3394 2613 2919 
L 2613 3319 
L 3131 3319 
L 3131 450 
Q 3131 -325 2973 -648 
Q 2816 -972 2473 -1159 
Q 2131 -1347 1631 -1347 
Q 1038 -1347 672 -1080 
Q 306 -813 319 -275 
z
M 784 1719 
Q 784 1066 1043 766 
Q 1303 466 1694 466 
Q 2081 466 2343 764 
Q 2606 1063 2606 1700 
Q 2606 2309 2336 2618 
Q 2066 2928 1684 2928 
Q 1309 2928 1046 2623 
Q 784 2319 784 1719 
z
" transform="scale(0.015625)"/>
       <path id="ArialMT-20" transform="scale(0.015625)"/>
       <path id="ArialMT-61" d="M 2588 409 
Q 2275 144 1986 34 
Q 1697 -75 1366 -75 
Q 819 -75 525 192 
Q 231 459 231 875 
Q 231 1119 342 1320 
Q 453 1522 633 1644 
Q 813 1766 1038 1828 
Q 1203 1872 1538 1913 
Q 2219 1994 2541 2106 
Q 2544 2222 2544 2253 
Q 2544 2597 2384 2738 
Q 2169 2928 1744 2928 
Q 1347 2928 1158 2789 
Q 969 2650 878 2297 
L 328 2372 
Q 403 2725 575 2942 
Q 747 3159 1072 3276 
Q 1397 3394 1825 3394 
Q 2250 3394 2515 3294 
Q 2781 3194 2906 3042 
Q 3031 2891 3081 2659 
Q 3109 2516 3109 2141 
L 3109 1391 
Q 3109 606 3145 398 
Q 3181 191 3288 0 
L 2700 0 
Q 2613 175 2588 409 
z
M 2541 1666 
Q 2234 1541 1622 1453 
Q 1275 1403 1131 1340 
Q 988 1278 909 1158 
Q 831 1038 831 891 
Q 831 666 1001 516 
Q 1172 366 1500 366 
Q 1825 366 2078 508 
Q 2331 650 2450 897 
Q 2541 1088 2541 1459 
L 2541 1666 
z
" transform="scale(0.015625)"/>
      </defs>
      <use xlink:href="#ArialMT-66"/>
      <use xlink:href="#ArialMT-69" x="27.783203"/>
      <use xlink:href="#ArialMT-72" x="50"/>
      <use xlink:href="#ArialMT-69" x="83.300781"/>
      <use xlink:href="#ArialMT-6e" x="105.517578"/>
      <use xlink:href="#ArialMT-67" x="161.132812"/>
      <use xlink:href="#ArialMT-20" x="216.748047"/>
      <use xlink:href="#ArialMT-72" x="244.53125"/>
      <use xlink:href="#ArialMT-61" x="277.832031"/>
      <use xlink:href="#ArialMT-74" x="333.447266"/>
      <use xlink:href="#ArialMT-65" x="361.230469"/>
     </g>
    </g>
   </g>
   <g id="PolyCollection_1">
    <defs>
     <path id="m61e2c3af36" d="M 92.290909 -86.993657 
L 92.290909 -77.135089 
L 97.009725 -85.118886 
L 101.728541 -85.244949 
L 106.447357 -85.997695 
L 111.166173 -84.087222 
L 115.884989 -84.676819 
L 120.603805 -83.56564 
L 125.322622 -85.885287 
L 130.041438 -84.828787 
L 134.760254 -82.824784 
L 139.47907 -94.468562 
L 144.197886 -91.739795 
L 148.916702 -95.068337 
L 153.635518 -101.677796 
L 158.354334 -108.40545 
L 163.07315 -113.2574 
L 167.791966 -120.058116 
L 172.510782 -123.358875 
L 177.229598 -130.859019 
L 181.948414 -142.710799 
L 186.66723 -156.753093 
L 191.386047 -167.79819 
L 196.104863 -174.546578 
L 200.823679 -181.050143 
L 205.542495 -182.935845 
L 210.261311 -186.374537 
L 214.980127 -195.933469 
L 219.698943 -205.553728 
L 224.417759 -206.007131 
L 229.136575 -210.844568 
L 233.855391 -211.447736 
L 238.574207 -213.373673 
L 243.293023 -212.892555 
L 248.011839 -217.062144 
L 252.730655 -218.836851 
L 257.449471 -220.52889 
L 262.168288 -223.763975 
L 266.887104 -218.943416 
L 271.60592 -215.50127 
L 276.324736 -218.230647 
L 281.043552 -218.342444 
L 285.762368 -222.732397 
L 290.481184 -231.465678 
L 295.2 -242.309398 
L 299.918816 -252.285152 
L 304.637632 -251.750353 
L 309.356448 -256.417593 
L 314.075264 -257.799843 
L 318.79408 -257.111123 
L 323.512896 -259.669669 
L 328.231712 -262.563684 
L 332.950529 -264.720208 
L 337.669345 -262.921432 
L 342.388161 -269.07222 
L 347.106977 -276.799719 
L 351.825793 -286.660877 
L 356.544609 -289.971986 
L 361.263425 -290.497805 
L 365.982241 -285.483592 
L 370.701057 -269.948871 
L 375.419873 -236.932548 
L 380.138689 -284.68863 
L 384.857505 -284.698063 
L 389.576321 -263.896019 
L 394.295137 -233.905066 
L 399.013953 -220.467158 
L 403.73277 -230.331029 
L 408.451586 -236.707719 
L 413.170402 -243.514985 
L 417.889218 -249.553142 
L 422.608034 -247.363623 
L 427.32685 -242.712438 
L 432.045666 -242.291921 
L 436.764482 -242.016833 
L 441.483298 -247.28002 
L 446.202114 -247.28329 
L 450.92093 -246.803043 
L 455.639746 -242.509966 
L 460.358562 -240.839951 
L 465.077378 -243.263015 
L 469.796195 -244.242753 
L 474.515011 -243.772918 
L 479.233827 -241.444518 
L 483.952643 -241.48159 
L 488.671459 -241.906338 
L 493.390275 -237.84959 
L 498.109091 -238.210353 
L 498.109091 -318.598544 
L 498.109091 -318.598544 
L 493.390275 -318.644639 
L 488.671459 -321.833756 
L 483.952643 -321.016542 
L 479.233827 -320.321196 
L 474.515011 -323.177487 
L 469.796195 -325.087468 
L 465.077378 -323.342282 
L 460.358562 -321.81637 
L 455.639746 -321.484256 
L 450.92093 -323.470126 
L 446.202114 -324.111829 
L 441.483298 -327.439783 
L 436.764482 -322.233425 
L 432.045666 -320.488976 
L 427.32685 -317.289455 
L 422.608034 -321.144601 
L 417.889218 -325.354937 
L 413.170402 -320.890381 
L 408.451586 -311.344544 
L 403.73277 -299.987527 
L 399.013953 -287.791572 
L 394.295137 -312.299334 
L 389.576321 -349.384763 
L 384.857505 -365.04 
L 380.138689 -343.686353 
L 375.419873 -282.143649 
L 370.701057 -319.32462 
L 365.982241 -336.70328 
L 361.263425 -340.700009 
L 356.544609 -338.91746 
L 351.825793 -335.17044 
L 347.106977 -324.4115 
L 342.388161 -314.907028 
L 337.669345 -306.790412 
L 332.950529 -309.120351 
L 328.231712 -302.501802 
L 323.512896 -295.4718 
L 318.79408 -291.537122 
L 314.075264 -290.059443 
L 309.356448 -287.740436 
L 304.637632 -280.958512 
L 299.918816 -280.602727 
L 295.2 -269.629068 
L 290.481184 -260.012042 
L 285.762368 -251.322155 
L 281.043552 -247.498357 
L 276.324736 -248.151073 
L 271.60592 -245.666134 
L 266.887104 -247.782329 
L 262.168288 -249.71079 
L 257.449471 -246.90202 
L 252.730655 -243.531782 
L 248.011839 -240.445036 
L 243.293023 -238.067119 
L 238.574207 -239.136201 
L 233.855391 -236.081687 
L 229.136575 -237.113987 
L 224.417759 -231.604628 
L 219.698943 -228.776293 
L 214.980127 -221.029001 
L 210.261311 -209.797736 
L 205.542495 -205.604647 
L 200.823679 -202.892654 
L 196.104863 -193.804293 
L 191.386047 -185.43832 
L 186.66723 -177.602732 
L 181.948414 -166.830097 
L 177.229598 -154.033423 
L 172.510782 -144.423002 
L 167.791966 -138.712199 
L 163.07315 -131.341795 
L 158.354334 -122.799026 
L 153.635518 -114.276665 
L 148.916702 -105.839234 
L 144.197886 -101.125483 
L 139.47907 -102.164572 
L 134.760254 -86.229667 
L 130.041438 -87.033243 
L 125.322622 -87.450726 
L 120.603805 -85.560281 
L 115.884989 -87.256474 
L 111.166173 -86.552701 
L 106.447357 -88.503401 
L 101.728541 -87.465559 
L 97.009725 -86.954532 
L 92.290909 -86.993657 
z
" style="stroke: #eb6ab0; stroke-opacity: 0.1"/>
    </defs>
    <g clip-path="url(#pde2569f0ca)">
     <use xlink:href="#m61e2c3af36" x="0" y="432" style="fill: #eb6ab0; fill-opacity: 0.1; stroke: #eb6ab0; stroke-opacity: 0.1"/>
    </g>
   </g>
   <g id="PolyCollection_2">
    <defs>
     <path id="mcac3b3dc13" d="M 92.290909 -92.080788 
L 92.290909 -84.559023 
L 97.009725 -83.084816 
L 101.728541 -82.019812 
L 106.447357 -90.239814 
L 111.166173 -89.293171 
L 115.884989 -95.810138 
L 120.603805 -95.78183 
L 125.322622 -97.655725 
L 130.041438 -102.849037 
L 134.760254 -111.217411 
L 139.47907 -115.084623 
L 144.197886 -124.092458 
L 148.916702 -126.959073 
L 153.635518 -130.085193 
L 158.354334 -130.901566 
L 163.07315 -132.348792 
L 167.791966 -128.438379 
L 172.510782 -123.248368 
L 177.229598 -115.75197 
L 181.948414 -118.795359 
L 186.66723 -122.822714 
L 191.386047 -123.127279 
L 196.104863 -123.813468 
L 200.823679 -122.634446 
L 205.542495 -126.350234 
L 210.261311 -129.978103 
L 214.980127 -131.69516 
L 219.698943 -136.035797 
L 224.417759 -139.439996 
L 229.136575 -144.178297 
L 233.855391 -149.070573 
L 238.574207 -152.442053 
L 243.293023 -156.638383 
L 248.011839 -161.23287 
L 252.730655 -168.147247 
L 257.449471 -174.013797 
L 262.168288 -176.329423 
L 266.887104 -179.263275 
L 271.60592 -178.972149 
L 276.324736 -182.811805 
L 281.043552 -187.733787 
L 285.762368 -192.189351 
L 290.481184 -195.014437 
L 295.2 -197.754636 
L 299.918816 -199.972351 
L 304.637632 -204.948463 
L 309.356448 -209.151124 
L 314.075264 -212.560496 
L 318.79408 -214.34625 
L 323.512896 -217.008094 
L 328.231712 -221.542052 
L 332.950529 -224.985073 
L 337.669345 -228.799679 
L 342.388161 -234.602588 
L 347.106977 -238.57348 
L 351.825793 -241.255567 
L 356.544609 -244.295686 
L 361.263425 -249.371297 
L 365.982241 -251.647419 
L 370.701057 -256.315829 
L 375.419873 -259.725786 
L 380.138689 -259.675308 
L 384.857505 -264.704889 
L 389.576321 -268.643974 
L 394.295137 -270.788096 
L 399.013953 -270.933431 
L 403.73277 -270.886115 
L 408.451586 -269.435567 
L 413.170402 -269.641191 
L 417.889218 -267.932175 
L 422.608034 -268.983873 
L 427.32685 -268.16091 
L 432.045666 -268.163493 
L 436.764482 -267.358939 
L 441.483298 -268.280584 
L 446.202114 -269.990944 
L 450.92093 -269.742341 
L 455.639746 -271.777236 
L 460.358562 -270.387498 
L 465.077378 -269.266371 
L 469.796195 -268.99665 
L 474.515011 -271.082377 
L 479.233827 -271.080758 
L 483.952643 -270.117557 
L 488.671459 -270.806956 
L 493.390275 -268.080823 
L 498.109091 -266.312516 
L 498.109091 -302.801844 
L 498.109091 -302.801844 
L 493.390275 -304.45974 
L 488.671459 -306.155388 
L 483.952643 -305.288229 
L 479.233827 -306.032901 
L 474.515011 -304.437945 
L 469.796195 -302.586421 
L 465.077378 -303.073465 
L 460.358562 -302.965016 
L 455.639746 -303.346076 
L 450.92093 -301.56499 
L 446.202114 -302.170975 
L 441.483298 -300.740193 
L 436.764482 -299.866037 
L 432.045666 -299.991308 
L 427.32685 -298.848102 
L 422.608034 -298.81732 
L 417.889218 -297.691634 
L 413.170402 -298.374138 
L 408.451586 -298.936703 
L 403.73277 -301.083594 
L 399.013953 -300.600651 
L 394.295137 -300.3442 
L 389.576321 -297.047657 
L 384.857505 -290.597606 
L 380.138689 -284.413751 
L 375.419873 -284.365814 
L 370.701057 -280.331379 
L 365.982241 -274.686851 
L 361.263425 -271.348791 
L 356.544609 -266.237257 
L 351.825793 -263.002849 
L 347.106977 -259.293503 
L 342.388161 -254.210008 
L 337.669345 -248.520551 
L 332.950529 -245.156046 
L 328.231712 -242.460224 
L 323.512896 -237.581147 
L 318.79408 -233.306542 
L 314.075264 -230.749558 
L 309.356448 -225.989649 
L 304.637632 -221.036701 
L 299.918816 -216.976557 
L 295.2 -214.704653 
L 290.481184 -212.686986 
L 285.762368 -209.075248 
L 281.043552 -204.151039 
L 276.324736 -198.661956 
L 271.60592 -194.22317 
L 266.887104 -194.700308 
L 262.168288 -191.897541 
L 257.449471 -188.497911 
L 252.730655 -181.995179 
L 248.011839 -174.816872 
L 243.293023 -169.749959 
L 238.574207 -164.423973 
L 233.855391 -160.821197 
L 229.136575 -156.163651 
L 224.417759 -150.910185 
L 219.698943 -147.488481 
L 214.980127 -143.687982 
L 210.261311 -140.989999 
L 205.542495 -136.182922 
L 200.823679 -132.030846 
L 196.104863 -132.05083 
L 191.386047 -131.346176 
L 186.66723 -130.842442 
L 181.948414 -125.659264 
L 177.229598 -123.002513 
L 172.510782 -129.977792 
L 167.791966 -134.359111 
L 163.07315 -138.50839 
L 158.354334 -138.819152 
L 153.635518 -139.520692 
L 148.916702 -137.118988 
L 144.197886 -137.252869 
L 139.47907 -129.396817 
L 134.760254 -128.304692 
L 130.041438 -120.685501 
L 125.322622 -112.599262 
L 120.603805 -111.389842 
L 115.884989 -108.49149 
L 111.166173 -102.701664 
L 106.447357 -105.001958 
L 101.728541 -94.945827 
L 97.009725 -92.82888 
L 92.290909 -92.080788 
z
" style="stroke: #8b0a50; stroke-opacity: 0.2"/>
    </defs>
    <g clip-path="url(#pde2569f0ca)">
     <use xlink:href="#mcac3b3dc13" x="0" y="432" style="fill: #8b0a50; fill-opacity: 0.2; stroke: #8b0a50; stroke-opacity: 0.2"/>
    </g>
   </g>
   <g id="PathCollection_1">
    <defs>
     <path id="m71a09b289e" d="M -2.5 2.5 
L 2.5 2.5 
L 2.5 -2.5 
L -2.5 -2.5 
z
" style="stroke: #eb6ab0"/>
    </defs>
    <g clip-path="url(#pde2569f0ca)">
     <use xlink:href="#m71a09b289e" x="153.635518" y="362.07586" style="fill: #eb6ab0; stroke: #eb6ab0"/>
     <use xlink:href="#m71a09b289e" x="158.354334" y="362.07586" style="fill: #eb6ab0; stroke: #eb6ab0"/>
     <use xlink:href="#m71a09b289e" x="163.07315" y="362.07586" style="fill: #eb6ab0; stroke: #eb6ab0"/>
     <use xlink:href="#m71a09b289e" x="167.791966" y="362.07586" style="fill: #eb6ab0; stroke: #eb6ab0"/>
     <use xlink:href="#m71a09b289e" x="172.510782" y="362.07586" style="fill: #eb6ab0; stroke: #eb6ab0"/>
     <use xlink:href="#m71a09b289e" x="177.229598" y="362.07586" style="fill: #eb6ab0; stroke: #eb6ab0"/>
     <use xlink:href="#m71a09b289e" x="181.948414" y="362.07586" style="fill: #eb6ab0; stroke: #eb6ab0"/>
     <use xlink:href="#m71a09b289e" x="186.66723" y="362.07586" style="fill: #eb6ab0; stroke: #eb6ab0"/>
     <use xlink:href="#m71a09b289e" x="191.386047" y="362.07586" style="fill: #eb6ab0; stroke: #eb6ab0"/>
     <use xlink:href="#m71a09b289e" x="196.104863" y="362.07586" style="fill: #eb6ab0; stroke: #eb6ab0"/>
     <use xlink:href="#m71a09b289e" x="200.823679" y="362.07586" style="fill: #eb6ab0; stroke: #eb6ab0"/>
     <use xlink:href="#m71a09b289e" x="205.542495" y="362.07586" style="fill: #eb6ab0; stroke: #eb6ab0"/>
     <use xlink:href="#m71a09b289e" x="210.261311" y="362.07586" style="fill: #eb6ab0; stroke: #eb6ab0"/>
     <use xlink:href="#m71a09b289e" x="214.980127" y="362.07586" style="fill: #eb6ab0; stroke: #eb6ab0"/>
     <use xlink:href="#m71a09b289e" x="219.698943" y="362.07586" style="fill: #eb6ab0; stroke: #eb6ab0"/>
     <use xlink:href="#m71a09b289e" x="224.417759" y="362.07586" style="fill: #eb6ab0; stroke: #eb6ab0"/>
     <use xlink:href="#m71a09b289e" x="229.136575" y="362.07586" style="fill: #eb6ab0; stroke: #eb6ab0"/>
     <use xlink:href="#m71a09b289e" x="233.855391" y="362.07586" style="fill: #eb6ab0; stroke: #eb6ab0"/>
     <use xlink:href="#m71a09b289e" x="238.574207" y="362.07586" style="fill: #eb6ab0; stroke: #eb6ab0"/>
     <use xlink:href="#m71a09b289e" x="243.293023" y="362.07586" style="fill: #eb6ab0; stroke: #eb6ab0"/>
     <use xlink:href="#m71a09b289e" x="248.011839" y="362.07586" style="fill: #eb6ab0; stroke: #eb6ab0"/>
     <use xlink:href="#m71a09b289e" x="252.730655" y="362.07586" style="fill: #eb6ab0; stroke: #eb6ab0"/>
     <use xlink:href="#m71a09b289e" x="257.449471" y="362.07586" style="fill: #eb6ab0; stroke: #eb6ab0"/>
     <use xlink:href="#m71a09b289e" x="262.168288" y="362.07586" style="fill: #eb6ab0; stroke: #eb6ab0"/>
     <use xlink:href="#m71a09b289e" x="266.887104" y="362.07586" style="fill: #eb6ab0; stroke: #eb6ab0"/>
     <use xlink:href="#m71a09b289e" x="271.60592" y="362.07586" style="fill: #eb6ab0; stroke: #eb6ab0"/>
     <use xlink:href="#m71a09b289e" x="276.324736" y="362.07586" style="fill: #eb6ab0; stroke: #eb6ab0"/>
     <use xlink:href="#m71a09b289e" x="281.043552" y="362.07586" style="fill: #eb6ab0; stroke: #eb6ab0"/>
     <use xlink:href="#m71a09b289e" x="285.762368" y="362.07586" style="fill: #eb6ab0; stroke: #eb6ab0"/>
     <use xlink:href="#m71a09b289e" x="290.481184" y="362.07586" style="fill: #eb6ab0; stroke: #eb6ab0"/>
     <use xlink:href="#m71a09b289e" x="295.2" y="362.07586" style="fill: #eb6ab0; stroke: #eb6ab0"/>
     <use xlink:href="#m71a09b289e" x="299.918816" y="362.07586" style="fill: #eb6ab0; stroke: #eb6ab0"/>
     <use xlink:href="#m71a09b289e" x="304.637632" y="362.07586" style="fill: #eb6ab0; stroke: #eb6ab0"/>
     <use xlink:href="#m71a09b289e" x="309.356448" y="362.07586" style="fill: #eb6ab0; stroke: #eb6ab0"/>
     <use xlink:href="#m71a09b289e" x="314.075264" y="362.07586" style="fill: #eb6ab0; stroke: #eb6ab0"/>
     <use xlink:href="#m71a09b289e" x="318.79408" y="362.07586" style="fill: #eb6ab0; stroke: #eb6ab0"/>
     <use xlink:href="#m71a09b289e" x="323.512896" y="362.07586" style="fill: #eb6ab0; stroke: #eb6ab0"/>
     <use xlink:href="#m71a09b289e" x="328.231712" y="362.07586" style="fill: #eb6ab0; stroke: #eb6ab0"/>
     <use xlink:href="#m71a09b289e" x="332.950529" y="362.07586" style="fill: #eb6ab0; stroke: #eb6ab0"/>
     <use xlink:href="#m71a09b289e" x="337.669345" y="362.07586" style="fill: #eb6ab0; stroke: #eb6ab0"/>
     <use xlink:href="#m71a09b289e" x="342.388161" y="362.07586" style="fill: #eb6ab0; stroke: #eb6ab0"/>
     <use xlink:href="#m71a09b289e" x="347.106977" y="362.07586" style="fill: #eb6ab0; stroke: #eb6ab0"/>
     <use xlink:href="#m71a09b289e" x="351.825793" y="362.07586" style="fill: #eb6ab0; stroke: #eb6ab0"/>
     <use xlink:href="#m71a09b289e" x="356.544609" y="362.07586" style="fill: #eb6ab0; stroke: #eb6ab0"/>
     <use xlink:href="#m71a09b289e" x="361.263425" y="362.07586" style="fill: #eb6ab0; stroke: #eb6ab0"/>
     <use xlink:href="#m71a09b289e" x="365.982241" y="362.07586" style="fill: #eb6ab0; stroke: #eb6ab0"/>
     <use xlink:href="#m71a09b289e" x="370.701057" y="362.07586" style="fill: #eb6ab0; stroke: #eb6ab0"/>
     <use xlink:href="#m71a09b289e" x="375.419873" y="362.07586" style="fill: #eb6ab0; stroke: #eb6ab0"/>
     <use xlink:href="#m71a09b289e" x="380.138689" y="362.07586" style="fill: #eb6ab0; stroke: #eb6ab0"/>
     <use xlink:href="#m71a09b289e" x="384.857505" y="362.07586" style="fill: #eb6ab0; stroke: #eb6ab0"/>
     <use xlink:href="#m71a09b289e" x="389.576321" y="362.07586" style="fill: #eb6ab0; stroke: #eb6ab0"/>
     <use xlink:href="#m71a09b289e" x="394.295137" y="362.07586" style="fill: #eb6ab0; stroke: #eb6ab0"/>
     <use xlink:href="#m71a09b289e" x="399.013953" y="362.07586" style="fill: #eb6ab0; stroke: #eb6ab0"/>
     <use xlink:href="#m71a09b289e" x="403.73277" y="362.07586" style="fill: #eb6ab0; stroke: #eb6ab0"/>
     <use xlink:href="#m71a09b289e" x="408.451586" y="362.07586" style="fill: #eb6ab0; stroke: #eb6ab0"/>
     <use xlink:href="#m71a09b289e" x="413.170402" y="362.07586" style="fill: #eb6ab0; stroke: #eb6ab0"/>
     <use xlink:href="#m71a09b289e" x="417.889218" y="362.07586" style="fill: #eb6ab0; stroke: #eb6ab0"/>
     <use xlink:href="#m71a09b289e" x="422.608034" y="362.07586" style="fill: #eb6ab0; stroke: #eb6ab0"/>
     <use xlink:href="#m71a09b289e" x="427.32685" y="362.07586" style="fill: #eb6ab0; stroke: #eb6ab0"/>
     <use xlink:href="#m71a09b289e" x="432.045666" y="362.07586" style="fill: #eb6ab0; stroke: #eb6ab0"/>
     <use xlink:href="#m71a09b289e" x="436.764482" y="362.07586" style="fill: #eb6ab0; stroke: #eb6ab0"/>
     <use xlink:href="#m71a09b289e" x="441.483298" y="362.07586" style="fill: #eb6ab0; stroke: #eb6ab0"/>
     <use xlink:href="#m71a09b289e" x="446.202114" y="362.07586" style="fill: #eb6ab0; stroke: #eb6ab0"/>
     <use xlink:href="#m71a09b289e" x="450.92093" y="362.07586" style="fill: #eb6ab0; stroke: #eb6ab0"/>
     <use xlink:href="#m71a09b289e" x="455.639746" y="362.07586" style="fill: #eb6ab0; stroke: #eb6ab0"/>
     <use xlink:href="#m71a09b289e" x="460.358562" y="362.07586" style="fill: #eb6ab0; stroke: #eb6ab0"/>
     <use xlink:href="#m71a09b289e" x="465.077378" y="362.07586" style="fill: #eb6ab0; stroke: #eb6ab0"/>
     <use xlink:href="#m71a09b289e" x="469.796195" y="362.07586" style="fill: #eb6ab0; stroke: #eb6ab0"/>
     <use xlink:href="#m71a09b289e" x="474.515011" y="362.07586" style="fill: #eb6ab0; stroke: #eb6ab0"/>
     <use xlink:href="#m71a09b289e" x="479.233827" y="362.07586" style="fill: #eb6ab0; stroke: #eb6ab0"/>
     <use xlink:href="#m71a09b289e" x="483.952643" y="362.07586" style="fill: #eb6ab0; stroke: #eb6ab0"/>
     <use xlink:href="#m71a09b289e" x="488.671459" y="362.07586" style="fill: #eb6ab0; stroke: #eb6ab0"/>
     <use xlink:href="#m71a09b289e" x="493.390275" y="362.07586" style="fill: #eb6ab0; stroke: #eb6ab0"/>
     <use xlink:href="#m71a09b289e" x="498.109091" y="362.07586" style="fill: #eb6ab0; stroke: #eb6ab0"/>
    </g>
   </g>
   <g id="PathCollection_2">
    <defs>
     <path id="m975f70b0d8" d="M -2.5 2.5 
L 2.5 2.5 
L 2.5 -2.5 
L -2.5 -2.5 
z
" style="stroke: #8b0a50"/>
    </defs>
    <g clip-path="url(#pde2569f0ca)">
     <use xlink:href="#m975f70b0d8" x="186.66723" y="369.36" style="fill: #8b0a50; stroke: #8b0a50"/>
     <use xlink:href="#m975f70b0d8" x="191.386047" y="369.36" style="fill: #8b0a50; stroke: #8b0a50"/>
     <use xlink:href="#m975f70b0d8" x="196.104863" y="369.36" style="fill: #8b0a50; stroke: #8b0a50"/>
     <use xlink:href="#m975f70b0d8" x="200.823679" y="369.36" style="fill: #8b0a50; stroke: #8b0a50"/>
     <use xlink:href="#m975f70b0d8" x="205.542495" y="369.36" style="fill: #8b0a50; stroke: #8b0a50"/>
     <use xlink:href="#m975f70b0d8" x="210.261311" y="369.36" style="fill: #8b0a50; stroke: #8b0a50"/>
     <use xlink:href="#m975f70b0d8" x="214.980127" y="369.36" style="fill: #8b0a50; stroke: #8b0a50"/>
     <use xlink:href="#m975f70b0d8" x="219.698943" y="369.36" style="fill: #8b0a50; stroke: #8b0a50"/>
     <use xlink:href="#m975f70b0d8" x="224.417759" y="369.36" style="fill: #8b0a50; stroke: #8b0a50"/>
     <use xlink:href="#m975f70b0d8" x="229.136575" y="369.36" style="fill: #8b0a50; stroke: #8b0a50"/>
     <use xlink:href="#m975f70b0d8" x="233.855391" y="369.36" style="fill: #8b0a50; stroke: #8b0a50"/>
     <use xlink:href="#m975f70b0d8" x="238.574207" y="369.36" style="fill: #8b0a50; stroke: #8b0a50"/>
     <use xlink:href="#m975f70b0d8" x="243.293023" y="369.36" style="fill: #8b0a50; stroke: #8b0a50"/>
     <use xlink:href="#m975f70b0d8" x="248.011839" y="369.36" style="fill: #8b0a50; stroke: #8b0a50"/>
     <use xlink:href="#m975f70b0d8" x="252.730655" y="369.36" style="fill: #8b0a50; stroke: #8b0a50"/>
     <use xlink:href="#m975f70b0d8" x="257.449471" y="369.36" style="fill: #8b0a50; stroke: #8b0a50"/>
     <use xlink:href="#m975f70b0d8" x="262.168288" y="369.36" style="fill: #8b0a50; stroke: #8b0a50"/>
     <use xlink:href="#m975f70b0d8" x="266.887104" y="369.36" style="fill: #8b0a50; stroke: #8b0a50"/>
     <use xlink:href="#m975f70b0d8" x="271.60592" y="369.36" style="fill: #8b0a50; stroke: #8b0a50"/>
     <use xlink:href="#m975f70b0d8" x="276.324736" y="369.36" style="fill: #8b0a50; stroke: #8b0a50"/>
     <use xlink:href="#m975f70b0d8" x="281.043552" y="369.36" style="fill: #8b0a50; stroke: #8b0a50"/>
     <use xlink:href="#m975f70b0d8" x="285.762368" y="369.36" style="fill: #8b0a50; stroke: #8b0a50"/>
     <use xlink:href="#m975f70b0d8" x="290.481184" y="369.36" style="fill: #8b0a50; stroke: #8b0a50"/>
     <use xlink:href="#m975f70b0d8" x="295.2" y="369.36" style="fill: #8b0a50; stroke: #8b0a50"/>
     <use xlink:href="#m975f70b0d8" x="299.918816" y="369.36" style="fill: #8b0a50; stroke: #8b0a50"/>
     <use xlink:href="#m975f70b0d8" x="304.637632" y="369.36" style="fill: #8b0a50; stroke: #8b0a50"/>
     <use xlink:href="#m975f70b0d8" x="309.356448" y="369.36" style="fill: #8b0a50; stroke: #8b0a50"/>
     <use xlink:href="#m975f70b0d8" x="314.075264" y="369.36" style="fill: #8b0a50; stroke: #8b0a50"/>
     <use xlink:href="#m975f70b0d8" x="318.79408" y="369.36" style="fill: #8b0a50; stroke: #8b0a50"/>
     <use xlink:href="#m975f70b0d8" x="323.512896" y="369.36" style="fill: #8b0a50; stroke: #8b0a50"/>
     <use xlink:href="#m975f70b0d8" x="328.231712" y="369.36" style="fill: #8b0a50; stroke: #8b0a50"/>
     <use xlink:href="#m975f70b0d8" x="332.950529" y="369.36" style="fill: #8b0a50; stroke: #8b0a50"/>
     <use xlink:href="#m975f70b0d8" x="337.669345" y="369.36" style="fill: #8b0a50; stroke: #8b0a50"/>
     <use xlink:href="#m975f70b0d8" x="342.388161" y="369.36" style="fill: #8b0a50; stroke: #8b0a50"/>
     <use xlink:href="#m975f70b0d8" x="347.106977" y="369.36" style="fill: #8b0a50; stroke: #8b0a50"/>
     <use xlink:href="#m975f70b0d8" x="351.825793" y="369.36" style="fill: #8b0a50; stroke: #8b0a50"/>
     <use xlink:href="#m975f70b0d8" x="356.544609" y="369.36" style="fill: #8b0a50; stroke: #8b0a50"/>
     <use xlink:href="#m975f70b0d8" x="361.263425" y="369.36" style="fill: #8b0a50; stroke: #8b0a50"/>
     <use xlink:href="#m975f70b0d8" x="365.982241" y="369.36" style="fill: #8b0a50; stroke: #8b0a50"/>
     <use xlink:href="#m975f70b0d8" x="370.701057" y="369.36" style="fill: #8b0a50; stroke: #8b0a50"/>
     <use xlink:href="#m975f70b0d8" x="375.419873" y="369.36" style="fill: #8b0a50; stroke: #8b0a50"/>
     <use xlink:href="#m975f70b0d8" x="380.138689" y="369.36" style="fill: #8b0a50; stroke: #8b0a50"/>
     <use xlink:href="#m975f70b0d8" x="384.857505" y="369.36" style="fill: #8b0a50; stroke: #8b0a50"/>
     <use xlink:href="#m975f70b0d8" x="389.576321" y="369.36" style="fill: #8b0a50; stroke: #8b0a50"/>
     <use xlink:href="#m975f70b0d8" x="394.295137" y="369.36" style="fill: #8b0a50; stroke: #8b0a50"/>
     <use xlink:href="#m975f70b0d8" x="399.013953" y="369.36" style="fill: #8b0a50; stroke: #8b0a50"/>
     <use xlink:href="#m975f70b0d8" x="403.73277" y="369.36" style="fill: #8b0a50; stroke: #8b0a50"/>
     <use xlink:href="#m975f70b0d8" x="408.451586" y="369.36" style="fill: #8b0a50; stroke: #8b0a50"/>
     <use xlink:href="#m975f70b0d8" x="413.170402" y="369.36" style="fill: #8b0a50; stroke: #8b0a50"/>
     <use xlink:href="#m975f70b0d8" x="417.889218" y="369.36" style="fill: #8b0a50; stroke: #8b0a50"/>
     <use xlink:href="#m975f70b0d8" x="422.608034" y="369.36" style="fill: #8b0a50; stroke: #8b0a50"/>
     <use xlink:href="#m975f70b0d8" x="427.32685" y="369.36" style="fill: #8b0a50; stroke: #8b0a50"/>
     <use xlink:href="#m975f70b0d8" x="432.045666" y="369.36" style="fill: #8b0a50; stroke: #8b0a50"/>
     <use xlink:href="#m975f70b0d8" x="436.764482" y="369.36" style="fill: #8b0a50; stroke: #8b0a50"/>
     <use xlink:href="#m975f70b0d8" x="441.483298" y="369.36" style="fill: #8b0a50; stroke: #8b0a50"/>
     <use xlink:href="#m975f70b0d8" x="446.202114" y="369.36" style="fill: #8b0a50; stroke: #8b0a50"/>
     <use xlink:href="#m975f70b0d8" x="450.92093" y="369.36" style="fill: #8b0a50; stroke: #8b0a50"/>
     <use xlink:href="#m975f70b0d8" x="455.639746" y="369.36" style="fill: #8b0a50; stroke: #8b0a50"/>
     <use xlink:href="#m975f70b0d8" x="460.358562" y="369.36" style="fill: #8b0a50; stroke: #8b0a50"/>
     <use xlink:href="#m975f70b0d8" x="465.077378" y="369.36" style="fill: #8b0a50; stroke: #8b0a50"/>
     <use xlink:href="#m975f70b0d8" x="469.796195" y="369.36" style="fill: #8b0a50; stroke: #8b0a50"/>
     <use xlink:href="#m975f70b0d8" x="474.515011" y="369.36" style="fill: #8b0a50; stroke: #8b0a50"/>
     <use xlink:href="#m975f70b0d8" x="479.233827" y="369.36" style="fill: #8b0a50; stroke: #8b0a50"/>
     <use xlink:href="#m975f70b0d8" x="483.952643" y="369.36" style="fill: #8b0a50; stroke: #8b0a50"/>
     <use xlink:href="#m975f70b0d8" x="488.671459" y="369.36" style="fill: #8b0a50; stroke: #8b0a50"/>
     <use xlink:href="#m975f70b0d8" x="493.390275" y="369.36" style="fill: #8b0a50; stroke: #8b0a50"/>
     <use xlink:href="#m975f70b0d8" x="498.109091" y="369.36" style="fill: #8b0a50; stroke: #8b0a50"/>
    </g>
   </g>
   <g id="line2d_12">
    <path d="M 92.290909 349.935627 
L 97.009725 345.963291 
L 101.728541 345.644746 
L 106.447357 344.749452 
L 111.166173 346.680038 
L 115.884989 346.033353 
L 120.603805 347.43704 
L 125.322622 345.331993 
L 130.041438 346.068985 
L 134.760254 347.472775 
L 139.47907 333.683433 
L 144.197886 335.567361 
L 148.916702 331.546215 
L 153.635518 324.022769 
L 158.354334 316.397762 
L 163.07315 309.700402 
L 167.791966 302.614842 
L 172.510782 298.109061 
L 177.229598 289.553779 
L 181.948414 277.229552 
L 186.66723 264.822087 
L 191.386047 255.381745 
L 196.104863 247.824564 
L 200.823679 240.028602 
L 205.542495 237.729754 
L 210.261311 233.913863 
L 214.980127 223.518765 
L 219.698943 214.834989 
L 224.417759 213.194121 
L 229.136575 208.020723 
L 233.855391 208.235288 
L 238.574207 205.745063 
L 243.293023 206.520163 
L 248.011839 203.24641 
L 252.730655 200.815684 
L 257.449471 198.284545 
L 262.168288 195.262618 
L 266.887104 198.637127 
L 271.60592 201.416298 
L 276.324736 198.80914 
L 281.043552 199.079599 
L 285.762368 194.972724 
L 290.481184 186.26114 
L 295.2 176.030767 
L 299.918816 165.556061 
L 304.637632 165.645568 
L 309.356448 159.920985 
L 314.075264 158.070357 
L 318.79408 157.675877 
L 323.512896 154.429266 
L 328.231712 149.467257 
L 332.950529 145.07972 
L 337.669345 147.144078 
L 342.388161 140.010376 
L 347.106977 131.39439 
L 351.825793 121.084342 
L 356.544609 117.555277 
L 361.263425 116.401093 
L 365.982241 120.906564 
L 370.701057 137.363254 
L 375.419873 172.461902 
L 380.138689 117.812509 
L 384.857505 107.130969 
L 389.576321 125.359609 
L 394.295137 158.8978 
L 399.013953 177.870635 
L 403.73277 166.840722 
L 408.451586 157.973868 
L 413.170402 149.797317 
L 417.889218 144.54596 
L 422.608034 147.745888 
L 427.32685 151.999054 
L 432.045666 150.609552 
L 436.764482 149.874871 
L 441.483298 144.640098 
L 446.202114 146.302441 
L 450.92093 146.863415 
L 455.639746 150.002889 
L 460.358562 150.67184 
L 465.077378 148.697351 
L 469.796195 147.334889 
L 474.515011 148.524798 
L 479.233827 151.117143 
L 483.952643 150.750934 
L 488.671459 150.129953 
L 493.390275 153.752885 
L 498.109091 153.595551 
" clip-path="url(#pde2569f0ca)" style="fill: none; stroke: #eb6ab0; stroke-width: 2; stroke-linecap: round"/>
   </g>
   <g id="line2d_13">
    <path d="M 92.290909 346.616897 
L 97.009725 346.858602 
L 101.728541 346.958664 
L 106.447357 347.005948 
L 111.166173 346.886762 
L 115.884989 346.995267 
L 120.603805 347.190433 
L 125.322622 346.852096 
L 130.041438 346.809517 
L 134.760254 346.775187 
L 139.47907 337.464547 
L 144.197886 337.162085 
L 148.916702 337.835646 
L 153.635518 338.083806 
L 158.354334 337.041316 
L 163.07315 337.053064 
L 167.791966 337.41628 
L 172.510782 337.571632 
L 177.229598 337.261764 
L 181.948414 336.786752 
L 186.66723 336.150069 
L 191.386047 335.68027 
L 196.104863 335.356067 
L 200.823679 336.184609 
L 205.542495 335.693938 
L 210.261311 334.90119 
L 214.980127 334.242605 
L 219.698943 335.142277 
L 224.417759 336.383014 
L 229.136575 336.161122 
L 233.855391 335.598887 
L 238.574207 336.010433 
L 243.293023 335.348109 
L 248.011839 335.251439 
L 252.730655 335.13925 
L 257.449471 335.051689 
L 262.168288 335.153068 
L 266.887104 334.952432 
L 271.60592 335.260246 
L 276.324736 335.446482 
L 281.043552 334.541882 
L 285.762368 333.998723 
L 290.481184 334.243797 
L 295.2 334.415952 
L 299.918816 334.59023 
L 304.637632 333.984252 
L 309.356448 333.326319 
L 314.075264 332.722945 
L 318.79408 333.122081 
L 323.512896 334.142372 
L 328.231712 334.338317 
L 332.950529 333.823899 
L 337.669345 333.232308 
L 342.388161 333.567015 
L 347.106977 333.503805 
L 351.825793 333.588415 
L 356.544609 333.464858 
L 361.263425 333.799656 
L 365.982241 334.679215 
L 370.701057 336.852676 
L 375.419873 343.068377 
L 380.138689 344.269302 
L 384.857505 344.914047 
L 389.576321 344.867593 
L 394.295137 344.409236 
L 399.013953 344.269511 
L 403.73277 344.718511 
L 408.451586 344.371439 
L 413.170402 344.17019 
L 417.889218 344.494232 
L 422.608034 344.629506 
L 427.32685 344.011015 
L 432.045666 343.782307 
L 436.764482 344.168712 
L 441.483298 344.153486 
L 446.202114 344.042257 
L 450.92093 343.958197 
L 455.639746 343.830582 
L 460.358562 344.069937 
L 465.077378 344.360036 
L 469.796195 344.184581 
L 474.515011 343.871966 
L 479.233827 343.941053 
L 483.952643 344.051622 
L 488.671459 344.378154 
L 493.390275 344.020827 
L 498.109091 344.25377 
" clip-path="url(#pde2569f0ca)" style="fill: none; stroke-dasharray: 5.55,2.4; stroke-dashoffset: 0; stroke: #eb6ab0; stroke-opacity: 0.8; stroke-width: 1.5"/>
   </g>
   <g id="line2d_14">
    <path d="M 92.290909 343.680095 
L 97.009725 344.043152 
L 101.728541 343.517181 
L 106.447357 334.379114 
L 111.166173 336.002583 
L 115.884989 329.849186 
L 120.603805 328.414164 
L 125.322622 326.872506 
L 130.041438 320.232731 
L 134.760254 312.238949 
L 139.47907 309.75928 
L 144.197886 301.327337 
L 148.916702 299.96097 
L 153.635518 297.197058 
L 158.354334 297.139641 
L 163.07315 296.571409 
L 167.791966 300.601255 
L 172.510782 305.38692 
L 177.229598 312.622758 
L 181.948414 309.772688 
L 186.66723 305.167422 
L 191.386047 304.763273 
L 196.104863 304.067851 
L 200.823679 304.667354 
L 205.542495 300.733422 
L 210.261311 296.515949 
L 214.980127 294.308429 
L 219.698943 290.237861 
L 224.417759 286.824909 
L 229.136575 281.829026 
L 233.855391 277.054115 
L 238.574207 273.566987 
L 243.293023 268.805829 
L 248.011839 263.975129 
L 252.730655 256.928787 
L 257.449471 250.744146 
L 262.168288 247.886518 
L 266.887104 245.018209 
L 271.60592 245.40234 
L 276.324736 241.263119 
L 281.043552 236.057587 
L 285.762368 231.3677 
L 290.481184 228.149289 
L 295.2 225.770355 
L 299.918816 223.525546 
L 304.637632 219.007418 
L 309.356448 214.429614 
L 314.075264 210.344973 
L 318.79408 208.173604 
L 323.512896 204.705379 
L 328.231712 199.998862 
L 332.950529 196.92944 
L 337.669345 193.339885 
L 342.388161 187.593702 
L 347.106977 183.066509 
L 351.825793 179.870792 
L 356.544609 176.733529 
L 361.263425 171.639956 
L 365.982241 168.832865 
L 370.701057 163.676396 
L 375.419873 159.9542 
L 380.138689 159.955471 
L 384.857505 154.348753 
L 389.576321 149.154184 
L 394.295137 146.433852 
L 399.013953 146.232959 
L 403.73277 146.015146 
L 408.451586 147.813865 
L 413.170402 147.992336 
L 417.889218 149.188095 
L 422.608034 148.099403 
L 427.32685 148.495494 
L 432.045666 147.922599 
L 436.764482 148.387512 
L 441.483298 147.489612 
L 446.202114 145.91904 
L 450.92093 146.346335 
L 455.639746 144.438344 
L 460.358562 145.323743 
L 465.077378 145.830082 
L 469.796195 146.208464 
L 474.515011 144.239839 
L 479.233827 143.443171 
L 483.952643 144.297107 
L 488.671459 143.518828 
L 493.390275 145.729719 
L 498.109091 147.44282 
" clip-path="url(#pde2569f0ca)" style="fill: none; stroke: #8b0a50; stroke-width: 2; stroke-linecap: round"/>
   </g>
   <g id="line2d_15">
    <path d="M 92.290909 343.775213 
L 97.009725 339.149345 
L 101.728541 335.707001 
L 106.447357 331.071653 
L 111.166173 326.562206 
L 115.884989 322.247728 
L 120.603805 318.421847 
L 125.322622 313.585244 
L 130.041438 308.645908 
L 134.760254 302.661367 
L 139.47907 297.662925 
L 144.197886 295.260155 
L 148.916702 294.95689 
L 153.635518 296.70112 
L 158.354334 299.050525 
L 163.07315 302.160592 
L 167.791966 305.096748 
L 172.510782 308.107581 
L 177.229598 311.302451 
L 181.948414 313.754646 
L 186.66723 316.089196 
L 191.386047 318.322027 
L 196.104863 320.083411 
L 200.823679 321.262431 
L 205.542495 322.38674 
L 210.261311 323.393673 
L 214.980127 324.276749 
L 219.698943 324.824074 
L 224.417759 325.574683 
L 229.136575 326.191669 
L 233.855391 326.411111 
L 238.574207 326.81816 
L 243.293023 326.596655 
L 248.011839 326.570569 
L 252.730655 326.532451 
L 257.449471 326.944475 
L 262.168288 326.779873 
L 266.887104 326.750876 
L 271.60592 326.535185 
L 276.324736 326.58138 
L 281.043552 326.749399 
L 285.762368 326.675199 
L 290.481184 326.663212 
L 295.2 326.773671 
L 299.918816 326.864684 
L 304.637632 327.119727 
L 309.356448 326.993321 
L 314.075264 326.985491 
L 318.79408 327.026191 
L 323.512896 326.99213 
L 328.231712 327.175882 
L 332.950529 327.29113 
L 337.669345 327.18358 
L 342.388161 327.45341 
L 347.106977 327.767779 
L 351.825793 328.154974 
L 356.544609 328.584268 
L 361.263425 329.142854 
L 365.982241 329.438263 
L 370.701057 330.060505 
L 375.419873 330.972407 
L 380.138689 331.879963 
L 384.857505 332.080244 
L 389.576321 332.571932 
L 394.295137 332.790456 
L 399.013953 332.993817 
L 403.73277 333.380609 
L 408.451586 333.822047 
L 413.170402 334.116941 
L 417.889218 334.208346 
L 422.608034 334.308645 
L 427.32685 334.262734 
L 432.045666 334.328426 
L 436.764482 334.252731 
L 441.483298 334.395578 
L 446.202114 334.525361 
L 450.92093 334.834411 
L 455.639746 334.872282 
L 460.358562 335.080327 
L 465.077378 335.204076 
L 469.796195 335.354493 
L 474.515011 335.553411 
L 479.233827 335.819863 
L 483.952643 335.873632 
L 488.671459 335.711088 
L 493.390275 335.745604 
L 498.109091 335.80438 
" clip-path="url(#pde2569f0ca)" style="fill: none; stroke-dasharray: 5.55,2.4; stroke-dashoffset: 0; stroke: #8b0a50; stroke-opacity: 0.8; stroke-width: 1.5"/>
   </g>
   <g id="line2d_16">
    <path d="M 139.47907 384.48 
L 139.47907 51.84 
" clip-path="url(#pde2569f0ca)" style="fill: none; stroke-dasharray: 5.55,2.4; stroke-dashoffset: 0; stroke: #808080; stroke-opacity: 0.7; stroke-width: 1.5"/>
   </g>
   <g id="line2d_17">
    <path d="M 375.419873 384.48 
L 375.419873 51.84 
" clip-path="url(#pde2569f0ca)" style="fill: none; stroke-dasharray: 5.55,2.4; stroke-dashoffset: 0; stroke: #808080; stroke-opacity: 0.7; stroke-width: 1.5"/>
   </g>
   <g id="patch_3">
    <path d="M 72 384.48 
L 72 51.84 
" style="fill: none; stroke: #000000; stroke-width: 1.5; stroke-linejoin: miter; stroke-linecap: square"/>
   </g>
   <g id="patch_4">
    <path d="M 72 384.48 
L 518.4 384.48 
" style="fill: none; stroke: #000000; stroke-width: 1.5; stroke-linejoin: miter; stroke-linecap: square"/>
   </g>
   <g id="text_14">
    <!-- L2_sactemporal -->
    <g style="fill: #262626" transform="translate(238.093359 45.84) scale(0.15 -0.15)">
     <defs>
      <path id="Arial-BoldMT-4c" d="M 491 0 
L 491 4544 
L 1416 4544 
L 1416 772 
L 3716 772 
L 3716 0 
L 491 0 
z
" transform="scale(0.015625)"/>
      <path id="Arial-BoldMT-32" d="M 3238 816 
L 3238 0 
L 159 0 
Q 209 463 459 877 
Q 709 1291 1447 1975 
Q 2041 2528 2175 2725 
Q 2356 2997 2356 3263 
Q 2356 3556 2198 3714 
Q 2041 3872 1763 3872 
Q 1488 3872 1325 3706 
Q 1163 3541 1138 3156 
L 263 3244 
Q 341 3969 753 4284 
Q 1166 4600 1784 4600 
Q 2463 4600 2850 4234 
Q 3238 3869 3238 3325 
Q 3238 3016 3127 2736 
Q 3016 2456 2775 2150 
Q 2616 1947 2200 1565 
Q 1784 1184 1673 1059 
Q 1563 934 1494 816 
L 3238 816 
z
" transform="scale(0.015625)"/>
      <path id="Arial-BoldMT-5f" d="M -59 -1266 
L -59 -697 
L 3591 -697 
L 3591 -1266 
L -59 -1266 
z
" transform="scale(0.015625)"/>
      <path id="Arial-BoldMT-73" d="M 150 947 
L 1031 1081 
Q 1088 825 1259 692 
Q 1431 559 1741 559 
Q 2081 559 2253 684 
Q 2369 772 2369 919 
Q 2369 1019 2306 1084 
Q 2241 1147 2013 1200 
Q 950 1434 666 1628 
Q 272 1897 272 2375 
Q 272 2806 612 3100 
Q 953 3394 1669 3394 
Q 2350 3394 2681 3172 
Q 3013 2950 3138 2516 
L 2309 2363 
Q 2256 2556 2107 2659 
Q 1959 2763 1684 2763 
Q 1338 2763 1188 2666 
Q 1088 2597 1088 2488 
Q 1088 2394 1175 2328 
Q 1294 2241 1995 2081 
Q 2697 1922 2975 1691 
Q 3250 1456 3250 1038 
Q 3250 581 2869 253 
Q 2488 -75 1741 -75 
Q 1063 -75 667 200 
Q 272 475 150 947 
z
" transform="scale(0.015625)"/>
      <path id="Arial-BoldMT-61" d="M 1116 2306 
L 319 2450 
Q 453 2931 781 3162 
Q 1109 3394 1756 3394 
Q 2344 3394 2631 3255 
Q 2919 3116 3036 2902 
Q 3153 2688 3153 2116 
L 3144 1091 
Q 3144 653 3186 445 
Q 3228 238 3344 0 
L 2475 0 
Q 2441 88 2391 259 
Q 2369 338 2359 363 
Q 2134 144 1878 34 
Q 1622 -75 1331 -75 
Q 819 -75 523 203 
Q 228 481 228 906 
Q 228 1188 362 1408 
Q 497 1628 739 1745 
Q 981 1863 1438 1950 
Q 2053 2066 2291 2166 
L 2291 2253 
Q 2291 2506 2166 2614 
Q 2041 2722 1694 2722 
Q 1459 2722 1328 2630 
Q 1197 2538 1116 2306 
z
M 2291 1594 
Q 2122 1538 1756 1459 
Q 1391 1381 1278 1306 
Q 1106 1184 1106 997 
Q 1106 813 1243 678 
Q 1381 544 1594 544 
Q 1831 544 2047 700 
Q 2206 819 2256 991 
Q 2291 1103 2291 1419 
L 2291 1594 
z
" transform="scale(0.015625)"/>
      <path id="Arial-BoldMT-63" d="M 3353 2338 
L 2488 2181 
Q 2444 2441 2289 2572 
Q 2134 2703 1888 2703 
Q 1559 2703 1364 2476 
Q 1169 2250 1169 1719 
Q 1169 1128 1367 884 
Q 1566 641 1900 641 
Q 2150 641 2309 783 
Q 2469 925 2534 1272 
L 3397 1125 
Q 3263 531 2881 228 
Q 2500 -75 1859 -75 
Q 1131 -75 698 384 
Q 266 844 266 1656 
Q 266 2478 700 2936 
Q 1134 3394 1875 3394 
Q 2481 3394 2839 3133 
Q 3197 2872 3353 2338 
z
" transform="scale(0.015625)"/>
      <path id="Arial-BoldMT-74" d="M 1981 3319 
L 1981 2619 
L 1381 2619 
L 1381 1281 
Q 1381 875 1398 808 
Q 1416 741 1477 697 
Q 1538 653 1625 653 
Q 1747 653 1978 738 
L 2053 56 
Q 1747 -75 1359 -75 
Q 1122 -75 931 4 
Q 741 84 652 211 
Q 563 338 528 553 
Q 500 706 500 1172 
L 500 2619 
L 97 2619 
L 97 3319 
L 500 3319 
L 500 3978 
L 1381 4491 
L 1381 3319 
L 1981 3319 
z
" transform="scale(0.015625)"/>
      <path id="Arial-BoldMT-65" d="M 2381 1056 
L 3256 909 
Q 3088 428 2723 176 
Q 2359 -75 1813 -75 
Q 947 -75 531 491 
Q 203 944 203 1634 
Q 203 2459 634 2926 
Q 1066 3394 1725 3394 
Q 2466 3394 2894 2905 
Q 3322 2416 3303 1406 
L 1103 1406 
Q 1113 1016 1316 798 
Q 1519 581 1822 581 
Q 2028 581 2168 693 
Q 2309 806 2381 1056 
z
M 2431 1944 
Q 2422 2325 2234 2523 
Q 2047 2722 1778 2722 
Q 1491 2722 1303 2513 
Q 1116 2303 1119 1944 
L 2431 1944 
z
" transform="scale(0.015625)"/>
      <path id="Arial-BoldMT-6d" d="M 394 3319 
L 1203 3319 
L 1203 2866 
Q 1638 3394 2238 3394 
Q 2556 3394 2790 3262 
Q 3025 3131 3175 2866 
Q 3394 3131 3647 3262 
Q 3900 3394 4188 3394 
Q 4553 3394 4806 3245 
Q 5059 3097 5184 2809 
Q 5275 2597 5275 2122 
L 5275 0 
L 4397 0 
L 4397 1897 
Q 4397 2391 4306 2534 
Q 4184 2722 3931 2722 
Q 3747 2722 3584 2609 
Q 3422 2497 3350 2280 
Q 3278 2063 3278 1594 
L 3278 0 
L 2400 0 
L 2400 1819 
Q 2400 2303 2353 2443 
Q 2306 2584 2207 2653 
Q 2109 2722 1941 2722 
Q 1738 2722 1575 2612 
Q 1413 2503 1342 2297 
Q 1272 2091 1272 1613 
L 1272 0 
L 394 0 
L 394 3319 
z
" transform="scale(0.015625)"/>
      <path id="Arial-BoldMT-70" d="M 434 3319 
L 1253 3319 
L 1253 2831 
Q 1413 3081 1684 3237 
Q 1956 3394 2288 3394 
Q 2866 3394 3269 2941 
Q 3672 2488 3672 1678 
Q 3672 847 3265 386 
Q 2859 -75 2281 -75 
Q 2006 -75 1782 34 
Q 1559 144 1313 409 
L 1313 -1263 
L 434 -1263 
L 434 3319 
z
M 1303 1716 
Q 1303 1156 1525 889 
Q 1747 622 2066 622 
Q 2372 622 2575 867 
Q 2778 1113 2778 1672 
Q 2778 2194 2568 2447 
Q 2359 2700 2050 2700 
Q 1728 2700 1515 2451 
Q 1303 2203 1303 1716 
z
" transform="scale(0.015625)"/>
      <path id="Arial-BoldMT-6f" d="M 256 1706 
Q 256 2144 472 2553 
Q 688 2963 1083 3178 
Q 1478 3394 1966 3394 
Q 2719 3394 3200 2905 
Q 3681 2416 3681 1669 
Q 3681 916 3195 420 
Q 2709 -75 1972 -75 
Q 1516 -75 1102 131 
Q 688 338 472 736 
Q 256 1134 256 1706 
z
M 1156 1659 
Q 1156 1166 1390 903 
Q 1625 641 1969 641 
Q 2313 641 2545 903 
Q 2778 1166 2778 1666 
Q 2778 2153 2545 2415 
Q 2313 2678 1969 2678 
Q 1625 2678 1390 2415 
Q 1156 2153 1156 1659 
z
" transform="scale(0.015625)"/>
      <path id="Arial-BoldMT-72" d="M 1300 0 
L 422 0 
L 422 3319 
L 1238 3319 
L 1238 2847 
Q 1447 3181 1614 3287 
Q 1781 3394 1994 3394 
Q 2294 3394 2572 3228 
L 2300 2463 
Q 2078 2606 1888 2606 
Q 1703 2606 1575 2504 
Q 1447 2403 1373 2137 
Q 1300 1872 1300 1025 
L 1300 0 
z
" transform="scale(0.015625)"/>
      <path id="Arial-BoldMT-6c" d="M 459 0 
L 459 4581 
L 1338 4581 
L 1338 0 
L 459 0 
z
" transform="scale(0.015625)"/>
     </defs>
     <use xlink:href="#Arial-BoldMT-4c"/>
     <use xlink:href="#Arial-BoldMT-32" x="61.083984"/>
     <use xlink:href="#Arial-BoldMT-5f" x="116.699219"/>
     <use xlink:href="#Arial-BoldMT-73" x="172.314453"/>
     <use xlink:href="#Arial-BoldMT-61" x="227.929688"/>
     <use xlink:href="#Arial-BoldMT-63" x="283.544922"/>
     <use xlink:href="#Arial-BoldMT-74" x="339.160156"/>
     <use xlink:href="#Arial-BoldMT-65" x="372.460938"/>
     <use xlink:href="#Arial-BoldMT-6d" x="428.076172"/>
     <use xlink:href="#Arial-BoldMT-70" x="516.992188"/>
     <use xlink:href="#Arial-BoldMT-6f" x="578.076172"/>
     <use xlink:href="#Arial-BoldMT-72" x="639.160156"/>
     <use xlink:href="#Arial-BoldMT-61" x="678.076172"/>
     <use xlink:href="#Arial-BoldMT-6c" x="733.691406"/>
    </g>
   </g>
  </g>
 </g>
 <defs>
  <clipPath id="pde2569f0ca">
   <rect x="72" y="51.84" width="446.4" height="332.64"/>
  </clipPath>
 </defs>
</svg>
