<?xml version="1.0" encoding="utf-8" standalone="no"?>
<!DOCTYPE svg PUBLIC "-//W3C//DTD SVG 1.1//EN"
  "http://www.w3.org/Graphics/SVG/1.1/DTD/svg11.dtd">
<svg xmlns:xlink="http://www.w3.org/1999/xlink" width="576pt" height="432pt" viewBox="0 0 576 432" xmlns="http://www.w3.org/2000/svg" version="1.1">
 <metadata>
  <rdf:RDF xmlns:dc="http://purl.org/dc/elements/1.1/" xmlns:cc="http://creativecommons.org/ns#" xmlns:rdf="http://www.w3.org/1999/02/22-rdf-syntax-ns#">
   <cc:Work>
    <dc:type rdf:resource="http://purl.org/dc/dcmitype/StillImage"/>
    <dc:date>2025-11-30T10:13:59.928278</dc:date>
    <dc:format>image/svg+xml</dc:format>
    <dc:creator>
     <cc:Agent>
      <dc:title>Matplotlib v3.9.4, https://matplotlib.org/</dc:title>
     </cc:Agent>
    </dc:creator>
   </cc:Work>
  </rdf:RDF>
 </metadata>
 <defs>
  <style type="text/css">*{stroke-linejoin: round; stroke-linecap: butt}</style>
 </defs>
 <g id="figure_1">
  <g id="patch_1">
   <path d="M 0 432 
L 576 432 
L 576 0 
L 0 0 
z
" style="fill: #ffffff"/>
  </g>
  <g id="axes_1">
   <g id="patch_2">
    <path d="M 72 378 
L 518.4 378 
L 518.4 51.84 
L 72 51.84 
L 72 378 
z
" style="fill: none"/>
   </g>
   <g id="matplotlib.axis_1">
    <g id="xtick_1">
     <g id="line2d_1">
      <defs>
       <path id="m24222a1c87" d="M 0 0 
L 0 5 
" style="stroke: #262626; stroke-width: 1.5"/>
      </defs>
      <g>
       <use xlink:href="#m24222a1c87" x="80.493869" y="378" style="fill: #262626; stroke: #262626; stroke-width: 1.5"/>
      </g>
     </g>
     <g id="text_1">
      <!-- −250 -->
      <g style="fill: #262626" transform="translate(63.601291 397.236719) scale(0.15 -0.15)">
       <defs>
        <path id="ArialMT-2212" d="M 3381 1997 
L 356 1997 
L 356 2522 
L 3381 2522 
L 3381 1997 
z
" transform="scale(0.015625)"/>
        <path id="ArialMT-32" d="M 3222 541 
L 3222 0 
L 194 0 
Q 188 203 259 391 
Q 375 700 629 1000 
Q 884 1300 1366 1694 
Q 2113 2306 2375 2664 
Q 2638 3022 2638 3341 
Q 2638 3675 2398 3904 
Q 2159 4134 1775 4134 
Q 1369 4134 1125 3890 
Q 881 3647 878 3216 
L 300 3275 
Q 359 3922 746 4261 
Q 1134 4600 1788 4600 
Q 2447 4600 2831 4234 
Q 3216 3869 3216 3328 
Q 3216 3053 3103 2787 
Q 2991 2522 2730 2228 
Q 2469 1934 1863 1422 
Q 1356 997 1212 845 
Q 1069 694 975 541 
L 3222 541 
z
" transform="scale(0.015625)"/>
        <path id="ArialMT-35" d="M 266 1200 
L 856 1250 
Q 922 819 1161 601 
Q 1400 384 1738 384 
Q 2144 384 2425 690 
Q 2706 997 2706 1503 
Q 2706 1984 2436 2262 
Q 2166 2541 1728 2541 
Q 1456 2541 1237 2417 
Q 1019 2294 894 2097 
L 366 2166 
L 809 4519 
L 3088 4519 
L 3088 3981 
L 1259 3981 
L 1013 2750 
Q 1425 3038 1878 3038 
Q 2478 3038 2890 2622 
Q 3303 2206 3303 1553 
Q 3303 931 2941 478 
Q 2500 -78 1738 -78 
Q 1113 -78 717 272 
Q 322 622 266 1200 
z
" transform="scale(0.015625)"/>
        <path id="ArialMT-30" d="M 266 2259 
Q 266 3072 433 3567 
Q 600 4063 929 4331 
Q 1259 4600 1759 4600 
Q 2128 4600 2406 4451 
Q 2684 4303 2865 4023 
Q 3047 3744 3150 3342 
Q 3253 2941 3253 2259 
Q 3253 1453 3087 958 
Q 2922 463 2592 192 
Q 2263 -78 1759 -78 
Q 1097 -78 719 397 
Q 266 969 266 2259 
z
M 844 2259 
Q 844 1131 1108 757 
Q 1372 384 1759 384 
Q 2147 384 2411 759 
Q 2675 1134 2675 2259 
Q 2675 3391 2411 3762 
Q 2147 4134 1753 4134 
Q 1366 4134 1134 3806 
Q 844 3388 844 2259 
z
" transform="scale(0.015625)"/>
       </defs>
       <use xlink:href="#ArialMT-2212"/>
       <use xlink:href="#ArialMT-32" x="58.398438"/>
       <use xlink:href="#ArialMT-35" x="114.013672"/>
       <use xlink:href="#ArialMT-30" x="169.628906"/>
      </g>
     </g>
    </g>
    <g id="xtick_2">
     <g id="line2d_2">
      <g>
       <use xlink:href="#m24222a1c87" x="139.47907" y="378" style="fill: #262626; stroke: #262626; stroke-width: 1.5"/>
      </g>
     </g>
     <g id="text_2">
      <!-- 0 -->
      <g style="fill: #262626" transform="translate(135.308367 397.236719) scale(0.15 -0.15)">
       <use xlink:href="#ArialMT-30"/>
      </g>
     </g>
    </g>
    <g id="xtick_3">
     <g id="line2d_3">
      <g>
       <use xlink:href="#m24222a1c87" x="198.464271" y="378" style="fill: #262626; stroke: #262626; stroke-width: 1.5"/>
      </g>
     </g>
     <g id="text_3">
      <!-- 250 -->
      <g style="fill: #262626" transform="translate(185.952161 397.236719) scale(0.15 -0.15)">
       <use xlink:href="#ArialMT-32"/>
       <use xlink:href="#ArialMT-35" x="55.615234"/>
       <use xlink:href="#ArialMT-30" x="111.230469"/>
      </g>
     </g>
    </g>
    <g id="xtick_4">
     <g id="line2d_4">
      <g>
       <use xlink:href="#m24222a1c87" x="257.449471" y="378" style="fill: #262626; stroke: #262626; stroke-width: 1.5"/>
      </g>
     </g>
     <g id="text_4">
      <!-- 500 -->
      <g style="fill: #262626" transform="translate(244.937362 397.236719) scale(0.15 -0.15)">
       <use xlink:href="#ArialMT-35"/>
       <use xlink:href="#ArialMT-30" x="55.615234"/>
       <use xlink:href="#ArialMT-30" x="111.230469"/>
      </g>
     </g>
    </g>
    <g id="xtick_5">
     <g id="line2d_5">
      <g>
       <use xlink:href="#m24222a1c87" x="316.434672" y="378" style="fill: #262626; stroke: #262626; stroke-width: 1.5"/>
      </g>
     </g>
     <g id="text_5">
      <!-- 750 -->
      <g style="fill: #262626" transform="translate(303.922563 397.236719) scale(0.15 -0.15)">
       <defs>
        <path id="ArialMT-37" d="M 303 3981 
L 303 4522 
L 3269 4522 
L 3269 4084 
Q 2831 3619 2401 2847 
Q 1972 2075 1738 1259 
Q 1569 684 1522 0 
L 944 0 
Q 953 541 1156 1306 
Q 1359 2072 1739 2783 
Q 2119 3494 2547 3981 
L 303 3981 
z
" transform="scale(0.015625)"/>
       </defs>
       <use xlink:href="#ArialMT-37"/>
       <use xlink:href="#ArialMT-35" x="55.615234"/>
       <use xlink:href="#ArialMT-30" x="111.230469"/>
      </g>
     </g>
    </g>
    <g id="xtick_6">
     <g id="line2d_6">
      <g>
       <use xlink:href="#m24222a1c87" x="375.419873" y="378" style="fill: #262626; stroke: #262626; stroke-width: 1.5"/>
      </g>
     </g>
     <g id="text_6">
      <!-- 1000 -->
      <g style="fill: #262626" transform="translate(358.737061 397.236719) scale(0.15 -0.15)">
       <defs>
        <path id="ArialMT-31" d="M 2384 0 
L 1822 0 
L 1822 3584 
Q 1619 3391 1289 3197 
Q 959 3003 697 2906 
L 697 3450 
Q 1169 3672 1522 3987 
Q 1875 4303 2022 4600 
L 2384 4600 
L 2384 0 
z
" transform="scale(0.015625)"/>
       </defs>
       <use xlink:href="#ArialMT-31"/>
       <use xlink:href="#ArialMT-30" x="55.615234"/>
       <use xlink:href="#ArialMT-30" x="111.230469"/>
       <use xlink:href="#ArialMT-30" x="166.845703"/>
      </g>
     </g>
    </g>
    <g id="xtick_7">
     <g id="line2d_7">
      <g>
       <use xlink:href="#m24222a1c87" x="434.405074" y="378" style="fill: #262626; stroke: #262626; stroke-width: 1.5"/>
      </g>
     </g>
     <g id="text_7">
      <!-- 1250 -->
      <g style="fill: #262626" transform="translate(417.722261 397.236719) scale(0.15 -0.15)">
       <use xlink:href="#ArialMT-31"/>
       <use xlink:href="#ArialMT-32" x="55.615234"/>
       <use xlink:href="#ArialMT-35" x="111.230469"/>
       <use xlink:href="#ArialMT-30" x="166.845703"/>
      </g>
     </g>
    </g>
    <g id="xtick_8">
     <g id="line2d_8">
      <g>
       <use xlink:href="#m24222a1c87" x="493.390275" y="378" style="fill: #262626; stroke: #262626; stroke-width: 1.5"/>
      </g>
     </g>
     <g id="text_8">
      <!-- 1500 -->
      <g style="fill: #262626" transform="translate(476.707462 397.236719) scale(0.15 -0.15)">
       <use xlink:href="#ArialMT-31"/>
       <use xlink:href="#ArialMT-35" x="55.615234"/>
       <use xlink:href="#ArialMT-30" x="111.230469"/>
       <use xlink:href="#ArialMT-30" x="166.845703"/>
      </g>
     </g>
    </g>
    <g id="text_9">
     <!-- time -->
     <g style="fill: #262626" transform="translate(281.032031 414.954687) scale(0.15 -0.15)">
      <defs>
       <path id="ArialMT-74" d="M 1650 503 
L 1731 6 
Q 1494 -44 1306 -44 
Q 1000 -44 831 53 
Q 663 150 594 308 
Q 525 466 525 972 
L 525 2881 
L 113 2881 
L 113 3319 
L 525 3319 
L 525 4141 
L 1084 4478 
L 1084 3319 
L 1650 3319 
L 1650 2881 
L 1084 2881 
L 1084 941 
Q 1084 700 1114 631 
Q 1144 563 1211 522 
Q 1278 481 1403 481 
Q 1497 481 1650 503 
z
" transform="scale(0.015625)"/>
       <path id="ArialMT-69" d="M 425 3934 
L 425 4581 
L 988 4581 
L 988 3934 
L 425 3934 
z
M 425 0 
L 425 3319 
L 988 3319 
L 988 0 
L 425 0 
z
" transform="scale(0.015625)"/>
       <path id="ArialMT-6d" d="M 422 0 
L 422 3319 
L 925 3319 
L 925 2853 
Q 1081 3097 1340 3245 
Q 1600 3394 1931 3394 
Q 2300 3394 2536 3241 
Q 2772 3088 2869 2813 
Q 3263 3394 3894 3394 
Q 4388 3394 4653 3120 
Q 4919 2847 4919 2278 
L 4919 0 
L 4359 0 
L 4359 2091 
Q 4359 2428 4304 2576 
Q 4250 2725 4106 2815 
Q 3963 2906 3769 2906 
Q 3419 2906 3187 2673 
Q 2956 2441 2956 1928 
L 2956 0 
L 2394 0 
L 2394 2156 
Q 2394 2531 2256 2718 
Q 2119 2906 1806 2906 
Q 1569 2906 1367 2781 
Q 1166 2656 1075 2415 
Q 984 2175 984 1722 
L 984 0 
L 422 0 
z
" transform="scale(0.015625)"/>
       <path id="ArialMT-65" d="M 2694 1069 
L 3275 997 
Q 3138 488 2766 206 
Q 2394 -75 1816 -75 
Q 1088 -75 661 373 
Q 234 822 234 1631 
Q 234 2469 665 2931 
Q 1097 3394 1784 3394 
Q 2450 3394 2872 2941 
Q 3294 2488 3294 1666 
Q 3294 1616 3291 1516 
L 816 1516 
Q 847 969 1125 678 
Q 1403 388 1819 388 
Q 2128 388 2347 550 
Q 2566 713 2694 1069 
z
M 847 1978 
L 2700 1978 
Q 2663 2397 2488 2606 
Q 2219 2931 1791 2931 
Q 1403 2931 1139 2672 
Q 875 2413 847 1978 
z
" transform="scale(0.015625)"/>
      </defs>
      <use xlink:href="#ArialMT-74"/>
      <use xlink:href="#ArialMT-69" x="27.783203"/>
      <use xlink:href="#ArialMT-6d" x="50"/>
      <use xlink:href="#ArialMT-65" x="133.300781"/>
     </g>
    </g>
   </g>
   <g id="matplotlib.axis_2">
    <g id="ytick_1">
     <g id="line2d_9">
      <defs>
       <path id="m4cc5f13630" d="M 0 0 
L -5 0 
" style="stroke: #262626; stroke-width: 1.5"/>
      </defs>
      <g>
       <use xlink:href="#m4cc5f13630" x="72" y="341.164126" style="fill: #262626; stroke: #262626; stroke-width: 1.5"/>
      </g>
     </g>
     <g id="text_10">
      <!-- 0.0 -->
      <g style="fill: #262626" transform="translate(42.65 346.532485) scale(0.15 -0.15)">
       <defs>
        <path id="ArialMT-2e" d="M 581 0 
L 581 641 
L 1222 641 
L 1222 0 
L 581 0 
z
" transform="scale(0.015625)"/>
       </defs>
       <use xlink:href="#ArialMT-30"/>
       <use xlink:href="#ArialMT-2e" x="55.615234"/>
       <use xlink:href="#ArialMT-30" x="83.398438"/>
      </g>
     </g>
    </g>
    <g id="ytick_2">
     <g id="line2d_10">
      <g>
       <use xlink:href="#m4cc5f13630" x="72" y="244.031186" style="fill: #262626; stroke: #262626; stroke-width: 1.5"/>
      </g>
     </g>
     <g id="text_11">
      <!-- 0.1 -->
      <g style="fill: #262626" transform="translate(42.65 249.399545) scale(0.15 -0.15)">
       <use xlink:href="#ArialMT-30"/>
       <use xlink:href="#ArialMT-2e" x="55.615234"/>
       <use xlink:href="#ArialMT-31" x="83.398438"/>
      </g>
     </g>
    </g>
    <g id="ytick_3">
     <g id="line2d_11">
      <g>
       <use xlink:href="#m4cc5f13630" x="72" y="146.898246" style="fill: #262626; stroke: #262626; stroke-width: 1.5"/>
      </g>
     </g>
     <g id="text_12">
      <!-- 0.2 -->
      <g style="fill: #262626" transform="translate(42.65 152.266605) scale(0.15 -0.15)">
       <use xlink:href="#ArialMT-30"/>
       <use xlink:href="#ArialMT-2e" x="55.615234"/>
       <use xlink:href="#ArialMT-32" x="83.398438"/>
      </g>
     </g>
    </g>
    <g id="text_13">
     <!-- firing rate -->
     <g style="fill: #262626" transform="translate(35.492969 246.180937) rotate(-90) scale(0.15 -0.15)">
      <defs>
       <path id="ArialMT-66" d="M 556 0 
L 556 2881 
L 59 2881 
L 59 3319 
L 556 3319 
L 556 3672 
Q 556 4006 616 4169 
Q 697 4388 901 4523 
Q 1106 4659 1475 4659 
Q 1713 4659 2000 4603 
L 1916 4113 
Q 1741 4144 1584 4144 
Q 1328 4144 1222 4034 
Q 1116 3925 1116 3625 
L 1116 3319 
L 1763 3319 
L 1763 2881 
L 1116 2881 
L 1116 0 
L 556 0 
z
" transform="scale(0.015625)"/>
       <path id="ArialMT-72" d="M 416 0 
L 416 3319 
L 922 3319 
L 922 2816 
Q 1116 3169 1280 3281 
Q 1444 3394 1641 3394 
Q 1925 3394 2219 3213 
L 2025 2691 
Q 1819 2813 1613 2813 
Q 1428 2813 1281 2702 
Q 1134 2591 1072 2394 
Q 978 2094 978 1738 
L 978 0 
L 416 0 
z
" transform="scale(0.015625)"/>
       <path id="ArialMT-6e" d="M 422 0 
L 422 3319 
L 928 3319 
L 928 2847 
Q 1294 3394 1984 3394 
Q 2284 3394 2536 3286 
Q 2788 3178 2913 3003 
Q 3038 2828 3088 2588 
Q 3119 2431 3119 2041 
L 3119 0 
L 2556 0 
L 2556 2019 
Q 2556 2363 2490 2533 
Q 2425 2703 2258 2804 
Q 2091 2906 1866 2906 
Q 1506 2906 1245 2678 
Q 984 2450 984 1813 
L 984 0 
L 422 0 
z
" transform="scale(0.015625)"/>
       <path id="ArialMT-67" d="M 319 -275 
L 866 -356 
Q 900 -609 1056 -725 
Q 1266 -881 1628 -881 
Q 2019 -881 2231 -725 
Q 2444 -569 2519 -288 
Q 2563 -116 2559 434 
Q 2191 0 1641 0 
Q 956 0 581 494 
Q 206 988 206 1678 
Q 206 2153 378 2554 
Q 550 2956 876 3175 
Q 1203 3394 1644 3394 
Q 2231 3394 2613 2919 
L 2613 3319 
L 3131 3319 
L 3131 450 
Q 3131 -325 2973 -648 
Q 2816 -972 2473 -1159 
Q 2131 -1347 1631 -1347 
Q 1038 -1347 672 -1080 
Q 306 -813 319 -275 
z
M 784 1719 
Q 784 1066 1043 766 
Q 1303 466 1694 466 
Q 2081 466 2343 764 
Q 2606 1063 2606 1700 
Q 2606 2309 2336 2618 
Q 2066 2928 1684 2928 
Q 1309 2928 1046 2623 
Q 784 2319 784 1719 
z
" transform="scale(0.015625)"/>
       <path id="ArialMT-20" transform="scale(0.015625)"/>
       <path id="ArialMT-61" d="M 2588 409 
Q 2275 144 1986 34 
Q 1697 -75 1366 -75 
Q 819 -75 525 192 
Q 231 459 231 875 
Q 231 1119 342 1320 
Q 453 1522 633 1644 
Q 813 1766 1038 1828 
Q 1203 1872 1538 1913 
Q 2219 1994 2541 2106 
Q 2544 2222 2544 2253 
Q 2544 2597 2384 2738 
Q 2169 2928 1744 2928 
Q 1347 2928 1158 2789 
Q 969 2650 878 2297 
L 328 2372 
Q 403 2725 575 2942 
Q 747 3159 1072 3276 
Q 1397 3394 1825 3394 
Q 2250 3394 2515 3294 
Q 2781 3194 2906 3042 
Q 3031 2891 3081 2659 
Q 3109 2516 3109 2141 
L 3109 1391 
Q 3109 606 3145 398 
Q 3181 191 3288 0 
L 2700 0 
Q 2613 175 2588 409 
z
M 2541 1666 
Q 2234 1541 1622 1453 
Q 1275 1403 1131 1340 
Q 988 1278 909 1158 
Q 831 1038 831 891 
Q 831 666 1001 516 
Q 1172 366 1500 366 
Q 1825 366 2078 508 
Q 2331 650 2450 897 
Q 2541 1088 2541 1459 
L 2541 1666 
z
" transform="scale(0.015625)"/>
      </defs>
      <use xlink:href="#ArialMT-66"/>
      <use xlink:href="#ArialMT-69" x="27.783203"/>
      <use xlink:href="#ArialMT-72" x="50"/>
      <use xlink:href="#ArialMT-69" x="83.300781"/>
      <use xlink:href="#ArialMT-6e" x="105.517578"/>
      <use xlink:href="#ArialMT-67" x="161.132812"/>
      <use xlink:href="#ArialMT-20" x="216.748047"/>
      <use xlink:href="#ArialMT-72" x="244.53125"/>
      <use xlink:href="#ArialMT-61" x="277.832031"/>
      <use xlink:href="#ArialMT-74" x="333.447266"/>
      <use xlink:href="#ArialMT-65" x="361.230469"/>
     </g>
    </g>
   </g>
   <g id="PolyCollection_1">
    <defs>
     <path id="m3f2d36b3e0" d="M 92.290909 -92.704689 
L 92.290909 -83.038171 
L 97.009725 -90.86644 
L 101.728541 -90.990048 
L 106.447357 -91.72813 
L 111.166173 -89.854873 
L 115.884989 -90.432985 
L 120.603805 -89.343452 
L 125.322622 -91.617911 
L 130.041438 -90.581992 
L 134.760254 -88.617028 
L 139.47907 -100.033979 
L 144.197886 -97.35837 
L 148.916702 -100.622071 
L 153.635518 -107.102774 
L 158.354334 -113.69937 
L 163.07315 -118.456802 
L 167.791966 -125.125036 
L 172.510782 -128.361495 
L 177.229598 -135.715532 
L 181.948414 -147.336433 
L 186.66723 -161.105175 
L 191.386047 -171.935109 
L 196.104863 -178.552034 
L 200.823679 -184.928906 
L 205.542495 -186.777874 
L 210.261311 -190.149578 
L 214.980127 -199.522298 
L 219.698943 -208.955149 
L 224.417759 -209.399719 
L 229.136575 -214.142921 
L 233.855391 -214.734339 
L 238.574207 -216.622758 
L 243.293023 -216.151012 
L 248.011839 -220.239375 
L 252.730655 -221.979509 
L 257.449471 -223.638587 
L 262.168288 -226.810651 
L 266.887104 -222.083999 
L 271.60592 -218.708908 
L 276.324736 -221.385115 
L 281.043552 -221.494734 
L 285.762368 -225.799168 
L 290.481184 -234.362321 
L 295.2 -244.994799 
L 299.918816 -254.776221 
L 304.637632 -254.251839 
L 309.356448 -258.82816 
L 314.075264 -260.183483 
L 318.79408 -259.508179 
L 323.512896 -262.016883 
L 328.231712 -264.854521 
L 332.950529 -266.969035 
L 337.669345 -265.2053 
L 342.388161 -271.236267 
L 347.106977 -278.813231 
L 351.825793 -288.482289 
L 356.544609 -291.728895 
L 361.263425 -292.244471 
L 365.982241 -287.327938 
L 370.701057 -272.095841 
L 375.419873 -239.722693 
L 380.138689 -286.548462 
L 384.857505 -286.557711 
L 389.576321 -266.160901 
L 394.295137 -236.754188 
L 399.013953 -223.578058 
L 403.73277 -233.249776 
L 408.451586 -239.502244 
L 413.170402 -246.176901 
L 417.889218 -252.097432 
L 422.608034 -249.950566 
L 427.32685 -245.389987 
L 432.045666 -244.977662 
L 436.764482 -244.707934 
L 441.483298 -249.868591 
L 446.202114 -249.871797 
L 450.92093 -249.400905 
L 455.639746 -245.191461 
L 460.358562 -243.553978 
L 465.077378 -245.92984 
L 469.796195 -246.890491 
L 474.515011 -246.42981 
L 479.233827 -244.146768 
L 483.952643 -244.183117 
L 488.671459 -244.599591 
L 493.390275 -240.621871 
L 498.109091 -240.975606 
L 498.109091 -319.797793 
L 498.109091 -319.797793 
L 493.390275 -319.84299 
L 488.671459 -322.969982 
L 483.952643 -322.168687 
L 479.233827 -321.486887 
L 474.515011 -324.287536 
L 469.796195 -326.16031 
L 465.077378 -324.449121 
L 460.358562 -322.952934 
L 455.639746 -322.62729 
L 450.92093 -324.574475 
L 446.202114 -325.203676 
L 441.483298 -328.466801 
L 436.764482 -323.361864 
L 432.045666 -321.651398 
L 427.32685 -318.514206 
L 422.608034 -322.294252 
L 417.889218 -326.422568 
L 413.170402 -322.044984 
L 408.451586 -312.685105 
L 403.73277 -301.549328 
L 399.013953 -289.590957 
L 394.295137 -313.621295 
L 389.576321 -349.98428 
L 384.857505 -365.334545 
L 380.138689 -344.396879 
L 375.419873 -284.053059 
L 370.701057 -320.509725 
L 365.982241 -337.549839 
L 361.263425 -341.46871 
L 356.544609 -339.720886 
L 351.825793 -336.04686 
L 347.106977 -325.49751 
L 342.388161 -316.17819 
L 337.669345 -308.219689 
L 332.950529 -310.50424 
L 328.231712 -304.014624 
L 323.512896 -297.12157 
L 318.79408 -293.263542 
L 314.075264 -291.814649 
L 309.356448 -289.540818 
L 304.637632 -282.891008 
L 299.918816 -282.542154 
L 295.2 -271.782268 
L 290.481184 -262.352587 
L 285.762368 -253.831983 
L 281.043552 -250.082675 
L 276.324736 -250.722676 
L 271.60592 -248.286145 
L 266.887104 -250.361115 
L 262.168288 -252.252008 
L 257.449471 -249.497955 
L 252.730655 -246.193371 
L 248.011839 -243.166756 
L 243.293023 -240.835162 
L 238.574207 -241.883418 
L 233.855391 -238.888408 
L 229.136575 -239.900597 
L 224.417759 -234.498564 
L 219.698943 -231.725326 
L 214.980127 -224.128956 
L 210.261311 -213.116482 
L 205.542495 -209.005076 
L 200.823679 -206.345914 
L 196.104863 -197.434599 
L 191.386047 -189.231599 
L 186.66723 -181.548653 
L 181.948414 -170.985874 
L 177.229598 -158.438486 
L 172.510782 -149.015281 
L 167.791966 -143.415728 
L 163.07315 -136.188903 
L 158.354334 -127.812551 
L 153.635518 -119.456211 
L 148.916702 -111.183145 
L 144.197886 -106.56122 
L 139.47907 -107.580068 
L 134.760254 -91.955582 
L 130.041438 -92.743505 
L 125.322622 -93.152855 
L 120.603805 -91.299236 
L 115.884989 -92.962387 
L 111.166173 -92.272324 
L 106.447357 -94.185023 
L 101.728541 -93.167399 
L 97.009725 -92.666327 
L 92.290909 -92.704689 
z
" style="stroke: #eb6ab0; stroke-opacity: 0.1"/>
    </defs>
    <g clip-path="url(#p924137e432)">
     <use xlink:href="#m3f2d36b3e0" x="0" y="432" style="fill: #eb6ab0; fill-opacity: 0.1; stroke: #eb6ab0; stroke-opacity: 0.1"/>
    </g>
   </g>
   <g id="PolyCollection_2">
    <defs>
     <path id="m32828a992d" d="M 92.290909 -97.692721 
L 92.290909 -90.317484 
L 97.009725 -88.871995 
L 101.728541 -87.827737 
L 106.447357 -95.88761 
L 111.166173 -94.959408 
L 115.884989 -101.349421 
L 120.603805 -101.321665 
L 125.322622 -103.159055 
L 130.041438 -108.251198 
L 134.760254 -116.456552 
L 139.47907 -120.248429 
L 144.197886 -129.080787 
L 148.916702 -131.891558 
L 153.635518 -134.95678 
L 158.354334 -135.75725 
L 163.07315 -137.176283 
L 167.791966 -133.342047 
L 172.510782 -128.25314 
L 177.229598 -120.902776 
L 181.948414 -123.886878 
L 186.66723 -127.835778 
L 191.386047 -128.13441 
L 196.104863 -128.807232 
L 200.823679 -127.651178 
L 205.542495 -131.29458 
L 210.261311 -134.851776 
L 214.980127 -136.535384 
L 219.698943 -140.791463 
L 224.417759 -144.129347 
L 229.136575 -148.775343 
L 233.855391 -153.572315 
L 238.574207 -156.878117 
L 243.293023 -160.9927 
L 248.011839 -165.497684 
L 252.730655 -172.277366 
L 257.449471 -178.029632 
L 262.168288 -180.300149 
L 266.887104 -183.176847 
L 271.60592 -182.891393 
L 276.324736 -186.656251 
L 281.043552 -191.48235 
L 285.762368 -195.851117 
L 290.481184 -198.621169 
L 295.2 -201.307987 
L 299.918816 -203.4825 
L 304.637632 -208.361675 
L 309.356448 -212.482466 
L 314.075264 -215.825421 
L 318.79408 -217.576388 
L 323.512896 -220.186378 
L 328.231712 -224.632012 
L 332.950529 -228.007961 
L 337.669345 -231.748256 
L 342.388161 -237.438122 
L 347.106977 -241.331659 
L 351.825793 -243.961498 
L 356.544609 -246.942393 
L 361.263425 -251.919129 
L 365.982241 -254.150911 
L 370.701057 -258.728378 
L 375.419873 -262.071907 
L 380.138689 -262.022412 
L 384.857505 -266.954014 
L 389.576321 -270.816365 
L 394.295137 -272.918718 
L 399.013953 -273.061221 
L 403.73277 -273.014827 
L 408.451586 -271.592537 
L 413.170402 -271.794155 
L 417.889218 -270.118432 
L 422.608034 -271.149642 
L 427.32685 -270.34271 
L 432.045666 -270.345243 
L 436.764482 -269.556362 
L 441.483298 -270.460053 
L 446.202114 -272.137095 
L 450.92093 -271.893335 
L 455.639746 -273.888588 
L 460.358562 -272.525923 
L 465.077378 -271.426637 
L 469.796195 -271.16217 
L 474.515011 -273.207266 
L 479.233827 -273.205678 
L 483.952643 -272.261241 
L 488.671459 -272.93721 
L 493.390275 -270.264184 
L 498.109091 -268.530324 
L 498.109091 -304.308821 
L 498.109091 -304.308821 
L 493.390275 -305.93442 
L 488.671459 -307.597037 
L 483.952643 -306.74677 
L 479.233827 -307.476935 
L 474.515011 -305.91305 
L 469.796195 -304.097595 
L 465.077378 -304.575151 
L 460.358562 -304.468814 
L 455.639746 -304.842451 
L 450.92093 -303.096061 
L 446.202114 -303.690242 
L 441.483298 -302.287332 
L 436.764482 -301.430205 
L 432.045666 -301.553036 
L 427.32685 -300.4321 
L 422.608034 -300.401918 
L 417.889218 -299.298161 
L 413.170402 -299.967369 
L 408.451586 -300.518975 
L 403.73277 -302.624043 
L 399.013953 -302.150508 
L 394.295137 -301.899053 
L 389.576321 -298.666728 
L 384.857505 -292.342328 
L 380.138689 -286.278938 
L 375.419873 -286.231935 
L 370.701057 -282.276093 
L 365.982241 -276.741523 
L 361.263425 -273.468489 
L 356.544609 -268.456531 
L 351.825793 -265.285131 
L 347.106977 -261.648045 
L 342.388161 -256.663579 
L 337.669345 -251.084956 
L 332.950529 -247.785994 
L 328.231712 -245.142687 
L 323.512896 -240.358657 
L 318.79408 -236.167323 
L 314.075264 -233.660151 
L 309.356448 -228.992967 
L 304.637632 -224.136505 
L 299.918816 -220.155455 
L 295.2 -217.927809 
L 290.481184 -215.949447 
L 285.762368 -212.408068 
L 281.043552 -207.579785 
L 276.324736 -202.197632 
L 271.60592 -197.845316 
L 266.887104 -198.313159 
L 262.168288 -195.564991 
L 257.449471 -192.231588 
L 252.730655 -185.855532 
L 248.011839 -178.817063 
L 243.293023 -173.848856 
L 238.574207 -168.626623 
L 233.855391 -165.094031 
L 229.136575 -160.527216 
L 224.417759 -155.376091 
L 219.698943 -152.021043 
L 214.980127 -148.294579 
L 210.261311 -145.649155 
L 205.542495 -140.935722 
L 200.823679 -136.864531 
L 196.104863 -136.884126 
L 191.386047 -136.193199 
L 186.66723 -135.699277 
L 181.948414 -130.61707 
L 177.229598 -128.012075 
L 172.510782 -134.851471 
L 167.791966 -139.14744 
L 163.07315 -143.215889 
L 158.354334 -143.520597 
L 153.635518 -144.208471 
L 148.916702 -141.853553 
L 144.197886 -141.984826 
L 139.47907 -134.281814 
L 134.760254 -133.210964 
L 130.041438 -125.740199 
L 125.322622 -117.811484 
L 120.603805 -116.625625 
L 115.884989 -113.783734 
L 111.166173 -108.106696 
L 106.447357 -110.36218 
L 101.728541 -100.501947 
L 97.009725 -98.42624 
L 92.290909 -97.692721 
z
" style="stroke: #8b0a50; stroke-opacity: 0.2"/>
    </defs>
    <g clip-path="url(#p924137e432)">
     <use xlink:href="#m32828a992d" x="0" y="432" style="fill: #8b0a50; fill-opacity: 0.2; stroke: #8b0a50; stroke-opacity: 0.2"/>
    </g>
   </g>
   <g id="PathCollection_1">
    <defs>
     <path id="mfc6a8e0375" d="M -2.5 2.5 
L 2.5 2.5 
L 2.5 -2.5 
L -2.5 -2.5 
z
" style="stroke: #eb6ab0"/>
    </defs>
    <g clip-path="url(#p924137e432)">
     <use xlink:href="#mfc6a8e0375" x="153.635518" y="356.032305" style="fill: #eb6ab0; stroke: #eb6ab0"/>
     <use xlink:href="#mfc6a8e0375" x="158.354334" y="356.032305" style="fill: #eb6ab0; stroke: #eb6ab0"/>
     <use xlink:href="#mfc6a8e0375" x="163.07315" y="356.032305" style="fill: #eb6ab0; stroke: #eb6ab0"/>
     <use xlink:href="#mfc6a8e0375" x="167.791966" y="356.032305" style="fill: #eb6ab0; stroke: #eb6ab0"/>
     <use xlink:href="#mfc6a8e0375" x="172.510782" y="356.032305" style="fill: #eb6ab0; stroke: #eb6ab0"/>
     <use xlink:href="#mfc6a8e0375" x="177.229598" y="356.032305" style="fill: #eb6ab0; stroke: #eb6ab0"/>
     <use xlink:href="#mfc6a8e0375" x="181.948414" y="356.032305" style="fill: #eb6ab0; stroke: #eb6ab0"/>
     <use xlink:href="#mfc6a8e0375" x="186.66723" y="356.032305" style="fill: #eb6ab0; stroke: #eb6ab0"/>
     <use xlink:href="#mfc6a8e0375" x="191.386047" y="356.032305" style="fill: #eb6ab0; stroke: #eb6ab0"/>
     <use xlink:href="#mfc6a8e0375" x="196.104863" y="356.032305" style="fill: #eb6ab0; stroke: #eb6ab0"/>
     <use xlink:href="#mfc6a8e0375" x="200.823679" y="356.032305" style="fill: #eb6ab0; stroke: #eb6ab0"/>
     <use xlink:href="#mfc6a8e0375" x="205.542495" y="356.032305" style="fill: #eb6ab0; stroke: #eb6ab0"/>
     <use xlink:href="#mfc6a8e0375" x="210.261311" y="356.032305" style="fill: #eb6ab0; stroke: #eb6ab0"/>
     <use xlink:href="#mfc6a8e0375" x="214.980127" y="356.032305" style="fill: #eb6ab0; stroke: #eb6ab0"/>
     <use xlink:href="#mfc6a8e0375" x="219.698943" y="356.032305" style="fill: #eb6ab0; stroke: #eb6ab0"/>
     <use xlink:href="#mfc6a8e0375" x="224.417759" y="356.032305" style="fill: #eb6ab0; stroke: #eb6ab0"/>
     <use xlink:href="#mfc6a8e0375" x="229.136575" y="356.032305" style="fill: #eb6ab0; stroke: #eb6ab0"/>
     <use xlink:href="#mfc6a8e0375" x="233.855391" y="356.032305" style="fill: #eb6ab0; stroke: #eb6ab0"/>
     <use xlink:href="#mfc6a8e0375" x="238.574207" y="356.032305" style="fill: #eb6ab0; stroke: #eb6ab0"/>
     <use xlink:href="#mfc6a8e0375" x="243.293023" y="356.032305" style="fill: #eb6ab0; stroke: #eb6ab0"/>
     <use xlink:href="#mfc6a8e0375" x="248.011839" y="356.032305" style="fill: #eb6ab0; stroke: #eb6ab0"/>
     <use xlink:href="#mfc6a8e0375" x="252.730655" y="356.032305" style="fill: #eb6ab0; stroke: #eb6ab0"/>
     <use xlink:href="#mfc6a8e0375" x="257.449471" y="356.032305" style="fill: #eb6ab0; stroke: #eb6ab0"/>
     <use xlink:href="#mfc6a8e0375" x="262.168288" y="356.032305" style="fill: #eb6ab0; stroke: #eb6ab0"/>
     <use xlink:href="#mfc6a8e0375" x="266.887104" y="356.032305" style="fill: #eb6ab0; stroke: #eb6ab0"/>
     <use xlink:href="#mfc6a8e0375" x="271.60592" y="356.032305" style="fill: #eb6ab0; stroke: #eb6ab0"/>
     <use xlink:href="#mfc6a8e0375" x="276.324736" y="356.032305" style="fill: #eb6ab0; stroke: #eb6ab0"/>
     <use xlink:href="#mfc6a8e0375" x="281.043552" y="356.032305" style="fill: #eb6ab0; stroke: #eb6ab0"/>
     <use xlink:href="#mfc6a8e0375" x="285.762368" y="356.032305" style="fill: #eb6ab0; stroke: #eb6ab0"/>
     <use xlink:href="#mfc6a8e0375" x="290.481184" y="356.032305" style="fill: #eb6ab0; stroke: #eb6ab0"/>
     <use xlink:href="#mfc6a8e0375" x="295.2" y="356.032305" style="fill: #eb6ab0; stroke: #eb6ab0"/>
     <use xlink:href="#mfc6a8e0375" x="299.918816" y="356.032305" style="fill: #eb6ab0; stroke: #eb6ab0"/>
     <use xlink:href="#mfc6a8e0375" x="304.637632" y="356.032305" style="fill: #eb6ab0; stroke: #eb6ab0"/>
     <use xlink:href="#mfc6a8e0375" x="309.356448" y="356.032305" style="fill: #eb6ab0; stroke: #eb6ab0"/>
     <use xlink:href="#mfc6a8e0375" x="314.075264" y="356.032305" style="fill: #eb6ab0; stroke: #eb6ab0"/>
     <use xlink:href="#mfc6a8e0375" x="318.79408" y="356.032305" style="fill: #eb6ab0; stroke: #eb6ab0"/>
     <use xlink:href="#mfc6a8e0375" x="323.512896" y="356.032305" style="fill: #eb6ab0; stroke: #eb6ab0"/>
     <use xlink:href="#mfc6a8e0375" x="328.231712" y="356.032305" style="fill: #eb6ab0; stroke: #eb6ab0"/>
     <use xlink:href="#mfc6a8e0375" x="332.950529" y="356.032305" style="fill: #eb6ab0; stroke: #eb6ab0"/>
     <use xlink:href="#mfc6a8e0375" x="337.669345" y="356.032305" style="fill: #eb6ab0; stroke: #eb6ab0"/>
     <use xlink:href="#mfc6a8e0375" x="342.388161" y="356.032305" style="fill: #eb6ab0; stroke: #eb6ab0"/>
     <use xlink:href="#mfc6a8e0375" x="347.106977" y="356.032305" style="fill: #eb6ab0; stroke: #eb6ab0"/>
     <use xlink:href="#mfc6a8e0375" x="351.825793" y="356.032305" style="fill: #eb6ab0; stroke: #eb6ab0"/>
     <use xlink:href="#mfc6a8e0375" x="356.544609" y="356.032305" style="fill: #eb6ab0; stroke: #eb6ab0"/>
     <use xlink:href="#mfc6a8e0375" x="361.263425" y="356.032305" style="fill: #eb6ab0; stroke: #eb6ab0"/>
     <use xlink:href="#mfc6a8e0375" x="365.982241" y="356.032305" style="fill: #eb6ab0; stroke: #eb6ab0"/>
     <use xlink:href="#mfc6a8e0375" x="370.701057" y="356.032305" style="fill: #eb6ab0; stroke: #eb6ab0"/>
     <use xlink:href="#mfc6a8e0375" x="375.419873" y="356.032305" style="fill: #eb6ab0; stroke: #eb6ab0"/>
     <use xlink:href="#mfc6a8e0375" x="380.138689" y="356.032305" style="fill: #eb6ab0; stroke: #eb6ab0"/>
     <use xlink:href="#mfc6a8e0375" x="384.857505" y="356.032305" style="fill: #eb6ab0; stroke: #eb6ab0"/>
     <use xlink:href="#mfc6a8e0375" x="389.576321" y="356.032305" style="fill: #eb6ab0; stroke: #eb6ab0"/>
     <use xlink:href="#mfc6a8e0375" x="394.295137" y="356.032305" style="fill: #eb6ab0; stroke: #eb6ab0"/>
     <use xlink:href="#mfc6a8e0375" x="399.013953" y="356.032305" style="fill: #eb6ab0; stroke: #eb6ab0"/>
     <use xlink:href="#mfc6a8e0375" x="403.73277" y="356.032305" style="fill: #eb6ab0; stroke: #eb6ab0"/>
     <use xlink:href="#mfc6a8e0375" x="408.451586" y="356.032305" style="fill: #eb6ab0; stroke: #eb6ab0"/>
     <use xlink:href="#mfc6a8e0375" x="413.170402" y="356.032305" style="fill: #eb6ab0; stroke: #eb6ab0"/>
     <use xlink:href="#mfc6a8e0375" x="417.889218" y="356.032305" style="fill: #eb6ab0; stroke: #eb6ab0"/>
     <use xlink:href="#mfc6a8e0375" x="422.608034" y="356.032305" style="fill: #eb6ab0; stroke: #eb6ab0"/>
     <use xlink:href="#mfc6a8e0375" x="427.32685" y="356.032305" style="fill: #eb6ab0; stroke: #eb6ab0"/>
     <use xlink:href="#mfc6a8e0375" x="432.045666" y="356.032305" style="fill: #eb6ab0; stroke: #eb6ab0"/>
     <use xlink:href="#mfc6a8e0375" x="436.764482" y="356.032305" style="fill: #eb6ab0; stroke: #eb6ab0"/>
     <use xlink:href="#mfc6a8e0375" x="441.483298" y="356.032305" style="fill: #eb6ab0; stroke: #eb6ab0"/>
     <use xlink:href="#mfc6a8e0375" x="446.202114" y="356.032305" style="fill: #eb6ab0; stroke: #eb6ab0"/>
     <use xlink:href="#mfc6a8e0375" x="450.92093" y="356.032305" style="fill: #eb6ab0; stroke: #eb6ab0"/>
     <use xlink:href="#mfc6a8e0375" x="455.639746" y="356.032305" style="fill: #eb6ab0; stroke: #eb6ab0"/>
     <use xlink:href="#mfc6a8e0375" x="460.358562" y="356.032305" style="fill: #eb6ab0; stroke: #eb6ab0"/>
     <use xlink:href="#mfc6a8e0375" x="465.077378" y="356.032305" style="fill: #eb6ab0; stroke: #eb6ab0"/>
     <use xlink:href="#mfc6a8e0375" x="469.796195" y="356.032305" style="fill: #eb6ab0; stroke: #eb6ab0"/>
     <use xlink:href="#mfc6a8e0375" x="474.515011" y="356.032305" style="fill: #eb6ab0; stroke: #eb6ab0"/>
     <use xlink:href="#mfc6a8e0375" x="479.233827" y="356.032305" style="fill: #eb6ab0; stroke: #eb6ab0"/>
     <use xlink:href="#mfc6a8e0375" x="483.952643" y="356.032305" style="fill: #eb6ab0; stroke: #eb6ab0"/>
     <use xlink:href="#mfc6a8e0375" x="488.671459" y="356.032305" style="fill: #eb6ab0; stroke: #eb6ab0"/>
     <use xlink:href="#mfc6a8e0375" x="493.390275" y="356.032305" style="fill: #eb6ab0; stroke: #eb6ab0"/>
     <use xlink:href="#mfc6a8e0375" x="498.109091" y="356.032305" style="fill: #eb6ab0; stroke: #eb6ab0"/>
    </g>
   </g>
   <g id="PathCollection_2">
    <defs>
     <path id="mb314c5afb5" d="M -2.5 2.5 
L 2.5 2.5 
L 2.5 -2.5 
L -2.5 -2.5 
z
" style="stroke: #8b0a50"/>
    </defs>
    <g clip-path="url(#p924137e432)">
     <use xlink:href="#mb314c5afb5" x="186.66723" y="363.174545" style="fill: #8b0a50; stroke: #8b0a50"/>
     <use xlink:href="#mb314c5afb5" x="191.386047" y="363.174545" style="fill: #8b0a50; stroke: #8b0a50"/>
     <use xlink:href="#mb314c5afb5" x="196.104863" y="363.174545" style="fill: #8b0a50; stroke: #8b0a50"/>
     <use xlink:href="#mb314c5afb5" x="200.823679" y="363.174545" style="fill: #8b0a50; stroke: #8b0a50"/>
     <use xlink:href="#mb314c5afb5" x="205.542495" y="363.174545" style="fill: #8b0a50; stroke: #8b0a50"/>
     <use xlink:href="#mb314c5afb5" x="210.261311" y="363.174545" style="fill: #8b0a50; stroke: #8b0a50"/>
     <use xlink:href="#mb314c5afb5" x="214.980127" y="363.174545" style="fill: #8b0a50; stroke: #8b0a50"/>
     <use xlink:href="#mb314c5afb5" x="219.698943" y="363.174545" style="fill: #8b0a50; stroke: #8b0a50"/>
     <use xlink:href="#mb314c5afb5" x="224.417759" y="363.174545" style="fill: #8b0a50; stroke: #8b0a50"/>
     <use xlink:href="#mb314c5afb5" x="229.136575" y="363.174545" style="fill: #8b0a50; stroke: #8b0a50"/>
     <use xlink:href="#mb314c5afb5" x="233.855391" y="363.174545" style="fill: #8b0a50; stroke: #8b0a50"/>
     <use xlink:href="#mb314c5afb5" x="238.574207" y="363.174545" style="fill: #8b0a50; stroke: #8b0a50"/>
     <use xlink:href="#mb314c5afb5" x="243.293023" y="363.174545" style="fill: #8b0a50; stroke: #8b0a50"/>
     <use xlink:href="#mb314c5afb5" x="248.011839" y="363.174545" style="fill: #8b0a50; stroke: #8b0a50"/>
     <use xlink:href="#mb314c5afb5" x="252.730655" y="363.174545" style="fill: #8b0a50; stroke: #8b0a50"/>
     <use xlink:href="#mb314c5afb5" x="257.449471" y="363.174545" style="fill: #8b0a50; stroke: #8b0a50"/>
     <use xlink:href="#mb314c5afb5" x="262.168288" y="363.174545" style="fill: #8b0a50; stroke: #8b0a50"/>
     <use xlink:href="#mb314c5afb5" x="266.887104" y="363.174545" style="fill: #8b0a50; stroke: #8b0a50"/>
     <use xlink:href="#mb314c5afb5" x="271.60592" y="363.174545" style="fill: #8b0a50; stroke: #8b0a50"/>
     <use xlink:href="#mb314c5afb5" x="276.324736" y="363.174545" style="fill: #8b0a50; stroke: #8b0a50"/>
     <use xlink:href="#mb314c5afb5" x="281.043552" y="363.174545" style="fill: #8b0a50; stroke: #8b0a50"/>
     <use xlink:href="#mb314c5afb5" x="285.762368" y="363.174545" style="fill: #8b0a50; stroke: #8b0a50"/>
     <use xlink:href="#mb314c5afb5" x="290.481184" y="363.174545" style="fill: #8b0a50; stroke: #8b0a50"/>
     <use xlink:href="#mb314c5afb5" x="295.2" y="363.174545" style="fill: #8b0a50; stroke: #8b0a50"/>
     <use xlink:href="#mb314c5afb5" x="299.918816" y="363.174545" style="fill: #8b0a50; stroke: #8b0a50"/>
     <use xlink:href="#mb314c5afb5" x="304.637632" y="363.174545" style="fill: #8b0a50; stroke: #8b0a50"/>
     <use xlink:href="#mb314c5afb5" x="309.356448" y="363.174545" style="fill: #8b0a50; stroke: #8b0a50"/>
     <use xlink:href="#mb314c5afb5" x="314.075264" y="363.174545" style="fill: #8b0a50; stroke: #8b0a50"/>
     <use xlink:href="#mb314c5afb5" x="318.79408" y="363.174545" style="fill: #8b0a50; stroke: #8b0a50"/>
     <use xlink:href="#mb314c5afb5" x="323.512896" y="363.174545" style="fill: #8b0a50; stroke: #8b0a50"/>
     <use xlink:href="#mb314c5afb5" x="328.231712" y="363.174545" style="fill: #8b0a50; stroke: #8b0a50"/>
     <use xlink:href="#mb314c5afb5" x="332.950529" y="363.174545" style="fill: #8b0a50; stroke: #8b0a50"/>
     <use xlink:href="#mb314c5afb5" x="337.669345" y="363.174545" style="fill: #8b0a50; stroke: #8b0a50"/>
     <use xlink:href="#mb314c5afb5" x="342.388161" y="363.174545" style="fill: #8b0a50; stroke: #8b0a50"/>
     <use xlink:href="#mb314c5afb5" x="347.106977" y="363.174545" style="fill: #8b0a50; stroke: #8b0a50"/>
     <use xlink:href="#mb314c5afb5" x="351.825793" y="363.174545" style="fill: #8b0a50; stroke: #8b0a50"/>
     <use xlink:href="#mb314c5afb5" x="356.544609" y="363.174545" style="fill: #8b0a50; stroke: #8b0a50"/>
     <use xlink:href="#mb314c5afb5" x="361.263425" y="363.174545" style="fill: #8b0a50; stroke: #8b0a50"/>
     <use xlink:href="#mb314c5afb5" x="365.982241" y="363.174545" style="fill: #8b0a50; stroke: #8b0a50"/>
     <use xlink:href="#mb314c5afb5" x="370.701057" y="363.174545" style="fill: #8b0a50; stroke: #8b0a50"/>
     <use xlink:href="#mb314c5afb5" x="375.419873" y="363.174545" style="fill: #8b0a50; stroke: #8b0a50"/>
     <use xlink:href="#mb314c5afb5" x="380.138689" y="363.174545" style="fill: #8b0a50; stroke: #8b0a50"/>
     <use xlink:href="#mb314c5afb5" x="384.857505" y="363.174545" style="fill: #8b0a50; stroke: #8b0a50"/>
     <use xlink:href="#mb314c5afb5" x="389.576321" y="363.174545" style="fill: #8b0a50; stroke: #8b0a50"/>
     <use xlink:href="#mb314c5afb5" x="394.295137" y="363.174545" style="fill: #8b0a50; stroke: #8b0a50"/>
     <use xlink:href="#mb314c5afb5" x="399.013953" y="363.174545" style="fill: #8b0a50; stroke: #8b0a50"/>
     <use xlink:href="#mb314c5afb5" x="403.73277" y="363.174545" style="fill: #8b0a50; stroke: #8b0a50"/>
     <use xlink:href="#mb314c5afb5" x="408.451586" y="363.174545" style="fill: #8b0a50; stroke: #8b0a50"/>
     <use xlink:href="#mb314c5afb5" x="413.170402" y="363.174545" style="fill: #8b0a50; stroke: #8b0a50"/>
     <use xlink:href="#mb314c5afb5" x="417.889218" y="363.174545" style="fill: #8b0a50; stroke: #8b0a50"/>
     <use xlink:href="#mb314c5afb5" x="422.608034" y="363.174545" style="fill: #8b0a50; stroke: #8b0a50"/>
     <use xlink:href="#mb314c5afb5" x="427.32685" y="363.174545" style="fill: #8b0a50; stroke: #8b0a50"/>
     <use xlink:href="#mb314c5afb5" x="432.045666" y="363.174545" style="fill: #8b0a50; stroke: #8b0a50"/>
     <use xlink:href="#mb314c5afb5" x="436.764482" y="363.174545" style="fill: #8b0a50; stroke: #8b0a50"/>
     <use xlink:href="#mb314c5afb5" x="441.483298" y="363.174545" style="fill: #8b0a50; stroke: #8b0a50"/>
     <use xlink:href="#mb314c5afb5" x="446.202114" y="363.174545" style="fill: #8b0a50; stroke: #8b0a50"/>
     <use xlink:href="#mb314c5afb5" x="450.92093" y="363.174545" style="fill: #8b0a50; stroke: #8b0a50"/>
     <use xlink:href="#mb314c5afb5" x="455.639746" y="363.174545" style="fill: #8b0a50; stroke: #8b0a50"/>
     <use xlink:href="#mb314c5afb5" x="460.358562" y="363.174545" style="fill: #8b0a50; stroke: #8b0a50"/>
     <use xlink:href="#mb314c5afb5" x="465.077378" y="363.174545" style="fill: #8b0a50; stroke: #8b0a50"/>
     <use xlink:href="#mb314c5afb5" x="469.796195" y="363.174545" style="fill: #8b0a50; stroke: #8b0a50"/>
     <use xlink:href="#mb314c5afb5" x="474.515011" y="363.174545" style="fill: #8b0a50; stroke: #8b0a50"/>
     <use xlink:href="#mb314c5afb5" x="479.233827" y="363.174545" style="fill: #8b0a50; stroke: #8b0a50"/>
     <use xlink:href="#mb314c5afb5" x="483.952643" y="363.174545" style="fill: #8b0a50; stroke: #8b0a50"/>
     <use xlink:href="#mb314c5afb5" x="488.671459" y="363.174545" style="fill: #8b0a50; stroke: #8b0a50"/>
     <use xlink:href="#mb314c5afb5" x="493.390275" y="363.174545" style="fill: #8b0a50; stroke: #8b0a50"/>
     <use xlink:href="#mb314c5afb5" x="498.109091" y="363.174545" style="fill: #8b0a50; stroke: #8b0a50"/>
    </g>
   </g>
   <g id="line2d_12">
    <path d="M 92.290909 344.12857 
L 97.009725 340.233617 
L 101.728541 339.921277 
L 106.447357 339.043424 
L 111.166173 340.936401 
L 115.884989 340.302314 
L 120.603805 341.678656 
L 125.322622 339.614617 
L 130.041438 340.337252 
L 134.760254 341.713695 
L 139.47907 328.192977 
L 144.197886 330.040205 
L 148.916702 326.097392 
L 153.635518 318.720508 
L 158.354334 311.244039 
L 163.07315 304.677148 
L 167.791966 297.729618 
L 172.510782 293.311612 
L 177.229598 284.922991 
L 181.948414 272.838846 
L 186.66723 260.673086 
L 191.386047 251.416646 
L 196.104863 244.006683 
L 200.823679 236.36259 
L 205.542495 234.108525 
L 210.261311 230.36697 
L 214.980127 220.174373 
L 219.698943 211.659762 
L 224.417759 210.050859 
L 229.136575 204.978241 
L 233.855391 205.188627 
L 238.574207 202.746912 
L 243.293023 203.506913 
L 248.011839 200.296934 
L 252.730655 197.91356 
L 257.449471 195.431729 
L 262.168288 192.468671 
L 266.887104 195.777443 
L 271.60592 198.502474 
L 276.324736 195.946105 
L 281.043552 196.211295 
L 285.762368 192.184424 
L 290.481184 183.642546 
L 295.2 173.611466 
L 299.918816 163.340813 
L 304.637632 163.428576 
L 309.356448 157.815511 
L 314.075264 156.000934 
L 318.79408 155.61414 
L 323.512896 152.430773 
L 328.231712 147.565427 
L 332.950529 143.263362 
L 337.669345 145.287505 
L 342.388161 138.292771 
L 347.106977 129.84463 
L 351.825793 119.735426 
L 356.544609 116.275109 
L 361.263425 115.143409 
L 365.982241 119.561112 
L 370.701057 135.697217 
L 375.419873 170.112124 
L 380.138689 116.52733 
L 384.857505 106.053872 
L 389.576321 123.927409 
L 394.295137 156.812259 
L 399.013953 175.415493 
L 403.73277 164.600448 
L 408.451586 155.906325 
L 413.170402 147.889058 
L 417.889218 142.74 
L 422.608034 145.877591 
L 427.32685 150.047903 
L 432.045666 148.68547 
L 436.764482 147.965101 
L 441.483298 142.832304 
L 446.202114 144.462263 
L 450.92093 145.01231 
L 455.639746 148.090625 
L 460.358562 148.746544 
L 465.077378 146.81052 
L 469.796195 145.474599 
L 474.515011 146.641327 
L 479.233827 149.183172 
L 483.952643 148.824098 
L 488.671459 148.215214 
L 493.390275 151.767569 
L 498.109091 151.6133 
" clip-path="url(#p924137e432)" style="fill: none; stroke: #eb6ab0; stroke-width: 2; stroke-linecap: round"/>
   </g>
   <g id="line2d_13">
    <path d="M 92.290909 342.418747 
L 97.009725 341.128252 
L 101.728541 341.113528 
L 106.447357 341.055571 
L 111.166173 340.94456 
L 115.884989 341.383086 
L 120.603805 341.111101 
L 125.322622 341.169757 
L 130.041438 340.95092 
L 134.760254 340.647078 
L 139.47907 331.950706 
L 144.197886 332.401292 
L 148.916702 332.791329 
L 153.635518 332.499877 
L 158.354334 331.695068 
L 163.07315 330.9607 
L 167.791966 331.866854 
L 172.510782 331.100037 
L 177.229598 330.285955 
L 181.948414 329.9622 
L 186.66723 329.323035 
L 191.386047 328.97615 
L 196.104863 328.142207 
L 200.823679 327.283981 
L 205.542495 326.162777 
L 210.261311 324.751851 
L 214.980127 322.832083 
L 219.698943 321.042516 
L 224.417759 319.220131 
L 229.136575 317.175424 
L 233.855391 316.1523 
L 238.574207 314.948102 
L 243.293023 313.398424 
L 248.011839 312.20302 
L 252.730655 311.283005 
L 257.449471 310.717252 
L 262.168288 310.14897 
L 266.887104 309.997061 
L 271.60592 310.529609 
L 276.324736 311.012025 
L 281.043552 311.542952 
L 285.762368 312.320153 
L 290.481184 313.306837 
L 295.2 314.033085 
L 299.918816 315.175942 
L 304.637632 315.64753 
L 309.356448 315.916145 
L 314.075264 316.764312 
L 318.79408 317.770766 
L 323.512896 319.067592 
L 328.231712 320.48541 
L 332.950529 321.661706 
L 337.669345 322.437183 
L 342.388161 322.789826 
L 347.106977 322.547239 
L 351.825793 322.291708 
L 356.544609 322.40067 
L 361.263425 323.478807 
L 365.982241 325.507635 
L 370.701057 328.702581 
L 375.419873 335.089063 
L 380.138689 334.005019 
L 384.857505 334.49786 
L 389.576321 335.666004 
L 394.295137 336.231929 
L 399.013953 336.142118 
L 403.73277 335.406555 
L 408.451586 335.055856 
L 413.170402 334.919793 
L 417.889218 335.223813 
L 422.608034 335.457335 
L 427.32685 335.376137 
L 432.045666 335.262747 
L 436.764482 335.619887 
L 441.483298 335.49078 
L 446.202114 335.711466 
L 450.92093 336.111782 
L 455.639746 335.814528 
L 460.358562 335.822796 
L 465.077378 335.995852 
L 469.796195 335.568436 
L 474.515011 335.765879 
L 479.233827 336.045388 
L 483.952643 336.098315 
L 488.671459 336.320382 
L 493.390275 335.890986 
L 498.109091 336.176837 
" clip-path="url(#p924137e432)" style="fill: none; stroke-dasharray: 5.55,2.4; stroke-dashoffset: 0; stroke: #eb6ab0; stroke-opacity: 0.8; stroke-width: 1.5"/>
   </g>
   <g id="line2d_14">
    <path d="M 92.290909 337.994898 
L 97.009725 338.350883 
L 101.728541 337.835158 
L 106.447357 328.875105 
L 111.166173 330.466948 
L 115.884989 324.433422 
L 120.603805 323.026355 
L 125.322622 321.51473 
L 130.041438 315.004301 
L 134.760254 307.166242 
L 139.47907 304.734878 
L 144.197886 296.467194 
L 148.916702 295.127444 
L 153.635518 292.417375 
L 158.354334 292.361076 
L 163.07315 291.803914 
L 167.791966 295.755257 
L 172.510782 300.447694 
L 177.229598 307.542575 
L 181.948414 304.748026 
L 186.66723 300.232472 
L 191.386047 299.836196 
L 196.104863 299.154321 
L 200.823679 299.742146 
L 205.542495 295.884849 
L 210.261311 291.749535 
L 214.980127 289.585018 
L 219.698943 285.593747 
L 224.417759 282.247281 
L 229.136575 277.34872 
L 233.855391 272.666827 
L 238.574207 269.24763 
L 243.293023 264.579222 
L 248.011839 259.842626 
L 252.730655 252.933551 
L 257.449471 246.86939 
L 262.168288 244.06743 
L 266.887104 241.254997 
L 271.60592 241.631645 
L 276.324736 237.573058 
L 281.043552 232.468933 
L 285.762368 227.870408 
L 290.481184 224.714692 
L 295.2 222.382102 
L 299.918816 220.181022 
L 304.637632 215.75091 
L 309.356448 211.262284 
L 314.075264 207.257214 
L 318.79408 205.128144 
L 323.512896 201.727482 
L 328.231712 197.11265 
L 332.950529 194.103023 
L 337.669345 190.583394 
L 342.388161 184.94915 
L 347.106977 180.510148 
L 351.825793 177.376686 
L 356.544609 174.300538 
L 361.263425 169.306191 
L 365.982241 166.553783 
L 370.701057 161.497765 
L 375.419873 157.848079 
L 380.138689 157.849325 
L 384.857505 152.351829 
L 389.576321 147.258454 
L 394.295137 144.591115 
L 399.013953 144.394136 
L 403.73277 144.180565 
L 408.451586 145.944244 
L 413.170402 146.119238 
L 417.889218 147.291704 
L 422.608034 146.22422 
L 427.32685 146.612595 
L 432.045666 146.050861 
L 436.764482 146.506716 
L 441.483298 145.626307 
L 446.202114 144.086332 
L 450.92093 144.505302 
L 455.639746 142.63448 
L 460.358562 143.502631 
L 465.077378 143.999106 
L 469.796195 144.370118 
L 474.515011 142.439842 
L 479.233827 141.658693 
L 483.952643 142.495994 
L 488.671459 141.732876 
L 493.390275 143.900698 
L 498.109091 145.580427 
" clip-path="url(#p924137e432)" style="fill: none; stroke: #8b0a50; stroke-width: 2; stroke-linecap: round"/>
   </g>
   <g id="line2d_15">
    <path d="M 92.290909 338.088163 
L 97.009725 333.55241 
L 101.728541 330.177125 
L 106.447357 325.632076 
L 111.166173 321.210475 
L 115.884989 316.980045 
L 120.603805 313.228694 
L 125.322622 308.486311 
L 130.041438 303.643195 
L 134.760254 297.775236 
L 139.47907 292.874167 
L 144.197886 290.518203 
L 148.916702 290.220846 
L 153.635518 291.931098 
L 158.354334 294.234736 
L 163.07315 297.284217 
L 167.791966 300.163175 
L 172.510782 303.115355 
L 177.229598 306.247987 
L 181.948414 308.652412 
L 186.66723 310.941484 
L 191.386047 313.130819 
L 196.104863 314.85789 
L 200.823679 316.013942 
L 205.542495 317.116349 
L 210.261311 318.103667 
L 214.980127 318.96954 
L 219.698943 319.506202 
L 224.417759 320.242189 
L 229.136575 320.847156 
L 233.855391 321.062323 
L 238.574207 321.461442 
L 243.293023 321.244253 
L 248.011839 321.218675 
L 252.730655 321.1813 
L 257.449471 321.585297 
L 262.168288 321.423901 
L 266.887104 321.395469 
L 271.60592 321.18398 
L 276.324736 321.229275 
L 281.043552 321.394021 
L 285.762368 321.321267 
L 290.481184 321.309513 
L 295.2 321.41782 
L 299.918816 321.507061 
L 304.637632 321.757135 
L 309.356448 321.633191 
L 314.075264 321.625514 
L 318.79408 321.665421 
L 323.512896 321.632024 
L 328.231712 321.812196 
L 332.950529 321.925199 
L 337.669345 321.819744 
L 342.388161 322.084318 
L 347.106977 322.392563 
L 351.825793 322.772214 
L 356.544609 323.193146 
L 361.263425 323.740851 
L 365.982241 324.030505 
L 370.701057 324.640625 
L 375.419873 325.534763 
L 380.138689 326.424639 
L 384.857505 326.621019 
L 389.576321 327.103128 
L 394.295137 327.317395 
L 399.013953 327.516795 
L 403.73277 327.896052 
L 408.451586 328.32889 
L 413.170402 328.618039 
L 417.889218 328.707664 
L 422.608034 328.806009 
L 427.32685 328.760992 
L 432.045666 328.825405 
L 436.764482 328.751185 
L 441.483298 328.891249 
L 446.202114 329.018503 
L 450.92093 329.321533 
L 455.639746 329.358666 
L 460.358562 329.562658 
L 465.077378 329.683997 
L 469.796195 329.831483 
L 474.515011 330.026527 
L 479.233827 330.287788 
L 483.952643 330.34051 
L 488.671459 330.181131 
L 493.390275 330.214976 
L 498.109091 330.272607 
" clip-path="url(#p924137e432)" style="fill: none; stroke-dasharray: 5.55,2.4; stroke-dashoffset: 0; stroke: #8b0a50; stroke-opacity: 0.8; stroke-width: 1.5"/>
   </g>
   <g id="line2d_16">
    <path d="M 139.47907 378 
L 139.47907 51.84 
" clip-path="url(#p924137e432)" style="fill: none; stroke-dasharray: 5.55,2.4; stroke-dashoffset: 0; stroke: #808080; stroke-opacity: 0.7; stroke-width: 1.5"/>
   </g>
   <g id="line2d_17">
    <path d="M 375.419873 378 
L 375.419873 51.84 
" clip-path="url(#p924137e432)" style="fill: none; stroke-dasharray: 5.55,2.4; stroke-dashoffset: 0; stroke: #808080; stroke-opacity: 0.7; stroke-width: 1.5"/>
   </g>
   <g id="patch_3">
    <path d="M 72 378 
L 72 51.84 
" style="fill: none; stroke: #000000; stroke-width: 1.5; stroke-linejoin: miter; stroke-linecap: square"/>
   </g>
   <g id="patch_4">
    <path d="M 72 378 
L 518.4 378 
" style="fill: none; stroke: #000000; stroke-width: 1.5; stroke-linejoin: miter; stroke-linecap: square"/>
   </g>
   <g id="text_14">
    <!-- L2_sactemporal -->
    <g style="fill: #262626" transform="translate(238.093359 45.84) scale(0.15 -0.15)">
     <defs>
      <path id="Arial-BoldMT-4c" d="M 491 0 
L 491 4544 
L 1416 4544 
L 1416 772 
L 3716 772 
L 3716 0 
L 491 0 
z
" transform="scale(0.015625)"/>
      <path id="Arial-BoldMT-32" d="M 3238 816 
L 3238 0 
L 159 0 
Q 209 463 459 877 
Q 709 1291 1447 1975 
Q 2041 2528 2175 2725 
Q 2356 2997 2356 3263 
Q 2356 3556 2198 3714 
Q 2041 3872 1763 3872 
Q 1488 3872 1325 3706 
Q 1163 3541 1138 3156 
L 263 3244 
Q 341 3969 753 4284 
Q 1166 4600 1784 4600 
Q 2463 4600 2850 4234 
Q 3238 3869 3238 3325 
Q 3238 3016 3127 2736 
Q 3016 2456 2775 2150 
Q 2616 1947 2200 1565 
Q 1784 1184 1673 1059 
Q 1563 934 1494 816 
L 3238 816 
z
" transform="scale(0.015625)"/>
      <path id="Arial-BoldMT-5f" d="M -59 -1266 
L -59 -697 
L 3591 -697 
L 3591 -1266 
L -59 -1266 
z
" transform="scale(0.015625)"/>
      <path id="Arial-BoldMT-73" d="M 150 947 
L 1031 1081 
Q 1088 825 1259 692 
Q 1431 559 1741 559 
Q 2081 559 2253 684 
Q 2369 772 2369 919 
Q 2369 1019 2306 1084 
Q 2241 1147 2013 1200 
Q 950 1434 666 1628 
Q 272 1897 272 2375 
Q 272 2806 612 3100 
Q 953 3394 1669 3394 
Q 2350 3394 2681 3172 
Q 3013 2950 3138 2516 
L 2309 2363 
Q 2256 2556 2107 2659 
Q 1959 2763 1684 2763 
Q 1338 2763 1188 2666 
Q 1088 2597 1088 2488 
Q 1088 2394 1175 2328 
Q 1294 2241 1995 2081 
Q 2697 1922 2975 1691 
Q 3250 1456 3250 1038 
Q 3250 581 2869 253 
Q 2488 -75 1741 -75 
Q 1063 -75 667 200 
Q 272 475 150 947 
z
" transform="scale(0.015625)"/>
      <path id="Arial-BoldMT-61" d="M 1116 2306 
L 319 2450 
Q 453 2931 781 3162 
Q 1109 3394 1756 3394 
Q 2344 3394 2631 3255 
Q 2919 3116 3036 2902 
Q 3153 2688 3153 2116 
L 3144 1091 
Q 3144 653 3186 445 
Q 3228 238 3344 0 
L 2475 0 
Q 2441 88 2391 259 
Q 2369 338 2359 363 
Q 2134 144 1878 34 
Q 1622 -75 1331 -75 
Q 819 -75 523 203 
Q 228 481 228 906 
Q 228 1188 362 1408 
Q 497 1628 739 1745 
Q 981 1863 1438 1950 
Q 2053 2066 2291 2166 
L 2291 2253 
Q 2291 2506 2166 2614 
Q 2041 2722 1694 2722 
Q 1459 2722 1328 2630 
Q 1197 2538 1116 2306 
z
M 2291 1594 
Q 2122 1538 1756 1459 
Q 1391 1381 1278 1306 
Q 1106 1184 1106 997 
Q 1106 813 1243 678 
Q 1381 544 1594 544 
Q 1831 544 2047 700 
Q 2206 819 2256 991 
Q 2291 1103 2291 1419 
L 2291 1594 
z
" transform="scale(0.015625)"/>
      <path id="Arial-BoldMT-63" d="M 3353 2338 
L 2488 2181 
Q 2444 2441 2289 2572 
Q 2134 2703 1888 2703 
Q 1559 2703 1364 2476 
Q 1169 2250 1169 1719 
Q 1169 1128 1367 884 
Q 1566 641 1900 641 
Q 2150 641 2309 783 
Q 2469 925 2534 1272 
L 3397 1125 
Q 3263 531 2881 228 
Q 2500 -75 1859 -75 
Q 1131 -75 698 384 
Q 266 844 266 1656 
Q 266 2478 700 2936 
Q 1134 3394 1875 3394 
Q 2481 3394 2839 3133 
Q 3197 2872 3353 2338 
z
" transform="scale(0.015625)"/>
      <path id="Arial-BoldMT-74" d="M 1981 3319 
L 1981 2619 
L 1381 2619 
L 1381 1281 
Q 1381 875 1398 808 
Q 1416 741 1477 697 
Q 1538 653 1625 653 
Q 1747 653 1978 738 
L 2053 56 
Q 1747 -75 1359 -75 
Q 1122 -75 931 4 
Q 741 84 652 211 
Q 563 338 528 553 
Q 500 706 500 1172 
L 500 2619 
L 97 2619 
L 97 3319 
L 500 3319 
L 500 3978 
L 1381 4491 
L 1381 3319 
L 1981 3319 
z
" transform="scale(0.015625)"/>
      <path id="Arial-BoldMT-65" d="M 2381 1056 
L 3256 909 
Q 3088 428 2723 176 
Q 2359 -75 1813 -75 
Q 947 -75 531 491 
Q 203 944 203 1634 
Q 203 2459 634 2926 
Q 1066 3394 1725 3394 
Q 2466 3394 2894 2905 
Q 3322 2416 3303 1406 
L 1103 1406 
Q 1113 1016 1316 798 
Q 1519 581 1822 581 
Q 2028 581 2168 693 
Q 2309 806 2381 1056 
z
M 2431 1944 
Q 2422 2325 2234 2523 
Q 2047 2722 1778 2722 
Q 1491 2722 1303 2513 
Q 1116 2303 1119 1944 
L 2431 1944 
z
" transform="scale(0.015625)"/>
      <path id="Arial-BoldMT-6d" d="M 394 3319 
L 1203 3319 
L 1203 2866 
Q 1638 3394 2238 3394 
Q 2556 3394 2790 3262 
Q 3025 3131 3175 2866 
Q 3394 3131 3647 3262 
Q 3900 3394 4188 3394 
Q 4553 3394 4806 3245 
Q 5059 3097 5184 2809 
Q 5275 2597 5275 2122 
L 5275 0 
L 4397 0 
L 4397 1897 
Q 4397 2391 4306 2534 
Q 4184 2722 3931 2722 
Q 3747 2722 3584 2609 
Q 3422 2497 3350 2280 
Q 3278 2063 3278 1594 
L 3278 0 
L 2400 0 
L 2400 1819 
Q 2400 2303 2353 2443 
Q 2306 2584 2207 2653 
Q 2109 2722 1941 2722 
Q 1738 2722 1575 2612 
Q 1413 2503 1342 2297 
Q 1272 2091 1272 1613 
L 1272 0 
L 394 0 
L 394 3319 
z
" transform="scale(0.015625)"/>
      <path id="Arial-BoldMT-70" d="M 434 3319 
L 1253 3319 
L 1253 2831 
Q 1413 3081 1684 3237 
Q 1956 3394 2288 3394 
Q 2866 3394 3269 2941 
Q 3672 2488 3672 1678 
Q 3672 847 3265 386 
Q 2859 -75 2281 -75 
Q 2006 -75 1782 34 
Q 1559 144 1313 409 
L 1313 -1263 
L 434 -1263 
L 434 3319 
z
M 1303 1716 
Q 1303 1156 1525 889 
Q 1747 622 2066 622 
Q 2372 622 2575 867 
Q 2778 1113 2778 1672 
Q 2778 2194 2568 2447 
Q 2359 2700 2050 2700 
Q 1728 2700 1515 2451 
Q 1303 2203 1303 1716 
z
" transform="scale(0.015625)"/>
      <path id="Arial-BoldMT-6f" d="M 256 1706 
Q 256 2144 472 2553 
Q 688 2963 1083 3178 
Q 1478 3394 1966 3394 
Q 2719 3394 3200 2905 
Q 3681 2416 3681 1669 
Q 3681 916 3195 420 
Q 2709 -75 1972 -75 
Q 1516 -75 1102 131 
Q 688 338 472 736 
Q 256 1134 256 1706 
z
M 1156 1659 
Q 1156 1166 1390 903 
Q 1625 641 1969 641 
Q 2313 641 2545 903 
Q 2778 1166 2778 1666 
Q 2778 2153 2545 2415 
Q 2313 2678 1969 2678 
Q 1625 2678 1390 2415 
Q 1156 2153 1156 1659 
z
" transform="scale(0.015625)"/>
      <path id="Arial-BoldMT-72" d="M 1300 0 
L 422 0 
L 422 3319 
L 1238 3319 
L 1238 2847 
Q 1447 3181 1614 3287 
Q 1781 3394 1994 3394 
Q 2294 3394 2572 3228 
L 2300 2463 
Q 2078 2606 1888 2606 
Q 1703 2606 1575 2504 
Q 1447 2403 1373 2137 
Q 1300 1872 1300 1025 
L 1300 0 
z
" transform="scale(0.015625)"/>
      <path id="Arial-BoldMT-6c" d="M 459 0 
L 459 4581 
L 1338 4581 
L 1338 0 
L 459 0 
z
" transform="scale(0.015625)"/>
     </defs>
     <use xlink:href="#Arial-BoldMT-4c"/>
     <use xlink:href="#Arial-BoldMT-32" x="61.083984"/>
     <use xlink:href="#Arial-BoldMT-5f" x="116.699219"/>
     <use xlink:href="#Arial-BoldMT-73" x="172.314453"/>
     <use xlink:href="#Arial-BoldMT-61" x="227.929688"/>
     <use xlink:href="#Arial-BoldMT-63" x="283.544922"/>
     <use xlink:href="#Arial-BoldMT-74" x="339.160156"/>
     <use xlink:href="#Arial-BoldMT-65" x="372.460938"/>
     <use xlink:href="#Arial-BoldMT-6d" x="428.076172"/>
     <use xlink:href="#Arial-BoldMT-70" x="516.992188"/>
     <use xlink:href="#Arial-BoldMT-6f" x="578.076172"/>
     <use xlink:href="#Arial-BoldMT-72" x="639.160156"/>
     <use xlink:href="#Arial-BoldMT-61" x="678.076172"/>
     <use xlink:href="#Arial-BoldMT-6c" x="733.691406"/>
    </g>
   </g>
  </g>
 </g>
 <defs>
  <clipPath id="p924137e432">
   <rect x="72" y="51.84" width="446.4" height="326.16"/>
  </clipPath>
 </defs>
</svg>
