<?xml version="1.0" encoding="utf-8" standalone="no"?>
<!DOCTYPE svg PUBLIC "-//W3C//DTD SVG 1.1//EN"
  "http://www.w3.org/Graphics/SVG/1.1/DTD/svg11.dtd">
<svg xmlns:xlink="http://www.w3.org/1999/xlink" width="576pt" height="432pt" viewBox="0 0 576 432" xmlns="http://www.w3.org/2000/svg" version="1.1">
 <metadata>
  <rdf:RDF xmlns:dc="http://purl.org/dc/elements/1.1/" xmlns:cc="http://creativecommons.org/ns#" xmlns:rdf="http://www.w3.org/1999/02/22-rdf-syntax-ns#">
   <cc:Work>
    <dc:type rdf:resource="http://purl.org/dc/dcmitype/StillImage"/>
    <dc:date>2025-11-30T10:10:01.281983</dc:date>
    <dc:format>image/svg+xml</dc:format>
    <dc:creator>
     <cc:Agent>
      <dc:title>Matplotlib v3.9.4, https://matplotlib.org/</dc:title>
     </cc:Agent>
    </dc:creator>
   </cc:Work>
  </rdf:RDF>
 </metadata>
 <defs>
  <style type="text/css">*{stroke-linejoin: round; stroke-linecap: butt}</style>
 </defs>
 <g id="figure_1">
  <g id="patch_1">
   <path d="M 0 432 
L 576 432 
L 576 0 
L 0 0 
z
" style="fill: #ffffff"/>
  </g>
  <g id="axes_1">
   <g id="patch_2">
    <path d="M 72 378 
L 518.4 378 
L 518.4 51.84 
L 72 51.84 
L 72 378 
z
" style="fill: none"/>
   </g>
   <g id="matplotlib.axis_1">
    <g id="xtick_1">
     <g id="line2d_1">
      <defs>
       <path id="mcfc1aac762" d="M 0 0 
L 0 5 
" style="stroke: #262626; stroke-width: 1.5"/>
      </defs>
      <g>
       <use xlink:href="#mcfc1aac762" x="80.493869" y="378" style="fill: #262626; stroke: #262626; stroke-width: 1.5"/>
      </g>
     </g>
     <g id="text_1">
      <!-- −250 -->
      <g style="fill: #262626" transform="translate(63.601291 397.236719) scale(0.15 -0.15)">
       <defs>
        <path id="ArialMT-2212" d="M 3381 1997 
L 356 1997 
L 356 2522 
L 3381 2522 
L 3381 1997 
z
" transform="scale(0.015625)"/>
        <path id="ArialMT-32" d="M 3222 541 
L 3222 0 
L 194 0 
Q 188 203 259 391 
Q 375 700 629 1000 
Q 884 1300 1366 1694 
Q 2113 2306 2375 2664 
Q 2638 3022 2638 3341 
Q 2638 3675 2398 3904 
Q 2159 4134 1775 4134 
Q 1369 4134 1125 3890 
Q 881 3647 878 3216 
L 300 3275 
Q 359 3922 746 4261 
Q 1134 4600 1788 4600 
Q 2447 4600 2831 4234 
Q 3216 3869 3216 3328 
Q 3216 3053 3103 2787 
Q 2991 2522 2730 2228 
Q 2469 1934 1863 1422 
Q 1356 997 1212 845 
Q 1069 694 975 541 
L 3222 541 
z
" transform="scale(0.015625)"/>
        <path id="ArialMT-35" d="M 266 1200 
L 856 1250 
Q 922 819 1161 601 
Q 1400 384 1738 384 
Q 2144 384 2425 690 
Q 2706 997 2706 1503 
Q 2706 1984 2436 2262 
Q 2166 2541 1728 2541 
Q 1456 2541 1237 2417 
Q 1019 2294 894 2097 
L 366 2166 
L 809 4519 
L 3088 4519 
L 3088 3981 
L 1259 3981 
L 1013 2750 
Q 1425 3038 1878 3038 
Q 2478 3038 2890 2622 
Q 3303 2206 3303 1553 
Q 3303 931 2941 478 
Q 2500 -78 1738 -78 
Q 1113 -78 717 272 
Q 322 622 266 1200 
z
" transform="scale(0.015625)"/>
        <path id="ArialMT-30" d="M 266 2259 
Q 266 3072 433 3567 
Q 600 4063 929 4331 
Q 1259 4600 1759 4600 
Q 2128 4600 2406 4451 
Q 2684 4303 2865 4023 
Q 3047 3744 3150 3342 
Q 3253 2941 3253 2259 
Q 3253 1453 3087 958 
Q 2922 463 2592 192 
Q 2263 -78 1759 -78 
Q 1097 -78 719 397 
Q 266 969 266 2259 
z
M 844 2259 
Q 844 1131 1108 757 
Q 1372 384 1759 384 
Q 2147 384 2411 759 
Q 2675 1134 2675 2259 
Q 2675 3391 2411 3762 
Q 2147 4134 1753 4134 
Q 1366 4134 1134 3806 
Q 844 3388 844 2259 
z
" transform="scale(0.015625)"/>
       </defs>
       <use xlink:href="#ArialMT-2212"/>
       <use xlink:href="#ArialMT-32" x="58.398438"/>
       <use xlink:href="#ArialMT-35" x="114.013672"/>
       <use xlink:href="#ArialMT-30" x="169.628906"/>
      </g>
     </g>
    </g>
    <g id="xtick_2">
     <g id="line2d_2">
      <g>
       <use xlink:href="#mcfc1aac762" x="139.47907" y="378" style="fill: #262626; stroke: #262626; stroke-width: 1.5"/>
      </g>
     </g>
     <g id="text_2">
      <!-- 0 -->
      <g style="fill: #262626" transform="translate(135.308367 397.236719) scale(0.15 -0.15)">
       <use xlink:href="#ArialMT-30"/>
      </g>
     </g>
    </g>
    <g id="xtick_3">
     <g id="line2d_3">
      <g>
       <use xlink:href="#mcfc1aac762" x="198.464271" y="378" style="fill: #262626; stroke: #262626; stroke-width: 1.5"/>
      </g>
     </g>
     <g id="text_3">
      <!-- 250 -->
      <g style="fill: #262626" transform="translate(185.952161 397.236719) scale(0.15 -0.15)">
       <use xlink:href="#ArialMT-32"/>
       <use xlink:href="#ArialMT-35" x="55.615234"/>
       <use xlink:href="#ArialMT-30" x="111.230469"/>
      </g>
     </g>
    </g>
    <g id="xtick_4">
     <g id="line2d_4">
      <g>
       <use xlink:href="#mcfc1aac762" x="257.449471" y="378" style="fill: #262626; stroke: #262626; stroke-width: 1.5"/>
      </g>
     </g>
     <g id="text_4">
      <!-- 500 -->
      <g style="fill: #262626" transform="translate(244.937362 397.236719) scale(0.15 -0.15)">
       <use xlink:href="#ArialMT-35"/>
       <use xlink:href="#ArialMT-30" x="55.615234"/>
       <use xlink:href="#ArialMT-30" x="111.230469"/>
      </g>
     </g>
    </g>
    <g id="xtick_5">
     <g id="line2d_5">
      <g>
       <use xlink:href="#mcfc1aac762" x="316.434672" y="378" style="fill: #262626; stroke: #262626; stroke-width: 1.5"/>
      </g>
     </g>
     <g id="text_5">
      <!-- 750 -->
      <g style="fill: #262626" transform="translate(303.922563 397.236719) scale(0.15 -0.15)">
       <defs>
        <path id="ArialMT-37" d="M 303 3981 
L 303 4522 
L 3269 4522 
L 3269 4084 
Q 2831 3619 2401 2847 
Q 1972 2075 1738 1259 
Q 1569 684 1522 0 
L 944 0 
Q 953 541 1156 1306 
Q 1359 2072 1739 2783 
Q 2119 3494 2547 3981 
L 303 3981 
z
" transform="scale(0.015625)"/>
       </defs>
       <use xlink:href="#ArialMT-37"/>
       <use xlink:href="#ArialMT-35" x="55.615234"/>
       <use xlink:href="#ArialMT-30" x="111.230469"/>
      </g>
     </g>
    </g>
    <g id="xtick_6">
     <g id="line2d_6">
      <g>
       <use xlink:href="#mcfc1aac762" x="375.419873" y="378" style="fill: #262626; stroke: #262626; stroke-width: 1.5"/>
      </g>
     </g>
     <g id="text_6">
      <!-- 1000 -->
      <g style="fill: #262626" transform="translate(358.737061 397.236719) scale(0.15 -0.15)">
       <defs>
        <path id="ArialMT-31" d="M 2384 0 
L 1822 0 
L 1822 3584 
Q 1619 3391 1289 3197 
Q 959 3003 697 2906 
L 697 3450 
Q 1169 3672 1522 3987 
Q 1875 4303 2022 4600 
L 2384 4600 
L 2384 0 
z
" transform="scale(0.015625)"/>
       </defs>
       <use xlink:href="#ArialMT-31"/>
       <use xlink:href="#ArialMT-30" x="55.615234"/>
       <use xlink:href="#ArialMT-30" x="111.230469"/>
       <use xlink:href="#ArialMT-30" x="166.845703"/>
      </g>
     </g>
    </g>
    <g id="xtick_7">
     <g id="line2d_7">
      <g>
       <use xlink:href="#mcfc1aac762" x="434.405074" y="378" style="fill: #262626; stroke: #262626; stroke-width: 1.5"/>
      </g>
     </g>
     <g id="text_7">
      <!-- 1250 -->
      <g style="fill: #262626" transform="translate(417.722261 397.236719) scale(0.15 -0.15)">
       <use xlink:href="#ArialMT-31"/>
       <use xlink:href="#ArialMT-32" x="55.615234"/>
       <use xlink:href="#ArialMT-35" x="111.230469"/>
       <use xlink:href="#ArialMT-30" x="166.845703"/>
      </g>
     </g>
    </g>
    <g id="xtick_8">
     <g id="line2d_8">
      <g>
       <use xlink:href="#mcfc1aac762" x="493.390275" y="378" style="fill: #262626; stroke: #262626; stroke-width: 1.5"/>
      </g>
     </g>
     <g id="text_8">
      <!-- 1500 -->
      <g style="fill: #262626" transform="translate(476.707462 397.236719) scale(0.15 -0.15)">
       <use xlink:href="#ArialMT-31"/>
       <use xlink:href="#ArialMT-35" x="55.615234"/>
       <use xlink:href="#ArialMT-30" x="111.230469"/>
       <use xlink:href="#ArialMT-30" x="166.845703"/>
      </g>
     </g>
    </g>
    <g id="text_9">
     <!-- time -->
     <g style="fill: #262626" transform="translate(281.032031 414.954687) scale(0.15 -0.15)">
      <defs>
       <path id="ArialMT-74" d="M 1650 503 
L 1731 6 
Q 1494 -44 1306 -44 
Q 1000 -44 831 53 
Q 663 150 594 308 
Q 525 466 525 972 
L 525 2881 
L 113 2881 
L 113 3319 
L 525 3319 
L 525 4141 
L 1084 4478 
L 1084 3319 
L 1650 3319 
L 1650 2881 
L 1084 2881 
L 1084 941 
Q 1084 700 1114 631 
Q 1144 563 1211 522 
Q 1278 481 1403 481 
Q 1497 481 1650 503 
z
" transform="scale(0.015625)"/>
       <path id="ArialMT-69" d="M 425 3934 
L 425 4581 
L 988 4581 
L 988 3934 
L 425 3934 
z
M 425 0 
L 425 3319 
L 988 3319 
L 988 0 
L 425 0 
z
" transform="scale(0.015625)"/>
       <path id="ArialMT-6d" d="M 422 0 
L 422 3319 
L 925 3319 
L 925 2853 
Q 1081 3097 1340 3245 
Q 1600 3394 1931 3394 
Q 2300 3394 2536 3241 
Q 2772 3088 2869 2813 
Q 3263 3394 3894 3394 
Q 4388 3394 4653 3120 
Q 4919 2847 4919 2278 
L 4919 0 
L 4359 0 
L 4359 2091 
Q 4359 2428 4304 2576 
Q 4250 2725 4106 2815 
Q 3963 2906 3769 2906 
Q 3419 2906 3187 2673 
Q 2956 2441 2956 1928 
L 2956 0 
L 2394 0 
L 2394 2156 
Q 2394 2531 2256 2718 
Q 2119 2906 1806 2906 
Q 1569 2906 1367 2781 
Q 1166 2656 1075 2415 
Q 984 2175 984 1722 
L 984 0 
L 422 0 
z
" transform="scale(0.015625)"/>
       <path id="ArialMT-65" d="M 2694 1069 
L 3275 997 
Q 3138 488 2766 206 
Q 2394 -75 1816 -75 
Q 1088 -75 661 373 
Q 234 822 234 1631 
Q 234 2469 665 2931 
Q 1097 3394 1784 3394 
Q 2450 3394 2872 2941 
Q 3294 2488 3294 1666 
Q 3294 1616 3291 1516 
L 816 1516 
Q 847 969 1125 678 
Q 1403 388 1819 388 
Q 2128 388 2347 550 
Q 2566 713 2694 1069 
z
M 847 1978 
L 2700 1978 
Q 2663 2397 2488 2606 
Q 2219 2931 1791 2931 
Q 1403 2931 1139 2672 
Q 875 2413 847 1978 
z
" transform="scale(0.015625)"/>
      </defs>
      <use xlink:href="#ArialMT-74"/>
      <use xlink:href="#ArialMT-69" x="27.783203"/>
      <use xlink:href="#ArialMT-6d" x="50"/>
      <use xlink:href="#ArialMT-65" x="133.300781"/>
     </g>
    </g>
   </g>
   <g id="matplotlib.axis_2">
    <g id="ytick_1">
     <g id="line2d_9">
      <defs>
       <path id="m7fffc1fd64" d="M 0 0 
L -5 0 
" style="stroke: #262626; stroke-width: 1.5"/>
      </defs>
      <g>
       <use xlink:href="#m7fffc1fd64" x="72" y="343.285725" style="fill: #262626; stroke: #262626; stroke-width: 1.5"/>
      </g>
     </g>
     <g id="text_10">
      <!-- 0.0 -->
      <g style="fill: #262626" transform="translate(42.65 348.654085) scale(0.15 -0.15)">
       <defs>
        <path id="ArialMT-2e" d="M 581 0 
L 581 641 
L 1222 641 
L 1222 0 
L 581 0 
z
" transform="scale(0.015625)"/>
       </defs>
       <use xlink:href="#ArialMT-30"/>
       <use xlink:href="#ArialMT-2e" x="55.615234"/>
       <use xlink:href="#ArialMT-30" x="83.398438"/>
      </g>
     </g>
    </g>
    <g id="ytick_2">
     <g id="line2d_10">
      <g>
       <use xlink:href="#m7fffc1fd64" x="72" y="286.22125" style="fill: #262626; stroke: #262626; stroke-width: 1.5"/>
      </g>
     </g>
     <g id="text_11">
      <!-- 0.1 -->
      <g style="fill: #262626" transform="translate(42.65 291.589609) scale(0.15 -0.15)">
       <use xlink:href="#ArialMT-30"/>
       <use xlink:href="#ArialMT-2e" x="55.615234"/>
       <use xlink:href="#ArialMT-31" x="83.398438"/>
      </g>
     </g>
    </g>
    <g id="ytick_3">
     <g id="line2d_11">
      <g>
       <use xlink:href="#m7fffc1fd64" x="72" y="229.156775" style="fill: #262626; stroke: #262626; stroke-width: 1.5"/>
      </g>
     </g>
     <g id="text_12">
      <!-- 0.2 -->
      <g style="fill: #262626" transform="translate(42.65 234.525134) scale(0.15 -0.15)">
       <use xlink:href="#ArialMT-30"/>
       <use xlink:href="#ArialMT-2e" x="55.615234"/>
       <use xlink:href="#ArialMT-32" x="83.398438"/>
      </g>
     </g>
    </g>
    <g id="text_13">
     <!-- firing rate -->
     <g style="fill: #262626" transform="translate(35.492969 246.180937) rotate(-90) scale(0.15 -0.15)">
      <defs>
       <path id="ArialMT-66" d="M 556 0 
L 556 2881 
L 59 2881 
L 59 3319 
L 556 3319 
L 556 3672 
Q 556 4006 616 4169 
Q 697 4388 901 4523 
Q 1106 4659 1475 4659 
Q 1713 4659 2000 4603 
L 1916 4113 
Q 1741 4144 1584 4144 
Q 1328 4144 1222 4034 
Q 1116 3925 1116 3625 
L 1116 3319 
L 1763 3319 
L 1763 2881 
L 1116 2881 
L 1116 0 
L 556 0 
z
" transform="scale(0.015625)"/>
       <path id="ArialMT-72" d="M 416 0 
L 416 3319 
L 922 3319 
L 922 2816 
Q 1116 3169 1280 3281 
Q 1444 3394 1641 3394 
Q 1925 3394 2219 3213 
L 2025 2691 
Q 1819 2813 1613 2813 
Q 1428 2813 1281 2702 
Q 1134 2591 1072 2394 
Q 978 2094 978 1738 
L 978 0 
L 416 0 
z
" transform="scale(0.015625)"/>
       <path id="ArialMT-6e" d="M 422 0 
L 422 3319 
L 928 3319 
L 928 2847 
Q 1294 3394 1984 3394 
Q 2284 3394 2536 3286 
Q 2788 3178 2913 3003 
Q 3038 2828 3088 2588 
Q 3119 2431 3119 2041 
L 3119 0 
L 2556 0 
L 2556 2019 
Q 2556 2363 2490 2533 
Q 2425 2703 2258 2804 
Q 2091 2906 1866 2906 
Q 1506 2906 1245 2678 
Q 984 2450 984 1813 
L 984 0 
L 422 0 
z
" transform="scale(0.015625)"/>
       <path id="ArialMT-67" d="M 319 -275 
L 866 -356 
Q 900 -609 1056 -725 
Q 1266 -881 1628 -881 
Q 2019 -881 2231 -725 
Q 2444 -569 2519 -288 
Q 2563 -116 2559 434 
Q 2191 0 1641 0 
Q 956 0 581 494 
Q 206 988 206 1678 
Q 206 2153 378 2554 
Q 550 2956 876 3175 
Q 1203 3394 1644 3394 
Q 2231 3394 2613 2919 
L 2613 3319 
L 3131 3319 
L 3131 450 
Q 3131 -325 2973 -648 
Q 2816 -972 2473 -1159 
Q 2131 -1347 1631 -1347 
Q 1038 -1347 672 -1080 
Q 306 -813 319 -275 
z
M 784 1719 
Q 784 1066 1043 766 
Q 1303 466 1694 466 
Q 2081 466 2343 764 
Q 2606 1063 2606 1700 
Q 2606 2309 2336 2618 
Q 2066 2928 1684 2928 
Q 1309 2928 1046 2623 
Q 784 2319 784 1719 
z
" transform="scale(0.015625)"/>
       <path id="ArialMT-20" transform="scale(0.015625)"/>
       <path id="ArialMT-61" d="M 2588 409 
Q 2275 144 1986 34 
Q 1697 -75 1366 -75 
Q 819 -75 525 192 
Q 231 459 231 875 
Q 231 1119 342 1320 
Q 453 1522 633 1644 
Q 813 1766 1038 1828 
Q 1203 1872 1538 1913 
Q 2219 1994 2541 2106 
Q 2544 2222 2544 2253 
Q 2544 2597 2384 2738 
Q 2169 2928 1744 2928 
Q 1347 2928 1158 2789 
Q 969 2650 878 2297 
L 328 2372 
Q 403 2725 575 2942 
Q 747 3159 1072 3276 
Q 1397 3394 1825 3394 
Q 2250 3394 2515 3294 
Q 2781 3194 2906 3042 
Q 3031 2891 3081 2659 
Q 3109 2516 3109 2141 
L 3109 1391 
Q 3109 606 3145 398 
Q 3181 191 3288 0 
L 2700 0 
Q 2613 175 2588 409 
z
M 2541 1666 
Q 2234 1541 1622 1453 
Q 1275 1403 1131 1340 
Q 988 1278 909 1158 
Q 831 1038 831 891 
Q 831 666 1001 516 
Q 1172 366 1500 366 
Q 1825 366 2078 508 
Q 2331 650 2450 897 
Q 2541 1088 2541 1459 
L 2541 1666 
z
" transform="scale(0.015625)"/>
      </defs>
      <use xlink:href="#ArialMT-66"/>
      <use xlink:href="#ArialMT-69" x="27.783203"/>
      <use xlink:href="#ArialMT-72" x="50"/>
      <use xlink:href="#ArialMT-69" x="83.300781"/>
      <use xlink:href="#ArialMT-6e" x="105.517578"/>
      <use xlink:href="#ArialMT-67" x="161.132812"/>
      <use xlink:href="#ArialMT-20" x="216.748047"/>
      <use xlink:href="#ArialMT-72" x="244.53125"/>
      <use xlink:href="#ArialMT-61" x="277.832031"/>
      <use xlink:href="#ArialMT-74" x="333.447266"/>
      <use xlink:href="#ArialMT-65" x="361.230469"/>
     </g>
    </g>
   </g>
   <g id="PolyCollection_1">
    <defs>
     <path id="me35cf127fb" d="M 92.290909 -93.03125 
L 92.290909 -88.167948 
L 97.009725 -88.194208 
L 101.728541 -88.152027 
L 106.447357 -90.184768 
L 111.166173 -88.507469 
L 115.884989 -89.269941 
L 120.603805 -88.686607 
L 125.322622 -89.88944 
L 130.041438 -88.721429 
L 134.760254 -88.662265 
L 139.47907 -93.728749 
L 144.197886 -93.388868 
L 148.916702 -96.671817 
L 153.635518 -98.828427 
L 158.354334 -101.288865 
L 163.07315 -100.764789 
L 167.791966 -106.208097 
L 172.510782 -110.384256 
L 177.229598 -116.787322 
L 181.948414 -124.377342 
L 186.66723 -131.960452 
L 191.386047 -138.957141 
L 196.104863 -147.675285 
L 200.823679 -152.491704 
L 205.542495 -158.713345 
L 210.261311 -163.385003 
L 214.980127 -174.132929 
L 219.698943 -176.879048 
L 224.417759 -183.679191 
L 229.136575 -192.949173 
L 233.855391 -197.115543 
L 238.574207 -199.595523 
L 243.293023 -201.445166 
L 248.011839 -209.705098 
L 252.730655 -214.142973 
L 257.449471 -217.973623 
L 262.168288 -215.967908 
L 266.887104 -223.837859 
L 271.60592 -227.49032 
L 276.324736 -232.877025 
L 281.043552 -233.618653 
L 285.762368 -234.151196 
L 290.481184 -238.696993 
L 295.2 -239.261745 
L 299.918816 -241.55318 
L 304.637632 -242.660707 
L 309.356448 -243.8997 
L 314.075264 -243.64123 
L 318.79408 -245.178937 
L 323.512896 -253.339869 
L 328.231712 -259.940056 
L 332.950529 -260.891578 
L 337.669345 -263.9069 
L 342.388161 -266.930052 
L 347.106977 -273.234959 
L 351.825793 -276.894541 
L 356.544609 -279.87251 
L 361.263425 -285.52643 
L 365.982241 -287.157709 
L 370.701057 -283.650516 
L 375.419873 -273.999458 
L 380.138689 -305.296135 
L 384.857505 -304.394649 
L 389.576321 -282.783154 
L 394.295137 -264.780608 
L 399.013953 -261.028221 
L 403.73277 -264.742371 
L 408.451586 -268.082114 
L 413.170402 -273.461671 
L 417.889218 -277.70789 
L 422.608034 -276.386496 
L 427.32685 -272.471243 
L 432.045666 -267.869238 
L 436.764482 -265.785995 
L 441.483298 -266.807255 
L 446.202114 -270.103907 
L 450.92093 -273.431342 
L 455.639746 -272.635978 
L 460.358562 -272.060812 
L 465.077378 -268.10268 
L 469.796195 -265.460389 
L 474.515011 -267.210972 
L 479.233827 -272.774549 
L 483.952643 -275.514095 
L 488.671459 -275.654398 
L 493.390275 -274.846772 
L 498.109091 -268.568654 
L 498.109091 -330.668222 
L 498.109091 -330.668222 
L 493.390275 -333.39992 
L 488.671459 -333.360193 
L 483.952643 -332.630005 
L 479.233827 -330.171411 
L 474.515011 -327.044336 
L 469.796195 -326.242958 
L 465.077378 -329.183886 
L 460.358562 -331.081472 
L 455.639746 -329.824093 
L 450.92093 -328.214133 
L 446.202114 -326.525547 
L 441.483298 -325.161066 
L 436.764482 -325.504491 
L 432.045666 -328.296437 
L 427.32685 -330.148245 
L 422.608034 -332.52766 
L 417.889218 -331.205322 
L 413.170402 -328.981294 
L 408.451586 -325.017091 
L 403.73277 -320.155481 
L 399.013953 -314.039223 
L 394.295137 -320.111594 
L 389.576321 -342.228445 
L 384.857505 -365.334545 
L 380.138689 -354.90639 
L 375.419873 -315.986448 
L 370.701057 -327.44635 
L 365.982241 -329.648802 
L 361.263425 -326.800618 
L 356.544609 -320.232157 
L 351.825793 -317.298947 
L 347.106977 -313.126324 
L 342.388161 -307.367169 
L 337.669345 -304.223997 
L 332.950529 -299.063139 
L 328.231712 -297.721159 
L 323.512896 -291.881609 
L 318.79408 -283.291942 
L 314.075264 -279.330872 
L 309.356448 -279.537367 
L 304.637632 -278.137647 
L 299.918816 -275.32032 
L 295.2 -271.479981 
L 290.481184 -269.504786 
L 285.762368 -264.982701 
L 281.043552 -262.611509 
L 276.324736 -261.120672 
L 271.60592 -256.463764 
L 266.887104 -252.529316 
L 262.168288 -247.712906 
L 257.449471 -246.481025 
L 252.730655 -240.550012 
L 248.011839 -236.442866 
L 243.293023 -229.454166 
L 238.574207 -226.512388 
L 233.855391 -222.955277 
L 229.136575 -217.166631 
L 224.417759 -207.217773 
L 219.698943 -199.022118 
L 214.980127 -193.733029 
L 210.261311 -180.779057 
L 205.542495 -174.106303 
L 200.823679 -166.058325 
L 196.104863 -160.866871 
L 191.386047 -151.009186 
L 186.66723 -144.524273 
L 181.948414 -135.99038 
L 177.229598 -127.446633 
L 172.510782 -118.987668 
L 167.791966 -114.980968 
L 163.07315 -108.334389 
L 158.354334 -107.697517 
L 153.635518 -103.622896 
L 148.916702 -100.943378 
L 144.197886 -97.653944 
L 139.47907 -96.384081 
L 134.760254 -89.860711 
L 130.041438 -89.921607 
L 125.322622 -91.194888 
L 120.603805 -89.853032 
L 115.884989 -90.271226 
L 111.166173 -90.300492 
L 106.447357 -91.866128 
L 101.728541 -89.130141 
L 97.009725 -89.952484 
L 92.290909 -93.03125 
z
" style="stroke: #eb6ab0; stroke-opacity: 0.1"/>
    </defs>
    <g clip-path="url(#p83c5bf20d9)">
     <use xlink:href="#me35cf127fb" x="0" y="432" style="fill: #eb6ab0; fill-opacity: 0.1; stroke: #eb6ab0; stroke-opacity: 0.1"/>
    </g>
   </g>
   <g id="PolyCollection_2">
    <defs>
     <path id="m0449b18e89" d="M 92.290909 -95.439492 
L 92.290909 -89.93606 
L 97.009725 -88.749546 
L 101.728541 -93.641335 
L 106.447357 -90.750396 
L 111.166173 -89.728624 
L 115.884989 -93.338111 
L 120.603805 -93.324612 
L 125.322622 -96.229227 
L 130.041438 -98.975171 
L 134.760254 -101.228943 
L 139.47907 -109.780924 
L 144.197886 -114.601605 
L 148.916702 -114.470242 
L 153.635518 -116.219334 
L 158.354334 -114.346485 
L 163.07315 -111.343905 
L 167.791966 -110.630729 
L 172.510782 -112.329076 
L 177.229598 -110.343678 
L 181.948414 -111.631989 
L 186.66723 -114.147029 
L 191.386047 -114.658877 
L 196.104863 -116.167863 
L 200.823679 -118.346103 
L 205.542495 -119.459072 
L 210.261311 -121.442076 
L 214.980127 -122.2174 
L 219.698943 -124.175488 
L 224.417759 -127.738083 
L 229.136575 -130.33827 
L 233.855391 -133.368343 
L 238.574207 -137.257806 
L 243.293023 -141.448189 
L 248.011839 -145.146129 
L 252.730655 -149.789142 
L 257.449471 -153.98512 
L 262.168288 -158.888819 
L 266.887104 -162.747721 
L 271.60592 -166.694505 
L 276.324736 -170.367111 
L 281.043552 -173.987579 
L 285.762368 -178.700489 
L 290.481184 -182.862816 
L 295.2 -186.596018 
L 299.918816 -189.562306 
L 304.637632 -192.064832 
L 309.356448 -194.149359 
L 314.075264 -197.200284 
L 318.79408 -199.758864 
L 323.512896 -204.128741 
L 328.231712 -207.760147 
L 332.950529 -211.360733 
L 337.669345 -215.160593 
L 342.388161 -219.875948 
L 347.106977 -222.850094 
L 351.825793 -226.236638 
L 356.544609 -228.60155 
L 361.263425 -231.520983 
L 365.982241 -234.452293 
L 370.701057 -236.233369 
L 375.419873 -239.954929 
L 380.138689 -242.263894 
L 384.857505 -245.980599 
L 389.576321 -247.551674 
L 394.295137 -250.24154 
L 399.013953 -251.053387 
L 403.73277 -252.587976 
L 408.451586 -253.637747 
L 413.170402 -254.885432 
L 417.889218 -256.073905 
L 422.608034 -257.117372 
L 427.32685 -259.174396 
L 432.045666 -259.87724 
L 436.764482 -259.407151 
L 441.483298 -259.577876 
L 446.202114 -261.03048 
L 450.92093 -262.683665 
L 455.639746 -263.172101 
L 460.358562 -263.758163 
L 465.077378 -264.702766 
L 469.796195 -264.54844 
L 474.515011 -265.85529 
L 479.233827 -266.764416 
L 483.952643 -268.018854 
L 488.671459 -269.460907 
L 493.390275 -270.13146 
L 498.109091 -270.446065 
L 498.109091 -300.473223 
L 498.109091 -300.473223 
L 493.390275 -299.577207 
L 488.671459 -298.84028 
L 483.952643 -297.342123 
L 479.233827 -296.441486 
L 474.515011 -294.842259 
L 469.796195 -292.925851 
L 465.077378 -292.773169 
L 460.358562 -291.455424 
L 455.639746 -290.180866 
L 450.92093 -289.348406 
L 446.202114 -287.911889 
L 441.483298 -285.370535 
L 436.764482 -284.161661 
L 432.045666 -283.695776 
L 427.32685 -281.890656 
L 422.608034 -279.656849 
L 417.889218 -278.40375 
L 413.170402 -276.937732 
L 408.451586 -275.177781 
L 403.73277 -273.23301 
L 399.013953 -270.683534 
L 394.295137 -269.168276 
L 389.576321 -265.106762 
L 384.857505 -262.962197 
L 380.138689 -258.384103 
L 375.419873 -256.342636 
L 370.701057 -252.772221 
L 365.982241 -250.63619 
L 361.263425 -246.96901 
L 356.544609 -243.745673 
L 351.825793 -240.864383 
L 347.106977 -237.414929 
L 342.388161 -234.326295 
L 337.669345 -229.149615 
L 332.950529 -225.220106 
L 328.231712 -221.479827 
L 323.512896 -217.42824 
L 318.79408 -212.968328 
L 314.075264 -210.022321 
L 309.356448 -206.640709 
L 304.637632 -202.981731 
L 299.918816 -200.417996 
L 295.2 -197.337286 
L 290.481184 -193.335509 
L 285.762368 -189.196837 
L 281.043552 -184.424327 
L 276.324736 -180.277861 
L 271.60592 -176.891235 
L 266.887104 -172.556309 
L 262.168288 -168.343388 
L 257.449471 -163.516801 
L 252.730655 -159.207171 
L 248.011839 -153.831368 
L 243.293023 -150.127027 
L 238.574207 -145.302127 
L 233.855391 -141.427265 
L 229.136575 -138.316304 
L 224.417759 -134.89386 
L 219.698943 -131.202358 
L 214.980127 -129.03875 
L 210.261311 -127.679983 
L 205.542495 -125.501184 
L 200.823679 -124.530987 
L 196.104863 -122.238855 
L 191.386047 -120.344617 
L 186.66723 -119.492278 
L 181.948414 -116.984546 
L 177.229598 -116.386475 
L 172.510782 -116.498427 
L 167.791966 -114.769309 
L 163.07315 -115.549283 
L 158.354334 -118.720467 
L 153.635518 -120.827932 
L 148.916702 -118.591904 
L 144.197886 -118.925388 
L 139.47907 -115.866421 
L 134.760254 -108.045769 
L 130.041438 -106.096994 
L 125.322622 -104.449334 
L 120.603805 -102.571608 
L 115.884989 -102.28712 
L 111.166173 -101.132952 
L 106.447357 -100.244907 
L 101.728541 -101.810778 
L 97.009725 -96.835485 
L 92.290909 -95.439492 
z
" style="stroke: #8b0a50; stroke-opacity: 0.2"/>
    </defs>
    <g clip-path="url(#p83c5bf20d9)">
     <use xlink:href="#m0449b18e89" x="0" y="432" style="fill: #8b0a50; fill-opacity: 0.2; stroke: #8b0a50; stroke-opacity: 0.2"/>
    </g>
   </g>
   <g id="PathCollection_1">
    <defs>
     <path id="m95719bc107" d="M -2.5 2.5 
L 2.5 2.5 
L 2.5 -2.5 
L -2.5 -2.5 
z
" style="stroke: #eb6ab0"/>
    </defs>
    <g clip-path="url(#p83c5bf20d9)">
     <use xlink:href="#m95719bc107" x="106.447357" y="355.784569" style="fill: #eb6ab0; stroke: #eb6ab0"/>
     <use xlink:href="#m95719bc107" x="125.322622" y="355.784569" style="fill: #eb6ab0; stroke: #eb6ab0"/>
     <use xlink:href="#m95719bc107" x="148.916702" y="355.784569" style="fill: #eb6ab0; stroke: #eb6ab0"/>
     <use xlink:href="#m95719bc107" x="153.635518" y="355.784569" style="fill: #eb6ab0; stroke: #eb6ab0"/>
     <use xlink:href="#m95719bc107" x="158.354334" y="355.784569" style="fill: #eb6ab0; stroke: #eb6ab0"/>
     <use xlink:href="#m95719bc107" x="163.07315" y="355.784569" style="fill: #eb6ab0; stroke: #eb6ab0"/>
     <use xlink:href="#m95719bc107" x="167.791966" y="355.784569" style="fill: #eb6ab0; stroke: #eb6ab0"/>
     <use xlink:href="#m95719bc107" x="172.510782" y="355.784569" style="fill: #eb6ab0; stroke: #eb6ab0"/>
     <use xlink:href="#m95719bc107" x="177.229598" y="355.784569" style="fill: #eb6ab0; stroke: #eb6ab0"/>
     <use xlink:href="#m95719bc107" x="181.948414" y="355.784569" style="fill: #eb6ab0; stroke: #eb6ab0"/>
     <use xlink:href="#m95719bc107" x="186.66723" y="355.784569" style="fill: #eb6ab0; stroke: #eb6ab0"/>
     <use xlink:href="#m95719bc107" x="191.386047" y="355.784569" style="fill: #eb6ab0; stroke: #eb6ab0"/>
     <use xlink:href="#m95719bc107" x="196.104863" y="355.784569" style="fill: #eb6ab0; stroke: #eb6ab0"/>
     <use xlink:href="#m95719bc107" x="200.823679" y="355.784569" style="fill: #eb6ab0; stroke: #eb6ab0"/>
     <use xlink:href="#m95719bc107" x="205.542495" y="355.784569" style="fill: #eb6ab0; stroke: #eb6ab0"/>
     <use xlink:href="#m95719bc107" x="210.261311" y="355.784569" style="fill: #eb6ab0; stroke: #eb6ab0"/>
     <use xlink:href="#m95719bc107" x="214.980127" y="355.784569" style="fill: #eb6ab0; stroke: #eb6ab0"/>
     <use xlink:href="#m95719bc107" x="219.698943" y="355.784569" style="fill: #eb6ab0; stroke: #eb6ab0"/>
     <use xlink:href="#m95719bc107" x="224.417759" y="355.784569" style="fill: #eb6ab0; stroke: #eb6ab0"/>
     <use xlink:href="#m95719bc107" x="229.136575" y="355.784569" style="fill: #eb6ab0; stroke: #eb6ab0"/>
     <use xlink:href="#m95719bc107" x="233.855391" y="355.784569" style="fill: #eb6ab0; stroke: #eb6ab0"/>
     <use xlink:href="#m95719bc107" x="238.574207" y="355.784569" style="fill: #eb6ab0; stroke: #eb6ab0"/>
     <use xlink:href="#m95719bc107" x="243.293023" y="355.784569" style="fill: #eb6ab0; stroke: #eb6ab0"/>
     <use xlink:href="#m95719bc107" x="248.011839" y="355.784569" style="fill: #eb6ab0; stroke: #eb6ab0"/>
     <use xlink:href="#m95719bc107" x="252.730655" y="355.784569" style="fill: #eb6ab0; stroke: #eb6ab0"/>
     <use xlink:href="#m95719bc107" x="257.449471" y="355.784569" style="fill: #eb6ab0; stroke: #eb6ab0"/>
     <use xlink:href="#m95719bc107" x="262.168288" y="355.784569" style="fill: #eb6ab0; stroke: #eb6ab0"/>
     <use xlink:href="#m95719bc107" x="266.887104" y="355.784569" style="fill: #eb6ab0; stroke: #eb6ab0"/>
     <use xlink:href="#m95719bc107" x="271.60592" y="355.784569" style="fill: #eb6ab0; stroke: #eb6ab0"/>
     <use xlink:href="#m95719bc107" x="276.324736" y="355.784569" style="fill: #eb6ab0; stroke: #eb6ab0"/>
     <use xlink:href="#m95719bc107" x="281.043552" y="355.784569" style="fill: #eb6ab0; stroke: #eb6ab0"/>
     <use xlink:href="#m95719bc107" x="285.762368" y="355.784569" style="fill: #eb6ab0; stroke: #eb6ab0"/>
     <use xlink:href="#m95719bc107" x="290.481184" y="355.784569" style="fill: #eb6ab0; stroke: #eb6ab0"/>
     <use xlink:href="#m95719bc107" x="295.2" y="355.784569" style="fill: #eb6ab0; stroke: #eb6ab0"/>
     <use xlink:href="#m95719bc107" x="299.918816" y="355.784569" style="fill: #eb6ab0; stroke: #eb6ab0"/>
     <use xlink:href="#m95719bc107" x="304.637632" y="355.784569" style="fill: #eb6ab0; stroke: #eb6ab0"/>
     <use xlink:href="#m95719bc107" x="309.356448" y="355.784569" style="fill: #eb6ab0; stroke: #eb6ab0"/>
     <use xlink:href="#m95719bc107" x="314.075264" y="355.784569" style="fill: #eb6ab0; stroke: #eb6ab0"/>
     <use xlink:href="#m95719bc107" x="318.79408" y="355.784569" style="fill: #eb6ab0; stroke: #eb6ab0"/>
     <use xlink:href="#m95719bc107" x="323.512896" y="355.784569" style="fill: #eb6ab0; stroke: #eb6ab0"/>
     <use xlink:href="#m95719bc107" x="328.231712" y="355.784569" style="fill: #eb6ab0; stroke: #eb6ab0"/>
     <use xlink:href="#m95719bc107" x="332.950529" y="355.784569" style="fill: #eb6ab0; stroke: #eb6ab0"/>
     <use xlink:href="#m95719bc107" x="337.669345" y="355.784569" style="fill: #eb6ab0; stroke: #eb6ab0"/>
     <use xlink:href="#m95719bc107" x="342.388161" y="355.784569" style="fill: #eb6ab0; stroke: #eb6ab0"/>
     <use xlink:href="#m95719bc107" x="347.106977" y="355.784569" style="fill: #eb6ab0; stroke: #eb6ab0"/>
     <use xlink:href="#m95719bc107" x="351.825793" y="355.784569" style="fill: #eb6ab0; stroke: #eb6ab0"/>
     <use xlink:href="#m95719bc107" x="356.544609" y="355.784569" style="fill: #eb6ab0; stroke: #eb6ab0"/>
     <use xlink:href="#m95719bc107" x="361.263425" y="355.784569" style="fill: #eb6ab0; stroke: #eb6ab0"/>
     <use xlink:href="#m95719bc107" x="365.982241" y="355.784569" style="fill: #eb6ab0; stroke: #eb6ab0"/>
     <use xlink:href="#m95719bc107" x="370.701057" y="355.784569" style="fill: #eb6ab0; stroke: #eb6ab0"/>
     <use xlink:href="#m95719bc107" x="375.419873" y="355.784569" style="fill: #eb6ab0; stroke: #eb6ab0"/>
     <use xlink:href="#m95719bc107" x="380.138689" y="355.784569" style="fill: #eb6ab0; stroke: #eb6ab0"/>
     <use xlink:href="#m95719bc107" x="384.857505" y="355.784569" style="fill: #eb6ab0; stroke: #eb6ab0"/>
     <use xlink:href="#m95719bc107" x="389.576321" y="355.784569" style="fill: #eb6ab0; stroke: #eb6ab0"/>
     <use xlink:href="#m95719bc107" x="394.295137" y="355.784569" style="fill: #eb6ab0; stroke: #eb6ab0"/>
     <use xlink:href="#m95719bc107" x="399.013953" y="355.784569" style="fill: #eb6ab0; stroke: #eb6ab0"/>
     <use xlink:href="#m95719bc107" x="403.73277" y="355.784569" style="fill: #eb6ab0; stroke: #eb6ab0"/>
     <use xlink:href="#m95719bc107" x="408.451586" y="355.784569" style="fill: #eb6ab0; stroke: #eb6ab0"/>
     <use xlink:href="#m95719bc107" x="413.170402" y="355.784569" style="fill: #eb6ab0; stroke: #eb6ab0"/>
     <use xlink:href="#m95719bc107" x="417.889218" y="355.784569" style="fill: #eb6ab0; stroke: #eb6ab0"/>
     <use xlink:href="#m95719bc107" x="422.608034" y="355.784569" style="fill: #eb6ab0; stroke: #eb6ab0"/>
     <use xlink:href="#m95719bc107" x="427.32685" y="355.784569" style="fill: #eb6ab0; stroke: #eb6ab0"/>
     <use xlink:href="#m95719bc107" x="432.045666" y="355.784569" style="fill: #eb6ab0; stroke: #eb6ab0"/>
     <use xlink:href="#m95719bc107" x="436.764482" y="355.784569" style="fill: #eb6ab0; stroke: #eb6ab0"/>
     <use xlink:href="#m95719bc107" x="441.483298" y="355.784569" style="fill: #eb6ab0; stroke: #eb6ab0"/>
     <use xlink:href="#m95719bc107" x="446.202114" y="355.784569" style="fill: #eb6ab0; stroke: #eb6ab0"/>
     <use xlink:href="#m95719bc107" x="450.92093" y="355.784569" style="fill: #eb6ab0; stroke: #eb6ab0"/>
     <use xlink:href="#m95719bc107" x="455.639746" y="355.784569" style="fill: #eb6ab0; stroke: #eb6ab0"/>
     <use xlink:href="#m95719bc107" x="460.358562" y="355.784569" style="fill: #eb6ab0; stroke: #eb6ab0"/>
     <use xlink:href="#m95719bc107" x="465.077378" y="355.784569" style="fill: #eb6ab0; stroke: #eb6ab0"/>
     <use xlink:href="#m95719bc107" x="469.796195" y="355.784569" style="fill: #eb6ab0; stroke: #eb6ab0"/>
     <use xlink:href="#m95719bc107" x="474.515011" y="355.784569" style="fill: #eb6ab0; stroke: #eb6ab0"/>
     <use xlink:href="#m95719bc107" x="479.233827" y="355.784569" style="fill: #eb6ab0; stroke: #eb6ab0"/>
     <use xlink:href="#m95719bc107" x="483.952643" y="355.784569" style="fill: #eb6ab0; stroke: #eb6ab0"/>
     <use xlink:href="#m95719bc107" x="488.671459" y="355.784569" style="fill: #eb6ab0; stroke: #eb6ab0"/>
     <use xlink:href="#m95719bc107" x="493.390275" y="355.784569" style="fill: #eb6ab0; stroke: #eb6ab0"/>
     <use xlink:href="#m95719bc107" x="498.109091" y="355.784569" style="fill: #eb6ab0; stroke: #eb6ab0"/>
    </g>
   </g>
   <g id="PathCollection_2">
    <defs>
     <path id="m02adc6aa40" d="M -2.5 2.5 
L 2.5 2.5 
L 2.5 -2.5 
L -2.5 -2.5 
z
" style="stroke: #8b0a50"/>
    </defs>
    <g clip-path="url(#p83c5bf20d9)">
     <use xlink:href="#m02adc6aa40" x="130.041438" y="363.174545" style="fill: #8b0a50; stroke: #8b0a50"/>
     <use xlink:href="#m02adc6aa40" x="134.760254" y="363.174545" style="fill: #8b0a50; stroke: #8b0a50"/>
     <use xlink:href="#m02adc6aa40" x="181.948414" y="363.174545" style="fill: #8b0a50; stroke: #8b0a50"/>
     <use xlink:href="#m02adc6aa40" x="186.66723" y="363.174545" style="fill: #8b0a50; stroke: #8b0a50"/>
     <use xlink:href="#m02adc6aa40" x="191.386047" y="363.174545" style="fill: #8b0a50; stroke: #8b0a50"/>
     <use xlink:href="#m02adc6aa40" x="196.104863" y="363.174545" style="fill: #8b0a50; stroke: #8b0a50"/>
     <use xlink:href="#m02adc6aa40" x="200.823679" y="363.174545" style="fill: #8b0a50; stroke: #8b0a50"/>
     <use xlink:href="#m02adc6aa40" x="205.542495" y="363.174545" style="fill: #8b0a50; stroke: #8b0a50"/>
     <use xlink:href="#m02adc6aa40" x="210.261311" y="363.174545" style="fill: #8b0a50; stroke: #8b0a50"/>
     <use xlink:href="#m02adc6aa40" x="214.980127" y="363.174545" style="fill: #8b0a50; stroke: #8b0a50"/>
     <use xlink:href="#m02adc6aa40" x="219.698943" y="363.174545" style="fill: #8b0a50; stroke: #8b0a50"/>
     <use xlink:href="#m02adc6aa40" x="224.417759" y="363.174545" style="fill: #8b0a50; stroke: #8b0a50"/>
     <use xlink:href="#m02adc6aa40" x="229.136575" y="363.174545" style="fill: #8b0a50; stroke: #8b0a50"/>
     <use xlink:href="#m02adc6aa40" x="233.855391" y="363.174545" style="fill: #8b0a50; stroke: #8b0a50"/>
     <use xlink:href="#m02adc6aa40" x="238.574207" y="363.174545" style="fill: #8b0a50; stroke: #8b0a50"/>
     <use xlink:href="#m02adc6aa40" x="243.293023" y="363.174545" style="fill: #8b0a50; stroke: #8b0a50"/>
     <use xlink:href="#m02adc6aa40" x="248.011839" y="363.174545" style="fill: #8b0a50; stroke: #8b0a50"/>
     <use xlink:href="#m02adc6aa40" x="252.730655" y="363.174545" style="fill: #8b0a50; stroke: #8b0a50"/>
     <use xlink:href="#m02adc6aa40" x="257.449471" y="363.174545" style="fill: #8b0a50; stroke: #8b0a50"/>
     <use xlink:href="#m02adc6aa40" x="262.168288" y="363.174545" style="fill: #8b0a50; stroke: #8b0a50"/>
     <use xlink:href="#m02adc6aa40" x="266.887104" y="363.174545" style="fill: #8b0a50; stroke: #8b0a50"/>
     <use xlink:href="#m02adc6aa40" x="271.60592" y="363.174545" style="fill: #8b0a50; stroke: #8b0a50"/>
     <use xlink:href="#m02adc6aa40" x="276.324736" y="363.174545" style="fill: #8b0a50; stroke: #8b0a50"/>
     <use xlink:href="#m02adc6aa40" x="281.043552" y="363.174545" style="fill: #8b0a50; stroke: #8b0a50"/>
     <use xlink:href="#m02adc6aa40" x="285.762368" y="363.174545" style="fill: #8b0a50; stroke: #8b0a50"/>
     <use xlink:href="#m02adc6aa40" x="290.481184" y="363.174545" style="fill: #8b0a50; stroke: #8b0a50"/>
     <use xlink:href="#m02adc6aa40" x="295.2" y="363.174545" style="fill: #8b0a50; stroke: #8b0a50"/>
     <use xlink:href="#m02adc6aa40" x="299.918816" y="363.174545" style="fill: #8b0a50; stroke: #8b0a50"/>
     <use xlink:href="#m02adc6aa40" x="304.637632" y="363.174545" style="fill: #8b0a50; stroke: #8b0a50"/>
     <use xlink:href="#m02adc6aa40" x="309.356448" y="363.174545" style="fill: #8b0a50; stroke: #8b0a50"/>
     <use xlink:href="#m02adc6aa40" x="314.075264" y="363.174545" style="fill: #8b0a50; stroke: #8b0a50"/>
     <use xlink:href="#m02adc6aa40" x="318.79408" y="363.174545" style="fill: #8b0a50; stroke: #8b0a50"/>
     <use xlink:href="#m02adc6aa40" x="323.512896" y="363.174545" style="fill: #8b0a50; stroke: #8b0a50"/>
     <use xlink:href="#m02adc6aa40" x="328.231712" y="363.174545" style="fill: #8b0a50; stroke: #8b0a50"/>
     <use xlink:href="#m02adc6aa40" x="332.950529" y="363.174545" style="fill: #8b0a50; stroke: #8b0a50"/>
     <use xlink:href="#m02adc6aa40" x="337.669345" y="363.174545" style="fill: #8b0a50; stroke: #8b0a50"/>
     <use xlink:href="#m02adc6aa40" x="342.388161" y="363.174545" style="fill: #8b0a50; stroke: #8b0a50"/>
     <use xlink:href="#m02adc6aa40" x="347.106977" y="363.174545" style="fill: #8b0a50; stroke: #8b0a50"/>
     <use xlink:href="#m02adc6aa40" x="351.825793" y="363.174545" style="fill: #8b0a50; stroke: #8b0a50"/>
     <use xlink:href="#m02adc6aa40" x="356.544609" y="363.174545" style="fill: #8b0a50; stroke: #8b0a50"/>
     <use xlink:href="#m02adc6aa40" x="361.263425" y="363.174545" style="fill: #8b0a50; stroke: #8b0a50"/>
     <use xlink:href="#m02adc6aa40" x="365.982241" y="363.174545" style="fill: #8b0a50; stroke: #8b0a50"/>
     <use xlink:href="#m02adc6aa40" x="370.701057" y="363.174545" style="fill: #8b0a50; stroke: #8b0a50"/>
     <use xlink:href="#m02adc6aa40" x="375.419873" y="363.174545" style="fill: #8b0a50; stroke: #8b0a50"/>
     <use xlink:href="#m02adc6aa40" x="380.138689" y="363.174545" style="fill: #8b0a50; stroke: #8b0a50"/>
     <use xlink:href="#m02adc6aa40" x="384.857505" y="363.174545" style="fill: #8b0a50; stroke: #8b0a50"/>
     <use xlink:href="#m02adc6aa40" x="389.576321" y="363.174545" style="fill: #8b0a50; stroke: #8b0a50"/>
     <use xlink:href="#m02adc6aa40" x="394.295137" y="363.174545" style="fill: #8b0a50; stroke: #8b0a50"/>
     <use xlink:href="#m02adc6aa40" x="399.013953" y="363.174545" style="fill: #8b0a50; stroke: #8b0a50"/>
     <use xlink:href="#m02adc6aa40" x="403.73277" y="363.174545" style="fill: #8b0a50; stroke: #8b0a50"/>
     <use xlink:href="#m02adc6aa40" x="408.451586" y="363.174545" style="fill: #8b0a50; stroke: #8b0a50"/>
     <use xlink:href="#m02adc6aa40" x="413.170402" y="363.174545" style="fill: #8b0a50; stroke: #8b0a50"/>
     <use xlink:href="#m02adc6aa40" x="417.889218" y="363.174545" style="fill: #8b0a50; stroke: #8b0a50"/>
     <use xlink:href="#m02adc6aa40" x="422.608034" y="363.174545" style="fill: #8b0a50; stroke: #8b0a50"/>
     <use xlink:href="#m02adc6aa40" x="427.32685" y="363.174545" style="fill: #8b0a50; stroke: #8b0a50"/>
     <use xlink:href="#m02adc6aa40" x="432.045666" y="363.174545" style="fill: #8b0a50; stroke: #8b0a50"/>
     <use xlink:href="#m02adc6aa40" x="436.764482" y="363.174545" style="fill: #8b0a50; stroke: #8b0a50"/>
     <use xlink:href="#m02adc6aa40" x="441.483298" y="363.174545" style="fill: #8b0a50; stroke: #8b0a50"/>
     <use xlink:href="#m02adc6aa40" x="446.202114" y="363.174545" style="fill: #8b0a50; stroke: #8b0a50"/>
     <use xlink:href="#m02adc6aa40" x="450.92093" y="363.174545" style="fill: #8b0a50; stroke: #8b0a50"/>
     <use xlink:href="#m02adc6aa40" x="455.639746" y="363.174545" style="fill: #8b0a50; stroke: #8b0a50"/>
     <use xlink:href="#m02adc6aa40" x="460.358562" y="363.174545" style="fill: #8b0a50; stroke: #8b0a50"/>
     <use xlink:href="#m02adc6aa40" x="465.077378" y="363.174545" style="fill: #8b0a50; stroke: #8b0a50"/>
     <use xlink:href="#m02adc6aa40" x="469.796195" y="363.174545" style="fill: #8b0a50; stroke: #8b0a50"/>
     <use xlink:href="#m02adc6aa40" x="474.515011" y="363.174545" style="fill: #8b0a50; stroke: #8b0a50"/>
     <use xlink:href="#m02adc6aa40" x="479.233827" y="363.174545" style="fill: #8b0a50; stroke: #8b0a50"/>
     <use xlink:href="#m02adc6aa40" x="483.952643" y="363.174545" style="fill: #8b0a50; stroke: #8b0a50"/>
     <use xlink:href="#m02adc6aa40" x="488.671459" y="363.174545" style="fill: #8b0a50; stroke: #8b0a50"/>
     <use xlink:href="#m02adc6aa40" x="493.390275" y="363.174545" style="fill: #8b0a50; stroke: #8b0a50"/>
     <use xlink:href="#m02adc6aa40" x="498.109091" y="363.174545" style="fill: #8b0a50; stroke: #8b0a50"/>
    </g>
   </g>
   <g id="line2d_12">
    <path d="M 92.290909 341.400401 
L 97.009725 342.926654 
L 101.728541 343.358916 
L 106.447357 340.974552 
L 111.166173 342.59602 
L 115.884989 342.229417 
L 120.603805 342.730181 
L 125.322622 341.457836 
L 130.041438 342.678482 
L 134.760254 342.738512 
L 139.47907 336.943585 
L 144.197886 336.478594 
L 148.916702 333.192402 
L 153.635518 330.774339 
L 158.354334 327.506809 
L 163.07315 327.450411 
L 167.791966 321.405468 
L 172.510782 317.314038 
L 177.229598 309.883022 
L 181.948414 301.816139 
L 186.66723 293.757638 
L 191.386047 287.016837 
L 196.104863 277.728922 
L 200.823679 272.724985 
L 205.542495 265.590176 
L 210.261311 259.91797 
L 214.980127 248.067021 
L 219.698943 244.049417 
L 224.417759 236.551518 
L 229.136575 226.942098 
L 233.855391 221.96459 
L 238.574207 218.946045 
L 243.293023 216.550334 
L 248.011839 208.926018 
L 252.730655 204.653508 
L 257.449471 199.772676 
L 262.168288 200.159593 
L 266.887104 193.816412 
L 271.60592 190.022958 
L 276.324736 185.001151 
L 281.043552 183.884919 
L 285.762368 182.433052 
L 290.481184 177.89911 
L 295.2 176.629137 
L 299.918816 173.56325 
L 304.637632 171.600823 
L 309.356448 170.281467 
L 314.075264 170.513949 
L 318.79408 167.764561 
L 323.512896 159.389261 
L 328.231712 153.169393 
L 332.950529 152.022641 
L 337.669345 147.934552 
L 342.388161 144.851389 
L 347.106977 138.819359 
L 351.825793 134.903256 
L 356.544609 131.947667 
L 361.263425 125.836476 
L 365.982241 123.596745 
L 370.701057 126.451567 
L 375.419873 137.007047 
L 380.138689 101.898738 
L 384.857505 97.135403 
L 389.576321 119.4942 
L 394.295137 139.553899 
L 399.013953 144.466278 
L 403.73277 139.551074 
L 408.451586 135.450398 
L 413.170402 130.778518 
L 417.889218 127.543394 
L 422.608034 127.542922 
L 427.32685 130.690256 
L 432.045666 133.917162 
L 436.764482 136.354757 
L 441.483298 136.015839 
L 446.202114 133.685273 
L 450.92093 131.177262 
L 455.639746 130.769965 
L 460.358562 130.428858 
L 465.077378 133.356717 
L 469.796195 136.148327 
L 474.515011 134.872346 
L 479.233827 130.52702 
L 483.952643 127.92795 
L 488.671459 127.492705 
L 493.390275 127.876654 
L 498.109091 132.381562 
" clip-path="url(#p83c5bf20d9)" style="fill: none; stroke: #eb6ab0; stroke-width: 2; stroke-linecap: round"/>
   </g>
   <g id="line2d_13">
    <path d="M 92.290909 342.634456 
L 97.009725 343.467942 
L 101.728541 343.216484 
L 106.447357 343.25448 
L 111.166173 343.201278 
L 115.884989 343.260895 
L 120.603805 343.049976 
L 125.322622 343.069926 
L 130.041438 343.017931 
L 134.760254 342.916529 
L 139.47907 339.565909 
L 144.197886 338.987599 
L 148.916702 338.909542 
L 153.635518 338.788793 
L 158.354334 338.533321 
L 163.07315 337.858002 
L 167.791966 337.877339 
L 172.510782 337.549311 
L 177.229598 337.212768 
L 181.948414 336.94161 
L 186.66723 336.668656 
L 191.386047 336.119316 
L 196.104863 335.186618 
L 200.823679 334.35518 
L 205.542495 333.310963 
L 210.261311 332.469927 
L 214.980127 331.653642 
L 219.698943 330.978968 
L 224.417759 329.530291 
L 229.136575 328.286675 
L 233.855391 327.154824 
L 238.574207 325.972238 
L 243.293023 325.23654 
L 248.011839 324.40982 
L 252.730655 323.270548 
L 257.449471 322.822497 
L 262.168288 323.005512 
L 266.887104 322.994597 
L 271.60592 322.85088 
L 276.324736 322.811242 
L 281.043552 323.432363 
L 285.762368 323.780497 
L 290.481184 323.953203 
L 295.2 324.479028 
L 299.918816 325.452206 
L 304.637632 326.459303 
L 309.356448 327.002284 
L 314.075264 328.280132 
L 318.79408 329.27537 
L 323.512896 329.359579 
L 328.231712 329.124502 
L 332.950529 329.015583 
L 337.669345 328.874229 
L 342.388161 329.209892 
L 347.106977 329.533619 
L 351.825793 328.867444 
L 356.544609 328.623245 
L 361.263425 329.013458 
L 365.982241 329.499541 
L 370.701057 330.579182 
L 375.419873 333.776461 
L 380.138689 333.522258 
L 384.857505 333.580885 
L 389.576321 333.764601 
L 394.295137 334.285185 
L 399.013953 334.68915 
L 403.73277 334.829022 
L 408.451586 334.335965 
L 413.170402 334.325566 
L 417.889218 334.504404 
L 422.608034 334.491861 
L 427.32685 334.522999 
L 432.045666 334.679932 
L 436.764482 334.723491 
L 441.483298 334.805416 
L 446.202114 334.732439 
L 450.92093 334.628076 
L 455.639746 334.700851 
L 460.358562 334.569071 
L 465.077378 334.723003 
L 469.796195 334.762121 
L 474.515011 335.012058 
L 479.233827 335.002621 
L 483.952643 334.911385 
L 488.671459 334.852836 
L 493.390275 334.63711 
L 498.109091 334.64589 
" clip-path="url(#p83c5bf20d9)" style="fill: none; stroke-dasharray: 5.55,2.4; stroke-dashoffset: 0; stroke: #eb6ab0; stroke-opacity: 0.8; stroke-width: 1.5"/>
   </g>
   <g id="line2d_14">
    <path d="M 92.290909 339.312224 
L 97.009725 339.207484 
L 101.728541 334.273943 
L 106.447357 336.502349 
L 111.166173 336.569212 
L 115.884989 334.187385 
L 120.603805 334.05189 
L 125.322622 331.660719 
L 130.041438 329.463917 
L 134.760254 327.362644 
L 139.47907 319.176327 
L 144.197886 315.236504 
L 148.916702 315.468927 
L 153.635518 313.476367 
L 158.354334 315.466524 
L 163.07315 318.553406 
L 167.791966 319.299981 
L 172.510782 317.586248 
L 177.229598 318.634923 
L 181.948414 317.691732 
L 186.66723 315.180347 
L 191.386047 314.498253 
L 196.104863 312.796641 
L 200.823679 310.561455 
L 205.542495 309.519872 
L 210.261311 307.438971 
L 214.980127 306.371925 
L 219.698943 304.311077 
L 224.417759 300.684028 
L 229.136575 297.672713 
L 233.855391 294.602196 
L 238.574207 290.720034 
L 243.293023 286.212392 
L 248.011839 282.511252 
L 252.730655 277.501844 
L 257.449471 273.249039 
L 262.168288 268.383897 
L 266.887104 264.347985 
L 271.60592 260.20713 
L 276.324736 256.677514 
L 281.043552 252.794047 
L 285.762368 248.051337 
L 290.481184 243.900838 
L 295.2 240.033348 
L 299.918816 237.009849 
L 304.637632 234.476718 
L 309.356448 231.604966 
L 314.075264 228.388697 
L 318.79408 225.636404 
L 323.512896 221.22151 
L 328.231712 217.380013 
L 332.950529 213.709581 
L 337.669345 209.844896 
L 342.388161 204.898879 
L 347.106977 201.867489 
L 351.825793 198.449489 
L 356.544609 195.826388 
L 361.263425 192.755004 
L 365.982241 189.455758 
L 370.701057 187.497205 
L 375.419873 183.851218 
L 380.138689 181.676002 
L 384.857505 177.528602 
L 389.576321 175.670782 
L 394.295137 172.295092 
L 399.013953 171.131539 
L 403.73277 169.089507 
L 408.451586 167.592236 
L 413.170402 166.088418 
L 417.889218 164.761172 
L 422.608034 163.612889 
L 427.32685 161.467474 
L 432.045666 160.213492 
L 436.764482 160.215594 
L 441.483298 159.525795 
L 446.202114 157.528816 
L 450.92093 155.983965 
L 455.639746 155.323517 
L 460.358562 154.393207 
L 465.077378 153.262032 
L 469.796195 153.262854 
L 474.515011 151.651225 
L 479.233827 150.397049 
L 483.952643 149.319512 
L 488.671459 147.849407 
L 493.390275 147.145666 
L 498.109091 146.540356 
" clip-path="url(#p83c5bf20d9)" style="fill: none; stroke: #8b0a50; stroke-width: 2; stroke-linecap: round"/>
   </g>
   <g id="line2d_15">
    <path d="M 92.290909 340.619501 
L 97.009725 338.571019 
L 101.728541 335.739861 
L 106.447357 333.895547 
L 111.166173 332.379349 
L 115.884989 329.304203 
L 120.603805 326.725357 
L 125.322622 323.880958 
L 130.041438 320.463811 
L 134.760254 317.055862 
L 139.47907 314.161655 
L 144.197886 312.951012 
L 148.916702 312.982334 
L 153.635518 313.999619 
L 158.354334 315.779297 
L 163.07315 317.381695 
L 167.791966 319.064296 
L 172.510782 320.763032 
L 177.229598 322.423771 
L 181.948414 324.040701 
L 186.66723 325.419665 
L 191.386047 326.588367 
L 196.104863 327.494514 
L 200.823679 328.140493 
L 205.542495 328.967425 
L 210.261311 329.507884 
L 214.980127 330.211694 
L 219.698943 330.492044 
L 224.417759 330.880967 
L 229.136575 331.14066 
L 233.855391 331.345851 
L 238.574207 331.616878 
L 243.293023 331.855427 
L 248.011839 331.981361 
L 252.730655 332.241652 
L 257.449471 332.324331 
L 262.168288 332.329794 
L 266.887104 332.366172 
L 271.60592 332.418955 
L 276.324736 332.327816 
L 281.043552 332.375101 
L 285.762368 332.319176 
L 290.481184 332.257009 
L 295.2 332.283791 
L 299.918816 332.150908 
L 304.637632 331.967712 
L 309.356448 331.897162 
L 314.075264 331.870611 
L 318.79408 331.818472 
L 323.512896 331.723366 
L 328.231712 331.686969 
L 332.950529 331.583819 
L 337.669345 331.727935 
L 342.388161 331.629535 
L 347.106977 331.787212 
L 351.825793 331.851038 
L 356.544609 332.050711 
L 361.263425 332.247739 
L 365.982241 332.55363 
L 370.701057 332.766643 
L 375.419873 333.034814 
L 380.138689 333.274263 
L 384.857505 333.515855 
L 389.576321 333.529675 
L 394.295137 333.649772 
L 399.013953 333.786414 
L 403.73277 333.999736 
L 408.451586 334.088694 
L 413.170402 334.301093 
L 417.889218 334.409187 
L 422.608034 334.515837 
L 427.32685 334.649737 
L 432.045666 334.598181 
L 436.764482 334.548255 
L 441.483298 334.696868 
L 446.202114 334.813519 
L 450.92093 334.878601 
L 455.639746 334.867729 
L 460.358562 334.799607 
L 465.077378 334.859562 
L 469.796195 334.744033 
L 474.515011 334.765724 
L 479.233827 334.779963 
L 483.952643 334.785319 
L 488.671459 334.742444 
L 493.390275 334.765295 
L 498.109091 334.832965 
" clip-path="url(#p83c5bf20d9)" style="fill: none; stroke-dasharray: 5.55,2.4; stroke-dashoffset: 0; stroke: #8b0a50; stroke-opacity: 0.8; stroke-width: 1.5"/>
   </g>
   <g id="line2d_16">
    <path d="M 139.47907 378 
L 139.47907 51.84 
" clip-path="url(#p83c5bf20d9)" style="fill: none; stroke-dasharray: 5.55,2.4; stroke-dashoffset: 0; stroke: #808080; stroke-opacity: 0.7; stroke-width: 1.5"/>
   </g>
   <g id="line2d_17">
    <path d="M 375.419873 378 
L 375.419873 51.84 
" clip-path="url(#p83c5bf20d9)" style="fill: none; stroke-dasharray: 5.55,2.4; stroke-dashoffset: 0; stroke: #808080; stroke-opacity: 0.7; stroke-width: 1.5"/>
   </g>
   <g id="patch_3">
    <path d="M 72 378 
L 72 51.84 
" style="fill: none; stroke: #000000; stroke-width: 1.5; stroke-linejoin: miter; stroke-linecap: square"/>
   </g>
   <g id="patch_4">
    <path d="M 72 378 
L 518.4 378 
" style="fill: none; stroke: #000000; stroke-width: 1.5; stroke-linejoin: miter; stroke-linecap: square"/>
   </g>
   <g id="text_14">
    <!-- L2_sactemporal -->
    <g style="fill: #262626" transform="translate(238.093359 45.84) scale(0.15 -0.15)">
     <defs>
      <path id="Arial-BoldMT-4c" d="M 491 0 
L 491 4544 
L 1416 4544 
L 1416 772 
L 3716 772 
L 3716 0 
L 491 0 
z
" transform="scale(0.015625)"/>
      <path id="Arial-BoldMT-32" d="M 3238 816 
L 3238 0 
L 159 0 
Q 209 463 459 877 
Q 709 1291 1447 1975 
Q 2041 2528 2175 2725 
Q 2356 2997 2356 3263 
Q 2356 3556 2198 3714 
Q 2041 3872 1763 3872 
Q 1488 3872 1325 3706 
Q 1163 3541 1138 3156 
L 263 3244 
Q 341 3969 753 4284 
Q 1166 4600 1784 4600 
Q 2463 4600 2850 4234 
Q 3238 3869 3238 3325 
Q 3238 3016 3127 2736 
Q 3016 2456 2775 2150 
Q 2616 1947 2200 1565 
Q 1784 1184 1673 1059 
Q 1563 934 1494 816 
L 3238 816 
z
" transform="scale(0.015625)"/>
      <path id="Arial-BoldMT-5f" d="M -59 -1266 
L -59 -697 
L 3591 -697 
L 3591 -1266 
L -59 -1266 
z
" transform="scale(0.015625)"/>
      <path id="Arial-BoldMT-73" d="M 150 947 
L 1031 1081 
Q 1088 825 1259 692 
Q 1431 559 1741 559 
Q 2081 559 2253 684 
Q 2369 772 2369 919 
Q 2369 1019 2306 1084 
Q 2241 1147 2013 1200 
Q 950 1434 666 1628 
Q 272 1897 272 2375 
Q 272 2806 612 3100 
Q 953 3394 1669 3394 
Q 2350 3394 2681 3172 
Q 3013 2950 3138 2516 
L 2309 2363 
Q 2256 2556 2107 2659 
Q 1959 2763 1684 2763 
Q 1338 2763 1188 2666 
Q 1088 2597 1088 2488 
Q 1088 2394 1175 2328 
Q 1294 2241 1995 2081 
Q 2697 1922 2975 1691 
Q 3250 1456 3250 1038 
Q 3250 581 2869 253 
Q 2488 -75 1741 -75 
Q 1063 -75 667 200 
Q 272 475 150 947 
z
" transform="scale(0.015625)"/>
      <path id="Arial-BoldMT-61" d="M 1116 2306 
L 319 2450 
Q 453 2931 781 3162 
Q 1109 3394 1756 3394 
Q 2344 3394 2631 3255 
Q 2919 3116 3036 2902 
Q 3153 2688 3153 2116 
L 3144 1091 
Q 3144 653 3186 445 
Q 3228 238 3344 0 
L 2475 0 
Q 2441 88 2391 259 
Q 2369 338 2359 363 
Q 2134 144 1878 34 
Q 1622 -75 1331 -75 
Q 819 -75 523 203 
Q 228 481 228 906 
Q 228 1188 362 1408 
Q 497 1628 739 1745 
Q 981 1863 1438 1950 
Q 2053 2066 2291 2166 
L 2291 2253 
Q 2291 2506 2166 2614 
Q 2041 2722 1694 2722 
Q 1459 2722 1328 2630 
Q 1197 2538 1116 2306 
z
M 2291 1594 
Q 2122 1538 1756 1459 
Q 1391 1381 1278 1306 
Q 1106 1184 1106 997 
Q 1106 813 1243 678 
Q 1381 544 1594 544 
Q 1831 544 2047 700 
Q 2206 819 2256 991 
Q 2291 1103 2291 1419 
L 2291 1594 
z
" transform="scale(0.015625)"/>
      <path id="Arial-BoldMT-63" d="M 3353 2338 
L 2488 2181 
Q 2444 2441 2289 2572 
Q 2134 2703 1888 2703 
Q 1559 2703 1364 2476 
Q 1169 2250 1169 1719 
Q 1169 1128 1367 884 
Q 1566 641 1900 641 
Q 2150 641 2309 783 
Q 2469 925 2534 1272 
L 3397 1125 
Q 3263 531 2881 228 
Q 2500 -75 1859 -75 
Q 1131 -75 698 384 
Q 266 844 266 1656 
Q 266 2478 700 2936 
Q 1134 3394 1875 3394 
Q 2481 3394 2839 3133 
Q 3197 2872 3353 2338 
z
" transform="scale(0.015625)"/>
      <path id="Arial-BoldMT-74" d="M 1981 3319 
L 1981 2619 
L 1381 2619 
L 1381 1281 
Q 1381 875 1398 808 
Q 1416 741 1477 697 
Q 1538 653 1625 653 
Q 1747 653 1978 738 
L 2053 56 
Q 1747 -75 1359 -75 
Q 1122 -75 931 4 
Q 741 84 652 211 
Q 563 338 528 553 
Q 500 706 500 1172 
L 500 2619 
L 97 2619 
L 97 3319 
L 500 3319 
L 500 3978 
L 1381 4491 
L 1381 3319 
L 1981 3319 
z
" transform="scale(0.015625)"/>
      <path id="Arial-BoldMT-65" d="M 2381 1056 
L 3256 909 
Q 3088 428 2723 176 
Q 2359 -75 1813 -75 
Q 947 -75 531 491 
Q 203 944 203 1634 
Q 203 2459 634 2926 
Q 1066 3394 1725 3394 
Q 2466 3394 2894 2905 
Q 3322 2416 3303 1406 
L 1103 1406 
Q 1113 1016 1316 798 
Q 1519 581 1822 581 
Q 2028 581 2168 693 
Q 2309 806 2381 1056 
z
M 2431 1944 
Q 2422 2325 2234 2523 
Q 2047 2722 1778 2722 
Q 1491 2722 1303 2513 
Q 1116 2303 1119 1944 
L 2431 1944 
z
" transform="scale(0.015625)"/>
      <path id="Arial-BoldMT-6d" d="M 394 3319 
L 1203 3319 
L 1203 2866 
Q 1638 3394 2238 3394 
Q 2556 3394 2790 3262 
Q 3025 3131 3175 2866 
Q 3394 3131 3647 3262 
Q 3900 3394 4188 3394 
Q 4553 3394 4806 3245 
Q 5059 3097 5184 2809 
Q 5275 2597 5275 2122 
L 5275 0 
L 4397 0 
L 4397 1897 
Q 4397 2391 4306 2534 
Q 4184 2722 3931 2722 
Q 3747 2722 3584 2609 
Q 3422 2497 3350 2280 
Q 3278 2063 3278 1594 
L 3278 0 
L 2400 0 
L 2400 1819 
Q 2400 2303 2353 2443 
Q 2306 2584 2207 2653 
Q 2109 2722 1941 2722 
Q 1738 2722 1575 2612 
Q 1413 2503 1342 2297 
Q 1272 2091 1272 1613 
L 1272 0 
L 394 0 
L 394 3319 
z
" transform="scale(0.015625)"/>
      <path id="Arial-BoldMT-70" d="M 434 3319 
L 1253 3319 
L 1253 2831 
Q 1413 3081 1684 3237 
Q 1956 3394 2288 3394 
Q 2866 3394 3269 2941 
Q 3672 2488 3672 1678 
Q 3672 847 3265 386 
Q 2859 -75 2281 -75 
Q 2006 -75 1782 34 
Q 1559 144 1313 409 
L 1313 -1263 
L 434 -1263 
L 434 3319 
z
M 1303 1716 
Q 1303 1156 1525 889 
Q 1747 622 2066 622 
Q 2372 622 2575 867 
Q 2778 1113 2778 1672 
Q 2778 2194 2568 2447 
Q 2359 2700 2050 2700 
Q 1728 2700 1515 2451 
Q 1303 2203 1303 1716 
z
" transform="scale(0.015625)"/>
      <path id="Arial-BoldMT-6f" d="M 256 1706 
Q 256 2144 472 2553 
Q 688 2963 1083 3178 
Q 1478 3394 1966 3394 
Q 2719 3394 3200 2905 
Q 3681 2416 3681 1669 
Q 3681 916 3195 420 
Q 2709 -75 1972 -75 
Q 1516 -75 1102 131 
Q 688 338 472 736 
Q 256 1134 256 1706 
z
M 1156 1659 
Q 1156 1166 1390 903 
Q 1625 641 1969 641 
Q 2313 641 2545 903 
Q 2778 1166 2778 1666 
Q 2778 2153 2545 2415 
Q 2313 2678 1969 2678 
Q 1625 2678 1390 2415 
Q 1156 2153 1156 1659 
z
" transform="scale(0.015625)"/>
      <path id="Arial-BoldMT-72" d="M 1300 0 
L 422 0 
L 422 3319 
L 1238 3319 
L 1238 2847 
Q 1447 3181 1614 3287 
Q 1781 3394 1994 3394 
Q 2294 3394 2572 3228 
L 2300 2463 
Q 2078 2606 1888 2606 
Q 1703 2606 1575 2504 
Q 1447 2403 1373 2137 
Q 1300 1872 1300 1025 
L 1300 0 
z
" transform="scale(0.015625)"/>
      <path id="Arial-BoldMT-6c" d="M 459 0 
L 459 4581 
L 1338 4581 
L 1338 0 
L 459 0 
z
" transform="scale(0.015625)"/>
     </defs>
     <use xlink:href="#Arial-BoldMT-4c"/>
     <use xlink:href="#Arial-BoldMT-32" x="61.083984"/>
     <use xlink:href="#Arial-BoldMT-5f" x="116.699219"/>
     <use xlink:href="#Arial-BoldMT-73" x="172.314453"/>
     <use xlink:href="#Arial-BoldMT-61" x="227.929688"/>
     <use xlink:href="#Arial-BoldMT-63" x="283.544922"/>
     <use xlink:href="#Arial-BoldMT-74" x="339.160156"/>
     <use xlink:href="#Arial-BoldMT-65" x="372.460938"/>
     <use xlink:href="#Arial-BoldMT-6d" x="428.076172"/>
     <use xlink:href="#Arial-BoldMT-70" x="516.992188"/>
     <use xlink:href="#Arial-BoldMT-6f" x="578.076172"/>
     <use xlink:href="#Arial-BoldMT-72" x="639.160156"/>
     <use xlink:href="#Arial-BoldMT-61" x="678.076172"/>
     <use xlink:href="#Arial-BoldMT-6c" x="733.691406"/>
    </g>
   </g>
  </g>
 </g>
 <defs>
  <clipPath id="p83c5bf20d9">
   <rect x="72" y="51.84" width="446.4" height="326.16"/>
  </clipPath>
 </defs>
</svg>
