<?xml version="1.0" encoding="utf-8" standalone="no"?>
<!DOCTYPE svg PUBLIC "-//W3C//DTD SVG 1.1//EN"
  "http://www.w3.org/Graphics/SVG/1.1/DTD/svg11.dtd">
<svg xmlns:xlink="http://www.w3.org/1999/xlink" width="720pt" height="432pt" viewBox="0 0 720 432" xmlns="http://www.w3.org/2000/svg" version="1.1">
 <metadata>
  <rdf:RDF xmlns:dc="http://purl.org/dc/elements/1.1/" xmlns:cc="http://creativecommons.org/ns#" xmlns:rdf="http://www.w3.org/1999/02/22-rdf-syntax-ns#">
   <cc:Work>
    <dc:type rdf:resource="http://purl.org/dc/dcmitype/StillImage"/>
    <dc:date>2025-09-23T20:52:15.547303</dc:date>
    <dc:format>image/svg+xml</dc:format>
    <dc:creator>
     <cc:Agent>
      <dc:title>Matplotlib v3.9.4, https://matplotlib.org/</dc:title>
     </cc:Agent>
    </dc:creator>
   </cc:Work>
  </rdf:RDF>
 </metadata>
 <defs>
  <style type="text/css">*{stroke-linejoin: round; stroke-linecap: butt}</style>
 </defs>
 <g id="figure_1">
  <g id="patch_1">
   <path d="M 0 432 
L 720 432 
L 720 0 
L 0 0 
z
" style="fill: #ffffff"/>
  </g>
  <g id="axes_1">
   <g id="patch_2">
    <path d="M 78.3 378.18 
L 607.76 378.18 
L 607.76 27.6 
L 78.3 27.6 
L 78.3 378.18 
z
" style="fill: none"/>
   </g>
   <g id="matplotlib.axis_1">
    <g id="xtick_1">
     <g id="text_1">
      <!-- −500 -->
      <g style="fill: #262626" transform="translate(94.819946 398.416719) scale(0.15 -0.15)">
       <defs>
        <path id="ArialMT-2212" d="M 3381 1997 
L 356 1997 
L 356 2522 
L 3381 2522 
L 3381 1997 
z
" transform="scale(0.015625)"/>
        <path id="ArialMT-35" d="M 266 1200 
L 856 1250 
Q 922 819 1161 601 
Q 1400 384 1738 384 
Q 2144 384 2425 690 
Q 2706 997 2706 1503 
Q 2706 1984 2436 2262 
Q 2166 2541 1728 2541 
Q 1456 2541 1237 2417 
Q 1019 2294 894 2097 
L 366 2166 
L 809 4519 
L 3088 4519 
L 3088 3981 
L 1259 3981 
L 1013 2750 
Q 1425 3038 1878 3038 
Q 2478 3038 2890 2622 
Q 3303 2206 3303 1553 
Q 3303 931 2941 478 
Q 2500 -78 1738 -78 
Q 1113 -78 717 272 
Q 322 622 266 1200 
z
" transform="scale(0.015625)"/>
        <path id="ArialMT-30" d="M 266 2259 
Q 266 3072 433 3567 
Q 600 4063 929 4331 
Q 1259 4600 1759 4600 
Q 2128 4600 2406 4451 
Q 2684 4303 2865 4023 
Q 3047 3744 3150 3342 
Q 3253 2941 3253 2259 
Q 3253 1453 3087 958 
Q 2922 463 2592 192 
Q 2263 -78 1759 -78 
Q 1097 -78 719 397 
Q 266 969 266 2259 
z
M 844 2259 
Q 844 1131 1108 757 
Q 1372 384 1759 384 
Q 2147 384 2411 759 
Q 2675 1134 2675 2259 
Q 2675 3391 2411 3762 
Q 2147 4134 1753 4134 
Q 1366 4134 1134 3806 
Q 844 3388 844 2259 
z
" transform="scale(0.015625)"/>
       </defs>
       <use xlink:href="#ArialMT-2212"/>
       <use xlink:href="#ArialMT-35" x="58.398438"/>
       <use xlink:href="#ArialMT-30" x="114.013672"/>
       <use xlink:href="#ArialMT-30" x="169.628906"/>
      </g>
     </g>
    </g>
    <g id="xtick_2">
     <g id="text_2">
      <!-- 0 -->
      <g style="fill: #262626" transform="translate(224.368829 398.416719) scale(0.15 -0.15)">
       <use xlink:href="#ArialMT-30"/>
      </g>
     </g>
    </g>
    <g id="xtick_3">
     <g id="text_3">
      <!-- 500 -->
      <g style="fill: #262626" transform="translate(332.854431 398.416719) scale(0.15 -0.15)">
       <use xlink:href="#ArialMT-35"/>
       <use xlink:href="#ArialMT-30" x="55.615234"/>
       <use xlink:href="#ArialMT-30" x="111.230469"/>
      </g>
     </g>
    </g>
    <g id="xtick_4">
     <g id="text_4">
      <!-- 1000 -->
      <g style="fill: #262626" transform="translate(445.510736 398.416719) scale(0.15 -0.15)">
       <defs>
        <path id="ArialMT-31" d="M 2384 0 
L 1822 0 
L 1822 3584 
Q 1619 3391 1289 3197 
Q 959 3003 697 2906 
L 697 3450 
Q 1169 3672 1522 3987 
Q 1875 4303 2022 4600 
L 2384 4600 
L 2384 0 
z
" transform="scale(0.015625)"/>
       </defs>
       <use xlink:href="#ArialMT-31"/>
       <use xlink:href="#ArialMT-30" x="55.615234"/>
       <use xlink:href="#ArialMT-30" x="111.230469"/>
       <use xlink:href="#ArialMT-30" x="166.845703"/>
      </g>
     </g>
    </g>
    <g id="xtick_5">
     <g id="text_5">
      <!-- 1500 -->
      <g style="fill: #262626" transform="translate(562.337744 398.416719) scale(0.15 -0.15)">
       <use xlink:href="#ArialMT-31"/>
       <use xlink:href="#ArialMT-35" x="55.615234"/>
       <use xlink:href="#ArialMT-30" x="111.230469"/>
       <use xlink:href="#ArialMT-30" x="166.845703"/>
      </g>
     </g>
    </g>
    <g id="text_6">
     <!-- Time (s) -->
     <g style="fill: #262626" transform="translate(315.817891 416.3175) scale(0.15 -0.15)">
      <defs>
       <path id="ArialMT-54" d="M 1659 0 
L 1659 4041 
L 150 4041 
L 150 4581 
L 3781 4581 
L 3781 4041 
L 2266 4041 
L 2266 0 
L 1659 0 
z
" transform="scale(0.015625)"/>
       <path id="ArialMT-69" d="M 425 3934 
L 425 4581 
L 988 4581 
L 988 3934 
L 425 3934 
z
M 425 0 
L 425 3319 
L 988 3319 
L 988 0 
L 425 0 
z
" transform="scale(0.015625)"/>
       <path id="ArialMT-6d" d="M 422 0 
L 422 3319 
L 925 3319 
L 925 2853 
Q 1081 3097 1340 3245 
Q 1600 3394 1931 3394 
Q 2300 3394 2536 3241 
Q 2772 3088 2869 2813 
Q 3263 3394 3894 3394 
Q 4388 3394 4653 3120 
Q 4919 2847 4919 2278 
L 4919 0 
L 4359 0 
L 4359 2091 
Q 4359 2428 4304 2576 
Q 4250 2725 4106 2815 
Q 3963 2906 3769 2906 
Q 3419 2906 3187 2673 
Q 2956 2441 2956 1928 
L 2956 0 
L 2394 0 
L 2394 2156 
Q 2394 2531 2256 2718 
Q 2119 2906 1806 2906 
Q 1569 2906 1367 2781 
Q 1166 2656 1075 2415 
Q 984 2175 984 1722 
L 984 0 
L 422 0 
z
" transform="scale(0.015625)"/>
       <path id="ArialMT-65" d="M 2694 1069 
L 3275 997 
Q 3138 488 2766 206 
Q 2394 -75 1816 -75 
Q 1088 -75 661 373 
Q 234 822 234 1631 
Q 234 2469 665 2931 
Q 1097 3394 1784 3394 
Q 2450 3394 2872 2941 
Q 3294 2488 3294 1666 
Q 3294 1616 3291 1516 
L 816 1516 
Q 847 969 1125 678 
Q 1403 388 1819 388 
Q 2128 388 2347 550 
Q 2566 713 2694 1069 
z
M 847 1978 
L 2700 1978 
Q 2663 2397 2488 2606 
Q 2219 2931 1791 2931 
Q 1403 2931 1139 2672 
Q 875 2413 847 1978 
z
" transform="scale(0.015625)"/>
       <path id="ArialMT-20" transform="scale(0.015625)"/>
       <path id="ArialMT-28" d="M 1497 -1347 
Q 1031 -759 709 28 
Q 388 816 388 1659 
Q 388 2403 628 3084 
Q 909 3875 1497 4659 
L 1900 4659 
Q 1522 4009 1400 3731 
Q 1209 3300 1100 2831 
Q 966 2247 966 1656 
Q 966 153 1900 -1347 
L 1497 -1347 
z
" transform="scale(0.015625)"/>
       <path id="ArialMT-73" d="M 197 991 
L 753 1078 
Q 800 744 1014 566 
Q 1228 388 1613 388 
Q 2000 388 2187 545 
Q 2375 703 2375 916 
Q 2375 1106 2209 1216 
Q 2094 1291 1634 1406 
Q 1016 1563 777 1677 
Q 538 1791 414 1992 
Q 291 2194 291 2438 
Q 291 2659 392 2848 
Q 494 3038 669 3163 
Q 800 3259 1026 3326 
Q 1253 3394 1513 3394 
Q 1903 3394 2198 3281 
Q 2494 3169 2634 2976 
Q 2775 2784 2828 2463 
L 2278 2388 
Q 2241 2644 2061 2787 
Q 1881 2931 1553 2931 
Q 1166 2931 1000 2803 
Q 834 2675 834 2503 
Q 834 2394 903 2306 
Q 972 2216 1119 2156 
Q 1203 2125 1616 2013 
Q 2213 1853 2448 1751 
Q 2684 1650 2818 1456 
Q 2953 1263 2953 975 
Q 2953 694 2789 445 
Q 2625 197 2315 61 
Q 2006 -75 1616 -75 
Q 969 -75 630 194 
Q 291 463 197 991 
z
" transform="scale(0.015625)"/>
       <path id="ArialMT-29" d="M 791 -1347 
L 388 -1347 
Q 1322 153 1322 1656 
Q 1322 2244 1188 2822 
Q 1081 3291 891 3722 
Q 769 4003 388 4659 
L 791 4659 
Q 1378 3875 1659 3084 
Q 1900 2403 1900 1659 
Q 1900 816 1576 28 
Q 1253 -759 791 -1347 
z
" transform="scale(0.015625)"/>
      </defs>
      <use xlink:href="#ArialMT-54"/>
      <use xlink:href="#ArialMT-69" x="57.333984"/>
      <use xlink:href="#ArialMT-6d" x="79.550781"/>
      <use xlink:href="#ArialMT-65" x="162.851562"/>
      <use xlink:href="#ArialMT-20" x="218.466797"/>
      <use xlink:href="#ArialMT-28" x="246.25"/>
      <use xlink:href="#ArialMT-73" x="279.550781"/>
      <use xlink:href="#ArialMT-29" x="329.550781"/>
     </g>
    </g>
   </g>
   <g id="matplotlib.axis_2">
    <g id="ytick_1">
     <g id="text_7">
      <!-- −0.05 -->
      <g style="fill: #262626" transform="translate(30.847656 362.095051) scale(0.15 -0.15)">
       <defs>
        <path id="ArialMT-2e" d="M 581 0 
L 581 641 
L 1222 641 
L 1222 0 
L 581 0 
z
" transform="scale(0.015625)"/>
       </defs>
       <use xlink:href="#ArialMT-2212"/>
       <use xlink:href="#ArialMT-30" x="58.398438"/>
       <use xlink:href="#ArialMT-2e" x="114.013672"/>
       <use xlink:href="#ArialMT-30" x="141.796875"/>
       <use xlink:href="#ArialMT-35" x="197.412109"/>
      </g>
     </g>
    </g>
    <g id="ytick_2">
     <g id="text_8">
      <!-- 0.00 -->
      <g style="fill: #262626" transform="translate(39.608594 311.834464) scale(0.15 -0.15)">
       <use xlink:href="#ArialMT-30"/>
       <use xlink:href="#ArialMT-2e" x="55.615234"/>
       <use xlink:href="#ArialMT-30" x="83.398438"/>
       <use xlink:href="#ArialMT-30" x="139.013672"/>
      </g>
     </g>
    </g>
    <g id="ytick_3">
     <g id="text_9">
      <!-- 0.05 -->
      <g style="fill: #262626" transform="translate(39.608594 261.573877) scale(0.15 -0.15)">
       <use xlink:href="#ArialMT-30"/>
       <use xlink:href="#ArialMT-2e" x="55.615234"/>
       <use xlink:href="#ArialMT-30" x="83.398438"/>
       <use xlink:href="#ArialMT-35" x="139.013672"/>
      </g>
     </g>
    </g>
    <g id="ytick_4">
     <g id="text_10">
      <!-- 0.10 -->
      <g style="fill: #262626" transform="translate(39.608594 211.31329) scale(0.15 -0.15)">
       <use xlink:href="#ArialMT-30"/>
       <use xlink:href="#ArialMT-2e" x="55.615234"/>
       <use xlink:href="#ArialMT-31" x="83.398438"/>
       <use xlink:href="#ArialMT-30" x="139.013672"/>
      </g>
     </g>
    </g>
    <g id="ytick_5">
     <g id="text_11">
      <!-- 0.15 -->
      <g style="fill: #262626" transform="translate(39.608594 161.052703) scale(0.15 -0.15)">
       <use xlink:href="#ArialMT-30"/>
       <use xlink:href="#ArialMT-2e" x="55.615234"/>
       <use xlink:href="#ArialMT-31" x="83.398438"/>
       <use xlink:href="#ArialMT-35" x="139.013672"/>
      </g>
     </g>
    </g>
    <g id="ytick_6">
     <g id="text_12">
      <!-- 0.20 -->
      <g style="fill: #262626" transform="translate(39.608594 110.792116) scale(0.15 -0.15)">
       <defs>
        <path id="ArialMT-32" d="M 3222 541 
L 3222 0 
L 194 0 
Q 188 203 259 391 
Q 375 700 629 1000 
Q 884 1300 1366 1694 
Q 2113 2306 2375 2664 
Q 2638 3022 2638 3341 
Q 2638 3675 2398 3904 
Q 2159 4134 1775 4134 
Q 1369 4134 1125 3890 
Q 881 3647 878 3216 
L 300 3275 
Q 359 3922 746 4261 
Q 1134 4600 1788 4600 
Q 2447 4600 2831 4234 
Q 3216 3869 3216 3328 
Q 3216 3053 3103 2787 
Q 2991 2522 2730 2228 
Q 2469 1934 1863 1422 
Q 1356 997 1212 845 
Q 1069 694 975 541 
L 3222 541 
z
" transform="scale(0.015625)"/>
       </defs>
       <use xlink:href="#ArialMT-30"/>
       <use xlink:href="#ArialMT-2e" x="55.615234"/>
       <use xlink:href="#ArialMT-32" x="83.398438"/>
       <use xlink:href="#ArialMT-30" x="139.013672"/>
      </g>
     </g>
    </g>
    <g id="ytick_7">
     <g id="text_13">
      <!-- 0.25 -->
      <g style="fill: #262626" transform="translate(39.608594 60.531529) scale(0.15 -0.15)">
       <use xlink:href="#ArialMT-30"/>
       <use xlink:href="#ArialMT-2e" x="55.615234"/>
       <use xlink:href="#ArialMT-32" x="83.398438"/>
       <use xlink:href="#ArialMT-35" x="139.013672"/>
      </g>
     </g>
    </g>
    <g id="text_14">
     <!-- Divergence -->
     <g style="fill: #262626" transform="translate(23.690625 240.823594) rotate(-90) scale(0.15 -0.15)">
      <defs>
       <path id="ArialMT-44" d="M 494 0 
L 494 4581 
L 2072 4581 
Q 2606 4581 2888 4516 
Q 3281 4425 3559 4188 
Q 3922 3881 4101 3404 
Q 4281 2928 4281 2316 
Q 4281 1794 4159 1391 
Q 4038 988 3847 723 
Q 3656 459 3429 307 
Q 3203 156 2883 78 
Q 2563 0 2147 0 
L 494 0 
z
M 1100 541 
L 2078 541 
Q 2531 541 2789 625 
Q 3047 709 3200 863 
Q 3416 1078 3536 1442 
Q 3656 1806 3656 2325 
Q 3656 3044 3420 3430 
Q 3184 3816 2847 3947 
Q 2603 4041 2063 4041 
L 1100 4041 
L 1100 541 
z
" transform="scale(0.015625)"/>
       <path id="ArialMT-76" d="M 1344 0 
L 81 3319 
L 675 3319 
L 1388 1331 
Q 1503 1009 1600 663 
Q 1675 925 1809 1294 
L 2547 3319 
L 3125 3319 
L 1869 0 
L 1344 0 
z
" transform="scale(0.015625)"/>
       <path id="ArialMT-72" d="M 416 0 
L 416 3319 
L 922 3319 
L 922 2816 
Q 1116 3169 1280 3281 
Q 1444 3394 1641 3394 
Q 1925 3394 2219 3213 
L 2025 2691 
Q 1819 2813 1613 2813 
Q 1428 2813 1281 2702 
Q 1134 2591 1072 2394 
Q 978 2094 978 1738 
L 978 0 
L 416 0 
z
" transform="scale(0.015625)"/>
       <path id="ArialMT-67" d="M 319 -275 
L 866 -356 
Q 900 -609 1056 -725 
Q 1266 -881 1628 -881 
Q 2019 -881 2231 -725 
Q 2444 -569 2519 -288 
Q 2563 -116 2559 434 
Q 2191 0 1641 0 
Q 956 0 581 494 
Q 206 988 206 1678 
Q 206 2153 378 2554 
Q 550 2956 876 3175 
Q 1203 3394 1644 3394 
Q 2231 3394 2613 2919 
L 2613 3319 
L 3131 3319 
L 3131 450 
Q 3131 -325 2973 -648 
Q 2816 -972 2473 -1159 
Q 2131 -1347 1631 -1347 
Q 1038 -1347 672 -1080 
Q 306 -813 319 -275 
z
M 784 1719 
Q 784 1066 1043 766 
Q 1303 466 1694 466 
Q 2081 466 2343 764 
Q 2606 1063 2606 1700 
Q 2606 2309 2336 2618 
Q 2066 2928 1684 2928 
Q 1309 2928 1046 2623 
Q 784 2319 784 1719 
z
" transform="scale(0.015625)"/>
       <path id="ArialMT-6e" d="M 422 0 
L 422 3319 
L 928 3319 
L 928 2847 
Q 1294 3394 1984 3394 
Q 2284 3394 2536 3286 
Q 2788 3178 2913 3003 
Q 3038 2828 3088 2588 
Q 3119 2431 3119 2041 
L 3119 0 
L 2556 0 
L 2556 2019 
Q 2556 2363 2490 2533 
Q 2425 2703 2258 2804 
Q 2091 2906 1866 2906 
Q 1506 2906 1245 2678 
Q 984 2450 984 1813 
L 984 0 
L 422 0 
z
" transform="scale(0.015625)"/>
       <path id="ArialMT-63" d="M 2588 1216 
L 3141 1144 
Q 3050 572 2676 248 
Q 2303 -75 1759 -75 
Q 1078 -75 664 370 
Q 250 816 250 1647 
Q 250 2184 428 2587 
Q 606 2991 970 3192 
Q 1334 3394 1763 3394 
Q 2303 3394 2647 3120 
Q 2991 2847 3088 2344 
L 2541 2259 
Q 2463 2594 2264 2762 
Q 2066 2931 1784 2931 
Q 1359 2931 1093 2626 
Q 828 2322 828 1663 
Q 828 994 1084 691 
Q 1341 388 1753 388 
Q 2084 388 2306 591 
Q 2528 794 2588 1216 
z
" transform="scale(0.015625)"/>
      </defs>
      <use xlink:href="#ArialMT-44"/>
      <use xlink:href="#ArialMT-69" x="72.216797"/>
      <use xlink:href="#ArialMT-76" x="94.433594"/>
      <use xlink:href="#ArialMT-65" x="144.433594"/>
      <use xlink:href="#ArialMT-72" x="200.048828"/>
      <use xlink:href="#ArialMT-67" x="233.349609"/>
      <use xlink:href="#ArialMT-65" x="288.964844"/>
      <use xlink:href="#ArialMT-6e" x="344.580078"/>
      <use xlink:href="#ArialMT-63" x="400.195312"/>
      <use xlink:href="#ArialMT-65" x="450.195312"/>
     </g>
    </g>
   </g>
   <g id="PolyCollection_1">
    <defs>
     <path id="m77dcf834fd" d="M 102.366364 -110.639305 
L 102.366364 -69.755455 
L 107.039444 -114.186172 
L 111.712524 -119.125908 
L 116.385605 -120.590857 
L 121.058685 -121.840483 
L 125.731765 -122.766508 
L 130.404846 -117.763473 
L 135.077926 -121.842683 
L 139.751006 -124.465262 
L 144.424086 -124.811796 
L 149.097167 -122.634416 
L 153.770247 -123.215384 
L 158.443327 -124.380549 
L 163.116408 -122.614866 
L 167.789488 -124.7297 
L 172.462568 -120.056712 
L 177.135649 -114.766406 
L 181.808729 -126.012361 
L 186.481809 -123.677527 
L 191.15489 -113.924691 
L 195.82797 -124.544584 
L 200.50105 -126.351264 
L 205.174131 -122.215942 
L 209.847211 -123.97039 
L 214.520291 -119.35198 
L 219.193372 -125.027529 
L 223.866452 -120.212328 
L 228.539532 -135.963433 
L 233.212613 -135.252776 
L 237.885693 -126.745045 
L 242.558773 -116.000918 
L 247.231853 -113.470085 
L 251.904934 -131.628651 
L 256.578014 -171.674632 
L 261.251094 -194.873667 
L 265.924175 -205.295533 
L 270.597255 -230.669292 
L 275.270335 -243.881252 
L 279.943416 -214.92644 
L 284.616496 -181.503362 
L 289.289576 -142.501934 
L 293.962657 -147.832726 
L 298.635737 -147.770171 
L 303.308817 -161.864976 
L 307.981898 -204.630814 
L 312.654978 -225.438433 
L 317.328058 -199.826836 
L 322.001139 -190.580143 
L 326.674219 -224.949451 
L 331.347299 -235.264449 
L 336.02038 -251.560245 
L 340.69346 -259.045998 
L 345.36654 -249.00267 
L 350.03962 -273.334321 
L 354.712701 -288.093833 
L 359.385781 -266.74116 
L 364.058861 -261.296492 
L 368.731942 -256.152934 
L 373.405022 -264.471651 
L 378.078102 -273.745191 
L 382.751183 -295.163699 
L 387.424263 -292.938398 
L 392.097343 -262.890381 
L 396.770424 -240.718251 
L 401.443504 -231.871582 
L 406.116584 -239.386508 
L 410.789665 -239.382528 
L 415.462745 -211.175008 
L 420.135825 -204.929074 
L 424.808906 -199.129656 
L 429.481986 -226.220191 
L 434.155066 -245.126407 
L 438.828147 -271.895759 
L 443.501227 -271.607273 
L 448.174307 -274.495018 
L 452.847387 -260.70352 
L 457.520468 -255.39778 
L 462.193548 -222.824938 
L 466.866628 -158.566745 
L 471.539709 -126.918737 
L 476.212789 -210.499768 
L 480.885869 -166.402115 
L 485.55895 -93.860492 
L 490.23203 -110.953664 
L 494.90511 -131.920713 
L 499.578191 -119.176785 
L 504.251271 -110.83189 
L 508.924351 -114.612817 
L 513.597432 -123.226979 
L 518.270512 -124.278004 
L 522.943592 -122.147955 
L 527.616673 -127.129758 
L 532.289753 -117.939745 
L 536.962833 -113.997066 
L 541.635914 -121.759118 
L 546.308994 -124.260895 
L 550.982074 -120.286473 
L 555.655154 -120.89936 
L 560.328235 -131.494679 
L 565.001315 -123.946588 
L 569.674395 -120.228272 
L 574.347476 -110.472403 
L 579.020556 -122.786169 
L 583.693636 -122.243248 
L 583.693636 -130.467195 
L 583.693636 -130.467195 
L 579.020556 -132.88357 
L 574.347476 -118.423921 
L 569.674395 -126.209159 
L 565.001315 -131.879445 
L 560.328235 -138.695464 
L 555.655154 -128.139919 
L 550.982074 -127.772829 
L 546.308994 -131.85637 
L 541.635914 -128.960582 
L 536.962833 -122.7595 
L 532.289753 -124.823037 
L 527.616673 -135.799667 
L 522.943592 -130.911698 
L 518.270512 -131.018585 
L 513.597432 -133.865231 
L 508.924351 -122.916309 
L 504.251271 -118.922457 
L 499.578191 -126.71427 
L 494.90511 -141.78666 
L 490.23203 -131.373913 
L 485.55895 -116.048758 
L 480.885869 -190.096076 
L 476.212789 -243.149368 
L 471.539709 -158.092998 
L 466.866628 -199.417959 
L 462.193548 -244.094056 
L 457.520468 -283.61379 
L 452.847387 -295.681149 
L 448.174307 -311.805522 
L 443.501227 -309.146903 
L 438.828147 -307.403298 
L 434.155066 -275.029558 
L 429.481986 -253.400174 
L 424.808906 -224.760853 
L 420.135825 -233.093178 
L 415.462745 -238.122856 
L 410.789665 -264.885108 
L 406.116584 -265.844835 
L 401.443504 -262.707876 
L 396.770424 -274.12653 
L 392.097343 -298.896241 
L 387.424263 -327.54366 
L 382.751183 -329.621392 
L 378.078102 -303.109802 
L 373.405022 -293.66807 
L 368.731942 -289.397011 
L 364.058861 -297.662677 
L 359.385781 -301.963509 
L 354.712701 -321.309639 
L 350.03962 -305.738733 
L 345.36654 -281.640494 
L 340.69346 -286.839994 
L 336.02038 -275.924114 
L 331.347299 -259.085592 
L 326.674219 -248.498209 
L 322.001139 -215.888208 
L 317.328058 -224.608104 
L 312.654978 -252.392817 
L 307.981898 -226.839331 
L 303.308817 -183.403405 
L 298.635737 -168.888033 
L 293.962657 -169.885511 
L 289.289576 -169.733763 
L 284.616496 -207.140282 
L 279.943416 -241.468097 
L 275.270335 -270.302792 
L 270.597255 -256.459693 
L 265.924175 -230.872605 
L 261.251094 -220.840319 
L 256.578014 -196.287164 
L 251.904934 -150.974938 
L 247.231853 -136.261514 
L 242.558773 -134.405325 
L 237.885693 -146.943617 
L 233.212613 -149.326679 
L 228.539532 -149.586621 
L 223.866452 -126.038981 
L 219.193372 -133.044227 
L 214.520291 -125.465153 
L 209.847211 -131.616762 
L 205.174131 -129.072543 
L 200.50105 -134.909215 
L 195.82797 -131.204537 
L 191.15489 -131.479474 
L 186.481809 -128.757554 
L 181.808729 -133.819614 
L 177.135649 -120.570236 
L 172.462568 -126.61527 
L 167.789488 -131.222932 
L 163.116408 -128.825308 
L 158.443327 -133.633583 
L 153.770247 -129.586749 
L 149.097167 -129.416082 
L 144.424086 -132.734179 
L 139.751006 -129.991039 
L 135.077926 -129.140946 
L 130.404846 -124.902818 
L 125.731765 -127.662568 
L 121.058685 -128.205341 
L 116.385605 -127.963328 
L 111.712524 -127.028326 
L 107.039444 -123.545354 
L 102.366364 -110.639305 
z
" style="stroke: #eb6ab0; stroke-opacity: 0.1"/>
    </defs>
    <g clip-path="url(#pb2dd2a7e14)">
     <use xlink:href="#m77dcf834fd" x="0" y="432" style="fill: #eb6ab0; fill-opacity: 0.1; stroke: #eb6ab0; stroke-opacity: 0.1"/>
    </g>
   </g>
   <g id="PolyCollection_2">
    <defs>
     <path id="m8e3f56d635" d="M 102.366364 -127.401351 
L 102.366364 -123.84619 
L 107.039444 -124.427431 
L 111.712524 -125.179732 
L 116.385605 -125.576962 
L 121.058685 -125.05088 
L 125.731765 -124.608144 
L 130.404846 -125.234241 
L 135.077926 -125.108987 
L 139.751006 -125.762941 
L 144.424086 -124.930388 
L 149.097167 -125.661644 
L 153.770247 -124.677864 
L 158.443327 -125.357304 
L 163.116408 -125.370146 
L 167.789488 -124.460011 
L 172.462568 -124.684146 
L 177.135649 -125.397159 
L 181.808729 -125.693316 
L 186.481809 -125.588577 
L 191.15489 -124.113858 
L 195.82797 -125.952579 
L 200.50105 -125.13375 
L 205.174131 -125.042213 
L 209.847211 -125.108027 
L 214.520291 -124.87818 
L 219.193372 -124.469012 
L 223.866452 -124.838871 
L 228.539532 -130.125383 
L 233.212613 -131.281361 
L 237.885693 -130.203615 
L 242.558773 -131.908593 
L 247.231853 -134.79222 
L 251.904934 -135.737655 
L 256.578014 -134.061035 
L 261.251094 -131.882492 
L 265.924175 -133.266164 
L 270.597255 -132.944998 
L 275.270335 -132.105972 
L 279.943416 -134.191413 
L 284.616496 -135.122765 
L 289.289576 -136.545258 
L 293.962657 -137.488554 
L 298.635737 -136.910383 
L 303.308817 -136.907195 
L 307.981898 -134.202364 
L 312.654978 -132.080799 
L 317.328058 -131.681108 
L 322.001139 -134.130742 
L 326.674219 -137.132966 
L 331.347299 -134.045073 
L 336.02038 -132.05291 
L 340.69346 -132.029505 
L 345.36654 -131.910012 
L 350.03962 -131.779407 
L 354.712701 -132.035689 
L 359.385781 -131.608118 
L 364.058861 -131.259241 
L 368.731942 -130.887779 
L 373.405022 -133.359953 
L 378.078102 -132.566906 
L 382.751183 -135.516914 
L 387.424263 -137.694431 
L 392.097343 -139.173887 
L 396.770424 -141.191161 
L 401.443504 -140.140224 
L 406.116584 -136.126295 
L 410.789665 -133.062893 
L 415.462745 -134.013166 
L 420.135825 -131.592443 
L 424.808906 -128.318113 
L 429.481986 -130.8537 
L 434.155066 -132.323598 
L 438.828147 -134.254073 
L 443.501227 -136.725744 
L 448.174307 -136.437864 
L 452.847387 -135.975391 
L 457.520468 -131.108667 
L 462.193548 -125.163596 
L 466.866628 -122.661787 
L 471.539709 -123.314784 
L 476.212789 -127.309956 
L 480.885869 -126.35231 
L 485.55895 -125.32477 
L 490.23203 -124.900086 
L 494.90511 -126.506217 
L 499.578191 -124.201793 
L 504.251271 -123.848094 
L 508.924351 -124.609309 
L 513.597432 -125.714099 
L 518.270512 -126.028515 
L 522.943592 -124.699764 
L 527.616673 -125.354525 
L 532.289753 -125.626747 
L 536.962833 -124.460089 
L 541.635914 -125.421137 
L 546.308994 -126.289978 
L 550.982074 -124.756624 
L 555.655154 -124.658606 
L 560.328235 -124.19038 
L 565.001315 -125.62341 
L 569.674395 -125.145513 
L 574.347476 -125.151933 
L 579.020556 -125.006809 
L 583.693636 -124.610308 
L 583.693636 -125.509543 
L 583.693636 -125.509543 
L 579.020556 -125.754192 
L 574.347476 -126.360637 
L 569.674395 -126.396892 
L 565.001315 -126.495654 
L 560.328235 -125.19023 
L 555.655154 -125.512406 
L 550.982074 -125.594895 
L 546.308994 -127.266668 
L 541.635914 -126.406966 
L 536.962833 -125.249908 
L 532.289753 -126.582171 
L 527.616673 -126.086632 
L 522.943592 -125.652005 
L 518.270512 -126.839257 
L 513.597432 -126.496013 
L 508.924351 -125.505664 
L 504.251271 -124.848587 
L 499.578191 -125.194207 
L 494.90511 -127.524758 
L 490.23203 -126.051736 
L 485.55895 -126.971063 
L 480.885869 -127.286312 
L 476.212789 -128.716247 
L 471.539709 -125.083836 
L 466.866628 -125.042076 
L 462.193548 -126.331306 
L 457.520468 -133.43613 
L 452.847387 -138.628551 
L 448.174307 -139.314959 
L 443.501227 -139.605271 
L 438.828147 -137.076072 
L 434.155066 -134.954517 
L 429.481986 -133.367625 
L 424.808906 -130.802512 
L 420.135825 -134.027587 
L 415.462745 -136.494007 
L 410.789665 -135.488 
L 406.116584 -138.988714 
L 401.443504 -143.716728 
L 396.770424 -144.373551 
L 392.097343 -141.651504 
L 387.424263 -140.144825 
L 382.751183 -137.9544 
L 378.078102 -135.284491 
L 373.405022 -136.150313 
L 368.731942 -133.25879 
L 364.058861 -133.523125 
L 359.385781 -133.989 
L 354.712701 -134.351065 
L 350.03962 -134.065698 
L 345.36654 -134.404962 
L 340.69346 -134.338496 
L 336.02038 -134.251622 
L 331.347299 -136.461317 
L 326.674219 -139.835608 
L 322.001139 -136.66074 
L 317.328058 -133.903253 
L 312.654978 -134.569393 
L 307.981898 -136.907845 
L 303.308817 -139.689336 
L 298.635737 -139.715409 
L 293.962657 -140.161084 
L 289.289576 -139.12675 
L 284.616496 -137.621332 
L 279.943416 -136.984646 
L 275.270335 -134.704148 
L 270.597255 -135.388324 
L 265.924175 -135.819249 
L 261.251094 -134.338314 
L 256.578014 -136.811137 
L 251.904934 -139.049903 
L 247.231853 -138.662472 
L 242.558773 -135.497139 
L 237.885693 -133.046008 
L 233.212613 -135.342617 
L 228.539532 -134.1331 
L 223.866452 -125.823318 
L 219.193372 -125.307836 
L 214.520291 -125.695036 
L 209.847211 -125.867712 
L 205.174131 -125.821864 
L 200.50105 -125.983067 
L 195.82797 -126.73688 
L 191.15489 -125.833568 
L 186.481809 -126.225363 
L 181.808729 -126.959375 
L 177.135649 -126.022535 
L 172.462568 -125.370073 
L 167.789488 -125.732458 
L 163.116408 -126.285134 
L 158.443327 -126.234602 
L 153.770247 -125.417931 
L 149.097167 -126.341029 
L 144.424086 -125.677937 
L 139.751006 -126.575542 
L 135.077926 -126.030724 
L 130.404846 -125.982627 
L 125.731765 -125.25933 
L 121.058685 -125.756392 
L 116.385605 -126.383503 
L 111.712524 -126.077989 
L 107.039444 -125.420857 
L 102.366364 -127.401351 
z
" style="stroke: #eb6ab0; stroke-opacity: 0.1"/>
    </defs>
    <g clip-path="url(#pb2dd2a7e14)">
     <use xlink:href="#m8e3f56d635" x="0" y="432" style="fill: #eb6ab0; fill-opacity: 0.1; stroke: #eb6ab0; stroke-opacity: 0.1"/>
    </g>
   </g>
   <g id="PathCollection_1">
    <defs>
     <path id="m0865b9009c" d="M 0 -3 
L -0.673542 -0.927051 
L -2.85317 -0.927051 
L -1.089814 0.354102 
L -1.763356 2.427051 
L -0 1.145898 
L 1.763356 2.427051 
L 1.089814 0.354102 
L 2.85317 -0.927051 
L 0.673542 -0.927051 
z
" style="stroke: #eb6ab0"/>
    </defs>
    <g clip-path="url(#pb2dd2a7e14)">
     <use xlink:href="#m0865b9009c" x="256.578014" y="316.518222" style="fill: #eb6ab0; stroke: #eb6ab0"/>
     <use xlink:href="#m0865b9009c" x="261.251094" y="316.518222" style="fill: #eb6ab0; stroke: #eb6ab0"/>
     <use xlink:href="#m0865b9009c" x="265.924175" y="316.518222" style="fill: #eb6ab0; stroke: #eb6ab0"/>
     <use xlink:href="#m0865b9009c" x="270.597255" y="316.518222" style="fill: #eb6ab0; stroke: #eb6ab0"/>
     <use xlink:href="#m0865b9009c" x="275.270335" y="316.518222" style="fill: #eb6ab0; stroke: #eb6ab0"/>
     <use xlink:href="#m0865b9009c" x="279.943416" y="316.518222" style="fill: #eb6ab0; stroke: #eb6ab0"/>
     <use xlink:href="#m0865b9009c" x="284.616496" y="316.518222" style="fill: #eb6ab0; stroke: #eb6ab0"/>
     <use xlink:href="#m0865b9009c" x="303.308817" y="316.518222" style="fill: #eb6ab0; stroke: #eb6ab0"/>
     <use xlink:href="#m0865b9009c" x="307.981898" y="316.518222" style="fill: #eb6ab0; stroke: #eb6ab0"/>
     <use xlink:href="#m0865b9009c" x="312.654978" y="316.518222" style="fill: #eb6ab0; stroke: #eb6ab0"/>
     <use xlink:href="#m0865b9009c" x="317.328058" y="316.518222" style="fill: #eb6ab0; stroke: #eb6ab0"/>
     <use xlink:href="#m0865b9009c" x="322.001139" y="316.518222" style="fill: #eb6ab0; stroke: #eb6ab0"/>
     <use xlink:href="#m0865b9009c" x="326.674219" y="316.518222" style="fill: #eb6ab0; stroke: #eb6ab0"/>
     <use xlink:href="#m0865b9009c" x="331.347299" y="316.518222" style="fill: #eb6ab0; stroke: #eb6ab0"/>
     <use xlink:href="#m0865b9009c" x="336.02038" y="316.518222" style="fill: #eb6ab0; stroke: #eb6ab0"/>
     <use xlink:href="#m0865b9009c" x="340.69346" y="316.518222" style="fill: #eb6ab0; stroke: #eb6ab0"/>
     <use xlink:href="#m0865b9009c" x="345.36654" y="316.518222" style="fill: #eb6ab0; stroke: #eb6ab0"/>
     <use xlink:href="#m0865b9009c" x="350.03962" y="316.518222" style="fill: #eb6ab0; stroke: #eb6ab0"/>
     <use xlink:href="#m0865b9009c" x="354.712701" y="316.518222" style="fill: #eb6ab0; stroke: #eb6ab0"/>
     <use xlink:href="#m0865b9009c" x="359.385781" y="316.518222" style="fill: #eb6ab0; stroke: #eb6ab0"/>
     <use xlink:href="#m0865b9009c" x="364.058861" y="316.518222" style="fill: #eb6ab0; stroke: #eb6ab0"/>
     <use xlink:href="#m0865b9009c" x="368.731942" y="316.518222" style="fill: #eb6ab0; stroke: #eb6ab0"/>
     <use xlink:href="#m0865b9009c" x="373.405022" y="316.518222" style="fill: #eb6ab0; stroke: #eb6ab0"/>
     <use xlink:href="#m0865b9009c" x="378.078102" y="316.518222" style="fill: #eb6ab0; stroke: #eb6ab0"/>
     <use xlink:href="#m0865b9009c" x="382.751183" y="316.518222" style="fill: #eb6ab0; stroke: #eb6ab0"/>
     <use xlink:href="#m0865b9009c" x="387.424263" y="316.518222" style="fill: #eb6ab0; stroke: #eb6ab0"/>
     <use xlink:href="#m0865b9009c" x="392.097343" y="316.518222" style="fill: #eb6ab0; stroke: #eb6ab0"/>
     <use xlink:href="#m0865b9009c" x="396.770424" y="316.518222" style="fill: #eb6ab0; stroke: #eb6ab0"/>
     <use xlink:href="#m0865b9009c" x="401.443504" y="316.518222" style="fill: #eb6ab0; stroke: #eb6ab0"/>
     <use xlink:href="#m0865b9009c" x="406.116584" y="316.518222" style="fill: #eb6ab0; stroke: #eb6ab0"/>
     <use xlink:href="#m0865b9009c" x="410.789665" y="316.518222" style="fill: #eb6ab0; stroke: #eb6ab0"/>
     <use xlink:href="#m0865b9009c" x="415.462745" y="316.518222" style="fill: #eb6ab0; stroke: #eb6ab0"/>
     <use xlink:href="#m0865b9009c" x="420.135825" y="316.518222" style="fill: #eb6ab0; stroke: #eb6ab0"/>
     <use xlink:href="#m0865b9009c" x="424.808906" y="316.518222" style="fill: #eb6ab0; stroke: #eb6ab0"/>
     <use xlink:href="#m0865b9009c" x="429.481986" y="316.518222" style="fill: #eb6ab0; stroke: #eb6ab0"/>
     <use xlink:href="#m0865b9009c" x="434.155066" y="316.518222" style="fill: #eb6ab0; stroke: #eb6ab0"/>
     <use xlink:href="#m0865b9009c" x="438.828147" y="316.518222" style="fill: #eb6ab0; stroke: #eb6ab0"/>
     <use xlink:href="#m0865b9009c" x="443.501227" y="316.518222" style="fill: #eb6ab0; stroke: #eb6ab0"/>
     <use xlink:href="#m0865b9009c" x="448.174307" y="316.518222" style="fill: #eb6ab0; stroke: #eb6ab0"/>
     <use xlink:href="#m0865b9009c" x="452.847387" y="316.518222" style="fill: #eb6ab0; stroke: #eb6ab0"/>
     <use xlink:href="#m0865b9009c" x="457.520468" y="316.518222" style="fill: #eb6ab0; stroke: #eb6ab0"/>
     <use xlink:href="#m0865b9009c" x="462.193548" y="316.518222" style="fill: #eb6ab0; stroke: #eb6ab0"/>
     <use xlink:href="#m0865b9009c" x="476.212789" y="316.518222" style="fill: #eb6ab0; stroke: #eb6ab0"/>
     <use xlink:href="#m0865b9009c" x="480.885869" y="316.518222" style="fill: #eb6ab0; stroke: #eb6ab0"/>
    </g>
   </g>
   <g id="PolyCollection_3">
    <defs>
     <path id="m488fed5caa" d="M 102.366364 -151.749211 
L 102.366364 -126.14485 
L 107.039444 -156.264725 
L 111.712524 -134.562895 
L 116.385605 -131.214933 
L 121.058685 -110.251577 
L 125.731765 -106.276924 
L 130.404846 -116.685993 
L 135.077926 -135.599656 
L 139.751006 -98.94517 
L 144.424086 -106.641469 
L 149.097167 -88.056672 
L 153.770247 -94.950297 
L 158.443327 -97.61092 
L 163.116408 -103.340996 
L 167.789488 -79.287503 
L 172.462568 -71.435519 
L 177.135649 -70.149896 
L 181.808729 -91.7809 
L 186.481809 -107.255485 
L 191.15489 -112.071385 
L 195.82797 -108.827114 
L 200.50105 -119.069688 
L 205.174131 -111.5336 
L 209.847211 -114.26608 
L 214.520291 -128.40092 
L 219.193372 -122.524454 
L 223.866452 -110.138596 
L 228.539532 -120.972111 
L 233.212613 -127.551746 
L 237.885693 -124.937443 
L 242.558773 -112.769891 
L 247.231853 -118.439822 
L 251.904934 -150.461629 
L 256.578014 -149.039636 
L 261.251094 -155.608684 
L 265.924175 -151.12377 
L 270.597255 -158.058908 
L 275.270335 -155.869398 
L 279.943416 -156.764183 
L 284.616496 -147.957409 
L 289.289576 -167.517978 
L 293.962657 -176.993817 
L 298.635737 -180.876656 
L 303.308817 -179.266279 
L 307.981898 -179.607843 
L 312.654978 -177.446396 
L 317.328058 -174.319364 
L 322.001139 -180.575009 
L 326.674219 -180.771831 
L 331.347299 -184.873928 
L 336.02038 -195.702426 
L 340.69346 -204.439611 
L 345.36654 -206.614674 
L 350.03962 -215.87873 
L 354.712701 -226.232038 
L 359.385781 -227.011484 
L 364.058861 -234.775907 
L 368.731942 -239.593872 
L 373.405022 -246.154326 
L 378.078102 -249.995563 
L 382.751183 -250.444186 
L 387.424263 -259.906656 
L 392.097343 -270.360499 
L 396.770424 -278.211183 
L 401.443504 -283.364345 
L 406.116584 -285.503842 
L 410.789665 -294.905322 
L 415.462745 -296.91937 
L 420.135825 -294.645311 
L 424.808906 -296.50524 
L 429.481986 -300.562224 
L 434.155066 -302.219233 
L 438.828147 -301.840868 
L 443.501227 -297.196622 
L 448.174307 -301.420674 
L 452.847387 -309.203153 
L 457.520468 -321.540846 
L 462.193548 -318.966532 
L 466.866628 -317.651347 
L 471.539709 -324.709028 
L 476.212789 -317.466192 
L 480.885869 -315.754313 
L 485.55895 -314.274002 
L 490.23203 -314.765578 
L 494.90511 -321.2298 
L 499.578191 -319.334013 
L 504.251271 -308.001336 
L 508.924351 -317.477887 
L 513.597432 -317.736855 
L 518.270512 -317.016074 
L 522.943592 -314.805533 
L 527.616673 -299.657739 
L 532.289753 -297.461985 
L 536.962833 -294.862391 
L 541.635914 -299.834703 
L 546.308994 -303.683063 
L 550.982074 -310.605179 
L 555.655154 -311.477822 
L 560.328235 -308.562741 
L 565.001315 -310.045924 
L 569.674395 -312.05213 
L 574.347476 -316.758315 
L 579.020556 -316.802488 
L 583.693636 -320.544536 
L 583.693636 -388.397902 
L 583.693636 -388.397902 
L 579.020556 -382.547517 
L 574.347476 -383.175505 
L 569.674395 -380.663888 
L 565.001315 -378.57782 
L 560.328235 -375.815959 
L 555.655154 -379.866189 
L 550.982074 -379.801496 
L 546.308994 -372.285969 
L 541.635914 -368.833687 
L 536.962833 -364.503772 
L 532.289753 -367.126747 
L 527.616673 -369.822236 
L 522.943592 -380.939598 
L 518.270512 -382.016517 
L 513.597432 -384.136707 
L 508.924351 -382.678967 
L 504.251271 -374.128801 
L 499.578191 -383.821599 
L 494.90511 -385.769473 
L 490.23203 -382.058405 
L 485.55895 -380.553274 
L 480.885869 -383.565343 
L 476.212789 -386.786668 
L 471.539709 -388.464545 
L 466.866628 -378.50098 
L 462.193548 -380.909555 
L 457.520468 -381.963647 
L 452.847387 -368.535519 
L 448.174307 -360.813207 
L 443.501227 -354.839224 
L 438.828147 -357.163251 
L 434.155066 -356.819772 
L 429.481986 -354.556393 
L 424.808906 -348.991968 
L 420.135825 -345.565147 
L 415.462745 -345.812593 
L 410.789665 -342.910089 
L 406.116584 -332.390168 
L 401.443504 -329.540943 
L 396.770424 -323.853073 
L 392.097343 -314.66544 
L 387.424263 -303.781266 
L 382.751183 -291.806037 
L 378.078102 -288.349505 
L 373.405022 -283.517636 
L 368.731942 -276.370999 
L 364.058861 -268.957733 
L 359.385781 -259.534015 
L 354.712701 -259.167873 
L 350.03962 -249.02685 
L 345.36654 -238.422513 
L 340.69346 -235.629501 
L 336.02038 -226.155525 
L 331.347299 -216.153973 
L 326.674219 -210.595579 
L 322.001139 -210.127905 
L 317.328058 -202.181914 
L 312.654978 -206.447259 
L 307.981898 -207.820447 
L 303.308817 -205.400359 
L 298.635737 -206.291143 
L 293.962657 -203.441791 
L 289.289576 -194.247006 
L 284.616496 -173.29485 
L 279.943416 -182.493568 
L 275.270335 -186.075586 
L 270.597255 -181.424547 
L 265.924175 -174.997214 
L 261.251094 -182.61943 
L 256.578014 -184.407137 
L 251.904934 -188.215944 
L 247.231853 -161.594861 
L 242.558773 -153.332475 
L 237.885693 -157.188573 
L 233.212613 -165.222493 
L 228.539532 -150.604347 
L 223.866452 -142.616171 
L 219.193372 -155.155895 
L 214.520291 -160.965606 
L 209.847211 -142.318371 
L 205.174131 -138.803596 
L 200.50105 -146.093557 
L 195.82797 -137.103864 
L 191.15489 -142.151836 
L 186.481809 -137.928981 
L 181.808729 -122.638678 
L 177.135649 -104.693562 
L 172.462568 -110.550832 
L 167.789488 -111.120785 
L 163.116408 -141.923181 
L 158.443327 -131.839903 
L 153.770247 -129.363901 
L 149.097167 -123.679508 
L 144.424086 -146.464106 
L 139.751006 -143.709305 
L 135.077926 -180.293114 
L 130.404846 -154.077405 
L 125.731765 -149.836978 
L 121.058685 -156.374445 
L 116.385605 -178.915276 
L 111.712524 -189.158079 
L 107.039444 -201.228346 
L 102.366364 -151.749211 
z
" style="stroke: #8b0a50; stroke-opacity: 0.1"/>
    </defs>
    <g clip-path="url(#pb2dd2a7e14)">
     <use xlink:href="#m488fed5caa" x="0" y="432" style="fill: #8b0a50; fill-opacity: 0.1; stroke: #8b0a50; stroke-opacity: 0.1"/>
    </g>
   </g>
   <g id="PolyCollection_4">
    <defs>
     <path id="m1d69ff5089" d="M 102.366364 -126.03979 
L 102.366364 -122.205392 
L 107.039444 -122.830577 
L 111.712524 -123.853246 
L 116.385605 -123.867836 
L 121.058685 -124.209642 
L 125.731765 -125.332703 
L 130.404846 -127.859558 
L 135.077926 -126.600874 
L 139.751006 -125.773094 
L 144.424086 -127.399896 
L 149.097167 -128.931196 
L 153.770247 -129.40071 
L 158.443327 -130.436124 
L 163.116408 -131.11492 
L 167.789488 -131.521507 
L 172.462568 -131.852613 
L 177.135649 -131.814806 
L 181.808729 -132.161273 
L 186.481809 -133.645087 
L 191.15489 -133.545772 
L 195.82797 -135.006825 
L 200.50105 -136.681159 
L 205.174131 -138.653944 
L 209.847211 -140.379943 
L 214.520291 -142.265311 
L 219.193372 -144.458891 
L 223.866452 -146.706734 
L 228.539532 -149.60122 
L 233.212613 -151.182823 
L 237.885693 -153.367516 
L 242.558773 -152.863722 
L 247.231853 -152.088854 
L 251.904934 -151.770693 
L 256.578014 -150.619261 
L 261.251094 -150.411924 
L 265.924175 -148.69175 
L 270.597255 -148.56425 
L 275.270335 -148.928704 
L 279.943416 -148.426776 
L 284.616496 -148.350596 
L 289.289576 -146.503583 
L 293.962657 -146.79731 
L 298.635737 -145.29554 
L 303.308817 -145.962743 
L 307.981898 -144.813312 
L 312.654978 -144.639751 
L 317.328058 -144.338217 
L 322.001139 -144.847308 
L 326.674219 -144.184436 
L 331.347299 -143.573525 
L 336.02038 -143.655508 
L 340.69346 -144.142136 
L 345.36654 -144.004125 
L 350.03962 -144.663094 
L 354.712701 -145.386502 
L 359.385781 -145.688915 
L 364.058861 -145.517379 
L 368.731942 -145.934227 
L 373.405022 -145.023828 
L 378.078102 -145.181739 
L 382.751183 -144.761722 
L 387.424263 -144.759605 
L 392.097343 -144.818667 
L 396.770424 -144.802534 
L 401.443504 -145.409998 
L 406.116584 -145.514375 
L 410.789665 -145.530615 
L 415.462745 -145.22427 
L 420.135825 -145.903744 
L 424.808906 -145.593074 
L 429.481986 -145.847703 
L 434.155066 -145.476444 
L 438.828147 -144.033688 
L 443.501227 -142.988837 
L 448.174307 -142.303234 
L 452.847387 -141.789683 
L 457.520468 -140.870233 
L 462.193548 -140.019886 
L 466.866628 -139.122344 
L 471.539709 -138.138626 
L 476.212789 -137.951752 
L 480.885869 -136.870559 
L 485.55895 -136.824409 
L 490.23203 -134.980774 
L 494.90511 -135.411467 
L 499.578191 -135.706668 
L 504.251271 -135.355237 
L 508.924351 -135.1105 
L 513.597432 -134.636041 
L 518.270512 -134.821509 
L 522.943592 -134.343405 
L 527.616673 -133.481698 
L 532.289753 -133.461463 
L 536.962833 -133.000345 
L 541.635914 -133.251346 
L 546.308994 -133.260514 
L 550.982074 -133.901696 
L 555.655154 -134.345428 
L 560.328235 -133.524451 
L 565.001315 -132.717408 
L 569.674395 -134.839683 
L 574.347476 -135.333646 
L 579.020556 -133.852249 
L 583.693636 -134.428525 
L 583.693636 -138.618133 
L 583.693636 -138.618133 
L 579.020556 -138.205437 
L 574.347476 -139.638831 
L 569.674395 -139.118586 
L 565.001315 -137.057405 
L 560.328235 -137.91903 
L 555.655154 -138.688488 
L 550.982074 -138.316217 
L 546.308994 -137.658987 
L 541.635914 -137.594432 
L 536.962833 -137.366247 
L 532.289753 -137.719184 
L 527.616673 -137.958727 
L 522.943592 -138.779053 
L 518.270512 -139.041587 
L 513.597432 -138.819707 
L 508.924351 -139.122041 
L 504.251271 -139.527419 
L 499.578191 -139.807215 
L 494.90511 -139.505583 
L 490.23203 -138.88922 
L 485.55895 -140.736041 
L 480.885869 -140.902085 
L 476.212789 -142.038661 
L 471.539709 -142.171884 
L 466.866628 -143.035735 
L 462.193548 -143.902942 
L 457.520468 -144.732022 
L 452.847387 -145.579071 
L 448.174307 -146.040358 
L 443.501227 -146.712723 
L 438.828147 -147.932681 
L 434.155066 -149.458332 
L 429.481986 -149.90661 
L 424.808906 -149.609393 
L 420.135825 -149.87419 
L 415.462745 -149.278455 
L 410.789665 -149.54785 
L 406.116584 -149.586804 
L 401.443504 -149.491828 
L 396.770424 -148.781762 
L 392.097343 -148.816361 
L 387.424263 -148.776274 
L 382.751183 -148.748639 
L 378.078102 -149.144514 
L 373.405022 -148.970612 
L 368.731942 -149.710799 
L 364.058861 -149.357888 
L 359.385781 -149.494033 
L 354.712701 -149.146835 
L 350.03962 -148.336347 
L 345.36654 -147.53967 
L 340.69346 -147.382392 
L 336.02038 -147.023331 
L 331.347299 -146.890624 
L 326.674219 -147.554198 
L 322.001139 -148.165407 
L 317.328058 -147.622796 
L 312.654978 -147.764539 
L 307.981898 -147.729641 
L 303.308817 -149.028826 
L 298.635737 -148.365355 
L 293.962657 -150.066907 
L 289.289576 -149.621653 
L 284.616496 -151.623106 
L 279.943416 -151.862772 
L 275.270335 -152.497193 
L 270.597255 -152.360939 
L 265.924175 -152.543507 
L 261.251094 -154.483384 
L 256.578014 -154.993385 
L 251.904934 -156.965739 
L 247.231853 -157.354162 
L 242.558773 -158.268129 
L 237.885693 -158.839411 
L 233.212613 -156.527574 
L 228.539532 -155.089476 
L 223.866452 -152.197632 
L 219.193372 -149.711559 
L 214.520291 -146.881023 
L 209.847211 -144.737529 
L 205.174131 -142.565452 
L 200.50105 -140.645784 
L 195.82797 -138.757312 
L 191.15489 -137.463866 
L 186.481809 -137.392529 
L 181.808729 -135.914003 
L 177.135649 -135.765609 
L 172.462568 -136.042575 
L 167.789488 -135.384412 
L 163.116408 -135.42613 
L 158.443327 -134.787004 
L 153.770247 -133.939716 
L 149.097167 -133.956726 
L 144.424086 -132.20053 
L 139.751006 -130.640788 
L 135.077926 -131.987896 
L 130.404846 -132.585736 
L 125.731765 -130.371216 
L 121.058685 -129.269307 
L 116.385605 -129.056686 
L 111.712524 -129.046981 
L 107.039444 -127.689315 
L 102.366364 -126.03979 
z
" style="stroke: #8b0a50; stroke-opacity: 0.1"/>
    </defs>
    <g clip-path="url(#pb2dd2a7e14)">
     <use xlink:href="#m1d69ff5089" x="0" y="432" style="fill: #8b0a50; fill-opacity: 0.1; stroke: #8b0a50; stroke-opacity: 0.1"/>
    </g>
   </g>
   <g id="PathCollection_2">
    <defs>
     <path id="m60ff6e63f6" d="M 0 -3 
L -0.673542 -0.927051 
L -2.85317 -0.927051 
L -1.089814 0.354102 
L -1.763356 2.427051 
L -0 1.145898 
L 1.763356 2.427051 
L 1.089814 0.354102 
L 2.85317 -0.927051 
L 0.673542 -0.927051 
z
" style="stroke: #8b0a50"/>
    </defs>
    <g clip-path="url(#pb2dd2a7e14)">
     <use xlink:href="#m60ff6e63f6" x="293.962657" y="326.57034" style="fill: #8b0a50; stroke: #8b0a50"/>
     <use xlink:href="#m60ff6e63f6" x="298.635737" y="326.57034" style="fill: #8b0a50; stroke: #8b0a50"/>
     <use xlink:href="#m60ff6e63f6" x="303.308817" y="326.57034" style="fill: #8b0a50; stroke: #8b0a50"/>
     <use xlink:href="#m60ff6e63f6" x="307.981898" y="326.57034" style="fill: #8b0a50; stroke: #8b0a50"/>
     <use xlink:href="#m60ff6e63f6" x="312.654978" y="326.57034" style="fill: #8b0a50; stroke: #8b0a50"/>
     <use xlink:href="#m60ff6e63f6" x="322.001139" y="326.57034" style="fill: #8b0a50; stroke: #8b0a50"/>
     <use xlink:href="#m60ff6e63f6" x="326.674219" y="326.57034" style="fill: #8b0a50; stroke: #8b0a50"/>
     <use xlink:href="#m60ff6e63f6" x="331.347299" y="326.57034" style="fill: #8b0a50; stroke: #8b0a50"/>
     <use xlink:href="#m60ff6e63f6" x="336.02038" y="326.57034" style="fill: #8b0a50; stroke: #8b0a50"/>
     <use xlink:href="#m60ff6e63f6" x="340.69346" y="326.57034" style="fill: #8b0a50; stroke: #8b0a50"/>
     <use xlink:href="#m60ff6e63f6" x="345.36654" y="326.57034" style="fill: #8b0a50; stroke: #8b0a50"/>
     <use xlink:href="#m60ff6e63f6" x="350.03962" y="326.57034" style="fill: #8b0a50; stroke: #8b0a50"/>
     <use xlink:href="#m60ff6e63f6" x="354.712701" y="326.57034" style="fill: #8b0a50; stroke: #8b0a50"/>
     <use xlink:href="#m60ff6e63f6" x="359.385781" y="326.57034" style="fill: #8b0a50; stroke: #8b0a50"/>
     <use xlink:href="#m60ff6e63f6" x="364.058861" y="326.57034" style="fill: #8b0a50; stroke: #8b0a50"/>
     <use xlink:href="#m60ff6e63f6" x="368.731942" y="326.57034" style="fill: #8b0a50; stroke: #8b0a50"/>
     <use xlink:href="#m60ff6e63f6" x="373.405022" y="326.57034" style="fill: #8b0a50; stroke: #8b0a50"/>
     <use xlink:href="#m60ff6e63f6" x="378.078102" y="326.57034" style="fill: #8b0a50; stroke: #8b0a50"/>
     <use xlink:href="#m60ff6e63f6" x="382.751183" y="326.57034" style="fill: #8b0a50; stroke: #8b0a50"/>
     <use xlink:href="#m60ff6e63f6" x="387.424263" y="326.57034" style="fill: #8b0a50; stroke: #8b0a50"/>
     <use xlink:href="#m60ff6e63f6" x="392.097343" y="326.57034" style="fill: #8b0a50; stroke: #8b0a50"/>
     <use xlink:href="#m60ff6e63f6" x="396.770424" y="326.57034" style="fill: #8b0a50; stroke: #8b0a50"/>
     <use xlink:href="#m60ff6e63f6" x="401.443504" y="326.57034" style="fill: #8b0a50; stroke: #8b0a50"/>
     <use xlink:href="#m60ff6e63f6" x="406.116584" y="326.57034" style="fill: #8b0a50; stroke: #8b0a50"/>
     <use xlink:href="#m60ff6e63f6" x="410.789665" y="326.57034" style="fill: #8b0a50; stroke: #8b0a50"/>
     <use xlink:href="#m60ff6e63f6" x="415.462745" y="326.57034" style="fill: #8b0a50; stroke: #8b0a50"/>
     <use xlink:href="#m60ff6e63f6" x="420.135825" y="326.57034" style="fill: #8b0a50; stroke: #8b0a50"/>
     <use xlink:href="#m60ff6e63f6" x="424.808906" y="326.57034" style="fill: #8b0a50; stroke: #8b0a50"/>
     <use xlink:href="#m60ff6e63f6" x="429.481986" y="326.57034" style="fill: #8b0a50; stroke: #8b0a50"/>
     <use xlink:href="#m60ff6e63f6" x="434.155066" y="326.57034" style="fill: #8b0a50; stroke: #8b0a50"/>
     <use xlink:href="#m60ff6e63f6" x="438.828147" y="326.57034" style="fill: #8b0a50; stroke: #8b0a50"/>
     <use xlink:href="#m60ff6e63f6" x="443.501227" y="326.57034" style="fill: #8b0a50; stroke: #8b0a50"/>
     <use xlink:href="#m60ff6e63f6" x="448.174307" y="326.57034" style="fill: #8b0a50; stroke: #8b0a50"/>
     <use xlink:href="#m60ff6e63f6" x="452.847387" y="326.57034" style="fill: #8b0a50; stroke: #8b0a50"/>
     <use xlink:href="#m60ff6e63f6" x="457.520468" y="326.57034" style="fill: #8b0a50; stroke: #8b0a50"/>
     <use xlink:href="#m60ff6e63f6" x="462.193548" y="326.57034" style="fill: #8b0a50; stroke: #8b0a50"/>
     <use xlink:href="#m60ff6e63f6" x="466.866628" y="326.57034" style="fill: #8b0a50; stroke: #8b0a50"/>
     <use xlink:href="#m60ff6e63f6" x="471.539709" y="326.57034" style="fill: #8b0a50; stroke: #8b0a50"/>
     <use xlink:href="#m60ff6e63f6" x="476.212789" y="326.57034" style="fill: #8b0a50; stroke: #8b0a50"/>
     <use xlink:href="#m60ff6e63f6" x="480.885869" y="326.57034" style="fill: #8b0a50; stroke: #8b0a50"/>
     <use xlink:href="#m60ff6e63f6" x="485.55895" y="326.57034" style="fill: #8b0a50; stroke: #8b0a50"/>
     <use xlink:href="#m60ff6e63f6" x="490.23203" y="326.57034" style="fill: #8b0a50; stroke: #8b0a50"/>
     <use xlink:href="#m60ff6e63f6" x="494.90511" y="326.57034" style="fill: #8b0a50; stroke: #8b0a50"/>
     <use xlink:href="#m60ff6e63f6" x="499.578191" y="326.57034" style="fill: #8b0a50; stroke: #8b0a50"/>
     <use xlink:href="#m60ff6e63f6" x="504.251271" y="326.57034" style="fill: #8b0a50; stroke: #8b0a50"/>
     <use xlink:href="#m60ff6e63f6" x="508.924351" y="326.57034" style="fill: #8b0a50; stroke: #8b0a50"/>
     <use xlink:href="#m60ff6e63f6" x="513.597432" y="326.57034" style="fill: #8b0a50; stroke: #8b0a50"/>
     <use xlink:href="#m60ff6e63f6" x="518.270512" y="326.57034" style="fill: #8b0a50; stroke: #8b0a50"/>
     <use xlink:href="#m60ff6e63f6" x="522.943592" y="326.57034" style="fill: #8b0a50; stroke: #8b0a50"/>
     <use xlink:href="#m60ff6e63f6" x="527.616673" y="326.57034" style="fill: #8b0a50; stroke: #8b0a50"/>
     <use xlink:href="#m60ff6e63f6" x="532.289753" y="326.57034" style="fill: #8b0a50; stroke: #8b0a50"/>
     <use xlink:href="#m60ff6e63f6" x="536.962833" y="326.57034" style="fill: #8b0a50; stroke: #8b0a50"/>
     <use xlink:href="#m60ff6e63f6" x="541.635914" y="326.57034" style="fill: #8b0a50; stroke: #8b0a50"/>
     <use xlink:href="#m60ff6e63f6" x="546.308994" y="326.57034" style="fill: #8b0a50; stroke: #8b0a50"/>
     <use xlink:href="#m60ff6e63f6" x="550.982074" y="326.57034" style="fill: #8b0a50; stroke: #8b0a50"/>
     <use xlink:href="#m60ff6e63f6" x="555.655154" y="326.57034" style="fill: #8b0a50; stroke: #8b0a50"/>
     <use xlink:href="#m60ff6e63f6" x="560.328235" y="326.57034" style="fill: #8b0a50; stroke: #8b0a50"/>
     <use xlink:href="#m60ff6e63f6" x="565.001315" y="326.57034" style="fill: #8b0a50; stroke: #8b0a50"/>
     <use xlink:href="#m60ff6e63f6" x="569.674395" y="326.57034" style="fill: #8b0a50; stroke: #8b0a50"/>
     <use xlink:href="#m60ff6e63f6" x="574.347476" y="326.57034" style="fill: #8b0a50; stroke: #8b0a50"/>
     <use xlink:href="#m60ff6e63f6" x="579.020556" y="326.57034" style="fill: #8b0a50; stroke: #8b0a50"/>
     <use xlink:href="#m60ff6e63f6" x="583.693636" y="326.57034" style="fill: #8b0a50; stroke: #8b0a50"/>
    </g>
   </g>
   <g id="line2d_1">
    <path d="M 102.366364 341.80262 
L 107.039444 313.134237 
L 111.712524 308.922883 
L 116.385605 307.722908 
L 121.058685 306.977088 
L 125.731765 306.785462 
L 130.404846 310.666855 
L 135.077926 306.508185 
L 139.751006 304.77185 
L 144.424086 303.227012 
L 149.097167 305.974751 
L 153.770247 305.598933 
L 158.443327 302.992934 
L 163.116408 306.279913 
L 167.789488 304.023684 
L 172.462568 308.664009 
L 177.135649 314.331679 
L 181.808729 302.084013 
L 186.481809 305.78246 
L 191.15489 309.297917 
L 195.82797 304.125439 
L 200.50105 301.36976 
L 205.174131 306.355757 
L 209.847211 304.206424 
L 214.520291 309.591433 
L 219.193372 302.964122 
L 223.866452 308.874345 
L 228.539532 289.224973 
L 233.212613 289.710272 
L 237.885693 295.155669 
L 242.558773 306.796878 
L 247.231853 307.134201 
L 251.904934 290.698205 
L 256.578014 248.019102 
L 261.251094 224.143007 
L 265.924175 213.915931 
L 270.597255 188.435508 
L 275.270335 174.907978 
L 279.943416 203.802731 
L 284.616496 237.678178 
L 289.289576 275.882152 
L 293.962657 273.140882 
L 298.635737 273.670898 
L 303.308817 259.36581 
L 307.981898 216.264928 
L 312.654978 193.084375 
L 317.328058 219.78253 
L 322.001139 228.765824 
L 326.674219 195.27617 
L 331.347299 184.82498 
L 336.02038 168.257821 
L 340.69346 159.057004 
L 345.36654 166.678418 
L 350.03962 142.463473 
L 354.712701 127.298264 
L 359.385781 147.647666 
L 364.058861 152.520415 
L 368.731942 159.225028 
L 373.405022 152.930139 
L 378.078102 143.572503 
L 382.751183 119.607454 
L 387.424263 121.758971 
L 392.097343 151.106689 
L 396.770424 174.57761 
L 401.443504 184.710271 
L 406.116584 179.384328 
L 410.789665 179.866182 
L 415.462745 207.351068 
L 420.135825 212.988874 
L 424.808906 220.054745 
L 429.481986 192.189818 
L 434.155066 171.922018 
L 438.828147 142.350471 
L 443.501227 141.622912 
L 448.174307 138.84973 
L 452.847387 153.807666 
L 457.520468 162.494215 
L 462.193548 198.540503 
L 466.866628 253.007648 
L 471.539709 289.494133 
L 476.212789 205.175432 
L 480.885869 253.750905 
L 485.55895 327.045375 
L 490.23203 310.836211 
L 494.90511 295.146314 
L 499.578191 309.054472 
L 504.251271 317.122826 
L 508.924351 313.235437 
L 513.597432 303.453895 
L 518.270512 304.351706 
L 522.943592 305.470174 
L 527.616673 300.535287 
L 532.289753 310.618609 
L 536.962833 313.621717 
L 541.635914 306.64015 
L 546.308994 303.941367 
L 550.982074 307.970349 
L 555.655154 307.48036 
L 560.328235 296.904928 
L 565.001315 304.086984 
L 569.674395 308.781285 
L 574.347476 317.551838 
L 579.020556 304.165131 
L 583.693636 305.644778 
" clip-path="url(#pb2dd2a7e14)" style="fill: none; stroke: #eb6ab0; stroke-width: 2; stroke-linecap: round"/>
   </g>
   <g id="line2d_2">
    <path d="M 102.366364 306.37623 
L 107.039444 307.075856 
L 111.712524 306.37114 
L 116.385605 306.019768 
L 121.058685 306.596364 
L 125.731765 307.066263 
L 130.404846 306.391566 
L 135.077926 306.430144 
L 139.751006 305.830759 
L 144.424086 306.695838 
L 149.097167 305.998663 
L 153.770247 306.952103 
L 158.443327 306.204047 
L 163.116408 306.17236 
L 167.789488 306.903766 
L 172.462568 306.97289 
L 177.135649 306.290153 
L 181.808729 305.673655 
L 186.481809 306.09303 
L 191.15489 307.026287 
L 195.82797 305.65527 
L 200.50105 306.441591 
L 205.174131 306.567962 
L 209.847211 306.51213 
L 214.520291 306.713392 
L 219.193372 307.111576 
L 223.866452 306.668906 
L 228.539532 299.870759 
L 233.212613 298.688011 
L 237.885693 300.375189 
L 242.558773 298.297134 
L 247.231853 295.272654 
L 251.904934 294.606221 
L 256.578014 296.563914 
L 261.251094 298.889597 
L 265.924175 297.457293 
L 270.597255 297.833339 
L 275.270335 298.59494 
L 279.943416 296.411971 
L 284.616496 295.627951 
L 289.289576 294.163996 
L 293.962657 293.175181 
L 298.635737 293.687104 
L 303.308817 293.701735 
L 307.981898 296.444895 
L 312.654978 298.674904 
L 317.328058 299.207819 
L 322.001139 296.604259 
L 326.674219 293.515713 
L 331.347299 296.746805 
L 336.02038 298.847734 
L 340.69346 298.815999 
L 345.36654 298.842513 
L 350.03962 299.077448 
L 354.712701 298.806623 
L 359.385781 299.201441 
L 364.058861 299.608817 
L 368.731942 299.926715 
L 373.405022 297.244867 
L 378.078102 298.074302 
L 382.751183 295.264343 
L 387.424263 293.080372 
L 392.097343 291.587305 
L 396.770424 289.217644 
L 401.443504 290.071524 
L 406.116584 294.442496 
L 410.789665 297.724553 
L 415.462745 296.746414 
L 420.135825 299.189985 
L 424.808906 302.439687 
L 429.481986 299.889337 
L 434.155066 298.360943 
L 438.828147 296.334928 
L 443.501227 293.834493 
L 448.174307 294.123588 
L 452.847387 294.698029 
L 457.520468 299.727601 
L 462.193548 306.252549 
L 466.866628 308.148068 
L 471.539709 307.80069 
L 476.212789 303.986899 
L 480.885869 305.180689 
L 485.55895 305.852084 
L 490.23203 306.524089 
L 494.90511 304.984513 
L 499.578191 307.302 
L 504.251271 307.651659 
L 508.924351 306.942514 
L 513.597432 305.894944 
L 518.270512 305.566114 
L 522.943592 306.824116 
L 527.616673 306.279422 
L 532.289753 305.895541 
L 536.962833 307.145002 
L 541.635914 306.085948 
L 546.308994 305.221677 
L 550.982074 306.824241 
L 555.655154 306.914494 
L 560.328235 307.309695 
L 565.001315 305.940468 
L 569.674395 306.228798 
L 574.347476 306.243715 
L 579.020556 306.6195 
L 583.693636 306.940075 
" clip-path="url(#pb2dd2a7e14)" style="fill: none; stroke-dasharray: 7.4,3.2; stroke-dashoffset: 0; stroke: #eb6ab0; stroke-width: 2"/>
   </g>
   <g id="line2d_3">
    <path d="M 228.539532 378.18 
L 228.539532 27.6 
" clip-path="url(#pb2dd2a7e14)" style="fill: none; stroke-dasharray: 5.55,2.4; stroke-dashoffset: 0; stroke: #1a1a1a; stroke-width: 1.5"/>
   </g>
   <g id="line2d_4">
    <path d="M 462.193548 378.18 
L 462.193548 27.6 
" clip-path="url(#pb2dd2a7e14)" style="fill: none; stroke-dasharray: 5.55,2.4; stroke-dashoffset: 0; stroke: #1a1a1a; stroke-width: 1.5"/>
   </g>
   <g id="line2d_5">
    <path d="M 102.366364 293.05297 
L 107.039444 253.253465 
L 111.712524 270.139513 
L 116.385605 276.934896 
L 121.058685 298.686989 
L 125.731765 303.943049 
L 130.404846 296.618301 
L 135.077926 274.053615 
L 139.751006 310.672763 
L 144.424086 305.447213 
L 149.097167 326.13191 
L 153.770247 319.842901 
L 158.443327 317.274588 
L 163.116408 309.367912 
L 167.789488 336.795856 
L 172.462568 341.006824 
L 177.135649 344.578271 
L 181.808729 324.790211 
L 186.481809 309.407767 
L 191.15489 304.88839 
L 195.82797 309.034511 
L 200.50105 299.418377 
L 205.174131 306.831402 
L 209.847211 303.707774 
L 214.520291 287.316737 
L 219.193372 293.159826 
L 223.866452 305.622616 
L 228.539532 296.211771 
L 233.212613 285.612881 
L 237.885693 290.936992 
L 242.558773 298.948817 
L 247.231853 291.982658 
L 251.904934 262.661213 
L 256.578014 265.276613 
L 261.251094 262.885943 
L 265.924175 268.939508 
L 270.597255 262.258273 
L 275.270335 261.027508 
L 279.943416 262.371125 
L 284.616496 271.37387 
L 289.289576 251.117508 
L 293.962657 241.782196 
L 298.635737 238.4161 
L 303.308817 239.666681 
L 307.981898 238.285855 
L 312.654978 240.053173 
L 317.328058 243.749361 
L 322.001139 236.648543 
L 326.674219 236.316295 
L 331.347299 231.486049 
L 336.02038 221.071025 
L 340.69346 211.965444 
L 345.36654 209.481406 
L 350.03962 199.54721 
L 354.712701 189.300044 
L 359.385781 188.727251 
L 364.058861 180.13318 
L 368.731942 174.017565 
L 373.405022 167.164019 
L 378.078102 162.827466 
L 382.751183 160.874888 
L 387.424263 150.156039 
L 392.097343 139.487031 
L 396.770424 130.967872 
L 401.443504 125.547356 
L 406.116584 123.052995 
L 410.789665 113.092295 
L 415.462745 110.634019 
L 420.135825 111.894771 
L 424.808906 109.251396 
L 429.481986 104.440691 
L 434.155066 102.480498 
L 438.828147 102.49794 
L 443.501227 105.982077 
L 448.174307 100.883059 
L 452.847387 93.130664 
L 457.520468 80.247754 
L 462.193548 82.061956 
L 466.866628 83.923836 
L 471.539709 75.413213 
L 476.212789 79.87357 
L 480.885869 82.340172 
L 485.55895 84.586362 
L 490.23203 83.588009 
L 494.90511 78.500364 
L 499.578191 80.422194 
L 504.251271 90.934931 
L 508.924351 81.921573 
L 513.597432 81.063219 
L 518.270512 82.483704 
L 522.943592 84.127435 
L 527.616673 97.260013 
L 532.289753 99.705634 
L 536.962833 102.316918 
L 541.635914 97.665805 
L 546.308994 94.015484 
L 550.982074 86.796662 
L 555.655154 86.327995 
L 560.328235 89.81065 
L 565.001315 87.688128 
L 569.674395 85.641991 
L 574.347476 82.03309 
L 579.020556 82.324998 
L 583.693636 77.528781 
" clip-path="url(#pb2dd2a7e14)" style="fill: none; stroke: #8b0a50; stroke-width: 2; stroke-linecap: round"/>
   </g>
   <g id="line2d_6">
    <path d="M 102.366364 307.877409 
L 107.039444 306.740054 
L 111.712524 305.549886 
L 116.385605 305.537739 
L 121.058685 305.260526 
L 125.731765 304.148041 
L 130.404846 301.777353 
L 135.077926 302.705615 
L 139.751006 303.793059 
L 144.424086 302.199787 
L 149.097167 300.556039 
L 153.770247 300.329787 
L 158.443327 299.388436 
L 163.116408 298.729475 
L 167.789488 298.54704 
L 172.462568 298.052406 
L 177.135649 298.209792 
L 181.808729 297.962362 
L 186.481809 296.481192 
L 191.15489 296.495181 
L 195.82797 295.117931 
L 200.50105 293.336528 
L 205.174131 291.390302 
L 209.847211 289.441264 
L 214.520291 287.426833 
L 219.193372 284.914775 
L 223.866452 282.547817 
L 228.539532 279.654652 
L 233.212613 278.144802 
L 237.885693 275.896537 
L 242.558773 276.434074 
L 247.231853 277.278492 
L 251.904934 277.631784 
L 256.578014 279.193677 
L 261.251094 279.552346 
L 265.924175 281.382372 
L 270.597255 281.537406 
L 275.270335 281.287051 
L 279.943416 281.855226 
L 284.616496 282.013149 
L 289.289576 283.937382 
L 293.962657 283.567891 
L 298.635737 285.169553 
L 303.308817 284.504216 
L 307.981898 285.728524 
L 312.654978 285.797855 
L 317.328058 286.019494 
L 322.001139 285.493643 
L 326.674219 286.130683 
L 331.347299 286.767925 
L 336.02038 286.66058 
L 340.69346 286.237736 
L 345.36654 286.228103 
L 350.03962 285.500279 
L 354.712701 284.733331 
L 359.385781 284.408526 
L 364.058861 284.562367 
L 368.731942 284.177487 
L 373.405022 285.00278 
L 378.078102 284.836874 
L 382.751183 285.244819 
L 387.424263 285.232061 
L 392.097343 285.182486 
L 396.770424 285.207852 
L 401.443504 284.549087 
L 406.116584 284.44941 
L 410.789665 284.460768 
L 415.462745 284.748638 
L 420.135825 284.111033 
L 424.808906 284.398767 
L 429.481986 284.122843 
L 434.155066 284.532612 
L 438.828147 286.016816 
L 443.501227 287.14922 
L 448.174307 287.828204 
L 452.847387 288.315623 
L 457.520468 289.198872 
L 462.193548 290.038586 
L 466.866628 290.92096 
L 471.539709 291.844745 
L 476.212789 292.004793 
L 480.885869 293.113678 
L 485.55895 293.219775 
L 490.23203 295.065003 
L 494.90511 294.541475 
L 499.578191 294.243059 
L 504.251271 294.558672 
L 508.924351 294.88373 
L 513.597432 295.272126 
L 518.270512 295.068452 
L 522.943592 295.438771 
L 527.616673 296.279788 
L 532.289753 296.409677 
L 536.962833 296.816704 
L 541.635914 296.577111 
L 546.308994 296.54025 
L 550.982074 295.891043 
L 555.655154 295.483042 
L 560.328235 296.27826 
L 565.001315 297.112594 
L 569.674395 295.020865 
L 574.347476 294.513762 
L 579.020556 295.971157 
L 583.693636 295.476671 
" clip-path="url(#pb2dd2a7e14)" style="fill: none; stroke-dasharray: 7.4,3.2; stroke-dashoffset: 0; stroke: #8b0a50; stroke-width: 2"/>
   </g>
   <g id="line2d_7">
    <path d="M 228.539532 378.18 
L 228.539532 27.6 
" clip-path="url(#pb2dd2a7e14)" style="fill: none; stroke-dasharray: 5.55,2.4; stroke-dashoffset: 0; stroke: #1a1a1a; stroke-width: 1.5"/>
   </g>
   <g id="line2d_8">
    <path d="M 462.193548 378.18 
L 462.193548 27.6 
" clip-path="url(#pb2dd2a7e14)" style="fill: none; stroke-dasharray: 5.55,2.4; stroke-dashoffset: 0; stroke: #1a1a1a; stroke-width: 1.5"/>
   </g>
   <g id="patch_3">
    <path d="M 78.3 378.18 
L 78.3 27.6 
" style="fill: none; stroke: #cccccc; stroke-width: 1.5; stroke-linejoin: miter; stroke-linecap: square"/>
   </g>
   <g id="patch_4">
    <path d="M 78.3 378.18 
L 607.76 378.18 
" style="fill: none; stroke: #cccccc; stroke-width: 1.5; stroke-linejoin: miter; stroke-linecap: square"/>
   </g>
   <g id="text_15">
    <!-- Divergence Comparison: Original vs Shuffled -->
    <g style="fill: #262626" transform="translate(193.5175 21.6) scale(0.15 -0.15)">
     <defs>
      <path id="ArialMT-43" d="M 3763 1606 
L 4369 1453 
Q 4178 706 3683 314 
Q 3188 -78 2472 -78 
Q 1731 -78 1267 223 
Q 803 525 561 1097 
Q 319 1669 319 2325 
Q 319 3041 592 3573 
Q 866 4106 1370 4382 
Q 1875 4659 2481 4659 
Q 3169 4659 3637 4309 
Q 4106 3959 4291 3325 
L 3694 3184 
Q 3534 3684 3231 3912 
Q 2928 4141 2469 4141 
Q 1941 4141 1586 3887 
Q 1231 3634 1087 3207 
Q 944 2781 944 2328 
Q 944 1744 1114 1308 
Q 1284 872 1643 656 
Q 2003 441 2422 441 
Q 2931 441 3284 734 
Q 3638 1028 3763 1606 
z
" transform="scale(0.015625)"/>
      <path id="ArialMT-6f" d="M 213 1659 
Q 213 2581 725 3025 
Q 1153 3394 1769 3394 
Q 2453 3394 2887 2945 
Q 3322 2497 3322 1706 
Q 3322 1066 3130 698 
Q 2938 331 2570 128 
Q 2203 -75 1769 -75 
Q 1072 -75 642 372 
Q 213 819 213 1659 
z
M 791 1659 
Q 791 1022 1069 705 
Q 1347 388 1769 388 
Q 2188 388 2466 706 
Q 2744 1025 2744 1678 
Q 2744 2294 2464 2611 
Q 2184 2928 1769 2928 
Q 1347 2928 1069 2612 
Q 791 2297 791 1659 
z
" transform="scale(0.015625)"/>
      <path id="ArialMT-70" d="M 422 -1272 
L 422 3319 
L 934 3319 
L 934 2888 
Q 1116 3141 1344 3267 
Q 1572 3394 1897 3394 
Q 2322 3394 2647 3175 
Q 2972 2956 3137 2557 
Q 3303 2159 3303 1684 
Q 3303 1175 3120 767 
Q 2938 359 2589 142 
Q 2241 -75 1856 -75 
Q 1575 -75 1351 44 
Q 1128 163 984 344 
L 984 -1272 
L 422 -1272 
z
M 931 1641 
Q 931 1000 1190 694 
Q 1450 388 1819 388 
Q 2194 388 2461 705 
Q 2728 1022 2728 1688 
Q 2728 2322 2467 2637 
Q 2206 2953 1844 2953 
Q 1484 2953 1207 2617 
Q 931 2281 931 1641 
z
" transform="scale(0.015625)"/>
      <path id="ArialMT-61" d="M 2588 409 
Q 2275 144 1986 34 
Q 1697 -75 1366 -75 
Q 819 -75 525 192 
Q 231 459 231 875 
Q 231 1119 342 1320 
Q 453 1522 633 1644 
Q 813 1766 1038 1828 
Q 1203 1872 1538 1913 
Q 2219 1994 2541 2106 
Q 2544 2222 2544 2253 
Q 2544 2597 2384 2738 
Q 2169 2928 1744 2928 
Q 1347 2928 1158 2789 
Q 969 2650 878 2297 
L 328 2372 
Q 403 2725 575 2942 
Q 747 3159 1072 3276 
Q 1397 3394 1825 3394 
Q 2250 3394 2515 3294 
Q 2781 3194 2906 3042 
Q 3031 2891 3081 2659 
Q 3109 2516 3109 2141 
L 3109 1391 
Q 3109 606 3145 398 
Q 3181 191 3288 0 
L 2700 0 
Q 2613 175 2588 409 
z
M 2541 1666 
Q 2234 1541 1622 1453 
Q 1275 1403 1131 1340 
Q 988 1278 909 1158 
Q 831 1038 831 891 
Q 831 666 1001 516 
Q 1172 366 1500 366 
Q 1825 366 2078 508 
Q 2331 650 2450 897 
Q 2541 1088 2541 1459 
L 2541 1666 
z
" transform="scale(0.015625)"/>
      <path id="ArialMT-3a" d="M 578 2678 
L 578 3319 
L 1219 3319 
L 1219 2678 
L 578 2678 
z
M 578 0 
L 578 641 
L 1219 641 
L 1219 0 
L 578 0 
z
" transform="scale(0.015625)"/>
      <path id="ArialMT-4f" d="M 309 2231 
Q 309 3372 921 4017 
Q 1534 4663 2503 4663 
Q 3138 4663 3647 4359 
Q 4156 4056 4423 3514 
Q 4691 2972 4691 2284 
Q 4691 1588 4409 1038 
Q 4128 488 3612 205 
Q 3097 -78 2500 -78 
Q 1853 -78 1343 234 
Q 834 547 571 1087 
Q 309 1628 309 2231 
z
M 934 2222 
Q 934 1394 1379 917 
Q 1825 441 2497 441 
Q 3181 441 3623 922 
Q 4066 1403 4066 2288 
Q 4066 2847 3877 3264 
Q 3688 3681 3323 3911 
Q 2959 4141 2506 4141 
Q 1863 4141 1398 3698 
Q 934 3256 934 2222 
z
" transform="scale(0.015625)"/>
      <path id="ArialMT-6c" d="M 409 0 
L 409 4581 
L 972 4581 
L 972 0 
L 409 0 
z
" transform="scale(0.015625)"/>
      <path id="ArialMT-53" d="M 288 1472 
L 859 1522 
Q 900 1178 1048 958 
Q 1197 738 1509 602 
Q 1822 466 2213 466 
Q 2559 466 2825 569 
Q 3091 672 3220 851 
Q 3350 1031 3350 1244 
Q 3350 1459 3225 1620 
Q 3100 1781 2813 1891 
Q 2628 1963 1997 2114 
Q 1366 2266 1113 2400 
Q 784 2572 623 2826 
Q 463 3081 463 3397 
Q 463 3744 659 4045 
Q 856 4347 1234 4503 
Q 1613 4659 2075 4659 
Q 2584 4659 2973 4495 
Q 3363 4331 3572 4012 
Q 3781 3694 3797 3291 
L 3216 3247 
Q 3169 3681 2898 3903 
Q 2628 4125 2100 4125 
Q 1550 4125 1298 3923 
Q 1047 3722 1047 3438 
Q 1047 3191 1225 3031 
Q 1400 2872 2139 2705 
Q 2878 2538 3153 2413 
Q 3553 2228 3743 1945 
Q 3934 1663 3934 1294 
Q 3934 928 3725 604 
Q 3516 281 3123 101 
Q 2731 -78 2241 -78 
Q 1619 -78 1198 103 
Q 778 284 539 648 
Q 300 1013 288 1472 
z
" transform="scale(0.015625)"/>
      <path id="ArialMT-68" d="M 422 0 
L 422 4581 
L 984 4581 
L 984 2938 
Q 1378 3394 1978 3394 
Q 2347 3394 2619 3248 
Q 2891 3103 3008 2847 
Q 3125 2591 3125 2103 
L 3125 0 
L 2563 0 
L 2563 2103 
Q 2563 2525 2380 2717 
Q 2197 2909 1863 2909 
Q 1613 2909 1392 2779 
Q 1172 2650 1078 2428 
Q 984 2206 984 1816 
L 984 0 
L 422 0 
z
" transform="scale(0.015625)"/>
      <path id="ArialMT-75" d="M 2597 0 
L 2597 488 
Q 2209 -75 1544 -75 
Q 1250 -75 995 37 
Q 741 150 617 320 
Q 494 491 444 738 
Q 409 903 409 1263 
L 409 3319 
L 972 3319 
L 972 1478 
Q 972 1038 1006 884 
Q 1059 663 1231 536 
Q 1403 409 1656 409 
Q 1909 409 2131 539 
Q 2353 669 2445 892 
Q 2538 1116 2538 1541 
L 2538 3319 
L 3100 3319 
L 3100 0 
L 2597 0 
z
" transform="scale(0.015625)"/>
      <path id="ArialMT-66" d="M 556 0 
L 556 2881 
L 59 2881 
L 59 3319 
L 556 3319 
L 556 3672 
Q 556 4006 616 4169 
Q 697 4388 901 4523 
Q 1106 4659 1475 4659 
Q 1713 4659 2000 4603 
L 1916 4113 
Q 1741 4144 1584 4144 
Q 1328 4144 1222 4034 
Q 1116 3925 1116 3625 
L 1116 3319 
L 1763 3319 
L 1763 2881 
L 1116 2881 
L 1116 0 
L 556 0 
z
" transform="scale(0.015625)"/>
      <path id="ArialMT-64" d="M 2575 0 
L 2575 419 
Q 2259 -75 1647 -75 
Q 1250 -75 917 144 
Q 584 363 401 755 
Q 219 1147 219 1656 
Q 219 2153 384 2558 
Q 550 2963 881 3178 
Q 1213 3394 1622 3394 
Q 1922 3394 2156 3267 
Q 2391 3141 2538 2938 
L 2538 4581 
L 3097 4581 
L 3097 0 
L 2575 0 
z
M 797 1656 
Q 797 1019 1065 703 
Q 1334 388 1700 388 
Q 2069 388 2326 689 
Q 2584 991 2584 1609 
Q 2584 2291 2321 2609 
Q 2059 2928 1675 2928 
Q 1300 2928 1048 2622 
Q 797 2316 797 1656 
z
" transform="scale(0.015625)"/>
     </defs>
     <use xlink:href="#ArialMT-44"/>
     <use xlink:href="#ArialMT-69" x="72.216797"/>
     <use xlink:href="#ArialMT-76" x="94.433594"/>
     <use xlink:href="#ArialMT-65" x="144.433594"/>
     <use xlink:href="#ArialMT-72" x="200.048828"/>
     <use xlink:href="#ArialMT-67" x="233.349609"/>
     <use xlink:href="#ArialMT-65" x="288.964844"/>
     <use xlink:href="#ArialMT-6e" x="344.580078"/>
     <use xlink:href="#ArialMT-63" x="400.195312"/>
     <use xlink:href="#ArialMT-65" x="450.195312"/>
     <use xlink:href="#ArialMT-20" x="505.810547"/>
     <use xlink:href="#ArialMT-43" x="533.59375"/>
     <use xlink:href="#ArialMT-6f" x="605.810547"/>
     <use xlink:href="#ArialMT-6d" x="661.425781"/>
     <use xlink:href="#ArialMT-70" x="744.726562"/>
     <use xlink:href="#ArialMT-61" x="800.341797"/>
     <use xlink:href="#ArialMT-72" x="855.957031"/>
     <use xlink:href="#ArialMT-69" x="889.257812"/>
     <use xlink:href="#ArialMT-73" x="911.474609"/>
     <use xlink:href="#ArialMT-6f" x="961.474609"/>
     <use xlink:href="#ArialMT-6e" x="1017.089844"/>
     <use xlink:href="#ArialMT-3a" x="1072.705078"/>
     <use xlink:href="#ArialMT-20" x="1100.488281"/>
     <use xlink:href="#ArialMT-4f" x="1128.271484"/>
     <use xlink:href="#ArialMT-72" x="1206.054688"/>
     <use xlink:href="#ArialMT-69" x="1239.355469"/>
     <use xlink:href="#ArialMT-67" x="1261.572266"/>
     <use xlink:href="#ArialMT-69" x="1317.1875"/>
     <use xlink:href="#ArialMT-6e" x="1339.404297"/>
     <use xlink:href="#ArialMT-61" x="1395.019531"/>
     <use xlink:href="#ArialMT-6c" x="1450.634766"/>
     <use xlink:href="#ArialMT-20" x="1472.851562"/>
     <use xlink:href="#ArialMT-76" x="1500.634766"/>
     <use xlink:href="#ArialMT-73" x="1550.634766"/>
     <use xlink:href="#ArialMT-20" x="1600.634766"/>
     <use xlink:href="#ArialMT-53" x="1628.417969"/>
     <use xlink:href="#ArialMT-68" x="1695.117188"/>
     <use xlink:href="#ArialMT-75" x="1750.732422"/>
     <use xlink:href="#ArialMT-66" x="1806.347656"/>
     <use xlink:href="#ArialMT-66" x="1832.380859"/>
     <use xlink:href="#ArialMT-6c" x="1860.164062"/>
     <use xlink:href="#ArialMT-65" x="1882.380859"/>
     <use xlink:href="#ArialMT-64" x="1937.996094"/>
    </g>
   </g>
   <g id="legend_1">
    <g id="patch_5">
     <path d="M 615.46 259.555469 
L 705.061875 259.555469 
Q 707.261875 259.555469 707.261875 257.355469 
L 707.261875 148.424531 
Q 707.261875 146.224531 705.061875 146.224531 
L 615.46 146.224531 
Q 613.26 146.224531 613.26 148.424531 
L 613.26 257.355469 
Q 613.26 259.555469 615.46 259.555469 
z
" style="fill: #ffffff; opacity: 0.8; stroke: #cccccc; stroke-linejoin: miter"/>
    </g>
    <g id="line2d_9">
     <path d="M 617.66 154.789062 
L 628.66 154.789062 
L 639.66 154.789062 
" style="fill: none; stroke: #eb6ab0; stroke-width: 2; stroke-linecap: round"/>
    </g>
    <g id="text_16">
     <!-- Original -->
     <g style="fill: #262626" transform="translate(648.46 158.639062) scale(0.11 -0.11)">
      <use xlink:href="#ArialMT-4f"/>
      <use xlink:href="#ArialMT-72" x="77.783203"/>
      <use xlink:href="#ArialMT-69" x="111.083984"/>
      <use xlink:href="#ArialMT-67" x="133.300781"/>
      <use xlink:href="#ArialMT-69" x="188.916016"/>
      <use xlink:href="#ArialMT-6e" x="211.132812"/>
      <use xlink:href="#ArialMT-61" x="266.748047"/>
      <use xlink:href="#ArialMT-6c" x="322.363281"/>
     </g>
    </g>
    <g id="line2d_10">
     <path d="M 617.66 170.61875 
L 628.66 170.61875 
L 639.66 170.61875 
" style="fill: none; stroke-dasharray: 7.4,3.2; stroke-dashoffset: 0; stroke: #eb6ab0; stroke-width: 2"/>
    </g>
    <g id="text_17">
     <!-- Original -->
     <g style="fill: #262626" transform="translate(648.46 174.46875) scale(0.11 -0.11)">
      <use xlink:href="#ArialMT-4f"/>
      <use xlink:href="#ArialMT-72" x="77.783203"/>
      <use xlink:href="#ArialMT-69" x="111.083984"/>
      <use xlink:href="#ArialMT-67" x="133.300781"/>
      <use xlink:href="#ArialMT-69" x="188.916016"/>
      <use xlink:href="#ArialMT-6e" x="211.132812"/>
      <use xlink:href="#ArialMT-61" x="266.748047"/>
      <use xlink:href="#ArialMT-6c" x="322.363281"/>
     </g>
    </g>
    <g id="PathCollection_3">
     <g>
      <use xlink:href="#m0865b9009c" x="628.66" y="187.302656" style="fill: #eb6ab0; stroke: #eb6ab0"/>
     </g>
    </g>
    <g id="text_18">
     <!-- p &lt; 0.001 -->
     <g style="fill: #262626" transform="translate(648.46 190.190156) scale(0.11 -0.11)">
      <defs>
       <path id="ArialMT-3c" d="M 350 2003 
L 350 2528 
L 3384 3809 
L 3384 3250 
L 978 2263 
L 3384 1266 
L 3384 706 
L 350 2003 
z
" transform="scale(0.015625)"/>
      </defs>
      <use xlink:href="#ArialMT-70"/>
      <use xlink:href="#ArialMT-20" x="55.615234"/>
      <use xlink:href="#ArialMT-3c" x="83.398438"/>
      <use xlink:href="#ArialMT-20" x="141.796875"/>
      <use xlink:href="#ArialMT-30" x="169.580078"/>
      <use xlink:href="#ArialMT-2e" x="225.195312"/>
      <use xlink:href="#ArialMT-30" x="252.978516"/>
      <use xlink:href="#ArialMT-30" x="308.59375"/>
      <use xlink:href="#ArialMT-31" x="364.208984"/>
     </g>
    </g>
    <g id="line2d_11">
     <path d="M 617.66 201.9 
L 628.66 201.9 
L 639.66 201.9 
" style="fill: none; stroke-dasharray: 5.55,2.4; stroke-dashoffset: 0; stroke: #1a1a1a; stroke-width: 1.5"/>
    </g>
    <g id="text_19">
     <!-- Stim Onset -->
     <g style="fill: #262626" transform="translate(648.46 205.75) scale(0.11 -0.11)">
      <defs>
       <path id="ArialMT-74" d="M 1650 503 
L 1731 6 
Q 1494 -44 1306 -44 
Q 1000 -44 831 53 
Q 663 150 594 308 
Q 525 466 525 972 
L 525 2881 
L 113 2881 
L 113 3319 
L 525 3319 
L 525 4141 
L 1084 4478 
L 1084 3319 
L 1650 3319 
L 1650 2881 
L 1084 2881 
L 1084 941 
Q 1084 700 1114 631 
Q 1144 563 1211 522 
Q 1278 481 1403 481 
Q 1497 481 1650 503 
z
" transform="scale(0.015625)"/>
      </defs>
      <use xlink:href="#ArialMT-53"/>
      <use xlink:href="#ArialMT-74" x="66.699219"/>
      <use xlink:href="#ArialMT-69" x="94.482422"/>
      <use xlink:href="#ArialMT-6d" x="116.699219"/>
      <use xlink:href="#ArialMT-20" x="200"/>
      <use xlink:href="#ArialMT-4f" x="227.783203"/>
      <use xlink:href="#ArialMT-6e" x="305.566406"/>
      <use xlink:href="#ArialMT-73" x="361.181641"/>
      <use xlink:href="#ArialMT-65" x="411.181641"/>
      <use xlink:href="#ArialMT-74" x="466.796875"/>
     </g>
    </g>
    <g id="line2d_12">
     <path d="M 617.66 217.459844 
L 628.66 217.459844 
L 639.66 217.459844 
" style="fill: none; stroke-dasharray: 5.55,2.4; stroke-dashoffset: 0; stroke: #1a1a1a; stroke-width: 1.5"/>
    </g>
    <g id="text_20">
     <!-- Stim End -->
     <g style="fill: #262626" transform="translate(648.46 221.309844) scale(0.11 -0.11)">
      <defs>
       <path id="ArialMT-45" d="M 506 0 
L 506 4581 
L 3819 4581 
L 3819 4041 
L 1113 4041 
L 1113 2638 
L 3647 2638 
L 3647 2100 
L 1113 2100 
L 1113 541 
L 3925 541 
L 3925 0 
L 506 0 
z
" transform="scale(0.015625)"/>
      </defs>
      <use xlink:href="#ArialMT-53"/>
      <use xlink:href="#ArialMT-74" x="66.699219"/>
      <use xlink:href="#ArialMT-69" x="94.482422"/>
      <use xlink:href="#ArialMT-6d" x="116.699219"/>
      <use xlink:href="#ArialMT-20" x="200"/>
      <use xlink:href="#ArialMT-45" x="227.783203"/>
      <use xlink:href="#ArialMT-6e" x="294.482422"/>
      <use xlink:href="#ArialMT-64" x="350.097656"/>
     </g>
    </g>
    <g id="line2d_13">
     <path d="M 617.66 233.160625 
L 628.66 233.160625 
L 639.66 233.160625 
" style="fill: none; stroke: #8b0a50; stroke-width: 2; stroke-linecap: round"/>
    </g>
    <g id="text_21">
     <!-- Original -->
     <g style="fill: #262626" transform="translate(648.46 237.010625) scale(0.11 -0.11)">
      <use xlink:href="#ArialMT-4f"/>
      <use xlink:href="#ArialMT-72" x="77.783203"/>
      <use xlink:href="#ArialMT-69" x="111.083984"/>
      <use xlink:href="#ArialMT-67" x="133.300781"/>
      <use xlink:href="#ArialMT-69" x="188.916016"/>
      <use xlink:href="#ArialMT-6e" x="211.132812"/>
      <use xlink:href="#ArialMT-61" x="266.748047"/>
      <use xlink:href="#ArialMT-6c" x="322.363281"/>
     </g>
    </g>
    <g id="line2d_14">
     <path d="M 617.66 248.990312 
L 628.66 248.990312 
L 639.66 248.990312 
" style="fill: none; stroke-dasharray: 7.4,3.2; stroke-dashoffset: 0; stroke: #8b0a50; stroke-width: 2"/>
    </g>
    <g id="text_22">
     <!-- Original -->
     <g style="fill: #262626" transform="translate(648.46 252.840312) scale(0.11 -0.11)">
      <use xlink:href="#ArialMT-4f"/>
      <use xlink:href="#ArialMT-72" x="77.783203"/>
      <use xlink:href="#ArialMT-69" x="111.083984"/>
      <use xlink:href="#ArialMT-67" x="133.300781"/>
      <use xlink:href="#ArialMT-69" x="188.916016"/>
      <use xlink:href="#ArialMT-6e" x="211.132812"/>
      <use xlink:href="#ArialMT-61" x="266.748047"/>
      <use xlink:href="#ArialMT-6c" x="322.363281"/>
     </g>
    </g>
   </g>
  </g>
 </g>
 <defs>
  <clipPath id="pb2dd2a7e14">
   <rect x="78.3" y="27.6" width="529.46" height="350.58"/>
  </clipPath>
 </defs>
</svg>
