<?xml version="1.0" encoding="utf-8" standalone="no"?>
<!DOCTYPE svg PUBLIC "-//W3C//DTD SVG 1.1//EN"
  "http://www.w3.org/Graphics/SVG/1.1/DTD/svg11.dtd">
<svg xmlns:xlink="http://www.w3.org/1999/xlink" width="720pt" height="432pt" viewBox="0 0 720 432" xmlns="http://www.w3.org/2000/svg" version="1.1">
 <metadata>
  <rdf:RDF xmlns:dc="http://purl.org/dc/elements/1.1/" xmlns:cc="http://creativecommons.org/ns#" xmlns:rdf="http://www.w3.org/1999/02/22-rdf-syntax-ns#">
   <cc:Work>
    <dc:type rdf:resource="http://purl.org/dc/dcmitype/StillImage"/>
    <dc:date>2025-10-11T13:44:56.045271</dc:date>
    <dc:format>image/svg+xml</dc:format>
    <dc:creator>
     <cc:Agent>
      <dc:title>Matplotlib v3.9.4, https://matplotlib.org/</dc:title>
     </cc:Agent>
    </dc:creator>
   </cc:Work>
  </rdf:RDF>
 </metadata>
 <defs>
  <style type="text/css">*{stroke-linejoin: round; stroke-linecap: butt}</style>
 </defs>
 <g id="figure_1">
  <g id="patch_1">
   <path d="M 0 432 
L 720 432 
L 720 0 
L 0 0 
z
" style="fill: #ffffff"/>
  </g>
  <g id="axes_1">
   <g id="patch_2">
    <path d="M 69.71 377.54 
L 607.44 377.54 
L 607.44 26.96 
L 69.71 26.96 
L 69.71 377.54 
z
" style="fill: none"/>
   </g>
   <g id="matplotlib.axis_1">
    <g id="xtick_1">
     <g id="text_1">
      <!-- −250 -->
      <g style="fill: #262626" transform="translate(63.049071 397.776719) scale(0.15 -0.15)">
       <defs>
        <path id="ArialMT-2212" d="M 3381 1997 
L 356 1997 
L 356 2522 
L 3381 2522 
L 3381 1997 
z
" transform="scale(0.015625)"/>
        <path id="ArialMT-32" d="M 3222 541 
L 3222 0 
L 194 0 
Q 188 203 259 391 
Q 375 700 629 1000 
Q 884 1300 1366 1694 
Q 2113 2306 2375 2664 
Q 2638 3022 2638 3341 
Q 2638 3675 2398 3904 
Q 2159 4134 1775 4134 
Q 1369 4134 1125 3890 
Q 881 3647 878 3216 
L 300 3275 
Q 359 3922 746 4261 
Q 1134 4600 1788 4600 
Q 2447 4600 2831 4234 
Q 3216 3869 3216 3328 
Q 3216 3053 3103 2787 
Q 2991 2522 2730 2228 
Q 2469 1934 1863 1422 
Q 1356 997 1212 845 
Q 1069 694 975 541 
L 3222 541 
z
" transform="scale(0.015625)"/>
        <path id="ArialMT-35" d="M 266 1200 
L 856 1250 
Q 922 819 1161 601 
Q 1400 384 1738 384 
Q 2144 384 2425 690 
Q 2706 997 2706 1503 
Q 2706 1984 2436 2262 
Q 2166 2541 1728 2541 
Q 1456 2541 1237 2417 
Q 1019 2294 894 2097 
L 366 2166 
L 809 4519 
L 3088 4519 
L 3088 3981 
L 1259 3981 
L 1013 2750 
Q 1425 3038 1878 3038 
Q 2478 3038 2890 2622 
Q 3303 2206 3303 1553 
Q 3303 931 2941 478 
Q 2500 -78 1738 -78 
Q 1113 -78 717 272 
Q 322 622 266 1200 
z
" transform="scale(0.015625)"/>
        <path id="ArialMT-30" d="M 266 2259 
Q 266 3072 433 3567 
Q 600 4063 929 4331 
Q 1259 4600 1759 4600 
Q 2128 4600 2406 4451 
Q 2684 4303 2865 4023 
Q 3047 3744 3150 3342 
Q 3253 2941 3253 2259 
Q 3253 1453 3087 958 
Q 2922 463 2592 192 
Q 2263 -78 1759 -78 
Q 1097 -78 719 397 
Q 266 969 266 2259 
z
M 844 2259 
Q 844 1131 1108 757 
Q 1372 384 1759 384 
Q 2147 384 2411 759 
Q 2675 1134 2675 2259 
Q 2675 3391 2411 3762 
Q 2147 4134 1753 4134 
Q 1366 4134 1134 3806 
Q 844 3388 844 2259 
z
" transform="scale(0.015625)"/>
       </defs>
       <use xlink:href="#ArialMT-2212"/>
       <use xlink:href="#ArialMT-32" x="58.398438"/>
       <use xlink:href="#ArialMT-35" x="114.013672"/>
       <use xlink:href="#ArialMT-30" x="169.628906"/>
      </g>
     </g>
    </g>
    <g id="xtick_2">
     <g id="text_2">
      <!-- 0 -->
      <g style="fill: #262626" transform="translate(146.824064 397.776719) scale(0.15 -0.15)">
       <use xlink:href="#ArialMT-30"/>
      </g>
     </g>
    </g>
    <g id="xtick_3">
     <g id="text_3">
      <!-- 250 -->
      <g style="fill: #262626" transform="translate(209.535776 397.776719) scale(0.15 -0.15)">
       <use xlink:href="#ArialMT-32"/>
       <use xlink:href="#ArialMT-35" x="55.615234"/>
       <use xlink:href="#ArialMT-30" x="111.230469"/>
      </g>
     </g>
    </g>
    <g id="xtick_4">
     <g id="text_4">
      <!-- 500 -->
      <g style="fill: #262626" transform="translate(280.588895 397.776719) scale(0.15 -0.15)">
       <use xlink:href="#ArialMT-35"/>
       <use xlink:href="#ArialMT-30" x="55.615234"/>
       <use xlink:href="#ArialMT-30" x="111.230469"/>
      </g>
     </g>
    </g>
    <g id="xtick_5">
     <g id="text_5">
      <!-- 750 -->
      <g style="fill: #262626" transform="translate(351.642013 397.776719) scale(0.15 -0.15)">
       <defs>
        <path id="ArialMT-37" d="M 303 3981 
L 303 4522 
L 3269 4522 
L 3269 4084 
Q 2831 3619 2401 2847 
Q 1972 2075 1738 1259 
Q 1569 684 1522 0 
L 944 0 
Q 953 541 1156 1306 
Q 1359 2072 1739 2783 
Q 2119 3494 2547 3981 
L 303 3981 
z
" transform="scale(0.015625)"/>
       </defs>
       <use xlink:href="#ArialMT-37"/>
       <use xlink:href="#ArialMT-35" x="55.615234"/>
       <use xlink:href="#ArialMT-30" x="111.230469"/>
      </g>
     </g>
    </g>
    <g id="xtick_6">
     <g id="text_6">
      <!-- 1000 -->
      <g style="fill: #262626" transform="translate(418.524429 397.776719) scale(0.15 -0.15)">
       <defs>
        <path id="ArialMT-31" d="M 2384 0 
L 1822 0 
L 1822 3584 
Q 1619 3391 1289 3197 
Q 959 3003 697 2906 
L 697 3450 
Q 1169 3672 1522 3987 
Q 1875 4303 2022 4600 
L 2384 4600 
L 2384 0 
z
" transform="scale(0.015625)"/>
       </defs>
       <use xlink:href="#ArialMT-31"/>
       <use xlink:href="#ArialMT-30" x="55.615234"/>
       <use xlink:href="#ArialMT-30" x="111.230469"/>
       <use xlink:href="#ArialMT-30" x="166.845703"/>
      </g>
     </g>
    </g>
    <g id="xtick_7">
     <g id="text_7">
      <!-- 1250 -->
      <g style="fill: #262626" transform="translate(489.577547 397.776719) scale(0.15 -0.15)">
       <use xlink:href="#ArialMT-31"/>
       <use xlink:href="#ArialMT-32" x="55.615234"/>
       <use xlink:href="#ArialMT-35" x="111.230469"/>
       <use xlink:href="#ArialMT-30" x="166.845703"/>
      </g>
     </g>
    </g>
    <g id="xtick_8">
     <g id="text_8">
      <!-- 1500 -->
      <g style="fill: #262626" transform="translate(560.630665 397.776719) scale(0.15 -0.15)">
       <use xlink:href="#ArialMT-31"/>
       <use xlink:href="#ArialMT-35" x="55.615234"/>
       <use xlink:href="#ArialMT-30" x="111.230469"/>
       <use xlink:href="#ArialMT-30" x="166.845703"/>
      </g>
     </g>
    </g>
    <g id="text_9">
     <!-- Time (s) -->
     <g style="fill: #262626" transform="translate(311.362891 415.6775) scale(0.15 -0.15)">
      <defs>
       <path id="ArialMT-54" d="M 1659 0 
L 1659 4041 
L 150 4041 
L 150 4581 
L 3781 4581 
L 3781 4041 
L 2266 4041 
L 2266 0 
L 1659 0 
z
" transform="scale(0.015625)"/>
       <path id="ArialMT-69" d="M 425 3934 
L 425 4581 
L 988 4581 
L 988 3934 
L 425 3934 
z
M 425 0 
L 425 3319 
L 988 3319 
L 988 0 
L 425 0 
z
" transform="scale(0.015625)"/>
       <path id="ArialMT-6d" d="M 422 0 
L 422 3319 
L 925 3319 
L 925 2853 
Q 1081 3097 1340 3245 
Q 1600 3394 1931 3394 
Q 2300 3394 2536 3241 
Q 2772 3088 2869 2813 
Q 3263 3394 3894 3394 
Q 4388 3394 4653 3120 
Q 4919 2847 4919 2278 
L 4919 0 
L 4359 0 
L 4359 2091 
Q 4359 2428 4304 2576 
Q 4250 2725 4106 2815 
Q 3963 2906 3769 2906 
Q 3419 2906 3187 2673 
Q 2956 2441 2956 1928 
L 2956 0 
L 2394 0 
L 2394 2156 
Q 2394 2531 2256 2718 
Q 2119 2906 1806 2906 
Q 1569 2906 1367 2781 
Q 1166 2656 1075 2415 
Q 984 2175 984 1722 
L 984 0 
L 422 0 
z
" transform="scale(0.015625)"/>
       <path id="ArialMT-65" d="M 2694 1069 
L 3275 997 
Q 3138 488 2766 206 
Q 2394 -75 1816 -75 
Q 1088 -75 661 373 
Q 234 822 234 1631 
Q 234 2469 665 2931 
Q 1097 3394 1784 3394 
Q 2450 3394 2872 2941 
Q 3294 2488 3294 1666 
Q 3294 1616 3291 1516 
L 816 1516 
Q 847 969 1125 678 
Q 1403 388 1819 388 
Q 2128 388 2347 550 
Q 2566 713 2694 1069 
z
M 847 1978 
L 2700 1978 
Q 2663 2397 2488 2606 
Q 2219 2931 1791 2931 
Q 1403 2931 1139 2672 
Q 875 2413 847 1978 
z
" transform="scale(0.015625)"/>
       <path id="ArialMT-20" transform="scale(0.015625)"/>
       <path id="ArialMT-28" d="M 1497 -1347 
Q 1031 -759 709 28 
Q 388 816 388 1659 
Q 388 2403 628 3084 
Q 909 3875 1497 4659 
L 1900 4659 
Q 1522 4009 1400 3731 
Q 1209 3300 1100 2831 
Q 966 2247 966 1656 
Q 966 153 1900 -1347 
L 1497 -1347 
z
" transform="scale(0.015625)"/>
       <path id="ArialMT-73" d="M 197 991 
L 753 1078 
Q 800 744 1014 566 
Q 1228 388 1613 388 
Q 2000 388 2187 545 
Q 2375 703 2375 916 
Q 2375 1106 2209 1216 
Q 2094 1291 1634 1406 
Q 1016 1563 777 1677 
Q 538 1791 414 1992 
Q 291 2194 291 2438 
Q 291 2659 392 2848 
Q 494 3038 669 3163 
Q 800 3259 1026 3326 
Q 1253 3394 1513 3394 
Q 1903 3394 2198 3281 
Q 2494 3169 2634 2976 
Q 2775 2784 2828 2463 
L 2278 2388 
Q 2241 2644 2061 2787 
Q 1881 2931 1553 2931 
Q 1166 2931 1000 2803 
Q 834 2675 834 2503 
Q 834 2394 903 2306 
Q 972 2216 1119 2156 
Q 1203 2125 1616 2013 
Q 2213 1853 2448 1751 
Q 2684 1650 2818 1456 
Q 2953 1263 2953 975 
Q 2953 694 2789 445 
Q 2625 197 2315 61 
Q 2006 -75 1616 -75 
Q 969 -75 630 194 
Q 291 463 197 991 
z
" transform="scale(0.015625)"/>
       <path id="ArialMT-29" d="M 791 -1347 
L 388 -1347 
Q 1322 153 1322 1656 
Q 1322 2244 1188 2822 
Q 1081 3291 891 3722 
Q 769 4003 388 4659 
L 791 4659 
Q 1378 3875 1659 3084 
Q 1900 2403 1900 1659 
Q 1900 816 1576 28 
Q 1253 -759 791 -1347 
z
" transform="scale(0.015625)"/>
      </defs>
      <use xlink:href="#ArialMT-54"/>
      <use xlink:href="#ArialMT-69" x="57.333984"/>
      <use xlink:href="#ArialMT-6d" x="79.550781"/>
      <use xlink:href="#ArialMT-65" x="162.851562"/>
      <use xlink:href="#ArialMT-20" x="218.466797"/>
      <use xlink:href="#ArialMT-28" x="246.25"/>
      <use xlink:href="#ArialMT-73" x="279.550781"/>
      <use xlink:href="#ArialMT-29" x="329.550781"/>
     </g>
    </g>
   </g>
   <g id="matplotlib.axis_2">
    <g id="ytick_1">
     <g id="text_10">
      <!-- 0.00 -->
      <g style="fill: #262626" transform="translate(31.018594 335.194042) scale(0.15 -0.15)">
       <defs>
        <path id="ArialMT-2e" d="M 581 0 
L 581 641 
L 1222 641 
L 1222 0 
L 581 0 
z
" transform="scale(0.015625)"/>
       </defs>
       <use xlink:href="#ArialMT-30"/>
       <use xlink:href="#ArialMT-2e" x="55.615234"/>
       <use xlink:href="#ArialMT-30" x="83.398438"/>
       <use xlink:href="#ArialMT-30" x="139.013672"/>
      </g>
     </g>
    </g>
    <g id="ytick_2">
     <g id="text_11">
      <!-- 0.05 -->
      <g style="fill: #262626" transform="translate(31.018594 281.153355) scale(0.15 -0.15)">
       <use xlink:href="#ArialMT-30"/>
       <use xlink:href="#ArialMT-2e" x="55.615234"/>
       <use xlink:href="#ArialMT-30" x="83.398438"/>
       <use xlink:href="#ArialMT-35" x="139.013672"/>
      </g>
     </g>
    </g>
    <g id="ytick_3">
     <g id="text_12">
      <!-- 0.10 -->
      <g style="fill: #262626" transform="translate(31.018594 227.112667) scale(0.15 -0.15)">
       <use xlink:href="#ArialMT-30"/>
       <use xlink:href="#ArialMT-2e" x="55.615234"/>
       <use xlink:href="#ArialMT-31" x="83.398438"/>
       <use xlink:href="#ArialMT-30" x="139.013672"/>
      </g>
     </g>
    </g>
    <g id="ytick_4">
     <g id="text_13">
      <!-- 0.15 -->
      <g style="fill: #262626" transform="translate(31.018594 173.071979) scale(0.15 -0.15)">
       <use xlink:href="#ArialMT-30"/>
       <use xlink:href="#ArialMT-2e" x="55.615234"/>
       <use xlink:href="#ArialMT-31" x="83.398438"/>
       <use xlink:href="#ArialMT-35" x="139.013672"/>
      </g>
     </g>
    </g>
    <g id="ytick_5">
     <g id="text_14">
      <!-- 0.20 -->
      <g style="fill: #262626" transform="translate(31.018594 119.031291) scale(0.15 -0.15)">
       <use xlink:href="#ArialMT-30"/>
       <use xlink:href="#ArialMT-2e" x="55.615234"/>
       <use xlink:href="#ArialMT-32" x="83.398438"/>
       <use xlink:href="#ArialMT-30" x="139.013672"/>
      </g>
     </g>
    </g>
    <g id="ytick_6">
     <g id="text_15">
      <!-- 0.25 -->
      <g style="fill: #262626" transform="translate(31.018594 64.990604) scale(0.15 -0.15)">
       <use xlink:href="#ArialMT-30"/>
       <use xlink:href="#ArialMT-2e" x="55.615234"/>
       <use xlink:href="#ArialMT-32" x="83.398438"/>
       <use xlink:href="#ArialMT-35" x="139.013672"/>
      </g>
     </g>
    </g>
    <g id="text_16">
     <!-- Divergence -->
     <g style="fill: #262626" transform="translate(23.861562 240.183594) rotate(-90) scale(0.15 -0.15)">
      <defs>
       <path id="ArialMT-44" d="M 494 0 
L 494 4581 
L 2072 4581 
Q 2606 4581 2888 4516 
Q 3281 4425 3559 4188 
Q 3922 3881 4101 3404 
Q 4281 2928 4281 2316 
Q 4281 1794 4159 1391 
Q 4038 988 3847 723 
Q 3656 459 3429 307 
Q 3203 156 2883 78 
Q 2563 0 2147 0 
L 494 0 
z
M 1100 541 
L 2078 541 
Q 2531 541 2789 625 
Q 3047 709 3200 863 
Q 3416 1078 3536 1442 
Q 3656 1806 3656 2325 
Q 3656 3044 3420 3430 
Q 3184 3816 2847 3947 
Q 2603 4041 2063 4041 
L 1100 4041 
L 1100 541 
z
" transform="scale(0.015625)"/>
       <path id="ArialMT-76" d="M 1344 0 
L 81 3319 
L 675 3319 
L 1388 1331 
Q 1503 1009 1600 663 
Q 1675 925 1809 1294 
L 2547 3319 
L 3125 3319 
L 1869 0 
L 1344 0 
z
" transform="scale(0.015625)"/>
       <path id="ArialMT-72" d="M 416 0 
L 416 3319 
L 922 3319 
L 922 2816 
Q 1116 3169 1280 3281 
Q 1444 3394 1641 3394 
Q 1925 3394 2219 3213 
L 2025 2691 
Q 1819 2813 1613 2813 
Q 1428 2813 1281 2702 
Q 1134 2591 1072 2394 
Q 978 2094 978 1738 
L 978 0 
L 416 0 
z
" transform="scale(0.015625)"/>
       <path id="ArialMT-67" d="M 319 -275 
L 866 -356 
Q 900 -609 1056 -725 
Q 1266 -881 1628 -881 
Q 2019 -881 2231 -725 
Q 2444 -569 2519 -288 
Q 2563 -116 2559 434 
Q 2191 0 1641 0 
Q 956 0 581 494 
Q 206 988 206 1678 
Q 206 2153 378 2554 
Q 550 2956 876 3175 
Q 1203 3394 1644 3394 
Q 2231 3394 2613 2919 
L 2613 3319 
L 3131 3319 
L 3131 450 
Q 3131 -325 2973 -648 
Q 2816 -972 2473 -1159 
Q 2131 -1347 1631 -1347 
Q 1038 -1347 672 -1080 
Q 306 -813 319 -275 
z
M 784 1719 
Q 784 1066 1043 766 
Q 1303 466 1694 466 
Q 2081 466 2343 764 
Q 2606 1063 2606 1700 
Q 2606 2309 2336 2618 
Q 2066 2928 1684 2928 
Q 1309 2928 1046 2623 
Q 784 2319 784 1719 
z
" transform="scale(0.015625)"/>
       <path id="ArialMT-6e" d="M 422 0 
L 422 3319 
L 928 3319 
L 928 2847 
Q 1294 3394 1984 3394 
Q 2284 3394 2536 3286 
Q 2788 3178 2913 3003 
Q 3038 2828 3088 2588 
Q 3119 2431 3119 2041 
L 3119 0 
L 2556 0 
L 2556 2019 
Q 2556 2363 2490 2533 
Q 2425 2703 2258 2804 
Q 2091 2906 1866 2906 
Q 1506 2906 1245 2678 
Q 984 2450 984 1813 
L 984 0 
L 422 0 
z
" transform="scale(0.015625)"/>
       <path id="ArialMT-63" d="M 2588 1216 
L 3141 1144 
Q 3050 572 2676 248 
Q 2303 -75 1759 -75 
Q 1078 -75 664 370 
Q 250 816 250 1647 
Q 250 2184 428 2587 
Q 606 2991 970 3192 
Q 1334 3394 1763 3394 
Q 2303 3394 2647 3120 
Q 2991 2847 3088 2344 
L 2541 2259 
Q 2463 2594 2264 2762 
Q 2066 2931 1784 2931 
Q 1359 2931 1093 2626 
Q 828 2322 828 1663 
Q 828 994 1084 691 
Q 1341 388 1753 388 
Q 2084 388 2306 591 
Q 2528 794 2588 1216 
z
" transform="scale(0.015625)"/>
      </defs>
      <use xlink:href="#ArialMT-44"/>
      <use xlink:href="#ArialMT-69" x="72.216797"/>
      <use xlink:href="#ArialMT-76" x="94.433594"/>
      <use xlink:href="#ArialMT-65" x="144.433594"/>
      <use xlink:href="#ArialMT-72" x="200.048828"/>
      <use xlink:href="#ArialMT-67" x="233.349609"/>
      <use xlink:href="#ArialMT-65" x="288.964844"/>
      <use xlink:href="#ArialMT-6e" x="344.580078"/>
      <use xlink:href="#ArialMT-63" x="400.195312"/>
      <use xlink:href="#ArialMT-65" x="450.195312"/>
     </g>
    </g>
   </g>
   <g id="PolyCollection_1">
    <defs>
     <path id="ma89f82c9f0" d="M 94.152273 -99.889917 
L 94.152273 -91.180676 
L 99.836522 -94.007705 
L 105.520772 -98.421972 
L 111.205021 -98.986667 
L 116.889271 -95.782714 
L 122.57352 -91.418102 
L 128.25777 -95.112244 
L 133.942019 -94.712258 
L 139.626268 -94.174531 
L 145.310518 -85.791606 
L 150.994767 -113.61606 
L 156.679017 -134.989834 
L 162.363266 -153.723701 
L 168.047516 -206.693473 
L 173.731765 -266.670061 
L 179.416015 -298.854588 
L 185.100264 -280.39475 
L 190.784514 -226.193008 
L 196.468763 -146.964587 
L 202.153013 -101.234007 
L 207.837262 -111.322585 
L 213.521512 -175.160418 
L 219.205761 -235.670629 
L 224.890011 -301.380876 
L 230.57426 -299.332787 
L 236.25851 -259.019387 
L 241.942759 -207.483794 
L 247.627008 -197.40873 
L 253.311258 -224.625533 
L 258.995507 -252.519523 
L 264.679757 -276.594817 
L 270.364006 -309.056439 
L 276.048256 -338.44276 
L 281.732505 -305.289624 
L 287.416755 -194.190178 
L 293.101004 -147.133207 
L 298.785254 -186.993698 
L 304.469503 -237.701486 
L 310.153753 -253.228246 
L 315.838002 -197.888768 
L 321.522252 -192.103577 
L 327.206501 -216.235571 
L 332.890751 -258.806886 
L 338.575 -285.501022 
L 344.259249 -341.704228 
L 349.943499 -352.595156 
L 355.627748 -291.901125 
L 361.311998 -249.663106 
L 366.996247 -256.742789 
L 372.680497 -310.501565 
L 378.364746 -348.339165 
L 384.048996 -339.442331 
L 389.733245 -292.889548 
L 395.417495 -286.341297 
L 401.101744 -320.588336 
L 406.785994 -356.925116 
L 412.470243 -353.471369 
L 418.154493 -301.31417 
L 423.838742 -253.175434 
L 429.522992 -184.154489 
L 435.207241 -128.164885 
L 440.89149 -101.109216 
L 446.57574 -95.769372 
L 452.259989 -93.234732 
L 457.944239 -92.680179 
L 463.628488 -97.953035 
L 469.312738 -103.520296 
L 474.996987 -101.28155 
L 480.681237 -100.145265 
L 486.365486 -95.173361 
L 492.049736 -100.705197 
L 497.733985 -93.384443 
L 503.418235 -101.224846 
L 509.102484 -92.867272 
L 514.786734 -98.782908 
L 520.470983 -105.611501 
L 526.155233 -95.06501 
L 531.839482 -95.850754 
L 537.523732 -93.106704 
L 543.207981 -96.869864 
L 548.89223 -99.324031 
L 554.57648 -97.37859 
L 560.260729 -100.603769 
L 565.944979 -96.829828 
L 571.629228 -95.396212 
L 577.313478 -89.975713 
L 582.997727 -87.745394 
L 582.997727 -96.578507 
L 582.997727 -96.578507 
L 577.313478 -98.101386 
L 571.629228 -105.649942 
L 565.944979 -105.129689 
L 560.260729 -108.632282 
L 554.57648 -105.55731 
L 548.89223 -108.5478 
L 543.207981 -105.470492 
L 537.523732 -101.303567 
L 531.839482 -104.692621 
L 526.155233 -103.216932 
L 520.470983 -112.753818 
L 514.786734 -108.017486 
L 509.102484 -101.001864 
L 503.418235 -109.625658 
L 497.733985 -102.350846 
L 492.049736 -107.401791 
L 486.365486 -103.212594 
L 480.681237 -107.535875 
L 474.996987 -108.830554 
L 469.312738 -111.043626 
L 463.628488 -106.410425 
L 457.944239 -100.233284 
L 452.259989 -102.086824 
L 446.57574 -105.18513 
L 440.89149 -111.661404 
L 435.207241 -139.82679 
L 429.522992 -203.340465 
L 423.838742 -275.785394 
L 418.154493 -327.908434 
L 412.470243 -384.415179 
L 406.785994 -389.104545 
L 401.101744 -350.039775 
L 395.417495 -310.944425 
L 389.733245 -318.07827 
L 384.048996 -367.288084 
L 378.364746 -377.272259 
L 372.680497 -337.932218 
L 366.996247 -278.095016 
L 361.311998 -268.840898 
L 355.627748 -315.482713 
L 349.943499 -382.649346 
L 344.259249 -371.818132 
L 338.575 -309.122711 
L 332.890751 -278.963254 
L 327.206501 -234.45541 
L 321.522252 -210.133401 
L 315.838002 -215.851484 
L 310.153753 -273.895591 
L 304.469503 -257.634023 
L 298.785254 -205.095241 
L 293.101004 -162.728061 
L 287.416755 -213.697635 
L 281.732505 -329.690144 
L 276.048256 -364.659149 
L 270.364006 -333.697052 
L 264.679757 -300.043773 
L 258.995507 -274.793843 
L 253.311258 -244.477751 
L 247.627008 -215.145704 
L 241.942759 -224.323137 
L 236.25851 -282.059055 
L 230.57426 -327.082476 
L 224.890011 -331.128582 
L 219.205761 -259.184804 
L 213.521512 -193.070509 
L 207.837262 -128.734585 
L 202.153013 -118.881953 
L 196.468763 -161.978507 
L 190.784514 -244.957987 
L 185.100264 -304.577629 
L 179.416015 -324.716068 
L 173.731765 -289.603448 
L 168.047516 -224.624527 
L 162.363266 -169.128295 
L 156.679017 -150.41851 
L 150.994767 -127.114156 
L 145.310518 -95.505583 
L 139.626268 -103.577357 
L 133.942019 -104.091504 
L 128.25777 -103.74042 
L 122.57352 -101.418534 
L 116.889271 -106.027255 
L 111.205021 -109.028938 
L 105.520772 -108.254865 
L 99.836522 -103.308914 
L 94.152273 -99.889917 
z
" style="stroke: #eb6ab0; stroke-opacity: 0.1"/>
    </defs>
    <g clip-path="url(#p45cf61931f)">
     <use xlink:href="#ma89f82c9f0" x="0" y="432" style="fill: #eb6ab0; fill-opacity: 0.1; stroke: #eb6ab0; stroke-opacity: 0.1"/>
    </g>
   </g>
   <g id="PolyCollection_2">
    <defs>
     <path id="m877cfbf495" d="M 94.152273 -103.168123 
L 94.152273 -101.927838 
L 99.836522 -100.629694 
L 105.520772 -101.566922 
L 111.205021 -102.670682 
L 116.889271 -100.954388 
L 122.57352 -102.055004 
L 128.25777 -101.628326 
L 133.942019 -102.731049 
L 139.626268 -101.044701 
L 145.310518 -102.243818 
L 150.994767 -111.292649 
L 156.679017 -113.120318 
L 162.363266 -109.778354 
L 168.047516 -104.268457 
L 173.731765 -104.119714 
L 179.416015 -108.302715 
L 185.100264 -117.35593 
L 190.784514 -123.528274 
L 196.468763 -121.504396 
L 202.153013 -114.539526 
L 207.837262 -105.534461 
L 213.521512 -108.299281 
L 219.205761 -105.00994 
L 224.890011 -99.637432 
L 230.57426 -101.180322 
L 236.25851 -104.604648 
L 241.942759 -106.373448 
L 247.627008 -111.22137 
L 253.311258 -115.502249 
L 258.995507 -113.09604 
L 264.679757 -109.548838 
L 270.364006 -111.256801 
L 276.048256 -111.476255 
L 281.732505 -108.847242 
L 287.416755 -106.339547 
L 293.101004 -106.718507 
L 298.785254 -109.961823 
L 304.469503 -114.991057 
L 310.153753 -117.498222 
L 315.838002 -118.058216 
L 321.522252 -114.109024 
L 327.206501 -107.142483 
L 332.890751 -104.508508 
L 338.575 -105.883499 
L 344.259249 -109.336307 
L 349.943499 -112.332051 
L 355.627748 -108.413833 
L 361.311998 -103.015557 
L 366.996247 -101.627178 
L 372.680497 -103.837961 
L 378.364746 -106.166148 
L 384.048996 -106.619365 
L 389.733245 -109.120146 
L 395.417495 -108.925415 
L 401.101744 -112.653391 
L 406.785994 -109.549312 
L 412.470243 -109.682157 
L 418.154493 -107.734294 
L 423.838742 -105.480905 
L 429.522992 -105.969452 
L 435.207241 -102.204253 
L 440.89149 -101.50463 
L 446.57574 -101.455568 
L 452.259989 -101.04536 
L 457.944239 -102.928375 
L 463.628488 -101.949098 
L 469.312738 -103.028356 
L 474.996987 -102.095938 
L 480.681237 -102.356287 
L 486.365486 -101.729405 
L 492.049736 -100.568459 
L 497.733985 -101.233043 
L 503.418235 -100.319198 
L 509.102484 -101.006436 
L 514.786734 -101.469881 
L 520.470983 -101.133975 
L 526.155233 -103.257336 
L 531.839482 -102.246833 
L 537.523732 -102.062766 
L 543.207981 -101.696672 
L 548.89223 -102.663587 
L 554.57648 -101.843901 
L 560.260729 -102.381551 
L 565.944979 -101.070862 
L 571.629228 -100.74116 
L 577.313478 -100.275189 
L 582.997727 -100.677492 
L 582.997727 -101.910632 
L 582.997727 -101.910632 
L 577.313478 -101.558427 
L 571.629228 -101.955209 
L 565.944979 -102.085807 
L 560.260729 -103.649046 
L 554.57648 -102.830898 
L 548.89223 -104.203427 
L 543.207981 -102.877425 
L 537.523732 -103.181657 
L 531.839482 -103.372654 
L 526.155233 -104.581367 
L 520.470983 -102.344983 
L 514.786734 -102.675392 
L 509.102484 -102.224307 
L 503.418235 -101.582561 
L 497.733985 -102.395346 
L 492.049736 -101.856346 
L 486.365486 -103.022085 
L 480.681237 -103.528877 
L 474.996987 -103.232968 
L 469.312738 -104.177926 
L 463.628488 -103.044037 
L 457.944239 -104.062494 
L 452.259989 -102.360466 
L 446.57574 -102.855142 
L 440.89149 -103.036155 
L 435.207241 -104.052126 
L 429.522992 -108.809703 
L 423.838742 -108.081315 
L 418.154493 -110.075417 
L 412.470243 -112.12928 
L 406.785994 -111.903696 
L 401.101744 -114.928512 
L 395.417495 -111.461643 
L 389.733245 -111.339383 
L 384.048996 -108.941099 
L 378.364746 -108.32729 
L 372.680497 -106.164185 
L 366.996247 -104.151533 
L 361.311998 -105.766152 
L 355.627748 -110.997321 
L 349.943499 -115.039559 
L 344.259249 -111.828112 
L 338.575 -108.262216 
L 332.890751 -106.966953 
L 327.206501 -109.522471 
L 321.522252 -116.503577 
L 315.838002 -120.46406 
L 310.153753 -119.80535 
L 304.469503 -117.171284 
L 298.785254 -112.173337 
L 293.101004 -109.332237 
L 287.416755 -108.630806 
L 281.732505 -111.166469 
L 276.048256 -113.688793 
L 270.364006 -113.383241 
L 264.679757 -111.805443 
L 258.995507 -115.195172 
L 253.311258 -117.613574 
L 247.627008 -113.176955 
L 241.942759 -108.748779 
L 236.25851 -107.037401 
L 230.57426 -103.849704 
L 224.890011 -102.309086 
L 219.205761 -107.509594 
L 213.521512 -110.618197 
L 207.837262 -108.02922 
L 202.153013 -117.289871 
L 196.468763 -124.57009 
L 190.784514 -126.692274 
L 185.100264 -119.855332 
L 179.416015 -110.64071 
L 173.731765 -106.552772 
L 168.047516 -106.738083 
L 162.363266 -112.069357 
L 156.679017 -115.305573 
L 150.994767 -113.191629 
L 145.310518 -103.673564 
L 139.626268 -102.41302 
L 133.942019 -104.138191 
L 128.25777 -102.903477 
L 122.57352 -103.414296 
L 116.889271 -102.331983 
L 111.205021 -104.153151 
L 105.520772 -102.979216 
L 99.836522 -102.040826 
L 94.152273 -103.168123 
z
" style="stroke: #eb6ab0; stroke-opacity: 0.1"/>
    </defs>
    <g clip-path="url(#p45cf61931f)">
     <use xlink:href="#m877cfbf495" x="0" y="432" style="fill: #eb6ab0; fill-opacity: 0.1; stroke: #eb6ab0; stroke-opacity: 0.1"/>
    </g>
   </g>
   <g id="PathCollection_1">
    <defs>
     <path id="m5874fb2177" d="M 0 -3 
L -0.673542 -0.927051 
L -2.85317 -0.927051 
L -1.089814 0.354102 
L -1.763356 2.427051 
L -0 1.145898 
L 1.763356 2.427051 
L 1.089814 0.354102 
L 2.85317 -0.927051 
L 0.673542 -0.927051 
z
" style="stroke: #eb6ab0"/>
    </defs>
    <g clip-path="url(#p45cf61931f)">
     <use xlink:href="#m5874fb2177" x="156.679017" y="340.633821" style="fill: #eb6ab0; stroke: #eb6ab0"/>
     <use xlink:href="#m5874fb2177" x="162.363266" y="340.633821" style="fill: #eb6ab0; stroke: #eb6ab0"/>
     <use xlink:href="#m5874fb2177" x="168.047516" y="340.633821" style="fill: #eb6ab0; stroke: #eb6ab0"/>
     <use xlink:href="#m5874fb2177" x="173.731765" y="340.633821" style="fill: #eb6ab0; stroke: #eb6ab0"/>
     <use xlink:href="#m5874fb2177" x="179.416015" y="340.633821" style="fill: #eb6ab0; stroke: #eb6ab0"/>
     <use xlink:href="#m5874fb2177" x="185.100264" y="340.633821" style="fill: #eb6ab0; stroke: #eb6ab0"/>
     <use xlink:href="#m5874fb2177" x="190.784514" y="340.633821" style="fill: #eb6ab0; stroke: #eb6ab0"/>
     <use xlink:href="#m5874fb2177" x="196.468763" y="340.633821" style="fill: #eb6ab0; stroke: #eb6ab0"/>
     <use xlink:href="#m5874fb2177" x="213.521512" y="340.633821" style="fill: #eb6ab0; stroke: #eb6ab0"/>
     <use xlink:href="#m5874fb2177" x="219.205761" y="340.633821" style="fill: #eb6ab0; stroke: #eb6ab0"/>
     <use xlink:href="#m5874fb2177" x="224.890011" y="340.633821" style="fill: #eb6ab0; stroke: #eb6ab0"/>
     <use xlink:href="#m5874fb2177" x="230.57426" y="340.633821" style="fill: #eb6ab0; stroke: #eb6ab0"/>
     <use xlink:href="#m5874fb2177" x="236.25851" y="340.633821" style="fill: #eb6ab0; stroke: #eb6ab0"/>
     <use xlink:href="#m5874fb2177" x="241.942759" y="340.633821" style="fill: #eb6ab0; stroke: #eb6ab0"/>
     <use xlink:href="#m5874fb2177" x="247.627008" y="340.633821" style="fill: #eb6ab0; stroke: #eb6ab0"/>
     <use xlink:href="#m5874fb2177" x="253.311258" y="340.633821" style="fill: #eb6ab0; stroke: #eb6ab0"/>
     <use xlink:href="#m5874fb2177" x="258.995507" y="340.633821" style="fill: #eb6ab0; stroke: #eb6ab0"/>
     <use xlink:href="#m5874fb2177" x="264.679757" y="340.633821" style="fill: #eb6ab0; stroke: #eb6ab0"/>
     <use xlink:href="#m5874fb2177" x="270.364006" y="340.633821" style="fill: #eb6ab0; stroke: #eb6ab0"/>
     <use xlink:href="#m5874fb2177" x="276.048256" y="340.633821" style="fill: #eb6ab0; stroke: #eb6ab0"/>
     <use xlink:href="#m5874fb2177" x="281.732505" y="340.633821" style="fill: #eb6ab0; stroke: #eb6ab0"/>
     <use xlink:href="#m5874fb2177" x="287.416755" y="340.633821" style="fill: #eb6ab0; stroke: #eb6ab0"/>
     <use xlink:href="#m5874fb2177" x="293.101004" y="340.633821" style="fill: #eb6ab0; stroke: #eb6ab0"/>
     <use xlink:href="#m5874fb2177" x="298.785254" y="340.633821" style="fill: #eb6ab0; stroke: #eb6ab0"/>
     <use xlink:href="#m5874fb2177" x="304.469503" y="340.633821" style="fill: #eb6ab0; stroke: #eb6ab0"/>
     <use xlink:href="#m5874fb2177" x="310.153753" y="340.633821" style="fill: #eb6ab0; stroke: #eb6ab0"/>
     <use xlink:href="#m5874fb2177" x="315.838002" y="340.633821" style="fill: #eb6ab0; stroke: #eb6ab0"/>
     <use xlink:href="#m5874fb2177" x="321.522252" y="340.633821" style="fill: #eb6ab0; stroke: #eb6ab0"/>
     <use xlink:href="#m5874fb2177" x="327.206501" y="340.633821" style="fill: #eb6ab0; stroke: #eb6ab0"/>
     <use xlink:href="#m5874fb2177" x="332.890751" y="340.633821" style="fill: #eb6ab0; stroke: #eb6ab0"/>
     <use xlink:href="#m5874fb2177" x="338.575" y="340.633821" style="fill: #eb6ab0; stroke: #eb6ab0"/>
     <use xlink:href="#m5874fb2177" x="344.259249" y="340.633821" style="fill: #eb6ab0; stroke: #eb6ab0"/>
     <use xlink:href="#m5874fb2177" x="349.943499" y="340.633821" style="fill: #eb6ab0; stroke: #eb6ab0"/>
     <use xlink:href="#m5874fb2177" x="355.627748" y="340.633821" style="fill: #eb6ab0; stroke: #eb6ab0"/>
     <use xlink:href="#m5874fb2177" x="361.311998" y="340.633821" style="fill: #eb6ab0; stroke: #eb6ab0"/>
     <use xlink:href="#m5874fb2177" x="366.996247" y="340.633821" style="fill: #eb6ab0; stroke: #eb6ab0"/>
     <use xlink:href="#m5874fb2177" x="372.680497" y="340.633821" style="fill: #eb6ab0; stroke: #eb6ab0"/>
     <use xlink:href="#m5874fb2177" x="378.364746" y="340.633821" style="fill: #eb6ab0; stroke: #eb6ab0"/>
     <use xlink:href="#m5874fb2177" x="384.048996" y="340.633821" style="fill: #eb6ab0; stroke: #eb6ab0"/>
     <use xlink:href="#m5874fb2177" x="389.733245" y="340.633821" style="fill: #eb6ab0; stroke: #eb6ab0"/>
     <use xlink:href="#m5874fb2177" x="395.417495" y="340.633821" style="fill: #eb6ab0; stroke: #eb6ab0"/>
     <use xlink:href="#m5874fb2177" x="401.101744" y="340.633821" style="fill: #eb6ab0; stroke: #eb6ab0"/>
     <use xlink:href="#m5874fb2177" x="406.785994" y="340.633821" style="fill: #eb6ab0; stroke: #eb6ab0"/>
     <use xlink:href="#m5874fb2177" x="412.470243" y="340.633821" style="fill: #eb6ab0; stroke: #eb6ab0"/>
     <use xlink:href="#m5874fb2177" x="418.154493" y="340.633821" style="fill: #eb6ab0; stroke: #eb6ab0"/>
     <use xlink:href="#m5874fb2177" x="423.838742" y="340.633821" style="fill: #eb6ab0; stroke: #eb6ab0"/>
     <use xlink:href="#m5874fb2177" x="429.522992" y="340.633821" style="fill: #eb6ab0; stroke: #eb6ab0"/>
     <use xlink:href="#m5874fb2177" x="435.207241" y="340.633821" style="fill: #eb6ab0; stroke: #eb6ab0"/>
    </g>
   </g>
   <g id="PolyCollection_3">
    <defs>
     <path id="mcdd56255dd" d="M 94.152273 -122.186861 
L 94.152273 -93.630217 
L 99.836522 -103.0033 
L 105.520772 -82.514877 
L 111.205021 -70.395455 
L 116.889271 -82.620977 
L 122.57352 -71.608803 
L 128.25777 -88.789973 
L 133.942019 -123.419875 
L 139.626268 -138.64242 
L 145.310518 -169.146842 
L 150.994767 -171.916008 
L 156.679017 -158.229501 
L 162.363266 -159.607215 
L 168.047516 -153.884294 
L 173.731765 -169.752876 
L 179.416015 -160.97475 
L 185.100264 -158.208032 
L 190.784514 -158.878669 
L 196.468763 -163.379356 
L 202.153013 -158.135311 
L 207.837262 -154.286816 
L 213.521512 -159.193366 
L 219.205761 -171.306482 
L 224.890011 -169.679747 
L 230.57426 -176.734125 
L 236.25851 -180.913494 
L 241.942759 -182.303778 
L 247.627008 -182.916784 
L 253.311258 -182.490153 
L 258.995507 -188.591415 
L 264.679757 -201.789236 
L 270.364006 -201.754189 
L 276.048256 -209.249198 
L 281.732505 -217.43652 
L 287.416755 -218.944307 
L 293.101004 -222.113529 
L 298.785254 -230.438859 
L 304.469503 -233.56049 
L 310.153753 -237.813191 
L 315.838002 -239.544702 
L 321.522252 -242.135486 
L 327.206501 -240.902232 
L 332.890751 -242.976833 
L 338.575 -246.751885 
L 344.259249 -247.539972 
L 349.943499 -250.936034 
L 355.627748 -260.807057 
L 361.311998 -268.279068 
L 366.996247 -270.76434 
L 372.680497 -268.511566 
L 378.364746 -278.086537 
L 384.048996 -279.923717 
L 389.733245 -282.363122 
L 395.417495 -282.403737 
L 401.101744 -285.159679 
L 406.785994 -289.789143 
L 412.470243 -297.531114 
L 418.154493 -306.948625 
L 423.838742 -310.6569 
L 429.522992 -309.074299 
L 435.207241 -313.802948 
L 440.89149 -307.064065 
L 446.57574 -305.312625 
L 452.259989 -303.132266 
L 457.944239 -300.475763 
L 463.628488 -297.518349 
L 469.312738 -297.729554 
L 474.996987 -296.098111 
L 480.681237 -294.28574 
L 486.365486 -298.117389 
L 492.049736 -291.933357 
L 497.733985 -291.192446 
L 503.418235 -292.545717 
L 509.102484 -289.40336 
L 514.786734 -290.362689 
L 520.470983 -287.219847 
L 526.155233 -283.617955 
L 531.839482 -280.298183 
L 537.523732 -279.632489 
L 543.207981 -284.802246 
L 548.89223 -276.729774 
L 554.57648 -275.52046 
L 560.260729 -271.831517 
L 565.944979 -278.703551 
L 571.629228 -283.14168 
L 577.313478 -280.809484 
L 582.997727 -281.167816 
L 582.997727 -342.11519 
L 582.997727 -342.11519 
L 577.313478 -342.427992 
L 571.629228 -345.704556 
L 565.944979 -341.131328 
L 560.260729 -333.505595 
L 554.57648 -337.355749 
L 548.89223 -339.090619 
L 543.207981 -346.508908 
L 537.523732 -341.742146 
L 531.839482 -342.020599 
L 526.155233 -345.296503 
L 520.470983 -348.617874 
L 514.786734 -350.985463 
L 509.102484 -349.627442 
L 503.418235 -353.161395 
L 497.733985 -351.367688 
L 492.049736 -350.561891 
L 486.365486 -355.642852 
L 480.681237 -352.111885 
L 474.996987 -354.572236 
L 469.312738 -355.580332 
L 463.628488 -353.755295 
L 457.944239 -355.537416 
L 452.259989 -357.85692 
L 446.57574 -360.230905 
L 440.89149 -362.413891 
L 435.207241 -369.747644 
L 429.522992 -363.855917 
L 423.838742 -365.042381 
L 418.154493 -360.400956 
L 412.470243 -349.939179 
L 406.785994 -340.126257 
L 401.101744 -333.76051 
L 395.417495 -328.998435 
L 389.733245 -328.287703 
L 384.048996 -324.891827 
L 378.364746 -322.51543 
L 372.680497 -312.147969 
L 366.996247 -313.629626 
L 361.311998 -309.725987 
L 355.627748 -301.189685 
L 349.943499 -290.30504 
L 344.259249 -285.885475 
L 338.575 -284.292614 
L 332.890751 -280.523535 
L 327.206501 -278.160139 
L 321.522252 -279.249616 
L 315.838002 -276.734574 
L 310.153753 -274.192746 
L 304.469503 -267.99022 
L 298.785254 -264.884135 
L 293.101004 -256.797589 
L 287.416755 -253.135386 
L 281.732505 -250.20477 
L 276.048256 -241.427025 
L 270.364006 -232.141047 
L 264.679757 -230.523734 
L 258.995507 -215.7492 
L 253.311258 -208.483265 
L 247.627008 -207.505614 
L 241.942759 -207.604379 
L 236.25851 -206.635152 
L 230.57426 -201.108595 
L 224.890011 -193.164097 
L 219.205761 -194.458623 
L 213.521512 -182.598021 
L 207.837262 -178.610617 
L 202.153013 -184.880061 
L 196.468763 -188.949821 
L 190.784514 -187.665598 
L 185.100264 -187.894576 
L 179.416015 -191.899856 
L 173.731765 -199.534817 
L 168.047516 -182.968802 
L 162.363266 -191.147377 
L 156.679017 -190.350452 
L 150.994767 -203.386737 
L 145.310518 -205.400971 
L 139.626268 -174.813945 
L 133.942019 -162.49454 
L 128.25777 -130.932645 
L 122.57352 -118.090328 
L 116.889271 -125.41306 
L 111.205021 -114.766907 
L 105.520772 -119.328685 
L 99.836522 -139.176607 
L 94.152273 -122.186861 
z
" style="stroke: #8b0a50; stroke-opacity: 0.1"/>
    </defs>
    <g clip-path="url(#p45cf61931f)">
     <use xlink:href="#mcdd56255dd" x="0" y="432" style="fill: #8b0a50; fill-opacity: 0.1; stroke: #8b0a50; stroke-opacity: 0.1"/>
    </g>
   </g>
   <g id="PolyCollection_4">
    <defs>
     <path id="ma38fcb0787" d="M 94.152273 -108.166926 
L 94.152273 -104.838439 
L 99.836522 -106.898208 
L 105.520772 -110.912771 
L 111.205021 -117.350721 
L 116.889271 -120.990532 
L 122.57352 -121.723789 
L 128.25777 -126.477739 
L 133.942019 -128.473298 
L 139.626268 -133.280275 
L 145.310518 -138.554024 
L 150.994767 -144.623177 
L 156.679017 -148.887447 
L 162.363266 -148.081276 
L 168.047516 -149.554481 
L 173.731765 -147.670188 
L 179.416015 -148.14676 
L 185.100264 -142.934112 
L 190.784514 -138.696566 
L 196.468763 -136.828527 
L 202.153013 -134.10002 
L 207.837262 -131.207907 
L 213.521512 -129.205004 
L 219.205761 -127.371627 
L 224.890011 -127.025728 
L 230.57426 -125.421908 
L 236.25851 -124.021328 
L 241.942759 -124.202147 
L 247.627008 -123.985932 
L 253.311258 -123.994037 
L 258.995507 -123.439684 
L 264.679757 -122.019147 
L 270.364006 -121.795632 
L 276.048256 -121.822527 
L 281.732505 -122.225853 
L 287.416755 -122.405912 
L 293.101004 -122.460438 
L 298.785254 -123.208545 
L 304.469503 -122.780729 
L 310.153753 -124.065893 
L 315.838002 -124.241535 
L 321.522252 -125.00598 
L 327.206501 -125.213862 
L 332.890751 -125.233706 
L 338.575 -125.362539 
L 344.259249 -125.071904 
L 349.943499 -125.439607 
L 355.627748 -125.403435 
L 361.311998 -125.372859 
L 366.996247 -125.117703 
L 372.680497 -125.161819 
L 378.364746 -124.738947 
L 384.048996 -123.984479 
L 389.733245 -124.026516 
L 395.417495 -124.389098 
L 401.101744 -123.968561 
L 406.785994 -122.926768 
L 412.470243 -122.222809 
L 418.154493 -122.005436 
L 423.838742 -121.806371 
L 429.522992 -122.214941 
L 435.207241 -122.332761 
L 440.89149 -121.943686 
L 446.57574 -120.717437 
L 452.259989 -119.961819 
L 457.944239 -119.403957 
L 463.628488 -119.096593 
L 469.312738 -118.711414 
L 474.996987 -118.625111 
L 480.681237 -117.271719 
L 486.365486 -116.534112 
L 492.049736 -116.773382 
L 497.733985 -117.675734 
L 503.418235 -117.005387 
L 509.102484 -116.609644 
L 514.786734 -116.677702 
L 520.470983 -115.898458 
L 526.155233 -115.291989 
L 531.839482 -114.768207 
L 537.523732 -113.969563 
L 543.207981 -113.875578 
L 548.89223 -115.237858 
L 554.57648 -115.68496 
L 560.260729 -115.71377 
L 565.944979 -114.667862 
L 571.629228 -115.106914 
L 577.313478 -114.783559 
L 582.997727 -114.168179 
L 582.997727 -119.366721 
L 582.997727 -119.366721 
L 577.313478 -119.99867 
L 571.629228 -120.328713 
L 565.944979 -119.928257 
L 560.260729 -120.867106 
L 554.57648 -120.948188 
L 548.89223 -120.442076 
L 543.207981 -119.04722 
L 537.523732 -118.999752 
L 531.839482 -119.780124 
L 526.155233 -120.323311 
L 520.470983 -120.838404 
L 514.786734 -121.562082 
L 509.102484 -121.502626 
L 503.418235 -121.788713 
L 497.733985 -122.338349 
L 492.049736 -121.3937 
L 486.365486 -121.077467 
L 480.681237 -121.850423 
L 474.996987 -123.202096 
L 469.312738 -123.442441 
L 463.628488 -123.683683 
L 457.944239 -123.816757 
L 452.259989 -124.46326 
L 446.57574 -125.225554 
L 440.89149 -126.607892 
L 435.207241 -127.058651 
L 429.522992 -127.004508 
L 423.838742 -126.581404 
L 418.154493 -126.664066 
L 412.470243 -126.90758 
L 406.785994 -127.608191 
L 401.101744 -128.68032 
L 395.417495 -129.184201 
L 389.733245 -128.790924 
L 384.048996 -128.754023 
L 378.364746 -129.470711 
L 372.680497 -129.833454 
L 366.996247 -129.842426 
L 361.311998 -130.094396 
L 355.627748 -130.054923 
L 349.943499 -130.039851 
L 344.259249 -129.772881 
L 338.575 -130.062515 
L 332.890751 -129.755131 
L 327.206501 -129.743844 
L 321.522252 -129.548906 
L 315.838002 -128.708221 
L 310.153753 -128.487567 
L 304.469503 -126.984616 
L 298.785254 -127.25637 
L 293.101004 -126.183713 
L 287.416755 -126.238136 
L 281.732505 -125.863776 
L 276.048256 -125.412094 
L 270.364006 -125.242457 
L 264.679757 -125.464448 
L 258.995507 -126.803402 
L 253.311258 -127.422345 
L 247.627008 -127.600328 
L 241.942759 -127.661314 
L 236.25851 -127.474848 
L 230.57426 -128.783663 
L 224.890011 -130.33907 
L 219.205761 -130.590179 
L 213.521512 -132.589139 
L 207.837262 -134.808783 
L 202.153013 -138.297644 
L 196.468763 -141.331746 
L 190.784514 -143.948197 
L 185.100264 -148.999544 
L 179.416015 -154.980716 
L 173.731765 -155.128688 
L 168.047516 -157.569656 
L 162.363266 -156.30081 
L 156.679017 -157.115499 
L 150.994767 -152.932923 
L 145.310518 -146.847864 
L 139.626268 -141.298016 
L 133.942019 -136.296548 
L 128.25777 -134.277137 
L 122.57352 -129.162604 
L 116.889271 -128.29774 
L 111.205021 -124.013037 
L 105.520772 -116.407233 
L 99.836522 -112.399507 
L 94.152273 -108.166926 
z
" style="stroke: #8b0a50; stroke-opacity: 0.1"/>
    </defs>
    <g clip-path="url(#p45cf61931f)">
     <use xlink:href="#ma38fcb0787" x="0" y="432" style="fill: #8b0a50; fill-opacity: 0.1; stroke: #8b0a50; stroke-opacity: 0.1"/>
    </g>
   </g>
   <g id="PathCollection_2">
    <defs>
     <path id="me838d7d442" d="M 0 -3 
L -0.673542 -0.927051 
L -2.85317 -0.927051 
L -1.089814 0.354102 
L -1.763356 2.427051 
L -0 1.145898 
L 1.763356 2.427051 
L 1.089814 0.354102 
L 2.85317 -0.927051 
L 0.673542 -0.927051 
z
" style="stroke: #8b0a50"/>
    </defs>
    <g clip-path="url(#p45cf61931f)">
     <use xlink:href="#me838d7d442" x="213.521512" y="351.441958" style="fill: #8b0a50; stroke: #8b0a50"/>
     <use xlink:href="#me838d7d442" x="219.205761" y="351.441958" style="fill: #8b0a50; stroke: #8b0a50"/>
     <use xlink:href="#me838d7d442" x="224.890011" y="351.441958" style="fill: #8b0a50; stroke: #8b0a50"/>
     <use xlink:href="#me838d7d442" x="230.57426" y="351.441958" style="fill: #8b0a50; stroke: #8b0a50"/>
     <use xlink:href="#me838d7d442" x="236.25851" y="351.441958" style="fill: #8b0a50; stroke: #8b0a50"/>
     <use xlink:href="#me838d7d442" x="241.942759" y="351.441958" style="fill: #8b0a50; stroke: #8b0a50"/>
     <use xlink:href="#me838d7d442" x="247.627008" y="351.441958" style="fill: #8b0a50; stroke: #8b0a50"/>
     <use xlink:href="#me838d7d442" x="253.311258" y="351.441958" style="fill: #8b0a50; stroke: #8b0a50"/>
     <use xlink:href="#me838d7d442" x="258.995507" y="351.441958" style="fill: #8b0a50; stroke: #8b0a50"/>
     <use xlink:href="#me838d7d442" x="264.679757" y="351.441958" style="fill: #8b0a50; stroke: #8b0a50"/>
     <use xlink:href="#me838d7d442" x="270.364006" y="351.441958" style="fill: #8b0a50; stroke: #8b0a50"/>
     <use xlink:href="#me838d7d442" x="276.048256" y="351.441958" style="fill: #8b0a50; stroke: #8b0a50"/>
     <use xlink:href="#me838d7d442" x="281.732505" y="351.441958" style="fill: #8b0a50; stroke: #8b0a50"/>
     <use xlink:href="#me838d7d442" x="287.416755" y="351.441958" style="fill: #8b0a50; stroke: #8b0a50"/>
     <use xlink:href="#me838d7d442" x="293.101004" y="351.441958" style="fill: #8b0a50; stroke: #8b0a50"/>
     <use xlink:href="#me838d7d442" x="298.785254" y="351.441958" style="fill: #8b0a50; stroke: #8b0a50"/>
     <use xlink:href="#me838d7d442" x="304.469503" y="351.441958" style="fill: #8b0a50; stroke: #8b0a50"/>
     <use xlink:href="#me838d7d442" x="310.153753" y="351.441958" style="fill: #8b0a50; stroke: #8b0a50"/>
     <use xlink:href="#me838d7d442" x="315.838002" y="351.441958" style="fill: #8b0a50; stroke: #8b0a50"/>
     <use xlink:href="#me838d7d442" x="321.522252" y="351.441958" style="fill: #8b0a50; stroke: #8b0a50"/>
     <use xlink:href="#me838d7d442" x="327.206501" y="351.441958" style="fill: #8b0a50; stroke: #8b0a50"/>
     <use xlink:href="#me838d7d442" x="332.890751" y="351.441958" style="fill: #8b0a50; stroke: #8b0a50"/>
     <use xlink:href="#me838d7d442" x="338.575" y="351.441958" style="fill: #8b0a50; stroke: #8b0a50"/>
     <use xlink:href="#me838d7d442" x="344.259249" y="351.441958" style="fill: #8b0a50; stroke: #8b0a50"/>
     <use xlink:href="#me838d7d442" x="349.943499" y="351.441958" style="fill: #8b0a50; stroke: #8b0a50"/>
     <use xlink:href="#me838d7d442" x="355.627748" y="351.441958" style="fill: #8b0a50; stroke: #8b0a50"/>
     <use xlink:href="#me838d7d442" x="361.311998" y="351.441958" style="fill: #8b0a50; stroke: #8b0a50"/>
     <use xlink:href="#me838d7d442" x="366.996247" y="351.441958" style="fill: #8b0a50; stroke: #8b0a50"/>
     <use xlink:href="#me838d7d442" x="372.680497" y="351.441958" style="fill: #8b0a50; stroke: #8b0a50"/>
     <use xlink:href="#me838d7d442" x="378.364746" y="351.441958" style="fill: #8b0a50; stroke: #8b0a50"/>
     <use xlink:href="#me838d7d442" x="384.048996" y="351.441958" style="fill: #8b0a50; stroke: #8b0a50"/>
     <use xlink:href="#me838d7d442" x="389.733245" y="351.441958" style="fill: #8b0a50; stroke: #8b0a50"/>
     <use xlink:href="#me838d7d442" x="395.417495" y="351.441958" style="fill: #8b0a50; stroke: #8b0a50"/>
     <use xlink:href="#me838d7d442" x="401.101744" y="351.441958" style="fill: #8b0a50; stroke: #8b0a50"/>
     <use xlink:href="#me838d7d442" x="406.785994" y="351.441958" style="fill: #8b0a50; stroke: #8b0a50"/>
     <use xlink:href="#me838d7d442" x="412.470243" y="351.441958" style="fill: #8b0a50; stroke: #8b0a50"/>
     <use xlink:href="#me838d7d442" x="418.154493" y="351.441958" style="fill: #8b0a50; stroke: #8b0a50"/>
     <use xlink:href="#me838d7d442" x="423.838742" y="351.441958" style="fill: #8b0a50; stroke: #8b0a50"/>
     <use xlink:href="#me838d7d442" x="429.522992" y="351.441958" style="fill: #8b0a50; stroke: #8b0a50"/>
     <use xlink:href="#me838d7d442" x="435.207241" y="351.441958" style="fill: #8b0a50; stroke: #8b0a50"/>
     <use xlink:href="#me838d7d442" x="440.89149" y="351.441958" style="fill: #8b0a50; stroke: #8b0a50"/>
     <use xlink:href="#me838d7d442" x="446.57574" y="351.441958" style="fill: #8b0a50; stroke: #8b0a50"/>
     <use xlink:href="#me838d7d442" x="452.259989" y="351.441958" style="fill: #8b0a50; stroke: #8b0a50"/>
     <use xlink:href="#me838d7d442" x="457.944239" y="351.441958" style="fill: #8b0a50; stroke: #8b0a50"/>
     <use xlink:href="#me838d7d442" x="463.628488" y="351.441958" style="fill: #8b0a50; stroke: #8b0a50"/>
     <use xlink:href="#me838d7d442" x="469.312738" y="351.441958" style="fill: #8b0a50; stroke: #8b0a50"/>
     <use xlink:href="#me838d7d442" x="474.996987" y="351.441958" style="fill: #8b0a50; stroke: #8b0a50"/>
     <use xlink:href="#me838d7d442" x="480.681237" y="351.441958" style="fill: #8b0a50; stroke: #8b0a50"/>
     <use xlink:href="#me838d7d442" x="486.365486" y="351.441958" style="fill: #8b0a50; stroke: #8b0a50"/>
     <use xlink:href="#me838d7d442" x="492.049736" y="351.441958" style="fill: #8b0a50; stroke: #8b0a50"/>
     <use xlink:href="#me838d7d442" x="497.733985" y="351.441958" style="fill: #8b0a50; stroke: #8b0a50"/>
     <use xlink:href="#me838d7d442" x="503.418235" y="351.441958" style="fill: #8b0a50; stroke: #8b0a50"/>
     <use xlink:href="#me838d7d442" x="509.102484" y="351.441958" style="fill: #8b0a50; stroke: #8b0a50"/>
     <use xlink:href="#me838d7d442" x="514.786734" y="351.441958" style="fill: #8b0a50; stroke: #8b0a50"/>
     <use xlink:href="#me838d7d442" x="520.470983" y="351.441958" style="fill: #8b0a50; stroke: #8b0a50"/>
     <use xlink:href="#me838d7d442" x="526.155233" y="351.441958" style="fill: #8b0a50; stroke: #8b0a50"/>
     <use xlink:href="#me838d7d442" x="531.839482" y="351.441958" style="fill: #8b0a50; stroke: #8b0a50"/>
     <use xlink:href="#me838d7d442" x="537.523732" y="351.441958" style="fill: #8b0a50; stroke: #8b0a50"/>
     <use xlink:href="#me838d7d442" x="543.207981" y="351.441958" style="fill: #8b0a50; stroke: #8b0a50"/>
     <use xlink:href="#me838d7d442" x="548.89223" y="351.441958" style="fill: #8b0a50; stroke: #8b0a50"/>
     <use xlink:href="#me838d7d442" x="554.57648" y="351.441958" style="fill: #8b0a50; stroke: #8b0a50"/>
     <use xlink:href="#me838d7d442" x="560.260729" y="351.441958" style="fill: #8b0a50; stroke: #8b0a50"/>
     <use xlink:href="#me838d7d442" x="565.944979" y="351.441958" style="fill: #8b0a50; stroke: #8b0a50"/>
     <use xlink:href="#me838d7d442" x="571.629228" y="351.441958" style="fill: #8b0a50; stroke: #8b0a50"/>
     <use xlink:href="#me838d7d442" x="577.313478" y="351.441958" style="fill: #8b0a50; stroke: #8b0a50"/>
     <use xlink:href="#me838d7d442" x="582.997727" y="351.441958" style="fill: #8b0a50; stroke: #8b0a50"/>
    </g>
   </g>
   <g id="line2d_1">
    <path d="M 94.152273 336.464703 
L 99.836522 333.34169 
L 105.520772 328.661582 
L 111.205021 327.992198 
L 116.889271 331.095015 
L 122.57352 335.581682 
L 128.25777 332.573668 
L 133.942019 332.598119 
L 139.626268 333.124056 
L 145.310518 341.351406 
L 150.994767 311.634892 
L 156.679017 289.295828 
L 162.363266 270.574002 
L 168.047516 216.341 
L 173.731765 153.863245 
L 179.416015 120.214672 
L 185.100264 139.51381 
L 190.784514 196.424503 
L 196.468763 277.528453 
L 202.153013 321.94202 
L 207.837262 311.971415 
L 213.521512 247.884536 
L 219.205761 184.572283 
L 224.890011 115.745271 
L 230.57426 118.792368 
L 236.25851 161.460779 
L 241.942759 216.096535 
L 247.627008 225.722783 
L 253.311258 197.448358 
L 258.995507 168.343317 
L 264.679757 143.680705 
L 270.364006 110.623254 
L 276.048256 80.449045 
L 281.732505 114.510116 
L 287.416755 228.056093 
L 293.101004 277.069366 
L 298.785254 235.955531 
L 304.469503 184.332245 
L 310.153753 168.438082 
L 315.838002 225.129874 
L 321.522252 230.881511 
L 327.206501 206.65451 
L 332.890751 163.11493 
L 338.575 134.688134 
L 344.259249 75.23882 
L 349.943499 64.377749 
L 355.627748 128.308081 
L 361.311998 172.747998 
L 366.996247 164.581097 
L 372.680497 107.783108 
L 378.364746 69.194288 
L 384.048996 78.634793 
L 389.733245 126.516091 
L 395.417495 133.357139 
L 401.101744 96.685944 
L 406.785994 58.985169 
L 412.470243 63.056726 
L 418.154493 117.388698 
L 423.838742 167.519586 
L 429.522992 238.252523 
L 435.207241 298.004163 
L 440.89149 325.61469 
L 446.57574 331.522749 
L 452.259989 334.339222 
L 457.944239 335.543268 
L 463.628488 329.81827 
L 469.312738 324.718039 
L 474.996987 326.943948 
L 480.681237 328.15943 
L 486.365486 332.807023 
L 492.049736 327.946506 
L 497.733985 334.132355 
L 503.418235 326.574748 
L 509.102484 335.065432 
L 514.786734 328.599803 
L 520.470983 322.817341 
L 526.155233 332.859029 
L 531.839482 331.728312 
L 537.523732 334.794864 
L 543.207981 330.829822 
L 548.89223 328.064085 
L 554.57648 330.53205 
L 560.260729 327.381974 
L 565.944979 331.020241 
L 571.629228 331.476923 
L 577.313478 337.96145 
L 582.997727 339.83805 
" clip-path="url(#p45cf61931f)" style="fill: none; stroke: #eb6ab0; stroke-width: 2; stroke-linecap: round"/>
   </g>
   <g id="line2d_2">
    <path d="M 94.152273 329.45202 
L 99.836522 330.66474 
L 105.520772 329.726931 
L 111.205021 328.588084 
L 116.889271 330.356815 
L 122.57352 329.26535 
L 128.25777 329.734098 
L 133.942019 328.56538 
L 139.626268 330.27114 
L 145.310518 329.041309 
L 150.994767 319.757861 
L 156.679017 317.787054 
L 162.363266 321.076144 
L 168.047516 326.49673 
L 173.731765 326.663757 
L 179.416015 322.528288 
L 185.100264 313.394369 
L 190.784514 306.889726 
L 196.468763 308.962757 
L 202.153013 316.085301 
L 207.837262 325.21816 
L 213.521512 322.541261 
L 219.205761 325.740233 
L 224.890011 331.026741 
L 230.57426 329.484987 
L 236.25851 326.178976 
L 241.942759 324.438887 
L 247.627008 319.800838 
L 253.311258 315.442088 
L 258.995507 317.854394 
L 264.679757 321.322859 
L 270.364006 319.679979 
L 276.048256 319.417476 
L 281.732505 321.993144 
L 287.416755 324.514823 
L 293.101004 323.974628 
L 298.785254 320.93242 
L 304.469503 315.918829 
L 310.153753 313.348214 
L 315.838002 312.738862 
L 321.522252 316.693699 
L 327.206501 323.667523 
L 332.890751 326.26227 
L 338.575 324.927142 
L 344.259249 321.417791 
L 349.943499 318.314195 
L 355.627748 322.294423 
L 361.311998 327.609145 
L 366.996247 329.110644 
L 372.680497 326.998927 
L 378.364746 324.753281 
L 384.048996 324.219768 
L 389.733245 321.770235 
L 395.417495 321.806471 
L 401.101744 318.209048 
L 406.785994 321.273496 
L 412.470243 321.094282 
L 418.154493 323.095145 
L 423.838742 325.21889 
L 429.522992 324.610423 
L 435.207241 328.87181 
L 440.89149 329.729608 
L 446.57574 329.844645 
L 452.259989 330.297087 
L 457.944239 328.504566 
L 463.628488 329.503433 
L 469.312738 328.396859 
L 474.996987 329.335547 
L 480.681237 329.057418 
L 486.365486 329.624255 
L 492.049736 330.787598 
L 497.733985 330.185806 
L 503.418235 331.049121 
L 509.102484 330.384629 
L 514.786734 329.927364 
L 520.470983 330.260521 
L 526.155233 328.080648 
L 531.839482 329.190257 
L 537.523732 329.377788 
L 543.207981 329.712952 
L 548.89223 328.566493 
L 554.57648 329.662601 
L 560.260729 328.984701 
L 565.944979 330.421666 
L 571.629228 330.651815 
L 577.313478 331.083192 
L 582.997727 330.705938 
" clip-path="url(#p45cf61931f)" style="fill: none; stroke-dasharray: 7.4,3.2; stroke-dashoffset: 0; stroke: #eb6ab0; stroke-width: 2"/>
   </g>
   <g id="line2d_3">
    <path d="M 150.994767 377.54 
L 150.994767 26.96 
" clip-path="url(#p45cf61931f)" style="fill: none; stroke-dasharray: 5.55,2.4; stroke-dashoffset: 0; stroke: #1a1a1a; stroke-width: 1.5"/>
   </g>
   <g id="line2d_4">
    <path d="M 435.207241 377.54 
L 435.207241 26.96 
" clip-path="url(#p45cf61931f)" style="fill: none; stroke-dasharray: 5.55,2.4; stroke-dashoffset: 0; stroke: #1a1a1a; stroke-width: 1.5"/>
   </g>
   <g id="line2d_5">
    <path d="M 94.152273 324.091461 
L 99.836522 310.910047 
L 105.520772 331.078219 
L 111.205021 339.418819 
L 116.889271 327.982981 
L 122.57352 337.150435 
L 128.25777 322.138691 
L 133.942019 289.042792 
L 139.626268 275.271817 
L 145.310518 244.726094 
L 150.994767 244.348628 
L 156.679017 257.710024 
L 162.363266 256.622704 
L 168.047516 263.573452 
L 173.731765 247.356154 
L 179.416015 255.562697 
L 185.100264 258.948696 
L 190.784514 258.727867 
L 196.468763 255.835411 
L 202.153013 260.492314 
L 207.837262 265.551284 
L 213.521512 261.104307 
L 219.205761 249.117448 
L 224.890011 250.578078 
L 230.57426 243.07864 
L 236.25851 238.225677 
L 241.942759 237.045922 
L 247.627008 236.788801 
L 253.311258 236.513291 
L 258.995507 229.829692 
L 264.679757 215.843515 
L 270.364006 215.052382 
L 276.048256 206.661889 
L 281.732505 198.179355 
L 287.416755 195.960153 
L 293.101004 192.544441 
L 298.785254 184.338503 
L 304.469503 181.224645 
L 310.153753 175.997032 
L 315.838002 173.860362 
L 321.522252 171.307449 
L 327.206501 172.468815 
L 332.890751 170.249816 
L 338.575 166.47775 
L 344.259249 165.287276 
L 349.943499 161.379463 
L 355.627748 151.001629 
L 361.311998 142.997472 
L 366.996247 139.803017 
L 372.680497 141.670233 
L 378.364746 131.699016 
L 384.048996 129.592228 
L 389.733245 126.674588 
L 395.417495 126.298914 
L 401.101744 122.539905 
L 406.785994 117.0423 
L 412.470243 108.264853 
L 418.154493 98.32521 
L 423.838742 94.15036 
L 429.522992 95.534892 
L 435.207241 90.224704 
L 440.89149 97.261022 
L 446.57574 99.228235 
L 452.259989 101.505407 
L 457.944239 103.99341 
L 463.628488 106.363178 
L 469.312738 105.345057 
L 474.996987 106.664827 
L 480.681237 108.801187 
L 486.365486 105.11988 
L 492.049736 110.752376 
L 497.733985 110.719933 
L 503.418235 109.146444 
L 509.102484 112.484599 
L 514.786734 111.325924 
L 520.470983 114.08114 
L 526.155233 117.542771 
L 531.839482 120.840609 
L 537.523732 121.312683 
L 543.207981 116.344423 
L 548.89223 124.089803 
L 554.57648 125.561895 
L 560.260729 129.331444 
L 565.944979 122.08256 
L 571.629228 117.576882 
L 577.313478 120.381262 
L 582.997727 120.358497 
" clip-path="url(#p45cf61931f)" style="fill: none; stroke: #8b0a50; stroke-width: 2; stroke-linecap: round"/>
   </g>
   <g id="line2d_6">
    <path d="M 94.152273 325.497317 
L 99.836522 322.351142 
L 105.520772 318.339998 
L 111.205021 311.318121 
L 116.889271 307.355864 
L 122.57352 306.556803 
L 128.25777 301.622562 
L 133.942019 299.615077 
L 139.626268 294.710854 
L 145.310518 289.299056 
L 150.994767 283.22195 
L 156.679017 278.998527 
L 162.363266 279.808957 
L 168.047516 278.437932 
L 173.731765 280.600562 
L 179.416015 280.436262 
L 185.100264 286.033172 
L 190.784514 290.677619 
L 196.468763 292.919864 
L 202.153013 295.801168 
L 207.837262 298.991655 
L 213.521512 301.102929 
L 219.205761 303.019097 
L 224.890011 303.317601 
L 230.57426 304.897215 
L 236.25851 306.251912 
L 241.942759 306.068269 
L 247.627008 306.20687 
L 253.311258 306.291809 
L 258.995507 306.878457 
L 264.679757 308.258202 
L 270.364006 308.480956 
L 276.048256 308.38269 
L 281.732505 307.955185 
L 287.416755 307.677976 
L 293.101004 307.677924 
L 298.785254 306.767542 
L 304.469503 307.117327 
L 310.153753 305.72327 
L 315.838002 305.525122 
L 321.522252 304.722557 
L 327.206501 304.521147 
L 332.890751 304.505582 
L 338.575 304.287473 
L 344.259249 304.577608 
L 349.943499 304.260271 
L 355.627748 304.270821 
L 361.311998 304.266373 
L 366.996247 304.519936 
L 372.680497 304.502363 
L 378.364746 304.895171 
L 384.048996 305.630749 
L 389.733245 305.59128 
L 395.417495 305.21335 
L 401.101744 305.675559 
L 406.785994 306.732521 
L 412.470243 307.434805 
L 418.154493 307.665249 
L 423.838742 307.806113 
L 429.522992 307.390276 
L 435.207241 307.304294 
L 440.89149 307.724211 
L 446.57574 309.028505 
L 452.259989 309.78746 
L 457.944239 310.389643 
L 463.628488 310.609862 
L 469.312738 310.923073 
L 474.996987 311.086396 
L 480.681237 312.438929 
L 486.365486 313.19421 
L 492.049736 312.916459 
L 497.733985 311.992958 
L 503.418235 312.60295 
L 509.102484 312.943865 
L 514.786734 312.880108 
L 520.470983 313.631569 
L 526.155233 314.19235 
L 531.839482 314.725834 
L 537.523732 315.515343 
L 543.207981 315.538601 
L 548.89223 314.160033 
L 554.57648 313.683426 
L 560.260729 313.709562 
L 565.944979 314.70194 
L 571.629228 314.282187 
L 577.313478 314.608886 
L 582.997727 315.23255 
" clip-path="url(#p45cf61931f)" style="fill: none; stroke-dasharray: 7.4,3.2; stroke-dashoffset: 0; stroke: #8b0a50; stroke-width: 2"/>
   </g>
   <g id="line2d_7">
    <path d="M 150.994767 377.54 
L 150.994767 26.96 
" clip-path="url(#p45cf61931f)" style="fill: none; stroke-dasharray: 5.55,2.4; stroke-dashoffset: 0; stroke: #1a1a1a; stroke-width: 1.5"/>
   </g>
   <g id="line2d_8">
    <path d="M 435.207241 377.54 
L 435.207241 26.96 
" clip-path="url(#p45cf61931f)" style="fill: none; stroke-dasharray: 5.55,2.4; stroke-dashoffset: 0; stroke: #1a1a1a; stroke-width: 1.5"/>
   </g>
   <g id="patch_3">
    <path d="M 69.71 377.54 
L 69.71 26.96 
" style="fill: none; stroke: #cccccc; stroke-width: 1.5; stroke-linejoin: miter; stroke-linecap: square"/>
   </g>
   <g id="patch_4">
    <path d="M 69.71 377.54 
L 607.44 377.54 
" style="fill: none; stroke: #cccccc; stroke-width: 1.5; stroke-linejoin: miter; stroke-linecap: square"/>
   </g>
   <g id="text_17">
    <!-- Divergence Comparison: Original vs Shuffled -->
    <g style="fill: #262626" transform="translate(189.0625 20.96) scale(0.15 -0.15)">
     <defs>
      <path id="ArialMT-43" d="M 3763 1606 
L 4369 1453 
Q 4178 706 3683 314 
Q 3188 -78 2472 -78 
Q 1731 -78 1267 223 
Q 803 525 561 1097 
Q 319 1669 319 2325 
Q 319 3041 592 3573 
Q 866 4106 1370 4382 
Q 1875 4659 2481 4659 
Q 3169 4659 3637 4309 
Q 4106 3959 4291 3325 
L 3694 3184 
Q 3534 3684 3231 3912 
Q 2928 4141 2469 4141 
Q 1941 4141 1586 3887 
Q 1231 3634 1087 3207 
Q 944 2781 944 2328 
Q 944 1744 1114 1308 
Q 1284 872 1643 656 
Q 2003 441 2422 441 
Q 2931 441 3284 734 
Q 3638 1028 3763 1606 
z
" transform="scale(0.015625)"/>
      <path id="ArialMT-6f" d="M 213 1659 
Q 213 2581 725 3025 
Q 1153 3394 1769 3394 
Q 2453 3394 2887 2945 
Q 3322 2497 3322 1706 
Q 3322 1066 3130 698 
Q 2938 331 2570 128 
Q 2203 -75 1769 -75 
Q 1072 -75 642 372 
Q 213 819 213 1659 
z
M 791 1659 
Q 791 1022 1069 705 
Q 1347 388 1769 388 
Q 2188 388 2466 706 
Q 2744 1025 2744 1678 
Q 2744 2294 2464 2611 
Q 2184 2928 1769 2928 
Q 1347 2928 1069 2612 
Q 791 2297 791 1659 
z
" transform="scale(0.015625)"/>
      <path id="ArialMT-70" d="M 422 -1272 
L 422 3319 
L 934 3319 
L 934 2888 
Q 1116 3141 1344 3267 
Q 1572 3394 1897 3394 
Q 2322 3394 2647 3175 
Q 2972 2956 3137 2557 
Q 3303 2159 3303 1684 
Q 3303 1175 3120 767 
Q 2938 359 2589 142 
Q 2241 -75 1856 -75 
Q 1575 -75 1351 44 
Q 1128 163 984 344 
L 984 -1272 
L 422 -1272 
z
M 931 1641 
Q 931 1000 1190 694 
Q 1450 388 1819 388 
Q 2194 388 2461 705 
Q 2728 1022 2728 1688 
Q 2728 2322 2467 2637 
Q 2206 2953 1844 2953 
Q 1484 2953 1207 2617 
Q 931 2281 931 1641 
z
" transform="scale(0.015625)"/>
      <path id="ArialMT-61" d="M 2588 409 
Q 2275 144 1986 34 
Q 1697 -75 1366 -75 
Q 819 -75 525 192 
Q 231 459 231 875 
Q 231 1119 342 1320 
Q 453 1522 633 1644 
Q 813 1766 1038 1828 
Q 1203 1872 1538 1913 
Q 2219 1994 2541 2106 
Q 2544 2222 2544 2253 
Q 2544 2597 2384 2738 
Q 2169 2928 1744 2928 
Q 1347 2928 1158 2789 
Q 969 2650 878 2297 
L 328 2372 
Q 403 2725 575 2942 
Q 747 3159 1072 3276 
Q 1397 3394 1825 3394 
Q 2250 3394 2515 3294 
Q 2781 3194 2906 3042 
Q 3031 2891 3081 2659 
Q 3109 2516 3109 2141 
L 3109 1391 
Q 3109 606 3145 398 
Q 3181 191 3288 0 
L 2700 0 
Q 2613 175 2588 409 
z
M 2541 1666 
Q 2234 1541 1622 1453 
Q 1275 1403 1131 1340 
Q 988 1278 909 1158 
Q 831 1038 831 891 
Q 831 666 1001 516 
Q 1172 366 1500 366 
Q 1825 366 2078 508 
Q 2331 650 2450 897 
Q 2541 1088 2541 1459 
L 2541 1666 
z
" transform="scale(0.015625)"/>
      <path id="ArialMT-3a" d="M 578 2678 
L 578 3319 
L 1219 3319 
L 1219 2678 
L 578 2678 
z
M 578 0 
L 578 641 
L 1219 641 
L 1219 0 
L 578 0 
z
" transform="scale(0.015625)"/>
      <path id="ArialMT-4f" d="M 309 2231 
Q 309 3372 921 4017 
Q 1534 4663 2503 4663 
Q 3138 4663 3647 4359 
Q 4156 4056 4423 3514 
Q 4691 2972 4691 2284 
Q 4691 1588 4409 1038 
Q 4128 488 3612 205 
Q 3097 -78 2500 -78 
Q 1853 -78 1343 234 
Q 834 547 571 1087 
Q 309 1628 309 2231 
z
M 934 2222 
Q 934 1394 1379 917 
Q 1825 441 2497 441 
Q 3181 441 3623 922 
Q 4066 1403 4066 2288 
Q 4066 2847 3877 3264 
Q 3688 3681 3323 3911 
Q 2959 4141 2506 4141 
Q 1863 4141 1398 3698 
Q 934 3256 934 2222 
z
" transform="scale(0.015625)"/>
      <path id="ArialMT-6c" d="M 409 0 
L 409 4581 
L 972 4581 
L 972 0 
L 409 0 
z
" transform="scale(0.015625)"/>
      <path id="ArialMT-53" d="M 288 1472 
L 859 1522 
Q 900 1178 1048 958 
Q 1197 738 1509 602 
Q 1822 466 2213 466 
Q 2559 466 2825 569 
Q 3091 672 3220 851 
Q 3350 1031 3350 1244 
Q 3350 1459 3225 1620 
Q 3100 1781 2813 1891 
Q 2628 1963 1997 2114 
Q 1366 2266 1113 2400 
Q 784 2572 623 2826 
Q 463 3081 463 3397 
Q 463 3744 659 4045 
Q 856 4347 1234 4503 
Q 1613 4659 2075 4659 
Q 2584 4659 2973 4495 
Q 3363 4331 3572 4012 
Q 3781 3694 3797 3291 
L 3216 3247 
Q 3169 3681 2898 3903 
Q 2628 4125 2100 4125 
Q 1550 4125 1298 3923 
Q 1047 3722 1047 3438 
Q 1047 3191 1225 3031 
Q 1400 2872 2139 2705 
Q 2878 2538 3153 2413 
Q 3553 2228 3743 1945 
Q 3934 1663 3934 1294 
Q 3934 928 3725 604 
Q 3516 281 3123 101 
Q 2731 -78 2241 -78 
Q 1619 -78 1198 103 
Q 778 284 539 648 
Q 300 1013 288 1472 
z
" transform="scale(0.015625)"/>
      <path id="ArialMT-68" d="M 422 0 
L 422 4581 
L 984 4581 
L 984 2938 
Q 1378 3394 1978 3394 
Q 2347 3394 2619 3248 
Q 2891 3103 3008 2847 
Q 3125 2591 3125 2103 
L 3125 0 
L 2563 0 
L 2563 2103 
Q 2563 2525 2380 2717 
Q 2197 2909 1863 2909 
Q 1613 2909 1392 2779 
Q 1172 2650 1078 2428 
Q 984 2206 984 1816 
L 984 0 
L 422 0 
z
" transform="scale(0.015625)"/>
      <path id="ArialMT-75" d="M 2597 0 
L 2597 488 
Q 2209 -75 1544 -75 
Q 1250 -75 995 37 
Q 741 150 617 320 
Q 494 491 444 738 
Q 409 903 409 1263 
L 409 3319 
L 972 3319 
L 972 1478 
Q 972 1038 1006 884 
Q 1059 663 1231 536 
Q 1403 409 1656 409 
Q 1909 409 2131 539 
Q 2353 669 2445 892 
Q 2538 1116 2538 1541 
L 2538 3319 
L 3100 3319 
L 3100 0 
L 2597 0 
z
" transform="scale(0.015625)"/>
      <path id="ArialMT-66" d="M 556 0 
L 556 2881 
L 59 2881 
L 59 3319 
L 556 3319 
L 556 3672 
Q 556 4006 616 4169 
Q 697 4388 901 4523 
Q 1106 4659 1475 4659 
Q 1713 4659 2000 4603 
L 1916 4113 
Q 1741 4144 1584 4144 
Q 1328 4144 1222 4034 
Q 1116 3925 1116 3625 
L 1116 3319 
L 1763 3319 
L 1763 2881 
L 1116 2881 
L 1116 0 
L 556 0 
z
" transform="scale(0.015625)"/>
      <path id="ArialMT-64" d="M 2575 0 
L 2575 419 
Q 2259 -75 1647 -75 
Q 1250 -75 917 144 
Q 584 363 401 755 
Q 219 1147 219 1656 
Q 219 2153 384 2558 
Q 550 2963 881 3178 
Q 1213 3394 1622 3394 
Q 1922 3394 2156 3267 
Q 2391 3141 2538 2938 
L 2538 4581 
L 3097 4581 
L 3097 0 
L 2575 0 
z
M 797 1656 
Q 797 1019 1065 703 
Q 1334 388 1700 388 
Q 2069 388 2326 689 
Q 2584 991 2584 1609 
Q 2584 2291 2321 2609 
Q 2059 2928 1675 2928 
Q 1300 2928 1048 2622 
Q 797 2316 797 1656 
z
" transform="scale(0.015625)"/>
     </defs>
     <use xlink:href="#ArialMT-44"/>
     <use xlink:href="#ArialMT-69" x="72.216797"/>
     <use xlink:href="#ArialMT-76" x="94.433594"/>
     <use xlink:href="#ArialMT-65" x="144.433594"/>
     <use xlink:href="#ArialMT-72" x="200.048828"/>
     <use xlink:href="#ArialMT-67" x="233.349609"/>
     <use xlink:href="#ArialMT-65" x="288.964844"/>
     <use xlink:href="#ArialMT-6e" x="344.580078"/>
     <use xlink:href="#ArialMT-63" x="400.195312"/>
     <use xlink:href="#ArialMT-65" x="450.195312"/>
     <use xlink:href="#ArialMT-20" x="505.810547"/>
     <use xlink:href="#ArialMT-43" x="533.59375"/>
     <use xlink:href="#ArialMT-6f" x="605.810547"/>
     <use xlink:href="#ArialMT-6d" x="661.425781"/>
     <use xlink:href="#ArialMT-70" x="744.726562"/>
     <use xlink:href="#ArialMT-61" x="800.341797"/>
     <use xlink:href="#ArialMT-72" x="855.957031"/>
     <use xlink:href="#ArialMT-69" x="889.257812"/>
     <use xlink:href="#ArialMT-73" x="911.474609"/>
     <use xlink:href="#ArialMT-6f" x="961.474609"/>
     <use xlink:href="#ArialMT-6e" x="1017.089844"/>
     <use xlink:href="#ArialMT-3a" x="1072.705078"/>
     <use xlink:href="#ArialMT-20" x="1100.488281"/>
     <use xlink:href="#ArialMT-4f" x="1128.271484"/>
     <use xlink:href="#ArialMT-72" x="1206.054688"/>
     <use xlink:href="#ArialMT-69" x="1239.355469"/>
     <use xlink:href="#ArialMT-67" x="1261.572266"/>
     <use xlink:href="#ArialMT-69" x="1317.1875"/>
     <use xlink:href="#ArialMT-6e" x="1339.404297"/>
     <use xlink:href="#ArialMT-61" x="1395.019531"/>
     <use xlink:href="#ArialMT-6c" x="1450.634766"/>
     <use xlink:href="#ArialMT-20" x="1472.851562"/>
     <use xlink:href="#ArialMT-76" x="1500.634766"/>
     <use xlink:href="#ArialMT-73" x="1550.634766"/>
     <use xlink:href="#ArialMT-20" x="1600.634766"/>
     <use xlink:href="#ArialMT-53" x="1628.417969"/>
     <use xlink:href="#ArialMT-68" x="1695.117188"/>
     <use xlink:href="#ArialMT-75" x="1750.732422"/>
     <use xlink:href="#ArialMT-66" x="1806.347656"/>
     <use xlink:href="#ArialMT-66" x="1832.380859"/>
     <use xlink:href="#ArialMT-6c" x="1860.164062"/>
     <use xlink:href="#ArialMT-65" x="1882.380859"/>
     <use xlink:href="#ArialMT-64" x="1937.996094"/>
    </g>
   </g>
   <g id="legend_1">
    <g id="patch_5">
     <path d="M 615.14 258.915469 
L 704.741875 258.915469 
Q 706.941875 258.915469 706.941875 256.715469 
L 706.941875 147.784531 
Q 706.941875 145.584531 704.741875 145.584531 
L 615.14 145.584531 
Q 612.94 145.584531 612.94 147.784531 
L 612.94 256.715469 
Q 612.94 258.915469 615.14 258.915469 
z
" style="fill: #ffffff; opacity: 0.8; stroke: #cccccc; stroke-linejoin: miter"/>
    </g>
    <g id="line2d_9">
     <path d="M 617.34 154.149062 
L 628.34 154.149062 
L 639.34 154.149062 
" style="fill: none; stroke: #eb6ab0; stroke-width: 2; stroke-linecap: round"/>
    </g>
    <g id="text_18">
     <!-- Original -->
     <g style="fill: #262626" transform="translate(648.14 157.999062) scale(0.11 -0.11)">
      <use xlink:href="#ArialMT-4f"/>
      <use xlink:href="#ArialMT-72" x="77.783203"/>
      <use xlink:href="#ArialMT-69" x="111.083984"/>
      <use xlink:href="#ArialMT-67" x="133.300781"/>
      <use xlink:href="#ArialMT-69" x="188.916016"/>
      <use xlink:href="#ArialMT-6e" x="211.132812"/>
      <use xlink:href="#ArialMT-61" x="266.748047"/>
      <use xlink:href="#ArialMT-6c" x="322.363281"/>
     </g>
    </g>
    <g id="line2d_10">
     <path d="M 617.34 169.97875 
L 628.34 169.97875 
L 639.34 169.97875 
" style="fill: none; stroke-dasharray: 7.4,3.2; stroke-dashoffset: 0; stroke: #eb6ab0; stroke-width: 2"/>
    </g>
    <g id="text_19">
     <!-- Original -->
     <g style="fill: #262626" transform="translate(648.14 173.82875) scale(0.11 -0.11)">
      <use xlink:href="#ArialMT-4f"/>
      <use xlink:href="#ArialMT-72" x="77.783203"/>
      <use xlink:href="#ArialMT-69" x="111.083984"/>
      <use xlink:href="#ArialMT-67" x="133.300781"/>
      <use xlink:href="#ArialMT-69" x="188.916016"/>
      <use xlink:href="#ArialMT-6e" x="211.132812"/>
      <use xlink:href="#ArialMT-61" x="266.748047"/>
      <use xlink:href="#ArialMT-6c" x="322.363281"/>
     </g>
    </g>
    <g id="PathCollection_3">
     <g>
      <use xlink:href="#m5874fb2177" x="628.34" y="186.662656" style="fill: #eb6ab0; stroke: #eb6ab0"/>
     </g>
    </g>
    <g id="text_20">
     <!-- p &lt; 0.001 -->
     <g style="fill: #262626" transform="translate(648.14 189.550156) scale(0.11 -0.11)">
      <defs>
       <path id="ArialMT-3c" d="M 350 2003 
L 350 2528 
L 3384 3809 
L 3384 3250 
L 978 2263 
L 3384 1266 
L 3384 706 
L 350 2003 
z
" transform="scale(0.015625)"/>
      </defs>
      <use xlink:href="#ArialMT-70"/>
      <use xlink:href="#ArialMT-20" x="55.615234"/>
      <use xlink:href="#ArialMT-3c" x="83.398438"/>
      <use xlink:href="#ArialMT-20" x="141.796875"/>
      <use xlink:href="#ArialMT-30" x="169.580078"/>
      <use xlink:href="#ArialMT-2e" x="225.195312"/>
      <use xlink:href="#ArialMT-30" x="252.978516"/>
      <use xlink:href="#ArialMT-30" x="308.59375"/>
      <use xlink:href="#ArialMT-31" x="364.208984"/>
     </g>
    </g>
    <g id="line2d_11">
     <path d="M 617.34 201.26 
L 628.34 201.26 
L 639.34 201.26 
" style="fill: none; stroke-dasharray: 5.55,2.4; stroke-dashoffset: 0; stroke: #1a1a1a; stroke-width: 1.5"/>
    </g>
    <g id="text_21">
     <!-- Stim Onset -->
     <g style="fill: #262626" transform="translate(648.14 205.11) scale(0.11 -0.11)">
      <defs>
       <path id="ArialMT-74" d="M 1650 503 
L 1731 6 
Q 1494 -44 1306 -44 
Q 1000 -44 831 53 
Q 663 150 594 308 
Q 525 466 525 972 
L 525 2881 
L 113 2881 
L 113 3319 
L 525 3319 
L 525 4141 
L 1084 4478 
L 1084 3319 
L 1650 3319 
L 1650 2881 
L 1084 2881 
L 1084 941 
Q 1084 700 1114 631 
Q 1144 563 1211 522 
Q 1278 481 1403 481 
Q 1497 481 1650 503 
z
" transform="scale(0.015625)"/>
      </defs>
      <use xlink:href="#ArialMT-53"/>
      <use xlink:href="#ArialMT-74" x="66.699219"/>
      <use xlink:href="#ArialMT-69" x="94.482422"/>
      <use xlink:href="#ArialMT-6d" x="116.699219"/>
      <use xlink:href="#ArialMT-20" x="200"/>
      <use xlink:href="#ArialMT-4f" x="227.783203"/>
      <use xlink:href="#ArialMT-6e" x="305.566406"/>
      <use xlink:href="#ArialMT-73" x="361.181641"/>
      <use xlink:href="#ArialMT-65" x="411.181641"/>
      <use xlink:href="#ArialMT-74" x="466.796875"/>
     </g>
    </g>
    <g id="line2d_12">
     <path d="M 617.34 216.819844 
L 628.34 216.819844 
L 639.34 216.819844 
" style="fill: none; stroke-dasharray: 5.55,2.4; stroke-dashoffset: 0; stroke: #1a1a1a; stroke-width: 1.5"/>
    </g>
    <g id="text_22">
     <!-- Stim End -->
     <g style="fill: #262626" transform="translate(648.14 220.669844) scale(0.11 -0.11)">
      <defs>
       <path id="ArialMT-45" d="M 506 0 
L 506 4581 
L 3819 4581 
L 3819 4041 
L 1113 4041 
L 1113 2638 
L 3647 2638 
L 3647 2100 
L 1113 2100 
L 1113 541 
L 3925 541 
L 3925 0 
L 506 0 
z
" transform="scale(0.015625)"/>
      </defs>
      <use xlink:href="#ArialMT-53"/>
      <use xlink:href="#ArialMT-74" x="66.699219"/>
      <use xlink:href="#ArialMT-69" x="94.482422"/>
      <use xlink:href="#ArialMT-6d" x="116.699219"/>
      <use xlink:href="#ArialMT-20" x="200"/>
      <use xlink:href="#ArialMT-45" x="227.783203"/>
      <use xlink:href="#ArialMT-6e" x="294.482422"/>
      <use xlink:href="#ArialMT-64" x="350.097656"/>
     </g>
    </g>
    <g id="line2d_13">
     <path d="M 617.34 232.520625 
L 628.34 232.520625 
L 639.34 232.520625 
" style="fill: none; stroke: #8b0a50; stroke-width: 2; stroke-linecap: round"/>
    </g>
    <g id="text_23">
     <!-- Original -->
     <g style="fill: #262626" transform="translate(648.14 236.370625) scale(0.11 -0.11)">
      <use xlink:href="#ArialMT-4f"/>
      <use xlink:href="#ArialMT-72" x="77.783203"/>
      <use xlink:href="#ArialMT-69" x="111.083984"/>
      <use xlink:href="#ArialMT-67" x="133.300781"/>
      <use xlink:href="#ArialMT-69" x="188.916016"/>
      <use xlink:href="#ArialMT-6e" x="211.132812"/>
      <use xlink:href="#ArialMT-61" x="266.748047"/>
      <use xlink:href="#ArialMT-6c" x="322.363281"/>
     </g>
    </g>
    <g id="line2d_14">
     <path d="M 617.34 248.350313 
L 628.34 248.350313 
L 639.34 248.350313 
" style="fill: none; stroke-dasharray: 7.4,3.2; stroke-dashoffset: 0; stroke: #8b0a50; stroke-width: 2"/>
    </g>
    <g id="text_24">
     <!-- Original -->
     <g style="fill: #262626" transform="translate(648.14 252.200312) scale(0.11 -0.11)">
      <use xlink:href="#ArialMT-4f"/>
      <use xlink:href="#ArialMT-72" x="77.783203"/>
      <use xlink:href="#ArialMT-69" x="111.083984"/>
      <use xlink:href="#ArialMT-67" x="133.300781"/>
      <use xlink:href="#ArialMT-69" x="188.916016"/>
      <use xlink:href="#ArialMT-6e" x="211.132812"/>
      <use xlink:href="#ArialMT-61" x="266.748047"/>
      <use xlink:href="#ArialMT-6c" x="322.363281"/>
     </g>
    </g>
   </g>
  </g>
 </g>
 <defs>
  <clipPath id="p45cf61931f">
   <rect x="69.71" y="26.96" width="537.73" height="350.58"/>
  </clipPath>
 </defs>
</svg>
