<?xml version="1.0" encoding="utf-8" standalone="no"?>
<!DOCTYPE svg PUBLIC "-//W3C//DTD SVG 1.1//EN"
  "http://www.w3.org/Graphics/SVG/1.1/DTD/svg11.dtd">
<svg xmlns:xlink="http://www.w3.org/1999/xlink" width="720pt" height="432pt" viewBox="0 0 720 432" xmlns="http://www.w3.org/2000/svg" version="1.1">
 <metadata>
  <rdf:RDF xmlns:dc="http://purl.org/dc/elements/1.1/" xmlns:cc="http://creativecommons.org/ns#" xmlns:rdf="http://www.w3.org/1999/02/22-rdf-syntax-ns#">
   <cc:Work>
    <dc:type rdf:resource="http://purl.org/dc/dcmitype/StillImage"/>
    <dc:date>2025-10-26T14:54:44.921739</dc:date>
    <dc:format>image/svg+xml</dc:format>
    <dc:creator>
     <cc:Agent>
      <dc:title>Matplotlib v3.9.4, https://matplotlib.org/</dc:title>
     </cc:Agent>
    </dc:creator>
   </cc:Work>
  </rdf:RDF>
 </metadata>
 <defs>
  <style type="text/css">*{stroke-linejoin: round; stroke-linecap: butt}</style>
 </defs>
 <g id="figure_1">
  <g id="patch_1">
   <path d="M 0 432 
L 720 432 
L 720 0 
L 0 0 
z
" style="fill: #ffffff"/>
  </g>
  <g id="axes_1">
   <g id="patch_2">
    <path d="M 85.67 379.18 
L 607.76 379.18 
L 607.76 27.6 
L 85.67 27.6 
L 85.67 379.18 
z
" style="fill: none"/>
   </g>
   <g id="matplotlib.axis_1">
    <g id="xtick_1">
     <g id="line2d_1">
      <defs>
       <path id="m2ddb00ec45" d="M 0 0 
L 0 5 
" style="stroke: #262626; stroke-width: 1.5"/>
      </defs>
      <g>
       <use xlink:href="#m2ddb00ec45" x="90.085137" y="379.18" style="fill: #262626; stroke: #262626; stroke-width: 1.5"/>
      </g>
     </g>
     <g id="text_1">
      <!-- −250 -->
      <g style="fill: #262626" transform="translate(73.192559 398.416719) scale(0.15 -0.15)">
       <defs>
        <path id="ArialMT-2212" d="M 3381 1997 
L 356 1997 
L 356 2522 
L 3381 2522 
L 3381 1997 
z
" transform="scale(0.015625)"/>
        <path id="ArialMT-32" d="M 3222 541 
L 3222 0 
L 194 0 
Q 188 203 259 391 
Q 375 700 629 1000 
Q 884 1300 1366 1694 
Q 2113 2306 2375 2664 
Q 2638 3022 2638 3341 
Q 2638 3675 2398 3904 
Q 2159 4134 1775 4134 
Q 1369 4134 1125 3890 
Q 881 3647 878 3216 
L 300 3275 
Q 359 3922 746 4261 
Q 1134 4600 1788 4600 
Q 2447 4600 2831 4234 
Q 3216 3869 3216 3328 
Q 3216 3053 3103 2787 
Q 2991 2522 2730 2228 
Q 2469 1934 1863 1422 
Q 1356 997 1212 845 
Q 1069 694 975 541 
L 3222 541 
z
" transform="scale(0.015625)"/>
        <path id="ArialMT-35" d="M 266 1200 
L 856 1250 
Q 922 819 1161 601 
Q 1400 384 1738 384 
Q 2144 384 2425 690 
Q 2706 997 2706 1503 
Q 2706 1984 2436 2262 
Q 2166 2541 1728 2541 
Q 1456 2541 1237 2417 
Q 1019 2294 894 2097 
L 366 2166 
L 809 4519 
L 3088 4519 
L 3088 3981 
L 1259 3981 
L 1013 2750 
Q 1425 3038 1878 3038 
Q 2478 3038 2890 2622 
Q 3303 2206 3303 1553 
Q 3303 931 2941 478 
Q 2500 -78 1738 -78 
Q 1113 -78 717 272 
Q 322 622 266 1200 
z
" transform="scale(0.015625)"/>
        <path id="ArialMT-30" d="M 266 2259 
Q 266 3072 433 3567 
Q 600 4063 929 4331 
Q 1259 4600 1759 4600 
Q 2128 4600 2406 4451 
Q 2684 4303 2865 4023 
Q 3047 3744 3150 3342 
Q 3253 2941 3253 2259 
Q 3253 1453 3087 958 
Q 2922 463 2592 192 
Q 2263 -78 1759 -78 
Q 1097 -78 719 397 
Q 266 969 266 2259 
z
M 844 2259 
Q 844 1131 1108 757 
Q 1372 384 1759 384 
Q 2147 384 2411 759 
Q 2675 1134 2675 2259 
Q 2675 3391 2411 3762 
Q 2147 4134 1753 4134 
Q 1366 4134 1134 3806 
Q 844 3388 844 2259 
z
" transform="scale(0.015625)"/>
       </defs>
       <use xlink:href="#ArialMT-2212"/>
       <use xlink:href="#ArialMT-32" x="58.398438"/>
       <use xlink:href="#ArialMT-35" x="114.013672"/>
       <use xlink:href="#ArialMT-30" x="169.628906"/>
      </g>
     </g>
    </g>
    <g id="xtick_2">
     <g id="line2d_2">
      <g>
       <use xlink:href="#m2ddb00ec45" x="159.07166" y="379.18" style="fill: #262626; stroke: #262626; stroke-width: 1.5"/>
      </g>
     </g>
     <g id="text_2">
      <!-- 0 -->
      <g style="fill: #262626" transform="translate(154.900956 398.416719) scale(0.15 -0.15)">
       <use xlink:href="#ArialMT-30"/>
      </g>
     </g>
    </g>
    <g id="xtick_3">
     <g id="line2d_3">
      <g>
       <use xlink:href="#m2ddb00ec45" x="228.058182" y="379.18" style="fill: #262626; stroke: #262626; stroke-width: 1.5"/>
      </g>
     </g>
     <g id="text_3">
      <!-- 250 -->
      <g style="fill: #262626" transform="translate(215.546072 398.416719) scale(0.15 -0.15)">
       <use xlink:href="#ArialMT-32"/>
       <use xlink:href="#ArialMT-35" x="55.615234"/>
       <use xlink:href="#ArialMT-30" x="111.230469"/>
      </g>
     </g>
    </g>
    <g id="xtick_4">
     <g id="line2d_4">
      <g>
       <use xlink:href="#m2ddb00ec45" x="297.044704" y="379.18" style="fill: #262626; stroke: #262626; stroke-width: 1.5"/>
      </g>
     </g>
     <g id="text_4">
      <!-- 500 -->
      <g style="fill: #262626" transform="translate(284.532595 398.416719) scale(0.15 -0.15)">
       <use xlink:href="#ArialMT-35"/>
       <use xlink:href="#ArialMT-30" x="55.615234"/>
       <use xlink:href="#ArialMT-30" x="111.230469"/>
      </g>
     </g>
    </g>
    <g id="xtick_5">
     <g id="line2d_5">
      <g>
       <use xlink:href="#m2ddb00ec45" x="366.031226" y="379.18" style="fill: #262626; stroke: #262626; stroke-width: 1.5"/>
      </g>
     </g>
     <g id="text_5">
      <!-- 750 -->
      <g style="fill: #262626" transform="translate(353.519117 398.416719) scale(0.15 -0.15)">
       <defs>
        <path id="ArialMT-37" d="M 303 3981 
L 303 4522 
L 3269 4522 
L 3269 4084 
Q 2831 3619 2401 2847 
Q 1972 2075 1738 1259 
Q 1569 684 1522 0 
L 944 0 
Q 953 541 1156 1306 
Q 1359 2072 1739 2783 
Q 2119 3494 2547 3981 
L 303 3981 
z
" transform="scale(0.015625)"/>
       </defs>
       <use xlink:href="#ArialMT-37"/>
       <use xlink:href="#ArialMT-35" x="55.615234"/>
       <use xlink:href="#ArialMT-30" x="111.230469"/>
      </g>
     </g>
    </g>
    <g id="xtick_6">
     <g id="line2d_6">
      <g>
       <use xlink:href="#m2ddb00ec45" x="435.017748" y="379.18" style="fill: #262626; stroke: #262626; stroke-width: 1.5"/>
      </g>
     </g>
     <g id="text_6">
      <!-- 1000 -->
      <g style="fill: #262626" transform="translate(418.334936 398.416719) scale(0.15 -0.15)">
       <defs>
        <path id="ArialMT-31" d="M 2384 0 
L 1822 0 
L 1822 3584 
Q 1619 3391 1289 3197 
Q 959 3003 697 2906 
L 697 3450 
Q 1169 3672 1522 3987 
Q 1875 4303 2022 4600 
L 2384 4600 
L 2384 0 
z
" transform="scale(0.015625)"/>
       </defs>
       <use xlink:href="#ArialMT-31"/>
       <use xlink:href="#ArialMT-30" x="55.615234"/>
       <use xlink:href="#ArialMT-30" x="111.230469"/>
       <use xlink:href="#ArialMT-30" x="166.845703"/>
      </g>
     </g>
    </g>
    <g id="xtick_7">
     <g id="line2d_7">
      <g>
       <use xlink:href="#m2ddb00ec45" x="504.004271" y="379.18" style="fill: #262626; stroke: #262626; stroke-width: 1.5"/>
      </g>
     </g>
     <g id="text_7">
      <!-- 1250 -->
      <g style="fill: #262626" transform="translate(487.321458 398.416719) scale(0.15 -0.15)">
       <use xlink:href="#ArialMT-31"/>
       <use xlink:href="#ArialMT-32" x="55.615234"/>
       <use xlink:href="#ArialMT-35" x="111.230469"/>
       <use xlink:href="#ArialMT-30" x="166.845703"/>
      </g>
     </g>
    </g>
    <g id="xtick_8">
     <g id="line2d_8">
      <g>
       <use xlink:href="#m2ddb00ec45" x="572.990793" y="379.18" style="fill: #262626; stroke: #262626; stroke-width: 1.5"/>
      </g>
     </g>
     <g id="text_8">
      <!-- 1500 -->
      <g style="fill: #262626" transform="translate(556.30798 398.416719) scale(0.15 -0.15)">
       <use xlink:href="#ArialMT-31"/>
       <use xlink:href="#ArialMT-35" x="55.615234"/>
       <use xlink:href="#ArialMT-30" x="111.230469"/>
       <use xlink:href="#ArialMT-30" x="166.845703"/>
      </g>
     </g>
    </g>
    <g id="text_9">
     <!-- Time (s) -->
     <g style="fill: #262626" transform="translate(319.502891 416.3175) scale(0.15 -0.15)">
      <defs>
       <path id="ArialMT-54" d="M 1659 0 
L 1659 4041 
L 150 4041 
L 150 4581 
L 3781 4581 
L 3781 4041 
L 2266 4041 
L 2266 0 
L 1659 0 
z
" transform="scale(0.015625)"/>
       <path id="ArialMT-69" d="M 425 3934 
L 425 4581 
L 988 4581 
L 988 3934 
L 425 3934 
z
M 425 0 
L 425 3319 
L 988 3319 
L 988 0 
L 425 0 
z
" transform="scale(0.015625)"/>
       <path id="ArialMT-6d" d="M 422 0 
L 422 3319 
L 925 3319 
L 925 2853 
Q 1081 3097 1340 3245 
Q 1600 3394 1931 3394 
Q 2300 3394 2536 3241 
Q 2772 3088 2869 2813 
Q 3263 3394 3894 3394 
Q 4388 3394 4653 3120 
Q 4919 2847 4919 2278 
L 4919 0 
L 4359 0 
L 4359 2091 
Q 4359 2428 4304 2576 
Q 4250 2725 4106 2815 
Q 3963 2906 3769 2906 
Q 3419 2906 3187 2673 
Q 2956 2441 2956 1928 
L 2956 0 
L 2394 0 
L 2394 2156 
Q 2394 2531 2256 2718 
Q 2119 2906 1806 2906 
Q 1569 2906 1367 2781 
Q 1166 2656 1075 2415 
Q 984 2175 984 1722 
L 984 0 
L 422 0 
z
" transform="scale(0.015625)"/>
       <path id="ArialMT-65" d="M 2694 1069 
L 3275 997 
Q 3138 488 2766 206 
Q 2394 -75 1816 -75 
Q 1088 -75 661 373 
Q 234 822 234 1631 
Q 234 2469 665 2931 
Q 1097 3394 1784 3394 
Q 2450 3394 2872 2941 
Q 3294 2488 3294 1666 
Q 3294 1616 3291 1516 
L 816 1516 
Q 847 969 1125 678 
Q 1403 388 1819 388 
Q 2128 388 2347 550 
Q 2566 713 2694 1069 
z
M 847 1978 
L 2700 1978 
Q 2663 2397 2488 2606 
Q 2219 2931 1791 2931 
Q 1403 2931 1139 2672 
Q 875 2413 847 1978 
z
" transform="scale(0.015625)"/>
       <path id="ArialMT-20" transform="scale(0.015625)"/>
       <path id="ArialMT-28" d="M 1497 -1347 
Q 1031 -759 709 28 
Q 388 816 388 1659 
Q 388 2403 628 3084 
Q 909 3875 1497 4659 
L 1900 4659 
Q 1522 4009 1400 3731 
Q 1209 3300 1100 2831 
Q 966 2247 966 1656 
Q 966 153 1900 -1347 
L 1497 -1347 
z
" transform="scale(0.015625)"/>
       <path id="ArialMT-73" d="M 197 991 
L 753 1078 
Q 800 744 1014 566 
Q 1228 388 1613 388 
Q 2000 388 2187 545 
Q 2375 703 2375 916 
Q 2375 1106 2209 1216 
Q 2094 1291 1634 1406 
Q 1016 1563 777 1677 
Q 538 1791 414 1992 
Q 291 2194 291 2438 
Q 291 2659 392 2848 
Q 494 3038 669 3163 
Q 800 3259 1026 3326 
Q 1253 3394 1513 3394 
Q 1903 3394 2198 3281 
Q 2494 3169 2634 2976 
Q 2775 2784 2828 2463 
L 2278 2388 
Q 2241 2644 2061 2787 
Q 1881 2931 1553 2931 
Q 1166 2931 1000 2803 
Q 834 2675 834 2503 
Q 834 2394 903 2306 
Q 972 2216 1119 2156 
Q 1203 2125 1616 2013 
Q 2213 1853 2448 1751 
Q 2684 1650 2818 1456 
Q 2953 1263 2953 975 
Q 2953 694 2789 445 
Q 2625 197 2315 61 
Q 2006 -75 1616 -75 
Q 969 -75 630 194 
Q 291 463 197 991 
z
" transform="scale(0.015625)"/>
       <path id="ArialMT-29" d="M 791 -1347 
L 388 -1347 
Q 1322 153 1322 1656 
Q 1322 2244 1188 2822 
Q 1081 3291 891 3722 
Q 769 4003 388 4659 
L 791 4659 
Q 1378 3875 1659 3084 
Q 1900 2403 1900 1659 
Q 1900 816 1576 28 
Q 1253 -759 791 -1347 
z
" transform="scale(0.015625)"/>
      </defs>
      <use xlink:href="#ArialMT-54"/>
      <use xlink:href="#ArialMT-69" x="57.333984"/>
      <use xlink:href="#ArialMT-6d" x="79.550781"/>
      <use xlink:href="#ArialMT-65" x="162.851562"/>
      <use xlink:href="#ArialMT-20" x="218.466797"/>
      <use xlink:href="#ArialMT-28" x="246.25"/>
      <use xlink:href="#ArialMT-73" x="279.550781"/>
      <use xlink:href="#ArialMT-29" x="329.550781"/>
     </g>
    </g>
   </g>
   <g id="matplotlib.axis_2">
    <g id="ytick_1">
     <g id="line2d_9">
      <defs>
       <path id="m6acb63d3b3" d="M 0 0 
L -5 0 
" style="stroke: #262626; stroke-width: 1.5"/>
      </defs>
      <g>
       <use xlink:href="#m6acb63d3b3" x="85.67" y="354.415758" style="fill: #262626; stroke: #262626; stroke-width: 1.5"/>
      </g>
     </g>
     <g id="text_10">
      <!-- −0.050 -->
      <g style="fill: #262626" transform="translate(30.87625 359.784118) scale(0.15 -0.15)">
       <defs>
        <path id="ArialMT-2e" d="M 581 0 
L 581 641 
L 1222 641 
L 1222 0 
L 581 0 
z
" transform="scale(0.015625)"/>
       </defs>
       <use xlink:href="#ArialMT-2212"/>
       <use xlink:href="#ArialMT-30" x="58.398438"/>
       <use xlink:href="#ArialMT-2e" x="114.013672"/>
       <use xlink:href="#ArialMT-30" x="141.796875"/>
       <use xlink:href="#ArialMT-35" x="197.412109"/>
       <use xlink:href="#ArialMT-30" x="253.027344"/>
      </g>
     </g>
    </g>
    <g id="ytick_2">
     <g id="line2d_10">
      <g>
       <use xlink:href="#m6acb63d3b3" x="85.67" y="314.550948" style="fill: #262626; stroke: #262626; stroke-width: 1.5"/>
      </g>
     </g>
     <g id="text_11">
      <!-- −0.025 -->
      <g style="fill: #262626" transform="translate(30.87625 319.919307) scale(0.15 -0.15)">
       <use xlink:href="#ArialMT-2212"/>
       <use xlink:href="#ArialMT-30" x="58.398438"/>
       <use xlink:href="#ArialMT-2e" x="114.013672"/>
       <use xlink:href="#ArialMT-30" x="141.796875"/>
       <use xlink:href="#ArialMT-32" x="197.412109"/>
       <use xlink:href="#ArialMT-35" x="253.027344"/>
      </g>
     </g>
    </g>
    <g id="ytick_3">
     <g id="line2d_11">
      <g>
       <use xlink:href="#m6acb63d3b3" x="85.67" y="274.686138" style="fill: #262626; stroke: #262626; stroke-width: 1.5"/>
      </g>
     </g>
     <g id="text_12">
      <!-- 0.000 -->
      <g style="fill: #262626" transform="translate(39.637188 280.054497) scale(0.15 -0.15)">
       <use xlink:href="#ArialMT-30"/>
       <use xlink:href="#ArialMT-2e" x="55.615234"/>
       <use xlink:href="#ArialMT-30" x="83.398438"/>
       <use xlink:href="#ArialMT-30" x="139.013672"/>
       <use xlink:href="#ArialMT-30" x="194.628906"/>
      </g>
     </g>
    </g>
    <g id="ytick_4">
     <g id="line2d_12">
      <g>
       <use xlink:href="#m6acb63d3b3" x="85.67" y="234.821327" style="fill: #262626; stroke: #262626; stroke-width: 1.5"/>
      </g>
     </g>
     <g id="text_13">
      <!-- 0.025 -->
      <g style="fill: #262626" transform="translate(39.637188 240.189687) scale(0.15 -0.15)">
       <use xlink:href="#ArialMT-30"/>
       <use xlink:href="#ArialMT-2e" x="55.615234"/>
       <use xlink:href="#ArialMT-30" x="83.398438"/>
       <use xlink:href="#ArialMT-32" x="139.013672"/>
       <use xlink:href="#ArialMT-35" x="194.628906"/>
      </g>
     </g>
    </g>
    <g id="ytick_5">
     <g id="line2d_13">
      <g>
       <use xlink:href="#m6acb63d3b3" x="85.67" y="194.956517" style="fill: #262626; stroke: #262626; stroke-width: 1.5"/>
      </g>
     </g>
     <g id="text_14">
      <!-- 0.050 -->
      <g style="fill: #262626" transform="translate(39.637188 200.324876) scale(0.15 -0.15)">
       <use xlink:href="#ArialMT-30"/>
       <use xlink:href="#ArialMT-2e" x="55.615234"/>
       <use xlink:href="#ArialMT-30" x="83.398438"/>
       <use xlink:href="#ArialMT-35" x="139.013672"/>
       <use xlink:href="#ArialMT-30" x="194.628906"/>
      </g>
     </g>
    </g>
    <g id="ytick_6">
     <g id="line2d_14">
      <g>
       <use xlink:href="#m6acb63d3b3" x="85.67" y="155.091707" style="fill: #262626; stroke: #262626; stroke-width: 1.5"/>
      </g>
     </g>
     <g id="text_15">
      <!-- 0.075 -->
      <g style="fill: #262626" transform="translate(39.637188 160.460066) scale(0.15 -0.15)">
       <use xlink:href="#ArialMT-30"/>
       <use xlink:href="#ArialMT-2e" x="55.615234"/>
       <use xlink:href="#ArialMT-30" x="83.398438"/>
       <use xlink:href="#ArialMT-37" x="139.013672"/>
       <use xlink:href="#ArialMT-35" x="194.628906"/>
      </g>
     </g>
    </g>
    <g id="ytick_7">
     <g id="line2d_15">
      <g>
       <use xlink:href="#m6acb63d3b3" x="85.67" y="115.226896" style="fill: #262626; stroke: #262626; stroke-width: 1.5"/>
      </g>
     </g>
     <g id="text_16">
      <!-- 0.100 -->
      <g style="fill: #262626" transform="translate(39.637188 120.595256) scale(0.15 -0.15)">
       <use xlink:href="#ArialMT-30"/>
       <use xlink:href="#ArialMT-2e" x="55.615234"/>
       <use xlink:href="#ArialMT-31" x="83.398438"/>
       <use xlink:href="#ArialMT-30" x="139.013672"/>
       <use xlink:href="#ArialMT-30" x="194.628906"/>
      </g>
     </g>
    </g>
    <g id="ytick_8">
     <g id="line2d_16">
      <g>
       <use xlink:href="#m6acb63d3b3" x="85.67" y="75.362086" style="fill: #262626; stroke: #262626; stroke-width: 1.5"/>
      </g>
     </g>
     <g id="text_17">
      <!-- 0.125 -->
      <g style="fill: #262626" transform="translate(39.637188 80.730445) scale(0.15 -0.15)">
       <use xlink:href="#ArialMT-30"/>
       <use xlink:href="#ArialMT-2e" x="55.615234"/>
       <use xlink:href="#ArialMT-31" x="83.398438"/>
       <use xlink:href="#ArialMT-32" x="139.013672"/>
       <use xlink:href="#ArialMT-35" x="194.628906"/>
      </g>
     </g>
    </g>
    <g id="ytick_9">
     <g id="line2d_17">
      <g>
       <use xlink:href="#m6acb63d3b3" x="85.67" y="35.497276" style="fill: #262626; stroke: #262626; stroke-width: 1.5"/>
      </g>
     </g>
     <g id="text_18">
      <!-- 0.150 -->
      <g style="fill: #262626" transform="translate(39.637188 40.865635) scale(0.15 -0.15)">
       <use xlink:href="#ArialMT-30"/>
       <use xlink:href="#ArialMT-2e" x="55.615234"/>
       <use xlink:href="#ArialMT-31" x="83.398438"/>
       <use xlink:href="#ArialMT-35" x="139.013672"/>
       <use xlink:href="#ArialMT-30" x="194.628906"/>
      </g>
     </g>
    </g>
    <g id="text_19">
     <!-- Divergence -->
     <g style="fill: #262626" transform="translate(23.719219 241.323594) rotate(-90) scale(0.15 -0.15)">
      <defs>
       <path id="ArialMT-44" d="M 494 0 
L 494 4581 
L 2072 4581 
Q 2606 4581 2888 4516 
Q 3281 4425 3559 4188 
Q 3922 3881 4101 3404 
Q 4281 2928 4281 2316 
Q 4281 1794 4159 1391 
Q 4038 988 3847 723 
Q 3656 459 3429 307 
Q 3203 156 2883 78 
Q 2563 0 2147 0 
L 494 0 
z
M 1100 541 
L 2078 541 
Q 2531 541 2789 625 
Q 3047 709 3200 863 
Q 3416 1078 3536 1442 
Q 3656 1806 3656 2325 
Q 3656 3044 3420 3430 
Q 3184 3816 2847 3947 
Q 2603 4041 2063 4041 
L 1100 4041 
L 1100 541 
z
" transform="scale(0.015625)"/>
       <path id="ArialMT-76" d="M 1344 0 
L 81 3319 
L 675 3319 
L 1388 1331 
Q 1503 1009 1600 663 
Q 1675 925 1809 1294 
L 2547 3319 
L 3125 3319 
L 1869 0 
L 1344 0 
z
" transform="scale(0.015625)"/>
       <path id="ArialMT-72" d="M 416 0 
L 416 3319 
L 922 3319 
L 922 2816 
Q 1116 3169 1280 3281 
Q 1444 3394 1641 3394 
Q 1925 3394 2219 3213 
L 2025 2691 
Q 1819 2813 1613 2813 
Q 1428 2813 1281 2702 
Q 1134 2591 1072 2394 
Q 978 2094 978 1738 
L 978 0 
L 416 0 
z
" transform="scale(0.015625)"/>
       <path id="ArialMT-67" d="M 319 -275 
L 866 -356 
Q 900 -609 1056 -725 
Q 1266 -881 1628 -881 
Q 2019 -881 2231 -725 
Q 2444 -569 2519 -288 
Q 2563 -116 2559 434 
Q 2191 0 1641 0 
Q 956 0 581 494 
Q 206 988 206 1678 
Q 206 2153 378 2554 
Q 550 2956 876 3175 
Q 1203 3394 1644 3394 
Q 2231 3394 2613 2919 
L 2613 3319 
L 3131 3319 
L 3131 450 
Q 3131 -325 2973 -648 
Q 2816 -972 2473 -1159 
Q 2131 -1347 1631 -1347 
Q 1038 -1347 672 -1080 
Q 306 -813 319 -275 
z
M 784 1719 
Q 784 1066 1043 766 
Q 1303 466 1694 466 
Q 2081 466 2343 764 
Q 2606 1063 2606 1700 
Q 2606 2309 2336 2618 
Q 2066 2928 1684 2928 
Q 1309 2928 1046 2623 
Q 784 2319 784 1719 
z
" transform="scale(0.015625)"/>
       <path id="ArialMT-6e" d="M 422 0 
L 422 3319 
L 928 3319 
L 928 2847 
Q 1294 3394 1984 3394 
Q 2284 3394 2536 3286 
Q 2788 3178 2913 3003 
Q 3038 2828 3088 2588 
Q 3119 2431 3119 2041 
L 3119 0 
L 2556 0 
L 2556 2019 
Q 2556 2363 2490 2533 
Q 2425 2703 2258 2804 
Q 2091 2906 1866 2906 
Q 1506 2906 1245 2678 
Q 984 2450 984 1813 
L 984 0 
L 422 0 
z
" transform="scale(0.015625)"/>
       <path id="ArialMT-63" d="M 2588 1216 
L 3141 1144 
Q 3050 572 2676 248 
Q 2303 -75 1759 -75 
Q 1078 -75 664 370 
Q 250 816 250 1647 
Q 250 2184 428 2587 
Q 606 2991 970 3192 
Q 1334 3394 1763 3394 
Q 2303 3394 2647 3120 
Q 2991 2847 3088 2344 
L 2541 2259 
Q 2463 2594 2264 2762 
Q 2066 2931 1784 2931 
Q 1359 2931 1093 2626 
Q 828 2322 828 1663 
Q 828 994 1084 691 
Q 1341 388 1753 388 
Q 2084 388 2306 591 
Q 2528 794 2588 1216 
z
" transform="scale(0.015625)"/>
      </defs>
      <use xlink:href="#ArialMT-44"/>
      <use xlink:href="#ArialMT-69" x="72.216797"/>
      <use xlink:href="#ArialMT-76" x="94.433594"/>
      <use xlink:href="#ArialMT-65" x="144.433594"/>
      <use xlink:href="#ArialMT-72" x="200.048828"/>
      <use xlink:href="#ArialMT-67" x="233.349609"/>
      <use xlink:href="#ArialMT-65" x="288.964844"/>
      <use xlink:href="#ArialMT-6e" x="344.580078"/>
      <use xlink:href="#ArialMT-63" x="400.195312"/>
      <use xlink:href="#ArialMT-65" x="450.195312"/>
     </g>
    </g>
   </g>
   <g id="PolyCollection_1">
    <defs>
     <path id="m404ba7b72a" d="M 109.401364 -226.456814 
L 109.401364 -113.429165 
L 120.439207 -156.181183 
L 131.477051 -156.719993 
L 142.514894 -136.06717 
L 153.552738 -172.679914 
L 164.590581 -220.712017 
L 175.628425 -227.715878 
L 186.666268 -256.859136 
L 197.704112 -246.213397 
L 208.741956 -231.093553 
L 219.779799 -234.611967 
L 230.817643 -245.312226 
L 241.855486 -242.192234 
L 252.89333 -256.758269 
L 263.931173 -278.182933 
L 274.969017 -276.336775 
L 286.00686 -288.138952 
L 297.044704 -274.698799 
L 308.082548 -293.309465 
L 319.120391 -293.300497 
L 330.158235 -286.005082 
L 341.196078 -290.001809 
L 352.233922 -296.718839 
L 363.271765 -298.190425 
L 374.309609 -286.029523 
L 385.347452 -303.703739 
L 396.385296 -309.39144 
L 407.42314 -309.072049 
L 418.460983 -299.131243 
L 429.498827 -282.389917 
L 440.53667 -297.441602 
L 451.574514 -310.512579 
L 462.612357 -284.050249 
L 473.650201 -292.573277 
L 484.688044 -302.488049 
L 495.725888 -296.354836 
L 506.763732 -311.302233 
L 517.801575 -307.196863 
L 528.839419 -313.677087 
L 539.877262 -319.218422 
L 550.915106 -316.841293 
L 561.952949 -329.32825 
L 572.990793 -327.173115 
L 584.028636 -208.51957 
L 584.028636 -229.449987 
L 584.028636 -229.449987 
L 572.990793 -382.933118 
L 561.952949 -388.419091 
L 550.915106 -372.854653 
L 539.877262 -371.289038 
L 528.839419 -361.980789 
L 517.801575 -350.291355 
L 506.763732 -353.914576 
L 495.725888 -341.077094 
L 484.688044 -349.909417 
L 473.650201 -332.94977 
L 462.612357 -321.223305 
L 451.574514 -347.116165 
L 440.53667 -331.138372 
L 429.498827 -315.837894 
L 418.460983 -334.616882 
L 407.42314 -344.178959 
L 396.385296 -344.883012 
L 385.347452 -343.180935 
L 374.309609 -320.856355 
L 363.271765 -333.961998 
L 352.233922 -329.739349 
L 341.196078 -322.901048 
L 330.158235 -319.223415 
L 319.120391 -324.408217 
L 308.082548 -325.668325 
L 297.044704 -306.652755 
L 286.00686 -318.001465 
L 274.969017 -306.061936 
L 263.931173 -307.789387 
L 252.89333 -286.719495 
L 241.855486 -271.432971 
L 230.817643 -275.686571 
L 219.779799 -263.041693 
L 208.741956 -259.332561 
L 197.704112 -275.905005 
L 186.666268 -288.770052 
L 175.628425 -254.631669 
L 164.590581 -244.886563 
L 153.552738 -188.894638 
L 142.514894 -159.693417 
L 131.477051 -181.592076 
L 120.439207 -177.097953 
L 109.401364 -226.456814 
z
" style="stroke: #eb6ab0; stroke-opacity: 0.1"/>
    </defs>
    <g clip-path="url(#p8027dff557)">
     <use xlink:href="#m404ba7b72a" x="0" y="432" style="fill: #eb6ab0; fill-opacity: 0.1; stroke: #eb6ab0; stroke-opacity: 0.1"/>
    </g>
   </g>
   <g id="PolyCollection_2">
    <defs>
     <path id="m1db721d0dd" d="M 109.401364 -186.711369 
L 109.401364 -149.203679 
L 120.439207 -152.225871 
L 131.477051 -153.504191 
L 142.514894 -153.262024 
L 153.552738 -155.935342 
L 164.590581 -174.121145 
L 175.628425 -183.195471 
L 186.666268 -189.793292 
L 197.704112 -185.171231 
L 208.741956 -179.710313 
L 219.779799 -180.254865 
L 230.817643 -182.28049 
L 241.855486 -180.251422 
L 252.89333 -183.327066 
L 263.931173 -188.146766 
L 274.969017 -178.257441 
L 286.00686 -186.093918 
L 297.044704 -200.205363 
L 308.082548 -206.048178 
L 319.120391 -196.375671 
L 330.158235 -190.381599 
L 341.196078 -187.76906 
L 352.233922 -189.626436 
L 363.271765 -187.78847 
L 374.309609 -184.783189 
L 385.347452 -185.620256 
L 396.385296 -188.974809 
L 407.42314 -189.467341 
L 418.460983 -200.015323 
L 429.498827 -188.995925 
L 440.53667 -178.52876 
L 451.574514 -174.932435 
L 462.612357 -174.354822 
L 473.650201 -177.701265 
L 484.688044 -177.020156 
L 495.725888 -181.449686 
L 506.763732 -180.007881 
L 517.801575 -184.847513 
L 528.839419 -186.098485 
L 539.877262 -188.55804 
L 550.915106 -189.909026 
L 561.952949 -193.91709 
L 572.990793 -189.415411 
L 584.028636 -166.974325 
L 584.028636 -171.684478 
L 584.028636 -171.684478 
L 572.990793 -201.52348 
L 561.952949 -206.61214 
L 550.915106 -201.865223 
L 539.877262 -199.747172 
L 528.839419 -197.617981 
L 517.801575 -195.605631 
L 506.763732 -190.939715 
L 495.725888 -192.005986 
L 484.688044 -187.220024 
L 473.650201 -188.203471 
L 462.612357 -184.447947 
L 451.574514 -184.162342 
L 440.53667 -186.469608 
L 429.498827 -197.226918 
L 418.460983 -209.769295 
L 407.42314 -197.682315 
L 396.385296 -197.316336 
L 385.347452 -194.314985 
L 374.309609 -192.856268 
L 363.271765 -196.637379 
L 352.233922 -199.45099 
L 341.196078 -197.91214 
L 330.158235 -200.003606 
L 319.120391 -205.997051 
L 308.082548 -216.939827 
L 297.044704 -209.738906 
L 286.00686 -194.294243 
L 274.969017 -186.28982 
L 263.931173 -196.440249 
L 252.89333 -191.185995 
L 241.855486 -187.927976 
L 230.817643 -189.640299 
L 219.779799 -188.257543 
L 208.741956 -187.288078 
L 197.704112 -194.265539 
L 186.666268 -200.569517 
L 175.628425 -192.382147 
L 164.590581 -180.525686 
L 153.552738 -161.315241 
L 142.514894 -160.867208 
L 131.477051 -162.116008 
L 120.439207 -159.785279 
L 109.401364 -186.711369 
z
" style="stroke: #eb6ab0; stroke-opacity: 0.1"/>
    </defs>
    <g clip-path="url(#p8027dff557)">
     <use xlink:href="#m1db721d0dd" x="0" y="432" style="fill: #eb6ab0; fill-opacity: 0.1; stroke: #eb6ab0; stroke-opacity: 0.1"/>
    </g>
   </g>
   <g id="PathCollection_1">
    <defs>
     <path id="m1cd722790b" d="M 0 -3 
L -0.673542 -0.927051 
L -2.85317 -0.927051 
L -1.089814 0.354102 
L -1.763356 2.427051 
L -0 1.145898 
L 1.763356 2.427051 
L 1.089814 0.354102 
L 2.85317 -0.927051 
L 0.673542 -0.927051 
z
" style="stroke: #eb6ab0"/>
    </defs>
    <g clip-path="url(#p8027dff557)">
     <use xlink:href="#m1cd722790b" x="164.590581" y="290.632062" style="fill: #eb6ab0; stroke: #eb6ab0"/>
     <use xlink:href="#m1cd722790b" x="175.628425" y="290.632062" style="fill: #eb6ab0; stroke: #eb6ab0"/>
     <use xlink:href="#m1cd722790b" x="186.666268" y="290.632062" style="fill: #eb6ab0; stroke: #eb6ab0"/>
     <use xlink:href="#m1cd722790b" x="197.704112" y="290.632062" style="fill: #eb6ab0; stroke: #eb6ab0"/>
     <use xlink:href="#m1cd722790b" x="208.741956" y="290.632062" style="fill: #eb6ab0; stroke: #eb6ab0"/>
     <use xlink:href="#m1cd722790b" x="219.779799" y="290.632062" style="fill: #eb6ab0; stroke: #eb6ab0"/>
     <use xlink:href="#m1cd722790b" x="230.817643" y="290.632062" style="fill: #eb6ab0; stroke: #eb6ab0"/>
     <use xlink:href="#m1cd722790b" x="241.855486" y="290.632062" style="fill: #eb6ab0; stroke: #eb6ab0"/>
     <use xlink:href="#m1cd722790b" x="252.89333" y="290.632062" style="fill: #eb6ab0; stroke: #eb6ab0"/>
     <use xlink:href="#m1cd722790b" x="263.931173" y="290.632062" style="fill: #eb6ab0; stroke: #eb6ab0"/>
     <use xlink:href="#m1cd722790b" x="274.969017" y="290.632062" style="fill: #eb6ab0; stroke: #eb6ab0"/>
     <use xlink:href="#m1cd722790b" x="286.00686" y="290.632062" style="fill: #eb6ab0; stroke: #eb6ab0"/>
     <use xlink:href="#m1cd722790b" x="297.044704" y="290.632062" style="fill: #eb6ab0; stroke: #eb6ab0"/>
     <use xlink:href="#m1cd722790b" x="308.082548" y="290.632062" style="fill: #eb6ab0; stroke: #eb6ab0"/>
     <use xlink:href="#m1cd722790b" x="319.120391" y="290.632062" style="fill: #eb6ab0; stroke: #eb6ab0"/>
     <use xlink:href="#m1cd722790b" x="330.158235" y="290.632062" style="fill: #eb6ab0; stroke: #eb6ab0"/>
     <use xlink:href="#m1cd722790b" x="341.196078" y="290.632062" style="fill: #eb6ab0; stroke: #eb6ab0"/>
     <use xlink:href="#m1cd722790b" x="352.233922" y="290.632062" style="fill: #eb6ab0; stroke: #eb6ab0"/>
     <use xlink:href="#m1cd722790b" x="363.271765" y="290.632062" style="fill: #eb6ab0; stroke: #eb6ab0"/>
     <use xlink:href="#m1cd722790b" x="374.309609" y="290.632062" style="fill: #eb6ab0; stroke: #eb6ab0"/>
     <use xlink:href="#m1cd722790b" x="385.347452" y="290.632062" style="fill: #eb6ab0; stroke: #eb6ab0"/>
     <use xlink:href="#m1cd722790b" x="396.385296" y="290.632062" style="fill: #eb6ab0; stroke: #eb6ab0"/>
     <use xlink:href="#m1cd722790b" x="407.42314" y="290.632062" style="fill: #eb6ab0; stroke: #eb6ab0"/>
     <use xlink:href="#m1cd722790b" x="418.460983" y="290.632062" style="fill: #eb6ab0; stroke: #eb6ab0"/>
     <use xlink:href="#m1cd722790b" x="429.498827" y="290.632062" style="fill: #eb6ab0; stroke: #eb6ab0"/>
     <use xlink:href="#m1cd722790b" x="440.53667" y="290.632062" style="fill: #eb6ab0; stroke: #eb6ab0"/>
     <use xlink:href="#m1cd722790b" x="451.574514" y="290.632062" style="fill: #eb6ab0; stroke: #eb6ab0"/>
     <use xlink:href="#m1cd722790b" x="462.612357" y="290.632062" style="fill: #eb6ab0; stroke: #eb6ab0"/>
     <use xlink:href="#m1cd722790b" x="473.650201" y="290.632062" style="fill: #eb6ab0; stroke: #eb6ab0"/>
     <use xlink:href="#m1cd722790b" x="484.688044" y="290.632062" style="fill: #eb6ab0; stroke: #eb6ab0"/>
     <use xlink:href="#m1cd722790b" x="495.725888" y="290.632062" style="fill: #eb6ab0; stroke: #eb6ab0"/>
     <use xlink:href="#m1cd722790b" x="506.763732" y="290.632062" style="fill: #eb6ab0; stroke: #eb6ab0"/>
     <use xlink:href="#m1cd722790b" x="517.801575" y="290.632062" style="fill: #eb6ab0; stroke: #eb6ab0"/>
     <use xlink:href="#m1cd722790b" x="528.839419" y="290.632062" style="fill: #eb6ab0; stroke: #eb6ab0"/>
     <use xlink:href="#m1cd722790b" x="539.877262" y="290.632062" style="fill: #eb6ab0; stroke: #eb6ab0"/>
     <use xlink:href="#m1cd722790b" x="550.915106" y="290.632062" style="fill: #eb6ab0; stroke: #eb6ab0"/>
     <use xlink:href="#m1cd722790b" x="561.952949" y="290.632062" style="fill: #eb6ab0; stroke: #eb6ab0"/>
     <use xlink:href="#m1cd722790b" x="572.990793" y="290.632062" style="fill: #eb6ab0; stroke: #eb6ab0"/>
     <use xlink:href="#m1cd722790b" x="584.028636" y="290.632062" style="fill: #eb6ab0; stroke: #eb6ab0"/>
    </g>
   </g>
   <g id="PolyCollection_3">
    <defs>
     <path id="m9c883d1277" d="M 109.401364 -187.023811 
L 109.401364 -109.744414 
L 120.439207 -68.800909 
L 131.477051 -95.843713 
L 142.514894 -158.395644 
L 153.552738 -193.833977 
L 164.590581 -206.750669 
L 175.628425 -218.717538 
L 186.666268 -225.650869 
L 197.704112 -230.013419 
L 208.741956 -245.368198 
L 219.779799 -254.139983 
L 230.817643 -238.713748 
L 241.855486 -217.51518 
L 252.89333 -224.384634 
L 263.931173 -222.501523 
L 274.969017 -191.466268 
L 286.00686 -180.318454 
L 297.044704 -157.52779 
L 308.082548 -157.007689 
L 319.120391 -159.901883 
L 330.158235 -156.629627 
L 341.196078 -181.255454 
L 352.233922 -194.615497 
L 363.271765 -198.370951 
L 374.309609 -204.348243 
L 385.347452 -196.155924 
L 396.385296 -196.593005 
L 407.42314 -194.739782 
L 418.460983 -197.480482 
L 429.498827 -205.2842 
L 440.53667 -206.952672 
L 451.574514 -190.539163 
L 462.612357 -208.827737 
L 473.650201 -208.427235 
L 484.688044 -184.048225 
L 495.725888 -164.067338 
L 506.763732 -169.390467 
L 517.801575 -205.315551 
L 528.839419 -224.684777 
L 539.877262 -244.628569 
L 550.915106 -247.166388 
L 561.952949 -246.736943 
L 572.990793 -254.912896 
L 584.028636 -186.931813 
L 584.028636 -213.569723 
L 584.028636 -213.569723 
L 572.990793 -335.850948 
L 561.952949 -321.497238 
L 550.915106 -312.750978 
L 539.877262 -303.427644 
L 528.839419 -280.105536 
L 517.801575 -264.113501 
L 506.763732 -230.042376 
L 495.725888 -225.163207 
L 484.688044 -238.654934 
L 473.650201 -267.482035 
L 462.612357 -267.207466 
L 451.574514 -247.567841 
L 440.53667 -257.253987 
L 429.498827 -255.211916 
L 418.460983 -243.668644 
L 407.42314 -240.490398 
L 396.385296 -248.053779 
L 385.347452 -248.142549 
L 374.309609 -258.620108 
L 363.271765 -253.489616 
L 352.233922 -247.915673 
L 341.196078 -229.242938 
L 330.158235 -205.328 
L 319.120391 -208.390214 
L 308.082548 -203.134312 
L 297.044704 -205.875911 
L 286.00686 -229.222228 
L 274.969017 -243.468773 
L 263.931173 -283.457442 
L 252.89333 -280.140705 
L 241.855486 -270.092367 
L 230.817643 -291.049731 
L 219.779799 -310.512877 
L 208.741956 -306.443894 
L 197.704112 -289.813634 
L 186.666268 -292.144241 
L 175.628425 -292.121957 
L 164.590581 -285.033587 
L 153.552738 -277.133129 
L 142.514894 -239.722761 
L 131.477051 -182.486501 
L 120.439207 -164.161955 
L 109.401364 -187.023811 
z
" style="stroke: #8b0a50; stroke-opacity: 0.1"/>
    </defs>
    <g clip-path="url(#p8027dff557)">
     <use xlink:href="#m9c883d1277" x="0" y="432" style="fill: #8b0a50; fill-opacity: 0.1; stroke: #8b0a50; stroke-opacity: 0.1"/>
    </g>
   </g>
   <g id="PolyCollection_4">
    <defs>
     <path id="m21a5cdc1c2" d="M 109.401364 -185.953316 
L 109.401364 -163.898549 
L 120.439207 -164.198999 
L 131.477051 -176.627753 
L 142.514894 -185.809034 
L 153.552738 -208.474377 
L 164.590581 -222.258723 
L 175.628425 -235.14736 
L 186.666268 -233.566409 
L 197.704112 -223.07919 
L 208.741956 -218.904381 
L 219.779799 -221.780931 
L 230.817643 -212.31672 
L 241.855486 -208.154091 
L 252.89333 -203.144946 
L 263.931173 -205.906869 
L 274.969017 -206.981492 
L 286.00686 -209.158439 
L 297.044704 -203.925237 
L 308.082548 -202.969251 
L 319.120391 -200.920857 
L 330.158235 -197.022626 
L 341.196078 -197.224824 
L 352.233922 -193.13881 
L 363.271765 -188.616659 
L 374.309609 -185.493073 
L 385.347452 -189.537158 
L 396.385296 -190.118173 
L 407.42314 -184.534667 
L 418.460983 -174.568003 
L 429.498827 -171.041329 
L 440.53667 -172.311438 
L 451.574514 -166.684421 
L 462.612357 -159.3422 
L 473.650201 -152.591424 
L 484.688044 -148.339024 
L 495.725888 -149.240117 
L 506.763732 -147.799452 
L 517.801575 -151.079016 
L 528.839419 -147.184911 
L 539.877262 -142.302254 
L 550.915106 -134.67952 
L 561.952949 -129.903182 
L 572.990793 -131.538814 
L 584.028636 -149.702684 
L 584.028636 -156.836682 
L 584.028636 -156.836682 
L 572.990793 -152.778078 
L 561.952949 -150.852941 
L 550.915106 -153.465994 
L 539.877262 -159.513882 
L 528.839419 -163.245888 
L 517.801575 -167.564971 
L 506.763732 -164.756888 
L 495.725888 -166.877165 
L 484.688044 -164.082498 
L 473.650201 -170.456504 
L 462.612357 -176.768113 
L 451.574514 -183.01329 
L 440.53667 -189.037593 
L 429.498827 -187.223868 
L 418.460983 -189.382209 
L 407.42314 -197.7362 
L 396.385296 -203.565778 
L 385.347452 -203.716337 
L 374.309609 -200.933531 
L 363.271765 -204.107592 
L 352.233922 -208.802308 
L 341.196078 -212.100355 
L 330.158235 -211.456373 
L 319.120391 -214.708425 
L 308.082548 -216.671222 
L 297.044704 -218.62723 
L 286.00686 -225.045182 
L 274.969017 -223.467896 
L 263.931173 -222.488866 
L 252.89333 -219.45995 
L 241.855486 -225.111412 
L 230.817643 -229.22345 
L 219.779799 -240.761348 
L 208.741956 -236.935404 
L 197.704112 -241.779899 
L 186.666268 -253.175937 
L 175.628425 -254.896667 
L 164.590581 -245.219501 
L 153.552738 -234.704394 
L 142.514894 -215.710341 
L 131.477051 -203.317991 
L 120.439207 -190.146242 
L 109.401364 -185.953316 
z
" style="stroke: #8b0a50; stroke-opacity: 0.1"/>
    </defs>
    <g clip-path="url(#p8027dff557)">
     <use xlink:href="#m21a5cdc1c2" x="0" y="432" style="fill: #8b0a50; fill-opacity: 0.1; stroke: #8b0a50; stroke-opacity: 0.1"/>
    </g>
   </g>
   <g id="PathCollection_2">
    <defs>
     <path id="mbd5c8e2fed" d="M 0 -3 
L -0.673542 -0.927051 
L -2.85317 -0.927051 
L -1.089814 0.354102 
L -1.763356 2.427051 
L -0 1.145898 
L 1.763356 2.427051 
L 1.089814 0.354102 
L 2.85317 -0.927051 
L 0.673542 -0.927051 
z
" style="stroke: #8b0a50"/>
    </defs>
    <g clip-path="url(#p8027dff557)">
     <use xlink:href="#mbd5c8e2fed" x="528.839419" y="306.577986" style="fill: #8b0a50; stroke: #8b0a50"/>
     <use xlink:href="#mbd5c8e2fed" x="539.877262" y="306.577986" style="fill: #8b0a50; stroke: #8b0a50"/>
     <use xlink:href="#mbd5c8e2fed" x="550.915106" y="306.577986" style="fill: #8b0a50; stroke: #8b0a50"/>
     <use xlink:href="#mbd5c8e2fed" x="561.952949" y="306.577986" style="fill: #8b0a50; stroke: #8b0a50"/>
     <use xlink:href="#mbd5c8e2fed" x="572.990793" y="306.577986" style="fill: #8b0a50; stroke: #8b0a50"/>
     <use xlink:href="#mbd5c8e2fed" x="584.028636" y="306.577986" style="fill: #8b0a50; stroke: #8b0a50"/>
    </g>
   </g>
   <g id="line2d_18">
    <path d="M 109.401364 262.057011 
L 120.439207 265.360432 
L 131.477051 262.843965 
L 142.514894 284.119707 
L 153.552738 251.212724 
L 164.590581 199.20071 
L 175.628425 190.826226 
L 186.666268 159.185406 
L 197.704112 170.940799 
L 208.741956 186.786943 
L 219.779799 183.17317 
L 230.817643 171.500602 
L 241.855486 175.187398 
L 252.89333 160.261118 
L 263.931173 139.01384 
L 274.969017 140.800644 
L 286.00686 128.929791 
L 297.044704 141.324223 
L 308.082548 122.511105 
L 319.120391 123.145643 
L 330.158235 129.385751 
L 341.196078 125.548572 
L 352.233922 118.770906 
L 363.271765 115.923789 
L 374.309609 128.557061 
L 385.347452 108.557663 
L 396.385296 104.862774 
L 407.42314 105.374496 
L 418.460983 115.125937 
L 429.498827 132.886095 
L 440.53667 117.710013 
L 451.574514 103.185628 
L 462.612357 129.363223 
L 473.650201 119.238476 
L 484.688044 105.801267 
L 495.725888 113.284035 
L 506.763732 99.391596 
L 517.801575 103.255891 
L 528.839419 94.171062 
L 539.877262 86.74627 
L 550.915106 87.152027 
L 561.952949 73.126329 
L 572.990793 76.946884 
L 584.028636 213.015222 
" clip-path="url(#p8027dff557)" style="fill: none; stroke: #eb6ab0; stroke-width: 2; stroke-linecap: round"/>
   </g>
   <g id="line2d_19">
    <path d="M 109.401364 264.042476 
L 120.439207 275.994425 
L 131.477051 274.1899 
L 142.514894 274.935384 
L 153.552738 273.374708 
L 164.590581 254.676584 
L 175.628425 244.211191 
L 186.666268 236.818596 
L 197.704112 242.281615 
L 208.741956 248.500805 
L 219.779799 247.743796 
L 230.817643 246.039605 
L 241.855486 247.910301 
L 252.89333 244.74347 
L 263.931173 239.706492 
L 274.969017 249.726369 
L 286.00686 241.805919 
L 297.044704 227.027866 
L 308.082548 220.505997 
L 319.120391 230.813639 
L 330.158235 236.807398 
L 341.196078 239.1594 
L 352.233922 237.461287 
L 363.271765 239.787075 
L 374.309609 243.180271 
L 385.347452 242.032379 
L 396.385296 238.854428 
L 407.42314 238.425172 
L 418.460983 227.107691 
L 429.498827 238.888578 
L 440.53667 249.500816 
L 451.574514 252.452611 
L 462.612357 252.598616 
L 473.650201 249.047632 
L 484.688044 249.87991 
L 495.725888 245.272164 
L 506.763732 246.526202 
L 517.801575 241.773428 
L 528.839419 240.141767 
L 539.877262 237.847394 
L 550.915106 236.112876 
L 561.952949 231.735385 
L 572.990793 236.530555 
L 584.028636 262.670599 
" clip-path="url(#p8027dff557)" style="fill: none; stroke-dasharray: 7.4,3.2; stroke-dashoffset: 0; stroke: #eb6ab0; stroke-width: 2"/>
   </g>
   <g id="line2d_20">
    <path d="M 159.07166 379.18 
L 159.07166 27.6 
" clip-path="url(#p8027dff557)" style="fill: none; stroke-dasharray: 5.55,2.4; stroke-dashoffset: 0; stroke: #1a1a1a; stroke-width: 1.5"/>
   </g>
   <g id="line2d_21">
    <path d="M 435.017748 379.18 
L 435.017748 27.6 
" clip-path="url(#p8027dff557)" style="fill: none; stroke-dasharray: 5.55,2.4; stroke-dashoffset: 0; stroke: #1a1a1a; stroke-width: 1.5"/>
   </g>
   <g id="line2d_22">
    <path d="M 109.401364 283.615888 
L 120.439207 315.518568 
L 131.477051 292.834893 
L 142.514894 232.940797 
L 153.552738 196.516447 
L 164.590581 186.107872 
L 175.628425 176.580253 
L 186.666268 173.102445 
L 197.704112 172.086473 
L 208.741956 156.093954 
L 219.779799 149.67357 
L 230.817643 167.11826 
L 241.855486 188.196227 
L 252.89333 179.737331 
L 263.931173 179.020517 
L 274.969017 214.532479 
L 286.00686 227.229659 
L 297.044704 250.298149 
L 308.082548 251.929 
L 319.120391 247.853952 
L 330.158235 251.021187 
L 341.196078 226.750804 
L 352.233922 210.734415 
L 363.271765 206.069716 
L 374.309609 200.515825 
L 385.347452 209.850764 
L 396.385296 209.676608 
L 407.42314 214.38491 
L 418.460983 211.425437 
L 429.498827 201.751942 
L 440.53667 199.896671 
L 451.574514 212.946498 
L 462.612357 193.982398 
L 473.650201 194.045365 
L 484.688044 220.64842 
L 495.725888 237.384728 
L 506.763732 232.283578 
L 517.801575 197.285474 
L 528.839419 179.604843 
L 539.877262 157.971893 
L 550.915106 152.041317 
L 561.952949 147.882909 
L 572.990793 136.618078 
L 584.028636 231.749232 
" clip-path="url(#p8027dff557)" style="fill: none; stroke: #8b0a50; stroke-width: 2; stroke-linecap: round"/>
   </g>
   <g id="line2d_23">
    <path d="M 109.401364 257.074067 
L 120.439207 254.827379 
L 131.477051 242.027128 
L 142.514894 231.240312 
L 153.552738 210.410615 
L 164.590581 198.260888 
L 175.628425 186.977986 
L 186.666268 188.628827 
L 197.704112 199.570456 
L 208.741956 204.080108 
L 219.779799 200.72886 
L 230.817643 211.229915 
L 241.855486 215.367248 
L 252.89333 220.697552 
L 263.931173 217.802133 
L 274.969017 216.775306 
L 286.00686 214.898189 
L 297.044704 220.723766 
L 308.082548 222.179763 
L 319.120391 224.185359 
L 330.158235 227.7605 
L 341.196078 227.33741 
L 352.233922 231.029441 
L 363.271765 235.637875 
L 374.309609 238.786698 
L 385.347452 235.373252 
L 396.385296 235.158024 
L 407.42314 240.864566 
L 418.460983 250.024894 
L 429.498827 252.867402 
L 440.53667 251.325485 
L 451.574514 257.151144 
L 462.612357 263.944844 
L 473.650201 270.476036 
L 484.688044 275.789239 
L 495.725888 273.941359 
L 506.763732 275.72183 
L 517.801575 272.678006 
L 528.839419 276.7846 
L 539.877262 281.091932 
L 550.915106 287.927243 
L 561.952949 291.621939 
L 572.990793 289.841554 
L 584.028636 278.730317 
" clip-path="url(#p8027dff557)" style="fill: none; stroke-dasharray: 7.4,3.2; stroke-dashoffset: 0; stroke: #8b0a50; stroke-width: 2"/>
   </g>
   <g id="line2d_24">
    <path d="M 159.07166 379.18 
L 159.07166 27.6 
" clip-path="url(#p8027dff557)" style="fill: none; stroke-dasharray: 5.55,2.4; stroke-dashoffset: 0; stroke: #1a1a1a; stroke-width: 1.5"/>
   </g>
   <g id="line2d_25">
    <path d="M 435.017748 379.18 
L 435.017748 27.6 
" clip-path="url(#p8027dff557)" style="fill: none; stroke-dasharray: 5.55,2.4; stroke-dashoffset: 0; stroke: #1a1a1a; stroke-width: 1.5"/>
   </g>
   <g id="patch_3">
    <path d="M 85.67 379.18 
L 85.67 27.6 
" style="fill: none; stroke: #000000; stroke-width: 1.5; stroke-linejoin: miter; stroke-linecap: square"/>
   </g>
   <g id="patch_4">
    <path d="M 85.67 379.18 
L 607.76 379.18 
" style="fill: none; stroke: #000000; stroke-width: 1.5; stroke-linejoin: miter; stroke-linecap: square"/>
   </g>
   <g id="text_20">
    <!-- Divergence Comparison: Original vs Shuffled -->
    <g style="fill: #262626" transform="translate(197.2025 21.6) scale(0.15 -0.15)">
     <defs>
      <path id="ArialMT-43" d="M 3763 1606 
L 4369 1453 
Q 4178 706 3683 314 
Q 3188 -78 2472 -78 
Q 1731 -78 1267 223 
Q 803 525 561 1097 
Q 319 1669 319 2325 
Q 319 3041 592 3573 
Q 866 4106 1370 4382 
Q 1875 4659 2481 4659 
Q 3169 4659 3637 4309 
Q 4106 3959 4291 3325 
L 3694 3184 
Q 3534 3684 3231 3912 
Q 2928 4141 2469 4141 
Q 1941 4141 1586 3887 
Q 1231 3634 1087 3207 
Q 944 2781 944 2328 
Q 944 1744 1114 1308 
Q 1284 872 1643 656 
Q 2003 441 2422 441 
Q 2931 441 3284 734 
Q 3638 1028 3763 1606 
z
" transform="scale(0.015625)"/>
      <path id="ArialMT-6f" d="M 213 1659 
Q 213 2581 725 3025 
Q 1153 3394 1769 3394 
Q 2453 3394 2887 2945 
Q 3322 2497 3322 1706 
Q 3322 1066 3130 698 
Q 2938 331 2570 128 
Q 2203 -75 1769 -75 
Q 1072 -75 642 372 
Q 213 819 213 1659 
z
M 791 1659 
Q 791 1022 1069 705 
Q 1347 388 1769 388 
Q 2188 388 2466 706 
Q 2744 1025 2744 1678 
Q 2744 2294 2464 2611 
Q 2184 2928 1769 2928 
Q 1347 2928 1069 2612 
Q 791 2297 791 1659 
z
" transform="scale(0.015625)"/>
      <path id="ArialMT-70" d="M 422 -1272 
L 422 3319 
L 934 3319 
L 934 2888 
Q 1116 3141 1344 3267 
Q 1572 3394 1897 3394 
Q 2322 3394 2647 3175 
Q 2972 2956 3137 2557 
Q 3303 2159 3303 1684 
Q 3303 1175 3120 767 
Q 2938 359 2589 142 
Q 2241 -75 1856 -75 
Q 1575 -75 1351 44 
Q 1128 163 984 344 
L 984 -1272 
L 422 -1272 
z
M 931 1641 
Q 931 1000 1190 694 
Q 1450 388 1819 388 
Q 2194 388 2461 705 
Q 2728 1022 2728 1688 
Q 2728 2322 2467 2637 
Q 2206 2953 1844 2953 
Q 1484 2953 1207 2617 
Q 931 2281 931 1641 
z
" transform="scale(0.015625)"/>
      <path id="ArialMT-61" d="M 2588 409 
Q 2275 144 1986 34 
Q 1697 -75 1366 -75 
Q 819 -75 525 192 
Q 231 459 231 875 
Q 231 1119 342 1320 
Q 453 1522 633 1644 
Q 813 1766 1038 1828 
Q 1203 1872 1538 1913 
Q 2219 1994 2541 2106 
Q 2544 2222 2544 2253 
Q 2544 2597 2384 2738 
Q 2169 2928 1744 2928 
Q 1347 2928 1158 2789 
Q 969 2650 878 2297 
L 328 2372 
Q 403 2725 575 2942 
Q 747 3159 1072 3276 
Q 1397 3394 1825 3394 
Q 2250 3394 2515 3294 
Q 2781 3194 2906 3042 
Q 3031 2891 3081 2659 
Q 3109 2516 3109 2141 
L 3109 1391 
Q 3109 606 3145 398 
Q 3181 191 3288 0 
L 2700 0 
Q 2613 175 2588 409 
z
M 2541 1666 
Q 2234 1541 1622 1453 
Q 1275 1403 1131 1340 
Q 988 1278 909 1158 
Q 831 1038 831 891 
Q 831 666 1001 516 
Q 1172 366 1500 366 
Q 1825 366 2078 508 
Q 2331 650 2450 897 
Q 2541 1088 2541 1459 
L 2541 1666 
z
" transform="scale(0.015625)"/>
      <path id="ArialMT-3a" d="M 578 2678 
L 578 3319 
L 1219 3319 
L 1219 2678 
L 578 2678 
z
M 578 0 
L 578 641 
L 1219 641 
L 1219 0 
L 578 0 
z
" transform="scale(0.015625)"/>
      <path id="ArialMT-4f" d="M 309 2231 
Q 309 3372 921 4017 
Q 1534 4663 2503 4663 
Q 3138 4663 3647 4359 
Q 4156 4056 4423 3514 
Q 4691 2972 4691 2284 
Q 4691 1588 4409 1038 
Q 4128 488 3612 205 
Q 3097 -78 2500 -78 
Q 1853 -78 1343 234 
Q 834 547 571 1087 
Q 309 1628 309 2231 
z
M 934 2222 
Q 934 1394 1379 917 
Q 1825 441 2497 441 
Q 3181 441 3623 922 
Q 4066 1403 4066 2288 
Q 4066 2847 3877 3264 
Q 3688 3681 3323 3911 
Q 2959 4141 2506 4141 
Q 1863 4141 1398 3698 
Q 934 3256 934 2222 
z
" transform="scale(0.015625)"/>
      <path id="ArialMT-6c" d="M 409 0 
L 409 4581 
L 972 4581 
L 972 0 
L 409 0 
z
" transform="scale(0.015625)"/>
      <path id="ArialMT-53" d="M 288 1472 
L 859 1522 
Q 900 1178 1048 958 
Q 1197 738 1509 602 
Q 1822 466 2213 466 
Q 2559 466 2825 569 
Q 3091 672 3220 851 
Q 3350 1031 3350 1244 
Q 3350 1459 3225 1620 
Q 3100 1781 2813 1891 
Q 2628 1963 1997 2114 
Q 1366 2266 1113 2400 
Q 784 2572 623 2826 
Q 463 3081 463 3397 
Q 463 3744 659 4045 
Q 856 4347 1234 4503 
Q 1613 4659 2075 4659 
Q 2584 4659 2973 4495 
Q 3363 4331 3572 4012 
Q 3781 3694 3797 3291 
L 3216 3247 
Q 3169 3681 2898 3903 
Q 2628 4125 2100 4125 
Q 1550 4125 1298 3923 
Q 1047 3722 1047 3438 
Q 1047 3191 1225 3031 
Q 1400 2872 2139 2705 
Q 2878 2538 3153 2413 
Q 3553 2228 3743 1945 
Q 3934 1663 3934 1294 
Q 3934 928 3725 604 
Q 3516 281 3123 101 
Q 2731 -78 2241 -78 
Q 1619 -78 1198 103 
Q 778 284 539 648 
Q 300 1013 288 1472 
z
" transform="scale(0.015625)"/>
      <path id="ArialMT-68" d="M 422 0 
L 422 4581 
L 984 4581 
L 984 2938 
Q 1378 3394 1978 3394 
Q 2347 3394 2619 3248 
Q 2891 3103 3008 2847 
Q 3125 2591 3125 2103 
L 3125 0 
L 2563 0 
L 2563 2103 
Q 2563 2525 2380 2717 
Q 2197 2909 1863 2909 
Q 1613 2909 1392 2779 
Q 1172 2650 1078 2428 
Q 984 2206 984 1816 
L 984 0 
L 422 0 
z
" transform="scale(0.015625)"/>
      <path id="ArialMT-75" d="M 2597 0 
L 2597 488 
Q 2209 -75 1544 -75 
Q 1250 -75 995 37 
Q 741 150 617 320 
Q 494 491 444 738 
Q 409 903 409 1263 
L 409 3319 
L 972 3319 
L 972 1478 
Q 972 1038 1006 884 
Q 1059 663 1231 536 
Q 1403 409 1656 409 
Q 1909 409 2131 539 
Q 2353 669 2445 892 
Q 2538 1116 2538 1541 
L 2538 3319 
L 3100 3319 
L 3100 0 
L 2597 0 
z
" transform="scale(0.015625)"/>
      <path id="ArialMT-66" d="M 556 0 
L 556 2881 
L 59 2881 
L 59 3319 
L 556 3319 
L 556 3672 
Q 556 4006 616 4169 
Q 697 4388 901 4523 
Q 1106 4659 1475 4659 
Q 1713 4659 2000 4603 
L 1916 4113 
Q 1741 4144 1584 4144 
Q 1328 4144 1222 4034 
Q 1116 3925 1116 3625 
L 1116 3319 
L 1763 3319 
L 1763 2881 
L 1116 2881 
L 1116 0 
L 556 0 
z
" transform="scale(0.015625)"/>
      <path id="ArialMT-64" d="M 2575 0 
L 2575 419 
Q 2259 -75 1647 -75 
Q 1250 -75 917 144 
Q 584 363 401 755 
Q 219 1147 219 1656 
Q 219 2153 384 2558 
Q 550 2963 881 3178 
Q 1213 3394 1622 3394 
Q 1922 3394 2156 3267 
Q 2391 3141 2538 2938 
L 2538 4581 
L 3097 4581 
L 3097 0 
L 2575 0 
z
M 797 1656 
Q 797 1019 1065 703 
Q 1334 388 1700 388 
Q 2069 388 2326 689 
Q 2584 991 2584 1609 
Q 2584 2291 2321 2609 
Q 2059 2928 1675 2928 
Q 1300 2928 1048 2622 
Q 797 2316 797 1656 
z
" transform="scale(0.015625)"/>
     </defs>
     <use xlink:href="#ArialMT-44"/>
     <use xlink:href="#ArialMT-69" x="72.216797"/>
     <use xlink:href="#ArialMT-76" x="94.433594"/>
     <use xlink:href="#ArialMT-65" x="144.433594"/>
     <use xlink:href="#ArialMT-72" x="200.048828"/>
     <use xlink:href="#ArialMT-67" x="233.349609"/>
     <use xlink:href="#ArialMT-65" x="288.964844"/>
     <use xlink:href="#ArialMT-6e" x="344.580078"/>
     <use xlink:href="#ArialMT-63" x="400.195312"/>
     <use xlink:href="#ArialMT-65" x="450.195312"/>
     <use xlink:href="#ArialMT-20" x="505.810547"/>
     <use xlink:href="#ArialMT-43" x="533.59375"/>
     <use xlink:href="#ArialMT-6f" x="605.810547"/>
     <use xlink:href="#ArialMT-6d" x="661.425781"/>
     <use xlink:href="#ArialMT-70" x="744.726562"/>
     <use xlink:href="#ArialMT-61" x="800.341797"/>
     <use xlink:href="#ArialMT-72" x="855.957031"/>
     <use xlink:href="#ArialMT-69" x="889.257812"/>
     <use xlink:href="#ArialMT-73" x="911.474609"/>
     <use xlink:href="#ArialMT-6f" x="961.474609"/>
     <use xlink:href="#ArialMT-6e" x="1017.089844"/>
     <use xlink:href="#ArialMT-3a" x="1072.705078"/>
     <use xlink:href="#ArialMT-20" x="1100.488281"/>
     <use xlink:href="#ArialMT-4f" x="1128.271484"/>
     <use xlink:href="#ArialMT-72" x="1206.054688"/>
     <use xlink:href="#ArialMT-69" x="1239.355469"/>
     <use xlink:href="#ArialMT-67" x="1261.572266"/>
     <use xlink:href="#ArialMT-69" x="1317.1875"/>
     <use xlink:href="#ArialMT-6e" x="1339.404297"/>
     <use xlink:href="#ArialMT-61" x="1395.019531"/>
     <use xlink:href="#ArialMT-6c" x="1450.634766"/>
     <use xlink:href="#ArialMT-20" x="1472.851562"/>
     <use xlink:href="#ArialMT-76" x="1500.634766"/>
     <use xlink:href="#ArialMT-73" x="1550.634766"/>
     <use xlink:href="#ArialMT-20" x="1600.634766"/>
     <use xlink:href="#ArialMT-53" x="1628.417969"/>
     <use xlink:href="#ArialMT-68" x="1695.117188"/>
     <use xlink:href="#ArialMT-75" x="1750.732422"/>
     <use xlink:href="#ArialMT-66" x="1806.347656"/>
     <use xlink:href="#ArialMT-66" x="1832.380859"/>
     <use xlink:href="#ArialMT-6c" x="1860.164062"/>
     <use xlink:href="#ArialMT-65" x="1882.380859"/>
     <use xlink:href="#ArialMT-64" x="1937.996094"/>
    </g>
   </g>
   <g id="legend_1">
    <g id="patch_5">
     <path d="M 615.46 260.055469 
L 705.061875 260.055469 
Q 707.261875 260.055469 707.261875 257.855469 
L 707.261875 148.924531 
Q 707.261875 146.724531 705.061875 146.724531 
L 615.46 146.724531 
Q 613.26 146.724531 613.26 148.924531 
L 613.26 257.855469 
Q 613.26 260.055469 615.46 260.055469 
z
" style="fill: #ffffff; opacity: 0.8; stroke: #cccccc; stroke-linejoin: miter"/>
    </g>
    <g id="line2d_26">
     <path d="M 617.66 155.289062 
L 628.66 155.289062 
L 639.66 155.289062 
" style="fill: none; stroke: #eb6ab0; stroke-width: 2; stroke-linecap: round"/>
    </g>
    <g id="text_21">
     <!-- Original -->
     <g style="fill: #262626" transform="translate(648.46 159.139062) scale(0.11 -0.11)">
      <use xlink:href="#ArialMT-4f"/>
      <use xlink:href="#ArialMT-72" x="77.783203"/>
      <use xlink:href="#ArialMT-69" x="111.083984"/>
      <use xlink:href="#ArialMT-67" x="133.300781"/>
      <use xlink:href="#ArialMT-69" x="188.916016"/>
      <use xlink:href="#ArialMT-6e" x="211.132812"/>
      <use xlink:href="#ArialMT-61" x="266.748047"/>
      <use xlink:href="#ArialMT-6c" x="322.363281"/>
     </g>
    </g>
    <g id="line2d_27">
     <path d="M 617.66 171.11875 
L 628.66 171.11875 
L 639.66 171.11875 
" style="fill: none; stroke-dasharray: 7.4,3.2; stroke-dashoffset: 0; stroke: #eb6ab0; stroke-width: 2"/>
    </g>
    <g id="text_22">
     <!-- Original -->
     <g style="fill: #262626" transform="translate(648.46 174.96875) scale(0.11 -0.11)">
      <use xlink:href="#ArialMT-4f"/>
      <use xlink:href="#ArialMT-72" x="77.783203"/>
      <use xlink:href="#ArialMT-69" x="111.083984"/>
      <use xlink:href="#ArialMT-67" x="133.300781"/>
      <use xlink:href="#ArialMT-69" x="188.916016"/>
      <use xlink:href="#ArialMT-6e" x="211.132812"/>
      <use xlink:href="#ArialMT-61" x="266.748047"/>
      <use xlink:href="#ArialMT-6c" x="322.363281"/>
     </g>
    </g>
    <g id="PathCollection_3">
     <g>
      <use xlink:href="#m1cd722790b" x="628.66" y="187.802656" style="fill: #eb6ab0; stroke: #eb6ab0"/>
     </g>
    </g>
    <g id="text_23">
     <!-- p &lt; 0.001 -->
     <g style="fill: #262626" transform="translate(648.46 190.690156) scale(0.11 -0.11)">
      <defs>
       <path id="ArialMT-3c" d="M 350 2003 
L 350 2528 
L 3384 3809 
L 3384 3250 
L 978 2263 
L 3384 1266 
L 3384 706 
L 350 2003 
z
" transform="scale(0.015625)"/>
      </defs>
      <use xlink:href="#ArialMT-70"/>
      <use xlink:href="#ArialMT-20" x="55.615234"/>
      <use xlink:href="#ArialMT-3c" x="83.398438"/>
      <use xlink:href="#ArialMT-20" x="141.796875"/>
      <use xlink:href="#ArialMT-30" x="169.580078"/>
      <use xlink:href="#ArialMT-2e" x="225.195312"/>
      <use xlink:href="#ArialMT-30" x="252.978516"/>
      <use xlink:href="#ArialMT-30" x="308.59375"/>
      <use xlink:href="#ArialMT-31" x="364.208984"/>
     </g>
    </g>
    <g id="line2d_28">
     <path d="M 617.66 202.4 
L 628.66 202.4 
L 639.66 202.4 
" style="fill: none; stroke-dasharray: 5.55,2.4; stroke-dashoffset: 0; stroke: #1a1a1a; stroke-width: 1.5"/>
    </g>
    <g id="text_24">
     <!-- Stim Onset -->
     <g style="fill: #262626" transform="translate(648.46 206.25) scale(0.11 -0.11)">
      <defs>
       <path id="ArialMT-74" d="M 1650 503 
L 1731 6 
Q 1494 -44 1306 -44 
Q 1000 -44 831 53 
Q 663 150 594 308 
Q 525 466 525 972 
L 525 2881 
L 113 2881 
L 113 3319 
L 525 3319 
L 525 4141 
L 1084 4478 
L 1084 3319 
L 1650 3319 
L 1650 2881 
L 1084 2881 
L 1084 941 
Q 1084 700 1114 631 
Q 1144 563 1211 522 
Q 1278 481 1403 481 
Q 1497 481 1650 503 
z
" transform="scale(0.015625)"/>
      </defs>
      <use xlink:href="#ArialMT-53"/>
      <use xlink:href="#ArialMT-74" x="66.699219"/>
      <use xlink:href="#ArialMT-69" x="94.482422"/>
      <use xlink:href="#ArialMT-6d" x="116.699219"/>
      <use xlink:href="#ArialMT-20" x="200"/>
      <use xlink:href="#ArialMT-4f" x="227.783203"/>
      <use xlink:href="#ArialMT-6e" x="305.566406"/>
      <use xlink:href="#ArialMT-73" x="361.181641"/>
      <use xlink:href="#ArialMT-65" x="411.181641"/>
      <use xlink:href="#ArialMT-74" x="466.796875"/>
     </g>
    </g>
    <g id="line2d_29">
     <path d="M 617.66 217.959844 
L 628.66 217.959844 
L 639.66 217.959844 
" style="fill: none; stroke-dasharray: 5.55,2.4; stroke-dashoffset: 0; stroke: #1a1a1a; stroke-width: 1.5"/>
    </g>
    <g id="text_25">
     <!-- Stim End -->
     <g style="fill: #262626" transform="translate(648.46 221.809844) scale(0.11 -0.11)">
      <defs>
       <path id="ArialMT-45" d="M 506 0 
L 506 4581 
L 3819 4581 
L 3819 4041 
L 1113 4041 
L 1113 2638 
L 3647 2638 
L 3647 2100 
L 1113 2100 
L 1113 541 
L 3925 541 
L 3925 0 
L 506 0 
z
" transform="scale(0.015625)"/>
      </defs>
      <use xlink:href="#ArialMT-53"/>
      <use xlink:href="#ArialMT-74" x="66.699219"/>
      <use xlink:href="#ArialMT-69" x="94.482422"/>
      <use xlink:href="#ArialMT-6d" x="116.699219"/>
      <use xlink:href="#ArialMT-20" x="200"/>
      <use xlink:href="#ArialMT-45" x="227.783203"/>
      <use xlink:href="#ArialMT-6e" x="294.482422"/>
      <use xlink:href="#ArialMT-64" x="350.097656"/>
     </g>
    </g>
    <g id="line2d_30">
     <path d="M 617.66 233.660625 
L 628.66 233.660625 
L 639.66 233.660625 
" style="fill: none; stroke: #8b0a50; stroke-width: 2; stroke-linecap: round"/>
    </g>
    <g id="text_26">
     <!-- Original -->
     <g style="fill: #262626" transform="translate(648.46 237.510625) scale(0.11 -0.11)">
      <use xlink:href="#ArialMT-4f"/>
      <use xlink:href="#ArialMT-72" x="77.783203"/>
      <use xlink:href="#ArialMT-69" x="111.083984"/>
      <use xlink:href="#ArialMT-67" x="133.300781"/>
      <use xlink:href="#ArialMT-69" x="188.916016"/>
      <use xlink:href="#ArialMT-6e" x="211.132812"/>
      <use xlink:href="#ArialMT-61" x="266.748047"/>
      <use xlink:href="#ArialMT-6c" x="322.363281"/>
     </g>
    </g>
    <g id="line2d_31">
     <path d="M 617.66 249.490312 
L 628.66 249.490312 
L 639.66 249.490312 
" style="fill: none; stroke-dasharray: 7.4,3.2; stroke-dashoffset: 0; stroke: #8b0a50; stroke-width: 2"/>
    </g>
    <g id="text_27">
     <!-- Original -->
     <g style="fill: #262626" transform="translate(648.46 253.340312) scale(0.11 -0.11)">
      <use xlink:href="#ArialMT-4f"/>
      <use xlink:href="#ArialMT-72" x="77.783203"/>
      <use xlink:href="#ArialMT-69" x="111.083984"/>
      <use xlink:href="#ArialMT-67" x="133.300781"/>
      <use xlink:href="#ArialMT-69" x="188.916016"/>
      <use xlink:href="#ArialMT-6e" x="211.132812"/>
      <use xlink:href="#ArialMT-61" x="266.748047"/>
      <use xlink:href="#ArialMT-6c" x="322.363281"/>
     </g>
    </g>
   </g>
  </g>
 </g>
 <defs>
  <clipPath id="p8027dff557">
   <rect x="85.67" y="27.6" width="522.09" height="351.58"/>
  </clipPath>
 </defs>
</svg>
