<?xml version="1.0" encoding="utf-8" standalone="no"?>
<!DOCTYPE svg PUBLIC "-//W3C//DTD SVG 1.1//EN"
  "http://www.w3.org/Graphics/SVG/1.1/DTD/svg11.dtd">
<svg xmlns:xlink="http://www.w3.org/1999/xlink" width="720pt" height="432pt" viewBox="0 0 720 432" xmlns="http://www.w3.org/2000/svg" version="1.1">
 <metadata>
  <rdf:RDF xmlns:dc="http://purl.org/dc/elements/1.1/" xmlns:cc="http://creativecommons.org/ns#" xmlns:rdf="http://www.w3.org/1999/02/22-rdf-syntax-ns#">
   <cc:Work>
    <dc:type rdf:resource="http://purl.org/dc/dcmitype/StillImage"/>
    <dc:date>2025-10-26T21:00:34.010036</dc:date>
    <dc:format>image/svg+xml</dc:format>
    <dc:creator>
     <cc:Agent>
      <dc:title>Matplotlib v3.9.4, https://matplotlib.org/</dc:title>
     </cc:Agent>
    </dc:creator>
   </cc:Work>
  </rdf:RDF>
 </metadata>
 <defs>
  <style type="text/css">*{stroke-linejoin: round; stroke-linecap: butt}</style>
 </defs>
 <g id="figure_1">
  <g id="patch_1">
   <path d="M 0 432 
L 720 432 
L 720 0 
L 0 0 
z
" style="fill: #ffffff"/>
  </g>
  <g id="axes_1">
   <g id="patch_2">
    <path d="M 85.71 378.54 
L 607.44 378.54 
L 607.44 26.96 
L 85.71 26.96 
L 85.71 378.54 
z
" style="fill: none"/>
   </g>
   <g id="matplotlib.axis_1">
    <g id="xtick_1">
     <g id="line2d_1">
      <defs>
       <path id="m898b91a5a6" d="M 0 0 
L 0 5 
" style="stroke: #262626; stroke-width: 1.5"/>
      </defs>
      <g>
       <use xlink:href="#m898b91a5a6" x="95.637209" y="378.54" style="fill: #262626; stroke: #262626; stroke-width: 1.5"/>
      </g>
     </g>
     <g id="text_1">
      <!-- −250 -->
      <g style="fill: #262626" transform="translate(78.744631 397.776719) scale(0.15 -0.15)">
       <defs>
        <path id="ArialMT-2212" d="M 3381 1997 
L 356 1997 
L 356 2522 
L 3381 2522 
L 3381 1997 
z
" transform="scale(0.015625)"/>
        <path id="ArialMT-32" d="M 3222 541 
L 3222 0 
L 194 0 
Q 188 203 259 391 
Q 375 700 629 1000 
Q 884 1300 1366 1694 
Q 2113 2306 2375 2664 
Q 2638 3022 2638 3341 
Q 2638 3675 2398 3904 
Q 2159 4134 1775 4134 
Q 1369 4134 1125 3890 
Q 881 3647 878 3216 
L 300 3275 
Q 359 3922 746 4261 
Q 1134 4600 1788 4600 
Q 2447 4600 2831 4234 
Q 3216 3869 3216 3328 
Q 3216 3053 3103 2787 
Q 2991 2522 2730 2228 
Q 2469 1934 1863 1422 
Q 1356 997 1212 845 
Q 1069 694 975 541 
L 3222 541 
z
" transform="scale(0.015625)"/>
        <path id="ArialMT-35" d="M 266 1200 
L 856 1250 
Q 922 819 1161 601 
Q 1400 384 1738 384 
Q 2144 384 2425 690 
Q 2706 997 2706 1503 
Q 2706 1984 2436 2262 
Q 2166 2541 1728 2541 
Q 1456 2541 1237 2417 
Q 1019 2294 894 2097 
L 366 2166 
L 809 4519 
L 3088 4519 
L 3088 3981 
L 1259 3981 
L 1013 2750 
Q 1425 3038 1878 3038 
Q 2478 3038 2890 2622 
Q 3303 2206 3303 1553 
Q 3303 931 2941 478 
Q 2500 -78 1738 -78 
Q 1113 -78 717 272 
Q 322 622 266 1200 
z
" transform="scale(0.015625)"/>
        <path id="ArialMT-30" d="M 266 2259 
Q 266 3072 433 3567 
Q 600 4063 929 4331 
Q 1259 4600 1759 4600 
Q 2128 4600 2406 4451 
Q 2684 4303 2865 4023 
Q 3047 3744 3150 3342 
Q 3253 2941 3253 2259 
Q 3253 1453 3087 958 
Q 2922 463 2592 192 
Q 2263 -78 1759 -78 
Q 1097 -78 719 397 
Q 266 969 266 2259 
z
M 844 2259 
Q 844 1131 1108 757 
Q 1372 384 1759 384 
Q 2147 384 2411 759 
Q 2675 1134 2675 2259 
Q 2675 3391 2411 3762 
Q 2147 4134 1753 4134 
Q 1366 4134 1134 3806 
Q 844 3388 844 2259 
z
" transform="scale(0.015625)"/>
       </defs>
       <use xlink:href="#ArialMT-2212"/>
       <use xlink:href="#ArialMT-32" x="58.398438"/>
       <use xlink:href="#ArialMT-35" x="114.013672"/>
       <use xlink:href="#ArialMT-30" x="169.628906"/>
      </g>
     </g>
    </g>
    <g id="xtick_2">
     <g id="line2d_2">
      <g>
       <use xlink:href="#m898b91a5a6" x="164.576163" y="378.54" style="fill: #262626; stroke: #262626; stroke-width: 1.5"/>
      </g>
     </g>
     <g id="text_2">
      <!-- 0 -->
      <g style="fill: #262626" transform="translate(160.40546 397.776719) scale(0.15 -0.15)">
       <use xlink:href="#ArialMT-30"/>
      </g>
     </g>
    </g>
    <g id="xtick_3">
     <g id="line2d_3">
      <g>
       <use xlink:href="#m898b91a5a6" x="233.515116" y="378.54" style="fill: #262626; stroke: #262626; stroke-width: 1.5"/>
      </g>
     </g>
     <g id="text_3">
      <!-- 250 -->
      <g style="fill: #262626" transform="translate(221.003007 397.776719) scale(0.15 -0.15)">
       <use xlink:href="#ArialMT-32"/>
       <use xlink:href="#ArialMT-35" x="55.615234"/>
       <use xlink:href="#ArialMT-30" x="111.230469"/>
      </g>
     </g>
    </g>
    <g id="xtick_4">
     <g id="line2d_4">
      <g>
       <use xlink:href="#m898b91a5a6" x="302.45407" y="378.54" style="fill: #262626; stroke: #262626; stroke-width: 1.5"/>
      </g>
     </g>
     <g id="text_4">
      <!-- 500 -->
      <g style="fill: #262626" transform="translate(289.94196 397.776719) scale(0.15 -0.15)">
       <use xlink:href="#ArialMT-35"/>
       <use xlink:href="#ArialMT-30" x="55.615234"/>
       <use xlink:href="#ArialMT-30" x="111.230469"/>
      </g>
     </g>
    </g>
    <g id="xtick_5">
     <g id="line2d_5">
      <g>
       <use xlink:href="#m898b91a5a6" x="371.393023" y="378.54" style="fill: #262626; stroke: #262626; stroke-width: 1.5"/>
      </g>
     </g>
     <g id="text_5">
      <!-- 750 -->
      <g style="fill: #262626" transform="translate(358.880914 397.776719) scale(0.15 -0.15)">
       <defs>
        <path id="ArialMT-37" d="M 303 3981 
L 303 4522 
L 3269 4522 
L 3269 4084 
Q 2831 3619 2401 2847 
Q 1972 2075 1738 1259 
Q 1569 684 1522 0 
L 944 0 
Q 953 541 1156 1306 
Q 1359 2072 1739 2783 
Q 2119 3494 2547 3981 
L 303 3981 
z
" transform="scale(0.015625)"/>
       </defs>
       <use xlink:href="#ArialMT-37"/>
       <use xlink:href="#ArialMT-35" x="55.615234"/>
       <use xlink:href="#ArialMT-30" x="111.230469"/>
      </g>
     </g>
    </g>
    <g id="xtick_6">
     <g id="line2d_6">
      <g>
       <use xlink:href="#m898b91a5a6" x="440.331977" y="378.54" style="fill: #262626; stroke: #262626; stroke-width: 1.5"/>
      </g>
     </g>
     <g id="text_6">
      <!-- 1000 -->
      <g style="fill: #262626" transform="translate(423.649164 397.776719) scale(0.15 -0.15)">
       <defs>
        <path id="ArialMT-31" d="M 2384 0 
L 1822 0 
L 1822 3584 
Q 1619 3391 1289 3197 
Q 959 3003 697 2906 
L 697 3450 
Q 1169 3672 1522 3987 
Q 1875 4303 2022 4600 
L 2384 4600 
L 2384 0 
z
" transform="scale(0.015625)"/>
       </defs>
       <use xlink:href="#ArialMT-31"/>
       <use xlink:href="#ArialMT-30" x="55.615234"/>
       <use xlink:href="#ArialMT-30" x="111.230469"/>
       <use xlink:href="#ArialMT-30" x="166.845703"/>
      </g>
     </g>
    </g>
    <g id="xtick_7">
     <g id="line2d_7">
      <g>
       <use xlink:href="#m898b91a5a6" x="509.27093" y="378.54" style="fill: #262626; stroke: #262626; stroke-width: 1.5"/>
      </g>
     </g>
     <g id="text_7">
      <!-- 1250 -->
      <g style="fill: #262626" transform="translate(492.588118 397.776719) scale(0.15 -0.15)">
       <use xlink:href="#ArialMT-31"/>
       <use xlink:href="#ArialMT-32" x="55.615234"/>
       <use xlink:href="#ArialMT-35" x="111.230469"/>
       <use xlink:href="#ArialMT-30" x="166.845703"/>
      </g>
     </g>
    </g>
    <g id="xtick_8">
     <g id="line2d_8">
      <g>
       <use xlink:href="#m898b91a5a6" x="578.209884" y="378.54" style="fill: #262626; stroke: #262626; stroke-width: 1.5"/>
      </g>
     </g>
     <g id="text_8">
      <!-- 1500 -->
      <g style="fill: #262626" transform="translate(561.527071 397.776719) scale(0.15 -0.15)">
       <use xlink:href="#ArialMT-31"/>
       <use xlink:href="#ArialMT-35" x="55.615234"/>
       <use xlink:href="#ArialMT-30" x="111.230469"/>
       <use xlink:href="#ArialMT-30" x="166.845703"/>
      </g>
     </g>
    </g>
    <g id="text_9">
     <!-- Time (s) -->
     <g style="fill: #262626" transform="translate(319.362891 415.6775) scale(0.15 -0.15)">
      <defs>
       <path id="ArialMT-54" d="M 1659 0 
L 1659 4041 
L 150 4041 
L 150 4581 
L 3781 4581 
L 3781 4041 
L 2266 4041 
L 2266 0 
L 1659 0 
z
" transform="scale(0.015625)"/>
       <path id="ArialMT-69" d="M 425 3934 
L 425 4581 
L 988 4581 
L 988 3934 
L 425 3934 
z
M 425 0 
L 425 3319 
L 988 3319 
L 988 0 
L 425 0 
z
" transform="scale(0.015625)"/>
       <path id="ArialMT-6d" d="M 422 0 
L 422 3319 
L 925 3319 
L 925 2853 
Q 1081 3097 1340 3245 
Q 1600 3394 1931 3394 
Q 2300 3394 2536 3241 
Q 2772 3088 2869 2813 
Q 3263 3394 3894 3394 
Q 4388 3394 4653 3120 
Q 4919 2847 4919 2278 
L 4919 0 
L 4359 0 
L 4359 2091 
Q 4359 2428 4304 2576 
Q 4250 2725 4106 2815 
Q 3963 2906 3769 2906 
Q 3419 2906 3187 2673 
Q 2956 2441 2956 1928 
L 2956 0 
L 2394 0 
L 2394 2156 
Q 2394 2531 2256 2718 
Q 2119 2906 1806 2906 
Q 1569 2906 1367 2781 
Q 1166 2656 1075 2415 
Q 984 2175 984 1722 
L 984 0 
L 422 0 
z
" transform="scale(0.015625)"/>
       <path id="ArialMT-65" d="M 2694 1069 
L 3275 997 
Q 3138 488 2766 206 
Q 2394 -75 1816 -75 
Q 1088 -75 661 373 
Q 234 822 234 1631 
Q 234 2469 665 2931 
Q 1097 3394 1784 3394 
Q 2450 3394 2872 2941 
Q 3294 2488 3294 1666 
Q 3294 1616 3291 1516 
L 816 1516 
Q 847 969 1125 678 
Q 1403 388 1819 388 
Q 2128 388 2347 550 
Q 2566 713 2694 1069 
z
M 847 1978 
L 2700 1978 
Q 2663 2397 2488 2606 
Q 2219 2931 1791 2931 
Q 1403 2931 1139 2672 
Q 875 2413 847 1978 
z
" transform="scale(0.015625)"/>
       <path id="ArialMT-20" transform="scale(0.015625)"/>
       <path id="ArialMT-28" d="M 1497 -1347 
Q 1031 -759 709 28 
Q 388 816 388 1659 
Q 388 2403 628 3084 
Q 909 3875 1497 4659 
L 1900 4659 
Q 1522 4009 1400 3731 
Q 1209 3300 1100 2831 
Q 966 2247 966 1656 
Q 966 153 1900 -1347 
L 1497 -1347 
z
" transform="scale(0.015625)"/>
       <path id="ArialMT-73" d="M 197 991 
L 753 1078 
Q 800 744 1014 566 
Q 1228 388 1613 388 
Q 2000 388 2187 545 
Q 2375 703 2375 916 
Q 2375 1106 2209 1216 
Q 2094 1291 1634 1406 
Q 1016 1563 777 1677 
Q 538 1791 414 1992 
Q 291 2194 291 2438 
Q 291 2659 392 2848 
Q 494 3038 669 3163 
Q 800 3259 1026 3326 
Q 1253 3394 1513 3394 
Q 1903 3394 2198 3281 
Q 2494 3169 2634 2976 
Q 2775 2784 2828 2463 
L 2278 2388 
Q 2241 2644 2061 2787 
Q 1881 2931 1553 2931 
Q 1166 2931 1000 2803 
Q 834 2675 834 2503 
Q 834 2394 903 2306 
Q 972 2216 1119 2156 
Q 1203 2125 1616 2013 
Q 2213 1853 2448 1751 
Q 2684 1650 2818 1456 
Q 2953 1263 2953 975 
Q 2953 694 2789 445 
Q 2625 197 2315 61 
Q 2006 -75 1616 -75 
Q 969 -75 630 194 
Q 291 463 197 991 
z
" transform="scale(0.015625)"/>
       <path id="ArialMT-29" d="M 791 -1347 
L 388 -1347 
Q 1322 153 1322 1656 
Q 1322 2244 1188 2822 
Q 1081 3291 891 3722 
Q 769 4003 388 4659 
L 791 4659 
Q 1378 3875 1659 3084 
Q 1900 2403 1900 1659 
Q 1900 816 1576 28 
Q 1253 -759 791 -1347 
z
" transform="scale(0.015625)"/>
      </defs>
      <use xlink:href="#ArialMT-54"/>
      <use xlink:href="#ArialMT-69" x="57.333984"/>
      <use xlink:href="#ArialMT-6d" x="79.550781"/>
      <use xlink:href="#ArialMT-65" x="162.851562"/>
      <use xlink:href="#ArialMT-20" x="218.466797"/>
      <use xlink:href="#ArialMT-28" x="246.25"/>
      <use xlink:href="#ArialMT-73" x="279.550781"/>
      <use xlink:href="#ArialMT-29" x="329.550781"/>
     </g>
    </g>
   </g>
   <g id="matplotlib.axis_2">
    <g id="ytick_1">
     <g id="line2d_9">
      <defs>
       <path id="maf68c15bd0" d="M 0 0 
L -5 0 
" style="stroke: #262626; stroke-width: 1.5"/>
      </defs>
      <g>
       <use xlink:href="#maf68c15bd0" x="85.71" y="366.93819" style="fill: #262626; stroke: #262626; stroke-width: 1.5"/>
      </g>
     </g>
     <g id="text_10">
      <!-- −0.025 -->
      <g style="fill: #262626" transform="translate(30.91625 372.306549) scale(0.15 -0.15)">
       <defs>
        <path id="ArialMT-2e" d="M 581 0 
L 581 641 
L 1222 641 
L 1222 0 
L 581 0 
z
" transform="scale(0.015625)"/>
       </defs>
       <use xlink:href="#ArialMT-2212"/>
       <use xlink:href="#ArialMT-30" x="58.398438"/>
       <use xlink:href="#ArialMT-2e" x="114.013672"/>
       <use xlink:href="#ArialMT-30" x="141.796875"/>
       <use xlink:href="#ArialMT-32" x="197.412109"/>
       <use xlink:href="#ArialMT-35" x="253.027344"/>
      </g>
     </g>
    </g>
    <g id="ytick_2">
     <g id="line2d_10">
      <g>
       <use xlink:href="#maf68c15bd0" x="85.71" y="321.895463" style="fill: #262626; stroke: #262626; stroke-width: 1.5"/>
      </g>
     </g>
     <g id="text_11">
      <!-- 0.000 -->
      <g style="fill: #262626" transform="translate(39.677188 327.263822) scale(0.15 -0.15)">
       <use xlink:href="#ArialMT-30"/>
       <use xlink:href="#ArialMT-2e" x="55.615234"/>
       <use xlink:href="#ArialMT-30" x="83.398438"/>
       <use xlink:href="#ArialMT-30" x="139.013672"/>
       <use xlink:href="#ArialMT-30" x="194.628906"/>
      </g>
     </g>
    </g>
    <g id="ytick_3">
     <g id="line2d_11">
      <g>
       <use xlink:href="#maf68c15bd0" x="85.71" y="276.852736" style="fill: #262626; stroke: #262626; stroke-width: 1.5"/>
      </g>
     </g>
     <g id="text_12">
      <!-- 0.025 -->
      <g style="fill: #262626" transform="translate(39.677188 282.221095) scale(0.15 -0.15)">
       <use xlink:href="#ArialMT-30"/>
       <use xlink:href="#ArialMT-2e" x="55.615234"/>
       <use xlink:href="#ArialMT-30" x="83.398438"/>
       <use xlink:href="#ArialMT-32" x="139.013672"/>
       <use xlink:href="#ArialMT-35" x="194.628906"/>
      </g>
     </g>
    </g>
    <g id="ytick_4">
     <g id="line2d_12">
      <g>
       <use xlink:href="#maf68c15bd0" x="85.71" y="231.810008" style="fill: #262626; stroke: #262626; stroke-width: 1.5"/>
      </g>
     </g>
     <g id="text_13">
      <!-- 0.050 -->
      <g style="fill: #262626" transform="translate(39.677188 237.178368) scale(0.15 -0.15)">
       <use xlink:href="#ArialMT-30"/>
       <use xlink:href="#ArialMT-2e" x="55.615234"/>
       <use xlink:href="#ArialMT-30" x="83.398438"/>
       <use xlink:href="#ArialMT-35" x="139.013672"/>
       <use xlink:href="#ArialMT-30" x="194.628906"/>
      </g>
     </g>
    </g>
    <g id="ytick_5">
     <g id="line2d_13">
      <g>
       <use xlink:href="#maf68c15bd0" x="85.71" y="186.767281" style="fill: #262626; stroke: #262626; stroke-width: 1.5"/>
      </g>
     </g>
     <g id="text_14">
      <!-- 0.075 -->
      <g style="fill: #262626" transform="translate(39.677188 192.135641) scale(0.15 -0.15)">
       <use xlink:href="#ArialMT-30"/>
       <use xlink:href="#ArialMT-2e" x="55.615234"/>
       <use xlink:href="#ArialMT-30" x="83.398438"/>
       <use xlink:href="#ArialMT-37" x="139.013672"/>
       <use xlink:href="#ArialMT-35" x="194.628906"/>
      </g>
     </g>
    </g>
    <g id="ytick_6">
     <g id="line2d_14">
      <g>
       <use xlink:href="#maf68c15bd0" x="85.71" y="141.724554" style="fill: #262626; stroke: #262626; stroke-width: 1.5"/>
      </g>
     </g>
     <g id="text_15">
      <!-- 0.100 -->
      <g style="fill: #262626" transform="translate(39.677188 147.092913) scale(0.15 -0.15)">
       <use xlink:href="#ArialMT-30"/>
       <use xlink:href="#ArialMT-2e" x="55.615234"/>
       <use xlink:href="#ArialMT-31" x="83.398438"/>
       <use xlink:href="#ArialMT-30" x="139.013672"/>
       <use xlink:href="#ArialMT-30" x="194.628906"/>
      </g>
     </g>
    </g>
    <g id="ytick_7">
     <g id="line2d_15">
      <g>
       <use xlink:href="#maf68c15bd0" x="85.71" y="96.681827" style="fill: #262626; stroke: #262626; stroke-width: 1.5"/>
      </g>
     </g>
     <g id="text_16">
      <!-- 0.125 -->
      <g style="fill: #262626" transform="translate(39.677188 102.050186) scale(0.15 -0.15)">
       <use xlink:href="#ArialMT-30"/>
       <use xlink:href="#ArialMT-2e" x="55.615234"/>
       <use xlink:href="#ArialMT-31" x="83.398438"/>
       <use xlink:href="#ArialMT-32" x="139.013672"/>
       <use xlink:href="#ArialMT-35" x="194.628906"/>
      </g>
     </g>
    </g>
    <g id="ytick_8">
     <g id="line2d_16">
      <g>
       <use xlink:href="#maf68c15bd0" x="85.71" y="51.6391" style="fill: #262626; stroke: #262626; stroke-width: 1.5"/>
      </g>
     </g>
     <g id="text_17">
      <!-- 0.150 -->
      <g style="fill: #262626" transform="translate(39.677188 57.007459) scale(0.15 -0.15)">
       <use xlink:href="#ArialMT-30"/>
       <use xlink:href="#ArialMT-2e" x="55.615234"/>
       <use xlink:href="#ArialMT-31" x="83.398438"/>
       <use xlink:href="#ArialMT-35" x="139.013672"/>
       <use xlink:href="#ArialMT-30" x="194.628906"/>
      </g>
     </g>
    </g>
    <g id="text_18">
     <!-- Divergence -->
     <g style="fill: #262626" transform="translate(23.759219 240.683594) rotate(-90) scale(0.15 -0.15)">
      <defs>
       <path id="ArialMT-44" d="M 494 0 
L 494 4581 
L 2072 4581 
Q 2606 4581 2888 4516 
Q 3281 4425 3559 4188 
Q 3922 3881 4101 3404 
Q 4281 2928 4281 2316 
Q 4281 1794 4159 1391 
Q 4038 988 3847 723 
Q 3656 459 3429 307 
Q 3203 156 2883 78 
Q 2563 0 2147 0 
L 494 0 
z
M 1100 541 
L 2078 541 
Q 2531 541 2789 625 
Q 3047 709 3200 863 
Q 3416 1078 3536 1442 
Q 3656 1806 3656 2325 
Q 3656 3044 3420 3430 
Q 3184 3816 2847 3947 
Q 2603 4041 2063 4041 
L 1100 4041 
L 1100 541 
z
" transform="scale(0.015625)"/>
       <path id="ArialMT-76" d="M 1344 0 
L 81 3319 
L 675 3319 
L 1388 1331 
Q 1503 1009 1600 663 
Q 1675 925 1809 1294 
L 2547 3319 
L 3125 3319 
L 1869 0 
L 1344 0 
z
" transform="scale(0.015625)"/>
       <path id="ArialMT-72" d="M 416 0 
L 416 3319 
L 922 3319 
L 922 2816 
Q 1116 3169 1280 3281 
Q 1444 3394 1641 3394 
Q 1925 3394 2219 3213 
L 2025 2691 
Q 1819 2813 1613 2813 
Q 1428 2813 1281 2702 
Q 1134 2591 1072 2394 
Q 978 2094 978 1738 
L 978 0 
L 416 0 
z
" transform="scale(0.015625)"/>
       <path id="ArialMT-67" d="M 319 -275 
L 866 -356 
Q 900 -609 1056 -725 
Q 1266 -881 1628 -881 
Q 2019 -881 2231 -725 
Q 2444 -569 2519 -288 
Q 2563 -116 2559 434 
Q 2191 0 1641 0 
Q 956 0 581 494 
Q 206 988 206 1678 
Q 206 2153 378 2554 
Q 550 2956 876 3175 
Q 1203 3394 1644 3394 
Q 2231 3394 2613 2919 
L 2613 3319 
L 3131 3319 
L 3131 450 
Q 3131 -325 2973 -648 
Q 2816 -972 2473 -1159 
Q 2131 -1347 1631 -1347 
Q 1038 -1347 672 -1080 
Q 306 -813 319 -275 
z
M 784 1719 
Q 784 1066 1043 766 
Q 1303 466 1694 466 
Q 2081 466 2343 764 
Q 2606 1063 2606 1700 
Q 2606 2309 2336 2618 
Q 2066 2928 1684 2928 
Q 1309 2928 1046 2623 
Q 784 2319 784 1719 
z
" transform="scale(0.015625)"/>
       <path id="ArialMT-6e" d="M 422 0 
L 422 3319 
L 928 3319 
L 928 2847 
Q 1294 3394 1984 3394 
Q 2284 3394 2536 3286 
Q 2788 3178 2913 3003 
Q 3038 2828 3088 2588 
Q 3119 2431 3119 2041 
L 3119 0 
L 2556 0 
L 2556 2019 
Q 2556 2363 2490 2533 
Q 2425 2703 2258 2804 
Q 2091 2906 1866 2906 
Q 1506 2906 1245 2678 
Q 984 2450 984 1813 
L 984 0 
L 422 0 
z
" transform="scale(0.015625)"/>
       <path id="ArialMT-63" d="M 2588 1216 
L 3141 1144 
Q 3050 572 2676 248 
Q 2303 -75 1759 -75 
Q 1078 -75 664 370 
Q 250 816 250 1647 
Q 250 2184 428 2587 
Q 606 2991 970 3192 
Q 1334 3394 1763 3394 
Q 2303 3394 2647 3120 
Q 2991 2847 3088 2344 
L 2541 2259 
Q 2463 2594 2264 2762 
Q 2066 2931 1784 2931 
Q 1359 2931 1093 2626 
Q 828 2322 828 1663 
Q 828 994 1084 691 
Q 1341 388 1753 388 
Q 2084 388 2306 591 
Q 2528 794 2588 1216 
z
" transform="scale(0.015625)"/>
      </defs>
      <use xlink:href="#ArialMT-44"/>
      <use xlink:href="#ArialMT-69" x="72.216797"/>
      <use xlink:href="#ArialMT-76" x="94.433594"/>
      <use xlink:href="#ArialMT-65" x="144.433594"/>
      <use xlink:href="#ArialMT-72" x="200.048828"/>
      <use xlink:href="#ArialMT-67" x="233.349609"/>
      <use xlink:href="#ArialMT-65" x="288.964844"/>
      <use xlink:href="#ArialMT-6e" x="344.580078"/>
      <use xlink:href="#ArialMT-63" x="400.195312"/>
      <use xlink:href="#ArialMT-65" x="450.195312"/>
     </g>
    </g>
   </g>
   <g id="PolyCollection_1">
    <defs>
     <path id="m442f3e74ef" d="M 109.425 -113.817014 
L 109.425 -94.399547 
L 114.940116 -86.009385 
L 120.455233 -97.83787 
L 125.970349 -117.284184 
L 131.485465 -103.905183 
L 137.000581 -108.429839 
L 142.515698 -110.840206 
L 148.030814 -114.568994 
L 153.54593 -119.293712 
L 159.061047 -123.334364 
L 164.576163 -88.233866 
L 170.091279 -100.269652 
L 175.606395 -84.559448 
L 181.121512 -69.440909 
L 186.636628 -111.070724 
L 192.151744 -137.135374 
L 197.66686 -167.015961 
L 203.181977 -150.035936 
L 208.697093 -75.765061 
L 214.212209 -86.317815 
L 219.727326 -95.891267 
L 225.242442 -142.191998 
L 230.757558 -104.578168 
L 236.272674 -72.524564 
L 241.787791 -104.757709 
L 247.302907 -111.335932 
L 252.818023 -115.45076 
L 258.33314 -113.16073 
L 263.848256 -158.562112 
L 269.363372 -150.29248 
L 274.878488 -93.82151 
L 280.393605 -74.888266 
L 285.908721 -70.186431 
L 291.423837 -123.876007 
L 296.938953 -131.485802 
L 302.45407 -106.213756 
L 307.969186 -80.844861 
L 313.484302 -95.144859 
L 318.999419 -176.562966 
L 324.514535 -237.415021 
L 330.029651 -238.120606 
L 335.544767 -211.577453 
L 341.059884 -183.148704 
L 346.575 -163.517882 
L 352.090116 -226.404198 
L 357.605233 -258.250628 
L 363.120349 -238.873048 
L 368.635465 -237.604226 
L 374.150581 -230.696095 
L 379.665698 -285.820864 
L 385.180814 -293.741357 
L 390.69593 -310.724449 
L 396.211047 -320.140178 
L 401.726163 -341.893517 
L 407.241279 -322.700289 
L 412.756395 -261.850217 
L 418.271512 -228.875078 
L 423.786628 -221.356021 
L 429.301744 -233.228433 
L 434.81686 -226.835751 
L 440.331977 -170.073312 
L 445.847093 -151.120766 
L 451.362209 -112.664345 
L 456.877326 -108.55228 
L 462.392442 -108.174254 
L 467.907558 -91.447757 
L 473.422674 -87.790086 
L 478.937791 -110.215704 
L 484.452907 -101.199779 
L 489.968023 -117.50204 
L 495.48314 -115.267821 
L 500.998256 -84.713114 
L 506.513372 -102.027952 
L 512.028488 -105.892101 
L 517.543605 -104.874508 
L 523.058721 -95.207548 
L 528.573837 -86.398122 
L 534.088953 -83.885343 
L 539.60407 -105.523778 
L 545.119186 -95.553874 
L 550.634302 -114.635348 
L 556.149419 -110.087143 
L 561.664535 -97.58614 
L 567.179651 -92.8955 
L 572.694767 -95.738457 
L 578.209884 -102.192827 
L 583.725 -125.517904 
L 583.725 -148.828443 
L 583.725 -148.828443 
L 578.209884 -125.182809 
L 572.694767 -119.926718 
L 567.179651 -115.291686 
L 561.664535 -119.407052 
L 556.149419 -131.401875 
L 550.634302 -138.026166 
L 545.119186 -117.800828 
L 539.60407 -128.301989 
L 534.088953 -107.582067 
L 528.573837 -108.626734 
L 523.058721 -118.503351 
L 517.543605 -128.90951 
L 512.028488 -129.12859 
L 506.513372 -127.495333 
L 500.998256 -107.189085 
L 495.48314 -137.432248 
L 489.968023 -143.697445 
L 484.452907 -124.789175 
L 478.937791 -133.462571 
L 473.422674 -112.571974 
L 467.907558 -115.278318 
L 462.392442 -131.292906 
L 456.877326 -132.352821 
L 451.362209 -138.865739 
L 445.847093 -178.34537 
L 440.331977 -197.780504 
L 434.81686 -261.427581 
L 429.301744 -274.464998 
L 423.786628 -269.233481 
L 418.271512 -284.610515 
L 412.756395 -310.867184 
L 407.241279 -371.001777 
L 401.726163 -389.059091 
L 396.211047 -363.542882 
L 390.69593 -351.597507 
L 385.180814 -332.547427 
L 379.665698 -319.72651 
L 374.150581 -267.892436 
L 368.635465 -274.667158 
L 363.120349 -272.514271 
L 357.605233 -292.190788 
L 352.090116 -258.738471 
L 346.575 -194.486348 
L 341.059884 -213.916163 
L 335.544767 -250.502744 
L 330.029651 -281.182628 
L 324.514535 -276.920097 
L 318.999419 -210.475795 
L 313.484302 -126.486149 
L 307.969186 -111.445225 
L 302.45407 -137.945179 
L 296.938953 -161.123249 
L 291.423837 -154.933958 
L 285.908721 -105.488274 
L 280.393605 -113.688119 
L 274.878488 -136.156388 
L 269.363372 -201.903531 
L 263.848256 -215.427013 
L 258.33314 -162.402273 
L 252.818023 -148.408297 
L 247.302907 -140.971756 
L 241.787791 -141.72748 
L 236.272674 -116.635229 
L 230.757558 -143.358758 
L 225.242442 -179.755928 
L 219.727326 -135.776853 
L 214.212209 -128.322757 
L 208.697093 -112.429971 
L 203.181977 -181.324584 
L 197.66686 -197.972199 
L 192.151744 -176.201214 
L 186.636628 -161.47072 
L 181.121512 -117.440295 
L 175.606395 -125.185587 
L 170.091279 -132.728511 
L 164.576163 -118.78451 
L 159.061047 -140.514142 
L 153.54593 -136.848334 
L 148.030814 -131.743689 
L 142.515698 -131.958489 
L 137.000581 -127.271751 
L 131.485465 -120.494899 
L 125.970349 -137.275069 
L 120.455233 -115.218993 
L 114.940116 -105.665242 
L 109.425 -113.817014 
z
" style="stroke: #eb6ab0; stroke-opacity: 0.1"/>
    </defs>
    <g clip-path="url(#p09b44560a0)">
     <use xlink:href="#m442f3e74ef" x="0" y="432" style="fill: #eb6ab0; fill-opacity: 0.1; stroke: #eb6ab0; stroke-opacity: 0.1"/>
    </g>
   </g>
   <g id="PolyCollection_2">
    <defs>
     <path id="mf9bca374e1" d="M 109.425 -110.104547 
L 109.425 -107.969874 
L 114.940116 -109.73667 
L 120.455233 -111.994017 
L 125.970349 -111.268546 
L 131.485465 -110.275193 
L 137.000581 -108.538379 
L 142.515698 -107.820863 
L 148.030814 -109.614968 
L 153.54593 -109.503705 
L 159.061047 -108.00902 
L 164.576163 -122.997823 
L 170.091279 -127.065294 
L 175.606395 -124.919503 
L 181.121512 -125.559592 
L 186.636628 -125.857791 
L 192.151744 -132.686289 
L 197.66686 -136.780305 
L 203.181977 -133.088157 
L 208.697093 -130.099522 
L 214.212209 -125.611038 
L 219.727326 -118.158801 
L 225.242442 -123.137103 
L 230.757558 -128.0934 
L 236.272674 -132.615716 
L 241.787791 -144.47368 
L 247.302907 -149.001883 
L 252.818023 -151.644138 
L 258.33314 -142.93269 
L 263.848256 -137.914355 
L 269.363372 -141.11915 
L 274.878488 -144.650529 
L 280.393605 -143.000522 
L 285.908721 -146.9672 
L 291.423837 -144.466131 
L 296.938953 -140.887352 
L 302.45407 -143.049276 
L 307.969186 -141.992423 
L 313.484302 -136.568964 
L 318.999419 -133.872641 
L 324.514535 -136.872297 
L 330.029651 -143.127111 
L 335.544767 -141.132397 
L 341.059884 -142.65959 
L 346.575 -141.002567 
L 352.090116 -146.073627 
L 357.605233 -147.859968 
L 363.120349 -136.190288 
L 368.635465 -127.800465 
L 374.150581 -121.974568 
L 379.665698 -127.539932 
L 385.180814 -135.123912 
L 390.69593 -140.396243 
L 396.211047 -135.926193 
L 401.726163 -125.354788 
L 407.241279 -123.389296 
L 412.756395 -129.147621 
L 418.271512 -135.491505 
L 423.786628 -142.296571 
L 429.301744 -145.98436 
L 434.81686 -143.850595 
L 440.331977 -127.134526 
L 445.847093 -122.774699 
L 451.362209 -119.903721 
L 456.877326 -117.492454 
L 462.392442 -118.519103 
L 467.907558 -115.533727 
L 473.422674 -116.887367 
L 478.937791 -116.70485 
L 484.452907 -115.637584 
L 489.968023 -117.174118 
L 495.48314 -115.596747 
L 500.998256 -116.067866 
L 506.513372 -117.611379 
L 512.028488 -117.31845 
L 517.543605 -115.607669 
L 523.058721 -115.698596 
L 528.573837 -115.879061 
L 534.088953 -115.65229 
L 539.60407 -117.576218 
L 545.119186 -116.727885 
L 550.634302 -113.664401 
L 556.149419 -117.06477 
L 561.664535 -118.54927 
L 567.179651 -118.806635 
L 572.694767 -117.085015 
L 578.209884 -118.417702 
L 583.725 -116.288274 
L 583.725 -120.185631 
L 583.725 -120.185631 
L 578.209884 -122.408333 
L 572.694767 -121.160957 
L 567.179651 -122.655034 
L 561.664535 -122.498584 
L 556.149419 -120.766682 
L 550.634302 -117.391756 
L 545.119186 -120.696406 
L 539.60407 -121.597475 
L 534.088953 -119.504225 
L 528.573837 -119.676741 
L 523.058721 -119.782166 
L 517.543605 -119.46177 
L 512.028488 -121.298192 
L 506.513372 -121.606133 
L 500.998256 -120.181118 
L 495.48314 -119.707212 
L 489.968023 -120.978647 
L 484.452907 -119.790181 
L 478.937791 -120.845331 
L 473.422674 -120.908338 
L 467.907558 -119.785329 
L 462.392442 -122.623745 
L 456.877326 -121.364501 
L 451.362209 -124.181907 
L 445.847093 -127.438322 
L 440.331977 -131.603545 
L 434.81686 -148.778843 
L 429.301744 -151.234784 
L 423.786628 -147.961227 
L 418.271512 -141.501713 
L 412.756395 -134.736792 
L 407.241279 -128.954987 
L 401.726163 -131.1134 
L 396.211047 -141.551774 
L 390.69593 -146.234135 
L 385.180814 -141.197929 
L 379.665698 -134.339163 
L 374.150581 -128.878693 
L 368.635465 -133.896386 
L 363.120349 -141.78876 
L 357.605233 -153.336432 
L 352.090116 -152.125173 
L 346.575 -147.180956 
L 341.059884 -149.278286 
L 335.544767 -147.789389 
L 330.029651 -150.00453 
L 324.514535 -143.48257 
L 318.999419 -140.623759 
L 313.484302 -143.116258 
L 307.969186 -148.383678 
L 302.45407 -149.978748 
L 296.938953 -147.890433 
L 291.423837 -151.353845 
L 285.908721 -153.134292 
L 280.393605 -148.8857 
L 274.878488 -150.592546 
L 269.363372 -147.185233 
L 263.848256 -143.90256 
L 258.33314 -148.171864 
L 252.818023 -156.621208 
L 247.302907 -154.334684 
L 241.787791 -149.863132 
L 236.272674 -138.061755 
L 230.757558 -133.654935 
L 225.242442 -128.62279 
L 219.727326 -124.201537 
L 214.212209 -131.120177 
L 208.697093 -135.838268 
L 203.181977 -138.599863 
L 197.66686 -142.609619 
L 192.151744 -138.694994 
L 186.636628 -131.865875 
L 181.121512 -131.10235 
L 175.606395 -130.550079 
L 170.091279 -132.825938 
L 164.576163 -127.996231 
L 159.061047 -110.430992 
L 153.54593 -111.8029 
L 148.030814 -112.130967 
L 142.515698 -110.133553 
L 137.000581 -110.834624 
L 131.485465 -112.863734 
L 125.970349 -113.564608 
L 120.455233 -114.670849 
L 114.940116 -112.34408 
L 109.425 -110.104547 
z
" style="stroke: #eb6ab0; stroke-opacity: 0.1"/>
    </defs>
    <g clip-path="url(#p09b44560a0)">
     <use xlink:href="#mf9bca374e1" x="0" y="432" style="fill: #eb6ab0; fill-opacity: 0.1; stroke: #eb6ab0; stroke-opacity: 0.1"/>
    </g>
   </g>
   <g id="PathCollection_1">
    <defs>
     <path id="m9399e44d5b" d="M 0 -3 
L -0.673542 -0.927051 
L -2.85317 -0.927051 
L -1.089814 0.354102 
L -1.763356 2.427051 
L -0 1.145898 
L 1.763356 2.427051 
L 1.089814 0.354102 
L 2.85317 -0.927051 
L 0.673542 -0.927051 
z
" style="stroke: #eb6ab0"/>
    </defs>
    <g clip-path="url(#p09b44560a0)">
     <use xlink:href="#m9399e44d5b" x="318.999419" y="339.912554" style="fill: #eb6ab0; stroke: #eb6ab0"/>
     <use xlink:href="#m9399e44d5b" x="324.514535" y="339.912554" style="fill: #eb6ab0; stroke: #eb6ab0"/>
     <use xlink:href="#m9399e44d5b" x="330.029651" y="339.912554" style="fill: #eb6ab0; stroke: #eb6ab0"/>
     <use xlink:href="#m9399e44d5b" x="335.544767" y="339.912554" style="fill: #eb6ab0; stroke: #eb6ab0"/>
     <use xlink:href="#m9399e44d5b" x="341.059884" y="339.912554" style="fill: #eb6ab0; stroke: #eb6ab0"/>
     <use xlink:href="#m9399e44d5b" x="352.090116" y="339.912554" style="fill: #eb6ab0; stroke: #eb6ab0"/>
     <use xlink:href="#m9399e44d5b" x="357.605233" y="339.912554" style="fill: #eb6ab0; stroke: #eb6ab0"/>
     <use xlink:href="#m9399e44d5b" x="363.120349" y="339.912554" style="fill: #eb6ab0; stroke: #eb6ab0"/>
     <use xlink:href="#m9399e44d5b" x="368.635465" y="339.912554" style="fill: #eb6ab0; stroke: #eb6ab0"/>
     <use xlink:href="#m9399e44d5b" x="374.150581" y="339.912554" style="fill: #eb6ab0; stroke: #eb6ab0"/>
     <use xlink:href="#m9399e44d5b" x="379.665698" y="339.912554" style="fill: #eb6ab0; stroke: #eb6ab0"/>
     <use xlink:href="#m9399e44d5b" x="385.180814" y="339.912554" style="fill: #eb6ab0; stroke: #eb6ab0"/>
     <use xlink:href="#m9399e44d5b" x="390.69593" y="339.912554" style="fill: #eb6ab0; stroke: #eb6ab0"/>
     <use xlink:href="#m9399e44d5b" x="396.211047" y="339.912554" style="fill: #eb6ab0; stroke: #eb6ab0"/>
     <use xlink:href="#m9399e44d5b" x="401.726163" y="339.912554" style="fill: #eb6ab0; stroke: #eb6ab0"/>
     <use xlink:href="#m9399e44d5b" x="407.241279" y="339.912554" style="fill: #eb6ab0; stroke: #eb6ab0"/>
     <use xlink:href="#m9399e44d5b" x="412.756395" y="339.912554" style="fill: #eb6ab0; stroke: #eb6ab0"/>
     <use xlink:href="#m9399e44d5b" x="418.271512" y="339.912554" style="fill: #eb6ab0; stroke: #eb6ab0"/>
     <use xlink:href="#m9399e44d5b" x="423.786628" y="339.912554" style="fill: #eb6ab0; stroke: #eb6ab0"/>
     <use xlink:href="#m9399e44d5b" x="429.301744" y="339.912554" style="fill: #eb6ab0; stroke: #eb6ab0"/>
     <use xlink:href="#m9399e44d5b" x="434.81686" y="339.912554" style="fill: #eb6ab0; stroke: #eb6ab0"/>
     <use xlink:href="#m9399e44d5b" x="440.331977" y="339.912554" style="fill: #eb6ab0; stroke: #eb6ab0"/>
    </g>
   </g>
   <g id="PolyCollection_3">
    <defs>
     <path id="m2fa83fa80e" d="M 109.425 -103.945054 
L 109.425 -82.16258 
L 114.940116 -105.024885 
L 120.455233 -109.679066 
L 125.970349 -98.670192 
L 131.485465 -106.42074 
L 137.000581 -83.846161 
L 142.515698 -84.268176 
L 148.030814 -78.145761 
L 153.54593 -107.064337 
L 159.061047 -100.998386 
L 164.576163 -85.320506 
L 170.091279 -121.367487 
L 175.606395 -113.864568 
L 181.121512 -145.066133 
L 186.636628 -141.305232 
L 192.151744 -144.362967 
L 197.66686 -125.813104 
L 203.181977 -158.225336 
L 208.697093 -169.008108 
L 214.212209 -178.791382 
L 219.727326 -192.10895 
L 225.242442 -183.846835 
L 230.757558 -171.77949 
L 236.272674 -169.092308 
L 241.787791 -170.534834 
L 247.302907 -145.60294 
L 252.818023 -131.590882 
L 258.33314 -146.343521 
L 263.848256 -166.917349 
L 269.363372 -149.6495 
L 274.878488 -140.200738 
L 280.393605 -130.473772 
L 285.908721 -113.047557 
L 291.423837 -115.252875 
L 296.938953 -120.220705 
L 302.45407 -130.861432 
L 307.969186 -112.818681 
L 313.484302 -96.627798 
L 318.999419 -96.55002 
L 324.514535 -86.171838 
L 330.029651 -85.983443 
L 335.544767 -91.071736 
L 341.059884 -114.647852 
L 346.575 -113.557716 
L 352.090116 -108.884725 
L 357.605233 -102.557829 
L 363.120349 -105.77354 
L 368.635465 -90.858929 
L 374.150581 -88.58705 
L 379.665698 -106.755473 
L 385.180814 -109.60604 
L 390.69593 -118.977204 
L 396.211047 -118.602641 
L 401.726163 -127.958591 
L 407.241279 -124.60918 
L 412.756395 -121.471335 
L 418.271512 -136.713647 
L 423.786628 -140.64764 
L 429.301744 -122.562227 
L 434.81686 -135.269436 
L 440.331977 -153.76797 
L 445.847093 -134.331416 
L 451.362209 -130.682614 
L 456.877326 -131.47368 
L 462.392442 -153.811337 
L 467.907558 -140.528381 
L 473.422674 -156.339236 
L 478.937791 -139.199622 
L 484.452907 -139.624835 
L 489.968023 -136.732695 
L 495.48314 -132.534238 
L 500.998256 -135.612055 
L 506.513372 -146.468384 
L 512.028488 -146.563768 
L 517.543605 -155.602068 
L 523.058721 -164.071282 
L 528.573837 -142.933628 
L 534.088953 -130.862814 
L 539.60407 -125.07394 
L 545.119186 -140.502478 
L 550.634302 -148.479369 
L 556.149419 -133.917529 
L 561.664535 -122.586447 
L 567.179651 -102.370135 
L 572.694767 -110.637391 
L 578.209884 -114.726575 
L 583.725 -102.53416 
L 583.725 -139.747072 
L 583.725 -139.747072 
L 578.209884 -152.481018 
L 572.694767 -151.66003 
L 567.179651 -141.431542 
L 561.664535 -160.604348 
L 556.149419 -171.062956 
L 550.634302 -188.770861 
L 545.119186 -180.337675 
L 539.60407 -164.772323 
L 534.088953 -173.190886 
L 528.573837 -185.019443 
L 523.058721 -203.164285 
L 517.543605 -193.379606 
L 512.028488 -187.236192 
L 506.513372 -186.128773 
L 500.998256 -172.096036 
L 495.48314 -171.370376 
L 489.968023 -176.835088 
L 484.452907 -181.046535 
L 478.937791 -182.152469 
L 473.422674 -202.059612 
L 467.907558 -187.11363 
L 462.392442 -200.720118 
L 456.877326 -181.450455 
L 451.362209 -179.731871 
L 445.847093 -179.985038 
L 440.331977 -198.641978 
L 434.81686 -181.194917 
L 429.301744 -171.833893 
L 423.786628 -190.845729 
L 418.271512 -187.392488 
L 412.756395 -172.219352 
L 407.241279 -176.897782 
L 401.726163 -181.354895 
L 396.211047 -171.635486 
L 390.69593 -167.658686 
L 385.180814 -158.381944 
L 379.665698 -156.041799 
L 374.150581 -140.541299 
L 368.635465 -143.672115 
L 363.120349 -155.991467 
L 357.605233 -154.134422 
L 352.090116 -161.055956 
L 346.575 -166.27089 
L 341.059884 -167.065803 
L 335.544767 -144.873856 
L 330.029651 -142.275047 
L 324.514535 -144.061135 
L 318.999419 -156.304362 
L 313.484302 -157.061016 
L 307.969186 -171.070658 
L 302.45407 -188.10676 
L 296.938953 -174.20369 
L 291.423837 -167.065759 
L 285.908721 -163.636965 
L 280.393605 -184.028273 
L 274.878488 -192.877497 
L 269.363372 -199.379374 
L 263.848256 -215.761307 
L 258.33314 -197.627047 
L 252.818023 -185.76948 
L 247.302907 -199.369153 
L 241.787791 -227.567974 
L 236.272674 -223.467933 
L 230.757558 -226.098291 
L 225.242442 -239.285457 
L 219.727326 -250.201536 
L 214.212209 -237.329808 
L 208.697093 -222.652047 
L 203.181977 -211.797298 
L 197.66686 -175.733719 
L 192.151744 -196.085351 
L 186.636628 -192.103022 
L 181.121512 -199.623779 
L 175.606395 -162.390958 
L 170.091279 -175.67401 
L 164.576163 -138.55002 
L 159.061047 -154.821345 
L 153.54593 -155.426651 
L 148.030814 -124.615367 
L 142.515698 -129.837756 
L 137.000581 -124.076962 
L 131.485465 -143.061841 
L 125.970349 -139.323067 
L 120.455233 -143.505775 
L 114.940116 -131.832538 
L 109.425 -103.945054 
z
" style="stroke: #8b0a50; stroke-opacity: 0.1"/>
    </defs>
    <g clip-path="url(#p09b44560a0)">
     <use xlink:href="#m2fa83fa80e" x="0" y="432" style="fill: #8b0a50; fill-opacity: 0.1; stroke: #8b0a50; stroke-opacity: 0.1"/>
    </g>
   </g>
   <g id="PolyCollection_4">
    <defs>
     <path id="m17cce69478" d="M 109.425 -112.020536 
L 109.425 -109.786618 
L 114.940116 -112.723429 
L 120.455233 -114.738002 
L 125.970349 -118.619017 
L 131.485465 -122.769007 
L 137.000581 -125.786682 
L 142.515698 -129.499882 
L 148.030814 -134.493641 
L 153.54593 -137.649804 
L 159.061047 -139.21368 
L 164.576163 -144.435229 
L 170.091279 -149.134796 
L 175.606395 -155.427313 
L 181.121512 -158.53011 
L 186.636628 -159.866536 
L 192.151744 -163.058696 
L 197.66686 -164.668215 
L 203.181977 -166.303996 
L 208.697093 -165.16787 
L 214.212209 -166.466539 
L 219.727326 -163.960067 
L 225.242442 -165.375068 
L 230.757558 -167.523028 
L 236.272674 -166.820293 
L 241.787791 -168.621574 
L 247.302907 -168.454608 
L 252.818023 -171.550805 
L 258.33314 -174.144022 
L 263.848256 -176.49569 
L 269.363372 -179.008796 
L 274.878488 -182.634865 
L 280.393605 -184.28304 
L 285.908721 -184.729728 
L 291.423837 -187.328328 
L 296.938953 -189.216278 
L 302.45407 -193.670624 
L 307.969186 -191.833004 
L 313.484302 -195.119468 
L 318.999419 -196.084613 
L 324.514535 -198.371208 
L 330.029651 -200.074606 
L 335.544767 -201.754809 
L 341.059884 -200.667218 
L 346.575 -203.633746 
L 352.090116 -201.962256 
L 357.605233 -203.756924 
L 363.120349 -201.291375 
L 368.635465 -200.006096 
L 374.150581 -198.736627 
L 379.665698 -197.544556 
L 385.180814 -196.949183 
L 390.69593 -194.544896 
L 396.211047 -191.59432 
L 401.726163 -186.913632 
L 407.241279 -182.02799 
L 412.756395 -181.040272 
L 418.271512 -180.061546 
L 423.786628 -178.532446 
L 429.301744 -176.579358 
L 434.81686 -172.73741 
L 440.331977 -165.714251 
L 445.847093 -162.572644 
L 451.362209 -155.461581 
L 456.877326 -152.131632 
L 462.392442 -149.653843 
L 467.907558 -146.78862 
L 473.422674 -141.50384 
L 478.937791 -139.935967 
L 484.452907 -138.357085 
L 489.968023 -136.492546 
L 495.48314 -136.62344 
L 500.998256 -135.299723 
L 506.513372 -133.663118 
L 512.028488 -133.532817 
L 517.543605 -133.063511 
L 523.058721 -131.874497 
L 528.573837 -130.664511 
L 534.088953 -131.042224 
L 539.60407 -128.310108 
L 545.119186 -129.38574 
L 550.634302 -126.719088 
L 556.149419 -126.822633 
L 561.664535 -126.691868 
L 567.179651 -126.579282 
L 572.694767 -126.937596 
L 578.209884 -126.029809 
L 583.725 -125.800086 
L 583.725 -132.634844 
L 583.725 -132.634844 
L 578.209884 -132.826494 
L 572.694767 -133.499165 
L 567.179651 -132.596828 
L 561.664535 -132.576681 
L 556.149419 -132.806765 
L 550.634302 -132.880421 
L 545.119186 -135.464627 
L 539.60407 -134.363586 
L 534.088953 -137.085498 
L 528.573837 -136.91589 
L 523.058721 -138.690732 
L 517.543605 -140.278012 
L 512.028488 -141.0694 
L 506.513372 -141.040006 
L 500.998256 -142.420852 
L 495.48314 -143.701241 
L 489.968023 -143.57833 
L 484.452907 -145.802554 
L 478.937791 -147.833429 
L 473.422674 -149.369491 
L 467.907558 -154.992992 
L 462.392442 -158.010839 
L 456.877326 -160.548637 
L 451.362209 -164.050254 
L 445.847093 -170.821768 
L 440.331977 -174.145742 
L 434.81686 -181.11182 
L 429.301744 -185.020777 
L 423.786628 -186.796583 
L 418.271512 -188.503736 
L 412.756395 -189.409005 
L 407.241279 -190.927443 
L 401.726163 -195.865867 
L 396.211047 -200.211814 
L 390.69593 -203.161128 
L 385.180814 -205.516547 
L 379.665698 -206.084475 
L 374.150581 -207.627894 
L 368.635465 -208.796643 
L 363.120349 -210.105042 
L 357.605233 -212.20727 
L 352.090116 -210.417855 
L 346.575 -211.781712 
L 341.059884 -208.414406 
L 335.544767 -209.121113 
L 330.029651 -207.380727 
L 324.514535 -205.141581 
L 318.999419 -202.363727 
L 313.484302 -201.548666 
L 307.969186 -198.462707 
L 302.45407 -199.872717 
L 296.938953 -195.630962 
L 291.423837 -193.795449 
L 285.908721 -191.332988 
L 280.393605 -190.878683 
L 274.878488 -188.724461 
L 269.363372 -185.048772 
L 263.848256 -182.931383 
L 258.33314 -180.550781 
L 252.818023 -177.606228 
L 247.302907 -174.514751 
L 241.787791 -174.621302 
L 236.272674 -173.433159 
L 230.757558 -174.201895 
L 225.242442 -172.088036 
L 219.727326 -170.853644 
L 214.212209 -173.729521 
L 208.697093 -172.580319 
L 203.181977 -173.560175 
L 197.66686 -171.635693 
L 192.151744 -170.679128 
L 186.636628 -167.373185 
L 181.121512 -166.643413 
L 175.606395 -163.667935 
L 170.091279 -157.080938 
L 164.576163 -152.883117 
L 159.061047 -146.766422 
L 153.54593 -145.221044 
L 148.030814 -141.363179 
L 142.515698 -136.410361 
L 137.000581 -131.984364 
L 131.485465 -129.065285 
L 125.970349 -123.757206 
L 120.455233 -119.894753 
L 114.940116 -116.469502 
L 109.425 -112.020536 
z
" style="stroke: #8b0a50; stroke-opacity: 0.1"/>
    </defs>
    <g clip-path="url(#p09b44560a0)">
     <use xlink:href="#m17cce69478" x="0" y="432" style="fill: #8b0a50; fill-opacity: 0.1; stroke: #8b0a50; stroke-opacity: 0.1"/>
    </g>
   </g>
   <g id="PathCollection_2"/>
   <g id="line2d_17">
    <path d="M 109.425 327.89172 
L 114.940116 336.162687 
L 120.455233 325.471568 
L 125.970349 304.720374 
L 131.485465 319.799959 
L 137.000581 314.149205 
L 142.515698 310.600653 
L 148.030814 308.843659 
L 153.54593 303.928977 
L 159.061047 300.075747 
L 164.576163 328.490812 
L 170.091279 315.500919 
L 175.606395 327.127483 
L 181.121512 338.559398 
L 186.636628 295.729278 
L 192.151744 275.331706 
L 197.66686 249.50592 
L 203.181977 266.31974 
L 208.697093 337.902484 
L 214.212209 324.679714 
L 219.727326 316.16594 
L 225.242442 271.026037 
L 230.757558 308.031537 
L 236.272674 337.420103 
L 241.787791 308.757405 
L 247.302907 305.846156 
L 252.818023 300.070472 
L 258.33314 294.218498 
L 263.848256 245.005438 
L 269.363372 255.901994 
L 274.878488 317.011051 
L 280.393605 337.711808 
L 285.908721 344.162648 
L 291.423837 292.595018 
L 296.938953 285.695474 
L 302.45407 309.920532 
L 307.969186 335.854957 
L 313.484302 321.184496 
L 318.999419 238.48062 
L 324.514535 174.832441 
L 330.029651 172.348383 
L 335.544767 200.959902 
L 341.059884 233.467566 
L 346.575 252.997885 
L 352.090116 189.428666 
L 357.605233 156.779292 
L 363.120349 176.306341 
L 368.635465 175.864308 
L 374.150581 182.705734 
L 379.665698 129.226313 
L 385.180814 118.855608 
L 390.69593 100.839022 
L 396.211047 90.15847 
L 401.726163 66.523696 
L 407.241279 85.148967 
L 412.756395 145.641299 
L 418.271512 175.257203 
L 423.786628 186.705249 
L 429.301744 178.153284 
L 434.81686 187.868334 
L 440.331977 248.073092 
L 445.847093 267.266932 
L 451.362209 306.234958 
L 456.877326 311.547449 
L 462.392442 312.26642 
L 467.907558 328.636963 
L 473.422674 331.81897 
L 478.937791 310.160862 
L 484.452907 319.005523 
L 489.968023 301.400257 
L 495.48314 305.649965 
L 500.998256 336.0489 
L 506.513372 317.238357 
L 512.028488 314.489654 
L 517.543605 315.107991 
L 523.058721 325.14455 
L 528.573837 334.487572 
L 534.088953 336.266295 
L 539.60407 315.087116 
L 545.119186 325.322649 
L 550.634302 305.669243 
L 556.149419 311.255491 
L 561.664535 323.503404 
L 567.179651 327.906407 
L 572.694767 324.167412 
L 578.209884 318.312182 
L 583.725 294.826827 
" clip-path="url(#p09b44560a0)" style="fill: none; stroke: #eb6ab0; stroke-width: 2; stroke-linecap: round"/>
   </g>
   <g id="line2d_18">
    <path d="M 109.425 322.962789 
L 114.940116 320.959625 
L 120.455233 318.667567 
L 125.970349 319.583423 
L 131.485465 320.430536 
L 137.000581 322.313499 
L 142.515698 323.022792 
L 148.030814 321.127033 
L 153.54593 321.346698 
L 159.061047 322.779994 
L 164.576163 306.502973 
L 170.091279 302.054384 
L 175.606395 304.265209 
L 181.121512 303.669029 
L 186.636628 303.138167 
L 192.151744 296.309358 
L 197.66686 292.305038 
L 203.181977 296.15599 
L 208.697093 299.031105 
L 214.212209 303.634393 
L 219.727326 310.819831 
L 225.242442 306.120053 
L 230.757558 301.125833 
L 236.272674 296.661264 
L 241.787791 284.831594 
L 247.302907 280.331717 
L 252.818023 277.867327 
L 258.33314 286.447723 
L 263.848256 291.091543 
L 269.363372 287.847809 
L 274.878488 284.378463 
L 280.393605 286.056889 
L 285.908721 281.949254 
L 291.423837 284.090012 
L 296.938953 287.611107 
L 302.45407 285.485988 
L 307.969186 286.81195 
L 313.484302 292.157389 
L 318.999419 294.7518 
L 324.514535 291.822567 
L 330.029651 285.434179 
L 335.544767 287.539107 
L 341.059884 286.031062 
L 346.575 287.908239 
L 352.090116 282.9006 
L 357.605233 281.4018 
L 363.120349 293.010476 
L 368.635465 301.151575 
L 374.150581 306.573369 
L 379.665698 301.060452 
L 385.180814 293.83908 
L 390.69593 288.684811 
L 396.211047 293.261016 
L 401.726163 303.765906 
L 407.241279 305.827859 
L 412.756395 300.057793 
L 418.271512 293.503391 
L 423.786628 286.871101 
L 429.301744 283.390428 
L 434.81686 285.685281 
L 440.331977 302.630965 
L 445.847093 306.893489 
L 451.362209 309.957186 
L 456.877326 312.571523 
L 462.392442 311.428576 
L 467.907558 314.340472 
L 473.422674 313.102148 
L 478.937791 313.22491 
L 484.452907 314.286118 
L 489.968023 312.923617 
L 495.48314 314.34802 
L 500.998256 313.875508 
L 506.513372 312.391244 
L 512.028488 312.691679 
L 517.543605 314.46528 
L 523.058721 314.259619 
L 528.573837 314.222099 
L 534.088953 314.421743 
L 539.60407 312.413154 
L 545.119186 313.287855 
L 550.634302 316.471922 
L 556.149419 313.084274 
L 561.664535 311.476073 
L 567.179651 311.269166 
L 572.694767 312.877014 
L 578.209884 311.586982 
L 583.725 313.763048 
" clip-path="url(#p09b44560a0)" style="fill: none; stroke-dasharray: 7.4,3.2; stroke-dashoffset: 0; stroke: #eb6ab0; stroke-width: 2"/>
   </g>
   <g id="line2d_19">
    <path d="M 164.576163 378.54 
L 164.576163 26.96 
" clip-path="url(#p09b44560a0)" style="fill: none; stroke-dasharray: 5.55,2.4; stroke-dashoffset: 0; stroke: #1a1a1a; stroke-width: 1.5"/>
   </g>
   <g id="line2d_20">
    <path d="M 440.331977 378.54 
L 440.331977 26.96 
" clip-path="url(#p09b44560a0)" style="fill: none; stroke-dasharray: 5.55,2.4; stroke-dashoffset: 0; stroke: #1a1a1a; stroke-width: 1.5"/>
   </g>
   <g id="line2d_21">
    <path d="M 109.425 338.946183 
L 114.940116 313.571288 
L 120.455233 305.40758 
L 125.970349 313.003371 
L 131.485465 307.25871 
L 137.000581 328.038438 
L 142.515698 324.947034 
L 148.030814 330.619436 
L 153.54593 300.754506 
L 159.061047 304.090134 
L 164.576163 320.064737 
L 170.091279 283.479252 
L 175.606395 293.872237 
L 181.121512 259.655044 
L 186.636628 265.295873 
L 192.151744 261.775841 
L 197.66686 281.226589 
L 203.181977 246.988683 
L 208.697093 236.169922 
L 214.212209 223.939405 
L 219.727326 210.844757 
L 225.242442 220.433854 
L 230.757558 233.06111 
L 236.272674 235.719879 
L 241.787791 232.948596 
L 247.302907 259.513953 
L 252.818023 273.319819 
L 258.33314 260.014716 
L 263.848256 240.660672 
L 269.363372 257.485563 
L 274.878488 265.460882 
L 280.393605 274.748977 
L 285.908721 293.657739 
L 291.423837 290.840683 
L 296.938953 284.787802 
L 302.45407 272.515904 
L 307.969186 290.05533 
L 313.484302 305.155593 
L 318.999419 305.572809 
L 324.514535 316.883513 
L 330.029651 317.870755 
L 335.544767 314.027204 
L 341.059884 291.143173 
L 346.575 292.085697 
L 352.090116 297.029659 
L 357.605233 303.653874 
L 363.120349 301.117496 
L 368.635465 314.734478 
L 374.150581 317.435826 
L 379.665698 300.601364 
L 385.180814 298.006008 
L 390.69593 288.682055 
L 396.211047 286.880936 
L 401.726163 277.343257 
L 407.241279 281.246519 
L 412.756395 285.154657 
L 418.271512 269.946933 
L 423.786628 266.253316 
L 429.301744 284.80194 
L 434.81686 273.767824 
L 440.331977 255.795026 
L 445.847093 274.841773 
L 451.362209 276.792758 
L 456.877326 275.537932 
L 462.392442 254.734273 
L 467.907558 268.178995 
L 473.422674 252.800576 
L 478.937791 271.323955 
L 484.452907 271.664315 
L 489.968023 275.216109 
L 495.48314 280.047693 
L 500.998256 278.145955 
L 506.513372 265.701422 
L 512.028488 265.10002 
L 517.543605 257.509163 
L 523.058721 248.382216 
L 528.573837 268.023464 
L 534.088953 279.97315 
L 539.60407 287.076869 
L 545.119186 271.579924 
L 550.634302 263.374885 
L 556.149419 279.509758 
L 561.664535 290.404602 
L 567.179651 310.099161 
L 572.694767 300.85129 
L 578.209884 298.396204 
L 583.725 310.859384 
" clip-path="url(#p09b44560a0)" style="fill: none; stroke: #8b0a50; stroke-width: 2; stroke-linecap: round"/>
   </g>
   <g id="line2d_22">
    <path d="M 109.425 321.096423 
L 114.940116 317.403535 
L 120.455233 314.683622 
L 125.970349 310.811889 
L 131.485465 306.082854 
L 137.000581 303.114477 
L 142.515698 299.044879 
L 148.030814 294.07159 
L 153.54593 290.564576 
L 159.061047 289.009949 
L 164.576163 283.340827 
L 170.091279 278.892133 
L 175.606395 272.452376 
L 181.121512 269.413238 
L 186.636628 268.380139 
L 192.151744 265.131088 
L 197.66686 263.848046 
L 203.181977 262.067914 
L 208.697093 263.125905 
L 214.212209 261.90197 
L 219.727326 264.593144 
L 225.242442 263.268448 
L 230.757558 261.137539 
L 236.272674 261.873274 
L 241.787791 260.378562 
L 247.302907 260.515321 
L 252.818023 257.421484 
L 258.33314 254.652599 
L 263.848256 252.286464 
L 269.363372 249.971216 
L 274.878488 246.320337 
L 280.393605 244.419139 
L 285.908721 243.968642 
L 291.423837 241.438111 
L 296.938953 239.57638 
L 302.45407 235.22833 
L 307.969186 236.852144 
L 313.484302 233.665933 
L 318.999419 232.77583 
L 324.514535 230.243605 
L 330.029651 228.272334 
L 335.544767 226.562039 
L 341.059884 227.459188 
L 346.575 224.292271 
L 352.090116 225.809945 
L 357.605233 224.017903 
L 363.120349 226.301792 
L 368.635465 227.59863 
L 374.150581 228.81774 
L 379.665698 230.185485 
L 385.180814 230.767135 
L 390.69593 233.146988 
L 396.211047 236.096933 
L 401.726163 240.610251 
L 407.241279 245.522283 
L 412.756395 246.775362 
L 418.271512 247.717359 
L 423.786628 249.335486 
L 429.301744 251.199932 
L 434.81686 255.075385 
L 440.331977 262.070003 
L 445.847093 265.302794 
L 451.362209 272.244083 
L 456.877326 275.659865 
L 462.392442 278.167659 
L 467.907558 281.109194 
L 473.422674 286.563335 
L 478.937791 288.115302 
L 484.452907 289.92018 
L 489.968023 291.964562 
L 495.48314 291.83766 
L 500.998256 293.139712 
L 506.513372 294.648438 
L 512.028488 294.698891 
L 517.543605 295.329238 
L 523.058721 296.717385 
L 528.573837 298.209799 
L 534.088953 297.936139 
L 539.60407 300.663153 
L 545.119186 299.574816 
L 550.634302 302.200246 
L 556.149419 302.185301 
L 561.664535 302.365725 
L 567.179651 302.411945 
L 572.694767 301.781619 
L 578.209884 302.571848 
L 583.725 302.782535 
" clip-path="url(#p09b44560a0)" style="fill: none; stroke-dasharray: 7.4,3.2; stroke-dashoffset: 0; stroke: #8b0a50; stroke-width: 2"/>
   </g>
   <g id="line2d_23">
    <path d="M 164.576163 378.54 
L 164.576163 26.96 
" clip-path="url(#p09b44560a0)" style="fill: none; stroke-dasharray: 5.55,2.4; stroke-dashoffset: 0; stroke: #1a1a1a; stroke-width: 1.5"/>
   </g>
   <g id="line2d_24">
    <path d="M 440.331977 378.54 
L 440.331977 26.96 
" clip-path="url(#p09b44560a0)" style="fill: none; stroke-dasharray: 5.55,2.4; stroke-dashoffset: 0; stroke: #1a1a1a; stroke-width: 1.5"/>
   </g>
   <g id="patch_3">
    <path d="M 85.71 378.54 
L 85.71 26.96 
" style="fill: none; stroke: #000000; stroke-width: 1.5; stroke-linejoin: miter; stroke-linecap: square"/>
   </g>
   <g id="patch_4">
    <path d="M 85.71 378.54 
L 607.44 378.54 
" style="fill: none; stroke: #000000; stroke-width: 1.5; stroke-linejoin: miter; stroke-linecap: square"/>
   </g>
   <g id="text_19">
    <!-- Divergence Comparison: Original vs Shuffled -->
    <g style="fill: #262626" transform="translate(197.0625 20.96) scale(0.15 -0.15)">
     <defs>
      <path id="ArialMT-43" d="M 3763 1606 
L 4369 1453 
Q 4178 706 3683 314 
Q 3188 -78 2472 -78 
Q 1731 -78 1267 223 
Q 803 525 561 1097 
Q 319 1669 319 2325 
Q 319 3041 592 3573 
Q 866 4106 1370 4382 
Q 1875 4659 2481 4659 
Q 3169 4659 3637 4309 
Q 4106 3959 4291 3325 
L 3694 3184 
Q 3534 3684 3231 3912 
Q 2928 4141 2469 4141 
Q 1941 4141 1586 3887 
Q 1231 3634 1087 3207 
Q 944 2781 944 2328 
Q 944 1744 1114 1308 
Q 1284 872 1643 656 
Q 2003 441 2422 441 
Q 2931 441 3284 734 
Q 3638 1028 3763 1606 
z
" transform="scale(0.015625)"/>
      <path id="ArialMT-6f" d="M 213 1659 
Q 213 2581 725 3025 
Q 1153 3394 1769 3394 
Q 2453 3394 2887 2945 
Q 3322 2497 3322 1706 
Q 3322 1066 3130 698 
Q 2938 331 2570 128 
Q 2203 -75 1769 -75 
Q 1072 -75 642 372 
Q 213 819 213 1659 
z
M 791 1659 
Q 791 1022 1069 705 
Q 1347 388 1769 388 
Q 2188 388 2466 706 
Q 2744 1025 2744 1678 
Q 2744 2294 2464 2611 
Q 2184 2928 1769 2928 
Q 1347 2928 1069 2612 
Q 791 2297 791 1659 
z
" transform="scale(0.015625)"/>
      <path id="ArialMT-70" d="M 422 -1272 
L 422 3319 
L 934 3319 
L 934 2888 
Q 1116 3141 1344 3267 
Q 1572 3394 1897 3394 
Q 2322 3394 2647 3175 
Q 2972 2956 3137 2557 
Q 3303 2159 3303 1684 
Q 3303 1175 3120 767 
Q 2938 359 2589 142 
Q 2241 -75 1856 -75 
Q 1575 -75 1351 44 
Q 1128 163 984 344 
L 984 -1272 
L 422 -1272 
z
M 931 1641 
Q 931 1000 1190 694 
Q 1450 388 1819 388 
Q 2194 388 2461 705 
Q 2728 1022 2728 1688 
Q 2728 2322 2467 2637 
Q 2206 2953 1844 2953 
Q 1484 2953 1207 2617 
Q 931 2281 931 1641 
z
" transform="scale(0.015625)"/>
      <path id="ArialMT-61" d="M 2588 409 
Q 2275 144 1986 34 
Q 1697 -75 1366 -75 
Q 819 -75 525 192 
Q 231 459 231 875 
Q 231 1119 342 1320 
Q 453 1522 633 1644 
Q 813 1766 1038 1828 
Q 1203 1872 1538 1913 
Q 2219 1994 2541 2106 
Q 2544 2222 2544 2253 
Q 2544 2597 2384 2738 
Q 2169 2928 1744 2928 
Q 1347 2928 1158 2789 
Q 969 2650 878 2297 
L 328 2372 
Q 403 2725 575 2942 
Q 747 3159 1072 3276 
Q 1397 3394 1825 3394 
Q 2250 3394 2515 3294 
Q 2781 3194 2906 3042 
Q 3031 2891 3081 2659 
Q 3109 2516 3109 2141 
L 3109 1391 
Q 3109 606 3145 398 
Q 3181 191 3288 0 
L 2700 0 
Q 2613 175 2588 409 
z
M 2541 1666 
Q 2234 1541 1622 1453 
Q 1275 1403 1131 1340 
Q 988 1278 909 1158 
Q 831 1038 831 891 
Q 831 666 1001 516 
Q 1172 366 1500 366 
Q 1825 366 2078 508 
Q 2331 650 2450 897 
Q 2541 1088 2541 1459 
L 2541 1666 
z
" transform="scale(0.015625)"/>
      <path id="ArialMT-3a" d="M 578 2678 
L 578 3319 
L 1219 3319 
L 1219 2678 
L 578 2678 
z
M 578 0 
L 578 641 
L 1219 641 
L 1219 0 
L 578 0 
z
" transform="scale(0.015625)"/>
      <path id="ArialMT-4f" d="M 309 2231 
Q 309 3372 921 4017 
Q 1534 4663 2503 4663 
Q 3138 4663 3647 4359 
Q 4156 4056 4423 3514 
Q 4691 2972 4691 2284 
Q 4691 1588 4409 1038 
Q 4128 488 3612 205 
Q 3097 -78 2500 -78 
Q 1853 -78 1343 234 
Q 834 547 571 1087 
Q 309 1628 309 2231 
z
M 934 2222 
Q 934 1394 1379 917 
Q 1825 441 2497 441 
Q 3181 441 3623 922 
Q 4066 1403 4066 2288 
Q 4066 2847 3877 3264 
Q 3688 3681 3323 3911 
Q 2959 4141 2506 4141 
Q 1863 4141 1398 3698 
Q 934 3256 934 2222 
z
" transform="scale(0.015625)"/>
      <path id="ArialMT-6c" d="M 409 0 
L 409 4581 
L 972 4581 
L 972 0 
L 409 0 
z
" transform="scale(0.015625)"/>
      <path id="ArialMT-53" d="M 288 1472 
L 859 1522 
Q 900 1178 1048 958 
Q 1197 738 1509 602 
Q 1822 466 2213 466 
Q 2559 466 2825 569 
Q 3091 672 3220 851 
Q 3350 1031 3350 1244 
Q 3350 1459 3225 1620 
Q 3100 1781 2813 1891 
Q 2628 1963 1997 2114 
Q 1366 2266 1113 2400 
Q 784 2572 623 2826 
Q 463 3081 463 3397 
Q 463 3744 659 4045 
Q 856 4347 1234 4503 
Q 1613 4659 2075 4659 
Q 2584 4659 2973 4495 
Q 3363 4331 3572 4012 
Q 3781 3694 3797 3291 
L 3216 3247 
Q 3169 3681 2898 3903 
Q 2628 4125 2100 4125 
Q 1550 4125 1298 3923 
Q 1047 3722 1047 3438 
Q 1047 3191 1225 3031 
Q 1400 2872 2139 2705 
Q 2878 2538 3153 2413 
Q 3553 2228 3743 1945 
Q 3934 1663 3934 1294 
Q 3934 928 3725 604 
Q 3516 281 3123 101 
Q 2731 -78 2241 -78 
Q 1619 -78 1198 103 
Q 778 284 539 648 
Q 300 1013 288 1472 
z
" transform="scale(0.015625)"/>
      <path id="ArialMT-68" d="M 422 0 
L 422 4581 
L 984 4581 
L 984 2938 
Q 1378 3394 1978 3394 
Q 2347 3394 2619 3248 
Q 2891 3103 3008 2847 
Q 3125 2591 3125 2103 
L 3125 0 
L 2563 0 
L 2563 2103 
Q 2563 2525 2380 2717 
Q 2197 2909 1863 2909 
Q 1613 2909 1392 2779 
Q 1172 2650 1078 2428 
Q 984 2206 984 1816 
L 984 0 
L 422 0 
z
" transform="scale(0.015625)"/>
      <path id="ArialMT-75" d="M 2597 0 
L 2597 488 
Q 2209 -75 1544 -75 
Q 1250 -75 995 37 
Q 741 150 617 320 
Q 494 491 444 738 
Q 409 903 409 1263 
L 409 3319 
L 972 3319 
L 972 1478 
Q 972 1038 1006 884 
Q 1059 663 1231 536 
Q 1403 409 1656 409 
Q 1909 409 2131 539 
Q 2353 669 2445 892 
Q 2538 1116 2538 1541 
L 2538 3319 
L 3100 3319 
L 3100 0 
L 2597 0 
z
" transform="scale(0.015625)"/>
      <path id="ArialMT-66" d="M 556 0 
L 556 2881 
L 59 2881 
L 59 3319 
L 556 3319 
L 556 3672 
Q 556 4006 616 4169 
Q 697 4388 901 4523 
Q 1106 4659 1475 4659 
Q 1713 4659 2000 4603 
L 1916 4113 
Q 1741 4144 1584 4144 
Q 1328 4144 1222 4034 
Q 1116 3925 1116 3625 
L 1116 3319 
L 1763 3319 
L 1763 2881 
L 1116 2881 
L 1116 0 
L 556 0 
z
" transform="scale(0.015625)"/>
      <path id="ArialMT-64" d="M 2575 0 
L 2575 419 
Q 2259 -75 1647 -75 
Q 1250 -75 917 144 
Q 584 363 401 755 
Q 219 1147 219 1656 
Q 219 2153 384 2558 
Q 550 2963 881 3178 
Q 1213 3394 1622 3394 
Q 1922 3394 2156 3267 
Q 2391 3141 2538 2938 
L 2538 4581 
L 3097 4581 
L 3097 0 
L 2575 0 
z
M 797 1656 
Q 797 1019 1065 703 
Q 1334 388 1700 388 
Q 2069 388 2326 689 
Q 2584 991 2584 1609 
Q 2584 2291 2321 2609 
Q 2059 2928 1675 2928 
Q 1300 2928 1048 2622 
Q 797 2316 797 1656 
z
" transform="scale(0.015625)"/>
     </defs>
     <use xlink:href="#ArialMT-44"/>
     <use xlink:href="#ArialMT-69" x="72.216797"/>
     <use xlink:href="#ArialMT-76" x="94.433594"/>
     <use xlink:href="#ArialMT-65" x="144.433594"/>
     <use xlink:href="#ArialMT-72" x="200.048828"/>
     <use xlink:href="#ArialMT-67" x="233.349609"/>
     <use xlink:href="#ArialMT-65" x="288.964844"/>
     <use xlink:href="#ArialMT-6e" x="344.580078"/>
     <use xlink:href="#ArialMT-63" x="400.195312"/>
     <use xlink:href="#ArialMT-65" x="450.195312"/>
     <use xlink:href="#ArialMT-20" x="505.810547"/>
     <use xlink:href="#ArialMT-43" x="533.59375"/>
     <use xlink:href="#ArialMT-6f" x="605.810547"/>
     <use xlink:href="#ArialMT-6d" x="661.425781"/>
     <use xlink:href="#ArialMT-70" x="744.726562"/>
     <use xlink:href="#ArialMT-61" x="800.341797"/>
     <use xlink:href="#ArialMT-72" x="855.957031"/>
     <use xlink:href="#ArialMT-69" x="889.257812"/>
     <use xlink:href="#ArialMT-73" x="911.474609"/>
     <use xlink:href="#ArialMT-6f" x="961.474609"/>
     <use xlink:href="#ArialMT-6e" x="1017.089844"/>
     <use xlink:href="#ArialMT-3a" x="1072.705078"/>
     <use xlink:href="#ArialMT-20" x="1100.488281"/>
     <use xlink:href="#ArialMT-4f" x="1128.271484"/>
     <use xlink:href="#ArialMT-72" x="1206.054688"/>
     <use xlink:href="#ArialMT-69" x="1239.355469"/>
     <use xlink:href="#ArialMT-67" x="1261.572266"/>
     <use xlink:href="#ArialMT-69" x="1317.1875"/>
     <use xlink:href="#ArialMT-6e" x="1339.404297"/>
     <use xlink:href="#ArialMT-61" x="1395.019531"/>
     <use xlink:href="#ArialMT-6c" x="1450.634766"/>
     <use xlink:href="#ArialMT-20" x="1472.851562"/>
     <use xlink:href="#ArialMT-76" x="1500.634766"/>
     <use xlink:href="#ArialMT-73" x="1550.634766"/>
     <use xlink:href="#ArialMT-20" x="1600.634766"/>
     <use xlink:href="#ArialMT-53" x="1628.417969"/>
     <use xlink:href="#ArialMT-68" x="1695.117188"/>
     <use xlink:href="#ArialMT-75" x="1750.732422"/>
     <use xlink:href="#ArialMT-66" x="1806.347656"/>
     <use xlink:href="#ArialMT-66" x="1832.380859"/>
     <use xlink:href="#ArialMT-6c" x="1860.164062"/>
     <use xlink:href="#ArialMT-65" x="1882.380859"/>
     <use xlink:href="#ArialMT-64" x="1937.996094"/>
    </g>
   </g>
   <g id="legend_1">
    <g id="patch_5">
     <path d="M 615.14 259.415469 
L 704.741875 259.415469 
Q 706.941875 259.415469 706.941875 257.215469 
L 706.941875 148.284531 
Q 706.941875 146.084531 704.741875 146.084531 
L 615.14 146.084531 
Q 612.94 146.084531 612.94 148.284531 
L 612.94 257.215469 
Q 612.94 259.415469 615.14 259.415469 
z
" style="fill: #ffffff; opacity: 0.8; stroke: #cccccc; stroke-linejoin: miter"/>
    </g>
    <g id="line2d_25">
     <path d="M 617.34 154.649062 
L 628.34 154.649062 
L 639.34 154.649062 
" style="fill: none; stroke: #eb6ab0; stroke-width: 2; stroke-linecap: round"/>
    </g>
    <g id="text_20">
     <!-- Original -->
     <g style="fill: #262626" transform="translate(648.14 158.499062) scale(0.11 -0.11)">
      <use xlink:href="#ArialMT-4f"/>
      <use xlink:href="#ArialMT-72" x="77.783203"/>
      <use xlink:href="#ArialMT-69" x="111.083984"/>
      <use xlink:href="#ArialMT-67" x="133.300781"/>
      <use xlink:href="#ArialMT-69" x="188.916016"/>
      <use xlink:href="#ArialMT-6e" x="211.132812"/>
      <use xlink:href="#ArialMT-61" x="266.748047"/>
      <use xlink:href="#ArialMT-6c" x="322.363281"/>
     </g>
    </g>
    <g id="line2d_26">
     <path d="M 617.34 170.47875 
L 628.34 170.47875 
L 639.34 170.47875 
" style="fill: none; stroke-dasharray: 7.4,3.2; stroke-dashoffset: 0; stroke: #eb6ab0; stroke-width: 2"/>
    </g>
    <g id="text_21">
     <!-- Original -->
     <g style="fill: #262626" transform="translate(648.14 174.32875) scale(0.11 -0.11)">
      <use xlink:href="#ArialMT-4f"/>
      <use xlink:href="#ArialMT-72" x="77.783203"/>
      <use xlink:href="#ArialMT-69" x="111.083984"/>
      <use xlink:href="#ArialMT-67" x="133.300781"/>
      <use xlink:href="#ArialMT-69" x="188.916016"/>
      <use xlink:href="#ArialMT-6e" x="211.132812"/>
      <use xlink:href="#ArialMT-61" x="266.748047"/>
      <use xlink:href="#ArialMT-6c" x="322.363281"/>
     </g>
    </g>
    <g id="PathCollection_3">
     <g>
      <use xlink:href="#m9399e44d5b" x="628.34" y="187.162656" style="fill: #eb6ab0; stroke: #eb6ab0"/>
     </g>
    </g>
    <g id="text_22">
     <!-- p &lt; 0.001 -->
     <g style="fill: #262626" transform="translate(648.14 190.050156) scale(0.11 -0.11)">
      <defs>
       <path id="ArialMT-3c" d="M 350 2003 
L 350 2528 
L 3384 3809 
L 3384 3250 
L 978 2263 
L 3384 1266 
L 3384 706 
L 350 2003 
z
" transform="scale(0.015625)"/>
      </defs>
      <use xlink:href="#ArialMT-70"/>
      <use xlink:href="#ArialMT-20" x="55.615234"/>
      <use xlink:href="#ArialMT-3c" x="83.398438"/>
      <use xlink:href="#ArialMT-20" x="141.796875"/>
      <use xlink:href="#ArialMT-30" x="169.580078"/>
      <use xlink:href="#ArialMT-2e" x="225.195312"/>
      <use xlink:href="#ArialMT-30" x="252.978516"/>
      <use xlink:href="#ArialMT-30" x="308.59375"/>
      <use xlink:href="#ArialMT-31" x="364.208984"/>
     </g>
    </g>
    <g id="line2d_27">
     <path d="M 617.34 201.76 
L 628.34 201.76 
L 639.34 201.76 
" style="fill: none; stroke-dasharray: 5.55,2.4; stroke-dashoffset: 0; stroke: #1a1a1a; stroke-width: 1.5"/>
    </g>
    <g id="text_23">
     <!-- Stim Onset -->
     <g style="fill: #262626" transform="translate(648.14 205.61) scale(0.11 -0.11)">
      <defs>
       <path id="ArialMT-74" d="M 1650 503 
L 1731 6 
Q 1494 -44 1306 -44 
Q 1000 -44 831 53 
Q 663 150 594 308 
Q 525 466 525 972 
L 525 2881 
L 113 2881 
L 113 3319 
L 525 3319 
L 525 4141 
L 1084 4478 
L 1084 3319 
L 1650 3319 
L 1650 2881 
L 1084 2881 
L 1084 941 
Q 1084 700 1114 631 
Q 1144 563 1211 522 
Q 1278 481 1403 481 
Q 1497 481 1650 503 
z
" transform="scale(0.015625)"/>
      </defs>
      <use xlink:href="#ArialMT-53"/>
      <use xlink:href="#ArialMT-74" x="66.699219"/>
      <use xlink:href="#ArialMT-69" x="94.482422"/>
      <use xlink:href="#ArialMT-6d" x="116.699219"/>
      <use xlink:href="#ArialMT-20" x="200"/>
      <use xlink:href="#ArialMT-4f" x="227.783203"/>
      <use xlink:href="#ArialMT-6e" x="305.566406"/>
      <use xlink:href="#ArialMT-73" x="361.181641"/>
      <use xlink:href="#ArialMT-65" x="411.181641"/>
      <use xlink:href="#ArialMT-74" x="466.796875"/>
     </g>
    </g>
    <g id="line2d_28">
     <path d="M 617.34 217.319844 
L 628.34 217.319844 
L 639.34 217.319844 
" style="fill: none; stroke-dasharray: 5.55,2.4; stroke-dashoffset: 0; stroke: #1a1a1a; stroke-width: 1.5"/>
    </g>
    <g id="text_24">
     <!-- Stim End -->
     <g style="fill: #262626" transform="translate(648.14 221.169844) scale(0.11 -0.11)">
      <defs>
       <path id="ArialMT-45" d="M 506 0 
L 506 4581 
L 3819 4581 
L 3819 4041 
L 1113 4041 
L 1113 2638 
L 3647 2638 
L 3647 2100 
L 1113 2100 
L 1113 541 
L 3925 541 
L 3925 0 
L 506 0 
z
" transform="scale(0.015625)"/>
      </defs>
      <use xlink:href="#ArialMT-53"/>
      <use xlink:href="#ArialMT-74" x="66.699219"/>
      <use xlink:href="#ArialMT-69" x="94.482422"/>
      <use xlink:href="#ArialMT-6d" x="116.699219"/>
      <use xlink:href="#ArialMT-20" x="200"/>
      <use xlink:href="#ArialMT-45" x="227.783203"/>
      <use xlink:href="#ArialMT-6e" x="294.482422"/>
      <use xlink:href="#ArialMT-64" x="350.097656"/>
     </g>
    </g>
    <g id="line2d_29">
     <path d="M 617.34 233.020625 
L 628.34 233.020625 
L 639.34 233.020625 
" style="fill: none; stroke: #8b0a50; stroke-width: 2; stroke-linecap: round"/>
    </g>
    <g id="text_25">
     <!-- Original -->
     <g style="fill: #262626" transform="translate(648.14 236.870625) scale(0.11 -0.11)">
      <use xlink:href="#ArialMT-4f"/>
      <use xlink:href="#ArialMT-72" x="77.783203"/>
      <use xlink:href="#ArialMT-69" x="111.083984"/>
      <use xlink:href="#ArialMT-67" x="133.300781"/>
      <use xlink:href="#ArialMT-69" x="188.916016"/>
      <use xlink:href="#ArialMT-6e" x="211.132812"/>
      <use xlink:href="#ArialMT-61" x="266.748047"/>
      <use xlink:href="#ArialMT-6c" x="322.363281"/>
     </g>
    </g>
    <g id="line2d_30">
     <path d="M 617.34 248.850313 
L 628.34 248.850313 
L 639.34 248.850313 
" style="fill: none; stroke-dasharray: 7.4,3.2; stroke-dashoffset: 0; stroke: #8b0a50; stroke-width: 2"/>
    </g>
    <g id="text_26">
     <!-- Original -->
     <g style="fill: #262626" transform="translate(648.14 252.700312) scale(0.11 -0.11)">
      <use xlink:href="#ArialMT-4f"/>
      <use xlink:href="#ArialMT-72" x="77.783203"/>
      <use xlink:href="#ArialMT-69" x="111.083984"/>
      <use xlink:href="#ArialMT-67" x="133.300781"/>
      <use xlink:href="#ArialMT-69" x="188.916016"/>
      <use xlink:href="#ArialMT-6e" x="211.132812"/>
      <use xlink:href="#ArialMT-61" x="266.748047"/>
      <use xlink:href="#ArialMT-6c" x="322.363281"/>
     </g>
    </g>
   </g>
  </g>
 </g>
 <defs>
  <clipPath id="p09b44560a0">
   <rect x="85.71" y="26.96" width="521.73" height="351.58"/>
  </clipPath>
 </defs>
</svg>
