<?xml version="1.0" encoding="utf-8" standalone="no"?>
<!DOCTYPE svg PUBLIC "-//W3C//DTD SVG 1.1//EN"
  "http://www.w3.org/Graphics/SVG/1.1/DTD/svg11.dtd">
<svg xmlns:xlink="http://www.w3.org/1999/xlink" width="720pt" height="432pt" viewBox="0 0 720 432" xmlns="http://www.w3.org/2000/svg" version="1.1">
 <metadata>
  <rdf:RDF xmlns:dc="http://purl.org/dc/elements/1.1/" xmlns:cc="http://creativecommons.org/ns#" xmlns:rdf="http://www.w3.org/1999/02/22-rdf-syntax-ns#">
   <cc:Work>
    <dc:type rdf:resource="http://purl.org/dc/dcmitype/StillImage"/>
    <dc:date>2025-11-05T09:48:20.388145</dc:date>
    <dc:format>image/svg+xml</dc:format>
    <dc:creator>
     <cc:Agent>
      <dc:title>Matplotlib v3.9.4, https://matplotlib.org/</dc:title>
     </cc:Agent>
    </dc:creator>
   </cc:Work>
  </rdf:RDF>
 </metadata>
 <defs>
  <style type="text/css">*{stroke-linejoin: round; stroke-linecap: butt}</style>
 </defs>
 <g id="figure_1">
  <g id="patch_1">
   <path d="M 0 432 
L 720 432 
L 720 0 
L 0 0 
z
" style="fill: #ffffff"/>
  </g>
  <g id="axes_1">
   <g id="patch_2">
    <path d="M 85.835 378.54 
L 607.44 378.54 
L 607.44 26.96 
L 85.835 26.96 
L 85.835 378.54 
z
" style="fill: none"/>
   </g>
   <g id="matplotlib.axis_1">
    <g id="xtick_1">
     <g id="line2d_1">
      <defs>
       <path id="m57de1fc88b" d="M 0 0 
L 0 5 
" style="stroke: #262626; stroke-width: 1.5"/>
      </defs>
      <g>
       <use xlink:href="#m57de1fc88b" x="90.246036" y="378.54" style="fill: #262626; stroke: #262626; stroke-width: 1.5"/>
      </g>
     </g>
     <g id="text_1">
      <!-- −250 -->
      <g style="fill: #262626" transform="translate(73.353458 397.776719) scale(0.15 -0.15)">
       <defs>
        <path id="ArialMT-2212" d="M 3381 1997 
L 356 1997 
L 356 2522 
L 3381 2522 
L 3381 1997 
z
" transform="scale(0.015625)"/>
        <path id="ArialMT-32" d="M 3222 541 
L 3222 0 
L 194 0 
Q 188 203 259 391 
Q 375 700 629 1000 
Q 884 1300 1366 1694 
Q 2113 2306 2375 2664 
Q 2638 3022 2638 3341 
Q 2638 3675 2398 3904 
Q 2159 4134 1775 4134 
Q 1369 4134 1125 3890 
Q 881 3647 878 3216 
L 300 3275 
Q 359 3922 746 4261 
Q 1134 4600 1788 4600 
Q 2447 4600 2831 4234 
Q 3216 3869 3216 3328 
Q 3216 3053 3103 2787 
Q 2991 2522 2730 2228 
Q 2469 1934 1863 1422 
Q 1356 997 1212 845 
Q 1069 694 975 541 
L 3222 541 
z
" transform="scale(0.015625)"/>
        <path id="ArialMT-35" d="M 266 1200 
L 856 1250 
Q 922 819 1161 601 
Q 1400 384 1738 384 
Q 2144 384 2425 690 
Q 2706 997 2706 1503 
Q 2706 1984 2436 2262 
Q 2166 2541 1728 2541 
Q 1456 2541 1237 2417 
Q 1019 2294 894 2097 
L 366 2166 
L 809 4519 
L 3088 4519 
L 3088 3981 
L 1259 3981 
L 1013 2750 
Q 1425 3038 1878 3038 
Q 2478 3038 2890 2622 
Q 3303 2206 3303 1553 
Q 3303 931 2941 478 
Q 2500 -78 1738 -78 
Q 1113 -78 717 272 
Q 322 622 266 1200 
z
" transform="scale(0.015625)"/>
        <path id="ArialMT-30" d="M 266 2259 
Q 266 3072 433 3567 
Q 600 4063 929 4331 
Q 1259 4600 1759 4600 
Q 2128 4600 2406 4451 
Q 2684 4303 2865 4023 
Q 3047 3744 3150 3342 
Q 3253 2941 3253 2259 
Q 3253 1453 3087 958 
Q 2922 463 2592 192 
Q 2263 -78 1759 -78 
Q 1097 -78 719 397 
Q 266 969 266 2259 
z
M 844 2259 
Q 844 1131 1108 757 
Q 1372 384 1759 384 
Q 2147 384 2411 759 
Q 2675 1134 2675 2259 
Q 2675 3391 2411 3762 
Q 2147 4134 1753 4134 
Q 1366 4134 1134 3806 
Q 844 3388 844 2259 
z
" transform="scale(0.015625)"/>
       </defs>
       <use xlink:href="#ArialMT-2212"/>
       <use xlink:href="#ArialMT-32" x="58.398438"/>
       <use xlink:href="#ArialMT-35" x="114.013672"/>
       <use xlink:href="#ArialMT-30" x="169.628906"/>
      </g>
     </g>
    </g>
    <g id="xtick_2">
     <g id="line2d_2">
      <g>
       <use xlink:href="#m57de1fc88b" x="159.168473" y="378.54" style="fill: #262626; stroke: #262626; stroke-width: 1.5"/>
      </g>
     </g>
     <g id="text_2">
      <!-- 0 -->
      <g style="fill: #262626" transform="translate(154.997769 397.776719) scale(0.15 -0.15)">
       <use xlink:href="#ArialMT-30"/>
      </g>
     </g>
    </g>
    <g id="xtick_3">
     <g id="line2d_3">
      <g>
       <use xlink:href="#m57de1fc88b" x="228.090909" y="378.54" style="fill: #262626; stroke: #262626; stroke-width: 1.5"/>
      </g>
     </g>
     <g id="text_3">
      <!-- 250 -->
      <g style="fill: #262626" transform="translate(215.5788 397.776719) scale(0.15 -0.15)">
       <use xlink:href="#ArialMT-32"/>
       <use xlink:href="#ArialMT-35" x="55.615234"/>
       <use xlink:href="#ArialMT-30" x="111.230469"/>
      </g>
     </g>
    </g>
    <g id="xtick_4">
     <g id="line2d_4">
      <g>
       <use xlink:href="#m57de1fc88b" x="297.013346" y="378.54" style="fill: #262626; stroke: #262626; stroke-width: 1.5"/>
      </g>
     </g>
     <g id="text_4">
      <!-- 500 -->
      <g style="fill: #262626" transform="translate(284.501236 397.776719) scale(0.15 -0.15)">
       <use xlink:href="#ArialMT-35"/>
       <use xlink:href="#ArialMT-30" x="55.615234"/>
       <use xlink:href="#ArialMT-30" x="111.230469"/>
      </g>
     </g>
    </g>
    <g id="xtick_5">
     <g id="line2d_5">
      <g>
       <use xlink:href="#m57de1fc88b" x="365.935782" y="378.54" style="fill: #262626; stroke: #262626; stroke-width: 1.5"/>
      </g>
     </g>
     <g id="text_5">
      <!-- 750 -->
      <g style="fill: #262626" transform="translate(353.423673 397.776719) scale(0.15 -0.15)">
       <defs>
        <path id="ArialMT-37" d="M 303 3981 
L 303 4522 
L 3269 4522 
L 3269 4084 
Q 2831 3619 2401 2847 
Q 1972 2075 1738 1259 
Q 1569 684 1522 0 
L 944 0 
Q 953 541 1156 1306 
Q 1359 2072 1739 2783 
Q 2119 3494 2547 3981 
L 303 3981 
z
" transform="scale(0.015625)"/>
       </defs>
       <use xlink:href="#ArialMT-37"/>
       <use xlink:href="#ArialMT-35" x="55.615234"/>
       <use xlink:href="#ArialMT-30" x="111.230469"/>
      </g>
     </g>
    </g>
    <g id="xtick_6">
     <g id="line2d_6">
      <g>
       <use xlink:href="#m57de1fc88b" x="434.858219" y="378.54" style="fill: #262626; stroke: #262626; stroke-width: 1.5"/>
      </g>
     </g>
     <g id="text_6">
      <!-- 1000 -->
      <g style="fill: #262626" transform="translate(418.175406 397.776719) scale(0.15 -0.15)">
       <defs>
        <path id="ArialMT-31" d="M 2384 0 
L 1822 0 
L 1822 3584 
Q 1619 3391 1289 3197 
Q 959 3003 697 2906 
L 697 3450 
Q 1169 3672 1522 3987 
Q 1875 4303 2022 4600 
L 2384 4600 
L 2384 0 
z
" transform="scale(0.015625)"/>
       </defs>
       <use xlink:href="#ArialMT-31"/>
       <use xlink:href="#ArialMT-30" x="55.615234"/>
       <use xlink:href="#ArialMT-30" x="111.230469"/>
       <use xlink:href="#ArialMT-30" x="166.845703"/>
      </g>
     </g>
    </g>
    <g id="xtick_7">
     <g id="line2d_7">
      <g>
       <use xlink:href="#m57de1fc88b" x="503.780655" y="378.54" style="fill: #262626; stroke: #262626; stroke-width: 1.5"/>
      </g>
     </g>
     <g id="text_7">
      <!-- 1250 -->
      <g style="fill: #262626" transform="translate(487.097843 397.776719) scale(0.15 -0.15)">
       <use xlink:href="#ArialMT-31"/>
       <use xlink:href="#ArialMT-32" x="55.615234"/>
       <use xlink:href="#ArialMT-35" x="111.230469"/>
       <use xlink:href="#ArialMT-30" x="166.845703"/>
      </g>
     </g>
    </g>
    <g id="xtick_8">
     <g id="line2d_8">
      <g>
       <use xlink:href="#m57de1fc88b" x="572.703092" y="378.54" style="fill: #262626; stroke: #262626; stroke-width: 1.5"/>
      </g>
     </g>
     <g id="text_8">
      <!-- 1500 -->
      <g style="fill: #262626" transform="translate(556.020279 397.776719) scale(0.15 -0.15)">
       <use xlink:href="#ArialMT-31"/>
       <use xlink:href="#ArialMT-35" x="55.615234"/>
       <use xlink:href="#ArialMT-30" x="111.230469"/>
       <use xlink:href="#ArialMT-30" x="166.845703"/>
      </g>
     </g>
    </g>
    <g id="text_9">
     <!-- Time (s) -->
     <g style="fill: #262626" transform="translate(319.425391 415.6775) scale(0.15 -0.15)">
      <defs>
       <path id="ArialMT-54" d="M 1659 0 
L 1659 4041 
L 150 4041 
L 150 4581 
L 3781 4581 
L 3781 4041 
L 2266 4041 
L 2266 0 
L 1659 0 
z
" transform="scale(0.015625)"/>
       <path id="ArialMT-69" d="M 425 3934 
L 425 4581 
L 988 4581 
L 988 3934 
L 425 3934 
z
M 425 0 
L 425 3319 
L 988 3319 
L 988 0 
L 425 0 
z
" transform="scale(0.015625)"/>
       <path id="ArialMT-6d" d="M 422 0 
L 422 3319 
L 925 3319 
L 925 2853 
Q 1081 3097 1340 3245 
Q 1600 3394 1931 3394 
Q 2300 3394 2536 3241 
Q 2772 3088 2869 2813 
Q 3263 3394 3894 3394 
Q 4388 3394 4653 3120 
Q 4919 2847 4919 2278 
L 4919 0 
L 4359 0 
L 4359 2091 
Q 4359 2428 4304 2576 
Q 4250 2725 4106 2815 
Q 3963 2906 3769 2906 
Q 3419 2906 3187 2673 
Q 2956 2441 2956 1928 
L 2956 0 
L 2394 0 
L 2394 2156 
Q 2394 2531 2256 2718 
Q 2119 2906 1806 2906 
Q 1569 2906 1367 2781 
Q 1166 2656 1075 2415 
Q 984 2175 984 1722 
L 984 0 
L 422 0 
z
" transform="scale(0.015625)"/>
       <path id="ArialMT-65" d="M 2694 1069 
L 3275 997 
Q 3138 488 2766 206 
Q 2394 -75 1816 -75 
Q 1088 -75 661 373 
Q 234 822 234 1631 
Q 234 2469 665 2931 
Q 1097 3394 1784 3394 
Q 2450 3394 2872 2941 
Q 3294 2488 3294 1666 
Q 3294 1616 3291 1516 
L 816 1516 
Q 847 969 1125 678 
Q 1403 388 1819 388 
Q 2128 388 2347 550 
Q 2566 713 2694 1069 
z
M 847 1978 
L 2700 1978 
Q 2663 2397 2488 2606 
Q 2219 2931 1791 2931 
Q 1403 2931 1139 2672 
Q 875 2413 847 1978 
z
" transform="scale(0.015625)"/>
       <path id="ArialMT-20" transform="scale(0.015625)"/>
       <path id="ArialMT-28" d="M 1497 -1347 
Q 1031 -759 709 28 
Q 388 816 388 1659 
Q 388 2403 628 3084 
Q 909 3875 1497 4659 
L 1900 4659 
Q 1522 4009 1400 3731 
Q 1209 3300 1100 2831 
Q 966 2247 966 1656 
Q 966 153 1900 -1347 
L 1497 -1347 
z
" transform="scale(0.015625)"/>
       <path id="ArialMT-73" d="M 197 991 
L 753 1078 
Q 800 744 1014 566 
Q 1228 388 1613 388 
Q 2000 388 2187 545 
Q 2375 703 2375 916 
Q 2375 1106 2209 1216 
Q 2094 1291 1634 1406 
Q 1016 1563 777 1677 
Q 538 1791 414 1992 
Q 291 2194 291 2438 
Q 291 2659 392 2848 
Q 494 3038 669 3163 
Q 800 3259 1026 3326 
Q 1253 3394 1513 3394 
Q 1903 3394 2198 3281 
Q 2494 3169 2634 2976 
Q 2775 2784 2828 2463 
L 2278 2388 
Q 2241 2644 2061 2787 
Q 1881 2931 1553 2931 
Q 1166 2931 1000 2803 
Q 834 2675 834 2503 
Q 834 2394 903 2306 
Q 972 2216 1119 2156 
Q 1203 2125 1616 2013 
Q 2213 1853 2448 1751 
Q 2684 1650 2818 1456 
Q 2953 1263 2953 975 
Q 2953 694 2789 445 
Q 2625 197 2315 61 
Q 2006 -75 1616 -75 
Q 969 -75 630 194 
Q 291 463 197 991 
z
" transform="scale(0.015625)"/>
       <path id="ArialMT-29" d="M 791 -1347 
L 388 -1347 
Q 1322 153 1322 1656 
Q 1322 2244 1188 2822 
Q 1081 3291 891 3722 
Q 769 4003 388 4659 
L 791 4659 
Q 1378 3875 1659 3084 
Q 1900 2403 1900 1659 
Q 1900 816 1576 28 
Q 1253 -759 791 -1347 
z
" transform="scale(0.015625)"/>
      </defs>
      <use xlink:href="#ArialMT-54"/>
      <use xlink:href="#ArialMT-69" x="57.333984"/>
      <use xlink:href="#ArialMT-6d" x="79.550781"/>
      <use xlink:href="#ArialMT-65" x="162.851562"/>
      <use xlink:href="#ArialMT-20" x="218.466797"/>
      <use xlink:href="#ArialMT-28" x="246.25"/>
      <use xlink:href="#ArialMT-73" x="279.550781"/>
      <use xlink:href="#ArialMT-29" x="329.550781"/>
     </g>
    </g>
   </g>
   <g id="matplotlib.axis_2">
    <g id="ytick_1">
     <g id="line2d_9">
      <defs>
       <path id="ma9f73c54ed" d="M 0 0 
L -5 0 
" style="stroke: #262626; stroke-width: 1.5"/>
      </defs>
      <g>
       <use xlink:href="#ma9f73c54ed" x="85.835" y="357.497796" style="fill: #262626; stroke: #262626; stroke-width: 1.5"/>
      </g>
     </g>
     <g id="text_10">
      <!-- −0.050 -->
      <g style="fill: #262626" transform="translate(31.04125 362.866155) scale(0.15 -0.15)">
       <defs>
        <path id="ArialMT-2e" d="M 581 0 
L 581 641 
L 1222 641 
L 1222 0 
L 581 0 
z
" transform="scale(0.015625)"/>
       </defs>
       <use xlink:href="#ArialMT-2212"/>
       <use xlink:href="#ArialMT-30" x="58.398438"/>
       <use xlink:href="#ArialMT-2e" x="114.013672"/>
       <use xlink:href="#ArialMT-30" x="141.796875"/>
       <use xlink:href="#ArialMT-35" x="197.412109"/>
       <use xlink:href="#ArialMT-30" x="253.027344"/>
      </g>
     </g>
    </g>
    <g id="ytick_2">
     <g id="line2d_10">
      <g>
       <use xlink:href="#ma9f73c54ed" x="85.835" y="317.559457" style="fill: #262626; stroke: #262626; stroke-width: 1.5"/>
      </g>
     </g>
     <g id="text_11">
      <!-- −0.025 -->
      <g style="fill: #262626" transform="translate(31.04125 322.927816) scale(0.15 -0.15)">
       <use xlink:href="#ArialMT-2212"/>
       <use xlink:href="#ArialMT-30" x="58.398438"/>
       <use xlink:href="#ArialMT-2e" x="114.013672"/>
       <use xlink:href="#ArialMT-30" x="141.796875"/>
       <use xlink:href="#ArialMT-32" x="197.412109"/>
       <use xlink:href="#ArialMT-35" x="253.027344"/>
      </g>
     </g>
    </g>
    <g id="ytick_3">
     <g id="line2d_11">
      <g>
       <use xlink:href="#ma9f73c54ed" x="85.835" y="277.621118" style="fill: #262626; stroke: #262626; stroke-width: 1.5"/>
      </g>
     </g>
     <g id="text_12">
      <!-- 0.000 -->
      <g style="fill: #262626" transform="translate(39.802188 282.989477) scale(0.15 -0.15)">
       <use xlink:href="#ArialMT-30"/>
       <use xlink:href="#ArialMT-2e" x="55.615234"/>
       <use xlink:href="#ArialMT-30" x="83.398438"/>
       <use xlink:href="#ArialMT-30" x="139.013672"/>
       <use xlink:href="#ArialMT-30" x="194.628906"/>
      </g>
     </g>
    </g>
    <g id="ytick_4">
     <g id="line2d_12">
      <g>
       <use xlink:href="#ma9f73c54ed" x="85.835" y="237.682779" style="fill: #262626; stroke: #262626; stroke-width: 1.5"/>
      </g>
     </g>
     <g id="text_13">
      <!-- 0.025 -->
      <g style="fill: #262626" transform="translate(39.802188 243.051138) scale(0.15 -0.15)">
       <use xlink:href="#ArialMT-30"/>
       <use xlink:href="#ArialMT-2e" x="55.615234"/>
       <use xlink:href="#ArialMT-30" x="83.398438"/>
       <use xlink:href="#ArialMT-32" x="139.013672"/>
       <use xlink:href="#ArialMT-35" x="194.628906"/>
      </g>
     </g>
    </g>
    <g id="ytick_5">
     <g id="line2d_13">
      <g>
       <use xlink:href="#ma9f73c54ed" x="85.835" y="197.74444" style="fill: #262626; stroke: #262626; stroke-width: 1.5"/>
      </g>
     </g>
     <g id="text_14">
      <!-- 0.050 -->
      <g style="fill: #262626" transform="translate(39.802188 203.112799) scale(0.15 -0.15)">
       <use xlink:href="#ArialMT-30"/>
       <use xlink:href="#ArialMT-2e" x="55.615234"/>
       <use xlink:href="#ArialMT-30" x="83.398438"/>
       <use xlink:href="#ArialMT-35" x="139.013672"/>
       <use xlink:href="#ArialMT-30" x="194.628906"/>
      </g>
     </g>
    </g>
    <g id="ytick_6">
     <g id="line2d_14">
      <g>
       <use xlink:href="#ma9f73c54ed" x="85.835" y="157.806101" style="fill: #262626; stroke: #262626; stroke-width: 1.5"/>
      </g>
     </g>
     <g id="text_15">
      <!-- 0.075 -->
      <g style="fill: #262626" transform="translate(39.802188 163.17446) scale(0.15 -0.15)">
       <use xlink:href="#ArialMT-30"/>
       <use xlink:href="#ArialMT-2e" x="55.615234"/>
       <use xlink:href="#ArialMT-30" x="83.398438"/>
       <use xlink:href="#ArialMT-37" x="139.013672"/>
       <use xlink:href="#ArialMT-35" x="194.628906"/>
      </g>
     </g>
    </g>
    <g id="ytick_7">
     <g id="line2d_15">
      <g>
       <use xlink:href="#ma9f73c54ed" x="85.835" y="117.867762" style="fill: #262626; stroke: #262626; stroke-width: 1.5"/>
      </g>
     </g>
     <g id="text_16">
      <!-- 0.100 -->
      <g style="fill: #262626" transform="translate(39.802188 123.236121) scale(0.15 -0.15)">
       <use xlink:href="#ArialMT-30"/>
       <use xlink:href="#ArialMT-2e" x="55.615234"/>
       <use xlink:href="#ArialMT-31" x="83.398438"/>
       <use xlink:href="#ArialMT-30" x="139.013672"/>
       <use xlink:href="#ArialMT-30" x="194.628906"/>
      </g>
     </g>
    </g>
    <g id="ytick_8">
     <g id="line2d_16">
      <g>
       <use xlink:href="#ma9f73c54ed" x="85.835" y="77.929423" style="fill: #262626; stroke: #262626; stroke-width: 1.5"/>
      </g>
     </g>
     <g id="text_17">
      <!-- 0.125 -->
      <g style="fill: #262626" transform="translate(39.802188 83.297782) scale(0.15 -0.15)">
       <use xlink:href="#ArialMT-30"/>
       <use xlink:href="#ArialMT-2e" x="55.615234"/>
       <use xlink:href="#ArialMT-31" x="83.398438"/>
       <use xlink:href="#ArialMT-32" x="139.013672"/>
       <use xlink:href="#ArialMT-35" x="194.628906"/>
      </g>
     </g>
    </g>
    <g id="ytick_9">
     <g id="line2d_17">
      <g>
       <use xlink:href="#ma9f73c54ed" x="85.835" y="37.991084" style="fill: #262626; stroke: #262626; stroke-width: 1.5"/>
      </g>
     </g>
     <g id="text_18">
      <!-- 0.150 -->
      <g style="fill: #262626" transform="translate(39.802188 43.359443) scale(0.15 -0.15)">
       <use xlink:href="#ArialMT-30"/>
       <use xlink:href="#ArialMT-2e" x="55.615234"/>
       <use xlink:href="#ArialMT-31" x="83.398438"/>
       <use xlink:href="#ArialMT-35" x="139.013672"/>
       <use xlink:href="#ArialMT-30" x="194.628906"/>
      </g>
     </g>
    </g>
    <g id="text_19">
     <!-- Divergence -->
     <g style="fill: #262626" transform="translate(23.884219 240.683594) rotate(-90) scale(0.15 -0.15)">
      <defs>
       <path id="ArialMT-44" d="M 494 0 
L 494 4581 
L 2072 4581 
Q 2606 4581 2888 4516 
Q 3281 4425 3559 4188 
Q 3922 3881 4101 3404 
Q 4281 2928 4281 2316 
Q 4281 1794 4159 1391 
Q 4038 988 3847 723 
Q 3656 459 3429 307 
Q 3203 156 2883 78 
Q 2563 0 2147 0 
L 494 0 
z
M 1100 541 
L 2078 541 
Q 2531 541 2789 625 
Q 3047 709 3200 863 
Q 3416 1078 3536 1442 
Q 3656 1806 3656 2325 
Q 3656 3044 3420 3430 
Q 3184 3816 2847 3947 
Q 2603 4041 2063 4041 
L 1100 4041 
L 1100 541 
z
" transform="scale(0.015625)"/>
       <path id="ArialMT-76" d="M 1344 0 
L 81 3319 
L 675 3319 
L 1388 1331 
Q 1503 1009 1600 663 
Q 1675 925 1809 1294 
L 2547 3319 
L 3125 3319 
L 1869 0 
L 1344 0 
z
" transform="scale(0.015625)"/>
       <path id="ArialMT-72" d="M 416 0 
L 416 3319 
L 922 3319 
L 922 2816 
Q 1116 3169 1280 3281 
Q 1444 3394 1641 3394 
Q 1925 3394 2219 3213 
L 2025 2691 
Q 1819 2813 1613 2813 
Q 1428 2813 1281 2702 
Q 1134 2591 1072 2394 
Q 978 2094 978 1738 
L 978 0 
L 416 0 
z
" transform="scale(0.015625)"/>
       <path id="ArialMT-67" d="M 319 -275 
L 866 -356 
Q 900 -609 1056 -725 
Q 1266 -881 1628 -881 
Q 2019 -881 2231 -725 
Q 2444 -569 2519 -288 
Q 2563 -116 2559 434 
Q 2191 0 1641 0 
Q 956 0 581 494 
Q 206 988 206 1678 
Q 206 2153 378 2554 
Q 550 2956 876 3175 
Q 1203 3394 1644 3394 
Q 2231 3394 2613 2919 
L 2613 3319 
L 3131 3319 
L 3131 450 
Q 3131 -325 2973 -648 
Q 2816 -972 2473 -1159 
Q 2131 -1347 1631 -1347 
Q 1038 -1347 672 -1080 
Q 306 -813 319 -275 
z
M 784 1719 
Q 784 1066 1043 766 
Q 1303 466 1694 466 
Q 2081 466 2343 764 
Q 2606 1063 2606 1700 
Q 2606 2309 2336 2618 
Q 2066 2928 1684 2928 
Q 1309 2928 1046 2623 
Q 784 2319 784 1719 
z
" transform="scale(0.015625)"/>
       <path id="ArialMT-6e" d="M 422 0 
L 422 3319 
L 928 3319 
L 928 2847 
Q 1294 3394 1984 3394 
Q 2284 3394 2536 3286 
Q 2788 3178 2913 3003 
Q 3038 2828 3088 2588 
Q 3119 2431 3119 2041 
L 3119 0 
L 2556 0 
L 2556 2019 
Q 2556 2363 2490 2533 
Q 2425 2703 2258 2804 
Q 2091 2906 1866 2906 
Q 1506 2906 1245 2678 
Q 984 2450 984 1813 
L 984 0 
L 422 0 
z
" transform="scale(0.015625)"/>
       <path id="ArialMT-63" d="M 2588 1216 
L 3141 1144 
Q 3050 572 2676 248 
Q 2303 -75 1759 -75 
Q 1078 -75 664 370 
Q 250 816 250 1647 
Q 250 2184 428 2587 
Q 606 2991 970 3192 
Q 1334 3394 1763 3394 
Q 2303 3394 2647 3120 
Q 2991 2847 3088 2344 
L 2541 2259 
Q 2463 2594 2264 2762 
Q 2066 2931 1784 2931 
Q 1359 2931 1093 2626 
Q 828 2322 828 1663 
Q 828 994 1084 691 
Q 1341 388 1753 388 
Q 2084 388 2306 591 
Q 2528 794 2588 1216 
z
" transform="scale(0.015625)"/>
      </defs>
      <use xlink:href="#ArialMT-44"/>
      <use xlink:href="#ArialMT-69" x="72.216797"/>
      <use xlink:href="#ArialMT-76" x="94.433594"/>
      <use xlink:href="#ArialMT-65" x="144.433594"/>
      <use xlink:href="#ArialMT-72" x="200.048828"/>
      <use xlink:href="#ArialMT-67" x="233.349609"/>
      <use xlink:href="#ArialMT-65" x="288.964844"/>
      <use xlink:href="#ArialMT-6e" x="344.580078"/>
      <use xlink:href="#ArialMT-63" x="400.195312"/>
      <use xlink:href="#ArialMT-65" x="450.195312"/>
     </g>
    </g>
   </g>
   <g id="PolyCollection_1">
    <defs>
     <path id="m3dfc43ac37" d="M 109.544318 -180.83808 
L 109.544318 -141.008494 
L 120.571908 -150.077246 
L 131.599498 -159.171088 
L 142.627088 -156.881403 
L 153.654678 -131.350685 
L 164.682267 -157.910528 
L 175.709857 -155.028782 
L 186.737447 -158.077713 
L 197.765037 -206.779336 
L 208.792627 -245.552651 
L 219.820217 -277.794961 
L 230.847807 -314.849067 
L 241.875396 -325.963484 
L 252.902986 -336.021754 
L 263.930576 -290.288679 
L 274.958166 -247.487848 
L 285.985756 -258.297425 
L 297.013346 -279.310921 
L 308.040936 -264.838791 
L 319.068525 -248.533576 
L 330.096115 -254.585278 
L 341.123705 -279.631112 
L 352.151295 -291.962566 
L 363.178885 -299.75448 
L 374.206475 -278.831113 
L 385.234064 -321.563596 
L 396.261654 -351.307826 
L 407.289244 -347.564593 
L 418.316834 -306.297893 
L 429.344424 -282.560189 
L 440.372014 -294.900887 
L 451.399604 -253.894527 
L 462.427193 -251.727013 
L 473.454783 -272.968391 
L 484.482373 -270.13889 
L 495.509963 -259.949689 
L 506.537553 -272.819207 
L 517.565143 -266.212407 
L 528.592733 -263.367735 
L 539.620322 -257.496166 
L 550.647912 -252.814392 
L 561.675502 -247.246956 
L 572.703092 -235.298264 
L 583.730682 -181.039018 
L 583.730682 -190.397826 
L 583.730682 -190.397826 
L 572.703092 -263.328559 
L 561.675502 -276.633398 
L 550.647912 -284.070039 
L 539.620322 -291.071919 
L 528.592733 -296.822499 
L 517.565143 -299.760871 
L 506.537553 -307.321573 
L 495.509963 -292.428783 
L 484.482373 -304.888764 
L 473.454783 -307.846576 
L 462.427193 -281.870542 
L 451.399604 -283.547552 
L 440.372014 -326.392415 
L 429.344424 -311.693823 
L 418.316834 -341.072675 
L 407.289244 -386.086788 
L 396.261654 -389.059091 
L 385.234064 -352.210673 
L 374.206475 -309.367801 
L 363.178885 -327.264134 
L 352.151295 -321.571525 
L 341.123705 -307.214076 
L 330.096115 -281.055403 
L 319.068525 -276.713323 
L 308.040936 -291.833597 
L 297.013346 -311.104066 
L 285.985756 -288.810172 
L 274.958166 -276.036143 
L 263.930576 -323.776006 
L 252.902986 -373.183275 
L 241.875396 -358.337352 
L 230.847807 -349.114169 
L 219.820217 -306.985231 
L 208.792627 -269.094432 
L 197.765037 -230.305844 
L 186.737447 -179.691476 
L 175.709857 -174.93114 
L 164.682267 -184.068041 
L 153.654678 -150.941185 
L 142.627088 -174.753648 
L 131.599498 -176.096507 
L 120.571908 -156.554824 
L 109.544318 -180.83808 
z
" style="stroke: #eb6ab0; stroke-opacity: 0.1"/>
    </defs>
    <g clip-path="url(#pe169465efc)">
     <use xlink:href="#m3dfc43ac37" x="0" y="432" style="fill: #eb6ab0; fill-opacity: 0.1; stroke: #eb6ab0; stroke-opacity: 0.1"/>
    </g>
   </g>
   <g id="PolyCollection_2">
    <defs>
     <path id="mf79ce85cae" d="M 109.544318 -159.235781 
L 109.544318 -147.580598 
L 120.571908 -149.67391 
L 131.599498 -153.079183 
L 142.627088 -152.78859 
L 153.654678 -160.620573 
L 164.682267 -172.994912 
L 175.709857 -168.760287 
L 186.737447 -163.262622 
L 197.765037 -161.496384 
L 208.792627 -157.303813 
L 219.820217 -163.549864 
L 230.847807 -178.496435 
L 241.875396 -179.042723 
L 252.902986 -169.15478 
L 263.930576 -174.858072 
L 274.958166 -180.512074 
L 285.985756 -167.313407 
L 297.013346 -163.877048 
L 308.040936 -164.146813 
L 319.068525 -166.34438 
L 330.096115 -179.90742 
L 341.123705 -183.303402 
L 352.151295 -187.659064 
L 363.178885 -189.696432 
L 374.206475 -181.98258 
L 385.234064 -183.02781 
L 396.261654 -189.009719 
L 407.289244 -180.975555 
L 418.316834 -173.604031 
L 429.344424 -164.38112 
L 440.372014 -156.870021 
L 451.399604 -152.940006 
L 462.427193 -156.899238 
L 473.454783 -157.97268 
L 484.482373 -159.043869 
L 495.509963 -158.643463 
L 506.537553 -157.322322 
L 517.565143 -158.564971 
L 528.592733 -153.085391 
L 539.620322 -153.87599 
L 550.647912 -157.797643 
L 561.675502 -156.354662 
L 572.703092 -154.001946 
L 583.730682 -153.830353 
L 583.730682 -155.09681 
L 583.730682 -155.09681 
L 572.703092 -157.273953 
L 561.675502 -159.948778 
L 550.647912 -160.658725 
L 539.620322 -159.011109 
L 528.592733 -159.153079 
L 517.565143 -161.657647 
L 506.537553 -161.149329 
L 495.509963 -161.745351 
L 484.482373 -163.352479 
L 473.454783 -162.291916 
L 462.427193 -159.919391 
L 451.399604 -155.927389 
L 440.372014 -160.43456 
L 429.344424 -171.865408 
L 418.316834 -182.512573 
L 407.289244 -189.760483 
L 396.261654 -198.349271 
L 385.234064 -192.811887 
L 374.206475 -191.197207 
L 363.178885 -199.529976 
L 352.151295 -197.292354 
L 341.123705 -191.893921 
L 330.096115 -187.841929 
L 319.068525 -174.290768 
L 308.040936 -172.020865 
L 297.013346 -171.872035 
L 285.985756 -175.669494 
L 274.958166 -189.515564 
L 263.930576 -184.056426 
L 252.902986 -177.571137 
L 241.875396 -186.769764 
L 230.847807 -186.637687 
L 219.820217 -172.960433 
L 208.792627 -165.965743 
L 197.765037 -168.749155 
L 186.737447 -170.682012 
L 175.709857 -176.632271 
L 164.682267 -183.226015 
L 153.654678 -169.274704 
L 142.627088 -157.651912 
L 131.599498 -156.52349 
L 120.571908 -153.928393 
L 109.544318 -159.235781 
z
" style="stroke: #eb6ab0; stroke-opacity: 0.1"/>
    </defs>
    <g clip-path="url(#pe169465efc)">
     <use xlink:href="#mf79ce85cae" x="0" y="432" style="fill: #eb6ab0; fill-opacity: 0.1; stroke: #eb6ab0; stroke-opacity: 0.1"/>
    </g>
   </g>
   <g id="PathCollection_1">
    <defs>
     <path id="meb560faab8" d="M 0 -3 
L -0.673542 -0.927051 
L -2.85317 -0.927051 
L -1.089814 0.354102 
L -1.763356 2.427051 
L -0 1.145898 
L 1.763356 2.427051 
L 1.089814 0.354102 
L 2.85317 -0.927051 
L 0.673542 -0.927051 
z
" style="stroke: #eb6ab0"/>
    </defs>
    <g clip-path="url(#pe169465efc)">
     <use xlink:href="#meb560faab8" x="197.765037" y="293.596454" style="fill: #eb6ab0; stroke: #eb6ab0"/>
     <use xlink:href="#meb560faab8" x="208.792627" y="293.596454" style="fill: #eb6ab0; stroke: #eb6ab0"/>
     <use xlink:href="#meb560faab8" x="219.820217" y="293.596454" style="fill: #eb6ab0; stroke: #eb6ab0"/>
     <use xlink:href="#meb560faab8" x="230.847807" y="293.596454" style="fill: #eb6ab0; stroke: #eb6ab0"/>
     <use xlink:href="#meb560faab8" x="241.875396" y="293.596454" style="fill: #eb6ab0; stroke: #eb6ab0"/>
     <use xlink:href="#meb560faab8" x="252.902986" y="293.596454" style="fill: #eb6ab0; stroke: #eb6ab0"/>
     <use xlink:href="#meb560faab8" x="263.930576" y="293.596454" style="fill: #eb6ab0; stroke: #eb6ab0"/>
     <use xlink:href="#meb560faab8" x="274.958166" y="293.596454" style="fill: #eb6ab0; stroke: #eb6ab0"/>
     <use xlink:href="#meb560faab8" x="285.985756" y="293.596454" style="fill: #eb6ab0; stroke: #eb6ab0"/>
     <use xlink:href="#meb560faab8" x="297.013346" y="293.596454" style="fill: #eb6ab0; stroke: #eb6ab0"/>
     <use xlink:href="#meb560faab8" x="308.040936" y="293.596454" style="fill: #eb6ab0; stroke: #eb6ab0"/>
     <use xlink:href="#meb560faab8" x="319.068525" y="293.596454" style="fill: #eb6ab0; stroke: #eb6ab0"/>
     <use xlink:href="#meb560faab8" x="330.096115" y="293.596454" style="fill: #eb6ab0; stroke: #eb6ab0"/>
     <use xlink:href="#meb560faab8" x="341.123705" y="293.596454" style="fill: #eb6ab0; stroke: #eb6ab0"/>
     <use xlink:href="#meb560faab8" x="352.151295" y="293.596454" style="fill: #eb6ab0; stroke: #eb6ab0"/>
     <use xlink:href="#meb560faab8" x="363.178885" y="293.596454" style="fill: #eb6ab0; stroke: #eb6ab0"/>
     <use xlink:href="#meb560faab8" x="374.206475" y="293.596454" style="fill: #eb6ab0; stroke: #eb6ab0"/>
     <use xlink:href="#meb560faab8" x="385.234064" y="293.596454" style="fill: #eb6ab0; stroke: #eb6ab0"/>
     <use xlink:href="#meb560faab8" x="396.261654" y="293.596454" style="fill: #eb6ab0; stroke: #eb6ab0"/>
     <use xlink:href="#meb560faab8" x="407.289244" y="293.596454" style="fill: #eb6ab0; stroke: #eb6ab0"/>
     <use xlink:href="#meb560faab8" x="418.316834" y="293.596454" style="fill: #eb6ab0; stroke: #eb6ab0"/>
     <use xlink:href="#meb560faab8" x="429.344424" y="293.596454" style="fill: #eb6ab0; stroke: #eb6ab0"/>
     <use xlink:href="#meb560faab8" x="440.372014" y="293.596454" style="fill: #eb6ab0; stroke: #eb6ab0"/>
     <use xlink:href="#meb560faab8" x="451.399604" y="293.596454" style="fill: #eb6ab0; stroke: #eb6ab0"/>
     <use xlink:href="#meb560faab8" x="462.427193" y="293.596454" style="fill: #eb6ab0; stroke: #eb6ab0"/>
     <use xlink:href="#meb560faab8" x="473.454783" y="293.596454" style="fill: #eb6ab0; stroke: #eb6ab0"/>
     <use xlink:href="#meb560faab8" x="484.482373" y="293.596454" style="fill: #eb6ab0; stroke: #eb6ab0"/>
     <use xlink:href="#meb560faab8" x="495.509963" y="293.596454" style="fill: #eb6ab0; stroke: #eb6ab0"/>
     <use xlink:href="#meb560faab8" x="506.537553" y="293.596454" style="fill: #eb6ab0; stroke: #eb6ab0"/>
     <use xlink:href="#meb560faab8" x="517.565143" y="293.596454" style="fill: #eb6ab0; stroke: #eb6ab0"/>
     <use xlink:href="#meb560faab8" x="528.592733" y="293.596454" style="fill: #eb6ab0; stroke: #eb6ab0"/>
     <use xlink:href="#meb560faab8" x="539.620322" y="293.596454" style="fill: #eb6ab0; stroke: #eb6ab0"/>
     <use xlink:href="#meb560faab8" x="550.647912" y="293.596454" style="fill: #eb6ab0; stroke: #eb6ab0"/>
     <use xlink:href="#meb560faab8" x="561.675502" y="293.596454" style="fill: #eb6ab0; stroke: #eb6ab0"/>
     <use xlink:href="#meb560faab8" x="572.703092" y="293.596454" style="fill: #eb6ab0; stroke: #eb6ab0"/>
     <use xlink:href="#meb560faab8" x="583.730682" y="293.596454" style="fill: #eb6ab0; stroke: #eb6ab0"/>
    </g>
   </g>
   <g id="PolyCollection_3">
    <defs>
     <path id="mb50e500f05" d="M 109.544318 -112.857163 
L 109.544318 -69.440909 
L 120.571908 -73.276173 
L 131.599498 -85.26782 
L 142.627088 -129.330654 
L 153.654678 -155.780242 
L 164.682267 -168.666143 
L 175.709857 -185.444105 
L 186.737447 -187.95074 
L 197.765037 -195.800642 
L 208.792627 -198.235403 
L 219.820217 -188.701203 
L 230.847807 -187.143178 
L 241.875396 -186.685237 
L 252.902986 -201.697399 
L 263.930576 -221.77264 
L 274.958166 -241.033603 
L 285.985756 -250.087777 
L 297.013346 -244.843242 
L 308.040936 -246.93566 
L 319.068525 -245.808657 
L 330.096115 -250.301656 
L 341.123705 -251.533796 
L 352.151295 -248.424086 
L 363.178885 -264.646461 
L 374.206475 -281.27567 
L 385.234064 -283.190073 
L 396.261654 -297.234045 
L 407.289244 -309.515785 
L 418.316834 -310.115915 
L 429.344424 -317.257133 
L 440.372014 -319.205774 
L 451.399604 -313.690542 
L 462.427193 -304.902749 
L 473.454783 -307.309253 
L 484.482373 -312.510828 
L 495.509963 -324.033306 
L 506.537553 -327.304295 
L 517.565143 -320.740682 
L 528.592733 -315.950909 
L 539.620322 -307.529653 
L 550.647912 -306.943959 
L 561.675502 -305.501031 
L 572.703092 -304.290643 
L 583.730682 -201.572743 
L 583.730682 -220.456486 
L 583.730682 -220.456486 
L 572.703092 -358.397933 
L 561.675502 -358.380757 
L 550.647912 -361.70212 
L 539.620322 -362.943377 
L 528.592733 -372.782724 
L 517.565143 -376.296926 
L 506.537553 -382.158769 
L 495.509963 -377.856707 
L 484.482373 -364.840447 
L 473.454783 -358.748614 
L 462.427193 -355.682354 
L 451.399604 -364.110035 
L 440.372014 -367.752611 
L 429.344424 -365.435787 
L 418.316834 -356.840806 
L 407.289244 -355.757146 
L 396.261654 -341.696386 
L 385.234064 -324.51695 
L 374.206475 -321.467468 
L 363.178885 -302.311982 
L 352.151295 -284.569117 
L 341.123705 -286.109119 
L 330.096115 -282.965963 
L 319.068525 -277.951006 
L 308.040936 -278.859645 
L 297.013346 -276.304315 
L 285.985756 -279.59305 
L 274.958166 -270.786825 
L 263.930576 -251.477476 
L 252.902986 -229.657029 
L 241.875396 -214.305404 
L 230.847807 -214.293622 
L 219.820217 -214.79427 
L 208.792627 -225.847812 
L 197.765037 -225.537191 
L 186.737447 -222.91554 
L 175.709857 -225.463894 
L 164.682267 -212.939892 
L 153.654678 -203.962997 
L 142.627088 -182.24897 
L 131.599498 -141.202062 
L 120.571908 -131.749824 
L 109.544318 -112.857163 
z
" style="stroke: #8b0a50; stroke-opacity: 0.1"/>
    </defs>
    <g clip-path="url(#pe169465efc)">
     <use xlink:href="#mb50e500f05" x="0" y="432" style="fill: #8b0a50; fill-opacity: 0.1; stroke: #8b0a50; stroke-opacity: 0.1"/>
    </g>
   </g>
   <g id="PolyCollection_4">
    <defs>
     <path id="ma1caf7f011" d="M 109.544318 -176.015145 
L 109.544318 -160.489164 
L 120.571908 -173.564085 
L 131.599498 -174.908304 
L 142.627088 -180.401666 
L 153.654678 -191.605576 
L 164.682267 -209.489623 
L 175.709857 -208.9822 
L 186.737447 -205.101631 
L 197.765037 -200.790811 
L 208.792627 -195.706369 
L 219.820217 -190.301226 
L 230.847807 -192.120666 
L 241.875396 -193.843362 
L 252.902986 -195.897805 
L 263.930576 -196.888877 
L 274.958166 -194.997331 
L 285.985756 -192.559573 
L 297.013346 -190.023809 
L 308.040936 -190.428858 
L 319.068525 -192.972325 
L 330.096115 -194.113589 
L 341.123705 -193.073072 
L 352.151295 -192.966446 
L 363.178885 -191.577416 
L 374.206475 -192.610659 
L 385.234064 -190.9494 
L 396.261654 -188.794346 
L 407.289244 -189.243851 
L 418.316834 -186.952983 
L 429.344424 -186.554088 
L 440.372014 -185.90256 
L 451.399604 -184.860653 
L 462.427193 -181.292916 
L 473.454783 -180.432185 
L 484.482373 -180.696433 
L 495.509963 -182.038146 
L 506.537553 -183.253809 
L 517.565143 -187.259113 
L 528.592733 -189.045514 
L 539.620322 -189.000982 
L 550.647912 -187.09624 
L 561.675502 -186.756553 
L 572.703092 -183.10215 
L 583.730682 -163.630631 
L 583.730682 -168.895582 
L 583.730682 -168.895582 
L 572.703092 -198.528659 
L 561.675502 -202.448134 
L 550.647912 -203.013335 
L 539.620322 -204.196226 
L 528.592733 -203.595962 
L 517.565143 -201.987976 
L 506.537553 -197.961949 
L 495.509963 -196.105311 
L 484.482373 -194.24018 
L 473.454783 -193.266035 
L 462.427193 -194.166332 
L 451.399604 -197.579367 
L 440.372014 -198.141015 
L 429.344424 -198.642608 
L 418.316834 -198.953825 
L 407.289244 -201.546524 
L 396.261654 -201.734872 
L 385.234064 -203.854377 
L 374.206475 -205.541148 
L 363.178885 -204.426441 
L 352.151295 -205.608195 
L 341.123705 -205.555858 
L 330.096115 -206.80426 
L 319.068525 -205.526275 
L 308.040936 -202.803451 
L 297.013346 -202.859207 
L 285.985756 -205.225931 
L 274.958166 -207.34294 
L 263.930576 -209.331437 
L 252.902986 -208.101483 
L 241.875396 -205.660756 
L 230.847807 -203.622371 
L 219.820217 -201.459619 
L 208.792627 -207.120528 
L 197.765037 -212.769462 
L 186.737447 -218.603523 
L 175.709857 -225.637777 
L 164.682267 -227.869537 
L 153.654678 -211.621735 
L 142.627088 -201.341746 
L 131.599498 -193.363667 
L 120.571908 -191.351921 
L 109.544318 -176.015145 
z
" style="stroke: #8b0a50; stroke-opacity: 0.1"/>
    </defs>
    <g clip-path="url(#pe169465efc)">
     <use xlink:href="#ma1caf7f011" x="0" y="432" style="fill: #8b0a50; fill-opacity: 0.1; stroke: #8b0a50; stroke-opacity: 0.1"/>
    </g>
   </g>
   <g id="PathCollection_2">
    <defs>
     <path id="m5c10b063a2" d="M 0 -3 
L -0.673542 -0.927051 
L -2.85317 -0.927051 
L -1.089814 0.354102 
L -1.763356 2.427051 
L -0 1.145898 
L 1.763356 2.427051 
L 1.089814 0.354102 
L 2.85317 -0.927051 
L 0.673542 -0.927051 
z
" style="stroke: #8b0a50"/>
    </defs>
    <g clip-path="url(#pe169465efc)">
     <use xlink:href="#m5c10b063a2" x="274.958166" y="309.571789" style="fill: #8b0a50; stroke: #8b0a50"/>
     <use xlink:href="#m5c10b063a2" x="285.985756" y="309.571789" style="fill: #8b0a50; stroke: #8b0a50"/>
     <use xlink:href="#m5c10b063a2" x="297.013346" y="309.571789" style="fill: #8b0a50; stroke: #8b0a50"/>
     <use xlink:href="#m5c10b063a2" x="308.040936" y="309.571789" style="fill: #8b0a50; stroke: #8b0a50"/>
     <use xlink:href="#m5c10b063a2" x="319.068525" y="309.571789" style="fill: #8b0a50; stroke: #8b0a50"/>
     <use xlink:href="#m5c10b063a2" x="330.096115" y="309.571789" style="fill: #8b0a50; stroke: #8b0a50"/>
     <use xlink:href="#m5c10b063a2" x="341.123705" y="309.571789" style="fill: #8b0a50; stroke: #8b0a50"/>
     <use xlink:href="#m5c10b063a2" x="352.151295" y="309.571789" style="fill: #8b0a50; stroke: #8b0a50"/>
     <use xlink:href="#m5c10b063a2" x="363.178885" y="309.571789" style="fill: #8b0a50; stroke: #8b0a50"/>
     <use xlink:href="#m5c10b063a2" x="374.206475" y="309.571789" style="fill: #8b0a50; stroke: #8b0a50"/>
     <use xlink:href="#m5c10b063a2" x="385.234064" y="309.571789" style="fill: #8b0a50; stroke: #8b0a50"/>
     <use xlink:href="#m5c10b063a2" x="396.261654" y="309.571789" style="fill: #8b0a50; stroke: #8b0a50"/>
     <use xlink:href="#m5c10b063a2" x="407.289244" y="309.571789" style="fill: #8b0a50; stroke: #8b0a50"/>
     <use xlink:href="#m5c10b063a2" x="418.316834" y="309.571789" style="fill: #8b0a50; stroke: #8b0a50"/>
     <use xlink:href="#m5c10b063a2" x="429.344424" y="309.571789" style="fill: #8b0a50; stroke: #8b0a50"/>
     <use xlink:href="#m5c10b063a2" x="440.372014" y="309.571789" style="fill: #8b0a50; stroke: #8b0a50"/>
     <use xlink:href="#m5c10b063a2" x="451.399604" y="309.571789" style="fill: #8b0a50; stroke: #8b0a50"/>
     <use xlink:href="#m5c10b063a2" x="462.427193" y="309.571789" style="fill: #8b0a50; stroke: #8b0a50"/>
     <use xlink:href="#m5c10b063a2" x="473.454783" y="309.571789" style="fill: #8b0a50; stroke: #8b0a50"/>
     <use xlink:href="#m5c10b063a2" x="484.482373" y="309.571789" style="fill: #8b0a50; stroke: #8b0a50"/>
     <use xlink:href="#m5c10b063a2" x="495.509963" y="309.571789" style="fill: #8b0a50; stroke: #8b0a50"/>
     <use xlink:href="#m5c10b063a2" x="506.537553" y="309.571789" style="fill: #8b0a50; stroke: #8b0a50"/>
     <use xlink:href="#m5c10b063a2" x="517.565143" y="309.571789" style="fill: #8b0a50; stroke: #8b0a50"/>
     <use xlink:href="#m5c10b063a2" x="528.592733" y="309.571789" style="fill: #8b0a50; stroke: #8b0a50"/>
     <use xlink:href="#m5c10b063a2" x="539.620322" y="309.571789" style="fill: #8b0a50; stroke: #8b0a50"/>
     <use xlink:href="#m5c10b063a2" x="550.647912" y="309.571789" style="fill: #8b0a50; stroke: #8b0a50"/>
     <use xlink:href="#m5c10b063a2" x="561.675502" y="309.571789" style="fill: #8b0a50; stroke: #8b0a50"/>
     <use xlink:href="#m5c10b063a2" x="572.703092" y="309.571789" style="fill: #8b0a50; stroke: #8b0a50"/>
     <use xlink:href="#m5c10b063a2" x="583.730682" y="309.571789" style="fill: #8b0a50; stroke: #8b0a50"/>
    </g>
   </g>
   <g id="line2d_18">
    <path d="M 109.544318 271.076713 
L 120.571908 278.683965 
L 131.599498 264.366202 
L 142.627088 266.182474 
L 153.654678 290.854065 
L 164.682267 261.010715 
L 175.709857 267.020039 
L 186.737447 263.115406 
L 197.765037 213.45741 
L 208.792627 174.676459 
L 219.820217 139.609904 
L 230.847807 100.018382 
L 241.875396 89.849582 
L 252.902986 77.397486 
L 263.930576 124.967657 
L 274.958166 170.238005 
L 285.985756 158.446201 
L 297.013346 136.792506 
L 308.040936 153.663806 
L 319.068525 169.376551 
L 330.096115 164.17966 
L 341.123705 138.577406 
L 352.151295 125.232954 
L 363.178885 118.490693 
L 374.206475 137.900543 
L 385.234064 95.112866 
L 396.261654 61.816541 
L 407.289244 65.17431 
L 418.316834 108.314716 
L 429.344424 134.872994 
L 440.372014 121.353349 
L 451.399604 163.278961 
L 462.427193 165.201223 
L 473.454783 141.592516 
L 484.482373 144.486173 
L 495.509963 155.810764 
L 506.537553 141.92961 
L 517.565143 149.013361 
L 528.592733 151.904883 
L 539.620322 157.715957 
L 550.647912 163.557784 
L 561.675502 170.059823 
L 572.703092 182.686589 
L 583.730682 246.281578 
" clip-path="url(#pe169465efc)" style="fill: none; stroke: #eb6ab0; stroke-width: 2; stroke-linecap: round"/>
   </g>
   <g id="line2d_19">
    <path d="M 109.544318 278.59181 
L 120.571908 280.198848 
L 131.599498 277.198663 
L 142.627088 276.779749 
L 153.654678 267.052361 
L 164.682267 253.889536 
L 175.709857 259.303721 
L 186.737447 265.027683 
L 197.765037 266.87723 
L 208.792627 270.365222 
L 219.820217 263.744852 
L 230.847807 249.432939 
L 241.875396 249.093757 
L 252.902986 258.637041 
L 263.930576 252.542751 
L 274.958166 246.986181 
L 285.985756 260.508549 
L 297.013346 264.125458 
L 308.040936 263.916161 
L 319.068525 261.682426 
L 330.096115 248.125326 
L 341.123705 244.401338 
L 352.151295 239.524291 
L 363.178885 237.386796 
L 374.206475 245.410106 
L 385.234064 244.080151 
L 396.261654 238.320505 
L 407.289244 246.631981 
L 418.316834 253.941698 
L 429.344424 263.876736 
L 440.372014 273.34771 
L 451.399604 277.566302 
L 462.427193 273.590686 
L 473.454783 271.867702 
L 484.482373 270.801826 
L 495.509963 271.805593 
L 506.537553 272.764174 
L 517.565143 271.888691 
L 528.592733 275.880765 
L 539.620322 275.556451 
L 550.647912 272.771816 
L 561.675502 273.84828 
L 572.703092 276.36205 
L 583.730682 277.536418 
" clip-path="url(#pe169465efc)" style="fill: none; stroke-dasharray: 7.4,3.2; stroke-dashoffset: 0; stroke: #eb6ab0; stroke-width: 2"/>
   </g>
   <g id="line2d_20">
    <path d="M 159.168473 378.54 
L 159.168473 26.96 
" clip-path="url(#pe169465efc)" style="fill: none; stroke-dasharray: 5.55,2.4; stroke-dashoffset: 0; stroke: #1a1a1a; stroke-width: 1.5"/>
   </g>
   <g id="line2d_21">
    <path d="M 434.858219 378.54 
L 434.858219 26.96 
" clip-path="url(#pe169465efc)" style="fill: none; stroke-dasharray: 5.55,2.4; stroke-dashoffset: 0; stroke: #1a1a1a; stroke-width: 1.5"/>
   </g>
   <g id="line2d_22">
    <path d="M 109.544318 340.850964 
L 120.571908 329.487001 
L 131.599498 318.765059 
L 142.627088 276.210188 
L 153.654678 252.12838 
L 164.682267 241.196982 
L 175.709857 226.546001 
L 186.737447 226.56686 
L 197.765037 221.331083 
L 208.792627 219.958392 
L 219.820217 230.252264 
L 230.847807 231.2816 
L 241.875396 231.50468 
L 252.902986 216.322786 
L 263.930576 195.374942 
L 274.958166 176.089786 
L 285.985756 167.159586 
L 297.013346 171.426222 
L 308.040936 169.102347 
L 319.068525 170.120168 
L 330.096115 165.36619 
L 341.123705 163.178542 
L 352.151295 165.503398 
L 363.178885 148.520778 
L 374.206475 130.628431 
L 385.234064 128.146488 
L 396.261654 112.534784 
L 407.289244 99.363535 
L 418.316834 98.521639 
L 429.344424 90.65354 
L 440.372014 88.520807 
L 451.399604 93.099712 
L 462.427193 101.707449 
L 473.454783 98.971067 
L 484.482373 93.324362 
L 495.509963 81.054993 
L 506.537553 77.268468 
L 517.565143 83.481196 
L 528.592733 87.633183 
L 539.620322 96.763485 
L 550.647912 97.676961 
L 561.675502 100.059106 
L 572.703092 100.655712 
L 583.730682 220.985386 
" clip-path="url(#pe169465efc)" style="fill: none; stroke: #8b0a50; stroke-width: 2; stroke-linecap: round"/>
   </g>
   <g id="line2d_23">
    <path d="M 109.544318 263.747845 
L 120.571908 249.541997 
L 131.599498 247.864015 
L 142.627088 241.128294 
L 153.654678 230.386344 
L 164.682267 213.32042 
L 175.709857 214.690012 
L 186.737447 220.147423 
L 197.765037 225.219863 
L 208.792627 230.586552 
L 219.820217 236.119578 
L 230.847807 234.128482 
L 241.875396 232.247941 
L 252.902986 230.000356 
L 263.930576 228.889843 
L 274.958166 230.829864 
L 285.985756 233.107248 
L 297.013346 235.558492 
L 308.040936 235.383846 
L 319.068525 232.7507 
L 330.096115 231.541075 
L 341.123705 232.685535 
L 352.151295 232.71268 
L 363.178885 233.998071 
L 374.206475 232.924096 
L 385.234064 234.598112 
L 396.261654 236.735391 
L 407.289244 236.604812 
L 418.316834 239.046596 
L 429.344424 239.401652 
L 440.372014 239.978213 
L 451.399604 240.77999 
L 462.427193 244.270376 
L 473.454783 245.15089 
L 484.482373 244.531693 
L 495.509963 242.928272 
L 506.537553 241.392121 
L 517.565143 237.376455 
L 528.592733 235.679262 
L 539.620322 235.401396 
L 550.647912 236.945213 
L 561.675502 237.397656 
L 572.703092 241.184596 
L 583.730682 265.736894 
" clip-path="url(#pe169465efc)" style="fill: none; stroke-dasharray: 7.4,3.2; stroke-dashoffset: 0; stroke: #8b0a50; stroke-width: 2"/>
   </g>
   <g id="line2d_24">
    <path d="M 159.168473 378.54 
L 159.168473 26.96 
" clip-path="url(#pe169465efc)" style="fill: none; stroke-dasharray: 5.55,2.4; stroke-dashoffset: 0; stroke: #1a1a1a; stroke-width: 1.5"/>
   </g>
   <g id="line2d_25">
    <path d="M 434.858219 378.54 
L 434.858219 26.96 
" clip-path="url(#pe169465efc)" style="fill: none; stroke-dasharray: 5.55,2.4; stroke-dashoffset: 0; stroke: #1a1a1a; stroke-width: 1.5"/>
   </g>
   <g id="patch_3">
    <path d="M 85.835 378.54 
L 85.835 26.96 
" style="fill: none; stroke: #000000; stroke-width: 1.5; stroke-linejoin: miter; stroke-linecap: square"/>
   </g>
   <g id="patch_4">
    <path d="M 85.835 378.54 
L 607.44 378.54 
" style="fill: none; stroke: #000000; stroke-width: 1.5; stroke-linejoin: miter; stroke-linecap: square"/>
   </g>
   <g id="text_20">
    <!-- Divergence Comparison: Original vs Shuffled -->
    <g style="fill: #262626" transform="translate(197.125 20.96) scale(0.15 -0.15)">
     <defs>
      <path id="ArialMT-43" d="M 3763 1606 
L 4369 1453 
Q 4178 706 3683 314 
Q 3188 -78 2472 -78 
Q 1731 -78 1267 223 
Q 803 525 561 1097 
Q 319 1669 319 2325 
Q 319 3041 592 3573 
Q 866 4106 1370 4382 
Q 1875 4659 2481 4659 
Q 3169 4659 3637 4309 
Q 4106 3959 4291 3325 
L 3694 3184 
Q 3534 3684 3231 3912 
Q 2928 4141 2469 4141 
Q 1941 4141 1586 3887 
Q 1231 3634 1087 3207 
Q 944 2781 944 2328 
Q 944 1744 1114 1308 
Q 1284 872 1643 656 
Q 2003 441 2422 441 
Q 2931 441 3284 734 
Q 3638 1028 3763 1606 
z
" transform="scale(0.015625)"/>
      <path id="ArialMT-6f" d="M 213 1659 
Q 213 2581 725 3025 
Q 1153 3394 1769 3394 
Q 2453 3394 2887 2945 
Q 3322 2497 3322 1706 
Q 3322 1066 3130 698 
Q 2938 331 2570 128 
Q 2203 -75 1769 -75 
Q 1072 -75 642 372 
Q 213 819 213 1659 
z
M 791 1659 
Q 791 1022 1069 705 
Q 1347 388 1769 388 
Q 2188 388 2466 706 
Q 2744 1025 2744 1678 
Q 2744 2294 2464 2611 
Q 2184 2928 1769 2928 
Q 1347 2928 1069 2612 
Q 791 2297 791 1659 
z
" transform="scale(0.015625)"/>
      <path id="ArialMT-70" d="M 422 -1272 
L 422 3319 
L 934 3319 
L 934 2888 
Q 1116 3141 1344 3267 
Q 1572 3394 1897 3394 
Q 2322 3394 2647 3175 
Q 2972 2956 3137 2557 
Q 3303 2159 3303 1684 
Q 3303 1175 3120 767 
Q 2938 359 2589 142 
Q 2241 -75 1856 -75 
Q 1575 -75 1351 44 
Q 1128 163 984 344 
L 984 -1272 
L 422 -1272 
z
M 931 1641 
Q 931 1000 1190 694 
Q 1450 388 1819 388 
Q 2194 388 2461 705 
Q 2728 1022 2728 1688 
Q 2728 2322 2467 2637 
Q 2206 2953 1844 2953 
Q 1484 2953 1207 2617 
Q 931 2281 931 1641 
z
" transform="scale(0.015625)"/>
      <path id="ArialMT-61" d="M 2588 409 
Q 2275 144 1986 34 
Q 1697 -75 1366 -75 
Q 819 -75 525 192 
Q 231 459 231 875 
Q 231 1119 342 1320 
Q 453 1522 633 1644 
Q 813 1766 1038 1828 
Q 1203 1872 1538 1913 
Q 2219 1994 2541 2106 
Q 2544 2222 2544 2253 
Q 2544 2597 2384 2738 
Q 2169 2928 1744 2928 
Q 1347 2928 1158 2789 
Q 969 2650 878 2297 
L 328 2372 
Q 403 2725 575 2942 
Q 747 3159 1072 3276 
Q 1397 3394 1825 3394 
Q 2250 3394 2515 3294 
Q 2781 3194 2906 3042 
Q 3031 2891 3081 2659 
Q 3109 2516 3109 2141 
L 3109 1391 
Q 3109 606 3145 398 
Q 3181 191 3288 0 
L 2700 0 
Q 2613 175 2588 409 
z
M 2541 1666 
Q 2234 1541 1622 1453 
Q 1275 1403 1131 1340 
Q 988 1278 909 1158 
Q 831 1038 831 891 
Q 831 666 1001 516 
Q 1172 366 1500 366 
Q 1825 366 2078 508 
Q 2331 650 2450 897 
Q 2541 1088 2541 1459 
L 2541 1666 
z
" transform="scale(0.015625)"/>
      <path id="ArialMT-3a" d="M 578 2678 
L 578 3319 
L 1219 3319 
L 1219 2678 
L 578 2678 
z
M 578 0 
L 578 641 
L 1219 641 
L 1219 0 
L 578 0 
z
" transform="scale(0.015625)"/>
      <path id="ArialMT-4f" d="M 309 2231 
Q 309 3372 921 4017 
Q 1534 4663 2503 4663 
Q 3138 4663 3647 4359 
Q 4156 4056 4423 3514 
Q 4691 2972 4691 2284 
Q 4691 1588 4409 1038 
Q 4128 488 3612 205 
Q 3097 -78 2500 -78 
Q 1853 -78 1343 234 
Q 834 547 571 1087 
Q 309 1628 309 2231 
z
M 934 2222 
Q 934 1394 1379 917 
Q 1825 441 2497 441 
Q 3181 441 3623 922 
Q 4066 1403 4066 2288 
Q 4066 2847 3877 3264 
Q 3688 3681 3323 3911 
Q 2959 4141 2506 4141 
Q 1863 4141 1398 3698 
Q 934 3256 934 2222 
z
" transform="scale(0.015625)"/>
      <path id="ArialMT-6c" d="M 409 0 
L 409 4581 
L 972 4581 
L 972 0 
L 409 0 
z
" transform="scale(0.015625)"/>
      <path id="ArialMT-53" d="M 288 1472 
L 859 1522 
Q 900 1178 1048 958 
Q 1197 738 1509 602 
Q 1822 466 2213 466 
Q 2559 466 2825 569 
Q 3091 672 3220 851 
Q 3350 1031 3350 1244 
Q 3350 1459 3225 1620 
Q 3100 1781 2813 1891 
Q 2628 1963 1997 2114 
Q 1366 2266 1113 2400 
Q 784 2572 623 2826 
Q 463 3081 463 3397 
Q 463 3744 659 4045 
Q 856 4347 1234 4503 
Q 1613 4659 2075 4659 
Q 2584 4659 2973 4495 
Q 3363 4331 3572 4012 
Q 3781 3694 3797 3291 
L 3216 3247 
Q 3169 3681 2898 3903 
Q 2628 4125 2100 4125 
Q 1550 4125 1298 3923 
Q 1047 3722 1047 3438 
Q 1047 3191 1225 3031 
Q 1400 2872 2139 2705 
Q 2878 2538 3153 2413 
Q 3553 2228 3743 1945 
Q 3934 1663 3934 1294 
Q 3934 928 3725 604 
Q 3516 281 3123 101 
Q 2731 -78 2241 -78 
Q 1619 -78 1198 103 
Q 778 284 539 648 
Q 300 1013 288 1472 
z
" transform="scale(0.015625)"/>
      <path id="ArialMT-68" d="M 422 0 
L 422 4581 
L 984 4581 
L 984 2938 
Q 1378 3394 1978 3394 
Q 2347 3394 2619 3248 
Q 2891 3103 3008 2847 
Q 3125 2591 3125 2103 
L 3125 0 
L 2563 0 
L 2563 2103 
Q 2563 2525 2380 2717 
Q 2197 2909 1863 2909 
Q 1613 2909 1392 2779 
Q 1172 2650 1078 2428 
Q 984 2206 984 1816 
L 984 0 
L 422 0 
z
" transform="scale(0.015625)"/>
      <path id="ArialMT-75" d="M 2597 0 
L 2597 488 
Q 2209 -75 1544 -75 
Q 1250 -75 995 37 
Q 741 150 617 320 
Q 494 491 444 738 
Q 409 903 409 1263 
L 409 3319 
L 972 3319 
L 972 1478 
Q 972 1038 1006 884 
Q 1059 663 1231 536 
Q 1403 409 1656 409 
Q 1909 409 2131 539 
Q 2353 669 2445 892 
Q 2538 1116 2538 1541 
L 2538 3319 
L 3100 3319 
L 3100 0 
L 2597 0 
z
" transform="scale(0.015625)"/>
      <path id="ArialMT-66" d="M 556 0 
L 556 2881 
L 59 2881 
L 59 3319 
L 556 3319 
L 556 3672 
Q 556 4006 616 4169 
Q 697 4388 901 4523 
Q 1106 4659 1475 4659 
Q 1713 4659 2000 4603 
L 1916 4113 
Q 1741 4144 1584 4144 
Q 1328 4144 1222 4034 
Q 1116 3925 1116 3625 
L 1116 3319 
L 1763 3319 
L 1763 2881 
L 1116 2881 
L 1116 0 
L 556 0 
z
" transform="scale(0.015625)"/>
      <path id="ArialMT-64" d="M 2575 0 
L 2575 419 
Q 2259 -75 1647 -75 
Q 1250 -75 917 144 
Q 584 363 401 755 
Q 219 1147 219 1656 
Q 219 2153 384 2558 
Q 550 2963 881 3178 
Q 1213 3394 1622 3394 
Q 1922 3394 2156 3267 
Q 2391 3141 2538 2938 
L 2538 4581 
L 3097 4581 
L 3097 0 
L 2575 0 
z
M 797 1656 
Q 797 1019 1065 703 
Q 1334 388 1700 388 
Q 2069 388 2326 689 
Q 2584 991 2584 1609 
Q 2584 2291 2321 2609 
Q 2059 2928 1675 2928 
Q 1300 2928 1048 2622 
Q 797 2316 797 1656 
z
" transform="scale(0.015625)"/>
     </defs>
     <use xlink:href="#ArialMT-44"/>
     <use xlink:href="#ArialMT-69" x="72.216797"/>
     <use xlink:href="#ArialMT-76" x="94.433594"/>
     <use xlink:href="#ArialMT-65" x="144.433594"/>
     <use xlink:href="#ArialMT-72" x="200.048828"/>
     <use xlink:href="#ArialMT-67" x="233.349609"/>
     <use xlink:href="#ArialMT-65" x="288.964844"/>
     <use xlink:href="#ArialMT-6e" x="344.580078"/>
     <use xlink:href="#ArialMT-63" x="400.195312"/>
     <use xlink:href="#ArialMT-65" x="450.195312"/>
     <use xlink:href="#ArialMT-20" x="505.810547"/>
     <use xlink:href="#ArialMT-43" x="533.59375"/>
     <use xlink:href="#ArialMT-6f" x="605.810547"/>
     <use xlink:href="#ArialMT-6d" x="661.425781"/>
     <use xlink:href="#ArialMT-70" x="744.726562"/>
     <use xlink:href="#ArialMT-61" x="800.341797"/>
     <use xlink:href="#ArialMT-72" x="855.957031"/>
     <use xlink:href="#ArialMT-69" x="889.257812"/>
     <use xlink:href="#ArialMT-73" x="911.474609"/>
     <use xlink:href="#ArialMT-6f" x="961.474609"/>
     <use xlink:href="#ArialMT-6e" x="1017.089844"/>
     <use xlink:href="#ArialMT-3a" x="1072.705078"/>
     <use xlink:href="#ArialMT-20" x="1100.488281"/>
     <use xlink:href="#ArialMT-4f" x="1128.271484"/>
     <use xlink:href="#ArialMT-72" x="1206.054688"/>
     <use xlink:href="#ArialMT-69" x="1239.355469"/>
     <use xlink:href="#ArialMT-67" x="1261.572266"/>
     <use xlink:href="#ArialMT-69" x="1317.1875"/>
     <use xlink:href="#ArialMT-6e" x="1339.404297"/>
     <use xlink:href="#ArialMT-61" x="1395.019531"/>
     <use xlink:href="#ArialMT-6c" x="1450.634766"/>
     <use xlink:href="#ArialMT-20" x="1472.851562"/>
     <use xlink:href="#ArialMT-76" x="1500.634766"/>
     <use xlink:href="#ArialMT-73" x="1550.634766"/>
     <use xlink:href="#ArialMT-20" x="1600.634766"/>
     <use xlink:href="#ArialMT-53" x="1628.417969"/>
     <use xlink:href="#ArialMT-68" x="1695.117188"/>
     <use xlink:href="#ArialMT-75" x="1750.732422"/>
     <use xlink:href="#ArialMT-66" x="1806.347656"/>
     <use xlink:href="#ArialMT-66" x="1832.380859"/>
     <use xlink:href="#ArialMT-6c" x="1860.164062"/>
     <use xlink:href="#ArialMT-65" x="1882.380859"/>
     <use xlink:href="#ArialMT-64" x="1937.996094"/>
    </g>
   </g>
   <g id="legend_1">
    <g id="patch_5">
     <path d="M 615.14 259.415469 
L 704.741875 259.415469 
Q 706.941875 259.415469 706.941875 257.215469 
L 706.941875 148.284531 
Q 706.941875 146.084531 704.741875 146.084531 
L 615.14 146.084531 
Q 612.94 146.084531 612.94 148.284531 
L 612.94 257.215469 
Q 612.94 259.415469 615.14 259.415469 
z
" style="fill: #ffffff; opacity: 0.8; stroke: #cccccc; stroke-linejoin: miter"/>
    </g>
    <g id="line2d_26">
     <path d="M 617.34 154.649062 
L 628.34 154.649062 
L 639.34 154.649062 
" style="fill: none; stroke: #eb6ab0; stroke-width: 2; stroke-linecap: round"/>
    </g>
    <g id="text_21">
     <!-- Original -->
     <g style="fill: #262626" transform="translate(648.14 158.499062) scale(0.11 -0.11)">
      <use xlink:href="#ArialMT-4f"/>
      <use xlink:href="#ArialMT-72" x="77.783203"/>
      <use xlink:href="#ArialMT-69" x="111.083984"/>
      <use xlink:href="#ArialMT-67" x="133.300781"/>
      <use xlink:href="#ArialMT-69" x="188.916016"/>
      <use xlink:href="#ArialMT-6e" x="211.132812"/>
      <use xlink:href="#ArialMT-61" x="266.748047"/>
      <use xlink:href="#ArialMT-6c" x="322.363281"/>
     </g>
    </g>
    <g id="line2d_27">
     <path d="M 617.34 170.47875 
L 628.34 170.47875 
L 639.34 170.47875 
" style="fill: none; stroke-dasharray: 7.4,3.2; stroke-dashoffset: 0; stroke: #eb6ab0; stroke-width: 2"/>
    </g>
    <g id="text_22">
     <!-- Original -->
     <g style="fill: #262626" transform="translate(648.14 174.32875) scale(0.11 -0.11)">
      <use xlink:href="#ArialMT-4f"/>
      <use xlink:href="#ArialMT-72" x="77.783203"/>
      <use xlink:href="#ArialMT-69" x="111.083984"/>
      <use xlink:href="#ArialMT-67" x="133.300781"/>
      <use xlink:href="#ArialMT-69" x="188.916016"/>
      <use xlink:href="#ArialMT-6e" x="211.132812"/>
      <use xlink:href="#ArialMT-61" x="266.748047"/>
      <use xlink:href="#ArialMT-6c" x="322.363281"/>
     </g>
    </g>
    <g id="PathCollection_3">
     <g>
      <use xlink:href="#meb560faab8" x="628.34" y="187.162656" style="fill: #eb6ab0; stroke: #eb6ab0"/>
     </g>
    </g>
    <g id="text_23">
     <!-- p &lt; 0.001 -->
     <g style="fill: #262626" transform="translate(648.14 190.050156) scale(0.11 -0.11)">
      <defs>
       <path id="ArialMT-3c" d="M 350 2003 
L 350 2528 
L 3384 3809 
L 3384 3250 
L 978 2263 
L 3384 1266 
L 3384 706 
L 350 2003 
z
" transform="scale(0.015625)"/>
      </defs>
      <use xlink:href="#ArialMT-70"/>
      <use xlink:href="#ArialMT-20" x="55.615234"/>
      <use xlink:href="#ArialMT-3c" x="83.398438"/>
      <use xlink:href="#ArialMT-20" x="141.796875"/>
      <use xlink:href="#ArialMT-30" x="169.580078"/>
      <use xlink:href="#ArialMT-2e" x="225.195312"/>
      <use xlink:href="#ArialMT-30" x="252.978516"/>
      <use xlink:href="#ArialMT-30" x="308.59375"/>
      <use xlink:href="#ArialMT-31" x="364.208984"/>
     </g>
    </g>
    <g id="line2d_28">
     <path d="M 617.34 201.76 
L 628.34 201.76 
L 639.34 201.76 
" style="fill: none; stroke-dasharray: 5.55,2.4; stroke-dashoffset: 0; stroke: #1a1a1a; stroke-width: 1.5"/>
    </g>
    <g id="text_24">
     <!-- Stim Onset -->
     <g style="fill: #262626" transform="translate(648.14 205.61) scale(0.11 -0.11)">
      <defs>
       <path id="ArialMT-74" d="M 1650 503 
L 1731 6 
Q 1494 -44 1306 -44 
Q 1000 -44 831 53 
Q 663 150 594 308 
Q 525 466 525 972 
L 525 2881 
L 113 2881 
L 113 3319 
L 525 3319 
L 525 4141 
L 1084 4478 
L 1084 3319 
L 1650 3319 
L 1650 2881 
L 1084 2881 
L 1084 941 
Q 1084 700 1114 631 
Q 1144 563 1211 522 
Q 1278 481 1403 481 
Q 1497 481 1650 503 
z
" transform="scale(0.015625)"/>
      </defs>
      <use xlink:href="#ArialMT-53"/>
      <use xlink:href="#ArialMT-74" x="66.699219"/>
      <use xlink:href="#ArialMT-69" x="94.482422"/>
      <use xlink:href="#ArialMT-6d" x="116.699219"/>
      <use xlink:href="#ArialMT-20" x="200"/>
      <use xlink:href="#ArialMT-4f" x="227.783203"/>
      <use xlink:href="#ArialMT-6e" x="305.566406"/>
      <use xlink:href="#ArialMT-73" x="361.181641"/>
      <use xlink:href="#ArialMT-65" x="411.181641"/>
      <use xlink:href="#ArialMT-74" x="466.796875"/>
     </g>
    </g>
    <g id="line2d_29">
     <path d="M 617.34 217.319844 
L 628.34 217.319844 
L 639.34 217.319844 
" style="fill: none; stroke-dasharray: 5.55,2.4; stroke-dashoffset: 0; stroke: #1a1a1a; stroke-width: 1.5"/>
    </g>
    <g id="text_25">
     <!-- Stim End -->
     <g style="fill: #262626" transform="translate(648.14 221.169844) scale(0.11 -0.11)">
      <defs>
       <path id="ArialMT-45" d="M 506 0 
L 506 4581 
L 3819 4581 
L 3819 4041 
L 1113 4041 
L 1113 2638 
L 3647 2638 
L 3647 2100 
L 1113 2100 
L 1113 541 
L 3925 541 
L 3925 0 
L 506 0 
z
" transform="scale(0.015625)"/>
      </defs>
      <use xlink:href="#ArialMT-53"/>
      <use xlink:href="#ArialMT-74" x="66.699219"/>
      <use xlink:href="#ArialMT-69" x="94.482422"/>
      <use xlink:href="#ArialMT-6d" x="116.699219"/>
      <use xlink:href="#ArialMT-20" x="200"/>
      <use xlink:href="#ArialMT-45" x="227.783203"/>
      <use xlink:href="#ArialMT-6e" x="294.482422"/>
      <use xlink:href="#ArialMT-64" x="350.097656"/>
     </g>
    </g>
    <g id="line2d_30">
     <path d="M 617.34 233.020625 
L 628.34 233.020625 
L 639.34 233.020625 
" style="fill: none; stroke: #8b0a50; stroke-width: 2; stroke-linecap: round"/>
    </g>
    <g id="text_26">
     <!-- Original -->
     <g style="fill: #262626" transform="translate(648.14 236.870625) scale(0.11 -0.11)">
      <use xlink:href="#ArialMT-4f"/>
      <use xlink:href="#ArialMT-72" x="77.783203"/>
      <use xlink:href="#ArialMT-69" x="111.083984"/>
      <use xlink:href="#ArialMT-67" x="133.300781"/>
      <use xlink:href="#ArialMT-69" x="188.916016"/>
      <use xlink:href="#ArialMT-6e" x="211.132812"/>
      <use xlink:href="#ArialMT-61" x="266.748047"/>
      <use xlink:href="#ArialMT-6c" x="322.363281"/>
     </g>
    </g>
    <g id="line2d_31">
     <path d="M 617.34 248.850313 
L 628.34 248.850313 
L 639.34 248.850313 
" style="fill: none; stroke-dasharray: 7.4,3.2; stroke-dashoffset: 0; stroke: #8b0a50; stroke-width: 2"/>
    </g>
    <g id="text_27">
     <!-- Original -->
     <g style="fill: #262626" transform="translate(648.14 252.700312) scale(0.11 -0.11)">
      <use xlink:href="#ArialMT-4f"/>
      <use xlink:href="#ArialMT-72" x="77.783203"/>
      <use xlink:href="#ArialMT-69" x="111.083984"/>
      <use xlink:href="#ArialMT-67" x="133.300781"/>
      <use xlink:href="#ArialMT-69" x="188.916016"/>
      <use xlink:href="#ArialMT-6e" x="211.132812"/>
      <use xlink:href="#ArialMT-61" x="266.748047"/>
      <use xlink:href="#ArialMT-6c" x="322.363281"/>
     </g>
    </g>
   </g>
  </g>
 </g>
 <defs>
  <clipPath id="pe169465efc">
   <rect x="85.835" y="26.96" width="521.605" height="351.58"/>
  </clipPath>
 </defs>
</svg>
