<?xml version="1.0" encoding="utf-8" standalone="no"?>
<!DOCTYPE svg PUBLIC "-//W3C//DTD SVG 1.1//EN"
  "http://www.w3.org/Graphics/SVG/1.1/DTD/svg11.dtd">
<svg xmlns:xlink="http://www.w3.org/1999/xlink" width="720pt" height="432pt" viewBox="0 0 720 432" xmlns="http://www.w3.org/2000/svg" version="1.1">
 <metadata>
  <rdf:RDF xmlns:dc="http://purl.org/dc/elements/1.1/" xmlns:cc="http://creativecommons.org/ns#" xmlns:rdf="http://www.w3.org/1999/02/22-rdf-syntax-ns#">
   <cc:Work>
    <dc:type rdf:resource="http://purl.org/dc/dcmitype/StillImage"/>
    <dc:date>2025-10-03T16:13:46.790838</dc:date>
    <dc:format>image/svg+xml</dc:format>
    <dc:creator>
     <cc:Agent>
      <dc:title>Matplotlib v3.9.4, https://matplotlib.org/</dc:title>
     </cc:Agent>
    </dc:creator>
   </cc:Work>
  </rdf:RDF>
 </metadata>
 <defs>
  <style type="text/css">*{stroke-linejoin: round; stroke-linecap: butt}</style>
 </defs>
 <g id="figure_1">
  <g id="patch_1">
   <path d="M 0 432 
L 720 432 
L 720 0 
L 0 0 
z
" style="fill: #ffffff"/>
  </g>
  <g id="axes_1">
   <g id="patch_2">
    <path d="M 78.46 377.54 
L 607.44 377.54 
L 607.44 26.96 
L 78.46 26.96 
L 78.46 377.54 
z
" style="fill: none"/>
   </g>
   <g id="matplotlib.axis_1">
    <g id="xtick_1">
     <g id="text_1">
      <!-- −250 -->
      <g style="fill: #262626" transform="translate(98.823256 397.776719) scale(0.15 -0.15)">
       <defs>
        <path id="ArialMT-2212" d="M 3381 1997 
L 356 1997 
L 356 2522 
L 3381 2522 
L 3381 1997 
z
" transform="scale(0.015625)"/>
        <path id="ArialMT-32" d="M 3222 541 
L 3222 0 
L 194 0 
Q 188 203 259 391 
Q 375 700 629 1000 
Q 884 1300 1366 1694 
Q 2113 2306 2375 2664 
Q 2638 3022 2638 3341 
Q 2638 3675 2398 3904 
Q 2159 4134 1775 4134 
Q 1369 4134 1125 3890 
Q 881 3647 878 3216 
L 300 3275 
Q 359 3922 746 4261 
Q 1134 4600 1788 4600 
Q 2447 4600 2831 4234 
Q 3216 3869 3216 3328 
Q 3216 3053 3103 2787 
Q 2991 2522 2730 2228 
Q 2469 1934 1863 1422 
Q 1356 997 1212 845 
Q 1069 694 975 541 
L 3222 541 
z
" transform="scale(0.015625)"/>
        <path id="ArialMT-35" d="M 266 1200 
L 856 1250 
Q 922 819 1161 601 
Q 1400 384 1738 384 
Q 2144 384 2425 690 
Q 2706 997 2706 1503 
Q 2706 1984 2436 2262 
Q 2166 2541 1728 2541 
Q 1456 2541 1237 2417 
Q 1019 2294 894 2097 
L 366 2166 
L 809 4519 
L 3088 4519 
L 3088 3981 
L 1259 3981 
L 1013 2750 
Q 1425 3038 1878 3038 
Q 2478 3038 2890 2622 
Q 3303 2206 3303 1553 
Q 3303 931 2941 478 
Q 2500 -78 1738 -78 
Q 1113 -78 717 272 
Q 322 622 266 1200 
z
" transform="scale(0.015625)"/>
        <path id="ArialMT-30" d="M 266 2259 
Q 266 3072 433 3567 
Q 600 4063 929 4331 
Q 1259 4600 1759 4600 
Q 2128 4600 2406 4451 
Q 2684 4303 2865 4023 
Q 3047 3744 3150 3342 
Q 3253 2941 3253 2259 
Q 3253 1453 3087 958 
Q 2922 463 2592 192 
Q 2263 -78 1759 -78 
Q 1097 -78 719 397 
Q 266 969 266 2259 
z
M 844 2259 
Q 844 1131 1108 757 
Q 1372 384 1759 384 
Q 2147 384 2411 759 
Q 2675 1134 2675 2259 
Q 2675 3391 2411 3762 
Q 2147 4134 1753 4134 
Q 1366 4134 1134 3806 
Q 844 3388 844 2259 
z
" transform="scale(0.015625)"/>
       </defs>
       <use xlink:href="#ArialMT-2212"/>
       <use xlink:href="#ArialMT-32" x="58.398438"/>
       <use xlink:href="#ArialMT-35" x="114.013672"/>
       <use xlink:href="#ArialMT-30" x="169.628906"/>
      </g>
     </g>
    </g>
    <g id="xtick_2">
     <g id="text_2">
      <!-- 0 -->
      <g style="fill: #262626" transform="translate(177.601575 397.776719) scale(0.15 -0.15)">
       <use xlink:href="#ArialMT-30"/>
      </g>
     </g>
    </g>
    <g id="xtick_3">
     <g id="text_3">
      <!-- 250 -->
      <g style="fill: #262626" transform="translate(235.316612 397.776719) scale(0.15 -0.15)">
       <use xlink:href="#ArialMT-32"/>
       <use xlink:href="#ArialMT-35" x="55.615234"/>
       <use xlink:href="#ArialMT-30" x="111.230469"/>
      </g>
     </g>
    </g>
    <g id="xtick_4">
     <g id="text_4">
      <!-- 500 -->
      <g style="fill: #262626" transform="translate(301.373055 397.776719) scale(0.15 -0.15)">
       <use xlink:href="#ArialMT-35"/>
       <use xlink:href="#ArialMT-30" x="55.615234"/>
       <use xlink:href="#ArialMT-30" x="111.230469"/>
      </g>
     </g>
    </g>
    <g id="xtick_5">
     <g id="text_5">
      <!-- 750 -->
      <g style="fill: #262626" transform="translate(367.429499 397.776719) scale(0.15 -0.15)">
       <defs>
        <path id="ArialMT-37" d="M 303 3981 
L 303 4522 
L 3269 4522 
L 3269 4084 
Q 2831 3619 2401 2847 
Q 1972 2075 1738 1259 
Q 1569 684 1522 0 
L 944 0 
Q 953 541 1156 1306 
Q 1359 2072 1739 2783 
Q 2119 3494 2547 3981 
L 303 3981 
z
" transform="scale(0.015625)"/>
       </defs>
       <use xlink:href="#ArialMT-37"/>
       <use xlink:href="#ArialMT-35" x="55.615234"/>
       <use xlink:href="#ArialMT-30" x="111.230469"/>
      </g>
     </g>
    </g>
    <g id="xtick_6">
     <g id="text_6">
      <!-- 1000 -->
      <g style="fill: #262626" transform="translate(429.315239 397.776719) scale(0.15 -0.15)">
       <defs>
        <path id="ArialMT-31" d="M 2384 0 
L 1822 0 
L 1822 3584 
Q 1619 3391 1289 3197 
Q 959 3003 697 2906 
L 697 3450 
Q 1169 3672 1522 3987 
Q 1875 4303 2022 4600 
L 2384 4600 
L 2384 0 
z
" transform="scale(0.015625)"/>
       </defs>
       <use xlink:href="#ArialMT-31"/>
       <use xlink:href="#ArialMT-30" x="55.615234"/>
       <use xlink:href="#ArialMT-30" x="111.230469"/>
       <use xlink:href="#ArialMT-30" x="166.845703"/>
      </g>
     </g>
    </g>
    <g id="xtick_7">
     <g id="text_7">
      <!-- 1250 -->
      <g style="fill: #262626" transform="translate(495.371683 397.776719) scale(0.15 -0.15)">
       <use xlink:href="#ArialMT-31"/>
       <use xlink:href="#ArialMT-32" x="55.615234"/>
       <use xlink:href="#ArialMT-35" x="111.230469"/>
       <use xlink:href="#ArialMT-30" x="166.845703"/>
      </g>
     </g>
    </g>
    <g id="xtick_8">
     <g id="text_8">
      <!-- 1500 -->
      <g style="fill: #262626" transform="translate(561.428127 397.776719) scale(0.15 -0.15)">
       <use xlink:href="#ArialMT-31"/>
       <use xlink:href="#ArialMT-35" x="55.615234"/>
       <use xlink:href="#ArialMT-30" x="111.230469"/>
       <use xlink:href="#ArialMT-30" x="166.845703"/>
      </g>
     </g>
    </g>
    <g id="text_9">
     <!-- Time (s) -->
     <g style="fill: #262626" transform="translate(315.737891 415.6775) scale(0.15 -0.15)">
      <defs>
       <path id="ArialMT-54" d="M 1659 0 
L 1659 4041 
L 150 4041 
L 150 4581 
L 3781 4581 
L 3781 4041 
L 2266 4041 
L 2266 0 
L 1659 0 
z
" transform="scale(0.015625)"/>
       <path id="ArialMT-69" d="M 425 3934 
L 425 4581 
L 988 4581 
L 988 3934 
L 425 3934 
z
M 425 0 
L 425 3319 
L 988 3319 
L 988 0 
L 425 0 
z
" transform="scale(0.015625)"/>
       <path id="ArialMT-6d" d="M 422 0 
L 422 3319 
L 925 3319 
L 925 2853 
Q 1081 3097 1340 3245 
Q 1600 3394 1931 3394 
Q 2300 3394 2536 3241 
Q 2772 3088 2869 2813 
Q 3263 3394 3894 3394 
Q 4388 3394 4653 3120 
Q 4919 2847 4919 2278 
L 4919 0 
L 4359 0 
L 4359 2091 
Q 4359 2428 4304 2576 
Q 4250 2725 4106 2815 
Q 3963 2906 3769 2906 
Q 3419 2906 3187 2673 
Q 2956 2441 2956 1928 
L 2956 0 
L 2394 0 
L 2394 2156 
Q 2394 2531 2256 2718 
Q 2119 2906 1806 2906 
Q 1569 2906 1367 2781 
Q 1166 2656 1075 2415 
Q 984 2175 984 1722 
L 984 0 
L 422 0 
z
" transform="scale(0.015625)"/>
       <path id="ArialMT-65" d="M 2694 1069 
L 3275 997 
Q 3138 488 2766 206 
Q 2394 -75 1816 -75 
Q 1088 -75 661 373 
Q 234 822 234 1631 
Q 234 2469 665 2931 
Q 1097 3394 1784 3394 
Q 2450 3394 2872 2941 
Q 3294 2488 3294 1666 
Q 3294 1616 3291 1516 
L 816 1516 
Q 847 969 1125 678 
Q 1403 388 1819 388 
Q 2128 388 2347 550 
Q 2566 713 2694 1069 
z
M 847 1978 
L 2700 1978 
Q 2663 2397 2488 2606 
Q 2219 2931 1791 2931 
Q 1403 2931 1139 2672 
Q 875 2413 847 1978 
z
" transform="scale(0.015625)"/>
       <path id="ArialMT-20" transform="scale(0.015625)"/>
       <path id="ArialMT-28" d="M 1497 -1347 
Q 1031 -759 709 28 
Q 388 816 388 1659 
Q 388 2403 628 3084 
Q 909 3875 1497 4659 
L 1900 4659 
Q 1522 4009 1400 3731 
Q 1209 3300 1100 2831 
Q 966 2247 966 1656 
Q 966 153 1900 -1347 
L 1497 -1347 
z
" transform="scale(0.015625)"/>
       <path id="ArialMT-73" d="M 197 991 
L 753 1078 
Q 800 744 1014 566 
Q 1228 388 1613 388 
Q 2000 388 2187 545 
Q 2375 703 2375 916 
Q 2375 1106 2209 1216 
Q 2094 1291 1634 1406 
Q 1016 1563 777 1677 
Q 538 1791 414 1992 
Q 291 2194 291 2438 
Q 291 2659 392 2848 
Q 494 3038 669 3163 
Q 800 3259 1026 3326 
Q 1253 3394 1513 3394 
Q 1903 3394 2198 3281 
Q 2494 3169 2634 2976 
Q 2775 2784 2828 2463 
L 2278 2388 
Q 2241 2644 2061 2787 
Q 1881 2931 1553 2931 
Q 1166 2931 1000 2803 
Q 834 2675 834 2503 
Q 834 2394 903 2306 
Q 972 2216 1119 2156 
Q 1203 2125 1616 2013 
Q 2213 1853 2448 1751 
Q 2684 1650 2818 1456 
Q 2953 1263 2953 975 
Q 2953 694 2789 445 
Q 2625 197 2315 61 
Q 2006 -75 1616 -75 
Q 969 -75 630 194 
Q 291 463 197 991 
z
" transform="scale(0.015625)"/>
       <path id="ArialMT-29" d="M 791 -1347 
L 388 -1347 
Q 1322 153 1322 1656 
Q 1322 2244 1188 2822 
Q 1081 3291 891 3722 
Q 769 4003 388 4659 
L 791 4659 
Q 1378 3875 1659 3084 
Q 1900 2403 1900 1659 
Q 1900 816 1576 28 
Q 1253 -759 791 -1347 
z
" transform="scale(0.015625)"/>
      </defs>
      <use xlink:href="#ArialMT-54"/>
      <use xlink:href="#ArialMT-69" x="57.333984"/>
      <use xlink:href="#ArialMT-6d" x="79.550781"/>
      <use xlink:href="#ArialMT-65" x="162.851562"/>
      <use xlink:href="#ArialMT-20" x="218.466797"/>
      <use xlink:href="#ArialMT-28" x="246.25"/>
      <use xlink:href="#ArialMT-73" x="279.550781"/>
      <use xlink:href="#ArialMT-29" x="329.550781"/>
     </g>
    </g>
   </g>
   <g id="matplotlib.axis_2">
    <g id="ytick_1">
     <g id="text_10">
      <!-- −0.05 -->
      <g style="fill: #262626" transform="translate(31.007656 338.558142) scale(0.15 -0.15)">
       <defs>
        <path id="ArialMT-2e" d="M 581 0 
L 581 641 
L 1222 641 
L 1222 0 
L 581 0 
z
" transform="scale(0.015625)"/>
       </defs>
       <use xlink:href="#ArialMT-2212"/>
       <use xlink:href="#ArialMT-30" x="58.398438"/>
       <use xlink:href="#ArialMT-2e" x="114.013672"/>
       <use xlink:href="#ArialMT-30" x="141.796875"/>
       <use xlink:href="#ArialMT-35" x="197.412109"/>
      </g>
     </g>
    </g>
    <g id="ytick_2">
     <g id="text_11">
      <!-- 0.00 -->
      <g style="fill: #262626" transform="translate(39.768594 294.067356) scale(0.15 -0.15)">
       <use xlink:href="#ArialMT-30"/>
       <use xlink:href="#ArialMT-2e" x="55.615234"/>
       <use xlink:href="#ArialMT-30" x="83.398438"/>
       <use xlink:href="#ArialMT-30" x="139.013672"/>
      </g>
     </g>
    </g>
    <g id="ytick_3">
     <g id="text_12">
      <!-- 0.05 -->
      <g style="fill: #262626" transform="translate(39.768594 249.576569) scale(0.15 -0.15)">
       <use xlink:href="#ArialMT-30"/>
       <use xlink:href="#ArialMT-2e" x="55.615234"/>
       <use xlink:href="#ArialMT-30" x="83.398438"/>
       <use xlink:href="#ArialMT-35" x="139.013672"/>
      </g>
     </g>
    </g>
    <g id="ytick_4">
     <g id="text_13">
      <!-- 0.10 -->
      <g style="fill: #262626" transform="translate(39.768594 205.085783) scale(0.15 -0.15)">
       <use xlink:href="#ArialMT-30"/>
       <use xlink:href="#ArialMT-2e" x="55.615234"/>
       <use xlink:href="#ArialMT-31" x="83.398438"/>
       <use xlink:href="#ArialMT-30" x="139.013672"/>
      </g>
     </g>
    </g>
    <g id="ytick_5">
     <g id="text_14">
      <!-- 0.15 -->
      <g style="fill: #262626" transform="translate(39.768594 160.594997) scale(0.15 -0.15)">
       <use xlink:href="#ArialMT-30"/>
       <use xlink:href="#ArialMT-2e" x="55.615234"/>
       <use xlink:href="#ArialMT-31" x="83.398438"/>
       <use xlink:href="#ArialMT-35" x="139.013672"/>
      </g>
     </g>
    </g>
    <g id="ytick_6">
     <g id="text_15">
      <!-- 0.20 -->
      <g style="fill: #262626" transform="translate(39.768594 116.104211) scale(0.15 -0.15)">
       <use xlink:href="#ArialMT-30"/>
       <use xlink:href="#ArialMT-2e" x="55.615234"/>
       <use xlink:href="#ArialMT-32" x="83.398438"/>
       <use xlink:href="#ArialMT-30" x="139.013672"/>
      </g>
     </g>
    </g>
    <g id="ytick_7">
     <g id="text_16">
      <!-- 0.25 -->
      <g style="fill: #262626" transform="translate(39.768594 71.613425) scale(0.15 -0.15)">
       <use xlink:href="#ArialMT-30"/>
       <use xlink:href="#ArialMT-2e" x="55.615234"/>
       <use xlink:href="#ArialMT-32" x="83.398438"/>
       <use xlink:href="#ArialMT-35" x="139.013672"/>
      </g>
     </g>
    </g>
    <g id="text_17">
     <!-- Divergence -->
     <g style="fill: #262626" transform="translate(23.850625 240.183594) rotate(-90) scale(0.15 -0.15)">
      <defs>
       <path id="ArialMT-44" d="M 494 0 
L 494 4581 
L 2072 4581 
Q 2606 4581 2888 4516 
Q 3281 4425 3559 4188 
Q 3922 3881 4101 3404 
Q 4281 2928 4281 2316 
Q 4281 1794 4159 1391 
Q 4038 988 3847 723 
Q 3656 459 3429 307 
Q 3203 156 2883 78 
Q 2563 0 2147 0 
L 494 0 
z
M 1100 541 
L 2078 541 
Q 2531 541 2789 625 
Q 3047 709 3200 863 
Q 3416 1078 3536 1442 
Q 3656 1806 3656 2325 
Q 3656 3044 3420 3430 
Q 3184 3816 2847 3947 
Q 2603 4041 2063 4041 
L 1100 4041 
L 1100 541 
z
" transform="scale(0.015625)"/>
       <path id="ArialMT-76" d="M 1344 0 
L 81 3319 
L 675 3319 
L 1388 1331 
Q 1503 1009 1600 663 
Q 1675 925 1809 1294 
L 2547 3319 
L 3125 3319 
L 1869 0 
L 1344 0 
z
" transform="scale(0.015625)"/>
       <path id="ArialMT-72" d="M 416 0 
L 416 3319 
L 922 3319 
L 922 2816 
Q 1116 3169 1280 3281 
Q 1444 3394 1641 3394 
Q 1925 3394 2219 3213 
L 2025 2691 
Q 1819 2813 1613 2813 
Q 1428 2813 1281 2702 
Q 1134 2591 1072 2394 
Q 978 2094 978 1738 
L 978 0 
L 416 0 
z
" transform="scale(0.015625)"/>
       <path id="ArialMT-67" d="M 319 -275 
L 866 -356 
Q 900 -609 1056 -725 
Q 1266 -881 1628 -881 
Q 2019 -881 2231 -725 
Q 2444 -569 2519 -288 
Q 2563 -116 2559 434 
Q 2191 0 1641 0 
Q 956 0 581 494 
Q 206 988 206 1678 
Q 206 2153 378 2554 
Q 550 2956 876 3175 
Q 1203 3394 1644 3394 
Q 2231 3394 2613 2919 
L 2613 3319 
L 3131 3319 
L 3131 450 
Q 3131 -325 2973 -648 
Q 2816 -972 2473 -1159 
Q 2131 -1347 1631 -1347 
Q 1038 -1347 672 -1080 
Q 306 -813 319 -275 
z
M 784 1719 
Q 784 1066 1043 766 
Q 1303 466 1694 466 
Q 2081 466 2343 764 
Q 2606 1063 2606 1700 
Q 2606 2309 2336 2618 
Q 2066 2928 1684 2928 
Q 1309 2928 1046 2623 
Q 784 2319 784 1719 
z
" transform="scale(0.015625)"/>
       <path id="ArialMT-6e" d="M 422 0 
L 422 3319 
L 928 3319 
L 928 2847 
Q 1294 3394 1984 3394 
Q 2284 3394 2536 3286 
Q 2788 3178 2913 3003 
Q 3038 2828 3088 2588 
Q 3119 2431 3119 2041 
L 3119 0 
L 2556 0 
L 2556 2019 
Q 2556 2363 2490 2533 
Q 2425 2703 2258 2804 
Q 2091 2906 1866 2906 
Q 1506 2906 1245 2678 
Q 984 2450 984 1813 
L 984 0 
L 422 0 
z
" transform="scale(0.015625)"/>
       <path id="ArialMT-63" d="M 2588 1216 
L 3141 1144 
Q 3050 572 2676 248 
Q 2303 -75 1759 -75 
Q 1078 -75 664 370 
Q 250 816 250 1647 
Q 250 2184 428 2587 
Q 606 2991 970 3192 
Q 1334 3394 1763 3394 
Q 2303 3394 2647 3120 
Q 2991 2847 3088 2344 
L 2541 2259 
Q 2463 2594 2264 2762 
Q 2066 2931 1784 2931 
Q 1359 2931 1093 2626 
Q 828 2322 828 1663 
Q 828 994 1084 691 
Q 1341 388 1753 388 
Q 2084 388 2306 591 
Q 2528 794 2588 1216 
z
" transform="scale(0.015625)"/>
      </defs>
      <use xlink:href="#ArialMT-44"/>
      <use xlink:href="#ArialMT-69" x="72.216797"/>
      <use xlink:href="#ArialMT-76" x="94.433594"/>
      <use xlink:href="#ArialMT-65" x="144.433594"/>
      <use xlink:href="#ArialMT-72" x="200.048828"/>
      <use xlink:href="#ArialMT-67" x="233.349609"/>
      <use xlink:href="#ArialMT-65" x="288.964844"/>
      <use xlink:href="#ArialMT-6e" x="344.580078"/>
      <use xlink:href="#ArialMT-63" x="400.195312"/>
      <use xlink:href="#ArialMT-65" x="450.195312"/>
     </g>
    </g>
   </g>
   <g id="PolyCollection_1">
    <defs>
     <path id="m43fea257e8" d="M 102.504545 -203.040979 
L 102.504545 -164.464683 
L 107.789061 -142.234012 
L 113.073576 -138.585856 
L 118.358092 -148.880344 
L 123.642607 -138.91148 
L 128.927123 -147.852558 
L 134.211638 -140.098863 
L 139.496154 -129.265042 
L 144.780669 -142.463728 
L 150.065185 -141.263904 
L 155.3497 -153.31396 
L 160.634216 -131.591389 
L 165.918731 -146.222177 
L 171.203247 -150.116113 
L 176.487762 -153.347782 
L 181.772278 -173.870042 
L 187.056793 -168.752936 
L 192.341309 -160.383632 
L 197.625824 -151.924039 
L 202.91034 -155.351044 
L 208.194855 -155.043714 
L 213.479371 -158.177233 
L 218.763886 -170.084726 
L 224.048402 -161.412978 
L 229.332917 -153.168214 
L 234.617433 -144.366104 
L 239.901948 -147.783717 
L 245.186464 -140.093657 
L 250.470979 -145.74302 
L 255.755495 -141.663504 
L 261.04001 -148.929762 
L 266.324525 -126.917636 
L 271.609041 -130.129788 
L 276.893556 -139.931671 
L 282.178072 -142.474679 
L 287.462587 -153.752036 
L 292.747103 -156.304848 
L 298.031618 -147.911864 
L 303.316134 -149.845367 
L 308.600649 -167.637469 
L 313.885165 -159.514144 
L 319.16968 -159.733014 
L 324.454196 -164.766542 
L 329.738711 -148.002273 
L 335.023227 -149.622398 
L 340.307742 -153.985797 
L 345.592258 -157.733152 
L 350.876773 -172.568732 
L 356.161289 -172.037292 
L 361.445804 -169.531489 
L 366.73032 -175.676821 
L 372.014835 -165.448866 
L 377.299351 -153.599843 
L 382.583866 -139.19083 
L 387.868382 -155.373724 
L 393.152897 -155.386369 
L 398.437413 -146.56766 
L 403.721928 -153.392617 
L 409.006444 -155.717963 
L 414.290959 -150.321403 
L 419.575475 -145.676659 
L 424.85999 -133.924434 
L 430.144505 -137.179933 
L 435.429021 -152.253999 
L 440.713536 -131.23517 
L 445.998052 -127.987628 
L 451.282567 -150.062787 
L 456.567083 -142.312283 
L 461.851598 -80.292969 
L 467.136114 -115.691931 
L 472.420629 -159.492042 
L 477.705145 -142.941152 
L 482.98966 -133.06076 
L 488.274176 -110.845241 
L 493.558691 -119.058186 
L 498.843207 -146.659618 
L 504.127722 -162.70518 
L 509.412238 -157.911359 
L 514.696753 -143.378919 
L 519.981269 -149.791187 
L 525.265784 -139.567527 
L 530.5503 -131.221309 
L 535.834815 -134.211509 
L 541.119331 -150.961542 
L 546.403846 -145.991353 
L 551.688362 -142.578195 
L 556.972877 -138.557568 
L 562.257393 -137.235373 
L 567.541908 -131.324065 
L 572.826424 -137.240206 
L 578.110939 -145.800405 
L 583.395455 -145.465584 
L 583.395455 -162.050204 
L 583.395455 -162.050204 
L 578.110939 -159.75604 
L 572.826424 -154.146379 
L 567.541908 -149.359393 
L 562.257393 -153.569008 
L 556.972877 -154.877922 
L 551.688362 -157.407089 
L 546.403846 -161.80749 
L 541.119331 -164.723478 
L 535.834815 -149.521032 
L 530.5503 -146.670455 
L 525.265784 -156.54458 
L 519.981269 -184.810708 
L 514.696753 -159.217941 
L 509.412238 -172.498921 
L 504.127722 -177.026334 
L 498.843207 -164.00424 
L 493.558691 -139.586584 
L 488.274176 -131.949329 
L 482.98966 -152.178414 
L 477.705145 -159.530349 
L 472.420629 -175.334321 
L 467.136114 -149.809996 
L 461.851598 -123.931084 
L 456.567083 -170.368649 
L 451.282567 -173.979621 
L 445.998052 -143.585934 
L 440.713536 -153.515382 
L 435.429021 -176.963162 
L 430.144505 -165.716929 
L 424.85999 -158.920257 
L 419.575475 -169.441336 
L 414.290959 -168.78027 
L 409.006444 -173.980793 
L 403.721928 -172.318852 
L 398.437413 -167.231875 
L 393.152897 -174.725786 
L 387.868382 -173.702656 
L 382.583866 -159.224051 
L 377.299351 -170.494622 
L 372.014835 -181.934655 
L 366.73032 -193.936133 
L 361.445804 -189.925757 
L 356.161289 -193.493109 
L 350.876773 -193.997279 
L 345.592258 -175.070583 
L 340.307742 -170.810165 
L 335.023227 -166.806781 
L 329.738711 -167.053541 
L 324.454196 -183.347389 
L 319.16968 -176.444026 
L 313.885165 -177.855165 
L 308.600649 -185.540501 
L 303.316134 -166.559811 
L 298.031618 -165.656889 
L 292.747103 -174.613678 
L 287.462587 -172.910154 
L 282.178072 -163.138196 
L 276.893556 -163.24076 
L 271.609041 -150.791471 
L 266.324525 -151.209404 
L 261.04001 -169.339249 
L 255.755495 -157.700552 
L 250.470979 -160.935909 
L 245.186464 -156.402241 
L 239.901948 -162.994482 
L 234.617433 -159.930728 
L 229.332917 -173.992579 
L 224.048402 -178.795252 
L 218.763886 -184.233837 
L 213.479371 -175.314787 
L 208.194855 -175.009826 
L 202.91034 -172.789851 
L 197.625824 -169.502393 
L 192.341309 -173.546421 
L 187.056793 -184.058698 
L 181.772278 -192.154664 
L 176.487762 -165.985439 
L 171.203247 -160.740961 
L 165.918731 -155.870519 
L 160.634216 -143.666346 
L 155.3497 -161.6069 
L 150.065185 -147.814913 
L 144.780669 -150.935289 
L 139.496154 -138.617194 
L 134.211638 -148.579999 
L 128.927123 -157.430461 
L 123.642607 -145.72811 
L 118.358092 -157.669955 
L 113.073576 -146.477593 
L 107.789061 -152.533596 
L 102.504545 -203.040979 
z
" style="stroke: #eb6ab0; stroke-opacity: 0.1"/>
    </defs>
    <g clip-path="url(#pfa4a2c8998)">
     <use xlink:href="#m43fea257e8" x="0" y="432" style="fill: #eb6ab0; fill-opacity: 0.1; stroke: #eb6ab0; stroke-opacity: 0.1"/>
    </g>
   </g>
   <g id="PolyCollection_2">
    <defs>
     <path id="mda8c2b50c6" d="M 102.504545 -153.370809 
L 102.504545 -143.742917 
L 107.789061 -143.434116 
L 113.073576 -143.368644 
L 118.358092 -142.26023 
L 123.642607 -141.876677 
L 128.927123 -144.327087 
L 134.211638 -143.045341 
L 139.496154 -142.217238 
L 144.780669 -141.698279 
L 150.065185 -143.304366 
L 155.3497 -142.930803 
L 160.634216 -143.266366 
L 165.918731 -143.011674 
L 171.203247 -142.001911 
L 176.487762 -142.635066 
L 181.772278 -165.101526 
L 187.056793 -162.155131 
L 192.341309 -157.563154 
L 197.625824 -156.86567 
L 202.91034 -156.877973 
L 208.194855 -159.595956 
L 213.479371 -155.456529 
L 218.763886 -155.664841 
L 224.048402 -153.959599 
L 229.332917 -155.939275 
L 234.617433 -159.416179 
L 239.901948 -162.569932 
L 245.186464 -164.813043 
L 250.470979 -163.43295 
L 255.755495 -160.704712 
L 261.04001 -159.873534 
L 266.324525 -159.35708 
L 271.609041 -160.968269 
L 276.893556 -159.891321 
L 282.178072 -157.891478 
L 287.462587 -158.157659 
L 292.747103 -158.045997 
L 298.031618 -157.680628 
L 303.316134 -157.886758 
L 308.600649 -152.193101 
L 313.885165 -152.550881 
L 319.16968 -152.576001 
L 324.454196 -152.618419 
L 329.738711 -150.114759 
L 335.023227 -148.280042 
L 340.307742 -148.042888 
L 345.592258 -154.234915 
L 350.876773 -154.884506 
L 356.161289 -154.18865 
L 361.445804 -152.128254 
L 366.73032 -150.141178 
L 372.014835 -147.23365 
L 377.299351 -149.166 
L 382.583866 -151.673191 
L 387.868382 -155.016808 
L 393.152897 -155.991287 
L 398.437413 -158.033472 
L 403.721928 -161.150483 
L 409.006444 -160.390265 
L 414.290959 -156.302064 
L 419.575475 -155.971004 
L 424.85999 -157.529597 
L 430.144505 -156.942139 
L 435.429021 -156.036632 
L 440.713536 -153.35279 
L 445.998052 -144.304008 
L 451.282567 -143.918038 
L 456.567083 -143.495208 
L 461.851598 -139.274963 
L 467.136114 -146.349847 
L 472.420629 -149.147986 
L 477.705145 -144.515901 
L 482.98966 -142.669264 
L 488.274176 -140.997123 
L 493.558691 -142.062174 
L 498.843207 -145.465448 
L 504.127722 -146.572111 
L 509.412238 -144.456408 
L 514.696753 -141.993547 
L 519.981269 -141.704854 
L 525.265784 -144.11441 
L 530.5503 -145.451162 
L 535.834815 -146.658645 
L 541.119331 -142.146285 
L 546.403846 -140.676768 
L 551.688362 -140.402686 
L 556.972877 -144.759004 
L 562.257393 -143.694551 
L 567.541908 -143.363234 
L 572.826424 -144.649559 
L 578.110939 -144.104572 
L 583.395455 -143.000989 
L 583.395455 -144.55442 
L 583.395455 -144.55442 
L 578.110939 -145.942981 
L 572.826424 -146.696359 
L 567.541908 -145.213068 
L 562.257393 -145.575861 
L 556.972877 -146.8418 
L 551.688362 -142.435282 
L 546.403846 -142.620508 
L 541.119331 -144.360831 
L 535.834815 -148.272915 
L 530.5503 -147.770347 
L 525.265784 -145.942637 
L 519.981269 -143.777386 
L 514.696753 -143.760175 
L 509.412238 -146.291985 
L 504.127722 -148.301993 
L 498.843207 -147.55377 
L 493.558691 -143.870267 
L 488.274176 -143.057918 
L 482.98966 -144.822387 
L 477.705145 -146.424715 
L 472.420629 -152.591619 
L 467.136114 -150.270283 
L 461.851598 -143.516506 
L 456.567083 -148.58603 
L 451.282567 -147.520168 
L 445.998052 -146.388271 
L 440.713536 -157.071173 
L 435.429021 -159.990039 
L 430.144505 -161.467157 
L 424.85999 -161.63997 
L 419.575475 -159.91883 
L 414.290959 -160.63842 
L 409.006444 -164.577261 
L 403.721928 -165.238586 
L 398.437413 -162.445566 
L 393.152897 -160.218462 
L 387.868382 -158.977024 
L 382.583866 -155.370754 
L 377.299351 -152.864061 
L 372.014835 -150.815491 
L 366.73032 -153.880126 
L 361.445804 -156.158872 
L 356.161289 -157.96795 
L 350.876773 -158.72254 
L 345.592258 -158.44224 
L 340.307742 -151.723992 
L 335.023227 -151.837347 
L 329.738711 -153.675609 
L 324.454196 -156.743144 
L 319.16968 -156.578354 
L 313.885165 -156.73264 
L 308.600649 -156.115451 
L 303.316134 -162.081873 
L 298.031618 -161.888978 
L 292.747103 -162.045803 
L 287.462587 -162.405601 
L 282.178072 -161.919527 
L 276.893556 -163.735622 
L 271.609041 -164.92886 
L 266.324525 -163.304514 
L 261.04001 -164.032389 
L 255.755495 -164.685545 
L 250.470979 -168.221001 
L 245.186464 -168.99364 
L 239.901948 -166.745889 
L 234.617433 -164.208027 
L 229.332917 -159.915024 
L 224.048402 -158.024086 
L 218.763886 -160.238811 
L 213.479371 -159.867434 
L 208.194855 -164.686048 
L 202.91034 -161.311095 
L 197.625824 -162.192056 
L 192.341309 -162.127131 
L 187.056793 -169.243502 
L 181.772278 -175.790244 
L 176.487762 -145.182552 
L 171.203247 -144.389566 
L 165.918731 -145.055957 
L 160.634216 -145.741424 
L 155.3497 -144.681847 
L 150.065185 -144.765871 
L 144.780669 -143.536085 
L 139.496154 -144.126049 
L 134.211638 -145.386608 
L 128.927123 -146.516489 
L 123.642607 -143.758719 
L 118.358092 -144.558632 
L 113.073576 -144.900743 
L 107.789061 -145.532742 
L 102.504545 -153.370809 
z
" style="stroke: #eb6ab0; stroke-opacity: 0.1"/>
    </defs>
    <g clip-path="url(#pfa4a2c8998)">
     <use xlink:href="#mda8c2b50c6" x="0" y="432" style="fill: #eb6ab0; fill-opacity: 0.1; stroke: #eb6ab0; stroke-opacity: 0.1"/>
    </g>
   </g>
   <g id="PathCollection_1">
    <defs>
     <path id="m5d145191ff" d="M 0 -3 
L -0.673542 -0.927051 
L -2.85317 -0.927051 
L -1.089814 0.354102 
L -1.763356 2.427051 
L -0 1.145898 
L 1.763356 2.427051 
L 1.089814 0.354102 
L 2.85317 -0.927051 
L 0.673542 -0.927051 
z
" style="stroke: #eb6ab0"/>
    </defs>
    <g clip-path="url(#pfa4a2c8998)">
     <use xlink:href="#m5d145191ff" x="155.3497" y="297.597153" style="fill: #eb6ab0; stroke: #eb6ab0"/>
     <use xlink:href="#m5d145191ff" x="366.73032" y="297.597153" style="fill: #eb6ab0; stroke: #eb6ab0"/>
    </g>
   </g>
   <g id="PolyCollection_3">
    <defs>
     <path id="m282e73c16f" d="M 102.504545 -156.402962 
L 102.504545 -130.657626 
L 107.789061 -112.846242 
L 113.073576 -100.717315 
L 118.358092 -89.993499 
L 123.642607 -105.240886 
L 128.927123 -96.065146 
L 134.211638 -70.395455 
L 139.496154 -82.482855 
L 144.780669 -76.911771 
L 150.065185 -93.568098 
L 155.3497 -124.543863 
L 160.634216 -139.199991 
L 165.918731 -141.187437 
L 171.203247 -159.165815 
L 176.487762 -176.822721 
L 181.772278 -181.41596 
L 187.056793 -197.57096 
L 192.341309 -227.415999 
L 197.625824 -242.252425 
L 202.91034 -250.901468 
L 208.194855 -266.946673 
L 213.479371 -277.849302 
L 218.763886 -271.013826 
L 224.048402 -280.122651 
L 229.332917 -279.542684 
L 234.617433 -288.496688 
L 239.901948 -276.566865 
L 245.186464 -286.453738 
L 250.470979 -275.604116 
L 255.755495 -285.109668 
L 261.04001 -304.059729 
L 266.324525 -292.699311 
L 271.609041 -292.250246 
L 276.893556 -294.447588 
L 282.178072 -299.788444 
L 287.462587 -293.183602 
L 292.747103 -295.398621 
L 298.031618 -298.241772 
L 303.316134 -302.150735 
L 308.600649 -314.887978 
L 313.885165 -302.820215 
L 319.16968 -309.665942 
L 324.454196 -306.241736 
L 329.738711 -306.89841 
L 335.023227 -307.503985 
L 340.307742 -315.963512 
L 345.592258 -311.171168 
L 350.876773 -320.107219 
L 356.161289 -315.649426 
L 361.445804 -321.854484 
L 366.73032 -323.641556 
L 372.014835 -325.735226 
L 377.299351 -318.937534 
L 382.583866 -325.082142 
L 387.868382 -326.025089 
L 393.152897 -330.892422 
L 398.437413 -317.483526 
L 403.721928 -312.141023 
L 409.006444 -306.514862 
L 414.290959 -311.070369 
L 419.575475 -301.238324 
L 424.85999 -300.730616 
L 430.144505 -307.611001 
L 435.429021 -300.315145 
L 440.713536 -297.416739 
L 445.998052 -298.267176 
L 451.282567 -301.996185 
L 456.567083 -301.22416 
L 461.851598 -297.881975 
L 467.136114 -302.358555 
L 472.420629 -297.442336 
L 477.705145 -293.617217 
L 482.98966 -296.806524 
L 488.274176 -304.37721 
L 493.558691 -306.357499 
L 498.843207 -299.980797 
L 504.127722 -303.628075 
L 509.412238 -301.690065 
L 514.696753 -295.558206 
L 519.981269 -288.459228 
L 525.265784 -283.683778 
L 530.5503 -289.269973 
L 535.834815 -292.959624 
L 541.119331 -296.403066 
L 546.403846 -305.425717 
L 551.688362 -306.992646 
L 556.972877 -310.561136 
L 562.257393 -318.07768 
L 567.541908 -321.285698 
L 572.826424 -321.157435 
L 578.110939 -324.945863 
L 583.395455 -324.202484 
L 583.395455 -389.104545 
L 583.395455 -389.104545 
L 578.110939 -387.477552 
L 572.826424 -382.671894 
L 567.541908 -381.944801 
L 562.257393 -377.191416 
L 556.972877 -369.862444 
L 551.688362 -366.964342 
L 546.403846 -365.15686 
L 541.119331 -355.027234 
L 535.834815 -348.390264 
L 530.5503 -344.430201 
L 525.265784 -339.402999 
L 519.981269 -342.641831 
L 514.696753 -348.346864 
L 509.412238 -354.191731 
L 504.127722 -354.807917 
L 498.843207 -353.293404 
L 493.558691 -358.515264 
L 488.274176 -356.714834 
L 482.98966 -348.780064 
L 477.705145 -345.928909 
L 472.420629 -348.24174 
L 467.136114 -350.902429 
L 461.851598 -345.740642 
L 456.567083 -350.984236 
L 451.282567 -351.909824 
L 445.998052 -347.313967 
L 440.713536 -346.634829 
L 435.429021 -349.217621 
L 430.144505 -356.163609 
L 424.85999 -349.015372 
L 419.575475 -349.561227 
L 414.290959 -359.664233 
L 409.006444 -355.990209 
L 403.721928 -360.507432 
L 398.437413 -365.768274 
L 393.152897 -378.221229 
L 387.868382 -374.733576 
L 382.583866 -373.307985 
L 377.299351 -367.123698 
L 372.014835 -373.48085 
L 366.73032 -372.186565 
L 361.445804 -368.290966 
L 356.161289 -361.909061 
L 350.876773 -366.067827 
L 345.592258 -355.558606 
L 340.307742 -359.471992 
L 335.023227 -352.067126 
L 329.738711 -351.415345 
L 324.454196 -348.950748 
L 319.16968 -352.370142 
L 313.885165 -345.092076 
L 308.600649 -356.010381 
L 303.316134 -341.939575 
L 298.031618 -338.981413 
L 292.747103 -337.28463 
L 287.462587 -335.159108 
L 282.178072 -339.79549 
L 276.893556 -334.405638 
L 271.609041 -331.869686 
L 266.324525 -333.350186 
L 261.04001 -344.941522 
L 255.755495 -325.34525 
L 250.470979 -315.588424 
L 245.186464 -323.668569 
L 239.901948 -312.419642 
L 234.617433 -323.255001 
L 229.332917 -314.653092 
L 224.048402 -318.559 
L 218.763886 -309.651509 
L 213.479371 -316.669384 
L 208.194855 -304.83044 
L 202.91034 -289.96764 
L 197.625824 -278.717116 
L 192.341309 -268.053706 
L 187.056793 -242.477534 
L 181.772278 -227.394275 
L 176.487762 -220.25988 
L 171.203247 -200.497696 
L 165.918731 -185.688628 
L 160.634216 -183.289426 
L 155.3497 -170.643445 
L 150.065185 -142.072612 
L 144.780669 -127.074313 
L 139.496154 -138.813506 
L 134.211638 -120.569243 
L 128.927123 -152.608503 
L 123.642607 -158.109523 
L 118.358092 -141.355188 
L 113.073576 -144.09026 
L 107.789061 -150.271884 
L 102.504545 -156.402962 
z
" style="stroke: #8b0a50; stroke-opacity: 0.1"/>
    </defs>
    <g clip-path="url(#pfa4a2c8998)">
     <use xlink:href="#m282e73c16f" x="0" y="432" style="fill: #8b0a50; fill-opacity: 0.1; stroke: #8b0a50; stroke-opacity: 0.1"/>
    </g>
   </g>
   <g id="PolyCollection_4">
    <defs>
     <path id="m6b0c6bd4b9" d="M 102.504545 -143.672242 
L 102.504545 -138.27437 
L 107.789061 -141.513748 
L 113.073576 -144.37371 
L 118.358092 -148.036499 
L 123.642607 -152.461195 
L 128.927123 -155.167444 
L 134.211638 -156.961466 
L 139.496154 -161.710377 
L 144.780669 -160.991367 
L 150.065185 -170.300781 
L 155.3497 -171.7673 
L 160.634216 -173.608374 
L 165.918731 -179.808784 
L 171.203247 -180.525445 
L 176.487762 -188.013131 
L 181.772278 -189.829508 
L 187.056793 -192.490834 
L 192.341309 -195.048949 
L 197.625824 -197.878043 
L 202.91034 -198.012058 
L 208.194855 -200.280493 
L 213.479371 -199.990911 
L 218.763886 -198.941735 
L 224.048402 -196.930176 
L 229.332917 -194.888759 
L 234.617433 -195.885809 
L 239.901948 -193.852716 
L 245.186464 -193.408774 
L 250.470979 -193.731995 
L 255.755495 -189.816939 
L 261.04001 -187.620902 
L 266.324525 -186.432247 
L 271.609041 -188.184348 
L 276.893556 -186.868048 
L 282.178072 -188.415007 
L 287.462587 -189.18244 
L 292.747103 -189.378852 
L 298.031618 -186.910478 
L 303.316134 -187.160959 
L 308.600649 -186.066428 
L 313.885165 -186.891629 
L 319.16968 -188.652725 
L 324.454196 -188.199742 
L 329.738711 -187.994542 
L 335.023227 -187.107078 
L 340.307742 -187.585906 
L 345.592258 -184.154244 
L 350.876773 -183.449775 
L 356.161289 -182.755088 
L 361.445804 -183.130892 
L 366.73032 -182.567912 
L 372.014835 -183.460576 
L 377.299351 -183.36826 
L 382.583866 -182.166587 
L 387.868382 -181.735328 
L 393.152897 -181.416126 
L 398.437413 -179.43212 
L 403.721928 -176.103563 
L 409.006444 -175.585876 
L 414.290959 -172.918098 
L 419.575475 -170.786529 
L 424.85999 -167.317523 
L 430.144505 -167.77973 
L 435.429021 -165.707756 
L 440.713536 -165.651307 
L 445.998052 -164.130925 
L 451.282567 -161.732494 
L 456.567083 -160.333814 
L 461.851598 -158.405208 
L 467.136114 -157.72961 
L 472.420629 -156.475615 
L 477.705145 -158.180266 
L 482.98966 -159.956793 
L 488.274176 -156.189371 
L 493.558691 -156.90762 
L 498.843207 -154.548624 
L 504.127722 -153.681006 
L 509.412238 -154.616433 
L 514.696753 -153.57051 
L 519.981269 -153.275929 
L 525.265784 -152.504017 
L 530.5503 -152.840219 
L 535.834815 -153.186258 
L 541.119331 -151.640014 
L 546.403846 -149.268698 
L 551.688362 -149.807531 
L 556.972877 -149.395024 
L 562.257393 -148.293393 
L 567.541908 -148.131104 
L 572.826424 -149.094399 
L 578.110939 -149.617024 
L 583.395455 -150.657046 
L 583.395455 -156.335364 
L 583.395455 -156.335364 
L 578.110939 -155.548207 
L 572.826424 -154.783033 
L 567.541908 -153.661313 
L 562.257393 -153.842775 
L 556.972877 -155.204331 
L 551.688362 -155.589192 
L 546.403846 -155.225899 
L 541.119331 -157.809912 
L 535.834815 -159.381646 
L 530.5503 -158.821173 
L 525.265784 -158.254258 
L 519.981269 -158.633133 
L 514.696753 -159.096892 
L 509.412238 -160.125333 
L 504.127722 -159.209962 
L 498.843207 -160.530515 
L 493.558691 -162.644682 
L 488.274176 -161.782428 
L 482.98966 -165.690931 
L 477.705145 -164.320066 
L 472.420629 -162.930321 
L 467.136114 -163.662884 
L 461.851598 -163.854216 
L 456.567083 -166.06919 
L 451.282567 -167.566528 
L 445.998052 -169.706254 
L 440.713536 -171.410992 
L 435.429021 -171.001911 
L 430.144505 -172.974937 
L 424.85999 -172.712493 
L 419.575475 -175.836083 
L 414.290959 -178.28371 
L 409.006444 -181.083926 
L 403.721928 -181.51893 
L 398.437413 -184.963917 
L 393.152897 -187.456114 
L 387.868382 -187.763033 
L 382.583866 -188.081164 
L 377.299351 -189.263686 
L 372.014835 -189.238764 
L 366.73032 -188.40383 
L 361.445804 -189.190958 
L 356.161289 -188.939511 
L 350.876773 -189.392796 
L 345.592258 -190.420624 
L 340.307742 -194.097107 
L 335.023227 -193.800589 
L 329.738711 -194.590424 
L 324.454196 -194.609526 
L 319.16968 -195.414754 
L 313.885165 -193.374509 
L 308.600649 -192.52268 
L 303.316134 -193.81854 
L 298.031618 -193.124998 
L 292.747103 -195.862232 
L 287.462587 -195.402136 
L 282.178072 -195.051041 
L 276.893556 -193.497652 
L 271.609041 -194.571504 
L 266.324525 -193.244079 
L 261.04001 -194.479431 
L 255.755495 -196.532799 
L 250.470979 -200.194194 
L 245.186464 -199.586306 
L 239.901948 -200.101889 
L 234.617433 -202.051662 
L 229.332917 -201.327827 
L 224.048402 -203.600073 
L 218.763886 -206.033685 
L 213.479371 -206.935929 
L 208.194855 -207.392442 
L 202.91034 -205.245994 
L 197.625824 -205.81627 
L 192.341309 -203.28226 
L 187.056793 -201.104408 
L 181.772278 -198.814529 
L 176.487762 -198.063635 
L 171.203247 -190.00719 
L 165.918731 -189.720175 
L 160.634216 -183.720083 
L 155.3497 -181.530133 
L 150.065185 -180.201834 
L 144.780669 -170.943322 
L 139.496154 -171.441126 
L 134.211638 -165.788437 
L 128.927123 -164.35601 
L 123.642607 -161.411354 
L 118.358092 -156.700029 
L 113.073576 -152.302784 
L 107.789061 -148.869319 
L 102.504545 -143.672242 
z
" style="stroke: #8b0a50; stroke-opacity: 0.1"/>
    </defs>
    <g clip-path="url(#pfa4a2c8998)">
     <use xlink:href="#m6b0c6bd4b9" x="0" y="432" style="fill: #8b0a50; fill-opacity: 0.1; stroke: #8b0a50; stroke-opacity: 0.1"/>
    </g>
   </g>
   <g id="PathCollection_2">
    <defs>
     <path id="maabb80e276" d="M 0 -3 
L -0.673542 -0.927051 
L -2.85317 -0.927051 
L -1.089814 0.354102 
L -1.763356 2.427051 
L -0 1.145898 
L 1.763356 2.427051 
L 1.089814 0.354102 
L 2.85317 -0.927051 
L 0.673542 -0.927051 
z
" style="stroke: #8b0a50"/>
    </defs>
    <g clip-path="url(#pfa4a2c8998)">
     <use xlink:href="#maabb80e276" x="197.625824" y="306.495311" style="fill: #8b0a50; stroke: #8b0a50"/>
     <use xlink:href="#maabb80e276" x="202.91034" y="306.495311" style="fill: #8b0a50; stroke: #8b0a50"/>
     <use xlink:href="#maabb80e276" x="208.194855" y="306.495311" style="fill: #8b0a50; stroke: #8b0a50"/>
     <use xlink:href="#maabb80e276" x="213.479371" y="306.495311" style="fill: #8b0a50; stroke: #8b0a50"/>
     <use xlink:href="#maabb80e276" x="218.763886" y="306.495311" style="fill: #8b0a50; stroke: #8b0a50"/>
     <use xlink:href="#maabb80e276" x="224.048402" y="306.495311" style="fill: #8b0a50; stroke: #8b0a50"/>
     <use xlink:href="#maabb80e276" x="229.332917" y="306.495311" style="fill: #8b0a50; stroke: #8b0a50"/>
     <use xlink:href="#maabb80e276" x="234.617433" y="306.495311" style="fill: #8b0a50; stroke: #8b0a50"/>
     <use xlink:href="#maabb80e276" x="239.901948" y="306.495311" style="fill: #8b0a50; stroke: #8b0a50"/>
     <use xlink:href="#maabb80e276" x="245.186464" y="306.495311" style="fill: #8b0a50; stroke: #8b0a50"/>
     <use xlink:href="#maabb80e276" x="250.470979" y="306.495311" style="fill: #8b0a50; stroke: #8b0a50"/>
     <use xlink:href="#maabb80e276" x="255.755495" y="306.495311" style="fill: #8b0a50; stroke: #8b0a50"/>
     <use xlink:href="#maabb80e276" x="261.04001" y="306.495311" style="fill: #8b0a50; stroke: #8b0a50"/>
     <use xlink:href="#maabb80e276" x="266.324525" y="306.495311" style="fill: #8b0a50; stroke: #8b0a50"/>
     <use xlink:href="#maabb80e276" x="271.609041" y="306.495311" style="fill: #8b0a50; stroke: #8b0a50"/>
     <use xlink:href="#maabb80e276" x="276.893556" y="306.495311" style="fill: #8b0a50; stroke: #8b0a50"/>
     <use xlink:href="#maabb80e276" x="282.178072" y="306.495311" style="fill: #8b0a50; stroke: #8b0a50"/>
     <use xlink:href="#maabb80e276" x="287.462587" y="306.495311" style="fill: #8b0a50; stroke: #8b0a50"/>
     <use xlink:href="#maabb80e276" x="292.747103" y="306.495311" style="fill: #8b0a50; stroke: #8b0a50"/>
     <use xlink:href="#maabb80e276" x="298.031618" y="306.495311" style="fill: #8b0a50; stroke: #8b0a50"/>
     <use xlink:href="#maabb80e276" x="303.316134" y="306.495311" style="fill: #8b0a50; stroke: #8b0a50"/>
     <use xlink:href="#maabb80e276" x="308.600649" y="306.495311" style="fill: #8b0a50; stroke: #8b0a50"/>
     <use xlink:href="#maabb80e276" x="313.885165" y="306.495311" style="fill: #8b0a50; stroke: #8b0a50"/>
     <use xlink:href="#maabb80e276" x="319.16968" y="306.495311" style="fill: #8b0a50; stroke: #8b0a50"/>
     <use xlink:href="#maabb80e276" x="324.454196" y="306.495311" style="fill: #8b0a50; stroke: #8b0a50"/>
     <use xlink:href="#maabb80e276" x="329.738711" y="306.495311" style="fill: #8b0a50; stroke: #8b0a50"/>
     <use xlink:href="#maabb80e276" x="335.023227" y="306.495311" style="fill: #8b0a50; stroke: #8b0a50"/>
     <use xlink:href="#maabb80e276" x="340.307742" y="306.495311" style="fill: #8b0a50; stroke: #8b0a50"/>
     <use xlink:href="#maabb80e276" x="345.592258" y="306.495311" style="fill: #8b0a50; stroke: #8b0a50"/>
     <use xlink:href="#maabb80e276" x="350.876773" y="306.495311" style="fill: #8b0a50; stroke: #8b0a50"/>
     <use xlink:href="#maabb80e276" x="356.161289" y="306.495311" style="fill: #8b0a50; stroke: #8b0a50"/>
     <use xlink:href="#maabb80e276" x="361.445804" y="306.495311" style="fill: #8b0a50; stroke: #8b0a50"/>
     <use xlink:href="#maabb80e276" x="366.73032" y="306.495311" style="fill: #8b0a50; stroke: #8b0a50"/>
     <use xlink:href="#maabb80e276" x="372.014835" y="306.495311" style="fill: #8b0a50; stroke: #8b0a50"/>
     <use xlink:href="#maabb80e276" x="377.299351" y="306.495311" style="fill: #8b0a50; stroke: #8b0a50"/>
     <use xlink:href="#maabb80e276" x="382.583866" y="306.495311" style="fill: #8b0a50; stroke: #8b0a50"/>
     <use xlink:href="#maabb80e276" x="387.868382" y="306.495311" style="fill: #8b0a50; stroke: #8b0a50"/>
     <use xlink:href="#maabb80e276" x="393.152897" y="306.495311" style="fill: #8b0a50; stroke: #8b0a50"/>
     <use xlink:href="#maabb80e276" x="398.437413" y="306.495311" style="fill: #8b0a50; stroke: #8b0a50"/>
     <use xlink:href="#maabb80e276" x="403.721928" y="306.495311" style="fill: #8b0a50; stroke: #8b0a50"/>
     <use xlink:href="#maabb80e276" x="409.006444" y="306.495311" style="fill: #8b0a50; stroke: #8b0a50"/>
     <use xlink:href="#maabb80e276" x="414.290959" y="306.495311" style="fill: #8b0a50; stroke: #8b0a50"/>
     <use xlink:href="#maabb80e276" x="419.575475" y="306.495311" style="fill: #8b0a50; stroke: #8b0a50"/>
     <use xlink:href="#maabb80e276" x="424.85999" y="306.495311" style="fill: #8b0a50; stroke: #8b0a50"/>
     <use xlink:href="#maabb80e276" x="430.144505" y="306.495311" style="fill: #8b0a50; stroke: #8b0a50"/>
     <use xlink:href="#maabb80e276" x="435.429021" y="306.495311" style="fill: #8b0a50; stroke: #8b0a50"/>
     <use xlink:href="#maabb80e276" x="440.713536" y="306.495311" style="fill: #8b0a50; stroke: #8b0a50"/>
     <use xlink:href="#maabb80e276" x="445.998052" y="306.495311" style="fill: #8b0a50; stroke: #8b0a50"/>
     <use xlink:href="#maabb80e276" x="451.282567" y="306.495311" style="fill: #8b0a50; stroke: #8b0a50"/>
     <use xlink:href="#maabb80e276" x="456.567083" y="306.495311" style="fill: #8b0a50; stroke: #8b0a50"/>
     <use xlink:href="#maabb80e276" x="461.851598" y="306.495311" style="fill: #8b0a50; stroke: #8b0a50"/>
     <use xlink:href="#maabb80e276" x="467.136114" y="306.495311" style="fill: #8b0a50; stroke: #8b0a50"/>
     <use xlink:href="#maabb80e276" x="472.420629" y="306.495311" style="fill: #8b0a50; stroke: #8b0a50"/>
     <use xlink:href="#maabb80e276" x="477.705145" y="306.495311" style="fill: #8b0a50; stroke: #8b0a50"/>
     <use xlink:href="#maabb80e276" x="482.98966" y="306.495311" style="fill: #8b0a50; stroke: #8b0a50"/>
     <use xlink:href="#maabb80e276" x="488.274176" y="306.495311" style="fill: #8b0a50; stroke: #8b0a50"/>
     <use xlink:href="#maabb80e276" x="493.558691" y="306.495311" style="fill: #8b0a50; stroke: #8b0a50"/>
     <use xlink:href="#maabb80e276" x="498.843207" y="306.495311" style="fill: #8b0a50; stroke: #8b0a50"/>
     <use xlink:href="#maabb80e276" x="504.127722" y="306.495311" style="fill: #8b0a50; stroke: #8b0a50"/>
     <use xlink:href="#maabb80e276" x="509.412238" y="306.495311" style="fill: #8b0a50; stroke: #8b0a50"/>
     <use xlink:href="#maabb80e276" x="514.696753" y="306.495311" style="fill: #8b0a50; stroke: #8b0a50"/>
     <use xlink:href="#maabb80e276" x="519.981269" y="306.495311" style="fill: #8b0a50; stroke: #8b0a50"/>
     <use xlink:href="#maabb80e276" x="525.265784" y="306.495311" style="fill: #8b0a50; stroke: #8b0a50"/>
     <use xlink:href="#maabb80e276" x="530.5503" y="306.495311" style="fill: #8b0a50; stroke: #8b0a50"/>
     <use xlink:href="#maabb80e276" x="535.834815" y="306.495311" style="fill: #8b0a50; stroke: #8b0a50"/>
     <use xlink:href="#maabb80e276" x="541.119331" y="306.495311" style="fill: #8b0a50; stroke: #8b0a50"/>
     <use xlink:href="#maabb80e276" x="546.403846" y="306.495311" style="fill: #8b0a50; stroke: #8b0a50"/>
     <use xlink:href="#maabb80e276" x="551.688362" y="306.495311" style="fill: #8b0a50; stroke: #8b0a50"/>
     <use xlink:href="#maabb80e276" x="556.972877" y="306.495311" style="fill: #8b0a50; stroke: #8b0a50"/>
     <use xlink:href="#maabb80e276" x="562.257393" y="306.495311" style="fill: #8b0a50; stroke: #8b0a50"/>
     <use xlink:href="#maabb80e276" x="567.541908" y="306.495311" style="fill: #8b0a50; stroke: #8b0a50"/>
     <use xlink:href="#maabb80e276" x="572.826424" y="306.495311" style="fill: #8b0a50; stroke: #8b0a50"/>
     <use xlink:href="#maabb80e276" x="578.110939" y="306.495311" style="fill: #8b0a50; stroke: #8b0a50"/>
     <use xlink:href="#maabb80e276" x="583.395455" y="306.495311" style="fill: #8b0a50; stroke: #8b0a50"/>
    </g>
   </g>
   <g id="line2d_1">
    <path d="M 102.504545 248.247169 
L 107.789061 284.616196 
L 113.073576 289.468275 
L 118.358092 278.724851 
L 123.642607 289.680205 
L 128.927123 279.35849 
L 134.211638 287.660569 
L 139.496154 298.058882 
L 144.780669 285.300491 
L 150.065185 287.460592 
L 155.3497 274.53957 
L 160.634216 294.371133 
L 165.918731 280.953652 
L 171.203247 276.571463 
L 176.487762 272.333389 
L 181.772278 248.987647 
L 187.056793 255.594183 
L 192.341309 265.034974 
L 197.625824 271.286784 
L 202.91034 267.929552 
L 208.194855 266.97323 
L 213.479371 265.25399 
L 218.763886 254.840719 
L 224.048402 261.895885 
L 229.332917 268.419603 
L 234.617433 279.851584 
L 239.901948 276.610901 
L 245.186464 283.752051 
L 250.470979 278.660535 
L 255.755495 282.317972 
L 261.04001 272.865495 
L 266.324525 292.93648 
L 271.609041 291.539371 
L 276.893556 280.413785 
L 282.178072 279.193562 
L 287.462587 268.668905 
L 292.747103 266.540737 
L 298.031618 275.215623 
L 303.316134 273.797411 
L 308.600649 255.411015 
L 313.885165 263.315346 
L 319.16968 263.91148 
L 324.454196 257.943035 
L 329.738711 274.472093 
L 335.023227 273.78541 
L 340.307742 269.602019 
L 345.592258 265.598132 
L 350.876773 248.716994 
L 356.161289 249.234799 
L 361.445804 252.271377 
L 366.73032 247.193523 
L 372.014835 258.308239 
L 377.299351 269.952768 
L 382.583866 282.792559 
L 387.868382 267.46181 
L 393.152897 266.943923 
L 398.437413 275.100232 
L 403.721928 269.144265 
L 409.006444 267.150622 
L 414.290959 272.449164 
L 419.575475 274.441002 
L 424.85999 285.577654 
L 430.144505 280.551569 
L 435.429021 267.39142 
L 440.713536 289.624724 
L 445.998052 296.213219 
L 451.282567 269.978796 
L 456.567083 275.659534 
L 461.851598 329.887973 
L 467.136114 299.249036 
L 472.420629 264.586818 
L 477.705145 280.76425 
L 482.98966 289.380413 
L 488.274176 310.602715 
L 493.558691 302.677615 
L 498.843207 276.668071 
L 504.127722 262.134243 
L 509.412238 266.79486 
L 514.696753 280.70157 
L 519.981269 264.699052 
L 525.265784 283.943946 
L 530.5503 293.054118 
L 535.834815 290.133729 
L 541.119331 274.15749 
L 546.403846 278.100579 
L 551.688362 282.007358 
L 556.972877 285.282255 
L 562.257393 286.597809 
L 567.541908 291.658271 
L 572.826424 286.306708 
L 578.110939 279.221777 
L 583.395455 278.242106 
" clip-path="url(#pfa4a2c8998)" style="fill: none; stroke: #eb6ab0; stroke-width: 2; stroke-linecap: round"/>
   </g>
   <g id="line2d_2">
    <path d="M 102.504545 283.443137 
L 107.789061 287.516571 
L 113.073576 287.865306 
L 118.358092 288.590569 
L 123.642607 289.182302 
L 128.927123 286.578212 
L 134.211638 287.784025 
L 139.496154 288.828356 
L 144.780669 289.382818 
L 150.065185 287.964881 
L 155.3497 288.193675 
L 160.634216 287.496105 
L 165.918731 287.966185 
L 171.203247 288.804262 
L 176.487762 288.091191 
L 181.772278 261.554115 
L 187.056793 266.300684 
L 192.341309 272.154858 
L 197.625824 272.471137 
L 202.91034 272.905466 
L 208.194855 269.858998 
L 213.479371 274.338019 
L 218.763886 274.048174 
L 224.048402 276.008158 
L 229.332917 274.07285 
L 234.617433 270.187897 
L 239.901948 267.34209 
L 245.186464 265.096658 
L 250.470979 266.173024 
L 255.755495 269.304871 
L 261.04001 270.047038 
L 266.324525 270.669203 
L 271.609041 269.051435 
L 276.893556 270.186528 
L 282.178072 272.094498 
L 287.462587 271.71837 
L 292.747103 271.9541 
L 298.031618 272.215197 
L 303.316134 272.015685 
L 308.600649 277.845724 
L 313.885165 277.35824 
L 319.16968 277.422822 
L 324.454196 277.319218 
L 329.738711 280.104816 
L 335.023227 281.941305 
L 340.307742 282.11656 
L 345.592258 275.661422 
L 350.876773 275.196477 
L 356.161289 275.9217 
L 361.445804 277.856437 
L 366.73032 279.989348 
L 372.014835 282.97543 
L 377.299351 280.984969 
L 382.583866 278.478028 
L 387.868382 275.003084 
L 393.152897 273.895126 
L 398.437413 271.760481 
L 403.721928 268.805465 
L 409.006444 269.516237 
L 414.290959 273.529758 
L 419.575475 274.055083 
L 424.85999 272.415217 
L 430.144505 272.795352 
L 435.429021 273.986665 
L 440.713536 276.788018 
L 445.998052 286.65386 
L 451.282567 286.280897 
L 456.567083 285.959381 
L 461.851598 290.604265 
L 467.136114 283.689935 
L 472.420629 281.130198 
L 477.705145 286.529692 
L 482.98966 288.254174 
L 488.274176 289.97248 
L 493.558691 289.03378 
L 498.843207 285.490391 
L 504.127722 284.562948 
L 509.412238 286.625803 
L 514.696753 289.123139 
L 519.981269 289.25888 
L 525.265784 286.971477 
L 530.5503 285.389245 
L 535.834815 284.53422 
L 541.119331 288.746442 
L 546.403846 290.351362 
L 551.688362 290.581016 
L 556.972877 286.199598 
L 562.257393 287.364794 
L 567.541908 287.711849 
L 572.826424 286.327041 
L 578.110939 286.976224 
L 583.395455 288.222296 
" clip-path="url(#pfa4a2c8998)" style="fill: none; stroke-dasharray: 7.4,3.2; stroke-dashoffset: 0; stroke: #eb6ab0; stroke-width: 2"/>
   </g>
   <g id="line2d_3">
    <path d="M 181.772278 377.54 
L 181.772278 26.96 
" clip-path="url(#pfa4a2c8998)" style="fill: none; stroke-dasharray: 5.55,2.4; stroke-dashoffset: 0; stroke: #1a1a1a; stroke-width: 1.5"/>
   </g>
   <g id="line2d_4">
    <path d="M 445.998052 377.54 
L 445.998052 26.96 
" clip-path="url(#pfa4a2c8998)" style="fill: none; stroke-dasharray: 5.55,2.4; stroke-dashoffset: 0; stroke: #1a1a1a; stroke-width: 1.5"/>
   </g>
   <g id="line2d_5">
    <path d="M 102.504545 288.469706 
L 107.789061 300.440937 
L 113.073576 309.596212 
L 118.358092 316.325657 
L 123.642607 300.324795 
L 128.927123 307.663175 
L 134.211638 336.517651 
L 139.496154 321.35182 
L 144.780669 330.006958 
L 150.065185 314.179645 
L 155.3497 284.406346 
L 160.634216 270.755292 
L 165.918731 268.561967 
L 171.203247 252.168245 
L 176.487762 233.458699 
L 181.772278 227.594883 
L 187.056793 211.975753 
L 192.341309 184.265148 
L 197.625824 171.51523 
L 202.91034 161.565446 
L 208.194855 146.111443 
L 213.479371 134.740657 
L 218.763886 141.667332 
L 224.048402 132.659174 
L 229.332917 134.902112 
L 234.617433 126.124156 
L 239.901948 137.506746 
L 245.186464 126.938846 
L 250.470979 136.40373 
L 255.755495 126.772541 
L 261.04001 107.499374 
L 266.324525 118.975252 
L 271.609041 119.940034 
L 276.893556 117.573387 
L 282.178072 112.208033 
L 287.462587 117.828645 
L 292.747103 115.658374 
L 298.031618 113.388408 
L 303.316134 109.954845 
L 308.600649 96.55082 
L 313.885165 108.043855 
L 319.16968 100.981958 
L 324.454196 104.403758 
L 329.738711 102.843123 
L 335.023227 102.214444 
L 340.307742 94.282248 
L 345.592258 98.635113 
L 350.876773 88.912477 
L 356.161289 93.220757 
L 361.445804 86.927275 
L 366.73032 84.085939 
L 372.014835 82.391962 
L 377.299351 88.969384 
L 382.583866 82.804937 
L 387.868382 81.620668 
L 393.152897 77.443175 
L 398.437413 90.3741 
L 403.721928 95.675772 
L 409.006444 100.747465 
L 414.290959 96.632699 
L 419.575475 106.600224 
L 424.85999 107.127006 
L 430.144505 100.112695 
L 435.429021 107.233617 
L 440.713536 109.974216 
L 445.998052 109.209429 
L 451.282567 105.046996 
L 456.567083 105.895802 
L 461.851598 110.188692 
L 467.136114 105.369508 
L 472.420629 109.157962 
L 477.705145 112.226937 
L 482.98966 109.206706 
L 488.274176 101.453978 
L 493.558691 99.563618 
L 498.843207 105.362899 
L 504.127722 102.782004 
L 509.412238 104.059102 
L 514.696753 110.047465 
L 519.981269 116.44947 
L 525.265784 120.456611 
L 530.5503 115.149913 
L 535.834815 111.325056 
L 541.119331 106.28485 
L 546.403846 96.708712 
L 551.688362 95.021506 
L 556.972877 91.78821 
L 562.257393 84.365452 
L 567.541908 80.38475 
L 572.826424 80.085336 
L 578.110939 75.788293 
L 583.395455 75.346485 
" clip-path="url(#pfa4a2c8998)" style="fill: none; stroke: #8b0a50; stroke-width: 2; stroke-linecap: round"/>
   </g>
   <g id="line2d_6">
    <path d="M 102.504545 291.026694 
L 107.789061 286.808466 
L 113.073576 283.661753 
L 118.358092 279.631736 
L 123.642607 275.063726 
L 128.927123 272.238273 
L 134.211638 270.625049 
L 139.496154 265.424249 
L 144.780669 266.032656 
L 150.065185 256.748693 
L 155.3497 255.351283 
L 160.634216 253.335771 
L 165.918731 247.23552 
L 171.203247 246.733683 
L 176.487762 238.961617 
L 181.772278 237.677981 
L 187.056793 235.202379 
L 192.341309 232.834395 
L 197.625824 230.152844 
L 202.91034 230.370974 
L 208.194855 228.163532 
L 213.479371 228.53658 
L 218.763886 229.51229 
L 224.048402 231.734876 
L 229.332917 233.891707 
L 234.617433 233.031265 
L 239.901948 235.022697 
L 245.186464 235.50246 
L 250.470979 235.036905 
L 255.755495 238.825131 
L 261.04001 240.949833 
L 266.324525 242.161837 
L 271.609041 240.622074 
L 276.893556 241.81715 
L 282.178072 240.266976 
L 287.462587 239.707712 
L 292.747103 239.379458 
L 298.031618 241.982262 
L 303.316134 241.510251 
L 308.600649 242.705446 
L 313.885165 241.866931 
L 319.16968 239.966261 
L 324.454196 240.595366 
L 329.738711 240.707517 
L 335.023227 241.546167 
L 340.307742 241.158493 
L 345.592258 244.712566 
L 350.876773 245.578714 
L 356.161289 246.152701 
L 361.445804 245.839075 
L 366.73032 246.514129 
L 372.014835 245.65033 
L 377.299351 245.684027 
L 382.583866 246.876125 
L 387.868382 247.250819 
L 393.152897 247.56388 
L 398.437413 249.801981 
L 403.721928 253.188754 
L 409.006444 253.665099 
L 414.290959 256.399096 
L 419.575475 258.688694 
L 424.85999 261.984992 
L 430.144505 261.622667 
L 435.429021 263.645166 
L 440.713536 263.46885 
L 445.998052 265.081411 
L 451.282567 267.350489 
L 456.567083 268.798498 
L 461.851598 270.870288 
L 467.136114 271.303753 
L 472.420629 272.297032 
L 477.705145 270.749834 
L 482.98966 269.176138 
L 488.274176 273.014101 
L 493.558691 272.223849 
L 498.843207 274.46043 
L 504.127722 275.554516 
L 509.412238 274.629117 
L 514.696753 275.666299 
L 519.981269 276.045469 
L 525.265784 276.620863 
L 530.5503 276.169304 
L 535.834815 275.716048 
L 541.119331 277.275037 
L 546.403846 279.752702 
L 551.688362 279.301638 
L 556.972877 279.700323 
L 562.257393 280.931916 
L 567.541908 281.103791 
L 572.826424 280.061284 
L 578.110939 279.417384 
L 583.395455 278.503795 
" clip-path="url(#pfa4a2c8998)" style="fill: none; stroke-dasharray: 7.4,3.2; stroke-dashoffset: 0; stroke: #8b0a50; stroke-width: 2"/>
   </g>
   <g id="line2d_7">
    <path d="M 181.772278 377.54 
L 181.772278 26.96 
" clip-path="url(#pfa4a2c8998)" style="fill: none; stroke-dasharray: 5.55,2.4; stroke-dashoffset: 0; stroke: #1a1a1a; stroke-width: 1.5"/>
   </g>
   <g id="line2d_8">
    <path d="M 445.998052 377.54 
L 445.998052 26.96 
" clip-path="url(#pfa4a2c8998)" style="fill: none; stroke-dasharray: 5.55,2.4; stroke-dashoffset: 0; stroke: #1a1a1a; stroke-width: 1.5"/>
   </g>
   <g id="patch_3">
    <path d="M 78.46 377.54 
L 78.46 26.96 
" style="fill: none; stroke: #cccccc; stroke-width: 1.5; stroke-linejoin: miter; stroke-linecap: square"/>
   </g>
   <g id="patch_4">
    <path d="M 78.46 377.54 
L 607.44 377.54 
" style="fill: none; stroke: #cccccc; stroke-width: 1.5; stroke-linejoin: miter; stroke-linecap: square"/>
   </g>
   <g id="text_18">
    <!-- Divergence Comparison: Original vs Shuffled -->
    <g style="fill: #262626" transform="translate(193.4375 20.96) scale(0.15 -0.15)">
     <defs>
      <path id="ArialMT-43" d="M 3763 1606 
L 4369 1453 
Q 4178 706 3683 314 
Q 3188 -78 2472 -78 
Q 1731 -78 1267 223 
Q 803 525 561 1097 
Q 319 1669 319 2325 
Q 319 3041 592 3573 
Q 866 4106 1370 4382 
Q 1875 4659 2481 4659 
Q 3169 4659 3637 4309 
Q 4106 3959 4291 3325 
L 3694 3184 
Q 3534 3684 3231 3912 
Q 2928 4141 2469 4141 
Q 1941 4141 1586 3887 
Q 1231 3634 1087 3207 
Q 944 2781 944 2328 
Q 944 1744 1114 1308 
Q 1284 872 1643 656 
Q 2003 441 2422 441 
Q 2931 441 3284 734 
Q 3638 1028 3763 1606 
z
" transform="scale(0.015625)"/>
      <path id="ArialMT-6f" d="M 213 1659 
Q 213 2581 725 3025 
Q 1153 3394 1769 3394 
Q 2453 3394 2887 2945 
Q 3322 2497 3322 1706 
Q 3322 1066 3130 698 
Q 2938 331 2570 128 
Q 2203 -75 1769 -75 
Q 1072 -75 642 372 
Q 213 819 213 1659 
z
M 791 1659 
Q 791 1022 1069 705 
Q 1347 388 1769 388 
Q 2188 388 2466 706 
Q 2744 1025 2744 1678 
Q 2744 2294 2464 2611 
Q 2184 2928 1769 2928 
Q 1347 2928 1069 2612 
Q 791 2297 791 1659 
z
" transform="scale(0.015625)"/>
      <path id="ArialMT-70" d="M 422 -1272 
L 422 3319 
L 934 3319 
L 934 2888 
Q 1116 3141 1344 3267 
Q 1572 3394 1897 3394 
Q 2322 3394 2647 3175 
Q 2972 2956 3137 2557 
Q 3303 2159 3303 1684 
Q 3303 1175 3120 767 
Q 2938 359 2589 142 
Q 2241 -75 1856 -75 
Q 1575 -75 1351 44 
Q 1128 163 984 344 
L 984 -1272 
L 422 -1272 
z
M 931 1641 
Q 931 1000 1190 694 
Q 1450 388 1819 388 
Q 2194 388 2461 705 
Q 2728 1022 2728 1688 
Q 2728 2322 2467 2637 
Q 2206 2953 1844 2953 
Q 1484 2953 1207 2617 
Q 931 2281 931 1641 
z
" transform="scale(0.015625)"/>
      <path id="ArialMT-61" d="M 2588 409 
Q 2275 144 1986 34 
Q 1697 -75 1366 -75 
Q 819 -75 525 192 
Q 231 459 231 875 
Q 231 1119 342 1320 
Q 453 1522 633 1644 
Q 813 1766 1038 1828 
Q 1203 1872 1538 1913 
Q 2219 1994 2541 2106 
Q 2544 2222 2544 2253 
Q 2544 2597 2384 2738 
Q 2169 2928 1744 2928 
Q 1347 2928 1158 2789 
Q 969 2650 878 2297 
L 328 2372 
Q 403 2725 575 2942 
Q 747 3159 1072 3276 
Q 1397 3394 1825 3394 
Q 2250 3394 2515 3294 
Q 2781 3194 2906 3042 
Q 3031 2891 3081 2659 
Q 3109 2516 3109 2141 
L 3109 1391 
Q 3109 606 3145 398 
Q 3181 191 3288 0 
L 2700 0 
Q 2613 175 2588 409 
z
M 2541 1666 
Q 2234 1541 1622 1453 
Q 1275 1403 1131 1340 
Q 988 1278 909 1158 
Q 831 1038 831 891 
Q 831 666 1001 516 
Q 1172 366 1500 366 
Q 1825 366 2078 508 
Q 2331 650 2450 897 
Q 2541 1088 2541 1459 
L 2541 1666 
z
" transform="scale(0.015625)"/>
      <path id="ArialMT-3a" d="M 578 2678 
L 578 3319 
L 1219 3319 
L 1219 2678 
L 578 2678 
z
M 578 0 
L 578 641 
L 1219 641 
L 1219 0 
L 578 0 
z
" transform="scale(0.015625)"/>
      <path id="ArialMT-4f" d="M 309 2231 
Q 309 3372 921 4017 
Q 1534 4663 2503 4663 
Q 3138 4663 3647 4359 
Q 4156 4056 4423 3514 
Q 4691 2972 4691 2284 
Q 4691 1588 4409 1038 
Q 4128 488 3612 205 
Q 3097 -78 2500 -78 
Q 1853 -78 1343 234 
Q 834 547 571 1087 
Q 309 1628 309 2231 
z
M 934 2222 
Q 934 1394 1379 917 
Q 1825 441 2497 441 
Q 3181 441 3623 922 
Q 4066 1403 4066 2288 
Q 4066 2847 3877 3264 
Q 3688 3681 3323 3911 
Q 2959 4141 2506 4141 
Q 1863 4141 1398 3698 
Q 934 3256 934 2222 
z
" transform="scale(0.015625)"/>
      <path id="ArialMT-6c" d="M 409 0 
L 409 4581 
L 972 4581 
L 972 0 
L 409 0 
z
" transform="scale(0.015625)"/>
      <path id="ArialMT-53" d="M 288 1472 
L 859 1522 
Q 900 1178 1048 958 
Q 1197 738 1509 602 
Q 1822 466 2213 466 
Q 2559 466 2825 569 
Q 3091 672 3220 851 
Q 3350 1031 3350 1244 
Q 3350 1459 3225 1620 
Q 3100 1781 2813 1891 
Q 2628 1963 1997 2114 
Q 1366 2266 1113 2400 
Q 784 2572 623 2826 
Q 463 3081 463 3397 
Q 463 3744 659 4045 
Q 856 4347 1234 4503 
Q 1613 4659 2075 4659 
Q 2584 4659 2973 4495 
Q 3363 4331 3572 4012 
Q 3781 3694 3797 3291 
L 3216 3247 
Q 3169 3681 2898 3903 
Q 2628 4125 2100 4125 
Q 1550 4125 1298 3923 
Q 1047 3722 1047 3438 
Q 1047 3191 1225 3031 
Q 1400 2872 2139 2705 
Q 2878 2538 3153 2413 
Q 3553 2228 3743 1945 
Q 3934 1663 3934 1294 
Q 3934 928 3725 604 
Q 3516 281 3123 101 
Q 2731 -78 2241 -78 
Q 1619 -78 1198 103 
Q 778 284 539 648 
Q 300 1013 288 1472 
z
" transform="scale(0.015625)"/>
      <path id="ArialMT-68" d="M 422 0 
L 422 4581 
L 984 4581 
L 984 2938 
Q 1378 3394 1978 3394 
Q 2347 3394 2619 3248 
Q 2891 3103 3008 2847 
Q 3125 2591 3125 2103 
L 3125 0 
L 2563 0 
L 2563 2103 
Q 2563 2525 2380 2717 
Q 2197 2909 1863 2909 
Q 1613 2909 1392 2779 
Q 1172 2650 1078 2428 
Q 984 2206 984 1816 
L 984 0 
L 422 0 
z
" transform="scale(0.015625)"/>
      <path id="ArialMT-75" d="M 2597 0 
L 2597 488 
Q 2209 -75 1544 -75 
Q 1250 -75 995 37 
Q 741 150 617 320 
Q 494 491 444 738 
Q 409 903 409 1263 
L 409 3319 
L 972 3319 
L 972 1478 
Q 972 1038 1006 884 
Q 1059 663 1231 536 
Q 1403 409 1656 409 
Q 1909 409 2131 539 
Q 2353 669 2445 892 
Q 2538 1116 2538 1541 
L 2538 3319 
L 3100 3319 
L 3100 0 
L 2597 0 
z
" transform="scale(0.015625)"/>
      <path id="ArialMT-66" d="M 556 0 
L 556 2881 
L 59 2881 
L 59 3319 
L 556 3319 
L 556 3672 
Q 556 4006 616 4169 
Q 697 4388 901 4523 
Q 1106 4659 1475 4659 
Q 1713 4659 2000 4603 
L 1916 4113 
Q 1741 4144 1584 4144 
Q 1328 4144 1222 4034 
Q 1116 3925 1116 3625 
L 1116 3319 
L 1763 3319 
L 1763 2881 
L 1116 2881 
L 1116 0 
L 556 0 
z
" transform="scale(0.015625)"/>
      <path id="ArialMT-64" d="M 2575 0 
L 2575 419 
Q 2259 -75 1647 -75 
Q 1250 -75 917 144 
Q 584 363 401 755 
Q 219 1147 219 1656 
Q 219 2153 384 2558 
Q 550 2963 881 3178 
Q 1213 3394 1622 3394 
Q 1922 3394 2156 3267 
Q 2391 3141 2538 2938 
L 2538 4581 
L 3097 4581 
L 3097 0 
L 2575 0 
z
M 797 1656 
Q 797 1019 1065 703 
Q 1334 388 1700 388 
Q 2069 388 2326 689 
Q 2584 991 2584 1609 
Q 2584 2291 2321 2609 
Q 2059 2928 1675 2928 
Q 1300 2928 1048 2622 
Q 797 2316 797 1656 
z
" transform="scale(0.015625)"/>
     </defs>
     <use xlink:href="#ArialMT-44"/>
     <use xlink:href="#ArialMT-69" x="72.216797"/>
     <use xlink:href="#ArialMT-76" x="94.433594"/>
     <use xlink:href="#ArialMT-65" x="144.433594"/>
     <use xlink:href="#ArialMT-72" x="200.048828"/>
     <use xlink:href="#ArialMT-67" x="233.349609"/>
     <use xlink:href="#ArialMT-65" x="288.964844"/>
     <use xlink:href="#ArialMT-6e" x="344.580078"/>
     <use xlink:href="#ArialMT-63" x="400.195312"/>
     <use xlink:href="#ArialMT-65" x="450.195312"/>
     <use xlink:href="#ArialMT-20" x="505.810547"/>
     <use xlink:href="#ArialMT-43" x="533.59375"/>
     <use xlink:href="#ArialMT-6f" x="605.810547"/>
     <use xlink:href="#ArialMT-6d" x="661.425781"/>
     <use xlink:href="#ArialMT-70" x="744.726562"/>
     <use xlink:href="#ArialMT-61" x="800.341797"/>
     <use xlink:href="#ArialMT-72" x="855.957031"/>
     <use xlink:href="#ArialMT-69" x="889.257812"/>
     <use xlink:href="#ArialMT-73" x="911.474609"/>
     <use xlink:href="#ArialMT-6f" x="961.474609"/>
     <use xlink:href="#ArialMT-6e" x="1017.089844"/>
     <use xlink:href="#ArialMT-3a" x="1072.705078"/>
     <use xlink:href="#ArialMT-20" x="1100.488281"/>
     <use xlink:href="#ArialMT-4f" x="1128.271484"/>
     <use xlink:href="#ArialMT-72" x="1206.054688"/>
     <use xlink:href="#ArialMT-69" x="1239.355469"/>
     <use xlink:href="#ArialMT-67" x="1261.572266"/>
     <use xlink:href="#ArialMT-69" x="1317.1875"/>
     <use xlink:href="#ArialMT-6e" x="1339.404297"/>
     <use xlink:href="#ArialMT-61" x="1395.019531"/>
     <use xlink:href="#ArialMT-6c" x="1450.634766"/>
     <use xlink:href="#ArialMT-20" x="1472.851562"/>
     <use xlink:href="#ArialMT-76" x="1500.634766"/>
     <use xlink:href="#ArialMT-73" x="1550.634766"/>
     <use xlink:href="#ArialMT-20" x="1600.634766"/>
     <use xlink:href="#ArialMT-53" x="1628.417969"/>
     <use xlink:href="#ArialMT-68" x="1695.117188"/>
     <use xlink:href="#ArialMT-75" x="1750.732422"/>
     <use xlink:href="#ArialMT-66" x="1806.347656"/>
     <use xlink:href="#ArialMT-66" x="1832.380859"/>
     <use xlink:href="#ArialMT-6c" x="1860.164062"/>
     <use xlink:href="#ArialMT-65" x="1882.380859"/>
     <use xlink:href="#ArialMT-64" x="1937.996094"/>
    </g>
   </g>
   <g id="legend_1">
    <g id="patch_5">
     <path d="M 615.14 258.915469 
L 704.741875 258.915469 
Q 706.941875 258.915469 706.941875 256.715469 
L 706.941875 147.784531 
Q 706.941875 145.584531 704.741875 145.584531 
L 615.14 145.584531 
Q 612.94 145.584531 612.94 147.784531 
L 612.94 256.715469 
Q 612.94 258.915469 615.14 258.915469 
z
" style="fill: #ffffff; opacity: 0.8; stroke: #cccccc; stroke-linejoin: miter"/>
    </g>
    <g id="line2d_9">
     <path d="M 617.34 154.149062 
L 628.34 154.149062 
L 639.34 154.149062 
" style="fill: none; stroke: #eb6ab0; stroke-width: 2; stroke-linecap: round"/>
    </g>
    <g id="text_19">
     <!-- Original -->
     <g style="fill: #262626" transform="translate(648.14 157.999062) scale(0.11 -0.11)">
      <use xlink:href="#ArialMT-4f"/>
      <use xlink:href="#ArialMT-72" x="77.783203"/>
      <use xlink:href="#ArialMT-69" x="111.083984"/>
      <use xlink:href="#ArialMT-67" x="133.300781"/>
      <use xlink:href="#ArialMT-69" x="188.916016"/>
      <use xlink:href="#ArialMT-6e" x="211.132812"/>
      <use xlink:href="#ArialMT-61" x="266.748047"/>
      <use xlink:href="#ArialMT-6c" x="322.363281"/>
     </g>
    </g>
    <g id="line2d_10">
     <path d="M 617.34 169.97875 
L 628.34 169.97875 
L 639.34 169.97875 
" style="fill: none; stroke-dasharray: 7.4,3.2; stroke-dashoffset: 0; stroke: #eb6ab0; stroke-width: 2"/>
    </g>
    <g id="text_20">
     <!-- Original -->
     <g style="fill: #262626" transform="translate(648.14 173.82875) scale(0.11 -0.11)">
      <use xlink:href="#ArialMT-4f"/>
      <use xlink:href="#ArialMT-72" x="77.783203"/>
      <use xlink:href="#ArialMT-69" x="111.083984"/>
      <use xlink:href="#ArialMT-67" x="133.300781"/>
      <use xlink:href="#ArialMT-69" x="188.916016"/>
      <use xlink:href="#ArialMT-6e" x="211.132812"/>
      <use xlink:href="#ArialMT-61" x="266.748047"/>
      <use xlink:href="#ArialMT-6c" x="322.363281"/>
     </g>
    </g>
    <g id="PathCollection_3">
     <g>
      <use xlink:href="#m5d145191ff" x="628.34" y="186.662656" style="fill: #eb6ab0; stroke: #eb6ab0"/>
     </g>
    </g>
    <g id="text_21">
     <!-- p &lt; 0.001 -->
     <g style="fill: #262626" transform="translate(648.14 189.550156) scale(0.11 -0.11)">
      <defs>
       <path id="ArialMT-3c" d="M 350 2003 
L 350 2528 
L 3384 3809 
L 3384 3250 
L 978 2263 
L 3384 1266 
L 3384 706 
L 350 2003 
z
" transform="scale(0.015625)"/>
      </defs>
      <use xlink:href="#ArialMT-70"/>
      <use xlink:href="#ArialMT-20" x="55.615234"/>
      <use xlink:href="#ArialMT-3c" x="83.398438"/>
      <use xlink:href="#ArialMT-20" x="141.796875"/>
      <use xlink:href="#ArialMT-30" x="169.580078"/>
      <use xlink:href="#ArialMT-2e" x="225.195312"/>
      <use xlink:href="#ArialMT-30" x="252.978516"/>
      <use xlink:href="#ArialMT-30" x="308.59375"/>
      <use xlink:href="#ArialMT-31" x="364.208984"/>
     </g>
    </g>
    <g id="line2d_11">
     <path d="M 617.34 201.26 
L 628.34 201.26 
L 639.34 201.26 
" style="fill: none; stroke-dasharray: 5.55,2.4; stroke-dashoffset: 0; stroke: #1a1a1a; stroke-width: 1.5"/>
    </g>
    <g id="text_22">
     <!-- Stim Onset -->
     <g style="fill: #262626" transform="translate(648.14 205.11) scale(0.11 -0.11)">
      <defs>
       <path id="ArialMT-74" d="M 1650 503 
L 1731 6 
Q 1494 -44 1306 -44 
Q 1000 -44 831 53 
Q 663 150 594 308 
Q 525 466 525 972 
L 525 2881 
L 113 2881 
L 113 3319 
L 525 3319 
L 525 4141 
L 1084 4478 
L 1084 3319 
L 1650 3319 
L 1650 2881 
L 1084 2881 
L 1084 941 
Q 1084 700 1114 631 
Q 1144 563 1211 522 
Q 1278 481 1403 481 
Q 1497 481 1650 503 
z
" transform="scale(0.015625)"/>
      </defs>
      <use xlink:href="#ArialMT-53"/>
      <use xlink:href="#ArialMT-74" x="66.699219"/>
      <use xlink:href="#ArialMT-69" x="94.482422"/>
      <use xlink:href="#ArialMT-6d" x="116.699219"/>
      <use xlink:href="#ArialMT-20" x="200"/>
      <use xlink:href="#ArialMT-4f" x="227.783203"/>
      <use xlink:href="#ArialMT-6e" x="305.566406"/>
      <use xlink:href="#ArialMT-73" x="361.181641"/>
      <use xlink:href="#ArialMT-65" x="411.181641"/>
      <use xlink:href="#ArialMT-74" x="466.796875"/>
     </g>
    </g>
    <g id="line2d_12">
     <path d="M 617.34 216.819844 
L 628.34 216.819844 
L 639.34 216.819844 
" style="fill: none; stroke-dasharray: 5.55,2.4; stroke-dashoffset: 0; stroke: #1a1a1a; stroke-width: 1.5"/>
    </g>
    <g id="text_23">
     <!-- Stim End -->
     <g style="fill: #262626" transform="translate(648.14 220.669844) scale(0.11 -0.11)">
      <defs>
       <path id="ArialMT-45" d="M 506 0 
L 506 4581 
L 3819 4581 
L 3819 4041 
L 1113 4041 
L 1113 2638 
L 3647 2638 
L 3647 2100 
L 1113 2100 
L 1113 541 
L 3925 541 
L 3925 0 
L 506 0 
z
" transform="scale(0.015625)"/>
      </defs>
      <use xlink:href="#ArialMT-53"/>
      <use xlink:href="#ArialMT-74" x="66.699219"/>
      <use xlink:href="#ArialMT-69" x="94.482422"/>
      <use xlink:href="#ArialMT-6d" x="116.699219"/>
      <use xlink:href="#ArialMT-20" x="200"/>
      <use xlink:href="#ArialMT-45" x="227.783203"/>
      <use xlink:href="#ArialMT-6e" x="294.482422"/>
      <use xlink:href="#ArialMT-64" x="350.097656"/>
     </g>
    </g>
    <g id="line2d_13">
     <path d="M 617.34 232.520625 
L 628.34 232.520625 
L 639.34 232.520625 
" style="fill: none; stroke: #8b0a50; stroke-width: 2; stroke-linecap: round"/>
    </g>
    <g id="text_24">
     <!-- Original -->
     <g style="fill: #262626" transform="translate(648.14 236.370625) scale(0.11 -0.11)">
      <use xlink:href="#ArialMT-4f"/>
      <use xlink:href="#ArialMT-72" x="77.783203"/>
      <use xlink:href="#ArialMT-69" x="111.083984"/>
      <use xlink:href="#ArialMT-67" x="133.300781"/>
      <use xlink:href="#ArialMT-69" x="188.916016"/>
      <use xlink:href="#ArialMT-6e" x="211.132812"/>
      <use xlink:href="#ArialMT-61" x="266.748047"/>
      <use xlink:href="#ArialMT-6c" x="322.363281"/>
     </g>
    </g>
    <g id="line2d_14">
     <path d="M 617.34 248.350313 
L 628.34 248.350313 
L 639.34 248.350313 
" style="fill: none; stroke-dasharray: 7.4,3.2; stroke-dashoffset: 0; stroke: #8b0a50; stroke-width: 2"/>
    </g>
    <g id="text_25">
     <!-- Original -->
     <g style="fill: #262626" transform="translate(648.14 252.200312) scale(0.11 -0.11)">
      <use xlink:href="#ArialMT-4f"/>
      <use xlink:href="#ArialMT-72" x="77.783203"/>
      <use xlink:href="#ArialMT-69" x="111.083984"/>
      <use xlink:href="#ArialMT-67" x="133.300781"/>
      <use xlink:href="#ArialMT-69" x="188.916016"/>
      <use xlink:href="#ArialMT-6e" x="211.132812"/>
      <use xlink:href="#ArialMT-61" x="266.748047"/>
      <use xlink:href="#ArialMT-6c" x="322.363281"/>
     </g>
    </g>
   </g>
  </g>
 </g>
 <defs>
  <clipPath id="pfa4a2c8998">
   <rect x="78.46" y="26.96" width="528.98" height="350.58"/>
  </clipPath>
 </defs>
</svg>
