<?xml version="1.0" encoding="utf-8" standalone="no"?>
<!DOCTYPE svg PUBLIC "-//W3C//DTD SVG 1.1//EN"
  "http://www.w3.org/Graphics/SVG/1.1/DTD/svg11.dtd">
<svg xmlns:xlink="http://www.w3.org/1999/xlink" width="720pt" height="432pt" viewBox="0 0 720 432" xmlns="http://www.w3.org/2000/svg" version="1.1">
 <metadata>
  <rdf:RDF xmlns:dc="http://purl.org/dc/elements/1.1/" xmlns:cc="http://creativecommons.org/ns#" xmlns:rdf="http://www.w3.org/1999/02/22-rdf-syntax-ns#">
   <cc:Work>
    <dc:type rdf:resource="http://purl.org/dc/dcmitype/StillImage"/>
    <dc:date>2025-10-24T11:55:22.817194</dc:date>
    <dc:format>image/svg+xml</dc:format>
    <dc:creator>
     <cc:Agent>
      <dc:title>Matplotlib v3.9.4, https://matplotlib.org/</dc:title>
     </cc:Agent>
    </dc:creator>
   </cc:Work>
  </rdf:RDF>
 </metadata>
 <defs>
  <style type="text/css">*{stroke-linejoin: round; stroke-linecap: butt}</style>
 </defs>
 <g id="figure_1">
  <g id="patch_1">
   <path d="M 0 432 
L 720 432 
L 720 0 
L 0 0 
z
" style="fill: #ffffff"/>
  </g>
  <g id="axes_1">
   <g id="patch_2">
    <path d="M 60.2 379.18 
L 607.76 379.18 
L 607.76 27.6 
L 60.2 27.6 
L 60.2 379.18 
z
" style="fill: none"/>
   </g>
   <g id="matplotlib.axis_1">
    <g id="xtick_1">
     <g id="line2d_1">
      <defs>
       <path id="m6108f1a0f9" d="M 0 0 
L 0 5 
" style="stroke: #262626; stroke-width: 1.5"/>
      </defs>
      <g>
       <use xlink:href="#m6108f1a0f9" x="70.618689" y="379.18" style="fill: #262626; stroke: #262626; stroke-width: 1.5"/>
      </g>
     </g>
     <g id="text_1">
      <!-- −250 -->
      <g style="fill: #262626" transform="translate(53.726111 398.416719) scale(0.15 -0.15)">
       <defs>
        <path id="ArialMT-2212" d="M 3381 1997 
L 356 1997 
L 356 2522 
L 3381 2522 
L 3381 1997 
z
" transform="scale(0.015625)"/>
        <path id="ArialMT-32" d="M 3222 541 
L 3222 0 
L 194 0 
Q 188 203 259 391 
Q 375 700 629 1000 
Q 884 1300 1366 1694 
Q 2113 2306 2375 2664 
Q 2638 3022 2638 3341 
Q 2638 3675 2398 3904 
Q 2159 4134 1775 4134 
Q 1369 4134 1125 3890 
Q 881 3647 878 3216 
L 300 3275 
Q 359 3922 746 4261 
Q 1134 4600 1788 4600 
Q 2447 4600 2831 4234 
Q 3216 3869 3216 3328 
Q 3216 3053 3103 2787 
Q 2991 2522 2730 2228 
Q 2469 1934 1863 1422 
Q 1356 997 1212 845 
Q 1069 694 975 541 
L 3222 541 
z
" transform="scale(0.015625)"/>
        <path id="ArialMT-35" d="M 266 1200 
L 856 1250 
Q 922 819 1161 601 
Q 1400 384 1738 384 
Q 2144 384 2425 690 
Q 2706 997 2706 1503 
Q 2706 1984 2436 2262 
Q 2166 2541 1728 2541 
Q 1456 2541 1237 2417 
Q 1019 2294 894 2097 
L 366 2166 
L 809 4519 
L 3088 4519 
L 3088 3981 
L 1259 3981 
L 1013 2750 
Q 1425 3038 1878 3038 
Q 2478 3038 2890 2622 
Q 3303 2206 3303 1553 
Q 3303 931 2941 478 
Q 2500 -78 1738 -78 
Q 1113 -78 717 272 
Q 322 622 266 1200 
z
" transform="scale(0.015625)"/>
        <path id="ArialMT-30" d="M 266 2259 
Q 266 3072 433 3567 
Q 600 4063 929 4331 
Q 1259 4600 1759 4600 
Q 2128 4600 2406 4451 
Q 2684 4303 2865 4023 
Q 3047 3744 3150 3342 
Q 3253 2941 3253 2259 
Q 3253 1453 3087 958 
Q 2922 463 2592 192 
Q 2263 -78 1759 -78 
Q 1097 -78 719 397 
Q 266 969 266 2259 
z
M 844 2259 
Q 844 1131 1108 757 
Q 1372 384 1759 384 
Q 2147 384 2411 759 
Q 2675 1134 2675 2259 
Q 2675 3391 2411 3762 
Q 2147 4134 1753 4134 
Q 1366 4134 1134 3806 
Q 844 3388 844 2259 
z
" transform="scale(0.015625)"/>
       </defs>
       <use xlink:href="#ArialMT-2212"/>
       <use xlink:href="#ArialMT-32" x="58.398438"/>
       <use xlink:href="#ArialMT-35" x="114.013672"/>
       <use xlink:href="#ArialMT-30" x="169.628906"/>
      </g>
     </g>
    </g>
    <g id="xtick_2">
     <g id="line2d_2">
      <g>
       <use xlink:href="#m6108f1a0f9" x="142.970698" y="379.18" style="fill: #262626; stroke: #262626; stroke-width: 1.5"/>
      </g>
     </g>
     <g id="text_2">
      <!-- 0 -->
      <g style="fill: #262626" transform="translate(138.799995 398.416719) scale(0.15 -0.15)">
       <use xlink:href="#ArialMT-30"/>
      </g>
     </g>
    </g>
    <g id="xtick_3">
     <g id="line2d_3">
      <g>
       <use xlink:href="#m6108f1a0f9" x="215.322706" y="379.18" style="fill: #262626; stroke: #262626; stroke-width: 1.5"/>
      </g>
     </g>
     <g id="text_3">
      <!-- 250 -->
      <g style="fill: #262626" transform="translate(202.810597 398.416719) scale(0.15 -0.15)">
       <use xlink:href="#ArialMT-32"/>
       <use xlink:href="#ArialMT-35" x="55.615234"/>
       <use xlink:href="#ArialMT-30" x="111.230469"/>
      </g>
     </g>
    </g>
    <g id="xtick_4">
     <g id="line2d_4">
      <g>
       <use xlink:href="#m6108f1a0f9" x="287.674715" y="379.18" style="fill: #262626; stroke: #262626; stroke-width: 1.5"/>
      </g>
     </g>
     <g id="text_4">
      <!-- 500 -->
      <g style="fill: #262626" transform="translate(275.162605 398.416719) scale(0.15 -0.15)">
       <use xlink:href="#ArialMT-35"/>
       <use xlink:href="#ArialMT-30" x="55.615234"/>
       <use xlink:href="#ArialMT-30" x="111.230469"/>
      </g>
     </g>
    </g>
    <g id="xtick_5">
     <g id="line2d_5">
      <g>
       <use xlink:href="#m6108f1a0f9" x="360.026723" y="379.18" style="fill: #262626; stroke: #262626; stroke-width: 1.5"/>
      </g>
     </g>
     <g id="text_5">
      <!-- 750 -->
      <g style="fill: #262626" transform="translate(347.514614 398.416719) scale(0.15 -0.15)">
       <defs>
        <path id="ArialMT-37" d="M 303 3981 
L 303 4522 
L 3269 4522 
L 3269 4084 
Q 2831 3619 2401 2847 
Q 1972 2075 1738 1259 
Q 1569 684 1522 0 
L 944 0 
Q 953 541 1156 1306 
Q 1359 2072 1739 2783 
Q 2119 3494 2547 3981 
L 303 3981 
z
" transform="scale(0.015625)"/>
       </defs>
       <use xlink:href="#ArialMT-37"/>
       <use xlink:href="#ArialMT-35" x="55.615234"/>
       <use xlink:href="#ArialMT-30" x="111.230469"/>
      </g>
     </g>
    </g>
    <g id="xtick_6">
     <g id="line2d_6">
      <g>
       <use xlink:href="#m6108f1a0f9" x="432.378732" y="379.18" style="fill: #262626; stroke: #262626; stroke-width: 1.5"/>
      </g>
     </g>
     <g id="text_6">
      <!-- 1000 -->
      <g style="fill: #262626" transform="translate(415.695919 398.416719) scale(0.15 -0.15)">
       <defs>
        <path id="ArialMT-31" d="M 2384 0 
L 1822 0 
L 1822 3584 
Q 1619 3391 1289 3197 
Q 959 3003 697 2906 
L 697 3450 
Q 1169 3672 1522 3987 
Q 1875 4303 2022 4600 
L 2384 4600 
L 2384 0 
z
" transform="scale(0.015625)"/>
       </defs>
       <use xlink:href="#ArialMT-31"/>
       <use xlink:href="#ArialMT-30" x="55.615234"/>
       <use xlink:href="#ArialMT-30" x="111.230469"/>
       <use xlink:href="#ArialMT-30" x="166.845703"/>
      </g>
     </g>
    </g>
    <g id="xtick_7">
     <g id="line2d_7">
      <g>
       <use xlink:href="#m6108f1a0f9" x="504.73074" y="379.18" style="fill: #262626; stroke: #262626; stroke-width: 1.5"/>
      </g>
     </g>
     <g id="text_7">
      <!-- 1250 -->
      <g style="fill: #262626" transform="translate(488.047927 398.416719) scale(0.15 -0.15)">
       <use xlink:href="#ArialMT-31"/>
       <use xlink:href="#ArialMT-32" x="55.615234"/>
       <use xlink:href="#ArialMT-35" x="111.230469"/>
       <use xlink:href="#ArialMT-30" x="166.845703"/>
      </g>
     </g>
    </g>
    <g id="xtick_8">
     <g id="line2d_8">
      <g>
       <use xlink:href="#m6108f1a0f9" x="577.082748" y="379.18" style="fill: #262626; stroke: #262626; stroke-width: 1.5"/>
      </g>
     </g>
     <g id="text_8">
      <!-- 1500 -->
      <g style="fill: #262626" transform="translate(560.399936 398.416719) scale(0.15 -0.15)">
       <use xlink:href="#ArialMT-31"/>
       <use xlink:href="#ArialMT-35" x="55.615234"/>
       <use xlink:href="#ArialMT-30" x="111.230469"/>
       <use xlink:href="#ArialMT-30" x="166.845703"/>
      </g>
     </g>
    </g>
    <g id="text_9">
     <!-- Time (s) -->
     <g style="fill: #262626" transform="translate(306.767891 416.3175) scale(0.15 -0.15)">
      <defs>
       <path id="ArialMT-54" d="M 1659 0 
L 1659 4041 
L 150 4041 
L 150 4581 
L 3781 4581 
L 3781 4041 
L 2266 4041 
L 2266 0 
L 1659 0 
z
" transform="scale(0.015625)"/>
       <path id="ArialMT-69" d="M 425 3934 
L 425 4581 
L 988 4581 
L 988 3934 
L 425 3934 
z
M 425 0 
L 425 3319 
L 988 3319 
L 988 0 
L 425 0 
z
" transform="scale(0.015625)"/>
       <path id="ArialMT-6d" d="M 422 0 
L 422 3319 
L 925 3319 
L 925 2853 
Q 1081 3097 1340 3245 
Q 1600 3394 1931 3394 
Q 2300 3394 2536 3241 
Q 2772 3088 2869 2813 
Q 3263 3394 3894 3394 
Q 4388 3394 4653 3120 
Q 4919 2847 4919 2278 
L 4919 0 
L 4359 0 
L 4359 2091 
Q 4359 2428 4304 2576 
Q 4250 2725 4106 2815 
Q 3963 2906 3769 2906 
Q 3419 2906 3187 2673 
Q 2956 2441 2956 1928 
L 2956 0 
L 2394 0 
L 2394 2156 
Q 2394 2531 2256 2718 
Q 2119 2906 1806 2906 
Q 1569 2906 1367 2781 
Q 1166 2656 1075 2415 
Q 984 2175 984 1722 
L 984 0 
L 422 0 
z
" transform="scale(0.015625)"/>
       <path id="ArialMT-65" d="M 2694 1069 
L 3275 997 
Q 3138 488 2766 206 
Q 2394 -75 1816 -75 
Q 1088 -75 661 373 
Q 234 822 234 1631 
Q 234 2469 665 2931 
Q 1097 3394 1784 3394 
Q 2450 3394 2872 2941 
Q 3294 2488 3294 1666 
Q 3294 1616 3291 1516 
L 816 1516 
Q 847 969 1125 678 
Q 1403 388 1819 388 
Q 2128 388 2347 550 
Q 2566 713 2694 1069 
z
M 847 1978 
L 2700 1978 
Q 2663 2397 2488 2606 
Q 2219 2931 1791 2931 
Q 1403 2931 1139 2672 
Q 875 2413 847 1978 
z
" transform="scale(0.015625)"/>
       <path id="ArialMT-20" transform="scale(0.015625)"/>
       <path id="ArialMT-28" d="M 1497 -1347 
Q 1031 -759 709 28 
Q 388 816 388 1659 
Q 388 2403 628 3084 
Q 909 3875 1497 4659 
L 1900 4659 
Q 1522 4009 1400 3731 
Q 1209 3300 1100 2831 
Q 966 2247 966 1656 
Q 966 153 1900 -1347 
L 1497 -1347 
z
" transform="scale(0.015625)"/>
       <path id="ArialMT-73" d="M 197 991 
L 753 1078 
Q 800 744 1014 566 
Q 1228 388 1613 388 
Q 2000 388 2187 545 
Q 2375 703 2375 916 
Q 2375 1106 2209 1216 
Q 2094 1291 1634 1406 
Q 1016 1563 777 1677 
Q 538 1791 414 1992 
Q 291 2194 291 2438 
Q 291 2659 392 2848 
Q 494 3038 669 3163 
Q 800 3259 1026 3326 
Q 1253 3394 1513 3394 
Q 1903 3394 2198 3281 
Q 2494 3169 2634 2976 
Q 2775 2784 2828 2463 
L 2278 2388 
Q 2241 2644 2061 2787 
Q 1881 2931 1553 2931 
Q 1166 2931 1000 2803 
Q 834 2675 834 2503 
Q 834 2394 903 2306 
Q 972 2216 1119 2156 
Q 1203 2125 1616 2013 
Q 2213 1853 2448 1751 
Q 2684 1650 2818 1456 
Q 2953 1263 2953 975 
Q 2953 694 2789 445 
Q 2625 197 2315 61 
Q 2006 -75 1616 -75 
Q 969 -75 630 194 
Q 291 463 197 991 
z
" transform="scale(0.015625)"/>
       <path id="ArialMT-29" d="M 791 -1347 
L 388 -1347 
Q 1322 153 1322 1656 
Q 1322 2244 1188 2822 
Q 1081 3291 891 3722 
Q 769 4003 388 4659 
L 791 4659 
Q 1378 3875 1659 3084 
Q 1900 2403 1900 1659 
Q 1900 816 1576 28 
Q 1253 -759 791 -1347 
z
" transform="scale(0.015625)"/>
      </defs>
      <use xlink:href="#ArialMT-54"/>
      <use xlink:href="#ArialMT-69" x="57.333984"/>
      <use xlink:href="#ArialMT-6d" x="79.550781"/>
      <use xlink:href="#ArialMT-65" x="162.851562"/>
      <use xlink:href="#ArialMT-20" x="218.466797"/>
      <use xlink:href="#ArialMT-28" x="246.25"/>
      <use xlink:href="#ArialMT-73" x="279.550781"/>
      <use xlink:href="#ArialMT-29" x="329.550781"/>
     </g>
    </g>
   </g>
   <g id="matplotlib.axis_2">
    <g id="ytick_1">
     <g id="line2d_9">
      <defs>
       <path id="maad110c29a" d="M 0 0 
L -5 0 
" style="stroke: #262626; stroke-width: 1.5"/>
      </defs>
      <g>
       <use xlink:href="#maad110c29a" x="60.2" y="351.566194" style="fill: #262626; stroke: #262626; stroke-width: 1.5"/>
      </g>
     </g>
     <g id="text_10">
      <!-- 0.0 -->
      <g style="fill: #262626" transform="translate(30.85 356.934553) scale(0.15 -0.15)">
       <defs>
        <path id="ArialMT-2e" d="M 581 0 
L 581 641 
L 1222 641 
L 1222 0 
L 581 0 
z
" transform="scale(0.015625)"/>
       </defs>
       <use xlink:href="#ArialMT-30"/>
       <use xlink:href="#ArialMT-2e" x="55.615234"/>
       <use xlink:href="#ArialMT-30" x="83.398438"/>
      </g>
     </g>
    </g>
    <g id="ytick_2">
     <g id="line2d_10">
      <g>
       <use xlink:href="#maad110c29a" x="60.2" y="293.40171" style="fill: #262626; stroke: #262626; stroke-width: 1.5"/>
      </g>
     </g>
     <g id="text_11">
      <!-- 0.1 -->
      <g style="fill: #262626" transform="translate(30.85 298.770069) scale(0.15 -0.15)">
       <use xlink:href="#ArialMT-30"/>
       <use xlink:href="#ArialMT-2e" x="55.615234"/>
       <use xlink:href="#ArialMT-31" x="83.398438"/>
      </g>
     </g>
    </g>
    <g id="ytick_3">
     <g id="line2d_11">
      <g>
       <use xlink:href="#maad110c29a" x="60.2" y="235.237226" style="fill: #262626; stroke: #262626; stroke-width: 1.5"/>
      </g>
     </g>
     <g id="text_12">
      <!-- 0.2 -->
      <g style="fill: #262626" transform="translate(30.85 240.605585) scale(0.15 -0.15)">
       <use xlink:href="#ArialMT-30"/>
       <use xlink:href="#ArialMT-2e" x="55.615234"/>
       <use xlink:href="#ArialMT-32" x="83.398438"/>
      </g>
     </g>
    </g>
    <g id="ytick_4">
     <g id="line2d_12">
      <g>
       <use xlink:href="#maad110c29a" x="60.2" y="177.072741" style="fill: #262626; stroke: #262626; stroke-width: 1.5"/>
      </g>
     </g>
     <g id="text_13">
      <!-- 0.3 -->
      <g style="fill: #262626" transform="translate(30.85 182.441101) scale(0.15 -0.15)">
       <defs>
        <path id="ArialMT-33" d="M 269 1209 
L 831 1284 
Q 928 806 1161 595 
Q 1394 384 1728 384 
Q 2125 384 2398 659 
Q 2672 934 2672 1341 
Q 2672 1728 2419 1979 
Q 2166 2231 1775 2231 
Q 1616 2231 1378 2169 
L 1441 2663 
Q 1497 2656 1531 2656 
Q 1891 2656 2178 2843 
Q 2466 3031 2466 3422 
Q 2466 3731 2256 3934 
Q 2047 4138 1716 4138 
Q 1388 4138 1169 3931 
Q 950 3725 888 3313 
L 325 3413 
Q 428 3978 793 4289 
Q 1159 4600 1703 4600 
Q 2078 4600 2393 4439 
Q 2709 4278 2876 4000 
Q 3044 3722 3044 3409 
Q 3044 3113 2884 2869 
Q 2725 2625 2413 2481 
Q 2819 2388 3044 2092 
Q 3269 1797 3269 1353 
Q 3269 753 2831 336 
Q 2394 -81 1725 -81 
Q 1122 -81 723 278 
Q 325 638 269 1209 
z
" transform="scale(0.015625)"/>
       </defs>
       <use xlink:href="#ArialMT-30"/>
       <use xlink:href="#ArialMT-2e" x="55.615234"/>
       <use xlink:href="#ArialMT-33" x="83.398438"/>
      </g>
     </g>
    </g>
    <g id="ytick_5">
     <g id="line2d_13">
      <g>
       <use xlink:href="#maad110c29a" x="60.2" y="118.908257" style="fill: #262626; stroke: #262626; stroke-width: 1.5"/>
      </g>
     </g>
     <g id="text_14">
      <!-- 0.4 -->
      <g style="fill: #262626" transform="translate(30.85 124.276617) scale(0.15 -0.15)">
       <defs>
        <path id="ArialMT-34" d="M 2069 0 
L 2069 1097 
L 81 1097 
L 81 1613 
L 2172 4581 
L 2631 4581 
L 2631 1613 
L 3250 1613 
L 3250 1097 
L 2631 1097 
L 2631 0 
L 2069 0 
z
M 2069 1613 
L 2069 3678 
L 634 1613 
L 2069 1613 
z
" transform="scale(0.015625)"/>
       </defs>
       <use xlink:href="#ArialMT-30"/>
       <use xlink:href="#ArialMT-2e" x="55.615234"/>
       <use xlink:href="#ArialMT-34" x="83.398438"/>
      </g>
     </g>
    </g>
    <g id="ytick_6">
     <g id="line2d_14">
      <g>
       <use xlink:href="#maad110c29a" x="60.2" y="60.743773" style="fill: #262626; stroke: #262626; stroke-width: 1.5"/>
      </g>
     </g>
     <g id="text_15">
      <!-- 0.5 -->
      <g style="fill: #262626" transform="translate(30.85 66.112132) scale(0.15 -0.15)">
       <use xlink:href="#ArialMT-30"/>
       <use xlink:href="#ArialMT-2e" x="55.615234"/>
       <use xlink:href="#ArialMT-35" x="83.398438"/>
      </g>
     </g>
    </g>
    <g id="text_16">
     <!-- Divergence -->
     <g style="fill: #262626" transform="translate(23.692969 241.323594) rotate(-90) scale(0.15 -0.15)">
      <defs>
       <path id="ArialMT-44" d="M 494 0 
L 494 4581 
L 2072 4581 
Q 2606 4581 2888 4516 
Q 3281 4425 3559 4188 
Q 3922 3881 4101 3404 
Q 4281 2928 4281 2316 
Q 4281 1794 4159 1391 
Q 4038 988 3847 723 
Q 3656 459 3429 307 
Q 3203 156 2883 78 
Q 2563 0 2147 0 
L 494 0 
z
M 1100 541 
L 2078 541 
Q 2531 541 2789 625 
Q 3047 709 3200 863 
Q 3416 1078 3536 1442 
Q 3656 1806 3656 2325 
Q 3656 3044 3420 3430 
Q 3184 3816 2847 3947 
Q 2603 4041 2063 4041 
L 1100 4041 
L 1100 541 
z
" transform="scale(0.015625)"/>
       <path id="ArialMT-76" d="M 1344 0 
L 81 3319 
L 675 3319 
L 1388 1331 
Q 1503 1009 1600 663 
Q 1675 925 1809 1294 
L 2547 3319 
L 3125 3319 
L 1869 0 
L 1344 0 
z
" transform="scale(0.015625)"/>
       <path id="ArialMT-72" d="M 416 0 
L 416 3319 
L 922 3319 
L 922 2816 
Q 1116 3169 1280 3281 
Q 1444 3394 1641 3394 
Q 1925 3394 2219 3213 
L 2025 2691 
Q 1819 2813 1613 2813 
Q 1428 2813 1281 2702 
Q 1134 2591 1072 2394 
Q 978 2094 978 1738 
L 978 0 
L 416 0 
z
" transform="scale(0.015625)"/>
       <path id="ArialMT-67" d="M 319 -275 
L 866 -356 
Q 900 -609 1056 -725 
Q 1266 -881 1628 -881 
Q 2019 -881 2231 -725 
Q 2444 -569 2519 -288 
Q 2563 -116 2559 434 
Q 2191 0 1641 0 
Q 956 0 581 494 
Q 206 988 206 1678 
Q 206 2153 378 2554 
Q 550 2956 876 3175 
Q 1203 3394 1644 3394 
Q 2231 3394 2613 2919 
L 2613 3319 
L 3131 3319 
L 3131 450 
Q 3131 -325 2973 -648 
Q 2816 -972 2473 -1159 
Q 2131 -1347 1631 -1347 
Q 1038 -1347 672 -1080 
Q 306 -813 319 -275 
z
M 784 1719 
Q 784 1066 1043 766 
Q 1303 466 1694 466 
Q 2081 466 2343 764 
Q 2606 1063 2606 1700 
Q 2606 2309 2336 2618 
Q 2066 2928 1684 2928 
Q 1309 2928 1046 2623 
Q 784 2319 784 1719 
z
" transform="scale(0.015625)"/>
       <path id="ArialMT-6e" d="M 422 0 
L 422 3319 
L 928 3319 
L 928 2847 
Q 1294 3394 1984 3394 
Q 2284 3394 2536 3286 
Q 2788 3178 2913 3003 
Q 3038 2828 3088 2588 
Q 3119 2431 3119 2041 
L 3119 0 
L 2556 0 
L 2556 2019 
Q 2556 2363 2490 2533 
Q 2425 2703 2258 2804 
Q 2091 2906 1866 2906 
Q 1506 2906 1245 2678 
Q 984 2450 984 1813 
L 984 0 
L 422 0 
z
" transform="scale(0.015625)"/>
       <path id="ArialMT-63" d="M 2588 1216 
L 3141 1144 
Q 3050 572 2676 248 
Q 2303 -75 1759 -75 
Q 1078 -75 664 370 
Q 250 816 250 1647 
Q 250 2184 428 2587 
Q 606 2991 970 3192 
Q 1334 3394 1763 3394 
Q 2303 3394 2647 3120 
Q 2991 2847 3088 2344 
L 2541 2259 
Q 2463 2594 2264 2762 
Q 2066 2931 1784 2931 
Q 1359 2931 1093 2626 
Q 828 2322 828 1663 
Q 828 994 1084 691 
Q 1341 388 1753 388 
Q 2084 388 2306 591 
Q 2528 794 2588 1216 
z
" transform="scale(0.015625)"/>
      </defs>
      <use xlink:href="#ArialMT-44"/>
      <use xlink:href="#ArialMT-69" x="72.216797"/>
      <use xlink:href="#ArialMT-76" x="94.433594"/>
      <use xlink:href="#ArialMT-65" x="144.433594"/>
      <use xlink:href="#ArialMT-72" x="200.048828"/>
      <use xlink:href="#ArialMT-67" x="233.349609"/>
      <use xlink:href="#ArialMT-65" x="288.964844"/>
      <use xlink:href="#ArialMT-6e" x="344.580078"/>
      <use xlink:href="#ArialMT-63" x="400.195312"/>
      <use xlink:href="#ArialMT-65" x="450.195312"/>
     </g>
    </g>
   </g>
   <g id="PolyCollection_1">
    <defs>
     <path id="m7f42ad3cb7" d="M 85.089091 -83.153938 
L 85.089091 -78.864974 
L 90.877252 -79.704169 
L 96.665412 -78.899727 
L 102.453573 -80.342542 
L 108.241734 -79.642574 
L 114.029894 -80.589263 
L 119.818055 -78.786789 
L 125.606216 -78.558742 
L 131.394376 -80.33789 
L 137.182537 -79.972241 
L 142.970698 -188.941562 
L 148.758858 -245.817913 
L 154.547019 -289.579101 
L 160.33518 -296.743177 
L 166.12334 -274.077058 
L 171.911501 -265.30759 
L 177.699662 -270.477841 
L 183.487822 -271.886772 
L 189.275983 -276.087954 
L 195.064144 -274.241752 
L 200.852304 -275.914977 
L 206.640465 -277.671285 
L 212.428626 -275.424033 
L 218.216786 -274.345886 
L 224.004947 -272.618203 
L 229.793108 -282.854344 
L 235.581268 -285.949317 
L 241.369429 -292.658103 
L 247.15759 -299.492001 
L 252.945751 -304.928716 
L 258.733911 -313.767593 
L 264.522072 -322.219832 
L 270.310233 -331.012664 
L 276.098393 -337.739265 
L 281.886554 -345.972372 
L 287.674715 -348.818615 
L 293.462875 -350.816332 
L 299.251036 -348.182057 
L 305.039197 -351.168485 
L 310.827357 -346.465669 
L 316.615518 -340.911407 
L 322.403679 -343.197183 
L 328.191839 -342.756835 
L 333.98 -343.718551 
L 339.768161 -334.861165 
L 345.556321 -327.490082 
L 351.344482 -313.836855 
L 357.132643 -303.318476 
L 362.920803 -304.712661 
L 368.708964 -300.127087 
L 374.497125 -288.593151 
L 380.285285 -279.144521 
L 386.073446 -286.486898 
L 391.861607 -288.354221 
L 397.649767 -284.731519 
L 403.437928 -285.084467 
L 409.226089 -279.653431 
L 415.014249 -274.756243 
L 420.80241 -273.890531 
L 426.590571 -276.134659 
L 432.378732 -243.629144 
L 438.166892 -270.297963 
L 443.955053 -274.773368 
L 449.743214 -231.377653 
L 455.531374 -217.570403 
L 461.319535 -218.311918 
L 467.107696 -217.555485 
L 472.895856 -217.590654 
L 478.684017 -217.602652 
L 484.472178 -218.460291 
L 490.260338 -217.787692 
L 496.048499 -218.147252 
L 501.83666 -217.626326 
L 507.62482 -218.602543 
L 513.412981 -217.826158 
L 519.201142 -217.64742 
L 524.989302 -216.432748 
L 530.777463 -216.72517 
L 536.565624 -215.772606 
L 542.353784 -218.005304 
L 548.141945 -213.872391 
L 553.930106 -216.953213 
L 559.718266 -217.467644 
L 565.506427 -216.175884 
L 571.294588 -216.846867 
L 577.082748 -217.906595 
L 582.870909 -217.11084 
L 582.870909 -251.820142 
L 582.870909 -251.820142 
L 577.082748 -252.34353 
L 571.294588 -251.246729 
L 565.506427 -250.452494 
L 559.718266 -251.888422 
L 553.930106 -251.433734 
L 548.141945 -248.092783 
L 542.353784 -252.313516 
L 536.565624 -250.135529 
L 530.777463 -250.972972 
L 524.989302 -250.843029 
L 519.201142 -252.253904 
L 513.412981 -252.513996 
L 507.62482 -253.524341 
L 501.83666 -252.42949 
L 496.048499 -252.71661 
L 490.260338 -252.417327 
L 484.472178 -252.892339 
L 478.684017 -251.713111 
L 472.895856 -252.211506 
L 467.107696 -251.764419 
L 461.319535 -252.034592 
L 455.531374 -250.64223 
L 449.743214 -266.251783 
L 443.955053 -313.499415 
L 438.166892 -303.414341 
L 432.378732 -270.266427 
L 426.590571 -301.367876 
L 420.80241 -298.726149 
L 415.014249 -298.982063 
L 409.226089 -303.858789 
L 403.437928 -310.039413 
L 397.649767 -310.623061 
L 391.861607 -313.823975 
L 386.073446 -311.858678 
L 380.285285 -304.801105 
L 374.497125 -314.448817 
L 368.708964 -325.992802 
L 362.920803 -331.538905 
L 357.132643 -331.576911 
L 351.344482 -343.77006 
L 345.556321 -359.139067 
L 339.768161 -368.003014 
L 333.98 -378.101318 
L 328.191839 -377.706744 
L 322.403679 -378.571156 
L 316.615518 -376.869667 
L 310.827357 -383.303308 
L 305.039197 -388.419091 
L 299.251036 -385.691411 
L 293.462875 -387.490591 
L 287.674715 -383.74659 
L 281.886554 -380.326465 
L 276.098393 -371.19674 
L 270.310233 -363.315835 
L 264.522072 -353.036046 
L 258.733911 -343.113518 
L 252.945751 -333.135858 
L 247.15759 -327.363871 
L 241.369429 -319.256493 
L 235.581268 -311.877901 
L 229.793108 -308.255186 
L 224.004947 -297.527952 
L 218.216786 -299.289347 
L 212.428626 -301.169746 
L 206.640465 -303.713068 
L 200.852304 -302.550222 
L 195.064144 -300.659077 
L 189.275983 -302.207479 
L 183.487822 -298.085526 
L 177.699662 -296.429936 
L 171.911501 -291.936236 
L 166.12334 -302.636682 
L 160.33518 -327.796365 
L 154.547019 -320.75243 
L 148.758858 -274.704449 
L 142.970698 -215.046491 
L 137.182537 -81.413101 
L 131.394376 -81.902638 
L 125.606216 -80.18518 
L 119.818055 -80.706624 
L 114.029894 -82.072546 
L 108.241734 -81.364112 
L 102.453573 -81.972692 
L 96.665412 -80.477936 
L 90.877252 -81.628892 
L 85.089091 -83.153938 
z
" style="stroke: #eb6ab0; stroke-opacity: 0.1"/>
    </defs>
    <g clip-path="url(#p4190e4ce6b)">
     <use xlink:href="#m7f42ad3cb7" x="0" y="432" style="fill: #eb6ab0; fill-opacity: 0.1; stroke: #eb6ab0; stroke-opacity: 0.1"/>
    </g>
   </g>
   <g id="PolyCollection_2">
    <defs>
     <path id="m61099631a4" d="M 85.089091 -81.120181 
L 85.089091 -80.303913 
L 90.877252 -80.000964 
L 96.665412 -79.964238 
L 102.453573 -80.156492 
L 108.241734 -79.970037 
L 114.029894 -79.478095 
L 119.818055 -80.1303 
L 125.606216 -80.118014 
L 131.394376 -80.565214 
L 137.182537 -80.203975 
L 142.970698 -84.114385 
L 148.758858 -86.385106 
L 154.547019 -89.437848 
L 160.33518 -90.905517 
L 166.12334 -87.754308 
L 171.911501 -86.542773 
L 177.699662 -88.827724 
L 183.487822 -90.885312 
L 189.275983 -90.397431 
L 195.064144 -89.563772 
L 200.852304 -89.679936 
L 206.640465 -88.828244 
L 212.428626 -88.000393 
L 218.216786 -89.14026 
L 224.004947 -89.09157 
L 229.793108 -87.922451 
L 235.581268 -89.204671 
L 241.369429 -91.305553 
L 247.15759 -92.293677 
L 252.945751 -92.116398 
L 258.733911 -91.635925 
L 264.522072 -91.384077 
L 270.310233 -90.59043 
L 276.098393 -91.219924 
L 281.886554 -92.688023 
L 287.674715 -93.315529 
L 293.462875 -94.279117 
L 299.251036 -94.15817 
L 305.039197 -93.756926 
L 310.827357 -94.112121 
L 316.615518 -93.934991 
L 322.403679 -94.147461 
L 328.191839 -93.857114 
L 333.98 -93.82923 
L 339.768161 -96.104107 
L 345.556321 -98.89407 
L 351.344482 -98.811406 
L 357.132643 -95.601419 
L 362.920803 -94.05937 
L 368.708964 -92.826061 
L 374.497125 -90.080141 
L 380.285285 -89.804487 
L 386.073446 -90.7962 
L 391.861607 -92.432645 
L 397.649767 -95.462997 
L 403.437928 -94.347554 
L 409.226089 -92.618425 
L 415.014249 -92.052204 
L 420.80241 -90.945333 
L 426.590571 -88.87756 
L 432.378732 -84.953516 
L 438.166892 -85.543528 
L 443.955053 -85.124135 
L 449.743214 -83.586603 
L 455.531374 -83.047957 
L 461.319535 -82.649935 
L 467.107696 -82.951256 
L 472.895856 -82.513559 
L 478.684017 -82.936425 
L 484.472178 -82.26532 
L 490.260338 -82.424296 
L 496.048499 -81.943783 
L 501.83666 -81.982814 
L 507.62482 -81.940448 
L 513.412981 -82.126173 
L 519.201142 -82.263345 
L 524.989302 -82.287758 
L 530.777463 -82.074661 
L 536.565624 -82.216212 
L 542.353784 -81.607898 
L 548.141945 -81.964824 
L 553.930106 -82.211989 
L 559.718266 -82.231452 
L 565.506427 -82.076818 
L 571.294588 -82.167806 
L 577.082748 -81.793977 
L 582.870909 -81.965008 
L 582.870909 -82.669058 
L 582.870909 -82.669058 
L 577.082748 -82.570575 
L 571.294588 -82.931717 
L 565.506427 -82.712183 
L 559.718266 -82.977285 
L 553.930106 -83.083791 
L 548.141945 -82.720716 
L 542.353784 -82.321676 
L 536.565624 -83.003584 
L 530.777463 -82.809132 
L 524.989302 -83.019109 
L 519.201142 -83.011909 
L 513.412981 -82.94124 
L 507.62482 -82.643345 
L 501.83666 -82.728404 
L 496.048499 -82.632329 
L 490.260338 -83.16086 
L 484.472178 -83.23588 
L 478.684017 -83.843083 
L 472.895856 -83.378512 
L 467.107696 -83.809169 
L 461.319535 -83.376326 
L 455.531374 -83.844885 
L 449.743214 -84.400043 
L 443.955053 -86.321648 
L 438.166892 -86.519849 
L 432.378732 -85.872657 
L 426.590571 -90.206552 
L 420.80241 -92.376702 
L 415.014249 -93.47144 
L 409.226089 -94.157696 
L 403.437928 -95.93158 
L 397.649767 -97.174332 
L 391.861607 -94.111054 
L 386.073446 -92.478889 
L 380.285285 -91.440453 
L 374.497125 -91.745228 
L 368.708964 -94.397232 
L 362.920803 -95.70578 
L 357.132643 -97.243803 
L 351.344482 -100.691685 
L 345.556321 -100.799038 
L 339.768161 -98.152717 
L 333.98 -95.865596 
L 328.191839 -95.905369 
L 322.403679 -96.327188 
L 316.615518 -96.064501 
L 310.827357 -96.254744 
L 305.039197 -95.823307 
L 299.251036 -96.178905 
L 293.462875 -96.281162 
L 287.674715 -95.26241 
L 281.886554 -94.664003 
L 276.098393 -92.883442 
L 270.310233 -92.180831 
L 264.522072 -93.061743 
L 258.733911 -93.238914 
L 252.945751 -93.770913 
L 247.15759 -93.931984 
L 241.369429 -92.97088 
L 235.581268 -90.744177 
L 229.793108 -89.467159 
L 224.004947 -90.543414 
L 218.216786 -90.621862 
L 212.428626 -89.367016 
L 206.640465 -90.140454 
L 200.852304 -91.085981 
L 195.064144 -90.991293 
L 189.275983 -91.646628 
L 183.487822 -92.291959 
L 177.699662 -91.464211 
L 171.911501 -87.992656 
L 166.12334 -89.211092 
L 160.33518 -92.460725 
L 154.547019 -90.791418 
L 148.758858 -87.774544 
L 142.970698 -85.348013 
L 137.182537 -80.592643 
L 131.394376 -80.868125 
L 125.606216 -80.441259 
L 119.818055 -80.493446 
L 114.029894 -79.917306 
L 108.241734 -80.476845 
L 102.453573 -80.518615 
L 96.665412 -80.337064 
L 90.877252 -80.380259 
L 85.089091 -81.120181 
z
" style="stroke: #eb6ab0; stroke-opacity: 0.1"/>
    </defs>
    <g clip-path="url(#p4190e4ce6b)">
     <use xlink:href="#m61099631a4" x="0" y="432" style="fill: #eb6ab0; fill-opacity: 0.1; stroke: #eb6ab0; stroke-opacity: 0.1"/>
    </g>
   </g>
   <g id="PathCollection_1">
    <defs>
     <path id="m4bc55742a8" d="M 0 -3 
L -0.673542 -0.927051 
L -2.85317 -0.927051 
L -1.089814 0.354102 
L -1.763356 2.427051 
L -0 1.145898 
L 1.763356 2.427051 
L 1.089814 0.354102 
L 2.85317 -0.927051 
L 0.673542 -0.927051 
z
" style="stroke: #eb6ab0"/>
    </defs>
    <g clip-path="url(#p4190e4ce6b)">
     <use xlink:href="#m4bc55742a8" x="142.970698" y="357.382642" style="fill: #eb6ab0; stroke: #eb6ab0"/>
     <use xlink:href="#m4bc55742a8" x="148.758858" y="357.382642" style="fill: #eb6ab0; stroke: #eb6ab0"/>
     <use xlink:href="#m4bc55742a8" x="154.547019" y="357.382642" style="fill: #eb6ab0; stroke: #eb6ab0"/>
     <use xlink:href="#m4bc55742a8" x="160.33518" y="357.382642" style="fill: #eb6ab0; stroke: #eb6ab0"/>
     <use xlink:href="#m4bc55742a8" x="166.12334" y="357.382642" style="fill: #eb6ab0; stroke: #eb6ab0"/>
     <use xlink:href="#m4bc55742a8" x="171.911501" y="357.382642" style="fill: #eb6ab0; stroke: #eb6ab0"/>
     <use xlink:href="#m4bc55742a8" x="177.699662" y="357.382642" style="fill: #eb6ab0; stroke: #eb6ab0"/>
     <use xlink:href="#m4bc55742a8" x="183.487822" y="357.382642" style="fill: #eb6ab0; stroke: #eb6ab0"/>
     <use xlink:href="#m4bc55742a8" x="189.275983" y="357.382642" style="fill: #eb6ab0; stroke: #eb6ab0"/>
     <use xlink:href="#m4bc55742a8" x="195.064144" y="357.382642" style="fill: #eb6ab0; stroke: #eb6ab0"/>
     <use xlink:href="#m4bc55742a8" x="200.852304" y="357.382642" style="fill: #eb6ab0; stroke: #eb6ab0"/>
     <use xlink:href="#m4bc55742a8" x="206.640465" y="357.382642" style="fill: #eb6ab0; stroke: #eb6ab0"/>
     <use xlink:href="#m4bc55742a8" x="212.428626" y="357.382642" style="fill: #eb6ab0; stroke: #eb6ab0"/>
     <use xlink:href="#m4bc55742a8" x="218.216786" y="357.382642" style="fill: #eb6ab0; stroke: #eb6ab0"/>
     <use xlink:href="#m4bc55742a8" x="224.004947" y="357.382642" style="fill: #eb6ab0; stroke: #eb6ab0"/>
     <use xlink:href="#m4bc55742a8" x="229.793108" y="357.382642" style="fill: #eb6ab0; stroke: #eb6ab0"/>
     <use xlink:href="#m4bc55742a8" x="235.581268" y="357.382642" style="fill: #eb6ab0; stroke: #eb6ab0"/>
     <use xlink:href="#m4bc55742a8" x="241.369429" y="357.382642" style="fill: #eb6ab0; stroke: #eb6ab0"/>
     <use xlink:href="#m4bc55742a8" x="247.15759" y="357.382642" style="fill: #eb6ab0; stroke: #eb6ab0"/>
     <use xlink:href="#m4bc55742a8" x="252.945751" y="357.382642" style="fill: #eb6ab0; stroke: #eb6ab0"/>
     <use xlink:href="#m4bc55742a8" x="258.733911" y="357.382642" style="fill: #eb6ab0; stroke: #eb6ab0"/>
     <use xlink:href="#m4bc55742a8" x="264.522072" y="357.382642" style="fill: #eb6ab0; stroke: #eb6ab0"/>
     <use xlink:href="#m4bc55742a8" x="270.310233" y="357.382642" style="fill: #eb6ab0; stroke: #eb6ab0"/>
     <use xlink:href="#m4bc55742a8" x="276.098393" y="357.382642" style="fill: #eb6ab0; stroke: #eb6ab0"/>
     <use xlink:href="#m4bc55742a8" x="281.886554" y="357.382642" style="fill: #eb6ab0; stroke: #eb6ab0"/>
     <use xlink:href="#m4bc55742a8" x="287.674715" y="357.382642" style="fill: #eb6ab0; stroke: #eb6ab0"/>
     <use xlink:href="#m4bc55742a8" x="293.462875" y="357.382642" style="fill: #eb6ab0; stroke: #eb6ab0"/>
     <use xlink:href="#m4bc55742a8" x="299.251036" y="357.382642" style="fill: #eb6ab0; stroke: #eb6ab0"/>
     <use xlink:href="#m4bc55742a8" x="305.039197" y="357.382642" style="fill: #eb6ab0; stroke: #eb6ab0"/>
     <use xlink:href="#m4bc55742a8" x="310.827357" y="357.382642" style="fill: #eb6ab0; stroke: #eb6ab0"/>
     <use xlink:href="#m4bc55742a8" x="316.615518" y="357.382642" style="fill: #eb6ab0; stroke: #eb6ab0"/>
     <use xlink:href="#m4bc55742a8" x="322.403679" y="357.382642" style="fill: #eb6ab0; stroke: #eb6ab0"/>
     <use xlink:href="#m4bc55742a8" x="328.191839" y="357.382642" style="fill: #eb6ab0; stroke: #eb6ab0"/>
     <use xlink:href="#m4bc55742a8" x="333.98" y="357.382642" style="fill: #eb6ab0; stroke: #eb6ab0"/>
     <use xlink:href="#m4bc55742a8" x="339.768161" y="357.382642" style="fill: #eb6ab0; stroke: #eb6ab0"/>
     <use xlink:href="#m4bc55742a8" x="345.556321" y="357.382642" style="fill: #eb6ab0; stroke: #eb6ab0"/>
     <use xlink:href="#m4bc55742a8" x="351.344482" y="357.382642" style="fill: #eb6ab0; stroke: #eb6ab0"/>
     <use xlink:href="#m4bc55742a8" x="357.132643" y="357.382642" style="fill: #eb6ab0; stroke: #eb6ab0"/>
     <use xlink:href="#m4bc55742a8" x="362.920803" y="357.382642" style="fill: #eb6ab0; stroke: #eb6ab0"/>
     <use xlink:href="#m4bc55742a8" x="368.708964" y="357.382642" style="fill: #eb6ab0; stroke: #eb6ab0"/>
     <use xlink:href="#m4bc55742a8" x="374.497125" y="357.382642" style="fill: #eb6ab0; stroke: #eb6ab0"/>
     <use xlink:href="#m4bc55742a8" x="380.285285" y="357.382642" style="fill: #eb6ab0; stroke: #eb6ab0"/>
     <use xlink:href="#m4bc55742a8" x="386.073446" y="357.382642" style="fill: #eb6ab0; stroke: #eb6ab0"/>
     <use xlink:href="#m4bc55742a8" x="391.861607" y="357.382642" style="fill: #eb6ab0; stroke: #eb6ab0"/>
     <use xlink:href="#m4bc55742a8" x="397.649767" y="357.382642" style="fill: #eb6ab0; stroke: #eb6ab0"/>
     <use xlink:href="#m4bc55742a8" x="403.437928" y="357.382642" style="fill: #eb6ab0; stroke: #eb6ab0"/>
     <use xlink:href="#m4bc55742a8" x="409.226089" y="357.382642" style="fill: #eb6ab0; stroke: #eb6ab0"/>
     <use xlink:href="#m4bc55742a8" x="415.014249" y="357.382642" style="fill: #eb6ab0; stroke: #eb6ab0"/>
     <use xlink:href="#m4bc55742a8" x="420.80241" y="357.382642" style="fill: #eb6ab0; stroke: #eb6ab0"/>
     <use xlink:href="#m4bc55742a8" x="426.590571" y="357.382642" style="fill: #eb6ab0; stroke: #eb6ab0"/>
     <use xlink:href="#m4bc55742a8" x="432.378732" y="357.382642" style="fill: #eb6ab0; stroke: #eb6ab0"/>
     <use xlink:href="#m4bc55742a8" x="438.166892" y="357.382642" style="fill: #eb6ab0; stroke: #eb6ab0"/>
     <use xlink:href="#m4bc55742a8" x="443.955053" y="357.382642" style="fill: #eb6ab0; stroke: #eb6ab0"/>
     <use xlink:href="#m4bc55742a8" x="449.743214" y="357.382642" style="fill: #eb6ab0; stroke: #eb6ab0"/>
     <use xlink:href="#m4bc55742a8" x="455.531374" y="357.382642" style="fill: #eb6ab0; stroke: #eb6ab0"/>
     <use xlink:href="#m4bc55742a8" x="461.319535" y="357.382642" style="fill: #eb6ab0; stroke: #eb6ab0"/>
     <use xlink:href="#m4bc55742a8" x="467.107696" y="357.382642" style="fill: #eb6ab0; stroke: #eb6ab0"/>
     <use xlink:href="#m4bc55742a8" x="472.895856" y="357.382642" style="fill: #eb6ab0; stroke: #eb6ab0"/>
     <use xlink:href="#m4bc55742a8" x="478.684017" y="357.382642" style="fill: #eb6ab0; stroke: #eb6ab0"/>
     <use xlink:href="#m4bc55742a8" x="484.472178" y="357.382642" style="fill: #eb6ab0; stroke: #eb6ab0"/>
     <use xlink:href="#m4bc55742a8" x="490.260338" y="357.382642" style="fill: #eb6ab0; stroke: #eb6ab0"/>
     <use xlink:href="#m4bc55742a8" x="496.048499" y="357.382642" style="fill: #eb6ab0; stroke: #eb6ab0"/>
     <use xlink:href="#m4bc55742a8" x="501.83666" y="357.382642" style="fill: #eb6ab0; stroke: #eb6ab0"/>
     <use xlink:href="#m4bc55742a8" x="507.62482" y="357.382642" style="fill: #eb6ab0; stroke: #eb6ab0"/>
     <use xlink:href="#m4bc55742a8" x="513.412981" y="357.382642" style="fill: #eb6ab0; stroke: #eb6ab0"/>
     <use xlink:href="#m4bc55742a8" x="519.201142" y="357.382642" style="fill: #eb6ab0; stroke: #eb6ab0"/>
     <use xlink:href="#m4bc55742a8" x="524.989302" y="357.382642" style="fill: #eb6ab0; stroke: #eb6ab0"/>
     <use xlink:href="#m4bc55742a8" x="530.777463" y="357.382642" style="fill: #eb6ab0; stroke: #eb6ab0"/>
     <use xlink:href="#m4bc55742a8" x="536.565624" y="357.382642" style="fill: #eb6ab0; stroke: #eb6ab0"/>
     <use xlink:href="#m4bc55742a8" x="542.353784" y="357.382642" style="fill: #eb6ab0; stroke: #eb6ab0"/>
     <use xlink:href="#m4bc55742a8" x="548.141945" y="357.382642" style="fill: #eb6ab0; stroke: #eb6ab0"/>
     <use xlink:href="#m4bc55742a8" x="553.930106" y="357.382642" style="fill: #eb6ab0; stroke: #eb6ab0"/>
     <use xlink:href="#m4bc55742a8" x="559.718266" y="357.382642" style="fill: #eb6ab0; stroke: #eb6ab0"/>
     <use xlink:href="#m4bc55742a8" x="565.506427" y="357.382642" style="fill: #eb6ab0; stroke: #eb6ab0"/>
     <use xlink:href="#m4bc55742a8" x="571.294588" y="357.382642" style="fill: #eb6ab0; stroke: #eb6ab0"/>
     <use xlink:href="#m4bc55742a8" x="577.082748" y="357.382642" style="fill: #eb6ab0; stroke: #eb6ab0"/>
     <use xlink:href="#m4bc55742a8" x="582.870909" y="357.382642" style="fill: #eb6ab0; stroke: #eb6ab0"/>
    </g>
   </g>
   <g id="PolyCollection_3">
    <defs>
     <path id="m6b42362812" d="M 85.089091 -81.321995 
L 85.089091 -69.484289 
L 90.877252 -74.387007 
L 96.665412 -80.840267 
L 102.453573 -89.670812 
L 108.241734 -86.578484 
L 114.029894 -86.008368 
L 119.818055 -91.464484 
L 125.606216 -95.001905 
L 131.394376 -99.155942 
L 137.182537 -104.961332 
L 142.970698 -110.65294 
L 148.758858 -107.482038 
L 154.547019 -104.656725 
L 160.33518 -105.002789 
L 166.12334 -107.066895 
L 171.911501 -107.75639 
L 177.699662 -111.29102 
L 183.487822 -112.366812 
L 189.275983 -112.377947 
L 195.064144 -111.939178 
L 200.852304 -108.165642 
L 206.640465 -108.707583 
L 212.428626 -110.127577 
L 218.216786 -111.940616 
L 224.004947 -112.432212 
L 229.793108 -111.726019 
L 235.581268 -110.76804 
L 241.369429 -112.882958 
L 247.15759 -115.350223 
L 252.945751 -116.95832 
L 258.733911 -116.768366 
L 264.522072 -116.981433 
L 270.310233 -121.436716 
L 276.098393 -123.458511 
L 281.886554 -124.102463 
L 287.674715 -125.940305 
L 293.462875 -127.995139 
L 299.251036 -130.258874 
L 305.039197 -131.509403 
L 310.827357 -133.544483 
L 316.615518 -132.86942 
L 322.403679 -135.088159 
L 328.191839 -135.589459 
L 333.98 -134.188244 
L 339.768161 -135.444521 
L 345.556321 -133.699646 
L 351.344482 -131.998074 
L 357.132643 -132.146916 
L 362.920803 -133.482827 
L 368.708964 -134.901518 
L 374.497125 -133.858463 
L 380.285285 -135.68947 
L 386.073446 -132.644989 
L 391.861607 -133.516282 
L 397.649767 -133.757392 
L 403.437928 -132.509986 
L 409.226089 -133.244929 
L 415.014249 -133.716263 
L 420.80241 -133.399648 
L 426.590571 -132.832657 
L 432.378732 -131.395734 
L 438.166892 -128.256798 
L 443.955053 -123.955068 
L 449.743214 -120.280197 
L 455.531374 -116.701091 
L 461.319535 -112.067835 
L 467.107696 -111.528239 
L 472.895856 -108.105819 
L 478.684017 -106.950048 
L 484.472178 -107.442195 
L 490.260338 -104.42158 
L 496.048499 -99.598611 
L 501.83666 -99.282789 
L 507.62482 -98.802963 
L 513.412981 -95.216329 
L 519.201142 -93.847488 
L 524.989302 -93.043244 
L 530.777463 -90.033336 
L 536.565624 -87.748479 
L 542.353784 -87.934982 
L 548.141945 -88.200384 
L 553.930106 -88.220996 
L 559.718266 -87.904203 
L 565.506427 -87.578873 
L 571.294588 -87.209907 
L 577.082748 -85.740773 
L 582.870909 -85.08741 
L 582.870909 -95.041715 
L 582.870909 -95.041715 
L 577.082748 -95.591632 
L 571.294588 -96.71612 
L 565.506427 -97.34486 
L 559.718266 -98.021436 
L 553.930106 -97.964634 
L 548.141945 -97.815646 
L 542.353784 -97.960639 
L 536.565624 -97.654905 
L 530.777463 -99.744701 
L 524.989302 -102.830258 
L 519.201142 -103.563825 
L 513.412981 -105.358435 
L 507.62482 -108.815625 
L 501.83666 -109.965315 
L 496.048499 -110.619147 
L 490.260338 -115.753716 
L 484.472178 -119.183761 
L 478.684017 -119.303726 
L 472.895856 -121.23098 
L 467.107696 -124.782871 
L 461.319535 -125.721826 
L 455.531374 -131.542414 
L 449.743214 -135.493504 
L 443.955053 -139.215589 
L 438.166892 -144.481541 
L 432.378732 -148.709207 
L 426.590571 -150.914759 
L 420.80241 -151.354118 
L 415.014249 -152.133508 
L 409.226089 -151.706971 
L 403.437928 -150.995331 
L 397.649767 -152.379631 
L 391.861607 -152.211741 
L 386.073446 -151.564376 
L 380.285285 -154.750762 
L 374.497125 -153.081405 
L 368.708964 -154.489845 
L 362.920803 -153.034706 
L 357.132643 -151.783827 
L 351.344482 -151.107412 
L 345.556321 -152.782664 
L 339.768161 -154.103026 
L 333.98 -152.915391 
L 328.191839 -154.061921 
L 322.403679 -153.541333 
L 316.615518 -150.815802 
L 310.827357 -151.037198 
L 305.039197 -148.528059 
L 299.251036 -146.688333 
L 293.462875 -143.762498 
L 287.674715 -141.038258 
L 281.886554 -138.536611 
L 276.098393 -137.747689 
L 270.310233 -135.123007 
L 264.522072 -130.447935 
L 258.733911 -129.734111 
L 252.945751 -129.101916 
L 247.15759 -127.36568 
L 241.369429 -124.750954 
L 235.581268 -122.200438 
L 229.793108 -122.817766 
L 224.004947 -123.630862 
L 218.216786 -123.094033 
L 212.428626 -120.976388 
L 206.640465 -119.308167 
L 200.852304 -118.717062 
L 195.064144 -122.682059 
L 189.275983 -122.488843 
L 183.487822 -122.46418 
L 177.699662 -121.377215 
L 171.911501 -118.956522 
L 166.12334 -117.789868 
L 160.33518 -114.755093 
L 154.547019 -114.885463 
L 148.758858 -118.633654 
L 142.970698 -124.175484 
L 137.182537 -118.910657 
L 131.394376 -113.594016 
L 125.606216 -110.221765 
L 119.818055 -105.744119 
L 114.029894 -101.062487 
L 108.241734 -100.76281 
L 102.453573 -106.44586 
L 96.665412 -96.843869 
L 90.877252 -86.300112 
L 85.089091 -81.321995 
z
" style="stroke: #8b0a50; stroke-opacity: 0.1"/>
    </defs>
    <g clip-path="url(#p4190e4ce6b)">
     <use xlink:href="#m6b42362812" x="0" y="432" style="fill: #8b0a50; fill-opacity: 0.1; stroke: #8b0a50; stroke-opacity: 0.1"/>
    </g>
   </g>
   <g id="PolyCollection_4">
    <defs>
     <path id="m14e77d70fc" d="M 85.089091 -84.230901 
L 85.089091 -81.692246 
L 90.877252 -84.399776 
L 96.665412 -86.02276 
L 102.453573 -90.084428 
L 108.241734 -93.357064 
L 114.029894 -95.508136 
L 119.818055 -98.893751 
L 125.606216 -101.572422 
L 131.394376 -105.985757 
L 137.182537 -109.743827 
L 142.970698 -112.608718 
L 148.758858 -111.392767 
L 154.547019 -108.913035 
L 160.33518 -106.93953 
L 166.12334 -104.057529 
L 171.911501 -100.880066 
L 177.699662 -97.99216 
L 183.487822 -96.988803 
L 189.275983 -95.532162 
L 195.064144 -94.157981 
L 200.852304 -92.822411 
L 206.640465 -92.353744 
L 212.428626 -91.396451 
L 218.216786 -90.163983 
L 224.004947 -90.475981 
L 229.793108 -90.040982 
L 235.581268 -89.760272 
L 241.369429 -89.392855 
L 247.15759 -88.810972 
L 252.945751 -88.653271 
L 258.733911 -88.561734 
L 264.522072 -88.72196 
L 270.310233 -88.346854 
L 276.098393 -89.010184 
L 281.886554 -89.199666 
L 287.674715 -89.379246 
L 293.462875 -89.378867 
L 299.251036 -89.609172 
L 305.039197 -90.025443 
L 310.827357 -90.77957 
L 316.615518 -91.051432 
L 322.403679 -91.373974 
L 328.191839 -91.230715 
L 333.98 -91.41274 
L 339.768161 -91.114992 
L 345.556321 -91.139248 
L 351.344482 -91.110214 
L 357.132643 -90.730861 
L 362.920803 -90.773256 
L 368.708964 -90.597701 
L 374.497125 -91.051474 
L 380.285285 -90.670056 
L 386.073446 -90.149442 
L 391.861607 -89.78185 
L 397.649767 -89.458725 
L 403.437928 -88.689873 
L 409.226089 -88.674806 
L 415.014249 -88.079642 
L 420.80241 -88.269417 
L 426.590571 -88.163565 
L 432.378732 -87.273552 
L 438.166892 -86.158555 
L 443.955053 -85.24441 
L 449.743214 -84.69243 
L 455.531374 -84.47452 
L 461.319535 -84.230396 
L 467.107696 -83.544149 
L 472.895856 -82.97116 
L 478.684017 -83.147402 
L 484.472178 -83.074301 
L 490.260338 -82.519562 
L 496.048499 -82.224649 
L 501.83666 -81.76731 
L 507.62482 -82.428546 
L 513.412981 -82.137933 
L 519.201142 -82.054062 
L 524.989302 -81.846173 
L 530.777463 -81.636805 
L 536.565624 -81.680975 
L 542.353784 -81.446027 
L 548.141945 -81.727459 
L 553.930106 -81.356989 
L 559.718266 -81.413008 
L 565.506427 -81.270186 
L 571.294588 -81.292444 
L 577.082748 -81.391855 
L 582.870909 -80.925357 
L 582.870909 -82.229563 
L 582.870909 -82.229563 
L 577.082748 -82.851351 
L 571.294588 -82.753851 
L 565.506427 -82.700554 
L 559.718266 -82.847479 
L 553.930106 -82.518862 
L 548.141945 -82.932528 
L 542.353784 -82.654318 
L 536.565624 -83.019721 
L 530.777463 -82.917519 
L 524.989302 -83.083323 
L 519.201142 -83.388451 
L 513.412981 -83.476638 
L 507.62482 -83.740867 
L 501.83666 -82.94745 
L 496.048499 -83.48642 
L 490.260338 -83.802028 
L 484.472178 -84.427185 
L 478.684017 -84.491391 
L 472.895856 -84.317238 
L 467.107696 -85.084112 
L 461.319535 -85.862855 
L 455.531374 -86.093526 
L 449.743214 -86.336329 
L 443.955053 -87.024707 
L 438.166892 -88.08988 
L 432.378732 -89.407064 
L 426.590571 -90.454203 
L 420.80241 -90.662478 
L 415.014249 -90.371867 
L 409.226089 -90.994099 
L 403.437928 -91.097188 
L 397.649767 -91.877853 
L 391.861607 -92.312016 
L 386.073446 -92.703134 
L 380.285285 -93.275959 
L 374.497125 -93.662316 
L 368.708964 -93.001058 
L 362.920803 -93.251593 
L 357.132643 -93.322872 
L 351.344482 -93.723621 
L 345.556321 -93.773992 
L 339.768161 -93.723767 
L 333.98 -93.978283 
L 328.191839 -93.806965 
L 322.403679 -93.959922 
L 316.615518 -93.568262 
L 310.827357 -93.265727 
L 305.039197 -92.403931 
L 299.251036 -91.86801 
L 293.462875 -91.637615 
L 287.674715 -91.483628 
L 281.886554 -91.198301 
L 276.098393 -90.920029 
L 270.310233 -90.151012 
L 264.522072 -90.500356 
L 258.733911 -90.306849 
L 252.945751 -90.383338 
L 247.15759 -90.615597 
L 241.369429 -91.222879 
L 235.581268 -91.686966 
L 229.793108 -91.940421 
L 224.004947 -92.483927 
L 218.216786 -92.105631 
L 212.428626 -93.427183 
L 206.640465 -94.361212 
L 200.852304 -94.944407 
L 195.064144 -96.30755 
L 189.275983 -97.686677 
L 183.487822 -99.272121 
L 177.699662 -100.317258 
L 171.911501 -103.555704 
L 166.12334 -107.133395 
L 160.33518 -110.633304 
L 154.547019 -113.15974 
L 148.758858 -116.195839 
L 142.970698 -117.657396 
L 137.182537 -114.924033 
L 131.394376 -110.897651 
L 125.606216 -106.122036 
L 119.818055 -103.544887 
L 114.029894 -99.958074 
L 108.241734 -97.881847 
L 102.453573 -94.727953 
L 96.665412 -90.3352 
L 90.877252 -87.878968 
L 85.089091 -84.230901 
z
" style="stroke: #8b0a50; stroke-opacity: 0.1"/>
    </defs>
    <g clip-path="url(#p4190e4ce6b)">
     <use xlink:href="#m14e77d70fc" x="0" y="432" style="fill: #8b0a50; fill-opacity: 0.1; stroke: #8b0a50; stroke-opacity: 0.1"/>
    </g>
   </g>
   <g id="PathCollection_2">
    <defs>
     <path id="md331998f1e" d="M 0 -3 
L -0.673542 -0.927051 
L -2.85317 -0.927051 
L -1.089814 0.354102 
L -1.763356 2.427051 
L -0 1.145898 
L 1.763356 2.427051 
L 1.089814 0.354102 
L 2.85317 -0.927051 
L 0.673542 -0.927051 
z
" style="stroke: #8b0a50"/>
    </defs>
    <g clip-path="url(#p4190e4ce6b)">
     <use xlink:href="#md331998f1e" x="177.699662" y="363.199091" style="fill: #8b0a50; stroke: #8b0a50"/>
     <use xlink:href="#md331998f1e" x="183.487822" y="363.199091" style="fill: #8b0a50; stroke: #8b0a50"/>
     <use xlink:href="#md331998f1e" x="189.275983" y="363.199091" style="fill: #8b0a50; stroke: #8b0a50"/>
     <use xlink:href="#md331998f1e" x="195.064144" y="363.199091" style="fill: #8b0a50; stroke: #8b0a50"/>
     <use xlink:href="#md331998f1e" x="200.852304" y="363.199091" style="fill: #8b0a50; stroke: #8b0a50"/>
     <use xlink:href="#md331998f1e" x="206.640465" y="363.199091" style="fill: #8b0a50; stroke: #8b0a50"/>
     <use xlink:href="#md331998f1e" x="212.428626" y="363.199091" style="fill: #8b0a50; stroke: #8b0a50"/>
     <use xlink:href="#md331998f1e" x="218.216786" y="363.199091" style="fill: #8b0a50; stroke: #8b0a50"/>
     <use xlink:href="#md331998f1e" x="224.004947" y="363.199091" style="fill: #8b0a50; stroke: #8b0a50"/>
     <use xlink:href="#md331998f1e" x="229.793108" y="363.199091" style="fill: #8b0a50; stroke: #8b0a50"/>
     <use xlink:href="#md331998f1e" x="235.581268" y="363.199091" style="fill: #8b0a50; stroke: #8b0a50"/>
     <use xlink:href="#md331998f1e" x="241.369429" y="363.199091" style="fill: #8b0a50; stroke: #8b0a50"/>
     <use xlink:href="#md331998f1e" x="247.15759" y="363.199091" style="fill: #8b0a50; stroke: #8b0a50"/>
     <use xlink:href="#md331998f1e" x="252.945751" y="363.199091" style="fill: #8b0a50; stroke: #8b0a50"/>
     <use xlink:href="#md331998f1e" x="258.733911" y="363.199091" style="fill: #8b0a50; stroke: #8b0a50"/>
     <use xlink:href="#md331998f1e" x="264.522072" y="363.199091" style="fill: #8b0a50; stroke: #8b0a50"/>
     <use xlink:href="#md331998f1e" x="270.310233" y="363.199091" style="fill: #8b0a50; stroke: #8b0a50"/>
     <use xlink:href="#md331998f1e" x="276.098393" y="363.199091" style="fill: #8b0a50; stroke: #8b0a50"/>
     <use xlink:href="#md331998f1e" x="281.886554" y="363.199091" style="fill: #8b0a50; stroke: #8b0a50"/>
     <use xlink:href="#md331998f1e" x="287.674715" y="363.199091" style="fill: #8b0a50; stroke: #8b0a50"/>
     <use xlink:href="#md331998f1e" x="293.462875" y="363.199091" style="fill: #8b0a50; stroke: #8b0a50"/>
     <use xlink:href="#md331998f1e" x="299.251036" y="363.199091" style="fill: #8b0a50; stroke: #8b0a50"/>
     <use xlink:href="#md331998f1e" x="305.039197" y="363.199091" style="fill: #8b0a50; stroke: #8b0a50"/>
     <use xlink:href="#md331998f1e" x="310.827357" y="363.199091" style="fill: #8b0a50; stroke: #8b0a50"/>
     <use xlink:href="#md331998f1e" x="316.615518" y="363.199091" style="fill: #8b0a50; stroke: #8b0a50"/>
     <use xlink:href="#md331998f1e" x="322.403679" y="363.199091" style="fill: #8b0a50; stroke: #8b0a50"/>
     <use xlink:href="#md331998f1e" x="328.191839" y="363.199091" style="fill: #8b0a50; stroke: #8b0a50"/>
     <use xlink:href="#md331998f1e" x="333.98" y="363.199091" style="fill: #8b0a50; stroke: #8b0a50"/>
     <use xlink:href="#md331998f1e" x="339.768161" y="363.199091" style="fill: #8b0a50; stroke: #8b0a50"/>
     <use xlink:href="#md331998f1e" x="345.556321" y="363.199091" style="fill: #8b0a50; stroke: #8b0a50"/>
     <use xlink:href="#md331998f1e" x="351.344482" y="363.199091" style="fill: #8b0a50; stroke: #8b0a50"/>
     <use xlink:href="#md331998f1e" x="357.132643" y="363.199091" style="fill: #8b0a50; stroke: #8b0a50"/>
     <use xlink:href="#md331998f1e" x="362.920803" y="363.199091" style="fill: #8b0a50; stroke: #8b0a50"/>
     <use xlink:href="#md331998f1e" x="368.708964" y="363.199091" style="fill: #8b0a50; stroke: #8b0a50"/>
     <use xlink:href="#md331998f1e" x="374.497125" y="363.199091" style="fill: #8b0a50; stroke: #8b0a50"/>
     <use xlink:href="#md331998f1e" x="380.285285" y="363.199091" style="fill: #8b0a50; stroke: #8b0a50"/>
     <use xlink:href="#md331998f1e" x="386.073446" y="363.199091" style="fill: #8b0a50; stroke: #8b0a50"/>
     <use xlink:href="#md331998f1e" x="391.861607" y="363.199091" style="fill: #8b0a50; stroke: #8b0a50"/>
     <use xlink:href="#md331998f1e" x="397.649767" y="363.199091" style="fill: #8b0a50; stroke: #8b0a50"/>
     <use xlink:href="#md331998f1e" x="403.437928" y="363.199091" style="fill: #8b0a50; stroke: #8b0a50"/>
     <use xlink:href="#md331998f1e" x="409.226089" y="363.199091" style="fill: #8b0a50; stroke: #8b0a50"/>
     <use xlink:href="#md331998f1e" x="415.014249" y="363.199091" style="fill: #8b0a50; stroke: #8b0a50"/>
     <use xlink:href="#md331998f1e" x="420.80241" y="363.199091" style="fill: #8b0a50; stroke: #8b0a50"/>
     <use xlink:href="#md331998f1e" x="426.590571" y="363.199091" style="fill: #8b0a50; stroke: #8b0a50"/>
     <use xlink:href="#md331998f1e" x="432.378732" y="363.199091" style="fill: #8b0a50; stroke: #8b0a50"/>
     <use xlink:href="#md331998f1e" x="438.166892" y="363.199091" style="fill: #8b0a50; stroke: #8b0a50"/>
     <use xlink:href="#md331998f1e" x="443.955053" y="363.199091" style="fill: #8b0a50; stroke: #8b0a50"/>
     <use xlink:href="#md331998f1e" x="449.743214" y="363.199091" style="fill: #8b0a50; stroke: #8b0a50"/>
     <use xlink:href="#md331998f1e" x="455.531374" y="363.199091" style="fill: #8b0a50; stroke: #8b0a50"/>
     <use xlink:href="#md331998f1e" x="461.319535" y="363.199091" style="fill: #8b0a50; stroke: #8b0a50"/>
     <use xlink:href="#md331998f1e" x="467.107696" y="363.199091" style="fill: #8b0a50; stroke: #8b0a50"/>
     <use xlink:href="#md331998f1e" x="472.895856" y="363.199091" style="fill: #8b0a50; stroke: #8b0a50"/>
     <use xlink:href="#md331998f1e" x="478.684017" y="363.199091" style="fill: #8b0a50; stroke: #8b0a50"/>
     <use xlink:href="#md331998f1e" x="484.472178" y="363.199091" style="fill: #8b0a50; stroke: #8b0a50"/>
     <use xlink:href="#md331998f1e" x="490.260338" y="363.199091" style="fill: #8b0a50; stroke: #8b0a50"/>
     <use xlink:href="#md331998f1e" x="496.048499" y="363.199091" style="fill: #8b0a50; stroke: #8b0a50"/>
     <use xlink:href="#md331998f1e" x="501.83666" y="363.199091" style="fill: #8b0a50; stroke: #8b0a50"/>
     <use xlink:href="#md331998f1e" x="507.62482" y="363.199091" style="fill: #8b0a50; stroke: #8b0a50"/>
     <use xlink:href="#md331998f1e" x="513.412981" y="363.199091" style="fill: #8b0a50; stroke: #8b0a50"/>
     <use xlink:href="#md331998f1e" x="519.201142" y="363.199091" style="fill: #8b0a50; stroke: #8b0a50"/>
     <use xlink:href="#md331998f1e" x="524.989302" y="363.199091" style="fill: #8b0a50; stroke: #8b0a50"/>
    </g>
   </g>
   <g id="line2d_15">
    <path d="M 85.089091 350.990544 
L 90.877252 351.333469 
L 96.665412 352.311169 
L 102.453573 350.842383 
L 108.241734 351.496657 
L 114.029894 350.669096 
L 119.818055 352.253293 
L 125.606216 352.628039 
L 131.394376 350.879736 
L 137.182537 351.307329 
L 142.970698 230.005974 
L 148.758858 171.738819 
L 154.547019 126.834234 
L 160.33518 119.730229 
L 166.12334 143.64313 
L 171.911501 153.378087 
L 177.699662 148.546112 
L 183.487822 147.013851 
L 189.275983 142.852283 
L 195.064144 144.549585 
L 200.852304 142.767401 
L 206.640465 141.307823 
L 212.428626 143.70311 
L 218.216786 145.182383 
L 224.004947 146.926923 
L 229.793108 136.445235 
L 235.581268 133.086391 
L 241.369429 126.042702 
L 247.15759 118.572064 
L 252.945751 112.967713 
L 258.733911 103.559444 
L 264.522072 94.372061 
L 270.310233 84.835751 
L 276.098393 77.531998 
L 281.886554 68.850581 
L 287.674715 65.717398 
L 293.462875 62.846538 
L 299.251036 65.063266 
L 305.039197 62.206212 
L 310.827357 67.115511 
L 316.615518 73.109463 
L 322.403679 71.11583 
L 328.191839 71.76821 
L 333.98 71.090066 
L 339.768161 80.56791 
L 345.556321 88.685425 
L 351.344482 103.196543 
L 357.132643 114.552307 
L 362.920803 113.874217 
L 368.708964 118.940056 
L 374.497125 130.479016 
L 380.285285 140.027187 
L 386.073446 132.827212 
L 391.861607 130.910902 
L 397.649767 134.32271 
L 403.437928 134.43806 
L 409.226089 140.24389 
L 415.014249 145.130847 
L 420.80241 145.69166 
L 426.590571 143.248732 
L 432.378732 175.052214 
L 438.166892 145.143848 
L 443.955053 137.863608 
L 449.743214 183.185282 
L 455.531374 197.893684 
L 461.319535 196.826745 
L 467.107696 197.340048 
L 472.895856 197.09892 
L 478.684017 197.342119 
L 484.472178 196.323685 
L 490.260338 196.897491 
L 496.048499 196.568069 
L 501.83666 196.972092 
L 507.62482 195.936558 
L 513.412981 196.829923 
L 519.201142 197.049338 
L 524.989302 198.362112 
L 530.777463 198.150929 
L 536.565624 199.045932 
L 542.353784 196.84059 
L 548.141945 201.017413 
L 553.930106 197.806526 
L 559.718266 197.321967 
L 565.506427 198.685811 
L 571.294588 197.953202 
L 577.082748 196.874938 
L 582.870909 197.534509 
" clip-path="url(#p4190e4ce6b)" style="fill: none; stroke: #eb6ab0; stroke-width: 2; stroke-linecap: round"/>
   </g>
   <g id="line2d_16">
    <path d="M 85.089091 351.287953 
L 90.877252 351.809388 
L 96.665412 351.849349 
L 102.453573 351.662447 
L 108.241734 351.776559 
L 114.029894 352.3023 
L 119.818055 351.688127 
L 125.606216 351.720364 
L 131.394376 351.283331 
L 137.182537 351.601691 
L 142.970698 347.268801 
L 148.758858 344.920175 
L 154.547019 341.885367 
L 160.33518 340.316879 
L 166.12334 343.5173 
L 171.911501 344.732286 
L 177.699662 341.854032 
L 183.487822 340.411365 
L 189.275983 340.977971 
L 195.064144 341.722467 
L 200.852304 341.617042 
L 206.640465 342.515651 
L 212.428626 343.316295 
L 218.216786 342.118939 
L 224.004947 342.182508 
L 229.793108 343.305195 
L 235.581268 342.025576 
L 241.369429 339.861783 
L 247.15759 338.887169 
L 252.945751 339.056344 
L 258.733911 339.562581 
L 264.522072 339.77709 
L 270.310233 340.61437 
L 276.098393 339.948317 
L 281.886554 338.323987 
L 287.674715 337.71103 
L 293.462875 336.719861 
L 299.251036 336.831462 
L 305.039197 337.209883 
L 310.827357 336.816568 
L 316.615518 337.000254 
L 322.403679 336.762676 
L 328.191839 337.118759 
L 333.98 337.152587 
L 339.768161 334.871588 
L 345.556321 332.153446 
L 351.344482 332.248454 
L 357.132643 335.577389 
L 362.920803 337.117425 
L 368.708964 338.388353 
L 374.497125 341.087316 
L 380.285285 341.37753 
L 386.073446 340.362456 
L 391.861607 338.728151 
L 397.649767 335.681336 
L 403.437928 336.860433 
L 409.226089 338.61194 
L 415.014249 339.238178 
L 420.80241 340.338982 
L 426.590571 342.457944 
L 432.378732 346.586914 
L 438.166892 345.968312 
L 443.955053 346.277108 
L 449.743214 348.006677 
L 455.531374 348.553579 
L 461.319535 348.98687 
L 467.107696 348.619788 
L 472.895856 349.053965 
L 478.684017 348.610246 
L 484.472178 349.2494 
L 490.260338 349.207422 
L 496.048499 349.711944 
L 501.83666 349.644391 
L 507.62482 349.708103 
L 513.412981 349.466294 
L 519.201142 349.362373 
L 524.989302 349.346567 
L 530.777463 349.558103 
L 536.565624 349.390102 
L 542.353784 350.035213 
L 548.141945 349.65723 
L 553.930106 349.35211 
L 559.718266 349.395632 
L 565.506427 349.605499 
L 571.294588 349.450238 
L 577.082748 349.817724 
L 582.870909 349.682967 
" clip-path="url(#p4190e4ce6b)" style="fill: none; stroke-dasharray: 7.4,3.2; stroke-dashoffset: 0; stroke: #eb6ab0; stroke-width: 2"/>
   </g>
   <g id="line2d_17">
    <path d="M 142.970698 379.18 
L 142.970698 27.6 
" clip-path="url(#p4190e4ce6b)" style="fill: none; stroke-dasharray: 5.55,2.4; stroke-dashoffset: 0; stroke: #1a1a1a; stroke-width: 1.5"/>
   </g>
   <g id="line2d_18">
    <path d="M 432.378732 379.18 
L 432.378732 27.6 
" clip-path="url(#p4190e4ce6b)" style="fill: none; stroke-dasharray: 5.55,2.4; stroke-dashoffset: 0; stroke: #1a1a1a; stroke-width: 1.5"/>
   </g>
   <g id="line2d_19">
    <path d="M 85.089091 356.596858 
L 90.877252 351.656441 
L 96.665412 343.157932 
L 102.453573 333.941664 
L 108.241734 338.329353 
L 114.029894 338.464572 
L 119.818055 333.395698 
L 125.606216 329.388165 
L 131.394376 325.625021 
L 137.182537 320.064006 
L 142.970698 314.585788 
L 148.758858 318.942154 
L 154.547019 322.228906 
L 160.33518 322.121059 
L 166.12334 319.571618 
L 171.911501 318.643544 
L 177.699662 315.665883 
L 183.487822 314.584504 
L 189.275983 314.566605 
L 195.064144 314.689382 
L 200.852304 318.558648 
L 206.640465 317.992125 
L 212.428626 316.448017 
L 218.216786 314.482676 
L 224.004947 313.968463 
L 229.793108 314.728108 
L 235.581268 315.515761 
L 241.369429 313.183044 
L 247.15759 310.642049 
L 252.945751 308.969882 
L 258.733911 308.748762 
L 264.522072 308.285316 
L 270.310233 303.720139 
L 276.098393 301.3969 
L 281.886554 300.680463 
L 287.674715 298.510719 
L 293.462875 296.121182 
L 299.251036 293.526396 
L 305.039197 291.981269 
L 310.827357 289.709159 
L 316.615518 290.157389 
L 322.403679 287.685254 
L 328.191839 287.17431 
L 333.98 288.448183 
L 339.768161 287.226227 
L 345.556321 288.758845 
L 351.344482 290.447257 
L 357.132643 290.034629 
L 362.920803 288.741234 
L 368.708964 287.304319 
L 374.497125 288.530066 
L 380.285285 286.779884 
L 386.073446 289.895317 
L 391.861607 289.135989 
L 397.649767 288.931488 
L 403.437928 290.247342 
L 409.226089 289.52405 
L 415.014249 289.075114 
L 420.80241 289.623117 
L 426.590571 290.126292 
L 432.378732 291.947529 
L 438.166892 295.63083 
L 443.955053 300.414671 
L 449.743214 304.113149 
L 455.531374 307.878248 
L 461.319535 313.10517 
L 467.107696 313.844445 
L 472.895856 317.3316 
L 478.684017 318.873113 
L 484.472178 318.687022 
L 490.260338 321.912352 
L 496.048499 326.891121 
L 501.83666 327.375948 
L 507.62482 328.190706 
L 513.412981 331.712618 
L 519.201142 333.294343 
L 524.989302 334.063249 
L 530.777463 337.110981 
L 536.565624 339.298308 
L 542.353784 339.052189 
L 548.141945 338.991985 
L 553.930106 338.907185 
L 559.718266 339.037181 
L 565.506427 339.538133 
L 571.294588 340.036987 
L 577.082748 341.333798 
L 582.870909 341.935438 
" clip-path="url(#p4190e4ce6b)" style="fill: none; stroke: #8b0a50; stroke-width: 2; stroke-linecap: round"/>
   </g>
   <g id="line2d_20">
    <path d="M 85.089091 349.038426 
L 90.877252 345.860628 
L 96.665412 343.82102 
L 102.453573 339.593809 
L 108.241734 336.380544 
L 114.029894 334.266895 
L 119.818055 330.780681 
L 125.606216 328.152771 
L 131.394376 323.558296 
L 137.182537 319.66607 
L 142.970698 316.866943 
L 148.758858 318.205697 
L 154.547019 320.963613 
L 160.33518 323.213583 
L 166.12334 326.404538 
L 171.911501 329.782115 
L 177.699662 332.845291 
L 183.487822 333.869538 
L 189.275983 335.39058 
L 195.064144 336.767234 
L 200.852304 338.116591 
L 206.640465 338.642522 
L 212.428626 339.588183 
L 218.216786 340.865193 
L 224.004947 340.520046 
L 229.793108 341.009298 
L 235.581268 341.276381 
L 241.369429 341.692133 
L 247.15759 342.286716 
L 252.945751 342.481695 
L 258.733911 342.565708 
L 264.522072 342.388842 
L 270.310233 342.751067 
L 276.098393 342.034893 
L 281.886554 341.801017 
L 287.674715 341.568563 
L 293.462875 341.491759 
L 299.251036 341.261409 
L 305.039197 340.785313 
L 310.827357 339.977352 
L 316.615518 339.690153 
L 322.403679 339.333052 
L 328.191839 339.48116 
L 333.98 339.304489 
L 339.768161 339.58062 
L 345.556321 339.54338 
L 351.344482 339.583082 
L 357.132643 339.973133 
L 362.920803 339.987576 
L 368.708964 340.20062 
L 374.497125 339.643105 
L 380.285285 340.026992 
L 386.073446 340.573712 
L 391.861607 340.953067 
L 397.649767 341.331711 
L 403.437928 342.106469 
L 409.226089 342.165547 
L 415.014249 342.774246 
L 420.80241 342.534052 
L 426.590571 342.691116 
L 432.378732 343.659692 
L 438.166892 344.875783 
L 443.955053 345.865441 
L 449.743214 346.48562 
L 455.531374 346.715977 
L 461.319535 346.953375 
L 467.107696 347.685869 
L 472.895856 348.355801 
L 478.684017 348.180604 
L 484.472178 348.249257 
L 490.260338 348.839205 
L 496.048499 349.144465 
L 501.83666 349.64262 
L 507.62482 348.915294 
L 513.412981 349.192714 
L 519.201142 349.278744 
L 524.989302 349.535252 
L 530.777463 349.722838 
L 536.565624 349.649652 
L 542.353784 349.949827 
L 548.141945 349.670007 
L 553.930106 350.062074 
L 559.718266 349.869757 
L 565.506427 350.01463 
L 571.294588 349.976852 
L 577.082748 349.878397 
L 582.870909 350.42254 
" clip-path="url(#p4190e4ce6b)" style="fill: none; stroke-dasharray: 7.4,3.2; stroke-dashoffset: 0; stroke: #8b0a50; stroke-width: 2"/>
   </g>
   <g id="line2d_21">
    <path d="M 142.970698 379.18 
L 142.970698 27.6 
" clip-path="url(#p4190e4ce6b)" style="fill: none; stroke-dasharray: 5.55,2.4; stroke-dashoffset: 0; stroke: #1a1a1a; stroke-width: 1.5"/>
   </g>
   <g id="line2d_22">
    <path d="M 432.378732 379.18 
L 432.378732 27.6 
" clip-path="url(#p4190e4ce6b)" style="fill: none; stroke-dasharray: 5.55,2.4; stroke-dashoffset: 0; stroke: #1a1a1a; stroke-width: 1.5"/>
   </g>
   <g id="patch_3">
    <path d="M 60.2 379.18 
L 60.2 27.6 
" style="fill: none; stroke: #000000; stroke-width: 1.5; stroke-linejoin: miter; stroke-linecap: square"/>
   </g>
   <g id="patch_4">
    <path d="M 60.2 379.18 
L 607.76 379.18 
" style="fill: none; stroke: #000000; stroke-width: 1.5; stroke-linejoin: miter; stroke-linecap: square"/>
   </g>
   <g id="text_17">
    <!-- Divergence Comparison: Original vs Shuffled -->
    <g style="fill: #262626" transform="translate(184.4675 21.6) scale(0.15 -0.15)">
     <defs>
      <path id="ArialMT-43" d="M 3763 1606 
L 4369 1453 
Q 4178 706 3683 314 
Q 3188 -78 2472 -78 
Q 1731 -78 1267 223 
Q 803 525 561 1097 
Q 319 1669 319 2325 
Q 319 3041 592 3573 
Q 866 4106 1370 4382 
Q 1875 4659 2481 4659 
Q 3169 4659 3637 4309 
Q 4106 3959 4291 3325 
L 3694 3184 
Q 3534 3684 3231 3912 
Q 2928 4141 2469 4141 
Q 1941 4141 1586 3887 
Q 1231 3634 1087 3207 
Q 944 2781 944 2328 
Q 944 1744 1114 1308 
Q 1284 872 1643 656 
Q 2003 441 2422 441 
Q 2931 441 3284 734 
Q 3638 1028 3763 1606 
z
" transform="scale(0.015625)"/>
      <path id="ArialMT-6f" d="M 213 1659 
Q 213 2581 725 3025 
Q 1153 3394 1769 3394 
Q 2453 3394 2887 2945 
Q 3322 2497 3322 1706 
Q 3322 1066 3130 698 
Q 2938 331 2570 128 
Q 2203 -75 1769 -75 
Q 1072 -75 642 372 
Q 213 819 213 1659 
z
M 791 1659 
Q 791 1022 1069 705 
Q 1347 388 1769 388 
Q 2188 388 2466 706 
Q 2744 1025 2744 1678 
Q 2744 2294 2464 2611 
Q 2184 2928 1769 2928 
Q 1347 2928 1069 2612 
Q 791 2297 791 1659 
z
" transform="scale(0.015625)"/>
      <path id="ArialMT-70" d="M 422 -1272 
L 422 3319 
L 934 3319 
L 934 2888 
Q 1116 3141 1344 3267 
Q 1572 3394 1897 3394 
Q 2322 3394 2647 3175 
Q 2972 2956 3137 2557 
Q 3303 2159 3303 1684 
Q 3303 1175 3120 767 
Q 2938 359 2589 142 
Q 2241 -75 1856 -75 
Q 1575 -75 1351 44 
Q 1128 163 984 344 
L 984 -1272 
L 422 -1272 
z
M 931 1641 
Q 931 1000 1190 694 
Q 1450 388 1819 388 
Q 2194 388 2461 705 
Q 2728 1022 2728 1688 
Q 2728 2322 2467 2637 
Q 2206 2953 1844 2953 
Q 1484 2953 1207 2617 
Q 931 2281 931 1641 
z
" transform="scale(0.015625)"/>
      <path id="ArialMT-61" d="M 2588 409 
Q 2275 144 1986 34 
Q 1697 -75 1366 -75 
Q 819 -75 525 192 
Q 231 459 231 875 
Q 231 1119 342 1320 
Q 453 1522 633 1644 
Q 813 1766 1038 1828 
Q 1203 1872 1538 1913 
Q 2219 1994 2541 2106 
Q 2544 2222 2544 2253 
Q 2544 2597 2384 2738 
Q 2169 2928 1744 2928 
Q 1347 2928 1158 2789 
Q 969 2650 878 2297 
L 328 2372 
Q 403 2725 575 2942 
Q 747 3159 1072 3276 
Q 1397 3394 1825 3394 
Q 2250 3394 2515 3294 
Q 2781 3194 2906 3042 
Q 3031 2891 3081 2659 
Q 3109 2516 3109 2141 
L 3109 1391 
Q 3109 606 3145 398 
Q 3181 191 3288 0 
L 2700 0 
Q 2613 175 2588 409 
z
M 2541 1666 
Q 2234 1541 1622 1453 
Q 1275 1403 1131 1340 
Q 988 1278 909 1158 
Q 831 1038 831 891 
Q 831 666 1001 516 
Q 1172 366 1500 366 
Q 1825 366 2078 508 
Q 2331 650 2450 897 
Q 2541 1088 2541 1459 
L 2541 1666 
z
" transform="scale(0.015625)"/>
      <path id="ArialMT-3a" d="M 578 2678 
L 578 3319 
L 1219 3319 
L 1219 2678 
L 578 2678 
z
M 578 0 
L 578 641 
L 1219 641 
L 1219 0 
L 578 0 
z
" transform="scale(0.015625)"/>
      <path id="ArialMT-4f" d="M 309 2231 
Q 309 3372 921 4017 
Q 1534 4663 2503 4663 
Q 3138 4663 3647 4359 
Q 4156 4056 4423 3514 
Q 4691 2972 4691 2284 
Q 4691 1588 4409 1038 
Q 4128 488 3612 205 
Q 3097 -78 2500 -78 
Q 1853 -78 1343 234 
Q 834 547 571 1087 
Q 309 1628 309 2231 
z
M 934 2222 
Q 934 1394 1379 917 
Q 1825 441 2497 441 
Q 3181 441 3623 922 
Q 4066 1403 4066 2288 
Q 4066 2847 3877 3264 
Q 3688 3681 3323 3911 
Q 2959 4141 2506 4141 
Q 1863 4141 1398 3698 
Q 934 3256 934 2222 
z
" transform="scale(0.015625)"/>
      <path id="ArialMT-6c" d="M 409 0 
L 409 4581 
L 972 4581 
L 972 0 
L 409 0 
z
" transform="scale(0.015625)"/>
      <path id="ArialMT-53" d="M 288 1472 
L 859 1522 
Q 900 1178 1048 958 
Q 1197 738 1509 602 
Q 1822 466 2213 466 
Q 2559 466 2825 569 
Q 3091 672 3220 851 
Q 3350 1031 3350 1244 
Q 3350 1459 3225 1620 
Q 3100 1781 2813 1891 
Q 2628 1963 1997 2114 
Q 1366 2266 1113 2400 
Q 784 2572 623 2826 
Q 463 3081 463 3397 
Q 463 3744 659 4045 
Q 856 4347 1234 4503 
Q 1613 4659 2075 4659 
Q 2584 4659 2973 4495 
Q 3363 4331 3572 4012 
Q 3781 3694 3797 3291 
L 3216 3247 
Q 3169 3681 2898 3903 
Q 2628 4125 2100 4125 
Q 1550 4125 1298 3923 
Q 1047 3722 1047 3438 
Q 1047 3191 1225 3031 
Q 1400 2872 2139 2705 
Q 2878 2538 3153 2413 
Q 3553 2228 3743 1945 
Q 3934 1663 3934 1294 
Q 3934 928 3725 604 
Q 3516 281 3123 101 
Q 2731 -78 2241 -78 
Q 1619 -78 1198 103 
Q 778 284 539 648 
Q 300 1013 288 1472 
z
" transform="scale(0.015625)"/>
      <path id="ArialMT-68" d="M 422 0 
L 422 4581 
L 984 4581 
L 984 2938 
Q 1378 3394 1978 3394 
Q 2347 3394 2619 3248 
Q 2891 3103 3008 2847 
Q 3125 2591 3125 2103 
L 3125 0 
L 2563 0 
L 2563 2103 
Q 2563 2525 2380 2717 
Q 2197 2909 1863 2909 
Q 1613 2909 1392 2779 
Q 1172 2650 1078 2428 
Q 984 2206 984 1816 
L 984 0 
L 422 0 
z
" transform="scale(0.015625)"/>
      <path id="ArialMT-75" d="M 2597 0 
L 2597 488 
Q 2209 -75 1544 -75 
Q 1250 -75 995 37 
Q 741 150 617 320 
Q 494 491 444 738 
Q 409 903 409 1263 
L 409 3319 
L 972 3319 
L 972 1478 
Q 972 1038 1006 884 
Q 1059 663 1231 536 
Q 1403 409 1656 409 
Q 1909 409 2131 539 
Q 2353 669 2445 892 
Q 2538 1116 2538 1541 
L 2538 3319 
L 3100 3319 
L 3100 0 
L 2597 0 
z
" transform="scale(0.015625)"/>
      <path id="ArialMT-66" d="M 556 0 
L 556 2881 
L 59 2881 
L 59 3319 
L 556 3319 
L 556 3672 
Q 556 4006 616 4169 
Q 697 4388 901 4523 
Q 1106 4659 1475 4659 
Q 1713 4659 2000 4603 
L 1916 4113 
Q 1741 4144 1584 4144 
Q 1328 4144 1222 4034 
Q 1116 3925 1116 3625 
L 1116 3319 
L 1763 3319 
L 1763 2881 
L 1116 2881 
L 1116 0 
L 556 0 
z
" transform="scale(0.015625)"/>
      <path id="ArialMT-64" d="M 2575 0 
L 2575 419 
Q 2259 -75 1647 -75 
Q 1250 -75 917 144 
Q 584 363 401 755 
Q 219 1147 219 1656 
Q 219 2153 384 2558 
Q 550 2963 881 3178 
Q 1213 3394 1622 3394 
Q 1922 3394 2156 3267 
Q 2391 3141 2538 2938 
L 2538 4581 
L 3097 4581 
L 3097 0 
L 2575 0 
z
M 797 1656 
Q 797 1019 1065 703 
Q 1334 388 1700 388 
Q 2069 388 2326 689 
Q 2584 991 2584 1609 
Q 2584 2291 2321 2609 
Q 2059 2928 1675 2928 
Q 1300 2928 1048 2622 
Q 797 2316 797 1656 
z
" transform="scale(0.015625)"/>
     </defs>
     <use xlink:href="#ArialMT-44"/>
     <use xlink:href="#ArialMT-69" x="72.216797"/>
     <use xlink:href="#ArialMT-76" x="94.433594"/>
     <use xlink:href="#ArialMT-65" x="144.433594"/>
     <use xlink:href="#ArialMT-72" x="200.048828"/>
     <use xlink:href="#ArialMT-67" x="233.349609"/>
     <use xlink:href="#ArialMT-65" x="288.964844"/>
     <use xlink:href="#ArialMT-6e" x="344.580078"/>
     <use xlink:href="#ArialMT-63" x="400.195312"/>
     <use xlink:href="#ArialMT-65" x="450.195312"/>
     <use xlink:href="#ArialMT-20" x="505.810547"/>
     <use xlink:href="#ArialMT-43" x="533.59375"/>
     <use xlink:href="#ArialMT-6f" x="605.810547"/>
     <use xlink:href="#ArialMT-6d" x="661.425781"/>
     <use xlink:href="#ArialMT-70" x="744.726562"/>
     <use xlink:href="#ArialMT-61" x="800.341797"/>
     <use xlink:href="#ArialMT-72" x="855.957031"/>
     <use xlink:href="#ArialMT-69" x="889.257812"/>
     <use xlink:href="#ArialMT-73" x="911.474609"/>
     <use xlink:href="#ArialMT-6f" x="961.474609"/>
     <use xlink:href="#ArialMT-6e" x="1017.089844"/>
     <use xlink:href="#ArialMT-3a" x="1072.705078"/>
     <use xlink:href="#ArialMT-20" x="1100.488281"/>
     <use xlink:href="#ArialMT-4f" x="1128.271484"/>
     <use xlink:href="#ArialMT-72" x="1206.054688"/>
     <use xlink:href="#ArialMT-69" x="1239.355469"/>
     <use xlink:href="#ArialMT-67" x="1261.572266"/>
     <use xlink:href="#ArialMT-69" x="1317.1875"/>
     <use xlink:href="#ArialMT-6e" x="1339.404297"/>
     <use xlink:href="#ArialMT-61" x="1395.019531"/>
     <use xlink:href="#ArialMT-6c" x="1450.634766"/>
     <use xlink:href="#ArialMT-20" x="1472.851562"/>
     <use xlink:href="#ArialMT-76" x="1500.634766"/>
     <use xlink:href="#ArialMT-73" x="1550.634766"/>
     <use xlink:href="#ArialMT-20" x="1600.634766"/>
     <use xlink:href="#ArialMT-53" x="1628.417969"/>
     <use xlink:href="#ArialMT-68" x="1695.117188"/>
     <use xlink:href="#ArialMT-75" x="1750.732422"/>
     <use xlink:href="#ArialMT-66" x="1806.347656"/>
     <use xlink:href="#ArialMT-66" x="1832.380859"/>
     <use xlink:href="#ArialMT-6c" x="1860.164062"/>
     <use xlink:href="#ArialMT-65" x="1882.380859"/>
     <use xlink:href="#ArialMT-64" x="1937.996094"/>
    </g>
   </g>
   <g id="legend_1">
    <g id="patch_5">
     <path d="M 615.46 260.055469 
L 705.061875 260.055469 
Q 707.261875 260.055469 707.261875 257.855469 
L 707.261875 148.924531 
Q 707.261875 146.724531 705.061875 146.724531 
L 615.46 146.724531 
Q 613.26 146.724531 613.26 148.924531 
L 613.26 257.855469 
Q 613.26 260.055469 615.46 260.055469 
z
" style="fill: #ffffff; opacity: 0.8; stroke: #cccccc; stroke-linejoin: miter"/>
    </g>
    <g id="line2d_23">
     <path d="M 617.66 155.289062 
L 628.66 155.289062 
L 639.66 155.289062 
" style="fill: none; stroke: #eb6ab0; stroke-width: 2; stroke-linecap: round"/>
    </g>
    <g id="text_18">
     <!-- Original -->
     <g style="fill: #262626" transform="translate(648.46 159.139062) scale(0.11 -0.11)">
      <use xlink:href="#ArialMT-4f"/>
      <use xlink:href="#ArialMT-72" x="77.783203"/>
      <use xlink:href="#ArialMT-69" x="111.083984"/>
      <use xlink:href="#ArialMT-67" x="133.300781"/>
      <use xlink:href="#ArialMT-69" x="188.916016"/>
      <use xlink:href="#ArialMT-6e" x="211.132812"/>
      <use xlink:href="#ArialMT-61" x="266.748047"/>
      <use xlink:href="#ArialMT-6c" x="322.363281"/>
     </g>
    </g>
    <g id="line2d_24">
     <path d="M 617.66 171.11875 
L 628.66 171.11875 
L 639.66 171.11875 
" style="fill: none; stroke-dasharray: 7.4,3.2; stroke-dashoffset: 0; stroke: #eb6ab0; stroke-width: 2"/>
    </g>
    <g id="text_19">
     <!-- Original -->
     <g style="fill: #262626" transform="translate(648.46 174.96875) scale(0.11 -0.11)">
      <use xlink:href="#ArialMT-4f"/>
      <use xlink:href="#ArialMT-72" x="77.783203"/>
      <use xlink:href="#ArialMT-69" x="111.083984"/>
      <use xlink:href="#ArialMT-67" x="133.300781"/>
      <use xlink:href="#ArialMT-69" x="188.916016"/>
      <use xlink:href="#ArialMT-6e" x="211.132812"/>
      <use xlink:href="#ArialMT-61" x="266.748047"/>
      <use xlink:href="#ArialMT-6c" x="322.363281"/>
     </g>
    </g>
    <g id="PathCollection_3">
     <g>
      <use xlink:href="#m4bc55742a8" x="628.66" y="187.802656" style="fill: #eb6ab0; stroke: #eb6ab0"/>
     </g>
    </g>
    <g id="text_20">
     <!-- p &lt; 0.001 -->
     <g style="fill: #262626" transform="translate(648.46 190.690156) scale(0.11 -0.11)">
      <defs>
       <path id="ArialMT-3c" d="M 350 2003 
L 350 2528 
L 3384 3809 
L 3384 3250 
L 978 2263 
L 3384 1266 
L 3384 706 
L 350 2003 
z
" transform="scale(0.015625)"/>
      </defs>
      <use xlink:href="#ArialMT-70"/>
      <use xlink:href="#ArialMT-20" x="55.615234"/>
      <use xlink:href="#ArialMT-3c" x="83.398438"/>
      <use xlink:href="#ArialMT-20" x="141.796875"/>
      <use xlink:href="#ArialMT-30" x="169.580078"/>
      <use xlink:href="#ArialMT-2e" x="225.195312"/>
      <use xlink:href="#ArialMT-30" x="252.978516"/>
      <use xlink:href="#ArialMT-30" x="308.59375"/>
      <use xlink:href="#ArialMT-31" x="364.208984"/>
     </g>
    </g>
    <g id="line2d_25">
     <path d="M 617.66 202.4 
L 628.66 202.4 
L 639.66 202.4 
" style="fill: none; stroke-dasharray: 5.55,2.4; stroke-dashoffset: 0; stroke: #1a1a1a; stroke-width: 1.5"/>
    </g>
    <g id="text_21">
     <!-- Stim Onset -->
     <g style="fill: #262626" transform="translate(648.46 206.25) scale(0.11 -0.11)">
      <defs>
       <path id="ArialMT-74" d="M 1650 503 
L 1731 6 
Q 1494 -44 1306 -44 
Q 1000 -44 831 53 
Q 663 150 594 308 
Q 525 466 525 972 
L 525 2881 
L 113 2881 
L 113 3319 
L 525 3319 
L 525 4141 
L 1084 4478 
L 1084 3319 
L 1650 3319 
L 1650 2881 
L 1084 2881 
L 1084 941 
Q 1084 700 1114 631 
Q 1144 563 1211 522 
Q 1278 481 1403 481 
Q 1497 481 1650 503 
z
" transform="scale(0.015625)"/>
      </defs>
      <use xlink:href="#ArialMT-53"/>
      <use xlink:href="#ArialMT-74" x="66.699219"/>
      <use xlink:href="#ArialMT-69" x="94.482422"/>
      <use xlink:href="#ArialMT-6d" x="116.699219"/>
      <use xlink:href="#ArialMT-20" x="200"/>
      <use xlink:href="#ArialMT-4f" x="227.783203"/>
      <use xlink:href="#ArialMT-6e" x="305.566406"/>
      <use xlink:href="#ArialMT-73" x="361.181641"/>
      <use xlink:href="#ArialMT-65" x="411.181641"/>
      <use xlink:href="#ArialMT-74" x="466.796875"/>
     </g>
    </g>
    <g id="line2d_26">
     <path d="M 617.66 217.959844 
L 628.66 217.959844 
L 639.66 217.959844 
" style="fill: none; stroke-dasharray: 5.55,2.4; stroke-dashoffset: 0; stroke: #1a1a1a; stroke-width: 1.5"/>
    </g>
    <g id="text_22">
     <!-- Stim End -->
     <g style="fill: #262626" transform="translate(648.46 221.809844) scale(0.11 -0.11)">
      <defs>
       <path id="ArialMT-45" d="M 506 0 
L 506 4581 
L 3819 4581 
L 3819 4041 
L 1113 4041 
L 1113 2638 
L 3647 2638 
L 3647 2100 
L 1113 2100 
L 1113 541 
L 3925 541 
L 3925 0 
L 506 0 
z
" transform="scale(0.015625)"/>
      </defs>
      <use xlink:href="#ArialMT-53"/>
      <use xlink:href="#ArialMT-74" x="66.699219"/>
      <use xlink:href="#ArialMT-69" x="94.482422"/>
      <use xlink:href="#ArialMT-6d" x="116.699219"/>
      <use xlink:href="#ArialMT-20" x="200"/>
      <use xlink:href="#ArialMT-45" x="227.783203"/>
      <use xlink:href="#ArialMT-6e" x="294.482422"/>
      <use xlink:href="#ArialMT-64" x="350.097656"/>
     </g>
    </g>
    <g id="line2d_27">
     <path d="M 617.66 233.660625 
L 628.66 233.660625 
L 639.66 233.660625 
" style="fill: none; stroke: #8b0a50; stroke-width: 2; stroke-linecap: round"/>
    </g>
    <g id="text_23">
     <!-- Original -->
     <g style="fill: #262626" transform="translate(648.46 237.510625) scale(0.11 -0.11)">
      <use xlink:href="#ArialMT-4f"/>
      <use xlink:href="#ArialMT-72" x="77.783203"/>
      <use xlink:href="#ArialMT-69" x="111.083984"/>
      <use xlink:href="#ArialMT-67" x="133.300781"/>
      <use xlink:href="#ArialMT-69" x="188.916016"/>
      <use xlink:href="#ArialMT-6e" x="211.132812"/>
      <use xlink:href="#ArialMT-61" x="266.748047"/>
      <use xlink:href="#ArialMT-6c" x="322.363281"/>
     </g>
    </g>
    <g id="line2d_28">
     <path d="M 617.66 249.490312 
L 628.66 249.490312 
L 639.66 249.490312 
" style="fill: none; stroke-dasharray: 7.4,3.2; stroke-dashoffset: 0; stroke: #8b0a50; stroke-width: 2"/>
    </g>
    <g id="text_24">
     <!-- Original -->
     <g style="fill: #262626" transform="translate(648.46 253.340312) scale(0.11 -0.11)">
      <use xlink:href="#ArialMT-4f"/>
      <use xlink:href="#ArialMT-72" x="77.783203"/>
      <use xlink:href="#ArialMT-69" x="111.083984"/>
      <use xlink:href="#ArialMT-67" x="133.300781"/>
      <use xlink:href="#ArialMT-69" x="188.916016"/>
      <use xlink:href="#ArialMT-6e" x="211.132812"/>
      <use xlink:href="#ArialMT-61" x="266.748047"/>
      <use xlink:href="#ArialMT-6c" x="322.363281"/>
     </g>
    </g>
   </g>
  </g>
 </g>
 <defs>
  <clipPath id="p4190e4ce6b">
   <rect x="60.2" y="27.6" width="547.56" height="351.58"/>
  </clipPath>
 </defs>
</svg>
