<?xml version="1.0" encoding="utf-8" standalone="no"?>
<!DOCTYPE svg PUBLIC "-//W3C//DTD SVG 1.1//EN"
  "http://www.w3.org/Graphics/SVG/1.1/DTD/svg11.dtd">
<svg xmlns:xlink="http://www.w3.org/1999/xlink" width="720pt" height="432pt" viewBox="0 0 720 432" xmlns="http://www.w3.org/2000/svg" version="1.1">
 <metadata>
  <rdf:RDF xmlns:dc="http://purl.org/dc/elements/1.1/" xmlns:cc="http://creativecommons.org/ns#" xmlns:rdf="http://www.w3.org/1999/02/22-rdf-syntax-ns#">
   <cc:Work>
    <dc:type rdf:resource="http://purl.org/dc/dcmitype/StillImage"/>
    <dc:date>2025-11-20T21:32:10.411906</dc:date>
    <dc:format>image/svg+xml</dc:format>
    <dc:creator>
     <cc:Agent>
      <dc:title>Matplotlib v3.9.4, https://matplotlib.org/</dc:title>
     </cc:Agent>
    </dc:creator>
   </cc:Work>
  </rdf:RDF>
 </metadata>
 <defs>
  <style type="text/css">*{stroke-linejoin: round; stroke-linecap: butt}</style>
 </defs>
 <g id="figure_1">
  <g id="patch_1">
   <path d="M 0 432 
L 720 432 
L 720 0 
L 0 0 
z
" style="fill: #ffffff"/>
  </g>
  <g id="axes_1">
   <g id="patch_2">
    <path d="M 77.3 379.18 
L 607.76 379.18 
L 607.76 27.6 
L 77.3 27.6 
L 77.3 379.18 
z
" style="fill: none"/>
   </g>
   <g id="matplotlib.axis_1">
    <g id="xtick_1">
     <g id="line2d_1">
      <defs>
       <path id="m5d0b3dcdd0" d="M 0 0 
L 0 5 
" style="stroke: #262626; stroke-width: 1.5"/>
      </defs>
      <g>
       <use xlink:href="#m5d0b3dcdd0" x="87.393319" y="379.18" style="fill: #262626; stroke: #262626; stroke-width: 1.5"/>
      </g>
     </g>
     <g id="text_1">
      <!-- −250 -->
      <g style="fill: #262626" transform="translate(70.500741 398.416719) scale(0.15 -0.15)">
       <defs>
        <path id="ArialMT-2212" d="M 3381 1997 
L 356 1997 
L 356 2522 
L 3381 2522 
L 3381 1997 
z
" transform="scale(0.015625)"/>
        <path id="ArialMT-32" d="M 3222 541 
L 3222 0 
L 194 0 
Q 188 203 259 391 
Q 375 700 629 1000 
Q 884 1300 1366 1694 
Q 2113 2306 2375 2664 
Q 2638 3022 2638 3341 
Q 2638 3675 2398 3904 
Q 2159 4134 1775 4134 
Q 1369 4134 1125 3890 
Q 881 3647 878 3216 
L 300 3275 
Q 359 3922 746 4261 
Q 1134 4600 1788 4600 
Q 2447 4600 2831 4234 
Q 3216 3869 3216 3328 
Q 3216 3053 3103 2787 
Q 2991 2522 2730 2228 
Q 2469 1934 1863 1422 
Q 1356 997 1212 845 
Q 1069 694 975 541 
L 3222 541 
z
" transform="scale(0.015625)"/>
        <path id="ArialMT-35" d="M 266 1200 
L 856 1250 
Q 922 819 1161 601 
Q 1400 384 1738 384 
Q 2144 384 2425 690 
Q 2706 997 2706 1503 
Q 2706 1984 2436 2262 
Q 2166 2541 1728 2541 
Q 1456 2541 1237 2417 
Q 1019 2294 894 2097 
L 366 2166 
L 809 4519 
L 3088 4519 
L 3088 3981 
L 1259 3981 
L 1013 2750 
Q 1425 3038 1878 3038 
Q 2478 3038 2890 2622 
Q 3303 2206 3303 1553 
Q 3303 931 2941 478 
Q 2500 -78 1738 -78 
Q 1113 -78 717 272 
Q 322 622 266 1200 
z
" transform="scale(0.015625)"/>
        <path id="ArialMT-30" d="M 266 2259 
Q 266 3072 433 3567 
Q 600 4063 929 4331 
Q 1259 4600 1759 4600 
Q 2128 4600 2406 4451 
Q 2684 4303 2865 4023 
Q 3047 3744 3150 3342 
Q 3253 2941 3253 2259 
Q 3253 1453 3087 958 
Q 2922 463 2592 192 
Q 2263 -78 1759 -78 
Q 1097 -78 719 397 
Q 266 969 266 2259 
z
M 844 2259 
Q 844 1131 1108 757 
Q 1372 384 1759 384 
Q 2147 384 2411 759 
Q 2675 1134 2675 2259 
Q 2675 3391 2411 3762 
Q 2147 4134 1753 4134 
Q 1366 4134 1134 3806 
Q 844 3388 844 2259 
z
" transform="scale(0.015625)"/>
       </defs>
       <use xlink:href="#ArialMT-2212"/>
       <use xlink:href="#ArialMT-32" x="58.398438"/>
       <use xlink:href="#ArialMT-35" x="114.013672"/>
       <use xlink:href="#ArialMT-30" x="169.628906"/>
      </g>
     </g>
    </g>
    <g id="xtick_2">
     <g id="line2d_2">
      <g>
       <use xlink:href="#m5d0b3dcdd0" x="157.485814" y="379.18" style="fill: #262626; stroke: #262626; stroke-width: 1.5"/>
      </g>
     </g>
     <g id="text_2">
      <!-- 0 -->
      <g style="fill: #262626" transform="translate(153.315111 398.416719) scale(0.15 -0.15)">
       <use xlink:href="#ArialMT-30"/>
      </g>
     </g>
    </g>
    <g id="xtick_3">
     <g id="line2d_3">
      <g>
       <use xlink:href="#m5d0b3dcdd0" x="227.578309" y="379.18" style="fill: #262626; stroke: #262626; stroke-width: 1.5"/>
      </g>
     </g>
     <g id="text_3">
      <!-- 250 -->
      <g style="fill: #262626" transform="translate(215.066199 398.416719) scale(0.15 -0.15)">
       <use xlink:href="#ArialMT-32"/>
       <use xlink:href="#ArialMT-35" x="55.615234"/>
       <use xlink:href="#ArialMT-30" x="111.230469"/>
      </g>
     </g>
    </g>
    <g id="xtick_4">
     <g id="line2d_4">
      <g>
       <use xlink:href="#m5d0b3dcdd0" x="297.670803" y="379.18" style="fill: #262626; stroke: #262626; stroke-width: 1.5"/>
      </g>
     </g>
     <g id="text_4">
      <!-- 500 -->
      <g style="fill: #262626" transform="translate(285.158694 398.416719) scale(0.15 -0.15)">
       <use xlink:href="#ArialMT-35"/>
       <use xlink:href="#ArialMT-30" x="55.615234"/>
       <use xlink:href="#ArialMT-30" x="111.230469"/>
      </g>
     </g>
    </g>
    <g id="xtick_5">
     <g id="line2d_5">
      <g>
       <use xlink:href="#m5d0b3dcdd0" x="367.763298" y="379.18" style="fill: #262626; stroke: #262626; stroke-width: 1.5"/>
      </g>
     </g>
     <g id="text_5">
      <!-- 750 -->
      <g style="fill: #262626" transform="translate(355.251189 398.416719) scale(0.15 -0.15)">
       <defs>
        <path id="ArialMT-37" d="M 303 3981 
L 303 4522 
L 3269 4522 
L 3269 4084 
Q 2831 3619 2401 2847 
Q 1972 2075 1738 1259 
Q 1569 684 1522 0 
L 944 0 
Q 953 541 1156 1306 
Q 1359 2072 1739 2783 
Q 2119 3494 2547 3981 
L 303 3981 
z
" transform="scale(0.015625)"/>
       </defs>
       <use xlink:href="#ArialMT-37"/>
       <use xlink:href="#ArialMT-35" x="55.615234"/>
       <use xlink:href="#ArialMT-30" x="111.230469"/>
      </g>
     </g>
    </g>
    <g id="xtick_6">
     <g id="line2d_6">
      <g>
       <use xlink:href="#m5d0b3dcdd0" x="437.855793" y="379.18" style="fill: #262626; stroke: #262626; stroke-width: 1.5"/>
      </g>
     </g>
     <g id="text_6">
      <!-- 1000 -->
      <g style="fill: #262626" transform="translate(421.17298 398.416719) scale(0.15 -0.15)">
       <defs>
        <path id="ArialMT-31" d="M 2384 0 
L 1822 0 
L 1822 3584 
Q 1619 3391 1289 3197 
Q 959 3003 697 2906 
L 697 3450 
Q 1169 3672 1522 3987 
Q 1875 4303 2022 4600 
L 2384 4600 
L 2384 0 
z
" transform="scale(0.015625)"/>
       </defs>
       <use xlink:href="#ArialMT-31"/>
       <use xlink:href="#ArialMT-30" x="55.615234"/>
       <use xlink:href="#ArialMT-30" x="111.230469"/>
       <use xlink:href="#ArialMT-30" x="166.845703"/>
      </g>
     </g>
    </g>
    <g id="xtick_7">
     <g id="line2d_7">
      <g>
       <use xlink:href="#m5d0b3dcdd0" x="507.948288" y="379.18" style="fill: #262626; stroke: #262626; stroke-width: 1.5"/>
      </g>
     </g>
     <g id="text_7">
      <!-- 1250 -->
      <g style="fill: #262626" transform="translate(491.265475 398.416719) scale(0.15 -0.15)">
       <use xlink:href="#ArialMT-31"/>
       <use xlink:href="#ArialMT-32" x="55.615234"/>
       <use xlink:href="#ArialMT-35" x="111.230469"/>
       <use xlink:href="#ArialMT-30" x="166.845703"/>
      </g>
     </g>
    </g>
    <g id="xtick_8">
     <g id="line2d_8">
      <g>
       <use xlink:href="#m5d0b3dcdd0" x="578.040782" y="379.18" style="fill: #262626; stroke: #262626; stroke-width: 1.5"/>
      </g>
     </g>
     <g id="text_8">
      <!-- 1500 -->
      <g style="fill: #262626" transform="translate(561.35797 398.416719) scale(0.15 -0.15)">
       <use xlink:href="#ArialMT-31"/>
       <use xlink:href="#ArialMT-35" x="55.615234"/>
       <use xlink:href="#ArialMT-30" x="111.230469"/>
       <use xlink:href="#ArialMT-30" x="166.845703"/>
      </g>
     </g>
    </g>
    <g id="text_9">
     <!-- Time (s) -->
     <g style="fill: #262626" transform="translate(315.317891 416.3175) scale(0.15 -0.15)">
      <defs>
       <path id="ArialMT-54" d="M 1659 0 
L 1659 4041 
L 150 4041 
L 150 4581 
L 3781 4581 
L 3781 4041 
L 2266 4041 
L 2266 0 
L 1659 0 
z
" transform="scale(0.015625)"/>
       <path id="ArialMT-69" d="M 425 3934 
L 425 4581 
L 988 4581 
L 988 3934 
L 425 3934 
z
M 425 0 
L 425 3319 
L 988 3319 
L 988 0 
L 425 0 
z
" transform="scale(0.015625)"/>
       <path id="ArialMT-6d" d="M 422 0 
L 422 3319 
L 925 3319 
L 925 2853 
Q 1081 3097 1340 3245 
Q 1600 3394 1931 3394 
Q 2300 3394 2536 3241 
Q 2772 3088 2869 2813 
Q 3263 3394 3894 3394 
Q 4388 3394 4653 3120 
Q 4919 2847 4919 2278 
L 4919 0 
L 4359 0 
L 4359 2091 
Q 4359 2428 4304 2576 
Q 4250 2725 4106 2815 
Q 3963 2906 3769 2906 
Q 3419 2906 3187 2673 
Q 2956 2441 2956 1928 
L 2956 0 
L 2394 0 
L 2394 2156 
Q 2394 2531 2256 2718 
Q 2119 2906 1806 2906 
Q 1569 2906 1367 2781 
Q 1166 2656 1075 2415 
Q 984 2175 984 1722 
L 984 0 
L 422 0 
z
" transform="scale(0.015625)"/>
       <path id="ArialMT-65" d="M 2694 1069 
L 3275 997 
Q 3138 488 2766 206 
Q 2394 -75 1816 -75 
Q 1088 -75 661 373 
Q 234 822 234 1631 
Q 234 2469 665 2931 
Q 1097 3394 1784 3394 
Q 2450 3394 2872 2941 
Q 3294 2488 3294 1666 
Q 3294 1616 3291 1516 
L 816 1516 
Q 847 969 1125 678 
Q 1403 388 1819 388 
Q 2128 388 2347 550 
Q 2566 713 2694 1069 
z
M 847 1978 
L 2700 1978 
Q 2663 2397 2488 2606 
Q 2219 2931 1791 2931 
Q 1403 2931 1139 2672 
Q 875 2413 847 1978 
z
" transform="scale(0.015625)"/>
       <path id="ArialMT-20" transform="scale(0.015625)"/>
       <path id="ArialMT-28" d="M 1497 -1347 
Q 1031 -759 709 28 
Q 388 816 388 1659 
Q 388 2403 628 3084 
Q 909 3875 1497 4659 
L 1900 4659 
Q 1522 4009 1400 3731 
Q 1209 3300 1100 2831 
Q 966 2247 966 1656 
Q 966 153 1900 -1347 
L 1497 -1347 
z
" transform="scale(0.015625)"/>
       <path id="ArialMT-73" d="M 197 991 
L 753 1078 
Q 800 744 1014 566 
Q 1228 388 1613 388 
Q 2000 388 2187 545 
Q 2375 703 2375 916 
Q 2375 1106 2209 1216 
Q 2094 1291 1634 1406 
Q 1016 1563 777 1677 
Q 538 1791 414 1992 
Q 291 2194 291 2438 
Q 291 2659 392 2848 
Q 494 3038 669 3163 
Q 800 3259 1026 3326 
Q 1253 3394 1513 3394 
Q 1903 3394 2198 3281 
Q 2494 3169 2634 2976 
Q 2775 2784 2828 2463 
L 2278 2388 
Q 2241 2644 2061 2787 
Q 1881 2931 1553 2931 
Q 1166 2931 1000 2803 
Q 834 2675 834 2503 
Q 834 2394 903 2306 
Q 972 2216 1119 2156 
Q 1203 2125 1616 2013 
Q 2213 1853 2448 1751 
Q 2684 1650 2818 1456 
Q 2953 1263 2953 975 
Q 2953 694 2789 445 
Q 2625 197 2315 61 
Q 2006 -75 1616 -75 
Q 969 -75 630 194 
Q 291 463 197 991 
z
" transform="scale(0.015625)"/>
       <path id="ArialMT-29" d="M 791 -1347 
L 388 -1347 
Q 1322 153 1322 1656 
Q 1322 2244 1188 2822 
Q 1081 3291 891 3722 
Q 769 4003 388 4659 
L 791 4659 
Q 1378 3875 1659 3084 
Q 1900 2403 1900 1659 
Q 1900 816 1576 28 
Q 1253 -759 791 -1347 
z
" transform="scale(0.015625)"/>
      </defs>
      <use xlink:href="#ArialMT-54"/>
      <use xlink:href="#ArialMT-69" x="57.333984"/>
      <use xlink:href="#ArialMT-6d" x="79.550781"/>
      <use xlink:href="#ArialMT-65" x="162.851562"/>
      <use xlink:href="#ArialMT-20" x="218.466797"/>
      <use xlink:href="#ArialMT-28" x="246.25"/>
      <use xlink:href="#ArialMT-73" x="279.550781"/>
      <use xlink:href="#ArialMT-29" x="329.550781"/>
     </g>
    </g>
   </g>
   <g id="matplotlib.axis_2">
    <g id="ytick_1">
     <g id="line2d_9">
      <defs>
       <path id="mfe2b5303dd" d="M 0 0 
L -5 0 
" style="stroke: #262626; stroke-width: 1.5"/>
      </defs>
      <g>
       <use xlink:href="#mfe2b5303dd" x="77.3" y="325.21658" style="fill: #262626; stroke: #262626; stroke-width: 1.5"/>
      </g>
     </g>
     <g id="text_10">
      <!-- −0.05 -->
      <g style="fill: #262626" transform="translate(30.847656 330.58494) scale(0.15 -0.15)">
       <defs>
        <path id="ArialMT-2e" d="M 581 0 
L 581 641 
L 1222 641 
L 1222 0 
L 581 0 
z
" transform="scale(0.015625)"/>
       </defs>
       <use xlink:href="#ArialMT-2212"/>
       <use xlink:href="#ArialMT-30" x="58.398438"/>
       <use xlink:href="#ArialMT-2e" x="114.013672"/>
       <use xlink:href="#ArialMT-30" x="141.796875"/>
       <use xlink:href="#ArialMT-35" x="197.412109"/>
      </g>
     </g>
    </g>
    <g id="ytick_2">
     <g id="line2d_10">
      <g>
       <use xlink:href="#mfe2b5303dd" x="77.3" y="265.647644" style="fill: #262626; stroke: #262626; stroke-width: 1.5"/>
      </g>
     </g>
     <g id="text_11">
      <!-- 0.00 -->
      <g style="fill: #262626" transform="translate(39.608594 271.016003) scale(0.15 -0.15)">
       <use xlink:href="#ArialMT-30"/>
       <use xlink:href="#ArialMT-2e" x="55.615234"/>
       <use xlink:href="#ArialMT-30" x="83.398438"/>
       <use xlink:href="#ArialMT-30" x="139.013672"/>
      </g>
     </g>
    </g>
    <g id="ytick_3">
     <g id="line2d_11">
      <g>
       <use xlink:href="#mfe2b5303dd" x="77.3" y="206.078707" style="fill: #262626; stroke: #262626; stroke-width: 1.5"/>
      </g>
     </g>
     <g id="text_12">
      <!-- 0.05 -->
      <g style="fill: #262626" transform="translate(39.608594 211.447066) scale(0.15 -0.15)">
       <use xlink:href="#ArialMT-30"/>
       <use xlink:href="#ArialMT-2e" x="55.615234"/>
       <use xlink:href="#ArialMT-30" x="83.398438"/>
       <use xlink:href="#ArialMT-35" x="139.013672"/>
      </g>
     </g>
    </g>
    <g id="ytick_4">
     <g id="line2d_12">
      <g>
       <use xlink:href="#mfe2b5303dd" x="77.3" y="146.50977" style="fill: #262626; stroke: #262626; stroke-width: 1.5"/>
      </g>
     </g>
     <g id="text_13">
      <!-- 0.10 -->
      <g style="fill: #262626" transform="translate(39.608594 151.87813) scale(0.15 -0.15)">
       <use xlink:href="#ArialMT-30"/>
       <use xlink:href="#ArialMT-2e" x="55.615234"/>
       <use xlink:href="#ArialMT-31" x="83.398438"/>
       <use xlink:href="#ArialMT-30" x="139.013672"/>
      </g>
     </g>
    </g>
    <g id="ytick_5">
     <g id="line2d_13">
      <g>
       <use xlink:href="#mfe2b5303dd" x="77.3" y="86.940834" style="fill: #262626; stroke: #262626; stroke-width: 1.5"/>
      </g>
     </g>
     <g id="text_14">
      <!-- 0.15 -->
      <g style="fill: #262626" transform="translate(39.608594 92.309193) scale(0.15 -0.15)">
       <use xlink:href="#ArialMT-30"/>
       <use xlink:href="#ArialMT-2e" x="55.615234"/>
       <use xlink:href="#ArialMT-31" x="83.398438"/>
       <use xlink:href="#ArialMT-35" x="139.013672"/>
      </g>
     </g>
    </g>
    <g id="text_15">
     <!-- Divergence -->
     <g style="fill: #262626" transform="translate(23.690625 241.323594) rotate(-90) scale(0.15 -0.15)">
      <defs>
       <path id="ArialMT-44" d="M 494 0 
L 494 4581 
L 2072 4581 
Q 2606 4581 2888 4516 
Q 3281 4425 3559 4188 
Q 3922 3881 4101 3404 
Q 4281 2928 4281 2316 
Q 4281 1794 4159 1391 
Q 4038 988 3847 723 
Q 3656 459 3429 307 
Q 3203 156 2883 78 
Q 2563 0 2147 0 
L 494 0 
z
M 1100 541 
L 2078 541 
Q 2531 541 2789 625 
Q 3047 709 3200 863 
Q 3416 1078 3536 1442 
Q 3656 1806 3656 2325 
Q 3656 3044 3420 3430 
Q 3184 3816 2847 3947 
Q 2603 4041 2063 4041 
L 1100 4041 
L 1100 541 
z
" transform="scale(0.015625)"/>
       <path id="ArialMT-76" d="M 1344 0 
L 81 3319 
L 675 3319 
L 1388 1331 
Q 1503 1009 1600 663 
Q 1675 925 1809 1294 
L 2547 3319 
L 3125 3319 
L 1869 0 
L 1344 0 
z
" transform="scale(0.015625)"/>
       <path id="ArialMT-72" d="M 416 0 
L 416 3319 
L 922 3319 
L 922 2816 
Q 1116 3169 1280 3281 
Q 1444 3394 1641 3394 
Q 1925 3394 2219 3213 
L 2025 2691 
Q 1819 2813 1613 2813 
Q 1428 2813 1281 2702 
Q 1134 2591 1072 2394 
Q 978 2094 978 1738 
L 978 0 
L 416 0 
z
" transform="scale(0.015625)"/>
       <path id="ArialMT-67" d="M 319 -275 
L 866 -356 
Q 900 -609 1056 -725 
Q 1266 -881 1628 -881 
Q 2019 -881 2231 -725 
Q 2444 -569 2519 -288 
Q 2563 -116 2559 434 
Q 2191 0 1641 0 
Q 956 0 581 494 
Q 206 988 206 1678 
Q 206 2153 378 2554 
Q 550 2956 876 3175 
Q 1203 3394 1644 3394 
Q 2231 3394 2613 2919 
L 2613 3319 
L 3131 3319 
L 3131 450 
Q 3131 -325 2973 -648 
Q 2816 -972 2473 -1159 
Q 2131 -1347 1631 -1347 
Q 1038 -1347 672 -1080 
Q 306 -813 319 -275 
z
M 784 1719 
Q 784 1066 1043 766 
Q 1303 466 1694 466 
Q 2081 466 2343 764 
Q 2606 1063 2606 1700 
Q 2606 2309 2336 2618 
Q 2066 2928 1684 2928 
Q 1309 2928 1046 2623 
Q 784 2319 784 1719 
z
" transform="scale(0.015625)"/>
       <path id="ArialMT-6e" d="M 422 0 
L 422 3319 
L 928 3319 
L 928 2847 
Q 1294 3394 1984 3394 
Q 2284 3394 2536 3286 
Q 2788 3178 2913 3003 
Q 3038 2828 3088 2588 
Q 3119 2431 3119 2041 
L 3119 0 
L 2556 0 
L 2556 2019 
Q 2556 2363 2490 2533 
Q 2425 2703 2258 2804 
Q 2091 2906 1866 2906 
Q 1506 2906 1245 2678 
Q 984 2450 984 1813 
L 984 0 
L 422 0 
z
" transform="scale(0.015625)"/>
       <path id="ArialMT-63" d="M 2588 1216 
L 3141 1144 
Q 3050 572 2676 248 
Q 2303 -75 1759 -75 
Q 1078 -75 664 370 
Q 250 816 250 1647 
Q 250 2184 428 2587 
Q 606 2991 970 3192 
Q 1334 3394 1763 3394 
Q 2303 3394 2647 3120 
Q 2991 2847 3088 2344 
L 2541 2259 
Q 2463 2594 2264 2762 
Q 2066 2931 1784 2931 
Q 1359 2931 1093 2626 
Q 828 2322 828 1663 
Q 828 994 1084 691 
Q 1341 388 1753 388 
Q 2084 388 2306 591 
Q 2528 794 2588 1216 
z
" transform="scale(0.015625)"/>
      </defs>
      <use xlink:href="#ArialMT-44"/>
      <use xlink:href="#ArialMT-69" x="72.216797"/>
      <use xlink:href="#ArialMT-76" x="94.433594"/>
      <use xlink:href="#ArialMT-65" x="144.433594"/>
      <use xlink:href="#ArialMT-72" x="200.048828"/>
      <use xlink:href="#ArialMT-67" x="233.349609"/>
      <use xlink:href="#ArialMT-65" x="288.964844"/>
      <use xlink:href="#ArialMT-6e" x="344.580078"/>
      <use xlink:href="#ArialMT-63" x="400.195312"/>
      <use xlink:href="#ArialMT-65" x="450.195312"/>
     </g>
    </g>
   </g>
   <g id="PolyCollection_1">
    <defs>
     <path id="mc54335ae83" d="M 101.411818 -312.28554 
L 101.411818 -149.565718 
L 107.019218 -145.166435 
L 112.626617 -147.602012 
L 118.234017 -155.32466 
L 123.841416 -155.936044 
L 129.448816 -159.349693 
L 135.056216 -167.259952 
L 140.663615 -158.938747 
L 146.271015 -158.284598 
L 151.878414 -156.812148 
L 157.485814 -178.076396 
L 163.093214 -188.985993 
L 168.700613 -184.113855 
L 174.308013 -192.375995 
L 179.915412 -156.697027 
L 185.522812 -151.26064 
L 191.130211 -156.9626 
L 196.737611 -166.54992 
L 202.345011 -191.220254 
L 207.95241 -214.502554 
L 213.55981 -235.32905 
L 219.167209 -255.812618 
L 224.774609 -286.632093 
L 230.382008 -298.095879 
L 235.989408 -330.423379 
L 241.596808 -302.757238 
L 247.204207 -281.233648 
L 252.811607 -276.591534 
L 258.419006 -269.108237 
L 264.026406 -262.556876 
L 269.633805 -252.829341 
L 275.241205 -245.618193 
L 280.848605 -254.343028 
L 286.456004 -261.142974 
L 292.063404 -255.481259 
L 297.670803 -251.96083 
L 303.278203 -242.154643 
L 308.885603 -248.191873 
L 314.493002 -260.317041 
L 320.100402 -253.71433 
L 325.707801 -275.093668 
L 331.315201 -288.30103 
L 336.9226 -302.165954 
L 342.53 -290.108777 
L 348.1374 -278.063357 
L 353.744799 -270.145707 
L 359.352199 -244.617227 
L 364.959598 -243.906781 
L 370.566998 -210.278284 
L 376.174397 -268.631957 
L 381.781797 -296.171843 
L 387.389197 -325.6468 
L 392.996596 -335.485418 
L 398.603996 -324.856749 
L 404.211395 -329.523255 
L 409.818795 -330.960073 
L 415.426195 -325.075585 
L 421.033594 -304.30039 
L 426.640994 -284.611893 
L 432.248393 -284.149644 
L 437.855793 -287.787205 
L 443.463192 -286.768976 
L 449.070592 -281.985487 
L 454.677992 -266.226249 
L 460.285391 -266.139117 
L 465.892791 -265.461633 
L 471.50019 -256.43026 
L 477.10759 -252.798688 
L 482.714989 -249.456624 
L 488.322389 -243.634167 
L 493.929789 -239.034 
L 499.537188 -240.740784 
L 505.144588 -238.758688 
L 510.751987 -234.575845 
L 516.359387 -236.681983 
L 521.966786 -240.73334 
L 527.574186 -246.45256 
L 533.181586 -243.335238 
L 538.788985 -238.142705 
L 544.396385 -241.646453 
L 550.003784 -239.90064 
L 555.611184 -237.267326 
L 561.218584 -242.171364 
L 566.825983 -247.075655 
L 572.433383 -249.052758 
L 578.040782 -247.306177 
L 583.648182 -246.591697 
L 583.648182 -278.683539 
L 583.648182 -278.683539 
L 578.040782 -278.530319 
L 572.433383 -281.165739 
L 566.825983 -278.493399 
L 561.218584 -274.228497 
L 555.611184 -267.865552 
L 550.003784 -271.420131 
L 544.396385 -273.755451 
L 538.788985 -269.530475 
L 533.181586 -274.457195 
L 527.574186 -277.594527 
L 521.966786 -272.845489 
L 516.359387 -268.358519 
L 510.751987 -265.618137 
L 505.144588 -269.979791 
L 499.537188 -272.382188 
L 493.929789 -271.559708 
L 488.322389 -275.86553 
L 482.714989 -282.501262 
L 477.10759 -285.68765 
L 471.50019 -290.278986 
L 465.892791 -299.579674 
L 460.285391 -301.845307 
L 454.677992 -301.261815 
L 449.070592 -317.858651 
L 443.463192 -321.764372 
L 437.855793 -323.329935 
L 432.248393 -320.253858 
L 426.640994 -322.712476 
L 421.033594 -346.135223 
L 415.426195 -365.492491 
L 409.818795 -370.541325 
L 404.211395 -367.713005 
L 398.603996 -363.179479 
L 392.996596 -375.21431 
L 387.389197 -363.713704 
L 381.781797 -332.268496 
L 376.174397 -305.343275 
L 370.566998 -276.567856 
L 364.959598 -286.210631 
L 359.352199 -291.417511 
L 353.744799 -313.910607 
L 348.1374 -318.712269 
L 342.53 -324.389188 
L 336.9226 -337.233477 
L 331.315201 -320.079605 
L 325.707801 -309.599989 
L 320.100402 -285.236323 
L 314.493002 -289.366673 
L 308.885603 -276.433387 
L 303.278203 -271.365292 
L 297.670803 -280.969897 
L 292.063404 -288.338306 
L 286.456004 -288.430975 
L 280.848605 -280.211198 
L 275.241205 -273.826887 
L 269.633805 -279.19906 
L 264.026406 -293.687324 
L 258.419006 -302.874804 
L 252.811607 -310.7612 
L 247.204207 -334.65995 
L 241.596808 -346.812262 
L 235.989408 -388.419091 
L 230.382008 -335.950961 
L 224.774609 -322.784225 
L 219.167209 -290.634062 
L 213.55981 -264.465809 
L 207.95241 -240.915534 
L 202.345011 -210.942666 
L 196.737611 -182.192215 
L 191.130211 -169.713345 
L 185.522812 -168.4709 
L 179.915412 -178.408255 
L 174.308013 -214.589505 
L 168.700613 -214.341512 
L 163.093214 -218.368485 
L 157.485814 -207.307103 
L 151.878414 -167.202197 
L 146.271015 -169.031814 
L 140.663615 -174.348112 
L 135.056216 -177.122415 
L 129.448816 -170.118783 
L 123.841416 -162.473523 
L 118.234017 -162.051052 
L 112.626617 -157.365355 
L 107.019218 -166.038783 
L 101.411818 -312.28554 
z
" style="stroke: #eb6ab0; stroke-opacity: 0.1"/>
    </defs>
    <g clip-path="url(#p4d304fb4ab)">
     <use xlink:href="#mc54335ae83" x="0" y="432" style="fill: #eb6ab0; fill-opacity: 0.1; stroke: #eb6ab0; stroke-opacity: 0.1"/>
    </g>
   </g>
   <g id="PolyCollection_2">
    <defs>
     <path id="mb7632b13cb" d="M 101.411818 -179.741466 
L 101.411818 -164.213449 
L 107.019218 -165.047774 
L 112.626617 -165.929914 
L 118.234017 -166.031325 
L 123.841416 -166.511237 
L 129.448816 -166.526834 
L 135.056216 -166.307283 
L 140.663615 -166.603861 
L 146.271015 -167.004612 
L 151.878414 -166.144368 
L 157.485814 -174.826023 
L 163.093214 -184.018542 
L 168.700613 -178.822458 
L 174.308013 -175.795523 
L 179.915412 -172.985292 
L 185.522812 -170.781954 
L 191.130211 -170.160266 
L 196.737611 -170.560209 
L 202.345011 -171.828276 
L 207.95241 -172.053622 
L 213.55981 -172.124442 
L 219.167209 -171.023018 
L 224.774609 -172.01636 
L 230.382008 -176.054568 
L 235.989408 -179.287032 
L 241.596808 -183.628272 
L 247.204207 -186.655988 
L 252.811607 -186.919673 
L 258.419006 -185.942222 
L 264.026406 -183.580617 
L 269.633805 -182.5245 
L 275.241205 -181.566882 
L 280.848605 -182.424296 
L 286.456004 -181.52178 
L 292.063404 -182.527476 
L 297.670803 -183.589685 
L 303.278203 -182.010599 
L 308.885603 -181.235295 
L 314.493002 -179.742032 
L 320.100402 -182.321103 
L 325.707801 -183.844299 
L 331.315201 -183.538954 
L 336.9226 -182.563595 
L 342.53 -182.19075 
L 348.1374 -182.968075 
L 353.744799 -181.373447 
L 359.352199 -182.19603 
L 364.959598 -181.525256 
L 370.566998 -181.621052 
L 376.174397 -180.462421 
L 381.781797 -179.75992 
L 387.389197 -179.937846 
L 392.996596 -177.239034 
L 398.603996 -174.592375 
L 404.211395 -174.877553 
L 409.818795 -175.668501 
L 415.426195 -174.329394 
L 421.033594 -173.39178 
L 426.640994 -172.769351 
L 432.248393 -173.110689 
L 437.855793 -172.512872 
L 443.463192 -172.63343 
L 449.070592 -173.460812 
L 454.677992 -173.338097 
L 460.285391 -172.547055 
L 465.892791 -171.611075 
L 471.50019 -171.900135 
L 477.10759 -171.765004 
L 482.714989 -171.609329 
L 488.322389 -172.215425 
L 493.929789 -171.863942 
L 499.537188 -171.438485 
L 505.144588 -171.84944 
L 510.751987 -171.846387 
L 516.359387 -172.360028 
L 521.966786 -172.141891 
L 527.574186 -171.758253 
L 533.181586 -171.626596 
L 538.788985 -171.740945 
L 544.396385 -171.922593 
L 550.003784 -172.01464 
L 555.611184 -172.772498 
L 561.218584 -172.273426 
L 566.825983 -172.200938 
L 572.433383 -171.999511 
L 578.040782 -171.597029 
L 583.648182 -171.602751 
L 583.648182 -173.406167 
L 583.648182 -173.406167 
L 578.040782 -173.405472 
L 572.433383 -173.861911 
L 566.825983 -174.153677 
L 561.218584 -174.145383 
L 555.611184 -174.717056 
L 550.003784 -173.863965 
L 544.396385 -173.731847 
L 538.788985 -173.582125 
L 533.181586 -173.530569 
L 527.574186 -173.718974 
L 521.966786 -174.027302 
L 516.359387 -174.325745 
L 510.751987 -173.739395 
L 505.144588 -173.687248 
L 499.537188 -173.282562 
L 493.929789 -173.723695 
L 488.322389 -174.089782 
L 482.714989 -173.508749 
L 477.10759 -173.575518 
L 471.50019 -173.725466 
L 465.892791 -173.346667 
L 460.285391 -174.382243 
L 454.677992 -175.278988 
L 449.070592 -175.381367 
L 443.463192 -174.459231 
L 437.855793 -174.350763 
L 432.248393 -175.330672 
L 426.640994 -174.789681 
L 421.033594 -175.623601 
L 415.426195 -176.81244 
L 409.818795 -178.379843 
L 404.211395 -177.6495 
L 398.603996 -177.315324 
L 392.996596 -180.026484 
L 387.389197 -182.926178 
L 381.781797 -182.692287 
L 376.174397 -183.291862 
L 370.566998 -184.774409 
L 364.959598 -184.644134 
L 359.352199 -185.379731 
L 353.744799 -184.358286 
L 348.1374 -186.33779 
L 342.53 -185.591348 
L 336.9226 -186.218504 
L 331.315201 -187.260403 
L 325.707801 -189.045353 
L 320.100402 -185.918968 
L 314.493002 -182.803273 
L 308.885603 -184.906714 
L 303.278203 -185.245508 
L 297.670803 -186.806172 
L 292.063404 -185.928607 
L 286.456004 -184.827521 
L 280.848605 -185.78302 
L 275.241205 -184.891656 
L 269.633805 -186.469959 
L 264.026406 -187.316711 
L 258.419006 -189.783741 
L 252.811607 -191.015962 
L 247.204207 -190.781394 
L 241.596808 -187.623269 
L 235.989408 -182.923107 
L 230.382008 -179.172264 
L 224.774609 -175.136309 
L 219.167209 -174.047152 
L 213.55981 -174.955326 
L 207.95241 -174.513235 
L 202.345011 -174.050985 
L 196.737611 -172.639952 
L 191.130211 -172.047561 
L 185.522812 -172.845366 
L 179.915412 -175.388347 
L 174.308013 -179.417851 
L 168.700613 -184.845687 
L 163.093214 -191.265882 
L 157.485814 -179.959904 
L 151.878414 -167.280825 
L 146.271015 -168.128408 
L 140.663615 -167.947664 
L 135.056216 -167.840311 
L 129.448816 -167.146978 
L 123.841416 -167.139972 
L 118.234017 -166.688743 
L 112.626617 -166.792032 
L 107.019218 -166.588231 
L 101.411818 -179.741466 
z
" style="stroke: #eb6ab0; stroke-opacity: 0.1"/>
    </defs>
    <g clip-path="url(#p4d304fb4ab)">
     <use xlink:href="#mb7632b13cb" x="0" y="432" style="fill: #eb6ab0; fill-opacity: 0.1; stroke: #eb6ab0; stroke-opacity: 0.1"/>
    </g>
   </g>
   <g id="PathCollection_1">
    <defs>
     <path id="m25d38731e9" d="M -2.5 2.5 
L 2.5 2.5 
L 2.5 -2.5 
L -2.5 -2.5 
z
" style="stroke: #eb6ab0"/>
    </defs>
    <g clip-path="url(#p4d304fb4ab)">
     <use xlink:href="#m25d38731e9" x="207.95241" y="277.561431" style="fill: #eb6ab0; stroke: #eb6ab0"/>
     <use xlink:href="#m25d38731e9" x="213.55981" y="277.561431" style="fill: #eb6ab0; stroke: #eb6ab0"/>
     <use xlink:href="#m25d38731e9" x="219.167209" y="277.561431" style="fill: #eb6ab0; stroke: #eb6ab0"/>
     <use xlink:href="#m25d38731e9" x="224.774609" y="277.561431" style="fill: #eb6ab0; stroke: #eb6ab0"/>
     <use xlink:href="#m25d38731e9" x="230.382008" y="277.561431" style="fill: #eb6ab0; stroke: #eb6ab0"/>
     <use xlink:href="#m25d38731e9" x="235.989408" y="277.561431" style="fill: #eb6ab0; stroke: #eb6ab0"/>
     <use xlink:href="#m25d38731e9" x="241.596808" y="277.561431" style="fill: #eb6ab0; stroke: #eb6ab0"/>
     <use xlink:href="#m25d38731e9" x="247.204207" y="277.561431" style="fill: #eb6ab0; stroke: #eb6ab0"/>
     <use xlink:href="#m25d38731e9" x="252.811607" y="277.561431" style="fill: #eb6ab0; stroke: #eb6ab0"/>
     <use xlink:href="#m25d38731e9" x="258.419006" y="277.561431" style="fill: #eb6ab0; stroke: #eb6ab0"/>
     <use xlink:href="#m25d38731e9" x="264.026406" y="277.561431" style="fill: #eb6ab0; stroke: #eb6ab0"/>
     <use xlink:href="#m25d38731e9" x="269.633805" y="277.561431" style="fill: #eb6ab0; stroke: #eb6ab0"/>
     <use xlink:href="#m25d38731e9" x="275.241205" y="277.561431" style="fill: #eb6ab0; stroke: #eb6ab0"/>
     <use xlink:href="#m25d38731e9" x="280.848605" y="277.561431" style="fill: #eb6ab0; stroke: #eb6ab0"/>
     <use xlink:href="#m25d38731e9" x="286.456004" y="277.561431" style="fill: #eb6ab0; stroke: #eb6ab0"/>
     <use xlink:href="#m25d38731e9" x="292.063404" y="277.561431" style="fill: #eb6ab0; stroke: #eb6ab0"/>
     <use xlink:href="#m25d38731e9" x="297.670803" y="277.561431" style="fill: #eb6ab0; stroke: #eb6ab0"/>
     <use xlink:href="#m25d38731e9" x="303.278203" y="277.561431" style="fill: #eb6ab0; stroke: #eb6ab0"/>
     <use xlink:href="#m25d38731e9" x="308.885603" y="277.561431" style="fill: #eb6ab0; stroke: #eb6ab0"/>
     <use xlink:href="#m25d38731e9" x="314.493002" y="277.561431" style="fill: #eb6ab0; stroke: #eb6ab0"/>
     <use xlink:href="#m25d38731e9" x="320.100402" y="277.561431" style="fill: #eb6ab0; stroke: #eb6ab0"/>
     <use xlink:href="#m25d38731e9" x="325.707801" y="277.561431" style="fill: #eb6ab0; stroke: #eb6ab0"/>
     <use xlink:href="#m25d38731e9" x="331.315201" y="277.561431" style="fill: #eb6ab0; stroke: #eb6ab0"/>
     <use xlink:href="#m25d38731e9" x="336.9226" y="277.561431" style="fill: #eb6ab0; stroke: #eb6ab0"/>
     <use xlink:href="#m25d38731e9" x="342.53" y="277.561431" style="fill: #eb6ab0; stroke: #eb6ab0"/>
     <use xlink:href="#m25d38731e9" x="348.1374" y="277.561431" style="fill: #eb6ab0; stroke: #eb6ab0"/>
     <use xlink:href="#m25d38731e9" x="353.744799" y="277.561431" style="fill: #eb6ab0; stroke: #eb6ab0"/>
     <use xlink:href="#m25d38731e9" x="359.352199" y="277.561431" style="fill: #eb6ab0; stroke: #eb6ab0"/>
     <use xlink:href="#m25d38731e9" x="364.959598" y="277.561431" style="fill: #eb6ab0; stroke: #eb6ab0"/>
     <use xlink:href="#m25d38731e9" x="376.174397" y="277.561431" style="fill: #eb6ab0; stroke: #eb6ab0"/>
     <use xlink:href="#m25d38731e9" x="381.781797" y="277.561431" style="fill: #eb6ab0; stroke: #eb6ab0"/>
     <use xlink:href="#m25d38731e9" x="387.389197" y="277.561431" style="fill: #eb6ab0; stroke: #eb6ab0"/>
     <use xlink:href="#m25d38731e9" x="392.996596" y="277.561431" style="fill: #eb6ab0; stroke: #eb6ab0"/>
     <use xlink:href="#m25d38731e9" x="398.603996" y="277.561431" style="fill: #eb6ab0; stroke: #eb6ab0"/>
     <use xlink:href="#m25d38731e9" x="404.211395" y="277.561431" style="fill: #eb6ab0; stroke: #eb6ab0"/>
     <use xlink:href="#m25d38731e9" x="409.818795" y="277.561431" style="fill: #eb6ab0; stroke: #eb6ab0"/>
     <use xlink:href="#m25d38731e9" x="415.426195" y="277.561431" style="fill: #eb6ab0; stroke: #eb6ab0"/>
     <use xlink:href="#m25d38731e9" x="421.033594" y="277.561431" style="fill: #eb6ab0; stroke: #eb6ab0"/>
     <use xlink:href="#m25d38731e9" x="426.640994" y="277.561431" style="fill: #eb6ab0; stroke: #eb6ab0"/>
     <use xlink:href="#m25d38731e9" x="432.248393" y="277.561431" style="fill: #eb6ab0; stroke: #eb6ab0"/>
     <use xlink:href="#m25d38731e9" x="437.855793" y="277.561431" style="fill: #eb6ab0; stroke: #eb6ab0"/>
     <use xlink:href="#m25d38731e9" x="443.463192" y="277.561431" style="fill: #eb6ab0; stroke: #eb6ab0"/>
     <use xlink:href="#m25d38731e9" x="449.070592" y="277.561431" style="fill: #eb6ab0; stroke: #eb6ab0"/>
     <use xlink:href="#m25d38731e9" x="454.677992" y="277.561431" style="fill: #eb6ab0; stroke: #eb6ab0"/>
     <use xlink:href="#m25d38731e9" x="460.285391" y="277.561431" style="fill: #eb6ab0; stroke: #eb6ab0"/>
     <use xlink:href="#m25d38731e9" x="465.892791" y="277.561431" style="fill: #eb6ab0; stroke: #eb6ab0"/>
     <use xlink:href="#m25d38731e9" x="471.50019" y="277.561431" style="fill: #eb6ab0; stroke: #eb6ab0"/>
     <use xlink:href="#m25d38731e9" x="477.10759" y="277.561431" style="fill: #eb6ab0; stroke: #eb6ab0"/>
     <use xlink:href="#m25d38731e9" x="482.714989" y="277.561431" style="fill: #eb6ab0; stroke: #eb6ab0"/>
     <use xlink:href="#m25d38731e9" x="488.322389" y="277.561431" style="fill: #eb6ab0; stroke: #eb6ab0"/>
     <use xlink:href="#m25d38731e9" x="493.929789" y="277.561431" style="fill: #eb6ab0; stroke: #eb6ab0"/>
     <use xlink:href="#m25d38731e9" x="499.537188" y="277.561431" style="fill: #eb6ab0; stroke: #eb6ab0"/>
     <use xlink:href="#m25d38731e9" x="505.144588" y="277.561431" style="fill: #eb6ab0; stroke: #eb6ab0"/>
     <use xlink:href="#m25d38731e9" x="510.751987" y="277.561431" style="fill: #eb6ab0; stroke: #eb6ab0"/>
     <use xlink:href="#m25d38731e9" x="516.359387" y="277.561431" style="fill: #eb6ab0; stroke: #eb6ab0"/>
     <use xlink:href="#m25d38731e9" x="521.966786" y="277.561431" style="fill: #eb6ab0; stroke: #eb6ab0"/>
     <use xlink:href="#m25d38731e9" x="527.574186" y="277.561431" style="fill: #eb6ab0; stroke: #eb6ab0"/>
     <use xlink:href="#m25d38731e9" x="533.181586" y="277.561431" style="fill: #eb6ab0; stroke: #eb6ab0"/>
     <use xlink:href="#m25d38731e9" x="538.788985" y="277.561431" style="fill: #eb6ab0; stroke: #eb6ab0"/>
     <use xlink:href="#m25d38731e9" x="544.396385" y="277.561431" style="fill: #eb6ab0; stroke: #eb6ab0"/>
     <use xlink:href="#m25d38731e9" x="550.003784" y="277.561431" style="fill: #eb6ab0; stroke: #eb6ab0"/>
     <use xlink:href="#m25d38731e9" x="555.611184" y="277.561431" style="fill: #eb6ab0; stroke: #eb6ab0"/>
     <use xlink:href="#m25d38731e9" x="561.218584" y="277.561431" style="fill: #eb6ab0; stroke: #eb6ab0"/>
     <use xlink:href="#m25d38731e9" x="566.825983" y="277.561431" style="fill: #eb6ab0; stroke: #eb6ab0"/>
     <use xlink:href="#m25d38731e9" x="572.433383" y="277.561431" style="fill: #eb6ab0; stroke: #eb6ab0"/>
     <use xlink:href="#m25d38731e9" x="578.040782" y="277.561431" style="fill: #eb6ab0; stroke: #eb6ab0"/>
     <use xlink:href="#m25d38731e9" x="583.648182" y="277.561431" style="fill: #eb6ab0; stroke: #eb6ab0"/>
    </g>
   </g>
   <g id="PolyCollection_3">
    <defs>
     <path id="m4320ca7289" d="M 101.411818 -218.061736 
L 101.411818 -156.352495 
L 107.019218 -146.030677 
L 112.626617 -138.027551 
L 118.234017 -191.744016 
L 123.841416 -149.174716 
L 129.448816 -102.837157 
L 135.056216 -68.800909 
L 140.663615 -95.571285 
L 146.271015 -80.051487 
L 151.878414 -135.829446 
L 157.485814 -168.553132 
L 163.093214 -204.995229 
L 168.700613 -221.911992 
L 174.308013 -193.613135 
L 179.915412 -222.712497 
L 185.522812 -217.233267 
L 191.130211 -232.360947 
L 196.737611 -216.400599 
L 202.345011 -205.020351 
L 207.95241 -190.799108 
L 213.55981 -191.515219 
L 219.167209 -193.65423 
L 224.774609 -194.71991 
L 230.382008 -191.924138 
L 235.989408 -201.716443 
L 241.596808 -200.412371 
L 247.204207 -196.502784 
L 252.811607 -191.915419 
L 258.419006 -201.971306 
L 264.026406 -201.134062 
L 269.633805 -200.38641 
L 275.241205 -195.591601 
L 280.848605 -196.141683 
L 286.456004 -194.852753 
L 292.063404 -197.562633 
L 297.670803 -193.975032 
L 303.278203 -203.222039 
L 308.885603 -205.746328 
L 314.493002 -212.529427 
L 320.100402 -213.006601 
L 325.707801 -208.297564 
L 331.315201 -207.382818 
L 336.9226 -210.597561 
L 342.53 -210.915315 
L 348.1374 -210.927524 
L 353.744799 -213.828387 
L 359.352199 -219.80021 
L 364.959598 -220.112252 
L 370.566998 -224.022945 
L 376.174397 -224.138563 
L 381.781797 -224.035926 
L 387.389197 -223.74301 
L 392.996596 -228.469604 
L 398.603996 -232.870914 
L 404.211395 -237.659493 
L 409.818795 -240.723281 
L 415.426195 -240.839211 
L 421.033594 -241.399554 
L 426.640994 -240.100122 
L 432.248393 -242.363706 
L 437.855793 -240.066795 
L 443.463192 -243.172722 
L 449.070592 -234.505794 
L 454.677992 -232.825788 
L 460.285391 -227.537212 
L 465.892791 -226.699235 
L 471.50019 -223.938493 
L 477.10759 -223.123316 
L 482.714989 -224.7529 
L 488.322389 -218.741588 
L 493.929789 -212.039629 
L 499.537188 -220.908384 
L 505.144588 -218.070997 
L 510.751987 -216.331258 
L 516.359387 -222.972085 
L 521.966786 -222.302224 
L 527.574186 -223.620495 
L 533.181586 -224.865387 
L 538.788985 -225.017803 
L 544.396385 -223.009746 
L 550.003784 -225.789687 
L 555.611184 -230.72479 
L 561.218584 -232.697095 
L 566.825983 -228.325052 
L 572.433383 -226.949757 
L 578.040782 -225.843824 
L 583.648182 -230.418829 
L 583.648182 -278.950365 
L 583.648182 -278.950365 
L 578.040782 -274.135004 
L 572.433383 -275.226935 
L 566.825983 -275.992737 
L 561.218584 -280.184421 
L 555.611184 -277.661551 
L 550.003784 -272.353715 
L 544.396385 -268.492169 
L 538.788985 -268.965377 
L 533.181586 -269.519263 
L 527.574186 -268.057311 
L 521.966786 -266.223635 
L 516.359387 -268.091275 
L 510.751987 -262.371552 
L 505.144588 -263.299969 
L 499.537188 -265.222472 
L 493.929789 -257.210368 
L 488.322389 -262.772266 
L 482.714989 -268.686358 
L 477.10759 -267.718362 
L 471.50019 -269.452892 
L 465.892791 -272.444072 
L 460.285391 -274.549061 
L 454.677992 -279.791576 
L 449.070592 -282.104909 
L 443.463192 -291.531089 
L 437.855793 -287.742559 
L 432.248393 -290.854014 
L 426.640994 -287.320694 
L 421.033594 -286.110959 
L 415.426195 -285.036051 
L 409.818795 -284.526918 
L 404.211395 -280.219798 
L 398.603996 -275.181009 
L 392.996596 -270.464751 
L 387.389197 -265.332334 
L 381.781797 -264.38979 
L 376.174397 -262.778 
L 370.566998 -262.292124 
L 364.959598 -257.908582 
L 359.352199 -256.554998 
L 353.744799 -248.877829 
L 348.1374 -244.700958 
L 342.53 -243.490914 
L 336.9226 -243.425637 
L 331.315201 -239.100251 
L 325.707801 -238.317538 
L 320.100402 -242.729937 
L 314.493002 -241.613393 
L 308.885603 -238.164816 
L 303.278203 -234.877265 
L 297.670803 -224.593603 
L 292.063404 -226.123743 
L 286.456004 -222.761602 
L 280.848605 -224.383021 
L 275.241205 -224.329825 
L 269.633805 -227.583265 
L 264.026406 -229.965281 
L 258.419006 -228.96099 
L 252.811607 -221.820273 
L 247.204207 -224.991213 
L 241.596808 -233.339465 
L 235.989408 -234.838248 
L 230.382008 -227.259184 
L 224.774609 -230.261334 
L 219.167209 -227.867259 
L 213.55981 -230.783602 
L 207.95241 -235.222344 
L 202.345011 -253.18377 
L 196.737611 -270.138423 
L 191.130211 -289.417349 
L 185.522812 -281.529205 
L 179.915412 -285.390863 
L 174.308013 -241.79419 
L 168.700613 -271.523404 
L 163.093214 -261.576485 
L 157.485814 -237.900636 
L 151.878414 -200.150381 
L 146.271015 -155.601784 
L 140.663615 -164.29969 
L 135.056216 -166.340105 
L 129.448816 -204.282497 
L 123.841416 -238.574546 
L 118.234017 -277.008366 
L 112.626617 -209.605534 
L 107.019218 -213.137643 
L 101.411818 -218.061736 
z
" style="stroke: #8b0a50; stroke-opacity: 0.1"/>
    </defs>
    <g clip-path="url(#p4d304fb4ab)">
     <use xlink:href="#m4320ca7289" x="0" y="432" style="fill: #8b0a50; fill-opacity: 0.1; stroke: #8b0a50; stroke-opacity: 0.1"/>
    </g>
   </g>
   <g id="PolyCollection_4">
    <defs>
     <path id="m719d7049b2" d="M 101.411818 -177.108801 
L 101.411818 -170.306244 
L 107.019218 -173.670853 
L 112.626617 -181.835557 
L 118.234017 -185.369497 
L 123.841416 -187.777355 
L 129.448816 -193.31755 
L 135.056216 -204.876154 
L 140.663615 -214.636437 
L 146.271015 -216.870567 
L 151.878414 -221.2245 
L 157.485814 -233.321028 
L 163.093214 -234.946695 
L 168.700613 -234.040587 
L 174.308013 -231.715889 
L 179.915412 -229.173543 
L 185.522812 -230.527118 
L 191.130211 -227.562345 
L 196.737611 -219.077695 
L 202.345011 -209.564525 
L 207.95241 -202.956798 
L 213.55981 -197.478252 
L 219.167209 -194.300261 
L 224.774609 -189.910878 
L 230.382008 -186.721995 
L 235.989408 -183.459498 
L 241.596808 -182.120057 
L 247.204207 -181.176667 
L 252.811607 -180.071483 
L 258.419006 -180.579341 
L 264.026406 -180.236589 
L 269.633805 -180.783484 
L 275.241205 -180.23627 
L 280.848605 -179.169712 
L 286.456004 -179.196269 
L 292.063404 -179.055686 
L 297.670803 -179.185321 
L 303.278203 -179.224866 
L 308.885603 -179.092583 
L 314.493002 -179.180699 
L 320.100402 -179.382798 
L 325.707801 -179.000402 
L 331.315201 -179.397765 
L 336.9226 -179.726253 
L 342.53 -179.425756 
L 348.1374 -179.145632 
L 353.744799 -178.859711 
L 359.352199 -179.306635 
L 364.959598 -179.442878 
L 370.566998 -178.993765 
L 376.174397 -178.653151 
L 381.781797 -178.720539 
L 387.389197 -178.758783 
L 392.996596 -178.080447 
L 398.603996 -178.281065 
L 404.211395 -178.169106 
L 409.818795 -177.426274 
L 415.426195 -177.380642 
L 421.033594 -177.054413 
L 426.640994 -176.436259 
L 432.248393 -176.174078 
L 437.855793 -175.928956 
L 443.463192 -175.150065 
L 449.070592 -174.687359 
L 454.677992 -174.332469 
L 460.285391 -174.298062 
L 465.892791 -174.020969 
L 471.50019 -174.165748 
L 477.10759 -173.495862 
L 482.714989 -173.093176 
L 488.322389 -172.911581 
L 493.929789 -172.160769 
L 499.537188 -172.417627 
L 505.144588 -172.246448 
L 510.751987 -172.04304 
L 516.359387 -171.574359 
L 521.966786 -171.116792 
L 527.574186 -171.734663 
L 533.181586 -171.197018 
L 538.788985 -171.22527 
L 544.396385 -171.312771 
L 550.003784 -171.214766 
L 555.611184 -170.851892 
L 561.218584 -170.874875 
L 566.825983 -170.403157 
L 572.433383 -170.108199 
L 578.040782 -170.085775 
L 583.648182 -170.346846 
L 583.648182 -173.626764 
L 583.648182 -173.626764 
L 578.040782 -173.446227 
L 572.433383 -173.463761 
L 566.825983 -173.744846 
L 561.218584 -174.129496 
L 555.611184 -174.067633 
L 550.003784 -174.535799 
L 544.396385 -174.642076 
L 538.788985 -174.558563 
L 533.181586 -174.453601 
L 527.574186 -175.055327 
L 521.966786 -174.334201 
L 516.359387 -174.852354 
L 510.751987 -175.443927 
L 505.144588 -175.684738 
L 499.537188 -175.932657 
L 493.929789 -175.833924 
L 488.322389 -176.709418 
L 482.714989 -176.977776 
L 477.10759 -177.545187 
L 471.50019 -178.308538 
L 465.892791 -178.103157 
L 460.285391 -178.404857 
L 454.677992 -178.383854 
L 449.070592 -178.792325 
L 443.463192 -179.333881 
L 437.855793 -180.323394 
L 432.248393 -180.620684 
L 426.640994 -180.943841 
L 421.033594 -181.675565 
L 415.426195 -182.094595 
L 409.818795 -182.196736 
L 404.211395 -183.06951 
L 398.603996 -183.208868 
L 392.996596 -182.993683 
L 387.389197 -183.776363 
L 381.781797 -183.788816 
L 376.174397 -183.632172 
L 370.566998 -184.049069 
L 364.959598 -184.586007 
L 359.352199 -184.357425 
L 353.744799 -183.897381 
L 348.1374 -184.18538 
L 342.53 -184.453324 
L 336.9226 -184.745434 
L 331.315201 -184.349612 
L 325.707801 -183.854898 
L 320.100402 -184.278107 
L 314.493002 -183.94613 
L 308.885603 -183.739573 
L 303.278203 -183.728668 
L 297.670803 -183.61471 
L 292.063404 -183.37198 
L 286.456004 -183.445077 
L 280.848605 -183.257282 
L 275.241205 -184.457134 
L 269.633805 -184.966418 
L 264.026406 -184.298849 
L 258.419006 -184.606743 
L 252.811607 -183.829097 
L 247.204207 -185.142855 
L 241.596808 -186.357906 
L 235.989408 -187.798476 
L 230.382008 -191.525888 
L 224.774609 -195.136704 
L 219.167209 -200.0103 
L 213.55981 -203.659806 
L 207.95241 -209.60636 
L 202.345011 -216.990204 
L 196.737611 -227.100941 
L 191.130211 -235.981691 
L 185.522812 -239.547571 
L 179.915412 -237.661998 
L 174.308013 -240.949215 
L 168.700613 -244.297095 
L 163.093214 -244.921686 
L 157.485814 -243.746154 
L 151.878414 -230.604812 
L 146.271015 -226.268629 
L 140.663615 -223.884532 
L 135.056216 -214.248274 
L 129.448816 -202.516858 
L 123.841416 -197.2485 
L 118.234017 -194.915596 
L 112.626617 -190.577305 
L 107.019218 -182.343046 
L 101.411818 -177.108801 
z
" style="stroke: #8b0a50; stroke-opacity: 0.1"/>
    </defs>
    <g clip-path="url(#p4d304fb4ab)">
     <use xlink:href="#m719d7049b2" x="0" y="432" style="fill: #8b0a50; fill-opacity: 0.1; stroke: #8b0a50; stroke-opacity: 0.1"/>
    </g>
   </g>
   <g id="PathCollection_2">
    <defs>
     <path id="m86f02ae820" d="M -2.5 2.5 
L 2.5 2.5 
L 2.5 -2.5 
L -2.5 -2.5 
z
" style="stroke: #8b0a50"/>
    </defs>
    <g clip-path="url(#p4d304fb4ab)">
     <use xlink:href="#m86f02ae820" x="370.566998" y="289.475218" style="fill: #8b0a50; stroke: #8b0a50"/>
     <use xlink:href="#m86f02ae820" x="376.174397" y="289.475218" style="fill: #8b0a50; stroke: #8b0a50"/>
     <use xlink:href="#m86f02ae820" x="392.996596" y="289.475218" style="fill: #8b0a50; stroke: #8b0a50"/>
     <use xlink:href="#m86f02ae820" x="398.603996" y="289.475218" style="fill: #8b0a50; stroke: #8b0a50"/>
     <use xlink:href="#m86f02ae820" x="404.211395" y="289.475218" style="fill: #8b0a50; stroke: #8b0a50"/>
     <use xlink:href="#m86f02ae820" x="409.818795" y="289.475218" style="fill: #8b0a50; stroke: #8b0a50"/>
     <use xlink:href="#m86f02ae820" x="415.426195" y="289.475218" style="fill: #8b0a50; stroke: #8b0a50"/>
     <use xlink:href="#m86f02ae820" x="421.033594" y="289.475218" style="fill: #8b0a50; stroke: #8b0a50"/>
     <use xlink:href="#m86f02ae820" x="426.640994" y="289.475218" style="fill: #8b0a50; stroke: #8b0a50"/>
     <use xlink:href="#m86f02ae820" x="432.248393" y="289.475218" style="fill: #8b0a50; stroke: #8b0a50"/>
     <use xlink:href="#m86f02ae820" x="437.855793" y="289.475218" style="fill: #8b0a50; stroke: #8b0a50"/>
     <use xlink:href="#m86f02ae820" x="443.463192" y="289.475218" style="fill: #8b0a50; stroke: #8b0a50"/>
     <use xlink:href="#m86f02ae820" x="449.070592" y="289.475218" style="fill: #8b0a50; stroke: #8b0a50"/>
     <use xlink:href="#m86f02ae820" x="454.677992" y="289.475218" style="fill: #8b0a50; stroke: #8b0a50"/>
     <use xlink:href="#m86f02ae820" x="460.285391" y="289.475218" style="fill: #8b0a50; stroke: #8b0a50"/>
     <use xlink:href="#m86f02ae820" x="465.892791" y="289.475218" style="fill: #8b0a50; stroke: #8b0a50"/>
     <use xlink:href="#m86f02ae820" x="482.714989" y="289.475218" style="fill: #8b0a50; stroke: #8b0a50"/>
     <use xlink:href="#m86f02ae820" x="516.359387" y="289.475218" style="fill: #8b0a50; stroke: #8b0a50"/>
     <use xlink:href="#m86f02ae820" x="521.966786" y="289.475218" style="fill: #8b0a50; stroke: #8b0a50"/>
     <use xlink:href="#m86f02ae820" x="527.574186" y="289.475218" style="fill: #8b0a50; stroke: #8b0a50"/>
     <use xlink:href="#m86f02ae820" x="533.181586" y="289.475218" style="fill: #8b0a50; stroke: #8b0a50"/>
     <use xlink:href="#m86f02ae820" x="538.788985" y="289.475218" style="fill: #8b0a50; stroke: #8b0a50"/>
     <use xlink:href="#m86f02ae820" x="544.396385" y="289.475218" style="fill: #8b0a50; stroke: #8b0a50"/>
     <use xlink:href="#m86f02ae820" x="550.003784" y="289.475218" style="fill: #8b0a50; stroke: #8b0a50"/>
     <use xlink:href="#m86f02ae820" x="555.611184" y="289.475218" style="fill: #8b0a50; stroke: #8b0a50"/>
     <use xlink:href="#m86f02ae820" x="561.218584" y="289.475218" style="fill: #8b0a50; stroke: #8b0a50"/>
     <use xlink:href="#m86f02ae820" x="566.825983" y="289.475218" style="fill: #8b0a50; stroke: #8b0a50"/>
     <use xlink:href="#m86f02ae820" x="572.433383" y="289.475218" style="fill: #8b0a50; stroke: #8b0a50"/>
     <use xlink:href="#m86f02ae820" x="578.040782" y="289.475218" style="fill: #8b0a50; stroke: #8b0a50"/>
     <use xlink:href="#m86f02ae820" x="583.648182" y="289.475218" style="fill: #8b0a50; stroke: #8b0a50"/>
    </g>
   </g>
   <g id="line2d_14">
    <path d="M 101.411818 201.074371 
L 107.019218 276.397391 
L 112.626617 279.516317 
L 118.234017 273.312144 
L 123.841416 272.795216 
L 129.448816 267.265762 
L 135.056216 259.808816 
L 140.663615 265.35657 
L 146.271015 268.341794 
L 151.878414 269.992828 
L 157.485814 239.30825 
L 163.093214 228.322761 
L 168.700613 232.772317 
L 174.308013 228.51725 
L 179.915412 264.447359 
L 185.522812 272.13423 
L 191.130211 268.662028 
L 196.737611 257.628932 
L 202.345011 230.91854 
L 207.95241 204.290956 
L 213.55981 182.102571 
L 219.167209 158.77666 
L 224.774609 127.291841 
L 230.382008 114.97658 
L 235.989408 72.578765 
L 241.596808 107.21525 
L 247.204207 124.053201 
L 252.811607 138.323633 
L 258.419006 146.00848 
L 264.026406 153.8779 
L 269.633805 165.985799 
L 275.241205 172.27746 
L 280.848605 164.722887 
L 286.456004 157.213026 
L 292.063404 160.090218 
L 297.670803 165.534636 
L 303.278203 175.240032 
L 308.885603 169.68737 
L 314.493002 157.158143 
L 320.100402 162.524673 
L 325.707801 139.653171 
L 331.315201 127.809682 
L 336.9226 112.300285 
L 342.53 124.751017 
L 348.1374 133.612187 
L 353.744799 139.971843 
L 359.352199 163.982631 
L 364.959598 166.941294 
L 370.566998 188.57693 
L 376.174397 145.012384 
L 381.781797 117.77983 
L 387.389197 87.319748 
L 392.996596 76.650136 
L 398.603996 87.981886 
L 404.211395 83.38187 
L 409.818795 81.249301 
L 415.426195 86.715962 
L 421.033594 106.782193 
L 426.640994 128.337815 
L 432.248393 129.798249 
L 437.855793 126.44143 
L 443.463192 127.733326 
L 449.070592 132.077931 
L 454.677992 148.255968 
L 460.285391 148.007788 
L 465.892791 149.479347 
L 471.50019 158.645377 
L 477.10759 162.756831 
L 482.714989 166.021057 
L 488.322389 172.250152 
L 493.929789 176.703146 
L 499.537188 175.438514 
L 505.144588 177.630761 
L 510.751987 181.903009 
L 516.359387 179.479749 
L 521.966786 175.210585 
L 527.574186 169.976457 
L 533.181586 173.103784 
L 538.788985 178.16341 
L 544.396385 174.299048 
L 550.003784 176.339614 
L 555.611184 179.433561 
L 561.218584 173.80007 
L 566.825983 169.215473 
L 572.433383 166.890751 
L 578.040782 169.081752 
L 583.648182 169.362382 
" clip-path="url(#p4d304fb4ab)" style="fill: none; stroke: #eb6ab0; stroke-width: 2; stroke-linecap: round"/>
   </g>
   <g id="line2d_15">
    <path d="M 101.411818 260.022543 
L 107.019218 266.181997 
L 112.626617 265.639027 
L 118.234017 265.639966 
L 123.841416 265.174396 
L 129.448816 265.163094 
L 135.056216 264.926203 
L 140.663615 264.724238 
L 146.271015 264.43349 
L 151.878414 265.287403 
L 157.485814 254.607037 
L 163.093214 244.357788 
L 168.700613 250.165928 
L 174.308013 254.393313 
L 179.915412 257.81318 
L 185.522812 260.18634 
L 191.130211 260.896086 
L 196.737611 260.39992 
L 202.345011 259.060369 
L 207.95241 258.716572 
L 213.55981 258.460116 
L 219.167209 259.464915 
L 224.774609 258.423665 
L 230.382008 254.386584 
L 235.989408 250.894931 
L 241.596808 246.37423 
L 247.204207 243.281309 
L 252.811607 243.032182 
L 258.419006 244.137019 
L 264.026406 246.551336 
L 269.633805 247.50277 
L 275.241205 248.770731 
L 280.848605 247.896342 
L 286.456004 248.82535 
L 292.063404 247.771959 
L 297.670803 246.802072 
L 303.278203 248.371946 
L 308.885603 248.928995 
L 314.493002 250.727348 
L 320.100402 247.879964 
L 325.707801 245.555174 
L 331.315201 246.600322 
L 336.9226 247.608951 
L 342.53 248.108951 
L 348.1374 247.347068 
L 353.744799 249.134133 
L 359.352199 248.21212 
L 364.959598 248.915305 
L 370.566998 248.802269 
L 376.174397 250.122858 
L 381.781797 250.773896 
L 387.389197 250.567988 
L 392.996596 253.367241 
L 398.603996 256.04615 
L 404.211395 255.736473 
L 409.818795 254.975828 
L 415.426195 256.429083 
L 421.033594 257.492309 
L 426.640994 258.220484 
L 432.248393 257.779319 
L 437.855793 258.568183 
L 443.463192 258.45367 
L 449.070592 257.578911 
L 454.677992 257.691458 
L 460.285391 258.535351 
L 465.892791 259.521129 
L 471.50019 259.1872 
L 477.10759 259.329739 
L 482.714989 259.440961 
L 488.322389 258.847397 
L 493.929789 259.206182 
L 499.537188 259.639476 
L 505.144588 259.231656 
L 510.751987 259.207109 
L 516.359387 258.657114 
L 521.966786 258.915403 
L 527.574186 259.261386 
L 533.181586 259.421418 
L 538.788985 259.338465 
L 544.396385 259.17278 
L 550.003784 259.060697 
L 555.611184 258.255223 
L 561.218584 258.790595 
L 566.825983 258.822692 
L 572.433383 259.069289 
L 578.040782 259.49875 
L 583.648182 259.495541 
" clip-path="url(#p4d304fb4ab)" style="fill: none; stroke-dasharray: 7.4,3.2; stroke-dashoffset: 0; stroke: #eb6ab0; stroke-width: 2"/>
   </g>
   <g id="line2d_16">
    <path d="M 157.485814 379.18 
L 157.485814 27.6 
" clip-path="url(#p4d304fb4ab)" style="fill: none; stroke-dasharray: 5.55,2.4; stroke-dashoffset: 0; stroke: #1a1a1a; stroke-width: 1.5"/>
   </g>
   <g id="line2d_17">
    <path d="M 437.855793 379.18 
L 437.855793 27.6 
" clip-path="url(#p4d304fb4ab)" style="fill: none; stroke-dasharray: 5.55,2.4; stroke-dashoffset: 0; stroke: #1a1a1a; stroke-width: 1.5"/>
   </g>
   <g id="line2d_18">
    <path d="M 101.411818 244.792884 
L 107.019218 252.41584 
L 112.626617 258.183457 
L 118.234017 197.623809 
L 123.841416 238.125369 
L 129.448816 278.440173 
L 135.056216 314.429493 
L 140.663615 302.064513 
L 146.271015 314.173364 
L 151.878414 264.010086 
L 157.485814 228.773116 
L 163.093214 198.714143 
L 168.700613 185.282302 
L 174.308013 214.296337 
L 179.915412 177.94832 
L 185.522812 182.618764 
L 191.130211 171.110852 
L 196.737611 188.730489 
L 202.345011 202.897939 
L 207.95241 218.989274 
L 213.55981 220.850589 
L 219.167209 221.239256 
L 224.774609 219.509378 
L 230.382008 222.408339 
L 235.989408 213.722654 
L 241.596808 215.124082 
L 247.204207 221.253002 
L 252.811607 225.132154 
L 258.419006 216.533852 
L 264.026406 216.450328 
L 269.633805 218.015163 
L 275.241205 222.039287 
L 280.848605 221.737648 
L 286.456004 223.192823 
L 292.063404 220.156812 
L 297.670803 222.715683 
L 303.278203 212.950348 
L 308.885603 210.044428 
L 314.493002 204.92859 
L 320.100402 204.131731 
L 325.707801 208.692449 
L 331.315201 208.758465 
L 336.9226 204.988401 
L 342.53 204.796886 
L 348.1374 204.185759 
L 353.744799 200.646892 
L 359.352199 193.822396 
L 364.959598 192.989583 
L 370.566998 188.842466 
L 376.174397 188.541718 
L 381.781797 187.787142 
L 387.389197 187.462328 
L 392.996596 182.532822 
L 398.603996 177.974038 
L 404.211395 173.060354 
L 409.818795 169.3749 
L 415.426195 169.062369 
L 421.033594 168.244743 
L 426.640994 168.289592 
L 432.248393 165.39114 
L 437.855793 168.095323 
L 443.463192 164.648094 
L 449.070592 173.694649 
L 454.677992 175.691318 
L 460.285391 180.956863 
L 465.892791 182.428347 
L 471.50019 185.304307 
L 477.10759 186.579161 
L 482.714989 185.280371 
L 488.322389 191.243073 
L 493.929789 197.375002 
L 499.537188 188.934572 
L 505.144588 191.314517 
L 510.751987 192.648595 
L 516.359387 186.46832 
L 521.966786 187.73707 
L 527.574186 186.161097 
L 533.181586 184.807675 
L 538.788985 185.00841 
L 544.396385 186.249042 
L 550.003784 182.928299 
L 555.611184 177.806829 
L 561.218584 175.559242 
L 566.825983 179.841105 
L 572.433383 180.911654 
L 578.040782 182.010586 
L 583.648182 177.315403 
" clip-path="url(#p4d304fb4ab)" style="fill: none; stroke: #8b0a50; stroke-width: 2; stroke-linecap: round"/>
   </g>
   <g id="line2d_19">
    <path d="M 101.411818 258.292477 
L 107.019218 253.99305 
L 112.626617 245.793569 
L 118.234017 241.857453 
L 123.841416 239.487072 
L 129.448816 234.082796 
L 135.056216 222.437786 
L 140.663615 212.739516 
L 146.271015 210.430402 
L 151.878414 206.085344 
L 157.485814 193.466409 
L 163.093214 192.06581 
L 168.700613 192.831159 
L 174.308013 195.667448 
L 179.915412 198.582229 
L 185.522812 196.962656 
L 191.130211 200.227982 
L 196.737611 208.910682 
L 202.345011 218.722635 
L 207.95241 225.718421 
L 213.55981 231.430971 
L 219.167209 234.844719 
L 224.774609 239.476209 
L 230.382008 242.876059 
L 235.989408 246.371013 
L 241.596808 247.761019 
L 247.204207 248.840239 
L 252.811607 250.04971 
L 258.419006 249.406958 
L 264.026406 249.732281 
L 269.633805 249.125049 
L 275.241205 249.653298 
L 280.848605 250.786503 
L 286.456004 250.679327 
L 292.063404 250.786167 
L 297.670803 250.599984 
L 303.278203 250.523233 
L 308.885603 250.583922 
L 314.493002 250.436585 
L 320.100402 250.169547 
L 325.707801 250.57235 
L 331.315201 250.126311 
L 336.9226 249.764156 
L 342.53 250.06046 
L 348.1374 250.334494 
L 353.744799 250.621454 
L 359.352199 250.16797 
L 364.959598 249.985557 
L 370.566998 250.478583 
L 376.174397 250.857339 
L 381.781797 250.745322 
L 387.389197 250.732427 
L 392.996596 251.462935 
L 398.603996 251.255034 
L 404.211395 251.380692 
L 409.818795 252.188495 
L 415.426195 252.262381 
L 421.033594 252.635011 
L 426.640994 253.30995 
L 432.248393 253.602619 
L 437.855793 253.873825 
L 443.463192 254.758027 
L 449.070592 255.260158 
L 454.677992 255.641839 
L 460.285391 255.64854 
L 465.892791 255.937937 
L 471.50019 255.762857 
L 477.10759 256.479475 
L 482.714989 256.964524 
L 488.322389 257.189501 
L 493.929789 258.002654 
L 499.537188 257.824858 
L 505.144588 258.034407 
L 510.751987 258.256517 
L 516.359387 258.786643 
L 521.966786 259.274504 
L 527.574186 258.605005 
L 533.181586 259.17469 
L 538.788985 259.108084 
L 544.396385 259.022576 
L 550.003784 259.124717 
L 555.611184 259.540237 
L 561.218584 259.497814 
L 566.825983 259.925998 
L 572.433383 260.21402 
L 578.040782 260.233999 
L 583.648182 260.013195 
" clip-path="url(#p4d304fb4ab)" style="fill: none; stroke-dasharray: 7.4,3.2; stroke-dashoffset: 0; stroke: #8b0a50; stroke-width: 2"/>
   </g>
   <g id="line2d_20">
    <path d="M 157.485814 379.18 
L 157.485814 27.6 
" clip-path="url(#p4d304fb4ab)" style="fill: none; stroke-dasharray: 5.55,2.4; stroke-dashoffset: 0; stroke: #1a1a1a; stroke-width: 1.5"/>
   </g>
   <g id="line2d_21">
    <path d="M 437.855793 379.18 
L 437.855793 27.6 
" clip-path="url(#p4d304fb4ab)" style="fill: none; stroke-dasharray: 5.55,2.4; stroke-dashoffset: 0; stroke: #1a1a1a; stroke-width: 1.5"/>
   </g>
   <g id="patch_3">
    <path d="M 77.3 379.18 
L 77.3 27.6 
" style="fill: none; stroke: #000000; stroke-width: 1.5; stroke-linejoin: miter; stroke-linecap: square"/>
   </g>
   <g id="patch_4">
    <path d="M 77.3 379.18 
L 607.76 379.18 
" style="fill: none; stroke: #000000; stroke-width: 1.5; stroke-linejoin: miter; stroke-linecap: square"/>
   </g>
   <g id="text_16">
    <!-- Divergence Comparison: Original vs Shuffled -->
    <g style="fill: #262626" transform="translate(193.0175 21.6) scale(0.15 -0.15)">
     <defs>
      <path id="ArialMT-43" d="M 3763 1606 
L 4369 1453 
Q 4178 706 3683 314 
Q 3188 -78 2472 -78 
Q 1731 -78 1267 223 
Q 803 525 561 1097 
Q 319 1669 319 2325 
Q 319 3041 592 3573 
Q 866 4106 1370 4382 
Q 1875 4659 2481 4659 
Q 3169 4659 3637 4309 
Q 4106 3959 4291 3325 
L 3694 3184 
Q 3534 3684 3231 3912 
Q 2928 4141 2469 4141 
Q 1941 4141 1586 3887 
Q 1231 3634 1087 3207 
Q 944 2781 944 2328 
Q 944 1744 1114 1308 
Q 1284 872 1643 656 
Q 2003 441 2422 441 
Q 2931 441 3284 734 
Q 3638 1028 3763 1606 
z
" transform="scale(0.015625)"/>
      <path id="ArialMT-6f" d="M 213 1659 
Q 213 2581 725 3025 
Q 1153 3394 1769 3394 
Q 2453 3394 2887 2945 
Q 3322 2497 3322 1706 
Q 3322 1066 3130 698 
Q 2938 331 2570 128 
Q 2203 -75 1769 -75 
Q 1072 -75 642 372 
Q 213 819 213 1659 
z
M 791 1659 
Q 791 1022 1069 705 
Q 1347 388 1769 388 
Q 2188 388 2466 706 
Q 2744 1025 2744 1678 
Q 2744 2294 2464 2611 
Q 2184 2928 1769 2928 
Q 1347 2928 1069 2612 
Q 791 2297 791 1659 
z
" transform="scale(0.015625)"/>
      <path id="ArialMT-70" d="M 422 -1272 
L 422 3319 
L 934 3319 
L 934 2888 
Q 1116 3141 1344 3267 
Q 1572 3394 1897 3394 
Q 2322 3394 2647 3175 
Q 2972 2956 3137 2557 
Q 3303 2159 3303 1684 
Q 3303 1175 3120 767 
Q 2938 359 2589 142 
Q 2241 -75 1856 -75 
Q 1575 -75 1351 44 
Q 1128 163 984 344 
L 984 -1272 
L 422 -1272 
z
M 931 1641 
Q 931 1000 1190 694 
Q 1450 388 1819 388 
Q 2194 388 2461 705 
Q 2728 1022 2728 1688 
Q 2728 2322 2467 2637 
Q 2206 2953 1844 2953 
Q 1484 2953 1207 2617 
Q 931 2281 931 1641 
z
" transform="scale(0.015625)"/>
      <path id="ArialMT-61" d="M 2588 409 
Q 2275 144 1986 34 
Q 1697 -75 1366 -75 
Q 819 -75 525 192 
Q 231 459 231 875 
Q 231 1119 342 1320 
Q 453 1522 633 1644 
Q 813 1766 1038 1828 
Q 1203 1872 1538 1913 
Q 2219 1994 2541 2106 
Q 2544 2222 2544 2253 
Q 2544 2597 2384 2738 
Q 2169 2928 1744 2928 
Q 1347 2928 1158 2789 
Q 969 2650 878 2297 
L 328 2372 
Q 403 2725 575 2942 
Q 747 3159 1072 3276 
Q 1397 3394 1825 3394 
Q 2250 3394 2515 3294 
Q 2781 3194 2906 3042 
Q 3031 2891 3081 2659 
Q 3109 2516 3109 2141 
L 3109 1391 
Q 3109 606 3145 398 
Q 3181 191 3288 0 
L 2700 0 
Q 2613 175 2588 409 
z
M 2541 1666 
Q 2234 1541 1622 1453 
Q 1275 1403 1131 1340 
Q 988 1278 909 1158 
Q 831 1038 831 891 
Q 831 666 1001 516 
Q 1172 366 1500 366 
Q 1825 366 2078 508 
Q 2331 650 2450 897 
Q 2541 1088 2541 1459 
L 2541 1666 
z
" transform="scale(0.015625)"/>
      <path id="ArialMT-3a" d="M 578 2678 
L 578 3319 
L 1219 3319 
L 1219 2678 
L 578 2678 
z
M 578 0 
L 578 641 
L 1219 641 
L 1219 0 
L 578 0 
z
" transform="scale(0.015625)"/>
      <path id="ArialMT-4f" d="M 309 2231 
Q 309 3372 921 4017 
Q 1534 4663 2503 4663 
Q 3138 4663 3647 4359 
Q 4156 4056 4423 3514 
Q 4691 2972 4691 2284 
Q 4691 1588 4409 1038 
Q 4128 488 3612 205 
Q 3097 -78 2500 -78 
Q 1853 -78 1343 234 
Q 834 547 571 1087 
Q 309 1628 309 2231 
z
M 934 2222 
Q 934 1394 1379 917 
Q 1825 441 2497 441 
Q 3181 441 3623 922 
Q 4066 1403 4066 2288 
Q 4066 2847 3877 3264 
Q 3688 3681 3323 3911 
Q 2959 4141 2506 4141 
Q 1863 4141 1398 3698 
Q 934 3256 934 2222 
z
" transform="scale(0.015625)"/>
      <path id="ArialMT-6c" d="M 409 0 
L 409 4581 
L 972 4581 
L 972 0 
L 409 0 
z
" transform="scale(0.015625)"/>
      <path id="ArialMT-53" d="M 288 1472 
L 859 1522 
Q 900 1178 1048 958 
Q 1197 738 1509 602 
Q 1822 466 2213 466 
Q 2559 466 2825 569 
Q 3091 672 3220 851 
Q 3350 1031 3350 1244 
Q 3350 1459 3225 1620 
Q 3100 1781 2813 1891 
Q 2628 1963 1997 2114 
Q 1366 2266 1113 2400 
Q 784 2572 623 2826 
Q 463 3081 463 3397 
Q 463 3744 659 4045 
Q 856 4347 1234 4503 
Q 1613 4659 2075 4659 
Q 2584 4659 2973 4495 
Q 3363 4331 3572 4012 
Q 3781 3694 3797 3291 
L 3216 3247 
Q 3169 3681 2898 3903 
Q 2628 4125 2100 4125 
Q 1550 4125 1298 3923 
Q 1047 3722 1047 3438 
Q 1047 3191 1225 3031 
Q 1400 2872 2139 2705 
Q 2878 2538 3153 2413 
Q 3553 2228 3743 1945 
Q 3934 1663 3934 1294 
Q 3934 928 3725 604 
Q 3516 281 3123 101 
Q 2731 -78 2241 -78 
Q 1619 -78 1198 103 
Q 778 284 539 648 
Q 300 1013 288 1472 
z
" transform="scale(0.015625)"/>
      <path id="ArialMT-68" d="M 422 0 
L 422 4581 
L 984 4581 
L 984 2938 
Q 1378 3394 1978 3394 
Q 2347 3394 2619 3248 
Q 2891 3103 3008 2847 
Q 3125 2591 3125 2103 
L 3125 0 
L 2563 0 
L 2563 2103 
Q 2563 2525 2380 2717 
Q 2197 2909 1863 2909 
Q 1613 2909 1392 2779 
Q 1172 2650 1078 2428 
Q 984 2206 984 1816 
L 984 0 
L 422 0 
z
" transform="scale(0.015625)"/>
      <path id="ArialMT-75" d="M 2597 0 
L 2597 488 
Q 2209 -75 1544 -75 
Q 1250 -75 995 37 
Q 741 150 617 320 
Q 494 491 444 738 
Q 409 903 409 1263 
L 409 3319 
L 972 3319 
L 972 1478 
Q 972 1038 1006 884 
Q 1059 663 1231 536 
Q 1403 409 1656 409 
Q 1909 409 2131 539 
Q 2353 669 2445 892 
Q 2538 1116 2538 1541 
L 2538 3319 
L 3100 3319 
L 3100 0 
L 2597 0 
z
" transform="scale(0.015625)"/>
      <path id="ArialMT-66" d="M 556 0 
L 556 2881 
L 59 2881 
L 59 3319 
L 556 3319 
L 556 3672 
Q 556 4006 616 4169 
Q 697 4388 901 4523 
Q 1106 4659 1475 4659 
Q 1713 4659 2000 4603 
L 1916 4113 
Q 1741 4144 1584 4144 
Q 1328 4144 1222 4034 
Q 1116 3925 1116 3625 
L 1116 3319 
L 1763 3319 
L 1763 2881 
L 1116 2881 
L 1116 0 
L 556 0 
z
" transform="scale(0.015625)"/>
      <path id="ArialMT-64" d="M 2575 0 
L 2575 419 
Q 2259 -75 1647 -75 
Q 1250 -75 917 144 
Q 584 363 401 755 
Q 219 1147 219 1656 
Q 219 2153 384 2558 
Q 550 2963 881 3178 
Q 1213 3394 1622 3394 
Q 1922 3394 2156 3267 
Q 2391 3141 2538 2938 
L 2538 4581 
L 3097 4581 
L 3097 0 
L 2575 0 
z
M 797 1656 
Q 797 1019 1065 703 
Q 1334 388 1700 388 
Q 2069 388 2326 689 
Q 2584 991 2584 1609 
Q 2584 2291 2321 2609 
Q 2059 2928 1675 2928 
Q 1300 2928 1048 2622 
Q 797 2316 797 1656 
z
" transform="scale(0.015625)"/>
     </defs>
     <use xlink:href="#ArialMT-44"/>
     <use xlink:href="#ArialMT-69" x="72.216797"/>
     <use xlink:href="#ArialMT-76" x="94.433594"/>
     <use xlink:href="#ArialMT-65" x="144.433594"/>
     <use xlink:href="#ArialMT-72" x="200.048828"/>
     <use xlink:href="#ArialMT-67" x="233.349609"/>
     <use xlink:href="#ArialMT-65" x="288.964844"/>
     <use xlink:href="#ArialMT-6e" x="344.580078"/>
     <use xlink:href="#ArialMT-63" x="400.195312"/>
     <use xlink:href="#ArialMT-65" x="450.195312"/>
     <use xlink:href="#ArialMT-20" x="505.810547"/>
     <use xlink:href="#ArialMT-43" x="533.59375"/>
     <use xlink:href="#ArialMT-6f" x="605.810547"/>
     <use xlink:href="#ArialMT-6d" x="661.425781"/>
     <use xlink:href="#ArialMT-70" x="744.726562"/>
     <use xlink:href="#ArialMT-61" x="800.341797"/>
     <use xlink:href="#ArialMT-72" x="855.957031"/>
     <use xlink:href="#ArialMT-69" x="889.257812"/>
     <use xlink:href="#ArialMT-73" x="911.474609"/>
     <use xlink:href="#ArialMT-6f" x="961.474609"/>
     <use xlink:href="#ArialMT-6e" x="1017.089844"/>
     <use xlink:href="#ArialMT-3a" x="1072.705078"/>
     <use xlink:href="#ArialMT-20" x="1100.488281"/>
     <use xlink:href="#ArialMT-4f" x="1128.271484"/>
     <use xlink:href="#ArialMT-72" x="1206.054688"/>
     <use xlink:href="#ArialMT-69" x="1239.355469"/>
     <use xlink:href="#ArialMT-67" x="1261.572266"/>
     <use xlink:href="#ArialMT-69" x="1317.1875"/>
     <use xlink:href="#ArialMT-6e" x="1339.404297"/>
     <use xlink:href="#ArialMT-61" x="1395.019531"/>
     <use xlink:href="#ArialMT-6c" x="1450.634766"/>
     <use xlink:href="#ArialMT-20" x="1472.851562"/>
     <use xlink:href="#ArialMT-76" x="1500.634766"/>
     <use xlink:href="#ArialMT-73" x="1550.634766"/>
     <use xlink:href="#ArialMT-20" x="1600.634766"/>
     <use xlink:href="#ArialMT-53" x="1628.417969"/>
     <use xlink:href="#ArialMT-68" x="1695.117188"/>
     <use xlink:href="#ArialMT-75" x="1750.732422"/>
     <use xlink:href="#ArialMT-66" x="1806.347656"/>
     <use xlink:href="#ArialMT-66" x="1832.380859"/>
     <use xlink:href="#ArialMT-6c" x="1860.164062"/>
     <use xlink:href="#ArialMT-65" x="1882.380859"/>
     <use xlink:href="#ArialMT-64" x="1937.996094"/>
    </g>
   </g>
   <g id="legend_1">
    <g id="patch_5">
     <path d="M 615.46 260.055469 
L 705.061875 260.055469 
Q 707.261875 260.055469 707.261875 257.855469 
L 707.261875 148.924531 
Q 707.261875 146.724531 705.061875 146.724531 
L 615.46 146.724531 
Q 613.26 146.724531 613.26 148.924531 
L 613.26 257.855469 
Q 613.26 260.055469 615.46 260.055469 
z
" style="fill: #ffffff; opacity: 0.8; stroke: #cccccc; stroke-linejoin: miter"/>
    </g>
    <g id="line2d_22">
     <path d="M 617.66 155.289062 
L 628.66 155.289062 
L 639.66 155.289062 
" style="fill: none; stroke: #eb6ab0; stroke-width: 2; stroke-linecap: round"/>
    </g>
    <g id="text_17">
     <!-- Original -->
     <g style="fill: #262626" transform="translate(648.46 159.139062) scale(0.11 -0.11)">
      <use xlink:href="#ArialMT-4f"/>
      <use xlink:href="#ArialMT-72" x="77.783203"/>
      <use xlink:href="#ArialMT-69" x="111.083984"/>
      <use xlink:href="#ArialMT-67" x="133.300781"/>
      <use xlink:href="#ArialMT-69" x="188.916016"/>
      <use xlink:href="#ArialMT-6e" x="211.132812"/>
      <use xlink:href="#ArialMT-61" x="266.748047"/>
      <use xlink:href="#ArialMT-6c" x="322.363281"/>
     </g>
    </g>
    <g id="line2d_23">
     <path d="M 617.66 171.11875 
L 628.66 171.11875 
L 639.66 171.11875 
" style="fill: none; stroke-dasharray: 7.4,3.2; stroke-dashoffset: 0; stroke: #eb6ab0; stroke-width: 2"/>
    </g>
    <g id="text_18">
     <!-- Original -->
     <g style="fill: #262626" transform="translate(648.46 174.96875) scale(0.11 -0.11)">
      <use xlink:href="#ArialMT-4f"/>
      <use xlink:href="#ArialMT-72" x="77.783203"/>
      <use xlink:href="#ArialMT-69" x="111.083984"/>
      <use xlink:href="#ArialMT-67" x="133.300781"/>
      <use xlink:href="#ArialMT-69" x="188.916016"/>
      <use xlink:href="#ArialMT-6e" x="211.132812"/>
      <use xlink:href="#ArialMT-61" x="266.748047"/>
      <use xlink:href="#ArialMT-6c" x="322.363281"/>
     </g>
    </g>
    <g id="PathCollection_3">
     <g>
      <use xlink:href="#m25d38731e9" x="628.66" y="187.802656" style="fill: #eb6ab0; stroke: #eb6ab0"/>
     </g>
    </g>
    <g id="text_19">
     <!-- p &lt; 0.001 -->
     <g style="fill: #262626" transform="translate(648.46 190.690156) scale(0.11 -0.11)">
      <defs>
       <path id="ArialMT-3c" d="M 350 2003 
L 350 2528 
L 3384 3809 
L 3384 3250 
L 978 2263 
L 3384 1266 
L 3384 706 
L 350 2003 
z
" transform="scale(0.015625)"/>
      </defs>
      <use xlink:href="#ArialMT-70"/>
      <use xlink:href="#ArialMT-20" x="55.615234"/>
      <use xlink:href="#ArialMT-3c" x="83.398438"/>
      <use xlink:href="#ArialMT-20" x="141.796875"/>
      <use xlink:href="#ArialMT-30" x="169.580078"/>
      <use xlink:href="#ArialMT-2e" x="225.195312"/>
      <use xlink:href="#ArialMT-30" x="252.978516"/>
      <use xlink:href="#ArialMT-30" x="308.59375"/>
      <use xlink:href="#ArialMT-31" x="364.208984"/>
     </g>
    </g>
    <g id="line2d_24">
     <path d="M 617.66 202.4 
L 628.66 202.4 
L 639.66 202.4 
" style="fill: none; stroke-dasharray: 5.55,2.4; stroke-dashoffset: 0; stroke: #1a1a1a; stroke-width: 1.5"/>
    </g>
    <g id="text_20">
     <!-- Stim Onset -->
     <g style="fill: #262626" transform="translate(648.46 206.25) scale(0.11 -0.11)">
      <defs>
       <path id="ArialMT-74" d="M 1650 503 
L 1731 6 
Q 1494 -44 1306 -44 
Q 1000 -44 831 53 
Q 663 150 594 308 
Q 525 466 525 972 
L 525 2881 
L 113 2881 
L 113 3319 
L 525 3319 
L 525 4141 
L 1084 4478 
L 1084 3319 
L 1650 3319 
L 1650 2881 
L 1084 2881 
L 1084 941 
Q 1084 700 1114 631 
Q 1144 563 1211 522 
Q 1278 481 1403 481 
Q 1497 481 1650 503 
z
" transform="scale(0.015625)"/>
      </defs>
      <use xlink:href="#ArialMT-53"/>
      <use xlink:href="#ArialMT-74" x="66.699219"/>
      <use xlink:href="#ArialMT-69" x="94.482422"/>
      <use xlink:href="#ArialMT-6d" x="116.699219"/>
      <use xlink:href="#ArialMT-20" x="200"/>
      <use xlink:href="#ArialMT-4f" x="227.783203"/>
      <use xlink:href="#ArialMT-6e" x="305.566406"/>
      <use xlink:href="#ArialMT-73" x="361.181641"/>
      <use xlink:href="#ArialMT-65" x="411.181641"/>
      <use xlink:href="#ArialMT-74" x="466.796875"/>
     </g>
    </g>
    <g id="line2d_25">
     <path d="M 617.66 217.959844 
L 628.66 217.959844 
L 639.66 217.959844 
" style="fill: none; stroke-dasharray: 5.55,2.4; stroke-dashoffset: 0; stroke: #1a1a1a; stroke-width: 1.5"/>
    </g>
    <g id="text_21">
     <!-- Stim End -->
     <g style="fill: #262626" transform="translate(648.46 221.809844) scale(0.11 -0.11)">
      <defs>
       <path id="ArialMT-45" d="M 506 0 
L 506 4581 
L 3819 4581 
L 3819 4041 
L 1113 4041 
L 1113 2638 
L 3647 2638 
L 3647 2100 
L 1113 2100 
L 1113 541 
L 3925 541 
L 3925 0 
L 506 0 
z
" transform="scale(0.015625)"/>
      </defs>
      <use xlink:href="#ArialMT-53"/>
      <use xlink:href="#ArialMT-74" x="66.699219"/>
      <use xlink:href="#ArialMT-69" x="94.482422"/>
      <use xlink:href="#ArialMT-6d" x="116.699219"/>
      <use xlink:href="#ArialMT-20" x="200"/>
      <use xlink:href="#ArialMT-45" x="227.783203"/>
      <use xlink:href="#ArialMT-6e" x="294.482422"/>
      <use xlink:href="#ArialMT-64" x="350.097656"/>
     </g>
    </g>
    <g id="line2d_26">
     <path d="M 617.66 233.660625 
L 628.66 233.660625 
L 639.66 233.660625 
" style="fill: none; stroke: #8b0a50; stroke-width: 2; stroke-linecap: round"/>
    </g>
    <g id="text_22">
     <!-- Original -->
     <g style="fill: #262626" transform="translate(648.46 237.510625) scale(0.11 -0.11)">
      <use xlink:href="#ArialMT-4f"/>
      <use xlink:href="#ArialMT-72" x="77.783203"/>
      <use xlink:href="#ArialMT-69" x="111.083984"/>
      <use xlink:href="#ArialMT-67" x="133.300781"/>
      <use xlink:href="#ArialMT-69" x="188.916016"/>
      <use xlink:href="#ArialMT-6e" x="211.132812"/>
      <use xlink:href="#ArialMT-61" x="266.748047"/>
      <use xlink:href="#ArialMT-6c" x="322.363281"/>
     </g>
    </g>
    <g id="line2d_27">
     <path d="M 617.66 249.490312 
L 628.66 249.490312 
L 639.66 249.490312 
" style="fill: none; stroke-dasharray: 7.4,3.2; stroke-dashoffset: 0; stroke: #8b0a50; stroke-width: 2"/>
    </g>
    <g id="text_23">
     <!-- Original -->
     <g style="fill: #262626" transform="translate(648.46 253.340312) scale(0.11 -0.11)">
      <use xlink:href="#ArialMT-4f"/>
      <use xlink:href="#ArialMT-72" x="77.783203"/>
      <use xlink:href="#ArialMT-69" x="111.083984"/>
      <use xlink:href="#ArialMT-67" x="133.300781"/>
      <use xlink:href="#ArialMT-69" x="188.916016"/>
      <use xlink:href="#ArialMT-6e" x="211.132812"/>
      <use xlink:href="#ArialMT-61" x="266.748047"/>
      <use xlink:href="#ArialMT-6c" x="322.363281"/>
     </g>
    </g>
   </g>
  </g>
 </g>
 <defs>
  <clipPath id="p4d304fb4ab">
   <rect x="77.3" y="27.6" width="530.46" height="351.58"/>
  </clipPath>
 </defs>
</svg>
