<?xml version="1.0" encoding="utf-8" standalone="no"?>
<!DOCTYPE svg PUBLIC "-//W3C//DTD SVG 1.1//EN"
  "http://www.w3.org/Graphics/SVG/1.1/DTD/svg11.dtd">
<svg xmlns:xlink="http://www.w3.org/1999/xlink" width="720pt" height="432pt" viewBox="0 0 720 432" xmlns="http://www.w3.org/2000/svg" version="1.1">
 <metadata>
  <rdf:RDF xmlns:dc="http://purl.org/dc/elements/1.1/" xmlns:cc="http://creativecommons.org/ns#" xmlns:rdf="http://www.w3.org/1999/02/22-rdf-syntax-ns#">
   <cc:Work>
    <dc:type rdf:resource="http://purl.org/dc/dcmitype/StillImage"/>
    <dc:date>2025-11-30T18:18:21.788329</dc:date>
    <dc:format>image/svg+xml</dc:format>
    <dc:creator>
     <cc:Agent>
      <dc:title>Matplotlib v3.9.4, https://matplotlib.org/</dc:title>
     </cc:Agent>
    </dc:creator>
   </cc:Work>
  </rdf:RDF>
 </metadata>
 <defs>
  <style type="text/css">*{stroke-linejoin: round; stroke-linecap: butt}</style>
 </defs>
 <g id="figure_1">
  <g id="patch_1">
   <path d="M 0 432 
L 720 432 
L 720 0 
L 0 0 
z
" style="fill: #ffffff"/>
  </g>
  <g id="axes_1">
   <g id="patch_2">
    <path d="M 77.46 378.54 
L 607.44 378.54 
L 607.44 26.96 
L 77.46 26.96 
L 77.46 378.54 
z
" style="fill: none"/>
   </g>
   <g id="matplotlib.axis_1">
    <g id="xtick_1">
     <g id="line2d_1">
      <defs>
       <path id="m70da4eeb13" d="M 0 0 
L 0 5 
" style="stroke: #262626; stroke-width: 1.5"/>
      </defs>
      <g>
       <use xlink:href="#m70da4eeb13" x="144.955405" y="378.54" style="fill: #262626; stroke: #262626; stroke-width: 1.5"/>
      </g>
     </g>
     <g id="text_1">
      <!-- 0 -->
      <g style="fill: #262626" transform="translate(140.784702 397.776719) scale(0.15 -0.15)">
       <defs>
        <path id="ArialMT-30" d="M 266 2259 
Q 266 3072 433 3567 
Q 600 4063 929 4331 
Q 1259 4600 1759 4600 
Q 2128 4600 2406 4451 
Q 2684 4303 2865 4023 
Q 3047 3744 3150 3342 
Q 3253 2941 3253 2259 
Q 3253 1453 3087 958 
Q 2922 463 2592 192 
Q 2263 -78 1759 -78 
Q 1097 -78 719 397 
Q 266 969 266 2259 
z
M 844 2259 
Q 844 1131 1108 757 
Q 1372 384 1759 384 
Q 2147 384 2411 759 
Q 2675 1134 2675 2259 
Q 2675 3391 2411 3762 
Q 2147 4134 1753 4134 
Q 1366 4134 1134 3806 
Q 844 3388 844 2259 
z
" transform="scale(0.015625)"/>
       </defs>
       <use xlink:href="#ArialMT-30"/>
      </g>
     </g>
    </g>
    <g id="xtick_2">
     <g id="line2d_2">
      <g>
       <use xlink:href="#m70da4eeb13" x="253.468919" y="378.54" style="fill: #262626; stroke: #262626; stroke-width: 1.5"/>
      </g>
     </g>
     <g id="text_2">
      <!-- 500 -->
      <g style="fill: #262626" transform="translate(240.95681 397.776719) scale(0.15 -0.15)">
       <defs>
        <path id="ArialMT-35" d="M 266 1200 
L 856 1250 
Q 922 819 1161 601 
Q 1400 384 1738 384 
Q 2144 384 2425 690 
Q 2706 997 2706 1503 
Q 2706 1984 2436 2262 
Q 2166 2541 1728 2541 
Q 1456 2541 1237 2417 
Q 1019 2294 894 2097 
L 366 2166 
L 809 4519 
L 3088 4519 
L 3088 3981 
L 1259 3981 
L 1013 2750 
Q 1425 3038 1878 3038 
Q 2478 3038 2890 2622 
Q 3303 2206 3303 1553 
Q 3303 931 2941 478 
Q 2500 -78 1738 -78 
Q 1113 -78 717 272 
Q 322 622 266 1200 
z
" transform="scale(0.015625)"/>
       </defs>
       <use xlink:href="#ArialMT-35"/>
       <use xlink:href="#ArialMT-30" x="55.615234"/>
       <use xlink:href="#ArialMT-30" x="111.230469"/>
      </g>
     </g>
    </g>
    <g id="xtick_3">
     <g id="line2d_3">
      <g>
       <use xlink:href="#m70da4eeb13" x="361.982432" y="378.54" style="fill: #262626; stroke: #262626; stroke-width: 1.5"/>
      </g>
     </g>
     <g id="text_3">
      <!-- 1000 -->
      <g style="fill: #262626" transform="translate(345.29962 397.776719) scale(0.15 -0.15)">
       <defs>
        <path id="ArialMT-31" d="M 2384 0 
L 1822 0 
L 1822 3584 
Q 1619 3391 1289 3197 
Q 959 3003 697 2906 
L 697 3450 
Q 1169 3672 1522 3987 
Q 1875 4303 2022 4600 
L 2384 4600 
L 2384 0 
z
" transform="scale(0.015625)"/>
       </defs>
       <use xlink:href="#ArialMT-31"/>
       <use xlink:href="#ArialMT-30" x="55.615234"/>
       <use xlink:href="#ArialMT-30" x="111.230469"/>
       <use xlink:href="#ArialMT-30" x="166.845703"/>
      </g>
     </g>
    </g>
    <g id="xtick_4">
     <g id="line2d_4">
      <g>
       <use xlink:href="#m70da4eeb13" x="470.495946" y="378.54" style="fill: #262626; stroke: #262626; stroke-width: 1.5"/>
      </g>
     </g>
     <g id="text_4">
      <!-- 1500 -->
      <g style="fill: #262626" transform="translate(453.813133 397.776719) scale(0.15 -0.15)">
       <use xlink:href="#ArialMT-31"/>
       <use xlink:href="#ArialMT-35" x="55.615234"/>
       <use xlink:href="#ArialMT-30" x="111.230469"/>
       <use xlink:href="#ArialMT-30" x="166.845703"/>
      </g>
     </g>
    </g>
    <g id="xtick_5">
     <g id="line2d_5">
      <g>
       <use xlink:href="#m70da4eeb13" x="579.009459" y="378.54" style="fill: #262626; stroke: #262626; stroke-width: 1.5"/>
      </g>
     </g>
     <g id="text_5">
      <!-- 2000 -->
      <g style="fill: #262626" transform="translate(562.326647 397.776719) scale(0.15 -0.15)">
       <defs>
        <path id="ArialMT-32" d="M 3222 541 
L 3222 0 
L 194 0 
Q 188 203 259 391 
Q 375 700 629 1000 
Q 884 1300 1366 1694 
Q 2113 2306 2375 2664 
Q 2638 3022 2638 3341 
Q 2638 3675 2398 3904 
Q 2159 4134 1775 4134 
Q 1369 4134 1125 3890 
Q 881 3647 878 3216 
L 300 3275 
Q 359 3922 746 4261 
Q 1134 4600 1788 4600 
Q 2447 4600 2831 4234 
Q 3216 3869 3216 3328 
Q 3216 3053 3103 2787 
Q 2991 2522 2730 2228 
Q 2469 1934 1863 1422 
Q 1356 997 1212 845 
Q 1069 694 975 541 
L 3222 541 
z
" transform="scale(0.015625)"/>
       </defs>
       <use xlink:href="#ArialMT-32"/>
       <use xlink:href="#ArialMT-30" x="55.615234"/>
       <use xlink:href="#ArialMT-30" x="111.230469"/>
       <use xlink:href="#ArialMT-30" x="166.845703"/>
      </g>
     </g>
    </g>
    <g id="text_6">
     <!-- Time (s) -->
     <g style="fill: #262626" transform="translate(315.237891 415.6775) scale(0.15 -0.15)">
      <defs>
       <path id="ArialMT-54" d="M 1659 0 
L 1659 4041 
L 150 4041 
L 150 4581 
L 3781 4581 
L 3781 4041 
L 2266 4041 
L 2266 0 
L 1659 0 
z
" transform="scale(0.015625)"/>
       <path id="ArialMT-69" d="M 425 3934 
L 425 4581 
L 988 4581 
L 988 3934 
L 425 3934 
z
M 425 0 
L 425 3319 
L 988 3319 
L 988 0 
L 425 0 
z
" transform="scale(0.015625)"/>
       <path id="ArialMT-6d" d="M 422 0 
L 422 3319 
L 925 3319 
L 925 2853 
Q 1081 3097 1340 3245 
Q 1600 3394 1931 3394 
Q 2300 3394 2536 3241 
Q 2772 3088 2869 2813 
Q 3263 3394 3894 3394 
Q 4388 3394 4653 3120 
Q 4919 2847 4919 2278 
L 4919 0 
L 4359 0 
L 4359 2091 
Q 4359 2428 4304 2576 
Q 4250 2725 4106 2815 
Q 3963 2906 3769 2906 
Q 3419 2906 3187 2673 
Q 2956 2441 2956 1928 
L 2956 0 
L 2394 0 
L 2394 2156 
Q 2394 2531 2256 2718 
Q 2119 2906 1806 2906 
Q 1569 2906 1367 2781 
Q 1166 2656 1075 2415 
Q 984 2175 984 1722 
L 984 0 
L 422 0 
z
" transform="scale(0.015625)"/>
       <path id="ArialMT-65" d="M 2694 1069 
L 3275 997 
Q 3138 488 2766 206 
Q 2394 -75 1816 -75 
Q 1088 -75 661 373 
Q 234 822 234 1631 
Q 234 2469 665 2931 
Q 1097 3394 1784 3394 
Q 2450 3394 2872 2941 
Q 3294 2488 3294 1666 
Q 3294 1616 3291 1516 
L 816 1516 
Q 847 969 1125 678 
Q 1403 388 1819 388 
Q 2128 388 2347 550 
Q 2566 713 2694 1069 
z
M 847 1978 
L 2700 1978 
Q 2663 2397 2488 2606 
Q 2219 2931 1791 2931 
Q 1403 2931 1139 2672 
Q 875 2413 847 1978 
z
" transform="scale(0.015625)"/>
       <path id="ArialMT-20" transform="scale(0.015625)"/>
       <path id="ArialMT-28" d="M 1497 -1347 
Q 1031 -759 709 28 
Q 388 816 388 1659 
Q 388 2403 628 3084 
Q 909 3875 1497 4659 
L 1900 4659 
Q 1522 4009 1400 3731 
Q 1209 3300 1100 2831 
Q 966 2247 966 1656 
Q 966 153 1900 -1347 
L 1497 -1347 
z
" transform="scale(0.015625)"/>
       <path id="ArialMT-73" d="M 197 991 
L 753 1078 
Q 800 744 1014 566 
Q 1228 388 1613 388 
Q 2000 388 2187 545 
Q 2375 703 2375 916 
Q 2375 1106 2209 1216 
Q 2094 1291 1634 1406 
Q 1016 1563 777 1677 
Q 538 1791 414 1992 
Q 291 2194 291 2438 
Q 291 2659 392 2848 
Q 494 3038 669 3163 
Q 800 3259 1026 3326 
Q 1253 3394 1513 3394 
Q 1903 3394 2198 3281 
Q 2494 3169 2634 2976 
Q 2775 2784 2828 2463 
L 2278 2388 
Q 2241 2644 2061 2787 
Q 1881 2931 1553 2931 
Q 1166 2931 1000 2803 
Q 834 2675 834 2503 
Q 834 2394 903 2306 
Q 972 2216 1119 2156 
Q 1203 2125 1616 2013 
Q 2213 1853 2448 1751 
Q 2684 1650 2818 1456 
Q 2953 1263 2953 975 
Q 2953 694 2789 445 
Q 2625 197 2315 61 
Q 2006 -75 1616 -75 
Q 969 -75 630 194 
Q 291 463 197 991 
z
" transform="scale(0.015625)"/>
       <path id="ArialMT-29" d="M 791 -1347 
L 388 -1347 
Q 1322 153 1322 1656 
Q 1322 2244 1188 2822 
Q 1081 3291 891 3722 
Q 769 4003 388 4659 
L 791 4659 
Q 1378 3875 1659 3084 
Q 1900 2403 1900 1659 
Q 1900 816 1576 28 
Q 1253 -759 791 -1347 
z
" transform="scale(0.015625)"/>
      </defs>
      <use xlink:href="#ArialMT-54"/>
      <use xlink:href="#ArialMT-69" x="57.333984"/>
      <use xlink:href="#ArialMT-6d" x="79.550781"/>
      <use xlink:href="#ArialMT-65" x="162.851562"/>
      <use xlink:href="#ArialMT-20" x="218.466797"/>
      <use xlink:href="#ArialMT-28" x="246.25"/>
      <use xlink:href="#ArialMT-73" x="279.550781"/>
      <use xlink:href="#ArialMT-29" x="329.550781"/>
     </g>
    </g>
   </g>
   <g id="matplotlib.axis_2">
    <g id="ytick_1">
     <g id="line2d_6">
      <defs>
       <path id="m2702de300f" d="M 0 0 
L -5 0 
" style="stroke: #262626; stroke-width: 1.5"/>
      </defs>
      <g>
       <use xlink:href="#m2702de300f" x="77.46" y="343.438706" style="fill: #262626; stroke: #262626; stroke-width: 1.5"/>
      </g>
     </g>
     <g id="text_7">
      <!-- −0.05 -->
      <g style="fill: #262626" transform="translate(31.007656 348.807065) scale(0.15 -0.15)">
       <defs>
        <path id="ArialMT-2212" d="M 3381 1997 
L 356 1997 
L 356 2522 
L 3381 2522 
L 3381 1997 
z
" transform="scale(0.015625)"/>
        <path id="ArialMT-2e" d="M 581 0 
L 581 641 
L 1222 641 
L 1222 0 
L 581 0 
z
" transform="scale(0.015625)"/>
       </defs>
       <use xlink:href="#ArialMT-2212"/>
       <use xlink:href="#ArialMT-30" x="58.398438"/>
       <use xlink:href="#ArialMT-2e" x="114.013672"/>
       <use xlink:href="#ArialMT-30" x="141.796875"/>
       <use xlink:href="#ArialMT-35" x="197.412109"/>
      </g>
     </g>
    </g>
    <g id="ytick_2">
     <g id="line2d_7">
      <g>
       <use xlink:href="#m2702de300f" x="77.46" y="282.82415" style="fill: #262626; stroke: #262626; stroke-width: 1.5"/>
      </g>
     </g>
     <g id="text_8">
      <!-- 0.00 -->
      <g style="fill: #262626" transform="translate(39.768594 288.19251) scale(0.15 -0.15)">
       <use xlink:href="#ArialMT-30"/>
       <use xlink:href="#ArialMT-2e" x="55.615234"/>
       <use xlink:href="#ArialMT-30" x="83.398438"/>
       <use xlink:href="#ArialMT-30" x="139.013672"/>
      </g>
     </g>
    </g>
    <g id="ytick_3">
     <g id="line2d_8">
      <g>
       <use xlink:href="#m2702de300f" x="77.46" y="222.209595" style="fill: #262626; stroke: #262626; stroke-width: 1.5"/>
      </g>
     </g>
     <g id="text_9">
      <!-- 0.05 -->
      <g style="fill: #262626" transform="translate(39.768594 227.577954) scale(0.15 -0.15)">
       <use xlink:href="#ArialMT-30"/>
       <use xlink:href="#ArialMT-2e" x="55.615234"/>
       <use xlink:href="#ArialMT-30" x="83.398438"/>
       <use xlink:href="#ArialMT-35" x="139.013672"/>
      </g>
     </g>
    </g>
    <g id="ytick_4">
     <g id="line2d_9">
      <g>
       <use xlink:href="#m2702de300f" x="77.46" y="161.595039" style="fill: #262626; stroke: #262626; stroke-width: 1.5"/>
      </g>
     </g>
     <g id="text_10">
      <!-- 0.10 -->
      <g style="fill: #262626" transform="translate(39.768594 166.963399) scale(0.15 -0.15)">
       <use xlink:href="#ArialMT-30"/>
       <use xlink:href="#ArialMT-2e" x="55.615234"/>
       <use xlink:href="#ArialMT-31" x="83.398438"/>
       <use xlink:href="#ArialMT-30" x="139.013672"/>
      </g>
     </g>
    </g>
    <g id="ytick_5">
     <g id="line2d_10">
      <g>
       <use xlink:href="#m2702de300f" x="77.46" y="100.980484" style="fill: #262626; stroke: #262626; stroke-width: 1.5"/>
      </g>
     </g>
     <g id="text_11">
      <!-- 0.15 -->
      <g style="fill: #262626" transform="translate(39.768594 106.348843) scale(0.15 -0.15)">
       <use xlink:href="#ArialMT-30"/>
       <use xlink:href="#ArialMT-2e" x="55.615234"/>
       <use xlink:href="#ArialMT-31" x="83.398438"/>
       <use xlink:href="#ArialMT-35" x="139.013672"/>
      </g>
     </g>
    </g>
    <g id="ytick_6">
     <g id="line2d_11">
      <g>
       <use xlink:href="#m2702de300f" x="77.46" y="40.365928" style="fill: #262626; stroke: #262626; stroke-width: 1.5"/>
      </g>
     </g>
     <g id="text_12">
      <!-- 0.20 -->
      <g style="fill: #262626" transform="translate(39.768594 45.734288) scale(0.15 -0.15)">
       <use xlink:href="#ArialMT-30"/>
       <use xlink:href="#ArialMT-2e" x="55.615234"/>
       <use xlink:href="#ArialMT-32" x="83.398438"/>
       <use xlink:href="#ArialMT-30" x="139.013672"/>
      </g>
     </g>
    </g>
    <g id="text_13">
     <!-- Divergence -->
     <g style="fill: #262626" transform="translate(23.850625 240.683594) rotate(-90) scale(0.15 -0.15)">
      <defs>
       <path id="ArialMT-44" d="M 494 0 
L 494 4581 
L 2072 4581 
Q 2606 4581 2888 4516 
Q 3281 4425 3559 4188 
Q 3922 3881 4101 3404 
Q 4281 2928 4281 2316 
Q 4281 1794 4159 1391 
Q 4038 988 3847 723 
Q 3656 459 3429 307 
Q 3203 156 2883 78 
Q 2563 0 2147 0 
L 494 0 
z
M 1100 541 
L 2078 541 
Q 2531 541 2789 625 
Q 3047 709 3200 863 
Q 3416 1078 3536 1442 
Q 3656 1806 3656 2325 
Q 3656 3044 3420 3430 
Q 3184 3816 2847 3947 
Q 2603 4041 2063 4041 
L 1100 4041 
L 1100 541 
z
" transform="scale(0.015625)"/>
       <path id="ArialMT-76" d="M 1344 0 
L 81 3319 
L 675 3319 
L 1388 1331 
Q 1503 1009 1600 663 
Q 1675 925 1809 1294 
L 2547 3319 
L 3125 3319 
L 1869 0 
L 1344 0 
z
" transform="scale(0.015625)"/>
       <path id="ArialMT-72" d="M 416 0 
L 416 3319 
L 922 3319 
L 922 2816 
Q 1116 3169 1280 3281 
Q 1444 3394 1641 3394 
Q 1925 3394 2219 3213 
L 2025 2691 
Q 1819 2813 1613 2813 
Q 1428 2813 1281 2702 
Q 1134 2591 1072 2394 
Q 978 2094 978 1738 
L 978 0 
L 416 0 
z
" transform="scale(0.015625)"/>
       <path id="ArialMT-67" d="M 319 -275 
L 866 -356 
Q 900 -609 1056 -725 
Q 1266 -881 1628 -881 
Q 2019 -881 2231 -725 
Q 2444 -569 2519 -288 
Q 2563 -116 2559 434 
Q 2191 0 1641 0 
Q 956 0 581 494 
Q 206 988 206 1678 
Q 206 2153 378 2554 
Q 550 2956 876 3175 
Q 1203 3394 1644 3394 
Q 2231 3394 2613 2919 
L 2613 3319 
L 3131 3319 
L 3131 450 
Q 3131 -325 2973 -648 
Q 2816 -972 2473 -1159 
Q 2131 -1347 1631 -1347 
Q 1038 -1347 672 -1080 
Q 306 -813 319 -275 
z
M 784 1719 
Q 784 1066 1043 766 
Q 1303 466 1694 466 
Q 2081 466 2343 764 
Q 2606 1063 2606 1700 
Q 2606 2309 2336 2618 
Q 2066 2928 1684 2928 
Q 1309 2928 1046 2623 
Q 784 2319 784 1719 
z
" transform="scale(0.015625)"/>
       <path id="ArialMT-6e" d="M 422 0 
L 422 3319 
L 928 3319 
L 928 2847 
Q 1294 3394 1984 3394 
Q 2284 3394 2536 3286 
Q 2788 3178 2913 3003 
Q 3038 2828 3088 2588 
Q 3119 2431 3119 2041 
L 3119 0 
L 2556 0 
L 2556 2019 
Q 2556 2363 2490 2533 
Q 2425 2703 2258 2804 
Q 2091 2906 1866 2906 
Q 1506 2906 1245 2678 
Q 984 2450 984 1813 
L 984 0 
L 422 0 
z
" transform="scale(0.015625)"/>
       <path id="ArialMT-63" d="M 2588 1216 
L 3141 1144 
Q 3050 572 2676 248 
Q 2303 -75 1759 -75 
Q 1078 -75 664 370 
Q 250 816 250 1647 
Q 250 2184 428 2587 
Q 606 2991 970 3192 
Q 1334 3394 1763 3394 
Q 2303 3394 2647 3120 
Q 2991 2847 3088 2344 
L 2541 2259 
Q 2463 2594 2264 2762 
Q 2066 2931 1784 2931 
Q 1359 2931 1093 2626 
Q 828 2322 828 1663 
Q 828 994 1084 691 
Q 1341 388 1753 388 
Q 2084 388 2306 591 
Q 2528 794 2588 1216 
z
" transform="scale(0.015625)"/>
      </defs>
      <use xlink:href="#ArialMT-44"/>
      <use xlink:href="#ArialMT-69" x="72.216797"/>
      <use xlink:href="#ArialMT-76" x="94.433594"/>
      <use xlink:href="#ArialMT-65" x="144.433594"/>
      <use xlink:href="#ArialMT-72" x="200.048828"/>
      <use xlink:href="#ArialMT-67" x="233.349609"/>
      <use xlink:href="#ArialMT-65" x="288.964844"/>
      <use xlink:href="#ArialMT-6e" x="344.580078"/>
      <use xlink:href="#ArialMT-63" x="400.195312"/>
      <use xlink:href="#ArialMT-65" x="450.195312"/>
     </g>
    </g>
   </g>
   <g id="PolyCollection_1">
    <defs>
     <path id="m1f2a03eeec" d="M 101.55 -147.573098 
L 101.55 -134.685707 
L 105.890541 -135.673762 
L 110.231081 -147.601673 
L 114.571622 -124.910555 
L 118.912162 -132.611313 
L 123.252703 -139.686997 
L 127.593243 -151.169758 
L 131.933784 -148.922482 
L 136.274324 -141.659336 
L 140.614865 -146.117602 
L 144.955405 -156.855195 
L 149.295946 -165.747469 
L 153.636486 -153.207931 
L 157.977027 -107.397616 
L 162.317568 -105.374982 
L 166.658108 -126.325781 
L 170.998649 -108.379291 
L 175.339189 -86.681656 
L 179.67973 -120.469184 
L 184.02027 -121.031287 
L 188.360811 -95.736515 
L 192.701351 -69.440909 
L 197.041892 -112.767087 
L 201.382432 -102.868302 
L 205.722973 -80.853361 
L 210.063514 -70.376919 
L 214.404054 -119.401447 
L 218.744595 -189.193232 
L 223.085135 -254.803141 
L 227.425676 -268.07558 
L 231.766216 -271.48419 
L 236.106757 -224.836609 
L 240.447297 -202.366115 
L 244.787838 -195.377447 
L 249.128378 -237.242862 
L 253.468919 -260.331335 
L 257.809459 -264.828633 
L 262.15 -267.433564 
L 266.490541 -241.408086 
L 270.831081 -227.201145 
L 275.171622 -221.641158 
L 279.512162 -242.476343 
L 283.852703 -192.784397 
L 288.193243 -157.885847 
L 292.533784 -153.004605 
L 296.874324 -178.99806 
L 301.214865 -207.316347 
L 305.555405 -211.144669 
L 309.895946 -220.496017 
L 314.236486 -247.171264 
L 318.577027 -285.630461 
L 322.917568 -311.705516 
L 327.258108 -310.494285 
L 331.598649 -302.973249 
L 335.939189 -284.391933 
L 340.27973 -312.976458 
L 344.62027 -268.79192 
L 348.960811 -243.647121 
L 353.301351 -262.824474 
L 357.641892 -276.837403 
L 361.982432 -288.78103 
L 366.322973 -265.309851 
L 370.663514 -304.879043 
L 375.004054 -354.208567 
L 379.344595 -307.116911 
L 383.685135 -259.968906 
L 388.025676 -231.614971 
L 392.366216 -208.016342 
L 396.706757 -219.052997 
L 401.047297 -268.300522 
L 405.387838 -342.820585 
L 409.728378 -343.058121 
L 414.068919 -350.397647 
L 418.409459 -346.18187 
L 422.75 -356.485025 
L 427.090541 -347.974897 
L 431.431081 -290.00245 
L 435.771622 -256.739516 
L 440.112162 -203.700628 
L 444.452703 -207.647654 
L 448.793243 -231.535759 
L 453.133784 -290.877531 
L 457.474324 -338.743977 
L 461.814865 -337.683861 
L 466.155405 -285.838698 
L 470.495946 -226.724491 
L 474.836486 -208.094449 
L 479.177027 -200.182583 
L 483.517568 -179.416842 
L 487.858108 -173.980543 
L 492.198649 -165.932329 
L 496.539189 -163.99845 
L 500.87973 -159.103557 
L 505.22027 -162.366095 
L 509.560811 -154.703866 
L 513.901351 -162.248261 
L 518.241892 -168.152394 
L 522.582432 -183.988039 
L 526.922973 -176.236623 
L 531.263514 -179.325319 
L 535.604054 -163.054349 
L 539.944595 -172.972153 
L 544.285135 -175.926689 
L 548.625676 -163.927366 
L 552.966216 -165.172711 
L 557.306757 -147.538386 
L 561.647297 -145.402758 
L 565.987838 -157.869755 
L 570.328378 -152.865176 
L 574.668919 -153.508495 
L 579.009459 -145.735517 
L 583.35 -156.409817 
L 583.35 -176.002395 
L 583.35 -176.002395 
L 579.009459 -166.524309 
L 574.668919 -173.080744 
L 570.328378 -171.037536 
L 565.987838 -175.796568 
L 561.647297 -165.941445 
L 557.306757 -167.098886 
L 552.966216 -184.036797 
L 548.625676 -183.233097 
L 544.285135 -194.157972 
L 539.944595 -189.337962 
L 535.604054 -179.561425 
L 531.263514 -200.460812 
L 526.922973 -194.713239 
L 522.582432 -203.161093 
L 518.241892 -188.774308 
L 513.901351 -181.789738 
L 509.560811 -174.877682 
L 505.22027 -182.6953 
L 500.87973 -179.457405 
L 496.539189 -183.199686 
L 492.198649 -184.980444 
L 487.858108 -191.23257 
L 483.517568 -198.465732 
L 479.177027 -221.639707 
L 474.836486 -234.569425 
L 470.495946 -250.670372 
L 466.155405 -316.94509 
L 461.814865 -369.146668 
L 457.474324 -370.52023 
L 453.133784 -320.162448 
L 448.793243 -264.972923 
L 444.452703 -241.153246 
L 440.112162 -232.933546 
L 435.771622 -285.999253 
L 431.431081 -320.605738 
L 427.090541 -380.627701 
L 422.75 -389.059091 
L 418.409459 -373.953579 
L 414.068919 -379.772115 
L 409.728378 -372.198559 
L 405.387838 -379.959982 
L 401.047297 -313.821724 
L 396.706757 -271.966543 
L 392.366216 -258.196224 
L 388.025676 -273.257138 
L 383.685135 -293.984414 
L 379.344595 -335.386502 
L 375.004054 -380.570712 
L 370.663514 -330.445565 
L 366.322973 -289.99292 
L 361.982432 -311.918971 
L 357.641892 -299.267467 
L 353.301351 -290.075442 
L 348.960811 -278.178779 
L 344.62027 -303.283923 
L 340.27973 -344.754746 
L 335.939189 -314.57241 
L 331.598649 -327.109716 
L 327.258108 -335.786827 
L 322.917568 -339.789549 
L 318.577027 -315.034132 
L 314.236486 -272.352792 
L 309.895946 -243.127824 
L 305.555405 -232.367888 
L 301.214865 -232.759171 
L 296.874324 -212.921551 
L 292.533784 -188.847148 
L 288.193243 -190.68624 
L 283.852703 -220.312167 
L 279.512162 -265.65764 
L 275.171622 -244.338177 
L 270.831081 -247.418505 
L 266.490541 -264.746131 
L 262.15 -301.421793 
L 257.809459 -307.075023 
L 253.468919 -297.288105 
L 249.128378 -263.260197 
L 244.787838 -215.536843 
L 240.447297 -222.944242 
L 236.106757 -249.151377 
L 231.766216 -297.437229 
L 227.425676 -296.266423 
L 223.085135 -275.473988 
L 218.744595 -207.770034 
L 214.404054 -139.94735 
L 210.063514 -93.426197 
L 205.722973 -105.222425 
L 201.382432 -130.985585 
L 197.041892 -138.882934 
L 192.701351 -96.891857 
L 188.360811 -119.551227 
L 184.02027 -142.187509 
L 179.67973 -141.647931 
L 175.339189 -105.419838 
L 170.998649 -127.508156 
L 166.658108 -147.622161 
L 162.317568 -121.273565 
L 157.977027 -128.145345 
L 153.636486 -173.651042 
L 149.295946 -189.895737 
L 144.955405 -176.074395 
L 140.614865 -163.151536 
L 136.274324 -157.725228 
L 131.933784 -165.578407 
L 127.593243 -167.029758 
L 123.252703 -154.13081 
L 118.912162 -148.718496 
L 114.571622 -142.829455 
L 110.231081 -161.294915 
L 105.890541 -153.179472 
L 101.55 -147.573098 
z
" style="stroke: #eb6ab0; stroke-opacity: 0.1"/>
    </defs>
    <g clip-path="url(#p526cec10f8)">
     <use xlink:href="#m1f2a03eeec" x="0" y="432" style="fill: #eb6ab0; fill-opacity: 0.1; stroke: #eb6ab0; stroke-opacity: 0.1"/>
    </g>
   </g>
   <g id="PolyCollection_2">
    <defs>
     <path id="m7f6b0efb57" d="M 101.55 -150.179657 
L 101.55 -148.083723 
L 105.890541 -149.493403 
L 110.231081 -147.389238 
L 114.571622 -147.825909 
L 118.912162 -147.909081 
L 123.252703 -149.06513 
L 127.593243 -148.206748 
L 131.933784 -148.911096 
L 136.274324 -146.935272 
L 140.614865 -147.373219 
L 144.955405 -151.853846 
L 149.295946 -152.505628 
L 153.636486 -151.552918 
L 157.977027 -147.565215 
L 162.317568 -149.110495 
L 166.658108 -153.878629 
L 170.998649 -158.092362 
L 175.339189 -155.666036 
L 179.67973 -150.024868 
L 184.02027 -147.388222 
L 188.360811 -146.001386 
L 192.701351 -156.284888 
L 197.041892 -161.652574 
L 201.382432 -165.971166 
L 205.722973 -168.331079 
L 210.063514 -169.122835 
L 214.404054 -163.739494 
L 218.744595 -159.538651 
L 223.085135 -158.512772 
L 227.425676 -161.512417 
L 231.766216 -169.121726 
L 236.106757 -166.453631 
L 240.447297 -156.53261 
L 244.787838 -154.047365 
L 249.128378 -156.161165 
L 253.468919 -153.702417 
L 257.809459 -151.898468 
L 262.15 -156.974575 
L 266.490541 -161.256072 
L 270.831081 -159.443218 
L 275.171622 -160.223282 
L 279.512162 -158.854145 
L 283.852703 -164.191553 
L 288.193243 -162.954191 
L 292.533784 -162.448075 
L 296.874324 -163.763242 
L 301.214865 -160.353914 
L 305.555405 -150.820684 
L 309.895946 -150.845647 
L 314.236486 -149.395393 
L 318.577027 -146.627813 
L 322.917568 -147.699457 
L 327.258108 -157.583848 
L 331.598649 -168.54897 
L 335.939189 -167.695784 
L 340.27973 -152.891707 
L 344.62027 -148.764863 
L 348.960811 -149.534043 
L 353.301351 -151.248741 
L 357.641892 -148.44316 
L 361.982432 -138.119396 
L 366.322973 -133.90901 
L 370.663514 -135.287676 
L 375.004054 -138.335027 
L 379.344595 -140.899283 
L 383.685135 -151.135613 
L 388.025676 -162.594358 
L 392.366216 -168.688616 
L 396.706757 -165.384737 
L 401.047297 -166.103449 
L 405.387838 -170.984072 
L 409.728378 -166.979653 
L 414.068919 -160.08324 
L 418.409459 -151.29211 
L 422.75 -151.297232 
L 427.090541 -150.017461 
L 431.431081 -157.336587 
L 435.771622 -158.463766 
L 440.112162 -158.337774 
L 444.452703 -150.221143 
L 448.793243 -150.388082 
L 453.133784 -150.655362 
L 457.474324 -150.548065 
L 461.814865 -147.584081 
L 466.155405 -150.018264 
L 470.495946 -148.20575 
L 474.836486 -152.024268 
L 479.177027 -150.434595 
L 483.517568 -151.434839 
L 487.858108 -149.879483 
L 492.198649 -150.506699 
L 496.539189 -151.017382 
L 500.87973 -149.393831 
L 505.22027 -152.557222 
L 509.560811 -152.283809 
L 513.901351 -151.28723 
L 518.241892 -151.446939 
L 522.582432 -150.873387 
L 526.922973 -150.987615 
L 531.263514 -151.211576 
L 535.604054 -148.749211 
L 539.944595 -150.146876 
L 544.285135 -150.047871 
L 548.625676 -149.738627 
L 552.966216 -148.318425 
L 557.306757 -149.029131 
L 561.647297 -150.734754 
L 565.987838 -150.266289 
L 570.328378 -150.039487 
L 574.668919 -147.922881 
L 579.009459 -148.340174 
L 583.35 -148.007817 
L 583.35 -150.589536 
L 583.35 -150.589536 
L 579.009459 -150.472251 
L 574.668919 -150.077215 
L 570.328378 -152.560153 
L 565.987838 -152.592515 
L 561.647297 -152.725395 
L 557.306757 -151.047078 
L 552.966216 -150.550561 
L 548.625676 -151.713446 
L 544.285135 -152.248226 
L 539.944595 -152.359612 
L 535.604054 -150.696654 
L 531.263514 -153.300267 
L 526.922973 -153.099557 
L 522.582432 -153.158806 
L 518.241892 -153.547933 
L 513.901351 -153.444191 
L 509.560811 -154.811237 
L 505.22027 -154.764797 
L 500.87973 -151.63672 
L 496.539189 -153.353919 
L 492.198649 -152.461864 
L 487.858108 -152.380289 
L 483.517568 -153.81418 
L 479.177027 -153.436878 
L 474.836486 -154.983116 
L 470.495946 -151.089976 
L 466.155405 -153.180981 
L 461.814865 -150.790271 
L 457.474324 -153.64801 
L 453.133784 -154.149606 
L 448.793243 -154.164058 
L 444.452703 -153.922005 
L 440.112162 -162.190958 
L 435.771622 -162.461247 
L 431.431081 -161.158215 
L 427.090541 -153.36668 
L 422.75 -154.161282 
L 418.409459 -154.020397 
L 414.068919 -163.24675 
L 409.728378 -170.370904 
L 405.387838 -174.214283 
L 401.047297 -168.850213 
L 396.706757 -168.536655 
L 392.366216 -171.944704 
L 388.025676 -165.147726 
L 383.685135 -154.32925 
L 379.344595 -144.311394 
L 375.004054 -141.675565 
L 370.663514 -139.022404 
L 366.322973 -137.434708 
L 361.982432 -141.670495 
L 357.641892 -151.742457 
L 353.301351 -154.630108 
L 348.960811 -152.121605 
L 344.62027 -151.754476 
L 340.27973 -155.774623 
L 335.939189 -170.535021 
L 331.598649 -171.210076 
L 327.258108 -160.143688 
L 322.917568 -150.417038 
L 318.577027 -149.279102 
L 314.236486 -152.038377 
L 309.895946 -153.09825 
L 305.555405 -153.27425 
L 301.214865 -163.107977 
L 296.874324 -166.40471 
L 292.533784 -165.369123 
L 288.193243 -165.43414 
L 283.852703 -166.845752 
L 279.512162 -161.716423 
L 275.171622 -163.027664 
L 270.831081 -162.070061 
L 266.490541 -163.91812 
L 262.15 -159.884906 
L 257.809459 -154.593253 
L 253.468919 -156.704565 
L 249.128378 -158.989815 
L 244.787838 -157.137908 
L 240.447297 -160.090204 
L 236.106757 -170.496184 
L 231.766216 -173.244088 
L 227.425676 -165.13388 
L 223.085135 -161.564459 
L 218.744595 -162.664743 
L 214.404054 -166.763094 
L 210.063514 -173.04008 
L 205.722973 -172.696729 
L 201.382432 -169.967584 
L 197.041892 -165.478697 
L 192.701351 -159.737599 
L 188.360811 -149.411074 
L 184.02027 -150.789217 
L 179.67973 -153.248976 
L 175.339189 -158.45316 
L 170.998649 -160.77013 
L 166.658108 -156.942865 
L 162.317568 -152.484397 
L 157.977027 -150.328605 
L 153.636486 -154.473915 
L 149.295946 -155.516048 
L 144.955405 -154.600038 
L 140.614865 -149.796936 
L 136.274324 -149.143482 
L 131.933784 -151.435263 
L 127.593243 -150.658458 
L 123.252703 -151.364038 
L 118.912162 -149.74054 
L 114.571622 -150.250572 
L 110.231081 -149.668403 
L 105.890541 -151.685533 
L 101.55 -150.179657 
z
" style="stroke: #eb6ab0; stroke-opacity: 0.1"/>
    </defs>
    <g clip-path="url(#p526cec10f8)">
     <use xlink:href="#m7f6b0efb57" x="0" y="432" style="fill: #eb6ab0; fill-opacity: 0.1; stroke: #eb6ab0; stroke-opacity: 0.1"/>
    </g>
   </g>
   <g id="PathCollection_1">
    <defs>
     <path id="mded0dab4fb" d="M -2.5 2.5 
L 2.5 2.5 
L 2.5 -2.5 
L -2.5 -2.5 
z
" style="stroke: #eb6ab0"/>
    </defs>
    <g clip-path="url(#p526cec10f8)">
     <use xlink:href="#mded0dab4fb" x="218.744595" y="294.947061" style="fill: #eb6ab0; stroke: #eb6ab0"/>
     <use xlink:href="#mded0dab4fb" x="223.085135" y="294.947061" style="fill: #eb6ab0; stroke: #eb6ab0"/>
     <use xlink:href="#mded0dab4fb" x="227.425676" y="294.947061" style="fill: #eb6ab0; stroke: #eb6ab0"/>
     <use xlink:href="#mded0dab4fb" x="231.766216" y="294.947061" style="fill: #eb6ab0; stroke: #eb6ab0"/>
     <use xlink:href="#mded0dab4fb" x="236.106757" y="294.947061" style="fill: #eb6ab0; stroke: #eb6ab0"/>
     <use xlink:href="#mded0dab4fb" x="240.447297" y="294.947061" style="fill: #eb6ab0; stroke: #eb6ab0"/>
     <use xlink:href="#mded0dab4fb" x="244.787838" y="294.947061" style="fill: #eb6ab0; stroke: #eb6ab0"/>
     <use xlink:href="#mded0dab4fb" x="249.128378" y="294.947061" style="fill: #eb6ab0; stroke: #eb6ab0"/>
     <use xlink:href="#mded0dab4fb" x="253.468919" y="294.947061" style="fill: #eb6ab0; stroke: #eb6ab0"/>
     <use xlink:href="#mded0dab4fb" x="257.809459" y="294.947061" style="fill: #eb6ab0; stroke: #eb6ab0"/>
     <use xlink:href="#mded0dab4fb" x="262.15" y="294.947061" style="fill: #eb6ab0; stroke: #eb6ab0"/>
     <use xlink:href="#mded0dab4fb" x="266.490541" y="294.947061" style="fill: #eb6ab0; stroke: #eb6ab0"/>
     <use xlink:href="#mded0dab4fb" x="270.831081" y="294.947061" style="fill: #eb6ab0; stroke: #eb6ab0"/>
     <use xlink:href="#mded0dab4fb" x="275.171622" y="294.947061" style="fill: #eb6ab0; stroke: #eb6ab0"/>
     <use xlink:href="#mded0dab4fb" x="279.512162" y="294.947061" style="fill: #eb6ab0; stroke: #eb6ab0"/>
     <use xlink:href="#mded0dab4fb" x="301.214865" y="294.947061" style="fill: #eb6ab0; stroke: #eb6ab0"/>
     <use xlink:href="#mded0dab4fb" x="305.555405" y="294.947061" style="fill: #eb6ab0; stroke: #eb6ab0"/>
     <use xlink:href="#mded0dab4fb" x="309.895946" y="294.947061" style="fill: #eb6ab0; stroke: #eb6ab0"/>
     <use xlink:href="#mded0dab4fb" x="314.236486" y="294.947061" style="fill: #eb6ab0; stroke: #eb6ab0"/>
     <use xlink:href="#mded0dab4fb" x="318.577027" y="294.947061" style="fill: #eb6ab0; stroke: #eb6ab0"/>
     <use xlink:href="#mded0dab4fb" x="322.917568" y="294.947061" style="fill: #eb6ab0; stroke: #eb6ab0"/>
     <use xlink:href="#mded0dab4fb" x="327.258108" y="294.947061" style="fill: #eb6ab0; stroke: #eb6ab0"/>
     <use xlink:href="#mded0dab4fb" x="331.598649" y="294.947061" style="fill: #eb6ab0; stroke: #eb6ab0"/>
     <use xlink:href="#mded0dab4fb" x="335.939189" y="294.947061" style="fill: #eb6ab0; stroke: #eb6ab0"/>
     <use xlink:href="#mded0dab4fb" x="340.27973" y="294.947061" style="fill: #eb6ab0; stroke: #eb6ab0"/>
     <use xlink:href="#mded0dab4fb" x="344.62027" y="294.947061" style="fill: #eb6ab0; stroke: #eb6ab0"/>
     <use xlink:href="#mded0dab4fb" x="348.960811" y="294.947061" style="fill: #eb6ab0; stroke: #eb6ab0"/>
     <use xlink:href="#mded0dab4fb" x="353.301351" y="294.947061" style="fill: #eb6ab0; stroke: #eb6ab0"/>
     <use xlink:href="#mded0dab4fb" x="357.641892" y="294.947061" style="fill: #eb6ab0; stroke: #eb6ab0"/>
     <use xlink:href="#mded0dab4fb" x="361.982432" y="294.947061" style="fill: #eb6ab0; stroke: #eb6ab0"/>
     <use xlink:href="#mded0dab4fb" x="366.322973" y="294.947061" style="fill: #eb6ab0; stroke: #eb6ab0"/>
     <use xlink:href="#mded0dab4fb" x="370.663514" y="294.947061" style="fill: #eb6ab0; stroke: #eb6ab0"/>
     <use xlink:href="#mded0dab4fb" x="375.004054" y="294.947061" style="fill: #eb6ab0; stroke: #eb6ab0"/>
     <use xlink:href="#mded0dab4fb" x="379.344595" y="294.947061" style="fill: #eb6ab0; stroke: #eb6ab0"/>
     <use xlink:href="#mded0dab4fb" x="383.685135" y="294.947061" style="fill: #eb6ab0; stroke: #eb6ab0"/>
     <use xlink:href="#mded0dab4fb" x="388.025676" y="294.947061" style="fill: #eb6ab0; stroke: #eb6ab0"/>
     <use xlink:href="#mded0dab4fb" x="401.047297" y="294.947061" style="fill: #eb6ab0; stroke: #eb6ab0"/>
     <use xlink:href="#mded0dab4fb" x="405.387838" y="294.947061" style="fill: #eb6ab0; stroke: #eb6ab0"/>
     <use xlink:href="#mded0dab4fb" x="409.728378" y="294.947061" style="fill: #eb6ab0; stroke: #eb6ab0"/>
     <use xlink:href="#mded0dab4fb" x="414.068919" y="294.947061" style="fill: #eb6ab0; stroke: #eb6ab0"/>
     <use xlink:href="#mded0dab4fb" x="418.409459" y="294.947061" style="fill: #eb6ab0; stroke: #eb6ab0"/>
     <use xlink:href="#mded0dab4fb" x="422.75" y="294.947061" style="fill: #eb6ab0; stroke: #eb6ab0"/>
     <use xlink:href="#mded0dab4fb" x="427.090541" y="294.947061" style="fill: #eb6ab0; stroke: #eb6ab0"/>
     <use xlink:href="#mded0dab4fb" x="431.431081" y="294.947061" style="fill: #eb6ab0; stroke: #eb6ab0"/>
     <use xlink:href="#mded0dab4fb" x="435.771622" y="294.947061" style="fill: #eb6ab0; stroke: #eb6ab0"/>
     <use xlink:href="#mded0dab4fb" x="440.112162" y="294.947061" style="fill: #eb6ab0; stroke: #eb6ab0"/>
     <use xlink:href="#mded0dab4fb" x="444.452703" y="294.947061" style="fill: #eb6ab0; stroke: #eb6ab0"/>
     <use xlink:href="#mded0dab4fb" x="448.793243" y="294.947061" style="fill: #eb6ab0; stroke: #eb6ab0"/>
     <use xlink:href="#mded0dab4fb" x="453.133784" y="294.947061" style="fill: #eb6ab0; stroke: #eb6ab0"/>
     <use xlink:href="#mded0dab4fb" x="457.474324" y="294.947061" style="fill: #eb6ab0; stroke: #eb6ab0"/>
     <use xlink:href="#mded0dab4fb" x="461.814865" y="294.947061" style="fill: #eb6ab0; stroke: #eb6ab0"/>
     <use xlink:href="#mded0dab4fb" x="466.155405" y="294.947061" style="fill: #eb6ab0; stroke: #eb6ab0"/>
     <use xlink:href="#mded0dab4fb" x="470.495946" y="294.947061" style="fill: #eb6ab0; stroke: #eb6ab0"/>
     <use xlink:href="#mded0dab4fb" x="474.836486" y="294.947061" style="fill: #eb6ab0; stroke: #eb6ab0"/>
     <use xlink:href="#mded0dab4fb" x="479.177027" y="294.947061" style="fill: #eb6ab0; stroke: #eb6ab0"/>
     <use xlink:href="#mded0dab4fb" x="483.517568" y="294.947061" style="fill: #eb6ab0; stroke: #eb6ab0"/>
     <use xlink:href="#mded0dab4fb" x="487.858108" y="294.947061" style="fill: #eb6ab0; stroke: #eb6ab0"/>
     <use xlink:href="#mded0dab4fb" x="522.582432" y="294.947061" style="fill: #eb6ab0; stroke: #eb6ab0"/>
     <use xlink:href="#mded0dab4fb" x="526.922973" y="294.947061" style="fill: #eb6ab0; stroke: #eb6ab0"/>
     <use xlink:href="#mded0dab4fb" x="531.263514" y="294.947061" style="fill: #eb6ab0; stroke: #eb6ab0"/>
     <use xlink:href="#mded0dab4fb" x="539.944595" y="294.947061" style="fill: #eb6ab0; stroke: #eb6ab0"/>
     <use xlink:href="#mded0dab4fb" x="544.285135" y="294.947061" style="fill: #eb6ab0; stroke: #eb6ab0"/>
    </g>
   </g>
   <g id="PolyCollection_3">
    <defs>
     <path id="m06c3d86355" d="M 101.55 -157.83137 
L 101.55 -128.684166 
L 105.890541 -126.907691 
L 110.231081 -134.489055 
L 114.571622 -143.754157 
L 118.912162 -157.354258 
L 123.252703 -172.079764 
L 127.593243 -165.142618 
L 131.933784 -165.184445 
L 136.274324 -162.971083 
L 140.614865 -179.311944 
L 144.955405 -188.985509 
L 149.295946 -169.928312 
L 153.636486 -177.399484 
L 157.977027 -182.631287 
L 162.317568 -167.779264 
L 166.658108 -164.578378 
L 170.998649 -158.317027 
L 175.339189 -149.172889 
L 179.67973 -138.140188 
L 184.02027 -139.67428 
L 188.360811 -153.165689 
L 192.701351 -145.951088 
L 197.041892 -145.85853 
L 201.382432 -158.919852 
L 205.722973 -153.040208 
L 210.063514 -156.913803 
L 214.404054 -159.312275 
L 218.744595 -158.804257 
L 223.085135 -166.185589 
L 227.425676 -163.833607 
L 231.766216 -163.203366 
L 236.106757 -159.78399 
L 240.447297 -165.934297 
L 244.787838 -165.008325 
L 249.128378 -163.799396 
L 253.468919 -169.13997 
L 257.809459 -178.148164 
L 262.15 -176.526464 
L 266.490541 -174.438139 
L 270.831081 -177.844142 
L 275.171622 -175.562229 
L 279.512162 -178.352541 
L 283.852703 -176.980786 
L 288.193243 -179.146288 
L 292.533784 -177.264482 
L 296.874324 -180.827847 
L 301.214865 -182.920097 
L 305.555405 -188.341698 
L 309.895946 -188.275143 
L 314.236486 -193.799599 
L 318.577027 -204.638791 
L 322.917568 -203.735467 
L 327.258108 -204.669621 
L 331.598649 -204.17753 
L 335.939189 -207.73872 
L 340.27973 -212.02515 
L 344.62027 -214.488516 
L 348.960811 -214.851424 
L 353.301351 -217.135168 
L 357.641892 -222.600397 
L 361.982432 -227.345025 
L 366.322973 -231.110879 
L 370.663514 -229.879951 
L 375.004054 -231.961878 
L 379.344595 -231.987164 
L 383.685135 -238.304797 
L 388.025676 -242.925657 
L 392.366216 -244.305556 
L 396.706757 -249.67119 
L 401.047297 -246.197205 
L 405.387838 -247.663919 
L 409.728378 -248.882096 
L 414.068919 -253.76138 
L 418.409459 -254.666734 
L 422.75 -259.569383 
L 427.090541 -260.36067 
L 431.431081 -261.871814 
L 435.771622 -261.645305 
L 440.112162 -263.169928 
L 444.452703 -258.34632 
L 448.793243 -262.306944 
L 453.133784 -265.861205 
L 457.474324 -267.479739 
L 461.814865 -273.232995 
L 466.155405 -272.37199 
L 470.495946 -274.766615 
L 474.836486 -268.436188 
L 479.177027 -273.628927 
L 483.517568 -268.365539 
L 487.858108 -264.775137 
L 492.198649 -266.551205 
L 496.539189 -266.312867 
L 500.87973 -263.972952 
L 505.22027 -265.34931 
L 509.560811 -267.353575 
L 513.901351 -263.82344 
L 518.241892 -264.145642 
L 522.582432 -265.982008 
L 526.922973 -267.534525 
L 531.263514 -267.745329 
L 535.604054 -262.659628 
L 539.944595 -264.473202 
L 544.285135 -270.690763 
L 548.625676 -267.258687 
L 552.966216 -262.54272 
L 557.306757 -253.955364 
L 561.647297 -258.572876 
L 565.987838 -252.654781 
L 570.328378 -253.335197 
L 574.668919 -257.855255 
L 579.009459 -252.256348 
L 583.35 -249.417162 
L 583.35 -284.670495 
L 583.35 -284.670495 
L 579.009459 -286.833996 
L 574.668919 -292.49995 
L 570.328378 -287.674089 
L 565.987838 -287.874036 
L 561.647297 -293.621072 
L 557.306757 -288.986632 
L 552.966216 -297.362564 
L 548.625676 -301.321422 
L 544.285135 -304.314958 
L 539.944595 -298.065376 
L 535.604054 -296.284643 
L 531.263514 -301.22521 
L 526.922973 -300.680987 
L 522.582432 -299.516803 
L 518.241892 -297.735087 
L 513.901351 -297.269443 
L 509.560811 -300.529949 
L 505.22027 -297.931906 
L 500.87973 -296.280955 
L 496.539189 -298.144928 
L 492.198649 -298.196943 
L 487.858108 -295.831639 
L 483.517568 -298.588904 
L 479.177027 -303.553203 
L 474.836486 -298.297118 
L 470.495946 -304.708827 
L 466.155405 -301.806262 
L 461.814865 -302.761444 
L 457.474324 -297.216973 
L 453.133784 -295.221108 
L 448.793243 -290.811474 
L 444.452703 -286.700622 
L 440.112162 -291.726956 
L 435.771622 -290.231242 
L 431.431081 -289.92491 
L 427.090541 -287.769456 
L 422.75 -286.413039 
L 418.409459 -281.635327 
L 414.068919 -280.643223 
L 409.728378 -274.809307 
L 405.387838 -272.936147 
L 401.047297 -270.639965 
L 396.706757 -273.357335 
L 392.366216 -267.413956 
L 388.025676 -265.538319 
L 383.685135 -260.591251 
L 379.344595 -254.511376 
L 375.004054 -254.02584 
L 370.663514 -250.898154 
L 366.322973 -250.797235 
L 361.982432 -246.4951 
L 357.641892 -241.764259 
L 353.301351 -236.155629 
L 348.960811 -233.881655 
L 344.62027 -233.413821 
L 340.27973 -229.968732 
L 335.939189 -226.515041 
L 331.598649 -223.036344 
L 327.258108 -222.583772 
L 322.917568 -221.311027 
L 318.577027 -221.558599 
L 314.236486 -211.047715 
L 309.895946 -206.508218 
L 305.555405 -205.213343 
L 301.214865 -200.096761 
L 296.874324 -197.041332 
L 292.533784 -192.615437 
L 288.193243 -195.099067 
L 283.852703 -194.38352 
L 279.512162 -194.885159 
L 275.171622 -193.06775 
L 270.831081 -195.1349 
L 266.490541 -191.394534 
L 262.15 -193.081317 
L 257.809459 -195.761792 
L 253.468919 -186.388806 
L 249.128378 -181.097304 
L 244.787838 -182.156876 
L 240.447297 -183.912695 
L 236.106757 -178.482805 
L 231.766216 -181.971981 
L 227.425676 -183.196087 
L 223.085135 -185.229284 
L 218.744595 -177.653467 
L 214.404054 -178.660897 
L 210.063514 -176.414579 
L 205.722973 -172.361143 
L 201.382432 -178.235806 
L 197.041892 -167.062705 
L 192.701351 -168.807884 
L 188.360811 -177.074865 
L 184.02027 -164.496134 
L 179.67973 -163.923285 
L 175.339189 -175.629986 
L 170.998649 -184.429809 
L 166.658108 -193.481286 
L 162.317568 -197.967664 
L 157.977027 -216.484305 
L 153.636486 -211.486044 
L 149.295946 -206.179168 
L 144.955405 -226.03314 
L 140.614865 -216.961861 
L 136.274324 -199.908848 
L 131.933784 -204.361497 
L 127.593243 -207.469861 
L 123.252703 -214.145978 
L 118.912162 -200.686786 
L 114.571622 -190.980354 
L 110.231081 -181.798194 
L 105.890541 -162.541612 
L 101.55 -157.83137 
z
" style="stroke: #8b0a50; stroke-opacity: 0.1"/>
    </defs>
    <g clip-path="url(#p526cec10f8)">
     <use xlink:href="#m06c3d86355" x="0" y="432" style="fill: #8b0a50; fill-opacity: 0.1; stroke: #8b0a50; stroke-opacity: 0.1"/>
    </g>
   </g>
   <g id="PolyCollection_4">
    <defs>
     <path id="mef2b8a5b98" d="M 101.55 -154.198024 
L 101.55 -150.248127 
L 105.890541 -154.464619 
L 110.231081 -161.099538 
L 114.571622 -164.122617 
L 118.912162 -168.412914 
L 123.252703 -174.017124 
L 127.593243 -179.364583 
L 131.933784 -184.43705 
L 136.274324 -192.335521 
L 140.614865 -198.881249 
L 144.955405 -205.12495 
L 149.295946 -208.516823 
L 153.636486 -211.667247 
L 157.977027 -212.071995 
L 162.317568 -208.065599 
L 166.658108 -206.024403 
L 170.998649 -203.894643 
L 175.339189 -199.10009 
L 179.67973 -195.743271 
L 184.02027 -192.840443 
L 188.360811 -190.930884 
L 192.701351 -187.058179 
L 197.041892 -184.438543 
L 201.382432 -180.99713 
L 205.722973 -179.003079 
L 210.063514 -178.603366 
L 214.404054 -178.613343 
L 218.744595 -177.430197 
L 223.085135 -175.545899 
L 227.425676 -173.65006 
L 231.766216 -172.94348 
L 236.106757 -173.010687 
L 240.447297 -172.55485 
L 244.787838 -171.337171 
L 249.128378 -170.573387 
L 253.468919 -169.618892 
L 257.809459 -168.801584 
L 262.15 -168.014513 
L 266.490541 -168.653699 
L 270.831081 -168.702455 
L 275.171622 -168.2773 
L 279.512162 -168.140966 
L 283.852703 -167.802431 
L 288.193243 -167.970416 
L 292.533784 -167.69329 
L 296.874324 -167.035159 
L 301.214865 -167.162033 
L 305.555405 -167.222352 
L 309.895946 -167.534511 
L 314.236486 -167.642748 
L 318.577027 -167.463381 
L 322.917568 -167.825974 
L 327.258108 -167.861191 
L 331.598649 -168.281732 
L 335.939189 -168.138233 
L 340.27973 -168.054005 
L 344.62027 -167.3982 
L 348.960811 -166.972997 
L 353.301351 -166.877625 
L 357.641892 -166.608352 
L 361.982432 -166.604744 
L 366.322973 -166.650463 
L 370.663514 -166.737702 
L 375.004054 -167.255306 
L 379.344595 -167.106949 
L 383.685135 -166.301131 
L 388.025676 -166.103359 
L 392.366216 -165.680102 
L 396.706757 -165.915354 
L 401.047297 -165.634406 
L 405.387838 -164.744377 
L 409.728378 -164.105542 
L 414.068919 -163.389028 
L 418.409459 -162.89296 
L 422.75 -163.065843 
L 427.090541 -162.749822 
L 431.431081 -162.582982 
L 435.771622 -162.687215 
L 440.112162 -162.970716 
L 444.452703 -162.341714 
L 448.793243 -162.453077 
L 453.133784 -162.528035 
L 457.474324 -162.236626 
L 461.814865 -161.671122 
L 466.155405 -160.259093 
L 470.495946 -159.221795 
L 474.836486 -158.254309 
L 479.177027 -157.333643 
L 483.517568 -156.769025 
L 487.858108 -156.742467 
L 492.198649 -156.795282 
L 496.539189 -155.841358 
L 500.87973 -155.578542 
L 505.22027 -155.949256 
L 509.560811 -156.504046 
L 513.901351 -156.790007 
L 518.241892 -156.401821 
L 522.582432 -155.22384 
L 526.922973 -155.531656 
L 531.263514 -155.815021 
L 535.604054 -156.003281 
L 539.944595 -155.51311 
L 544.285135 -154.873539 
L 548.625676 -155.947903 
L 552.966216 -155.185029 
L 557.306757 -155.54522 
L 561.647297 -154.326338 
L 565.987838 -154.908437 
L 570.328378 -154.530445 
L 574.668919 -155.027117 
L 579.009459 -154.863906 
L 583.35 -155.814334 
L 583.35 -158.30031 
L 583.35 -158.30031 
L 579.009459 -157.430688 
L 574.668919 -157.606828 
L 570.328378 -157.049884 
L 565.987838 -157.427118 
L 561.647297 -157.004513 
L 557.306757 -158.176698 
L 552.966216 -157.657747 
L 548.625676 -158.429813 
L 544.285135 -157.388955 
L 539.944595 -157.911538 
L 535.604054 -158.393868 
L 531.263514 -158.174685 
L 526.922973 -157.899259 
L 522.582432 -157.64016 
L 518.241892 -158.78528 
L 513.901351 -159.110559 
L 509.560811 -158.783488 
L 505.22027 -158.246727 
L 500.87973 -157.805307 
L 496.539189 -158.134352 
L 492.198649 -159.168432 
L 487.858108 -159.059385 
L 483.517568 -159.11989 
L 479.177027 -159.705057 
L 474.836486 -160.6413 
L 470.495946 -161.723194 
L 466.155405 -162.7616 
L 461.814865 -164.289325 
L 457.474324 -164.873341 
L 453.133784 -165.246579 
L 448.793243 -165.237198 
L 444.452703 -165.10162 
L 440.112162 -165.789805 
L 435.771622 -165.555876 
L 431.431081 -165.346933 
L 427.090541 -165.591273 
L 422.75 -165.881105 
L 418.409459 -165.696727 
L 414.068919 -166.16547 
L 409.728378 -166.813123 
L 405.387838 -167.54791 
L 401.047297 -168.452677 
L 396.706757 -168.743819 
L 392.366216 -168.477877 
L 388.025676 -168.923792 
L 383.685135 -169.108448 
L 379.344595 -170.142224 
L 375.004054 -170.370489 
L 370.663514 -169.879779 
L 366.322973 -169.770951 
L 361.982432 -169.766695 
L 357.641892 -169.688658 
L 353.301351 -169.969785 
L 348.960811 -170.136291 
L 344.62027 -170.509234 
L 340.27973 -171.163006 
L 335.939189 -171.155635 
L 331.598649 -171.284331 
L 327.258108 -170.802277 
L 322.917568 -170.681022 
L 318.577027 -170.304963 
L 314.236486 -170.396788 
L 309.895946 -170.301538 
L 305.555405 -170.03093 
L 301.214865 -169.981463 
L 296.874324 -169.836906 
L 292.533784 -170.46033 
L 288.193243 -170.745641 
L 283.852703 -170.452541 
L 279.512162 -170.805957 
L 275.171622 -170.956818 
L 270.831081 -171.380824 
L 266.490541 -171.266457 
L 262.15 -170.628078 
L 257.809459 -171.477867 
L 253.468919 -172.391018 
L 249.128378 -173.274977 
L 244.787838 -174.040042 
L 240.447297 -175.269335 
L 236.106757 -175.804547 
L 231.766216 -175.795255 
L 227.425676 -176.551854 
L 223.085135 -178.62424 
L 218.744595 -180.529723 
L 214.404054 -181.839859 
L 210.063514 -181.817163 
L 205.722973 -182.298171 
L 201.382432 -184.425234 
L 197.041892 -188.162608 
L 192.701351 -190.930529 
L 188.360811 -195.179902 
L 184.02027 -197.254087 
L 179.67973 -200.47441 
L 175.339189 -204.070928 
L 170.998649 -209.240532 
L 166.658108 -211.675169 
L 162.317568 -214.100655 
L 157.977027 -218.489979 
L 153.636486 -218.357673 
L 149.295946 -215.004558 
L 144.955405 -212.185582 
L 140.614865 -205.992545 
L 136.274324 -198.983395 
L 131.933784 -190.544691 
L 127.593243 -185.419122 
L 123.252703 -180.141045 
L 118.912162 -175.029414 
L 114.571622 -170.575739 
L 110.231081 -167.422219 
L 105.890541 -159.907604 
L 101.55 -154.198024 
z
" style="stroke: #8b0a50; stroke-opacity: 0.1"/>
    </defs>
    <g clip-path="url(#p526cec10f8)">
     <use xlink:href="#mef2b8a5b98" x="0" y="432" style="fill: #8b0a50; fill-opacity: 0.1; stroke: #8b0a50; stroke-opacity: 0.1"/>
    </g>
   </g>
   <g id="PathCollection_2">
    <defs>
     <path id="m70280aa291" d="M -2.5 2.5 
L 2.5 2.5 
L 2.5 -2.5 
L -2.5 -2.5 
z
" style="stroke: #8b0a50"/>
    </defs>
    <g clip-path="url(#p526cec10f8)">
     <use xlink:href="#m70280aa291" x="305.555405" y="307.069972" style="fill: #8b0a50; stroke: #8b0a50"/>
     <use xlink:href="#m70280aa291" x="314.236486" y="307.069972" style="fill: #8b0a50; stroke: #8b0a50"/>
     <use xlink:href="#m70280aa291" x="318.577027" y="307.069972" style="fill: #8b0a50; stroke: #8b0a50"/>
     <use xlink:href="#m70280aa291" x="322.917568" y="307.069972" style="fill: #8b0a50; stroke: #8b0a50"/>
     <use xlink:href="#m70280aa291" x="327.258108" y="307.069972" style="fill: #8b0a50; stroke: #8b0a50"/>
     <use xlink:href="#m70280aa291" x="331.598649" y="307.069972" style="fill: #8b0a50; stroke: #8b0a50"/>
     <use xlink:href="#m70280aa291" x="335.939189" y="307.069972" style="fill: #8b0a50; stroke: #8b0a50"/>
     <use xlink:href="#m70280aa291" x="340.27973" y="307.069972" style="fill: #8b0a50; stroke: #8b0a50"/>
     <use xlink:href="#m70280aa291" x="344.62027" y="307.069972" style="fill: #8b0a50; stroke: #8b0a50"/>
     <use xlink:href="#m70280aa291" x="348.960811" y="307.069972" style="fill: #8b0a50; stroke: #8b0a50"/>
     <use xlink:href="#m70280aa291" x="353.301351" y="307.069972" style="fill: #8b0a50; stroke: #8b0a50"/>
     <use xlink:href="#m70280aa291" x="357.641892" y="307.069972" style="fill: #8b0a50; stroke: #8b0a50"/>
     <use xlink:href="#m70280aa291" x="361.982432" y="307.069972" style="fill: #8b0a50; stroke: #8b0a50"/>
     <use xlink:href="#m70280aa291" x="366.322973" y="307.069972" style="fill: #8b0a50; stroke: #8b0a50"/>
     <use xlink:href="#m70280aa291" x="370.663514" y="307.069972" style="fill: #8b0a50; stroke: #8b0a50"/>
     <use xlink:href="#m70280aa291" x="375.004054" y="307.069972" style="fill: #8b0a50; stroke: #8b0a50"/>
     <use xlink:href="#m70280aa291" x="379.344595" y="307.069972" style="fill: #8b0a50; stroke: #8b0a50"/>
     <use xlink:href="#m70280aa291" x="383.685135" y="307.069972" style="fill: #8b0a50; stroke: #8b0a50"/>
     <use xlink:href="#m70280aa291" x="388.025676" y="307.069972" style="fill: #8b0a50; stroke: #8b0a50"/>
     <use xlink:href="#m70280aa291" x="392.366216" y="307.069972" style="fill: #8b0a50; stroke: #8b0a50"/>
     <use xlink:href="#m70280aa291" x="396.706757" y="307.069972" style="fill: #8b0a50; stroke: #8b0a50"/>
     <use xlink:href="#m70280aa291" x="401.047297" y="307.069972" style="fill: #8b0a50; stroke: #8b0a50"/>
     <use xlink:href="#m70280aa291" x="405.387838" y="307.069972" style="fill: #8b0a50; stroke: #8b0a50"/>
     <use xlink:href="#m70280aa291" x="409.728378" y="307.069972" style="fill: #8b0a50; stroke: #8b0a50"/>
     <use xlink:href="#m70280aa291" x="414.068919" y="307.069972" style="fill: #8b0a50; stroke: #8b0a50"/>
     <use xlink:href="#m70280aa291" x="418.409459" y="307.069972" style="fill: #8b0a50; stroke: #8b0a50"/>
     <use xlink:href="#m70280aa291" x="422.75" y="307.069972" style="fill: #8b0a50; stroke: #8b0a50"/>
     <use xlink:href="#m70280aa291" x="427.090541" y="307.069972" style="fill: #8b0a50; stroke: #8b0a50"/>
     <use xlink:href="#m70280aa291" x="431.431081" y="307.069972" style="fill: #8b0a50; stroke: #8b0a50"/>
     <use xlink:href="#m70280aa291" x="435.771622" y="307.069972" style="fill: #8b0a50; stroke: #8b0a50"/>
     <use xlink:href="#m70280aa291" x="440.112162" y="307.069972" style="fill: #8b0a50; stroke: #8b0a50"/>
     <use xlink:href="#m70280aa291" x="444.452703" y="307.069972" style="fill: #8b0a50; stroke: #8b0a50"/>
     <use xlink:href="#m70280aa291" x="448.793243" y="307.069972" style="fill: #8b0a50; stroke: #8b0a50"/>
     <use xlink:href="#m70280aa291" x="453.133784" y="307.069972" style="fill: #8b0a50; stroke: #8b0a50"/>
     <use xlink:href="#m70280aa291" x="457.474324" y="307.069972" style="fill: #8b0a50; stroke: #8b0a50"/>
     <use xlink:href="#m70280aa291" x="461.814865" y="307.069972" style="fill: #8b0a50; stroke: #8b0a50"/>
     <use xlink:href="#m70280aa291" x="466.155405" y="307.069972" style="fill: #8b0a50; stroke: #8b0a50"/>
     <use xlink:href="#m70280aa291" x="470.495946" y="307.069972" style="fill: #8b0a50; stroke: #8b0a50"/>
     <use xlink:href="#m70280aa291" x="474.836486" y="307.069972" style="fill: #8b0a50; stroke: #8b0a50"/>
     <use xlink:href="#m70280aa291" x="479.177027" y="307.069972" style="fill: #8b0a50; stroke: #8b0a50"/>
     <use xlink:href="#m70280aa291" x="483.517568" y="307.069972" style="fill: #8b0a50; stroke: #8b0a50"/>
     <use xlink:href="#m70280aa291" x="487.858108" y="307.069972" style="fill: #8b0a50; stroke: #8b0a50"/>
     <use xlink:href="#m70280aa291" x="492.198649" y="307.069972" style="fill: #8b0a50; stroke: #8b0a50"/>
     <use xlink:href="#m70280aa291" x="496.539189" y="307.069972" style="fill: #8b0a50; stroke: #8b0a50"/>
     <use xlink:href="#m70280aa291" x="500.87973" y="307.069972" style="fill: #8b0a50; stroke: #8b0a50"/>
     <use xlink:href="#m70280aa291" x="505.22027" y="307.069972" style="fill: #8b0a50; stroke: #8b0a50"/>
     <use xlink:href="#m70280aa291" x="509.560811" y="307.069972" style="fill: #8b0a50; stroke: #8b0a50"/>
     <use xlink:href="#m70280aa291" x="513.901351" y="307.069972" style="fill: #8b0a50; stroke: #8b0a50"/>
     <use xlink:href="#m70280aa291" x="518.241892" y="307.069972" style="fill: #8b0a50; stroke: #8b0a50"/>
     <use xlink:href="#m70280aa291" x="522.582432" y="307.069972" style="fill: #8b0a50; stroke: #8b0a50"/>
     <use xlink:href="#m70280aa291" x="526.922973" y="307.069972" style="fill: #8b0a50; stroke: #8b0a50"/>
     <use xlink:href="#m70280aa291" x="531.263514" y="307.069972" style="fill: #8b0a50; stroke: #8b0a50"/>
     <use xlink:href="#m70280aa291" x="535.604054" y="307.069972" style="fill: #8b0a50; stroke: #8b0a50"/>
     <use xlink:href="#m70280aa291" x="539.944595" y="307.069972" style="fill: #8b0a50; stroke: #8b0a50"/>
     <use xlink:href="#m70280aa291" x="544.285135" y="307.069972" style="fill: #8b0a50; stroke: #8b0a50"/>
     <use xlink:href="#m70280aa291" x="548.625676" y="307.069972" style="fill: #8b0a50; stroke: #8b0a50"/>
     <use xlink:href="#m70280aa291" x="552.966216" y="307.069972" style="fill: #8b0a50; stroke: #8b0a50"/>
     <use xlink:href="#m70280aa291" x="557.306757" y="307.069972" style="fill: #8b0a50; stroke: #8b0a50"/>
     <use xlink:href="#m70280aa291" x="561.647297" y="307.069972" style="fill: #8b0a50; stroke: #8b0a50"/>
     <use xlink:href="#m70280aa291" x="565.987838" y="307.069972" style="fill: #8b0a50; stroke: #8b0a50"/>
     <use xlink:href="#m70280aa291" x="570.328378" y="307.069972" style="fill: #8b0a50; stroke: #8b0a50"/>
     <use xlink:href="#m70280aa291" x="574.668919" y="307.069972" style="fill: #8b0a50; stroke: #8b0a50"/>
     <use xlink:href="#m70280aa291" x="579.009459" y="307.069972" style="fill: #8b0a50; stroke: #8b0a50"/>
     <use xlink:href="#m70280aa291" x="583.35" y="307.069972" style="fill: #8b0a50; stroke: #8b0a50"/>
    </g>
   </g>
   <g id="line2d_12">
    <path d="M 101.55 290.870597 
L 105.890541 287.573383 
L 110.231081 277.551706 
L 114.571622 298.129995 
L 118.912162 291.335095 
L 123.252703 285.091096 
L 127.593243 272.900242 
L 131.933784 274.749555 
L 136.274324 282.307718 
L 140.614865 277.365431 
L 144.955405 265.535205 
L 149.295946 254.178397 
L 153.636486 268.570513 
L 157.977027 314.22852 
L 162.317568 318.675727 
L 166.658108 295.026029 
L 170.998649 314.056276 
L 175.339189 335.949253 
L 179.67973 300.941443 
L 184.02027 300.390602 
L 188.360811 324.356129 
L 192.701351 348.833617 
L 197.041892 306.174989 
L 201.382432 315.073057 
L 205.722973 338.962107 
L 210.063514 350.098442 
L 214.404054 302.325602 
L 218.744595 233.518367 
L 223.085135 166.861436 
L 227.425676 149.828999 
L 231.766216 147.539291 
L 236.106757 195.006007 
L 240.447297 219.344821 
L 244.787838 226.542855 
L 249.128378 181.748471 
L 253.468919 153.19028 
L 257.809459 146.048172 
L 262.15 147.572322 
L 266.490541 178.922891 
L 270.831081 194.690175 
L 275.171622 199.010332 
L 279.512162 177.933008 
L 283.852703 225.451718 
L 288.193243 257.713956 
L 292.533784 261.074124 
L 296.874324 236.040195 
L 301.214865 211.962241 
L 305.555405 210.243721 
L 309.895946 200.18808 
L 314.236486 172.237972 
L 318.577027 131.667703 
L 322.917568 106.252467 
L 327.258108 108.859444 
L 331.598649 116.958518 
L 335.939189 132.517828 
L 340.27973 103.134398 
L 344.62027 145.962078 
L 348.960811 171.08705 
L 353.301351 155.550042 
L 357.641892 143.947565 
L 361.982432 131.65 
L 366.322973 154.348614 
L 370.663514 114.337696 
L 375.004054 64.61036 
L 379.344595 110.748294 
L 383.685135 155.02334 
L 388.025676 179.563946 
L 392.366216 198.893717 
L 396.706757 186.49023 
L 401.047297 140.938877 
L 405.387838 70.609716 
L 409.728378 74.37166 
L 414.068919 66.915119 
L 418.409459 71.932275 
L 422.75 59.227942 
L 427.090541 67.698701 
L 431.431081 126.695906 
L 435.771622 160.630616 
L 440.112162 213.682913 
L 444.452703 207.59955 
L 448.793243 183.745659 
L 453.133784 126.48001 
L 457.474324 77.367897 
L 461.814865 78.584736 
L 466.155405 130.608106 
L 470.495946 193.302568 
L 474.836486 210.668063 
L 479.177027 221.088855 
L 483.517568 243.058713 
L 487.858108 249.393444 
L 492.198649 256.543613 
L 496.539189 258.400932 
L 500.87973 262.719519 
L 505.22027 259.469302 
L 509.560811 267.209226 
L 513.901351 259.981001 
L 518.241892 253.536649 
L 522.582432 238.425434 
L 526.922973 246.525069 
L 531.263514 242.106935 
L 535.604054 260.692113 
L 539.944595 250.844942 
L 544.285135 246.95767 
L 548.625676 258.419768 
L 552.966216 257.395246 
L 557.306757 274.681364 
L 561.647297 276.327899 
L 565.987838 265.166839 
L 570.328378 270.048644 
L 574.668919 268.70538 
L 579.009459 275.870087 
L 583.35 265.793894 
" clip-path="url(#p526cec10f8)" style="fill: none; stroke: #eb6ab0; stroke-width: 2; stroke-linecap: round"/>
   </g>
   <g id="line2d_13">
    <path d="M 101.55 282.86831 
L 105.890541 281.410532 
L 110.231081 283.471179 
L 114.571622 282.96176 
L 118.912162 283.17519 
L 123.252703 281.785416 
L 127.593243 282.567397 
L 131.933784 281.826821 
L 136.274324 283.960623 
L 140.614865 283.414923 
L 144.955405 278.773058 
L 149.295946 277.989162 
L 153.636486 278.986584 
L 157.977027 283.05309 
L 162.317568 281.202554 
L 166.658108 276.589253 
L 170.998649 272.568754 
L 175.339189 274.940402 
L 179.67973 280.363078 
L 184.02027 282.91128 
L 188.360811 284.29377 
L 192.701351 273.988757 
L 197.041892 268.434365 
L 201.382432 264.030625 
L 205.722973 261.486096 
L 210.063514 260.918543 
L 214.404054 266.748706 
L 218.744595 270.898303 
L 223.085135 271.961384 
L 227.425676 268.676852 
L 231.766216 260.817093 
L 236.106757 263.525092 
L 240.447297 273.688593 
L 244.787838 276.407364 
L 249.128378 274.42451 
L 253.468919 276.796509 
L 257.809459 278.754139 
L 262.15 273.57026 
L 266.490541 269.412904 
L 270.831081 271.24336 
L 275.171622 270.374527 
L 279.512162 271.714716 
L 283.852703 266.481348 
L 288.193243 267.805835 
L 292.533784 268.091401 
L 296.874324 266.916024 
L 301.214865 270.269055 
L 305.555405 279.952533 
L 309.895946 280.028051 
L 314.236486 281.283115 
L 318.577027 284.046543 
L 322.917568 282.941752 
L 327.258108 273.136232 
L 331.598649 262.120477 
L 335.939189 262.884598 
L 340.27973 277.666835 
L 344.62027 281.740331 
L 348.960811 281.172176 
L 353.301351 279.060575 
L 357.641892 281.907191 
L 361.982432 292.105055 
L 366.322973 296.328141 
L 370.663514 294.84496 
L 375.004054 291.994704 
L 379.344595 289.394661 
L 383.685135 279.267569 
L 388.025676 268.128958 
L 392.366216 261.68334 
L 396.706757 265.039304 
L 401.047297 264.523169 
L 405.387838 259.400822 
L 409.728378 263.324721 
L 414.068919 270.335005 
L 418.409459 279.343746 
L 422.75 279.270743 
L 427.090541 280.30793 
L 431.431081 272.752599 
L 435.771622 271.537494 
L 440.112162 271.735634 
L 444.452703 279.928426 
L 448.793243 279.72393 
L 453.133784 279.597516 
L 457.474324 279.901962 
L 461.814865 282.812824 
L 466.155405 280.400377 
L 470.495946 282.352137 
L 474.836486 278.496308 
L 479.177027 280.064264 
L 483.517568 279.37549 
L 487.858108 280.870114 
L 492.198649 280.515719 
L 496.539189 279.81435 
L 500.87973 281.484724 
L 505.22027 278.338991 
L 509.560811 278.452477 
L 513.901351 279.63429 
L 518.241892 279.502564 
L 522.582432 279.983904 
L 526.922973 279.956414 
L 531.263514 279.744079 
L 535.604054 282.277067 
L 539.944595 280.746756 
L 544.285135 280.851951 
L 548.625676 281.273963 
L 552.966216 282.565507 
L 557.306757 281.961895 
L 561.647297 280.269926 
L 565.987838 280.570598 
L 570.328378 280.70018 
L 574.668919 282.999952 
L 579.009459 282.593787 
L 583.35 282.701323 
" clip-path="url(#p526cec10f8)" style="fill: none; stroke-dasharray: 7.4,3.2; stroke-dashoffset: 0; stroke: #eb6ab0; stroke-width: 2"/>
   </g>
   <g id="line2d_14">
    <path d="M 144.955405 378.54 
L 144.955405 26.96 
" clip-path="url(#p526cec10f8)" style="fill: none; stroke-dasharray: 5.55,2.4; stroke-dashoffset: 0; stroke: #1a1a1a; stroke-width: 1.5"/>
   </g>
   <g id="line2d_15">
    <path d="M 470.495946 378.54 
L 470.495946 26.96 
" clip-path="url(#p526cec10f8)" style="fill: none; stroke-dasharray: 5.55,2.4; stroke-dashoffset: 0; stroke: #1a1a1a; stroke-width: 1.5"/>
   </g>
   <g id="line2d_16">
    <path d="M 101.55 288.742232 
L 105.890541 287.275348 
L 110.231081 273.856375 
L 114.571622 264.632745 
L 118.912162 252.979478 
L 123.252703 238.887129 
L 127.593243 245.693761 
L 131.933784 247.227029 
L 136.274324 250.560035 
L 140.614865 233.863098 
L 144.955405 224.490675 
L 149.295946 243.94626 
L 153.636486 237.557236 
L 157.977027 232.442204 
L 162.317568 249.126536 
L 166.658108 252.970168 
L 170.998649 260.626582 
L 175.339189 269.598563 
L 179.67973 280.968264 
L 184.02027 279.914793 
L 188.360811 266.879723 
L 192.701351 274.620514 
L 197.041892 275.539382 
L 201.382432 263.422171 
L 205.722973 269.299325 
L 210.063514 265.335809 
L 214.404054 263.013414 
L 218.744595 263.771138 
L 223.085135 256.292564 
L 227.425676 258.485153 
L 231.766216 259.412327 
L 236.106757 262.866603 
L 240.447297 257.076504 
L 244.787838 258.417399 
L 249.128378 259.55165 
L 253.468919 254.235612 
L 257.809459 245.045022 
L 262.15 247.19611 
L 266.490541 249.083664 
L 270.831081 245.510479 
L 275.171622 247.68501 
L 279.512162 245.38115 
L 283.852703 246.317847 
L 288.193243 244.877322 
L 292.533784 247.06004 
L 296.874324 243.06541 
L 301.214865 240.491571 
L 305.555405 235.222479 
L 309.895946 234.60832 
L 314.236486 229.576343 
L 318.577027 218.901305 
L 322.917568 219.476753 
L 327.258108 218.373303 
L 331.598649 218.393063 
L 335.939189 214.87312 
L 340.27973 211.003059 
L 344.62027 208.048832 
L 348.960811 207.633461 
L 353.301351 205.354602 
L 357.641892 199.817672 
L 361.982432 195.079937 
L 366.322973 191.045943 
L 370.663514 191.610948 
L 375.004054 189.006141 
L 379.344595 188.75073 
L 383.685135 182.551976 
L 388.025676 177.768012 
L 392.366216 176.140244 
L 396.706757 170.485738 
L 401.047297 173.581415 
L 405.387838 171.699967 
L 409.728378 170.154299 
L 414.068919 164.797699 
L 418.409459 163.84897 
L 422.75 159.008789 
L 427.090541 157.934937 
L 431.431081 156.101638 
L 435.771622 156.061726 
L 440.112162 154.551558 
L 444.452703 159.476529 
L 448.793243 155.440791 
L 453.133784 151.458843 
L 457.474324 149.651644 
L 461.814865 144.002781 
L 466.155405 144.910874 
L 470.495946 142.262279 
L 474.836486 148.633347 
L 479.177027 143.408935 
L 483.517568 148.522779 
L 487.858108 151.696612 
L 492.198649 149.625926 
L 496.539189 149.771102 
L 500.87973 151.873046 
L 505.22027 150.359392 
L 509.560811 148.058238 
L 513.901351 151.453559 
L 518.241892 151.059635 
L 522.582432 149.250594 
L 526.922973 147.892244 
L 531.263514 147.51473 
L 535.604054 152.527864 
L 539.944595 150.730711 
L 544.285135 144.49714 
L 548.625676 147.709946 
L 552.966216 152.047358 
L 557.306757 160.529002 
L 561.647297 155.903026 
L 565.987838 161.735592 
L 570.328378 161.495357 
L 574.668919 156.822398 
L 579.009459 162.454828 
L 583.35 164.956171 
" clip-path="url(#p526cec10f8)" style="fill: none; stroke: #8b0a50; stroke-width: 2; stroke-linecap: round"/>
   </g>
   <g id="line2d_17">
    <path d="M 101.55 279.776924 
L 105.890541 274.813888 
L 110.231081 267.739121 
L 114.571622 264.650822 
L 118.912162 260.278836 
L 123.252703 254.920915 
L 127.593243 249.608148 
L 131.933784 244.50913 
L 136.274324 236.340542 
L 140.614865 229.563103 
L 144.955405 223.344734 
L 149.295946 220.23931 
L 153.636486 216.98754 
L 157.977027 216.719013 
L 162.317568 220.916873 
L 166.658108 223.150214 
L 170.998649 225.432412 
L 175.339189 230.414491 
L 179.67973 233.891159 
L 184.02027 236.952735 
L 188.360811 238.944607 
L 192.701351 243.005646 
L 197.041892 245.699424 
L 201.382432 249.288818 
L 205.722973 251.349375 
L 210.063514 251.789735 
L 214.404054 251.773399 
L 218.744595 253.02004 
L 223.085135 254.914931 
L 227.425676 256.899043 
L 231.766216 257.630633 
L 236.106757 257.592383 
L 240.447297 258.087907 
L 244.787838 259.311393 
L 249.128378 260.075818 
L 253.468919 260.995045 
L 257.809459 261.860274 
L 262.15 262.678705 
L 266.490541 262.039922 
L 270.831081 261.958361 
L 275.171622 262.382941 
L 279.512162 262.526538 
L 283.852703 262.872514 
L 288.193243 262.641971 
L 292.533784 262.92319 
L 296.874324 263.563967 
L 301.214865 263.428252 
L 305.555405 263.373359 
L 309.895946 263.081976 
L 314.236486 262.980232 
L 318.577027 263.115828 
L 322.917568 262.746502 
L 327.258108 262.668266 
L 331.598649 262.216968 
L 335.939189 262.353066 
L 340.27973 262.391495 
L 344.62027 263.046283 
L 348.960811 263.445356 
L 353.301351 263.576295 
L 357.641892 263.851495 
L 361.982432 263.81428 
L 366.322973 263.789293 
L 370.663514 263.691259 
L 375.004054 263.187103 
L 379.344595 263.375413 
L 383.685135 264.29521 
L 388.025676 264.486424 
L 392.366216 264.92101 
L 396.706757 264.670413 
L 401.047297 264.956458 
L 405.387838 265.853857 
L 409.728378 266.540667 
L 414.068919 267.222751 
L 418.409459 267.705157 
L 422.75 267.526526 
L 427.090541 267.829453 
L 431.431081 268.035042 
L 435.771622 267.878455 
L 440.112162 267.61974 
L 444.452703 268.278333 
L 448.793243 268.154863 
L 453.133784 268.112693 
L 457.474324 268.445017 
L 461.814865 269.019777 
L 466.155405 270.489653 
L 470.495946 271.527505 
L 474.836486 272.552195 
L 479.177027 273.48065 
L 483.517568 274.055543 
L 487.858108 274.099074 
L 492.198649 274.018143 
L 496.539189 275.012145 
L 500.87973 275.308075 
L 505.22027 274.902009 
L 509.560811 274.356233 
L 513.901351 274.049717 
L 518.241892 274.40645 
L 522.582432 275.568 
L 526.922973 275.284543 
L 531.263514 275.005147 
L 535.604054 274.801425 
L 539.944595 275.287676 
L 544.285135 275.868753 
L 548.625676 274.811142 
L 552.966216 275.578612 
L 557.306757 275.139041 
L 561.647297 276.334574 
L 565.987838 275.832223 
L 570.328378 276.209835 
L 574.668919 275.683027 
L 579.009459 275.852703 
L 583.35 274.942678 
" clip-path="url(#p526cec10f8)" style="fill: none; stroke-dasharray: 7.4,3.2; stroke-dashoffset: 0; stroke: #8b0a50; stroke-width: 2"/>
   </g>
   <g id="line2d_18">
    <path d="M 144.955405 378.54 
L 144.955405 26.96 
" clip-path="url(#p526cec10f8)" style="fill: none; stroke-dasharray: 5.55,2.4; stroke-dashoffset: 0; stroke: #1a1a1a; stroke-width: 1.5"/>
   </g>
   <g id="line2d_19">
    <path d="M 470.495946 378.54 
L 470.495946 26.96 
" clip-path="url(#p526cec10f8)" style="fill: none; stroke-dasharray: 5.55,2.4; stroke-dashoffset: 0; stroke: #1a1a1a; stroke-width: 1.5"/>
   </g>
   <g id="patch_3">
    <path d="M 77.46 378.54 
L 77.46 26.96 
" style="fill: none; stroke: #000000; stroke-width: 1.5; stroke-linejoin: miter; stroke-linecap: square"/>
   </g>
   <g id="patch_4">
    <path d="M 77.46 378.54 
L 607.44 378.54 
" style="fill: none; stroke: #000000; stroke-width: 1.5; stroke-linejoin: miter; stroke-linecap: square"/>
   </g>
   <g id="text_14">
    <!-- Divergence Comparison: Original vs Shuffled -->
    <g style="fill: #262626" transform="translate(192.9375 20.96) scale(0.15 -0.15)">
     <defs>
      <path id="ArialMT-43" d="M 3763 1606 
L 4369 1453 
Q 4178 706 3683 314 
Q 3188 -78 2472 -78 
Q 1731 -78 1267 223 
Q 803 525 561 1097 
Q 319 1669 319 2325 
Q 319 3041 592 3573 
Q 866 4106 1370 4382 
Q 1875 4659 2481 4659 
Q 3169 4659 3637 4309 
Q 4106 3959 4291 3325 
L 3694 3184 
Q 3534 3684 3231 3912 
Q 2928 4141 2469 4141 
Q 1941 4141 1586 3887 
Q 1231 3634 1087 3207 
Q 944 2781 944 2328 
Q 944 1744 1114 1308 
Q 1284 872 1643 656 
Q 2003 441 2422 441 
Q 2931 441 3284 734 
Q 3638 1028 3763 1606 
z
" transform="scale(0.015625)"/>
      <path id="ArialMT-6f" d="M 213 1659 
Q 213 2581 725 3025 
Q 1153 3394 1769 3394 
Q 2453 3394 2887 2945 
Q 3322 2497 3322 1706 
Q 3322 1066 3130 698 
Q 2938 331 2570 128 
Q 2203 -75 1769 -75 
Q 1072 -75 642 372 
Q 213 819 213 1659 
z
M 791 1659 
Q 791 1022 1069 705 
Q 1347 388 1769 388 
Q 2188 388 2466 706 
Q 2744 1025 2744 1678 
Q 2744 2294 2464 2611 
Q 2184 2928 1769 2928 
Q 1347 2928 1069 2612 
Q 791 2297 791 1659 
z
" transform="scale(0.015625)"/>
      <path id="ArialMT-70" d="M 422 -1272 
L 422 3319 
L 934 3319 
L 934 2888 
Q 1116 3141 1344 3267 
Q 1572 3394 1897 3394 
Q 2322 3394 2647 3175 
Q 2972 2956 3137 2557 
Q 3303 2159 3303 1684 
Q 3303 1175 3120 767 
Q 2938 359 2589 142 
Q 2241 -75 1856 -75 
Q 1575 -75 1351 44 
Q 1128 163 984 344 
L 984 -1272 
L 422 -1272 
z
M 931 1641 
Q 931 1000 1190 694 
Q 1450 388 1819 388 
Q 2194 388 2461 705 
Q 2728 1022 2728 1688 
Q 2728 2322 2467 2637 
Q 2206 2953 1844 2953 
Q 1484 2953 1207 2617 
Q 931 2281 931 1641 
z
" transform="scale(0.015625)"/>
      <path id="ArialMT-61" d="M 2588 409 
Q 2275 144 1986 34 
Q 1697 -75 1366 -75 
Q 819 -75 525 192 
Q 231 459 231 875 
Q 231 1119 342 1320 
Q 453 1522 633 1644 
Q 813 1766 1038 1828 
Q 1203 1872 1538 1913 
Q 2219 1994 2541 2106 
Q 2544 2222 2544 2253 
Q 2544 2597 2384 2738 
Q 2169 2928 1744 2928 
Q 1347 2928 1158 2789 
Q 969 2650 878 2297 
L 328 2372 
Q 403 2725 575 2942 
Q 747 3159 1072 3276 
Q 1397 3394 1825 3394 
Q 2250 3394 2515 3294 
Q 2781 3194 2906 3042 
Q 3031 2891 3081 2659 
Q 3109 2516 3109 2141 
L 3109 1391 
Q 3109 606 3145 398 
Q 3181 191 3288 0 
L 2700 0 
Q 2613 175 2588 409 
z
M 2541 1666 
Q 2234 1541 1622 1453 
Q 1275 1403 1131 1340 
Q 988 1278 909 1158 
Q 831 1038 831 891 
Q 831 666 1001 516 
Q 1172 366 1500 366 
Q 1825 366 2078 508 
Q 2331 650 2450 897 
Q 2541 1088 2541 1459 
L 2541 1666 
z
" transform="scale(0.015625)"/>
      <path id="ArialMT-3a" d="M 578 2678 
L 578 3319 
L 1219 3319 
L 1219 2678 
L 578 2678 
z
M 578 0 
L 578 641 
L 1219 641 
L 1219 0 
L 578 0 
z
" transform="scale(0.015625)"/>
      <path id="ArialMT-4f" d="M 309 2231 
Q 309 3372 921 4017 
Q 1534 4663 2503 4663 
Q 3138 4663 3647 4359 
Q 4156 4056 4423 3514 
Q 4691 2972 4691 2284 
Q 4691 1588 4409 1038 
Q 4128 488 3612 205 
Q 3097 -78 2500 -78 
Q 1853 -78 1343 234 
Q 834 547 571 1087 
Q 309 1628 309 2231 
z
M 934 2222 
Q 934 1394 1379 917 
Q 1825 441 2497 441 
Q 3181 441 3623 922 
Q 4066 1403 4066 2288 
Q 4066 2847 3877 3264 
Q 3688 3681 3323 3911 
Q 2959 4141 2506 4141 
Q 1863 4141 1398 3698 
Q 934 3256 934 2222 
z
" transform="scale(0.015625)"/>
      <path id="ArialMT-6c" d="M 409 0 
L 409 4581 
L 972 4581 
L 972 0 
L 409 0 
z
" transform="scale(0.015625)"/>
      <path id="ArialMT-53" d="M 288 1472 
L 859 1522 
Q 900 1178 1048 958 
Q 1197 738 1509 602 
Q 1822 466 2213 466 
Q 2559 466 2825 569 
Q 3091 672 3220 851 
Q 3350 1031 3350 1244 
Q 3350 1459 3225 1620 
Q 3100 1781 2813 1891 
Q 2628 1963 1997 2114 
Q 1366 2266 1113 2400 
Q 784 2572 623 2826 
Q 463 3081 463 3397 
Q 463 3744 659 4045 
Q 856 4347 1234 4503 
Q 1613 4659 2075 4659 
Q 2584 4659 2973 4495 
Q 3363 4331 3572 4012 
Q 3781 3694 3797 3291 
L 3216 3247 
Q 3169 3681 2898 3903 
Q 2628 4125 2100 4125 
Q 1550 4125 1298 3923 
Q 1047 3722 1047 3438 
Q 1047 3191 1225 3031 
Q 1400 2872 2139 2705 
Q 2878 2538 3153 2413 
Q 3553 2228 3743 1945 
Q 3934 1663 3934 1294 
Q 3934 928 3725 604 
Q 3516 281 3123 101 
Q 2731 -78 2241 -78 
Q 1619 -78 1198 103 
Q 778 284 539 648 
Q 300 1013 288 1472 
z
" transform="scale(0.015625)"/>
      <path id="ArialMT-68" d="M 422 0 
L 422 4581 
L 984 4581 
L 984 2938 
Q 1378 3394 1978 3394 
Q 2347 3394 2619 3248 
Q 2891 3103 3008 2847 
Q 3125 2591 3125 2103 
L 3125 0 
L 2563 0 
L 2563 2103 
Q 2563 2525 2380 2717 
Q 2197 2909 1863 2909 
Q 1613 2909 1392 2779 
Q 1172 2650 1078 2428 
Q 984 2206 984 1816 
L 984 0 
L 422 0 
z
" transform="scale(0.015625)"/>
      <path id="ArialMT-75" d="M 2597 0 
L 2597 488 
Q 2209 -75 1544 -75 
Q 1250 -75 995 37 
Q 741 150 617 320 
Q 494 491 444 738 
Q 409 903 409 1263 
L 409 3319 
L 972 3319 
L 972 1478 
Q 972 1038 1006 884 
Q 1059 663 1231 536 
Q 1403 409 1656 409 
Q 1909 409 2131 539 
Q 2353 669 2445 892 
Q 2538 1116 2538 1541 
L 2538 3319 
L 3100 3319 
L 3100 0 
L 2597 0 
z
" transform="scale(0.015625)"/>
      <path id="ArialMT-66" d="M 556 0 
L 556 2881 
L 59 2881 
L 59 3319 
L 556 3319 
L 556 3672 
Q 556 4006 616 4169 
Q 697 4388 901 4523 
Q 1106 4659 1475 4659 
Q 1713 4659 2000 4603 
L 1916 4113 
Q 1741 4144 1584 4144 
Q 1328 4144 1222 4034 
Q 1116 3925 1116 3625 
L 1116 3319 
L 1763 3319 
L 1763 2881 
L 1116 2881 
L 1116 0 
L 556 0 
z
" transform="scale(0.015625)"/>
      <path id="ArialMT-64" d="M 2575 0 
L 2575 419 
Q 2259 -75 1647 -75 
Q 1250 -75 917 144 
Q 584 363 401 755 
Q 219 1147 219 1656 
Q 219 2153 384 2558 
Q 550 2963 881 3178 
Q 1213 3394 1622 3394 
Q 1922 3394 2156 3267 
Q 2391 3141 2538 2938 
L 2538 4581 
L 3097 4581 
L 3097 0 
L 2575 0 
z
M 797 1656 
Q 797 1019 1065 703 
Q 1334 388 1700 388 
Q 2069 388 2326 689 
Q 2584 991 2584 1609 
Q 2584 2291 2321 2609 
Q 2059 2928 1675 2928 
Q 1300 2928 1048 2622 
Q 797 2316 797 1656 
z
" transform="scale(0.015625)"/>
     </defs>
     <use xlink:href="#ArialMT-44"/>
     <use xlink:href="#ArialMT-69" x="72.216797"/>
     <use xlink:href="#ArialMT-76" x="94.433594"/>
     <use xlink:href="#ArialMT-65" x="144.433594"/>
     <use xlink:href="#ArialMT-72" x="200.048828"/>
     <use xlink:href="#ArialMT-67" x="233.349609"/>
     <use xlink:href="#ArialMT-65" x="288.964844"/>
     <use xlink:href="#ArialMT-6e" x="344.580078"/>
     <use xlink:href="#ArialMT-63" x="400.195312"/>
     <use xlink:href="#ArialMT-65" x="450.195312"/>
     <use xlink:href="#ArialMT-20" x="505.810547"/>
     <use xlink:href="#ArialMT-43" x="533.59375"/>
     <use xlink:href="#ArialMT-6f" x="605.810547"/>
     <use xlink:href="#ArialMT-6d" x="661.425781"/>
     <use xlink:href="#ArialMT-70" x="744.726562"/>
     <use xlink:href="#ArialMT-61" x="800.341797"/>
     <use xlink:href="#ArialMT-72" x="855.957031"/>
     <use xlink:href="#ArialMT-69" x="889.257812"/>
     <use xlink:href="#ArialMT-73" x="911.474609"/>
     <use xlink:href="#ArialMT-6f" x="961.474609"/>
     <use xlink:href="#ArialMT-6e" x="1017.089844"/>
     <use xlink:href="#ArialMT-3a" x="1072.705078"/>
     <use xlink:href="#ArialMT-20" x="1100.488281"/>
     <use xlink:href="#ArialMT-4f" x="1128.271484"/>
     <use xlink:href="#ArialMT-72" x="1206.054688"/>
     <use xlink:href="#ArialMT-69" x="1239.355469"/>
     <use xlink:href="#ArialMT-67" x="1261.572266"/>
     <use xlink:href="#ArialMT-69" x="1317.1875"/>
     <use xlink:href="#ArialMT-6e" x="1339.404297"/>
     <use xlink:href="#ArialMT-61" x="1395.019531"/>
     <use xlink:href="#ArialMT-6c" x="1450.634766"/>
     <use xlink:href="#ArialMT-20" x="1472.851562"/>
     <use xlink:href="#ArialMT-76" x="1500.634766"/>
     <use xlink:href="#ArialMT-73" x="1550.634766"/>
     <use xlink:href="#ArialMT-20" x="1600.634766"/>
     <use xlink:href="#ArialMT-53" x="1628.417969"/>
     <use xlink:href="#ArialMT-68" x="1695.117188"/>
     <use xlink:href="#ArialMT-75" x="1750.732422"/>
     <use xlink:href="#ArialMT-66" x="1806.347656"/>
     <use xlink:href="#ArialMT-66" x="1832.380859"/>
     <use xlink:href="#ArialMT-6c" x="1860.164062"/>
     <use xlink:href="#ArialMT-65" x="1882.380859"/>
     <use xlink:href="#ArialMT-64" x="1937.996094"/>
    </g>
   </g>
   <g id="legend_1">
    <g id="patch_5">
     <path d="M 615.14 259.415469 
L 704.741875 259.415469 
Q 706.941875 259.415469 706.941875 257.215469 
L 706.941875 148.284531 
Q 706.941875 146.084531 704.741875 146.084531 
L 615.14 146.084531 
Q 612.94 146.084531 612.94 148.284531 
L 612.94 257.215469 
Q 612.94 259.415469 615.14 259.415469 
z
" style="fill: #ffffff; opacity: 0.8; stroke: #cccccc; stroke-linejoin: miter"/>
    </g>
    <g id="line2d_20">
     <path d="M 617.34 154.649062 
L 628.34 154.649062 
L 639.34 154.649062 
" style="fill: none; stroke: #eb6ab0; stroke-width: 2; stroke-linecap: round"/>
    </g>
    <g id="text_15">
     <!-- Original -->
     <g style="fill: #262626" transform="translate(648.14 158.499062) scale(0.11 -0.11)">
      <use xlink:href="#ArialMT-4f"/>
      <use xlink:href="#ArialMT-72" x="77.783203"/>
      <use xlink:href="#ArialMT-69" x="111.083984"/>
      <use xlink:href="#ArialMT-67" x="133.300781"/>
      <use xlink:href="#ArialMT-69" x="188.916016"/>
      <use xlink:href="#ArialMT-6e" x="211.132812"/>
      <use xlink:href="#ArialMT-61" x="266.748047"/>
      <use xlink:href="#ArialMT-6c" x="322.363281"/>
     </g>
    </g>
    <g id="line2d_21">
     <path d="M 617.34 170.47875 
L 628.34 170.47875 
L 639.34 170.47875 
" style="fill: none; stroke-dasharray: 7.4,3.2; stroke-dashoffset: 0; stroke: #eb6ab0; stroke-width: 2"/>
    </g>
    <g id="text_16">
     <!-- Original -->
     <g style="fill: #262626" transform="translate(648.14 174.32875) scale(0.11 -0.11)">
      <use xlink:href="#ArialMT-4f"/>
      <use xlink:href="#ArialMT-72" x="77.783203"/>
      <use xlink:href="#ArialMT-69" x="111.083984"/>
      <use xlink:href="#ArialMT-67" x="133.300781"/>
      <use xlink:href="#ArialMT-69" x="188.916016"/>
      <use xlink:href="#ArialMT-6e" x="211.132812"/>
      <use xlink:href="#ArialMT-61" x="266.748047"/>
      <use xlink:href="#ArialMT-6c" x="322.363281"/>
     </g>
    </g>
    <g id="PathCollection_3">
     <g>
      <use xlink:href="#mded0dab4fb" x="628.34" y="187.162656" style="fill: #eb6ab0; stroke: #eb6ab0"/>
     </g>
    </g>
    <g id="text_17">
     <!-- p &lt; 0.001 -->
     <g style="fill: #262626" transform="translate(648.14 190.050156) scale(0.11 -0.11)">
      <defs>
       <path id="ArialMT-3c" d="M 350 2003 
L 350 2528 
L 3384 3809 
L 3384 3250 
L 978 2263 
L 3384 1266 
L 3384 706 
L 350 2003 
z
" transform="scale(0.015625)"/>
      </defs>
      <use xlink:href="#ArialMT-70"/>
      <use xlink:href="#ArialMT-20" x="55.615234"/>
      <use xlink:href="#ArialMT-3c" x="83.398438"/>
      <use xlink:href="#ArialMT-20" x="141.796875"/>
      <use xlink:href="#ArialMT-30" x="169.580078"/>
      <use xlink:href="#ArialMT-2e" x="225.195312"/>
      <use xlink:href="#ArialMT-30" x="252.978516"/>
      <use xlink:href="#ArialMT-30" x="308.59375"/>
      <use xlink:href="#ArialMT-31" x="364.208984"/>
     </g>
    </g>
    <g id="line2d_22">
     <path d="M 617.34 201.76 
L 628.34 201.76 
L 639.34 201.76 
" style="fill: none; stroke-dasharray: 5.55,2.4; stroke-dashoffset: 0; stroke: #1a1a1a; stroke-width: 1.5"/>
    </g>
    <g id="text_18">
     <!-- Stim Onset -->
     <g style="fill: #262626" transform="translate(648.14 205.61) scale(0.11 -0.11)">
      <defs>
       <path id="ArialMT-74" d="M 1650 503 
L 1731 6 
Q 1494 -44 1306 -44 
Q 1000 -44 831 53 
Q 663 150 594 308 
Q 525 466 525 972 
L 525 2881 
L 113 2881 
L 113 3319 
L 525 3319 
L 525 4141 
L 1084 4478 
L 1084 3319 
L 1650 3319 
L 1650 2881 
L 1084 2881 
L 1084 941 
Q 1084 700 1114 631 
Q 1144 563 1211 522 
Q 1278 481 1403 481 
Q 1497 481 1650 503 
z
" transform="scale(0.015625)"/>
      </defs>
      <use xlink:href="#ArialMT-53"/>
      <use xlink:href="#ArialMT-74" x="66.699219"/>
      <use xlink:href="#ArialMT-69" x="94.482422"/>
      <use xlink:href="#ArialMT-6d" x="116.699219"/>
      <use xlink:href="#ArialMT-20" x="200"/>
      <use xlink:href="#ArialMT-4f" x="227.783203"/>
      <use xlink:href="#ArialMT-6e" x="305.566406"/>
      <use xlink:href="#ArialMT-73" x="361.181641"/>
      <use xlink:href="#ArialMT-65" x="411.181641"/>
      <use xlink:href="#ArialMT-74" x="466.796875"/>
     </g>
    </g>
    <g id="line2d_23">
     <path d="M 617.34 217.319844 
L 628.34 217.319844 
L 639.34 217.319844 
" style="fill: none; stroke-dasharray: 5.55,2.4; stroke-dashoffset: 0; stroke: #1a1a1a; stroke-width: 1.5"/>
    </g>
    <g id="text_19">
     <!-- Stim End -->
     <g style="fill: #262626" transform="translate(648.14 221.169844) scale(0.11 -0.11)">
      <defs>
       <path id="ArialMT-45" d="M 506 0 
L 506 4581 
L 3819 4581 
L 3819 4041 
L 1113 4041 
L 1113 2638 
L 3647 2638 
L 3647 2100 
L 1113 2100 
L 1113 541 
L 3925 541 
L 3925 0 
L 506 0 
z
" transform="scale(0.015625)"/>
      </defs>
      <use xlink:href="#ArialMT-53"/>
      <use xlink:href="#ArialMT-74" x="66.699219"/>
      <use xlink:href="#ArialMT-69" x="94.482422"/>
      <use xlink:href="#ArialMT-6d" x="116.699219"/>
      <use xlink:href="#ArialMT-20" x="200"/>
      <use xlink:href="#ArialMT-45" x="227.783203"/>
      <use xlink:href="#ArialMT-6e" x="294.482422"/>
      <use xlink:href="#ArialMT-64" x="350.097656"/>
     </g>
    </g>
    <g id="line2d_24">
     <path d="M 617.34 233.020625 
L 628.34 233.020625 
L 639.34 233.020625 
" style="fill: none; stroke: #8b0a50; stroke-width: 2; stroke-linecap: round"/>
    </g>
    <g id="text_20">
     <!-- Original -->
     <g style="fill: #262626" transform="translate(648.14 236.870625) scale(0.11 -0.11)">
      <use xlink:href="#ArialMT-4f"/>
      <use xlink:href="#ArialMT-72" x="77.783203"/>
      <use xlink:href="#ArialMT-69" x="111.083984"/>
      <use xlink:href="#ArialMT-67" x="133.300781"/>
      <use xlink:href="#ArialMT-69" x="188.916016"/>
      <use xlink:href="#ArialMT-6e" x="211.132812"/>
      <use xlink:href="#ArialMT-61" x="266.748047"/>
      <use xlink:href="#ArialMT-6c" x="322.363281"/>
     </g>
    </g>
    <g id="line2d_25">
     <path d="M 617.34 248.850313 
L 628.34 248.850313 
L 639.34 248.850313 
" style="fill: none; stroke-dasharray: 7.4,3.2; stroke-dashoffset: 0; stroke: #8b0a50; stroke-width: 2"/>
    </g>
    <g id="text_21">
     <!-- Original -->
     <g style="fill: #262626" transform="translate(648.14 252.700312) scale(0.11 -0.11)">
      <use xlink:href="#ArialMT-4f"/>
      <use xlink:href="#ArialMT-72" x="77.783203"/>
      <use xlink:href="#ArialMT-69" x="111.083984"/>
      <use xlink:href="#ArialMT-67" x="133.300781"/>
      <use xlink:href="#ArialMT-69" x="188.916016"/>
      <use xlink:href="#ArialMT-6e" x="211.132812"/>
      <use xlink:href="#ArialMT-61" x="266.748047"/>
      <use xlink:href="#ArialMT-6c" x="322.363281"/>
     </g>
    </g>
   </g>
  </g>
 </g>
 <defs>
  <clipPath id="p526cec10f8">
   <rect x="77.46" y="26.96" width="529.98" height="351.58"/>
  </clipPath>
 </defs>
</svg>
