<?xml version="1.0" encoding="utf-8" standalone="no"?>
<!DOCTYPE svg PUBLIC "-//W3C//DTD SVG 1.1//EN"
  "http://www.w3.org/Graphics/SVG/1.1/DTD/svg11.dtd">
<svg xmlns:xlink="http://www.w3.org/1999/xlink" width="720pt" height="432pt" viewBox="0 0 720 432" xmlns="http://www.w3.org/2000/svg" version="1.1">
 <metadata>
  <rdf:RDF xmlns:dc="http://purl.org/dc/elements/1.1/" xmlns:cc="http://creativecommons.org/ns#" xmlns:rdf="http://www.w3.org/1999/02/22-rdf-syntax-ns#">
   <cc:Work>
    <dc:type rdf:resource="http://purl.org/dc/dcmitype/StillImage"/>
    <dc:date>2025-07-18T11:07:40.009221</dc:date>
    <dc:format>image/svg+xml</dc:format>
    <dc:creator>
     <cc:Agent>
      <dc:title>Matplotlib v3.9.4, https://matplotlib.org/</dc:title>
     </cc:Agent>
    </dc:creator>
   </cc:Work>
  </rdf:RDF>
 </metadata>
 <defs>
  <style type="text/css">*{stroke-linejoin: round; stroke-linecap: butt}</style>
 </defs>
 <g id="figure_1">
  <g id="patch_1">
   <path d="M 0 432 
L 720 432 
L 720 0 
L 0 0 
z
" style="fill: #ffffff"/>
  </g>
  <g id="axes_1">
   <g id="patch_2">
    <path d="M 69.71 377.54 
L 607.44 377.54 
L 607.44 26.96 
L 69.71 26.96 
L 69.71 377.54 
z
" style="fill: none"/>
   </g>
   <g id="matplotlib.axis_1">
    <g id="xtick_1">
     <g id="text_1">
      <!-- −250 -->
      <g style="fill: #262626" transform="translate(115.450746 397.776719) scale(0.15 -0.15)">
       <defs>
        <path id="ArialMT-2212" d="M 3381 1997 
L 356 1997 
L 356 2522 
L 3381 2522 
L 3381 1997 
z
" transform="scale(0.015625)"/>
        <path id="ArialMT-32" d="M 3222 541 
L 3222 0 
L 194 0 
Q 188 203 259 391 
Q 375 700 629 1000 
Q 884 1300 1366 1694 
Q 2113 2306 2375 2664 
Q 2638 3022 2638 3341 
Q 2638 3675 2398 3904 
Q 2159 4134 1775 4134 
Q 1369 4134 1125 3890 
Q 881 3647 878 3216 
L 300 3275 
Q 359 3922 746 4261 
Q 1134 4600 1788 4600 
Q 2447 4600 2831 4234 
Q 3216 3869 3216 3328 
Q 3216 3053 3103 2787 
Q 2991 2522 2730 2228 
Q 2469 1934 1863 1422 
Q 1356 997 1212 845 
Q 1069 694 975 541 
L 3222 541 
z
" transform="scale(0.015625)"/>
        <path id="ArialMT-35" d="M 266 1200 
L 856 1250 
Q 922 819 1161 601 
Q 1400 384 1738 384 
Q 2144 384 2425 690 
Q 2706 997 2706 1503 
Q 2706 1984 2436 2262 
Q 2166 2541 1728 2541 
Q 1456 2541 1237 2417 
Q 1019 2294 894 2097 
L 366 2166 
L 809 4519 
L 3088 4519 
L 3088 3981 
L 1259 3981 
L 1013 2750 
Q 1425 3038 1878 3038 
Q 2478 3038 2890 2622 
Q 3303 2206 3303 1553 
Q 3303 931 2941 478 
Q 2500 -78 1738 -78 
Q 1113 -78 717 272 
Q 322 622 266 1200 
z
" transform="scale(0.015625)"/>
        <path id="ArialMT-30" d="M 266 2259 
Q 266 3072 433 3567 
Q 600 4063 929 4331 
Q 1259 4600 1759 4600 
Q 2128 4600 2406 4451 
Q 2684 4303 2865 4023 
Q 3047 3744 3150 3342 
Q 3253 2941 3253 2259 
Q 3253 1453 3087 958 
Q 2922 463 2592 192 
Q 2263 -78 1759 -78 
Q 1097 -78 719 397 
Q 266 969 266 2259 
z
M 844 2259 
Q 844 1131 1108 757 
Q 1372 384 1759 384 
Q 2147 384 2411 759 
Q 2675 1134 2675 2259 
Q 2675 3391 2411 3762 
Q 2147 4134 1753 4134 
Q 1366 4134 1134 3806 
Q 844 3388 844 2259 
z
" transform="scale(0.015625)"/>
       </defs>
       <use xlink:href="#ArialMT-2212"/>
       <use xlink:href="#ArialMT-32" x="58.398438"/>
       <use xlink:href="#ArialMT-35" x="114.013672"/>
       <use xlink:href="#ArialMT-30" x="169.628906"/>
      </g>
     </g>
    </g>
    <g id="xtick_2">
     <g id="text_2">
      <!-- 0 -->
      <g style="fill: #262626" transform="translate(191.824373 397.776719) scale(0.15 -0.15)">
       <use xlink:href="#ArialMT-30"/>
      </g>
     </g>
    </g>
    <g id="xtick_3">
     <g id="text_3">
      <!-- 250 -->
      <g style="fill: #262626" transform="translate(247.134718 397.776719) scale(0.15 -0.15)">
       <use xlink:href="#ArialMT-32"/>
       <use xlink:href="#ArialMT-35" x="55.615234"/>
       <use xlink:href="#ArialMT-30" x="111.230469"/>
      </g>
     </g>
    </g>
    <g id="xtick_4">
     <g id="text_4">
      <!-- 500 -->
      <g style="fill: #262626" transform="translate(310.78647 397.776719) scale(0.15 -0.15)">
       <use xlink:href="#ArialMT-35"/>
       <use xlink:href="#ArialMT-30" x="55.615234"/>
       <use xlink:href="#ArialMT-30" x="111.230469"/>
      </g>
     </g>
    </g>
    <g id="xtick_5">
     <g id="text_5">
      <!-- 750 -->
      <g style="fill: #262626" transform="translate(374.438222 397.776719) scale(0.15 -0.15)">
       <defs>
        <path id="ArialMT-37" d="M 303 3981 
L 303 4522 
L 3269 4522 
L 3269 4084 
Q 2831 3619 2401 2847 
Q 1972 2075 1738 1259 
Q 1569 684 1522 0 
L 944 0 
Q 953 541 1156 1306 
Q 1359 2072 1739 2783 
Q 2119 3494 2547 3981 
L 303 3981 
z
" transform="scale(0.015625)"/>
       </defs>
       <use xlink:href="#ArialMT-37"/>
       <use xlink:href="#ArialMT-35" x="55.615234"/>
       <use xlink:href="#ArialMT-30" x="111.230469"/>
      </g>
     </g>
    </g>
    <g id="xtick_6">
     <g id="text_6">
      <!-- 1000 -->
      <g style="fill: #262626" transform="translate(433.919271 397.776719) scale(0.15 -0.15)">
       <defs>
        <path id="ArialMT-31" d="M 2384 0 
L 1822 0 
L 1822 3584 
Q 1619 3391 1289 3197 
Q 959 3003 697 2906 
L 697 3450 
Q 1169 3672 1522 3987 
Q 1875 4303 2022 4600 
L 2384 4600 
L 2384 0 
z
" transform="scale(0.015625)"/>
       </defs>
       <use xlink:href="#ArialMT-31"/>
       <use xlink:href="#ArialMT-30" x="55.615234"/>
       <use xlink:href="#ArialMT-30" x="111.230469"/>
       <use xlink:href="#ArialMT-30" x="166.845703"/>
      </g>
     </g>
    </g>
    <g id="xtick_7">
     <g id="text_7">
      <!-- 1250 -->
      <g style="fill: #262626" transform="translate(497.571023 397.776719) scale(0.15 -0.15)">
       <use xlink:href="#ArialMT-31"/>
       <use xlink:href="#ArialMT-32" x="55.615234"/>
       <use xlink:href="#ArialMT-35" x="111.230469"/>
       <use xlink:href="#ArialMT-30" x="166.845703"/>
      </g>
     </g>
    </g>
    <g id="xtick_8">
     <g id="text_8">
      <!-- 1500 -->
      <g style="fill: #262626" transform="translate(561.222775 397.776719) scale(0.15 -0.15)">
       <use xlink:href="#ArialMT-31"/>
       <use xlink:href="#ArialMT-35" x="55.615234"/>
       <use xlink:href="#ArialMT-30" x="111.230469"/>
       <use xlink:href="#ArialMT-30" x="166.845703"/>
      </g>
     </g>
    </g>
    <g id="text_9">
     <!-- Time (s) -->
     <g style="fill: #262626" transform="translate(311.362891 415.6775) scale(0.15 -0.15)">
      <defs>
       <path id="ArialMT-54" d="M 1659 0 
L 1659 4041 
L 150 4041 
L 150 4581 
L 3781 4581 
L 3781 4041 
L 2266 4041 
L 2266 0 
L 1659 0 
z
" transform="scale(0.015625)"/>
       <path id="ArialMT-69" d="M 425 3934 
L 425 4581 
L 988 4581 
L 988 3934 
L 425 3934 
z
M 425 0 
L 425 3319 
L 988 3319 
L 988 0 
L 425 0 
z
" transform="scale(0.015625)"/>
       <path id="ArialMT-6d" d="M 422 0 
L 422 3319 
L 925 3319 
L 925 2853 
Q 1081 3097 1340 3245 
Q 1600 3394 1931 3394 
Q 2300 3394 2536 3241 
Q 2772 3088 2869 2813 
Q 3263 3394 3894 3394 
Q 4388 3394 4653 3120 
Q 4919 2847 4919 2278 
L 4919 0 
L 4359 0 
L 4359 2091 
Q 4359 2428 4304 2576 
Q 4250 2725 4106 2815 
Q 3963 2906 3769 2906 
Q 3419 2906 3187 2673 
Q 2956 2441 2956 1928 
L 2956 0 
L 2394 0 
L 2394 2156 
Q 2394 2531 2256 2718 
Q 2119 2906 1806 2906 
Q 1569 2906 1367 2781 
Q 1166 2656 1075 2415 
Q 984 2175 984 1722 
L 984 0 
L 422 0 
z
" transform="scale(0.015625)"/>
       <path id="ArialMT-65" d="M 2694 1069 
L 3275 997 
Q 3138 488 2766 206 
Q 2394 -75 1816 -75 
Q 1088 -75 661 373 
Q 234 822 234 1631 
Q 234 2469 665 2931 
Q 1097 3394 1784 3394 
Q 2450 3394 2872 2941 
Q 3294 2488 3294 1666 
Q 3294 1616 3291 1516 
L 816 1516 
Q 847 969 1125 678 
Q 1403 388 1819 388 
Q 2128 388 2347 550 
Q 2566 713 2694 1069 
z
M 847 1978 
L 2700 1978 
Q 2663 2397 2488 2606 
Q 2219 2931 1791 2931 
Q 1403 2931 1139 2672 
Q 875 2413 847 1978 
z
" transform="scale(0.015625)"/>
       <path id="ArialMT-20" transform="scale(0.015625)"/>
       <path id="ArialMT-28" d="M 1497 -1347 
Q 1031 -759 709 28 
Q 388 816 388 1659 
Q 388 2403 628 3084 
Q 909 3875 1497 4659 
L 1900 4659 
Q 1522 4009 1400 3731 
Q 1209 3300 1100 2831 
Q 966 2247 966 1656 
Q 966 153 1900 -1347 
L 1497 -1347 
z
" transform="scale(0.015625)"/>
       <path id="ArialMT-73" d="M 197 991 
L 753 1078 
Q 800 744 1014 566 
Q 1228 388 1613 388 
Q 2000 388 2187 545 
Q 2375 703 2375 916 
Q 2375 1106 2209 1216 
Q 2094 1291 1634 1406 
Q 1016 1563 777 1677 
Q 538 1791 414 1992 
Q 291 2194 291 2438 
Q 291 2659 392 2848 
Q 494 3038 669 3163 
Q 800 3259 1026 3326 
Q 1253 3394 1513 3394 
Q 1903 3394 2198 3281 
Q 2494 3169 2634 2976 
Q 2775 2784 2828 2463 
L 2278 2388 
Q 2241 2644 2061 2787 
Q 1881 2931 1553 2931 
Q 1166 2931 1000 2803 
Q 834 2675 834 2503 
Q 834 2394 903 2306 
Q 972 2216 1119 2156 
Q 1203 2125 1616 2013 
Q 2213 1853 2448 1751 
Q 2684 1650 2818 1456 
Q 2953 1263 2953 975 
Q 2953 694 2789 445 
Q 2625 197 2315 61 
Q 2006 -75 1616 -75 
Q 969 -75 630 194 
Q 291 463 197 991 
z
" transform="scale(0.015625)"/>
       <path id="ArialMT-29" d="M 791 -1347 
L 388 -1347 
Q 1322 153 1322 1656 
Q 1322 2244 1188 2822 
Q 1081 3291 891 3722 
Q 769 4003 388 4659 
L 791 4659 
Q 1378 3875 1659 3084 
Q 1900 2403 1900 1659 
Q 1900 816 1576 28 
Q 1253 -759 791 -1347 
z
" transform="scale(0.015625)"/>
      </defs>
      <use xlink:href="#ArialMT-54"/>
      <use xlink:href="#ArialMT-69" x="57.333984"/>
      <use xlink:href="#ArialMT-6d" x="79.550781"/>
      <use xlink:href="#ArialMT-65" x="162.851562"/>
      <use xlink:href="#ArialMT-20" x="218.466797"/>
      <use xlink:href="#ArialMT-28" x="246.25"/>
      <use xlink:href="#ArialMT-73" x="279.550781"/>
      <use xlink:href="#ArialMT-29" x="329.550781"/>
     </g>
    </g>
   </g>
   <g id="matplotlib.axis_2">
    <g id="ytick_1">
     <g id="text_10">
      <!-- 0.00 -->
      <g style="fill: #262626" transform="translate(31.018594 311.191041) scale(0.15 -0.15)">
       <defs>
        <path id="ArialMT-2e" d="M 581 0 
L 581 641 
L 1222 641 
L 1222 0 
L 581 0 
z
" transform="scale(0.015625)"/>
       </defs>
       <use xlink:href="#ArialMT-30"/>
       <use xlink:href="#ArialMT-2e" x="55.615234"/>
       <use xlink:href="#ArialMT-30" x="83.398438"/>
       <use xlink:href="#ArialMT-30" x="139.013672"/>
      </g>
     </g>
    </g>
    <g id="ytick_2">
     <g id="text_11">
      <!-- 0.05 -->
      <g style="fill: #262626" transform="translate(31.018594 235.527731) scale(0.15 -0.15)">
       <use xlink:href="#ArialMT-30"/>
       <use xlink:href="#ArialMT-2e" x="55.615234"/>
       <use xlink:href="#ArialMT-30" x="83.398438"/>
       <use xlink:href="#ArialMT-35" x="139.013672"/>
      </g>
     </g>
    </g>
    <g id="ytick_3">
     <g id="text_12">
      <!-- 0.10 -->
      <g style="fill: #262626" transform="translate(31.018594 159.864421) scale(0.15 -0.15)">
       <use xlink:href="#ArialMT-30"/>
       <use xlink:href="#ArialMT-2e" x="55.615234"/>
       <use xlink:href="#ArialMT-31" x="83.398438"/>
       <use xlink:href="#ArialMT-30" x="139.013672"/>
      </g>
     </g>
    </g>
    <g id="ytick_4">
     <g id="text_13">
      <!-- 0.15 -->
      <g style="fill: #262626" transform="translate(31.018594 84.201111) scale(0.15 -0.15)">
       <use xlink:href="#ArialMT-30"/>
       <use xlink:href="#ArialMT-2e" x="55.615234"/>
       <use xlink:href="#ArialMT-31" x="83.398438"/>
       <use xlink:href="#ArialMT-35" x="139.013672"/>
      </g>
     </g>
    </g>
    <g id="text_14">
     <!-- Divergence -->
     <g style="fill: #262626" transform="translate(23.861562 240.183594) rotate(-90) scale(0.15 -0.15)">
      <defs>
       <path id="ArialMT-44" d="M 494 0 
L 494 4581 
L 2072 4581 
Q 2606 4581 2888 4516 
Q 3281 4425 3559 4188 
Q 3922 3881 4101 3404 
Q 4281 2928 4281 2316 
Q 4281 1794 4159 1391 
Q 4038 988 3847 723 
Q 3656 459 3429 307 
Q 3203 156 2883 78 
Q 2563 0 2147 0 
L 494 0 
z
M 1100 541 
L 2078 541 
Q 2531 541 2789 625 
Q 3047 709 3200 863 
Q 3416 1078 3536 1442 
Q 3656 1806 3656 2325 
Q 3656 3044 3420 3430 
Q 3184 3816 2847 3947 
Q 2603 4041 2063 4041 
L 1100 4041 
L 1100 541 
z
" transform="scale(0.015625)"/>
       <path id="ArialMT-76" d="M 1344 0 
L 81 3319 
L 675 3319 
L 1388 1331 
Q 1503 1009 1600 663 
Q 1675 925 1809 1294 
L 2547 3319 
L 3125 3319 
L 1869 0 
L 1344 0 
z
" transform="scale(0.015625)"/>
       <path id="ArialMT-72" d="M 416 0 
L 416 3319 
L 922 3319 
L 922 2816 
Q 1116 3169 1280 3281 
Q 1444 3394 1641 3394 
Q 1925 3394 2219 3213 
L 2025 2691 
Q 1819 2813 1613 2813 
Q 1428 2813 1281 2702 
Q 1134 2591 1072 2394 
Q 978 2094 978 1738 
L 978 0 
L 416 0 
z
" transform="scale(0.015625)"/>
       <path id="ArialMT-67" d="M 319 -275 
L 866 -356 
Q 900 -609 1056 -725 
Q 1266 -881 1628 -881 
Q 2019 -881 2231 -725 
Q 2444 -569 2519 -288 
Q 2563 -116 2559 434 
Q 2191 0 1641 0 
Q 956 0 581 494 
Q 206 988 206 1678 
Q 206 2153 378 2554 
Q 550 2956 876 3175 
Q 1203 3394 1644 3394 
Q 2231 3394 2613 2919 
L 2613 3319 
L 3131 3319 
L 3131 450 
Q 3131 -325 2973 -648 
Q 2816 -972 2473 -1159 
Q 2131 -1347 1631 -1347 
Q 1038 -1347 672 -1080 
Q 306 -813 319 -275 
z
M 784 1719 
Q 784 1066 1043 766 
Q 1303 466 1694 466 
Q 2081 466 2343 764 
Q 2606 1063 2606 1700 
Q 2606 2309 2336 2618 
Q 2066 2928 1684 2928 
Q 1309 2928 1046 2623 
Q 784 2319 784 1719 
z
" transform="scale(0.015625)"/>
       <path id="ArialMT-6e" d="M 422 0 
L 422 3319 
L 928 3319 
L 928 2847 
Q 1294 3394 1984 3394 
Q 2284 3394 2536 3286 
Q 2788 3178 2913 3003 
Q 3038 2828 3088 2588 
Q 3119 2431 3119 2041 
L 3119 0 
L 2556 0 
L 2556 2019 
Q 2556 2363 2490 2533 
Q 2425 2703 2258 2804 
Q 2091 2906 1866 2906 
Q 1506 2906 1245 2678 
Q 984 2450 984 1813 
L 984 0 
L 422 0 
z
" transform="scale(0.015625)"/>
       <path id="ArialMT-63" d="M 2588 1216 
L 3141 1144 
Q 3050 572 2676 248 
Q 2303 -75 1759 -75 
Q 1078 -75 664 370 
Q 250 816 250 1647 
Q 250 2184 428 2587 
Q 606 2991 970 3192 
Q 1334 3394 1763 3394 
Q 2303 3394 2647 3120 
Q 2991 2847 3088 2344 
L 2541 2259 
Q 2463 2594 2264 2762 
Q 2066 2931 1784 2931 
Q 1359 2931 1093 2626 
Q 828 2322 828 1663 
Q 828 994 1084 691 
Q 1341 388 1753 388 
Q 2084 388 2306 591 
Q 2528 794 2588 1216 
z
" transform="scale(0.015625)"/>
      </defs>
      <use xlink:href="#ArialMT-44"/>
      <use xlink:href="#ArialMT-69" x="72.216797"/>
      <use xlink:href="#ArialMT-76" x="94.433594"/>
      <use xlink:href="#ArialMT-65" x="144.433594"/>
      <use xlink:href="#ArialMT-72" x="200.048828"/>
      <use xlink:href="#ArialMT-67" x="233.349609"/>
      <use xlink:href="#ArialMT-65" x="288.964844"/>
      <use xlink:href="#ArialMT-6e" x="344.580078"/>
      <use xlink:href="#ArialMT-63" x="400.195312"/>
      <use xlink:href="#ArialMT-65" x="450.195312"/>
     </g>
    </g>
   </g>
   <g id="PolyCollection_1">
    <defs>
     <path id="maafc400355" d="M 94.152273 -84.028948 
L 94.152273 -70.395455 
L 104.336553 -145.578588 
L 114.520833 -171.988665 
L 124.705114 -116.856816 
L 134.889394 -128.844955 
L 145.073674 -123.581771 
L 155.257955 -103.312639 
L 165.442235 -128.498144 
L 175.626515 -118.959524 
L 185.810795 -134.535057 
L 195.995076 -140.704533 
L 206.179356 -135.189036 
L 216.363636 -183.316728 
L 226.547917 -230.101548 
L 236.732197 -189.926995 
L 246.916477 -197.31796 
L 257.100758 -213.145352 
L 267.285038 -240.908648 
L 277.469318 -193.205921 
L 287.653598 -210.951882 
L 297.837879 -239.078208 
L 308.022159 -220.851418 
L 318.206439 -208.953703 
L 328.39072 -251.421509 
L 338.575 -213.265568 
L 348.75928 -184.851175 
L 358.943561 -210.858457 
L 369.127841 -227.244761 
L 379.312121 -217.804433 
L 389.496402 -229.0495 
L 399.680682 -225.6102 
L 409.864962 -287.479328 
L 420.049242 -267.183738 
L 430.233523 -245.240935 
L 440.417803 -231.538686 
L 450.602083 -195.906986 
L 460.786364 -146.661804 
L 470.970644 -138.397556 
L 481.154924 -160.7507 
L 491.339205 -197.475325 
L 501.523485 -122.239788 
L 511.707765 -125.243955 
L 521.892045 -112.881847 
L 532.076326 -149.534894 
L 542.260606 -189.254766 
L 552.444886 -196.1008 
L 562.629167 -168.762378 
L 572.813447 -163.744316 
L 582.997727 -121.369071 
L 582.997727 -132.443617 
L 582.997727 -132.443617 
L 572.813447 -179.552069 
L 562.629167 -182.617959 
L 552.444886 -212.868609 
L 542.260606 -203.068563 
L 532.076326 -164.545115 
L 521.892045 -132.968496 
L 511.707765 -141.836479 
L 501.523485 -134.721546 
L 491.339205 -212.258446 
L 481.154924 -172.724861 
L 470.970644 -150.957043 
L 460.786364 -159.339139 
L 450.602083 -213.813048 
L 440.417803 -248.622308 
L 430.233523 -263.257206 
L 420.049242 -285.896907 
L 409.864962 -310.95233 
L 399.680682 -242.822052 
L 389.496402 -248.011125 
L 379.312121 -235.273401 
L 369.127841 -243.138706 
L 358.943561 -224.973222 
L 348.75928 -197.473066 
L 338.575 -229.692046 
L 328.39072 -269.86286 
L 318.206439 -225.953368 
L 308.022159 -236.38709 
L 297.837879 -258.697403 
L 287.653598 -228.504118 
L 277.469318 -210.078477 
L 267.285038 -256.887766 
L 257.100758 -233.058926 
L 246.916477 -212.002046 
L 236.732197 -202.247435 
L 226.547917 -246.58201 
L 216.363636 -196.327985 
L 206.179356 -146.59957 
L 195.995076 -153.174657 
L 185.810795 -146.978349 
L 175.626515 -132.113967 
L 165.442235 -145.098551 
L 155.257955 -115.984215 
L 145.073674 -136.122288 
L 134.889394 -140.102927 
L 124.705114 -130.614751 
L 114.520833 -182.64131 
L 104.336553 -156.999715 
L 94.152273 -84.028948 
z
" style="stroke: #8b0a50; stroke-opacity: 0.1"/>
    </defs>
    <g clip-path="url(#pc7e2614bdb)">
     <use xlink:href="#maafc400355" x="0" y="432" style="fill: #8b0a50; fill-opacity: 0.1; stroke: #8b0a50; stroke-opacity: 0.1"/>
    </g>
   </g>
   <g id="PolyCollection_2">
    <defs>
     <path id="m914cc0c588" d="M 94.152273 -124.645297 
L 94.152273 -119.333366 
L 104.336553 -126.962922 
L 114.520833 -121.016088 
L 124.705114 -124.067996 
L 134.889394 -120.514916 
L 145.073674 -112.697359 
L 155.257955 -123.441859 
L 165.442235 -133.77553 
L 175.626515 -131.452743 
L 185.810795 -128.559743 
L 195.995076 -142.768416 
L 206.179356 -128.509639 
L 216.363636 -136.647377 
L 226.547917 -139.05437 
L 236.732197 -133.700038 
L 246.916477 -143.700613 
L 257.100758 -138.106223 
L 267.285038 -150.150173 
L 277.469318 -142.036273 
L 287.653598 -144.454906 
L 297.837879 -131.891713 
L 308.022159 -141.680183 
L 318.206439 -132.863871 
L 328.39072 -150.458978 
L 338.575 -137.926833 
L 348.75928 -126.549097 
L 358.943561 -131.824178 
L 369.127841 -120.350448 
L 379.312121 -135.647136 
L 389.496402 -143.469599 
L 399.680682 -143.166972 
L 409.864962 -160.388777 
L 420.049242 -159.333175 
L 430.233523 -136.263374 
L 440.417803 -142.089401 
L 450.602083 -125.265425 
L 460.786364 -120.328612 
L 470.970644 -119.575164 
L 481.154924 -119.37971 
L 491.339205 -116.358354 
L 501.523485 -119.259058 
L 511.707765 -131.899362 
L 521.892045 -119.033419 
L 532.076326 -121.277415 
L 542.260606 -109.255094 
L 552.444886 -117.488672 
L 562.629167 -124.861799 
L 572.813447 -118.602231 
L 582.997727 -120.461748 
L 582.997727 -124.719432 
L 582.997727 -124.719432 
L 572.813447 -124.456205 
L 562.629167 -129.981121 
L 552.444886 -123.241738 
L 542.260606 -115.277045 
L 532.076326 -126.267974 
L 521.892045 -124.038756 
L 511.707765 -137.214087 
L 501.523485 -124.320341 
L 491.339205 -121.462471 
L 481.154924 -124.055807 
L 470.970644 -124.724102 
L 460.786364 -125.426567 
L 450.602083 -130.437637 
L 440.417803 -148.992145 
L 430.233523 -141.211128 
L 420.049242 -165.079544 
L 409.864962 -166.581414 
L 399.680682 -148.428237 
L 389.496402 -148.976933 
L 379.312121 -140.496249 
L 369.127841 -125.906966 
L 358.943561 -137.725675 
L 348.75928 -131.318824 
L 338.575 -142.652766 
L 328.39072 -156.105211 
L 318.206439 -138.249422 
L 308.022159 -147.411867 
L 297.837879 -137.990566 
L 287.653598 -149.959023 
L 277.469318 -147.351787 
L 267.285038 -155.295521 
L 257.100758 -143.75684 
L 246.916477 -149.754168 
L 236.732197 -138.49419 
L 226.547917 -144.488408 
L 216.363636 -141.673937 
L 206.179356 -133.784566 
L 195.995076 -148.997388 
L 185.810795 -134.937491 
L 175.626515 -137.398437 
L 165.442235 -139.328057 
L 155.257955 -128.594579 
L 145.073674 -118.462306 
L 134.889394 -125.72775 
L 124.705114 -129.005177 
L 114.520833 -126.293063 
L 104.336553 -132.16248 
L 94.152273 -124.645297 
z
" style="stroke: #8b0a50; stroke-opacity: 0.1"/>
    </defs>
    <g clip-path="url(#pc7e2614bdb)">
     <use xlink:href="#m914cc0c588" x="0" y="432" style="fill: #8b0a50; fill-opacity: 0.1; stroke: #8b0a50; stroke-opacity: 0.1"/>
    </g>
   </g>
   <g id="PathCollection_1">
    <defs>
     <path id="ma198ff5119" d="M 0 -3 
L -0.673542 -0.927051 
L -2.85317 -0.927051 
L -1.089814 0.354102 
L -1.763356 2.427051 
L -0 1.145898 
L 1.763356 2.427051 
L 1.089814 0.354102 
L 2.85317 -0.927051 
L 0.673542 -0.927051 
z
" style="stroke: #8b0a50"/>
    </defs>
    <g clip-path="url(#pc7e2614bdb)">
     <use xlink:href="#ma198ff5119" x="94.152273" y="320.955343" style="fill: #8b0a50; stroke: #8b0a50"/>
     <use xlink:href="#ma198ff5119" x="104.336553" y="320.955343" style="fill: #8b0a50; stroke: #8b0a50"/>
     <use xlink:href="#ma198ff5119" x="114.520833" y="320.955343" style="fill: #8b0a50; stroke: #8b0a50"/>
     <use xlink:href="#ma198ff5119" x="216.363636" y="320.955343" style="fill: #8b0a50; stroke: #8b0a50"/>
     <use xlink:href="#ma198ff5119" x="226.547917" y="320.955343" style="fill: #8b0a50; stroke: #8b0a50"/>
     <use xlink:href="#ma198ff5119" x="236.732197" y="320.955343" style="fill: #8b0a50; stroke: #8b0a50"/>
     <use xlink:href="#ma198ff5119" x="246.916477" y="320.955343" style="fill: #8b0a50; stroke: #8b0a50"/>
     <use xlink:href="#ma198ff5119" x="257.100758" y="320.955343" style="fill: #8b0a50; stroke: #8b0a50"/>
     <use xlink:href="#ma198ff5119" x="267.285038" y="320.955343" style="fill: #8b0a50; stroke: #8b0a50"/>
     <use xlink:href="#ma198ff5119" x="277.469318" y="320.955343" style="fill: #8b0a50; stroke: #8b0a50"/>
     <use xlink:href="#ma198ff5119" x="287.653598" y="320.955343" style="fill: #8b0a50; stroke: #8b0a50"/>
     <use xlink:href="#ma198ff5119" x="297.837879" y="320.955343" style="fill: #8b0a50; stroke: #8b0a50"/>
     <use xlink:href="#ma198ff5119" x="308.022159" y="320.955343" style="fill: #8b0a50; stroke: #8b0a50"/>
     <use xlink:href="#ma198ff5119" x="318.206439" y="320.955343" style="fill: #8b0a50; stroke: #8b0a50"/>
     <use xlink:href="#ma198ff5119" x="328.39072" y="320.955343" style="fill: #8b0a50; stroke: #8b0a50"/>
     <use xlink:href="#ma198ff5119" x="338.575" y="320.955343" style="fill: #8b0a50; stroke: #8b0a50"/>
     <use xlink:href="#ma198ff5119" x="348.75928" y="320.955343" style="fill: #8b0a50; stroke: #8b0a50"/>
     <use xlink:href="#ma198ff5119" x="358.943561" y="320.955343" style="fill: #8b0a50; stroke: #8b0a50"/>
     <use xlink:href="#ma198ff5119" x="369.127841" y="320.955343" style="fill: #8b0a50; stroke: #8b0a50"/>
     <use xlink:href="#ma198ff5119" x="379.312121" y="320.955343" style="fill: #8b0a50; stroke: #8b0a50"/>
     <use xlink:href="#ma198ff5119" x="389.496402" y="320.955343" style="fill: #8b0a50; stroke: #8b0a50"/>
     <use xlink:href="#ma198ff5119" x="399.680682" y="320.955343" style="fill: #8b0a50; stroke: #8b0a50"/>
     <use xlink:href="#ma198ff5119" x="409.864962" y="320.955343" style="fill: #8b0a50; stroke: #8b0a50"/>
     <use xlink:href="#ma198ff5119" x="420.049242" y="320.955343" style="fill: #8b0a50; stroke: #8b0a50"/>
     <use xlink:href="#ma198ff5119" x="430.233523" y="320.955343" style="fill: #8b0a50; stroke: #8b0a50"/>
     <use xlink:href="#ma198ff5119" x="440.417803" y="320.955343" style="fill: #8b0a50; stroke: #8b0a50"/>
     <use xlink:href="#ma198ff5119" x="450.602083" y="320.955343" style="fill: #8b0a50; stroke: #8b0a50"/>
     <use xlink:href="#ma198ff5119" x="460.786364" y="320.955343" style="fill: #8b0a50; stroke: #8b0a50"/>
     <use xlink:href="#ma198ff5119" x="470.970644" y="320.955343" style="fill: #8b0a50; stroke: #8b0a50"/>
     <use xlink:href="#ma198ff5119" x="481.154924" y="320.955343" style="fill: #8b0a50; stroke: #8b0a50"/>
     <use xlink:href="#ma198ff5119" x="491.339205" y="320.955343" style="fill: #8b0a50; stroke: #8b0a50"/>
     <use xlink:href="#ma198ff5119" x="532.076326" y="320.955343" style="fill: #8b0a50; stroke: #8b0a50"/>
     <use xlink:href="#ma198ff5119" x="542.260606" y="320.955343" style="fill: #8b0a50; stroke: #8b0a50"/>
     <use xlink:href="#ma198ff5119" x="552.444886" y="320.955343" style="fill: #8b0a50; stroke: #8b0a50"/>
     <use xlink:href="#ma198ff5119" x="562.629167" y="320.955343" style="fill: #8b0a50; stroke: #8b0a50"/>
     <use xlink:href="#ma198ff5119" x="572.813447" y="320.955343" style="fill: #8b0a50; stroke: #8b0a50"/>
    </g>
   </g>
   <g id="PolyCollection_3">
    <defs>
     <path id="m31b9dabc7c" d="M 94.152273 -161.765691 
L 94.152273 -130.816743 
L 104.336553 -108.738954 
L 114.520833 -114.085104 
L 124.705114 -120.725094 
L 134.889394 -123.739862 
L 145.073674 -124.104073 
L 155.257955 -122.454206 
L 165.442235 -123.68514 
L 175.626515 -123.809705 
L 185.810795 -122.988693 
L 195.995076 -126.248593 
L 206.179356 -127.98751 
L 216.363636 -127.970795 
L 226.547917 -131.85918 
L 236.732197 -142.969383 
L 246.916477 -151.186669 
L 257.100758 -161.750396 
L 267.285038 -174.281666 
L 277.469318 -189.096842 
L 287.653598 -198.852755 
L 297.837879 -210.36298 
L 308.022159 -222.701256 
L 318.206439 -233.315044 
L 328.39072 -243.174104 
L 338.575 -251.838326 
L 348.75928 -256.33966 
L 358.943561 -259.73754 
L 369.127841 -267.403586 
L 379.312121 -273.692118 
L 389.496402 -284.772643 
L 399.680682 -293.995919 
L 409.864962 -303.027685 
L 420.049242 -312.089703 
L 430.233523 -320.645249 
L 440.417803 -330.448223 
L 450.602083 -336.351894 
L 460.786364 -332.510689 
L 470.970644 -317.535481 
L 481.154924 -304.178692 
L 491.339205 -296.987306 
L 501.523485 -288.816146 
L 511.707765 -280.777478 
L 521.892045 -275.712135 
L 532.076326 -271.252934 
L 542.260606 -266.937657 
L 552.444886 -266.123649 
L 562.629167 -264.262712 
L 572.813447 -261.624576 
L 582.997727 -215.871657 
L 582.997727 -250.614615 
L 582.997727 -250.614615 
L 572.813447 -313.914789 
L 562.629167 -316.934256 
L 552.444886 -318.920377 
L 542.260606 -319.621601 
L 532.076326 -324.18296 
L 521.892045 -329.178052 
L 511.707765 -334.232679 
L 501.523485 -341.702307 
L 491.339205 -349.756719 
L 481.154924 -356.509431 
L 470.970644 -369.587753 
L 460.786364 -384.432279 
L 450.602083 -389.104545 
L 440.417803 -382.122641 
L 430.233523 -370.53499 
L 420.049242 -359.486603 
L 409.864962 -347.077918 
L 399.680682 -336.342775 
L 389.496402 -325.563208 
L 379.312121 -312.108364 
L 369.127841 -304.011071 
L 358.943561 -294.951412 
L 348.75928 -290.49948 
L 338.575 -284.273217 
L 328.39072 -273.443671 
L 318.206439 -262.029016 
L 308.022159 -249.832699 
L 297.837879 -235.617335 
L 287.653598 -221.265575 
L 277.469318 -208.783686 
L 267.285038 -190.708285 
L 257.100758 -174.477802 
L 246.916477 -161.304832 
L 236.732197 -151.231758 
L 226.547917 -137.475433 
L 216.363636 -132.764258 
L 206.179356 -132.606762 
L 195.995076 -129.582133 
L 185.810795 -125.941398 
L 175.626515 -127.795005 
L 165.442235 -126.773062 
L 155.257955 -126.475686 
L 145.073674 -127.875479 
L 134.889394 -126.865049 
L 124.705114 -124.204151 
L 114.520833 -118.636814 
L 104.336553 -115.724382 
L 94.152273 -161.765691 
z
" style="stroke: #eb6ab0; stroke-opacity: 0.1"/>
    </defs>
    <g clip-path="url(#pc7e2614bdb)">
     <use xlink:href="#m31b9dabc7c" x="0" y="432" style="fill: #eb6ab0; fill-opacity: 0.1; stroke: #eb6ab0; stroke-opacity: 0.1"/>
    </g>
   </g>
   <g id="PolyCollection_4">
    <defs>
     <path id="m3608589111" d="M 94.152273 -144.135582 
L 94.152273 -133.255547 
L 104.336553 -122.224146 
L 114.520833 -122.78147 
L 124.705114 -123.050318 
L 134.889394 -123.197735 
L 145.073674 -124.443206 
L 155.257955 -124.643019 
L 165.442235 -125.714951 
L 175.626515 -126.726491 
L 185.810795 -126.972785 
L 195.995076 -128.898048 
L 206.179356 -130.446016 
L 216.363636 -131.52891 
L 226.547917 -132.795484 
L 236.732197 -132.268302 
L 246.916477 -133.026393 
L 257.100758 -134.288968 
L 267.285038 -135.511647 
L 277.469318 -135.007457 
L 287.653598 -135.348326 
L 297.837879 -136.687072 
L 308.022159 -138.209225 
L 318.206439 -140.315503 
L 328.39072 -143.543267 
L 338.575 -143.744613 
L 348.75928 -143.710244 
L 358.943561 -144.276284 
L 369.127841 -144.337219 
L 379.312121 -144.544947 
L 389.496402 -143.923318 
L 399.680682 -143.900353 
L 409.864962 -144.872527 
L 420.049242 -146.029457 
L 430.233523 -146.653755 
L 440.417803 -147.554689 
L 450.602083 -148.577217 
L 460.786364 -148.654507 
L 470.970644 -147.464954 
L 481.154924 -145.228385 
L 491.339205 -143.545766 
L 501.523485 -141.308387 
L 511.707765 -139.291626 
L 521.892045 -136.96286 
L 532.076326 -134.602229 
L 542.260606 -134.374467 
L 552.444886 -136.072325 
L 562.629167 -136.224971 
L 572.813447 -135.588539 
L 582.997727 -133.120519 
L 582.997727 -136.81577 
L 582.997727 -136.81577 
L 572.813447 -141.21366 
L 562.629167 -141.551608 
L 552.444886 -141.328907 
L 542.260606 -139.593478 
L 532.076326 -140.485723 
L 521.892045 -142.967846 
L 511.707765 -145.352545 
L 501.523485 -147.553043 
L 491.339205 -149.525524 
L 481.154924 -151.079683 
L 470.970644 -153.026611 
L 460.786364 -154.034294 
L 450.602083 -154.124043 
L 440.417803 -152.907236 
L 430.233523 -151.899473 
L 420.049242 -151.521117 
L 409.864962 -150.027044 
L 399.680682 -148.996974 
L 389.496402 -148.803553 
L 379.312121 -149.626746 
L 369.127841 -149.773242 
L 358.943561 -149.533578 
L 348.75928 -148.633765 
L 338.575 -148.378652 
L 328.39072 -148.319768 
L 318.206439 -144.850561 
L 308.022159 -142.612305 
L 297.837879 -140.693153 
L 287.653598 -139.26735 
L 277.469318 -138.6287 
L 267.285038 -139.010689 
L 257.100758 -137.341779 
L 246.916477 -135.788388 
L 236.732197 -134.974523 
L 226.547917 -135.340079 
L 216.363636 -133.805515 
L 206.179356 -132.513428 
L 195.995076 -131.047998 
L 185.810795 -128.639636 
L 175.626515 -128.388493 
L 165.442235 -127.352614 
L 155.257955 -126.185713 
L 145.073674 -125.937979 
L 134.889394 -125.063306 
L 124.705114 -125.040065 
L 114.520833 -124.728781 
L 104.336553 -124.293461 
L 94.152273 -144.135582 
z
" style="stroke: #eb6ab0; stroke-opacity: 0.1"/>
    </defs>
    <g clip-path="url(#pc7e2614bdb)">
     <use xlink:href="#m3608589111" x="0" y="432" style="fill: #eb6ab0; fill-opacity: 0.1; stroke: #eb6ab0; stroke-opacity: 0.1"/>
    </g>
   </g>
   <g id="PathCollection_2">
    <defs>
     <path id="mc20ddbcba6" d="M 0 -3 
L -0.673542 -0.927051 
L -2.85317 -0.927051 
L -1.089814 0.354102 
L -1.763356 2.427051 
L -0 1.145898 
L 1.763356 2.427051 
L 1.089814 0.354102 
L 2.85317 -0.927051 
L 0.673542 -0.927051 
z
" style="stroke: #eb6ab0"/>
    </defs>
    <g clip-path="url(#pc7e2614bdb)">
     <use xlink:href="#mc20ddbcba6" x="246.916477" y="336.088005" style="fill: #eb6ab0; stroke: #eb6ab0"/>
     <use xlink:href="#mc20ddbcba6" x="257.100758" y="336.088005" style="fill: #eb6ab0; stroke: #eb6ab0"/>
     <use xlink:href="#mc20ddbcba6" x="267.285038" y="336.088005" style="fill: #eb6ab0; stroke: #eb6ab0"/>
     <use xlink:href="#mc20ddbcba6" x="277.469318" y="336.088005" style="fill: #eb6ab0; stroke: #eb6ab0"/>
     <use xlink:href="#mc20ddbcba6" x="287.653598" y="336.088005" style="fill: #eb6ab0; stroke: #eb6ab0"/>
     <use xlink:href="#mc20ddbcba6" x="297.837879" y="336.088005" style="fill: #eb6ab0; stroke: #eb6ab0"/>
     <use xlink:href="#mc20ddbcba6" x="308.022159" y="336.088005" style="fill: #eb6ab0; stroke: #eb6ab0"/>
     <use xlink:href="#mc20ddbcba6" x="318.206439" y="336.088005" style="fill: #eb6ab0; stroke: #eb6ab0"/>
     <use xlink:href="#mc20ddbcba6" x="328.39072" y="336.088005" style="fill: #eb6ab0; stroke: #eb6ab0"/>
     <use xlink:href="#mc20ddbcba6" x="338.575" y="336.088005" style="fill: #eb6ab0; stroke: #eb6ab0"/>
     <use xlink:href="#mc20ddbcba6" x="348.75928" y="336.088005" style="fill: #eb6ab0; stroke: #eb6ab0"/>
     <use xlink:href="#mc20ddbcba6" x="358.943561" y="336.088005" style="fill: #eb6ab0; stroke: #eb6ab0"/>
     <use xlink:href="#mc20ddbcba6" x="369.127841" y="336.088005" style="fill: #eb6ab0; stroke: #eb6ab0"/>
     <use xlink:href="#mc20ddbcba6" x="379.312121" y="336.088005" style="fill: #eb6ab0; stroke: #eb6ab0"/>
     <use xlink:href="#mc20ddbcba6" x="389.496402" y="336.088005" style="fill: #eb6ab0; stroke: #eb6ab0"/>
     <use xlink:href="#mc20ddbcba6" x="399.680682" y="336.088005" style="fill: #eb6ab0; stroke: #eb6ab0"/>
     <use xlink:href="#mc20ddbcba6" x="409.864962" y="336.088005" style="fill: #eb6ab0; stroke: #eb6ab0"/>
     <use xlink:href="#mc20ddbcba6" x="420.049242" y="336.088005" style="fill: #eb6ab0; stroke: #eb6ab0"/>
     <use xlink:href="#mc20ddbcba6" x="430.233523" y="336.088005" style="fill: #eb6ab0; stroke: #eb6ab0"/>
     <use xlink:href="#mc20ddbcba6" x="440.417803" y="336.088005" style="fill: #eb6ab0; stroke: #eb6ab0"/>
     <use xlink:href="#mc20ddbcba6" x="450.602083" y="336.088005" style="fill: #eb6ab0; stroke: #eb6ab0"/>
     <use xlink:href="#mc20ddbcba6" x="460.786364" y="336.088005" style="fill: #eb6ab0; stroke: #eb6ab0"/>
     <use xlink:href="#mc20ddbcba6" x="470.970644" y="336.088005" style="fill: #eb6ab0; stroke: #eb6ab0"/>
     <use xlink:href="#mc20ddbcba6" x="481.154924" y="336.088005" style="fill: #eb6ab0; stroke: #eb6ab0"/>
     <use xlink:href="#mc20ddbcba6" x="491.339205" y="336.088005" style="fill: #eb6ab0; stroke: #eb6ab0"/>
     <use xlink:href="#mc20ddbcba6" x="501.523485" y="336.088005" style="fill: #eb6ab0; stroke: #eb6ab0"/>
     <use xlink:href="#mc20ddbcba6" x="511.707765" y="336.088005" style="fill: #eb6ab0; stroke: #eb6ab0"/>
     <use xlink:href="#mc20ddbcba6" x="521.892045" y="336.088005" style="fill: #eb6ab0; stroke: #eb6ab0"/>
     <use xlink:href="#mc20ddbcba6" x="532.076326" y="336.088005" style="fill: #eb6ab0; stroke: #eb6ab0"/>
     <use xlink:href="#mc20ddbcba6" x="542.260606" y="336.088005" style="fill: #eb6ab0; stroke: #eb6ab0"/>
     <use xlink:href="#mc20ddbcba6" x="552.444886" y="336.088005" style="fill: #eb6ab0; stroke: #eb6ab0"/>
     <use xlink:href="#mc20ddbcba6" x="562.629167" y="336.088005" style="fill: #eb6ab0; stroke: #eb6ab0"/>
     <use xlink:href="#mc20ddbcba6" x="572.813447" y="336.088005" style="fill: #eb6ab0; stroke: #eb6ab0"/>
     <use xlink:href="#mc20ddbcba6" x="582.997727" y="336.088005" style="fill: #eb6ab0; stroke: #eb6ab0"/>
    </g>
   </g>
   <g id="line2d_1">
    <path d="M 94.152273 354.787799 
L 104.336553 280.710848 
L 114.520833 254.685012 
L 124.705114 308.264217 
L 134.889394 297.526059 
L 145.073674 302.147971 
L 155.257955 322.351573 
L 165.442235 295.201652 
L 175.626515 306.463255 
L 185.810795 291.243297 
L 195.995076 285.060405 
L 206.179356 291.105697 
L 216.363636 242.177643 
L 226.547917 193.658221 
L 236.732197 235.912785 
L 246.916477 227.339997 
L 257.100758 208.897861 
L 267.285038 183.101793 
L 277.469318 230.357801 
L 287.653598 212.272 
L 297.837879 183.112195 
L 308.022159 203.380746 
L 318.206439 214.546465 
L 328.39072 171.357816 
L 338.575 210.521193 
L 348.75928 240.837879 
L 358.943561 214.084161 
L 369.127841 196.808266 
L 379.312121 205.461083 
L 389.496402 193.469688 
L 399.680682 197.783874 
L 409.864962 132.784171 
L 420.049242 155.459678 
L 430.233523 177.750929 
L 440.417803 191.919503 
L 450.602083 227.139983 
L 460.786364 278.999528 
L 470.970644 287.3227 
L 481.154924 265.26222 
L 491.339205 227.133114 
L 501.523485 303.519333 
L 511.707765 298.459783 
L 521.892045 309.074829 
L 532.076326 274.959996 
L 542.260606 235.838336 
L 552.444886 227.515295 
L 562.629167 256.309832 
L 572.813447 260.351808 
L 582.997727 305.093656 
" clip-path="url(#pc7e2614bdb)" style="fill: none; stroke: #8b0a50; stroke-width: 2; stroke-linecap: round"/>
   </g>
   <g id="line2d_2">
    <path d="M 94.152273 310.010669 
L 104.336553 302.437299 
L 114.520833 308.345424 
L 124.705114 305.463414 
L 134.889394 308.878667 
L 145.073674 316.420167 
L 155.257955 305.981781 
L 165.442235 295.448206 
L 175.626515 297.57441 
L 185.810795 300.251383 
L 195.995076 286.117098 
L 206.179356 300.852897 
L 216.363636 292.839343 
L 226.547917 290.228611 
L 236.732197 295.902886 
L 246.916477 285.27261 
L 257.100758 291.068468 
L 267.285038 279.277153 
L 277.469318 287.30597 
L 287.653598 284.793035 
L 297.837879 297.05886 
L 308.022159 287.453975 
L 318.206439 296.443353 
L 328.39072 278.717905 
L 338.575 291.7102 
L 348.75928 303.066039 
L 358.943561 297.225074 
L 369.127841 308.871293 
L 379.312121 293.928307 
L 389.496402 285.776734 
L 399.680682 286.202396 
L 409.864962 268.514904 
L 420.049242 269.793641 
L 430.233523 293.262749 
L 440.417803 286.459227 
L 450.602083 304.148469 
L 460.786364 309.12241 
L 470.970644 309.850367 
L 481.154924 310.282241 
L 491.339205 313.089588 
L 501.523485 310.210301 
L 511.707765 297.443276 
L 521.892045 310.463912 
L 532.076326 308.227305 
L 542.260606 319.733931 
L 552.444886 311.634795 
L 562.629167 304.57854 
L 572.813447 310.470782 
L 582.997727 309.40941 
" clip-path="url(#pc7e2614bdb)" style="fill: none; stroke-dasharray: 7.4,3.2; stroke-dashoffset: 0; stroke: #8b0a50; stroke-width: 2"/>
   </g>
   <g id="line2d_3">
    <path d="M 195.995076 377.54 
L 195.995076 26.96 
" clip-path="url(#pc7e2614bdb)" style="fill: none; stroke-dasharray: 5.55,2.4; stroke-dashoffset: 0; stroke: #1a1a1a; stroke-width: 1.5"/>
   </g>
   <g id="line2d_4">
    <path d="M 450.602083 377.54 
L 450.602083 26.96 
" clip-path="url(#pc7e2614bdb)" style="fill: none; stroke-dasharray: 5.55,2.4; stroke-dashoffset: 0; stroke: #1a1a1a; stroke-width: 1.5"/>
   </g>
   <g id="line2d_5">
    <path d="M 94.152273 285.708783 
L 104.336553 319.768332 
L 114.520833 315.639041 
L 124.705114 309.535377 
L 134.889394 306.697545 
L 145.073674 306.010224 
L 155.257955 307.535054 
L 165.442235 306.770899 
L 175.626515 306.197645 
L 185.810795 307.534954 
L 195.995076 304.084637 
L 206.179356 301.702864 
L 216.363636 301.632474 
L 226.547917 297.332694 
L 236.732197 284.899429 
L 246.916477 275.754249 
L 257.100758 263.885901 
L 267.285038 249.505024 
L 277.469318 233.059736 
L 287.653598 221.940835 
L 297.837879 209.009842 
L 308.022159 195.733023 
L 318.206439 184.32797 
L 328.39072 173.691112 
L 338.575 163.944229 
L 348.75928 158.58043 
L 358.943561 154.655524 
L 369.127841 146.292671 
L 379.312121 139.099759 
L 389.496402 126.832074 
L 399.680682 116.830653 
L 409.864962 106.947199 
L 420.049242 96.211847 
L 430.233523 86.40988 
L 440.417803 75.714568 
L 450.602083 69.27178 
L 460.786364 73.528516 
L 470.970644 88.438383 
L 481.154924 101.655939 
L 491.339205 108.627988 
L 501.523485 116.740773 
L 511.707765 124.494921 
L 521.892045 129.554906 
L 532.076326 134.282053 
L 542.260606 138.720371 
L 552.444886 139.477987 
L 562.629167 141.401516 
L 572.813447 144.230318 
L 582.997727 198.756864 
" clip-path="url(#pc7e2614bdb)" style="fill: none; stroke: #eb6ab0; stroke-width: 2; stroke-linecap: round"/>
   </g>
   <g id="line2d_6">
    <path d="M 94.152273 293.304435 
L 104.336553 308.741197 
L 114.520833 308.244874 
L 124.705114 307.954808 
L 134.889394 307.869479 
L 145.073674 306.809408 
L 155.257955 306.585634 
L 165.442235 305.466217 
L 175.626515 304.442508 
L 185.810795 304.19379 
L 195.995076 302.026977 
L 206.179356 300.520278 
L 216.363636 299.332787 
L 226.547917 297.932219 
L 236.732197 298.378588 
L 246.916477 297.59261 
L 257.100758 296.184627 
L 267.285038 294.738832 
L 277.469318 295.181921 
L 287.653598 294.692162 
L 297.837879 293.309888 
L 308.022159 291.589235 
L 318.206439 289.416968 
L 328.39072 286.068482 
L 338.575 285.938367 
L 348.75928 285.827995 
L 358.943561 285.095069 
L 369.127841 284.944769 
L 379.312121 284.914153 
L 389.496402 285.636565 
L 399.680682 285.551336 
L 409.864962 284.550215 
L 420.049242 283.224713 
L 430.233523 282.723386 
L 440.417803 281.769038 
L 450.602083 280.64937 
L 460.786364 280.655599 
L 470.970644 281.754218 
L 481.154924 283.845966 
L 491.339205 285.464355 
L 501.523485 287.569285 
L 511.707765 289.677915 
L 521.892045 292.034647 
L 532.076326 294.456024 
L 542.260606 295.016028 
L 552.444886 293.299384 
L 562.629167 293.111711 
L 572.813447 293.5989 
L 582.997727 297.031856 
" clip-path="url(#pc7e2614bdb)" style="fill: none; stroke-dasharray: 7.4,3.2; stroke-dashoffset: 0; stroke: #eb6ab0; stroke-width: 2"/>
   </g>
   <g id="line2d_7">
    <path d="M 195.995076 377.54 
L 195.995076 26.96 
" clip-path="url(#pc7e2614bdb)" style="fill: none; stroke-dasharray: 5.55,2.4; stroke-dashoffset: 0; stroke: #1a1a1a; stroke-width: 1.5"/>
   </g>
   <g id="line2d_8">
    <path d="M 450.602083 377.54 
L 450.602083 26.96 
" clip-path="url(#pc7e2614bdb)" style="fill: none; stroke-dasharray: 5.55,2.4; stroke-dashoffset: 0; stroke: #1a1a1a; stroke-width: 1.5"/>
   </g>
   <g id="patch_3">
    <path d="M 69.71 377.54 
L 69.71 26.96 
" style="fill: none; stroke: #cccccc; stroke-width: 1.5; stroke-linejoin: miter; stroke-linecap: square"/>
   </g>
   <g id="patch_4">
    <path d="M 69.71 377.54 
L 607.44 377.54 
" style="fill: none; stroke: #cccccc; stroke-width: 1.5; stroke-linejoin: miter; stroke-linecap: square"/>
   </g>
   <g id="text_15">
    <!-- Divergence Comparison: Original vs Shuffled -->
    <g style="fill: #262626" transform="translate(189.0625 20.96) scale(0.15 -0.15)">
     <defs>
      <path id="ArialMT-43" d="M 3763 1606 
L 4369 1453 
Q 4178 706 3683 314 
Q 3188 -78 2472 -78 
Q 1731 -78 1267 223 
Q 803 525 561 1097 
Q 319 1669 319 2325 
Q 319 3041 592 3573 
Q 866 4106 1370 4382 
Q 1875 4659 2481 4659 
Q 3169 4659 3637 4309 
Q 4106 3959 4291 3325 
L 3694 3184 
Q 3534 3684 3231 3912 
Q 2928 4141 2469 4141 
Q 1941 4141 1586 3887 
Q 1231 3634 1087 3207 
Q 944 2781 944 2328 
Q 944 1744 1114 1308 
Q 1284 872 1643 656 
Q 2003 441 2422 441 
Q 2931 441 3284 734 
Q 3638 1028 3763 1606 
z
" transform="scale(0.015625)"/>
      <path id="ArialMT-6f" d="M 213 1659 
Q 213 2581 725 3025 
Q 1153 3394 1769 3394 
Q 2453 3394 2887 2945 
Q 3322 2497 3322 1706 
Q 3322 1066 3130 698 
Q 2938 331 2570 128 
Q 2203 -75 1769 -75 
Q 1072 -75 642 372 
Q 213 819 213 1659 
z
M 791 1659 
Q 791 1022 1069 705 
Q 1347 388 1769 388 
Q 2188 388 2466 706 
Q 2744 1025 2744 1678 
Q 2744 2294 2464 2611 
Q 2184 2928 1769 2928 
Q 1347 2928 1069 2612 
Q 791 2297 791 1659 
z
" transform="scale(0.015625)"/>
      <path id="ArialMT-70" d="M 422 -1272 
L 422 3319 
L 934 3319 
L 934 2888 
Q 1116 3141 1344 3267 
Q 1572 3394 1897 3394 
Q 2322 3394 2647 3175 
Q 2972 2956 3137 2557 
Q 3303 2159 3303 1684 
Q 3303 1175 3120 767 
Q 2938 359 2589 142 
Q 2241 -75 1856 -75 
Q 1575 -75 1351 44 
Q 1128 163 984 344 
L 984 -1272 
L 422 -1272 
z
M 931 1641 
Q 931 1000 1190 694 
Q 1450 388 1819 388 
Q 2194 388 2461 705 
Q 2728 1022 2728 1688 
Q 2728 2322 2467 2637 
Q 2206 2953 1844 2953 
Q 1484 2953 1207 2617 
Q 931 2281 931 1641 
z
" transform="scale(0.015625)"/>
      <path id="ArialMT-61" d="M 2588 409 
Q 2275 144 1986 34 
Q 1697 -75 1366 -75 
Q 819 -75 525 192 
Q 231 459 231 875 
Q 231 1119 342 1320 
Q 453 1522 633 1644 
Q 813 1766 1038 1828 
Q 1203 1872 1538 1913 
Q 2219 1994 2541 2106 
Q 2544 2222 2544 2253 
Q 2544 2597 2384 2738 
Q 2169 2928 1744 2928 
Q 1347 2928 1158 2789 
Q 969 2650 878 2297 
L 328 2372 
Q 403 2725 575 2942 
Q 747 3159 1072 3276 
Q 1397 3394 1825 3394 
Q 2250 3394 2515 3294 
Q 2781 3194 2906 3042 
Q 3031 2891 3081 2659 
Q 3109 2516 3109 2141 
L 3109 1391 
Q 3109 606 3145 398 
Q 3181 191 3288 0 
L 2700 0 
Q 2613 175 2588 409 
z
M 2541 1666 
Q 2234 1541 1622 1453 
Q 1275 1403 1131 1340 
Q 988 1278 909 1158 
Q 831 1038 831 891 
Q 831 666 1001 516 
Q 1172 366 1500 366 
Q 1825 366 2078 508 
Q 2331 650 2450 897 
Q 2541 1088 2541 1459 
L 2541 1666 
z
" transform="scale(0.015625)"/>
      <path id="ArialMT-3a" d="M 578 2678 
L 578 3319 
L 1219 3319 
L 1219 2678 
L 578 2678 
z
M 578 0 
L 578 641 
L 1219 641 
L 1219 0 
L 578 0 
z
" transform="scale(0.015625)"/>
      <path id="ArialMT-4f" d="M 309 2231 
Q 309 3372 921 4017 
Q 1534 4663 2503 4663 
Q 3138 4663 3647 4359 
Q 4156 4056 4423 3514 
Q 4691 2972 4691 2284 
Q 4691 1588 4409 1038 
Q 4128 488 3612 205 
Q 3097 -78 2500 -78 
Q 1853 -78 1343 234 
Q 834 547 571 1087 
Q 309 1628 309 2231 
z
M 934 2222 
Q 934 1394 1379 917 
Q 1825 441 2497 441 
Q 3181 441 3623 922 
Q 4066 1403 4066 2288 
Q 4066 2847 3877 3264 
Q 3688 3681 3323 3911 
Q 2959 4141 2506 4141 
Q 1863 4141 1398 3698 
Q 934 3256 934 2222 
z
" transform="scale(0.015625)"/>
      <path id="ArialMT-6c" d="M 409 0 
L 409 4581 
L 972 4581 
L 972 0 
L 409 0 
z
" transform="scale(0.015625)"/>
      <path id="ArialMT-53" d="M 288 1472 
L 859 1522 
Q 900 1178 1048 958 
Q 1197 738 1509 602 
Q 1822 466 2213 466 
Q 2559 466 2825 569 
Q 3091 672 3220 851 
Q 3350 1031 3350 1244 
Q 3350 1459 3225 1620 
Q 3100 1781 2813 1891 
Q 2628 1963 1997 2114 
Q 1366 2266 1113 2400 
Q 784 2572 623 2826 
Q 463 3081 463 3397 
Q 463 3744 659 4045 
Q 856 4347 1234 4503 
Q 1613 4659 2075 4659 
Q 2584 4659 2973 4495 
Q 3363 4331 3572 4012 
Q 3781 3694 3797 3291 
L 3216 3247 
Q 3169 3681 2898 3903 
Q 2628 4125 2100 4125 
Q 1550 4125 1298 3923 
Q 1047 3722 1047 3438 
Q 1047 3191 1225 3031 
Q 1400 2872 2139 2705 
Q 2878 2538 3153 2413 
Q 3553 2228 3743 1945 
Q 3934 1663 3934 1294 
Q 3934 928 3725 604 
Q 3516 281 3123 101 
Q 2731 -78 2241 -78 
Q 1619 -78 1198 103 
Q 778 284 539 648 
Q 300 1013 288 1472 
z
" transform="scale(0.015625)"/>
      <path id="ArialMT-68" d="M 422 0 
L 422 4581 
L 984 4581 
L 984 2938 
Q 1378 3394 1978 3394 
Q 2347 3394 2619 3248 
Q 2891 3103 3008 2847 
Q 3125 2591 3125 2103 
L 3125 0 
L 2563 0 
L 2563 2103 
Q 2563 2525 2380 2717 
Q 2197 2909 1863 2909 
Q 1613 2909 1392 2779 
Q 1172 2650 1078 2428 
Q 984 2206 984 1816 
L 984 0 
L 422 0 
z
" transform="scale(0.015625)"/>
      <path id="ArialMT-75" d="M 2597 0 
L 2597 488 
Q 2209 -75 1544 -75 
Q 1250 -75 995 37 
Q 741 150 617 320 
Q 494 491 444 738 
Q 409 903 409 1263 
L 409 3319 
L 972 3319 
L 972 1478 
Q 972 1038 1006 884 
Q 1059 663 1231 536 
Q 1403 409 1656 409 
Q 1909 409 2131 539 
Q 2353 669 2445 892 
Q 2538 1116 2538 1541 
L 2538 3319 
L 3100 3319 
L 3100 0 
L 2597 0 
z
" transform="scale(0.015625)"/>
      <path id="ArialMT-66" d="M 556 0 
L 556 2881 
L 59 2881 
L 59 3319 
L 556 3319 
L 556 3672 
Q 556 4006 616 4169 
Q 697 4388 901 4523 
Q 1106 4659 1475 4659 
Q 1713 4659 2000 4603 
L 1916 4113 
Q 1741 4144 1584 4144 
Q 1328 4144 1222 4034 
Q 1116 3925 1116 3625 
L 1116 3319 
L 1763 3319 
L 1763 2881 
L 1116 2881 
L 1116 0 
L 556 0 
z
" transform="scale(0.015625)"/>
      <path id="ArialMT-64" d="M 2575 0 
L 2575 419 
Q 2259 -75 1647 -75 
Q 1250 -75 917 144 
Q 584 363 401 755 
Q 219 1147 219 1656 
Q 219 2153 384 2558 
Q 550 2963 881 3178 
Q 1213 3394 1622 3394 
Q 1922 3394 2156 3267 
Q 2391 3141 2538 2938 
L 2538 4581 
L 3097 4581 
L 3097 0 
L 2575 0 
z
M 797 1656 
Q 797 1019 1065 703 
Q 1334 388 1700 388 
Q 2069 388 2326 689 
Q 2584 991 2584 1609 
Q 2584 2291 2321 2609 
Q 2059 2928 1675 2928 
Q 1300 2928 1048 2622 
Q 797 2316 797 1656 
z
" transform="scale(0.015625)"/>
     </defs>
     <use xlink:href="#ArialMT-44"/>
     <use xlink:href="#ArialMT-69" x="72.216797"/>
     <use xlink:href="#ArialMT-76" x="94.433594"/>
     <use xlink:href="#ArialMT-65" x="144.433594"/>
     <use xlink:href="#ArialMT-72" x="200.048828"/>
     <use xlink:href="#ArialMT-67" x="233.349609"/>
     <use xlink:href="#ArialMT-65" x="288.964844"/>
     <use xlink:href="#ArialMT-6e" x="344.580078"/>
     <use xlink:href="#ArialMT-63" x="400.195312"/>
     <use xlink:href="#ArialMT-65" x="450.195312"/>
     <use xlink:href="#ArialMT-20" x="505.810547"/>
     <use xlink:href="#ArialMT-43" x="533.59375"/>
     <use xlink:href="#ArialMT-6f" x="605.810547"/>
     <use xlink:href="#ArialMT-6d" x="661.425781"/>
     <use xlink:href="#ArialMT-70" x="744.726562"/>
     <use xlink:href="#ArialMT-61" x="800.341797"/>
     <use xlink:href="#ArialMT-72" x="855.957031"/>
     <use xlink:href="#ArialMT-69" x="889.257812"/>
     <use xlink:href="#ArialMT-73" x="911.474609"/>
     <use xlink:href="#ArialMT-6f" x="961.474609"/>
     <use xlink:href="#ArialMT-6e" x="1017.089844"/>
     <use xlink:href="#ArialMT-3a" x="1072.705078"/>
     <use xlink:href="#ArialMT-20" x="1100.488281"/>
     <use xlink:href="#ArialMT-4f" x="1128.271484"/>
     <use xlink:href="#ArialMT-72" x="1206.054688"/>
     <use xlink:href="#ArialMT-69" x="1239.355469"/>
     <use xlink:href="#ArialMT-67" x="1261.572266"/>
     <use xlink:href="#ArialMT-69" x="1317.1875"/>
     <use xlink:href="#ArialMT-6e" x="1339.404297"/>
     <use xlink:href="#ArialMT-61" x="1395.019531"/>
     <use xlink:href="#ArialMT-6c" x="1450.634766"/>
     <use xlink:href="#ArialMT-20" x="1472.851562"/>
     <use xlink:href="#ArialMT-76" x="1500.634766"/>
     <use xlink:href="#ArialMT-73" x="1550.634766"/>
     <use xlink:href="#ArialMT-20" x="1600.634766"/>
     <use xlink:href="#ArialMT-53" x="1628.417969"/>
     <use xlink:href="#ArialMT-68" x="1695.117188"/>
     <use xlink:href="#ArialMT-75" x="1750.732422"/>
     <use xlink:href="#ArialMT-66" x="1806.347656"/>
     <use xlink:href="#ArialMT-66" x="1832.380859"/>
     <use xlink:href="#ArialMT-6c" x="1860.164062"/>
     <use xlink:href="#ArialMT-65" x="1882.380859"/>
     <use xlink:href="#ArialMT-64" x="1937.996094"/>
    </g>
   </g>
   <g id="legend_1">
    <g id="patch_5">
     <path d="M 615.14 258.915469 
L 704.741875 258.915469 
Q 706.941875 258.915469 706.941875 256.715469 
L 706.941875 147.784531 
Q 706.941875 145.584531 704.741875 145.584531 
L 615.14 145.584531 
Q 612.94 145.584531 612.94 147.784531 
L 612.94 256.715469 
Q 612.94 258.915469 615.14 258.915469 
z
" style="fill: #ffffff; opacity: 0.8; stroke: #cccccc; stroke-linejoin: miter"/>
    </g>
    <g id="line2d_9">
     <path d="M 617.34 154.149062 
L 628.34 154.149062 
L 639.34 154.149062 
" style="fill: none; stroke: #8b0a50; stroke-width: 2; stroke-linecap: round"/>
    </g>
    <g id="text_16">
     <!-- Original -->
     <g style="fill: #262626" transform="translate(648.14 157.999062) scale(0.11 -0.11)">
      <use xlink:href="#ArialMT-4f"/>
      <use xlink:href="#ArialMT-72" x="77.783203"/>
      <use xlink:href="#ArialMT-69" x="111.083984"/>
      <use xlink:href="#ArialMT-67" x="133.300781"/>
      <use xlink:href="#ArialMT-69" x="188.916016"/>
      <use xlink:href="#ArialMT-6e" x="211.132812"/>
      <use xlink:href="#ArialMT-61" x="266.748047"/>
      <use xlink:href="#ArialMT-6c" x="322.363281"/>
     </g>
    </g>
    <g id="line2d_10">
     <path d="M 617.34 169.97875 
L 628.34 169.97875 
L 639.34 169.97875 
" style="fill: none; stroke-dasharray: 7.4,3.2; stroke-dashoffset: 0; stroke: #8b0a50; stroke-width: 2"/>
    </g>
    <g id="text_17">
     <!-- Original -->
     <g style="fill: #262626" transform="translate(648.14 173.82875) scale(0.11 -0.11)">
      <use xlink:href="#ArialMT-4f"/>
      <use xlink:href="#ArialMT-72" x="77.783203"/>
      <use xlink:href="#ArialMT-69" x="111.083984"/>
      <use xlink:href="#ArialMT-67" x="133.300781"/>
      <use xlink:href="#ArialMT-69" x="188.916016"/>
      <use xlink:href="#ArialMT-6e" x="211.132812"/>
      <use xlink:href="#ArialMT-61" x="266.748047"/>
      <use xlink:href="#ArialMT-6c" x="322.363281"/>
     </g>
    </g>
    <g id="PathCollection_3">
     <g>
      <use xlink:href="#ma198ff5119" x="628.34" y="186.662656" style="fill: #8b0a50; stroke: #8b0a50"/>
     </g>
    </g>
    <g id="text_18">
     <!-- p &lt; 0.001 -->
     <g style="fill: #262626" transform="translate(648.14 189.550156) scale(0.11 -0.11)">
      <defs>
       <path id="ArialMT-3c" d="M 350 2003 
L 350 2528 
L 3384 3809 
L 3384 3250 
L 978 2263 
L 3384 1266 
L 3384 706 
L 350 2003 
z
" transform="scale(0.015625)"/>
      </defs>
      <use xlink:href="#ArialMT-70"/>
      <use xlink:href="#ArialMT-20" x="55.615234"/>
      <use xlink:href="#ArialMT-3c" x="83.398438"/>
      <use xlink:href="#ArialMT-20" x="141.796875"/>
      <use xlink:href="#ArialMT-30" x="169.580078"/>
      <use xlink:href="#ArialMT-2e" x="225.195312"/>
      <use xlink:href="#ArialMT-30" x="252.978516"/>
      <use xlink:href="#ArialMT-30" x="308.59375"/>
      <use xlink:href="#ArialMT-31" x="364.208984"/>
     </g>
    </g>
    <g id="line2d_11">
     <path d="M 617.34 201.26 
L 628.34 201.26 
L 639.34 201.26 
" style="fill: none; stroke-dasharray: 5.55,2.4; stroke-dashoffset: 0; stroke: #1a1a1a; stroke-width: 1.5"/>
    </g>
    <g id="text_19">
     <!-- Stim Onset -->
     <g style="fill: #262626" transform="translate(648.14 205.11) scale(0.11 -0.11)">
      <defs>
       <path id="ArialMT-74" d="M 1650 503 
L 1731 6 
Q 1494 -44 1306 -44 
Q 1000 -44 831 53 
Q 663 150 594 308 
Q 525 466 525 972 
L 525 2881 
L 113 2881 
L 113 3319 
L 525 3319 
L 525 4141 
L 1084 4478 
L 1084 3319 
L 1650 3319 
L 1650 2881 
L 1084 2881 
L 1084 941 
Q 1084 700 1114 631 
Q 1144 563 1211 522 
Q 1278 481 1403 481 
Q 1497 481 1650 503 
z
" transform="scale(0.015625)"/>
      </defs>
      <use xlink:href="#ArialMT-53"/>
      <use xlink:href="#ArialMT-74" x="66.699219"/>
      <use xlink:href="#ArialMT-69" x="94.482422"/>
      <use xlink:href="#ArialMT-6d" x="116.699219"/>
      <use xlink:href="#ArialMT-20" x="200"/>
      <use xlink:href="#ArialMT-4f" x="227.783203"/>
      <use xlink:href="#ArialMT-6e" x="305.566406"/>
      <use xlink:href="#ArialMT-73" x="361.181641"/>
      <use xlink:href="#ArialMT-65" x="411.181641"/>
      <use xlink:href="#ArialMT-74" x="466.796875"/>
     </g>
    </g>
    <g id="line2d_12">
     <path d="M 617.34 216.819844 
L 628.34 216.819844 
L 639.34 216.819844 
" style="fill: none; stroke-dasharray: 5.55,2.4; stroke-dashoffset: 0; stroke: #1a1a1a; stroke-width: 1.5"/>
    </g>
    <g id="text_20">
     <!-- Stim End -->
     <g style="fill: #262626" transform="translate(648.14 220.669844) scale(0.11 -0.11)">
      <defs>
       <path id="ArialMT-45" d="M 506 0 
L 506 4581 
L 3819 4581 
L 3819 4041 
L 1113 4041 
L 1113 2638 
L 3647 2638 
L 3647 2100 
L 1113 2100 
L 1113 541 
L 3925 541 
L 3925 0 
L 506 0 
z
" transform="scale(0.015625)"/>
      </defs>
      <use xlink:href="#ArialMT-53"/>
      <use xlink:href="#ArialMT-74" x="66.699219"/>
      <use xlink:href="#ArialMT-69" x="94.482422"/>
      <use xlink:href="#ArialMT-6d" x="116.699219"/>
      <use xlink:href="#ArialMT-20" x="200"/>
      <use xlink:href="#ArialMT-45" x="227.783203"/>
      <use xlink:href="#ArialMT-6e" x="294.482422"/>
      <use xlink:href="#ArialMT-64" x="350.097656"/>
     </g>
    </g>
    <g id="line2d_13">
     <path d="M 617.34 232.520625 
L 628.34 232.520625 
L 639.34 232.520625 
" style="fill: none; stroke: #eb6ab0; stroke-width: 2; stroke-linecap: round"/>
    </g>
    <g id="text_21">
     <!-- Original -->
     <g style="fill: #262626" transform="translate(648.14 236.370625) scale(0.11 -0.11)">
      <use xlink:href="#ArialMT-4f"/>
      <use xlink:href="#ArialMT-72" x="77.783203"/>
      <use xlink:href="#ArialMT-69" x="111.083984"/>
      <use xlink:href="#ArialMT-67" x="133.300781"/>
      <use xlink:href="#ArialMT-69" x="188.916016"/>
      <use xlink:href="#ArialMT-6e" x="211.132812"/>
      <use xlink:href="#ArialMT-61" x="266.748047"/>
      <use xlink:href="#ArialMT-6c" x="322.363281"/>
     </g>
    </g>
    <g id="line2d_14">
     <path d="M 617.34 248.350313 
L 628.34 248.350313 
L 639.34 248.350313 
" style="fill: none; stroke-dasharray: 7.4,3.2; stroke-dashoffset: 0; stroke: #eb6ab0; stroke-width: 2"/>
    </g>
    <g id="text_22">
     <!-- Original -->
     <g style="fill: #262626" transform="translate(648.14 252.200312) scale(0.11 -0.11)">
      <use xlink:href="#ArialMT-4f"/>
      <use xlink:href="#ArialMT-72" x="77.783203"/>
      <use xlink:href="#ArialMT-69" x="111.083984"/>
      <use xlink:href="#ArialMT-67" x="133.300781"/>
      <use xlink:href="#ArialMT-69" x="188.916016"/>
      <use xlink:href="#ArialMT-6e" x="211.132812"/>
      <use xlink:href="#ArialMT-61" x="266.748047"/>
      <use xlink:href="#ArialMT-6c" x="322.363281"/>
     </g>
    </g>
   </g>
  </g>
 </g>
 <defs>
  <clipPath id="pc7e2614bdb">
   <rect x="69.71" y="26.96" width="537.73" height="350.58"/>
  </clipPath>
 </defs>
</svg>
