<?xml version="1.0" encoding="utf-8" standalone="no"?>
<!DOCTYPE svg PUBLIC "-//W3C//DTD SVG 1.1//EN"
  "http://www.w3.org/Graphics/SVG/1.1/DTD/svg11.dtd">
<svg xmlns:xlink="http://www.w3.org/1999/xlink" width="720pt" height="432pt" viewBox="0 0 720 432" xmlns="http://www.w3.org/2000/svg" version="1.1">
 <metadata>
  <rdf:RDF xmlns:dc="http://purl.org/dc/elements/1.1/" xmlns:cc="http://creativecommons.org/ns#" xmlns:rdf="http://www.w3.org/1999/02/22-rdf-syntax-ns#">
   <cc:Work>
    <dc:type rdf:resource="http://purl.org/dc/dcmitype/StillImage"/>
    <dc:date>2025-08-01T10:41:16.235429</dc:date>
    <dc:format>image/svg+xml</dc:format>
    <dc:creator>
     <cc:Agent>
      <dc:title>Matplotlib v3.9.4, https://matplotlib.org/</dc:title>
     </cc:Agent>
    </dc:creator>
   </cc:Work>
  </rdf:RDF>
 </metadata>
 <defs>
  <style type="text/css">*{stroke-linejoin: round; stroke-linecap: butt}</style>
 </defs>
 <g id="figure_1">
  <g id="patch_1">
   <path d="M 0 432 
L 720 432 
L 720 0 
L 0 0 
z
" style="fill: #ffffff"/>
  </g>
  <g id="axes_1">
   <g id="patch_2">
    <path d="M 69.57 378.18 
L 607.76 378.18 
L 607.76 27.6 
L 69.57 27.6 
L 69.57 378.18 
z
" style="fill: none"/>
   </g>
   <g id="matplotlib.axis_1">
    <g id="xtick_1">
     <g id="text_1">
      <!-- −250 -->
      <g style="fill: #262626" transform="translate(101.071977 398.416719) scale(0.15 -0.15)">
       <defs>
        <path id="ArialMT-2212" d="M 3381 1997 
L 356 1997 
L 356 2522 
L 3381 2522 
L 3381 1997 
z
" transform="scale(0.015625)"/>
        <path id="ArialMT-32" d="M 3222 541 
L 3222 0 
L 194 0 
Q 188 203 259 391 
Q 375 700 629 1000 
Q 884 1300 1366 1694 
Q 2113 2306 2375 2664 
Q 2638 3022 2638 3341 
Q 2638 3675 2398 3904 
Q 2159 4134 1775 4134 
Q 1369 4134 1125 3890 
Q 881 3647 878 3216 
L 300 3275 
Q 359 3922 746 4261 
Q 1134 4600 1788 4600 
Q 2447 4600 2831 4234 
Q 3216 3869 3216 3328 
Q 3216 3053 3103 2787 
Q 2991 2522 2730 2228 
Q 2469 1934 1863 1422 
Q 1356 997 1212 845 
Q 1069 694 975 541 
L 3222 541 
z
" transform="scale(0.015625)"/>
        <path id="ArialMT-35" d="M 266 1200 
L 856 1250 
Q 922 819 1161 601 
Q 1400 384 1738 384 
Q 2144 384 2425 690 
Q 2706 997 2706 1503 
Q 2706 1984 2436 2262 
Q 2166 2541 1728 2541 
Q 1456 2541 1237 2417 
Q 1019 2294 894 2097 
L 366 2166 
L 809 4519 
L 3088 4519 
L 3088 3981 
L 1259 3981 
L 1013 2750 
Q 1425 3038 1878 3038 
Q 2478 3038 2890 2622 
Q 3303 2206 3303 1553 
Q 3303 931 2941 478 
Q 2500 -78 1738 -78 
Q 1113 -78 717 272 
Q 322 622 266 1200 
z
" transform="scale(0.015625)"/>
        <path id="ArialMT-30" d="M 266 2259 
Q 266 3072 433 3567 
Q 600 4063 929 4331 
Q 1259 4600 1759 4600 
Q 2128 4600 2406 4451 
Q 2684 4303 2865 4023 
Q 3047 3744 3150 3342 
Q 3253 2941 3253 2259 
Q 3253 1453 3087 958 
Q 2922 463 2592 192 
Q 2263 -78 1759 -78 
Q 1097 -78 719 397 
Q 266 969 266 2259 
z
M 844 2259 
Q 844 1131 1108 757 
Q 1372 384 1759 384 
Q 2147 384 2411 759 
Q 2675 1134 2675 2259 
Q 2675 3391 2411 3762 
Q 2147 4134 1753 4134 
Q 1366 4134 1134 3806 
Q 844 3388 844 2259 
z
" transform="scale(0.015625)"/>
       </defs>
       <use xlink:href="#ArialMT-2212"/>
       <use xlink:href="#ArialMT-32" x="58.398438"/>
       <use xlink:href="#ArialMT-35" x="114.013672"/>
       <use xlink:href="#ArialMT-30" x="169.628906"/>
      </g>
     </g>
    </g>
    <g id="xtick_2">
     <g id="text_2">
      <!-- 0 -->
      <g style="fill: #262626" transform="translate(180.26989 398.416719) scale(0.15 -0.15)">
       <use xlink:href="#ArialMT-30"/>
      </g>
     </g>
    </g>
    <g id="xtick_3">
     <g id="text_3">
      <!-- 250 -->
      <g style="fill: #262626" transform="translate(238.404521 398.416719) scale(0.15 -0.15)">
       <use xlink:href="#ArialMT-32"/>
       <use xlink:href="#ArialMT-35" x="55.615234"/>
       <use xlink:href="#ArialMT-30" x="111.230469"/>
      </g>
     </g>
    </g>
    <g id="xtick_4">
     <g id="text_4">
      <!-- 500 -->
      <g style="fill: #262626" transform="translate(304.880559 398.416719) scale(0.15 -0.15)">
       <use xlink:href="#ArialMT-35"/>
       <use xlink:href="#ArialMT-30" x="55.615234"/>
       <use xlink:href="#ArialMT-30" x="111.230469"/>
      </g>
     </g>
    </g>
    <g id="xtick_5">
     <g id="text_5">
      <!-- 750 -->
      <g style="fill: #262626" transform="translate(371.356596 398.416719) scale(0.15 -0.15)">
       <defs>
        <path id="ArialMT-37" d="M 303 3981 
L 303 4522 
L 3269 4522 
L 3269 4084 
Q 2831 3619 2401 2847 
Q 1972 2075 1738 1259 
Q 1569 684 1522 0 
L 944 0 
Q 953 541 1156 1306 
Q 1359 2072 1739 2783 
Q 2119 3494 2547 3981 
L 303 3981 
z
" transform="scale(0.015625)"/>
       </defs>
       <use xlink:href="#ArialMT-37"/>
       <use xlink:href="#ArialMT-35" x="55.615234"/>
       <use xlink:href="#ArialMT-30" x="111.230469"/>
      </g>
     </g>
    </g>
    <g id="xtick_6">
     <g id="text_6">
      <!-- 1000 -->
      <g style="fill: #262626" transform="translate(433.661931 398.416719) scale(0.15 -0.15)">
       <defs>
        <path id="ArialMT-31" d="M 2384 0 
L 1822 0 
L 1822 3584 
Q 1619 3391 1289 3197 
Q 959 3003 697 2906 
L 697 3450 
Q 1169 3672 1522 3987 
Q 1875 4303 2022 4600 
L 2384 4600 
L 2384 0 
z
" transform="scale(0.015625)"/>
       </defs>
       <use xlink:href="#ArialMT-31"/>
       <use xlink:href="#ArialMT-30" x="55.615234"/>
       <use xlink:href="#ArialMT-30" x="111.230469"/>
       <use xlink:href="#ArialMT-30" x="166.845703"/>
      </g>
     </g>
    </g>
    <g id="xtick_7">
     <g id="text_7">
      <!-- 1250 -->
      <g style="fill: #262626" transform="translate(500.137968 398.416719) scale(0.15 -0.15)">
       <use xlink:href="#ArialMT-31"/>
       <use xlink:href="#ArialMT-32" x="55.615234"/>
       <use xlink:href="#ArialMT-35" x="111.230469"/>
       <use xlink:href="#ArialMT-30" x="166.845703"/>
      </g>
     </g>
    </g>
    <g id="xtick_8">
     <g id="text_8">
      <!-- 1500 -->
      <g style="fill: #262626" transform="translate(566.614006 398.416719) scale(0.15 -0.15)">
       <use xlink:href="#ArialMT-31"/>
       <use xlink:href="#ArialMT-35" x="55.615234"/>
       <use xlink:href="#ArialMT-30" x="111.230469"/>
       <use xlink:href="#ArialMT-30" x="166.845703"/>
      </g>
     </g>
    </g>
    <g id="text_9">
     <!-- Time (s) -->
     <g style="fill: #262626" transform="translate(311.452891 416.3175) scale(0.15 -0.15)">
      <defs>
       <path id="ArialMT-54" d="M 1659 0 
L 1659 4041 
L 150 4041 
L 150 4581 
L 3781 4581 
L 3781 4041 
L 2266 4041 
L 2266 0 
L 1659 0 
z
" transform="scale(0.015625)"/>
       <path id="ArialMT-69" d="M 425 3934 
L 425 4581 
L 988 4581 
L 988 3934 
L 425 3934 
z
M 425 0 
L 425 3319 
L 988 3319 
L 988 0 
L 425 0 
z
" transform="scale(0.015625)"/>
       <path id="ArialMT-6d" d="M 422 0 
L 422 3319 
L 925 3319 
L 925 2853 
Q 1081 3097 1340 3245 
Q 1600 3394 1931 3394 
Q 2300 3394 2536 3241 
Q 2772 3088 2869 2813 
Q 3263 3394 3894 3394 
Q 4388 3394 4653 3120 
Q 4919 2847 4919 2278 
L 4919 0 
L 4359 0 
L 4359 2091 
Q 4359 2428 4304 2576 
Q 4250 2725 4106 2815 
Q 3963 2906 3769 2906 
Q 3419 2906 3187 2673 
Q 2956 2441 2956 1928 
L 2956 0 
L 2394 0 
L 2394 2156 
Q 2394 2531 2256 2718 
Q 2119 2906 1806 2906 
Q 1569 2906 1367 2781 
Q 1166 2656 1075 2415 
Q 984 2175 984 1722 
L 984 0 
L 422 0 
z
" transform="scale(0.015625)"/>
       <path id="ArialMT-65" d="M 2694 1069 
L 3275 997 
Q 3138 488 2766 206 
Q 2394 -75 1816 -75 
Q 1088 -75 661 373 
Q 234 822 234 1631 
Q 234 2469 665 2931 
Q 1097 3394 1784 3394 
Q 2450 3394 2872 2941 
Q 3294 2488 3294 1666 
Q 3294 1616 3291 1516 
L 816 1516 
Q 847 969 1125 678 
Q 1403 388 1819 388 
Q 2128 388 2347 550 
Q 2566 713 2694 1069 
z
M 847 1978 
L 2700 1978 
Q 2663 2397 2488 2606 
Q 2219 2931 1791 2931 
Q 1403 2931 1139 2672 
Q 875 2413 847 1978 
z
" transform="scale(0.015625)"/>
       <path id="ArialMT-20" transform="scale(0.015625)"/>
       <path id="ArialMT-28" d="M 1497 -1347 
Q 1031 -759 709 28 
Q 388 816 388 1659 
Q 388 2403 628 3084 
Q 909 3875 1497 4659 
L 1900 4659 
Q 1522 4009 1400 3731 
Q 1209 3300 1100 2831 
Q 966 2247 966 1656 
Q 966 153 1900 -1347 
L 1497 -1347 
z
" transform="scale(0.015625)"/>
       <path id="ArialMT-73" d="M 197 991 
L 753 1078 
Q 800 744 1014 566 
Q 1228 388 1613 388 
Q 2000 388 2187 545 
Q 2375 703 2375 916 
Q 2375 1106 2209 1216 
Q 2094 1291 1634 1406 
Q 1016 1563 777 1677 
Q 538 1791 414 1992 
Q 291 2194 291 2438 
Q 291 2659 392 2848 
Q 494 3038 669 3163 
Q 800 3259 1026 3326 
Q 1253 3394 1513 3394 
Q 1903 3394 2198 3281 
Q 2494 3169 2634 2976 
Q 2775 2784 2828 2463 
L 2278 2388 
Q 2241 2644 2061 2787 
Q 1881 2931 1553 2931 
Q 1166 2931 1000 2803 
Q 834 2675 834 2503 
Q 834 2394 903 2306 
Q 972 2216 1119 2156 
Q 1203 2125 1616 2013 
Q 2213 1853 2448 1751 
Q 2684 1650 2818 1456 
Q 2953 1263 2953 975 
Q 2953 694 2789 445 
Q 2625 197 2315 61 
Q 2006 -75 1616 -75 
Q 969 -75 630 194 
Q 291 463 197 991 
z
" transform="scale(0.015625)"/>
       <path id="ArialMT-29" d="M 791 -1347 
L 388 -1347 
Q 1322 153 1322 1656 
Q 1322 2244 1188 2822 
Q 1081 3291 891 3722 
Q 769 4003 388 4659 
L 791 4659 
Q 1378 3875 1659 3084 
Q 1900 2403 1900 1659 
Q 1900 816 1576 28 
Q 1253 -759 791 -1347 
z
" transform="scale(0.015625)"/>
      </defs>
      <use xlink:href="#ArialMT-54"/>
      <use xlink:href="#ArialMT-69" x="57.333984"/>
      <use xlink:href="#ArialMT-6d" x="79.550781"/>
      <use xlink:href="#ArialMT-65" x="162.851562"/>
      <use xlink:href="#ArialMT-20" x="218.466797"/>
      <use xlink:href="#ArialMT-28" x="246.25"/>
      <use xlink:href="#ArialMT-73" x="279.550781"/>
      <use xlink:href="#ArialMT-29" x="329.550781"/>
     </g>
    </g>
   </g>
   <g id="matplotlib.axis_2">
    <g id="ytick_1">
     <g id="text_10">
      <!-- 0.00 -->
      <g style="fill: #262626" transform="translate(30.878594 346.324909) scale(0.15 -0.15)">
       <defs>
        <path id="ArialMT-2e" d="M 581 0 
L 581 641 
L 1222 641 
L 1222 0 
L 581 0 
z
" transform="scale(0.015625)"/>
       </defs>
       <use xlink:href="#ArialMT-30"/>
       <use xlink:href="#ArialMT-2e" x="55.615234"/>
       <use xlink:href="#ArialMT-30" x="83.398438"/>
       <use xlink:href="#ArialMT-30" x="139.013672"/>
      </g>
     </g>
    </g>
    <g id="ytick_2">
     <g id="text_11">
      <!-- 0.05 -->
      <g style="fill: #262626" transform="translate(30.878594 293.104921) scale(0.15 -0.15)">
       <use xlink:href="#ArialMT-30"/>
       <use xlink:href="#ArialMT-2e" x="55.615234"/>
       <use xlink:href="#ArialMT-30" x="83.398438"/>
       <use xlink:href="#ArialMT-35" x="139.013672"/>
      </g>
     </g>
    </g>
    <g id="ytick_3">
     <g id="text_12">
      <!-- 0.10 -->
      <g style="fill: #262626" transform="translate(30.878594 239.884933) scale(0.15 -0.15)">
       <use xlink:href="#ArialMT-30"/>
       <use xlink:href="#ArialMT-2e" x="55.615234"/>
       <use xlink:href="#ArialMT-31" x="83.398438"/>
       <use xlink:href="#ArialMT-30" x="139.013672"/>
      </g>
     </g>
    </g>
    <g id="ytick_4">
     <g id="text_13">
      <!-- 0.15 -->
      <g style="fill: #262626" transform="translate(30.878594 186.664944) scale(0.15 -0.15)">
       <use xlink:href="#ArialMT-30"/>
       <use xlink:href="#ArialMT-2e" x="55.615234"/>
       <use xlink:href="#ArialMT-31" x="83.398438"/>
       <use xlink:href="#ArialMT-35" x="139.013672"/>
      </g>
     </g>
    </g>
    <g id="ytick_5">
     <g id="text_14">
      <!-- 0.20 -->
      <g style="fill: #262626" transform="translate(30.878594 133.444956) scale(0.15 -0.15)">
       <use xlink:href="#ArialMT-30"/>
       <use xlink:href="#ArialMT-2e" x="55.615234"/>
       <use xlink:href="#ArialMT-32" x="83.398438"/>
       <use xlink:href="#ArialMT-30" x="139.013672"/>
      </g>
     </g>
    </g>
    <g id="ytick_6">
     <g id="text_15">
      <!-- 0.25 -->
      <g style="fill: #262626" transform="translate(30.878594 80.224967) scale(0.15 -0.15)">
       <use xlink:href="#ArialMT-30"/>
       <use xlink:href="#ArialMT-2e" x="55.615234"/>
       <use xlink:href="#ArialMT-32" x="83.398438"/>
       <use xlink:href="#ArialMT-35" x="139.013672"/>
      </g>
     </g>
    </g>
    <g id="text_16">
     <!-- Divergence -->
     <g style="fill: #262626" transform="translate(23.721563 240.823594) rotate(-90) scale(0.15 -0.15)">
      <defs>
       <path id="ArialMT-44" d="M 494 0 
L 494 4581 
L 2072 4581 
Q 2606 4581 2888 4516 
Q 3281 4425 3559 4188 
Q 3922 3881 4101 3404 
Q 4281 2928 4281 2316 
Q 4281 1794 4159 1391 
Q 4038 988 3847 723 
Q 3656 459 3429 307 
Q 3203 156 2883 78 
Q 2563 0 2147 0 
L 494 0 
z
M 1100 541 
L 2078 541 
Q 2531 541 2789 625 
Q 3047 709 3200 863 
Q 3416 1078 3536 1442 
Q 3656 1806 3656 2325 
Q 3656 3044 3420 3430 
Q 3184 3816 2847 3947 
Q 2603 4041 2063 4041 
L 1100 4041 
L 1100 541 
z
" transform="scale(0.015625)"/>
       <path id="ArialMT-76" d="M 1344 0 
L 81 3319 
L 675 3319 
L 1388 1331 
Q 1503 1009 1600 663 
Q 1675 925 1809 1294 
L 2547 3319 
L 3125 3319 
L 1869 0 
L 1344 0 
z
" transform="scale(0.015625)"/>
       <path id="ArialMT-72" d="M 416 0 
L 416 3319 
L 922 3319 
L 922 2816 
Q 1116 3169 1280 3281 
Q 1444 3394 1641 3394 
Q 1925 3394 2219 3213 
L 2025 2691 
Q 1819 2813 1613 2813 
Q 1428 2813 1281 2702 
Q 1134 2591 1072 2394 
Q 978 2094 978 1738 
L 978 0 
L 416 0 
z
" transform="scale(0.015625)"/>
       <path id="ArialMT-67" d="M 319 -275 
L 866 -356 
Q 900 -609 1056 -725 
Q 1266 -881 1628 -881 
Q 2019 -881 2231 -725 
Q 2444 -569 2519 -288 
Q 2563 -116 2559 434 
Q 2191 0 1641 0 
Q 956 0 581 494 
Q 206 988 206 1678 
Q 206 2153 378 2554 
Q 550 2956 876 3175 
Q 1203 3394 1644 3394 
Q 2231 3394 2613 2919 
L 2613 3319 
L 3131 3319 
L 3131 450 
Q 3131 -325 2973 -648 
Q 2816 -972 2473 -1159 
Q 2131 -1347 1631 -1347 
Q 1038 -1347 672 -1080 
Q 306 -813 319 -275 
z
M 784 1719 
Q 784 1066 1043 766 
Q 1303 466 1694 466 
Q 2081 466 2343 764 
Q 2606 1063 2606 1700 
Q 2606 2309 2336 2618 
Q 2066 2928 1684 2928 
Q 1309 2928 1046 2623 
Q 784 2319 784 1719 
z
" transform="scale(0.015625)"/>
       <path id="ArialMT-6e" d="M 422 0 
L 422 3319 
L 928 3319 
L 928 2847 
Q 1294 3394 1984 3394 
Q 2284 3394 2536 3286 
Q 2788 3178 2913 3003 
Q 3038 2828 3088 2588 
Q 3119 2431 3119 2041 
L 3119 0 
L 2556 0 
L 2556 2019 
Q 2556 2363 2490 2533 
Q 2425 2703 2258 2804 
Q 2091 2906 1866 2906 
Q 1506 2906 1245 2678 
Q 984 2450 984 1813 
L 984 0 
L 422 0 
z
" transform="scale(0.015625)"/>
       <path id="ArialMT-63" d="M 2588 1216 
L 3141 1144 
Q 3050 572 2676 248 
Q 2303 -75 1759 -75 
Q 1078 -75 664 370 
Q 250 816 250 1647 
Q 250 2184 428 2587 
Q 606 2991 970 3192 
Q 1334 3394 1763 3394 
Q 2303 3394 2647 3120 
Q 2991 2847 3088 2344 
L 2541 2259 
Q 2463 2594 2264 2762 
Q 2066 2931 1784 2931 
Q 1359 2931 1093 2626 
Q 828 2322 828 1663 
Q 828 994 1084 691 
Q 1341 388 1753 388 
Q 2084 388 2306 591 
Q 2528 794 2588 1216 
z
" transform="scale(0.015625)"/>
      </defs>
      <use xlink:href="#ArialMT-44"/>
      <use xlink:href="#ArialMT-69" x="72.216797"/>
      <use xlink:href="#ArialMT-76" x="94.433594"/>
      <use xlink:href="#ArialMT-65" x="144.433594"/>
      <use xlink:href="#ArialMT-72" x="200.048828"/>
      <use xlink:href="#ArialMT-67" x="233.349609"/>
      <use xlink:href="#ArialMT-65" x="288.964844"/>
      <use xlink:href="#ArialMT-6e" x="344.580078"/>
      <use xlink:href="#ArialMT-63" x="400.195312"/>
      <use xlink:href="#ArialMT-65" x="450.195312"/>
     </g>
    </g>
   </g>
   <g id="PolyCollection_1">
    <defs>
     <path id="m0e4379a73a" d="M 94.033182 -91.948794 
L 94.033182 -91.504656 
L 104.669348 -91.353322 
L 115.305514 -92.344378 
L 125.94168 -92.947698 
L 136.577846 -91.497588 
L 147.214012 -90.519738 
L 157.850178 -91.193422 
L 168.486344 -91.737285 
L 179.12251 -93.542625 
L 189.758676 -94.48774 
L 200.394842 -91.415064 
L 211.031008 -84.826667 
L 221.667174 -92.839908 
L 232.30334 -106.262773 
L 242.939506 -107.624317 
L 253.575672 -112.257431 
L 264.211838 -131.070617 
L 274.848004 -144.748764 
L 285.48417 -170.010547 
L 296.120336 -188.491466 
L 306.756502 -186.469413 
L 317.392668 -203.552519 
L 328.028834 -230.437631 
L 338.665 -240.656647 
L 349.301166 -238.499029 
L 359.937332 -227.974071 
L 370.573498 -238.785316 
L 381.209664 -268.136759 
L 391.84583 -286.447536 
L 402.481996 -304.229818 
L 413.118162 -315.998343 
L 423.754328 -300.301633 
L 434.390494 -265.514244 
L 445.02666 -231.653139 
L 455.662826 -184.681319 
L 466.298992 -163.342649 
L 476.935158 -151.071561 
L 487.571324 -134.479824 
L 498.20749 -120.752964 
L 508.843656 -115.231748 
L 519.479822 -115.719042 
L 530.115988 -117.423545 
L 540.752154 -118.397333 
L 551.38832 -118.794518 
L 562.024486 -118.627213 
L 572.660652 -119.635487 
L 583.296818 -119.768471 
L 583.296818 -141.484183 
L 583.296818 -141.484183 
L 572.660652 -141.876464 
L 562.024486 -141.354318 
L 551.38832 -141.73868 
L 540.752154 -141.587136 
L 530.115988 -140.863176 
L 519.479822 -139.467102 
L 508.843656 -139.173472 
L 498.20749 -144.742734 
L 487.571324 -158.635915 
L 476.935158 -173.248186 
L 466.298992 -180.867602 
L 455.662826 -200.31478 
L 445.02666 -248.928268 
L 434.390494 -286.452937 
L 423.754328 -323.496939 
L 413.118162 -339.591448 
L 402.481996 -328.672524 
L 391.84583 -308.435229 
L 381.209664 -288.467332 
L 370.573498 -257.862871 
L 359.937332 -244.176954 
L 349.301166 -254.916232 
L 338.665 -258.499177 
L 328.028834 -248.026636 
L 317.392668 -217.83323 
L 306.756502 -198.730501 
L 296.120336 -201.191089 
L 285.48417 -182.466792 
L 274.848004 -155.000015 
L 264.211838 -138.868603 
L 253.575672 -118.109764 
L 242.939506 -113.208926 
L 232.30334 -111.312252 
L 221.667174 -98.257477 
L 211.031008 -90.86641 
L 200.394842 -96.290838 
L 189.758676 -101.301035 
L 179.12251 -97.154882 
L 168.486344 -92.334194 
L 157.850178 -91.793846 
L 147.214012 -91.185076 
L 136.577846 -92.053729 
L 125.94168 -93.550275 
L 115.305514 -92.881789 
L 104.669348 -91.800293 
L 94.033182 -91.948794 
z
" style="stroke: #8b0a50; stroke-opacity: 0.1"/>
    </defs>
    <g clip-path="url(#pc9df5721a1)">
     <use xlink:href="#m0e4379a73a" x="0" y="432" style="fill: #8b0a50; fill-opacity: 0.1; stroke: #8b0a50; stroke-opacity: 0.1"/>
    </g>
   </g>
   <g id="PolyCollection_2">
    <defs>
     <path id="m19b1452c4f" d="M 94.033182 -91.1748 
L 94.033182 -91.053098 
L 104.669348 -91.17155 
L 115.305514 -91.149974 
L 125.94168 -90.97037 
L 136.577846 -90.861799 
L 147.214012 -90.900366 
L 157.850178 -90.993949 
L 168.486344 -91.078606 
L 179.12251 -92.6105 
L 189.758676 -95.979702 
L 200.394842 -91.673183 
L 211.031008 -88.801435 
L 221.667174 -92.350335 
L 232.30334 -92.603899 
L 242.939506 -92.352336 
L 253.575672 -92.47171 
L 264.211838 -92.501205 
L 274.848004 -95.9276 
L 285.48417 -101.511646 
L 296.120336 -102.959436 
L 306.756502 -104.484069 
L 317.392668 -107.377862 
L 328.028834 -109.902381 
L 338.665 -110.775039 
L 349.301166 -108.789224 
L 359.937332 -109.835471 
L 370.573498 -112.437676 
L 381.209664 -113.551424 
L 391.84583 -112.965258 
L 402.481996 -113.560992 
L 413.118162 -111.897317 
L 423.754328 -110.026934 
L 434.390494 -106.788078 
L 445.02666 -102.844591 
L 455.662826 -97.601021 
L 466.298992 -96.929204 
L 476.935158 -97.111241 
L 487.571324 -96.839332 
L 498.20749 -96.259276 
L 508.843656 -95.951154 
L 519.479822 -95.873451 
L 530.115988 -95.973352 
L 540.752154 -96.292739 
L 551.38832 -95.869814 
L 562.024486 -95.448641 
L 572.660652 -95.261789 
L 583.296818 -95.411418 
L 583.296818 -96.672804 
L 583.296818 -96.672804 
L 572.660652 -96.5333 
L 562.024486 -96.736704 
L 551.38832 -97.138085 
L 540.752154 -97.575578 
L 530.115988 -97.249948 
L 519.479822 -97.200647 
L 508.843656 -97.270288 
L 498.20749 -97.600579 
L 487.571324 -98.25163 
L 476.935158 -98.526476 
L 466.298992 -98.271624 
L 455.662826 -99.005418 
L 445.02666 -105.064137 
L 434.390494 -109.149753 
L 423.754328 -112.402311 
L 413.118162 -114.072956 
L 402.481996 -115.882088 
L 391.84583 -115.453035 
L 381.209664 -115.888999 
L 370.573498 -114.948829 
L 359.937332 -112.204304 
L 349.301166 -110.873682 
L 338.665 -112.934194 
L 328.028834 -112.369635 
L 317.392668 -109.808202 
L 306.756502 -106.581361 
L 296.120336 -104.881826 
L 285.48417 -103.401817 
L 274.848004 -97.58259 
L 264.211838 -94.047707 
L 253.575672 -94.013584 
L 242.939506 -93.82891 
L 232.30334 -94.187211 
L 221.667174 -93.879705 
L 211.031008 -90.371207 
L 200.394842 -93.25904 
L 189.758676 -97.954648 
L 179.12251 -93.565947 
L 168.486344 -91.258079 
L 157.850178 -91.153313 
L 147.214012 -91.06343 
L 136.577846 -91.020717 
L 125.94168 -91.094953 
L 115.305514 -91.274922 
L 104.669348 -91.270826 
L 94.033182 -91.1748 
z
" style="stroke: #8b0a50; stroke-opacity: 0.1"/>
    </defs>
    <g clip-path="url(#pc9df5721a1)">
     <use xlink:href="#m19b1452c4f" x="0" y="432" style="fill: #8b0a50; fill-opacity: 0.1; stroke: #8b0a50; stroke-opacity: 0.1"/>
    </g>
   </g>
   <g id="PathCollection_1">
    <defs>
     <path id="m40b4fc7ef8" d="M 0 -3 
L -0.673542 -0.927051 
L -2.85317 -0.927051 
L -1.089814 0.354102 
L -1.763356 2.427051 
L -0 1.145898 
L 1.763356 2.427051 
L 1.089814 0.354102 
L 2.85317 -0.927051 
L 0.673542 -0.927051 
z
" style="stroke: #8b0a50"/>
    </defs>
    <g clip-path="url(#pc9df5721a1)">
     <use xlink:href="#m40b4fc7ef8" x="94.033182" y="351.600548" style="fill: #8b0a50; stroke: #8b0a50"/>
     <use xlink:href="#m40b4fc7ef8" x="115.305514" y="351.600548" style="fill: #8b0a50; stroke: #8b0a50"/>
     <use xlink:href="#m40b4fc7ef8" x="125.94168" y="351.600548" style="fill: #8b0a50; stroke: #8b0a50"/>
     <use xlink:href="#m40b4fc7ef8" x="136.577846" y="351.600548" style="fill: #8b0a50; stroke: #8b0a50"/>
     <use xlink:href="#m40b4fc7ef8" x="168.486344" y="351.600548" style="fill: #8b0a50; stroke: #8b0a50"/>
     <use xlink:href="#m40b4fc7ef8" x="232.30334" y="351.600548" style="fill: #8b0a50; stroke: #8b0a50"/>
     <use xlink:href="#m40b4fc7ef8" x="242.939506" y="351.600548" style="fill: #8b0a50; stroke: #8b0a50"/>
     <use xlink:href="#m40b4fc7ef8" x="253.575672" y="351.600548" style="fill: #8b0a50; stroke: #8b0a50"/>
     <use xlink:href="#m40b4fc7ef8" x="264.211838" y="351.600548" style="fill: #8b0a50; stroke: #8b0a50"/>
     <use xlink:href="#m40b4fc7ef8" x="274.848004" y="351.600548" style="fill: #8b0a50; stroke: #8b0a50"/>
     <use xlink:href="#m40b4fc7ef8" x="285.48417" y="351.600548" style="fill: #8b0a50; stroke: #8b0a50"/>
     <use xlink:href="#m40b4fc7ef8" x="296.120336" y="351.600548" style="fill: #8b0a50; stroke: #8b0a50"/>
     <use xlink:href="#m40b4fc7ef8" x="306.756502" y="351.600548" style="fill: #8b0a50; stroke: #8b0a50"/>
     <use xlink:href="#m40b4fc7ef8" x="317.392668" y="351.600548" style="fill: #8b0a50; stroke: #8b0a50"/>
     <use xlink:href="#m40b4fc7ef8" x="328.028834" y="351.600548" style="fill: #8b0a50; stroke: #8b0a50"/>
     <use xlink:href="#m40b4fc7ef8" x="338.665" y="351.600548" style="fill: #8b0a50; stroke: #8b0a50"/>
     <use xlink:href="#m40b4fc7ef8" x="349.301166" y="351.600548" style="fill: #8b0a50; stroke: #8b0a50"/>
     <use xlink:href="#m40b4fc7ef8" x="359.937332" y="351.600548" style="fill: #8b0a50; stroke: #8b0a50"/>
     <use xlink:href="#m40b4fc7ef8" x="370.573498" y="351.600548" style="fill: #8b0a50; stroke: #8b0a50"/>
     <use xlink:href="#m40b4fc7ef8" x="381.209664" y="351.600548" style="fill: #8b0a50; stroke: #8b0a50"/>
     <use xlink:href="#m40b4fc7ef8" x="391.84583" y="351.600548" style="fill: #8b0a50; stroke: #8b0a50"/>
     <use xlink:href="#m40b4fc7ef8" x="402.481996" y="351.600548" style="fill: #8b0a50; stroke: #8b0a50"/>
     <use xlink:href="#m40b4fc7ef8" x="413.118162" y="351.600548" style="fill: #8b0a50; stroke: #8b0a50"/>
     <use xlink:href="#m40b4fc7ef8" x="423.754328" y="351.600548" style="fill: #8b0a50; stroke: #8b0a50"/>
     <use xlink:href="#m40b4fc7ef8" x="434.390494" y="351.600548" style="fill: #8b0a50; stroke: #8b0a50"/>
     <use xlink:href="#m40b4fc7ef8" x="445.02666" y="351.600548" style="fill: #8b0a50; stroke: #8b0a50"/>
     <use xlink:href="#m40b4fc7ef8" x="455.662826" y="351.600548" style="fill: #8b0a50; stroke: #8b0a50"/>
     <use xlink:href="#m40b4fc7ef8" x="466.298992" y="351.600548" style="fill: #8b0a50; stroke: #8b0a50"/>
     <use xlink:href="#m40b4fc7ef8" x="476.935158" y="351.600548" style="fill: #8b0a50; stroke: #8b0a50"/>
     <use xlink:href="#m40b4fc7ef8" x="487.571324" y="351.600548" style="fill: #8b0a50; stroke: #8b0a50"/>
     <use xlink:href="#m40b4fc7ef8" x="498.20749" y="351.600548" style="fill: #8b0a50; stroke: #8b0a50"/>
     <use xlink:href="#m40b4fc7ef8" x="508.843656" y="351.600548" style="fill: #8b0a50; stroke: #8b0a50"/>
     <use xlink:href="#m40b4fc7ef8" x="519.479822" y="351.600548" style="fill: #8b0a50; stroke: #8b0a50"/>
     <use xlink:href="#m40b4fc7ef8" x="530.115988" y="351.600548" style="fill: #8b0a50; stroke: #8b0a50"/>
     <use xlink:href="#m40b4fc7ef8" x="540.752154" y="351.600548" style="fill: #8b0a50; stroke: #8b0a50"/>
     <use xlink:href="#m40b4fc7ef8" x="551.38832" y="351.600548" style="fill: #8b0a50; stroke: #8b0a50"/>
     <use xlink:href="#m40b4fc7ef8" x="562.024486" y="351.600548" style="fill: #8b0a50; stroke: #8b0a50"/>
     <use xlink:href="#m40b4fc7ef8" x="572.660652" y="351.600548" style="fill: #8b0a50; stroke: #8b0a50"/>
     <use xlink:href="#m40b4fc7ef8" x="583.296818" y="351.600548" style="fill: #8b0a50; stroke: #8b0a50"/>
    </g>
   </g>
   <g id="PolyCollection_3">
    <defs>
     <path id="m675344d58d" d="M 94.033182 -91.118048 
L 94.033182 -90.968324 
L 104.669348 -90.783541 
L 115.305514 -90.610008 
L 125.94168 -90.259605 
L 136.577846 -90.797768 
L 147.214012 -90.593105 
L 157.850178 -89.683941 
L 168.486344 -89.574533 
L 179.12251 -89.960668 
L 189.758676 -88.650122 
L 200.394842 -88.067908 
L 211.031008 -87.505581 
L 221.667174 -86.792872 
L 232.30334 -91.964564 
L 242.939506 -95.707271 
L 253.575672 -95.02934 
L 264.211838 -96.311493 
L 274.848004 -101.816338 
L 285.48417 -108.494705 
L 296.120336 -116.279708 
L 306.756502 -126.205339 
L 317.392668 -136.333436 
L 328.028834 -147.56153 
L 338.665 -163.53792 
L 349.301166 -182.489039 
L 359.937332 -199.867792 
L 370.573498 -213.345434 
L 381.209664 -227.881114 
L 391.84583 -245.569483 
L 402.481996 -265.877373 
L 413.118162 -288.542621 
L 423.754328 -309.12408 
L 434.390494 -323.056156 
L 445.02666 -335.386201 
L 455.662826 -339.969248 
L 466.298992 -329.909332 
L 476.935158 -323.569179 
L 487.571324 -322.143562 
L 498.20749 -322.689234 
L 508.843656 -322.425066 
L 519.479822 -321.094357 
L 530.115988 -319.607314 
L 540.752154 -318.637753 
L 551.38832 -316.74566 
L 562.024486 -314.252992 
L 572.660652 -311.578075 
L 583.296818 -308.437961 
L 583.296818 -366.381755 
L 583.296818 -366.381755 
L 572.660652 -369.536455 
L 562.024486 -372.167178 
L 551.38832 -374.490522 
L 540.752154 -375.825499 
L 530.115988 -375.982203 
L 519.479822 -376.766339 
L 508.843656 -377.170861 
L 498.20749 -376.223859 
L 487.571324 -374.25157 
L 476.935158 -374.35358 
L 466.298992 -379.36206 
L 455.662826 -388.464545 
L 445.02666 -382.797459 
L 434.390494 -367.987591 
L 423.754328 -351.500511 
L 413.118162 -327.533979 
L 402.481996 -301.184431 
L 391.84583 -278.115603 
L 381.209664 -258.320715 
L 370.573498 -242.215299 
L 359.937332 -227.06818 
L 349.301166 -206.669546 
L 338.665 -183.87755 
L 328.028834 -164.127333 
L 317.392668 -150.383431 
L 306.756502 -138.109126 
L 296.120336 -125.568809 
L 285.48417 -115.739389 
L 274.848004 -109.037506 
L 264.211838 -103.152106 
L 253.575672 -100.935003 
L 242.939506 -107.353447 
L 232.30334 -98.314794 
L 221.667174 -90.880513 
L 211.031008 -90.537328 
L 200.394842 -91.061338 
L 189.758676 -91.171589 
L 179.12251 -98.577751 
L 168.486344 -92.278074 
L 157.850178 -90.963219 
L 147.214012 -91.973219 
L 136.577846 -92.171603 
L 125.94168 -91.317568 
L 115.305514 -91.23088 
L 104.669348 -91.19173 
L 94.033182 -91.118048 
z
" style="stroke: #eb6ab0; stroke-opacity: 0.1"/>
    </defs>
    <g clip-path="url(#pc9df5721a1)">
     <use xlink:href="#m675344d58d" x="0" y="432" style="fill: #eb6ab0; fill-opacity: 0.1; stroke: #eb6ab0; stroke-opacity: 0.1"/>
    </g>
   </g>
   <g id="PolyCollection_4">
    <defs>
     <path id="m78503baf94" d="M 94.033182 -91.042703 
L 94.033182 -90.981921 
L 104.669348 -90.885398 
L 115.305514 -90.780289 
L 125.94168 -90.866224 
L 136.577846 -90.880321 
L 147.214012 -90.880859 
L 157.850178 -90.946378 
L 168.486344 -91.151616 
L 179.12251 -91.597079 
L 189.758676 -91.032466 
L 200.394842 -91.174241 
L 211.031008 -91.328948 
L 221.667174 -91.430018 
L 232.30334 -93.108174 
L 242.939506 -94.271622 
L 253.575672 -93.843507 
L 264.211838 -94.399713 
L 274.848004 -95.743986 
L 285.48417 -96.830169 
L 296.120336 -97.181475 
L 306.756502 -97.540972 
L 317.392668 -98.141677 
L 328.028834 -99.020517 
L 338.665 -100.470061 
L 349.301166 -101.680991 
L 359.937332 -103.163196 
L 370.573498 -104.490298 
L 381.209664 -105.672543 
L 391.84583 -107.230822 
L 402.481996 -108.621014 
L 413.118162 -109.571331 
L 423.754328 -109.963609 
L 434.390494 -110.214774 
L 445.02666 -111.282656 
L 455.662826 -112.53877 
L 466.298992 -110.590918 
L 476.935158 -109.677354 
L 487.571324 -109.39979 
L 498.20749 -109.314236 
L 508.843656 -109.125665 
L 519.479822 -108.777999 
L 530.115988 -108.644641 
L 540.752154 -108.467137 
L 551.38832 -108.23967 
L 562.024486 -107.839756 
L 572.660652 -107.461986 
L 583.296818 -106.889544 
L 583.296818 -111.194938 
L 583.296818 -111.194938 
L 572.660652 -111.859163 
L 562.024486 -112.305343 
L 551.38832 -112.745453 
L 540.752154 -112.958628 
L 530.115988 -113.074538 
L 519.479822 -113.141315 
L 508.843656 -113.46732 
L 498.20749 -113.594301 
L 487.571324 -113.578541 
L 476.935158 -113.74583 
L 466.298992 -114.56659 
L 455.662826 -117.17416 
L 445.02666 -115.153701 
L 434.390494 -113.924946 
L 423.754328 -113.577295 
L 413.118162 -113.151446 
L 402.481996 -112.070025 
L 391.84583 -110.473292 
L 381.209664 -108.689311 
L 370.573498 -107.302931 
L 359.937332 -105.76552 
L 349.301166 -104.105709 
L 338.665 -102.840767 
L 328.028834 -101.323051 
L 317.392668 -100.395953 
L 306.756502 -100.227878 
L 296.120336 -100.289135 
L 285.48417 -99.817034 
L 274.848004 -98.400908 
L 264.211838 -96.841168 
L 253.575672 -96.200017 
L 242.939506 -97.28353 
L 232.30334 -96.488059 
L 221.667174 -94.27895 
L 211.031008 -92.520796 
L 200.394842 -92.207618 
L 189.758676 -92.008735 
L 179.12251 -93.43869 
L 168.486344 -91.787448 
L 157.850178 -91.336024 
L 147.214012 -91.230585 
L 136.577846 -91.156433 
L 125.94168 -91.092303 
L 115.305514 -90.995007 
L 104.669348 -91.03954 
L 94.033182 -91.042703 
z
" style="stroke: #eb6ab0; stroke-opacity: 0.1"/>
    </defs>
    <g clip-path="url(#pc9df5721a1)">
     <use xlink:href="#m78503baf94" x="0" y="432" style="fill: #eb6ab0; fill-opacity: 0.1; stroke: #eb6ab0; stroke-opacity: 0.1"/>
    </g>
   </g>
   <g id="PathCollection_2">
    <defs>
     <path id="m3889c1abcb" d="M 0 -3 
L -0.673542 -0.927051 
L -2.85317 -0.927051 
L -1.089814 0.354102 
L -1.763356 2.427051 
L -0 1.145898 
L 1.763356 2.427051 
L 1.089814 0.354102 
L 2.85317 -0.927051 
L 0.673542 -0.927051 
z
" style="stroke: #eb6ab0"/>
    </defs>
    <g clip-path="url(#pc9df5721a1)">
     <use xlink:href="#m3889c1abcb" x="274.848004" y="362.244545" style="fill: #eb6ab0; stroke: #eb6ab0"/>
     <use xlink:href="#m3889c1abcb" x="285.48417" y="362.244545" style="fill: #eb6ab0; stroke: #eb6ab0"/>
     <use xlink:href="#m3889c1abcb" x="296.120336" y="362.244545" style="fill: #eb6ab0; stroke: #eb6ab0"/>
     <use xlink:href="#m3889c1abcb" x="306.756502" y="362.244545" style="fill: #eb6ab0; stroke: #eb6ab0"/>
     <use xlink:href="#m3889c1abcb" x="317.392668" y="362.244545" style="fill: #eb6ab0; stroke: #eb6ab0"/>
     <use xlink:href="#m3889c1abcb" x="328.028834" y="362.244545" style="fill: #eb6ab0; stroke: #eb6ab0"/>
     <use xlink:href="#m3889c1abcb" x="338.665" y="362.244545" style="fill: #eb6ab0; stroke: #eb6ab0"/>
     <use xlink:href="#m3889c1abcb" x="349.301166" y="362.244545" style="fill: #eb6ab0; stroke: #eb6ab0"/>
     <use xlink:href="#m3889c1abcb" x="359.937332" y="362.244545" style="fill: #eb6ab0; stroke: #eb6ab0"/>
     <use xlink:href="#m3889c1abcb" x="370.573498" y="362.244545" style="fill: #eb6ab0; stroke: #eb6ab0"/>
     <use xlink:href="#m3889c1abcb" x="381.209664" y="362.244545" style="fill: #eb6ab0; stroke: #eb6ab0"/>
     <use xlink:href="#m3889c1abcb" x="391.84583" y="362.244545" style="fill: #eb6ab0; stroke: #eb6ab0"/>
     <use xlink:href="#m3889c1abcb" x="402.481996" y="362.244545" style="fill: #eb6ab0; stroke: #eb6ab0"/>
     <use xlink:href="#m3889c1abcb" x="413.118162" y="362.244545" style="fill: #eb6ab0; stroke: #eb6ab0"/>
     <use xlink:href="#m3889c1abcb" x="423.754328" y="362.244545" style="fill: #eb6ab0; stroke: #eb6ab0"/>
     <use xlink:href="#m3889c1abcb" x="434.390494" y="362.244545" style="fill: #eb6ab0; stroke: #eb6ab0"/>
     <use xlink:href="#m3889c1abcb" x="445.02666" y="362.244545" style="fill: #eb6ab0; stroke: #eb6ab0"/>
     <use xlink:href="#m3889c1abcb" x="455.662826" y="362.244545" style="fill: #eb6ab0; stroke: #eb6ab0"/>
     <use xlink:href="#m3889c1abcb" x="466.298992" y="362.244545" style="fill: #eb6ab0; stroke: #eb6ab0"/>
     <use xlink:href="#m3889c1abcb" x="476.935158" y="362.244545" style="fill: #eb6ab0; stroke: #eb6ab0"/>
     <use xlink:href="#m3889c1abcb" x="487.571324" y="362.244545" style="fill: #eb6ab0; stroke: #eb6ab0"/>
     <use xlink:href="#m3889c1abcb" x="498.20749" y="362.244545" style="fill: #eb6ab0; stroke: #eb6ab0"/>
     <use xlink:href="#m3889c1abcb" x="508.843656" y="362.244545" style="fill: #eb6ab0; stroke: #eb6ab0"/>
     <use xlink:href="#m3889c1abcb" x="519.479822" y="362.244545" style="fill: #eb6ab0; stroke: #eb6ab0"/>
     <use xlink:href="#m3889c1abcb" x="530.115988" y="362.244545" style="fill: #eb6ab0; stroke: #eb6ab0"/>
     <use xlink:href="#m3889c1abcb" x="540.752154" y="362.244545" style="fill: #eb6ab0; stroke: #eb6ab0"/>
     <use xlink:href="#m3889c1abcb" x="551.38832" y="362.244545" style="fill: #eb6ab0; stroke: #eb6ab0"/>
     <use xlink:href="#m3889c1abcb" x="562.024486" y="362.244545" style="fill: #eb6ab0; stroke: #eb6ab0"/>
     <use xlink:href="#m3889c1abcb" x="572.660652" y="362.244545" style="fill: #eb6ab0; stroke: #eb6ab0"/>
     <use xlink:href="#m3889c1abcb" x="583.296818" y="362.244545" style="fill: #eb6ab0; stroke: #eb6ab0"/>
    </g>
   </g>
   <g id="line2d_1">
    <path d="M 94.033182 340.273275 
L 104.669348 340.423192 
L 115.305514 339.386917 
L 125.94168 338.751013 
L 136.577846 340.224341 
L 147.214012 341.147593 
L 157.850178 340.506366 
L 168.486344 339.96426 
L 179.12251 336.651246 
L 189.758676 334.105613 
L 200.394842 338.147049 
L 211.031008 344.153461 
L 221.667174 336.451308 
L 232.30334 323.212488 
L 242.939506 321.583379 
L 253.575672 316.816403 
L 264.211838 297.03039 
L 274.848004 282.12561 
L 285.48417 255.76133 
L 296.120336 237.158723 
L 306.756502 239.400043 
L 317.392668 221.307126 
L 328.028834 192.767867 
L 338.665 182.422088 
L 349.301166 185.29237 
L 359.937332 195.924487 
L 370.573498 183.675906 
L 381.209664 153.697954 
L 391.84583 134.558618 
L 402.481996 115.548829 
L 413.118162 104.205105 
L 423.754328 120.100714 
L 434.390494 156.01641 
L 445.02666 191.709296 
L 455.662826 239.501951 
L 466.298992 259.894874 
L 476.935158 269.840126 
L 487.571324 285.44213 
L 498.20749 299.252151 
L 508.843656 304.79739 
L 519.479822 304.406928 
L 530.115988 302.85664 
L 540.752154 302.007765 
L 551.38832 301.733401 
L 562.024486 302.009234 
L 572.660652 301.244024 
L 583.296818 301.373673 
" clip-path="url(#pc9df5721a1)" style="fill: none; stroke: #8b0a50; stroke-width: 2; stroke-linecap: round"/>
   </g>
   <g id="line2d_2">
    <path d="M 94.033182 340.886051 
L 104.669348 340.778812 
L 115.305514 340.787552 
L 125.94168 340.967338 
L 136.577846 341.058742 
L 147.214012 341.018102 
L 157.850178 340.926369 
L 168.486344 340.831658 
L 179.12251 338.911777 
L 189.758676 335.032825 
L 200.394842 339.533889 
L 211.031008 342.413679 
L 221.667174 338.88498 
L 232.30334 338.604445 
L 242.939506 338.909377 
L 253.575672 338.757353 
L 264.211838 338.725544 
L 274.848004 335.244905 
L 285.48417 329.543269 
L 296.120336 328.079369 
L 306.756502 326.467285 
L 317.392668 323.406968 
L 328.028834 320.863992 
L 338.665 320.145384 
L 349.301166 322.168547 
L 359.937332 320.980113 
L 370.573498 318.306748 
L 381.209664 317.279788 
L 391.84583 317.790853 
L 402.481996 317.27846 
L 413.118162 319.014864 
L 423.754328 320.785377 
L 434.390494 324.031084 
L 445.02666 328.045636 
L 455.662826 333.69678 
L 466.298992 334.399586 
L 476.935158 334.181142 
L 487.571324 334.454519 
L 498.20749 335.070072 
L 508.843656 335.389279 
L 519.479822 335.462951 
L 530.115988 335.38835 
L 540.752154 335.065841 
L 551.38832 335.496051 
L 562.024486 335.907328 
L 572.660652 336.102456 
L 583.296818 335.957889 
" clip-path="url(#pc9df5721a1)" style="fill: none; stroke-dasharray: 7.4,3.2; stroke-dashoffset: 0; stroke: #8b0a50; stroke-width: 2"/>
   </g>
   <g id="line2d_3">
    <path d="M 184.440593 378.18 
L 184.440593 27.6 
" clip-path="url(#pc9df5721a1)" style="fill: none; stroke-dasharray: 5.55,2.4; stroke-dashoffset: 0; stroke: #1a1a1a; stroke-width: 1.5"/>
   </g>
   <g id="line2d_4">
    <path d="M 450.344743 378.18 
L 450.344743 27.6 
" clip-path="url(#pc9df5721a1)" style="fill: none; stroke-dasharray: 5.55,2.4; stroke-dashoffset: 0; stroke: #1a1a1a; stroke-width: 1.5"/>
   </g>
   <g id="line2d_5">
    <path d="M 94.033182 340.956814 
L 104.669348 341.012364 
L 115.305514 341.079556 
L 125.94168 341.211414 
L 136.577846 340.515314 
L 147.214012 340.716838 
L 157.850178 341.67642 
L 168.486344 341.073696 
L 179.12251 337.73079 
L 189.758676 342.089145 
L 200.394842 342.435377 
L 211.031008 342.978545 
L 221.667174 343.163307 
L 232.30334 336.860321 
L 242.939506 330.469641 
L 253.575672 334.017829 
L 264.211838 332.268201 
L 274.848004 326.573078 
L 285.48417 319.882953 
L 296.120336 311.075741 
L 306.756502 299.842767 
L 317.392668 288.641566 
L 328.028834 276.155568 
L 338.665 258.292265 
L 349.301166 237.420708 
L 359.937332 218.532014 
L 370.573498 204.219634 
L 381.209664 188.899085 
L 391.84583 170.157457 
L 402.481996 148.469098 
L 413.118162 123.9617 
L 423.754328 101.687705 
L 434.390494 86.478126 
L 445.02666 72.90817 
L 455.662826 67.783103 
L 466.298992 77.364304 
L 476.935158 83.038621 
L 487.571324 83.802434 
L 498.20749 82.543454 
L 508.843656 82.202036 
L 519.479822 83.069652 
L 530.115988 84.205241 
L 540.752154 84.768374 
L 551.38832 86.381909 
L 562.024486 88.789915 
L 572.660652 91.442735 
L 583.296818 94.590142 
" clip-path="url(#pc9df5721a1)" style="fill: none; stroke: #eb6ab0; stroke-width: 2; stroke-linecap: round"/>
   </g>
   <g id="line2d_6">
    <path d="M 94.033182 340.987688 
L 104.669348 341.037531 
L 115.305514 341.112352 
L 125.94168 341.020737 
L 136.577846 340.981623 
L 147.214012 340.944278 
L 157.850178 340.858799 
L 168.486344 340.530468 
L 179.12251 339.482115 
L 189.758676 340.4794 
L 200.394842 340.30907 
L 211.031008 340.075128 
L 221.667174 339.145516 
L 232.30334 337.201883 
L 242.939506 336.222424 
L 253.575672 336.978238 
L 264.211838 336.379559 
L 274.848004 334.927553 
L 285.48417 333.676399 
L 296.120336 333.264695 
L 306.756502 333.115575 
L 317.392668 332.731185 
L 328.028834 331.828216 
L 338.665 330.344586 
L 349.301166 329.10665 
L 359.937332 327.535642 
L 370.573498 326.103386 
L 381.209664 324.819073 
L 391.84583 323.147943 
L 402.481996 321.654481 
L 413.118162 320.638611 
L 423.754328 320.229548 
L 434.390494 319.93014 
L 445.02666 318.781821 
L 455.662826 317.143535 
L 466.298992 319.421246 
L 476.935158 320.288408 
L 487.571324 320.510835 
L 498.20749 320.545731 
L 508.843656 320.703507 
L 519.479822 321.040343 
L 530.115988 321.140411 
L 540.752154 321.287118 
L 551.38832 321.507439 
L 562.024486 321.927451 
L 572.660652 322.339426 
L 583.296818 322.957759 
" clip-path="url(#pc9df5721a1)" style="fill: none; stroke-dasharray: 7.4,3.2; stroke-dashoffset: 0; stroke: #eb6ab0; stroke-width: 2"/>
   </g>
   <g id="line2d_7">
    <path d="M 184.440593 378.18 
L 184.440593 27.6 
" clip-path="url(#pc9df5721a1)" style="fill: none; stroke-dasharray: 5.55,2.4; stroke-dashoffset: 0; stroke: #1a1a1a; stroke-width: 1.5"/>
   </g>
   <g id="line2d_8">
    <path d="M 450.344743 378.18 
L 450.344743 27.6 
" clip-path="url(#pc9df5721a1)" style="fill: none; stroke-dasharray: 5.55,2.4; stroke-dashoffset: 0; stroke: #1a1a1a; stroke-width: 1.5"/>
   </g>
   <g id="patch_3">
    <path d="M 69.57 378.18 
L 69.57 27.6 
" style="fill: none; stroke: #cccccc; stroke-width: 1.5; stroke-linejoin: miter; stroke-linecap: square"/>
   </g>
   <g id="patch_4">
    <path d="M 69.57 378.18 
L 607.76 378.18 
" style="fill: none; stroke: #cccccc; stroke-width: 1.5; stroke-linejoin: miter; stroke-linecap: square"/>
   </g>
   <g id="text_17">
    <!-- Divergence Comparison: Original vs Shuffled -->
    <g style="fill: #262626" transform="translate(189.1525 21.6) scale(0.15 -0.15)">
     <defs>
      <path id="ArialMT-43" d="M 3763 1606 
L 4369 1453 
Q 4178 706 3683 314 
Q 3188 -78 2472 -78 
Q 1731 -78 1267 223 
Q 803 525 561 1097 
Q 319 1669 319 2325 
Q 319 3041 592 3573 
Q 866 4106 1370 4382 
Q 1875 4659 2481 4659 
Q 3169 4659 3637 4309 
Q 4106 3959 4291 3325 
L 3694 3184 
Q 3534 3684 3231 3912 
Q 2928 4141 2469 4141 
Q 1941 4141 1586 3887 
Q 1231 3634 1087 3207 
Q 944 2781 944 2328 
Q 944 1744 1114 1308 
Q 1284 872 1643 656 
Q 2003 441 2422 441 
Q 2931 441 3284 734 
Q 3638 1028 3763 1606 
z
" transform="scale(0.015625)"/>
      <path id="ArialMT-6f" d="M 213 1659 
Q 213 2581 725 3025 
Q 1153 3394 1769 3394 
Q 2453 3394 2887 2945 
Q 3322 2497 3322 1706 
Q 3322 1066 3130 698 
Q 2938 331 2570 128 
Q 2203 -75 1769 -75 
Q 1072 -75 642 372 
Q 213 819 213 1659 
z
M 791 1659 
Q 791 1022 1069 705 
Q 1347 388 1769 388 
Q 2188 388 2466 706 
Q 2744 1025 2744 1678 
Q 2744 2294 2464 2611 
Q 2184 2928 1769 2928 
Q 1347 2928 1069 2612 
Q 791 2297 791 1659 
z
" transform="scale(0.015625)"/>
      <path id="ArialMT-70" d="M 422 -1272 
L 422 3319 
L 934 3319 
L 934 2888 
Q 1116 3141 1344 3267 
Q 1572 3394 1897 3394 
Q 2322 3394 2647 3175 
Q 2972 2956 3137 2557 
Q 3303 2159 3303 1684 
Q 3303 1175 3120 767 
Q 2938 359 2589 142 
Q 2241 -75 1856 -75 
Q 1575 -75 1351 44 
Q 1128 163 984 344 
L 984 -1272 
L 422 -1272 
z
M 931 1641 
Q 931 1000 1190 694 
Q 1450 388 1819 388 
Q 2194 388 2461 705 
Q 2728 1022 2728 1688 
Q 2728 2322 2467 2637 
Q 2206 2953 1844 2953 
Q 1484 2953 1207 2617 
Q 931 2281 931 1641 
z
" transform="scale(0.015625)"/>
      <path id="ArialMT-61" d="M 2588 409 
Q 2275 144 1986 34 
Q 1697 -75 1366 -75 
Q 819 -75 525 192 
Q 231 459 231 875 
Q 231 1119 342 1320 
Q 453 1522 633 1644 
Q 813 1766 1038 1828 
Q 1203 1872 1538 1913 
Q 2219 1994 2541 2106 
Q 2544 2222 2544 2253 
Q 2544 2597 2384 2738 
Q 2169 2928 1744 2928 
Q 1347 2928 1158 2789 
Q 969 2650 878 2297 
L 328 2372 
Q 403 2725 575 2942 
Q 747 3159 1072 3276 
Q 1397 3394 1825 3394 
Q 2250 3394 2515 3294 
Q 2781 3194 2906 3042 
Q 3031 2891 3081 2659 
Q 3109 2516 3109 2141 
L 3109 1391 
Q 3109 606 3145 398 
Q 3181 191 3288 0 
L 2700 0 
Q 2613 175 2588 409 
z
M 2541 1666 
Q 2234 1541 1622 1453 
Q 1275 1403 1131 1340 
Q 988 1278 909 1158 
Q 831 1038 831 891 
Q 831 666 1001 516 
Q 1172 366 1500 366 
Q 1825 366 2078 508 
Q 2331 650 2450 897 
Q 2541 1088 2541 1459 
L 2541 1666 
z
" transform="scale(0.015625)"/>
      <path id="ArialMT-3a" d="M 578 2678 
L 578 3319 
L 1219 3319 
L 1219 2678 
L 578 2678 
z
M 578 0 
L 578 641 
L 1219 641 
L 1219 0 
L 578 0 
z
" transform="scale(0.015625)"/>
      <path id="ArialMT-4f" d="M 309 2231 
Q 309 3372 921 4017 
Q 1534 4663 2503 4663 
Q 3138 4663 3647 4359 
Q 4156 4056 4423 3514 
Q 4691 2972 4691 2284 
Q 4691 1588 4409 1038 
Q 4128 488 3612 205 
Q 3097 -78 2500 -78 
Q 1853 -78 1343 234 
Q 834 547 571 1087 
Q 309 1628 309 2231 
z
M 934 2222 
Q 934 1394 1379 917 
Q 1825 441 2497 441 
Q 3181 441 3623 922 
Q 4066 1403 4066 2288 
Q 4066 2847 3877 3264 
Q 3688 3681 3323 3911 
Q 2959 4141 2506 4141 
Q 1863 4141 1398 3698 
Q 934 3256 934 2222 
z
" transform="scale(0.015625)"/>
      <path id="ArialMT-6c" d="M 409 0 
L 409 4581 
L 972 4581 
L 972 0 
L 409 0 
z
" transform="scale(0.015625)"/>
      <path id="ArialMT-53" d="M 288 1472 
L 859 1522 
Q 900 1178 1048 958 
Q 1197 738 1509 602 
Q 1822 466 2213 466 
Q 2559 466 2825 569 
Q 3091 672 3220 851 
Q 3350 1031 3350 1244 
Q 3350 1459 3225 1620 
Q 3100 1781 2813 1891 
Q 2628 1963 1997 2114 
Q 1366 2266 1113 2400 
Q 784 2572 623 2826 
Q 463 3081 463 3397 
Q 463 3744 659 4045 
Q 856 4347 1234 4503 
Q 1613 4659 2075 4659 
Q 2584 4659 2973 4495 
Q 3363 4331 3572 4012 
Q 3781 3694 3797 3291 
L 3216 3247 
Q 3169 3681 2898 3903 
Q 2628 4125 2100 4125 
Q 1550 4125 1298 3923 
Q 1047 3722 1047 3438 
Q 1047 3191 1225 3031 
Q 1400 2872 2139 2705 
Q 2878 2538 3153 2413 
Q 3553 2228 3743 1945 
Q 3934 1663 3934 1294 
Q 3934 928 3725 604 
Q 3516 281 3123 101 
Q 2731 -78 2241 -78 
Q 1619 -78 1198 103 
Q 778 284 539 648 
Q 300 1013 288 1472 
z
" transform="scale(0.015625)"/>
      <path id="ArialMT-68" d="M 422 0 
L 422 4581 
L 984 4581 
L 984 2938 
Q 1378 3394 1978 3394 
Q 2347 3394 2619 3248 
Q 2891 3103 3008 2847 
Q 3125 2591 3125 2103 
L 3125 0 
L 2563 0 
L 2563 2103 
Q 2563 2525 2380 2717 
Q 2197 2909 1863 2909 
Q 1613 2909 1392 2779 
Q 1172 2650 1078 2428 
Q 984 2206 984 1816 
L 984 0 
L 422 0 
z
" transform="scale(0.015625)"/>
      <path id="ArialMT-75" d="M 2597 0 
L 2597 488 
Q 2209 -75 1544 -75 
Q 1250 -75 995 37 
Q 741 150 617 320 
Q 494 491 444 738 
Q 409 903 409 1263 
L 409 3319 
L 972 3319 
L 972 1478 
Q 972 1038 1006 884 
Q 1059 663 1231 536 
Q 1403 409 1656 409 
Q 1909 409 2131 539 
Q 2353 669 2445 892 
Q 2538 1116 2538 1541 
L 2538 3319 
L 3100 3319 
L 3100 0 
L 2597 0 
z
" transform="scale(0.015625)"/>
      <path id="ArialMT-66" d="M 556 0 
L 556 2881 
L 59 2881 
L 59 3319 
L 556 3319 
L 556 3672 
Q 556 4006 616 4169 
Q 697 4388 901 4523 
Q 1106 4659 1475 4659 
Q 1713 4659 2000 4603 
L 1916 4113 
Q 1741 4144 1584 4144 
Q 1328 4144 1222 4034 
Q 1116 3925 1116 3625 
L 1116 3319 
L 1763 3319 
L 1763 2881 
L 1116 2881 
L 1116 0 
L 556 0 
z
" transform="scale(0.015625)"/>
      <path id="ArialMT-64" d="M 2575 0 
L 2575 419 
Q 2259 -75 1647 -75 
Q 1250 -75 917 144 
Q 584 363 401 755 
Q 219 1147 219 1656 
Q 219 2153 384 2558 
Q 550 2963 881 3178 
Q 1213 3394 1622 3394 
Q 1922 3394 2156 3267 
Q 2391 3141 2538 2938 
L 2538 4581 
L 3097 4581 
L 3097 0 
L 2575 0 
z
M 797 1656 
Q 797 1019 1065 703 
Q 1334 388 1700 388 
Q 2069 388 2326 689 
Q 2584 991 2584 1609 
Q 2584 2291 2321 2609 
Q 2059 2928 1675 2928 
Q 1300 2928 1048 2622 
Q 797 2316 797 1656 
z
" transform="scale(0.015625)"/>
     </defs>
     <use xlink:href="#ArialMT-44"/>
     <use xlink:href="#ArialMT-69" x="72.216797"/>
     <use xlink:href="#ArialMT-76" x="94.433594"/>
     <use xlink:href="#ArialMT-65" x="144.433594"/>
     <use xlink:href="#ArialMT-72" x="200.048828"/>
     <use xlink:href="#ArialMT-67" x="233.349609"/>
     <use xlink:href="#ArialMT-65" x="288.964844"/>
     <use xlink:href="#ArialMT-6e" x="344.580078"/>
     <use xlink:href="#ArialMT-63" x="400.195312"/>
     <use xlink:href="#ArialMT-65" x="450.195312"/>
     <use xlink:href="#ArialMT-20" x="505.810547"/>
     <use xlink:href="#ArialMT-43" x="533.59375"/>
     <use xlink:href="#ArialMT-6f" x="605.810547"/>
     <use xlink:href="#ArialMT-6d" x="661.425781"/>
     <use xlink:href="#ArialMT-70" x="744.726562"/>
     <use xlink:href="#ArialMT-61" x="800.341797"/>
     <use xlink:href="#ArialMT-72" x="855.957031"/>
     <use xlink:href="#ArialMT-69" x="889.257812"/>
     <use xlink:href="#ArialMT-73" x="911.474609"/>
     <use xlink:href="#ArialMT-6f" x="961.474609"/>
     <use xlink:href="#ArialMT-6e" x="1017.089844"/>
     <use xlink:href="#ArialMT-3a" x="1072.705078"/>
     <use xlink:href="#ArialMT-20" x="1100.488281"/>
     <use xlink:href="#ArialMT-4f" x="1128.271484"/>
     <use xlink:href="#ArialMT-72" x="1206.054688"/>
     <use xlink:href="#ArialMT-69" x="1239.355469"/>
     <use xlink:href="#ArialMT-67" x="1261.572266"/>
     <use xlink:href="#ArialMT-69" x="1317.1875"/>
     <use xlink:href="#ArialMT-6e" x="1339.404297"/>
     <use xlink:href="#ArialMT-61" x="1395.019531"/>
     <use xlink:href="#ArialMT-6c" x="1450.634766"/>
     <use xlink:href="#ArialMT-20" x="1472.851562"/>
     <use xlink:href="#ArialMT-76" x="1500.634766"/>
     <use xlink:href="#ArialMT-73" x="1550.634766"/>
     <use xlink:href="#ArialMT-20" x="1600.634766"/>
     <use xlink:href="#ArialMT-53" x="1628.417969"/>
     <use xlink:href="#ArialMT-68" x="1695.117188"/>
     <use xlink:href="#ArialMT-75" x="1750.732422"/>
     <use xlink:href="#ArialMT-66" x="1806.347656"/>
     <use xlink:href="#ArialMT-66" x="1832.380859"/>
     <use xlink:href="#ArialMT-6c" x="1860.164062"/>
     <use xlink:href="#ArialMT-65" x="1882.380859"/>
     <use xlink:href="#ArialMT-64" x="1937.996094"/>
    </g>
   </g>
   <g id="legend_1">
    <g id="patch_5">
     <path d="M 615.46 259.555469 
L 705.061875 259.555469 
Q 707.261875 259.555469 707.261875 257.355469 
L 707.261875 148.424531 
Q 707.261875 146.224531 705.061875 146.224531 
L 615.46 146.224531 
Q 613.26 146.224531 613.26 148.424531 
L 613.26 257.355469 
Q 613.26 259.555469 615.46 259.555469 
z
" style="fill: #ffffff; opacity: 0.8; stroke: #cccccc; stroke-linejoin: miter"/>
    </g>
    <g id="line2d_9">
     <path d="M 617.66 154.789062 
L 628.66 154.789062 
L 639.66 154.789062 
" style="fill: none; stroke: #8b0a50; stroke-width: 2; stroke-linecap: round"/>
    </g>
    <g id="text_18">
     <!-- Original -->
     <g style="fill: #262626" transform="translate(648.46 158.639062) scale(0.11 -0.11)">
      <use xlink:href="#ArialMT-4f"/>
      <use xlink:href="#ArialMT-72" x="77.783203"/>
      <use xlink:href="#ArialMT-69" x="111.083984"/>
      <use xlink:href="#ArialMT-67" x="133.300781"/>
      <use xlink:href="#ArialMT-69" x="188.916016"/>
      <use xlink:href="#ArialMT-6e" x="211.132812"/>
      <use xlink:href="#ArialMT-61" x="266.748047"/>
      <use xlink:href="#ArialMT-6c" x="322.363281"/>
     </g>
    </g>
    <g id="line2d_10">
     <path d="M 617.66 170.61875 
L 628.66 170.61875 
L 639.66 170.61875 
" style="fill: none; stroke-dasharray: 7.4,3.2; stroke-dashoffset: 0; stroke: #8b0a50; stroke-width: 2"/>
    </g>
    <g id="text_19">
     <!-- Original -->
     <g style="fill: #262626" transform="translate(648.46 174.46875) scale(0.11 -0.11)">
      <use xlink:href="#ArialMT-4f"/>
      <use xlink:href="#ArialMT-72" x="77.783203"/>
      <use xlink:href="#ArialMT-69" x="111.083984"/>
      <use xlink:href="#ArialMT-67" x="133.300781"/>
      <use xlink:href="#ArialMT-69" x="188.916016"/>
      <use xlink:href="#ArialMT-6e" x="211.132812"/>
      <use xlink:href="#ArialMT-61" x="266.748047"/>
      <use xlink:href="#ArialMT-6c" x="322.363281"/>
     </g>
    </g>
    <g id="PathCollection_3">
     <g>
      <use xlink:href="#m40b4fc7ef8" x="628.66" y="187.302656" style="fill: #8b0a50; stroke: #8b0a50"/>
     </g>
    </g>
    <g id="text_20">
     <!-- p &lt; 0.001 -->
     <g style="fill: #262626" transform="translate(648.46 190.190156) scale(0.11 -0.11)">
      <defs>
       <path id="ArialMT-3c" d="M 350 2003 
L 350 2528 
L 3384 3809 
L 3384 3250 
L 978 2263 
L 3384 1266 
L 3384 706 
L 350 2003 
z
" transform="scale(0.015625)"/>
      </defs>
      <use xlink:href="#ArialMT-70"/>
      <use xlink:href="#ArialMT-20" x="55.615234"/>
      <use xlink:href="#ArialMT-3c" x="83.398438"/>
      <use xlink:href="#ArialMT-20" x="141.796875"/>
      <use xlink:href="#ArialMT-30" x="169.580078"/>
      <use xlink:href="#ArialMT-2e" x="225.195312"/>
      <use xlink:href="#ArialMT-30" x="252.978516"/>
      <use xlink:href="#ArialMT-30" x="308.59375"/>
      <use xlink:href="#ArialMT-31" x="364.208984"/>
     </g>
    </g>
    <g id="line2d_11">
     <path d="M 617.66 201.9 
L 628.66 201.9 
L 639.66 201.9 
" style="fill: none; stroke-dasharray: 5.55,2.4; stroke-dashoffset: 0; stroke: #1a1a1a; stroke-width: 1.5"/>
    </g>
    <g id="text_21">
     <!-- Stim Onset -->
     <g style="fill: #262626" transform="translate(648.46 205.75) scale(0.11 -0.11)">
      <defs>
       <path id="ArialMT-74" d="M 1650 503 
L 1731 6 
Q 1494 -44 1306 -44 
Q 1000 -44 831 53 
Q 663 150 594 308 
Q 525 466 525 972 
L 525 2881 
L 113 2881 
L 113 3319 
L 525 3319 
L 525 4141 
L 1084 4478 
L 1084 3319 
L 1650 3319 
L 1650 2881 
L 1084 2881 
L 1084 941 
Q 1084 700 1114 631 
Q 1144 563 1211 522 
Q 1278 481 1403 481 
Q 1497 481 1650 503 
z
" transform="scale(0.015625)"/>
      </defs>
      <use xlink:href="#ArialMT-53"/>
      <use xlink:href="#ArialMT-74" x="66.699219"/>
      <use xlink:href="#ArialMT-69" x="94.482422"/>
      <use xlink:href="#ArialMT-6d" x="116.699219"/>
      <use xlink:href="#ArialMT-20" x="200"/>
      <use xlink:href="#ArialMT-4f" x="227.783203"/>
      <use xlink:href="#ArialMT-6e" x="305.566406"/>
      <use xlink:href="#ArialMT-73" x="361.181641"/>
      <use xlink:href="#ArialMT-65" x="411.181641"/>
      <use xlink:href="#ArialMT-74" x="466.796875"/>
     </g>
    </g>
    <g id="line2d_12">
     <path d="M 617.66 217.459844 
L 628.66 217.459844 
L 639.66 217.459844 
" style="fill: none; stroke-dasharray: 5.55,2.4; stroke-dashoffset: 0; stroke: #1a1a1a; stroke-width: 1.5"/>
    </g>
    <g id="text_22">
     <!-- Stim End -->
     <g style="fill: #262626" transform="translate(648.46 221.309844) scale(0.11 -0.11)">
      <defs>
       <path id="ArialMT-45" d="M 506 0 
L 506 4581 
L 3819 4581 
L 3819 4041 
L 1113 4041 
L 1113 2638 
L 3647 2638 
L 3647 2100 
L 1113 2100 
L 1113 541 
L 3925 541 
L 3925 0 
L 506 0 
z
" transform="scale(0.015625)"/>
      </defs>
      <use xlink:href="#ArialMT-53"/>
      <use xlink:href="#ArialMT-74" x="66.699219"/>
      <use xlink:href="#ArialMT-69" x="94.482422"/>
      <use xlink:href="#ArialMT-6d" x="116.699219"/>
      <use xlink:href="#ArialMT-20" x="200"/>
      <use xlink:href="#ArialMT-45" x="227.783203"/>
      <use xlink:href="#ArialMT-6e" x="294.482422"/>
      <use xlink:href="#ArialMT-64" x="350.097656"/>
     </g>
    </g>
    <g id="line2d_13">
     <path d="M 617.66 233.160625 
L 628.66 233.160625 
L 639.66 233.160625 
" style="fill: none; stroke: #eb6ab0; stroke-width: 2; stroke-linecap: round"/>
    </g>
    <g id="text_23">
     <!-- Original -->
     <g style="fill: #262626" transform="translate(648.46 237.010625) scale(0.11 -0.11)">
      <use xlink:href="#ArialMT-4f"/>
      <use xlink:href="#ArialMT-72" x="77.783203"/>
      <use xlink:href="#ArialMT-69" x="111.083984"/>
      <use xlink:href="#ArialMT-67" x="133.300781"/>
      <use xlink:href="#ArialMT-69" x="188.916016"/>
      <use xlink:href="#ArialMT-6e" x="211.132812"/>
      <use xlink:href="#ArialMT-61" x="266.748047"/>
      <use xlink:href="#ArialMT-6c" x="322.363281"/>
     </g>
    </g>
    <g id="line2d_14">
     <path d="M 617.66 248.990312 
L 628.66 248.990312 
L 639.66 248.990312 
" style="fill: none; stroke-dasharray: 7.4,3.2; stroke-dashoffset: 0; stroke: #eb6ab0; stroke-width: 2"/>
    </g>
    <g id="text_24">
     <!-- Original -->
     <g style="fill: #262626" transform="translate(648.46 252.840312) scale(0.11 -0.11)">
      <use xlink:href="#ArialMT-4f"/>
      <use xlink:href="#ArialMT-72" x="77.783203"/>
      <use xlink:href="#ArialMT-69" x="111.083984"/>
      <use xlink:href="#ArialMT-67" x="133.300781"/>
      <use xlink:href="#ArialMT-69" x="188.916016"/>
      <use xlink:href="#ArialMT-6e" x="211.132812"/>
      <use xlink:href="#ArialMT-61" x="266.748047"/>
      <use xlink:href="#ArialMT-6c" x="322.363281"/>
     </g>
    </g>
   </g>
  </g>
 </g>
 <defs>
  <clipPath id="pc9df5721a1">
   <rect x="69.57" y="27.6" width="538.19" height="350.58"/>
  </clipPath>
 </defs>
</svg>
