<?xml version="1.0" encoding="utf-8" standalone="no"?>
<!DOCTYPE svg PUBLIC "-//W3C//DTD SVG 1.1//EN"
  "http://www.w3.org/Graphics/SVG/1.1/DTD/svg11.dtd">
<svg xmlns:xlink="http://www.w3.org/1999/xlink" width="720pt" height="432pt" viewBox="0 0 720 432" xmlns="http://www.w3.org/2000/svg" version="1.1">
 <metadata>
  <rdf:RDF xmlns:dc="http://purl.org/dc/elements/1.1/" xmlns:cc="http://creativecommons.org/ns#" xmlns:rdf="http://www.w3.org/1999/02/22-rdf-syntax-ns#">
   <cc:Work>
    <dc:type rdf:resource="http://purl.org/dc/dcmitype/StillImage"/>
    <dc:date>2025-09-15T12:49:53.873879</dc:date>
    <dc:format>image/svg+xml</dc:format>
    <dc:creator>
     <cc:Agent>
      <dc:title>Matplotlib v3.9.4, https://matplotlib.org/</dc:title>
     </cc:Agent>
    </dc:creator>
   </cc:Work>
  </rdf:RDF>
 </metadata>
 <defs>
  <style type="text/css">*{stroke-linejoin: round; stroke-linecap: butt}</style>
 </defs>
 <g id="figure_1">
  <g id="patch_1">
   <path d="M 0 432 
L 720 432 
L 720 0 
L 0 0 
z
" style="fill: #ffffff"/>
  </g>
  <g id="axes_1">
   <g id="patch_2">
    <path d="M 78.3 378.18 
L 607.76 378.18 
L 607.76 27.6 
L 78.3 27.6 
L 78.3 378.18 
z
" style="fill: none"/>
   </g>
   <g id="matplotlib.axis_1">
    <g id="xtick_1">
     <g id="text_1">
      <!-- 0 -->
      <g style="fill: #262626" transform="translate(133.587372 398.416719) scale(0.15 -0.15)">
       <defs>
        <path id="ArialMT-30" d="M 266 2259 
Q 266 3072 433 3567 
Q 600 4063 929 4331 
Q 1259 4600 1759 4600 
Q 2128 4600 2406 4451 
Q 2684 4303 2865 4023 
Q 3047 3744 3150 3342 
Q 3253 2941 3253 2259 
Q 3253 1453 3087 958 
Q 2922 463 2592 192 
Q 2263 -78 1759 -78 
Q 1097 -78 719 397 
Q 266 969 266 2259 
z
M 844 2259 
Q 844 1131 1108 757 
Q 1372 384 1759 384 
Q 2147 384 2411 759 
Q 2675 1134 2675 2259 
Q 2675 3391 2411 3762 
Q 2147 4134 1753 4134 
Q 1366 4134 1134 3806 
Q 844 3388 844 2259 
z
" transform="scale(0.015625)"/>
       </defs>
       <use xlink:href="#ArialMT-30"/>
      </g>
     </g>
    </g>
    <g id="xtick_2">
     <g id="text_2">
      <!-- 500 -->
      <g style="fill: #262626" transform="translate(213.725244 398.416719) scale(0.15 -0.15)">
       <defs>
        <path id="ArialMT-35" d="M 266 1200 
L 856 1250 
Q 922 819 1161 601 
Q 1400 384 1738 384 
Q 2144 384 2425 690 
Q 2706 997 2706 1503 
Q 2706 1984 2436 2262 
Q 2166 2541 1728 2541 
Q 1456 2541 1237 2417 
Q 1019 2294 894 2097 
L 366 2166 
L 809 4519 
L 3088 4519 
L 3088 3981 
L 1259 3981 
L 1013 2750 
Q 1425 3038 1878 3038 
Q 2478 3038 2890 2622 
Q 3303 2206 3303 1553 
Q 3303 931 2941 478 
Q 2500 -78 1738 -78 
Q 1113 -78 717 272 
Q 322 622 266 1200 
z
" transform="scale(0.015625)"/>
       </defs>
       <use xlink:href="#ArialMT-35"/>
       <use xlink:href="#ArialMT-30" x="55.615234"/>
       <use xlink:href="#ArialMT-30" x="111.230469"/>
      </g>
     </g>
    </g>
    <g id="xtick_3">
     <g id="text_3">
      <!-- 1000 -->
      <g style="fill: #262626" transform="translate(298.033819 398.416719) scale(0.15 -0.15)">
       <defs>
        <path id="ArialMT-31" d="M 2384 0 
L 1822 0 
L 1822 3584 
Q 1619 3391 1289 3197 
Q 959 3003 697 2906 
L 697 3450 
Q 1169 3672 1522 3987 
Q 1875 4303 2022 4600 
L 2384 4600 
L 2384 0 
z
" transform="scale(0.015625)"/>
       </defs>
       <use xlink:href="#ArialMT-31"/>
       <use xlink:href="#ArialMT-30" x="55.615234"/>
       <use xlink:href="#ArialMT-30" x="111.230469"/>
       <use xlink:href="#ArialMT-30" x="166.845703"/>
      </g>
     </g>
    </g>
    <g id="xtick_4">
     <g id="text_4">
      <!-- 1500 -->
      <g style="fill: #262626" transform="translate(386.513097 398.416719) scale(0.15 -0.15)">
       <use xlink:href="#ArialMT-31"/>
       <use xlink:href="#ArialMT-35" x="55.615234"/>
       <use xlink:href="#ArialMT-30" x="111.230469"/>
       <use xlink:href="#ArialMT-30" x="166.845703"/>
      </g>
     </g>
    </g>
    <g id="xtick_5">
     <g id="text_5">
      <!-- 2000 -->
      <g style="fill: #262626" transform="translate(474.992375 398.416719) scale(0.15 -0.15)">
       <defs>
        <path id="ArialMT-32" d="M 3222 541 
L 3222 0 
L 194 0 
Q 188 203 259 391 
Q 375 700 629 1000 
Q 884 1300 1366 1694 
Q 2113 2306 2375 2664 
Q 2638 3022 2638 3341 
Q 2638 3675 2398 3904 
Q 2159 4134 1775 4134 
Q 1369 4134 1125 3890 
Q 881 3647 878 3216 
L 300 3275 
Q 359 3922 746 4261 
Q 1134 4600 1788 4600 
Q 2447 4600 2831 4234 
Q 3216 3869 3216 3328 
Q 3216 3053 3103 2787 
Q 2991 2522 2730 2228 
Q 2469 1934 1863 1422 
Q 1356 997 1212 845 
Q 1069 694 975 541 
L 3222 541 
z
" transform="scale(0.015625)"/>
       </defs>
       <use xlink:href="#ArialMT-32"/>
       <use xlink:href="#ArialMT-30" x="55.615234"/>
       <use xlink:href="#ArialMT-30" x="111.230469"/>
       <use xlink:href="#ArialMT-30" x="166.845703"/>
      </g>
     </g>
    </g>
    <g id="xtick_6">
     <g id="text_6">
      <!-- 2500 -->
      <g style="fill: #262626" transform="translate(563.471653 398.416719) scale(0.15 -0.15)">
       <use xlink:href="#ArialMT-32"/>
       <use xlink:href="#ArialMT-35" x="55.615234"/>
       <use xlink:href="#ArialMT-30" x="111.230469"/>
       <use xlink:href="#ArialMT-30" x="166.845703"/>
      </g>
     </g>
    </g>
    <g id="text_7">
     <!-- Time (s) -->
     <g style="fill: #262626" transform="translate(315.817891 416.3175) scale(0.15 -0.15)">
      <defs>
       <path id="ArialMT-54" d="M 1659 0 
L 1659 4041 
L 150 4041 
L 150 4581 
L 3781 4581 
L 3781 4041 
L 2266 4041 
L 2266 0 
L 1659 0 
z
" transform="scale(0.015625)"/>
       <path id="ArialMT-69" d="M 425 3934 
L 425 4581 
L 988 4581 
L 988 3934 
L 425 3934 
z
M 425 0 
L 425 3319 
L 988 3319 
L 988 0 
L 425 0 
z
" transform="scale(0.015625)"/>
       <path id="ArialMT-6d" d="M 422 0 
L 422 3319 
L 925 3319 
L 925 2853 
Q 1081 3097 1340 3245 
Q 1600 3394 1931 3394 
Q 2300 3394 2536 3241 
Q 2772 3088 2869 2813 
Q 3263 3394 3894 3394 
Q 4388 3394 4653 3120 
Q 4919 2847 4919 2278 
L 4919 0 
L 4359 0 
L 4359 2091 
Q 4359 2428 4304 2576 
Q 4250 2725 4106 2815 
Q 3963 2906 3769 2906 
Q 3419 2906 3187 2673 
Q 2956 2441 2956 1928 
L 2956 0 
L 2394 0 
L 2394 2156 
Q 2394 2531 2256 2718 
Q 2119 2906 1806 2906 
Q 1569 2906 1367 2781 
Q 1166 2656 1075 2415 
Q 984 2175 984 1722 
L 984 0 
L 422 0 
z
" transform="scale(0.015625)"/>
       <path id="ArialMT-65" d="M 2694 1069 
L 3275 997 
Q 3138 488 2766 206 
Q 2394 -75 1816 -75 
Q 1088 -75 661 373 
Q 234 822 234 1631 
Q 234 2469 665 2931 
Q 1097 3394 1784 3394 
Q 2450 3394 2872 2941 
Q 3294 2488 3294 1666 
Q 3294 1616 3291 1516 
L 816 1516 
Q 847 969 1125 678 
Q 1403 388 1819 388 
Q 2128 388 2347 550 
Q 2566 713 2694 1069 
z
M 847 1978 
L 2700 1978 
Q 2663 2397 2488 2606 
Q 2219 2931 1791 2931 
Q 1403 2931 1139 2672 
Q 875 2413 847 1978 
z
" transform="scale(0.015625)"/>
       <path id="ArialMT-20" transform="scale(0.015625)"/>
       <path id="ArialMT-28" d="M 1497 -1347 
Q 1031 -759 709 28 
Q 388 816 388 1659 
Q 388 2403 628 3084 
Q 909 3875 1497 4659 
L 1900 4659 
Q 1522 4009 1400 3731 
Q 1209 3300 1100 2831 
Q 966 2247 966 1656 
Q 966 153 1900 -1347 
L 1497 -1347 
z
" transform="scale(0.015625)"/>
       <path id="ArialMT-73" d="M 197 991 
L 753 1078 
Q 800 744 1014 566 
Q 1228 388 1613 388 
Q 2000 388 2187 545 
Q 2375 703 2375 916 
Q 2375 1106 2209 1216 
Q 2094 1291 1634 1406 
Q 1016 1563 777 1677 
Q 538 1791 414 1992 
Q 291 2194 291 2438 
Q 291 2659 392 2848 
Q 494 3038 669 3163 
Q 800 3259 1026 3326 
Q 1253 3394 1513 3394 
Q 1903 3394 2198 3281 
Q 2494 3169 2634 2976 
Q 2775 2784 2828 2463 
L 2278 2388 
Q 2241 2644 2061 2787 
Q 1881 2931 1553 2931 
Q 1166 2931 1000 2803 
Q 834 2675 834 2503 
Q 834 2394 903 2306 
Q 972 2216 1119 2156 
Q 1203 2125 1616 2013 
Q 2213 1853 2448 1751 
Q 2684 1650 2818 1456 
Q 2953 1263 2953 975 
Q 2953 694 2789 445 
Q 2625 197 2315 61 
Q 2006 -75 1616 -75 
Q 969 -75 630 194 
Q 291 463 197 991 
z
" transform="scale(0.015625)"/>
       <path id="ArialMT-29" d="M 791 -1347 
L 388 -1347 
Q 1322 153 1322 1656 
Q 1322 2244 1188 2822 
Q 1081 3291 891 3722 
Q 769 4003 388 4659 
L 791 4659 
Q 1378 3875 1659 3084 
Q 1900 2403 1900 1659 
Q 1900 816 1576 28 
Q 1253 -759 791 -1347 
z
" transform="scale(0.015625)"/>
      </defs>
      <use xlink:href="#ArialMT-54"/>
      <use xlink:href="#ArialMT-69" x="57.333984"/>
      <use xlink:href="#ArialMT-6d" x="79.550781"/>
      <use xlink:href="#ArialMT-65" x="162.851562"/>
      <use xlink:href="#ArialMT-20" x="218.466797"/>
      <use xlink:href="#ArialMT-28" x="246.25"/>
      <use xlink:href="#ArialMT-73" x="279.550781"/>
      <use xlink:href="#ArialMT-29" x="329.550781"/>
     </g>
    </g>
   </g>
   <g id="matplotlib.axis_2">
    <g id="ytick_1">
     <g id="text_8">
      <!-- −0.05 -->
      <g style="fill: #262626" transform="translate(30.847656 382.693404) scale(0.15 -0.15)">
       <defs>
        <path id="ArialMT-2212" d="M 3381 1997 
L 356 1997 
L 356 2522 
L 3381 2522 
L 3381 1997 
z
" transform="scale(0.015625)"/>
        <path id="ArialMT-2e" d="M 581 0 
L 581 641 
L 1222 641 
L 1222 0 
L 581 0 
z
" transform="scale(0.015625)"/>
       </defs>
       <use xlink:href="#ArialMT-2212"/>
       <use xlink:href="#ArialMT-30" x="58.398438"/>
       <use xlink:href="#ArialMT-2e" x="114.013672"/>
       <use xlink:href="#ArialMT-30" x="141.796875"/>
       <use xlink:href="#ArialMT-35" x="197.412109"/>
      </g>
     </g>
    </g>
    <g id="ytick_2">
     <g id="text_9">
      <!-- 0.00 -->
      <g style="fill: #262626" transform="translate(39.608594 312.037911) scale(0.15 -0.15)">
       <use xlink:href="#ArialMT-30"/>
       <use xlink:href="#ArialMT-2e" x="55.615234"/>
       <use xlink:href="#ArialMT-30" x="83.398438"/>
       <use xlink:href="#ArialMT-30" x="139.013672"/>
      </g>
     </g>
    </g>
    <g id="ytick_3">
     <g id="text_10">
      <!-- 0.05 -->
      <g style="fill: #262626" transform="translate(39.608594 241.382418) scale(0.15 -0.15)">
       <use xlink:href="#ArialMT-30"/>
       <use xlink:href="#ArialMT-2e" x="55.615234"/>
       <use xlink:href="#ArialMT-30" x="83.398438"/>
       <use xlink:href="#ArialMT-35" x="139.013672"/>
      </g>
     </g>
    </g>
    <g id="ytick_4">
     <g id="text_11">
      <!-- 0.10 -->
      <g style="fill: #262626" transform="translate(39.608594 170.726925) scale(0.15 -0.15)">
       <use xlink:href="#ArialMT-30"/>
       <use xlink:href="#ArialMT-2e" x="55.615234"/>
       <use xlink:href="#ArialMT-31" x="83.398438"/>
       <use xlink:href="#ArialMT-30" x="139.013672"/>
      </g>
     </g>
    </g>
    <g id="ytick_5">
     <g id="text_12">
      <!-- 0.15 -->
      <g style="fill: #262626" transform="translate(39.608594 100.071432) scale(0.15 -0.15)">
       <use xlink:href="#ArialMT-30"/>
       <use xlink:href="#ArialMT-2e" x="55.615234"/>
       <use xlink:href="#ArialMT-31" x="83.398438"/>
       <use xlink:href="#ArialMT-35" x="139.013672"/>
      </g>
     </g>
    </g>
    <g id="text_13">
     <!-- Divergence -->
     <g style="fill: #262626" transform="translate(23.690625 240.823594) rotate(-90) scale(0.15 -0.15)">
      <defs>
       <path id="ArialMT-44" d="M 494 0 
L 494 4581 
L 2072 4581 
Q 2606 4581 2888 4516 
Q 3281 4425 3559 4188 
Q 3922 3881 4101 3404 
Q 4281 2928 4281 2316 
Q 4281 1794 4159 1391 
Q 4038 988 3847 723 
Q 3656 459 3429 307 
Q 3203 156 2883 78 
Q 2563 0 2147 0 
L 494 0 
z
M 1100 541 
L 2078 541 
Q 2531 541 2789 625 
Q 3047 709 3200 863 
Q 3416 1078 3536 1442 
Q 3656 1806 3656 2325 
Q 3656 3044 3420 3430 
Q 3184 3816 2847 3947 
Q 2603 4041 2063 4041 
L 1100 4041 
L 1100 541 
z
" transform="scale(0.015625)"/>
       <path id="ArialMT-76" d="M 1344 0 
L 81 3319 
L 675 3319 
L 1388 1331 
Q 1503 1009 1600 663 
Q 1675 925 1809 1294 
L 2547 3319 
L 3125 3319 
L 1869 0 
L 1344 0 
z
" transform="scale(0.015625)"/>
       <path id="ArialMT-72" d="M 416 0 
L 416 3319 
L 922 3319 
L 922 2816 
Q 1116 3169 1280 3281 
Q 1444 3394 1641 3394 
Q 1925 3394 2219 3213 
L 2025 2691 
Q 1819 2813 1613 2813 
Q 1428 2813 1281 2702 
Q 1134 2591 1072 2394 
Q 978 2094 978 1738 
L 978 0 
L 416 0 
z
" transform="scale(0.015625)"/>
       <path id="ArialMT-67" d="M 319 -275 
L 866 -356 
Q 900 -609 1056 -725 
Q 1266 -881 1628 -881 
Q 2019 -881 2231 -725 
Q 2444 -569 2519 -288 
Q 2563 -116 2559 434 
Q 2191 0 1641 0 
Q 956 0 581 494 
Q 206 988 206 1678 
Q 206 2153 378 2554 
Q 550 2956 876 3175 
Q 1203 3394 1644 3394 
Q 2231 3394 2613 2919 
L 2613 3319 
L 3131 3319 
L 3131 450 
Q 3131 -325 2973 -648 
Q 2816 -972 2473 -1159 
Q 2131 -1347 1631 -1347 
Q 1038 -1347 672 -1080 
Q 306 -813 319 -275 
z
M 784 1719 
Q 784 1066 1043 766 
Q 1303 466 1694 466 
Q 2081 466 2343 764 
Q 2606 1063 2606 1700 
Q 2606 2309 2336 2618 
Q 2066 2928 1684 2928 
Q 1309 2928 1046 2623 
Q 784 2319 784 1719 
z
" transform="scale(0.015625)"/>
       <path id="ArialMT-6e" d="M 422 0 
L 422 3319 
L 928 3319 
L 928 2847 
Q 1294 3394 1984 3394 
Q 2284 3394 2536 3286 
Q 2788 3178 2913 3003 
Q 3038 2828 3088 2588 
Q 3119 2431 3119 2041 
L 3119 0 
L 2556 0 
L 2556 2019 
Q 2556 2363 2490 2533 
Q 2425 2703 2258 2804 
Q 2091 2906 1866 2906 
Q 1506 2906 1245 2678 
Q 984 2450 984 1813 
L 984 0 
L 422 0 
z
" transform="scale(0.015625)"/>
       <path id="ArialMT-63" d="M 2588 1216 
L 3141 1144 
Q 3050 572 2676 248 
Q 2303 -75 1759 -75 
Q 1078 -75 664 370 
Q 250 816 250 1647 
Q 250 2184 428 2587 
Q 606 2991 970 3192 
Q 1334 3394 1763 3394 
Q 2303 3394 2647 3120 
Q 2991 2847 3088 2344 
L 2541 2259 
Q 2463 2594 2264 2762 
Q 2066 2931 1784 2931 
Q 1359 2931 1093 2626 
Q 828 2322 828 1663 
Q 828 994 1084 691 
Q 1341 388 1753 388 
Q 2084 388 2306 591 
Q 2528 794 2588 1216 
z
" transform="scale(0.015625)"/>
      </defs>
      <use xlink:href="#ArialMT-44"/>
      <use xlink:href="#ArialMT-69" x="72.216797"/>
      <use xlink:href="#ArialMT-76" x="94.433594"/>
      <use xlink:href="#ArialMT-65" x="144.433594"/>
      <use xlink:href="#ArialMT-72" x="200.048828"/>
      <use xlink:href="#ArialMT-67" x="233.349609"/>
      <use xlink:href="#ArialMT-65" x="288.964844"/>
      <use xlink:href="#ArialMT-6e" x="344.580078"/>
      <use xlink:href="#ArialMT-63" x="400.195312"/>
      <use xlink:href="#ArialMT-65" x="450.195312"/>
     </g>
    </g>
   </g>
   <g id="PolyCollection_1">
    <defs>
     <path id="m893c50d249" d="M 102.366364 -127.644714 
L 102.366364 -125.234202 
L 109.444706 -124.438311 
L 116.523048 -128.025943 
L 123.60139 -127.907126 
L 130.679733 -125.114125 
L 137.758075 -126.965096 
L 144.836417 -85.316481 
L 151.914759 -69.755455 
L 158.993102 -97.315254 
L 166.071444 -88.372046 
L 173.149786 -108.628714 
L 180.228128 -99.949888 
L 187.306471 -87.509611 
L 194.384813 -88.067737 
L 201.463155 -132.603562 
L 208.541497 -170.019002 
L 215.61984 -144.570877 
L 222.698182 -128.574765 
L 229.776524 -136.860296 
L 236.854866 -119.673005 
L 243.933209 -101.737386 
L 251.011551 -150.040948 
L 258.089893 -141.523724 
L 265.168235 -149.445207 
L 272.246578 -132.731218 
L 279.32492 -129.811919 
L 286.403262 -122.999634 
L 293.481604 -126.531008 
L 300.559947 -162.195719 
L 307.638289 -186.778957 
L 314.716631 -169.527913 
L 321.794973 -167.772319 
L 328.873316 -198.039873 
L 335.951658 -208.30021 
L 343.03 -178.052111 
L 350.108342 -180.229276 
L 357.186684 -176.187239 
L 364.265027 -209.689801 
L 371.343369 -211.592951 
L 378.421711 -192.34855 
L 385.500053 -227.855827 
L 392.578396 -230.470094 
L 399.656738 -204.139476 
L 406.73508 -224.175462 
L 413.813422 -248.170828 
L 420.891765 -281.454698 
L 427.970107 -283.769962 
L 435.048449 -276.500384 
L 442.126791 -281.917792 
L 449.205134 -317.674341 
L 456.283476 -352.638765 
L 463.361818 -308.269933 
L 470.44016 -267.101462 
L 477.518503 -288.223315 
L 484.596845 -321.891498 
L 491.675187 -305.037281 
L 498.753529 -240.52646 
L 505.831872 -236.89198 
L 512.910214 -254.502461 
L 519.988556 -267.596029 
L 527.066898 -270.206167 
L 534.145241 -269.818273 
L 541.223583 -272.101079 
L 548.301925 -274.216922 
L 555.380267 -272.90497 
L 562.45861 -267.239548 
L 569.536952 -262.350348 
L 576.615294 -256.918423 
L 583.693636 -212.331444 
L 583.693636 -226.163277 
L 583.693636 -226.163277 
L 576.615294 -278.079423 
L 569.536952 -284.005062 
L 562.45861 -290.606627 
L 555.380267 -297.158328 
L 548.301925 -298.257613 
L 541.223583 -296.570742 
L 534.145241 -294.28689 
L 527.066898 -294.76562 
L 519.988556 -292.305093 
L 512.910214 -277.297704 
L 505.831872 -257.688861 
L 498.753529 -261.205058 
L 491.675187 -332.936797 
L 484.596845 -350.535653 
L 477.518503 -314.496215 
L 470.44016 -292.324985 
L 463.361818 -339.318503 
L 456.283476 -388.464545 
L 449.205134 -350.950372 
L 442.126791 -311.790882 
L 435.048449 -303.841002 
L 427.970107 -307.597837 
L 420.891765 -306.106517 
L 413.813422 -270.791438 
L 406.73508 -242.975548 
L 399.656738 -218.412994 
L 392.578396 -249.353502 
L 385.500053 -246.899963 
L 378.421711 -204.353494 
L 371.343369 -224.807078 
L 364.265027 -225.786785 
L 357.186684 -188.314531 
L 350.108342 -194.349436 
L 343.03 -191.375478 
L 335.951658 -223.698331 
L 328.873316 -211.177403 
L 321.794973 -176.825546 
L 314.716631 -178.598187 
L 307.638289 -198.637466 
L 300.559947 -171.805579 
L 293.481604 -131.720613 
L 286.403262 -131.319227 
L 279.32492 -137.838251 
L 272.246578 -142.336624 
L 265.168235 -158.567615 
L 258.089893 -148.353785 
L 251.011551 -157.493653 
L 243.933209 -113.578358 
L 236.854866 -128.815593 
L 229.776524 -144.497796 
L 222.698182 -137.936294 
L 215.61984 -152.555384 
L 208.541497 -180.818141 
L 201.463155 -140.043471 
L 194.384813 -100.216148 
L 187.306471 -98.646855 
L 180.228128 -108.413544 
L 173.149786 -117.433156 
L 166.071444 -99.822118 
L 158.993102 -105.575647 
L 151.914759 -80.628655 
L 144.836417 -94.166603 
L 137.758075 -132.933037 
L 130.679733 -128.25605 
L 123.60139 -130.70065 
L 116.523048 -131.207706 
L 109.444706 -127.435796 
L 102.366364 -127.644714 
z
" style="stroke: #8b0a50; stroke-opacity: 0.1"/>
    </defs>
    <g clip-path="url(#pdbcb40ce3c)">
     <use xlink:href="#m893c50d249" x="0" y="432" style="fill: #8b0a50; fill-opacity: 0.1; stroke: #8b0a50; stroke-opacity: 0.1"/>
    </g>
   </g>
   <g id="PolyCollection_2">
    <defs>
     <path id="m5f25e5e1c7" d="M 102.366364 -125.917873 
L 102.366364 -125.28832 
L 109.444706 -124.110675 
L 116.523048 -123.545482 
L 123.60139 -123.398791 
L 130.679733 -122.147085 
L 137.758075 -121.234057 
L 144.836417 -126.197937 
L 151.914759 -136.983775 
L 158.993102 -138.00639 
L 166.071444 -141.119441 
L 173.149786 -146.537122 
L 180.228128 -149.843668 
L 187.306471 -146.866644 
L 194.384813 -137.595958 
L 201.463155 -139.220161 
L 208.541497 -141.752788 
L 215.61984 -131.528195 
L 222.698182 -129.595418 
L 229.776524 -139.88295 
L 236.854866 -142.36902 
L 243.933209 -137.753571 
L 251.011551 -131.988368 
L 258.089893 -128.667394 
L 265.168235 -129.642458 
L 272.246578 -130.139832 
L 279.32492 -126.811633 
L 286.403262 -121.907816 
L 293.481604 -127.087631 
L 300.559947 -136.733407 
L 307.638289 -143.367626 
L 314.716631 -140.243605 
L 321.794973 -134.873782 
L 328.873316 -139.063943 
L 335.951658 -138.228228 
L 343.03 -137.093586 
L 350.108342 -139.941203 
L 357.186684 -144.746956 
L 364.265027 -137.674411 
L 371.343369 -131.016349 
L 378.421711 -138.163558 
L 385.500053 -141.849097 
L 392.578396 -139.8315 
L 399.656738 -148.136481 
L 406.73508 -150.684305 
L 413.813422 -144.564504 
L 420.891765 -143.556977 
L 427.970107 -146.293651 
L 435.048449 -141.155685 
L 442.126791 -138.967068 
L 449.205134 -152.752809 
L 456.283476 -159.842914 
L 463.361818 -152.176346 
L 470.44016 -146.108911 
L 477.518503 -144.150172 
L 484.596845 -146.98769 
L 491.675187 -152.10362 
L 498.753529 -145.21964 
L 505.831872 -139.609664 
L 512.910214 -138.882256 
L 519.988556 -138.33812 
L 527.066898 -138.157317 
L 534.145241 -138.190583 
L 541.223583 -138.505874 
L 548.301925 -138.392794 
L 555.380267 -137.029666 
L 562.45861 -136.096719 
L 569.536952 -135.6265 
L 576.615294 -135.85169 
L 583.693636 -131.910775 
L 583.693636 -133.204383 
L 583.693636 -133.204383 
L 576.615294 -137.746381 
L 569.536952 -137.488905 
L 562.45861 -138.051031 
L 555.380267 -139.230677 
L 548.301925 -140.835067 
L 541.223583 -140.823487 
L 534.145241 -140.405266 
L 527.066898 -140.349974 
L 519.988556 -140.799158 
L 512.910214 -141.386616 
L 505.831872 -141.985251 
L 498.753529 -148.231486 
L 491.675187 -155.352735 
L 484.596845 -150.618665 
L 477.518503 -147.030569 
L 470.44016 -149.446073 
L 463.361818 -155.925525 
L 456.283476 -164.696211 
L 449.205134 -157.716959 
L 442.126791 -141.878221 
L 435.048449 -144.133688 
L 427.970107 -149.839285 
L 420.891765 -146.871572 
L 413.813422 -147.938412 
L 406.73508 -155.066453 
L 399.656738 -151.673134 
L 392.578396 -142.450303 
L 385.500053 -144.561766 
L 378.421711 -140.378586 
L 371.343369 -133.175782 
L 364.265027 -140.000998 
L 357.186684 -147.847425 
L 350.108342 -142.917872 
L 343.03 -139.550707 
L 335.951658 -140.582601 
L 328.873316 -141.500881 
L 321.794973 -137.06732 
L 314.716631 -142.599656 
L 307.638289 -145.917483 
L 300.559947 -138.91033 
L 293.481604 -129.454767 
L 286.403262 -124.052227 
L 279.32492 -128.938862 
L 272.246578 -132.165912 
L 265.168235 -131.79232 
L 258.089893 -130.805497 
L 251.011551 -133.833772 
L 243.933209 -140.255505 
L 236.854866 -144.960319 
L 229.776524 -142.222693 
L 222.698182 -131.493958 
L 215.61984 -133.52296 
L 208.541497 -144.595023 
L 201.463155 -141.527156 
L 194.384813 -139.589556 
L 187.306471 -149.831839 
L 180.228128 -153.666392 
L 173.149786 -150.652609 
L 166.071444 -145.028971 
L 158.993102 -141.27058 
L 151.914759 -139.548496 
L 144.836417 -128.109847 
L 137.758075 -122.634799 
L 130.679733 -123.017685 
L 123.60139 -124.125893 
L 116.523048 -124.255706 
L 109.444706 -124.81376 
L 102.366364 -125.917873 
z
" style="stroke: #8b0a50; stroke-opacity: 0.1"/>
    </defs>
    <g clip-path="url(#pdbcb40ce3c)">
     <use xlink:href="#m5f25e5e1c7" x="0" y="432" style="fill: #8b0a50; fill-opacity: 0.1; stroke: #8b0a50; stroke-opacity: 0.1"/>
    </g>
   </g>
   <g id="PathCollection_1">
    <defs>
     <path id="m66e6fb12e4" d="M 0 -3 
L -0.673542 -0.927051 
L -2.85317 -0.927051 
L -1.089814 0.354102 
L -1.763356 2.427051 
L -0 1.145898 
L 1.763356 2.427051 
L 1.089814 0.354102 
L 2.85317 -0.927051 
L 0.673542 -0.927051 
z
" style="stroke: #8b0a50"/>
    </defs>
    <g clip-path="url(#pdbcb40ce3c)">
     <use xlink:href="#m66e6fb12e4" x="116.523048" y="320.80065" style="fill: #8b0a50; stroke: #8b0a50"/>
     <use xlink:href="#m66e6fb12e4" x="123.60139" y="320.80065" style="fill: #8b0a50; stroke: #8b0a50"/>
     <use xlink:href="#m66e6fb12e4" x="130.679733" y="320.80065" style="fill: #8b0a50; stroke: #8b0a50"/>
     <use xlink:href="#m66e6fb12e4" x="137.758075" y="320.80065" style="fill: #8b0a50; stroke: #8b0a50"/>
     <use xlink:href="#m66e6fb12e4" x="208.541497" y="320.80065" style="fill: #8b0a50; stroke: #8b0a50"/>
     <use xlink:href="#m66e6fb12e4" x="215.61984" y="320.80065" style="fill: #8b0a50; stroke: #8b0a50"/>
     <use xlink:href="#m66e6fb12e4" x="251.011551" y="320.80065" style="fill: #8b0a50; stroke: #8b0a50"/>
     <use xlink:href="#m66e6fb12e4" x="258.089893" y="320.80065" style="fill: #8b0a50; stroke: #8b0a50"/>
     <use xlink:href="#m66e6fb12e4" x="265.168235" y="320.80065" style="fill: #8b0a50; stroke: #8b0a50"/>
     <use xlink:href="#m66e6fb12e4" x="300.559947" y="320.80065" style="fill: #8b0a50; stroke: #8b0a50"/>
     <use xlink:href="#m66e6fb12e4" x="307.638289" y="320.80065" style="fill: #8b0a50; stroke: #8b0a50"/>
     <use xlink:href="#m66e6fb12e4" x="314.716631" y="320.80065" style="fill: #8b0a50; stroke: #8b0a50"/>
     <use xlink:href="#m66e6fb12e4" x="321.794973" y="320.80065" style="fill: #8b0a50; stroke: #8b0a50"/>
     <use xlink:href="#m66e6fb12e4" x="328.873316" y="320.80065" style="fill: #8b0a50; stroke: #8b0a50"/>
     <use xlink:href="#m66e6fb12e4" x="335.951658" y="320.80065" style="fill: #8b0a50; stroke: #8b0a50"/>
     <use xlink:href="#m66e6fb12e4" x="343.03" y="320.80065" style="fill: #8b0a50; stroke: #8b0a50"/>
     <use xlink:href="#m66e6fb12e4" x="350.108342" y="320.80065" style="fill: #8b0a50; stroke: #8b0a50"/>
     <use xlink:href="#m66e6fb12e4" x="357.186684" y="320.80065" style="fill: #8b0a50; stroke: #8b0a50"/>
     <use xlink:href="#m66e6fb12e4" x="364.265027" y="320.80065" style="fill: #8b0a50; stroke: #8b0a50"/>
     <use xlink:href="#m66e6fb12e4" x="371.343369" y="320.80065" style="fill: #8b0a50; stroke: #8b0a50"/>
     <use xlink:href="#m66e6fb12e4" x="378.421711" y="320.80065" style="fill: #8b0a50; stroke: #8b0a50"/>
     <use xlink:href="#m66e6fb12e4" x="385.500053" y="320.80065" style="fill: #8b0a50; stroke: #8b0a50"/>
     <use xlink:href="#m66e6fb12e4" x="392.578396" y="320.80065" style="fill: #8b0a50; stroke: #8b0a50"/>
     <use xlink:href="#m66e6fb12e4" x="399.656738" y="320.80065" style="fill: #8b0a50; stroke: #8b0a50"/>
     <use xlink:href="#m66e6fb12e4" x="406.73508" y="320.80065" style="fill: #8b0a50; stroke: #8b0a50"/>
     <use xlink:href="#m66e6fb12e4" x="413.813422" y="320.80065" style="fill: #8b0a50; stroke: #8b0a50"/>
     <use xlink:href="#m66e6fb12e4" x="420.891765" y="320.80065" style="fill: #8b0a50; stroke: #8b0a50"/>
     <use xlink:href="#m66e6fb12e4" x="427.970107" y="320.80065" style="fill: #8b0a50; stroke: #8b0a50"/>
     <use xlink:href="#m66e6fb12e4" x="435.048449" y="320.80065" style="fill: #8b0a50; stroke: #8b0a50"/>
     <use xlink:href="#m66e6fb12e4" x="442.126791" y="320.80065" style="fill: #8b0a50; stroke: #8b0a50"/>
     <use xlink:href="#m66e6fb12e4" x="449.205134" y="320.80065" style="fill: #8b0a50; stroke: #8b0a50"/>
     <use xlink:href="#m66e6fb12e4" x="456.283476" y="320.80065" style="fill: #8b0a50; stroke: #8b0a50"/>
     <use xlink:href="#m66e6fb12e4" x="463.361818" y="320.80065" style="fill: #8b0a50; stroke: #8b0a50"/>
     <use xlink:href="#m66e6fb12e4" x="470.44016" y="320.80065" style="fill: #8b0a50; stroke: #8b0a50"/>
     <use xlink:href="#m66e6fb12e4" x="477.518503" y="320.80065" style="fill: #8b0a50; stroke: #8b0a50"/>
     <use xlink:href="#m66e6fb12e4" x="484.596845" y="320.80065" style="fill: #8b0a50; stroke: #8b0a50"/>
     <use xlink:href="#m66e6fb12e4" x="491.675187" y="320.80065" style="fill: #8b0a50; stroke: #8b0a50"/>
     <use xlink:href="#m66e6fb12e4" x="498.753529" y="320.80065" style="fill: #8b0a50; stroke: #8b0a50"/>
     <use xlink:href="#m66e6fb12e4" x="505.831872" y="320.80065" style="fill: #8b0a50; stroke: #8b0a50"/>
     <use xlink:href="#m66e6fb12e4" x="512.910214" y="320.80065" style="fill: #8b0a50; stroke: #8b0a50"/>
     <use xlink:href="#m66e6fb12e4" x="519.988556" y="320.80065" style="fill: #8b0a50; stroke: #8b0a50"/>
     <use xlink:href="#m66e6fb12e4" x="527.066898" y="320.80065" style="fill: #8b0a50; stroke: #8b0a50"/>
     <use xlink:href="#m66e6fb12e4" x="534.145241" y="320.80065" style="fill: #8b0a50; stroke: #8b0a50"/>
     <use xlink:href="#m66e6fb12e4" x="541.223583" y="320.80065" style="fill: #8b0a50; stroke: #8b0a50"/>
     <use xlink:href="#m66e6fb12e4" x="548.301925" y="320.80065" style="fill: #8b0a50; stroke: #8b0a50"/>
     <use xlink:href="#m66e6fb12e4" x="555.380267" y="320.80065" style="fill: #8b0a50; stroke: #8b0a50"/>
     <use xlink:href="#m66e6fb12e4" x="562.45861" y="320.80065" style="fill: #8b0a50; stroke: #8b0a50"/>
     <use xlink:href="#m66e6fb12e4" x="569.536952" y="320.80065" style="fill: #8b0a50; stroke: #8b0a50"/>
     <use xlink:href="#m66e6fb12e4" x="576.615294" y="320.80065" style="fill: #8b0a50; stroke: #8b0a50"/>
     <use xlink:href="#m66e6fb12e4" x="583.693636" y="320.80065" style="fill: #8b0a50; stroke: #8b0a50"/>
    </g>
   </g>
   <g id="PolyCollection_3">
    <defs>
     <path id="m5af9a03903" d="M 102.366364 -114.290783 
L 102.366364 -90.623472 
L 109.444706 -98.930795 
L 116.523048 -102.339813 
L 123.60139 -111.75597 
L 130.679733 -125.503111 
L 137.758075 -138.549025 
L 144.836417 -132.000938 
L 151.914759 -120.587431 
L 158.993102 -123.485805 
L 166.071444 -132.260653 
L 173.149786 -137.016233 
L 180.228128 -145.846724 
L 187.306471 -142.861552 
L 194.384813 -138.064978 
L 201.463155 -133.872365 
L 208.541497 -143.109398 
L 215.61984 -153.593532 
L 222.698182 -147.562528 
L 229.776524 -146.329979 
L 236.854866 -145.451244 
L 243.933209 -145.207266 
L 251.011551 -142.669812 
L 258.089893 -145.528671 
L 265.168235 -151.384846 
L 272.246578 -153.381003 
L 279.32492 -153.302563 
L 286.403262 -154.781899 
L 293.481604 -152.714891 
L 300.559947 -155.546562 
L 307.638289 -155.300516 
L 314.716631 -160.127808 
L 321.794973 -165.563323 
L 328.873316 -172.753609 
L 335.951658 -173.426511 
L 343.03 -168.63906 
L 350.108342 -167.246227 
L 357.186684 -170.367219 
L 364.265027 -175.777834 
L 371.343369 -175.824336 
L 378.421711 -171.906841 
L 385.500053 -175.360985 
L 392.578396 -185.739109 
L 399.656738 -190.162239 
L 406.73508 -195.739746 
L 413.813422 -193.813084 
L 420.891765 -199.147656 
L 427.970107 -204.140527 
L 435.048449 -203.400054 
L 442.126791 -204.964235 
L 449.205134 -208.976018 
L 456.283476 -215.163681 
L 463.361818 -222.244522 
L 470.44016 -227.531714 
L 477.518503 -226.165355 
L 484.596845 -226.311998 
L 491.675187 -230.713773 
L 498.753529 -233.324859 
L 505.831872 -231.405244 
L 512.910214 -225.549024 
L 519.988556 -225.442651 
L 527.066898 -223.308541 
L 534.145241 -226.364852 
L 541.223583 -233.771627 
L 548.301925 -228.377559 
L 555.380267 -221.190222 
L 562.45861 -211.158255 
L 569.536952 -205.591621 
L 576.615294 -198.92804 
L 583.693636 -170.819448 
L 583.693636 -192.049943 
L 583.693636 -192.049943 
L 576.615294 -229.769571 
L 569.536952 -236.012037 
L 562.45861 -242.322967 
L 555.380267 -252.441631 
L 548.301925 -258.942954 
L 541.223583 -265.18639 
L 534.145241 -257.496764 
L 527.066898 -254.935962 
L 519.988556 -257.247493 
L 512.910214 -257.654593 
L 505.831872 -262.82537 
L 498.753529 -266.258373 
L 491.675187 -265.068065 
L 484.596845 -260.277514 
L 477.518503 -260.010468 
L 470.44016 -261.059128 
L 463.361818 -254.386906 
L 456.283476 -245.02323 
L 449.205134 -237.362127 
L 442.126791 -231.312503 
L 435.048449 -228.447002 
L 427.970107 -229.763315 
L 420.891765 -223.691482 
L 413.813422 -217.971344 
L 406.73508 -219.192642 
L 399.656738 -213.697795 
L 392.578396 -208.24988 
L 385.500053 -195.96374 
L 378.421711 -191.985069 
L 371.343369 -196.432436 
L 364.265027 -194.784956 
L 357.186684 -188.742073 
L 350.108342 -185.254392 
L 343.03 -186.210187 
L 335.951658 -190.359179 
L 328.873316 -189.770423 
L 321.794973 -182.683725 
L 314.716631 -177.507764 
L 307.638289 -172.627329 
L 300.559947 -174.250167 
L 293.481604 -171.158914 
L 286.403262 -173.354906 
L 279.32492 -169.647195 
L 272.246578 -169.67002 
L 265.168235 -167.857074 
L 258.089893 -163.163135 
L 251.011551 -161.741068 
L 243.933209 -163.745177 
L 236.854866 -162.968426 
L 229.776524 -164.253111 
L 222.698182 -165.10252 
L 215.61984 -170.015619 
L 208.541497 -161.673915 
L 201.463155 -152.954939 
L 194.384813 -157.167316 
L 187.306471 -161.925779 
L 180.228128 -166.152874 
L 173.149786 -158.366025 
L 166.071444 -153.596419 
L 158.993102 -146.373253 
L 151.914759 -147.264626 
L 144.836417 -157.958296 
L 137.758075 -167.041429 
L 130.679733 -153.846496 
L 123.60139 -140.468519 
L 116.523048 -137.00078 
L 109.444706 -133.398908 
L 102.366364 -114.290783 
z
" style="stroke: #eb6ab0; stroke-opacity: 0.1"/>
    </defs>
    <g clip-path="url(#pdbcb40ce3c)">
     <use xlink:href="#m5af9a03903" x="0" y="432" style="fill: #eb6ab0; fill-opacity: 0.1; stroke: #eb6ab0; stroke-opacity: 0.1"/>
    </g>
   </g>
   <g id="PolyCollection_4">
    <defs>
     <path id="m4a81ea44f0" d="M 102.366364 -127.016363 
L 102.366364 -122.804596 
L 109.444706 -123.729138 
L 116.523048 -126.620998 
L 123.60139 -126.241036 
L 130.679733 -126.488433 
L 137.758075 -128.287062 
L 144.836417 -132.681526 
L 151.914759 -137.614609 
L 158.993102 -141.247861 
L 166.071444 -145.237159 
L 173.149786 -149.128133 
L 180.228128 -153.830544 
L 187.306471 -157.141556 
L 194.384813 -157.337641 
L 201.463155 -158.428016 
L 208.541497 -159.088659 
L 215.61984 -159.262092 
L 222.698182 -159.888288 
L 229.776524 -159.516503 
L 236.854866 -160.607637 
L 243.933209 -161.480435 
L 251.011551 -160.348324 
L 258.089893 -160.844123 
L 265.168235 -160.524824 
L 272.246578 -160.214575 
L 279.32492 -160.398563 
L 286.403262 -162.178688 
L 293.481604 -163.37154 
L 300.559947 -163.448768 
L 307.638289 -164.012127 
L 314.716631 -161.890161 
L 321.794973 -160.612225 
L 328.873316 -162.047449 
L 335.951658 -161.729917 
L 343.03 -160.57206 
L 350.108342 -160.74163 
L 357.186684 -159.888267 
L 364.265027 -161.519087 
L 371.343369 -161.340779 
L 378.421711 -160.12355 
L 385.500053 -160.640724 
L 392.578396 -162.018353 
L 399.656738 -163.552344 
L 406.73508 -165.946019 
L 413.813422 -166.352186 
L 420.891765 -166.193657 
L 427.970107 -164.221811 
L 435.048449 -164.603003 
L 442.126791 -164.228034 
L 449.205134 -162.992316 
L 456.283476 -161.078195 
L 463.361818 -160.558185 
L 470.44016 -160.204597 
L 477.518503 -158.747955 
L 484.596845 -157.525017 
L 491.675187 -156.631072 
L 498.753529 -155.821094 
L 505.831872 -153.399496 
L 512.910214 -151.833719 
L 519.988556 -152.115998 
L 527.066898 -150.543279 
L 534.145241 -148.570187 
L 541.223583 -148.558729 
L 548.301925 -148.191358 
L 555.380267 -145.529381 
L 562.45861 -143.523094 
L 569.536952 -143.939514 
L 576.615294 -144.226874 
L 583.693636 -136.69509 
L 583.693636 -140.020276 
L 583.693636 -140.020276 
L 576.615294 -149.159947 
L 569.536952 -149.164767 
L 562.45861 -148.469448 
L 555.380267 -150.408032 
L 548.301925 -153.29279 
L 541.223583 -154.081326 
L 534.145241 -154.128848 
L 527.066898 -155.964667 
L 519.988556 -157.455873 
L 512.910214 -157.30456 
L 505.831872 -158.589574 
L 498.753529 -161.036601 
L 491.675187 -162.028432 
L 484.596845 -162.985769 
L 477.518503 -164.231336 
L 470.44016 -165.929257 
L 463.361818 -166.317344 
L 456.283476 -166.888978 
L 449.205134 -168.613288 
L 442.126791 -169.840593 
L 435.048449 -170.633895 
L 427.970107 -170.113582 
L 420.891765 -172.064551 
L 413.813422 -172.257775 
L 406.73508 -171.86644 
L 399.656738 -169.118563 
L 392.578396 -167.717582 
L 385.500053 -166.590583 
L 378.421711 -165.938692 
L 371.343369 -167.257466 
L 364.265027 -167.529873 
L 357.186684 -166.06896 
L 350.108342 -166.847285 
L 343.03 -166.477176 
L 335.951658 -167.424473 
L 328.873316 -167.761952 
L 321.794973 -166.513566 
L 314.716631 -168.052086 
L 307.638289 -170.317355 
L 300.559947 -169.833967 
L 293.481604 -169.625812 
L 286.403262 -168.132113 
L 279.32492 -166.333649 
L 272.246578 -166.049359 
L 265.168235 -166.268583 
L 258.089893 -166.347793 
L 251.011551 -165.687224 
L 243.933209 -166.845889 
L 236.854866 -166.126811 
L 229.776524 -164.75697 
L 222.698182 -165.079335 
L 215.61984 -164.65547 
L 208.541497 -164.556597 
L 201.463155 -163.901606 
L 194.384813 -162.742399 
L 187.306471 -162.296646 
L 180.228128 -158.791721 
L 173.149786 -154.508991 
L 166.071444 -150.461807 
L 158.993102 -146.29793 
L 151.914759 -142.835759 
L 144.836417 -138.859667 
L 137.758075 -135.073722 
L 130.679733 -133.052618 
L 123.60139 -132.701393 
L 116.523048 -132.926229 
L 109.444706 -129.178492 
L 102.366364 -127.016363 
z
" style="stroke: #eb6ab0; stroke-opacity: 0.1"/>
    </defs>
    <g clip-path="url(#pdbcb40ce3c)">
     <use xlink:href="#m4a81ea44f0" x="0" y="432" style="fill: #eb6ab0; fill-opacity: 0.1; stroke: #eb6ab0; stroke-opacity: 0.1"/>
    </g>
   </g>
   <g id="PathCollection_2">
    <defs>
     <path id="mb94a361de0" d="M 0 -3 
L -0.673542 -0.927051 
L -2.85317 -0.927051 
L -1.089814 0.354102 
L -1.763356 2.427051 
L -0 1.145898 
L 1.763356 2.427051 
L 1.089814 0.354102 
L 2.85317 -0.927051 
L 0.673542 -0.927051 
z
" style="stroke: #eb6ab0"/>
    </defs>
    <g clip-path="url(#pdbcb40ce3c)">
     <use xlink:href="#mb94a361de0" x="328.873316" y="334.931749" style="fill: #eb6ab0; stroke: #eb6ab0"/>
     <use xlink:href="#mb94a361de0" x="335.951658" y="334.931749" style="fill: #eb6ab0; stroke: #eb6ab0"/>
     <use xlink:href="#mb94a361de0" x="357.186684" y="334.931749" style="fill: #eb6ab0; stroke: #eb6ab0"/>
     <use xlink:href="#mb94a361de0" x="364.265027" y="334.931749" style="fill: #eb6ab0; stroke: #eb6ab0"/>
     <use xlink:href="#mb94a361de0" x="371.343369" y="334.931749" style="fill: #eb6ab0; stroke: #eb6ab0"/>
     <use xlink:href="#mb94a361de0" x="378.421711" y="334.931749" style="fill: #eb6ab0; stroke: #eb6ab0"/>
     <use xlink:href="#mb94a361de0" x="385.500053" y="334.931749" style="fill: #eb6ab0; stroke: #eb6ab0"/>
     <use xlink:href="#mb94a361de0" x="392.578396" y="334.931749" style="fill: #eb6ab0; stroke: #eb6ab0"/>
     <use xlink:href="#mb94a361de0" x="399.656738" y="334.931749" style="fill: #eb6ab0; stroke: #eb6ab0"/>
     <use xlink:href="#mb94a361de0" x="406.73508" y="334.931749" style="fill: #eb6ab0; stroke: #eb6ab0"/>
     <use xlink:href="#mb94a361de0" x="413.813422" y="334.931749" style="fill: #eb6ab0; stroke: #eb6ab0"/>
     <use xlink:href="#mb94a361de0" x="420.891765" y="334.931749" style="fill: #eb6ab0; stroke: #eb6ab0"/>
     <use xlink:href="#mb94a361de0" x="427.970107" y="334.931749" style="fill: #eb6ab0; stroke: #eb6ab0"/>
     <use xlink:href="#mb94a361de0" x="435.048449" y="334.931749" style="fill: #eb6ab0; stroke: #eb6ab0"/>
     <use xlink:href="#mb94a361de0" x="442.126791" y="334.931749" style="fill: #eb6ab0; stroke: #eb6ab0"/>
     <use xlink:href="#mb94a361de0" x="449.205134" y="334.931749" style="fill: #eb6ab0; stroke: #eb6ab0"/>
     <use xlink:href="#mb94a361de0" x="456.283476" y="334.931749" style="fill: #eb6ab0; stroke: #eb6ab0"/>
     <use xlink:href="#mb94a361de0" x="463.361818" y="334.931749" style="fill: #eb6ab0; stroke: #eb6ab0"/>
     <use xlink:href="#mb94a361de0" x="470.44016" y="334.931749" style="fill: #eb6ab0; stroke: #eb6ab0"/>
     <use xlink:href="#mb94a361de0" x="477.518503" y="334.931749" style="fill: #eb6ab0; stroke: #eb6ab0"/>
     <use xlink:href="#mb94a361de0" x="484.596845" y="334.931749" style="fill: #eb6ab0; stroke: #eb6ab0"/>
     <use xlink:href="#mb94a361de0" x="491.675187" y="334.931749" style="fill: #eb6ab0; stroke: #eb6ab0"/>
     <use xlink:href="#mb94a361de0" x="498.753529" y="334.931749" style="fill: #eb6ab0; stroke: #eb6ab0"/>
     <use xlink:href="#mb94a361de0" x="505.831872" y="334.931749" style="fill: #eb6ab0; stroke: #eb6ab0"/>
     <use xlink:href="#mb94a361de0" x="512.910214" y="334.931749" style="fill: #eb6ab0; stroke: #eb6ab0"/>
     <use xlink:href="#mb94a361de0" x="519.988556" y="334.931749" style="fill: #eb6ab0; stroke: #eb6ab0"/>
     <use xlink:href="#mb94a361de0" x="527.066898" y="334.931749" style="fill: #eb6ab0; stroke: #eb6ab0"/>
     <use xlink:href="#mb94a361de0" x="534.145241" y="334.931749" style="fill: #eb6ab0; stroke: #eb6ab0"/>
     <use xlink:href="#mb94a361de0" x="541.223583" y="334.931749" style="fill: #eb6ab0; stroke: #eb6ab0"/>
     <use xlink:href="#mb94a361de0" x="548.301925" y="334.931749" style="fill: #eb6ab0; stroke: #eb6ab0"/>
     <use xlink:href="#mb94a361de0" x="555.380267" y="334.931749" style="fill: #eb6ab0; stroke: #eb6ab0"/>
     <use xlink:href="#mb94a361de0" x="562.45861" y="334.931749" style="fill: #eb6ab0; stroke: #eb6ab0"/>
     <use xlink:href="#mb94a361de0" x="569.536952" y="334.931749" style="fill: #eb6ab0; stroke: #eb6ab0"/>
     <use xlink:href="#mb94a361de0" x="576.615294" y="334.931749" style="fill: #eb6ab0; stroke: #eb6ab0"/>
     <use xlink:href="#mb94a361de0" x="583.693636" y="334.931749" style="fill: #eb6ab0; stroke: #eb6ab0"/>
    </g>
   </g>
   <g id="line2d_1">
    <path d="M 102.366364 305.560542 
L 109.444706 306.062946 
L 116.523048 302.383176 
L 123.60139 302.696112 
L 130.679733 305.314912 
L 137.758075 302.050934 
L 144.836417 342.258458 
L 151.914759 356.807945 
L 158.993102 330.55455 
L 166.071444 337.902918 
L 173.149786 318.969065 
L 180.228128 327.818284 
L 187.306471 338.921767 
L 194.384813 337.858057 
L 201.463155 295.676484 
L 208.541497 256.581429 
L 215.61984 283.43687 
L 222.698182 298.74447 
L 229.776524 291.320954 
L 236.854866 307.755701 
L 243.933209 324.342128 
L 251.011551 278.2327 
L 258.089893 287.061245 
L 265.168235 277.993589 
L 272.246578 294.466079 
L 279.32492 298.174915 
L 286.403262 304.84057 
L 293.481604 302.874189 
L 300.559947 264.999351 
L 307.638289 239.291789 
L 314.716631 257.93695 
L 321.794973 259.701067 
L 328.873316 227.391362 
L 335.951658 216.000729 
L 343.03 247.286206 
L 350.108342 244.710644 
L 357.186684 249.749115 
L 364.265027 214.261707 
L 371.343369 213.799985 
L 378.421711 233.648978 
L 385.500053 194.622105 
L 392.578396 192.088202 
L 399.656738 220.723765 
L 406.73508 198.424495 
L 413.813422 172.518867 
L 420.891765 138.219392 
L 427.970107 136.3161 
L 435.048449 141.829307 
L 442.126791 135.145663 
L 449.205134 97.687643 
L 456.283476 61.448345 
L 463.361818 108.205782 
L 470.44016 152.286777 
L 477.518503 130.640235 
L 484.596845 95.786425 
L 491.675187 113.012961 
L 498.753529 181.134241 
L 505.831872 184.70958 
L 512.910214 166.099918 
L 519.988556 152.049439 
L 527.066898 149.514107 
L 534.145241 149.947418 
L 541.223583 147.664089 
L 548.301925 145.762733 
L 555.380267 146.968351 
L 562.45861 153.076913 
L 569.536952 158.822295 
L 576.615294 164.501077 
L 583.693636 212.752639 
" clip-path="url(#pdbcb40ce3c)" style="fill: none; stroke: #8b0a50; stroke-width: 2; stroke-linecap: round"/>
   </g>
   <g id="line2d_2">
    <path d="M 102.366364 306.396904 
L 109.444706 307.537783 
L 116.523048 308.099406 
L 123.60139 308.237658 
L 130.679733 309.417615 
L 137.758075 310.065572 
L 144.836417 304.846108 
L 151.914759 293.733865 
L 158.993102 292.361515 
L 166.071444 288.925794 
L 173.149786 283.405135 
L 180.228128 280.24497 
L 187.306471 283.650758 
L 194.384813 293.407243 
L 201.463155 291.626342 
L 208.541497 288.826095 
L 215.61984 299.474422 
L 222.698182 301.455312 
L 229.776524 290.947179 
L 236.854866 288.335331 
L 243.933209 292.995462 
L 251.011551 299.08893 
L 258.089893 302.263555 
L 265.168235 301.282611 
L 272.246578 300.847128 
L 279.32492 304.124752 
L 286.403262 309.019978 
L 293.481604 303.728801 
L 300.559947 294.178131 
L 307.638289 287.357446 
L 314.716631 290.57837 
L 321.794973 296.029449 
L 328.873316 291.717588 
L 335.951658 292.594586 
L 343.03 293.677853 
L 350.108342 290.570462 
L 357.186684 285.70281 
L 364.265027 293.162295 
L 371.343369 299.903934 
L 378.421711 292.728928 
L 385.500053 288.794569 
L 392.578396 290.859099 
L 399.656738 282.095192 
L 406.73508 279.124621 
L 413.813422 285.748542 
L 420.891765 286.785726 
L 427.970107 283.933532 
L 435.048449 289.355313 
L 442.126791 291.577355 
L 449.205134 276.765116 
L 456.283476 269.730437 
L 463.361818 277.949065 
L 470.44016 284.222508 
L 477.518503 286.409629 
L 484.596845 283.196822 
L 491.675187 278.271823 
L 498.753529 285.274437 
L 505.831872 291.202543 
L 512.910214 291.865564 
L 519.988556 292.431361 
L 527.066898 292.746354 
L 534.145241 292.702075 
L 541.223583 292.335319 
L 548.301925 292.38607 
L 555.380267 293.869829 
L 562.45861 294.926125 
L 569.536952 295.442298 
L 576.615294 295.200964 
L 583.693636 299.442421 
" clip-path="url(#pdbcb40ce3c)" style="fill: none; stroke-dasharray: 7.4,3.2; stroke-dashoffset: 0; stroke: #8b0a50; stroke-width: 2"/>
   </g>
   <g id="line2d_3">
    <path d="M 137.758075 378.18 
L 137.758075 27.6 
" clip-path="url(#pdbcb40ce3c)" style="fill: none; stroke-dasharray: 5.55,2.4; stroke-dashoffset: 0; stroke: #1a1a1a; stroke-width: 1.5"/>
   </g>
   <g id="line2d_4">
    <path d="M 314.716631 378.18 
L 314.716631 27.6 
" clip-path="url(#pdbcb40ce3c)" style="fill: none; stroke-dasharray: 5.55,2.4; stroke-dashoffset: 0; stroke: #1a1a1a; stroke-width: 1.5"/>
   </g>
   <g id="line2d_5">
    <path d="M 102.366364 329.542872 
L 109.444706 315.835148 
L 116.523048 312.329703 
L 123.60139 305.887755 
L 130.679733 292.325196 
L 137.758075 279.204773 
L 144.836417 287.020383 
L 151.914759 298.073972 
L 158.993102 297.070471 
L 166.071444 289.071464 
L 173.149786 284.308871 
L 180.228128 276.000201 
L 187.306471 279.606335 
L 194.384813 284.383853 
L 201.463155 288.586348 
L 208.541497 279.608343 
L 215.61984 270.195425 
L 222.698182 275.667476 
L 229.776524 276.708455 
L 236.854866 277.790165 
L 243.933209 277.523779 
L 251.011551 279.79456 
L 258.089893 277.654097 
L 265.168235 272.37904 
L 272.246578 270.474489 
L 279.32492 270.525121 
L 286.403262 267.931597 
L 293.481604 270.063098 
L 300.559947 267.101635 
L 307.638289 268.036077 
L 314.716631 263.182214 
L 321.794973 257.876476 
L 328.873316 250.737984 
L 335.951658 250.107155 
L 343.03 254.575377 
L 350.108342 255.749691 
L 357.186684 252.445354 
L 364.265027 246.718605 
L 371.343369 245.871614 
L 378.421711 250.054045 
L 385.500053 246.337637 
L 392.578396 235.005506 
L 399.656738 230.069983 
L 406.73508 224.533806 
L 413.813422 226.107786 
L 420.891765 220.580431 
L 427.970107 215.048079 
L 435.048449 216.076472 
L 442.126791 213.861631 
L 449.205134 208.830927 
L 456.283476 201.906545 
L 463.361818 193.684286 
L 470.44016 187.704579 
L 477.518503 188.912089 
L 484.596845 188.705244 
L 491.675187 184.109081 
L 498.753529 182.208384 
L 505.831872 184.884693 
L 512.910214 190.398192 
L 519.988556 190.654928 
L 527.066898 192.877749 
L 534.145241 190.069192 
L 541.223583 182.520991 
L 548.301925 188.339744 
L 555.380267 195.184073 
L 562.45861 205.259389 
L 569.536952 211.198171 
L 576.615294 217.651194 
L 583.693636 250.565304 
" clip-path="url(#pdbcb40ce3c)" style="fill: none; stroke: #eb6ab0; stroke-width: 2; stroke-linecap: round"/>
   </g>
   <g id="line2d_6">
    <path d="M 102.366364 307.08952 
L 109.444706 305.546185 
L 116.523048 302.226387 
L 123.60139 302.528785 
L 130.679733 302.229475 
L 137.758075 300.319608 
L 144.836417 296.229403 
L 151.914759 291.774816 
L 158.993102 288.227105 
L 166.071444 284.150517 
L 173.149786 280.181438 
L 180.228128 275.688868 
L 187.306471 272.280899 
L 194.384813 271.95998 
L 201.463155 270.835189 
L 208.541497 270.177372 
L 215.61984 270.041219 
L 222.698182 269.516189 
L 229.776524 269.863263 
L 236.854866 268.632776 
L 243.933209 267.836838 
L 251.011551 268.982226 
L 258.089893 268.404042 
L 265.168235 268.603297 
L 272.246578 268.868033 
L 279.32492 268.633894 
L 286.403262 266.844599 
L 293.481604 265.501324 
L 300.559947 265.358632 
L 307.638289 264.835259 
L 314.716631 267.028877 
L 321.794973 268.437105 
L 328.873316 267.0953 
L 335.951658 267.422805 
L 343.03 268.475382 
L 350.108342 268.205543 
L 357.186684 269.021387 
L 364.265027 267.47552 
L 371.343369 267.700878 
L 378.421711 268.968879 
L 385.500053 268.384347 
L 392.578396 267.132033 
L 399.656738 265.664546 
L 406.73508 263.093771 
L 413.813422 262.69502 
L 420.891765 262.870896 
L 427.970107 264.832304 
L 435.048449 264.381551 
L 442.126791 264.965687 
L 449.205134 266.197198 
L 456.283476 268.016414 
L 463.361818 268.562236 
L 470.44016 268.933073 
L 477.518503 270.510355 
L 484.596845 271.744607 
L 491.675187 272.670248 
L 498.753529 273.571153 
L 505.831872 276.005465 
L 512.910214 277.430861 
L 519.988556 277.214064 
L 527.066898 278.746027 
L 534.145241 280.650483 
L 541.223583 280.679973 
L 548.301925 281.257926 
L 555.380267 284.031294 
L 562.45861 286.003729 
L 569.536952 285.447859 
L 576.615294 285.306589 
L 583.693636 293.642317 
" clip-path="url(#pdbcb40ce3c)" style="fill: none; stroke-dasharray: 7.4,3.2; stroke-dashoffset: 0; stroke: #eb6ab0; stroke-width: 2"/>
   </g>
   <g id="line2d_7">
    <path d="M 137.758075 378.18 
L 137.758075 27.6 
" clip-path="url(#pdbcb40ce3c)" style="fill: none; stroke-dasharray: 5.55,2.4; stroke-dashoffset: 0; stroke: #1a1a1a; stroke-width: 1.5"/>
   </g>
   <g id="line2d_8">
    <path d="M 314.716631 378.18 
L 314.716631 27.6 
" clip-path="url(#pdbcb40ce3c)" style="fill: none; stroke-dasharray: 5.55,2.4; stroke-dashoffset: 0; stroke: #1a1a1a; stroke-width: 1.5"/>
   </g>
   <g id="patch_3">
    <path d="M 78.3 378.18 
L 78.3 27.6 
" style="fill: none; stroke: #cccccc; stroke-width: 1.5; stroke-linejoin: miter; stroke-linecap: square"/>
   </g>
   <g id="patch_4">
    <path d="M 78.3 378.18 
L 607.76 378.18 
" style="fill: none; stroke: #cccccc; stroke-width: 1.5; stroke-linejoin: miter; stroke-linecap: square"/>
   </g>
   <g id="text_14">
    <!-- Divergence Comparison: Original vs Shuffled -->
    <g style="fill: #262626" transform="translate(193.5175 21.6) scale(0.15 -0.15)">
     <defs>
      <path id="ArialMT-43" d="M 3763 1606 
L 4369 1453 
Q 4178 706 3683 314 
Q 3188 -78 2472 -78 
Q 1731 -78 1267 223 
Q 803 525 561 1097 
Q 319 1669 319 2325 
Q 319 3041 592 3573 
Q 866 4106 1370 4382 
Q 1875 4659 2481 4659 
Q 3169 4659 3637 4309 
Q 4106 3959 4291 3325 
L 3694 3184 
Q 3534 3684 3231 3912 
Q 2928 4141 2469 4141 
Q 1941 4141 1586 3887 
Q 1231 3634 1087 3207 
Q 944 2781 944 2328 
Q 944 1744 1114 1308 
Q 1284 872 1643 656 
Q 2003 441 2422 441 
Q 2931 441 3284 734 
Q 3638 1028 3763 1606 
z
" transform="scale(0.015625)"/>
      <path id="ArialMT-6f" d="M 213 1659 
Q 213 2581 725 3025 
Q 1153 3394 1769 3394 
Q 2453 3394 2887 2945 
Q 3322 2497 3322 1706 
Q 3322 1066 3130 698 
Q 2938 331 2570 128 
Q 2203 -75 1769 -75 
Q 1072 -75 642 372 
Q 213 819 213 1659 
z
M 791 1659 
Q 791 1022 1069 705 
Q 1347 388 1769 388 
Q 2188 388 2466 706 
Q 2744 1025 2744 1678 
Q 2744 2294 2464 2611 
Q 2184 2928 1769 2928 
Q 1347 2928 1069 2612 
Q 791 2297 791 1659 
z
" transform="scale(0.015625)"/>
      <path id="ArialMT-70" d="M 422 -1272 
L 422 3319 
L 934 3319 
L 934 2888 
Q 1116 3141 1344 3267 
Q 1572 3394 1897 3394 
Q 2322 3394 2647 3175 
Q 2972 2956 3137 2557 
Q 3303 2159 3303 1684 
Q 3303 1175 3120 767 
Q 2938 359 2589 142 
Q 2241 -75 1856 -75 
Q 1575 -75 1351 44 
Q 1128 163 984 344 
L 984 -1272 
L 422 -1272 
z
M 931 1641 
Q 931 1000 1190 694 
Q 1450 388 1819 388 
Q 2194 388 2461 705 
Q 2728 1022 2728 1688 
Q 2728 2322 2467 2637 
Q 2206 2953 1844 2953 
Q 1484 2953 1207 2617 
Q 931 2281 931 1641 
z
" transform="scale(0.015625)"/>
      <path id="ArialMT-61" d="M 2588 409 
Q 2275 144 1986 34 
Q 1697 -75 1366 -75 
Q 819 -75 525 192 
Q 231 459 231 875 
Q 231 1119 342 1320 
Q 453 1522 633 1644 
Q 813 1766 1038 1828 
Q 1203 1872 1538 1913 
Q 2219 1994 2541 2106 
Q 2544 2222 2544 2253 
Q 2544 2597 2384 2738 
Q 2169 2928 1744 2928 
Q 1347 2928 1158 2789 
Q 969 2650 878 2297 
L 328 2372 
Q 403 2725 575 2942 
Q 747 3159 1072 3276 
Q 1397 3394 1825 3394 
Q 2250 3394 2515 3294 
Q 2781 3194 2906 3042 
Q 3031 2891 3081 2659 
Q 3109 2516 3109 2141 
L 3109 1391 
Q 3109 606 3145 398 
Q 3181 191 3288 0 
L 2700 0 
Q 2613 175 2588 409 
z
M 2541 1666 
Q 2234 1541 1622 1453 
Q 1275 1403 1131 1340 
Q 988 1278 909 1158 
Q 831 1038 831 891 
Q 831 666 1001 516 
Q 1172 366 1500 366 
Q 1825 366 2078 508 
Q 2331 650 2450 897 
Q 2541 1088 2541 1459 
L 2541 1666 
z
" transform="scale(0.015625)"/>
      <path id="ArialMT-3a" d="M 578 2678 
L 578 3319 
L 1219 3319 
L 1219 2678 
L 578 2678 
z
M 578 0 
L 578 641 
L 1219 641 
L 1219 0 
L 578 0 
z
" transform="scale(0.015625)"/>
      <path id="ArialMT-4f" d="M 309 2231 
Q 309 3372 921 4017 
Q 1534 4663 2503 4663 
Q 3138 4663 3647 4359 
Q 4156 4056 4423 3514 
Q 4691 2972 4691 2284 
Q 4691 1588 4409 1038 
Q 4128 488 3612 205 
Q 3097 -78 2500 -78 
Q 1853 -78 1343 234 
Q 834 547 571 1087 
Q 309 1628 309 2231 
z
M 934 2222 
Q 934 1394 1379 917 
Q 1825 441 2497 441 
Q 3181 441 3623 922 
Q 4066 1403 4066 2288 
Q 4066 2847 3877 3264 
Q 3688 3681 3323 3911 
Q 2959 4141 2506 4141 
Q 1863 4141 1398 3698 
Q 934 3256 934 2222 
z
" transform="scale(0.015625)"/>
      <path id="ArialMT-6c" d="M 409 0 
L 409 4581 
L 972 4581 
L 972 0 
L 409 0 
z
" transform="scale(0.015625)"/>
      <path id="ArialMT-53" d="M 288 1472 
L 859 1522 
Q 900 1178 1048 958 
Q 1197 738 1509 602 
Q 1822 466 2213 466 
Q 2559 466 2825 569 
Q 3091 672 3220 851 
Q 3350 1031 3350 1244 
Q 3350 1459 3225 1620 
Q 3100 1781 2813 1891 
Q 2628 1963 1997 2114 
Q 1366 2266 1113 2400 
Q 784 2572 623 2826 
Q 463 3081 463 3397 
Q 463 3744 659 4045 
Q 856 4347 1234 4503 
Q 1613 4659 2075 4659 
Q 2584 4659 2973 4495 
Q 3363 4331 3572 4012 
Q 3781 3694 3797 3291 
L 3216 3247 
Q 3169 3681 2898 3903 
Q 2628 4125 2100 4125 
Q 1550 4125 1298 3923 
Q 1047 3722 1047 3438 
Q 1047 3191 1225 3031 
Q 1400 2872 2139 2705 
Q 2878 2538 3153 2413 
Q 3553 2228 3743 1945 
Q 3934 1663 3934 1294 
Q 3934 928 3725 604 
Q 3516 281 3123 101 
Q 2731 -78 2241 -78 
Q 1619 -78 1198 103 
Q 778 284 539 648 
Q 300 1013 288 1472 
z
" transform="scale(0.015625)"/>
      <path id="ArialMT-68" d="M 422 0 
L 422 4581 
L 984 4581 
L 984 2938 
Q 1378 3394 1978 3394 
Q 2347 3394 2619 3248 
Q 2891 3103 3008 2847 
Q 3125 2591 3125 2103 
L 3125 0 
L 2563 0 
L 2563 2103 
Q 2563 2525 2380 2717 
Q 2197 2909 1863 2909 
Q 1613 2909 1392 2779 
Q 1172 2650 1078 2428 
Q 984 2206 984 1816 
L 984 0 
L 422 0 
z
" transform="scale(0.015625)"/>
      <path id="ArialMT-75" d="M 2597 0 
L 2597 488 
Q 2209 -75 1544 -75 
Q 1250 -75 995 37 
Q 741 150 617 320 
Q 494 491 444 738 
Q 409 903 409 1263 
L 409 3319 
L 972 3319 
L 972 1478 
Q 972 1038 1006 884 
Q 1059 663 1231 536 
Q 1403 409 1656 409 
Q 1909 409 2131 539 
Q 2353 669 2445 892 
Q 2538 1116 2538 1541 
L 2538 3319 
L 3100 3319 
L 3100 0 
L 2597 0 
z
" transform="scale(0.015625)"/>
      <path id="ArialMT-66" d="M 556 0 
L 556 2881 
L 59 2881 
L 59 3319 
L 556 3319 
L 556 3672 
Q 556 4006 616 4169 
Q 697 4388 901 4523 
Q 1106 4659 1475 4659 
Q 1713 4659 2000 4603 
L 1916 4113 
Q 1741 4144 1584 4144 
Q 1328 4144 1222 4034 
Q 1116 3925 1116 3625 
L 1116 3319 
L 1763 3319 
L 1763 2881 
L 1116 2881 
L 1116 0 
L 556 0 
z
" transform="scale(0.015625)"/>
      <path id="ArialMT-64" d="M 2575 0 
L 2575 419 
Q 2259 -75 1647 -75 
Q 1250 -75 917 144 
Q 584 363 401 755 
Q 219 1147 219 1656 
Q 219 2153 384 2558 
Q 550 2963 881 3178 
Q 1213 3394 1622 3394 
Q 1922 3394 2156 3267 
Q 2391 3141 2538 2938 
L 2538 4581 
L 3097 4581 
L 3097 0 
L 2575 0 
z
M 797 1656 
Q 797 1019 1065 703 
Q 1334 388 1700 388 
Q 2069 388 2326 689 
Q 2584 991 2584 1609 
Q 2584 2291 2321 2609 
Q 2059 2928 1675 2928 
Q 1300 2928 1048 2622 
Q 797 2316 797 1656 
z
" transform="scale(0.015625)"/>
     </defs>
     <use xlink:href="#ArialMT-44"/>
     <use xlink:href="#ArialMT-69" x="72.216797"/>
     <use xlink:href="#ArialMT-76" x="94.433594"/>
     <use xlink:href="#ArialMT-65" x="144.433594"/>
     <use xlink:href="#ArialMT-72" x="200.048828"/>
     <use xlink:href="#ArialMT-67" x="233.349609"/>
     <use xlink:href="#ArialMT-65" x="288.964844"/>
     <use xlink:href="#ArialMT-6e" x="344.580078"/>
     <use xlink:href="#ArialMT-63" x="400.195312"/>
     <use xlink:href="#ArialMT-65" x="450.195312"/>
     <use xlink:href="#ArialMT-20" x="505.810547"/>
     <use xlink:href="#ArialMT-43" x="533.59375"/>
     <use xlink:href="#ArialMT-6f" x="605.810547"/>
     <use xlink:href="#ArialMT-6d" x="661.425781"/>
     <use xlink:href="#ArialMT-70" x="744.726562"/>
     <use xlink:href="#ArialMT-61" x="800.341797"/>
     <use xlink:href="#ArialMT-72" x="855.957031"/>
     <use xlink:href="#ArialMT-69" x="889.257812"/>
     <use xlink:href="#ArialMT-73" x="911.474609"/>
     <use xlink:href="#ArialMT-6f" x="961.474609"/>
     <use xlink:href="#ArialMT-6e" x="1017.089844"/>
     <use xlink:href="#ArialMT-3a" x="1072.705078"/>
     <use xlink:href="#ArialMT-20" x="1100.488281"/>
     <use xlink:href="#ArialMT-4f" x="1128.271484"/>
     <use xlink:href="#ArialMT-72" x="1206.054688"/>
     <use xlink:href="#ArialMT-69" x="1239.355469"/>
     <use xlink:href="#ArialMT-67" x="1261.572266"/>
     <use xlink:href="#ArialMT-69" x="1317.1875"/>
     <use xlink:href="#ArialMT-6e" x="1339.404297"/>
     <use xlink:href="#ArialMT-61" x="1395.019531"/>
     <use xlink:href="#ArialMT-6c" x="1450.634766"/>
     <use xlink:href="#ArialMT-20" x="1472.851562"/>
     <use xlink:href="#ArialMT-76" x="1500.634766"/>
     <use xlink:href="#ArialMT-73" x="1550.634766"/>
     <use xlink:href="#ArialMT-20" x="1600.634766"/>
     <use xlink:href="#ArialMT-53" x="1628.417969"/>
     <use xlink:href="#ArialMT-68" x="1695.117188"/>
     <use xlink:href="#ArialMT-75" x="1750.732422"/>
     <use xlink:href="#ArialMT-66" x="1806.347656"/>
     <use xlink:href="#ArialMT-66" x="1832.380859"/>
     <use xlink:href="#ArialMT-6c" x="1860.164062"/>
     <use xlink:href="#ArialMT-65" x="1882.380859"/>
     <use xlink:href="#ArialMT-64" x="1937.996094"/>
    </g>
   </g>
   <g id="legend_1">
    <g id="patch_5">
     <path d="M 615.46 259.555469 
L 705.061875 259.555469 
Q 707.261875 259.555469 707.261875 257.355469 
L 707.261875 148.424531 
Q 707.261875 146.224531 705.061875 146.224531 
L 615.46 146.224531 
Q 613.26 146.224531 613.26 148.424531 
L 613.26 257.355469 
Q 613.26 259.555469 615.46 259.555469 
z
" style="fill: #ffffff; opacity: 0.8; stroke: #cccccc; stroke-linejoin: miter"/>
    </g>
    <g id="line2d_9">
     <path d="M 617.66 154.789062 
L 628.66 154.789062 
L 639.66 154.789062 
" style="fill: none; stroke: #8b0a50; stroke-width: 2; stroke-linecap: round"/>
    </g>
    <g id="text_15">
     <!-- Original -->
     <g style="fill: #262626" transform="translate(648.46 158.639062) scale(0.11 -0.11)">
      <use xlink:href="#ArialMT-4f"/>
      <use xlink:href="#ArialMT-72" x="77.783203"/>
      <use xlink:href="#ArialMT-69" x="111.083984"/>
      <use xlink:href="#ArialMT-67" x="133.300781"/>
      <use xlink:href="#ArialMT-69" x="188.916016"/>
      <use xlink:href="#ArialMT-6e" x="211.132812"/>
      <use xlink:href="#ArialMT-61" x="266.748047"/>
      <use xlink:href="#ArialMT-6c" x="322.363281"/>
     </g>
    </g>
    <g id="line2d_10">
     <path d="M 617.66 170.61875 
L 628.66 170.61875 
L 639.66 170.61875 
" style="fill: none; stroke-dasharray: 7.4,3.2; stroke-dashoffset: 0; stroke: #8b0a50; stroke-width: 2"/>
    </g>
    <g id="text_16">
     <!-- Original -->
     <g style="fill: #262626" transform="translate(648.46 174.46875) scale(0.11 -0.11)">
      <use xlink:href="#ArialMT-4f"/>
      <use xlink:href="#ArialMT-72" x="77.783203"/>
      <use xlink:href="#ArialMT-69" x="111.083984"/>
      <use xlink:href="#ArialMT-67" x="133.300781"/>
      <use xlink:href="#ArialMT-69" x="188.916016"/>
      <use xlink:href="#ArialMT-6e" x="211.132812"/>
      <use xlink:href="#ArialMT-61" x="266.748047"/>
      <use xlink:href="#ArialMT-6c" x="322.363281"/>
     </g>
    </g>
    <g id="PathCollection_3">
     <g>
      <use xlink:href="#m66e6fb12e4" x="628.66" y="187.302656" style="fill: #8b0a50; stroke: #8b0a50"/>
     </g>
    </g>
    <g id="text_17">
     <!-- p &lt; 0.001 -->
     <g style="fill: #262626" transform="translate(648.46 190.190156) scale(0.11 -0.11)">
      <defs>
       <path id="ArialMT-3c" d="M 350 2003 
L 350 2528 
L 3384 3809 
L 3384 3250 
L 978 2263 
L 3384 1266 
L 3384 706 
L 350 2003 
z
" transform="scale(0.015625)"/>
      </defs>
      <use xlink:href="#ArialMT-70"/>
      <use xlink:href="#ArialMT-20" x="55.615234"/>
      <use xlink:href="#ArialMT-3c" x="83.398438"/>
      <use xlink:href="#ArialMT-20" x="141.796875"/>
      <use xlink:href="#ArialMT-30" x="169.580078"/>
      <use xlink:href="#ArialMT-2e" x="225.195312"/>
      <use xlink:href="#ArialMT-30" x="252.978516"/>
      <use xlink:href="#ArialMT-30" x="308.59375"/>
      <use xlink:href="#ArialMT-31" x="364.208984"/>
     </g>
    </g>
    <g id="line2d_11">
     <path d="M 617.66 201.9 
L 628.66 201.9 
L 639.66 201.9 
" style="fill: none; stroke-dasharray: 5.55,2.4; stroke-dashoffset: 0; stroke: #1a1a1a; stroke-width: 1.5"/>
    </g>
    <g id="text_18">
     <!-- Stim Onset -->
     <g style="fill: #262626" transform="translate(648.46 205.75) scale(0.11 -0.11)">
      <defs>
       <path id="ArialMT-74" d="M 1650 503 
L 1731 6 
Q 1494 -44 1306 -44 
Q 1000 -44 831 53 
Q 663 150 594 308 
Q 525 466 525 972 
L 525 2881 
L 113 2881 
L 113 3319 
L 525 3319 
L 525 4141 
L 1084 4478 
L 1084 3319 
L 1650 3319 
L 1650 2881 
L 1084 2881 
L 1084 941 
Q 1084 700 1114 631 
Q 1144 563 1211 522 
Q 1278 481 1403 481 
Q 1497 481 1650 503 
z
" transform="scale(0.015625)"/>
      </defs>
      <use xlink:href="#ArialMT-53"/>
      <use xlink:href="#ArialMT-74" x="66.699219"/>
      <use xlink:href="#ArialMT-69" x="94.482422"/>
      <use xlink:href="#ArialMT-6d" x="116.699219"/>
      <use xlink:href="#ArialMT-20" x="200"/>
      <use xlink:href="#ArialMT-4f" x="227.783203"/>
      <use xlink:href="#ArialMT-6e" x="305.566406"/>
      <use xlink:href="#ArialMT-73" x="361.181641"/>
      <use xlink:href="#ArialMT-65" x="411.181641"/>
      <use xlink:href="#ArialMT-74" x="466.796875"/>
     </g>
    </g>
    <g id="line2d_12">
     <path d="M 617.66 217.459844 
L 628.66 217.459844 
L 639.66 217.459844 
" style="fill: none; stroke-dasharray: 5.55,2.4; stroke-dashoffset: 0; stroke: #1a1a1a; stroke-width: 1.5"/>
    </g>
    <g id="text_19">
     <!-- Stim End -->
     <g style="fill: #262626" transform="translate(648.46 221.309844) scale(0.11 -0.11)">
      <defs>
       <path id="ArialMT-45" d="M 506 0 
L 506 4581 
L 3819 4581 
L 3819 4041 
L 1113 4041 
L 1113 2638 
L 3647 2638 
L 3647 2100 
L 1113 2100 
L 1113 541 
L 3925 541 
L 3925 0 
L 506 0 
z
" transform="scale(0.015625)"/>
      </defs>
      <use xlink:href="#ArialMT-53"/>
      <use xlink:href="#ArialMT-74" x="66.699219"/>
      <use xlink:href="#ArialMT-69" x="94.482422"/>
      <use xlink:href="#ArialMT-6d" x="116.699219"/>
      <use xlink:href="#ArialMT-20" x="200"/>
      <use xlink:href="#ArialMT-45" x="227.783203"/>
      <use xlink:href="#ArialMT-6e" x="294.482422"/>
      <use xlink:href="#ArialMT-64" x="350.097656"/>
     </g>
    </g>
    <g id="line2d_13">
     <path d="M 617.66 233.160625 
L 628.66 233.160625 
L 639.66 233.160625 
" style="fill: none; stroke: #eb6ab0; stroke-width: 2; stroke-linecap: round"/>
    </g>
    <g id="text_20">
     <!-- Original -->
     <g style="fill: #262626" transform="translate(648.46 237.010625) scale(0.11 -0.11)">
      <use xlink:href="#ArialMT-4f"/>
      <use xlink:href="#ArialMT-72" x="77.783203"/>
      <use xlink:href="#ArialMT-69" x="111.083984"/>
      <use xlink:href="#ArialMT-67" x="133.300781"/>
      <use xlink:href="#ArialMT-69" x="188.916016"/>
      <use xlink:href="#ArialMT-6e" x="211.132812"/>
      <use xlink:href="#ArialMT-61" x="266.748047"/>
      <use xlink:href="#ArialMT-6c" x="322.363281"/>
     </g>
    </g>
    <g id="line2d_14">
     <path d="M 617.66 248.990312 
L 628.66 248.990312 
L 639.66 248.990312 
" style="fill: none; stroke-dasharray: 7.4,3.2; stroke-dashoffset: 0; stroke: #eb6ab0; stroke-width: 2"/>
    </g>
    <g id="text_21">
     <!-- Original -->
     <g style="fill: #262626" transform="translate(648.46 252.840312) scale(0.11 -0.11)">
      <use xlink:href="#ArialMT-4f"/>
      <use xlink:href="#ArialMT-72" x="77.783203"/>
      <use xlink:href="#ArialMT-69" x="111.083984"/>
      <use xlink:href="#ArialMT-67" x="133.300781"/>
      <use xlink:href="#ArialMT-69" x="188.916016"/>
      <use xlink:href="#ArialMT-6e" x="211.132812"/>
      <use xlink:href="#ArialMT-61" x="266.748047"/>
      <use xlink:href="#ArialMT-6c" x="322.363281"/>
     </g>
    </g>
   </g>
  </g>
 </g>
 <defs>
  <clipPath id="pdbcb40ce3c">
   <rect x="78.3" y="27.6" width="529.46" height="350.58"/>
  </clipPath>
 </defs>
</svg>
