<?xml version="1.0" encoding="utf-8" standalone="no"?>
<!DOCTYPE svg PUBLIC "-//W3C//DTD SVG 1.1//EN"
  "http://www.w3.org/Graphics/SVG/1.1/DTD/svg11.dtd">
<svg xmlns:xlink="http://www.w3.org/1999/xlink" width="720pt" height="432pt" viewBox="0 0 720 432" xmlns="http://www.w3.org/2000/svg" version="1.1">
 <metadata>
  <rdf:RDF xmlns:dc="http://purl.org/dc/elements/1.1/" xmlns:cc="http://creativecommons.org/ns#" xmlns:rdf="http://www.w3.org/1999/02/22-rdf-syntax-ns#">
   <cc:Work>
    <dc:type rdf:resource="http://purl.org/dc/dcmitype/StillImage"/>
    <dc:date>2025-09-22T12:36:34.545368</dc:date>
    <dc:format>image/svg+xml</dc:format>
    <dc:creator>
     <cc:Agent>
      <dc:title>Matplotlib v3.9.4, https://matplotlib.org/</dc:title>
     </cc:Agent>
    </dc:creator>
   </cc:Work>
  </rdf:RDF>
 </metadata>
 <defs>
  <style type="text/css">*{stroke-linejoin: round; stroke-linecap: butt}</style>
 </defs>
 <g id="figure_1">
  <g id="patch_1">
   <path d="M 0 432 
L 720 432 
L 720 0 
L 0 0 
z
" style="fill: #ffffff"/>
  </g>
  <g id="axes_1">
   <g id="patch_2">
    <path d="M 69.71 377.54 
L 607.44 377.54 
L 607.44 26.96 
L 69.71 26.96 
L 69.71 377.54 
z
" style="fill: none"/>
   </g>
   <g id="matplotlib.axis_1">
    <g id="xtick_1">
     <g id="text_1">
      <!-- −500 -->
      <g style="fill: #262626" transform="translate(72.37124 397.776719) scale(0.15 -0.15)">
       <defs>
        <path id="ArialMT-2212" d="M 3381 1997 
L 356 1997 
L 356 2522 
L 3381 2522 
L 3381 1997 
z
" transform="scale(0.015625)"/>
        <path id="ArialMT-35" d="M 266 1200 
L 856 1250 
Q 922 819 1161 601 
Q 1400 384 1738 384 
Q 2144 384 2425 690 
Q 2706 997 2706 1503 
Q 2706 1984 2436 2262 
Q 2166 2541 1728 2541 
Q 1456 2541 1237 2417 
Q 1019 2294 894 2097 
L 366 2166 
L 809 4519 
L 3088 4519 
L 3088 3981 
L 1259 3981 
L 1013 2750 
Q 1425 3038 1878 3038 
Q 2478 3038 2890 2622 
Q 3303 2206 3303 1553 
Q 3303 931 2941 478 
Q 2500 -78 1738 -78 
Q 1113 -78 717 272 
Q 322 622 266 1200 
z
" transform="scale(0.015625)"/>
        <path id="ArialMT-30" d="M 266 2259 
Q 266 3072 433 3567 
Q 600 4063 929 4331 
Q 1259 4600 1759 4600 
Q 2128 4600 2406 4451 
Q 2684 4303 2865 4023 
Q 3047 3744 3150 3342 
Q 3253 2941 3253 2259 
Q 3253 1453 3087 958 
Q 2922 463 2592 192 
Q 2263 -78 1759 -78 
Q 1097 -78 719 397 
Q 266 969 266 2259 
z
M 844 2259 
Q 844 1131 1108 757 
Q 1372 384 1759 384 
Q 2147 384 2411 759 
Q 2675 1134 2675 2259 
Q 2675 3391 2411 3762 
Q 2147 4134 1753 4134 
Q 1366 4134 1134 3806 
Q 844 3388 844 2259 
z
" transform="scale(0.015625)"/>
       </defs>
       <use xlink:href="#ArialMT-2212"/>
       <use xlink:href="#ArialMT-35" x="58.398438"/>
       <use xlink:href="#ArialMT-30" x="114.013672"/>
       <use xlink:href="#ArialMT-30" x="169.628906"/>
      </g>
     </g>
    </g>
    <g id="xtick_2">
     <g id="text_2">
      <!-- −250 -->
      <g style="fill: #262626" transform="translate(133.476922 397.776719) scale(0.15 -0.15)">
       <defs>
        <path id="ArialMT-32" d="M 3222 541 
L 3222 0 
L 194 0 
Q 188 203 259 391 
Q 375 700 629 1000 
Q 884 1300 1366 1694 
Q 2113 2306 2375 2664 
Q 2638 3022 2638 3341 
Q 2638 3675 2398 3904 
Q 2159 4134 1775 4134 
Q 1369 4134 1125 3890 
Q 881 3647 878 3216 
L 300 3275 
Q 359 3922 746 4261 
Q 1134 4600 1788 4600 
Q 2447 4600 2831 4234 
Q 3216 3869 3216 3328 
Q 3216 3053 3103 2787 
Q 2991 2522 2730 2228 
Q 2469 1934 1863 1422 
Q 1356 997 1212 845 
Q 1069 694 975 541 
L 3222 541 
z
" transform="scale(0.015625)"/>
       </defs>
       <use xlink:href="#ArialMT-2212"/>
       <use xlink:href="#ArialMT-32" x="58.398438"/>
       <use xlink:href="#ArialMT-35" x="114.013672"/>
       <use xlink:href="#ArialMT-30" x="169.628906"/>
      </g>
     </g>
    </g>
    <g id="xtick_3">
     <g id="text_3">
      <!-- 0 -->
      <g style="fill: #262626" transform="translate(207.304479 397.776719) scale(0.15 -0.15)">
       <use xlink:href="#ArialMT-30"/>
      </g>
     </g>
    </g>
    <g id="xtick_4">
     <g id="text_4">
      <!-- 250 -->
      <g style="fill: #262626" transform="translate(260.068754 397.776719) scale(0.15 -0.15)">
       <use xlink:href="#ArialMT-32"/>
       <use xlink:href="#ArialMT-35" x="55.615234"/>
       <use xlink:href="#ArialMT-30" x="111.230469"/>
      </g>
     </g>
    </g>
    <g id="xtick_5">
     <g id="text_5">
      <!-- 500 -->
      <g style="fill: #262626" transform="translate(321.174436 397.776719) scale(0.15 -0.15)">
       <use xlink:href="#ArialMT-35"/>
       <use xlink:href="#ArialMT-30" x="55.615234"/>
       <use xlink:href="#ArialMT-30" x="111.230469"/>
      </g>
     </g>
    </g>
    <g id="xtick_6">
     <g id="text_6">
      <!-- 750 -->
      <g style="fill: #262626" transform="translate(382.280118 397.776719) scale(0.15 -0.15)">
       <defs>
        <path id="ArialMT-37" d="M 303 3981 
L 303 4522 
L 3269 4522 
L 3269 4084 
Q 2831 3619 2401 2847 
Q 1972 2075 1738 1259 
Q 1569 684 1522 0 
L 944 0 
Q 953 541 1156 1306 
Q 1359 2072 1739 2783 
Q 2119 3494 2547 3981 
L 303 3981 
z
" transform="scale(0.015625)"/>
       </defs>
       <use xlink:href="#ArialMT-37"/>
       <use xlink:href="#ArialMT-35" x="55.615234"/>
       <use xlink:href="#ArialMT-30" x="111.230469"/>
      </g>
     </g>
    </g>
    <g id="xtick_7">
     <g id="text_7">
      <!-- 1000 -->
      <g style="fill: #262626" transform="translate(439.215097 397.776719) scale(0.15 -0.15)">
       <defs>
        <path id="ArialMT-31" d="M 2384 0 
L 1822 0 
L 1822 3584 
Q 1619 3391 1289 3197 
Q 959 3003 697 2906 
L 697 3450 
Q 1169 3672 1522 3987 
Q 1875 4303 2022 4600 
L 2384 4600 
L 2384 0 
z
" transform="scale(0.015625)"/>
       </defs>
       <use xlink:href="#ArialMT-31"/>
       <use xlink:href="#ArialMT-30" x="55.615234"/>
       <use xlink:href="#ArialMT-30" x="111.230469"/>
       <use xlink:href="#ArialMT-30" x="166.845703"/>
      </g>
     </g>
    </g>
    <g id="xtick_8">
     <g id="text_8">
      <!-- 1250 -->
      <g style="fill: #262626" transform="translate(500.320778 397.776719) scale(0.15 -0.15)">
       <use xlink:href="#ArialMT-31"/>
       <use xlink:href="#ArialMT-32" x="55.615234"/>
       <use xlink:href="#ArialMT-35" x="111.230469"/>
       <use xlink:href="#ArialMT-30" x="166.845703"/>
      </g>
     </g>
    </g>
    <g id="xtick_9">
     <g id="text_9">
      <!-- 1500 -->
      <g style="fill: #262626" transform="translate(561.42646 397.776719) scale(0.15 -0.15)">
       <use xlink:href="#ArialMT-31"/>
       <use xlink:href="#ArialMT-35" x="55.615234"/>
       <use xlink:href="#ArialMT-30" x="111.230469"/>
       <use xlink:href="#ArialMT-30" x="166.845703"/>
      </g>
     </g>
    </g>
    <g id="text_10">
     <!-- Time (s) -->
     <g style="fill: #262626" transform="translate(311.362891 415.6775) scale(0.15 -0.15)">
      <defs>
       <path id="ArialMT-54" d="M 1659 0 
L 1659 4041 
L 150 4041 
L 150 4581 
L 3781 4581 
L 3781 4041 
L 2266 4041 
L 2266 0 
L 1659 0 
z
" transform="scale(0.015625)"/>
       <path id="ArialMT-69" d="M 425 3934 
L 425 4581 
L 988 4581 
L 988 3934 
L 425 3934 
z
M 425 0 
L 425 3319 
L 988 3319 
L 988 0 
L 425 0 
z
" transform="scale(0.015625)"/>
       <path id="ArialMT-6d" d="M 422 0 
L 422 3319 
L 925 3319 
L 925 2853 
Q 1081 3097 1340 3245 
Q 1600 3394 1931 3394 
Q 2300 3394 2536 3241 
Q 2772 3088 2869 2813 
Q 3263 3394 3894 3394 
Q 4388 3394 4653 3120 
Q 4919 2847 4919 2278 
L 4919 0 
L 4359 0 
L 4359 2091 
Q 4359 2428 4304 2576 
Q 4250 2725 4106 2815 
Q 3963 2906 3769 2906 
Q 3419 2906 3187 2673 
Q 2956 2441 2956 1928 
L 2956 0 
L 2394 0 
L 2394 2156 
Q 2394 2531 2256 2718 
Q 2119 2906 1806 2906 
Q 1569 2906 1367 2781 
Q 1166 2656 1075 2415 
Q 984 2175 984 1722 
L 984 0 
L 422 0 
z
" transform="scale(0.015625)"/>
       <path id="ArialMT-65" d="M 2694 1069 
L 3275 997 
Q 3138 488 2766 206 
Q 2394 -75 1816 -75 
Q 1088 -75 661 373 
Q 234 822 234 1631 
Q 234 2469 665 2931 
Q 1097 3394 1784 3394 
Q 2450 3394 2872 2941 
Q 3294 2488 3294 1666 
Q 3294 1616 3291 1516 
L 816 1516 
Q 847 969 1125 678 
Q 1403 388 1819 388 
Q 2128 388 2347 550 
Q 2566 713 2694 1069 
z
M 847 1978 
L 2700 1978 
Q 2663 2397 2488 2606 
Q 2219 2931 1791 2931 
Q 1403 2931 1139 2672 
Q 875 2413 847 1978 
z
" transform="scale(0.015625)"/>
       <path id="ArialMT-20" transform="scale(0.015625)"/>
       <path id="ArialMT-28" d="M 1497 -1347 
Q 1031 -759 709 28 
Q 388 816 388 1659 
Q 388 2403 628 3084 
Q 909 3875 1497 4659 
L 1900 4659 
Q 1522 4009 1400 3731 
Q 1209 3300 1100 2831 
Q 966 2247 966 1656 
Q 966 153 1900 -1347 
L 1497 -1347 
z
" transform="scale(0.015625)"/>
       <path id="ArialMT-73" d="M 197 991 
L 753 1078 
Q 800 744 1014 566 
Q 1228 388 1613 388 
Q 2000 388 2187 545 
Q 2375 703 2375 916 
Q 2375 1106 2209 1216 
Q 2094 1291 1634 1406 
Q 1016 1563 777 1677 
Q 538 1791 414 1992 
Q 291 2194 291 2438 
Q 291 2659 392 2848 
Q 494 3038 669 3163 
Q 800 3259 1026 3326 
Q 1253 3394 1513 3394 
Q 1903 3394 2198 3281 
Q 2494 3169 2634 2976 
Q 2775 2784 2828 2463 
L 2278 2388 
Q 2241 2644 2061 2787 
Q 1881 2931 1553 2931 
Q 1166 2931 1000 2803 
Q 834 2675 834 2503 
Q 834 2394 903 2306 
Q 972 2216 1119 2156 
Q 1203 2125 1616 2013 
Q 2213 1853 2448 1751 
Q 2684 1650 2818 1456 
Q 2953 1263 2953 975 
Q 2953 694 2789 445 
Q 2625 197 2315 61 
Q 2006 -75 1616 -75 
Q 969 -75 630 194 
Q 291 463 197 991 
z
" transform="scale(0.015625)"/>
       <path id="ArialMT-29" d="M 791 -1347 
L 388 -1347 
Q 1322 153 1322 1656 
Q 1322 2244 1188 2822 
Q 1081 3291 891 3722 
Q 769 4003 388 4659 
L 791 4659 
Q 1378 3875 1659 3084 
Q 1900 2403 1900 1659 
Q 1900 816 1576 28 
Q 1253 -759 791 -1347 
z
" transform="scale(0.015625)"/>
      </defs>
      <use xlink:href="#ArialMT-54"/>
      <use xlink:href="#ArialMT-69" x="57.333984"/>
      <use xlink:href="#ArialMT-6d" x="79.550781"/>
      <use xlink:href="#ArialMT-65" x="162.851562"/>
      <use xlink:href="#ArialMT-20" x="218.466797"/>
      <use xlink:href="#ArialMT-28" x="246.25"/>
      <use xlink:href="#ArialMT-73" x="279.550781"/>
      <use xlink:href="#ArialMT-29" x="329.550781"/>
     </g>
    </g>
   </g>
   <g id="matplotlib.axis_2">
    <g id="ytick_1">
     <g id="text_11">
      <!-- 0.00 -->
      <g style="fill: #262626" transform="translate(31.018594 319.761843) scale(0.15 -0.15)">
       <defs>
        <path id="ArialMT-2e" d="M 581 0 
L 581 641 
L 1222 641 
L 1222 0 
L 581 0 
z
" transform="scale(0.015625)"/>
       </defs>
       <use xlink:href="#ArialMT-30"/>
       <use xlink:href="#ArialMT-2e" x="55.615234"/>
       <use xlink:href="#ArialMT-30" x="83.398438"/>
       <use xlink:href="#ArialMT-30" x="139.013672"/>
      </g>
     </g>
    </g>
    <g id="ytick_2">
     <g id="text_12">
      <!-- 0.05 -->
      <g style="fill: #262626" transform="translate(31.018594 254.913874) scale(0.15 -0.15)">
       <use xlink:href="#ArialMT-30"/>
       <use xlink:href="#ArialMT-2e" x="55.615234"/>
       <use xlink:href="#ArialMT-30" x="83.398438"/>
       <use xlink:href="#ArialMT-35" x="139.013672"/>
      </g>
     </g>
    </g>
    <g id="ytick_3">
     <g id="text_13">
      <!-- 0.10 -->
      <g style="fill: #262626" transform="translate(31.018594 190.065906) scale(0.15 -0.15)">
       <use xlink:href="#ArialMT-30"/>
       <use xlink:href="#ArialMT-2e" x="55.615234"/>
       <use xlink:href="#ArialMT-31" x="83.398438"/>
       <use xlink:href="#ArialMT-30" x="139.013672"/>
      </g>
     </g>
    </g>
    <g id="ytick_4">
     <g id="text_14">
      <!-- 0.15 -->
      <g style="fill: #262626" transform="translate(31.018594 125.217938) scale(0.15 -0.15)">
       <use xlink:href="#ArialMT-30"/>
       <use xlink:href="#ArialMT-2e" x="55.615234"/>
       <use xlink:href="#ArialMT-31" x="83.398438"/>
       <use xlink:href="#ArialMT-35" x="139.013672"/>
      </g>
     </g>
    </g>
    <g id="ytick_5">
     <g id="text_15">
      <!-- 0.20 -->
      <g style="fill: #262626" transform="translate(31.018594 60.36997) scale(0.15 -0.15)">
       <use xlink:href="#ArialMT-30"/>
       <use xlink:href="#ArialMT-2e" x="55.615234"/>
       <use xlink:href="#ArialMT-32" x="83.398438"/>
       <use xlink:href="#ArialMT-30" x="139.013672"/>
      </g>
     </g>
    </g>
    <g id="text_16">
     <!-- Divergence -->
     <g style="fill: #262626" transform="translate(23.861563 240.183594) rotate(-90) scale(0.15 -0.15)">
      <defs>
       <path id="ArialMT-44" d="M 494 0 
L 494 4581 
L 2072 4581 
Q 2606 4581 2888 4516 
Q 3281 4425 3559 4188 
Q 3922 3881 4101 3404 
Q 4281 2928 4281 2316 
Q 4281 1794 4159 1391 
Q 4038 988 3847 723 
Q 3656 459 3429 307 
Q 3203 156 2883 78 
Q 2563 0 2147 0 
L 494 0 
z
M 1100 541 
L 2078 541 
Q 2531 541 2789 625 
Q 3047 709 3200 863 
Q 3416 1078 3536 1442 
Q 3656 1806 3656 2325 
Q 3656 3044 3420 3430 
Q 3184 3816 2847 3947 
Q 2603 4041 2063 4041 
L 1100 4041 
L 1100 541 
z
" transform="scale(0.015625)"/>
       <path id="ArialMT-76" d="M 1344 0 
L 81 3319 
L 675 3319 
L 1388 1331 
Q 1503 1009 1600 663 
Q 1675 925 1809 1294 
L 2547 3319 
L 3125 3319 
L 1869 0 
L 1344 0 
z
" transform="scale(0.015625)"/>
       <path id="ArialMT-72" d="M 416 0 
L 416 3319 
L 922 3319 
L 922 2816 
Q 1116 3169 1280 3281 
Q 1444 3394 1641 3394 
Q 1925 3394 2219 3213 
L 2025 2691 
Q 1819 2813 1613 2813 
Q 1428 2813 1281 2702 
Q 1134 2591 1072 2394 
Q 978 2094 978 1738 
L 978 0 
L 416 0 
z
" transform="scale(0.015625)"/>
       <path id="ArialMT-67" d="M 319 -275 
L 866 -356 
Q 900 -609 1056 -725 
Q 1266 -881 1628 -881 
Q 2019 -881 2231 -725 
Q 2444 -569 2519 -288 
Q 2563 -116 2559 434 
Q 2191 0 1641 0 
Q 956 0 581 494 
Q 206 988 206 1678 
Q 206 2153 378 2554 
Q 550 2956 876 3175 
Q 1203 3394 1644 3394 
Q 2231 3394 2613 2919 
L 2613 3319 
L 3131 3319 
L 3131 450 
Q 3131 -325 2973 -648 
Q 2816 -972 2473 -1159 
Q 2131 -1347 1631 -1347 
Q 1038 -1347 672 -1080 
Q 306 -813 319 -275 
z
M 784 1719 
Q 784 1066 1043 766 
Q 1303 466 1694 466 
Q 2081 466 2343 764 
Q 2606 1063 2606 1700 
Q 2606 2309 2336 2618 
Q 2066 2928 1684 2928 
Q 1309 2928 1046 2623 
Q 784 2319 784 1719 
z
" transform="scale(0.015625)"/>
       <path id="ArialMT-6e" d="M 422 0 
L 422 3319 
L 928 3319 
L 928 2847 
Q 1294 3394 1984 3394 
Q 2284 3394 2536 3286 
Q 2788 3178 2913 3003 
Q 3038 2828 3088 2588 
Q 3119 2431 3119 2041 
L 3119 0 
L 2556 0 
L 2556 2019 
Q 2556 2363 2490 2533 
Q 2425 2703 2258 2804 
Q 2091 2906 1866 2906 
Q 1506 2906 1245 2678 
Q 984 2450 984 1813 
L 984 0 
L 422 0 
z
" transform="scale(0.015625)"/>
       <path id="ArialMT-63" d="M 2588 1216 
L 3141 1144 
Q 3050 572 2676 248 
Q 2303 -75 1759 -75 
Q 1078 -75 664 370 
Q 250 816 250 1647 
Q 250 2184 428 2587 
Q 606 2991 970 3192 
Q 1334 3394 1763 3394 
Q 2303 3394 2647 3120 
Q 2991 2847 3088 2344 
L 2541 2259 
Q 2463 2594 2264 2762 
Q 2066 2931 1784 2931 
Q 1359 2931 1093 2626 
Q 828 2322 828 1663 
Q 828 994 1084 691 
Q 1341 388 1753 388 
Q 2084 388 2306 591 
Q 2528 794 2588 1216 
z
" transform="scale(0.015625)"/>
      </defs>
      <use xlink:href="#ArialMT-44"/>
      <use xlink:href="#ArialMT-69" x="72.216797"/>
      <use xlink:href="#ArialMT-76" x="94.433594"/>
      <use xlink:href="#ArialMT-65" x="144.433594"/>
      <use xlink:href="#ArialMT-72" x="200.048828"/>
      <use xlink:href="#ArialMT-67" x="233.349609"/>
      <use xlink:href="#ArialMT-65" x="288.964844"/>
      <use xlink:href="#ArialMT-6e" x="344.580078"/>
      <use xlink:href="#ArialMT-63" x="400.195312"/>
      <use xlink:href="#ArialMT-65" x="450.195312"/>
     </g>
    </g>
   </g>
   <g id="PolyCollection_1">
    <defs>
     <path id="m4cd4b7e4be" d="M 94.152273 -111.638535 
L 94.152273 -78.704303 
L 99.040727 -94.166455 
L 103.929182 -118.750951 
L 108.817636 -107.31268 
L 113.706091 -101.957136 
L 118.594545 -122.627899 
L 123.483 -114.720278 
L 128.371455 -112.486122 
L 133.259909 -107.397587 
L 138.148364 -127.084515 
L 143.036818 -108.056546 
L 147.925273 -99.339984 
L 152.813727 -100.14385 
L 157.702182 -108.07091 
L 162.590636 -106.492832 
L 167.479091 -107.399694 
L 172.367545 -118.369152 
L 177.256 -95.505526 
L 182.144455 -116.676579 
L 187.032909 -120.44369 
L 191.921364 -123.94299 
L 196.809818 -97.458736 
L 201.698273 -103.850831 
L 206.586727 -116.861636 
L 211.475182 -141.152218 
L 216.363636 -148.204467 
L 221.252091 -164.556138 
L 226.140545 -145.471263 
L 231.029 -184.345989 
L 235.917455 -180.746867 
L 240.805909 -190.722599 
L 245.694364 -189.32182 
L 250.582818 -206.191338 
L 255.471273 -194.598803 
L 260.359727 -232.033941 
L 265.248182 -229.258892 
L 270.136636 -227.991797 
L 275.025091 -229.442662 
L 279.913545 -256.685678 
L 284.802 -249.698053 
L 289.690455 -256.567653 
L 294.578909 -249.659149 
L 299.467364 -234.536171 
L 304.355818 -208.102377 
L 309.244273 -201.811712 
L 314.132727 -212.644631 
L 319.021182 -220.316331 
L 323.909636 -228.083665 
L 328.798091 -267.406731 
L 333.686545 -274.08946 
L 338.575 -277.449553 
L 343.463455 -251.705313 
L 348.351909 -227.711357 
L 353.240364 -215.684824 
L 358.128818 -190.448044 
L 363.017273 -159.832967 
L 367.905727 -187.306783 
L 372.794182 -194.834958 
L 377.682636 -222.935572 
L 382.571091 -213.634639 
L 387.459545 -218.216005 
L 392.348 -195.996095 
L 397.236455 -149.446742 
L 402.124909 -161.176435 
L 407.013364 -181.198845 
L 411.901818 -192.777048 
L 416.790273 -205.289808 
L 421.678727 -236.40747 
L 426.567182 -253.257365 
L 431.455636 -243.005753 
L 436.344091 -250.049294 
L 441.232545 -248.55021 
L 446.121 -255.957162 
L 451.009455 -220.046484 
L 455.897909 -183.034609 
L 460.786364 -162.519145 
L 465.674818 -139.307003 
L 470.563273 -135.873872 
L 475.451727 -111.984591 
L 480.340182 -108.81512 
L 485.228636 -104.926574 
L 490.117091 -108.414958 
L 495.005545 -108.990293 
L 499.894 -104.003148 
L 504.782455 -107.341035 
L 509.670909 -108.640887 
L 514.559364 -117.531644 
L 519.447818 -113.625993 
L 524.336273 -108.339775 
L 529.224727 -108.858853 
L 534.113182 -104.923569 
L 539.001636 -104.972568 
L 543.890091 -97.198783 
L 548.778545 -122.128909 
L 553.667 -90.04119 
L 558.555455 -99.530519 
L 563.443909 -122.95482 
L 568.332364 -102.232036 
L 573.220818 -93.027453 
L 578.109273 -100.452682 
L 582.997727 -110.872131 
L 582.997727 -133.098404 
L 582.997727 -133.098404 
L 578.109273 -123.712796 
L 573.220818 -115.077737 
L 568.332364 -126.181692 
L 563.443909 -146.583695 
L 558.555455 -125.995475 
L 553.667 -114.404226 
L 548.778545 -149.505002 
L 543.890091 -120.654441 
L 539.001636 -128.691853 
L 534.113182 -129.061848 
L 529.224727 -135.306321 
L 524.336273 -132.860241 
L 519.447818 -137.591103 
L 514.559364 -138.847513 
L 509.670909 -134.481319 
L 504.782455 -133.937051 
L 499.894 -126.190198 
L 495.005545 -131.464514 
L 490.117091 -130.87679 
L 485.228636 -127.494694 
L 480.340182 -132.666213 
L 475.451727 -136.605427 
L 470.563273 -158.640748 
L 465.674818 -157.890983 
L 460.786364 -180.465008 
L 455.897909 -204.099647 
L 451.009455 -248.199269 
L 446.121 -287.713572 
L 441.232545 -280.677635 
L 436.344091 -281.552951 
L 431.455636 -275.545733 
L 426.567182 -285.994153 
L 421.678727 -269.281354 
L 416.790273 -232.888375 
L 411.901818 -216.625891 
L 407.013364 -210.103641 
L 402.124909 -191.673069 
L 397.236455 -176.472628 
L 392.348 -221.342148 
L 387.459545 -247.775228 
L 382.571091 -241.048691 
L 377.682636 -250.17418 
L 372.794182 -221.385306 
L 367.905727 -212.518554 
L 363.017273 -186.492551 
L 358.128818 -218.633079 
L 353.240364 -244.749524 
L 348.351909 -256.764385 
L 343.463455 -282.957095 
L 338.575 -311.969311 
L 333.686545 -308.53723 
L 328.798091 -297.752233 
L 323.909636 -257.241719 
L 319.021182 -249.083522 
L 314.132727 -243.319362 
L 309.244273 -226.066354 
L 304.355818 -232.869933 
L 299.467364 -261.120691 
L 294.578909 -278.253323 
L 289.690455 -285.738408 
L 284.802 -279.665291 
L 279.913545 -286.019256 
L 275.025091 -260.043986 
L 270.136636 -257.555672 
L 265.248182 -259.338633 
L 260.359727 -260.667388 
L 255.471273 -223.329101 
L 250.582818 -236.52915 
L 245.694364 -217.92894 
L 240.805909 -220.411875 
L 235.917455 -208.760787 
L 231.029 -208.218469 
L 226.140545 -165.440033 
L 221.252091 -184.647576 
L 216.363636 -168.77324 
L 211.475182 -164.783115 
L 206.586727 -130.915209 
L 201.698273 -119.239716 
L 196.809818 -111.330284 
L 191.921364 -138.365664 
L 187.032909 -134.581174 
L 182.144455 -131.480995 
L 177.256 -109.218102 
L 172.367545 -134.675704 
L 167.479091 -120.324628 
L 162.590636 -119.606704 
L 157.702182 -122.197732 
L 152.813727 -115.584743 
L 147.925273 -114.009842 
L 143.036818 -122.262778 
L 138.148364 -143.911021 
L 133.259909 -123.293743 
L 128.371455 -125.794678 
L 123.483 -128.891454 
L 118.594545 -138.875128 
L 113.706091 -117.440501 
L 108.817636 -121.778657 
L 103.929182 -131.315412 
L 99.040727 -119.277446 
L 94.152273 -111.638535 
z
" style="stroke: #eb6ab0; stroke-opacity: 0.1"/>
    </defs>
    <g clip-path="url(#pba2c0939f9)">
     <use xlink:href="#m4cd4b7e4be" x="0" y="432" style="fill: #eb6ab0; fill-opacity: 0.1; stroke: #eb6ab0; stroke-opacity: 0.1"/>
    </g>
   </g>
   <g id="PolyCollection_2">
    <defs>
     <path id="mefd42f07cc" d="M 94.152273 -122.902694 
L 94.152273 -118.34281 
L 99.040727 -116.814681 
L 103.929182 -117.642553 
L 108.817636 -117.963812 
L 113.706091 -116.030351 
L 118.594545 -116.526572 
L 123.483 -117.488875 
L 128.371455 -116.840084 
L 133.259909 -115.511219 
L 138.148364 -115.471136 
L 143.036818 -117.963316 
L 147.925273 -118.02344 
L 152.813727 -116.549054 
L 157.702182 -116.250911 
L 162.590636 -117.59832 
L 167.479091 -117.753366 
L 172.367545 -117.022528 
L 177.256 -116.116855 
L 182.144455 -118.604836 
L 187.032909 -116.652121 
L 191.921364 -116.710331 
L 196.809818 -116.366727 
L 201.698273 -117.518151 
L 206.586727 -118.545143 
L 211.475182 -130.250436 
L 216.363636 -132.89686 
L 221.252091 -134.824834 
L 226.140545 -133.580579 
L 231.029 -133.276116 
L 235.917455 -134.712135 
L 240.805909 -127.366743 
L 245.694364 -122.769384 
L 250.582818 -123.863212 
L 255.471273 -128.747568 
L 260.359727 -130.470471 
L 265.248182 -128.68105 
L 270.136636 -132.184658 
L 275.025091 -134.777425 
L 279.913545 -132.713653 
L 284.802 -133.53056 
L 289.690455 -132.720662 
L 294.578909 -133.907455 
L 299.467364 -132.027825 
L 304.355818 -131.49347 
L 309.244273 -130.614795 
L 314.132727 -132.297999 
L 319.021182 -128.898271 
L 323.909636 -130.313681 
L 328.798091 -130.929207 
L 333.686545 -133.799467 
L 338.575 -133.002793 
L 343.463455 -129.533466 
L 348.351909 -124.215483 
L 353.240364 -123.686873 
L 358.128818 -129.393275 
L 363.017273 -131.792972 
L 367.905727 -131.779253 
L 372.794182 -135.923281 
L 377.682636 -134.530892 
L 382.571091 -135.047622 
L 387.459545 -134.443808 
L 392.348 -134.725654 
L 397.236455 -134.152471 
L 402.124909 -135.975476 
L 407.013364 -133.4138 
L 411.901818 -132.361631 
L 416.790273 -133.777252 
L 421.678727 -132.78858 
L 426.567182 -127.614991 
L 431.455636 -127.747202 
L 436.344091 -131.128324 
L 441.232545 -130.552767 
L 446.121 -128.164828 
L 451.009455 -126.57526 
L 455.897909 -117.44704 
L 460.786364 -116.058579 
L 465.674818 -112.655224 
L 470.563273 -117.380163 
L 475.451727 -111.832431 
L 480.340182 -113.071336 
L 485.228636 -114.153833 
L 490.117091 -117.427276 
L 495.005545 -116.26739 
L 499.894 -115.054987 
L 504.782455 -115.746557 
L 509.670909 -112.036365 
L 514.559364 -116.109686 
L 519.447818 -115.91858 
L 524.336273 -114.160384 
L 529.224727 -117.322927 
L 534.113182 -112.636253 
L 539.001636 -114.770747 
L 543.890091 -114.34601 
L 548.778545 -113.238466 
L 553.667 -116.526788 
L 558.555455 -117.128812 
L 563.443909 -121.13447 
L 568.332364 -115.106304 
L 573.220818 -114.592739 
L 578.109273 -117.759631 
L 582.997727 -116.607283 
L 582.997727 -119.486536 
L 582.997727 -119.486536 
L 578.109273 -120.91215 
L 573.220818 -117.584339 
L 568.332364 -118.115771 
L 563.443909 -124.341345 
L 558.555455 -120.289538 
L 553.667 -119.700094 
L 548.778545 -116.508919 
L 543.890091 -117.813327 
L 539.001636 -118.200932 
L 534.113182 -115.721213 
L 529.224727 -120.364086 
L 524.336273 -117.276781 
L 519.447818 -119.35174 
L 514.559364 -119.427518 
L 509.670909 -115.430301 
L 504.782455 -118.988429 
L 499.894 -118.481726 
L 495.005545 -119.270383 
L 490.117091 -121.072084 
L 485.228636 -116.845197 
L 480.340182 -116.458467 
L 475.451727 -115.205213 
L 470.563273 -120.442717 
L 465.674818 -115.565972 
L 460.786364 -118.100698 
L 455.897909 -119.396464 
L 451.009455 -130.14668 
L 446.121 -131.362204 
L 441.232545 -133.929873 
L 436.344091 -135.503247 
L 431.455636 -131.437424 
L 426.567182 -131.134806 
L 421.678727 -136.405713 
L 416.790273 -137.522369 
L 411.901818 -136.204985 
L 407.013364 -136.749584 
L 402.124909 -139.808134 
L 397.236455 -137.773163 
L 392.348 -138.693712 
L 387.459545 -138.140375 
L 382.571091 -138.344 
L 377.682636 -138.286061 
L 372.794182 -139.385875 
L 367.905727 -135.329214 
L 363.017273 -135.447295 
L 358.128818 -132.86841 
L 353.240364 -127.049169 
L 348.351909 -127.730928 
L 343.463455 -133.250869 
L 338.575 -136.720843 
L 333.686545 -137.590272 
L 328.798091 -134.446238 
L 323.909636 -133.7136 
L 319.021182 -132.074203 
L 314.132727 -135.683878 
L 309.244273 -134.313694 
L 304.355818 -135.079631 
L 299.467364 -135.403068 
L 294.578909 -137.422194 
L 289.690455 -136.390622 
L 284.802 -137.400384 
L 279.913545 -136.498869 
L 275.025091 -138.068324 
L 270.136636 -135.371354 
L 265.248182 -131.974755 
L 260.359727 -133.686083 
L 255.471273 -132.278221 
L 250.582818 -127.577088 
L 245.694364 -126.457598 
L 240.805909 -131.359089 
L 235.917455 -138.604311 
L 231.029 -136.672134 
L 226.140545 -136.887641 
L 221.252091 -138.460923 
L 216.363636 -136.320309 
L 211.475182 -133.934646 
L 206.586727 -120.759465 
L 201.698273 -119.422891 
L 196.809818 -118.330827 
L 191.921364 -118.94807 
L 187.032909 -118.584334 
L 182.144455 -120.526161 
L 177.256 -118.004082 
L 172.367545 -118.728502 
L 167.479091 -119.862056 
L 162.590636 -119.454 
L 157.702182 -118.345537 
L 152.813727 -118.226386 
L 147.925273 -120.118857 
L 143.036818 -119.887382 
L 138.148364 -117.551628 
L 133.259909 -117.419482 
L 128.371455 -118.819146 
L 123.483 -119.28734 
L 118.594545 -118.960648 
L 113.706091 -118.584566 
L 108.817636 -119.731932 
L 103.929182 -119.38839 
L 99.040727 -119.705577 
L 94.152273 -122.902694 
z
" style="stroke: #eb6ab0; stroke-opacity: 0.1"/>
    </defs>
    <g clip-path="url(#pba2c0939f9)">
     <use xlink:href="#mefd42f07cc" x="0" y="432" style="fill: #eb6ab0; fill-opacity: 0.1; stroke: #eb6ab0; stroke-opacity: 0.1"/>
    </g>
   </g>
   <g id="PathCollection_1">
    <defs>
     <path id="m301439b9e3" d="M 0 -3 
L -0.673542 -0.927051 
L -2.85317 -0.927051 
L -1.089814 0.354102 
L -1.763356 2.427051 
L -0 1.145898 
L 1.763356 2.427051 
L 1.089814 0.354102 
L 2.85317 -0.927051 
L 0.673542 -0.927051 
z
" style="stroke: #eb6ab0"/>
    </defs>
    <g clip-path="url(#pba2c0939f9)">
     <use xlink:href="#m301439b9e3" x="221.252091" y="327.363077" style="fill: #eb6ab0; stroke: #eb6ab0"/>
     <use xlink:href="#m301439b9e3" x="231.029" y="327.363077" style="fill: #eb6ab0; stroke: #eb6ab0"/>
     <use xlink:href="#m301439b9e3" x="235.917455" y="327.363077" style="fill: #eb6ab0; stroke: #eb6ab0"/>
     <use xlink:href="#m301439b9e3" x="240.805909" y="327.363077" style="fill: #eb6ab0; stroke: #eb6ab0"/>
     <use xlink:href="#m301439b9e3" x="245.694364" y="327.363077" style="fill: #eb6ab0; stroke: #eb6ab0"/>
     <use xlink:href="#m301439b9e3" x="250.582818" y="327.363077" style="fill: #eb6ab0; stroke: #eb6ab0"/>
     <use xlink:href="#m301439b9e3" x="255.471273" y="327.363077" style="fill: #eb6ab0; stroke: #eb6ab0"/>
     <use xlink:href="#m301439b9e3" x="260.359727" y="327.363077" style="fill: #eb6ab0; stroke: #eb6ab0"/>
     <use xlink:href="#m301439b9e3" x="265.248182" y="327.363077" style="fill: #eb6ab0; stroke: #eb6ab0"/>
     <use xlink:href="#m301439b9e3" x="270.136636" y="327.363077" style="fill: #eb6ab0; stroke: #eb6ab0"/>
     <use xlink:href="#m301439b9e3" x="275.025091" y="327.363077" style="fill: #eb6ab0; stroke: #eb6ab0"/>
     <use xlink:href="#m301439b9e3" x="279.913545" y="327.363077" style="fill: #eb6ab0; stroke: #eb6ab0"/>
     <use xlink:href="#m301439b9e3" x="284.802" y="327.363077" style="fill: #eb6ab0; stroke: #eb6ab0"/>
     <use xlink:href="#m301439b9e3" x="289.690455" y="327.363077" style="fill: #eb6ab0; stroke: #eb6ab0"/>
     <use xlink:href="#m301439b9e3" x="294.578909" y="327.363077" style="fill: #eb6ab0; stroke: #eb6ab0"/>
     <use xlink:href="#m301439b9e3" x="299.467364" y="327.363077" style="fill: #eb6ab0; stroke: #eb6ab0"/>
     <use xlink:href="#m301439b9e3" x="304.355818" y="327.363077" style="fill: #eb6ab0; stroke: #eb6ab0"/>
     <use xlink:href="#m301439b9e3" x="309.244273" y="327.363077" style="fill: #eb6ab0; stroke: #eb6ab0"/>
     <use xlink:href="#m301439b9e3" x="314.132727" y="327.363077" style="fill: #eb6ab0; stroke: #eb6ab0"/>
     <use xlink:href="#m301439b9e3" x="319.021182" y="327.363077" style="fill: #eb6ab0; stroke: #eb6ab0"/>
     <use xlink:href="#m301439b9e3" x="323.909636" y="327.363077" style="fill: #eb6ab0; stroke: #eb6ab0"/>
     <use xlink:href="#m301439b9e3" x="328.798091" y="327.363077" style="fill: #eb6ab0; stroke: #eb6ab0"/>
     <use xlink:href="#m301439b9e3" x="333.686545" y="327.363077" style="fill: #eb6ab0; stroke: #eb6ab0"/>
     <use xlink:href="#m301439b9e3" x="338.575" y="327.363077" style="fill: #eb6ab0; stroke: #eb6ab0"/>
     <use xlink:href="#m301439b9e3" x="343.463455" y="327.363077" style="fill: #eb6ab0; stroke: #eb6ab0"/>
     <use xlink:href="#m301439b9e3" x="348.351909" y="327.363077" style="fill: #eb6ab0; stroke: #eb6ab0"/>
     <use xlink:href="#m301439b9e3" x="353.240364" y="327.363077" style="fill: #eb6ab0; stroke: #eb6ab0"/>
     <use xlink:href="#m301439b9e3" x="358.128818" y="327.363077" style="fill: #eb6ab0; stroke: #eb6ab0"/>
     <use xlink:href="#m301439b9e3" x="367.905727" y="327.363077" style="fill: #eb6ab0; stroke: #eb6ab0"/>
     <use xlink:href="#m301439b9e3" x="372.794182" y="327.363077" style="fill: #eb6ab0; stroke: #eb6ab0"/>
     <use xlink:href="#m301439b9e3" x="377.682636" y="327.363077" style="fill: #eb6ab0; stroke: #eb6ab0"/>
     <use xlink:href="#m301439b9e3" x="382.571091" y="327.363077" style="fill: #eb6ab0; stroke: #eb6ab0"/>
     <use xlink:href="#m301439b9e3" x="387.459545" y="327.363077" style="fill: #eb6ab0; stroke: #eb6ab0"/>
     <use xlink:href="#m301439b9e3" x="392.348" y="327.363077" style="fill: #eb6ab0; stroke: #eb6ab0"/>
     <use xlink:href="#m301439b9e3" x="407.013364" y="327.363077" style="fill: #eb6ab0; stroke: #eb6ab0"/>
     <use xlink:href="#m301439b9e3" x="411.901818" y="327.363077" style="fill: #eb6ab0; stroke: #eb6ab0"/>
     <use xlink:href="#m301439b9e3" x="416.790273" y="327.363077" style="fill: #eb6ab0; stroke: #eb6ab0"/>
     <use xlink:href="#m301439b9e3" x="421.678727" y="327.363077" style="fill: #eb6ab0; stroke: #eb6ab0"/>
     <use xlink:href="#m301439b9e3" x="426.567182" y="327.363077" style="fill: #eb6ab0; stroke: #eb6ab0"/>
     <use xlink:href="#m301439b9e3" x="431.455636" y="327.363077" style="fill: #eb6ab0; stroke: #eb6ab0"/>
     <use xlink:href="#m301439b9e3" x="436.344091" y="327.363077" style="fill: #eb6ab0; stroke: #eb6ab0"/>
     <use xlink:href="#m301439b9e3" x="441.232545" y="327.363077" style="fill: #eb6ab0; stroke: #eb6ab0"/>
     <use xlink:href="#m301439b9e3" x="446.121" y="327.363077" style="fill: #eb6ab0; stroke: #eb6ab0"/>
     <use xlink:href="#m301439b9e3" x="451.009455" y="327.363077" style="fill: #eb6ab0; stroke: #eb6ab0"/>
     <use xlink:href="#m301439b9e3" x="455.897909" y="327.363077" style="fill: #eb6ab0; stroke: #eb6ab0"/>
     <use xlink:href="#m301439b9e3" x="460.786364" y="327.363077" style="fill: #eb6ab0; stroke: #eb6ab0"/>
     <use xlink:href="#m301439b9e3" x="465.674818" y="327.363077" style="fill: #eb6ab0; stroke: #eb6ab0"/>
    </g>
   </g>
   <g id="PolyCollection_3">
    <defs>
     <path id="m6b91a49cc5" d="M 94.152273 -103.316493 
L 94.152273 -72.851028 
L 99.040727 -70.395455 
L 103.929182 -85.94765 
L 108.817636 -87.971486 
L 113.706091 -86.883121 
L 118.594545 -109.21879 
L 123.483 -113.948943 
L 128.371455 -102.498684 
L 133.259909 -103.679159 
L 138.148364 -134.77928 
L 143.036818 -135.45197 
L 147.925273 -118.929316 
L 152.813727 -103.203933 
L 157.702182 -98.9658 
L 162.590636 -107.200254 
L 167.479091 -97.156088 
L 172.367545 -87.898229 
L 177.256 -77.475788 
L 182.144455 -90.901403 
L 187.032909 -117.824428 
L 191.921364 -126.611265 
L 196.809818 -132.855383 
L 201.698273 -137.656005 
L 206.586727 -144.199254 
L 211.475182 -159.989337 
L 216.363636 -171.786415 
L 221.252091 -174.170406 
L 226.140545 -182.336312 
L 231.029 -182.221382 
L 235.917455 -177.268345 
L 240.805909 -178.545501 
L 245.694364 -169.200981 
L 250.582818 -165.284813 
L 255.471273 -156.085671 
L 260.359727 -158.380852 
L 265.248182 -162.729686 
L 270.136636 -164.446306 
L 275.025091 -177.333795 
L 279.913545 -174.726571 
L 284.802 -183.945201 
L 289.690455 -180.553482 
L 294.578909 -192.638339 
L 299.467364 -212.309293 
L 304.355818 -222.67009 
L 309.244273 -231.227365 
L 314.132727 -237.11148 
L 319.021182 -240.805003 
L 323.909636 -250.978472 
L 328.798091 -259.461755 
L 333.686545 -269.183905 
L 338.575 -278.572245 
L 343.463455 -290.688071 
L 348.351909 -290.936903 
L 353.240364 -294.220302 
L 358.128818 -300.619933 
L 363.017273 -310.456599 
L 367.905727 -304.885259 
L 372.794182 -300.640342 
L 377.682636 -308.594049 
L 382.571091 -310.954337 
L 387.459545 -311.270528 
L 392.348 -316.864667 
L 397.236455 -320.008684 
L 402.124909 -318.362192 
L 407.013364 -319.575522 
L 411.901818 -312.801969 
L 416.790273 -311.601469 
L 421.678727 -310.214385 
L 426.567182 -317.64232 
L 431.455636 -323.240821 
L 436.344091 -323.008861 
L 441.232545 -320.154661 
L 446.121 -323.805318 
L 451.009455 -312.759663 
L 455.897909 -316.377038 
L 460.786364 -312.067369 
L 465.674818 -322.654433 
L 470.563273 -313.385069 
L 475.451727 -311.62078 
L 480.340182 -290.965809 
L 485.228636 -286.96289 
L 490.117091 -278.632625 
L 495.005545 -277.767047 
L 499.894 -272.46233 
L 504.782455 -262.423285 
L 509.670909 -265.279652 
L 514.559364 -266.366258 
L 519.447818 -269.52329 
L 524.336273 -255.769247 
L 529.224727 -264.11812 
L 534.113182 -255.695088 
L 539.001636 -255.436093 
L 543.890091 -253.354803 
L 548.778545 -251.982229 
L 553.667 -245.119488 
L 558.555455 -246.191774 
L 563.443909 -250.437907 
L 568.332364 -245.665391 
L 573.220818 -243.854429 
L 578.109273 -233.641577 
L 582.997727 -242.281143 
L 582.997727 -294.260132 
L 582.997727 -294.260132 
L 578.109273 -285.619626 
L 573.220818 -294.694456 
L 568.332364 -296.176288 
L 563.443909 -301.858583 
L 558.555455 -301.320649 
L 553.667 -298.953796 
L 548.778545 -308.916673 
L 543.890091 -308.536668 
L 539.001636 -309.795662 
L 534.113182 -309.937164 
L 529.224727 -319.86577 
L 524.336273 -311.597809 
L 519.447818 -326.738515 
L 514.559364 -324.564443 
L 509.670909 -323.679015 
L 504.782455 -319.79129 
L 499.894 -331.342822 
L 495.005545 -335.981396 
L 490.117091 -337.779782 
L 485.228636 -349.844821 
L 480.340182 -353.940832 
L 475.451727 -373.121505 
L 470.563273 -376.94124 
L 465.674818 -387.698593 
L 460.786364 -380.652544 
L 455.897909 -385.913977 
L 451.009455 -379.81063 
L 446.121 -389.104545 
L 441.232545 -383.193795 
L 436.344091 -384.114239 
L 431.455636 -381.617529 
L 426.567182 -375.027085 
L 421.678727 -367.817688 
L 416.790273 -368.757118 
L 411.901818 -369.207381 
L 407.013364 -377.822447 
L 402.124909 -377.309266 
L 397.236455 -378.939887 
L 392.348 -375.996845 
L 387.459545 -369.702691 
L 382.571091 -367.564873 
L 377.682636 -365.590957 
L 372.794182 -355.803621 
L 367.905727 -360.208761 
L 363.017273 -366.515708 
L 358.128818 -355.515444 
L 353.240364 -348.464912 
L 348.351909 -343.584182 
L 343.463455 -342.436766 
L 338.575 -328.487122 
L 333.686545 -318.894784 
L 328.798091 -306.218668 
L 323.909636 -295.060335 
L 319.021182 -284.04898 
L 314.132727 -279.779309 
L 309.244273 -272.165879 
L 304.355818 -261.799809 
L 299.467364 -250.070538 
L 294.578909 -228.732241 
L 289.690455 -214.056915 
L 284.802 -217.387273 
L 279.913545 -206.92102 
L 275.025091 -208.150525 
L 270.136636 -194.647994 
L 265.248182 -191.856552 
L 260.359727 -187.107868 
L 255.471273 -183.776951 
L 250.582818 -193.32206 
L 245.694364 -198.709998 
L 240.805909 -208.203235 
L 235.917455 -206.615916 
L 231.029 -209.987898 
L 226.140545 -210.277626 
L 221.252091 -204.269912 
L 216.363636 -208.455302 
L 211.475182 -200.278587 
L 206.586727 -182.342444 
L 201.698273 -176.682037 
L 196.809818 -171.676571 
L 191.921364 -165.933845 
L 187.032909 -157.398482 
L 182.144455 -132.618295 
L 177.256 -121.377289 
L 172.367545 -132.813894 
L 167.479091 -142.219665 
L 162.590636 -148.991808 
L 157.702182 -145.502562 
L 152.813727 -149.523156 
L 147.925273 -163.35673 
L 143.036818 -184.905867 
L 138.148364 -187.431825 
L 133.259909 -159.97712 
L 128.371455 -157.948578 
L 123.483 -170.918284 
L 118.594545 -156.71411 
L 113.706091 -133.404071 
L 108.817636 -137.912821 
L 103.929182 -127.271611 
L 99.040727 -108.994186 
L 94.152273 -103.316493 
z
" style="stroke: #8b0a50; stroke-opacity: 0.1"/>
    </defs>
    <g clip-path="url(#pba2c0939f9)">
     <use xlink:href="#m6b91a49cc5" x="0" y="432" style="fill: #8b0a50; fill-opacity: 0.1; stroke: #8b0a50; stroke-opacity: 0.1"/>
    </g>
   </g>
   <g id="PolyCollection_4">
    <defs>
     <path id="mdd42c259b8" d="M 94.152273 -115.289961 
L 94.152273 -111.405972 
L 99.040727 -111.348767 
L 103.929182 -111.735403 
L 108.817636 -116.606952 
L 113.706091 -112.899026 
L 118.594545 -117.262484 
L 123.483 -117.59928 
L 128.371455 -121.219211 
L 133.259909 -120.864843 
L 138.148364 -122.878946 
L 143.036818 -121.377925 
L 147.925273 -124.067346 
L 152.813727 -125.150013 
L 157.702182 -124.253581 
L 162.590636 -125.820133 
L 167.479091 -127.782246 
L 172.367545 -130.028343 
L 177.256 -132.529198 
L 182.144455 -135.201907 
L 187.032909 -139.364865 
L 191.921364 -143.87354 
L 196.809818 -142.974585 
L 201.698273 -147.469601 
L 206.586727 -150.843223 
L 211.475182 -157.786595 
L 216.363636 -158.974144 
L 221.252091 -162.689518 
L 226.140545 -163.0709 
L 231.029 -161.899369 
L 235.917455 -163.72285 
L 240.805909 -161.606282 
L 245.694364 -160.849962 
L 250.582818 -157.536217 
L 255.471273 -155.52679 
L 260.359727 -153.997615 
L 265.248182 -152.686934 
L 270.136636 -152.667317 
L 275.025091 -150.241841 
L 279.913545 -150.966559 
L 284.802 -151.610349 
L 289.690455 -151.418267 
L 294.578909 -153.487608 
L 299.467364 -153.233237 
L 304.355818 -152.092903 
L 309.244273 -150.968564 
L 314.132727 -151.549322 
L 319.021182 -150.579998 
L 323.909636 -150.932662 
L 328.798091 -150.612761 
L 333.686545 -150.249138 
L 338.575 -151.937458 
L 343.463455 -152.643597 
L 348.351909 -152.169121 
L 353.240364 -153.090611 
L 358.128818 -152.401113 
L 363.017273 -152.583554 
L 367.905727 -152.238808 
L 372.794182 -151.343666 
L 377.682636 -150.979081 
L 382.571091 -150.8293 
L 387.459545 -151.139572 
L 392.348 -153.377816 
L 397.236455 -153.161163 
L 402.124909 -152.735489 
L 407.013364 -153.160824 
L 411.901818 -153.178303 
L 416.790273 -153.135342 
L 421.678727 -151.473518 
L 426.567182 -151.058775 
L 431.455636 -149.79518 
L 436.344091 -149.382124 
L 441.232545 -148.697083 
L 446.121 -147.515591 
L 451.009455 -145.610735 
L 455.897909 -144.06598 
L 460.786364 -143.036062 
L 465.674818 -142.724397 
L 470.563273 -140.949548 
L 475.451727 -140.941775 
L 480.340182 -141.553071 
L 485.228636 -140.333507 
L 490.117091 -139.937707 
L 495.005545 -139.480225 
L 499.894 -140.341066 
L 504.782455 -139.428083 
L 509.670909 -138.91951 
L 514.559364 -138.011879 
L 519.447818 -137.448674 
L 524.336273 -138.286937 
L 529.224727 -136.718183 
L 534.113182 -135.337554 
L 539.001636 -135.136875 
L 543.890091 -134.553657 
L 548.778545 -135.308848 
L 553.667 -135.971986 
L 558.555455 -136.47848 
L 563.443909 -137.581135 
L 568.332364 -136.103565 
L 573.220818 -134.904304 
L 578.109273 -131.980729 
L 582.997727 -132.589299 
L 582.997727 -139.019361 
L 582.997727 -139.019361 
L 578.109273 -138.662844 
L 573.220818 -141.621057 
L 568.332364 -142.900139 
L 563.443909 -144.583644 
L 558.555455 -143.631413 
L 553.667 -143.112602 
L 548.778545 -142.468066 
L 543.890091 -141.584515 
L 539.001636 -142.15683 
L 534.113182 -142.439806 
L 529.224727 -143.542722 
L 524.336273 -145.379265 
L 519.447818 -144.435402 
L 514.559364 -144.86764 
L 509.670909 -145.717803 
L 504.782455 -146.146161 
L 499.894 -146.931016 
L 495.005545 -145.979664 
L 490.117091 -146.537445 
L 485.228636 -146.92025 
L 480.340182 -147.988029 
L 475.451727 -147.434804 
L 470.563273 -147.475226 
L 465.674818 -149.348722 
L 460.786364 -149.62932 
L 455.897909 -150.719458 
L 451.009455 -152.385612 
L 446.121 -154.441145 
L 441.232545 -155.713883 
L 436.344091 -156.346292 
L 431.455636 -156.880482 
L 426.567182 -158.161875 
L 421.678727 -158.641019 
L 416.790273 -160.263348 
L 411.901818 -160.190185 
L 407.013364 -160.295128 
L 402.124909 -159.77189 
L 397.236455 -160.215439 
L 392.348 -160.312914 
L 387.459545 -157.88827 
L 382.571091 -157.529862 
L 377.682636 -157.659597 
L 372.794182 -158.040897 
L 367.905727 -158.787134 
L 363.017273 -159.120558 
L 358.128818 -158.815449 
L 353.240364 -159.426833 
L 348.351909 -158.472505 
L 343.463455 -158.793419 
L 338.575 -158.035022 
L 333.686545 -156.018919 
L 328.798091 -156.591312 
L 323.909636 -156.67898 
L 319.021182 -156.243854 
L 314.132727 -157.081352 
L 309.244273 -156.555746 
L 304.355818 -157.37742 
L 299.467364 -158.792622 
L 294.578909 -158.752253 
L 289.690455 -156.523786 
L 284.802 -156.466794 
L 279.913545 -155.751693 
L 275.025091 -154.815233 
L 270.136636 -157.003444 
L 265.248182 -157.08654 
L 260.359727 -158.419159 
L 255.471273 -159.935692 
L 250.582818 -162.340519 
L 245.694364 -165.694829 
L 240.805909 -166.895269 
L 235.917455 -170.024735 
L 231.029 -168.134195 
L 226.140545 -169.876163 
L 221.252091 -169.638206 
L 216.363636 -166.036294 
L 211.475182 -165.25665 
L 206.586727 -158.634192 
L 201.698273 -155.433308 
L 196.809818 -150.470771 
L 191.921364 -151.234242 
L 187.032909 -146.331926 
L 182.144455 -141.573032 
L 177.256 -138.776752 
L 172.367545 -135.753316 
L 167.479091 -132.947013 
L 162.590636 -131.351186 
L 157.702182 -130.570754 
L 152.813727 -131.756069 
L 147.925273 -130.801051 
L 143.036818 -128.219642 
L 138.148364 -129.915098 
L 133.259909 -127.919874 
L 128.371455 -127.676964 
L 123.483 -124.485065 
L 118.594545 -125.048414 
L 113.706091 -120.677917 
L 108.817636 -123.285406 
L 103.929182 -117.545338 
L 99.040727 -116.531526 
L 94.152273 -115.289961 
z
" style="stroke: #8b0a50; stroke-opacity: 0.1"/>
    </defs>
    <g clip-path="url(#pba2c0939f9)">
     <use xlink:href="#mdd42c259b8" x="0" y="432" style="fill: #8b0a50; fill-opacity: 0.1; stroke: #8b0a50; stroke-opacity: 0.1"/>
    </g>
   </g>
   <g id="PathCollection_2">
    <defs>
     <path id="m9bf3dbe885" d="M 0 -3 
L -0.673542 -0.927051 
L -2.85317 -0.927051 
L -1.089814 0.354102 
L -1.763356 2.427051 
L -0 1.145898 
L 1.763356 2.427051 
L 1.089814 0.354102 
L 2.85317 -0.927051 
L 0.673542 -0.927051 
z
" style="stroke: #8b0a50"/>
    </defs>
    <g clip-path="url(#pba2c0939f9)">
     <use xlink:href="#m9bf3dbe885" x="299.467364" y="340.332671" style="fill: #8b0a50; stroke: #8b0a50"/>
     <use xlink:href="#m9bf3dbe885" x="304.355818" y="340.332671" style="fill: #8b0a50; stroke: #8b0a50"/>
     <use xlink:href="#m9bf3dbe885" x="309.244273" y="340.332671" style="fill: #8b0a50; stroke: #8b0a50"/>
     <use xlink:href="#m9bf3dbe885" x="314.132727" y="340.332671" style="fill: #8b0a50; stroke: #8b0a50"/>
     <use xlink:href="#m9bf3dbe885" x="319.021182" y="340.332671" style="fill: #8b0a50; stroke: #8b0a50"/>
     <use xlink:href="#m9bf3dbe885" x="323.909636" y="340.332671" style="fill: #8b0a50; stroke: #8b0a50"/>
     <use xlink:href="#m9bf3dbe885" x="328.798091" y="340.332671" style="fill: #8b0a50; stroke: #8b0a50"/>
     <use xlink:href="#m9bf3dbe885" x="333.686545" y="340.332671" style="fill: #8b0a50; stroke: #8b0a50"/>
     <use xlink:href="#m9bf3dbe885" x="338.575" y="340.332671" style="fill: #8b0a50; stroke: #8b0a50"/>
     <use xlink:href="#m9bf3dbe885" x="343.463455" y="340.332671" style="fill: #8b0a50; stroke: #8b0a50"/>
     <use xlink:href="#m9bf3dbe885" x="348.351909" y="340.332671" style="fill: #8b0a50; stroke: #8b0a50"/>
     <use xlink:href="#m9bf3dbe885" x="353.240364" y="340.332671" style="fill: #8b0a50; stroke: #8b0a50"/>
     <use xlink:href="#m9bf3dbe885" x="358.128818" y="340.332671" style="fill: #8b0a50; stroke: #8b0a50"/>
     <use xlink:href="#m9bf3dbe885" x="363.017273" y="340.332671" style="fill: #8b0a50; stroke: #8b0a50"/>
     <use xlink:href="#m9bf3dbe885" x="367.905727" y="340.332671" style="fill: #8b0a50; stroke: #8b0a50"/>
     <use xlink:href="#m9bf3dbe885" x="372.794182" y="340.332671" style="fill: #8b0a50; stroke: #8b0a50"/>
     <use xlink:href="#m9bf3dbe885" x="377.682636" y="340.332671" style="fill: #8b0a50; stroke: #8b0a50"/>
     <use xlink:href="#m9bf3dbe885" x="382.571091" y="340.332671" style="fill: #8b0a50; stroke: #8b0a50"/>
     <use xlink:href="#m9bf3dbe885" x="387.459545" y="340.332671" style="fill: #8b0a50; stroke: #8b0a50"/>
     <use xlink:href="#m9bf3dbe885" x="392.348" y="340.332671" style="fill: #8b0a50; stroke: #8b0a50"/>
     <use xlink:href="#m9bf3dbe885" x="397.236455" y="340.332671" style="fill: #8b0a50; stroke: #8b0a50"/>
     <use xlink:href="#m9bf3dbe885" x="402.124909" y="340.332671" style="fill: #8b0a50; stroke: #8b0a50"/>
     <use xlink:href="#m9bf3dbe885" x="407.013364" y="340.332671" style="fill: #8b0a50; stroke: #8b0a50"/>
     <use xlink:href="#m9bf3dbe885" x="411.901818" y="340.332671" style="fill: #8b0a50; stroke: #8b0a50"/>
     <use xlink:href="#m9bf3dbe885" x="416.790273" y="340.332671" style="fill: #8b0a50; stroke: #8b0a50"/>
     <use xlink:href="#m9bf3dbe885" x="421.678727" y="340.332671" style="fill: #8b0a50; stroke: #8b0a50"/>
     <use xlink:href="#m9bf3dbe885" x="426.567182" y="340.332671" style="fill: #8b0a50; stroke: #8b0a50"/>
     <use xlink:href="#m9bf3dbe885" x="431.455636" y="340.332671" style="fill: #8b0a50; stroke: #8b0a50"/>
     <use xlink:href="#m9bf3dbe885" x="436.344091" y="340.332671" style="fill: #8b0a50; stroke: #8b0a50"/>
     <use xlink:href="#m9bf3dbe885" x="441.232545" y="340.332671" style="fill: #8b0a50; stroke: #8b0a50"/>
     <use xlink:href="#m9bf3dbe885" x="446.121" y="340.332671" style="fill: #8b0a50; stroke: #8b0a50"/>
     <use xlink:href="#m9bf3dbe885" x="451.009455" y="340.332671" style="fill: #8b0a50; stroke: #8b0a50"/>
     <use xlink:href="#m9bf3dbe885" x="455.897909" y="340.332671" style="fill: #8b0a50; stroke: #8b0a50"/>
     <use xlink:href="#m9bf3dbe885" x="460.786364" y="340.332671" style="fill: #8b0a50; stroke: #8b0a50"/>
     <use xlink:href="#m9bf3dbe885" x="465.674818" y="340.332671" style="fill: #8b0a50; stroke: #8b0a50"/>
     <use xlink:href="#m9bf3dbe885" x="470.563273" y="340.332671" style="fill: #8b0a50; stroke: #8b0a50"/>
     <use xlink:href="#m9bf3dbe885" x="475.451727" y="340.332671" style="fill: #8b0a50; stroke: #8b0a50"/>
     <use xlink:href="#m9bf3dbe885" x="480.340182" y="340.332671" style="fill: #8b0a50; stroke: #8b0a50"/>
     <use xlink:href="#m9bf3dbe885" x="485.228636" y="340.332671" style="fill: #8b0a50; stroke: #8b0a50"/>
     <use xlink:href="#m9bf3dbe885" x="490.117091" y="340.332671" style="fill: #8b0a50; stroke: #8b0a50"/>
     <use xlink:href="#m9bf3dbe885" x="495.005545" y="340.332671" style="fill: #8b0a50; stroke: #8b0a50"/>
     <use xlink:href="#m9bf3dbe885" x="499.894" y="340.332671" style="fill: #8b0a50; stroke: #8b0a50"/>
     <use xlink:href="#m9bf3dbe885" x="504.782455" y="340.332671" style="fill: #8b0a50; stroke: #8b0a50"/>
     <use xlink:href="#m9bf3dbe885" x="509.670909" y="340.332671" style="fill: #8b0a50; stroke: #8b0a50"/>
     <use xlink:href="#m9bf3dbe885" x="514.559364" y="340.332671" style="fill: #8b0a50; stroke: #8b0a50"/>
     <use xlink:href="#m9bf3dbe885" x="519.447818" y="340.332671" style="fill: #8b0a50; stroke: #8b0a50"/>
     <use xlink:href="#m9bf3dbe885" x="524.336273" y="340.332671" style="fill: #8b0a50; stroke: #8b0a50"/>
     <use xlink:href="#m9bf3dbe885" x="529.224727" y="340.332671" style="fill: #8b0a50; stroke: #8b0a50"/>
     <use xlink:href="#m9bf3dbe885" x="534.113182" y="340.332671" style="fill: #8b0a50; stroke: #8b0a50"/>
     <use xlink:href="#m9bf3dbe885" x="539.001636" y="340.332671" style="fill: #8b0a50; stroke: #8b0a50"/>
     <use xlink:href="#m9bf3dbe885" x="543.890091" y="340.332671" style="fill: #8b0a50; stroke: #8b0a50"/>
     <use xlink:href="#m9bf3dbe885" x="548.778545" y="340.332671" style="fill: #8b0a50; stroke: #8b0a50"/>
     <use xlink:href="#m9bf3dbe885" x="553.667" y="340.332671" style="fill: #8b0a50; stroke: #8b0a50"/>
     <use xlink:href="#m9bf3dbe885" x="558.555455" y="340.332671" style="fill: #8b0a50; stroke: #8b0a50"/>
     <use xlink:href="#m9bf3dbe885" x="563.443909" y="340.332671" style="fill: #8b0a50; stroke: #8b0a50"/>
     <use xlink:href="#m9bf3dbe885" x="568.332364" y="340.332671" style="fill: #8b0a50; stroke: #8b0a50"/>
     <use xlink:href="#m9bf3dbe885" x="573.220818" y="340.332671" style="fill: #8b0a50; stroke: #8b0a50"/>
     <use xlink:href="#m9bf3dbe885" x="578.109273" y="340.332671" style="fill: #8b0a50; stroke: #8b0a50"/>
     <use xlink:href="#m9bf3dbe885" x="582.997727" y="340.332671" style="fill: #8b0a50; stroke: #8b0a50"/>
    </g>
   </g>
   <g id="line2d_1">
    <path d="M 94.152273 336.828581 
L 99.040727 325.278049 
L 103.929182 306.966818 
L 108.817636 317.454332 
L 113.706091 322.301182 
L 118.594545 301.248486 
L 123.483 310.194134 
L 128.371455 312.8596 
L 133.259909 316.654335 
L 138.148364 296.502232 
L 143.036818 316.840338 
L 147.925273 325.325087 
L 152.813727 324.135704 
L 157.702182 316.865679 
L 162.590636 318.950232 
L 167.479091 318.137839 
L 172.367545 305.477572 
L 177.256 329.638186 
L 182.144455 307.921213 
L 187.032909 304.487568 
L 191.921364 300.845673 
L 196.809818 327.60549 
L 201.698273 320.454727 
L 206.586727 308.111578 
L 211.475182 279.032334 
L 216.363636 273.511146 
L 221.252091 257.398143 
L 226.140545 276.544352 
L 231.029 235.717771 
L 235.917455 237.246173 
L 240.805909 226.432763 
L 245.694364 228.37462 
L 250.582818 210.639756 
L 255.471273 223.036048 
L 260.359727 185.649335 
L 265.248182 187.701238 
L 270.136636 189.226266 
L 275.025091 187.256676 
L 279.913545 160.647533 
L 284.802 167.318328 
L 289.690455 160.84697 
L 294.578909 168.043764 
L 299.467364 184.171569 
L 304.355818 211.513845 
L 309.244273 218.060967 
L 314.132727 204.018003 
L 319.021182 197.300074 
L 323.909636 189.337308 
L 328.798091 149.420518 
L 333.686545 140.686655 
L 338.575 137.290568 
L 343.463455 164.668796 
L 348.351909 189.762129 
L 353.240364 201.782826 
L 358.128818 227.459439 
L 363.017273 258.837241 
L 367.905727 232.087331 
L 372.794182 223.889868 
L 377.682636 195.445124 
L 382.571091 204.658335 
L 387.459545 199.004383 
L 392.348 223.330879 
L 397.236455 269.040315 
L 402.124909 255.575248 
L 407.013364 236.348757 
L 411.901818 227.29853 
L 416.790273 212.910908 
L 421.678727 179.155588 
L 426.567182 162.374241 
L 431.455636 172.724257 
L 436.344091 166.198877 
L 441.232545 167.386078 
L 446.121 160.164633 
L 451.009455 197.877123 
L 455.897909 238.432872 
L 460.786364 260.507924 
L 465.674818 283.401007 
L 470.563273 284.74269 
L 475.451727 307.704991 
L 480.340182 311.259333 
L 485.228636 315.789366 
L 490.117091 312.354126 
L 495.005545 311.772596 
L 499.894 316.903327 
L 504.782455 311.360957 
L 509.670909 310.438897 
L 514.559364 303.810421 
L 519.447818 306.391452 
L 524.336273 311.399992 
L 529.224727 309.917413 
L 534.113182 315.007291 
L 539.001636 315.16779 
L 543.890091 323.073388 
L 548.778545 296.183044 
L 553.667 329.777292 
L 558.555455 319.237003 
L 563.443909 297.230743 
L 568.332364 317.793136 
L 573.220818 327.947405 
L 578.109273 319.917261 
L 582.997727 310.014732 
" clip-path="url(#pba2c0939f9)" style="fill: none; stroke: #eb6ab0; stroke-width: 2; stroke-linecap: round"/>
   </g>
   <g id="line2d_2">
    <path d="M 94.152273 311.377248 
L 99.040727 313.739871 
L 103.929182 313.484528 
L 108.817636 313.152128 
L 113.706091 314.692542 
L 118.594545 314.25639 
L 123.483 313.611892 
L 128.371455 314.170385 
L 133.259909 315.534649 
L 138.148364 315.488618 
L 143.036818 313.074651 
L 147.925273 312.928851 
L 152.813727 314.61228 
L 157.702182 314.701776 
L 162.590636 313.47384 
L 167.479091 313.192289 
L 172.367545 314.124485 
L 177.256 314.939531 
L 182.144455 312.434502 
L 187.032909 314.381772 
L 191.921364 314.170799 
L 196.809818 314.651223 
L 201.698273 313.529479 
L 206.586727 312.347696 
L 211.475182 299.907459 
L 216.363636 297.391415 
L 221.252091 295.357122 
L 226.140545 296.76589 
L 231.029 297.025875 
L 235.917455 295.341777 
L 240.805909 302.637084 
L 245.694364 307.386509 
L 250.582818 306.27985 
L 255.471273 301.487105 
L 260.359727 299.921723 
L 265.248182 301.672097 
L 270.136636 298.221994 
L 275.025091 295.577125 
L 279.913545 297.393739 
L 284.802 296.534528 
L 289.690455 297.444358 
L 294.578909 296.335175 
L 299.467364 298.284554 
L 304.355818 298.713449 
L 309.244273 299.535755 
L 314.132727 298.009061 
L 319.021182 301.513763 
L 323.909636 299.98636 
L 328.798091 299.312277 
L 333.686545 296.30513 
L 338.575 297.138182 
L 343.463455 300.607832 
L 348.351909 306.026794 
L 353.240364 306.631979 
L 358.128818 300.869158 
L 363.017273 298.379866 
L 367.905727 298.445766 
L 372.794182 294.345422 
L 377.682636 295.591524 
L 382.571091 295.304189 
L 387.459545 295.707908 
L 392.348 295.290317 
L 397.236455 296.037183 
L 402.124909 294.108195 
L 407.013364 296.918308 
L 411.901818 297.716692 
L 416.790273 296.35019 
L 421.678727 297.402854 
L 426.567182 302.625101 
L 431.455636 302.407687 
L 436.344091 298.684215 
L 441.232545 299.75868 
L 446.121 302.236484 
L 451.009455 303.63903 
L 455.897909 313.578248 
L 460.786364 314.920362 
L 465.674818 317.889402 
L 470.563273 313.08856 
L 475.451727 318.481178 
L 480.340182 317.235099 
L 485.228636 316.500485 
L 490.117091 312.75032 
L 495.005545 314.231114 
L 499.894 315.231643 
L 504.782455 314.632507 
L 509.670909 318.266667 
L 514.559364 314.231398 
L 519.447818 314.36484 
L 524.336273 316.281417 
L 529.224727 313.156494 
L 534.113182 317.821267 
L 539.001636 315.514161 
L 543.890091 315.920331 
L 548.778545 317.126307 
L 553.667 313.886559 
L 558.555455 313.290825 
L 563.443909 309.262092 
L 568.332364 315.388962 
L 573.220818 315.911461 
L 578.109273 312.66411 
L 582.997727 313.953091 
" clip-path="url(#pba2c0939f9)" style="fill: none; stroke-dasharray: 7.4,3.2; stroke-dashoffset: 0; stroke: #eb6ab0; stroke-width: 2"/>
   </g>
   <g id="line2d_3">
    <path d="M 211.475182 377.54 
L 211.475182 26.96 
" clip-path="url(#pba2c0939f9)" style="fill: none; stroke-dasharray: 5.55,2.4; stroke-dashoffset: 0; stroke: #1a1a1a; stroke-width: 1.5"/>
   </g>
   <g id="line2d_4">
    <path d="M 455.897909 377.54 
L 455.897909 26.96 
" clip-path="url(#pba2c0939f9)" style="fill: none; stroke-dasharray: 5.55,2.4; stroke-dashoffset: 0; stroke: #1a1a1a; stroke-width: 1.5"/>
   </g>
   <g id="line2d_5">
    <path d="M 94.152273 343.91624 
L 99.040727 342.30518 
L 103.929182 325.390369 
L 108.817636 319.057846 
L 113.706091 321.856404 
L 118.594545 299.03355 
L 123.483 289.566386 
L 128.371455 301.776369 
L 133.259909 300.17186 
L 138.148364 270.894448 
L 143.036818 271.821081 
L 147.925273 290.856977 
L 152.813727 305.636456 
L 157.702182 309.765819 
L 162.590636 303.903969 
L 167.479091 312.312124 
L 172.367545 321.643938 
L 177.256 332.573461 
L 182.144455 320.240151 
L 187.032909 294.388545 
L 191.921364 285.727445 
L 196.809818 279.734023 
L 201.698273 274.830979 
L 206.586727 268.729151 
L 211.475182 251.866038 
L 216.363636 241.879141 
L 221.252091 242.779841 
L 226.140545 235.693031 
L 231.029 235.89536 
L 235.917455 240.05787 
L 240.805909 238.625632 
L 245.694364 248.044511 
L 250.582818 252.696564 
L 255.471273 262.068689 
L 260.359727 259.25564 
L 265.248182 254.706881 
L 270.136636 252.45285 
L 275.025091 239.25784 
L 279.913545 241.176205 
L 284.802 231.333763 
L 289.690455 234.694802 
L 294.578909 221.31471 
L 299.467364 200.810085 
L 304.355818 189.76505 
L 309.244273 180.303378 
L 314.132727 173.554606 
L 319.021182 169.573009 
L 323.909636 158.980596 
L 328.798091 149.159789 
L 333.686545 137.960656 
L 338.575 128.470316 
L 343.463455 115.437581 
L 348.351909 114.739457 
L 353.240364 110.657393 
L 358.128818 103.932312 
L 363.017273 93.513847 
L 367.905727 99.45299 
L 372.794182 103.778019 
L 377.682636 94.907497 
L 382.571091 92.740395 
L 387.459545 91.513391 
L 392.348 85.569244 
L 397.236455 82.525715 
L 402.124909 84.164271 
L 407.013364 83.301016 
L 411.901818 90.995325 
L 416.790273 91.820706 
L 421.678727 92.983963 
L 426.567182 85.665298 
L 431.455636 79.570825 
L 436.344091 78.43845 
L 441.232545 80.325772 
L 446.121 75.545068 
L 451.009455 85.714853 
L 455.897909 80.854493 
L 460.786364 85.640043 
L 465.674818 76.823487 
L 470.563273 86.836846 
L 475.451727 89.628857 
L 480.340182 109.54668 
L 485.228636 113.596145 
L 490.117091 123.793796 
L 495.005545 125.125779 
L 499.894 130.097424 
L 504.782455 140.892713 
L 509.670909 137.520666 
L 514.559364 136.534649 
L 519.447818 133.869097 
L 524.336273 148.316472 
L 529.224727 140.008055 
L 534.113182 149.183874 
L 539.001636 149.384122 
L 543.890091 151.054265 
L 548.778545 151.550549 
L 553.667 159.963358 
L 558.555455 158.243788 
L 563.443909 155.851755 
L 568.332364 161.079161 
L 573.220818 162.725558 
L 578.109273 172.369399 
L 582.997727 163.729363 
" clip-path="url(#pba2c0939f9)" style="fill: none; stroke: #8b0a50; stroke-width: 2; stroke-linecap: round"/>
   </g>
   <g id="line2d_6">
    <path d="M 94.152273 318.652033 
L 99.040727 318.059853 
L 103.929182 317.35963 
L 108.817636 312.053821 
L 113.706091 315.211529 
L 118.594545 310.844551 
L 123.483 310.957827 
L 128.371455 307.551913 
L 133.259909 307.607642 
L 138.148364 305.602978 
L 143.036818 307.201217 
L 147.925273 304.565801 
L 152.813727 303.546959 
L 157.702182 304.587832 
L 162.590636 303.41434 
L 167.479091 301.63537 
L 172.367545 299.109171 
L 177.256 296.347025 
L 182.144455 293.612531 
L 187.032909 289.151604 
L 191.921364 284.446109 
L 196.809818 285.277322 
L 201.698273 280.548545 
L 206.586727 277.261292 
L 211.475182 270.478377 
L 216.363636 269.494781 
L 221.252091 265.836138 
L 226.140545 265.526469 
L 231.029 266.983218 
L 235.917455 265.126207 
L 240.805909 267.749224 
L 245.694364 268.727605 
L 250.582818 272.061632 
L 255.471273 274.268759 
L 260.359727 275.791613 
L 265.248182 277.113263 
L 270.136636 277.164619 
L 275.025091 279.471463 
L 279.913545 278.640874 
L 284.802 277.961428 
L 289.690455 278.028973 
L 294.578909 275.880069 
L 299.467364 275.98707 
L 304.355818 277.264839 
L 309.244273 278.237845 
L 314.132727 277.684663 
L 319.021182 278.588074 
L 323.909636 278.194179 
L 328.798091 278.397963 
L 333.686545 278.865972 
L 338.575 277.01376 
L 343.463455 276.281492 
L 348.351909 276.679187 
L 353.240364 275.741278 
L 358.128818 276.391719 
L 363.017273 276.147944 
L 367.905727 276.487029 
L 372.794182 277.307718 
L 377.682636 277.680661 
L 382.571091 277.820419 
L 387.459545 277.486079 
L 392.348 275.154635 
L 397.236455 275.311699 
L 402.124909 275.746311 
L 407.013364 275.272024 
L 411.901818 275.315756 
L 416.790273 275.300655 
L 421.678727 276.942731 
L 426.567182 277.389675 
L 431.455636 278.662169 
L 436.344091 279.135792 
L 441.232545 279.794517 
L 446.121 281.021632 
L 451.009455 283.001827 
L 455.897909 284.607281 
L 460.786364 285.667309 
L 465.674818 285.963441 
L 470.563273 287.787613 
L 475.451727 287.81171 
L 480.340182 287.22945 
L 485.228636 288.373121 
L 490.117091 288.762424 
L 495.005545 289.270056 
L 499.894 288.363959 
L 504.782455 289.212878 
L 509.670909 289.681344 
L 514.559364 290.560241 
L 519.447818 291.057962 
L 524.336273 290.166899 
L 529.224727 291.869548 
L 534.113182 293.11132 
L 539.001636 293.353148 
L 543.890091 293.930914 
L 548.778545 293.111543 
L 553.667 292.457706 
L 558.555455 291.945053 
L 563.443909 290.91761 
L 568.332364 292.498148 
L 573.220818 293.73732 
L 578.109273 296.678214 
L 582.997727 296.19567 
" clip-path="url(#pba2c0939f9)" style="fill: none; stroke-dasharray: 7.4,3.2; stroke-dashoffset: 0; stroke: #8b0a50; stroke-width: 2"/>
   </g>
   <g id="line2d_7">
    <path d="M 211.475182 377.54 
L 211.475182 26.96 
" clip-path="url(#pba2c0939f9)" style="fill: none; stroke-dasharray: 5.55,2.4; stroke-dashoffset: 0; stroke: #1a1a1a; stroke-width: 1.5"/>
   </g>
   <g id="line2d_8">
    <path d="M 455.897909 377.54 
L 455.897909 26.96 
" clip-path="url(#pba2c0939f9)" style="fill: none; stroke-dasharray: 5.55,2.4; stroke-dashoffset: 0; stroke: #1a1a1a; stroke-width: 1.5"/>
   </g>
   <g id="patch_3">
    <path d="M 69.71 377.54 
L 69.71 26.96 
" style="fill: none; stroke: #cccccc; stroke-width: 1.5; stroke-linejoin: miter; stroke-linecap: square"/>
   </g>
   <g id="patch_4">
    <path d="M 69.71 377.54 
L 607.44 377.54 
" style="fill: none; stroke: #cccccc; stroke-width: 1.5; stroke-linejoin: miter; stroke-linecap: square"/>
   </g>
   <g id="text_17">
    <!-- Divergence Comparison: Original vs Shuffled -->
    <g style="fill: #262626" transform="translate(189.0625 20.96) scale(0.15 -0.15)">
     <defs>
      <path id="ArialMT-43" d="M 3763 1606 
L 4369 1453 
Q 4178 706 3683 314 
Q 3188 -78 2472 -78 
Q 1731 -78 1267 223 
Q 803 525 561 1097 
Q 319 1669 319 2325 
Q 319 3041 592 3573 
Q 866 4106 1370 4382 
Q 1875 4659 2481 4659 
Q 3169 4659 3637 4309 
Q 4106 3959 4291 3325 
L 3694 3184 
Q 3534 3684 3231 3912 
Q 2928 4141 2469 4141 
Q 1941 4141 1586 3887 
Q 1231 3634 1087 3207 
Q 944 2781 944 2328 
Q 944 1744 1114 1308 
Q 1284 872 1643 656 
Q 2003 441 2422 441 
Q 2931 441 3284 734 
Q 3638 1028 3763 1606 
z
" transform="scale(0.015625)"/>
      <path id="ArialMT-6f" d="M 213 1659 
Q 213 2581 725 3025 
Q 1153 3394 1769 3394 
Q 2453 3394 2887 2945 
Q 3322 2497 3322 1706 
Q 3322 1066 3130 698 
Q 2938 331 2570 128 
Q 2203 -75 1769 -75 
Q 1072 -75 642 372 
Q 213 819 213 1659 
z
M 791 1659 
Q 791 1022 1069 705 
Q 1347 388 1769 388 
Q 2188 388 2466 706 
Q 2744 1025 2744 1678 
Q 2744 2294 2464 2611 
Q 2184 2928 1769 2928 
Q 1347 2928 1069 2612 
Q 791 2297 791 1659 
z
" transform="scale(0.015625)"/>
      <path id="ArialMT-70" d="M 422 -1272 
L 422 3319 
L 934 3319 
L 934 2888 
Q 1116 3141 1344 3267 
Q 1572 3394 1897 3394 
Q 2322 3394 2647 3175 
Q 2972 2956 3137 2557 
Q 3303 2159 3303 1684 
Q 3303 1175 3120 767 
Q 2938 359 2589 142 
Q 2241 -75 1856 -75 
Q 1575 -75 1351 44 
Q 1128 163 984 344 
L 984 -1272 
L 422 -1272 
z
M 931 1641 
Q 931 1000 1190 694 
Q 1450 388 1819 388 
Q 2194 388 2461 705 
Q 2728 1022 2728 1688 
Q 2728 2322 2467 2637 
Q 2206 2953 1844 2953 
Q 1484 2953 1207 2617 
Q 931 2281 931 1641 
z
" transform="scale(0.015625)"/>
      <path id="ArialMT-61" d="M 2588 409 
Q 2275 144 1986 34 
Q 1697 -75 1366 -75 
Q 819 -75 525 192 
Q 231 459 231 875 
Q 231 1119 342 1320 
Q 453 1522 633 1644 
Q 813 1766 1038 1828 
Q 1203 1872 1538 1913 
Q 2219 1994 2541 2106 
Q 2544 2222 2544 2253 
Q 2544 2597 2384 2738 
Q 2169 2928 1744 2928 
Q 1347 2928 1158 2789 
Q 969 2650 878 2297 
L 328 2372 
Q 403 2725 575 2942 
Q 747 3159 1072 3276 
Q 1397 3394 1825 3394 
Q 2250 3394 2515 3294 
Q 2781 3194 2906 3042 
Q 3031 2891 3081 2659 
Q 3109 2516 3109 2141 
L 3109 1391 
Q 3109 606 3145 398 
Q 3181 191 3288 0 
L 2700 0 
Q 2613 175 2588 409 
z
M 2541 1666 
Q 2234 1541 1622 1453 
Q 1275 1403 1131 1340 
Q 988 1278 909 1158 
Q 831 1038 831 891 
Q 831 666 1001 516 
Q 1172 366 1500 366 
Q 1825 366 2078 508 
Q 2331 650 2450 897 
Q 2541 1088 2541 1459 
L 2541 1666 
z
" transform="scale(0.015625)"/>
      <path id="ArialMT-3a" d="M 578 2678 
L 578 3319 
L 1219 3319 
L 1219 2678 
L 578 2678 
z
M 578 0 
L 578 641 
L 1219 641 
L 1219 0 
L 578 0 
z
" transform="scale(0.015625)"/>
      <path id="ArialMT-4f" d="M 309 2231 
Q 309 3372 921 4017 
Q 1534 4663 2503 4663 
Q 3138 4663 3647 4359 
Q 4156 4056 4423 3514 
Q 4691 2972 4691 2284 
Q 4691 1588 4409 1038 
Q 4128 488 3612 205 
Q 3097 -78 2500 -78 
Q 1853 -78 1343 234 
Q 834 547 571 1087 
Q 309 1628 309 2231 
z
M 934 2222 
Q 934 1394 1379 917 
Q 1825 441 2497 441 
Q 3181 441 3623 922 
Q 4066 1403 4066 2288 
Q 4066 2847 3877 3264 
Q 3688 3681 3323 3911 
Q 2959 4141 2506 4141 
Q 1863 4141 1398 3698 
Q 934 3256 934 2222 
z
" transform="scale(0.015625)"/>
      <path id="ArialMT-6c" d="M 409 0 
L 409 4581 
L 972 4581 
L 972 0 
L 409 0 
z
" transform="scale(0.015625)"/>
      <path id="ArialMT-53" d="M 288 1472 
L 859 1522 
Q 900 1178 1048 958 
Q 1197 738 1509 602 
Q 1822 466 2213 466 
Q 2559 466 2825 569 
Q 3091 672 3220 851 
Q 3350 1031 3350 1244 
Q 3350 1459 3225 1620 
Q 3100 1781 2813 1891 
Q 2628 1963 1997 2114 
Q 1366 2266 1113 2400 
Q 784 2572 623 2826 
Q 463 3081 463 3397 
Q 463 3744 659 4045 
Q 856 4347 1234 4503 
Q 1613 4659 2075 4659 
Q 2584 4659 2973 4495 
Q 3363 4331 3572 4012 
Q 3781 3694 3797 3291 
L 3216 3247 
Q 3169 3681 2898 3903 
Q 2628 4125 2100 4125 
Q 1550 4125 1298 3923 
Q 1047 3722 1047 3438 
Q 1047 3191 1225 3031 
Q 1400 2872 2139 2705 
Q 2878 2538 3153 2413 
Q 3553 2228 3743 1945 
Q 3934 1663 3934 1294 
Q 3934 928 3725 604 
Q 3516 281 3123 101 
Q 2731 -78 2241 -78 
Q 1619 -78 1198 103 
Q 778 284 539 648 
Q 300 1013 288 1472 
z
" transform="scale(0.015625)"/>
      <path id="ArialMT-68" d="M 422 0 
L 422 4581 
L 984 4581 
L 984 2938 
Q 1378 3394 1978 3394 
Q 2347 3394 2619 3248 
Q 2891 3103 3008 2847 
Q 3125 2591 3125 2103 
L 3125 0 
L 2563 0 
L 2563 2103 
Q 2563 2525 2380 2717 
Q 2197 2909 1863 2909 
Q 1613 2909 1392 2779 
Q 1172 2650 1078 2428 
Q 984 2206 984 1816 
L 984 0 
L 422 0 
z
" transform="scale(0.015625)"/>
      <path id="ArialMT-75" d="M 2597 0 
L 2597 488 
Q 2209 -75 1544 -75 
Q 1250 -75 995 37 
Q 741 150 617 320 
Q 494 491 444 738 
Q 409 903 409 1263 
L 409 3319 
L 972 3319 
L 972 1478 
Q 972 1038 1006 884 
Q 1059 663 1231 536 
Q 1403 409 1656 409 
Q 1909 409 2131 539 
Q 2353 669 2445 892 
Q 2538 1116 2538 1541 
L 2538 3319 
L 3100 3319 
L 3100 0 
L 2597 0 
z
" transform="scale(0.015625)"/>
      <path id="ArialMT-66" d="M 556 0 
L 556 2881 
L 59 2881 
L 59 3319 
L 556 3319 
L 556 3672 
Q 556 4006 616 4169 
Q 697 4388 901 4523 
Q 1106 4659 1475 4659 
Q 1713 4659 2000 4603 
L 1916 4113 
Q 1741 4144 1584 4144 
Q 1328 4144 1222 4034 
Q 1116 3925 1116 3625 
L 1116 3319 
L 1763 3319 
L 1763 2881 
L 1116 2881 
L 1116 0 
L 556 0 
z
" transform="scale(0.015625)"/>
      <path id="ArialMT-64" d="M 2575 0 
L 2575 419 
Q 2259 -75 1647 -75 
Q 1250 -75 917 144 
Q 584 363 401 755 
Q 219 1147 219 1656 
Q 219 2153 384 2558 
Q 550 2963 881 3178 
Q 1213 3394 1622 3394 
Q 1922 3394 2156 3267 
Q 2391 3141 2538 2938 
L 2538 4581 
L 3097 4581 
L 3097 0 
L 2575 0 
z
M 797 1656 
Q 797 1019 1065 703 
Q 1334 388 1700 388 
Q 2069 388 2326 689 
Q 2584 991 2584 1609 
Q 2584 2291 2321 2609 
Q 2059 2928 1675 2928 
Q 1300 2928 1048 2622 
Q 797 2316 797 1656 
z
" transform="scale(0.015625)"/>
     </defs>
     <use xlink:href="#ArialMT-44"/>
     <use xlink:href="#ArialMT-69" x="72.216797"/>
     <use xlink:href="#ArialMT-76" x="94.433594"/>
     <use xlink:href="#ArialMT-65" x="144.433594"/>
     <use xlink:href="#ArialMT-72" x="200.048828"/>
     <use xlink:href="#ArialMT-67" x="233.349609"/>
     <use xlink:href="#ArialMT-65" x="288.964844"/>
     <use xlink:href="#ArialMT-6e" x="344.580078"/>
     <use xlink:href="#ArialMT-63" x="400.195312"/>
     <use xlink:href="#ArialMT-65" x="450.195312"/>
     <use xlink:href="#ArialMT-20" x="505.810547"/>
     <use xlink:href="#ArialMT-43" x="533.59375"/>
     <use xlink:href="#ArialMT-6f" x="605.810547"/>
     <use xlink:href="#ArialMT-6d" x="661.425781"/>
     <use xlink:href="#ArialMT-70" x="744.726562"/>
     <use xlink:href="#ArialMT-61" x="800.341797"/>
     <use xlink:href="#ArialMT-72" x="855.957031"/>
     <use xlink:href="#ArialMT-69" x="889.257812"/>
     <use xlink:href="#ArialMT-73" x="911.474609"/>
     <use xlink:href="#ArialMT-6f" x="961.474609"/>
     <use xlink:href="#ArialMT-6e" x="1017.089844"/>
     <use xlink:href="#ArialMT-3a" x="1072.705078"/>
     <use xlink:href="#ArialMT-20" x="1100.488281"/>
     <use xlink:href="#ArialMT-4f" x="1128.271484"/>
     <use xlink:href="#ArialMT-72" x="1206.054688"/>
     <use xlink:href="#ArialMT-69" x="1239.355469"/>
     <use xlink:href="#ArialMT-67" x="1261.572266"/>
     <use xlink:href="#ArialMT-69" x="1317.1875"/>
     <use xlink:href="#ArialMT-6e" x="1339.404297"/>
     <use xlink:href="#ArialMT-61" x="1395.019531"/>
     <use xlink:href="#ArialMT-6c" x="1450.634766"/>
     <use xlink:href="#ArialMT-20" x="1472.851562"/>
     <use xlink:href="#ArialMT-76" x="1500.634766"/>
     <use xlink:href="#ArialMT-73" x="1550.634766"/>
     <use xlink:href="#ArialMT-20" x="1600.634766"/>
     <use xlink:href="#ArialMT-53" x="1628.417969"/>
     <use xlink:href="#ArialMT-68" x="1695.117188"/>
     <use xlink:href="#ArialMT-75" x="1750.732422"/>
     <use xlink:href="#ArialMT-66" x="1806.347656"/>
     <use xlink:href="#ArialMT-66" x="1832.380859"/>
     <use xlink:href="#ArialMT-6c" x="1860.164062"/>
     <use xlink:href="#ArialMT-65" x="1882.380859"/>
     <use xlink:href="#ArialMT-64" x="1937.996094"/>
    </g>
   </g>
   <g id="legend_1">
    <g id="patch_5">
     <path d="M 615.14 258.915469 
L 704.741875 258.915469 
Q 706.941875 258.915469 706.941875 256.715469 
L 706.941875 147.784531 
Q 706.941875 145.584531 704.741875 145.584531 
L 615.14 145.584531 
Q 612.94 145.584531 612.94 147.784531 
L 612.94 256.715469 
Q 612.94 258.915469 615.14 258.915469 
z
" style="fill: #ffffff; opacity: 0.8; stroke: #cccccc; stroke-linejoin: miter"/>
    </g>
    <g id="line2d_9">
     <path d="M 617.34 154.149062 
L 628.34 154.149062 
L 639.34 154.149062 
" style="fill: none; stroke: #eb6ab0; stroke-width: 2; stroke-linecap: round"/>
    </g>
    <g id="text_18">
     <!-- Original -->
     <g style="fill: #262626" transform="translate(648.14 157.999062) scale(0.11 -0.11)">
      <use xlink:href="#ArialMT-4f"/>
      <use xlink:href="#ArialMT-72" x="77.783203"/>
      <use xlink:href="#ArialMT-69" x="111.083984"/>
      <use xlink:href="#ArialMT-67" x="133.300781"/>
      <use xlink:href="#ArialMT-69" x="188.916016"/>
      <use xlink:href="#ArialMT-6e" x="211.132812"/>
      <use xlink:href="#ArialMT-61" x="266.748047"/>
      <use xlink:href="#ArialMT-6c" x="322.363281"/>
     </g>
    </g>
    <g id="line2d_10">
     <path d="M 617.34 169.97875 
L 628.34 169.97875 
L 639.34 169.97875 
" style="fill: none; stroke-dasharray: 7.4,3.2; stroke-dashoffset: 0; stroke: #eb6ab0; stroke-width: 2"/>
    </g>
    <g id="text_19">
     <!-- Original -->
     <g style="fill: #262626" transform="translate(648.14 173.82875) scale(0.11 -0.11)">
      <use xlink:href="#ArialMT-4f"/>
      <use xlink:href="#ArialMT-72" x="77.783203"/>
      <use xlink:href="#ArialMT-69" x="111.083984"/>
      <use xlink:href="#ArialMT-67" x="133.300781"/>
      <use xlink:href="#ArialMT-69" x="188.916016"/>
      <use xlink:href="#ArialMT-6e" x="211.132812"/>
      <use xlink:href="#ArialMT-61" x="266.748047"/>
      <use xlink:href="#ArialMT-6c" x="322.363281"/>
     </g>
    </g>
    <g id="PathCollection_3">
     <g>
      <use xlink:href="#m301439b9e3" x="628.34" y="186.662656" style="fill: #eb6ab0; stroke: #eb6ab0"/>
     </g>
    </g>
    <g id="text_20">
     <!-- p &lt; 0.001 -->
     <g style="fill: #262626" transform="translate(648.14 189.550156) scale(0.11 -0.11)">
      <defs>
       <path id="ArialMT-3c" d="M 350 2003 
L 350 2528 
L 3384 3809 
L 3384 3250 
L 978 2263 
L 3384 1266 
L 3384 706 
L 350 2003 
z
" transform="scale(0.015625)"/>
      </defs>
      <use xlink:href="#ArialMT-70"/>
      <use xlink:href="#ArialMT-20" x="55.615234"/>
      <use xlink:href="#ArialMT-3c" x="83.398438"/>
      <use xlink:href="#ArialMT-20" x="141.796875"/>
      <use xlink:href="#ArialMT-30" x="169.580078"/>
      <use xlink:href="#ArialMT-2e" x="225.195312"/>
      <use xlink:href="#ArialMT-30" x="252.978516"/>
      <use xlink:href="#ArialMT-30" x="308.59375"/>
      <use xlink:href="#ArialMT-31" x="364.208984"/>
     </g>
    </g>
    <g id="line2d_11">
     <path d="M 617.34 201.26 
L 628.34 201.26 
L 639.34 201.26 
" style="fill: none; stroke-dasharray: 5.55,2.4; stroke-dashoffset: 0; stroke: #1a1a1a; stroke-width: 1.5"/>
    </g>
    <g id="text_21">
     <!-- Stim Onset -->
     <g style="fill: #262626" transform="translate(648.14 205.11) scale(0.11 -0.11)">
      <defs>
       <path id="ArialMT-74" d="M 1650 503 
L 1731 6 
Q 1494 -44 1306 -44 
Q 1000 -44 831 53 
Q 663 150 594 308 
Q 525 466 525 972 
L 525 2881 
L 113 2881 
L 113 3319 
L 525 3319 
L 525 4141 
L 1084 4478 
L 1084 3319 
L 1650 3319 
L 1650 2881 
L 1084 2881 
L 1084 941 
Q 1084 700 1114 631 
Q 1144 563 1211 522 
Q 1278 481 1403 481 
Q 1497 481 1650 503 
z
" transform="scale(0.015625)"/>
      </defs>
      <use xlink:href="#ArialMT-53"/>
      <use xlink:href="#ArialMT-74" x="66.699219"/>
      <use xlink:href="#ArialMT-69" x="94.482422"/>
      <use xlink:href="#ArialMT-6d" x="116.699219"/>
      <use xlink:href="#ArialMT-20" x="200"/>
      <use xlink:href="#ArialMT-4f" x="227.783203"/>
      <use xlink:href="#ArialMT-6e" x="305.566406"/>
      <use xlink:href="#ArialMT-73" x="361.181641"/>
      <use xlink:href="#ArialMT-65" x="411.181641"/>
      <use xlink:href="#ArialMT-74" x="466.796875"/>
     </g>
    </g>
    <g id="line2d_12">
     <path d="M 617.34 216.819844 
L 628.34 216.819844 
L 639.34 216.819844 
" style="fill: none; stroke-dasharray: 5.55,2.4; stroke-dashoffset: 0; stroke: #1a1a1a; stroke-width: 1.5"/>
    </g>
    <g id="text_22">
     <!-- Stim End -->
     <g style="fill: #262626" transform="translate(648.14 220.669844) scale(0.11 -0.11)">
      <defs>
       <path id="ArialMT-45" d="M 506 0 
L 506 4581 
L 3819 4581 
L 3819 4041 
L 1113 4041 
L 1113 2638 
L 3647 2638 
L 3647 2100 
L 1113 2100 
L 1113 541 
L 3925 541 
L 3925 0 
L 506 0 
z
" transform="scale(0.015625)"/>
      </defs>
      <use xlink:href="#ArialMT-53"/>
      <use xlink:href="#ArialMT-74" x="66.699219"/>
      <use xlink:href="#ArialMT-69" x="94.482422"/>
      <use xlink:href="#ArialMT-6d" x="116.699219"/>
      <use xlink:href="#ArialMT-20" x="200"/>
      <use xlink:href="#ArialMT-45" x="227.783203"/>
      <use xlink:href="#ArialMT-6e" x="294.482422"/>
      <use xlink:href="#ArialMT-64" x="350.097656"/>
     </g>
    </g>
    <g id="line2d_13">
     <path d="M 617.34 232.520625 
L 628.34 232.520625 
L 639.34 232.520625 
" style="fill: none; stroke: #8b0a50; stroke-width: 2; stroke-linecap: round"/>
    </g>
    <g id="text_23">
     <!-- Original -->
     <g style="fill: #262626" transform="translate(648.14 236.370625) scale(0.11 -0.11)">
      <use xlink:href="#ArialMT-4f"/>
      <use xlink:href="#ArialMT-72" x="77.783203"/>
      <use xlink:href="#ArialMT-69" x="111.083984"/>
      <use xlink:href="#ArialMT-67" x="133.300781"/>
      <use xlink:href="#ArialMT-69" x="188.916016"/>
      <use xlink:href="#ArialMT-6e" x="211.132812"/>
      <use xlink:href="#ArialMT-61" x="266.748047"/>
      <use xlink:href="#ArialMT-6c" x="322.363281"/>
     </g>
    </g>
    <g id="line2d_14">
     <path d="M 617.34 248.350313 
L 628.34 248.350313 
L 639.34 248.350313 
" style="fill: none; stroke-dasharray: 7.4,3.2; stroke-dashoffset: 0; stroke: #8b0a50; stroke-width: 2"/>
    </g>
    <g id="text_24">
     <!-- Original -->
     <g style="fill: #262626" transform="translate(648.14 252.200312) scale(0.11 -0.11)">
      <use xlink:href="#ArialMT-4f"/>
      <use xlink:href="#ArialMT-72" x="77.783203"/>
      <use xlink:href="#ArialMT-69" x="111.083984"/>
      <use xlink:href="#ArialMT-67" x="133.300781"/>
      <use xlink:href="#ArialMT-69" x="188.916016"/>
      <use xlink:href="#ArialMT-6e" x="211.132812"/>
      <use xlink:href="#ArialMT-61" x="266.748047"/>
      <use xlink:href="#ArialMT-6c" x="322.363281"/>
     </g>
    </g>
   </g>
  </g>
 </g>
 <defs>
  <clipPath id="pba2c0939f9">
   <rect x="69.71" y="26.96" width="537.73" height="350.58"/>
  </clipPath>
 </defs>
</svg>
