<?xml version="1.0" encoding="utf-8" standalone="no"?>
<!DOCTYPE svg PUBLIC "-//W3C//DTD SVG 1.1//EN"
  "http://www.w3.org/Graphics/SVG/1.1/DTD/svg11.dtd">
<svg xmlns:xlink="http://www.w3.org/1999/xlink" width="720pt" height="432pt" viewBox="0 0 720 432" xmlns="http://www.w3.org/2000/svg" version="1.1">
 <metadata>
  <rdf:RDF xmlns:dc="http://purl.org/dc/elements/1.1/" xmlns:cc="http://creativecommons.org/ns#" xmlns:rdf="http://www.w3.org/1999/02/22-rdf-syntax-ns#">
   <cc:Work>
    <dc:type rdf:resource="http://purl.org/dc/dcmitype/StillImage"/>
    <dc:date>2025-07-17T15:25:21.621053</dc:date>
    <dc:format>image/svg+xml</dc:format>
    <dc:creator>
     <cc:Agent>
      <dc:title>Matplotlib v3.9.4, https://matplotlib.org/</dc:title>
     </cc:Agent>
    </dc:creator>
   </cc:Work>
  </rdf:RDF>
 </metadata>
 <defs>
  <style type="text/css">*{stroke-linejoin: round; stroke-linecap: butt}</style>
 </defs>
 <g id="figure_1">
  <g id="patch_1">
   <path d="M 0 432 
L 720 432 
L 720 0 
L 0 0 
z
" style="fill: #ffffff"/>
  </g>
  <g id="axes_1">
   <g id="patch_2">
    <path d="M 69.48 378.18 
L 607.76 378.18 
L 607.76 27.6 
L 69.48 27.6 
L 69.48 378.18 
z
" style="fill: none"/>
   </g>
   <g id="matplotlib.axis_1">
    <g id="xtick_1">
     <g id="text_1">
      <!-- 0 -->
      <g style="fill: #262626" transform="translate(120.360661 398.416719) scale(0.15 -0.15)">
       <defs>
        <path id="ArialMT-30" d="M 266 2259 
Q 266 3072 433 3567 
Q 600 4063 929 4331 
Q 1259 4600 1759 4600 
Q 2128 4600 2406 4451 
Q 2684 4303 2865 4023 
Q 3047 3744 3150 3342 
Q 3253 2941 3253 2259 
Q 3253 1453 3087 958 
Q 2922 463 2592 192 
Q 2263 -78 1759 -78 
Q 1097 -78 719 397 
Q 266 969 266 2259 
z
M 844 2259 
Q 844 1131 1108 757 
Q 1372 384 1759 384 
Q 2147 384 2411 759 
Q 2675 1134 2675 2259 
Q 2675 3391 2411 3762 
Q 2147 4134 1753 4134 
Q 1366 4134 1134 3806 
Q 844 3388 844 2259 
z
" transform="scale(0.015625)"/>
       </defs>
       <use xlink:href="#ArialMT-30"/>
      </g>
     </g>
    </g>
    <g id="xtick_2">
     <g id="text_2">
      <!-- 200 -->
      <g style="fill: #262626" transform="translate(173.187436 398.416719) scale(0.15 -0.15)">
       <defs>
        <path id="ArialMT-32" d="M 3222 541 
L 3222 0 
L 194 0 
Q 188 203 259 391 
Q 375 700 629 1000 
Q 884 1300 1366 1694 
Q 2113 2306 2375 2664 
Q 2638 3022 2638 3341 
Q 2638 3675 2398 3904 
Q 2159 4134 1775 4134 
Q 1369 4134 1125 3890 
Q 881 3647 878 3216 
L 300 3275 
Q 359 3922 746 4261 
Q 1134 4600 1788 4600 
Q 2447 4600 2831 4234 
Q 3216 3869 3216 3328 
Q 3216 3053 3103 2787 
Q 2991 2522 2730 2228 
Q 2469 1934 1863 1422 
Q 1356 997 1212 845 
Q 1069 694 975 541 
L 3222 541 
z
" transform="scale(0.015625)"/>
       </defs>
       <use xlink:href="#ArialMT-32"/>
       <use xlink:href="#ArialMT-30" x="55.615234"/>
       <use xlink:href="#ArialMT-30" x="111.230469"/>
      </g>
     </g>
    </g>
    <g id="xtick_3">
     <g id="text_3">
      <!-- 400 -->
      <g style="fill: #262626" transform="translate(234.355618 398.416719) scale(0.15 -0.15)">
       <defs>
        <path id="ArialMT-34" d="M 2069 0 
L 2069 1097 
L 81 1097 
L 81 1613 
L 2172 4581 
L 2631 4581 
L 2631 1613 
L 3250 1613 
L 3250 1097 
L 2631 1097 
L 2631 0 
L 2069 0 
z
M 2069 1613 
L 2069 3678 
L 634 1613 
L 2069 1613 
z
" transform="scale(0.015625)"/>
       </defs>
       <use xlink:href="#ArialMT-34"/>
       <use xlink:href="#ArialMT-30" x="55.615234"/>
       <use xlink:href="#ArialMT-30" x="111.230469"/>
      </g>
     </g>
    </g>
    <g id="xtick_4">
     <g id="text_4">
      <!-- 600 -->
      <g style="fill: #262626" transform="translate(295.5238 398.416719) scale(0.15 -0.15)">
       <defs>
        <path id="ArialMT-36" d="M 3184 3459 
L 2625 3416 
Q 2550 3747 2413 3897 
Q 2184 4138 1850 4138 
Q 1581 4138 1378 3988 
Q 1113 3794 959 3422 
Q 806 3050 800 2363 
Q 1003 2672 1297 2822 
Q 1591 2972 1913 2972 
Q 2475 2972 2870 2558 
Q 3266 2144 3266 1488 
Q 3266 1056 3080 686 
Q 2894 316 2569 119 
Q 2244 -78 1831 -78 
Q 1128 -78 684 439 
Q 241 956 241 2144 
Q 241 3472 731 4075 
Q 1159 4600 1884 4600 
Q 2425 4600 2770 4297 
Q 3116 3994 3184 3459 
z
M 888 1484 
Q 888 1194 1011 928 
Q 1134 663 1356 523 
Q 1578 384 1822 384 
Q 2178 384 2434 671 
Q 2691 959 2691 1453 
Q 2691 1928 2437 2201 
Q 2184 2475 1800 2475 
Q 1419 2475 1153 2201 
Q 888 1928 888 1484 
z
" transform="scale(0.015625)"/>
       </defs>
       <use xlink:href="#ArialMT-36"/>
       <use xlink:href="#ArialMT-30" x="55.615234"/>
       <use xlink:href="#ArialMT-30" x="111.230469"/>
      </g>
     </g>
    </g>
    <g id="xtick_5">
     <g id="text_5">
      <!-- 800 -->
      <g style="fill: #262626" transform="translate(356.691982 398.416719) scale(0.15 -0.15)">
       <defs>
        <path id="ArialMT-38" d="M 1131 2484 
Q 781 2613 612 2850 
Q 444 3088 444 3419 
Q 444 3919 803 4259 
Q 1163 4600 1759 4600 
Q 2359 4600 2725 4251 
Q 3091 3903 3091 3403 
Q 3091 3084 2923 2848 
Q 2756 2613 2416 2484 
Q 2838 2347 3058 2040 
Q 3278 1734 3278 1309 
Q 3278 722 2862 322 
Q 2447 -78 1769 -78 
Q 1091 -78 675 323 
Q 259 725 259 1325 
Q 259 1772 486 2073 
Q 713 2375 1131 2484 
z
M 1019 3438 
Q 1019 3113 1228 2906 
Q 1438 2700 1772 2700 
Q 2097 2700 2305 2904 
Q 2513 3109 2513 3406 
Q 2513 3716 2298 3927 
Q 2084 4138 1766 4138 
Q 1444 4138 1231 3931 
Q 1019 3725 1019 3438 
z
M 838 1322 
Q 838 1081 952 856 
Q 1066 631 1291 507 
Q 1516 384 1775 384 
Q 2178 384 2440 643 
Q 2703 903 2703 1303 
Q 2703 1709 2433 1975 
Q 2163 2241 1756 2241 
Q 1359 2241 1098 1978 
Q 838 1716 838 1322 
z
" transform="scale(0.015625)"/>
       </defs>
       <use xlink:href="#ArialMT-38"/>
       <use xlink:href="#ArialMT-30" x="55.615234"/>
       <use xlink:href="#ArialMT-30" x="111.230469"/>
      </g>
     </g>
    </g>
    <g id="xtick_6">
     <g id="text_6">
      <!-- 1000 -->
      <g style="fill: #262626" transform="translate(413.68946 398.416719) scale(0.15 -0.15)">
       <defs>
        <path id="ArialMT-31" d="M 2384 0 
L 1822 0 
L 1822 3584 
Q 1619 3391 1289 3197 
Q 959 3003 697 2906 
L 697 3450 
Q 1169 3672 1522 3987 
Q 1875 4303 2022 4600 
L 2384 4600 
L 2384 0 
z
" transform="scale(0.015625)"/>
       </defs>
       <use xlink:href="#ArialMT-31"/>
       <use xlink:href="#ArialMT-30" x="55.615234"/>
       <use xlink:href="#ArialMT-30" x="111.230469"/>
       <use xlink:href="#ArialMT-30" x="166.845703"/>
      </g>
     </g>
    </g>
    <g id="xtick_7">
     <g id="text_7">
      <!-- 1200 -->
      <g style="fill: #262626" transform="translate(474.857642 398.416719) scale(0.15 -0.15)">
       <use xlink:href="#ArialMT-31"/>
       <use xlink:href="#ArialMT-32" x="55.615234"/>
       <use xlink:href="#ArialMT-30" x="111.230469"/>
       <use xlink:href="#ArialMT-30" x="166.845703"/>
      </g>
     </g>
    </g>
    <g id="xtick_8">
     <g id="text_8">
      <!-- 1400 -->
      <g style="fill: #262626" transform="translate(536.025824 398.416719) scale(0.15 -0.15)">
       <use xlink:href="#ArialMT-31"/>
       <use xlink:href="#ArialMT-34" x="55.615234"/>
       <use xlink:href="#ArialMT-30" x="111.230469"/>
       <use xlink:href="#ArialMT-30" x="166.845703"/>
      </g>
     </g>
    </g>
    <g id="text_9">
     <!-- Time (s) -->
     <g style="fill: #262626" transform="translate(311.407891 416.3175) scale(0.15 -0.15)">
      <defs>
       <path id="ArialMT-54" d="M 1659 0 
L 1659 4041 
L 150 4041 
L 150 4581 
L 3781 4581 
L 3781 4041 
L 2266 4041 
L 2266 0 
L 1659 0 
z
" transform="scale(0.015625)"/>
       <path id="ArialMT-69" d="M 425 3934 
L 425 4581 
L 988 4581 
L 988 3934 
L 425 3934 
z
M 425 0 
L 425 3319 
L 988 3319 
L 988 0 
L 425 0 
z
" transform="scale(0.015625)"/>
       <path id="ArialMT-6d" d="M 422 0 
L 422 3319 
L 925 3319 
L 925 2853 
Q 1081 3097 1340 3245 
Q 1600 3394 1931 3394 
Q 2300 3394 2536 3241 
Q 2772 3088 2869 2813 
Q 3263 3394 3894 3394 
Q 4388 3394 4653 3120 
Q 4919 2847 4919 2278 
L 4919 0 
L 4359 0 
L 4359 2091 
Q 4359 2428 4304 2576 
Q 4250 2725 4106 2815 
Q 3963 2906 3769 2906 
Q 3419 2906 3187 2673 
Q 2956 2441 2956 1928 
L 2956 0 
L 2394 0 
L 2394 2156 
Q 2394 2531 2256 2718 
Q 2119 2906 1806 2906 
Q 1569 2906 1367 2781 
Q 1166 2656 1075 2415 
Q 984 2175 984 1722 
L 984 0 
L 422 0 
z
" transform="scale(0.015625)"/>
       <path id="ArialMT-65" d="M 2694 1069 
L 3275 997 
Q 3138 488 2766 206 
Q 2394 -75 1816 -75 
Q 1088 -75 661 373 
Q 234 822 234 1631 
Q 234 2469 665 2931 
Q 1097 3394 1784 3394 
Q 2450 3394 2872 2941 
Q 3294 2488 3294 1666 
Q 3294 1616 3291 1516 
L 816 1516 
Q 847 969 1125 678 
Q 1403 388 1819 388 
Q 2128 388 2347 550 
Q 2566 713 2694 1069 
z
M 847 1978 
L 2700 1978 
Q 2663 2397 2488 2606 
Q 2219 2931 1791 2931 
Q 1403 2931 1139 2672 
Q 875 2413 847 1978 
z
" transform="scale(0.015625)"/>
       <path id="ArialMT-20" transform="scale(0.015625)"/>
       <path id="ArialMT-28" d="M 1497 -1347 
Q 1031 -759 709 28 
Q 388 816 388 1659 
Q 388 2403 628 3084 
Q 909 3875 1497 4659 
L 1900 4659 
Q 1522 4009 1400 3731 
Q 1209 3300 1100 2831 
Q 966 2247 966 1656 
Q 966 153 1900 -1347 
L 1497 -1347 
z
" transform="scale(0.015625)"/>
       <path id="ArialMT-73" d="M 197 991 
L 753 1078 
Q 800 744 1014 566 
Q 1228 388 1613 388 
Q 2000 388 2187 545 
Q 2375 703 2375 916 
Q 2375 1106 2209 1216 
Q 2094 1291 1634 1406 
Q 1016 1563 777 1677 
Q 538 1791 414 1992 
Q 291 2194 291 2438 
Q 291 2659 392 2848 
Q 494 3038 669 3163 
Q 800 3259 1026 3326 
Q 1253 3394 1513 3394 
Q 1903 3394 2198 3281 
Q 2494 3169 2634 2976 
Q 2775 2784 2828 2463 
L 2278 2388 
Q 2241 2644 2061 2787 
Q 1881 2931 1553 2931 
Q 1166 2931 1000 2803 
Q 834 2675 834 2503 
Q 834 2394 903 2306 
Q 972 2216 1119 2156 
Q 1203 2125 1616 2013 
Q 2213 1853 2448 1751 
Q 2684 1650 2818 1456 
Q 2953 1263 2953 975 
Q 2953 694 2789 445 
Q 2625 197 2315 61 
Q 2006 -75 1616 -75 
Q 969 -75 630 194 
Q 291 463 197 991 
z
" transform="scale(0.015625)"/>
       <path id="ArialMT-29" d="M 791 -1347 
L 388 -1347 
Q 1322 153 1322 1656 
Q 1322 2244 1188 2822 
Q 1081 3291 891 3722 
Q 769 4003 388 4659 
L 791 4659 
Q 1378 3875 1659 3084 
Q 1900 2403 1900 1659 
Q 1900 816 1576 28 
Q 1253 -759 791 -1347 
z
" transform="scale(0.015625)"/>
      </defs>
      <use xlink:href="#ArialMT-54"/>
      <use xlink:href="#ArialMT-69" x="57.333984"/>
      <use xlink:href="#ArialMT-6d" x="79.550781"/>
      <use xlink:href="#ArialMT-65" x="162.851562"/>
      <use xlink:href="#ArialMT-20" x="218.466797"/>
      <use xlink:href="#ArialMT-28" x="246.25"/>
      <use xlink:href="#ArialMT-73" x="279.550781"/>
      <use xlink:href="#ArialMT-29" x="329.550781"/>
     </g>
    </g>
   </g>
   <g id="matplotlib.axis_2">
    <g id="ytick_1">
     <g id="text_10">
      <!-- −0.02 -->
      <g style="fill: #262626" transform="translate(22.027656 367.612905) scale(0.15 -0.15)">
       <defs>
        <path id="ArialMT-2212" d="M 3381 1997 
L 356 1997 
L 356 2522 
L 3381 2522 
L 3381 1997 
z
" transform="scale(0.015625)"/>
        <path id="ArialMT-2e" d="M 581 0 
L 581 641 
L 1222 641 
L 1222 0 
L 581 0 
z
" transform="scale(0.015625)"/>
       </defs>
       <use xlink:href="#ArialMT-2212"/>
       <use xlink:href="#ArialMT-30" x="58.398438"/>
       <use xlink:href="#ArialMT-2e" x="114.013672"/>
       <use xlink:href="#ArialMT-30" x="141.796875"/>
       <use xlink:href="#ArialMT-32" x="197.412109"/>
      </g>
     </g>
    </g>
    <g id="ytick_2">
     <g id="text_11">
      <!-- 0.00 -->
      <g style="fill: #262626" transform="translate(30.788594 308.311893) scale(0.15 -0.15)">
       <use xlink:href="#ArialMT-30"/>
       <use xlink:href="#ArialMT-2e" x="55.615234"/>
       <use xlink:href="#ArialMT-30" x="83.398438"/>
       <use xlink:href="#ArialMT-30" x="139.013672"/>
      </g>
     </g>
    </g>
    <g id="ytick_3">
     <g id="text_12">
      <!-- 0.02 -->
      <g style="fill: #262626" transform="translate(30.788594 249.010881) scale(0.15 -0.15)">
       <use xlink:href="#ArialMT-30"/>
       <use xlink:href="#ArialMT-2e" x="55.615234"/>
       <use xlink:href="#ArialMT-30" x="83.398438"/>
       <use xlink:href="#ArialMT-32" x="139.013672"/>
      </g>
     </g>
    </g>
    <g id="ytick_4">
     <g id="text_13">
      <!-- 0.04 -->
      <g style="fill: #262626" transform="translate(30.788594 189.709869) scale(0.15 -0.15)">
       <use xlink:href="#ArialMT-30"/>
       <use xlink:href="#ArialMT-2e" x="55.615234"/>
       <use xlink:href="#ArialMT-30" x="83.398438"/>
       <use xlink:href="#ArialMT-34" x="139.013672"/>
      </g>
     </g>
    </g>
    <g id="ytick_5">
     <g id="text_14">
      <!-- 0.06 -->
      <g style="fill: #262626" transform="translate(30.788594 130.408857) scale(0.15 -0.15)">
       <use xlink:href="#ArialMT-30"/>
       <use xlink:href="#ArialMT-2e" x="55.615234"/>
       <use xlink:href="#ArialMT-30" x="83.398438"/>
       <use xlink:href="#ArialMT-36" x="139.013672"/>
      </g>
     </g>
    </g>
    <g id="ytick_6">
     <g id="text_15">
      <!-- 0.08 -->
      <g style="fill: #262626" transform="translate(30.788594 71.107845) scale(0.15 -0.15)">
       <use xlink:href="#ArialMT-30"/>
       <use xlink:href="#ArialMT-2e" x="55.615234"/>
       <use xlink:href="#ArialMT-30" x="83.398438"/>
       <use xlink:href="#ArialMT-38" x="139.013672"/>
      </g>
     </g>
    </g>
    <g id="text_16">
     <!-- Divergence -->
     <g style="fill: #262626" transform="translate(14.870625 240.823594) rotate(-90) scale(0.15 -0.15)">
      <defs>
       <path id="ArialMT-44" d="M 494 0 
L 494 4581 
L 2072 4581 
Q 2606 4581 2888 4516 
Q 3281 4425 3559 4188 
Q 3922 3881 4101 3404 
Q 4281 2928 4281 2316 
Q 4281 1794 4159 1391 
Q 4038 988 3847 723 
Q 3656 459 3429 307 
Q 3203 156 2883 78 
Q 2563 0 2147 0 
L 494 0 
z
M 1100 541 
L 2078 541 
Q 2531 541 2789 625 
Q 3047 709 3200 863 
Q 3416 1078 3536 1442 
Q 3656 1806 3656 2325 
Q 3656 3044 3420 3430 
Q 3184 3816 2847 3947 
Q 2603 4041 2063 4041 
L 1100 4041 
L 1100 541 
z
" transform="scale(0.015625)"/>
       <path id="ArialMT-76" d="M 1344 0 
L 81 3319 
L 675 3319 
L 1388 1331 
Q 1503 1009 1600 663 
Q 1675 925 1809 1294 
L 2547 3319 
L 3125 3319 
L 1869 0 
L 1344 0 
z
" transform="scale(0.015625)"/>
       <path id="ArialMT-72" d="M 416 0 
L 416 3319 
L 922 3319 
L 922 2816 
Q 1116 3169 1280 3281 
Q 1444 3394 1641 3394 
Q 1925 3394 2219 3213 
L 2025 2691 
Q 1819 2813 1613 2813 
Q 1428 2813 1281 2702 
Q 1134 2591 1072 2394 
Q 978 2094 978 1738 
L 978 0 
L 416 0 
z
" transform="scale(0.015625)"/>
       <path id="ArialMT-67" d="M 319 -275 
L 866 -356 
Q 900 -609 1056 -725 
Q 1266 -881 1628 -881 
Q 2019 -881 2231 -725 
Q 2444 -569 2519 -288 
Q 2563 -116 2559 434 
Q 2191 0 1641 0 
Q 956 0 581 494 
Q 206 988 206 1678 
Q 206 2153 378 2554 
Q 550 2956 876 3175 
Q 1203 3394 1644 3394 
Q 2231 3394 2613 2919 
L 2613 3319 
L 3131 3319 
L 3131 450 
Q 3131 -325 2973 -648 
Q 2816 -972 2473 -1159 
Q 2131 -1347 1631 -1347 
Q 1038 -1347 672 -1080 
Q 306 -813 319 -275 
z
M 784 1719 
Q 784 1066 1043 766 
Q 1303 466 1694 466 
Q 2081 466 2343 764 
Q 2606 1063 2606 1700 
Q 2606 2309 2336 2618 
Q 2066 2928 1684 2928 
Q 1309 2928 1046 2623 
Q 784 2319 784 1719 
z
" transform="scale(0.015625)"/>
       <path id="ArialMT-6e" d="M 422 0 
L 422 3319 
L 928 3319 
L 928 2847 
Q 1294 3394 1984 3394 
Q 2284 3394 2536 3286 
Q 2788 3178 2913 3003 
Q 3038 2828 3088 2588 
Q 3119 2431 3119 2041 
L 3119 0 
L 2556 0 
L 2556 2019 
Q 2556 2363 2490 2533 
Q 2425 2703 2258 2804 
Q 2091 2906 1866 2906 
Q 1506 2906 1245 2678 
Q 984 2450 984 1813 
L 984 0 
L 422 0 
z
" transform="scale(0.015625)"/>
       <path id="ArialMT-63" d="M 2588 1216 
L 3141 1144 
Q 3050 572 2676 248 
Q 2303 -75 1759 -75 
Q 1078 -75 664 370 
Q 250 816 250 1647 
Q 250 2184 428 2587 
Q 606 2991 970 3192 
Q 1334 3394 1763 3394 
Q 2303 3394 2647 3120 
Q 2991 2847 3088 2344 
L 2541 2259 
Q 2463 2594 2264 2762 
Q 2066 2931 1784 2931 
Q 1359 2931 1093 2626 
Q 828 2322 828 1663 
Q 828 994 1084 691 
Q 1341 388 1753 388 
Q 2084 388 2306 591 
Q 2528 794 2588 1216 
z
" transform="scale(0.015625)"/>
      </defs>
      <use xlink:href="#ArialMT-44"/>
      <use xlink:href="#ArialMT-69" x="72.216797"/>
      <use xlink:href="#ArialMT-76" x="94.433594"/>
      <use xlink:href="#ArialMT-65" x="144.433594"/>
      <use xlink:href="#ArialMT-72" x="200.048828"/>
      <use xlink:href="#ArialMT-67" x="233.349609"/>
      <use xlink:href="#ArialMT-65" x="288.964844"/>
      <use xlink:href="#ArialMT-6e" x="344.580078"/>
      <use xlink:href="#ArialMT-63" x="400.195312"/>
      <use xlink:href="#ArialMT-65" x="450.195312"/>
     </g>
    </g>
   </g>
   <g id="PolyCollection_1">
    <defs>
     <path id="m0bca3a5bf1" d="M 93.947273 -165.709905 
L 93.947273 -156.551555 
L 106.180909 -136.199584 
L 118.414545 -155.22513 
L 130.648182 -176.19538 
L 142.881818 -191.262027 
L 155.115455 -206.933434 
L 167.349091 -209.212819 
L 179.582727 -161.017907 
L 191.816364 -168.503305 
L 204.05 -164.587283 
L 216.283636 -198.423634 
L 228.517273 -158.896697 
L 240.750909 -163.502493 
L 252.984545 -163.041616 
L 265.218182 -184.615548 
L 277.451818 -202.484651 
L 289.685455 -168.684873 
L 301.919091 -199.256153 
L 314.152727 -195.350377 
L 326.386364 -210.141255 
L 338.62 -203.30316 
L 350.853636 -201.315356 
L 363.087273 -182.505492 
L 375.320909 -158.902343 
L 387.554545 -180.718806 
L 399.788182 -194.467022 
L 412.021818 -217.907976 
L 424.255455 -190.729374 
L 436.489091 -141.000524 
L 448.722727 -163.356072 
L 460.956364 -186.903767 
L 473.19 -166.543634 
L 485.423636 -149.47821 
L 497.657273 -145.109196 
L 509.890909 -123.510877 
L 522.124545 -115.115633 
L 534.358182 -133.586371 
L 546.591818 -121.626347 
L 558.825455 -131.603675 
L 571.059091 -139.493697 
L 583.292727 -156.221659 
L 583.292727 -166.48288 
L 583.292727 -166.48288 
L 571.059091 -148.500779 
L 558.825455 -141.842425 
L 546.591818 -129.393507 
L 534.358182 -140.352053 
L 522.124545 -127.789819 
L 509.890909 -133.167559 
L 497.657273 -155.512803 
L 485.423636 -161.730166 
L 473.19 -177.738498 
L 460.956364 -201.444355 
L 448.722727 -173.424836 
L 436.489091 -155.046623 
L 424.255455 -207.990886 
L 412.021818 -237.129452 
L 399.788182 -213.145526 
L 387.554545 -196.385329 
L 375.320909 -171.650104 
L 363.087273 -198.470446 
L 350.853636 -219.902347 
L 338.62 -220.910345 
L 326.386364 -229.316837 
L 314.152727 -212.071666 
L 301.919091 -214.685398 
L 289.685455 -178.482244 
L 277.451818 -220.70068 
L 265.218182 -198.432956 
L 252.984545 -172.10353 
L 240.750909 -172.34266 
L 228.517273 -168.873548 
L 216.283636 -212.884819 
L 204.05 -172.565083 
L 191.816364 -178.47116 
L 179.582727 -170.41542 
L 167.349091 -225.42786 
L 155.115455 -223.546771 
L 142.881818 -205.623141 
L 130.648182 -187.761875 
L 118.414545 -164.714016 
L 106.180909 -143.175376 
L 93.947273 -165.709905 
z
" style="stroke: #0000ff; stroke-opacity: 0.1"/>
    </defs>
    <g clip-path="url(#peb53c2110c)">
     <use xlink:href="#m0bca3a5bf1" x="0" y="432" style="fill: #0000ff; fill-opacity: 0.1; stroke: #0000ff; stroke-opacity: 0.1"/>
    </g>
   </g>
   <g id="PolyCollection_2">
    <defs>
     <path id="mdae0b08f95" d="M 93.947273 -139.944802 
L 93.947273 -135.753861 
L 106.180909 -140.466349 
L 118.414545 -147.15611 
L 130.648182 -146.259978 
L 142.881818 -135.165126 
L 155.115455 -127.450713 
L 167.349091 -133.237932 
L 179.582727 -133.837308 
L 191.816364 -135.761832 
L 204.05 -131.618816 
L 216.283636 -117.507939 
L 228.517273 -128.083984 
L 240.750909 -127.163501 
L 252.984545 -109.469483 
L 265.218182 -108.638203 
L 277.451818 -121.077307 
L 289.685455 -112.008566 
L 301.919091 -114.607476 
L 314.152727 -127.316997 
L 326.386364 -120.679038 
L 338.62 -123.7207 
L 350.853636 -138.845072 
L 363.087273 -140.561312 
L 375.320909 -149.756519 
L 387.554545 -131.772692 
L 399.788182 -127.722942 
L 412.021818 -139.164558 
L 424.255455 -102.778354 
L 436.489091 -114.153438 
L 448.722727 -135.01677 
L 460.956364 -126.40129 
L 473.19 -128.670545 
L 485.423636 -136.359788 
L 497.657273 -131.930697 
L 509.890909 -129.788391 
L 522.124545 -125.152148 
L 534.358182 -131.436143 
L 546.591818 -139.726436 
L 558.825455 -123.995037 
L 571.059091 -126.827355 
L 583.292727 -124.626117 
L 583.292727 -129.254263 
L 583.292727 -129.254263 
L 571.059091 -131.521576 
L 558.825455 -128.149402 
L 546.591818 -143.328879 
L 534.358182 -134.765822 
L 522.124545 -128.674326 
L 509.890909 -133.519996 
L 497.657273 -135.977441 
L 485.423636 -140.952385 
L 473.19 -132.539524 
L 460.956364 -130.561074 
L 448.722727 -138.499284 
L 436.489091 -119.172674 
L 424.255455 -107.439793 
L 412.021818 -142.632036 
L 399.788182 -131.275324 
L 387.554545 -135.334809 
L 375.320909 -154.579008 
L 363.087273 -143.675302 
L 350.853636 -142.859152 
L 338.62 -127.925395 
L 326.386364 -125.486624 
L 314.152727 -130.49383 
L 301.919091 -120.10631 
L 289.685455 -117.765569 
L 277.451818 -125.538347 
L 265.218182 -114.67188 
L 252.984545 -114.760688 
L 240.750909 -130.969031 
L 228.517273 -131.910854 
L 216.283636 -122.183767 
L 204.05 -134.064797 
L 191.816364 -139.594012 
L 179.582727 -137.57994 
L 167.349091 -136.918021 
L 155.115455 -131.104693 
L 142.881818 -138.22901 
L 130.648182 -151.553212 
L 118.414545 -151.750935 
L 106.180909 -144.802259 
L 93.947273 -139.944802 
z
" style="stroke: #0000ff; stroke-opacity: 0.1"/>
    </defs>
    <g clip-path="url(#peb53c2110c)">
     <use xlink:href="#mdae0b08f95" x="0" y="432" style="fill: #0000ff; fill-opacity: 0.1; stroke: #0000ff; stroke-opacity: 0.1"/>
    </g>
   </g>
   <g id="PathCollection_1">
    <defs>
     <path id="m5fb95ccac8" d="M 0 -3 
L -0.673542 -0.927051 
L -2.85317 -0.927051 
L -1.089814 0.354102 
L -1.763356 2.427051 
L -0 1.145898 
L 1.763356 2.427051 
L 1.089814 0.354102 
L 2.85317 -0.927051 
L 0.673542 -0.927051 
z
" style="stroke: #0000ff"/>
    </defs>
    <g clip-path="url(#peb53c2110c)">
     <use xlink:href="#m5fb95ccac8" x="93.947273" y="332.594039" style="fill: #0000ff; stroke: #0000ff"/>
     <use xlink:href="#m5fb95ccac8" x="130.648182" y="332.594039" style="fill: #0000ff; stroke: #0000ff"/>
     <use xlink:href="#m5fb95ccac8" x="142.881818" y="332.594039" style="fill: #0000ff; stroke: #0000ff"/>
     <use xlink:href="#m5fb95ccac8" x="155.115455" y="332.594039" style="fill: #0000ff; stroke: #0000ff"/>
     <use xlink:href="#m5fb95ccac8" x="167.349091" y="332.594039" style="fill: #0000ff; stroke: #0000ff"/>
     <use xlink:href="#m5fb95ccac8" x="179.582727" y="332.594039" style="fill: #0000ff; stroke: #0000ff"/>
     <use xlink:href="#m5fb95ccac8" x="191.816364" y="332.594039" style="fill: #0000ff; stroke: #0000ff"/>
     <use xlink:href="#m5fb95ccac8" x="204.05" y="332.594039" style="fill: #0000ff; stroke: #0000ff"/>
     <use xlink:href="#m5fb95ccac8" x="216.283636" y="332.594039" style="fill: #0000ff; stroke: #0000ff"/>
     <use xlink:href="#m5fb95ccac8" x="228.517273" y="332.594039" style="fill: #0000ff; stroke: #0000ff"/>
     <use xlink:href="#m5fb95ccac8" x="240.750909" y="332.594039" style="fill: #0000ff; stroke: #0000ff"/>
     <use xlink:href="#m5fb95ccac8" x="252.984545" y="332.594039" style="fill: #0000ff; stroke: #0000ff"/>
     <use xlink:href="#m5fb95ccac8" x="265.218182" y="332.594039" style="fill: #0000ff; stroke: #0000ff"/>
     <use xlink:href="#m5fb95ccac8" x="277.451818" y="332.594039" style="fill: #0000ff; stroke: #0000ff"/>
     <use xlink:href="#m5fb95ccac8" x="289.685455" y="332.594039" style="fill: #0000ff; stroke: #0000ff"/>
     <use xlink:href="#m5fb95ccac8" x="301.919091" y="332.594039" style="fill: #0000ff; stroke: #0000ff"/>
     <use xlink:href="#m5fb95ccac8" x="314.152727" y="332.594039" style="fill: #0000ff; stroke: #0000ff"/>
     <use xlink:href="#m5fb95ccac8" x="326.386364" y="332.594039" style="fill: #0000ff; stroke: #0000ff"/>
     <use xlink:href="#m5fb95ccac8" x="338.62" y="332.594039" style="fill: #0000ff; stroke: #0000ff"/>
     <use xlink:href="#m5fb95ccac8" x="350.853636" y="332.594039" style="fill: #0000ff; stroke: #0000ff"/>
     <use xlink:href="#m5fb95ccac8" x="363.087273" y="332.594039" style="fill: #0000ff; stroke: #0000ff"/>
     <use xlink:href="#m5fb95ccac8" x="387.554545" y="332.594039" style="fill: #0000ff; stroke: #0000ff"/>
     <use xlink:href="#m5fb95ccac8" x="399.788182" y="332.594039" style="fill: #0000ff; stroke: #0000ff"/>
     <use xlink:href="#m5fb95ccac8" x="412.021818" y="332.594039" style="fill: #0000ff; stroke: #0000ff"/>
     <use xlink:href="#m5fb95ccac8" x="424.255455" y="332.594039" style="fill: #0000ff; stroke: #0000ff"/>
     <use xlink:href="#m5fb95ccac8" x="436.489091" y="332.594039" style="fill: #0000ff; stroke: #0000ff"/>
     <use xlink:href="#m5fb95ccac8" x="448.722727" y="332.594039" style="fill: #0000ff; stroke: #0000ff"/>
     <use xlink:href="#m5fb95ccac8" x="460.956364" y="332.594039" style="fill: #0000ff; stroke: #0000ff"/>
     <use xlink:href="#m5fb95ccac8" x="473.19" y="332.594039" style="fill: #0000ff; stroke: #0000ff"/>
     <use xlink:href="#m5fb95ccac8" x="546.591818" y="332.594039" style="fill: #0000ff; stroke: #0000ff"/>
     <use xlink:href="#m5fb95ccac8" x="583.292727" y="332.594039" style="fill: #0000ff; stroke: #0000ff"/>
    </g>
   </g>
   <g id="PolyCollection_3">
    <defs>
     <path id="m7ed806641d" d="M 93.947273 -130.920336 
L 93.947273 -128.55257 
L 106.180909 -129.800224 
L 118.414545 -130.340961 
L 130.648182 -132.046942 
L 142.881818 -141.019573 
L 155.115455 -153.490392 
L 167.349091 -168.679004 
L 179.582727 -178.229002 
L 191.816364 -181.347456 
L 204.05 -184.90803 
L 216.283636 -188.23648 
L 228.517273 -195.740129 
L 240.750909 -197.984074 
L 252.984545 -199.516302 
L 265.218182 -202.096564 
L 277.451818 -209.730785 
L 289.685455 -220.018208 
L 301.919091 -227.597064 
L 314.152727 -234.558794 
L 326.386364 -241.36357 
L 338.62 -250.33673 
L 350.853636 -256.268372 
L 363.087273 -263.610704 
L 375.320909 -266.705278 
L 387.554545 -267.690088 
L 399.788182 -269.007741 
L 412.021818 -271.386239 
L 424.255455 -276.037169 
L 436.489091 -300.570317 
L 448.722727 -320.064579 
L 460.956364 -320.167293 
L 473.19 -322.576599 
L 485.423636 -322.20807 
L 497.657273 -323.423968 
L 509.890909 -320.008824 
L 522.124545 -314.409259 
L 534.358182 -308.56374 
L 546.591818 -301.327734 
L 558.825455 -302.148421 
L 571.059091 -304.520474 
L 583.292727 -302.351146 
L 583.292727 -362.77423 
L 583.292727 -362.77423 
L 571.059091 -365.475898 
L 558.825455 -363.489573 
L 546.591818 -363.615193 
L 534.358182 -373.698897 
L 522.124545 -379.634087 
L 509.890909 -385.297411 
L 497.657273 -388.464545 
L 485.423636 -385.036474 
L 473.19 -383.155328 
L 460.956364 -378.304908 
L 448.722727 -376.382026 
L 436.489091 -355.718944 
L 424.255455 -328.966378 
L 412.021818 -322.20219 
L 399.788182 -319.191349 
L 387.554545 -316.231529 
L 375.320909 -313.978853 
L 363.087273 -309.631914 
L 350.853636 -299.761284 
L 338.62 -292.359605 
L 326.386364 -281.218792 
L 314.152727 -272.616436 
L 301.919091 -264.136808 
L 289.685455 -255.403716 
L 277.451818 -241.380244 
L 265.218182 -230.489388 
L 252.984545 -226.513908 
L 240.750909 -224.269414 
L 228.517273 -221.913487 
L 216.283636 -211.787176 
L 204.05 -207.29527 
L 191.816364 -202.944882 
L 179.582727 -199.205951 
L 167.349091 -187.435347 
L 155.115455 -168.478772 
L 142.881818 -152.465824 
L 130.648182 -140.102202 
L 118.414545 -135.001891 
L 106.180909 -134.557758 
L 93.947273 -130.920336 
z
" style="stroke: #ff0000; stroke-opacity: 0.1"/>
    </defs>
    <g clip-path="url(#peb53c2110c)">
     <use xlink:href="#m7ed806641d" x="0" y="432" style="fill: #ff0000; fill-opacity: 0.1; stroke: #ff0000; stroke-opacity: 0.1"/>
    </g>
   </g>
   <g id="PolyCollection_4">
    <defs>
     <path id="me55016f212" d="M 93.947273 -130.791092 
L 93.947273 -129.526301 
L 106.180909 -131.312933 
L 118.414545 -135.142725 
L 130.648182 -139.075165 
L 142.881818 -139.958347 
L 155.115455 -141.005315 
L 167.349091 -142.880164 
L 179.582727 -144.310242 
L 191.816364 -145.196728 
L 204.05 -145.836888 
L 216.283636 -145.127467 
L 228.517273 -148.118501 
L 240.750909 -149.782699 
L 252.984545 -149.109595 
L 265.218182 -152.319425 
L 277.451818 -156.327709 
L 289.685455 -160.289989 
L 301.919091 -163.922092 
L 314.152727 -164.970425 
L 326.386364 -165.790099 
L 338.62 -166.836964 
L 350.853636 -166.309435 
L 363.087273 -167.470459 
L 375.320909 -169.546977 
L 387.554545 -170.717557 
L 399.788182 -171.563853 
L 412.021818 -171.548775 
L 424.255455 -169.493387 
L 436.489091 -172.51866 
L 448.722727 -174.608374 
L 460.956364 -174.62755 
L 473.19 -175.12858 
L 485.423636 -175.212662 
L 497.657273 -174.101437 
L 509.890909 -171.996981 
L 522.124545 -170.693483 
L 534.358182 -170.312366 
L 546.591818 -170.516161 
L 558.825455 -169.603087 
L 571.059091 -164.525068 
L 583.292727 -162.561766 
L 583.292727 -176.069618 
L 583.292727 -176.069618 
L 571.059091 -177.899899 
L 558.825455 -183.438729 
L 546.591818 -184.235457 
L 534.358182 -184.359228 
L 522.124545 -185.036235 
L 509.890909 -185.972129 
L 497.657273 -188.186587 
L 485.423636 -189.457077 
L 473.19 -189.124376 
L 460.956364 -188.237007 
L 448.722727 -187.308457 
L 436.489091 -184.655049 
L 424.255455 -181.605259 
L 412.021818 -184.427082 
L 399.788182 -184.817878 
L 387.554545 -183.765322 
L 375.320909 -182.199983 
L 363.087273 -179.359739 
L 350.853636 -177.349818 
L 338.62 -177.473535 
L 326.386364 -175.987793 
L 314.152727 -174.892449 
L 301.919091 -174.209706 
L 289.685455 -170.495434 
L 277.451818 -165.811683 
L 265.218182 -160.916316 
L 252.984545 -157.496861 
L 240.750909 -158.591166 
L 228.517273 -156.55452 
L 216.283636 -152.973061 
L 204.05 -153.423016 
L 191.816364 -152.470847 
L 179.582727 -151.318262 
L 167.349091 -149.453656 
L 155.115455 -147.284946 
L 142.881818 -145.471622 
L 130.648182 -143.129852 
L 118.414545 -138.858048 
L 106.180909 -133.903639 
L 93.947273 -130.791092 
z
" style="stroke: #ff0000; stroke-opacity: 0.1"/>
    </defs>
    <g clip-path="url(#peb53c2110c)">
     <use xlink:href="#me55016f212" x="0" y="432" style="fill: #ff0000; fill-opacity: 0.1; stroke: #ff0000; stroke-opacity: 0.1"/>
    </g>
   </g>
   <g id="PathCollection_2">
    <defs>
     <path id="m7e2b70e7e2" d="M 0 -3 
L -0.673542 -0.927051 
L -2.85317 -0.927051 
L -1.089814 0.354102 
L -1.763356 2.427051 
L -0 1.145898 
L 1.763356 2.427051 
L 1.089814 0.354102 
L 2.85317 -0.927051 
L 0.673542 -0.927051 
z
" style="stroke: #ff0000"/>
    </defs>
    <g clip-path="url(#peb53c2110c)">
     <use xlink:href="#m7e2b70e7e2" x="179.582727" y="362.244545" style="fill: #ff0000; stroke: #ff0000"/>
     <use xlink:href="#m7e2b70e7e2" x="191.816364" y="362.244545" style="fill: #ff0000; stroke: #ff0000"/>
     <use xlink:href="#m7e2b70e7e2" x="204.05" y="362.244545" style="fill: #ff0000; stroke: #ff0000"/>
     <use xlink:href="#m7e2b70e7e2" x="216.283636" y="362.244545" style="fill: #ff0000; stroke: #ff0000"/>
     <use xlink:href="#m7e2b70e7e2" x="228.517273" y="362.244545" style="fill: #ff0000; stroke: #ff0000"/>
     <use xlink:href="#m7e2b70e7e2" x="240.750909" y="362.244545" style="fill: #ff0000; stroke: #ff0000"/>
     <use xlink:href="#m7e2b70e7e2" x="252.984545" y="362.244545" style="fill: #ff0000; stroke: #ff0000"/>
     <use xlink:href="#m7e2b70e7e2" x="265.218182" y="362.244545" style="fill: #ff0000; stroke: #ff0000"/>
     <use xlink:href="#m7e2b70e7e2" x="277.451818" y="362.244545" style="fill: #ff0000; stroke: #ff0000"/>
     <use xlink:href="#m7e2b70e7e2" x="289.685455" y="362.244545" style="fill: #ff0000; stroke: #ff0000"/>
     <use xlink:href="#m7e2b70e7e2" x="301.919091" y="362.244545" style="fill: #ff0000; stroke: #ff0000"/>
     <use xlink:href="#m7e2b70e7e2" x="314.152727" y="362.244545" style="fill: #ff0000; stroke: #ff0000"/>
     <use xlink:href="#m7e2b70e7e2" x="326.386364" y="362.244545" style="fill: #ff0000; stroke: #ff0000"/>
     <use xlink:href="#m7e2b70e7e2" x="338.62" y="362.244545" style="fill: #ff0000; stroke: #ff0000"/>
     <use xlink:href="#m7e2b70e7e2" x="350.853636" y="362.244545" style="fill: #ff0000; stroke: #ff0000"/>
     <use xlink:href="#m7e2b70e7e2" x="363.087273" y="362.244545" style="fill: #ff0000; stroke: #ff0000"/>
     <use xlink:href="#m7e2b70e7e2" x="375.320909" y="362.244545" style="fill: #ff0000; stroke: #ff0000"/>
     <use xlink:href="#m7e2b70e7e2" x="387.554545" y="362.244545" style="fill: #ff0000; stroke: #ff0000"/>
     <use xlink:href="#m7e2b70e7e2" x="399.788182" y="362.244545" style="fill: #ff0000; stroke: #ff0000"/>
     <use xlink:href="#m7e2b70e7e2" x="412.021818" y="362.244545" style="fill: #ff0000; stroke: #ff0000"/>
     <use xlink:href="#m7e2b70e7e2" x="424.255455" y="362.244545" style="fill: #ff0000; stroke: #ff0000"/>
     <use xlink:href="#m7e2b70e7e2" x="436.489091" y="362.244545" style="fill: #ff0000; stroke: #ff0000"/>
     <use xlink:href="#m7e2b70e7e2" x="448.722727" y="362.244545" style="fill: #ff0000; stroke: #ff0000"/>
     <use xlink:href="#m7e2b70e7e2" x="460.956364" y="362.244545" style="fill: #ff0000; stroke: #ff0000"/>
     <use xlink:href="#m7e2b70e7e2" x="473.19" y="362.244545" style="fill: #ff0000; stroke: #ff0000"/>
     <use xlink:href="#m7e2b70e7e2" x="485.423636" y="362.244545" style="fill: #ff0000; stroke: #ff0000"/>
     <use xlink:href="#m7e2b70e7e2" x="497.657273" y="362.244545" style="fill: #ff0000; stroke: #ff0000"/>
     <use xlink:href="#m7e2b70e7e2" x="509.890909" y="362.244545" style="fill: #ff0000; stroke: #ff0000"/>
     <use xlink:href="#m7e2b70e7e2" x="522.124545" y="362.244545" style="fill: #ff0000; stroke: #ff0000"/>
     <use xlink:href="#m7e2b70e7e2" x="534.358182" y="362.244545" style="fill: #ff0000; stroke: #ff0000"/>
     <use xlink:href="#m7e2b70e7e2" x="546.591818" y="362.244545" style="fill: #ff0000; stroke: #ff0000"/>
     <use xlink:href="#m7e2b70e7e2" x="558.825455" y="362.244545" style="fill: #ff0000; stroke: #ff0000"/>
     <use xlink:href="#m7e2b70e7e2" x="571.059091" y="362.244545" style="fill: #ff0000; stroke: #ff0000"/>
     <use xlink:href="#m7e2b70e7e2" x="583.292727" y="362.244545" style="fill: #ff0000; stroke: #ff0000"/>
    </g>
   </g>
   <g id="line2d_1">
    <path d="M 93.947273 270.86927 
L 106.180909 292.31252 
L 118.414545 272.030427 
L 130.648182 250.021372 
L 142.881818 233.557416 
L 155.115455 216.759898 
L 167.349091 214.67966 
L 179.582727 266.283336 
L 191.816364 258.512768 
L 204.05 263.423817 
L 216.283636 226.345773 
L 228.517273 268.114878 
L 240.750909 264.077424 
L 252.984545 264.427427 
L 265.218182 240.475748 
L 277.451818 220.407334 
L 289.685455 258.416441 
L 301.919091 225.029225 
L 314.152727 228.288979 
L 326.386364 212.270954 
L 338.62 219.893248 
L 350.853636 221.391148 
L 363.087273 241.512031 
L 375.320909 266.723777 
L 387.554545 243.447933 
L 399.788182 228.193726 
L 412.021818 204.481286 
L 424.255455 232.63987 
L 436.489091 283.976426 
L 448.722727 263.609546 
L 460.956364 237.825939 
L 473.19 259.858934 
L 485.423636 276.395812 
L 497.657273 281.689 
L 509.890909 303.660782 
L 522.124545 310.547274 
L 534.358182 295.030788 
L 546.591818 306.490073 
L 558.825455 295.27695 
L 571.059091 288.002762 
L 583.292727 270.64773 
" clip-path="url(#peb53c2110c)" style="fill: none; stroke: #0000ff; stroke-width: 2; stroke-linecap: round"/>
   </g>
   <g id="line2d_2">
    <path d="M 93.947273 294.150668 
L 106.180909 289.365696 
L 118.414545 282.546478 
L 130.648182 283.093405 
L 142.881818 295.302932 
L 155.115455 302.722297 
L 167.349091 296.922023 
L 179.582727 296.291376 
L 191.816364 294.322078 
L 204.05 299.158193 
L 216.283636 312.154147 
L 228.517273 302.002581 
L 240.750909 302.933734 
L 252.984545 319.884915 
L 265.218182 320.344958 
L 277.451818 308.692173 
L 289.685455 317.112932 
L 301.919091 314.643107 
L 314.152727 303.094587 
L 326.386364 308.917169 
L 338.62 306.176953 
L 350.853636 291.147888 
L 363.087273 289.881693 
L 375.320909 279.832237 
L 387.554545 298.446249 
L 399.788182 302.500867 
L 412.021818 291.101703 
L 424.255455 326.890927 
L 436.489091 315.336944 
L 448.722727 295.241973 
L 460.956364 303.518818 
L 473.19 301.394965 
L 485.423636 293.343913 
L 497.657273 298.045931 
L 509.890909 300.345806 
L 522.124545 305.086763 
L 534.358182 298.899018 
L 546.591818 290.472343 
L 558.825455 305.927781 
L 571.059091 302.825534 
L 583.292727 305.05981 
" clip-path="url(#peb53c2110c)" style="fill: none; stroke-dasharray: 7.4,3.2; stroke-dashoffset: 0; stroke: #0000ff; stroke-width: 2"/>
   </g>
   <g id="line2d_3">
    <path d="M 124.531364 378.18 
L 124.531364 27.6 
" clip-path="url(#peb53c2110c)" style="fill: none; stroke-dasharray: 5.55,2.4; stroke-dashoffset: 0; stroke: #c44e52; stroke-width: 1.5"/>
   </g>
   <g id="line2d_4">
    <path d="M 430.372273 378.18 
L 430.372273 27.6 
" clip-path="url(#peb53c2110c)" style="fill: none; stroke-dasharray: 5.55,2.4; stroke-dashoffset: 0; stroke: #55a868; stroke-width: 1.5"/>
   </g>
   <g id="line2d_5">
    <path d="M 93.947273 302.263547 
L 106.180909 299.821009 
L 118.414545 299.328574 
L 130.648182 295.925428 
L 142.881818 285.257301 
L 155.115455 271.015418 
L 167.349091 253.942825 
L 179.582727 243.282524 
L 191.816364 239.853831 
L 204.05 235.89835 
L 216.283636 231.988172 
L 228.517273 223.173192 
L 240.750909 220.873256 
L 252.984545 218.984895 
L 265.218182 215.707024 
L 277.451818 206.444485 
L 289.685455 194.289038 
L 301.919091 186.133064 
L 314.152727 178.412385 
L 326.386364 170.708819 
L 338.62 160.651832 
L 350.853636 153.985172 
L 363.087273 145.378691 
L 375.320909 141.657935 
L 387.554545 140.039191 
L 399.788182 137.900455 
L 412.021818 135.205785 
L 424.255455 129.498226 
L 436.489091 103.85537 
L 448.722727 83.776698 
L 460.956364 82.7639 
L 473.19 79.134036 
L 485.423636 78.377728 
L 497.657273 76.055743 
L 509.890909 79.346882 
L 522.124545 84.978327 
L 534.358182 90.868681 
L 546.591818 99.528536 
L 558.825455 99.181003 
L 571.059091 97.001814 
L 583.292727 99.437312 
" clip-path="url(#peb53c2110c)" style="fill: none; stroke: #ff0000; stroke-width: 2; stroke-linecap: round"/>
   </g>
   <g id="line2d_6">
    <path d="M 93.947273 301.841303 
L 106.180909 299.391714 
L 118.414545 294.999614 
L 130.648182 290.897491 
L 142.881818 289.285015 
L 155.115455 287.85487 
L 167.349091 285.83309 
L 179.582727 284.185748 
L 191.816364 283.166212 
L 204.05 282.370048 
L 216.283636 282.949736 
L 228.517273 279.66349 
L 240.750909 277.813068 
L 252.984545 278.696772 
L 265.218182 275.38213 
L 277.451818 270.930304 
L 289.685455 266.607288 
L 301.919091 262.934101 
L 314.152727 262.068563 
L 326.386364 261.111054 
L 338.62 259.844751 
L 350.853636 260.170373 
L 363.087273 258.584901 
L 375.320909 256.12652 
L 387.554545 254.75856 
L 399.788182 253.809134 
L 412.021818 254.012072 
L 424.255455 256.450677 
L 436.489091 253.413145 
L 448.722727 251.041584 
L 460.956364 250.567721 
L 473.19 249.873522 
L 485.423636 249.665131 
L 497.657273 250.855988 
L 509.890909 253.015445 
L 522.124545 254.135141 
L 534.358182 254.664203 
L 546.591818 254.624191 
L 558.825455 255.479092 
L 571.059091 260.787516 
L 583.292727 262.684308 
" clip-path="url(#peb53c2110c)" style="fill: none; stroke-dasharray: 7.4,3.2; stroke-dashoffset: 0; stroke: #ff0000; stroke-width: 2"/>
   </g>
   <g id="line2d_7">
    <path d="M 124.531364 378.18 
L 124.531364 27.6 
" clip-path="url(#peb53c2110c)" style="fill: none; stroke-dasharray: 5.55,2.4; stroke-dashoffset: 0; stroke: #c44e52; stroke-width: 1.5"/>
   </g>
   <g id="line2d_8">
    <path d="M 430.372273 378.18 
L 430.372273 27.6 
" clip-path="url(#peb53c2110c)" style="fill: none; stroke-dasharray: 5.55,2.4; stroke-dashoffset: 0; stroke: #55a868; stroke-width: 1.5"/>
   </g>
   <g id="patch_3">
    <path d="M 69.48 378.18 
L 69.48 27.6 
" style="fill: none; stroke: #cccccc; stroke-width: 1.5; stroke-linejoin: miter; stroke-linecap: square"/>
   </g>
   <g id="patch_4">
    <path d="M 69.48 378.18 
L 607.76 378.18 
" style="fill: none; stroke: #cccccc; stroke-width: 1.5; stroke-linejoin: miter; stroke-linecap: square"/>
   </g>
   <g id="text_17">
    <!-- Divergence Comparison: Original vs Shuffled -->
    <g style="fill: #262626" transform="translate(189.1075 21.6) scale(0.15 -0.15)">
     <defs>
      <path id="ArialMT-43" d="M 3763 1606 
L 4369 1453 
Q 4178 706 3683 314 
Q 3188 -78 2472 -78 
Q 1731 -78 1267 223 
Q 803 525 561 1097 
Q 319 1669 319 2325 
Q 319 3041 592 3573 
Q 866 4106 1370 4382 
Q 1875 4659 2481 4659 
Q 3169 4659 3637 4309 
Q 4106 3959 4291 3325 
L 3694 3184 
Q 3534 3684 3231 3912 
Q 2928 4141 2469 4141 
Q 1941 4141 1586 3887 
Q 1231 3634 1087 3207 
Q 944 2781 944 2328 
Q 944 1744 1114 1308 
Q 1284 872 1643 656 
Q 2003 441 2422 441 
Q 2931 441 3284 734 
Q 3638 1028 3763 1606 
z
" transform="scale(0.015625)"/>
      <path id="ArialMT-6f" d="M 213 1659 
Q 213 2581 725 3025 
Q 1153 3394 1769 3394 
Q 2453 3394 2887 2945 
Q 3322 2497 3322 1706 
Q 3322 1066 3130 698 
Q 2938 331 2570 128 
Q 2203 -75 1769 -75 
Q 1072 -75 642 372 
Q 213 819 213 1659 
z
M 791 1659 
Q 791 1022 1069 705 
Q 1347 388 1769 388 
Q 2188 388 2466 706 
Q 2744 1025 2744 1678 
Q 2744 2294 2464 2611 
Q 2184 2928 1769 2928 
Q 1347 2928 1069 2612 
Q 791 2297 791 1659 
z
" transform="scale(0.015625)"/>
      <path id="ArialMT-70" d="M 422 -1272 
L 422 3319 
L 934 3319 
L 934 2888 
Q 1116 3141 1344 3267 
Q 1572 3394 1897 3394 
Q 2322 3394 2647 3175 
Q 2972 2956 3137 2557 
Q 3303 2159 3303 1684 
Q 3303 1175 3120 767 
Q 2938 359 2589 142 
Q 2241 -75 1856 -75 
Q 1575 -75 1351 44 
Q 1128 163 984 344 
L 984 -1272 
L 422 -1272 
z
M 931 1641 
Q 931 1000 1190 694 
Q 1450 388 1819 388 
Q 2194 388 2461 705 
Q 2728 1022 2728 1688 
Q 2728 2322 2467 2637 
Q 2206 2953 1844 2953 
Q 1484 2953 1207 2617 
Q 931 2281 931 1641 
z
" transform="scale(0.015625)"/>
      <path id="ArialMT-61" d="M 2588 409 
Q 2275 144 1986 34 
Q 1697 -75 1366 -75 
Q 819 -75 525 192 
Q 231 459 231 875 
Q 231 1119 342 1320 
Q 453 1522 633 1644 
Q 813 1766 1038 1828 
Q 1203 1872 1538 1913 
Q 2219 1994 2541 2106 
Q 2544 2222 2544 2253 
Q 2544 2597 2384 2738 
Q 2169 2928 1744 2928 
Q 1347 2928 1158 2789 
Q 969 2650 878 2297 
L 328 2372 
Q 403 2725 575 2942 
Q 747 3159 1072 3276 
Q 1397 3394 1825 3394 
Q 2250 3394 2515 3294 
Q 2781 3194 2906 3042 
Q 3031 2891 3081 2659 
Q 3109 2516 3109 2141 
L 3109 1391 
Q 3109 606 3145 398 
Q 3181 191 3288 0 
L 2700 0 
Q 2613 175 2588 409 
z
M 2541 1666 
Q 2234 1541 1622 1453 
Q 1275 1403 1131 1340 
Q 988 1278 909 1158 
Q 831 1038 831 891 
Q 831 666 1001 516 
Q 1172 366 1500 366 
Q 1825 366 2078 508 
Q 2331 650 2450 897 
Q 2541 1088 2541 1459 
L 2541 1666 
z
" transform="scale(0.015625)"/>
      <path id="ArialMT-3a" d="M 578 2678 
L 578 3319 
L 1219 3319 
L 1219 2678 
L 578 2678 
z
M 578 0 
L 578 641 
L 1219 641 
L 1219 0 
L 578 0 
z
" transform="scale(0.015625)"/>
      <path id="ArialMT-4f" d="M 309 2231 
Q 309 3372 921 4017 
Q 1534 4663 2503 4663 
Q 3138 4663 3647 4359 
Q 4156 4056 4423 3514 
Q 4691 2972 4691 2284 
Q 4691 1588 4409 1038 
Q 4128 488 3612 205 
Q 3097 -78 2500 -78 
Q 1853 -78 1343 234 
Q 834 547 571 1087 
Q 309 1628 309 2231 
z
M 934 2222 
Q 934 1394 1379 917 
Q 1825 441 2497 441 
Q 3181 441 3623 922 
Q 4066 1403 4066 2288 
Q 4066 2847 3877 3264 
Q 3688 3681 3323 3911 
Q 2959 4141 2506 4141 
Q 1863 4141 1398 3698 
Q 934 3256 934 2222 
z
" transform="scale(0.015625)"/>
      <path id="ArialMT-6c" d="M 409 0 
L 409 4581 
L 972 4581 
L 972 0 
L 409 0 
z
" transform="scale(0.015625)"/>
      <path id="ArialMT-53" d="M 288 1472 
L 859 1522 
Q 900 1178 1048 958 
Q 1197 738 1509 602 
Q 1822 466 2213 466 
Q 2559 466 2825 569 
Q 3091 672 3220 851 
Q 3350 1031 3350 1244 
Q 3350 1459 3225 1620 
Q 3100 1781 2813 1891 
Q 2628 1963 1997 2114 
Q 1366 2266 1113 2400 
Q 784 2572 623 2826 
Q 463 3081 463 3397 
Q 463 3744 659 4045 
Q 856 4347 1234 4503 
Q 1613 4659 2075 4659 
Q 2584 4659 2973 4495 
Q 3363 4331 3572 4012 
Q 3781 3694 3797 3291 
L 3216 3247 
Q 3169 3681 2898 3903 
Q 2628 4125 2100 4125 
Q 1550 4125 1298 3923 
Q 1047 3722 1047 3438 
Q 1047 3191 1225 3031 
Q 1400 2872 2139 2705 
Q 2878 2538 3153 2413 
Q 3553 2228 3743 1945 
Q 3934 1663 3934 1294 
Q 3934 928 3725 604 
Q 3516 281 3123 101 
Q 2731 -78 2241 -78 
Q 1619 -78 1198 103 
Q 778 284 539 648 
Q 300 1013 288 1472 
z
" transform="scale(0.015625)"/>
      <path id="ArialMT-68" d="M 422 0 
L 422 4581 
L 984 4581 
L 984 2938 
Q 1378 3394 1978 3394 
Q 2347 3394 2619 3248 
Q 2891 3103 3008 2847 
Q 3125 2591 3125 2103 
L 3125 0 
L 2563 0 
L 2563 2103 
Q 2563 2525 2380 2717 
Q 2197 2909 1863 2909 
Q 1613 2909 1392 2779 
Q 1172 2650 1078 2428 
Q 984 2206 984 1816 
L 984 0 
L 422 0 
z
" transform="scale(0.015625)"/>
      <path id="ArialMT-75" d="M 2597 0 
L 2597 488 
Q 2209 -75 1544 -75 
Q 1250 -75 995 37 
Q 741 150 617 320 
Q 494 491 444 738 
Q 409 903 409 1263 
L 409 3319 
L 972 3319 
L 972 1478 
Q 972 1038 1006 884 
Q 1059 663 1231 536 
Q 1403 409 1656 409 
Q 1909 409 2131 539 
Q 2353 669 2445 892 
Q 2538 1116 2538 1541 
L 2538 3319 
L 3100 3319 
L 3100 0 
L 2597 0 
z
" transform="scale(0.015625)"/>
      <path id="ArialMT-66" d="M 556 0 
L 556 2881 
L 59 2881 
L 59 3319 
L 556 3319 
L 556 3672 
Q 556 4006 616 4169 
Q 697 4388 901 4523 
Q 1106 4659 1475 4659 
Q 1713 4659 2000 4603 
L 1916 4113 
Q 1741 4144 1584 4144 
Q 1328 4144 1222 4034 
Q 1116 3925 1116 3625 
L 1116 3319 
L 1763 3319 
L 1763 2881 
L 1116 2881 
L 1116 0 
L 556 0 
z
" transform="scale(0.015625)"/>
      <path id="ArialMT-64" d="M 2575 0 
L 2575 419 
Q 2259 -75 1647 -75 
Q 1250 -75 917 144 
Q 584 363 401 755 
Q 219 1147 219 1656 
Q 219 2153 384 2558 
Q 550 2963 881 3178 
Q 1213 3394 1622 3394 
Q 1922 3394 2156 3267 
Q 2391 3141 2538 2938 
L 2538 4581 
L 3097 4581 
L 3097 0 
L 2575 0 
z
M 797 1656 
Q 797 1019 1065 703 
Q 1334 388 1700 388 
Q 2069 388 2326 689 
Q 2584 991 2584 1609 
Q 2584 2291 2321 2609 
Q 2059 2928 1675 2928 
Q 1300 2928 1048 2622 
Q 797 2316 797 1656 
z
" transform="scale(0.015625)"/>
     </defs>
     <use xlink:href="#ArialMT-44"/>
     <use xlink:href="#ArialMT-69" x="72.216797"/>
     <use xlink:href="#ArialMT-76" x="94.433594"/>
     <use xlink:href="#ArialMT-65" x="144.433594"/>
     <use xlink:href="#ArialMT-72" x="200.048828"/>
     <use xlink:href="#ArialMT-67" x="233.349609"/>
     <use xlink:href="#ArialMT-65" x="288.964844"/>
     <use xlink:href="#ArialMT-6e" x="344.580078"/>
     <use xlink:href="#ArialMT-63" x="400.195312"/>
     <use xlink:href="#ArialMT-65" x="450.195312"/>
     <use xlink:href="#ArialMT-20" x="505.810547"/>
     <use xlink:href="#ArialMT-43" x="533.59375"/>
     <use xlink:href="#ArialMT-6f" x="605.810547"/>
     <use xlink:href="#ArialMT-6d" x="661.425781"/>
     <use xlink:href="#ArialMT-70" x="744.726562"/>
     <use xlink:href="#ArialMT-61" x="800.341797"/>
     <use xlink:href="#ArialMT-72" x="855.957031"/>
     <use xlink:href="#ArialMT-69" x="889.257812"/>
     <use xlink:href="#ArialMT-73" x="911.474609"/>
     <use xlink:href="#ArialMT-6f" x="961.474609"/>
     <use xlink:href="#ArialMT-6e" x="1017.089844"/>
     <use xlink:href="#ArialMT-3a" x="1072.705078"/>
     <use xlink:href="#ArialMT-20" x="1100.488281"/>
     <use xlink:href="#ArialMT-4f" x="1128.271484"/>
     <use xlink:href="#ArialMT-72" x="1206.054688"/>
     <use xlink:href="#ArialMT-69" x="1239.355469"/>
     <use xlink:href="#ArialMT-67" x="1261.572266"/>
     <use xlink:href="#ArialMT-69" x="1317.1875"/>
     <use xlink:href="#ArialMT-6e" x="1339.404297"/>
     <use xlink:href="#ArialMT-61" x="1395.019531"/>
     <use xlink:href="#ArialMT-6c" x="1450.634766"/>
     <use xlink:href="#ArialMT-20" x="1472.851562"/>
     <use xlink:href="#ArialMT-76" x="1500.634766"/>
     <use xlink:href="#ArialMT-73" x="1550.634766"/>
     <use xlink:href="#ArialMT-20" x="1600.634766"/>
     <use xlink:href="#ArialMT-53" x="1628.417969"/>
     <use xlink:href="#ArialMT-68" x="1695.117188"/>
     <use xlink:href="#ArialMT-75" x="1750.732422"/>
     <use xlink:href="#ArialMT-66" x="1806.347656"/>
     <use xlink:href="#ArialMT-66" x="1832.380859"/>
     <use xlink:href="#ArialMT-6c" x="1860.164062"/>
     <use xlink:href="#ArialMT-65" x="1882.380859"/>
     <use xlink:href="#ArialMT-64" x="1937.996094"/>
    </g>
   </g>
   <g id="legend_1">
    <g id="patch_5">
     <path d="M 615.46 259.555469 
L 705.061875 259.555469 
Q 707.261875 259.555469 707.261875 257.355469 
L 707.261875 148.424531 
Q 707.261875 146.224531 705.061875 146.224531 
L 615.46 146.224531 
Q 613.26 146.224531 613.26 148.424531 
L 613.26 257.355469 
Q 613.26 259.555469 615.46 259.555469 
z
" style="fill: #ffffff; opacity: 0.8; stroke: #cccccc; stroke-linejoin: miter"/>
    </g>
    <g id="line2d_9">
     <path d="M 617.66 154.789062 
L 628.66 154.789062 
L 639.66 154.789062 
" style="fill: none; stroke: #0000ff; stroke-width: 2; stroke-linecap: round"/>
    </g>
    <g id="text_18">
     <!-- Original -->
     <g style="fill: #262626" transform="translate(648.46 158.639062) scale(0.11 -0.11)">
      <use xlink:href="#ArialMT-4f"/>
      <use xlink:href="#ArialMT-72" x="77.783203"/>
      <use xlink:href="#ArialMT-69" x="111.083984"/>
      <use xlink:href="#ArialMT-67" x="133.300781"/>
      <use xlink:href="#ArialMT-69" x="188.916016"/>
      <use xlink:href="#ArialMT-6e" x="211.132812"/>
      <use xlink:href="#ArialMT-61" x="266.748047"/>
      <use xlink:href="#ArialMT-6c" x="322.363281"/>
     </g>
    </g>
    <g id="line2d_10">
     <path d="M 617.66 170.61875 
L 628.66 170.61875 
L 639.66 170.61875 
" style="fill: none; stroke-dasharray: 7.4,3.2; stroke-dashoffset: 0; stroke: #0000ff; stroke-width: 2"/>
    </g>
    <g id="text_19">
     <!-- Original -->
     <g style="fill: #262626" transform="translate(648.46 174.46875) scale(0.11 -0.11)">
      <use xlink:href="#ArialMT-4f"/>
      <use xlink:href="#ArialMT-72" x="77.783203"/>
      <use xlink:href="#ArialMT-69" x="111.083984"/>
      <use xlink:href="#ArialMT-67" x="133.300781"/>
      <use xlink:href="#ArialMT-69" x="188.916016"/>
      <use xlink:href="#ArialMT-6e" x="211.132812"/>
      <use xlink:href="#ArialMT-61" x="266.748047"/>
      <use xlink:href="#ArialMT-6c" x="322.363281"/>
     </g>
    </g>
    <g id="PathCollection_3">
     <g>
      <use xlink:href="#m5fb95ccac8" x="628.66" y="187.302656" style="fill: #0000ff; stroke: #0000ff"/>
     </g>
    </g>
    <g id="text_20">
     <!-- p &lt; 0.001 -->
     <g style="fill: #262626" transform="translate(648.46 190.190156) scale(0.11 -0.11)">
      <defs>
       <path id="ArialMT-3c" d="M 350 2003 
L 350 2528 
L 3384 3809 
L 3384 3250 
L 978 2263 
L 3384 1266 
L 3384 706 
L 350 2003 
z
" transform="scale(0.015625)"/>
      </defs>
      <use xlink:href="#ArialMT-70"/>
      <use xlink:href="#ArialMT-20" x="55.615234"/>
      <use xlink:href="#ArialMT-3c" x="83.398438"/>
      <use xlink:href="#ArialMT-20" x="141.796875"/>
      <use xlink:href="#ArialMT-30" x="169.580078"/>
      <use xlink:href="#ArialMT-2e" x="225.195312"/>
      <use xlink:href="#ArialMT-30" x="252.978516"/>
      <use xlink:href="#ArialMT-30" x="308.59375"/>
      <use xlink:href="#ArialMT-31" x="364.208984"/>
     </g>
    </g>
    <g id="line2d_11">
     <path d="M 617.66 201.9 
L 628.66 201.9 
L 639.66 201.9 
" style="fill: none; stroke-dasharray: 5.55,2.4; stroke-dashoffset: 0; stroke: #c44e52; stroke-width: 1.5"/>
    </g>
    <g id="text_21">
     <!-- Stim Onset -->
     <g style="fill: #262626" transform="translate(648.46 205.75) scale(0.11 -0.11)">
      <defs>
       <path id="ArialMT-74" d="M 1650 503 
L 1731 6 
Q 1494 -44 1306 -44 
Q 1000 -44 831 53 
Q 663 150 594 308 
Q 525 466 525 972 
L 525 2881 
L 113 2881 
L 113 3319 
L 525 3319 
L 525 4141 
L 1084 4478 
L 1084 3319 
L 1650 3319 
L 1650 2881 
L 1084 2881 
L 1084 941 
Q 1084 700 1114 631 
Q 1144 563 1211 522 
Q 1278 481 1403 481 
Q 1497 481 1650 503 
z
" transform="scale(0.015625)"/>
      </defs>
      <use xlink:href="#ArialMT-53"/>
      <use xlink:href="#ArialMT-74" x="66.699219"/>
      <use xlink:href="#ArialMT-69" x="94.482422"/>
      <use xlink:href="#ArialMT-6d" x="116.699219"/>
      <use xlink:href="#ArialMT-20" x="200"/>
      <use xlink:href="#ArialMT-4f" x="227.783203"/>
      <use xlink:href="#ArialMT-6e" x="305.566406"/>
      <use xlink:href="#ArialMT-73" x="361.181641"/>
      <use xlink:href="#ArialMT-65" x="411.181641"/>
      <use xlink:href="#ArialMT-74" x="466.796875"/>
     </g>
    </g>
    <g id="line2d_12">
     <path d="M 617.66 217.459844 
L 628.66 217.459844 
L 639.66 217.459844 
" style="fill: none; stroke-dasharray: 5.55,2.4; stroke-dashoffset: 0; stroke: #55a868; stroke-width: 1.5"/>
    </g>
    <g id="text_22">
     <!-- Stim End -->
     <g style="fill: #262626" transform="translate(648.46 221.309844) scale(0.11 -0.11)">
      <defs>
       <path id="ArialMT-45" d="M 506 0 
L 506 4581 
L 3819 4581 
L 3819 4041 
L 1113 4041 
L 1113 2638 
L 3647 2638 
L 3647 2100 
L 1113 2100 
L 1113 541 
L 3925 541 
L 3925 0 
L 506 0 
z
" transform="scale(0.015625)"/>
      </defs>
      <use xlink:href="#ArialMT-53"/>
      <use xlink:href="#ArialMT-74" x="66.699219"/>
      <use xlink:href="#ArialMT-69" x="94.482422"/>
      <use xlink:href="#ArialMT-6d" x="116.699219"/>
      <use xlink:href="#ArialMT-20" x="200"/>
      <use xlink:href="#ArialMT-45" x="227.783203"/>
      <use xlink:href="#ArialMT-6e" x="294.482422"/>
      <use xlink:href="#ArialMT-64" x="350.097656"/>
     </g>
    </g>
    <g id="line2d_13">
     <path d="M 617.66 233.160625 
L 628.66 233.160625 
L 639.66 233.160625 
" style="fill: none; stroke: #ff0000; stroke-width: 2; stroke-linecap: round"/>
    </g>
    <g id="text_23">
     <!-- Original -->
     <g style="fill: #262626" transform="translate(648.46 237.010625) scale(0.11 -0.11)">
      <use xlink:href="#ArialMT-4f"/>
      <use xlink:href="#ArialMT-72" x="77.783203"/>
      <use xlink:href="#ArialMT-69" x="111.083984"/>
      <use xlink:href="#ArialMT-67" x="133.300781"/>
      <use xlink:href="#ArialMT-69" x="188.916016"/>
      <use xlink:href="#ArialMT-6e" x="211.132812"/>
      <use xlink:href="#ArialMT-61" x="266.748047"/>
      <use xlink:href="#ArialMT-6c" x="322.363281"/>
     </g>
    </g>
    <g id="line2d_14">
     <path d="M 617.66 248.990312 
L 628.66 248.990312 
L 639.66 248.990312 
" style="fill: none; stroke-dasharray: 7.4,3.2; stroke-dashoffset: 0; stroke: #ff0000; stroke-width: 2"/>
    </g>
    <g id="text_24">
     <!-- Original -->
     <g style="fill: #262626" transform="translate(648.46 252.840312) scale(0.11 -0.11)">
      <use xlink:href="#ArialMT-4f"/>
      <use xlink:href="#ArialMT-72" x="77.783203"/>
      <use xlink:href="#ArialMT-69" x="111.083984"/>
      <use xlink:href="#ArialMT-67" x="133.300781"/>
      <use xlink:href="#ArialMT-69" x="188.916016"/>
      <use xlink:href="#ArialMT-6e" x="211.132812"/>
      <use xlink:href="#ArialMT-61" x="266.748047"/>
      <use xlink:href="#ArialMT-6c" x="322.363281"/>
     </g>
    </g>
   </g>
  </g>
 </g>
 <defs>
  <clipPath id="peb53c2110c">
   <rect x="69.48" y="27.6" width="538.28" height="350.58"/>
  </clipPath>
 </defs>
</svg>
