<?xml version="1.0" encoding="utf-8" standalone="no"?>
<!DOCTYPE svg PUBLIC "-//W3C//DTD SVG 1.1//EN"
  "http://www.w3.org/Graphics/SVG/1.1/DTD/svg11.dtd">
<svg xmlns:xlink="http://www.w3.org/1999/xlink" width="720pt" height="432pt" viewBox="0 0 720 432" xmlns="http://www.w3.org/2000/svg" version="1.1">
 <metadata>
  <rdf:RDF xmlns:dc="http://purl.org/dc/elements/1.1/" xmlns:cc="http://creativecommons.org/ns#" xmlns:rdf="http://www.w3.org/1999/02/22-rdf-syntax-ns#">
   <cc:Work>
    <dc:type rdf:resource="http://purl.org/dc/dcmitype/StillImage"/>
    <dc:date>2025-08-03T18:49:38.774336</dc:date>
    <dc:format>image/svg+xml</dc:format>
    <dc:creator>
     <cc:Agent>
      <dc:title>Matplotlib v3.9.4, https://matplotlib.org/</dc:title>
     </cc:Agent>
    </dc:creator>
   </cc:Work>
  </rdf:RDF>
 </metadata>
 <defs>
  <style type="text/css">*{stroke-linejoin: round; stroke-linecap: butt}</style>
 </defs>
 <g id="figure_1">
  <g id="patch_1">
   <path d="M 0 432 
L 720 432 
L 720 0 
L 0 0 
z
" style="fill: #ffffff"/>
  </g>
  <g id="axes_1">
   <g id="patch_2">
    <path d="M 69.71 377.54 
L 607.44 377.54 
L 607.44 26.96 
L 69.71 26.96 
L 69.71 377.54 
z
" style="fill: none"/>
   </g>
   <g id="matplotlib.axis_1">
    <g id="xtick_1">
     <g id="text_1">
      <!-- 0 -->
      <g style="fill: #262626" transform="translate(120.534411 397.776719) scale(0.15 -0.15)">
       <defs>
        <path id="ArialMT-30" d="M 266 2259 
Q 266 3072 433 3567 
Q 600 4063 929 4331 
Q 1259 4600 1759 4600 
Q 2128 4600 2406 4451 
Q 2684 4303 2865 4023 
Q 3047 3744 3150 3342 
Q 3253 2941 3253 2259 
Q 3253 1453 3087 958 
Q 2922 463 2592 192 
Q 2263 -78 1759 -78 
Q 1097 -78 719 397 
Q 266 969 266 2259 
z
M 844 2259 
Q 844 1131 1108 757 
Q 1372 384 1759 384 
Q 2147 384 2411 759 
Q 2675 1134 2675 2259 
Q 2675 3391 2411 3762 
Q 2147 4134 1753 4134 
Q 1366 4134 1134 3806 
Q 844 3388 844 2259 
z
" transform="scale(0.015625)"/>
       </defs>
       <use xlink:href="#ArialMT-30"/>
      </g>
     </g>
    </g>
    <g id="xtick_2">
     <g id="text_2">
      <!-- 200 -->
      <g style="fill: #262626" transform="translate(173.298686 397.776719) scale(0.15 -0.15)">
       <defs>
        <path id="ArialMT-32" d="M 3222 541 
L 3222 0 
L 194 0 
Q 188 203 259 391 
Q 375 700 629 1000 
Q 884 1300 1366 1694 
Q 2113 2306 2375 2664 
Q 2638 3022 2638 3341 
Q 2638 3675 2398 3904 
Q 2159 4134 1775 4134 
Q 1369 4134 1125 3890 
Q 881 3647 878 3216 
L 300 3275 
Q 359 3922 746 4261 
Q 1134 4600 1788 4600 
Q 2447 4600 2831 4234 
Q 3216 3869 3216 3328 
Q 3216 3053 3103 2787 
Q 2991 2522 2730 2228 
Q 2469 1934 1863 1422 
Q 1356 997 1212 845 
Q 1069 694 975 541 
L 3222 541 
z
" transform="scale(0.015625)"/>
       </defs>
       <use xlink:href="#ArialMT-32"/>
       <use xlink:href="#ArialMT-30" x="55.615234"/>
       <use xlink:href="#ArialMT-30" x="111.230469"/>
      </g>
     </g>
    </g>
    <g id="xtick_3">
     <g id="text_3">
      <!-- 400 -->
      <g style="fill: #262626" transform="translate(234.404368 397.776719) scale(0.15 -0.15)">
       <defs>
        <path id="ArialMT-34" d="M 2069 0 
L 2069 1097 
L 81 1097 
L 81 1613 
L 2172 4581 
L 2631 4581 
L 2631 1613 
L 3250 1613 
L 3250 1097 
L 2631 1097 
L 2631 0 
L 2069 0 
z
M 2069 1613 
L 2069 3678 
L 634 1613 
L 2069 1613 
z
" transform="scale(0.015625)"/>
       </defs>
       <use xlink:href="#ArialMT-34"/>
       <use xlink:href="#ArialMT-30" x="55.615234"/>
       <use xlink:href="#ArialMT-30" x="111.230469"/>
      </g>
     </g>
    </g>
    <g id="xtick_4">
     <g id="text_4">
      <!-- 600 -->
      <g style="fill: #262626" transform="translate(295.51005 397.776719) scale(0.15 -0.15)">
       <defs>
        <path id="ArialMT-36" d="M 3184 3459 
L 2625 3416 
Q 2550 3747 2413 3897 
Q 2184 4138 1850 4138 
Q 1581 4138 1378 3988 
Q 1113 3794 959 3422 
Q 806 3050 800 2363 
Q 1003 2672 1297 2822 
Q 1591 2972 1913 2972 
Q 2475 2972 2870 2558 
Q 3266 2144 3266 1488 
Q 3266 1056 3080 686 
Q 2894 316 2569 119 
Q 2244 -78 1831 -78 
Q 1128 -78 684 439 
Q 241 956 241 2144 
Q 241 3472 731 4075 
Q 1159 4600 1884 4600 
Q 2425 4600 2770 4297 
Q 3116 3994 3184 3459 
z
M 888 1484 
Q 888 1194 1011 928 
Q 1134 663 1356 523 
Q 1578 384 1822 384 
Q 2178 384 2434 671 
Q 2691 959 2691 1453 
Q 2691 1928 2437 2201 
Q 2184 2475 1800 2475 
Q 1419 2475 1153 2201 
Q 888 1928 888 1484 
z
" transform="scale(0.015625)"/>
       </defs>
       <use xlink:href="#ArialMT-36"/>
       <use xlink:href="#ArialMT-30" x="55.615234"/>
       <use xlink:href="#ArialMT-30" x="111.230469"/>
      </g>
     </g>
    </g>
    <g id="xtick_5">
     <g id="text_5">
      <!-- 800 -->
      <g style="fill: #262626" transform="translate(356.615732 397.776719) scale(0.15 -0.15)">
       <defs>
        <path id="ArialMT-38" d="M 1131 2484 
Q 781 2613 612 2850 
Q 444 3088 444 3419 
Q 444 3919 803 4259 
Q 1163 4600 1759 4600 
Q 2359 4600 2725 4251 
Q 3091 3903 3091 3403 
Q 3091 3084 2923 2848 
Q 2756 2613 2416 2484 
Q 2838 2347 3058 2040 
Q 3278 1734 3278 1309 
Q 3278 722 2862 322 
Q 2447 -78 1769 -78 
Q 1091 -78 675 323 
Q 259 725 259 1325 
Q 259 1772 486 2073 
Q 713 2375 1131 2484 
z
M 1019 3438 
Q 1019 3113 1228 2906 
Q 1438 2700 1772 2700 
Q 2097 2700 2305 2904 
Q 2513 3109 2513 3406 
Q 2513 3716 2298 3927 
Q 2084 4138 1766 4138 
Q 1444 4138 1231 3931 
Q 1019 3725 1019 3438 
z
M 838 1322 
Q 838 1081 952 856 
Q 1066 631 1291 507 
Q 1516 384 1775 384 
Q 2178 384 2440 643 
Q 2703 903 2703 1303 
Q 2703 1709 2433 1975 
Q 2163 2241 1756 2241 
Q 1359 2241 1098 1978 
Q 838 1716 838 1322 
z
" transform="scale(0.015625)"/>
       </defs>
       <use xlink:href="#ArialMT-38"/>
       <use xlink:href="#ArialMT-30" x="55.615234"/>
       <use xlink:href="#ArialMT-30" x="111.230469"/>
      </g>
     </g>
    </g>
    <g id="xtick_6">
     <g id="text_6">
      <!-- 1000 -->
      <g style="fill: #262626" transform="translate(413.55071 397.776719) scale(0.15 -0.15)">
       <defs>
        <path id="ArialMT-31" d="M 2384 0 
L 1822 0 
L 1822 3584 
Q 1619 3391 1289 3197 
Q 959 3003 697 2906 
L 697 3450 
Q 1169 3672 1522 3987 
Q 1875 4303 2022 4600 
L 2384 4600 
L 2384 0 
z
" transform="scale(0.015625)"/>
       </defs>
       <use xlink:href="#ArialMT-31"/>
       <use xlink:href="#ArialMT-30" x="55.615234"/>
       <use xlink:href="#ArialMT-30" x="111.230469"/>
       <use xlink:href="#ArialMT-30" x="166.845703"/>
      </g>
     </g>
    </g>
    <g id="xtick_7">
     <g id="text_7">
      <!-- 1200 -->
      <g style="fill: #262626" transform="translate(474.656392 397.776719) scale(0.15 -0.15)">
       <use xlink:href="#ArialMT-31"/>
       <use xlink:href="#ArialMT-32" x="55.615234"/>
       <use xlink:href="#ArialMT-30" x="111.230469"/>
       <use xlink:href="#ArialMT-30" x="166.845703"/>
      </g>
     </g>
    </g>
    <g id="xtick_8">
     <g id="text_8">
      <!-- 1400 -->
      <g style="fill: #262626" transform="translate(535.762074 397.776719) scale(0.15 -0.15)">
       <use xlink:href="#ArialMT-31"/>
       <use xlink:href="#ArialMT-34" x="55.615234"/>
       <use xlink:href="#ArialMT-30" x="111.230469"/>
       <use xlink:href="#ArialMT-30" x="166.845703"/>
      </g>
     </g>
    </g>
    <g id="text_9">
     <!-- Time (s) -->
     <g style="fill: #262626" transform="translate(311.362891 415.6775) scale(0.15 -0.15)">
      <defs>
       <path id="ArialMT-54" d="M 1659 0 
L 1659 4041 
L 150 4041 
L 150 4581 
L 3781 4581 
L 3781 4041 
L 2266 4041 
L 2266 0 
L 1659 0 
z
" transform="scale(0.015625)"/>
       <path id="ArialMT-69" d="M 425 3934 
L 425 4581 
L 988 4581 
L 988 3934 
L 425 3934 
z
M 425 0 
L 425 3319 
L 988 3319 
L 988 0 
L 425 0 
z
" transform="scale(0.015625)"/>
       <path id="ArialMT-6d" d="M 422 0 
L 422 3319 
L 925 3319 
L 925 2853 
Q 1081 3097 1340 3245 
Q 1600 3394 1931 3394 
Q 2300 3394 2536 3241 
Q 2772 3088 2869 2813 
Q 3263 3394 3894 3394 
Q 4388 3394 4653 3120 
Q 4919 2847 4919 2278 
L 4919 0 
L 4359 0 
L 4359 2091 
Q 4359 2428 4304 2576 
Q 4250 2725 4106 2815 
Q 3963 2906 3769 2906 
Q 3419 2906 3187 2673 
Q 2956 2441 2956 1928 
L 2956 0 
L 2394 0 
L 2394 2156 
Q 2394 2531 2256 2718 
Q 2119 2906 1806 2906 
Q 1569 2906 1367 2781 
Q 1166 2656 1075 2415 
Q 984 2175 984 1722 
L 984 0 
L 422 0 
z
" transform="scale(0.015625)"/>
       <path id="ArialMT-65" d="M 2694 1069 
L 3275 997 
Q 3138 488 2766 206 
Q 2394 -75 1816 -75 
Q 1088 -75 661 373 
Q 234 822 234 1631 
Q 234 2469 665 2931 
Q 1097 3394 1784 3394 
Q 2450 3394 2872 2941 
Q 3294 2488 3294 1666 
Q 3294 1616 3291 1516 
L 816 1516 
Q 847 969 1125 678 
Q 1403 388 1819 388 
Q 2128 388 2347 550 
Q 2566 713 2694 1069 
z
M 847 1978 
L 2700 1978 
Q 2663 2397 2488 2606 
Q 2219 2931 1791 2931 
Q 1403 2931 1139 2672 
Q 875 2413 847 1978 
z
" transform="scale(0.015625)"/>
       <path id="ArialMT-20" transform="scale(0.015625)"/>
       <path id="ArialMT-28" d="M 1497 -1347 
Q 1031 -759 709 28 
Q 388 816 388 1659 
Q 388 2403 628 3084 
Q 909 3875 1497 4659 
L 1900 4659 
Q 1522 4009 1400 3731 
Q 1209 3300 1100 2831 
Q 966 2247 966 1656 
Q 966 153 1900 -1347 
L 1497 -1347 
z
" transform="scale(0.015625)"/>
       <path id="ArialMT-73" d="M 197 991 
L 753 1078 
Q 800 744 1014 566 
Q 1228 388 1613 388 
Q 2000 388 2187 545 
Q 2375 703 2375 916 
Q 2375 1106 2209 1216 
Q 2094 1291 1634 1406 
Q 1016 1563 777 1677 
Q 538 1791 414 1992 
Q 291 2194 291 2438 
Q 291 2659 392 2848 
Q 494 3038 669 3163 
Q 800 3259 1026 3326 
Q 1253 3394 1513 3394 
Q 1903 3394 2198 3281 
Q 2494 3169 2634 2976 
Q 2775 2784 2828 2463 
L 2278 2388 
Q 2241 2644 2061 2787 
Q 1881 2931 1553 2931 
Q 1166 2931 1000 2803 
Q 834 2675 834 2503 
Q 834 2394 903 2306 
Q 972 2216 1119 2156 
Q 1203 2125 1616 2013 
Q 2213 1853 2448 1751 
Q 2684 1650 2818 1456 
Q 2953 1263 2953 975 
Q 2953 694 2789 445 
Q 2625 197 2315 61 
Q 2006 -75 1616 -75 
Q 969 -75 630 194 
Q 291 463 197 991 
z
" transform="scale(0.015625)"/>
       <path id="ArialMT-29" d="M 791 -1347 
L 388 -1347 
Q 1322 153 1322 1656 
Q 1322 2244 1188 2822 
Q 1081 3291 891 3722 
Q 769 4003 388 4659 
L 791 4659 
Q 1378 3875 1659 3084 
Q 1900 2403 1900 1659 
Q 1900 816 1576 28 
Q 1253 -759 791 -1347 
z
" transform="scale(0.015625)"/>
      </defs>
      <use xlink:href="#ArialMT-54"/>
      <use xlink:href="#ArialMT-69" x="57.333984"/>
      <use xlink:href="#ArialMT-6d" x="79.550781"/>
      <use xlink:href="#ArialMT-65" x="162.851562"/>
      <use xlink:href="#ArialMT-20" x="218.466797"/>
      <use xlink:href="#ArialMT-28" x="246.25"/>
      <use xlink:href="#ArialMT-73" x="279.550781"/>
      <use xlink:href="#ArialMT-29" x="329.550781"/>
     </g>
    </g>
   </g>
   <g id="matplotlib.axis_2">
    <g id="ytick_1">
     <g id="text_10">
      <!-- 0.00 -->
      <g style="fill: #262626" transform="translate(31.018594 328.487119) scale(0.15 -0.15)">
       <defs>
        <path id="ArialMT-2e" d="M 581 0 
L 581 641 
L 1222 641 
L 1222 0 
L 581 0 
z
" transform="scale(0.015625)"/>
       </defs>
       <use xlink:href="#ArialMT-30"/>
       <use xlink:href="#ArialMT-2e" x="55.615234"/>
       <use xlink:href="#ArialMT-30" x="83.398438"/>
       <use xlink:href="#ArialMT-30" x="139.013672"/>
      </g>
     </g>
    </g>
    <g id="ytick_2">
     <g id="text_11">
      <!-- 0.05 -->
      <g style="fill: #262626" transform="translate(31.018594 260.831786) scale(0.15 -0.15)">
       <defs>
        <path id="ArialMT-35" d="M 266 1200 
L 856 1250 
Q 922 819 1161 601 
Q 1400 384 1738 384 
Q 2144 384 2425 690 
Q 2706 997 2706 1503 
Q 2706 1984 2436 2262 
Q 2166 2541 1728 2541 
Q 1456 2541 1237 2417 
Q 1019 2294 894 2097 
L 366 2166 
L 809 4519 
L 3088 4519 
L 3088 3981 
L 1259 3981 
L 1013 2750 
Q 1425 3038 1878 3038 
Q 2478 3038 2890 2622 
Q 3303 2206 3303 1553 
Q 3303 931 2941 478 
Q 2500 -78 1738 -78 
Q 1113 -78 717 272 
Q 322 622 266 1200 
z
" transform="scale(0.015625)"/>
       </defs>
       <use xlink:href="#ArialMT-30"/>
       <use xlink:href="#ArialMT-2e" x="55.615234"/>
       <use xlink:href="#ArialMT-30" x="83.398438"/>
       <use xlink:href="#ArialMT-35" x="139.013672"/>
      </g>
     </g>
    </g>
    <g id="ytick_3">
     <g id="text_12">
      <!-- 0.10 -->
      <g style="fill: #262626" transform="translate(31.018594 193.176454) scale(0.15 -0.15)">
       <use xlink:href="#ArialMT-30"/>
       <use xlink:href="#ArialMT-2e" x="55.615234"/>
       <use xlink:href="#ArialMT-31" x="83.398438"/>
       <use xlink:href="#ArialMT-30" x="139.013672"/>
      </g>
     </g>
    </g>
    <g id="ytick_4">
     <g id="text_13">
      <!-- 0.15 -->
      <g style="fill: #262626" transform="translate(31.018594 125.521121) scale(0.15 -0.15)">
       <use xlink:href="#ArialMT-30"/>
       <use xlink:href="#ArialMT-2e" x="55.615234"/>
       <use xlink:href="#ArialMT-31" x="83.398438"/>
       <use xlink:href="#ArialMT-35" x="139.013672"/>
      </g>
     </g>
    </g>
    <g id="ytick_5">
     <g id="text_14">
      <!-- 0.20 -->
      <g style="fill: #262626" transform="translate(31.018594 57.865789) scale(0.15 -0.15)">
       <use xlink:href="#ArialMT-30"/>
       <use xlink:href="#ArialMT-2e" x="55.615234"/>
       <use xlink:href="#ArialMT-32" x="83.398438"/>
       <use xlink:href="#ArialMT-30" x="139.013672"/>
      </g>
     </g>
    </g>
    <g id="text_15">
     <!-- Divergence -->
     <g style="fill: #262626" transform="translate(23.861563 240.183594) rotate(-90) scale(0.15 -0.15)">
      <defs>
       <path id="ArialMT-44" d="M 494 0 
L 494 4581 
L 2072 4581 
Q 2606 4581 2888 4516 
Q 3281 4425 3559 4188 
Q 3922 3881 4101 3404 
Q 4281 2928 4281 2316 
Q 4281 1794 4159 1391 
Q 4038 988 3847 723 
Q 3656 459 3429 307 
Q 3203 156 2883 78 
Q 2563 0 2147 0 
L 494 0 
z
M 1100 541 
L 2078 541 
Q 2531 541 2789 625 
Q 3047 709 3200 863 
Q 3416 1078 3536 1442 
Q 3656 1806 3656 2325 
Q 3656 3044 3420 3430 
Q 3184 3816 2847 3947 
Q 2603 4041 2063 4041 
L 1100 4041 
L 1100 541 
z
" transform="scale(0.015625)"/>
       <path id="ArialMT-76" d="M 1344 0 
L 81 3319 
L 675 3319 
L 1388 1331 
Q 1503 1009 1600 663 
Q 1675 925 1809 1294 
L 2547 3319 
L 3125 3319 
L 1869 0 
L 1344 0 
z
" transform="scale(0.015625)"/>
       <path id="ArialMT-72" d="M 416 0 
L 416 3319 
L 922 3319 
L 922 2816 
Q 1116 3169 1280 3281 
Q 1444 3394 1641 3394 
Q 1925 3394 2219 3213 
L 2025 2691 
Q 1819 2813 1613 2813 
Q 1428 2813 1281 2702 
Q 1134 2591 1072 2394 
Q 978 2094 978 1738 
L 978 0 
L 416 0 
z
" transform="scale(0.015625)"/>
       <path id="ArialMT-67" d="M 319 -275 
L 866 -356 
Q 900 -609 1056 -725 
Q 1266 -881 1628 -881 
Q 2019 -881 2231 -725 
Q 2444 -569 2519 -288 
Q 2563 -116 2559 434 
Q 2191 0 1641 0 
Q 956 0 581 494 
Q 206 988 206 1678 
Q 206 2153 378 2554 
Q 550 2956 876 3175 
Q 1203 3394 1644 3394 
Q 2231 3394 2613 2919 
L 2613 3319 
L 3131 3319 
L 3131 450 
Q 3131 -325 2973 -648 
Q 2816 -972 2473 -1159 
Q 2131 -1347 1631 -1347 
Q 1038 -1347 672 -1080 
Q 306 -813 319 -275 
z
M 784 1719 
Q 784 1066 1043 766 
Q 1303 466 1694 466 
Q 2081 466 2343 764 
Q 2606 1063 2606 1700 
Q 2606 2309 2336 2618 
Q 2066 2928 1684 2928 
Q 1309 2928 1046 2623 
Q 784 2319 784 1719 
z
" transform="scale(0.015625)"/>
       <path id="ArialMT-6e" d="M 422 0 
L 422 3319 
L 928 3319 
L 928 2847 
Q 1294 3394 1984 3394 
Q 2284 3394 2536 3286 
Q 2788 3178 2913 3003 
Q 3038 2828 3088 2588 
Q 3119 2431 3119 2041 
L 3119 0 
L 2556 0 
L 2556 2019 
Q 2556 2363 2490 2533 
Q 2425 2703 2258 2804 
Q 2091 2906 1866 2906 
Q 1506 2906 1245 2678 
Q 984 2450 984 1813 
L 984 0 
L 422 0 
z
" transform="scale(0.015625)"/>
       <path id="ArialMT-63" d="M 2588 1216 
L 3141 1144 
Q 3050 572 2676 248 
Q 2303 -75 1759 -75 
Q 1078 -75 664 370 
Q 250 816 250 1647 
Q 250 2184 428 2587 
Q 606 2991 970 3192 
Q 1334 3394 1763 3394 
Q 2303 3394 2647 3120 
Q 2991 2847 3088 2344 
L 2541 2259 
Q 2463 2594 2264 2762 
Q 2066 2931 1784 2931 
Q 1359 2931 1093 2626 
Q 828 2322 828 1663 
Q 828 994 1084 691 
Q 1341 388 1753 388 
Q 2084 388 2306 591 
Q 2528 794 2588 1216 
z
" transform="scale(0.015625)"/>
      </defs>
      <use xlink:href="#ArialMT-44"/>
      <use xlink:href="#ArialMT-69" x="72.216797"/>
      <use xlink:href="#ArialMT-76" x="94.433594"/>
      <use xlink:href="#ArialMT-65" x="144.433594"/>
      <use xlink:href="#ArialMT-72" x="200.048828"/>
      <use xlink:href="#ArialMT-67" x="233.349609"/>
      <use xlink:href="#ArialMT-65" x="288.964844"/>
      <use xlink:href="#ArialMT-6e" x="344.580078"/>
      <use xlink:href="#ArialMT-63" x="400.195312"/>
      <use xlink:href="#ArialMT-65" x="450.195312"/>
     </g>
    </g>
   </g>
   <g id="PolyCollection_1">
    <defs>
     <path id="mb98d2ebb7c" d="M 94.152273 -108.748655 
L 94.152273 -107.976801 
L 106.373409 -107.780865 
L 118.594545 -143.635313 
L 130.815682 -212.973872 
L 143.036818 -175.250374 
L 155.257955 -142.062174 
L 167.479091 -159.988979 
L 179.700227 -174.972841 
L 191.921364 -192.18586 
L 204.1425 -178.492368 
L 216.363636 -167.535623 
L 228.584773 -115.820636 
L 240.805909 -163.537947 
L 253.027045 -96.963782 
L 265.248182 -70.395455 
L 277.469318 -139.256846 
L 289.690455 -151.115613 
L 301.911591 -164.899386 
L 314.132727 -178.537555 
L 326.353864 -199.40753 
L 338.575 -188.200665 
L 350.796136 -174.002775 
L 363.017273 -227.714718 
L 375.238409 -275.480011 
L 387.459545 -247.692641 
L 399.680682 -238.831105 
L 411.901818 -298.614612 
L 424.122955 -224.509537 
L 436.344091 -119.422622 
L 448.565227 -109.517925 
L 460.786364 -108.571946 
L 473.0075 -108.556773 
L 485.228636 -108.198793 
L 497.449773 -108.634777 
L 509.670909 -108.471305 
L 521.892045 -108.650191 
L 534.113182 -108.893667 
L 546.334318 -108.27778 
L 558.555455 -108.790362 
L 570.776591 -108.907926 
L 582.997727 -108.493555 
L 582.997727 -108.79259 
L 582.997727 -108.79259 
L 570.776591 -109.300969 
L 558.555455 -109.282429 
L 546.334318 -108.697597 
L 534.113182 -109.313821 
L 521.892045 -109.022451 
L 509.670909 -108.877292 
L 497.449773 -109.03198 
L 485.228636 -108.639432 
L 473.0075 -108.976732 
L 460.786364 -109.014307 
L 448.565227 -110.456562 
L 436.344091 -122.841439 
L 424.122955 -243.411507 
L 411.901818 -328.504389 
L 399.680682 -270.813361 
L 387.459545 -274.786169 
L 375.238409 -301.246392 
L 363.017273 -252.992796 
L 350.796136 -198.442 
L 338.575 -217.136914 
L 326.353864 -219.848828 
L 314.132727 -200.706533 
L 301.911591 -185.005368 
L 289.690455 -174.031321 
L 277.469318 -163.380799 
L 265.248182 -91.318722 
L 253.027045 -118.480196 
L 240.805909 -186.022502 
L 228.584773 -137.076337 
L 216.363636 -190.333657 
L 204.1425 -202.644038 
L 191.921364 -217.674316 
L 179.700227 -193.381822 
L 167.479091 -182.769437 
L 155.257955 -165.096013 
L 143.036818 -202.228706 
L 130.815682 -237.074988 
L 118.594545 -152.739638 
L 106.373409 -108.637964 
L 94.152273 -108.748655 
z
" style="stroke: #8b0a50; stroke-opacity: 0.1"/>
    </defs>
    <g clip-path="url(#pa7347e9c2a)">
     <use xlink:href="#mb98d2ebb7c" x="0" y="432" style="fill: #8b0a50; fill-opacity: 0.1; stroke: #8b0a50; stroke-opacity: 0.1"/>
    </g>
   </g>
   <g id="PolyCollection_2">
    <defs>
     <path id="m0539bc5b5a" d="M 94.152273 -109.022371 
L 94.152273 -108.793442 
L 106.373409 -108.913138 
L 118.594545 -113.847264 
L 130.815682 -120.096856 
L 143.036818 -115.028004 
L 155.257955 -136.772808 
L 167.479091 -152.170113 
L 179.700227 -167.855751 
L 191.921364 -177.610333 
L 204.1425 -174.043242 
L 216.363636 -168.934803 
L 228.584773 -159.392534 
L 240.805909 -133.115384 
L 253.027045 -136.922298 
L 265.248182 -154.115398 
L 277.469318 -153.944565 
L 289.690455 -156.289879 
L 301.911591 -160.809464 
L 314.132727 -157.327294 
L 326.353864 -180.405798 
L 338.575 -170.507679 
L 350.796136 -160.782714 
L 363.017273 -154.006644 
L 375.238409 -157.637743 
L 387.459545 -163.634094 
L 399.680682 -148.027055 
L 411.901818 -144.557321 
L 424.122955 -130.788992 
L 436.344091 -109.735164 
L 448.565227 -108.867415 
L 460.786364 -108.705249 
L 473.0075 -108.734762 
L 485.228636 -108.809662 
L 497.449773 -108.859467 
L 509.670909 -108.984499 
L 521.892045 -108.842249 
L 534.113182 -108.857342 
L 546.334318 -108.871722 
L 558.555455 -108.815067 
L 570.776591 -108.889667 
L 582.997727 -108.976197 
L 582.997727 -109.077309 
L 582.997727 -109.077309 
L 570.776591 -109.009771 
L 558.555455 -108.91796 
L 546.334318 -108.954334 
L 534.113182 -108.954414 
L 521.892045 -108.973623 
L 509.670909 -109.091519 
L 497.449773 -108.960459 
L 485.228636 -108.906999 
L 473.0075 -108.871272 
L 460.786364 -108.825326 
L 448.565227 -108.989227 
L 436.344091 -110.218628 
L 424.122955 -134.955049 
L 411.901818 -151.136612 
L 399.680682 -153.651056 
L 387.459545 -170.196086 
L 375.238409 -164.299915 
L 363.017273 -160.811952 
L 350.796136 -167.821866 
L 338.575 -178.400663 
L 326.353864 -190.444676 
L 314.132727 -163.330882 
L 301.911591 -166.412064 
L 289.690455 -161.977906 
L 277.469318 -159.610072 
L 265.248182 -160.294687 
L 253.027045 -142.461091 
L 240.805909 -140.315341 
L 228.584773 -165.716138 
L 216.363636 -177.037643 
L 204.1425 -182.765897 
L 191.921364 -184.970805 
L 179.700227 -174.711612 
L 167.479091 -159.729781 
L 155.257955 -144.133132 
L 143.036818 -122.055368 
L 130.815682 -127.982929 
L 118.594545 -116.526459 
L 106.373409 -109.154812 
L 94.152273 -109.022371 
z
" style="stroke: #8b0a50; stroke-opacity: 0.1"/>
    </defs>
    <g clip-path="url(#pa7347e9c2a)">
     <use xlink:href="#m0539bc5b5a" x="0" y="432" style="fill: #8b0a50; fill-opacity: 0.1; stroke: #8b0a50; stroke-opacity: 0.1"/>
    </g>
   </g>
   <g id="PathCollection_1">
    <defs>
     <path id="m6d796c2664" d="M 0 -3 
L -0.673542 -0.927051 
L -2.85317 -0.927051 
L -1.089814 0.354102 
L -1.763356 2.427051 
L -0 1.145898 
L 1.763356 2.427051 
L 1.089814 0.354102 
L 2.85317 -0.927051 
L 0.673542 -0.927051 
z
" style="stroke: #8b0a50"/>
    </defs>
    <g clip-path="url(#pa7347e9c2a)">
     <use xlink:href="#m6d796c2664" x="118.594545" y="336.649826" style="fill: #8b0a50; stroke: #8b0a50"/>
     <use xlink:href="#m6d796c2664" x="130.815682" y="336.649826" style="fill: #8b0a50; stroke: #8b0a50"/>
     <use xlink:href="#m6d796c2664" x="143.036818" y="336.649826" style="fill: #8b0a50; stroke: #8b0a50"/>
     <use xlink:href="#m6d796c2664" x="191.921364" y="336.649826" style="fill: #8b0a50; stroke: #8b0a50"/>
     <use xlink:href="#m6d796c2664" x="240.805909" y="336.649826" style="fill: #8b0a50; stroke: #8b0a50"/>
     <use xlink:href="#m6d796c2664" x="314.132727" y="336.649826" style="fill: #8b0a50; stroke: #8b0a50"/>
     <use xlink:href="#m6d796c2664" x="326.353864" y="336.649826" style="fill: #8b0a50; stroke: #8b0a50"/>
     <use xlink:href="#m6d796c2664" x="338.575" y="336.649826" style="fill: #8b0a50; stroke: #8b0a50"/>
     <use xlink:href="#m6d796c2664" x="350.796136" y="336.649826" style="fill: #8b0a50; stroke: #8b0a50"/>
     <use xlink:href="#m6d796c2664" x="363.017273" y="336.649826" style="fill: #8b0a50; stroke: #8b0a50"/>
     <use xlink:href="#m6d796c2664" x="375.238409" y="336.649826" style="fill: #8b0a50; stroke: #8b0a50"/>
     <use xlink:href="#m6d796c2664" x="387.459545" y="336.649826" style="fill: #8b0a50; stroke: #8b0a50"/>
     <use xlink:href="#m6d796c2664" x="399.680682" y="336.649826" style="fill: #8b0a50; stroke: #8b0a50"/>
     <use xlink:href="#m6d796c2664" x="411.901818" y="336.649826" style="fill: #8b0a50; stroke: #8b0a50"/>
     <use xlink:href="#m6d796c2664" x="424.122955" y="336.649826" style="fill: #8b0a50; stroke: #8b0a50"/>
     <use xlink:href="#m6d796c2664" x="436.344091" y="336.649826" style="fill: #8b0a50; stroke: #8b0a50"/>
     <use xlink:href="#m6d796c2664" x="448.565227" y="336.649826" style="fill: #8b0a50; stroke: #8b0a50"/>
    </g>
   </g>
   <g id="PolyCollection_3">
    <defs>
     <path id="m2a74d71cc9" d="M 94.152273 -109.592836 
L 94.152273 -108.734188 
L 106.373409 -108.293309 
L 118.594545 -109.605502 
L 130.815682 -117.857028 
L 143.036818 -127.72718 
L 155.257955 -138.127135 
L 167.479091 -148.398565 
L 179.700227 -154.423476 
L 191.921364 -158.690764 
L 204.1425 -162.500251 
L 216.363636 -166.780915 
L 228.584773 -165.608188 
L 240.805909 -167.169041 
L 253.027045 -173.347164 
L 265.248182 -164.0706 
L 277.469318 -155.243635 
L 289.690455 -155.830067 
L 301.911591 -160.210535 
L 314.132727 -172.314542 
L 326.353864 -183.75968 
L 338.575 -197.329375 
L 350.796136 -210.912063 
L 363.017273 -222.729287 
L 375.238409 -241.804883 
L 387.459545 -261.295484 
L 399.680682 -285.731622 
L 411.901818 -308.503034 
L 424.122955 -328.846867 
L 436.344091 -326.033262 
L 448.565227 -302.078368 
L 460.786364 -281.211847 
L 473.0075 -264.57541 
L 485.228636 -246.035499 
L 497.449773 -231.393118 
L 509.670909 -221.627317 
L 521.892045 -211.250675 
L 534.113182 -202.057033 
L 546.334318 -197.469033 
L 558.555455 -194.019215 
L 570.776591 -189.979809 
L 582.997727 -187.616062 
L 582.997727 -224.836393 
L 582.997727 -224.836393 
L 570.776591 -225.123622 
L 558.555455 -228.089999 
L 546.334318 -230.905339 
L 534.113182 -235.147665 
L 521.892045 -243.80612 
L 509.670909 -254.62162 
L 497.449773 -266.069574 
L 485.228636 -283.2722 
L 473.0075 -305.643843 
L 460.786364 -327.263822 
L 448.565227 -354.841763 
L 436.344091 -385.313324 
L 424.122955 -389.104545 
L 411.901818 -365.300242 
L 399.680682 -337.969197 
L 387.459545 -307.096843 
L 375.238409 -283.204574 
L 363.017273 -259.933591 
L 350.796136 -245.448648 
L 338.575 -232.140415 
L 326.353864 -214.85973 
L 314.132727 -196.471965 
L 301.911591 -183.175697 
L 289.690455 -178.245711 
L 277.469318 -176.238075 
L 265.248182 -185.938245 
L 253.027045 -195.275824 
L 240.805909 -187.191995 
L 228.584773 -185.54733 
L 216.363636 -185.721578 
L 204.1425 -179.355146 
L 191.921364 -173.891248 
L 179.700227 -169.475906 
L 167.479091 -162.549446 
L 155.257955 -151.74247 
L 143.036818 -138.913953 
L 130.815682 -123.976187 
L 118.594545 -112.829738 
L 106.373409 -110.65937 
L 94.152273 -109.592836 
z
" style="stroke: #eb6ab0; stroke-opacity: 0.1"/>
    </defs>
    <g clip-path="url(#pa7347e9c2a)">
     <use xlink:href="#m2a74d71cc9" x="0" y="432" style="fill: #eb6ab0; fill-opacity: 0.1; stroke: #eb6ab0; stroke-opacity: 0.1"/>
    </g>
   </g>
   <g id="PolyCollection_4">
    <defs>
     <path id="m7137155731" d="M 94.152273 -109.081038 
L 94.152273 -108.905216 
L 106.373409 -108.888209 
L 118.594545 -110.672107 
L 130.815682 -118.640232 
L 143.036818 -131.144843 
L 155.257955 -146.153805 
L 167.479091 -154.429814 
L 179.700227 -155.60266 
L 191.921364 -157.54056 
L 204.1425 -155.316074 
L 216.363636 -154.711519 
L 228.584773 -156.756667 
L 240.805909 -158.364008 
L 253.027045 -159.732231 
L 265.248182 -161.361298 
L 277.469318 -163.216301 
L 289.690455 -166.073564 
L 301.911591 -168.598972 
L 314.132727 -170.257425 
L 326.353864 -171.102149 
L 338.575 -171.82775 
L 350.796136 -173.040294 
L 363.017273 -173.892976 
L 375.238409 -170.928997 
L 387.459545 -170.298737 
L 399.680682 -168.41673 
L 411.901818 -164.644326 
L 424.122955 -163.96256 
L 436.344091 -160.513729 
L 448.565227 -155.479299 
L 460.786364 -152.72037 
L 473.0075 -150.360662 
L 485.228636 -148.172368 
L 497.449773 -145.751128 
L 509.670909 -144.295829 
L 521.892045 -143.439156 
L 534.113182 -143.81859 
L 546.334318 -144.053697 
L 558.555455 -144.091373 
L 570.776591 -143.988228 
L 582.997727 -142.810501 
L 582.997727 -153.427726 
L 582.997727 -153.427726 
L 570.776591 -154.587316 
L 558.555455 -154.121155 
L 546.334318 -153.479608 
L 534.113182 -152.727492 
L 521.892045 -152.062826 
L 509.670909 -152.794169 
L 497.449773 -154.299698 
L 485.228636 -157.006476 
L 473.0075 -159.500774 
L 460.786364 -162.143134 
L 448.565227 -165.229638 
L 436.344091 -170.560597 
L 424.122955 -174.899333 
L 411.901818 -175.328633 
L 399.680682 -179.957589 
L 387.459545 -181.93546 
L 375.238409 -182.620196 
L 363.017273 -184.937572 
L 350.796136 -184.006332 
L 338.575 -182.542058 
L 326.353864 -181.855678 
L 314.132727 -181.17229 
L 301.911591 -179.353913 
L 289.690455 -176.376002 
L 277.469318 -173.152011 
L 265.248182 -171.432707 
L 253.027045 -169.78477 
L 240.805909 -167.943939 
L 228.584773 -166.001655 
L 216.363636 -163.560826 
L 204.1425 -164.214127 
L 191.921364 -166.73459 
L 179.700227 -164.853384 
L 167.479091 -167.6714 
L 155.257955 -160.622676 
L 143.036818 -137.588819 
L 130.815682 -121.603592 
L 118.594545 -111.846213 
L 106.373409 -109.482478 
L 94.152273 -109.081038 
z
" style="stroke: #eb6ab0; stroke-opacity: 0.1"/>
    </defs>
    <g clip-path="url(#pa7347e9c2a)">
     <use xlink:href="#m7137155731" x="0" y="432" style="fill: #eb6ab0; fill-opacity: 0.1; stroke: #eb6ab0; stroke-opacity: 0.1"/>
    </g>
   </g>
   <g id="PathCollection_2">
    <defs>
     <path id="m2ac6f98ab8" d="M 0 -3 
L -0.673542 -0.927051 
L -2.85317 -0.927051 
L -1.089814 0.354102 
L -1.763356 2.427051 
L -0 1.145898 
L 1.763356 2.427051 
L 1.089814 0.354102 
L 2.85317 -0.927051 
L 0.673542 -0.927051 
z
" style="stroke: #eb6ab0"/>
    </defs>
    <g clip-path="url(#pa7347e9c2a)">
     <use xlink:href="#m2ac6f98ab8" x="338.575" y="350.180892" style="fill: #eb6ab0; stroke: #eb6ab0"/>
     <use xlink:href="#m2ac6f98ab8" x="350.796136" y="350.180892" style="fill: #eb6ab0; stroke: #eb6ab0"/>
     <use xlink:href="#m2ac6f98ab8" x="363.017273" y="350.180892" style="fill: #eb6ab0; stroke: #eb6ab0"/>
     <use xlink:href="#m2ac6f98ab8" x="375.238409" y="350.180892" style="fill: #eb6ab0; stroke: #eb6ab0"/>
     <use xlink:href="#m2ac6f98ab8" x="387.459545" y="350.180892" style="fill: #eb6ab0; stroke: #eb6ab0"/>
     <use xlink:href="#m2ac6f98ab8" x="399.680682" y="350.180892" style="fill: #eb6ab0; stroke: #eb6ab0"/>
     <use xlink:href="#m2ac6f98ab8" x="411.901818" y="350.180892" style="fill: #eb6ab0; stroke: #eb6ab0"/>
     <use xlink:href="#m2ac6f98ab8" x="424.122955" y="350.180892" style="fill: #eb6ab0; stroke: #eb6ab0"/>
     <use xlink:href="#m2ac6f98ab8" x="436.344091" y="350.180892" style="fill: #eb6ab0; stroke: #eb6ab0"/>
     <use xlink:href="#m2ac6f98ab8" x="448.565227" y="350.180892" style="fill: #eb6ab0; stroke: #eb6ab0"/>
     <use xlink:href="#m2ac6f98ab8" x="460.786364" y="350.180892" style="fill: #eb6ab0; stroke: #eb6ab0"/>
     <use xlink:href="#m2ac6f98ab8" x="473.0075" y="350.180892" style="fill: #eb6ab0; stroke: #eb6ab0"/>
     <use xlink:href="#m2ac6f98ab8" x="485.228636" y="350.180892" style="fill: #eb6ab0; stroke: #eb6ab0"/>
     <use xlink:href="#m2ac6f98ab8" x="497.449773" y="350.180892" style="fill: #eb6ab0; stroke: #eb6ab0"/>
     <use xlink:href="#m2ac6f98ab8" x="509.670909" y="350.180892" style="fill: #eb6ab0; stroke: #eb6ab0"/>
     <use xlink:href="#m2ac6f98ab8" x="521.892045" y="350.180892" style="fill: #eb6ab0; stroke: #eb6ab0"/>
     <use xlink:href="#m2ac6f98ab8" x="534.113182" y="350.180892" style="fill: #eb6ab0; stroke: #eb6ab0"/>
     <use xlink:href="#m2ac6f98ab8" x="546.334318" y="350.180892" style="fill: #eb6ab0; stroke: #eb6ab0"/>
     <use xlink:href="#m2ac6f98ab8" x="558.555455" y="350.180892" style="fill: #eb6ab0; stroke: #eb6ab0"/>
     <use xlink:href="#m2ac6f98ab8" x="570.776591" y="350.180892" style="fill: #eb6ab0; stroke: #eb6ab0"/>
     <use xlink:href="#m2ac6f98ab8" x="582.997727" y="350.180892" style="fill: #eb6ab0; stroke: #eb6ab0"/>
    </g>
   </g>
   <g id="line2d_1">
    <path d="M 94.152273 323.637272 
L 106.373409 323.790585 
L 118.594545 283.812524 
L 130.815682 206.97557 
L 143.036818 243.26046 
L 155.257955 278.420906 
L 167.479091 260.620792 
L 179.700227 247.822669 
L 191.921364 227.069912 
L 204.1425 241.431797 
L 216.363636 253.06536 
L 228.584773 305.551513 
L 240.805909 257.219775 
L 253.027045 324.278011 
L 265.248182 351.142912 
L 277.469318 280.681177 
L 289.690455 269.426533 
L 301.911591 257.047623 
L 314.132727 242.377956 
L 326.353864 222.371821 
L 338.575 229.33121 
L 350.796136 245.777612 
L 363.017273 191.646243 
L 375.238409 143.636798 
L 387.459545 170.760595 
L 399.680682 177.177767 
L 411.901818 118.4405 
L 424.122955 198.039478 
L 436.344091 310.86797 
L 448.565227 322.012756 
L 460.786364 323.206874 
L 473.0075 323.233247 
L 485.228636 323.580887 
L 497.449773 323.166621 
L 509.670909 323.325702 
L 521.892045 323.163679 
L 534.113182 322.896256 
L 546.334318 323.512311 
L 558.555455 322.963605 
L 570.776591 322.895552 
L 582.997727 323.356928 
" clip-path="url(#pa7347e9c2a)" style="fill: none; stroke: #8b0a50; stroke-width: 2; stroke-linecap: round"/>
   </g>
   <g id="line2d_2">
    <path d="M 94.152273 323.092093 
L 106.373409 322.966025 
L 118.594545 316.813138 
L 130.815682 307.960108 
L 143.036818 313.458314 
L 155.257955 291.54703 
L 167.479091 276.050053 
L 179.700227 260.716319 
L 191.921364 250.709431 
L 204.1425 253.595431 
L 216.363636 259.013777 
L 228.584773 269.445664 
L 240.805909 295.284638 
L 253.027045 292.308306 
L 265.248182 274.794957 
L 277.469318 275.222682 
L 289.690455 272.866107 
L 301.911591 268.389236 
L 314.132727 271.670912 
L 326.353864 246.574763 
L 338.575 257.545829 
L 350.796136 267.69771 
L 363.017273 274.590702 
L 375.238409 271.031171 
L 387.459545 265.08491 
L 399.680682 281.160944 
L 411.901818 284.153033 
L 424.122955 299.127979 
L 436.344091 322.023104 
L 448.565227 323.071679 
L 460.786364 323.234712 
L 473.0075 323.196983 
L 485.228636 323.141669 
L 497.449773 323.090037 
L 509.670909 322.961991 
L 521.892045 323.092064 
L 534.113182 323.094122 
L 546.334318 323.086972 
L 558.555455 323.133487 
L 570.776591 323.050281 
L 582.997727 322.973247 
" clip-path="url(#pa7347e9c2a)" style="fill: none; stroke-dasharray: 7.4,3.2; stroke-dashoffset: 0; stroke: #8b0a50; stroke-width: 2"/>
   </g>
   <g id="line2d_3">
    <path d="M 124.705114 377.54 
L 124.705114 26.96 
" clip-path="url(#pa7347e9c2a)" style="fill: none; stroke-dasharray: 5.55,2.4; stroke-dashoffset: 0; stroke: #1a1a1a; stroke-width: 1.5"/>
   </g>
   <g id="line2d_4">
    <path d="M 430.233523 377.54 
L 430.233523 26.96 
" clip-path="url(#pa7347e9c2a)" style="fill: none; stroke-dasharray: 5.55,2.4; stroke-dashoffset: 0; stroke: #1a1a1a; stroke-width: 1.5"/>
   </g>
   <g id="line2d_5">
    <path d="M 94.152273 322.836488 
L 106.373409 322.523661 
L 118.594545 320.78238 
L 130.815682 311.083392 
L 143.036818 298.679434 
L 155.257955 287.065197 
L 167.479091 276.525995 
L 179.700227 270.050309 
L 191.921364 265.708994 
L 204.1425 261.072301 
L 216.363636 255.748753 
L 228.584773 256.422241 
L 240.805909 254.819482 
L 253.027045 247.688506 
L 265.248182 256.995578 
L 277.469318 266.259145 
L 289.690455 264.962111 
L 301.911591 260.306884 
L 314.132727 247.606747 
L 326.353864 232.690295 
L 338.575 217.265105 
L 350.796136 203.819644 
L 363.017273 190.668561 
L 375.238409 169.495272 
L 387.459545 147.803836 
L 399.680682 120.149591 
L 411.901818 95.098362 
L 424.122955 73.024294 
L 436.344091 76.326707 
L 448.565227 103.539935 
L 460.786364 127.762165 
L 473.0075 146.890373 
L 485.228636 167.34615 
L 497.449773 183.268654 
L 509.670909 193.875531 
L 521.892045 204.471603 
L 534.113182 213.397651 
L 546.334318 217.812814 
L 558.555455 220.945393 
L 570.776591 224.448284 
L 582.997727 225.773772 
" clip-path="url(#pa7347e9c2a)" style="fill: none; stroke: #eb6ab0; stroke-width: 2; stroke-linecap: round"/>
   </g>
   <g id="line2d_6">
    <path d="M 94.152273 323.006873 
L 106.373409 322.814656 
L 118.594545 320.74084 
L 130.815682 311.878088 
L 143.036818 297.633169 
L 155.257955 278.611759 
L 167.479091 270.949393 
L 179.700227 271.771978 
L 191.921364 269.862425 
L 204.1425 272.234899 
L 216.363636 272.863828 
L 228.584773 270.620839 
L 240.805909 268.846026 
L 253.027045 267.2415 
L 265.248182 265.602998 
L 277.469318 263.815844 
L 289.690455 260.775217 
L 301.911591 258.023557 
L 314.132727 256.285143 
L 326.353864 255.521087 
L 338.575 254.815096 
L 350.796136 253.476687 
L 363.017273 252.584726 
L 375.238409 255.225404 
L 387.459545 255.882902 
L 399.680682 257.812841 
L 411.901818 262.013521 
L 424.122955 262.569053 
L 436.344091 266.462837 
L 448.565227 271.645532 
L 460.786364 274.568248 
L 473.0075 277.069282 
L 485.228636 279.410578 
L 497.449773 281.974587 
L 509.670909 283.455001 
L 521.892045 284.249009 
L 534.113182 283.726959 
L 546.334318 283.233347 
L 558.555455 282.893736 
L 570.776591 282.712228 
L 582.997727 283.880887 
" clip-path="url(#pa7347e9c2a)" style="fill: none; stroke-dasharray: 7.4,3.2; stroke-dashoffset: 0; stroke: #eb6ab0; stroke-width: 2"/>
   </g>
   <g id="line2d_7">
    <path d="M 124.705114 377.54 
L 124.705114 26.96 
" clip-path="url(#pa7347e9c2a)" style="fill: none; stroke-dasharray: 5.55,2.4; stroke-dashoffset: 0; stroke: #1a1a1a; stroke-width: 1.5"/>
   </g>
   <g id="line2d_8">
    <path d="M 430.233523 377.54 
L 430.233523 26.96 
" clip-path="url(#pa7347e9c2a)" style="fill: none; stroke-dasharray: 5.55,2.4; stroke-dashoffset: 0; stroke: #1a1a1a; stroke-width: 1.5"/>
   </g>
   <g id="patch_3">
    <path d="M 69.71 377.54 
L 69.71 26.96 
" style="fill: none; stroke: #cccccc; stroke-width: 1.5; stroke-linejoin: miter; stroke-linecap: square"/>
   </g>
   <g id="patch_4">
    <path d="M 69.71 377.54 
L 607.44 377.54 
" style="fill: none; stroke: #cccccc; stroke-width: 1.5; stroke-linejoin: miter; stroke-linecap: square"/>
   </g>
   <g id="text_16">
    <!-- Divergence Comparison: Original vs Shuffled -->
    <g style="fill: #262626" transform="translate(189.0625 20.96) scale(0.15 -0.15)">
     <defs>
      <path id="ArialMT-43" d="M 3763 1606 
L 4369 1453 
Q 4178 706 3683 314 
Q 3188 -78 2472 -78 
Q 1731 -78 1267 223 
Q 803 525 561 1097 
Q 319 1669 319 2325 
Q 319 3041 592 3573 
Q 866 4106 1370 4382 
Q 1875 4659 2481 4659 
Q 3169 4659 3637 4309 
Q 4106 3959 4291 3325 
L 3694 3184 
Q 3534 3684 3231 3912 
Q 2928 4141 2469 4141 
Q 1941 4141 1586 3887 
Q 1231 3634 1087 3207 
Q 944 2781 944 2328 
Q 944 1744 1114 1308 
Q 1284 872 1643 656 
Q 2003 441 2422 441 
Q 2931 441 3284 734 
Q 3638 1028 3763 1606 
z
" transform="scale(0.015625)"/>
      <path id="ArialMT-6f" d="M 213 1659 
Q 213 2581 725 3025 
Q 1153 3394 1769 3394 
Q 2453 3394 2887 2945 
Q 3322 2497 3322 1706 
Q 3322 1066 3130 698 
Q 2938 331 2570 128 
Q 2203 -75 1769 -75 
Q 1072 -75 642 372 
Q 213 819 213 1659 
z
M 791 1659 
Q 791 1022 1069 705 
Q 1347 388 1769 388 
Q 2188 388 2466 706 
Q 2744 1025 2744 1678 
Q 2744 2294 2464 2611 
Q 2184 2928 1769 2928 
Q 1347 2928 1069 2612 
Q 791 2297 791 1659 
z
" transform="scale(0.015625)"/>
      <path id="ArialMT-70" d="M 422 -1272 
L 422 3319 
L 934 3319 
L 934 2888 
Q 1116 3141 1344 3267 
Q 1572 3394 1897 3394 
Q 2322 3394 2647 3175 
Q 2972 2956 3137 2557 
Q 3303 2159 3303 1684 
Q 3303 1175 3120 767 
Q 2938 359 2589 142 
Q 2241 -75 1856 -75 
Q 1575 -75 1351 44 
Q 1128 163 984 344 
L 984 -1272 
L 422 -1272 
z
M 931 1641 
Q 931 1000 1190 694 
Q 1450 388 1819 388 
Q 2194 388 2461 705 
Q 2728 1022 2728 1688 
Q 2728 2322 2467 2637 
Q 2206 2953 1844 2953 
Q 1484 2953 1207 2617 
Q 931 2281 931 1641 
z
" transform="scale(0.015625)"/>
      <path id="ArialMT-61" d="M 2588 409 
Q 2275 144 1986 34 
Q 1697 -75 1366 -75 
Q 819 -75 525 192 
Q 231 459 231 875 
Q 231 1119 342 1320 
Q 453 1522 633 1644 
Q 813 1766 1038 1828 
Q 1203 1872 1538 1913 
Q 2219 1994 2541 2106 
Q 2544 2222 2544 2253 
Q 2544 2597 2384 2738 
Q 2169 2928 1744 2928 
Q 1347 2928 1158 2789 
Q 969 2650 878 2297 
L 328 2372 
Q 403 2725 575 2942 
Q 747 3159 1072 3276 
Q 1397 3394 1825 3394 
Q 2250 3394 2515 3294 
Q 2781 3194 2906 3042 
Q 3031 2891 3081 2659 
Q 3109 2516 3109 2141 
L 3109 1391 
Q 3109 606 3145 398 
Q 3181 191 3288 0 
L 2700 0 
Q 2613 175 2588 409 
z
M 2541 1666 
Q 2234 1541 1622 1453 
Q 1275 1403 1131 1340 
Q 988 1278 909 1158 
Q 831 1038 831 891 
Q 831 666 1001 516 
Q 1172 366 1500 366 
Q 1825 366 2078 508 
Q 2331 650 2450 897 
Q 2541 1088 2541 1459 
L 2541 1666 
z
" transform="scale(0.015625)"/>
      <path id="ArialMT-3a" d="M 578 2678 
L 578 3319 
L 1219 3319 
L 1219 2678 
L 578 2678 
z
M 578 0 
L 578 641 
L 1219 641 
L 1219 0 
L 578 0 
z
" transform="scale(0.015625)"/>
      <path id="ArialMT-4f" d="M 309 2231 
Q 309 3372 921 4017 
Q 1534 4663 2503 4663 
Q 3138 4663 3647 4359 
Q 4156 4056 4423 3514 
Q 4691 2972 4691 2284 
Q 4691 1588 4409 1038 
Q 4128 488 3612 205 
Q 3097 -78 2500 -78 
Q 1853 -78 1343 234 
Q 834 547 571 1087 
Q 309 1628 309 2231 
z
M 934 2222 
Q 934 1394 1379 917 
Q 1825 441 2497 441 
Q 3181 441 3623 922 
Q 4066 1403 4066 2288 
Q 4066 2847 3877 3264 
Q 3688 3681 3323 3911 
Q 2959 4141 2506 4141 
Q 1863 4141 1398 3698 
Q 934 3256 934 2222 
z
" transform="scale(0.015625)"/>
      <path id="ArialMT-6c" d="M 409 0 
L 409 4581 
L 972 4581 
L 972 0 
L 409 0 
z
" transform="scale(0.015625)"/>
      <path id="ArialMT-53" d="M 288 1472 
L 859 1522 
Q 900 1178 1048 958 
Q 1197 738 1509 602 
Q 1822 466 2213 466 
Q 2559 466 2825 569 
Q 3091 672 3220 851 
Q 3350 1031 3350 1244 
Q 3350 1459 3225 1620 
Q 3100 1781 2813 1891 
Q 2628 1963 1997 2114 
Q 1366 2266 1113 2400 
Q 784 2572 623 2826 
Q 463 3081 463 3397 
Q 463 3744 659 4045 
Q 856 4347 1234 4503 
Q 1613 4659 2075 4659 
Q 2584 4659 2973 4495 
Q 3363 4331 3572 4012 
Q 3781 3694 3797 3291 
L 3216 3247 
Q 3169 3681 2898 3903 
Q 2628 4125 2100 4125 
Q 1550 4125 1298 3923 
Q 1047 3722 1047 3438 
Q 1047 3191 1225 3031 
Q 1400 2872 2139 2705 
Q 2878 2538 3153 2413 
Q 3553 2228 3743 1945 
Q 3934 1663 3934 1294 
Q 3934 928 3725 604 
Q 3516 281 3123 101 
Q 2731 -78 2241 -78 
Q 1619 -78 1198 103 
Q 778 284 539 648 
Q 300 1013 288 1472 
z
" transform="scale(0.015625)"/>
      <path id="ArialMT-68" d="M 422 0 
L 422 4581 
L 984 4581 
L 984 2938 
Q 1378 3394 1978 3394 
Q 2347 3394 2619 3248 
Q 2891 3103 3008 2847 
Q 3125 2591 3125 2103 
L 3125 0 
L 2563 0 
L 2563 2103 
Q 2563 2525 2380 2717 
Q 2197 2909 1863 2909 
Q 1613 2909 1392 2779 
Q 1172 2650 1078 2428 
Q 984 2206 984 1816 
L 984 0 
L 422 0 
z
" transform="scale(0.015625)"/>
      <path id="ArialMT-75" d="M 2597 0 
L 2597 488 
Q 2209 -75 1544 -75 
Q 1250 -75 995 37 
Q 741 150 617 320 
Q 494 491 444 738 
Q 409 903 409 1263 
L 409 3319 
L 972 3319 
L 972 1478 
Q 972 1038 1006 884 
Q 1059 663 1231 536 
Q 1403 409 1656 409 
Q 1909 409 2131 539 
Q 2353 669 2445 892 
Q 2538 1116 2538 1541 
L 2538 3319 
L 3100 3319 
L 3100 0 
L 2597 0 
z
" transform="scale(0.015625)"/>
      <path id="ArialMT-66" d="M 556 0 
L 556 2881 
L 59 2881 
L 59 3319 
L 556 3319 
L 556 3672 
Q 556 4006 616 4169 
Q 697 4388 901 4523 
Q 1106 4659 1475 4659 
Q 1713 4659 2000 4603 
L 1916 4113 
Q 1741 4144 1584 4144 
Q 1328 4144 1222 4034 
Q 1116 3925 1116 3625 
L 1116 3319 
L 1763 3319 
L 1763 2881 
L 1116 2881 
L 1116 0 
L 556 0 
z
" transform="scale(0.015625)"/>
      <path id="ArialMT-64" d="M 2575 0 
L 2575 419 
Q 2259 -75 1647 -75 
Q 1250 -75 917 144 
Q 584 363 401 755 
Q 219 1147 219 1656 
Q 219 2153 384 2558 
Q 550 2963 881 3178 
Q 1213 3394 1622 3394 
Q 1922 3394 2156 3267 
Q 2391 3141 2538 2938 
L 2538 4581 
L 3097 4581 
L 3097 0 
L 2575 0 
z
M 797 1656 
Q 797 1019 1065 703 
Q 1334 388 1700 388 
Q 2069 388 2326 689 
Q 2584 991 2584 1609 
Q 2584 2291 2321 2609 
Q 2059 2928 1675 2928 
Q 1300 2928 1048 2622 
Q 797 2316 797 1656 
z
" transform="scale(0.015625)"/>
     </defs>
     <use xlink:href="#ArialMT-44"/>
     <use xlink:href="#ArialMT-69" x="72.216797"/>
     <use xlink:href="#ArialMT-76" x="94.433594"/>
     <use xlink:href="#ArialMT-65" x="144.433594"/>
     <use xlink:href="#ArialMT-72" x="200.048828"/>
     <use xlink:href="#ArialMT-67" x="233.349609"/>
     <use xlink:href="#ArialMT-65" x="288.964844"/>
     <use xlink:href="#ArialMT-6e" x="344.580078"/>
     <use xlink:href="#ArialMT-63" x="400.195312"/>
     <use xlink:href="#ArialMT-65" x="450.195312"/>
     <use xlink:href="#ArialMT-20" x="505.810547"/>
     <use xlink:href="#ArialMT-43" x="533.59375"/>
     <use xlink:href="#ArialMT-6f" x="605.810547"/>
     <use xlink:href="#ArialMT-6d" x="661.425781"/>
     <use xlink:href="#ArialMT-70" x="744.726562"/>
     <use xlink:href="#ArialMT-61" x="800.341797"/>
     <use xlink:href="#ArialMT-72" x="855.957031"/>
     <use xlink:href="#ArialMT-69" x="889.257812"/>
     <use xlink:href="#ArialMT-73" x="911.474609"/>
     <use xlink:href="#ArialMT-6f" x="961.474609"/>
     <use xlink:href="#ArialMT-6e" x="1017.089844"/>
     <use xlink:href="#ArialMT-3a" x="1072.705078"/>
     <use xlink:href="#ArialMT-20" x="1100.488281"/>
     <use xlink:href="#ArialMT-4f" x="1128.271484"/>
     <use xlink:href="#ArialMT-72" x="1206.054688"/>
     <use xlink:href="#ArialMT-69" x="1239.355469"/>
     <use xlink:href="#ArialMT-67" x="1261.572266"/>
     <use xlink:href="#ArialMT-69" x="1317.1875"/>
     <use xlink:href="#ArialMT-6e" x="1339.404297"/>
     <use xlink:href="#ArialMT-61" x="1395.019531"/>
     <use xlink:href="#ArialMT-6c" x="1450.634766"/>
     <use xlink:href="#ArialMT-20" x="1472.851562"/>
     <use xlink:href="#ArialMT-76" x="1500.634766"/>
     <use xlink:href="#ArialMT-73" x="1550.634766"/>
     <use xlink:href="#ArialMT-20" x="1600.634766"/>
     <use xlink:href="#ArialMT-53" x="1628.417969"/>
     <use xlink:href="#ArialMT-68" x="1695.117188"/>
     <use xlink:href="#ArialMT-75" x="1750.732422"/>
     <use xlink:href="#ArialMT-66" x="1806.347656"/>
     <use xlink:href="#ArialMT-66" x="1832.380859"/>
     <use xlink:href="#ArialMT-6c" x="1860.164062"/>
     <use xlink:href="#ArialMT-65" x="1882.380859"/>
     <use xlink:href="#ArialMT-64" x="1937.996094"/>
    </g>
   </g>
   <g id="legend_1">
    <g id="patch_5">
     <path d="M 615.14 258.915469 
L 704.741875 258.915469 
Q 706.941875 258.915469 706.941875 256.715469 
L 706.941875 147.784531 
Q 706.941875 145.584531 704.741875 145.584531 
L 615.14 145.584531 
Q 612.94 145.584531 612.94 147.784531 
L 612.94 256.715469 
Q 612.94 258.915469 615.14 258.915469 
z
" style="fill: #ffffff; opacity: 0.8; stroke: #cccccc; stroke-linejoin: miter"/>
    </g>
    <g id="line2d_9">
     <path d="M 617.34 154.149062 
L 628.34 154.149062 
L 639.34 154.149062 
" style="fill: none; stroke: #8b0a50; stroke-width: 2; stroke-linecap: round"/>
    </g>
    <g id="text_17">
     <!-- Original -->
     <g style="fill: #262626" transform="translate(648.14 157.999062) scale(0.11 -0.11)">
      <use xlink:href="#ArialMT-4f"/>
      <use xlink:href="#ArialMT-72" x="77.783203"/>
      <use xlink:href="#ArialMT-69" x="111.083984"/>
      <use xlink:href="#ArialMT-67" x="133.300781"/>
      <use xlink:href="#ArialMT-69" x="188.916016"/>
      <use xlink:href="#ArialMT-6e" x="211.132812"/>
      <use xlink:href="#ArialMT-61" x="266.748047"/>
      <use xlink:href="#ArialMT-6c" x="322.363281"/>
     </g>
    </g>
    <g id="line2d_10">
     <path d="M 617.34 169.97875 
L 628.34 169.97875 
L 639.34 169.97875 
" style="fill: none; stroke-dasharray: 7.4,3.2; stroke-dashoffset: 0; stroke: #8b0a50; stroke-width: 2"/>
    </g>
    <g id="text_18">
     <!-- Original -->
     <g style="fill: #262626" transform="translate(648.14 173.82875) scale(0.11 -0.11)">
      <use xlink:href="#ArialMT-4f"/>
      <use xlink:href="#ArialMT-72" x="77.783203"/>
      <use xlink:href="#ArialMT-69" x="111.083984"/>
      <use xlink:href="#ArialMT-67" x="133.300781"/>
      <use xlink:href="#ArialMT-69" x="188.916016"/>
      <use xlink:href="#ArialMT-6e" x="211.132812"/>
      <use xlink:href="#ArialMT-61" x="266.748047"/>
      <use xlink:href="#ArialMT-6c" x="322.363281"/>
     </g>
    </g>
    <g id="PathCollection_3">
     <g>
      <use xlink:href="#m6d796c2664" x="628.34" y="186.662656" style="fill: #8b0a50; stroke: #8b0a50"/>
     </g>
    </g>
    <g id="text_19">
     <!-- p &lt; 0.001 -->
     <g style="fill: #262626" transform="translate(648.14 189.550156) scale(0.11 -0.11)">
      <defs>
       <path id="ArialMT-3c" d="M 350 2003 
L 350 2528 
L 3384 3809 
L 3384 3250 
L 978 2263 
L 3384 1266 
L 3384 706 
L 350 2003 
z
" transform="scale(0.015625)"/>
      </defs>
      <use xlink:href="#ArialMT-70"/>
      <use xlink:href="#ArialMT-20" x="55.615234"/>
      <use xlink:href="#ArialMT-3c" x="83.398438"/>
      <use xlink:href="#ArialMT-20" x="141.796875"/>
      <use xlink:href="#ArialMT-30" x="169.580078"/>
      <use xlink:href="#ArialMT-2e" x="225.195312"/>
      <use xlink:href="#ArialMT-30" x="252.978516"/>
      <use xlink:href="#ArialMT-30" x="308.59375"/>
      <use xlink:href="#ArialMT-31" x="364.208984"/>
     </g>
    </g>
    <g id="line2d_11">
     <path d="M 617.34 201.26 
L 628.34 201.26 
L 639.34 201.26 
" style="fill: none; stroke-dasharray: 5.55,2.4; stroke-dashoffset: 0; stroke: #1a1a1a; stroke-width: 1.5"/>
    </g>
    <g id="text_20">
     <!-- Stim Onset -->
     <g style="fill: #262626" transform="translate(648.14 205.11) scale(0.11 -0.11)">
      <defs>
       <path id="ArialMT-74" d="M 1650 503 
L 1731 6 
Q 1494 -44 1306 -44 
Q 1000 -44 831 53 
Q 663 150 594 308 
Q 525 466 525 972 
L 525 2881 
L 113 2881 
L 113 3319 
L 525 3319 
L 525 4141 
L 1084 4478 
L 1084 3319 
L 1650 3319 
L 1650 2881 
L 1084 2881 
L 1084 941 
Q 1084 700 1114 631 
Q 1144 563 1211 522 
Q 1278 481 1403 481 
Q 1497 481 1650 503 
z
" transform="scale(0.015625)"/>
      </defs>
      <use xlink:href="#ArialMT-53"/>
      <use xlink:href="#ArialMT-74" x="66.699219"/>
      <use xlink:href="#ArialMT-69" x="94.482422"/>
      <use xlink:href="#ArialMT-6d" x="116.699219"/>
      <use xlink:href="#ArialMT-20" x="200"/>
      <use xlink:href="#ArialMT-4f" x="227.783203"/>
      <use xlink:href="#ArialMT-6e" x="305.566406"/>
      <use xlink:href="#ArialMT-73" x="361.181641"/>
      <use xlink:href="#ArialMT-65" x="411.181641"/>
      <use xlink:href="#ArialMT-74" x="466.796875"/>
     </g>
    </g>
    <g id="line2d_12">
     <path d="M 617.34 216.819844 
L 628.34 216.819844 
L 639.34 216.819844 
" style="fill: none; stroke-dasharray: 5.55,2.4; stroke-dashoffset: 0; stroke: #1a1a1a; stroke-width: 1.5"/>
    </g>
    <g id="text_21">
     <!-- Stim End -->
     <g style="fill: #262626" transform="translate(648.14 220.669844) scale(0.11 -0.11)">
      <defs>
       <path id="ArialMT-45" d="M 506 0 
L 506 4581 
L 3819 4581 
L 3819 4041 
L 1113 4041 
L 1113 2638 
L 3647 2638 
L 3647 2100 
L 1113 2100 
L 1113 541 
L 3925 541 
L 3925 0 
L 506 0 
z
" transform="scale(0.015625)"/>
      </defs>
      <use xlink:href="#ArialMT-53"/>
      <use xlink:href="#ArialMT-74" x="66.699219"/>
      <use xlink:href="#ArialMT-69" x="94.482422"/>
      <use xlink:href="#ArialMT-6d" x="116.699219"/>
      <use xlink:href="#ArialMT-20" x="200"/>
      <use xlink:href="#ArialMT-45" x="227.783203"/>
      <use xlink:href="#ArialMT-6e" x="294.482422"/>
      <use xlink:href="#ArialMT-64" x="350.097656"/>
     </g>
    </g>
    <g id="line2d_13">
     <path d="M 617.34 232.520625 
L 628.34 232.520625 
L 639.34 232.520625 
" style="fill: none; stroke: #eb6ab0; stroke-width: 2; stroke-linecap: round"/>
    </g>
    <g id="text_22">
     <!-- Original -->
     <g style="fill: #262626" transform="translate(648.14 236.370625) scale(0.11 -0.11)">
      <use xlink:href="#ArialMT-4f"/>
      <use xlink:href="#ArialMT-72" x="77.783203"/>
      <use xlink:href="#ArialMT-69" x="111.083984"/>
      <use xlink:href="#ArialMT-67" x="133.300781"/>
      <use xlink:href="#ArialMT-69" x="188.916016"/>
      <use xlink:href="#ArialMT-6e" x="211.132812"/>
      <use xlink:href="#ArialMT-61" x="266.748047"/>
      <use xlink:href="#ArialMT-6c" x="322.363281"/>
     </g>
    </g>
    <g id="line2d_14">
     <path d="M 617.34 248.350313 
L 628.34 248.350313 
L 639.34 248.350313 
" style="fill: none; stroke-dasharray: 7.4,3.2; stroke-dashoffset: 0; stroke: #eb6ab0; stroke-width: 2"/>
    </g>
    <g id="text_23">
     <!-- Original -->
     <g style="fill: #262626" transform="translate(648.14 252.200312) scale(0.11 -0.11)">
      <use xlink:href="#ArialMT-4f"/>
      <use xlink:href="#ArialMT-72" x="77.783203"/>
      <use xlink:href="#ArialMT-69" x="111.083984"/>
      <use xlink:href="#ArialMT-67" x="133.300781"/>
      <use xlink:href="#ArialMT-69" x="188.916016"/>
      <use xlink:href="#ArialMT-6e" x="211.132812"/>
      <use xlink:href="#ArialMT-61" x="266.748047"/>
      <use xlink:href="#ArialMT-6c" x="322.363281"/>
     </g>
    </g>
   </g>
  </g>
 </g>
 <defs>
  <clipPath id="pa7347e9c2a">
   <rect x="69.71" y="26.96" width="537.73" height="350.58"/>
  </clipPath>
 </defs>
</svg>
