<?xml version="1.0" encoding="utf-8"?>
<!-- Generator: Adobe Illustrator 23.0.2, SVG Export Plug-In . SVG Version: 6.00 Build 0)  -->
<svg version="1.1" id="图层_1" xmlns="http://www.w3.org/2000/svg" xmlns:xlink="http://www.w3.org/1999/xlink" x="0px" y="0px"
	 viewBox="0 0 432 288" style="enable-background:new 0 0 432 288;" xml:space="preserve">
<style type="text/css">
	.st0{fill:#FFFFFF;}
	.st1{clip-path:url(#SVGID_2_);}
	.st2{fill:#262626;stroke:#262626;stroke-width:0.5;stroke-linejoin:round;}
	.st3{fill:#262626;}
	.st4{fill:none;stroke:#CCCCCC;stroke-width:0.5;stroke-linecap:square;}
</style>
<g id="figure_1">
	<g id="axes_1">
		<g id="patch_2">
			<path class="st0" d="M61.7,252h319.4V34.6H61.7V252z"/>
		</g>
		<g>
			<defs>
				<rect id="SVGID_1_" x="61.7" y="34.6" width="319.4" height="217.4"/>
			</defs>
			<clipPath id="SVGID_2_">
				<use xlink:href="#SVGID_1_"  style="overflow:visible;"/>
			</clipPath>
			<g class="st1">
				
					<image style="overflow:visible;enable-background:new    ;" width="320" height="218" id="image23b6f8eceb" xlink:href="48170E23.png"  transform="matrix(1 0 0 -1 61.7175 252)">
				</image>
			</g>
		</g>
		<g id="matplotlib.axis_1">
			<g id="xtick_1">
				<g id="line2d_1">
					<g>
						<g>
							<path id="m025b5bade8" class="st2" d="M121.2,252v3"/>
						</g>
					</g>
				</g>
				<g id="text_1">
					<g transform="translate(100.388906 266.373594) scale(0.11 -0.11)">
						<g>
							<path id="ArialMT-73" class="st3" d="M3.1,15.5l8.7,1.4c0.5-3.5,1.8-6.1,4.1-8s5.3-2.8,9.4-2.8c4,0,7,0.8,9,2.5
								c2,1.6,2.9,3.6,2.9,5.8c0,2-0.9,3.5-2.6,4.7c-1.2,0.8-4.2,1.8-9,3c-6.4,1.6-10.9,3-13.4,4.2S7.8,29,6.5,31.1
								c-1.3,2.1-1.9,4.4-1.9,7c0,2.3,0.5,4.4,1.6,6.4c1.1,2,2.5,3.6,4.3,4.9c1.4,1,3.2,1.8,5.6,2.5c2.4,0.7,4.9,1.1,7.6,1.1
								c4.1,0,7.6-0.6,10.7-1.8c3.1-1.2,5.4-2.8,6.8-4.8c1.5-2,2.5-4.7,3-8l-8.6-1.2c-0.4,2.7-1.5,4.7-3.4,6.2
								c-1.9,1.5-4.5,2.3-7.9,2.3c-4,0-6.9-0.7-8.6-2S13,40.9,13,39.1c0-1.1,0.4-2.2,1.1-3.1c0.7-0.9,1.8-1.7,3.4-2.3
								c0.9-0.3,3.5-1.1,7.8-2.2c6.2-1.7,10.6-3,13-4.1c2.5-1.1,4.4-2.6,5.8-4.6c1.4-2,2.1-4.5,2.1-7.5c0-2.9-0.9-5.7-2.6-8.3
								c-1.7-2.6-4.2-4.6-7.4-6C33-0.5,29.3-1.2,25.3-1.2C18.5-1.2,13.4,0.2,9.8,3S4.1,10,3.1,15.5z"/>
						</g>
						<g>
							<path id="ArialMT-74" class="st3" d="M75.8,7.9L77,0.1c-2.5-0.5-4.7-0.8-6.6-0.8c-3.2,0-5.7,0.5-7.4,1.5c-1.8,1-3,2.3-3.7,4
								s-1.1,5.1-1.1,10.4V45h-6.4v6.8h6.4v12.8l8.7,5.3V51.9h8.8V45h-8.8V14.7c0-2.5,0.2-4.1,0.5-4.8c0.3-0.7,0.8-1.3,1.5-1.7
								c0.7-0.4,1.7-0.6,3-0.6C72.9,7.5,74.2,7.6,75.8,7.9z"/>
						</g>
						<g>
							<path id="ArialMT-69" class="st3" d="M84.4,61.5v10.1h8.8V61.5H84.4z M84.4,0v51.9h8.8V0H84.4z"/>
						</g>
						<g>
							<path id="ArialMT-6d" class="st3" d="M106.6,0v51.9h7.9v-7.3c1.6,2.5,3.8,4.6,6.5,6.1c2.7,1.6,5.8,2.3,9.2,2.3
								c3.8,0,7-0.8,9.5-2.4s4.2-3.8,5.2-6.7c4.1,6.1,9.4,9.1,16,9.1c5.1,0,9.1-1.4,11.9-4.3c2.8-2.8,4.2-7.2,4.2-13.2V0h-8.8v32.7
								c0,3.5-0.3,6-0.9,7.6c-0.6,1.6-1.6,2.8-3.1,3.7c-1.5,0.9-3.2,1.4-5.3,1.4c-3.6,0-6.7-1.2-9.1-3.6c-2.4-2.4-3.6-6.3-3.6-11.6
								V0h-8.8v33.7c0,3.9-0.7,6.8-2.2,8.8c-1.4,2-3.8,2.9-7,2.9c-2.5,0-4.8-0.7-6.9-2c-2.1-1.3-3.6-3.2-4.6-5.7
								c-0.9-2.5-1.4-6.1-1.4-10.8V0H106.6z"/>
						</g>
						<g>
							<path id="ArialMT-31" class="st3" d="M220.6,0h-8.8v56c-2.1-2-4.9-4-8.3-6s-6.5-3.5-9.3-4.5v8.5c4.9,2.3,9.2,5.1,12.9,8.4
								c3.7,3.3,6.3,6.5,7.8,9.6h5.7V0z"/>
						</g>
						<g>
							<path id="ArialMT-20" class="st3" d="M238.9,0"/>
						</g>
						<g>
							<path id="ArialMT-6f" class="st3" d="M270,25.9c0,9.6,2.7,16.7,8,21.3c4.5,3.8,9.9,5.8,16.3,5.8c7.1,0,12.9-2.3,17.5-7
								c4.5-4.7,6.8-11.1,6.8-19.4c0-6.7-1-11.9-3-15.8c-2-3.8-4.9-6.8-8.8-8.9c-3.8-2.1-8-3.2-12.5-3.2c-7.3,0-13.1,2.3-17.6,7
								C272.3,10.5,270,17.2,270,25.9z M279.1,25.9c0-6.6,1.4-11.6,4.3-14.9s6.5-5,10.9-5c4.4,0,8,1.7,10.9,5
								c2.9,3.3,4.3,8.4,4.3,15.2c0,6.4-1.5,11.3-4.4,14.6s-6.5,5-10.9,5c-4.4,0-8-1.6-10.9-4.9C280.5,37.5,279.1,32.6,279.1,25.9z"
								/>
						</g>
						<g>
							<path id="ArialMT-6e" class="st3" d="M328.9,0v51.9h7.9v-7.4c3.8,5.7,9.3,8.5,16.5,8.5c3.1,0,6-0.6,8.6-1.7s4.6-2.6,5.9-4.4
								s2.2-4,2.7-6.5c0.3-1.6,0.5-4.5,0.5-8.5V0h-8.8v31.5c0,3.6-0.3,6.3-1,8c-0.7,1.8-1.9,3.2-3.6,4.2c-1.7,1.1-3.8,1.6-6.1,1.6
								c-3.8,0-7-1.2-9.7-3.6s-4.1-6.9-4.1-13.5V0H328.9z"/>
						</g>
					</g>
				</g>
			</g>
			<g id="xtick_2">
				<g id="line2d_2">
					<g>
						<g>
							<path class="st2" d="M291,252v3"/>
						</g>
					</g>
				</g>
				<g id="text_2">
					<g transform="translate(267.205391 266.373594) scale(0.11 -0.11)">
						<g>
							<path class="st3" d="M3.1,15.5l8.7,1.4c0.5-3.5,1.8-6.1,4.1-8s5.3-2.8,9.4-2.8c4,0,7,0.8,9,2.5c2,1.6,2.9,3.6,2.9,5.8
								c0,2-0.9,3.5-2.6,4.7c-1.2,0.8-4.2,1.8-9,3c-6.4,1.6-10.9,3-13.4,4.2S7.8,29,6.5,31.1c-1.3,2.1-1.9,4.4-1.9,7
								c0,2.3,0.5,4.4,1.6,6.4c1.1,2,2.5,3.6,4.3,4.9c1.4,1,3.2,1.8,5.6,2.5c2.4,0.7,4.9,1.1,7.6,1.1c4.1,0,7.6-0.6,10.7-1.8
								c3.1-1.2,5.4-2.8,6.8-4.8c1.5-2,2.5-4.7,3-8l-8.6-1.2c-0.4,2.7-1.5,4.7-3.4,6.2c-1.9,1.5-4.5,2.3-7.9,2.3c-4,0-6.9-0.7-8.6-2
								c-1.7-1.3-2.6-2.9-2.6-4.7c0-1.1,0.4-2.2,1.1-3.1c0.7-0.9,1.8-1.7,3.4-2.3c0.9-0.3,3.5-1.1,7.8-2.2c6.2-1.7,10.6-3,13-4.1
								c2.5-1.1,4.4-2.6,5.8-4.6c1.4-2,2.1-4.5,2.1-7.5c0-2.9-0.9-5.7-2.6-8.3c-1.7-2.6-4.2-4.6-7.4-6C33-0.5,29.3-1.2,25.3-1.2
								C18.5-1.2,13.4,0.2,9.8,3S4.1,10,3.1,15.5z"/>
						</g>
						<g>
							<path class="st3" d="M75.8,7.9L77,0.1c-2.5-0.5-4.7-0.8-6.6-0.8c-3.2,0-5.7,0.5-7.4,1.5c-1.8,1-3,2.3-3.7,4
								s-1.1,5.1-1.1,10.4V45h-6.4v6.8h6.4v12.8l8.7,5.3V51.9h8.8V45h-8.8V14.7c0-2.5,0.2-4.1,0.5-4.8c0.3-0.7,0.8-1.3,1.5-1.7
								c0.7-0.4,1.7-0.6,3-0.6C72.9,7.5,74.2,7.6,75.8,7.9z"/>
						</g>
						<g>
							<path class="st3" d="M84.4,61.5v10.1h8.8V61.5H84.4z M84.4,0v51.9h8.8V0H84.4z"/>
						</g>
						<g>
							<path class="st3" d="M106.6,0v51.9h7.9v-7.3c1.6,2.5,3.8,4.6,6.5,6.1c2.7,1.6,5.8,2.3,9.2,2.3c3.8,0,7-0.8,9.5-2.4
								s4.2-3.8,5.2-6.7c4.1,6.1,9.4,9.1,16,9.1c5.1,0,9.1-1.4,11.9-4.3c2.8-2.8,4.2-7.2,4.2-13.2V0h-8.8v32.7c0,3.5-0.3,6-0.9,7.6
								c-0.6,1.6-1.6,2.8-3.1,3.7c-1.5,0.9-3.2,1.4-5.3,1.4c-3.6,0-6.7-1.2-9.1-3.6c-2.4-2.4-3.6-6.3-3.6-11.6V0h-8.8v33.7
								c0,3.9-0.7,6.8-2.2,8.8c-1.4,2-3.8,2.9-7,2.9c-2.5,0-4.8-0.7-6.9-2c-2.1-1.3-3.6-3.2-4.6-5.7c-0.9-2.5-1.4-6.1-1.4-10.8V0
								H106.6z"/>
						</g>
						<g>
							<path class="st3" d="M220.6,0h-8.8v56c-2.1-2-4.9-4-8.3-6s-6.5-3.5-9.3-4.5v8.5c4.9,2.3,9.2,5.1,12.9,8.4
								c3.7,3.3,6.3,6.5,7.8,9.6h5.7V0z"/>
						</g>
						<g>
							<path class="st3" d="M238.9,0"/>
						</g>
						<g>
							<path id="ArialMT-65" class="st3" d="M308.8,16.7l9.1-1.1c-1.4-5.3-4.1-9.4-8-12.4c-3.9-2.9-8.8-4.4-14.8-4.4
								c-7.6,0-13.6,2.3-18,7c-4.4,4.7-6.7,11.2-6.7,19.7c0,8.7,2.2,15.5,6.7,20.3c4.5,4.8,10.3,7.2,17.5,7.2c6.9,0,12.6-2.4,17-7.1
								s6.6-11.4,6.6-19.9c0-0.5,0-1.3,0-2.3h-38.7c0.3-5.7,1.9-10.1,4.8-13.1c2.9-3,6.5-4.5,10.8-4.5c3.2,0,6,0.8,8.3,2.5
								C305.7,10.3,307.5,13,308.8,16.7z M279.9,30.9h29c-0.4,4.4-1.5,7.6-3.3,9.8c-2.8,3.4-6.4,5.1-10.9,5.1c-4,0-7.4-1.3-10.2-4
								S280.2,35.4,279.9,30.9z"/>
						</g>
						<g>
							<path class="st3" d="M328.9,0v51.9h7.9v-7.4c3.8,5.7,9.3,8.5,16.5,8.5c3.1,0,6-0.6,8.6-1.7s4.6-2.6,5.9-4.4s2.2-4,2.7-6.5
								c0.3-1.6,0.5-4.5,0.5-8.5V0h-8.8v31.5c0,3.6-0.3,6.3-1,8c-0.7,1.8-1.9,3.2-3.6,4.2c-1.7,1.1-3.8,1.6-6.1,1.6
								c-3.8,0-7-1.2-9.7-3.6s-4.1-6.9-4.1-13.5V0H328.9z"/>
						</g>
						<g>
							<path id="ArialMT-64" class="st3" d="M418.2,0v6.5c-3.3-5.1-8.1-7.7-14.5-7.7c-4.1,0-7.9,1.1-11.4,3.4s-6.2,5.5-8.1,9.5
								c-1.9,4.1-2.8,8.8-2.8,14.1c0,5.2,0.9,9.9,2.6,14.1c1.7,4.2,4.3,7.4,7.8,9.7c3.5,2.3,7.3,3.4,11.6,3.4c3.1,0,5.9-0.7,8.3-2
								c2.4-1.3,4.4-3,6-5.1v25.7h8.7V0H418.2z M390.4,25.9c0-6.6,1.4-11.6,4.2-14.9c2.8-3.3,6.1-4.9,9.9-4.9c3.8,0,7.1,1.6,9.8,4.7
								c2.7,3.1,4,7.9,4,14.4c0,7.1-1.4,12.3-4.1,15.6c-2.7,3.3-6.1,5-10.1,5c-3.9,0-7.2-1.6-9.8-4.8
								C391.7,37.8,390.4,32.7,390.4,25.9z"/>
						</g>
					</g>
				</g>
			</g>
		</g>
		<g id="matplotlib.axis_2">
			<g id="ytick_1">
				<g id="line2d_3">
					<g>
						<g>
							<path id="mba376fafe2" class="st2" d="M61.7,36.3h-3"/>
						</g>
					</g>
				</g>
				<g id="text_3">
					<g transform="translate(49.100469 40.195547) scale(0.11 -0.11)">
						<g>
							<path id="ArialMT-30" class="st3" d="M4.2,35.3c0,8.5,0.9,15.3,2.6,20.4c1.7,5.2,4.3,9.1,7.8,11.9c3.4,2.8,7.8,4.2,13,4.2
								c3.8,0,7.2-0.8,10.1-2.3c2.9-1.5,5.3-3.8,7.2-6.7c1.9-2.9,3.4-6.5,4.5-10.6c1.1-4.2,1.6-9.8,1.6-16.9
								c0-8.4-0.9-15.2-2.6-20.3c-1.7-5.2-4.3-9.1-7.7-12c-3.4-2.8-7.8-4.2-13-4.2c-6.9,0-12.3,2.5-16.3,7.4
								C6.5,12.2,4.2,21.9,4.2,35.3z M13.2,35.3c0-11.8,1.4-19.6,4.1-23.5C20.1,7.9,23.5,6,27.5,6c4,0,7.4,2,10.2,5.9
								s4.1,11.7,4.1,23.4c0,11.8-1.4,19.6-4.1,23.5c-2.8,3.9-6.2,5.8-10.3,5.8c-4,0-7.3-1.7-9.7-5.1C14.7,55.1,13.2,47.1,13.2,35.3
								z"/>
						</g>
					</g>
				</g>
			</g>
			<g id="ytick_2">
				<g id="line2d_4">
					<g>
						<g>
							<path class="st2" d="M61.7,70.2h-3"/>
						</g>
					</g>
				</g>
				<g id="text_4">
					<g transform="translate(42.983438 74.170547) scale(0.11 -0.11)">
						<g>
							<path class="st3" d="M37.2,0h-8.8v56c-2.1-2-4.9-4-8.3-6s-6.5-3.5-9.3-4.5v8.5c4.9,2.3,9.2,5.1,12.9,8.4
								c3.7,3.3,6.3,6.5,7.8,9.6h5.7V0z"/>
						</g>
						<g>
							<path class="st3" d="M59.8,35.3c0,8.5,0.9,15.3,2.6,20.4c1.7,5.2,4.3,9.1,7.7,11.9c3.4,2.8,7.8,4.2,13,4.2
								c3.8,0,7.2-0.8,10.1-2.3c2.9-1.5,5.3-3.8,7.2-6.7c1.9-2.9,3.4-6.5,4.5-10.6c1.1-4.2,1.6-9.8,1.6-16.9
								c0-8.4-0.9-15.2-2.6-20.3c-1.7-5.2-4.3-9.1-7.7-12c-3.4-2.8-7.8-4.2-13-4.2c-6.9,0-12.3,2.5-16.3,7.4
								C62.1,12.2,59.8,21.9,59.8,35.3z M68.8,35.3c0-11.7,1.4-19.6,4.1-23.5C75.7,7.9,79.1,6,83.1,6c4,0,7.4,2,10.2,5.9
								s4.1,11.7,4.1,23.4c0,11.8-1.4,19.6-4.1,23.5c-2.8,3.9-6.2,5.8-10.3,5.8c-4,0-7.3-1.7-9.7-5.1C70.3,55.1,68.8,47.1,68.8,35.3
								z"/>
						</g>
					</g>
				</g>
			</g>
			<g id="ytick_3">
				<g id="line2d_5">
					<g>
						<g>
							<path class="st2" d="M61.7,104.2h-3"/>
						</g>
					</g>
				</g>
				<g id="text_5">
					<g transform="translate(42.983438 108.145547) scale(0.11 -0.11)">
						<g>
							<path id="ArialMT-32" class="st3" d="M50.3,8.5V0H3C3,2.1,3.3,4.2,4,6.1c1.2,3.2,3.1,6.4,5.8,9.5c2.7,3.1,6.5,6.7,11.5,10.8
								c7.8,6.4,13,11.4,15.8,15.2c2.7,3.7,4.1,7.3,4.1,10.6c0,3.5-1.3,6.4-3.8,8.8c-2.5,2.4-5.7,3.6-9.7,3.6
								c-4.2,0-7.6-1.3-10.2-3.8c-2.5-2.5-3.8-6-3.9-10.5l-9,0.9c0.6,6.7,2.9,11.9,7,15.4c4,3.5,9.5,5.3,16.3,5.3
								c6.9,0,12.3-1.9,16.3-5.7c4-3.8,6-8.5,6-14.2c0-2.9-0.6-5.7-1.8-8.5c-1.2-2.8-3.1-5.7-5.8-8.7s-7.2-7.3-13.5-12.6
								c-5.3-4.4-8.7-7.4-10.2-9c-1.5-1.6-2.7-3.2-3.7-4.8H50.3z"/>
						</g>
						<g>
							<path class="st3" d="M59.8,35.3c0,8.5,0.9,15.3,2.6,20.4c1.7,5.2,4.3,9.1,7.7,11.9c3.4,2.8,7.8,4.2,13,4.2
								c3.8,0,7.2-0.8,10.1-2.3c2.9-1.5,5.3-3.8,7.2-6.7c1.9-2.9,3.4-6.5,4.5-10.6c1.1-4.2,1.6-9.8,1.6-16.9
								c0-8.4-0.9-15.2-2.6-20.3c-1.7-5.2-4.3-9.1-7.7-12c-3.4-2.8-7.8-4.2-13-4.2c-6.9,0-12.3,2.5-16.3,7.4
								C62.1,12.2,59.8,21.9,59.8,35.3z M68.8,35.3c0-11.8,1.4-19.6,4.1-23.5C75.7,7.9,79.1,6,83.1,6c4,0,7.4,2,10.2,5.9
								s4.1,11.7,4.1,23.4c0,11.8-1.4,19.6-4.1,23.5c-2.8,3.9-6.2,5.8-10.3,5.8c-4,0-7.3-1.7-9.7-5.1C70.3,55.1,68.8,47.1,68.8,35.3
								z"/>
						</g>
					</g>
				</g>
			</g>
			<g id="ytick_4">
				<g id="line2d_6">
					<g>
						<g>
							<path class="st2" d="M61.7,138.2h-3"/>
						</g>
					</g>
				</g>
				<g id="text_6">
					<g transform="translate(42.983438 142.120547) scale(0.11 -0.11)">
						<g>
							<path id="ArialMT-33" class="st3" d="M4.2,18.9l8.8,1.2c1-5,2.7-8.6,5.2-10.8S23.5,6,27,6c4.1,0,7.6,1.4,10.5,4.3
								c2.9,2.9,4.3,6.4,4.3,10.7c0,4-1.3,7.4-4,10c-2.6,2.6-6,3.9-10.1,3.9c-1.7,0-3.7-0.3-6.2-1l1,7.7c0.6-0.1,1.1-0.1,1.4-0.1
								c3.8,0,7.1,1,10.1,2.9c3,2,4.5,5,4.5,9c0,3.2-1.1,5.9-3.3,8c-2.2,2.1-5,3.2-8.4,3.2c-3.4,0-6.3-1.1-8.5-3.2
								c-2.3-2.1-3.7-5.4-4.4-9.7l-8.8,1.6c1.1,5.9,3.5,10.4,7.3,13.7c3.8,3.2,8.6,4.9,14.2,4.9c3.9,0,7.5-0.8,10.8-2.5
								c3.3-1.7,5.8-4,7.5-6.9c1.8-2.9,2.6-6,2.6-9.2c0-3.1-0.8-5.9-2.5-8.4c-1.7-2.5-4.1-4.6-7.4-6.1c4.2-1,7.5-3,9.9-6.1
								c2.3-3.1,3.5-6.9,3.5-11.5c0-6.3-2.3-11.5-6.8-15.9C39.7,0.9,33.9-1.3,27-1.3c-6.3,0-11.5,1.9-15.7,5.6
								C7.2,8.1,4.8,12.9,4.2,18.9z"/>
						</g>
						<g>
							<path class="st3" d="M59.8,35.3c0,8.5,0.9,15.3,2.6,20.4c1.7,5.2,4.3,9.1,7.7,11.9c3.4,2.8,7.8,4.2,13,4.2
								c3.8,0,7.2-0.8,10.1-2.3c2.9-1.5,5.3-3.8,7.2-6.7c1.9-2.9,3.4-6.5,4.5-10.6c1.1-4.2,1.6-9.8,1.6-16.9
								c0-8.4-0.9-15.2-2.6-20.3c-1.7-5.2-4.3-9.1-7.7-12c-3.4-2.8-7.8-4.2-13-4.2c-6.9,0-12.3,2.5-16.3,7.4
								C62.1,12.2,59.8,21.9,59.8,35.3z M68.8,35.3c0-11.7,1.4-19.6,4.1-23.5C75.7,7.9,79.1,6,83.1,6c4,0,7.4,2,10.2,5.9
								s4.1,11.7,4.1,23.4c0,11.8-1.4,19.6-4.1,23.5c-2.8,3.9-6.2,5.8-10.3,5.8c-4,0-7.3-1.7-9.7-5.1C70.3,55.1,68.8,47.1,68.8,35.3
								z"/>
						</g>
					</g>
				</g>
			</g>
			<g id="ytick_5">
				<g id="line2d_7">
					<g>
						<g>
							<path class="st2" d="M61.7,172.2h-3"/>
						</g>
					</g>
				</g>
				<g id="text_7">
					<g transform="translate(42.983438 176.095547) scale(0.11 -0.11)">
						<g>
							<path id="ArialMT-34" class="st3" d="M32.3,0v17.1H1.3v8.1l32.7,46.4h7.2V25.2h9.7v-8.1h-9.7V0H32.3z M32.3,25.2v32.3
								L9.9,25.2H32.3z"/>
						</g>
						<g>
							<path class="st3" d="M59.8,35.3c0,8.5,0.9,15.3,2.6,20.4c1.7,5.2,4.3,9.1,7.7,11.9c3.4,2.8,7.8,4.2,13,4.2
								c3.8,0,7.2-0.8,10.1-2.3c2.9-1.5,5.3-3.8,7.2-6.7c1.9-2.9,3.4-6.5,4.5-10.6c1.1-4.2,1.6-9.8,1.6-16.9
								c0-8.4-0.9-15.2-2.6-20.3c-1.7-5.2-4.3-9.1-7.7-12c-3.4-2.8-7.8-4.2-13-4.2c-6.9,0-12.3,2.5-16.3,7.4
								C62.1,12.2,59.8,21.9,59.8,35.3z M68.8,35.3c0-11.8,1.4-19.6,4.1-23.5C75.7,7.9,79.1,6,83.1,6c4,0,7.4,2,10.2,5.9
								s4.1,11.7,4.1,23.4c0,11.8-1.4,19.6-4.1,23.5c-2.8,3.9-6.2,5.8-10.3,5.8c-4,0-7.3-1.7-9.7-5.1C70.3,55.1,68.8,47.1,68.8,35.3
								z"/>
						</g>
					</g>
				</g>
			</g>
			<g id="ytick_6">
				<g id="line2d_8">
					<g>
						<g>
							<path class="st2" d="M61.7,206.1h-3"/>
						</g>
					</g>
				</g>
				<g id="text_8">
					<g transform="translate(42.983438 210.070547) scale(0.11 -0.11)">
						<g>
							<path id="ArialMT-35" class="st3" d="M4.2,18.7l9.2,0.8c0.7-4.5,2.3-7.9,4.8-10.1c2.5-2.3,5.5-3.4,9-3.4
								c4.2,0,7.8,1.6,10.7,4.8c2.9,3.2,4.4,7.4,4.4,12.7c0,5-1.4,9-4.2,11.9c-2.8,2.9-6.5,4.4-11.1,4.4c-2.8,0-5.4-0.6-7.7-1.9
								c-2.3-1.3-4.1-2.9-5.4-5l-8.3,1.1l6.9,36.8h35.6v-8.4H19.7L15.8,43c4.3,3,8.8,4.5,13.5,4.5c6.3,0,11.5-2.2,15.8-6.5
								c4.3-4.3,6.5-9.9,6.5-16.7c0-6.5-1.9-12.1-5.7-16.8c-4.6-5.8-10.9-8.7-18.8-8.7c-6.5,0-11.8,1.8-16,5.5
								C7.1,7.9,4.7,12.7,4.2,18.7z"/>
						</g>
						<g>
							<path class="st3" d="M59.8,35.3c0,8.5,0.9,15.3,2.6,20.4c1.7,5.2,4.3,9.1,7.7,11.9c3.4,2.8,7.8,4.2,13,4.2
								c3.8,0,7.2-0.8,10.1-2.3c2.9-1.5,5.3-3.8,7.2-6.7c1.9-2.9,3.4-6.5,4.5-10.6c1.1-4.2,1.6-9.8,1.6-16.9
								c0-8.4-0.9-15.2-2.6-20.3c-1.7-5.2-4.3-9.1-7.7-12c-3.4-2.8-7.8-4.2-13-4.2c-6.9,0-12.3,2.5-16.3,7.4
								C62.1,12.2,59.8,21.9,59.8,35.3z M68.8,35.3c0-11.8,1.4-19.6,4.1-23.5C75.7,7.9,79.1,6,83.1,6c4,0,7.4,2,10.2,5.9
								s4.1,11.7,4.1,23.4c0,11.8-1.4,19.6-4.1,23.5c-2.8,3.9-6.2,5.8-10.3,5.8c-4,0-7.3-1.7-9.7-5.1C70.3,55.1,68.8,47.1,68.8,35.3
								z"/>
						</g>
					</g>
				</g>
			</g>
			<g id="ytick_7">
				<g id="line2d_9">
					<g>
						<g>
							<path class="st2" d="M61.7,240.1h-3"/>
						</g>
					</g>
				</g>
				<g id="text_9">
					<g transform="translate(42.983438 244.045547) scale(0.11 -0.11)">
						<g>
							<path id="ArialMT-36" class="st3" d="M49.7,54L41,53.4c-0.8,3.4-1.9,6-3.3,7.5c-2.4,2.5-5.3,3.8-8.8,3.8
								c-2.8,0-5.3-0.8-7.4-2.3c-2.8-2-4.9-5-6.5-8.8c-1.6-3.9-2.4-9.4-2.5-16.5c2.1,3.2,4.7,5.6,7.8,7.2s6.3,2.3,9.6,2.3
								c5.9,0,10.8-2.2,15-6.5C49,35.7,51,30.1,51,23.2c0-4.5-1-8.7-2.9-12.5s-4.6-6.8-8-8.9s-7.2-3.1-11.5-3.1
								c-7.3,0-13.3,2.7-17.9,8.1c-4.6,5.4-6.9,14.3-6.9,26.6c0,13.8,2.6,23.9,7.7,30.2c4.5,5.5,10.5,8.2,18,8.2
								c5.6,0,10.3-1.6,13.8-4.7C46.9,64,49,59.6,49.7,54z M13.9,23.2c0-3,0.6-5.9,1.9-8.7c1.3-2.8,3.1-4.9,5.4-6.3
								C23.5,6.7,25.9,6,28.5,6c3.7,0,6.9,1.5,9.6,4.5c2.7,3,4,7.1,4,12.2c0,4.9-1.3,8.8-4,11.7c-2.6,2.9-6,4.3-10,4.3
								c-4,0-7.3-1.4-10.1-4.3C15.3,31.5,13.9,27.8,13.9,23.2z"/>
						</g>
						<g>
							<path class="st3" d="M59.8,35.3c0,8.5,0.9,15.3,2.6,20.4c1.7,5.2,4.3,9.1,7.7,11.9c3.4,2.8,7.8,4.2,13,4.2
								c3.8,0,7.2-0.8,10.1-2.3c2.9-1.5,5.3-3.8,7.2-6.7c1.9-2.9,3.4-6.5,4.5-10.6c1.1-4.2,1.6-9.8,1.6-16.9
								c0-8.4-0.9-15.2-2.6-20.3c-1.7-5.2-4.3-9.1-7.7-12c-3.4-2.8-7.8-4.2-13-4.2c-6.9,0-12.3,2.5-16.3,7.4
								C62.1,12.2,59.8,21.9,59.8,35.3z M68.8,35.3c0-11.7,1.4-19.6,4.1-23.5C75.7,7.9,79.1,6,83.1,6c4,0,7.4,2,10.2,5.9
								s4.1,11.7,4.1,23.4c0,11.8-1.4,19.6-4.1,23.5c-2.8,3.9-6.2,5.8-10.3,5.8c-4,0-7.3-1.7-9.7-5.1C70.3,55.1,68.8,47.1,68.8,35.3
								z"/>
						</g>
					</g>
				</g>
			</g>
		</g>
		<g id="patch_3">
			<path class="st4" d="M61.7,252V34.6"/>
		</g>
		<g id="patch_4">
			<path class="st4" d="M61.7,252h319.4"/>
		</g>
	</g>
</g>
</svg>
