<?xml version="1.0" encoding="utf-8" standalone="no"?>
<!DOCTYPE svg PUBLIC "-//W3C//DTD SVG 1.1//EN"
  "http://www.w3.org/Graphics/SVG/1.1/DTD/svg11.dtd">
<svg xmlns:xlink="http://www.w3.org/1999/xlink" width="576pt" height="432pt" viewBox="0 0 576 432" xmlns="http://www.w3.org/2000/svg" version="1.1">
 <metadata>
  <rdf:RDF xmlns:dc="http://purl.org/dc/elements/1.1/" xmlns:cc="http://creativecommons.org/ns#" xmlns:rdf="http://www.w3.org/1999/02/22-rdf-syntax-ns#">
   <cc:Work>
    <dc:type rdf:resource="http://purl.org/dc/dcmitype/StillImage"/>
    <dc:date>2025-10-08T15:57:02.510014</dc:date>
    <dc:format>image/svg+xml</dc:format>
    <dc:creator>
     <cc:Agent>
      <dc:title>Matplotlib v3.9.4, https://matplotlib.org/</dc:title>
     </cc:Agent>
    </dc:creator>
   </cc:Work>
  </rdf:RDF>
 </metadata>
 <defs>
  <style type="text/css">*{stroke-linejoin: round; stroke-linecap: butt}</style>
 </defs>
 <g id="figure_1">
  <g id="patch_1">
   <path d="M 0 432 
L 576 432 
L 576 0 
L 0 0 
L 0 432 
z
" style="fill: none"/>
  </g>
  <g id="axes_1">
   <g id="patch_2">
    <path d="M 72 378 
L 518.4 378 
L 518.4 51.84 
L 72 51.84 
z
" style="fill: #ffffff"/>
   </g>
   <g id="PolyCollection_1">
    <defs>
     <path id="mf997c0ad5a" d="M 92.290909 -133.144095 
L 92.290909 -104.588781 
L 97.009725 -98.360217 
L 101.728541 -98.544594 
L 106.447357 -101.111998 
L 111.166173 -100.541525 
L 115.884989 -100.482281 
L 120.603805 -97.156541 
L 125.322622 -101.999241 
L 130.041438 -97.78992 
L 134.760254 -99.150718 
L 139.47907 -124.853701 
L 144.197886 -128.077878 
L 148.916702 -123.407535 
L 153.635518 -123.212758 
L 158.354334 -125.308331 
L 163.07315 -123.064429 
L 167.791966 -124.037018 
L 172.510782 -131.774624 
L 177.229598 -131.564706 
L 181.948414 -131.230685 
L 186.66723 -125.904938 
L 191.386047 -121.234791 
L 196.104863 -124.334976 
L 200.823679 -117.381972 
L 205.542495 -112.28344 
L 210.261311 -124.938132 
L 214.980127 -135.534705 
L 219.698943 -127.794632 
L 224.417759 -120.479181 
L 229.136575 -128.642026 
L 233.855391 -146.44281 
L 238.574207 -145.223172 
L 243.293023 -141.729311 
L 248.011839 -147.405579 
L 252.730655 -157.639845 
L 257.449471 -167.692287 
L 262.168288 -167.014926 
L 266.887104 -160.239527 
L 271.60592 -168.862721 
L 276.324736 -169.592955 
L 281.043552 -167.507033 
L 285.762368 -166.975867 
L 290.481184 -166.473234 
L 295.2 -179.041049 
L 299.918816 -179.233251 
L 304.637632 -182.418309 
L 309.356448 -201.308742 
L 314.075264 -210.881865 
L 318.79408 -211.356366 
L 323.512896 -228.582205 
L 328.231712 -238.235176 
L 332.950529 -231.233206 
L 337.669345 -225.079259 
L 342.388161 -220.535042 
L 347.106977 -220.937635 
L 351.825793 -215.632069 
L 356.544609 -221.965635 
L 361.263425 -228.196467 
L 365.982241 -239.031245 
L 370.701057 -237.811772 
L 375.419873 -215.4136 
L 380.138689 -287.039117 
L 384.857505 -292.844764 
L 389.576321 -211.868472 
L 394.295137 -180.005995 
L 399.013953 -208.589677 
L 403.73277 -230.09866 
L 408.451586 -259.559916 
L 413.170402 -288.575079 
L 417.889218 -276.506084 
L 422.608034 -250.949506 
L 427.32685 -242.08049 
L 432.045666 -249.490517 
L 436.764482 -268.069263 
L 441.483298 -271.081695 
L 446.202114 -270.809651 
L 450.92093 -262.10801 
L 455.639746 -263.547623 
L 460.358562 -270.275842 
L 465.077378 -270.866516 
L 469.796195 -262.316374 
L 474.515011 -261.151441 
L 479.233827 -263.434353 
L 483.952643 -283.75806 
L 488.671459 -277.617254 
L 493.390275 -274.84805 
L 498.109091 -271.435217 
L 498.109091 -358.219969 
L 498.109091 -358.219969 
L 493.390275 -361.82099 
L 488.671459 -365.334545 
L 483.952643 -364.113039 
L 479.233827 -347.110615 
L 474.515011 -347.770701 
L 469.796195 -345.798509 
L 465.077378 -354.179189 
L 460.358562 -350.181485 
L 455.639746 -343.999791 
L 450.92093 -339.251903 
L 446.202114 -344.935137 
L 441.483298 -347.24211 
L 436.764482 -345.498734 
L 432.045666 -325.184181 
L 427.32685 -318.45876 
L 422.608034 -321.126928 
L 417.889218 -345.684301 
L 413.170402 -355.561122 
L 408.451586 -323.172471 
L 403.73277 -288.232538 
L 399.013953 -266.560349 
L 394.295137 -240.5573 
L 389.576321 -274.252185 
L 384.857505 -362.394794 
L 380.138689 -359.308207 
L 375.419873 -241.014043 
L 370.701057 -266.272764 
L 365.982241 -272.911253 
L 361.263425 -262.124728 
L 356.544609 -253.104642 
L 351.825793 -243.635722 
L 347.106977 -244.711527 
L 342.388161 -246.493536 
L 337.669345 -251.018752 
L 332.950529 -261.337295 
L 328.231712 -265.012058 
L 323.512896 -255.073691 
L 318.79408 -242.816384 
L 314.075264 -242.939234 
L 309.356448 -234.830397 
L 304.637632 -215.972781 
L 299.918816 -208.195214 
L 295.2 -206.797338 
L 290.481184 -191.413327 
L 285.762368 -190.500702 
L 281.043552 -188.780565 
L 276.324736 -191.149661 
L 271.60592 -189.293132 
L 266.887104 -185.473543 
L 262.168288 -192.740797 
L 257.449471 -194.112083 
L 252.730655 -183.986695 
L 248.011839 -173.523077 
L 243.293023 -170.441799 
L 238.574207 -171.563843 
L 233.855391 -166.511844 
L 229.136575 -148.878766 
L 224.417759 -139.143141 
L 219.698943 -142.348253 
L 214.980127 -146.060787 
L 210.261311 -135.325512 
L 205.542495 -126.390015 
L 200.823679 -131.998577 
L 196.104863 -139.357608 
L 191.386047 -141.867362 
L 186.66723 -145.948871 
L 181.948414 -143.750422 
L 177.229598 -147.188475 
L 172.510782 -144.92272 
L 167.791966 -138.02777 
L 163.07315 -138.761951 
L 158.354334 -139.368624 
L 153.635518 -132.22346 
L 148.916702 -134.331752 
L 144.197886 -136.779602 
L 139.47907 -137.830779 
L 134.760254 -104.662204 
L 130.041438 -101.436498 
L 125.322622 -106.15519 
L 120.603805 -100.864248 
L 115.884989 -104.100074 
L 111.166173 -104.631556 
L 106.447357 -104.888376 
L 101.728541 -102.603768 
L 97.009725 -102.554892 
L 92.290909 -133.144095 
z
" style="stroke: #6060eb; stroke-opacity: 0.2"/>
    </defs>
    <g clip-path="url(#pbb3c4697d3)">
     <use xlink:href="#mf997c0ad5a" x="0" y="432" style="fill: #6060eb; fill-opacity: 0.2; stroke: #6060eb; stroke-opacity: 0.2"/>
    </g>
   </g>
   <g id="PolyCollection_2">
    <defs>
     <path id="m918fb42938" d="M 92.290909 -128.4768 
L 92.290909 -105.110642 
L 97.009725 -98.396028 
L 101.728541 -100.15731 
L 106.447357 -97.785772 
L 111.166173 -98.690087 
L 115.884989 -100.62593 
L 120.603805 -100.638995 
L 125.322622 -95.189448 
L 130.041438 -94.876579 
L 134.760254 -93.527552 
L 139.47907 -124.553811 
L 144.197886 -128.233927 
L 148.916702 -128.800344 
L 153.635518 -122.715168 
L 158.354334 -117.703306 
L 163.07315 -117.40633 
L 167.791966 -120.310364 
L 172.510782 -119.973603 
L 177.229598 -119.568719 
L 181.948414 -130.697616 
L 186.66723 -131.99144 
L 191.386047 -134.493269 
L 196.104863 -128.122032 
L 200.823679 -132.574159 
L 205.542495 -124.321632 
L 210.261311 -128.789951 
L 214.980127 -129.607496 
L 219.698943 -124.128369 
L 224.417759 -122.85292 
L 229.136575 -122.88629 
L 233.855391 -127.733836 
L 238.574207 -126.03789 
L 243.293023 -128.311012 
L 248.011839 -123.661802 
L 252.730655 -126.044123 
L 257.449471 -126.634746 
L 262.168288 -125.31257 
L 266.887104 -121.57659 
L 271.60592 -117.801312 
L 276.324736 -119.255903 
L 281.043552 -128.919306 
L 285.762368 -135.378206 
L 290.481184 -133.756618 
L 295.2 -125.624956 
L 299.918816 -117.026553 
L 304.637632 -107.468884 
L 309.356448 -108.964374 
L 314.075264 -113.155981 
L 318.79408 -114.984714 
L 323.512896 -111.336174 
L 328.231712 -116.766623 
L 332.950529 -126.225881 
L 337.669345 -120.509401 
L 342.388161 -108.640469 
L 347.106977 -103.551095 
L 351.825793 -103.846866 
L 356.544609 -101.168009 
L 361.263425 -91.126131 
L 365.982241 -104.35218 
L 370.701057 -102.026229 
L 375.419873 -86.583368 
L 380.138689 -78.016542 
L 384.857505 -70.603394 
L 389.576321 -82.823489 
L 394.295137 -90.435074 
L 399.013953 -98.565634 
L 403.73277 -91.459319 
L 408.451586 -92.950163 
L 413.170402 -95.47884 
L 417.889218 -101.22007 
L 422.608034 -101.02115 
L 427.32685 -100.45672 
L 432.045666 -99.023266 
L 436.764482 -96.689896 
L 441.483298 -99.258732 
L 446.202114 -98.359269 
L 450.92093 -100.403179 
L 455.639746 -97.222935 
L 460.358562 -95.497597 
L 465.077378 -100.036754 
L 469.796195 -101.474648 
L 474.515011 -104.812219 
L 479.233827 -100.688135 
L 483.952643 -96.550437 
L 488.671459 -95.307271 
L 493.390275 -99.275314 
L 498.109091 -99.024517 
L 498.109091 -103.303899 
L 498.109091 -103.303899 
L 493.390275 -103.101088 
L 488.671459 -100.79239 
L 483.952643 -101.055039 
L 479.233827 -105.400818 
L 474.515011 -109.960994 
L 469.796195 -105.324417 
L 465.077378 -103.984924 
L 460.358562 -101.247855 
L 455.639746 -102.401451 
L 450.92093 -103.977664 
L 446.202114 -103.833531 
L 441.483298 -104.22285 
L 436.764482 -100.942958 
L 432.045666 -101.405062 
L 427.32685 -106.32191 
L 422.608034 -106.131894 
L 417.889218 -105.219797 
L 413.170402 -102.223073 
L 408.451586 -98.360806 
L 403.73277 -97.009856 
L 399.013953 -102.197964 
L 394.295137 -97.207357 
L 389.576321 -93.16732 
L 384.857505 -107.432039 
L 380.138689 -110.700648 
L 375.419873 -104.384737 
L 370.701057 -120.167754 
L 365.982241 -121.199681 
L 361.263425 -109.777346 
L 356.544609 -123.790161 
L 351.825793 -128.456753 
L 347.106977 -128.134906 
L 342.388161 -127.380745 
L 337.669345 -136.4176 
L 332.950529 -146.914505 
L 328.231712 -135.782367 
L 323.512896 -132.26174 
L 318.79408 -133.565862 
L 314.075264 -133.834927 
L 309.356448 -128.555517 
L 304.637632 -128.465729 
L 299.918816 -141.770588 
L 295.2 -144.009162 
L 290.481184 -150.794747 
L 285.762368 -151.185858 
L 281.043552 -141.115212 
L 276.324736 -133.83088 
L 271.60592 -135.846262 
L 266.887104 -136.088118 
L 262.168288 -140.950516 
L 257.449471 -143.916923 
L 252.730655 -150.757743 
L 248.011839 -151.597567 
L 243.293023 -150.384682 
L 238.574207 -145.813343 
L 233.855391 -150.153614 
L 229.136575 -149.373936 
L 224.417759 -148.905865 
L 219.698943 -147.973006 
L 214.980127 -148.774527 
L 210.261311 -143.548819 
L 205.542495 -142.740687 
L 200.823679 -150.824766 
L 196.104863 -148.080799 
L 191.386047 -157.985154 
L 186.66723 -156.097421 
L 181.948414 -150.723453 
L 177.229598 -141.682082 
L 172.510782 -136.277949 
L 167.791966 -137.226805 
L 163.07315 -131.796578 
L 158.354334 -134.969852 
L 153.635518 -134.389094 
L 148.916702 -138.337404 
L 144.197886 -140.077051 
L 139.47907 -137.215381 
L 134.760254 -97.480318 
L 130.041438 -99.844615 
L 125.322622 -100.194722 
L 120.603805 -105.294999 
L 115.884989 -107.911756 
L 111.166173 -104.853134 
L 106.447357 -103.199931 
L 101.728541 -106.767719 
L 97.009725 -103.429521 
L 92.290909 -128.4768 
z
" style="stroke: #6060eb; stroke-opacity: 0.2"/>
    </defs>
    <g clip-path="url(#pbb3c4697d3)">
     <use xlink:href="#m918fb42938" x="0" y="432" style="fill: #6060eb; fill-opacity: 0.2; stroke: #6060eb; stroke-opacity: 0.2"/>
    </g>
   </g>
   <g id="PathCollection_1">
    <defs>
     <path id="me953ff3e88" d="M 0 -2.738613 
L -2.738613 2.738613 
L 2.738613 2.738613 
z
" style="stroke: #6060eb; stroke-opacity: 0.7"/>
    </defs>
    <g clip-path="url(#pbb3c4697d3)">
     <use xlink:href="#me953ff3e88" x="205.542495" y="355.985814" style="fill: #6060eb; fill-opacity: 0.7; stroke: #6060eb; stroke-opacity: 0.7"/>
     <use xlink:href="#me953ff3e88" x="252.730655" y="355.985814" style="fill: #6060eb; fill-opacity: 0.7; stroke: #6060eb; stroke-opacity: 0.7"/>
     <use xlink:href="#me953ff3e88" x="257.449471" y="355.985814" style="fill: #6060eb; fill-opacity: 0.7; stroke: #6060eb; stroke-opacity: 0.7"/>
     <use xlink:href="#me953ff3e88" x="262.168288" y="355.985814" style="fill: #6060eb; fill-opacity: 0.7; stroke: #6060eb; stroke-opacity: 0.7"/>
     <use xlink:href="#me953ff3e88" x="266.887104" y="355.985814" style="fill: #6060eb; fill-opacity: 0.7; stroke: #6060eb; stroke-opacity: 0.7"/>
     <use xlink:href="#me953ff3e88" x="271.60592" y="355.985814" style="fill: #6060eb; fill-opacity: 0.7; stroke: #6060eb; stroke-opacity: 0.7"/>
     <use xlink:href="#me953ff3e88" x="276.324736" y="355.985814" style="fill: #6060eb; fill-opacity: 0.7; stroke: #6060eb; stroke-opacity: 0.7"/>
     <use xlink:href="#me953ff3e88" x="281.043552" y="355.985814" style="fill: #6060eb; fill-opacity: 0.7; stroke: #6060eb; stroke-opacity: 0.7"/>
     <use xlink:href="#me953ff3e88" x="285.762368" y="355.985814" style="fill: #6060eb; fill-opacity: 0.7; stroke: #6060eb; stroke-opacity: 0.7"/>
     <use xlink:href="#me953ff3e88" x="290.481184" y="355.985814" style="fill: #6060eb; fill-opacity: 0.7; stroke: #6060eb; stroke-opacity: 0.7"/>
     <use xlink:href="#me953ff3e88" x="295.2" y="355.985814" style="fill: #6060eb; fill-opacity: 0.7; stroke: #6060eb; stroke-opacity: 0.7"/>
     <use xlink:href="#me953ff3e88" x="299.918816" y="355.985814" style="fill: #6060eb; fill-opacity: 0.7; stroke: #6060eb; stroke-opacity: 0.7"/>
     <use xlink:href="#me953ff3e88" x="304.637632" y="355.985814" style="fill: #6060eb; fill-opacity: 0.7; stroke: #6060eb; stroke-opacity: 0.7"/>
     <use xlink:href="#me953ff3e88" x="309.356448" y="355.985814" style="fill: #6060eb; fill-opacity: 0.7; stroke: #6060eb; stroke-opacity: 0.7"/>
     <use xlink:href="#me953ff3e88" x="314.075264" y="355.985814" style="fill: #6060eb; fill-opacity: 0.7; stroke: #6060eb; stroke-opacity: 0.7"/>
     <use xlink:href="#me953ff3e88" x="318.79408" y="355.985814" style="fill: #6060eb; fill-opacity: 0.7; stroke: #6060eb; stroke-opacity: 0.7"/>
     <use xlink:href="#me953ff3e88" x="323.512896" y="355.985814" style="fill: #6060eb; fill-opacity: 0.7; stroke: #6060eb; stroke-opacity: 0.7"/>
     <use xlink:href="#me953ff3e88" x="328.231712" y="355.985814" style="fill: #6060eb; fill-opacity: 0.7; stroke: #6060eb; stroke-opacity: 0.7"/>
     <use xlink:href="#me953ff3e88" x="332.950529" y="355.985814" style="fill: #6060eb; fill-opacity: 0.7; stroke: #6060eb; stroke-opacity: 0.7"/>
     <use xlink:href="#me953ff3e88" x="337.669345" y="355.985814" style="fill: #6060eb; fill-opacity: 0.7; stroke: #6060eb; stroke-opacity: 0.7"/>
     <use xlink:href="#me953ff3e88" x="342.388161" y="355.985814" style="fill: #6060eb; fill-opacity: 0.7; stroke: #6060eb; stroke-opacity: 0.7"/>
     <use xlink:href="#me953ff3e88" x="347.106977" y="355.985814" style="fill: #6060eb; fill-opacity: 0.7; stroke: #6060eb; stroke-opacity: 0.7"/>
     <use xlink:href="#me953ff3e88" x="351.825793" y="355.985814" style="fill: #6060eb; fill-opacity: 0.7; stroke: #6060eb; stroke-opacity: 0.7"/>
     <use xlink:href="#me953ff3e88" x="356.544609" y="355.985814" style="fill: #6060eb; fill-opacity: 0.7; stroke: #6060eb; stroke-opacity: 0.7"/>
     <use xlink:href="#me953ff3e88" x="361.263425" y="355.985814" style="fill: #6060eb; fill-opacity: 0.7; stroke: #6060eb; stroke-opacity: 0.7"/>
     <use xlink:href="#me953ff3e88" x="365.982241" y="355.985814" style="fill: #6060eb; fill-opacity: 0.7; stroke: #6060eb; stroke-opacity: 0.7"/>
     <use xlink:href="#me953ff3e88" x="370.701057" y="355.985814" style="fill: #6060eb; fill-opacity: 0.7; stroke: #6060eb; stroke-opacity: 0.7"/>
     <use xlink:href="#me953ff3e88" x="375.419873" y="355.985814" style="fill: #6060eb; fill-opacity: 0.7; stroke: #6060eb; stroke-opacity: 0.7"/>
     <use xlink:href="#me953ff3e88" x="380.138689" y="355.985814" style="fill: #6060eb; fill-opacity: 0.7; stroke: #6060eb; stroke-opacity: 0.7"/>
     <use xlink:href="#me953ff3e88" x="384.857505" y="355.985814" style="fill: #6060eb; fill-opacity: 0.7; stroke: #6060eb; stroke-opacity: 0.7"/>
     <use xlink:href="#me953ff3e88" x="389.576321" y="355.985814" style="fill: #6060eb; fill-opacity: 0.7; stroke: #6060eb; stroke-opacity: 0.7"/>
     <use xlink:href="#me953ff3e88" x="394.295137" y="355.985814" style="fill: #6060eb; fill-opacity: 0.7; stroke: #6060eb; stroke-opacity: 0.7"/>
     <use xlink:href="#me953ff3e88" x="399.013953" y="355.985814" style="fill: #6060eb; fill-opacity: 0.7; stroke: #6060eb; stroke-opacity: 0.7"/>
     <use xlink:href="#me953ff3e88" x="403.73277" y="355.985814" style="fill: #6060eb; fill-opacity: 0.7; stroke: #6060eb; stroke-opacity: 0.7"/>
     <use xlink:href="#me953ff3e88" x="408.451586" y="355.985814" style="fill: #6060eb; fill-opacity: 0.7; stroke: #6060eb; stroke-opacity: 0.7"/>
     <use xlink:href="#me953ff3e88" x="413.170402" y="355.985814" style="fill: #6060eb; fill-opacity: 0.7; stroke: #6060eb; stroke-opacity: 0.7"/>
     <use xlink:href="#me953ff3e88" x="417.889218" y="355.985814" style="fill: #6060eb; fill-opacity: 0.7; stroke: #6060eb; stroke-opacity: 0.7"/>
     <use xlink:href="#me953ff3e88" x="422.608034" y="355.985814" style="fill: #6060eb; fill-opacity: 0.7; stroke: #6060eb; stroke-opacity: 0.7"/>
     <use xlink:href="#me953ff3e88" x="427.32685" y="355.985814" style="fill: #6060eb; fill-opacity: 0.7; stroke: #6060eb; stroke-opacity: 0.7"/>
     <use xlink:href="#me953ff3e88" x="432.045666" y="355.985814" style="fill: #6060eb; fill-opacity: 0.7; stroke: #6060eb; stroke-opacity: 0.7"/>
     <use xlink:href="#me953ff3e88" x="436.764482" y="355.985814" style="fill: #6060eb; fill-opacity: 0.7; stroke: #6060eb; stroke-opacity: 0.7"/>
     <use xlink:href="#me953ff3e88" x="441.483298" y="355.985814" style="fill: #6060eb; fill-opacity: 0.7; stroke: #6060eb; stroke-opacity: 0.7"/>
     <use xlink:href="#me953ff3e88" x="446.202114" y="355.985814" style="fill: #6060eb; fill-opacity: 0.7; stroke: #6060eb; stroke-opacity: 0.7"/>
     <use xlink:href="#me953ff3e88" x="450.92093" y="355.985814" style="fill: #6060eb; fill-opacity: 0.7; stroke: #6060eb; stroke-opacity: 0.7"/>
     <use xlink:href="#me953ff3e88" x="455.639746" y="355.985814" style="fill: #6060eb; fill-opacity: 0.7; stroke: #6060eb; stroke-opacity: 0.7"/>
     <use xlink:href="#me953ff3e88" x="460.358562" y="355.985814" style="fill: #6060eb; fill-opacity: 0.7; stroke: #6060eb; stroke-opacity: 0.7"/>
     <use xlink:href="#me953ff3e88" x="465.077378" y="355.985814" style="fill: #6060eb; fill-opacity: 0.7; stroke: #6060eb; stroke-opacity: 0.7"/>
     <use xlink:href="#me953ff3e88" x="469.796195" y="355.985814" style="fill: #6060eb; fill-opacity: 0.7; stroke: #6060eb; stroke-opacity: 0.7"/>
     <use xlink:href="#me953ff3e88" x="474.515011" y="355.985814" style="fill: #6060eb; fill-opacity: 0.7; stroke: #6060eb; stroke-opacity: 0.7"/>
     <use xlink:href="#me953ff3e88" x="479.233827" y="355.985814" style="fill: #6060eb; fill-opacity: 0.7; stroke: #6060eb; stroke-opacity: 0.7"/>
     <use xlink:href="#me953ff3e88" x="483.952643" y="355.985814" style="fill: #6060eb; fill-opacity: 0.7; stroke: #6060eb; stroke-opacity: 0.7"/>
     <use xlink:href="#me953ff3e88" x="488.671459" y="355.985814" style="fill: #6060eb; fill-opacity: 0.7; stroke: #6060eb; stroke-opacity: 0.7"/>
     <use xlink:href="#me953ff3e88" x="493.390275" y="355.985814" style="fill: #6060eb; fill-opacity: 0.7; stroke: #6060eb; stroke-opacity: 0.7"/>
     <use xlink:href="#me953ff3e88" x="498.109091" y="355.985814" style="fill: #6060eb; fill-opacity: 0.7; stroke: #6060eb; stroke-opacity: 0.7"/>
    </g>
   </g>
   <g id="PathCollection_2">
    <defs>
     <path id="me2a119a177" d="M 0 -2.738613 
L -0.614857 -0.846278 
L -2.604576 -0.846278 
L -0.994859 0.323249 
L -1.609716 2.215584 
L -0 1.046057 
L 1.609716 2.215584 
L 0.994859 0.323249 
L 2.604576 -0.846278 
L 0.614857 -0.846278 
z
" style="stroke: #6060eb; stroke-opacity: 0.7"/>
    </defs>
    <g clip-path="url(#pbb3c4697d3)">
     <use xlink:href="#me2a119a177" x="134.760254" y="363.174545" style="fill: #6060eb; fill-opacity: 0.7; stroke: #6060eb; stroke-opacity: 0.7"/>
     <use xlink:href="#me2a119a177" x="361.263425" y="363.174545" style="fill: #6060eb; fill-opacity: 0.7; stroke: #6060eb; stroke-opacity: 0.7"/>
     <use xlink:href="#me2a119a177" x="365.982241" y="363.174545" style="fill: #6060eb; fill-opacity: 0.7; stroke: #6060eb; stroke-opacity: 0.7"/>
     <use xlink:href="#me2a119a177" x="403.73277" y="363.174545" style="fill: #6060eb; fill-opacity: 0.7; stroke: #6060eb; stroke-opacity: 0.7"/>
     <use xlink:href="#me2a119a177" x="474.515011" y="363.174545" style="fill: #6060eb; fill-opacity: 0.7; stroke: #6060eb; stroke-opacity: 0.7"/>
    </g>
   </g>
   <g id="matplotlib.axis_1">
    <g id="xtick_1">
     <g id="line2d_1">
      <defs>
       <path id="me79bdb5ce4" d="M 0 0 
L 0 3.5 
" style="stroke: #000000; stroke-width: 0.8"/>
      </defs>
      <g>
       <use xlink:href="#me79bdb5ce4" x="80.493869" y="378" style="stroke: #000000; stroke-width: 0.8"/>
      </g>
     </g>
     <g id="text_1">
      <!-- −250 -->
      <g transform="translate(66.760275 392.598437) scale(0.1 -0.1)">
       <defs>
        <path id="DejaVuSans-2212" d="M 678 2272 
L 4684 2272 
L 4684 1741 
L 678 1741 
L 678 2272 
z
" transform="scale(0.015625)"/>
        <path id="DejaVuSans-32" d="M 1228 531 
L 3431 531 
L 3431 0 
L 469 0 
L 469 531 
Q 828 903 1448 1529 
Q 2069 2156 2228 2338 
Q 2531 2678 2651 2914 
Q 2772 3150 2772 3378 
Q 2772 3750 2511 3984 
Q 2250 4219 1831 4219 
Q 1534 4219 1204 4116 
Q 875 4013 500 3803 
L 500 4441 
Q 881 4594 1212 4672 
Q 1544 4750 1819 4750 
Q 2544 4750 2975 4387 
Q 3406 4025 3406 3419 
Q 3406 3131 3298 2873 
Q 3191 2616 2906 2266 
Q 2828 2175 2409 1742 
Q 1991 1309 1228 531 
z
" transform="scale(0.015625)"/>
        <path id="DejaVuSans-35" d="M 691 4666 
L 3169 4666 
L 3169 4134 
L 1269 4134 
L 1269 2991 
Q 1406 3038 1543 3061 
Q 1681 3084 1819 3084 
Q 2600 3084 3056 2656 
Q 3513 2228 3513 1497 
Q 3513 744 3044 326 
Q 2575 -91 1722 -91 
Q 1428 -91 1123 -41 
Q 819 9 494 109 
L 494 744 
Q 775 591 1075 516 
Q 1375 441 1709 441 
Q 2250 441 2565 725 
Q 2881 1009 2881 1497 
Q 2881 1984 2565 2268 
Q 2250 2553 1709 2553 
Q 1456 2553 1204 2497 
Q 953 2441 691 2322 
L 691 4666 
z
" transform="scale(0.015625)"/>
        <path id="DejaVuSans-30" d="M 2034 4250 
Q 1547 4250 1301 3770 
Q 1056 3291 1056 2328 
Q 1056 1369 1301 889 
Q 1547 409 2034 409 
Q 2525 409 2770 889 
Q 3016 1369 3016 2328 
Q 3016 3291 2770 3770 
Q 2525 4250 2034 4250 
z
M 2034 4750 
Q 2819 4750 3233 4129 
Q 3647 3509 3647 2328 
Q 3647 1150 3233 529 
Q 2819 -91 2034 -91 
Q 1250 -91 836 529 
Q 422 1150 422 2328 
Q 422 3509 836 4129 
Q 1250 4750 2034 4750 
z
" transform="scale(0.015625)"/>
       </defs>
       <use xlink:href="#DejaVuSans-2212"/>
       <use xlink:href="#DejaVuSans-32" x="83.789062"/>
       <use xlink:href="#DejaVuSans-35" x="147.412109"/>
       <use xlink:href="#DejaVuSans-30" x="211.035156"/>
      </g>
     </g>
    </g>
    <g id="xtick_2">
     <g id="line2d_2">
      <g>
       <use xlink:href="#me79bdb5ce4" x="139.47907" y="378" style="stroke: #000000; stroke-width: 0.8"/>
      </g>
     </g>
     <g id="text_2">
      <!-- 0 -->
      <g transform="translate(136.29782 392.598437) scale(0.1 -0.1)">
       <use xlink:href="#DejaVuSans-30"/>
      </g>
     </g>
    </g>
    <g id="xtick_3">
     <g id="line2d_3">
      <g>
       <use xlink:href="#me79bdb5ce4" x="198.464271" y="378" style="stroke: #000000; stroke-width: 0.8"/>
      </g>
     </g>
     <g id="text_3">
      <!-- 250 -->
      <g transform="translate(188.920521 392.598437) scale(0.1 -0.1)">
       <use xlink:href="#DejaVuSans-32"/>
       <use xlink:href="#DejaVuSans-35" x="63.623047"/>
       <use xlink:href="#DejaVuSans-30" x="127.246094"/>
      </g>
     </g>
    </g>
    <g id="xtick_4">
     <g id="line2d_4">
      <g>
       <use xlink:href="#me79bdb5ce4" x="257.449471" y="378" style="stroke: #000000; stroke-width: 0.8"/>
      </g>
     </g>
     <g id="text_4">
      <!-- 500 -->
      <g transform="translate(247.905721 392.598437) scale(0.1 -0.1)">
       <use xlink:href="#DejaVuSans-35"/>
       <use xlink:href="#DejaVuSans-30" x="63.623047"/>
       <use xlink:href="#DejaVuSans-30" x="127.246094"/>
      </g>
     </g>
    </g>
    <g id="xtick_5">
     <g id="line2d_5">
      <g>
       <use xlink:href="#me79bdb5ce4" x="316.434672" y="378" style="stroke: #000000; stroke-width: 0.8"/>
      </g>
     </g>
     <g id="text_5">
      <!-- 750 -->
      <g transform="translate(306.890922 392.598437) scale(0.1 -0.1)">
       <defs>
        <path id="DejaVuSans-37" d="M 525 4666 
L 3525 4666 
L 3525 4397 
L 1831 0 
L 1172 0 
L 2766 4134 
L 525 4134 
L 525 4666 
z
" transform="scale(0.015625)"/>
       </defs>
       <use xlink:href="#DejaVuSans-37"/>
       <use xlink:href="#DejaVuSans-35" x="63.623047"/>
       <use xlink:href="#DejaVuSans-30" x="127.246094"/>
      </g>
     </g>
    </g>
    <g id="xtick_6">
     <g id="line2d_6">
      <g>
       <use xlink:href="#me79bdb5ce4" x="375.419873" y="378" style="stroke: #000000; stroke-width: 0.8"/>
      </g>
     </g>
     <g id="text_6">
      <!-- 1000 -->
      <g transform="translate(362.694873 392.598437) scale(0.1 -0.1)">
       <defs>
        <path id="DejaVuSans-31" d="M 794 531 
L 1825 531 
L 1825 4091 
L 703 3866 
L 703 4441 
L 1819 4666 
L 2450 4666 
L 2450 531 
L 3481 531 
L 3481 0 
L 794 0 
L 794 531 
z
" transform="scale(0.015625)"/>
       </defs>
       <use xlink:href="#DejaVuSans-31"/>
       <use xlink:href="#DejaVuSans-30" x="63.623047"/>
       <use xlink:href="#DejaVuSans-30" x="127.246094"/>
       <use xlink:href="#DejaVuSans-30" x="190.869141"/>
      </g>
     </g>
    </g>
    <g id="xtick_7">
     <g id="line2d_7">
      <g>
       <use xlink:href="#me79bdb5ce4" x="434.405074" y="378" style="stroke: #000000; stroke-width: 0.8"/>
      </g>
     </g>
     <g id="text_7">
      <!-- 1250 -->
      <g transform="translate(421.680074 392.598437) scale(0.1 -0.1)">
       <use xlink:href="#DejaVuSans-31"/>
       <use xlink:href="#DejaVuSans-32" x="63.623047"/>
       <use xlink:href="#DejaVuSans-35" x="127.246094"/>
       <use xlink:href="#DejaVuSans-30" x="190.869141"/>
      </g>
     </g>
    </g>
    <g id="xtick_8">
     <g id="line2d_8">
      <g>
       <use xlink:href="#me79bdb5ce4" x="493.390275" y="378" style="stroke: #000000; stroke-width: 0.8"/>
      </g>
     </g>
     <g id="text_8">
      <!-- 1500 -->
      <g transform="translate(480.665275 392.598437) scale(0.1 -0.1)">
       <use xlink:href="#DejaVuSans-31"/>
       <use xlink:href="#DejaVuSans-35" x="63.623047"/>
       <use xlink:href="#DejaVuSans-30" x="127.246094"/>
       <use xlink:href="#DejaVuSans-30" x="190.869141"/>
      </g>
     </g>
    </g>
    <g id="text_9">
     <!-- time -->
     <g transform="translate(283.903906 406.276563) scale(0.1 -0.1)">
      <defs>
       <path id="DejaVuSans-74" d="M 1172 4494 
L 1172 3500 
L 2356 3500 
L 2356 3053 
L 1172 3053 
L 1172 1153 
Q 1172 725 1289 603 
Q 1406 481 1766 481 
L 2356 481 
L 2356 0 
L 1766 0 
Q 1100 0 847 248 
Q 594 497 594 1153 
L 594 3053 
L 172 3053 
L 172 3500 
L 594 3500 
L 594 4494 
L 1172 4494 
z
" transform="scale(0.015625)"/>
       <path id="DejaVuSans-69" d="M 603 3500 
L 1178 3500 
L 1178 0 
L 603 0 
L 603 3500 
z
M 603 4863 
L 1178 4863 
L 1178 4134 
L 603 4134 
L 603 4863 
z
" transform="scale(0.015625)"/>
       <path id="DejaVuSans-6d" d="M 3328 2828 
Q 3544 3216 3844 3400 
Q 4144 3584 4550 3584 
Q 5097 3584 5394 3201 
Q 5691 2819 5691 2113 
L 5691 0 
L 5113 0 
L 5113 2094 
Q 5113 2597 4934 2840 
Q 4756 3084 4391 3084 
Q 3944 3084 3684 2787 
Q 3425 2491 3425 1978 
L 3425 0 
L 2847 0 
L 2847 2094 
Q 2847 2600 2669 2842 
Q 2491 3084 2119 3084 
Q 1678 3084 1418 2786 
Q 1159 2488 1159 1978 
L 1159 0 
L 581 0 
L 581 3500 
L 1159 3500 
L 1159 2956 
Q 1356 3278 1631 3431 
Q 1906 3584 2284 3584 
Q 2666 3584 2933 3390 
Q 3200 3197 3328 2828 
z
" transform="scale(0.015625)"/>
       <path id="DejaVuSans-65" d="M 3597 1894 
L 3597 1613 
L 953 1613 
Q 991 1019 1311 708 
Q 1631 397 2203 397 
Q 2534 397 2845 478 
Q 3156 559 3463 722 
L 3463 178 
Q 3153 47 2828 -22 
Q 2503 -91 2169 -91 
Q 1331 -91 842 396 
Q 353 884 353 1716 
Q 353 2575 817 3079 
Q 1281 3584 2069 3584 
Q 2775 3584 3186 3129 
Q 3597 2675 3597 1894 
z
M 3022 2063 
Q 3016 2534 2758 2815 
Q 2500 3097 2075 3097 
Q 1594 3097 1305 2825 
Q 1016 2553 972 2059 
L 3022 2063 
z
" transform="scale(0.015625)"/>
      </defs>
      <use xlink:href="#DejaVuSans-74"/>
      <use xlink:href="#DejaVuSans-69" x="39.208984"/>
      <use xlink:href="#DejaVuSans-6d" x="66.992188"/>
      <use xlink:href="#DejaVuSans-65" x="164.404297"/>
     </g>
    </g>
   </g>
   <g id="matplotlib.axis_2">
    <g id="ytick_1">
     <g id="line2d_9">
      <defs>
       <path id="mae8394f9f8" d="M 0 0 
L -3.5 0 
" style="stroke: #000000; stroke-width: 0.8"/>
      </defs>
      <g>
       <use xlink:href="#mae8394f9f8" x="72" y="331.55472" style="stroke: #000000; stroke-width: 0.8"/>
      </g>
     </g>
     <g id="text_10">
      <!-- 0.00 -->
      <g transform="translate(42.734375 335.353939) scale(0.1 -0.1)">
       <defs>
        <path id="DejaVuSans-2e" d="M 684 794 
L 1344 794 
L 1344 0 
L 684 0 
L 684 794 
z
" transform="scale(0.015625)"/>
       </defs>
       <use xlink:href="#DejaVuSans-30"/>
       <use xlink:href="#DejaVuSans-2e" x="63.623047"/>
       <use xlink:href="#DejaVuSans-30" x="95.410156"/>
       <use xlink:href="#DejaVuSans-30" x="159.033203"/>
      </g>
     </g>
    </g>
    <g id="ytick_2">
     <g id="line2d_10">
      <g>
       <use xlink:href="#mae8394f9f8" x="72" y="263.219253" style="stroke: #000000; stroke-width: 0.8"/>
      </g>
     </g>
     <g id="text_11">
      <!-- 0.02 -->
      <g transform="translate(42.734375 267.018472) scale(0.1 -0.1)">
       <use xlink:href="#DejaVuSans-30"/>
       <use xlink:href="#DejaVuSans-2e" x="63.623047"/>
       <use xlink:href="#DejaVuSans-30" x="95.410156"/>
       <use xlink:href="#DejaVuSans-32" x="159.033203"/>
      </g>
     </g>
    </g>
    <g id="ytick_3">
     <g id="line2d_11">
      <g>
       <use xlink:href="#mae8394f9f8" x="72" y="194.883786" style="stroke: #000000; stroke-width: 0.8"/>
      </g>
     </g>
     <g id="text_12">
      <!-- 0.04 -->
      <g transform="translate(42.734375 198.683005) scale(0.1 -0.1)">
       <defs>
        <path id="DejaVuSans-34" d="M 2419 4116 
L 825 1625 
L 2419 1625 
L 2419 4116 
z
M 2253 4666 
L 3047 4666 
L 3047 1625 
L 3713 1625 
L 3713 1100 
L 3047 1100 
L 3047 0 
L 2419 0 
L 2419 1100 
L 313 1100 
L 313 1709 
L 2253 4666 
z
" transform="scale(0.015625)"/>
       </defs>
       <use xlink:href="#DejaVuSans-30"/>
       <use xlink:href="#DejaVuSans-2e" x="63.623047"/>
       <use xlink:href="#DejaVuSans-30" x="95.410156"/>
       <use xlink:href="#DejaVuSans-34" x="159.033203"/>
      </g>
     </g>
    </g>
    <g id="ytick_4">
     <g id="line2d_12">
      <g>
       <use xlink:href="#mae8394f9f8" x="72" y="126.54832" style="stroke: #000000; stroke-width: 0.8"/>
      </g>
     </g>
     <g id="text_13">
      <!-- 0.06 -->
      <g transform="translate(42.734375 130.347539) scale(0.1 -0.1)">
       <defs>
        <path id="DejaVuSans-36" d="M 2113 2584 
Q 1688 2584 1439 2293 
Q 1191 2003 1191 1497 
Q 1191 994 1439 701 
Q 1688 409 2113 409 
Q 2538 409 2786 701 
Q 3034 994 3034 1497 
Q 3034 2003 2786 2293 
Q 2538 2584 2113 2584 
z
M 3366 4563 
L 3366 3988 
Q 3128 4100 2886 4159 
Q 2644 4219 2406 4219 
Q 1781 4219 1451 3797 
Q 1122 3375 1075 2522 
Q 1259 2794 1537 2939 
Q 1816 3084 2150 3084 
Q 2853 3084 3261 2657 
Q 3669 2231 3669 1497 
Q 3669 778 3244 343 
Q 2819 -91 2113 -91 
Q 1303 -91 875 529 
Q 447 1150 447 2328 
Q 447 3434 972 4092 
Q 1497 4750 2381 4750 
Q 2619 4750 2861 4703 
Q 3103 4656 3366 4563 
z
" transform="scale(0.015625)"/>
       </defs>
       <use xlink:href="#DejaVuSans-30"/>
       <use xlink:href="#DejaVuSans-2e" x="63.623047"/>
       <use xlink:href="#DejaVuSans-30" x="95.410156"/>
       <use xlink:href="#DejaVuSans-36" x="159.033203"/>
      </g>
     </g>
    </g>
    <g id="ytick_5">
     <g id="line2d_13">
      <g>
       <use xlink:href="#mae8394f9f8" x="72" y="58.212853" style="stroke: #000000; stroke-width: 0.8"/>
      </g>
     </g>
     <g id="text_14">
      <!-- 0.08 -->
      <g transform="translate(42.734375 62.012072) scale(0.1 -0.1)">
       <defs>
        <path id="DejaVuSans-38" d="M 2034 2216 
Q 1584 2216 1326 1975 
Q 1069 1734 1069 1313 
Q 1069 891 1326 650 
Q 1584 409 2034 409 
Q 2484 409 2743 651 
Q 3003 894 3003 1313 
Q 3003 1734 2745 1975 
Q 2488 2216 2034 2216 
z
M 1403 2484 
Q 997 2584 770 2862 
Q 544 3141 544 3541 
Q 544 4100 942 4425 
Q 1341 4750 2034 4750 
Q 2731 4750 3128 4425 
Q 3525 4100 3525 3541 
Q 3525 3141 3298 2862 
Q 3072 2584 2669 2484 
Q 3125 2378 3379 2068 
Q 3634 1759 3634 1313 
Q 3634 634 3220 271 
Q 2806 -91 2034 -91 
Q 1263 -91 848 271 
Q 434 634 434 1313 
Q 434 1759 690 2068 
Q 947 2378 1403 2484 
z
M 1172 3481 
Q 1172 3119 1398 2916 
Q 1625 2713 2034 2713 
Q 2441 2713 2670 2916 
Q 2900 3119 2900 3481 
Q 2900 3844 2670 4047 
Q 2441 4250 2034 4250 
Q 1625 4250 1398 4047 
Q 1172 3844 1172 3481 
z
" transform="scale(0.015625)"/>
       </defs>
       <use xlink:href="#DejaVuSans-30"/>
       <use xlink:href="#DejaVuSans-2e" x="63.623047"/>
       <use xlink:href="#DejaVuSans-30" x="95.410156"/>
       <use xlink:href="#DejaVuSans-38" x="159.033203"/>
      </g>
     </g>
    </g>
    <g id="text_15">
     <!-- firing rate -->
     <g transform="translate(36.654687 239.602031) rotate(-90) scale(0.1 -0.1)">
      <defs>
       <path id="DejaVuSans-66" d="M 2375 4863 
L 2375 4384 
L 1825 4384 
Q 1516 4384 1395 4259 
Q 1275 4134 1275 3809 
L 1275 3500 
L 2222 3500 
L 2222 3053 
L 1275 3053 
L 1275 0 
L 697 0 
L 697 3053 
L 147 3053 
L 147 3500 
L 697 3500 
L 697 3744 
Q 697 4328 969 4595 
Q 1241 4863 1831 4863 
L 2375 4863 
z
" transform="scale(0.015625)"/>
       <path id="DejaVuSans-72" d="M 2631 2963 
Q 2534 3019 2420 3045 
Q 2306 3072 2169 3072 
Q 1681 3072 1420 2755 
Q 1159 2438 1159 1844 
L 1159 0 
L 581 0 
L 581 3500 
L 1159 3500 
L 1159 2956 
Q 1341 3275 1631 3429 
Q 1922 3584 2338 3584 
Q 2397 3584 2469 3576 
Q 2541 3569 2628 3553 
L 2631 2963 
z
" transform="scale(0.015625)"/>
       <path id="DejaVuSans-6e" d="M 3513 2113 
L 3513 0 
L 2938 0 
L 2938 2094 
Q 2938 2591 2744 2837 
Q 2550 3084 2163 3084 
Q 1697 3084 1428 2787 
Q 1159 2491 1159 1978 
L 1159 0 
L 581 0 
L 581 3500 
L 1159 3500 
L 1159 2956 
Q 1366 3272 1645 3428 
Q 1925 3584 2291 3584 
Q 2894 3584 3203 3211 
Q 3513 2838 3513 2113 
z
" transform="scale(0.015625)"/>
       <path id="DejaVuSans-67" d="M 2906 1791 
Q 2906 2416 2648 2759 
Q 2391 3103 1925 3103 
Q 1463 3103 1205 2759 
Q 947 2416 947 1791 
Q 947 1169 1205 825 
Q 1463 481 1925 481 
Q 2391 481 2648 825 
Q 2906 1169 2906 1791 
z
M 3481 434 
Q 3481 -459 3084 -895 
Q 2688 -1331 1869 -1331 
Q 1566 -1331 1297 -1286 
Q 1028 -1241 775 -1147 
L 775 -588 
Q 1028 -725 1275 -790 
Q 1522 -856 1778 -856 
Q 2344 -856 2625 -561 
Q 2906 -266 2906 331 
L 2906 616 
Q 2728 306 2450 153 
Q 2172 0 1784 0 
Q 1141 0 747 490 
Q 353 981 353 1791 
Q 353 2603 747 3093 
Q 1141 3584 1784 3584 
Q 2172 3584 2450 3431 
Q 2728 3278 2906 2969 
L 2906 3500 
L 3481 3500 
L 3481 434 
z
" transform="scale(0.015625)"/>
       <path id="DejaVuSans-20" transform="scale(0.015625)"/>
       <path id="DejaVuSans-61" d="M 2194 1759 
Q 1497 1759 1228 1600 
Q 959 1441 959 1056 
Q 959 750 1161 570 
Q 1363 391 1709 391 
Q 2188 391 2477 730 
Q 2766 1069 2766 1631 
L 2766 1759 
L 2194 1759 
z
M 3341 1997 
L 3341 0 
L 2766 0 
L 2766 531 
Q 2569 213 2275 61 
Q 1981 -91 1556 -91 
Q 1019 -91 701 211 
Q 384 513 384 1019 
Q 384 1609 779 1909 
Q 1175 2209 1959 2209 
L 2766 2209 
L 2766 2266 
Q 2766 2663 2505 2880 
Q 2244 3097 1772 3097 
Q 1472 3097 1187 3025 
Q 903 2953 641 2809 
L 641 3341 
Q 956 3463 1253 3523 
Q 1550 3584 1831 3584 
Q 2591 3584 2966 3190 
Q 3341 2797 3341 1997 
z
" transform="scale(0.015625)"/>
      </defs>
      <use xlink:href="#DejaVuSans-66"/>
      <use xlink:href="#DejaVuSans-69" x="35.205078"/>
      <use xlink:href="#DejaVuSans-72" x="62.988281"/>
      <use xlink:href="#DejaVuSans-69" x="104.101562"/>
      <use xlink:href="#DejaVuSans-6e" x="131.884766"/>
      <use xlink:href="#DejaVuSans-67" x="195.263672"/>
      <use xlink:href="#DejaVuSans-20" x="258.740234"/>
      <use xlink:href="#DejaVuSans-72" x="290.527344"/>
      <use xlink:href="#DejaVuSans-61" x="331.640625"/>
      <use xlink:href="#DejaVuSans-74" x="392.919922"/>
      <use xlink:href="#DejaVuSans-65" x="432.128906"/>
     </g>
    </g>
   </g>
   <g id="line2d_14">
    <path d="M 92.290909 313.133562 
L 97.009725 331.542445 
L 101.728541 331.425819 
L 106.447357 328.999813 
L 111.166173 329.413459 
L 115.884989 329.708822 
L 120.603805 332.989606 
L 125.322622 327.922785 
L 130.041438 332.386791 
L 134.760254 330.093539 
L 139.47907 300.65776 
L 144.197886 299.57126 
L 148.916702 303.130356 
L 153.635518 304.281891 
L 158.354334 299.661523 
L 163.07315 301.08681 
L 167.791966 300.967606 
L 172.510782 293.651328 
L 177.229598 292.62341 
L 181.948414 294.509447 
L 186.66723 296.073096 
L 191.386047 300.448924 
L 196.104863 300.153708 
L 200.823679 307.309726 
L 205.542495 312.663273 
L 210.261311 301.868178 
L 214.980127 291.202254 
L 219.698943 296.928558 
L 224.417759 302.188839 
L 229.136575 293.239604 
L 233.855391 275.522673 
L 238.574207 273.606493 
L 243.293023 275.914445 
L 248.011839 271.535672 
L 252.730655 261.18673 
L 257.449471 251.097815 
L 262.168288 252.122139 
L 266.887104 259.143465 
L 271.60592 252.922074 
L 276.324736 251.628692 
L 281.043552 253.856201 
L 285.762368 253.261716 
L 290.481184 253.056719 
L 295.2 239.080806 
L 299.918816 238.285768 
L 304.637632 232.804455 
L 309.356448 213.930431 
L 314.075264 205.089451 
L 318.79408 204.913625 
L 323.512896 190.172052 
L 328.231712 180.376383 
L 332.950529 185.714749 
L 337.669345 193.950994 
L 342.388161 198.485711 
L 347.106977 199.175419 
L 351.825793 202.366105 
L 356.544609 194.464861 
L 361.263425 186.839403 
L 365.982241 176.028751 
L 370.701057 179.957732 
L 375.419873 203.786179 
L 380.138689 108.826338 
L 384.857505 104.380221 
L 389.576321 188.939671 
L 394.295137 221.718352 
L 399.013953 194.424987 
L 403.73277 172.834401 
L 408.451586 140.633807 
L 413.170402 109.931899 
L 417.889218 120.904808 
L 422.608034 145.961783 
L 427.32685 151.730375 
L 432.045666 144.662651 
L 436.764482 125.216002 
L 441.483298 122.838097 
L 446.202114 124.127606 
L 450.92093 131.320043 
L 455.639746 128.226293 
L 460.358562 121.771337 
L 465.077378 119.477148 
L 469.796195 127.942558 
L 474.515011 127.538929 
L 479.233827 126.727516 
L 483.952643 108.064451 
L 488.671459 110.5241 
L 493.390275 113.66548 
L 498.109091 117.172407 
" clip-path="url(#pbb3c4697d3)" style="fill: none; stroke: #6060eb; stroke-width: 4; stroke-linecap: square"/>
   </g>
   <g id="line2d_15">
    <path d="M 92.290909 313.133562 
L 97.009725 331.542445 
L 101.728541 331.425819 
L 106.447357 328.999813 
L 111.166173 329.413459 
L 115.884989 329.708822 
L 120.603805 332.989606 
L 125.322622 327.922785 
L 130.041438 332.386791 
L 134.760254 330.093539 
L 139.47907 300.65776 
L 144.197886 299.57126 
L 148.916702 303.130356 
L 153.635518 304.281891 
L 158.354334 299.661523 
L 163.07315 301.08681 
L 167.791966 300.967606 
L 172.510782 293.651328 
L 177.229598 292.62341 
L 181.948414 294.509447 
L 186.66723 296.073096 
L 191.386047 300.448924 
L 196.104863 300.153708 
L 200.823679 307.309726 
L 205.542495 312.663273 
L 210.261311 301.868178 
L 214.980127 291.202254 
L 219.698943 296.928558 
L 224.417759 302.188839 
L 229.136575 293.239604 
L 233.855391 275.522673 
L 238.574207 273.606493 
L 243.293023 275.914445 
L 248.011839 271.535672 
L 252.730655 261.18673 
L 257.449471 251.097815 
L 262.168288 252.122139 
L 266.887104 259.143465 
L 271.60592 252.922074 
L 276.324736 251.628692 
L 281.043552 253.856201 
L 285.762368 253.261716 
L 290.481184 253.056719 
L 295.2 239.080806 
L 299.918816 238.285768 
L 304.637632 232.804455 
L 309.356448 213.930431 
L 314.075264 205.089451 
L 318.79408 204.913625 
L 323.512896 190.172052 
L 328.231712 180.376383 
L 332.950529 185.714749 
L 337.669345 193.950994 
L 342.388161 198.485711 
L 347.106977 199.175419 
L 351.825793 202.366105 
L 356.544609 194.464861 
L 361.263425 186.839403 
L 365.982241 176.028751 
L 370.701057 179.957732 
L 375.419873 203.786179 
L 380.138689 108.826338 
L 384.857505 104.380221 
L 389.576321 188.939671 
L 394.295137 221.718352 
L 399.013953 194.424987 
L 403.73277 172.834401 
L 408.451586 140.633807 
L 413.170402 109.931899 
L 417.889218 120.904808 
L 422.608034 145.961783 
L 427.32685 151.730375 
L 432.045666 144.662651 
L 436.764482 125.216002 
L 441.483298 122.838097 
L 446.202114 124.127606 
L 450.92093 131.320043 
L 455.639746 128.226293 
L 460.358562 121.771337 
L 465.077378 119.477148 
L 469.796195 127.942558 
L 474.515011 127.538929 
L 479.233827 126.727516 
L 483.952643 108.064451 
L 488.671459 110.5241 
L 493.390275 113.66548 
L 498.109091 117.172407 
" clip-path="url(#pbb3c4697d3)" style="fill: none; stroke: #ffffff; stroke-width: 1.5; stroke-linecap: square"/>
   </g>
   <g id="line2d_16">
    <path d="M 92.290909 328.151796 
L 97.009725 331.278784 
L 101.728541 331.97176 
L 106.447357 331.670594 
L 111.166173 331.999532 
L 115.884989 331.335516 
L 120.603805 330.257652 
L 125.322622 331.060251 
L 130.041438 331.364049 
L 134.760254 330.926656 
L 139.47907 298.363852 
L 144.197886 299.196546 
L 148.916702 300.553342 
L 153.635518 302.12394 
L 158.354334 298.718573 
L 163.07315 294.602741 
L 167.791966 295.600923 
L 172.510782 294.709251 
L 177.229598 294.981876 
L 181.948414 294.422227 
L 186.66723 292.305374 
L 191.386047 293.287024 
L 196.104863 293.603307 
L 200.823679 295.819247 
L 205.542495 295.565409 
L 210.261311 292.108438 
L 214.980127 292.33494 
L 219.698943 292.409711 
L 224.417759 292.838498 
L 229.136575 291.85893 
L 233.855391 294.517685 
L 238.574207 293.962552 
L 243.293023 293.602749 
L 248.011839 293.838171 
L 252.730655 292.949028 
L 257.449471 292.49781 
L 262.168288 294.622763 
L 266.887104 294.336542 
L 271.60592 294.353658 
L 276.324736 296.78901 
L 281.043552 295.526026 
L 285.762368 292.308488 
L 290.481184 290.215691 
L 295.2 289.082427 
L 299.918816 290.586576 
L 304.637632 292.024393 
L 309.356448 290.485221 
L 314.075264 290.480706 
L 318.79408 286.637313 
L 323.512896 285.735118 
L 328.231712 285.413304 
L 332.950529 284.014327 
L 337.669345 284.418578 
L 342.388161 282.328001 
L 347.106977 280.925088 
L 351.825793 283.99047 
L 356.544609 286.391787 
L 361.263425 287.469495 
L 365.982241 292.209558 
L 370.701057 300.701324 
L 375.419873 320.463958 
L 380.138689 323.093105 
L 384.857505 326.269807 
L 389.576321 322.748464 
L 394.295137 323.620482 
L 399.013953 323.378778 
L 403.73277 322.853907 
L 408.451586 321.154398 
L 413.170402 320.903066 
L 417.889218 321.508759 
L 422.608034 324.061114 
L 427.32685 324.285161 
L 432.045666 323.834545 
L 436.764482 322.564572 
L 441.483298 321.010047 
L 446.202114 321.92387 
L 450.92093 323.398818 
L 455.639746 321.698943 
L 460.358562 322.510451 
L 465.077378 321.848692 
L 469.796195 321.565423 
L 474.515011 323.157469 
L 479.233827 323.719834 
L 483.952643 321.283388 
L 488.671459 321.237883 
L 493.390275 322.826743 
L 498.109091 323.679466 
" clip-path="url(#pbb3c4697d3)" style="fill: none; stroke-dasharray: 5.55,2.4; stroke-dashoffset: 0; stroke: #6060eb; stroke-opacity: 0.8; stroke-width: 1.5"/>
   </g>
   <g id="line2d_17">
    <path d="M 92.290909 315.206279 
L 97.009725 331.087225 
L 101.728541 328.537486 
L 106.447357 331.507149 
L 111.166173 330.228389 
L 115.884989 327.731157 
L 120.603805 329.033003 
L 125.322622 334.307915 
L 130.041438 334.639403 
L 134.760254 336.496065 
L 139.47907 301.115404 
L 144.197886 297.844511 
L 148.916702 298.431126 
L 153.635518 303.447869 
L 158.354334 305.663421 
L 163.07315 307.398546 
L 167.791966 303.231415 
L 172.510782 303.874224 
L 177.229598 301.374599 
L 181.948414 291.289466 
L 186.66723 287.95557 
L 191.386047 285.760788 
L 196.104863 293.898585 
L 200.823679 290.300538 
L 205.542495 298.46884 
L 210.261311 295.830615 
L 214.980127 292.808989 
L 219.698943 295.949313 
L 224.417759 296.120608 
L 229.136575 295.869887 
L 233.855391 293.056275 
L 238.574207 296.074383 
L 243.293023 292.652153 
L 248.011839 294.370315 
L 252.730655 293.599067 
L 257.449471 296.724166 
L 262.168288 298.868457 
L 266.887104 303.167646 
L 271.60592 305.176213 
L 276.324736 305.456608 
L 281.043552 296.982741 
L 285.762368 288.717968 
L 290.481184 289.724317 
L 295.2 297.182941 
L 299.918816 302.60143 
L 304.637632 314.032693 
L 309.356448 313.240055 
L 314.075264 308.504546 
L 318.79408 307.724712 
L 323.512896 310.201043 
L 328.231712 305.725505 
L 332.950529 295.429807 
L 337.669345 303.5365 
L 342.388161 313.989393 
L 347.106977 316.157 
L 351.825793 315.84819 
L 356.544609 319.520915 
L 361.263425 331.548262 
L 365.982241 319.224069 
L 370.701057 320.903009 
L 375.419873 336.515947 
L 380.138689 337.641405 
L 384.857505 342.982284 
L 389.576321 344.004595 
L 394.295137 338.178785 
L 399.013953 331.618201 
L 403.73277 337.765412 
L 408.451586 336.344515 
L 413.170402 333.149044 
L 417.889218 328.780066 
L 422.608034 328.423478 
L 427.32685 328.610685 
L 432.045666 331.785836 
L 436.764482 333.183573 
L 441.483298 330.259209 
L 446.202114 330.9036 
L 450.92093 329.809578 
L 455.639746 332.187807 
L 460.358562 333.627274 
L 465.077378 329.989161 
L 469.796195 328.600467 
L 474.515011 324.613394 
L 479.233827 328.955523 
L 483.952643 333.197262 
L 488.671459 333.950169 
L 493.390275 330.811799 
L 498.109091 330.835792 
" clip-path="url(#pbb3c4697d3)" style="fill: none; stroke: #6060eb; stroke-width: 2; stroke-linecap: square"/>
   </g>
   <g id="line2d_18">
    <path d="M 92.290909 333.544388 
L 97.009725 331.991214 
L 101.728541 332.0314 
L 106.447357 331.568116 
L 111.166173 331.66459 
L 115.884989 331.096801 
L 120.603805 332.921376 
L 125.322622 332.139945 
L 130.041438 332.08811 
L 134.760254 331.297693 
L 139.47907 293.091971 
L 144.197886 294.036363 
L 148.916702 294.553794 
L 153.635518 296.79061 
L 158.354334 294.55355 
L 163.07315 293.916725 
L 167.791966 294.530255 
L 172.510782 295.080075 
L 177.229598 295.240624 
L 181.948414 295.588187 
L 186.66723 295.696976 
L 191.386047 296.017622 
L 196.104863 295.217585 
L 200.823679 294.589762 
L 205.542495 295.03169 
L 210.261311 294.82286 
L 214.980127 294.80269 
L 219.698943 296.499345 
L 224.417759 298.328501 
L 229.136575 298.570187 
L 233.855391 298.858072 
L 238.574207 298.554685 
L 243.293023 298.830037 
L 248.011839 300.434966 
L 252.730655 299.066014 
L 257.449471 300.060854 
L 262.168288 300.959364 
L 266.887104 300.416038 
L 271.60592 300.865771 
L 276.324736 301.012779 
L 281.043552 300.343803 
L 285.762368 299.420644 
L 290.481184 298.320968 
L 295.2 296.850406 
L 299.918816 296.120984 
L 304.637632 294.401449 
L 309.356448 292.299584 
L 314.075264 294.305688 
L 318.79408 295.511449 
L 323.512896 296.755781 
L 328.231712 297.251203 
L 332.950529 296.943533 
L 337.669345 297.990757 
L 342.388161 298.297047 
L 347.106977 298.404263 
L 351.825793 296.71032 
L 356.544609 296.308999 
L 361.263425 298.596731 
L 365.982241 299.597761 
L 370.701057 308.338125 
L 375.419873 326.069237 
L 380.138689 331.197462 
L 384.857505 332.644035 
L 389.576321 331.781011 
L 394.295137 330.443323 
L 399.013953 332.522272 
L 403.73277 331.441554 
L 408.451586 331.652879 
L 413.170402 331.184288 
L 417.889218 331.274672 
L 422.608034 332.455262 
L 427.32685 331.029716 
L 432.045666 331.118917 
L 436.764482 331.483349 
L 441.483298 332.086122 
L 446.202114 331.006199 
L 450.92093 331.447138 
L 455.639746 331.322258 
L 460.358562 330.598166 
L 465.077378 330.603553 
L 469.796195 330.955519 
L 474.515011 332.135482 
L 479.233827 332.170428 
L 483.952643 331.128644 
L 488.671459 330.748448 
L 493.390275 332.074781 
L 498.109091 331.492777 
" clip-path="url(#pbb3c4697d3)" style="fill: none; stroke-dasharray: 5.55,2.4; stroke-dashoffset: 0; stroke: #6060eb; stroke-opacity: 0.8; stroke-width: 1.5"/>
   </g>
   <g id="line2d_19">
    <path d="M 139.47907 378 
L 139.47907 51.84 
" clip-path="url(#pbb3c4697d3)" style="fill: none; stroke-dasharray: 5.55,2.4; stroke-dashoffset: 0; stroke: #808080; stroke-opacity: 0.7; stroke-width: 1.5"/>
   </g>
   <g id="line2d_20">
    <path d="M 375.419873 378 
L 375.419873 51.84 
" clip-path="url(#pbb3c4697d3)" style="fill: none; stroke-dasharray: 5.55,2.4; stroke-dashoffset: 0; stroke: #808080; stroke-opacity: 0.7; stroke-width: 1.5"/>
   </g>
   <g id="patch_3">
    <path d="M 72 378 
L 72 51.84 
" style="fill: none; stroke: #000000; stroke-width: 0.8; stroke-linejoin: miter; stroke-linecap: square"/>
   </g>
   <g id="patch_4">
    <path d="M 72 378 
L 518.4 378 
" style="fill: none; stroke: #000000; stroke-width: 0.8; stroke-linejoin: miter; stroke-linecap: square"/>
   </g>
   <g id="text_16">
    <!-- L1_sactemporal -->
    <g transform="translate(233.546406 45.84) scale(0.14 -0.14)">
     <defs>
      <path id="DejaVuSans-Bold-4c" d="M 588 4666 
L 1791 4666 
L 1791 909 
L 3903 909 
L 3903 0 
L 588 0 
L 588 4666 
z
" transform="scale(0.015625)"/>
      <path id="DejaVuSans-Bold-31" d="M 750 831 
L 1813 831 
L 1813 3847 
L 722 3622 
L 722 4441 
L 1806 4666 
L 2950 4666 
L 2950 831 
L 4013 831 
L 4013 0 
L 750 0 
L 750 831 
z
" transform="scale(0.015625)"/>
      <path id="DejaVuSans-Bold-5f" d="M 3200 -916 
L 3200 -1509 
L 0 -1509 
L 0 -916 
L 3200 -916 
z
" transform="scale(0.015625)"/>
      <path id="DejaVuSans-Bold-73" d="M 3272 3391 
L 3272 2541 
Q 2913 2691 2578 2766 
Q 2244 2841 1947 2841 
Q 1628 2841 1473 2761 
Q 1319 2681 1319 2516 
Q 1319 2381 1436 2309 
Q 1553 2238 1856 2203 
L 2053 2175 
Q 2913 2066 3209 1816 
Q 3506 1566 3506 1031 
Q 3506 472 3093 190 
Q 2681 -91 1863 -91 
Q 1516 -91 1145 -36 
Q 775 19 384 128 
L 384 978 
Q 719 816 1070 734 
Q 1422 653 1784 653 
Q 2113 653 2278 743 
Q 2444 834 2444 1013 
Q 2444 1163 2330 1236 
Q 2216 1309 1875 1350 
L 1678 1375 
Q 931 1469 631 1722 
Q 331 1975 331 2491 
Q 331 3047 712 3315 
Q 1094 3584 1881 3584 
Q 2191 3584 2531 3537 
Q 2872 3491 3272 3391 
z
" transform="scale(0.015625)"/>
      <path id="DejaVuSans-Bold-61" d="M 2106 1575 
Q 1756 1575 1579 1456 
Q 1403 1338 1403 1106 
Q 1403 894 1545 773 
Q 1688 653 1941 653 
Q 2256 653 2472 879 
Q 2688 1106 2688 1447 
L 2688 1575 
L 2106 1575 
z
M 3816 1997 
L 3816 0 
L 2688 0 
L 2688 519 
Q 2463 200 2181 54 
Q 1900 -91 1497 -91 
Q 953 -91 614 226 
Q 275 544 275 1050 
Q 275 1666 698 1953 
Q 1122 2241 2028 2241 
L 2688 2241 
L 2688 2328 
Q 2688 2594 2478 2717 
Q 2269 2841 1825 2841 
Q 1466 2841 1156 2769 
Q 847 2697 581 2553 
L 581 3406 
Q 941 3494 1303 3539 
Q 1666 3584 2028 3584 
Q 2975 3584 3395 3211 
Q 3816 2838 3816 1997 
z
" transform="scale(0.015625)"/>
      <path id="DejaVuSans-Bold-63" d="M 3366 3391 
L 3366 2478 
Q 3138 2634 2908 2709 
Q 2678 2784 2431 2784 
Q 1963 2784 1702 2511 
Q 1441 2238 1441 1747 
Q 1441 1256 1702 982 
Q 1963 709 2431 709 
Q 2694 709 2930 787 
Q 3166 866 3366 1019 
L 3366 103 
Q 3103 6 2833 -42 
Q 2563 -91 2291 -91 
Q 1344 -91 809 395 
Q 275 881 275 1747 
Q 275 2613 809 3098 
Q 1344 3584 2291 3584 
Q 2566 3584 2833 3536 
Q 3100 3488 3366 3391 
z
" transform="scale(0.015625)"/>
      <path id="DejaVuSans-Bold-74" d="M 1759 4494 
L 1759 3500 
L 2913 3500 
L 2913 2700 
L 1759 2700 
L 1759 1216 
Q 1759 972 1856 886 
Q 1953 800 2241 800 
L 2816 800 
L 2816 0 
L 1856 0 
Q 1194 0 917 276 
Q 641 553 641 1216 
L 641 2700 
L 84 2700 
L 84 3500 
L 641 3500 
L 641 4494 
L 1759 4494 
z
" transform="scale(0.015625)"/>
      <path id="DejaVuSans-Bold-65" d="M 4031 1759 
L 4031 1441 
L 1416 1441 
Q 1456 1047 1700 850 
Q 1944 653 2381 653 
Q 2734 653 3104 758 
Q 3475 863 3866 1075 
L 3866 213 
Q 3469 63 3072 -14 
Q 2675 -91 2278 -91 
Q 1328 -91 801 392 
Q 275 875 275 1747 
Q 275 2603 792 3093 
Q 1309 3584 2216 3584 
Q 3041 3584 3536 3087 
Q 4031 2591 4031 1759 
z
M 2881 2131 
Q 2881 2450 2695 2645 
Q 2509 2841 2209 2841 
Q 1884 2841 1681 2658 
Q 1478 2475 1428 2131 
L 2881 2131 
z
" transform="scale(0.015625)"/>
      <path id="DejaVuSans-Bold-6d" d="M 3781 2919 
Q 3994 3244 4286 3414 
Q 4578 3584 4928 3584 
Q 5531 3584 5847 3212 
Q 6163 2841 6163 2131 
L 6163 0 
L 5038 0 
L 5038 1825 
Q 5041 1866 5042 1909 
Q 5044 1953 5044 2034 
Q 5044 2406 4934 2573 
Q 4825 2741 4581 2741 
Q 4263 2741 4089 2478 
Q 3916 2216 3909 1719 
L 3909 0 
L 2784 0 
L 2784 1825 
Q 2784 2406 2684 2573 
Q 2584 2741 2328 2741 
Q 2006 2741 1831 2477 
Q 1656 2213 1656 1722 
L 1656 0 
L 531 0 
L 531 3500 
L 1656 3500 
L 1656 2988 
Q 1863 3284 2130 3434 
Q 2397 3584 2719 3584 
Q 3081 3584 3359 3409 
Q 3638 3234 3781 2919 
z
" transform="scale(0.015625)"/>
      <path id="DejaVuSans-Bold-70" d="M 1656 506 
L 1656 -1331 
L 538 -1331 
L 538 3500 
L 1656 3500 
L 1656 2988 
Q 1888 3294 2169 3439 
Q 2450 3584 2816 3584 
Q 3463 3584 3878 3070 
Q 4294 2556 4294 1747 
Q 4294 938 3878 423 
Q 3463 -91 2816 -91 
Q 2450 -91 2169 54 
Q 1888 200 1656 506 
z
M 2400 2772 
Q 2041 2772 1848 2508 
Q 1656 2244 1656 1747 
Q 1656 1250 1848 986 
Q 2041 722 2400 722 
Q 2759 722 2948 984 
Q 3138 1247 3138 1747 
Q 3138 2247 2948 2509 
Q 2759 2772 2400 2772 
z
" transform="scale(0.015625)"/>
      <path id="DejaVuSans-Bold-6f" d="M 2203 2784 
Q 1831 2784 1636 2517 
Q 1441 2250 1441 1747 
Q 1441 1244 1636 976 
Q 1831 709 2203 709 
Q 2569 709 2762 976 
Q 2956 1244 2956 1747 
Q 2956 2250 2762 2517 
Q 2569 2784 2203 2784 
z
M 2203 3584 
Q 3106 3584 3614 3096 
Q 4122 2609 4122 1747 
Q 4122 884 3614 396 
Q 3106 -91 2203 -91 
Q 1297 -91 786 396 
Q 275 884 275 1747 
Q 275 2609 786 3096 
Q 1297 3584 2203 3584 
z
" transform="scale(0.015625)"/>
      <path id="DejaVuSans-Bold-72" d="M 3138 2547 
Q 2991 2616 2845 2648 
Q 2700 2681 2553 2681 
Q 2122 2681 1889 2404 
Q 1656 2128 1656 1613 
L 1656 0 
L 538 0 
L 538 3500 
L 1656 3500 
L 1656 2925 
Q 1872 3269 2151 3426 
Q 2431 3584 2822 3584 
Q 2878 3584 2943 3579 
Q 3009 3575 3134 3559 
L 3138 2547 
z
" transform="scale(0.015625)"/>
      <path id="DejaVuSans-Bold-6c" d="M 538 4863 
L 1656 4863 
L 1656 0 
L 538 0 
L 538 4863 
z
" transform="scale(0.015625)"/>
     </defs>
     <use xlink:href="#DejaVuSans-Bold-4c"/>
     <use xlink:href="#DejaVuSans-Bold-31" x="63.720703"/>
     <use xlink:href="#DejaVuSans-Bold-5f" x="133.300781"/>
     <use xlink:href="#DejaVuSans-Bold-73" x="183.300781"/>
     <use xlink:href="#DejaVuSans-Bold-61" x="242.822266"/>
     <use xlink:href="#DejaVuSans-Bold-63" x="310.302734"/>
     <use xlink:href="#DejaVuSans-Bold-74" x="369.580078"/>
     <use xlink:href="#DejaVuSans-Bold-65" x="417.382812"/>
     <use xlink:href="#DejaVuSans-Bold-6d" x="485.205078"/>
     <use xlink:href="#DejaVuSans-Bold-70" x="589.404297"/>
     <use xlink:href="#DejaVuSans-Bold-6f" x="660.986328"/>
     <use xlink:href="#DejaVuSans-Bold-72" x="729.6875"/>
     <use xlink:href="#DejaVuSans-Bold-61" x="779.003906"/>
     <use xlink:href="#DejaVuSans-Bold-6c" x="846.484375"/>
    </g>
   </g>
  </g>
 </g>
 <defs>
  <clipPath id="pbb3c4697d3">
   <rect x="72" y="51.84" width="446.4" height="326.16"/>
  </clipPath>
 </defs>
</svg>
