<?xml version="1.0" encoding="utf-8" standalone="no"?>
<!DOCTYPE svg PUBLIC "-//W3C//DTD SVG 1.1//EN"
  "http://www.w3.org/Graphics/SVG/1.1/DTD/svg11.dtd">
<svg xmlns:xlink="http://www.w3.org/1999/xlink" width="576pt" height="432pt" viewBox="0 0 576 432" xmlns="http://www.w3.org/2000/svg" version="1.1">
 <metadata>
  <rdf:RDF xmlns:dc="http://purl.org/dc/elements/1.1/" xmlns:cc="http://creativecommons.org/ns#" xmlns:rdf="http://www.w3.org/1999/02/22-rdf-syntax-ns#">
   <cc:Work>
    <dc:type rdf:resource="http://purl.org/dc/dcmitype/StillImage"/>
    <dc:date>2025-11-18T16:11:34.967443</dc:date>
    <dc:format>image/svg+xml</dc:format>
    <dc:creator>
     <cc:Agent>
      <dc:title>Matplotlib v3.9.4, https://matplotlib.org/</dc:title>
     </cc:Agent>
    </dc:creator>
   </cc:Work>
  </rdf:RDF>
 </metadata>
 <defs>
  <style type="text/css">*{stroke-linejoin: round; stroke-linecap: butt}</style>
 </defs>
 <g id="figure_1">
  <g id="patch_1">
   <path d="M 0 432 
L 576 432 
L 576 0 
L 0 0 
z
" style="fill: #ffffff"/>
  </g>
  <g id="axes_1">
   <g id="patch_2">
    <path d="M 72 378 
L 518.4 378 
L 518.4 51.84 
L 72 51.84 
L 72 378 
z
" style="fill: none"/>
   </g>
   <g id="PolyCollection_1">
    <defs>
     <path id="m3a8d8a0714" d="M 92.290909 -129.901165 
L 92.290909 -100.947028 
L 97.009725 -94.631471 
L 101.728541 -94.818423 
L 106.447357 -97.421686 
L 111.166173 -96.843245 
L 115.884989 -96.783173 
L 120.603805 -93.410983 
L 125.322622 -98.321321 
L 130.041438 -94.053209 
L 134.760254 -95.433013 
L 139.47907 -121.494981 
L 144.197886 -124.764189 
L 148.916702 -120.028617 
L 153.635518 -119.831119 
L 158.354334 -121.955961 
L 163.07315 -119.680719 
L 167.791966 -120.666892 
L 172.510782 -128.512567 
L 177.229598 -128.299717 
L 181.948414 -127.961031 
L 186.66723 -122.5609 
L 191.386047 -117.825527 
L 196.104863 -120.969011 
L 200.823679 -113.918897 
L 205.542495 -108.749155 
L 210.261311 -121.580592 
L 214.980127 -132.325163 
L 219.698943 -124.476987 
L 224.417759 -117.059364 
L 229.136575 -125.336216 
L 233.855391 -143.385618 
L 238.574207 -142.148946 
L 243.293023 -138.606287 
L 248.011839 -144.361834 
L 252.730655 -154.739039 
L 257.449471 -164.931881 
L 262.168288 -164.245059 
L 266.887104 -157.37503 
L 271.60592 -166.118661 
L 276.324736 -166.859094 
L 281.043552 -164.744038 
L 285.762368 -164.205454 
L 290.481184 -163.695801 
L 295.2 -176.439147 
L 299.918816 -176.634033 
L 304.637632 -179.863576 
L 309.356448 -199.017845 
L 314.075264 -208.724673 
L 318.79408 -209.205801 
L 323.512896 -226.672228 
L 328.231712 -236.460019 
L 332.950529 -229.360255 
L 337.669345 -223.120358 
L 342.388161 -218.512673 
L 347.106977 -218.920889 
L 351.825793 -213.541222 
L 356.544609 -219.963247 
L 361.263425 -226.281103 
L 365.982241 -237.267207 
L 370.701057 -236.030702 
L 375.419873 -213.319701 
L 380.138689 -285.94559 
L 384.857505 -291.832322 
L 389.576321 -209.72506 
L 394.295137 -177.41757 
L 399.013953 -206.400471 
L 403.73277 -228.209863 
L 408.451586 -258.082595 
L 413.170402 -287.503004 
L 417.889218 -275.265445 
L 422.608034 -249.351927 
L 427.32685 -240.35904 
L 432.045666 -247.872561 
L 436.764482 -266.710789 
L 441.483298 -269.765295 
L 446.202114 -269.489452 
L 450.92093 -260.666277 
L 455.639746 -262.125998 
L 460.358562 -268.948187 
L 465.077378 -269.547111 
L 469.796195 -260.877552 
L 474.515011 -259.696348 
L 479.233827 -262.011145 
L 483.952643 -282.618707 
L 488.671459 -276.392134 
L 493.390275 -273.584254 
L 498.109091 -270.123755 
L 498.109091 -358.120602 
L 498.109091 -358.120602 
L 493.390275 -361.771917 
L 488.671459 -365.334545 
L 483.952643 -364.095979 
L 479.233827 -346.856087 
L 474.515011 -347.525392 
L 469.796195 -345.525656 
L 465.077378 -354.023385 
L 460.358562 -349.969847 
L 455.639746 -343.701815 
L 450.92093 -338.887615 
L 446.202114 -344.650225 
L 441.483298 -346.989419 
L 436.764482 -345.221693 
L 432.045666 -324.623413 
L 427.32685 -317.804061 
L 422.608034 -320.509494 
L 417.889218 -345.409852 
L 413.170402 -355.42462 
L 408.451586 -322.583606 
L 403.73277 -287.155678 
L 399.013953 -265.180801 
L 394.295137 -238.814576 
L 389.576321 -272.980067 
L 384.857505 -362.353735 
L 380.138689 -359.224039 
L 375.419873 -239.277698 
L 370.701057 -264.8892 
L 365.982241 -271.620406 
L 361.263425 -260.683229 
L 356.544609 -251.537162 
L 351.825793 -241.935993 
L 347.106977 -243.026823 
L 342.388161 -244.833722 
L 337.669345 -249.42214 
L 332.950529 -259.884799 
L 328.231712 -263.610885 
L 323.512896 -253.533713 
L 318.79408 -241.105211 
L 314.075264 -241.229777 
L 309.356448 -233.007687 
L 304.637632 -213.886692 
L 299.918816 -206.000498 
L 295.2 -204.583099 
L 290.481184 -188.984225 
L 285.762368 -188.058853 
L 281.043552 -186.314691 
L 276.324736 -188.716876 
L 271.60592 -186.834417 
L 266.887104 -182.961482 
L 262.168288 -190.330235 
L 257.449471 -191.720673 
L 252.730655 -181.453867 
L 248.011839 -170.844107 
L 243.293023 -167.719794 
L 238.574207 -168.857509 
L 233.855391 -163.73495 
L 229.136575 -145.855597 
L 224.417759 -135.983997 
L 219.698943 -139.233874 
L 214.980127 -142.99826 
L 210.261311 -132.113048 
L 205.542495 -123.052752 
L 200.823679 -128.739647 
L 196.104863 -136.20146 
L 191.386047 -138.746266 
L 186.66723 -142.884781 
L 181.948414 -140.655626 
L 177.229598 -144.141698 
L 172.510782 -141.844298 
L 167.791966 -134.853048 
L 163.07315 -135.597483 
L 158.354334 -136.21263 
L 153.635518 -128.967671 
L 148.916702 -131.105409 
L 144.197886 -133.587448 
L 139.47907 -134.653306 
L 134.760254 -101.021476 
L 130.041438 -97.750718 
L 125.322622 -102.535314 
L 120.603805 -97.170476 
L 115.884989 -100.451495 
L 111.166173 -100.9904 
L 106.447357 -101.250806 
L 101.728541 -98.93429 
L 97.009725 -98.884732 
L 92.290909 -129.901165 
z
" style="stroke: #1e72ff; stroke-opacity: 0.2"/>
    </defs>
    <g clip-path="url(#p10778a2e77)">
     <use xlink:href="#m3a8d8a0714" x="0" y="432" style="fill: #1e72ff; fill-opacity: 0.2; stroke: #1e72ff; stroke-opacity: 0.2"/>
    </g>
   </g>
   <g id="PolyCollection_2">
    <defs>
     <path id="mb2b6c4e69f" d="M 92.290909 -130.354813 
L 92.290909 -108.51248 
L 97.009725 -94.725661 
L 101.728541 -90.91975 
L 106.447357 -92.426425 
L 111.166173 -100.309657 
L 115.884989 -94.133387 
L 120.603805 -93.302939 
L 125.322622 -93.328694 
L 130.041438 -97.439418 
L 134.760254 -93.61728 
L 139.47907 -141.720596 
L 144.197886 -147.354113 
L 148.916702 -138.18031 
L 153.635518 -125.535836 
L 158.354334 -131.548287 
L 163.07315 -132.191994 
L 167.791966 -127.750626 
L 172.510782 -128.364176 
L 177.229598 -129.971702 
L 181.948414 -121.88891 
L 186.66723 -110.673059 
L 191.386047 -115.923054 
L 196.104863 -123.962144 
L 200.823679 -131.857321 
L 205.542495 -138.509434 
L 210.261311 -133.191532 
L 214.980127 -118.6336 
L 219.698943 -108.485274 
L 224.417759 -115.736808 
L 229.136575 -120.023447 
L 233.855391 -127.832825 
L 238.574207 -129.730179 
L 243.293023 -124.770053 
L 248.011839 -120.364825 
L 252.730655 -114.780028 
L 257.449471 -115.30214 
L 262.168288 -131.130046 
L 266.887104 -133.654578 
L 271.60592 -125.34875 
L 276.324736 -129.843156 
L 281.043552 -135.672829 
L 285.762368 -135.339959 
L 290.481184 -139.319254 
L 295.2 -143.54766 
L 299.918816 -142.921862 
L 304.637632 -129.028132 
L 309.356448 -122.54194 
L 314.075264 -125.641951 
L 318.79408 -133.57154 
L 323.512896 -145.290934 
L 328.231712 -141.592713 
L 332.950529 -128.597799 
L 337.669345 -132.857876 
L 342.388161 -139.493707 
L 347.106977 -140.604068 
L 351.825793 -127.63765 
L 356.544609 -119.028555 
L 361.263425 -122.429048 
L 365.982241 -125.142901 
L 370.701057 -116.394088 
L 375.419873 -93.081131 
L 380.138689 -90.733878 
L 384.857505 -92.630779 
L 389.576321 -91.595213 
L 394.295137 -96.982142 
L 399.013953 -97.053171 
L 403.73277 -90.637172 
L 408.451586 -88.935093 
L 413.170402 -92.432748 
L 417.889218 -94.214456 
L 422.608034 -92.520552 
L 427.32685 -97.097075 
L 432.045666 -95.154785 
L 436.764482 -90.480631 
L 441.483298 -86.322242 
L 446.202114 -93.125023 
L 450.92093 -102.403787 
L 455.639746 -93.351318 
L 460.358562 -85.636402 
L 465.077378 -84.331831 
L 469.796195 -93.60228 
L 474.515011 -91.202737 
L 479.233827 -96.539 
L 483.952643 -92.103063 
L 488.671459 -86.70046 
L 493.390275 -92.516324 
L 498.109091 -97.812123 
L 498.109091 -106.456846 
L 498.109091 -106.456846 
L 493.390275 -100.879199 
L 488.671459 -97.569036 
L 483.952643 -98.201653 
L 479.233827 -104.278351 
L 474.515011 -100.714796 
L 469.796195 -100.13389 
L 465.077378 -93.975365 
L 460.358562 -90.27637 
L 455.639746 -102.181159 
L 450.92093 -111.259282 
L 446.202114 -99.59536 
L 441.483298 -97.647654 
L 436.764482 -96.88351 
L 432.045666 -104.800614 
L 427.32685 -104.657156 
L 422.608034 -103.19935 
L 417.889218 -106.647374 
L 413.170402 -101.194555 
L 408.451586 -98.305147 
L 403.73277 -99.811418 
L 399.013953 -107.341369 
L 394.295137 -111.898701 
L 389.576321 -110.236692 
L 384.857505 -109.39474 
L 380.138689 -107.664031 
L 375.419873 -107.737711 
L 370.701057 -137.728764 
L 365.982241 -147.796467 
L 361.263425 -146.856572 
L 356.544609 -142.397778 
L 351.825793 -148.893444 
L 347.106977 -159.266619 
L 342.388161 -160.177595 
L 337.669345 -154.588365 
L 332.950529 -150.941079 
L 328.231712 -163.827147 
L 323.512896 -168.786432 
L 318.79408 -158.455494 
L 314.075264 -150.088484 
L 309.356448 -142.255257 
L 304.637632 -148.163614 
L 299.918816 -160.895657 
L 295.2 -162.194344 
L 290.481184 -156.255899 
L 285.762368 -151.066025 
L 281.043552 -147.417086 
L 276.324736 -148.114716 
L 271.60592 -152.746598 
L 266.887104 -158.735025 
L 262.168288 -158.520921 
L 257.449471 -141.680712 
L 252.730655 -134.043772 
L 248.011839 -141.311348 
L 243.293023 -147.352822 
L 238.574207 -152.714759 
L 233.855391 -150.948724 
L 229.136575 -144.188918 
L 224.417759 -138.195031 
L 219.698943 -131.096973 
L 214.980127 -147.095722 
L 210.261311 -161.448618 
L 205.542495 -170.959355 
L 200.823679 -164.633911 
L 196.104863 -160.715641 
L 191.386047 -156.263677 
L 186.66723 -147.507365 
L 181.948414 -150.938047 
L 177.229598 -160.600467 
L 172.510782 -159.722833 
L 167.791966 -161.073278 
L 163.07315 -162.718078 
L 158.354334 -162.853252 
L 153.635518 -148.609611 
L 148.916702 -151.443569 
L 144.197886 -162.118579 
L 139.47907 -158.560192 
L 134.760254 -98.974925 
L 130.041438 -102.8323 
L 125.322622 -98.428856 
L 120.603805 -99.694562 
L 115.884989 -99.590827 
L 111.166173 -104.550419 
L 106.447357 -97.802951 
L 101.728541 -95.797157 
L 97.009725 -99.792035 
L 92.290909 -130.354813 
z
" style="stroke: #1e72ff; stroke-opacity: 0.2"/>
    </defs>
    <g clip-path="url(#p10778a2e77)">
     <use xlink:href="#mb2b6c4e69f" x="0" y="432" style="fill: #1e72ff; fill-opacity: 0.2; stroke: #1e72ff; stroke-opacity: 0.2"/>
    </g>
   </g>
   <g id="PathCollection_1">
    <defs>
     <path id="ma850760dd2" d="M -2.5 2.5 
L 2.5 2.5 
L 2.5 -2.5 
L -2.5 -2.5 
z
" style="stroke: #1e72ff"/>
    </defs>
    <g clip-path="url(#p10778a2e77)">
     <use xlink:href="#ma850760dd2" x="205.542495" y="356.000446" style="fill: #1e72ff; stroke: #1e72ff"/>
     <use xlink:href="#ma850760dd2" x="252.730655" y="356.000446" style="fill: #1e72ff; stroke: #1e72ff"/>
     <use xlink:href="#ma850760dd2" x="257.449471" y="356.000446" style="fill: #1e72ff; stroke: #1e72ff"/>
     <use xlink:href="#ma850760dd2" x="262.168288" y="356.000446" style="fill: #1e72ff; stroke: #1e72ff"/>
     <use xlink:href="#ma850760dd2" x="266.887104" y="356.000446" style="fill: #1e72ff; stroke: #1e72ff"/>
     <use xlink:href="#ma850760dd2" x="271.60592" y="356.000446" style="fill: #1e72ff; stroke: #1e72ff"/>
     <use xlink:href="#ma850760dd2" x="276.324736" y="356.000446" style="fill: #1e72ff; stroke: #1e72ff"/>
     <use xlink:href="#ma850760dd2" x="281.043552" y="356.000446" style="fill: #1e72ff; stroke: #1e72ff"/>
     <use xlink:href="#ma850760dd2" x="285.762368" y="356.000446" style="fill: #1e72ff; stroke: #1e72ff"/>
     <use xlink:href="#ma850760dd2" x="290.481184" y="356.000446" style="fill: #1e72ff; stroke: #1e72ff"/>
     <use xlink:href="#ma850760dd2" x="295.2" y="356.000446" style="fill: #1e72ff; stroke: #1e72ff"/>
     <use xlink:href="#ma850760dd2" x="299.918816" y="356.000446" style="fill: #1e72ff; stroke: #1e72ff"/>
     <use xlink:href="#ma850760dd2" x="304.637632" y="356.000446" style="fill: #1e72ff; stroke: #1e72ff"/>
     <use xlink:href="#ma850760dd2" x="309.356448" y="356.000446" style="fill: #1e72ff; stroke: #1e72ff"/>
     <use xlink:href="#ma850760dd2" x="314.075264" y="356.000446" style="fill: #1e72ff; stroke: #1e72ff"/>
     <use xlink:href="#ma850760dd2" x="318.79408" y="356.000446" style="fill: #1e72ff; stroke: #1e72ff"/>
     <use xlink:href="#ma850760dd2" x="323.512896" y="356.000446" style="fill: #1e72ff; stroke: #1e72ff"/>
     <use xlink:href="#ma850760dd2" x="328.231712" y="356.000446" style="fill: #1e72ff; stroke: #1e72ff"/>
     <use xlink:href="#ma850760dd2" x="332.950529" y="356.000446" style="fill: #1e72ff; stroke: #1e72ff"/>
     <use xlink:href="#ma850760dd2" x="337.669345" y="356.000446" style="fill: #1e72ff; stroke: #1e72ff"/>
     <use xlink:href="#ma850760dd2" x="342.388161" y="356.000446" style="fill: #1e72ff; stroke: #1e72ff"/>
     <use xlink:href="#ma850760dd2" x="347.106977" y="356.000446" style="fill: #1e72ff; stroke: #1e72ff"/>
     <use xlink:href="#ma850760dd2" x="351.825793" y="356.000446" style="fill: #1e72ff; stroke: #1e72ff"/>
     <use xlink:href="#ma850760dd2" x="356.544609" y="356.000446" style="fill: #1e72ff; stroke: #1e72ff"/>
     <use xlink:href="#ma850760dd2" x="361.263425" y="356.000446" style="fill: #1e72ff; stroke: #1e72ff"/>
     <use xlink:href="#ma850760dd2" x="365.982241" y="356.000446" style="fill: #1e72ff; stroke: #1e72ff"/>
     <use xlink:href="#ma850760dd2" x="370.701057" y="356.000446" style="fill: #1e72ff; stroke: #1e72ff"/>
     <use xlink:href="#ma850760dd2" x="375.419873" y="356.000446" style="fill: #1e72ff; stroke: #1e72ff"/>
     <use xlink:href="#ma850760dd2" x="380.138689" y="356.000446" style="fill: #1e72ff; stroke: #1e72ff"/>
     <use xlink:href="#ma850760dd2" x="384.857505" y="356.000446" style="fill: #1e72ff; stroke: #1e72ff"/>
     <use xlink:href="#ma850760dd2" x="389.576321" y="356.000446" style="fill: #1e72ff; stroke: #1e72ff"/>
     <use xlink:href="#ma850760dd2" x="394.295137" y="356.000446" style="fill: #1e72ff; stroke: #1e72ff"/>
     <use xlink:href="#ma850760dd2" x="399.013953" y="356.000446" style="fill: #1e72ff; stroke: #1e72ff"/>
     <use xlink:href="#ma850760dd2" x="403.73277" y="356.000446" style="fill: #1e72ff; stroke: #1e72ff"/>
     <use xlink:href="#ma850760dd2" x="408.451586" y="356.000446" style="fill: #1e72ff; stroke: #1e72ff"/>
     <use xlink:href="#ma850760dd2" x="413.170402" y="356.000446" style="fill: #1e72ff; stroke: #1e72ff"/>
     <use xlink:href="#ma850760dd2" x="417.889218" y="356.000446" style="fill: #1e72ff; stroke: #1e72ff"/>
     <use xlink:href="#ma850760dd2" x="422.608034" y="356.000446" style="fill: #1e72ff; stroke: #1e72ff"/>
     <use xlink:href="#ma850760dd2" x="427.32685" y="356.000446" style="fill: #1e72ff; stroke: #1e72ff"/>
     <use xlink:href="#ma850760dd2" x="432.045666" y="356.000446" style="fill: #1e72ff; stroke: #1e72ff"/>
     <use xlink:href="#ma850760dd2" x="436.764482" y="356.000446" style="fill: #1e72ff; stroke: #1e72ff"/>
     <use xlink:href="#ma850760dd2" x="441.483298" y="356.000446" style="fill: #1e72ff; stroke: #1e72ff"/>
     <use xlink:href="#ma850760dd2" x="446.202114" y="356.000446" style="fill: #1e72ff; stroke: #1e72ff"/>
     <use xlink:href="#ma850760dd2" x="450.92093" y="356.000446" style="fill: #1e72ff; stroke: #1e72ff"/>
     <use xlink:href="#ma850760dd2" x="455.639746" y="356.000446" style="fill: #1e72ff; stroke: #1e72ff"/>
     <use xlink:href="#ma850760dd2" x="460.358562" y="356.000446" style="fill: #1e72ff; stroke: #1e72ff"/>
     <use xlink:href="#ma850760dd2" x="465.077378" y="356.000446" style="fill: #1e72ff; stroke: #1e72ff"/>
     <use xlink:href="#ma850760dd2" x="469.796195" y="356.000446" style="fill: #1e72ff; stroke: #1e72ff"/>
     <use xlink:href="#ma850760dd2" x="474.515011" y="356.000446" style="fill: #1e72ff; stroke: #1e72ff"/>
     <use xlink:href="#ma850760dd2" x="479.233827" y="356.000446" style="fill: #1e72ff; stroke: #1e72ff"/>
     <use xlink:href="#ma850760dd2" x="483.952643" y="356.000446" style="fill: #1e72ff; stroke: #1e72ff"/>
     <use xlink:href="#ma850760dd2" x="488.671459" y="356.000446" style="fill: #1e72ff; stroke: #1e72ff"/>
     <use xlink:href="#ma850760dd2" x="493.390275" y="356.000446" style="fill: #1e72ff; stroke: #1e72ff"/>
     <use xlink:href="#ma850760dd2" x="498.109091" y="356.000446" style="fill: #1e72ff; stroke: #1e72ff"/>
    </g>
   </g>
   <g id="PathCollection_2">
    <defs>
     <path id="m55c69276ec" d="M 0 -2.5 
L -2.5 2.5 
L 2.5 2.5 
z
" style="stroke: #1e72ff"/>
    </defs>
    <g clip-path="url(#p10778a2e77)">
     <use xlink:href="#m55c69276ec" x="111.166173" y="363.174545" style="fill: #1e72ff; stroke: #1e72ff"/>
     <use xlink:href="#m55c69276ec" x="144.197886" y="363.174545" style="fill: #1e72ff; stroke: #1e72ff"/>
     <use xlink:href="#m55c69276ec" x="295.2" y="363.174545" style="fill: #1e72ff; stroke: #1e72ff"/>
     <use xlink:href="#m55c69276ec" x="460.358562" y="363.174545" style="fill: #1e72ff; stroke: #1e72ff"/>
    </g>
   </g>
   <g id="matplotlib.axis_1">
    <g id="xtick_1">
     <g id="line2d_1">
      <defs>
       <path id="m57b4dd5d1c" d="M 0 0 
L 0 5 
" style="stroke: #000000; stroke-width: 1.5"/>
      </defs>
      <g>
       <use xlink:href="#m57b4dd5d1c" x="80.493869" y="378" style="stroke: #000000; stroke-width: 1.5"/>
      </g>
     </g>
     <g id="text_1">
      <!-- −250 -->
      <g transform="translate(59.893478 397.897656) scale(0.15 -0.15)">
       <defs>
        <path id="DejaVuSans-2212" d="M 678 2272 
L 4684 2272 
L 4684 1741 
L 678 1741 
L 678 2272 
z
" transform="scale(0.015625)"/>
        <path id="DejaVuSans-32" d="M 1228 531 
L 3431 531 
L 3431 0 
L 469 0 
L 469 531 
Q 828 903 1448 1529 
Q 2069 2156 2228 2338 
Q 2531 2678 2651 2914 
Q 2772 3150 2772 3378 
Q 2772 3750 2511 3984 
Q 2250 4219 1831 4219 
Q 1534 4219 1204 4116 
Q 875 4013 500 3803 
L 500 4441 
Q 881 4594 1212 4672 
Q 1544 4750 1819 4750 
Q 2544 4750 2975 4387 
Q 3406 4025 3406 3419 
Q 3406 3131 3298 2873 
Q 3191 2616 2906 2266 
Q 2828 2175 2409 1742 
Q 1991 1309 1228 531 
z
" transform="scale(0.015625)"/>
        <path id="DejaVuSans-35" d="M 691 4666 
L 3169 4666 
L 3169 4134 
L 1269 4134 
L 1269 2991 
Q 1406 3038 1543 3061 
Q 1681 3084 1819 3084 
Q 2600 3084 3056 2656 
Q 3513 2228 3513 1497 
Q 3513 744 3044 326 
Q 2575 -91 1722 -91 
Q 1428 -91 1123 -41 
Q 819 9 494 109 
L 494 744 
Q 775 591 1075 516 
Q 1375 441 1709 441 
Q 2250 441 2565 725 
Q 2881 1009 2881 1497 
Q 2881 1984 2565 2268 
Q 2250 2553 1709 2553 
Q 1456 2553 1204 2497 
Q 953 2441 691 2322 
L 691 4666 
z
" transform="scale(0.015625)"/>
        <path id="DejaVuSans-30" d="M 2034 4250 
Q 1547 4250 1301 3770 
Q 1056 3291 1056 2328 
Q 1056 1369 1301 889 
Q 1547 409 2034 409 
Q 2525 409 2770 889 
Q 3016 1369 3016 2328 
Q 3016 3291 2770 3770 
Q 2525 4250 2034 4250 
z
M 2034 4750 
Q 2819 4750 3233 4129 
Q 3647 3509 3647 2328 
Q 3647 1150 3233 529 
Q 2819 -91 2034 -91 
Q 1250 -91 836 529 
Q 422 1150 422 2328 
Q 422 3509 836 4129 
Q 1250 4750 2034 4750 
z
" transform="scale(0.015625)"/>
       </defs>
       <use xlink:href="#DejaVuSans-2212"/>
       <use xlink:href="#DejaVuSans-32" x="83.789062"/>
       <use xlink:href="#DejaVuSans-35" x="147.412109"/>
       <use xlink:href="#DejaVuSans-30" x="211.035156"/>
      </g>
     </g>
    </g>
    <g id="xtick_2">
     <g id="line2d_2">
      <g>
       <use xlink:href="#m57b4dd5d1c" x="139.47907" y="378" style="stroke: #000000; stroke-width: 1.5"/>
      </g>
     </g>
     <g id="text_2">
      <!-- 0 -->
      <g transform="translate(134.707195 397.897656) scale(0.15 -0.15)">
       <use xlink:href="#DejaVuSans-30"/>
      </g>
     </g>
    </g>
    <g id="xtick_3">
     <g id="line2d_3">
      <g>
       <use xlink:href="#m57b4dd5d1c" x="198.464271" y="378" style="stroke: #000000; stroke-width: 1.5"/>
      </g>
     </g>
     <g id="text_3">
      <!-- 250 -->
      <g transform="translate(184.148646 397.897656) scale(0.15 -0.15)">
       <use xlink:href="#DejaVuSans-32"/>
       <use xlink:href="#DejaVuSans-35" x="63.623047"/>
       <use xlink:href="#DejaVuSans-30" x="127.246094"/>
      </g>
     </g>
    </g>
    <g id="xtick_4">
     <g id="line2d_4">
      <g>
       <use xlink:href="#m57b4dd5d1c" x="257.449471" y="378" style="stroke: #000000; stroke-width: 1.5"/>
      </g>
     </g>
     <g id="text_4">
      <!-- 500 -->
      <g transform="translate(243.133846 397.897656) scale(0.15 -0.15)">
       <use xlink:href="#DejaVuSans-35"/>
       <use xlink:href="#DejaVuSans-30" x="63.623047"/>
       <use xlink:href="#DejaVuSans-30" x="127.246094"/>
      </g>
     </g>
    </g>
    <g id="xtick_5">
     <g id="line2d_5">
      <g>
       <use xlink:href="#m57b4dd5d1c" x="316.434672" y="378" style="stroke: #000000; stroke-width: 1.5"/>
      </g>
     </g>
     <g id="text_5">
      <!-- 750 -->
      <g transform="translate(302.119047 397.897656) scale(0.15 -0.15)">
       <defs>
        <path id="DejaVuSans-37" d="M 525 4666 
L 3525 4666 
L 3525 4397 
L 1831 0 
L 1172 0 
L 2766 4134 
L 525 4134 
L 525 4666 
z
" transform="scale(0.015625)"/>
       </defs>
       <use xlink:href="#DejaVuSans-37"/>
       <use xlink:href="#DejaVuSans-35" x="63.623047"/>
       <use xlink:href="#DejaVuSans-30" x="127.246094"/>
      </g>
     </g>
    </g>
    <g id="xtick_6">
     <g id="line2d_6">
      <g>
       <use xlink:href="#m57b4dd5d1c" x="375.419873" y="378" style="stroke: #000000; stroke-width: 1.5"/>
      </g>
     </g>
     <g id="text_6">
      <!-- 1000 -->
      <g transform="translate(356.332373 397.897656) scale(0.15 -0.15)">
       <defs>
        <path id="DejaVuSans-31" d="M 794 531 
L 1825 531 
L 1825 4091 
L 703 3866 
L 703 4441 
L 1819 4666 
L 2450 4666 
L 2450 531 
L 3481 531 
L 3481 0 
L 794 0 
L 794 531 
z
" transform="scale(0.015625)"/>
       </defs>
       <use xlink:href="#DejaVuSans-31"/>
       <use xlink:href="#DejaVuSans-30" x="63.623047"/>
       <use xlink:href="#DejaVuSans-30" x="127.246094"/>
       <use xlink:href="#DejaVuSans-30" x="190.869141"/>
      </g>
     </g>
    </g>
    <g id="xtick_7">
     <g id="line2d_7">
      <g>
       <use xlink:href="#m57b4dd5d1c" x="434.405074" y="378" style="stroke: #000000; stroke-width: 1.5"/>
      </g>
     </g>
     <g id="text_7">
      <!-- 1250 -->
      <g transform="translate(415.317574 397.897656) scale(0.15 -0.15)">
       <use xlink:href="#DejaVuSans-31"/>
       <use xlink:href="#DejaVuSans-32" x="63.623047"/>
       <use xlink:href="#DejaVuSans-35" x="127.246094"/>
       <use xlink:href="#DejaVuSans-30" x="190.869141"/>
      </g>
     </g>
    </g>
    <g id="xtick_8">
     <g id="line2d_8">
      <g>
       <use xlink:href="#m57b4dd5d1c" x="493.390275" y="378" style="stroke: #000000; stroke-width: 1.5"/>
      </g>
     </g>
     <g id="text_8">
      <!-- 1500 -->
      <g transform="translate(474.302775 397.897656) scale(0.15 -0.15)">
       <use xlink:href="#DejaVuSans-31"/>
       <use xlink:href="#DejaVuSans-35" x="63.623047"/>
       <use xlink:href="#DejaVuSans-30" x="127.246094"/>
       <use xlink:href="#DejaVuSans-30" x="190.869141"/>
      </g>
     </g>
    </g>
    <g id="text_9">
     <!-- time -->
     <g transform="translate(278.255859 416.414844) scale(0.15 -0.15)">
      <defs>
       <path id="DejaVuSans-74" d="M 1172 4494 
L 1172 3500 
L 2356 3500 
L 2356 3053 
L 1172 3053 
L 1172 1153 
Q 1172 725 1289 603 
Q 1406 481 1766 481 
L 2356 481 
L 2356 0 
L 1766 0 
Q 1100 0 847 248 
Q 594 497 594 1153 
L 594 3053 
L 172 3053 
L 172 3500 
L 594 3500 
L 594 4494 
L 1172 4494 
z
" transform="scale(0.015625)"/>
       <path id="DejaVuSans-69" d="M 603 3500 
L 1178 3500 
L 1178 0 
L 603 0 
L 603 3500 
z
M 603 4863 
L 1178 4863 
L 1178 4134 
L 603 4134 
L 603 4863 
z
" transform="scale(0.015625)"/>
       <path id="DejaVuSans-6d" d="M 3328 2828 
Q 3544 3216 3844 3400 
Q 4144 3584 4550 3584 
Q 5097 3584 5394 3201 
Q 5691 2819 5691 2113 
L 5691 0 
L 5113 0 
L 5113 2094 
Q 5113 2597 4934 2840 
Q 4756 3084 4391 3084 
Q 3944 3084 3684 2787 
Q 3425 2491 3425 1978 
L 3425 0 
L 2847 0 
L 2847 2094 
Q 2847 2600 2669 2842 
Q 2491 3084 2119 3084 
Q 1678 3084 1418 2786 
Q 1159 2488 1159 1978 
L 1159 0 
L 581 0 
L 581 3500 
L 1159 3500 
L 1159 2956 
Q 1356 3278 1631 3431 
Q 1906 3584 2284 3584 
Q 2666 3584 2933 3390 
Q 3200 3197 3328 2828 
z
" transform="scale(0.015625)"/>
       <path id="DejaVuSans-65" d="M 3597 1894 
L 3597 1613 
L 953 1613 
Q 991 1019 1311 708 
Q 1631 397 2203 397 
Q 2534 397 2845 478 
Q 3156 559 3463 722 
L 3463 178 
Q 3153 47 2828 -22 
Q 2503 -91 2169 -91 
Q 1331 -91 842 396 
Q 353 884 353 1716 
Q 353 2575 817 3079 
Q 1281 3584 2069 3584 
Q 2775 3584 3186 3129 
Q 3597 2675 3597 1894 
z
M 3022 2063 
Q 3016 2534 2758 2815 
Q 2500 3097 2075 3097 
Q 1594 3097 1305 2825 
Q 1016 2553 972 2059 
L 3022 2063 
z
" transform="scale(0.015625)"/>
      </defs>
      <use xlink:href="#DejaVuSans-74"/>
      <use xlink:href="#DejaVuSans-69" x="39.208984"/>
      <use xlink:href="#DejaVuSans-6d" x="66.992188"/>
      <use xlink:href="#DejaVuSans-65" x="164.404297"/>
     </g>
    </g>
   </g>
   <g id="matplotlib.axis_2">
    <g id="ytick_1">
     <g id="line2d_9">
      <defs>
       <path id="m340265eb2a" d="M 0 0 
L -5 0 
" style="stroke: #000000; stroke-width: 1.5"/>
      </defs>
      <g>
       <use xlink:href="#m340265eb2a" x="72" y="335.254344" style="stroke: #000000; stroke-width: 1.5"/>
      </g>
     </g>
     <g id="text_10">
      <!-- 0.00 -->
      <g transform="translate(30.101562 340.953172) scale(0.15 -0.15)">
       <defs>
        <path id="DejaVuSans-2e" d="M 684 794 
L 1344 794 
L 1344 0 
L 684 0 
L 684 794 
z
" transform="scale(0.015625)"/>
       </defs>
       <use xlink:href="#DejaVuSans-30"/>
       <use xlink:href="#DejaVuSans-2e" x="63.623047"/>
       <use xlink:href="#DejaVuSans-30" x="95.410156"/>
       <use xlink:href="#DejaVuSans-30" x="159.033203"/>
      </g>
     </g>
    </g>
    <g id="ytick_2">
     <g id="line2d_10">
      <g>
       <use xlink:href="#m340265eb2a" x="72" y="265.964458" style="stroke: #000000; stroke-width: 1.5"/>
      </g>
     </g>
     <g id="text_11">
      <!-- 0.02 -->
      <g transform="translate(30.101562 271.663286) scale(0.15 -0.15)">
       <use xlink:href="#DejaVuSans-30"/>
       <use xlink:href="#DejaVuSans-2e" x="63.623047"/>
       <use xlink:href="#DejaVuSans-30" x="95.410156"/>
       <use xlink:href="#DejaVuSans-32" x="159.033203"/>
      </g>
     </g>
    </g>
    <g id="ytick_3">
     <g id="line2d_11">
      <g>
       <use xlink:href="#m340265eb2a" x="72" y="196.674571" style="stroke: #000000; stroke-width: 1.5"/>
      </g>
     </g>
     <g id="text_12">
      <!-- 0.04 -->
      <g transform="translate(30.101562 202.373399) scale(0.15 -0.15)">
       <defs>
        <path id="DejaVuSans-34" d="M 2419 4116 
L 825 1625 
L 2419 1625 
L 2419 4116 
z
M 2253 4666 
L 3047 4666 
L 3047 1625 
L 3713 1625 
L 3713 1100 
L 3047 1100 
L 3047 0 
L 2419 0 
L 2419 1100 
L 313 1100 
L 313 1709 
L 2253 4666 
z
" transform="scale(0.015625)"/>
       </defs>
       <use xlink:href="#DejaVuSans-30"/>
       <use xlink:href="#DejaVuSans-2e" x="63.623047"/>
       <use xlink:href="#DejaVuSans-30" x="95.410156"/>
       <use xlink:href="#DejaVuSans-34" x="159.033203"/>
      </g>
     </g>
    </g>
    <g id="ytick_4">
     <g id="line2d_12">
      <g>
       <use xlink:href="#m340265eb2a" x="72" y="127.384685" style="stroke: #000000; stroke-width: 1.5"/>
      </g>
     </g>
     <g id="text_13">
      <!-- 0.06 -->
      <g transform="translate(30.101562 133.083513) scale(0.15 -0.15)">
       <defs>
        <path id="DejaVuSans-36" d="M 2113 2584 
Q 1688 2584 1439 2293 
Q 1191 2003 1191 1497 
Q 1191 994 1439 701 
Q 1688 409 2113 409 
Q 2538 409 2786 701 
Q 3034 994 3034 1497 
Q 3034 2003 2786 2293 
Q 2538 2584 2113 2584 
z
M 3366 4563 
L 3366 3988 
Q 3128 4100 2886 4159 
Q 2644 4219 2406 4219 
Q 1781 4219 1451 3797 
Q 1122 3375 1075 2522 
Q 1259 2794 1537 2939 
Q 1816 3084 2150 3084 
Q 2853 3084 3261 2657 
Q 3669 2231 3669 1497 
Q 3669 778 3244 343 
Q 2819 -91 2113 -91 
Q 1303 -91 875 529 
Q 447 1150 447 2328 
Q 447 3434 972 4092 
Q 1497 4750 2381 4750 
Q 2619 4750 2861 4703 
Q 3103 4656 3366 4563 
z
" transform="scale(0.015625)"/>
       </defs>
       <use xlink:href="#DejaVuSans-30"/>
       <use xlink:href="#DejaVuSans-2e" x="63.623047"/>
       <use xlink:href="#DejaVuSans-30" x="95.410156"/>
       <use xlink:href="#DejaVuSans-36" x="159.033203"/>
      </g>
     </g>
    </g>
    <g id="ytick_5">
     <g id="line2d_13">
      <g>
       <use xlink:href="#m340265eb2a" x="72" y="58.094798" style="stroke: #000000; stroke-width: 1.5"/>
      </g>
     </g>
     <g id="text_14">
      <!-- 0.08 -->
      <g transform="translate(30.101562 63.793626) scale(0.15 -0.15)">
       <defs>
        <path id="DejaVuSans-38" d="M 2034 2216 
Q 1584 2216 1326 1975 
Q 1069 1734 1069 1313 
Q 1069 891 1326 650 
Q 1584 409 2034 409 
Q 2484 409 2743 651 
Q 3003 894 3003 1313 
Q 3003 1734 2745 1975 
Q 2488 2216 2034 2216 
z
M 1403 2484 
Q 997 2584 770 2862 
Q 544 3141 544 3541 
Q 544 4100 942 4425 
Q 1341 4750 2034 4750 
Q 2731 4750 3128 4425 
Q 3525 4100 3525 3541 
Q 3525 3141 3298 2862 
Q 3072 2584 2669 2484 
Q 3125 2378 3379 2068 
Q 3634 1759 3634 1313 
Q 3634 634 3220 271 
Q 2806 -91 2034 -91 
Q 1263 -91 848 271 
Q 434 634 434 1313 
Q 434 1759 690 2068 
Q 947 2378 1403 2484 
z
M 1172 3481 
Q 1172 3119 1398 2916 
Q 1625 2713 2034 2713 
Q 2441 2713 2670 2916 
Q 2900 3119 2900 3481 
Q 2900 3844 2670 4047 
Q 2441 4250 2034 4250 
Q 1625 4250 1398 4047 
Q 1172 3844 1172 3481 
z
" transform="scale(0.015625)"/>
       </defs>
       <use xlink:href="#DejaVuSans-30"/>
       <use xlink:href="#DejaVuSans-2e" x="63.623047"/>
       <use xlink:href="#DejaVuSans-30" x="95.410156"/>
       <use xlink:href="#DejaVuSans-38" x="159.033203"/>
      </g>
     </g>
    </g>
    <g id="text_15">
     <!-- firing rate -->
     <g transform="translate(22.982031 251.943047) rotate(-90) scale(0.15 -0.15)">
      <defs>
       <path id="DejaVuSans-66" d="M 2375 4863 
L 2375 4384 
L 1825 4384 
Q 1516 4384 1395 4259 
Q 1275 4134 1275 3809 
L 1275 3500 
L 2222 3500 
L 2222 3053 
L 1275 3053 
L 1275 0 
L 697 0 
L 697 3053 
L 147 3053 
L 147 3500 
L 697 3500 
L 697 3744 
Q 697 4328 969 4595 
Q 1241 4863 1831 4863 
L 2375 4863 
z
" transform="scale(0.015625)"/>
       <path id="DejaVuSans-72" d="M 2631 2963 
Q 2534 3019 2420 3045 
Q 2306 3072 2169 3072 
Q 1681 3072 1420 2755 
Q 1159 2438 1159 1844 
L 1159 0 
L 581 0 
L 581 3500 
L 1159 3500 
L 1159 2956 
Q 1341 3275 1631 3429 
Q 1922 3584 2338 3584 
Q 2397 3584 2469 3576 
Q 2541 3569 2628 3553 
L 2631 2963 
z
" transform="scale(0.015625)"/>
       <path id="DejaVuSans-6e" d="M 3513 2113 
L 3513 0 
L 2938 0 
L 2938 2094 
Q 2938 2591 2744 2837 
Q 2550 3084 2163 3084 
Q 1697 3084 1428 2787 
Q 1159 2491 1159 1978 
L 1159 0 
L 581 0 
L 581 3500 
L 1159 3500 
L 1159 2956 
Q 1366 3272 1645 3428 
Q 1925 3584 2291 3584 
Q 2894 3584 3203 3211 
Q 3513 2838 3513 2113 
z
" transform="scale(0.015625)"/>
       <path id="DejaVuSans-67" d="M 2906 1791 
Q 2906 2416 2648 2759 
Q 2391 3103 1925 3103 
Q 1463 3103 1205 2759 
Q 947 2416 947 1791 
Q 947 1169 1205 825 
Q 1463 481 1925 481 
Q 2391 481 2648 825 
Q 2906 1169 2906 1791 
z
M 3481 434 
Q 3481 -459 3084 -895 
Q 2688 -1331 1869 -1331 
Q 1566 -1331 1297 -1286 
Q 1028 -1241 775 -1147 
L 775 -588 
Q 1028 -725 1275 -790 
Q 1522 -856 1778 -856 
Q 2344 -856 2625 -561 
Q 2906 -266 2906 331 
L 2906 616 
Q 2728 306 2450 153 
Q 2172 0 1784 0 
Q 1141 0 747 490 
Q 353 981 353 1791 
Q 353 2603 747 3093 
Q 1141 3584 1784 3584 
Q 2172 3584 2450 3431 
Q 2728 3278 2906 2969 
L 2906 3500 
L 3481 3500 
L 3481 434 
z
" transform="scale(0.015625)"/>
       <path id="DejaVuSans-20" transform="scale(0.015625)"/>
       <path id="DejaVuSans-61" d="M 2194 1759 
Q 1497 1759 1228 1600 
Q 959 1441 959 1056 
Q 959 750 1161 570 
Q 1363 391 1709 391 
Q 2188 391 2477 730 
Q 2766 1069 2766 1631 
L 2766 1759 
L 2194 1759 
z
M 3341 1997 
L 3341 0 
L 2766 0 
L 2766 531 
Q 2569 213 2275 61 
Q 1981 -91 1556 -91 
Q 1019 -91 701 211 
Q 384 513 384 1019 
Q 384 1609 779 1909 
Q 1175 2209 1959 2209 
L 2766 2209 
L 2766 2266 
Q 2766 2663 2505 2880 
Q 2244 3097 1772 3097 
Q 1472 3097 1187 3025 
Q 903 2953 641 2809 
L 641 3341 
Q 956 3463 1253 3523 
Q 1550 3584 1831 3584 
Q 2591 3584 2966 3190 
Q 3341 2797 3341 1997 
z
" transform="scale(0.015625)"/>
      </defs>
      <use xlink:href="#DejaVuSans-66"/>
      <use xlink:href="#DejaVuSans-69" x="35.205078"/>
      <use xlink:href="#DejaVuSans-72" x="62.988281"/>
      <use xlink:href="#DejaVuSans-69" x="104.101562"/>
      <use xlink:href="#DejaVuSans-6e" x="131.884766"/>
      <use xlink:href="#DejaVuSans-67" x="195.263672"/>
      <use xlink:href="#DejaVuSans-20" x="258.740234"/>
      <use xlink:href="#DejaVuSans-72" x="290.527344"/>
      <use xlink:href="#DejaVuSans-61" x="331.640625"/>
      <use xlink:href="#DejaVuSans-74" x="392.919922"/>
      <use xlink:href="#DejaVuSans-65" x="432.128906"/>
     </g>
    </g>
   </g>
   <g id="line2d_14">
    <path d="M 92.290909 316.575904 
L 97.009725 335.241899 
L 101.728541 335.123643 
L 106.447357 332.663754 
L 111.166173 333.083178 
L 115.884989 333.382666 
L 120.603805 336.709271 
L 125.322622 331.571683 
L 130.041438 336.098037 
L 134.760254 333.772755 
L 139.47907 303.925857 
L 144.197886 302.824182 
L 148.916702 306.432987 
L 153.635518 307.600605 
L 158.354334 302.915705 
L 163.07315 304.360899 
L 167.791966 304.24003 
L 172.510782 296.821568 
L 177.229598 295.779293 
L 181.948414 297.691671 
L 186.66723 299.27716 
L 191.386047 303.714103 
L 196.104863 303.414765 
L 200.823679 310.670728 
L 205.542495 316.099046 
L 210.261311 305.15318 
L 214.980127 294.338288 
L 219.698943 300.144569 
L 224.417759 305.478319 
L 229.136575 296.404094 
L 233.855391 278.439716 
L 238.574207 276.496773 
L 243.293023 278.836959 
L 248.011839 274.39703 
L 252.730655 263.903547 
L 257.449471 253.673723 
L 262.168288 254.712353 
L 266.887104 261.831744 
L 271.60592 255.523461 
L 276.324736 254.212015 
L 281.043552 256.470635 
L 285.762368 255.867847 
L 290.481184 255.659987 
L 295.2 241.488877 
L 299.918816 240.682734 
L 304.637632 235.124866 
L 309.356448 215.987234 
L 314.075264 207.022775 
L 318.79408 206.844494 
L 323.512896 191.897029 
L 328.231712 181.964548 
L 332.950529 187.377473 
L 337.669345 195.728751 
L 342.388161 200.326803 
L 347.106977 201.026144 
L 351.825793 204.261393 
L 356.544609 196.249795 
L 361.263425 188.517834 
L 365.982241 177.556193 
L 370.701057 181.540049 
L 375.419873 205.7013 
L 380.138689 109.415186 
L 384.857505 104.906971 
L 389.576321 190.647436 
L 394.295137 223.883927 
L 399.013953 196.209364 
L 403.73277 174.317229 
L 408.451586 141.666899 
L 413.170402 110.536188 
L 417.889218 121.662352 
L 422.608034 147.06929 
L 427.32685 152.91845 
L 432.045666 145.752013 
L 436.764482 126.033759 
L 441.483298 123.622643 
L 446.202114 124.930161 
L 450.92093 132.223054 
L 455.639746 129.086094 
L 460.358562 122.540983 
L 465.077378 120.214752 
L 469.796195 128.798396 
L 474.515011 128.38913 
L 479.233827 127.566384 
L 483.952643 108.642657 
L 488.671459 111.13666 
L 493.390275 114.321915 
L 498.109091 117.877821 
" clip-path="url(#p10778a2e77)" style="fill: none; stroke: #1e72ff; stroke-width: 2; stroke-linecap: square"/>
   </g>
   <g id="line2d_15">
    <path d="M 92.290909 331.803893 
L 97.009725 334.974555 
L 101.728541 335.67721 
L 106.447357 335.371837 
L 111.166173 335.705369 
L 115.884989 335.032079 
L 120.603805 333.939161 
L 125.322622 334.752969 
L 130.041438 335.06101 
L 134.760254 334.617508 
L 139.47907 301.59991 
L 144.197886 302.444234 
L 148.916702 303.81998 
L 153.635518 305.412514 
L 158.354334 301.959586 
L 163.07315 297.786269 
L 167.791966 298.798392 
L 172.510782 297.894267 
L 177.229598 298.1707 
L 181.948414 297.603234 
L 186.66723 295.456815 
L 191.386047 296.452176 
L 196.104863 296.772876 
L 200.823679 299.019766 
L 205.542495 298.762382 
L 210.261311 295.257129 
L 214.980127 295.486794 
L 219.698943 295.56261 
L 224.417759 295.997385 
L 229.136575 295.004136 
L 233.855391 297.700025 
L 238.574207 297.137139 
L 243.293023 296.772311 
L 248.011839 297.01102 
L 252.730655 296.109459 
L 257.449471 295.651938 
L 262.168288 297.80657 
L 266.887104 297.516352 
L 271.60592 297.533707 
L 276.324736 300.003073 
L 281.043552 298.722449 
L 285.762368 295.459973 
L 290.481184 293.337947 
L 295.2 292.188854 
L 299.918816 293.714011 
L 304.637632 295.171909 
L 309.356448 293.61124 
L 314.075264 293.606663 
L 318.79408 289.70959 
L 323.512896 288.794795 
L 328.231712 288.468486 
L 332.950529 287.04997 
L 337.669345 287.459867 
L 342.388161 285.340091 
L 347.106977 283.917584 
L 351.825793 287.02578 
L 356.544609 289.460635 
L 361.263425 290.553395 
L 365.982241 295.359661 
L 370.701057 303.970029 
L 375.419873 324.008681 
L 380.138689 326.674549 
L 384.857505 329.895619 
L 389.576321 326.325094 
L 394.295137 327.209292 
L 399.013953 326.964211 
L 403.73277 326.43201 
L 408.451586 324.708764 
L 413.170402 324.453922 
L 417.889218 325.068074 
L 422.608034 327.656077 
L 427.32685 327.883254 
L 432.045666 327.426344 
L 436.764482 326.138634 
L 441.483298 324.562398 
L 446.202114 325.488983 
L 450.92093 326.984531 
L 455.639746 325.260915 
L 460.358562 326.083757 
L 465.077378 325.412756 
L 469.796195 325.12553 
L 474.515011 326.739811 
L 479.233827 327.310032 
L 483.952643 324.839556 
L 488.671459 324.793416 
L 493.390275 326.404467 
L 498.109091 327.269099 
" clip-path="url(#p10778a2e77)" style="fill: none; stroke-dasharray: 5.55,2.4; stroke-dashoffset: 0; stroke: #1e72ff; stroke-opacity: 0.8; stroke-width: 1.5"/>
   </g>
   <g id="line2d_16">
    <path d="M 92.290909 312.566353 
L 97.009725 334.741152 
L 101.728541 338.641546 
L 106.447357 336.885312 
L 111.166173 329.569962 
L 115.884989 335.137893 
L 120.603805 335.50125 
L 125.322622 336.121225 
L 130.041438 331.864141 
L 134.760254 335.703898 
L 139.47907 281.859606 
L 144.197886 277.263654 
L 148.916702 287.188061 
L 153.635518 294.927276 
L 158.354334 284.79923 
L 163.07315 284.544964 
L 167.791966 287.588048 
L 172.510782 287.956496 
L 177.229598 286.713915 
L 181.948414 295.586522 
L 186.66723 302.909788 
L 191.386047 295.906634 
L 196.104863 289.661107 
L 200.823679 283.754384 
L 205.542495 277.265605 
L 210.261311 284.679925 
L 214.980127 299.135339 
L 219.698943 312.208876 
L 224.417759 305.03408 
L 229.136575 299.893817 
L 233.855391 292.609225 
L 238.574207 290.777531 
L 243.293023 295.938563 
L 248.011839 301.161914 
L 252.730655 307.5881 
L 257.449471 303.508574 
L 262.168288 287.174517 
L 266.887104 285.805198 
L 271.60592 292.952326 
L 276.324736 293.021064 
L 281.043552 290.455042 
L 285.762368 288.797008 
L 290.481184 284.212423 
L 295.2 279.128998 
L 299.918816 280.09124 
L 304.637632 293.404127 
L 309.356448 299.601402 
L 314.075264 294.134783 
L 318.79408 285.986483 
L 323.512896 274.961317 
L 328.231712 279.29007 
L 332.950529 292.230561 
L 337.669345 288.27688 
L 342.388161 282.164349 
L 347.106977 282.064657 
L 351.825793 293.734453 
L 356.544609 301.286833 
L 361.263425 297.35719 
L 365.982241 295.530316 
L 370.701057 304.938574 
L 375.419873 331.590579 
L 380.138689 332.801045 
L 384.857505 330.98724 
L 389.576321 331.084048 
L 394.295137 327.559579 
L 399.013953 329.80273 
L 403.73277 336.775705 
L 408.451586 338.37988 
L 413.170402 335.186349 
L 417.889218 331.569085 
L 422.608034 334.140049 
L 427.32685 331.122884 
L 432.045666 332.022301 
L 436.764482 338.31793 
L 441.483298 340.015052 
L 446.202114 335.639809 
L 450.92093 325.168465 
L 455.639746 334.233762 
L 460.358562 344.043614 
L 465.077378 342.846402 
L 469.796195 335.131915 
L 474.515011 336.041233 
L 479.233827 331.591324 
L 483.952643 336.847642 
L 488.671459 339.865252 
L 493.390275 335.302238 
L 498.109091 329.865515 
" clip-path="url(#p10778a2e77)" style="fill: none; stroke: #1e72ff; stroke-width: 4; stroke-linecap: square"/>
   </g>
   <g id="line2d_17">
    <path d="M 92.290909 312.566353 
L 97.009725 334.741152 
L 101.728541 338.641546 
L 106.447357 336.885312 
L 111.166173 329.569962 
L 115.884989 335.137893 
L 120.603805 335.50125 
L 125.322622 336.121225 
L 130.041438 331.864141 
L 134.760254 335.703898 
L 139.47907 281.859606 
L 144.197886 277.263654 
L 148.916702 287.188061 
L 153.635518 294.927276 
L 158.354334 284.79923 
L 163.07315 284.544964 
L 167.791966 287.588048 
L 172.510782 287.956496 
L 177.229598 286.713915 
L 181.948414 295.586522 
L 186.66723 302.909788 
L 191.386047 295.906634 
L 196.104863 289.661107 
L 200.823679 283.754384 
L 205.542495 277.265605 
L 210.261311 284.679925 
L 214.980127 299.135339 
L 219.698943 312.208876 
L 224.417759 305.03408 
L 229.136575 299.893817 
L 233.855391 292.609225 
L 238.574207 290.777531 
L 243.293023 295.938563 
L 248.011839 301.161914 
L 252.730655 307.5881 
L 257.449471 303.508574 
L 262.168288 287.174517 
L 266.887104 285.805198 
L 271.60592 292.952326 
L 276.324736 293.021064 
L 281.043552 290.455042 
L 285.762368 288.797008 
L 290.481184 284.212423 
L 295.2 279.128998 
L 299.918816 280.09124 
L 304.637632 293.404127 
L 309.356448 299.601402 
L 314.075264 294.134783 
L 318.79408 285.986483 
L 323.512896 274.961317 
L 328.231712 279.29007 
L 332.950529 292.230561 
L 337.669345 288.27688 
L 342.388161 282.164349 
L 347.106977 282.064657 
L 351.825793 293.734453 
L 356.544609 301.286833 
L 361.263425 297.35719 
L 365.982241 295.530316 
L 370.701057 304.938574 
L 375.419873 331.590579 
L 380.138689 332.801045 
L 384.857505 330.98724 
L 389.576321 331.084048 
L 394.295137 327.559579 
L 399.013953 329.80273 
L 403.73277 336.775705 
L 408.451586 338.37988 
L 413.170402 335.186349 
L 417.889218 331.569085 
L 422.608034 334.140049 
L 427.32685 331.122884 
L 432.045666 332.022301 
L 436.764482 338.31793 
L 441.483298 340.015052 
L 446.202114 335.639809 
L 450.92093 325.168465 
L 455.639746 334.233762 
L 460.358562 344.043614 
L 465.077378 342.846402 
L 469.796195 335.131915 
L 474.515011 336.041233 
L 479.233827 331.591324 
L 483.952643 336.847642 
L 488.671459 339.865252 
L 493.390275 335.302238 
L 498.109091 329.865515 
" clip-path="url(#p10778a2e77)" style="fill: none; stroke: #ffffff; stroke-width: 1.5; stroke-linecap: square"/>
   </g>
   <g id="line2d_18">
    <path d="M 92.290909 333.279476 
L 97.009725 335.377621 
L 101.728541 334.6161 
L 106.447357 335.825353 
L 111.166173 334.756618 
L 115.884989 334.47308 
L 120.603805 334.856479 
L 125.322622 334.377619 
L 130.041438 335.201311 
L 134.760254 333.364554 
L 139.47907 285.11387 
L 144.197886 295.299808 
L 148.916702 301.003089 
L 153.635518 304.351697 
L 158.354334 297.48106 
L 163.07315 300.386318 
L 167.791966 300.717681 
L 172.510782 298.597579 
L 177.229598 296.282364 
L 181.948414 296.822936 
L 186.66723 293.106075 
L 191.386047 292.699941 
L 196.104863 294.44101 
L 200.823679 296.378119 
L 205.542495 293.310148 
L 210.261311 292.229027 
L 214.980127 294.722619 
L 219.698943 296.775498 
L 224.417759 298.378109 
L 229.136575 297.623766 
L 233.855391 298.66988 
L 238.574207 298.099272 
L 243.293023 298.002279 
L 248.011839 299.740428 
L 252.730655 299.434872 
L 257.449471 299.32167 
L 262.168288 299.31917 
L 266.887104 299.200325 
L 271.60592 299.398396 
L 276.324736 299.870269 
L 281.043552 300.270722 
L 285.762368 299.989926 
L 290.481184 300.326791 
L 295.2 300.109405 
L 299.918816 299.493597 
L 304.637632 298.378906 
L 309.356448 295.341334 
L 314.075264 293.943486 
L 318.79408 293.64099 
L 323.512896 293.688548 
L 328.231712 294.470122 
L 332.950529 293.987195 
L 337.669345 292.424075 
L 342.388161 295.463159 
L 347.106977 296.575169 
L 351.825793 297.148435 
L 356.544609 296.5275 
L 361.263425 296.711175 
L 365.982241 300.352179 
L 370.701057 310.730618 
L 375.419873 329.901532 
L 380.138689 331.078239 
L 384.857505 330.679591 
L 389.576321 334.090616 
L 394.295137 338.674454 
L 399.013953 337.155263 
L 403.73277 334.18124 
L 408.451586 333.663854 
L 413.170402 334.336101 
L 417.889218 335.280813 
L 422.608034 336.020263 
L 427.32685 334.826586 
L 432.045666 335.070004 
L 436.764482 334.225003 
L 441.483298 335.529106 
L 446.202114 337.104255 
L 450.92093 334.468377 
L 455.639746 334.425073 
L 460.358562 334.264795 
L 465.077378 337.660678 
L 469.796195 336.19722 
L 474.515011 335.234936 
L 479.233827 334.710064 
L 483.952643 334.681924 
L 488.671459 333.895477 
L 493.390275 336.56177 
L 498.109091 335.714091 
" clip-path="url(#p10778a2e77)" style="fill: none; stroke-dasharray: 5.55,2.4; stroke-dashoffset: 0; stroke: #1e72ff; stroke-opacity: 0.8; stroke-width: 1.5"/>
   </g>
   <g id="line2d_19">
    <path d="M 139.47907 378 
L 139.47907 51.84 
" clip-path="url(#p10778a2e77)" style="fill: none; stroke-dasharray: 5.55,2.4; stroke-dashoffset: 0; stroke: #808080; stroke-opacity: 0.7; stroke-width: 1.5"/>
   </g>
   <g id="line2d_20">
    <path d="M 375.419873 378 
L 375.419873 51.84 
" clip-path="url(#p10778a2e77)" style="fill: none; stroke-dasharray: 5.55,2.4; stroke-dashoffset: 0; stroke: #808080; stroke-opacity: 0.7; stroke-width: 1.5"/>
   </g>
   <g id="patch_3">
    <path d="M 72 378 
L 72 51.84 
" style="fill: none; stroke: #000000; stroke-width: 1.5; stroke-linejoin: miter; stroke-linecap: square"/>
   </g>
   <g id="patch_4">
    <path d="M 72 378 
L 518.4 378 
" style="fill: none; stroke: #000000; stroke-width: 1.5; stroke-linejoin: miter; stroke-linecap: square"/>
   </g>
   <g id="text_16">
    <!-- L1_sactemporal -->
    <g transform="translate(229.142578 45.84) scale(0.15 -0.15)">
     <defs>
      <path id="DejaVuSans-Bold-4c" d="M 588 4666 
L 1791 4666 
L 1791 909 
L 3903 909 
L 3903 0 
L 588 0 
L 588 4666 
z
" transform="scale(0.015625)"/>
      <path id="DejaVuSans-Bold-31" d="M 750 831 
L 1813 831 
L 1813 3847 
L 722 3622 
L 722 4441 
L 1806 4666 
L 2950 4666 
L 2950 831 
L 4013 831 
L 4013 0 
L 750 0 
L 750 831 
z
" transform="scale(0.015625)"/>
      <path id="DejaVuSans-Bold-5f" d="M 3200 -916 
L 3200 -1509 
L 0 -1509 
L 0 -916 
L 3200 -916 
z
" transform="scale(0.015625)"/>
      <path id="DejaVuSans-Bold-73" d="M 3272 3391 
L 3272 2541 
Q 2913 2691 2578 2766 
Q 2244 2841 1947 2841 
Q 1628 2841 1473 2761 
Q 1319 2681 1319 2516 
Q 1319 2381 1436 2309 
Q 1553 2238 1856 2203 
L 2053 2175 
Q 2913 2066 3209 1816 
Q 3506 1566 3506 1031 
Q 3506 472 3093 190 
Q 2681 -91 1863 -91 
Q 1516 -91 1145 -36 
Q 775 19 384 128 
L 384 978 
Q 719 816 1070 734 
Q 1422 653 1784 653 
Q 2113 653 2278 743 
Q 2444 834 2444 1013 
Q 2444 1163 2330 1236 
Q 2216 1309 1875 1350 
L 1678 1375 
Q 931 1469 631 1722 
Q 331 1975 331 2491 
Q 331 3047 712 3315 
Q 1094 3584 1881 3584 
Q 2191 3584 2531 3537 
Q 2872 3491 3272 3391 
z
" transform="scale(0.015625)"/>
      <path id="DejaVuSans-Bold-61" d="M 2106 1575 
Q 1756 1575 1579 1456 
Q 1403 1338 1403 1106 
Q 1403 894 1545 773 
Q 1688 653 1941 653 
Q 2256 653 2472 879 
Q 2688 1106 2688 1447 
L 2688 1575 
L 2106 1575 
z
M 3816 1997 
L 3816 0 
L 2688 0 
L 2688 519 
Q 2463 200 2181 54 
Q 1900 -91 1497 -91 
Q 953 -91 614 226 
Q 275 544 275 1050 
Q 275 1666 698 1953 
Q 1122 2241 2028 2241 
L 2688 2241 
L 2688 2328 
Q 2688 2594 2478 2717 
Q 2269 2841 1825 2841 
Q 1466 2841 1156 2769 
Q 847 2697 581 2553 
L 581 3406 
Q 941 3494 1303 3539 
Q 1666 3584 2028 3584 
Q 2975 3584 3395 3211 
Q 3816 2838 3816 1997 
z
" transform="scale(0.015625)"/>
      <path id="DejaVuSans-Bold-63" d="M 3366 3391 
L 3366 2478 
Q 3138 2634 2908 2709 
Q 2678 2784 2431 2784 
Q 1963 2784 1702 2511 
Q 1441 2238 1441 1747 
Q 1441 1256 1702 982 
Q 1963 709 2431 709 
Q 2694 709 2930 787 
Q 3166 866 3366 1019 
L 3366 103 
Q 3103 6 2833 -42 
Q 2563 -91 2291 -91 
Q 1344 -91 809 395 
Q 275 881 275 1747 
Q 275 2613 809 3098 
Q 1344 3584 2291 3584 
Q 2566 3584 2833 3536 
Q 3100 3488 3366 3391 
z
" transform="scale(0.015625)"/>
      <path id="DejaVuSans-Bold-74" d="M 1759 4494 
L 1759 3500 
L 2913 3500 
L 2913 2700 
L 1759 2700 
L 1759 1216 
Q 1759 972 1856 886 
Q 1953 800 2241 800 
L 2816 800 
L 2816 0 
L 1856 0 
Q 1194 0 917 276 
Q 641 553 641 1216 
L 641 2700 
L 84 2700 
L 84 3500 
L 641 3500 
L 641 4494 
L 1759 4494 
z
" transform="scale(0.015625)"/>
      <path id="DejaVuSans-Bold-65" d="M 4031 1759 
L 4031 1441 
L 1416 1441 
Q 1456 1047 1700 850 
Q 1944 653 2381 653 
Q 2734 653 3104 758 
Q 3475 863 3866 1075 
L 3866 213 
Q 3469 63 3072 -14 
Q 2675 -91 2278 -91 
Q 1328 -91 801 392 
Q 275 875 275 1747 
Q 275 2603 792 3093 
Q 1309 3584 2216 3584 
Q 3041 3584 3536 3087 
Q 4031 2591 4031 1759 
z
M 2881 2131 
Q 2881 2450 2695 2645 
Q 2509 2841 2209 2841 
Q 1884 2841 1681 2658 
Q 1478 2475 1428 2131 
L 2881 2131 
z
" transform="scale(0.015625)"/>
      <path id="DejaVuSans-Bold-6d" d="M 3781 2919 
Q 3994 3244 4286 3414 
Q 4578 3584 4928 3584 
Q 5531 3584 5847 3212 
Q 6163 2841 6163 2131 
L 6163 0 
L 5038 0 
L 5038 1825 
Q 5041 1866 5042 1909 
Q 5044 1953 5044 2034 
Q 5044 2406 4934 2573 
Q 4825 2741 4581 2741 
Q 4263 2741 4089 2478 
Q 3916 2216 3909 1719 
L 3909 0 
L 2784 0 
L 2784 1825 
Q 2784 2406 2684 2573 
Q 2584 2741 2328 2741 
Q 2006 2741 1831 2477 
Q 1656 2213 1656 1722 
L 1656 0 
L 531 0 
L 531 3500 
L 1656 3500 
L 1656 2988 
Q 1863 3284 2130 3434 
Q 2397 3584 2719 3584 
Q 3081 3584 3359 3409 
Q 3638 3234 3781 2919 
z
" transform="scale(0.015625)"/>
      <path id="DejaVuSans-Bold-70" d="M 1656 506 
L 1656 -1331 
L 538 -1331 
L 538 3500 
L 1656 3500 
L 1656 2988 
Q 1888 3294 2169 3439 
Q 2450 3584 2816 3584 
Q 3463 3584 3878 3070 
Q 4294 2556 4294 1747 
Q 4294 938 3878 423 
Q 3463 -91 2816 -91 
Q 2450 -91 2169 54 
Q 1888 200 1656 506 
z
M 2400 2772 
Q 2041 2772 1848 2508 
Q 1656 2244 1656 1747 
Q 1656 1250 1848 986 
Q 2041 722 2400 722 
Q 2759 722 2948 984 
Q 3138 1247 3138 1747 
Q 3138 2247 2948 2509 
Q 2759 2772 2400 2772 
z
" transform="scale(0.015625)"/>
      <path id="DejaVuSans-Bold-6f" d="M 2203 2784 
Q 1831 2784 1636 2517 
Q 1441 2250 1441 1747 
Q 1441 1244 1636 976 
Q 1831 709 2203 709 
Q 2569 709 2762 976 
Q 2956 1244 2956 1747 
Q 2956 2250 2762 2517 
Q 2569 2784 2203 2784 
z
M 2203 3584 
Q 3106 3584 3614 3096 
Q 4122 2609 4122 1747 
Q 4122 884 3614 396 
Q 3106 -91 2203 -91 
Q 1297 -91 786 396 
Q 275 884 275 1747 
Q 275 2609 786 3096 
Q 1297 3584 2203 3584 
z
" transform="scale(0.015625)"/>
      <path id="DejaVuSans-Bold-72" d="M 3138 2547 
Q 2991 2616 2845 2648 
Q 2700 2681 2553 2681 
Q 2122 2681 1889 2404 
Q 1656 2128 1656 1613 
L 1656 0 
L 538 0 
L 538 3500 
L 1656 3500 
L 1656 2925 
Q 1872 3269 2151 3426 
Q 2431 3584 2822 3584 
Q 2878 3584 2943 3579 
Q 3009 3575 3134 3559 
L 3138 2547 
z
" transform="scale(0.015625)"/>
      <path id="DejaVuSans-Bold-6c" d="M 538 4863 
L 1656 4863 
L 1656 0 
L 538 0 
L 538 4863 
z
" transform="scale(0.015625)"/>
     </defs>
     <use xlink:href="#DejaVuSans-Bold-4c"/>
     <use xlink:href="#DejaVuSans-Bold-31" x="63.720703"/>
     <use xlink:href="#DejaVuSans-Bold-5f" x="133.300781"/>
     <use xlink:href="#DejaVuSans-Bold-73" x="183.300781"/>
     <use xlink:href="#DejaVuSans-Bold-61" x="242.822266"/>
     <use xlink:href="#DejaVuSans-Bold-63" x="310.302734"/>
     <use xlink:href="#DejaVuSans-Bold-74" x="369.580078"/>
     <use xlink:href="#DejaVuSans-Bold-65" x="417.382812"/>
     <use xlink:href="#DejaVuSans-Bold-6d" x="485.205078"/>
     <use xlink:href="#DejaVuSans-Bold-70" x="589.404297"/>
     <use xlink:href="#DejaVuSans-Bold-6f" x="660.986328"/>
     <use xlink:href="#DejaVuSans-Bold-72" x="729.6875"/>
     <use xlink:href="#DejaVuSans-Bold-61" x="779.003906"/>
     <use xlink:href="#DejaVuSans-Bold-6c" x="846.484375"/>
    </g>
   </g>
  </g>
 </g>
 <defs>
  <clipPath id="p10778a2e77">
   <rect x="72" y="51.84" width="446.4" height="326.16"/>
  </clipPath>
 </defs>
</svg>
