<?xml version="1.0" encoding="utf-8" standalone="no"?>
<!DOCTYPE svg PUBLIC "-//W3C//DTD SVG 1.1//EN"
  "http://www.w3.org/Graphics/SVG/1.1/DTD/svg11.dtd">
<svg xmlns:xlink="http://www.w3.org/1999/xlink" width="576pt" height="432pt" viewBox="0 0 576 432" xmlns="http://www.w3.org/2000/svg" version="1.1">
 <metadata>
  <rdf:RDF xmlns:dc="http://purl.org/dc/elements/1.1/" xmlns:cc="http://creativecommons.org/ns#" xmlns:rdf="http://www.w3.org/1999/02/22-rdf-syntax-ns#">
   <cc:Work>
    <dc:type rdf:resource="http://purl.org/dc/dcmitype/StillImage"/>
    <dc:date>2025-11-20T22:09:12.903985</dc:date>
    <dc:format>image/svg+xml</dc:format>
    <dc:creator>
     <cc:Agent>
      <dc:title>Matplotlib v3.9.4, https://matplotlib.org/</dc:title>
     </cc:Agent>
    </dc:creator>
   </cc:Work>
  </rdf:RDF>
 </metadata>
 <defs>
  <style type="text/css">*{stroke-linejoin: round; stroke-linecap: butt}</style>
 </defs>
 <g id="figure_1">
  <g id="patch_1">
   <path d="M 0 432 
L 576 432 
L 576 0 
L 0 0 
z
" style="fill: #ffffff"/>
  </g>
  <g id="axes_1">
   <g id="patch_2">
    <path d="M 72 384.48 
L 518.4 384.48 
L 518.4 51.84 
L 72 51.84 
z
" style="fill: #ffffff"/>
   </g>
   <g id="matplotlib.axis_1">
    <g id="xtick_1">
     <g id="text_1">
      <!-- −250 -->
      <g style="fill: #262626" transform="translate(68.105978 401.853594) scale(0.11 -0.11)">
       <defs>
        <path id="ArialMT-2212" d="M 3381 1997 
L 356 1997 
L 356 2522 
L 3381 2522 
L 3381 1997 
z
" transform="scale(0.015625)"/>
        <path id="ArialMT-32" d="M 3222 541 
L 3222 0 
L 194 0 
Q 188 203 259 391 
Q 375 700 629 1000 
Q 884 1300 1366 1694 
Q 2113 2306 2375 2664 
Q 2638 3022 2638 3341 
Q 2638 3675 2398 3904 
Q 2159 4134 1775 4134 
Q 1369 4134 1125 3890 
Q 881 3647 878 3216 
L 300 3275 
Q 359 3922 746 4261 
Q 1134 4600 1788 4600 
Q 2447 4600 2831 4234 
Q 3216 3869 3216 3328 
Q 3216 3053 3103 2787 
Q 2991 2522 2730 2228 
Q 2469 1934 1863 1422 
Q 1356 997 1212 845 
Q 1069 694 975 541 
L 3222 541 
z
" transform="scale(0.015625)"/>
        <path id="ArialMT-35" d="M 266 1200 
L 856 1250 
Q 922 819 1161 601 
Q 1400 384 1738 384 
Q 2144 384 2425 690 
Q 2706 997 2706 1503 
Q 2706 1984 2436 2262 
Q 2166 2541 1728 2541 
Q 1456 2541 1237 2417 
Q 1019 2294 894 2097 
L 366 2166 
L 809 4519 
L 3088 4519 
L 3088 3981 
L 1259 3981 
L 1013 2750 
Q 1425 3038 1878 3038 
Q 2478 3038 2890 2622 
Q 3303 2206 3303 1553 
Q 3303 931 2941 478 
Q 2500 -78 1738 -78 
Q 1113 -78 717 272 
Q 322 622 266 1200 
z
" transform="scale(0.015625)"/>
        <path id="ArialMT-30" d="M 266 2259 
Q 266 3072 433 3567 
Q 600 4063 929 4331 
Q 1259 4600 1759 4600 
Q 2128 4600 2406 4451 
Q 2684 4303 2865 4023 
Q 3047 3744 3150 3342 
Q 3253 2941 3253 2259 
Q 3253 1453 3087 958 
Q 2922 463 2592 192 
Q 2263 -78 1759 -78 
Q 1097 -78 719 397 
Q 266 969 266 2259 
z
M 844 2259 
Q 844 1131 1108 757 
Q 1372 384 1759 384 
Q 2147 384 2411 759 
Q 2675 1134 2675 2259 
Q 2675 3391 2411 3762 
Q 2147 4134 1753 4134 
Q 1366 4134 1134 3806 
Q 844 3388 844 2259 
z
" transform="scale(0.015625)"/>
       </defs>
       <use xlink:href="#ArialMT-2212"/>
       <use xlink:href="#ArialMT-32" x="58.398438"/>
       <use xlink:href="#ArialMT-35" x="114.013672"/>
       <use xlink:href="#ArialMT-30" x="169.628906"/>
      </g>
     </g>
    </g>
    <g id="xtick_2">
     <g id="text_2">
      <!-- 0 -->
      <g style="fill: #262626" transform="translate(136.420554 401.853594) scale(0.11 -0.11)">
       <use xlink:href="#ArialMT-30"/>
      </g>
     </g>
    </g>
    <g id="xtick_3">
     <g id="text_3">
      <!-- 250 -->
      <g style="fill: #262626" transform="translate(189.288724 401.853594) scale(0.11 -0.11)">
       <use xlink:href="#ArialMT-32"/>
       <use xlink:href="#ArialMT-35" x="55.615234"/>
       <use xlink:href="#ArialMT-30" x="111.230469"/>
      </g>
     </g>
    </g>
    <g id="xtick_4">
     <g id="text_4">
      <!-- 500 -->
      <g style="fill: #262626" transform="translate(248.273925 401.853594) scale(0.11 -0.11)">
       <use xlink:href="#ArialMT-35"/>
       <use xlink:href="#ArialMT-30" x="55.615234"/>
       <use xlink:href="#ArialMT-30" x="111.230469"/>
      </g>
     </g>
    </g>
    <g id="xtick_5">
     <g id="text_5">
      <!-- 750 -->
      <g style="fill: #262626" transform="translate(307.259125 401.853594) scale(0.11 -0.11)">
       <defs>
        <path id="ArialMT-37" d="M 303 3981 
L 303 4522 
L 3269 4522 
L 3269 4084 
Q 2831 3619 2401 2847 
Q 1972 2075 1738 1259 
Q 1569 684 1522 0 
L 944 0 
Q 953 541 1156 1306 
Q 1359 2072 1739 2783 
Q 2119 3494 2547 3981 
L 303 3981 
z
" transform="scale(0.015625)"/>
       </defs>
       <use xlink:href="#ArialMT-37"/>
       <use xlink:href="#ArialMT-35" x="55.615234"/>
       <use xlink:href="#ArialMT-30" x="111.230469"/>
      </g>
     </g>
    </g>
    <g id="xtick_6">
     <g id="text_6">
      <!-- 1000 -->
      <g style="fill: #262626" transform="translate(363.185811 401.853594) scale(0.11 -0.11)">
       <defs>
        <path id="ArialMT-31" d="M 2384 0 
L 1822 0 
L 1822 3584 
Q 1619 3391 1289 3197 
Q 959 3003 697 2906 
L 697 3450 
Q 1169 3672 1522 3987 
Q 1875 4303 2022 4600 
L 2384 4600 
L 2384 0 
z
" transform="scale(0.015625)"/>
       </defs>
       <use xlink:href="#ArialMT-31"/>
       <use xlink:href="#ArialMT-30" x="55.615234"/>
       <use xlink:href="#ArialMT-30" x="111.230469"/>
       <use xlink:href="#ArialMT-30" x="166.845703"/>
      </g>
     </g>
    </g>
    <g id="xtick_7">
     <g id="text_7">
      <!-- 1250 -->
      <g style="fill: #262626" transform="translate(422.171011 401.853594) scale(0.11 -0.11)">
       <use xlink:href="#ArialMT-31"/>
       <use xlink:href="#ArialMT-32" x="55.615234"/>
       <use xlink:href="#ArialMT-35" x="111.230469"/>
       <use xlink:href="#ArialMT-30" x="166.845703"/>
      </g>
     </g>
    </g>
    <g id="xtick_8">
     <g id="text_8">
      <!-- 1500 -->
      <g style="fill: #262626" transform="translate(481.156212 401.853594) scale(0.11 -0.11)">
       <use xlink:href="#ArialMT-31"/>
       <use xlink:href="#ArialMT-35" x="55.615234"/>
       <use xlink:href="#ArialMT-30" x="111.230469"/>
       <use xlink:href="#ArialMT-30" x="166.845703"/>
      </g>
     </g>
    </g>
    <g id="text_9">
     <!-- time -->
     <g style="fill: #262626" transform="translate(283.865625 416.629219) scale(0.12 -0.12)">
      <defs>
       <path id="ArialMT-74" d="M 1650 503 
L 1731 6 
Q 1494 -44 1306 -44 
Q 1000 -44 831 53 
Q 663 150 594 308 
Q 525 466 525 972 
L 525 2881 
L 113 2881 
L 113 3319 
L 525 3319 
L 525 4141 
L 1084 4478 
L 1084 3319 
L 1650 3319 
L 1650 2881 
L 1084 2881 
L 1084 941 
Q 1084 700 1114 631 
Q 1144 563 1211 522 
Q 1278 481 1403 481 
Q 1497 481 1650 503 
z
" transform="scale(0.015625)"/>
       <path id="ArialMT-69" d="M 425 3934 
L 425 4581 
L 988 4581 
L 988 3934 
L 425 3934 
z
M 425 0 
L 425 3319 
L 988 3319 
L 988 0 
L 425 0 
z
" transform="scale(0.015625)"/>
       <path id="ArialMT-6d" d="M 422 0 
L 422 3319 
L 925 3319 
L 925 2853 
Q 1081 3097 1340 3245 
Q 1600 3394 1931 3394 
Q 2300 3394 2536 3241 
Q 2772 3088 2869 2813 
Q 3263 3394 3894 3394 
Q 4388 3394 4653 3120 
Q 4919 2847 4919 2278 
L 4919 0 
L 4359 0 
L 4359 2091 
Q 4359 2428 4304 2576 
Q 4250 2725 4106 2815 
Q 3963 2906 3769 2906 
Q 3419 2906 3187 2673 
Q 2956 2441 2956 1928 
L 2956 0 
L 2394 0 
L 2394 2156 
Q 2394 2531 2256 2718 
Q 2119 2906 1806 2906 
Q 1569 2906 1367 2781 
Q 1166 2656 1075 2415 
Q 984 2175 984 1722 
L 984 0 
L 422 0 
z
" transform="scale(0.015625)"/>
       <path id="ArialMT-65" d="M 2694 1069 
L 3275 997 
Q 3138 488 2766 206 
Q 2394 -75 1816 -75 
Q 1088 -75 661 373 
Q 234 822 234 1631 
Q 234 2469 665 2931 
Q 1097 3394 1784 3394 
Q 2450 3394 2872 2941 
Q 3294 2488 3294 1666 
Q 3294 1616 3291 1516 
L 816 1516 
Q 847 969 1125 678 
Q 1403 388 1819 388 
Q 2128 388 2347 550 
Q 2566 713 2694 1069 
z
M 847 1978 
L 2700 1978 
Q 2663 2397 2488 2606 
Q 2219 2931 1791 2931 
Q 1403 2931 1139 2672 
Q 875 2413 847 1978 
z
" transform="scale(0.015625)"/>
      </defs>
      <use xlink:href="#ArialMT-74"/>
      <use xlink:href="#ArialMT-69" x="27.783203"/>
      <use xlink:href="#ArialMT-6d" x="50"/>
      <use xlink:href="#ArialMT-65" x="133.300781"/>
     </g>
    </g>
   </g>
   <g id="matplotlib.axis_2">
    <g id="ytick_1">
     <g id="text_10">
      <!-- 0.00 -->
      <g style="fill: #262626" transform="translate(41.092969 353.783272) scale(0.11 -0.11)">
       <defs>
        <path id="ArialMT-2e" d="M 581 0 
L 581 641 
L 1222 641 
L 1222 0 
L 581 0 
z
" transform="scale(0.015625)"/>
       </defs>
       <use xlink:href="#ArialMT-30"/>
       <use xlink:href="#ArialMT-2e" x="55.615234"/>
       <use xlink:href="#ArialMT-30" x="83.398438"/>
       <use xlink:href="#ArialMT-30" x="139.013672"/>
      </g>
     </g>
    </g>
    <g id="ytick_2">
     <g id="text_11">
      <!-- 0.05 -->
      <g style="fill: #262626" transform="translate(41.092969 314.955073) scale(0.11 -0.11)">
       <use xlink:href="#ArialMT-30"/>
       <use xlink:href="#ArialMT-2e" x="55.615234"/>
       <use xlink:href="#ArialMT-30" x="83.398438"/>
       <use xlink:href="#ArialMT-35" x="139.013672"/>
      </g>
     </g>
    </g>
    <g id="ytick_3">
     <g id="text_12">
      <!-- 0.10 -->
      <g style="fill: #262626" transform="translate(41.092969 276.126875) scale(0.11 -0.11)">
       <use xlink:href="#ArialMT-30"/>
       <use xlink:href="#ArialMT-2e" x="55.615234"/>
       <use xlink:href="#ArialMT-31" x="83.398438"/>
       <use xlink:href="#ArialMT-30" x="139.013672"/>
      </g>
     </g>
    </g>
    <g id="ytick_4">
     <g id="text_13">
      <!-- 0.15 -->
      <g style="fill: #262626" transform="translate(41.092969 237.298676) scale(0.11 -0.11)">
       <use xlink:href="#ArialMT-30"/>
       <use xlink:href="#ArialMT-2e" x="55.615234"/>
       <use xlink:href="#ArialMT-31" x="83.398438"/>
       <use xlink:href="#ArialMT-35" x="139.013672"/>
      </g>
     </g>
    </g>
    <g id="ytick_5">
     <g id="text_14">
      <!-- 0.20 -->
      <g style="fill: #262626" transform="translate(41.092969 198.470477) scale(0.11 -0.11)">
       <use xlink:href="#ArialMT-30"/>
       <use xlink:href="#ArialMT-2e" x="55.615234"/>
       <use xlink:href="#ArialMT-32" x="83.398438"/>
       <use xlink:href="#ArialMT-30" x="139.013672"/>
      </g>
     </g>
    </g>
    <g id="ytick_6">
     <g id="text_15">
      <!-- 0.25 -->
      <g style="fill: #262626" transform="translate(41.092969 159.642278) scale(0.11 -0.11)">
       <use xlink:href="#ArialMT-30"/>
       <use xlink:href="#ArialMT-2e" x="55.615234"/>
       <use xlink:href="#ArialMT-32" x="83.398438"/>
       <use xlink:href="#ArialMT-35" x="139.013672"/>
      </g>
     </g>
    </g>
    <g id="ytick_7">
     <g id="text_16">
      <!-- 0.30 -->
      <g style="fill: #262626" transform="translate(41.092969 120.814079) scale(0.11 -0.11)">
       <defs>
        <path id="ArialMT-33" d="M 269 1209 
L 831 1284 
Q 928 806 1161 595 
Q 1394 384 1728 384 
Q 2125 384 2398 659 
Q 2672 934 2672 1341 
Q 2672 1728 2419 1979 
Q 2166 2231 1775 2231 
Q 1616 2231 1378 2169 
L 1441 2663 
Q 1497 2656 1531 2656 
Q 1891 2656 2178 2843 
Q 2466 3031 2466 3422 
Q 2466 3731 2256 3934 
Q 2047 4138 1716 4138 
Q 1388 4138 1169 3931 
Q 950 3725 888 3313 
L 325 3413 
Q 428 3978 793 4289 
Q 1159 4600 1703 4600 
Q 2078 4600 2393 4439 
Q 2709 4278 2876 4000 
Q 3044 3722 3044 3409 
Q 3044 3113 2884 2869 
Q 2725 2625 2413 2481 
Q 2819 2388 3044 2092 
Q 3269 1797 3269 1353 
Q 3269 753 2831 336 
Q 2394 -81 1725 -81 
Q 1122 -81 723 278 
Q 325 638 269 1209 
z
" transform="scale(0.015625)"/>
       </defs>
       <use xlink:href="#ArialMT-30"/>
       <use xlink:href="#ArialMT-2e" x="55.615234"/>
       <use xlink:href="#ArialMT-33" x="83.398438"/>
       <use xlink:href="#ArialMT-30" x="139.013672"/>
      </g>
     </g>
    </g>
    <g id="ytick_8">
     <g id="text_17">
      <!-- 0.35 -->
      <g style="fill: #262626" transform="translate(41.092969 81.98588) scale(0.11 -0.11)">
       <use xlink:href="#ArialMT-30"/>
       <use xlink:href="#ArialMT-2e" x="55.615234"/>
       <use xlink:href="#ArialMT-33" x="83.398438"/>
       <use xlink:href="#ArialMT-35" x="139.013672"/>
      </g>
     </g>
    </g>
    <g id="text_18">
     <!-- firing rate -->
     <g style="fill: #262626" transform="translate(34.567344 243.16875) rotate(-90) scale(0.12 -0.12)">
      <defs>
       <path id="ArialMT-66" d="M 556 0 
L 556 2881 
L 59 2881 
L 59 3319 
L 556 3319 
L 556 3672 
Q 556 4006 616 4169 
Q 697 4388 901 4523 
Q 1106 4659 1475 4659 
Q 1713 4659 2000 4603 
L 1916 4113 
Q 1741 4144 1584 4144 
Q 1328 4144 1222 4034 
Q 1116 3925 1116 3625 
L 1116 3319 
L 1763 3319 
L 1763 2881 
L 1116 2881 
L 1116 0 
L 556 0 
z
" transform="scale(0.015625)"/>
       <path id="ArialMT-72" d="M 416 0 
L 416 3319 
L 922 3319 
L 922 2816 
Q 1116 3169 1280 3281 
Q 1444 3394 1641 3394 
Q 1925 3394 2219 3213 
L 2025 2691 
Q 1819 2813 1613 2813 
Q 1428 2813 1281 2702 
Q 1134 2591 1072 2394 
Q 978 2094 978 1738 
L 978 0 
L 416 0 
z
" transform="scale(0.015625)"/>
       <path id="ArialMT-6e" d="M 422 0 
L 422 3319 
L 928 3319 
L 928 2847 
Q 1294 3394 1984 3394 
Q 2284 3394 2536 3286 
Q 2788 3178 2913 3003 
Q 3038 2828 3088 2588 
Q 3119 2431 3119 2041 
L 3119 0 
L 2556 0 
L 2556 2019 
Q 2556 2363 2490 2533 
Q 2425 2703 2258 2804 
Q 2091 2906 1866 2906 
Q 1506 2906 1245 2678 
Q 984 2450 984 1813 
L 984 0 
L 422 0 
z
" transform="scale(0.015625)"/>
       <path id="ArialMT-67" d="M 319 -275 
L 866 -356 
Q 900 -609 1056 -725 
Q 1266 -881 1628 -881 
Q 2019 -881 2231 -725 
Q 2444 -569 2519 -288 
Q 2563 -116 2559 434 
Q 2191 0 1641 0 
Q 956 0 581 494 
Q 206 988 206 1678 
Q 206 2153 378 2554 
Q 550 2956 876 3175 
Q 1203 3394 1644 3394 
Q 2231 3394 2613 2919 
L 2613 3319 
L 3131 3319 
L 3131 450 
Q 3131 -325 2973 -648 
Q 2816 -972 2473 -1159 
Q 2131 -1347 1631 -1347 
Q 1038 -1347 672 -1080 
Q 306 -813 319 -275 
z
M 784 1719 
Q 784 1066 1043 766 
Q 1303 466 1694 466 
Q 2081 466 2343 764 
Q 2606 1063 2606 1700 
Q 2606 2309 2336 2618 
Q 2066 2928 1684 2928 
Q 1309 2928 1046 2623 
Q 784 2319 784 1719 
z
" transform="scale(0.015625)"/>
       <path id="ArialMT-20" transform="scale(0.015625)"/>
       <path id="ArialMT-61" d="M 2588 409 
Q 2275 144 1986 34 
Q 1697 -75 1366 -75 
Q 819 -75 525 192 
Q 231 459 231 875 
Q 231 1119 342 1320 
Q 453 1522 633 1644 
Q 813 1766 1038 1828 
Q 1203 1872 1538 1913 
Q 2219 1994 2541 2106 
Q 2544 2222 2544 2253 
Q 2544 2597 2384 2738 
Q 2169 2928 1744 2928 
Q 1347 2928 1158 2789 
Q 969 2650 878 2297 
L 328 2372 
Q 403 2725 575 2942 
Q 747 3159 1072 3276 
Q 1397 3394 1825 3394 
Q 2250 3394 2515 3294 
Q 2781 3194 2906 3042 
Q 3031 2891 3081 2659 
Q 3109 2516 3109 2141 
L 3109 1391 
Q 3109 606 3145 398 
Q 3181 191 3288 0 
L 2700 0 
Q 2613 175 2588 409 
z
M 2541 1666 
Q 2234 1541 1622 1453 
Q 1275 1403 1131 1340 
Q 988 1278 909 1158 
Q 831 1038 831 891 
Q 831 666 1001 516 
Q 1172 366 1500 366 
Q 1825 366 2078 508 
Q 2331 650 2450 897 
Q 2541 1088 2541 1459 
L 2541 1666 
z
" transform="scale(0.015625)"/>
      </defs>
      <use xlink:href="#ArialMT-66"/>
      <use xlink:href="#ArialMT-69" x="27.783203"/>
      <use xlink:href="#ArialMT-72" x="50"/>
      <use xlink:href="#ArialMT-69" x="83.300781"/>
      <use xlink:href="#ArialMT-6e" x="105.517578"/>
      <use xlink:href="#ArialMT-67" x="161.132812"/>
      <use xlink:href="#ArialMT-20" x="216.748047"/>
      <use xlink:href="#ArialMT-72" x="244.53125"/>
      <use xlink:href="#ArialMT-61" x="277.832031"/>
      <use xlink:href="#ArialMT-74" x="333.447266"/>
      <use xlink:href="#ArialMT-65" x="361.230469"/>
     </g>
    </g>
   </g>
   <g id="PolyCollection_1">
    <defs>
     <path id="m8290b83cff" d="M 92.290909 -85.544862 
L 92.290909 -81.455003 
L 97.009725 -85.868975 
L 101.728541 -82.672208 
L 106.447357 -90.144424 
L 111.166173 -90.664681 
L 115.884989 -94.876594 
L 120.603805 -98.397231 
L 125.322622 -100.33507 
L 130.041438 -105.864463 
L 134.760254 -112.558851 
L 139.47907 -118.936217 
L 144.197886 -120.251724 
L 148.916702 -117.826962 
L 153.635518 -116.360254 
L 158.354334 -115.316548 
L 163.07315 -115.087437 
L 167.791966 -113.686699 
L 172.510782 -112.47917 
L 177.229598 -111.15954 
L 181.948414 -111.009856 
L 186.66723 -108.764658 
L 191.386047 -107.713844 
L 196.104863 -108.230406 
L 200.823679 -107.56099 
L 205.542495 -107.877541 
L 210.261311 -109.271214 
L 214.980127 -110.673911 
L 219.698943 -112.875714 
L 224.417759 -114.674874 
L 229.136575 -118.197982 
L 233.855391 -120.927376 
L 238.574207 -124.763209 
L 243.293023 -127.947507 
L 248.011839 -132.398228 
L 252.730655 -136.966125 
L 257.449471 -141.780046 
L 262.168288 -146.632993 
L 266.887104 -150.886791 
L 271.60592 -155.316462 
L 276.324736 -160.16437 
L 281.043552 -165.132042 
L 285.762368 -170.245135 
L 290.481184 -174.74361 
L 295.2 -178.848938 
L 299.918816 -182.937048 
L 304.637632 -187.475046 
L 309.356448 -191.490007 
L 314.075264 -196.231641 
L 318.79408 -200.673493 
L 323.512896 -204.524353 
L 328.231712 -208.135635 
L 332.950529 -211.389038 
L 337.669345 -215.07709 
L 342.388161 -219.151032 
L 347.106977 -222.939304 
L 351.825793 -225.875985 
L 356.544609 -228.486936 
L 361.263425 -230.710555 
L 365.982241 -233.659991 
L 370.701057 -236.979773 
L 375.419873 -238.694938 
L 380.138689 -240.49234 
L 384.857505 -246.378788 
L 389.576321 -254.985092 
L 394.295137 -262.749259 
L 399.013953 -268.706356 
L 403.73277 -272.093948 
L 408.451586 -275.716592 
L 413.170402 -280.328266 
L 417.889218 -284.429676 
L 422.608034 -289.528025 
L 427.32685 -293.488237 
L 432.045666 -296.512866 
L 436.764482 -298.81284 
L 441.483298 -301.822027 
L 446.202114 -303.9208 
L 450.92093 -306.501716 
L 455.639746 -308.535269 
L 460.358562 -311.724093 
L 465.077378 -313.457562 
L 469.796195 -315.454136 
L 474.515011 -317.065683 
L 479.233827 -319.313335 
L 483.952643 -319.560756 
L 488.671459 -321.310258 
L 493.390275 -322.345775 
L 498.109091 -323.458177 
L 498.109091 -365.04 
L 498.109091 -365.04 
L 493.390275 -362.771978 
L 488.671459 -361.241628 
L 483.952643 -358.732035 
L 479.233827 -358.173049 
L 474.515011 -355.365978 
L 469.796195 -353.149255 
L 465.077378 -350.54064 
L 460.358562 -347.912453 
L 455.639746 -344.165046 
L 450.92093 -341.597552 
L 446.202114 -338.031919 
L 441.483298 -334.933541 
L 436.764482 -330.938485 
L 432.045666 -328.020555 
L 427.32685 -323.809274 
L 422.608034 -319.071671 
L 417.889218 -313.274858 
L 413.170402 -308.044542 
L 408.451586 -302.248291 
L 403.73277 -298.06214 
L 399.013953 -293.888103 
L 394.295137 -286.939508 
L 389.576321 -278.046881 
L 384.857505 -267.824384 
L 380.138689 -260.313211 
L 375.419873 -258.285879 
L 370.701057 -256.057554 
L 365.982241 -252.53091 
L 361.263425 -248.916721 
L 356.544609 -246.272941 
L 351.825793 -243.027086 
L 347.106977 -239.497554 
L 342.388161 -235.159165 
L 337.669345 -230.2094 
L 332.950529 -225.840779 
L 328.231712 -221.8902 
L 323.512896 -217.056225 
L 318.79408 -212.542416 
L 314.075264 -207.579907 
L 309.356448 -202.20254 
L 304.637632 -197.314226 
L 299.918816 -192.247552 
L 295.2 -187.761884 
L 290.481184 -182.831106 
L 285.762368 -177.980649 
L 281.043552 -172.596821 
L 276.324736 -167.55603 
L 271.60592 -161.965716 
L 266.887104 -156.890513 
L 262.168288 -152.207183 
L 257.449471 -147.488584 
L 252.730655 -143.081552 
L 248.011839 -138.185965 
L 243.293023 -132.778511 
L 238.574207 -129.851352 
L 233.855391 -126.437868 
L 229.136575 -123.859298 
L 224.417759 -120.64848 
L 219.698943 -118.606323 
L 214.980127 -116.586174 
L 210.261311 -115.757502 
L 205.542495 -114.637135 
L 200.823679 -114.190554 
L 196.104863 -114.48723 
L 191.386047 -113.84587 
L 186.66723 -114.771855 
L 181.948414 -116.815581 
L 177.229598 -117.176265 
L 172.510782 -118.754406 
L 167.791966 -119.956166 
L 163.07315 -121.120099 
L 158.354334 -120.572009 
L 153.635518 -121.958577 
L 148.916702 -122.428881 
L 144.197886 -124.202997 
L 139.47907 -122.421131 
L 134.760254 -116.529173 
L 130.041438 -109.602425 
L 125.322622 -105.23546 
L 120.603805 -102.373202 
L 115.884989 -99.522246 
L 111.166173 -95.65427 
L 106.447357 -95.383462 
L 101.728541 -88.287611 
L 97.009725 -90.592752 
L 92.290909 -85.544862 
z
" style="stroke: #1e408b; stroke-opacity: 0.2"/>
    </defs>
    <g clip-path="url(#p1f34514ec8)">
     <use xlink:href="#m8290b83cff" x="0" y="432" style="fill: #1e408b; fill-opacity: 0.2; stroke: #1e408b; stroke-opacity: 0.2"/>
    </g>
   </g>
   <g id="PolyCollection_2">
    <defs>
     <path id="m0aac6df6b1" d="M 92.290909 -90.231228 
L 92.290909 -86.879857 
L 97.009725 -88.014855 
L 101.728541 -85.257886 
L 106.447357 -91.226818 
L 111.166173 -93.750805 
L 115.884989 -92.190577 
L 120.603805 -96.757555 
L 125.322622 -98.462521 
L 130.041438 -105.649097 
L 134.760254 -110.436214 
L 139.47907 -118.122242 
L 144.197886 -123.362236 
L 148.916702 -122.698618 
L 153.635518 -123.865372 
L 158.354334 -124.110098 
L 163.07315 -123.200366 
L 167.791966 -122.075297 
L 172.510782 -120.015439 
L 177.229598 -117.853891 
L 181.948414 -118.25637 
L 186.66723 -115.430986 
L 191.386047 -114.272258 
L 196.104863 -115.683755 
L 200.823679 -115.266748 
L 205.542495 -114.791316 
L 210.261311 -114.59475 
L 214.980127 -116.23557 
L 219.698943 -117.583894 
L 224.417759 -119.425562 
L 229.136575 -123.086536 
L 233.855391 -125.697428 
L 238.574207 -129.371452 
L 243.293023 -132.225674 
L 248.011839 -136.233339 
L 252.730655 -140.281431 
L 257.449471 -143.392056 
L 262.168288 -147.611244 
L 266.887104 -150.591896 
L 271.60592 -154.643447 
L 276.324736 -158.674532 
L 281.043552 -161.615468 
L 285.762368 -165.170457 
L 290.481184 -168.628558 
L 295.2 -171.5447 
L 299.918816 -174.49646 
L 304.637632 -177.77773 
L 309.356448 -181.041957 
L 314.075264 -184.529185 
L 318.79408 -187.448231 
L 323.512896 -190.319499 
L 328.231712 -192.208707 
L 332.950529 -193.43377 
L 337.669345 -195.704352 
L 342.388161 -199.01712 
L 347.106977 -201.61572 
L 351.825793 -203.446929 
L 356.544609 -204.942741 
L 361.263425 -206.067894 
L 365.982241 -207.615129 
L 370.701057 -209.853185 
L 375.419873 -210.046875 
L 380.138689 -210.623657 
L 384.857505 -212.061803 
L 389.576321 -216.263164 
L 394.295137 -223.295077 
L 399.013953 -229.572178 
L 403.73277 -233.000779 
L 408.451586 -236.097462 
L 413.170402 -238.924053 
L 417.889218 -241.857038 
L 422.608034 -245.785887 
L 427.32685 -249.216118 
L 432.045666 -251.577029 
L 436.764482 -253.066389 
L 441.483298 -254.595409 
L 446.202114 -256.462425 
L 450.92093 -258.929275 
L 455.639746 -260.472305 
L 460.358562 -263.158114 
L 465.077378 -264.515647 
L 469.796195 -265.884501 
L 474.515011 -265.760496 
L 479.233827 -267.335098 
L 483.952643 -267.370117 
L 488.671459 -268.685157 
L 493.390275 -269.097669 
L 498.109091 -269.417053 
L 498.109091 -303.373579 
L 498.109091 -303.373579 
L 493.390275 -303.078973 
L 488.671459 -302.725293 
L 483.952643 -301.304582 
L 479.233827 -300.907483 
L 474.515011 -299.207184 
L 469.796195 -298.879565 
L 465.077378 -297.291774 
L 460.358562 -295.592508 
L 455.639746 -293.064558 
L 450.92093 -291.01698 
L 446.202114 -287.878431 
L 441.483298 -285.247728 
L 436.764482 -283.102287 
L 432.045666 -281.34657 
L 427.32685 -278.700981 
L 422.608034 -274.471841 
L 417.889218 -270.177917 
L 413.170402 -266.021934 
L 408.451586 -262.561909 
L 403.73277 -259.100217 
L 399.013953 -254.253771 
L 394.295137 -246.227531 
L 389.576321 -237.890347 
L 384.857505 -232.963549 
L 380.138689 -231.026088 
L 375.419873 -230.583307 
L 370.701057 -229.810163 
L 365.982241 -227.493428 
L 361.263425 -225.334797 
L 356.544609 -223.743033 
L 351.825793 -221.629835 
L 347.106977 -219.705806 
L 342.388161 -216.734348 
L 337.669345 -213.017213 
L 332.950529 -210.030358 
L 328.231712 -207.766813 
L 323.512896 -204.786295 
L 318.79408 -201.324363 
L 314.075264 -198.115038 
L 309.356448 -194.262935 
L 304.637632 -190.577141 
L 299.918816 -186.59373 
L 295.2 -182.990926 
L 290.481184 -179.589399 
L 285.762368 -175.623619 
L 281.043552 -171.405138 
L 276.324736 -168.03539 
L 271.60592 -163.405696 
L 266.887104 -159.123717 
L 262.168288 -156.059948 
L 257.449471 -152.117687 
L 252.730655 -149.052412 
L 248.011839 -145.052447 
L 243.293023 -141.370975 
L 238.574207 -138.555666 
L 233.855391 -135.466178 
L 229.136575 -133.138991 
L 224.417759 -130.159412 
L 219.698943 -128.324956 
L 214.980127 -126.776306 
L 210.261311 -125.200834 
L 205.542495 -124.766547 
L 200.823679 -125.197905 
L 196.104863 -125.069395 
L 191.386047 -123.650638 
L 186.66723 -124.065156 
L 181.948414 -126.256886 
L 177.229598 -126.357941 
L 172.510782 -128.457689 
L 167.791966 -130.495647 
L 163.07315 -130.703954 
L 158.354334 -131.188059 
L 153.635518 -130.4179 
L 148.916702 -128.191235 
L 144.197886 -128.163145 
L 139.47907 -121.961147 
L 134.760254 -115.781245 
L 130.041438 -111.081307 
L 125.322622 -104.22047 
L 120.603805 -103.950562 
L 115.884989 -99.231369 
L 111.166173 -99.991793 
L 106.447357 -97.213141 
L 101.728541 -90.386057 
L 97.009725 -92.041746 
L 92.290909 -90.231228 
z
" style="stroke: #1e408b; stroke-opacity: 0.2"/>
    </defs>
    <g clip-path="url(#p1f34514ec8)">
     <use xlink:href="#m0aac6df6b1" x="0" y="432" style="fill: #1e408b; fill-opacity: 0.2; stroke: #1e408b; stroke-opacity: 0.2"/>
    </g>
   </g>
   <g id="PathCollection_1">
    <defs>
     <path id="mf0936a60ce" d="M -2.5 2.5 
L 2.5 2.5 
L 2.5 -2.5 
L -2.5 -2.5 
z
" style="stroke: #1e408b"/>
    </defs>
    <g clip-path="url(#p1f34514ec8)">
     <use xlink:href="#mf0936a60ce" x="101.728541" y="361.537525" style="fill: #1e408b; stroke: #1e408b"/>
     <use xlink:href="#mf0936a60ce" x="120.603805" y="361.537525" style="fill: #1e408b; stroke: #1e408b"/>
     <use xlink:href="#mf0936a60ce" x="125.322622" y="361.537525" style="fill: #1e408b; stroke: #1e408b"/>
     <use xlink:href="#mf0936a60ce" x="130.041438" y="361.537525" style="fill: #1e408b; stroke: #1e408b"/>
     <use xlink:href="#mf0936a60ce" x="196.104863" y="361.537525" style="fill: #1e408b; stroke: #1e408b"/>
     <use xlink:href="#mf0936a60ce" x="200.823679" y="361.537525" style="fill: #1e408b; stroke: #1e408b"/>
     <use xlink:href="#mf0936a60ce" x="205.542495" y="361.537525" style="fill: #1e408b; stroke: #1e408b"/>
     <use xlink:href="#mf0936a60ce" x="210.261311" y="361.537525" style="fill: #1e408b; stroke: #1e408b"/>
     <use xlink:href="#mf0936a60ce" x="214.980127" y="361.537525" style="fill: #1e408b; stroke: #1e408b"/>
     <use xlink:href="#mf0936a60ce" x="219.698943" y="361.537525" style="fill: #1e408b; stroke: #1e408b"/>
     <use xlink:href="#mf0936a60ce" x="224.417759" y="361.537525" style="fill: #1e408b; stroke: #1e408b"/>
     <use xlink:href="#mf0936a60ce" x="229.136575" y="361.537525" style="fill: #1e408b; stroke: #1e408b"/>
     <use xlink:href="#mf0936a60ce" x="233.855391" y="361.537525" style="fill: #1e408b; stroke: #1e408b"/>
     <use xlink:href="#mf0936a60ce" x="238.574207" y="361.537525" style="fill: #1e408b; stroke: #1e408b"/>
     <use xlink:href="#mf0936a60ce" x="243.293023" y="361.537525" style="fill: #1e408b; stroke: #1e408b"/>
     <use xlink:href="#mf0936a60ce" x="248.011839" y="361.537525" style="fill: #1e408b; stroke: #1e408b"/>
     <use xlink:href="#mf0936a60ce" x="252.730655" y="361.537525" style="fill: #1e408b; stroke: #1e408b"/>
     <use xlink:href="#mf0936a60ce" x="257.449471" y="361.537525" style="fill: #1e408b; stroke: #1e408b"/>
     <use xlink:href="#mf0936a60ce" x="262.168288" y="361.537525" style="fill: #1e408b; stroke: #1e408b"/>
     <use xlink:href="#mf0936a60ce" x="266.887104" y="361.537525" style="fill: #1e408b; stroke: #1e408b"/>
     <use xlink:href="#mf0936a60ce" x="271.60592" y="361.537525" style="fill: #1e408b; stroke: #1e408b"/>
     <use xlink:href="#mf0936a60ce" x="276.324736" y="361.537525" style="fill: #1e408b; stroke: #1e408b"/>
     <use xlink:href="#mf0936a60ce" x="281.043552" y="361.537525" style="fill: #1e408b; stroke: #1e408b"/>
     <use xlink:href="#mf0936a60ce" x="285.762368" y="361.537525" style="fill: #1e408b; stroke: #1e408b"/>
     <use xlink:href="#mf0936a60ce" x="290.481184" y="361.537525" style="fill: #1e408b; stroke: #1e408b"/>
     <use xlink:href="#mf0936a60ce" x="295.2" y="361.537525" style="fill: #1e408b; stroke: #1e408b"/>
     <use xlink:href="#mf0936a60ce" x="299.918816" y="361.537525" style="fill: #1e408b; stroke: #1e408b"/>
     <use xlink:href="#mf0936a60ce" x="304.637632" y="361.537525" style="fill: #1e408b; stroke: #1e408b"/>
     <use xlink:href="#mf0936a60ce" x="309.356448" y="361.537525" style="fill: #1e408b; stroke: #1e408b"/>
     <use xlink:href="#mf0936a60ce" x="314.075264" y="361.537525" style="fill: #1e408b; stroke: #1e408b"/>
     <use xlink:href="#mf0936a60ce" x="318.79408" y="361.537525" style="fill: #1e408b; stroke: #1e408b"/>
     <use xlink:href="#mf0936a60ce" x="323.512896" y="361.537525" style="fill: #1e408b; stroke: #1e408b"/>
     <use xlink:href="#mf0936a60ce" x="328.231712" y="361.537525" style="fill: #1e408b; stroke: #1e408b"/>
     <use xlink:href="#mf0936a60ce" x="332.950529" y="361.537525" style="fill: #1e408b; stroke: #1e408b"/>
     <use xlink:href="#mf0936a60ce" x="337.669345" y="361.537525" style="fill: #1e408b; stroke: #1e408b"/>
     <use xlink:href="#mf0936a60ce" x="342.388161" y="361.537525" style="fill: #1e408b; stroke: #1e408b"/>
     <use xlink:href="#mf0936a60ce" x="347.106977" y="361.537525" style="fill: #1e408b; stroke: #1e408b"/>
     <use xlink:href="#mf0936a60ce" x="351.825793" y="361.537525" style="fill: #1e408b; stroke: #1e408b"/>
     <use xlink:href="#mf0936a60ce" x="356.544609" y="361.537525" style="fill: #1e408b; stroke: #1e408b"/>
     <use xlink:href="#mf0936a60ce" x="361.263425" y="361.537525" style="fill: #1e408b; stroke: #1e408b"/>
     <use xlink:href="#mf0936a60ce" x="365.982241" y="361.537525" style="fill: #1e408b; stroke: #1e408b"/>
     <use xlink:href="#mf0936a60ce" x="370.701057" y="361.537525" style="fill: #1e408b; stroke: #1e408b"/>
     <use xlink:href="#mf0936a60ce" x="375.419873" y="361.537525" style="fill: #1e408b; stroke: #1e408b"/>
     <use xlink:href="#mf0936a60ce" x="380.138689" y="361.537525" style="fill: #1e408b; stroke: #1e408b"/>
     <use xlink:href="#mf0936a60ce" x="384.857505" y="361.537525" style="fill: #1e408b; stroke: #1e408b"/>
     <use xlink:href="#mf0936a60ce" x="389.576321" y="361.537525" style="fill: #1e408b; stroke: #1e408b"/>
     <use xlink:href="#mf0936a60ce" x="394.295137" y="361.537525" style="fill: #1e408b; stroke: #1e408b"/>
     <use xlink:href="#mf0936a60ce" x="399.013953" y="361.537525" style="fill: #1e408b; stroke: #1e408b"/>
     <use xlink:href="#mf0936a60ce" x="403.73277" y="361.537525" style="fill: #1e408b; stroke: #1e408b"/>
     <use xlink:href="#mf0936a60ce" x="408.451586" y="361.537525" style="fill: #1e408b; stroke: #1e408b"/>
     <use xlink:href="#mf0936a60ce" x="413.170402" y="361.537525" style="fill: #1e408b; stroke: #1e408b"/>
     <use xlink:href="#mf0936a60ce" x="417.889218" y="361.537525" style="fill: #1e408b; stroke: #1e408b"/>
     <use xlink:href="#mf0936a60ce" x="422.608034" y="361.537525" style="fill: #1e408b; stroke: #1e408b"/>
     <use xlink:href="#mf0936a60ce" x="427.32685" y="361.537525" style="fill: #1e408b; stroke: #1e408b"/>
     <use xlink:href="#mf0936a60ce" x="432.045666" y="361.537525" style="fill: #1e408b; stroke: #1e408b"/>
     <use xlink:href="#mf0936a60ce" x="436.764482" y="361.537525" style="fill: #1e408b; stroke: #1e408b"/>
     <use xlink:href="#mf0936a60ce" x="441.483298" y="361.537525" style="fill: #1e408b; stroke: #1e408b"/>
     <use xlink:href="#mf0936a60ce" x="446.202114" y="361.537525" style="fill: #1e408b; stroke: #1e408b"/>
     <use xlink:href="#mf0936a60ce" x="450.92093" y="361.537525" style="fill: #1e408b; stroke: #1e408b"/>
     <use xlink:href="#mf0936a60ce" x="455.639746" y="361.537525" style="fill: #1e408b; stroke: #1e408b"/>
     <use xlink:href="#mf0936a60ce" x="460.358562" y="361.537525" style="fill: #1e408b; stroke: #1e408b"/>
     <use xlink:href="#mf0936a60ce" x="465.077378" y="361.537525" style="fill: #1e408b; stroke: #1e408b"/>
     <use xlink:href="#mf0936a60ce" x="469.796195" y="361.537525" style="fill: #1e408b; stroke: #1e408b"/>
     <use xlink:href="#mf0936a60ce" x="474.515011" y="361.537525" style="fill: #1e408b; stroke: #1e408b"/>
     <use xlink:href="#mf0936a60ce" x="479.233827" y="361.537525" style="fill: #1e408b; stroke: #1e408b"/>
     <use xlink:href="#mf0936a60ce" x="483.952643" y="361.537525" style="fill: #1e408b; stroke: #1e408b"/>
     <use xlink:href="#mf0936a60ce" x="488.671459" y="361.537525" style="fill: #1e408b; stroke: #1e408b"/>
     <use xlink:href="#mf0936a60ce" x="493.390275" y="361.537525" style="fill: #1e408b; stroke: #1e408b"/>
     <use xlink:href="#mf0936a60ce" x="498.109091" y="361.537525" style="fill: #1e408b; stroke: #1e408b"/>
    </g>
   </g>
   <g id="PathCollection_2">
    <defs>
     <path id="md7ff865b1f" d="M 0 -2.5 
L -2.5 2.5 
L 2.5 2.5 
z
" style="stroke: #1e408b"/>
    </defs>
    <g clip-path="url(#p1f34514ec8)">
     <use xlink:href="#md7ff865b1f" x="92.290909" y="369.36" style="fill: #1e408b; stroke: #1e408b"/>
     <use xlink:href="#md7ff865b1f" x="125.322622" y="369.36" style="fill: #1e408b; stroke: #1e408b"/>
     <use xlink:href="#md7ff865b1f" x="163.07315" y="369.36" style="fill: #1e408b; stroke: #1e408b"/>
     <use xlink:href="#md7ff865b1f" x="167.791966" y="369.36" style="fill: #1e408b; stroke: #1e408b"/>
     <use xlink:href="#md7ff865b1f" x="172.510782" y="369.36" style="fill: #1e408b; stroke: #1e408b"/>
     <use xlink:href="#md7ff865b1f" x="177.229598" y="369.36" style="fill: #1e408b; stroke: #1e408b"/>
     <use xlink:href="#md7ff865b1f" x="181.948414" y="369.36" style="fill: #1e408b; stroke: #1e408b"/>
     <use xlink:href="#md7ff865b1f" x="186.66723" y="369.36" style="fill: #1e408b; stroke: #1e408b"/>
     <use xlink:href="#md7ff865b1f" x="191.386047" y="369.36" style="fill: #1e408b; stroke: #1e408b"/>
     <use xlink:href="#md7ff865b1f" x="196.104863" y="369.36" style="fill: #1e408b; stroke: #1e408b"/>
     <use xlink:href="#md7ff865b1f" x="200.823679" y="369.36" style="fill: #1e408b; stroke: #1e408b"/>
     <use xlink:href="#md7ff865b1f" x="205.542495" y="369.36" style="fill: #1e408b; stroke: #1e408b"/>
     <use xlink:href="#md7ff865b1f" x="210.261311" y="369.36" style="fill: #1e408b; stroke: #1e408b"/>
     <use xlink:href="#md7ff865b1f" x="214.980127" y="369.36" style="fill: #1e408b; stroke: #1e408b"/>
     <use xlink:href="#md7ff865b1f" x="219.698943" y="369.36" style="fill: #1e408b; stroke: #1e408b"/>
     <use xlink:href="#md7ff865b1f" x="224.417759" y="369.36" style="fill: #1e408b; stroke: #1e408b"/>
     <use xlink:href="#md7ff865b1f" x="229.136575" y="369.36" style="fill: #1e408b; stroke: #1e408b"/>
     <use xlink:href="#md7ff865b1f" x="233.855391" y="369.36" style="fill: #1e408b; stroke: #1e408b"/>
     <use xlink:href="#md7ff865b1f" x="238.574207" y="369.36" style="fill: #1e408b; stroke: #1e408b"/>
     <use xlink:href="#md7ff865b1f" x="243.293023" y="369.36" style="fill: #1e408b; stroke: #1e408b"/>
     <use xlink:href="#md7ff865b1f" x="248.011839" y="369.36" style="fill: #1e408b; stroke: #1e408b"/>
     <use xlink:href="#md7ff865b1f" x="252.730655" y="369.36" style="fill: #1e408b; stroke: #1e408b"/>
     <use xlink:href="#md7ff865b1f" x="257.449471" y="369.36" style="fill: #1e408b; stroke: #1e408b"/>
     <use xlink:href="#md7ff865b1f" x="262.168288" y="369.36" style="fill: #1e408b; stroke: #1e408b"/>
     <use xlink:href="#md7ff865b1f" x="266.887104" y="369.36" style="fill: #1e408b; stroke: #1e408b"/>
     <use xlink:href="#md7ff865b1f" x="271.60592" y="369.36" style="fill: #1e408b; stroke: #1e408b"/>
     <use xlink:href="#md7ff865b1f" x="276.324736" y="369.36" style="fill: #1e408b; stroke: #1e408b"/>
     <use xlink:href="#md7ff865b1f" x="281.043552" y="369.36" style="fill: #1e408b; stroke: #1e408b"/>
     <use xlink:href="#md7ff865b1f" x="285.762368" y="369.36" style="fill: #1e408b; stroke: #1e408b"/>
     <use xlink:href="#md7ff865b1f" x="290.481184" y="369.36" style="fill: #1e408b; stroke: #1e408b"/>
     <use xlink:href="#md7ff865b1f" x="295.2" y="369.36" style="fill: #1e408b; stroke: #1e408b"/>
     <use xlink:href="#md7ff865b1f" x="299.918816" y="369.36" style="fill: #1e408b; stroke: #1e408b"/>
     <use xlink:href="#md7ff865b1f" x="304.637632" y="369.36" style="fill: #1e408b; stroke: #1e408b"/>
     <use xlink:href="#md7ff865b1f" x="309.356448" y="369.36" style="fill: #1e408b; stroke: #1e408b"/>
     <use xlink:href="#md7ff865b1f" x="314.075264" y="369.36" style="fill: #1e408b; stroke: #1e408b"/>
     <use xlink:href="#md7ff865b1f" x="318.79408" y="369.36" style="fill: #1e408b; stroke: #1e408b"/>
     <use xlink:href="#md7ff865b1f" x="323.512896" y="369.36" style="fill: #1e408b; stroke: #1e408b"/>
     <use xlink:href="#md7ff865b1f" x="328.231712" y="369.36" style="fill: #1e408b; stroke: #1e408b"/>
     <use xlink:href="#md7ff865b1f" x="332.950529" y="369.36" style="fill: #1e408b; stroke: #1e408b"/>
     <use xlink:href="#md7ff865b1f" x="337.669345" y="369.36" style="fill: #1e408b; stroke: #1e408b"/>
     <use xlink:href="#md7ff865b1f" x="342.388161" y="369.36" style="fill: #1e408b; stroke: #1e408b"/>
     <use xlink:href="#md7ff865b1f" x="347.106977" y="369.36" style="fill: #1e408b; stroke: #1e408b"/>
     <use xlink:href="#md7ff865b1f" x="351.825793" y="369.36" style="fill: #1e408b; stroke: #1e408b"/>
     <use xlink:href="#md7ff865b1f" x="356.544609" y="369.36" style="fill: #1e408b; stroke: #1e408b"/>
     <use xlink:href="#md7ff865b1f" x="361.263425" y="369.36" style="fill: #1e408b; stroke: #1e408b"/>
     <use xlink:href="#md7ff865b1f" x="365.982241" y="369.36" style="fill: #1e408b; stroke: #1e408b"/>
     <use xlink:href="#md7ff865b1f" x="370.701057" y="369.36" style="fill: #1e408b; stroke: #1e408b"/>
     <use xlink:href="#md7ff865b1f" x="375.419873" y="369.36" style="fill: #1e408b; stroke: #1e408b"/>
     <use xlink:href="#md7ff865b1f" x="380.138689" y="369.36" style="fill: #1e408b; stroke: #1e408b"/>
     <use xlink:href="#md7ff865b1f" x="384.857505" y="369.36" style="fill: #1e408b; stroke: #1e408b"/>
     <use xlink:href="#md7ff865b1f" x="389.576321" y="369.36" style="fill: #1e408b; stroke: #1e408b"/>
     <use xlink:href="#md7ff865b1f" x="394.295137" y="369.36" style="fill: #1e408b; stroke: #1e408b"/>
     <use xlink:href="#md7ff865b1f" x="399.013953" y="369.36" style="fill: #1e408b; stroke: #1e408b"/>
     <use xlink:href="#md7ff865b1f" x="403.73277" y="369.36" style="fill: #1e408b; stroke: #1e408b"/>
     <use xlink:href="#md7ff865b1f" x="408.451586" y="369.36" style="fill: #1e408b; stroke: #1e408b"/>
     <use xlink:href="#md7ff865b1f" x="413.170402" y="369.36" style="fill: #1e408b; stroke: #1e408b"/>
     <use xlink:href="#md7ff865b1f" x="417.889218" y="369.36" style="fill: #1e408b; stroke: #1e408b"/>
     <use xlink:href="#md7ff865b1f" x="422.608034" y="369.36" style="fill: #1e408b; stroke: #1e408b"/>
     <use xlink:href="#md7ff865b1f" x="427.32685" y="369.36" style="fill: #1e408b; stroke: #1e408b"/>
     <use xlink:href="#md7ff865b1f" x="432.045666" y="369.36" style="fill: #1e408b; stroke: #1e408b"/>
     <use xlink:href="#md7ff865b1f" x="436.764482" y="369.36" style="fill: #1e408b; stroke: #1e408b"/>
     <use xlink:href="#md7ff865b1f" x="441.483298" y="369.36" style="fill: #1e408b; stroke: #1e408b"/>
     <use xlink:href="#md7ff865b1f" x="446.202114" y="369.36" style="fill: #1e408b; stroke: #1e408b"/>
     <use xlink:href="#md7ff865b1f" x="450.92093" y="369.36" style="fill: #1e408b; stroke: #1e408b"/>
     <use xlink:href="#md7ff865b1f" x="455.639746" y="369.36" style="fill: #1e408b; stroke: #1e408b"/>
     <use xlink:href="#md7ff865b1f" x="460.358562" y="369.36" style="fill: #1e408b; stroke: #1e408b"/>
     <use xlink:href="#md7ff865b1f" x="465.077378" y="369.36" style="fill: #1e408b; stroke: #1e408b"/>
     <use xlink:href="#md7ff865b1f" x="469.796195" y="369.36" style="fill: #1e408b; stroke: #1e408b"/>
     <use xlink:href="#md7ff865b1f" x="474.515011" y="369.36" style="fill: #1e408b; stroke: #1e408b"/>
     <use xlink:href="#md7ff865b1f" x="479.233827" y="369.36" style="fill: #1e408b; stroke: #1e408b"/>
     <use xlink:href="#md7ff865b1f" x="483.952643" y="369.36" style="fill: #1e408b; stroke: #1e408b"/>
     <use xlink:href="#md7ff865b1f" x="488.671459" y="369.36" style="fill: #1e408b; stroke: #1e408b"/>
     <use xlink:href="#md7ff865b1f" x="493.390275" y="369.36" style="fill: #1e408b; stroke: #1e408b"/>
     <use xlink:href="#md7ff865b1f" x="498.109091" y="369.36" style="fill: #1e408b; stroke: #1e408b"/>
    </g>
   </g>
   <g id="line2d_1">
    <path d="M 92.290909 348.500068 
L 97.009725 343.769137 
L 101.728541 346.520091 
L 106.447357 339.236057 
L 111.166173 338.840524 
L 115.884989 334.80058 
L 120.603805 331.614784 
L 125.322622 329.214735 
L 130.041438 324.266556 
L 134.760254 317.455988 
L 139.47907 311.321326 
L 144.197886 309.77264 
L 148.916702 311.872079 
L 153.635518 312.840585 
L 158.354334 314.055722 
L 163.07315 313.896232 
L 167.791966 315.178568 
L 172.510782 316.383212 
L 177.229598 317.832098 
L 181.948414 318.087281 
L 186.66723 320.231743 
L 191.386047 321.220143 
L 196.104863 320.641182 
L 200.823679 321.124228 
L 205.542495 320.742662 
L 210.261311 319.485642 
L 214.980127 318.369958 
L 219.698943 316.258982 
L 224.417759 314.338323 
L 229.136575 310.97136 
L 233.855391 308.317378 
L 238.574207 304.692719 
L 243.293023 301.636991 
L 248.011839 296.707903 
L 252.730655 291.976161 
L 257.449471 287.365685 
L 262.168288 282.579912 
L 266.887104 278.111348 
L 271.60592 273.358911 
L 276.324736 268.1398 
L 281.043552 263.135569 
L 285.762368 257.887108 
L 290.481184 253.212642 
L 295.2 248.694589 
L 299.918816 244.4077 
L 304.637632 239.605364 
L 309.356448 235.153727 
L 314.075264 230.094226 
L 318.79408 225.392046 
L 323.512896 221.209711 
L 328.231712 216.987083 
L 332.950529 213.385091 
L 337.669345 209.356755 
L 342.388161 204.844901 
L 347.106977 200.781571 
L 351.825793 197.548465 
L 356.544609 194.620061 
L 361.263425 192.186362 
L 365.982241 188.90455 
L 370.701057 185.481337 
L 375.419873 183.509592 
L 380.138689 181.597225 
L 384.857505 174.898414 
L 389.576321 165.484013 
L 394.295137 157.155616 
L 399.013953 150.702771 
L 403.73277 146.921956 
L 408.451586 143.017558 
L 413.170402 137.813596 
L 417.889218 133.147733 
L 422.608034 127.700152 
L 427.32685 123.351244 
L 432.045666 119.73329 
L 436.764482 117.124337 
L 441.483298 113.622216 
L 446.202114 111.02364 
L 450.92093 107.950366 
L 455.639746 105.649842 
L 460.358562 102.181727 
L 465.077378 100.000899 
L 469.796195 97.698304 
L 474.515011 95.784169 
L 479.233827 93.256808 
L 483.952643 92.853604 
L 488.671459 90.724057 
L 493.390275 89.441124 
L 498.109091 87.750912 
" clip-path="url(#p1f34514ec8)" style="fill: none; stroke: #1e408b; stroke-width: 2; stroke-linecap: round"/>
   </g>
   <g id="line2d_2">
    <path d="M 92.290909 347.068543 
L 97.009725 343.173853 
L 101.728541 339.862294 
L 106.447357 337.122805 
L 111.166173 334.342749 
L 115.884989 331.399001 
L 120.603805 327.063827 
L 125.322622 323.418224 
L 130.041438 319.702075 
L 134.760254 315.24645 
L 139.47907 311.340415 
L 144.197886 310.161138 
L 148.916702 310.051589 
L 153.635518 311.360507 
L 158.354334 312.703506 
L 163.07315 314.853721 
L 167.791966 317.595299 
L 172.510782 319.63252 
L 177.229598 322.058059 
L 181.948414 323.992145 
L 186.66723 325.752705 
L 191.386047 327.48313 
L 196.104863 328.663499 
L 200.823679 329.634803 
L 205.542495 330.675274 
L 210.261311 331.378876 
L 214.980127 332.060953 
L 219.698943 332.618516 
L 224.417759 333.200205 
L 229.136575 333.46464 
L 233.855391 333.936135 
L 238.574207 334.128443 
L 243.293023 334.155511 
L 248.011839 334.199482 
L 252.730655 334.29583 
L 257.449471 334.615853 
L 262.168288 334.577988 
L 266.887104 334.631872 
L 271.60592 334.797585 
L 276.324736 334.853753 
L 281.043552 334.748791 
L 285.762368 334.745474 
L 290.481184 334.688748 
L 295.2 334.721457 
L 299.918816 334.894028 
L 304.637632 334.982665 
L 309.356448 334.931699 
L 314.075264 335.109501 
L 318.79408 335.264463 
L 323.512896 335.330444 
L 328.231712 335.386892 
L 332.950529 335.469402 
L 337.669345 335.572445 
L 342.388161 335.671476 
L 347.106977 335.745506 
L 351.825793 336.069645 
L 356.544609 336.488227 
L 361.263425 336.835584 
L 365.982241 337.451284 
L 370.701057 338.189021 
L 375.419873 338.812762 
L 380.138689 339.3494 
L 384.857505 339.48633 
L 389.576321 339.666447 
L 394.295137 339.813092 
L 399.013953 339.889535 
L 403.73277 340.292045 
L 408.451586 340.522728 
L 413.170402 340.798852 
L 417.889218 340.706854 
L 422.608034 340.679074 
L 427.32685 340.8348 
L 432.045666 340.918656 
L 436.764482 341.070868 
L 441.483298 340.954766 
L 446.202114 341.002203 
L 450.92093 341.205816 
L 455.639746 341.180812 
L 460.358562 341.108727 
L 465.077378 341.208989 
L 469.796195 341.126073 
L 474.515011 341.089727 
L 479.233827 341.249549 
L 483.952643 341.167546 
L 488.671459 341.295628 
L 493.390275 341.224036 
L 498.109091 341.402035 
" clip-path="url(#p1f34514ec8)" style="fill: none; stroke-dasharray: 5.55,2.4; stroke-dashoffset: 0; stroke: #1e408b; stroke-opacity: 0.8; stroke-width: 1.5"/>
   </g>
   <g id="line2d_3">
    <path d="M 92.290909 343.444458 
L 97.009725 341.971699 
L 101.728541 344.178028 
L 106.447357 337.780021 
L 111.166173 335.128701 
L 115.884989 336.289027 
L 120.603805 331.645941 
L 125.322622 330.658504 
L 130.041438 323.634798 
L 134.760254 318.891271 
L 139.47907 311.958305 
L 144.197886 306.237309 
L 148.916702 306.555074 
L 153.635518 304.858364 
L 158.354334 304.350921 
L 163.07315 305.04784 
L 167.791966 305.714528 
L 172.510782 307.763436 
L 177.229598 309.894084 
L 181.948414 309.743372 
L 186.66723 312.251929 
L 191.386047 313.038552 
L 196.104863 311.623425 
L 200.823679 311.767673 
L 205.542495 312.221069 
L 210.261311 312.102208 
L 214.980127 310.494062 
L 219.698943 309.045575 
L 224.417759 307.207513 
L 229.136575 303.887237 
L 233.855391 301.418197 
L 238.574207 298.036441 
L 243.293023 295.201676 
L 248.011839 291.357107 
L 252.730655 287.333078 
L 257.449471 284.245129 
L 262.168288 280.164404 
L 266.887104 277.142194 
L 271.60592 272.975429 
L 276.324736 268.645039 
L 281.043552 265.489697 
L 285.762368 261.602962 
L 290.481184 257.891022 
L 295.2 254.732187 
L 299.918816 251.454905 
L 304.637632 247.822565 
L 309.356448 244.347554 
L 314.075264 240.677888 
L 318.79408 237.613703 
L 323.512896 234.447103 
L 328.231712 232.01224 
L 332.950529 230.267936 
L 337.669345 227.639218 
L 342.388161 224.124266 
L 347.106977 221.339237 
L 351.825793 219.461618 
L 356.544609 217.657113 
L 361.263425 216.298654 
L 365.982241 214.445721 
L 370.701057 212.168326 
L 375.419873 211.684909 
L 380.138689 211.175127 
L 384.857505 209.487324 
L 389.576321 204.923244 
L 394.295137 197.238696 
L 399.013953 190.087025 
L 403.73277 185.949502 
L 408.451586 182.670314 
L 413.170402 179.527006 
L 417.889218 175.982522 
L 422.608034 171.871136 
L 427.32685 168.04145 
L 432.045666 165.5382 
L 436.764482 163.915662 
L 441.483298 162.078431 
L 446.202114 159.829572 
L 450.92093 157.026872 
L 455.639746 155.231568 
L 460.358562 152.624689 
L 465.077378 151.096289 
L 469.796195 149.617967 
L 474.515011 149.51616 
L 479.233827 147.878709 
L 483.952643 147.66265 
L 488.671459 146.294775 
L 493.390275 145.911679 
L 498.109091 145.604684 
" clip-path="url(#p1f34514ec8)" style="fill: none; stroke: #1e408b; stroke-width: 4; stroke-linecap: round"/>
   </g>
   <g id="line2d_4">
    <path d="M 92.290909 343.444458 
L 97.009725 341.971699 
L 101.728541 344.178028 
L 106.447357 337.780021 
L 111.166173 335.128701 
L 115.884989 336.289027 
L 120.603805 331.645941 
L 125.322622 330.658504 
L 130.041438 323.634798 
L 134.760254 318.891271 
L 139.47907 311.958305 
L 144.197886 306.237309 
L 148.916702 306.555074 
L 153.635518 304.858364 
L 158.354334 304.350921 
L 163.07315 305.04784 
L 167.791966 305.714528 
L 172.510782 307.763436 
L 177.229598 309.894084 
L 181.948414 309.743372 
L 186.66723 312.251929 
L 191.386047 313.038552 
L 196.104863 311.623425 
L 200.823679 311.767673 
L 205.542495 312.221069 
L 210.261311 312.102208 
L 214.980127 310.494062 
L 219.698943 309.045575 
L 224.417759 307.207513 
L 229.136575 303.887237 
L 233.855391 301.418197 
L 238.574207 298.036441 
L 243.293023 295.201676 
L 248.011839 291.357107 
L 252.730655 287.333078 
L 257.449471 284.245129 
L 262.168288 280.164404 
L 266.887104 277.142194 
L 271.60592 272.975429 
L 276.324736 268.645039 
L 281.043552 265.489697 
L 285.762368 261.602962 
L 290.481184 257.891022 
L 295.2 254.732187 
L 299.918816 251.454905 
L 304.637632 247.822565 
L 309.356448 244.347554 
L 314.075264 240.677888 
L 318.79408 237.613703 
L 323.512896 234.447103 
L 328.231712 232.01224 
L 332.950529 230.267936 
L 337.669345 227.639218 
L 342.388161 224.124266 
L 347.106977 221.339237 
L 351.825793 219.461618 
L 356.544609 217.657113 
L 361.263425 216.298654 
L 365.982241 214.445721 
L 370.701057 212.168326 
L 375.419873 211.684909 
L 380.138689 211.175127 
L 384.857505 209.487324 
L 389.576321 204.923244 
L 394.295137 197.238696 
L 399.013953 190.087025 
L 403.73277 185.949502 
L 408.451586 182.670314 
L 413.170402 179.527006 
L 417.889218 175.982522 
L 422.608034 171.871136 
L 427.32685 168.04145 
L 432.045666 165.5382 
L 436.764482 163.915662 
L 441.483298 162.078431 
L 446.202114 159.829572 
L 450.92093 157.026872 
L 455.639746 155.231568 
L 460.358562 152.624689 
L 465.077378 151.096289 
L 469.796195 149.617967 
L 474.515011 149.51616 
L 479.233827 147.878709 
L 483.952643 147.66265 
L 488.671459 146.294775 
L 493.390275 145.911679 
L 498.109091 145.604684 
" clip-path="url(#p1f34514ec8)" style="fill: none; stroke: #ffffff; stroke-width: 1.5; stroke-linecap: round"/>
   </g>
   <g id="line2d_5">
    <path d="M 92.290909 347.262964 
L 97.009725 343.523967 
L 101.728541 340.349731 
L 106.447357 336.467884 
L 111.166173 333.952542 
L 115.884989 330.46992 
L 120.603805 326.817279 
L 125.322622 322.969256 
L 130.041438 318.594334 
L 134.760254 313.764666 
L 139.47907 309.335264 
L 144.197886 307.076424 
L 148.916702 307.090479 
L 153.635518 308.937704 
L 158.354334 311.602698 
L 163.07315 314.331575 
L 167.791966 317.057082 
L 172.510782 319.965014 
L 177.229598 322.321455 
L 181.948414 324.34792 
L 186.66723 325.950651 
L 191.386047 327.655532 
L 196.104863 328.91154 
L 200.823679 329.830209 
L 205.542495 330.843523 
L 210.261311 331.656269 
L 214.980127 332.422321 
L 219.698943 332.789239 
L 224.417759 332.989237 
L 229.136575 333.125405 
L 233.855391 333.520198 
L 238.574207 333.654393 
L 243.293023 333.696977 
L 248.011839 333.704599 
L 252.730655 333.541067 
L 257.449471 333.502498 
L 262.168288 333.327536 
L 266.887104 333.439894 
L 271.60592 333.499883 
L 276.324736 333.490778 
L 281.043552 333.567501 
L 285.762368 333.434082 
L 290.481184 333.381881 
L 295.2 333.481438 
L 299.918816 333.567151 
L 304.637632 333.760762 
L 309.356448 333.552096 
L 314.075264 333.394575 
L 318.79408 333.624841 
L 323.512896 333.845024 
L 328.231712 333.933577 
L 332.950529 334.222746 
L 337.669345 334.475466 
L 342.388161 334.59887 
L 347.106977 334.767335 
L 351.825793 335.139934 
L 356.544609 335.777446 
L 361.263425 336.245633 
L 365.982241 336.566966 
L 370.701057 337.296201 
L 375.419873 337.858468 
L 380.138689 338.552347 
L 384.857505 339.043937 
L 389.576321 339.335063 
L 394.295137 339.622282 
L 399.013953 339.724669 
L 403.73277 339.997259 
L 408.451586 340.179893 
L 413.170402 340.525032 
L 417.889218 340.440637 
L 422.608034 340.737045 
L 427.32685 340.717806 
L 432.045666 340.730365 
L 436.764482 340.774364 
L 441.483298 340.859669 
L 446.202114 340.990568 
L 450.92093 341.152583 
L 455.639746 341.213912 
L 460.358562 341.34697 
L 465.077378 341.487242 
L 469.796195 341.534051 
L 474.515011 341.521351 
L 479.233827 341.44824 
L 483.952643 341.45496 
L 488.671459 341.405155 
L 493.390275 341.58442 
L 498.109091 341.65553 
" clip-path="url(#p1f34514ec8)" style="fill: none; stroke-dasharray: 5.55,2.4; stroke-dashoffset: 0; stroke: #1e408b; stroke-opacity: 0.8; stroke-width: 1.5"/>
   </g>
   <g id="patch_3">
    <path d="M 72 384.48 
L 72 51.84 
" style="fill: none; stroke: #cccccc; stroke-width: 1.25; stroke-linejoin: miter; stroke-linecap: square"/>
   </g>
   <g id="patch_4">
    <path d="M 72 384.48 
L 518.4 384.48 
" style="fill: none; stroke: #cccccc; stroke-width: 1.25; stroke-linejoin: miter; stroke-linecap: square"/>
   </g>
   <g id="text_19">
    <!-- L2_sactemporal -->
    <g style="fill: #262626" transform="translate(241.900469 45.84) scale(0.14 -0.14)">
     <defs>
      <path id="Arial-BoldMT-4c" d="M 491 0 
L 491 4544 
L 1416 4544 
L 1416 772 
L 3716 772 
L 3716 0 
L 491 0 
z
" transform="scale(0.015625)"/>
      <path id="Arial-BoldMT-32" d="M 3238 816 
L 3238 0 
L 159 0 
Q 209 463 459 877 
Q 709 1291 1447 1975 
Q 2041 2528 2175 2725 
Q 2356 2997 2356 3263 
Q 2356 3556 2198 3714 
Q 2041 3872 1763 3872 
Q 1488 3872 1325 3706 
Q 1163 3541 1138 3156 
L 263 3244 
Q 341 3969 753 4284 
Q 1166 4600 1784 4600 
Q 2463 4600 2850 4234 
Q 3238 3869 3238 3325 
Q 3238 3016 3127 2736 
Q 3016 2456 2775 2150 
Q 2616 1947 2200 1565 
Q 1784 1184 1673 1059 
Q 1563 934 1494 816 
L 3238 816 
z
" transform="scale(0.015625)"/>
      <path id="Arial-BoldMT-5f" d="M -59 -1266 
L -59 -697 
L 3591 -697 
L 3591 -1266 
L -59 -1266 
z
" transform="scale(0.015625)"/>
      <path id="Arial-BoldMT-73" d="M 150 947 
L 1031 1081 
Q 1088 825 1259 692 
Q 1431 559 1741 559 
Q 2081 559 2253 684 
Q 2369 772 2369 919 
Q 2369 1019 2306 1084 
Q 2241 1147 2013 1200 
Q 950 1434 666 1628 
Q 272 1897 272 2375 
Q 272 2806 612 3100 
Q 953 3394 1669 3394 
Q 2350 3394 2681 3172 
Q 3013 2950 3138 2516 
L 2309 2363 
Q 2256 2556 2107 2659 
Q 1959 2763 1684 2763 
Q 1338 2763 1188 2666 
Q 1088 2597 1088 2488 
Q 1088 2394 1175 2328 
Q 1294 2241 1995 2081 
Q 2697 1922 2975 1691 
Q 3250 1456 3250 1038 
Q 3250 581 2869 253 
Q 2488 -75 1741 -75 
Q 1063 -75 667 200 
Q 272 475 150 947 
z
" transform="scale(0.015625)"/>
      <path id="Arial-BoldMT-61" d="M 1116 2306 
L 319 2450 
Q 453 2931 781 3162 
Q 1109 3394 1756 3394 
Q 2344 3394 2631 3255 
Q 2919 3116 3036 2902 
Q 3153 2688 3153 2116 
L 3144 1091 
Q 3144 653 3186 445 
Q 3228 238 3344 0 
L 2475 0 
Q 2441 88 2391 259 
Q 2369 338 2359 363 
Q 2134 144 1878 34 
Q 1622 -75 1331 -75 
Q 819 -75 523 203 
Q 228 481 228 906 
Q 228 1188 362 1408 
Q 497 1628 739 1745 
Q 981 1863 1438 1950 
Q 2053 2066 2291 2166 
L 2291 2253 
Q 2291 2506 2166 2614 
Q 2041 2722 1694 2722 
Q 1459 2722 1328 2630 
Q 1197 2538 1116 2306 
z
M 2291 1594 
Q 2122 1538 1756 1459 
Q 1391 1381 1278 1306 
Q 1106 1184 1106 997 
Q 1106 813 1243 678 
Q 1381 544 1594 544 
Q 1831 544 2047 700 
Q 2206 819 2256 991 
Q 2291 1103 2291 1419 
L 2291 1594 
z
" transform="scale(0.015625)"/>
      <path id="Arial-BoldMT-63" d="M 3353 2338 
L 2488 2181 
Q 2444 2441 2289 2572 
Q 2134 2703 1888 2703 
Q 1559 2703 1364 2476 
Q 1169 2250 1169 1719 
Q 1169 1128 1367 884 
Q 1566 641 1900 641 
Q 2150 641 2309 783 
Q 2469 925 2534 1272 
L 3397 1125 
Q 3263 531 2881 228 
Q 2500 -75 1859 -75 
Q 1131 -75 698 384 
Q 266 844 266 1656 
Q 266 2478 700 2936 
Q 1134 3394 1875 3394 
Q 2481 3394 2839 3133 
Q 3197 2872 3353 2338 
z
" transform="scale(0.015625)"/>
      <path id="Arial-BoldMT-74" d="M 1981 3319 
L 1981 2619 
L 1381 2619 
L 1381 1281 
Q 1381 875 1398 808 
Q 1416 741 1477 697 
Q 1538 653 1625 653 
Q 1747 653 1978 738 
L 2053 56 
Q 1747 -75 1359 -75 
Q 1122 -75 931 4 
Q 741 84 652 211 
Q 563 338 528 553 
Q 500 706 500 1172 
L 500 2619 
L 97 2619 
L 97 3319 
L 500 3319 
L 500 3978 
L 1381 4491 
L 1381 3319 
L 1981 3319 
z
" transform="scale(0.015625)"/>
      <path id="Arial-BoldMT-65" d="M 2381 1056 
L 3256 909 
Q 3088 428 2723 176 
Q 2359 -75 1813 -75 
Q 947 -75 531 491 
Q 203 944 203 1634 
Q 203 2459 634 2926 
Q 1066 3394 1725 3394 
Q 2466 3394 2894 2905 
Q 3322 2416 3303 1406 
L 1103 1406 
Q 1113 1016 1316 798 
Q 1519 581 1822 581 
Q 2028 581 2168 693 
Q 2309 806 2381 1056 
z
M 2431 1944 
Q 2422 2325 2234 2523 
Q 2047 2722 1778 2722 
Q 1491 2722 1303 2513 
Q 1116 2303 1119 1944 
L 2431 1944 
z
" transform="scale(0.015625)"/>
      <path id="Arial-BoldMT-6d" d="M 394 3319 
L 1203 3319 
L 1203 2866 
Q 1638 3394 2238 3394 
Q 2556 3394 2790 3262 
Q 3025 3131 3175 2866 
Q 3394 3131 3647 3262 
Q 3900 3394 4188 3394 
Q 4553 3394 4806 3245 
Q 5059 3097 5184 2809 
Q 5275 2597 5275 2122 
L 5275 0 
L 4397 0 
L 4397 1897 
Q 4397 2391 4306 2534 
Q 4184 2722 3931 2722 
Q 3747 2722 3584 2609 
Q 3422 2497 3350 2280 
Q 3278 2063 3278 1594 
L 3278 0 
L 2400 0 
L 2400 1819 
Q 2400 2303 2353 2443 
Q 2306 2584 2207 2653 
Q 2109 2722 1941 2722 
Q 1738 2722 1575 2612 
Q 1413 2503 1342 2297 
Q 1272 2091 1272 1613 
L 1272 0 
L 394 0 
L 394 3319 
z
" transform="scale(0.015625)"/>
      <path id="Arial-BoldMT-70" d="M 434 3319 
L 1253 3319 
L 1253 2831 
Q 1413 3081 1684 3237 
Q 1956 3394 2288 3394 
Q 2866 3394 3269 2941 
Q 3672 2488 3672 1678 
Q 3672 847 3265 386 
Q 2859 -75 2281 -75 
Q 2006 -75 1782 34 
Q 1559 144 1313 409 
L 1313 -1263 
L 434 -1263 
L 434 3319 
z
M 1303 1716 
Q 1303 1156 1525 889 
Q 1747 622 2066 622 
Q 2372 622 2575 867 
Q 2778 1113 2778 1672 
Q 2778 2194 2568 2447 
Q 2359 2700 2050 2700 
Q 1728 2700 1515 2451 
Q 1303 2203 1303 1716 
z
" transform="scale(0.015625)"/>
      <path id="Arial-BoldMT-6f" d="M 256 1706 
Q 256 2144 472 2553 
Q 688 2963 1083 3178 
Q 1478 3394 1966 3394 
Q 2719 3394 3200 2905 
Q 3681 2416 3681 1669 
Q 3681 916 3195 420 
Q 2709 -75 1972 -75 
Q 1516 -75 1102 131 
Q 688 338 472 736 
Q 256 1134 256 1706 
z
M 1156 1659 
Q 1156 1166 1390 903 
Q 1625 641 1969 641 
Q 2313 641 2545 903 
Q 2778 1166 2778 1666 
Q 2778 2153 2545 2415 
Q 2313 2678 1969 2678 
Q 1625 2678 1390 2415 
Q 1156 2153 1156 1659 
z
" transform="scale(0.015625)"/>
      <path id="Arial-BoldMT-72" d="M 1300 0 
L 422 0 
L 422 3319 
L 1238 3319 
L 1238 2847 
Q 1447 3181 1614 3287 
Q 1781 3394 1994 3394 
Q 2294 3394 2572 3228 
L 2300 2463 
Q 2078 2606 1888 2606 
Q 1703 2606 1575 2504 
Q 1447 2403 1373 2137 
Q 1300 1872 1300 1025 
L 1300 0 
z
" transform="scale(0.015625)"/>
      <path id="Arial-BoldMT-6c" d="M 459 0 
L 459 4581 
L 1338 4581 
L 1338 0 
L 459 0 
z
" transform="scale(0.015625)"/>
     </defs>
     <use xlink:href="#Arial-BoldMT-4c"/>
     <use xlink:href="#Arial-BoldMT-32" x="61.083984"/>
     <use xlink:href="#Arial-BoldMT-5f" x="116.699219"/>
     <use xlink:href="#Arial-BoldMT-73" x="172.314453"/>
     <use xlink:href="#Arial-BoldMT-61" x="227.929688"/>
     <use xlink:href="#Arial-BoldMT-63" x="283.544922"/>
     <use xlink:href="#Arial-BoldMT-74" x="339.160156"/>
     <use xlink:href="#Arial-BoldMT-65" x="372.460938"/>
     <use xlink:href="#Arial-BoldMT-6d" x="428.076172"/>
     <use xlink:href="#Arial-BoldMT-70" x="516.992188"/>
     <use xlink:href="#Arial-BoldMT-6f" x="578.076172"/>
     <use xlink:href="#Arial-BoldMT-72" x="639.160156"/>
     <use xlink:href="#Arial-BoldMT-61" x="678.076172"/>
     <use xlink:href="#Arial-BoldMT-6c" x="733.691406"/>
    </g>
   </g>
  </g>
 </g>
 <defs>
  <clipPath id="p1f34514ec8">
   <rect x="72" y="51.84" width="446.4" height="332.64"/>
  </clipPath>
 </defs>
</svg>
