<?xml version="1.0" encoding="utf-8" standalone="no"?>
<!DOCTYPE svg PUBLIC "-//W3C//DTD SVG 1.1//EN"
  "http://www.w3.org/Graphics/SVG/1.1/DTD/svg11.dtd">
<svg xmlns:xlink="http://www.w3.org/1999/xlink" width="576pt" height="432pt" viewBox="0 0 576 432" xmlns="http://www.w3.org/2000/svg" version="1.1">
 <metadata>
  <rdf:RDF xmlns:dc="http://purl.org/dc/elements/1.1/" xmlns:cc="http://creativecommons.org/ns#" xmlns:rdf="http://www.w3.org/1999/02/22-rdf-syntax-ns#">
   <cc:Work>
    <dc:type rdf:resource="http://purl.org/dc/dcmitype/StillImage"/>
    <dc:date>2025-11-18T16:02:20.458861</dc:date>
    <dc:format>image/svg+xml</dc:format>
    <dc:creator>
     <cc:Agent>
      <dc:title>Matplotlib v3.9.4, https://matplotlib.org/</dc:title>
     </cc:Agent>
    </dc:creator>
   </cc:Work>
  </rdf:RDF>
 </metadata>
 <defs>
  <style type="text/css">*{stroke-linejoin: round; stroke-linecap: butt}</style>
 </defs>
 <g id="figure_1">
  <g id="patch_1">
   <path d="M 0 432 
L 576 432 
L 576 0 
L 0 0 
z
" style="fill: #ffffff"/>
  </g>
  <g id="axes_1">
   <g id="patch_2">
    <path d="M 72 378 
L 518.4 378 
L 518.4 51.84 
L 72 51.84 
L 72 378 
z
" style="fill: none"/>
   </g>
   <g id="PolyCollection_1">
    <defs>
     <path id="mab3585c1af" d="M 92.290909 -95.273184 
L 92.290909 -85.697736 
L 97.009725 -93.452253 
L 101.728541 -93.574696 
L 106.447357 -94.305825 
L 111.166173 -92.450217 
L 115.884989 -93.022882 
L 120.603805 -91.943614 
L 125.322622 -94.196645 
L 130.041438 -93.170485 
L 134.760254 -91.224034 
L 139.47907 -102.533424 
L 144.197886 -99.883022 
L 148.916702 -103.115975 
L 153.635518 -109.535622 
L 158.354334 -116.07007 
L 163.07315 -120.782681 
L 167.791966 -127.388093 
L 172.510782 -130.594061 
L 177.229598 -137.878814 
L 181.948414 -149.390233 
L 186.66723 -163.029257 
L 191.386047 -173.75716 
L 196.104863 -180.311746 
L 200.823679 -186.62854 
L 205.542495 -188.460088 
L 210.261311 -191.800027 
L 214.980127 -201.084445 
L 219.698943 -210.428428 
L 224.417759 -210.868809 
L 229.136575 -215.567324 
L 233.855391 -216.153171 
L 238.574207 -218.023798 
L 243.293023 -217.556497 
L 248.011839 -221.606343 
L 252.730655 -223.330083 
L 257.449471 -224.97353 
L 262.168288 -228.115709 
L 266.887104 -223.433588 
L 271.60592 -220.090294 
L 276.324736 -222.741288 
L 281.043552 -222.849875 
L 285.762368 -227.113756 
L 290.481184 -235.596234 
L 295.2 -246.128542 
L 299.918816 -255.81781 
L 304.637632 -255.29837 
L 309.356448 -259.831575 
L 314.075264 -261.17413 
L 318.79408 -260.505188 
L 323.512896 -262.990258 
L 328.231712 -265.801162 
L 332.950529 -267.895754 
L 337.669345 -266.148636 
L 342.388161 -272.122784 
L 347.106977 -279.628364 
L 351.825793 -289.206328 
L 356.544609 -292.422347 
L 361.263425 -292.933066 
L 365.982241 -288.062852 
L 370.701057 -272.97426 
L 375.419873 -240.906105 
L 380.138689 -287.290719 
L 384.857505 -287.299882 
L 389.576321 -267.095234 
L 394.295137 -237.965566 
L 399.013953 -224.913571 
L 403.73277 -234.49417 
L 408.451586 -240.687733 
L 413.170402 -247.299506 
L 417.889218 -253.164259 
L 422.608034 -251.037619 
L 427.32685 -246.520007 
L 432.045666 -246.111566 
L 436.764482 -245.844379 
L 441.483298 -250.956417 
L 446.202114 -250.959593 
L 450.92093 -250.493137 
L 455.639746 -246.32335 
L 460.358562 -244.701295 
L 465.077378 -247.054773 
L 469.796195 -248.006374 
L 474.515011 -247.550032 
L 479.233827 -245.2885 
L 483.952643 -245.324507 
L 488.671459 -245.737057 
L 493.390275 -241.796811 
L 498.109091 -242.147214 
L 498.109091 -320.226803 
L 498.109091 -320.226803 
L 493.390275 -320.271574 
L 488.671459 -323.369106 
L 483.952643 -322.575361 
L 479.233827 -321.899984 
L 474.515011 -324.674247 
L 469.796195 -326.529377 
L 465.077378 -324.83431 
L 460.358562 -323.352219 
L 455.639746 -323.029643 
L 450.92093 -324.958483 
L 446.202114 -325.581757 
L 441.483298 -328.814138 
L 436.764482 -323.757297 
L 432.045666 -322.062945 
L 427.32685 -318.955309 
L 422.608034 -322.699742 
L 417.889218 -326.789165 
L 413.170402 -322.452823 
L 408.451586 -313.181125 
L 403.73277 -302.15026 
L 399.013953 -290.304551 
L 394.295137 -314.108495 
L 389.576321 -350.128898 
L 384.857505 -365.334545 
L 380.138689 -344.594136 
L 375.419873 -284.818826 
L 370.701057 -320.932028 
L 365.982241 -337.811604 
L 361.263425 -341.693554 
L 356.544609 -339.962197 
L 351.825793 -336.322784 
L 347.106977 -325.872822 
L 342.388161 -316.641301 
L 337.669345 -308.757779 
L 332.950529 -311.020807 
L 328.231712 -304.59233 
L 323.512896 -297.764216 
L 318.79408 -293.942536 
L 314.075264 -292.507293 
L 309.356448 -290.254884 
L 304.637632 -283.667724 
L 299.918816 -283.322156 
L 295.2 -272.663641 
L 290.481184 -263.322799 
L 285.762368 -254.882469 
L 281.043552 -251.168483 
L 276.324736 -251.802455 
L 271.60592 -249.388879 
L 266.887104 -251.444301 
L 262.168288 -253.317379 
L 257.449471 -250.589272 
L 252.730655 -247.315822 
L 248.011839 -244.317721 
L 243.293023 -242.008093 
L 238.574207 -243.046473 
L 233.855391 -240.07968 
L 229.136575 -241.082333 
L 224.417759 -235.731193 
L 219.698943 -232.984083 
L 214.980127 -225.459279 
L 210.261311 -214.550556 
L 205.542495 -210.477884 
L 200.823679 -207.843774 
L 196.104863 -199.016415 
L 191.386047 -190.890697 
L 186.66723 -183.280133 
L 181.948414 -172.816868 
L 177.229598 -160.387691 
L 172.510782 -151.053264 
L 167.791966 -145.506465 
L 163.07315 -138.347725 
L 158.354334 -130.050289 
L 153.635518 -121.772675 
L 148.916702 -113.577551 
L 144.197886 -108.99917 
L 139.47907 -110.008419 
L 134.760254 -94.531135 
L 130.041438 -95.311634 
L 125.322622 -95.717128 
L 120.603805 -93.880972 
L 115.884989 -95.528454 
L 111.166173 -94.844893 
L 106.447357 -96.739572 
L 101.728541 -95.731535 
L 97.009725 -95.235183 
L 92.290909 -95.273184 
z
" style="stroke: #eb6ab0; stroke-opacity: 0.2"/>
    </defs>
    <g clip-path="url(#p487df54537)">
     <use xlink:href="#mab3585c1af" x="0" y="432" style="fill: #eb6ab0; fill-opacity: 0.2; stroke: #eb6ab0; stroke-opacity: 0.2"/>
    </g>
   </g>
   <g id="PolyCollection_2">
    <defs>
     <path id="m2de00579db" d="M 92.290909 -94.076656 
L 92.290909 -81.721181 
L 97.009725 -93.19947 
L 101.728541 -93.56812 
L 106.447357 -93.434682 
L 111.166173 -91.437854 
L 115.884989 -92.187254 
L 120.603805 -92.046176 
L 125.322622 -90.840717 
L 130.041438 -93.847144 
L 134.760254 -95.06804 
L 139.47907 -102.918787 
L 144.197886 -103.087345 
L 148.916702 -104.098605 
L 153.635518 -109.535047 
L 158.354334 -114.460036 
L 163.07315 -112.721828 
L 167.791966 -109.795662 
L 172.510782 -108.666317 
L 177.229598 -115.873807 
L 181.948414 -122.734002 
L 186.66723 -130.704833 
L 191.386047 -133.23099 
L 196.104863 -136.40861 
L 200.823679 -143.533861 
L 205.542495 -146.013443 
L 210.261311 -150.851146 
L 214.980127 -152.318291 
L 219.698943 -150.064337 
L 224.417759 -150.537598 
L 229.136575 -152.738013 
L 233.855391 -154.462853 
L 238.574207 -157.913809 
L 243.293023 -161.583366 
L 248.011839 -160.543414 
L 252.730655 -158.70844 
L 257.449471 -157.593126 
L 262.168288 -158.799642 
L 266.887104 -156.434819 
L 271.60592 -155.335688 
L 276.324736 -157.248558 
L 281.043552 -157.518683 
L 285.762368 -161.388496 
L 290.481184 -167.507665 
L 295.2 -178.386524 
L 299.918816 -181.296088 
L 304.637632 -177.154882 
L 309.356448 -179.505371 
L 314.075264 -185.04935 
L 318.79408 -189.597347 
L 323.512896 -197.634615 
L 328.231712 -200.035908 
L 332.950529 -203.044499 
L 337.669345 -206.901768 
L 342.388161 -207.24096 
L 347.106977 -216.99746 
L 351.825793 -222.039922 
L 356.544609 -227.539607 
L 361.263425 -232.516788 
L 365.982241 -225.614994 
L 370.701057 -205.50839 
L 375.419873 -170.555452 
L 380.138689 -173.158868 
L 384.857505 -178.456712 
L 389.576321 -158.076579 
L 394.295137 -139.6094 
L 399.013953 -117.73829 
L 403.73277 -116.093296 
L 408.451586 -117.637323 
L 413.170402 -121.283322 
L 417.889218 -118.84802 
L 422.608034 -111.916701 
L 427.32685 -107.496409 
L 432.045666 -104.514097 
L 436.764482 -109.1103 
L 441.483298 -112.330131 
L 446.202114 -110.303477 
L 450.92093 -102.429943 
L 455.639746 -102.050796 
L 460.358562 -104.03384 
L 465.077378 -101.665776 
L 469.796195 -102.077026 
L 474.515011 -101.20737 
L 479.233827 -100.283792 
L 483.952643 -96.448419 
L 488.671459 -94.715492 
L 493.390275 -97.642486 
L 498.109091 -96.936901 
L 498.109091 -109.049608 
L 498.109091 -109.049608 
L 493.390275 -110.918135 
L 488.671459 -110.189978 
L 483.952643 -111.673101 
L 479.233827 -114.631799 
L 474.515011 -118.173135 
L 469.796195 -122.624501 
L 465.077378 -122.855035 
L 460.358562 -124.842238 
L 455.639746 -123.217346 
L 450.92093 -124.495209 
L 446.202114 -135.241572 
L 441.483298 -139.89867 
L 436.764482 -135.424126 
L 432.045666 -129.311233 
L 427.32685 -132.011617 
L 422.608034 -140.539671 
L 417.889218 -152.434758 
L 413.170402 -153.833398 
L 408.451586 -146.619829 
L 403.73277 -142.33809 
L 399.013953 -149.8789 
L 394.295137 -179.597358 
L 389.576321 -203.504423 
L 384.857505 -224.326617 
L 380.138689 -207.356744 
L 375.419873 -202.652843 
L 370.701057 -243.728774 
L 365.982241 -268.209119 
L 361.263425 -275.787263 
L 356.544609 -267.700468 
L 351.825793 -258.844572 
L 347.106977 -251.394682 
L 342.388161 -240.784726 
L 337.669345 -240.199681 
L 332.950529 -238.402113 
L 328.231712 -235.962612 
L 323.512896 -232.804632 
L 318.79408 -222.600587 
L 314.075264 -215.173132 
L 309.356448 -205.953255 
L 304.637632 -201.160915 
L 299.918816 -204.782134 
L 295.2 -200.090669 
L 290.481184 -188.351868 
L 285.762368 -180.9903 
L 281.043552 -177.994921 
L 276.324736 -178.77104 
L 271.60592 -177.724936 
L 266.887104 -177.477567 
L 262.168288 -183.273396 
L 257.449471 -182.404532 
L 252.730655 -179.440475 
L 248.011839 -181.517155 
L 243.293023 -183.995157 
L 238.574207 -180.254799 
L 233.855391 -176.805259 
L 229.136575 -174.550038 
L 224.417759 -170.308015 
L 219.698943 -171.581609 
L 214.980127 -174.621395 
L 210.261311 -171.774062 
L 205.542495 -168.680399 
L 200.823679 -166.328808 
L 196.104863 -157.366445 
L 191.386047 -152.194914 
L 186.66723 -148.415883 
L 181.948414 -142.069563 
L 177.229598 -131.093492 
L 172.510782 -125.39825 
L 167.791966 -124.40073 
L 163.07315 -128.229363 
L 158.354334 -127.560249 
L 153.635518 -120.258274 
L 148.916702 -114.904315 
L 144.197886 -113.976867 
L 139.47907 -109.949693 
L 134.760254 -97.803744 
L 130.041438 -96.206949 
L 125.322622 -93.948138 
L 120.603805 -93.854126 
L 115.884989 -94.9943 
L 111.166173 -94.085996 
L 106.447357 -96.194043 
L 101.728541 -95.986065 
L 97.009725 -95.421486 
L 92.290909 -94.076656 
z
" style="stroke: #eb6ab0; stroke-opacity: 0.2"/>
    </defs>
    <g clip-path="url(#p487df54537)">
     <use xlink:href="#m2de00579db" x="0" y="432" style="fill: #eb6ab0; fill-opacity: 0.2; stroke: #eb6ab0; stroke-opacity: 0.2"/>
    </g>
   </g>
   <g id="PathCollection_1">
    <defs>
     <path id="mc385d01be9" d="M -2.5 2.5 
L 2.5 2.5 
L 2.5 -2.5 
L -2.5 -2.5 
z
" style="stroke: #eb6ab0"/>
    </defs>
    <g clip-path="url(#p487df54537)">
     <use xlink:href="#mc385d01be9" x="153.635518" y="356.021997" style="fill: #eb6ab0; stroke: #eb6ab0"/>
     <use xlink:href="#mc385d01be9" x="158.354334" y="356.021997" style="fill: #eb6ab0; stroke: #eb6ab0"/>
     <use xlink:href="#mc385d01be9" x="163.07315" y="356.021997" style="fill: #eb6ab0; stroke: #eb6ab0"/>
     <use xlink:href="#mc385d01be9" x="167.791966" y="356.021997" style="fill: #eb6ab0; stroke: #eb6ab0"/>
     <use xlink:href="#mc385d01be9" x="172.510782" y="356.021997" style="fill: #eb6ab0; stroke: #eb6ab0"/>
     <use xlink:href="#mc385d01be9" x="177.229598" y="356.021997" style="fill: #eb6ab0; stroke: #eb6ab0"/>
     <use xlink:href="#mc385d01be9" x="181.948414" y="356.021997" style="fill: #eb6ab0; stroke: #eb6ab0"/>
     <use xlink:href="#mc385d01be9" x="186.66723" y="356.021997" style="fill: #eb6ab0; stroke: #eb6ab0"/>
     <use xlink:href="#mc385d01be9" x="191.386047" y="356.021997" style="fill: #eb6ab0; stroke: #eb6ab0"/>
     <use xlink:href="#mc385d01be9" x="196.104863" y="356.021997" style="fill: #eb6ab0; stroke: #eb6ab0"/>
     <use xlink:href="#mc385d01be9" x="200.823679" y="356.021997" style="fill: #eb6ab0; stroke: #eb6ab0"/>
     <use xlink:href="#mc385d01be9" x="205.542495" y="356.021997" style="fill: #eb6ab0; stroke: #eb6ab0"/>
     <use xlink:href="#mc385d01be9" x="210.261311" y="356.021997" style="fill: #eb6ab0; stroke: #eb6ab0"/>
     <use xlink:href="#mc385d01be9" x="214.980127" y="356.021997" style="fill: #eb6ab0; stroke: #eb6ab0"/>
     <use xlink:href="#mc385d01be9" x="219.698943" y="356.021997" style="fill: #eb6ab0; stroke: #eb6ab0"/>
     <use xlink:href="#mc385d01be9" x="224.417759" y="356.021997" style="fill: #eb6ab0; stroke: #eb6ab0"/>
     <use xlink:href="#mc385d01be9" x="229.136575" y="356.021997" style="fill: #eb6ab0; stroke: #eb6ab0"/>
     <use xlink:href="#mc385d01be9" x="233.855391" y="356.021997" style="fill: #eb6ab0; stroke: #eb6ab0"/>
     <use xlink:href="#mc385d01be9" x="238.574207" y="356.021997" style="fill: #eb6ab0; stroke: #eb6ab0"/>
     <use xlink:href="#mc385d01be9" x="243.293023" y="356.021997" style="fill: #eb6ab0; stroke: #eb6ab0"/>
     <use xlink:href="#mc385d01be9" x="248.011839" y="356.021997" style="fill: #eb6ab0; stroke: #eb6ab0"/>
     <use xlink:href="#mc385d01be9" x="252.730655" y="356.021997" style="fill: #eb6ab0; stroke: #eb6ab0"/>
     <use xlink:href="#mc385d01be9" x="257.449471" y="356.021997" style="fill: #eb6ab0; stroke: #eb6ab0"/>
     <use xlink:href="#mc385d01be9" x="262.168288" y="356.021997" style="fill: #eb6ab0; stroke: #eb6ab0"/>
     <use xlink:href="#mc385d01be9" x="266.887104" y="356.021997" style="fill: #eb6ab0; stroke: #eb6ab0"/>
     <use xlink:href="#mc385d01be9" x="271.60592" y="356.021997" style="fill: #eb6ab0; stroke: #eb6ab0"/>
     <use xlink:href="#mc385d01be9" x="276.324736" y="356.021997" style="fill: #eb6ab0; stroke: #eb6ab0"/>
     <use xlink:href="#mc385d01be9" x="281.043552" y="356.021997" style="fill: #eb6ab0; stroke: #eb6ab0"/>
     <use xlink:href="#mc385d01be9" x="285.762368" y="356.021997" style="fill: #eb6ab0; stroke: #eb6ab0"/>
     <use xlink:href="#mc385d01be9" x="290.481184" y="356.021997" style="fill: #eb6ab0; stroke: #eb6ab0"/>
     <use xlink:href="#mc385d01be9" x="295.2" y="356.021997" style="fill: #eb6ab0; stroke: #eb6ab0"/>
     <use xlink:href="#mc385d01be9" x="299.918816" y="356.021997" style="fill: #eb6ab0; stroke: #eb6ab0"/>
     <use xlink:href="#mc385d01be9" x="304.637632" y="356.021997" style="fill: #eb6ab0; stroke: #eb6ab0"/>
     <use xlink:href="#mc385d01be9" x="309.356448" y="356.021997" style="fill: #eb6ab0; stroke: #eb6ab0"/>
     <use xlink:href="#mc385d01be9" x="314.075264" y="356.021997" style="fill: #eb6ab0; stroke: #eb6ab0"/>
     <use xlink:href="#mc385d01be9" x="318.79408" y="356.021997" style="fill: #eb6ab0; stroke: #eb6ab0"/>
     <use xlink:href="#mc385d01be9" x="323.512896" y="356.021997" style="fill: #eb6ab0; stroke: #eb6ab0"/>
     <use xlink:href="#mc385d01be9" x="328.231712" y="356.021997" style="fill: #eb6ab0; stroke: #eb6ab0"/>
     <use xlink:href="#mc385d01be9" x="332.950529" y="356.021997" style="fill: #eb6ab0; stroke: #eb6ab0"/>
     <use xlink:href="#mc385d01be9" x="337.669345" y="356.021997" style="fill: #eb6ab0; stroke: #eb6ab0"/>
     <use xlink:href="#mc385d01be9" x="342.388161" y="356.021997" style="fill: #eb6ab0; stroke: #eb6ab0"/>
     <use xlink:href="#mc385d01be9" x="347.106977" y="356.021997" style="fill: #eb6ab0; stroke: #eb6ab0"/>
     <use xlink:href="#mc385d01be9" x="351.825793" y="356.021997" style="fill: #eb6ab0; stroke: #eb6ab0"/>
     <use xlink:href="#mc385d01be9" x="356.544609" y="356.021997" style="fill: #eb6ab0; stroke: #eb6ab0"/>
     <use xlink:href="#mc385d01be9" x="361.263425" y="356.021997" style="fill: #eb6ab0; stroke: #eb6ab0"/>
     <use xlink:href="#mc385d01be9" x="365.982241" y="356.021997" style="fill: #eb6ab0; stroke: #eb6ab0"/>
     <use xlink:href="#mc385d01be9" x="370.701057" y="356.021997" style="fill: #eb6ab0; stroke: #eb6ab0"/>
     <use xlink:href="#mc385d01be9" x="375.419873" y="356.021997" style="fill: #eb6ab0; stroke: #eb6ab0"/>
     <use xlink:href="#mc385d01be9" x="380.138689" y="356.021997" style="fill: #eb6ab0; stroke: #eb6ab0"/>
     <use xlink:href="#mc385d01be9" x="384.857505" y="356.021997" style="fill: #eb6ab0; stroke: #eb6ab0"/>
     <use xlink:href="#mc385d01be9" x="389.576321" y="356.021997" style="fill: #eb6ab0; stroke: #eb6ab0"/>
     <use xlink:href="#mc385d01be9" x="394.295137" y="356.021997" style="fill: #eb6ab0; stroke: #eb6ab0"/>
     <use xlink:href="#mc385d01be9" x="399.013953" y="356.021997" style="fill: #eb6ab0; stroke: #eb6ab0"/>
     <use xlink:href="#mc385d01be9" x="403.73277" y="356.021997" style="fill: #eb6ab0; stroke: #eb6ab0"/>
     <use xlink:href="#mc385d01be9" x="408.451586" y="356.021997" style="fill: #eb6ab0; stroke: #eb6ab0"/>
     <use xlink:href="#mc385d01be9" x="413.170402" y="356.021997" style="fill: #eb6ab0; stroke: #eb6ab0"/>
     <use xlink:href="#mc385d01be9" x="417.889218" y="356.021997" style="fill: #eb6ab0; stroke: #eb6ab0"/>
     <use xlink:href="#mc385d01be9" x="422.608034" y="356.021997" style="fill: #eb6ab0; stroke: #eb6ab0"/>
     <use xlink:href="#mc385d01be9" x="427.32685" y="356.021997" style="fill: #eb6ab0; stroke: #eb6ab0"/>
     <use xlink:href="#mc385d01be9" x="432.045666" y="356.021997" style="fill: #eb6ab0; stroke: #eb6ab0"/>
     <use xlink:href="#mc385d01be9" x="436.764482" y="356.021997" style="fill: #eb6ab0; stroke: #eb6ab0"/>
     <use xlink:href="#mc385d01be9" x="441.483298" y="356.021997" style="fill: #eb6ab0; stroke: #eb6ab0"/>
     <use xlink:href="#mc385d01be9" x="446.202114" y="356.021997" style="fill: #eb6ab0; stroke: #eb6ab0"/>
     <use xlink:href="#mc385d01be9" x="450.92093" y="356.021997" style="fill: #eb6ab0; stroke: #eb6ab0"/>
     <use xlink:href="#mc385d01be9" x="455.639746" y="356.021997" style="fill: #eb6ab0; stroke: #eb6ab0"/>
     <use xlink:href="#mc385d01be9" x="460.358562" y="356.021997" style="fill: #eb6ab0; stroke: #eb6ab0"/>
     <use xlink:href="#mc385d01be9" x="465.077378" y="356.021997" style="fill: #eb6ab0; stroke: #eb6ab0"/>
     <use xlink:href="#mc385d01be9" x="469.796195" y="356.021997" style="fill: #eb6ab0; stroke: #eb6ab0"/>
     <use xlink:href="#mc385d01be9" x="474.515011" y="356.021997" style="fill: #eb6ab0; stroke: #eb6ab0"/>
     <use xlink:href="#mc385d01be9" x="479.233827" y="356.021997" style="fill: #eb6ab0; stroke: #eb6ab0"/>
     <use xlink:href="#mc385d01be9" x="483.952643" y="356.021997" style="fill: #eb6ab0; stroke: #eb6ab0"/>
     <use xlink:href="#mc385d01be9" x="488.671459" y="356.021997" style="fill: #eb6ab0; stroke: #eb6ab0"/>
     <use xlink:href="#mc385d01be9" x="493.390275" y="356.021997" style="fill: #eb6ab0; stroke: #eb6ab0"/>
     <use xlink:href="#mc385d01be9" x="498.109091" y="356.021997" style="fill: #eb6ab0; stroke: #eb6ab0"/>
    </g>
   </g>
   <g id="PathCollection_2">
    <defs>
     <path id="m79282de1f8" d="M 0 -2.5 
L -2.5 2.5 
L 2.5 2.5 
z
" style="stroke: #eb6ab0"/>
    </defs>
    <g clip-path="url(#p487df54537)">
     <use xlink:href="#m79282de1f8" x="134.760254" y="363.174545" style="fill: #eb6ab0; stroke: #eb6ab0"/>
     <use xlink:href="#m79282de1f8" x="158.354334" y="363.174545" style="fill: #eb6ab0; stroke: #eb6ab0"/>
     <use xlink:href="#m79282de1f8" x="177.229598" y="363.174545" style="fill: #eb6ab0; stroke: #eb6ab0"/>
     <use xlink:href="#m79282de1f8" x="181.948414" y="363.174545" style="fill: #eb6ab0; stroke: #eb6ab0"/>
     <use xlink:href="#m79282de1f8" x="186.66723" y="363.174545" style="fill: #eb6ab0; stroke: #eb6ab0"/>
     <use xlink:href="#m79282de1f8" x="191.386047" y="363.174545" style="fill: #eb6ab0; stroke: #eb6ab0"/>
     <use xlink:href="#m79282de1f8" x="196.104863" y="363.174545" style="fill: #eb6ab0; stroke: #eb6ab0"/>
     <use xlink:href="#m79282de1f8" x="200.823679" y="363.174545" style="fill: #eb6ab0; stroke: #eb6ab0"/>
     <use xlink:href="#m79282de1f8" x="205.542495" y="363.174545" style="fill: #eb6ab0; stroke: #eb6ab0"/>
     <use xlink:href="#m79282de1f8" x="210.261311" y="363.174545" style="fill: #eb6ab0; stroke: #eb6ab0"/>
     <use xlink:href="#m79282de1f8" x="214.980127" y="363.174545" style="fill: #eb6ab0; stroke: #eb6ab0"/>
     <use xlink:href="#m79282de1f8" x="219.698943" y="363.174545" style="fill: #eb6ab0; stroke: #eb6ab0"/>
     <use xlink:href="#m79282de1f8" x="224.417759" y="363.174545" style="fill: #eb6ab0; stroke: #eb6ab0"/>
     <use xlink:href="#m79282de1f8" x="229.136575" y="363.174545" style="fill: #eb6ab0; stroke: #eb6ab0"/>
     <use xlink:href="#m79282de1f8" x="233.855391" y="363.174545" style="fill: #eb6ab0; stroke: #eb6ab0"/>
     <use xlink:href="#m79282de1f8" x="238.574207" y="363.174545" style="fill: #eb6ab0; stroke: #eb6ab0"/>
     <use xlink:href="#m79282de1f8" x="243.293023" y="363.174545" style="fill: #eb6ab0; stroke: #eb6ab0"/>
     <use xlink:href="#m79282de1f8" x="248.011839" y="363.174545" style="fill: #eb6ab0; stroke: #eb6ab0"/>
     <use xlink:href="#m79282de1f8" x="252.730655" y="363.174545" style="fill: #eb6ab0; stroke: #eb6ab0"/>
     <use xlink:href="#m79282de1f8" x="257.449471" y="363.174545" style="fill: #eb6ab0; stroke: #eb6ab0"/>
     <use xlink:href="#m79282de1f8" x="262.168288" y="363.174545" style="fill: #eb6ab0; stroke: #eb6ab0"/>
     <use xlink:href="#m79282de1f8" x="266.887104" y="363.174545" style="fill: #eb6ab0; stroke: #eb6ab0"/>
     <use xlink:href="#m79282de1f8" x="271.60592" y="363.174545" style="fill: #eb6ab0; stroke: #eb6ab0"/>
     <use xlink:href="#m79282de1f8" x="276.324736" y="363.174545" style="fill: #eb6ab0; stroke: #eb6ab0"/>
     <use xlink:href="#m79282de1f8" x="281.043552" y="363.174545" style="fill: #eb6ab0; stroke: #eb6ab0"/>
     <use xlink:href="#m79282de1f8" x="285.762368" y="363.174545" style="fill: #eb6ab0; stroke: #eb6ab0"/>
     <use xlink:href="#m79282de1f8" x="290.481184" y="363.174545" style="fill: #eb6ab0; stroke: #eb6ab0"/>
     <use xlink:href="#m79282de1f8" x="295.2" y="363.174545" style="fill: #eb6ab0; stroke: #eb6ab0"/>
     <use xlink:href="#m79282de1f8" x="299.918816" y="363.174545" style="fill: #eb6ab0; stroke: #eb6ab0"/>
     <use xlink:href="#m79282de1f8" x="304.637632" y="363.174545" style="fill: #eb6ab0; stroke: #eb6ab0"/>
     <use xlink:href="#m79282de1f8" x="309.356448" y="363.174545" style="fill: #eb6ab0; stroke: #eb6ab0"/>
     <use xlink:href="#m79282de1f8" x="314.075264" y="363.174545" style="fill: #eb6ab0; stroke: #eb6ab0"/>
     <use xlink:href="#m79282de1f8" x="318.79408" y="363.174545" style="fill: #eb6ab0; stroke: #eb6ab0"/>
     <use xlink:href="#m79282de1f8" x="323.512896" y="363.174545" style="fill: #eb6ab0; stroke: #eb6ab0"/>
     <use xlink:href="#m79282de1f8" x="328.231712" y="363.174545" style="fill: #eb6ab0; stroke: #eb6ab0"/>
     <use xlink:href="#m79282de1f8" x="332.950529" y="363.174545" style="fill: #eb6ab0; stroke: #eb6ab0"/>
     <use xlink:href="#m79282de1f8" x="337.669345" y="363.174545" style="fill: #eb6ab0; stroke: #eb6ab0"/>
     <use xlink:href="#m79282de1f8" x="342.388161" y="363.174545" style="fill: #eb6ab0; stroke: #eb6ab0"/>
     <use xlink:href="#m79282de1f8" x="347.106977" y="363.174545" style="fill: #eb6ab0; stroke: #eb6ab0"/>
     <use xlink:href="#m79282de1f8" x="351.825793" y="363.174545" style="fill: #eb6ab0; stroke: #eb6ab0"/>
     <use xlink:href="#m79282de1f8" x="356.544609" y="363.174545" style="fill: #eb6ab0; stroke: #eb6ab0"/>
     <use xlink:href="#m79282de1f8" x="361.263425" y="363.174545" style="fill: #eb6ab0; stroke: #eb6ab0"/>
     <use xlink:href="#m79282de1f8" x="365.982241" y="363.174545" style="fill: #eb6ab0; stroke: #eb6ab0"/>
     <use xlink:href="#m79282de1f8" x="370.701057" y="363.174545" style="fill: #eb6ab0; stroke: #eb6ab0"/>
     <use xlink:href="#m79282de1f8" x="375.419873" y="363.174545" style="fill: #eb6ab0; stroke: #eb6ab0"/>
     <use xlink:href="#m79282de1f8" x="380.138689" y="363.174545" style="fill: #eb6ab0; stroke: #eb6ab0"/>
     <use xlink:href="#m79282de1f8" x="384.857505" y="363.174545" style="fill: #eb6ab0; stroke: #eb6ab0"/>
     <use xlink:href="#m79282de1f8" x="389.576321" y="363.174545" style="fill: #eb6ab0; stroke: #eb6ab0"/>
     <use xlink:href="#m79282de1f8" x="394.295137" y="363.174545" style="fill: #eb6ab0; stroke: #eb6ab0"/>
     <use xlink:href="#m79282de1f8" x="399.013953" y="363.174545" style="fill: #eb6ab0; stroke: #eb6ab0"/>
     <use xlink:href="#m79282de1f8" x="403.73277" y="363.174545" style="fill: #eb6ab0; stroke: #eb6ab0"/>
     <use xlink:href="#m79282de1f8" x="408.451586" y="363.174545" style="fill: #eb6ab0; stroke: #eb6ab0"/>
     <use xlink:href="#m79282de1f8" x="413.170402" y="363.174545" style="fill: #eb6ab0; stroke: #eb6ab0"/>
     <use xlink:href="#m79282de1f8" x="417.889218" y="363.174545" style="fill: #eb6ab0; stroke: #eb6ab0"/>
     <use xlink:href="#m79282de1f8" x="422.608034" y="363.174545" style="fill: #eb6ab0; stroke: #eb6ab0"/>
     <use xlink:href="#m79282de1f8" x="427.32685" y="363.174545" style="fill: #eb6ab0; stroke: #eb6ab0"/>
     <use xlink:href="#m79282de1f8" x="436.764482" y="363.174545" style="fill: #eb6ab0; stroke: #eb6ab0"/>
     <use xlink:href="#m79282de1f8" x="441.483298" y="363.174545" style="fill: #eb6ab0; stroke: #eb6ab0"/>
     <use xlink:href="#m79282de1f8" x="446.202114" y="363.174545" style="fill: #eb6ab0; stroke: #eb6ab0"/>
    </g>
   </g>
   <g id="matplotlib.axis_1">
    <g id="xtick_1">
     <g id="line2d_1">
      <defs>
       <path id="mc030a5db38" d="M 0 0 
L 0 5 
" style="stroke: #000000; stroke-width: 1.5"/>
      </defs>
      <g>
       <use xlink:href="#mc030a5db38" x="80.493869" y="378" style="stroke: #000000; stroke-width: 1.5"/>
      </g>
     </g>
     <g id="text_1">
      <!-- −250 -->
      <g transform="translate(59.893478 397.897656) scale(0.15 -0.15)">
       <defs>
        <path id="DejaVuSans-2212" d="M 678 2272 
L 4684 2272 
L 4684 1741 
L 678 1741 
L 678 2272 
z
" transform="scale(0.015625)"/>
        <path id="DejaVuSans-32" d="M 1228 531 
L 3431 531 
L 3431 0 
L 469 0 
L 469 531 
Q 828 903 1448 1529 
Q 2069 2156 2228 2338 
Q 2531 2678 2651 2914 
Q 2772 3150 2772 3378 
Q 2772 3750 2511 3984 
Q 2250 4219 1831 4219 
Q 1534 4219 1204 4116 
Q 875 4013 500 3803 
L 500 4441 
Q 881 4594 1212 4672 
Q 1544 4750 1819 4750 
Q 2544 4750 2975 4387 
Q 3406 4025 3406 3419 
Q 3406 3131 3298 2873 
Q 3191 2616 2906 2266 
Q 2828 2175 2409 1742 
Q 1991 1309 1228 531 
z
" transform="scale(0.015625)"/>
        <path id="DejaVuSans-35" d="M 691 4666 
L 3169 4666 
L 3169 4134 
L 1269 4134 
L 1269 2991 
Q 1406 3038 1543 3061 
Q 1681 3084 1819 3084 
Q 2600 3084 3056 2656 
Q 3513 2228 3513 1497 
Q 3513 744 3044 326 
Q 2575 -91 1722 -91 
Q 1428 -91 1123 -41 
Q 819 9 494 109 
L 494 744 
Q 775 591 1075 516 
Q 1375 441 1709 441 
Q 2250 441 2565 725 
Q 2881 1009 2881 1497 
Q 2881 1984 2565 2268 
Q 2250 2553 1709 2553 
Q 1456 2553 1204 2497 
Q 953 2441 691 2322 
L 691 4666 
z
" transform="scale(0.015625)"/>
        <path id="DejaVuSans-30" d="M 2034 4250 
Q 1547 4250 1301 3770 
Q 1056 3291 1056 2328 
Q 1056 1369 1301 889 
Q 1547 409 2034 409 
Q 2525 409 2770 889 
Q 3016 1369 3016 2328 
Q 3016 3291 2770 3770 
Q 2525 4250 2034 4250 
z
M 2034 4750 
Q 2819 4750 3233 4129 
Q 3647 3509 3647 2328 
Q 3647 1150 3233 529 
Q 2819 -91 2034 -91 
Q 1250 -91 836 529 
Q 422 1150 422 2328 
Q 422 3509 836 4129 
Q 1250 4750 2034 4750 
z
" transform="scale(0.015625)"/>
       </defs>
       <use xlink:href="#DejaVuSans-2212"/>
       <use xlink:href="#DejaVuSans-32" x="83.789062"/>
       <use xlink:href="#DejaVuSans-35" x="147.412109"/>
       <use xlink:href="#DejaVuSans-30" x="211.035156"/>
      </g>
     </g>
    </g>
    <g id="xtick_2">
     <g id="line2d_2">
      <g>
       <use xlink:href="#mc030a5db38" x="139.47907" y="378" style="stroke: #000000; stroke-width: 1.5"/>
      </g>
     </g>
     <g id="text_2">
      <!-- 0 -->
      <g transform="translate(134.707195 397.897656) scale(0.15 -0.15)">
       <use xlink:href="#DejaVuSans-30"/>
      </g>
     </g>
    </g>
    <g id="xtick_3">
     <g id="line2d_3">
      <g>
       <use xlink:href="#mc030a5db38" x="198.464271" y="378" style="stroke: #000000; stroke-width: 1.5"/>
      </g>
     </g>
     <g id="text_3">
      <!-- 250 -->
      <g transform="translate(184.148646 397.897656) scale(0.15 -0.15)">
       <use xlink:href="#DejaVuSans-32"/>
       <use xlink:href="#DejaVuSans-35" x="63.623047"/>
       <use xlink:href="#DejaVuSans-30" x="127.246094"/>
      </g>
     </g>
    </g>
    <g id="xtick_4">
     <g id="line2d_4">
      <g>
       <use xlink:href="#mc030a5db38" x="257.449471" y="378" style="stroke: #000000; stroke-width: 1.5"/>
      </g>
     </g>
     <g id="text_4">
      <!-- 500 -->
      <g transform="translate(243.133846 397.897656) scale(0.15 -0.15)">
       <use xlink:href="#DejaVuSans-35"/>
       <use xlink:href="#DejaVuSans-30" x="63.623047"/>
       <use xlink:href="#DejaVuSans-30" x="127.246094"/>
      </g>
     </g>
    </g>
    <g id="xtick_5">
     <g id="line2d_5">
      <g>
       <use xlink:href="#mc030a5db38" x="316.434672" y="378" style="stroke: #000000; stroke-width: 1.5"/>
      </g>
     </g>
     <g id="text_5">
      <!-- 750 -->
      <g transform="translate(302.119047 397.897656) scale(0.15 -0.15)">
       <defs>
        <path id="DejaVuSans-37" d="M 525 4666 
L 3525 4666 
L 3525 4397 
L 1831 0 
L 1172 0 
L 2766 4134 
L 525 4134 
L 525 4666 
z
" transform="scale(0.015625)"/>
       </defs>
       <use xlink:href="#DejaVuSans-37"/>
       <use xlink:href="#DejaVuSans-35" x="63.623047"/>
       <use xlink:href="#DejaVuSans-30" x="127.246094"/>
      </g>
     </g>
    </g>
    <g id="xtick_6">
     <g id="line2d_6">
      <g>
       <use xlink:href="#mc030a5db38" x="375.419873" y="378" style="stroke: #000000; stroke-width: 1.5"/>
      </g>
     </g>
     <g id="text_6">
      <!-- 1000 -->
      <g transform="translate(356.332373 397.897656) scale(0.15 -0.15)">
       <defs>
        <path id="DejaVuSans-31" d="M 794 531 
L 1825 531 
L 1825 4091 
L 703 3866 
L 703 4441 
L 1819 4666 
L 2450 4666 
L 2450 531 
L 3481 531 
L 3481 0 
L 794 0 
L 794 531 
z
" transform="scale(0.015625)"/>
       </defs>
       <use xlink:href="#DejaVuSans-31"/>
       <use xlink:href="#DejaVuSans-30" x="63.623047"/>
       <use xlink:href="#DejaVuSans-30" x="127.246094"/>
       <use xlink:href="#DejaVuSans-30" x="190.869141"/>
      </g>
     </g>
    </g>
    <g id="xtick_7">
     <g id="line2d_7">
      <g>
       <use xlink:href="#mc030a5db38" x="434.405074" y="378" style="stroke: #000000; stroke-width: 1.5"/>
      </g>
     </g>
     <g id="text_7">
      <!-- 1250 -->
      <g transform="translate(415.317574 397.897656) scale(0.15 -0.15)">
       <use xlink:href="#DejaVuSans-31"/>
       <use xlink:href="#DejaVuSans-32" x="63.623047"/>
       <use xlink:href="#DejaVuSans-35" x="127.246094"/>
       <use xlink:href="#DejaVuSans-30" x="190.869141"/>
      </g>
     </g>
    </g>
    <g id="xtick_8">
     <g id="line2d_8">
      <g>
       <use xlink:href="#mc030a5db38" x="493.390275" y="378" style="stroke: #000000; stroke-width: 1.5"/>
      </g>
     </g>
     <g id="text_8">
      <!-- 1500 -->
      <g transform="translate(474.302775 397.897656) scale(0.15 -0.15)">
       <use xlink:href="#DejaVuSans-31"/>
       <use xlink:href="#DejaVuSans-35" x="63.623047"/>
       <use xlink:href="#DejaVuSans-30" x="127.246094"/>
       <use xlink:href="#DejaVuSans-30" x="190.869141"/>
      </g>
     </g>
    </g>
    <g id="text_9">
     <!-- time -->
     <g transform="translate(278.255859 416.414844) scale(0.15 -0.15)">
      <defs>
       <path id="DejaVuSans-74" d="M 1172 4494 
L 1172 3500 
L 2356 3500 
L 2356 3053 
L 1172 3053 
L 1172 1153 
Q 1172 725 1289 603 
Q 1406 481 1766 481 
L 2356 481 
L 2356 0 
L 1766 0 
Q 1100 0 847 248 
Q 594 497 594 1153 
L 594 3053 
L 172 3053 
L 172 3500 
L 594 3500 
L 594 4494 
L 1172 4494 
z
" transform="scale(0.015625)"/>
       <path id="DejaVuSans-69" d="M 603 3500 
L 1178 3500 
L 1178 0 
L 603 0 
L 603 3500 
z
M 603 4863 
L 1178 4863 
L 1178 4134 
L 603 4134 
L 603 4863 
z
" transform="scale(0.015625)"/>
       <path id="DejaVuSans-6d" d="M 3328 2828 
Q 3544 3216 3844 3400 
Q 4144 3584 4550 3584 
Q 5097 3584 5394 3201 
Q 5691 2819 5691 2113 
L 5691 0 
L 5113 0 
L 5113 2094 
Q 5113 2597 4934 2840 
Q 4756 3084 4391 3084 
Q 3944 3084 3684 2787 
Q 3425 2491 3425 1978 
L 3425 0 
L 2847 0 
L 2847 2094 
Q 2847 2600 2669 2842 
Q 2491 3084 2119 3084 
Q 1678 3084 1418 2786 
Q 1159 2488 1159 1978 
L 1159 0 
L 581 0 
L 581 3500 
L 1159 3500 
L 1159 2956 
Q 1356 3278 1631 3431 
Q 1906 3584 2284 3584 
Q 2666 3584 2933 3390 
Q 3200 3197 3328 2828 
z
" transform="scale(0.015625)"/>
       <path id="DejaVuSans-65" d="M 3597 1894 
L 3597 1613 
L 953 1613 
Q 991 1019 1311 708 
Q 1631 397 2203 397 
Q 2534 397 2845 478 
Q 3156 559 3463 722 
L 3463 178 
Q 3153 47 2828 -22 
Q 2503 -91 2169 -91 
Q 1331 -91 842 396 
Q 353 884 353 1716 
Q 353 2575 817 3079 
Q 1281 3584 2069 3584 
Q 2775 3584 3186 3129 
Q 3597 2675 3597 1894 
z
M 3022 2063 
Q 3016 2534 2758 2815 
Q 2500 3097 2075 3097 
Q 1594 3097 1305 2825 
Q 1016 2553 972 2059 
L 3022 2063 
z
" transform="scale(0.015625)"/>
      </defs>
      <use xlink:href="#DejaVuSans-74"/>
      <use xlink:href="#DejaVuSans-69" x="39.208984"/>
      <use xlink:href="#DejaVuSans-6d" x="66.992188"/>
      <use xlink:href="#DejaVuSans-65" x="164.404297"/>
     </g>
    </g>
   </g>
   <g id="matplotlib.axis_2">
    <g id="ytick_1">
     <g id="line2d_9">
      <defs>
       <path id="m6c2eb0a424" d="M 0 0 
L -5 0 
" style="stroke: #000000; stroke-width: 1.5"/>
      </defs>
      <g>
       <use xlink:href="#m6c2eb0a424" x="72" y="338.578024" style="stroke: #000000; stroke-width: 1.5"/>
      </g>
     </g>
     <g id="text_10">
      <!-- 0.00 -->
      <g transform="translate(30.101562 344.276852) scale(0.15 -0.15)">
       <defs>
        <path id="DejaVuSans-2e" d="M 684 794 
L 1344 794 
L 1344 0 
L 684 0 
L 684 794 
z
" transform="scale(0.015625)"/>
       </defs>
       <use xlink:href="#DejaVuSans-30"/>
       <use xlink:href="#DejaVuSans-2e" x="63.623047"/>
       <use xlink:href="#DejaVuSans-30" x="95.410156"/>
       <use xlink:href="#DejaVuSans-30" x="159.033203"/>
      </g>
     </g>
    </g>
    <g id="ytick_2">
     <g id="line2d_10">
      <g>
       <use xlink:href="#m6c2eb0a424" x="72" y="290.469108" style="stroke: #000000; stroke-width: 1.5"/>
      </g>
     </g>
     <g id="text_11">
      <!-- 0.05 -->
      <g transform="translate(30.101562 296.167936) scale(0.15 -0.15)">
       <use xlink:href="#DejaVuSans-30"/>
       <use xlink:href="#DejaVuSans-2e" x="63.623047"/>
       <use xlink:href="#DejaVuSans-30" x="95.410156"/>
       <use xlink:href="#DejaVuSans-35" x="159.033203"/>
      </g>
     </g>
    </g>
    <g id="ytick_3">
     <g id="line2d_11">
      <g>
       <use xlink:href="#m6c2eb0a424" x="72" y="242.360191" style="stroke: #000000; stroke-width: 1.5"/>
      </g>
     </g>
     <g id="text_12">
      <!-- 0.10 -->
      <g transform="translate(30.101562 248.059019) scale(0.15 -0.15)">
       <use xlink:href="#DejaVuSans-30"/>
       <use xlink:href="#DejaVuSans-2e" x="63.623047"/>
       <use xlink:href="#DejaVuSans-31" x="95.410156"/>
       <use xlink:href="#DejaVuSans-30" x="159.033203"/>
      </g>
     </g>
    </g>
    <g id="ytick_4">
     <g id="line2d_12">
      <g>
       <use xlink:href="#m6c2eb0a424" x="72" y="194.251275" style="stroke: #000000; stroke-width: 1.5"/>
      </g>
     </g>
     <g id="text_13">
      <!-- 0.15 -->
      <g transform="translate(30.101562 199.950103) scale(0.15 -0.15)">
       <use xlink:href="#DejaVuSans-30"/>
       <use xlink:href="#DejaVuSans-2e" x="63.623047"/>
       <use xlink:href="#DejaVuSans-31" x="95.410156"/>
       <use xlink:href="#DejaVuSans-35" x="159.033203"/>
      </g>
     </g>
    </g>
    <g id="ytick_5">
     <g id="line2d_13">
      <g>
       <use xlink:href="#m6c2eb0a424" x="72" y="146.142358" style="stroke: #000000; stroke-width: 1.5"/>
      </g>
     </g>
     <g id="text_14">
      <!-- 0.20 -->
      <g transform="translate(30.101562 151.841186) scale(0.15 -0.15)">
       <use xlink:href="#DejaVuSans-30"/>
       <use xlink:href="#DejaVuSans-2e" x="63.623047"/>
       <use xlink:href="#DejaVuSans-32" x="95.410156"/>
       <use xlink:href="#DejaVuSans-30" x="159.033203"/>
      </g>
     </g>
    </g>
    <g id="ytick_6">
     <g id="line2d_14">
      <g>
       <use xlink:href="#m6c2eb0a424" x="72" y="98.033441" style="stroke: #000000; stroke-width: 1.5"/>
      </g>
     </g>
     <g id="text_15">
      <!-- 0.25 -->
      <g transform="translate(30.101562 103.73227) scale(0.15 -0.15)">
       <use xlink:href="#DejaVuSans-30"/>
       <use xlink:href="#DejaVuSans-2e" x="63.623047"/>
       <use xlink:href="#DejaVuSans-32" x="95.410156"/>
       <use xlink:href="#DejaVuSans-35" x="159.033203"/>
      </g>
     </g>
    </g>
    <g id="text_16">
     <!-- firing rate -->
     <g transform="translate(22.982031 251.943047) rotate(-90) scale(0.15 -0.15)">
      <defs>
       <path id="DejaVuSans-66" d="M 2375 4863 
L 2375 4384 
L 1825 4384 
Q 1516 4384 1395 4259 
Q 1275 4134 1275 3809 
L 1275 3500 
L 2222 3500 
L 2222 3053 
L 1275 3053 
L 1275 0 
L 697 0 
L 697 3053 
L 147 3053 
L 147 3500 
L 697 3500 
L 697 3744 
Q 697 4328 969 4595 
Q 1241 4863 1831 4863 
L 2375 4863 
z
" transform="scale(0.015625)"/>
       <path id="DejaVuSans-72" d="M 2631 2963 
Q 2534 3019 2420 3045 
Q 2306 3072 2169 3072 
Q 1681 3072 1420 2755 
Q 1159 2438 1159 1844 
L 1159 0 
L 581 0 
L 581 3500 
L 1159 3500 
L 1159 2956 
Q 1341 3275 1631 3429 
Q 1922 3584 2338 3584 
Q 2397 3584 2469 3576 
Q 2541 3569 2628 3553 
L 2631 2963 
z
" transform="scale(0.015625)"/>
       <path id="DejaVuSans-6e" d="M 3513 2113 
L 3513 0 
L 2938 0 
L 2938 2094 
Q 2938 2591 2744 2837 
Q 2550 3084 2163 3084 
Q 1697 3084 1428 2787 
Q 1159 2491 1159 1978 
L 1159 0 
L 581 0 
L 581 3500 
L 1159 3500 
L 1159 2956 
Q 1366 3272 1645 3428 
Q 1925 3584 2291 3584 
Q 2894 3584 3203 3211 
Q 3513 2838 3513 2113 
z
" transform="scale(0.015625)"/>
       <path id="DejaVuSans-67" d="M 2906 1791 
Q 2906 2416 2648 2759 
Q 2391 3103 1925 3103 
Q 1463 3103 1205 2759 
Q 947 2416 947 1791 
Q 947 1169 1205 825 
Q 1463 481 1925 481 
Q 2391 481 2648 825 
Q 2906 1169 2906 1791 
z
M 3481 434 
Q 3481 -459 3084 -895 
Q 2688 -1331 1869 -1331 
Q 1566 -1331 1297 -1286 
Q 1028 -1241 775 -1147 
L 775 -588 
Q 1028 -725 1275 -790 
Q 1522 -856 1778 -856 
Q 2344 -856 2625 -561 
Q 2906 -266 2906 331 
L 2906 616 
Q 2728 306 2450 153 
Q 2172 0 1784 0 
Q 1141 0 747 490 
Q 353 981 353 1791 
Q 353 2603 747 3093 
Q 1141 3584 1784 3584 
Q 2172 3584 2450 3431 
Q 2728 3278 2906 2969 
L 2906 3500 
L 3481 3500 
L 3481 434 
z
" transform="scale(0.015625)"/>
       <path id="DejaVuSans-20" transform="scale(0.015625)"/>
       <path id="DejaVuSans-61" d="M 2194 1759 
Q 1497 1759 1228 1600 
Q 959 1441 959 1056 
Q 959 750 1161 570 
Q 1363 391 1709 391 
Q 2188 391 2477 730 
Q 2766 1069 2766 1631 
L 2766 1759 
L 2194 1759 
z
M 3341 1997 
L 3341 0 
L 2766 0 
L 2766 531 
Q 2569 213 2275 61 
Q 1981 -91 1556 -91 
Q 1019 -91 701 211 
Q 384 513 384 1019 
Q 384 1609 779 1909 
Q 1175 2209 1959 2209 
L 2766 2209 
L 2766 2266 
Q 2766 2663 2505 2880 
Q 2244 3097 1772 3097 
Q 1472 3097 1187 3025 
Q 903 2953 641 2809 
L 641 3341 
Q 956 3463 1253 3523 
Q 1550 3584 1831 3584 
Q 2591 3584 2966 3190 
Q 3341 2797 3341 1997 
z
" transform="scale(0.015625)"/>
      </defs>
      <use xlink:href="#DejaVuSans-66"/>
      <use xlink:href="#DejaVuSans-69" x="35.205078"/>
      <use xlink:href="#DejaVuSans-72" x="62.988281"/>
      <use xlink:href="#DejaVuSans-69" x="104.101562"/>
      <use xlink:href="#DejaVuSans-6e" x="131.884766"/>
      <use xlink:href="#DejaVuSans-67" x="195.263672"/>
      <use xlink:href="#DejaVuSans-20" x="258.740234"/>
      <use xlink:href="#DejaVuSans-72" x="290.527344"/>
      <use xlink:href="#DejaVuSans-61" x="331.640625"/>
      <use xlink:href="#DejaVuSans-74" x="392.919922"/>
      <use xlink:href="#DejaVuSans-65" x="432.128906"/>
     </g>
    </g>
   </g>
   <g id="line2d_15">
    <path d="M 92.290909 341.51454 
L 97.009725 337.656282 
L 101.728541 337.346884 
L 106.447357 336.477302 
L 111.166173 338.352445 
L 115.884989 337.724332 
L 120.603805 339.087707 
L 125.322622 337.043114 
L 130.041438 337.75894 
L 134.760254 339.122416 
L 139.47907 325.729079 
L 144.197886 327.558904 
L 148.916702 323.653237 
L 153.635518 316.345852 
L 158.354334 308.939821 
L 163.07315 302.434797 
L 167.791966 295.552721 
L 172.510782 291.176338 
L 177.229598 282.866747 
L 181.948414 270.89645 
L 186.66723 258.845305 
L 191.386047 249.676072 
L 196.104863 242.33592 
L 200.823679 234.763843 
L 205.542495 232.531014 
L 210.261311 228.824709 
L 214.980127 218.728138 
L 219.698943 210.293745 
L 224.417759 208.699999 
L 229.136575 203.675171 
L 233.855391 203.883575 
L 238.574207 201.464864 
L 243.293023 202.217705 
L 248.011839 199.037968 
L 252.730655 196.677048 
L 257.449471 194.218599 
L 262.168288 191.283456 
L 266.887104 194.561056 
L 271.60592 197.260413 
L 276.324736 194.728129 
L 281.043552 194.990821 
L 285.762368 191.001887 
L 290.481184 182.540484 
L 295.2 172.603909 
L 299.918816 162.430017 
L 304.637632 162.516953 
L 309.356448 156.95677 
L 314.075264 155.159288 
L 318.79408 154.776138 
L 323.512896 151.622763 
L 328.231712 146.803254 
L 332.950529 142.54172 
L 337.669345 144.546793 
L 342.388161 137.617958 
L 347.106977 129.249407 
L 351.825793 119.235444 
L 356.544609 115.807728 
L 361.263425 114.68669 
L 365.982241 119.062772 
L 370.701057 135.046856 
L 375.419873 169.137535 
L 380.138689 116.057572 
L 384.857505 105.682786 
L 389.576321 123.387934 
L 394.295137 155.962969 
L 399.013953 174.390939 
L 403.73277 163.677785 
L 408.451586 155.065571 
L 413.170402 147.123835 
L 417.889218 142.023288 
L 422.608034 145.131319 
L 427.32685 149.262342 
L 432.045666 147.912744 
L 436.764482 147.199162 
L 441.483298 142.114722 
L 446.202114 143.729325 
L 450.92093 144.27419 
L 455.639746 147.323504 
L 460.358562 147.973243 
L 465.077378 146.055459 
L 469.796195 144.732124 
L 474.515011 145.88786 
L 479.233827 148.405758 
L 483.952643 148.050066 
L 488.671459 147.446919 
L 493.390275 150.965807 
L 498.109091 150.812992 
" clip-path="url(#p487df54537)" style="fill: none; stroke: #eb6ab0; stroke-width: 2; stroke-linecap: square"/>
   </g>
   <g id="line2d_16">
    <path d="M 92.290909 339.98443 
L 97.009725 338.444952 
L 101.728541 338.516355 
L 106.447357 338.546634 
L 111.166173 338.415837 
L 115.884989 338.133496 
L 120.603805 338.498547 
L 125.322622 338.504976 
L 130.041438 338.357119 
L 134.760254 338.151125 
L 139.47907 328.802053 
L 144.197886 328.771359 
L 148.916702 329.927227 
L 153.635518 329.892704 
L 158.354334 328.834515 
L 163.07315 328.137248 
L 167.791966 328.912484 
L 172.510782 328.680767 
L 177.229598 327.597023 
L 181.948414 326.445296 
L 186.66723 326.137388 
L 191.386047 326.149155 
L 196.104863 326.531863 
L 200.823679 327.434048 
L 205.542495 328.244614 
L 210.261311 328.322847 
L 214.980127 327.266361 
L 219.698943 326.500508 
L 224.417759 326.926333 
L 229.136575 326.841659 
L 233.855391 327.884116 
L 238.574207 327.910276 
L 243.293023 327.81828 
L 248.011839 328.06604 
L 252.730655 327.50142 
L 257.449471 327.389424 
L 262.168288 327.33911 
L 266.887104 327.377961 
L 271.60592 327.097718 
L 276.324736 326.566409 
L 281.043552 326.409042 
L 285.762368 326.219407 
L 290.481184 326.522321 
L 295.2 326.873572 
L 299.918816 326.679795 
L 304.637632 327.006247 
L 309.356448 327.767422 
L 314.075264 327.529071 
L 318.79408 326.765582 
L 323.512896 326.270283 
L 328.231712 325.867334 
L 332.950529 326.17399 
L 337.669345 325.986974 
L 342.388161 325.309647 
L 347.106977 325.068038 
L 351.825793 325.135869 
L 356.544609 325.857866 
L 361.263425 326.562648 
L 365.982241 327.321409 
L 370.701057 329.652981 
L 375.419873 335.596081 
L 380.138689 335.968196 
L 384.857505 336.41541 
L 389.576321 336.816579 
L 394.295137 336.960539 
L 399.013953 336.870025 
L 403.73277 336.971629 
L 408.451586 336.514062 
L 413.170402 336.658302 
L 417.889218 336.314827 
L 422.608034 336.499401 
L 427.32685 336.816952 
L 432.045666 336.52443 
L 436.764482 336.645718 
L 441.483298 336.949118 
L 446.202114 336.657298 
L 450.92093 336.702249 
L 455.639746 336.569578 
L 460.358562 336.580527 
L 465.077378 336.508976 
L 469.796195 336.539863 
L 474.515011 336.774223 
L 479.233827 336.83927 
L 483.952643 336.72337 
L 488.671459 336.551742 
L 493.390275 336.767116 
L 498.109091 336.764919 
" clip-path="url(#p487df54537)" style="fill: none; stroke-dasharray: 5.55,2.4; stroke-dashoffset: 0; stroke: #eb6ab0; stroke-opacity: 0.8; stroke-width: 1.5"/>
   </g>
   <g id="line2d_17">
    <path d="M 92.290909 344.101082 
L 97.009725 337.689522 
L 101.728541 337.222907 
L 106.447357 337.185637 
L 111.166173 339.238075 
L 115.884989 338.409223 
L 120.603805 339.049849 
L 125.322622 339.605572 
L 130.041438 336.972954 
L 134.760254 335.564108 
L 139.47907 325.56576 
L 144.197886 323.467894 
L 148.916702 322.49854 
L 153.635518 317.10334 
L 158.354334 310.989858 
L 163.07315 311.524404 
L 167.791966 314.901804 
L 172.510782 314.967717 
L 177.229598 308.516351 
L 181.948414 299.598217 
L 186.66723 292.439642 
L 191.386047 289.287048 
L 196.104863 285.112472 
L 200.823679 277.068666 
L 205.542495 274.653079 
L 210.261311 270.687396 
L 214.980127 268.530157 
L 219.698943 271.177027 
L 224.417759 271.577194 
L 229.136575 268.355975 
L 233.855391 266.365944 
L 238.574207 262.915696 
L 243.293023 259.210739 
L 248.011839 260.969716 
L 252.730655 262.925543 
L 257.449471 262.001171 
L 262.168288 260.963481 
L 266.887104 265.043807 
L 271.60592 265.469688 
L 276.324736 263.990201 
L 281.043552 264.243198 
L 285.762368 260.810602 
L 290.481184 254.070234 
L 295.2 242.761403 
L 299.918816 238.960889 
L 304.637632 242.842101 
L 309.356448 239.270687 
L 314.075264 231.888759 
L 318.79408 225.901033 
L 323.512896 216.780377 
L 328.231712 214.00074 
L 332.950529 211.276694 
L 337.669345 208.449276 
L 342.388161 207.987157 
L 347.106977 197.803929 
L 351.825793 191.557753 
L 356.544609 184.379963 
L 361.263425 177.847974 
L 365.982241 185.087943 
L 370.701057 207.381418 
L 375.419873 245.395853 
L 380.138689 241.742194 
L 384.857505 230.608336 
L 389.576321 251.209499 
L 394.295137 272.396621 
L 399.013953 298.191405 
L 403.73277 302.784307 
L 408.451586 299.871424 
L 413.170402 294.44164 
L 417.889218 296.358611 
L 422.608034 305.771814 
L 427.32685 312.245987 
L 432.045666 315.087335 
L 436.764482 309.732787 
L 441.483298 305.8856 
L 446.202114 309.227476 
L 450.92093 318.537424 
L 455.639746 319.365929 
L 460.358562 317.561961 
L 465.077378 319.739594 
L 469.796195 319.649236 
L 474.515011 322.309747 
L 479.233827 324.542205 
L 483.952643 327.93924 
L 488.671459 329.547265 
L 493.390275 327.719689 
L 498.109091 329.006745 
" clip-path="url(#p487df54537)" style="fill: none; stroke: #eb6ab0; stroke-width: 4; stroke-linecap: square"/>
   </g>
   <g id="line2d_18">
    <path d="M 92.290909 344.101082 
L 97.009725 337.689522 
L 101.728541 337.222907 
L 106.447357 337.185637 
L 111.166173 339.238075 
L 115.884989 338.409223 
L 120.603805 339.049849 
L 125.322622 339.605572 
L 130.041438 336.972954 
L 134.760254 335.564108 
L 139.47907 325.56576 
L 144.197886 323.467894 
L 148.916702 322.49854 
L 153.635518 317.10334 
L 158.354334 310.989858 
L 163.07315 311.524404 
L 167.791966 314.901804 
L 172.510782 314.967717 
L 177.229598 308.516351 
L 181.948414 299.598217 
L 186.66723 292.439642 
L 191.386047 289.287048 
L 196.104863 285.112472 
L 200.823679 277.068666 
L 205.542495 274.653079 
L 210.261311 270.687396 
L 214.980127 268.530157 
L 219.698943 271.177027 
L 224.417759 271.577194 
L 229.136575 268.355975 
L 233.855391 266.365944 
L 238.574207 262.915696 
L 243.293023 259.210739 
L 248.011839 260.969716 
L 252.730655 262.925543 
L 257.449471 262.001171 
L 262.168288 260.963481 
L 266.887104 265.043807 
L 271.60592 265.469688 
L 276.324736 263.990201 
L 281.043552 264.243198 
L 285.762368 260.810602 
L 290.481184 254.070234 
L 295.2 242.761403 
L 299.918816 238.960889 
L 304.637632 242.842101 
L 309.356448 239.270687 
L 314.075264 231.888759 
L 318.79408 225.901033 
L 323.512896 216.780377 
L 328.231712 214.00074 
L 332.950529 211.276694 
L 337.669345 208.449276 
L 342.388161 207.987157 
L 347.106977 197.803929 
L 351.825793 191.557753 
L 356.544609 184.379963 
L 361.263425 177.847974 
L 365.982241 185.087943 
L 370.701057 207.381418 
L 375.419873 245.395853 
L 380.138689 241.742194 
L 384.857505 230.608336 
L 389.576321 251.209499 
L 394.295137 272.396621 
L 399.013953 298.191405 
L 403.73277 302.784307 
L 408.451586 299.871424 
L 413.170402 294.44164 
L 417.889218 296.358611 
L 422.608034 305.771814 
L 427.32685 312.245987 
L 432.045666 315.087335 
L 436.764482 309.732787 
L 441.483298 305.8856 
L 446.202114 309.227476 
L 450.92093 318.537424 
L 455.639746 319.365929 
L 460.358562 317.561961 
L 465.077378 319.739594 
L 469.796195 319.649236 
L 474.515011 322.309747 
L 479.233827 324.542205 
L 483.952643 327.93924 
L 488.671459 329.547265 
L 493.390275 327.719689 
L 498.109091 329.006745 
" clip-path="url(#p487df54537)" style="fill: none; stroke: #ffffff; stroke-width: 1.5; stroke-linecap: square"/>
   </g>
   <g id="line2d_19">
    <path d="M 92.290909 338.823408 
L 97.009725 338.498188 
L 101.728541 338.607204 
L 106.447357 338.854883 
L 111.166173 338.639136 
L 115.884989 338.597444 
L 120.603805 338.634749 
L 125.322622 338.485144 
L 130.041438 338.50388 
L 134.760254 338.663004 
L 139.47907 323.848321 
L 144.197886 325.579081 
L 148.916702 328.096236 
L 153.635518 328.219899 
L 158.354334 327.058651 
L 163.07315 326.40019 
L 167.791966 327.146896 
L 172.510782 327.576979 
L 177.229598 326.741196 
L 181.948414 326.604284 
L 186.66723 326.652358 
L 191.386047 326.672456 
L 196.104863 327.194248 
L 200.823679 327.54519 
L 205.542495 328.026039 
L 210.261311 327.752647 
L 214.980127 327.796422 
L 219.698943 328.309875 
L 224.417759 328.593166 
L 229.136575 328.660982 
L 233.855391 328.455238 
L 238.574207 328.306842 
L 243.293023 328.415028 
L 248.011839 328.362548 
L 252.730655 328.358313 
L 257.449471 328.226309 
L 262.168288 328.693937 
L 266.887104 328.649746 
L 271.60592 329.134795 
L 276.324736 329.917515 
L 281.043552 329.990851 
L 285.762368 329.759998 
L 290.481184 329.705159 
L 295.2 329.528603 
L 299.918816 328.81345 
L 304.637632 327.814213 
L 309.356448 327.810268 
L 314.075264 328.326878 
L 318.79408 328.351677 
L 323.512896 327.772455 
L 328.231712 327.058513 
L 332.950529 326.37194 
L 337.669345 326.738043 
L 342.388161 326.397316 
L 347.106977 325.775231 
L 351.825793 325.941911 
L 356.544609 326.663773 
L 361.263425 326.819743 
L 365.982241 327.809697 
L 370.701057 330.806991 
L 375.419873 336.454478 
L 380.138689 337.034072 
L 384.857505 337.771532 
L 389.576321 338.658549 
L 394.295137 339.380067 
L 399.013953 338.916199 
L 403.73277 338.904379 
L 408.451586 338.455999 
L 413.170402 338.646936 
L 417.889218 338.858944 
L 422.608034 338.619405 
L 427.32685 338.635486 
L 432.045666 338.498633 
L 436.764482 338.48333 
L 441.483298 338.548742 
L 446.202114 338.5113 
L 450.92093 338.100885 
L 455.639746 338.435962 
L 460.358562 338.527594 
L 465.077378 338.613321 
L 469.796195 338.686337 
L 474.515011 338.763196 
L 479.233827 338.685957 
L 483.952643 338.55754 
L 488.671459 338.39595 
L 493.390275 338.573115 
L 498.109091 338.420644 
" clip-path="url(#p487df54537)" style="fill: none; stroke-dasharray: 5.55,2.4; stroke-dashoffset: 0; stroke: #eb6ab0; stroke-opacity: 0.8; stroke-width: 1.5"/>
   </g>
   <g id="line2d_20">
    <path d="M 139.47907 378 
L 139.47907 51.84 
" clip-path="url(#p487df54537)" style="fill: none; stroke-dasharray: 5.55,2.4; stroke-dashoffset: 0; stroke: #808080; stroke-opacity: 0.7; stroke-width: 1.5"/>
   </g>
   <g id="line2d_21">
    <path d="M 375.419873 378 
L 375.419873 51.84 
" clip-path="url(#p487df54537)" style="fill: none; stroke-dasharray: 5.55,2.4; stroke-dashoffset: 0; stroke: #808080; stroke-opacity: 0.7; stroke-width: 1.5"/>
   </g>
   <g id="patch_3">
    <path d="M 72 378 
L 72 51.84 
" style="fill: none; stroke: #000000; stroke-width: 1.5; stroke-linejoin: miter; stroke-linecap: square"/>
   </g>
   <g id="patch_4">
    <path d="M 72 378 
L 518.4 378 
" style="fill: none; stroke: #000000; stroke-width: 1.5; stroke-linejoin: miter; stroke-linecap: square"/>
   </g>
   <g id="text_17">
    <!-- L1_sactemporal -->
    <g transform="translate(229.142578 45.84) scale(0.15 -0.15)">
     <defs>
      <path id="DejaVuSans-Bold-4c" d="M 588 4666 
L 1791 4666 
L 1791 909 
L 3903 909 
L 3903 0 
L 588 0 
L 588 4666 
z
" transform="scale(0.015625)"/>
      <path id="DejaVuSans-Bold-31" d="M 750 831 
L 1813 831 
L 1813 3847 
L 722 3622 
L 722 4441 
L 1806 4666 
L 2950 4666 
L 2950 831 
L 4013 831 
L 4013 0 
L 750 0 
L 750 831 
z
" transform="scale(0.015625)"/>
      <path id="DejaVuSans-Bold-5f" d="M 3200 -916 
L 3200 -1509 
L 0 -1509 
L 0 -916 
L 3200 -916 
z
" transform="scale(0.015625)"/>
      <path id="DejaVuSans-Bold-73" d="M 3272 3391 
L 3272 2541 
Q 2913 2691 2578 2766 
Q 2244 2841 1947 2841 
Q 1628 2841 1473 2761 
Q 1319 2681 1319 2516 
Q 1319 2381 1436 2309 
Q 1553 2238 1856 2203 
L 2053 2175 
Q 2913 2066 3209 1816 
Q 3506 1566 3506 1031 
Q 3506 472 3093 190 
Q 2681 -91 1863 -91 
Q 1516 -91 1145 -36 
Q 775 19 384 128 
L 384 978 
Q 719 816 1070 734 
Q 1422 653 1784 653 
Q 2113 653 2278 743 
Q 2444 834 2444 1013 
Q 2444 1163 2330 1236 
Q 2216 1309 1875 1350 
L 1678 1375 
Q 931 1469 631 1722 
Q 331 1975 331 2491 
Q 331 3047 712 3315 
Q 1094 3584 1881 3584 
Q 2191 3584 2531 3537 
Q 2872 3491 3272 3391 
z
" transform="scale(0.015625)"/>
      <path id="DejaVuSans-Bold-61" d="M 2106 1575 
Q 1756 1575 1579 1456 
Q 1403 1338 1403 1106 
Q 1403 894 1545 773 
Q 1688 653 1941 653 
Q 2256 653 2472 879 
Q 2688 1106 2688 1447 
L 2688 1575 
L 2106 1575 
z
M 3816 1997 
L 3816 0 
L 2688 0 
L 2688 519 
Q 2463 200 2181 54 
Q 1900 -91 1497 -91 
Q 953 -91 614 226 
Q 275 544 275 1050 
Q 275 1666 698 1953 
Q 1122 2241 2028 2241 
L 2688 2241 
L 2688 2328 
Q 2688 2594 2478 2717 
Q 2269 2841 1825 2841 
Q 1466 2841 1156 2769 
Q 847 2697 581 2553 
L 581 3406 
Q 941 3494 1303 3539 
Q 1666 3584 2028 3584 
Q 2975 3584 3395 3211 
Q 3816 2838 3816 1997 
z
" transform="scale(0.015625)"/>
      <path id="DejaVuSans-Bold-63" d="M 3366 3391 
L 3366 2478 
Q 3138 2634 2908 2709 
Q 2678 2784 2431 2784 
Q 1963 2784 1702 2511 
Q 1441 2238 1441 1747 
Q 1441 1256 1702 982 
Q 1963 709 2431 709 
Q 2694 709 2930 787 
Q 3166 866 3366 1019 
L 3366 103 
Q 3103 6 2833 -42 
Q 2563 -91 2291 -91 
Q 1344 -91 809 395 
Q 275 881 275 1747 
Q 275 2613 809 3098 
Q 1344 3584 2291 3584 
Q 2566 3584 2833 3536 
Q 3100 3488 3366 3391 
z
" transform="scale(0.015625)"/>
      <path id="DejaVuSans-Bold-74" d="M 1759 4494 
L 1759 3500 
L 2913 3500 
L 2913 2700 
L 1759 2700 
L 1759 1216 
Q 1759 972 1856 886 
Q 1953 800 2241 800 
L 2816 800 
L 2816 0 
L 1856 0 
Q 1194 0 917 276 
Q 641 553 641 1216 
L 641 2700 
L 84 2700 
L 84 3500 
L 641 3500 
L 641 4494 
L 1759 4494 
z
" transform="scale(0.015625)"/>
      <path id="DejaVuSans-Bold-65" d="M 4031 1759 
L 4031 1441 
L 1416 1441 
Q 1456 1047 1700 850 
Q 1944 653 2381 653 
Q 2734 653 3104 758 
Q 3475 863 3866 1075 
L 3866 213 
Q 3469 63 3072 -14 
Q 2675 -91 2278 -91 
Q 1328 -91 801 392 
Q 275 875 275 1747 
Q 275 2603 792 3093 
Q 1309 3584 2216 3584 
Q 3041 3584 3536 3087 
Q 4031 2591 4031 1759 
z
M 2881 2131 
Q 2881 2450 2695 2645 
Q 2509 2841 2209 2841 
Q 1884 2841 1681 2658 
Q 1478 2475 1428 2131 
L 2881 2131 
z
" transform="scale(0.015625)"/>
      <path id="DejaVuSans-Bold-6d" d="M 3781 2919 
Q 3994 3244 4286 3414 
Q 4578 3584 4928 3584 
Q 5531 3584 5847 3212 
Q 6163 2841 6163 2131 
L 6163 0 
L 5038 0 
L 5038 1825 
Q 5041 1866 5042 1909 
Q 5044 1953 5044 2034 
Q 5044 2406 4934 2573 
Q 4825 2741 4581 2741 
Q 4263 2741 4089 2478 
Q 3916 2216 3909 1719 
L 3909 0 
L 2784 0 
L 2784 1825 
Q 2784 2406 2684 2573 
Q 2584 2741 2328 2741 
Q 2006 2741 1831 2477 
Q 1656 2213 1656 1722 
L 1656 0 
L 531 0 
L 531 3500 
L 1656 3500 
L 1656 2988 
Q 1863 3284 2130 3434 
Q 2397 3584 2719 3584 
Q 3081 3584 3359 3409 
Q 3638 3234 3781 2919 
z
" transform="scale(0.015625)"/>
      <path id="DejaVuSans-Bold-70" d="M 1656 506 
L 1656 -1331 
L 538 -1331 
L 538 3500 
L 1656 3500 
L 1656 2988 
Q 1888 3294 2169 3439 
Q 2450 3584 2816 3584 
Q 3463 3584 3878 3070 
Q 4294 2556 4294 1747 
Q 4294 938 3878 423 
Q 3463 -91 2816 -91 
Q 2450 -91 2169 54 
Q 1888 200 1656 506 
z
M 2400 2772 
Q 2041 2772 1848 2508 
Q 1656 2244 1656 1747 
Q 1656 1250 1848 986 
Q 2041 722 2400 722 
Q 2759 722 2948 984 
Q 3138 1247 3138 1747 
Q 3138 2247 2948 2509 
Q 2759 2772 2400 2772 
z
" transform="scale(0.015625)"/>
      <path id="DejaVuSans-Bold-6f" d="M 2203 2784 
Q 1831 2784 1636 2517 
Q 1441 2250 1441 1747 
Q 1441 1244 1636 976 
Q 1831 709 2203 709 
Q 2569 709 2762 976 
Q 2956 1244 2956 1747 
Q 2956 2250 2762 2517 
Q 2569 2784 2203 2784 
z
M 2203 3584 
Q 3106 3584 3614 3096 
Q 4122 2609 4122 1747 
Q 4122 884 3614 396 
Q 3106 -91 2203 -91 
Q 1297 -91 786 396 
Q 275 884 275 1747 
Q 275 2609 786 3096 
Q 1297 3584 2203 3584 
z
" transform="scale(0.015625)"/>
      <path id="DejaVuSans-Bold-72" d="M 3138 2547 
Q 2991 2616 2845 2648 
Q 2700 2681 2553 2681 
Q 2122 2681 1889 2404 
Q 1656 2128 1656 1613 
L 1656 0 
L 538 0 
L 538 3500 
L 1656 3500 
L 1656 2925 
Q 1872 3269 2151 3426 
Q 2431 3584 2822 3584 
Q 2878 3584 2943 3579 
Q 3009 3575 3134 3559 
L 3138 2547 
z
" transform="scale(0.015625)"/>
      <path id="DejaVuSans-Bold-6c" d="M 538 4863 
L 1656 4863 
L 1656 0 
L 538 0 
L 538 4863 
z
" transform="scale(0.015625)"/>
     </defs>
     <use xlink:href="#DejaVuSans-Bold-4c"/>
     <use xlink:href="#DejaVuSans-Bold-31" x="63.720703"/>
     <use xlink:href="#DejaVuSans-Bold-5f" x="133.300781"/>
     <use xlink:href="#DejaVuSans-Bold-73" x="183.300781"/>
     <use xlink:href="#DejaVuSans-Bold-61" x="242.822266"/>
     <use xlink:href="#DejaVuSans-Bold-63" x="310.302734"/>
     <use xlink:href="#DejaVuSans-Bold-74" x="369.580078"/>
     <use xlink:href="#DejaVuSans-Bold-65" x="417.382812"/>
     <use xlink:href="#DejaVuSans-Bold-6d" x="485.205078"/>
     <use xlink:href="#DejaVuSans-Bold-70" x="589.404297"/>
     <use xlink:href="#DejaVuSans-Bold-6f" x="660.986328"/>
     <use xlink:href="#DejaVuSans-Bold-72" x="729.6875"/>
     <use xlink:href="#DejaVuSans-Bold-61" x="779.003906"/>
     <use xlink:href="#DejaVuSans-Bold-6c" x="846.484375"/>
    </g>
   </g>
  </g>
 </g>
 <defs>
  <clipPath id="p487df54537">
   <rect x="72" y="51.84" width="446.4" height="326.16"/>
  </clipPath>
 </defs>
</svg>
