<?xml version="1.0" encoding="utf-8" standalone="no"?>
<!DOCTYPE svg PUBLIC "-//W3C//DTD SVG 1.1//EN"
  "http://www.w3.org/Graphics/SVG/1.1/DTD/svg11.dtd">
<svg xmlns:xlink="http://www.w3.org/1999/xlink" width="576pt" height="432pt" viewBox="0 0 576 432" xmlns="http://www.w3.org/2000/svg" version="1.1">
 <metadata>
  <rdf:RDF xmlns:dc="http://purl.org/dc/elements/1.1/" xmlns:cc="http://creativecommons.org/ns#" xmlns:rdf="http://www.w3.org/1999/02/22-rdf-syntax-ns#">
   <cc:Work>
    <dc:type rdf:resource="http://purl.org/dc/dcmitype/StillImage"/>
    <dc:date>2025-11-05T12:43:54.755017</dc:date>
    <dc:format>image/svg+xml</dc:format>
    <dc:creator>
     <cc:Agent>
      <dc:title>Matplotlib v3.9.4, https://matplotlib.org/</dc:title>
     </cc:Agent>
    </dc:creator>
   </cc:Work>
  </rdf:RDF>
 </metadata>
 <defs>
  <style type="text/css">*{stroke-linejoin: round; stroke-linecap: butt}</style>
 </defs>
 <g id="figure_1">
  <g id="patch_1">
   <path d="M 0 432 
L 576 432 
L 576 0 
L 0 0 
z
" style="fill: #ffffff"/>
  </g>
  <g id="axes_1">
   <g id="patch_2">
    <path d="M 72 378 
L 518.4 378 
L 518.4 51.84 
L 72 51.84 
L 72 378 
z
" style="fill: none"/>
   </g>
   <g id="matplotlib.axis_1">
    <g id="xtick_1">
     <g id="line2d_1">
      <defs>
       <path id="mb3b5a3e954" d="M 0 0 
L 0 5 
" style="stroke: #262626; stroke-width: 1.5"/>
      </defs>
      <g>
       <use xlink:href="#mb3b5a3e954" x="80.493869" y="378" style="fill: #262626; stroke: #262626; stroke-width: 1.5"/>
      </g>
     </g>
     <g id="text_1">
      <!-- −250 -->
      <g style="fill: #262626" transform="translate(63.601291 397.236719) scale(0.15 -0.15)">
       <defs>
        <path id="ArialMT-2212" d="M 3381 1997 
L 356 1997 
L 356 2522 
L 3381 2522 
L 3381 1997 
z
" transform="scale(0.015625)"/>
        <path id="ArialMT-32" d="M 3222 541 
L 3222 0 
L 194 0 
Q 188 203 259 391 
Q 375 700 629 1000 
Q 884 1300 1366 1694 
Q 2113 2306 2375 2664 
Q 2638 3022 2638 3341 
Q 2638 3675 2398 3904 
Q 2159 4134 1775 4134 
Q 1369 4134 1125 3890 
Q 881 3647 878 3216 
L 300 3275 
Q 359 3922 746 4261 
Q 1134 4600 1788 4600 
Q 2447 4600 2831 4234 
Q 3216 3869 3216 3328 
Q 3216 3053 3103 2787 
Q 2991 2522 2730 2228 
Q 2469 1934 1863 1422 
Q 1356 997 1212 845 
Q 1069 694 975 541 
L 3222 541 
z
" transform="scale(0.015625)"/>
        <path id="ArialMT-35" d="M 266 1200 
L 856 1250 
Q 922 819 1161 601 
Q 1400 384 1738 384 
Q 2144 384 2425 690 
Q 2706 997 2706 1503 
Q 2706 1984 2436 2262 
Q 2166 2541 1728 2541 
Q 1456 2541 1237 2417 
Q 1019 2294 894 2097 
L 366 2166 
L 809 4519 
L 3088 4519 
L 3088 3981 
L 1259 3981 
L 1013 2750 
Q 1425 3038 1878 3038 
Q 2478 3038 2890 2622 
Q 3303 2206 3303 1553 
Q 3303 931 2941 478 
Q 2500 -78 1738 -78 
Q 1113 -78 717 272 
Q 322 622 266 1200 
z
" transform="scale(0.015625)"/>
        <path id="ArialMT-30" d="M 266 2259 
Q 266 3072 433 3567 
Q 600 4063 929 4331 
Q 1259 4600 1759 4600 
Q 2128 4600 2406 4451 
Q 2684 4303 2865 4023 
Q 3047 3744 3150 3342 
Q 3253 2941 3253 2259 
Q 3253 1453 3087 958 
Q 2922 463 2592 192 
Q 2263 -78 1759 -78 
Q 1097 -78 719 397 
Q 266 969 266 2259 
z
M 844 2259 
Q 844 1131 1108 757 
Q 1372 384 1759 384 
Q 2147 384 2411 759 
Q 2675 1134 2675 2259 
Q 2675 3391 2411 3762 
Q 2147 4134 1753 4134 
Q 1366 4134 1134 3806 
Q 844 3388 844 2259 
z
" transform="scale(0.015625)"/>
       </defs>
       <use xlink:href="#ArialMT-2212"/>
       <use xlink:href="#ArialMT-32" x="58.398438"/>
       <use xlink:href="#ArialMT-35" x="114.013672"/>
       <use xlink:href="#ArialMT-30" x="169.628906"/>
      </g>
     </g>
    </g>
    <g id="xtick_2">
     <g id="line2d_2">
      <g>
       <use xlink:href="#mb3b5a3e954" x="139.47907" y="378" style="fill: #262626; stroke: #262626; stroke-width: 1.5"/>
      </g>
     </g>
     <g id="text_2">
      <!-- 0 -->
      <g style="fill: #262626" transform="translate(135.308367 397.236719) scale(0.15 -0.15)">
       <use xlink:href="#ArialMT-30"/>
      </g>
     </g>
    </g>
    <g id="xtick_3">
     <g id="line2d_3">
      <g>
       <use xlink:href="#mb3b5a3e954" x="198.464271" y="378" style="fill: #262626; stroke: #262626; stroke-width: 1.5"/>
      </g>
     </g>
     <g id="text_3">
      <!-- 250 -->
      <g style="fill: #262626" transform="translate(185.952161 397.236719) scale(0.15 -0.15)">
       <use xlink:href="#ArialMT-32"/>
       <use xlink:href="#ArialMT-35" x="55.615234"/>
       <use xlink:href="#ArialMT-30" x="111.230469"/>
      </g>
     </g>
    </g>
    <g id="xtick_4">
     <g id="line2d_4">
      <g>
       <use xlink:href="#mb3b5a3e954" x="257.449471" y="378" style="fill: #262626; stroke: #262626; stroke-width: 1.5"/>
      </g>
     </g>
     <g id="text_4">
      <!-- 500 -->
      <g style="fill: #262626" transform="translate(244.937362 397.236719) scale(0.15 -0.15)">
       <use xlink:href="#ArialMT-35"/>
       <use xlink:href="#ArialMT-30" x="55.615234"/>
       <use xlink:href="#ArialMT-30" x="111.230469"/>
      </g>
     </g>
    </g>
    <g id="xtick_5">
     <g id="line2d_5">
      <g>
       <use xlink:href="#mb3b5a3e954" x="316.434672" y="378" style="fill: #262626; stroke: #262626; stroke-width: 1.5"/>
      </g>
     </g>
     <g id="text_5">
      <!-- 750 -->
      <g style="fill: #262626" transform="translate(303.922563 397.236719) scale(0.15 -0.15)">
       <defs>
        <path id="ArialMT-37" d="M 303 3981 
L 303 4522 
L 3269 4522 
L 3269 4084 
Q 2831 3619 2401 2847 
Q 1972 2075 1738 1259 
Q 1569 684 1522 0 
L 944 0 
Q 953 541 1156 1306 
Q 1359 2072 1739 2783 
Q 2119 3494 2547 3981 
L 303 3981 
z
" transform="scale(0.015625)"/>
       </defs>
       <use xlink:href="#ArialMT-37"/>
       <use xlink:href="#ArialMT-35" x="55.615234"/>
       <use xlink:href="#ArialMT-30" x="111.230469"/>
      </g>
     </g>
    </g>
    <g id="xtick_6">
     <g id="line2d_6">
      <g>
       <use xlink:href="#mb3b5a3e954" x="375.419873" y="378" style="fill: #262626; stroke: #262626; stroke-width: 1.5"/>
      </g>
     </g>
     <g id="text_6">
      <!-- 1000 -->
      <g style="fill: #262626" transform="translate(358.737061 397.236719) scale(0.15 -0.15)">
       <defs>
        <path id="ArialMT-31" d="M 2384 0 
L 1822 0 
L 1822 3584 
Q 1619 3391 1289 3197 
Q 959 3003 697 2906 
L 697 3450 
Q 1169 3672 1522 3987 
Q 1875 4303 2022 4600 
L 2384 4600 
L 2384 0 
z
" transform="scale(0.015625)"/>
       </defs>
       <use xlink:href="#ArialMT-31"/>
       <use xlink:href="#ArialMT-30" x="55.615234"/>
       <use xlink:href="#ArialMT-30" x="111.230469"/>
       <use xlink:href="#ArialMT-30" x="166.845703"/>
      </g>
     </g>
    </g>
    <g id="xtick_7">
     <g id="line2d_7">
      <g>
       <use xlink:href="#mb3b5a3e954" x="434.405074" y="378" style="fill: #262626; stroke: #262626; stroke-width: 1.5"/>
      </g>
     </g>
     <g id="text_7">
      <!-- 1250 -->
      <g style="fill: #262626" transform="translate(417.722261 397.236719) scale(0.15 -0.15)">
       <use xlink:href="#ArialMT-31"/>
       <use xlink:href="#ArialMT-32" x="55.615234"/>
       <use xlink:href="#ArialMT-35" x="111.230469"/>
       <use xlink:href="#ArialMT-30" x="166.845703"/>
      </g>
     </g>
    </g>
    <g id="xtick_8">
     <g id="line2d_8">
      <g>
       <use xlink:href="#mb3b5a3e954" x="493.390275" y="378" style="fill: #262626; stroke: #262626; stroke-width: 1.5"/>
      </g>
     </g>
     <g id="text_8">
      <!-- 1500 -->
      <g style="fill: #262626" transform="translate(476.707462 397.236719) scale(0.15 -0.15)">
       <use xlink:href="#ArialMT-31"/>
       <use xlink:href="#ArialMT-35" x="55.615234"/>
       <use xlink:href="#ArialMT-30" x="111.230469"/>
       <use xlink:href="#ArialMT-30" x="166.845703"/>
      </g>
     </g>
    </g>
    <g id="text_9">
     <!-- time -->
     <g style="fill: #262626" transform="translate(281.032031 414.954687) scale(0.15 -0.15)">
      <defs>
       <path id="ArialMT-74" d="M 1650 503 
L 1731 6 
Q 1494 -44 1306 -44 
Q 1000 -44 831 53 
Q 663 150 594 308 
Q 525 466 525 972 
L 525 2881 
L 113 2881 
L 113 3319 
L 525 3319 
L 525 4141 
L 1084 4478 
L 1084 3319 
L 1650 3319 
L 1650 2881 
L 1084 2881 
L 1084 941 
Q 1084 700 1114 631 
Q 1144 563 1211 522 
Q 1278 481 1403 481 
Q 1497 481 1650 503 
z
" transform="scale(0.015625)"/>
       <path id="ArialMT-69" d="M 425 3934 
L 425 4581 
L 988 4581 
L 988 3934 
L 425 3934 
z
M 425 0 
L 425 3319 
L 988 3319 
L 988 0 
L 425 0 
z
" transform="scale(0.015625)"/>
       <path id="ArialMT-6d" d="M 422 0 
L 422 3319 
L 925 3319 
L 925 2853 
Q 1081 3097 1340 3245 
Q 1600 3394 1931 3394 
Q 2300 3394 2536 3241 
Q 2772 3088 2869 2813 
Q 3263 3394 3894 3394 
Q 4388 3394 4653 3120 
Q 4919 2847 4919 2278 
L 4919 0 
L 4359 0 
L 4359 2091 
Q 4359 2428 4304 2576 
Q 4250 2725 4106 2815 
Q 3963 2906 3769 2906 
Q 3419 2906 3187 2673 
Q 2956 2441 2956 1928 
L 2956 0 
L 2394 0 
L 2394 2156 
Q 2394 2531 2256 2718 
Q 2119 2906 1806 2906 
Q 1569 2906 1367 2781 
Q 1166 2656 1075 2415 
Q 984 2175 984 1722 
L 984 0 
L 422 0 
z
" transform="scale(0.015625)"/>
       <path id="ArialMT-65" d="M 2694 1069 
L 3275 997 
Q 3138 488 2766 206 
Q 2394 -75 1816 -75 
Q 1088 -75 661 373 
Q 234 822 234 1631 
Q 234 2469 665 2931 
Q 1097 3394 1784 3394 
Q 2450 3394 2872 2941 
Q 3294 2488 3294 1666 
Q 3294 1616 3291 1516 
L 816 1516 
Q 847 969 1125 678 
Q 1403 388 1819 388 
Q 2128 388 2347 550 
Q 2566 713 2694 1069 
z
M 847 1978 
L 2700 1978 
Q 2663 2397 2488 2606 
Q 2219 2931 1791 2931 
Q 1403 2931 1139 2672 
Q 875 2413 847 1978 
z
" transform="scale(0.015625)"/>
      </defs>
      <use xlink:href="#ArialMT-74"/>
      <use xlink:href="#ArialMT-69" x="27.783203"/>
      <use xlink:href="#ArialMT-6d" x="50"/>
      <use xlink:href="#ArialMT-65" x="133.300781"/>
     </g>
    </g>
   </g>
   <g id="matplotlib.axis_2">
    <g id="ytick_1">
     <g id="line2d_9">
      <defs>
       <path id="m1b984f85e2" d="M 0 0 
L -5 0 
" style="stroke: #262626; stroke-width: 1.5"/>
      </defs>
      <g>
       <use xlink:href="#m1b984f85e2" x="72" y="335.254344" style="fill: #262626; stroke: #262626; stroke-width: 1.5"/>
      </g>
     </g>
     <g id="text_10">
      <!-- 0.00 -->
      <g style="fill: #262626" transform="translate(34.308594 340.622704) scale(0.15 -0.15)">
       <defs>
        <path id="ArialMT-2e" d="M 581 0 
L 581 641 
L 1222 641 
L 1222 0 
L 581 0 
z
" transform="scale(0.015625)"/>
       </defs>
       <use xlink:href="#ArialMT-30"/>
       <use xlink:href="#ArialMT-2e" x="55.615234"/>
       <use xlink:href="#ArialMT-30" x="83.398438"/>
       <use xlink:href="#ArialMT-30" x="139.013672"/>
      </g>
     </g>
    </g>
    <g id="ytick_2">
     <g id="line2d_10">
      <g>
       <use xlink:href="#m1b984f85e2" x="72" y="265.964458" style="fill: #262626; stroke: #262626; stroke-width: 1.5"/>
      </g>
     </g>
     <g id="text_11">
      <!-- 0.02 -->
      <g style="fill: #262626" transform="translate(34.308594 271.332817) scale(0.15 -0.15)">
       <use xlink:href="#ArialMT-30"/>
       <use xlink:href="#ArialMT-2e" x="55.615234"/>
       <use xlink:href="#ArialMT-30" x="83.398438"/>
       <use xlink:href="#ArialMT-32" x="139.013672"/>
      </g>
     </g>
    </g>
    <g id="ytick_3">
     <g id="line2d_11">
      <g>
       <use xlink:href="#m1b984f85e2" x="72" y="196.674571" style="fill: #262626; stroke: #262626; stroke-width: 1.5"/>
      </g>
     </g>
     <g id="text_12">
      <!-- 0.04 -->
      <g style="fill: #262626" transform="translate(34.308594 202.042931) scale(0.15 -0.15)">
       <defs>
        <path id="ArialMT-34" d="M 2069 0 
L 2069 1097 
L 81 1097 
L 81 1613 
L 2172 4581 
L 2631 4581 
L 2631 1613 
L 3250 1613 
L 3250 1097 
L 2631 1097 
L 2631 0 
L 2069 0 
z
M 2069 1613 
L 2069 3678 
L 634 1613 
L 2069 1613 
z
" transform="scale(0.015625)"/>
       </defs>
       <use xlink:href="#ArialMT-30"/>
       <use xlink:href="#ArialMT-2e" x="55.615234"/>
       <use xlink:href="#ArialMT-30" x="83.398438"/>
       <use xlink:href="#ArialMT-34" x="139.013672"/>
      </g>
     </g>
    </g>
    <g id="ytick_4">
     <g id="line2d_12">
      <g>
       <use xlink:href="#m1b984f85e2" x="72" y="127.384685" style="fill: #262626; stroke: #262626; stroke-width: 1.5"/>
      </g>
     </g>
     <g id="text_13">
      <!-- 0.06 -->
      <g style="fill: #262626" transform="translate(34.308594 132.753044) scale(0.15 -0.15)">
       <defs>
        <path id="ArialMT-36" d="M 3184 3459 
L 2625 3416 
Q 2550 3747 2413 3897 
Q 2184 4138 1850 4138 
Q 1581 4138 1378 3988 
Q 1113 3794 959 3422 
Q 806 3050 800 2363 
Q 1003 2672 1297 2822 
Q 1591 2972 1913 2972 
Q 2475 2972 2870 2558 
Q 3266 2144 3266 1488 
Q 3266 1056 3080 686 
Q 2894 316 2569 119 
Q 2244 -78 1831 -78 
Q 1128 -78 684 439 
Q 241 956 241 2144 
Q 241 3472 731 4075 
Q 1159 4600 1884 4600 
Q 2425 4600 2770 4297 
Q 3116 3994 3184 3459 
z
M 888 1484 
Q 888 1194 1011 928 
Q 1134 663 1356 523 
Q 1578 384 1822 384 
Q 2178 384 2434 671 
Q 2691 959 2691 1453 
Q 2691 1928 2437 2201 
Q 2184 2475 1800 2475 
Q 1419 2475 1153 2201 
Q 888 1928 888 1484 
z
" transform="scale(0.015625)"/>
       </defs>
       <use xlink:href="#ArialMT-30"/>
       <use xlink:href="#ArialMT-2e" x="55.615234"/>
       <use xlink:href="#ArialMT-30" x="83.398438"/>
       <use xlink:href="#ArialMT-36" x="139.013672"/>
      </g>
     </g>
    </g>
    <g id="ytick_5">
     <g id="line2d_13">
      <g>
       <use xlink:href="#m1b984f85e2" x="72" y="58.094798" style="fill: #262626; stroke: #262626; stroke-width: 1.5"/>
      </g>
     </g>
     <g id="text_14">
      <!-- 0.08 -->
      <g style="fill: #262626" transform="translate(34.308594 63.463158) scale(0.15 -0.15)">
       <defs>
        <path id="ArialMT-38" d="M 1131 2484 
Q 781 2613 612 2850 
Q 444 3088 444 3419 
Q 444 3919 803 4259 
Q 1163 4600 1759 4600 
Q 2359 4600 2725 4251 
Q 3091 3903 3091 3403 
Q 3091 3084 2923 2848 
Q 2756 2613 2416 2484 
Q 2838 2347 3058 2040 
Q 3278 1734 3278 1309 
Q 3278 722 2862 322 
Q 2447 -78 1769 -78 
Q 1091 -78 675 323 
Q 259 725 259 1325 
Q 259 1772 486 2073 
Q 713 2375 1131 2484 
z
M 1019 3438 
Q 1019 3113 1228 2906 
Q 1438 2700 1772 2700 
Q 2097 2700 2305 2904 
Q 2513 3109 2513 3406 
Q 2513 3716 2298 3927 
Q 2084 4138 1766 4138 
Q 1444 4138 1231 3931 
Q 1019 3725 1019 3438 
z
M 838 1322 
Q 838 1081 952 856 
Q 1066 631 1291 507 
Q 1516 384 1775 384 
Q 2178 384 2440 643 
Q 2703 903 2703 1303 
Q 2703 1709 2433 1975 
Q 2163 2241 1756 2241 
Q 1359 2241 1098 1978 
Q 838 1716 838 1322 
z
" transform="scale(0.015625)"/>
       </defs>
       <use xlink:href="#ArialMT-30"/>
       <use xlink:href="#ArialMT-2e" x="55.615234"/>
       <use xlink:href="#ArialMT-30" x="83.398438"/>
       <use xlink:href="#ArialMT-38" x="139.013672"/>
      </g>
     </g>
    </g>
    <g id="text_15">
     <!-- firing rate -->
     <g style="fill: #262626" transform="translate(27.151562 246.180937) rotate(-90) scale(0.15 -0.15)">
      <defs>
       <path id="ArialMT-66" d="M 556 0 
L 556 2881 
L 59 2881 
L 59 3319 
L 556 3319 
L 556 3672 
Q 556 4006 616 4169 
Q 697 4388 901 4523 
Q 1106 4659 1475 4659 
Q 1713 4659 2000 4603 
L 1916 4113 
Q 1741 4144 1584 4144 
Q 1328 4144 1222 4034 
Q 1116 3925 1116 3625 
L 1116 3319 
L 1763 3319 
L 1763 2881 
L 1116 2881 
L 1116 0 
L 556 0 
z
" transform="scale(0.015625)"/>
       <path id="ArialMT-72" d="M 416 0 
L 416 3319 
L 922 3319 
L 922 2816 
Q 1116 3169 1280 3281 
Q 1444 3394 1641 3394 
Q 1925 3394 2219 3213 
L 2025 2691 
Q 1819 2813 1613 2813 
Q 1428 2813 1281 2702 
Q 1134 2591 1072 2394 
Q 978 2094 978 1738 
L 978 0 
L 416 0 
z
" transform="scale(0.015625)"/>
       <path id="ArialMT-6e" d="M 422 0 
L 422 3319 
L 928 3319 
L 928 2847 
Q 1294 3394 1984 3394 
Q 2284 3394 2536 3286 
Q 2788 3178 2913 3003 
Q 3038 2828 3088 2588 
Q 3119 2431 3119 2041 
L 3119 0 
L 2556 0 
L 2556 2019 
Q 2556 2363 2490 2533 
Q 2425 2703 2258 2804 
Q 2091 2906 1866 2906 
Q 1506 2906 1245 2678 
Q 984 2450 984 1813 
L 984 0 
L 422 0 
z
" transform="scale(0.015625)"/>
       <path id="ArialMT-67" d="M 319 -275 
L 866 -356 
Q 900 -609 1056 -725 
Q 1266 -881 1628 -881 
Q 2019 -881 2231 -725 
Q 2444 -569 2519 -288 
Q 2563 -116 2559 434 
Q 2191 0 1641 0 
Q 956 0 581 494 
Q 206 988 206 1678 
Q 206 2153 378 2554 
Q 550 2956 876 3175 
Q 1203 3394 1644 3394 
Q 2231 3394 2613 2919 
L 2613 3319 
L 3131 3319 
L 3131 450 
Q 3131 -325 2973 -648 
Q 2816 -972 2473 -1159 
Q 2131 -1347 1631 -1347 
Q 1038 -1347 672 -1080 
Q 306 -813 319 -275 
z
M 784 1719 
Q 784 1066 1043 766 
Q 1303 466 1694 466 
Q 2081 466 2343 764 
Q 2606 1063 2606 1700 
Q 2606 2309 2336 2618 
Q 2066 2928 1684 2928 
Q 1309 2928 1046 2623 
Q 784 2319 784 1719 
z
" transform="scale(0.015625)"/>
       <path id="ArialMT-20" transform="scale(0.015625)"/>
       <path id="ArialMT-61" d="M 2588 409 
Q 2275 144 1986 34 
Q 1697 -75 1366 -75 
Q 819 -75 525 192 
Q 231 459 231 875 
Q 231 1119 342 1320 
Q 453 1522 633 1644 
Q 813 1766 1038 1828 
Q 1203 1872 1538 1913 
Q 2219 1994 2541 2106 
Q 2544 2222 2544 2253 
Q 2544 2597 2384 2738 
Q 2169 2928 1744 2928 
Q 1347 2928 1158 2789 
Q 969 2650 878 2297 
L 328 2372 
Q 403 2725 575 2942 
Q 747 3159 1072 3276 
Q 1397 3394 1825 3394 
Q 2250 3394 2515 3294 
Q 2781 3194 2906 3042 
Q 3031 2891 3081 2659 
Q 3109 2516 3109 2141 
L 3109 1391 
Q 3109 606 3145 398 
Q 3181 191 3288 0 
L 2700 0 
Q 2613 175 2588 409 
z
M 2541 1666 
Q 2234 1541 1622 1453 
Q 1275 1403 1131 1340 
Q 988 1278 909 1158 
Q 831 1038 831 891 
Q 831 666 1001 516 
Q 1172 366 1500 366 
Q 1825 366 2078 508 
Q 2331 650 2450 897 
Q 2541 1088 2541 1459 
L 2541 1666 
z
" transform="scale(0.015625)"/>
      </defs>
      <use xlink:href="#ArialMT-66"/>
      <use xlink:href="#ArialMT-69" x="27.783203"/>
      <use xlink:href="#ArialMT-72" x="50"/>
      <use xlink:href="#ArialMT-69" x="83.300781"/>
      <use xlink:href="#ArialMT-6e" x="105.517578"/>
      <use xlink:href="#ArialMT-67" x="161.132812"/>
      <use xlink:href="#ArialMT-20" x="216.748047"/>
      <use xlink:href="#ArialMT-72" x="244.53125"/>
      <use xlink:href="#ArialMT-61" x="277.832031"/>
      <use xlink:href="#ArialMT-74" x="333.447266"/>
      <use xlink:href="#ArialMT-65" x="361.230469"/>
     </g>
    </g>
   </g>
   <g id="PolyCollection_1">
    <defs>
     <path id="m3d46ed2a7b" d="M 92.290909 -129.901165 
L 92.290909 -100.947028 
L 97.009725 -94.631471 
L 101.728541 -94.818423 
L 106.447357 -97.421686 
L 111.166173 -96.843245 
L 115.884989 -96.783173 
L 120.603805 -93.410983 
L 125.322622 -98.321321 
L 130.041438 -94.053209 
L 134.760254 -95.433013 
L 139.47907 -121.494981 
L 144.197886 -124.764189 
L 148.916702 -120.028617 
L 153.635518 -119.831119 
L 158.354334 -121.955961 
L 163.07315 -119.680719 
L 167.791966 -120.666892 
L 172.510782 -128.512567 
L 177.229598 -128.299717 
L 181.948414 -127.961031 
L 186.66723 -122.5609 
L 191.386047 -117.825527 
L 196.104863 -120.969011 
L 200.823679 -113.918897 
L 205.542495 -108.749155 
L 210.261311 -121.580592 
L 214.980127 -132.325163 
L 219.698943 -124.476987 
L 224.417759 -117.059364 
L 229.136575 -125.336216 
L 233.855391 -143.385618 
L 238.574207 -142.148946 
L 243.293023 -138.606287 
L 248.011839 -144.361834 
L 252.730655 -154.739039 
L 257.449471 -164.931881 
L 262.168288 -164.245059 
L 266.887104 -157.37503 
L 271.60592 -166.118661 
L 276.324736 -166.859094 
L 281.043552 -164.744038 
L 285.762368 -164.205454 
L 290.481184 -163.695801 
L 295.2 -176.439147 
L 299.918816 -176.634033 
L 304.637632 -179.863576 
L 309.356448 -199.017845 
L 314.075264 -208.724673 
L 318.79408 -209.205801 
L 323.512896 -226.672228 
L 328.231712 -236.460019 
L 332.950529 -229.360255 
L 337.669345 -223.120358 
L 342.388161 -218.512673 
L 347.106977 -218.920889 
L 351.825793 -213.541222 
L 356.544609 -219.963247 
L 361.263425 -226.281103 
L 365.982241 -237.267207 
L 370.701057 -236.030702 
L 375.419873 -213.319701 
L 380.138689 -285.94559 
L 384.857505 -291.832322 
L 389.576321 -209.72506 
L 394.295137 -177.41757 
L 399.013953 -206.400471 
L 403.73277 -228.209863 
L 408.451586 -258.082595 
L 413.170402 -287.503004 
L 417.889218 -275.265445 
L 422.608034 -249.351927 
L 427.32685 -240.35904 
L 432.045666 -247.872561 
L 436.764482 -266.710789 
L 441.483298 -269.765295 
L 446.202114 -269.489452 
L 450.92093 -260.666277 
L 455.639746 -262.125998 
L 460.358562 -268.948187 
L 465.077378 -269.547111 
L 469.796195 -260.877552 
L 474.515011 -259.696348 
L 479.233827 -262.011145 
L 483.952643 -282.618707 
L 488.671459 -276.392134 
L 493.390275 -273.584254 
L 498.109091 -270.123755 
L 498.109091 -358.120602 
L 498.109091 -358.120602 
L 493.390275 -361.771917 
L 488.671459 -365.334545 
L 483.952643 -364.095979 
L 479.233827 -346.856087 
L 474.515011 -347.525392 
L 469.796195 -345.525656 
L 465.077378 -354.023385 
L 460.358562 -349.969847 
L 455.639746 -343.701815 
L 450.92093 -338.887615 
L 446.202114 -344.650225 
L 441.483298 -346.989419 
L 436.764482 -345.221693 
L 432.045666 -324.623413 
L 427.32685 -317.804061 
L 422.608034 -320.509494 
L 417.889218 -345.409852 
L 413.170402 -355.42462 
L 408.451586 -322.583606 
L 403.73277 -287.155678 
L 399.013953 -265.180801 
L 394.295137 -238.814576 
L 389.576321 -272.980067 
L 384.857505 -362.353735 
L 380.138689 -359.224039 
L 375.419873 -239.277698 
L 370.701057 -264.8892 
L 365.982241 -271.620406 
L 361.263425 -260.683229 
L 356.544609 -251.537162 
L 351.825793 -241.935993 
L 347.106977 -243.026823 
L 342.388161 -244.833722 
L 337.669345 -249.42214 
L 332.950529 -259.884799 
L 328.231712 -263.610885 
L 323.512896 -253.533713 
L 318.79408 -241.105211 
L 314.075264 -241.229777 
L 309.356448 -233.007687 
L 304.637632 -213.886692 
L 299.918816 -206.000498 
L 295.2 -204.583099 
L 290.481184 -188.984225 
L 285.762368 -188.058853 
L 281.043552 -186.314691 
L 276.324736 -188.716876 
L 271.60592 -186.834417 
L 266.887104 -182.961482 
L 262.168288 -190.330235 
L 257.449471 -191.720673 
L 252.730655 -181.453867 
L 248.011839 -170.844107 
L 243.293023 -167.719794 
L 238.574207 -168.857509 
L 233.855391 -163.73495 
L 229.136575 -145.855597 
L 224.417759 -135.983997 
L 219.698943 -139.233874 
L 214.980127 -142.99826 
L 210.261311 -132.113048 
L 205.542495 -123.052752 
L 200.823679 -128.739647 
L 196.104863 -136.20146 
L 191.386047 -138.746266 
L 186.66723 -142.884781 
L 181.948414 -140.655626 
L 177.229598 -144.141698 
L 172.510782 -141.844298 
L 167.791966 -134.853048 
L 163.07315 -135.597483 
L 158.354334 -136.21263 
L 153.635518 -128.967671 
L 148.916702 -131.105409 
L 144.197886 -133.587448 
L 139.47907 -134.653306 
L 134.760254 -101.021476 
L 130.041438 -97.750718 
L 125.322622 -102.535314 
L 120.603805 -97.170476 
L 115.884989 -100.451495 
L 111.166173 -100.9904 
L 106.447357 -101.250806 
L 101.728541 -98.93429 
L 97.009725 -98.884732 
L 92.290909 -129.901165 
z
" style="stroke: #7373fe; stroke-opacity: 0.2"/>
    </defs>
    <g clip-path="url(#p900c84b0c9)">
     <use xlink:href="#m3d46ed2a7b" x="0" y="432" style="fill: #7373fe; fill-opacity: 0.2; stroke: #7373fe; stroke-opacity: 0.2"/>
    </g>
   </g>
   <g id="PolyCollection_2">
    <defs>
     <path id="m17a524a96f" d="M 92.290909 -130.354813 
L 92.290909 -108.51248 
L 97.009725 -94.725661 
L 101.728541 -90.91975 
L 106.447357 -92.426425 
L 111.166173 -100.309657 
L 115.884989 -94.133387 
L 120.603805 -93.302939 
L 125.322622 -93.328694 
L 130.041438 -97.439418 
L 134.760254 -93.61728 
L 139.47907 -141.720596 
L 144.197886 -147.354113 
L 148.916702 -138.18031 
L 153.635518 -125.535836 
L 158.354334 -131.548287 
L 163.07315 -132.191994 
L 167.791966 -127.750626 
L 172.510782 -128.364176 
L 177.229598 -129.971702 
L 181.948414 -121.88891 
L 186.66723 -110.673059 
L 191.386047 -115.923054 
L 196.104863 -123.962144 
L 200.823679 -131.857321 
L 205.542495 -138.509434 
L 210.261311 -133.191532 
L 214.980127 -118.6336 
L 219.698943 -108.485274 
L 224.417759 -115.736808 
L 229.136575 -120.023447 
L 233.855391 -127.832825 
L 238.574207 -129.730179 
L 243.293023 -124.770053 
L 248.011839 -120.364825 
L 252.730655 -114.780028 
L 257.449471 -115.30214 
L 262.168288 -131.130046 
L 266.887104 -133.654578 
L 271.60592 -125.34875 
L 276.324736 -129.843156 
L 281.043552 -135.672829 
L 285.762368 -135.339959 
L 290.481184 -139.319254 
L 295.2 -143.54766 
L 299.918816 -142.921862 
L 304.637632 -129.028132 
L 309.356448 -122.54194 
L 314.075264 -125.641951 
L 318.79408 -133.57154 
L 323.512896 -145.290934 
L 328.231712 -141.592713 
L 332.950529 -128.597799 
L 337.669345 -132.857876 
L 342.388161 -139.493707 
L 347.106977 -140.604068 
L 351.825793 -127.63765 
L 356.544609 -119.028555 
L 361.263425 -122.429048 
L 365.982241 -125.142901 
L 370.701057 -116.394088 
L 375.419873 -93.081131 
L 380.138689 -90.733878 
L 384.857505 -92.630779 
L 389.576321 -91.595213 
L 394.295137 -96.982142 
L 399.013953 -97.053171 
L 403.73277 -90.637172 
L 408.451586 -88.935093 
L 413.170402 -92.432748 
L 417.889218 -94.214456 
L 422.608034 -92.520552 
L 427.32685 -97.097075 
L 432.045666 -95.154785 
L 436.764482 -90.480631 
L 441.483298 -86.322242 
L 446.202114 -93.125023 
L 450.92093 -102.403787 
L 455.639746 -93.351318 
L 460.358562 -85.636402 
L 465.077378 -84.331831 
L 469.796195 -93.60228 
L 474.515011 -91.202737 
L 479.233827 -96.539 
L 483.952643 -92.103063 
L 488.671459 -86.70046 
L 493.390275 -92.516324 
L 498.109091 -97.812123 
L 498.109091 -106.456846 
L 498.109091 -106.456846 
L 493.390275 -100.879199 
L 488.671459 -97.569036 
L 483.952643 -98.201653 
L 479.233827 -104.278351 
L 474.515011 -100.714796 
L 469.796195 -100.13389 
L 465.077378 -93.975365 
L 460.358562 -90.27637 
L 455.639746 -102.181159 
L 450.92093 -111.259282 
L 446.202114 -99.59536 
L 441.483298 -97.647654 
L 436.764482 -96.88351 
L 432.045666 -104.800614 
L 427.32685 -104.657156 
L 422.608034 -103.19935 
L 417.889218 -106.647374 
L 413.170402 -101.194555 
L 408.451586 -98.305147 
L 403.73277 -99.811418 
L 399.013953 -107.341369 
L 394.295137 -111.898701 
L 389.576321 -110.236692 
L 384.857505 -109.39474 
L 380.138689 -107.664031 
L 375.419873 -107.737711 
L 370.701057 -137.728764 
L 365.982241 -147.796467 
L 361.263425 -146.856572 
L 356.544609 -142.397778 
L 351.825793 -148.893444 
L 347.106977 -159.266619 
L 342.388161 -160.177595 
L 337.669345 -154.588365 
L 332.950529 -150.941079 
L 328.231712 -163.827147 
L 323.512896 -168.786432 
L 318.79408 -158.455494 
L 314.075264 -150.088484 
L 309.356448 -142.255257 
L 304.637632 -148.163614 
L 299.918816 -160.895657 
L 295.2 -162.194344 
L 290.481184 -156.255899 
L 285.762368 -151.066025 
L 281.043552 -147.417086 
L 276.324736 -148.114716 
L 271.60592 -152.746598 
L 266.887104 -158.735025 
L 262.168288 -158.520921 
L 257.449471 -141.680712 
L 252.730655 -134.043772 
L 248.011839 -141.311348 
L 243.293023 -147.352822 
L 238.574207 -152.714759 
L 233.855391 -150.948724 
L 229.136575 -144.188918 
L 224.417759 -138.195031 
L 219.698943 -131.096973 
L 214.980127 -147.095722 
L 210.261311 -161.448618 
L 205.542495 -170.959355 
L 200.823679 -164.633911 
L 196.104863 -160.715641 
L 191.386047 -156.263677 
L 186.66723 -147.507365 
L 181.948414 -150.938047 
L 177.229598 -160.600467 
L 172.510782 -159.722833 
L 167.791966 -161.073278 
L 163.07315 -162.718078 
L 158.354334 -162.853252 
L 153.635518 -148.609611 
L 148.916702 -151.443569 
L 144.197886 -162.118579 
L 139.47907 -158.560192 
L 134.760254 -98.974925 
L 130.041438 -102.8323 
L 125.322622 -98.428856 
L 120.603805 -99.694562 
L 115.884989 -99.590827 
L 111.166173 -104.550419 
L 106.447357 -97.802951 
L 101.728541 -95.797157 
L 97.009725 -99.792035 
L 92.290909 -130.354813 
z
" style="stroke: #7373fe; stroke-opacity: 0.2"/>
    </defs>
    <g clip-path="url(#p900c84b0c9)">
     <use xlink:href="#m17a524a96f" x="0" y="432" style="fill: #7373fe; fill-opacity: 0.2; stroke: #7373fe; stroke-opacity: 0.2"/>
    </g>
   </g>
   <g id="PathCollection_1">
    <defs>
     <path id="m7bece6fe5f" d="M -2.5 2.5 
L 2.5 2.5 
L 2.5 -2.5 
L -2.5 -2.5 
z
" style="stroke: #7373fe"/>
    </defs>
    <g clip-path="url(#p900c84b0c9)">
     <use xlink:href="#m7bece6fe5f" x="205.542495" y="356.000446" style="fill: #7373fe; stroke: #7373fe"/>
     <use xlink:href="#m7bece6fe5f" x="252.730655" y="356.000446" style="fill: #7373fe; stroke: #7373fe"/>
     <use xlink:href="#m7bece6fe5f" x="257.449471" y="356.000446" style="fill: #7373fe; stroke: #7373fe"/>
     <use xlink:href="#m7bece6fe5f" x="262.168288" y="356.000446" style="fill: #7373fe; stroke: #7373fe"/>
     <use xlink:href="#m7bece6fe5f" x="266.887104" y="356.000446" style="fill: #7373fe; stroke: #7373fe"/>
     <use xlink:href="#m7bece6fe5f" x="271.60592" y="356.000446" style="fill: #7373fe; stroke: #7373fe"/>
     <use xlink:href="#m7bece6fe5f" x="276.324736" y="356.000446" style="fill: #7373fe; stroke: #7373fe"/>
     <use xlink:href="#m7bece6fe5f" x="281.043552" y="356.000446" style="fill: #7373fe; stroke: #7373fe"/>
     <use xlink:href="#m7bece6fe5f" x="285.762368" y="356.000446" style="fill: #7373fe; stroke: #7373fe"/>
     <use xlink:href="#m7bece6fe5f" x="290.481184" y="356.000446" style="fill: #7373fe; stroke: #7373fe"/>
     <use xlink:href="#m7bece6fe5f" x="295.2" y="356.000446" style="fill: #7373fe; stroke: #7373fe"/>
     <use xlink:href="#m7bece6fe5f" x="299.918816" y="356.000446" style="fill: #7373fe; stroke: #7373fe"/>
     <use xlink:href="#m7bece6fe5f" x="304.637632" y="356.000446" style="fill: #7373fe; stroke: #7373fe"/>
     <use xlink:href="#m7bece6fe5f" x="309.356448" y="356.000446" style="fill: #7373fe; stroke: #7373fe"/>
     <use xlink:href="#m7bece6fe5f" x="314.075264" y="356.000446" style="fill: #7373fe; stroke: #7373fe"/>
     <use xlink:href="#m7bece6fe5f" x="318.79408" y="356.000446" style="fill: #7373fe; stroke: #7373fe"/>
     <use xlink:href="#m7bece6fe5f" x="323.512896" y="356.000446" style="fill: #7373fe; stroke: #7373fe"/>
     <use xlink:href="#m7bece6fe5f" x="328.231712" y="356.000446" style="fill: #7373fe; stroke: #7373fe"/>
     <use xlink:href="#m7bece6fe5f" x="332.950529" y="356.000446" style="fill: #7373fe; stroke: #7373fe"/>
     <use xlink:href="#m7bece6fe5f" x="337.669345" y="356.000446" style="fill: #7373fe; stroke: #7373fe"/>
     <use xlink:href="#m7bece6fe5f" x="342.388161" y="356.000446" style="fill: #7373fe; stroke: #7373fe"/>
     <use xlink:href="#m7bece6fe5f" x="347.106977" y="356.000446" style="fill: #7373fe; stroke: #7373fe"/>
     <use xlink:href="#m7bece6fe5f" x="351.825793" y="356.000446" style="fill: #7373fe; stroke: #7373fe"/>
     <use xlink:href="#m7bece6fe5f" x="356.544609" y="356.000446" style="fill: #7373fe; stroke: #7373fe"/>
     <use xlink:href="#m7bece6fe5f" x="361.263425" y="356.000446" style="fill: #7373fe; stroke: #7373fe"/>
     <use xlink:href="#m7bece6fe5f" x="365.982241" y="356.000446" style="fill: #7373fe; stroke: #7373fe"/>
     <use xlink:href="#m7bece6fe5f" x="370.701057" y="356.000446" style="fill: #7373fe; stroke: #7373fe"/>
     <use xlink:href="#m7bece6fe5f" x="375.419873" y="356.000446" style="fill: #7373fe; stroke: #7373fe"/>
     <use xlink:href="#m7bece6fe5f" x="380.138689" y="356.000446" style="fill: #7373fe; stroke: #7373fe"/>
     <use xlink:href="#m7bece6fe5f" x="384.857505" y="356.000446" style="fill: #7373fe; stroke: #7373fe"/>
     <use xlink:href="#m7bece6fe5f" x="389.576321" y="356.000446" style="fill: #7373fe; stroke: #7373fe"/>
     <use xlink:href="#m7bece6fe5f" x="394.295137" y="356.000446" style="fill: #7373fe; stroke: #7373fe"/>
     <use xlink:href="#m7bece6fe5f" x="399.013953" y="356.000446" style="fill: #7373fe; stroke: #7373fe"/>
     <use xlink:href="#m7bece6fe5f" x="403.73277" y="356.000446" style="fill: #7373fe; stroke: #7373fe"/>
     <use xlink:href="#m7bece6fe5f" x="408.451586" y="356.000446" style="fill: #7373fe; stroke: #7373fe"/>
     <use xlink:href="#m7bece6fe5f" x="413.170402" y="356.000446" style="fill: #7373fe; stroke: #7373fe"/>
     <use xlink:href="#m7bece6fe5f" x="417.889218" y="356.000446" style="fill: #7373fe; stroke: #7373fe"/>
     <use xlink:href="#m7bece6fe5f" x="422.608034" y="356.000446" style="fill: #7373fe; stroke: #7373fe"/>
     <use xlink:href="#m7bece6fe5f" x="427.32685" y="356.000446" style="fill: #7373fe; stroke: #7373fe"/>
     <use xlink:href="#m7bece6fe5f" x="432.045666" y="356.000446" style="fill: #7373fe; stroke: #7373fe"/>
     <use xlink:href="#m7bece6fe5f" x="436.764482" y="356.000446" style="fill: #7373fe; stroke: #7373fe"/>
     <use xlink:href="#m7bece6fe5f" x="441.483298" y="356.000446" style="fill: #7373fe; stroke: #7373fe"/>
     <use xlink:href="#m7bece6fe5f" x="446.202114" y="356.000446" style="fill: #7373fe; stroke: #7373fe"/>
     <use xlink:href="#m7bece6fe5f" x="450.92093" y="356.000446" style="fill: #7373fe; stroke: #7373fe"/>
     <use xlink:href="#m7bece6fe5f" x="455.639746" y="356.000446" style="fill: #7373fe; stroke: #7373fe"/>
     <use xlink:href="#m7bece6fe5f" x="460.358562" y="356.000446" style="fill: #7373fe; stroke: #7373fe"/>
     <use xlink:href="#m7bece6fe5f" x="465.077378" y="356.000446" style="fill: #7373fe; stroke: #7373fe"/>
     <use xlink:href="#m7bece6fe5f" x="469.796195" y="356.000446" style="fill: #7373fe; stroke: #7373fe"/>
     <use xlink:href="#m7bece6fe5f" x="474.515011" y="356.000446" style="fill: #7373fe; stroke: #7373fe"/>
     <use xlink:href="#m7bece6fe5f" x="479.233827" y="356.000446" style="fill: #7373fe; stroke: #7373fe"/>
     <use xlink:href="#m7bece6fe5f" x="483.952643" y="356.000446" style="fill: #7373fe; stroke: #7373fe"/>
     <use xlink:href="#m7bece6fe5f" x="488.671459" y="356.000446" style="fill: #7373fe; stroke: #7373fe"/>
     <use xlink:href="#m7bece6fe5f" x="493.390275" y="356.000446" style="fill: #7373fe; stroke: #7373fe"/>
     <use xlink:href="#m7bece6fe5f" x="498.109091" y="356.000446" style="fill: #7373fe; stroke: #7373fe"/>
    </g>
   </g>
   <g id="PathCollection_2">
    <defs>
     <path id="m1132aa129b" d="M 0 -2.5 
L -2.5 2.5 
L 2.5 2.5 
z
" style="stroke: #7373fe"/>
    </defs>
    <g clip-path="url(#p900c84b0c9)">
     <use xlink:href="#m1132aa129b" x="111.166173" y="363.174545" style="fill: #7373fe; stroke: #7373fe"/>
     <use xlink:href="#m1132aa129b" x="144.197886" y="363.174545" style="fill: #7373fe; stroke: #7373fe"/>
     <use xlink:href="#m1132aa129b" x="295.2" y="363.174545" style="fill: #7373fe; stroke: #7373fe"/>
     <use xlink:href="#m1132aa129b" x="460.358562" y="363.174545" style="fill: #7373fe; stroke: #7373fe"/>
    </g>
   </g>
   <g id="line2d_14">
    <path d="M 92.290909 316.575904 
L 97.009725 335.241899 
L 101.728541 335.123643 
L 106.447357 332.663754 
L 111.166173 333.083178 
L 115.884989 333.382666 
L 120.603805 336.709271 
L 125.322622 331.571683 
L 130.041438 336.098037 
L 134.760254 333.772755 
L 139.47907 303.925857 
L 144.197886 302.824182 
L 148.916702 306.432987 
L 153.635518 307.600605 
L 158.354334 302.915705 
L 163.07315 304.360899 
L 167.791966 304.24003 
L 172.510782 296.821568 
L 177.229598 295.779293 
L 181.948414 297.691671 
L 186.66723 299.27716 
L 191.386047 303.714103 
L 196.104863 303.414765 
L 200.823679 310.670728 
L 205.542495 316.099046 
L 210.261311 305.15318 
L 214.980127 294.338288 
L 219.698943 300.144569 
L 224.417759 305.478319 
L 229.136575 296.404094 
L 233.855391 278.439716 
L 238.574207 276.496773 
L 243.293023 278.836959 
L 248.011839 274.39703 
L 252.730655 263.903547 
L 257.449471 253.673723 
L 262.168288 254.712353 
L 266.887104 261.831744 
L 271.60592 255.523461 
L 276.324736 254.212015 
L 281.043552 256.470635 
L 285.762368 255.867847 
L 290.481184 255.659987 
L 295.2 241.488877 
L 299.918816 240.682734 
L 304.637632 235.124866 
L 309.356448 215.987234 
L 314.075264 207.022775 
L 318.79408 206.844494 
L 323.512896 191.897029 
L 328.231712 181.964548 
L 332.950529 187.377473 
L 337.669345 195.728751 
L 342.388161 200.326803 
L 347.106977 201.026144 
L 351.825793 204.261393 
L 356.544609 196.249795 
L 361.263425 188.517834 
L 365.982241 177.556193 
L 370.701057 181.540049 
L 375.419873 205.7013 
L 380.138689 109.415186 
L 384.857505 104.906971 
L 389.576321 190.647436 
L 394.295137 223.883927 
L 399.013953 196.209364 
L 403.73277 174.317229 
L 408.451586 141.666899 
L 413.170402 110.536188 
L 417.889218 121.662352 
L 422.608034 147.06929 
L 427.32685 152.91845 
L 432.045666 145.752013 
L 436.764482 126.033759 
L 441.483298 123.622643 
L 446.202114 124.930161 
L 450.92093 132.223054 
L 455.639746 129.086094 
L 460.358562 122.540983 
L 465.077378 120.214752 
L 469.796195 128.798396 
L 474.515011 128.38913 
L 479.233827 127.566384 
L 483.952643 108.642657 
L 488.671459 111.13666 
L 493.390275 114.321915 
L 498.109091 117.877821 
" clip-path="url(#p900c84b0c9)" style="fill: none; stroke: #7373fe; stroke-width: 2; stroke-linecap: round"/>
   </g>
   <g id="line2d_15">
    <path d="M 92.290909 331.803893 
L 97.009725 334.974555 
L 101.728541 335.67721 
L 106.447357 335.371837 
L 111.166173 335.705369 
L 115.884989 335.032079 
L 120.603805 333.939161 
L 125.322622 334.752969 
L 130.041438 335.06101 
L 134.760254 334.617508 
L 139.47907 301.59991 
L 144.197886 302.444234 
L 148.916702 303.81998 
L 153.635518 305.412514 
L 158.354334 301.959586 
L 163.07315 297.786269 
L 167.791966 298.798392 
L 172.510782 297.894267 
L 177.229598 298.1707 
L 181.948414 297.603234 
L 186.66723 295.456815 
L 191.386047 296.452176 
L 196.104863 296.772876 
L 200.823679 299.019766 
L 205.542495 298.762382 
L 210.261311 295.257129 
L 214.980127 295.486794 
L 219.698943 295.56261 
L 224.417759 295.997385 
L 229.136575 295.004136 
L 233.855391 297.700025 
L 238.574207 297.137139 
L 243.293023 296.772311 
L 248.011839 297.01102 
L 252.730655 296.109459 
L 257.449471 295.651938 
L 262.168288 297.80657 
L 266.887104 297.516352 
L 271.60592 297.533707 
L 276.324736 300.003073 
L 281.043552 298.722449 
L 285.762368 295.459973 
L 290.481184 293.337947 
L 295.2 292.188854 
L 299.918816 293.714011 
L 304.637632 295.171909 
L 309.356448 293.61124 
L 314.075264 293.606663 
L 318.79408 289.70959 
L 323.512896 288.794795 
L 328.231712 288.468486 
L 332.950529 287.04997 
L 337.669345 287.459867 
L 342.388161 285.340091 
L 347.106977 283.917584 
L 351.825793 287.02578 
L 356.544609 289.460635 
L 361.263425 290.553395 
L 365.982241 295.359661 
L 370.701057 303.970029 
L 375.419873 324.008681 
L 380.138689 326.674549 
L 384.857505 329.895619 
L 389.576321 326.325094 
L 394.295137 327.209292 
L 399.013953 326.964211 
L 403.73277 326.43201 
L 408.451586 324.708764 
L 413.170402 324.453922 
L 417.889218 325.068074 
L 422.608034 327.656077 
L 427.32685 327.883254 
L 432.045666 327.426344 
L 436.764482 326.138634 
L 441.483298 324.562398 
L 446.202114 325.488983 
L 450.92093 326.984531 
L 455.639746 325.260915 
L 460.358562 326.083757 
L 465.077378 325.412756 
L 469.796195 325.12553 
L 474.515011 326.739811 
L 479.233827 327.310032 
L 483.952643 324.839556 
L 488.671459 324.793416 
L 493.390275 326.404467 
L 498.109091 327.269099 
" clip-path="url(#p900c84b0c9)" style="fill: none; stroke-dasharray: 5.55,2.4; stroke-dashoffset: 0; stroke: #7373fe; stroke-opacity: 0.8; stroke-width: 1.5"/>
   </g>
   <g id="line2d_16">
    <path d="M 92.290909 312.566353 
L 97.009725 334.741152 
L 101.728541 338.641546 
L 106.447357 336.885312 
L 111.166173 329.569962 
L 115.884989 335.137893 
L 120.603805 335.50125 
L 125.322622 336.121225 
L 130.041438 331.864141 
L 134.760254 335.703898 
L 139.47907 281.859606 
L 144.197886 277.263654 
L 148.916702 287.188061 
L 153.635518 294.927276 
L 158.354334 284.79923 
L 163.07315 284.544964 
L 167.791966 287.588048 
L 172.510782 287.956496 
L 177.229598 286.713915 
L 181.948414 295.586522 
L 186.66723 302.909788 
L 191.386047 295.906634 
L 196.104863 289.661107 
L 200.823679 283.754384 
L 205.542495 277.265605 
L 210.261311 284.679925 
L 214.980127 299.135339 
L 219.698943 312.208876 
L 224.417759 305.03408 
L 229.136575 299.893817 
L 233.855391 292.609225 
L 238.574207 290.777531 
L 243.293023 295.938563 
L 248.011839 301.161914 
L 252.730655 307.5881 
L 257.449471 303.508574 
L 262.168288 287.174517 
L 266.887104 285.805198 
L 271.60592 292.952326 
L 276.324736 293.021064 
L 281.043552 290.455042 
L 285.762368 288.797008 
L 290.481184 284.212423 
L 295.2 279.128998 
L 299.918816 280.09124 
L 304.637632 293.404127 
L 309.356448 299.601402 
L 314.075264 294.134783 
L 318.79408 285.986483 
L 323.512896 274.961317 
L 328.231712 279.29007 
L 332.950529 292.230561 
L 337.669345 288.27688 
L 342.388161 282.164349 
L 347.106977 282.064657 
L 351.825793 293.734453 
L 356.544609 301.286833 
L 361.263425 297.35719 
L 365.982241 295.530316 
L 370.701057 304.938574 
L 375.419873 331.590579 
L 380.138689 332.801045 
L 384.857505 330.98724 
L 389.576321 331.084048 
L 394.295137 327.559579 
L 399.013953 329.80273 
L 403.73277 336.775705 
L 408.451586 338.37988 
L 413.170402 335.186349 
L 417.889218 331.569085 
L 422.608034 334.140049 
L 427.32685 331.122884 
L 432.045666 332.022301 
L 436.764482 338.31793 
L 441.483298 340.015052 
L 446.202114 335.639809 
L 450.92093 325.168465 
L 455.639746 334.233762 
L 460.358562 344.043614 
L 465.077378 342.846402 
L 469.796195 335.131915 
L 474.515011 336.041233 
L 479.233827 331.591324 
L 483.952643 336.847642 
L 488.671459 339.865252 
L 493.390275 335.302238 
L 498.109091 329.865515 
" clip-path="url(#p900c84b0c9)" style="fill: none; stroke: #7373fe; stroke-width: 4; stroke-linecap: round"/>
   </g>
   <g id="line2d_17">
    <path d="M 92.290909 312.566353 
L 97.009725 334.741152 
L 101.728541 338.641546 
L 106.447357 336.885312 
L 111.166173 329.569962 
L 115.884989 335.137893 
L 120.603805 335.50125 
L 125.322622 336.121225 
L 130.041438 331.864141 
L 134.760254 335.703898 
L 139.47907 281.859606 
L 144.197886 277.263654 
L 148.916702 287.188061 
L 153.635518 294.927276 
L 158.354334 284.79923 
L 163.07315 284.544964 
L 167.791966 287.588048 
L 172.510782 287.956496 
L 177.229598 286.713915 
L 181.948414 295.586522 
L 186.66723 302.909788 
L 191.386047 295.906634 
L 196.104863 289.661107 
L 200.823679 283.754384 
L 205.542495 277.265605 
L 210.261311 284.679925 
L 214.980127 299.135339 
L 219.698943 312.208876 
L 224.417759 305.03408 
L 229.136575 299.893817 
L 233.855391 292.609225 
L 238.574207 290.777531 
L 243.293023 295.938563 
L 248.011839 301.161914 
L 252.730655 307.5881 
L 257.449471 303.508574 
L 262.168288 287.174517 
L 266.887104 285.805198 
L 271.60592 292.952326 
L 276.324736 293.021064 
L 281.043552 290.455042 
L 285.762368 288.797008 
L 290.481184 284.212423 
L 295.2 279.128998 
L 299.918816 280.09124 
L 304.637632 293.404127 
L 309.356448 299.601402 
L 314.075264 294.134783 
L 318.79408 285.986483 
L 323.512896 274.961317 
L 328.231712 279.29007 
L 332.950529 292.230561 
L 337.669345 288.27688 
L 342.388161 282.164349 
L 347.106977 282.064657 
L 351.825793 293.734453 
L 356.544609 301.286833 
L 361.263425 297.35719 
L 365.982241 295.530316 
L 370.701057 304.938574 
L 375.419873 331.590579 
L 380.138689 332.801045 
L 384.857505 330.98724 
L 389.576321 331.084048 
L 394.295137 327.559579 
L 399.013953 329.80273 
L 403.73277 336.775705 
L 408.451586 338.37988 
L 413.170402 335.186349 
L 417.889218 331.569085 
L 422.608034 334.140049 
L 427.32685 331.122884 
L 432.045666 332.022301 
L 436.764482 338.31793 
L 441.483298 340.015052 
L 446.202114 335.639809 
L 450.92093 325.168465 
L 455.639746 334.233762 
L 460.358562 344.043614 
L 465.077378 342.846402 
L 469.796195 335.131915 
L 474.515011 336.041233 
L 479.233827 331.591324 
L 483.952643 336.847642 
L 488.671459 339.865252 
L 493.390275 335.302238 
L 498.109091 329.865515 
" clip-path="url(#p900c84b0c9)" style="fill: none; stroke: #ffffff; stroke-width: 1.5; stroke-linecap: round"/>
   </g>
   <g id="line2d_18">
    <path d="M 92.290909 333.279476 
L 97.009725 335.377621 
L 101.728541 334.6161 
L 106.447357 335.825353 
L 111.166173 334.756618 
L 115.884989 334.47308 
L 120.603805 334.856479 
L 125.322622 334.377619 
L 130.041438 335.201311 
L 134.760254 333.364554 
L 139.47907 285.11387 
L 144.197886 295.299808 
L 148.916702 301.003089 
L 153.635518 304.351697 
L 158.354334 297.48106 
L 163.07315 300.386318 
L 167.791966 300.717681 
L 172.510782 298.597579 
L 177.229598 296.282364 
L 181.948414 296.822936 
L 186.66723 293.106075 
L 191.386047 292.699941 
L 196.104863 294.44101 
L 200.823679 296.378119 
L 205.542495 293.310148 
L 210.261311 292.229027 
L 214.980127 294.722619 
L 219.698943 296.775498 
L 224.417759 298.378109 
L 229.136575 297.623766 
L 233.855391 298.66988 
L 238.574207 298.099272 
L 243.293023 298.002279 
L 248.011839 299.740428 
L 252.730655 299.434872 
L 257.449471 299.32167 
L 262.168288 299.31917 
L 266.887104 299.200325 
L 271.60592 299.398396 
L 276.324736 299.870269 
L 281.043552 300.270722 
L 285.762368 299.989926 
L 290.481184 300.326791 
L 295.2 300.109405 
L 299.918816 299.493597 
L 304.637632 298.378906 
L 309.356448 295.341334 
L 314.075264 293.943486 
L 318.79408 293.64099 
L 323.512896 293.688548 
L 328.231712 294.470122 
L 332.950529 293.987195 
L 337.669345 292.424075 
L 342.388161 295.463159 
L 347.106977 296.575169 
L 351.825793 297.148435 
L 356.544609 296.5275 
L 361.263425 296.711175 
L 365.982241 300.352179 
L 370.701057 310.730618 
L 375.419873 329.901532 
L 380.138689 331.078239 
L 384.857505 330.679591 
L 389.576321 334.090616 
L 394.295137 338.674454 
L 399.013953 337.155263 
L 403.73277 334.18124 
L 408.451586 333.663854 
L 413.170402 334.336101 
L 417.889218 335.280813 
L 422.608034 336.020263 
L 427.32685 334.826586 
L 432.045666 335.070004 
L 436.764482 334.225003 
L 441.483298 335.529106 
L 446.202114 337.104255 
L 450.92093 334.468377 
L 455.639746 334.425073 
L 460.358562 334.264795 
L 465.077378 337.660678 
L 469.796195 336.19722 
L 474.515011 335.234936 
L 479.233827 334.710064 
L 483.952643 334.681924 
L 488.671459 333.895477 
L 493.390275 336.56177 
L 498.109091 335.714091 
" clip-path="url(#p900c84b0c9)" style="fill: none; stroke-dasharray: 5.55,2.4; stroke-dashoffset: 0; stroke: #7373fe; stroke-opacity: 0.8; stroke-width: 1.5"/>
   </g>
   <g id="line2d_19">
    <path d="M 139.47907 378 
L 139.47907 51.84 
" clip-path="url(#p900c84b0c9)" style="fill: none; stroke-dasharray: 5.55,2.4; stroke-dashoffset: 0; stroke: #808080; stroke-opacity: 0.7; stroke-width: 1.5"/>
   </g>
   <g id="line2d_20">
    <path d="M 375.419873 378 
L 375.419873 51.84 
" clip-path="url(#p900c84b0c9)" style="fill: none; stroke-dasharray: 5.55,2.4; stroke-dashoffset: 0; stroke: #808080; stroke-opacity: 0.7; stroke-width: 1.5"/>
   </g>
   <g id="patch_3">
    <path d="M 72 378 
L 72 51.84 
" style="fill: none; stroke: #000000; stroke-width: 1.5; stroke-linejoin: miter; stroke-linecap: square"/>
   </g>
   <g id="patch_4">
    <path d="M 72 378 
L 518.4 378 
" style="fill: none; stroke: #000000; stroke-width: 1.5; stroke-linejoin: miter; stroke-linecap: square"/>
   </g>
   <g id="text_16">
    <!-- L1_sactemporal -->
    <g style="fill: #262626" transform="translate(238.093359 45.84) scale(0.15 -0.15)">
     <defs>
      <path id="Arial-BoldMT-4c" d="M 491 0 
L 491 4544 
L 1416 4544 
L 1416 772 
L 3716 772 
L 3716 0 
L 491 0 
z
" transform="scale(0.015625)"/>
      <path id="Arial-BoldMT-31" d="M 2519 0 
L 1641 0 
L 1641 3309 
Q 1159 2859 506 2644 
L 506 3441 
Q 850 3553 1253 3867 
Q 1656 4181 1806 4600 
L 2519 4600 
L 2519 0 
z
" transform="scale(0.015625)"/>
      <path id="Arial-BoldMT-5f" d="M -59 -1266 
L -59 -697 
L 3591 -697 
L 3591 -1266 
L -59 -1266 
z
" transform="scale(0.015625)"/>
      <path id="Arial-BoldMT-73" d="M 150 947 
L 1031 1081 
Q 1088 825 1259 692 
Q 1431 559 1741 559 
Q 2081 559 2253 684 
Q 2369 772 2369 919 
Q 2369 1019 2306 1084 
Q 2241 1147 2013 1200 
Q 950 1434 666 1628 
Q 272 1897 272 2375 
Q 272 2806 612 3100 
Q 953 3394 1669 3394 
Q 2350 3394 2681 3172 
Q 3013 2950 3138 2516 
L 2309 2363 
Q 2256 2556 2107 2659 
Q 1959 2763 1684 2763 
Q 1338 2763 1188 2666 
Q 1088 2597 1088 2488 
Q 1088 2394 1175 2328 
Q 1294 2241 1995 2081 
Q 2697 1922 2975 1691 
Q 3250 1456 3250 1038 
Q 3250 581 2869 253 
Q 2488 -75 1741 -75 
Q 1063 -75 667 200 
Q 272 475 150 947 
z
" transform="scale(0.015625)"/>
      <path id="Arial-BoldMT-61" d="M 1116 2306 
L 319 2450 
Q 453 2931 781 3162 
Q 1109 3394 1756 3394 
Q 2344 3394 2631 3255 
Q 2919 3116 3036 2902 
Q 3153 2688 3153 2116 
L 3144 1091 
Q 3144 653 3186 445 
Q 3228 238 3344 0 
L 2475 0 
Q 2441 88 2391 259 
Q 2369 338 2359 363 
Q 2134 144 1878 34 
Q 1622 -75 1331 -75 
Q 819 -75 523 203 
Q 228 481 228 906 
Q 228 1188 362 1408 
Q 497 1628 739 1745 
Q 981 1863 1438 1950 
Q 2053 2066 2291 2166 
L 2291 2253 
Q 2291 2506 2166 2614 
Q 2041 2722 1694 2722 
Q 1459 2722 1328 2630 
Q 1197 2538 1116 2306 
z
M 2291 1594 
Q 2122 1538 1756 1459 
Q 1391 1381 1278 1306 
Q 1106 1184 1106 997 
Q 1106 813 1243 678 
Q 1381 544 1594 544 
Q 1831 544 2047 700 
Q 2206 819 2256 991 
Q 2291 1103 2291 1419 
L 2291 1594 
z
" transform="scale(0.015625)"/>
      <path id="Arial-BoldMT-63" d="M 3353 2338 
L 2488 2181 
Q 2444 2441 2289 2572 
Q 2134 2703 1888 2703 
Q 1559 2703 1364 2476 
Q 1169 2250 1169 1719 
Q 1169 1128 1367 884 
Q 1566 641 1900 641 
Q 2150 641 2309 783 
Q 2469 925 2534 1272 
L 3397 1125 
Q 3263 531 2881 228 
Q 2500 -75 1859 -75 
Q 1131 -75 698 384 
Q 266 844 266 1656 
Q 266 2478 700 2936 
Q 1134 3394 1875 3394 
Q 2481 3394 2839 3133 
Q 3197 2872 3353 2338 
z
" transform="scale(0.015625)"/>
      <path id="Arial-BoldMT-74" d="M 1981 3319 
L 1981 2619 
L 1381 2619 
L 1381 1281 
Q 1381 875 1398 808 
Q 1416 741 1477 697 
Q 1538 653 1625 653 
Q 1747 653 1978 738 
L 2053 56 
Q 1747 -75 1359 -75 
Q 1122 -75 931 4 
Q 741 84 652 211 
Q 563 338 528 553 
Q 500 706 500 1172 
L 500 2619 
L 97 2619 
L 97 3319 
L 500 3319 
L 500 3978 
L 1381 4491 
L 1381 3319 
L 1981 3319 
z
" transform="scale(0.015625)"/>
      <path id="Arial-BoldMT-65" d="M 2381 1056 
L 3256 909 
Q 3088 428 2723 176 
Q 2359 -75 1813 -75 
Q 947 -75 531 491 
Q 203 944 203 1634 
Q 203 2459 634 2926 
Q 1066 3394 1725 3394 
Q 2466 3394 2894 2905 
Q 3322 2416 3303 1406 
L 1103 1406 
Q 1113 1016 1316 798 
Q 1519 581 1822 581 
Q 2028 581 2168 693 
Q 2309 806 2381 1056 
z
M 2431 1944 
Q 2422 2325 2234 2523 
Q 2047 2722 1778 2722 
Q 1491 2722 1303 2513 
Q 1116 2303 1119 1944 
L 2431 1944 
z
" transform="scale(0.015625)"/>
      <path id="Arial-BoldMT-6d" d="M 394 3319 
L 1203 3319 
L 1203 2866 
Q 1638 3394 2238 3394 
Q 2556 3394 2790 3262 
Q 3025 3131 3175 2866 
Q 3394 3131 3647 3262 
Q 3900 3394 4188 3394 
Q 4553 3394 4806 3245 
Q 5059 3097 5184 2809 
Q 5275 2597 5275 2122 
L 5275 0 
L 4397 0 
L 4397 1897 
Q 4397 2391 4306 2534 
Q 4184 2722 3931 2722 
Q 3747 2722 3584 2609 
Q 3422 2497 3350 2280 
Q 3278 2063 3278 1594 
L 3278 0 
L 2400 0 
L 2400 1819 
Q 2400 2303 2353 2443 
Q 2306 2584 2207 2653 
Q 2109 2722 1941 2722 
Q 1738 2722 1575 2612 
Q 1413 2503 1342 2297 
Q 1272 2091 1272 1613 
L 1272 0 
L 394 0 
L 394 3319 
z
" transform="scale(0.015625)"/>
      <path id="Arial-BoldMT-70" d="M 434 3319 
L 1253 3319 
L 1253 2831 
Q 1413 3081 1684 3237 
Q 1956 3394 2288 3394 
Q 2866 3394 3269 2941 
Q 3672 2488 3672 1678 
Q 3672 847 3265 386 
Q 2859 -75 2281 -75 
Q 2006 -75 1782 34 
Q 1559 144 1313 409 
L 1313 -1263 
L 434 -1263 
L 434 3319 
z
M 1303 1716 
Q 1303 1156 1525 889 
Q 1747 622 2066 622 
Q 2372 622 2575 867 
Q 2778 1113 2778 1672 
Q 2778 2194 2568 2447 
Q 2359 2700 2050 2700 
Q 1728 2700 1515 2451 
Q 1303 2203 1303 1716 
z
" transform="scale(0.015625)"/>
      <path id="Arial-BoldMT-6f" d="M 256 1706 
Q 256 2144 472 2553 
Q 688 2963 1083 3178 
Q 1478 3394 1966 3394 
Q 2719 3394 3200 2905 
Q 3681 2416 3681 1669 
Q 3681 916 3195 420 
Q 2709 -75 1972 -75 
Q 1516 -75 1102 131 
Q 688 338 472 736 
Q 256 1134 256 1706 
z
M 1156 1659 
Q 1156 1166 1390 903 
Q 1625 641 1969 641 
Q 2313 641 2545 903 
Q 2778 1166 2778 1666 
Q 2778 2153 2545 2415 
Q 2313 2678 1969 2678 
Q 1625 2678 1390 2415 
Q 1156 2153 1156 1659 
z
" transform="scale(0.015625)"/>
      <path id="Arial-BoldMT-72" d="M 1300 0 
L 422 0 
L 422 3319 
L 1238 3319 
L 1238 2847 
Q 1447 3181 1614 3287 
Q 1781 3394 1994 3394 
Q 2294 3394 2572 3228 
L 2300 2463 
Q 2078 2606 1888 2606 
Q 1703 2606 1575 2504 
Q 1447 2403 1373 2137 
Q 1300 1872 1300 1025 
L 1300 0 
z
" transform="scale(0.015625)"/>
      <path id="Arial-BoldMT-6c" d="M 459 0 
L 459 4581 
L 1338 4581 
L 1338 0 
L 459 0 
z
" transform="scale(0.015625)"/>
     </defs>
     <use xlink:href="#Arial-BoldMT-4c"/>
     <use xlink:href="#Arial-BoldMT-31" x="61.083984"/>
     <use xlink:href="#Arial-BoldMT-5f" x="116.699219"/>
     <use xlink:href="#Arial-BoldMT-73" x="172.314453"/>
     <use xlink:href="#Arial-BoldMT-61" x="227.929688"/>
     <use xlink:href="#Arial-BoldMT-63" x="283.544922"/>
     <use xlink:href="#Arial-BoldMT-74" x="339.160156"/>
     <use xlink:href="#Arial-BoldMT-65" x="372.460938"/>
     <use xlink:href="#Arial-BoldMT-6d" x="428.076172"/>
     <use xlink:href="#Arial-BoldMT-70" x="516.992188"/>
     <use xlink:href="#Arial-BoldMT-6f" x="578.076172"/>
     <use xlink:href="#Arial-BoldMT-72" x="639.160156"/>
     <use xlink:href="#Arial-BoldMT-61" x="678.076172"/>
     <use xlink:href="#Arial-BoldMT-6c" x="733.691406"/>
    </g>
   </g>
  </g>
 </g>
 <defs>
  <clipPath id="p900c84b0c9">
   <rect x="72" y="51.84" width="446.4" height="326.16"/>
  </clipPath>
 </defs>
</svg>
