<?xml version="1.0" encoding="utf-8" standalone="no"?>
<!DOCTYPE svg PUBLIC "-//W3C//DTD SVG 1.1//EN"
  "http://www.w3.org/Graphics/SVG/1.1/DTD/svg11.dtd">
<svg xmlns:xlink="http://www.w3.org/1999/xlink" width="417pt" height="237pt" viewBox="0 0 417 237" xmlns="http://www.w3.org/2000/svg" version="1.1">
 <metadata>
  <rdf:RDF xmlns:dc="http://purl.org/dc/elements/1.1/" xmlns:cc="http://creativecommons.org/ns#" xmlns:rdf="http://www.w3.org/1999/02/22-rdf-syntax-ns#">
   <cc:Work>
    <dc:type rdf:resource="http://purl.org/dc/dcmitype/StillImage"/>
    <dc:date>2025-10-03T16:13:07.858613</dc:date>
    <dc:format>image/svg+xml</dc:format>
    <dc:creator>
     <cc:Agent>
      <dc:title>Matplotlib v3.9.4, https://matplotlib.org/</dc:title>
     </cc:Agent>
    </dc:creator>
   </cc:Work>
  </rdf:RDF>
 </metadata>
 <defs>
  <style type="text/css">*{stroke-linejoin: round; stroke-linecap: butt}</style>
 </defs>
 <g id="figure_1">
  <g id="patch_1">
   <path d="M 0 237 
L 417 237 
L 417 0 
L 0 0 
z
" style="fill: #ffffff"/>
  </g>
  <g id="axes_1">
   <g id="patch_2">
    <path d="M 51.426803 192.888041 
L 284.896135 192.888041 
L 284.896135 10.625475 
L 51.426803 10.625475 
L 51.426803 192.888041 
z
" style="fill: none"/>
   </g>
   <g id="matplotlib.axis_1">
    <g id="xtick_1">
     <g id="line2d_1">
      <path d="M 62.039045 192.888041 
L 62.039045 10.625475 
" clip-path="url(#pd3836817d2)" style="fill: none; stroke: #cccccc; stroke-linecap: round"/>
     </g>
     <g id="line2d_2">
      <defs>
       <path id="mef9611b5b7" d="M 0 0 
L 0 6 
" style="stroke: #262626; stroke-width: 1.5"/>
      </defs>
      <g>
       <use xlink:href="#mef9611b5b7" x="62.039045" y="192.888041" style="fill: #262626; stroke: #262626; stroke-width: 1.5"/>
      </g>
     </g>
     <g id="text_1">
      <!-- −1 -->
      <g style="fill: #262626" transform="translate(53.487873 213.12476) scale(0.15 -0.15)">
       <defs>
        <path id="ArialMT-2212" d="M 3381 1997 
L 356 1997 
L 356 2522 
L 3381 2522 
L 3381 1997 
z
" transform="scale(0.015625)"/>
        <path id="ArialMT-31" d="M 2384 0 
L 1822 0 
L 1822 3584 
Q 1619 3391 1289 3197 
Q 959 3003 697 2906 
L 697 3450 
Q 1169 3672 1522 3987 
Q 1875 4303 2022 4600 
L 2384 4600 
L 2384 0 
z
" transform="scale(0.015625)"/>
       </defs>
       <use xlink:href="#ArialMT-2212"/>
       <use xlink:href="#ArialMT-31" x="58.398438"/>
      </g>
     </g>
    </g>
    <g id="xtick_2">
     <g id="line2d_3">
      <path d="M 168.161469 192.888041 
L 168.161469 10.625475 
" clip-path="url(#pd3836817d2)" style="fill: none; stroke: #cccccc; stroke-linecap: round"/>
     </g>
     <g id="line2d_4">
      <g>
       <use xlink:href="#mef9611b5b7" x="168.161469" y="192.888041" style="fill: #262626; stroke: #262626; stroke-width: 1.5"/>
      </g>
     </g>
     <g id="text_2">
      <!-- 0 -->
      <g style="fill: #262626" transform="translate(163.990765 213.12476) scale(0.15 -0.15)">
       <defs>
        <path id="ArialMT-30" d="M 266 2259 
Q 266 3072 433 3567 
Q 600 4063 929 4331 
Q 1259 4600 1759 4600 
Q 2128 4600 2406 4451 
Q 2684 4303 2865 4023 
Q 3047 3744 3150 3342 
Q 3253 2941 3253 2259 
Q 3253 1453 3087 958 
Q 2922 463 2592 192 
Q 2263 -78 1759 -78 
Q 1097 -78 719 397 
Q 266 969 266 2259 
z
M 844 2259 
Q 844 1131 1108 757 
Q 1372 384 1759 384 
Q 2147 384 2411 759 
Q 2675 1134 2675 2259 
Q 2675 3391 2411 3762 
Q 2147 4134 1753 4134 
Q 1366 4134 1134 3806 
Q 844 3388 844 2259 
z
" transform="scale(0.015625)"/>
       </defs>
       <use xlink:href="#ArialMT-30"/>
      </g>
     </g>
    </g>
    <g id="xtick_3">
     <g id="line2d_5">
      <path d="M 274.283892 192.888041 
L 274.283892 10.625475 
" clip-path="url(#pd3836817d2)" style="fill: none; stroke: #cccccc; stroke-linecap: round"/>
     </g>
     <g id="line2d_6">
      <g>
       <use xlink:href="#mef9611b5b7" x="274.283892" y="192.888041" style="fill: #262626; stroke: #262626; stroke-width: 1.5"/>
      </g>
     </g>
     <g id="text_3">
      <!-- 1 -->
      <g style="fill: #262626" transform="translate(270.113189 213.12476) scale(0.15 -0.15)">
       <use xlink:href="#ArialMT-31"/>
      </g>
     </g>
    </g>
    <g id="text_4">
     <!-- heading -->
     <g style="fill: #262626" transform="translate(141.470844 230.842729) scale(0.15 -0.15)">
      <defs>
       <path id="ArialMT-68" d="M 422 0 
L 422 4581 
L 984 4581 
L 984 2938 
Q 1378 3394 1978 3394 
Q 2347 3394 2619 3248 
Q 2891 3103 3008 2847 
Q 3125 2591 3125 2103 
L 3125 0 
L 2563 0 
L 2563 2103 
Q 2563 2525 2380 2717 
Q 2197 2909 1863 2909 
Q 1613 2909 1392 2779 
Q 1172 2650 1078 2428 
Q 984 2206 984 1816 
L 984 0 
L 422 0 
z
" transform="scale(0.015625)"/>
       <path id="ArialMT-65" d="M 2694 1069 
L 3275 997 
Q 3138 488 2766 206 
Q 2394 -75 1816 -75 
Q 1088 -75 661 373 
Q 234 822 234 1631 
Q 234 2469 665 2931 
Q 1097 3394 1784 3394 
Q 2450 3394 2872 2941 
Q 3294 2488 3294 1666 
Q 3294 1616 3291 1516 
L 816 1516 
Q 847 969 1125 678 
Q 1403 388 1819 388 
Q 2128 388 2347 550 
Q 2566 713 2694 1069 
z
M 847 1978 
L 2700 1978 
Q 2663 2397 2488 2606 
Q 2219 2931 1791 2931 
Q 1403 2931 1139 2672 
Q 875 2413 847 1978 
z
" transform="scale(0.015625)"/>
       <path id="ArialMT-61" d="M 2588 409 
Q 2275 144 1986 34 
Q 1697 -75 1366 -75 
Q 819 -75 525 192 
Q 231 459 231 875 
Q 231 1119 342 1320 
Q 453 1522 633 1644 
Q 813 1766 1038 1828 
Q 1203 1872 1538 1913 
Q 2219 1994 2541 2106 
Q 2544 2222 2544 2253 
Q 2544 2597 2384 2738 
Q 2169 2928 1744 2928 
Q 1347 2928 1158 2789 
Q 969 2650 878 2297 
L 328 2372 
Q 403 2725 575 2942 
Q 747 3159 1072 3276 
Q 1397 3394 1825 3394 
Q 2250 3394 2515 3294 
Q 2781 3194 2906 3042 
Q 3031 2891 3081 2659 
Q 3109 2516 3109 2141 
L 3109 1391 
Q 3109 606 3145 398 
Q 3181 191 3288 0 
L 2700 0 
Q 2613 175 2588 409 
z
M 2541 1666 
Q 2234 1541 1622 1453 
Q 1275 1403 1131 1340 
Q 988 1278 909 1158 
Q 831 1038 831 891 
Q 831 666 1001 516 
Q 1172 366 1500 366 
Q 1825 366 2078 508 
Q 2331 650 2450 897 
Q 2541 1088 2541 1459 
L 2541 1666 
z
" transform="scale(0.015625)"/>
       <path id="ArialMT-64" d="M 2575 0 
L 2575 419 
Q 2259 -75 1647 -75 
Q 1250 -75 917 144 
Q 584 363 401 755 
Q 219 1147 219 1656 
Q 219 2153 384 2558 
Q 550 2963 881 3178 
Q 1213 3394 1622 3394 
Q 1922 3394 2156 3267 
Q 2391 3141 2538 2938 
L 2538 4581 
L 3097 4581 
L 3097 0 
L 2575 0 
z
M 797 1656 
Q 797 1019 1065 703 
Q 1334 388 1700 388 
Q 2069 388 2326 689 
Q 2584 991 2584 1609 
Q 2584 2291 2321 2609 
Q 2059 2928 1675 2928 
Q 1300 2928 1048 2622 
Q 797 2316 797 1656 
z
" transform="scale(0.015625)"/>
       <path id="ArialMT-69" d="M 425 3934 
L 425 4581 
L 988 4581 
L 988 3934 
L 425 3934 
z
M 425 0 
L 425 3319 
L 988 3319 
L 988 0 
L 425 0 
z
" transform="scale(0.015625)"/>
       <path id="ArialMT-6e" d="M 422 0 
L 422 3319 
L 928 3319 
L 928 2847 
Q 1294 3394 1984 3394 
Q 2284 3394 2536 3286 
Q 2788 3178 2913 3003 
Q 3038 2828 3088 2588 
Q 3119 2431 3119 2041 
L 3119 0 
L 2556 0 
L 2556 2019 
Q 2556 2363 2490 2533 
Q 2425 2703 2258 2804 
Q 2091 2906 1866 2906 
Q 1506 2906 1245 2678 
Q 984 2450 984 1813 
L 984 0 
L 422 0 
z
" transform="scale(0.015625)"/>
       <path id="ArialMT-67" d="M 319 -275 
L 866 -356 
Q 900 -609 1056 -725 
Q 1266 -881 1628 -881 
Q 2019 -881 2231 -725 
Q 2444 -569 2519 -288 
Q 2563 -116 2559 434 
Q 2191 0 1641 0 
Q 956 0 581 494 
Q 206 988 206 1678 
Q 206 2153 378 2554 
Q 550 2956 876 3175 
Q 1203 3394 1644 3394 
Q 2231 3394 2613 2919 
L 2613 3319 
L 3131 3319 
L 3131 450 
Q 3131 -325 2973 -648 
Q 2816 -972 2473 -1159 
Q 2131 -1347 1631 -1347 
Q 1038 -1347 672 -1080 
Q 306 -813 319 -275 
z
M 784 1719 
Q 784 1066 1043 766 
Q 1303 466 1694 466 
Q 2081 466 2343 764 
Q 2606 1063 2606 1700 
Q 2606 2309 2336 2618 
Q 2066 2928 1684 2928 
Q 1309 2928 1046 2623 
Q 784 2319 784 1719 
z
" transform="scale(0.015625)"/>
      </defs>
      <use xlink:href="#ArialMT-68"/>
      <use xlink:href="#ArialMT-65" x="55.615234"/>
      <use xlink:href="#ArialMT-61" x="111.230469"/>
      <use xlink:href="#ArialMT-64" x="166.845703"/>
      <use xlink:href="#ArialMT-69" x="222.460938"/>
      <use xlink:href="#ArialMT-6e" x="244.677734"/>
      <use xlink:href="#ArialMT-67" x="300.292969"/>
     </g>
    </g>
   </g>
   <g id="matplotlib.axis_2">
    <g id="ytick_1">
     <g id="line2d_7">
      <path d="M 51.426803 184.603379 
L 284.896135 184.603379 
" clip-path="url(#pd3836817d2)" style="fill: none; stroke: #cccccc; stroke-linecap: round"/>
     </g>
     <g id="line2d_8">
      <defs>
       <path id="md4cb02f796" d="M 0 0 
L -6 0 
" style="stroke: #262626; stroke-width: 1.5"/>
      </defs>
      <g>
       <use xlink:href="#md4cb02f796" x="51.426803" y="184.603379" style="fill: #262626; stroke: #262626; stroke-width: 1.5"/>
      </g>
     </g>
     <g id="text_5">
      <!-- 0.0 -->
      <g style="fill: #262626" transform="translate(21.076803 189.971739) scale(0.15 -0.15)">
       <defs>
        <path id="ArialMT-2e" d="M 581 0 
L 581 641 
L 1222 641 
L 1222 0 
L 581 0 
z
" transform="scale(0.015625)"/>
       </defs>
       <use xlink:href="#ArialMT-30"/>
       <use xlink:href="#ArialMT-2e" x="55.615234"/>
       <use xlink:href="#ArialMT-30" x="83.398438"/>
      </g>
     </g>
    </g>
    <g id="ytick_2">
     <g id="line2d_9">
      <path d="M 51.426803 101.756758 
L 284.896135 101.756758 
" clip-path="url(#pd3836817d2)" style="fill: none; stroke: #cccccc; stroke-linecap: round"/>
     </g>
     <g id="line2d_10">
      <g>
       <use xlink:href="#md4cb02f796" x="51.426803" y="101.756758" style="fill: #262626; stroke: #262626; stroke-width: 1.5"/>
      </g>
     </g>
     <g id="text_6">
      <!-- 0.5 -->
      <g style="fill: #262626" transform="translate(21.076803 107.125118) scale(0.15 -0.15)">
       <defs>
        <path id="ArialMT-35" d="M 266 1200 
L 856 1250 
Q 922 819 1161 601 
Q 1400 384 1738 384 
Q 2144 384 2425 690 
Q 2706 997 2706 1503 
Q 2706 1984 2436 2262 
Q 2166 2541 1728 2541 
Q 1456 2541 1237 2417 
Q 1019 2294 894 2097 
L 366 2166 
L 809 4519 
L 3088 4519 
L 3088 3981 
L 1259 3981 
L 1013 2750 
Q 1425 3038 1878 3038 
Q 2478 3038 2890 2622 
Q 3303 2206 3303 1553 
Q 3303 931 2941 478 
Q 2500 -78 1738 -78 
Q 1113 -78 717 272 
Q 322 622 266 1200 
z
" transform="scale(0.015625)"/>
       </defs>
       <use xlink:href="#ArialMT-30"/>
       <use xlink:href="#ArialMT-2e" x="55.615234"/>
       <use xlink:href="#ArialMT-35" x="83.398438"/>
      </g>
     </g>
    </g>
    <g id="ytick_3">
     <g id="line2d_11">
      <path d="M 51.426803 18.910137 
L 284.896135 18.910137 
" clip-path="url(#pd3836817d2)" style="fill: none; stroke: #cccccc; stroke-linecap: round"/>
     </g>
     <g id="line2d_12">
      <g>
       <use xlink:href="#md4cb02f796" x="51.426803" y="18.910137" style="fill: #262626; stroke: #262626; stroke-width: 1.5"/>
      </g>
     </g>
     <g id="text_7">
      <!-- 1.0 -->
      <g style="fill: #262626" transform="translate(21.076803 24.278497) scale(0.15 -0.15)">
       <use xlink:href="#ArialMT-31"/>
       <use xlink:href="#ArialMT-2e" x="55.615234"/>
       <use xlink:href="#ArialMT-30" x="83.398438"/>
      </g>
     </g>
    </g>
    <g id="text_8">
     <!-- P(choice 1) -->
     <g style="fill: #262626" transform="translate(13.919771 139.686836) rotate(-90) scale(0.15 -0.15)">
      <defs>
       <path id="ArialMT-50" d="M 494 0 
L 494 4581 
L 2222 4581 
Q 2678 4581 2919 4538 
Q 3256 4481 3484 4323 
Q 3713 4166 3852 3881 
Q 3991 3597 3991 3256 
Q 3991 2672 3619 2267 
Q 3247 1863 2275 1863 
L 1100 1863 
L 1100 0 
L 494 0 
z
M 1100 2403 
L 2284 2403 
Q 2872 2403 3119 2622 
Q 3366 2841 3366 3238 
Q 3366 3525 3220 3729 
Q 3075 3934 2838 4000 
Q 2684 4041 2272 4041 
L 1100 4041 
L 1100 2403 
z
" transform="scale(0.015625)"/>
       <path id="ArialMT-28" d="M 1497 -1347 
Q 1031 -759 709 28 
Q 388 816 388 1659 
Q 388 2403 628 3084 
Q 909 3875 1497 4659 
L 1900 4659 
Q 1522 4009 1400 3731 
Q 1209 3300 1100 2831 
Q 966 2247 966 1656 
Q 966 153 1900 -1347 
L 1497 -1347 
z
" transform="scale(0.015625)"/>
       <path id="ArialMT-63" d="M 2588 1216 
L 3141 1144 
Q 3050 572 2676 248 
Q 2303 -75 1759 -75 
Q 1078 -75 664 370 
Q 250 816 250 1647 
Q 250 2184 428 2587 
Q 606 2991 970 3192 
Q 1334 3394 1763 3394 
Q 2303 3394 2647 3120 
Q 2991 2847 3088 2344 
L 2541 2259 
Q 2463 2594 2264 2762 
Q 2066 2931 1784 2931 
Q 1359 2931 1093 2626 
Q 828 2322 828 1663 
Q 828 994 1084 691 
Q 1341 388 1753 388 
Q 2084 388 2306 591 
Q 2528 794 2588 1216 
z
" transform="scale(0.015625)"/>
       <path id="ArialMT-6f" d="M 213 1659 
Q 213 2581 725 3025 
Q 1153 3394 1769 3394 
Q 2453 3394 2887 2945 
Q 3322 2497 3322 1706 
Q 3322 1066 3130 698 
Q 2938 331 2570 128 
Q 2203 -75 1769 -75 
Q 1072 -75 642 372 
Q 213 819 213 1659 
z
M 791 1659 
Q 791 1022 1069 705 
Q 1347 388 1769 388 
Q 2188 388 2466 706 
Q 2744 1025 2744 1678 
Q 2744 2294 2464 2611 
Q 2184 2928 1769 2928 
Q 1347 2928 1069 2612 
Q 791 2297 791 1659 
z
" transform="scale(0.015625)"/>
       <path id="ArialMT-20" transform="scale(0.015625)"/>
       <path id="ArialMT-29" d="M 791 -1347 
L 388 -1347 
Q 1322 153 1322 1656 
Q 1322 2244 1188 2822 
Q 1081 3291 891 3722 
Q 769 4003 388 4659 
L 791 4659 
Q 1378 3875 1659 3084 
Q 1900 2403 1900 1659 
Q 1900 816 1576 28 
Q 1253 -759 791 -1347 
z
" transform="scale(0.015625)"/>
      </defs>
      <use xlink:href="#ArialMT-50"/>
      <use xlink:href="#ArialMT-28" x="66.699219"/>
      <use xlink:href="#ArialMT-63" x="100"/>
      <use xlink:href="#ArialMT-68" x="150"/>
      <use xlink:href="#ArialMT-6f" x="205.615234"/>
      <use xlink:href="#ArialMT-69" x="261.230469"/>
      <use xlink:href="#ArialMT-63" x="283.447266"/>
      <use xlink:href="#ArialMT-65" x="333.447266"/>
      <use xlink:href="#ArialMT-20" x="389.0625"/>
      <use xlink:href="#ArialMT-31" x="416.845703"/>
      <use xlink:href="#ArialMT-29" x="472.460938"/>
     </g>
    </g>
   </g>
   <g id="line2d_13">
    <defs>
     <path id="m8865917b2d" d="M 0 1.75 
C 0.464105 1.75 0.909265 1.565609 1.237437 1.237437 
C 1.565609 0.909265 1.75 0.464105 1.75 0 
C 1.75 -0.464105 1.565609 -0.909265 1.237437 -1.237437 
C 0.909265 -1.565609 0.464105 -1.75 0 -1.75 
C -0.464105 -1.75 -0.909265 -1.565609 -1.237437 -1.237437 
C -1.565609 -0.909265 -1.75 -0.464105 -1.75 0 
C -1.75 0.464105 -1.565609 0.909265 -1.237437 1.237437 
C -0.909265 1.565609 -0.464105 1.75 0 1.75 
z
" style="stroke: #222222"/>
    </defs>
    <g clip-path="url(#pd3836817d2)">
     <use xlink:href="#m8865917b2d" x="62.039045" y="160.439782" style="fill: #222222; stroke: #222222"/>
     <use xlink:href="#m8865917b2d" x="274.283892" y="164.314411" style="fill: #222222; stroke: #222222"/>
     <use xlink:href="#m8865917b2d" x="115.100257" y="171.34792" style="fill: #222222; stroke: #222222"/>
     <use xlink:href="#m8865917b2d" x="221.22268" y="181.289514" style="fill: #222222; stroke: #222222"/>
     <use xlink:href="#m8865917b2d" x="157.549226" y="171.34792" style="fill: #222222; stroke: #222222"/>
     <use xlink:href="#m8865917b2d" x="178.773711" y="171.34792" style="fill: #222222; stroke: #222222"/>
     <use xlink:href="#m8865917b2d" x="162.855347" y="167.695905" style="fill: #222222; stroke: #222222"/>
     <use xlink:href="#m8865917b2d" x="173.46759" y="171.34792" style="fill: #222222; stroke: #222222"/>
     <use xlink:href="#m8865917b2d" x="168.161469" y="171.34792" style="fill: #222222; stroke: #222222"/>
     <use xlink:href="#m8865917b2d" x="168.161469" y="158.092461" style="fill: #222222; stroke: #222222"/>
    </g>
   </g>
   <g id="line2d_14">
    <path d="M 62.039045 182.999081 
L 64.182932 182.858787 
L 66.32682 182.707922 
L 68.470707 182.545849 
L 70.614594 182.371908 
L 72.758482 182.185417 
L 74.902369 181.985667 
L 77.046256 181.771928 
L 79.190144 181.543446 
L 81.334031 181.299448 
L 83.477918 181.039137 
L 85.621806 180.761698 
L 87.765693 180.466298 
L 89.90958 180.152086 
L 92.053468 179.818194 
L 94.197355 179.463742 
L 96.341242 179.087837 
L 98.48513 178.689575 
L 100.629017 178.268046 
L 102.772904 177.822332 
L 104.916792 177.351513 
L 107.060679 176.854668 
L 109.204567 176.330877 
L 111.348454 175.779227 
L 113.492341 175.198813 
L 115.636229 174.588739 
L 117.780116 173.948125 
L 119.924003 173.27611 
L 122.067891 172.571854 
L 124.211778 171.83454 
L 126.355665 171.063383 
L 128.499553 170.257628 
L 130.64344 169.416559 
L 132.787327 168.539497 
L 134.931215 167.625809 
L 137.075102 166.67491 
L 139.218989 165.686263 
L 141.362877 164.659391 
L 143.506764 163.593872 
L 145.650651 162.489348 
L 147.794539 161.345526 
L 149.938426 160.162182 
L 152.082314 158.939164 
L 154.226201 157.676395 
L 156.370088 156.373875 
L 158.513976 155.031686 
L 160.657863 153.649989 
L 162.80175 152.229032 
L 164.945638 150.769148 
L 167.089525 149.270758 
L 169.233412 147.73437 
L 171.3773 146.160582 
L 173.521187 144.550082 
L 175.665074 142.903648 
L 177.808962 141.222145 
L 179.952849 139.50653 
L 182.096736 137.757846 
L 184.240624 135.977222 
L 186.384511 134.165872 
L 188.528398 132.325093 
L 190.672286 130.456261 
L 192.816173 128.560828 
L 194.96006 126.640323 
L 197.103948 124.696343 
L 199.247835 122.73055 
L 201.391723 120.744672 
L 203.53561 118.740491 
L 205.679497 116.719844 
L 207.823385 114.684616 
L 209.967272 112.636732 
L 212.111159 110.578157 
L 214.255047 108.510887 
L 216.398934 106.436942 
L 218.542821 104.358365 
L 220.686709 102.277208 
L 222.830596 100.195536 
L 224.974483 98.115412 
L 227.118371 96.038895 
L 229.262258 93.968033 
L 231.406145 91.904859 
L 233.550033 89.851383 
L 235.69392 87.809583 
L 237.837807 85.781407 
L 239.981695 83.76876 
L 242.125582 81.773504 
L 244.269469 79.79745 
L 246.413357 77.842351 
L 248.557244 75.909905 
L 250.701132 74.00174 
L 252.845019 72.119422 
L 254.988906 70.264439 
L 257.132794 68.438207 
L 259.276681 66.642064 
L 261.420568 64.877263 
L 263.564456 63.144978 
L 265.708343 61.446294 
L 267.85223 59.782212 
L 269.996118 58.153642 
L 272.140005 56.561406 
L 274.283892 55.006238 
" clip-path="url(#pd3836817d2)" style="fill: none; stroke: #222222; stroke-linecap: round"/>
   </g>
   <g id="patch_3">
    <path d="M 51.426803 192.888041 
L 51.426803 10.625475 
" style="fill: none; stroke: #cccccc; stroke-width: 1.5; stroke-linejoin: miter; stroke-linecap: square"/>
   </g>
   <g id="patch_4">
    <path d="M 51.426802 192.888041 
L 284.896135 192.888041 
" style="fill: none; stroke: #cccccc; stroke-width: 1.5; stroke-linejoin: miter; stroke-linecap: square"/>
   </g>
   <g id="text_9">
    <g id="patch_5">
     <path d="M 292.519601 55.579209 
L 418.050617 55.579209 
L 418.050617 6.575475 
L 292.519601 6.575475 
z
" style="fill: #ffffff; opacity: 0.7"/>
    </g>
    <!-- Bias = 0.500 -->
    <g style="fill: #262626" transform="translate(296.569601 20.288522) scale(0.135 -0.135)">
     <defs>
      <path id="ArialMT-42" d="M 469 0 
L 469 4581 
L 2188 4581 
Q 2713 4581 3030 4442 
Q 3347 4303 3526 4014 
Q 3706 3725 3706 3409 
Q 3706 3116 3547 2856 
Q 3388 2597 3066 2438 
Q 3481 2316 3704 2022 
Q 3928 1728 3928 1328 
Q 3928 1006 3792 729 
Q 3656 453 3456 303 
Q 3256 153 2954 76 
Q 2653 0 2216 0 
L 469 0 
z
M 1075 2656 
L 2066 2656 
Q 2469 2656 2644 2709 
Q 2875 2778 2992 2937 
Q 3109 3097 3109 3338 
Q 3109 3566 3000 3739 
Q 2891 3913 2687 3977 
Q 2484 4041 1991 4041 
L 1075 4041 
L 1075 2656 
z
M 1075 541 
L 2216 541 
Q 2509 541 2628 563 
Q 2838 600 2978 687 
Q 3119 775 3209 942 
Q 3300 1109 3300 1328 
Q 3300 1584 3169 1773 
Q 3038 1963 2805 2039 
Q 2572 2116 2134 2116 
L 1075 2116 
L 1075 541 
z
" transform="scale(0.015625)"/>
      <path id="ArialMT-73" d="M 197 991 
L 753 1078 
Q 800 744 1014 566 
Q 1228 388 1613 388 
Q 2000 388 2187 545 
Q 2375 703 2375 916 
Q 2375 1106 2209 1216 
Q 2094 1291 1634 1406 
Q 1016 1563 777 1677 
Q 538 1791 414 1992 
Q 291 2194 291 2438 
Q 291 2659 392 2848 
Q 494 3038 669 3163 
Q 800 3259 1026 3326 
Q 1253 3394 1513 3394 
Q 1903 3394 2198 3281 
Q 2494 3169 2634 2976 
Q 2775 2784 2828 2463 
L 2278 2388 
Q 2241 2644 2061 2787 
Q 1881 2931 1553 2931 
Q 1166 2931 1000 2803 
Q 834 2675 834 2503 
Q 834 2394 903 2306 
Q 972 2216 1119 2156 
Q 1203 2125 1616 2013 
Q 2213 1853 2448 1751 
Q 2684 1650 2818 1456 
Q 2953 1263 2953 975 
Q 2953 694 2789 445 
Q 2625 197 2315 61 
Q 2006 -75 1616 -75 
Q 969 -75 630 194 
Q 291 463 197 991 
z
" transform="scale(0.015625)"/>
      <path id="ArialMT-3d" d="M 3381 2694 
L 356 2694 
L 356 3219 
L 3381 3219 
L 3381 2694 
z
M 3381 1303 
L 356 1303 
L 356 1828 
L 3381 1828 
L 3381 1303 
z
" transform="scale(0.015625)"/>
     </defs>
     <use xlink:href="#ArialMT-42"/>
     <use xlink:href="#ArialMT-69" x="66.699219"/>
     <use xlink:href="#ArialMT-61" x="88.916016"/>
     <use xlink:href="#ArialMT-73" x="144.53125"/>
     <use xlink:href="#ArialMT-20" x="194.53125"/>
     <use xlink:href="#ArialMT-3d" x="222.314453"/>
     <use xlink:href="#ArialMT-20" x="280.712891"/>
     <use xlink:href="#ArialMT-30" x="308.496094"/>
     <use xlink:href="#ArialMT-2e" x="364.111328"/>
     <use xlink:href="#ArialMT-35" x="391.894531"/>
     <use xlink:href="#ArialMT-30" x="447.509766"/>
     <use xlink:href="#ArialMT-30" x="503.125"/>
    </g>
    <!-- Threshold = 0.433 -->
    <g style="fill: #262626" transform="translate(296.569601 34.567303) scale(0.135 -0.135)">
     <defs>
      <path id="ArialMT-54" d="M 1659 0 
L 1659 4041 
L 150 4041 
L 150 4581 
L 3781 4581 
L 3781 4041 
L 2266 4041 
L 2266 0 
L 1659 0 
z
" transform="scale(0.015625)"/>
      <path id="ArialMT-72" d="M 416 0 
L 416 3319 
L 922 3319 
L 922 2816 
Q 1116 3169 1280 3281 
Q 1444 3394 1641 3394 
Q 1925 3394 2219 3213 
L 2025 2691 
Q 1819 2813 1613 2813 
Q 1428 2813 1281 2702 
Q 1134 2591 1072 2394 
Q 978 2094 978 1738 
L 978 0 
L 416 0 
z
" transform="scale(0.015625)"/>
      <path id="ArialMT-6c" d="M 409 0 
L 409 4581 
L 972 4581 
L 972 0 
L 409 0 
z
" transform="scale(0.015625)"/>
      <path id="ArialMT-34" d="M 2069 0 
L 2069 1097 
L 81 1097 
L 81 1613 
L 2172 4581 
L 2631 4581 
L 2631 1613 
L 3250 1613 
L 3250 1097 
L 2631 1097 
L 2631 0 
L 2069 0 
z
M 2069 1613 
L 2069 3678 
L 634 1613 
L 2069 1613 
z
" transform="scale(0.015625)"/>
      <path id="ArialMT-33" d="M 269 1209 
L 831 1284 
Q 928 806 1161 595 
Q 1394 384 1728 384 
Q 2125 384 2398 659 
Q 2672 934 2672 1341 
Q 2672 1728 2419 1979 
Q 2166 2231 1775 2231 
Q 1616 2231 1378 2169 
L 1441 2663 
Q 1497 2656 1531 2656 
Q 1891 2656 2178 2843 
Q 2466 3031 2466 3422 
Q 2466 3731 2256 3934 
Q 2047 4138 1716 4138 
Q 1388 4138 1169 3931 
Q 950 3725 888 3313 
L 325 3413 
Q 428 3978 793 4289 
Q 1159 4600 1703 4600 
Q 2078 4600 2393 4439 
Q 2709 4278 2876 4000 
Q 3044 3722 3044 3409 
Q 3044 3113 2884 2869 
Q 2725 2625 2413 2481 
Q 2819 2388 3044 2092 
Q 3269 1797 3269 1353 
Q 3269 753 2831 336 
Q 2394 -81 1725 -81 
Q 1122 -81 723 278 
Q 325 638 269 1209 
z
" transform="scale(0.015625)"/>
     </defs>
     <use xlink:href="#ArialMT-54"/>
     <use xlink:href="#ArialMT-68" x="61.083984"/>
     <use xlink:href="#ArialMT-72" x="116.699219"/>
     <use xlink:href="#ArialMT-65" x="150"/>
     <use xlink:href="#ArialMT-73" x="205.615234"/>
     <use xlink:href="#ArialMT-68" x="255.615234"/>
     <use xlink:href="#ArialMT-6f" x="311.230469"/>
     <use xlink:href="#ArialMT-6c" x="366.845703"/>
     <use xlink:href="#ArialMT-64" x="389.0625"/>
     <use xlink:href="#ArialMT-20" x="444.677734"/>
     <use xlink:href="#ArialMT-3d" x="472.460938"/>
     <use xlink:href="#ArialMT-20" x="530.859375"/>
     <use xlink:href="#ArialMT-30" x="558.642578"/>
     <use xlink:href="#ArialMT-2e" x="614.257812"/>
     <use xlink:href="#ArialMT-34" x="642.041016"/>
     <use xlink:href="#ArialMT-33" x="697.65625"/>
     <use xlink:href="#ArialMT-33" x="753.271484"/>
    </g>
    <!-- correct rate = 0.490 -->
    <g style="fill: #262626" transform="translate(296.569601 48.846084) scale(0.135 -0.135)">
     <defs>
      <path id="ArialMT-74" d="M 1650 503 
L 1731 6 
Q 1494 -44 1306 -44 
Q 1000 -44 831 53 
Q 663 150 594 308 
Q 525 466 525 972 
L 525 2881 
L 113 2881 
L 113 3319 
L 525 3319 
L 525 4141 
L 1084 4478 
L 1084 3319 
L 1650 3319 
L 1650 2881 
L 1084 2881 
L 1084 941 
Q 1084 700 1114 631 
Q 1144 563 1211 522 
Q 1278 481 1403 481 
Q 1497 481 1650 503 
z
" transform="scale(0.015625)"/>
      <path id="ArialMT-39" d="M 350 1059 
L 891 1109 
Q 959 728 1153 556 
Q 1347 384 1650 384 
Q 1909 384 2104 503 
Q 2300 622 2425 820 
Q 2550 1019 2634 1356 
Q 2719 1694 2719 2044 
Q 2719 2081 2716 2156 
Q 2547 1888 2255 1720 
Q 1963 1553 1622 1553 
Q 1053 1553 659 1965 
Q 266 2378 266 3053 
Q 266 3750 677 4175 
Q 1088 4600 1706 4600 
Q 2153 4600 2523 4359 
Q 2894 4119 3086 3673 
Q 3278 3228 3278 2384 
Q 3278 1506 3087 986 
Q 2897 466 2520 194 
Q 2144 -78 1638 -78 
Q 1100 -78 759 220 
Q 419 519 350 1059 
z
M 2653 3081 
Q 2653 3566 2395 3850 
Q 2138 4134 1775 4134 
Q 1400 4134 1122 3828 
Q 844 3522 844 3034 
Q 844 2597 1108 2323 
Q 1372 2050 1759 2050 
Q 2150 2050 2401 2323 
Q 2653 2597 2653 3081 
z
" transform="scale(0.015625)"/>
     </defs>
     <use xlink:href="#ArialMT-63"/>
     <use xlink:href="#ArialMT-6f" x="50"/>
     <use xlink:href="#ArialMT-72" x="105.615234"/>
     <use xlink:href="#ArialMT-72" x="138.916016"/>
     <use xlink:href="#ArialMT-65" x="172.216797"/>
     <use xlink:href="#ArialMT-63" x="227.832031"/>
     <use xlink:href="#ArialMT-74" x="277.832031"/>
     <use xlink:href="#ArialMT-20" x="305.615234"/>
     <use xlink:href="#ArialMT-72" x="333.398438"/>
     <use xlink:href="#ArialMT-61" x="366.699219"/>
     <use xlink:href="#ArialMT-74" x="422.314453"/>
     <use xlink:href="#ArialMT-65" x="450.097656"/>
     <use xlink:href="#ArialMT-20" x="505.712891"/>
     <use xlink:href="#ArialMT-3d" x="533.496094"/>
     <use xlink:href="#ArialMT-20" x="591.894531"/>
     <use xlink:href="#ArialMT-30" x="619.677734"/>
     <use xlink:href="#ArialMT-2e" x="675.292969"/>
     <use xlink:href="#ArialMT-34" x="703.076172"/>
     <use xlink:href="#ArialMT-39" x="758.691406"/>
     <use xlink:href="#ArialMT-30" x="814.306641"/>
    </g>
   </g>
   <g id="text_10">
    <!-- coltargdm -->
    <g style="fill: #262626" transform="translate(135.234125 13.738603) scale(0.15 -0.15)">
     <defs>
      <path id="ArialMT-6d" d="M 422 0 
L 422 3319 
L 925 3319 
L 925 2853 
Q 1081 3097 1340 3245 
Q 1600 3394 1931 3394 
Q 2300 3394 2536 3241 
Q 2772 3088 2869 2813 
Q 3263 3394 3894 3394 
Q 4388 3394 4653 3120 
Q 4919 2847 4919 2278 
L 4919 0 
L 4359 0 
L 4359 2091 
Q 4359 2428 4304 2576 
Q 4250 2725 4106 2815 
Q 3963 2906 3769 2906 
Q 3419 2906 3187 2673 
Q 2956 2441 2956 1928 
L 2956 0 
L 2394 0 
L 2394 2156 
Q 2394 2531 2256 2718 
Q 2119 2906 1806 2906 
Q 1569 2906 1367 2781 
Q 1166 2656 1075 2415 
Q 984 2175 984 1722 
L 984 0 
L 422 0 
z
" transform="scale(0.015625)"/>
     </defs>
     <use xlink:href="#ArialMT-63"/>
     <use xlink:href="#ArialMT-6f" x="50"/>
     <use xlink:href="#ArialMT-6c" x="105.615234"/>
     <use xlink:href="#ArialMT-74" x="127.832031"/>
     <use xlink:href="#ArialMT-61" x="155.615234"/>
     <use xlink:href="#ArialMT-72" x="211.230469"/>
     <use xlink:href="#ArialMT-67" x="244.53125"/>
     <use xlink:href="#ArialMT-64" x="300.146484"/>
     <use xlink:href="#ArialMT-6d" x="355.761719"/>
    </g>
   </g>
  </g>
 </g>
 <defs>
  <clipPath id="pd3836817d2">
   <rect x="51.426803" y="10.625475" width="233.469332" height="182.262566"/>
  </clipPath>
 </defs>
</svg>
