<?xml version="1.0" encoding="utf-8" standalone="no"?>
<!DOCTYPE svg PUBLIC "-//W3C//DTD SVG 1.1//EN"
  "http://www.w3.org/Graphics/SVG/1.1/DTD/svg11.dtd">
<svg xmlns:xlink="http://www.w3.org/1999/xlink" width="417pt" height="237pt" viewBox="0 0 417 237" xmlns="http://www.w3.org/2000/svg" version="1.1">
 <metadata>
  <rdf:RDF xmlns:dc="http://purl.org/dc/elements/1.1/" xmlns:cc="http://creativecommons.org/ns#" xmlns:rdf="http://www.w3.org/1999/02/22-rdf-syntax-ns#">
   <cc:Work>
    <dc:type rdf:resource="http://purl.org/dc/dcmitype/StillImage"/>
    <dc:date>2025-10-05T15:46:03.294021</dc:date>
    <dc:format>image/svg+xml</dc:format>
    <dc:creator>
     <cc:Agent>
      <dc:title>Matplotlib v3.9.4, https://matplotlib.org/</dc:title>
     </cc:Agent>
    </dc:creator>
   </cc:Work>
  </rdf:RDF>
 </metadata>
 <defs>
  <style type="text/css">*{stroke-linejoin: round; stroke-linecap: butt}</style>
 </defs>
 <g id="figure_1">
  <g id="patch_1">
   <path d="M 0 237 
L 417 237 
L 417 0 
L 0 0 
z
" style="fill: #ffffff"/>
  </g>
  <g id="axes_1">
   <g id="patch_2">
    <path d="M 54.872115 191.465385 
L 265.927607 191.465385 
L 265.927607 11.398467 
L 54.872115 11.398467 
L 54.872115 191.465385 
z
" style="fill: none"/>
   </g>
   <g id="matplotlib.axis_1">
    <g id="xtick_1">
     <g id="line2d_1">
      <defs>
       <path id="m6a32d20c18" d="M 0 0 
L 0 6 
" style="stroke: #000000; stroke-width: 1.5"/>
      </defs>
      <g>
       <use xlink:href="#m6a32d20c18" x="64.465546" y="191.465385" style="stroke: #000000; stroke-width: 1.5"/>
      </g>
     </g>
     <g id="text_1">
      <!-- −1 -->
      <g transform="translate(53.408906 212.363041) scale(0.15 -0.15)">
       <defs>
        <path id="DejaVuSans-2212" d="M 678 2272 
L 4684 2272 
L 4684 1741 
L 678 1741 
L 678 2272 
z
" transform="scale(0.015625)"/>
        <path id="DejaVuSans-31" d="M 794 531 
L 1825 531 
L 1825 4091 
L 703 3866 
L 703 4441 
L 1819 4666 
L 2450 4666 
L 2450 531 
L 3481 531 
L 3481 0 
L 794 0 
L 794 531 
z
" transform="scale(0.015625)"/>
       </defs>
       <use xlink:href="#DejaVuSans-2212"/>
       <use xlink:href="#DejaVuSans-31" x="83.789062"/>
      </g>
     </g>
    </g>
    <g id="xtick_2">
     <g id="line2d_2">
      <g>
       <use xlink:href="#m6a32d20c18" x="160.399861" y="191.465385" style="stroke: #000000; stroke-width: 1.5"/>
      </g>
     </g>
     <g id="text_2">
      <!-- 0 -->
      <g transform="translate(155.627986 212.363041) scale(0.15 -0.15)">
       <defs>
        <path id="DejaVuSans-30" d="M 2034 4250 
Q 1547 4250 1301 3770 
Q 1056 3291 1056 2328 
Q 1056 1369 1301 889 
Q 1547 409 2034 409 
Q 2525 409 2770 889 
Q 3016 1369 3016 2328 
Q 3016 3291 2770 3770 
Q 2525 4250 2034 4250 
z
M 2034 4750 
Q 2819 4750 3233 4129 
Q 3647 3509 3647 2328 
Q 3647 1150 3233 529 
Q 2819 -91 2034 -91 
Q 1250 -91 836 529 
Q 422 1150 422 2328 
Q 422 3509 836 4129 
Q 1250 4750 2034 4750 
z
" transform="scale(0.015625)"/>
       </defs>
       <use xlink:href="#DejaVuSans-30"/>
      </g>
     </g>
    </g>
    <g id="xtick_3">
     <g id="line2d_3">
      <g>
       <use xlink:href="#m6a32d20c18" x="256.334176" y="191.465385" style="stroke: #000000; stroke-width: 1.5"/>
      </g>
     </g>
     <g id="text_3">
      <!-- 1 -->
      <g transform="translate(251.562301 212.363041) scale(0.15 -0.15)">
       <use xlink:href="#DejaVuSans-31"/>
      </g>
     </g>
    </g>
    <g id="text_4">
     <!-- heading -->
     <g transform="translate(130.076424 230.880229) scale(0.15 -0.15)">
      <defs>
       <path id="DejaVuSans-68" d="M 3513 2113 
L 3513 0 
L 2938 0 
L 2938 2094 
Q 2938 2591 2744 2837 
Q 2550 3084 2163 3084 
Q 1697 3084 1428 2787 
Q 1159 2491 1159 1978 
L 1159 0 
L 581 0 
L 581 4863 
L 1159 4863 
L 1159 2956 
Q 1366 3272 1645 3428 
Q 1925 3584 2291 3584 
Q 2894 3584 3203 3211 
Q 3513 2838 3513 2113 
z
" transform="scale(0.015625)"/>
       <path id="DejaVuSans-65" d="M 3597 1894 
L 3597 1613 
L 953 1613 
Q 991 1019 1311 708 
Q 1631 397 2203 397 
Q 2534 397 2845 478 
Q 3156 559 3463 722 
L 3463 178 
Q 3153 47 2828 -22 
Q 2503 -91 2169 -91 
Q 1331 -91 842 396 
Q 353 884 353 1716 
Q 353 2575 817 3079 
Q 1281 3584 2069 3584 
Q 2775 3584 3186 3129 
Q 3597 2675 3597 1894 
z
M 3022 2063 
Q 3016 2534 2758 2815 
Q 2500 3097 2075 3097 
Q 1594 3097 1305 2825 
Q 1016 2553 972 2059 
L 3022 2063 
z
" transform="scale(0.015625)"/>
       <path id="DejaVuSans-61" d="M 2194 1759 
Q 1497 1759 1228 1600 
Q 959 1441 959 1056 
Q 959 750 1161 570 
Q 1363 391 1709 391 
Q 2188 391 2477 730 
Q 2766 1069 2766 1631 
L 2766 1759 
L 2194 1759 
z
M 3341 1997 
L 3341 0 
L 2766 0 
L 2766 531 
Q 2569 213 2275 61 
Q 1981 -91 1556 -91 
Q 1019 -91 701 211 
Q 384 513 384 1019 
Q 384 1609 779 1909 
Q 1175 2209 1959 2209 
L 2766 2209 
L 2766 2266 
Q 2766 2663 2505 2880 
Q 2244 3097 1772 3097 
Q 1472 3097 1187 3025 
Q 903 2953 641 2809 
L 641 3341 
Q 956 3463 1253 3523 
Q 1550 3584 1831 3584 
Q 2591 3584 2966 3190 
Q 3341 2797 3341 1997 
z
" transform="scale(0.015625)"/>
       <path id="DejaVuSans-64" d="M 2906 2969 
L 2906 4863 
L 3481 4863 
L 3481 0 
L 2906 0 
L 2906 525 
Q 2725 213 2448 61 
Q 2172 -91 1784 -91 
Q 1150 -91 751 415 
Q 353 922 353 1747 
Q 353 2572 751 3078 
Q 1150 3584 1784 3584 
Q 2172 3584 2448 3432 
Q 2725 3281 2906 2969 
z
M 947 1747 
Q 947 1113 1208 752 
Q 1469 391 1925 391 
Q 2381 391 2643 752 
Q 2906 1113 2906 1747 
Q 2906 2381 2643 2742 
Q 2381 3103 1925 3103 
Q 1469 3103 1208 2742 
Q 947 2381 947 1747 
z
" transform="scale(0.015625)"/>
       <path id="DejaVuSans-69" d="M 603 3500 
L 1178 3500 
L 1178 0 
L 603 0 
L 603 3500 
z
M 603 4863 
L 1178 4863 
L 1178 4134 
L 603 4134 
L 603 4863 
z
" transform="scale(0.015625)"/>
       <path id="DejaVuSans-6e" d="M 3513 2113 
L 3513 0 
L 2938 0 
L 2938 2094 
Q 2938 2591 2744 2837 
Q 2550 3084 2163 3084 
Q 1697 3084 1428 2787 
Q 1159 2491 1159 1978 
L 1159 0 
L 581 0 
L 581 3500 
L 1159 3500 
L 1159 2956 
Q 1366 3272 1645 3428 
Q 1925 3584 2291 3584 
Q 2894 3584 3203 3211 
Q 3513 2838 3513 2113 
z
" transform="scale(0.015625)"/>
       <path id="DejaVuSans-67" d="M 2906 1791 
Q 2906 2416 2648 2759 
Q 2391 3103 1925 3103 
Q 1463 3103 1205 2759 
Q 947 2416 947 1791 
Q 947 1169 1205 825 
Q 1463 481 1925 481 
Q 2391 481 2648 825 
Q 2906 1169 2906 1791 
z
M 3481 434 
Q 3481 -459 3084 -895 
Q 2688 -1331 1869 -1331 
Q 1566 -1331 1297 -1286 
Q 1028 -1241 775 -1147 
L 775 -588 
Q 1028 -725 1275 -790 
Q 1522 -856 1778 -856 
Q 2344 -856 2625 -561 
Q 2906 -266 2906 331 
L 2906 616 
Q 2728 306 2450 153 
Q 2172 0 1784 0 
Q 1141 0 747 490 
Q 353 981 353 1791 
Q 353 2603 747 3093 
Q 1141 3584 1784 3584 
Q 2172 3584 2450 3431 
Q 2728 3278 2906 2969 
L 2906 3500 
L 3481 3500 
L 3481 434 
z
" transform="scale(0.015625)"/>
      </defs>
      <use xlink:href="#DejaVuSans-68"/>
      <use xlink:href="#DejaVuSans-65" x="63.378906"/>
      <use xlink:href="#DejaVuSans-61" x="124.902344"/>
      <use xlink:href="#DejaVuSans-64" x="186.181641"/>
      <use xlink:href="#DejaVuSans-69" x="249.658203"/>
      <use xlink:href="#DejaVuSans-6e" x="277.441406"/>
      <use xlink:href="#DejaVuSans-67" x="340.820312"/>
     </g>
    </g>
   </g>
   <g id="matplotlib.axis_2">
    <g id="ytick_1">
     <g id="line2d_4">
      <defs>
       <path id="mda654627ad" d="M 0 0 
L -6 0 
" style="stroke: #000000; stroke-width: 1.5"/>
      </defs>
      <g>
       <use xlink:href="#mda654627ad" x="54.872115" y="183.280525" style="stroke: #000000; stroke-width: 1.5"/>
      </g>
     </g>
     <g id="text_5">
      <!-- 0.0 -->
      <g transform="translate(21.517428 188.979353) scale(0.15 -0.15)">
       <defs>
        <path id="DejaVuSans-2e" d="M 684 794 
L 1344 794 
L 1344 0 
L 684 0 
L 684 794 
z
" transform="scale(0.015625)"/>
       </defs>
       <use xlink:href="#DejaVuSans-30"/>
       <use xlink:href="#DejaVuSans-2e" x="63.623047"/>
       <use xlink:href="#DejaVuSans-30" x="95.410156"/>
      </g>
     </g>
    </g>
    <g id="ytick_2">
     <g id="line2d_5">
      <g>
       <use xlink:href="#mda654627ad" x="54.872115" y="101.431926" style="stroke: #000000; stroke-width: 1.5"/>
      </g>
     </g>
     <g id="text_6">
      <!-- 0.5 -->
      <g transform="translate(21.517428 107.130754) scale(0.15 -0.15)">
       <defs>
        <path id="DejaVuSans-35" d="M 691 4666 
L 3169 4666 
L 3169 4134 
L 1269 4134 
L 1269 2991 
Q 1406 3038 1543 3061 
Q 1681 3084 1819 3084 
Q 2600 3084 3056 2656 
Q 3513 2228 3513 1497 
Q 3513 744 3044 326 
Q 2575 -91 1722 -91 
Q 1428 -91 1123 -41 
Q 819 9 494 109 
L 494 744 
Q 775 591 1075 516 
Q 1375 441 1709 441 
Q 2250 441 2565 725 
Q 2881 1009 2881 1497 
Q 2881 1984 2565 2268 
Q 2250 2553 1709 2553 
Q 1456 2553 1204 2497 
Q 953 2441 691 2322 
L 691 4666 
z
" transform="scale(0.015625)"/>
       </defs>
       <use xlink:href="#DejaVuSans-30"/>
       <use xlink:href="#DejaVuSans-2e" x="63.623047"/>
       <use xlink:href="#DejaVuSans-35" x="95.410156"/>
      </g>
     </g>
    </g>
    <g id="ytick_3">
     <g id="line2d_6">
      <g>
       <use xlink:href="#mda654627ad" x="54.872115" y="19.583327" style="stroke: #000000; stroke-width: 1.5"/>
      </g>
     </g>
     <g id="text_7">
      <!-- 1.0 -->
      <g transform="translate(21.517428 25.282155) scale(0.15 -0.15)">
       <use xlink:href="#DejaVuSans-31"/>
       <use xlink:href="#DejaVuSans-2e" x="63.623047"/>
       <use xlink:href="#DejaVuSans-30" x="95.410156"/>
      </g>
     </g>
    </g>
    <g id="text_8">
     <!-- P(choice 1) -->
     <g transform="translate(14.397896 143.250285) rotate(-90) scale(0.15 -0.15)">
      <defs>
       <path id="DejaVuSans-50" d="M 1259 4147 
L 1259 2394 
L 2053 2394 
Q 2494 2394 2734 2622 
Q 2975 2850 2975 3272 
Q 2975 3691 2734 3919 
Q 2494 4147 2053 4147 
L 1259 4147 
z
M 628 4666 
L 2053 4666 
Q 2838 4666 3239 4311 
Q 3641 3956 3641 3272 
Q 3641 2581 3239 2228 
Q 2838 1875 2053 1875 
L 1259 1875 
L 1259 0 
L 628 0 
L 628 4666 
z
" transform="scale(0.015625)"/>
       <path id="DejaVuSans-28" d="M 1984 4856 
Q 1566 4138 1362 3434 
Q 1159 2731 1159 2009 
Q 1159 1288 1364 580 
Q 1569 -128 1984 -844 
L 1484 -844 
Q 1016 -109 783 600 
Q 550 1309 550 2009 
Q 550 2706 781 3412 
Q 1013 4119 1484 4856 
L 1984 4856 
z
" transform="scale(0.015625)"/>
       <path id="DejaVuSans-63" d="M 3122 3366 
L 3122 2828 
Q 2878 2963 2633 3030 
Q 2388 3097 2138 3097 
Q 1578 3097 1268 2742 
Q 959 2388 959 1747 
Q 959 1106 1268 751 
Q 1578 397 2138 397 
Q 2388 397 2633 464 
Q 2878 531 3122 666 
L 3122 134 
Q 2881 22 2623 -34 
Q 2366 -91 2075 -91 
Q 1284 -91 818 406 
Q 353 903 353 1747 
Q 353 2603 823 3093 
Q 1294 3584 2113 3584 
Q 2378 3584 2631 3529 
Q 2884 3475 3122 3366 
z
" transform="scale(0.015625)"/>
       <path id="DejaVuSans-6f" d="M 1959 3097 
Q 1497 3097 1228 2736 
Q 959 2375 959 1747 
Q 959 1119 1226 758 
Q 1494 397 1959 397 
Q 2419 397 2687 759 
Q 2956 1122 2956 1747 
Q 2956 2369 2687 2733 
Q 2419 3097 1959 3097 
z
M 1959 3584 
Q 2709 3584 3137 3096 
Q 3566 2609 3566 1747 
Q 3566 888 3137 398 
Q 2709 -91 1959 -91 
Q 1206 -91 779 398 
Q 353 888 353 1747 
Q 353 2609 779 3096 
Q 1206 3584 1959 3584 
z
" transform="scale(0.015625)"/>
       <path id="DejaVuSans-20" transform="scale(0.015625)"/>
       <path id="DejaVuSans-29" d="M 513 4856 
L 1013 4856 
Q 1481 4119 1714 3412 
Q 1947 2706 1947 2009 
Q 1947 1309 1714 600 
Q 1481 -109 1013 -844 
L 513 -844 
Q 928 -128 1133 580 
Q 1338 1288 1338 2009 
Q 1338 2731 1133 3434 
Q 928 4138 513 4856 
z
" transform="scale(0.015625)"/>
      </defs>
      <use xlink:href="#DejaVuSans-50"/>
      <use xlink:href="#DejaVuSans-28" x="60.302734"/>
      <use xlink:href="#DejaVuSans-63" x="99.316406"/>
      <use xlink:href="#DejaVuSans-68" x="154.296875"/>
      <use xlink:href="#DejaVuSans-6f" x="217.675781"/>
      <use xlink:href="#DejaVuSans-69" x="278.857422"/>
      <use xlink:href="#DejaVuSans-63" x="306.640625"/>
      <use xlink:href="#DejaVuSans-65" x="361.621094"/>
      <use xlink:href="#DejaVuSans-20" x="423.144531"/>
      <use xlink:href="#DejaVuSans-31" x="454.931641"/>
      <use xlink:href="#DejaVuSans-29" x="518.554688"/>
     </g>
    </g>
   </g>
   <g id="line2d_7">
    <defs>
     <path id="m3715555773" d="M 0 1.75 
C 0.464105 1.75 0.909265 1.565609 1.237437 1.237437 
C 1.565609 0.909265 1.75 0.464105 1.75 0 
C 1.75 -0.464105 1.565609 -0.909265 1.237437 -1.237437 
C 0.909265 -1.565609 0.464105 -1.75 0 -1.75 
C -0.464105 -1.75 -0.909265 -1.565609 -1.237437 -1.237437 
C -1.565609 -0.909265 -1.75 -0.464105 -1.75 0 
C -1.75 0.464105 -1.565609 0.909265 -1.237437 1.237437 
C -0.909265 1.565609 -0.464105 1.75 0 1.75 
z
" style="stroke: #222222"/>
    </defs>
    <g clip-path="url(#p193317f873)">
     <use xlink:href="#m3715555773" x="64.465546" y="183.280525" style="fill: #222222; stroke: #222222"/>
     <use xlink:href="#m3715555773" x="256.334176" y="19.583327" style="fill: #222222; stroke: #222222"/>
     <use xlink:href="#m3715555773" x="112.432704" y="183.280525" style="fill: #222222; stroke: #222222"/>
     <use xlink:href="#m3715555773" x="208.367019" y="27.768189" style="fill: #222222; stroke: #222222"/>
     <use xlink:href="#m3715555773" x="150.80643" y="101.431926" style="fill: #222222; stroke: #222222"/>
     <use xlink:href="#m3715555773" x="169.993293" y="85.062202" style="fill: #222222; stroke: #222222"/>
     <use xlink:href="#m3715555773" x="155.603145" y="117.801645" style="fill: #222222; stroke: #222222"/>
     <use xlink:href="#m3715555773" x="165.196577" y="109.616788" style="fill: #222222; stroke: #222222"/>
     <use xlink:href="#m3715555773" x="160.399861" y="85.062202" style="fill: #222222; stroke: #222222"/>
     <use xlink:href="#m3715555773" x="160.399861" y="76.87735" style="fill: #222222; stroke: #222222"/>
    </g>
   </g>
   <g id="line2d_8">
    <path d="M 64.465546 182.972343 
L 66.403613 182.907941 
L 68.34168 182.831581 
L 70.279747 182.741365 
L 72.217814 182.635166 
L 74.155881 182.510599 
L 76.093948 182.365016 
L 78.032015 182.195481 
L 79.970082 181.998766 
L 81.908149 181.771334 
L 83.846216 181.509335 
L 85.784283 181.208602 
L 87.72235 180.864649 
L 89.660417 180.472683 
L 91.598484 180.027608 
L 93.536551 179.524048 
L 95.474618 178.956367 
L 97.412685 178.318704 
L 99.350752 177.605009 
L 101.288819 176.809093 
L 103.226886 175.924677 
L 105.164953 174.945458 
L 107.10302 173.865175 
L 109.041087 172.677688 
L 110.979154 171.377055 
L 112.917221 169.957623 
L 114.855288 168.414116 
L 116.793355 166.74173 
L 118.731421 164.936225 
L 120.669488 162.99402 
L 122.607555 160.912285 
L 124.545622 158.689026 
L 126.483689 156.323168 
L 128.421756 153.814626 
L 130.359823 151.164367 
L 132.29789 148.374462 
L 134.235957 145.448123 
L 136.174024 142.389727 
L 138.112091 139.204817 
L 140.050158 135.900097 
L 141.988225 132.483401 
L 143.926292 128.96365 
L 145.864359 125.350783 
L 147.802426 121.655686 
L 149.740493 117.890088 
L 151.67856 114.066455 
L 153.616627 110.197867 
L 155.554694 106.297881 
L 157.492761 102.380394 
L 159.430828 98.45949 
L 161.368895 94.549289 
L 163.306962 90.663797 
L 165.245029 86.816753 
L 167.183096 83.021487 
L 169.121163 79.290777 
L 171.059229 75.636723 
L 172.997296 72.070631 
L 174.935363 68.60291 
L 176.87343 65.242982 
L 178.811497 61.999214 
L 180.749564 58.87886 
L 182.687631 55.888029 
L 184.625698 53.03166 
L 186.563765 50.313528 
L 188.501832 47.736251 
L 190.439899 45.301325 
L 192.377966 43.009168 
L 194.316033 40.859174 
L 196.2541 38.849783 
L 198.192167 36.978561 
L 200.130234 35.242278 
L 202.068301 33.637001 
L 204.006368 32.158188 
L 205.944435 30.800779 
L 207.882502 29.55929 
L 209.820569 28.427911 
L 211.758636 27.400584 
L 213.696703 26.471099 
L 215.63477 25.633164 
L 217.572837 24.88048 
L 219.510904 24.206807 
L 221.448971 23.606021 
L 223.387038 23.072164 
L 225.325104 22.599489 
L 227.263171 22.182489 
L 229.201238 21.81593 
L 231.139305 21.494872 
L 233.077372 21.214677 
L 235.015439 20.971026 
L 236.953506 20.759914 
L 238.891573 20.577655 
L 240.82964 20.420871 
L 242.767707 20.286487 
L 244.705774 20.171717 
L 246.643841 20.074052 
L 248.581908 19.99124 
L 250.519975 19.921277 
L 252.458042 19.862381 
L 254.396109 19.812979 
L 256.334176 19.771691 
" clip-path="url(#p193317f873)" style="fill: none; stroke: #222222; stroke-linecap: square"/>
   </g>
   <g id="patch_3">
    <path d="M 54.872115 191.465385 
L 54.872115 11.398467 
" style="fill: none; stroke: #000000; stroke-width: 1.5; stroke-linejoin: miter; stroke-linecap: square"/>
   </g>
   <g id="patch_4">
    <path d="M 54.872115 191.465385 
L 265.927607 191.465385 
" style="fill: none; stroke: #000000; stroke-width: 1.5; stroke-linejoin: miter; stroke-linecap: square"/>
   </g>
   <g id="text_9">
    <g id="patch_5">
     <path d="M 272.430382 58.74803 
L 418.048976 58.74803 
L 418.048976 7.348467 
L 272.430382 7.348467 
z
" style="fill: #ffffff; opacity: 0.7"/>
    </g>
    <!-- Bias = -0.025 -->
    <g transform="translate(276.480382 21.656358) scale(0.135 -0.135)">
     <defs>
      <path id="DejaVuSans-42" d="M 1259 2228 
L 1259 519 
L 2272 519 
Q 2781 519 3026 730 
Q 3272 941 3272 1375 
Q 3272 1813 3026 2020 
Q 2781 2228 2272 2228 
L 1259 2228 
z
M 1259 4147 
L 1259 2741 
L 2194 2741 
Q 2656 2741 2882 2914 
Q 3109 3088 3109 3444 
Q 3109 3797 2882 3972 
Q 2656 4147 2194 4147 
L 1259 4147 
z
M 628 4666 
L 2241 4666 
Q 2963 4666 3353 4366 
Q 3744 4066 3744 3513 
Q 3744 3084 3544 2831 
Q 3344 2578 2956 2516 
Q 3422 2416 3680 2098 
Q 3938 1781 3938 1306 
Q 3938 681 3513 340 
Q 3088 0 2303 0 
L 628 0 
L 628 4666 
z
" transform="scale(0.015625)"/>
      <path id="DejaVuSans-73" d="M 2834 3397 
L 2834 2853 
Q 2591 2978 2328 3040 
Q 2066 3103 1784 3103 
Q 1356 3103 1142 2972 
Q 928 2841 928 2578 
Q 928 2378 1081 2264 
Q 1234 2150 1697 2047 
L 1894 2003 
Q 2506 1872 2764 1633 
Q 3022 1394 3022 966 
Q 3022 478 2636 193 
Q 2250 -91 1575 -91 
Q 1294 -91 989 -36 
Q 684 19 347 128 
L 347 722 
Q 666 556 975 473 
Q 1284 391 1588 391 
Q 1994 391 2212 530 
Q 2431 669 2431 922 
Q 2431 1156 2273 1281 
Q 2116 1406 1581 1522 
L 1381 1569 
Q 847 1681 609 1914 
Q 372 2147 372 2553 
Q 372 3047 722 3315 
Q 1072 3584 1716 3584 
Q 2034 3584 2315 3537 
Q 2597 3491 2834 3397 
z
" transform="scale(0.015625)"/>
      <path id="DejaVuSans-3d" d="M 678 2906 
L 4684 2906 
L 4684 2381 
L 678 2381 
L 678 2906 
z
M 678 1631 
L 4684 1631 
L 4684 1100 
L 678 1100 
L 678 1631 
z
" transform="scale(0.015625)"/>
      <path id="DejaVuSans-2d" d="M 313 2009 
L 1997 2009 
L 1997 1497 
L 313 1497 
L 313 2009 
z
" transform="scale(0.015625)"/>
      <path id="DejaVuSans-32" d="M 1228 531 
L 3431 531 
L 3431 0 
L 469 0 
L 469 531 
Q 828 903 1448 1529 
Q 2069 2156 2228 2338 
Q 2531 2678 2651 2914 
Q 2772 3150 2772 3378 
Q 2772 3750 2511 3984 
Q 2250 4219 1831 4219 
Q 1534 4219 1204 4116 
Q 875 4013 500 3803 
L 500 4441 
Q 881 4594 1212 4672 
Q 1544 4750 1819 4750 
Q 2544 4750 2975 4387 
Q 3406 4025 3406 3419 
Q 3406 3131 3298 2873 
Q 3191 2616 2906 2266 
Q 2828 2175 2409 1742 
Q 1991 1309 1228 531 
z
" transform="scale(0.015625)"/>
     </defs>
     <use xlink:href="#DejaVuSans-42"/>
     <use xlink:href="#DejaVuSans-69" x="68.603516"/>
     <use xlink:href="#DejaVuSans-61" x="96.386719"/>
     <use xlink:href="#DejaVuSans-73" x="157.666016"/>
     <use xlink:href="#DejaVuSans-20" x="209.765625"/>
     <use xlink:href="#DejaVuSans-3d" x="241.552734"/>
     <use xlink:href="#DejaVuSans-20" x="325.341797"/>
     <use xlink:href="#DejaVuSans-2d" x="357.128906"/>
     <use xlink:href="#DejaVuSans-30" x="393.212891"/>
     <use xlink:href="#DejaVuSans-2e" x="456.835938"/>
     <use xlink:href="#DejaVuSans-30" x="488.623047"/>
     <use xlink:href="#DejaVuSans-32" x="552.246094"/>
     <use xlink:href="#DejaVuSans-35" x="615.869141"/>
    </g>
    <!-- Threshold = 0.227 -->
    <g transform="translate(276.480382 36.773405) scale(0.135 -0.135)">
     <defs>
      <path id="DejaVuSans-54" d="M -19 4666 
L 3928 4666 
L 3928 4134 
L 2272 4134 
L 2272 0 
L 1638 0 
L 1638 4134 
L -19 4134 
L -19 4666 
z
" transform="scale(0.015625)"/>
      <path id="DejaVuSans-72" d="M 2631 2963 
Q 2534 3019 2420 3045 
Q 2306 3072 2169 3072 
Q 1681 3072 1420 2755 
Q 1159 2438 1159 1844 
L 1159 0 
L 581 0 
L 581 3500 
L 1159 3500 
L 1159 2956 
Q 1341 3275 1631 3429 
Q 1922 3584 2338 3584 
Q 2397 3584 2469 3576 
Q 2541 3569 2628 3553 
L 2631 2963 
z
" transform="scale(0.015625)"/>
      <path id="DejaVuSans-6c" d="M 603 4863 
L 1178 4863 
L 1178 0 
L 603 0 
L 603 4863 
z
" transform="scale(0.015625)"/>
      <path id="DejaVuSans-37" d="M 525 4666 
L 3525 4666 
L 3525 4397 
L 1831 0 
L 1172 0 
L 2766 4134 
L 525 4134 
L 525 4666 
z
" transform="scale(0.015625)"/>
     </defs>
     <use xlink:href="#DejaVuSans-54"/>
     <use xlink:href="#DejaVuSans-68" x="61.083984"/>
     <use xlink:href="#DejaVuSans-72" x="124.462891"/>
     <use xlink:href="#DejaVuSans-65" x="163.326172"/>
     <use xlink:href="#DejaVuSans-73" x="224.849609"/>
     <use xlink:href="#DejaVuSans-68" x="276.949219"/>
     <use xlink:href="#DejaVuSans-6f" x="340.328125"/>
     <use xlink:href="#DejaVuSans-6c" x="401.509766"/>
     <use xlink:href="#DejaVuSans-64" x="429.292969"/>
     <use xlink:href="#DejaVuSans-20" x="492.769531"/>
     <use xlink:href="#DejaVuSans-3d" x="524.556641"/>
     <use xlink:href="#DejaVuSans-20" x="608.345703"/>
     <use xlink:href="#DejaVuSans-30" x="640.132812"/>
     <use xlink:href="#DejaVuSans-2e" x="703.755859"/>
     <use xlink:href="#DejaVuSans-32" x="735.542969"/>
     <use xlink:href="#DejaVuSans-32" x="799.166016"/>
     <use xlink:href="#DejaVuSans-37" x="862.789062"/>
    </g>
    <!-- correct rate = 0.715 -->
    <g transform="translate(276.480382 51.890452) scale(0.135 -0.135)">
     <defs>
      <path id="DejaVuSans-74" d="M 1172 4494 
L 1172 3500 
L 2356 3500 
L 2356 3053 
L 1172 3053 
L 1172 1153 
Q 1172 725 1289 603 
Q 1406 481 1766 481 
L 2356 481 
L 2356 0 
L 1766 0 
Q 1100 0 847 248 
Q 594 497 594 1153 
L 594 3053 
L 172 3053 
L 172 3500 
L 594 3500 
L 594 4494 
L 1172 4494 
z
" transform="scale(0.015625)"/>
     </defs>
     <use xlink:href="#DejaVuSans-63"/>
     <use xlink:href="#DejaVuSans-6f" x="54.980469"/>
     <use xlink:href="#DejaVuSans-72" x="116.162109"/>
     <use xlink:href="#DejaVuSans-72" x="155.525391"/>
     <use xlink:href="#DejaVuSans-65" x="194.388672"/>
     <use xlink:href="#DejaVuSans-63" x="255.912109"/>
     <use xlink:href="#DejaVuSans-74" x="310.892578"/>
     <use xlink:href="#DejaVuSans-20" x="350.101562"/>
     <use xlink:href="#DejaVuSans-72" x="381.888672"/>
     <use xlink:href="#DejaVuSans-61" x="423.001953"/>
     <use xlink:href="#DejaVuSans-74" x="484.28125"/>
     <use xlink:href="#DejaVuSans-65" x="523.490234"/>
     <use xlink:href="#DejaVuSans-20" x="585.013672"/>
     <use xlink:href="#DejaVuSans-3d" x="616.800781"/>
     <use xlink:href="#DejaVuSans-20" x="700.589844"/>
     <use xlink:href="#DejaVuSans-30" x="732.376953"/>
     <use xlink:href="#DejaVuSans-2e" x="796"/>
     <use xlink:href="#DejaVuSans-37" x="827.787109"/>
     <use xlink:href="#DejaVuSans-31" x="891.410156"/>
     <use xlink:href="#DejaVuSans-35" x="955.033203"/>
    </g>
   </g>
   <g id="text_10">
    <!-- coltargdm -->
    <g transform="translate(122.286971 14.401813) scale(0.15 -0.15)">
     <defs>
      <path id="DejaVuSans-6d" d="M 3328 2828 
Q 3544 3216 3844 3400 
Q 4144 3584 4550 3584 
Q 5097 3584 5394 3201 
Q 5691 2819 5691 2113 
L 5691 0 
L 5113 0 
L 5113 2094 
Q 5113 2597 4934 2840 
Q 4756 3084 4391 3084 
Q 3944 3084 3684 2787 
Q 3425 2491 3425 1978 
L 3425 0 
L 2847 0 
L 2847 2094 
Q 2847 2600 2669 2842 
Q 2491 3084 2119 3084 
Q 1678 3084 1418 2786 
Q 1159 2488 1159 1978 
L 1159 0 
L 581 0 
L 581 3500 
L 1159 3500 
L 1159 2956 
Q 1356 3278 1631 3431 
Q 1906 3584 2284 3584 
Q 2666 3584 2933 3390 
Q 3200 3197 3328 2828 
z
" transform="scale(0.015625)"/>
     </defs>
     <use xlink:href="#DejaVuSans-63"/>
     <use xlink:href="#DejaVuSans-6f" x="54.980469"/>
     <use xlink:href="#DejaVuSans-6c" x="116.162109"/>
     <use xlink:href="#DejaVuSans-74" x="143.945312"/>
     <use xlink:href="#DejaVuSans-61" x="183.154297"/>
     <use xlink:href="#DejaVuSans-72" x="244.433594"/>
     <use xlink:href="#DejaVuSans-67" x="283.796875"/>
     <use xlink:href="#DejaVuSans-64" x="347.273438"/>
     <use xlink:href="#DejaVuSans-6d" x="410.75"/>
    </g>
   </g>
  </g>
 </g>
 <defs>
  <clipPath id="p193317f873">
   <rect x="54.872115" y="11.398467" width="211.055492" height="180.066918"/>
  </clipPath>
 </defs>
</svg>
