<?xml version="1.0" encoding="utf-8" standalone="no"?>
<!DOCTYPE svg PUBLIC "-//W3C//DTD SVG 1.1//EN"
  "http://www.w3.org/Graphics/SVG/1.1/DTD/svg11.dtd">
<svg xmlns:xlink="http://www.w3.org/1999/xlink" width="720pt" height="432pt" viewBox="0 0 720 432" xmlns="http://www.w3.org/2000/svg" version="1.1">
 <metadata>
  <rdf:RDF xmlns:dc="http://purl.org/dc/elements/1.1/" xmlns:cc="http://creativecommons.org/ns#" xmlns:rdf="http://www.w3.org/1999/02/22-rdf-syntax-ns#">
   <cc:Work>
    <dc:type rdf:resource="http://purl.org/dc/dcmitype/StillImage"/>
    <dc:date>2025-10-26T14:54:42.546312</dc:date>
    <dc:format>image/svg+xml</dc:format>
    <dc:creator>
     <cc:Agent>
      <dc:title>Matplotlib v3.9.4, https://matplotlib.org/</dc:title>
     </cc:Agent>
    </dc:creator>
   </cc:Work>
  </rdf:RDF>
 </metadata>
 <defs>
  <style type="text/css">*{stroke-linejoin: round; stroke-linecap: butt}</style>
 </defs>
 <g id="figure_1">
  <g id="patch_1">
   <path d="M 0 432 
L 720 432 
L 720 0 
L 0 0 
z
" style="fill: #ffffff"/>
  </g>
  <g id="axes_1">
   <g id="patch_2">
    <path d="M 85.67 379.18 
L 607.76 379.18 
L 607.76 27.6 
L 85.67 27.6 
L 85.67 379.18 
z
" style="fill: none"/>
   </g>
   <g id="matplotlib.axis_1">
    <g id="xtick_1">
     <g id="line2d_1">
      <defs>
       <path id="m76e5017c3d" d="M 0 0 
L 0 5 
" style="stroke: #262626; stroke-width: 1.5"/>
      </defs>
      <g>
       <use xlink:href="#m76e5017c3d" x="95.604059" y="379.18" style="fill: #262626; stroke: #262626; stroke-width: 1.5"/>
      </g>
     </g>
     <g id="text_1">
      <!-- −250 -->
      <g style="fill: #262626" transform="translate(78.711481 398.416719) scale(0.15 -0.15)">
       <defs>
        <path id="ArialMT-2212" d="M 3381 1997 
L 356 1997 
L 356 2522 
L 3381 2522 
L 3381 1997 
z
" transform="scale(0.015625)"/>
        <path id="ArialMT-32" d="M 3222 541 
L 3222 0 
L 194 0 
Q 188 203 259 391 
Q 375 700 629 1000 
Q 884 1300 1366 1694 
Q 2113 2306 2375 2664 
Q 2638 3022 2638 3341 
Q 2638 3675 2398 3904 
Q 2159 4134 1775 4134 
Q 1369 4134 1125 3890 
Q 881 3647 878 3216 
L 300 3275 
Q 359 3922 746 4261 
Q 1134 4600 1788 4600 
Q 2447 4600 2831 4234 
Q 3216 3869 3216 3328 
Q 3216 3053 3103 2787 
Q 2991 2522 2730 2228 
Q 2469 1934 1863 1422 
Q 1356 997 1212 845 
Q 1069 694 975 541 
L 3222 541 
z
" transform="scale(0.015625)"/>
        <path id="ArialMT-35" d="M 266 1200 
L 856 1250 
Q 922 819 1161 601 
Q 1400 384 1738 384 
Q 2144 384 2425 690 
Q 2706 997 2706 1503 
Q 2706 1984 2436 2262 
Q 2166 2541 1728 2541 
Q 1456 2541 1237 2417 
Q 1019 2294 894 2097 
L 366 2166 
L 809 4519 
L 3088 4519 
L 3088 3981 
L 1259 3981 
L 1013 2750 
Q 1425 3038 1878 3038 
Q 2478 3038 2890 2622 
Q 3303 2206 3303 1553 
Q 3303 931 2941 478 
Q 2500 -78 1738 -78 
Q 1113 -78 717 272 
Q 322 622 266 1200 
z
" transform="scale(0.015625)"/>
        <path id="ArialMT-30" d="M 266 2259 
Q 266 3072 433 3567 
Q 600 4063 929 4331 
Q 1259 4600 1759 4600 
Q 2128 4600 2406 4451 
Q 2684 4303 2865 4023 
Q 3047 3744 3150 3342 
Q 3253 2941 3253 2259 
Q 3253 1453 3087 958 
Q 2922 463 2592 192 
Q 2263 -78 1759 -78 
Q 1097 -78 719 397 
Q 266 969 266 2259 
z
M 844 2259 
Q 844 1131 1108 757 
Q 1372 384 1759 384 
Q 2147 384 2411 759 
Q 2675 1134 2675 2259 
Q 2675 3391 2411 3762 
Q 2147 4134 1753 4134 
Q 1366 4134 1134 3806 
Q 844 3388 844 2259 
z
" transform="scale(0.015625)"/>
       </defs>
       <use xlink:href="#ArialMT-2212"/>
       <use xlink:href="#ArialMT-32" x="58.398438"/>
       <use xlink:href="#ArialMT-35" x="114.013672"/>
       <use xlink:href="#ArialMT-30" x="169.628906"/>
      </g>
     </g>
    </g>
    <g id="xtick_2">
     <g id="line2d_2">
      <g>
       <use xlink:href="#m76e5017c3d" x="164.590581" y="379.18" style="fill: #262626; stroke: #262626; stroke-width: 1.5"/>
      </g>
     </g>
     <g id="text_2">
      <!-- 0 -->
      <g style="fill: #262626" transform="translate(160.419878 398.416719) scale(0.15 -0.15)">
       <use xlink:href="#ArialMT-30"/>
      </g>
     </g>
    </g>
    <g id="xtick_3">
     <g id="line2d_3">
      <g>
       <use xlink:href="#m76e5017c3d" x="233.577104" y="379.18" style="fill: #262626; stroke: #262626; stroke-width: 1.5"/>
      </g>
     </g>
     <g id="text_3">
      <!-- 250 -->
      <g style="fill: #262626" transform="translate(221.064994 398.416719) scale(0.15 -0.15)">
       <use xlink:href="#ArialMT-32"/>
       <use xlink:href="#ArialMT-35" x="55.615234"/>
       <use xlink:href="#ArialMT-30" x="111.230469"/>
      </g>
     </g>
    </g>
    <g id="xtick_4">
     <g id="line2d_4">
      <g>
       <use xlink:href="#m76e5017c3d" x="302.563626" y="379.18" style="fill: #262626; stroke: #262626; stroke-width: 1.5"/>
      </g>
     </g>
     <g id="text_4">
      <!-- 500 -->
      <g style="fill: #262626" transform="translate(290.051516 398.416719) scale(0.15 -0.15)">
       <use xlink:href="#ArialMT-35"/>
       <use xlink:href="#ArialMT-30" x="55.615234"/>
       <use xlink:href="#ArialMT-30" x="111.230469"/>
      </g>
     </g>
    </g>
    <g id="xtick_5">
     <g id="line2d_5">
      <g>
       <use xlink:href="#m76e5017c3d" x="371.550148" y="379.18" style="fill: #262626; stroke: #262626; stroke-width: 1.5"/>
      </g>
     </g>
     <g id="text_5">
      <!-- 750 -->
      <g style="fill: #262626" transform="translate(359.038039 398.416719) scale(0.15 -0.15)">
       <defs>
        <path id="ArialMT-37" d="M 303 3981 
L 303 4522 
L 3269 4522 
L 3269 4084 
Q 2831 3619 2401 2847 
Q 1972 2075 1738 1259 
Q 1569 684 1522 0 
L 944 0 
Q 953 541 1156 1306 
Q 1359 2072 1739 2783 
Q 2119 3494 2547 3981 
L 303 3981 
z
" transform="scale(0.015625)"/>
       </defs>
       <use xlink:href="#ArialMT-37"/>
       <use xlink:href="#ArialMT-35" x="55.615234"/>
       <use xlink:href="#ArialMT-30" x="111.230469"/>
      </g>
     </g>
    </g>
    <g id="xtick_6">
     <g id="line2d_6">
      <g>
       <use xlink:href="#m76e5017c3d" x="440.53667" y="379.18" style="fill: #262626; stroke: #262626; stroke-width: 1.5"/>
      </g>
     </g>
     <g id="text_6">
      <!-- 1000 -->
      <g style="fill: #262626" transform="translate(423.853858 398.416719) scale(0.15 -0.15)">
       <defs>
        <path id="ArialMT-31" d="M 2384 0 
L 1822 0 
L 1822 3584 
Q 1619 3391 1289 3197 
Q 959 3003 697 2906 
L 697 3450 
Q 1169 3672 1522 3987 
Q 1875 4303 2022 4600 
L 2384 4600 
L 2384 0 
z
" transform="scale(0.015625)"/>
       </defs>
       <use xlink:href="#ArialMT-31"/>
       <use xlink:href="#ArialMT-30" x="55.615234"/>
       <use xlink:href="#ArialMT-30" x="111.230469"/>
       <use xlink:href="#ArialMT-30" x="166.845703"/>
      </g>
     </g>
    </g>
    <g id="xtick_7">
     <g id="line2d_7">
      <g>
       <use xlink:href="#m76e5017c3d" x="509.523192" y="379.18" style="fill: #262626; stroke: #262626; stroke-width: 1.5"/>
      </g>
     </g>
     <g id="text_7">
      <!-- 1250 -->
      <g style="fill: #262626" transform="translate(492.84038 398.416719) scale(0.15 -0.15)">
       <use xlink:href="#ArialMT-31"/>
       <use xlink:href="#ArialMT-32" x="55.615234"/>
       <use xlink:href="#ArialMT-35" x="111.230469"/>
       <use xlink:href="#ArialMT-30" x="166.845703"/>
      </g>
     </g>
    </g>
    <g id="xtick_8">
     <g id="line2d_8">
      <g>
       <use xlink:href="#m76e5017c3d" x="578.509715" y="379.18" style="fill: #262626; stroke: #262626; stroke-width: 1.5"/>
      </g>
     </g>
     <g id="text_8">
      <!-- 1500 -->
      <g style="fill: #262626" transform="translate(561.826902 398.416719) scale(0.15 -0.15)">
       <use xlink:href="#ArialMT-31"/>
       <use xlink:href="#ArialMT-35" x="55.615234"/>
       <use xlink:href="#ArialMT-30" x="111.230469"/>
       <use xlink:href="#ArialMT-30" x="166.845703"/>
      </g>
     </g>
    </g>
    <g id="text_9">
     <!-- Time (s) -->
     <g style="fill: #262626" transform="translate(319.502891 416.3175) scale(0.15 -0.15)">
      <defs>
       <path id="ArialMT-54" d="M 1659 0 
L 1659 4041 
L 150 4041 
L 150 4581 
L 3781 4581 
L 3781 4041 
L 2266 4041 
L 2266 0 
L 1659 0 
z
" transform="scale(0.015625)"/>
       <path id="ArialMT-69" d="M 425 3934 
L 425 4581 
L 988 4581 
L 988 3934 
L 425 3934 
z
M 425 0 
L 425 3319 
L 988 3319 
L 988 0 
L 425 0 
z
" transform="scale(0.015625)"/>
       <path id="ArialMT-6d" d="M 422 0 
L 422 3319 
L 925 3319 
L 925 2853 
Q 1081 3097 1340 3245 
Q 1600 3394 1931 3394 
Q 2300 3394 2536 3241 
Q 2772 3088 2869 2813 
Q 3263 3394 3894 3394 
Q 4388 3394 4653 3120 
Q 4919 2847 4919 2278 
L 4919 0 
L 4359 0 
L 4359 2091 
Q 4359 2428 4304 2576 
Q 4250 2725 4106 2815 
Q 3963 2906 3769 2906 
Q 3419 2906 3187 2673 
Q 2956 2441 2956 1928 
L 2956 0 
L 2394 0 
L 2394 2156 
Q 2394 2531 2256 2718 
Q 2119 2906 1806 2906 
Q 1569 2906 1367 2781 
Q 1166 2656 1075 2415 
Q 984 2175 984 1722 
L 984 0 
L 422 0 
z
" transform="scale(0.015625)"/>
       <path id="ArialMT-65" d="M 2694 1069 
L 3275 997 
Q 3138 488 2766 206 
Q 2394 -75 1816 -75 
Q 1088 -75 661 373 
Q 234 822 234 1631 
Q 234 2469 665 2931 
Q 1097 3394 1784 3394 
Q 2450 3394 2872 2941 
Q 3294 2488 3294 1666 
Q 3294 1616 3291 1516 
L 816 1516 
Q 847 969 1125 678 
Q 1403 388 1819 388 
Q 2128 388 2347 550 
Q 2566 713 2694 1069 
z
M 847 1978 
L 2700 1978 
Q 2663 2397 2488 2606 
Q 2219 2931 1791 2931 
Q 1403 2931 1139 2672 
Q 875 2413 847 1978 
z
" transform="scale(0.015625)"/>
       <path id="ArialMT-20" transform="scale(0.015625)"/>
       <path id="ArialMT-28" d="M 1497 -1347 
Q 1031 -759 709 28 
Q 388 816 388 1659 
Q 388 2403 628 3084 
Q 909 3875 1497 4659 
L 1900 4659 
Q 1522 4009 1400 3731 
Q 1209 3300 1100 2831 
Q 966 2247 966 1656 
Q 966 153 1900 -1347 
L 1497 -1347 
z
" transform="scale(0.015625)"/>
       <path id="ArialMT-73" d="M 197 991 
L 753 1078 
Q 800 744 1014 566 
Q 1228 388 1613 388 
Q 2000 388 2187 545 
Q 2375 703 2375 916 
Q 2375 1106 2209 1216 
Q 2094 1291 1634 1406 
Q 1016 1563 777 1677 
Q 538 1791 414 1992 
Q 291 2194 291 2438 
Q 291 2659 392 2848 
Q 494 3038 669 3163 
Q 800 3259 1026 3326 
Q 1253 3394 1513 3394 
Q 1903 3394 2198 3281 
Q 2494 3169 2634 2976 
Q 2775 2784 2828 2463 
L 2278 2388 
Q 2241 2644 2061 2787 
Q 1881 2931 1553 2931 
Q 1166 2931 1000 2803 
Q 834 2675 834 2503 
Q 834 2394 903 2306 
Q 972 2216 1119 2156 
Q 1203 2125 1616 2013 
Q 2213 1853 2448 1751 
Q 2684 1650 2818 1456 
Q 2953 1263 2953 975 
Q 2953 694 2789 445 
Q 2625 197 2315 61 
Q 2006 -75 1616 -75 
Q 969 -75 630 194 
Q 291 463 197 991 
z
" transform="scale(0.015625)"/>
       <path id="ArialMT-29" d="M 791 -1347 
L 388 -1347 
Q 1322 153 1322 1656 
Q 1322 2244 1188 2822 
Q 1081 3291 891 3722 
Q 769 4003 388 4659 
L 791 4659 
Q 1378 3875 1659 3084 
Q 1900 2403 1900 1659 
Q 1900 816 1576 28 
Q 1253 -759 791 -1347 
z
" transform="scale(0.015625)"/>
      </defs>
      <use xlink:href="#ArialMT-54"/>
      <use xlink:href="#ArialMT-69" x="57.333984"/>
      <use xlink:href="#ArialMT-6d" x="79.550781"/>
      <use xlink:href="#ArialMT-65" x="162.851562"/>
      <use xlink:href="#ArialMT-20" x="218.466797"/>
      <use xlink:href="#ArialMT-28" x="246.25"/>
      <use xlink:href="#ArialMT-73" x="279.550781"/>
      <use xlink:href="#ArialMT-29" x="329.550781"/>
     </g>
    </g>
   </g>
   <g id="matplotlib.axis_2">
    <g id="ytick_1">
     <g id="line2d_9">
      <defs>
       <path id="m3f4aa19765" d="M 0 0 
L -5 0 
" style="stroke: #262626; stroke-width: 1.5"/>
      </defs>
      <g>
       <use xlink:href="#m3f4aa19765" x="85.67" y="350.057925" style="fill: #262626; stroke: #262626; stroke-width: 1.5"/>
      </g>
     </g>
     <g id="text_10">
      <!-- −0.025 -->
      <g style="fill: #262626" transform="translate(30.87625 355.426284) scale(0.15 -0.15)">
       <defs>
        <path id="ArialMT-2e" d="M 581 0 
L 581 641 
L 1222 641 
L 1222 0 
L 581 0 
z
" transform="scale(0.015625)"/>
       </defs>
       <use xlink:href="#ArialMT-2212"/>
       <use xlink:href="#ArialMT-30" x="58.398438"/>
       <use xlink:href="#ArialMT-2e" x="114.013672"/>
       <use xlink:href="#ArialMT-30" x="141.796875"/>
       <use xlink:href="#ArialMT-32" x="197.412109"/>
       <use xlink:href="#ArialMT-35" x="253.027344"/>
      </g>
     </g>
    </g>
    <g id="ytick_2">
     <g id="line2d_10">
      <g>
       <use xlink:href="#m3f4aa19765" x="85.67" y="310.42858" style="fill: #262626; stroke: #262626; stroke-width: 1.5"/>
      </g>
     </g>
     <g id="text_11">
      <!-- 0.000 -->
      <g style="fill: #262626" transform="translate(39.637188 315.79694) scale(0.15 -0.15)">
       <use xlink:href="#ArialMT-30"/>
       <use xlink:href="#ArialMT-2e" x="55.615234"/>
       <use xlink:href="#ArialMT-30" x="83.398438"/>
       <use xlink:href="#ArialMT-30" x="139.013672"/>
       <use xlink:href="#ArialMT-30" x="194.628906"/>
      </g>
     </g>
    </g>
    <g id="ytick_3">
     <g id="line2d_11">
      <g>
       <use xlink:href="#m3f4aa19765" x="85.67" y="270.799236" style="fill: #262626; stroke: #262626; stroke-width: 1.5"/>
      </g>
     </g>
     <g id="text_12">
      <!-- 0.025 -->
      <g style="fill: #262626" transform="translate(39.637188 276.167595) scale(0.15 -0.15)">
       <use xlink:href="#ArialMT-30"/>
       <use xlink:href="#ArialMT-2e" x="55.615234"/>
       <use xlink:href="#ArialMT-30" x="83.398438"/>
       <use xlink:href="#ArialMT-32" x="139.013672"/>
       <use xlink:href="#ArialMT-35" x="194.628906"/>
      </g>
     </g>
    </g>
    <g id="ytick_4">
     <g id="line2d_12">
      <g>
       <use xlink:href="#m3f4aa19765" x="85.67" y="231.169892" style="fill: #262626; stroke: #262626; stroke-width: 1.5"/>
      </g>
     </g>
     <g id="text_13">
      <!-- 0.050 -->
      <g style="fill: #262626" transform="translate(39.637188 236.538251) scale(0.15 -0.15)">
       <use xlink:href="#ArialMT-30"/>
       <use xlink:href="#ArialMT-2e" x="55.615234"/>
       <use xlink:href="#ArialMT-30" x="83.398438"/>
       <use xlink:href="#ArialMT-35" x="139.013672"/>
       <use xlink:href="#ArialMT-30" x="194.628906"/>
      </g>
     </g>
    </g>
    <g id="ytick_5">
     <g id="line2d_13">
      <g>
       <use xlink:href="#m3f4aa19765" x="85.67" y="191.540547" style="fill: #262626; stroke: #262626; stroke-width: 1.5"/>
      </g>
     </g>
     <g id="text_14">
      <!-- 0.075 -->
      <g style="fill: #262626" transform="translate(39.637188 196.908907) scale(0.15 -0.15)">
       <use xlink:href="#ArialMT-30"/>
       <use xlink:href="#ArialMT-2e" x="55.615234"/>
       <use xlink:href="#ArialMT-30" x="83.398438"/>
       <use xlink:href="#ArialMT-37" x="139.013672"/>
       <use xlink:href="#ArialMT-35" x="194.628906"/>
      </g>
     </g>
    </g>
    <g id="ytick_6">
     <g id="line2d_14">
      <g>
       <use xlink:href="#m3f4aa19765" x="85.67" y="151.911203" style="fill: #262626; stroke: #262626; stroke-width: 1.5"/>
      </g>
     </g>
     <g id="text_15">
      <!-- 0.100 -->
      <g style="fill: #262626" transform="translate(39.637188 157.279562) scale(0.15 -0.15)">
       <use xlink:href="#ArialMT-30"/>
       <use xlink:href="#ArialMT-2e" x="55.615234"/>
       <use xlink:href="#ArialMT-31" x="83.398438"/>
       <use xlink:href="#ArialMT-30" x="139.013672"/>
       <use xlink:href="#ArialMT-30" x="194.628906"/>
      </g>
     </g>
    </g>
    <g id="ytick_7">
     <g id="line2d_15">
      <g>
       <use xlink:href="#m3f4aa19765" x="85.67" y="112.281859" style="fill: #262626; stroke: #262626; stroke-width: 1.5"/>
      </g>
     </g>
     <g id="text_16">
      <!-- 0.125 -->
      <g style="fill: #262626" transform="translate(39.637188 117.650218) scale(0.15 -0.15)">
       <use xlink:href="#ArialMT-30"/>
       <use xlink:href="#ArialMT-2e" x="55.615234"/>
       <use xlink:href="#ArialMT-31" x="83.398438"/>
       <use xlink:href="#ArialMT-32" x="139.013672"/>
       <use xlink:href="#ArialMT-35" x="194.628906"/>
      </g>
     </g>
    </g>
    <g id="ytick_8">
     <g id="line2d_16">
      <g>
       <use xlink:href="#m3f4aa19765" x="85.67" y="72.652514" style="fill: #262626; stroke: #262626; stroke-width: 1.5"/>
      </g>
     </g>
     <g id="text_17">
      <!-- 0.150 -->
      <g style="fill: #262626" transform="translate(39.637188 78.020874) scale(0.15 -0.15)">
       <use xlink:href="#ArialMT-30"/>
       <use xlink:href="#ArialMT-2e" x="55.615234"/>
       <use xlink:href="#ArialMT-31" x="83.398438"/>
       <use xlink:href="#ArialMT-35" x="139.013672"/>
       <use xlink:href="#ArialMT-30" x="194.628906"/>
      </g>
     </g>
    </g>
    <g id="ytick_9">
     <g id="line2d_17">
      <g>
       <use xlink:href="#m3f4aa19765" x="85.67" y="33.02317" style="fill: #262626; stroke: #262626; stroke-width: 1.5"/>
      </g>
     </g>
     <g id="text_18">
      <!-- 0.175 -->
      <g style="fill: #262626" transform="translate(39.637188 38.391529) scale(0.15 -0.15)">
       <use xlink:href="#ArialMT-30"/>
       <use xlink:href="#ArialMT-2e" x="55.615234"/>
       <use xlink:href="#ArialMT-31" x="83.398438"/>
       <use xlink:href="#ArialMT-37" x="139.013672"/>
       <use xlink:href="#ArialMT-35" x="194.628906"/>
      </g>
     </g>
    </g>
    <g id="text_19">
     <!-- Divergence -->
     <g style="fill: #262626" transform="translate(23.719219 241.323594) rotate(-90) scale(0.15 -0.15)">
      <defs>
       <path id="ArialMT-44" d="M 494 0 
L 494 4581 
L 2072 4581 
Q 2606 4581 2888 4516 
Q 3281 4425 3559 4188 
Q 3922 3881 4101 3404 
Q 4281 2928 4281 2316 
Q 4281 1794 4159 1391 
Q 4038 988 3847 723 
Q 3656 459 3429 307 
Q 3203 156 2883 78 
Q 2563 0 2147 0 
L 494 0 
z
M 1100 541 
L 2078 541 
Q 2531 541 2789 625 
Q 3047 709 3200 863 
Q 3416 1078 3536 1442 
Q 3656 1806 3656 2325 
Q 3656 3044 3420 3430 
Q 3184 3816 2847 3947 
Q 2603 4041 2063 4041 
L 1100 4041 
L 1100 541 
z
" transform="scale(0.015625)"/>
       <path id="ArialMT-76" d="M 1344 0 
L 81 3319 
L 675 3319 
L 1388 1331 
Q 1503 1009 1600 663 
Q 1675 925 1809 1294 
L 2547 3319 
L 3125 3319 
L 1869 0 
L 1344 0 
z
" transform="scale(0.015625)"/>
       <path id="ArialMT-72" d="M 416 0 
L 416 3319 
L 922 3319 
L 922 2816 
Q 1116 3169 1280 3281 
Q 1444 3394 1641 3394 
Q 1925 3394 2219 3213 
L 2025 2691 
Q 1819 2813 1613 2813 
Q 1428 2813 1281 2702 
Q 1134 2591 1072 2394 
Q 978 2094 978 1738 
L 978 0 
L 416 0 
z
" transform="scale(0.015625)"/>
       <path id="ArialMT-67" d="M 319 -275 
L 866 -356 
Q 900 -609 1056 -725 
Q 1266 -881 1628 -881 
Q 2019 -881 2231 -725 
Q 2444 -569 2519 -288 
Q 2563 -116 2559 434 
Q 2191 0 1641 0 
Q 956 0 581 494 
Q 206 988 206 1678 
Q 206 2153 378 2554 
Q 550 2956 876 3175 
Q 1203 3394 1644 3394 
Q 2231 3394 2613 2919 
L 2613 3319 
L 3131 3319 
L 3131 450 
Q 3131 -325 2973 -648 
Q 2816 -972 2473 -1159 
Q 2131 -1347 1631 -1347 
Q 1038 -1347 672 -1080 
Q 306 -813 319 -275 
z
M 784 1719 
Q 784 1066 1043 766 
Q 1303 466 1694 466 
Q 2081 466 2343 764 
Q 2606 1063 2606 1700 
Q 2606 2309 2336 2618 
Q 2066 2928 1684 2928 
Q 1309 2928 1046 2623 
Q 784 2319 784 1719 
z
" transform="scale(0.015625)"/>
       <path id="ArialMT-6e" d="M 422 0 
L 422 3319 
L 928 3319 
L 928 2847 
Q 1294 3394 1984 3394 
Q 2284 3394 2536 3286 
Q 2788 3178 2913 3003 
Q 3038 2828 3088 2588 
Q 3119 2431 3119 2041 
L 3119 0 
L 2556 0 
L 2556 2019 
Q 2556 2363 2490 2533 
Q 2425 2703 2258 2804 
Q 2091 2906 1866 2906 
Q 1506 2906 1245 2678 
Q 984 2450 984 1813 
L 984 0 
L 422 0 
z
" transform="scale(0.015625)"/>
       <path id="ArialMT-63" d="M 2588 1216 
L 3141 1144 
Q 3050 572 2676 248 
Q 2303 -75 1759 -75 
Q 1078 -75 664 370 
Q 250 816 250 1647 
Q 250 2184 428 2587 
Q 606 2991 970 3192 
Q 1334 3394 1763 3394 
Q 2303 3394 2647 3120 
Q 2991 2847 3088 2344 
L 2541 2259 
Q 2463 2594 2264 2762 
Q 2066 2931 1784 2931 
Q 1359 2931 1093 2626 
Q 828 2322 828 1663 
Q 828 994 1084 691 
Q 1341 388 1753 388 
Q 2084 388 2306 591 
Q 2528 794 2588 1216 
z
" transform="scale(0.015625)"/>
      </defs>
      <use xlink:href="#ArialMT-44"/>
      <use xlink:href="#ArialMT-69" x="72.216797"/>
      <use xlink:href="#ArialMT-76" x="94.433594"/>
      <use xlink:href="#ArialMT-65" x="144.433594"/>
      <use xlink:href="#ArialMT-72" x="200.048828"/>
      <use xlink:href="#ArialMT-67" x="233.349609"/>
      <use xlink:href="#ArialMT-65" x="288.964844"/>
      <use xlink:href="#ArialMT-6e" x="344.580078"/>
      <use xlink:href="#ArialMT-63" x="400.195312"/>
      <use xlink:href="#ArialMT-65" x="450.195312"/>
     </g>
    </g>
   </g>
   <g id="PolyCollection_1">
    <defs>
     <path id="m959db7c043" d="M 109.401364 -214.633949 
L 109.401364 -103.200204 
L 114.920285 -137.542632 
L 120.439207 -87.244939 
L 125.958129 -106.430823 
L 131.477051 -115.488759 
L 136.995973 -117.096343 
L 142.514894 -94.388836 
L 148.033816 -106.845905 
L 153.552738 -118.908822 
L 159.07166 -102.635309 
L 164.590581 -156.317876 
L 170.109503 -167.498122 
L 175.628425 -162.641685 
L 181.147347 -180.28343 
L 186.666268 -176.984659 
L 192.18519 -176.006841 
L 197.704112 -185.212645 
L 203.223034 -189.28703 
L 208.741956 -191.233803 
L 214.260877 -199.517066 
L 219.779799 -197.127913 
L 225.298721 -205.084897 
L 230.817643 -210.590593 
L 236.336564 -206.698676 
L 241.855486 -215.01797 
L 247.374408 -210.230159 
L 252.89333 -205.863062 
L 258.412252 -217.399258 
L 263.931173 -215.905332 
L 269.450095 -216.273429 
L 274.969017 -220.84898 
L 280.487939 -223.305639 
L 286.00686 -233.18149 
L 291.525782 -237.700936 
L 297.044704 -231.276463 
L 302.563626 -234.91712 
L 308.082548 -237.1313 
L 313.601469 -245.686243 
L 319.120391 -234.49365 
L 324.639313 -233.346876 
L 330.158235 -242.300655 
L 335.677156 -239.023357 
L 341.196078 -245.807823 
L 346.715 -252.191464 
L 352.233922 -250.587397 
L 357.752844 -252.343698 
L 363.271765 -265.882423 
L 368.790687 -267.352483 
L 374.309609 -263.54844 
L 379.828531 -259.474899 
L 385.347452 -260.545743 
L 390.866374 -262.675194 
L 396.385296 -269.580128 
L 401.904218 -262.725618 
L 407.42314 -262.122423 
L 412.942061 -268.94852 
L 418.460983 -277.863934 
L 423.979905 -272.48191 
L 429.498827 -276.507129 
L 435.017748 -256.19891 
L 440.53667 -280.062719 
L 446.055592 -275.554673 
L 451.574514 -281.020809 
L 457.093436 -271.979318 
L 462.612357 -273.178157 
L 468.131279 -296.091851 
L 473.650201 -290.316922 
L 479.169123 -287.092257 
L 484.688044 -298.653365 
L 490.206966 -300.677427 
L 495.725888 -298.637662 
L 501.24481 -294.933966 
L 506.763732 -315.130459 
L 512.282653 -296.907716 
L 517.801575 -313.808425 
L 523.320497 -317.630361 
L 528.839419 -319.250575 
L 534.35834 -322.946292 
L 539.877262 -323.437478 
L 545.396184 -322.738304 
L 550.915106 -323.231208 
L 556.434027 -321.981426 
L 561.952949 -322.892832 
L 567.471871 -315.907984 
L 572.990793 -305.673436 
L 578.509715 -306.606789 
L 584.028636 -323.462025 
L 584.028636 -383.972381 
L 584.028636 -383.972381 
L 578.509715 -367.943438 
L 572.990793 -365.864277 
L 567.471871 -377.933869 
L 561.952949 -388.413134 
L 556.434027 -387.232677 
L 550.915106 -386.904262 
L 545.396184 -388.095404 
L 539.877262 -388.419091 
L 534.35834 -385.073143 
L 528.839419 -380.417057 
L 523.320497 -378.795003 
L 517.801575 -373.310524 
L 512.282653 -355.518061 
L 506.763732 -372.70418 
L 501.24481 -348.947512 
L 495.725888 -350.71741 
L 490.206966 -350.888104 
L 484.688044 -348.015724 
L 479.169123 -334.55626 
L 473.650201 -338.172059 
L 468.131279 -344.062729 
L 462.612357 -317.743983 
L 457.093436 -313.429088 
L 451.574514 -322.054502 
L 446.055592 -313.108991 
L 440.53667 -316.518367 
L 435.017748 -292.158708 
L 429.498827 -310.574128 
L 423.979905 -307.846718 
L 418.460983 -314.839568 
L 412.942061 -304.816131 
L 407.42314 -297.310528 
L 401.904218 -296.798694 
L 396.385296 -303.324139 
L 390.866374 -296.363491 
L 385.347452 -292.882297 
L 379.828531 -291.05092 
L 374.309609 -295.390171 
L 368.790687 -299.480853 
L 363.271765 -296.568969 
L 357.752844 -283.358483 
L 352.233922 -281.197387 
L 346.715 -282.754712 
L 341.196078 -275.180146 
L 335.677156 -267.250125 
L 330.158235 -271.189341 
L 324.639313 -259.585666 
L 319.120391 -261.702879 
L 313.601469 -273.196457 
L 308.082548 -264.478992 
L 302.563626 -260.819087 
L 297.044704 -258.789785 
L 291.525782 -264.8963 
L 286.00686 -261.501349 
L 280.487939 -248.986241 
L 274.969017 -245.226534 
L 269.450095 -238.045533 
L 263.931173 -240.179099 
L 258.412252 -239.839129 
L 252.89333 -227.308658 
L 247.374408 -232.385829 
L 241.855486 -237.371404 
L 236.336564 -228.974237 
L 230.817643 -232.923631 
L 225.298721 -226.941277 
L 219.779799 -219.68441 
L 214.260877 -222.513602 
L 208.741956 -212.522078 
L 203.223034 -210.865906 
L 197.704112 -206.852414 
L 192.18519 -196.095395 
L 186.666268 -197.202035 
L 181.147347 -200.94558 
L 175.628425 -180.805328 
L 170.109503 -185.984632 
L 164.590581 -173.619828 
L 159.07166 -118.137413 
L 153.552738 -133.036955 
L 148.033816 -119.982111 
L 142.514894 -109.997669 
L 136.995973 -133.60341 
L 131.477051 -126.767401 
L 125.958129 -123.21797 
L 120.439207 -109.543245 
L 114.920285 -162.274531 
L 109.401364 -214.633949 
z
" style="stroke: #6060eb; stroke-opacity: 0.1"/>
    </defs>
    <g clip-path="url(#p8e8aed8292)">
     <use xlink:href="#m959db7c043" x="0" y="432" style="fill: #6060eb; fill-opacity: 0.1; stroke: #6060eb; stroke-opacity: 0.1"/>
    </g>
   </g>
   <g id="PolyCollection_2">
    <defs>
     <path id="m35838a33e0" d="M 109.401364 -140.188777 
L 109.401364 -119.907945 
L 114.920285 -121.891674 
L 120.439207 -116.327972 
L 125.958129 -123.193239 
L 131.477051 -121.657698 
L 136.995973 -121.433073 
L 142.514894 -122.741818 
L 148.033816 -120.317869 
L 153.552738 -117.970522 
L 159.07166 -115.570732 
L 164.590581 -128.728279 
L 170.109503 -130.700183 
L 175.628425 -131.064644 
L 181.147347 -132.959123 
L 186.666268 -134.886529 
L 192.18519 -135.194667 
L 197.704112 -136.411237 
L 203.223034 -135.553271 
L 208.741956 -135.665557 
L 214.260877 -135.947237 
L 219.779799 -132.959167 
L 225.298721 -134.928406 
L 230.817643 -136.675328 
L 236.336564 -135.261507 
L 241.855486 -137.92006 
L 247.374408 -139.370863 
L 252.89333 -137.733833 
L 258.412252 -140.800843 
L 263.931173 -138.642936 
L 269.450095 -139.262019 
L 274.969017 -137.983654 
L 280.487939 -138.841024 
L 286.00686 -139.285334 
L 291.525782 -138.95704 
L 297.044704 -139.206634 
L 302.563626 -140.183124 
L 308.082548 -136.541728 
L 313.601469 -136.232279 
L 319.120391 -137.889694 
L 324.639313 -141.432843 
L 330.158235 -138.696395 
L 335.677156 -140.485912 
L 341.196078 -142.183236 
L 346.715 -142.786795 
L 352.233922 -144.482196 
L 357.752844 -143.853984 
L 363.271765 -143.346411 
L 368.790687 -142.811355 
L 374.309609 -142.850452 
L 379.828531 -145.00547 
L 385.347452 -146.68023 
L 390.866374 -145.077747 
L 396.385296 -145.689514 
L 401.904218 -143.602667 
L 407.42314 -144.740609 
L 412.942061 -144.184649 
L 418.460983 -140.004847 
L 423.979905 -142.191707 
L 429.498827 -140.596419 
L 435.017748 -138.014352 
L 440.53667 -136.766258 
L 446.055592 -134.450945 
L 451.574514 -134.290582 
L 457.093436 -134.716755 
L 462.612357 -135.422404 
L 468.131279 -133.796611 
L 473.650201 -136.514106 
L 479.169123 -133.757878 
L 484.688044 -133.586201 
L 490.206966 -133.23598 
L 495.725888 -135.477302 
L 501.24481 -131.301524 
L 506.763732 -135.400536 
L 512.282653 -135.000739 
L 517.801575 -134.642719 
L 523.320497 -133.716541 
L 528.839419 -133.724479 
L 534.35834 -133.977233 
L 539.877262 -132.708583 
L 545.396184 -132.640033 
L 550.915106 -134.912816 
L 556.434027 -134.237198 
L 561.952949 -133.485711 
L 567.471871 -131.351949 
L 572.990793 -131.151065 
L 578.509715 -133.796088 
L 584.028636 -133.279367 
L 584.028636 -137.2691 
L 584.028636 -137.2691 
L 578.509715 -137.836 
L 572.990793 -135.09608 
L 567.471871 -135.867429 
L 561.952949 -137.501683 
L 556.434027 -138.270951 
L 550.915106 -138.951408 
L 545.396184 -136.426126 
L 539.877262 -136.636968 
L 534.35834 -137.901145 
L 528.839419 -137.660645 
L 523.320497 -137.732643 
L 517.801575 -138.817798 
L 512.282653 -139.370916 
L 506.763732 -139.519821 
L 501.24481 -134.978797 
L 495.725888 -139.67665 
L 490.206966 -137.151784 
L 484.688044 -137.353 
L 479.169123 -138.144755 
L 473.650201 -140.936385 
L 468.131279 -138.04427 
L 462.612357 -139.806337 
L 457.093436 -139.166306 
L 451.574514 -138.650047 
L 446.055592 -138.709415 
L 440.53667 -140.751133 
L 435.017748 -142.215252 
L 429.498827 -144.942326 
L 423.979905 -146.46618 
L 418.460983 -144.610684 
L 412.942061 -148.316555 
L 407.42314 -149.363425 
L 401.904218 -147.715156 
L 396.385296 -150.29533 
L 390.866374 -149.451198 
L 385.347452 -150.997122 
L 379.828531 -149.34034 
L 374.309609 -146.772596 
L 368.790687 -147.144887 
L 363.271765 -147.077042 
L 357.752844 -147.897389 
L 352.233922 -148.746538 
L 346.715 -146.968178 
L 341.196078 -146.139027 
L 335.677156 -144.785671 
L 330.158235 -142.412995 
L 324.639313 -145.002334 
L 319.120391 -141.923961 
L 313.601469 -140.224546 
L 308.082548 -140.186768 
L 302.563626 -143.853687 
L 297.044704 -143.193584 
L 291.525782 -143.097873 
L 286.00686 -143.589083 
L 280.487939 -142.510972 
L 274.969017 -141.495249 
L 269.450095 -143.035279 
L 263.931173 -142.007459 
L 258.412252 -144.729961 
L 252.89333 -141.146537 
L 247.374408 -142.762766 
L 241.855486 -141.508096 
L 236.336564 -138.347028 
L 230.817643 -140.033974 
L 225.298721 -138.174267 
L 219.779799 -136.35946 
L 214.260877 -139.40259 
L 208.741956 -139.089176 
L 203.223034 -139.077716 
L 197.704112 -140.110806 
L 192.18519 -139.084932 
L 186.666268 -138.896269 
L 181.147347 -136.898828 
L 175.628425 -134.771117 
L 170.109503 -135.467289 
L 164.590581 -132.124523 
L 159.07166 -119.388655 
L 153.552738 -121.432495 
L 148.033816 -124.779744 
L 142.514894 -126.83111 
L 136.995973 -124.896004 
L 131.477051 -124.53787 
L 125.958129 -127.139137 
L 120.439207 -120.830462 
L 114.920285 -127.500565 
L 109.401364 -140.188777 
z
" style="stroke: #6060eb; stroke-opacity: 0.1"/>
    </defs>
    <g clip-path="url(#p8e8aed8292)">
     <use xlink:href="#m35838a33e0" x="0" y="432" style="fill: #6060eb; fill-opacity: 0.1; stroke: #6060eb; stroke-opacity: 0.1"/>
    </g>
   </g>
   <g id="PathCollection_1">
    <defs>
     <path id="m1410260bf7" d="M 0 -3 
L -0.673542 -0.927051 
L -2.85317 -0.927051 
L -1.089814 0.354102 
L -1.763356 2.427051 
L -0 1.145898 
L 1.763356 2.427051 
L 1.089814 0.354102 
L 2.85317 -0.927051 
L 0.673542 -0.927051 
z
" style="stroke: #6060eb"/>
    </defs>
    <g clip-path="url(#p8e8aed8292)">
     <use xlink:href="#m1410260bf7" x="164.590581" y="326.280318" style="fill: #6060eb; stroke: #6060eb"/>
     <use xlink:href="#m1410260bf7" x="170.109503" y="326.280318" style="fill: #6060eb; stroke: #6060eb"/>
     <use xlink:href="#m1410260bf7" x="175.628425" y="326.280318" style="fill: #6060eb; stroke: #6060eb"/>
     <use xlink:href="#m1410260bf7" x="181.147347" y="326.280318" style="fill: #6060eb; stroke: #6060eb"/>
     <use xlink:href="#m1410260bf7" x="186.666268" y="326.280318" style="fill: #6060eb; stroke: #6060eb"/>
     <use xlink:href="#m1410260bf7" x="192.18519" y="326.280318" style="fill: #6060eb; stroke: #6060eb"/>
     <use xlink:href="#m1410260bf7" x="197.704112" y="326.280318" style="fill: #6060eb; stroke: #6060eb"/>
     <use xlink:href="#m1410260bf7" x="203.223034" y="326.280318" style="fill: #6060eb; stroke: #6060eb"/>
     <use xlink:href="#m1410260bf7" x="208.741956" y="326.280318" style="fill: #6060eb; stroke: #6060eb"/>
     <use xlink:href="#m1410260bf7" x="214.260877" y="326.280318" style="fill: #6060eb; stroke: #6060eb"/>
     <use xlink:href="#m1410260bf7" x="219.779799" y="326.280318" style="fill: #6060eb; stroke: #6060eb"/>
     <use xlink:href="#m1410260bf7" x="225.298721" y="326.280318" style="fill: #6060eb; stroke: #6060eb"/>
     <use xlink:href="#m1410260bf7" x="230.817643" y="326.280318" style="fill: #6060eb; stroke: #6060eb"/>
     <use xlink:href="#m1410260bf7" x="236.336564" y="326.280318" style="fill: #6060eb; stroke: #6060eb"/>
     <use xlink:href="#m1410260bf7" x="241.855486" y="326.280318" style="fill: #6060eb; stroke: #6060eb"/>
     <use xlink:href="#m1410260bf7" x="247.374408" y="326.280318" style="fill: #6060eb; stroke: #6060eb"/>
     <use xlink:href="#m1410260bf7" x="252.89333" y="326.280318" style="fill: #6060eb; stroke: #6060eb"/>
     <use xlink:href="#m1410260bf7" x="258.412252" y="326.280318" style="fill: #6060eb; stroke: #6060eb"/>
     <use xlink:href="#m1410260bf7" x="263.931173" y="326.280318" style="fill: #6060eb; stroke: #6060eb"/>
     <use xlink:href="#m1410260bf7" x="269.450095" y="326.280318" style="fill: #6060eb; stroke: #6060eb"/>
     <use xlink:href="#m1410260bf7" x="274.969017" y="326.280318" style="fill: #6060eb; stroke: #6060eb"/>
     <use xlink:href="#m1410260bf7" x="280.487939" y="326.280318" style="fill: #6060eb; stroke: #6060eb"/>
     <use xlink:href="#m1410260bf7" x="286.00686" y="326.280318" style="fill: #6060eb; stroke: #6060eb"/>
     <use xlink:href="#m1410260bf7" x="291.525782" y="326.280318" style="fill: #6060eb; stroke: #6060eb"/>
     <use xlink:href="#m1410260bf7" x="297.044704" y="326.280318" style="fill: #6060eb; stroke: #6060eb"/>
     <use xlink:href="#m1410260bf7" x="302.563626" y="326.280318" style="fill: #6060eb; stroke: #6060eb"/>
     <use xlink:href="#m1410260bf7" x="308.082548" y="326.280318" style="fill: #6060eb; stroke: #6060eb"/>
     <use xlink:href="#m1410260bf7" x="313.601469" y="326.280318" style="fill: #6060eb; stroke: #6060eb"/>
     <use xlink:href="#m1410260bf7" x="319.120391" y="326.280318" style="fill: #6060eb; stroke: #6060eb"/>
     <use xlink:href="#m1410260bf7" x="324.639313" y="326.280318" style="fill: #6060eb; stroke: #6060eb"/>
     <use xlink:href="#m1410260bf7" x="330.158235" y="326.280318" style="fill: #6060eb; stroke: #6060eb"/>
     <use xlink:href="#m1410260bf7" x="335.677156" y="326.280318" style="fill: #6060eb; stroke: #6060eb"/>
     <use xlink:href="#m1410260bf7" x="341.196078" y="326.280318" style="fill: #6060eb; stroke: #6060eb"/>
     <use xlink:href="#m1410260bf7" x="346.715" y="326.280318" style="fill: #6060eb; stroke: #6060eb"/>
     <use xlink:href="#m1410260bf7" x="352.233922" y="326.280318" style="fill: #6060eb; stroke: #6060eb"/>
     <use xlink:href="#m1410260bf7" x="357.752844" y="326.280318" style="fill: #6060eb; stroke: #6060eb"/>
     <use xlink:href="#m1410260bf7" x="363.271765" y="326.280318" style="fill: #6060eb; stroke: #6060eb"/>
     <use xlink:href="#m1410260bf7" x="368.790687" y="326.280318" style="fill: #6060eb; stroke: #6060eb"/>
     <use xlink:href="#m1410260bf7" x="374.309609" y="326.280318" style="fill: #6060eb; stroke: #6060eb"/>
     <use xlink:href="#m1410260bf7" x="379.828531" y="326.280318" style="fill: #6060eb; stroke: #6060eb"/>
     <use xlink:href="#m1410260bf7" x="385.347452" y="326.280318" style="fill: #6060eb; stroke: #6060eb"/>
     <use xlink:href="#m1410260bf7" x="390.866374" y="326.280318" style="fill: #6060eb; stroke: #6060eb"/>
     <use xlink:href="#m1410260bf7" x="396.385296" y="326.280318" style="fill: #6060eb; stroke: #6060eb"/>
     <use xlink:href="#m1410260bf7" x="401.904218" y="326.280318" style="fill: #6060eb; stroke: #6060eb"/>
     <use xlink:href="#m1410260bf7" x="407.42314" y="326.280318" style="fill: #6060eb; stroke: #6060eb"/>
     <use xlink:href="#m1410260bf7" x="412.942061" y="326.280318" style="fill: #6060eb; stroke: #6060eb"/>
     <use xlink:href="#m1410260bf7" x="418.460983" y="326.280318" style="fill: #6060eb; stroke: #6060eb"/>
     <use xlink:href="#m1410260bf7" x="423.979905" y="326.280318" style="fill: #6060eb; stroke: #6060eb"/>
     <use xlink:href="#m1410260bf7" x="429.498827" y="326.280318" style="fill: #6060eb; stroke: #6060eb"/>
     <use xlink:href="#m1410260bf7" x="435.017748" y="326.280318" style="fill: #6060eb; stroke: #6060eb"/>
     <use xlink:href="#m1410260bf7" x="440.53667" y="326.280318" style="fill: #6060eb; stroke: #6060eb"/>
     <use xlink:href="#m1410260bf7" x="446.055592" y="326.280318" style="fill: #6060eb; stroke: #6060eb"/>
     <use xlink:href="#m1410260bf7" x="451.574514" y="326.280318" style="fill: #6060eb; stroke: #6060eb"/>
     <use xlink:href="#m1410260bf7" x="457.093436" y="326.280318" style="fill: #6060eb; stroke: #6060eb"/>
     <use xlink:href="#m1410260bf7" x="462.612357" y="326.280318" style="fill: #6060eb; stroke: #6060eb"/>
     <use xlink:href="#m1410260bf7" x="468.131279" y="326.280318" style="fill: #6060eb; stroke: #6060eb"/>
     <use xlink:href="#m1410260bf7" x="473.650201" y="326.280318" style="fill: #6060eb; stroke: #6060eb"/>
     <use xlink:href="#m1410260bf7" x="479.169123" y="326.280318" style="fill: #6060eb; stroke: #6060eb"/>
     <use xlink:href="#m1410260bf7" x="484.688044" y="326.280318" style="fill: #6060eb; stroke: #6060eb"/>
     <use xlink:href="#m1410260bf7" x="490.206966" y="326.280318" style="fill: #6060eb; stroke: #6060eb"/>
     <use xlink:href="#m1410260bf7" x="495.725888" y="326.280318" style="fill: #6060eb; stroke: #6060eb"/>
     <use xlink:href="#m1410260bf7" x="501.24481" y="326.280318" style="fill: #6060eb; stroke: #6060eb"/>
     <use xlink:href="#m1410260bf7" x="506.763732" y="326.280318" style="fill: #6060eb; stroke: #6060eb"/>
     <use xlink:href="#m1410260bf7" x="512.282653" y="326.280318" style="fill: #6060eb; stroke: #6060eb"/>
     <use xlink:href="#m1410260bf7" x="517.801575" y="326.280318" style="fill: #6060eb; stroke: #6060eb"/>
     <use xlink:href="#m1410260bf7" x="523.320497" y="326.280318" style="fill: #6060eb; stroke: #6060eb"/>
     <use xlink:href="#m1410260bf7" x="528.839419" y="326.280318" style="fill: #6060eb; stroke: #6060eb"/>
     <use xlink:href="#m1410260bf7" x="534.35834" y="326.280318" style="fill: #6060eb; stroke: #6060eb"/>
     <use xlink:href="#m1410260bf7" x="539.877262" y="326.280318" style="fill: #6060eb; stroke: #6060eb"/>
     <use xlink:href="#m1410260bf7" x="545.396184" y="326.280318" style="fill: #6060eb; stroke: #6060eb"/>
     <use xlink:href="#m1410260bf7" x="550.915106" y="326.280318" style="fill: #6060eb; stroke: #6060eb"/>
     <use xlink:href="#m1410260bf7" x="556.434027" y="326.280318" style="fill: #6060eb; stroke: #6060eb"/>
     <use xlink:href="#m1410260bf7" x="561.952949" y="326.280318" style="fill: #6060eb; stroke: #6060eb"/>
     <use xlink:href="#m1410260bf7" x="567.471871" y="326.280318" style="fill: #6060eb; stroke: #6060eb"/>
     <use xlink:href="#m1410260bf7" x="572.990793" y="326.280318" style="fill: #6060eb; stroke: #6060eb"/>
     <use xlink:href="#m1410260bf7" x="578.509715" y="326.280318" style="fill: #6060eb; stroke: #6060eb"/>
     <use xlink:href="#m1410260bf7" x="584.028636" y="326.280318" style="fill: #6060eb; stroke: #6060eb"/>
    </g>
   </g>
   <g id="PolyCollection_3">
    <defs>
     <path id="m020ca84974" d="M 109.401364 -123.006518 
L 109.401364 -93.839147 
L 114.920285 -68.800909 
L 120.439207 -69.112023 
L 125.958129 -70.390857 
L 131.477051 -95.896108 
L 136.995973 -115.786799 
L 142.514894 -116.07325 
L 148.033816 -111.291614 
L 153.552738 -125.852082 
L 159.07166 -139.70492 
L 164.590581 -144.474703 
L 170.109503 -153.771109 
L 175.628425 -148.20808 
L 181.147347 -165.533706 
L 186.666268 -185.603699 
L 192.18519 -178.02035 
L 197.704112 -188.528031 
L 203.223034 -203.899519 
L 208.741956 -207.294607 
L 214.260877 -215.800807 
L 219.779799 -213.303926 
L 225.298721 -205.707697 
L 230.817643 -197.370562 
L 236.336564 -200.346922 
L 241.855486 -202.202072 
L 247.374408 -190.313503 
L 252.89333 -188.311459 
L 258.412252 -193.931112 
L 263.931173 -187.121346 
L 269.450095 -179.213562 
L 274.969017 -176.981255 
L 280.487939 -187.770077 
L 286.00686 -195.569576 
L 291.525782 -192.593742 
L 297.044704 -185.377561 
L 302.563626 -187.283388 
L 308.082548 -180.442239 
L 313.601469 -181.691069 
L 319.120391 -180.988065 
L 324.639313 -177.787971 
L 330.158235 -185.590815 
L 335.677156 -175.583706 
L 341.196078 -176.639655 
L 346.715 -183.561488 
L 352.233922 -182.240483 
L 357.752844 -185.283745 
L 363.271765 -182.488899 
L 368.790687 -187.916426 
L 374.309609 -193.285079 
L 379.828531 -179.877797 
L 385.347452 -172.290061 
L 390.866374 -176.93812 
L 396.385296 -175.987791 
L 401.904218 -184.633876 
L 407.42314 -171.56 
L 412.942061 -175.570871 
L 418.460983 -174.010286 
L 423.979905 -177.555669 
L 429.498827 -170.25563 
L 435.017748 -167.883864 
L 440.53667 -163.826391 
L 446.055592 -159.668564 
L 451.574514 -153.629458 
L 457.093436 -146.106684 
L 462.612357 -137.996925 
L 468.131279 -145.212599 
L 473.650201 -149.097131 
L 479.169123 -126.525073 
L 484.688044 -121.694745 
L 490.206966 -120.148427 
L 495.725888 -102.731229 
L 501.24481 -106.302168 
L 506.763732 -100.083105 
L 512.282653 -102.569241 
L 517.801575 -101.376287 
L 523.320497 -95.582805 
L 528.839419 -103.496517 
L 534.35834 -106.349415 
L 539.877262 -117.586965 
L 545.396184 -121.391785 
L 550.915106 -118.086334 
L 556.434027 -121.813445 
L 561.952949 -126.00128 
L 567.471871 -141.792905 
L 572.990793 -143.489905 
L 578.509715 -154.83409 
L 584.028636 -147.765463 
L 584.028636 -205.866809 
L 584.028636 -205.866809 
L 578.509715 -211.046887 
L 572.990793 -198.803175 
L 567.471871 -197.267441 
L 561.952949 -181.068832 
L 556.434027 -175.74153 
L 550.915106 -171.307151 
L 545.396184 -172.258329 
L 539.877262 -168.218276 
L 534.35834 -155.547592 
L 528.839419 -153.68818 
L 523.320497 -144.127794 
L 517.801575 -148.977598 
L 512.282653 -147.944348 
L 506.763732 -143.155204 
L 501.24481 -151.42758 
L 495.725888 -147.430186 
L 490.206966 -162.159173 
L 484.688044 -162.211286 
L 479.169123 -164.947253 
L 473.650201 -187.585244 
L 468.131279 -184.273659 
L 462.612357 -175.978206 
L 457.093436 -179.708881 
L 451.574514 -186.989853 
L 446.055592 -193.251882 
L 440.53667 -196.051566 
L 435.017748 -199.310299 
L 429.498827 -201.554713 
L 423.979905 -209.600139 
L 418.460983 -204.860034 
L 412.942061 -205.937909 
L 407.42314 -200.097665 
L 401.904218 -213.654056 
L 396.385296 -204.271056 
L 390.866374 -204.655411 
L 385.347452 -199.711804 
L 379.828531 -206.345329 
L 374.309609 -219.70876 
L 368.790687 -214.557892 
L 363.271765 -210.353897 
L 357.752844 -211.933002 
L 352.233922 -209.357631 
L 346.715 -211.275973 
L 341.196078 -203.005729 
L 335.677156 -202.797768 
L 330.158235 -211.818227 
L 324.639313 -202.614369 
L 319.120391 -205.616472 
L 313.601469 -206.334239 
L 308.082548 -205.683953 
L 302.563626 -211.454173 
L 297.044704 -208.135329 
L 291.525782 -214.786521 
L 286.00686 -216.836451 
L 280.487939 -210.06289 
L 274.969017 -199.453201 
L 269.450095 -201.871975 
L 263.931173 -212.375259 
L 258.412252 -221.903043 
L 252.89333 -214.217929 
L 247.374408 -216.831098 
L 241.855486 -228.480552 
L 236.336564 -227.86706 
L 230.817643 -224.621089 
L 225.298721 -231.656317 
L 219.779799 -238.751232 
L 214.260877 -241.032473 
L 208.741956 -235.816695 
L 203.223034 -232.219122 
L 197.704112 -218.655818 
L 192.18519 -209.779215 
L 186.666268 -215.444331 
L 181.147347 -197.276475 
L 175.628425 -179.579999 
L 170.109503 -187.120042 
L 164.590581 -179.721056 
L 159.07166 -179.627849 
L 153.552738 -164.730914 
L 148.033816 -153.621924 
L 142.514894 -159.629606 
L 136.995973 -156.722167 
L 131.477051 -137.878284 
L 125.958129 -111.926606 
L 120.439207 -107.192067 
L 114.920285 -105.371927 
L 109.401364 -123.006518 
z
" style="stroke: #00008b; stroke-opacity: 0.1"/>
    </defs>
    <g clip-path="url(#p8e8aed8292)">
     <use xlink:href="#m020ca84974" x="0" y="432" style="fill: #00008b; fill-opacity: 0.1; stroke: #00008b; stroke-opacity: 0.1"/>
    </g>
   </g>
   <g id="PolyCollection_4">
    <defs>
     <path id="m1cfaff2d85" d="M 109.401364 -129.526671 
L 109.401364 -123.037465 
L 114.920285 -124.069914 
L 120.439207 -127.579723 
L 125.958129 -132.922938 
L 131.477051 -136.510729 
L 136.995973 -138.291641 
L 142.514894 -141.605391 
L 148.033816 -153.288982 
L 153.552738 -165.707045 
L 159.07166 -174.116172 
L 164.590581 -183.349774 
L 170.109503 -190.988539 
L 175.628425 -194.593831 
L 181.147347 -193.736284 
L 186.666268 -194.436914 
L 192.18519 -193.438776 
L 197.704112 -190.034579 
L 203.223034 -190.539966 
L 208.741956 -184.506187 
L 214.260877 -181.685282 
L 219.779799 -181.483833 
L 225.298721 -180.620526 
L 230.817643 -181.54766 
L 236.336564 -181.934466 
L 241.855486 -179.894794 
L 247.374408 -176.495708 
L 252.89333 -172.335414 
L 258.412252 -172.286514 
L 263.931173 -169.635048 
L 269.450095 -171.097009 
L 274.969017 -167.501302 
L 280.487939 -165.967698 
L 286.00686 -166.37245 
L 291.525782 -166.014021 
L 297.044704 -163.531406 
L 302.563626 -163.188187 
L 308.082548 -163.508032 
L 313.601469 -163.890211 
L 319.120391 -162.278612 
L 324.639313 -161.267987 
L 330.158235 -160.44651 
L 335.677156 -158.8798 
L 341.196078 -160.957628 
L 346.715 -161.758405 
L 352.233922 -160.719554 
L 357.752844 -160.486953 
L 363.271765 -159.752501 
L 368.790687 -160.553061 
L 374.309609 -158.701824 
L 379.828531 -157.971475 
L 385.347452 -157.993117 
L 390.866374 -154.705668 
L 396.385296 -154.658446 
L 401.904218 -152.150332 
L 407.42314 -156.466632 
L 412.942061 -155.476149 
L 418.460983 -152.71407 
L 423.979905 -150.648933 
L 429.498827 -149.878912 
L 435.017748 -143.796695 
L 440.53667 -141.867589 
L 446.055592 -141.22613 
L 451.574514 -139.526094 
L 457.093436 -139.475611 
L 462.612357 -136.559191 
L 468.131279 -135.130759 
L 473.650201 -133.565619 
L 479.169123 -129.831288 
L 484.688044 -126.447337 
L 490.206966 -126.633957 
L 495.725888 -127.887464 
L 501.24481 -124.69296 
L 506.763732 -122.490959 
L 512.282653 -122.89911 
L 517.801575 -124.960794 
L 523.320497 -123.800068 
L 528.839419 -121.721452 
L 534.35834 -121.363191 
L 539.877262 -124.938796 
L 545.396184 -126.315652 
L 550.915106 -127.375525 
L 556.434027 -125.231879 
L 561.952949 -124.739863 
L 567.471871 -122.821852 
L 572.990793 -121.476295 
L 578.509715 -122.160244 
L 584.028636 -121.583745 
L 584.028636 -126.503943 
L 584.028636 -126.503943 
L 578.509715 -127.15157 
L 572.990793 -126.385269 
L 567.471871 -127.76832 
L 561.952949 -129.680925 
L 556.434027 -130.345364 
L 550.915106 -133.357786 
L 545.396184 -132.259045 
L 539.877262 -130.774202 
L 534.35834 -127.255419 
L 528.839419 -128.195107 
L 523.320497 -130.73201 
L 517.801575 -131.3282 
L 512.282653 -129.474546 
L 506.763732 -128.903647 
L 501.24481 -131.075492 
L 495.725888 -133.922617 
L 490.206966 -132.163116 
L 484.688044 -131.806578 
L 479.169123 -135.44927 
L 473.650201 -139.371281 
L 468.131279 -141.158052 
L 462.612357 -143.317433 
L 457.093436 -146.288084 
L 451.574514 -146.396 
L 446.055592 -148.168848 
L 440.53667 -148.39366 
L 435.017748 -149.916489 
L 429.498827 -156.240577 
L 423.979905 -157.505966 
L 418.460983 -159.914672 
L 412.942061 -162.441669 
L 407.42314 -163.22482 
L 401.904218 -158.290544 
L 396.385296 -160.871123 
L 390.866374 -161.228528 
L 385.347452 -164.614953 
L 379.828531 -165.355364 
L 374.309609 -165.898424 
L 368.790687 -167.718008 
L 363.271765 -166.738893 
L 357.752844 -167.872287 
L 352.233922 -167.839993 
L 346.715 -168.615816 
L 341.196078 -167.916221 
L 335.677156 -166.071687 
L 330.158235 -167.729147 
L 324.639313 -168.525614 
L 319.120391 -169.121927 
L 313.601469 -171.377618 
L 308.082548 -170.417123 
L 302.563626 -170.169143 
L 297.044704 -170.626886 
L 291.525782 -172.73956 
L 286.00686 -173.601566 
L 280.487939 -172.726662 
L 274.969017 -174.10442 
L 269.450095 -178.486496 
L 263.931173 -176.682958 
L 258.412252 -178.800508 
L 252.89333 -179.088835 
L 247.374408 -184.114093 
L 241.855486 -187.684697 
L 236.336564 -189.892097 
L 230.817643 -189.394511 
L 225.298721 -188.86289 
L 219.779799 -190.644534 
L 214.260877 -190.821347 
L 208.741956 -193.647721 
L 203.223034 -199.937629 
L 197.704112 -199.384628 
L 192.18519 -202.599899 
L 186.666268 -203.577567 
L 181.147347 -204.344787 
L 175.628425 -205.382417 
L 170.109503 -201.592882 
L 164.590581 -194.44401 
L 159.07166 -185.108624 
L 153.552738 -175.517535 
L 148.033816 -163.339899 
L 142.514894 -150.898316 
L 136.995973 -148.16185 
L 131.477051 -146.5495 
L 125.958129 -142.690005 
L 120.439207 -135.551031 
L 114.920285 -132.590797 
L 109.401364 -129.526671 
z
" style="stroke: #00008b; stroke-opacity: 0.1"/>
    </defs>
    <g clip-path="url(#p8e8aed8292)">
     <use xlink:href="#m1cfaff2d85" x="0" y="432" style="fill: #00008b; fill-opacity: 0.1; stroke: #00008b; stroke-opacity: 0.1"/>
    </g>
   </g>
   <g id="PathCollection_2">
    <defs>
     <path id="m8d2004b219" d="M 0 -3 
L -0.673542 -0.927051 
L -2.85317 -0.927051 
L -1.089814 0.354102 
L -1.763356 2.427051 
L -0 1.145898 
L 1.763356 2.427051 
L 1.089814 0.354102 
L 2.85317 -0.927051 
L 0.673542 -0.927051 
z
" style="stroke: #00008b"/>
    </defs>
    <g clip-path="url(#p8e8aed8292)">
     <use xlink:href="#m8d2004b219" x="214.260877" y="342.132056" style="fill: #00008b; stroke: #00008b"/>
     <use xlink:href="#m8d2004b219" x="286.00686" y="342.132056" style="fill: #00008b; stroke: #00008b"/>
     <use xlink:href="#m8d2004b219" x="374.309609" y="342.132056" style="fill: #00008b; stroke: #00008b"/>
    </g>
   </g>
   <g id="line2d_18">
    <path d="M 109.401364 273.082923 
L 114.920285 282.091419 
L 120.439207 333.605908 
L 125.958129 317.175604 
L 131.477051 310.87192 
L 136.995973 306.650123 
L 142.514894 329.806747 
L 148.033816 318.585992 
L 153.552738 306.027112 
L 159.07166 321.613639 
L 164.590581 267.031148 
L 170.109503 255.258623 
L 175.628425 260.276494 
L 181.147347 241.385495 
L 186.666268 244.906653 
L 192.18519 245.948882 
L 197.704112 235.96747 
L 203.223034 231.923532 
L 208.741956 230.12206 
L 214.260877 220.984666 
L 219.779799 223.593838 
L 225.298721 215.986913 
L 230.817643 210.242888 
L 236.336564 214.163544 
L 241.855486 205.805313 
L 247.374408 210.692006 
L 252.89333 215.41414 
L 258.412252 203.380806 
L 263.931173 203.957785 
L 269.450095 204.840519 
L 274.969017 198.962243 
L 280.487939 195.85406 
L 286.00686 184.65858 
L 291.525782 180.701382 
L 297.044704 186.966876 
L 302.563626 184.131896 
L 308.082548 181.194854 
L 313.601469 172.55865 
L 319.120391 183.901735 
L 324.639313 185.533729 
L 330.158235 175.255002 
L 335.677156 178.863259 
L 341.196078 171.506015 
L 346.715 164.526912 
L 352.233922 166.107608 
L 357.752844 164.148909 
L 363.271765 150.774304 
L 368.790687 148.583332 
L 374.309609 152.530695 
L 379.828531 156.73709 
L 385.347452 155.28598 
L 390.866374 152.480658 
L 396.385296 145.547866 
L 401.904218 152.237844 
L 407.42314 152.283525 
L 412.942061 145.117674 
L 418.460983 135.648249 
L 423.979905 141.835686 
L 429.498827 138.459372 
L 435.017748 157.821191 
L 440.53667 133.709457 
L 446.055592 137.668168 
L 451.574514 130.462345 
L 457.093436 139.295797 
L 462.612357 136.53893 
L 468.131279 111.92271 
L 473.650201 117.75551 
L 479.169123 121.175741 
L 484.688044 108.665455 
L 490.206966 106.217235 
L 495.725888 107.322464 
L 501.24481 110.059261 
L 506.763732 88.082681 
L 512.282653 105.787111 
L 517.801575 88.440525 
L 523.320497 83.787318 
L 528.839419 82.166184 
L 534.35834 77.990282 
L 539.877262 76.071716 
L 545.396184 76.583146 
L 550.915106 76.932265 
L 556.434027 77.392949 
L 561.952949 76.347017 
L 567.471871 85.079074 
L 572.990793 96.231144 
L 578.509715 94.724886 
L 584.028636 78.282797 
" clip-path="url(#p8e8aed8292)" style="fill: none; stroke: #6060eb; stroke-width: 2; stroke-linecap: round"/>
   </g>
   <g id="line2d_19">
    <path d="M 109.401364 301.951639 
L 114.920285 307.303881 
L 120.439207 313.420783 
L 125.958129 306.833812 
L 131.477051 308.902216 
L 136.995973 308.835462 
L 142.514894 307.213536 
L 148.033816 309.451193 
L 153.552738 312.298491 
L 159.07166 314.520306 
L 164.590581 301.573599 
L 170.109503 298.916264 
L 175.628425 299.082119 
L 181.147347 297.071025 
L 186.666268 295.108601 
L 192.18519 294.860201 
L 197.704112 293.738979 
L 203.223034 294.684507 
L 208.741956 294.622633 
L 214.260877 294.325086 
L 219.779799 297.340686 
L 225.298721 295.448663 
L 230.817643 293.645349 
L 236.336564 295.195732 
L 241.855486 292.285922 
L 247.374408 290.933185 
L 252.89333 292.559815 
L 258.412252 289.234598 
L 263.931173 291.674802 
L 269.450095 290.851351 
L 274.969017 292.260548 
L 280.487939 291.324002 
L 286.00686 290.562792 
L 291.525782 290.972543 
L 297.044704 290.799891 
L 302.563626 289.981594 
L 308.082548 293.635752 
L 313.601469 293.771587 
L 319.120391 292.093172 
L 324.639313 288.782411 
L 330.158235 291.445305 
L 335.677156 289.364208 
L 341.196078 287.838868 
L 346.715 287.122514 
L 352.233922 285.385633 
L 357.752844 286.124314 
L 363.271765 286.788274 
L 368.790687 287.021879 
L 374.309609 287.188476 
L 379.828531 284.827095 
L 385.347452 283.161324 
L 390.866374 284.735527 
L 396.385296 284.007578 
L 401.904218 286.341089 
L 407.42314 284.947983 
L 412.942061 285.749398 
L 418.460983 289.692235 
L 423.979905 287.671057 
L 429.498827 289.230627 
L 435.017748 291.885198 
L 440.53667 293.241305 
L 446.055592 295.41982 
L 451.574514 295.529685 
L 457.093436 295.058469 
L 462.612357 294.385629 
L 468.131279 296.079559 
L 473.650201 293.274755 
L 479.169123 296.048684 
L 484.688044 296.530399 
L 490.206966 296.806118 
L 495.725888 294.423024 
L 501.24481 298.85984 
L 506.763732 294.539822 
L 512.282653 294.814172 
L 517.801575 295.269742 
L 523.320497 296.275408 
L 528.839419 296.307438 
L 534.35834 296.060811 
L 539.877262 297.327224 
L 545.396184 297.466921 
L 550.915106 295.067888 
L 556.434027 295.745925 
L 561.952949 296.506303 
L 567.471871 298.390311 
L 572.990793 298.876428 
L 578.509715 296.183956 
L 584.028636 296.725766 
" clip-path="url(#p8e8aed8292)" style="fill: none; stroke-dasharray: 7.4,3.2; stroke-dashoffset: 0; stroke: #6060eb; stroke-width: 2"/>
   </g>
   <g id="line2d_20">
    <path d="M 164.590581 379.18 
L 164.590581 27.6 
" clip-path="url(#p8e8aed8292)" style="fill: none; stroke-dasharray: 5.55,2.4; stroke-dashoffset: 0; stroke: #1a1a1a; stroke-width: 1.5"/>
   </g>
   <g id="line2d_21">
    <path d="M 440.53667 379.18 
L 440.53667 27.6 
" clip-path="url(#p8e8aed8292)" style="fill: none; stroke-dasharray: 5.55,2.4; stroke-dashoffset: 0; stroke: #1a1a1a; stroke-width: 1.5"/>
   </g>
   <g id="line2d_22">
    <path d="M 109.401364 323.577167 
L 114.920285 344.913582 
L 120.439207 343.847955 
L 125.958129 340.841269 
L 131.477051 315.112804 
L 136.995973 295.745517 
L 142.514894 294.148572 
L 148.033816 299.543231 
L 153.552738 286.708502 
L 159.07166 272.333616 
L 164.590581 269.90212 
L 170.109503 261.554425 
L 175.628425 268.10596 
L 181.147347 250.594909 
L 186.666268 231.475985 
L 192.18519 238.100217 
L 197.704112 228.408075 
L 203.223034 213.940679 
L 208.741956 210.444349 
L 214.260877 203.58336 
L 219.779799 205.972421 
L 225.298721 213.317993 
L 230.817643 221.004174 
L 236.336564 217.893009 
L 241.855486 216.658688 
L 247.374408 228.427699 
L 252.89333 230.735306 
L 258.412252 224.082922 
L 263.931173 232.251697 
L 269.450095 241.457232 
L 274.969017 243.782772 
L 280.487939 233.083516 
L 286.00686 225.796986 
L 291.525782 228.309869 
L 297.044704 235.243555 
L 302.563626 232.63122 
L 308.082548 238.936904 
L 313.601469 237.987346 
L 319.120391 238.697732 
L 324.639313 241.79883 
L 330.158235 233.295479 
L 335.677156 242.809263 
L 341.196078 242.177308 
L 346.715 234.58127 
L 352.233922 236.200943 
L 357.752844 233.391627 
L 363.271765 235.578602 
L 368.790687 230.762841 
L 374.309609 225.503081 
L 379.828531 238.888437 
L 385.347452 245.999067 
L 390.866374 241.203235 
L 396.385296 241.870577 
L 401.904218 232.856034 
L 407.42314 246.171168 
L 412.942061 241.24561 
L 418.460983 242.56484 
L 423.979905 238.422096 
L 429.498827 246.094828 
L 435.017748 248.402919 
L 440.53667 252.061022 
L 446.055592 255.539777 
L 451.574514 261.690345 
L 457.093436 269.092218 
L 462.612357 275.012434 
L 468.131279 267.256871 
L 473.650201 263.658812 
L 479.169123 286.263837 
L 484.688044 290.046984 
L 490.206966 290.8462 
L 495.725888 306.919293 
L 501.24481 303.135126 
L 506.763732 310.380846 
L 512.282653 306.743205 
L 517.801575 306.823058 
L 523.320497 312.1447 
L 528.839419 303.407652 
L 534.35834 301.051497 
L 539.877262 289.097379 
L 545.396184 285.174943 
L 550.915106 287.303257 
L 556.434027 283.222513 
L 561.952949 278.464944 
L 567.471871 262.469827 
L 572.990793 260.85346 
L 578.509715 249.059511 
L 584.028636 255.183864 
" clip-path="url(#p8e8aed8292)" style="fill: none; stroke: #00008b; stroke-width: 2; stroke-linecap: round"/>
   </g>
   <g id="line2d_23">
    <path d="M 109.401364 305.717932 
L 114.920285 303.669645 
L 120.439207 300.434623 
L 125.958129 294.193528 
L 131.477051 290.469885 
L 136.995973 288.773255 
L 142.514894 285.748147 
L 148.033816 273.685559 
L 153.552738 261.38771 
L 159.07166 252.387602 
L 164.590581 243.103108 
L 170.109503 235.709289 
L 175.628425 232.011876 
L 181.147347 232.959464 
L 186.666268 232.992759 
L 192.18519 233.980663 
L 197.704112 237.290397 
L 203.223034 236.761203 
L 208.741956 242.923046 
L 214.260877 245.746685 
L 219.779799 245.935817 
L 225.298721 247.258292 
L 230.817643 246.528915 
L 236.336564 246.086719 
L 241.855486 248.210255 
L 247.374408 251.695099 
L 252.89333 256.287876 
L 258.412252 256.456489 
L 263.931173 258.840997 
L 269.450095 257.208248 
L 274.969017 261.197139 
L 280.487939 262.65282 
L 286.00686 262.012992 
L 291.525782 262.62321 
L 297.044704 264.920854 
L 302.563626 265.321335 
L 308.082548 265.037422 
L 313.601469 264.366085 
L 319.120391 266.29973 
L 324.639313 267.103199 
L 330.158235 267.912171 
L 335.677156 269.524257 
L 341.196078 267.563076 
L 346.715 266.812889 
L 352.233922 267.720227 
L 357.752844 267.82038 
L 363.271765 268.754303 
L 368.790687 267.864465 
L 374.309609 269.699876 
L 379.828531 270.336581 
L 385.347452 270.695965 
L 390.866374 274.032902 
L 396.385296 274.235216 
L 401.904218 276.779562 
L 407.42314 272.154274 
L 412.942061 273.041091 
L 418.460983 275.685629 
L 423.979905 277.922551 
L 429.498827 278.940256 
L 435.017748 285.143408 
L 440.53667 286.869375 
L 446.055592 287.302511 
L 451.574514 289.038953 
L 457.093436 289.118152 
L 462.612357 292.061688 
L 468.131279 293.855595 
L 473.650201 295.53155 
L 479.169123 299.359721 
L 484.688044 302.873042 
L 490.206966 302.601464 
L 495.725888 301.09496 
L 501.24481 304.115774 
L 506.763732 306.302697 
L 512.282653 305.813172 
L 517.801575 303.855503 
L 523.320497 304.733961 
L 528.839419 307.04172 
L 534.35834 307.690695 
L 539.877262 304.143501 
L 545.396184 302.712651 
L 550.915106 301.633345 
L 556.434027 304.211378 
L 561.952949 304.789606 
L 567.471871 306.704914 
L 572.990793 308.069218 
L 578.509715 307.344093 
L 584.028636 307.956156 
" clip-path="url(#p8e8aed8292)" style="fill: none; stroke-dasharray: 7.4,3.2; stroke-dashoffset: 0; stroke: #00008b; stroke-width: 2"/>
   </g>
   <g id="line2d_24">
    <path d="M 164.590581 379.18 
L 164.590581 27.6 
" clip-path="url(#p8e8aed8292)" style="fill: none; stroke-dasharray: 5.55,2.4; stroke-dashoffset: 0; stroke: #1a1a1a; stroke-width: 1.5"/>
   </g>
   <g id="line2d_25">
    <path d="M 440.53667 379.18 
L 440.53667 27.6 
" clip-path="url(#p8e8aed8292)" style="fill: none; stroke-dasharray: 5.55,2.4; stroke-dashoffset: 0; stroke: #1a1a1a; stroke-width: 1.5"/>
   </g>
   <g id="patch_3">
    <path d="M 85.67 379.18 
L 85.67 27.6 
" style="fill: none; stroke: #000000; stroke-width: 1.5; stroke-linejoin: miter; stroke-linecap: square"/>
   </g>
   <g id="patch_4">
    <path d="M 85.67 379.18 
L 607.76 379.18 
" style="fill: none; stroke: #000000; stroke-width: 1.5; stroke-linejoin: miter; stroke-linecap: square"/>
   </g>
   <g id="text_20">
    <!-- Divergence Comparison: Original vs Shuffled -->
    <g style="fill: #262626" transform="translate(227.105 21.6) scale(0.12 -0.12)">
     <defs>
      <path id="ArialMT-43" d="M 3763 1606 
L 4369 1453 
Q 4178 706 3683 314 
Q 3188 -78 2472 -78 
Q 1731 -78 1267 223 
Q 803 525 561 1097 
Q 319 1669 319 2325 
Q 319 3041 592 3573 
Q 866 4106 1370 4382 
Q 1875 4659 2481 4659 
Q 3169 4659 3637 4309 
Q 4106 3959 4291 3325 
L 3694 3184 
Q 3534 3684 3231 3912 
Q 2928 4141 2469 4141 
Q 1941 4141 1586 3887 
Q 1231 3634 1087 3207 
Q 944 2781 944 2328 
Q 944 1744 1114 1308 
Q 1284 872 1643 656 
Q 2003 441 2422 441 
Q 2931 441 3284 734 
Q 3638 1028 3763 1606 
z
" transform="scale(0.015625)"/>
      <path id="ArialMT-6f" d="M 213 1659 
Q 213 2581 725 3025 
Q 1153 3394 1769 3394 
Q 2453 3394 2887 2945 
Q 3322 2497 3322 1706 
Q 3322 1066 3130 698 
Q 2938 331 2570 128 
Q 2203 -75 1769 -75 
Q 1072 -75 642 372 
Q 213 819 213 1659 
z
M 791 1659 
Q 791 1022 1069 705 
Q 1347 388 1769 388 
Q 2188 388 2466 706 
Q 2744 1025 2744 1678 
Q 2744 2294 2464 2611 
Q 2184 2928 1769 2928 
Q 1347 2928 1069 2612 
Q 791 2297 791 1659 
z
" transform="scale(0.015625)"/>
      <path id="ArialMT-70" d="M 422 -1272 
L 422 3319 
L 934 3319 
L 934 2888 
Q 1116 3141 1344 3267 
Q 1572 3394 1897 3394 
Q 2322 3394 2647 3175 
Q 2972 2956 3137 2557 
Q 3303 2159 3303 1684 
Q 3303 1175 3120 767 
Q 2938 359 2589 142 
Q 2241 -75 1856 -75 
Q 1575 -75 1351 44 
Q 1128 163 984 344 
L 984 -1272 
L 422 -1272 
z
M 931 1641 
Q 931 1000 1190 694 
Q 1450 388 1819 388 
Q 2194 388 2461 705 
Q 2728 1022 2728 1688 
Q 2728 2322 2467 2637 
Q 2206 2953 1844 2953 
Q 1484 2953 1207 2617 
Q 931 2281 931 1641 
z
" transform="scale(0.015625)"/>
      <path id="ArialMT-61" d="M 2588 409 
Q 2275 144 1986 34 
Q 1697 -75 1366 -75 
Q 819 -75 525 192 
Q 231 459 231 875 
Q 231 1119 342 1320 
Q 453 1522 633 1644 
Q 813 1766 1038 1828 
Q 1203 1872 1538 1913 
Q 2219 1994 2541 2106 
Q 2544 2222 2544 2253 
Q 2544 2597 2384 2738 
Q 2169 2928 1744 2928 
Q 1347 2928 1158 2789 
Q 969 2650 878 2297 
L 328 2372 
Q 403 2725 575 2942 
Q 747 3159 1072 3276 
Q 1397 3394 1825 3394 
Q 2250 3394 2515 3294 
Q 2781 3194 2906 3042 
Q 3031 2891 3081 2659 
Q 3109 2516 3109 2141 
L 3109 1391 
Q 3109 606 3145 398 
Q 3181 191 3288 0 
L 2700 0 
Q 2613 175 2588 409 
z
M 2541 1666 
Q 2234 1541 1622 1453 
Q 1275 1403 1131 1340 
Q 988 1278 909 1158 
Q 831 1038 831 891 
Q 831 666 1001 516 
Q 1172 366 1500 366 
Q 1825 366 2078 508 
Q 2331 650 2450 897 
Q 2541 1088 2541 1459 
L 2541 1666 
z
" transform="scale(0.015625)"/>
      <path id="ArialMT-3a" d="M 578 2678 
L 578 3319 
L 1219 3319 
L 1219 2678 
L 578 2678 
z
M 578 0 
L 578 641 
L 1219 641 
L 1219 0 
L 578 0 
z
" transform="scale(0.015625)"/>
      <path id="ArialMT-4f" d="M 309 2231 
Q 309 3372 921 4017 
Q 1534 4663 2503 4663 
Q 3138 4663 3647 4359 
Q 4156 4056 4423 3514 
Q 4691 2972 4691 2284 
Q 4691 1588 4409 1038 
Q 4128 488 3612 205 
Q 3097 -78 2500 -78 
Q 1853 -78 1343 234 
Q 834 547 571 1087 
Q 309 1628 309 2231 
z
M 934 2222 
Q 934 1394 1379 917 
Q 1825 441 2497 441 
Q 3181 441 3623 922 
Q 4066 1403 4066 2288 
Q 4066 2847 3877 3264 
Q 3688 3681 3323 3911 
Q 2959 4141 2506 4141 
Q 1863 4141 1398 3698 
Q 934 3256 934 2222 
z
" transform="scale(0.015625)"/>
      <path id="ArialMT-6c" d="M 409 0 
L 409 4581 
L 972 4581 
L 972 0 
L 409 0 
z
" transform="scale(0.015625)"/>
      <path id="ArialMT-53" d="M 288 1472 
L 859 1522 
Q 900 1178 1048 958 
Q 1197 738 1509 602 
Q 1822 466 2213 466 
Q 2559 466 2825 569 
Q 3091 672 3220 851 
Q 3350 1031 3350 1244 
Q 3350 1459 3225 1620 
Q 3100 1781 2813 1891 
Q 2628 1963 1997 2114 
Q 1366 2266 1113 2400 
Q 784 2572 623 2826 
Q 463 3081 463 3397 
Q 463 3744 659 4045 
Q 856 4347 1234 4503 
Q 1613 4659 2075 4659 
Q 2584 4659 2973 4495 
Q 3363 4331 3572 4012 
Q 3781 3694 3797 3291 
L 3216 3247 
Q 3169 3681 2898 3903 
Q 2628 4125 2100 4125 
Q 1550 4125 1298 3923 
Q 1047 3722 1047 3438 
Q 1047 3191 1225 3031 
Q 1400 2872 2139 2705 
Q 2878 2538 3153 2413 
Q 3553 2228 3743 1945 
Q 3934 1663 3934 1294 
Q 3934 928 3725 604 
Q 3516 281 3123 101 
Q 2731 -78 2241 -78 
Q 1619 -78 1198 103 
Q 778 284 539 648 
Q 300 1013 288 1472 
z
" transform="scale(0.015625)"/>
      <path id="ArialMT-68" d="M 422 0 
L 422 4581 
L 984 4581 
L 984 2938 
Q 1378 3394 1978 3394 
Q 2347 3394 2619 3248 
Q 2891 3103 3008 2847 
Q 3125 2591 3125 2103 
L 3125 0 
L 2563 0 
L 2563 2103 
Q 2563 2525 2380 2717 
Q 2197 2909 1863 2909 
Q 1613 2909 1392 2779 
Q 1172 2650 1078 2428 
Q 984 2206 984 1816 
L 984 0 
L 422 0 
z
" transform="scale(0.015625)"/>
      <path id="ArialMT-75" d="M 2597 0 
L 2597 488 
Q 2209 -75 1544 -75 
Q 1250 -75 995 37 
Q 741 150 617 320 
Q 494 491 444 738 
Q 409 903 409 1263 
L 409 3319 
L 972 3319 
L 972 1478 
Q 972 1038 1006 884 
Q 1059 663 1231 536 
Q 1403 409 1656 409 
Q 1909 409 2131 539 
Q 2353 669 2445 892 
Q 2538 1116 2538 1541 
L 2538 3319 
L 3100 3319 
L 3100 0 
L 2597 0 
z
" transform="scale(0.015625)"/>
      <path id="ArialMT-66" d="M 556 0 
L 556 2881 
L 59 2881 
L 59 3319 
L 556 3319 
L 556 3672 
Q 556 4006 616 4169 
Q 697 4388 901 4523 
Q 1106 4659 1475 4659 
Q 1713 4659 2000 4603 
L 1916 4113 
Q 1741 4144 1584 4144 
Q 1328 4144 1222 4034 
Q 1116 3925 1116 3625 
L 1116 3319 
L 1763 3319 
L 1763 2881 
L 1116 2881 
L 1116 0 
L 556 0 
z
" transform="scale(0.015625)"/>
      <path id="ArialMT-64" d="M 2575 0 
L 2575 419 
Q 2259 -75 1647 -75 
Q 1250 -75 917 144 
Q 584 363 401 755 
Q 219 1147 219 1656 
Q 219 2153 384 2558 
Q 550 2963 881 3178 
Q 1213 3394 1622 3394 
Q 1922 3394 2156 3267 
Q 2391 3141 2538 2938 
L 2538 4581 
L 3097 4581 
L 3097 0 
L 2575 0 
z
M 797 1656 
Q 797 1019 1065 703 
Q 1334 388 1700 388 
Q 2069 388 2326 689 
Q 2584 991 2584 1609 
Q 2584 2291 2321 2609 
Q 2059 2928 1675 2928 
Q 1300 2928 1048 2622 
Q 797 2316 797 1656 
z
" transform="scale(0.015625)"/>
     </defs>
     <use xlink:href="#ArialMT-44"/>
     <use xlink:href="#ArialMT-69" x="72.216797"/>
     <use xlink:href="#ArialMT-76" x="94.433594"/>
     <use xlink:href="#ArialMT-65" x="144.433594"/>
     <use xlink:href="#ArialMT-72" x="200.048828"/>
     <use xlink:href="#ArialMT-67" x="233.349609"/>
     <use xlink:href="#ArialMT-65" x="288.964844"/>
     <use xlink:href="#ArialMT-6e" x="344.580078"/>
     <use xlink:href="#ArialMT-63" x="400.195312"/>
     <use xlink:href="#ArialMT-65" x="450.195312"/>
     <use xlink:href="#ArialMT-20" x="505.810547"/>
     <use xlink:href="#ArialMT-43" x="533.59375"/>
     <use xlink:href="#ArialMT-6f" x="605.810547"/>
     <use xlink:href="#ArialMT-6d" x="661.425781"/>
     <use xlink:href="#ArialMT-70" x="744.726562"/>
     <use xlink:href="#ArialMT-61" x="800.341797"/>
     <use xlink:href="#ArialMT-72" x="855.957031"/>
     <use xlink:href="#ArialMT-69" x="889.257812"/>
     <use xlink:href="#ArialMT-73" x="911.474609"/>
     <use xlink:href="#ArialMT-6f" x="961.474609"/>
     <use xlink:href="#ArialMT-6e" x="1017.089844"/>
     <use xlink:href="#ArialMT-3a" x="1072.705078"/>
     <use xlink:href="#ArialMT-20" x="1100.488281"/>
     <use xlink:href="#ArialMT-4f" x="1128.271484"/>
     <use xlink:href="#ArialMT-72" x="1206.054688"/>
     <use xlink:href="#ArialMT-69" x="1239.355469"/>
     <use xlink:href="#ArialMT-67" x="1261.572266"/>
     <use xlink:href="#ArialMT-69" x="1317.1875"/>
     <use xlink:href="#ArialMT-6e" x="1339.404297"/>
     <use xlink:href="#ArialMT-61" x="1395.019531"/>
     <use xlink:href="#ArialMT-6c" x="1450.634766"/>
     <use xlink:href="#ArialMT-20" x="1472.851562"/>
     <use xlink:href="#ArialMT-76" x="1500.634766"/>
     <use xlink:href="#ArialMT-73" x="1550.634766"/>
     <use xlink:href="#ArialMT-20" x="1600.634766"/>
     <use xlink:href="#ArialMT-53" x="1628.417969"/>
     <use xlink:href="#ArialMT-68" x="1695.117188"/>
     <use xlink:href="#ArialMT-75" x="1750.732422"/>
     <use xlink:href="#ArialMT-66" x="1806.347656"/>
     <use xlink:href="#ArialMT-66" x="1832.380859"/>
     <use xlink:href="#ArialMT-6c" x="1860.164062"/>
     <use xlink:href="#ArialMT-65" x="1882.380859"/>
     <use xlink:href="#ArialMT-64" x="1937.996094"/>
    </g>
   </g>
   <g id="legend_1">
    <g id="patch_5">
     <path d="M 615.46 260.055469 
L 705.061875 260.055469 
Q 707.261875 260.055469 707.261875 257.855469 
L 707.261875 148.924531 
Q 707.261875 146.724531 705.061875 146.724531 
L 615.46 146.724531 
Q 613.26 146.724531 613.26 148.924531 
L 613.26 257.855469 
Q 613.26 260.055469 615.46 260.055469 
z
" style="fill: #ffffff; opacity: 0.8; stroke: #cccccc; stroke-linejoin: miter"/>
    </g>
    <g id="line2d_26">
     <path d="M 617.66 155.289062 
L 628.66 155.289062 
L 639.66 155.289062 
" style="fill: none; stroke: #6060eb; stroke-width: 2; stroke-linecap: round"/>
    </g>
    <g id="text_21">
     <!-- Original -->
     <g style="fill: #262626" transform="translate(648.46 159.139062) scale(0.11 -0.11)">
      <use xlink:href="#ArialMT-4f"/>
      <use xlink:href="#ArialMT-72" x="77.783203"/>
      <use xlink:href="#ArialMT-69" x="111.083984"/>
      <use xlink:href="#ArialMT-67" x="133.300781"/>
      <use xlink:href="#ArialMT-69" x="188.916016"/>
      <use xlink:href="#ArialMT-6e" x="211.132812"/>
      <use xlink:href="#ArialMT-61" x="266.748047"/>
      <use xlink:href="#ArialMT-6c" x="322.363281"/>
     </g>
    </g>
    <g id="line2d_27">
     <path d="M 617.66 171.11875 
L 628.66 171.11875 
L 639.66 171.11875 
" style="fill: none; stroke-dasharray: 7.4,3.2; stroke-dashoffset: 0; stroke: #6060eb; stroke-width: 2"/>
    </g>
    <g id="text_22">
     <!-- Original -->
     <g style="fill: #262626" transform="translate(648.46 174.96875) scale(0.11 -0.11)">
      <use xlink:href="#ArialMT-4f"/>
      <use xlink:href="#ArialMT-72" x="77.783203"/>
      <use xlink:href="#ArialMT-69" x="111.083984"/>
      <use xlink:href="#ArialMT-67" x="133.300781"/>
      <use xlink:href="#ArialMT-69" x="188.916016"/>
      <use xlink:href="#ArialMT-6e" x="211.132812"/>
      <use xlink:href="#ArialMT-61" x="266.748047"/>
      <use xlink:href="#ArialMT-6c" x="322.363281"/>
     </g>
    </g>
    <g id="PathCollection_3">
     <g>
      <use xlink:href="#m1410260bf7" x="628.66" y="187.802656" style="fill: #6060eb; stroke: #6060eb"/>
     </g>
    </g>
    <g id="text_23">
     <!-- p &lt; 0.001 -->
     <g style="fill: #262626" transform="translate(648.46 190.690156) scale(0.11 -0.11)">
      <defs>
       <path id="ArialMT-3c" d="M 350 2003 
L 350 2528 
L 3384 3809 
L 3384 3250 
L 978 2263 
L 3384 1266 
L 3384 706 
L 350 2003 
z
" transform="scale(0.015625)"/>
      </defs>
      <use xlink:href="#ArialMT-70"/>
      <use xlink:href="#ArialMT-20" x="55.615234"/>
      <use xlink:href="#ArialMT-3c" x="83.398438"/>
      <use xlink:href="#ArialMT-20" x="141.796875"/>
      <use xlink:href="#ArialMT-30" x="169.580078"/>
      <use xlink:href="#ArialMT-2e" x="225.195312"/>
      <use xlink:href="#ArialMT-30" x="252.978516"/>
      <use xlink:href="#ArialMT-30" x="308.59375"/>
      <use xlink:href="#ArialMT-31" x="364.208984"/>
     </g>
    </g>
    <g id="line2d_28">
     <path d="M 617.66 202.4 
L 628.66 202.4 
L 639.66 202.4 
" style="fill: none; stroke-dasharray: 5.55,2.4; stroke-dashoffset: 0; stroke: #1a1a1a; stroke-width: 1.5"/>
    </g>
    <g id="text_24">
     <!-- Stim Onset -->
     <g style="fill: #262626" transform="translate(648.46 206.25) scale(0.11 -0.11)">
      <defs>
       <path id="ArialMT-74" d="M 1650 503 
L 1731 6 
Q 1494 -44 1306 -44 
Q 1000 -44 831 53 
Q 663 150 594 308 
Q 525 466 525 972 
L 525 2881 
L 113 2881 
L 113 3319 
L 525 3319 
L 525 4141 
L 1084 4478 
L 1084 3319 
L 1650 3319 
L 1650 2881 
L 1084 2881 
L 1084 941 
Q 1084 700 1114 631 
Q 1144 563 1211 522 
Q 1278 481 1403 481 
Q 1497 481 1650 503 
z
" transform="scale(0.015625)"/>
      </defs>
      <use xlink:href="#ArialMT-53"/>
      <use xlink:href="#ArialMT-74" x="66.699219"/>
      <use xlink:href="#ArialMT-69" x="94.482422"/>
      <use xlink:href="#ArialMT-6d" x="116.699219"/>
      <use xlink:href="#ArialMT-20" x="200"/>
      <use xlink:href="#ArialMT-4f" x="227.783203"/>
      <use xlink:href="#ArialMT-6e" x="305.566406"/>
      <use xlink:href="#ArialMT-73" x="361.181641"/>
      <use xlink:href="#ArialMT-65" x="411.181641"/>
      <use xlink:href="#ArialMT-74" x="466.796875"/>
     </g>
    </g>
    <g id="line2d_29">
     <path d="M 617.66 217.959844 
L 628.66 217.959844 
L 639.66 217.959844 
" style="fill: none; stroke-dasharray: 5.55,2.4; stroke-dashoffset: 0; stroke: #1a1a1a; stroke-width: 1.5"/>
    </g>
    <g id="text_25">
     <!-- Stim End -->
     <g style="fill: #262626" transform="translate(648.46 221.809844) scale(0.11 -0.11)">
      <defs>
       <path id="ArialMT-45" d="M 506 0 
L 506 4581 
L 3819 4581 
L 3819 4041 
L 1113 4041 
L 1113 2638 
L 3647 2638 
L 3647 2100 
L 1113 2100 
L 1113 541 
L 3925 541 
L 3925 0 
L 506 0 
z
" transform="scale(0.015625)"/>
      </defs>
      <use xlink:href="#ArialMT-53"/>
      <use xlink:href="#ArialMT-74" x="66.699219"/>
      <use xlink:href="#ArialMT-69" x="94.482422"/>
      <use xlink:href="#ArialMT-6d" x="116.699219"/>
      <use xlink:href="#ArialMT-20" x="200"/>
      <use xlink:href="#ArialMT-45" x="227.783203"/>
      <use xlink:href="#ArialMT-6e" x="294.482422"/>
      <use xlink:href="#ArialMT-64" x="350.097656"/>
     </g>
    </g>
    <g id="line2d_30">
     <path d="M 617.66 233.660625 
L 628.66 233.660625 
L 639.66 233.660625 
" style="fill: none; stroke: #00008b; stroke-width: 2; stroke-linecap: round"/>
    </g>
    <g id="text_26">
     <!-- Original -->
     <g style="fill: #262626" transform="translate(648.46 237.510625) scale(0.11 -0.11)">
      <use xlink:href="#ArialMT-4f"/>
      <use xlink:href="#ArialMT-72" x="77.783203"/>
      <use xlink:href="#ArialMT-69" x="111.083984"/>
      <use xlink:href="#ArialMT-67" x="133.300781"/>
      <use xlink:href="#ArialMT-69" x="188.916016"/>
      <use xlink:href="#ArialMT-6e" x="211.132812"/>
      <use xlink:href="#ArialMT-61" x="266.748047"/>
      <use xlink:href="#ArialMT-6c" x="322.363281"/>
     </g>
    </g>
    <g id="line2d_31">
     <path d="M 617.66 249.490312 
L 628.66 249.490312 
L 639.66 249.490312 
" style="fill: none; stroke-dasharray: 7.4,3.2; stroke-dashoffset: 0; stroke: #00008b; stroke-width: 2"/>
    </g>
    <g id="text_27">
     <!-- Original -->
     <g style="fill: #262626" transform="translate(648.46 253.340312) scale(0.11 -0.11)">
      <use xlink:href="#ArialMT-4f"/>
      <use xlink:href="#ArialMT-72" x="77.783203"/>
      <use xlink:href="#ArialMT-69" x="111.083984"/>
      <use xlink:href="#ArialMT-67" x="133.300781"/>
      <use xlink:href="#ArialMT-69" x="188.916016"/>
      <use xlink:href="#ArialMT-6e" x="211.132812"/>
      <use xlink:href="#ArialMT-61" x="266.748047"/>
      <use xlink:href="#ArialMT-6c" x="322.363281"/>
     </g>
    </g>
   </g>
  </g>
 </g>
 <defs>
  <clipPath id="p8e8aed8292">
   <rect x="85.67" y="27.6" width="522.09" height="351.58"/>
  </clipPath>
 </defs>
</svg>
