<?xml version="1.0" encoding="utf-8" standalone="no"?>
<!DOCTYPE svg PUBLIC "-//W3C//DTD SVG 1.1//EN"
  "http://www.w3.org/Graphics/SVG/1.1/DTD/svg11.dtd">
<svg xmlns:xlink="http://www.w3.org/1999/xlink" width="720pt" height="432pt" viewBox="0 0 720 432" xmlns="http://www.w3.org/2000/svg" version="1.1">
 <metadata>
  <rdf:RDF xmlns:dc="http://purl.org/dc/elements/1.1/" xmlns:cc="http://creativecommons.org/ns#" xmlns:rdf="http://www.w3.org/1999/02/22-rdf-syntax-ns#">
   <cc:Work>
    <dc:type rdf:resource="http://purl.org/dc/dcmitype/StillImage"/>
    <dc:date>2025-09-23T20:52:04.205498</dc:date>
    <dc:format>image/svg+xml</dc:format>
    <dc:creator>
     <cc:Agent>
      <dc:title>Matplotlib v3.9.4, https://matplotlib.org/</dc:title>
     </cc:Agent>
    </dc:creator>
   </cc:Work>
  </rdf:RDF>
 </metadata>
 <defs>
  <style type="text/css">*{stroke-linejoin: round; stroke-linecap: butt}</style>
 </defs>
 <g id="figure_1">
  <g id="patch_1">
   <path d="M 0 432 
L 720 432 
L 720 0 
L 0 0 
z
" style="fill: #ffffff"/>
  </g>
  <g id="axes_1">
   <g id="patch_2">
    <path d="M 61.2 378.18 
L 607.76 378.18 
L 607.76 27.6 
L 61.2 27.6 
L 61.2 378.18 
z
" style="fill: none"/>
   </g>
   <g id="matplotlib.axis_1">
    <g id="xtick_1">
     <g id="text_1">
      <!-- −500 -->
      <g style="fill: #262626" transform="translate(78.799072 398.416719) scale(0.15 -0.15)">
       <defs>
        <path id="ArialMT-2212" d="M 3381 1997 
L 356 1997 
L 356 2522 
L 3381 2522 
L 3381 1997 
z
" transform="scale(0.015625)"/>
        <path id="ArialMT-35" d="M 266 1200 
L 856 1250 
Q 922 819 1161 601 
Q 1400 384 1738 384 
Q 2144 384 2425 690 
Q 2706 997 2706 1503 
Q 2706 1984 2436 2262 
Q 2166 2541 1728 2541 
Q 1456 2541 1237 2417 
Q 1019 2294 894 2097 
L 366 2166 
L 809 4519 
L 3088 4519 
L 3088 3981 
L 1259 3981 
L 1013 2750 
Q 1425 3038 1878 3038 
Q 2478 3038 2890 2622 
Q 3303 2206 3303 1553 
Q 3303 931 2941 478 
Q 2500 -78 1738 -78 
Q 1113 -78 717 272 
Q 322 622 266 1200 
z
" transform="scale(0.015625)"/>
        <path id="ArialMT-30" d="M 266 2259 
Q 266 3072 433 3567 
Q 600 4063 929 4331 
Q 1259 4600 1759 4600 
Q 2128 4600 2406 4451 
Q 2684 4303 2865 4023 
Q 3047 3744 3150 3342 
Q 3253 2941 3253 2259 
Q 3253 1453 3087 958 
Q 2922 463 2592 192 
Q 2263 -78 1759 -78 
Q 1097 -78 719 397 
Q 266 969 266 2259 
z
M 844 2259 
Q 844 1131 1108 757 
Q 1372 384 1759 384 
Q 2147 384 2411 759 
Q 2675 1134 2675 2259 
Q 2675 3391 2411 3762 
Q 2147 4134 1753 4134 
Q 1366 4134 1134 3806 
Q 844 3388 844 2259 
z
" transform="scale(0.015625)"/>
       </defs>
       <use xlink:href="#ArialMT-2212"/>
       <use xlink:href="#ArialMT-35" x="58.398438"/>
       <use xlink:href="#ArialMT-30" x="114.013672"/>
       <use xlink:href="#ArialMT-30" x="169.628906"/>
      </g>
     </g>
    </g>
    <g id="xtick_2">
     <g id="text_2">
      <!-- 0 -->
      <g style="fill: #262626" transform="translate(212.121124 398.416719) scale(0.15 -0.15)">
       <use xlink:href="#ArialMT-30"/>
      </g>
     </g>
    </g>
    <g id="xtick_3">
     <g id="text_3">
      <!-- 500 -->
      <g style="fill: #262626" transform="translate(324.379894 398.416719) scale(0.15 -0.15)">
       <use xlink:href="#ArialMT-35"/>
       <use xlink:href="#ArialMT-30" x="55.615234"/>
       <use xlink:href="#ArialMT-30" x="111.230469"/>
      </g>
     </g>
    </g>
    <g id="xtick_4">
     <g id="text_4">
      <!-- 1000 -->
      <g style="fill: #262626" transform="translate(440.809368 398.416719) scale(0.15 -0.15)">
       <defs>
        <path id="ArialMT-31" d="M 2384 0 
L 1822 0 
L 1822 3584 
Q 1619 3391 1289 3197 
Q 959 3003 697 2906 
L 697 3450 
Q 1169 3672 1522 3987 
Q 1875 4303 2022 4600 
L 2384 4600 
L 2384 0 
z
" transform="scale(0.015625)"/>
       </defs>
       <use xlink:href="#ArialMT-31"/>
       <use xlink:href="#ArialMT-30" x="55.615234"/>
       <use xlink:href="#ArialMT-30" x="111.230469"/>
       <use xlink:href="#ArialMT-30" x="166.845703"/>
      </g>
     </g>
    </g>
    <g id="xtick_5">
     <g id="text_5">
      <!-- 1500 -->
      <g style="fill: #262626" transform="translate(561.409544 398.416719) scale(0.15 -0.15)">
       <use xlink:href="#ArialMT-31"/>
       <use xlink:href="#ArialMT-35" x="55.615234"/>
       <use xlink:href="#ArialMT-30" x="111.230469"/>
       <use xlink:href="#ArialMT-30" x="166.845703"/>
      </g>
     </g>
    </g>
    <g id="text_6">
     <!-- Time (s) -->
     <g style="fill: #262626" transform="translate(307.267891 416.3175) scale(0.15 -0.15)">
      <defs>
       <path id="ArialMT-54" d="M 1659 0 
L 1659 4041 
L 150 4041 
L 150 4581 
L 3781 4581 
L 3781 4041 
L 2266 4041 
L 2266 0 
L 1659 0 
z
" transform="scale(0.015625)"/>
       <path id="ArialMT-69" d="M 425 3934 
L 425 4581 
L 988 4581 
L 988 3934 
L 425 3934 
z
M 425 0 
L 425 3319 
L 988 3319 
L 988 0 
L 425 0 
z
" transform="scale(0.015625)"/>
       <path id="ArialMT-6d" d="M 422 0 
L 422 3319 
L 925 3319 
L 925 2853 
Q 1081 3097 1340 3245 
Q 1600 3394 1931 3394 
Q 2300 3394 2536 3241 
Q 2772 3088 2869 2813 
Q 3263 3394 3894 3394 
Q 4388 3394 4653 3120 
Q 4919 2847 4919 2278 
L 4919 0 
L 4359 0 
L 4359 2091 
Q 4359 2428 4304 2576 
Q 4250 2725 4106 2815 
Q 3963 2906 3769 2906 
Q 3419 2906 3187 2673 
Q 2956 2441 2956 1928 
L 2956 0 
L 2394 0 
L 2394 2156 
Q 2394 2531 2256 2718 
Q 2119 2906 1806 2906 
Q 1569 2906 1367 2781 
Q 1166 2656 1075 2415 
Q 984 2175 984 1722 
L 984 0 
L 422 0 
z
" transform="scale(0.015625)"/>
       <path id="ArialMT-65" d="M 2694 1069 
L 3275 997 
Q 3138 488 2766 206 
Q 2394 -75 1816 -75 
Q 1088 -75 661 373 
Q 234 822 234 1631 
Q 234 2469 665 2931 
Q 1097 3394 1784 3394 
Q 2450 3394 2872 2941 
Q 3294 2488 3294 1666 
Q 3294 1616 3291 1516 
L 816 1516 
Q 847 969 1125 678 
Q 1403 388 1819 388 
Q 2128 388 2347 550 
Q 2566 713 2694 1069 
z
M 847 1978 
L 2700 1978 
Q 2663 2397 2488 2606 
Q 2219 2931 1791 2931 
Q 1403 2931 1139 2672 
Q 875 2413 847 1978 
z
" transform="scale(0.015625)"/>
       <path id="ArialMT-20" transform="scale(0.015625)"/>
       <path id="ArialMT-28" d="M 1497 -1347 
Q 1031 -759 709 28 
Q 388 816 388 1659 
Q 388 2403 628 3084 
Q 909 3875 1497 4659 
L 1900 4659 
Q 1522 4009 1400 3731 
Q 1209 3300 1100 2831 
Q 966 2247 966 1656 
Q 966 153 1900 -1347 
L 1497 -1347 
z
" transform="scale(0.015625)"/>
       <path id="ArialMT-73" d="M 197 991 
L 753 1078 
Q 800 744 1014 566 
Q 1228 388 1613 388 
Q 2000 388 2187 545 
Q 2375 703 2375 916 
Q 2375 1106 2209 1216 
Q 2094 1291 1634 1406 
Q 1016 1563 777 1677 
Q 538 1791 414 1992 
Q 291 2194 291 2438 
Q 291 2659 392 2848 
Q 494 3038 669 3163 
Q 800 3259 1026 3326 
Q 1253 3394 1513 3394 
Q 1903 3394 2198 3281 
Q 2494 3169 2634 2976 
Q 2775 2784 2828 2463 
L 2278 2388 
Q 2241 2644 2061 2787 
Q 1881 2931 1553 2931 
Q 1166 2931 1000 2803 
Q 834 2675 834 2503 
Q 834 2394 903 2306 
Q 972 2216 1119 2156 
Q 1203 2125 1616 2013 
Q 2213 1853 2448 1751 
Q 2684 1650 2818 1456 
Q 2953 1263 2953 975 
Q 2953 694 2789 445 
Q 2625 197 2315 61 
Q 2006 -75 1616 -75 
Q 969 -75 630 194 
Q 291 463 197 991 
z
" transform="scale(0.015625)"/>
       <path id="ArialMT-29" d="M 791 -1347 
L 388 -1347 
Q 1322 153 1322 1656 
Q 1322 2244 1188 2822 
Q 1081 3291 891 3722 
Q 769 4003 388 4659 
L 791 4659 
Q 1378 3875 1659 3084 
Q 1900 2403 1900 1659 
Q 1900 816 1576 28 
Q 1253 -759 791 -1347 
z
" transform="scale(0.015625)"/>
      </defs>
      <use xlink:href="#ArialMT-54"/>
      <use xlink:href="#ArialMT-69" x="57.333984"/>
      <use xlink:href="#ArialMT-6d" x="79.550781"/>
      <use xlink:href="#ArialMT-65" x="162.851562"/>
      <use xlink:href="#ArialMT-20" x="218.466797"/>
      <use xlink:href="#ArialMT-28" x="246.25"/>
      <use xlink:href="#ArialMT-73" x="279.550781"/>
      <use xlink:href="#ArialMT-29" x="329.550781"/>
     </g>
    </g>
   </g>
   <g id="matplotlib.axis_2">
    <g id="ytick_1">
     <g id="text_7">
      <!-- 0.0 -->
      <g style="fill: #262626" transform="translate(30.85 348.115352) scale(0.15 -0.15)">
       <defs>
        <path id="ArialMT-2e" d="M 581 0 
L 581 641 
L 1222 641 
L 1222 0 
L 581 0 
z
" transform="scale(0.015625)"/>
       </defs>
       <use xlink:href="#ArialMT-30"/>
       <use xlink:href="#ArialMT-2e" x="55.615234"/>
       <use xlink:href="#ArialMT-30" x="83.398438"/>
      </g>
     </g>
    </g>
    <g id="ytick_2">
     <g id="text_8">
      <!-- 0.1 -->
      <g style="fill: #262626" transform="translate(30.85 280.876817) scale(0.15 -0.15)">
       <use xlink:href="#ArialMT-30"/>
       <use xlink:href="#ArialMT-2e" x="55.615234"/>
       <use xlink:href="#ArialMT-31" x="83.398438"/>
      </g>
     </g>
    </g>
    <g id="ytick_3">
     <g id="text_9">
      <!-- 0.2 -->
      <g style="fill: #262626" transform="translate(30.85 213.638281) scale(0.15 -0.15)">
       <defs>
        <path id="ArialMT-32" d="M 3222 541 
L 3222 0 
L 194 0 
Q 188 203 259 391 
Q 375 700 629 1000 
Q 884 1300 1366 1694 
Q 2113 2306 2375 2664 
Q 2638 3022 2638 3341 
Q 2638 3675 2398 3904 
Q 2159 4134 1775 4134 
Q 1369 4134 1125 3890 
Q 881 3647 878 3216 
L 300 3275 
Q 359 3922 746 4261 
Q 1134 4600 1788 4600 
Q 2447 4600 2831 4234 
Q 3216 3869 3216 3328 
Q 3216 3053 3103 2787 
Q 2991 2522 2730 2228 
Q 2469 1934 1863 1422 
Q 1356 997 1212 845 
Q 1069 694 975 541 
L 3222 541 
z
" transform="scale(0.015625)"/>
       </defs>
       <use xlink:href="#ArialMT-30"/>
       <use xlink:href="#ArialMT-2e" x="55.615234"/>
       <use xlink:href="#ArialMT-32" x="83.398438"/>
      </g>
     </g>
    </g>
    <g id="ytick_4">
     <g id="text_10">
      <!-- 0.3 -->
      <g style="fill: #262626" transform="translate(30.85 146.399746) scale(0.15 -0.15)">
       <defs>
        <path id="ArialMT-33" d="M 269 1209 
L 831 1284 
Q 928 806 1161 595 
Q 1394 384 1728 384 
Q 2125 384 2398 659 
Q 2672 934 2672 1341 
Q 2672 1728 2419 1979 
Q 2166 2231 1775 2231 
Q 1616 2231 1378 2169 
L 1441 2663 
Q 1497 2656 1531 2656 
Q 1891 2656 2178 2843 
Q 2466 3031 2466 3422 
Q 2466 3731 2256 3934 
Q 2047 4138 1716 4138 
Q 1388 4138 1169 3931 
Q 950 3725 888 3313 
L 325 3413 
Q 428 3978 793 4289 
Q 1159 4600 1703 4600 
Q 2078 4600 2393 4439 
Q 2709 4278 2876 4000 
Q 3044 3722 3044 3409 
Q 3044 3113 2884 2869 
Q 2725 2625 2413 2481 
Q 2819 2388 3044 2092 
Q 3269 1797 3269 1353 
Q 3269 753 2831 336 
Q 2394 -81 1725 -81 
Q 1122 -81 723 278 
Q 325 638 269 1209 
z
" transform="scale(0.015625)"/>
       </defs>
       <use xlink:href="#ArialMT-30"/>
       <use xlink:href="#ArialMT-2e" x="55.615234"/>
       <use xlink:href="#ArialMT-33" x="83.398438"/>
      </g>
     </g>
    </g>
    <g id="ytick_5">
     <g id="text_11">
      <!-- 0.4 -->
      <g style="fill: #262626" transform="translate(30.85 79.16121) scale(0.15 -0.15)">
       <defs>
        <path id="ArialMT-34" d="M 2069 0 
L 2069 1097 
L 81 1097 
L 81 1613 
L 2172 4581 
L 2631 4581 
L 2631 1613 
L 3250 1613 
L 3250 1097 
L 2631 1097 
L 2631 0 
L 2069 0 
z
M 2069 1613 
L 2069 3678 
L 634 1613 
L 2069 1613 
z
" transform="scale(0.015625)"/>
       </defs>
       <use xlink:href="#ArialMT-30"/>
       <use xlink:href="#ArialMT-2e" x="55.615234"/>
       <use xlink:href="#ArialMT-34" x="83.398438"/>
      </g>
     </g>
    </g>
    <g id="text_12">
     <!-- Divergence -->
     <g style="fill: #262626" transform="translate(23.692969 240.823594) rotate(-90) scale(0.15 -0.15)">
      <defs>
       <path id="ArialMT-44" d="M 494 0 
L 494 4581 
L 2072 4581 
Q 2606 4581 2888 4516 
Q 3281 4425 3559 4188 
Q 3922 3881 4101 3404 
Q 4281 2928 4281 2316 
Q 4281 1794 4159 1391 
Q 4038 988 3847 723 
Q 3656 459 3429 307 
Q 3203 156 2883 78 
Q 2563 0 2147 0 
L 494 0 
z
M 1100 541 
L 2078 541 
Q 2531 541 2789 625 
Q 3047 709 3200 863 
Q 3416 1078 3536 1442 
Q 3656 1806 3656 2325 
Q 3656 3044 3420 3430 
Q 3184 3816 2847 3947 
Q 2603 4041 2063 4041 
L 1100 4041 
L 1100 541 
z
" transform="scale(0.015625)"/>
       <path id="ArialMT-76" d="M 1344 0 
L 81 3319 
L 675 3319 
L 1388 1331 
Q 1503 1009 1600 663 
Q 1675 925 1809 1294 
L 2547 3319 
L 3125 3319 
L 1869 0 
L 1344 0 
z
" transform="scale(0.015625)"/>
       <path id="ArialMT-72" d="M 416 0 
L 416 3319 
L 922 3319 
L 922 2816 
Q 1116 3169 1280 3281 
Q 1444 3394 1641 3394 
Q 1925 3394 2219 3213 
L 2025 2691 
Q 1819 2813 1613 2813 
Q 1428 2813 1281 2702 
Q 1134 2591 1072 2394 
Q 978 2094 978 1738 
L 978 0 
L 416 0 
z
" transform="scale(0.015625)"/>
       <path id="ArialMT-67" d="M 319 -275 
L 866 -356 
Q 900 -609 1056 -725 
Q 1266 -881 1628 -881 
Q 2019 -881 2231 -725 
Q 2444 -569 2519 -288 
Q 2563 -116 2559 434 
Q 2191 0 1641 0 
Q 956 0 581 494 
Q 206 988 206 1678 
Q 206 2153 378 2554 
Q 550 2956 876 3175 
Q 1203 3394 1644 3394 
Q 2231 3394 2613 2919 
L 2613 3319 
L 3131 3319 
L 3131 450 
Q 3131 -325 2973 -648 
Q 2816 -972 2473 -1159 
Q 2131 -1347 1631 -1347 
Q 1038 -1347 672 -1080 
Q 306 -813 319 -275 
z
M 784 1719 
Q 784 1066 1043 766 
Q 1303 466 1694 466 
Q 2081 466 2343 764 
Q 2606 1063 2606 1700 
Q 2606 2309 2336 2618 
Q 2066 2928 1684 2928 
Q 1309 2928 1046 2623 
Q 784 2319 784 1719 
z
" transform="scale(0.015625)"/>
       <path id="ArialMT-6e" d="M 422 0 
L 422 3319 
L 928 3319 
L 928 2847 
Q 1294 3394 1984 3394 
Q 2284 3394 2536 3286 
Q 2788 3178 2913 3003 
Q 3038 2828 3088 2588 
Q 3119 2431 3119 2041 
L 3119 0 
L 2556 0 
L 2556 2019 
Q 2556 2363 2490 2533 
Q 2425 2703 2258 2804 
Q 2091 2906 1866 2906 
Q 1506 2906 1245 2678 
Q 984 2450 984 1813 
L 984 0 
L 422 0 
z
" transform="scale(0.015625)"/>
       <path id="ArialMT-63" d="M 2588 1216 
L 3141 1144 
Q 3050 572 2676 248 
Q 2303 -75 1759 -75 
Q 1078 -75 664 370 
Q 250 816 250 1647 
Q 250 2184 428 2587 
Q 606 2991 970 3192 
Q 1334 3394 1763 3394 
Q 2303 3394 2647 3120 
Q 2991 2847 3088 2344 
L 2541 2259 
Q 2463 2594 2264 2762 
Q 2066 2931 1784 2931 
Q 1359 2931 1093 2626 
Q 828 2322 828 1663 
Q 828 994 1084 691 
Q 1341 388 1753 388 
Q 2084 388 2306 591 
Q 2528 794 2588 1216 
z
" transform="scale(0.015625)"/>
      </defs>
      <use xlink:href="#ArialMT-44"/>
      <use xlink:href="#ArialMT-69" x="72.216797"/>
      <use xlink:href="#ArialMT-76" x="94.433594"/>
      <use xlink:href="#ArialMT-65" x="144.433594"/>
      <use xlink:href="#ArialMT-72" x="200.048828"/>
      <use xlink:href="#ArialMT-67" x="233.349609"/>
      <use xlink:href="#ArialMT-65" x="288.964844"/>
      <use xlink:href="#ArialMT-6e" x="344.580078"/>
      <use xlink:href="#ArialMT-63" x="400.195312"/>
      <use xlink:href="#ArialMT-65" x="450.195312"/>
     </g>
    </g>
   </g>
   <g id="PolyCollection_1">
    <defs>
     <path id="mfa2b834b07" d="M 86.043636 -94.808114 
L 86.043636 -78.594016 
L 90.867643 -88.254158 
L 95.69165 -88.895537 
L 100.515658 -89.412086 
L 105.339665 -87.685276 
L 110.163672 -89.359385 
L 114.987679 -87.775708 
L 119.811686 -84.973463 
L 124.635693 -87.924435 
L 129.4597 -88.607965 
L 134.283707 -89.056621 
L 139.107714 -87.676704 
L 143.931721 -89.793357 
L 148.755728 -88.40633 
L 153.579735 -86.423951 
L 158.403742 -87.885184 
L 163.227749 -88.917927 
L 168.051756 -86.113249 
L 172.875763 -86.239917 
L 177.699771 -87.322579 
L 182.523778 -87.272718 
L 187.347785 -87.251172 
L 192.171792 -87.8565 
L 196.995799 -89.487415 
L 201.819806 -87.815692 
L 206.643813 -90.216642 
L 211.46782 -85.576002 
L 216.291827 -94.367275 
L 221.115834 -91.228067 
L 225.939841 -87.741745 
L 230.763848 -89.008007 
L 235.587855 -88.746604 
L 240.411862 -88.06835 
L 245.235869 -92.431832 
L 250.059876 -90.385246 
L 254.883883 -93.141008 
L 259.707891 -103.910876 
L 264.531898 -104.821046 
L 269.355905 -105.139341 
L 274.179912 -101.884945 
L 279.003919 -102.120846 
L 283.827926 -97.618937 
L 288.651933 -92.463286 
L 293.47594 -90.141726 
L 298.299947 -96.230661 
L 303.123954 -93.979516 
L 307.947961 -98.741419 
L 312.771968 -101.41303 
L 317.595975 -93.651231 
L 322.419982 -89.619797 
L 327.243989 -88.684781 
L 332.067996 -91.132135 
L 336.892004 -90.393092 
L 341.716011 -86.845311 
L 346.540018 -84.987539 
L 351.364025 -81.025749 
L 356.188032 -83.154542 
L 361.012039 -90.865162 
L 365.836046 -86.791763 
L 370.660053 -84.71605 
L 375.48406 -87.768254 
L 380.308067 -83.511108 
L 385.132074 -80.638053 
L 389.956081 -81.525556 
L 394.780088 -88.034497 
L 399.604095 -90.406558 
L 404.428102 -95.645063 
L 409.252109 -96.820615 
L 414.076117 -101.486024 
L 418.900124 -101.286998 
L 423.724131 -106.287285 
L 428.548138 -107.330234 
L 433.372145 -111.052151 
L 438.196152 -105.307678 
L 443.020159 -100.274724 
L 447.844166 -100.146385 
L 452.668173 -105.968818 
L 457.49218 -98.24931 
L 462.316187 -109.806518 
L 467.140194 -102.576147 
L 471.964201 -70.779716 
L 476.788208 -72.865435 
L 481.612215 -90.077229 
L 486.436222 -85.93619 
L 491.260229 -87.051961 
L 496.084237 -88.050644 
L 500.908244 -90.207377 
L 505.732251 -88.960149 
L 510.556258 -87.780277 
L 515.380265 -88.078343 
L 520.204272 -89.619272 
L 525.028279 -89.003538 
L 529.852286 -83.717122 
L 534.676293 -82.800268 
L 539.5003 -88.139109 
L 544.324307 -87.091187 
L 549.148314 -86.807285 
L 553.972321 -89.809067 
L 558.796328 -86.634943 
L 563.620335 -87.515644 
L 568.444342 -88.019317 
L 573.26835 -91.13452 
L 578.092357 -90.799542 
L 582.916364 -90.552921 
L 582.916364 -93.384124 
L 582.916364 -93.384124 
L 578.092357 -94.035773 
L 573.26835 -93.604963 
L 568.444342 -90.306349 
L 563.620335 -90.130591 
L 558.796328 -89.859483 
L 553.972321 -92.541344 
L 549.148314 -89.594149 
L 544.324307 -89.727877 
L 539.5003 -91.132035 
L 534.676293 -85.677776 
L 529.852286 -86.432999 
L 525.028279 -91.670511 
L 520.204272 -92.630671 
L 515.380265 -90.830466 
L 510.556258 -90.488595 
L 505.732251 -91.846374 
L 500.908244 -93.05727 
L 496.084237 -91.279016 
L 491.260229 -89.99616 
L 486.436222 -89.760973 
L 481.612215 -94.862596 
L 476.788208 -81.821357 
L 471.964201 -77.502709 
L 467.140194 -110.726841 
L 462.316187 -116.982808 
L 457.49218 -102.355911 
L 452.668173 -112.495263 
L 447.844166 -107.074714 
L 443.020159 -108.146585 
L 438.196152 -113.605075 
L 433.372145 -119.41639 
L 428.548138 -115.207864 
L 423.724131 -113.345879 
L 418.900124 -108.08638 
L 414.076117 -107.844805 
L 409.252109 -103.712519 
L 404.428102 -102.280404 
L 399.604095 -96.874989 
L 394.780088 -93.811251 
L 389.956081 -87.481316 
L 385.132074 -87.133076 
L 380.308067 -91.556152 
L 375.48406 -95.850281 
L 370.660053 -91.408444 
L 365.836046 -93.738717 
L 361.012039 -97.970448 
L 356.188032 -89.556718 
L 351.364025 -87.689828 
L 346.540018 -91.615641 
L 341.716011 -93.359717 
L 336.892004 -96.802299 
L 332.067996 -98.027658 
L 327.243989 -95.352623 
L 322.419982 -96.546778 
L 317.595975 -100.121952 
L 312.771968 -107.996638 
L 307.947961 -105.518314 
L 303.123954 -100.15567 
L 298.299947 -102.685836 
L 293.47594 -96.718819 
L 288.651933 -99.418573 
L 283.827926 -105.110745 
L 279.003919 -109.868018 
L 274.179912 -110.155957 
L 269.355905 -113.495323 
L 264.531898 -112.666547 
L 259.707891 -110.541161 
L 254.883883 -99.184748 
L 250.059876 -96.663627 
L 245.235869 -98.498433 
L 240.411862 -93.201214 
L 235.587855 -94.870027 
L 230.763848 -94.534119 
L 225.939841 -93.035687 
L 221.115834 -96.818044 
L 216.291827 -100.347087 
L 211.46782 -88.317419 
L 206.643813 -93.540344 
L 201.819806 -90.036616 
L 196.995799 -91.583438 
L 192.171792 -90.341562 
L 187.347785 -89.140087 
L 182.523778 -90.064842 
L 177.699771 -90.948719 
L 172.875763 -88.459242 
L 168.051756 -88.972811 
L 163.227749 -91.369219 
L 158.403742 -90.084794 
L 153.579735 -88.63812 
L 148.755728 -90.95475 
L 143.931721 -91.529038 
L 139.107714 -90.053914 
L 134.283707 -91.058005 
L 129.4597 -90.543695 
L 124.635693 -90.015222 
L 119.811686 -87.391675 
L 114.987679 -89.796684 
L 110.163672 -91.348224 
L 105.339665 -89.462793 
L 100.515658 -91.502413 
L 95.69165 -91.688831 
L 90.867643 -91.704815 
L 86.043636 -94.808114 
z
" style="stroke: #6060eb; stroke-opacity: 0.1"/>
    </defs>
    <g clip-path="url(#p9a9b0f13f7)">
     <use xlink:href="#mfa2b834b07" x="0" y="432" style="fill: #6060eb; fill-opacity: 0.1; stroke: #6060eb; stroke-opacity: 0.1"/>
    </g>
   </g>
   <g id="PolyCollection_2">
    <defs>
     <path id="mc55f101c5d" d="M 86.043636 -91.138695 
L 86.043636 -87.525168 
L 90.867643 -88.263467 
L 95.69165 -89.257101 
L 100.515658 -89.120182 
L 105.339665 -89.050109 
L 110.163672 -89.015665 
L 114.987679 -88.828369 
L 119.811686 -88.740237 
L 124.635693 -88.495197 
L 129.4597 -89.285029 
L 134.283707 -88.973487 
L 139.107714 -88.787445 
L 143.931721 -88.842697 
L 148.755728 -89.105572 
L 153.579735 -88.810233 
L 158.403742 -88.94112 
L 163.227749 -89.125911 
L 168.051756 -89.005528 
L 172.875763 -89.007725 
L 177.699771 -87.357449 
L 182.523778 -89.108644 
L 187.347785 -89.267984 
L 192.171792 -89.003462 
L 196.995799 -88.793856 
L 201.819806 -88.896804 
L 206.643813 -87.941897 
L 211.46782 -88.849616 
L 216.291827 -92.134187 
L 221.115834 -93.615225 
L 225.939841 -94.533754 
L 230.763848 -94.662205 
L 235.587855 -94.867097 
L 240.411862 -94.072123 
L 245.235869 -95.12716 
L 250.059876 -95.125752 
L 254.883883 -96.068002 
L 259.707891 -95.178557 
L 264.531898 -94.454691 
L 269.355905 -95.278186 
L 274.179912 -98.176484 
L 279.003919 -98.969876 
L 283.827926 -98.345242 
L 288.651933 -98.007384 
L 293.47594 -98.398989 
L 298.299947 -97.155864 
L 303.123954 -94.886792 
L 307.947961 -94.754287 
L 312.771968 -95.271189 
L 317.595975 -94.357975 
L 322.419982 -93.43438 
L 327.243989 -92.380988 
L 332.067996 -92.009014 
L 336.892004 -93.712066 
L 341.716011 -93.415099 
L 346.540018 -93.83465 
L 351.364025 -93.962064 
L 356.188032 -92.627092 
L 361.012039 -92.560352 
L 365.836046 -94.169337 
L 370.660053 -93.390808 
L 375.48406 -93.108682 
L 380.308067 -90.800956 
L 385.132074 -93.024975 
L 389.956081 -94.915793 
L 394.780088 -94.918399 
L 399.604095 -96.146839 
L 404.428102 -96.625653 
L 409.252109 -97.018777 
L 414.076117 -96.589745 
L 418.900124 -99.002053 
L 423.724131 -97.60008 
L 428.548138 -94.730872 
L 433.372145 -94.952509 
L 438.196152 -94.312847 
L 443.020159 -95.172469 
L 447.844166 -96.427951 
L 452.668173 -96.007414 
L 457.49218 -90.871287 
L 462.316187 -87.6037 
L 467.140194 -89.940213 
L 471.964201 -91.238059 
L 476.788208 -89.630376 
L 481.612215 -88.458617 
L 486.436222 -88.335352 
L 491.260229 -89.479177 
L 496.084237 -89.762281 
L 500.908244 -88.303503 
L 505.732251 -88.154679 
L 510.556258 -89.025366 
L 515.380265 -89.402279 
L 520.204272 -89.244538 
L 525.028279 -89.312949 
L 529.852286 -88.919449 
L 534.676293 -88.490344 
L 539.5003 -89.246904 
L 544.324307 -89.123449 
L 549.148314 -89.52286 
L 553.972321 -88.693732 
L 558.796328 -88.422886 
L 563.620335 -89.086364 
L 568.444342 -89.618201 
L 573.26835 -88.717392 
L 578.092357 -88.499765 
L 582.916364 -88.706885 
L 582.916364 -89.207964 
L 582.916364 -89.207964 
L 578.092357 -89.129159 
L 573.26835 -89.497029 
L 568.444342 -90.196552 
L 563.620335 -89.622463 
L 558.796328 -88.968936 
L 553.972321 -89.304833 
L 549.148314 -90.101473 
L 544.324307 -89.745151 
L 539.5003 -89.89724 
L 534.676293 -89.119127 
L 529.852286 -89.457076 
L 525.028279 -89.801131 
L 520.204272 -89.900706 
L 515.380265 -90.034822 
L 510.556258 -89.483345 
L 505.732251 -88.755257 
L 500.908244 -88.964021 
L 496.084237 -90.415816 
L 491.260229 -90.155915 
L 486.436222 -89.168385 
L 481.612215 -89.496055 
L 476.788208 -90.697912 
L 471.964201 -92.310129 
L 467.140194 -91.32003 
L 462.316187 -89.485498 
L 457.49218 -91.842008 
L 452.668173 -97.835765 
L 447.844166 -98.326343 
L 443.020159 -97.109778 
L 438.196152 -96.022004 
L 433.372145 -96.71951 
L 428.548138 -96.486268 
L 423.724131 -99.387754 
L 418.900124 -100.78868 
L 414.076117 -98.485079 
L 409.252109 -98.805345 
L 404.428102 -98.410458 
L 399.604095 -98.094761 
L 394.780088 -96.847729 
L 389.956081 -96.649677 
L 385.132074 -94.612372 
L 380.308067 -92.546371 
L 375.48406 -94.750908 
L 370.660053 -95.035186 
L 365.836046 -95.859801 
L 361.012039 -94.307573 
L 356.188032 -94.211458 
L 351.364025 -95.640666 
L 346.540018 -95.432754 
L 341.716011 -94.911357 
L 336.892004 -95.318608 
L 332.067996 -93.67372 
L 327.243989 -94.037747 
L 322.419982 -95.145416 
L 317.595975 -96.010516 
L 312.771968 -96.900951 
L 307.947961 -96.509875 
L 303.123954 -96.475803 
L 298.299947 -98.924649 
L 293.47594 -100.26882 
L 288.651933 -99.888168 
L 283.827926 -100.219088 
L 279.003919 -100.917289 
L 274.179912 -99.97147 
L 269.355905 -96.912612 
L 264.531898 -96.089546 
L 259.707891 -96.712717 
L 254.883883 -97.635469 
L 250.059876 -96.913916 
L 245.235869 -96.895612 
L 240.411862 -95.929125 
L 235.587855 -97.019642 
L 230.763848 -96.984908 
L 225.939841 -96.485941 
L 221.115834 -95.890926 
L 216.291827 -94.5508 
L 211.46782 -89.330788 
L 206.643813 -88.975645 
L 201.819806 -89.46026 
L 196.995799 -89.172638 
L 192.171792 -89.420216 
L 187.347785 -89.858023 
L 182.523778 -89.566947 
L 177.699771 -89.399874 
L 172.875763 -89.578481 
L 168.051756 -89.649127 
L 163.227749 -89.641291 
L 158.403742 -89.368458 
L 153.579735 -89.677916 
L 148.755728 -89.708613 
L 143.931721 -89.2579 
L 139.107714 -89.388847 
L 134.283707 -89.523334 
L 129.4597 -89.815863 
L 124.635693 -89.108731 
L 119.811686 -89.202133 
L 114.987679 -89.280446 
L 110.163672 -89.528086 
L 105.339665 -89.521972 
L 100.515658 -89.568813 
L 95.69165 -90.076025 
L 90.867643 -89.001392 
L 86.043636 -91.138695 
z
" style="stroke: #6060eb; stroke-opacity: 0.1"/>
    </defs>
    <g clip-path="url(#p9a9b0f13f7)">
     <use xlink:href="#mc55f101c5d" x="0" y="432" style="fill: #6060eb; fill-opacity: 0.1; stroke: #6060eb; stroke-opacity: 0.1"/>
    </g>
   </g>
   <g id="PathCollection_1">
    <defs>
     <path id="m044747037f" d="M 0 -3 
L -0.673542 -0.927051 
L -2.85317 -0.927051 
L -1.089814 0.354102 
L -1.763356 2.427051 
L -0 1.145898 
L 1.763356 2.427051 
L 1.089814 0.354102 
L 2.85317 -0.927051 
L 0.673542 -0.927051 
z
" style="stroke: #6060eb"/>
    </defs>
    <g clip-path="url(#p9a9b0f13f7)">
     <use xlink:href="#m044747037f" x="259.707891" y="349.470846" style="fill: #6060eb; stroke: #6060eb"/>
     <use xlink:href="#m044747037f" x="264.531898" y="349.470846" style="fill: #6060eb; stroke: #6060eb"/>
     <use xlink:href="#m044747037f" x="428.548138" y="349.470846" style="fill: #6060eb; stroke: #6060eb"/>
     <use xlink:href="#m044747037f" x="433.372145" y="349.470846" style="fill: #6060eb; stroke: #6060eb"/>
     <use xlink:href="#m044747037f" x="438.196152" y="349.470846" style="fill: #6060eb; stroke: #6060eb"/>
     <use xlink:href="#m044747037f" x="452.668173" y="349.470846" style="fill: #6060eb; stroke: #6060eb"/>
     <use xlink:href="#m044747037f" x="457.49218" y="349.470846" style="fill: #6060eb; stroke: #6060eb"/>
     <use xlink:href="#m044747037f" x="462.316187" y="349.470846" style="fill: #6060eb; stroke: #6060eb"/>
     <use xlink:href="#m044747037f" x="467.140194" y="349.470846" style="fill: #6060eb; stroke: #6060eb"/>
    </g>
   </g>
   <g id="PolyCollection_3">
    <defs>
     <path id="m2e31abb073" d="M 86.043636 -97.015163 
L 86.043636 -85.987909 
L 90.867643 -76.720871 
L 95.69165 -69.755455 
L 100.515658 -70.928205 
L 105.339665 -75.771435 
L 110.163672 -77.086243 
L 114.987679 -84.252083 
L 119.811686 -80.990544 
L 124.635693 -76.801194 
L 129.4597 -81.840203 
L 134.283707 -77.22687 
L 139.107714 -82.568977 
L 143.931721 -82.258796 
L 148.755728 -88.429081 
L 153.579735 -88.521848 
L 158.403742 -84.342193 
L 163.227749 -85.016723 
L 168.051756 -86.222159 
L 172.875763 -85.67099 
L 177.699771 -90.068825 
L 182.523778 -90.877823 
L 187.347785 -96.102623 
L 192.171792 -99.235406 
L 196.995799 -98.737605 
L 201.819806 -99.974024 
L 206.643813 -99.739394 
L 211.46782 -93.024012 
L 216.291827 -95.544715 
L 221.115834 -99.796708 
L 225.939841 -99.034675 
L 230.763848 -98.010183 
L 235.587855 -103.619022 
L 240.411862 -106.9584 
L 245.235869 -106.536155 
L 250.059876 -103.074641 
L 254.883883 -99.271395 
L 259.707891 -99.173685 
L 264.531898 -94.715194 
L 269.355905 -92.865728 
L 274.179912 -97.138521 
L 279.003919 -97.5617 
L 283.827926 -100.944738 
L 288.651933 -101.465159 
L 293.47594 -103.55524 
L 298.299947 -105.211762 
L 303.123954 -105.450345 
L 307.947961 -106.099318 
L 312.771968 -105.921706 
L 317.595975 -108.228065 
L 322.419982 -113.147999 
L 327.243989 -115.477545 
L 332.067996 -125.104577 
L 336.892004 -127.590251 
L 341.716011 -132.81761 
L 346.540018 -139.112204 
L 351.364025 -142.444642 
L 356.188032 -148.98292 
L 361.012039 -153.981249 
L 365.836046 -158.469275 
L 370.660053 -162.505319 
L 375.48406 -167.726311 
L 380.308067 -171.397197 
L 385.132074 -175.617586 
L 389.956081 -180.131514 
L 394.780088 -183.549393 
L 399.604095 -188.651797 
L 404.428102 -192.339965 
L 409.252109 -196.286634 
L 414.076117 -200.450401 
L 418.900124 -201.008106 
L 423.724131 -204.08826 
L 428.548138 -208.469808 
L 433.372145 -213.079951 
L 438.196152 -217.542467 
L 443.020159 -219.595243 
L 447.844166 -221.003843 
L 452.668173 -221.58441 
L 457.49218 -220.64174 
L 462.316187 -222.874165 
L 467.140194 -230.279348 
L 471.964201 -242.891377 
L 476.788208 -249.109783 
L 481.612215 -256.084202 
L 486.436222 -261.762454 
L 491.260229 -267.184779 
L 496.084237 -273.276278 
L 500.908244 -276.665671 
L 505.732251 -281.474691 
L 510.556258 -285.658847 
L 515.380265 -286.485453 
L 520.204272 -290.385495 
L 525.028279 -292.537227 
L 529.852286 -296.055353 
L 534.676293 -298.176389 
L 539.5003 -299.762204 
L 544.324307 -299.085708 
L 549.148314 -299.32769 
L 553.972321 -300.783054 
L 558.796328 -302.893486 
L 563.620335 -305.599615 
L 568.444342 -305.303921 
L 573.26835 -304.912099 
L 578.092357 -304.976523 
L 582.916364 -304.307306 
L 582.916364 -388.050844 
L 582.916364 -388.050844 
L 578.092357 -388.464545 
L 573.26835 -388.138496 
L 568.444342 -388.360472 
L 563.620335 -387.981024 
L 558.796328 -384.854937 
L 553.972321 -381.404084 
L 549.148314 -378.551927 
L 544.324307 -376.86616 
L 539.5003 -376.06168 
L 534.676293 -373.43042 
L 529.852286 -369.927005 
L 525.028279 -364.948652 
L 520.204272 -361.187381 
L 515.380265 -355.906593 
L 510.556258 -353.557409 
L 505.732251 -346.958245 
L 500.908244 -339.696215 
L 496.084237 -334.17928 
L 491.260229 -326.119147 
L 486.436222 -318.465603 
L 481.612215 -310.868504 
L 476.788208 -302.485624 
L 471.964201 -293.642138 
L 467.140194 -277.676203 
L 462.316187 -268.262817 
L 457.49218 -265.138876 
L 452.668173 -265.855783 
L 447.844166 -264.519092 
L 443.020159 -262.229557 
L 438.196152 -259.328033 
L 433.372145 -254.139807 
L 428.548138 -248.813491 
L 423.724131 -243.515868 
L 418.900124 -238.843363 
L 414.076117 -236.958836 
L 409.252109 -231.516779 
L 404.428102 -226.774568 
L 399.604095 -222.289117 
L 394.780088 -216.084279 
L 389.956081 -210.996064 
L 385.132074 -205.258214 
L 380.308067 -199.741713 
L 375.48406 -194.816714 
L 370.660053 -188.421239 
L 365.836046 -182.873998 
L 361.012039 -177.007732 
L 356.188032 -170.729168 
L 351.364025 -162.908422 
L 346.540018 -157.789393 
L 341.716011 -150.093354 
L 336.892004 -143.45346 
L 332.067996 -139.59165 
L 327.243989 -128.720701 
L 322.419982 -125.250974 
L 317.595975 -119.610161 
L 312.771968 -116.103291 
L 307.947961 -115.142107 
L 303.123954 -113.674557 
L 298.299947 -113.671994 
L 293.47594 -111.824191 
L 288.651933 -109.005595 
L 283.827926 -108.433074 
L 279.003919 -105.314303 
L 274.179912 -104.308115 
L 269.355905 -100.466382 
L 264.531898 -101.930111 
L 259.707891 -106.249059 
L 254.883883 -106.947857 
L 250.059876 -111.019628 
L 245.235869 -114.592693 
L 240.411862 -115.340964 
L 235.587855 -112.521208 
L 230.763848 -106.686522 
L 225.939841 -107.632982 
L 221.115834 -109.549513 
L 216.291827 -106.354914 
L 211.46782 -104.767623 
L 206.643813 -111.485449 
L 201.819806 -111.495331 
L 196.995799 -109.249655 
L 192.171792 -109.58624 
L 187.347785 -106.226348 
L 182.523778 -101.982578 
L 177.699771 -102.321702 
L 172.875763 -97.855771 
L 168.051756 -97.869638 
L 163.227749 -98.119909 
L 158.403742 -97.94922 
L 153.579735 -101.32231 
L 148.755728 -100.72747 
L 143.931721 -95.249512 
L 139.107714 -95.53379 
L 134.283707 -90.112719 
L 129.4597 -94.69279 
L 124.635693 -90.191905 
L 119.811686 -95.852913 
L 114.987679 -99.788307 
L 110.163672 -93.296204 
L 105.339665 -92.28951 
L 100.515658 -87.846381 
L 95.69165 -85.481434 
L 90.867643 -89.979851 
L 86.043636 -97.015163 
z
" style="stroke: #00008b; stroke-opacity: 0.1"/>
    </defs>
    <g clip-path="url(#p9a9b0f13f7)">
     <use xlink:href="#m2e31abb073" x="0" y="432" style="fill: #00008b; fill-opacity: 0.1; stroke: #00008b; stroke-opacity: 0.1"/>
    </g>
   </g>
   <g id="PolyCollection_4">
    <defs>
     <path id="mf902bb8859" d="M 86.043636 -91.987166 
L 86.043636 -89.5566 
L 90.867643 -89.047399 
L 95.69165 -87.170431 
L 100.515658 -85.457061 
L 105.339665 -86.320032 
L 110.163672 -87.882873 
L 114.987679 -88.46742 
L 119.811686 -89.807956 
L 124.635693 -90.052362 
L 129.4597 -90.22513 
L 134.283707 -90.203315 
L 139.107714 -89.46617 
L 143.931721 -89.396865 
L 148.755728 -90.442159 
L 153.579735 -91.130687 
L 158.403742 -90.812443 
L 163.227749 -90.380698 
L 168.051756 -91.302235 
L 172.875763 -91.232726 
L 177.699771 -91.794808 
L 182.523778 -93.339886 
L 187.347785 -95.01081 
L 192.171792 -95.473135 
L 196.995799 -97.488442 
L 201.819806 -98.949681 
L 206.643813 -100.403336 
L 211.46782 -102.465498 
L 216.291827 -103.001545 
L 221.115834 -105.288884 
L 225.939841 -105.835135 
L 230.763848 -105.966883 
L 235.587855 -105.556862 
L 240.411862 -105.895432 
L 245.235869 -105.4754 
L 250.059876 -105.144477 
L 254.883883 -104.387133 
L 259.707891 -105.633634 
L 264.531898 -105.474884 
L 269.355905 -104.30967 
L 274.179912 -104.431298 
L 279.003919 -103.837209 
L 283.827926 -103.714451 
L 288.651933 -103.254025 
L 293.47594 -102.917995 
L 298.299947 -102.94973 
L 303.123954 -102.756543 
L 307.947961 -103.112558 
L 312.771968 -103.126509 
L 317.595975 -102.592347 
L 322.419982 -102.445042 
L 327.243989 -102.220523 
L 332.067996 -102.760771 
L 336.892004 -102.532757 
L 341.716011 -103.052798 
L 346.540018 -103.276446 
L 351.364025 -103.838795 
L 356.188032 -104.586465 
L 361.012039 -103.995396 
L 365.836046 -103.539641 
L 370.660053 -102.881254 
L 375.48406 -102.524524 
L 380.308067 -102.424761 
L 385.132074 -102.474307 
L 389.956081 -102.078811 
L 394.780088 -102.504685 
L 399.604095 -103.497447 
L 404.428102 -103.943486 
L 409.252109 -104.157501 
L 414.076117 -103.658182 
L 418.900124 -103.634435 
L 423.724131 -103.988466 
L 428.548138 -104.252458 
L 433.372145 -103.876832 
L 438.196152 -104.328428 
L 443.020159 -103.946177 
L 447.844166 -103.109116 
L 452.668173 -102.909323 
L 457.49218 -102.364228 
L 462.316187 -101.559823 
L 467.140194 -101.262174 
L 471.964201 -100.864712 
L 476.788208 -100.627709 
L 481.612215 -100.359783 
L 486.436222 -100.453656 
L 491.260229 -99.970832 
L 496.084237 -99.556063 
L 500.908244 -99.833324 
L 505.732251 -99.655802 
L 510.556258 -99.381959 
L 515.380265 -100.020746 
L 520.204272 -99.585892 
L 525.028279 -99.548591 
L 529.852286 -99.280369 
L 534.676293 -99.254708 
L 539.5003 -99.378608 
L 544.324307 -98.684417 
L 549.148314 -99.029789 
L 553.972321 -99.048496 
L 558.796328 -99.224957 
L 563.620335 -99.660552 
L 568.444342 -99.019273 
L 573.26835 -99.186961 
L 578.092357 -98.448993 
L 582.916364 -98.512323 
L 582.916364 -102.893 
L 582.916364 -102.893 
L 578.092357 -102.859836 
L 573.26835 -103.51055 
L 568.444342 -103.302729 
L 563.620335 -103.936714 
L 558.796328 -103.461354 
L 553.972321 -103.184195 
L 549.148314 -103.21047 
L 544.324307 -102.872339 
L 539.5003 -103.51852 
L 534.676293 -103.338736 
L 529.852286 -103.285402 
L 525.028279 -103.487737 
L 520.204272 -103.612316 
L 515.380265 -103.963265 
L 510.556258 -103.351492 
L 505.732251 -103.493341 
L 500.908244 -103.644099 
L 496.084237 -103.343945 
L 491.260229 -103.815191 
L 486.436222 -104.298591 
L 481.612215 -104.161345 
L 476.788208 -104.434029 
L 471.964201 -104.563164 
L 467.140194 -104.819655 
L 462.316187 -104.990612 
L 457.49218 -105.780294 
L 452.668173 -106.304013 
L 447.844166 -106.556033 
L 443.020159 -107.428452 
L 438.196152 -107.736333 
L 433.372145 -107.239067 
L 428.548138 -107.558997 
L 423.724131 -107.217354 
L 418.900124 -106.760386 
L 414.076117 -106.710922 
L 409.252109 -107.222204 
L 404.428102 -107.065531 
L 399.604095 -106.499957 
L 394.780088 -105.355454 
L 389.956081 -104.877455 
L 385.132074 -105.26426 
L 380.308067 -105.200783 
L 375.48406 -105.151211 
L 370.660053 -105.385913 
L 365.836046 -106.11571 
L 361.012039 -106.579214 
L 356.188032 -107.212942 
L 351.364025 -106.414721 
L 346.540018 -105.827262 
L 341.716011 -105.526013 
L 336.892004 -104.837816 
L 332.067996 -105.082028 
L 327.243989 -104.606689 
L 322.419982 -104.77015 
L 317.595975 -104.923367 
L 312.771968 -105.450949 
L 307.947961 -105.396408 
L 303.123954 -104.928431 
L 298.299947 -105.226858 
L 293.47594 -105.118401 
L 288.651933 -105.586508 
L 283.827926 -106.088212 
L 279.003919 -106.225926 
L 274.179912 -106.859776 
L 269.355905 -106.693136 
L 264.531898 -107.964544 
L 259.707891 -108.236989 
L 254.883883 -106.990543 
L 250.059876 -107.953017 
L 245.235869 -108.240037 
L 240.411862 -108.792959 
L 235.587855 -108.527906 
L 230.763848 -109.014291 
L 225.939841 -109.014465 
L 221.115834 -108.547859 
L 216.291827 -106.310774 
L 211.46782 -105.806234 
L 206.643813 -103.671971 
L 201.819806 -101.911092 
L 196.995799 -100.354937 
L 192.171792 -98.436195 
L 187.347785 -97.858078 
L 182.523778 -96.16616 
L 177.699771 -94.368044 
L 172.875763 -94.01988 
L 168.051756 -94.122331 
L 163.227749 -93.291373 
L 158.403742 -93.512359 
L 153.579735 -93.669402 
L 148.755728 -93.166292 
L 143.931721 -92.304621 
L 139.107714 -92.587724 
L 134.283707 -93.528787 
L 129.4597 -93.630314 
L 124.635693 -93.515235 
L 119.811686 -93.376779 
L 114.987679 -92.186184 
L 110.163672 -92.094308 
L 105.339665 -90.254368 
L 100.515658 -89.025565 
L 95.69165 -89.952906 
L 90.867643 -91.751035 
L 86.043636 -91.987166 
z
" style="stroke: #00008b; stroke-opacity: 0.1"/>
    </defs>
    <g clip-path="url(#p9a9b0f13f7)">
     <use xlink:href="#mf902bb8859" x="0" y="432" style="fill: #00008b; fill-opacity: 0.1; stroke: #00008b; stroke-opacity: 0.1"/>
    </g>
   </g>
   <g id="PathCollection_2">
    <defs>
     <path id="m73f1e4e3b6" d="M 0 -3 
L -0.673542 -0.927051 
L -2.85317 -0.927051 
L -1.089814 0.354102 
L -1.763356 2.427051 
L -0 1.145898 
L 1.763356 2.427051 
L 1.089814 0.354102 
L 2.85317 -0.927051 
L 0.673542 -0.927051 
z
" style="stroke: #00008b"/>
    </defs>
    <g clip-path="url(#p9a9b0f13f7)">
     <use xlink:href="#m73f1e4e3b6" x="332.067996" y="356.1947" style="fill: #00008b; stroke: #00008b"/>
     <use xlink:href="#m73f1e4e3b6" x="336.892004" y="356.1947" style="fill: #00008b; stroke: #00008b"/>
     <use xlink:href="#m73f1e4e3b6" x="341.716011" y="356.1947" style="fill: #00008b; stroke: #00008b"/>
     <use xlink:href="#m73f1e4e3b6" x="346.540018" y="356.1947" style="fill: #00008b; stroke: #00008b"/>
     <use xlink:href="#m73f1e4e3b6" x="351.364025" y="356.1947" style="fill: #00008b; stroke: #00008b"/>
     <use xlink:href="#m73f1e4e3b6" x="356.188032" y="356.1947" style="fill: #00008b; stroke: #00008b"/>
     <use xlink:href="#m73f1e4e3b6" x="361.012039" y="356.1947" style="fill: #00008b; stroke: #00008b"/>
     <use xlink:href="#m73f1e4e3b6" x="365.836046" y="356.1947" style="fill: #00008b; stroke: #00008b"/>
     <use xlink:href="#m73f1e4e3b6" x="370.660053" y="356.1947" style="fill: #00008b; stroke: #00008b"/>
     <use xlink:href="#m73f1e4e3b6" x="375.48406" y="356.1947" style="fill: #00008b; stroke: #00008b"/>
     <use xlink:href="#m73f1e4e3b6" x="380.308067" y="356.1947" style="fill: #00008b; stroke: #00008b"/>
     <use xlink:href="#m73f1e4e3b6" x="385.132074" y="356.1947" style="fill: #00008b; stroke: #00008b"/>
     <use xlink:href="#m73f1e4e3b6" x="389.956081" y="356.1947" style="fill: #00008b; stroke: #00008b"/>
     <use xlink:href="#m73f1e4e3b6" x="394.780088" y="356.1947" style="fill: #00008b; stroke: #00008b"/>
     <use xlink:href="#m73f1e4e3b6" x="399.604095" y="356.1947" style="fill: #00008b; stroke: #00008b"/>
     <use xlink:href="#m73f1e4e3b6" x="404.428102" y="356.1947" style="fill: #00008b; stroke: #00008b"/>
     <use xlink:href="#m73f1e4e3b6" x="409.252109" y="356.1947" style="fill: #00008b; stroke: #00008b"/>
     <use xlink:href="#m73f1e4e3b6" x="414.076117" y="356.1947" style="fill: #00008b; stroke: #00008b"/>
     <use xlink:href="#m73f1e4e3b6" x="418.900124" y="356.1947" style="fill: #00008b; stroke: #00008b"/>
     <use xlink:href="#m73f1e4e3b6" x="423.724131" y="356.1947" style="fill: #00008b; stroke: #00008b"/>
     <use xlink:href="#m73f1e4e3b6" x="428.548138" y="356.1947" style="fill: #00008b; stroke: #00008b"/>
     <use xlink:href="#m73f1e4e3b6" x="433.372145" y="356.1947" style="fill: #00008b; stroke: #00008b"/>
     <use xlink:href="#m73f1e4e3b6" x="438.196152" y="356.1947" style="fill: #00008b; stroke: #00008b"/>
     <use xlink:href="#m73f1e4e3b6" x="443.020159" y="356.1947" style="fill: #00008b; stroke: #00008b"/>
     <use xlink:href="#m73f1e4e3b6" x="447.844166" y="356.1947" style="fill: #00008b; stroke: #00008b"/>
     <use xlink:href="#m73f1e4e3b6" x="452.668173" y="356.1947" style="fill: #00008b; stroke: #00008b"/>
     <use xlink:href="#m73f1e4e3b6" x="457.49218" y="356.1947" style="fill: #00008b; stroke: #00008b"/>
     <use xlink:href="#m73f1e4e3b6" x="462.316187" y="356.1947" style="fill: #00008b; stroke: #00008b"/>
     <use xlink:href="#m73f1e4e3b6" x="467.140194" y="356.1947" style="fill: #00008b; stroke: #00008b"/>
     <use xlink:href="#m73f1e4e3b6" x="471.964201" y="356.1947" style="fill: #00008b; stroke: #00008b"/>
     <use xlink:href="#m73f1e4e3b6" x="476.788208" y="356.1947" style="fill: #00008b; stroke: #00008b"/>
     <use xlink:href="#m73f1e4e3b6" x="481.612215" y="356.1947" style="fill: #00008b; stroke: #00008b"/>
     <use xlink:href="#m73f1e4e3b6" x="486.436222" y="356.1947" style="fill: #00008b; stroke: #00008b"/>
     <use xlink:href="#m73f1e4e3b6" x="491.260229" y="356.1947" style="fill: #00008b; stroke: #00008b"/>
     <use xlink:href="#m73f1e4e3b6" x="496.084237" y="356.1947" style="fill: #00008b; stroke: #00008b"/>
     <use xlink:href="#m73f1e4e3b6" x="500.908244" y="356.1947" style="fill: #00008b; stroke: #00008b"/>
     <use xlink:href="#m73f1e4e3b6" x="505.732251" y="356.1947" style="fill: #00008b; stroke: #00008b"/>
     <use xlink:href="#m73f1e4e3b6" x="510.556258" y="356.1947" style="fill: #00008b; stroke: #00008b"/>
     <use xlink:href="#m73f1e4e3b6" x="515.380265" y="356.1947" style="fill: #00008b; stroke: #00008b"/>
     <use xlink:href="#m73f1e4e3b6" x="520.204272" y="356.1947" style="fill: #00008b; stroke: #00008b"/>
     <use xlink:href="#m73f1e4e3b6" x="525.028279" y="356.1947" style="fill: #00008b; stroke: #00008b"/>
     <use xlink:href="#m73f1e4e3b6" x="529.852286" y="356.1947" style="fill: #00008b; stroke: #00008b"/>
     <use xlink:href="#m73f1e4e3b6" x="534.676293" y="356.1947" style="fill: #00008b; stroke: #00008b"/>
     <use xlink:href="#m73f1e4e3b6" x="539.5003" y="356.1947" style="fill: #00008b; stroke: #00008b"/>
     <use xlink:href="#m73f1e4e3b6" x="544.324307" y="356.1947" style="fill: #00008b; stroke: #00008b"/>
     <use xlink:href="#m73f1e4e3b6" x="549.148314" y="356.1947" style="fill: #00008b; stroke: #00008b"/>
     <use xlink:href="#m73f1e4e3b6" x="553.972321" y="356.1947" style="fill: #00008b; stroke: #00008b"/>
     <use xlink:href="#m73f1e4e3b6" x="558.796328" y="356.1947" style="fill: #00008b; stroke: #00008b"/>
     <use xlink:href="#m73f1e4e3b6" x="563.620335" y="356.1947" style="fill: #00008b; stroke: #00008b"/>
     <use xlink:href="#m73f1e4e3b6" x="568.444342" y="356.1947" style="fill: #00008b; stroke: #00008b"/>
     <use xlink:href="#m73f1e4e3b6" x="573.26835" y="356.1947" style="fill: #00008b; stroke: #00008b"/>
     <use xlink:href="#m73f1e4e3b6" x="578.092357" y="356.1947" style="fill: #00008b; stroke: #00008b"/>
     <use xlink:href="#m73f1e4e3b6" x="582.916364" y="356.1947" style="fill: #00008b; stroke: #00008b"/>
    </g>
   </g>
   <g id="line2d_1">
    <path d="M 86.043636 345.298935 
L 90.867643 342.020513 
L 95.69165 341.707816 
L 100.515658 341.542751 
L 105.339665 343.425966 
L 110.163672 341.646196 
L 114.987679 343.213804 
L 119.811686 345.817431 
L 124.635693 343.030172 
L 129.4597 342.42417 
L 134.283707 341.942687 
L 139.107714 343.134691 
L 143.931721 341.338803 
L 148.755728 342.31946 
L 153.579735 344.468965 
L 158.403742 343.015011 
L 163.227749 341.856427 
L 168.051756 344.45697 
L 172.875763 344.65042 
L 177.699771 342.864351 
L 182.523778 343.33122 
L 187.347785 343.804371 
L 192.171792 342.900969 
L 196.995799 341.464574 
L 201.819806 343.073846 
L 206.643813 340.121507 
L 211.46782 345.053289 
L 216.291827 334.642819 
L 221.115834 337.976944 
L 225.939841 341.611284 
L 230.763848 340.228937 
L 235.587855 340.191684 
L 240.411862 341.365218 
L 245.235869 336.534867 
L 250.059876 338.475564 
L 254.883883 335.837122 
L 259.707891 324.773982 
L 264.531898 323.256204 
L 269.355905 322.682668 
L 274.179912 325.979549 
L 279.003919 326.005568 
L 283.827926 330.635159 
L 288.651933 336.059071 
L 293.47594 338.569727 
L 298.299947 332.541752 
L 303.123954 334.932407 
L 307.947961 329.870134 
L 312.771968 327.295166 
L 317.595975 335.113408 
L 322.419982 338.916712 
L 327.243989 339.981298 
L 332.067996 337.420104 
L 336.892004 338.402304 
L 341.716011 341.897486 
L 346.540018 343.69841 
L 351.364025 347.642211 
L 356.188032 345.64437 
L 361.012039 337.582195 
L 365.836046 341.73476 
L 370.660053 343.937753 
L 375.48406 340.190732 
L 380.308067 344.46637 
L 385.132074 348.114435 
L 389.956081 347.496564 
L 394.780088 341.077126 
L 399.604095 338.359227 
L 404.428102 333.037266 
L 409.252109 331.733433 
L 414.076117 327.334586 
L 418.900124 327.313311 
L 423.724131 322.183418 
L 428.548138 320.730951 
L 433.372145 316.765729 
L 438.196152 322.543623 
L 443.020159 327.789346 
L 447.844166 328.389451 
L 452.668173 322.76796 
L 457.49218 331.697389 
L 462.316187 318.605337 
L 467.140194 325.348506 
L 471.964201 357.858787 
L 476.788208 354.656604 
L 481.612215 339.530087 
L 486.436222 344.151419 
L 491.260229 343.47594 
L 496.084237 342.33517 
L 500.908244 340.367676 
L 505.732251 341.596738 
L 510.556258 342.865564 
L 515.380265 342.545596 
L 520.204272 340.875028 
L 525.028279 341.662975 
L 529.852286 346.92494 
L 534.676293 347.760978 
L 539.5003 342.364428 
L 544.324307 343.590468 
L 549.148314 343.799283 
L 553.972321 340.824794 
L 558.796328 343.752787 
L 563.620335 343.176882 
L 568.444342 342.837167 
L 573.26835 339.630259 
L 578.092357 339.582343 
L 582.916364 340.031477 
" clip-path="url(#p9a9b0f13f7)" style="fill: none; stroke: #6060eb; stroke-width: 2; stroke-linecap: round"/>
   </g>
   <g id="line2d_2">
    <path d="M 86.043636 342.668068 
L 90.867643 343.36757 
L 95.69165 342.333437 
L 100.515658 342.655503 
L 105.339665 342.713959 
L 110.163672 342.728125 
L 114.987679 342.945593 
L 119.811686 343.028815 
L 124.635693 343.198036 
L 129.4597 342.449554 
L 134.283707 342.75159 
L 139.107714 342.911854 
L 143.931721 342.949702 
L 148.755728 342.592908 
L 153.579735 342.755925 
L 158.403742 342.845211 
L 163.227749 342.616399 
L 168.051756 342.672673 
L 172.875763 342.706897 
L 177.699771 343.621338 
L 182.523778 342.662205 
L 187.347785 342.436997 
L 192.171792 342.788161 
L 196.995799 343.016753 
L 201.819806 342.821468 
L 206.643813 343.541229 
L 211.46782 342.909798 
L 216.291827 338.657506 
L 221.115834 337.246924 
L 225.939841 336.490152 
L 230.763848 336.176444 
L 235.587855 336.056631 
L 240.411862 336.999376 
L 245.235869 335.988614 
L 250.059876 335.980166 
L 254.883883 335.148264 
L 259.707891 336.054363 
L 264.531898 336.727881 
L 269.355905 335.904601 
L 274.179912 332.926023 
L 279.003919 332.056418 
L 283.827926 332.717835 
L 288.651933 333.052224 
L 293.47594 332.666095 
L 298.299947 333.959744 
L 303.123954 336.318703 
L 307.947961 336.367919 
L 312.771968 335.91393 
L 317.595975 336.815755 
L 322.419982 337.710102 
L 327.243989 338.790633 
L 332.067996 339.158633 
L 336.892004 337.484663 
L 341.716011 337.836772 
L 346.540018 337.366298 
L 351.364025 337.198635 
L 356.188032 338.580725 
L 361.012039 338.566037 
L 365.836046 336.985431 
L 370.660053 337.787003 
L 375.48406 338.070205 
L 380.308067 340.326336 
L 385.132074 338.181327 
L 389.956081 336.217265 
L 394.780088 336.116936 
L 399.604095 334.8792 
L 404.428102 334.481945 
L 409.252109 334.087939 
L 414.076117 334.462588 
L 418.900124 332.104633 
L 423.724131 333.506083 
L 428.548138 336.39143 
L 433.372145 336.163991 
L 438.196152 336.832575 
L 443.020159 335.858877 
L 447.844166 334.622853 
L 452.668173 335.07841 
L 457.49218 340.643352 
L 462.316187 343.455401 
L 467.140194 341.369878 
L 471.964201 340.225906 
L 476.788208 341.835856 
L 481.612215 343.022664 
L 486.436222 343.248132 
L 491.260229 342.182454 
L 496.084237 341.910951 
L 500.908244 343.366238 
L 505.732251 343.545032 
L 510.556258 342.745644 
L 515.380265 342.28145 
L 520.204272 342.427378 
L 525.028279 342.44296 
L 529.852286 342.811738 
L 534.676293 343.195265 
L 539.5003 342.427928 
L 544.324307 342.5657 
L 549.148314 342.187833 
L 553.972321 343.000717 
L 558.796328 343.304089 
L 563.620335 342.645587 
L 568.444342 342.092623 
L 573.26835 342.892789 
L 578.092357 343.185538 
L 582.916364 343.042575 
" clip-path="url(#p9a9b0f13f7)" style="fill: none; stroke-dasharray: 7.4,3.2; stroke-dashoffset: 0; stroke: #6060eb; stroke-width: 2"/>
   </g>
   <g id="line2d_3">
    <path d="M 216.291827 378.18 
L 216.291827 27.6 
" clip-path="url(#p9a9b0f13f7)" style="fill: none; stroke-dasharray: 5.55,2.4; stroke-dashoffset: 0; stroke: #1a1a1a; stroke-width: 1.5"/>
   </g>
   <g id="line2d_4">
    <path d="M 457.49218 378.18 
L 457.49218 27.6 
" clip-path="url(#p9a9b0f13f7)" style="fill: none; stroke-dasharray: 5.55,2.4; stroke-dashoffset: 0; stroke: #1a1a1a; stroke-width: 1.5"/>
   </g>
   <g id="line2d_5">
    <path d="M 86.043636 340.498464 
L 90.867643 348.649639 
L 95.69165 354.381556 
L 100.515658 352.612707 
L 105.339665 347.969527 
L 110.163672 346.808776 
L 114.987679 339.979805 
L 119.811686 343.578271 
L 124.635693 348.50345 
L 129.4597 343.733504 
L 134.283707 348.330206 
L 139.107714 342.948616 
L 143.931721 343.245846 
L 148.755728 337.421724 
L 153.579735 337.077921 
L 158.403742 340.854293 
L 163.227749 340.431684 
L 168.051756 339.954101 
L 172.875763 340.23662 
L 177.699771 335.804737 
L 182.523778 335.5698 
L 187.347785 330.835515 
L 192.171792 327.589177 
L 196.995799 328.00637 
L 201.819806 326.265323 
L 206.643813 326.387578 
L 211.46782 333.104182 
L 216.291827 331.050186 
L 221.115834 327.326889 
L 225.939841 328.666172 
L 230.763848 329.651647 
L 235.587855 323.929885 
L 240.411862 320.850318 
L 245.235869 321.435576 
L 250.059876 324.952865 
L 254.883883 328.890374 
L 259.707891 329.288628 
L 264.531898 333.677347 
L 269.355905 335.333945 
L 274.179912 331.276682 
L 279.003919 330.561998 
L 283.827926 327.311094 
L 288.651933 326.764623 
L 293.47594 324.310284 
L 298.299947 322.558122 
L 303.123954 322.437549 
L 307.947961 321.379288 
L 312.771968 320.987501 
L 317.595975 318.080887 
L 322.419982 312.800513 
L 327.243989 309.900877 
L 332.067996 299.651887 
L 336.892004 296.478144 
L 341.716011 290.544518 
L 346.540018 283.549202 
L 351.364025 279.323468 
L 356.188032 272.143956 
L 361.012039 266.50551 
L 365.836046 261.328363 
L 370.660053 256.536721 
L 375.48406 250.728487 
L 380.308067 246.430545 
L 385.132074 241.5621 
L 389.956081 236.436211 
L 394.780088 232.183164 
L 399.604095 226.529543 
L 404.428102 222.442734 
L 409.252109 218.098294 
L 414.076117 213.295382 
L 418.900124 212.074266 
L 423.724131 208.197936 
L 428.548138 203.35835 
L 433.372145 198.390121 
L 438.196152 193.56475 
L 443.020159 191.0876 
L 447.844166 189.238532 
L 452.668173 188.279903 
L 457.49218 189.109692 
L 462.316187 186.431509 
L 467.140194 178.022224 
L 471.964201 163.733242 
L 476.788208 156.202296 
L 481.612215 148.523647 
L 486.436222 141.885972 
L 491.260229 135.348037 
L 496.084237 128.272221 
L 500.908244 123.819057 
L 505.732251 117.783532 
L 510.556258 112.391872 
L 515.380265 110.803977 
L 520.204272 106.213562 
L 525.028279 103.257061 
L 529.852286 99.008821 
L 534.676293 96.196596 
L 539.5003 94.088058 
L 544.324307 94.024066 
L 549.148314 93.060192 
L 553.972321 90.906431 
L 558.796328 88.125788 
L 563.620335 85.209681 
L 568.444342 85.167804 
L 573.26835 85.474702 
L 578.092357 85.279466 
L 582.916364 85.820925 
" clip-path="url(#p9a9b0f13f7)" style="fill: none; stroke: #00008b; stroke-width: 2; stroke-linecap: round"/>
   </g>
   <g id="line2d_6">
    <path d="M 86.043636 341.228117 
L 90.867643 341.600783 
L 95.69165 343.438331 
L 100.515658 344.758687 
L 105.339665 343.7128 
L 110.163672 342.011409 
L 114.987679 341.673198 
L 119.811686 340.407633 
L 124.635693 340.216201 
L 129.4597 340.072278 
L 134.283707 340.133949 
L 139.107714 340.973053 
L 143.931721 341.149257 
L 148.755728 340.195775 
L 153.579735 339.599955 
L 158.403742 339.837599 
L 163.227749 340.163965 
L 168.051756 339.287717 
L 172.875763 339.373697 
L 177.699771 338.918574 
L 182.523778 337.246977 
L 187.347785 335.565556 
L 192.171792 335.045335 
L 196.995799 333.07831 
L 201.819806 331.569614 
L 206.643813 329.962347 
L 211.46782 327.864134 
L 216.291827 327.34384 
L 221.115834 325.081629 
L 225.939841 324.5752 
L 230.763848 324.509413 
L 235.587855 324.957616 
L 240.411862 324.655804 
L 245.235869 325.142281 
L 250.059876 325.451253 
L 254.883883 326.311162 
L 259.707891 325.064688 
L 264.531898 325.280286 
L 269.355905 326.498597 
L 274.179912 326.354463 
L 279.003919 326.968433 
L 283.827926 327.098669 
L 288.651933 327.579733 
L 293.47594 327.981802 
L 298.299947 327.911706 
L 303.123954 328.157513 
L 307.947961 327.745517 
L 312.771968 327.711271 
L 317.595975 328.242143 
L 322.419982 328.392404 
L 327.243989 328.586394 
L 332.067996 328.0786 
L 336.892004 328.314713 
L 341.716011 327.710595 
L 346.540018 327.448146 
L 351.364025 326.873242 
L 356.188032 326.100297 
L 361.012039 326.712695 
L 365.836046 327.172325 
L 370.660053 327.866417 
L 375.48406 328.162132 
L 380.308067 328.187228 
L 385.132074 328.130716 
L 389.956081 328.521867 
L 394.780088 328.069931 
L 399.604095 327.001298 
L 404.428102 326.495492 
L 409.252109 326.310147 
L 414.076117 326.815448 
L 418.900124 326.80259 
L 423.724131 326.39709 
L 428.548138 326.094272 
L 433.372145 326.44205 
L 438.196152 325.967619 
L 443.020159 326.312686 
L 447.844166 327.167425 
L 452.668173 327.393332 
L 457.49218 327.927739 
L 462.316187 328.724782 
L 467.140194 328.959086 
L 471.964201 329.286062 
L 476.788208 329.469131 
L 481.612215 329.739436 
L 486.436222 329.623877 
L 491.260229 330.106988 
L 496.084237 330.549996 
L 500.908244 330.261288 
L 505.732251 330.425429 
L 510.556258 330.633275 
L 515.380265 330.007995 
L 520.204272 330.400896 
L 525.028279 330.481836 
L 529.852286 330.717114 
L 534.676293 330.703278 
L 539.5003 330.551436 
L 544.324307 331.221622 
L 549.148314 330.87987 
L 553.972321 330.883654 
L 558.796328 330.656844 
L 563.620335 330.201367 
L 568.444342 330.838999 
L 573.26835 330.651244 
L 578.092357 331.345585 
L 582.916364 331.297338 
" clip-path="url(#p9a9b0f13f7)" style="fill: none; stroke-dasharray: 7.4,3.2; stroke-dashoffset: 0; stroke: #00008b; stroke-width: 2"/>
   </g>
   <g id="line2d_7">
    <path d="M 216.291827 378.18 
L 216.291827 27.6 
" clip-path="url(#p9a9b0f13f7)" style="fill: none; stroke-dasharray: 5.55,2.4; stroke-dashoffset: 0; stroke: #1a1a1a; stroke-width: 1.5"/>
   </g>
   <g id="line2d_8">
    <path d="M 457.49218 378.18 
L 457.49218 27.6 
" clip-path="url(#p9a9b0f13f7)" style="fill: none; stroke-dasharray: 5.55,2.4; stroke-dashoffset: 0; stroke: #1a1a1a; stroke-width: 1.5"/>
   </g>
   <g id="patch_3">
    <path d="M 61.2 378.18 
L 61.2 27.6 
" style="fill: none; stroke: #cccccc; stroke-width: 1.5; stroke-linejoin: miter; stroke-linecap: square"/>
   </g>
   <g id="patch_4">
    <path d="M 61.2 378.18 
L 607.76 378.18 
" style="fill: none; stroke: #cccccc; stroke-width: 1.5; stroke-linejoin: miter; stroke-linecap: square"/>
   </g>
   <g id="text_13">
    <!-- Divergence Comparison: Original vs Shuffled -->
    <g style="fill: #262626" transform="translate(214.87 21.6) scale(0.12 -0.12)">
     <defs>
      <path id="ArialMT-43" d="M 3763 1606 
L 4369 1453 
Q 4178 706 3683 314 
Q 3188 -78 2472 -78 
Q 1731 -78 1267 223 
Q 803 525 561 1097 
Q 319 1669 319 2325 
Q 319 3041 592 3573 
Q 866 4106 1370 4382 
Q 1875 4659 2481 4659 
Q 3169 4659 3637 4309 
Q 4106 3959 4291 3325 
L 3694 3184 
Q 3534 3684 3231 3912 
Q 2928 4141 2469 4141 
Q 1941 4141 1586 3887 
Q 1231 3634 1087 3207 
Q 944 2781 944 2328 
Q 944 1744 1114 1308 
Q 1284 872 1643 656 
Q 2003 441 2422 441 
Q 2931 441 3284 734 
Q 3638 1028 3763 1606 
z
" transform="scale(0.015625)"/>
      <path id="ArialMT-6f" d="M 213 1659 
Q 213 2581 725 3025 
Q 1153 3394 1769 3394 
Q 2453 3394 2887 2945 
Q 3322 2497 3322 1706 
Q 3322 1066 3130 698 
Q 2938 331 2570 128 
Q 2203 -75 1769 -75 
Q 1072 -75 642 372 
Q 213 819 213 1659 
z
M 791 1659 
Q 791 1022 1069 705 
Q 1347 388 1769 388 
Q 2188 388 2466 706 
Q 2744 1025 2744 1678 
Q 2744 2294 2464 2611 
Q 2184 2928 1769 2928 
Q 1347 2928 1069 2612 
Q 791 2297 791 1659 
z
" transform="scale(0.015625)"/>
      <path id="ArialMT-70" d="M 422 -1272 
L 422 3319 
L 934 3319 
L 934 2888 
Q 1116 3141 1344 3267 
Q 1572 3394 1897 3394 
Q 2322 3394 2647 3175 
Q 2972 2956 3137 2557 
Q 3303 2159 3303 1684 
Q 3303 1175 3120 767 
Q 2938 359 2589 142 
Q 2241 -75 1856 -75 
Q 1575 -75 1351 44 
Q 1128 163 984 344 
L 984 -1272 
L 422 -1272 
z
M 931 1641 
Q 931 1000 1190 694 
Q 1450 388 1819 388 
Q 2194 388 2461 705 
Q 2728 1022 2728 1688 
Q 2728 2322 2467 2637 
Q 2206 2953 1844 2953 
Q 1484 2953 1207 2617 
Q 931 2281 931 1641 
z
" transform="scale(0.015625)"/>
      <path id="ArialMT-61" d="M 2588 409 
Q 2275 144 1986 34 
Q 1697 -75 1366 -75 
Q 819 -75 525 192 
Q 231 459 231 875 
Q 231 1119 342 1320 
Q 453 1522 633 1644 
Q 813 1766 1038 1828 
Q 1203 1872 1538 1913 
Q 2219 1994 2541 2106 
Q 2544 2222 2544 2253 
Q 2544 2597 2384 2738 
Q 2169 2928 1744 2928 
Q 1347 2928 1158 2789 
Q 969 2650 878 2297 
L 328 2372 
Q 403 2725 575 2942 
Q 747 3159 1072 3276 
Q 1397 3394 1825 3394 
Q 2250 3394 2515 3294 
Q 2781 3194 2906 3042 
Q 3031 2891 3081 2659 
Q 3109 2516 3109 2141 
L 3109 1391 
Q 3109 606 3145 398 
Q 3181 191 3288 0 
L 2700 0 
Q 2613 175 2588 409 
z
M 2541 1666 
Q 2234 1541 1622 1453 
Q 1275 1403 1131 1340 
Q 988 1278 909 1158 
Q 831 1038 831 891 
Q 831 666 1001 516 
Q 1172 366 1500 366 
Q 1825 366 2078 508 
Q 2331 650 2450 897 
Q 2541 1088 2541 1459 
L 2541 1666 
z
" transform="scale(0.015625)"/>
      <path id="ArialMT-3a" d="M 578 2678 
L 578 3319 
L 1219 3319 
L 1219 2678 
L 578 2678 
z
M 578 0 
L 578 641 
L 1219 641 
L 1219 0 
L 578 0 
z
" transform="scale(0.015625)"/>
      <path id="ArialMT-4f" d="M 309 2231 
Q 309 3372 921 4017 
Q 1534 4663 2503 4663 
Q 3138 4663 3647 4359 
Q 4156 4056 4423 3514 
Q 4691 2972 4691 2284 
Q 4691 1588 4409 1038 
Q 4128 488 3612 205 
Q 3097 -78 2500 -78 
Q 1853 -78 1343 234 
Q 834 547 571 1087 
Q 309 1628 309 2231 
z
M 934 2222 
Q 934 1394 1379 917 
Q 1825 441 2497 441 
Q 3181 441 3623 922 
Q 4066 1403 4066 2288 
Q 4066 2847 3877 3264 
Q 3688 3681 3323 3911 
Q 2959 4141 2506 4141 
Q 1863 4141 1398 3698 
Q 934 3256 934 2222 
z
" transform="scale(0.015625)"/>
      <path id="ArialMT-6c" d="M 409 0 
L 409 4581 
L 972 4581 
L 972 0 
L 409 0 
z
" transform="scale(0.015625)"/>
      <path id="ArialMT-53" d="M 288 1472 
L 859 1522 
Q 900 1178 1048 958 
Q 1197 738 1509 602 
Q 1822 466 2213 466 
Q 2559 466 2825 569 
Q 3091 672 3220 851 
Q 3350 1031 3350 1244 
Q 3350 1459 3225 1620 
Q 3100 1781 2813 1891 
Q 2628 1963 1997 2114 
Q 1366 2266 1113 2400 
Q 784 2572 623 2826 
Q 463 3081 463 3397 
Q 463 3744 659 4045 
Q 856 4347 1234 4503 
Q 1613 4659 2075 4659 
Q 2584 4659 2973 4495 
Q 3363 4331 3572 4012 
Q 3781 3694 3797 3291 
L 3216 3247 
Q 3169 3681 2898 3903 
Q 2628 4125 2100 4125 
Q 1550 4125 1298 3923 
Q 1047 3722 1047 3438 
Q 1047 3191 1225 3031 
Q 1400 2872 2139 2705 
Q 2878 2538 3153 2413 
Q 3553 2228 3743 1945 
Q 3934 1663 3934 1294 
Q 3934 928 3725 604 
Q 3516 281 3123 101 
Q 2731 -78 2241 -78 
Q 1619 -78 1198 103 
Q 778 284 539 648 
Q 300 1013 288 1472 
z
" transform="scale(0.015625)"/>
      <path id="ArialMT-68" d="M 422 0 
L 422 4581 
L 984 4581 
L 984 2938 
Q 1378 3394 1978 3394 
Q 2347 3394 2619 3248 
Q 2891 3103 3008 2847 
Q 3125 2591 3125 2103 
L 3125 0 
L 2563 0 
L 2563 2103 
Q 2563 2525 2380 2717 
Q 2197 2909 1863 2909 
Q 1613 2909 1392 2779 
Q 1172 2650 1078 2428 
Q 984 2206 984 1816 
L 984 0 
L 422 0 
z
" transform="scale(0.015625)"/>
      <path id="ArialMT-75" d="M 2597 0 
L 2597 488 
Q 2209 -75 1544 -75 
Q 1250 -75 995 37 
Q 741 150 617 320 
Q 494 491 444 738 
Q 409 903 409 1263 
L 409 3319 
L 972 3319 
L 972 1478 
Q 972 1038 1006 884 
Q 1059 663 1231 536 
Q 1403 409 1656 409 
Q 1909 409 2131 539 
Q 2353 669 2445 892 
Q 2538 1116 2538 1541 
L 2538 3319 
L 3100 3319 
L 3100 0 
L 2597 0 
z
" transform="scale(0.015625)"/>
      <path id="ArialMT-66" d="M 556 0 
L 556 2881 
L 59 2881 
L 59 3319 
L 556 3319 
L 556 3672 
Q 556 4006 616 4169 
Q 697 4388 901 4523 
Q 1106 4659 1475 4659 
Q 1713 4659 2000 4603 
L 1916 4113 
Q 1741 4144 1584 4144 
Q 1328 4144 1222 4034 
Q 1116 3925 1116 3625 
L 1116 3319 
L 1763 3319 
L 1763 2881 
L 1116 2881 
L 1116 0 
L 556 0 
z
" transform="scale(0.015625)"/>
      <path id="ArialMT-64" d="M 2575 0 
L 2575 419 
Q 2259 -75 1647 -75 
Q 1250 -75 917 144 
Q 584 363 401 755 
Q 219 1147 219 1656 
Q 219 2153 384 2558 
Q 550 2963 881 3178 
Q 1213 3394 1622 3394 
Q 1922 3394 2156 3267 
Q 2391 3141 2538 2938 
L 2538 4581 
L 3097 4581 
L 3097 0 
L 2575 0 
z
M 797 1656 
Q 797 1019 1065 703 
Q 1334 388 1700 388 
Q 2069 388 2326 689 
Q 2584 991 2584 1609 
Q 2584 2291 2321 2609 
Q 2059 2928 1675 2928 
Q 1300 2928 1048 2622 
Q 797 2316 797 1656 
z
" transform="scale(0.015625)"/>
     </defs>
     <use xlink:href="#ArialMT-44"/>
     <use xlink:href="#ArialMT-69" x="72.216797"/>
     <use xlink:href="#ArialMT-76" x="94.433594"/>
     <use xlink:href="#ArialMT-65" x="144.433594"/>
     <use xlink:href="#ArialMT-72" x="200.048828"/>
     <use xlink:href="#ArialMT-67" x="233.349609"/>
     <use xlink:href="#ArialMT-65" x="288.964844"/>
     <use xlink:href="#ArialMT-6e" x="344.580078"/>
     <use xlink:href="#ArialMT-63" x="400.195312"/>
     <use xlink:href="#ArialMT-65" x="450.195312"/>
     <use xlink:href="#ArialMT-20" x="505.810547"/>
     <use xlink:href="#ArialMT-43" x="533.59375"/>
     <use xlink:href="#ArialMT-6f" x="605.810547"/>
     <use xlink:href="#ArialMT-6d" x="661.425781"/>
     <use xlink:href="#ArialMT-70" x="744.726562"/>
     <use xlink:href="#ArialMT-61" x="800.341797"/>
     <use xlink:href="#ArialMT-72" x="855.957031"/>
     <use xlink:href="#ArialMT-69" x="889.257812"/>
     <use xlink:href="#ArialMT-73" x="911.474609"/>
     <use xlink:href="#ArialMT-6f" x="961.474609"/>
     <use xlink:href="#ArialMT-6e" x="1017.089844"/>
     <use xlink:href="#ArialMT-3a" x="1072.705078"/>
     <use xlink:href="#ArialMT-20" x="1100.488281"/>
     <use xlink:href="#ArialMT-4f" x="1128.271484"/>
     <use xlink:href="#ArialMT-72" x="1206.054688"/>
     <use xlink:href="#ArialMT-69" x="1239.355469"/>
     <use xlink:href="#ArialMT-67" x="1261.572266"/>
     <use xlink:href="#ArialMT-69" x="1317.1875"/>
     <use xlink:href="#ArialMT-6e" x="1339.404297"/>
     <use xlink:href="#ArialMT-61" x="1395.019531"/>
     <use xlink:href="#ArialMT-6c" x="1450.634766"/>
     <use xlink:href="#ArialMT-20" x="1472.851562"/>
     <use xlink:href="#ArialMT-76" x="1500.634766"/>
     <use xlink:href="#ArialMT-73" x="1550.634766"/>
     <use xlink:href="#ArialMT-20" x="1600.634766"/>
     <use xlink:href="#ArialMT-53" x="1628.417969"/>
     <use xlink:href="#ArialMT-68" x="1695.117188"/>
     <use xlink:href="#ArialMT-75" x="1750.732422"/>
     <use xlink:href="#ArialMT-66" x="1806.347656"/>
     <use xlink:href="#ArialMT-66" x="1832.380859"/>
     <use xlink:href="#ArialMT-6c" x="1860.164062"/>
     <use xlink:href="#ArialMT-65" x="1882.380859"/>
     <use xlink:href="#ArialMT-64" x="1937.996094"/>
    </g>
   </g>
   <g id="legend_1">
    <g id="patch_5">
     <path d="M 615.46 259.555469 
L 705.061875 259.555469 
Q 707.261875 259.555469 707.261875 257.355469 
L 707.261875 148.424531 
Q 707.261875 146.224531 705.061875 146.224531 
L 615.46 146.224531 
Q 613.26 146.224531 613.26 148.424531 
L 613.26 257.355469 
Q 613.26 259.555469 615.46 259.555469 
z
" style="fill: #ffffff; opacity: 0.8; stroke: #cccccc; stroke-linejoin: miter"/>
    </g>
    <g id="line2d_9">
     <path d="M 617.66 154.789062 
L 628.66 154.789062 
L 639.66 154.789062 
" style="fill: none; stroke: #6060eb; stroke-width: 2; stroke-linecap: round"/>
    </g>
    <g id="text_14">
     <!-- Original -->
     <g style="fill: #262626" transform="translate(648.46 158.639062) scale(0.11 -0.11)">
      <use xlink:href="#ArialMT-4f"/>
      <use xlink:href="#ArialMT-72" x="77.783203"/>
      <use xlink:href="#ArialMT-69" x="111.083984"/>
      <use xlink:href="#ArialMT-67" x="133.300781"/>
      <use xlink:href="#ArialMT-69" x="188.916016"/>
      <use xlink:href="#ArialMT-6e" x="211.132812"/>
      <use xlink:href="#ArialMT-61" x="266.748047"/>
      <use xlink:href="#ArialMT-6c" x="322.363281"/>
     </g>
    </g>
    <g id="line2d_10">
     <path d="M 617.66 170.61875 
L 628.66 170.61875 
L 639.66 170.61875 
" style="fill: none; stroke-dasharray: 7.4,3.2; stroke-dashoffset: 0; stroke: #6060eb; stroke-width: 2"/>
    </g>
    <g id="text_15">
     <!-- Original -->
     <g style="fill: #262626" transform="translate(648.46 174.46875) scale(0.11 -0.11)">
      <use xlink:href="#ArialMT-4f"/>
      <use xlink:href="#ArialMT-72" x="77.783203"/>
      <use xlink:href="#ArialMT-69" x="111.083984"/>
      <use xlink:href="#ArialMT-67" x="133.300781"/>
      <use xlink:href="#ArialMT-69" x="188.916016"/>
      <use xlink:href="#ArialMT-6e" x="211.132812"/>
      <use xlink:href="#ArialMT-61" x="266.748047"/>
      <use xlink:href="#ArialMT-6c" x="322.363281"/>
     </g>
    </g>
    <g id="PathCollection_3">
     <g>
      <use xlink:href="#m044747037f" x="628.66" y="187.302656" style="fill: #6060eb; stroke: #6060eb"/>
     </g>
    </g>
    <g id="text_16">
     <!-- p &lt; 0.001 -->
     <g style="fill: #262626" transform="translate(648.46 190.190156) scale(0.11 -0.11)">
      <defs>
       <path id="ArialMT-3c" d="M 350 2003 
L 350 2528 
L 3384 3809 
L 3384 3250 
L 978 2263 
L 3384 1266 
L 3384 706 
L 350 2003 
z
" transform="scale(0.015625)"/>
      </defs>
      <use xlink:href="#ArialMT-70"/>
      <use xlink:href="#ArialMT-20" x="55.615234"/>
      <use xlink:href="#ArialMT-3c" x="83.398438"/>
      <use xlink:href="#ArialMT-20" x="141.796875"/>
      <use xlink:href="#ArialMT-30" x="169.580078"/>
      <use xlink:href="#ArialMT-2e" x="225.195312"/>
      <use xlink:href="#ArialMT-30" x="252.978516"/>
      <use xlink:href="#ArialMT-30" x="308.59375"/>
      <use xlink:href="#ArialMT-31" x="364.208984"/>
     </g>
    </g>
    <g id="line2d_11">
     <path d="M 617.66 201.9 
L 628.66 201.9 
L 639.66 201.9 
" style="fill: none; stroke-dasharray: 5.55,2.4; stroke-dashoffset: 0; stroke: #1a1a1a; stroke-width: 1.5"/>
    </g>
    <g id="text_17">
     <!-- Stim Onset -->
     <g style="fill: #262626" transform="translate(648.46 205.75) scale(0.11 -0.11)">
      <defs>
       <path id="ArialMT-74" d="M 1650 503 
L 1731 6 
Q 1494 -44 1306 -44 
Q 1000 -44 831 53 
Q 663 150 594 308 
Q 525 466 525 972 
L 525 2881 
L 113 2881 
L 113 3319 
L 525 3319 
L 525 4141 
L 1084 4478 
L 1084 3319 
L 1650 3319 
L 1650 2881 
L 1084 2881 
L 1084 941 
Q 1084 700 1114 631 
Q 1144 563 1211 522 
Q 1278 481 1403 481 
Q 1497 481 1650 503 
z
" transform="scale(0.015625)"/>
      </defs>
      <use xlink:href="#ArialMT-53"/>
      <use xlink:href="#ArialMT-74" x="66.699219"/>
      <use xlink:href="#ArialMT-69" x="94.482422"/>
      <use xlink:href="#ArialMT-6d" x="116.699219"/>
      <use xlink:href="#ArialMT-20" x="200"/>
      <use xlink:href="#ArialMT-4f" x="227.783203"/>
      <use xlink:href="#ArialMT-6e" x="305.566406"/>
      <use xlink:href="#ArialMT-73" x="361.181641"/>
      <use xlink:href="#ArialMT-65" x="411.181641"/>
      <use xlink:href="#ArialMT-74" x="466.796875"/>
     </g>
    </g>
    <g id="line2d_12">
     <path d="M 617.66 217.459844 
L 628.66 217.459844 
L 639.66 217.459844 
" style="fill: none; stroke-dasharray: 5.55,2.4; stroke-dashoffset: 0; stroke: #1a1a1a; stroke-width: 1.5"/>
    </g>
    <g id="text_18">
     <!-- Stim End -->
     <g style="fill: #262626" transform="translate(648.46 221.309844) scale(0.11 -0.11)">
      <defs>
       <path id="ArialMT-45" d="M 506 0 
L 506 4581 
L 3819 4581 
L 3819 4041 
L 1113 4041 
L 1113 2638 
L 3647 2638 
L 3647 2100 
L 1113 2100 
L 1113 541 
L 3925 541 
L 3925 0 
L 506 0 
z
" transform="scale(0.015625)"/>
      </defs>
      <use xlink:href="#ArialMT-53"/>
      <use xlink:href="#ArialMT-74" x="66.699219"/>
      <use xlink:href="#ArialMT-69" x="94.482422"/>
      <use xlink:href="#ArialMT-6d" x="116.699219"/>
      <use xlink:href="#ArialMT-20" x="200"/>
      <use xlink:href="#ArialMT-45" x="227.783203"/>
      <use xlink:href="#ArialMT-6e" x="294.482422"/>
      <use xlink:href="#ArialMT-64" x="350.097656"/>
     </g>
    </g>
    <g id="line2d_13">
     <path d="M 617.66 233.160625 
L 628.66 233.160625 
L 639.66 233.160625 
" style="fill: none; stroke: #00008b; stroke-width: 2; stroke-linecap: round"/>
    </g>
    <g id="text_19">
     <!-- Original -->
     <g style="fill: #262626" transform="translate(648.46 237.010625) scale(0.11 -0.11)">
      <use xlink:href="#ArialMT-4f"/>
      <use xlink:href="#ArialMT-72" x="77.783203"/>
      <use xlink:href="#ArialMT-69" x="111.083984"/>
      <use xlink:href="#ArialMT-67" x="133.300781"/>
      <use xlink:href="#ArialMT-69" x="188.916016"/>
      <use xlink:href="#ArialMT-6e" x="211.132812"/>
      <use xlink:href="#ArialMT-61" x="266.748047"/>
      <use xlink:href="#ArialMT-6c" x="322.363281"/>
     </g>
    </g>
    <g id="line2d_14">
     <path d="M 617.66 248.990312 
L 628.66 248.990312 
L 639.66 248.990312 
" style="fill: none; stroke-dasharray: 7.4,3.2; stroke-dashoffset: 0; stroke: #00008b; stroke-width: 2"/>
    </g>
    <g id="text_20">
     <!-- Original -->
     <g style="fill: #262626" transform="translate(648.46 252.840312) scale(0.11 -0.11)">
      <use xlink:href="#ArialMT-4f"/>
      <use xlink:href="#ArialMT-72" x="77.783203"/>
      <use xlink:href="#ArialMT-69" x="111.083984"/>
      <use xlink:href="#ArialMT-67" x="133.300781"/>
      <use xlink:href="#ArialMT-69" x="188.916016"/>
      <use xlink:href="#ArialMT-6e" x="211.132812"/>
      <use xlink:href="#ArialMT-61" x="266.748047"/>
      <use xlink:href="#ArialMT-6c" x="322.363281"/>
     </g>
    </g>
   </g>
  </g>
 </g>
 <defs>
  <clipPath id="p9a9b0f13f7">
   <rect x="61.2" y="27.6" width="546.56" height="350.58"/>
  </clipPath>
 </defs>
</svg>
