<?xml version="1.0" encoding="utf-8" standalone="no"?>
<!DOCTYPE svg PUBLIC "-//W3C//DTD SVG 1.1//EN"
  "http://www.w3.org/Graphics/SVG/1.1/DTD/svg11.dtd">
<svg xmlns:xlink="http://www.w3.org/1999/xlink" width="720pt" height="432pt" viewBox="0 0 720 432" xmlns="http://www.w3.org/2000/svg" version="1.1">
 <metadata>
  <rdf:RDF xmlns:dc="http://purl.org/dc/elements/1.1/" xmlns:cc="http://creativecommons.org/ns#" xmlns:rdf="http://www.w3.org/1999/02/22-rdf-syntax-ns#">
   <cc:Work>
    <dc:type rdf:resource="http://purl.org/dc/dcmitype/StillImage"/>
    <dc:date>2025-10-11T13:44:36.781533</dc:date>
    <dc:format>image/svg+xml</dc:format>
    <dc:creator>
     <cc:Agent>
      <dc:title>Matplotlib v3.9.4, https://matplotlib.org/</dc:title>
     </cc:Agent>
    </dc:creator>
   </cc:Work>
  </rdf:RDF>
 </metadata>
 <defs>
  <style type="text/css">*{stroke-linejoin: round; stroke-linecap: butt}</style>
 </defs>
 <g id="figure_1">
  <g id="patch_1">
   <path d="M 0 432 
L 720 432 
L 720 0 
L 0 0 
z
" style="fill: #ffffff"/>
  </g>
  <g id="axes_1">
   <g id="patch_2">
    <path d="M 70.085 377.54 
L 607.44 377.54 
L 607.44 26.96 
L 70.085 26.96 
L 70.085 377.54 
z
" style="fill: none"/>
   </g>
   <g id="matplotlib.axis_1">
    <g id="xtick_1">
     <g id="text_1">
      <!-- −250 -->
      <g style="fill: #262626" transform="translate(63.416936 397.776719) scale(0.15 -0.15)">
       <defs>
        <path id="ArialMT-2212" d="M 3381 1997 
L 356 1997 
L 356 2522 
L 3381 2522 
L 3381 1997 
z
" transform="scale(0.015625)"/>
        <path id="ArialMT-32" d="M 3222 541 
L 3222 0 
L 194 0 
Q 188 203 259 391 
Q 375 700 629 1000 
Q 884 1300 1366 1694 
Q 2113 2306 2375 2664 
Q 2638 3022 2638 3341 
Q 2638 3675 2398 3904 
Q 2159 4134 1775 4134 
Q 1369 4134 1125 3890 
Q 881 3647 878 3216 
L 300 3275 
Q 359 3922 746 4261 
Q 1134 4600 1788 4600 
Q 2447 4600 2831 4234 
Q 3216 3869 3216 3328 
Q 3216 3053 3103 2787 
Q 2991 2522 2730 2228 
Q 2469 1934 1863 1422 
Q 1356 997 1212 845 
Q 1069 694 975 541 
L 3222 541 
z
" transform="scale(0.015625)"/>
        <path id="ArialMT-35" d="M 266 1200 
L 856 1250 
Q 922 819 1161 601 
Q 1400 384 1738 384 
Q 2144 384 2425 690 
Q 2706 997 2706 1503 
Q 2706 1984 2436 2262 
Q 2166 2541 1728 2541 
Q 1456 2541 1237 2417 
Q 1019 2294 894 2097 
L 366 2166 
L 809 4519 
L 3088 4519 
L 3088 3981 
L 1259 3981 
L 1013 2750 
Q 1425 3038 1878 3038 
Q 2478 3038 2890 2622 
Q 3303 2206 3303 1553 
Q 3303 931 2941 478 
Q 2500 -78 1738 -78 
Q 1113 -78 717 272 
Q 322 622 266 1200 
z
" transform="scale(0.015625)"/>
        <path id="ArialMT-30" d="M 266 2259 
Q 266 3072 433 3567 
Q 600 4063 929 4331 
Q 1259 4600 1759 4600 
Q 2128 4600 2406 4451 
Q 2684 4303 2865 4023 
Q 3047 3744 3150 3342 
Q 3253 2941 3253 2259 
Q 3253 1453 3087 958 
Q 2922 463 2592 192 
Q 2263 -78 1759 -78 
Q 1097 -78 719 397 
Q 266 969 266 2259 
z
M 844 2259 
Q 844 1131 1108 757 
Q 1372 384 1759 384 
Q 2147 384 2411 759 
Q 2675 1134 2675 2259 
Q 2675 3391 2411 3762 
Q 2147 4134 1753 4134 
Q 1366 4134 1134 3806 
Q 844 3388 844 2259 
z
" transform="scale(0.015625)"/>
       </defs>
       <use xlink:href="#ArialMT-2212"/>
       <use xlink:href="#ArialMT-32" x="58.398438"/>
       <use xlink:href="#ArialMT-35" x="114.013672"/>
       <use xlink:href="#ArialMT-30" x="169.628906"/>
      </g>
     </g>
    </g>
    <g id="xtick_2">
     <g id="text_2">
      <!-- 0 -->
      <g style="fill: #262626" transform="translate(147.142378 397.776719) scale(0.15 -0.15)">
       <use xlink:href="#ArialMT-30"/>
      </g>
     </g>
    </g>
    <g id="xtick_3">
     <g id="text_3">
      <!-- 250 -->
      <g style="fill: #262626" transform="translate(209.80454 397.776719) scale(0.15 -0.15)">
       <use xlink:href="#ArialMT-32"/>
       <use xlink:href="#ArialMT-35" x="55.615234"/>
       <use xlink:href="#ArialMT-30" x="111.230469"/>
      </g>
     </g>
    </g>
    <g id="xtick_4">
     <g id="text_4">
      <!-- 500 -->
      <g style="fill: #262626" transform="translate(280.808107 397.776719) scale(0.15 -0.15)">
       <use xlink:href="#ArialMT-35"/>
       <use xlink:href="#ArialMT-30" x="55.615234"/>
       <use xlink:href="#ArialMT-30" x="111.230469"/>
      </g>
     </g>
    </g>
    <g id="xtick_5">
     <g id="text_5">
      <!-- 750 -->
      <g style="fill: #262626" transform="translate(351.811675 397.776719) scale(0.15 -0.15)">
       <defs>
        <path id="ArialMT-37" d="M 303 3981 
L 303 4522 
L 3269 4522 
L 3269 4084 
Q 2831 3619 2401 2847 
Q 1972 2075 1738 1259 
Q 1569 684 1522 0 
L 944 0 
Q 953 541 1156 1306 
Q 1359 2072 1739 2783 
Q 2119 3494 2547 3981 
L 303 3981 
z
" transform="scale(0.015625)"/>
       </defs>
       <use xlink:href="#ArialMT-37"/>
       <use xlink:href="#ArialMT-35" x="55.615234"/>
       <use xlink:href="#ArialMT-30" x="111.230469"/>
      </g>
     </g>
    </g>
    <g id="xtick_6">
     <g id="text_6">
      <!-- 1000 -->
      <g style="fill: #262626" transform="translate(418.64454 397.776719) scale(0.15 -0.15)">
       <defs>
        <path id="ArialMT-31" d="M 2384 0 
L 1822 0 
L 1822 3584 
Q 1619 3391 1289 3197 
Q 959 3003 697 2906 
L 697 3450 
Q 1169 3672 1522 3987 
Q 1875 4303 2022 4600 
L 2384 4600 
L 2384 0 
z
" transform="scale(0.015625)"/>
       </defs>
       <use xlink:href="#ArialMT-31"/>
       <use xlink:href="#ArialMT-30" x="55.615234"/>
       <use xlink:href="#ArialMT-30" x="111.230469"/>
       <use xlink:href="#ArialMT-30" x="166.845703"/>
      </g>
     </g>
    </g>
    <g id="xtick_7">
     <g id="text_7">
      <!-- 1250 -->
      <g style="fill: #262626" transform="translate(489.648107 397.776719) scale(0.15 -0.15)">
       <use xlink:href="#ArialMT-31"/>
       <use xlink:href="#ArialMT-32" x="55.615234"/>
       <use xlink:href="#ArialMT-35" x="111.230469"/>
       <use xlink:href="#ArialMT-30" x="166.845703"/>
      </g>
     </g>
    </g>
    <g id="xtick_8">
     <g id="text_8">
      <!-- 1500 -->
      <g style="fill: #262626" transform="translate(560.651675 397.776719) scale(0.15 -0.15)">
       <use xlink:href="#ArialMT-31"/>
       <use xlink:href="#ArialMT-35" x="55.615234"/>
       <use xlink:href="#ArialMT-30" x="111.230469"/>
       <use xlink:href="#ArialMT-30" x="166.845703"/>
      </g>
     </g>
    </g>
    <g id="text_9">
     <!-- Time (s) -->
     <g style="fill: #262626" transform="translate(311.550391 415.6775) scale(0.15 -0.15)">
      <defs>
       <path id="ArialMT-54" d="M 1659 0 
L 1659 4041 
L 150 4041 
L 150 4581 
L 3781 4581 
L 3781 4041 
L 2266 4041 
L 2266 0 
L 1659 0 
z
" transform="scale(0.015625)"/>
       <path id="ArialMT-69" d="M 425 3934 
L 425 4581 
L 988 4581 
L 988 3934 
L 425 3934 
z
M 425 0 
L 425 3319 
L 988 3319 
L 988 0 
L 425 0 
z
" transform="scale(0.015625)"/>
       <path id="ArialMT-6d" d="M 422 0 
L 422 3319 
L 925 3319 
L 925 2853 
Q 1081 3097 1340 3245 
Q 1600 3394 1931 3394 
Q 2300 3394 2536 3241 
Q 2772 3088 2869 2813 
Q 3263 3394 3894 3394 
Q 4388 3394 4653 3120 
Q 4919 2847 4919 2278 
L 4919 0 
L 4359 0 
L 4359 2091 
Q 4359 2428 4304 2576 
Q 4250 2725 4106 2815 
Q 3963 2906 3769 2906 
Q 3419 2906 3187 2673 
Q 2956 2441 2956 1928 
L 2956 0 
L 2394 0 
L 2394 2156 
Q 2394 2531 2256 2718 
Q 2119 2906 1806 2906 
Q 1569 2906 1367 2781 
Q 1166 2656 1075 2415 
Q 984 2175 984 1722 
L 984 0 
L 422 0 
z
" transform="scale(0.015625)"/>
       <path id="ArialMT-65" d="M 2694 1069 
L 3275 997 
Q 3138 488 2766 206 
Q 2394 -75 1816 -75 
Q 1088 -75 661 373 
Q 234 822 234 1631 
Q 234 2469 665 2931 
Q 1097 3394 1784 3394 
Q 2450 3394 2872 2941 
Q 3294 2488 3294 1666 
Q 3294 1616 3291 1516 
L 816 1516 
Q 847 969 1125 678 
Q 1403 388 1819 388 
Q 2128 388 2347 550 
Q 2566 713 2694 1069 
z
M 847 1978 
L 2700 1978 
Q 2663 2397 2488 2606 
Q 2219 2931 1791 2931 
Q 1403 2931 1139 2672 
Q 875 2413 847 1978 
z
" transform="scale(0.015625)"/>
       <path id="ArialMT-20" transform="scale(0.015625)"/>
       <path id="ArialMT-28" d="M 1497 -1347 
Q 1031 -759 709 28 
Q 388 816 388 1659 
Q 388 2403 628 3084 
Q 909 3875 1497 4659 
L 1900 4659 
Q 1522 4009 1400 3731 
Q 1209 3300 1100 2831 
Q 966 2247 966 1656 
Q 966 153 1900 -1347 
L 1497 -1347 
z
" transform="scale(0.015625)"/>
       <path id="ArialMT-73" d="M 197 991 
L 753 1078 
Q 800 744 1014 566 
Q 1228 388 1613 388 
Q 2000 388 2187 545 
Q 2375 703 2375 916 
Q 2375 1106 2209 1216 
Q 2094 1291 1634 1406 
Q 1016 1563 777 1677 
Q 538 1791 414 1992 
Q 291 2194 291 2438 
Q 291 2659 392 2848 
Q 494 3038 669 3163 
Q 800 3259 1026 3326 
Q 1253 3394 1513 3394 
Q 1903 3394 2198 3281 
Q 2494 3169 2634 2976 
Q 2775 2784 2828 2463 
L 2278 2388 
Q 2241 2644 2061 2787 
Q 1881 2931 1553 2931 
Q 1166 2931 1000 2803 
Q 834 2675 834 2503 
Q 834 2394 903 2306 
Q 972 2216 1119 2156 
Q 1203 2125 1616 2013 
Q 2213 1853 2448 1751 
Q 2684 1650 2818 1456 
Q 2953 1263 2953 975 
Q 2953 694 2789 445 
Q 2625 197 2315 61 
Q 2006 -75 1616 -75 
Q 969 -75 630 194 
Q 291 463 197 991 
z
" transform="scale(0.015625)"/>
       <path id="ArialMT-29" d="M 791 -1347 
L 388 -1347 
Q 1322 153 1322 1656 
Q 1322 2244 1188 2822 
Q 1081 3291 891 3722 
Q 769 4003 388 4659 
L 791 4659 
Q 1378 3875 1659 3084 
Q 1900 2403 1900 1659 
Q 1900 816 1576 28 
Q 1253 -759 791 -1347 
z
" transform="scale(0.015625)"/>
      </defs>
      <use xlink:href="#ArialMT-54"/>
      <use xlink:href="#ArialMT-69" x="57.333984"/>
      <use xlink:href="#ArialMT-6d" x="79.550781"/>
      <use xlink:href="#ArialMT-65" x="162.851562"/>
      <use xlink:href="#ArialMT-20" x="218.466797"/>
      <use xlink:href="#ArialMT-28" x="246.25"/>
      <use xlink:href="#ArialMT-73" x="279.550781"/>
      <use xlink:href="#ArialMT-29" x="329.550781"/>
     </g>
    </g>
   </g>
   <g id="matplotlib.axis_2">
    <g id="ytick_1">
     <g id="text_10">
      <!-- −0.1 -->
      <g style="fill: #262626" transform="translate(30.974062 377.33448) scale(0.15 -0.15)">
       <defs>
        <path id="ArialMT-2e" d="M 581 0 
L 581 641 
L 1222 641 
L 1222 0 
L 581 0 
z
" transform="scale(0.015625)"/>
       </defs>
       <use xlink:href="#ArialMT-2212"/>
       <use xlink:href="#ArialMT-30" x="58.398438"/>
       <use xlink:href="#ArialMT-2e" x="114.013672"/>
       <use xlink:href="#ArialMT-31" x="141.796875"/>
      </g>
     </g>
    </g>
    <g id="ytick_2">
     <g id="text_11">
      <!-- 0.0 -->
      <g style="fill: #262626" transform="translate(39.735 314.10385) scale(0.15 -0.15)">
       <use xlink:href="#ArialMT-30"/>
       <use xlink:href="#ArialMT-2e" x="55.615234"/>
       <use xlink:href="#ArialMT-30" x="83.398438"/>
      </g>
     </g>
    </g>
    <g id="ytick_3">
     <g id="text_12">
      <!-- 0.1 -->
      <g style="fill: #262626" transform="translate(39.735 250.87322) scale(0.15 -0.15)">
       <use xlink:href="#ArialMT-30"/>
       <use xlink:href="#ArialMT-2e" x="55.615234"/>
       <use xlink:href="#ArialMT-31" x="83.398438"/>
      </g>
     </g>
    </g>
    <g id="ytick_4">
     <g id="text_13">
      <!-- 0.2 -->
      <g style="fill: #262626" transform="translate(39.735 187.642589) scale(0.15 -0.15)">
       <use xlink:href="#ArialMT-30"/>
       <use xlink:href="#ArialMT-2e" x="55.615234"/>
       <use xlink:href="#ArialMT-32" x="83.398438"/>
      </g>
     </g>
    </g>
    <g id="ytick_5">
     <g id="text_14">
      <!-- 0.3 -->
      <g style="fill: #262626" transform="translate(39.735 124.411959) scale(0.15 -0.15)">
       <defs>
        <path id="ArialMT-33" d="M 269 1209 
L 831 1284 
Q 928 806 1161 595 
Q 1394 384 1728 384 
Q 2125 384 2398 659 
Q 2672 934 2672 1341 
Q 2672 1728 2419 1979 
Q 2166 2231 1775 2231 
Q 1616 2231 1378 2169 
L 1441 2663 
Q 1497 2656 1531 2656 
Q 1891 2656 2178 2843 
Q 2466 3031 2466 3422 
Q 2466 3731 2256 3934 
Q 2047 4138 1716 4138 
Q 1388 4138 1169 3931 
Q 950 3725 888 3313 
L 325 3413 
Q 428 3978 793 4289 
Q 1159 4600 1703 4600 
Q 2078 4600 2393 4439 
Q 2709 4278 2876 4000 
Q 3044 3722 3044 3409 
Q 3044 3113 2884 2869 
Q 2725 2625 2413 2481 
Q 2819 2388 3044 2092 
Q 3269 1797 3269 1353 
Q 3269 753 2831 336 
Q 2394 -81 1725 -81 
Q 1122 -81 723 278 
Q 325 638 269 1209 
z
" transform="scale(0.015625)"/>
       </defs>
       <use xlink:href="#ArialMT-30"/>
       <use xlink:href="#ArialMT-2e" x="55.615234"/>
       <use xlink:href="#ArialMT-33" x="83.398438"/>
      </g>
     </g>
    </g>
    <g id="ytick_6">
     <g id="text_15">
      <!-- 0.4 -->
      <g style="fill: #262626" transform="translate(39.735 61.181329) scale(0.15 -0.15)">
       <defs>
        <path id="ArialMT-34" d="M 2069 0 
L 2069 1097 
L 81 1097 
L 81 1613 
L 2172 4581 
L 2631 4581 
L 2631 1613 
L 3250 1613 
L 3250 1097 
L 2631 1097 
L 2631 0 
L 2069 0 
z
M 2069 1613 
L 2069 3678 
L 634 1613 
L 2069 1613 
z
" transform="scale(0.015625)"/>
       </defs>
       <use xlink:href="#ArialMT-30"/>
       <use xlink:href="#ArialMT-2e" x="55.615234"/>
       <use xlink:href="#ArialMT-34" x="83.398438"/>
      </g>
     </g>
    </g>
    <g id="text_16">
     <!-- Divergence -->
     <g style="fill: #262626" transform="translate(23.817031 240.183594) rotate(-90) scale(0.15 -0.15)">
      <defs>
       <path id="ArialMT-44" d="M 494 0 
L 494 4581 
L 2072 4581 
Q 2606 4581 2888 4516 
Q 3281 4425 3559 4188 
Q 3922 3881 4101 3404 
Q 4281 2928 4281 2316 
Q 4281 1794 4159 1391 
Q 4038 988 3847 723 
Q 3656 459 3429 307 
Q 3203 156 2883 78 
Q 2563 0 2147 0 
L 494 0 
z
M 1100 541 
L 2078 541 
Q 2531 541 2789 625 
Q 3047 709 3200 863 
Q 3416 1078 3536 1442 
Q 3656 1806 3656 2325 
Q 3656 3044 3420 3430 
Q 3184 3816 2847 3947 
Q 2603 4041 2063 4041 
L 1100 4041 
L 1100 541 
z
" transform="scale(0.015625)"/>
       <path id="ArialMT-76" d="M 1344 0 
L 81 3319 
L 675 3319 
L 1388 1331 
Q 1503 1009 1600 663 
Q 1675 925 1809 1294 
L 2547 3319 
L 3125 3319 
L 1869 0 
L 1344 0 
z
" transform="scale(0.015625)"/>
       <path id="ArialMT-72" d="M 416 0 
L 416 3319 
L 922 3319 
L 922 2816 
Q 1116 3169 1280 3281 
Q 1444 3394 1641 3394 
Q 1925 3394 2219 3213 
L 2025 2691 
Q 1819 2813 1613 2813 
Q 1428 2813 1281 2702 
Q 1134 2591 1072 2394 
Q 978 2094 978 1738 
L 978 0 
L 416 0 
z
" transform="scale(0.015625)"/>
       <path id="ArialMT-67" d="M 319 -275 
L 866 -356 
Q 900 -609 1056 -725 
Q 1266 -881 1628 -881 
Q 2019 -881 2231 -725 
Q 2444 -569 2519 -288 
Q 2563 -116 2559 434 
Q 2191 0 1641 0 
Q 956 0 581 494 
Q 206 988 206 1678 
Q 206 2153 378 2554 
Q 550 2956 876 3175 
Q 1203 3394 1644 3394 
Q 2231 3394 2613 2919 
L 2613 3319 
L 3131 3319 
L 3131 450 
Q 3131 -325 2973 -648 
Q 2816 -972 2473 -1159 
Q 2131 -1347 1631 -1347 
Q 1038 -1347 672 -1080 
Q 306 -813 319 -275 
z
M 784 1719 
Q 784 1066 1043 766 
Q 1303 466 1694 466 
Q 2081 466 2343 764 
Q 2606 1063 2606 1700 
Q 2606 2309 2336 2618 
Q 2066 2928 1684 2928 
Q 1309 2928 1046 2623 
Q 784 2319 784 1719 
z
" transform="scale(0.015625)"/>
       <path id="ArialMT-6e" d="M 422 0 
L 422 3319 
L 928 3319 
L 928 2847 
Q 1294 3394 1984 3394 
Q 2284 3394 2536 3286 
Q 2788 3178 2913 3003 
Q 3038 2828 3088 2588 
Q 3119 2431 3119 2041 
L 3119 0 
L 2556 0 
L 2556 2019 
Q 2556 2363 2490 2533 
Q 2425 2703 2258 2804 
Q 2091 2906 1866 2906 
Q 1506 2906 1245 2678 
Q 984 2450 984 1813 
L 984 0 
L 422 0 
z
" transform="scale(0.015625)"/>
       <path id="ArialMT-63" d="M 2588 1216 
L 3141 1144 
Q 3050 572 2676 248 
Q 2303 -75 1759 -75 
Q 1078 -75 664 370 
Q 250 816 250 1647 
Q 250 2184 428 2587 
Q 606 2991 970 3192 
Q 1334 3394 1763 3394 
Q 2303 3394 2647 3120 
Q 2991 2847 3088 2344 
L 2541 2259 
Q 2463 2594 2264 2762 
Q 2066 2931 1784 2931 
Q 1359 2931 1093 2626 
Q 828 2322 828 1663 
Q 828 994 1084 691 
Q 1341 388 1753 388 
Q 2084 388 2306 591 
Q 2528 794 2588 1216 
z
" transform="scale(0.015625)"/>
      </defs>
      <use xlink:href="#ArialMT-44"/>
      <use xlink:href="#ArialMT-69" x="72.216797"/>
      <use xlink:href="#ArialMT-76" x="94.433594"/>
      <use xlink:href="#ArialMT-65" x="144.433594"/>
      <use xlink:href="#ArialMT-72" x="200.048828"/>
      <use xlink:href="#ArialMT-67" x="233.349609"/>
      <use xlink:href="#ArialMT-65" x="288.964844"/>
      <use xlink:href="#ArialMT-6e" x="344.580078"/>
      <use xlink:href="#ArialMT-63" x="400.195312"/>
      <use xlink:href="#ArialMT-65" x="450.195312"/>
     </g>
    </g>
   </g>
   <g id="PolyCollection_1">
    <defs>
     <path id="m47c29bb224" d="M 94.510227 -123.633877 
L 94.510227 -120.684538 
L 100.190513 -123.584948 
L 105.870798 -124.086708 
L 111.551084 -119.987086 
L 117.231369 -122.61201 
L 122.911654 -126.178452 
L 128.59194 -123.303668 
L 134.272225 -123.235017 
L 139.952511 -122.044307 
L 145.632796 -123.838211 
L 151.313081 -129.776525 
L 156.993367 -125.146637 
L 162.673652 -111.181818 
L 168.353938 -103.227996 
L 174.034223 -108.378589 
L 179.714508 -116.293152 
L 185.394794 -120.251943 
L 191.075079 -120.889474 
L 196.755365 -122.567314 
L 202.43565 -121.293975 
L 208.115936 -132.560086 
L 213.796221 -138.829744 
L 219.476506 -137.529118 
L 225.156792 -142.775432 
L 230.837077 -149.768689 
L 236.517363 -156.672582 
L 242.197648 -153.939073 
L 247.877933 -144.935417 
L 253.558219 -144.879222 
L 259.238504 -136.85388 
L 264.91879 -116.97338 
L 270.599075 -100.520214 
L 276.27936 -88.232385 
L 281.959646 -97.560425 
L 287.639931 -104.202491 
L 293.320217 -117.95806 
L 299.000502 -111.45293 
L 304.680788 -111.45018 
L 310.361073 -112.793325 
L 316.041358 -118.098749 
L 321.721644 -119.509868 
L 327.401929 -118.929387 
L 333.082215 -116.078937 
L 338.7625 -124.216353 
L 344.442785 -121.742073 
L 350.123071 -107.152357 
L 355.803356 -80.335486 
L 361.483642 -70.395455 
L 367.163927 -86.374749 
L 372.844212 -116.357348 
L 378.524498 -143.016115 
L 384.204783 -150.481899 
L 389.885069 -147.752188 
L 395.565354 -144.502149 
L 401.24564 -128.044325 
L 406.925925 -118.292423 
L 412.60621 -107.038903 
L 418.286496 -94.623346 
L 423.966781 -89.410178 
L 429.647067 -104.13535 
L 435.327352 -115.739316 
L 441.007637 -120.406225 
L 446.687923 -121.557219 
L 452.368208 -122.863262 
L 458.048494 -122.394944 
L 463.728779 -123.490886 
L 469.409064 -120.763882 
L 475.08935 -122.303834 
L 480.769635 -121.574113 
L 486.449921 -124.057698 
L 492.130206 -121.893453 
L 497.810492 -125.297867 
L 503.490777 -120.296387 
L 509.171062 -119.02357 
L 514.851348 -120.75281 
L 520.531633 -118.844397 
L 526.211919 -122.561041 
L 531.892204 -121.887978 
L 537.572489 -120.664888 
L 543.252775 -119.561317 
L 548.93306 -120.951779 
L 554.613346 -119.814408 
L 560.293631 -121.934813 
L 565.973916 -121.610291 
L 571.654202 -124.268479 
L 577.334487 -121.869423 
L 583.014773 -120.629676 
L 583.014773 -123.725313 
L 583.014773 -123.725313 
L 577.334487 -124.840668 
L 571.654202 -127.68527 
L 565.973916 -124.782447 
L 560.293631 -125.006182 
L 554.613346 -122.720142 
L 548.93306 -124.174537 
L 543.252775 -122.918501 
L 537.572489 -123.558778 
L 531.892204 -124.979222 
L 526.211919 -125.626346 
L 520.531633 -122.040171 
L 514.851348 -123.687258 
L 509.171062 -122.334343 
L 503.490777 -123.595252 
L 497.810492 -128.569801 
L 492.130206 -124.971849 
L 486.449921 -127.027781 
L 480.769635 -124.663976 
L 475.08935 -125.266522 
L 469.409064 -124.004465 
L 463.728779 -126.40487 
L 458.048494 -125.606316 
L 452.368208 -126.09054 
L 446.687923 -125.55509 
L 441.007637 -124.643109 
L 435.327352 -120.33682 
L 429.647067 -110.012795 
L 423.966781 -96.417218 
L 418.286496 -101.792482 
L 412.60621 -112.749241 
L 406.925925 -124.599887 
L 401.24564 -135.772877 
L 395.565354 -151.968941 
L 389.885069 -155.180284 
L 384.204783 -156.709557 
L 378.524498 -149.166835 
L 372.844212 -123.169242 
L 367.163927 -94.495687 
L 361.483642 -79.128272 
L 355.803356 -88.584912 
L 350.123071 -114.590365 
L 344.442785 -128.454811 
L 338.7625 -131.210617 
L 333.082215 -122.31503 
L 327.401929 -124.519448 
L 321.721644 -125.036086 
L 316.041358 -124.689604 
L 310.361073 -119.259743 
L 304.680788 -118.531253 
L 299.000502 -117.841738 
L 293.320217 -123.571241 
L 287.639931 -109.598049 
L 281.959646 -104.618869 
L 276.27936 -95.393036 
L 270.599075 -107.913513 
L 264.91879 -123.237701 
L 259.238504 -143.451352 
L 253.558219 -152.039928 
L 247.877933 -151.44827 
L 242.197648 -159.888896 
L 236.517363 -163.393667 
L 230.837077 -156.182175 
L 225.156792 -150.512225 
L 219.476506 -144.877233 
L 213.796221 -144.117969 
L 208.115936 -138.573266 
L 202.43565 -128.127773 
L 196.755365 -128.951587 
L 191.075079 -126.508057 
L 185.394794 -125.88517 
L 179.714508 -121.611237 
L 174.034223 -113.455201 
L 168.353938 -108.7711 
L 162.673652 -117.205623 
L 156.993367 -130.085158 
L 151.313081 -135.200637 
L 145.632796 -127.334704 
L 139.952511 -125.696062 
L 134.272225 -126.965151 
L 128.59194 -126.804368 
L 122.911654 -129.66093 
L 117.231369 -126.245878 
L 111.551084 -123.910991 
L 105.870798 -127.716023 
L 100.190513 -127.59729 
L 94.510227 -123.633877 
z
" style="stroke: #6060eb; stroke-opacity: 0.1"/>
    </defs>
    <g clip-path="url(#pf4d4014e22)">
     <use xlink:href="#m47c29bb224" x="0" y="432" style="fill: #6060eb; fill-opacity: 0.1; stroke: #6060eb; stroke-opacity: 0.1"/>
    </g>
   </g>
   <g id="PolyCollection_2">
    <defs>
     <path id="m3281153dae" d="M 94.510227 -124.05749 
L 94.510227 -123.342442 
L 100.190513 -123.316447 
L 105.870798 -123.272234 
L 111.551084 -122.744177 
L 117.231369 -123.652889 
L 122.911654 -123.029439 
L 128.59194 -122.302762 
L 134.272225 -122.890225 
L 139.952511 -122.72286 
L 145.632796 -122.982935 
L 151.313081 -124.580726 
L 156.993367 -125.323314 
L 162.673652 -121.874145 
L 168.353938 -123.036035 
L 174.034223 -126.409444 
L 179.714508 -128.794274 
L 185.394794 -127.174858 
L 191.075079 -124.45776 
L 196.755365 -123.900412 
L 202.43565 -124.902986 
L 208.115936 -126.946559 
L 213.796221 -129.368368 
L 219.476506 -130.941741 
L 225.156792 -131.432955 
L 230.837077 -129.327841 
L 236.517363 -125.876545 
L 242.197648 -124.990756 
L 247.877933 -126.927336 
L 253.558219 -129.279612 
L 259.238504 -132.122202 
L 264.91879 -131.382449 
L 270.599075 -130.172735 
L 276.27936 -128.676352 
L 281.959646 -128.513587 
L 287.639931 -129.937479 
L 293.320217 -130.81585 
L 299.000502 -130.104961 
L 304.680788 -129.669671 
L 310.361073 -131.070746 
L 316.041358 -128.885724 
L 321.721644 -124.852267 
L 327.401929 -125.491879 
L 333.082215 -131.046982 
L 338.7625 -131.085758 
L 344.442785 -130.081589 
L 350.123071 -128.474439 
L 355.803356 -130.313015 
L 361.483642 -134.269659 
L 367.163927 -135.77824 
L 372.844212 -133.18903 
L 378.524498 -129.373799 
L 384.204783 -128.344261 
L 389.885069 -131.44836 
L 395.565354 -132.861625 
L 401.24564 -130.431082 
L 406.925925 -127.680793 
L 412.60621 -125.982805 
L 418.286496 -126.190599 
L 423.966781 -126.604634 
L 429.647067 -126.217761 
L 435.327352 -123.103788 
L 441.007637 -122.699827 
L 446.687923 -122.762108 
L 452.368208 -123.224419 
L 458.048494 -123.529985 
L 463.728779 -122.84115 
L 469.409064 -123.702712 
L 475.08935 -123.468665 
L 480.769635 -123.108651 
L 486.449921 -123.16463 
L 492.130206 -123.309404 
L 497.810492 -123.117549 
L 503.490777 -122.407396 
L 509.171062 -123.094832 
L 514.851348 -123.423441 
L 520.531633 -123.23022 
L 526.211919 -122.743702 
L 531.892204 -123.088779 
L 537.572489 -122.691466 
L 543.252775 -122.208734 
L 548.93306 -122.937522 
L 554.613346 -123.344593 
L 560.293631 -123.127245 
L 565.973916 -122.771052 
L 571.654202 -123.02103 
L 577.334487 -123.199863 
L 583.014773 -122.994536 
L 583.014773 -123.719254 
L 583.014773 -123.719254 
L 577.334487 -123.938043 
L 571.654202 -123.703621 
L 565.973916 -123.407545 
L 560.293631 -123.78318 
L 554.613346 -123.999442 
L 548.93306 -123.59676 
L 543.252775 -122.977482 
L 537.572489 -123.329652 
L 531.892204 -123.776636 
L 526.211919 -123.406395 
L 520.531633 -123.837029 
L 514.851348 -124.06595 
L 509.171062 -123.752128 
L 503.490777 -123.103821 
L 497.810492 -123.792063 
L 492.130206 -124.046296 
L 486.449921 -123.907315 
L 480.769635 -123.792923 
L 475.08935 -124.08277 
L 469.409064 -124.4126 
L 463.728779 -123.422242 
L 458.048494 -124.215425 
L 452.368208 -123.987457 
L 446.687923 -123.589555 
L 441.007637 -123.486101 
L 435.327352 -123.9834 
L 429.647067 -127.526871 
L 423.966781 -128.010896 
L 418.286496 -127.579738 
L 412.60621 -127.384926 
L 406.925925 -129.142216 
L 401.24564 -131.969654 
L 395.565354 -134.373044 
L 389.885069 -132.765784 
L 384.204783 -129.719325 
L 378.524498 -130.565809 
L 372.844212 -134.546729 
L 367.163927 -137.463778 
L 361.483642 -135.772684 
L 355.803356 -131.6391 
L 350.123071 -130.052192 
L 344.442785 -131.624635 
L 338.7625 -132.569399 
L 333.082215 -132.534167 
L 327.401929 -127.048377 
L 321.721644 -126.286864 
L 316.041358 -130.126936 
L 310.361073 -132.226903 
L 304.680788 -130.987274 
L 299.000502 -131.529298 
L 293.320217 -132.159534 
L 287.639931 -131.225178 
L 281.959646 -129.961362 
L 276.27936 -130.293854 
L 270.599075 -131.842822 
L 264.91879 -132.922759 
L 259.238504 -133.44603 
L 253.558219 -130.55924 
L 247.877933 -128.262221 
L 242.197648 -126.484706 
L 236.517363 -127.201808 
L 230.837077 -130.763514 
L 225.156792 -132.889608 
L 219.476506 -132.23665 
L 213.796221 -130.690931 
L 208.115936 -128.172394 
L 202.43565 -126.20226 
L 196.755365 -125.397959 
L 191.075079 -125.916243 
L 185.394794 -128.554691 
L 179.714508 -130.276714 
L 174.034223 -127.965987 
L 168.353938 -124.776855 
L 162.673652 -123.564308 
L 156.993367 -126.772006 
L 151.313081 -125.800132 
L 145.632796 -123.76077 
L 139.952511 -123.563916 
L 134.272225 -123.774676 
L 128.59194 -123.096479 
L 122.911654 -123.787716 
L 117.231369 -124.478556 
L 111.551084 -123.619986 
L 105.870798 -124.040871 
L 100.190513 -124.175528 
L 94.510227 -124.05749 
z
" style="stroke: #6060eb; stroke-opacity: 0.1"/>
    </defs>
    <g clip-path="url(#pf4d4014e22)">
     <use xlink:href="#m3281153dae" x="0" y="432" style="fill: #6060eb; fill-opacity: 0.1; stroke: #6060eb; stroke-opacity: 0.1"/>
    </g>
   </g>
   <g id="PathCollection_1">
    <defs>
     <path id="m7cd1ce3007" d="M 0 -3 
L -0.673542 -0.927051 
L -2.85317 -0.927051 
L -1.089814 0.354102 
L -1.763356 2.427051 
L -0 1.145898 
L 1.763356 2.427051 
L 1.089814 0.354102 
L 2.85317 -0.927051 
L 0.673542 -0.927051 
z
" style="stroke: #6060eb"/>
    </defs>
    <g clip-path="url(#pf4d4014e22)">
     <use xlink:href="#m7cd1ce3007" x="213.796221" y="315.058554" style="fill: #6060eb; stroke: #6060eb"/>
     <use xlink:href="#m7cd1ce3007" x="225.156792" y="315.058554" style="fill: #6060eb; stroke: #6060eb"/>
     <use xlink:href="#m7cd1ce3007" x="230.837077" y="315.058554" style="fill: #6060eb; stroke: #6060eb"/>
     <use xlink:href="#m7cd1ce3007" x="236.517363" y="315.058554" style="fill: #6060eb; stroke: #6060eb"/>
     <use xlink:href="#m7cd1ce3007" x="242.197648" y="315.058554" style="fill: #6060eb; stroke: #6060eb"/>
     <use xlink:href="#m7cd1ce3007" x="247.877933" y="315.058554" style="fill: #6060eb; stroke: #6060eb"/>
     <use xlink:href="#m7cd1ce3007" x="253.558219" y="315.058554" style="fill: #6060eb; stroke: #6060eb"/>
     <use xlink:href="#m7cd1ce3007" x="378.524498" y="315.058554" style="fill: #6060eb; stroke: #6060eb"/>
     <use xlink:href="#m7cd1ce3007" x="384.204783" y="315.058554" style="fill: #6060eb; stroke: #6060eb"/>
     <use xlink:href="#m7cd1ce3007" x="389.885069" y="315.058554" style="fill: #6060eb; stroke: #6060eb"/>
     <use xlink:href="#m7cd1ce3007" x="395.565354" y="315.058554" style="fill: #6060eb; stroke: #6060eb"/>
    </g>
   </g>
   <g id="PolyCollection_3">
    <defs>
     <path id="m7248e6e2f1" d="M 94.510227 -132.887373 
L 94.510227 -121.374399 
L 100.190513 -122.757382 
L 105.870798 -126.875863 
L 111.551084 -124.199955 
L 117.231369 -122.280901 
L 122.911654 -126.730123 
L 128.59194 -132.795264 
L 134.272225 -136.427667 
L 139.952511 -132.651765 
L 145.632796 -134.622206 
L 151.313081 -139.188137 
L 156.993367 -144.234597 
L 162.673652 -149.980205 
L 168.353938 -149.218693 
L 174.034223 -150.140287 
L 179.714508 -142.958291 
L 185.394794 -140.684792 
L 191.075079 -140.626952 
L 196.755365 -141.14672 
L 202.43565 -139.333015 
L 208.115936 -137.208852 
L 213.796221 -136.426052 
L 219.476506 -139.720726 
L 225.156792 -139.603557 
L 230.837077 -141.798552 
L 236.517363 -140.625881 
L 242.197648 -144.611629 
L 247.877933 -145.063133 
L 253.558219 -149.494337 
L 259.238504 -154.487427 
L 264.91879 -159.83831 
L 270.599075 -166.758547 
L 276.27936 -172.360091 
L 281.959646 -178.323224 
L 287.639931 -180.767914 
L 293.320217 -188.972077 
L 299.000502 -196.043671 
L 304.680788 -202.916841 
L 310.361073 -208.770383 
L 316.041358 -213.502552 
L 321.721644 -219.475448 
L 327.401929 -225.876968 
L 333.082215 -228.513151 
L 338.7625 -235.298643 
L 344.442785 -238.710645 
L 350.123071 -244.175987 
L 355.803356 -251.454023 
L 361.483642 -255.510284 
L 367.163927 -259.617719 
L 372.844212 -264.767267 
L 378.524498 -268.344226 
L 384.204783 -273.817299 
L 389.885069 -280.269163 
L 395.565354 -284.557946 
L 401.24564 -289.492418 
L 406.925925 -293.422914 
L 412.60621 -295.528355 
L 418.286496 -298.939693 
L 423.966781 -302.500193 
L 429.647067 -304.634338 
L 435.327352 -306.602429 
L 441.007637 -307.074076 
L 446.687923 -308.45097 
L 452.368208 -309.143832 
L 458.048494 -311.827408 
L 463.728779 -311.733427 
L 469.409064 -313.422848 
L 475.08935 -314.597471 
L 480.769635 -316.313104 
L 486.449921 -319.422274 
L 492.130206 -318.833616 
L 497.810492 -319.856107 
L 503.490777 -321.154211 
L 509.171062 -322.852006 
L 514.851348 -322.132534 
L 520.531633 -323.890799 
L 526.211919 -326.444199 
L 531.892204 -325.581258 
L 537.572489 -324.702549 
L 543.252775 -325.45704 
L 548.93306 -321.592667 
L 554.613346 -322.131203 
L 560.293631 -320.153719 
L 565.973916 -319.013052 
L 571.654202 -317.190174 
L 577.334487 -314.254419 
L 583.014773 -312.147268 
L 583.014773 -376.97701 
L 583.014773 -376.97701 
L 577.334487 -379.064745 
L 571.654202 -382.011866 
L 565.973916 -383.268945 
L 560.293631 -384.456459 
L 554.613346 -386.433049 
L 548.93306 -385.734543 
L 543.252775 -389.104545 
L 537.572489 -388.239136 
L 531.892204 -388.095887 
L 526.211919 -388.59607 
L 520.531633 -385.475008 
L 514.851348 -382.710411 
L 509.171062 -382.807343 
L 503.490777 -380.560237 
L 497.810492 -378.308454 
L 492.130206 -376.042891 
L 486.449921 -375.419391 
L 480.769635 -370.984958 
L 475.08935 -367.84898 
L 469.409064 -365.237731 
L 463.728779 -361.889 
L 458.048494 -360.599826 
L 452.368208 -356.798761 
L 446.687923 -355.290903 
L 441.007637 -353.866513 
L 435.327352 -353.659088 
L 429.647067 -350.99036 
L 423.966781 -348.031836 
L 418.286496 -343.612049 
L 412.60621 -339.602251 
L 406.925925 -336.377885 
L 401.24564 -331.188437 
L 395.565354 -325.153589 
L 389.885069 -319.941702 
L 384.204783 -312.455115 
L 378.524498 -306.240104 
L 372.844212 -302.102902 
L 367.163927 -295.268797 
L 361.483642 -289.64874 
L 355.803356 -283.927814 
L 350.123071 -275.3352 
L 344.442785 -268.486692 
L 338.7625 -263.819053 
L 333.082215 -255.821603 
L 327.401929 -251.368753 
L 321.721644 -244.02806 
L 316.041358 -236.690632 
L 310.361073 -230.465491 
L 304.680788 -223.18587 
L 299.000502 -214.900091 
L 293.320217 -206.094513 
L 287.639931 -196.659771 
L 281.959646 -192.876979 
L 276.27936 -185.861198 
L 270.599075 -178.642651 
L 264.91879 -170.357279 
L 259.238504 -164.079225 
L 253.558219 -158.146518 
L 247.877933 -153.161443 
L 242.197648 -152.451431 
L 236.517363 -148.128244 
L 230.837077 -149.003541 
L 225.156792 -147.353805 
L 219.476506 -147.575259 
L 213.796221 -144.661787 
L 208.115936 -145.501806 
L 202.43565 -147.336084 
L 196.755365 -148.970441 
L 191.075079 -148.708872 
L 185.394794 -149.654719 
L 179.714508 -153.509523 
L 174.034223 -161.056041 
L 168.353938 -160.423029 
L 162.673652 -162.526707 
L 156.993367 -157.801213 
L 151.313081 -152.786439 
L 145.632796 -148.847276 
L 139.952511 -147.72503 
L 134.272225 -152.430507 
L 128.59194 -150.299765 
L 122.911654 -145.076974 
L 117.231369 -139.681164 
L 111.551084 -140.110577 
L 105.870798 -140.449255 
L 100.190513 -136.94781 
L 94.510227 -132.887373 
z
" style="stroke: #00008b; stroke-opacity: 0.1"/>
    </defs>
    <g clip-path="url(#pf4d4014e22)">
     <use xlink:href="#m7248e6e2f1" x="0" y="432" style="fill: #00008b; fill-opacity: 0.1; stroke: #00008b; stroke-opacity: 0.1"/>
    </g>
   </g>
   <g id="PolyCollection_4">
    <defs>
     <path id="md8e56888d5" d="M 94.510227 -125.351057 
L 94.510227 -122.987716 
L 100.190513 -124.849556 
L 105.870798 -128.170592 
L 111.551084 -129.043023 
L 117.231369 -132.041299 
L 122.911654 -136.414729 
L 128.59194 -138.769676 
L 134.272225 -140.888631 
L 139.952511 -141.232287 
L 145.632796 -144.478544 
L 151.313081 -147.323574 
L 156.993367 -150.193428 
L 162.673652 -152.369985 
L 168.353938 -152.51527 
L 174.034223 -151.618693 
L 179.714508 -150.310944 
L 185.394794 -147.214901 
L 191.075079 -145.331319 
L 196.755365 -143.035329 
L 202.43565 -141.770181 
L 208.115936 -139.769671 
L 213.796221 -139.392479 
L 219.476506 -138.575724 
L 225.156792 -137.927292 
L 230.837077 -137.30981 
L 236.517363 -136.894108 
L 242.197648 -136.721039 
L 247.877933 -136.48205 
L 253.558219 -136.136589 
L 259.238504 -136.032568 
L 264.91879 -135.846428 
L 270.599075 -135.248394 
L 276.27936 -135.370629 
L 281.959646 -135.313441 
L 287.639931 -135.286782 
L 293.320217 -135.321884 
L 299.000502 -136.020339 
L 304.680788 -135.930174 
L 310.361073 -136.858998 
L 316.041358 -136.572126 
L 321.721644 -136.352606 
L 327.401929 -136.864969 
L 333.082215 -136.873078 
L 338.7625 -136.433589 
L 344.442785 -136.067598 
L 350.123071 -136.733693 
L 355.803356 -136.664127 
L 361.483642 -137.132266 
L 367.163927 -136.83341 
L 372.844212 -136.815126 
L 378.524498 -136.357232 
L 384.204783 -136.367852 
L 389.885069 -136.366568 
L 395.565354 -136.764371 
L 401.24564 -137.188102 
L 406.925925 -136.416341 
L 412.60621 -136.384193 
L 418.286496 -135.773526 
L 423.966781 -134.98522 
L 429.647067 -134.571885 
L 435.327352 -134.011547 
L 441.007637 -133.61597 
L 446.687923 -133.247656 
L 452.368208 -132.855436 
L 458.048494 -132.769558 
L 463.728779 -132.551888 
L 469.409064 -132.553876 
L 475.08935 -132.471614 
L 480.769635 -132.127521 
L 486.449921 -131.684457 
L 492.130206 -131.43382 
L 497.810492 -130.684416 
L 503.490777 -130.475557 
L 509.171062 -130.632132 
L 514.851348 -130.274289 
L 520.531633 -130.097431 
L 526.211919 -129.94437 
L 531.892204 -129.855375 
L 537.572489 -129.960871 
L 543.252775 -130.953536 
L 548.93306 -130.612097 
L 554.613346 -130.549962 
L 560.293631 -130.618988 
L 565.973916 -130.042628 
L 571.654202 -129.736935 
L 577.334487 -129.599206 
L 583.014773 -129.261157 
L 583.014773 -131.837029 
L 583.014773 -131.837029 
L 577.334487 -132.303242 
L 571.654202 -132.473334 
L 565.973916 -132.797237 
L 560.293631 -133.366092 
L 554.613346 -133.253197 
L 548.93306 -133.361711 
L 543.252775 -133.647209 
L 537.572489 -132.67033 
L 531.892204 -132.589209 
L 526.211919 -132.670022 
L 520.531633 -132.80647 
L 514.851348 -132.838263 
L 509.171062 -133.182975 
L 503.490777 -132.974849 
L 497.810492 -133.063506 
L 492.130206 -133.885981 
L 486.449921 -134.115443 
L 480.769635 -134.557855 
L 475.08935 -135.025279 
L 469.409064 -135.079159 
L 463.728779 -135.051922 
L 458.048494 -135.353815 
L 452.368208 -135.419309 
L 446.687923 -135.815427 
L 441.007637 -136.265892 
L 435.327352 -136.730697 
L 429.647067 -137.296912 
L 423.966781 -137.732409 
L 418.286496 -138.525288 
L 412.60621 -139.087383 
L 406.925925 -139.131811 
L 401.24564 -139.943657 
L 395.565354 -139.442078 
L 389.885069 -138.987435 
L 384.204783 -138.984036 
L 378.524498 -138.992313 
L 372.844212 -139.453492 
L 367.163927 -139.534491 
L 361.483642 -139.866675 
L 355.803356 -139.296115 
L 350.123071 -139.273978 
L 344.442785 -138.558592 
L 338.7625 -138.933146 
L 333.082215 -139.472153 
L 327.401929 -139.439103 
L 321.721644 -138.868199 
L 316.041358 -139.072835 
L 310.361073 -139.436658 
L 304.680788 -138.471989 
L 299.000502 -138.4808 
L 293.320217 -137.686891 
L 287.639931 -137.612218 
L 281.959646 -137.558625 
L 276.27936 -137.698789 
L 270.599075 -137.495758 
L 264.91879 -137.94373 
L 259.238504 -138.06075 
L 253.558219 -138.164688 
L 247.877933 -138.491416 
L 242.197648 -138.763534 
L 236.517363 -138.877453 
L 230.837077 -139.29812 
L 225.156792 -139.812119 
L 219.476506 -140.660878 
L 213.796221 -141.417089 
L 208.115936 -141.901997 
L 202.43565 -144.072137 
L 196.755365 -145.548447 
L 191.075079 -148.314155 
L 185.394794 -150.59512 
L 179.714508 -154.267036 
L 174.034223 -155.900421 
L 168.353938 -157.135109 
L 162.673652 -157.127731 
L 156.993367 -154.88368 
L 151.313081 -152.074191 
L 145.632796 -148.908367 
L 139.952511 -145.379584 
L 134.272225 -145.449886 
L 128.59194 -143.044098 
L 122.911654 -140.68354 
L 117.231369 -135.900027 
L 111.551084 -132.421339 
L 105.870798 -131.490773 
L 100.190513 -128.30978 
L 94.510227 -125.351057 
z
" style="stroke: #00008b; stroke-opacity: 0.1"/>
    </defs>
    <g clip-path="url(#pf4d4014e22)">
     <use xlink:href="#md8e56888d5" x="0" y="432" style="fill: #00008b; fill-opacity: 0.1; stroke: #00008b; stroke-opacity: 0.1"/>
    </g>
   </g>
   <g id="PathCollection_2">
    <defs>
     <path id="mc616d5e2c3" d="M 0 -3 
L -0.673542 -0.927051 
L -2.85317 -0.927051 
L -1.089814 0.354102 
L -1.763356 2.427051 
L -0 1.145898 
L 1.763356 2.427051 
L 1.089814 0.354102 
L 2.85317 -0.927051 
L 0.673542 -0.927051 
z
" style="stroke: #00008b"/>
    </defs>
    <g clip-path="url(#pf4d4014e22)">
     <use xlink:href="#mc616d5e2c3" x="253.558219" y="321.381617" style="fill: #00008b; stroke: #00008b"/>
     <use xlink:href="#mc616d5e2c3" x="259.238504" y="321.381617" style="fill: #00008b; stroke: #00008b"/>
     <use xlink:href="#mc616d5e2c3" x="264.91879" y="321.381617" style="fill: #00008b; stroke: #00008b"/>
     <use xlink:href="#mc616d5e2c3" x="270.599075" y="321.381617" style="fill: #00008b; stroke: #00008b"/>
     <use xlink:href="#mc616d5e2c3" x="276.27936" y="321.381617" style="fill: #00008b; stroke: #00008b"/>
     <use xlink:href="#mc616d5e2c3" x="281.959646" y="321.381617" style="fill: #00008b; stroke: #00008b"/>
     <use xlink:href="#mc616d5e2c3" x="287.639931" y="321.381617" style="fill: #00008b; stroke: #00008b"/>
     <use xlink:href="#mc616d5e2c3" x="293.320217" y="321.381617" style="fill: #00008b; stroke: #00008b"/>
     <use xlink:href="#mc616d5e2c3" x="299.000502" y="321.381617" style="fill: #00008b; stroke: #00008b"/>
     <use xlink:href="#mc616d5e2c3" x="304.680788" y="321.381617" style="fill: #00008b; stroke: #00008b"/>
     <use xlink:href="#mc616d5e2c3" x="310.361073" y="321.381617" style="fill: #00008b; stroke: #00008b"/>
     <use xlink:href="#mc616d5e2c3" x="316.041358" y="321.381617" style="fill: #00008b; stroke: #00008b"/>
     <use xlink:href="#mc616d5e2c3" x="321.721644" y="321.381617" style="fill: #00008b; stroke: #00008b"/>
     <use xlink:href="#mc616d5e2c3" x="327.401929" y="321.381617" style="fill: #00008b; stroke: #00008b"/>
     <use xlink:href="#mc616d5e2c3" x="333.082215" y="321.381617" style="fill: #00008b; stroke: #00008b"/>
     <use xlink:href="#mc616d5e2c3" x="338.7625" y="321.381617" style="fill: #00008b; stroke: #00008b"/>
     <use xlink:href="#mc616d5e2c3" x="344.442785" y="321.381617" style="fill: #00008b; stroke: #00008b"/>
     <use xlink:href="#mc616d5e2c3" x="350.123071" y="321.381617" style="fill: #00008b; stroke: #00008b"/>
     <use xlink:href="#mc616d5e2c3" x="355.803356" y="321.381617" style="fill: #00008b; stroke: #00008b"/>
     <use xlink:href="#mc616d5e2c3" x="361.483642" y="321.381617" style="fill: #00008b; stroke: #00008b"/>
     <use xlink:href="#mc616d5e2c3" x="367.163927" y="321.381617" style="fill: #00008b; stroke: #00008b"/>
     <use xlink:href="#mc616d5e2c3" x="372.844212" y="321.381617" style="fill: #00008b; stroke: #00008b"/>
     <use xlink:href="#mc616d5e2c3" x="378.524498" y="321.381617" style="fill: #00008b; stroke: #00008b"/>
     <use xlink:href="#mc616d5e2c3" x="384.204783" y="321.381617" style="fill: #00008b; stroke: #00008b"/>
     <use xlink:href="#mc616d5e2c3" x="389.885069" y="321.381617" style="fill: #00008b; stroke: #00008b"/>
     <use xlink:href="#mc616d5e2c3" x="395.565354" y="321.381617" style="fill: #00008b; stroke: #00008b"/>
     <use xlink:href="#mc616d5e2c3" x="401.24564" y="321.381617" style="fill: #00008b; stroke: #00008b"/>
     <use xlink:href="#mc616d5e2c3" x="406.925925" y="321.381617" style="fill: #00008b; stroke: #00008b"/>
     <use xlink:href="#mc616d5e2c3" x="412.60621" y="321.381617" style="fill: #00008b; stroke: #00008b"/>
     <use xlink:href="#mc616d5e2c3" x="418.286496" y="321.381617" style="fill: #00008b; stroke: #00008b"/>
     <use xlink:href="#mc616d5e2c3" x="423.966781" y="321.381617" style="fill: #00008b; stroke: #00008b"/>
     <use xlink:href="#mc616d5e2c3" x="429.647067" y="321.381617" style="fill: #00008b; stroke: #00008b"/>
     <use xlink:href="#mc616d5e2c3" x="435.327352" y="321.381617" style="fill: #00008b; stroke: #00008b"/>
     <use xlink:href="#mc616d5e2c3" x="441.007637" y="321.381617" style="fill: #00008b; stroke: #00008b"/>
     <use xlink:href="#mc616d5e2c3" x="446.687923" y="321.381617" style="fill: #00008b; stroke: #00008b"/>
     <use xlink:href="#mc616d5e2c3" x="452.368208" y="321.381617" style="fill: #00008b; stroke: #00008b"/>
     <use xlink:href="#mc616d5e2c3" x="458.048494" y="321.381617" style="fill: #00008b; stroke: #00008b"/>
     <use xlink:href="#mc616d5e2c3" x="463.728779" y="321.381617" style="fill: #00008b; stroke: #00008b"/>
     <use xlink:href="#mc616d5e2c3" x="469.409064" y="321.381617" style="fill: #00008b; stroke: #00008b"/>
     <use xlink:href="#mc616d5e2c3" x="475.08935" y="321.381617" style="fill: #00008b; stroke: #00008b"/>
     <use xlink:href="#mc616d5e2c3" x="480.769635" y="321.381617" style="fill: #00008b; stroke: #00008b"/>
     <use xlink:href="#mc616d5e2c3" x="486.449921" y="321.381617" style="fill: #00008b; stroke: #00008b"/>
     <use xlink:href="#mc616d5e2c3" x="492.130206" y="321.381617" style="fill: #00008b; stroke: #00008b"/>
     <use xlink:href="#mc616d5e2c3" x="497.810492" y="321.381617" style="fill: #00008b; stroke: #00008b"/>
     <use xlink:href="#mc616d5e2c3" x="503.490777" y="321.381617" style="fill: #00008b; stroke: #00008b"/>
     <use xlink:href="#mc616d5e2c3" x="509.171062" y="321.381617" style="fill: #00008b; stroke: #00008b"/>
     <use xlink:href="#mc616d5e2c3" x="514.851348" y="321.381617" style="fill: #00008b; stroke: #00008b"/>
     <use xlink:href="#mc616d5e2c3" x="520.531633" y="321.381617" style="fill: #00008b; stroke: #00008b"/>
     <use xlink:href="#mc616d5e2c3" x="526.211919" y="321.381617" style="fill: #00008b; stroke: #00008b"/>
     <use xlink:href="#mc616d5e2c3" x="531.892204" y="321.381617" style="fill: #00008b; stroke: #00008b"/>
     <use xlink:href="#mc616d5e2c3" x="537.572489" y="321.381617" style="fill: #00008b; stroke: #00008b"/>
     <use xlink:href="#mc616d5e2c3" x="543.252775" y="321.381617" style="fill: #00008b; stroke: #00008b"/>
     <use xlink:href="#mc616d5e2c3" x="548.93306" y="321.381617" style="fill: #00008b; stroke: #00008b"/>
     <use xlink:href="#mc616d5e2c3" x="554.613346" y="321.381617" style="fill: #00008b; stroke: #00008b"/>
     <use xlink:href="#mc616d5e2c3" x="560.293631" y="321.381617" style="fill: #00008b; stroke: #00008b"/>
     <use xlink:href="#mc616d5e2c3" x="565.973916" y="321.381617" style="fill: #00008b; stroke: #00008b"/>
     <use xlink:href="#mc616d5e2c3" x="571.654202" y="321.381617" style="fill: #00008b; stroke: #00008b"/>
     <use xlink:href="#mc616d5e2c3" x="577.334487" y="321.381617" style="fill: #00008b; stroke: #00008b"/>
     <use xlink:href="#mc616d5e2c3" x="583.014773" y="321.381617" style="fill: #00008b; stroke: #00008b"/>
    </g>
   </g>
   <g id="line2d_1">
    <path d="M 94.510227 309.840793 
L 100.190513 306.408881 
L 105.870798 306.098635 
L 111.551084 310.050962 
L 117.231369 307.571056 
L 122.911654 304.080309 
L 128.59194 306.945982 
L 134.272225 306.899916 
L 139.952511 308.129815 
L 145.632796 306.413543 
L 151.313081 299.511419 
L 156.993367 304.384103 
L 162.673652 317.80628 
L 168.353938 326.000452 
L 174.034223 321.083105 
L 179.714508 313.047805 
L 185.394794 308.931444 
L 191.075079 308.301234 
L 196.755365 306.240549 
L 202.43565 307.289126 
L 208.115936 296.433324 
L 213.796221 290.526144 
L 219.476506 290.796824 
L 225.156792 285.356171 
L 230.837077 279.024568 
L 236.517363 271.966876 
L 242.197648 275.086015 
L 247.877933 283.808157 
L 253.558219 283.540425 
L 259.238504 291.847384 
L 264.91879 311.894459 
L 270.599075 327.783136 
L 276.27936 340.18729 
L 281.959646 330.910353 
L 287.639931 325.09973 
L 293.320217 311.23535 
L 299.000502 317.352666 
L 304.680788 317.009283 
L 310.361073 315.973466 
L 316.041358 310.605824 
L 321.721644 309.727023 
L 327.401929 310.275582 
L 333.082215 312.803016 
L 338.7625 304.286515 
L 344.442785 306.901558 
L 350.123071 321.128639 
L 355.803356 347.539801 
L 361.483642 357.238137 
L 367.163927 341.564782 
L 372.844212 312.236705 
L 378.524498 285.908525 
L 384.204783 278.404272 
L 389.885069 280.533764 
L 395.565354 283.764455 
L 401.24564 300.091399 
L 406.925925 310.553845 
L 412.60621 322.105928 
L 418.286496 333.792086 
L 423.966781 339.086302 
L 429.647067 324.925927 
L 435.327352 313.961932 
L 441.007637 309.475333 
L 446.687923 308.443845 
L 452.368208 307.523099 
L 458.048494 307.99937 
L 463.728779 307.052122 
L 469.409064 309.615827 
L 475.08935 308.214822 
L 480.769635 308.880956 
L 486.449921 306.45726 
L 492.130206 308.567349 
L 497.810492 305.066166 
L 503.490777 310.054181 
L 509.171062 311.321043 
L 514.851348 309.779966 
L 520.531633 311.557716 
L 526.211919 307.906306 
L 531.892204 308.5664 
L 537.572489 309.888167 
L 543.252775 310.760091 
L 548.93306 309.436842 
L 554.613346 310.732725 
L 560.293631 308.529502 
L 565.973916 308.803631 
L 571.654202 306.023125 
L 577.334487 308.644954 
L 583.014773 309.822506 
" clip-path="url(#pf4d4014e22)" style="fill: none; stroke: #6060eb; stroke-width: 2; stroke-linecap: round"/>
   </g>
   <g id="line2d_2">
    <path d="M 94.510227 308.300034 
L 100.190513 308.254012 
L 105.870798 308.343447 
L 111.551084 308.817919 
L 117.231369 307.934278 
L 122.911654 308.591422 
L 128.59194 309.300379 
L 134.272225 308.66755 
L 139.952511 308.856612 
L 145.632796 308.628148 
L 151.313081 306.809571 
L 156.993367 305.95234 
L 162.673652 309.280774 
L 168.353938 308.093555 
L 174.034223 304.812285 
L 179.714508 302.464506 
L 185.394794 304.135226 
L 191.075079 306.812999 
L 196.755365 307.350815 
L 202.43565 306.447377 
L 208.115936 304.440523 
L 213.796221 301.970351 
L 219.476506 300.410804 
L 225.156792 299.838719 
L 230.837077 301.954323 
L 236.517363 305.460823 
L 242.197648 306.262269 
L 247.877933 304.405222 
L 253.558219 302.080574 
L 259.238504 299.215884 
L 264.91879 299.847396 
L 270.599075 300.992221 
L 276.27936 302.514897 
L 281.959646 302.762526 
L 287.639931 301.418672 
L 293.320217 300.512308 
L 299.000502 301.18287 
L 304.680788 301.671527 
L 310.361073 300.351175 
L 316.041358 302.49367 
L 321.721644 306.430435 
L 327.401929 305.729872 
L 333.082215 300.209425 
L 338.7625 300.172421 
L 344.442785 301.146888 
L 350.123071 302.736684 
L 355.803356 301.023943 
L 361.483642 296.978828 
L 367.163927 295.378991 
L 372.844212 298.132121 
L 378.524498 302.030196 
L 384.204783 302.968207 
L 389.885069 299.892928 
L 395.565354 298.382666 
L 401.24564 300.799632 
L 406.925925 303.588496 
L 412.60621 305.316135 
L 418.286496 305.114831 
L 423.966781 304.692235 
L 429.647067 305.127684 
L 435.327352 308.456406 
L 441.007637 308.907036 
L 446.687923 308.824169 
L 452.368208 308.394062 
L 458.048494 308.127295 
L 463.728779 308.868304 
L 469.409064 307.942344 
L 475.08935 308.224282 
L 480.769635 308.549213 
L 486.449921 308.464028 
L 492.130206 308.32215 
L 497.810492 308.545194 
L 503.490777 309.244391 
L 509.171062 308.57652 
L 514.851348 308.255304 
L 520.531633 308.466375 
L 526.211919 308.924952 
L 531.892204 308.567293 
L 537.572489 308.989441 
L 543.252775 309.406892 
L 548.93306 308.732859 
L 554.613346 308.327983 
L 560.293631 308.544787 
L 565.973916 308.910701 
L 571.654202 308.637675 
L 577.334487 308.431047 
L 583.014773 308.643105 
" clip-path="url(#pf4d4014e22)" style="fill: none; stroke-dasharray: 7.4,3.2; stroke-dashoffset: 0; stroke: #6060eb; stroke-width: 2"/>
   </g>
   <g id="line2d_3">
    <path d="M 151.313081 377.54 
L 151.313081 26.96 
" clip-path="url(#pf4d4014e22)" style="fill: none; stroke-dasharray: 5.55,2.4; stroke-dashoffset: 0; stroke: #1a1a1a; stroke-width: 1.5"/>
   </g>
   <g id="line2d_4">
    <path d="M 435.327352 377.54 
L 435.327352 26.96 
" clip-path="url(#pf4d4014e22)" style="fill: none; stroke-dasharray: 5.55,2.4; stroke-dashoffset: 0; stroke: #1a1a1a; stroke-width: 1.5"/>
   </g>
   <g id="line2d_5">
    <path d="M 94.510227 304.869114 
L 100.190513 302.147404 
L 105.870798 298.337441 
L 111.551084 299.844734 
L 117.231369 301.018967 
L 122.911654 296.096452 
L 128.59194 290.452485 
L 134.272225 287.570913 
L 139.952511 291.811603 
L 145.632796 290.265259 
L 151.313081 286.012712 
L 156.993367 280.982095 
L 162.673652 275.746544 
L 168.353938 277.179139 
L 174.034223 276.401836 
L 179.714508 283.766093 
L 185.394794 286.830245 
L 191.075079 287.332088 
L 196.755365 286.94142 
L 202.43565 288.665451 
L 208.115936 290.644671 
L 213.796221 291.456081 
L 219.476506 288.352007 
L 225.156792 288.521319 
L 230.837077 286.598953 
L 236.517363 287.622938 
L 242.197648 283.46847 
L 247.877933 282.887712 
L 253.558219 278.179573 
L 259.238504 272.716674 
L 264.91879 266.902206 
L 270.599075 259.299401 
L 276.27936 252.889356 
L 281.959646 246.399898 
L 287.639931 243.286157 
L 293.320217 234.466705 
L 299.000502 226.528119 
L 304.680788 218.948645 
L 310.361073 212.382063 
L 316.041358 206.903408 
L 321.721644 200.248246 
L 327.401929 193.377139 
L 333.082215 189.832623 
L 338.7625 182.441152 
L 344.442785 178.401332 
L 350.123071 172.244407 
L 355.803356 164.309081 
L 361.483642 159.420488 
L 367.163927 154.556742 
L 372.844212 148.564916 
L 378.524498 144.707835 
L 384.204783 138.863793 
L 389.885069 131.894568 
L 395.565354 127.144233 
L 401.24564 121.659572 
L 406.925925 117.0996 
L 412.60621 114.434697 
L 418.286496 110.724129 
L 423.966781 106.733985 
L 429.647067 104.187651 
L 435.327352 101.869241 
L 441.007637 101.529705 
L 446.687923 100.129064 
L 452.368208 99.028704 
L 458.048494 95.786383 
L 463.728779 95.188787 
L 469.409064 92.669711 
L 475.08935 90.776774 
L 480.769635 88.350969 
L 486.449921 84.579167 
L 492.130206 84.561747 
L 497.810492 82.917719 
L 503.490777 81.142776 
L 509.171062 79.170326 
L 514.851348 79.578528 
L 520.531633 77.317096 
L 526.211919 74.479866 
L 531.892204 75.161428 
L 537.572489 75.529158 
L 543.252775 74.719207 
L 548.93306 78.336395 
L 554.613346 77.717874 
L 560.293631 79.694911 
L 565.973916 80.859001 
L 571.654202 82.39898 
L 577.334487 85.340418 
L 583.014773 87.437861 
" clip-path="url(#pf4d4014e22)" style="fill: none; stroke: #00008b; stroke-width: 2; stroke-linecap: round"/>
   </g>
   <g id="line2d_6">
    <path d="M 94.510227 307.830613 
L 100.190513 305.420332 
L 105.870798 302.169317 
L 111.551084 301.267819 
L 117.231369 298.029337 
L 122.911654 293.450866 
L 128.59194 291.093113 
L 134.272225 288.830742 
L 139.952511 288.694064 
L 145.632796 285.306544 
L 151.313081 282.301118 
L 156.993367 279.461446 
L 162.673652 277.251142 
L 168.353938 277.17481 
L 174.034223 278.240443 
L 179.714508 279.71101 
L 185.394794 283.094989 
L 191.075079 285.177263 
L 196.755365 287.708112 
L 202.43565 289.078841 
L 208.115936 291.164166 
L 213.796221 291.595216 
L 219.476506 292.381699 
L 225.156792 293.130294 
L 230.837077 293.696035 
L 236.517363 294.11422 
L 242.197648 294.257713 
L 247.877933 294.513267 
L 253.558219 294.849361 
L 259.238504 294.953341 
L 264.91879 295.104921 
L 270.599075 295.627924 
L 276.27936 295.465291 
L 281.959646 295.563967 
L 287.639931 295.5505 
L 293.320217 295.495613 
L 299.000502 294.749431 
L 304.680788 294.798918 
L 310.361073 293.852172 
L 316.041358 294.177519 
L 321.721644 294.389597 
L 327.401929 293.847964 
L 333.082215 293.827385 
L 338.7625 294.316633 
L 344.442785 294.686905 
L 350.123071 293.996165 
L 355.803356 294.019879 
L 361.483642 293.50053 
L 367.163927 293.81605 
L 372.844212 293.865691 
L 378.524498 294.325228 
L 384.204783 294.324056 
L 389.885069 294.322998 
L 395.565354 293.896776 
L 401.24564 293.43412 
L 406.925925 294.225924 
L 412.60621 294.264212 
L 418.286496 294.850593 
L 423.966781 295.641185 
L 429.647067 296.065601 
L 435.327352 296.628878 
L 441.007637 297.059069 
L 446.687923 297.468458 
L 452.368208 297.862627 
L 458.048494 297.938313 
L 463.728779 298.198095 
L 469.409064 298.183483 
L 475.08935 298.251554 
L 480.769635 298.657312 
L 486.449921 299.10005 
L 492.130206 299.340099 
L 497.810492 300.126039 
L 503.490777 300.274797 
L 509.171062 300.092447 
L 514.851348 300.443724 
L 520.531633 300.548049 
L 526.211919 300.692804 
L 531.892204 300.777708 
L 537.572489 300.6844 
L 543.252775 299.699627 
L 548.93306 300.013096 
L 554.613346 300.098421 
L 560.293631 300.00746 
L 565.973916 300.580067 
L 571.654202 300.894865 
L 577.334487 301.048776 
L 583.014773 301.450907 
" clip-path="url(#pf4d4014e22)" style="fill: none; stroke-dasharray: 7.4,3.2; stroke-dashoffset: 0; stroke: #00008b; stroke-width: 2"/>
   </g>
   <g id="line2d_7">
    <path d="M 151.313081 377.54 
L 151.313081 26.96 
" clip-path="url(#pf4d4014e22)" style="fill: none; stroke-dasharray: 5.55,2.4; stroke-dashoffset: 0; stroke: #1a1a1a; stroke-width: 1.5"/>
   </g>
   <g id="line2d_8">
    <path d="M 435.327352 377.54 
L 435.327352 26.96 
" clip-path="url(#pf4d4014e22)" style="fill: none; stroke-dasharray: 5.55,2.4; stroke-dashoffset: 0; stroke: #1a1a1a; stroke-width: 1.5"/>
   </g>
   <g id="patch_3">
    <path d="M 70.085 377.54 
L 70.085 26.96 
" style="fill: none; stroke: #cccccc; stroke-width: 1.5; stroke-linejoin: miter; stroke-linecap: square"/>
   </g>
   <g id="patch_4">
    <path d="M 70.085 377.54 
L 607.44 377.54 
" style="fill: none; stroke: #cccccc; stroke-width: 1.5; stroke-linejoin: miter; stroke-linecap: square"/>
   </g>
   <g id="text_17">
    <!-- Divergence Comparison: Original vs Shuffled -->
    <g style="fill: #262626" transform="translate(219.1525 20.96) scale(0.12 -0.12)">
     <defs>
      <path id="ArialMT-43" d="M 3763 1606 
L 4369 1453 
Q 4178 706 3683 314 
Q 3188 -78 2472 -78 
Q 1731 -78 1267 223 
Q 803 525 561 1097 
Q 319 1669 319 2325 
Q 319 3041 592 3573 
Q 866 4106 1370 4382 
Q 1875 4659 2481 4659 
Q 3169 4659 3637 4309 
Q 4106 3959 4291 3325 
L 3694 3184 
Q 3534 3684 3231 3912 
Q 2928 4141 2469 4141 
Q 1941 4141 1586 3887 
Q 1231 3634 1087 3207 
Q 944 2781 944 2328 
Q 944 1744 1114 1308 
Q 1284 872 1643 656 
Q 2003 441 2422 441 
Q 2931 441 3284 734 
Q 3638 1028 3763 1606 
z
" transform="scale(0.015625)"/>
      <path id="ArialMT-6f" d="M 213 1659 
Q 213 2581 725 3025 
Q 1153 3394 1769 3394 
Q 2453 3394 2887 2945 
Q 3322 2497 3322 1706 
Q 3322 1066 3130 698 
Q 2938 331 2570 128 
Q 2203 -75 1769 -75 
Q 1072 -75 642 372 
Q 213 819 213 1659 
z
M 791 1659 
Q 791 1022 1069 705 
Q 1347 388 1769 388 
Q 2188 388 2466 706 
Q 2744 1025 2744 1678 
Q 2744 2294 2464 2611 
Q 2184 2928 1769 2928 
Q 1347 2928 1069 2612 
Q 791 2297 791 1659 
z
" transform="scale(0.015625)"/>
      <path id="ArialMT-70" d="M 422 -1272 
L 422 3319 
L 934 3319 
L 934 2888 
Q 1116 3141 1344 3267 
Q 1572 3394 1897 3394 
Q 2322 3394 2647 3175 
Q 2972 2956 3137 2557 
Q 3303 2159 3303 1684 
Q 3303 1175 3120 767 
Q 2938 359 2589 142 
Q 2241 -75 1856 -75 
Q 1575 -75 1351 44 
Q 1128 163 984 344 
L 984 -1272 
L 422 -1272 
z
M 931 1641 
Q 931 1000 1190 694 
Q 1450 388 1819 388 
Q 2194 388 2461 705 
Q 2728 1022 2728 1688 
Q 2728 2322 2467 2637 
Q 2206 2953 1844 2953 
Q 1484 2953 1207 2617 
Q 931 2281 931 1641 
z
" transform="scale(0.015625)"/>
      <path id="ArialMT-61" d="M 2588 409 
Q 2275 144 1986 34 
Q 1697 -75 1366 -75 
Q 819 -75 525 192 
Q 231 459 231 875 
Q 231 1119 342 1320 
Q 453 1522 633 1644 
Q 813 1766 1038 1828 
Q 1203 1872 1538 1913 
Q 2219 1994 2541 2106 
Q 2544 2222 2544 2253 
Q 2544 2597 2384 2738 
Q 2169 2928 1744 2928 
Q 1347 2928 1158 2789 
Q 969 2650 878 2297 
L 328 2372 
Q 403 2725 575 2942 
Q 747 3159 1072 3276 
Q 1397 3394 1825 3394 
Q 2250 3394 2515 3294 
Q 2781 3194 2906 3042 
Q 3031 2891 3081 2659 
Q 3109 2516 3109 2141 
L 3109 1391 
Q 3109 606 3145 398 
Q 3181 191 3288 0 
L 2700 0 
Q 2613 175 2588 409 
z
M 2541 1666 
Q 2234 1541 1622 1453 
Q 1275 1403 1131 1340 
Q 988 1278 909 1158 
Q 831 1038 831 891 
Q 831 666 1001 516 
Q 1172 366 1500 366 
Q 1825 366 2078 508 
Q 2331 650 2450 897 
Q 2541 1088 2541 1459 
L 2541 1666 
z
" transform="scale(0.015625)"/>
      <path id="ArialMT-3a" d="M 578 2678 
L 578 3319 
L 1219 3319 
L 1219 2678 
L 578 2678 
z
M 578 0 
L 578 641 
L 1219 641 
L 1219 0 
L 578 0 
z
" transform="scale(0.015625)"/>
      <path id="ArialMT-4f" d="M 309 2231 
Q 309 3372 921 4017 
Q 1534 4663 2503 4663 
Q 3138 4663 3647 4359 
Q 4156 4056 4423 3514 
Q 4691 2972 4691 2284 
Q 4691 1588 4409 1038 
Q 4128 488 3612 205 
Q 3097 -78 2500 -78 
Q 1853 -78 1343 234 
Q 834 547 571 1087 
Q 309 1628 309 2231 
z
M 934 2222 
Q 934 1394 1379 917 
Q 1825 441 2497 441 
Q 3181 441 3623 922 
Q 4066 1403 4066 2288 
Q 4066 2847 3877 3264 
Q 3688 3681 3323 3911 
Q 2959 4141 2506 4141 
Q 1863 4141 1398 3698 
Q 934 3256 934 2222 
z
" transform="scale(0.015625)"/>
      <path id="ArialMT-6c" d="M 409 0 
L 409 4581 
L 972 4581 
L 972 0 
L 409 0 
z
" transform="scale(0.015625)"/>
      <path id="ArialMT-53" d="M 288 1472 
L 859 1522 
Q 900 1178 1048 958 
Q 1197 738 1509 602 
Q 1822 466 2213 466 
Q 2559 466 2825 569 
Q 3091 672 3220 851 
Q 3350 1031 3350 1244 
Q 3350 1459 3225 1620 
Q 3100 1781 2813 1891 
Q 2628 1963 1997 2114 
Q 1366 2266 1113 2400 
Q 784 2572 623 2826 
Q 463 3081 463 3397 
Q 463 3744 659 4045 
Q 856 4347 1234 4503 
Q 1613 4659 2075 4659 
Q 2584 4659 2973 4495 
Q 3363 4331 3572 4012 
Q 3781 3694 3797 3291 
L 3216 3247 
Q 3169 3681 2898 3903 
Q 2628 4125 2100 4125 
Q 1550 4125 1298 3923 
Q 1047 3722 1047 3438 
Q 1047 3191 1225 3031 
Q 1400 2872 2139 2705 
Q 2878 2538 3153 2413 
Q 3553 2228 3743 1945 
Q 3934 1663 3934 1294 
Q 3934 928 3725 604 
Q 3516 281 3123 101 
Q 2731 -78 2241 -78 
Q 1619 -78 1198 103 
Q 778 284 539 648 
Q 300 1013 288 1472 
z
" transform="scale(0.015625)"/>
      <path id="ArialMT-68" d="M 422 0 
L 422 4581 
L 984 4581 
L 984 2938 
Q 1378 3394 1978 3394 
Q 2347 3394 2619 3248 
Q 2891 3103 3008 2847 
Q 3125 2591 3125 2103 
L 3125 0 
L 2563 0 
L 2563 2103 
Q 2563 2525 2380 2717 
Q 2197 2909 1863 2909 
Q 1613 2909 1392 2779 
Q 1172 2650 1078 2428 
Q 984 2206 984 1816 
L 984 0 
L 422 0 
z
" transform="scale(0.015625)"/>
      <path id="ArialMT-75" d="M 2597 0 
L 2597 488 
Q 2209 -75 1544 -75 
Q 1250 -75 995 37 
Q 741 150 617 320 
Q 494 491 444 738 
Q 409 903 409 1263 
L 409 3319 
L 972 3319 
L 972 1478 
Q 972 1038 1006 884 
Q 1059 663 1231 536 
Q 1403 409 1656 409 
Q 1909 409 2131 539 
Q 2353 669 2445 892 
Q 2538 1116 2538 1541 
L 2538 3319 
L 3100 3319 
L 3100 0 
L 2597 0 
z
" transform="scale(0.015625)"/>
      <path id="ArialMT-66" d="M 556 0 
L 556 2881 
L 59 2881 
L 59 3319 
L 556 3319 
L 556 3672 
Q 556 4006 616 4169 
Q 697 4388 901 4523 
Q 1106 4659 1475 4659 
Q 1713 4659 2000 4603 
L 1916 4113 
Q 1741 4144 1584 4144 
Q 1328 4144 1222 4034 
Q 1116 3925 1116 3625 
L 1116 3319 
L 1763 3319 
L 1763 2881 
L 1116 2881 
L 1116 0 
L 556 0 
z
" transform="scale(0.015625)"/>
      <path id="ArialMT-64" d="M 2575 0 
L 2575 419 
Q 2259 -75 1647 -75 
Q 1250 -75 917 144 
Q 584 363 401 755 
Q 219 1147 219 1656 
Q 219 2153 384 2558 
Q 550 2963 881 3178 
Q 1213 3394 1622 3394 
Q 1922 3394 2156 3267 
Q 2391 3141 2538 2938 
L 2538 4581 
L 3097 4581 
L 3097 0 
L 2575 0 
z
M 797 1656 
Q 797 1019 1065 703 
Q 1334 388 1700 388 
Q 2069 388 2326 689 
Q 2584 991 2584 1609 
Q 2584 2291 2321 2609 
Q 2059 2928 1675 2928 
Q 1300 2928 1048 2622 
Q 797 2316 797 1656 
z
" transform="scale(0.015625)"/>
     </defs>
     <use xlink:href="#ArialMT-44"/>
     <use xlink:href="#ArialMT-69" x="72.216797"/>
     <use xlink:href="#ArialMT-76" x="94.433594"/>
     <use xlink:href="#ArialMT-65" x="144.433594"/>
     <use xlink:href="#ArialMT-72" x="200.048828"/>
     <use xlink:href="#ArialMT-67" x="233.349609"/>
     <use xlink:href="#ArialMT-65" x="288.964844"/>
     <use xlink:href="#ArialMT-6e" x="344.580078"/>
     <use xlink:href="#ArialMT-63" x="400.195312"/>
     <use xlink:href="#ArialMT-65" x="450.195312"/>
     <use xlink:href="#ArialMT-20" x="505.810547"/>
     <use xlink:href="#ArialMT-43" x="533.59375"/>
     <use xlink:href="#ArialMT-6f" x="605.810547"/>
     <use xlink:href="#ArialMT-6d" x="661.425781"/>
     <use xlink:href="#ArialMT-70" x="744.726562"/>
     <use xlink:href="#ArialMT-61" x="800.341797"/>
     <use xlink:href="#ArialMT-72" x="855.957031"/>
     <use xlink:href="#ArialMT-69" x="889.257812"/>
     <use xlink:href="#ArialMT-73" x="911.474609"/>
     <use xlink:href="#ArialMT-6f" x="961.474609"/>
     <use xlink:href="#ArialMT-6e" x="1017.089844"/>
     <use xlink:href="#ArialMT-3a" x="1072.705078"/>
     <use xlink:href="#ArialMT-20" x="1100.488281"/>
     <use xlink:href="#ArialMT-4f" x="1128.271484"/>
     <use xlink:href="#ArialMT-72" x="1206.054688"/>
     <use xlink:href="#ArialMT-69" x="1239.355469"/>
     <use xlink:href="#ArialMT-67" x="1261.572266"/>
     <use xlink:href="#ArialMT-69" x="1317.1875"/>
     <use xlink:href="#ArialMT-6e" x="1339.404297"/>
     <use xlink:href="#ArialMT-61" x="1395.019531"/>
     <use xlink:href="#ArialMT-6c" x="1450.634766"/>
     <use xlink:href="#ArialMT-20" x="1472.851562"/>
     <use xlink:href="#ArialMT-76" x="1500.634766"/>
     <use xlink:href="#ArialMT-73" x="1550.634766"/>
     <use xlink:href="#ArialMT-20" x="1600.634766"/>
     <use xlink:href="#ArialMT-53" x="1628.417969"/>
     <use xlink:href="#ArialMT-68" x="1695.117188"/>
     <use xlink:href="#ArialMT-75" x="1750.732422"/>
     <use xlink:href="#ArialMT-66" x="1806.347656"/>
     <use xlink:href="#ArialMT-66" x="1832.380859"/>
     <use xlink:href="#ArialMT-6c" x="1860.164062"/>
     <use xlink:href="#ArialMT-65" x="1882.380859"/>
     <use xlink:href="#ArialMT-64" x="1937.996094"/>
    </g>
   </g>
   <g id="legend_1">
    <g id="patch_5">
     <path d="M 615.14 258.915469 
L 704.741875 258.915469 
Q 706.941875 258.915469 706.941875 256.715469 
L 706.941875 147.784531 
Q 706.941875 145.584531 704.741875 145.584531 
L 615.14 145.584531 
Q 612.94 145.584531 612.94 147.784531 
L 612.94 256.715469 
Q 612.94 258.915469 615.14 258.915469 
z
" style="fill: #ffffff; opacity: 0.8; stroke: #cccccc; stroke-linejoin: miter"/>
    </g>
    <g id="line2d_9">
     <path d="M 617.34 154.149062 
L 628.34 154.149062 
L 639.34 154.149062 
" style="fill: none; stroke: #6060eb; stroke-width: 2; stroke-linecap: round"/>
    </g>
    <g id="text_18">
     <!-- Original -->
     <g style="fill: #262626" transform="translate(648.14 157.999062) scale(0.11 -0.11)">
      <use xlink:href="#ArialMT-4f"/>
      <use xlink:href="#ArialMT-72" x="77.783203"/>
      <use xlink:href="#ArialMT-69" x="111.083984"/>
      <use xlink:href="#ArialMT-67" x="133.300781"/>
      <use xlink:href="#ArialMT-69" x="188.916016"/>
      <use xlink:href="#ArialMT-6e" x="211.132812"/>
      <use xlink:href="#ArialMT-61" x="266.748047"/>
      <use xlink:href="#ArialMT-6c" x="322.363281"/>
     </g>
    </g>
    <g id="line2d_10">
     <path d="M 617.34 169.97875 
L 628.34 169.97875 
L 639.34 169.97875 
" style="fill: none; stroke-dasharray: 7.4,3.2; stroke-dashoffset: 0; stroke: #6060eb; stroke-width: 2"/>
    </g>
    <g id="text_19">
     <!-- Original -->
     <g style="fill: #262626" transform="translate(648.14 173.82875) scale(0.11 -0.11)">
      <use xlink:href="#ArialMT-4f"/>
      <use xlink:href="#ArialMT-72" x="77.783203"/>
      <use xlink:href="#ArialMT-69" x="111.083984"/>
      <use xlink:href="#ArialMT-67" x="133.300781"/>
      <use xlink:href="#ArialMT-69" x="188.916016"/>
      <use xlink:href="#ArialMT-6e" x="211.132812"/>
      <use xlink:href="#ArialMT-61" x="266.748047"/>
      <use xlink:href="#ArialMT-6c" x="322.363281"/>
     </g>
    </g>
    <g id="PathCollection_3">
     <g>
      <use xlink:href="#m7cd1ce3007" x="628.34" y="186.662656" style="fill: #6060eb; stroke: #6060eb"/>
     </g>
    </g>
    <g id="text_20">
     <!-- p &lt; 0.001 -->
     <g style="fill: #262626" transform="translate(648.14 189.550156) scale(0.11 -0.11)">
      <defs>
       <path id="ArialMT-3c" d="M 350 2003 
L 350 2528 
L 3384 3809 
L 3384 3250 
L 978 2263 
L 3384 1266 
L 3384 706 
L 350 2003 
z
" transform="scale(0.015625)"/>
      </defs>
      <use xlink:href="#ArialMT-70"/>
      <use xlink:href="#ArialMT-20" x="55.615234"/>
      <use xlink:href="#ArialMT-3c" x="83.398438"/>
      <use xlink:href="#ArialMT-20" x="141.796875"/>
      <use xlink:href="#ArialMT-30" x="169.580078"/>
      <use xlink:href="#ArialMT-2e" x="225.195312"/>
      <use xlink:href="#ArialMT-30" x="252.978516"/>
      <use xlink:href="#ArialMT-30" x="308.59375"/>
      <use xlink:href="#ArialMT-31" x="364.208984"/>
     </g>
    </g>
    <g id="line2d_11">
     <path d="M 617.34 201.26 
L 628.34 201.26 
L 639.34 201.26 
" style="fill: none; stroke-dasharray: 5.55,2.4; stroke-dashoffset: 0; stroke: #1a1a1a; stroke-width: 1.5"/>
    </g>
    <g id="text_21">
     <!-- Stim Onset -->
     <g style="fill: #262626" transform="translate(648.14 205.11) scale(0.11 -0.11)">
      <defs>
       <path id="ArialMT-74" d="M 1650 503 
L 1731 6 
Q 1494 -44 1306 -44 
Q 1000 -44 831 53 
Q 663 150 594 308 
Q 525 466 525 972 
L 525 2881 
L 113 2881 
L 113 3319 
L 525 3319 
L 525 4141 
L 1084 4478 
L 1084 3319 
L 1650 3319 
L 1650 2881 
L 1084 2881 
L 1084 941 
Q 1084 700 1114 631 
Q 1144 563 1211 522 
Q 1278 481 1403 481 
Q 1497 481 1650 503 
z
" transform="scale(0.015625)"/>
      </defs>
      <use xlink:href="#ArialMT-53"/>
      <use xlink:href="#ArialMT-74" x="66.699219"/>
      <use xlink:href="#ArialMT-69" x="94.482422"/>
      <use xlink:href="#ArialMT-6d" x="116.699219"/>
      <use xlink:href="#ArialMT-20" x="200"/>
      <use xlink:href="#ArialMT-4f" x="227.783203"/>
      <use xlink:href="#ArialMT-6e" x="305.566406"/>
      <use xlink:href="#ArialMT-73" x="361.181641"/>
      <use xlink:href="#ArialMT-65" x="411.181641"/>
      <use xlink:href="#ArialMT-74" x="466.796875"/>
     </g>
    </g>
    <g id="line2d_12">
     <path d="M 617.34 216.819844 
L 628.34 216.819844 
L 639.34 216.819844 
" style="fill: none; stroke-dasharray: 5.55,2.4; stroke-dashoffset: 0; stroke: #1a1a1a; stroke-width: 1.5"/>
    </g>
    <g id="text_22">
     <!-- Stim End -->
     <g style="fill: #262626" transform="translate(648.14 220.669844) scale(0.11 -0.11)">
      <defs>
       <path id="ArialMT-45" d="M 506 0 
L 506 4581 
L 3819 4581 
L 3819 4041 
L 1113 4041 
L 1113 2638 
L 3647 2638 
L 3647 2100 
L 1113 2100 
L 1113 541 
L 3925 541 
L 3925 0 
L 506 0 
z
" transform="scale(0.015625)"/>
      </defs>
      <use xlink:href="#ArialMT-53"/>
      <use xlink:href="#ArialMT-74" x="66.699219"/>
      <use xlink:href="#ArialMT-69" x="94.482422"/>
      <use xlink:href="#ArialMT-6d" x="116.699219"/>
      <use xlink:href="#ArialMT-20" x="200"/>
      <use xlink:href="#ArialMT-45" x="227.783203"/>
      <use xlink:href="#ArialMT-6e" x="294.482422"/>
      <use xlink:href="#ArialMT-64" x="350.097656"/>
     </g>
    </g>
    <g id="line2d_13">
     <path d="M 617.34 232.520625 
L 628.34 232.520625 
L 639.34 232.520625 
" style="fill: none; stroke: #00008b; stroke-width: 2; stroke-linecap: round"/>
    </g>
    <g id="text_23">
     <!-- Original -->
     <g style="fill: #262626" transform="translate(648.14 236.370625) scale(0.11 -0.11)">
      <use xlink:href="#ArialMT-4f"/>
      <use xlink:href="#ArialMT-72" x="77.783203"/>
      <use xlink:href="#ArialMT-69" x="111.083984"/>
      <use xlink:href="#ArialMT-67" x="133.300781"/>
      <use xlink:href="#ArialMT-69" x="188.916016"/>
      <use xlink:href="#ArialMT-6e" x="211.132812"/>
      <use xlink:href="#ArialMT-61" x="266.748047"/>
      <use xlink:href="#ArialMT-6c" x="322.363281"/>
     </g>
    </g>
    <g id="line2d_14">
     <path d="M 617.34 248.350313 
L 628.34 248.350313 
L 639.34 248.350313 
" style="fill: none; stroke-dasharray: 7.4,3.2; stroke-dashoffset: 0; stroke: #00008b; stroke-width: 2"/>
    </g>
    <g id="text_24">
     <!-- Original -->
     <g style="fill: #262626" transform="translate(648.14 252.200312) scale(0.11 -0.11)">
      <use xlink:href="#ArialMT-4f"/>
      <use xlink:href="#ArialMT-72" x="77.783203"/>
      <use xlink:href="#ArialMT-69" x="111.083984"/>
      <use xlink:href="#ArialMT-67" x="133.300781"/>
      <use xlink:href="#ArialMT-69" x="188.916016"/>
      <use xlink:href="#ArialMT-6e" x="211.132812"/>
      <use xlink:href="#ArialMT-61" x="266.748047"/>
      <use xlink:href="#ArialMT-6c" x="322.363281"/>
     </g>
    </g>
   </g>
  </g>
 </g>
 <defs>
  <clipPath id="pf4d4014e22">
   <rect x="70.085" y="26.96" width="537.355" height="350.58"/>
  </clipPath>
 </defs>
</svg>
