<?xml version="1.0" encoding="utf-8" standalone="no"?>
<!DOCTYPE svg PUBLIC "-//W3C//DTD SVG 1.1//EN"
  "http://www.w3.org/Graphics/SVG/1.1/DTD/svg11.dtd">
<svg xmlns:xlink="http://www.w3.org/1999/xlink" width="720pt" height="432pt" viewBox="0 0 720 432" xmlns="http://www.w3.org/2000/svg" version="1.1">
 <metadata>
  <rdf:RDF xmlns:dc="http://purl.org/dc/elements/1.1/" xmlns:cc="http://creativecommons.org/ns#" xmlns:rdf="http://www.w3.org/1999/02/22-rdf-syntax-ns#">
   <cc:Work>
    <dc:type rdf:resource="http://purl.org/dc/dcmitype/StillImage"/>
    <dc:date>2025-10-26T21:00:19.023871</dc:date>
    <dc:format>image/svg+xml</dc:format>
    <dc:creator>
     <cc:Agent>
      <dc:title>Matplotlib v3.9.4, https://matplotlib.org/</dc:title>
     </cc:Agent>
    </dc:creator>
   </cc:Work>
  </rdf:RDF>
 </metadata>
 <defs>
  <style type="text/css">*{stroke-linejoin: round; stroke-linecap: butt}</style>
 </defs>
 <g id="figure_1">
  <g id="patch_1">
   <path d="M 0 432 
L 720 432 
L 720 0 
L 0 0 
z
" style="fill: #ffffff"/>
  </g>
  <g id="axes_1">
   <g id="patch_2">
    <path d="M 60.335 378.54 
L 607.44 378.54 
L 607.44 26.96 
L 60.335 26.96 
L 60.335 378.54 
z
" style="fill: none"/>
   </g>
   <g id="matplotlib.axis_1">
    <g id="xtick_1">
     <g id="line2d_1">
      <defs>
       <path id="mac56e1f633" d="M 0 0 
L 0 5 
" style="stroke: #262626; stroke-width: 1.5"/>
      </defs>
      <g>
       <use xlink:href="#mac56e1f633" x="70.745032" y="378.54" style="fill: #262626; stroke: #262626; stroke-width: 1.5"/>
      </g>
     </g>
     <g id="text_1">
      <!-- −250 -->
      <g style="fill: #262626" transform="translate(53.852454 397.776719) scale(0.15 -0.15)">
       <defs>
        <path id="ArialMT-2212" d="M 3381 1997 
L 356 1997 
L 356 2522 
L 3381 2522 
L 3381 1997 
z
" transform="scale(0.015625)"/>
        <path id="ArialMT-32" d="M 3222 541 
L 3222 0 
L 194 0 
Q 188 203 259 391 
Q 375 700 629 1000 
Q 884 1300 1366 1694 
Q 2113 2306 2375 2664 
Q 2638 3022 2638 3341 
Q 2638 3675 2398 3904 
Q 2159 4134 1775 4134 
Q 1369 4134 1125 3890 
Q 881 3647 878 3216 
L 300 3275 
Q 359 3922 746 4261 
Q 1134 4600 1788 4600 
Q 2447 4600 2831 4234 
Q 3216 3869 3216 3328 
Q 3216 3053 3103 2787 
Q 2991 2522 2730 2228 
Q 2469 1934 1863 1422 
Q 1356 997 1212 845 
Q 1069 694 975 541 
L 3222 541 
z
" transform="scale(0.015625)"/>
        <path id="ArialMT-35" d="M 266 1200 
L 856 1250 
Q 922 819 1161 601 
Q 1400 384 1738 384 
Q 2144 384 2425 690 
Q 2706 997 2706 1503 
Q 2706 1984 2436 2262 
Q 2166 2541 1728 2541 
Q 1456 2541 1237 2417 
Q 1019 2294 894 2097 
L 366 2166 
L 809 4519 
L 3088 4519 
L 3088 3981 
L 1259 3981 
L 1013 2750 
Q 1425 3038 1878 3038 
Q 2478 3038 2890 2622 
Q 3303 2206 3303 1553 
Q 3303 931 2941 478 
Q 2500 -78 1738 -78 
Q 1113 -78 717 272 
Q 322 622 266 1200 
z
" transform="scale(0.015625)"/>
        <path id="ArialMT-30" d="M 266 2259 
Q 266 3072 433 3567 
Q 600 4063 929 4331 
Q 1259 4600 1759 4600 
Q 2128 4600 2406 4451 
Q 2684 4303 2865 4023 
Q 3047 3744 3150 3342 
Q 3253 2941 3253 2259 
Q 3253 1453 3087 958 
Q 2922 463 2592 192 
Q 2263 -78 1759 -78 
Q 1097 -78 719 397 
Q 266 969 266 2259 
z
M 844 2259 
Q 844 1131 1108 757 
Q 1372 384 1759 384 
Q 2147 384 2411 759 
Q 2675 1134 2675 2259 
Q 2675 3391 2411 3762 
Q 2147 4134 1753 4134 
Q 1366 4134 1134 3806 
Q 844 3388 844 2259 
z
" transform="scale(0.015625)"/>
       </defs>
       <use xlink:href="#ArialMT-2212"/>
       <use xlink:href="#ArialMT-32" x="58.398438"/>
       <use xlink:href="#ArialMT-35" x="114.013672"/>
       <use xlink:href="#ArialMT-30" x="169.628906"/>
      </g>
     </g>
    </g>
    <g id="xtick_2">
     <g id="line2d_2">
      <g>
       <use xlink:href="#mac56e1f633" x="143.036919" y="378.54" style="fill: #262626; stroke: #262626; stroke-width: 1.5"/>
      </g>
     </g>
     <g id="text_2">
      <!-- 0 -->
      <g style="fill: #262626" transform="translate(138.866215 397.776719) scale(0.15 -0.15)">
       <use xlink:href="#ArialMT-30"/>
      </g>
     </g>
    </g>
    <g id="xtick_3">
     <g id="line2d_3">
      <g>
       <use xlink:href="#mac56e1f633" x="215.328805" y="378.54" style="fill: #262626; stroke: #262626; stroke-width: 1.5"/>
      </g>
     </g>
     <g id="text_3">
      <!-- 250 -->
      <g style="fill: #262626" transform="translate(202.816696 397.776719) scale(0.15 -0.15)">
       <use xlink:href="#ArialMT-32"/>
       <use xlink:href="#ArialMT-35" x="55.615234"/>
       <use xlink:href="#ArialMT-30" x="111.230469"/>
      </g>
     </g>
    </g>
    <g id="xtick_4">
     <g id="line2d_4">
      <g>
       <use xlink:href="#mac56e1f633" x="287.620692" y="378.54" style="fill: #262626; stroke: #262626; stroke-width: 1.5"/>
      </g>
     </g>
     <g id="text_4">
      <!-- 500 -->
      <g style="fill: #262626" transform="translate(275.108583 397.776719) scale(0.15 -0.15)">
       <use xlink:href="#ArialMT-35"/>
       <use xlink:href="#ArialMT-30" x="55.615234"/>
       <use xlink:href="#ArialMT-30" x="111.230469"/>
      </g>
     </g>
    </g>
    <g id="xtick_5">
     <g id="line2d_5">
      <g>
       <use xlink:href="#mac56e1f633" x="359.912579" y="378.54" style="fill: #262626; stroke: #262626; stroke-width: 1.5"/>
      </g>
     </g>
     <g id="text_5">
      <!-- 750 -->
      <g style="fill: #262626" transform="translate(347.40047 397.776719) scale(0.15 -0.15)">
       <defs>
        <path id="ArialMT-37" d="M 303 3981 
L 303 4522 
L 3269 4522 
L 3269 4084 
Q 2831 3619 2401 2847 
Q 1972 2075 1738 1259 
Q 1569 684 1522 0 
L 944 0 
Q 953 541 1156 1306 
Q 1359 2072 1739 2783 
Q 2119 3494 2547 3981 
L 303 3981 
z
" transform="scale(0.015625)"/>
       </defs>
       <use xlink:href="#ArialMT-37"/>
       <use xlink:href="#ArialMT-35" x="55.615234"/>
       <use xlink:href="#ArialMT-30" x="111.230469"/>
      </g>
     </g>
    </g>
    <g id="xtick_6">
     <g id="line2d_6">
      <g>
       <use xlink:href="#mac56e1f633" x="432.204466" y="378.54" style="fill: #262626; stroke: #262626; stroke-width: 1.5"/>
      </g>
     </g>
     <g id="text_6">
      <!-- 1000 -->
      <g style="fill: #262626" transform="translate(415.521654 397.776719) scale(0.15 -0.15)">
       <defs>
        <path id="ArialMT-31" d="M 2384 0 
L 1822 0 
L 1822 3584 
Q 1619 3391 1289 3197 
Q 959 3003 697 2906 
L 697 3450 
Q 1169 3672 1522 3987 
Q 1875 4303 2022 4600 
L 2384 4600 
L 2384 0 
z
" transform="scale(0.015625)"/>
       </defs>
       <use xlink:href="#ArialMT-31"/>
       <use xlink:href="#ArialMT-30" x="55.615234"/>
       <use xlink:href="#ArialMT-30" x="111.230469"/>
       <use xlink:href="#ArialMT-30" x="166.845703"/>
      </g>
     </g>
    </g>
    <g id="xtick_7">
     <g id="line2d_7">
      <g>
       <use xlink:href="#mac56e1f633" x="504.496353" y="378.54" style="fill: #262626; stroke: #262626; stroke-width: 1.5"/>
      </g>
     </g>
     <g id="text_7">
      <!-- 1250 -->
      <g style="fill: #262626" transform="translate(487.813541 397.776719) scale(0.15 -0.15)">
       <use xlink:href="#ArialMT-31"/>
       <use xlink:href="#ArialMT-32" x="55.615234"/>
       <use xlink:href="#ArialMT-35" x="111.230469"/>
       <use xlink:href="#ArialMT-30" x="166.845703"/>
      </g>
     </g>
    </g>
    <g id="xtick_8">
     <g id="line2d_8">
      <g>
       <use xlink:href="#mac56e1f633" x="576.78824" y="378.54" style="fill: #262626; stroke: #262626; stroke-width: 1.5"/>
      </g>
     </g>
     <g id="text_8">
      <!-- 1500 -->
      <g style="fill: #262626" transform="translate(560.105427 397.776719) scale(0.15 -0.15)">
       <use xlink:href="#ArialMT-31"/>
       <use xlink:href="#ArialMT-35" x="55.615234"/>
       <use xlink:href="#ArialMT-30" x="111.230469"/>
       <use xlink:href="#ArialMT-30" x="166.845703"/>
      </g>
     </g>
    </g>
    <g id="text_9">
     <!-- Time (s) -->
     <g style="fill: #262626" transform="translate(306.675391 415.6775) scale(0.15 -0.15)">
      <defs>
       <path id="ArialMT-54" d="M 1659 0 
L 1659 4041 
L 150 4041 
L 150 4581 
L 3781 4581 
L 3781 4041 
L 2266 4041 
L 2266 0 
L 1659 0 
z
" transform="scale(0.015625)"/>
       <path id="ArialMT-69" d="M 425 3934 
L 425 4581 
L 988 4581 
L 988 3934 
L 425 3934 
z
M 425 0 
L 425 3319 
L 988 3319 
L 988 0 
L 425 0 
z
" transform="scale(0.015625)"/>
       <path id="ArialMT-6d" d="M 422 0 
L 422 3319 
L 925 3319 
L 925 2853 
Q 1081 3097 1340 3245 
Q 1600 3394 1931 3394 
Q 2300 3394 2536 3241 
Q 2772 3088 2869 2813 
Q 3263 3394 3894 3394 
Q 4388 3394 4653 3120 
Q 4919 2847 4919 2278 
L 4919 0 
L 4359 0 
L 4359 2091 
Q 4359 2428 4304 2576 
Q 4250 2725 4106 2815 
Q 3963 2906 3769 2906 
Q 3419 2906 3187 2673 
Q 2956 2441 2956 1928 
L 2956 0 
L 2394 0 
L 2394 2156 
Q 2394 2531 2256 2718 
Q 2119 2906 1806 2906 
Q 1569 2906 1367 2781 
Q 1166 2656 1075 2415 
Q 984 2175 984 1722 
L 984 0 
L 422 0 
z
" transform="scale(0.015625)"/>
       <path id="ArialMT-65" d="M 2694 1069 
L 3275 997 
Q 3138 488 2766 206 
Q 2394 -75 1816 -75 
Q 1088 -75 661 373 
Q 234 822 234 1631 
Q 234 2469 665 2931 
Q 1097 3394 1784 3394 
Q 2450 3394 2872 2941 
Q 3294 2488 3294 1666 
Q 3294 1616 3291 1516 
L 816 1516 
Q 847 969 1125 678 
Q 1403 388 1819 388 
Q 2128 388 2347 550 
Q 2566 713 2694 1069 
z
M 847 1978 
L 2700 1978 
Q 2663 2397 2488 2606 
Q 2219 2931 1791 2931 
Q 1403 2931 1139 2672 
Q 875 2413 847 1978 
z
" transform="scale(0.015625)"/>
       <path id="ArialMT-20" transform="scale(0.015625)"/>
       <path id="ArialMT-28" d="M 1497 -1347 
Q 1031 -759 709 28 
Q 388 816 388 1659 
Q 388 2403 628 3084 
Q 909 3875 1497 4659 
L 1900 4659 
Q 1522 4009 1400 3731 
Q 1209 3300 1100 2831 
Q 966 2247 966 1656 
Q 966 153 1900 -1347 
L 1497 -1347 
z
" transform="scale(0.015625)"/>
       <path id="ArialMT-73" d="M 197 991 
L 753 1078 
Q 800 744 1014 566 
Q 1228 388 1613 388 
Q 2000 388 2187 545 
Q 2375 703 2375 916 
Q 2375 1106 2209 1216 
Q 2094 1291 1634 1406 
Q 1016 1563 777 1677 
Q 538 1791 414 1992 
Q 291 2194 291 2438 
Q 291 2659 392 2848 
Q 494 3038 669 3163 
Q 800 3259 1026 3326 
Q 1253 3394 1513 3394 
Q 1903 3394 2198 3281 
Q 2494 3169 2634 2976 
Q 2775 2784 2828 2463 
L 2278 2388 
Q 2241 2644 2061 2787 
Q 1881 2931 1553 2931 
Q 1166 2931 1000 2803 
Q 834 2675 834 2503 
Q 834 2394 903 2306 
Q 972 2216 1119 2156 
Q 1203 2125 1616 2013 
Q 2213 1853 2448 1751 
Q 2684 1650 2818 1456 
Q 2953 1263 2953 975 
Q 2953 694 2789 445 
Q 2625 197 2315 61 
Q 2006 -75 1616 -75 
Q 969 -75 630 194 
Q 291 463 197 991 
z
" transform="scale(0.015625)"/>
       <path id="ArialMT-29" d="M 791 -1347 
L 388 -1347 
Q 1322 153 1322 1656 
Q 1322 2244 1188 2822 
Q 1081 3291 891 3722 
Q 769 4003 388 4659 
L 791 4659 
Q 1378 3875 1659 3084 
Q 1900 2403 1900 1659 
Q 1900 816 1576 28 
Q 1253 -759 791 -1347 
z
" transform="scale(0.015625)"/>
      </defs>
      <use xlink:href="#ArialMT-54"/>
      <use xlink:href="#ArialMT-69" x="57.333984"/>
      <use xlink:href="#ArialMT-6d" x="79.550781"/>
      <use xlink:href="#ArialMT-65" x="162.851562"/>
      <use xlink:href="#ArialMT-20" x="218.466797"/>
      <use xlink:href="#ArialMT-28" x="246.25"/>
      <use xlink:href="#ArialMT-73" x="279.550781"/>
      <use xlink:href="#ArialMT-29" x="329.550781"/>
     </g>
    </g>
   </g>
   <g id="matplotlib.axis_2">
    <g id="ytick_1">
     <g id="line2d_9">
      <defs>
       <path id="mc270cca336" d="M 0 0 
L -5 0 
" style="stroke: #262626; stroke-width: 1.5"/>
      </defs>
      <g>
       <use xlink:href="#mc270cca336" x="60.335" y="353.989978" style="fill: #262626; stroke: #262626; stroke-width: 1.5"/>
      </g>
     </g>
     <g id="text_10">
      <!-- 0.0 -->
      <g style="fill: #262626" transform="translate(30.985 359.358337) scale(0.15 -0.15)">
       <defs>
        <path id="ArialMT-2e" d="M 581 0 
L 581 641 
L 1222 641 
L 1222 0 
L 581 0 
z
" transform="scale(0.015625)"/>
       </defs>
       <use xlink:href="#ArialMT-30"/>
       <use xlink:href="#ArialMT-2e" x="55.615234"/>
       <use xlink:href="#ArialMT-30" x="83.398438"/>
      </g>
     </g>
    </g>
    <g id="ytick_2">
     <g id="line2d_10">
      <g>
       <use xlink:href="#mc270cca336" x="60.335" y="311.144411" style="fill: #262626; stroke: #262626; stroke-width: 1.5"/>
      </g>
     </g>
     <g id="text_11">
      <!-- 0.1 -->
      <g style="fill: #262626" transform="translate(30.985 316.51277) scale(0.15 -0.15)">
       <use xlink:href="#ArialMT-30"/>
       <use xlink:href="#ArialMT-2e" x="55.615234"/>
       <use xlink:href="#ArialMT-31" x="83.398438"/>
      </g>
     </g>
    </g>
    <g id="ytick_3">
     <g id="line2d_11">
      <g>
       <use xlink:href="#mc270cca336" x="60.335" y="268.298844" style="fill: #262626; stroke: #262626; stroke-width: 1.5"/>
      </g>
     </g>
     <g id="text_12">
      <!-- 0.2 -->
      <g style="fill: #262626" transform="translate(30.985 273.667204) scale(0.15 -0.15)">
       <use xlink:href="#ArialMT-30"/>
       <use xlink:href="#ArialMT-2e" x="55.615234"/>
       <use xlink:href="#ArialMT-32" x="83.398438"/>
      </g>
     </g>
    </g>
    <g id="ytick_4">
     <g id="line2d_12">
      <g>
       <use xlink:href="#mc270cca336" x="60.335" y="225.453278" style="fill: #262626; stroke: #262626; stroke-width: 1.5"/>
      </g>
     </g>
     <g id="text_13">
      <!-- 0.3 -->
      <g style="fill: #262626" transform="translate(30.985 230.821637) scale(0.15 -0.15)">
       <defs>
        <path id="ArialMT-33" d="M 269 1209 
L 831 1284 
Q 928 806 1161 595 
Q 1394 384 1728 384 
Q 2125 384 2398 659 
Q 2672 934 2672 1341 
Q 2672 1728 2419 1979 
Q 2166 2231 1775 2231 
Q 1616 2231 1378 2169 
L 1441 2663 
Q 1497 2656 1531 2656 
Q 1891 2656 2178 2843 
Q 2466 3031 2466 3422 
Q 2466 3731 2256 3934 
Q 2047 4138 1716 4138 
Q 1388 4138 1169 3931 
Q 950 3725 888 3313 
L 325 3413 
Q 428 3978 793 4289 
Q 1159 4600 1703 4600 
Q 2078 4600 2393 4439 
Q 2709 4278 2876 4000 
Q 3044 3722 3044 3409 
Q 3044 3113 2884 2869 
Q 2725 2625 2413 2481 
Q 2819 2388 3044 2092 
Q 3269 1797 3269 1353 
Q 3269 753 2831 336 
Q 2394 -81 1725 -81 
Q 1122 -81 723 278 
Q 325 638 269 1209 
z
" transform="scale(0.015625)"/>
       </defs>
       <use xlink:href="#ArialMT-30"/>
       <use xlink:href="#ArialMT-2e" x="55.615234"/>
       <use xlink:href="#ArialMT-33" x="83.398438"/>
      </g>
     </g>
    </g>
    <g id="ytick_5">
     <g id="line2d_13">
      <g>
       <use xlink:href="#mc270cca336" x="60.335" y="182.607711" style="fill: #262626; stroke: #262626; stroke-width: 1.5"/>
      </g>
     </g>
     <g id="text_14">
      <!-- 0.4 -->
      <g style="fill: #262626" transform="translate(30.985 187.97607) scale(0.15 -0.15)">
       <defs>
        <path id="ArialMT-34" d="M 2069 0 
L 2069 1097 
L 81 1097 
L 81 1613 
L 2172 4581 
L 2631 4581 
L 2631 1613 
L 3250 1613 
L 3250 1097 
L 2631 1097 
L 2631 0 
L 2069 0 
z
M 2069 1613 
L 2069 3678 
L 634 1613 
L 2069 1613 
z
" transform="scale(0.015625)"/>
       </defs>
       <use xlink:href="#ArialMT-30"/>
       <use xlink:href="#ArialMT-2e" x="55.615234"/>
       <use xlink:href="#ArialMT-34" x="83.398438"/>
      </g>
     </g>
    </g>
    <g id="ytick_6">
     <g id="line2d_14">
      <g>
       <use xlink:href="#mc270cca336" x="60.335" y="139.762144" style="fill: #262626; stroke: #262626; stroke-width: 1.5"/>
      </g>
     </g>
     <g id="text_15">
      <!-- 0.5 -->
      <g style="fill: #262626" transform="translate(30.985 145.130504) scale(0.15 -0.15)">
       <use xlink:href="#ArialMT-30"/>
       <use xlink:href="#ArialMT-2e" x="55.615234"/>
       <use xlink:href="#ArialMT-35" x="83.398438"/>
      </g>
     </g>
    </g>
    <g id="ytick_7">
     <g id="line2d_15">
      <g>
       <use xlink:href="#mc270cca336" x="60.335" y="96.916578" style="fill: #262626; stroke: #262626; stroke-width: 1.5"/>
      </g>
     </g>
     <g id="text_16">
      <!-- 0.6 -->
      <g style="fill: #262626" transform="translate(30.985 102.284937) scale(0.15 -0.15)">
       <defs>
        <path id="ArialMT-36" d="M 3184 3459 
L 2625 3416 
Q 2550 3747 2413 3897 
Q 2184 4138 1850 4138 
Q 1581 4138 1378 3988 
Q 1113 3794 959 3422 
Q 806 3050 800 2363 
Q 1003 2672 1297 2822 
Q 1591 2972 1913 2972 
Q 2475 2972 2870 2558 
Q 3266 2144 3266 1488 
Q 3266 1056 3080 686 
Q 2894 316 2569 119 
Q 2244 -78 1831 -78 
Q 1128 -78 684 439 
Q 241 956 241 2144 
Q 241 3472 731 4075 
Q 1159 4600 1884 4600 
Q 2425 4600 2770 4297 
Q 3116 3994 3184 3459 
z
M 888 1484 
Q 888 1194 1011 928 
Q 1134 663 1356 523 
Q 1578 384 1822 384 
Q 2178 384 2434 671 
Q 2691 959 2691 1453 
Q 2691 1928 2437 2201 
Q 2184 2475 1800 2475 
Q 1419 2475 1153 2201 
Q 888 1928 888 1484 
z
" transform="scale(0.015625)"/>
       </defs>
       <use xlink:href="#ArialMT-30"/>
       <use xlink:href="#ArialMT-2e" x="55.615234"/>
       <use xlink:href="#ArialMT-36" x="83.398438"/>
      </g>
     </g>
    </g>
    <g id="ytick_8">
     <g id="line2d_16">
      <g>
       <use xlink:href="#mc270cca336" x="60.335" y="54.071011" style="fill: #262626; stroke: #262626; stroke-width: 1.5"/>
      </g>
     </g>
     <g id="text_17">
      <!-- 0.7 -->
      <g style="fill: #262626" transform="translate(30.985 59.43937) scale(0.15 -0.15)">
       <use xlink:href="#ArialMT-30"/>
       <use xlink:href="#ArialMT-2e" x="55.615234"/>
       <use xlink:href="#ArialMT-37" x="83.398438"/>
      </g>
     </g>
    </g>
    <g id="text_18">
     <!-- Divergence -->
     <g style="fill: #262626" transform="translate(23.827969 240.683594) rotate(-90) scale(0.15 -0.15)">
      <defs>
       <path id="ArialMT-44" d="M 494 0 
L 494 4581 
L 2072 4581 
Q 2606 4581 2888 4516 
Q 3281 4425 3559 4188 
Q 3922 3881 4101 3404 
Q 4281 2928 4281 2316 
Q 4281 1794 4159 1391 
Q 4038 988 3847 723 
Q 3656 459 3429 307 
Q 3203 156 2883 78 
Q 2563 0 2147 0 
L 494 0 
z
M 1100 541 
L 2078 541 
Q 2531 541 2789 625 
Q 3047 709 3200 863 
Q 3416 1078 3536 1442 
Q 3656 1806 3656 2325 
Q 3656 3044 3420 3430 
Q 3184 3816 2847 3947 
Q 2603 4041 2063 4041 
L 1100 4041 
L 1100 541 
z
" transform="scale(0.015625)"/>
       <path id="ArialMT-76" d="M 1344 0 
L 81 3319 
L 675 3319 
L 1388 1331 
Q 1503 1009 1600 663 
Q 1675 925 1809 1294 
L 2547 3319 
L 3125 3319 
L 1869 0 
L 1344 0 
z
" transform="scale(0.015625)"/>
       <path id="ArialMT-72" d="M 416 0 
L 416 3319 
L 922 3319 
L 922 2816 
Q 1116 3169 1280 3281 
Q 1444 3394 1641 3394 
Q 1925 3394 2219 3213 
L 2025 2691 
Q 1819 2813 1613 2813 
Q 1428 2813 1281 2702 
Q 1134 2591 1072 2394 
Q 978 2094 978 1738 
L 978 0 
L 416 0 
z
" transform="scale(0.015625)"/>
       <path id="ArialMT-67" d="M 319 -275 
L 866 -356 
Q 900 -609 1056 -725 
Q 1266 -881 1628 -881 
Q 2019 -881 2231 -725 
Q 2444 -569 2519 -288 
Q 2563 -116 2559 434 
Q 2191 0 1641 0 
Q 956 0 581 494 
Q 206 988 206 1678 
Q 206 2153 378 2554 
Q 550 2956 876 3175 
Q 1203 3394 1644 3394 
Q 2231 3394 2613 2919 
L 2613 3319 
L 3131 3319 
L 3131 450 
Q 3131 -325 2973 -648 
Q 2816 -972 2473 -1159 
Q 2131 -1347 1631 -1347 
Q 1038 -1347 672 -1080 
Q 306 -813 319 -275 
z
M 784 1719 
Q 784 1066 1043 766 
Q 1303 466 1694 466 
Q 2081 466 2343 764 
Q 2606 1063 2606 1700 
Q 2606 2309 2336 2618 
Q 2066 2928 1684 2928 
Q 1309 2928 1046 2623 
Q 784 2319 784 1719 
z
" transform="scale(0.015625)"/>
       <path id="ArialMT-6e" d="M 422 0 
L 422 3319 
L 928 3319 
L 928 2847 
Q 1294 3394 1984 3394 
Q 2284 3394 2536 3286 
Q 2788 3178 2913 3003 
Q 3038 2828 3088 2588 
Q 3119 2431 3119 2041 
L 3119 0 
L 2556 0 
L 2556 2019 
Q 2556 2363 2490 2533 
Q 2425 2703 2258 2804 
Q 2091 2906 1866 2906 
Q 1506 2906 1245 2678 
Q 984 2450 984 1813 
L 984 0 
L 422 0 
z
" transform="scale(0.015625)"/>
       <path id="ArialMT-63" d="M 2588 1216 
L 3141 1144 
Q 3050 572 2676 248 
Q 2303 -75 1759 -75 
Q 1078 -75 664 370 
Q 250 816 250 1647 
Q 250 2184 428 2587 
Q 606 2991 970 3192 
Q 1334 3394 1763 3394 
Q 2303 3394 2647 3120 
Q 2991 2847 3088 2344 
L 2541 2259 
Q 2463 2594 2264 2762 
Q 2066 2931 1784 2931 
Q 1359 2931 1093 2626 
Q 828 2322 828 1663 
Q 828 994 1084 691 
Q 1341 388 1753 388 
Q 2084 388 2306 591 
Q 2528 794 2588 1216 
z
" transform="scale(0.015625)"/>
      </defs>
      <use xlink:href="#ArialMT-44"/>
      <use xlink:href="#ArialMT-69" x="72.216797"/>
      <use xlink:href="#ArialMT-76" x="94.433594"/>
      <use xlink:href="#ArialMT-65" x="144.433594"/>
      <use xlink:href="#ArialMT-72" x="200.048828"/>
      <use xlink:href="#ArialMT-67" x="233.349609"/>
      <use xlink:href="#ArialMT-65" x="288.964844"/>
      <use xlink:href="#ArialMT-6e" x="344.580078"/>
      <use xlink:href="#ArialMT-63" x="400.195312"/>
      <use xlink:href="#ArialMT-65" x="450.195312"/>
     </g>
    </g>
   </g>
   <g id="PolyCollection_1">
    <defs>
     <path id="m8dbb80e649" d="M 85.203409 -79.592418 
L 85.203409 -76.791225 
L 90.98676 -74.141452 
L 96.770111 -76.584794 
L 102.553462 -75.77742 
L 108.336813 -75.863865 
L 114.120164 -76.656551 
L 119.903515 -76.733469 
L 125.686866 -76.448361 
L 131.470217 -77.168482 
L 137.253568 -76.069055 
L 143.036919 -78.865821 
L 148.82027 -80.101334 
L 154.603621 -81.272968 
L 160.386971 -81.787456 
L 166.170322 -81.584278 
L 171.953673 -86.213877 
L 177.737024 -78.160401 
L 183.520375 -78.979499 
L 189.303726 -81.202226 
L 195.087077 -79.402431 
L 200.870428 -79.874381 
L 206.653779 -80.572046 
L 212.43713 -86.675478 
L 218.220481 -88.578688 
L 224.003832 -93.27991 
L 229.787183 -95.915875 
L 235.570534 -100.243005 
L 241.353885 -101.401244 
L 247.137236 -100.447371 
L 252.920587 -106.663802 
L 258.703938 -112.437527 
L 264.487289 -113.439861 
L 270.27064 -114.047816 
L 276.05399 -121.217942 
L 281.837341 -133.117395 
L 287.620692 -132.83772 
L 293.404043 -136.590113 
L 299.187394 -136.620662 
L 304.970745 -135.565775 
L 310.754096 -133.740463 
L 316.537447 -130.703308 
L 322.320798 -135.083586 
L 328.104149 -130.879675 
L 333.8875 -129.005853 
L 339.670851 -126.48506 
L 345.454202 -119.789565 
L 351.237553 -113.236039 
L 357.020904 -114.689643 
L 362.804255 -114.084658 
L 368.587606 -108.163031 
L 374.370957 -103.328812 
L 380.154308 -96.43718 
L 385.937659 -95.241404 
L 391.72101 -94.617498 
L 397.50436 -92.198504 
L 403.287711 -94.151583 
L 409.071062 -93.364343 
L 414.854413 -85.703832 
L 420.637764 -81.69335 
L 426.421115 -78.571244 
L 432.204466 -80.557008 
L 437.987817 -79.348798 
L 443.771168 -76.268323 
L 449.554519 -76.020726 
L 455.33787 -76.131857 
L 461.121221 -77.126705 
L 466.904572 -76.221611 
L 472.687923 -77.119225 
L 478.471274 -75.776256 
L 484.254625 -78.935884 
L 490.037976 -79.862485 
L 495.821327 -78.437475 
L 501.604678 -78.738143 
L 507.388029 -75.59004 
L 513.171379 -78.709406 
L 518.95473 -78.992054 
L 524.738081 -76.26305 
L 530.521432 -76.949399 
L 536.304783 -77.915555 
L 542.088134 -75.940575 
L 547.871485 -79.373986 
L 553.654836 -77.304096 
L 559.438187 -76.331277 
L 565.221538 -77.363619 
L 571.004889 -76.032056 
L 576.78824 -78.002056 
L 582.571591 -73.85539 
L 582.571591 -76.71603 
L 582.571591 -76.71603 
L 576.78824 -80.849998 
L 571.004889 -79.015744 
L 565.221538 -80.5937 
L 559.438187 -79.571579 
L 553.654836 -80.387693 
L 547.871485 -82.413459 
L 542.088134 -79.376459 
L 536.304783 -80.959281 
L 530.521432 -80.211146 
L 524.738081 -79.287258 
L 518.95473 -82.319077 
L 513.171379 -81.855433 
L 507.388029 -78.837455 
L 501.604678 -81.848443 
L 495.821327 -81.552557 
L 490.037976 -82.907964 
L 484.254625 -81.956511 
L 478.471274 -78.952588 
L 472.687923 -80.285224 
L 466.904572 -79.207577 
L 461.121221 -80.271985 
L 455.33787 -78.986052 
L 449.554519 -79.016685 
L 443.771168 -79.568701 
L 437.987817 -82.825728 
L 432.204466 -84.021592 
L 426.421115 -82.848556 
L 420.637764 -86.356819 
L 414.854413 -90.735507 
L 409.071062 -98.58785 
L 403.287711 -99.89003 
L 397.50436 -98.455775 
L 391.72101 -101.381177 
L 385.937659 -101.587745 
L 380.154308 -102.636302 
L 374.370957 -110.058521 
L 368.587606 -116.575661 
L 362.804255 -123.78206 
L 357.020904 -125.220304 
L 351.237553 -124.96228 
L 345.454202 -132.030852 
L 339.670851 -139.655528 
L 333.8875 -143.636637 
L 328.104149 -146.667844 
L 322.320798 -151.199584 
L 316.537447 -147.054497 
L 310.754096 -150.055289 
L 304.970745 -151.666552 
L 299.187394 -152.709122 
L 293.404043 -152.578703 
L 287.620692 -149.18785 
L 281.837341 -149.359817 
L 276.05399 -136.752059 
L 270.27064 -128.271263 
L 264.487289 -126.896441 
L 258.703938 -124.383455 
L 252.920587 -117.31594 
L 247.137236 -110.052074 
L 241.353885 -109.972829 
L 235.570534 -107.7203 
L 229.787183 -103.204374 
L 224.003832 -100.257478 
L 218.220481 -94.663043 
L 212.43713 -92.57016 
L 206.653779 -85.334321 
L 200.870428 -84.466331 
L 195.087077 -84.596944 
L 189.303726 -85.696549 
L 183.520375 -83.336379 
L 177.737024 -82.767039 
L 171.953673 -90.764261 
L 166.170322 -86.584002 
L 160.386971 -86.74713 
L 154.603621 -85.917493 
L 148.82027 -84.999576 
L 143.036919 -83.856249 
L 137.253568 -78.440032 
L 131.470217 -79.343708 
L 125.686866 -79.012159 
L 119.903515 -79.144317 
L 114.120164 -79.073649 
L 108.336813 -78.351512 
L 102.553462 -78.271837 
L 96.770111 -79.146238 
L 90.98676 -77.072995 
L 85.203409 -79.592418 
z
" style="stroke: #6060eb; stroke-opacity: 0.1"/>
    </defs>
    <g clip-path="url(#p66650cc966)">
     <use xlink:href="#m8dbb80e649" x="0" y="432" style="fill: #6060eb; fill-opacity: 0.1; stroke: #6060eb; stroke-opacity: 0.1"/>
    </g>
   </g>
   <g id="PolyCollection_2">
    <defs>
     <path id="m50ac4939e0" d="M 85.203409 -78.420108 
L 85.203409 -77.826649 
L 90.98676 -78.181547 
L 96.770111 -78.03324 
L 102.553462 -78.311321 
L 108.336813 -77.963193 
L 114.120164 -78.076445 
L 119.903515 -77.888077 
L 125.686866 -77.617308 
L 131.470217 -77.586198 
L 137.253568 -77.297749 
L 143.036919 -81.231134 
L 148.82027 -80.951878 
L 154.603621 -82.939122 
L 160.386971 -85.268619 
L 166.170322 -85.197895 
L 171.953673 -83.240003 
L 177.737024 -84.383442 
L 183.520375 -87.551421 
L 189.303726 -88.715061 
L 195.087077 -87.518739 
L 200.870428 -85.925278 
L 206.653779 -83.910002 
L 212.43713 -81.98742 
L 218.220481 -80.274465 
L 224.003832 -79.972413 
L 229.787183 -82.045957 
L 235.570534 -83.936213 
L 241.353885 -83.060429 
L 247.137236 -82.010965 
L 252.920587 -81.052969 
L 258.703938 -81.824575 
L 264.487289 -82.693269 
L 270.27064 -83.025045 
L 276.05399 -82.863114 
L 281.837341 -84.376796 
L 287.620692 -85.906612 
L 293.404043 -85.351657 
L 299.187394 -83.226777 
L 304.970745 -82.17172 
L 310.754096 -79.526438 
L 316.537447 -79.51142 
L 322.320798 -81.951644 
L 328.104149 -83.727946 
L 333.8875 -85.330897 
L 339.670851 -87.042669 
L 345.454202 -86.508032 
L 351.237553 -85.803633 
L 357.020904 -85.247616 
L 362.804255 -84.866122 
L 368.587606 -86.70779 
L 374.370957 -87.727494 
L 380.154308 -86.10861 
L 385.937659 -85.929803 
L 391.72101 -86.722076 
L 397.50436 -87.160612 
L 403.287711 -89.122277 
L 409.071062 -89.454153 
L 414.854413 -86.200399 
L 420.637764 -84.327821 
L 426.421115 -81.990209 
L 432.204466 -79.481369 
L 437.987817 -79.796379 
L 443.771168 -79.210943 
L 449.554519 -78.994033 
L 455.33787 -79.25015 
L 461.121221 -79.361207 
L 466.904572 -78.890598 
L 472.687923 -79.188804 
L 478.471274 -79.456034 
L 484.254625 -78.901087 
L 490.037976 -78.676459 
L 495.821327 -79.018471 
L 501.604678 -78.89861 
L 507.388029 -78.891623 
L 513.171379 -79.202035 
L 518.95473 -78.794479 
L 524.738081 -79.061274 
L 530.521432 -79.112212 
L 536.304783 -78.989956 
L 542.088134 -79.054429 
L 547.871485 -79.188736 
L 553.654836 -78.884538 
L 559.438187 -78.792049 
L 565.221538 -78.921696 
L 571.004889 -78.972691 
L 576.78824 -79.20265 
L 582.571591 -78.614421 
L 582.571591 -79.396882 
L 582.571591 -79.396882 
L 576.78824 -79.931484 
L 571.004889 -79.774091 
L 565.221538 -79.78542 
L 559.438187 -79.648601 
L 553.654836 -79.710675 
L 547.871485 -79.963497 
L 542.088134 -79.882202 
L 536.304783 -79.785892 
L 530.521432 -79.840765 
L 524.738081 -79.906035 
L 518.95473 -79.619983 
L 513.171379 -79.958444 
L 507.388029 -79.707749 
L 501.604678 -79.641925 
L 495.821327 -79.797702 
L 490.037976 -79.469733 
L 484.254625 -79.712268 
L 478.471274 -80.20877 
L 472.687923 -80.005725 
L 466.904572 -79.704568 
L 461.121221 -80.150149 
L 455.33787 -79.984849 
L 449.554519 -79.815242 
L 443.771168 -80.123029 
L 437.987817 -80.761823 
L 432.204466 -80.385888 
L 426.421115 -83.147121 
L 420.637764 -85.466926 
L 414.854413 -87.332403 
L 409.071062 -90.547372 
L 403.287711 -90.21015 
L 397.50436 -88.172137 
L 391.72101 -87.747685 
L 385.937659 -86.997282 
L 380.154308 -87.189681 
L 374.370957 -88.824662 
L 368.587606 -87.848366 
L 362.804255 -86.095341 
L 357.020904 -86.49166 
L 351.237553 -87.112072 
L 345.454202 -87.660745 
L 339.670851 -88.189425 
L 333.8875 -86.586837 
L 328.104149 -84.937792 
L 322.320798 -83.302228 
L 316.537447 -80.960688 
L 310.754096 -80.934099 
L 304.970745 -83.575897 
L 299.187394 -84.56091 
L 293.404043 -86.575285 
L 287.620692 -87.13129 
L 281.837341 -85.582238 
L 276.05399 -84.240751 
L 270.27064 -84.374678 
L 264.487289 -84.133935 
L 258.703938 -83.152868 
L 252.920587 -82.370395 
L 247.137236 -83.251652 
L 241.353885 -84.320475 
L 235.570534 -85.059932 
L 229.787183 -83.197457 
L 224.003832 -81.186255 
L 218.220481 -81.451465 
L 212.43713 -83.243636 
L 206.653779 -85.204958 
L 200.870428 -87.249533 
L 195.087077 -88.917165 
L 189.303726 -90.109849 
L 183.520375 -88.809189 
L 177.737024 -85.521488 
L 171.953673 -84.384544 
L 166.170322 -86.280794 
L 160.386971 -86.52079 
L 154.603621 -84.273302 
L 148.82027 -82.384392 
L 143.036919 -82.381026 
L 137.253568 -77.909506 
L 131.470217 -78.140949 
L 125.686866 -78.234461 
L 119.903515 -78.492242 
L 114.120164 -78.577544 
L 108.336813 -78.487323 
L 102.553462 -78.886591 
L 96.770111 -78.688208 
L 90.98676 -78.708418 
L 85.203409 -78.420108 
z
" style="stroke: #6060eb; stroke-opacity: 0.1"/>
    </defs>
    <g clip-path="url(#p66650cc966)">
     <use xlink:href="#m50ac4939e0" x="0" y="432" style="fill: #6060eb; fill-opacity: 0.1; stroke: #6060eb; stroke-opacity: 0.1"/>
    </g>
   </g>
   <g id="PathCollection_1">
    <defs>
     <path id="m17bea7ce98" d="M 0 -3 
L -0.673542 -0.927051 
L -2.85317 -0.927051 
L -1.089814 0.354102 
L -1.763356 2.427051 
L -0 1.145898 
L 1.763356 2.427051 
L 1.089814 0.354102 
L 2.85317 -0.927051 
L 0.673542 -0.927051 
z
" style="stroke: #6060eb"/>
    </defs>
    <g clip-path="url(#p66650cc966)">
     <use xlink:href="#m17bea7ce98" x="218.220481" y="358.274534" style="fill: #6060eb; stroke: #6060eb"/>
     <use xlink:href="#m17bea7ce98" x="224.003832" y="358.274534" style="fill: #6060eb; stroke: #6060eb"/>
     <use xlink:href="#m17bea7ce98" x="229.787183" y="358.274534" style="fill: #6060eb; stroke: #6060eb"/>
     <use xlink:href="#m17bea7ce98" x="235.570534" y="358.274534" style="fill: #6060eb; stroke: #6060eb"/>
     <use xlink:href="#m17bea7ce98" x="241.353885" y="358.274534" style="fill: #6060eb; stroke: #6060eb"/>
     <use xlink:href="#m17bea7ce98" x="247.137236" y="358.274534" style="fill: #6060eb; stroke: #6060eb"/>
     <use xlink:href="#m17bea7ce98" x="252.920587" y="358.274534" style="fill: #6060eb; stroke: #6060eb"/>
     <use xlink:href="#m17bea7ce98" x="258.703938" y="358.274534" style="fill: #6060eb; stroke: #6060eb"/>
     <use xlink:href="#m17bea7ce98" x="264.487289" y="358.274534" style="fill: #6060eb; stroke: #6060eb"/>
     <use xlink:href="#m17bea7ce98" x="270.27064" y="358.274534" style="fill: #6060eb; stroke: #6060eb"/>
     <use xlink:href="#m17bea7ce98" x="276.05399" y="358.274534" style="fill: #6060eb; stroke: #6060eb"/>
     <use xlink:href="#m17bea7ce98" x="281.837341" y="358.274534" style="fill: #6060eb; stroke: #6060eb"/>
     <use xlink:href="#m17bea7ce98" x="287.620692" y="358.274534" style="fill: #6060eb; stroke: #6060eb"/>
     <use xlink:href="#m17bea7ce98" x="293.404043" y="358.274534" style="fill: #6060eb; stroke: #6060eb"/>
     <use xlink:href="#m17bea7ce98" x="299.187394" y="358.274534" style="fill: #6060eb; stroke: #6060eb"/>
     <use xlink:href="#m17bea7ce98" x="304.970745" y="358.274534" style="fill: #6060eb; stroke: #6060eb"/>
     <use xlink:href="#m17bea7ce98" x="310.754096" y="358.274534" style="fill: #6060eb; stroke: #6060eb"/>
     <use xlink:href="#m17bea7ce98" x="316.537447" y="358.274534" style="fill: #6060eb; stroke: #6060eb"/>
     <use xlink:href="#m17bea7ce98" x="322.320798" y="358.274534" style="fill: #6060eb; stroke: #6060eb"/>
     <use xlink:href="#m17bea7ce98" x="328.104149" y="358.274534" style="fill: #6060eb; stroke: #6060eb"/>
     <use xlink:href="#m17bea7ce98" x="333.8875" y="358.274534" style="fill: #6060eb; stroke: #6060eb"/>
     <use xlink:href="#m17bea7ce98" x="339.670851" y="358.274534" style="fill: #6060eb; stroke: #6060eb"/>
     <use xlink:href="#m17bea7ce98" x="345.454202" y="358.274534" style="fill: #6060eb; stroke: #6060eb"/>
     <use xlink:href="#m17bea7ce98" x="351.237553" y="358.274534" style="fill: #6060eb; stroke: #6060eb"/>
     <use xlink:href="#m17bea7ce98" x="357.020904" y="358.274534" style="fill: #6060eb; stroke: #6060eb"/>
     <use xlink:href="#m17bea7ce98" x="362.804255" y="358.274534" style="fill: #6060eb; stroke: #6060eb"/>
     <use xlink:href="#m17bea7ce98" x="368.587606" y="358.274534" style="fill: #6060eb; stroke: #6060eb"/>
     <use xlink:href="#m17bea7ce98" x="374.370957" y="358.274534" style="fill: #6060eb; stroke: #6060eb"/>
     <use xlink:href="#m17bea7ce98" x="380.154308" y="358.274534" style="fill: #6060eb; stroke: #6060eb"/>
     <use xlink:href="#m17bea7ce98" x="385.937659" y="358.274534" style="fill: #6060eb; stroke: #6060eb"/>
     <use xlink:href="#m17bea7ce98" x="391.72101" y="358.274534" style="fill: #6060eb; stroke: #6060eb"/>
    </g>
   </g>
   <g id="PolyCollection_3">
    <defs>
     <path id="me9232a777a" d="M 85.203409 -81.822304 
L 85.203409 -79.225325 
L 90.98676 -78.406462 
L 96.770111 -79.444591 
L 102.553462 -76.924662 
L 108.336813 -78.736314 
L 114.120164 -77.693494 
L 119.903515 -79.122629 
L 125.686866 -81.276815 
L 131.470217 -81.193647 
L 137.253568 -79.642093 
L 143.036919 -79.546582 
L 148.82027 -81.653599 
L 154.603621 -80.728689 
L 160.386971 -81.149192 
L 166.170322 -83.781719 
L 171.953673 -84.16879 
L 177.737024 -86.185424 
L 183.520375 -88.877183 
L 189.303726 -92.8161 
L 195.087077 -94.099142 
L 200.870428 -95.360607 
L 206.653779 -96.974863 
L 212.43713 -95.065558 
L 218.220481 -98.61125 
L 224.003832 -102.285132 
L 229.787183 -108.355438 
L 235.570534 -113.941839 
L 241.353885 -117.757708 
L 247.137236 -124.809794 
L 252.920587 -130.999364 
L 258.703938 -138.998159 
L 264.487289 -144.848984 
L 270.27064 -157.02872 
L 276.05399 -167.348628 
L 281.837341 -181.071847 
L 287.620692 -197.251207 
L 293.404043 -210.637954 
L 299.187394 -224.527204 
L 304.970745 -238.447178 
L 310.754096 -253.394178 
L 316.537447 -266.983096 
L 322.320798 -279.200939 
L 328.104149 -290.903085 
L 333.8875 -304.326864 
L 339.670851 -314.319522 
L 345.454202 -324.492245 
L 351.237553 -330.840417 
L 357.020904 -334.060463 
L 362.804255 -336.761331 
L 368.587606 -340.838374 
L 374.370957 -345.640499 
L 380.154308 -347.514452 
L 385.937659 -348.936194 
L 391.72101 -347.239666 
L 397.50436 -343.869585 
L 403.287711 -342.494675 
L 409.071062 -340.166481 
L 414.854413 -340.718322 
L 420.637764 -337.041531 
L 426.421115 -334.771371 
L 432.204466 -329.703285 
L 437.987817 -320.774181 
L 443.771168 -311.055582 
L 449.554519 -303.033876 
L 455.33787 -291.985402 
L 461.121221 -282.633422 
L 466.904572 -276.809409 
L 472.687923 -268.732923 
L 478.471274 -261.017529 
L 484.254625 -255.033713 
L 490.037976 -251.057378 
L 495.821327 -246.329013 
L 501.604678 -242.531907 
L 507.388029 -240.236755 
L 513.171379 -237.376194 
L 518.95473 -233.896461 
L 524.738081 -228.576478 
L 530.521432 -227.852848 
L 536.304783 -223.845147 
L 542.088134 -220.748562 
L 547.871485 -219.356805 
L 553.654836 -216.608861 
L 559.438187 -216.483564 
L 565.221538 -213.405823 
L 571.004889 -211.572292 
L 576.78824 -208.398828 
L 582.571591 -205.734553 
L 582.571591 -235.217511 
L 582.571591 -235.217511 
L 576.78824 -237.609339 
L 571.004889 -240.814783 
L 565.221538 -242.910704 
L 559.438187 -246.328365 
L 553.654836 -247.048315 
L 547.871485 -249.746287 
L 542.088134 -251.330251 
L 536.304783 -254.314492 
L 530.521432 -258.659616 
L 524.738081 -259.589896 
L 518.95473 -265.545105 
L 513.171379 -269.441046 
L 507.388029 -272.6698 
L 501.604678 -275.131442 
L 495.821327 -279.584394 
L 490.037976 -284.531791 
L 484.254625 -288.952173 
L 478.471274 -295.408257 
L 472.687923 -303.542125 
L 466.904572 -311.853478 
L 461.121221 -318.44307 
L 455.33787 -328.492934 
L 449.554519 -339.725296 
L 443.771168 -348.233309 
L 437.987817 -358.669289 
L 432.204466 -368.189737 
L 426.421115 -373.868528 
L 420.637764 -376.569025 
L 414.854413 -380.841044 
L 409.071062 -380.249574 
L 403.287711 -382.663803 
L 397.50436 -383.693133 
L 391.72101 -387.324134 
L 385.937659 -389.059091 
L 380.154308 -388.008776 
L 374.370957 -386.046414 
L 368.587606 -381.552451 
L 362.804255 -377.271234 
L 357.020904 -374.444518 
L 351.237553 -370.400801 
L 345.454202 -363.434683 
L 339.670851 -352.432989 
L 333.8875 -341.638772 
L 328.104149 -326.736473 
L 322.320798 -312.794253 
L 316.537447 -298.504654 
L 310.754096 -282.981251 
L 304.970745 -265.996857 
L 299.187394 -250.309681 
L 293.404043 -234.396034 
L 287.620692 -218.780545 
L 281.837341 -200.511503 
L 276.05399 -184.666921 
L 270.27064 -172.230688 
L 264.487289 -158.457753 
L 258.703938 -150.181559 
L 252.920587 -141.110048 
L 247.137236 -134.285009 
L 241.353885 -126.295076 
L 235.570534 -121.828199 
L 229.787183 -115.816039 
L 224.003832 -109.552516 
L 218.220481 -105.299617 
L 212.43713 -100.887632 
L 206.653779 -102.65045 
L 200.870428 -101.350507 
L 195.087077 -100.197722 
L 189.303726 -98.583288 
L 183.520375 -94.345372 
L 177.737024 -91.77014 
L 171.953673 -89.940794 
L 166.170322 -89.474303 
L 160.386971 -87.018664 
L 154.603621 -87.114083 
L 148.82027 -88.094188 
L 143.036919 -85.666419 
L 137.253568 -86.00552 
L 131.470217 -87.835521 
L 125.686866 -87.173675 
L 119.903515 -85.145772 
L 114.120164 -83.65505 
L 108.336813 -84.057258 
L 102.553462 -81.491816 
L 96.770111 -83.338387 
L 90.98676 -82.209467 
L 85.203409 -81.822304 
z
" style="stroke: #00008b; stroke-opacity: 0.1"/>
    </defs>
    <g clip-path="url(#p66650cc966)">
     <use xlink:href="#me9232a777a" x="0" y="432" style="fill: #00008b; fill-opacity: 0.1; stroke: #00008b; stroke-opacity: 0.1"/>
    </g>
   </g>
   <g id="PolyCollection_4">
    <defs>
     <path id="m7fa16d1927" d="M 85.203409 -78.361919 
L 85.203409 -77.660404 
L 90.98676 -77.826795 
L 96.770111 -78.252162 
L 102.553462 -79.147357 
L 108.336813 -80.095234 
L 114.120164 -81.14714 
L 119.903515 -81.872086 
L 125.686866 -82.432222 
L 131.470217 -84.209952 
L 137.253568 -85.25146 
L 143.036919 -86.252107 
L 148.82027 -87.210557 
L 154.603621 -87.774541 
L 160.386971 -88.838145 
L 166.170322 -89.935351 
L 171.953673 -89.953118 
L 177.737024 -89.923172 
L 183.520375 -91.053192 
L 189.303726 -91.260718 
L 195.087077 -91.627964 
L 200.870428 -91.440929 
L 206.653779 -92.526842 
L 212.43713 -92.198177 
L 218.220481 -92.114391 
L 224.003832 -92.49827 
L 229.787183 -92.240544 
L 235.570534 -92.089872 
L 241.353885 -92.229095 
L 247.137236 -92.687024 
L 252.920587 -93.770119 
L 258.703938 -94.26228 
L 264.487289 -93.945948 
L 270.27064 -94.770284 
L 276.05399 -95.30757 
L 281.837341 -95.726194 
L 287.620692 -96.660482 
L 293.404043 -96.866444 
L 299.187394 -97.263145 
L 304.970745 -97.467717 
L 310.754096 -98.00516 
L 316.537447 -97.113818 
L 322.320798 -97.464606 
L 328.104149 -97.943198 
L 333.8875 -98.500134 
L 339.670851 -98.0539 
L 345.454202 -98.149015 
L 351.237553 -97.88189 
L 357.020904 -97.628041 
L 362.804255 -97.497339 
L 368.587606 -96.987186 
L 374.370957 -97.079307 
L 380.154308 -97.012799 
L 385.937659 -96.267819 
L 391.72101 -95.033895 
L 397.50436 -94.481879 
L 403.287711 -94.188511 
L 409.071062 -93.7479 
L 414.854413 -93.04481 
L 420.637764 -91.618342 
L 426.421115 -91.238072 
L 432.204466 -90.127509 
L 437.987817 -89.016161 
L 443.771168 -87.660373 
L 449.554519 -86.452578 
L 455.33787 -86.12133 
L 461.121221 -85.359396 
L 466.904572 -84.221683 
L 472.687923 -83.288165 
L 478.471274 -82.942832 
L 484.254625 -82.51642 
L 490.037976 -82.237511 
L 495.821327 -81.709745 
L 501.604678 -81.768859 
L 507.388029 -81.097976 
L 513.171379 -80.614621 
L 518.95473 -80.792113 
L 524.738081 -80.947233 
L 530.521432 -81.333736 
L 536.304783 -81.443373 
L 542.088134 -81.619879 
L 547.871485 -81.666591 
L 553.654836 -81.942365 
L 559.438187 -81.961818 
L 565.221538 -82.18053 
L 571.004889 -82.077978 
L 576.78824 -82.105201 
L 582.571591 -81.598841 
L 582.571591 -83.035461 
L 582.571591 -83.035461 
L 576.78824 -83.597034 
L 571.004889 -83.539282 
L 565.221538 -83.632024 
L 559.438187 -83.51906 
L 553.654836 -83.516315 
L 547.871485 -83.310133 
L 542.088134 -83.131643 
L 536.304783 -82.989963 
L 530.521432 -82.884755 
L 524.738081 -82.453118 
L 518.95473 -82.317198 
L 513.171379 -82.195153 
L 507.388029 -82.763294 
L 501.604678 -83.413152 
L 495.821327 -83.478662 
L 490.037976 -83.947325 
L 484.254625 -84.22672 
L 478.471274 -84.647439 
L 472.687923 -84.997918 
L 466.904572 -85.980369 
L 461.121221 -87.087593 
L 455.33787 -87.849472 
L 449.554519 -88.192776 
L 443.771168 -89.483347 
L 437.987817 -90.821771 
L 432.204466 -92.01194 
L 426.421115 -93.118225 
L 420.637764 -93.486752 
L 414.854413 -94.841561 
L 409.071062 -95.598035 
L 403.287711 -95.959697 
L 397.50436 -96.250395 
L 391.72101 -96.887361 
L 385.937659 -98.044604 
L 380.154308 -98.745603 
L 374.370957 -98.829346 
L 368.587606 -98.742936 
L 362.804255 -99.250888 
L 357.020904 -99.3202 
L 351.237553 -99.621618 
L 345.454202 -99.961114 
L 339.670851 -99.830268 
L 333.8875 -100.254984 
L 328.104149 -99.615351 
L 322.320798 -99.04564 
L 316.537447 -98.71655 
L 310.754096 -99.62529 
L 304.970745 -99.066053 
L 299.187394 -98.877731 
L 293.404043 -98.39328 
L 287.620692 -98.16695 
L 281.837341 -97.221183 
L 276.05399 -96.663153 
L 270.27064 -96.118583 
L 264.487289 -95.317886 
L 258.703938 -95.626694 
L 252.920587 -95.207249 
L 247.137236 -94.123734 
L 241.353885 -93.656837 
L 235.570534 -93.579379 
L 229.787183 -93.699912 
L 224.003832 -93.980279 
L 218.220481 -93.569771 
L 212.43713 -93.681199 
L 206.653779 -94.04781 
L 200.870428 -92.993337 
L 195.087077 -93.326715 
L 189.303726 -93.027566 
L 183.520375 -92.860873 
L 177.737024 -91.692617 
L 171.953673 -91.789415 
L 166.170322 -91.695882 
L 160.386971 -90.705186 
L 154.603621 -89.664002 
L 148.82027 -89.162166 
L 143.036919 -88.251202 
L 137.253568 -87.274631 
L 131.470217 -86.146448 
L 125.686866 -84.375815 
L 119.903515 -83.697942 
L 114.120164 -82.716305 
L 108.336813 -81.532279 
L 102.553462 -80.536232 
L 96.770111 -79.558727 
L 90.98676 -78.804607 
L 85.203409 -78.361919 
z
" style="stroke: #00008b; stroke-opacity: 0.1"/>
    </defs>
    <g clip-path="url(#p66650cc966)">
     <use xlink:href="#m7fa16d1927" x="0" y="432" style="fill: #00008b; fill-opacity: 0.1; stroke: #00008b; stroke-opacity: 0.1"/>
    </g>
   </g>
   <g id="PathCollection_2">
    <defs>
     <path id="mb7af5e7a0b" d="M 0 -3 
L -0.673542 -0.927051 
L -2.85317 -0.927051 
L -1.089814 0.354102 
L -1.763356 2.427051 
L -0 1.145898 
L 1.763356 2.427051 
L 1.089814 0.354102 
L 2.85317 -0.927051 
L 0.673542 -0.927051 
z
" style="stroke: #00008b"/>
    </defs>
    <g clip-path="url(#p66650cc966)">
     <use xlink:href="#mb7af5e7a0b" x="224.003832" y="362.559091" style="fill: #00008b; stroke: #00008b"/>
     <use xlink:href="#mb7af5e7a0b" x="229.787183" y="362.559091" style="fill: #00008b; stroke: #00008b"/>
     <use xlink:href="#mb7af5e7a0b" x="235.570534" y="362.559091" style="fill: #00008b; stroke: #00008b"/>
     <use xlink:href="#mb7af5e7a0b" x="241.353885" y="362.559091" style="fill: #00008b; stroke: #00008b"/>
     <use xlink:href="#mb7af5e7a0b" x="247.137236" y="362.559091" style="fill: #00008b; stroke: #00008b"/>
     <use xlink:href="#mb7af5e7a0b" x="252.920587" y="362.559091" style="fill: #00008b; stroke: #00008b"/>
     <use xlink:href="#mb7af5e7a0b" x="258.703938" y="362.559091" style="fill: #00008b; stroke: #00008b"/>
     <use xlink:href="#mb7af5e7a0b" x="264.487289" y="362.559091" style="fill: #00008b; stroke: #00008b"/>
     <use xlink:href="#mb7af5e7a0b" x="270.27064" y="362.559091" style="fill: #00008b; stroke: #00008b"/>
     <use xlink:href="#mb7af5e7a0b" x="276.05399" y="362.559091" style="fill: #00008b; stroke: #00008b"/>
     <use xlink:href="#mb7af5e7a0b" x="281.837341" y="362.559091" style="fill: #00008b; stroke: #00008b"/>
     <use xlink:href="#mb7af5e7a0b" x="287.620692" y="362.559091" style="fill: #00008b; stroke: #00008b"/>
     <use xlink:href="#mb7af5e7a0b" x="293.404043" y="362.559091" style="fill: #00008b; stroke: #00008b"/>
     <use xlink:href="#mb7af5e7a0b" x="299.187394" y="362.559091" style="fill: #00008b; stroke: #00008b"/>
     <use xlink:href="#mb7af5e7a0b" x="304.970745" y="362.559091" style="fill: #00008b; stroke: #00008b"/>
     <use xlink:href="#mb7af5e7a0b" x="310.754096" y="362.559091" style="fill: #00008b; stroke: #00008b"/>
     <use xlink:href="#mb7af5e7a0b" x="316.537447" y="362.559091" style="fill: #00008b; stroke: #00008b"/>
     <use xlink:href="#mb7af5e7a0b" x="322.320798" y="362.559091" style="fill: #00008b; stroke: #00008b"/>
     <use xlink:href="#mb7af5e7a0b" x="328.104149" y="362.559091" style="fill: #00008b; stroke: #00008b"/>
     <use xlink:href="#mb7af5e7a0b" x="333.8875" y="362.559091" style="fill: #00008b; stroke: #00008b"/>
     <use xlink:href="#mb7af5e7a0b" x="339.670851" y="362.559091" style="fill: #00008b; stroke: #00008b"/>
     <use xlink:href="#mb7af5e7a0b" x="345.454202" y="362.559091" style="fill: #00008b; stroke: #00008b"/>
     <use xlink:href="#mb7af5e7a0b" x="351.237553" y="362.559091" style="fill: #00008b; stroke: #00008b"/>
     <use xlink:href="#mb7af5e7a0b" x="357.020904" y="362.559091" style="fill: #00008b; stroke: #00008b"/>
     <use xlink:href="#mb7af5e7a0b" x="362.804255" y="362.559091" style="fill: #00008b; stroke: #00008b"/>
     <use xlink:href="#mb7af5e7a0b" x="368.587606" y="362.559091" style="fill: #00008b; stroke: #00008b"/>
     <use xlink:href="#mb7af5e7a0b" x="374.370957" y="362.559091" style="fill: #00008b; stroke: #00008b"/>
     <use xlink:href="#mb7af5e7a0b" x="380.154308" y="362.559091" style="fill: #00008b; stroke: #00008b"/>
     <use xlink:href="#mb7af5e7a0b" x="385.937659" y="362.559091" style="fill: #00008b; stroke: #00008b"/>
     <use xlink:href="#mb7af5e7a0b" x="391.72101" y="362.559091" style="fill: #00008b; stroke: #00008b"/>
     <use xlink:href="#mb7af5e7a0b" x="397.50436" y="362.559091" style="fill: #00008b; stroke: #00008b"/>
     <use xlink:href="#mb7af5e7a0b" x="403.287711" y="362.559091" style="fill: #00008b; stroke: #00008b"/>
     <use xlink:href="#mb7af5e7a0b" x="409.071062" y="362.559091" style="fill: #00008b; stroke: #00008b"/>
     <use xlink:href="#mb7af5e7a0b" x="414.854413" y="362.559091" style="fill: #00008b; stroke: #00008b"/>
     <use xlink:href="#mb7af5e7a0b" x="420.637764" y="362.559091" style="fill: #00008b; stroke: #00008b"/>
     <use xlink:href="#mb7af5e7a0b" x="426.421115" y="362.559091" style="fill: #00008b; stroke: #00008b"/>
     <use xlink:href="#mb7af5e7a0b" x="432.204466" y="362.559091" style="fill: #00008b; stroke: #00008b"/>
     <use xlink:href="#mb7af5e7a0b" x="437.987817" y="362.559091" style="fill: #00008b; stroke: #00008b"/>
     <use xlink:href="#mb7af5e7a0b" x="443.771168" y="362.559091" style="fill: #00008b; stroke: #00008b"/>
     <use xlink:href="#mb7af5e7a0b" x="449.554519" y="362.559091" style="fill: #00008b; stroke: #00008b"/>
     <use xlink:href="#mb7af5e7a0b" x="455.33787" y="362.559091" style="fill: #00008b; stroke: #00008b"/>
     <use xlink:href="#mb7af5e7a0b" x="461.121221" y="362.559091" style="fill: #00008b; stroke: #00008b"/>
     <use xlink:href="#mb7af5e7a0b" x="466.904572" y="362.559091" style="fill: #00008b; stroke: #00008b"/>
     <use xlink:href="#mb7af5e7a0b" x="472.687923" y="362.559091" style="fill: #00008b; stroke: #00008b"/>
     <use xlink:href="#mb7af5e7a0b" x="478.471274" y="362.559091" style="fill: #00008b; stroke: #00008b"/>
     <use xlink:href="#mb7af5e7a0b" x="484.254625" y="362.559091" style="fill: #00008b; stroke: #00008b"/>
     <use xlink:href="#mb7af5e7a0b" x="490.037976" y="362.559091" style="fill: #00008b; stroke: #00008b"/>
     <use xlink:href="#mb7af5e7a0b" x="495.821327" y="362.559091" style="fill: #00008b; stroke: #00008b"/>
     <use xlink:href="#mb7af5e7a0b" x="501.604678" y="362.559091" style="fill: #00008b; stroke: #00008b"/>
     <use xlink:href="#mb7af5e7a0b" x="507.388029" y="362.559091" style="fill: #00008b; stroke: #00008b"/>
     <use xlink:href="#mb7af5e7a0b" x="513.171379" y="362.559091" style="fill: #00008b; stroke: #00008b"/>
     <use xlink:href="#mb7af5e7a0b" x="518.95473" y="362.559091" style="fill: #00008b; stroke: #00008b"/>
     <use xlink:href="#mb7af5e7a0b" x="524.738081" y="362.559091" style="fill: #00008b; stroke: #00008b"/>
     <use xlink:href="#mb7af5e7a0b" x="530.521432" y="362.559091" style="fill: #00008b; stroke: #00008b"/>
     <use xlink:href="#mb7af5e7a0b" x="536.304783" y="362.559091" style="fill: #00008b; stroke: #00008b"/>
     <use xlink:href="#mb7af5e7a0b" x="542.088134" y="362.559091" style="fill: #00008b; stroke: #00008b"/>
     <use xlink:href="#mb7af5e7a0b" x="547.871485" y="362.559091" style="fill: #00008b; stroke: #00008b"/>
     <use xlink:href="#mb7af5e7a0b" x="553.654836" y="362.559091" style="fill: #00008b; stroke: #00008b"/>
     <use xlink:href="#mb7af5e7a0b" x="559.438187" y="362.559091" style="fill: #00008b; stroke: #00008b"/>
     <use xlink:href="#mb7af5e7a0b" x="565.221538" y="362.559091" style="fill: #00008b; stroke: #00008b"/>
     <use xlink:href="#mb7af5e7a0b" x="571.004889" y="362.559091" style="fill: #00008b; stroke: #00008b"/>
     <use xlink:href="#mb7af5e7a0b" x="576.78824" y="362.559091" style="fill: #00008b; stroke: #00008b"/>
     <use xlink:href="#mb7af5e7a0b" x="582.571591" y="362.559091" style="fill: #00008b; stroke: #00008b"/>
    </g>
   </g>
   <g id="line2d_17">
    <path d="M 85.203409 353.808178 
L 90.98676 356.392776 
L 96.770111 354.134484 
L 102.553462 354.975371 
L 108.336813 354.892311 
L 114.120164 354.1349 
L 119.903515 354.061107 
L 125.686866 354.26974 
L 131.470217 353.743905 
L 137.253568 354.745456 
L 143.036919 350.638965 
L 148.82027 349.449545 
L 154.603621 348.404769 
L 160.386971 347.732707 
L 166.170322 347.91586 
L 171.953673 343.510931 
L 177.737024 351.53628 
L 183.520375 350.842061 
L 189.303726 348.550612 
L 195.087077 350.000312 
L 200.870428 349.829644 
L 206.653779 349.046817 
L 212.43713 342.377181 
L 218.220481 340.379134 
L 224.003832 335.231306 
L 229.787183 332.439876 
L 235.570534 328.018347 
L 241.353885 326.312964 
L 247.137236 326.750278 
L 252.920587 320.010129 
L 258.703938 313.589509 
L 264.487289 311.831849 
L 270.27064 310.84046 
L 276.05399 303.015 
L 281.837341 290.761394 
L 287.620692 290.987215 
L 293.404043 287.415592 
L 299.187394 287.335108 
L 304.970745 288.383837 
L 310.754096 290.102124 
L 316.537447 293.121097 
L 322.320798 288.858415 
L 328.104149 293.22624 
L 333.8875 295.678755 
L 339.670851 298.929706 
L 345.454202 306.089791 
L 351.237553 312.900841 
L 357.020904 312.045026 
L 362.804255 313.066641 
L 368.587606 319.630654 
L 374.370957 325.306334 
L 380.154308 332.463259 
L 385.937659 333.585426 
L 391.72101 334.000663 
L 397.50436 336.67286 
L 403.287711 334.979193 
L 409.071062 336.023904 
L 414.854413 343.78033 
L 420.637764 347.974916 
L 426.421115 351.2901 
L 432.204466 349.7107 
L 437.987817 350.912737 
L 443.771168 354.081488 
L 449.554519 354.481294 
L 455.33787 354.441045 
L 461.121221 353.300655 
L 466.904572 354.285406 
L 472.687923 353.297776 
L 478.471274 354.635578 
L 484.254625 351.553802 
L 490.037976 350.614776 
L 495.821327 352.004984 
L 501.604678 351.706707 
L 507.388029 354.786252 
L 513.171379 351.717581 
L 518.95473 351.344435 
L 524.738081 354.224846 
L 530.521432 353.419728 
L 536.304783 352.562582 
L 542.088134 354.341483 
L 547.871485 351.106277 
L 553.654836 353.154105 
L 559.438187 354.048572 
L 565.221538 353.021341 
L 571.004889 354.4761 
L 576.78824 352.573973 
L 582.571591 356.71429 
" clip-path="url(#p66650cc966)" style="fill: none; stroke: #6060eb; stroke-width: 2; stroke-linecap: round"/>
   </g>
   <g id="line2d_18">
    <path d="M 85.203409 353.876621 
L 90.98676 353.555017 
L 96.770111 353.639276 
L 102.553462 353.401044 
L 108.336813 353.774742 
L 114.120164 353.673005 
L 119.903515 353.80984 
L 125.686866 354.074116 
L 131.470217 354.136427 
L 137.253568 354.396372 
L 143.036919 350.19392 
L 148.82027 350.331865 
L 154.603621 348.393788 
L 160.386971 346.105295 
L 166.170322 346.260656 
L 171.953673 348.187727 
L 177.737024 347.047535 
L 183.520375 343.819695 
L 189.303726 342.587545 
L 195.087077 343.782048 
L 200.870428 345.412594 
L 206.653779 347.44252 
L 212.43713 349.384472 
L 218.220481 351.137035 
L 224.003832 351.420666 
L 229.787183 349.378293 
L 235.570534 347.501927 
L 241.353885 348.309548 
L 247.137236 349.368692 
L 252.920587 350.288318 
L 258.703938 349.511278 
L 264.487289 348.586398 
L 270.27064 348.300138 
L 276.05399 348.448067 
L 281.837341 347.020483 
L 287.620692 345.481049 
L 293.404043 346.036529 
L 299.187394 348.106156 
L 304.970745 349.126192 
L 310.754096 351.769731 
L 316.537447 351.763946 
L 322.320798 349.373064 
L 328.104149 347.667131 
L 333.8875 346.041133 
L 339.670851 344.383953 
L 345.454202 344.915612 
L 351.237553 345.542148 
L 357.020904 346.130362 
L 362.804255 346.519269 
L 368.587606 344.721922 
L 374.370957 343.723922 
L 380.154308 345.350855 
L 385.937659 345.536458 
L 391.72101 344.76512 
L 397.50436 344.333626 
L 403.287711 342.333787 
L 409.071062 341.999238 
L 414.854413 345.233599 
L 420.637764 347.102626 
L 426.421115 349.431335 
L 432.204466 352.066371 
L 437.987817 351.720899 
L 443.771168 352.333014 
L 449.554519 352.595363 
L 455.33787 352.3825 
L 461.121221 352.244322 
L 466.904572 352.702417 
L 472.687923 352.402736 
L 478.471274 352.167598 
L 484.254625 352.693323 
L 490.037976 352.926904 
L 495.821327 352.591913 
L 501.604678 352.729732 
L 507.388029 352.700314 
L 513.171379 352.41976 
L 518.95473 352.792769 
L 524.738081 352.516346 
L 530.521432 352.523512 
L 536.304783 352.612076 
L 542.088134 352.531685 
L 547.871485 352.423884 
L 553.654836 352.702394 
L 559.438187 352.779675 
L 565.221538 352.646442 
L 571.004889 352.626609 
L 576.78824 352.432933 
L 582.571591 352.994348 
" clip-path="url(#p66650cc966)" style="fill: none; stroke-dasharray: 7.4,3.2; stroke-dashoffset: 0; stroke: #6060eb; stroke-width: 2"/>
   </g>
   <g id="line2d_19">
    <path d="M 143.036919 378.54 
L 143.036919 26.96 
" clip-path="url(#p66650cc966)" style="fill: none; stroke-dasharray: 5.55,2.4; stroke-dashoffset: 0; stroke: #1a1a1a; stroke-width: 1.5"/>
   </g>
   <g id="line2d_20">
    <path d="M 432.204466 378.54 
L 432.204466 26.96 
" clip-path="url(#p66650cc966)" style="fill: none; stroke-dasharray: 5.55,2.4; stroke-dashoffset: 0; stroke: #1a1a1a; stroke-width: 1.5"/>
   </g>
   <g id="line2d_21">
    <path d="M 85.203409 351.476185 
L 90.98676 351.692035 
L 96.770111 350.608511 
L 102.553462 352.791761 
L 108.336813 350.603214 
L 114.120164 351.325728 
L 119.903515 349.865799 
L 125.686866 347.774755 
L 131.470217 347.485416 
L 137.253568 349.176194 
L 143.036919 349.3935 
L 148.82027 347.126106 
L 154.603621 348.078614 
L 160.386971 347.916072 
L 166.170322 345.371989 
L 171.953673 344.945208 
L 177.737024 343.022218 
L 183.520375 340.388723 
L 189.303726 336.300306 
L 195.087077 334.851568 
L 200.870428 333.644443 
L 206.653779 332.187343 
L 212.43713 334.023405 
L 218.220481 330.044567 
L 224.003832 326.081176 
L 229.787183 319.914261 
L 235.570534 314.114981 
L 241.353885 309.973608 
L 247.137236 302.452598 
L 252.920587 295.945294 
L 258.703938 287.410141 
L 264.487289 280.346632 
L 270.27064 267.370296 
L 276.05399 255.992226 
L 281.837341 241.208325 
L 287.620692 223.984124 
L 293.404043 209.483006 
L 299.187394 194.581558 
L 304.970745 179.777983 
L 310.754096 163.812285 
L 316.537447 149.256125 
L 322.320798 136.002404 
L 328.104149 123.180221 
L 333.8875 109.017182 
L 339.670851 98.623744 
L 345.454202 88.036536 
L 351.237553 81.379391 
L 357.020904 77.747509 
L 362.804255 74.983718 
L 368.587606 70.804587 
L 374.370957 66.156544 
L 380.154308 64.238386 
L 385.937659 63.002357 
L 391.72101 64.7181 
L 397.50436 68.218641 
L 403.287711 69.420761 
L 409.071062 71.791973 
L 414.854413 71.220317 
L 420.637764 75.194722 
L 426.421115 77.68005 
L 432.204466 83.053489 
L 437.987817 92.278265 
L 443.771168 102.355554 
L 449.554519 110.620414 
L 455.33787 121.760832 
L 461.121221 131.461754 
L 466.904572 137.668556 
L 472.687923 145.862476 
L 478.471274 153.787107 
L 484.254625 160.007057 
L 490.037976 164.205415 
L 495.821327 169.043297 
L 501.604678 173.168326 
L 507.388029 175.546722 
L 513.171379 178.59138 
L 518.95473 182.279217 
L 524.738081 187.916813 
L 530.521432 188.743768 
L 536.304783 192.920181 
L 542.088134 195.960594 
L 547.871485 197.448454 
L 553.654836 200.171412 
L 559.438187 200.594036 
L 565.221538 203.841737 
L 571.004889 205.806462 
L 576.78824 208.995916 
L 582.571591 211.523968 
" clip-path="url(#p66650cc966)" style="fill: none; stroke: #00008b; stroke-width: 2; stroke-linecap: round"/>
   </g>
   <g id="line2d_22">
    <path d="M 85.203409 353.988838 
L 90.98676 353.684299 
L 96.770111 353.094556 
L 102.553462 352.158206 
L 108.336813 351.186243 
L 114.120164 350.068278 
L 119.903515 349.214986 
L 125.686866 348.595981 
L 131.470217 346.8218 
L 137.253568 345.736955 
L 143.036919 344.748346 
L 148.82027 343.813638 
L 154.603621 343.280729 
L 160.386971 342.228334 
L 166.170322 341.184383 
L 171.953673 341.128733 
L 177.737024 341.192105 
L 183.520375 340.042968 
L 189.303726 339.855858 
L 195.087077 339.52266 
L 200.870428 339.782867 
L 206.653779 338.712674 
L 212.43713 339.060312 
L 218.220481 339.157919 
L 224.003832 338.760726 
L 229.787183 339.029772 
L 235.570534 339.165375 
L 241.353885 339.057034 
L 247.137236 338.594621 
L 252.920587 337.511316 
L 258.703938 337.055513 
L 264.487289 337.368083 
L 270.27064 336.555566 
L 276.05399 336.014638 
L 281.837341 335.526311 
L 287.620692 334.586284 
L 293.404043 334.370138 
L 299.187394 333.929562 
L 304.970745 333.733115 
L 310.754096 333.184775 
L 316.537447 334.084816 
L 322.320798 333.744877 
L 328.104149 333.220725 
L 333.8875 332.622441 
L 339.670851 333.057916 
L 345.454202 332.944935 
L 351.237553 333.248246 
L 357.020904 333.525879 
L 362.804255 333.625887 
L 368.587606 334.134939 
L 374.370957 334.045674 
L 380.154308 334.120799 
L 385.937659 334.843788 
L 391.72101 336.039372 
L 397.50436 336.633863 
L 403.287711 336.925896 
L 409.071062 337.327032 
L 414.854413 338.056814 
L 420.637764 339.447453 
L 426.421115 339.821852 
L 432.204466 340.930275 
L 437.987817 342.081034 
L 443.771168 343.42814 
L 449.554519 344.677323 
L 455.33787 345.014599 
L 461.121221 345.776505 
L 466.904572 346.898974 
L 472.687923 347.856959 
L 478.471274 348.204865 
L 484.254625 348.62843 
L 490.037976 348.907582 
L 495.821327 349.405796 
L 501.604678 349.408995 
L 507.388029 350.069365 
L 513.171379 350.595113 
L 518.95473 350.445345 
L 524.738081 350.299825 
L 530.521432 349.890755 
L 536.304783 349.783332 
L 542.088134 349.624239 
L 547.871485 349.511638 
L 553.654836 349.27066 
L 559.438187 349.259561 
L 565.221538 349.093723 
L 571.004889 349.19137 
L 576.78824 349.148883 
L 582.571591 349.682849 
" clip-path="url(#p66650cc966)" style="fill: none; stroke-dasharray: 7.4,3.2; stroke-dashoffset: 0; stroke: #00008b; stroke-width: 2"/>
   </g>
   <g id="line2d_23">
    <path d="M 143.036919 378.54 
L 143.036919 26.96 
" clip-path="url(#p66650cc966)" style="fill: none; stroke-dasharray: 5.55,2.4; stroke-dashoffset: 0; stroke: #1a1a1a; stroke-width: 1.5"/>
   </g>
   <g id="line2d_24">
    <path d="M 432.204466 378.54 
L 432.204466 26.96 
" clip-path="url(#p66650cc966)" style="fill: none; stroke-dasharray: 5.55,2.4; stroke-dashoffset: 0; stroke: #1a1a1a; stroke-width: 1.5"/>
   </g>
   <g id="patch_3">
    <path d="M 60.335 378.54 
L 60.335 26.96 
" style="fill: none; stroke: #000000; stroke-width: 1.5; stroke-linejoin: miter; stroke-linecap: square"/>
   </g>
   <g id="patch_4">
    <path d="M 60.335 378.54 
L 607.44 378.54 
" style="fill: none; stroke: #000000; stroke-width: 1.5; stroke-linejoin: miter; stroke-linecap: square"/>
   </g>
   <g id="text_19">
    <!-- Divergence Comparison: Original vs Shuffled -->
    <g style="fill: #262626" transform="translate(214.2775 20.96) scale(0.12 -0.12)">
     <defs>
      <path id="ArialMT-43" d="M 3763 1606 
L 4369 1453 
Q 4178 706 3683 314 
Q 3188 -78 2472 -78 
Q 1731 -78 1267 223 
Q 803 525 561 1097 
Q 319 1669 319 2325 
Q 319 3041 592 3573 
Q 866 4106 1370 4382 
Q 1875 4659 2481 4659 
Q 3169 4659 3637 4309 
Q 4106 3959 4291 3325 
L 3694 3184 
Q 3534 3684 3231 3912 
Q 2928 4141 2469 4141 
Q 1941 4141 1586 3887 
Q 1231 3634 1087 3207 
Q 944 2781 944 2328 
Q 944 1744 1114 1308 
Q 1284 872 1643 656 
Q 2003 441 2422 441 
Q 2931 441 3284 734 
Q 3638 1028 3763 1606 
z
" transform="scale(0.015625)"/>
      <path id="ArialMT-6f" d="M 213 1659 
Q 213 2581 725 3025 
Q 1153 3394 1769 3394 
Q 2453 3394 2887 2945 
Q 3322 2497 3322 1706 
Q 3322 1066 3130 698 
Q 2938 331 2570 128 
Q 2203 -75 1769 -75 
Q 1072 -75 642 372 
Q 213 819 213 1659 
z
M 791 1659 
Q 791 1022 1069 705 
Q 1347 388 1769 388 
Q 2188 388 2466 706 
Q 2744 1025 2744 1678 
Q 2744 2294 2464 2611 
Q 2184 2928 1769 2928 
Q 1347 2928 1069 2612 
Q 791 2297 791 1659 
z
" transform="scale(0.015625)"/>
      <path id="ArialMT-70" d="M 422 -1272 
L 422 3319 
L 934 3319 
L 934 2888 
Q 1116 3141 1344 3267 
Q 1572 3394 1897 3394 
Q 2322 3394 2647 3175 
Q 2972 2956 3137 2557 
Q 3303 2159 3303 1684 
Q 3303 1175 3120 767 
Q 2938 359 2589 142 
Q 2241 -75 1856 -75 
Q 1575 -75 1351 44 
Q 1128 163 984 344 
L 984 -1272 
L 422 -1272 
z
M 931 1641 
Q 931 1000 1190 694 
Q 1450 388 1819 388 
Q 2194 388 2461 705 
Q 2728 1022 2728 1688 
Q 2728 2322 2467 2637 
Q 2206 2953 1844 2953 
Q 1484 2953 1207 2617 
Q 931 2281 931 1641 
z
" transform="scale(0.015625)"/>
      <path id="ArialMT-61" d="M 2588 409 
Q 2275 144 1986 34 
Q 1697 -75 1366 -75 
Q 819 -75 525 192 
Q 231 459 231 875 
Q 231 1119 342 1320 
Q 453 1522 633 1644 
Q 813 1766 1038 1828 
Q 1203 1872 1538 1913 
Q 2219 1994 2541 2106 
Q 2544 2222 2544 2253 
Q 2544 2597 2384 2738 
Q 2169 2928 1744 2928 
Q 1347 2928 1158 2789 
Q 969 2650 878 2297 
L 328 2372 
Q 403 2725 575 2942 
Q 747 3159 1072 3276 
Q 1397 3394 1825 3394 
Q 2250 3394 2515 3294 
Q 2781 3194 2906 3042 
Q 3031 2891 3081 2659 
Q 3109 2516 3109 2141 
L 3109 1391 
Q 3109 606 3145 398 
Q 3181 191 3288 0 
L 2700 0 
Q 2613 175 2588 409 
z
M 2541 1666 
Q 2234 1541 1622 1453 
Q 1275 1403 1131 1340 
Q 988 1278 909 1158 
Q 831 1038 831 891 
Q 831 666 1001 516 
Q 1172 366 1500 366 
Q 1825 366 2078 508 
Q 2331 650 2450 897 
Q 2541 1088 2541 1459 
L 2541 1666 
z
" transform="scale(0.015625)"/>
      <path id="ArialMT-3a" d="M 578 2678 
L 578 3319 
L 1219 3319 
L 1219 2678 
L 578 2678 
z
M 578 0 
L 578 641 
L 1219 641 
L 1219 0 
L 578 0 
z
" transform="scale(0.015625)"/>
      <path id="ArialMT-4f" d="M 309 2231 
Q 309 3372 921 4017 
Q 1534 4663 2503 4663 
Q 3138 4663 3647 4359 
Q 4156 4056 4423 3514 
Q 4691 2972 4691 2284 
Q 4691 1588 4409 1038 
Q 4128 488 3612 205 
Q 3097 -78 2500 -78 
Q 1853 -78 1343 234 
Q 834 547 571 1087 
Q 309 1628 309 2231 
z
M 934 2222 
Q 934 1394 1379 917 
Q 1825 441 2497 441 
Q 3181 441 3623 922 
Q 4066 1403 4066 2288 
Q 4066 2847 3877 3264 
Q 3688 3681 3323 3911 
Q 2959 4141 2506 4141 
Q 1863 4141 1398 3698 
Q 934 3256 934 2222 
z
" transform="scale(0.015625)"/>
      <path id="ArialMT-6c" d="M 409 0 
L 409 4581 
L 972 4581 
L 972 0 
L 409 0 
z
" transform="scale(0.015625)"/>
      <path id="ArialMT-53" d="M 288 1472 
L 859 1522 
Q 900 1178 1048 958 
Q 1197 738 1509 602 
Q 1822 466 2213 466 
Q 2559 466 2825 569 
Q 3091 672 3220 851 
Q 3350 1031 3350 1244 
Q 3350 1459 3225 1620 
Q 3100 1781 2813 1891 
Q 2628 1963 1997 2114 
Q 1366 2266 1113 2400 
Q 784 2572 623 2826 
Q 463 3081 463 3397 
Q 463 3744 659 4045 
Q 856 4347 1234 4503 
Q 1613 4659 2075 4659 
Q 2584 4659 2973 4495 
Q 3363 4331 3572 4012 
Q 3781 3694 3797 3291 
L 3216 3247 
Q 3169 3681 2898 3903 
Q 2628 4125 2100 4125 
Q 1550 4125 1298 3923 
Q 1047 3722 1047 3438 
Q 1047 3191 1225 3031 
Q 1400 2872 2139 2705 
Q 2878 2538 3153 2413 
Q 3553 2228 3743 1945 
Q 3934 1663 3934 1294 
Q 3934 928 3725 604 
Q 3516 281 3123 101 
Q 2731 -78 2241 -78 
Q 1619 -78 1198 103 
Q 778 284 539 648 
Q 300 1013 288 1472 
z
" transform="scale(0.015625)"/>
      <path id="ArialMT-68" d="M 422 0 
L 422 4581 
L 984 4581 
L 984 2938 
Q 1378 3394 1978 3394 
Q 2347 3394 2619 3248 
Q 2891 3103 3008 2847 
Q 3125 2591 3125 2103 
L 3125 0 
L 2563 0 
L 2563 2103 
Q 2563 2525 2380 2717 
Q 2197 2909 1863 2909 
Q 1613 2909 1392 2779 
Q 1172 2650 1078 2428 
Q 984 2206 984 1816 
L 984 0 
L 422 0 
z
" transform="scale(0.015625)"/>
      <path id="ArialMT-75" d="M 2597 0 
L 2597 488 
Q 2209 -75 1544 -75 
Q 1250 -75 995 37 
Q 741 150 617 320 
Q 494 491 444 738 
Q 409 903 409 1263 
L 409 3319 
L 972 3319 
L 972 1478 
Q 972 1038 1006 884 
Q 1059 663 1231 536 
Q 1403 409 1656 409 
Q 1909 409 2131 539 
Q 2353 669 2445 892 
Q 2538 1116 2538 1541 
L 2538 3319 
L 3100 3319 
L 3100 0 
L 2597 0 
z
" transform="scale(0.015625)"/>
      <path id="ArialMT-66" d="M 556 0 
L 556 2881 
L 59 2881 
L 59 3319 
L 556 3319 
L 556 3672 
Q 556 4006 616 4169 
Q 697 4388 901 4523 
Q 1106 4659 1475 4659 
Q 1713 4659 2000 4603 
L 1916 4113 
Q 1741 4144 1584 4144 
Q 1328 4144 1222 4034 
Q 1116 3925 1116 3625 
L 1116 3319 
L 1763 3319 
L 1763 2881 
L 1116 2881 
L 1116 0 
L 556 0 
z
" transform="scale(0.015625)"/>
      <path id="ArialMT-64" d="M 2575 0 
L 2575 419 
Q 2259 -75 1647 -75 
Q 1250 -75 917 144 
Q 584 363 401 755 
Q 219 1147 219 1656 
Q 219 2153 384 2558 
Q 550 2963 881 3178 
Q 1213 3394 1622 3394 
Q 1922 3394 2156 3267 
Q 2391 3141 2538 2938 
L 2538 4581 
L 3097 4581 
L 3097 0 
L 2575 0 
z
M 797 1656 
Q 797 1019 1065 703 
Q 1334 388 1700 388 
Q 2069 388 2326 689 
Q 2584 991 2584 1609 
Q 2584 2291 2321 2609 
Q 2059 2928 1675 2928 
Q 1300 2928 1048 2622 
Q 797 2316 797 1656 
z
" transform="scale(0.015625)"/>
     </defs>
     <use xlink:href="#ArialMT-44"/>
     <use xlink:href="#ArialMT-69" x="72.216797"/>
     <use xlink:href="#ArialMT-76" x="94.433594"/>
     <use xlink:href="#ArialMT-65" x="144.433594"/>
     <use xlink:href="#ArialMT-72" x="200.048828"/>
     <use xlink:href="#ArialMT-67" x="233.349609"/>
     <use xlink:href="#ArialMT-65" x="288.964844"/>
     <use xlink:href="#ArialMT-6e" x="344.580078"/>
     <use xlink:href="#ArialMT-63" x="400.195312"/>
     <use xlink:href="#ArialMT-65" x="450.195312"/>
     <use xlink:href="#ArialMT-20" x="505.810547"/>
     <use xlink:href="#ArialMT-43" x="533.59375"/>
     <use xlink:href="#ArialMT-6f" x="605.810547"/>
     <use xlink:href="#ArialMT-6d" x="661.425781"/>
     <use xlink:href="#ArialMT-70" x="744.726562"/>
     <use xlink:href="#ArialMT-61" x="800.341797"/>
     <use xlink:href="#ArialMT-72" x="855.957031"/>
     <use xlink:href="#ArialMT-69" x="889.257812"/>
     <use xlink:href="#ArialMT-73" x="911.474609"/>
     <use xlink:href="#ArialMT-6f" x="961.474609"/>
     <use xlink:href="#ArialMT-6e" x="1017.089844"/>
     <use xlink:href="#ArialMT-3a" x="1072.705078"/>
     <use xlink:href="#ArialMT-20" x="1100.488281"/>
     <use xlink:href="#ArialMT-4f" x="1128.271484"/>
     <use xlink:href="#ArialMT-72" x="1206.054688"/>
     <use xlink:href="#ArialMT-69" x="1239.355469"/>
     <use xlink:href="#ArialMT-67" x="1261.572266"/>
     <use xlink:href="#ArialMT-69" x="1317.1875"/>
     <use xlink:href="#ArialMT-6e" x="1339.404297"/>
     <use xlink:href="#ArialMT-61" x="1395.019531"/>
     <use xlink:href="#ArialMT-6c" x="1450.634766"/>
     <use xlink:href="#ArialMT-20" x="1472.851562"/>
     <use xlink:href="#ArialMT-76" x="1500.634766"/>
     <use xlink:href="#ArialMT-73" x="1550.634766"/>
     <use xlink:href="#ArialMT-20" x="1600.634766"/>
     <use xlink:href="#ArialMT-53" x="1628.417969"/>
     <use xlink:href="#ArialMT-68" x="1695.117188"/>
     <use xlink:href="#ArialMT-75" x="1750.732422"/>
     <use xlink:href="#ArialMT-66" x="1806.347656"/>
     <use xlink:href="#ArialMT-66" x="1832.380859"/>
     <use xlink:href="#ArialMT-6c" x="1860.164062"/>
     <use xlink:href="#ArialMT-65" x="1882.380859"/>
     <use xlink:href="#ArialMT-64" x="1937.996094"/>
    </g>
   </g>
   <g id="legend_1">
    <g id="patch_5">
     <path d="M 615.14 259.415469 
L 704.741875 259.415469 
Q 706.941875 259.415469 706.941875 257.215469 
L 706.941875 148.284531 
Q 706.941875 146.084531 704.741875 146.084531 
L 615.14 146.084531 
Q 612.94 146.084531 612.94 148.284531 
L 612.94 257.215469 
Q 612.94 259.415469 615.14 259.415469 
z
" style="fill: #ffffff; opacity: 0.8; stroke: #cccccc; stroke-linejoin: miter"/>
    </g>
    <g id="line2d_25">
     <path d="M 617.34 154.649062 
L 628.34 154.649062 
L 639.34 154.649062 
" style="fill: none; stroke: #6060eb; stroke-width: 2; stroke-linecap: round"/>
    </g>
    <g id="text_20">
     <!-- Original -->
     <g style="fill: #262626" transform="translate(648.14 158.499062) scale(0.11 -0.11)">
      <use xlink:href="#ArialMT-4f"/>
      <use xlink:href="#ArialMT-72" x="77.783203"/>
      <use xlink:href="#ArialMT-69" x="111.083984"/>
      <use xlink:href="#ArialMT-67" x="133.300781"/>
      <use xlink:href="#ArialMT-69" x="188.916016"/>
      <use xlink:href="#ArialMT-6e" x="211.132812"/>
      <use xlink:href="#ArialMT-61" x="266.748047"/>
      <use xlink:href="#ArialMT-6c" x="322.363281"/>
     </g>
    </g>
    <g id="line2d_26">
     <path d="M 617.34 170.47875 
L 628.34 170.47875 
L 639.34 170.47875 
" style="fill: none; stroke-dasharray: 7.4,3.2; stroke-dashoffset: 0; stroke: #6060eb; stroke-width: 2"/>
    </g>
    <g id="text_21">
     <!-- Original -->
     <g style="fill: #262626" transform="translate(648.14 174.32875) scale(0.11 -0.11)">
      <use xlink:href="#ArialMT-4f"/>
      <use xlink:href="#ArialMT-72" x="77.783203"/>
      <use xlink:href="#ArialMT-69" x="111.083984"/>
      <use xlink:href="#ArialMT-67" x="133.300781"/>
      <use xlink:href="#ArialMT-69" x="188.916016"/>
      <use xlink:href="#ArialMT-6e" x="211.132812"/>
      <use xlink:href="#ArialMT-61" x="266.748047"/>
      <use xlink:href="#ArialMT-6c" x="322.363281"/>
     </g>
    </g>
    <g id="PathCollection_3">
     <g>
      <use xlink:href="#m17bea7ce98" x="628.34" y="187.162656" style="fill: #6060eb; stroke: #6060eb"/>
     </g>
    </g>
    <g id="text_22">
     <!-- p &lt; 0.001 -->
     <g style="fill: #262626" transform="translate(648.14 190.050156) scale(0.11 -0.11)">
      <defs>
       <path id="ArialMT-3c" d="M 350 2003 
L 350 2528 
L 3384 3809 
L 3384 3250 
L 978 2263 
L 3384 1266 
L 3384 706 
L 350 2003 
z
" transform="scale(0.015625)"/>
      </defs>
      <use xlink:href="#ArialMT-70"/>
      <use xlink:href="#ArialMT-20" x="55.615234"/>
      <use xlink:href="#ArialMT-3c" x="83.398438"/>
      <use xlink:href="#ArialMT-20" x="141.796875"/>
      <use xlink:href="#ArialMT-30" x="169.580078"/>
      <use xlink:href="#ArialMT-2e" x="225.195312"/>
      <use xlink:href="#ArialMT-30" x="252.978516"/>
      <use xlink:href="#ArialMT-30" x="308.59375"/>
      <use xlink:href="#ArialMT-31" x="364.208984"/>
     </g>
    </g>
    <g id="line2d_27">
     <path d="M 617.34 201.76 
L 628.34 201.76 
L 639.34 201.76 
" style="fill: none; stroke-dasharray: 5.55,2.4; stroke-dashoffset: 0; stroke: #1a1a1a; stroke-width: 1.5"/>
    </g>
    <g id="text_23">
     <!-- Stim Onset -->
     <g style="fill: #262626" transform="translate(648.14 205.61) scale(0.11 -0.11)">
      <defs>
       <path id="ArialMT-74" d="M 1650 503 
L 1731 6 
Q 1494 -44 1306 -44 
Q 1000 -44 831 53 
Q 663 150 594 308 
Q 525 466 525 972 
L 525 2881 
L 113 2881 
L 113 3319 
L 525 3319 
L 525 4141 
L 1084 4478 
L 1084 3319 
L 1650 3319 
L 1650 2881 
L 1084 2881 
L 1084 941 
Q 1084 700 1114 631 
Q 1144 563 1211 522 
Q 1278 481 1403 481 
Q 1497 481 1650 503 
z
" transform="scale(0.015625)"/>
      </defs>
      <use xlink:href="#ArialMT-53"/>
      <use xlink:href="#ArialMT-74" x="66.699219"/>
      <use xlink:href="#ArialMT-69" x="94.482422"/>
      <use xlink:href="#ArialMT-6d" x="116.699219"/>
      <use xlink:href="#ArialMT-20" x="200"/>
      <use xlink:href="#ArialMT-4f" x="227.783203"/>
      <use xlink:href="#ArialMT-6e" x="305.566406"/>
      <use xlink:href="#ArialMT-73" x="361.181641"/>
      <use xlink:href="#ArialMT-65" x="411.181641"/>
      <use xlink:href="#ArialMT-74" x="466.796875"/>
     </g>
    </g>
    <g id="line2d_28">
     <path d="M 617.34 217.319844 
L 628.34 217.319844 
L 639.34 217.319844 
" style="fill: none; stroke-dasharray: 5.55,2.4; stroke-dashoffset: 0; stroke: #1a1a1a; stroke-width: 1.5"/>
    </g>
    <g id="text_24">
     <!-- Stim End -->
     <g style="fill: #262626" transform="translate(648.14 221.169844) scale(0.11 -0.11)">
      <defs>
       <path id="ArialMT-45" d="M 506 0 
L 506 4581 
L 3819 4581 
L 3819 4041 
L 1113 4041 
L 1113 2638 
L 3647 2638 
L 3647 2100 
L 1113 2100 
L 1113 541 
L 3925 541 
L 3925 0 
L 506 0 
z
" transform="scale(0.015625)"/>
      </defs>
      <use xlink:href="#ArialMT-53"/>
      <use xlink:href="#ArialMT-74" x="66.699219"/>
      <use xlink:href="#ArialMT-69" x="94.482422"/>
      <use xlink:href="#ArialMT-6d" x="116.699219"/>
      <use xlink:href="#ArialMT-20" x="200"/>
      <use xlink:href="#ArialMT-45" x="227.783203"/>
      <use xlink:href="#ArialMT-6e" x="294.482422"/>
      <use xlink:href="#ArialMT-64" x="350.097656"/>
     </g>
    </g>
    <g id="line2d_29">
     <path d="M 617.34 233.020625 
L 628.34 233.020625 
L 639.34 233.020625 
" style="fill: none; stroke: #00008b; stroke-width: 2; stroke-linecap: round"/>
    </g>
    <g id="text_25">
     <!-- Original -->
     <g style="fill: #262626" transform="translate(648.14 236.870625) scale(0.11 -0.11)">
      <use xlink:href="#ArialMT-4f"/>
      <use xlink:href="#ArialMT-72" x="77.783203"/>
      <use xlink:href="#ArialMT-69" x="111.083984"/>
      <use xlink:href="#ArialMT-67" x="133.300781"/>
      <use xlink:href="#ArialMT-69" x="188.916016"/>
      <use xlink:href="#ArialMT-6e" x="211.132812"/>
      <use xlink:href="#ArialMT-61" x="266.748047"/>
      <use xlink:href="#ArialMT-6c" x="322.363281"/>
     </g>
    </g>
    <g id="line2d_30">
     <path d="M 617.34 248.850313 
L 628.34 248.850313 
L 639.34 248.850313 
" style="fill: none; stroke-dasharray: 7.4,3.2; stroke-dashoffset: 0; stroke: #00008b; stroke-width: 2"/>
    </g>
    <g id="text_26">
     <!-- Original -->
     <g style="fill: #262626" transform="translate(648.14 252.700312) scale(0.11 -0.11)">
      <use xlink:href="#ArialMT-4f"/>
      <use xlink:href="#ArialMT-72" x="77.783203"/>
      <use xlink:href="#ArialMT-69" x="111.083984"/>
      <use xlink:href="#ArialMT-67" x="133.300781"/>
      <use xlink:href="#ArialMT-69" x="188.916016"/>
      <use xlink:href="#ArialMT-6e" x="211.132812"/>
      <use xlink:href="#ArialMT-61" x="266.748047"/>
      <use xlink:href="#ArialMT-6c" x="322.363281"/>
     </g>
    </g>
   </g>
  </g>
 </g>
 <defs>
  <clipPath id="p66650cc966">
   <rect x="60.335" y="26.96" width="547.105" height="351.58"/>
  </clipPath>
 </defs>
</svg>
