<?xml version="1.0" encoding="utf-8" standalone="no"?>
<!DOCTYPE svg PUBLIC "-//W3C//DTD SVG 1.1//EN"
  "http://www.w3.org/Graphics/SVG/1.1/DTD/svg11.dtd">
<svg xmlns:xlink="http://www.w3.org/1999/xlink" width="720pt" height="432pt" viewBox="0 0 720 432" xmlns="http://www.w3.org/2000/svg" version="1.1">
 <metadata>
  <rdf:RDF xmlns:dc="http://purl.org/dc/elements/1.1/" xmlns:cc="http://creativecommons.org/ns#" xmlns:rdf="http://www.w3.org/1999/02/22-rdf-syntax-ns#">
   <cc:Work>
    <dc:type rdf:resource="http://purl.org/dc/dcmitype/StillImage"/>
    <dc:date>2025-09-22T12:36:13.925419</dc:date>
    <dc:format>image/svg+xml</dc:format>
    <dc:creator>
     <cc:Agent>
      <dc:title>Matplotlib v3.9.4, https://matplotlib.org/</dc:title>
     </cc:Agent>
    </dc:creator>
   </cc:Work>
  </rdf:RDF>
 </metadata>
 <defs>
  <style type="text/css">*{stroke-linejoin: round; stroke-linecap: butt}</style>
 </defs>
 <g id="figure_1">
  <g id="patch_1">
   <path d="M 0 432 
L 720 432 
L 720 0 
L 0 0 
z
" style="fill: #ffffff"/>
  </g>
  <g id="axes_1">
   <g id="patch_2">
    <path d="M 69.71 377.54 
L 607.44 377.54 
L 607.44 26.96 
L 69.71 26.96 
L 69.71 377.54 
z
" style="fill: none"/>
   </g>
   <g id="matplotlib.axis_1">
    <g id="xtick_1">
     <g id="text_1">
      <!-- −500 -->
      <g style="fill: #262626" transform="translate(72.37124 397.776719) scale(0.15 -0.15)">
       <defs>
        <path id="ArialMT-2212" d="M 3381 1997 
L 356 1997 
L 356 2522 
L 3381 2522 
L 3381 1997 
z
" transform="scale(0.015625)"/>
        <path id="ArialMT-35" d="M 266 1200 
L 856 1250 
Q 922 819 1161 601 
Q 1400 384 1738 384 
Q 2144 384 2425 690 
Q 2706 997 2706 1503 
Q 2706 1984 2436 2262 
Q 2166 2541 1728 2541 
Q 1456 2541 1237 2417 
Q 1019 2294 894 2097 
L 366 2166 
L 809 4519 
L 3088 4519 
L 3088 3981 
L 1259 3981 
L 1013 2750 
Q 1425 3038 1878 3038 
Q 2478 3038 2890 2622 
Q 3303 2206 3303 1553 
Q 3303 931 2941 478 
Q 2500 -78 1738 -78 
Q 1113 -78 717 272 
Q 322 622 266 1200 
z
" transform="scale(0.015625)"/>
        <path id="ArialMT-30" d="M 266 2259 
Q 266 3072 433 3567 
Q 600 4063 929 4331 
Q 1259 4600 1759 4600 
Q 2128 4600 2406 4451 
Q 2684 4303 2865 4023 
Q 3047 3744 3150 3342 
Q 3253 2941 3253 2259 
Q 3253 1453 3087 958 
Q 2922 463 2592 192 
Q 2263 -78 1759 -78 
Q 1097 -78 719 397 
Q 266 969 266 2259 
z
M 844 2259 
Q 844 1131 1108 757 
Q 1372 384 1759 384 
Q 2147 384 2411 759 
Q 2675 1134 2675 2259 
Q 2675 3391 2411 3762 
Q 2147 4134 1753 4134 
Q 1366 4134 1134 3806 
Q 844 3388 844 2259 
z
" transform="scale(0.015625)"/>
       </defs>
       <use xlink:href="#ArialMT-2212"/>
       <use xlink:href="#ArialMT-35" x="58.398438"/>
       <use xlink:href="#ArialMT-30" x="114.013672"/>
       <use xlink:href="#ArialMT-30" x="169.628906"/>
      </g>
     </g>
    </g>
    <g id="xtick_2">
     <g id="text_2">
      <!-- −250 -->
      <g style="fill: #262626" transform="translate(133.476922 397.776719) scale(0.15 -0.15)">
       <defs>
        <path id="ArialMT-32" d="M 3222 541 
L 3222 0 
L 194 0 
Q 188 203 259 391 
Q 375 700 629 1000 
Q 884 1300 1366 1694 
Q 2113 2306 2375 2664 
Q 2638 3022 2638 3341 
Q 2638 3675 2398 3904 
Q 2159 4134 1775 4134 
Q 1369 4134 1125 3890 
Q 881 3647 878 3216 
L 300 3275 
Q 359 3922 746 4261 
Q 1134 4600 1788 4600 
Q 2447 4600 2831 4234 
Q 3216 3869 3216 3328 
Q 3216 3053 3103 2787 
Q 2991 2522 2730 2228 
Q 2469 1934 1863 1422 
Q 1356 997 1212 845 
Q 1069 694 975 541 
L 3222 541 
z
" transform="scale(0.015625)"/>
       </defs>
       <use xlink:href="#ArialMT-2212"/>
       <use xlink:href="#ArialMT-32" x="58.398438"/>
       <use xlink:href="#ArialMT-35" x="114.013672"/>
       <use xlink:href="#ArialMT-30" x="169.628906"/>
      </g>
     </g>
    </g>
    <g id="xtick_3">
     <g id="text_3">
      <!-- 0 -->
      <g style="fill: #262626" transform="translate(207.304479 397.776719) scale(0.15 -0.15)">
       <use xlink:href="#ArialMT-30"/>
      </g>
     </g>
    </g>
    <g id="xtick_4">
     <g id="text_4">
      <!-- 250 -->
      <g style="fill: #262626" transform="translate(260.068754 397.776719) scale(0.15 -0.15)">
       <use xlink:href="#ArialMT-32"/>
       <use xlink:href="#ArialMT-35" x="55.615234"/>
       <use xlink:href="#ArialMT-30" x="111.230469"/>
      </g>
     </g>
    </g>
    <g id="xtick_5">
     <g id="text_5">
      <!-- 500 -->
      <g style="fill: #262626" transform="translate(321.174436 397.776719) scale(0.15 -0.15)">
       <use xlink:href="#ArialMT-35"/>
       <use xlink:href="#ArialMT-30" x="55.615234"/>
       <use xlink:href="#ArialMT-30" x="111.230469"/>
      </g>
     </g>
    </g>
    <g id="xtick_6">
     <g id="text_6">
      <!-- 750 -->
      <g style="fill: #262626" transform="translate(382.280118 397.776719) scale(0.15 -0.15)">
       <defs>
        <path id="ArialMT-37" d="M 303 3981 
L 303 4522 
L 3269 4522 
L 3269 4084 
Q 2831 3619 2401 2847 
Q 1972 2075 1738 1259 
Q 1569 684 1522 0 
L 944 0 
Q 953 541 1156 1306 
Q 1359 2072 1739 2783 
Q 2119 3494 2547 3981 
L 303 3981 
z
" transform="scale(0.015625)"/>
       </defs>
       <use xlink:href="#ArialMT-37"/>
       <use xlink:href="#ArialMT-35" x="55.615234"/>
       <use xlink:href="#ArialMT-30" x="111.230469"/>
      </g>
     </g>
    </g>
    <g id="xtick_7">
     <g id="text_7">
      <!-- 1000 -->
      <g style="fill: #262626" transform="translate(439.215097 397.776719) scale(0.15 -0.15)">
       <defs>
        <path id="ArialMT-31" d="M 2384 0 
L 1822 0 
L 1822 3584 
Q 1619 3391 1289 3197 
Q 959 3003 697 2906 
L 697 3450 
Q 1169 3672 1522 3987 
Q 1875 4303 2022 4600 
L 2384 4600 
L 2384 0 
z
" transform="scale(0.015625)"/>
       </defs>
       <use xlink:href="#ArialMT-31"/>
       <use xlink:href="#ArialMT-30" x="55.615234"/>
       <use xlink:href="#ArialMT-30" x="111.230469"/>
       <use xlink:href="#ArialMT-30" x="166.845703"/>
      </g>
     </g>
    </g>
    <g id="xtick_8">
     <g id="text_8">
      <!-- 1250 -->
      <g style="fill: #262626" transform="translate(500.320778 397.776719) scale(0.15 -0.15)">
       <use xlink:href="#ArialMT-31"/>
       <use xlink:href="#ArialMT-32" x="55.615234"/>
       <use xlink:href="#ArialMT-35" x="111.230469"/>
       <use xlink:href="#ArialMT-30" x="166.845703"/>
      </g>
     </g>
    </g>
    <g id="xtick_9">
     <g id="text_9">
      <!-- 1500 -->
      <g style="fill: #262626" transform="translate(561.42646 397.776719) scale(0.15 -0.15)">
       <use xlink:href="#ArialMT-31"/>
       <use xlink:href="#ArialMT-35" x="55.615234"/>
       <use xlink:href="#ArialMT-30" x="111.230469"/>
       <use xlink:href="#ArialMT-30" x="166.845703"/>
      </g>
     </g>
    </g>
    <g id="text_10">
     <!-- Time (s) -->
     <g style="fill: #262626" transform="translate(311.362891 415.6775) scale(0.15 -0.15)">
      <defs>
       <path id="ArialMT-54" d="M 1659 0 
L 1659 4041 
L 150 4041 
L 150 4581 
L 3781 4581 
L 3781 4041 
L 2266 4041 
L 2266 0 
L 1659 0 
z
" transform="scale(0.015625)"/>
       <path id="ArialMT-69" d="M 425 3934 
L 425 4581 
L 988 4581 
L 988 3934 
L 425 3934 
z
M 425 0 
L 425 3319 
L 988 3319 
L 988 0 
L 425 0 
z
" transform="scale(0.015625)"/>
       <path id="ArialMT-6d" d="M 422 0 
L 422 3319 
L 925 3319 
L 925 2853 
Q 1081 3097 1340 3245 
Q 1600 3394 1931 3394 
Q 2300 3394 2536 3241 
Q 2772 3088 2869 2813 
Q 3263 3394 3894 3394 
Q 4388 3394 4653 3120 
Q 4919 2847 4919 2278 
L 4919 0 
L 4359 0 
L 4359 2091 
Q 4359 2428 4304 2576 
Q 4250 2725 4106 2815 
Q 3963 2906 3769 2906 
Q 3419 2906 3187 2673 
Q 2956 2441 2956 1928 
L 2956 0 
L 2394 0 
L 2394 2156 
Q 2394 2531 2256 2718 
Q 2119 2906 1806 2906 
Q 1569 2906 1367 2781 
Q 1166 2656 1075 2415 
Q 984 2175 984 1722 
L 984 0 
L 422 0 
z
" transform="scale(0.015625)"/>
       <path id="ArialMT-65" d="M 2694 1069 
L 3275 997 
Q 3138 488 2766 206 
Q 2394 -75 1816 -75 
Q 1088 -75 661 373 
Q 234 822 234 1631 
Q 234 2469 665 2931 
Q 1097 3394 1784 3394 
Q 2450 3394 2872 2941 
Q 3294 2488 3294 1666 
Q 3294 1616 3291 1516 
L 816 1516 
Q 847 969 1125 678 
Q 1403 388 1819 388 
Q 2128 388 2347 550 
Q 2566 713 2694 1069 
z
M 847 1978 
L 2700 1978 
Q 2663 2397 2488 2606 
Q 2219 2931 1791 2931 
Q 1403 2931 1139 2672 
Q 875 2413 847 1978 
z
" transform="scale(0.015625)"/>
       <path id="ArialMT-20" transform="scale(0.015625)"/>
       <path id="ArialMT-28" d="M 1497 -1347 
Q 1031 -759 709 28 
Q 388 816 388 1659 
Q 388 2403 628 3084 
Q 909 3875 1497 4659 
L 1900 4659 
Q 1522 4009 1400 3731 
Q 1209 3300 1100 2831 
Q 966 2247 966 1656 
Q 966 153 1900 -1347 
L 1497 -1347 
z
" transform="scale(0.015625)"/>
       <path id="ArialMT-73" d="M 197 991 
L 753 1078 
Q 800 744 1014 566 
Q 1228 388 1613 388 
Q 2000 388 2187 545 
Q 2375 703 2375 916 
Q 2375 1106 2209 1216 
Q 2094 1291 1634 1406 
Q 1016 1563 777 1677 
Q 538 1791 414 1992 
Q 291 2194 291 2438 
Q 291 2659 392 2848 
Q 494 3038 669 3163 
Q 800 3259 1026 3326 
Q 1253 3394 1513 3394 
Q 1903 3394 2198 3281 
Q 2494 3169 2634 2976 
Q 2775 2784 2828 2463 
L 2278 2388 
Q 2241 2644 2061 2787 
Q 1881 2931 1553 2931 
Q 1166 2931 1000 2803 
Q 834 2675 834 2503 
Q 834 2394 903 2306 
Q 972 2216 1119 2156 
Q 1203 2125 1616 2013 
Q 2213 1853 2448 1751 
Q 2684 1650 2818 1456 
Q 2953 1263 2953 975 
Q 2953 694 2789 445 
Q 2625 197 2315 61 
Q 2006 -75 1616 -75 
Q 969 -75 630 194 
Q 291 463 197 991 
z
" transform="scale(0.015625)"/>
       <path id="ArialMT-29" d="M 791 -1347 
L 388 -1347 
Q 1322 153 1322 1656 
Q 1322 2244 1188 2822 
Q 1081 3291 891 3722 
Q 769 4003 388 4659 
L 791 4659 
Q 1378 3875 1659 3084 
Q 1900 2403 1900 1659 
Q 1900 816 1576 28 
Q 1253 -759 791 -1347 
z
" transform="scale(0.015625)"/>
      </defs>
      <use xlink:href="#ArialMT-54"/>
      <use xlink:href="#ArialMT-69" x="57.333984"/>
      <use xlink:href="#ArialMT-6d" x="79.550781"/>
      <use xlink:href="#ArialMT-65" x="162.851562"/>
      <use xlink:href="#ArialMT-20" x="218.466797"/>
      <use xlink:href="#ArialMT-28" x="246.25"/>
      <use xlink:href="#ArialMT-73" x="279.550781"/>
      <use xlink:href="#ArialMT-29" x="329.550781"/>
     </g>
    </g>
   </g>
   <g id="matplotlib.axis_2">
    <g id="ytick_1">
     <g id="text_11">
      <!-- 0.00 -->
      <g style="fill: #262626" transform="translate(31.018594 350.160895) scale(0.15 -0.15)">
       <defs>
        <path id="ArialMT-2e" d="M 581 0 
L 581 641 
L 1222 641 
L 1222 0 
L 581 0 
z
" transform="scale(0.015625)"/>
       </defs>
       <use xlink:href="#ArialMT-30"/>
       <use xlink:href="#ArialMT-2e" x="55.615234"/>
       <use xlink:href="#ArialMT-30" x="83.398438"/>
       <use xlink:href="#ArialMT-30" x="139.013672"/>
      </g>
     </g>
    </g>
    <g id="ytick_2">
     <g id="text_12">
      <!-- 0.05 -->
      <g style="fill: #262626" transform="translate(31.018594 310.173379) scale(0.15 -0.15)">
       <use xlink:href="#ArialMT-30"/>
       <use xlink:href="#ArialMT-2e" x="55.615234"/>
       <use xlink:href="#ArialMT-30" x="83.398438"/>
       <use xlink:href="#ArialMT-35" x="139.013672"/>
      </g>
     </g>
    </g>
    <g id="ytick_3">
     <g id="text_13">
      <!-- 0.10 -->
      <g style="fill: #262626" transform="translate(31.018594 270.185864) scale(0.15 -0.15)">
       <use xlink:href="#ArialMT-30"/>
       <use xlink:href="#ArialMT-2e" x="55.615234"/>
       <use xlink:href="#ArialMT-31" x="83.398438"/>
       <use xlink:href="#ArialMT-30" x="139.013672"/>
      </g>
     </g>
    </g>
    <g id="ytick_4">
     <g id="text_14">
      <!-- 0.15 -->
      <g style="fill: #262626" transform="translate(31.018594 230.198348) scale(0.15 -0.15)">
       <use xlink:href="#ArialMT-30"/>
       <use xlink:href="#ArialMT-2e" x="55.615234"/>
       <use xlink:href="#ArialMT-31" x="83.398438"/>
       <use xlink:href="#ArialMT-35" x="139.013672"/>
      </g>
     </g>
    </g>
    <g id="ytick_5">
     <g id="text_15">
      <!-- 0.20 -->
      <g style="fill: #262626" transform="translate(31.018594 190.210833) scale(0.15 -0.15)">
       <use xlink:href="#ArialMT-30"/>
       <use xlink:href="#ArialMT-2e" x="55.615234"/>
       <use xlink:href="#ArialMT-32" x="83.398438"/>
       <use xlink:href="#ArialMT-30" x="139.013672"/>
      </g>
     </g>
    </g>
    <g id="ytick_6">
     <g id="text_16">
      <!-- 0.25 -->
      <g style="fill: #262626" transform="translate(31.018594 150.223317) scale(0.15 -0.15)">
       <use xlink:href="#ArialMT-30"/>
       <use xlink:href="#ArialMT-2e" x="55.615234"/>
       <use xlink:href="#ArialMT-32" x="83.398438"/>
       <use xlink:href="#ArialMT-35" x="139.013672"/>
      </g>
     </g>
    </g>
    <g id="ytick_7">
     <g id="text_17">
      <!-- 0.30 -->
      <g style="fill: #262626" transform="translate(31.018594 110.235801) scale(0.15 -0.15)">
       <defs>
        <path id="ArialMT-33" d="M 269 1209 
L 831 1284 
Q 928 806 1161 595 
Q 1394 384 1728 384 
Q 2125 384 2398 659 
Q 2672 934 2672 1341 
Q 2672 1728 2419 1979 
Q 2166 2231 1775 2231 
Q 1616 2231 1378 2169 
L 1441 2663 
Q 1497 2656 1531 2656 
Q 1891 2656 2178 2843 
Q 2466 3031 2466 3422 
Q 2466 3731 2256 3934 
Q 2047 4138 1716 4138 
Q 1388 4138 1169 3931 
Q 950 3725 888 3313 
L 325 3413 
Q 428 3978 793 4289 
Q 1159 4600 1703 4600 
Q 2078 4600 2393 4439 
Q 2709 4278 2876 4000 
Q 3044 3722 3044 3409 
Q 3044 3113 2884 2869 
Q 2725 2625 2413 2481 
Q 2819 2388 3044 2092 
Q 3269 1797 3269 1353 
Q 3269 753 2831 336 
Q 2394 -81 1725 -81 
Q 1122 -81 723 278 
Q 325 638 269 1209 
z
" transform="scale(0.015625)"/>
       </defs>
       <use xlink:href="#ArialMT-30"/>
       <use xlink:href="#ArialMT-2e" x="55.615234"/>
       <use xlink:href="#ArialMT-33" x="83.398438"/>
       <use xlink:href="#ArialMT-30" x="139.013672"/>
      </g>
     </g>
    </g>
    <g id="ytick_8">
     <g id="text_18">
      <!-- 0.35 -->
      <g style="fill: #262626" transform="translate(31.018594 70.248286) scale(0.15 -0.15)">
       <use xlink:href="#ArialMT-30"/>
       <use xlink:href="#ArialMT-2e" x="55.615234"/>
       <use xlink:href="#ArialMT-33" x="83.398438"/>
       <use xlink:href="#ArialMT-35" x="139.013672"/>
      </g>
     </g>
    </g>
    <g id="text_19">
     <!-- Divergence -->
     <g style="fill: #262626" transform="translate(23.861562 240.183594) rotate(-90) scale(0.15 -0.15)">
      <defs>
       <path id="ArialMT-44" d="M 494 0 
L 494 4581 
L 2072 4581 
Q 2606 4581 2888 4516 
Q 3281 4425 3559 4188 
Q 3922 3881 4101 3404 
Q 4281 2928 4281 2316 
Q 4281 1794 4159 1391 
Q 4038 988 3847 723 
Q 3656 459 3429 307 
Q 3203 156 2883 78 
Q 2563 0 2147 0 
L 494 0 
z
M 1100 541 
L 2078 541 
Q 2531 541 2789 625 
Q 3047 709 3200 863 
Q 3416 1078 3536 1442 
Q 3656 1806 3656 2325 
Q 3656 3044 3420 3430 
Q 3184 3816 2847 3947 
Q 2603 4041 2063 4041 
L 1100 4041 
L 1100 541 
z
" transform="scale(0.015625)"/>
       <path id="ArialMT-76" d="M 1344 0 
L 81 3319 
L 675 3319 
L 1388 1331 
Q 1503 1009 1600 663 
Q 1675 925 1809 1294 
L 2547 3319 
L 3125 3319 
L 1869 0 
L 1344 0 
z
" transform="scale(0.015625)"/>
       <path id="ArialMT-72" d="M 416 0 
L 416 3319 
L 922 3319 
L 922 2816 
Q 1116 3169 1280 3281 
Q 1444 3394 1641 3394 
Q 1925 3394 2219 3213 
L 2025 2691 
Q 1819 2813 1613 2813 
Q 1428 2813 1281 2702 
Q 1134 2591 1072 2394 
Q 978 2094 978 1738 
L 978 0 
L 416 0 
z
" transform="scale(0.015625)"/>
       <path id="ArialMT-67" d="M 319 -275 
L 866 -356 
Q 900 -609 1056 -725 
Q 1266 -881 1628 -881 
Q 2019 -881 2231 -725 
Q 2444 -569 2519 -288 
Q 2563 -116 2559 434 
Q 2191 0 1641 0 
Q 956 0 581 494 
Q 206 988 206 1678 
Q 206 2153 378 2554 
Q 550 2956 876 3175 
Q 1203 3394 1644 3394 
Q 2231 3394 2613 2919 
L 2613 3319 
L 3131 3319 
L 3131 450 
Q 3131 -325 2973 -648 
Q 2816 -972 2473 -1159 
Q 2131 -1347 1631 -1347 
Q 1038 -1347 672 -1080 
Q 306 -813 319 -275 
z
M 784 1719 
Q 784 1066 1043 766 
Q 1303 466 1694 466 
Q 2081 466 2343 764 
Q 2606 1063 2606 1700 
Q 2606 2309 2336 2618 
Q 2066 2928 1684 2928 
Q 1309 2928 1046 2623 
Q 784 2319 784 1719 
z
" transform="scale(0.015625)"/>
       <path id="ArialMT-6e" d="M 422 0 
L 422 3319 
L 928 3319 
L 928 2847 
Q 1294 3394 1984 3394 
Q 2284 3394 2536 3286 
Q 2788 3178 2913 3003 
Q 3038 2828 3088 2588 
Q 3119 2431 3119 2041 
L 3119 0 
L 2556 0 
L 2556 2019 
Q 2556 2363 2490 2533 
Q 2425 2703 2258 2804 
Q 2091 2906 1866 2906 
Q 1506 2906 1245 2678 
Q 984 2450 984 1813 
L 984 0 
L 422 0 
z
" transform="scale(0.015625)"/>
       <path id="ArialMT-63" d="M 2588 1216 
L 3141 1144 
Q 3050 572 2676 248 
Q 2303 -75 1759 -75 
Q 1078 -75 664 370 
Q 250 816 250 1647 
Q 250 2184 428 2587 
Q 606 2991 970 3192 
Q 1334 3394 1763 3394 
Q 2303 3394 2647 3120 
Q 2991 2847 3088 2344 
L 2541 2259 
Q 2463 2594 2264 2762 
Q 2066 2931 1784 2931 
Q 1359 2931 1093 2626 
Q 828 2322 828 1663 
Q 828 994 1084 691 
Q 1341 388 1753 388 
Q 2084 388 2306 591 
Q 2528 794 2588 1216 
z
" transform="scale(0.015625)"/>
      </defs>
      <use xlink:href="#ArialMT-44"/>
      <use xlink:href="#ArialMT-69" x="72.216797"/>
      <use xlink:href="#ArialMT-76" x="94.433594"/>
      <use xlink:href="#ArialMT-65" x="144.433594"/>
      <use xlink:href="#ArialMT-72" x="200.048828"/>
      <use xlink:href="#ArialMT-67" x="233.349609"/>
      <use xlink:href="#ArialMT-65" x="288.964844"/>
      <use xlink:href="#ArialMT-6e" x="344.580078"/>
      <use xlink:href="#ArialMT-63" x="400.195312"/>
      <use xlink:href="#ArialMT-65" x="450.195312"/>
     </g>
    </g>
   </g>
   <g id="PolyCollection_1">
    <defs>
     <path id="md502a65e4c" d="M 94.152273 -92.476244 
L 94.152273 -80.678567 
L 99.040727 -85.752483 
L 103.929182 -88.141287 
L 108.817636 -86.158199 
L 113.706091 -87.701054 
L 118.594545 -80.573217 
L 123.483 -83.169745 
L 128.371455 -85.928496 
L 133.259909 -87.144371 
L 138.148364 -86.052703 
L 143.036818 -86.42392 
L 147.925273 -80.914605 
L 152.813727 -87.816382 
L 157.702182 -79.85549 
L 162.590636 -88.874462 
L 167.479091 -86.930792 
L 172.367545 -87.590096 
L 177.256 -86.397313 
L 182.144455 -85.470457 
L 187.032909 -81.479389 
L 191.921364 -79.562317 
L 196.809818 -79.756195 
L 201.698273 -80.292699 
L 206.586727 -78.851725 
L 211.475182 -95.800414 
L 216.363636 -88.667427 
L 221.252091 -86.667403 
L 226.140545 -81.20119 
L 231.029 -92.014155 
L 235.917455 -94.317127 
L 240.805909 -96.595365 
L 245.694364 -89.730069 
L 250.582818 -90.788233 
L 255.471273 -98.58218 
L 260.359727 -93.774677 
L 265.248182 -103.31905 
L 270.136636 -102.951002 
L 275.025091 -94.946151 
L 279.913545 -88.347289 
L 284.802 -73.886873 
L 289.690455 -77.610145 
L 294.578909 -82.431981 
L 299.467364 -72.002568 
L 304.355818 -72.273524 
L 309.244273 -74.847776 
L 314.132727 -86.201157 
L 319.021182 -83.745027 
L 323.909636 -83.414287 
L 328.798091 -88.61489 
L 333.686545 -91.39574 
L 338.575 -87.715872 
L 343.463455 -80.759927 
L 348.351909 -82.543554 
L 353.240364 -80.205804 
L 358.128818 -88.978458 
L 363.017273 -94.65822 
L 367.905727 -92.316643 
L 372.794182 -89.237467 
L 377.682636 -86.832614 
L 382.571091 -89.228322 
L 387.459545 -81.161505 
L 392.348 -81.644374 
L 397.236455 -81.573215 
L 402.124909 -85.792677 
L 407.013364 -84.936634 
L 411.901818 -97.307773 
L 416.790273 -94.24426 
L 421.678727 -93.207101 
L 426.567182 -88.570595 
L 431.455636 -95.03643 
L 436.344091 -103.736813 
L 441.232545 -95.926885 
L 446.121 -80.59294 
L 451.009455 -74.3853 
L 455.897909 -74.57622 
L 460.786364 -79.157096 
L 465.674818 -79.545015 
L 470.563273 -76.275628 
L 475.451727 -85.465679 
L 480.340182 -76.500282 
L 485.228636 -89.103873 
L 490.117091 -83.684777 
L 495.005545 -92.849953 
L 499.894 -87.029959 
L 504.782455 -80.11875 
L 509.670909 -81.156822 
L 514.559364 -84.490985 
L 519.447818 -85.951879 
L 524.336273 -80.824371 
L 529.224727 -84.143172 
L 534.113182 -77.072763 
L 539.001636 -84.436917 
L 543.890091 -75.753351 
L 548.778545 -84.828118 
L 553.667 -82.100237 
L 558.555455 -79.603215 
L 563.443909 -75.609531 
L 568.332364 -91.724922 
L 573.220818 -78.165147 
L 578.109273 -86.334172 
L 582.997727 -79.275117 
L 582.997727 -87.439638 
L 582.997727 -87.439638 
L 578.109273 -95.839023 
L 573.220818 -86.419619 
L 568.332364 -100.147213 
L 563.443909 -83.415541 
L 558.555455 -88.008277 
L 553.667 -90.361808 
L 548.778545 -93.35178 
L 543.890091 -83.679773 
L 539.001636 -91.715904 
L 534.113182 -85.109553 
L 529.224727 -93.0718 
L 524.336273 -89.319678 
L 519.447818 -95.021714 
L 514.559364 -92.338085 
L 509.670909 -89.422455 
L 504.782455 -88.979903 
L 499.894 -94.939001 
L 495.005545 -100.072862 
L 490.117091 -92.064155 
L 485.228636 -98.187026 
L 480.340182 -84.869148 
L 475.451727 -94.04115 
L 470.563273 -85.895746 
L 465.674818 -87.466332 
L 460.786364 -84.339063 
L 455.897909 -80.13334 
L 451.009455 -81.697383 
L 446.121 -88.928802 
L 441.232545 -105.280065 
L 436.344091 -112.601714 
L 431.455636 -103.997117 
L 426.567182 -97.598294 
L 421.678727 -101.537679 
L 416.790273 -102.727048 
L 411.901818 -106.932247 
L 407.013364 -95.546304 
L 402.124909 -96.355576 
L 397.236455 -91.899751 
L 392.348 -91.126772 
L 387.459545 -92.379842 
L 382.571091 -99.12616 
L 377.682636 -95.45202 
L 372.794182 -98.409162 
L 367.905727 -101.577774 
L 363.017273 -104.116154 
L 358.128818 -98.216496 
L 353.240364 -89.886355 
L 348.351909 -92.63913 
L 343.463455 -89.470346 
L 338.575 -95.72893 
L 333.686545 -100.713319 
L 328.798091 -98.148603 
L 323.909636 -92.312453 
L 319.021182 -92.595994 
L 314.132727 -95.333678 
L 309.244273 -84.591741 
L 304.355818 -81.717761 
L 299.467364 -80.843526 
L 294.578909 -90.973464 
L 289.690455 -86.577479 
L 284.802 -82.683894 
L 279.913545 -97.13627 
L 275.025091 -103.697117 
L 270.136636 -110.54994 
L 265.248182 -110.67548 
L 260.359727 -102.326155 
L 255.471273 -107.318378 
L 250.582818 -100.172443 
L 245.694364 -98.893914 
L 240.805909 -103.899511 
L 235.917455 -103.097719 
L 231.029 -100.164105 
L 226.140545 -88.486648 
L 221.252091 -94.944643 
L 216.363636 -98.041352 
L 211.475182 -104.320426 
L 206.586727 -84.047125 
L 201.698273 -85.128385 
L 196.809818 -85.12704 
L 191.921364 -85.237085 
L 187.032909 -86.585296 
L 182.144455 -90.890287 
L 177.256 -91.522815 
L 172.367545 -92.675077 
L 167.479091 -92.187824 
L 162.590636 -94.019797 
L 157.702182 -85.309504 
L 152.813727 -92.740902 
L 147.925273 -86.00266 
L 143.036818 -91.465019 
L 138.148364 -90.680471 
L 133.259909 -91.995453 
L 128.371455 -90.835591 
L 123.483 -88.161469 
L 118.594545 -86.337391 
L 113.706091 -93.569966 
L 108.817636 -90.590299 
L 103.929182 -92.214869 
L 99.040727 -92.939222 
L 94.152273 -92.476244 
z
" style="stroke: #6060eb; stroke-opacity: 0.1"/>
    </defs>
    <g clip-path="url(#p221f18eae7)">
     <use xlink:href="#md502a65e4c" x="0" y="432" style="fill: #6060eb; fill-opacity: 0.1; stroke: #6060eb; stroke-opacity: 0.1"/>
    </g>
   </g>
   <g id="PolyCollection_2">
    <defs>
     <path id="m186ae99697" d="M 94.152273 -87.470916 
L 94.152273 -85.400289 
L 99.040727 -86.258702 
L 103.929182 -86.577395 
L 108.817636 -86.656696 
L 113.706091 -85.895294 
L 118.594545 -86.97614 
L 123.483 -86.840419 
L 128.371455 -86.257366 
L 133.259909 -86.727508 
L 138.148364 -85.897245 
L 143.036818 -87.401135 
L 147.925273 -86.147197 
L 152.813727 -85.993288 
L 157.702182 -87.644505 
L 162.590636 -86.154711 
L 167.479091 -86.547698 
L 172.367545 -87.862625 
L 177.256 -87.68627 
L 182.144455 -87.162941 
L 187.032909 -86.691748 
L 191.921364 -86.550508 
L 196.809818 -87.608473 
L 201.698273 -85.869647 
L 206.586727 -85.88604 
L 211.475182 -92.918583 
L 216.363636 -96.339889 
L 221.252091 -97.102361 
L 226.140545 -98.720284 
L 231.029 -99.784183 
L 235.917455 -99.772443 
L 240.805909 -96.825358 
L 245.694364 -93.930745 
L 250.582818 -92.898326 
L 255.471273 -94.730825 
L 260.359727 -93.801507 
L 265.248182 -91.091283 
L 270.136636 -92.482416 
L 275.025091 -91.900546 
L 279.913545 -92.534385 
L 284.802 -95.092968 
L 289.690455 -94.465438 
L 294.578909 -95.220677 
L 299.467364 -95.106117 
L 304.355818 -96.073752 
L 309.244273 -96.060199 
L 314.132727 -97.002993 
L 319.021182 -96.066527 
L 323.909636 -96.534213 
L 328.798091 -95.316102 
L 333.686545 -95.58967 
L 338.575 -94.168644 
L 343.463455 -92.267124 
L 348.351909 -93.66246 
L 353.240364 -94.00694 
L 358.128818 -91.835778 
L 363.017273 -92.230253 
L 367.905727 -95.691324 
L 372.794182 -95.283498 
L 377.682636 -93.058843 
L 382.571091 -93.197372 
L 387.459545 -92.570438 
L 392.348 -92.660863 
L 397.236455 -94.701267 
L 402.124909 -94.617927 
L 407.013364 -93.380862 
L 411.901818 -91.01883 
L 416.790273 -91.617515 
L 421.678727 -94.070042 
L 426.567182 -96.929503 
L 431.455636 -97.518325 
L 436.344091 -97.689662 
L 441.232545 -96.212279 
L 446.121 -95.772748 
L 451.009455 -92.108054 
L 455.897909 -87.505746 
L 460.786364 -86.263624 
L 465.674818 -85.947974 
L 470.563273 -86.50154 
L 475.451727 -85.931986 
L 480.340182 -85.866 
L 485.228636 -84.412555 
L 490.117091 -84.846814 
L 495.005545 -86.203241 
L 499.894 -86.504106 
L 504.782455 -85.546819 
L 509.670909 -86.514217 
L 514.559364 -87.114856 
L 519.447818 -86.54254 
L 524.336273 -83.615188 
L 529.224727 -85.227635 
L 534.113182 -85.479353 
L 539.001636 -85.272005 
L 543.890091 -85.86292 
L 548.778545 -85.49944 
L 553.667 -85.278976 
L 558.555455 -85.504568 
L 563.443909 -86.45519 
L 568.332364 -84.651043 
L 573.220818 -86.93846 
L 578.109273 -86.175602 
L 582.997727 -87.02547 
L 582.997727 -89.084433 
L 582.997727 -89.084433 
L 578.109273 -88.107069 
L 573.220818 -88.94615 
L 568.332364 -86.54846 
L 563.443909 -88.4709 
L 558.555455 -87.189441 
L 553.667 -87.45985 
L 548.778545 -87.3953 
L 543.890091 -87.401357 
L 539.001636 -87.154935 
L 534.113182 -87.187745 
L 529.224727 -87.097983 
L 524.336273 -85.699395 
L 519.447818 -88.295726 
L 514.559364 -89.025162 
L 509.670909 -88.350892 
L 504.782455 -87.257898 
L 499.894 -88.548168 
L 495.005545 -87.862701 
L 490.117091 -86.665723 
L 485.228636 -86.190809 
L 480.340182 -87.734051 
L 475.451727 -87.932685 
L 470.563273 -88.6174 
L 465.674818 -87.610106 
L 460.786364 -87.467321 
L 455.897909 -88.802362 
L 451.009455 -94.002634 
L 446.121 -97.618613 
L 441.232545 -98.283756 
L 436.344091 -99.86768 
L 431.455636 -99.653277 
L 426.567182 -99.072181 
L 421.678727 -95.930474 
L 416.790273 -93.499386 
L 411.901818 -93.047624 
L 407.013364 -95.27837 
L 402.124909 -96.673126 
L 397.236455 -96.594926 
L 392.348 -94.626661 
L 387.459545 -94.800997 
L 382.571091 -95.191049 
L 377.682636 -94.920551 
L 372.794182 -97.301827 
L 367.905727 -97.525505 
L 363.017273 -94.416041 
L 358.128818 -93.969072 
L 353.240364 -96.201648 
L 348.351909 -95.838147 
L 343.463455 -94.216967 
L 338.575 -96.208431 
L 333.686545 -97.577504 
L 328.798091 -97.431605 
L 323.909636 -98.689576 
L 319.021182 -98.237311 
L 314.132727 -99.229645 
L 309.244273 -98.339045 
L 304.355818 -98.002735 
L 299.467364 -97.103075 
L 294.578909 -97.247332 
L 289.690455 -96.451812 
L 284.802 -97.124881 
L 279.913545 -94.407045 
L 275.025091 -94.085761 
L 270.136636 -94.526481 
L 265.248182 -93.182277 
L 260.359727 -95.915901 
L 255.471273 -96.962503 
L 250.582818 -94.916929 
L 245.694364 -95.966901 
L 240.805909 -98.934543 
L 235.917455 -101.845732 
L 231.029 -101.9941 
L 226.140545 -100.966069 
L 221.252091 -99.139045 
L 216.363636 -98.281194 
L 211.475182 -94.897552 
L 206.586727 -86.964566 
L 201.698273 -87.081681 
L 196.809818 -88.829947 
L 191.921364 -87.73526 
L 187.032909 -87.764866 
L 182.144455 -88.423734 
L 177.256 -88.85188 
L 172.367545 -89.06303 
L 167.479091 -87.776487 
L 162.590636 -87.376282 
L 157.702182 -88.991718 
L 152.813727 -87.115497 
L 147.925273 -87.239761 
L 143.036818 -88.637292 
L 138.148364 -87.216537 
L 133.259909 -87.876575 
L 128.371455 -87.449086 
L 123.483 -87.935026 
L 118.594545 -88.413772 
L 113.706091 -87.261898 
L 108.817636 -87.718835 
L 103.929182 -87.375608 
L 99.040727 -87.659089 
L 94.152273 -87.470916 
z
" style="stroke: #6060eb; stroke-opacity: 0.1"/>
    </defs>
    <g clip-path="url(#p221f18eae7)">
     <use xlink:href="#m186ae99697" x="0" y="432" style="fill: #6060eb; fill-opacity: 0.1; stroke: #6060eb; stroke-opacity: 0.1"/>
    </g>
   </g>
   <g id="PathCollection_1">
    <defs>
     <path id="m0d0c74f847" d="M 0 -3 
L -0.673542 -0.927051 
L -2.85317 -0.927051 
L -1.089814 0.354102 
L -1.763356 2.427051 
L -0 1.145898 
L 1.763356 2.427051 
L 1.089814 0.354102 
L 2.85317 -0.927051 
L 0.673542 -0.927051 
z
" style="stroke: #6060eb"/>
    </defs>
    <g clip-path="url(#p221f18eae7)">
     <use xlink:href="#m0d0c74f847" x="265.248182" y="352.790039" style="fill: #6060eb; stroke: #6060eb"/>
     <use xlink:href="#m0d0c74f847" x="270.136636" y="352.790039" style="fill: #6060eb; stroke: #6060eb"/>
    </g>
   </g>
   <g id="PolyCollection_3">
    <defs>
     <path id="m37dd1da81b" d="M 94.152273 -96.156387 
L 94.152273 -83.808858 
L 99.040727 -76.169649 
L 103.929182 -71.860378 
L 108.817636 -71.852973 
L 113.706091 -76.866707 
L 118.594545 -78.224458 
L 123.483 -79.699004 
L 128.371455 -72.301083 
L 133.259909 -80.48716 
L 138.148364 -70.395455 
L 143.036818 -71.971669 
L 147.925273 -73.431712 
L 152.813727 -77.643382 
L 157.702182 -80.496405 
L 162.590636 -80.314178 
L 167.479091 -81.465224 
L 172.367545 -79.342199 
L 177.256 -88.187653 
L 182.144455 -95.431031 
L 187.032909 -92.541397 
L 191.921364 -94.530956 
L 196.809818 -94.996606 
L 201.698273 -103.201715 
L 206.586727 -96.763518 
L 211.475182 -99.706383 
L 216.363636 -101.028196 
L 221.252091 -97.893538 
L 226.140545 -104.54979 
L 231.029 -107.704889 
L 235.917455 -107.636332 
L 240.805909 -113.863802 
L 245.694364 -114.122033 
L 250.582818 -113.818946 
L 255.471273 -116.210899 
L 260.359727 -118.528849 
L 265.248182 -117.889059 
L 270.136636 -122.01329 
L 275.025091 -123.583474 
L 279.913545 -125.971294 
L 284.802 -126.976986 
L 289.690455 -130.67396 
L 294.578909 -134.388042 
L 299.467364 -140.082693 
L 304.355818 -141.689235 
L 309.244273 -144.815532 
L 314.132727 -144.440423 
L 319.021182 -145.925015 
L 323.909636 -152.154989 
L 328.798091 -160.494801 
L 333.686545 -165.429218 
L 338.575 -168.116812 
L 343.463455 -178.942057 
L 348.351909 -182.341056 
L 353.240364 -186.224804 
L 358.128818 -191.589244 
L 363.017273 -195.649852 
L 367.905727 -201.798975 
L 372.794182 -211.758823 
L 377.682636 -216.373235 
L 382.571091 -220.42397 
L 387.459545 -228.452735 
L 392.348 -233.540016 
L 397.236455 -239.099886 
L 402.124909 -243.597324 
L 407.013364 -249.208868 
L 411.901818 -249.357585 
L 416.790273 -255.581315 
L 421.678727 -261.584408 
L 426.567182 -265.526933 
L 431.455636 -266.728043 
L 436.344091 -268.16756 
L 441.232545 -271.209743 
L 446.121 -273.817555 
L 451.009455 -274.084616 
L 455.897909 -277.304217 
L 460.786364 -275.533769 
L 465.674818 -277.755399 
L 470.563273 -278.238434 
L 475.451727 -282.869884 
L 480.340182 -284.569395 
L 485.228636 -289.388497 
L 490.117091 -290.069522 
L 495.005545 -292.138105 
L 499.894 -294.937294 
L 504.782455 -300.396795 
L 509.670909 -304.69174 
L 514.559364 -303.748799 
L 519.447818 -301.587232 
L 524.336273 -300.759437 
L 529.224727 -302.944948 
L 534.113182 -299.457069 
L 539.001636 -300.924492 
L 543.890091 -300.391695 
L 548.778545 -301.480518 
L 553.667 -301.618615 
L 558.555455 -299.27158 
L 563.443909 -297.005392 
L 568.332364 -300.271155 
L 573.220818 -296.971614 
L 578.109273 -295.462137 
L 582.997727 -298.304885 
L 582.997727 -387.142174 
L 582.997727 -387.142174 
L 578.109273 -383.876731 
L 573.220818 -384.811857 
L 568.332364 -388.414525 
L 563.443909 -384.985494 
L 558.555455 -387.206974 
L 553.667 -389.104545 
L 548.778545 -388.200268 
L 543.890091 -386.786003 
L 539.001636 -386.682437 
L 534.113182 -384.179118 
L 529.224727 -386.211466 
L 524.336273 -383.40252 
L 519.447818 -383.665461 
L 514.559364 -384.590902 
L 509.670909 -384.277259 
L 504.782455 -379.148276 
L 499.894 -372.455447 
L 495.005545 -368.385635 
L 490.117091 -365.53549 
L 485.228636 -362.772206 
L 480.340182 -356.468456 
L 475.451727 -353.029616 
L 470.563273 -346.944299 
L 465.674818 -345.041403 
L 460.786364 -342.0907 
L 455.897909 -343.185056 
L 451.009455 -338.818542 
L 446.121 -337.475097 
L 441.232545 -334.135954 
L 436.344091 -329.82725 
L 431.455636 -327.237151 
L 426.567182 -325.389695 
L 421.678727 -320.277096 
L 416.790273 -313.222086 
L 411.901818 -305.607901 
L 407.013364 -304.001417 
L 402.124909 -297.25016 
L 397.236455 -291.004766 
L 392.348 -283.618782 
L 387.459545 -276.82375 
L 382.571091 -267.351652 
L 377.682636 -261.561018 
L 372.794182 -255.534182 
L 367.905727 -243.980939 
L 363.017273 -236.060111 
L 358.128818 -229.755362 
L 353.240364 -222.359506 
L 348.351909 -216.361458 
L 343.463455 -211.410653 
L 338.575 -198.660835 
L 333.686545 -194.015083 
L 328.798091 -187.373909 
L 323.909636 -177.936187 
L 319.021182 -169.618472 
L 314.132727 -166.976655 
L 309.244273 -166.089219 
L 304.355818 -162.176515 
L 299.467364 -159.942768 
L 294.578909 -153.659909 
L 289.690455 -149.497631 
L 284.802 -145.611178 
L 279.913545 -144.223128 
L 275.025091 -140.789618 
L 270.136636 -138.789412 
L 265.248182 -134.702628 
L 260.359727 -134.783345 
L 255.471273 -132.207166 
L 250.582818 -129.574115 
L 245.694364 -129.150335 
L 240.805909 -129.115909 
L 235.917455 -122.587996 
L 231.029 -121.785695 
L 226.140545 -118.27296 
L 221.252091 -110.992361 
L 216.363636 -114.034475 
L 211.475182 -113.863547 
L 206.586727 -111.331469 
L 201.698273 -118.591347 
L 196.809818 -110.212021 
L 191.921364 -110.4412 
L 187.032909 -107.251992 
L 182.144455 -110.126735 
L 177.256 -103.866565 
L 172.367545 -95.134013 
L 167.479091 -97.180384 
L 162.590636 -95.546481 
L 157.702182 -94.838264 
L 152.813727 -92.58853 
L 147.925273 -89.538888 
L 143.036818 -88.91354 
L 138.148364 -87.664774 
L 133.259909 -96.5186 
L 128.371455 -89.689238 
L 123.483 -96.736029 
L 118.594545 -95.420604 
L 113.706091 -94.595231 
L 108.817636 -90.200823 
L 103.929182 -89.577872 
L 99.040727 -95.096762 
L 94.152273 -96.156387 
z
" style="stroke: #00008b; stroke-opacity: 0.1"/>
    </defs>
    <g clip-path="url(#p221f18eae7)">
     <use xlink:href="#m37dd1da81b" x="0" y="432" style="fill: #00008b; fill-opacity: 0.1; stroke: #00008b; stroke-opacity: 0.1"/>
    </g>
   </g>
   <g id="PolyCollection_4">
    <defs>
     <path id="m17a2b7043c" d="M 94.152273 -87.402894 
L 94.152273 -84.751316 
L 99.040727 -88.144182 
L 103.929182 -88.254958 
L 108.817636 -92.170109 
L 113.706091 -92.925719 
L 118.594545 -93.264863 
L 123.483 -91.33083 
L 128.371455 -90.758909 
L 133.259909 -90.573074 
L 138.148364 -89.722829 
L 143.036818 -91.819908 
L 147.925273 -92.629819 
L 152.813727 -92.073968 
L 157.702182 -93.01385 
L 162.590636 -93.84118 
L 167.479091 -93.859767 
L 172.367545 -93.759489 
L 177.256 -95.470474 
L 182.144455 -95.343823 
L 187.032909 -96.835052 
L 191.921364 -98.499025 
L 196.809818 -101.139313 
L 201.698273 -103.726315 
L 206.586727 -106.310792 
L 211.475182 -109.54279 
L 216.363636 -112.281892 
L 221.252091 -113.232969 
L 226.140545 -114.418842 
L 231.029 -114.093517 
L 235.917455 -113.586344 
L 240.805909 -112.453419 
L 245.694364 -112.146662 
L 250.582818 -110.718823 
L 255.471273 -109.77809 
L 260.359727 -108.950303 
L 265.248182 -107.672484 
L 270.136636 -107.309782 
L 275.025091 -106.423354 
L 279.913545 -105.797914 
L 284.802 -106.497385 
L 289.690455 -105.972259 
L 294.578909 -105.710532 
L 299.467364 -105.674763 
L 304.355818 -104.41198 
L 309.244273 -104.610251 
L 314.132727 -104.889453 
L 319.021182 -105.565431 
L 323.909636 -105.819226 
L 328.798091 -105.7253 
L 333.686545 -105.543531 
L 338.575 -105.614144 
L 343.463455 -105.951255 
L 348.351909 -105.978343 
L 353.240364 -105.386005 
L 358.128818 -105.54243 
L 363.017273 -105.8471 
L 367.905727 -106.131385 
L 372.794182 -106.73669 
L 377.682636 -106.186434 
L 382.571091 -105.752777 
L 387.459545 -106.514366 
L 392.348 -106.540895 
L 397.236455 -106.665617 
L 402.124909 -106.175758 
L 407.013364 -106.334386 
L 411.901818 -106.53655 
L 416.790273 -107.220669 
L 421.678727 -106.474996 
L 426.567182 -106.110203 
L 431.455636 -105.27069 
L 436.344091 -103.907808 
L 441.232545 -103.768586 
L 446.121 -103.118153 
L 451.009455 -102.955779 
L 455.897909 -101.407509 
L 460.786364 -99.74956 
L 465.674818 -99.620658 
L 470.563273 -99.398042 
L 475.451727 -98.861551 
L 480.340182 -98.300413 
L 485.228636 -98.057548 
L 490.117091 -97.244183 
L 495.005545 -97.233603 
L 499.894 -97.268885 
L 504.782455 -96.28153 
L 509.670909 -97.079486 
L 514.559364 -96.401409 
L 519.447818 -96.295079 
L 524.336273 -96.462138 
L 529.224727 -96.855495 
L 534.113182 -95.996287 
L 539.001636 -97.153122 
L 543.890091 -96.781763 
L 548.778545 -95.850384 
L 553.667 -95.751851 
L 558.555455 -95.856693 
L 563.443909 -95.326014 
L 568.332364 -95.520247 
L 573.220818 -94.55856 
L 578.109273 -94.834353 
L 582.997727 -94.699183 
L 582.997727 -98.489281 
L 582.997727 -98.489281 
L 578.109273 -98.562602 
L 573.220818 -98.330249 
L 568.332364 -99.25785 
L 563.443909 -99.075447 
L 558.555455 -99.52143 
L 553.667 -99.437498 
L 548.778545 -99.350236 
L 543.890091 -100.246094 
L 539.001636 -100.481173 
L 534.113182 -99.592234 
L 529.224727 -100.531163 
L 524.336273 -99.975721 
L 519.447818 -99.775123 
L 514.559364 -99.978673 
L 509.670909 -100.55889 
L 504.782455 -99.737149 
L 499.894 -100.738083 
L 495.005545 -100.78286 
L 490.117091 -100.691906 
L 485.228636 -101.409061 
L 480.340182 -101.528638 
L 475.451727 -101.967251 
L 470.563273 -102.555774 
L 465.674818 -102.65507 
L 460.786364 -102.929763 
L 455.897909 -104.788679 
L 451.009455 -106.401669 
L 446.121 -106.54167 
L 441.232545 -107.336054 
L 436.344091 -107.528778 
L 431.455636 -109.001404 
L 426.567182 -109.86532 
L 421.678727 -110.158237 
L 416.790273 -110.983292 
L 411.901818 -110.295405 
L 407.013364 -110.077868 
L 402.124909 -109.905613 
L 397.236455 -110.263358 
L 392.348 -110.102322 
L 387.459545 -109.985802 
L 382.571091 -109.15286 
L 377.682636 -109.580921 
L 372.794182 -110.14009 
L 367.905727 -109.468611 
L 363.017273 -109.155905 
L 358.128818 -108.842803 
L 353.240364 -108.545836 
L 348.351909 -109.062753 
L 343.463455 -108.934888 
L 338.575 -108.585382 
L 333.686545 -108.524251 
L 328.798091 -108.816657 
L 323.909636 -108.959209 
L 319.021182 -108.649211 
L 314.132727 -108.027012 
L 309.244273 -107.661192 
L 304.355818 -107.418555 
L 299.467364 -108.782363 
L 294.578909 -108.784526 
L 289.690455 -108.91201 
L 284.802 -109.38783 
L 279.913545 -108.5893 
L 275.025091 -109.115611 
L 270.136636 -110.063742 
L 265.248182 -110.247853 
L 260.359727 -111.488365 
L 255.471273 -112.369541 
L 250.582818 -113.373275 
L 245.694364 -114.831433 
L 240.805909 -115.398501 
L 235.917455 -116.78437 
L 231.029 -117.62225 
L 226.140545 -118.417513 
L 221.252091 -117.208549 
L 216.363636 -116.5011 
L 211.475182 -113.775998 
L 206.586727 -110.774139 
L 201.698273 -107.698734 
L 196.809818 -105.04019 
L 191.921364 -102.16015 
L 187.032909 -100.627321 
L 182.144455 -98.909038 
L 177.256 -98.908277 
L 172.367545 -97.310234 
L 167.479091 -97.175908 
L 162.590636 -97.409335 
L 157.702182 -96.138436 
L 152.813727 -95.432696 
L 147.925273 -96.012117 
L 143.036818 -95.189839 
L 138.148364 -93.070494 
L 133.259909 -94.012158 
L 128.371455 -94.366486 
L 123.483 -95.233341 
L 118.594545 -97.665457 
L 113.706091 -96.547281 
L 108.817636 -96.008961 
L 103.929182 -91.857731 
L 99.040727 -91.123738 
L 94.152273 -87.402894 
z
" style="stroke: #00008b; stroke-opacity: 0.1"/>
    </defs>
    <g clip-path="url(#p221f18eae7)">
     <use xlink:href="#m17a2b7043c" x="0" y="432" style="fill: #00008b; fill-opacity: 0.1; stroke: #00008b; stroke-opacity: 0.1"/>
    </g>
   </g>
   <g id="PathCollection_2">
    <defs>
     <path id="mab0cd15616" d="M 0 -3 
L -0.673542 -0.927051 
L -2.85317 -0.927051 
L -1.089814 0.354102 
L -1.763356 2.427051 
L -0 1.145898 
L 1.763356 2.427051 
L 1.089814 0.354102 
L 2.85317 -0.927051 
L 0.673542 -0.927051 
z
" style="stroke: #00008b"/>
    </defs>
    <g clip-path="url(#p221f18eae7)">
     <use xlink:href="#mab0cd15616" x="289.690455" y="360.787542" style="fill: #00008b; stroke: #00008b"/>
     <use xlink:href="#mab0cd15616" x="294.578909" y="360.787542" style="fill: #00008b; stroke: #00008b"/>
     <use xlink:href="#mab0cd15616" x="299.467364" y="360.787542" style="fill: #00008b; stroke: #00008b"/>
     <use xlink:href="#mab0cd15616" x="304.355818" y="360.787542" style="fill: #00008b; stroke: #00008b"/>
     <use xlink:href="#mab0cd15616" x="309.244273" y="360.787542" style="fill: #00008b; stroke: #00008b"/>
     <use xlink:href="#mab0cd15616" x="314.132727" y="360.787542" style="fill: #00008b; stroke: #00008b"/>
     <use xlink:href="#mab0cd15616" x="319.021182" y="360.787542" style="fill: #00008b; stroke: #00008b"/>
     <use xlink:href="#mab0cd15616" x="323.909636" y="360.787542" style="fill: #00008b; stroke: #00008b"/>
     <use xlink:href="#mab0cd15616" x="328.798091" y="360.787542" style="fill: #00008b; stroke: #00008b"/>
     <use xlink:href="#mab0cd15616" x="333.686545" y="360.787542" style="fill: #00008b; stroke: #00008b"/>
     <use xlink:href="#mab0cd15616" x="338.575" y="360.787542" style="fill: #00008b; stroke: #00008b"/>
     <use xlink:href="#mab0cd15616" x="343.463455" y="360.787542" style="fill: #00008b; stroke: #00008b"/>
     <use xlink:href="#mab0cd15616" x="348.351909" y="360.787542" style="fill: #00008b; stroke: #00008b"/>
     <use xlink:href="#mab0cd15616" x="353.240364" y="360.787542" style="fill: #00008b; stroke: #00008b"/>
     <use xlink:href="#mab0cd15616" x="358.128818" y="360.787542" style="fill: #00008b; stroke: #00008b"/>
     <use xlink:href="#mab0cd15616" x="363.017273" y="360.787542" style="fill: #00008b; stroke: #00008b"/>
     <use xlink:href="#mab0cd15616" x="367.905727" y="360.787542" style="fill: #00008b; stroke: #00008b"/>
     <use xlink:href="#mab0cd15616" x="372.794182" y="360.787542" style="fill: #00008b; stroke: #00008b"/>
     <use xlink:href="#mab0cd15616" x="377.682636" y="360.787542" style="fill: #00008b; stroke: #00008b"/>
     <use xlink:href="#mab0cd15616" x="382.571091" y="360.787542" style="fill: #00008b; stroke: #00008b"/>
     <use xlink:href="#mab0cd15616" x="387.459545" y="360.787542" style="fill: #00008b; stroke: #00008b"/>
     <use xlink:href="#mab0cd15616" x="392.348" y="360.787542" style="fill: #00008b; stroke: #00008b"/>
     <use xlink:href="#mab0cd15616" x="397.236455" y="360.787542" style="fill: #00008b; stroke: #00008b"/>
     <use xlink:href="#mab0cd15616" x="402.124909" y="360.787542" style="fill: #00008b; stroke: #00008b"/>
     <use xlink:href="#mab0cd15616" x="407.013364" y="360.787542" style="fill: #00008b; stroke: #00008b"/>
     <use xlink:href="#mab0cd15616" x="411.901818" y="360.787542" style="fill: #00008b; stroke: #00008b"/>
     <use xlink:href="#mab0cd15616" x="416.790273" y="360.787542" style="fill: #00008b; stroke: #00008b"/>
     <use xlink:href="#mab0cd15616" x="421.678727" y="360.787542" style="fill: #00008b; stroke: #00008b"/>
     <use xlink:href="#mab0cd15616" x="426.567182" y="360.787542" style="fill: #00008b; stroke: #00008b"/>
     <use xlink:href="#mab0cd15616" x="431.455636" y="360.787542" style="fill: #00008b; stroke: #00008b"/>
     <use xlink:href="#mab0cd15616" x="436.344091" y="360.787542" style="fill: #00008b; stroke: #00008b"/>
     <use xlink:href="#mab0cd15616" x="441.232545" y="360.787542" style="fill: #00008b; stroke: #00008b"/>
     <use xlink:href="#mab0cd15616" x="446.121" y="360.787542" style="fill: #00008b; stroke: #00008b"/>
     <use xlink:href="#mab0cd15616" x="451.009455" y="360.787542" style="fill: #00008b; stroke: #00008b"/>
     <use xlink:href="#mab0cd15616" x="455.897909" y="360.787542" style="fill: #00008b; stroke: #00008b"/>
     <use xlink:href="#mab0cd15616" x="460.786364" y="360.787542" style="fill: #00008b; stroke: #00008b"/>
     <use xlink:href="#mab0cd15616" x="465.674818" y="360.787542" style="fill: #00008b; stroke: #00008b"/>
     <use xlink:href="#mab0cd15616" x="470.563273" y="360.787542" style="fill: #00008b; stroke: #00008b"/>
     <use xlink:href="#mab0cd15616" x="475.451727" y="360.787542" style="fill: #00008b; stroke: #00008b"/>
     <use xlink:href="#mab0cd15616" x="480.340182" y="360.787542" style="fill: #00008b; stroke: #00008b"/>
     <use xlink:href="#mab0cd15616" x="485.228636" y="360.787542" style="fill: #00008b; stroke: #00008b"/>
     <use xlink:href="#mab0cd15616" x="490.117091" y="360.787542" style="fill: #00008b; stroke: #00008b"/>
     <use xlink:href="#mab0cd15616" x="495.005545" y="360.787542" style="fill: #00008b; stroke: #00008b"/>
     <use xlink:href="#mab0cd15616" x="499.894" y="360.787542" style="fill: #00008b; stroke: #00008b"/>
     <use xlink:href="#mab0cd15616" x="504.782455" y="360.787542" style="fill: #00008b; stroke: #00008b"/>
     <use xlink:href="#mab0cd15616" x="509.670909" y="360.787542" style="fill: #00008b; stroke: #00008b"/>
     <use xlink:href="#mab0cd15616" x="514.559364" y="360.787542" style="fill: #00008b; stroke: #00008b"/>
     <use xlink:href="#mab0cd15616" x="519.447818" y="360.787542" style="fill: #00008b; stroke: #00008b"/>
     <use xlink:href="#mab0cd15616" x="524.336273" y="360.787542" style="fill: #00008b; stroke: #00008b"/>
     <use xlink:href="#mab0cd15616" x="529.224727" y="360.787542" style="fill: #00008b; stroke: #00008b"/>
     <use xlink:href="#mab0cd15616" x="534.113182" y="360.787542" style="fill: #00008b; stroke: #00008b"/>
     <use xlink:href="#mab0cd15616" x="539.001636" y="360.787542" style="fill: #00008b; stroke: #00008b"/>
     <use xlink:href="#mab0cd15616" x="543.890091" y="360.787542" style="fill: #00008b; stroke: #00008b"/>
     <use xlink:href="#mab0cd15616" x="548.778545" y="360.787542" style="fill: #00008b; stroke: #00008b"/>
     <use xlink:href="#mab0cd15616" x="553.667" y="360.787542" style="fill: #00008b; stroke: #00008b"/>
     <use xlink:href="#mab0cd15616" x="558.555455" y="360.787542" style="fill: #00008b; stroke: #00008b"/>
     <use xlink:href="#mab0cd15616" x="563.443909" y="360.787542" style="fill: #00008b; stroke: #00008b"/>
     <use xlink:href="#mab0cd15616" x="568.332364" y="360.787542" style="fill: #00008b; stroke: #00008b"/>
     <use xlink:href="#mab0cd15616" x="573.220818" y="360.787542" style="fill: #00008b; stroke: #00008b"/>
     <use xlink:href="#mab0cd15616" x="578.109273" y="360.787542" style="fill: #00008b; stroke: #00008b"/>
     <use xlink:href="#mab0cd15616" x="582.997727" y="360.787542" style="fill: #00008b; stroke: #00008b"/>
    </g>
   </g>
   <g id="line2d_1">
    <path d="M 94.152273 345.422595 
L 99.040727 342.654148 
L 103.929182 341.821922 
L 108.817636 343.625751 
L 113.706091 341.36449 
L 118.594545 348.544696 
L 123.483 346.334393 
L 128.371455 343.617956 
L 133.259909 342.430088 
L 138.148364 343.633413 
L 143.036818 343.055531 
L 147.925273 348.541367 
L 152.813727 341.721358 
L 157.702182 349.417503 
L 162.590636 340.55287 
L 167.479091 342.440692 
L 172.367545 341.867413 
L 177.256 343.039936 
L 182.144455 343.819628 
L 187.032909 347.967658 
L 191.921364 349.600299 
L 196.809818 349.558382 
L 201.698273 349.289458 
L 206.586727 350.550575 
L 211.475182 331.93958 
L 216.363636 338.64561 
L 221.252091 341.193977 
L 226.140545 347.156081 
L 231.029 335.91087 
L 235.917455 333.292577 
L 240.805909 331.752562 
L 245.694364 337.688009 
L 250.582818 336.519662 
L 255.471273 329.049721 
L 260.359727 333.949584 
L 265.248182 325.002735 
L 270.136636 325.249529 
L 275.025091 332.678366 
L 279.913545 339.25822 
L 284.802 353.714616 
L 289.690455 349.906188 
L 294.578909 345.297278 
L 299.467364 355.576953 
L 304.355818 355.004358 
L 309.244273 352.280241 
L 314.132727 341.232583 
L 319.021182 343.82949 
L 323.909636 344.13663 
L 328.798091 338.618254 
L 333.686545 335.945471 
L 338.575 340.277599 
L 343.463455 346.884864 
L 348.351909 344.408658 
L 353.240364 346.953921 
L 358.128818 338.402523 
L 363.017273 332.612813 
L 367.905727 335.052791 
L 372.794182 338.176686 
L 377.682636 340.857683 
L 382.571091 337.822759 
L 387.459545 345.229327 
L 392.348 345.614427 
L 397.236455 345.263517 
L 402.124909 340.925874 
L 407.013364 341.758531 
L 411.901818 329.87999 
L 416.790273 333.514346 
L 421.678727 334.62761 
L 426.567182 338.915556 
L 431.455636 332.483226 
L 436.344091 323.830737 
L 441.232545 331.396525 
L 446.121 347.239129 
L 451.009455 353.958658 
L 455.897909 354.64522 
L 460.786364 350.25192 
L 465.674818 348.494327 
L 470.563273 350.914313 
L 475.451727 342.246586 
L 480.340182 351.315285 
L 485.228636 338.35455 
L 490.117091 344.125534 
L 495.005545 335.538592 
L 499.894 341.01552 
L 504.782455 347.450673 
L 509.670909 346.710361 
L 514.559364 343.585465 
L 519.447818 341.513203 
L 524.336273 346.927975 
L 529.224727 343.392514 
L 534.113182 350.908842 
L 539.001636 343.92359 
L 543.890091 352.283438 
L 548.778545 342.910051 
L 553.667 345.768978 
L 558.555455 348.194254 
L 563.443909 352.487464 
L 568.332364 336.063932 
L 573.220818 349.707617 
L 578.109273 340.913402 
L 582.997727 348.642622 
" clip-path="url(#p221f18eae7)" style="fill: none; stroke: #6060eb; stroke-width: 2; stroke-linecap: round"/>
   </g>
   <g id="line2d_2">
    <path d="M 94.152273 345.564398 
L 99.040727 345.041104 
L 103.929182 345.023498 
L 108.817636 344.812235 
L 113.706091 345.421404 
L 118.594545 344.305044 
L 123.483 344.612278 
L 128.371455 345.146774 
L 133.259909 344.697959 
L 138.148364 345.443109 
L 143.036818 343.980787 
L 147.925273 345.306521 
L 152.813727 345.445608 
L 157.702182 343.681889 
L 162.590636 345.234503 
L 167.479091 344.837907 
L 172.367545 343.537173 
L 177.256 343.730925 
L 182.144455 344.206663 
L 187.032909 344.771693 
L 191.921364 344.857116 
L 196.809818 343.78079 
L 201.698273 345.524336 
L 206.586727 345.574697 
L 211.475182 338.091933 
L 216.363636 334.689458 
L 221.252091 333.879297 
L 226.140545 332.156823 
L 231.029 331.110859 
L 235.917455 331.190913 
L 240.805909 334.120049 
L 245.694364 337.051177 
L 250.582818 338.092372 
L 255.471273 336.153336 
L 260.359727 337.141296 
L 265.248182 339.86322 
L 270.136636 338.495552 
L 275.025091 339.006846 
L 279.913545 338.529285 
L 284.802 335.891075 
L 289.690455 336.541375 
L 294.578909 335.765996 
L 299.467364 335.895404 
L 304.355818 334.961757 
L 309.244273 334.800378 
L 314.132727 333.883681 
L 319.021182 334.848081 
L 323.909636 334.388105 
L 328.798091 335.626146 
L 333.686545 335.416413 
L 338.575 336.811463 
L 343.463455 338.757954 
L 348.351909 337.249696 
L 353.240364 336.895706 
L 358.128818 339.097575 
L 363.017273 338.676853 
L 367.905727 335.391585 
L 372.794182 335.707338 
L 377.682636 338.010303 
L 382.571091 337.80579 
L 387.459545 338.314282 
L 392.348 338.356238 
L 397.236455 336.351903 
L 402.124909 336.354473 
L 407.013364 337.670384 
L 411.901818 339.966773 
L 416.790273 339.44155 
L 421.678727 336.999742 
L 426.567182 333.999158 
L 431.455636 333.414199 
L 436.344091 333.221329 
L 441.232545 334.751982 
L 446.121 335.30432 
L 451.009455 338.944656 
L 455.897909 343.845946 
L 460.786364 345.134528 
L 465.674818 345.22096 
L 470.563273 344.44053 
L 475.451727 345.067665 
L 480.340182 345.199975 
L 485.228636 346.698318 
L 490.117091 346.243732 
L 495.005545 344.967029 
L 499.894 344.473863 
L 504.782455 345.597642 
L 509.670909 344.567446 
L 514.559364 343.929991 
L 519.447818 344.580867 
L 524.336273 347.342708 
L 529.224727 345.837191 
L 534.113182 345.666451 
L 539.001636 345.78653 
L 543.890091 345.367862 
L 548.778545 345.55263 
L 553.667 345.630587 
L 558.555455 345.652995 
L 563.443909 344.536955 
L 568.332364 346.400248 
L 573.220818 344.057695 
L 578.109273 344.858665 
L 582.997727 343.945048 
" clip-path="url(#p221f18eae7)" style="fill: none; stroke-dasharray: 7.4,3.2; stroke-dashoffset: 0; stroke: #6060eb; stroke-width: 2"/>
   </g>
   <g id="line2d_3">
    <path d="M 211.475182 377.54 
L 211.475182 26.96 
" clip-path="url(#p221f18eae7)" style="fill: none; stroke-dasharray: 5.55,2.4; stroke-dashoffset: 0; stroke: #1a1a1a; stroke-width: 1.5"/>
   </g>
   <g id="line2d_4">
    <path d="M 455.897909 377.54 
L 455.897909 26.96 
" clip-path="url(#p221f18eae7)" style="fill: none; stroke-dasharray: 5.55,2.4; stroke-dashoffset: 0; stroke: #1a1a1a; stroke-width: 1.5"/>
   </g>
   <g id="line2d_5">
    <path d="M 94.152273 342.017377 
L 99.040727 346.366795 
L 103.929182 351.280875 
L 108.817636 350.973102 
L 113.706091 346.269031 
L 118.594545 345.177469 
L 123.483 343.782484 
L 128.371455 351.00484 
L 133.259909 343.49712 
L 138.148364 352.969886 
L 143.036818 351.557395 
L 147.925273 350.5147 
L 152.813727 346.884044 
L 157.702182 344.332666 
L 162.590636 344.06967 
L 167.479091 342.677196 
L 172.367545 344.761894 
L 177.256 335.972891 
L 182.144455 329.221117 
L 187.032909 332.103305 
L 191.921364 329.513922 
L 196.809818 329.395686 
L 201.698273 321.103469 
L 206.586727 327.952506 
L 211.475182 325.215035 
L 216.363636 324.468664 
L 221.252091 327.55705 
L 226.140545 320.588625 
L 231.029 317.254708 
L 235.917455 316.887836 
L 240.805909 310.510145 
L 245.694364 310.363816 
L 250.582818 310.30347 
L 255.471273 307.790968 
L 260.359727 305.343903 
L 265.248182 305.704156 
L 270.136636 301.598649 
L 275.025091 299.813454 
L 279.913545 296.902789 
L 284.802 295.705918 
L 289.690455 291.914205 
L 294.578909 287.976025 
L 299.467364 281.98727 
L 304.355818 280.067125 
L 309.244273 276.547624 
L 314.132727 276.291461 
L 319.021182 274.228256 
L 323.909636 266.954412 
L 328.798091 258.065645 
L 333.686545 252.277849 
L 338.575 248.611176 
L 343.463455 236.823645 
L 348.351909 232.648743 
L 353.240364 227.707845 
L 358.128818 221.327697 
L 363.017273 216.145019 
L 367.905727 209.110043 
L 372.794182 198.353498 
L 377.682636 193.032873 
L 382.571091 188.112189 
L 387.459545 179.361757 
L 392.348 173.420601 
L 397.236455 166.947674 
L 402.124909 161.576258 
L 407.013364 155.394858 
L 411.901818 154.517257 
L 416.790273 147.5983 
L 421.678727 141.069248 
L 426.567182 136.541686 
L 431.455636 135.017403 
L 436.344091 133.002595 
L 441.232545 129.327152 
L 446.121 126.353674 
L 451.009455 125.548421 
L 455.897909 121.755364 
L 460.786364 123.187766 
L 465.674818 120.601599 
L 470.563273 119.408634 
L 475.451727 114.05025 
L 480.340182 111.481074 
L 485.228636 105.919648 
L 490.117091 104.197494 
L 495.005545 101.73813 
L 499.894 98.30363 
L 504.782455 92.227465 
L 509.670909 87.515501 
L 514.559364 87.830149 
L 519.447818 89.373653 
L 524.336273 89.919021 
L 529.224727 87.421793 
L 534.113182 90.181906 
L 539.001636 88.196535 
L 543.890091 88.411151 
L 548.778545 87.159607 
L 553.667 86.63842 
L 558.555455 88.760723 
L 563.443909 91.004557 
L 568.332364 87.65716 
L 573.220818 91.108264 
L 578.109273 92.330566 
L 582.997727 89.27647 
" clip-path="url(#p221f18eae7)" style="fill: none; stroke: #00008b; stroke-width: 2; stroke-linecap: round"/>
   </g>
   <g id="line2d_6">
    <path d="M 94.152273 345.922895 
L 99.040727 342.36604 
L 103.929182 341.943655 
L 108.817636 337.910465 
L 113.706091 337.2635 
L 118.594545 336.53484 
L 123.483 338.717914 
L 128.371455 339.437302 
L 133.259909 339.707384 
L 138.148364 340.603339 
L 143.036818 338.495126 
L 147.925273 337.679032 
L 152.813727 338.246668 
L 157.702182 337.423857 
L 162.590636 336.374743 
L 167.479091 336.482163 
L 172.367545 336.465139 
L 177.256 334.810624 
L 182.144455 334.873569 
L 187.032909 333.268813 
L 191.921364 331.670412 
L 196.809818 328.910249 
L 201.698273 326.287476 
L 206.586727 323.457534 
L 211.475182 320.340606 
L 216.363636 317.608504 
L 221.252091 316.779241 
L 226.140545 315.581822 
L 231.029 316.142117 
L 235.917455 316.814643 
L 240.805909 318.07404 
L 245.694364 318.510953 
L 250.582818 319.953951 
L 255.471273 320.926184 
L 260.359727 321.780666 
L 265.248182 323.039831 
L 270.136636 323.313238 
L 275.025091 324.230518 
L 279.913545 324.806393 
L 284.802 324.057392 
L 289.690455 324.557865 
L 294.578909 324.752471 
L 299.467364 324.771437 
L 304.355818 326.084732 
L 309.244273 325.864279 
L 314.132727 325.541768 
L 319.021182 324.892679 
L 323.909636 324.610782 
L 328.798091 324.729022 
L 333.686545 324.966109 
L 338.575 324.900237 
L 343.463455 324.556929 
L 348.351909 324.479452 
L 353.240364 325.034079 
L 358.128818 324.807384 
L 363.017273 324.498497 
L 367.905727 324.200002 
L 372.794182 323.56161 
L 377.682636 324.116323 
L 382.571091 324.547181 
L 387.459545 323.749916 
L 392.348 323.678391 
L 397.236455 323.535513 
L 402.124909 323.959315 
L 407.013364 323.793873 
L 411.901818 323.584022 
L 416.790273 322.898019 
L 421.678727 323.683384 
L 426.567182 324.012238 
L 431.455636 324.863953 
L 436.344091 326.281707 
L 441.232545 326.44768 
L 446.121 327.170089 
L 451.009455 327.321276 
L 455.897909 328.901906 
L 460.786364 330.660339 
L 465.674818 330.862136 
L 470.563273 331.023092 
L 475.451727 331.585599 
L 480.340182 332.085474 
L 485.228636 332.266696 
L 490.117091 333.031956 
L 495.005545 332.991768 
L 499.894 332.996516 
L 504.782455 333.990661 
L 509.670909 333.180812 
L 514.559364 333.809959 
L 519.447818 333.964899 
L 524.336273 333.781071 
L 529.224727 333.306671 
L 534.113182 334.205739 
L 539.001636 333.182853 
L 543.890091 333.486071 
L 548.778545 334.39969 
L 553.667 334.405325 
L 558.555455 334.310938 
L 563.443909 334.799269 
L 568.332364 334.610952 
L 573.220818 335.555595 
L 578.109273 335.301523 
L 582.997727 335.405768 
" clip-path="url(#p221f18eae7)" style="fill: none; stroke-dasharray: 7.4,3.2; stroke-dashoffset: 0; stroke: #00008b; stroke-width: 2"/>
   </g>
   <g id="line2d_7">
    <path d="M 211.475182 377.54 
L 211.475182 26.96 
" clip-path="url(#p221f18eae7)" style="fill: none; stroke-dasharray: 5.55,2.4; stroke-dashoffset: 0; stroke: #1a1a1a; stroke-width: 1.5"/>
   </g>
   <g id="line2d_8">
    <path d="M 455.897909 377.54 
L 455.897909 26.96 
" clip-path="url(#p221f18eae7)" style="fill: none; stroke-dasharray: 5.55,2.4; stroke-dashoffset: 0; stroke: #1a1a1a; stroke-width: 1.5"/>
   </g>
   <g id="patch_3">
    <path d="M 69.71 377.54 
L 69.71 26.96 
" style="fill: none; stroke: #cccccc; stroke-width: 1.5; stroke-linejoin: miter; stroke-linecap: square"/>
   </g>
   <g id="patch_4">
    <path d="M 69.71 377.54 
L 607.44 377.54 
" style="fill: none; stroke: #cccccc; stroke-width: 1.5; stroke-linejoin: miter; stroke-linecap: square"/>
   </g>
   <g id="text_20">
    <!-- Divergence Comparison: Original vs Shuffled -->
    <g style="fill: #262626" transform="translate(218.965 20.96) scale(0.12 -0.12)">
     <defs>
      <path id="ArialMT-43" d="M 3763 1606 
L 4369 1453 
Q 4178 706 3683 314 
Q 3188 -78 2472 -78 
Q 1731 -78 1267 223 
Q 803 525 561 1097 
Q 319 1669 319 2325 
Q 319 3041 592 3573 
Q 866 4106 1370 4382 
Q 1875 4659 2481 4659 
Q 3169 4659 3637 4309 
Q 4106 3959 4291 3325 
L 3694 3184 
Q 3534 3684 3231 3912 
Q 2928 4141 2469 4141 
Q 1941 4141 1586 3887 
Q 1231 3634 1087 3207 
Q 944 2781 944 2328 
Q 944 1744 1114 1308 
Q 1284 872 1643 656 
Q 2003 441 2422 441 
Q 2931 441 3284 734 
Q 3638 1028 3763 1606 
z
" transform="scale(0.015625)"/>
      <path id="ArialMT-6f" d="M 213 1659 
Q 213 2581 725 3025 
Q 1153 3394 1769 3394 
Q 2453 3394 2887 2945 
Q 3322 2497 3322 1706 
Q 3322 1066 3130 698 
Q 2938 331 2570 128 
Q 2203 -75 1769 -75 
Q 1072 -75 642 372 
Q 213 819 213 1659 
z
M 791 1659 
Q 791 1022 1069 705 
Q 1347 388 1769 388 
Q 2188 388 2466 706 
Q 2744 1025 2744 1678 
Q 2744 2294 2464 2611 
Q 2184 2928 1769 2928 
Q 1347 2928 1069 2612 
Q 791 2297 791 1659 
z
" transform="scale(0.015625)"/>
      <path id="ArialMT-70" d="M 422 -1272 
L 422 3319 
L 934 3319 
L 934 2888 
Q 1116 3141 1344 3267 
Q 1572 3394 1897 3394 
Q 2322 3394 2647 3175 
Q 2972 2956 3137 2557 
Q 3303 2159 3303 1684 
Q 3303 1175 3120 767 
Q 2938 359 2589 142 
Q 2241 -75 1856 -75 
Q 1575 -75 1351 44 
Q 1128 163 984 344 
L 984 -1272 
L 422 -1272 
z
M 931 1641 
Q 931 1000 1190 694 
Q 1450 388 1819 388 
Q 2194 388 2461 705 
Q 2728 1022 2728 1688 
Q 2728 2322 2467 2637 
Q 2206 2953 1844 2953 
Q 1484 2953 1207 2617 
Q 931 2281 931 1641 
z
" transform="scale(0.015625)"/>
      <path id="ArialMT-61" d="M 2588 409 
Q 2275 144 1986 34 
Q 1697 -75 1366 -75 
Q 819 -75 525 192 
Q 231 459 231 875 
Q 231 1119 342 1320 
Q 453 1522 633 1644 
Q 813 1766 1038 1828 
Q 1203 1872 1538 1913 
Q 2219 1994 2541 2106 
Q 2544 2222 2544 2253 
Q 2544 2597 2384 2738 
Q 2169 2928 1744 2928 
Q 1347 2928 1158 2789 
Q 969 2650 878 2297 
L 328 2372 
Q 403 2725 575 2942 
Q 747 3159 1072 3276 
Q 1397 3394 1825 3394 
Q 2250 3394 2515 3294 
Q 2781 3194 2906 3042 
Q 3031 2891 3081 2659 
Q 3109 2516 3109 2141 
L 3109 1391 
Q 3109 606 3145 398 
Q 3181 191 3288 0 
L 2700 0 
Q 2613 175 2588 409 
z
M 2541 1666 
Q 2234 1541 1622 1453 
Q 1275 1403 1131 1340 
Q 988 1278 909 1158 
Q 831 1038 831 891 
Q 831 666 1001 516 
Q 1172 366 1500 366 
Q 1825 366 2078 508 
Q 2331 650 2450 897 
Q 2541 1088 2541 1459 
L 2541 1666 
z
" transform="scale(0.015625)"/>
      <path id="ArialMT-3a" d="M 578 2678 
L 578 3319 
L 1219 3319 
L 1219 2678 
L 578 2678 
z
M 578 0 
L 578 641 
L 1219 641 
L 1219 0 
L 578 0 
z
" transform="scale(0.015625)"/>
      <path id="ArialMT-4f" d="M 309 2231 
Q 309 3372 921 4017 
Q 1534 4663 2503 4663 
Q 3138 4663 3647 4359 
Q 4156 4056 4423 3514 
Q 4691 2972 4691 2284 
Q 4691 1588 4409 1038 
Q 4128 488 3612 205 
Q 3097 -78 2500 -78 
Q 1853 -78 1343 234 
Q 834 547 571 1087 
Q 309 1628 309 2231 
z
M 934 2222 
Q 934 1394 1379 917 
Q 1825 441 2497 441 
Q 3181 441 3623 922 
Q 4066 1403 4066 2288 
Q 4066 2847 3877 3264 
Q 3688 3681 3323 3911 
Q 2959 4141 2506 4141 
Q 1863 4141 1398 3698 
Q 934 3256 934 2222 
z
" transform="scale(0.015625)"/>
      <path id="ArialMT-6c" d="M 409 0 
L 409 4581 
L 972 4581 
L 972 0 
L 409 0 
z
" transform="scale(0.015625)"/>
      <path id="ArialMT-53" d="M 288 1472 
L 859 1522 
Q 900 1178 1048 958 
Q 1197 738 1509 602 
Q 1822 466 2213 466 
Q 2559 466 2825 569 
Q 3091 672 3220 851 
Q 3350 1031 3350 1244 
Q 3350 1459 3225 1620 
Q 3100 1781 2813 1891 
Q 2628 1963 1997 2114 
Q 1366 2266 1113 2400 
Q 784 2572 623 2826 
Q 463 3081 463 3397 
Q 463 3744 659 4045 
Q 856 4347 1234 4503 
Q 1613 4659 2075 4659 
Q 2584 4659 2973 4495 
Q 3363 4331 3572 4012 
Q 3781 3694 3797 3291 
L 3216 3247 
Q 3169 3681 2898 3903 
Q 2628 4125 2100 4125 
Q 1550 4125 1298 3923 
Q 1047 3722 1047 3438 
Q 1047 3191 1225 3031 
Q 1400 2872 2139 2705 
Q 2878 2538 3153 2413 
Q 3553 2228 3743 1945 
Q 3934 1663 3934 1294 
Q 3934 928 3725 604 
Q 3516 281 3123 101 
Q 2731 -78 2241 -78 
Q 1619 -78 1198 103 
Q 778 284 539 648 
Q 300 1013 288 1472 
z
" transform="scale(0.015625)"/>
      <path id="ArialMT-68" d="M 422 0 
L 422 4581 
L 984 4581 
L 984 2938 
Q 1378 3394 1978 3394 
Q 2347 3394 2619 3248 
Q 2891 3103 3008 2847 
Q 3125 2591 3125 2103 
L 3125 0 
L 2563 0 
L 2563 2103 
Q 2563 2525 2380 2717 
Q 2197 2909 1863 2909 
Q 1613 2909 1392 2779 
Q 1172 2650 1078 2428 
Q 984 2206 984 1816 
L 984 0 
L 422 0 
z
" transform="scale(0.015625)"/>
      <path id="ArialMT-75" d="M 2597 0 
L 2597 488 
Q 2209 -75 1544 -75 
Q 1250 -75 995 37 
Q 741 150 617 320 
Q 494 491 444 738 
Q 409 903 409 1263 
L 409 3319 
L 972 3319 
L 972 1478 
Q 972 1038 1006 884 
Q 1059 663 1231 536 
Q 1403 409 1656 409 
Q 1909 409 2131 539 
Q 2353 669 2445 892 
Q 2538 1116 2538 1541 
L 2538 3319 
L 3100 3319 
L 3100 0 
L 2597 0 
z
" transform="scale(0.015625)"/>
      <path id="ArialMT-66" d="M 556 0 
L 556 2881 
L 59 2881 
L 59 3319 
L 556 3319 
L 556 3672 
Q 556 4006 616 4169 
Q 697 4388 901 4523 
Q 1106 4659 1475 4659 
Q 1713 4659 2000 4603 
L 1916 4113 
Q 1741 4144 1584 4144 
Q 1328 4144 1222 4034 
Q 1116 3925 1116 3625 
L 1116 3319 
L 1763 3319 
L 1763 2881 
L 1116 2881 
L 1116 0 
L 556 0 
z
" transform="scale(0.015625)"/>
      <path id="ArialMT-64" d="M 2575 0 
L 2575 419 
Q 2259 -75 1647 -75 
Q 1250 -75 917 144 
Q 584 363 401 755 
Q 219 1147 219 1656 
Q 219 2153 384 2558 
Q 550 2963 881 3178 
Q 1213 3394 1622 3394 
Q 1922 3394 2156 3267 
Q 2391 3141 2538 2938 
L 2538 4581 
L 3097 4581 
L 3097 0 
L 2575 0 
z
M 797 1656 
Q 797 1019 1065 703 
Q 1334 388 1700 388 
Q 2069 388 2326 689 
Q 2584 991 2584 1609 
Q 2584 2291 2321 2609 
Q 2059 2928 1675 2928 
Q 1300 2928 1048 2622 
Q 797 2316 797 1656 
z
" transform="scale(0.015625)"/>
     </defs>
     <use xlink:href="#ArialMT-44"/>
     <use xlink:href="#ArialMT-69" x="72.216797"/>
     <use xlink:href="#ArialMT-76" x="94.433594"/>
     <use xlink:href="#ArialMT-65" x="144.433594"/>
     <use xlink:href="#ArialMT-72" x="200.048828"/>
     <use xlink:href="#ArialMT-67" x="233.349609"/>
     <use xlink:href="#ArialMT-65" x="288.964844"/>
     <use xlink:href="#ArialMT-6e" x="344.580078"/>
     <use xlink:href="#ArialMT-63" x="400.195312"/>
     <use xlink:href="#ArialMT-65" x="450.195312"/>
     <use xlink:href="#ArialMT-20" x="505.810547"/>
     <use xlink:href="#ArialMT-43" x="533.59375"/>
     <use xlink:href="#ArialMT-6f" x="605.810547"/>
     <use xlink:href="#ArialMT-6d" x="661.425781"/>
     <use xlink:href="#ArialMT-70" x="744.726562"/>
     <use xlink:href="#ArialMT-61" x="800.341797"/>
     <use xlink:href="#ArialMT-72" x="855.957031"/>
     <use xlink:href="#ArialMT-69" x="889.257812"/>
     <use xlink:href="#ArialMT-73" x="911.474609"/>
     <use xlink:href="#ArialMT-6f" x="961.474609"/>
     <use xlink:href="#ArialMT-6e" x="1017.089844"/>
     <use xlink:href="#ArialMT-3a" x="1072.705078"/>
     <use xlink:href="#ArialMT-20" x="1100.488281"/>
     <use xlink:href="#ArialMT-4f" x="1128.271484"/>
     <use xlink:href="#ArialMT-72" x="1206.054688"/>
     <use xlink:href="#ArialMT-69" x="1239.355469"/>
     <use xlink:href="#ArialMT-67" x="1261.572266"/>
     <use xlink:href="#ArialMT-69" x="1317.1875"/>
     <use xlink:href="#ArialMT-6e" x="1339.404297"/>
     <use xlink:href="#ArialMT-61" x="1395.019531"/>
     <use xlink:href="#ArialMT-6c" x="1450.634766"/>
     <use xlink:href="#ArialMT-20" x="1472.851562"/>
     <use xlink:href="#ArialMT-76" x="1500.634766"/>
     <use xlink:href="#ArialMT-73" x="1550.634766"/>
     <use xlink:href="#ArialMT-20" x="1600.634766"/>
     <use xlink:href="#ArialMT-53" x="1628.417969"/>
     <use xlink:href="#ArialMT-68" x="1695.117188"/>
     <use xlink:href="#ArialMT-75" x="1750.732422"/>
     <use xlink:href="#ArialMT-66" x="1806.347656"/>
     <use xlink:href="#ArialMT-66" x="1832.380859"/>
     <use xlink:href="#ArialMT-6c" x="1860.164062"/>
     <use xlink:href="#ArialMT-65" x="1882.380859"/>
     <use xlink:href="#ArialMT-64" x="1937.996094"/>
    </g>
   </g>
   <g id="legend_1">
    <g id="patch_5">
     <path d="M 615.14 258.915469 
L 704.741875 258.915469 
Q 706.941875 258.915469 706.941875 256.715469 
L 706.941875 147.784531 
Q 706.941875 145.584531 704.741875 145.584531 
L 615.14 145.584531 
Q 612.94 145.584531 612.94 147.784531 
L 612.94 256.715469 
Q 612.94 258.915469 615.14 258.915469 
z
" style="fill: #ffffff; opacity: 0.8; stroke: #cccccc; stroke-linejoin: miter"/>
    </g>
    <g id="line2d_9">
     <path d="M 617.34 154.149062 
L 628.34 154.149062 
L 639.34 154.149062 
" style="fill: none; stroke: #6060eb; stroke-width: 2; stroke-linecap: round"/>
    </g>
    <g id="text_21">
     <!-- Original -->
     <g style="fill: #262626" transform="translate(648.14 157.999062) scale(0.11 -0.11)">
      <use xlink:href="#ArialMT-4f"/>
      <use xlink:href="#ArialMT-72" x="77.783203"/>
      <use xlink:href="#ArialMT-69" x="111.083984"/>
      <use xlink:href="#ArialMT-67" x="133.300781"/>
      <use xlink:href="#ArialMT-69" x="188.916016"/>
      <use xlink:href="#ArialMT-6e" x="211.132812"/>
      <use xlink:href="#ArialMT-61" x="266.748047"/>
      <use xlink:href="#ArialMT-6c" x="322.363281"/>
     </g>
    </g>
    <g id="line2d_10">
     <path d="M 617.34 169.97875 
L 628.34 169.97875 
L 639.34 169.97875 
" style="fill: none; stroke-dasharray: 7.4,3.2; stroke-dashoffset: 0; stroke: #6060eb; stroke-width: 2"/>
    </g>
    <g id="text_22">
     <!-- Original -->
     <g style="fill: #262626" transform="translate(648.14 173.82875) scale(0.11 -0.11)">
      <use xlink:href="#ArialMT-4f"/>
      <use xlink:href="#ArialMT-72" x="77.783203"/>
      <use xlink:href="#ArialMT-69" x="111.083984"/>
      <use xlink:href="#ArialMT-67" x="133.300781"/>
      <use xlink:href="#ArialMT-69" x="188.916016"/>
      <use xlink:href="#ArialMT-6e" x="211.132812"/>
      <use xlink:href="#ArialMT-61" x="266.748047"/>
      <use xlink:href="#ArialMT-6c" x="322.363281"/>
     </g>
    </g>
    <g id="PathCollection_3">
     <g>
      <use xlink:href="#m0d0c74f847" x="628.34" y="186.662656" style="fill: #6060eb; stroke: #6060eb"/>
     </g>
    </g>
    <g id="text_23">
     <!-- p &lt; 0.001 -->
     <g style="fill: #262626" transform="translate(648.14 189.550156) scale(0.11 -0.11)">
      <defs>
       <path id="ArialMT-3c" d="M 350 2003 
L 350 2528 
L 3384 3809 
L 3384 3250 
L 978 2263 
L 3384 1266 
L 3384 706 
L 350 2003 
z
" transform="scale(0.015625)"/>
      </defs>
      <use xlink:href="#ArialMT-70"/>
      <use xlink:href="#ArialMT-20" x="55.615234"/>
      <use xlink:href="#ArialMT-3c" x="83.398438"/>
      <use xlink:href="#ArialMT-20" x="141.796875"/>
      <use xlink:href="#ArialMT-30" x="169.580078"/>
      <use xlink:href="#ArialMT-2e" x="225.195312"/>
      <use xlink:href="#ArialMT-30" x="252.978516"/>
      <use xlink:href="#ArialMT-30" x="308.59375"/>
      <use xlink:href="#ArialMT-31" x="364.208984"/>
     </g>
    </g>
    <g id="line2d_11">
     <path d="M 617.34 201.26 
L 628.34 201.26 
L 639.34 201.26 
" style="fill: none; stroke-dasharray: 5.55,2.4; stroke-dashoffset: 0; stroke: #1a1a1a; stroke-width: 1.5"/>
    </g>
    <g id="text_24">
     <!-- Stim Onset -->
     <g style="fill: #262626" transform="translate(648.14 205.11) scale(0.11 -0.11)">
      <defs>
       <path id="ArialMT-74" d="M 1650 503 
L 1731 6 
Q 1494 -44 1306 -44 
Q 1000 -44 831 53 
Q 663 150 594 308 
Q 525 466 525 972 
L 525 2881 
L 113 2881 
L 113 3319 
L 525 3319 
L 525 4141 
L 1084 4478 
L 1084 3319 
L 1650 3319 
L 1650 2881 
L 1084 2881 
L 1084 941 
Q 1084 700 1114 631 
Q 1144 563 1211 522 
Q 1278 481 1403 481 
Q 1497 481 1650 503 
z
" transform="scale(0.015625)"/>
      </defs>
      <use xlink:href="#ArialMT-53"/>
      <use xlink:href="#ArialMT-74" x="66.699219"/>
      <use xlink:href="#ArialMT-69" x="94.482422"/>
      <use xlink:href="#ArialMT-6d" x="116.699219"/>
      <use xlink:href="#ArialMT-20" x="200"/>
      <use xlink:href="#ArialMT-4f" x="227.783203"/>
      <use xlink:href="#ArialMT-6e" x="305.566406"/>
      <use xlink:href="#ArialMT-73" x="361.181641"/>
      <use xlink:href="#ArialMT-65" x="411.181641"/>
      <use xlink:href="#ArialMT-74" x="466.796875"/>
     </g>
    </g>
    <g id="line2d_12">
     <path d="M 617.34 216.819844 
L 628.34 216.819844 
L 639.34 216.819844 
" style="fill: none; stroke-dasharray: 5.55,2.4; stroke-dashoffset: 0; stroke: #1a1a1a; stroke-width: 1.5"/>
    </g>
    <g id="text_25">
     <!-- Stim End -->
     <g style="fill: #262626" transform="translate(648.14 220.669844) scale(0.11 -0.11)">
      <defs>
       <path id="ArialMT-45" d="M 506 0 
L 506 4581 
L 3819 4581 
L 3819 4041 
L 1113 4041 
L 1113 2638 
L 3647 2638 
L 3647 2100 
L 1113 2100 
L 1113 541 
L 3925 541 
L 3925 0 
L 506 0 
z
" transform="scale(0.015625)"/>
      </defs>
      <use xlink:href="#ArialMT-53"/>
      <use xlink:href="#ArialMT-74" x="66.699219"/>
      <use xlink:href="#ArialMT-69" x="94.482422"/>
      <use xlink:href="#ArialMT-6d" x="116.699219"/>
      <use xlink:href="#ArialMT-20" x="200"/>
      <use xlink:href="#ArialMT-45" x="227.783203"/>
      <use xlink:href="#ArialMT-6e" x="294.482422"/>
      <use xlink:href="#ArialMT-64" x="350.097656"/>
     </g>
    </g>
    <g id="line2d_13">
     <path d="M 617.34 232.520625 
L 628.34 232.520625 
L 639.34 232.520625 
" style="fill: none; stroke: #00008b; stroke-width: 2; stroke-linecap: round"/>
    </g>
    <g id="text_26">
     <!-- Original -->
     <g style="fill: #262626" transform="translate(648.14 236.370625) scale(0.11 -0.11)">
      <use xlink:href="#ArialMT-4f"/>
      <use xlink:href="#ArialMT-72" x="77.783203"/>
      <use xlink:href="#ArialMT-69" x="111.083984"/>
      <use xlink:href="#ArialMT-67" x="133.300781"/>
      <use xlink:href="#ArialMT-69" x="188.916016"/>
      <use xlink:href="#ArialMT-6e" x="211.132812"/>
      <use xlink:href="#ArialMT-61" x="266.748047"/>
      <use xlink:href="#ArialMT-6c" x="322.363281"/>
     </g>
    </g>
    <g id="line2d_14">
     <path d="M 617.34 248.350313 
L 628.34 248.350313 
L 639.34 248.350313 
" style="fill: none; stroke-dasharray: 7.4,3.2; stroke-dashoffset: 0; stroke: #00008b; stroke-width: 2"/>
    </g>
    <g id="text_27">
     <!-- Original -->
     <g style="fill: #262626" transform="translate(648.14 252.200312) scale(0.11 -0.11)">
      <use xlink:href="#ArialMT-4f"/>
      <use xlink:href="#ArialMT-72" x="77.783203"/>
      <use xlink:href="#ArialMT-69" x="111.083984"/>
      <use xlink:href="#ArialMT-67" x="133.300781"/>
      <use xlink:href="#ArialMT-69" x="188.916016"/>
      <use xlink:href="#ArialMT-6e" x="211.132812"/>
      <use xlink:href="#ArialMT-61" x="266.748047"/>
      <use xlink:href="#ArialMT-6c" x="322.363281"/>
     </g>
    </g>
   </g>
  </g>
 </g>
 <defs>
  <clipPath id="p221f18eae7">
   <rect x="69.71" y="26.96" width="537.73" height="350.58"/>
  </clipPath>
 </defs>
</svg>
