<?xml version="1.0" encoding="utf-8" standalone="no"?>
<!DOCTYPE svg PUBLIC "-//W3C//DTD SVG 1.1//EN"
  "http://www.w3.org/Graphics/SVG/1.1/DTD/svg11.dtd">
<svg xmlns:xlink="http://www.w3.org/1999/xlink" width="720pt" height="432pt" viewBox="0 0 720 432" xmlns="http://www.w3.org/2000/svg" version="1.1">
 <metadata>
  <rdf:RDF xmlns:dc="http://purl.org/dc/elements/1.1/" xmlns:cc="http://creativecommons.org/ns#" xmlns:rdf="http://www.w3.org/1999/02/22-rdf-syntax-ns#">
   <cc:Work>
    <dc:type rdf:resource="http://purl.org/dc/dcmitype/StillImage"/>
    <dc:date>2025-10-24T11:55:02.212058</dc:date>
    <dc:format>image/svg+xml</dc:format>
    <dc:creator>
     <cc:Agent>
      <dc:title>Matplotlib v3.9.4, https://matplotlib.org/</dc:title>
     </cc:Agent>
    </dc:creator>
   </cc:Work>
  </rdf:RDF>
 </metadata>
 <defs>
  <style type="text/css">*{stroke-linejoin: round; stroke-linecap: butt}</style>
 </defs>
 <g id="figure_1">
  <g id="patch_1">
   <path d="M 0 432 
L 720 432 
L 720 0 
L 0 0 
z
" style="fill: #ffffff"/>
  </g>
  <g id="axes_1">
   <g id="patch_2">
    <path d="M 68.93 379.18 
L 607.76 379.18 
L 607.76 27.6 
L 68.93 27.6 
L 68.93 379.18 
z
" style="fill: none"/>
   </g>
   <g id="matplotlib.axis_1">
    <g id="xtick_1">
     <g id="line2d_1">
      <defs>
       <path id="m371a756796" d="M 0 0 
L 0 5 
" style="stroke: #262626; stroke-width: 1.5"/>
      </defs>
      <g>
       <use xlink:href="#m371a756796" x="79.182579" y="379.18" style="fill: #262626; stroke: #262626; stroke-width: 1.5"/>
      </g>
     </g>
     <g id="text_1">
      <!-- −250 -->
      <g style="fill: #262626" transform="translate(62.290001 398.416719) scale(0.15 -0.15)">
       <defs>
        <path id="ArialMT-2212" d="M 3381 1997 
L 356 1997 
L 356 2522 
L 3381 2522 
L 3381 1997 
z
" transform="scale(0.015625)"/>
        <path id="ArialMT-32" d="M 3222 541 
L 3222 0 
L 194 0 
Q 188 203 259 391 
Q 375 700 629 1000 
Q 884 1300 1366 1694 
Q 2113 2306 2375 2664 
Q 2638 3022 2638 3341 
Q 2638 3675 2398 3904 
Q 2159 4134 1775 4134 
Q 1369 4134 1125 3890 
Q 881 3647 878 3216 
L 300 3275 
Q 359 3922 746 4261 
Q 1134 4600 1788 4600 
Q 2447 4600 2831 4234 
Q 3216 3869 3216 3328 
Q 3216 3053 3103 2787 
Q 2991 2522 2730 2228 
Q 2469 1934 1863 1422 
Q 1356 997 1212 845 
Q 1069 694 975 541 
L 3222 541 
z
" transform="scale(0.015625)"/>
        <path id="ArialMT-35" d="M 266 1200 
L 856 1250 
Q 922 819 1161 601 
Q 1400 384 1738 384 
Q 2144 384 2425 690 
Q 2706 997 2706 1503 
Q 2706 1984 2436 2262 
Q 2166 2541 1728 2541 
Q 1456 2541 1237 2417 
Q 1019 2294 894 2097 
L 366 2166 
L 809 4519 
L 3088 4519 
L 3088 3981 
L 1259 3981 
L 1013 2750 
Q 1425 3038 1878 3038 
Q 2478 3038 2890 2622 
Q 3303 2206 3303 1553 
Q 3303 931 2941 478 
Q 2500 -78 1738 -78 
Q 1113 -78 717 272 
Q 322 622 266 1200 
z
" transform="scale(0.015625)"/>
        <path id="ArialMT-30" d="M 266 2259 
Q 266 3072 433 3567 
Q 600 4063 929 4331 
Q 1259 4600 1759 4600 
Q 2128 4600 2406 4451 
Q 2684 4303 2865 4023 
Q 3047 3744 3150 3342 
Q 3253 2941 3253 2259 
Q 3253 1453 3087 958 
Q 2922 463 2592 192 
Q 2263 -78 1759 -78 
Q 1097 -78 719 397 
Q 266 969 266 2259 
z
M 844 2259 
Q 844 1131 1108 757 
Q 1372 384 1759 384 
Q 2147 384 2411 759 
Q 2675 1134 2675 2259 
Q 2675 3391 2411 3762 
Q 2147 4134 1753 4134 
Q 1366 4134 1134 3806 
Q 844 3388 844 2259 
z
" transform="scale(0.015625)"/>
       </defs>
       <use xlink:href="#ArialMT-2212"/>
       <use xlink:href="#ArialMT-32" x="58.398438"/>
       <use xlink:href="#ArialMT-35" x="114.013672"/>
       <use xlink:href="#ArialMT-30" x="169.628906"/>
      </g>
     </g>
    </g>
    <g id="xtick_2">
     <g id="line2d_2">
      <g>
       <use xlink:href="#m371a756796" x="150.381047" y="379.18" style="fill: #262626; stroke: #262626; stroke-width: 1.5"/>
      </g>
     </g>
     <g id="text_2">
      <!-- 0 -->
      <g style="fill: #262626" transform="translate(146.210343 398.416719) scale(0.15 -0.15)">
       <use xlink:href="#ArialMT-30"/>
      </g>
     </g>
    </g>
    <g id="xtick_3">
     <g id="line2d_3">
      <g>
       <use xlink:href="#m371a756796" x="221.579514" y="379.18" style="fill: #262626; stroke: #262626; stroke-width: 1.5"/>
      </g>
     </g>
     <g id="text_3">
      <!-- 250 -->
      <g style="fill: #262626" transform="translate(209.067404 398.416719) scale(0.15 -0.15)">
       <use xlink:href="#ArialMT-32"/>
       <use xlink:href="#ArialMT-35" x="55.615234"/>
       <use xlink:href="#ArialMT-30" x="111.230469"/>
      </g>
     </g>
    </g>
    <g id="xtick_4">
     <g id="line2d_4">
      <g>
       <use xlink:href="#m371a756796" x="292.777981" y="379.18" style="fill: #262626; stroke: #262626; stroke-width: 1.5"/>
      </g>
     </g>
     <g id="text_4">
      <!-- 500 -->
      <g style="fill: #262626" transform="translate(280.265872 398.416719) scale(0.15 -0.15)">
       <use xlink:href="#ArialMT-35"/>
       <use xlink:href="#ArialMT-30" x="55.615234"/>
       <use xlink:href="#ArialMT-30" x="111.230469"/>
      </g>
     </g>
    </g>
    <g id="xtick_5">
     <g id="line2d_5">
      <g>
       <use xlink:href="#m371a756796" x="363.976448" y="379.18" style="fill: #262626; stroke: #262626; stroke-width: 1.5"/>
      </g>
     </g>
     <g id="text_5">
      <!-- 750 -->
      <g style="fill: #262626" transform="translate(351.464339 398.416719) scale(0.15 -0.15)">
       <defs>
        <path id="ArialMT-37" d="M 303 3981 
L 303 4522 
L 3269 4522 
L 3269 4084 
Q 2831 3619 2401 2847 
Q 1972 2075 1738 1259 
Q 1569 684 1522 0 
L 944 0 
Q 953 541 1156 1306 
Q 1359 2072 1739 2783 
Q 2119 3494 2547 3981 
L 303 3981 
z
" transform="scale(0.015625)"/>
       </defs>
       <use xlink:href="#ArialMT-37"/>
       <use xlink:href="#ArialMT-35" x="55.615234"/>
       <use xlink:href="#ArialMT-30" x="111.230469"/>
      </g>
     </g>
    </g>
    <g id="xtick_6">
     <g id="line2d_6">
      <g>
       <use xlink:href="#m371a756796" x="435.174915" y="379.18" style="fill: #262626; stroke: #262626; stroke-width: 1.5"/>
      </g>
     </g>
     <g id="text_6">
      <!-- 1000 -->
      <g style="fill: #262626" transform="translate(418.492103 398.416719) scale(0.15 -0.15)">
       <defs>
        <path id="ArialMT-31" d="M 2384 0 
L 1822 0 
L 1822 3584 
Q 1619 3391 1289 3197 
Q 959 3003 697 2906 
L 697 3450 
Q 1169 3672 1522 3987 
Q 1875 4303 2022 4600 
L 2384 4600 
L 2384 0 
z
" transform="scale(0.015625)"/>
       </defs>
       <use xlink:href="#ArialMT-31"/>
       <use xlink:href="#ArialMT-30" x="55.615234"/>
       <use xlink:href="#ArialMT-30" x="111.230469"/>
       <use xlink:href="#ArialMT-30" x="166.845703"/>
      </g>
     </g>
    </g>
    <g id="xtick_7">
     <g id="line2d_7">
      <g>
       <use xlink:href="#m371a756796" x="506.373383" y="379.18" style="fill: #262626; stroke: #262626; stroke-width: 1.5"/>
      </g>
     </g>
     <g id="text_7">
      <!-- 1250 -->
      <g style="fill: #262626" transform="translate(489.69057 398.416719) scale(0.15 -0.15)">
       <use xlink:href="#ArialMT-31"/>
       <use xlink:href="#ArialMT-32" x="55.615234"/>
       <use xlink:href="#ArialMT-35" x="111.230469"/>
       <use xlink:href="#ArialMT-30" x="166.845703"/>
      </g>
     </g>
    </g>
    <g id="xtick_8">
     <g id="line2d_8">
      <g>
       <use xlink:href="#m371a756796" x="577.57185" y="379.18" style="fill: #262626; stroke: #262626; stroke-width: 1.5"/>
      </g>
     </g>
     <g id="text_8">
      <!-- 1500 -->
      <g style="fill: #262626" transform="translate(560.889037 398.416719) scale(0.15 -0.15)">
       <use xlink:href="#ArialMT-31"/>
       <use xlink:href="#ArialMT-35" x="55.615234"/>
       <use xlink:href="#ArialMT-30" x="111.230469"/>
       <use xlink:href="#ArialMT-30" x="166.845703"/>
      </g>
     </g>
    </g>
    <g id="text_9">
     <!-- Time (s) -->
     <g style="fill: #262626" transform="translate(311.132891 416.3175) scale(0.15 -0.15)">
      <defs>
       <path id="ArialMT-54" d="M 1659 0 
L 1659 4041 
L 150 4041 
L 150 4581 
L 3781 4581 
L 3781 4041 
L 2266 4041 
L 2266 0 
L 1659 0 
z
" transform="scale(0.015625)"/>
       <path id="ArialMT-69" d="M 425 3934 
L 425 4581 
L 988 4581 
L 988 3934 
L 425 3934 
z
M 425 0 
L 425 3319 
L 988 3319 
L 988 0 
L 425 0 
z
" transform="scale(0.015625)"/>
       <path id="ArialMT-6d" d="M 422 0 
L 422 3319 
L 925 3319 
L 925 2853 
Q 1081 3097 1340 3245 
Q 1600 3394 1931 3394 
Q 2300 3394 2536 3241 
Q 2772 3088 2869 2813 
Q 3263 3394 3894 3394 
Q 4388 3394 4653 3120 
Q 4919 2847 4919 2278 
L 4919 0 
L 4359 0 
L 4359 2091 
Q 4359 2428 4304 2576 
Q 4250 2725 4106 2815 
Q 3963 2906 3769 2906 
Q 3419 2906 3187 2673 
Q 2956 2441 2956 1928 
L 2956 0 
L 2394 0 
L 2394 2156 
Q 2394 2531 2256 2718 
Q 2119 2906 1806 2906 
Q 1569 2906 1367 2781 
Q 1166 2656 1075 2415 
Q 984 2175 984 1722 
L 984 0 
L 422 0 
z
" transform="scale(0.015625)"/>
       <path id="ArialMT-65" d="M 2694 1069 
L 3275 997 
Q 3138 488 2766 206 
Q 2394 -75 1816 -75 
Q 1088 -75 661 373 
Q 234 822 234 1631 
Q 234 2469 665 2931 
Q 1097 3394 1784 3394 
Q 2450 3394 2872 2941 
Q 3294 2488 3294 1666 
Q 3294 1616 3291 1516 
L 816 1516 
Q 847 969 1125 678 
Q 1403 388 1819 388 
Q 2128 388 2347 550 
Q 2566 713 2694 1069 
z
M 847 1978 
L 2700 1978 
Q 2663 2397 2488 2606 
Q 2219 2931 1791 2931 
Q 1403 2931 1139 2672 
Q 875 2413 847 1978 
z
" transform="scale(0.015625)"/>
       <path id="ArialMT-20" transform="scale(0.015625)"/>
       <path id="ArialMT-28" d="M 1497 -1347 
Q 1031 -759 709 28 
Q 388 816 388 1659 
Q 388 2403 628 3084 
Q 909 3875 1497 4659 
L 1900 4659 
Q 1522 4009 1400 3731 
Q 1209 3300 1100 2831 
Q 966 2247 966 1656 
Q 966 153 1900 -1347 
L 1497 -1347 
z
" transform="scale(0.015625)"/>
       <path id="ArialMT-73" d="M 197 991 
L 753 1078 
Q 800 744 1014 566 
Q 1228 388 1613 388 
Q 2000 388 2187 545 
Q 2375 703 2375 916 
Q 2375 1106 2209 1216 
Q 2094 1291 1634 1406 
Q 1016 1563 777 1677 
Q 538 1791 414 1992 
Q 291 2194 291 2438 
Q 291 2659 392 2848 
Q 494 3038 669 3163 
Q 800 3259 1026 3326 
Q 1253 3394 1513 3394 
Q 1903 3394 2198 3281 
Q 2494 3169 2634 2976 
Q 2775 2784 2828 2463 
L 2278 2388 
Q 2241 2644 2061 2787 
Q 1881 2931 1553 2931 
Q 1166 2931 1000 2803 
Q 834 2675 834 2503 
Q 834 2394 903 2306 
Q 972 2216 1119 2156 
Q 1203 2125 1616 2013 
Q 2213 1853 2448 1751 
Q 2684 1650 2818 1456 
Q 2953 1263 2953 975 
Q 2953 694 2789 445 
Q 2625 197 2315 61 
Q 2006 -75 1616 -75 
Q 969 -75 630 194 
Q 291 463 197 991 
z
" transform="scale(0.015625)"/>
       <path id="ArialMT-29" d="M 791 -1347 
L 388 -1347 
Q 1322 153 1322 1656 
Q 1322 2244 1188 2822 
Q 1081 3291 891 3722 
Q 769 4003 388 4659 
L 791 4659 
Q 1378 3875 1659 3084 
Q 1900 2403 1900 1659 
Q 1900 816 1576 28 
Q 1253 -759 791 -1347 
z
" transform="scale(0.015625)"/>
      </defs>
      <use xlink:href="#ArialMT-54"/>
      <use xlink:href="#ArialMT-69" x="57.333984"/>
      <use xlink:href="#ArialMT-6d" x="79.550781"/>
      <use xlink:href="#ArialMT-65" x="162.851562"/>
      <use xlink:href="#ArialMT-20" x="218.466797"/>
      <use xlink:href="#ArialMT-28" x="246.25"/>
      <use xlink:href="#ArialMT-73" x="279.550781"/>
      <use xlink:href="#ArialMT-29" x="329.550781"/>
     </g>
    </g>
   </g>
   <g id="matplotlib.axis_2">
    <g id="ytick_1">
     <g id="line2d_9">
      <defs>
       <path id="mcd47e8a371" d="M 0 0 
L -5 0 
" style="stroke: #262626; stroke-width: 1.5"/>
      </defs>
      <g>
       <use xlink:href="#mcd47e8a371" x="68.93" y="358.135581" style="fill: #262626; stroke: #262626; stroke-width: 1.5"/>
      </g>
     </g>
     <g id="text_10">
      <!-- −0.2 -->
      <g style="fill: #262626" transform="translate(30.819063 363.503941) scale(0.15 -0.15)">
       <defs>
        <path id="ArialMT-2e" d="M 581 0 
L 581 641 
L 1222 641 
L 1222 0 
L 581 0 
z
" transform="scale(0.015625)"/>
       </defs>
       <use xlink:href="#ArialMT-2212"/>
       <use xlink:href="#ArialMT-30" x="58.398438"/>
       <use xlink:href="#ArialMT-2e" x="114.013672"/>
       <use xlink:href="#ArialMT-32" x="141.796875"/>
      </g>
     </g>
    </g>
    <g id="ytick_2">
     <g id="line2d_10">
      <g>
       <use xlink:href="#mcd47e8a371" x="68.93" y="284.174319" style="fill: #262626; stroke: #262626; stroke-width: 1.5"/>
      </g>
     </g>
     <g id="text_11">
      <!-- 0.0 -->
      <g style="fill: #262626" transform="translate(39.58 289.542679) scale(0.15 -0.15)">
       <use xlink:href="#ArialMT-30"/>
       <use xlink:href="#ArialMT-2e" x="55.615234"/>
       <use xlink:href="#ArialMT-30" x="83.398438"/>
      </g>
     </g>
    </g>
    <g id="ytick_3">
     <g id="line2d_11">
      <g>
       <use xlink:href="#mcd47e8a371" x="68.93" y="210.213058" style="fill: #262626; stroke: #262626; stroke-width: 1.5"/>
      </g>
     </g>
     <g id="text_12">
      <!-- 0.2 -->
      <g style="fill: #262626" transform="translate(39.58 215.581417) scale(0.15 -0.15)">
       <use xlink:href="#ArialMT-30"/>
       <use xlink:href="#ArialMT-2e" x="55.615234"/>
       <use xlink:href="#ArialMT-32" x="83.398438"/>
      </g>
     </g>
    </g>
    <g id="ytick_4">
     <g id="line2d_12">
      <g>
       <use xlink:href="#mcd47e8a371" x="68.93" y="136.251796" style="fill: #262626; stroke: #262626; stroke-width: 1.5"/>
      </g>
     </g>
     <g id="text_13">
      <!-- 0.4 -->
      <g style="fill: #262626" transform="translate(39.58 141.620155) scale(0.15 -0.15)">
       <defs>
        <path id="ArialMT-34" d="M 2069 0 
L 2069 1097 
L 81 1097 
L 81 1613 
L 2172 4581 
L 2631 4581 
L 2631 1613 
L 3250 1613 
L 3250 1097 
L 2631 1097 
L 2631 0 
L 2069 0 
z
M 2069 1613 
L 2069 3678 
L 634 1613 
L 2069 1613 
z
" transform="scale(0.015625)"/>
       </defs>
       <use xlink:href="#ArialMT-30"/>
       <use xlink:href="#ArialMT-2e" x="55.615234"/>
       <use xlink:href="#ArialMT-34" x="83.398438"/>
      </g>
     </g>
    </g>
    <g id="ytick_5">
     <g id="line2d_13">
      <g>
       <use xlink:href="#mcd47e8a371" x="68.93" y="62.290534" style="fill: #262626; stroke: #262626; stroke-width: 1.5"/>
      </g>
     </g>
     <g id="text_14">
      <!-- 0.6 -->
      <g style="fill: #262626" transform="translate(39.58 67.658893) scale(0.15 -0.15)">
       <defs>
        <path id="ArialMT-36" d="M 3184 3459 
L 2625 3416 
Q 2550 3747 2413 3897 
Q 2184 4138 1850 4138 
Q 1581 4138 1378 3988 
Q 1113 3794 959 3422 
Q 806 3050 800 2363 
Q 1003 2672 1297 2822 
Q 1591 2972 1913 2972 
Q 2475 2972 2870 2558 
Q 3266 2144 3266 1488 
Q 3266 1056 3080 686 
Q 2894 316 2569 119 
Q 2244 -78 1831 -78 
Q 1128 -78 684 439 
Q 241 956 241 2144 
Q 241 3472 731 4075 
Q 1159 4600 1884 4600 
Q 2425 4600 2770 4297 
Q 3116 3994 3184 3459 
z
M 888 1484 
Q 888 1194 1011 928 
Q 1134 663 1356 523 
Q 1578 384 1822 384 
Q 2178 384 2434 671 
Q 2691 959 2691 1453 
Q 2691 1928 2437 2201 
Q 2184 2475 1800 2475 
Q 1419 2475 1153 2201 
Q 888 1928 888 1484 
z
" transform="scale(0.015625)"/>
       </defs>
       <use xlink:href="#ArialMT-30"/>
       <use xlink:href="#ArialMT-2e" x="55.615234"/>
       <use xlink:href="#ArialMT-36" x="83.398438"/>
      </g>
     </g>
    </g>
    <g id="text_15">
     <!-- Divergence -->
     <g style="fill: #262626" transform="translate(23.662031 241.323594) rotate(-90) scale(0.15 -0.15)">
      <defs>
       <path id="ArialMT-44" d="M 494 0 
L 494 4581 
L 2072 4581 
Q 2606 4581 2888 4516 
Q 3281 4425 3559 4188 
Q 3922 3881 4101 3404 
Q 4281 2928 4281 2316 
Q 4281 1794 4159 1391 
Q 4038 988 3847 723 
Q 3656 459 3429 307 
Q 3203 156 2883 78 
Q 2563 0 2147 0 
L 494 0 
z
M 1100 541 
L 2078 541 
Q 2531 541 2789 625 
Q 3047 709 3200 863 
Q 3416 1078 3536 1442 
Q 3656 1806 3656 2325 
Q 3656 3044 3420 3430 
Q 3184 3816 2847 3947 
Q 2603 4041 2063 4041 
L 1100 4041 
L 1100 541 
z
" transform="scale(0.015625)"/>
       <path id="ArialMT-76" d="M 1344 0 
L 81 3319 
L 675 3319 
L 1388 1331 
Q 1503 1009 1600 663 
Q 1675 925 1809 1294 
L 2547 3319 
L 3125 3319 
L 1869 0 
L 1344 0 
z
" transform="scale(0.015625)"/>
       <path id="ArialMT-72" d="M 416 0 
L 416 3319 
L 922 3319 
L 922 2816 
Q 1116 3169 1280 3281 
Q 1444 3394 1641 3394 
Q 1925 3394 2219 3213 
L 2025 2691 
Q 1819 2813 1613 2813 
Q 1428 2813 1281 2702 
Q 1134 2591 1072 2394 
Q 978 2094 978 1738 
L 978 0 
L 416 0 
z
" transform="scale(0.015625)"/>
       <path id="ArialMT-67" d="M 319 -275 
L 866 -356 
Q 900 -609 1056 -725 
Q 1266 -881 1628 -881 
Q 2019 -881 2231 -725 
Q 2444 -569 2519 -288 
Q 2563 -116 2559 434 
Q 2191 0 1641 0 
Q 956 0 581 494 
Q 206 988 206 1678 
Q 206 2153 378 2554 
Q 550 2956 876 3175 
Q 1203 3394 1644 3394 
Q 2231 3394 2613 2919 
L 2613 3319 
L 3131 3319 
L 3131 450 
Q 3131 -325 2973 -648 
Q 2816 -972 2473 -1159 
Q 2131 -1347 1631 -1347 
Q 1038 -1347 672 -1080 
Q 306 -813 319 -275 
z
M 784 1719 
Q 784 1066 1043 766 
Q 1303 466 1694 466 
Q 2081 466 2343 764 
Q 2606 1063 2606 1700 
Q 2606 2309 2336 2618 
Q 2066 2928 1684 2928 
Q 1309 2928 1046 2623 
Q 784 2319 784 1719 
z
" transform="scale(0.015625)"/>
       <path id="ArialMT-6e" d="M 422 0 
L 422 3319 
L 928 3319 
L 928 2847 
Q 1294 3394 1984 3394 
Q 2284 3394 2536 3286 
Q 2788 3178 2913 3003 
Q 3038 2828 3088 2588 
Q 3119 2431 3119 2041 
L 3119 0 
L 2556 0 
L 2556 2019 
Q 2556 2363 2490 2533 
Q 2425 2703 2258 2804 
Q 2091 2906 1866 2906 
Q 1506 2906 1245 2678 
Q 984 2450 984 1813 
L 984 0 
L 422 0 
z
" transform="scale(0.015625)"/>
       <path id="ArialMT-63" d="M 2588 1216 
L 3141 1144 
Q 3050 572 2676 248 
Q 2303 -75 1759 -75 
Q 1078 -75 664 370 
Q 250 816 250 1647 
Q 250 2184 428 2587 
Q 606 2991 970 3192 
Q 1334 3394 1763 3394 
Q 2303 3394 2647 3120 
Q 2991 2847 3088 2344 
L 2541 2259 
Q 2463 2594 2264 2762 
Q 2066 2931 1784 2931 
Q 1359 2931 1093 2626 
Q 828 2322 828 1663 
Q 828 994 1084 691 
Q 1341 388 1753 388 
Q 2084 388 2306 591 
Q 2528 794 2588 1216 
z
" transform="scale(0.015625)"/>
      </defs>
      <use xlink:href="#ArialMT-44"/>
      <use xlink:href="#ArialMT-69" x="72.216797"/>
      <use xlink:href="#ArialMT-76" x="94.433594"/>
      <use xlink:href="#ArialMT-65" x="144.433594"/>
      <use xlink:href="#ArialMT-72" x="200.048828"/>
      <use xlink:href="#ArialMT-67" x="233.349609"/>
      <use xlink:href="#ArialMT-65" x="288.964844"/>
      <use xlink:href="#ArialMT-6e" x="344.580078"/>
      <use xlink:href="#ArialMT-63" x="400.195312"/>
      <use xlink:href="#ArialMT-65" x="450.195312"/>
     </g>
    </g>
   </g>
   <g id="PolyCollection_1">
    <defs>
     <path id="m4427c41d67" d="M 93.422273 -163.292346 
L 93.422273 -151.105888 
L 99.11815 -147.246543 
L 104.814027 -148.805105 
L 110.509905 -138.506147 
L 116.205782 -146.280631 
L 121.90166 -153.161842 
L 127.597537 -145.108183 
L 133.293414 -142.444783 
L 138.989292 -142.613297 
L 144.685169 -146.075706 
L 150.381047 -147.700865 
L 156.076924 -158.402047 
L 161.772801 -183.182066 
L 167.468679 -199.184939 
L 173.164556 -218.046188 
L 178.860433 -228.249951 
L 184.556311 -217.597096 
L 190.252188 -204.093109 
L 195.948066 -179.829343 
L 201.643943 -182.311212 
L 207.33982 -176.237157 
L 213.035698 -184.314568 
L 218.731575 -179.385214 
L 224.427452 -170.331273 
L 230.12333 -163.588698 
L 235.819207 -165.770971 
L 241.515085 -165.308419 
L 247.210962 -157.829957 
L 252.906839 -175.09701 
L 258.602717 -191.968192 
L 264.298594 -226.171582 
L 269.994471 -256.736444 
L 275.690349 -301.472417 
L 281.386226 -334.397724 
L 287.082104 -328.484544 
L 292.777981 -323.691434 
L 298.473858 -322.961378 
L 304.169736 -333.205225 
L 309.865613 -318.47853 
L 315.56149 -289.010708 
L 321.257368 -266.190862 
L 326.953245 -267.637422 
L 332.649123 -250.572574 
L 338.345 -266.810214 
L 344.040877 -302.394093 
L 349.736755 -326.175279 
L 355.432632 -311.020063 
L 361.12851 -298.489888 
L 366.824387 -296.844282 
L 372.520264 -293.283057 
L 378.216142 -302.288374 
L 383.912019 -314.621216 
L 389.607896 -336.952882 
L 395.303774 -347.003741 
L 400.999651 -346.7557 
L 406.695529 -327.139168 
L 412.391406 -314.103102 
L 418.087283 -297.435443 
L 423.783161 -323.47914 
L 429.479038 -311.502365 
L 435.174915 -280.319734 
L 440.870793 -268.53731 
L 446.56667 -249.407164 
L 452.262548 -224.906556 
L 457.958425 -208.732389 
L 463.654302 -200.821163 
L 469.35018 -187.890646 
L 475.046057 -184.047245 
L 480.741934 -168.790656 
L 486.437812 -161.144338 
L 492.133689 -150.739584 
L 497.829567 -154.362459 
L 503.525444 -150.684334 
L 509.221321 -152.01754 
L 514.917199 -150.090476 
L 520.613076 -142.435612 
L 526.308953 -148.825825 
L 532.004831 -148.391563 
L 537.700708 -152.609206 
L 543.396586 -162.779913 
L 549.092463 -156.720038 
L 554.78834 -149.072242 
L 560.484218 -146.836875 
L 566.180095 -148.436584 
L 571.875973 -146.227159 
L 577.57185 -153.767592 
L 583.267727 -153.076123 
L 583.267727 -165.710106 
L 583.267727 -165.710106 
L 577.57185 -163.833931 
L 571.875973 -156.972357 
L 566.180095 -158.295756 
L 560.484218 -155.539719 
L 554.78834 -158.655365 
L 549.092463 -167.298282 
L 543.396586 -172.33266 
L 537.700708 -161.918539 
L 532.004831 -157.793648 
L 526.308953 -158.598076 
L 520.613076 -152.516901 
L 514.917199 -159.444213 
L 509.221321 -161.558363 
L 503.525444 -158.713587 
L 497.829567 -165.403448 
L 492.133689 -160.981819 
L 486.437812 -170.413765 
L 480.741934 -179.028391 
L 475.046057 -195.516285 
L 469.35018 -201.7585 
L 463.654302 -214.989815 
L 457.958425 -224.481979 
L 452.262548 -244.71034 
L 446.56667 -270.894918 
L 440.870793 -291.500887 
L 435.174915 -303.990279 
L 429.479038 -340.716367 
L 423.783161 -354.114412 
L 418.087283 -331.595763 
L 412.391406 -349.322069 
L 406.695529 -362.315437 
L 400.999651 -387.339789 
L 395.303774 -388.419091 
L 389.607896 -374.670244 
L 383.912019 -346.221918 
L 378.216142 -332.040391 
L 372.520264 -323.022989 
L 366.824387 -327.850798 
L 361.12851 -333.318946 
L 355.432632 -349.024957 
L 349.736755 -366.919585 
L 344.040877 -340.321833 
L 338.345 -298.080421 
L 332.649123 -278.870877 
L 326.953245 -298.084193 
L 321.257368 -303.371702 
L 315.56149 -329.994417 
L 309.865613 -358.906591 
L 304.169736 -379.110282 
L 298.473858 -368.240784 
L 292.777981 -364.154826 
L 287.082104 -366.625575 
L 281.386226 -371.888328 
L 275.690349 -335.015211 
L 269.994471 -284.484807 
L 264.298594 -246.918546 
L 258.602717 -212.895895 
L 252.906839 -194.430401 
L 247.210962 -179.115254 
L 241.515085 -188.009041 
L 235.819207 -185.498549 
L 230.12333 -184.638801 
L 224.427452 -193.576941 
L 218.731575 -203.311193 
L 213.035698 -205.277202 
L 207.33982 -196.558263 
L 201.643943 -200.573008 
L 195.948066 -197.127452 
L 190.252188 -222.272495 
L 184.556311 -235.947853 
L 178.860433 -249.284708 
L 173.164556 -239.662553 
L 167.468679 -220.53186 
L 161.772801 -204.57909 
L 156.076924 -174.643025 
L 150.381047 -160.514058 
L 144.685169 -152.384215 
L 138.989292 -148.237626 
L 133.293414 -148.159417 
L 127.597537 -149.813535 
L 121.90166 -159.04236 
L 116.205782 -152.080176 
L 110.509905 -145.082607 
L 104.814027 -153.762392 
L 99.11815 -153.587114 
L 93.422273 -163.292346 
z
" style="stroke: #6060eb; stroke-opacity: 0.1"/>
    </defs>
    <g clip-path="url(#p83af192d09)">
     <use xlink:href="#m4427c41d67" x="0" y="432" style="fill: #6060eb; fill-opacity: 0.1; stroke: #6060eb; stroke-opacity: 0.1"/>
    </g>
   </g>
   <g id="PolyCollection_2">
    <defs>
     <path id="madf56d9fa1" d="M 93.422273 -150.051833 
L 93.422273 -147.183757 
L 99.11815 -147.763109 
L 104.814027 -147.485863 
L 110.509905 -146.360903 
L 116.205782 -147.007065 
L 121.90166 -147.99679 
L 127.597537 -147.25048 
L 133.293414 -146.548589 
L 138.989292 -146.984215 
L 144.685169 -146.423046 
L 150.381047 -164.170045 
L 156.076924 -171.680115 
L 161.772801 -175.936452 
L 167.468679 -177.86964 
L 173.164556 -178.431513 
L 178.860433 -179.309011 
L 184.556311 -179.803638 
L 190.252188 -176.947718 
L 195.948066 -175.873316 
L 201.643943 -177.265732 
L 207.33982 -183.08718 
L 213.035698 -182.097143 
L 218.731575 -179.823381 
L 224.427452 -182.690117 
L 230.12333 -181.749725 
L 235.819207 -184.352645 
L 241.515085 -182.170849 
L 247.210962 -182.249088 
L 252.906839 -187.345944 
L 258.602717 -186.636491 
L 264.298594 -187.842911 
L 269.994471 -187.349859 
L 275.690349 -190.918832 
L 281.386226 -196.076292 
L 287.082104 -200.283022 
L 292.777981 -196.935887 
L 298.473858 -196.726238 
L 304.169736 -195.509322 
L 309.865613 -193.457582 
L 315.56149 -192.963521 
L 321.257368 -195.301967 
L 326.953245 -193.735706 
L 332.649123 -194.539163 
L 338.345 -201.067885 
L 344.040877 -205.361683 
L 349.736755 -199.518398 
L 355.432632 -194.988362 
L 361.12851 -194.772968 
L 366.824387 -193.570837 
L 372.520264 -196.621976 
L 378.216142 -198.453854 
L 383.912019 -198.124967 
L 389.607896 -202.962405 
L 395.303774 -201.44914 
L 400.999651 -196.39882 
L 406.695529 -197.09499 
L 412.391406 -197.739757 
L 418.087283 -199.133374 
L 423.783161 -196.116163 
L 429.479038 -187.968287 
L 435.174915 -175.851811 
L 440.870793 -180.900971 
L 446.56667 -177.820899 
L 452.262548 -171.312405 
L 457.958425 -166.846364 
L 463.654302 -165.833103 
L 469.35018 -164.434518 
L 475.046057 -163.077783 
L 480.741934 -161.191418 
L 486.437812 -157.84504 
L 492.133689 -159.522725 
L 497.829567 -157.213745 
L 503.525444 -159.975836 
L 509.221321 -159.776115 
L 514.917199 -158.628706 
L 520.613076 -160.847609 
L 526.308953 -160.835624 
L 532.004831 -158.089638 
L 537.700708 -159.147112 
L 543.396586 -159.872568 
L 549.092463 -159.509967 
L 554.78834 -158.779737 
L 560.484218 -159.379715 
L 566.180095 -159.414158 
L 571.875973 -158.675075 
L 577.57185 -158.827856 
L 583.267727 -159.103963 
L 583.267727 -162.881555 
L 583.267727 -162.881555 
L 577.57185 -162.499946 
L 571.875973 -162.323056 
L 566.180095 -163.220346 
L 560.484218 -163.133978 
L 554.78834 -162.408344 
L 549.092463 -163.20692 
L 543.396586 -163.406678 
L 537.700708 -162.918991 
L 532.004831 -161.607279 
L 526.308953 -164.616581 
L 520.613076 -164.992025 
L 514.917199 -162.521416 
L 509.221321 -164.097776 
L 503.525444 -163.994745 
L 497.829567 -161.484498 
L 492.133689 -163.163518 
L 486.437812 -162.444922 
L 480.741934 -165.321887 
L 475.046057 -167.046233 
L 469.35018 -168.597662 
L 463.654302 -169.725715 
L 457.958425 -170.984389 
L 452.262548 -176.030643 
L 446.56667 -182.924947 
L 440.870793 -186.411161 
L 435.174915 -180.842928 
L 429.479038 -193.401289 
L 423.783161 -202.441519 
L 418.087283 -205.522233 
L 412.391406 -203.835798 
L 406.695529 -202.853233 
L 400.999651 -202.667411 
L 395.303774 -207.772316 
L 389.607896 -209.445393 
L 383.912019 -204.459603 
L 378.216142 -204.796849 
L 372.520264 -202.868152 
L 366.824387 -199.660579 
L 361.12851 -201.131534 
L 355.432632 -201.079048 
L 349.736755 -205.329748 
L 344.040877 -211.48312 
L 338.345 -207.280579 
L 332.649123 -201.356904 
L 326.953245 -200.504406 
L 321.257368 -202.372185 
L 315.56149 -200.24199 
L 309.865613 -200.860061 
L 304.169736 -203.433552 
L 298.473858 -204.669345 
L 292.777981 -204.397509 
L 287.082104 -207.621762 
L 281.386226 -202.937682 
L 275.690349 -197.225474 
L 269.994471 -193.072452 
L 264.298594 -193.392671 
L 258.602717 -192.588525 
L 252.906839 -192.918834 
L 247.210962 -188.192724 
L 241.515085 -187.775842 
L 235.819207 -190.316938 
L 230.12333 -187.164662 
L 224.427452 -187.864885 
L 218.731575 -184.669778 
L 213.035698 -186.927866 
L 207.33982 -188.023019 
L 201.643943 -182.663716 
L 195.948066 -181.545317 
L 190.252188 -182.003554 
L 184.556311 -185.040599 
L 178.860433 -184.48734 
L 173.164556 -182.935733 
L 167.468679 -182.521212 
L 161.772801 -180.821328 
L 156.076924 -176.360092 
L 150.381047 -168.532966 
L 144.685169 -147.686676 
L 138.989292 -148.147624 
L 133.293414 -147.600572 
L 127.597537 -148.542506 
L 121.90166 -149.289749 
L 116.205782 -148.395098 
L 110.509905 -147.506374 
L 104.814027 -148.429931 
L 99.11815 -149.347111 
L 93.422273 -150.051833 
z
" style="stroke: #6060eb; stroke-opacity: 0.1"/>
    </defs>
    <g clip-path="url(#p83af192d09)">
     <use xlink:href="#madf56d9fa1" x="0" y="432" style="fill: #6060eb; fill-opacity: 0.1; stroke: #6060eb; stroke-opacity: 0.1"/>
    </g>
   </g>
   <g id="PathCollection_1">
    <defs>
     <path id="me5544bf471" d="M 0 -3 
L -0.673542 -0.927051 
L -2.85317 -0.927051 
L -1.089814 0.354102 
L -1.763356 2.427051 
L -0 1.145898 
L 1.763356 2.427051 
L 1.089814 0.354102 
L 2.85317 -0.927051 
L 0.673542 -0.927051 
z
" style="stroke: #6060eb"/>
    </defs>
    <g clip-path="url(#p83af192d09)">
     <use xlink:href="#me5544bf471" x="173.164556" y="287.872382" style="fill: #6060eb; stroke: #6060eb"/>
     <use xlink:href="#me5544bf471" x="178.860433" y="287.872382" style="fill: #6060eb; stroke: #6060eb"/>
     <use xlink:href="#me5544bf471" x="184.556311" y="287.872382" style="fill: #6060eb; stroke: #6060eb"/>
     <use xlink:href="#me5544bf471" x="190.252188" y="287.872382" style="fill: #6060eb; stroke: #6060eb"/>
     <use xlink:href="#me5544bf471" x="264.298594" y="287.872382" style="fill: #6060eb; stroke: #6060eb"/>
     <use xlink:href="#me5544bf471" x="269.994471" y="287.872382" style="fill: #6060eb; stroke: #6060eb"/>
     <use xlink:href="#me5544bf471" x="275.690349" y="287.872382" style="fill: #6060eb; stroke: #6060eb"/>
     <use xlink:href="#me5544bf471" x="281.386226" y="287.872382" style="fill: #6060eb; stroke: #6060eb"/>
     <use xlink:href="#me5544bf471" x="287.082104" y="287.872382" style="fill: #6060eb; stroke: #6060eb"/>
     <use xlink:href="#me5544bf471" x="292.777981" y="287.872382" style="fill: #6060eb; stroke: #6060eb"/>
     <use xlink:href="#me5544bf471" x="298.473858" y="287.872382" style="fill: #6060eb; stroke: #6060eb"/>
     <use xlink:href="#me5544bf471" x="304.169736" y="287.872382" style="fill: #6060eb; stroke: #6060eb"/>
     <use xlink:href="#me5544bf471" x="309.865613" y="287.872382" style="fill: #6060eb; stroke: #6060eb"/>
     <use xlink:href="#me5544bf471" x="315.56149" y="287.872382" style="fill: #6060eb; stroke: #6060eb"/>
     <use xlink:href="#me5544bf471" x="321.257368" y="287.872382" style="fill: #6060eb; stroke: #6060eb"/>
     <use xlink:href="#me5544bf471" x="326.953245" y="287.872382" style="fill: #6060eb; stroke: #6060eb"/>
     <use xlink:href="#me5544bf471" x="332.649123" y="287.872382" style="fill: #6060eb; stroke: #6060eb"/>
     <use xlink:href="#me5544bf471" x="338.345" y="287.872382" style="fill: #6060eb; stroke: #6060eb"/>
     <use xlink:href="#me5544bf471" x="344.040877" y="287.872382" style="fill: #6060eb; stroke: #6060eb"/>
     <use xlink:href="#me5544bf471" x="349.736755" y="287.872382" style="fill: #6060eb; stroke: #6060eb"/>
     <use xlink:href="#me5544bf471" x="355.432632" y="287.872382" style="fill: #6060eb; stroke: #6060eb"/>
     <use xlink:href="#me5544bf471" x="361.12851" y="287.872382" style="fill: #6060eb; stroke: #6060eb"/>
     <use xlink:href="#me5544bf471" x="366.824387" y="287.872382" style="fill: #6060eb; stroke: #6060eb"/>
     <use xlink:href="#me5544bf471" x="372.520264" y="287.872382" style="fill: #6060eb; stroke: #6060eb"/>
     <use xlink:href="#me5544bf471" x="378.216142" y="287.872382" style="fill: #6060eb; stroke: #6060eb"/>
     <use xlink:href="#me5544bf471" x="383.912019" y="287.872382" style="fill: #6060eb; stroke: #6060eb"/>
     <use xlink:href="#me5544bf471" x="389.607896" y="287.872382" style="fill: #6060eb; stroke: #6060eb"/>
     <use xlink:href="#me5544bf471" x="395.303774" y="287.872382" style="fill: #6060eb; stroke: #6060eb"/>
     <use xlink:href="#me5544bf471" x="400.999651" y="287.872382" style="fill: #6060eb; stroke: #6060eb"/>
     <use xlink:href="#me5544bf471" x="406.695529" y="287.872382" style="fill: #6060eb; stroke: #6060eb"/>
     <use xlink:href="#me5544bf471" x="412.391406" y="287.872382" style="fill: #6060eb; stroke: #6060eb"/>
     <use xlink:href="#me5544bf471" x="418.087283" y="287.872382" style="fill: #6060eb; stroke: #6060eb"/>
     <use xlink:href="#me5544bf471" x="423.783161" y="287.872382" style="fill: #6060eb; stroke: #6060eb"/>
     <use xlink:href="#me5544bf471" x="429.479038" y="287.872382" style="fill: #6060eb; stroke: #6060eb"/>
     <use xlink:href="#me5544bf471" x="435.174915" y="287.872382" style="fill: #6060eb; stroke: #6060eb"/>
     <use xlink:href="#me5544bf471" x="440.870793" y="287.872382" style="fill: #6060eb; stroke: #6060eb"/>
     <use xlink:href="#me5544bf471" x="446.56667" y="287.872382" style="fill: #6060eb; stroke: #6060eb"/>
     <use xlink:href="#me5544bf471" x="452.262548" y="287.872382" style="fill: #6060eb; stroke: #6060eb"/>
     <use xlink:href="#me5544bf471" x="457.958425" y="287.872382" style="fill: #6060eb; stroke: #6060eb"/>
     <use xlink:href="#me5544bf471" x="463.654302" y="287.872382" style="fill: #6060eb; stroke: #6060eb"/>
     <use xlink:href="#me5544bf471" x="469.35018" y="287.872382" style="fill: #6060eb; stroke: #6060eb"/>
     <use xlink:href="#me5544bf471" x="475.046057" y="287.872382" style="fill: #6060eb; stroke: #6060eb"/>
    </g>
   </g>
   <g id="PolyCollection_3">
    <defs>
     <path id="m32680dfdc5" d="M 93.422273 -131.898363 
L 93.422273 -101.873516 
L 99.11815 -68.800909 
L 104.814027 -129.816271 
L 110.509905 -152.56141 
L 116.205782 -143.974997 
L 121.90166 -163.5856 
L 127.597537 -186.806245 
L 133.293414 -189.546921 
L 138.989292 -207.156475 
L 144.685169 -209.79028 
L 150.381047 -226.065318 
L 156.076924 -215.734154 
L 161.772801 -218.548012 
L 167.468679 -220.126867 
L 173.164556 -193.089089 
L 178.860433 -176.460164 
L 184.556311 -159.408882 
L 190.252188 -176.827043 
L 195.948066 -168.846594 
L 201.643943 -171.902638 
L 207.33982 -170.406994 
L 213.035698 -165.724831 
L 218.731575 -166.232037 
L 224.427452 -168.962255 
L 230.12333 -176.692785 
L 235.819207 -166.893129 
L 241.515085 -161.369899 
L 247.210962 -164.190991 
L 252.906839 -169.312548 
L 258.602717 -169.896925 
L 264.298594 -167.74199 
L 269.994471 -167.023642 
L 275.690349 -169.627468 
L 281.386226 -182.410932 
L 287.082104 -192.561985 
L 292.777981 -195.100345 
L 298.473858 -206.586534 
L 304.169736 -214.493706 
L 309.865613 -230.600367 
L 315.56149 -239.840007 
L 321.257368 -244.078481 
L 326.953245 -244.473411 
L 332.649123 -258.232949 
L 338.345 -251.350648 
L 344.040877 -260.03186 
L 349.736755 -267.764589 
L 355.432632 -279.208403 
L 361.12851 -278.786339 
L 366.824387 -286.865182 
L 372.520264 -286.582646 
L 378.216142 -282.569694 
L 383.912019 -281.164476 
L 389.607896 -282.480343 
L 395.303774 -288.216614 
L 400.999651 -292.730632 
L 406.695529 -301.297302 
L 412.391406 -295.992194 
L 418.087283 -285.600354 
L 423.783161 -311.055474 
L 429.479038 -311.132603 
L 435.174915 -309.425827 
L 440.870793 -292.936053 
L 446.56667 -285.512444 
L 452.262548 -273.179523 
L 457.958425 -259.140736 
L 463.654302 -253.292026 
L 469.35018 -258.48941 
L 475.046057 -244.210329 
L 480.741934 -245.068649 
L 486.437812 -244.049738 
L 492.133689 -236.88831 
L 497.829567 -237.617462 
L 503.525444 -232.125917 
L 509.221321 -224.991727 
L 514.917199 -226.216068 
L 520.613076 -223.572675 
L 526.308953 -218.679051 
L 532.004831 -218.396427 
L 537.700708 -222.23875 
L 543.396586 -227.156031 
L 549.092463 -215.721069 
L 554.78834 -223.599063 
L 560.484218 -220.669737 
L 566.180095 -218.804281 
L 571.875973 -210.506353 
L 577.57185 -203.772913 
L 583.267727 -207.357607 
L 583.267727 -252.971185 
L 583.267727 -252.971185 
L 577.57185 -253.533711 
L 571.875973 -263.506486 
L 566.180095 -270.867861 
L 560.484218 -270.172418 
L 554.78834 -272.344174 
L 549.092463 -264.615799 
L 543.396586 -276.536509 
L 537.700708 -272.187262 
L 532.004831 -269.245184 
L 526.308953 -266.737902 
L 520.613076 -270.763291 
L 514.917199 -276.053984 
L 509.221321 -273.827179 
L 503.525444 -278.047793 
L 497.829567 -283.402012 
L 492.133689 -285.132451 
L 486.437812 -291.700412 
L 480.741934 -290.681266 
L 475.046057 -292.144922 
L 469.35018 -307.467495 
L 463.654302 -302.632911 
L 457.958425 -310.311692 
L 452.262548 -326.075102 
L 446.56667 -339.994306 
L 440.870793 -350.8226 
L 435.174915 -373.861288 
L 429.479038 -378.699414 
L 423.783161 -375.445632 
L 418.087283 -346.062149 
L 412.391406 -354.448197 
L 406.695529 -362.963003 
L 400.999651 -355.872292 
L 395.303774 -347.986269 
L 389.607896 -339.316752 
L 383.912019 -337.425109 
L 378.216142 -339.311273 
L 372.520264 -342.498462 
L 366.824387 -342.628265 
L 361.12851 -333.992812 
L 355.432632 -331.696785 
L 349.736755 -317.776212 
L 344.040877 -308.112573 
L 338.345 -298.487548 
L 332.649123 -306.603093 
L 326.953245 -293.998079 
L 321.257368 -286.716154 
L 315.56149 -279.104594 
L 309.865613 -267.113172 
L 304.169736 -245.610093 
L 298.473858 -234.374421 
L 292.777981 -223.256568 
L 287.082104 -216.911564 
L 281.386226 -202.559079 
L 275.690349 -188.959878 
L 269.994471 -186.427221 
L 264.298594 -189.626586 
L 258.602717 -193.348416 
L 252.906839 -191.937706 
L 247.210962 -187.242892 
L 241.515085 -182.959442 
L 235.819207 -187.040788 
L 230.12333 -197.293931 
L 224.427452 -186.223024 
L 218.731575 -184.382213 
L 213.035698 -183.278513 
L 207.33982 -190.516858 
L 201.643943 -191.502424 
L 195.948066 -192.314088 
L 190.252188 -200.277664 
L 184.556311 -182.391915 
L 178.860433 -200.963967 
L 173.164556 -229.950031 
L 167.468679 -257.041007 
L 161.772801 -258.620433 
L 156.076924 -257.992076 
L 150.381047 -269.147214 
L 144.685169 -263.269535 
L 138.989292 -260.156208 
L 133.293414 -238.856908 
L 127.597537 -244.428751 
L 121.90166 -218.274229 
L 116.205782 -203.350081 
L 110.509905 -200.981648 
L 104.814027 -178.52559 
L 99.11815 -115.121907 
L 93.422273 -131.898363 
z
" style="stroke: #00008b; stroke-opacity: 0.1"/>
    </defs>
    <g clip-path="url(#p83af192d09)">
     <use xlink:href="#m32680dfdc5" x="0" y="432" style="fill: #00008b; fill-opacity: 0.1; stroke: #00008b; stroke-opacity: 0.1"/>
    </g>
   </g>
   <g id="PolyCollection_4">
    <defs>
     <path id="m211440957a" d="M 93.422273 -161.756184 
L 93.422273 -154.076303 
L 99.11815 -167.397893 
L 104.814027 -177.978658 
L 110.509905 -186.073639 
L 116.205782 -195.188855 
L 121.90166 -203.761653 
L 127.597537 -209.884176 
L 133.293414 -219.098708 
L 138.989292 -228.676836 
L 144.685169 -233.248934 
L 150.381047 -244.491056 
L 156.076924 -237.865808 
L 161.772801 -229.856345 
L 167.468679 -222.226664 
L 173.164556 -214.297122 
L 178.860433 -210.062774 
L 184.556311 -201.017818 
L 190.252188 -194.795301 
L 195.948066 -190.152456 
L 201.643943 -186.201177 
L 207.33982 -184.822358 
L 213.035698 -182.206026 
L 218.731575 -179.825976 
L 224.427452 -177.933744 
L 230.12333 -176.733312 
L 235.819207 -175.153199 
L 241.515085 -173.398 
L 247.210962 -173.075421 
L 252.906839 -173.251245 
L 258.602717 -174.103746 
L 264.298594 -175.722721 
L 269.994471 -177.17506 
L 275.690349 -177.255649 
L 281.386226 -178.247912 
L 287.082104 -178.064156 
L 292.777981 -178.067515 
L 298.473858 -179.459606 
L 304.169736 -183.350006 
L 309.865613 -183.530389 
L 315.56149 -185.15363 
L 321.257368 -186.30043 
L 326.953245 -187.221535 
L 332.649123 -187.79946 
L 338.345 -187.934092 
L 344.040877 -187.389395 
L 349.736755 -187.155471 
L 355.432632 -186.552866 
L 361.12851 -186.608168 
L 366.824387 -188.253775 
L 372.520264 -188.700416 
L 378.216142 -190.858351 
L 383.912019 -189.542626 
L 389.607896 -188.477679 
L 395.303774 -186.072283 
L 400.999651 -184.306439 
L 406.695529 -181.937669 
L 412.391406 -180.027863 
L 418.087283 -178.482607 
L 423.783161 -176.117328 
L 429.479038 -175.384749 
L 435.174915 -172.991811 
L 440.870793 -170.49593 
L 446.56667 -167.594314 
L 452.262548 -165.288883 
L 457.958425 -164.711068 
L 463.654302 -162.111212 
L 469.35018 -159.773495 
L 475.046057 -158.999947 
L 480.741934 -158.437681 
L 486.437812 -158.135231 
L 492.133689 -157.762212 
L 497.829567 -157.11006 
L 503.525444 -156.935713 
L 509.221321 -156.187474 
L 514.917199 -156.166988 
L 520.613076 -154.07224 
L 526.308953 -154.742799 
L 532.004831 -153.386629 
L 537.700708 -154.645612 
L 543.396586 -152.286342 
L 549.092463 -152.401156 
L 554.78834 -151.696107 
L 560.484218 -152.492311 
L 566.180095 -149.89871 
L 571.875973 -148.824787 
L 577.57185 -149.649745 
L 583.267727 -149.738797 
L 583.267727 -154.516822 
L 583.267727 -154.516822 
L 577.57185 -154.696516 
L 571.875973 -153.672103 
L 566.180095 -155.03936 
L 560.484218 -157.362928 
L 554.78834 -156.750493 
L 549.092463 -157.014198 
L 543.396586 -156.546123 
L 537.700708 -159.137055 
L 532.004831 -158.355637 
L 526.308953 -159.879533 
L 520.613076 -159.207379 
L 514.917199 -161.740436 
L 509.221321 -161.595749 
L 503.525444 -162.105009 
L 497.829567 -162.543607 
L 492.133689 -163.316481 
L 486.437812 -163.521195 
L 480.741934 -163.629322 
L 475.046057 -164.443439 
L 469.35018 -165.36235 
L 463.654302 -168.173655 
L 457.958425 -170.987906 
L 452.262548 -171.668183 
L 446.56667 -174.371779 
L 440.870793 -177.875542 
L 435.174915 -181.258862 
L 429.479038 -183.483403 
L 423.783161 -184.647904 
L 418.087283 -187.772848 
L 412.391406 -189.416552 
L 406.695529 -191.390371 
L 400.999651 -194.489695 
L 395.303774 -196.522455 
L 389.607896 -199.032482 
L 383.912019 -200.373743 
L 378.216142 -201.608147 
L 372.520264 -199.309076 
L 366.824387 -198.715709 
L 361.12851 -197.194939 
L 355.432632 -196.734561 
L 349.736755 -197.448034 
L 344.040877 -197.573569 
L 338.345 -198.057907 
L 332.649123 -197.831341 
L 326.953245 -196.796247 
L 321.257368 -195.486016 
L 315.56149 -193.979333 
L 309.865613 -191.987166 
L 304.169736 -191.253522 
L 298.473858 -186.865965 
L 292.777981 -185.553362 
L 287.082104 -185.161846 
L 281.386226 -185.177189 
L 275.690349 -183.944574 
L 269.994471 -183.993693 
L 264.298594 -182.565004 
L 258.602717 -180.976543 
L 252.906839 -179.88665 
L 247.210962 -179.443593 
L 241.515085 -179.710457 
L 235.819207 -181.581668 
L 230.12333 -182.933491 
L 224.427452 -184.516479 
L 218.731575 -186.148337 
L 213.035698 -188.785077 
L 207.33982 -191.249429 
L 201.643943 -192.973259 
L 195.948066 -197.677989 
L 190.252188 -202.656384 
L 184.556311 -208.865805 
L 178.860433 -219.09135 
L 173.164556 -223.339894 
L 167.468679 -233.462561 
L 161.772801 -243.061109 
L 156.076924 -252.706122 
L 150.381047 -260.30658 
L 144.685169 -249.036979 
L 138.989292 -244.963252 
L 133.293414 -235.289039 
L 127.597537 -225.870829 
L 121.90166 -219.60423 
L 116.205782 -211.170109 
L 110.509905 -200.21902 
L 104.814027 -190.624613 
L 99.11815 -178.803445 
L 93.422273 -161.756184 
z
" style="stroke: #00008b; stroke-opacity: 0.1"/>
    </defs>
    <g clip-path="url(#p83af192d09)">
     <use xlink:href="#m211440957a" x="0" y="432" style="fill: #00008b; fill-opacity: 0.1; stroke: #00008b; stroke-opacity: 0.1"/>
    </g>
   </g>
   <g id="PathCollection_2">
    <defs>
     <path id="mbce27e6c24" d="M 0 -3 
L -0.673542 -0.927051 
L -2.85317 -0.927051 
L -1.089814 0.354102 
L -1.763356 2.427051 
L -0 1.145898 
L 1.763356 2.427051 
L 1.089814 0.354102 
L 2.85317 -0.927051 
L 0.673542 -0.927051 
z
" style="stroke: #00008b"/>
    </defs>
    <g clip-path="url(#p83af192d09)">
     <use xlink:href="#mbce27e6c24" x="309.865613" y="291.570446" style="fill: #00008b; stroke: #00008b"/>
     <use xlink:href="#mbce27e6c24" x="315.56149" y="291.570446" style="fill: #00008b; stroke: #00008b"/>
     <use xlink:href="#mbce27e6c24" x="321.257368" y="291.570446" style="fill: #00008b; stroke: #00008b"/>
     <use xlink:href="#mbce27e6c24" x="332.649123" y="291.570446" style="fill: #00008b; stroke: #00008b"/>
     <use xlink:href="#mbce27e6c24" x="338.345" y="291.570446" style="fill: #00008b; stroke: #00008b"/>
     <use xlink:href="#mbce27e6c24" x="344.040877" y="291.570446" style="fill: #00008b; stroke: #00008b"/>
     <use xlink:href="#mbce27e6c24" x="349.736755" y="291.570446" style="fill: #00008b; stroke: #00008b"/>
     <use xlink:href="#mbce27e6c24" x="355.432632" y="291.570446" style="fill: #00008b; stroke: #00008b"/>
     <use xlink:href="#mbce27e6c24" x="361.12851" y="291.570446" style="fill: #00008b; stroke: #00008b"/>
     <use xlink:href="#mbce27e6c24" x="366.824387" y="291.570446" style="fill: #00008b; stroke: #00008b"/>
     <use xlink:href="#mbce27e6c24" x="372.520264" y="291.570446" style="fill: #00008b; stroke: #00008b"/>
     <use xlink:href="#mbce27e6c24" x="378.216142" y="291.570446" style="fill: #00008b; stroke: #00008b"/>
     <use xlink:href="#mbce27e6c24" x="383.912019" y="291.570446" style="fill: #00008b; stroke: #00008b"/>
     <use xlink:href="#mbce27e6c24" x="389.607896" y="291.570446" style="fill: #00008b; stroke: #00008b"/>
     <use xlink:href="#mbce27e6c24" x="395.303774" y="291.570446" style="fill: #00008b; stroke: #00008b"/>
     <use xlink:href="#mbce27e6c24" x="400.999651" y="291.570446" style="fill: #00008b; stroke: #00008b"/>
     <use xlink:href="#mbce27e6c24" x="406.695529" y="291.570446" style="fill: #00008b; stroke: #00008b"/>
     <use xlink:href="#mbce27e6c24" x="412.391406" y="291.570446" style="fill: #00008b; stroke: #00008b"/>
     <use xlink:href="#mbce27e6c24" x="418.087283" y="291.570446" style="fill: #00008b; stroke: #00008b"/>
     <use xlink:href="#mbce27e6c24" x="423.783161" y="291.570446" style="fill: #00008b; stroke: #00008b"/>
     <use xlink:href="#mbce27e6c24" x="429.479038" y="291.570446" style="fill: #00008b; stroke: #00008b"/>
     <use xlink:href="#mbce27e6c24" x="435.174915" y="291.570446" style="fill: #00008b; stroke: #00008b"/>
     <use xlink:href="#mbce27e6c24" x="440.870793" y="291.570446" style="fill: #00008b; stroke: #00008b"/>
     <use xlink:href="#mbce27e6c24" x="446.56667" y="291.570446" style="fill: #00008b; stroke: #00008b"/>
     <use xlink:href="#mbce27e6c24" x="452.262548" y="291.570446" style="fill: #00008b; stroke: #00008b"/>
     <use xlink:href="#mbce27e6c24" x="457.958425" y="291.570446" style="fill: #00008b; stroke: #00008b"/>
     <use xlink:href="#mbce27e6c24" x="463.654302" y="291.570446" style="fill: #00008b; stroke: #00008b"/>
     <use xlink:href="#mbce27e6c24" x="469.35018" y="291.570446" style="fill: #00008b; stroke: #00008b"/>
     <use xlink:href="#mbce27e6c24" x="475.046057" y="291.570446" style="fill: #00008b; stroke: #00008b"/>
     <use xlink:href="#mbce27e6c24" x="480.741934" y="291.570446" style="fill: #00008b; stroke: #00008b"/>
     <use xlink:href="#mbce27e6c24" x="486.437812" y="291.570446" style="fill: #00008b; stroke: #00008b"/>
     <use xlink:href="#mbce27e6c24" x="492.133689" y="291.570446" style="fill: #00008b; stroke: #00008b"/>
     <use xlink:href="#mbce27e6c24" x="497.829567" y="291.570446" style="fill: #00008b; stroke: #00008b"/>
     <use xlink:href="#mbce27e6c24" x="503.525444" y="291.570446" style="fill: #00008b; stroke: #00008b"/>
     <use xlink:href="#mbce27e6c24" x="509.221321" y="291.570446" style="fill: #00008b; stroke: #00008b"/>
     <use xlink:href="#mbce27e6c24" x="514.917199" y="291.570446" style="fill: #00008b; stroke: #00008b"/>
     <use xlink:href="#mbce27e6c24" x="520.613076" y="291.570446" style="fill: #00008b; stroke: #00008b"/>
     <use xlink:href="#mbce27e6c24" x="526.308953" y="291.570446" style="fill: #00008b; stroke: #00008b"/>
     <use xlink:href="#mbce27e6c24" x="532.004831" y="291.570446" style="fill: #00008b; stroke: #00008b"/>
     <use xlink:href="#mbce27e6c24" x="537.700708" y="291.570446" style="fill: #00008b; stroke: #00008b"/>
     <use xlink:href="#mbce27e6c24" x="543.396586" y="291.570446" style="fill: #00008b; stroke: #00008b"/>
     <use xlink:href="#mbce27e6c24" x="549.092463" y="291.570446" style="fill: #00008b; stroke: #00008b"/>
     <use xlink:href="#mbce27e6c24" x="554.78834" y="291.570446" style="fill: #00008b; stroke: #00008b"/>
     <use xlink:href="#mbce27e6c24" x="560.484218" y="291.570446" style="fill: #00008b; stroke: #00008b"/>
     <use xlink:href="#mbce27e6c24" x="566.180095" y="291.570446" style="fill: #00008b; stroke: #00008b"/>
     <use xlink:href="#mbce27e6c24" x="571.875973" y="291.570446" style="fill: #00008b; stroke: #00008b"/>
     <use xlink:href="#mbce27e6c24" x="583.267727" y="291.570446" style="fill: #00008b; stroke: #00008b"/>
    </g>
   </g>
   <g id="line2d_14">
    <path d="M 93.422273 274.800883 
L 99.11815 281.583171 
L 104.814027 280.716252 
L 110.509905 290.205623 
L 116.205782 282.819597 
L 121.90166 275.897899 
L 127.597537 284.539141 
L 133.293414 286.6979 
L 138.989292 286.574538 
L 144.685169 282.770039 
L 150.381047 277.892538 
L 156.076924 265.477464 
L 161.772801 238.119422 
L 167.468679 222.141601 
L 173.164556 203.14563 
L 178.860433 193.23267 
L 184.556311 205.227526 
L 190.252188 218.817198 
L 195.948066 243.521602 
L 201.643943 240.55789 
L 207.33982 245.60229 
L 213.035698 237.204115 
L 218.731575 240.651797 
L 224.427452 250.045893 
L 230.12333 257.88625 
L 235.819207 256.36524 
L 241.515085 255.34127 
L 247.210962 263.527395 
L 252.906839 247.236295 
L 258.602717 229.567957 
L 264.298594 195.454936 
L 269.994471 161.389374 
L 275.690349 113.756186 
L 281.386226 78.856974 
L 287.082104 84.44494 
L 292.777981 88.07687 
L 298.473858 86.398919 
L 304.169736 75.842247 
L 309.865613 93.307439 
L 315.56149 122.497437 
L 321.257368 147.218718 
L 326.953245 149.139193 
L 332.649123 167.278275 
L 338.345 149.554682 
L 344.040877 110.642037 
L 349.736755 85.452568 
L 355.432632 101.97749 
L 361.12851 116.095583 
L 366.824387 119.65246 
L 372.520264 123.846977 
L 378.216142 114.835617 
L 383.912019 101.578433 
L 389.607896 76.188437 
L 395.303774 64.288584 
L 400.999651 64.952256 
L 406.695529 87.272698 
L 412.391406 100.287414 
L 418.087283 117.484397 
L 423.783161 93.203224 
L 429.479038 105.890634 
L 435.174915 139.844993 
L 440.870793 151.980902 
L 446.56667 171.848959 
L 452.262548 197.191552 
L 457.958425 215.392816 
L 463.654302 224.094511 
L 469.35018 237.175427 
L 475.046057 242.218235 
L 480.741934 258.090477 
L 486.437812 266.220949 
L 492.133689 276.139299 
L 497.829567 272.117046 
L 503.525444 277.30104 
L 509.221321 275.212048 
L 514.917199 277.232656 
L 520.613076 284.523744 
L 526.308953 278.28805 
L 532.004831 278.907395 
L 537.700708 274.736127 
L 543.396586 264.443714 
L 549.092463 269.99084 
L 554.78834 278.136196 
L 560.484218 280.811703 
L 566.180095 278.63383 
L 571.875973 280.400242 
L 577.57185 273.199238 
L 583.267727 272.606885 
" clip-path="url(#p83af192d09)" style="fill: none; stroke: #6060eb; stroke-width: 2; stroke-linecap: round"/>
   </g>
   <g id="line2d_15">
    <path d="M 93.422273 283.382205 
L 99.11815 283.44489 
L 104.814027 284.042103 
L 110.509905 285.066361 
L 116.205782 284.298919 
L 121.90166 283.35673 
L 127.597537 284.103507 
L 133.293414 284.92542 
L 138.989292 284.43408 
L 144.685169 284.945139 
L 150.381047 265.648495 
L 156.076924 257.979897 
L 161.772801 253.62111 
L 167.468679 251.804574 
L 173.164556 251.316377 
L 178.860433 250.101824 
L 184.556311 249.577881 
L 190.252188 252.524364 
L 195.948066 253.290683 
L 201.643943 252.035276 
L 207.33982 246.444901 
L 213.035698 247.487496 
L 218.731575 249.753421 
L 224.427452 246.722499 
L 230.12333 247.542807 
L 235.819207 244.665209 
L 241.515085 247.026655 
L 247.210962 246.779094 
L 252.906839 241.867611 
L 258.602717 242.387492 
L 264.298594 241.382209 
L 269.994471 241.788844 
L 275.690349 237.927847 
L 281.386226 232.493013 
L 287.082104 228.047608 
L 292.777981 231.333302 
L 298.473858 231.302209 
L 304.169736 232.528563 
L 309.865613 234.841179 
L 315.56149 235.397244 
L 321.257368 233.162924 
L 326.953245 234.879944 
L 332.649123 234.051967 
L 338.345 227.825768 
L 344.040877 223.577598 
L 349.736755 229.575927 
L 355.432632 233.966295 
L 361.12851 234.047749 
L 366.824387 235.384292 
L 372.520264 232.254936 
L 378.216142 230.374648 
L 383.912019 230.707715 
L 389.607896 225.796101 
L 395.303774 227.389272 
L 400.999651 232.466884 
L 406.695529 232.025889 
L 412.391406 231.212223 
L 418.087283 229.672196 
L 423.783161 232.721159 
L 429.479038 241.315212 
L 435.174915 253.652631 
L 440.870793 248.343934 
L 446.56667 251.627077 
L 452.262548 258.328476 
L 457.958425 263.084624 
L 463.654302 264.220591 
L 469.35018 265.48391 
L 475.046057 266.937992 
L 480.741934 268.743347 
L 486.437812 271.855019 
L 492.133689 270.656879 
L 497.829567 272.650878 
L 503.525444 270.014709 
L 509.221321 270.063054 
L 514.917199 271.424939 
L 520.613076 269.080183 
L 526.308953 269.273897 
L 532.004831 272.151541 
L 537.700708 270.966948 
L 543.396586 270.360377 
L 549.092463 270.641557 
L 554.78834 271.40596 
L 560.484218 270.743153 
L 566.180095 270.682748 
L 571.875973 271.500935 
L 577.57185 271.336099 
L 583.267727 271.007241 
" clip-path="url(#p83af192d09)" style="fill: none; stroke-dasharray: 7.4,3.2; stroke-dashoffset: 0; stroke: #6060eb; stroke-width: 2"/>
   </g>
   <g id="line2d_16">
    <path d="M 150.381047 379.18 
L 150.381047 27.6 
" clip-path="url(#p83af192d09)" style="fill: none; stroke-dasharray: 5.55,2.4; stroke-dashoffset: 0; stroke: #1a1a1a; stroke-width: 1.5"/>
   </g>
   <g id="line2d_17">
    <path d="M 435.174915 379.18 
L 435.174915 27.6 
" clip-path="url(#p83af192d09)" style="fill: none; stroke-dasharray: 5.55,2.4; stroke-dashoffset: 0; stroke: #1a1a1a; stroke-width: 1.5"/>
   </g>
   <g id="line2d_18">
    <path d="M 93.422273 315.11406 
L 99.11815 340.038592 
L 104.814027 277.82907 
L 110.509905 255.228471 
L 116.205782 258.337461 
L 121.90166 241.070086 
L 127.597537 216.382502 
L 133.293414 217.798085 
L 138.989292 198.343659 
L 144.685169 195.470093 
L 150.381047 184.393734 
L 156.076924 195.136885 
L 161.772801 193.415777 
L 167.468679 193.416063 
L 173.164556 220.48044 
L 178.860433 243.287934 
L 184.556311 261.099602 
L 190.252188 243.447646 
L 195.948066 251.419659 
L 201.643943 250.297469 
L 207.33982 251.538074 
L 213.035698 257.498328 
L 218.731575 256.692875 
L 224.427452 254.407361 
L 230.12333 245.006642 
L 235.819207 255.033041 
L 241.515085 259.835329 
L 247.210962 256.283059 
L 252.906839 251.374873 
L 258.602717 250.377329 
L 264.298594 253.315712 
L 269.994471 255.274569 
L 275.690349 252.706327 
L 281.386226 239.514994 
L 287.082104 227.263226 
L 292.777981 222.821544 
L 298.473858 211.519523 
L 304.169736 201.9481 
L 309.865613 183.143231 
L 315.56149 172.5277 
L 321.257368 166.602682 
L 326.953245 162.764255 
L 332.649123 149.581979 
L 338.345 157.080902 
L 344.040877 147.927784 
L 349.736755 139.2296 
L 355.432632 126.547406 
L 361.12851 125.610425 
L 366.824387 117.253277 
L 372.520264 117.459446 
L 378.216142 121.059516 
L 383.912019 122.705207 
L 389.607896 121.101453 
L 395.303774 113.898558 
L 400.999651 107.698538 
L 406.695529 99.869848 
L 412.391406 106.779804 
L 418.087283 116.168748 
L 423.783161 88.749447 
L 429.479038 87.083992 
L 435.174915 90.356443 
L 440.870793 110.120673 
L 446.56667 119.246625 
L 452.262548 132.372687 
L 457.958425 147.273786 
L 463.654302 154.037531 
L 469.35018 149.021548 
L 475.046057 163.822374 
L 480.741934 164.125042 
L 486.437812 164.124925 
L 492.133689 170.98962 
L 497.829567 171.490263 
L 503.525444 176.913145 
L 509.221321 182.590547 
L 514.917199 180.864974 
L 520.613076 184.832017 
L 526.308953 189.291524 
L 532.004831 188.179194 
L 537.700708 184.786994 
L 543.396586 180.15373 
L 549.092463 191.831566 
L 554.78834 184.028381 
L 560.484218 186.578922 
L 566.180095 187.163929 
L 571.875973 194.993581 
L 577.57185 203.346688 
L 583.267727 201.835604 
" clip-path="url(#p83af192d09)" style="fill: none; stroke: #00008b; stroke-width: 2; stroke-linecap: round"/>
   </g>
   <g id="line2d_19">
    <path d="M 93.422273 274.083757 
L 99.11815 258.899331 
L 104.814027 247.698364 
L 110.509905 238.853671 
L 116.205782 228.820518 
L 121.90166 220.317059 
L 127.597537 214.122497 
L 133.293414 204.806126 
L 138.989292 195.179956 
L 144.685169 190.857043 
L 150.381047 179.601182 
L 156.076924 186.714035 
L 161.772801 195.541273 
L 167.468679 204.155387 
L 173.164556 213.181492 
L 178.860433 217.422938 
L 184.556311 227.058188 
L 190.252188 233.274157 
L 195.948066 238.084778 
L 201.643943 242.412782 
L 207.33982 243.964107 
L 213.035698 246.504448 
L 218.731575 249.012843 
L 224.427452 250.774889 
L 230.12333 252.166599 
L 235.819207 253.632566 
L 241.515085 255.445772 
L 247.210962 255.740493 
L 252.906839 255.431052 
L 258.602717 254.459856 
L 264.298594 252.856138 
L 269.994471 251.415623 
L 275.690349 251.399888 
L 281.386226 250.287449 
L 287.082104 250.386999 
L 292.777981 250.189562 
L 298.473858 248.837215 
L 304.169736 244.698236 
L 309.865613 244.241223 
L 315.56149 242.433519 
L 321.257368 241.106777 
L 326.953245 239.991109 
L 332.649123 239.184599 
L 338.345 239.004001 
L 344.040877 239.518518 
L 349.736755 239.698247 
L 355.432632 240.356287 
L 361.12851 240.098446 
L 366.824387 238.515258 
L 372.520264 237.995254 
L 378.216142 235.766751 
L 383.912019 237.041816 
L 389.607896 238.244919 
L 395.303774 240.702631 
L 400.999651 242.601933 
L 406.695529 245.33598 
L 412.391406 247.277793 
L 418.087283 248.872273 
L 423.783161 251.617384 
L 429.479038 252.565924 
L 435.174915 254.874664 
L 440.870793 257.814264 
L 446.56667 261.016954 
L 452.262548 263.521467 
L 457.958425 264.150513 
L 463.654302 266.857566 
L 469.35018 269.432078 
L 475.046057 270.278307 
L 480.741934 270.966498 
L 486.437812 271.171787 
L 492.133689 271.460654 
L 497.829567 272.173166 
L 503.525444 272.479639 
L 509.221321 273.108389 
L 514.917199 273.046288 
L 520.613076 275.360191 
L 526.308953 274.688834 
L 532.004831 276.128867 
L 537.700708 275.108666 
L 543.396586 277.583768 
L 549.092463 277.292323 
L 554.78834 277.7767 
L 560.484218 277.072381 
L 566.180095 279.530965 
L 571.875973 280.751555 
L 577.57185 279.82687 
L 583.267727 279.87219 
" clip-path="url(#p83af192d09)" style="fill: none; stroke-dasharray: 7.4,3.2; stroke-dashoffset: 0; stroke: #00008b; stroke-width: 2"/>
   </g>
   <g id="line2d_20">
    <path d="M 150.381047 379.18 
L 150.381047 27.6 
" clip-path="url(#p83af192d09)" style="fill: none; stroke-dasharray: 5.55,2.4; stroke-dashoffset: 0; stroke: #1a1a1a; stroke-width: 1.5"/>
   </g>
   <g id="line2d_21">
    <path d="M 435.174915 379.18 
L 435.174915 27.6 
" clip-path="url(#p83af192d09)" style="fill: none; stroke-dasharray: 5.55,2.4; stroke-dashoffset: 0; stroke: #1a1a1a; stroke-width: 1.5"/>
   </g>
   <g id="patch_3">
    <path d="M 68.93 379.18 
L 68.93 27.6 
" style="fill: none; stroke: #000000; stroke-width: 1.5; stroke-linejoin: miter; stroke-linecap: square"/>
   </g>
   <g id="patch_4">
    <path d="M 68.93 379.18 
L 607.76 379.18 
" style="fill: none; stroke: #000000; stroke-width: 1.5; stroke-linejoin: miter; stroke-linecap: square"/>
   </g>
   <g id="text_16">
    <!-- Divergence Comparison: Original vs Shuffled -->
    <g style="fill: #262626" transform="translate(218.735 21.6) scale(0.12 -0.12)">
     <defs>
      <path id="ArialMT-43" d="M 3763 1606 
L 4369 1453 
Q 4178 706 3683 314 
Q 3188 -78 2472 -78 
Q 1731 -78 1267 223 
Q 803 525 561 1097 
Q 319 1669 319 2325 
Q 319 3041 592 3573 
Q 866 4106 1370 4382 
Q 1875 4659 2481 4659 
Q 3169 4659 3637 4309 
Q 4106 3959 4291 3325 
L 3694 3184 
Q 3534 3684 3231 3912 
Q 2928 4141 2469 4141 
Q 1941 4141 1586 3887 
Q 1231 3634 1087 3207 
Q 944 2781 944 2328 
Q 944 1744 1114 1308 
Q 1284 872 1643 656 
Q 2003 441 2422 441 
Q 2931 441 3284 734 
Q 3638 1028 3763 1606 
z
" transform="scale(0.015625)"/>
      <path id="ArialMT-6f" d="M 213 1659 
Q 213 2581 725 3025 
Q 1153 3394 1769 3394 
Q 2453 3394 2887 2945 
Q 3322 2497 3322 1706 
Q 3322 1066 3130 698 
Q 2938 331 2570 128 
Q 2203 -75 1769 -75 
Q 1072 -75 642 372 
Q 213 819 213 1659 
z
M 791 1659 
Q 791 1022 1069 705 
Q 1347 388 1769 388 
Q 2188 388 2466 706 
Q 2744 1025 2744 1678 
Q 2744 2294 2464 2611 
Q 2184 2928 1769 2928 
Q 1347 2928 1069 2612 
Q 791 2297 791 1659 
z
" transform="scale(0.015625)"/>
      <path id="ArialMT-70" d="M 422 -1272 
L 422 3319 
L 934 3319 
L 934 2888 
Q 1116 3141 1344 3267 
Q 1572 3394 1897 3394 
Q 2322 3394 2647 3175 
Q 2972 2956 3137 2557 
Q 3303 2159 3303 1684 
Q 3303 1175 3120 767 
Q 2938 359 2589 142 
Q 2241 -75 1856 -75 
Q 1575 -75 1351 44 
Q 1128 163 984 344 
L 984 -1272 
L 422 -1272 
z
M 931 1641 
Q 931 1000 1190 694 
Q 1450 388 1819 388 
Q 2194 388 2461 705 
Q 2728 1022 2728 1688 
Q 2728 2322 2467 2637 
Q 2206 2953 1844 2953 
Q 1484 2953 1207 2617 
Q 931 2281 931 1641 
z
" transform="scale(0.015625)"/>
      <path id="ArialMT-61" d="M 2588 409 
Q 2275 144 1986 34 
Q 1697 -75 1366 -75 
Q 819 -75 525 192 
Q 231 459 231 875 
Q 231 1119 342 1320 
Q 453 1522 633 1644 
Q 813 1766 1038 1828 
Q 1203 1872 1538 1913 
Q 2219 1994 2541 2106 
Q 2544 2222 2544 2253 
Q 2544 2597 2384 2738 
Q 2169 2928 1744 2928 
Q 1347 2928 1158 2789 
Q 969 2650 878 2297 
L 328 2372 
Q 403 2725 575 2942 
Q 747 3159 1072 3276 
Q 1397 3394 1825 3394 
Q 2250 3394 2515 3294 
Q 2781 3194 2906 3042 
Q 3031 2891 3081 2659 
Q 3109 2516 3109 2141 
L 3109 1391 
Q 3109 606 3145 398 
Q 3181 191 3288 0 
L 2700 0 
Q 2613 175 2588 409 
z
M 2541 1666 
Q 2234 1541 1622 1453 
Q 1275 1403 1131 1340 
Q 988 1278 909 1158 
Q 831 1038 831 891 
Q 831 666 1001 516 
Q 1172 366 1500 366 
Q 1825 366 2078 508 
Q 2331 650 2450 897 
Q 2541 1088 2541 1459 
L 2541 1666 
z
" transform="scale(0.015625)"/>
      <path id="ArialMT-3a" d="M 578 2678 
L 578 3319 
L 1219 3319 
L 1219 2678 
L 578 2678 
z
M 578 0 
L 578 641 
L 1219 641 
L 1219 0 
L 578 0 
z
" transform="scale(0.015625)"/>
      <path id="ArialMT-4f" d="M 309 2231 
Q 309 3372 921 4017 
Q 1534 4663 2503 4663 
Q 3138 4663 3647 4359 
Q 4156 4056 4423 3514 
Q 4691 2972 4691 2284 
Q 4691 1588 4409 1038 
Q 4128 488 3612 205 
Q 3097 -78 2500 -78 
Q 1853 -78 1343 234 
Q 834 547 571 1087 
Q 309 1628 309 2231 
z
M 934 2222 
Q 934 1394 1379 917 
Q 1825 441 2497 441 
Q 3181 441 3623 922 
Q 4066 1403 4066 2288 
Q 4066 2847 3877 3264 
Q 3688 3681 3323 3911 
Q 2959 4141 2506 4141 
Q 1863 4141 1398 3698 
Q 934 3256 934 2222 
z
" transform="scale(0.015625)"/>
      <path id="ArialMT-6c" d="M 409 0 
L 409 4581 
L 972 4581 
L 972 0 
L 409 0 
z
" transform="scale(0.015625)"/>
      <path id="ArialMT-53" d="M 288 1472 
L 859 1522 
Q 900 1178 1048 958 
Q 1197 738 1509 602 
Q 1822 466 2213 466 
Q 2559 466 2825 569 
Q 3091 672 3220 851 
Q 3350 1031 3350 1244 
Q 3350 1459 3225 1620 
Q 3100 1781 2813 1891 
Q 2628 1963 1997 2114 
Q 1366 2266 1113 2400 
Q 784 2572 623 2826 
Q 463 3081 463 3397 
Q 463 3744 659 4045 
Q 856 4347 1234 4503 
Q 1613 4659 2075 4659 
Q 2584 4659 2973 4495 
Q 3363 4331 3572 4012 
Q 3781 3694 3797 3291 
L 3216 3247 
Q 3169 3681 2898 3903 
Q 2628 4125 2100 4125 
Q 1550 4125 1298 3923 
Q 1047 3722 1047 3438 
Q 1047 3191 1225 3031 
Q 1400 2872 2139 2705 
Q 2878 2538 3153 2413 
Q 3553 2228 3743 1945 
Q 3934 1663 3934 1294 
Q 3934 928 3725 604 
Q 3516 281 3123 101 
Q 2731 -78 2241 -78 
Q 1619 -78 1198 103 
Q 778 284 539 648 
Q 300 1013 288 1472 
z
" transform="scale(0.015625)"/>
      <path id="ArialMT-68" d="M 422 0 
L 422 4581 
L 984 4581 
L 984 2938 
Q 1378 3394 1978 3394 
Q 2347 3394 2619 3248 
Q 2891 3103 3008 2847 
Q 3125 2591 3125 2103 
L 3125 0 
L 2563 0 
L 2563 2103 
Q 2563 2525 2380 2717 
Q 2197 2909 1863 2909 
Q 1613 2909 1392 2779 
Q 1172 2650 1078 2428 
Q 984 2206 984 1816 
L 984 0 
L 422 0 
z
" transform="scale(0.015625)"/>
      <path id="ArialMT-75" d="M 2597 0 
L 2597 488 
Q 2209 -75 1544 -75 
Q 1250 -75 995 37 
Q 741 150 617 320 
Q 494 491 444 738 
Q 409 903 409 1263 
L 409 3319 
L 972 3319 
L 972 1478 
Q 972 1038 1006 884 
Q 1059 663 1231 536 
Q 1403 409 1656 409 
Q 1909 409 2131 539 
Q 2353 669 2445 892 
Q 2538 1116 2538 1541 
L 2538 3319 
L 3100 3319 
L 3100 0 
L 2597 0 
z
" transform="scale(0.015625)"/>
      <path id="ArialMT-66" d="M 556 0 
L 556 2881 
L 59 2881 
L 59 3319 
L 556 3319 
L 556 3672 
Q 556 4006 616 4169 
Q 697 4388 901 4523 
Q 1106 4659 1475 4659 
Q 1713 4659 2000 4603 
L 1916 4113 
Q 1741 4144 1584 4144 
Q 1328 4144 1222 4034 
Q 1116 3925 1116 3625 
L 1116 3319 
L 1763 3319 
L 1763 2881 
L 1116 2881 
L 1116 0 
L 556 0 
z
" transform="scale(0.015625)"/>
      <path id="ArialMT-64" d="M 2575 0 
L 2575 419 
Q 2259 -75 1647 -75 
Q 1250 -75 917 144 
Q 584 363 401 755 
Q 219 1147 219 1656 
Q 219 2153 384 2558 
Q 550 2963 881 3178 
Q 1213 3394 1622 3394 
Q 1922 3394 2156 3267 
Q 2391 3141 2538 2938 
L 2538 4581 
L 3097 4581 
L 3097 0 
L 2575 0 
z
M 797 1656 
Q 797 1019 1065 703 
Q 1334 388 1700 388 
Q 2069 388 2326 689 
Q 2584 991 2584 1609 
Q 2584 2291 2321 2609 
Q 2059 2928 1675 2928 
Q 1300 2928 1048 2622 
Q 797 2316 797 1656 
z
" transform="scale(0.015625)"/>
     </defs>
     <use xlink:href="#ArialMT-44"/>
     <use xlink:href="#ArialMT-69" x="72.216797"/>
     <use xlink:href="#ArialMT-76" x="94.433594"/>
     <use xlink:href="#ArialMT-65" x="144.433594"/>
     <use xlink:href="#ArialMT-72" x="200.048828"/>
     <use xlink:href="#ArialMT-67" x="233.349609"/>
     <use xlink:href="#ArialMT-65" x="288.964844"/>
     <use xlink:href="#ArialMT-6e" x="344.580078"/>
     <use xlink:href="#ArialMT-63" x="400.195312"/>
     <use xlink:href="#ArialMT-65" x="450.195312"/>
     <use xlink:href="#ArialMT-20" x="505.810547"/>
     <use xlink:href="#ArialMT-43" x="533.59375"/>
     <use xlink:href="#ArialMT-6f" x="605.810547"/>
     <use xlink:href="#ArialMT-6d" x="661.425781"/>
     <use xlink:href="#ArialMT-70" x="744.726562"/>
     <use xlink:href="#ArialMT-61" x="800.341797"/>
     <use xlink:href="#ArialMT-72" x="855.957031"/>
     <use xlink:href="#ArialMT-69" x="889.257812"/>
     <use xlink:href="#ArialMT-73" x="911.474609"/>
     <use xlink:href="#ArialMT-6f" x="961.474609"/>
     <use xlink:href="#ArialMT-6e" x="1017.089844"/>
     <use xlink:href="#ArialMT-3a" x="1072.705078"/>
     <use xlink:href="#ArialMT-20" x="1100.488281"/>
     <use xlink:href="#ArialMT-4f" x="1128.271484"/>
     <use xlink:href="#ArialMT-72" x="1206.054688"/>
     <use xlink:href="#ArialMT-69" x="1239.355469"/>
     <use xlink:href="#ArialMT-67" x="1261.572266"/>
     <use xlink:href="#ArialMT-69" x="1317.1875"/>
     <use xlink:href="#ArialMT-6e" x="1339.404297"/>
     <use xlink:href="#ArialMT-61" x="1395.019531"/>
     <use xlink:href="#ArialMT-6c" x="1450.634766"/>
     <use xlink:href="#ArialMT-20" x="1472.851562"/>
     <use xlink:href="#ArialMT-76" x="1500.634766"/>
     <use xlink:href="#ArialMT-73" x="1550.634766"/>
     <use xlink:href="#ArialMT-20" x="1600.634766"/>
     <use xlink:href="#ArialMT-53" x="1628.417969"/>
     <use xlink:href="#ArialMT-68" x="1695.117188"/>
     <use xlink:href="#ArialMT-75" x="1750.732422"/>
     <use xlink:href="#ArialMT-66" x="1806.347656"/>
     <use xlink:href="#ArialMT-66" x="1832.380859"/>
     <use xlink:href="#ArialMT-6c" x="1860.164062"/>
     <use xlink:href="#ArialMT-65" x="1882.380859"/>
     <use xlink:href="#ArialMT-64" x="1937.996094"/>
    </g>
   </g>
   <g id="legend_1">
    <g id="patch_5">
     <path d="M 615.46 260.055469 
L 705.061875 260.055469 
Q 707.261875 260.055469 707.261875 257.855469 
L 707.261875 148.924531 
Q 707.261875 146.724531 705.061875 146.724531 
L 615.46 146.724531 
Q 613.26 146.724531 613.26 148.924531 
L 613.26 257.855469 
Q 613.26 260.055469 615.46 260.055469 
z
" style="fill: #ffffff; opacity: 0.8; stroke: #cccccc; stroke-linejoin: miter"/>
    </g>
    <g id="line2d_22">
     <path d="M 617.66 155.289062 
L 628.66 155.289062 
L 639.66 155.289062 
" style="fill: none; stroke: #6060eb; stroke-width: 2; stroke-linecap: round"/>
    </g>
    <g id="text_17">
     <!-- Original -->
     <g style="fill: #262626" transform="translate(648.46 159.139062) scale(0.11 -0.11)">
      <use xlink:href="#ArialMT-4f"/>
      <use xlink:href="#ArialMT-72" x="77.783203"/>
      <use xlink:href="#ArialMT-69" x="111.083984"/>
      <use xlink:href="#ArialMT-67" x="133.300781"/>
      <use xlink:href="#ArialMT-69" x="188.916016"/>
      <use xlink:href="#ArialMT-6e" x="211.132812"/>
      <use xlink:href="#ArialMT-61" x="266.748047"/>
      <use xlink:href="#ArialMT-6c" x="322.363281"/>
     </g>
    </g>
    <g id="line2d_23">
     <path d="M 617.66 171.11875 
L 628.66 171.11875 
L 639.66 171.11875 
" style="fill: none; stroke-dasharray: 7.4,3.2; stroke-dashoffset: 0; stroke: #6060eb; stroke-width: 2"/>
    </g>
    <g id="text_18">
     <!-- Original -->
     <g style="fill: #262626" transform="translate(648.46 174.96875) scale(0.11 -0.11)">
      <use xlink:href="#ArialMT-4f"/>
      <use xlink:href="#ArialMT-72" x="77.783203"/>
      <use xlink:href="#ArialMT-69" x="111.083984"/>
      <use xlink:href="#ArialMT-67" x="133.300781"/>
      <use xlink:href="#ArialMT-69" x="188.916016"/>
      <use xlink:href="#ArialMT-6e" x="211.132812"/>
      <use xlink:href="#ArialMT-61" x="266.748047"/>
      <use xlink:href="#ArialMT-6c" x="322.363281"/>
     </g>
    </g>
    <g id="PathCollection_3">
     <g>
      <use xlink:href="#me5544bf471" x="628.66" y="187.802656" style="fill: #6060eb; stroke: #6060eb"/>
     </g>
    </g>
    <g id="text_19">
     <!-- p &lt; 0.001 -->
     <g style="fill: #262626" transform="translate(648.46 190.690156) scale(0.11 -0.11)">
      <defs>
       <path id="ArialMT-3c" d="M 350 2003 
L 350 2528 
L 3384 3809 
L 3384 3250 
L 978 2263 
L 3384 1266 
L 3384 706 
L 350 2003 
z
" transform="scale(0.015625)"/>
      </defs>
      <use xlink:href="#ArialMT-70"/>
      <use xlink:href="#ArialMT-20" x="55.615234"/>
      <use xlink:href="#ArialMT-3c" x="83.398438"/>
      <use xlink:href="#ArialMT-20" x="141.796875"/>
      <use xlink:href="#ArialMT-30" x="169.580078"/>
      <use xlink:href="#ArialMT-2e" x="225.195312"/>
      <use xlink:href="#ArialMT-30" x="252.978516"/>
      <use xlink:href="#ArialMT-30" x="308.59375"/>
      <use xlink:href="#ArialMT-31" x="364.208984"/>
     </g>
    </g>
    <g id="line2d_24">
     <path d="M 617.66 202.4 
L 628.66 202.4 
L 639.66 202.4 
" style="fill: none; stroke-dasharray: 5.55,2.4; stroke-dashoffset: 0; stroke: #1a1a1a; stroke-width: 1.5"/>
    </g>
    <g id="text_20">
     <!-- Stim Onset -->
     <g style="fill: #262626" transform="translate(648.46 206.25) scale(0.11 -0.11)">
      <defs>
       <path id="ArialMT-74" d="M 1650 503 
L 1731 6 
Q 1494 -44 1306 -44 
Q 1000 -44 831 53 
Q 663 150 594 308 
Q 525 466 525 972 
L 525 2881 
L 113 2881 
L 113 3319 
L 525 3319 
L 525 4141 
L 1084 4478 
L 1084 3319 
L 1650 3319 
L 1650 2881 
L 1084 2881 
L 1084 941 
Q 1084 700 1114 631 
Q 1144 563 1211 522 
Q 1278 481 1403 481 
Q 1497 481 1650 503 
z
" transform="scale(0.015625)"/>
      </defs>
      <use xlink:href="#ArialMT-53"/>
      <use xlink:href="#ArialMT-74" x="66.699219"/>
      <use xlink:href="#ArialMT-69" x="94.482422"/>
      <use xlink:href="#ArialMT-6d" x="116.699219"/>
      <use xlink:href="#ArialMT-20" x="200"/>
      <use xlink:href="#ArialMT-4f" x="227.783203"/>
      <use xlink:href="#ArialMT-6e" x="305.566406"/>
      <use xlink:href="#ArialMT-73" x="361.181641"/>
      <use xlink:href="#ArialMT-65" x="411.181641"/>
      <use xlink:href="#ArialMT-74" x="466.796875"/>
     </g>
    </g>
    <g id="line2d_25">
     <path d="M 617.66 217.959844 
L 628.66 217.959844 
L 639.66 217.959844 
" style="fill: none; stroke-dasharray: 5.55,2.4; stroke-dashoffset: 0; stroke: #1a1a1a; stroke-width: 1.5"/>
    </g>
    <g id="text_21">
     <!-- Stim End -->
     <g style="fill: #262626" transform="translate(648.46 221.809844) scale(0.11 -0.11)">
      <defs>
       <path id="ArialMT-45" d="M 506 0 
L 506 4581 
L 3819 4581 
L 3819 4041 
L 1113 4041 
L 1113 2638 
L 3647 2638 
L 3647 2100 
L 1113 2100 
L 1113 541 
L 3925 541 
L 3925 0 
L 506 0 
z
" transform="scale(0.015625)"/>
      </defs>
      <use xlink:href="#ArialMT-53"/>
      <use xlink:href="#ArialMT-74" x="66.699219"/>
      <use xlink:href="#ArialMT-69" x="94.482422"/>
      <use xlink:href="#ArialMT-6d" x="116.699219"/>
      <use xlink:href="#ArialMT-20" x="200"/>
      <use xlink:href="#ArialMT-45" x="227.783203"/>
      <use xlink:href="#ArialMT-6e" x="294.482422"/>
      <use xlink:href="#ArialMT-64" x="350.097656"/>
     </g>
    </g>
    <g id="line2d_26">
     <path d="M 617.66 233.660625 
L 628.66 233.660625 
L 639.66 233.660625 
" style="fill: none; stroke: #00008b; stroke-width: 2; stroke-linecap: round"/>
    </g>
    <g id="text_22">
     <!-- Original -->
     <g style="fill: #262626" transform="translate(648.46 237.510625) scale(0.11 -0.11)">
      <use xlink:href="#ArialMT-4f"/>
      <use xlink:href="#ArialMT-72" x="77.783203"/>
      <use xlink:href="#ArialMT-69" x="111.083984"/>
      <use xlink:href="#ArialMT-67" x="133.300781"/>
      <use xlink:href="#ArialMT-69" x="188.916016"/>
      <use xlink:href="#ArialMT-6e" x="211.132812"/>
      <use xlink:href="#ArialMT-61" x="266.748047"/>
      <use xlink:href="#ArialMT-6c" x="322.363281"/>
     </g>
    </g>
    <g id="line2d_27">
     <path d="M 617.66 249.490312 
L 628.66 249.490312 
L 639.66 249.490312 
" style="fill: none; stroke-dasharray: 7.4,3.2; stroke-dashoffset: 0; stroke: #00008b; stroke-width: 2"/>
    </g>
    <g id="text_23">
     <!-- Original -->
     <g style="fill: #262626" transform="translate(648.46 253.340312) scale(0.11 -0.11)">
      <use xlink:href="#ArialMT-4f"/>
      <use xlink:href="#ArialMT-72" x="77.783203"/>
      <use xlink:href="#ArialMT-69" x="111.083984"/>
      <use xlink:href="#ArialMT-67" x="133.300781"/>
      <use xlink:href="#ArialMT-69" x="188.916016"/>
      <use xlink:href="#ArialMT-6e" x="211.132812"/>
      <use xlink:href="#ArialMT-61" x="266.748047"/>
      <use xlink:href="#ArialMT-6c" x="322.363281"/>
     </g>
    </g>
   </g>
  </g>
 </g>
 <defs>
  <clipPath id="p83af192d09">
   <rect x="68.93" y="27.6" width="538.83" height="351.58"/>
  </clipPath>
 </defs>
</svg>
