<?xml version="1.0" encoding="utf-8" standalone="no"?>
<!DOCTYPE svg PUBLIC "-//W3C//DTD SVG 1.1//EN"
  "http://www.w3.org/Graphics/SVG/1.1/DTD/svg11.dtd">
<svg xmlns:xlink="http://www.w3.org/1999/xlink" width="720pt" height="432pt" viewBox="0 0 720 432" xmlns="http://www.w3.org/2000/svg" version="1.1">
 <metadata>
  <rdf:RDF xmlns:dc="http://purl.org/dc/elements/1.1/" xmlns:cc="http://creativecommons.org/ns#" xmlns:rdf="http://www.w3.org/1999/02/22-rdf-syntax-ns#">
   <cc:Work>
    <dc:type rdf:resource="http://purl.org/dc/dcmitype/StillImage"/>
    <dc:date>2025-08-01T10:41:09.012287</dc:date>
    <dc:format>image/svg+xml</dc:format>
    <dc:creator>
     <cc:Agent>
      <dc:title>Matplotlib v3.9.4, https://matplotlib.org/</dc:title>
     </cc:Agent>
    </dc:creator>
   </cc:Work>
  </rdf:RDF>
 </metadata>
 <defs>
  <style type="text/css">*{stroke-linejoin: round; stroke-linecap: butt}</style>
 </defs>
 <g id="figure_1">
  <g id="patch_1">
   <path d="M 0 432 
L 720 432 
L 720 0 
L 0 0 
z
" style="fill: #ffffff"/>
  </g>
  <g id="axes_1">
   <g id="patch_2">
    <path d="M 69.57 378.18 
L 607.76 378.18 
L 607.76 27.6 
L 69.57 27.6 
L 69.57 378.18 
z
" style="fill: none"/>
   </g>
   <g id="matplotlib.axis_1">
    <g id="xtick_1">
     <g id="text_1">
      <!-- −250 -->
      <g style="fill: #262626" transform="translate(101.071977 398.416719) scale(0.15 -0.15)">
       <defs>
        <path id="ArialMT-2212" d="M 3381 1997 
L 356 1997 
L 356 2522 
L 3381 2522 
L 3381 1997 
z
" transform="scale(0.015625)"/>
        <path id="ArialMT-32" d="M 3222 541 
L 3222 0 
L 194 0 
Q 188 203 259 391 
Q 375 700 629 1000 
Q 884 1300 1366 1694 
Q 2113 2306 2375 2664 
Q 2638 3022 2638 3341 
Q 2638 3675 2398 3904 
Q 2159 4134 1775 4134 
Q 1369 4134 1125 3890 
Q 881 3647 878 3216 
L 300 3275 
Q 359 3922 746 4261 
Q 1134 4600 1788 4600 
Q 2447 4600 2831 4234 
Q 3216 3869 3216 3328 
Q 3216 3053 3103 2787 
Q 2991 2522 2730 2228 
Q 2469 1934 1863 1422 
Q 1356 997 1212 845 
Q 1069 694 975 541 
L 3222 541 
z
" transform="scale(0.015625)"/>
        <path id="ArialMT-35" d="M 266 1200 
L 856 1250 
Q 922 819 1161 601 
Q 1400 384 1738 384 
Q 2144 384 2425 690 
Q 2706 997 2706 1503 
Q 2706 1984 2436 2262 
Q 2166 2541 1728 2541 
Q 1456 2541 1237 2417 
Q 1019 2294 894 2097 
L 366 2166 
L 809 4519 
L 3088 4519 
L 3088 3981 
L 1259 3981 
L 1013 2750 
Q 1425 3038 1878 3038 
Q 2478 3038 2890 2622 
Q 3303 2206 3303 1553 
Q 3303 931 2941 478 
Q 2500 -78 1738 -78 
Q 1113 -78 717 272 
Q 322 622 266 1200 
z
" transform="scale(0.015625)"/>
        <path id="ArialMT-30" d="M 266 2259 
Q 266 3072 433 3567 
Q 600 4063 929 4331 
Q 1259 4600 1759 4600 
Q 2128 4600 2406 4451 
Q 2684 4303 2865 4023 
Q 3047 3744 3150 3342 
Q 3253 2941 3253 2259 
Q 3253 1453 3087 958 
Q 2922 463 2592 192 
Q 2263 -78 1759 -78 
Q 1097 -78 719 397 
Q 266 969 266 2259 
z
M 844 2259 
Q 844 1131 1108 757 
Q 1372 384 1759 384 
Q 2147 384 2411 759 
Q 2675 1134 2675 2259 
Q 2675 3391 2411 3762 
Q 2147 4134 1753 4134 
Q 1366 4134 1134 3806 
Q 844 3388 844 2259 
z
" transform="scale(0.015625)"/>
       </defs>
       <use xlink:href="#ArialMT-2212"/>
       <use xlink:href="#ArialMT-32" x="58.398438"/>
       <use xlink:href="#ArialMT-35" x="114.013672"/>
       <use xlink:href="#ArialMT-30" x="169.628906"/>
      </g>
     </g>
    </g>
    <g id="xtick_2">
     <g id="text_2">
      <!-- 0 -->
      <g style="fill: #262626" transform="translate(180.26989 398.416719) scale(0.15 -0.15)">
       <use xlink:href="#ArialMT-30"/>
      </g>
     </g>
    </g>
    <g id="xtick_3">
     <g id="text_3">
      <!-- 250 -->
      <g style="fill: #262626" transform="translate(238.404521 398.416719) scale(0.15 -0.15)">
       <use xlink:href="#ArialMT-32"/>
       <use xlink:href="#ArialMT-35" x="55.615234"/>
       <use xlink:href="#ArialMT-30" x="111.230469"/>
      </g>
     </g>
    </g>
    <g id="xtick_4">
     <g id="text_4">
      <!-- 500 -->
      <g style="fill: #262626" transform="translate(304.880559 398.416719) scale(0.15 -0.15)">
       <use xlink:href="#ArialMT-35"/>
       <use xlink:href="#ArialMT-30" x="55.615234"/>
       <use xlink:href="#ArialMT-30" x="111.230469"/>
      </g>
     </g>
    </g>
    <g id="xtick_5">
     <g id="text_5">
      <!-- 750 -->
      <g style="fill: #262626" transform="translate(371.356596 398.416719) scale(0.15 -0.15)">
       <defs>
        <path id="ArialMT-37" d="M 303 3981 
L 303 4522 
L 3269 4522 
L 3269 4084 
Q 2831 3619 2401 2847 
Q 1972 2075 1738 1259 
Q 1569 684 1522 0 
L 944 0 
Q 953 541 1156 1306 
Q 1359 2072 1739 2783 
Q 2119 3494 2547 3981 
L 303 3981 
z
" transform="scale(0.015625)"/>
       </defs>
       <use xlink:href="#ArialMT-37"/>
       <use xlink:href="#ArialMT-35" x="55.615234"/>
       <use xlink:href="#ArialMT-30" x="111.230469"/>
      </g>
     </g>
    </g>
    <g id="xtick_6">
     <g id="text_6">
      <!-- 1000 -->
      <g style="fill: #262626" transform="translate(433.661931 398.416719) scale(0.15 -0.15)">
       <defs>
        <path id="ArialMT-31" d="M 2384 0 
L 1822 0 
L 1822 3584 
Q 1619 3391 1289 3197 
Q 959 3003 697 2906 
L 697 3450 
Q 1169 3672 1522 3987 
Q 1875 4303 2022 4600 
L 2384 4600 
L 2384 0 
z
" transform="scale(0.015625)"/>
       </defs>
       <use xlink:href="#ArialMT-31"/>
       <use xlink:href="#ArialMT-30" x="55.615234"/>
       <use xlink:href="#ArialMT-30" x="111.230469"/>
       <use xlink:href="#ArialMT-30" x="166.845703"/>
      </g>
     </g>
    </g>
    <g id="xtick_7">
     <g id="text_7">
      <!-- 1250 -->
      <g style="fill: #262626" transform="translate(500.137968 398.416719) scale(0.15 -0.15)">
       <use xlink:href="#ArialMT-31"/>
       <use xlink:href="#ArialMT-32" x="55.615234"/>
       <use xlink:href="#ArialMT-35" x="111.230469"/>
       <use xlink:href="#ArialMT-30" x="166.845703"/>
      </g>
     </g>
    </g>
    <g id="xtick_8">
     <g id="text_8">
      <!-- 1500 -->
      <g style="fill: #262626" transform="translate(566.614006 398.416719) scale(0.15 -0.15)">
       <use xlink:href="#ArialMT-31"/>
       <use xlink:href="#ArialMT-35" x="55.615234"/>
       <use xlink:href="#ArialMT-30" x="111.230469"/>
       <use xlink:href="#ArialMT-30" x="166.845703"/>
      </g>
     </g>
    </g>
    <g id="text_9">
     <!-- Time (s) -->
     <g style="fill: #262626" transform="translate(311.452891 416.3175) scale(0.15 -0.15)">
      <defs>
       <path id="ArialMT-54" d="M 1659 0 
L 1659 4041 
L 150 4041 
L 150 4581 
L 3781 4581 
L 3781 4041 
L 2266 4041 
L 2266 0 
L 1659 0 
z
" transform="scale(0.015625)"/>
       <path id="ArialMT-69" d="M 425 3934 
L 425 4581 
L 988 4581 
L 988 3934 
L 425 3934 
z
M 425 0 
L 425 3319 
L 988 3319 
L 988 0 
L 425 0 
z
" transform="scale(0.015625)"/>
       <path id="ArialMT-6d" d="M 422 0 
L 422 3319 
L 925 3319 
L 925 2853 
Q 1081 3097 1340 3245 
Q 1600 3394 1931 3394 
Q 2300 3394 2536 3241 
Q 2772 3088 2869 2813 
Q 3263 3394 3894 3394 
Q 4388 3394 4653 3120 
Q 4919 2847 4919 2278 
L 4919 0 
L 4359 0 
L 4359 2091 
Q 4359 2428 4304 2576 
Q 4250 2725 4106 2815 
Q 3963 2906 3769 2906 
Q 3419 2906 3187 2673 
Q 2956 2441 2956 1928 
L 2956 0 
L 2394 0 
L 2394 2156 
Q 2394 2531 2256 2718 
Q 2119 2906 1806 2906 
Q 1569 2906 1367 2781 
Q 1166 2656 1075 2415 
Q 984 2175 984 1722 
L 984 0 
L 422 0 
z
" transform="scale(0.015625)"/>
       <path id="ArialMT-65" d="M 2694 1069 
L 3275 997 
Q 3138 488 2766 206 
Q 2394 -75 1816 -75 
Q 1088 -75 661 373 
Q 234 822 234 1631 
Q 234 2469 665 2931 
Q 1097 3394 1784 3394 
Q 2450 3394 2872 2941 
Q 3294 2488 3294 1666 
Q 3294 1616 3291 1516 
L 816 1516 
Q 847 969 1125 678 
Q 1403 388 1819 388 
Q 2128 388 2347 550 
Q 2566 713 2694 1069 
z
M 847 1978 
L 2700 1978 
Q 2663 2397 2488 2606 
Q 2219 2931 1791 2931 
Q 1403 2931 1139 2672 
Q 875 2413 847 1978 
z
" transform="scale(0.015625)"/>
       <path id="ArialMT-20" transform="scale(0.015625)"/>
       <path id="ArialMT-28" d="M 1497 -1347 
Q 1031 -759 709 28 
Q 388 816 388 1659 
Q 388 2403 628 3084 
Q 909 3875 1497 4659 
L 1900 4659 
Q 1522 4009 1400 3731 
Q 1209 3300 1100 2831 
Q 966 2247 966 1656 
Q 966 153 1900 -1347 
L 1497 -1347 
z
" transform="scale(0.015625)"/>
       <path id="ArialMT-73" d="M 197 991 
L 753 1078 
Q 800 744 1014 566 
Q 1228 388 1613 388 
Q 2000 388 2187 545 
Q 2375 703 2375 916 
Q 2375 1106 2209 1216 
Q 2094 1291 1634 1406 
Q 1016 1563 777 1677 
Q 538 1791 414 1992 
Q 291 2194 291 2438 
Q 291 2659 392 2848 
Q 494 3038 669 3163 
Q 800 3259 1026 3326 
Q 1253 3394 1513 3394 
Q 1903 3394 2198 3281 
Q 2494 3169 2634 2976 
Q 2775 2784 2828 2463 
L 2278 2388 
Q 2241 2644 2061 2787 
Q 1881 2931 1553 2931 
Q 1166 2931 1000 2803 
Q 834 2675 834 2503 
Q 834 2394 903 2306 
Q 972 2216 1119 2156 
Q 1203 2125 1616 2013 
Q 2213 1853 2448 1751 
Q 2684 1650 2818 1456 
Q 2953 1263 2953 975 
Q 2953 694 2789 445 
Q 2625 197 2315 61 
Q 2006 -75 1616 -75 
Q 969 -75 630 194 
Q 291 463 197 991 
z
" transform="scale(0.015625)"/>
       <path id="ArialMT-29" d="M 791 -1347 
L 388 -1347 
Q 1322 153 1322 1656 
Q 1322 2244 1188 2822 
Q 1081 3291 891 3722 
Q 769 4003 388 4659 
L 791 4659 
Q 1378 3875 1659 3084 
Q 1900 2403 1900 1659 
Q 1900 816 1576 28 
Q 1253 -759 791 -1347 
z
" transform="scale(0.015625)"/>
      </defs>
      <use xlink:href="#ArialMT-54"/>
      <use xlink:href="#ArialMT-69" x="57.333984"/>
      <use xlink:href="#ArialMT-6d" x="79.550781"/>
      <use xlink:href="#ArialMT-65" x="162.851562"/>
      <use xlink:href="#ArialMT-20" x="218.466797"/>
      <use xlink:href="#ArialMT-28" x="246.25"/>
      <use xlink:href="#ArialMT-73" x="279.550781"/>
      <use xlink:href="#ArialMT-29" x="329.550781"/>
     </g>
    </g>
   </g>
   <g id="matplotlib.axis_2">
    <g id="ytick_1">
     <g id="text_10">
      <!-- 0.00 -->
      <g style="fill: #262626" transform="translate(30.878594 339.702098) scale(0.15 -0.15)">
       <defs>
        <path id="ArialMT-2e" d="M 581 0 
L 581 641 
L 1222 641 
L 1222 0 
L 581 0 
z
" transform="scale(0.015625)"/>
       </defs>
       <use xlink:href="#ArialMT-30"/>
       <use xlink:href="#ArialMT-2e" x="55.615234"/>
       <use xlink:href="#ArialMT-30" x="83.398438"/>
       <use xlink:href="#ArialMT-30" x="139.013672"/>
      </g>
     </g>
    </g>
    <g id="ytick_2">
     <g id="text_11">
      <!-- 0.05 -->
      <g style="fill: #262626" transform="translate(30.878594 269.925079) scale(0.15 -0.15)">
       <use xlink:href="#ArialMT-30"/>
       <use xlink:href="#ArialMT-2e" x="55.615234"/>
       <use xlink:href="#ArialMT-30" x="83.398438"/>
       <use xlink:href="#ArialMT-35" x="139.013672"/>
      </g>
     </g>
    </g>
    <g id="ytick_3">
     <g id="text_12">
      <!-- 0.10 -->
      <g style="fill: #262626" transform="translate(30.878594 200.148061) scale(0.15 -0.15)">
       <use xlink:href="#ArialMT-30"/>
       <use xlink:href="#ArialMT-2e" x="55.615234"/>
       <use xlink:href="#ArialMT-31" x="83.398438"/>
       <use xlink:href="#ArialMT-30" x="139.013672"/>
      </g>
     </g>
    </g>
    <g id="ytick_4">
     <g id="text_13">
      <!-- 0.15 -->
      <g style="fill: #262626" transform="translate(30.878594 130.371043) scale(0.15 -0.15)">
       <use xlink:href="#ArialMT-30"/>
       <use xlink:href="#ArialMT-2e" x="55.615234"/>
       <use xlink:href="#ArialMT-31" x="83.398438"/>
       <use xlink:href="#ArialMT-35" x="139.013672"/>
      </g>
     </g>
    </g>
    <g id="ytick_5">
     <g id="text_14">
      <!-- 0.20 -->
      <g style="fill: #262626" transform="translate(30.878594 60.594024) scale(0.15 -0.15)">
       <use xlink:href="#ArialMT-30"/>
       <use xlink:href="#ArialMT-2e" x="55.615234"/>
       <use xlink:href="#ArialMT-32" x="83.398438"/>
       <use xlink:href="#ArialMT-30" x="139.013672"/>
      </g>
     </g>
    </g>
    <g id="text_15">
     <!-- Divergence -->
     <g style="fill: #262626" transform="translate(23.721563 240.823594) rotate(-90) scale(0.15 -0.15)">
      <defs>
       <path id="ArialMT-44" d="M 494 0 
L 494 4581 
L 2072 4581 
Q 2606 4581 2888 4516 
Q 3281 4425 3559 4188 
Q 3922 3881 4101 3404 
Q 4281 2928 4281 2316 
Q 4281 1794 4159 1391 
Q 4038 988 3847 723 
Q 3656 459 3429 307 
Q 3203 156 2883 78 
Q 2563 0 2147 0 
L 494 0 
z
M 1100 541 
L 2078 541 
Q 2531 541 2789 625 
Q 3047 709 3200 863 
Q 3416 1078 3536 1442 
Q 3656 1806 3656 2325 
Q 3656 3044 3420 3430 
Q 3184 3816 2847 3947 
Q 2603 4041 2063 4041 
L 1100 4041 
L 1100 541 
z
" transform="scale(0.015625)"/>
       <path id="ArialMT-76" d="M 1344 0 
L 81 3319 
L 675 3319 
L 1388 1331 
Q 1503 1009 1600 663 
Q 1675 925 1809 1294 
L 2547 3319 
L 3125 3319 
L 1869 0 
L 1344 0 
z
" transform="scale(0.015625)"/>
       <path id="ArialMT-72" d="M 416 0 
L 416 3319 
L 922 3319 
L 922 2816 
Q 1116 3169 1280 3281 
Q 1444 3394 1641 3394 
Q 1925 3394 2219 3213 
L 2025 2691 
Q 1819 2813 1613 2813 
Q 1428 2813 1281 2702 
Q 1134 2591 1072 2394 
Q 978 2094 978 1738 
L 978 0 
L 416 0 
z
" transform="scale(0.015625)"/>
       <path id="ArialMT-67" d="M 319 -275 
L 866 -356 
Q 900 -609 1056 -725 
Q 1266 -881 1628 -881 
Q 2019 -881 2231 -725 
Q 2444 -569 2519 -288 
Q 2563 -116 2559 434 
Q 2191 0 1641 0 
Q 956 0 581 494 
Q 206 988 206 1678 
Q 206 2153 378 2554 
Q 550 2956 876 3175 
Q 1203 3394 1644 3394 
Q 2231 3394 2613 2919 
L 2613 3319 
L 3131 3319 
L 3131 450 
Q 3131 -325 2973 -648 
Q 2816 -972 2473 -1159 
Q 2131 -1347 1631 -1347 
Q 1038 -1347 672 -1080 
Q 306 -813 319 -275 
z
M 784 1719 
Q 784 1066 1043 766 
Q 1303 466 1694 466 
Q 2081 466 2343 764 
Q 2606 1063 2606 1700 
Q 2606 2309 2336 2618 
Q 2066 2928 1684 2928 
Q 1309 2928 1046 2623 
Q 784 2319 784 1719 
z
" transform="scale(0.015625)"/>
       <path id="ArialMT-6e" d="M 422 0 
L 422 3319 
L 928 3319 
L 928 2847 
Q 1294 3394 1984 3394 
Q 2284 3394 2536 3286 
Q 2788 3178 2913 3003 
Q 3038 2828 3088 2588 
Q 3119 2431 3119 2041 
L 3119 0 
L 2556 0 
L 2556 2019 
Q 2556 2363 2490 2533 
Q 2425 2703 2258 2804 
Q 2091 2906 1866 2906 
Q 1506 2906 1245 2678 
Q 984 2450 984 1813 
L 984 0 
L 422 0 
z
" transform="scale(0.015625)"/>
       <path id="ArialMT-63" d="M 2588 1216 
L 3141 1144 
Q 3050 572 2676 248 
Q 2303 -75 1759 -75 
Q 1078 -75 664 370 
Q 250 816 250 1647 
Q 250 2184 428 2587 
Q 606 2991 970 3192 
Q 1334 3394 1763 3394 
Q 2303 3394 2647 3120 
Q 2991 2847 3088 2344 
L 2541 2259 
Q 2463 2594 2264 2762 
Q 2066 2931 1784 2931 
Q 1359 2931 1093 2626 
Q 828 2322 828 1663 
Q 828 994 1084 691 
Q 1341 388 1753 388 
Q 2084 388 2306 591 
Q 2528 794 2588 1216 
z
" transform="scale(0.015625)"/>
      </defs>
      <use xlink:href="#ArialMT-44"/>
      <use xlink:href="#ArialMT-69" x="72.216797"/>
      <use xlink:href="#ArialMT-76" x="94.433594"/>
      <use xlink:href="#ArialMT-65" x="144.433594"/>
      <use xlink:href="#ArialMT-72" x="200.048828"/>
      <use xlink:href="#ArialMT-67" x="233.349609"/>
      <use xlink:href="#ArialMT-65" x="288.964844"/>
      <use xlink:href="#ArialMT-6e" x="344.580078"/>
      <use xlink:href="#ArialMT-63" x="400.195312"/>
      <use xlink:href="#ArialMT-65" x="450.195312"/>
     </g>
    </g>
   </g>
   <g id="PolyCollection_1">
    <defs>
     <path id="m4da14b013a" d="M 94.033182 -97.869719 
L 94.033182 -97.448342 
L 104.669348 -97.29694 
L 115.305514 -97.281536 
L 125.94168 -97.645025 
L 136.577846 -97.810949 
L 147.214012 -97.250021 
L 157.850178 -97.402157 
L 168.486344 -97.31264 
L 179.12251 -99.012259 
L 189.758676 -102.209969 
L 200.394842 -101.086265 
L 211.031008 -97.613783 
L 221.667174 -103.757382 
L 232.30334 -105.688657 
L 242.939506 -112.102194 
L 253.575672 -112.602036 
L 264.211838 -104.373537 
L 274.848004 -105.619796 
L 285.48417 -105.905329 
L 296.120336 -106.343943 
L 306.756502 -110.618608 
L 317.392668 -100.797649 
L 328.028834 -88.651243 
L 338.665 -78.81879 
L 349.301166 -86.274698 
L 359.937332 -103.142205 
L 370.573498 -105.673974 
L 381.209664 -109.668022 
L 391.84583 -122.893533 
L 402.481996 -129.963101 
L 413.118162 -125.829623 
L 423.754328 -127.437253 
L 434.390494 -126.423842 
L 445.02666 -117.661431 
L 455.662826 -120.810214 
L 466.298992 -123.080401 
L 476.935158 -127.166073 
L 487.571324 -127.491933 
L 498.20749 -126.028572 
L 508.843656 -125.164115 
L 519.479822 -124.959015 
L 530.115988 -124.899575 
L 540.752154 -124.59639 
L 551.38832 -124.389991 
L 562.024486 -124.763996 
L 572.660652 -125.066769 
L 583.296818 -124.704667 
L 583.296818 -136.964168 
L 583.296818 -136.964168 
L 572.660652 -136.920017 
L 562.024486 -136.175904 
L 551.38832 -135.200106 
L 540.752154 -135.172618 
L 530.115988 -135.08 
L 519.479822 -134.62543 
L 508.843656 -134.470496 
L 498.20749 -135.285753 
L 487.571324 -137.095557 
L 476.935158 -136.287806 
L 466.298992 -131.835784 
L 455.662826 -129.688251 
L 445.02666 -130.208587 
L 434.390494 -139.21912 
L 423.754328 -137.666291 
L 413.118162 -134.565434 
L 402.481996 -139.308527 
L 391.84583 -132.742292 
L 381.209664 -120.69373 
L 370.573498 -117.900813 
L 359.937332 -117.308405 
L 349.301166 -100.381556 
L 338.665 -90.22277 
L 328.028834 -98.749417 
L 317.392668 -109.586838 
L 306.756502 -118.571576 
L 296.120336 -113.991785 
L 285.48417 -113.269575 
L 274.848004 -113.001423 
L 264.211838 -110.16411 
L 253.575672 -117.788508 
L 242.939506 -118.392522 
L 232.30334 -112.168713 
L 221.667174 -109.325821 
L 211.031008 -103.14772 
L 200.394842 -106.438675 
L 189.758676 -110.292996 
L 179.12251 -102.610098 
L 168.486344 -97.86613 
L 157.850178 -97.830378 
L 147.214012 -97.667197 
L 136.577846 -98.253986 
L 125.94168 -98.142483 
L 115.305514 -97.799572 
L 104.669348 -97.783285 
L 94.033182 -97.869719 
z
" style="stroke: #00008b; stroke-opacity: 0.1"/>
    </defs>
    <g clip-path="url(#p96f86d27bf)">
     <use xlink:href="#m4da14b013a" x="0" y="432" style="fill: #00008b; fill-opacity: 0.1; stroke: #00008b; stroke-opacity: 0.1"/>
    </g>
   </g>
   <g id="PolyCollection_2">
    <defs>
     <path id="m6768bdd9ae" d="M 94.033182 -97.857254 
L 94.033182 -97.709445 
L 104.669348 -97.874313 
L 115.305514 -97.890932 
L 125.94168 -97.686731 
L 136.577846 -97.628121 
L 147.214012 -97.333259 
L 157.850178 -97.136705 
L 168.486344 -97.30505 
L 179.12251 -98.572081 
L 189.758676 -100.997727 
L 200.394842 -101.064258 
L 211.031008 -103.599404 
L 221.667174 -106.490926 
L 232.30334 -105.385295 
L 242.939506 -101.529996 
L 253.575672 -100.887544 
L 264.211838 -103.180449 
L 274.848004 -104.313395 
L 285.48417 -111.529376 
L 296.120336 -111.596765 
L 306.756502 -106.906621 
L 317.392668 -105.063399 
L 328.028834 -101.143369 
L 338.665 -102.548245 
L 349.301166 -110.113275 
L 359.937332 -111.794202 
L 370.573498 -114.303085 
L 381.209664 -117.361665 
L 391.84583 -119.75937 
L 402.481996 -113.914356 
L 413.118162 -108.485653 
L 423.754328 -113.491826 
L 434.390494 -118.629193 
L 445.02666 -115.899547 
L 455.662826 -107.438836 
L 466.298992 -103.514794 
L 476.935158 -102.449619 
L 487.571324 -101.730772 
L 498.20749 -100.789369 
L 508.843656 -100.339515 
L 519.479822 -100.095798 
L 530.115988 -100.001866 
L 540.752154 -100.45296 
L 551.38832 -100.514699 
L 562.024486 -99.948684 
L 572.660652 -99.470113 
L 583.296818 -99.540412 
L 583.296818 -100.355907 
L 583.296818 -100.355907 
L 572.660652 -100.256125 
L 562.024486 -100.762869 
L 551.38832 -101.389104 
L 540.752154 -101.37521 
L 530.115988 -100.912186 
L 519.479822 -101.104845 
L 508.843656 -101.419326 
L 498.20749 -101.91302 
L 487.571324 -102.953209 
L 476.935158 -103.799662 
L 466.298992 -104.958945 
L 455.662826 -109.319842 
L 445.02666 -119.42901 
L 434.390494 -121.691924 
L 423.754328 -116.302605 
L 413.118162 -111.469748 
L 402.481996 -117.132739 
L 391.84583 -122.857962 
L 381.209664 -120.372958 
L 370.573498 -117.371283 
L 359.937332 -114.538396 
L 349.301166 -112.624053 
L 338.665 -105.153458 
L 328.028834 -103.784631 
L 317.392668 -108.031967 
L 306.756502 -109.493884 
L 296.120336 -113.929733 
L 285.48417 -113.959432 
L 274.848004 -106.312846 
L 264.211838 -105.347621 
L 253.575672 -103.142999 
L 242.939506 -103.710439 
L 232.30334 -107.633491 
L 221.667174 -108.785386 
L 211.031008 -105.530122 
L 200.394842 -102.962048 
L 189.758676 -103.194588 
L 179.12251 -99.581332 
L 168.486344 -97.498324 
L 157.850178 -97.341168 
L 147.214012 -97.497033 
L 136.577846 -97.787672 
L 125.94168 -97.86168 
L 115.305514 -98.08174 
L 104.669348 -98.004949 
L 94.033182 -97.857254 
z
" style="stroke: #00008b; stroke-opacity: 0.1"/>
    </defs>
    <g clip-path="url(#p96f86d27bf)">
     <use xlink:href="#m6768bdd9ae" x="0" y="432" style="fill: #00008b; fill-opacity: 0.1; stroke: #00008b; stroke-opacity: 0.1"/>
    </g>
   </g>
   <g id="PathCollection_1">
    <defs>
     <path id="m0a9746905c" d="M 0 -3 
L -0.673542 -0.927051 
L -2.85317 -0.927051 
L -1.089814 0.354102 
L -1.763356 2.427051 
L -0 1.145898 
L 1.763356 2.427051 
L 1.089814 0.354102 
L 2.85317 -0.927051 
L 0.673542 -0.927051 
z
" style="stroke: #00008b"/>
    </defs>
    <g clip-path="url(#p96f86d27bf)">
     <use xlink:href="#m0a9746905c" x="242.939506" y="348.289142" style="fill: #00008b; stroke: #00008b"/>
     <use xlink:href="#m0a9746905c" x="253.575672" y="348.289142" style="fill: #00008b; stroke: #00008b"/>
     <use xlink:href="#m0a9746905c" x="402.481996" y="348.289142" style="fill: #00008b; stroke: #00008b"/>
     <use xlink:href="#m0a9746905c" x="413.118162" y="348.289142" style="fill: #00008b; stroke: #00008b"/>
     <use xlink:href="#m0a9746905c" x="423.754328" y="348.289142" style="fill: #00008b; stroke: #00008b"/>
     <use xlink:href="#m0a9746905c" x="434.390494" y="348.289142" style="fill: #00008b; stroke: #00008b"/>
     <use xlink:href="#m0a9746905c" x="455.662826" y="348.289142" style="fill: #00008b; stroke: #00008b"/>
     <use xlink:href="#m0a9746905c" x="466.298992" y="348.289142" style="fill: #00008b; stroke: #00008b"/>
     <use xlink:href="#m0a9746905c" x="476.935158" y="348.289142" style="fill: #00008b; stroke: #00008b"/>
     <use xlink:href="#m0a9746905c" x="487.571324" y="348.289142" style="fill: #00008b; stroke: #00008b"/>
     <use xlink:href="#m0a9746905c" x="498.20749" y="348.289142" style="fill: #00008b; stroke: #00008b"/>
     <use xlink:href="#m0a9746905c" x="508.843656" y="348.289142" style="fill: #00008b; stroke: #00008b"/>
     <use xlink:href="#m0a9746905c" x="519.479822" y="348.289142" style="fill: #00008b; stroke: #00008b"/>
     <use xlink:href="#m0a9746905c" x="530.115988" y="348.289142" style="fill: #00008b; stroke: #00008b"/>
     <use xlink:href="#m0a9746905c" x="540.752154" y="348.289142" style="fill: #00008b; stroke: #00008b"/>
     <use xlink:href="#m0a9746905c" x="551.38832" y="348.289142" style="fill: #00008b; stroke: #00008b"/>
     <use xlink:href="#m0a9746905c" x="562.024486" y="348.289142" style="fill: #00008b; stroke: #00008b"/>
     <use xlink:href="#m0a9746905c" x="572.660652" y="348.289142" style="fill: #00008b; stroke: #00008b"/>
     <use xlink:href="#m0a9746905c" x="583.296818" y="348.289142" style="fill: #00008b; stroke: #00008b"/>
    </g>
   </g>
   <g id="PolyCollection_3">
    <defs>
     <path id="m72cc466dc1" d="M 94.033182 -97.667788 
L 94.033182 -97.457028 
L 104.669348 -97.019268 
L 115.305514 -96.77588 
L 125.94168 -96.823348 
L 136.577846 -96.660274 
L 147.214012 -96.72935 
L 157.850178 -97.416049 
L 168.486344 -98.566993 
L 179.12251 -95.392184 
L 189.758676 -99.024906 
L 200.394842 -99.680317 
L 211.031008 -99.710375 
L 221.667174 -100.289354 
L 232.30334 -101.513829 
L 242.939506 -102.672144 
L 253.575672 -102.973553 
L 264.211838 -100.518089 
L 274.848004 -99.300529 
L 285.48417 -99.392884 
L 296.120336 -101.372023 
L 306.756502 -104.729769 
L 317.392668 -110.460034 
L 328.028834 -118.941635 
L 338.665 -127.449053 
L 349.301166 -137.409946 
L 359.937332 -148.452484 
L 370.573498 -160.675784 
L 381.209664 -174.50249 
L 391.84583 -187.114134 
L 402.481996 -201.290797 
L 413.118162 -215.357625 
L 423.754328 -229.517358 
L 434.390494 -244.498058 
L 445.02666 -260.510285 
L 455.662826 -271.014783 
L 466.298992 -276.774032 
L 476.935158 -277.72147 
L 487.571324 -279.895765 
L 498.20749 -284.612873 
L 508.843656 -289.830785 
L 519.479822 -296.017233 
L 530.115988 -300.029003 
L 540.752154 -303.091603 
L 551.38832 -306.217805 
L 562.024486 -308.160052 
L 572.660652 -310.116644 
L 583.296818 -311.456366 
L 583.296818 -388.464545 
L 583.296818 -388.464545 
L 572.660652 -386.084025 
L 562.024486 -382.628083 
L 551.38832 -379.319485 
L 540.752154 -374.383885 
L 530.115988 -369.384458 
L 519.479822 -363.316408 
L 508.843656 -354.379117 
L 498.20749 -346.218218 
L 487.571324 -338.738122 
L 476.935158 -334.037001 
L 466.298992 -330.67125 
L 455.662826 -322.575906 
L 445.02666 -309.232575 
L 434.390494 -289.246375 
L 423.754328 -270.568019 
L 413.118162 -253.405711 
L 402.481996 -236.555905 
L 391.84583 -220.56739 
L 381.209664 -205.911643 
L 370.573498 -190.004394 
L 359.937332 -174.979094 
L 349.301166 -159.532123 
L 338.665 -144.79605 
L 328.028834 -132.457245 
L 317.392668 -120.745654 
L 306.756502 -112.621927 
L 296.120336 -107.663203 
L 285.48417 -105.798479 
L 274.848004 -106.658009 
L 264.211838 -108.473924 
L 253.575672 -111.622238 
L 242.939506 -112.897565 
L 232.30334 -110.651504 
L 221.667174 -105.760564 
L 211.031008 -104.41067 
L 200.394842 -103.656511 
L 189.758676 -102.404164 
L 179.12251 -104.476775 
L 168.486344 -101.978764 
L 157.850178 -98.78784 
L 147.214012 -97.822407 
L 136.577846 -97.509358 
L 125.94168 -97.731304 
L 115.305514 -97.799043 
L 104.669348 -97.6664 
L 94.033182 -97.667788 
z
" style="stroke: #6060eb; stroke-opacity: 0.1"/>
    </defs>
    <g clip-path="url(#p96f86d27bf)">
     <use xlink:href="#m72cc466dc1" x="0" y="432" style="fill: #6060eb; fill-opacity: 0.1; stroke: #6060eb; stroke-opacity: 0.1"/>
    </g>
   </g>
   <g id="PolyCollection_4">
    <defs>
     <path id="m4f6f0b629d" d="M 94.033182 -97.729219 
L 94.033182 -97.660854 
L 104.669348 -97.781907 
L 115.305514 -97.867491 
L 125.94168 -97.853488 
L 136.577846 -97.815461 
L 147.214012 -97.805059 
L 157.850178 -97.656686 
L 168.486344 -97.228717 
L 179.12251 -90.721132 
L 189.758676 -98.293503 
L 200.394842 -98.653147 
L 211.031008 -99.394862 
L 221.667174 -100.450155 
L 232.30334 -101.428813 
L 242.939506 -100.922933 
L 253.575672 -98.11078 
L 264.211838 -97.226553 
L 274.848004 -97.680475 
L 285.48417 -98.029135 
L 296.120336 -98.577534 
L 306.756502 -98.924931 
L 317.392668 -98.794643 
L 328.028834 -99.189593 
L 338.665 -100.309955 
L 349.301166 -101.633679 
L 359.937332 -102.95893 
L 370.573498 -102.867687 
L 381.209664 -102.084417 
L 391.84583 -102.591741 
L 402.481996 -104.592886 
L 413.118162 -105.725525 
L 423.754328 -105.777358 
L 434.390494 -106.002702 
L 445.02666 -106.55799 
L 455.662826 -107.223582 
L 466.298992 -106.709033 
L 476.935158 -106.797059 
L 487.571324 -106.891086 
L 498.20749 -106.87269 
L 508.843656 -106.833536 
L 519.479822 -107.307536 
L 530.115988 -107.512005 
L 540.752154 -107.284297 
L 551.38832 -107.048819 
L 562.024486 -107.032073 
L 572.660652 -106.873402 
L 583.296818 -107.064293 
L 583.296818 -111.087846 
L 583.296818 -111.087846 
L 572.660652 -110.893587 
L 562.024486 -111.04951 
L 551.38832 -110.98292 
L 540.752154 -111.245185 
L 530.115988 -111.447569 
L 519.479822 -111.206203 
L 508.843656 -110.550944 
L 498.20749 -110.529302 
L 487.571324 -110.529162 
L 476.935158 -110.433675 
L 466.298992 -110.333335 
L 455.662826 -110.817545 
L 445.02666 -109.933384 
L 434.390494 -109.136877 
L 423.754328 -108.801191 
L 413.118162 -108.699693 
L 402.481996 -107.442751 
L 391.84583 -105.495201 
L 381.209664 -104.882778 
L 370.573498 -105.529608 
L 359.937332 -105.399737 
L 349.301166 -103.726265 
L 338.665 -102.249126 
L 328.028834 -100.942273 
L 317.392668 -100.539968 
L 306.756502 -101.211852 
L 296.120336 -101.423095 
L 285.48417 -100.725672 
L 274.848004 -99.571908 
L 264.211838 -98.854934 
L 253.575672 -100.775563 
L 242.939506 -105.812499 
L 232.30334 -105.591878 
L 221.667174 -103.607735 
L 211.031008 -100.857123 
L 200.394842 -99.678868 
L 189.758676 -98.939262 
L 179.12251 -97.041333 
L 168.486344 -97.79708 
L 157.850178 -97.916072 
L 147.214012 -98.063595 
L 136.577846 -98.152351 
L 125.94168 -98.144022 
L 115.305514 -98.121553 
L 104.669348 -98.011655 
L 94.033182 -97.729219 
z
" style="stroke: #6060eb; stroke-opacity: 0.1"/>
    </defs>
    <g clip-path="url(#p96f86d27bf)">
     <use xlink:href="#m4f6f0b629d" x="0" y="432" style="fill: #6060eb; fill-opacity: 0.1; stroke: #6060eb; stroke-opacity: 0.1"/>
    </g>
   </g>
   <g id="PathCollection_2">
    <defs>
     <path id="mc78a3e7084" d="M 0 -3 
L -0.673542 -0.927051 
L -2.85317 -0.927051 
L -1.089814 0.354102 
L -1.763356 2.427051 
L -0 1.145898 
L 1.763356 2.427051 
L 1.089814 0.354102 
L 2.85317 -0.927051 
L 0.673542 -0.927051 
z
" style="stroke: #6060eb"/>
    </defs>
    <g clip-path="url(#p96f86d27bf)">
     <use xlink:href="#mc78a3e7084" x="253.575672" y="362.244545" style="fill: #6060eb; stroke: #6060eb"/>
     <use xlink:href="#mc78a3e7084" x="306.756502" y="362.244545" style="fill: #6060eb; stroke: #6060eb"/>
     <use xlink:href="#mc78a3e7084" x="317.392668" y="362.244545" style="fill: #6060eb; stroke: #6060eb"/>
     <use xlink:href="#mc78a3e7084" x="328.028834" y="362.244545" style="fill: #6060eb; stroke: #6060eb"/>
     <use xlink:href="#mc78a3e7084" x="338.665" y="362.244545" style="fill: #6060eb; stroke: #6060eb"/>
     <use xlink:href="#mc78a3e7084" x="349.301166" y="362.244545" style="fill: #6060eb; stroke: #6060eb"/>
     <use xlink:href="#mc78a3e7084" x="359.937332" y="362.244545" style="fill: #6060eb; stroke: #6060eb"/>
     <use xlink:href="#mc78a3e7084" x="370.573498" y="362.244545" style="fill: #6060eb; stroke: #6060eb"/>
     <use xlink:href="#mc78a3e7084" x="381.209664" y="362.244545" style="fill: #6060eb; stroke: #6060eb"/>
     <use xlink:href="#mc78a3e7084" x="391.84583" y="362.244545" style="fill: #6060eb; stroke: #6060eb"/>
     <use xlink:href="#mc78a3e7084" x="402.481996" y="362.244545" style="fill: #6060eb; stroke: #6060eb"/>
     <use xlink:href="#mc78a3e7084" x="413.118162" y="362.244545" style="fill: #6060eb; stroke: #6060eb"/>
     <use xlink:href="#mc78a3e7084" x="423.754328" y="362.244545" style="fill: #6060eb; stroke: #6060eb"/>
     <use xlink:href="#mc78a3e7084" x="434.390494" y="362.244545" style="fill: #6060eb; stroke: #6060eb"/>
     <use xlink:href="#mc78a3e7084" x="445.02666" y="362.244545" style="fill: #6060eb; stroke: #6060eb"/>
     <use xlink:href="#mc78a3e7084" x="455.662826" y="362.244545" style="fill: #6060eb; stroke: #6060eb"/>
     <use xlink:href="#mc78a3e7084" x="466.298992" y="362.244545" style="fill: #6060eb; stroke: #6060eb"/>
     <use xlink:href="#mc78a3e7084" x="476.935158" y="362.244545" style="fill: #6060eb; stroke: #6060eb"/>
     <use xlink:href="#mc78a3e7084" x="487.571324" y="362.244545" style="fill: #6060eb; stroke: #6060eb"/>
     <use xlink:href="#mc78a3e7084" x="498.20749" y="362.244545" style="fill: #6060eb; stroke: #6060eb"/>
     <use xlink:href="#mc78a3e7084" x="508.843656" y="362.244545" style="fill: #6060eb; stroke: #6060eb"/>
     <use xlink:href="#mc78a3e7084" x="519.479822" y="362.244545" style="fill: #6060eb; stroke: #6060eb"/>
     <use xlink:href="#mc78a3e7084" x="530.115988" y="362.244545" style="fill: #6060eb; stroke: #6060eb"/>
     <use xlink:href="#mc78a3e7084" x="540.752154" y="362.244545" style="fill: #6060eb; stroke: #6060eb"/>
     <use xlink:href="#mc78a3e7084" x="551.38832" y="362.244545" style="fill: #6060eb; stroke: #6060eb"/>
     <use xlink:href="#mc78a3e7084" x="562.024486" y="362.244545" style="fill: #6060eb; stroke: #6060eb"/>
     <use xlink:href="#mc78a3e7084" x="572.660652" y="362.244545" style="fill: #6060eb; stroke: #6060eb"/>
     <use xlink:href="#mc78a3e7084" x="583.296818" y="362.244545" style="fill: #6060eb; stroke: #6060eb"/>
    </g>
   </g>
   <g id="line2d_1">
    <path d="M 94.033182 334.34097 
L 104.669348 334.459887 
L 115.305514 334.459446 
L 125.94168 334.106246 
L 136.577846 333.967533 
L 147.214012 334.541391 
L 157.850178 334.383732 
L 168.486344 334.410615 
L 179.12251 331.188822 
L 189.758676 325.748517 
L 200.394842 328.23753 
L 211.031008 331.619248 
L 221.667174 325.458398 
L 232.30334 323.071315 
L 242.939506 316.752642 
L 253.575672 316.804728 
L 264.211838 324.731176 
L 274.848004 322.689391 
L 285.48417 322.412548 
L 296.120336 321.832136 
L 306.756502 317.404908 
L 317.392668 326.807756 
L 328.028834 338.29967 
L 338.665 347.47922 
L 349.301166 338.671873 
L 359.937332 321.774695 
L 370.573498 320.212607 
L 381.209664 316.819124 
L 391.84583 304.182087 
L 402.481996 297.364186 
L 413.118162 301.802472 
L 423.754328 299.448228 
L 434.390494 299.178519 
L 445.02666 308.064991 
L 455.662826 306.750767 
L 466.298992 304.541908 
L 476.935158 300.273061 
L 487.571324 299.706255 
L 498.20749 301.342838 
L 508.843656 302.182694 
L 519.479822 302.207778 
L 530.115988 302.010213 
L 540.752154 302.115496 
L 551.38832 302.204951 
L 562.024486 301.53005 
L 572.660652 301.006607 
L 583.296818 301.165583 
" clip-path="url(#p96f86d27bf)" style="fill: none; stroke: #00008b; stroke-width: 2; stroke-linecap: round"/>
   </g>
   <g id="line2d_2">
    <path d="M 94.033182 334.216651 
L 104.669348 334.060369 
L 115.305514 334.013664 
L 125.94168 334.225795 
L 136.577846 334.292104 
L 147.214012 334.584854 
L 157.850178 334.761063 
L 168.486344 334.598313 
L 179.12251 332.923294 
L 189.758676 329.903843 
L 200.394842 329.986847 
L 211.031008 327.435237 
L 221.667174 324.361844 
L 232.30334 325.490607 
L 242.939506 329.379783 
L 253.575672 329.984729 
L 264.211838 327.735965 
L 274.848004 326.68688 
L 285.48417 319.255596 
L 296.120336 319.236751 
L 306.756502 323.799747 
L 317.392668 325.452317 
L 328.028834 329.536 
L 338.665 328.149149 
L 349.301166 320.631336 
L 359.937332 318.833701 
L 370.573498 316.162816 
L 381.209664 313.132688 
L 391.84583 310.691334 
L 402.481996 316.476453 
L 413.118162 322.022299 
L 423.754328 317.102785 
L 434.390494 311.839441 
L 445.02666 314.335722 
L 455.662826 323.620661 
L 466.298992 327.763131 
L 476.935158 328.875359 
L 487.571324 329.65801 
L 498.20749 330.648805 
L 508.843656 331.12058 
L 519.479822 331.399679 
L 530.115988 331.542974 
L 540.752154 331.085915 
L 551.38832 331.048098 
L 562.024486 331.644223 
L 572.660652 332.136881 
L 583.296818 332.05184 
" clip-path="url(#p96f86d27bf)" style="fill: none; stroke-dasharray: 7.4,3.2; stroke-dashoffset: 0; stroke: #00008b; stroke-width: 2"/>
   </g>
   <g id="line2d_3">
    <path d="M 184.440593 378.18 
L 184.440593 27.6 
" clip-path="url(#p96f86d27bf)" style="fill: none; stroke-dasharray: 5.55,2.4; stroke-dashoffset: 0; stroke: #1a1a1a; stroke-width: 1.5"/>
   </g>
   <g id="line2d_4">
    <path d="M 450.344743 378.18 
L 450.344743 27.6 
" clip-path="url(#p96f86d27bf)" style="fill: none; stroke-dasharray: 5.55,2.4; stroke-dashoffset: 0; stroke: #1a1a1a; stroke-width: 1.5"/>
   </g>
   <g id="line2d_5">
    <path d="M 94.033182 334.437592 
L 104.669348 334.657166 
L 115.305514 334.712538 
L 125.94168 334.722674 
L 136.577846 334.915184 
L 147.214012 334.724121 
L 157.850178 333.898056 
L 168.486344 331.727121 
L 179.12251 332.065521 
L 189.758676 331.285465 
L 200.394842 330.331586 
L 211.031008 329.939477 
L 221.667174 328.975041 
L 232.30334 325.917334 
L 242.939506 324.215146 
L 253.575672 324.702105 
L 264.211838 327.503993 
L 274.848004 329.020731 
L 285.48417 329.404318 
L 296.120336 327.482387 
L 306.756502 323.324152 
L 317.392668 316.397156 
L 328.028834 306.30056 
L 338.665 295.877448 
L 349.301166 283.528966 
L 359.937332 270.284211 
L 370.573498 256.659911 
L 381.209664 241.792934 
L 391.84583 228.159238 
L 402.481996 213.076649 
L 413.118162 197.618332 
L 423.754328 181.957311 
L 434.390494 165.127784 
L 445.02666 147.12857 
L 455.662826 135.204656 
L 466.298992 128.277359 
L 476.935158 126.120765 
L 487.571324 122.683056 
L 498.20749 116.584454 
L 508.843656 109.895049 
L 519.479822 102.33318 
L 530.115988 97.29327 
L 540.752154 93.262256 
L 551.38832 89.231355 
L 562.024486 86.605933 
L 572.660652 83.899666 
L 583.296818 82.039544 
" clip-path="url(#p96f86d27bf)" style="fill: none; stroke: #6060eb; stroke-width: 2; stroke-linecap: round"/>
   </g>
   <g id="line2d_6">
    <path d="M 94.033182 334.304963 
L 104.669348 334.103219 
L 115.305514 334.005478 
L 125.94168 334.001245 
L 136.577846 334.016094 
L 147.214012 334.065673 
L 157.850178 334.213621 
L 168.486344 334.487102 
L 179.12251 338.118768 
L 189.758676 333.383617 
L 200.394842 332.833992 
L 211.031008 331.874007 
L 221.667174 329.971055 
L 232.30334 328.489655 
L 242.939506 328.632284 
L 253.575672 332.556829 
L 264.211838 333.959256 
L 274.848004 333.373809 
L 285.48417 332.622596 
L 296.120336 331.999685 
L 306.756502 331.931608 
L 317.392668 332.332694 
L 328.028834 331.934067 
L 338.665 330.72046 
L 349.301166 329.320028 
L 359.937332 327.820666 
L 370.573498 327.801353 
L 381.209664 328.516402 
L 391.84583 327.956529 
L 402.481996 325.982182 
L 413.118162 324.787391 
L 423.754328 324.710725 
L 434.390494 324.43021 
L 445.02666 323.754313 
L 455.662826 322.979437 
L 466.298992 323.478816 
L 476.935158 323.384633 
L 487.571324 323.289876 
L 498.20749 323.299004 
L 508.843656 323.30776 
L 519.479822 322.74313 
L 530.115988 322.520213 
L 540.752154 322.735259 
L 551.38832 322.98413 
L 562.024486 322.959208 
L 572.660652 323.116506 
L 583.296818 322.923931 
" clip-path="url(#p96f86d27bf)" style="fill: none; stroke-dasharray: 7.4,3.2; stroke-dashoffset: 0; stroke: #6060eb; stroke-width: 2"/>
   </g>
   <g id="line2d_7">
    <path d="M 184.440593 378.18 
L 184.440593 27.6 
" clip-path="url(#p96f86d27bf)" style="fill: none; stroke-dasharray: 5.55,2.4; stroke-dashoffset: 0; stroke: #1a1a1a; stroke-width: 1.5"/>
   </g>
   <g id="line2d_8">
    <path d="M 450.344743 378.18 
L 450.344743 27.6 
" clip-path="url(#p96f86d27bf)" style="fill: none; stroke-dasharray: 5.55,2.4; stroke-dashoffset: 0; stroke: #1a1a1a; stroke-width: 1.5"/>
   </g>
   <g id="patch_3">
    <path d="M 69.57 378.18 
L 69.57 27.6 
" style="fill: none; stroke: #cccccc; stroke-width: 1.5; stroke-linejoin: miter; stroke-linecap: square"/>
   </g>
   <g id="patch_4">
    <path d="M 69.57 378.18 
L 607.76 378.18 
" style="fill: none; stroke: #cccccc; stroke-width: 1.5; stroke-linejoin: miter; stroke-linecap: square"/>
   </g>
   <g id="text_16">
    <!-- Divergence Comparison: Original vs Shuffled -->
    <g style="fill: #262626" transform="translate(219.055 21.6) scale(0.12 -0.12)">
     <defs>
      <path id="ArialMT-43" d="M 3763 1606 
L 4369 1453 
Q 4178 706 3683 314 
Q 3188 -78 2472 -78 
Q 1731 -78 1267 223 
Q 803 525 561 1097 
Q 319 1669 319 2325 
Q 319 3041 592 3573 
Q 866 4106 1370 4382 
Q 1875 4659 2481 4659 
Q 3169 4659 3637 4309 
Q 4106 3959 4291 3325 
L 3694 3184 
Q 3534 3684 3231 3912 
Q 2928 4141 2469 4141 
Q 1941 4141 1586 3887 
Q 1231 3634 1087 3207 
Q 944 2781 944 2328 
Q 944 1744 1114 1308 
Q 1284 872 1643 656 
Q 2003 441 2422 441 
Q 2931 441 3284 734 
Q 3638 1028 3763 1606 
z
" transform="scale(0.015625)"/>
      <path id="ArialMT-6f" d="M 213 1659 
Q 213 2581 725 3025 
Q 1153 3394 1769 3394 
Q 2453 3394 2887 2945 
Q 3322 2497 3322 1706 
Q 3322 1066 3130 698 
Q 2938 331 2570 128 
Q 2203 -75 1769 -75 
Q 1072 -75 642 372 
Q 213 819 213 1659 
z
M 791 1659 
Q 791 1022 1069 705 
Q 1347 388 1769 388 
Q 2188 388 2466 706 
Q 2744 1025 2744 1678 
Q 2744 2294 2464 2611 
Q 2184 2928 1769 2928 
Q 1347 2928 1069 2612 
Q 791 2297 791 1659 
z
" transform="scale(0.015625)"/>
      <path id="ArialMT-70" d="M 422 -1272 
L 422 3319 
L 934 3319 
L 934 2888 
Q 1116 3141 1344 3267 
Q 1572 3394 1897 3394 
Q 2322 3394 2647 3175 
Q 2972 2956 3137 2557 
Q 3303 2159 3303 1684 
Q 3303 1175 3120 767 
Q 2938 359 2589 142 
Q 2241 -75 1856 -75 
Q 1575 -75 1351 44 
Q 1128 163 984 344 
L 984 -1272 
L 422 -1272 
z
M 931 1641 
Q 931 1000 1190 694 
Q 1450 388 1819 388 
Q 2194 388 2461 705 
Q 2728 1022 2728 1688 
Q 2728 2322 2467 2637 
Q 2206 2953 1844 2953 
Q 1484 2953 1207 2617 
Q 931 2281 931 1641 
z
" transform="scale(0.015625)"/>
      <path id="ArialMT-61" d="M 2588 409 
Q 2275 144 1986 34 
Q 1697 -75 1366 -75 
Q 819 -75 525 192 
Q 231 459 231 875 
Q 231 1119 342 1320 
Q 453 1522 633 1644 
Q 813 1766 1038 1828 
Q 1203 1872 1538 1913 
Q 2219 1994 2541 2106 
Q 2544 2222 2544 2253 
Q 2544 2597 2384 2738 
Q 2169 2928 1744 2928 
Q 1347 2928 1158 2789 
Q 969 2650 878 2297 
L 328 2372 
Q 403 2725 575 2942 
Q 747 3159 1072 3276 
Q 1397 3394 1825 3394 
Q 2250 3394 2515 3294 
Q 2781 3194 2906 3042 
Q 3031 2891 3081 2659 
Q 3109 2516 3109 2141 
L 3109 1391 
Q 3109 606 3145 398 
Q 3181 191 3288 0 
L 2700 0 
Q 2613 175 2588 409 
z
M 2541 1666 
Q 2234 1541 1622 1453 
Q 1275 1403 1131 1340 
Q 988 1278 909 1158 
Q 831 1038 831 891 
Q 831 666 1001 516 
Q 1172 366 1500 366 
Q 1825 366 2078 508 
Q 2331 650 2450 897 
Q 2541 1088 2541 1459 
L 2541 1666 
z
" transform="scale(0.015625)"/>
      <path id="ArialMT-3a" d="M 578 2678 
L 578 3319 
L 1219 3319 
L 1219 2678 
L 578 2678 
z
M 578 0 
L 578 641 
L 1219 641 
L 1219 0 
L 578 0 
z
" transform="scale(0.015625)"/>
      <path id="ArialMT-4f" d="M 309 2231 
Q 309 3372 921 4017 
Q 1534 4663 2503 4663 
Q 3138 4663 3647 4359 
Q 4156 4056 4423 3514 
Q 4691 2972 4691 2284 
Q 4691 1588 4409 1038 
Q 4128 488 3612 205 
Q 3097 -78 2500 -78 
Q 1853 -78 1343 234 
Q 834 547 571 1087 
Q 309 1628 309 2231 
z
M 934 2222 
Q 934 1394 1379 917 
Q 1825 441 2497 441 
Q 3181 441 3623 922 
Q 4066 1403 4066 2288 
Q 4066 2847 3877 3264 
Q 3688 3681 3323 3911 
Q 2959 4141 2506 4141 
Q 1863 4141 1398 3698 
Q 934 3256 934 2222 
z
" transform="scale(0.015625)"/>
      <path id="ArialMT-6c" d="M 409 0 
L 409 4581 
L 972 4581 
L 972 0 
L 409 0 
z
" transform="scale(0.015625)"/>
      <path id="ArialMT-53" d="M 288 1472 
L 859 1522 
Q 900 1178 1048 958 
Q 1197 738 1509 602 
Q 1822 466 2213 466 
Q 2559 466 2825 569 
Q 3091 672 3220 851 
Q 3350 1031 3350 1244 
Q 3350 1459 3225 1620 
Q 3100 1781 2813 1891 
Q 2628 1963 1997 2114 
Q 1366 2266 1113 2400 
Q 784 2572 623 2826 
Q 463 3081 463 3397 
Q 463 3744 659 4045 
Q 856 4347 1234 4503 
Q 1613 4659 2075 4659 
Q 2584 4659 2973 4495 
Q 3363 4331 3572 4012 
Q 3781 3694 3797 3291 
L 3216 3247 
Q 3169 3681 2898 3903 
Q 2628 4125 2100 4125 
Q 1550 4125 1298 3923 
Q 1047 3722 1047 3438 
Q 1047 3191 1225 3031 
Q 1400 2872 2139 2705 
Q 2878 2538 3153 2413 
Q 3553 2228 3743 1945 
Q 3934 1663 3934 1294 
Q 3934 928 3725 604 
Q 3516 281 3123 101 
Q 2731 -78 2241 -78 
Q 1619 -78 1198 103 
Q 778 284 539 648 
Q 300 1013 288 1472 
z
" transform="scale(0.015625)"/>
      <path id="ArialMT-68" d="M 422 0 
L 422 4581 
L 984 4581 
L 984 2938 
Q 1378 3394 1978 3394 
Q 2347 3394 2619 3248 
Q 2891 3103 3008 2847 
Q 3125 2591 3125 2103 
L 3125 0 
L 2563 0 
L 2563 2103 
Q 2563 2525 2380 2717 
Q 2197 2909 1863 2909 
Q 1613 2909 1392 2779 
Q 1172 2650 1078 2428 
Q 984 2206 984 1816 
L 984 0 
L 422 0 
z
" transform="scale(0.015625)"/>
      <path id="ArialMT-75" d="M 2597 0 
L 2597 488 
Q 2209 -75 1544 -75 
Q 1250 -75 995 37 
Q 741 150 617 320 
Q 494 491 444 738 
Q 409 903 409 1263 
L 409 3319 
L 972 3319 
L 972 1478 
Q 972 1038 1006 884 
Q 1059 663 1231 536 
Q 1403 409 1656 409 
Q 1909 409 2131 539 
Q 2353 669 2445 892 
Q 2538 1116 2538 1541 
L 2538 3319 
L 3100 3319 
L 3100 0 
L 2597 0 
z
" transform="scale(0.015625)"/>
      <path id="ArialMT-66" d="M 556 0 
L 556 2881 
L 59 2881 
L 59 3319 
L 556 3319 
L 556 3672 
Q 556 4006 616 4169 
Q 697 4388 901 4523 
Q 1106 4659 1475 4659 
Q 1713 4659 2000 4603 
L 1916 4113 
Q 1741 4144 1584 4144 
Q 1328 4144 1222 4034 
Q 1116 3925 1116 3625 
L 1116 3319 
L 1763 3319 
L 1763 2881 
L 1116 2881 
L 1116 0 
L 556 0 
z
" transform="scale(0.015625)"/>
      <path id="ArialMT-64" d="M 2575 0 
L 2575 419 
Q 2259 -75 1647 -75 
Q 1250 -75 917 144 
Q 584 363 401 755 
Q 219 1147 219 1656 
Q 219 2153 384 2558 
Q 550 2963 881 3178 
Q 1213 3394 1622 3394 
Q 1922 3394 2156 3267 
Q 2391 3141 2538 2938 
L 2538 4581 
L 3097 4581 
L 3097 0 
L 2575 0 
z
M 797 1656 
Q 797 1019 1065 703 
Q 1334 388 1700 388 
Q 2069 388 2326 689 
Q 2584 991 2584 1609 
Q 2584 2291 2321 2609 
Q 2059 2928 1675 2928 
Q 1300 2928 1048 2622 
Q 797 2316 797 1656 
z
" transform="scale(0.015625)"/>
     </defs>
     <use xlink:href="#ArialMT-44"/>
     <use xlink:href="#ArialMT-69" x="72.216797"/>
     <use xlink:href="#ArialMT-76" x="94.433594"/>
     <use xlink:href="#ArialMT-65" x="144.433594"/>
     <use xlink:href="#ArialMT-72" x="200.048828"/>
     <use xlink:href="#ArialMT-67" x="233.349609"/>
     <use xlink:href="#ArialMT-65" x="288.964844"/>
     <use xlink:href="#ArialMT-6e" x="344.580078"/>
     <use xlink:href="#ArialMT-63" x="400.195312"/>
     <use xlink:href="#ArialMT-65" x="450.195312"/>
     <use xlink:href="#ArialMT-20" x="505.810547"/>
     <use xlink:href="#ArialMT-43" x="533.59375"/>
     <use xlink:href="#ArialMT-6f" x="605.810547"/>
     <use xlink:href="#ArialMT-6d" x="661.425781"/>
     <use xlink:href="#ArialMT-70" x="744.726562"/>
     <use xlink:href="#ArialMT-61" x="800.341797"/>
     <use xlink:href="#ArialMT-72" x="855.957031"/>
     <use xlink:href="#ArialMT-69" x="889.257812"/>
     <use xlink:href="#ArialMT-73" x="911.474609"/>
     <use xlink:href="#ArialMT-6f" x="961.474609"/>
     <use xlink:href="#ArialMT-6e" x="1017.089844"/>
     <use xlink:href="#ArialMT-3a" x="1072.705078"/>
     <use xlink:href="#ArialMT-20" x="1100.488281"/>
     <use xlink:href="#ArialMT-4f" x="1128.271484"/>
     <use xlink:href="#ArialMT-72" x="1206.054688"/>
     <use xlink:href="#ArialMT-69" x="1239.355469"/>
     <use xlink:href="#ArialMT-67" x="1261.572266"/>
     <use xlink:href="#ArialMT-69" x="1317.1875"/>
     <use xlink:href="#ArialMT-6e" x="1339.404297"/>
     <use xlink:href="#ArialMT-61" x="1395.019531"/>
     <use xlink:href="#ArialMT-6c" x="1450.634766"/>
     <use xlink:href="#ArialMT-20" x="1472.851562"/>
     <use xlink:href="#ArialMT-76" x="1500.634766"/>
     <use xlink:href="#ArialMT-73" x="1550.634766"/>
     <use xlink:href="#ArialMT-20" x="1600.634766"/>
     <use xlink:href="#ArialMT-53" x="1628.417969"/>
     <use xlink:href="#ArialMT-68" x="1695.117188"/>
     <use xlink:href="#ArialMT-75" x="1750.732422"/>
     <use xlink:href="#ArialMT-66" x="1806.347656"/>
     <use xlink:href="#ArialMT-66" x="1832.380859"/>
     <use xlink:href="#ArialMT-6c" x="1860.164062"/>
     <use xlink:href="#ArialMT-65" x="1882.380859"/>
     <use xlink:href="#ArialMT-64" x="1937.996094"/>
    </g>
   </g>
   <g id="legend_1">
    <g id="patch_5">
     <path d="M 615.46 259.555469 
L 705.061875 259.555469 
Q 707.261875 259.555469 707.261875 257.355469 
L 707.261875 148.424531 
Q 707.261875 146.224531 705.061875 146.224531 
L 615.46 146.224531 
Q 613.26 146.224531 613.26 148.424531 
L 613.26 257.355469 
Q 613.26 259.555469 615.46 259.555469 
z
" style="fill: #ffffff; opacity: 0.8; stroke: #cccccc; stroke-linejoin: miter"/>
    </g>
    <g id="line2d_9">
     <path d="M 617.66 154.789062 
L 628.66 154.789062 
L 639.66 154.789062 
" style="fill: none; stroke: #00008b; stroke-width: 2; stroke-linecap: round"/>
    </g>
    <g id="text_17">
     <!-- Original -->
     <g style="fill: #262626" transform="translate(648.46 158.639062) scale(0.11 -0.11)">
      <use xlink:href="#ArialMT-4f"/>
      <use xlink:href="#ArialMT-72" x="77.783203"/>
      <use xlink:href="#ArialMT-69" x="111.083984"/>
      <use xlink:href="#ArialMT-67" x="133.300781"/>
      <use xlink:href="#ArialMT-69" x="188.916016"/>
      <use xlink:href="#ArialMT-6e" x="211.132812"/>
      <use xlink:href="#ArialMT-61" x="266.748047"/>
      <use xlink:href="#ArialMT-6c" x="322.363281"/>
     </g>
    </g>
    <g id="line2d_10">
     <path d="M 617.66 170.61875 
L 628.66 170.61875 
L 639.66 170.61875 
" style="fill: none; stroke-dasharray: 7.4,3.2; stroke-dashoffset: 0; stroke: #00008b; stroke-width: 2"/>
    </g>
    <g id="text_18">
     <!-- Original -->
     <g style="fill: #262626" transform="translate(648.46 174.46875) scale(0.11 -0.11)">
      <use xlink:href="#ArialMT-4f"/>
      <use xlink:href="#ArialMT-72" x="77.783203"/>
      <use xlink:href="#ArialMT-69" x="111.083984"/>
      <use xlink:href="#ArialMT-67" x="133.300781"/>
      <use xlink:href="#ArialMT-69" x="188.916016"/>
      <use xlink:href="#ArialMT-6e" x="211.132812"/>
      <use xlink:href="#ArialMT-61" x="266.748047"/>
      <use xlink:href="#ArialMT-6c" x="322.363281"/>
     </g>
    </g>
    <g id="PathCollection_3">
     <g>
      <use xlink:href="#m0a9746905c" x="628.66" y="187.302656" style="fill: #00008b; stroke: #00008b"/>
     </g>
    </g>
    <g id="text_19">
     <!-- p &lt; 0.001 -->
     <g style="fill: #262626" transform="translate(648.46 190.190156) scale(0.11 -0.11)">
      <defs>
       <path id="ArialMT-3c" d="M 350 2003 
L 350 2528 
L 3384 3809 
L 3384 3250 
L 978 2263 
L 3384 1266 
L 3384 706 
L 350 2003 
z
" transform="scale(0.015625)"/>
      </defs>
      <use xlink:href="#ArialMT-70"/>
      <use xlink:href="#ArialMT-20" x="55.615234"/>
      <use xlink:href="#ArialMT-3c" x="83.398438"/>
      <use xlink:href="#ArialMT-20" x="141.796875"/>
      <use xlink:href="#ArialMT-30" x="169.580078"/>
      <use xlink:href="#ArialMT-2e" x="225.195312"/>
      <use xlink:href="#ArialMT-30" x="252.978516"/>
      <use xlink:href="#ArialMT-30" x="308.59375"/>
      <use xlink:href="#ArialMT-31" x="364.208984"/>
     </g>
    </g>
    <g id="line2d_11">
     <path d="M 617.66 201.9 
L 628.66 201.9 
L 639.66 201.9 
" style="fill: none; stroke-dasharray: 5.55,2.4; stroke-dashoffset: 0; stroke: #1a1a1a; stroke-width: 1.5"/>
    </g>
    <g id="text_20">
     <!-- Stim Onset -->
     <g style="fill: #262626" transform="translate(648.46 205.75) scale(0.11 -0.11)">
      <defs>
       <path id="ArialMT-74" d="M 1650 503 
L 1731 6 
Q 1494 -44 1306 -44 
Q 1000 -44 831 53 
Q 663 150 594 308 
Q 525 466 525 972 
L 525 2881 
L 113 2881 
L 113 3319 
L 525 3319 
L 525 4141 
L 1084 4478 
L 1084 3319 
L 1650 3319 
L 1650 2881 
L 1084 2881 
L 1084 941 
Q 1084 700 1114 631 
Q 1144 563 1211 522 
Q 1278 481 1403 481 
Q 1497 481 1650 503 
z
" transform="scale(0.015625)"/>
      </defs>
      <use xlink:href="#ArialMT-53"/>
      <use xlink:href="#ArialMT-74" x="66.699219"/>
      <use xlink:href="#ArialMT-69" x="94.482422"/>
      <use xlink:href="#ArialMT-6d" x="116.699219"/>
      <use xlink:href="#ArialMT-20" x="200"/>
      <use xlink:href="#ArialMT-4f" x="227.783203"/>
      <use xlink:href="#ArialMT-6e" x="305.566406"/>
      <use xlink:href="#ArialMT-73" x="361.181641"/>
      <use xlink:href="#ArialMT-65" x="411.181641"/>
      <use xlink:href="#ArialMT-74" x="466.796875"/>
     </g>
    </g>
    <g id="line2d_12">
     <path d="M 617.66 217.459844 
L 628.66 217.459844 
L 639.66 217.459844 
" style="fill: none; stroke-dasharray: 5.55,2.4; stroke-dashoffset: 0; stroke: #1a1a1a; stroke-width: 1.5"/>
    </g>
    <g id="text_21">
     <!-- Stim End -->
     <g style="fill: #262626" transform="translate(648.46 221.309844) scale(0.11 -0.11)">
      <defs>
       <path id="ArialMT-45" d="M 506 0 
L 506 4581 
L 3819 4581 
L 3819 4041 
L 1113 4041 
L 1113 2638 
L 3647 2638 
L 3647 2100 
L 1113 2100 
L 1113 541 
L 3925 541 
L 3925 0 
L 506 0 
z
" transform="scale(0.015625)"/>
      </defs>
      <use xlink:href="#ArialMT-53"/>
      <use xlink:href="#ArialMT-74" x="66.699219"/>
      <use xlink:href="#ArialMT-69" x="94.482422"/>
      <use xlink:href="#ArialMT-6d" x="116.699219"/>
      <use xlink:href="#ArialMT-20" x="200"/>
      <use xlink:href="#ArialMT-45" x="227.783203"/>
      <use xlink:href="#ArialMT-6e" x="294.482422"/>
      <use xlink:href="#ArialMT-64" x="350.097656"/>
     </g>
    </g>
    <g id="line2d_13">
     <path d="M 617.66 233.160625 
L 628.66 233.160625 
L 639.66 233.160625 
" style="fill: none; stroke: #6060eb; stroke-width: 2; stroke-linecap: round"/>
    </g>
    <g id="text_22">
     <!-- Original -->
     <g style="fill: #262626" transform="translate(648.46 237.010625) scale(0.11 -0.11)">
      <use xlink:href="#ArialMT-4f"/>
      <use xlink:href="#ArialMT-72" x="77.783203"/>
      <use xlink:href="#ArialMT-69" x="111.083984"/>
      <use xlink:href="#ArialMT-67" x="133.300781"/>
      <use xlink:href="#ArialMT-69" x="188.916016"/>
      <use xlink:href="#ArialMT-6e" x="211.132812"/>
      <use xlink:href="#ArialMT-61" x="266.748047"/>
      <use xlink:href="#ArialMT-6c" x="322.363281"/>
     </g>
    </g>
    <g id="line2d_14">
     <path d="M 617.66 248.990312 
L 628.66 248.990312 
L 639.66 248.990312 
" style="fill: none; stroke-dasharray: 7.4,3.2; stroke-dashoffset: 0; stroke: #6060eb; stroke-width: 2"/>
    </g>
    <g id="text_23">
     <!-- Original -->
     <g style="fill: #262626" transform="translate(648.46 252.840312) scale(0.11 -0.11)">
      <use xlink:href="#ArialMT-4f"/>
      <use xlink:href="#ArialMT-72" x="77.783203"/>
      <use xlink:href="#ArialMT-69" x="111.083984"/>
      <use xlink:href="#ArialMT-67" x="133.300781"/>
      <use xlink:href="#ArialMT-69" x="188.916016"/>
      <use xlink:href="#ArialMT-6e" x="211.132812"/>
      <use xlink:href="#ArialMT-61" x="266.748047"/>
      <use xlink:href="#ArialMT-6c" x="322.363281"/>
     </g>
    </g>
   </g>
  </g>
 </g>
 <defs>
  <clipPath id="p96f86d27bf">
   <rect x="69.57" y="27.6" width="538.19" height="350.58"/>
  </clipPath>
 </defs>
</svg>
