<?xml version="1.0" encoding="utf-8" standalone="no"?>
<!DOCTYPE svg PUBLIC "-//W3C//DTD SVG 1.1//EN"
  "http://www.w3.org/Graphics/SVG/1.1/DTD/svg11.dtd">
<svg xmlns:xlink="http://www.w3.org/1999/xlink" width="720pt" height="432pt" viewBox="0 0 720 432" xmlns="http://www.w3.org/2000/svg" version="1.1">
 <metadata>
  <rdf:RDF xmlns:dc="http://purl.org/dc/elements/1.1/" xmlns:cc="http://creativecommons.org/ns#" xmlns:rdf="http://www.w3.org/1999/02/22-rdf-syntax-ns#">
   <cc:Work>
    <dc:type rdf:resource="http://purl.org/dc/dcmitype/StillImage"/>
    <dc:date>2025-08-03T18:49:27.042892</dc:date>
    <dc:format>image/svg+xml</dc:format>
    <dc:creator>
     <cc:Agent>
      <dc:title>Matplotlib v3.9.4, https://matplotlib.org/</dc:title>
     </cc:Agent>
    </dc:creator>
   </cc:Work>
  </rdf:RDF>
 </metadata>
 <defs>
  <style type="text/css">*{stroke-linejoin: round; stroke-linecap: butt}</style>
 </defs>
 <g id="figure_1">
  <g id="patch_1">
   <path d="M 0 432 
L 720 432 
L 720 0 
L 0 0 
z
" style="fill: #ffffff"/>
  </g>
  <g id="axes_1">
   <g id="patch_2">
    <path d="M 78.46 377.54 
L 607.44 377.54 
L 607.44 26.96 
L 78.46 26.96 
L 78.46 377.54 
z
" style="fill: none"/>
   </g>
   <g id="matplotlib.axis_1">
    <g id="xtick_1">
     <g id="text_1">
      <!-- 0 -->
      <g style="fill: #262626" transform="translate(128.389524 397.776719) scale(0.15 -0.15)">
       <defs>
        <path id="ArialMT-30" d="M 266 2259 
Q 266 3072 433 3567 
Q 600 4063 929 4331 
Q 1259 4600 1759 4600 
Q 2128 4600 2406 4451 
Q 2684 4303 2865 4023 
Q 3047 3744 3150 3342 
Q 3253 2941 3253 2259 
Q 3253 1453 3087 958 
Q 2922 463 2592 192 
Q 2263 -78 1759 -78 
Q 1097 -78 719 397 
Q 266 969 266 2259 
z
M 844 2259 
Q 844 1131 1108 757 
Q 1372 384 1759 384 
Q 2147 384 2411 759 
Q 2675 1134 2675 2259 
Q 2675 3391 2411 3762 
Q 2147 4134 1753 4134 
Q 1366 4134 1134 3806 
Q 844 3388 844 2259 
z
" transform="scale(0.015625)"/>
       </defs>
       <use xlink:href="#ArialMT-30"/>
      </g>
     </g>
    </g>
    <g id="xtick_2">
     <g id="text_2">
      <!-- 200 -->
      <g style="fill: #262626" transform="translate(180.159482 397.776719) scale(0.15 -0.15)">
       <defs>
        <path id="ArialMT-32" d="M 3222 541 
L 3222 0 
L 194 0 
Q 188 203 259 391 
Q 375 700 629 1000 
Q 884 1300 1366 1694 
Q 2113 2306 2375 2664 
Q 2638 3022 2638 3341 
Q 2638 3675 2398 3904 
Q 2159 4134 1775 4134 
Q 1369 4134 1125 3890 
Q 881 3647 878 3216 
L 300 3275 
Q 359 3922 746 4261 
Q 1134 4600 1788 4600 
Q 2447 4600 2831 4234 
Q 3216 3869 3216 3328 
Q 3216 3053 3103 2787 
Q 2991 2522 2730 2228 
Q 2469 1934 1863 1422 
Q 1356 997 1212 845 
Q 1069 694 975 541 
L 3222 541 
z
" transform="scale(0.015625)"/>
       </defs>
       <use xlink:href="#ArialMT-32"/>
       <use xlink:href="#ArialMT-30" x="55.615234"/>
       <use xlink:href="#ArialMT-30" x="111.230469"/>
      </g>
     </g>
    </g>
    <g id="xtick_3">
     <g id="text_3">
      <!-- 400 -->
      <g style="fill: #262626" transform="translate(240.270845 397.776719) scale(0.15 -0.15)">
       <defs>
        <path id="ArialMT-34" d="M 2069 0 
L 2069 1097 
L 81 1097 
L 81 1613 
L 2172 4581 
L 2631 4581 
L 2631 1613 
L 3250 1613 
L 3250 1097 
L 2631 1097 
L 2631 0 
L 2069 0 
z
M 2069 1613 
L 2069 3678 
L 634 1613 
L 2069 1613 
z
" transform="scale(0.015625)"/>
       </defs>
       <use xlink:href="#ArialMT-34"/>
       <use xlink:href="#ArialMT-30" x="55.615234"/>
       <use xlink:href="#ArialMT-30" x="111.230469"/>
      </g>
     </g>
    </g>
    <g id="xtick_4">
     <g id="text_4">
      <!-- 600 -->
      <g style="fill: #262626" transform="translate(300.382209 397.776719) scale(0.15 -0.15)">
       <defs>
        <path id="ArialMT-36" d="M 3184 3459 
L 2625 3416 
Q 2550 3747 2413 3897 
Q 2184 4138 1850 4138 
Q 1581 4138 1378 3988 
Q 1113 3794 959 3422 
Q 806 3050 800 2363 
Q 1003 2672 1297 2822 
Q 1591 2972 1913 2972 
Q 2475 2972 2870 2558 
Q 3266 2144 3266 1488 
Q 3266 1056 3080 686 
Q 2894 316 2569 119 
Q 2244 -78 1831 -78 
Q 1128 -78 684 439 
Q 241 956 241 2144 
Q 241 3472 731 4075 
Q 1159 4600 1884 4600 
Q 2425 4600 2770 4297 
Q 3116 3994 3184 3459 
z
M 888 1484 
Q 888 1194 1011 928 
Q 1134 663 1356 523 
Q 1578 384 1822 384 
Q 2178 384 2434 671 
Q 2691 959 2691 1453 
Q 2691 1928 2437 2201 
Q 2184 2475 1800 2475 
Q 1419 2475 1153 2201 
Q 888 1928 888 1484 
z
" transform="scale(0.015625)"/>
       </defs>
       <use xlink:href="#ArialMT-36"/>
       <use xlink:href="#ArialMT-30" x="55.615234"/>
       <use xlink:href="#ArialMT-30" x="111.230469"/>
      </g>
     </g>
    </g>
    <g id="xtick_5">
     <g id="text_5">
      <!-- 800 -->
      <g style="fill: #262626" transform="translate(360.493572 397.776719) scale(0.15 -0.15)">
       <defs>
        <path id="ArialMT-38" d="M 1131 2484 
Q 781 2613 612 2850 
Q 444 3088 444 3419 
Q 444 3919 803 4259 
Q 1163 4600 1759 4600 
Q 2359 4600 2725 4251 
Q 3091 3903 3091 3403 
Q 3091 3084 2923 2848 
Q 2756 2613 2416 2484 
Q 2838 2347 3058 2040 
Q 3278 1734 3278 1309 
Q 3278 722 2862 322 
Q 2447 -78 1769 -78 
Q 1091 -78 675 323 
Q 259 725 259 1325 
Q 259 1772 486 2073 
Q 713 2375 1131 2484 
z
M 1019 3438 
Q 1019 3113 1228 2906 
Q 1438 2700 1772 2700 
Q 2097 2700 2305 2904 
Q 2513 3109 2513 3406 
Q 2513 3716 2298 3927 
Q 2084 4138 1766 4138 
Q 1444 4138 1231 3931 
Q 1019 3725 1019 3438 
z
M 838 1322 
Q 838 1081 952 856 
Q 1066 631 1291 507 
Q 1516 384 1775 384 
Q 2178 384 2440 643 
Q 2703 903 2703 1303 
Q 2703 1709 2433 1975 
Q 2163 2241 1756 2241 
Q 1359 2241 1098 1978 
Q 838 1716 838 1322 
z
" transform="scale(0.015625)"/>
       </defs>
       <use xlink:href="#ArialMT-38"/>
       <use xlink:href="#ArialMT-30" x="55.615234"/>
       <use xlink:href="#ArialMT-30" x="111.230469"/>
      </g>
     </g>
    </g>
    <g id="xtick_6">
     <g id="text_6">
      <!-- 1000 -->
      <g style="fill: #262626" transform="translate(416.434233 397.776719) scale(0.15 -0.15)">
       <defs>
        <path id="ArialMT-31" d="M 2384 0 
L 1822 0 
L 1822 3584 
Q 1619 3391 1289 3197 
Q 959 3003 697 2906 
L 697 3450 
Q 1169 3672 1522 3987 
Q 1875 4303 2022 4600 
L 2384 4600 
L 2384 0 
z
" transform="scale(0.015625)"/>
       </defs>
       <use xlink:href="#ArialMT-31"/>
       <use xlink:href="#ArialMT-30" x="55.615234"/>
       <use xlink:href="#ArialMT-30" x="111.230469"/>
       <use xlink:href="#ArialMT-30" x="166.845703"/>
      </g>
     </g>
    </g>
    <g id="xtick_7">
     <g id="text_7">
      <!-- 1200 -->
      <g style="fill: #262626" transform="translate(476.545597 397.776719) scale(0.15 -0.15)">
       <use xlink:href="#ArialMT-31"/>
       <use xlink:href="#ArialMT-32" x="55.615234"/>
       <use xlink:href="#ArialMT-30" x="111.230469"/>
       <use xlink:href="#ArialMT-30" x="166.845703"/>
      </g>
     </g>
    </g>
    <g id="xtick_8">
     <g id="text_8">
      <!-- 1400 -->
      <g style="fill: #262626" transform="translate(536.65696 397.776719) scale(0.15 -0.15)">
       <use xlink:href="#ArialMT-31"/>
       <use xlink:href="#ArialMT-34" x="55.615234"/>
       <use xlink:href="#ArialMT-30" x="111.230469"/>
       <use xlink:href="#ArialMT-30" x="166.845703"/>
      </g>
     </g>
    </g>
    <g id="text_9">
     <!-- Time (s) -->
     <g style="fill: #262626" transform="translate(315.737891 415.6775) scale(0.15 -0.15)">
      <defs>
       <path id="ArialMT-54" d="M 1659 0 
L 1659 4041 
L 150 4041 
L 150 4581 
L 3781 4581 
L 3781 4041 
L 2266 4041 
L 2266 0 
L 1659 0 
z
" transform="scale(0.015625)"/>
       <path id="ArialMT-69" d="M 425 3934 
L 425 4581 
L 988 4581 
L 988 3934 
L 425 3934 
z
M 425 0 
L 425 3319 
L 988 3319 
L 988 0 
L 425 0 
z
" transform="scale(0.015625)"/>
       <path id="ArialMT-6d" d="M 422 0 
L 422 3319 
L 925 3319 
L 925 2853 
Q 1081 3097 1340 3245 
Q 1600 3394 1931 3394 
Q 2300 3394 2536 3241 
Q 2772 3088 2869 2813 
Q 3263 3394 3894 3394 
Q 4388 3394 4653 3120 
Q 4919 2847 4919 2278 
L 4919 0 
L 4359 0 
L 4359 2091 
Q 4359 2428 4304 2576 
Q 4250 2725 4106 2815 
Q 3963 2906 3769 2906 
Q 3419 2906 3187 2673 
Q 2956 2441 2956 1928 
L 2956 0 
L 2394 0 
L 2394 2156 
Q 2394 2531 2256 2718 
Q 2119 2906 1806 2906 
Q 1569 2906 1367 2781 
Q 1166 2656 1075 2415 
Q 984 2175 984 1722 
L 984 0 
L 422 0 
z
" transform="scale(0.015625)"/>
       <path id="ArialMT-65" d="M 2694 1069 
L 3275 997 
Q 3138 488 2766 206 
Q 2394 -75 1816 -75 
Q 1088 -75 661 373 
Q 234 822 234 1631 
Q 234 2469 665 2931 
Q 1097 3394 1784 3394 
Q 2450 3394 2872 2941 
Q 3294 2488 3294 1666 
Q 3294 1616 3291 1516 
L 816 1516 
Q 847 969 1125 678 
Q 1403 388 1819 388 
Q 2128 388 2347 550 
Q 2566 713 2694 1069 
z
M 847 1978 
L 2700 1978 
Q 2663 2397 2488 2606 
Q 2219 2931 1791 2931 
Q 1403 2931 1139 2672 
Q 875 2413 847 1978 
z
" transform="scale(0.015625)"/>
       <path id="ArialMT-20" transform="scale(0.015625)"/>
       <path id="ArialMT-28" d="M 1497 -1347 
Q 1031 -759 709 28 
Q 388 816 388 1659 
Q 388 2403 628 3084 
Q 909 3875 1497 4659 
L 1900 4659 
Q 1522 4009 1400 3731 
Q 1209 3300 1100 2831 
Q 966 2247 966 1656 
Q 966 153 1900 -1347 
L 1497 -1347 
z
" transform="scale(0.015625)"/>
       <path id="ArialMT-73" d="M 197 991 
L 753 1078 
Q 800 744 1014 566 
Q 1228 388 1613 388 
Q 2000 388 2187 545 
Q 2375 703 2375 916 
Q 2375 1106 2209 1216 
Q 2094 1291 1634 1406 
Q 1016 1563 777 1677 
Q 538 1791 414 1992 
Q 291 2194 291 2438 
Q 291 2659 392 2848 
Q 494 3038 669 3163 
Q 800 3259 1026 3326 
Q 1253 3394 1513 3394 
Q 1903 3394 2198 3281 
Q 2494 3169 2634 2976 
Q 2775 2784 2828 2463 
L 2278 2388 
Q 2241 2644 2061 2787 
Q 1881 2931 1553 2931 
Q 1166 2931 1000 2803 
Q 834 2675 834 2503 
Q 834 2394 903 2306 
Q 972 2216 1119 2156 
Q 1203 2125 1616 2013 
Q 2213 1853 2448 1751 
Q 2684 1650 2818 1456 
Q 2953 1263 2953 975 
Q 2953 694 2789 445 
Q 2625 197 2315 61 
Q 2006 -75 1616 -75 
Q 969 -75 630 194 
Q 291 463 197 991 
z
" transform="scale(0.015625)"/>
       <path id="ArialMT-29" d="M 791 -1347 
L 388 -1347 
Q 1322 153 1322 1656 
Q 1322 2244 1188 2822 
Q 1081 3291 891 3722 
Q 769 4003 388 4659 
L 791 4659 
Q 1378 3875 1659 3084 
Q 1900 2403 1900 1659 
Q 1900 816 1576 28 
Q 1253 -759 791 -1347 
z
" transform="scale(0.015625)"/>
      </defs>
      <use xlink:href="#ArialMT-54"/>
      <use xlink:href="#ArialMT-69" x="57.333984"/>
      <use xlink:href="#ArialMT-6d" x="79.550781"/>
      <use xlink:href="#ArialMT-65" x="162.851562"/>
      <use xlink:href="#ArialMT-20" x="218.466797"/>
      <use xlink:href="#ArialMT-28" x="246.25"/>
      <use xlink:href="#ArialMT-73" x="279.550781"/>
      <use xlink:href="#ArialMT-29" x="329.550781"/>
     </g>
    </g>
   </g>
   <g id="matplotlib.axis_2">
    <g id="ytick_1">
     <g id="text_10">
      <!-- −0.05 -->
      <g style="fill: #262626" transform="translate(31.007656 361.974858) scale(0.15 -0.15)">
       <defs>
        <path id="ArialMT-2212" d="M 3381 1997 
L 356 1997 
L 356 2522 
L 3381 2522 
L 3381 1997 
z
" transform="scale(0.015625)"/>
        <path id="ArialMT-2e" d="M 581 0 
L 581 641 
L 1222 641 
L 1222 0 
L 581 0 
z
" transform="scale(0.015625)"/>
        <path id="ArialMT-35" d="M 266 1200 
L 856 1250 
Q 922 819 1161 601 
Q 1400 384 1738 384 
Q 2144 384 2425 690 
Q 2706 997 2706 1503 
Q 2706 1984 2436 2262 
Q 2166 2541 1728 2541 
Q 1456 2541 1237 2417 
Q 1019 2294 894 2097 
L 366 2166 
L 809 4519 
L 3088 4519 
L 3088 3981 
L 1259 3981 
L 1013 2750 
Q 1425 3038 1878 3038 
Q 2478 3038 2890 2622 
Q 3303 2206 3303 1553 
Q 3303 931 2941 478 
Q 2500 -78 1738 -78 
Q 1113 -78 717 272 
Q 322 622 266 1200 
z
" transform="scale(0.015625)"/>
       </defs>
       <use xlink:href="#ArialMT-2212"/>
       <use xlink:href="#ArialMT-30" x="58.398438"/>
       <use xlink:href="#ArialMT-2e" x="114.013672"/>
       <use xlink:href="#ArialMT-30" x="141.796875"/>
       <use xlink:href="#ArialMT-35" x="197.412109"/>
      </g>
     </g>
    </g>
    <g id="ytick_2">
     <g id="text_11">
      <!-- 0.00 -->
      <g style="fill: #262626" transform="translate(39.768594 307.009933) scale(0.15 -0.15)">
       <use xlink:href="#ArialMT-30"/>
       <use xlink:href="#ArialMT-2e" x="55.615234"/>
       <use xlink:href="#ArialMT-30" x="83.398438"/>
       <use xlink:href="#ArialMT-30" x="139.013672"/>
      </g>
     </g>
    </g>
    <g id="ytick_3">
     <g id="text_12">
      <!-- 0.05 -->
      <g style="fill: #262626" transform="translate(39.768594 252.045008) scale(0.15 -0.15)">
       <use xlink:href="#ArialMT-30"/>
       <use xlink:href="#ArialMT-2e" x="55.615234"/>
       <use xlink:href="#ArialMT-30" x="83.398438"/>
       <use xlink:href="#ArialMT-35" x="139.013672"/>
      </g>
     </g>
    </g>
    <g id="ytick_4">
     <g id="text_13">
      <!-- 0.10 -->
      <g style="fill: #262626" transform="translate(39.768594 197.080084) scale(0.15 -0.15)">
       <use xlink:href="#ArialMT-30"/>
       <use xlink:href="#ArialMT-2e" x="55.615234"/>
       <use xlink:href="#ArialMT-31" x="83.398438"/>
       <use xlink:href="#ArialMT-30" x="139.013672"/>
      </g>
     </g>
    </g>
    <g id="ytick_5">
     <g id="text_14">
      <!-- 0.15 -->
      <g style="fill: #262626" transform="translate(39.768594 142.115159) scale(0.15 -0.15)">
       <use xlink:href="#ArialMT-30"/>
       <use xlink:href="#ArialMT-2e" x="55.615234"/>
       <use xlink:href="#ArialMT-31" x="83.398438"/>
       <use xlink:href="#ArialMT-35" x="139.013672"/>
      </g>
     </g>
    </g>
    <g id="ytick_6">
     <g id="text_15">
      <!-- 0.20 -->
      <g style="fill: #262626" transform="translate(39.768594 87.150234) scale(0.15 -0.15)">
       <use xlink:href="#ArialMT-30"/>
       <use xlink:href="#ArialMT-2e" x="55.615234"/>
       <use xlink:href="#ArialMT-32" x="83.398438"/>
       <use xlink:href="#ArialMT-30" x="139.013672"/>
      </g>
     </g>
    </g>
    <g id="text_16">
     <!-- Divergence -->
     <g style="fill: #262626" transform="translate(23.850625 240.183594) rotate(-90) scale(0.15 -0.15)">
      <defs>
       <path id="ArialMT-44" d="M 494 0 
L 494 4581 
L 2072 4581 
Q 2606 4581 2888 4516 
Q 3281 4425 3559 4188 
Q 3922 3881 4101 3404 
Q 4281 2928 4281 2316 
Q 4281 1794 4159 1391 
Q 4038 988 3847 723 
Q 3656 459 3429 307 
Q 3203 156 2883 78 
Q 2563 0 2147 0 
L 494 0 
z
M 1100 541 
L 2078 541 
Q 2531 541 2789 625 
Q 3047 709 3200 863 
Q 3416 1078 3536 1442 
Q 3656 1806 3656 2325 
Q 3656 3044 3420 3430 
Q 3184 3816 2847 3947 
Q 2603 4041 2063 4041 
L 1100 4041 
L 1100 541 
z
" transform="scale(0.015625)"/>
       <path id="ArialMT-76" d="M 1344 0 
L 81 3319 
L 675 3319 
L 1388 1331 
Q 1503 1009 1600 663 
Q 1675 925 1809 1294 
L 2547 3319 
L 3125 3319 
L 1869 0 
L 1344 0 
z
" transform="scale(0.015625)"/>
       <path id="ArialMT-72" d="M 416 0 
L 416 3319 
L 922 3319 
L 922 2816 
Q 1116 3169 1280 3281 
Q 1444 3394 1641 3394 
Q 1925 3394 2219 3213 
L 2025 2691 
Q 1819 2813 1613 2813 
Q 1428 2813 1281 2702 
Q 1134 2591 1072 2394 
Q 978 2094 978 1738 
L 978 0 
L 416 0 
z
" transform="scale(0.015625)"/>
       <path id="ArialMT-67" d="M 319 -275 
L 866 -356 
Q 900 -609 1056 -725 
Q 1266 -881 1628 -881 
Q 2019 -881 2231 -725 
Q 2444 -569 2519 -288 
Q 2563 -116 2559 434 
Q 2191 0 1641 0 
Q 956 0 581 494 
Q 206 988 206 1678 
Q 206 2153 378 2554 
Q 550 2956 876 3175 
Q 1203 3394 1644 3394 
Q 2231 3394 2613 2919 
L 2613 3319 
L 3131 3319 
L 3131 450 
Q 3131 -325 2973 -648 
Q 2816 -972 2473 -1159 
Q 2131 -1347 1631 -1347 
Q 1038 -1347 672 -1080 
Q 306 -813 319 -275 
z
M 784 1719 
Q 784 1066 1043 766 
Q 1303 466 1694 466 
Q 2081 466 2343 764 
Q 2606 1063 2606 1700 
Q 2606 2309 2336 2618 
Q 2066 2928 1684 2928 
Q 1309 2928 1046 2623 
Q 784 2319 784 1719 
z
" transform="scale(0.015625)"/>
       <path id="ArialMT-6e" d="M 422 0 
L 422 3319 
L 928 3319 
L 928 2847 
Q 1294 3394 1984 3394 
Q 2284 3394 2536 3286 
Q 2788 3178 2913 3003 
Q 3038 2828 3088 2588 
Q 3119 2431 3119 2041 
L 3119 0 
L 2556 0 
L 2556 2019 
Q 2556 2363 2490 2533 
Q 2425 2703 2258 2804 
Q 2091 2906 1866 2906 
Q 1506 2906 1245 2678 
Q 984 2450 984 1813 
L 984 0 
L 422 0 
z
" transform="scale(0.015625)"/>
       <path id="ArialMT-63" d="M 2588 1216 
L 3141 1144 
Q 3050 572 2676 248 
Q 2303 -75 1759 -75 
Q 1078 -75 664 370 
Q 250 816 250 1647 
Q 250 2184 428 2587 
Q 606 2991 970 3192 
Q 1334 3394 1763 3394 
Q 2303 3394 2647 3120 
Q 2991 2847 3088 2344 
L 2541 2259 
Q 2463 2594 2264 2762 
Q 2066 2931 1784 2931 
Q 1359 2931 1093 2626 
Q 828 2322 828 1663 
Q 828 994 1084 691 
Q 1341 388 1753 388 
Q 2084 388 2306 591 
Q 2528 794 2588 1216 
z
" transform="scale(0.015625)"/>
      </defs>
      <use xlink:href="#ArialMT-44"/>
      <use xlink:href="#ArialMT-69" x="72.216797"/>
      <use xlink:href="#ArialMT-76" x="94.433594"/>
      <use xlink:href="#ArialMT-65" x="144.433594"/>
      <use xlink:href="#ArialMT-72" x="200.048828"/>
      <use xlink:href="#ArialMT-67" x="233.349609"/>
      <use xlink:href="#ArialMT-65" x="288.964844"/>
      <use xlink:href="#ArialMT-6e" x="344.580078"/>
      <use xlink:href="#ArialMT-63" x="400.195312"/>
      <use xlink:href="#ArialMT-65" x="450.195312"/>
     </g>
    </g>
   </g>
   <g id="PolyCollection_1">
    <defs>
     <path id="m3ca1db6fcc" d="M 102.504545 -130.594928 
L 102.504545 -130.251414 
L 114.526818 -130.447104 
L 126.549091 -117.728883 
L 138.571364 -118.448967 
L 150.593636 -129.305246 
L 162.615909 -135.080438 
L 174.638182 -133.399445 
L 186.660455 -80.536041 
L 198.682727 -70.395455 
L 210.705 -91.432997 
L 222.727273 -141.92611 
L 234.749545 -160.296366 
L 246.771818 -178.084131 
L 258.794091 -160.044677 
L 270.816364 -151.529859 
L 282.838636 -150.473543 
L 294.860909 -153.188497 
L 306.883182 -137.979462 
L 318.905455 -125.682972 
L 330.927727 -115.877945 
L 342.95 -118.374759 
L 354.972273 -141.131489 
L 366.994545 -148.706145 
L 379.016818 -127.966369 
L 391.039091 -140.078929 
L 403.061364 -162.571069 
L 415.083636 -136.288461 
L 427.105909 -135.600204 
L 439.128182 -128.375402 
L 451.150455 -130.020573 
L 463.172727 -130.371447 
L 475.195 -130.319892 
L 487.217273 -130.369353 
L 499.239545 -130.265173 
L 511.261818 -130.056937 
L 523.284091 -130.043149 
L 535.306364 -130.088069 
L 547.328636 -130.065711 
L 559.350909 -130.211724 
L 571.373182 -130.362346 
L 583.395455 -130.336452 
L 583.395455 -130.510126 
L 583.395455 -130.510126 
L 571.373182 -130.548432 
L 559.350909 -130.417393 
L 547.328636 -130.280273 
L 535.306364 -130.305963 
L 523.284091 -130.280166 
L 511.261818 -130.266559 
L 499.239545 -130.433286 
L 487.217273 -130.558026 
L 475.195 -130.552472 
L 463.172727 -130.603249 
L 451.150455 -130.236756 
L 439.128182 -129.546806 
L 427.105909 -143.480251 
L 415.083636 -146.009608 
L 403.061364 -171.419211 
L 391.039091 -150.497157 
L 379.016818 -138.302764 
L 366.994545 -161.845655 
L 354.972273 -151.332453 
L 342.95 -130.364847 
L 330.927727 -127.088491 
L 318.905455 -134.709586 
L 306.883182 -148.186241 
L 294.860909 -164.253072 
L 282.838636 -157.866225 
L 270.816364 -162.277297 
L 258.794091 -170.179954 
L 246.771818 -189.713358 
L 234.749545 -170.504541 
L 222.727273 -152.328564 
L 210.705 -106.660132 
L 198.682727 -88.265857 
L 186.660455 -93.377302 
L 174.638182 -144.146015 
L 162.615909 -147.501018 
L 150.593636 -139.059232 
L 138.571364 -127.538419 
L 126.549091 -122.412143 
L 114.526818 -130.814543 
L 102.504545 -130.594928 
z
" style="stroke: #00008b; stroke-opacity: 0.1"/>
    </defs>
    <g clip-path="url(#pcd74807a4f)">
     <use xlink:href="#m3ca1db6fcc" x="0" y="432" style="fill: #00008b; fill-opacity: 0.1; stroke: #00008b; stroke-opacity: 0.1"/>
    </g>
   </g>
   <g id="PolyCollection_2">
    <defs>
     <path id="m3922ac77ff" d="M 102.504545 -130.404272 
L 102.504545 -130.280997 
L 114.526818 -130.243566 
L 126.549091 -131.929559 
L 138.571364 -139.545111 
L 150.593636 -152.591393 
L 162.615909 -145.552066 
L 174.638182 -142.262747 
L 186.660455 -144.863452 
L 198.682727 -147.700599 
L 210.705 -144.01073 
L 222.727273 -141.959729 
L 234.749545 -136.367464 
L 246.771818 -136.449581 
L 258.794091 -129.939785 
L 270.816364 -133.25582 
L 282.838636 -147.341861 
L 294.860909 -147.340105 
L 306.883182 -147.787443 
L 318.905455 -154.138656 
L 330.927727 -148.511634 
L 342.95 -144.53892 
L 354.972273 -142.673555 
L 366.994545 -141.188197 
L 379.016818 -135.193358 
L 391.039091 -135.106158 
L 403.061364 -140.501111 
L 415.083636 -148.501635 
L 427.105909 -145.287208 
L 439.128182 -130.539689 
L 451.150455 -130.205559 
L 463.172727 -130.264681 
L 475.195 -130.320335 
L 487.217273 -130.313292 
L 499.239545 -130.326969 
L 511.261818 -130.27627 
L 523.284091 -130.2808 
L 535.306364 -130.354552 
L 547.328636 -130.378099 
L 559.350909 -130.348015 
L 571.373182 -130.380118 
L 583.395455 -130.354332 
L 583.395455 -130.424572 
L 583.395455 -130.424572 
L 571.373182 -130.44985 
L 559.350909 -130.411666 
L 547.328636 -130.436008 
L 535.306364 -130.420276 
L 523.284091 -130.377274 
L 511.261818 -130.354243 
L 499.239545 -130.388753 
L 487.217273 -130.372073 
L 475.195 -130.382508 
L 463.172727 -130.344103 
L 451.150455 -130.295505 
L 439.128182 -131.030861 
L 427.105909 -148.709592 
L 415.083636 -152.303654 
L 403.061364 -144.176931 
L 391.039091 -138.727062 
L 379.016818 -138.419926 
L 366.994545 -144.851616 
L 354.972273 -146.38668 
L 342.95 -147.935883 
L 330.927727 -152.188913 
L 318.905455 -157.855024 
L 306.883182 -151.414624 
L 294.860909 -150.971352 
L 282.838636 -150.541904 
L 270.816364 -137.235437 
L 258.794091 -133.649258 
L 246.771818 -140.01023 
L 234.749545 -139.988308 
L 222.727273 -145.815213 
L 210.705 -147.587805 
L 198.682727 -150.938728 
L 186.660455 -148.07482 
L 174.638182 -145.380118 
L 162.615909 -148.68969 
L 150.593636 -156.551208 
L 138.571364 -143.655798 
L 126.549091 -133.366761 
L 114.526818 -130.386391 
L 102.504545 -130.404272 
z
" style="stroke: #00008b; stroke-opacity: 0.1"/>
    </defs>
    <g clip-path="url(#pcd74807a4f)">
     <use xlink:href="#m3922ac77ff" x="0" y="432" style="fill: #00008b; fill-opacity: 0.1; stroke: #00008b; stroke-opacity: 0.1"/>
    </g>
   </g>
   <g id="PathCollection_1">
    <defs>
     <path id="md75805e8d0" d="M 0 -3 
L -0.673542 -0.927051 
L -2.85317 -0.927051 
L -1.089814 0.354102 
L -1.763356 2.427051 
L -0 1.145898 
L 1.763356 2.427051 
L 1.089814 0.354102 
L 2.85317 -0.927051 
L 0.673542 -0.927051 
z
" style="stroke: #00008b"/>
    </defs>
    <g clip-path="url(#pcd74807a4f)">
     <use xlink:href="#md75805e8d0" x="234.749545" y="312.634559" style="fill: #00008b; stroke: #00008b"/>
     <use xlink:href="#md75805e8d0" x="246.771818" y="312.634559" style="fill: #00008b; stroke: #00008b"/>
     <use xlink:href="#md75805e8d0" x="258.794091" y="312.634559" style="fill: #00008b; stroke: #00008b"/>
     <use xlink:href="#md75805e8d0" x="270.816364" y="312.634559" style="fill: #00008b; stroke: #00008b"/>
     <use xlink:href="#md75805e8d0" x="366.994545" y="312.634559" style="fill: #00008b; stroke: #00008b"/>
     <use xlink:href="#md75805e8d0" x="403.061364" y="312.634559" style="fill: #00008b; stroke: #00008b"/>
    </g>
   </g>
   <g id="PolyCollection_3">
    <defs>
     <path id="m588e5917ff" d="M 102.504545 -130.719234 
L 102.504545 -130.373169 
L 114.526818 -130.128132 
L 126.549091 -140.51956 
L 138.571364 -188.080837 
L 150.593636 -236.011557 
L 162.615909 -274.955598 
L 174.638182 -298.00909 
L 186.660455 -306.655687 
L 198.682727 -315.826156 
L 210.705 -316.058133 
L 222.727273 -318.079554 
L 234.749545 -326.850528 
L 246.771818 -333.21273 
L 258.794091 -339.05752 
L 270.816364 -341.718064 
L 282.838636 -342.194039 
L 294.860909 -342.488702 
L 306.883182 -342.855378 
L 318.905455 -341.387481 
L 330.927727 -337.644976 
L 342.95 -332.212404 
L 354.972273 -332.556969 
L 366.994545 -333.921067 
L 379.016818 -336.943747 
L 391.039091 -335.482146 
L 403.061364 -332.674493 
L 415.083636 -329.950898 
L 427.105909 -328.575679 
L 439.128182 -318.867994 
L 451.150455 -302.974653 
L 463.172727 -291.453687 
L 475.195 -284.798738 
L 487.217273 -281.665933 
L 499.239545 -281.889131 
L 511.261818 -282.493817 
L 523.284091 -283.813825 
L 535.306364 -286.839808 
L 547.328636 -291.43662 
L 559.350909 -296.114034 
L 571.373182 -299.297497 
L 583.395455 -302.437907 
L 583.395455 -358.670672 
L 583.395455 -358.670672 
L 571.373182 -352.085617 
L 559.350909 -346.571769 
L 547.328636 -340.126117 
L 535.306364 -334.135483 
L 523.284091 -330.287746 
L 511.261818 -328.725752 
L 499.239545 -328.28777 
L 487.217273 -328.55048 
L 475.195 -332.659504 
L 463.172727 -340.431568 
L 451.150455 -353.412121 
L 439.128182 -370.812164 
L 427.105909 -380.850704 
L 415.083636 -381.066076 
L 403.061364 -382.955955 
L 391.039091 -385.301898 
L 379.016818 -386.131028 
L 366.994545 -381.90324 
L 354.972273 -379.860186 
L 342.95 -378.75239 
L 330.927727 -383.806145 
L 318.905455 -387.464072 
L 306.883182 -389.104545 
L 294.860909 -388.32035 
L 282.838636 -387.489979 
L 270.816364 -386.615603 
L 258.794091 -383.670292 
L 246.771818 -376.8658 
L 234.749545 -369.634991 
L 222.727273 -360.18799 
L 210.705 -357.601335 
L 198.682727 -356.265538 
L 186.660455 -344.996755 
L 174.638182 -335.323447 
L 162.615909 -309.119075 
L 150.593636 -264.71689 
L 138.571364 -207.638204 
L 126.549091 -145.179134 
L 114.526818 -131.053207 
L 102.504545 -130.719234 
z
" style="stroke: #6060eb; stroke-opacity: 0.1"/>
    </defs>
    <g clip-path="url(#pcd74807a4f)">
     <use xlink:href="#m588e5917ff" x="0" y="432" style="fill: #6060eb; fill-opacity: 0.1; stroke: #6060eb; stroke-opacity: 0.1"/>
    </g>
   </g>
   <g id="PolyCollection_4">
    <defs>
     <path id="m62d261ae0b" d="M 102.504545 -130.399169 
L 102.504545 -130.29021 
L 114.526818 -130.02969 
L 126.549091 -130.67329 
L 138.571364 -133.622367 
L 150.593636 -136.639285 
L 162.615909 -140.976772 
L 174.638182 -143.097287 
L 186.660455 -143.047301 
L 198.682727 -142.716142 
L 210.705 -142.793036 
L 222.727273 -143.130207 
L 234.749545 -143.962592 
L 246.771818 -144.698317 
L 258.794091 -143.696928 
L 270.816364 -143.530278 
L 282.838636 -144.386043 
L 294.860909 -145.615679 
L 306.883182 -146.392696 
L 318.905455 -146.884778 
L 330.927727 -148.082404 
L 342.95 -148.232722 
L 354.972273 -147.634966 
L 366.994545 -146.70274 
L 379.016818 -145.086859 
L 391.039091 -143.215716 
L 403.061364 -141.901879 
L 415.083636 -141.767943 
L 427.105909 -141.029652 
L 439.128182 -139.31659 
L 451.150455 -137.964795 
L 463.172727 -137.372134 
L 475.195 -137.285236 
L 487.217273 -136.977974 
L 499.239545 -136.835995 
L 511.261818 -136.873083 
L 523.284091 -136.824638 
L 535.306364 -136.971887 
L 547.328636 -137.096037 
L 559.350909 -137.088714 
L 571.373182 -137.17419 
L 583.395455 -137.633089 
L 583.395455 -141.253347 
L 583.395455 -141.253347 
L 571.373182 -140.564756 
L 559.350909 -140.030059 
L 547.328636 -139.773779 
L 535.306364 -139.584907 
L 523.284091 -139.444398 
L 511.261818 -139.605606 
L 499.239545 -139.705606 
L 487.217273 -139.90115 
L 475.195 -140.323638 
L 463.172727 -140.596032 
L 451.150455 -141.393339 
L 439.128182 -143.09672 
L 427.105909 -144.986384 
L 415.083636 -145.436009 
L 403.061364 -145.608464 
L 391.039091 -147.29729 
L 379.016818 -149.293324 
L 366.994545 -150.489976 
L 354.972273 -151.612804 
L 342.95 -152.07598 
L 330.927727 -151.805058 
L 318.905455 -150.594965 
L 306.883182 -149.975093 
L 294.860909 -149.108877 
L 282.838636 -147.778385 
L 270.816364 -146.750156 
L 258.794091 -146.971865 
L 246.771818 -148.17226 
L 234.749545 -147.566964 
L 222.727273 -146.921836 
L 210.705 -146.801049 
L 198.682727 -146.858539 
L 186.660455 -147.052569 
L 174.638182 -146.917389 
L 162.615909 -144.316536 
L 150.593636 -139.157625 
L 138.571364 -134.995509 
L 126.549091 -131.209057 
L 114.526818 -130.351913 
L 102.504545 -130.399169 
z
" style="stroke: #6060eb; stroke-opacity: 0.1"/>
    </defs>
    <g clip-path="url(#pcd74807a4f)">
     <use xlink:href="#m62d261ae0b" x="0" y="432" style="fill: #6060eb; fill-opacity: 0.1; stroke: #6060eb; stroke-opacity: 0.1"/>
    </g>
   </g>
   <g id="PathCollection_2">
    <defs>
     <path id="mab8e93272f" d="M 0 -3 
L -0.673542 -0.927051 
L -2.85317 -0.927051 
L -1.089814 0.354102 
L -1.763356 2.427051 
L -0 1.145898 
L 1.763356 2.427051 
L 1.089814 0.354102 
L 2.85317 -0.927051 
L 0.673542 -0.927051 
z
" style="stroke: #6060eb"/>
    </defs>
    <g clip-path="url(#pcd74807a4f)">
     <use xlink:href="#mab8e93272f" x="126.549091" y="323.627544" style="fill: #6060eb; stroke: #6060eb"/>
     <use xlink:href="#mab8e93272f" x="138.571364" y="323.627544" style="fill: #6060eb; stroke: #6060eb"/>
     <use xlink:href="#mab8e93272f" x="150.593636" y="323.627544" style="fill: #6060eb; stroke: #6060eb"/>
     <use xlink:href="#mab8e93272f" x="162.615909" y="323.627544" style="fill: #6060eb; stroke: #6060eb"/>
     <use xlink:href="#mab8e93272f" x="174.638182" y="323.627544" style="fill: #6060eb; stroke: #6060eb"/>
     <use xlink:href="#mab8e93272f" x="186.660455" y="323.627544" style="fill: #6060eb; stroke: #6060eb"/>
     <use xlink:href="#mab8e93272f" x="198.682727" y="323.627544" style="fill: #6060eb; stroke: #6060eb"/>
     <use xlink:href="#mab8e93272f" x="210.705" y="323.627544" style="fill: #6060eb; stroke: #6060eb"/>
     <use xlink:href="#mab8e93272f" x="222.727273" y="323.627544" style="fill: #6060eb; stroke: #6060eb"/>
     <use xlink:href="#mab8e93272f" x="234.749545" y="323.627544" style="fill: #6060eb; stroke: #6060eb"/>
     <use xlink:href="#mab8e93272f" x="246.771818" y="323.627544" style="fill: #6060eb; stroke: #6060eb"/>
     <use xlink:href="#mab8e93272f" x="258.794091" y="323.627544" style="fill: #6060eb; stroke: #6060eb"/>
     <use xlink:href="#mab8e93272f" x="270.816364" y="323.627544" style="fill: #6060eb; stroke: #6060eb"/>
     <use xlink:href="#mab8e93272f" x="282.838636" y="323.627544" style="fill: #6060eb; stroke: #6060eb"/>
     <use xlink:href="#mab8e93272f" x="294.860909" y="323.627544" style="fill: #6060eb; stroke: #6060eb"/>
     <use xlink:href="#mab8e93272f" x="306.883182" y="323.627544" style="fill: #6060eb; stroke: #6060eb"/>
     <use xlink:href="#mab8e93272f" x="318.905455" y="323.627544" style="fill: #6060eb; stroke: #6060eb"/>
     <use xlink:href="#mab8e93272f" x="330.927727" y="323.627544" style="fill: #6060eb; stroke: #6060eb"/>
     <use xlink:href="#mab8e93272f" x="342.95" y="323.627544" style="fill: #6060eb; stroke: #6060eb"/>
     <use xlink:href="#mab8e93272f" x="354.972273" y="323.627544" style="fill: #6060eb; stroke: #6060eb"/>
     <use xlink:href="#mab8e93272f" x="366.994545" y="323.627544" style="fill: #6060eb; stroke: #6060eb"/>
     <use xlink:href="#mab8e93272f" x="379.016818" y="323.627544" style="fill: #6060eb; stroke: #6060eb"/>
     <use xlink:href="#mab8e93272f" x="391.039091" y="323.627544" style="fill: #6060eb; stroke: #6060eb"/>
     <use xlink:href="#mab8e93272f" x="403.061364" y="323.627544" style="fill: #6060eb; stroke: #6060eb"/>
     <use xlink:href="#mab8e93272f" x="415.083636" y="323.627544" style="fill: #6060eb; stroke: #6060eb"/>
     <use xlink:href="#mab8e93272f" x="427.105909" y="323.627544" style="fill: #6060eb; stroke: #6060eb"/>
     <use xlink:href="#mab8e93272f" x="439.128182" y="323.627544" style="fill: #6060eb; stroke: #6060eb"/>
     <use xlink:href="#mab8e93272f" x="451.150455" y="323.627544" style="fill: #6060eb; stroke: #6060eb"/>
     <use xlink:href="#mab8e93272f" x="463.172727" y="323.627544" style="fill: #6060eb; stroke: #6060eb"/>
     <use xlink:href="#mab8e93272f" x="475.195" y="323.627544" style="fill: #6060eb; stroke: #6060eb"/>
     <use xlink:href="#mab8e93272f" x="487.217273" y="323.627544" style="fill: #6060eb; stroke: #6060eb"/>
     <use xlink:href="#mab8e93272f" x="499.239545" y="323.627544" style="fill: #6060eb; stroke: #6060eb"/>
     <use xlink:href="#mab8e93272f" x="511.261818" y="323.627544" style="fill: #6060eb; stroke: #6060eb"/>
     <use xlink:href="#mab8e93272f" x="523.284091" y="323.627544" style="fill: #6060eb; stroke: #6060eb"/>
     <use xlink:href="#mab8e93272f" x="535.306364" y="323.627544" style="fill: #6060eb; stroke: #6060eb"/>
     <use xlink:href="#mab8e93272f" x="547.328636" y="323.627544" style="fill: #6060eb; stroke: #6060eb"/>
     <use xlink:href="#mab8e93272f" x="559.350909" y="323.627544" style="fill: #6060eb; stroke: #6060eb"/>
     <use xlink:href="#mab8e93272f" x="571.373182" y="323.627544" style="fill: #6060eb; stroke: #6060eb"/>
     <use xlink:href="#mab8e93272f" x="583.395455" y="323.627544" style="fill: #6060eb; stroke: #6060eb"/>
    </g>
   </g>
   <g id="line2d_1">
    <path d="M 102.504545 301.576829 
L 114.526818 301.369177 
L 126.549091 311.929487 
L 138.571364 309.006307 
L 150.593636 297.817761 
L 162.615909 290.709272 
L 174.638182 293.22727 
L 186.660455 345.043329 
L 198.682727 352.669344 
L 210.705 332.953436 
L 222.727273 284.872663 
L 234.749545 266.599546 
L 246.771818 248.101256 
L 258.794091 266.887684 
L 270.816364 275.096422 
L 282.838636 277.830116 
L 294.860909 273.279216 
L 306.883182 288.917148 
L 318.905455 301.803721 
L 330.927727 310.516782 
L 342.95 307.630197 
L 354.972273 285.768029 
L 366.994545 276.7241 
L 379.016818 298.865433 
L 391.039091 286.711957 
L 403.061364 265.00486 
L 415.083636 290.850965 
L 427.105909 292.459772 
L 439.128182 303.038896 
L 451.150455 301.871336 
L 463.172727 301.512652 
L 475.195 301.563818 
L 487.217273 301.536311 
L 499.239545 301.65077 
L 511.261818 301.838252 
L 523.284091 301.838343 
L 535.306364 301.802984 
L 547.328636 301.827008 
L 559.350909 301.685442 
L 571.373182 301.544611 
L 583.395455 301.576711 
" clip-path="url(#pcd74807a4f)" style="fill: none; stroke: #00008b; stroke-width: 2; stroke-linecap: round"/>
   </g>
   <g id="line2d_2">
    <path d="M 102.504545 301.657365 
L 114.526818 301.685022 
L 126.549091 299.35184 
L 138.571364 290.399546 
L 150.593636 277.428699 
L 162.615909 284.879122 
L 174.638182 288.178568 
L 186.660455 285.530864 
L 198.682727 282.680336 
L 210.705 286.200733 
L 222.727273 288.112529 
L 234.749545 293.822114 
L 246.771818 293.770094 
L 258.794091 300.205478 
L 270.816364 296.754371 
L 282.838636 283.058117 
L 294.860909 282.844271 
L 306.883182 282.398966 
L 318.905455 276.00316 
L 330.927727 281.649727 
L 342.95 285.762599 
L 354.972273 287.469883 
L 366.994545 288.980094 
L 379.016818 295.193358 
L 391.039091 295.08339 
L 403.061364 289.660979 
L 415.083636 281.597355 
L 427.105909 285.0016 
L 439.128182 301.214725 
L 451.150455 301.749468 
L 463.172727 301.695608 
L 475.195 301.648579 
L 487.217273 301.657318 
L 499.239545 301.642139 
L 511.261818 301.684743 
L 523.284091 301.670963 
L 535.306364 301.612586 
L 547.328636 301.592947 
L 559.350909 301.620159 
L 571.373182 301.585016 
L 583.395455 301.610548 
" clip-path="url(#pcd74807a4f)" style="fill: none; stroke-dasharray: 7.4,3.2; stroke-dashoffset: 0; stroke: #00008b; stroke-width: 2"/>
   </g>
   <g id="line2d_3">
    <path d="M 132.560227 377.54 
L 132.560227 26.96 
" clip-path="url(#pcd74807a4f)" style="fill: none; stroke-dasharray: 5.55,2.4; stroke-dashoffset: 0; stroke: #1a1a1a; stroke-width: 1.5"/>
   </g>
   <g id="line2d_4">
    <path d="M 433.117045 377.54 
L 433.117045 26.96 
" clip-path="url(#pcd74807a4f)" style="fill: none; stroke-dasharray: 5.55,2.4; stroke-dashoffset: 0; stroke: #1a1a1a; stroke-width: 1.5"/>
   </g>
   <g id="line2d_5">
    <path d="M 102.504545 301.453799 
L 114.526818 301.409331 
L 126.549091 289.150653 
L 138.571364 234.14048 
L 150.593636 181.635776 
L 162.615909 139.962664 
L 174.638182 115.333732 
L 186.660455 106.173779 
L 198.682727 95.954153 
L 210.705 95.170266 
L 222.727273 92.866228 
L 234.749545 83.75724 
L 246.771818 76.960735 
L 258.794091 70.636094 
L 270.816364 67.833166 
L 282.838636 67.157991 
L 294.860909 66.595474 
L 306.883182 66.020038 
L 318.905455 67.574224 
L 330.927727 71.274439 
L 342.95 76.517603 
L 354.972273 75.791423 
L 366.994545 74.087846 
L 379.016818 70.462612 
L 391.039091 71.607978 
L 403.061364 74.184776 
L 415.083636 76.491513 
L 427.105909 77.286808 
L 439.128182 87.159921 
L 451.150455 103.806613 
L 463.172727 116.057373 
L 475.195 123.270879 
L 487.217273 126.891794 
L 499.239545 126.91155 
L 511.261818 126.390215 
L 523.284091 124.949215 
L 535.306364 121.512354 
L 547.328636 116.218632 
L 559.350909 110.657098 
L 571.373182 106.308443 
L 583.395455 101.44571 
" clip-path="url(#pcd74807a4f)" style="fill: none; stroke: #6060eb; stroke-width: 2; stroke-linecap: round"/>
   </g>
   <g id="line2d_6">
    <path d="M 102.504545 301.65531 
L 114.526818 301.809199 
L 126.549091 301.058827 
L 138.571364 297.691062 
L 150.593636 294.101545 
L 162.615909 289.353346 
L 174.638182 286.992662 
L 186.660455 286.950065 
L 198.682727 287.212659 
L 210.705 287.202957 
L 222.727273 286.973979 
L 234.749545 286.235222 
L 246.771818 285.564711 
L 258.794091 286.665603 
L 270.816364 286.859783 
L 282.838636 285.917786 
L 294.860909 284.637722 
L 306.883182 283.816105 
L 318.905455 283.260128 
L 330.927727 282.056269 
L 342.95 281.845649 
L 354.972273 282.376115 
L 366.994545 283.403642 
L 379.016818 284.809909 
L 391.039091 286.743497 
L 403.061364 288.244828 
L 415.083636 288.398024 
L 427.105909 288.991982 
L 439.128182 290.793345 
L 451.150455 292.320933 
L 463.172727 293.015917 
L 475.195 293.195563 
L 487.217273 293.560438 
L 499.239545 293.729199 
L 511.261818 293.760656 
L 523.284091 293.865482 
L 535.306364 293.721603 
L 547.328636 293.565092 
L 559.350909 293.440614 
L 571.373182 293.130527 
L 583.395455 292.556782 
" clip-path="url(#pcd74807a4f)" style="fill: none; stroke-dasharray: 7.4,3.2; stroke-dashoffset: 0; stroke: #6060eb; stroke-width: 2"/>
   </g>
   <g id="line2d_7">
    <path d="M 132.560227 377.54 
L 132.560227 26.96 
" clip-path="url(#pcd74807a4f)" style="fill: none; stroke-dasharray: 5.55,2.4; stroke-dashoffset: 0; stroke: #1a1a1a; stroke-width: 1.5"/>
   </g>
   <g id="line2d_8">
    <path d="M 433.117045 377.54 
L 433.117045 26.96 
" clip-path="url(#pcd74807a4f)" style="fill: none; stroke-dasharray: 5.55,2.4; stroke-dashoffset: 0; stroke: #1a1a1a; stroke-width: 1.5"/>
   </g>
   <g id="patch_3">
    <path d="M 78.46 377.54 
L 78.46 26.96 
" style="fill: none; stroke: #cccccc; stroke-width: 1.5; stroke-linejoin: miter; stroke-linecap: square"/>
   </g>
   <g id="patch_4">
    <path d="M 78.46 377.54 
L 607.44 377.54 
" style="fill: none; stroke: #cccccc; stroke-width: 1.5; stroke-linejoin: miter; stroke-linecap: square"/>
   </g>
   <g id="text_17">
    <!-- Divergence Comparison: Original vs Shuffled -->
    <g style="fill: #262626" transform="translate(223.34 20.96) scale(0.12 -0.12)">
     <defs>
      <path id="ArialMT-43" d="M 3763 1606 
L 4369 1453 
Q 4178 706 3683 314 
Q 3188 -78 2472 -78 
Q 1731 -78 1267 223 
Q 803 525 561 1097 
Q 319 1669 319 2325 
Q 319 3041 592 3573 
Q 866 4106 1370 4382 
Q 1875 4659 2481 4659 
Q 3169 4659 3637 4309 
Q 4106 3959 4291 3325 
L 3694 3184 
Q 3534 3684 3231 3912 
Q 2928 4141 2469 4141 
Q 1941 4141 1586 3887 
Q 1231 3634 1087 3207 
Q 944 2781 944 2328 
Q 944 1744 1114 1308 
Q 1284 872 1643 656 
Q 2003 441 2422 441 
Q 2931 441 3284 734 
Q 3638 1028 3763 1606 
z
" transform="scale(0.015625)"/>
      <path id="ArialMT-6f" d="M 213 1659 
Q 213 2581 725 3025 
Q 1153 3394 1769 3394 
Q 2453 3394 2887 2945 
Q 3322 2497 3322 1706 
Q 3322 1066 3130 698 
Q 2938 331 2570 128 
Q 2203 -75 1769 -75 
Q 1072 -75 642 372 
Q 213 819 213 1659 
z
M 791 1659 
Q 791 1022 1069 705 
Q 1347 388 1769 388 
Q 2188 388 2466 706 
Q 2744 1025 2744 1678 
Q 2744 2294 2464 2611 
Q 2184 2928 1769 2928 
Q 1347 2928 1069 2612 
Q 791 2297 791 1659 
z
" transform="scale(0.015625)"/>
      <path id="ArialMT-70" d="M 422 -1272 
L 422 3319 
L 934 3319 
L 934 2888 
Q 1116 3141 1344 3267 
Q 1572 3394 1897 3394 
Q 2322 3394 2647 3175 
Q 2972 2956 3137 2557 
Q 3303 2159 3303 1684 
Q 3303 1175 3120 767 
Q 2938 359 2589 142 
Q 2241 -75 1856 -75 
Q 1575 -75 1351 44 
Q 1128 163 984 344 
L 984 -1272 
L 422 -1272 
z
M 931 1641 
Q 931 1000 1190 694 
Q 1450 388 1819 388 
Q 2194 388 2461 705 
Q 2728 1022 2728 1688 
Q 2728 2322 2467 2637 
Q 2206 2953 1844 2953 
Q 1484 2953 1207 2617 
Q 931 2281 931 1641 
z
" transform="scale(0.015625)"/>
      <path id="ArialMT-61" d="M 2588 409 
Q 2275 144 1986 34 
Q 1697 -75 1366 -75 
Q 819 -75 525 192 
Q 231 459 231 875 
Q 231 1119 342 1320 
Q 453 1522 633 1644 
Q 813 1766 1038 1828 
Q 1203 1872 1538 1913 
Q 2219 1994 2541 2106 
Q 2544 2222 2544 2253 
Q 2544 2597 2384 2738 
Q 2169 2928 1744 2928 
Q 1347 2928 1158 2789 
Q 969 2650 878 2297 
L 328 2372 
Q 403 2725 575 2942 
Q 747 3159 1072 3276 
Q 1397 3394 1825 3394 
Q 2250 3394 2515 3294 
Q 2781 3194 2906 3042 
Q 3031 2891 3081 2659 
Q 3109 2516 3109 2141 
L 3109 1391 
Q 3109 606 3145 398 
Q 3181 191 3288 0 
L 2700 0 
Q 2613 175 2588 409 
z
M 2541 1666 
Q 2234 1541 1622 1453 
Q 1275 1403 1131 1340 
Q 988 1278 909 1158 
Q 831 1038 831 891 
Q 831 666 1001 516 
Q 1172 366 1500 366 
Q 1825 366 2078 508 
Q 2331 650 2450 897 
Q 2541 1088 2541 1459 
L 2541 1666 
z
" transform="scale(0.015625)"/>
      <path id="ArialMT-3a" d="M 578 2678 
L 578 3319 
L 1219 3319 
L 1219 2678 
L 578 2678 
z
M 578 0 
L 578 641 
L 1219 641 
L 1219 0 
L 578 0 
z
" transform="scale(0.015625)"/>
      <path id="ArialMT-4f" d="M 309 2231 
Q 309 3372 921 4017 
Q 1534 4663 2503 4663 
Q 3138 4663 3647 4359 
Q 4156 4056 4423 3514 
Q 4691 2972 4691 2284 
Q 4691 1588 4409 1038 
Q 4128 488 3612 205 
Q 3097 -78 2500 -78 
Q 1853 -78 1343 234 
Q 834 547 571 1087 
Q 309 1628 309 2231 
z
M 934 2222 
Q 934 1394 1379 917 
Q 1825 441 2497 441 
Q 3181 441 3623 922 
Q 4066 1403 4066 2288 
Q 4066 2847 3877 3264 
Q 3688 3681 3323 3911 
Q 2959 4141 2506 4141 
Q 1863 4141 1398 3698 
Q 934 3256 934 2222 
z
" transform="scale(0.015625)"/>
      <path id="ArialMT-6c" d="M 409 0 
L 409 4581 
L 972 4581 
L 972 0 
L 409 0 
z
" transform="scale(0.015625)"/>
      <path id="ArialMT-53" d="M 288 1472 
L 859 1522 
Q 900 1178 1048 958 
Q 1197 738 1509 602 
Q 1822 466 2213 466 
Q 2559 466 2825 569 
Q 3091 672 3220 851 
Q 3350 1031 3350 1244 
Q 3350 1459 3225 1620 
Q 3100 1781 2813 1891 
Q 2628 1963 1997 2114 
Q 1366 2266 1113 2400 
Q 784 2572 623 2826 
Q 463 3081 463 3397 
Q 463 3744 659 4045 
Q 856 4347 1234 4503 
Q 1613 4659 2075 4659 
Q 2584 4659 2973 4495 
Q 3363 4331 3572 4012 
Q 3781 3694 3797 3291 
L 3216 3247 
Q 3169 3681 2898 3903 
Q 2628 4125 2100 4125 
Q 1550 4125 1298 3923 
Q 1047 3722 1047 3438 
Q 1047 3191 1225 3031 
Q 1400 2872 2139 2705 
Q 2878 2538 3153 2413 
Q 3553 2228 3743 1945 
Q 3934 1663 3934 1294 
Q 3934 928 3725 604 
Q 3516 281 3123 101 
Q 2731 -78 2241 -78 
Q 1619 -78 1198 103 
Q 778 284 539 648 
Q 300 1013 288 1472 
z
" transform="scale(0.015625)"/>
      <path id="ArialMT-68" d="M 422 0 
L 422 4581 
L 984 4581 
L 984 2938 
Q 1378 3394 1978 3394 
Q 2347 3394 2619 3248 
Q 2891 3103 3008 2847 
Q 3125 2591 3125 2103 
L 3125 0 
L 2563 0 
L 2563 2103 
Q 2563 2525 2380 2717 
Q 2197 2909 1863 2909 
Q 1613 2909 1392 2779 
Q 1172 2650 1078 2428 
Q 984 2206 984 1816 
L 984 0 
L 422 0 
z
" transform="scale(0.015625)"/>
      <path id="ArialMT-75" d="M 2597 0 
L 2597 488 
Q 2209 -75 1544 -75 
Q 1250 -75 995 37 
Q 741 150 617 320 
Q 494 491 444 738 
Q 409 903 409 1263 
L 409 3319 
L 972 3319 
L 972 1478 
Q 972 1038 1006 884 
Q 1059 663 1231 536 
Q 1403 409 1656 409 
Q 1909 409 2131 539 
Q 2353 669 2445 892 
Q 2538 1116 2538 1541 
L 2538 3319 
L 3100 3319 
L 3100 0 
L 2597 0 
z
" transform="scale(0.015625)"/>
      <path id="ArialMT-66" d="M 556 0 
L 556 2881 
L 59 2881 
L 59 3319 
L 556 3319 
L 556 3672 
Q 556 4006 616 4169 
Q 697 4388 901 4523 
Q 1106 4659 1475 4659 
Q 1713 4659 2000 4603 
L 1916 4113 
Q 1741 4144 1584 4144 
Q 1328 4144 1222 4034 
Q 1116 3925 1116 3625 
L 1116 3319 
L 1763 3319 
L 1763 2881 
L 1116 2881 
L 1116 0 
L 556 0 
z
" transform="scale(0.015625)"/>
      <path id="ArialMT-64" d="M 2575 0 
L 2575 419 
Q 2259 -75 1647 -75 
Q 1250 -75 917 144 
Q 584 363 401 755 
Q 219 1147 219 1656 
Q 219 2153 384 2558 
Q 550 2963 881 3178 
Q 1213 3394 1622 3394 
Q 1922 3394 2156 3267 
Q 2391 3141 2538 2938 
L 2538 4581 
L 3097 4581 
L 3097 0 
L 2575 0 
z
M 797 1656 
Q 797 1019 1065 703 
Q 1334 388 1700 388 
Q 2069 388 2326 689 
Q 2584 991 2584 1609 
Q 2584 2291 2321 2609 
Q 2059 2928 1675 2928 
Q 1300 2928 1048 2622 
Q 797 2316 797 1656 
z
" transform="scale(0.015625)"/>
     </defs>
     <use xlink:href="#ArialMT-44"/>
     <use xlink:href="#ArialMT-69" x="72.216797"/>
     <use xlink:href="#ArialMT-76" x="94.433594"/>
     <use xlink:href="#ArialMT-65" x="144.433594"/>
     <use xlink:href="#ArialMT-72" x="200.048828"/>
     <use xlink:href="#ArialMT-67" x="233.349609"/>
     <use xlink:href="#ArialMT-65" x="288.964844"/>
     <use xlink:href="#ArialMT-6e" x="344.580078"/>
     <use xlink:href="#ArialMT-63" x="400.195312"/>
     <use xlink:href="#ArialMT-65" x="450.195312"/>
     <use xlink:href="#ArialMT-20" x="505.810547"/>
     <use xlink:href="#ArialMT-43" x="533.59375"/>
     <use xlink:href="#ArialMT-6f" x="605.810547"/>
     <use xlink:href="#ArialMT-6d" x="661.425781"/>
     <use xlink:href="#ArialMT-70" x="744.726562"/>
     <use xlink:href="#ArialMT-61" x="800.341797"/>
     <use xlink:href="#ArialMT-72" x="855.957031"/>
     <use xlink:href="#ArialMT-69" x="889.257812"/>
     <use xlink:href="#ArialMT-73" x="911.474609"/>
     <use xlink:href="#ArialMT-6f" x="961.474609"/>
     <use xlink:href="#ArialMT-6e" x="1017.089844"/>
     <use xlink:href="#ArialMT-3a" x="1072.705078"/>
     <use xlink:href="#ArialMT-20" x="1100.488281"/>
     <use xlink:href="#ArialMT-4f" x="1128.271484"/>
     <use xlink:href="#ArialMT-72" x="1206.054688"/>
     <use xlink:href="#ArialMT-69" x="1239.355469"/>
     <use xlink:href="#ArialMT-67" x="1261.572266"/>
     <use xlink:href="#ArialMT-69" x="1317.1875"/>
     <use xlink:href="#ArialMT-6e" x="1339.404297"/>
     <use xlink:href="#ArialMT-61" x="1395.019531"/>
     <use xlink:href="#ArialMT-6c" x="1450.634766"/>
     <use xlink:href="#ArialMT-20" x="1472.851562"/>
     <use xlink:href="#ArialMT-76" x="1500.634766"/>
     <use xlink:href="#ArialMT-73" x="1550.634766"/>
     <use xlink:href="#ArialMT-20" x="1600.634766"/>
     <use xlink:href="#ArialMT-53" x="1628.417969"/>
     <use xlink:href="#ArialMT-68" x="1695.117188"/>
     <use xlink:href="#ArialMT-75" x="1750.732422"/>
     <use xlink:href="#ArialMT-66" x="1806.347656"/>
     <use xlink:href="#ArialMT-66" x="1832.380859"/>
     <use xlink:href="#ArialMT-6c" x="1860.164062"/>
     <use xlink:href="#ArialMT-65" x="1882.380859"/>
     <use xlink:href="#ArialMT-64" x="1937.996094"/>
    </g>
   </g>
   <g id="legend_1">
    <g id="patch_5">
     <path d="M 615.14 258.915469 
L 704.741875 258.915469 
Q 706.941875 258.915469 706.941875 256.715469 
L 706.941875 147.784531 
Q 706.941875 145.584531 704.741875 145.584531 
L 615.14 145.584531 
Q 612.94 145.584531 612.94 147.784531 
L 612.94 256.715469 
Q 612.94 258.915469 615.14 258.915469 
z
" style="fill: #ffffff; opacity: 0.8; stroke: #cccccc; stroke-linejoin: miter"/>
    </g>
    <g id="line2d_9">
     <path d="M 617.34 154.149062 
L 628.34 154.149062 
L 639.34 154.149062 
" style="fill: none; stroke: #00008b; stroke-width: 2; stroke-linecap: round"/>
    </g>
    <g id="text_18">
     <!-- Original -->
     <g style="fill: #262626" transform="translate(648.14 157.999062) scale(0.11 -0.11)">
      <use xlink:href="#ArialMT-4f"/>
      <use xlink:href="#ArialMT-72" x="77.783203"/>
      <use xlink:href="#ArialMT-69" x="111.083984"/>
      <use xlink:href="#ArialMT-67" x="133.300781"/>
      <use xlink:href="#ArialMT-69" x="188.916016"/>
      <use xlink:href="#ArialMT-6e" x="211.132812"/>
      <use xlink:href="#ArialMT-61" x="266.748047"/>
      <use xlink:href="#ArialMT-6c" x="322.363281"/>
     </g>
    </g>
    <g id="line2d_10">
     <path d="M 617.34 169.97875 
L 628.34 169.97875 
L 639.34 169.97875 
" style="fill: none; stroke-dasharray: 7.4,3.2; stroke-dashoffset: 0; stroke: #00008b; stroke-width: 2"/>
    </g>
    <g id="text_19">
     <!-- Original -->
     <g style="fill: #262626" transform="translate(648.14 173.82875) scale(0.11 -0.11)">
      <use xlink:href="#ArialMT-4f"/>
      <use xlink:href="#ArialMT-72" x="77.783203"/>
      <use xlink:href="#ArialMT-69" x="111.083984"/>
      <use xlink:href="#ArialMT-67" x="133.300781"/>
      <use xlink:href="#ArialMT-69" x="188.916016"/>
      <use xlink:href="#ArialMT-6e" x="211.132812"/>
      <use xlink:href="#ArialMT-61" x="266.748047"/>
      <use xlink:href="#ArialMT-6c" x="322.363281"/>
     </g>
    </g>
    <g id="PathCollection_3">
     <g>
      <use xlink:href="#md75805e8d0" x="628.34" y="186.662656" style="fill: #00008b; stroke: #00008b"/>
     </g>
    </g>
    <g id="text_20">
     <!-- p &lt; 0.001 -->
     <g style="fill: #262626" transform="translate(648.14 189.550156) scale(0.11 -0.11)">
      <defs>
       <path id="ArialMT-3c" d="M 350 2003 
L 350 2528 
L 3384 3809 
L 3384 3250 
L 978 2263 
L 3384 1266 
L 3384 706 
L 350 2003 
z
" transform="scale(0.015625)"/>
      </defs>
      <use xlink:href="#ArialMT-70"/>
      <use xlink:href="#ArialMT-20" x="55.615234"/>
      <use xlink:href="#ArialMT-3c" x="83.398438"/>
      <use xlink:href="#ArialMT-20" x="141.796875"/>
      <use xlink:href="#ArialMT-30" x="169.580078"/>
      <use xlink:href="#ArialMT-2e" x="225.195312"/>
      <use xlink:href="#ArialMT-30" x="252.978516"/>
      <use xlink:href="#ArialMT-30" x="308.59375"/>
      <use xlink:href="#ArialMT-31" x="364.208984"/>
     </g>
    </g>
    <g id="line2d_11">
     <path d="M 617.34 201.26 
L 628.34 201.26 
L 639.34 201.26 
" style="fill: none; stroke-dasharray: 5.55,2.4; stroke-dashoffset: 0; stroke: #1a1a1a; stroke-width: 1.5"/>
    </g>
    <g id="text_21">
     <!-- Stim Onset -->
     <g style="fill: #262626" transform="translate(648.14 205.11) scale(0.11 -0.11)">
      <defs>
       <path id="ArialMT-74" d="M 1650 503 
L 1731 6 
Q 1494 -44 1306 -44 
Q 1000 -44 831 53 
Q 663 150 594 308 
Q 525 466 525 972 
L 525 2881 
L 113 2881 
L 113 3319 
L 525 3319 
L 525 4141 
L 1084 4478 
L 1084 3319 
L 1650 3319 
L 1650 2881 
L 1084 2881 
L 1084 941 
Q 1084 700 1114 631 
Q 1144 563 1211 522 
Q 1278 481 1403 481 
Q 1497 481 1650 503 
z
" transform="scale(0.015625)"/>
      </defs>
      <use xlink:href="#ArialMT-53"/>
      <use xlink:href="#ArialMT-74" x="66.699219"/>
      <use xlink:href="#ArialMT-69" x="94.482422"/>
      <use xlink:href="#ArialMT-6d" x="116.699219"/>
      <use xlink:href="#ArialMT-20" x="200"/>
      <use xlink:href="#ArialMT-4f" x="227.783203"/>
      <use xlink:href="#ArialMT-6e" x="305.566406"/>
      <use xlink:href="#ArialMT-73" x="361.181641"/>
      <use xlink:href="#ArialMT-65" x="411.181641"/>
      <use xlink:href="#ArialMT-74" x="466.796875"/>
     </g>
    </g>
    <g id="line2d_12">
     <path d="M 617.34 216.819844 
L 628.34 216.819844 
L 639.34 216.819844 
" style="fill: none; stroke-dasharray: 5.55,2.4; stroke-dashoffset: 0; stroke: #1a1a1a; stroke-width: 1.5"/>
    </g>
    <g id="text_22">
     <!-- Stim End -->
     <g style="fill: #262626" transform="translate(648.14 220.669844) scale(0.11 -0.11)">
      <defs>
       <path id="ArialMT-45" d="M 506 0 
L 506 4581 
L 3819 4581 
L 3819 4041 
L 1113 4041 
L 1113 2638 
L 3647 2638 
L 3647 2100 
L 1113 2100 
L 1113 541 
L 3925 541 
L 3925 0 
L 506 0 
z
" transform="scale(0.015625)"/>
      </defs>
      <use xlink:href="#ArialMT-53"/>
      <use xlink:href="#ArialMT-74" x="66.699219"/>
      <use xlink:href="#ArialMT-69" x="94.482422"/>
      <use xlink:href="#ArialMT-6d" x="116.699219"/>
      <use xlink:href="#ArialMT-20" x="200"/>
      <use xlink:href="#ArialMT-45" x="227.783203"/>
      <use xlink:href="#ArialMT-6e" x="294.482422"/>
      <use xlink:href="#ArialMT-64" x="350.097656"/>
     </g>
    </g>
    <g id="line2d_13">
     <path d="M 617.34 232.520625 
L 628.34 232.520625 
L 639.34 232.520625 
" style="fill: none; stroke: #6060eb; stroke-width: 2; stroke-linecap: round"/>
    </g>
    <g id="text_23">
     <!-- Original -->
     <g style="fill: #262626" transform="translate(648.14 236.370625) scale(0.11 -0.11)">
      <use xlink:href="#ArialMT-4f"/>
      <use xlink:href="#ArialMT-72" x="77.783203"/>
      <use xlink:href="#ArialMT-69" x="111.083984"/>
      <use xlink:href="#ArialMT-67" x="133.300781"/>
      <use xlink:href="#ArialMT-69" x="188.916016"/>
      <use xlink:href="#ArialMT-6e" x="211.132812"/>
      <use xlink:href="#ArialMT-61" x="266.748047"/>
      <use xlink:href="#ArialMT-6c" x="322.363281"/>
     </g>
    </g>
    <g id="line2d_14">
     <path d="M 617.34 248.350313 
L 628.34 248.350313 
L 639.34 248.350313 
" style="fill: none; stroke-dasharray: 7.4,3.2; stroke-dashoffset: 0; stroke: #6060eb; stroke-width: 2"/>
    </g>
    <g id="text_24">
     <!-- Original -->
     <g style="fill: #262626" transform="translate(648.14 252.200312) scale(0.11 -0.11)">
      <use xlink:href="#ArialMT-4f"/>
      <use xlink:href="#ArialMT-72" x="77.783203"/>
      <use xlink:href="#ArialMT-69" x="111.083984"/>
      <use xlink:href="#ArialMT-67" x="133.300781"/>
      <use xlink:href="#ArialMT-69" x="188.916016"/>
      <use xlink:href="#ArialMT-6e" x="211.132812"/>
      <use xlink:href="#ArialMT-61" x="266.748047"/>
      <use xlink:href="#ArialMT-6c" x="322.363281"/>
     </g>
    </g>
   </g>
  </g>
 </g>
 <defs>
  <clipPath id="pcd74807a4f">
   <rect x="78.46" y="26.96" width="528.98" height="350.58"/>
  </clipPath>
 </defs>
</svg>
