<?xml version="1.0" encoding="utf-8" standalone="no"?>
<!DOCTYPE svg PUBLIC "-//W3C//DTD SVG 1.1//EN"
  "http://www.w3.org/Graphics/SVG/1.1/DTD/svg11.dtd">
<svg xmlns:xlink="http://www.w3.org/1999/xlink" width="720pt" height="432pt" viewBox="0 0 720 432" xmlns="http://www.w3.org/2000/svg" version="1.1">
 <metadata>
  <rdf:RDF xmlns:dc="http://purl.org/dc/elements/1.1/" xmlns:cc="http://creativecommons.org/ns#" xmlns:rdf="http://www.w3.org/1999/02/22-rdf-syntax-ns#">
   <cc:Work>
    <dc:type rdf:resource="http://purl.org/dc/dcmitype/StillImage"/>
    <dc:date>2025-11-30T18:18:02.327875</dc:date>
    <dc:format>image/svg+xml</dc:format>
    <dc:creator>
     <cc:Agent>
      <dc:title>Matplotlib v3.9.4, https://matplotlib.org/</dc:title>
     </cc:Agent>
    </dc:creator>
   </cc:Work>
  </rdf:RDF>
 </metadata>
 <defs>
  <style type="text/css">*{stroke-linejoin: round; stroke-linecap: butt}</style>
 </defs>
 <g id="figure_1">
  <g id="patch_1">
   <path d="M 0 432 
L 720 432 
L 720 0 
L 0 0 
z
" style="fill: #ffffff"/>
  </g>
  <g id="axes_1">
   <g id="patch_2">
    <path d="M 77.46 378.54 
L 607.44 378.54 
L 607.44 26.96 
L 77.46 26.96 
L 77.46 378.54 
z
" style="fill: none"/>
   </g>
   <g id="matplotlib.axis_1">
    <g id="xtick_1">
     <g id="line2d_1">
      <defs>
       <path id="m34fba3b69b" d="M 0 0 
L 0 5 
" style="stroke: #262626; stroke-width: 1.5"/>
      </defs>
      <g>
       <use xlink:href="#m34fba3b69b" x="144.955405" y="378.54" style="fill: #262626; stroke: #262626; stroke-width: 1.5"/>
      </g>
     </g>
     <g id="text_1">
      <!-- 0 -->
      <g style="fill: #262626" transform="translate(140.784702 397.776719) scale(0.15 -0.15)">
       <defs>
        <path id="ArialMT-30" d="M 266 2259 
Q 266 3072 433 3567 
Q 600 4063 929 4331 
Q 1259 4600 1759 4600 
Q 2128 4600 2406 4451 
Q 2684 4303 2865 4023 
Q 3047 3744 3150 3342 
Q 3253 2941 3253 2259 
Q 3253 1453 3087 958 
Q 2922 463 2592 192 
Q 2263 -78 1759 -78 
Q 1097 -78 719 397 
Q 266 969 266 2259 
z
M 844 2259 
Q 844 1131 1108 757 
Q 1372 384 1759 384 
Q 2147 384 2411 759 
Q 2675 1134 2675 2259 
Q 2675 3391 2411 3762 
Q 2147 4134 1753 4134 
Q 1366 4134 1134 3806 
Q 844 3388 844 2259 
z
" transform="scale(0.015625)"/>
       </defs>
       <use xlink:href="#ArialMT-30"/>
      </g>
     </g>
    </g>
    <g id="xtick_2">
     <g id="line2d_2">
      <g>
       <use xlink:href="#m34fba3b69b" x="253.468919" y="378.54" style="fill: #262626; stroke: #262626; stroke-width: 1.5"/>
      </g>
     </g>
     <g id="text_2">
      <!-- 500 -->
      <g style="fill: #262626" transform="translate(240.95681 397.776719) scale(0.15 -0.15)">
       <defs>
        <path id="ArialMT-35" d="M 266 1200 
L 856 1250 
Q 922 819 1161 601 
Q 1400 384 1738 384 
Q 2144 384 2425 690 
Q 2706 997 2706 1503 
Q 2706 1984 2436 2262 
Q 2166 2541 1728 2541 
Q 1456 2541 1237 2417 
Q 1019 2294 894 2097 
L 366 2166 
L 809 4519 
L 3088 4519 
L 3088 3981 
L 1259 3981 
L 1013 2750 
Q 1425 3038 1878 3038 
Q 2478 3038 2890 2622 
Q 3303 2206 3303 1553 
Q 3303 931 2941 478 
Q 2500 -78 1738 -78 
Q 1113 -78 717 272 
Q 322 622 266 1200 
z
" transform="scale(0.015625)"/>
       </defs>
       <use xlink:href="#ArialMT-35"/>
       <use xlink:href="#ArialMT-30" x="55.615234"/>
       <use xlink:href="#ArialMT-30" x="111.230469"/>
      </g>
     </g>
    </g>
    <g id="xtick_3">
     <g id="line2d_3">
      <g>
       <use xlink:href="#m34fba3b69b" x="361.982432" y="378.54" style="fill: #262626; stroke: #262626; stroke-width: 1.5"/>
      </g>
     </g>
     <g id="text_3">
      <!-- 1000 -->
      <g style="fill: #262626" transform="translate(345.29962 397.776719) scale(0.15 -0.15)">
       <defs>
        <path id="ArialMT-31" d="M 2384 0 
L 1822 0 
L 1822 3584 
Q 1619 3391 1289 3197 
Q 959 3003 697 2906 
L 697 3450 
Q 1169 3672 1522 3987 
Q 1875 4303 2022 4600 
L 2384 4600 
L 2384 0 
z
" transform="scale(0.015625)"/>
       </defs>
       <use xlink:href="#ArialMT-31"/>
       <use xlink:href="#ArialMT-30" x="55.615234"/>
       <use xlink:href="#ArialMT-30" x="111.230469"/>
       <use xlink:href="#ArialMT-30" x="166.845703"/>
      </g>
     </g>
    </g>
    <g id="xtick_4">
     <g id="line2d_4">
      <g>
       <use xlink:href="#m34fba3b69b" x="470.495946" y="378.54" style="fill: #262626; stroke: #262626; stroke-width: 1.5"/>
      </g>
     </g>
     <g id="text_4">
      <!-- 1500 -->
      <g style="fill: #262626" transform="translate(453.813133 397.776719) scale(0.15 -0.15)">
       <use xlink:href="#ArialMT-31"/>
       <use xlink:href="#ArialMT-35" x="55.615234"/>
       <use xlink:href="#ArialMT-30" x="111.230469"/>
       <use xlink:href="#ArialMT-30" x="166.845703"/>
      </g>
     </g>
    </g>
    <g id="xtick_5">
     <g id="line2d_5">
      <g>
       <use xlink:href="#m34fba3b69b" x="579.009459" y="378.54" style="fill: #262626; stroke: #262626; stroke-width: 1.5"/>
      </g>
     </g>
     <g id="text_5">
      <!-- 2000 -->
      <g style="fill: #262626" transform="translate(562.326647 397.776719) scale(0.15 -0.15)">
       <defs>
        <path id="ArialMT-32" d="M 3222 541 
L 3222 0 
L 194 0 
Q 188 203 259 391 
Q 375 700 629 1000 
Q 884 1300 1366 1694 
Q 2113 2306 2375 2664 
Q 2638 3022 2638 3341 
Q 2638 3675 2398 3904 
Q 2159 4134 1775 4134 
Q 1369 4134 1125 3890 
Q 881 3647 878 3216 
L 300 3275 
Q 359 3922 746 4261 
Q 1134 4600 1788 4600 
Q 2447 4600 2831 4234 
Q 3216 3869 3216 3328 
Q 3216 3053 3103 2787 
Q 2991 2522 2730 2228 
Q 2469 1934 1863 1422 
Q 1356 997 1212 845 
Q 1069 694 975 541 
L 3222 541 
z
" transform="scale(0.015625)"/>
       </defs>
       <use xlink:href="#ArialMT-32"/>
       <use xlink:href="#ArialMT-30" x="55.615234"/>
       <use xlink:href="#ArialMT-30" x="111.230469"/>
       <use xlink:href="#ArialMT-30" x="166.845703"/>
      </g>
     </g>
    </g>
    <g id="text_6">
     <!-- Time (s) -->
     <g style="fill: #262626" transform="translate(315.237891 415.6775) scale(0.15 -0.15)">
      <defs>
       <path id="ArialMT-54" d="M 1659 0 
L 1659 4041 
L 150 4041 
L 150 4581 
L 3781 4581 
L 3781 4041 
L 2266 4041 
L 2266 0 
L 1659 0 
z
" transform="scale(0.015625)"/>
       <path id="ArialMT-69" d="M 425 3934 
L 425 4581 
L 988 4581 
L 988 3934 
L 425 3934 
z
M 425 0 
L 425 3319 
L 988 3319 
L 988 0 
L 425 0 
z
" transform="scale(0.015625)"/>
       <path id="ArialMT-6d" d="M 422 0 
L 422 3319 
L 925 3319 
L 925 2853 
Q 1081 3097 1340 3245 
Q 1600 3394 1931 3394 
Q 2300 3394 2536 3241 
Q 2772 3088 2869 2813 
Q 3263 3394 3894 3394 
Q 4388 3394 4653 3120 
Q 4919 2847 4919 2278 
L 4919 0 
L 4359 0 
L 4359 2091 
Q 4359 2428 4304 2576 
Q 4250 2725 4106 2815 
Q 3963 2906 3769 2906 
Q 3419 2906 3187 2673 
Q 2956 2441 2956 1928 
L 2956 0 
L 2394 0 
L 2394 2156 
Q 2394 2531 2256 2718 
Q 2119 2906 1806 2906 
Q 1569 2906 1367 2781 
Q 1166 2656 1075 2415 
Q 984 2175 984 1722 
L 984 0 
L 422 0 
z
" transform="scale(0.015625)"/>
       <path id="ArialMT-65" d="M 2694 1069 
L 3275 997 
Q 3138 488 2766 206 
Q 2394 -75 1816 -75 
Q 1088 -75 661 373 
Q 234 822 234 1631 
Q 234 2469 665 2931 
Q 1097 3394 1784 3394 
Q 2450 3394 2872 2941 
Q 3294 2488 3294 1666 
Q 3294 1616 3291 1516 
L 816 1516 
Q 847 969 1125 678 
Q 1403 388 1819 388 
Q 2128 388 2347 550 
Q 2566 713 2694 1069 
z
M 847 1978 
L 2700 1978 
Q 2663 2397 2488 2606 
Q 2219 2931 1791 2931 
Q 1403 2931 1139 2672 
Q 875 2413 847 1978 
z
" transform="scale(0.015625)"/>
       <path id="ArialMT-20" transform="scale(0.015625)"/>
       <path id="ArialMT-28" d="M 1497 -1347 
Q 1031 -759 709 28 
Q 388 816 388 1659 
Q 388 2403 628 3084 
Q 909 3875 1497 4659 
L 1900 4659 
Q 1522 4009 1400 3731 
Q 1209 3300 1100 2831 
Q 966 2247 966 1656 
Q 966 153 1900 -1347 
L 1497 -1347 
z
" transform="scale(0.015625)"/>
       <path id="ArialMT-73" d="M 197 991 
L 753 1078 
Q 800 744 1014 566 
Q 1228 388 1613 388 
Q 2000 388 2187 545 
Q 2375 703 2375 916 
Q 2375 1106 2209 1216 
Q 2094 1291 1634 1406 
Q 1016 1563 777 1677 
Q 538 1791 414 1992 
Q 291 2194 291 2438 
Q 291 2659 392 2848 
Q 494 3038 669 3163 
Q 800 3259 1026 3326 
Q 1253 3394 1513 3394 
Q 1903 3394 2198 3281 
Q 2494 3169 2634 2976 
Q 2775 2784 2828 2463 
L 2278 2388 
Q 2241 2644 2061 2787 
Q 1881 2931 1553 2931 
Q 1166 2931 1000 2803 
Q 834 2675 834 2503 
Q 834 2394 903 2306 
Q 972 2216 1119 2156 
Q 1203 2125 1616 2013 
Q 2213 1853 2448 1751 
Q 2684 1650 2818 1456 
Q 2953 1263 2953 975 
Q 2953 694 2789 445 
Q 2625 197 2315 61 
Q 2006 -75 1616 -75 
Q 969 -75 630 194 
Q 291 463 197 991 
z
" transform="scale(0.015625)"/>
       <path id="ArialMT-29" d="M 791 -1347 
L 388 -1347 
Q 1322 153 1322 1656 
Q 1322 2244 1188 2822 
Q 1081 3291 891 3722 
Q 769 4003 388 4659 
L 791 4659 
Q 1378 3875 1659 3084 
Q 1900 2403 1900 1659 
Q 1900 816 1576 28 
Q 1253 -759 791 -1347 
z
" transform="scale(0.015625)"/>
      </defs>
      <use xlink:href="#ArialMT-54"/>
      <use xlink:href="#ArialMT-69" x="57.333984"/>
      <use xlink:href="#ArialMT-6d" x="79.550781"/>
      <use xlink:href="#ArialMT-65" x="162.851562"/>
      <use xlink:href="#ArialMT-20" x="218.466797"/>
      <use xlink:href="#ArialMT-28" x="246.25"/>
      <use xlink:href="#ArialMT-73" x="279.550781"/>
      <use xlink:href="#ArialMT-29" x="329.550781"/>
     </g>
    </g>
   </g>
   <g id="matplotlib.axis_2">
    <g id="ytick_1">
     <g id="line2d_6">
      <defs>
       <path id="mf12775eb6c" d="M 0 0 
L -5 0 
" style="stroke: #262626; stroke-width: 1.5"/>
      </defs>
      <g>
       <use xlink:href="#mf12775eb6c" x="77.46" y="321.989294" style="fill: #262626; stroke: #262626; stroke-width: 1.5"/>
      </g>
     </g>
     <g id="text_7">
      <!-- −0.05 -->
      <g style="fill: #262626" transform="translate(31.007656 327.357654) scale(0.15 -0.15)">
       <defs>
        <path id="ArialMT-2212" d="M 3381 1997 
L 356 1997 
L 356 2522 
L 3381 2522 
L 3381 1997 
z
" transform="scale(0.015625)"/>
        <path id="ArialMT-2e" d="M 581 0 
L 581 641 
L 1222 641 
L 1222 0 
L 581 0 
z
" transform="scale(0.015625)"/>
       </defs>
       <use xlink:href="#ArialMT-2212"/>
       <use xlink:href="#ArialMT-30" x="58.398438"/>
       <use xlink:href="#ArialMT-2e" x="114.013672"/>
       <use xlink:href="#ArialMT-30" x="141.796875"/>
       <use xlink:href="#ArialMT-35" x="197.412109"/>
      </g>
     </g>
    </g>
    <g id="ytick_2">
     <g id="line2d_7">
      <g>
       <use xlink:href="#mf12775eb6c" x="77.46" y="254.324282" style="fill: #262626; stroke: #262626; stroke-width: 1.5"/>
      </g>
     </g>
     <g id="text_8">
      <!-- 0.00 -->
      <g style="fill: #262626" transform="translate(39.768594 259.692641) scale(0.15 -0.15)">
       <use xlink:href="#ArialMT-30"/>
       <use xlink:href="#ArialMT-2e" x="55.615234"/>
       <use xlink:href="#ArialMT-30" x="83.398438"/>
       <use xlink:href="#ArialMT-30" x="139.013672"/>
      </g>
     </g>
    </g>
    <g id="ytick_3">
     <g id="line2d_8">
      <g>
       <use xlink:href="#mf12775eb6c" x="77.46" y="186.659269" style="fill: #262626; stroke: #262626; stroke-width: 1.5"/>
      </g>
     </g>
     <g id="text_9">
      <!-- 0.05 -->
      <g style="fill: #262626" transform="translate(39.768594 192.027628) scale(0.15 -0.15)">
       <use xlink:href="#ArialMT-30"/>
       <use xlink:href="#ArialMT-2e" x="55.615234"/>
       <use xlink:href="#ArialMT-30" x="83.398438"/>
       <use xlink:href="#ArialMT-35" x="139.013672"/>
      </g>
     </g>
    </g>
    <g id="ytick_4">
     <g id="line2d_9">
      <g>
       <use xlink:href="#mf12775eb6c" x="77.46" y="118.994256" style="fill: #262626; stroke: #262626; stroke-width: 1.5"/>
      </g>
     </g>
     <g id="text_10">
      <!-- 0.10 -->
      <g style="fill: #262626" transform="translate(39.768594 124.362615) scale(0.15 -0.15)">
       <use xlink:href="#ArialMT-30"/>
       <use xlink:href="#ArialMT-2e" x="55.615234"/>
       <use xlink:href="#ArialMT-31" x="83.398438"/>
       <use xlink:href="#ArialMT-30" x="139.013672"/>
      </g>
     </g>
    </g>
    <g id="ytick_5">
     <g id="line2d_10">
      <g>
       <use xlink:href="#mf12775eb6c" x="77.46" y="51.329243" style="fill: #262626; stroke: #262626; stroke-width: 1.5"/>
      </g>
     </g>
     <g id="text_11">
      <!-- 0.15 -->
      <g style="fill: #262626" transform="translate(39.768594 56.697603) scale(0.15 -0.15)">
       <use xlink:href="#ArialMT-30"/>
       <use xlink:href="#ArialMT-2e" x="55.615234"/>
       <use xlink:href="#ArialMT-31" x="83.398438"/>
       <use xlink:href="#ArialMT-35" x="139.013672"/>
      </g>
     </g>
    </g>
    <g id="text_12">
     <!-- Divergence -->
     <g style="fill: #262626" transform="translate(23.850625 240.683594) rotate(-90) scale(0.15 -0.15)">
      <defs>
       <path id="ArialMT-44" d="M 494 0 
L 494 4581 
L 2072 4581 
Q 2606 4581 2888 4516 
Q 3281 4425 3559 4188 
Q 3922 3881 4101 3404 
Q 4281 2928 4281 2316 
Q 4281 1794 4159 1391 
Q 4038 988 3847 723 
Q 3656 459 3429 307 
Q 3203 156 2883 78 
Q 2563 0 2147 0 
L 494 0 
z
M 1100 541 
L 2078 541 
Q 2531 541 2789 625 
Q 3047 709 3200 863 
Q 3416 1078 3536 1442 
Q 3656 1806 3656 2325 
Q 3656 3044 3420 3430 
Q 3184 3816 2847 3947 
Q 2603 4041 2063 4041 
L 1100 4041 
L 1100 541 
z
" transform="scale(0.015625)"/>
       <path id="ArialMT-76" d="M 1344 0 
L 81 3319 
L 675 3319 
L 1388 1331 
Q 1503 1009 1600 663 
Q 1675 925 1809 1294 
L 2547 3319 
L 3125 3319 
L 1869 0 
L 1344 0 
z
" transform="scale(0.015625)"/>
       <path id="ArialMT-72" d="M 416 0 
L 416 3319 
L 922 3319 
L 922 2816 
Q 1116 3169 1280 3281 
Q 1444 3394 1641 3394 
Q 1925 3394 2219 3213 
L 2025 2691 
Q 1819 2813 1613 2813 
Q 1428 2813 1281 2702 
Q 1134 2591 1072 2394 
Q 978 2094 978 1738 
L 978 0 
L 416 0 
z
" transform="scale(0.015625)"/>
       <path id="ArialMT-67" d="M 319 -275 
L 866 -356 
Q 900 -609 1056 -725 
Q 1266 -881 1628 -881 
Q 2019 -881 2231 -725 
Q 2444 -569 2519 -288 
Q 2563 -116 2559 434 
Q 2191 0 1641 0 
Q 956 0 581 494 
Q 206 988 206 1678 
Q 206 2153 378 2554 
Q 550 2956 876 3175 
Q 1203 3394 1644 3394 
Q 2231 3394 2613 2919 
L 2613 3319 
L 3131 3319 
L 3131 450 
Q 3131 -325 2973 -648 
Q 2816 -972 2473 -1159 
Q 2131 -1347 1631 -1347 
Q 1038 -1347 672 -1080 
Q 306 -813 319 -275 
z
M 784 1719 
Q 784 1066 1043 766 
Q 1303 466 1694 466 
Q 2081 466 2343 764 
Q 2606 1063 2606 1700 
Q 2606 2309 2336 2618 
Q 2066 2928 1684 2928 
Q 1309 2928 1046 2623 
Q 784 2319 784 1719 
z
" transform="scale(0.015625)"/>
       <path id="ArialMT-6e" d="M 422 0 
L 422 3319 
L 928 3319 
L 928 2847 
Q 1294 3394 1984 3394 
Q 2284 3394 2536 3286 
Q 2788 3178 2913 3003 
Q 3038 2828 3088 2588 
Q 3119 2431 3119 2041 
L 3119 0 
L 2556 0 
L 2556 2019 
Q 2556 2363 2490 2533 
Q 2425 2703 2258 2804 
Q 2091 2906 1866 2906 
Q 1506 2906 1245 2678 
Q 984 2450 984 1813 
L 984 0 
L 422 0 
z
" transform="scale(0.015625)"/>
       <path id="ArialMT-63" d="M 2588 1216 
L 3141 1144 
Q 3050 572 2676 248 
Q 2303 -75 1759 -75 
Q 1078 -75 664 370 
Q 250 816 250 1647 
Q 250 2184 428 2587 
Q 606 2991 970 3192 
Q 1334 3394 1763 3394 
Q 2303 3394 2647 3120 
Q 2991 2847 3088 2344 
L 2541 2259 
Q 2463 2594 2264 2762 
Q 2066 2931 1784 2931 
Q 1359 2931 1093 2626 
Q 828 2322 828 1663 
Q 828 994 1084 691 
Q 1341 388 1753 388 
Q 2084 388 2306 591 
Q 2528 794 2588 1216 
z
" transform="scale(0.015625)"/>
      </defs>
      <use xlink:href="#ArialMT-44"/>
      <use xlink:href="#ArialMT-69" x="72.216797"/>
      <use xlink:href="#ArialMT-76" x="94.433594"/>
      <use xlink:href="#ArialMT-65" x="144.433594"/>
      <use xlink:href="#ArialMT-72" x="200.048828"/>
      <use xlink:href="#ArialMT-67" x="233.349609"/>
      <use xlink:href="#ArialMT-65" x="288.964844"/>
      <use xlink:href="#ArialMT-6e" x="344.580078"/>
      <use xlink:href="#ArialMT-63" x="400.195312"/>
      <use xlink:href="#ArialMT-65" x="450.195312"/>
     </g>
    </g>
   </g>
   <g id="PolyCollection_1">
    <defs>
     <path id="m24ce54d30e" d="M 101.55 -178.98307 
L 101.55 -168.229091 
L 105.890541 -162.845985 
L 110.231081 -173.327826 
L 114.571622 -177.707397 
L 118.912162 -168.184195 
L 123.252703 -167.112921 
L 127.593243 -177.756299 
L 131.933784 -170.496922 
L 136.274324 -168.44475 
L 140.614865 -176.179319 
L 144.955405 -135.180886 
L 149.295946 -121.651903 
L 153.636486 -118.7423 
L 157.977027 -131.822495 
L 162.317568 -145.253737 
L 166.658108 -180.657005 
L 170.998649 -191.142114 
L 175.339189 -206.486534 
L 179.67973 -239.7096 
L 184.02027 -255.893918 
L 188.360811 -213.860206 
L 192.701351 -171.72309 
L 197.041892 -147.164553 
L 201.382432 -146.601448 
L 205.722973 -155.273454 
L 210.063514 -159.147664 
L 214.404054 -169.585021 
L 218.744595 -157.985742 
L 223.085135 -125.227539 
L 227.425676 -90.623625 
L 231.766216 -102.310791 
L 236.106757 -154.582112 
L 240.447297 -179.925408 
L 244.787838 -172.020662 
L 249.128378 -144.93878 
L 253.468919 -145.786182 
L 257.809459 -155.850292 
L 262.15 -159.428884 
L 266.490541 -204.312322 
L 270.831081 -197.314168 
L 275.171622 -181.493065 
L 279.512162 -164.739012 
L 283.852703 -152.18088 
L 288.193243 -139.095855 
L 292.533784 -155.351013 
L 296.874324 -173.473303 
L 301.214865 -190.164206 
L 305.555405 -200.125516 
L 309.895946 -200.288576 
L 314.236486 -217.531091 
L 318.577027 -232.743402 
L 322.917568 -212.739869 
L 327.258108 -187.282702 
L 331.598649 -163.79465 
L 335.939189 -167.128256 
L 340.27973 -172.649842 
L 344.62027 -173.838511 
L 348.960811 -180.887217 
L 353.301351 -169.405371 
L 357.641892 -177.16079 
L 361.982432 -198.769584 
L 366.322973 -220.950738 
L 370.663514 -221.160824 
L 375.004054 -156.068798 
L 379.344595 -96.1757 
L 383.685135 -69.440909 
L 388.025676 -77.258439 
L 392.366216 -98.850357 
L 396.706757 -101.012331 
L 401.047297 -113.996577 
L 405.387838 -114.278942 
L 409.728378 -104.374242 
L 414.068919 -124.490316 
L 418.409459 -124.712947 
L 422.75 -141.857012 
L 427.090541 -139.018193 
L 431.431081 -118.540993 
L 435.771622 -84.831829 
L 440.112162 -76.522589 
L 444.452703 -89.985159 
L 448.793243 -113.30944 
L 453.133784 -157.616765 
L 457.474324 -213.85124 
L 461.814865 -208.989568 
L 466.155405 -188.126859 
L 470.495946 -172.916636 
L 474.836486 -137.710897 
L 479.177027 -141.277078 
L 483.517568 -144.121294 
L 487.858108 -133.925129 
L 492.198649 -129.136453 
L 496.539189 -120.937036 
L 500.87973 -123.334891 
L 505.22027 -115.84193 
L 509.560811 -121.116701 
L 513.901351 -120.877253 
L 518.241892 -117.044409 
L 522.582432 -120.958789 
L 526.922973 -116.596944 
L 531.263514 -107.616559 
L 535.604054 -105.897602 
L 539.944595 -106.187541 
L 544.285135 -115.898276 
L 548.625676 -121.215103 
L 552.966216 -106.697419 
L 557.306757 -121.104439 
L 561.647297 -117.414891 
L 565.987838 -120.813748 
L 570.328378 -117.751816 
L 574.668919 -122.424459 
L 579.009459 -115.346509 
L 583.35 -119.753174 
L 583.35 -138.700006 
L 583.35 -138.700006 
L 579.009459 -133.75712 
L 574.668919 -143.638111 
L 570.328378 -136.282577 
L 565.987838 -139.902416 
L 561.647297 -136.060884 
L 557.306757 -142.688276 
L 552.966216 -126.794732 
L 548.625676 -142.285389 
L 544.285135 -134.04265 
L 539.944595 -128.031826 
L 535.604054 -126.857195 
L 531.263514 -127.269783 
L 526.922973 -137.67814 
L 522.582432 -140.77206 
L 518.241892 -135.163814 
L 513.901351 -140.051893 
L 509.560811 -141.69149 
L 505.22027 -138.671404 
L 500.87973 -143.81028 
L 496.539189 -139.307308 
L 492.198649 -147.559632 
L 487.858108 -150.053919 
L 483.517568 -161.004504 
L 479.177027 -157.696269 
L 474.836486 -153.865182 
L 470.495946 -188.007525 
L 466.155405 -203.590094 
L 461.814865 -225.100644 
L 457.474324 -229.139667 
L 453.133784 -174.511535 
L 448.793243 -132.876799 
L 444.452703 -115.181103 
L 440.112162 -105.771183 
L 435.771622 -113.963462 
L 431.431081 -141.201889 
L 427.090541 -158.371028 
L 422.75 -164.431174 
L 418.409459 -144.474684 
L 414.068919 -147.574778 
L 409.728378 -128.805871 
L 405.387838 -139.342456 
L 401.047297 -137.896754 
L 396.706757 -125.538562 
L 392.366216 -124.798729 
L 388.025676 -103.349079 
L 383.685135 -100.933226 
L 379.344595 -127.238862 
L 375.004054 -186.407214 
L 370.663514 -247.243041 
L 366.322973 -242.492261 
L 361.982432 -217.816755 
L 357.641892 -196.287556 
L 353.301351 -190.272822 
L 348.960811 -201.150524 
L 344.62027 -194.663169 
L 340.27973 -190.721287 
L 335.939189 -184.137455 
L 331.598649 -179.826179 
L 327.258108 -203.545118 
L 322.917568 -225.721289 
L 318.577027 -245.031624 
L 314.236486 -230.27013 
L 309.895946 -211.721862 
L 305.555405 -210.671894 
L 301.214865 -202.662925 
L 296.874324 -185.417788 
L 292.533784 -169.480939 
L 288.193243 -150.837207 
L 283.852703 -165.436781 
L 279.512162 -176.606682 
L 275.171622 -194.106862 
L 270.831081 -210.776738 
L 266.490541 -216.904254 
L 262.15 -172.229449 
L 257.809459 -169.458918 
L 253.468919 -159.94591 
L 249.128378 -161.322439 
L 244.787838 -186.643792 
L 240.447297 -193.498534 
L 236.106757 -168.449523 
L 231.766216 -118.863225 
L 227.425676 -110.236915 
L 223.085135 -142.344891 
L 218.744595 -172.992176 
L 214.404054 -184.193313 
L 210.063514 -173.672355 
L 205.722973 -169.451454 
L 201.382432 -163.16564 
L 197.041892 -164.365977 
L 192.701351 -187.002383 
L 188.360811 -229.843768 
L 184.02027 -273.207827 
L 179.67973 -255.592056 
L 175.339189 -221.782449 
L 170.998649 -208.871478 
L 166.658108 -195.104857 
L 162.317568 -158.09089 
L 157.977027 -148.947879 
L 153.636486 -134.648973 
L 149.295946 -137.786372 
L 144.955405 -148.543388 
L 140.614865 -189.171117 
L 136.274324 -181.213616 
L 131.933784 -181.772271 
L 127.593243 -190.680314 
L 123.252703 -179.925175 
L 118.912162 -180.3557 
L 114.571622 -188.86149 
L 110.231081 -184.794974 
L 105.890541 -173.363217 
L 101.55 -178.98307 
z
" style="stroke: #1e72ff; stroke-opacity: 0.1"/>
    </defs>
    <g clip-path="url(#pb2db82ea16)">
     <use xlink:href="#m24ce54d30e" x="0" y="432" style="fill: #1e72ff; fill-opacity: 0.1; stroke: #1e72ff; stroke-opacity: 0.1"/>
    </g>
   </g>
   <g id="PolyCollection_2">
    <defs>
     <path id="md18e757105" d="M 101.55 -176.764929 
L 101.55 -174.53381 
L 105.890541 -176.555833 
L 110.231081 -175.566205 
L 114.571622 -175.232903 
L 118.912162 -173.707157 
L 123.252703 -174.363935 
L 127.593243 -174.738403 
L 131.933784 -175.339161 
L 136.274324 -176.451206 
L 140.614865 -176.147644 
L 144.955405 -175.374482 
L 149.295946 -180.482004 
L 153.636486 -182.526619 
L 157.977027 -185.280186 
L 162.317568 -186.082044 
L 166.658108 -182.266866 
L 170.998649 -175.641999 
L 175.339189 -174.00013 
L 179.67973 -174.431218 
L 184.02027 -183.73711 
L 188.360811 -189.114848 
L 192.701351 -180.866688 
L 197.041892 -165.391776 
L 201.382432 -154.212034 
L 205.722973 -153.790848 
L 210.063514 -159.111039 
L 214.404054 -172.20565 
L 218.744595 -187.765233 
L 223.085135 -199.514733 
L 227.425676 -203.435242 
L 231.766216 -199.062047 
L 236.106757 -198.089647 
L 240.447297 -199.574824 
L 244.787838 -195.113927 
L 249.128378 -186.890251 
L 253.468919 -184.964444 
L 257.809459 -179.392792 
L 262.15 -175.176213 
L 266.490541 -180.773341 
L 270.831081 -191.937532 
L 275.171622 -189.200972 
L 279.512162 -184.042228 
L 283.852703 -184.569383 
L 288.193243 -183.407001 
L 292.533784 -186.493971 
L 296.874324 -186.010561 
L 301.214865 -183.04727 
L 305.555405 -180.81141 
L 309.895946 -180.171946 
L 314.236486 -181.374735 
L 318.577027 -181.981925 
L 322.917568 -178.437312 
L 327.258108 -177.670906 
L 331.598649 -179.272779 
L 335.939189 -178.698926 
L 340.27973 -175.728902 
L 344.62027 -173.998281 
L 348.960811 -176.553537 
L 353.301351 -179.198056 
L 357.641892 -180.448557 
L 361.982432 -176.744905 
L 366.322973 -181.647438 
L 370.663514 -185.16121 
L 375.004054 -184.783139 
L 379.344595 -182.111006 
L 383.685135 -179.44787 
L 388.025676 -182.454547 
L 392.366216 -181.157233 
L 396.706757 -182.701823 
L 401.047297 -174.601106 
L 405.387838 -173.37545 
L 409.728378 -170.824055 
L 414.068919 -173.557671 
L 418.409459 -180.58697 
L 422.75 -183.362039 
L 427.090541 -185.896977 
L 431.431081 -186.225999 
L 435.771622 -186.48679 
L 440.112162 -183.958957 
L 444.452703 -186.643398 
L 448.793243 -184.7648 
L 453.133784 -177.727118 
L 457.474324 -171.920579 
L 461.814865 -179.499787 
L 466.155405 -176.740362 
L 470.495946 -175.269652 
L 474.836486 -178.241075 
L 479.177027 -178.351171 
L 483.517568 -179.686209 
L 487.858108 -178.378499 
L 492.198649 -178.614947 
L 496.539189 -176.147993 
L 500.87973 -173.925952 
L 505.22027 -175.517203 
L 509.560811 -175.297662 
L 513.901351 -175.335901 
L 518.241892 -173.534162 
L 522.582432 -173.639265 
L 526.922973 -172.824167 
L 531.263514 -173.000547 
L 535.604054 -174.937526 
L 539.944595 -174.547246 
L 544.285135 -177.486095 
L 548.625676 -174.238315 
L 552.966216 -174.862012 
L 557.306757 -177.634287 
L 561.647297 -172.344455 
L 565.987838 -176.230214 
L 570.328378 -174.817716 
L 574.668919 -175.657782 
L 579.009459 -176.616453 
L 583.35 -174.310357 
L 583.35 -176.785475 
L 583.35 -176.785475 
L 579.009459 -178.847351 
L 574.668919 -178.059656 
L 570.328378 -177.116318 
L 565.987838 -178.910856 
L 561.647297 -174.854568 
L 557.306757 -180.065438 
L 552.966216 -177.158229 
L 548.625676 -176.576648 
L 544.285135 -179.423864 
L 539.944595 -177.326187 
L 535.604054 -177.535991 
L 531.263514 -175.379128 
L 526.922973 -176.020151 
L 522.582432 -176.299827 
L 518.241892 -176.115485 
L 513.901351 -177.525856 
L 509.560811 -177.723118 
L 505.22027 -177.955408 
L 500.87973 -176.747128 
L 496.539189 -178.039896 
L 492.198649 -181.01586 
L 487.858108 -180.853308 
L 483.517568 -182.000881 
L 479.177027 -181.31215 
L 474.836486 -180.924712 
L 470.495946 -178.00119 
L 466.155405 -179.815643 
L 461.814865 -183.031 
L 457.474324 -175.473887 
L 453.133784 -180.820445 
L 448.793243 -187.913423 
L 444.452703 -189.950213 
L 440.112162 -188.150084 
L 435.771622 -190.126882 
L 431.431081 -189.315136 
L 427.090541 -189.23582 
L 422.75 -187.358352 
L 418.409459 -184.578947 
L 414.068919 -177.432118 
L 409.728378 -174.471999 
L 405.387838 -176.872173 
L 401.047297 -178.042929 
L 396.706757 -186.026377 
L 392.366216 -184.172006 
L 388.025676 -185.889263 
L 383.685135 -182.593361 
L 379.344595 -185.473558 
L 375.004054 -187.526199 
L 370.663514 -188.523509 
L 366.322973 -184.977798 
L 361.982432 -179.68806 
L 357.641892 -183.539467 
L 353.301351 -181.686657 
L 348.960811 -179.474236 
L 344.62027 -177.428391 
L 340.27973 -178.334773 
L 335.939189 -181.281958 
L 331.598649 -182.06697 
L 327.258108 -180.64178 
L 322.917568 -181.163992 
L 318.577027 -184.773739 
L 314.236486 -184.165064 
L 309.895946 -182.920248 
L 305.555405 -183.523335 
L 301.214865 -185.989801 
L 296.874324 -188.998594 
L 292.533784 -189.90863 
L 288.193243 -186.255179 
L 283.852703 -187.44585 
L 279.512162 -186.866905 
L 275.171622 -191.791909 
L 270.831081 -194.604975 
L 266.490541 -183.889529 
L 262.15 -179.064004 
L 257.809459 -183.334813 
L 253.468919 -188.11462 
L 249.128378 -190.228735 
L 244.787838 -199.423642 
L 240.447297 -203.967389 
L 236.106757 -202.209856 
L 231.766216 -203.166081 
L 227.425676 -208.565286 
L 223.085135 -205.877615 
L 218.744595 -193.018593 
L 214.404054 -175.924961 
L 210.063514 -162.777264 
L 205.722973 -157.706627 
L 201.382432 -158.384227 
L 197.041892 -169.625468 
L 192.701351 -184.862032 
L 188.360811 -192.342465 
L 184.02027 -186.691574 
L 179.67973 -177.159687 
L 175.339189 -177.017535 
L 170.998649 -178.792034 
L 166.658108 -185.020574 
L 162.317568 -189.061343 
L 157.977027 -188.170358 
L 153.636486 -185.018514 
L 149.295946 -183.498576 
L 144.955405 -178.641312 
L 140.614865 -178.646959 
L 136.274324 -178.857628 
L 131.933784 -177.766633 
L 127.593243 -177.223883 
L 123.252703 -176.853149 
L 118.912162 -176.078373 
L 114.571622 -177.528458 
L 110.231081 -178.036258 
L 105.890541 -178.984268 
L 101.55 -176.764929 
z
" style="stroke: #1e72ff; stroke-opacity: 0.1"/>
    </defs>
    <g clip-path="url(#pb2db82ea16)">
     <use xlink:href="#md18e757105" x="0" y="432" style="fill: #1e72ff; fill-opacity: 0.1; stroke: #1e72ff; stroke-opacity: 0.1"/>
    </g>
   </g>
   <g id="PathCollection_1">
    <defs>
     <path id="mc8aab29287" d="M -2.5 2.5 
L 2.5 2.5 
L 2.5 -2.5 
L -2.5 -2.5 
z
" style="stroke: #1e72ff"/>
    </defs>
    <g clip-path="url(#pb2db82ea16)">
     <use xlink:href="#mc8aab29287" x="175.339189" y="267.857284" style="fill: #1e72ff; stroke: #1e72ff"/>
     <use xlink:href="#mc8aab29287" x="179.67973" y="267.857284" style="fill: #1e72ff; stroke: #1e72ff"/>
     <use xlink:href="#mc8aab29287" x="184.02027" y="267.857284" style="fill: #1e72ff; stroke: #1e72ff"/>
     <use xlink:href="#mc8aab29287" x="188.360811" y="267.857284" style="fill: #1e72ff; stroke: #1e72ff"/>
     <use xlink:href="#mc8aab29287" x="266.490541" y="267.857284" style="fill: #1e72ff; stroke: #1e72ff"/>
     <use xlink:href="#mc8aab29287" x="305.555405" y="267.857284" style="fill: #1e72ff; stroke: #1e72ff"/>
     <use xlink:href="#mc8aab29287" x="309.895946" y="267.857284" style="fill: #1e72ff; stroke: #1e72ff"/>
     <use xlink:href="#mc8aab29287" x="314.236486" y="267.857284" style="fill: #1e72ff; stroke: #1e72ff"/>
     <use xlink:href="#mc8aab29287" x="318.577027" y="267.857284" style="fill: #1e72ff; stroke: #1e72ff"/>
     <use xlink:href="#mc8aab29287" x="322.917568" y="267.857284" style="fill: #1e72ff; stroke: #1e72ff"/>
     <use xlink:href="#mc8aab29287" x="366.322973" y="267.857284" style="fill: #1e72ff; stroke: #1e72ff"/>
     <use xlink:href="#mc8aab29287" x="370.663514" y="267.857284" style="fill: #1e72ff; stroke: #1e72ff"/>
     <use xlink:href="#mc8aab29287" x="457.474324" y="267.857284" style="fill: #1e72ff; stroke: #1e72ff"/>
     <use xlink:href="#mc8aab29287" x="461.814865" y="267.857284" style="fill: #1e72ff; stroke: #1e72ff"/>
    </g>
   </g>
   <g id="PolyCollection_3">
    <defs>
     <path id="md3d9d4b2a8" d="M 101.55 -200.908251 
L 101.55 -182.307972 
L 105.890541 -173.466625 
L 110.231081 -190.690287 
L 114.571622 -187.619244 
L 118.912162 -190.975648 
L 123.252703 -205.641017 
L 127.593243 -215.082692 
L 131.933784 -215.975986 
L 136.274324 -228.500829 
L 140.614865 -228.562954 
L 144.955405 -234.409654 
L 149.295946 -230.630801 
L 153.636486 -234.992651 
L 157.977027 -231.857113 
L 162.317568 -236.234715 
L 166.658108 -230.021628 
L 170.998649 -227.12044 
L 175.339189 -224.617023 
L 179.67973 -221.185515 
L 184.02027 -223.875201 
L 188.360811 -215.435215 
L 192.701351 -213.386879 
L 197.041892 -209.09016 
L 201.382432 -204.767051 
L 205.722973 -204.965662 
L 210.063514 -203.43951 
L 214.404054 -199.817622 
L 218.744595 -201.848673 
L 223.085135 -200.025744 
L 227.425676 -195.46658 
L 231.766216 -201.308712 
L 236.106757 -197.060323 
L 240.447297 -199.010137 
L 244.787838 -197.609022 
L 249.128378 -197.770791 
L 253.468919 -204.012165 
L 257.809459 -207.824656 
L 262.15 -214.137613 
L 266.490541 -213.624093 
L 270.831081 -218.53551 
L 275.171622 -219.118314 
L 279.512162 -223.170923 
L 283.852703 -226.710554 
L 288.193243 -237.844701 
L 292.533784 -241.666685 
L 296.874324 -247.095633 
L 301.214865 -252.262647 
L 305.555405 -259.649249 
L 309.895946 -265.439271 
L 314.236486 -266.373481 
L 318.577027 -273.707964 
L 322.917568 -275.282656 
L 327.258108 -277.680817 
L 331.598649 -285.552849 
L 335.939189 -289.117002 
L 340.27973 -295.416178 
L 344.62027 -296.709951 
L 348.960811 -301.424053 
L 353.301351 -303.120919 
L 357.641892 -303.211815 
L 361.982432 -305.585385 
L 366.322973 -311.46983 
L 370.663514 -317.406475 
L 375.004054 -318.070736 
L 379.344595 -319.857666 
L 383.685135 -322.627381 
L 388.025676 -321.987297 
L 392.366216 -322.229765 
L 396.706757 -326.944928 
L 401.047297 -327.068611 
L 405.387838 -327.853385 
L 409.728378 -331.963957 
L 414.068919 -333.047694 
L 418.409459 -334.320983 
L 422.75 -333.683279 
L 427.090541 -338.979541 
L 431.431081 -336.072822 
L 435.771622 -339.027066 
L 440.112162 -338.621715 
L 444.452703 -341.651192 
L 448.793243 -339.98155 
L 453.133784 -335.373774 
L 457.474324 -337.613222 
L 461.814865 -333.145696 
L 466.155405 -333.974975 
L 470.495946 -334.95831 
L 474.836486 -334.42156 
L 479.177027 -332.188319 
L 483.517568 -330.591075 
L 487.858108 -329.522076 
L 492.198649 -325.414894 
L 496.539189 -321.853352 
L 500.87973 -321.152864 
L 505.22027 -322.693482 
L 509.560811 -327.146329 
L 513.901351 -327.116478 
L 518.241892 -326.280767 
L 522.582432 -327.952687 
L 526.922973 -331.959721 
L 531.263514 -331.009848 
L 535.604054 -332.946637 
L 539.944595 -333.948914 
L 544.285135 -332.306977 
L 548.625676 -333.356385 
L 552.966216 -335.472037 
L 557.306757 -331.778572 
L 561.647297 -336.749167 
L 565.987838 -331.565742 
L 570.328378 -325.544989 
L 574.668919 -330.185721 
L 579.009459 -323.22372 
L 583.35 -319.8787 
L 583.35 -372.707816 
L 583.35 -372.707816 
L 579.009459 -375.914586 
L 574.668919 -382.749558 
L 570.328378 -377.939981 
L 565.987838 -383.848138 
L 561.647297 -389.059091 
L 557.306757 -383.869336 
L 552.966216 -387.137269 
L 548.625676 -384.849551 
L 544.285135 -383.440391 
L 539.944595 -384.542464 
L 535.604054 -383.647124 
L 531.263514 -381.081384 
L 526.922973 -381.620118 
L 522.582432 -377.195841 
L 518.241892 -375.069361 
L 513.901351 -375.560295 
L 509.560811 -374.86594 
L 505.22027 -369.583929 
L 500.87973 -366.532278 
L 496.539189 -366.128653 
L 492.198649 -369.012468 
L 487.858108 -372.245786 
L 483.517568 -372.878878 
L 479.177027 -374.361865 
L 474.836486 -376.39811 
L 470.495946 -377.316946 
L 466.155405 -376.283591 
L 461.814865 -375.607135 
L 457.474324 -380.137952 
L 453.133784 -377.820086 
L 448.793243 -382.356537 
L 444.452703 -383.834858 
L 440.112162 -380.744288 
L 435.771622 -381.336312 
L 431.431081 -378.440392 
L 427.090541 -381.048838 
L 422.75 -375.394592 
L 418.409459 -375.680152 
L 414.068919 -374.7057 
L 409.728378 -373.600752 
L 405.387838 -369.840473 
L 401.047297 -368.682686 
L 396.706757 -368.739481 
L 392.366216 -363.695355 
L 388.025676 -363.462683 
L 383.685135 -364.020545 
L 379.344595 -360.793792 
L 375.004054 -358.546673 
L 370.663514 -357.174932 
L 366.322973 -350.426855 
L 361.982432 -343.993479 
L 357.641892 -340.979932 
L 353.301351 -339.848094 
L 348.960811 -337.718748 
L 344.62027 -331.722808 
L 340.27973 -329.36161 
L 335.939189 -322.187503 
L 331.598649 -317.395646 
L 327.258108 -308.56619 
L 322.917568 -304.876264 
L 318.577027 -301.635801 
L 314.236486 -292.476519 
L 309.895946 -289.969713 
L 305.555405 -282.847812 
L 301.214865 -273.731237 
L 296.874324 -267.474018 
L 292.533784 -260.528082 
L 288.193243 -255.798377 
L 283.852703 -243.80918 
L 279.512162 -238.938258 
L 275.171622 -234.181428 
L 270.831081 -232.789134 
L 266.490541 -227.246092 
L 262.15 -227.152071 
L 257.809459 -220.274576 
L 253.468919 -215.935118 
L 249.128378 -209.082625 
L 244.787838 -208.856402 
L 240.447297 -210.088256 
L 236.106757 -208.914109 
L 231.766216 -213.145451 
L 227.425676 -207.238616 
L 223.085135 -211.932561 
L 218.744595 -214.53927 
L 214.404054 -212.495523 
L 210.063514 -217.008924 
L 205.722973 -218.608852 
L 201.382432 -218.50112 
L 197.041892 -223.218776 
L 192.701351 -228.647292 
L 188.360811 -232.207443 
L 184.02027 -240.566409 
L 179.67973 -237.690416 
L 175.339189 -241.165592 
L 170.998649 -244.947186 
L 166.658108 -246.621925 
L 162.317568 -255.560026 
L 157.977027 -252.477471 
L 153.636486 -256.979386 
L 149.295946 -253.307728 
L 144.955405 -259.994142 
L 140.614865 -255.700181 
L 136.274324 -256.883901 
L 131.933784 -244.381165 
L 127.593243 -244.244248 
L 123.252703 -233.438846 
L 118.912162 -220.545918 
L 114.571622 -216.929237 
L 110.231081 -217.89922 
L 105.890541 -198.789757 
L 101.55 -200.908251 
z
" style="stroke: #1e408b; stroke-opacity: 0.1"/>
    </defs>
    <g clip-path="url(#pb2db82ea16)">
     <use xlink:href="#md3d9d4b2a8" x="0" y="432" style="fill: #1e408b; fill-opacity: 0.1; stroke: #1e408b; stroke-opacity: 0.1"/>
    </g>
   </g>
   <g id="PolyCollection_4">
    <defs>
     <path id="m1673227fbc" d="M 101.55 -182.66865 
L 101.55 -177.605562 
L 105.890541 -183.049659 
L 110.231081 -186.213402 
L 114.571622 -192.859128 
L 118.912162 -194.776518 
L 123.252703 -203.074021 
L 127.593243 -212.588433 
L 131.933784 -217.030975 
L 136.274324 -223.376602 
L 140.614865 -229.463935 
L 144.955405 -235.21204 
L 149.295946 -238.432053 
L 153.636486 -241.919217 
L 157.977027 -244.435508 
L 162.317568 -242.110837 
L 166.658108 -239.58721 
L 170.998649 -237.746251 
L 175.339189 -234.677275 
L 179.67973 -232.412834 
L 184.02027 -229.810902 
L 188.360811 -226.601016 
L 192.701351 -222.374475 
L 197.041892 -219.316942 
L 201.382432 -215.944898 
L 205.722973 -214.15273 
L 210.063514 -211.277462 
L 214.404054 -210.359673 
L 218.744595 -209.846587 
L 223.085135 -207.341217 
L 227.425676 -206.873982 
L 231.766216 -206.019348 
L 236.106757 -203.964188 
L 240.447297 -203.018792 
L 244.787838 -202.00067 
L 249.128378 -201.704393 
L 253.468919 -199.750839 
L 257.809459 -199.964084 
L 262.15 -200.595705 
L 266.490541 -200.071117 
L 270.831081 -199.017627 
L 275.171622 -198.257414 
L 279.512162 -197.701675 
L 283.852703 -197.314559 
L 288.193243 -196.869463 
L 292.533784 -196.190923 
L 296.874324 -196.633397 
L 301.214865 -197.074754 
L 305.555405 -197.043335 
L 309.895946 -197.08379 
L 314.236486 -197.511402 
L 318.577027 -197.31175 
L 322.917568 -197.810972 
L 327.258108 -198.245304 
L 331.598649 -197.528575 
L 335.939189 -196.29971 
L 340.27973 -196.103401 
L 344.62027 -196.383912 
L 348.960811 -196.149874 
L 353.301351 -195.634427 
L 357.641892 -195.777362 
L 361.982432 -195.443992 
L 366.322973 -195.807763 
L 370.663514 -195.238327 
L 375.004054 -194.977843 
L 379.344595 -195.064091 
L 383.685135 -194.597981 
L 388.025676 -195.798921 
L 392.366216 -196.24524 
L 396.706757 -195.622728 
L 401.047297 -195.757846 
L 405.387838 -195.795451 
L 409.728378 -195.030328 
L 414.068919 -195.201468 
L 418.409459 -194.727091 
L 422.75 -193.987961 
L 427.090541 -193.659513 
L 431.431081 -193.885033 
L 435.771622 -192.941213 
L 440.112162 -192.368051 
L 444.452703 -191.91667 
L 448.793243 -191.363963 
L 453.133784 -191.052236 
L 457.474324 -190.978781 
L 461.814865 -190.843972 
L 466.155405 -190.743454 
L 470.495946 -189.157171 
L 474.836486 -188.805779 
L 479.177027 -188.483821 
L 483.517568 -187.252084 
L 487.858108 -186.559552 
L 492.198649 -185.107261 
L 496.539189 -184.929793 
L 500.87973 -183.736259 
L 505.22027 -184.080302 
L 509.560811 -184.459951 
L 513.901351 -184.877828 
L 518.241892 -183.804325 
L 522.582432 -183.064591 
L 526.922973 -183.041927 
L 531.263514 -182.916106 
L 535.604054 -182.62123 
L 539.944595 -182.997785 
L 544.285135 -182.45956 
L 548.625676 -182.704648 
L 552.966216 -183.147959 
L 557.306757 -184.269275 
L 561.647297 -184.037135 
L 565.987838 -183.429523 
L 570.328378 -183.201272 
L 574.668919 -183.065639 
L 579.009459 -182.239221 
L 583.35 -183.215204 
L 583.35 -186.577693 
L 583.35 -186.577693 
L 579.009459 -185.699185 
L 574.668919 -186.499528 
L 570.328378 -186.658969 
L 565.987838 -186.972222 
L 561.647297 -187.459682 
L 557.306757 -187.673755 
L 552.966216 -186.608357 
L 548.625676 -186.148556 
L 544.285135 -185.857761 
L 539.944595 -186.309922 
L 535.604054 -185.915243 
L 531.263514 -186.173935 
L 526.922973 -186.225214 
L 522.582432 -186.239578 
L 518.241892 -186.902509 
L 513.901351 -187.927188 
L 509.560811 -187.47523 
L 505.22027 -187.204708 
L 500.87973 -186.795982 
L 496.539189 -187.932776 
L 492.198649 -188.150889 
L 487.858108 -189.489843 
L 483.517568 -190.274258 
L 479.177027 -191.560675 
L 474.836486 -192.040739 
L 470.495946 -192.262739 
L 466.155405 -193.905884 
L 461.814865 -194.013243 
L 457.474324 -194.064708 
L 453.133784 -194.171407 
L 448.793243 -194.538942 
L 444.452703 -195.213309 
L 440.112162 -195.714757 
L 435.771622 -196.331871 
L 431.431081 -197.190512 
L 427.090541 -196.882605 
L 422.75 -197.173366 
L 418.409459 -197.880092 
L 414.068919 -198.337282 
L 409.728378 -198.186607 
L 405.387838 -198.988723 
L 401.047297 -198.929422 
L 396.706757 -198.841357 
L 392.366216 -199.447332 
L 388.025676 -198.981869 
L 383.685135 -197.740932 
L 379.344595 -198.188698 
L 375.004054 -198.110426 
L 370.663514 -198.249615 
L 366.322973 -198.845182 
L 361.982432 -198.604851 
L 357.641892 -198.881478 
L 353.301351 -198.795073 
L 348.960811 -199.30892 
L 344.62027 -199.671835 
L 340.27973 -199.450696 
L 335.939189 -199.619215 
L 331.598649 -200.977325 
L 327.258108 -201.481578 
L 322.917568 -201.025787 
L 318.577027 -200.422937 
L 314.236486 -200.624923 
L 309.895946 -200.201073 
L 305.555405 -200.089632 
L 301.214865 -200.180841 
L 296.874324 -199.856299 
L 292.533784 -199.366435 
L 288.193243 -200.058352 
L 283.852703 -200.529718 
L 279.512162 -200.855364 
L 275.171622 -201.485722 
L 270.831081 -202.264563 
L 266.490541 -203.438605 
L 262.15 -203.888335 
L 257.809459 -203.225288 
L 253.468919 -203.014123 
L 249.128378 -205.072925 
L 244.787838 -205.492511 
L 240.447297 -206.393946 
L 236.106757 -207.360205 
L 231.766216 -209.643923 
L 227.425676 -210.558298 
L 223.085135 -211.084812 
L 218.744595 -213.630294 
L 214.404054 -214.214063 
L 210.063514 -215.083454 
L 205.722973 -218.185273 
L 201.382432 -220.223663 
L 197.041892 -223.763337 
L 192.701351 -226.872417 
L 188.360811 -231.394487 
L 184.02027 -234.995923 
L 179.67973 -237.76947 
L 175.339189 -240.368165 
L 170.998649 -243.790183 
L 166.658108 -245.805821 
L 162.317568 -248.855544 
L 157.977027 -251.410682 
L 153.636486 -249.151235 
L 149.295946 -245.615899 
L 144.955405 -242.833453 
L 140.614865 -236.819342 
L 136.274324 -230.390936 
L 131.933784 -224.132944 
L 127.593243 -219.725414 
L 123.252703 -210.033247 
L 118.912162 -201.483447 
L 114.571622 -200.367909 
L 110.231081 -193.185158 
L 105.890541 -189.186895 
L 101.55 -182.66865 
z
" style="stroke: #1e408b; stroke-opacity: 0.1"/>
    </defs>
    <g clip-path="url(#pb2db82ea16)">
     <use xlink:href="#m1673227fbc" x="0" y="432" style="fill: #1e408b; fill-opacity: 0.1; stroke: #1e408b; stroke-opacity: 0.1"/>
    </g>
   </g>
   <g id="PathCollection_2">
    <defs>
     <path id="m9f3af95e99" d="M -2.5 2.5 
L 2.5 2.5 
L 2.5 -2.5 
L -2.5 -2.5 
z
" style="stroke: #1e408b"/>
    </defs>
    <g clip-path="url(#pb2db82ea16)">
     <use xlink:href="#m9f3af95e99" x="270.831081" y="281.390287" style="fill: #1e408b; stroke: #1e408b"/>
     <use xlink:href="#m9f3af95e99" x="275.171622" y="281.390287" style="fill: #1e408b; stroke: #1e408b"/>
     <use xlink:href="#m9f3af95e99" x="279.512162" y="281.390287" style="fill: #1e408b; stroke: #1e408b"/>
     <use xlink:href="#m9f3af95e99" x="283.852703" y="281.390287" style="fill: #1e408b; stroke: #1e408b"/>
     <use xlink:href="#m9f3af95e99" x="288.193243" y="281.390287" style="fill: #1e408b; stroke: #1e408b"/>
     <use xlink:href="#m9f3af95e99" x="292.533784" y="281.390287" style="fill: #1e408b; stroke: #1e408b"/>
     <use xlink:href="#m9f3af95e99" x="296.874324" y="281.390287" style="fill: #1e408b; stroke: #1e408b"/>
     <use xlink:href="#m9f3af95e99" x="301.214865" y="281.390287" style="fill: #1e408b; stroke: #1e408b"/>
     <use xlink:href="#m9f3af95e99" x="305.555405" y="281.390287" style="fill: #1e408b; stroke: #1e408b"/>
     <use xlink:href="#m9f3af95e99" x="309.895946" y="281.390287" style="fill: #1e408b; stroke: #1e408b"/>
     <use xlink:href="#m9f3af95e99" x="314.236486" y="281.390287" style="fill: #1e408b; stroke: #1e408b"/>
     <use xlink:href="#m9f3af95e99" x="318.577027" y="281.390287" style="fill: #1e408b; stroke: #1e408b"/>
     <use xlink:href="#m9f3af95e99" x="322.917568" y="281.390287" style="fill: #1e408b; stroke: #1e408b"/>
     <use xlink:href="#m9f3af95e99" x="327.258108" y="281.390287" style="fill: #1e408b; stroke: #1e408b"/>
     <use xlink:href="#m9f3af95e99" x="331.598649" y="281.390287" style="fill: #1e408b; stroke: #1e408b"/>
     <use xlink:href="#m9f3af95e99" x="335.939189" y="281.390287" style="fill: #1e408b; stroke: #1e408b"/>
     <use xlink:href="#m9f3af95e99" x="340.27973" y="281.390287" style="fill: #1e408b; stroke: #1e408b"/>
     <use xlink:href="#m9f3af95e99" x="344.62027" y="281.390287" style="fill: #1e408b; stroke: #1e408b"/>
     <use xlink:href="#m9f3af95e99" x="348.960811" y="281.390287" style="fill: #1e408b; stroke: #1e408b"/>
     <use xlink:href="#m9f3af95e99" x="353.301351" y="281.390287" style="fill: #1e408b; stroke: #1e408b"/>
     <use xlink:href="#m9f3af95e99" x="357.641892" y="281.390287" style="fill: #1e408b; stroke: #1e408b"/>
     <use xlink:href="#m9f3af95e99" x="361.982432" y="281.390287" style="fill: #1e408b; stroke: #1e408b"/>
     <use xlink:href="#m9f3af95e99" x="366.322973" y="281.390287" style="fill: #1e408b; stroke: #1e408b"/>
     <use xlink:href="#m9f3af95e99" x="370.663514" y="281.390287" style="fill: #1e408b; stroke: #1e408b"/>
     <use xlink:href="#m9f3af95e99" x="375.004054" y="281.390287" style="fill: #1e408b; stroke: #1e408b"/>
     <use xlink:href="#m9f3af95e99" x="379.344595" y="281.390287" style="fill: #1e408b; stroke: #1e408b"/>
     <use xlink:href="#m9f3af95e99" x="383.685135" y="281.390287" style="fill: #1e408b; stroke: #1e408b"/>
     <use xlink:href="#m9f3af95e99" x="388.025676" y="281.390287" style="fill: #1e408b; stroke: #1e408b"/>
     <use xlink:href="#m9f3af95e99" x="392.366216" y="281.390287" style="fill: #1e408b; stroke: #1e408b"/>
     <use xlink:href="#m9f3af95e99" x="396.706757" y="281.390287" style="fill: #1e408b; stroke: #1e408b"/>
     <use xlink:href="#m9f3af95e99" x="401.047297" y="281.390287" style="fill: #1e408b; stroke: #1e408b"/>
     <use xlink:href="#m9f3af95e99" x="405.387838" y="281.390287" style="fill: #1e408b; stroke: #1e408b"/>
     <use xlink:href="#m9f3af95e99" x="409.728378" y="281.390287" style="fill: #1e408b; stroke: #1e408b"/>
     <use xlink:href="#m9f3af95e99" x="414.068919" y="281.390287" style="fill: #1e408b; stroke: #1e408b"/>
     <use xlink:href="#m9f3af95e99" x="418.409459" y="281.390287" style="fill: #1e408b; stroke: #1e408b"/>
     <use xlink:href="#m9f3af95e99" x="422.75" y="281.390287" style="fill: #1e408b; stroke: #1e408b"/>
     <use xlink:href="#m9f3af95e99" x="427.090541" y="281.390287" style="fill: #1e408b; stroke: #1e408b"/>
     <use xlink:href="#m9f3af95e99" x="431.431081" y="281.390287" style="fill: #1e408b; stroke: #1e408b"/>
     <use xlink:href="#m9f3af95e99" x="435.771622" y="281.390287" style="fill: #1e408b; stroke: #1e408b"/>
     <use xlink:href="#m9f3af95e99" x="440.112162" y="281.390287" style="fill: #1e408b; stroke: #1e408b"/>
     <use xlink:href="#m9f3af95e99" x="444.452703" y="281.390287" style="fill: #1e408b; stroke: #1e408b"/>
     <use xlink:href="#m9f3af95e99" x="448.793243" y="281.390287" style="fill: #1e408b; stroke: #1e408b"/>
     <use xlink:href="#m9f3af95e99" x="453.133784" y="281.390287" style="fill: #1e408b; stroke: #1e408b"/>
     <use xlink:href="#m9f3af95e99" x="457.474324" y="281.390287" style="fill: #1e408b; stroke: #1e408b"/>
     <use xlink:href="#m9f3af95e99" x="461.814865" y="281.390287" style="fill: #1e408b; stroke: #1e408b"/>
     <use xlink:href="#m9f3af95e99" x="466.155405" y="281.390287" style="fill: #1e408b; stroke: #1e408b"/>
     <use xlink:href="#m9f3af95e99" x="470.495946" y="281.390287" style="fill: #1e408b; stroke: #1e408b"/>
     <use xlink:href="#m9f3af95e99" x="474.836486" y="281.390287" style="fill: #1e408b; stroke: #1e408b"/>
     <use xlink:href="#m9f3af95e99" x="479.177027" y="281.390287" style="fill: #1e408b; stroke: #1e408b"/>
     <use xlink:href="#m9f3af95e99" x="483.517568" y="281.390287" style="fill: #1e408b; stroke: #1e408b"/>
     <use xlink:href="#m9f3af95e99" x="487.858108" y="281.390287" style="fill: #1e408b; stroke: #1e408b"/>
     <use xlink:href="#m9f3af95e99" x="492.198649" y="281.390287" style="fill: #1e408b; stroke: #1e408b"/>
     <use xlink:href="#m9f3af95e99" x="496.539189" y="281.390287" style="fill: #1e408b; stroke: #1e408b"/>
     <use xlink:href="#m9f3af95e99" x="500.87973" y="281.390287" style="fill: #1e408b; stroke: #1e408b"/>
     <use xlink:href="#m9f3af95e99" x="505.22027" y="281.390287" style="fill: #1e408b; stroke: #1e408b"/>
     <use xlink:href="#m9f3af95e99" x="509.560811" y="281.390287" style="fill: #1e408b; stroke: #1e408b"/>
     <use xlink:href="#m9f3af95e99" x="513.901351" y="281.390287" style="fill: #1e408b; stroke: #1e408b"/>
     <use xlink:href="#m9f3af95e99" x="518.241892" y="281.390287" style="fill: #1e408b; stroke: #1e408b"/>
     <use xlink:href="#m9f3af95e99" x="522.582432" y="281.390287" style="fill: #1e408b; stroke: #1e408b"/>
     <use xlink:href="#m9f3af95e99" x="526.922973" y="281.390287" style="fill: #1e408b; stroke: #1e408b"/>
     <use xlink:href="#m9f3af95e99" x="531.263514" y="281.390287" style="fill: #1e408b; stroke: #1e408b"/>
     <use xlink:href="#m9f3af95e99" x="535.604054" y="281.390287" style="fill: #1e408b; stroke: #1e408b"/>
     <use xlink:href="#m9f3af95e99" x="539.944595" y="281.390287" style="fill: #1e408b; stroke: #1e408b"/>
     <use xlink:href="#m9f3af95e99" x="544.285135" y="281.390287" style="fill: #1e408b; stroke: #1e408b"/>
     <use xlink:href="#m9f3af95e99" x="548.625676" y="281.390287" style="fill: #1e408b; stroke: #1e408b"/>
     <use xlink:href="#m9f3af95e99" x="552.966216" y="281.390287" style="fill: #1e408b; stroke: #1e408b"/>
     <use xlink:href="#m9f3af95e99" x="557.306757" y="281.390287" style="fill: #1e408b; stroke: #1e408b"/>
     <use xlink:href="#m9f3af95e99" x="561.647297" y="281.390287" style="fill: #1e408b; stroke: #1e408b"/>
     <use xlink:href="#m9f3af95e99" x="565.987838" y="281.390287" style="fill: #1e408b; stroke: #1e408b"/>
     <use xlink:href="#m9f3af95e99" x="570.328378" y="281.390287" style="fill: #1e408b; stroke: #1e408b"/>
     <use xlink:href="#m9f3af95e99" x="574.668919" y="281.390287" style="fill: #1e408b; stroke: #1e408b"/>
     <use xlink:href="#m9f3af95e99" x="579.009459" y="281.390287" style="fill: #1e408b; stroke: #1e408b"/>
     <use xlink:href="#m9f3af95e99" x="583.35" y="281.390287" style="fill: #1e408b; stroke: #1e408b"/>
    </g>
   </g>
   <g id="line2d_11">
    <path d="M 101.55 258.393919 
L 105.890541 263.895399 
L 110.231081 252.9386 
L 114.571622 248.715557 
L 118.912162 257.730053 
L 123.252703 258.480952 
L 127.593243 247.781693 
L 131.933784 255.865404 
L 136.274324 257.170817 
L 140.614865 249.324782 
L 144.955405 290.137863 
L 149.295946 302.280862 
L 153.636486 305.304363 
L 157.977027 291.614813 
L 162.317568 280.327687 
L 166.658108 244.119069 
L 170.998649 231.993204 
L 175.339189 217.865509 
L 179.67973 184.349172 
L 184.02027 167.449127 
L 188.360811 210.148013 
L 192.701351 252.637263 
L 197.041892 276.234735 
L 201.382432 277.116456 
L 205.722973 269.637546 
L 210.063514 265.589991 
L 214.404054 255.110833 
L 218.744595 266.511041 
L 223.085135 298.213785 
L 227.425676 331.56973 
L 231.766216 321.412992 
L 236.106757 270.484183 
L 240.447297 245.288029 
L 244.787838 252.667773 
L 249.128378 278.869391 
L 253.468919 279.133954 
L 257.809459 269.345395 
L 262.15 266.170833 
L 266.490541 221.391712 
L 270.831081 227.954547 
L 275.171622 244.200037 
L 279.512162 261.327153 
L 283.852703 273.191169 
L 288.193243 287.033469 
L 292.533784 269.584024 
L 296.874324 252.554455 
L 301.214865 235.586435 
L 305.555405 226.601295 
L 309.895946 225.994781 
L 314.236486 208.09939 
L 318.577027 193.112487 
L 322.917568 212.769421 
L 327.258108 236.58609 
L 331.598649 260.189586 
L 335.939189 256.367144 
L 340.27973 250.314436 
L 344.62027 247.74916 
L 348.960811 240.98113 
L 353.301351 252.160903 
L 357.641892 245.275827 
L 361.982432 223.706831 
L 366.322973 200.2785 
L 370.663514 197.798067 
L 375.004054 260.761994 
L 379.344595 320.292719 
L 383.685135 346.812932 
L 388.025676 341.696241 
L 392.366216 320.175457 
L 396.706757 318.724554 
L 401.047297 306.053334 
L 405.387838 305.189301 
L 409.728378 315.409944 
L 414.068919 295.967453 
L 418.409459 297.406185 
L 422.75 278.855907 
L 427.090541 283.305389 
L 431.431081 302.128559 
L 435.771622 332.602354 
L 440.112162 340.853114 
L 444.452703 329.416869 
L 448.793243 308.906881 
L 453.133784 265.93585 
L 457.474324 210.504547 
L 461.814865 214.954894 
L 466.155405 236.141524 
L 470.495946 251.53792 
L 474.836486 286.211961 
L 479.177027 282.513327 
L 483.517568 279.437101 
L 487.858108 290.010476 
L 492.198649 293.651958 
L 496.539189 301.877828 
L 500.87973 298.427415 
L 505.22027 304.743333 
L 509.560811 300.595905 
L 513.901351 301.535427 
L 518.241892 305.895889 
L 522.582432 301.134576 
L 526.922973 304.862458 
L 531.263514 314.556829 
L 535.604054 315.622602 
L 539.944595 314.890317 
L 544.285135 307.029537 
L 548.625676 300.249754 
L 552.966216 315.253925 
L 557.306757 300.103643 
L 561.647297 305.262112 
L 565.987838 301.641918 
L 570.328378 304.982803 
L 574.668919 298.968715 
L 579.009459 307.448186 
L 583.35 302.77341 
" clip-path="url(#pb2db82ea16)" style="fill: none; stroke: #1e72ff; stroke-width: 2; stroke-linecap: round"/>
   </g>
   <g id="line2d_12">
    <path d="M 101.55 256.350631 
L 105.890541 254.229949 
L 110.231081 255.198768 
L 114.571622 255.61932 
L 118.912162 257.107235 
L 123.252703 256.391458 
L 127.593243 256.018857 
L 131.933784 255.447103 
L 136.274324 254.345583 
L 140.614865 254.602698 
L 144.955405 254.992103 
L 149.295946 250.00971 
L 153.636486 248.227434 
L 157.977027 245.274728 
L 162.317568 244.428307 
L 166.658108 248.35628 
L 170.998649 254.782984 
L 175.339189 256.491167 
L 179.67973 256.204548 
L 184.02027 246.785658 
L 188.360811 241.271343 
L 192.701351 249.13564 
L 197.041892 264.491378 
L 201.382432 275.701869 
L 205.722973 276.251263 
L 210.063514 271.055849 
L 214.404054 257.934695 
L 218.744595 241.608087 
L 223.085135 229.303826 
L 227.425676 225.999736 
L 231.766216 230.885936 
L 236.106757 231.850249 
L 240.447297 230.228894 
L 244.787838 234.731215 
L 249.128378 243.440507 
L 253.468919 245.460468 
L 257.809459 250.636198 
L 262.15 254.879891 
L 266.490541 249.668565 
L 270.831081 238.728746 
L 275.171622 241.503559 
L 279.512162 246.545433 
L 283.852703 245.992383 
L 288.193243 247.16891 
L 292.533784 243.7987 
L 296.874324 244.495423 
L 301.214865 247.481465 
L 305.555405 249.832628 
L 309.895946 250.453903 
L 314.236486 249.2301 
L 318.577027 248.622168 
L 322.917568 252.199348 
L 327.258108 252.843657 
L 331.598649 251.330126 
L 335.939189 252.009558 
L 340.27973 254.968163 
L 344.62027 256.286664 
L 348.960811 253.986113 
L 353.301351 251.557643 
L 357.641892 250.005988 
L 361.982432 253.783518 
L 366.322973 248.687382 
L 370.663514 245.157641 
L 375.004054 245.845331 
L 379.344595 248.207718 
L 383.685135 250.979385 
L 388.025676 247.828095 
L 392.366216 249.33538 
L 396.706757 247.6359 
L 401.047297 255.677983 
L 405.387838 256.876188 
L 409.728378 259.351973 
L 414.068919 256.505106 
L 418.409459 249.417042 
L 422.75 246.639804 
L 427.090541 244.433601 
L 431.431081 244.229433 
L 435.771622 243.693164 
L 440.112162 245.94548 
L 444.452703 243.703194 
L 448.793243 245.660889 
L 453.133784 252.726218 
L 457.474324 258.302767 
L 461.814865 250.734607 
L 466.155405 253.721997 
L 470.495946 255.364579 
L 474.836486 252.417106 
L 479.177027 252.16834 
L 483.517568 251.156455 
L 487.858108 252.384096 
L 492.198649 252.184597 
L 496.539189 254.906055 
L 500.87973 256.66346 
L 505.22027 255.263695 
L 509.560811 255.48961 
L 513.901351 255.569122 
L 518.241892 257.175176 
L 522.582432 257.030454 
L 526.922973 257.577841 
L 531.263514 257.810162 
L 535.604054 255.763242 
L 539.944595 256.063283 
L 544.285135 253.54502 
L 548.625676 256.592518 
L 552.966216 255.989879 
L 557.306757 253.150137 
L 561.647297 258.400488 
L 565.987838 254.429465 
L 570.328378 256.032983 
L 574.668919 255.141281 
L 579.009459 254.268098 
L 583.35 256.452084 
" clip-path="url(#pb2db82ea16)" style="fill: none; stroke-dasharray: 7.4,3.2; stroke-dashoffset: 0; stroke: #1e72ff; stroke-width: 2"/>
   </g>
   <g id="line2d_13">
    <path d="M 144.955405 378.54 
L 144.955405 26.96 
" clip-path="url(#pb2db82ea16)" style="fill: none; stroke-dasharray: 5.55,2.4; stroke-dashoffset: 0; stroke: #1a1a1a; stroke-width: 1.5"/>
   </g>
   <g id="line2d_14">
    <path d="M 470.495946 378.54 
L 470.495946 26.96 
" clip-path="url(#pb2db82ea16)" style="fill: none; stroke-dasharray: 5.55,2.4; stroke-dashoffset: 0; stroke: #1a1a1a; stroke-width: 1.5"/>
   </g>
   <g id="line2d_15">
    <path d="M 101.55 240.391888 
L 105.890541 245.871809 
L 110.231081 227.705246 
L 114.571622 229.72576 
L 118.912162 226.239217 
L 123.252703 212.460068 
L 127.593243 202.33653 
L 131.933784 201.821424 
L 136.274324 189.307635 
L 140.614865 189.868432 
L 144.955405 184.798102 
L 149.295946 190.030735 
L 153.636486 186.013981 
L 157.977027 189.832708 
L 162.317568 186.10263 
L 166.658108 193.678224 
L 170.998649 195.966187 
L 175.339189 199.108693 
L 179.67973 202.562035 
L 184.02027 199.779195 
L 188.360811 208.178671 
L 192.701351 210.982915 
L 197.041892 215.845532 
L 201.382432 220.365915 
L 205.722973 220.212743 
L 210.063514 221.775783 
L 214.404054 225.843428 
L 218.744595 223.806028 
L 223.085135 226.020847 
L 227.425676 230.647402 
L 231.766216 224.772919 
L 236.106757 229.012784 
L 240.447297 227.450804 
L 244.787838 228.767288 
L 249.128378 228.573292 
L 253.468919 222.026358 
L 257.809459 217.950384 
L 262.15 211.355158 
L 266.490541 211.564908 
L 270.831081 206.337678 
L 275.171622 205.350129 
L 279.512162 200.94541 
L 283.852703 196.740133 
L 288.193243 185.178461 
L 292.533784 180.902616 
L 296.874324 174.715174 
L 301.214865 169.003058 
L 305.555405 160.751469 
L 309.895946 154.295508 
L 314.236486 152.575 
L 318.577027 144.328118 
L 322.917568 141.92054 
L 327.258108 138.876496 
L 331.598649 130.525752 
L 335.939189 126.347747 
L 340.27973 119.611106 
L 344.62027 117.783621 
L 348.960811 112.428599 
L 353.301351 110.515493 
L 357.641892 109.904127 
L 361.982432 107.210568 
L 366.322973 101.051657 
L 370.663514 94.709297 
L 375.004054 93.691295 
L 379.344595 91.674271 
L 383.685135 88.676037 
L 388.025676 89.27501 
L 392.366216 89.03744 
L 396.706757 84.157796 
L 401.047297 84.124352 
L 405.387838 83.153071 
L 409.728378 79.217645 
L 414.068919 78.123303 
L 418.409459 76.999433 
L 422.75 77.461064 
L 427.090541 71.985811 
L 431.431081 74.743393 
L 435.771622 71.818311 
L 440.112162 72.316999 
L 444.452703 69.256975 
L 448.793243 70.830957 
L 453.133784 75.40307 
L 457.474324 73.124413 
L 461.814865 77.623584 
L 466.155405 76.870717 
L 470.495946 75.862372 
L 474.836486 76.590165 
L 479.177027 78.724908 
L 483.517568 80.265023 
L 487.858108 81.116069 
L 492.198649 84.786319 
L 496.539189 88.008997 
L 500.87973 88.157429 
L 505.22027 85.861294 
L 509.560811 80.993866 
L 513.901351 80.661614 
L 518.241892 81.324936 
L 522.582432 79.425736 
L 526.922973 75.210081 
L 531.263514 75.954384 
L 535.604054 73.703119 
L 539.944595 72.754311 
L 544.285135 74.126316 
L 548.625676 72.897032 
L 552.966216 70.695347 
L 557.306757 74.176046 
L 561.647297 69.095871 
L 565.987838 74.29306 
L 570.328378 80.257515 
L 574.668919 75.532361 
L 579.009459 82.430847 
L 583.35 85.706742 
" clip-path="url(#pb2db82ea16)" style="fill: none; stroke: #1e408b; stroke-width: 2; stroke-linecap: round"/>
   </g>
   <g id="line2d_16">
    <path d="M 101.55 251.862894 
L 105.890541 245.881723 
L 110.231081 242.30072 
L 114.571622 235.386482 
L 118.912162 233.870017 
L 123.252703 225.446366 
L 127.593243 215.843076 
L 131.933784 211.41804 
L 136.274324 205.116231 
L 140.614865 198.858362 
L 144.955405 192.977253 
L 149.295946 189.976024 
L 153.636486 186.464774 
L 157.977027 184.076905 
L 162.317568 186.51681 
L 166.658108 189.303485 
L 170.998649 191.231783 
L 175.339189 194.47728 
L 179.67973 196.908848 
L 184.02027 199.596587 
L 188.360811 203.002248 
L 192.701351 207.376554 
L 197.041892 210.45986 
L 201.382432 213.91572 
L 205.722973 215.830998 
L 210.063514 218.819542 
L 214.404054 219.713132 
L 218.744595 220.261559 
L 223.085135 222.786986 
L 227.425676 223.28386 
L 231.766216 224.168365 
L 236.106757 226.337804 
L 240.447297 227.293631 
L 244.787838 228.253409 
L 249.128378 228.611341 
L 253.468919 230.617519 
L 257.809459 230.405314 
L 262.15 229.75798 
L 266.490541 230.245139 
L 270.831081 231.358905 
L 275.171622 232.128432 
L 279.512162 232.72148 
L 283.852703 233.077862 
L 288.193243 233.536092 
L 292.533784 234.221321 
L 296.874324 233.755152 
L 301.214865 233.372202 
L 305.555405 233.433516 
L 309.895946 233.357569 
L 314.236486 232.931837 
L 318.577027 233.132657 
L 322.917568 232.581621 
L 327.258108 232.136559 
L 331.598649 232.74705 
L 335.939189 234.040537 
L 340.27973 234.222952 
L 344.62027 233.972126 
L 348.960811 234.270603 
L 353.301351 234.78525 
L 357.641892 234.67058 
L 361.982432 234.975579 
L 366.322973 234.673528 
L 370.663514 235.256029 
L 375.004054 235.455865 
L 379.344595 235.373605 
L 383.685135 235.830543 
L 388.025676 234.609605 
L 392.366216 234.153714 
L 396.706757 234.767958 
L 401.047297 234.656366 
L 405.387838 234.607913 
L 409.728378 235.391532 
L 414.068919 235.230625 
L 418.409459 235.696409 
L 422.75 236.419336 
L 427.090541 236.728941 
L 431.431081 236.462228 
L 435.771622 237.363458 
L 440.112162 237.958596 
L 444.452703 238.435011 
L 448.793243 239.048548 
L 453.133784 239.388179 
L 457.474324 239.478255 
L 461.814865 239.571392 
L 466.155405 239.675331 
L 470.495946 241.290045 
L 474.836486 241.576741 
L 479.177027 241.977752 
L 483.517568 243.236829 
L 487.858108 243.975303 
L 492.198649 245.370925 
L 496.539189 245.568716 
L 500.87973 246.73388 
L 505.22027 246.357495 
L 509.560811 246.032409 
L 513.901351 245.597492 
L 518.241892 246.646583 
L 522.582432 247.347916 
L 526.922973 247.36643 
L 531.263514 247.45498 
L 535.604054 247.731764 
L 539.944595 247.346146 
L 544.285135 247.84134 
L 548.625676 247.573398 
L 552.966216 247.121842 
L 557.306757 246.028485 
L 561.647297 246.251592 
L 565.987838 246.799128 
L 570.328378 247.069879 
L 574.668919 247.217416 
L 579.009459 248.030797 
L 583.35 247.103551 
" clip-path="url(#pb2db82ea16)" style="fill: none; stroke-dasharray: 7.4,3.2; stroke-dashoffset: 0; stroke: #1e408b; stroke-width: 2"/>
   </g>
   <g id="line2d_17">
    <path d="M 144.955405 378.54 
L 144.955405 26.96 
" clip-path="url(#pb2db82ea16)" style="fill: none; stroke-dasharray: 5.55,2.4; stroke-dashoffset: 0; stroke: #1a1a1a; stroke-width: 1.5"/>
   </g>
   <g id="line2d_18">
    <path d="M 470.495946 378.54 
L 470.495946 26.96 
" clip-path="url(#pb2db82ea16)" style="fill: none; stroke-dasharray: 5.55,2.4; stroke-dashoffset: 0; stroke: #1a1a1a; stroke-width: 1.5"/>
   </g>
   <g id="patch_3">
    <path d="M 77.46 378.54 
L 77.46 26.96 
" style="fill: none; stroke: #000000; stroke-width: 1.5; stroke-linejoin: miter; stroke-linecap: square"/>
   </g>
   <g id="patch_4">
    <path d="M 77.46 378.54 
L 607.44 378.54 
" style="fill: none; stroke: #000000; stroke-width: 1.5; stroke-linejoin: miter; stroke-linecap: square"/>
   </g>
   <g id="text_13">
    <!-- Divergence Comparison: Original vs Shuffled -->
    <g style="fill: #262626" transform="translate(222.84 20.96) scale(0.12 -0.12)">
     <defs>
      <path id="ArialMT-43" d="M 3763 1606 
L 4369 1453 
Q 4178 706 3683 314 
Q 3188 -78 2472 -78 
Q 1731 -78 1267 223 
Q 803 525 561 1097 
Q 319 1669 319 2325 
Q 319 3041 592 3573 
Q 866 4106 1370 4382 
Q 1875 4659 2481 4659 
Q 3169 4659 3637 4309 
Q 4106 3959 4291 3325 
L 3694 3184 
Q 3534 3684 3231 3912 
Q 2928 4141 2469 4141 
Q 1941 4141 1586 3887 
Q 1231 3634 1087 3207 
Q 944 2781 944 2328 
Q 944 1744 1114 1308 
Q 1284 872 1643 656 
Q 2003 441 2422 441 
Q 2931 441 3284 734 
Q 3638 1028 3763 1606 
z
" transform="scale(0.015625)"/>
      <path id="ArialMT-6f" d="M 213 1659 
Q 213 2581 725 3025 
Q 1153 3394 1769 3394 
Q 2453 3394 2887 2945 
Q 3322 2497 3322 1706 
Q 3322 1066 3130 698 
Q 2938 331 2570 128 
Q 2203 -75 1769 -75 
Q 1072 -75 642 372 
Q 213 819 213 1659 
z
M 791 1659 
Q 791 1022 1069 705 
Q 1347 388 1769 388 
Q 2188 388 2466 706 
Q 2744 1025 2744 1678 
Q 2744 2294 2464 2611 
Q 2184 2928 1769 2928 
Q 1347 2928 1069 2612 
Q 791 2297 791 1659 
z
" transform="scale(0.015625)"/>
      <path id="ArialMT-70" d="M 422 -1272 
L 422 3319 
L 934 3319 
L 934 2888 
Q 1116 3141 1344 3267 
Q 1572 3394 1897 3394 
Q 2322 3394 2647 3175 
Q 2972 2956 3137 2557 
Q 3303 2159 3303 1684 
Q 3303 1175 3120 767 
Q 2938 359 2589 142 
Q 2241 -75 1856 -75 
Q 1575 -75 1351 44 
Q 1128 163 984 344 
L 984 -1272 
L 422 -1272 
z
M 931 1641 
Q 931 1000 1190 694 
Q 1450 388 1819 388 
Q 2194 388 2461 705 
Q 2728 1022 2728 1688 
Q 2728 2322 2467 2637 
Q 2206 2953 1844 2953 
Q 1484 2953 1207 2617 
Q 931 2281 931 1641 
z
" transform="scale(0.015625)"/>
      <path id="ArialMT-61" d="M 2588 409 
Q 2275 144 1986 34 
Q 1697 -75 1366 -75 
Q 819 -75 525 192 
Q 231 459 231 875 
Q 231 1119 342 1320 
Q 453 1522 633 1644 
Q 813 1766 1038 1828 
Q 1203 1872 1538 1913 
Q 2219 1994 2541 2106 
Q 2544 2222 2544 2253 
Q 2544 2597 2384 2738 
Q 2169 2928 1744 2928 
Q 1347 2928 1158 2789 
Q 969 2650 878 2297 
L 328 2372 
Q 403 2725 575 2942 
Q 747 3159 1072 3276 
Q 1397 3394 1825 3394 
Q 2250 3394 2515 3294 
Q 2781 3194 2906 3042 
Q 3031 2891 3081 2659 
Q 3109 2516 3109 2141 
L 3109 1391 
Q 3109 606 3145 398 
Q 3181 191 3288 0 
L 2700 0 
Q 2613 175 2588 409 
z
M 2541 1666 
Q 2234 1541 1622 1453 
Q 1275 1403 1131 1340 
Q 988 1278 909 1158 
Q 831 1038 831 891 
Q 831 666 1001 516 
Q 1172 366 1500 366 
Q 1825 366 2078 508 
Q 2331 650 2450 897 
Q 2541 1088 2541 1459 
L 2541 1666 
z
" transform="scale(0.015625)"/>
      <path id="ArialMT-3a" d="M 578 2678 
L 578 3319 
L 1219 3319 
L 1219 2678 
L 578 2678 
z
M 578 0 
L 578 641 
L 1219 641 
L 1219 0 
L 578 0 
z
" transform="scale(0.015625)"/>
      <path id="ArialMT-4f" d="M 309 2231 
Q 309 3372 921 4017 
Q 1534 4663 2503 4663 
Q 3138 4663 3647 4359 
Q 4156 4056 4423 3514 
Q 4691 2972 4691 2284 
Q 4691 1588 4409 1038 
Q 4128 488 3612 205 
Q 3097 -78 2500 -78 
Q 1853 -78 1343 234 
Q 834 547 571 1087 
Q 309 1628 309 2231 
z
M 934 2222 
Q 934 1394 1379 917 
Q 1825 441 2497 441 
Q 3181 441 3623 922 
Q 4066 1403 4066 2288 
Q 4066 2847 3877 3264 
Q 3688 3681 3323 3911 
Q 2959 4141 2506 4141 
Q 1863 4141 1398 3698 
Q 934 3256 934 2222 
z
" transform="scale(0.015625)"/>
      <path id="ArialMT-6c" d="M 409 0 
L 409 4581 
L 972 4581 
L 972 0 
L 409 0 
z
" transform="scale(0.015625)"/>
      <path id="ArialMT-53" d="M 288 1472 
L 859 1522 
Q 900 1178 1048 958 
Q 1197 738 1509 602 
Q 1822 466 2213 466 
Q 2559 466 2825 569 
Q 3091 672 3220 851 
Q 3350 1031 3350 1244 
Q 3350 1459 3225 1620 
Q 3100 1781 2813 1891 
Q 2628 1963 1997 2114 
Q 1366 2266 1113 2400 
Q 784 2572 623 2826 
Q 463 3081 463 3397 
Q 463 3744 659 4045 
Q 856 4347 1234 4503 
Q 1613 4659 2075 4659 
Q 2584 4659 2973 4495 
Q 3363 4331 3572 4012 
Q 3781 3694 3797 3291 
L 3216 3247 
Q 3169 3681 2898 3903 
Q 2628 4125 2100 4125 
Q 1550 4125 1298 3923 
Q 1047 3722 1047 3438 
Q 1047 3191 1225 3031 
Q 1400 2872 2139 2705 
Q 2878 2538 3153 2413 
Q 3553 2228 3743 1945 
Q 3934 1663 3934 1294 
Q 3934 928 3725 604 
Q 3516 281 3123 101 
Q 2731 -78 2241 -78 
Q 1619 -78 1198 103 
Q 778 284 539 648 
Q 300 1013 288 1472 
z
" transform="scale(0.015625)"/>
      <path id="ArialMT-68" d="M 422 0 
L 422 4581 
L 984 4581 
L 984 2938 
Q 1378 3394 1978 3394 
Q 2347 3394 2619 3248 
Q 2891 3103 3008 2847 
Q 3125 2591 3125 2103 
L 3125 0 
L 2563 0 
L 2563 2103 
Q 2563 2525 2380 2717 
Q 2197 2909 1863 2909 
Q 1613 2909 1392 2779 
Q 1172 2650 1078 2428 
Q 984 2206 984 1816 
L 984 0 
L 422 0 
z
" transform="scale(0.015625)"/>
      <path id="ArialMT-75" d="M 2597 0 
L 2597 488 
Q 2209 -75 1544 -75 
Q 1250 -75 995 37 
Q 741 150 617 320 
Q 494 491 444 738 
Q 409 903 409 1263 
L 409 3319 
L 972 3319 
L 972 1478 
Q 972 1038 1006 884 
Q 1059 663 1231 536 
Q 1403 409 1656 409 
Q 1909 409 2131 539 
Q 2353 669 2445 892 
Q 2538 1116 2538 1541 
L 2538 3319 
L 3100 3319 
L 3100 0 
L 2597 0 
z
" transform="scale(0.015625)"/>
      <path id="ArialMT-66" d="M 556 0 
L 556 2881 
L 59 2881 
L 59 3319 
L 556 3319 
L 556 3672 
Q 556 4006 616 4169 
Q 697 4388 901 4523 
Q 1106 4659 1475 4659 
Q 1713 4659 2000 4603 
L 1916 4113 
Q 1741 4144 1584 4144 
Q 1328 4144 1222 4034 
Q 1116 3925 1116 3625 
L 1116 3319 
L 1763 3319 
L 1763 2881 
L 1116 2881 
L 1116 0 
L 556 0 
z
" transform="scale(0.015625)"/>
      <path id="ArialMT-64" d="M 2575 0 
L 2575 419 
Q 2259 -75 1647 -75 
Q 1250 -75 917 144 
Q 584 363 401 755 
Q 219 1147 219 1656 
Q 219 2153 384 2558 
Q 550 2963 881 3178 
Q 1213 3394 1622 3394 
Q 1922 3394 2156 3267 
Q 2391 3141 2538 2938 
L 2538 4581 
L 3097 4581 
L 3097 0 
L 2575 0 
z
M 797 1656 
Q 797 1019 1065 703 
Q 1334 388 1700 388 
Q 2069 388 2326 689 
Q 2584 991 2584 1609 
Q 2584 2291 2321 2609 
Q 2059 2928 1675 2928 
Q 1300 2928 1048 2622 
Q 797 2316 797 1656 
z
" transform="scale(0.015625)"/>
     </defs>
     <use xlink:href="#ArialMT-44"/>
     <use xlink:href="#ArialMT-69" x="72.216797"/>
     <use xlink:href="#ArialMT-76" x="94.433594"/>
     <use xlink:href="#ArialMT-65" x="144.433594"/>
     <use xlink:href="#ArialMT-72" x="200.048828"/>
     <use xlink:href="#ArialMT-67" x="233.349609"/>
     <use xlink:href="#ArialMT-65" x="288.964844"/>
     <use xlink:href="#ArialMT-6e" x="344.580078"/>
     <use xlink:href="#ArialMT-63" x="400.195312"/>
     <use xlink:href="#ArialMT-65" x="450.195312"/>
     <use xlink:href="#ArialMT-20" x="505.810547"/>
     <use xlink:href="#ArialMT-43" x="533.59375"/>
     <use xlink:href="#ArialMT-6f" x="605.810547"/>
     <use xlink:href="#ArialMT-6d" x="661.425781"/>
     <use xlink:href="#ArialMT-70" x="744.726562"/>
     <use xlink:href="#ArialMT-61" x="800.341797"/>
     <use xlink:href="#ArialMT-72" x="855.957031"/>
     <use xlink:href="#ArialMT-69" x="889.257812"/>
     <use xlink:href="#ArialMT-73" x="911.474609"/>
     <use xlink:href="#ArialMT-6f" x="961.474609"/>
     <use xlink:href="#ArialMT-6e" x="1017.089844"/>
     <use xlink:href="#ArialMT-3a" x="1072.705078"/>
     <use xlink:href="#ArialMT-20" x="1100.488281"/>
     <use xlink:href="#ArialMT-4f" x="1128.271484"/>
     <use xlink:href="#ArialMT-72" x="1206.054688"/>
     <use xlink:href="#ArialMT-69" x="1239.355469"/>
     <use xlink:href="#ArialMT-67" x="1261.572266"/>
     <use xlink:href="#ArialMT-69" x="1317.1875"/>
     <use xlink:href="#ArialMT-6e" x="1339.404297"/>
     <use xlink:href="#ArialMT-61" x="1395.019531"/>
     <use xlink:href="#ArialMT-6c" x="1450.634766"/>
     <use xlink:href="#ArialMT-20" x="1472.851562"/>
     <use xlink:href="#ArialMT-76" x="1500.634766"/>
     <use xlink:href="#ArialMT-73" x="1550.634766"/>
     <use xlink:href="#ArialMT-20" x="1600.634766"/>
     <use xlink:href="#ArialMT-53" x="1628.417969"/>
     <use xlink:href="#ArialMT-68" x="1695.117188"/>
     <use xlink:href="#ArialMT-75" x="1750.732422"/>
     <use xlink:href="#ArialMT-66" x="1806.347656"/>
     <use xlink:href="#ArialMT-66" x="1832.380859"/>
     <use xlink:href="#ArialMT-6c" x="1860.164062"/>
     <use xlink:href="#ArialMT-65" x="1882.380859"/>
     <use xlink:href="#ArialMT-64" x="1937.996094"/>
    </g>
   </g>
   <g id="legend_1">
    <g id="patch_5">
     <path d="M 615.14 259.415469 
L 704.741875 259.415469 
Q 706.941875 259.415469 706.941875 257.215469 
L 706.941875 148.284531 
Q 706.941875 146.084531 704.741875 146.084531 
L 615.14 146.084531 
Q 612.94 146.084531 612.94 148.284531 
L 612.94 257.215469 
Q 612.94 259.415469 615.14 259.415469 
z
" style="fill: #ffffff; opacity: 0.8; stroke: #cccccc; stroke-linejoin: miter"/>
    </g>
    <g id="line2d_19">
     <path d="M 617.34 154.649062 
L 628.34 154.649062 
L 639.34 154.649062 
" style="fill: none; stroke: #1e72ff; stroke-width: 2; stroke-linecap: round"/>
    </g>
    <g id="text_14">
     <!-- Original -->
     <g style="fill: #262626" transform="translate(648.14 158.499062) scale(0.11 -0.11)">
      <use xlink:href="#ArialMT-4f"/>
      <use xlink:href="#ArialMT-72" x="77.783203"/>
      <use xlink:href="#ArialMT-69" x="111.083984"/>
      <use xlink:href="#ArialMT-67" x="133.300781"/>
      <use xlink:href="#ArialMT-69" x="188.916016"/>
      <use xlink:href="#ArialMT-6e" x="211.132812"/>
      <use xlink:href="#ArialMT-61" x="266.748047"/>
      <use xlink:href="#ArialMT-6c" x="322.363281"/>
     </g>
    </g>
    <g id="line2d_20">
     <path d="M 617.34 170.47875 
L 628.34 170.47875 
L 639.34 170.47875 
" style="fill: none; stroke-dasharray: 7.4,3.2; stroke-dashoffset: 0; stroke: #1e72ff; stroke-width: 2"/>
    </g>
    <g id="text_15">
     <!-- Original -->
     <g style="fill: #262626" transform="translate(648.14 174.32875) scale(0.11 -0.11)">
      <use xlink:href="#ArialMT-4f"/>
      <use xlink:href="#ArialMT-72" x="77.783203"/>
      <use xlink:href="#ArialMT-69" x="111.083984"/>
      <use xlink:href="#ArialMT-67" x="133.300781"/>
      <use xlink:href="#ArialMT-69" x="188.916016"/>
      <use xlink:href="#ArialMT-6e" x="211.132812"/>
      <use xlink:href="#ArialMT-61" x="266.748047"/>
      <use xlink:href="#ArialMT-6c" x="322.363281"/>
     </g>
    </g>
    <g id="PathCollection_3">
     <g>
      <use xlink:href="#mc8aab29287" x="628.34" y="187.162656" style="fill: #1e72ff; stroke: #1e72ff"/>
     </g>
    </g>
    <g id="text_16">
     <!-- p &lt; 0.001 -->
     <g style="fill: #262626" transform="translate(648.14 190.050156) scale(0.11 -0.11)">
      <defs>
       <path id="ArialMT-3c" d="M 350 2003 
L 350 2528 
L 3384 3809 
L 3384 3250 
L 978 2263 
L 3384 1266 
L 3384 706 
L 350 2003 
z
" transform="scale(0.015625)"/>
      </defs>
      <use xlink:href="#ArialMT-70"/>
      <use xlink:href="#ArialMT-20" x="55.615234"/>
      <use xlink:href="#ArialMT-3c" x="83.398438"/>
      <use xlink:href="#ArialMT-20" x="141.796875"/>
      <use xlink:href="#ArialMT-30" x="169.580078"/>
      <use xlink:href="#ArialMT-2e" x="225.195312"/>
      <use xlink:href="#ArialMT-30" x="252.978516"/>
      <use xlink:href="#ArialMT-30" x="308.59375"/>
      <use xlink:href="#ArialMT-31" x="364.208984"/>
     </g>
    </g>
    <g id="line2d_21">
     <path d="M 617.34 201.76 
L 628.34 201.76 
L 639.34 201.76 
" style="fill: none; stroke-dasharray: 5.55,2.4; stroke-dashoffset: 0; stroke: #1a1a1a; stroke-width: 1.5"/>
    </g>
    <g id="text_17">
     <!-- Stim Onset -->
     <g style="fill: #262626" transform="translate(648.14 205.61) scale(0.11 -0.11)">
      <defs>
       <path id="ArialMT-74" d="M 1650 503 
L 1731 6 
Q 1494 -44 1306 -44 
Q 1000 -44 831 53 
Q 663 150 594 308 
Q 525 466 525 972 
L 525 2881 
L 113 2881 
L 113 3319 
L 525 3319 
L 525 4141 
L 1084 4478 
L 1084 3319 
L 1650 3319 
L 1650 2881 
L 1084 2881 
L 1084 941 
Q 1084 700 1114 631 
Q 1144 563 1211 522 
Q 1278 481 1403 481 
Q 1497 481 1650 503 
z
" transform="scale(0.015625)"/>
      </defs>
      <use xlink:href="#ArialMT-53"/>
      <use xlink:href="#ArialMT-74" x="66.699219"/>
      <use xlink:href="#ArialMT-69" x="94.482422"/>
      <use xlink:href="#ArialMT-6d" x="116.699219"/>
      <use xlink:href="#ArialMT-20" x="200"/>
      <use xlink:href="#ArialMT-4f" x="227.783203"/>
      <use xlink:href="#ArialMT-6e" x="305.566406"/>
      <use xlink:href="#ArialMT-73" x="361.181641"/>
      <use xlink:href="#ArialMT-65" x="411.181641"/>
      <use xlink:href="#ArialMT-74" x="466.796875"/>
     </g>
    </g>
    <g id="line2d_22">
     <path d="M 617.34 217.319844 
L 628.34 217.319844 
L 639.34 217.319844 
" style="fill: none; stroke-dasharray: 5.55,2.4; stroke-dashoffset: 0; stroke: #1a1a1a; stroke-width: 1.5"/>
    </g>
    <g id="text_18">
     <!-- Stim End -->
     <g style="fill: #262626" transform="translate(648.14 221.169844) scale(0.11 -0.11)">
      <defs>
       <path id="ArialMT-45" d="M 506 0 
L 506 4581 
L 3819 4581 
L 3819 4041 
L 1113 4041 
L 1113 2638 
L 3647 2638 
L 3647 2100 
L 1113 2100 
L 1113 541 
L 3925 541 
L 3925 0 
L 506 0 
z
" transform="scale(0.015625)"/>
      </defs>
      <use xlink:href="#ArialMT-53"/>
      <use xlink:href="#ArialMT-74" x="66.699219"/>
      <use xlink:href="#ArialMT-69" x="94.482422"/>
      <use xlink:href="#ArialMT-6d" x="116.699219"/>
      <use xlink:href="#ArialMT-20" x="200"/>
      <use xlink:href="#ArialMT-45" x="227.783203"/>
      <use xlink:href="#ArialMT-6e" x="294.482422"/>
      <use xlink:href="#ArialMT-64" x="350.097656"/>
     </g>
    </g>
    <g id="line2d_23">
     <path d="M 617.34 233.020625 
L 628.34 233.020625 
L 639.34 233.020625 
" style="fill: none; stroke: #1e408b; stroke-width: 2; stroke-linecap: round"/>
    </g>
    <g id="text_19">
     <!-- Original -->
     <g style="fill: #262626" transform="translate(648.14 236.870625) scale(0.11 -0.11)">
      <use xlink:href="#ArialMT-4f"/>
      <use xlink:href="#ArialMT-72" x="77.783203"/>
      <use xlink:href="#ArialMT-69" x="111.083984"/>
      <use xlink:href="#ArialMT-67" x="133.300781"/>
      <use xlink:href="#ArialMT-69" x="188.916016"/>
      <use xlink:href="#ArialMT-6e" x="211.132812"/>
      <use xlink:href="#ArialMT-61" x="266.748047"/>
      <use xlink:href="#ArialMT-6c" x="322.363281"/>
     </g>
    </g>
    <g id="line2d_24">
     <path d="M 617.34 248.850313 
L 628.34 248.850313 
L 639.34 248.850313 
" style="fill: none; stroke-dasharray: 7.4,3.2; stroke-dashoffset: 0; stroke: #1e408b; stroke-width: 2"/>
    </g>
    <g id="text_20">
     <!-- Original -->
     <g style="fill: #262626" transform="translate(648.14 252.700312) scale(0.11 -0.11)">
      <use xlink:href="#ArialMT-4f"/>
      <use xlink:href="#ArialMT-72" x="77.783203"/>
      <use xlink:href="#ArialMT-69" x="111.083984"/>
      <use xlink:href="#ArialMT-67" x="133.300781"/>
      <use xlink:href="#ArialMT-69" x="188.916016"/>
      <use xlink:href="#ArialMT-6e" x="211.132812"/>
      <use xlink:href="#ArialMT-61" x="266.748047"/>
      <use xlink:href="#ArialMT-6c" x="322.363281"/>
     </g>
    </g>
   </g>
  </g>
 </g>
 <defs>
  <clipPath id="pb2db82ea16">
   <rect x="77.46" y="26.96" width="529.98" height="351.58"/>
  </clipPath>
 </defs>
</svg>
