<?xml version="1.0" encoding="utf-8" standalone="no"?>
<!DOCTYPE svg PUBLIC "-//W3C//DTD SVG 1.1//EN"
  "http://www.w3.org/Graphics/SVG/1.1/DTD/svg11.dtd">
<svg xmlns:xlink="http://www.w3.org/1999/xlink" width="720pt" height="432pt" viewBox="0 0 720 432" xmlns="http://www.w3.org/2000/svg" version="1.1">
 <metadata>
  <rdf:RDF xmlns:dc="http://purl.org/dc/elements/1.1/" xmlns:cc="http://creativecommons.org/ns#" xmlns:rdf="http://www.w3.org/1999/02/22-rdf-syntax-ns#">
   <cc:Work>
    <dc:type rdf:resource="http://purl.org/dc/dcmitype/StillImage"/>
    <dc:date>2025-07-17T15:25:13.038710</dc:date>
    <dc:format>image/svg+xml</dc:format>
    <dc:creator>
     <cc:Agent>
      <dc:title>Matplotlib v3.9.4, https://matplotlib.org/</dc:title>
     </cc:Agent>
    </dc:creator>
   </cc:Work>
  </rdf:RDF>
 </metadata>
 <defs>
  <style type="text/css">*{stroke-linejoin: round; stroke-linecap: butt}</style>
 </defs>
 <g id="figure_1">
  <g id="patch_1">
   <path d="M 0 432 
L 720 432 
L 720 0 
L 0 0 
z
" style="fill: #ffffff"/>
  </g>
  <g id="axes_1">
   <g id="patch_2">
    <path d="M 69.57 378.18 
L 607.76 378.18 
L 607.76 27.6 
L 69.57 27.6 
L 69.57 378.18 
z
" style="fill: none"/>
   </g>
   <g id="matplotlib.axis_1">
    <g id="xtick_1">
     <g id="text_1">
      <!-- 0 -->
      <g style="fill: #262626" transform="translate(120.441456 398.416719) scale(0.15 -0.15)">
       <defs>
        <path id="ArialMT-30" d="M 266 2259 
Q 266 3072 433 3567 
Q 600 4063 929 4331 
Q 1259 4600 1759 4600 
Q 2128 4600 2406 4451 
Q 2684 4303 2865 4023 
Q 3047 3744 3150 3342 
Q 3253 2941 3253 2259 
Q 3253 1453 3087 958 
Q 2922 463 2592 192 
Q 2263 -78 1759 -78 
Q 1097 -78 719 397 
Q 266 969 266 2259 
z
M 844 2259 
Q 844 1131 1108 757 
Q 1372 384 1759 384 
Q 2147 384 2411 759 
Q 2675 1134 2675 2259 
Q 2675 3391 2411 3762 
Q 2147 4134 1753 4134 
Q 1366 4134 1134 3806 
Q 844 3388 844 2259 
z
" transform="scale(0.015625)"/>
       </defs>
       <use xlink:href="#ArialMT-30"/>
      </g>
     </g>
    </g>
    <g id="xtick_2">
     <g id="text_2">
      <!-- 200 -->
      <g style="fill: #262626" transform="translate(173.258004 398.416719) scale(0.15 -0.15)">
       <defs>
        <path id="ArialMT-32" d="M 3222 541 
L 3222 0 
L 194 0 
Q 188 203 259 391 
Q 375 700 629 1000 
Q 884 1300 1366 1694 
Q 2113 2306 2375 2664 
Q 2638 3022 2638 3341 
Q 2638 3675 2398 3904 
Q 2159 4134 1775 4134 
Q 1369 4134 1125 3890 
Q 881 3647 878 3216 
L 300 3275 
Q 359 3922 746 4261 
Q 1134 4600 1788 4600 
Q 2447 4600 2831 4234 
Q 3216 3869 3216 3328 
Q 3216 3053 3103 2787 
Q 2991 2522 2730 2228 
Q 2469 1934 1863 1422 
Q 1356 997 1212 845 
Q 1069 694 975 541 
L 3222 541 
z
" transform="scale(0.015625)"/>
       </defs>
       <use xlink:href="#ArialMT-32"/>
       <use xlink:href="#ArialMT-30" x="55.615234"/>
       <use xlink:href="#ArialMT-30" x="111.230469"/>
      </g>
     </g>
    </g>
    <g id="xtick_3">
     <g id="text_3">
      <!-- 400 -->
      <g style="fill: #262626" transform="translate(234.415959 398.416719) scale(0.15 -0.15)">
       <defs>
        <path id="ArialMT-34" d="M 2069 0 
L 2069 1097 
L 81 1097 
L 81 1613 
L 2172 4581 
L 2631 4581 
L 2631 1613 
L 3250 1613 
L 3250 1097 
L 2631 1097 
L 2631 0 
L 2069 0 
z
M 2069 1613 
L 2069 3678 
L 634 1613 
L 2069 1613 
z
" transform="scale(0.015625)"/>
       </defs>
       <use xlink:href="#ArialMT-34"/>
       <use xlink:href="#ArialMT-30" x="55.615234"/>
       <use xlink:href="#ArialMT-30" x="111.230469"/>
      </g>
     </g>
    </g>
    <g id="xtick_4">
     <g id="text_4">
      <!-- 600 -->
      <g style="fill: #262626" transform="translate(295.573913 398.416719) scale(0.15 -0.15)">
       <defs>
        <path id="ArialMT-36" d="M 3184 3459 
L 2625 3416 
Q 2550 3747 2413 3897 
Q 2184 4138 1850 4138 
Q 1581 4138 1378 3988 
Q 1113 3794 959 3422 
Q 806 3050 800 2363 
Q 1003 2672 1297 2822 
Q 1591 2972 1913 2972 
Q 2475 2972 2870 2558 
Q 3266 2144 3266 1488 
Q 3266 1056 3080 686 
Q 2894 316 2569 119 
Q 2244 -78 1831 -78 
Q 1128 -78 684 439 
Q 241 956 241 2144 
Q 241 3472 731 4075 
Q 1159 4600 1884 4600 
Q 2425 4600 2770 4297 
Q 3116 3994 3184 3459 
z
M 888 1484 
Q 888 1194 1011 928 
Q 1134 663 1356 523 
Q 1578 384 1822 384 
Q 2178 384 2434 671 
Q 2691 959 2691 1453 
Q 2691 1928 2437 2201 
Q 2184 2475 1800 2475 
Q 1419 2475 1153 2201 
Q 888 1928 888 1484 
z
" transform="scale(0.015625)"/>
       </defs>
       <use xlink:href="#ArialMT-36"/>
       <use xlink:href="#ArialMT-30" x="55.615234"/>
       <use xlink:href="#ArialMT-30" x="111.230469"/>
      </g>
     </g>
    </g>
    <g id="xtick_5">
     <g id="text_5">
      <!-- 800 -->
      <g style="fill: #262626" transform="translate(356.731868 398.416719) scale(0.15 -0.15)">
       <defs>
        <path id="ArialMT-38" d="M 1131 2484 
Q 781 2613 612 2850 
Q 444 3088 444 3419 
Q 444 3919 803 4259 
Q 1163 4600 1759 4600 
Q 2359 4600 2725 4251 
Q 3091 3903 3091 3403 
Q 3091 3084 2923 2848 
Q 2756 2613 2416 2484 
Q 2838 2347 3058 2040 
Q 3278 1734 3278 1309 
Q 3278 722 2862 322 
Q 2447 -78 1769 -78 
Q 1091 -78 675 323 
Q 259 725 259 1325 
Q 259 1772 486 2073 
Q 713 2375 1131 2484 
z
M 1019 3438 
Q 1019 3113 1228 2906 
Q 1438 2700 1772 2700 
Q 2097 2700 2305 2904 
Q 2513 3109 2513 3406 
Q 2513 3716 2298 3927 
Q 2084 4138 1766 4138 
Q 1444 4138 1231 3931 
Q 1019 3725 1019 3438 
z
M 838 1322 
Q 838 1081 952 856 
Q 1066 631 1291 507 
Q 1516 384 1775 384 
Q 2178 384 2440 643 
Q 2703 903 2703 1303 
Q 2703 1709 2433 1975 
Q 2163 2241 1756 2241 
Q 1359 2241 1098 1978 
Q 838 1716 838 1322 
z
" transform="scale(0.015625)"/>
       </defs>
       <use xlink:href="#ArialMT-38"/>
       <use xlink:href="#ArialMT-30" x="55.615234"/>
       <use xlink:href="#ArialMT-30" x="111.230469"/>
      </g>
     </g>
    </g>
    <g id="xtick_6">
     <g id="text_6">
      <!-- 1000 -->
      <g style="fill: #262626" transform="translate(413.719119 398.416719) scale(0.15 -0.15)">
       <defs>
        <path id="ArialMT-31" d="M 2384 0 
L 1822 0 
L 1822 3584 
Q 1619 3391 1289 3197 
Q 959 3003 697 2906 
L 697 3450 
Q 1169 3672 1522 3987 
Q 1875 4303 2022 4600 
L 2384 4600 
L 2384 0 
z
" transform="scale(0.015625)"/>
       </defs>
       <use xlink:href="#ArialMT-31"/>
       <use xlink:href="#ArialMT-30" x="55.615234"/>
       <use xlink:href="#ArialMT-30" x="111.230469"/>
       <use xlink:href="#ArialMT-30" x="166.845703"/>
      </g>
     </g>
    </g>
    <g id="xtick_7">
     <g id="text_7">
      <!-- 1200 -->
      <g style="fill: #262626" transform="translate(474.877074 398.416719) scale(0.15 -0.15)">
       <use xlink:href="#ArialMT-31"/>
       <use xlink:href="#ArialMT-32" x="55.615234"/>
       <use xlink:href="#ArialMT-30" x="111.230469"/>
       <use xlink:href="#ArialMT-30" x="166.845703"/>
      </g>
     </g>
    </g>
    <g id="xtick_8">
     <g id="text_8">
      <!-- 1400 -->
      <g style="fill: #262626" transform="translate(536.035028 398.416719) scale(0.15 -0.15)">
       <use xlink:href="#ArialMT-31"/>
       <use xlink:href="#ArialMT-34" x="55.615234"/>
       <use xlink:href="#ArialMT-30" x="111.230469"/>
       <use xlink:href="#ArialMT-30" x="166.845703"/>
      </g>
     </g>
    </g>
    <g id="text_9">
     <!-- Time (s) -->
     <g style="fill: #262626" transform="translate(311.452891 416.3175) scale(0.15 -0.15)">
      <defs>
       <path id="ArialMT-54" d="M 1659 0 
L 1659 4041 
L 150 4041 
L 150 4581 
L 3781 4581 
L 3781 4041 
L 2266 4041 
L 2266 0 
L 1659 0 
z
" transform="scale(0.015625)"/>
       <path id="ArialMT-69" d="M 425 3934 
L 425 4581 
L 988 4581 
L 988 3934 
L 425 3934 
z
M 425 0 
L 425 3319 
L 988 3319 
L 988 0 
L 425 0 
z
" transform="scale(0.015625)"/>
       <path id="ArialMT-6d" d="M 422 0 
L 422 3319 
L 925 3319 
L 925 2853 
Q 1081 3097 1340 3245 
Q 1600 3394 1931 3394 
Q 2300 3394 2536 3241 
Q 2772 3088 2869 2813 
Q 3263 3394 3894 3394 
Q 4388 3394 4653 3120 
Q 4919 2847 4919 2278 
L 4919 0 
L 4359 0 
L 4359 2091 
Q 4359 2428 4304 2576 
Q 4250 2725 4106 2815 
Q 3963 2906 3769 2906 
Q 3419 2906 3187 2673 
Q 2956 2441 2956 1928 
L 2956 0 
L 2394 0 
L 2394 2156 
Q 2394 2531 2256 2718 
Q 2119 2906 1806 2906 
Q 1569 2906 1367 2781 
Q 1166 2656 1075 2415 
Q 984 2175 984 1722 
L 984 0 
L 422 0 
z
" transform="scale(0.015625)"/>
       <path id="ArialMT-65" d="M 2694 1069 
L 3275 997 
Q 3138 488 2766 206 
Q 2394 -75 1816 -75 
Q 1088 -75 661 373 
Q 234 822 234 1631 
Q 234 2469 665 2931 
Q 1097 3394 1784 3394 
Q 2450 3394 2872 2941 
Q 3294 2488 3294 1666 
Q 3294 1616 3291 1516 
L 816 1516 
Q 847 969 1125 678 
Q 1403 388 1819 388 
Q 2128 388 2347 550 
Q 2566 713 2694 1069 
z
M 847 1978 
L 2700 1978 
Q 2663 2397 2488 2606 
Q 2219 2931 1791 2931 
Q 1403 2931 1139 2672 
Q 875 2413 847 1978 
z
" transform="scale(0.015625)"/>
       <path id="ArialMT-20" transform="scale(0.015625)"/>
       <path id="ArialMT-28" d="M 1497 -1347 
Q 1031 -759 709 28 
Q 388 816 388 1659 
Q 388 2403 628 3084 
Q 909 3875 1497 4659 
L 1900 4659 
Q 1522 4009 1400 3731 
Q 1209 3300 1100 2831 
Q 966 2247 966 1656 
Q 966 153 1900 -1347 
L 1497 -1347 
z
" transform="scale(0.015625)"/>
       <path id="ArialMT-73" d="M 197 991 
L 753 1078 
Q 800 744 1014 566 
Q 1228 388 1613 388 
Q 2000 388 2187 545 
Q 2375 703 2375 916 
Q 2375 1106 2209 1216 
Q 2094 1291 1634 1406 
Q 1016 1563 777 1677 
Q 538 1791 414 1992 
Q 291 2194 291 2438 
Q 291 2659 392 2848 
Q 494 3038 669 3163 
Q 800 3259 1026 3326 
Q 1253 3394 1513 3394 
Q 1903 3394 2198 3281 
Q 2494 3169 2634 2976 
Q 2775 2784 2828 2463 
L 2278 2388 
Q 2241 2644 2061 2787 
Q 1881 2931 1553 2931 
Q 1166 2931 1000 2803 
Q 834 2675 834 2503 
Q 834 2394 903 2306 
Q 972 2216 1119 2156 
Q 1203 2125 1616 2013 
Q 2213 1853 2448 1751 
Q 2684 1650 2818 1456 
Q 2953 1263 2953 975 
Q 2953 694 2789 445 
Q 2625 197 2315 61 
Q 2006 -75 1616 -75 
Q 969 -75 630 194 
Q 291 463 197 991 
z
" transform="scale(0.015625)"/>
       <path id="ArialMT-29" d="M 791 -1347 
L 388 -1347 
Q 1322 153 1322 1656 
Q 1322 2244 1188 2822 
Q 1081 3291 891 3722 
Q 769 4003 388 4659 
L 791 4659 
Q 1378 3875 1659 3084 
Q 1900 2403 1900 1659 
Q 1900 816 1576 28 
Q 1253 -759 791 -1347 
z
" transform="scale(0.015625)"/>
      </defs>
      <use xlink:href="#ArialMT-54"/>
      <use xlink:href="#ArialMT-69" x="57.333984"/>
      <use xlink:href="#ArialMT-6d" x="79.550781"/>
      <use xlink:href="#ArialMT-65" x="162.851562"/>
      <use xlink:href="#ArialMT-20" x="218.466797"/>
      <use xlink:href="#ArialMT-28" x="246.25"/>
      <use xlink:href="#ArialMT-73" x="279.550781"/>
      <use xlink:href="#ArialMT-29" x="329.550781"/>
     </g>
    </g>
   </g>
   <g id="matplotlib.axis_2">
    <g id="ytick_1">
     <g id="text_10">
      <!-- 0.00 -->
      <g style="fill: #262626" transform="translate(30.878594 349.414901) scale(0.15 -0.15)">
       <defs>
        <path id="ArialMT-2e" d="M 581 0 
L 581 641 
L 1222 641 
L 1222 0 
L 581 0 
z
" transform="scale(0.015625)"/>
       </defs>
       <use xlink:href="#ArialMT-30"/>
       <use xlink:href="#ArialMT-2e" x="55.615234"/>
       <use xlink:href="#ArialMT-30" x="83.398438"/>
       <use xlink:href="#ArialMT-30" x="139.013672"/>
      </g>
     </g>
    </g>
    <g id="ytick_2">
     <g id="text_11">
      <!-- 0.05 -->
      <g style="fill: #262626" transform="translate(30.878594 303.919892) scale(0.15 -0.15)">
       <defs>
        <path id="ArialMT-35" d="M 266 1200 
L 856 1250 
Q 922 819 1161 601 
Q 1400 384 1738 384 
Q 2144 384 2425 690 
Q 2706 997 2706 1503 
Q 2706 1984 2436 2262 
Q 2166 2541 1728 2541 
Q 1456 2541 1237 2417 
Q 1019 2294 894 2097 
L 366 2166 
L 809 4519 
L 3088 4519 
L 3088 3981 
L 1259 3981 
L 1013 2750 
Q 1425 3038 1878 3038 
Q 2478 3038 2890 2622 
Q 3303 2206 3303 1553 
Q 3303 931 2941 478 
Q 2500 -78 1738 -78 
Q 1113 -78 717 272 
Q 322 622 266 1200 
z
" transform="scale(0.015625)"/>
       </defs>
       <use xlink:href="#ArialMT-30"/>
       <use xlink:href="#ArialMT-2e" x="55.615234"/>
       <use xlink:href="#ArialMT-30" x="83.398438"/>
       <use xlink:href="#ArialMT-35" x="139.013672"/>
      </g>
     </g>
    </g>
    <g id="ytick_3">
     <g id="text_12">
      <!-- 0.10 -->
      <g style="fill: #262626" transform="translate(30.878594 258.424883) scale(0.15 -0.15)">
       <use xlink:href="#ArialMT-30"/>
       <use xlink:href="#ArialMT-2e" x="55.615234"/>
       <use xlink:href="#ArialMT-31" x="83.398438"/>
       <use xlink:href="#ArialMT-30" x="139.013672"/>
      </g>
     </g>
    </g>
    <g id="ytick_4">
     <g id="text_13">
      <!-- 0.15 -->
      <g style="fill: #262626" transform="translate(30.878594 212.929874) scale(0.15 -0.15)">
       <use xlink:href="#ArialMT-30"/>
       <use xlink:href="#ArialMT-2e" x="55.615234"/>
       <use xlink:href="#ArialMT-31" x="83.398438"/>
       <use xlink:href="#ArialMT-35" x="139.013672"/>
      </g>
     </g>
    </g>
    <g id="ytick_5">
     <g id="text_14">
      <!-- 0.20 -->
      <g style="fill: #262626" transform="translate(30.878594 167.434865) scale(0.15 -0.15)">
       <use xlink:href="#ArialMT-30"/>
       <use xlink:href="#ArialMT-2e" x="55.615234"/>
       <use xlink:href="#ArialMT-32" x="83.398438"/>
       <use xlink:href="#ArialMT-30" x="139.013672"/>
      </g>
     </g>
    </g>
    <g id="ytick_6">
     <g id="text_15">
      <!-- 0.25 -->
      <g style="fill: #262626" transform="translate(30.878594 121.939855) scale(0.15 -0.15)">
       <use xlink:href="#ArialMT-30"/>
       <use xlink:href="#ArialMT-2e" x="55.615234"/>
       <use xlink:href="#ArialMT-32" x="83.398438"/>
       <use xlink:href="#ArialMT-35" x="139.013672"/>
      </g>
     </g>
    </g>
    <g id="ytick_7">
     <g id="text_16">
      <!-- 0.30 -->
      <g style="fill: #262626" transform="translate(30.878594 76.444846) scale(0.15 -0.15)">
       <defs>
        <path id="ArialMT-33" d="M 269 1209 
L 831 1284 
Q 928 806 1161 595 
Q 1394 384 1728 384 
Q 2125 384 2398 659 
Q 2672 934 2672 1341 
Q 2672 1728 2419 1979 
Q 2166 2231 1775 2231 
Q 1616 2231 1378 2169 
L 1441 2663 
Q 1497 2656 1531 2656 
Q 1891 2656 2178 2843 
Q 2466 3031 2466 3422 
Q 2466 3731 2256 3934 
Q 2047 4138 1716 4138 
Q 1388 4138 1169 3931 
Q 950 3725 888 3313 
L 325 3413 
Q 428 3978 793 4289 
Q 1159 4600 1703 4600 
Q 2078 4600 2393 4439 
Q 2709 4278 2876 4000 
Q 3044 3722 3044 3409 
Q 3044 3113 2884 2869 
Q 2725 2625 2413 2481 
Q 2819 2388 3044 2092 
Q 3269 1797 3269 1353 
Q 3269 753 2831 336 
Q 2394 -81 1725 -81 
Q 1122 -81 723 278 
Q 325 638 269 1209 
z
" transform="scale(0.015625)"/>
       </defs>
       <use xlink:href="#ArialMT-30"/>
       <use xlink:href="#ArialMT-2e" x="55.615234"/>
       <use xlink:href="#ArialMT-33" x="83.398438"/>
       <use xlink:href="#ArialMT-30" x="139.013672"/>
      </g>
     </g>
    </g>
    <g id="text_17">
     <!-- Divergence -->
     <g style="fill: #262626" transform="translate(23.721563 240.823594) rotate(-90) scale(0.15 -0.15)">
      <defs>
       <path id="ArialMT-44" d="M 494 0 
L 494 4581 
L 2072 4581 
Q 2606 4581 2888 4516 
Q 3281 4425 3559 4188 
Q 3922 3881 4101 3404 
Q 4281 2928 4281 2316 
Q 4281 1794 4159 1391 
Q 4038 988 3847 723 
Q 3656 459 3429 307 
Q 3203 156 2883 78 
Q 2563 0 2147 0 
L 494 0 
z
M 1100 541 
L 2078 541 
Q 2531 541 2789 625 
Q 3047 709 3200 863 
Q 3416 1078 3536 1442 
Q 3656 1806 3656 2325 
Q 3656 3044 3420 3430 
Q 3184 3816 2847 3947 
Q 2603 4041 2063 4041 
L 1100 4041 
L 1100 541 
z
" transform="scale(0.015625)"/>
       <path id="ArialMT-76" d="M 1344 0 
L 81 3319 
L 675 3319 
L 1388 1331 
Q 1503 1009 1600 663 
Q 1675 925 1809 1294 
L 2547 3319 
L 3125 3319 
L 1869 0 
L 1344 0 
z
" transform="scale(0.015625)"/>
       <path id="ArialMT-72" d="M 416 0 
L 416 3319 
L 922 3319 
L 922 2816 
Q 1116 3169 1280 3281 
Q 1444 3394 1641 3394 
Q 1925 3394 2219 3213 
L 2025 2691 
Q 1819 2813 1613 2813 
Q 1428 2813 1281 2702 
Q 1134 2591 1072 2394 
Q 978 2094 978 1738 
L 978 0 
L 416 0 
z
" transform="scale(0.015625)"/>
       <path id="ArialMT-67" d="M 319 -275 
L 866 -356 
Q 900 -609 1056 -725 
Q 1266 -881 1628 -881 
Q 2019 -881 2231 -725 
Q 2444 -569 2519 -288 
Q 2563 -116 2559 434 
Q 2191 0 1641 0 
Q 956 0 581 494 
Q 206 988 206 1678 
Q 206 2153 378 2554 
Q 550 2956 876 3175 
Q 1203 3394 1644 3394 
Q 2231 3394 2613 2919 
L 2613 3319 
L 3131 3319 
L 3131 450 
Q 3131 -325 2973 -648 
Q 2816 -972 2473 -1159 
Q 2131 -1347 1631 -1347 
Q 1038 -1347 672 -1080 
Q 306 -813 319 -275 
z
M 784 1719 
Q 784 1066 1043 766 
Q 1303 466 1694 466 
Q 2081 466 2343 764 
Q 2606 1063 2606 1700 
Q 2606 2309 2336 2618 
Q 2066 2928 1684 2928 
Q 1309 2928 1046 2623 
Q 784 2319 784 1719 
z
" transform="scale(0.015625)"/>
       <path id="ArialMT-6e" d="M 422 0 
L 422 3319 
L 928 3319 
L 928 2847 
Q 1294 3394 1984 3394 
Q 2284 3394 2536 3286 
Q 2788 3178 2913 3003 
Q 3038 2828 3088 2588 
Q 3119 2431 3119 2041 
L 3119 0 
L 2556 0 
L 2556 2019 
Q 2556 2363 2490 2533 
Q 2425 2703 2258 2804 
Q 2091 2906 1866 2906 
Q 1506 2906 1245 2678 
Q 984 2450 984 1813 
L 984 0 
L 422 0 
z
" transform="scale(0.015625)"/>
       <path id="ArialMT-63" d="M 2588 1216 
L 3141 1144 
Q 3050 572 2676 248 
Q 2303 -75 1759 -75 
Q 1078 -75 664 370 
Q 250 816 250 1647 
Q 250 2184 428 2587 
Q 606 2991 970 3192 
Q 1334 3394 1763 3394 
Q 2303 3394 2647 3120 
Q 2991 2847 3088 2344 
L 2541 2259 
Q 2463 2594 2264 2762 
Q 2066 2931 1784 2931 
Q 1359 2931 1093 2626 
Q 828 2322 828 1663 
Q 828 994 1084 691 
Q 1341 388 1753 388 
Q 2084 388 2306 591 
Q 2528 794 2588 1216 
z
" transform="scale(0.015625)"/>
      </defs>
      <use xlink:href="#ArialMT-44"/>
      <use xlink:href="#ArialMT-69" x="72.216797"/>
      <use xlink:href="#ArialMT-76" x="94.433594"/>
      <use xlink:href="#ArialMT-65" x="144.433594"/>
      <use xlink:href="#ArialMT-72" x="200.048828"/>
      <use xlink:href="#ArialMT-67" x="233.349609"/>
      <use xlink:href="#ArialMT-65" x="288.964844"/>
      <use xlink:href="#ArialMT-6e" x="344.580078"/>
      <use xlink:href="#ArialMT-63" x="400.195312"/>
      <use xlink:href="#ArialMT-65" x="450.195312"/>
     </g>
    </g>
   </g>
   <g id="PolyCollection_1">
    <defs>
     <path id="m13e29268c6" d="M 94.033182 -101.502373 
L 94.033182 -96.251248 
L 106.264773 -81.915271 
L 118.496364 -77.159406 
L 130.727955 -84.33335 
L 142.959545 -88.437123 
L 155.191136 -86.765793 
L 167.422727 -92.464511 
L 179.654318 -92.689509 
L 191.885909 -92.098217 
L 204.1175 -93.361049 
L 216.349091 -88.975973 
L 228.580682 -82.674245 
L 240.812273 -90.152753 
L 253.043864 -87.551507 
L 265.275455 -87.214407 
L 277.507045 -89.387173 
L 289.738636 -86.99315 
L 301.970227 -92.728121 
L 314.201818 -97.958555 
L 326.433409 -93.12477 
L 338.665 -91.409453 
L 350.896591 -89.573601 
L 363.128182 -90.666852 
L 375.359773 -88.266278 
L 387.591364 -99.235603 
L 399.822955 -92.960342 
L 412.054545 -92.615166 
L 424.286136 -90.230254 
L 436.517727 -93.699044 
L 448.749318 -97.060022 
L 460.980909 -104.784742 
L 473.2125 -100.828004 
L 485.444091 -102.714786 
L 497.675682 -101.655714 
L 509.907273 -98.132355 
L 522.138864 -97.405652 
L 534.370455 -107.324917 
L 546.602045 -115.155519 
L 558.833636 -113.17414 
L 571.065227 -103.787948 
L 583.296818 -99.11728 
L 583.296818 -105.535487 
L 583.296818 -105.535487 
L 571.065227 -109.72089 
L 558.833636 -119.053244 
L 546.602045 -122.049428 
L 534.370455 -112.902034 
L 522.138864 -104.133641 
L 509.907273 -104.4711 
L 497.675682 -106.432206 
L 485.444091 -107.78233 
L 473.2125 -105.973425 
L 460.980909 -109.82766 
L 448.749318 -100.270259 
L 436.517727 -97.628911 
L 424.286136 -95.082399 
L 412.054545 -95.670664 
L 399.822955 -98.065488 
L 387.591364 -105.073586 
L 375.359773 -92.159639 
L 363.128182 -93.911811 
L 350.896591 -93.320092 
L 338.665 -93.821948 
L 326.433409 -96.877833 
L 314.201818 -101.115603 
L 301.970227 -96.365011 
L 289.738636 -90.918928 
L 277.507045 -92.25341 
L 265.275455 -92.129405 
L 253.043864 -92.925792 
L 240.812273 -92.51 
L 228.580682 -87.536462 
L 216.349091 -93.255867 
L 204.1175 -97.607675 
L 191.885909 -95.431766 
L 179.654318 -95.15892 
L 167.422727 -95.889585 
L 155.191136 -91.406828 
L 142.959545 -92.363022 
L 130.727955 -86.936404 
L 118.496364 -82.543857 
L 106.264773 -86.411885 
L 94.033182 -101.502373 
z
" style="stroke: #0000ff; stroke-opacity: 0.1"/>
    </defs>
    <g clip-path="url(#p9dd978c1e1)">
     <use xlink:href="#m13e29268c6" x="0" y="432" style="fill: #0000ff; fill-opacity: 0.1; stroke: #0000ff; stroke-opacity: 0.1"/>
    </g>
   </g>
   <g id="PolyCollection_2">
    <defs>
     <path id="m8a14f0a009" d="M 94.033182 -90.607402 
L 94.033182 -89.102328 
L 106.264773 -87.189923 
L 118.496364 -87.789836 
L 130.727955 -89.111197 
L 142.959545 -90.48188 
L 155.191136 -88.125867 
L 167.422727 -90.64549 
L 179.654318 -91.441331 
L 191.885909 -91.535767 
L 204.1175 -93.19921 
L 216.349091 -92.964854 
L 228.580682 -90.98799 
L 240.812273 -88.81481 
L 253.043864 -89.25339 
L 265.275455 -86.826167 
L 277.507045 -86.153911 
L 289.738636 -90.221388 
L 301.970227 -89.486928 
L 314.201818 -86.243145 
L 326.433409 -85.669009 
L 338.665 -89.063543 
L 350.896591 -95.875123 
L 363.128182 -95.458674 
L 375.359773 -93.700157 
L 387.591364 -90.730727 
L 399.822955 -90.818275 
L 412.054545 -87.507351 
L 424.286136 -85.729914 
L 436.517727 -84.336772 
L 448.749318 -85.274167 
L 460.980909 -85.312279 
L 473.2125 -88.060015 
L 485.444091 -88.643262 
L 497.675682 -87.415109 
L 509.907273 -85.623521 
L 522.138864 -86.338631 
L 534.370455 -89.25079 
L 546.602045 -87.938397 
L 558.833636 -85.207176 
L 571.065227 -81.621961 
L 583.296818 -83.776559 
L 583.296818 -84.912435 
L 583.296818 -84.912435 
L 571.065227 -83.208591 
L 558.833636 -86.732618 
L 546.602045 -88.795848 
L 534.370455 -90.613794 
L 522.138864 -87.406969 
L 509.907273 -86.597403 
L 497.675682 -88.290215 
L 485.444091 -90.037052 
L 473.2125 -89.268431 
L 460.980909 -86.348929 
L 448.749318 -86.21797 
L 436.517727 -85.547542 
L 424.286136 -86.887464 
L 412.054545 -88.467955 
L 399.822955 -92.11106 
L 387.591364 -91.719898 
L 375.359773 -95.013873 
L 363.128182 -97.105447 
L 350.896591 -97.553031 
L 338.665 -90.156393 
L 326.433409 -86.639591 
L 314.201818 -87.146396 
L 301.970227 -90.51532 
L 289.738636 -91.426018 
L 277.507045 -87.361231 
L 265.275455 -87.82224 
L 253.043864 -90.218372 
L 240.812273 -89.802104 
L 228.580682 -92.124147 
L 216.349091 -94.33887 
L 204.1175 -94.528416 
L 191.885909 -92.716786 
L 179.654318 -92.545315 
L 167.422727 -91.599578 
L 155.191136 -89.023376 
L 142.959545 -91.393414 
L 130.727955 -89.801632 
L 118.496364 -89.138642 
L 106.264773 -88.481243 
L 94.033182 -90.607402 
z
" style="stroke: #0000ff; stroke-opacity: 0.1"/>
    </defs>
    <g clip-path="url(#p9dd978c1e1)">
     <use xlink:href="#m8a14f0a009" x="0" y="432" style="fill: #0000ff; fill-opacity: 0.1; stroke: #0000ff; stroke-opacity: 0.1"/>
    </g>
   </g>
   <g id="PathCollection_1">
    <defs>
     <path id="m7ea99357d4" d="M 0 -3 
L -0.673542 -0.927051 
L -2.85317 -0.927051 
L -1.089814 0.354102 
L -1.763356 2.427051 
L -0 1.145898 
L 1.763356 2.427051 
L 1.089814 0.354102 
L 2.85317 -0.927051 
L 0.673542 -0.927051 
z
" style="stroke: #0000ff"/>
    </defs>
    <g clip-path="url(#p9dd978c1e1)">
     <use xlink:href="#m7ea99357d4" x="314.201818" y="353.145544" style="fill: #0000ff; stroke: #0000ff"/>
     <use xlink:href="#m7ea99357d4" x="326.433409" y="353.145544" style="fill: #0000ff; stroke: #0000ff"/>
     <use xlink:href="#m7ea99357d4" x="387.591364" y="353.145544" style="fill: #0000ff; stroke: #0000ff"/>
     <use xlink:href="#m7ea99357d4" x="412.054545" y="353.145544" style="fill: #0000ff; stroke: #0000ff"/>
     <use xlink:href="#m7ea99357d4" x="436.517727" y="353.145544" style="fill: #0000ff; stroke: #0000ff"/>
     <use xlink:href="#m7ea99357d4" x="448.749318" y="353.145544" style="fill: #0000ff; stroke: #0000ff"/>
     <use xlink:href="#m7ea99357d4" x="460.980909" y="353.145544" style="fill: #0000ff; stroke: #0000ff"/>
     <use xlink:href="#m7ea99357d4" x="473.2125" y="353.145544" style="fill: #0000ff; stroke: #0000ff"/>
     <use xlink:href="#m7ea99357d4" x="485.444091" y="353.145544" style="fill: #0000ff; stroke: #0000ff"/>
     <use xlink:href="#m7ea99357d4" x="497.675682" y="353.145544" style="fill: #0000ff; stroke: #0000ff"/>
     <use xlink:href="#m7ea99357d4" x="509.907273" y="353.145544" style="fill: #0000ff; stroke: #0000ff"/>
     <use xlink:href="#m7ea99357d4" x="522.138864" y="353.145544" style="fill: #0000ff; stroke: #0000ff"/>
     <use xlink:href="#m7ea99357d4" x="534.370455" y="353.145544" style="fill: #0000ff; stroke: #0000ff"/>
     <use xlink:href="#m7ea99357d4" x="546.602045" y="353.145544" style="fill: #0000ff; stroke: #0000ff"/>
     <use xlink:href="#m7ea99357d4" x="558.833636" y="353.145544" style="fill: #0000ff; stroke: #0000ff"/>
     <use xlink:href="#m7ea99357d4" x="571.065227" y="353.145544" style="fill: #0000ff; stroke: #0000ff"/>
     <use xlink:href="#m7ea99357d4" x="583.296818" y="353.145544" style="fill: #0000ff; stroke: #0000ff"/>
    </g>
   </g>
   <g id="PolyCollection_3">
    <defs>
     <path id="m337f527b91" d="M 94.033182 -88.086217 
L 94.033182 -87.041579 
L 106.264773 -87.285117 
L 118.496364 -86.741282 
L 130.727955 -88.402449 
L 142.959545 -91.074041 
L 155.191136 -94.623874 
L 167.422727 -99.017 
L 179.654318 -104.149015 
L 191.885909 -109.620801 
L 204.1175 -116.907463 
L 216.349091 -124.714711 
L 228.580682 -132.679729 
L 240.812273 -138.6682 
L 253.043864 -145.908822 
L 265.275455 -152.855243 
L 277.507045 -157.871404 
L 289.738636 -162.3482 
L 301.970227 -166.540612 
L 314.201818 -170.795905 
L 326.433409 -174.00743 
L 338.665 -177.659788 
L 350.896591 -180.357477 
L 363.128182 -183.973339 
L 375.359773 -187.879733 
L 387.591364 -191.272253 
L 399.822955 -196.284275 
L 412.054545 -200.198971 
L 424.286136 -202.079146 
L 436.517727 -225.394372 
L 448.749318 -254.536174 
L 460.980909 -273.009787 
L 473.2125 -289.930247 
L 485.444091 -300.990179 
L 497.675682 -308.353085 
L 509.907273 -313.493207 
L 522.138864 -318.92287 
L 534.370455 -322.210005 
L 546.602045 -322.562013 
L 558.833636 -323.552564 
L 571.065227 -323.890348 
L 583.296818 -322.387474 
L 583.296818 -387.012107 
L 583.296818 -387.012107 
L 571.065227 -388.464545 
L 558.833636 -387.823801 
L 546.602045 -386.429763 
L 534.370455 -385.994211 
L 522.138864 -381.771589 
L 509.907273 -375.109121 
L 497.675682 -368.520312 
L 485.444091 -358.848863 
L 473.2125 -344.487363 
L 460.980909 -323.491269 
L 448.749318 -299.235244 
L 436.517727 -261.911079 
L 424.286136 -236.204475 
L 412.054545 -233.7311 
L 399.822955 -229.13396 
L 387.591364 -222.644296 
L 375.359773 -218.395951 
L 363.128182 -213.690391 
L 350.896591 -209.187935 
L 338.665 -205.972701 
L 326.433409 -201.480585 
L 314.201818 -197.618072 
L 301.970227 -192.428342 
L 289.738636 -186.971021 
L 277.507045 -180.967546 
L 265.275455 -174.683639 
L 253.043864 -166.145039 
L 240.812273 -157.217428 
L 228.580682 -149.236845 
L 216.349091 -139.101046 
L 204.1175 -129.10888 
L 191.885909 -119.398169 
L 179.654318 -112.019301 
L 167.422727 -105.395245 
L 155.191136 -99.99272 
L 142.959545 -95.988764 
L 130.727955 -92.459121 
L 118.496364 -89.533098 
L 106.264773 -89.552909 
L 94.033182 -88.086217 
z
" style="stroke: #ff0000; stroke-opacity: 0.1"/>
    </defs>
    <g clip-path="url(#p9dd978c1e1)">
     <use xlink:href="#m337f527b91" x="0" y="432" style="fill: #ff0000; fill-opacity: 0.1; stroke: #ff0000; stroke-opacity: 0.1"/>
    </g>
   </g>
   <g id="PolyCollection_4">
    <defs>
     <path id="mc4cccbbf7f" d="M 94.033182 -88.358592 
L 94.033182 -87.988669 
L 106.264773 -88.452686 
L 118.496364 -89.746736 
L 130.727955 -91.530678 
L 142.959545 -92.367863 
L 155.191136 -93.487605 
L 167.422727 -93.593541 
L 179.654318 -93.615373 
L 191.885909 -93.974569 
L 204.1175 -94.943299 
L 216.349091 -96.125303 
L 228.580682 -96.616768 
L 240.812273 -97.315907 
L 253.043864 -97.774144 
L 265.275455 -97.838485 
L 277.507045 -97.944363 
L 289.738636 -98.138619 
L 301.970227 -98.510667 
L 314.201818 -98.855917 
L 326.433409 -98.648345 
L 338.665 -97.973893 
L 350.896591 -97.794252 
L 363.128182 -97.817198 
L 375.359773 -98.031416 
L 387.591364 -98.134409 
L 399.822955 -97.918417 
L 412.054545 -97.494924 
L 424.286136 -97.072149 
L 436.517727 -97.697478 
L 448.749318 -99.296978 
L 460.980909 -99.428895 
L 473.2125 -99.874756 
L 485.444091 -100.297705 
L 497.675682 -100.678275 
L 509.907273 -101.251153 
L 522.138864 -101.387762 
L 534.370455 -101.200474 
L 546.602045 -101.339431 
L 558.833636 -101.740504 
L 571.065227 -102.072046 
L 583.296818 -102.044404 
L 583.296818 -107.896303 
L 583.296818 -107.896303 
L 571.065227 -107.843264 
L 558.833636 -107.49488 
L 546.602045 -106.908804 
L 534.370455 -107.026132 
L 522.138864 -107.343941 
L 509.907273 -107.097519 
L 497.675682 -106.460757 
L 485.444091 -105.876109 
L 473.2125 -105.000657 
L 460.980909 -104.287964 
L 448.749318 -103.712229 
L 436.517727 -101.180721 
L 424.286136 -100.341166 
L 412.054545 -100.801448 
L 399.822955 -101.158401 
L 387.591364 -101.434826 
L 375.359773 -101.382857 
L 363.128182 -101.048395 
L 350.896591 -100.991355 
L 338.665 -101.276586 
L 326.433409 -102.020262 
L 314.201818 -102.192048 
L 301.970227 -101.816968 
L 289.738636 -101.385589 
L 277.507045 -101.135005 
L 265.275455 -100.97983 
L 253.043864 -100.933774 
L 240.812273 -100.39619 
L 228.580682 -99.637837 
L 216.349091 -99.050888 
L 204.1175 -97.690593 
L 191.885909 -96.518068 
L 179.654318 -96.078933 
L 167.422727 -96.027361 
L 155.191136 -95.877422 
L 142.959545 -94.492599 
L 130.727955 -93.015336 
L 118.496364 -90.58918 
L 106.264773 -89.214087 
L 94.033182 -88.358592 
z
" style="stroke: #ff0000; stroke-opacity: 0.1"/>
    </defs>
    <g clip-path="url(#p9dd978c1e1)">
     <use xlink:href="#mc4cccbbf7f" x="0" y="432" style="fill: #ff0000; fill-opacity: 0.1; stroke: #ff0000; stroke-opacity: 0.1"/>
    </g>
   </g>
   <g id="PathCollection_2">
    <defs>
     <path id="mbd399e2c34" d="M 0 -3 
L -0.673542 -0.927051 
L -2.85317 -0.927051 
L -1.089814 0.354102 
L -1.763356 2.427051 
L -0 1.145898 
L 1.763356 2.427051 
L 1.089814 0.354102 
L 2.85317 -0.927051 
L 0.673542 -0.927051 
z
" style="stroke: #ff0000"/>
    </defs>
    <g clip-path="url(#p9dd978c1e1)">
     <use xlink:href="#mbd399e2c34" x="191.885909" y="362.244545" style="fill: #ff0000; stroke: #ff0000"/>
     <use xlink:href="#mbd399e2c34" x="204.1175" y="362.244545" style="fill: #ff0000; stroke: #ff0000"/>
     <use xlink:href="#mbd399e2c34" x="216.349091" y="362.244545" style="fill: #ff0000; stroke: #ff0000"/>
     <use xlink:href="#mbd399e2c34" x="228.580682" y="362.244545" style="fill: #ff0000; stroke: #ff0000"/>
     <use xlink:href="#mbd399e2c34" x="240.812273" y="362.244545" style="fill: #ff0000; stroke: #ff0000"/>
     <use xlink:href="#mbd399e2c34" x="253.043864" y="362.244545" style="fill: #ff0000; stroke: #ff0000"/>
     <use xlink:href="#mbd399e2c34" x="265.275455" y="362.244545" style="fill: #ff0000; stroke: #ff0000"/>
     <use xlink:href="#mbd399e2c34" x="277.507045" y="362.244545" style="fill: #ff0000; stroke: #ff0000"/>
     <use xlink:href="#mbd399e2c34" x="289.738636" y="362.244545" style="fill: #ff0000; stroke: #ff0000"/>
     <use xlink:href="#mbd399e2c34" x="301.970227" y="362.244545" style="fill: #ff0000; stroke: #ff0000"/>
     <use xlink:href="#mbd399e2c34" x="314.201818" y="362.244545" style="fill: #ff0000; stroke: #ff0000"/>
     <use xlink:href="#mbd399e2c34" x="326.433409" y="362.244545" style="fill: #ff0000; stroke: #ff0000"/>
     <use xlink:href="#mbd399e2c34" x="338.665" y="362.244545" style="fill: #ff0000; stroke: #ff0000"/>
     <use xlink:href="#mbd399e2c34" x="350.896591" y="362.244545" style="fill: #ff0000; stroke: #ff0000"/>
     <use xlink:href="#mbd399e2c34" x="363.128182" y="362.244545" style="fill: #ff0000; stroke: #ff0000"/>
     <use xlink:href="#mbd399e2c34" x="375.359773" y="362.244545" style="fill: #ff0000; stroke: #ff0000"/>
     <use xlink:href="#mbd399e2c34" x="387.591364" y="362.244545" style="fill: #ff0000; stroke: #ff0000"/>
     <use xlink:href="#mbd399e2c34" x="399.822955" y="362.244545" style="fill: #ff0000; stroke: #ff0000"/>
     <use xlink:href="#mbd399e2c34" x="412.054545" y="362.244545" style="fill: #ff0000; stroke: #ff0000"/>
     <use xlink:href="#mbd399e2c34" x="424.286136" y="362.244545" style="fill: #ff0000; stroke: #ff0000"/>
     <use xlink:href="#mbd399e2c34" x="436.517727" y="362.244545" style="fill: #ff0000; stroke: #ff0000"/>
     <use xlink:href="#mbd399e2c34" x="448.749318" y="362.244545" style="fill: #ff0000; stroke: #ff0000"/>
     <use xlink:href="#mbd399e2c34" x="460.980909" y="362.244545" style="fill: #ff0000; stroke: #ff0000"/>
     <use xlink:href="#mbd399e2c34" x="473.2125" y="362.244545" style="fill: #ff0000; stroke: #ff0000"/>
     <use xlink:href="#mbd399e2c34" x="485.444091" y="362.244545" style="fill: #ff0000; stroke: #ff0000"/>
     <use xlink:href="#mbd399e2c34" x="497.675682" y="362.244545" style="fill: #ff0000; stroke: #ff0000"/>
     <use xlink:href="#mbd399e2c34" x="509.907273" y="362.244545" style="fill: #ff0000; stroke: #ff0000"/>
     <use xlink:href="#mbd399e2c34" x="522.138864" y="362.244545" style="fill: #ff0000; stroke: #ff0000"/>
     <use xlink:href="#mbd399e2c34" x="534.370455" y="362.244545" style="fill: #ff0000; stroke: #ff0000"/>
     <use xlink:href="#mbd399e2c34" x="546.602045" y="362.244545" style="fill: #ff0000; stroke: #ff0000"/>
     <use xlink:href="#mbd399e2c34" x="558.833636" y="362.244545" style="fill: #ff0000; stroke: #ff0000"/>
     <use xlink:href="#mbd399e2c34" x="571.065227" y="362.244545" style="fill: #ff0000; stroke: #ff0000"/>
     <use xlink:href="#mbd399e2c34" x="583.296818" y="362.244545" style="fill: #ff0000; stroke: #ff0000"/>
    </g>
   </g>
   <g id="line2d_1">
    <path d="M 94.033182 333.12319 
L 106.264773 347.836422 
L 118.496364 352.148369 
L 130.727955 346.365123 
L 142.959545 341.599928 
L 155.191136 342.91369 
L 167.422727 337.822952 
L 179.654318 338.075786 
L 191.885909 338.235008 
L 204.1175 336.515638 
L 216.349091 340.88408 
L 228.580682 346.894647 
L 240.812273 340.668624 
L 253.043864 341.761351 
L 265.275455 342.328094 
L 277.507045 341.179709 
L 289.738636 343.043961 
L 301.970227 337.453434 
L 314.201818 332.462921 
L 326.433409 336.998698 
L 338.665 339.3843 
L 350.896591 340.553154 
L 363.128182 339.710669 
L 375.359773 341.787042 
L 387.591364 329.845405 
L 399.822955 336.487085 
L 412.054545 337.857085 
L 424.286136 339.343674 
L 436.517727 336.336022 
L 448.749318 333.334859 
L 460.980909 324.693799 
L 473.2125 328.599285 
L 485.444091 326.751442 
L 497.675682 327.95604 
L 509.907273 330.698272 
L 522.138864 331.230353 
L 534.370455 321.886524 
L 546.602045 313.397526 
L 558.833636 315.886308 
L 571.065227 325.245581 
L 583.296818 329.673617 
" clip-path="url(#p9dd978c1e1)" style="fill: none; stroke: #0000ff; stroke-width: 2; stroke-linecap: round"/>
   </g>
   <g id="line2d_2">
    <path d="M 94.033182 342.145135 
L 106.264773 344.164417 
L 118.496364 343.535761 
L 130.727955 342.543586 
L 142.959545 341.062353 
L 155.191136 343.425378 
L 167.422727 340.877466 
L 179.654318 340.006677 
L 191.885909 339.873723 
L 204.1175 338.136187 
L 216.349091 338.348138 
L 228.580682 340.443931 
L 240.812273 342.691543 
L 253.043864 342.264119 
L 265.275455 344.675797 
L 277.507045 345.242429 
L 289.738636 341.176297 
L 301.970227 341.998876 
L 314.201818 345.305229 
L 326.433409 345.8457 
L 338.665 342.390032 
L 350.896591 335.285923 
L 363.128182 335.71794 
L 375.359773 337.642985 
L 387.591364 340.774687 
L 399.822955 340.535332 
L 412.054545 344.012347 
L 424.286136 345.691311 
L 436.517727 347.057843 
L 448.749318 346.253931 
L 460.980909 346.169396 
L 473.2125 343.335777 
L 485.444091 342.659843 
L 497.675682 344.147338 
L 509.907273 345.889538 
L 522.138864 345.1272 
L 534.370455 342.067708 
L 546.602045 343.632877 
L 558.833636 346.030103 
L 571.065227 349.584724 
L 583.296818 347.655503 
" clip-path="url(#p9dd978c1e1)" style="fill: none; stroke-dasharray: 7.4,3.2; stroke-dashoffset: 0; stroke: #0000ff; stroke-width: 2"/>
   </g>
   <g id="line2d_3">
    <path d="M 124.612159 378.18 
L 124.612159 27.6 
" clip-path="url(#p9dd978c1e1)" style="fill: none; stroke-dasharray: 5.55,2.4; stroke-dashoffset: 0; stroke: #c44e52; stroke-width: 1.5"/>
   </g>
   <g id="line2d_4">
    <path d="M 430.401932 378.18 
L 430.401932 27.6 
" clip-path="url(#p9dd978c1e1)" style="fill: none; stroke-dasharray: 5.55,2.4; stroke-dashoffset: 0; stroke: #55a868; stroke-width: 1.5"/>
   </g>
   <g id="line2d_5">
    <path d="M 94.033182 344.436102 
L 106.264773 343.580987 
L 118.496364 343.86281 
L 130.727955 341.569215 
L 142.959545 338.468597 
L 155.191136 334.691703 
L 167.422727 329.793878 
L 179.654318 323.915842 
L 191.885909 317.490515 
L 204.1175 308.991828 
L 216.349091 300.092122 
L 228.580682 291.041713 
L 240.812273 284.057186 
L 253.043864 275.973069 
L 265.275455 268.230559 
L 277.507045 262.580525 
L 289.738636 257.34039 
L 301.970227 252.515523 
L 314.201818 247.793012 
L 326.433409 244.255992 
L 338.665 240.183756 
L 350.896591 237.227294 
L 363.128182 233.168135 
L 375.359773 228.862158 
L 387.591364 225.041725 
L 399.822955 219.290882 
L 412.054545 215.034965 
L 424.286136 212.85819 
L 436.517727 188.347274 
L 448.749318 155.114291 
L 460.980909 133.749472 
L 473.2125 114.791195 
L 485.444091 102.080479 
L 497.675682 93.563301 
L 509.907273 87.698836 
L 522.138864 81.652771 
L 534.370455 77.897892 
L 546.602045 77.504112 
L 558.833636 76.311818 
L 571.065227 75.822553 
L 583.296818 77.300209 
" clip-path="url(#p9dd978c1e1)" style="fill: none; stroke: #ff0000; stroke-width: 2; stroke-linecap: round"/>
   </g>
   <g id="line2d_6">
    <path d="M 94.033182 343.826369 
L 106.264773 343.166613 
L 118.496364 341.832042 
L 130.727955 339.726993 
L 142.959545 338.569769 
L 155.191136 337.317487 
L 167.422727 337.189549 
L 179.654318 337.152847 
L 191.885909 336.753682 
L 204.1175 335.683054 
L 216.349091 334.411904 
L 228.580682 333.872698 
L 240.812273 333.143951 
L 253.043864 332.646041 
L 265.275455 332.590842 
L 277.507045 332.460316 
L 289.738636 332.237896 
L 301.970227 331.836182 
L 314.201818 331.476017 
L 326.433409 331.665697 
L 338.665 332.374761 
L 350.896591 332.607197 
L 363.128182 332.567203 
L 375.359773 332.292863 
L 387.591364 332.215382 
L 399.822955 332.461591 
L 412.054545 332.851814 
L 424.286136 333.293342 
L 436.517727 332.5609 
L 448.749318 330.495396 
L 460.980909 330.14157 
L 473.2125 329.562294 
L 485.444091 328.913093 
L 497.675682 328.430484 
L 509.907273 327.825664 
L 522.138864 327.634148 
L 534.370455 327.886697 
L 546.602045 327.875882 
L 558.833636 327.382308 
L 571.065227 327.042345 
L 583.296818 327.029647 
" clip-path="url(#p9dd978c1e1)" style="fill: none; stroke-dasharray: 7.4,3.2; stroke-dashoffset: 0; stroke: #ff0000; stroke-width: 2"/>
   </g>
   <g id="line2d_7">
    <path d="M 124.612159 378.18 
L 124.612159 27.6 
" clip-path="url(#p9dd978c1e1)" style="fill: none; stroke-dasharray: 5.55,2.4; stroke-dashoffset: 0; stroke: #c44e52; stroke-width: 1.5"/>
   </g>
   <g id="line2d_8">
    <path d="M 430.401932 378.18 
L 430.401932 27.6 
" clip-path="url(#p9dd978c1e1)" style="fill: none; stroke-dasharray: 5.55,2.4; stroke-dashoffset: 0; stroke: #55a868; stroke-width: 1.5"/>
   </g>
   <g id="patch_3">
    <path d="M 69.57 378.18 
L 69.57 27.6 
" style="fill: none; stroke: #cccccc; stroke-width: 1.5; stroke-linejoin: miter; stroke-linecap: square"/>
   </g>
   <g id="patch_4">
    <path d="M 69.57 378.18 
L 607.76 378.18 
" style="fill: none; stroke: #cccccc; stroke-width: 1.5; stroke-linejoin: miter; stroke-linecap: square"/>
   </g>
   <g id="text_18">
    <!-- Divergence Comparison: Original vs Shuffled -->
    <g style="fill: #262626" transform="translate(189.1525 21.6) scale(0.15 -0.15)">
     <defs>
      <path id="ArialMT-43" d="M 3763 1606 
L 4369 1453 
Q 4178 706 3683 314 
Q 3188 -78 2472 -78 
Q 1731 -78 1267 223 
Q 803 525 561 1097 
Q 319 1669 319 2325 
Q 319 3041 592 3573 
Q 866 4106 1370 4382 
Q 1875 4659 2481 4659 
Q 3169 4659 3637 4309 
Q 4106 3959 4291 3325 
L 3694 3184 
Q 3534 3684 3231 3912 
Q 2928 4141 2469 4141 
Q 1941 4141 1586 3887 
Q 1231 3634 1087 3207 
Q 944 2781 944 2328 
Q 944 1744 1114 1308 
Q 1284 872 1643 656 
Q 2003 441 2422 441 
Q 2931 441 3284 734 
Q 3638 1028 3763 1606 
z
" transform="scale(0.015625)"/>
      <path id="ArialMT-6f" d="M 213 1659 
Q 213 2581 725 3025 
Q 1153 3394 1769 3394 
Q 2453 3394 2887 2945 
Q 3322 2497 3322 1706 
Q 3322 1066 3130 698 
Q 2938 331 2570 128 
Q 2203 -75 1769 -75 
Q 1072 -75 642 372 
Q 213 819 213 1659 
z
M 791 1659 
Q 791 1022 1069 705 
Q 1347 388 1769 388 
Q 2188 388 2466 706 
Q 2744 1025 2744 1678 
Q 2744 2294 2464 2611 
Q 2184 2928 1769 2928 
Q 1347 2928 1069 2612 
Q 791 2297 791 1659 
z
" transform="scale(0.015625)"/>
      <path id="ArialMT-70" d="M 422 -1272 
L 422 3319 
L 934 3319 
L 934 2888 
Q 1116 3141 1344 3267 
Q 1572 3394 1897 3394 
Q 2322 3394 2647 3175 
Q 2972 2956 3137 2557 
Q 3303 2159 3303 1684 
Q 3303 1175 3120 767 
Q 2938 359 2589 142 
Q 2241 -75 1856 -75 
Q 1575 -75 1351 44 
Q 1128 163 984 344 
L 984 -1272 
L 422 -1272 
z
M 931 1641 
Q 931 1000 1190 694 
Q 1450 388 1819 388 
Q 2194 388 2461 705 
Q 2728 1022 2728 1688 
Q 2728 2322 2467 2637 
Q 2206 2953 1844 2953 
Q 1484 2953 1207 2617 
Q 931 2281 931 1641 
z
" transform="scale(0.015625)"/>
      <path id="ArialMT-61" d="M 2588 409 
Q 2275 144 1986 34 
Q 1697 -75 1366 -75 
Q 819 -75 525 192 
Q 231 459 231 875 
Q 231 1119 342 1320 
Q 453 1522 633 1644 
Q 813 1766 1038 1828 
Q 1203 1872 1538 1913 
Q 2219 1994 2541 2106 
Q 2544 2222 2544 2253 
Q 2544 2597 2384 2738 
Q 2169 2928 1744 2928 
Q 1347 2928 1158 2789 
Q 969 2650 878 2297 
L 328 2372 
Q 403 2725 575 2942 
Q 747 3159 1072 3276 
Q 1397 3394 1825 3394 
Q 2250 3394 2515 3294 
Q 2781 3194 2906 3042 
Q 3031 2891 3081 2659 
Q 3109 2516 3109 2141 
L 3109 1391 
Q 3109 606 3145 398 
Q 3181 191 3288 0 
L 2700 0 
Q 2613 175 2588 409 
z
M 2541 1666 
Q 2234 1541 1622 1453 
Q 1275 1403 1131 1340 
Q 988 1278 909 1158 
Q 831 1038 831 891 
Q 831 666 1001 516 
Q 1172 366 1500 366 
Q 1825 366 2078 508 
Q 2331 650 2450 897 
Q 2541 1088 2541 1459 
L 2541 1666 
z
" transform="scale(0.015625)"/>
      <path id="ArialMT-3a" d="M 578 2678 
L 578 3319 
L 1219 3319 
L 1219 2678 
L 578 2678 
z
M 578 0 
L 578 641 
L 1219 641 
L 1219 0 
L 578 0 
z
" transform="scale(0.015625)"/>
      <path id="ArialMT-4f" d="M 309 2231 
Q 309 3372 921 4017 
Q 1534 4663 2503 4663 
Q 3138 4663 3647 4359 
Q 4156 4056 4423 3514 
Q 4691 2972 4691 2284 
Q 4691 1588 4409 1038 
Q 4128 488 3612 205 
Q 3097 -78 2500 -78 
Q 1853 -78 1343 234 
Q 834 547 571 1087 
Q 309 1628 309 2231 
z
M 934 2222 
Q 934 1394 1379 917 
Q 1825 441 2497 441 
Q 3181 441 3623 922 
Q 4066 1403 4066 2288 
Q 4066 2847 3877 3264 
Q 3688 3681 3323 3911 
Q 2959 4141 2506 4141 
Q 1863 4141 1398 3698 
Q 934 3256 934 2222 
z
" transform="scale(0.015625)"/>
      <path id="ArialMT-6c" d="M 409 0 
L 409 4581 
L 972 4581 
L 972 0 
L 409 0 
z
" transform="scale(0.015625)"/>
      <path id="ArialMT-53" d="M 288 1472 
L 859 1522 
Q 900 1178 1048 958 
Q 1197 738 1509 602 
Q 1822 466 2213 466 
Q 2559 466 2825 569 
Q 3091 672 3220 851 
Q 3350 1031 3350 1244 
Q 3350 1459 3225 1620 
Q 3100 1781 2813 1891 
Q 2628 1963 1997 2114 
Q 1366 2266 1113 2400 
Q 784 2572 623 2826 
Q 463 3081 463 3397 
Q 463 3744 659 4045 
Q 856 4347 1234 4503 
Q 1613 4659 2075 4659 
Q 2584 4659 2973 4495 
Q 3363 4331 3572 4012 
Q 3781 3694 3797 3291 
L 3216 3247 
Q 3169 3681 2898 3903 
Q 2628 4125 2100 4125 
Q 1550 4125 1298 3923 
Q 1047 3722 1047 3438 
Q 1047 3191 1225 3031 
Q 1400 2872 2139 2705 
Q 2878 2538 3153 2413 
Q 3553 2228 3743 1945 
Q 3934 1663 3934 1294 
Q 3934 928 3725 604 
Q 3516 281 3123 101 
Q 2731 -78 2241 -78 
Q 1619 -78 1198 103 
Q 778 284 539 648 
Q 300 1013 288 1472 
z
" transform="scale(0.015625)"/>
      <path id="ArialMT-68" d="M 422 0 
L 422 4581 
L 984 4581 
L 984 2938 
Q 1378 3394 1978 3394 
Q 2347 3394 2619 3248 
Q 2891 3103 3008 2847 
Q 3125 2591 3125 2103 
L 3125 0 
L 2563 0 
L 2563 2103 
Q 2563 2525 2380 2717 
Q 2197 2909 1863 2909 
Q 1613 2909 1392 2779 
Q 1172 2650 1078 2428 
Q 984 2206 984 1816 
L 984 0 
L 422 0 
z
" transform="scale(0.015625)"/>
      <path id="ArialMT-75" d="M 2597 0 
L 2597 488 
Q 2209 -75 1544 -75 
Q 1250 -75 995 37 
Q 741 150 617 320 
Q 494 491 444 738 
Q 409 903 409 1263 
L 409 3319 
L 972 3319 
L 972 1478 
Q 972 1038 1006 884 
Q 1059 663 1231 536 
Q 1403 409 1656 409 
Q 1909 409 2131 539 
Q 2353 669 2445 892 
Q 2538 1116 2538 1541 
L 2538 3319 
L 3100 3319 
L 3100 0 
L 2597 0 
z
" transform="scale(0.015625)"/>
      <path id="ArialMT-66" d="M 556 0 
L 556 2881 
L 59 2881 
L 59 3319 
L 556 3319 
L 556 3672 
Q 556 4006 616 4169 
Q 697 4388 901 4523 
Q 1106 4659 1475 4659 
Q 1713 4659 2000 4603 
L 1916 4113 
Q 1741 4144 1584 4144 
Q 1328 4144 1222 4034 
Q 1116 3925 1116 3625 
L 1116 3319 
L 1763 3319 
L 1763 2881 
L 1116 2881 
L 1116 0 
L 556 0 
z
" transform="scale(0.015625)"/>
      <path id="ArialMT-64" d="M 2575 0 
L 2575 419 
Q 2259 -75 1647 -75 
Q 1250 -75 917 144 
Q 584 363 401 755 
Q 219 1147 219 1656 
Q 219 2153 384 2558 
Q 550 2963 881 3178 
Q 1213 3394 1622 3394 
Q 1922 3394 2156 3267 
Q 2391 3141 2538 2938 
L 2538 4581 
L 3097 4581 
L 3097 0 
L 2575 0 
z
M 797 1656 
Q 797 1019 1065 703 
Q 1334 388 1700 388 
Q 2069 388 2326 689 
Q 2584 991 2584 1609 
Q 2584 2291 2321 2609 
Q 2059 2928 1675 2928 
Q 1300 2928 1048 2622 
Q 797 2316 797 1656 
z
" transform="scale(0.015625)"/>
     </defs>
     <use xlink:href="#ArialMT-44"/>
     <use xlink:href="#ArialMT-69" x="72.216797"/>
     <use xlink:href="#ArialMT-76" x="94.433594"/>
     <use xlink:href="#ArialMT-65" x="144.433594"/>
     <use xlink:href="#ArialMT-72" x="200.048828"/>
     <use xlink:href="#ArialMT-67" x="233.349609"/>
     <use xlink:href="#ArialMT-65" x="288.964844"/>
     <use xlink:href="#ArialMT-6e" x="344.580078"/>
     <use xlink:href="#ArialMT-63" x="400.195312"/>
     <use xlink:href="#ArialMT-65" x="450.195312"/>
     <use xlink:href="#ArialMT-20" x="505.810547"/>
     <use xlink:href="#ArialMT-43" x="533.59375"/>
     <use xlink:href="#ArialMT-6f" x="605.810547"/>
     <use xlink:href="#ArialMT-6d" x="661.425781"/>
     <use xlink:href="#ArialMT-70" x="744.726562"/>
     <use xlink:href="#ArialMT-61" x="800.341797"/>
     <use xlink:href="#ArialMT-72" x="855.957031"/>
     <use xlink:href="#ArialMT-69" x="889.257812"/>
     <use xlink:href="#ArialMT-73" x="911.474609"/>
     <use xlink:href="#ArialMT-6f" x="961.474609"/>
     <use xlink:href="#ArialMT-6e" x="1017.089844"/>
     <use xlink:href="#ArialMT-3a" x="1072.705078"/>
     <use xlink:href="#ArialMT-20" x="1100.488281"/>
     <use xlink:href="#ArialMT-4f" x="1128.271484"/>
     <use xlink:href="#ArialMT-72" x="1206.054688"/>
     <use xlink:href="#ArialMT-69" x="1239.355469"/>
     <use xlink:href="#ArialMT-67" x="1261.572266"/>
     <use xlink:href="#ArialMT-69" x="1317.1875"/>
     <use xlink:href="#ArialMT-6e" x="1339.404297"/>
     <use xlink:href="#ArialMT-61" x="1395.019531"/>
     <use xlink:href="#ArialMT-6c" x="1450.634766"/>
     <use xlink:href="#ArialMT-20" x="1472.851562"/>
     <use xlink:href="#ArialMT-76" x="1500.634766"/>
     <use xlink:href="#ArialMT-73" x="1550.634766"/>
     <use xlink:href="#ArialMT-20" x="1600.634766"/>
     <use xlink:href="#ArialMT-53" x="1628.417969"/>
     <use xlink:href="#ArialMT-68" x="1695.117188"/>
     <use xlink:href="#ArialMT-75" x="1750.732422"/>
     <use xlink:href="#ArialMT-66" x="1806.347656"/>
     <use xlink:href="#ArialMT-66" x="1832.380859"/>
     <use xlink:href="#ArialMT-6c" x="1860.164062"/>
     <use xlink:href="#ArialMT-65" x="1882.380859"/>
     <use xlink:href="#ArialMT-64" x="1937.996094"/>
    </g>
   </g>
   <g id="legend_1">
    <g id="patch_5">
     <path d="M 615.46 259.555469 
L 705.061875 259.555469 
Q 707.261875 259.555469 707.261875 257.355469 
L 707.261875 148.424531 
Q 707.261875 146.224531 705.061875 146.224531 
L 615.46 146.224531 
Q 613.26 146.224531 613.26 148.424531 
L 613.26 257.355469 
Q 613.26 259.555469 615.46 259.555469 
z
" style="fill: #ffffff; opacity: 0.8; stroke: #cccccc; stroke-linejoin: miter"/>
    </g>
    <g id="line2d_9">
     <path d="M 617.66 154.789062 
L 628.66 154.789062 
L 639.66 154.789062 
" style="fill: none; stroke: #0000ff; stroke-width: 2; stroke-linecap: round"/>
    </g>
    <g id="text_19">
     <!-- Original -->
     <g style="fill: #262626" transform="translate(648.46 158.639062) scale(0.11 -0.11)">
      <use xlink:href="#ArialMT-4f"/>
      <use xlink:href="#ArialMT-72" x="77.783203"/>
      <use xlink:href="#ArialMT-69" x="111.083984"/>
      <use xlink:href="#ArialMT-67" x="133.300781"/>
      <use xlink:href="#ArialMT-69" x="188.916016"/>
      <use xlink:href="#ArialMT-6e" x="211.132812"/>
      <use xlink:href="#ArialMT-61" x="266.748047"/>
      <use xlink:href="#ArialMT-6c" x="322.363281"/>
     </g>
    </g>
    <g id="line2d_10">
     <path d="M 617.66 170.61875 
L 628.66 170.61875 
L 639.66 170.61875 
" style="fill: none; stroke-dasharray: 7.4,3.2; stroke-dashoffset: 0; stroke: #0000ff; stroke-width: 2"/>
    </g>
    <g id="text_20">
     <!-- Original -->
     <g style="fill: #262626" transform="translate(648.46 174.46875) scale(0.11 -0.11)">
      <use xlink:href="#ArialMT-4f"/>
      <use xlink:href="#ArialMT-72" x="77.783203"/>
      <use xlink:href="#ArialMT-69" x="111.083984"/>
      <use xlink:href="#ArialMT-67" x="133.300781"/>
      <use xlink:href="#ArialMT-69" x="188.916016"/>
      <use xlink:href="#ArialMT-6e" x="211.132812"/>
      <use xlink:href="#ArialMT-61" x="266.748047"/>
      <use xlink:href="#ArialMT-6c" x="322.363281"/>
     </g>
    </g>
    <g id="PathCollection_3">
     <g>
      <use xlink:href="#m7ea99357d4" x="628.66" y="187.302656" style="fill: #0000ff; stroke: #0000ff"/>
     </g>
    </g>
    <g id="text_21">
     <!-- p &lt; 0.001 -->
     <g style="fill: #262626" transform="translate(648.46 190.190156) scale(0.11 -0.11)">
      <defs>
       <path id="ArialMT-3c" d="M 350 2003 
L 350 2528 
L 3384 3809 
L 3384 3250 
L 978 2263 
L 3384 1266 
L 3384 706 
L 350 2003 
z
" transform="scale(0.015625)"/>
      </defs>
      <use xlink:href="#ArialMT-70"/>
      <use xlink:href="#ArialMT-20" x="55.615234"/>
      <use xlink:href="#ArialMT-3c" x="83.398438"/>
      <use xlink:href="#ArialMT-20" x="141.796875"/>
      <use xlink:href="#ArialMT-30" x="169.580078"/>
      <use xlink:href="#ArialMT-2e" x="225.195312"/>
      <use xlink:href="#ArialMT-30" x="252.978516"/>
      <use xlink:href="#ArialMT-30" x="308.59375"/>
      <use xlink:href="#ArialMT-31" x="364.208984"/>
     </g>
    </g>
    <g id="line2d_11">
     <path d="M 617.66 201.9 
L 628.66 201.9 
L 639.66 201.9 
" style="fill: none; stroke-dasharray: 5.55,2.4; stroke-dashoffset: 0; stroke: #c44e52; stroke-width: 1.5"/>
    </g>
    <g id="text_22">
     <!-- Stim Onset -->
     <g style="fill: #262626" transform="translate(648.46 205.75) scale(0.11 -0.11)">
      <defs>
       <path id="ArialMT-74" d="M 1650 503 
L 1731 6 
Q 1494 -44 1306 -44 
Q 1000 -44 831 53 
Q 663 150 594 308 
Q 525 466 525 972 
L 525 2881 
L 113 2881 
L 113 3319 
L 525 3319 
L 525 4141 
L 1084 4478 
L 1084 3319 
L 1650 3319 
L 1650 2881 
L 1084 2881 
L 1084 941 
Q 1084 700 1114 631 
Q 1144 563 1211 522 
Q 1278 481 1403 481 
Q 1497 481 1650 503 
z
" transform="scale(0.015625)"/>
      </defs>
      <use xlink:href="#ArialMT-53"/>
      <use xlink:href="#ArialMT-74" x="66.699219"/>
      <use xlink:href="#ArialMT-69" x="94.482422"/>
      <use xlink:href="#ArialMT-6d" x="116.699219"/>
      <use xlink:href="#ArialMT-20" x="200"/>
      <use xlink:href="#ArialMT-4f" x="227.783203"/>
      <use xlink:href="#ArialMT-6e" x="305.566406"/>
      <use xlink:href="#ArialMT-73" x="361.181641"/>
      <use xlink:href="#ArialMT-65" x="411.181641"/>
      <use xlink:href="#ArialMT-74" x="466.796875"/>
     </g>
    </g>
    <g id="line2d_12">
     <path d="M 617.66 217.459844 
L 628.66 217.459844 
L 639.66 217.459844 
" style="fill: none; stroke-dasharray: 5.55,2.4; stroke-dashoffset: 0; stroke: #55a868; stroke-width: 1.5"/>
    </g>
    <g id="text_23">
     <!-- Stim End -->
     <g style="fill: #262626" transform="translate(648.46 221.309844) scale(0.11 -0.11)">
      <defs>
       <path id="ArialMT-45" d="M 506 0 
L 506 4581 
L 3819 4581 
L 3819 4041 
L 1113 4041 
L 1113 2638 
L 3647 2638 
L 3647 2100 
L 1113 2100 
L 1113 541 
L 3925 541 
L 3925 0 
L 506 0 
z
" transform="scale(0.015625)"/>
      </defs>
      <use xlink:href="#ArialMT-53"/>
      <use xlink:href="#ArialMT-74" x="66.699219"/>
      <use xlink:href="#ArialMT-69" x="94.482422"/>
      <use xlink:href="#ArialMT-6d" x="116.699219"/>
      <use xlink:href="#ArialMT-20" x="200"/>
      <use xlink:href="#ArialMT-45" x="227.783203"/>
      <use xlink:href="#ArialMT-6e" x="294.482422"/>
      <use xlink:href="#ArialMT-64" x="350.097656"/>
     </g>
    </g>
    <g id="line2d_13">
     <path d="M 617.66 233.160625 
L 628.66 233.160625 
L 639.66 233.160625 
" style="fill: none; stroke: #ff0000; stroke-width: 2; stroke-linecap: round"/>
    </g>
    <g id="text_24">
     <!-- Original -->
     <g style="fill: #262626" transform="translate(648.46 237.010625) scale(0.11 -0.11)">
      <use xlink:href="#ArialMT-4f"/>
      <use xlink:href="#ArialMT-72" x="77.783203"/>
      <use xlink:href="#ArialMT-69" x="111.083984"/>
      <use xlink:href="#ArialMT-67" x="133.300781"/>
      <use xlink:href="#ArialMT-69" x="188.916016"/>
      <use xlink:href="#ArialMT-6e" x="211.132812"/>
      <use xlink:href="#ArialMT-61" x="266.748047"/>
      <use xlink:href="#ArialMT-6c" x="322.363281"/>
     </g>
    </g>
    <g id="line2d_14">
     <path d="M 617.66 248.990312 
L 628.66 248.990312 
L 639.66 248.990312 
" style="fill: none; stroke-dasharray: 7.4,3.2; stroke-dashoffset: 0; stroke: #ff0000; stroke-width: 2"/>
    </g>
    <g id="text_25">
     <!-- Original -->
     <g style="fill: #262626" transform="translate(648.46 252.840312) scale(0.11 -0.11)">
      <use xlink:href="#ArialMT-4f"/>
      <use xlink:href="#ArialMT-72" x="77.783203"/>
      <use xlink:href="#ArialMT-69" x="111.083984"/>
      <use xlink:href="#ArialMT-67" x="133.300781"/>
      <use xlink:href="#ArialMT-69" x="188.916016"/>
      <use xlink:href="#ArialMT-6e" x="211.132812"/>
      <use xlink:href="#ArialMT-61" x="266.748047"/>
      <use xlink:href="#ArialMT-6c" x="322.363281"/>
     </g>
    </g>
   </g>
  </g>
 </g>
 <defs>
  <clipPath id="p9dd978c1e1">
   <rect x="69.57" y="27.6" width="538.19" height="350.58"/>
  </clipPath>
 </defs>
</svg>
