<?xml version="1.0" encoding="utf-8" standalone="no"?>
<!DOCTYPE svg PUBLIC "-//W3C//DTD SVG 1.1//EN"
  "http://www.w3.org/Graphics/SVG/1.1/DTD/svg11.dtd">
<svg xmlns:xlink="http://www.w3.org/1999/xlink" width="720pt" height="432pt" viewBox="0 0 720 432" xmlns="http://www.w3.org/2000/svg" version="1.1">
 <metadata>
  <rdf:RDF xmlns:dc="http://purl.org/dc/elements/1.1/" xmlns:cc="http://creativecommons.org/ns#" xmlns:rdf="http://www.w3.org/1999/02/22-rdf-syntax-ns#">
   <cc:Work>
    <dc:type rdf:resource="http://purl.org/dc/dcmitype/StillImage"/>
    <dc:date>2025-09-15T12:49:41.584461</dc:date>
    <dc:format>image/svg+xml</dc:format>
    <dc:creator>
     <cc:Agent>
      <dc:title>Matplotlib v3.9.4, https://matplotlib.org/</dc:title>
     </cc:Agent>
    </dc:creator>
   </cc:Work>
  </rdf:RDF>
 </metadata>
 <defs>
  <style type="text/css">*{stroke-linejoin: round; stroke-linecap: butt}</style>
 </defs>
 <g id="figure_1">
  <g id="patch_1">
   <path d="M 0 432 
L 720 432 
L 720 0 
L 0 0 
z
" style="fill: #ffffff"/>
  </g>
  <g id="axes_1">
   <g id="patch_2">
    <path d="M 78.39 378.18 
L 607.76 378.18 
L 607.76 27.6 
L 78.39 27.6 
L 78.39 378.18 
z
" style="fill: none"/>
   </g>
   <g id="matplotlib.axis_1">
    <g id="xtick_1">
     <g id="text_1">
      <!-- 0 -->
      <g style="fill: #262626" transform="translate(133.667265 398.416719) scale(0.15 -0.15)">
       <defs>
        <path id="ArialMT-30" d="M 266 2259 
Q 266 3072 433 3567 
Q 600 4063 929 4331 
Q 1259 4600 1759 4600 
Q 2128 4600 2406 4451 
Q 2684 4303 2865 4023 
Q 3047 3744 3150 3342 
Q 3253 2941 3253 2259 
Q 3253 1453 3087 958 
Q 2922 463 2592 192 
Q 2263 -78 1759 -78 
Q 1097 -78 719 397 
Q 266 969 266 2259 
z
M 844 2259 
Q 844 1131 1108 757 
Q 1372 384 1759 384 
Q 2147 384 2411 759 
Q 2675 1134 2675 2259 
Q 2675 3391 2411 3762 
Q 2147 4134 1753 4134 
Q 1366 4134 1134 3806 
Q 844 3388 844 2259 
z
" transform="scale(0.015625)"/>
       </defs>
       <use xlink:href="#ArialMT-30"/>
      </g>
     </g>
    </g>
    <g id="xtick_2">
     <g id="text_2">
      <!-- 500 -->
      <g style="fill: #262626" transform="translate(213.790097 398.416719) scale(0.15 -0.15)">
       <defs>
        <path id="ArialMT-35" d="M 266 1200 
L 856 1250 
Q 922 819 1161 601 
Q 1400 384 1738 384 
Q 2144 384 2425 690 
Q 2706 997 2706 1503 
Q 2706 1984 2436 2262 
Q 2166 2541 1728 2541 
Q 1456 2541 1237 2417 
Q 1019 2294 894 2097 
L 366 2166 
L 809 4519 
L 3088 4519 
L 3088 3981 
L 1259 3981 
L 1013 2750 
Q 1425 3038 1878 3038 
Q 2478 3038 2890 2622 
Q 3303 2206 3303 1553 
Q 3303 931 2941 478 
Q 2500 -78 1738 -78 
Q 1113 -78 717 272 
Q 322 622 266 1200 
z
" transform="scale(0.015625)"/>
       </defs>
       <use xlink:href="#ArialMT-35"/>
       <use xlink:href="#ArialMT-30" x="55.615234"/>
       <use xlink:href="#ArialMT-30" x="111.230469"/>
      </g>
     </g>
    </g>
    <g id="xtick_3">
     <g id="text_3">
      <!-- 1000 -->
      <g style="fill: #262626" transform="translate(298.083631 398.416719) scale(0.15 -0.15)">
       <defs>
        <path id="ArialMT-31" d="M 2384 0 
L 1822 0 
L 1822 3584 
Q 1619 3391 1289 3197 
Q 959 3003 697 2906 
L 697 3450 
Q 1169 3672 1522 3987 
Q 1875 4303 2022 4600 
L 2384 4600 
L 2384 0 
z
" transform="scale(0.015625)"/>
       </defs>
       <use xlink:href="#ArialMT-31"/>
       <use xlink:href="#ArialMT-30" x="55.615234"/>
       <use xlink:href="#ArialMT-30" x="111.230469"/>
       <use xlink:href="#ArialMT-30" x="166.845703"/>
      </g>
     </g>
    </g>
    <g id="xtick_4">
     <g id="text_4">
      <!-- 1500 -->
      <g style="fill: #262626" transform="translate(386.547869 398.416719) scale(0.15 -0.15)">
       <use xlink:href="#ArialMT-31"/>
       <use xlink:href="#ArialMT-35" x="55.615234"/>
       <use xlink:href="#ArialMT-30" x="111.230469"/>
       <use xlink:href="#ArialMT-30" x="166.845703"/>
      </g>
     </g>
    </g>
    <g id="xtick_5">
     <g id="text_5">
      <!-- 2000 -->
      <g style="fill: #262626" transform="translate(475.012107 398.416719) scale(0.15 -0.15)">
       <defs>
        <path id="ArialMT-32" d="M 3222 541 
L 3222 0 
L 194 0 
Q 188 203 259 391 
Q 375 700 629 1000 
Q 884 1300 1366 1694 
Q 2113 2306 2375 2664 
Q 2638 3022 2638 3341 
Q 2638 3675 2398 3904 
Q 2159 4134 1775 4134 
Q 1369 4134 1125 3890 
Q 881 3647 878 3216 
L 300 3275 
Q 359 3922 746 4261 
Q 1134 4600 1788 4600 
Q 2447 4600 2831 4234 
Q 3216 3869 3216 3328 
Q 3216 3053 3103 2787 
Q 2991 2522 2730 2228 
Q 2469 1934 1863 1422 
Q 1356 997 1212 845 
Q 1069 694 975 541 
L 3222 541 
z
" transform="scale(0.015625)"/>
       </defs>
       <use xlink:href="#ArialMT-32"/>
       <use xlink:href="#ArialMT-30" x="55.615234"/>
       <use xlink:href="#ArialMT-30" x="111.230469"/>
       <use xlink:href="#ArialMT-30" x="166.845703"/>
      </g>
     </g>
    </g>
    <g id="xtick_6">
     <g id="text_6">
      <!-- 2500 -->
      <g style="fill: #262626" transform="translate(563.476345 398.416719) scale(0.15 -0.15)">
       <use xlink:href="#ArialMT-32"/>
       <use xlink:href="#ArialMT-35" x="55.615234"/>
       <use xlink:href="#ArialMT-30" x="111.230469"/>
       <use xlink:href="#ArialMT-30" x="166.845703"/>
      </g>
     </g>
    </g>
    <g id="text_7">
     <!-- Time (s) -->
     <g style="fill: #262626" transform="translate(315.862891 416.3175) scale(0.15 -0.15)">
      <defs>
       <path id="ArialMT-54" d="M 1659 0 
L 1659 4041 
L 150 4041 
L 150 4581 
L 3781 4581 
L 3781 4041 
L 2266 4041 
L 2266 0 
L 1659 0 
z
" transform="scale(0.015625)"/>
       <path id="ArialMT-69" d="M 425 3934 
L 425 4581 
L 988 4581 
L 988 3934 
L 425 3934 
z
M 425 0 
L 425 3319 
L 988 3319 
L 988 0 
L 425 0 
z
" transform="scale(0.015625)"/>
       <path id="ArialMT-6d" d="M 422 0 
L 422 3319 
L 925 3319 
L 925 2853 
Q 1081 3097 1340 3245 
Q 1600 3394 1931 3394 
Q 2300 3394 2536 3241 
Q 2772 3088 2869 2813 
Q 3263 3394 3894 3394 
Q 4388 3394 4653 3120 
Q 4919 2847 4919 2278 
L 4919 0 
L 4359 0 
L 4359 2091 
Q 4359 2428 4304 2576 
Q 4250 2725 4106 2815 
Q 3963 2906 3769 2906 
Q 3419 2906 3187 2673 
Q 2956 2441 2956 1928 
L 2956 0 
L 2394 0 
L 2394 2156 
Q 2394 2531 2256 2718 
Q 2119 2906 1806 2906 
Q 1569 2906 1367 2781 
Q 1166 2656 1075 2415 
Q 984 2175 984 1722 
L 984 0 
L 422 0 
z
" transform="scale(0.015625)"/>
       <path id="ArialMT-65" d="M 2694 1069 
L 3275 997 
Q 3138 488 2766 206 
Q 2394 -75 1816 -75 
Q 1088 -75 661 373 
Q 234 822 234 1631 
Q 234 2469 665 2931 
Q 1097 3394 1784 3394 
Q 2450 3394 2872 2941 
Q 3294 2488 3294 1666 
Q 3294 1616 3291 1516 
L 816 1516 
Q 847 969 1125 678 
Q 1403 388 1819 388 
Q 2128 388 2347 550 
Q 2566 713 2694 1069 
z
M 847 1978 
L 2700 1978 
Q 2663 2397 2488 2606 
Q 2219 2931 1791 2931 
Q 1403 2931 1139 2672 
Q 875 2413 847 1978 
z
" transform="scale(0.015625)"/>
       <path id="ArialMT-20" transform="scale(0.015625)"/>
       <path id="ArialMT-28" d="M 1497 -1347 
Q 1031 -759 709 28 
Q 388 816 388 1659 
Q 388 2403 628 3084 
Q 909 3875 1497 4659 
L 1900 4659 
Q 1522 4009 1400 3731 
Q 1209 3300 1100 2831 
Q 966 2247 966 1656 
Q 966 153 1900 -1347 
L 1497 -1347 
z
" transform="scale(0.015625)"/>
       <path id="ArialMT-73" d="M 197 991 
L 753 1078 
Q 800 744 1014 566 
Q 1228 388 1613 388 
Q 2000 388 2187 545 
Q 2375 703 2375 916 
Q 2375 1106 2209 1216 
Q 2094 1291 1634 1406 
Q 1016 1563 777 1677 
Q 538 1791 414 1992 
Q 291 2194 291 2438 
Q 291 2659 392 2848 
Q 494 3038 669 3163 
Q 800 3259 1026 3326 
Q 1253 3394 1513 3394 
Q 1903 3394 2198 3281 
Q 2494 3169 2634 2976 
Q 2775 2784 2828 2463 
L 2278 2388 
Q 2241 2644 2061 2787 
Q 1881 2931 1553 2931 
Q 1166 2931 1000 2803 
Q 834 2675 834 2503 
Q 834 2394 903 2306 
Q 972 2216 1119 2156 
Q 1203 2125 1616 2013 
Q 2213 1853 2448 1751 
Q 2684 1650 2818 1456 
Q 2953 1263 2953 975 
Q 2953 694 2789 445 
Q 2625 197 2315 61 
Q 2006 -75 1616 -75 
Q 969 -75 630 194 
Q 291 463 197 991 
z
" transform="scale(0.015625)"/>
       <path id="ArialMT-29" d="M 791 -1347 
L 388 -1347 
Q 1322 153 1322 1656 
Q 1322 2244 1188 2822 
Q 1081 3291 891 3722 
Q 769 4003 388 4659 
L 791 4659 
Q 1378 3875 1659 3084 
Q 1900 2403 1900 1659 
Q 1900 816 1576 28 
Q 1253 -759 791 -1347 
z
" transform="scale(0.015625)"/>
      </defs>
      <use xlink:href="#ArialMT-54"/>
      <use xlink:href="#ArialMT-69" x="57.333984"/>
      <use xlink:href="#ArialMT-6d" x="79.550781"/>
      <use xlink:href="#ArialMT-65" x="162.851562"/>
      <use xlink:href="#ArialMT-20" x="218.466797"/>
      <use xlink:href="#ArialMT-28" x="246.25"/>
      <use xlink:href="#ArialMT-73" x="279.550781"/>
      <use xlink:href="#ArialMT-29" x="329.550781"/>
     </g>
    </g>
   </g>
   <g id="matplotlib.axis_2">
    <g id="ytick_1">
     <g id="text_8">
      <!-- −0.02 -->
      <g style="fill: #262626" transform="translate(30.937656 361.35318) scale(0.15 -0.15)">
       <defs>
        <path id="ArialMT-2212" d="M 3381 1997 
L 356 1997 
L 356 2522 
L 3381 2522 
L 3381 1997 
z
" transform="scale(0.015625)"/>
        <path id="ArialMT-2e" d="M 581 0 
L 581 641 
L 1222 641 
L 1222 0 
L 581 0 
z
" transform="scale(0.015625)"/>
       </defs>
       <use xlink:href="#ArialMT-2212"/>
       <use xlink:href="#ArialMT-30" x="58.398438"/>
       <use xlink:href="#ArialMT-2e" x="114.013672"/>
       <use xlink:href="#ArialMT-30" x="141.796875"/>
       <use xlink:href="#ArialMT-32" x="197.412109"/>
      </g>
     </g>
    </g>
    <g id="ytick_2">
     <g id="text_9">
      <!-- −0.01 -->
      <g style="fill: #262626" transform="translate(30.937656 318.076411) scale(0.15 -0.15)">
       <use xlink:href="#ArialMT-2212"/>
       <use xlink:href="#ArialMT-30" x="58.398438"/>
       <use xlink:href="#ArialMT-2e" x="114.013672"/>
       <use xlink:href="#ArialMT-30" x="141.796875"/>
       <use xlink:href="#ArialMT-31" x="197.412109"/>
      </g>
     </g>
    </g>
    <g id="ytick_3">
     <g id="text_10">
      <!-- 0.00 -->
      <g style="fill: #262626" transform="translate(39.698594 274.799641) scale(0.15 -0.15)">
       <use xlink:href="#ArialMT-30"/>
       <use xlink:href="#ArialMT-2e" x="55.615234"/>
       <use xlink:href="#ArialMT-30" x="83.398438"/>
       <use xlink:href="#ArialMT-30" x="139.013672"/>
      </g>
     </g>
    </g>
    <g id="ytick_4">
     <g id="text_11">
      <!-- 0.01 -->
      <g style="fill: #262626" transform="translate(39.698594 231.522872) scale(0.15 -0.15)">
       <use xlink:href="#ArialMT-30"/>
       <use xlink:href="#ArialMT-2e" x="55.615234"/>
       <use xlink:href="#ArialMT-30" x="83.398438"/>
       <use xlink:href="#ArialMT-31" x="139.013672"/>
      </g>
     </g>
    </g>
    <g id="ytick_5">
     <g id="text_12">
      <!-- 0.02 -->
      <g style="fill: #262626" transform="translate(39.698594 188.246103) scale(0.15 -0.15)">
       <use xlink:href="#ArialMT-30"/>
       <use xlink:href="#ArialMT-2e" x="55.615234"/>
       <use xlink:href="#ArialMT-30" x="83.398438"/>
       <use xlink:href="#ArialMT-32" x="139.013672"/>
      </g>
     </g>
    </g>
    <g id="ytick_6">
     <g id="text_13">
      <!-- 0.03 -->
      <g style="fill: #262626" transform="translate(39.698594 144.969333) scale(0.15 -0.15)">
       <defs>
        <path id="ArialMT-33" d="M 269 1209 
L 831 1284 
Q 928 806 1161 595 
Q 1394 384 1728 384 
Q 2125 384 2398 659 
Q 2672 934 2672 1341 
Q 2672 1728 2419 1979 
Q 2166 2231 1775 2231 
Q 1616 2231 1378 2169 
L 1441 2663 
Q 1497 2656 1531 2656 
Q 1891 2656 2178 2843 
Q 2466 3031 2466 3422 
Q 2466 3731 2256 3934 
Q 2047 4138 1716 4138 
Q 1388 4138 1169 3931 
Q 950 3725 888 3313 
L 325 3413 
Q 428 3978 793 4289 
Q 1159 4600 1703 4600 
Q 2078 4600 2393 4439 
Q 2709 4278 2876 4000 
Q 3044 3722 3044 3409 
Q 3044 3113 2884 2869 
Q 2725 2625 2413 2481 
Q 2819 2388 3044 2092 
Q 3269 1797 3269 1353 
Q 3269 753 2831 336 
Q 2394 -81 1725 -81 
Q 1122 -81 723 278 
Q 325 638 269 1209 
z
" transform="scale(0.015625)"/>
       </defs>
       <use xlink:href="#ArialMT-30"/>
       <use xlink:href="#ArialMT-2e" x="55.615234"/>
       <use xlink:href="#ArialMT-30" x="83.398438"/>
       <use xlink:href="#ArialMT-33" x="139.013672"/>
      </g>
     </g>
    </g>
    <g id="ytick_7">
     <g id="text_14">
      <!-- 0.04 -->
      <g style="fill: #262626" transform="translate(39.698594 101.692564) scale(0.15 -0.15)">
       <defs>
        <path id="ArialMT-34" d="M 2069 0 
L 2069 1097 
L 81 1097 
L 81 1613 
L 2172 4581 
L 2631 4581 
L 2631 1613 
L 3250 1613 
L 3250 1097 
L 2631 1097 
L 2631 0 
L 2069 0 
z
M 2069 1613 
L 2069 3678 
L 634 1613 
L 2069 1613 
z
" transform="scale(0.015625)"/>
       </defs>
       <use xlink:href="#ArialMT-30"/>
       <use xlink:href="#ArialMT-2e" x="55.615234"/>
       <use xlink:href="#ArialMT-30" x="83.398438"/>
       <use xlink:href="#ArialMT-34" x="139.013672"/>
      </g>
     </g>
    </g>
    <g id="ytick_8">
     <g id="text_15">
      <!-- 0.05 -->
      <g style="fill: #262626" transform="translate(39.698594 58.415795) scale(0.15 -0.15)">
       <use xlink:href="#ArialMT-30"/>
       <use xlink:href="#ArialMT-2e" x="55.615234"/>
       <use xlink:href="#ArialMT-30" x="83.398438"/>
       <use xlink:href="#ArialMT-35" x="139.013672"/>
      </g>
     </g>
    </g>
    <g id="text_16">
     <!-- Divergence -->
     <g style="fill: #262626" transform="translate(23.780625 240.823594) rotate(-90) scale(0.15 -0.15)">
      <defs>
       <path id="ArialMT-44" d="M 494 0 
L 494 4581 
L 2072 4581 
Q 2606 4581 2888 4516 
Q 3281 4425 3559 4188 
Q 3922 3881 4101 3404 
Q 4281 2928 4281 2316 
Q 4281 1794 4159 1391 
Q 4038 988 3847 723 
Q 3656 459 3429 307 
Q 3203 156 2883 78 
Q 2563 0 2147 0 
L 494 0 
z
M 1100 541 
L 2078 541 
Q 2531 541 2789 625 
Q 3047 709 3200 863 
Q 3416 1078 3536 1442 
Q 3656 1806 3656 2325 
Q 3656 3044 3420 3430 
Q 3184 3816 2847 3947 
Q 2603 4041 2063 4041 
L 1100 4041 
L 1100 541 
z
" transform="scale(0.015625)"/>
       <path id="ArialMT-76" d="M 1344 0 
L 81 3319 
L 675 3319 
L 1388 1331 
Q 1503 1009 1600 663 
Q 1675 925 1809 1294 
L 2547 3319 
L 3125 3319 
L 1869 0 
L 1344 0 
z
" transform="scale(0.015625)"/>
       <path id="ArialMT-72" d="M 416 0 
L 416 3319 
L 922 3319 
L 922 2816 
Q 1116 3169 1280 3281 
Q 1444 3394 1641 3394 
Q 1925 3394 2219 3213 
L 2025 2691 
Q 1819 2813 1613 2813 
Q 1428 2813 1281 2702 
Q 1134 2591 1072 2394 
Q 978 2094 978 1738 
L 978 0 
L 416 0 
z
" transform="scale(0.015625)"/>
       <path id="ArialMT-67" d="M 319 -275 
L 866 -356 
Q 900 -609 1056 -725 
Q 1266 -881 1628 -881 
Q 2019 -881 2231 -725 
Q 2444 -569 2519 -288 
Q 2563 -116 2559 434 
Q 2191 0 1641 0 
Q 956 0 581 494 
Q 206 988 206 1678 
Q 206 2153 378 2554 
Q 550 2956 876 3175 
Q 1203 3394 1644 3394 
Q 2231 3394 2613 2919 
L 2613 3319 
L 3131 3319 
L 3131 450 
Q 3131 -325 2973 -648 
Q 2816 -972 2473 -1159 
Q 2131 -1347 1631 -1347 
Q 1038 -1347 672 -1080 
Q 306 -813 319 -275 
z
M 784 1719 
Q 784 1066 1043 766 
Q 1303 466 1694 466 
Q 2081 466 2343 764 
Q 2606 1063 2606 1700 
Q 2606 2309 2336 2618 
Q 2066 2928 1684 2928 
Q 1309 2928 1046 2623 
Q 784 2319 784 1719 
z
" transform="scale(0.015625)"/>
       <path id="ArialMT-6e" d="M 422 0 
L 422 3319 
L 928 3319 
L 928 2847 
Q 1294 3394 1984 3394 
Q 2284 3394 2536 3286 
Q 2788 3178 2913 3003 
Q 3038 2828 3088 2588 
Q 3119 2431 3119 2041 
L 3119 0 
L 2556 0 
L 2556 2019 
Q 2556 2363 2490 2533 
Q 2425 2703 2258 2804 
Q 2091 2906 1866 2906 
Q 1506 2906 1245 2678 
Q 984 2450 984 1813 
L 984 0 
L 422 0 
z
" transform="scale(0.015625)"/>
       <path id="ArialMT-63" d="M 2588 1216 
L 3141 1144 
Q 3050 572 2676 248 
Q 2303 -75 1759 -75 
Q 1078 -75 664 370 
Q 250 816 250 1647 
Q 250 2184 428 2587 
Q 606 2991 970 3192 
Q 1334 3394 1763 3394 
Q 2303 3394 2647 3120 
Q 2991 2847 3088 2344 
L 2541 2259 
Q 2463 2594 2264 2762 
Q 2066 2931 1784 2931 
Q 1359 2931 1093 2626 
Q 828 2322 828 1663 
Q 828 994 1084 691 
Q 1341 388 1753 388 
Q 2084 388 2306 591 
Q 2528 794 2588 1216 
z
" transform="scale(0.015625)"/>
      </defs>
      <use xlink:href="#ArialMT-44"/>
      <use xlink:href="#ArialMT-69" x="72.216797"/>
      <use xlink:href="#ArialMT-76" x="94.433594"/>
      <use xlink:href="#ArialMT-65" x="144.433594"/>
      <use xlink:href="#ArialMT-72" x="200.048828"/>
      <use xlink:href="#ArialMT-67" x="233.349609"/>
      <use xlink:href="#ArialMT-65" x="288.964844"/>
      <use xlink:href="#ArialMT-6e" x="344.580078"/>
      <use xlink:href="#ArialMT-63" x="400.195312"/>
      <use xlink:href="#ArialMT-65" x="450.195312"/>
     </g>
    </g>
   </g>
   <g id="PolyCollection_1">
    <defs>
     <path id="mf7e490e97c" d="M 102.452273 -154.572722 
L 102.452273 -146.941019 
L 109.529412 -154.303947 
L 116.606551 -158.060197 
L 123.68369 -162.68146 
L 130.760829 -162.883797 
L 137.837968 -141.18087 
L 144.915107 -124.858311 
L 151.992246 -106.863526 
L 159.069385 -146.221357 
L 166.146524 -102.995126 
L 173.223663 -69.755455 
L 180.300802 -89.552057 
L 187.377941 -128.677083 
L 194.45508 -175.083439 
L 201.532219 -220.511866 
L 208.609358 -207.55066 
L 215.686497 -219.283167 
L 222.763636 -173.123741 
L 229.840775 -134.895614 
L 236.917914 -174.49695 
L 243.995053 -192.986374 
L 251.072193 -191.520485 
L 258.149332 -157.935349 
L 265.226471 -139.436828 
L 272.30361 -165.054257 
L 279.380749 -223.622215 
L 286.457888 -228.295481 
L 293.535027 -197.106932 
L 300.612166 -220.944871 
L 307.689305 -200.570218 
L 314.766444 -111.791964 
L 321.843583 -83.443338 
L 328.920722 -171.505924 
L 335.997861 -211.534217 
L 343.075 -246.515019 
L 350.152139 -211.59596 
L 357.229278 -234.585766 
L 364.306417 -316.42974 
L 371.383556 -247.057794 
L 378.460695 -157.937454 
L 385.537834 -179.866715 
L 392.614973 -248.068845 
L 399.692112 -261.943213 
L 406.769251 -206.184828 
L 413.84639 -130.492916 
L 420.923529 -197.640375 
L 428.000668 -218.572058 
L 435.077807 -174.754396 
L 442.154947 -206.632525 
L 449.232086 -179.348353 
L 456.309225 -137.788315 
L 463.386364 -152.315121 
L 470.463503 -188.992665 
L 477.540642 -185.005023 
L 484.617781 -122.494196 
L 491.69492 -172.299061 
L 498.772059 -232.518894 
L 505.849198 -188.711758 
L 512.926337 -180.539738 
L 520.003476 -169.652638 
L 527.080615 -179.654594 
L 534.157754 -182.924963 
L 541.234893 -170.952876 
L 548.312032 -173.963671 
L 555.389171 -172.668882 
L 562.46631 -174.09963 
L 569.543449 -189.712933 
L 576.620588 -181.500453 
L 583.697727 -166.277655 
L 583.697727 -177.619916 
L 583.697727 -177.619916 
L 576.620588 -194.726011 
L 569.543449 -203.725026 
L 562.46631 -185.428564 
L 555.389171 -184.936339 
L 548.312032 -189.297624 
L 541.234893 -189.183143 
L 534.157754 -197.333738 
L 527.080615 -194.956166 
L 520.003476 -183.946534 
L 512.926337 -207.21208 
L 505.849198 -205.208084 
L 498.772059 -251.994652 
L 491.69492 -191.370428 
L 484.617781 -151.669847 
L 477.540642 -210.7079 
L 470.463503 -213.198636 
L 463.386364 -175.691184 
L 456.309225 -163.152865 
L 449.232086 -204.345401 
L 442.154947 -255.98794 
L 435.077807 -221.299694 
L 428.000668 -257.74032 
L 420.923529 -232.772918 
L 413.84639 -169.156703 
L 406.769251 -249.494366 
L 399.692112 -291.719842 
L 392.614973 -280.124382 
L 385.537834 -208.992933 
L 378.460695 -184.467625 
L 371.383556 -273.679482 
L 364.306417 -366.381069 
L 357.229278 -278.096846 
L 350.152139 -250.524046 
L 343.075 -274.751516 
L 335.997861 -234.607565 
L 328.920722 -192.633878 
L 321.843583 -119.190129 
L 314.766444 -146.977311 
L 307.689305 -234.349556 
L 300.612166 -260.822751 
L 293.535027 -227.194796 
L 286.457888 -272.212002 
L 279.380749 -275.785297 
L 272.30361 -192.328456 
L 265.226471 -159.219939 
L 258.149332 -183.690666 
L 251.072193 -219.370793 
L 243.995053 -217.120198 
L 236.917914 -214.241796 
L 229.840775 -174.018281 
L 222.763636 -199.237889 
L 215.686497 -253.265203 
L 208.609358 -236.539483 
L 201.532219 -242.864554 
L 194.45508 -210.52191 
L 187.377941 -161.496998 
L 180.300802 -121.423813 
L 173.223663 -108.658711 
L 166.146524 -128.458747 
L 159.069385 -191.001554 
L 151.992246 -136.166489 
L 144.915107 -167.413452 
L 137.837968 -162.639465 
L 130.760829 -171.067508 
L 123.68369 -172.787104 
L 116.606551 -168.356306 
L 109.529412 -164.190972 
L 102.452273 -154.572722 
z
" style="stroke: #00008b; stroke-opacity: 0.1"/>
    </defs>
    <g clip-path="url(#p37ea5c20b3)">
     <use xlink:href="#mf7e490e97c" x="0" y="432" style="fill: #00008b; fill-opacity: 0.1; stroke: #00008b; stroke-opacity: 0.1"/>
    </g>
   </g>
   <g id="PolyCollection_2">
    <defs>
     <path id="m77ac9fbb60" d="M 102.452273 -163.52728 
L 102.452273 -161.868503 
L 109.529412 -161.877679 
L 116.606551 -160.696687 
L 123.68369 -161.085656 
L 130.760829 -161.794365 
L 137.837968 -155.847378 
L 144.915107 -152.614615 
L 151.992246 -149.967941 
L 159.069385 -135.805414 
L 166.146524 -144.359642 
L 173.223663 -172.492054 
L 180.300802 -185.26954 
L 187.377941 -196.538349 
L 194.45508 -220.67235 
L 201.532219 -223.565691 
L 208.609358 -217.129381 
L 215.686497 -219.722054 
L 222.763636 -198.834855 
L 229.840775 -186.732026 
L 236.917914 -190.54122 
L 243.995053 -195.674138 
L 251.072193 -193.334045 
L 258.149332 -192.054128 
L 265.226471 -204.386136 
L 272.30361 -202.487442 
L 279.380749 -196.048462 
L 286.457888 -181.10103 
L 293.535027 -200.319875 
L 300.612166 -206.020487 
L 307.689305 -191.536288 
L 314.766444 -197.929429 
L 321.843583 -198.034858 
L 328.920722 -209.555719 
L 335.997861 -196.765164 
L 343.075 -188.303467 
L 350.152139 -207.277203 
L 357.229278 -206.801396 
L 364.306417 -179.330106 
L 371.383556 -169.310821 
L 378.460695 -189.717663 
L 385.537834 -204.552034 
L 392.614973 -210.161074 
L 399.692112 -212.137403 
L 406.769251 -195.489134 
L 413.84639 -195.69051 
L 420.923529 -203.822781 
L 428.000668 -200.616422 
L 435.077807 -190.926634 
L 442.154947 -176.913833 
L 449.232086 -166.324832 
L 456.309225 -189.423456 
L 463.386364 -210.919105 
L 470.463503 -205.107267 
L 477.540642 -190.843661 
L 484.617781 -180.002321 
L 491.69492 -190.852912 
L 498.772059 -182.16667 
L 505.849198 -177.513712 
L 512.926337 -178.631762 
L 520.003476 -177.379128 
L 527.080615 -177.991053 
L 534.157754 -177.18668 
L 541.234893 -177.918909 
L 548.312032 -179.509488 
L 555.389171 -176.194655 
L 562.46631 -175.581885 
L 569.543449 -177.266757 
L 576.620588 -176.093063 
L 583.697727 -170.739514 
L 583.697727 -173.057893 
L 583.697727 -173.057893 
L 576.620588 -179.214229 
L 569.543449 -180.305374 
L 562.46631 -178.987617 
L 555.389171 -180.096292 
L 548.312032 -183.437059 
L 541.234893 -181.67983 
L 534.157754 -181.489706 
L 527.080615 -182.107401 
L 520.003476 -181.047884 
L 512.926337 -182.813266 
L 505.849198 -182.068573 
L 498.772059 -186.464038 
L 491.69492 -197.360306 
L 484.617781 -187.705625 
L 477.540642 -198.422425 
L 470.463503 -212.356709 
L 463.386364 -219.11178 
L 456.309225 -196.926791 
L 449.232086 -172.653253 
L 442.154947 -183.430985 
L 435.077807 -199.866871 
L 428.000668 -209.846572 
L 420.923529 -213.439657 
L 413.84639 -204.246269 
L 406.769251 -203.834575 
L 399.692112 -221.550377 
L 392.614973 -217.848765 
L 385.537834 -211.978338 
L 378.460695 -196.000821 
L 371.383556 -175.84741 
L 364.306417 -186.848579 
L 357.229278 -214.263576 
L 350.152139 -216.21864 
L 343.075 -194.760117 
L 335.997861 -203.751275 
L 328.920722 -216.41616 
L 321.843583 -204.192433 
L 314.766444 -203.704797 
L 307.689305 -197.018096 
L 300.612166 -212.688883 
L 293.535027 -207.397485 
L 286.457888 -186.937143 
L 279.380749 -203.452363 
L 272.30361 -208.988488 
L 265.226471 -210.030793 
L 258.149332 -198.18746 
L 251.072193 -199.411547 
L 243.995053 -202.460283 
L 236.917914 -197.809783 
L 229.840775 -194.385383 
L 222.763636 -207.422856 
L 215.686497 -229.359759 
L 208.609358 -226.16367 
L 201.532219 -233.980902 
L 194.45508 -229.675001 
L 187.377941 -202.657852 
L 180.300802 -191.44045 
L 173.223663 -177.915616 
L 166.146524 -150.30142 
L 159.069385 -141.726587 
L 151.992246 -156.492947 
L 144.915107 -160.072534 
L 137.837968 -160.725508 
L 130.760829 -164.07626 
L 123.68369 -163.232852 
L 116.606551 -163.745108 
L 109.529412 -163.730473 
L 102.452273 -163.52728 
z
" style="stroke: #00008b; stroke-opacity: 0.1"/>
    </defs>
    <g clip-path="url(#p37ea5c20b3)">
     <use xlink:href="#m77ac9fbb60" x="0" y="432" style="fill: #00008b; fill-opacity: 0.1; stroke: #00008b; stroke-opacity: 0.1"/>
    </g>
   </g>
   <g id="PathCollection_1">
    <defs>
     <path id="md1b5b47695" d="M 0 -3 
L -0.673542 -0.927051 
L -2.85317 -0.927051 
L -1.089814 0.354102 
L -1.763356 2.427051 
L -0 1.145898 
L 1.763356 2.427051 
L 1.089814 0.354102 
L 2.85317 -0.927051 
L 0.673542 -0.927051 
z
" style="stroke: #00008b"/>
    </defs>
    <g clip-path="url(#p37ea5c20b3)">
     <use xlink:href="#md1b5b47695" x="279.380749" y="312.708051" style="fill: #00008b; stroke: #00008b"/>
     <use xlink:href="#md1b5b47695" x="286.457888" y="312.708051" style="fill: #00008b; stroke: #00008b"/>
     <use xlink:href="#md1b5b47695" x="335.997861" y="312.708051" style="fill: #00008b; stroke: #00008b"/>
     <use xlink:href="#md1b5b47695" x="343.075" y="312.708051" style="fill: #00008b; stroke: #00008b"/>
     <use xlink:href="#md1b5b47695" x="357.229278" y="312.708051" style="fill: #00008b; stroke: #00008b"/>
     <use xlink:href="#md1b5b47695" x="364.306417" y="312.708051" style="fill: #00008b; stroke: #00008b"/>
     <use xlink:href="#md1b5b47695" x="371.383556" y="312.708051" style="fill: #00008b; stroke: #00008b"/>
     <use xlink:href="#md1b5b47695" x="392.614973" y="312.708051" style="fill: #00008b; stroke: #00008b"/>
     <use xlink:href="#md1b5b47695" x="399.692112" y="312.708051" style="fill: #00008b; stroke: #00008b"/>
     <use xlink:href="#md1b5b47695" x="442.154947" y="312.708051" style="fill: #00008b; stroke: #00008b"/>
     <use xlink:href="#md1b5b47695" x="449.232086" y="312.708051" style="fill: #00008b; stroke: #00008b"/>
     <use xlink:href="#md1b5b47695" x="498.772059" y="312.708051" style="fill: #00008b; stroke: #00008b"/>
     <use xlink:href="#md1b5b47695" x="505.849198" y="312.708051" style="fill: #00008b; stroke: #00008b"/>
     <use xlink:href="#md1b5b47695" x="569.543449" y="312.708051" style="fill: #00008b; stroke: #00008b"/>
    </g>
   </g>
   <g id="PolyCollection_3">
    <defs>
     <path id="ma6583f330a" d="M 102.452273 -192.949224 
L 102.452273 -119.751754 
L 109.529412 -126.573006 
L 116.606551 -99.869481 
L 123.68369 -121.158688 
L 130.760829 -117.632091 
L 137.837968 -127.124446 
L 144.915107 -133.767849 
L 151.992246 -149.403228 
L 159.069385 -187.394711 
L 166.146524 -225.402408 
L 173.223663 -219.254072 
L 180.300802 -232.670922 
L 187.377941 -240.006001 
L 194.45508 -239.573412 
L 201.532219 -237.928505 
L 208.609358 -238.982816 
L 215.686497 -233.760931 
L 222.763636 -239.459786 
L 229.840775 -262.612679 
L 236.917914 -300.280229 
L 243.995053 -309.653676 
L 251.072193 -296.002669 
L 258.149332 -268.693391 
L 265.226471 -282.071754 
L 272.30361 -283.720683 
L 279.380749 -299.170928 
L 286.457888 -301.740719 
L 293.535027 -315.466825 
L 300.612166 -330.613227 
L 307.689305 -316.195841 
L 314.766444 -308.496168 
L 321.843583 -314.275973 
L 328.920722 -307.192551 
L 335.997861 -311.695246 
L 343.075 -311.901543 
L 350.152139 -312.269783 
L 357.229278 -304.295236 
L 364.306417 -308.004011 
L 371.383556 -302.366453 
L 378.460695 -299.773433 
L 385.537834 -316.358042 
L 392.614973 -310.905078 
L 399.692112 -303.038791 
L 406.769251 -309.813368 
L 413.84639 -323.563074 
L 420.923529 -304.726316 
L 428.000668 -312.891483 
L 435.077807 -311.051551 
L 442.154947 -300.512962 
L 449.232086 -281.496526 
L 456.309225 -273.628803 
L 463.386364 -268.85136 
L 470.463503 -286.758405 
L 477.540642 -284.429657 
L 484.617781 -277.179591 
L 491.69492 -275.10917 
L 498.772059 -277.134015 
L 505.849198 -251.696592 
L 512.926337 -237.298118 
L 520.003476 -239.070379 
L 527.080615 -230.556427 
L 534.157754 -217.372883 
L 541.234893 -193.06068 
L 548.312032 -189.740207 
L 555.389171 -201.009531 
L 562.46631 -207.686209 
L 569.543449 -201.83392 
L 576.620588 -166.608807 
L 583.697727 -161.776727 
L 583.697727 -229.332526 
L 583.697727 -229.332526 
L 576.620588 -268.280528 
L 569.543449 -302.445552 
L 562.46631 -308.190549 
L 555.389171 -297.329043 
L 548.312032 -283.047727 
L 541.234893 -285.638137 
L 534.157754 -308.084359 
L 527.080615 -318.050565 
L 520.003476 -325.456544 
L 512.926337 -319.812807 
L 505.849198 -333.934616 
L 498.772059 -362.466431 
L 491.69492 -365.734641 
L 484.617781 -367.704332 
L 477.540642 -369.215449 
L 470.463503 -363.668424 
L 463.386364 -338.625838 
L 456.309225 -341.646703 
L 449.232086 -348.092854 
L 442.154947 -363.883804 
L 435.077807 -374.786895 
L 428.000668 -378.240075 
L 420.923529 -370.385083 
L 413.84639 -388.464545 
L 406.769251 -376.470894 
L 399.692112 -367.224165 
L 392.614973 -371.692352 
L 385.537834 -373.518533 
L 378.460695 -359.514059 
L 371.383556 -368.291436 
L 364.306417 -370.368587 
L 357.229278 -362.751276 
L 350.152139 -369.797089 
L 343.075 -370.544521 
L 335.997861 -371.44608 
L 328.920722 -360.107447 
L 321.843583 -367.125151 
L 314.766444 -363.23777 
L 307.689305 -370.216612 
L 300.612166 -382.508397 
L 293.535027 -365.464326 
L 286.457888 -347.63282 
L 279.380749 -344.966233 
L 272.30361 -335.767743 
L 265.226471 -334.491449 
L 258.149332 -318.767388 
L 251.072193 -345.865175 
L 243.995053 -356.1893 
L 236.917914 -344.340528 
L 229.840775 -306.931954 
L 222.763636 -287.173069 
L 215.686497 -284.290173 
L 208.609358 -294.021628 
L 201.532219 -297.896031 
L 194.45508 -300.896646 
L 187.377941 -298.863202 
L 180.300802 -292.167647 
L 173.223663 -283.319939 
L 166.146524 -297.561338 
L 159.069385 -259.356157 
L 151.992246 -223.749089 
L 144.915107 -217.681301 
L 137.837968 -213.501374 
L 130.760829 -211.170854 
L 123.68369 -224.422374 
L 116.606551 -204.36196 
L 109.529412 -215.432321 
L 102.452273 -192.949224 
z
" style="stroke: #6060eb; stroke-opacity: 0.1"/>
    </defs>
    <g clip-path="url(#p37ea5c20b3)">
     <use xlink:href="#ma6583f330a" x="0" y="432" style="fill: #6060eb; fill-opacity: 0.1; stroke: #6060eb; stroke-opacity: 0.1"/>
    </g>
   </g>
   <g id="PolyCollection_4">
    <defs>
     <path id="m937a7b2476" d="M 102.452273 -170.887075 
L 102.452273 -155.854958 
L 109.529412 -151.641622 
L 116.606551 -151.029467 
L 123.68369 -150.542469 
L 130.760829 -154.845702 
L 137.837968 -165.267053 
L 144.915107 -184.034246 
L 151.992246 -203.098221 
L 159.069385 -218.656276 
L 166.146524 -233.501376 
L 173.223663 -246.917272 
L 180.300802 -262.476987 
L 187.377941 -273.972303 
L 194.45508 -273.299956 
L 201.532219 -270.244591 
L 208.609358 -268.209082 
L 215.686497 -268.157249 
L 222.763636 -266.22511 
L 229.840775 -266.556329 
L 236.917914 -266.332251 
L 243.995053 -265.825844 
L 251.072193 -269.515506 
L 258.149332 -271.951009 
L 265.226471 -270.797249 
L 272.30361 -270.972686 
L 279.380749 -272.007007 
L 286.457888 -271.003201 
L 293.535027 -266.280476 
L 300.612166 -264.319601 
L 307.689305 -266.628362 
L 314.766444 -268.259523 
L 321.843583 -270.543862 
L 328.920722 -275.302101 
L 335.997861 -274.430945 
L 343.075 -265.136102 
L 350.152139 -265.555953 
L 357.229278 -273.227028 
L 364.306417 -278.304025 
L 371.383556 -277.015881 
L 378.460695 -277.433372 
L 385.537834 -277.528168 
L 392.614973 -277.477716 
L 399.692112 -274.523375 
L 406.769251 -275.960029 
L 413.84639 -282.134648 
L 420.923529 -279.894248 
L 428.000668 -275.040651 
L 435.077807 -274.325757 
L 442.154947 -273.076559 
L 449.232086 -271.606215 
L 456.309225 -270.473665 
L 463.386364 -271.00047 
L 470.463503 -271.891 
L 477.540642 -267.473201 
L 484.617781 -268.158191 
L 491.69492 -265.787673 
L 498.772059 -259.88324 
L 505.849198 -260.177248 
L 512.926337 -258.691372 
L 520.003476 -250.759427 
L 527.080615 -243.060365 
L 534.157754 -242.726903 
L 541.234893 -239.05649 
L 548.312032 -235.101425 
L 555.389171 -235.262172 
L 562.46631 -230.5442 
L 569.543449 -229.148034 
L 576.620588 -231.479265 
L 583.697727 -203.254697 
L 583.697727 -215.438307 
L 583.697727 -215.438307 
L 576.620588 -249.063509 
L 569.543449 -246.88709 
L 562.46631 -247.369291 
L 555.389171 -251.604725 
L 548.312032 -251.060704 
L 541.234893 -255.839637 
L 534.157754 -260.332563 
L 527.080615 -259.57047 
L 520.003476 -267.298387 
L 512.926337 -274.5997 
L 505.849198 -276.198051 
L 498.772059 -276.422939 
L 491.69492 -282.655012 
L 484.617781 -285.004443 
L 477.540642 -284.186078 
L 470.463503 -289.269978 
L 463.386364 -289.04467 
L 456.309225 -289.44691 
L 449.232086 -290.215141 
L 442.154947 -290.607431 
L 435.077807 -291.727449 
L 428.000668 -292.696419 
L 420.923529 -297.788597 
L 413.84639 -299.651093 
L 406.769251 -294.117462 
L 399.692112 -293.305859 
L 392.614973 -296.795464 
L 385.537834 -296.931479 
L 378.460695 -296.477646 
L 371.383556 -295.841129 
L 364.306417 -296.333869 
L 357.229278 -291.205891 
L 350.152139 -283.244367 
L 343.075 -282.793245 
L 335.997861 -291.969642 
L 328.920722 -293.091937 
L 321.843583 -287.858315 
L 314.766444 -286.013184 
L 307.689305 -284.138347 
L 300.612166 -281.39575 
L 293.535027 -282.986213 
L 286.457888 -287.250733 
L 279.380749 -287.515352 
L 272.30361 -286.847103 
L 265.226471 -286.158489 
L 258.149332 -287.04231 
L 251.072193 -284.2764 
L 243.995053 -280.662884 
L 236.917914 -281.284876 
L 229.840775 -282.177092 
L 222.763636 -282.494003 
L 215.686497 -284.269349 
L 208.609358 -284.543844 
L 201.532219 -286.661612 
L 194.45508 -288.78973 
L 187.377941 -288.436073 
L 180.300802 -276.617331 
L 173.223663 -260.61694 
L 166.146524 -248.652725 
L 159.069385 -236.030994 
L 151.992246 -219.332908 
L 144.915107 -200.785137 
L 137.837968 -183.996401 
L 130.760829 -175.246653 
L 123.68369 -171.306288 
L 116.606551 -172.200754 
L 109.529412 -170.207456 
L 102.452273 -170.887075 
z
" style="stroke: #6060eb; stroke-opacity: 0.1"/>
    </defs>
    <g clip-path="url(#p37ea5c20b3)">
     <use xlink:href="#m937a7b2476" x="0" y="432" style="fill: #6060eb; fill-opacity: 0.1; stroke: #6060eb; stroke-opacity: 0.1"/>
    </g>
   </g>
   <g id="PathCollection_2">
    <defs>
     <path id="m600e67d22b" d="M 0 -3 
L -0.673542 -0.927051 
L -2.85317 -0.927051 
L -1.089814 0.354102 
L -1.763356 2.427051 
L -0 1.145898 
L 1.763356 2.427051 
L 1.089814 0.354102 
L 2.85317 -0.927051 
L 0.673542 -0.927051 
z
" style="stroke: #6060eb"/>
    </defs>
    <g clip-path="url(#p37ea5c20b3)">
     <use xlink:href="#m600e67d22b" x="236.917914" y="355.984821" style="fill: #6060eb; stroke: #6060eb"/>
     <use xlink:href="#m600e67d22b" x="243.995053" y="355.984821" style="fill: #6060eb; stroke: #6060eb"/>
     <use xlink:href="#m600e67d22b" x="251.072193" y="355.984821" style="fill: #6060eb; stroke: #6060eb"/>
     <use xlink:href="#m600e67d22b" x="279.380749" y="355.984821" style="fill: #6060eb; stroke: #6060eb"/>
     <use xlink:href="#m600e67d22b" x="286.457888" y="355.984821" style="fill: #6060eb; stroke: #6060eb"/>
     <use xlink:href="#m600e67d22b" x="293.535027" y="355.984821" style="fill: #6060eb; stroke: #6060eb"/>
     <use xlink:href="#m600e67d22b" x="300.612166" y="355.984821" style="fill: #6060eb; stroke: #6060eb"/>
     <use xlink:href="#m600e67d22b" x="307.689305" y="355.984821" style="fill: #6060eb; stroke: #6060eb"/>
     <use xlink:href="#m600e67d22b" x="314.766444" y="355.984821" style="fill: #6060eb; stroke: #6060eb"/>
     <use xlink:href="#m600e67d22b" x="321.843583" y="355.984821" style="fill: #6060eb; stroke: #6060eb"/>
     <use xlink:href="#m600e67d22b" x="328.920722" y="355.984821" style="fill: #6060eb; stroke: #6060eb"/>
     <use xlink:href="#m600e67d22b" x="335.997861" y="355.984821" style="fill: #6060eb; stroke: #6060eb"/>
     <use xlink:href="#m600e67d22b" x="343.075" y="355.984821" style="fill: #6060eb; stroke: #6060eb"/>
     <use xlink:href="#m600e67d22b" x="350.152139" y="355.984821" style="fill: #6060eb; stroke: #6060eb"/>
     <use xlink:href="#m600e67d22b" x="357.229278" y="355.984821" style="fill: #6060eb; stroke: #6060eb"/>
     <use xlink:href="#m600e67d22b" x="385.537834" y="355.984821" style="fill: #6060eb; stroke: #6060eb"/>
     <use xlink:href="#m600e67d22b" x="392.614973" y="355.984821" style="fill: #6060eb; stroke: #6060eb"/>
     <use xlink:href="#m600e67d22b" x="406.769251" y="355.984821" style="fill: #6060eb; stroke: #6060eb"/>
     <use xlink:href="#m600e67d22b" x="413.84639" y="355.984821" style="fill: #6060eb; stroke: #6060eb"/>
     <use xlink:href="#m600e67d22b" x="428.000668" y="355.984821" style="fill: #6060eb; stroke: #6060eb"/>
     <use xlink:href="#m600e67d22b" x="435.077807" y="355.984821" style="fill: #6060eb; stroke: #6060eb"/>
    </g>
   </g>
   <g id="line2d_1">
    <path d="M 102.452273 281.243129 
L 109.529412 272.75254 
L 116.606551 268.791748 
L 123.68369 264.265718 
L 130.760829 265.024347 
L 137.837968 280.089832 
L 144.915107 285.864118 
L 151.992246 310.484992 
L 159.069385 263.388545 
L 166.146524 316.273064 
L 173.223663 342.792917 
L 180.300802 326.512065 
L 187.377941 286.912959 
L 194.45508 239.197326 
L 201.532219 200.31179 
L 208.609358 209.954929 
L 215.686497 195.725815 
L 222.763636 245.819185 
L 229.840775 277.543052 
L 236.917914 237.630627 
L 243.995053 226.946714 
L 251.072193 226.554361 
L 258.149332 261.186992 
L 265.226471 282.671616 
L 272.30361 253.308643 
L 279.380749 182.296244 
L 286.457888 181.746259 
L 293.535027 219.849136 
L 300.612166 191.116189 
L 307.689305 214.540113 
L 314.766444 302.615362 
L 321.843583 330.683267 
L 328.920722 249.930099 
L 335.997861 208.929109 
L 343.075 171.366733 
L 350.152139 200.939997 
L 357.229278 175.658694 
L 364.306417 90.594595 
L 371.383556 171.631362 
L 378.460695 260.797461 
L 385.537834 237.570176 
L 392.614973 167.903387 
L 399.692112 155.168473 
L 406.769251 204.160403 
L 413.84639 282.17519 
L 420.923529 216.793354 
L 428.000668 193.843811 
L 435.077807 233.972955 
L 442.154947 200.689767 
L 449.232086 240.153123 
L 456.309225 281.52941 
L 463.386364 267.996848 
L 470.463503 230.904349 
L 477.540642 234.143539 
L 484.617781 294.917978 
L 491.69492 250.165256 
L 498.772059 189.743227 
L 505.849198 235.040079 
L 512.926337 238.124091 
L 520.003476 255.200414 
L 527.080615 244.69462 
L 534.157754 241.870649 
L 541.234893 251.93199 
L 548.312032 250.369352 
L 555.389171 253.19739 
L 562.46631 252.235903 
L 569.543449 235.281021 
L 576.620588 243.886768 
L 583.697727 260.051214 
" clip-path="url(#p37ea5c20b3)" style="fill: none; stroke: #00008b; stroke-width: 2; stroke-linecap: round"/>
   </g>
   <g id="line2d_2">
    <path d="M 102.452273 269.302108 
L 109.529412 269.195924 
L 116.606551 269.779102 
L 123.68369 269.840746 
L 130.760829 269.064688 
L 137.837968 273.713557 
L 144.915107 275.656426 
L 151.992246 278.769556 
L 159.069385 293.234 
L 166.146524 284.669469 
L 173.223663 256.796165 
L 180.300802 243.645005 
L 187.377941 232.4019 
L 194.45508 206.826324 
L 201.532219 203.226704 
L 208.609358 210.353474 
L 215.686497 207.459093 
L 222.763636 228.871144 
L 229.840775 241.441296 
L 236.917914 237.824498 
L 243.995053 232.93279 
L 251.072193 235.627204 
L 258.149332 236.879206 
L 265.226471 224.791535 
L 272.30361 226.262035 
L 279.380749 232.249588 
L 286.457888 247.980914 
L 293.535027 228.14132 
L 300.612166 222.645315 
L 307.689305 237.722808 
L 314.766444 231.182887 
L 321.843583 230.886355 
L 328.920722 219.01406 
L 335.997861 231.741781 
L 343.075 240.468208 
L 350.152139 220.252078 
L 357.229278 221.467514 
L 364.306417 248.910658 
L 371.383556 259.420884 
L 378.460695 239.140758 
L 385.537834 223.734814 
L 392.614973 217.995081 
L 399.692112 215.15611 
L 406.769251 232.338146 
L 413.84639 232.031611 
L 420.923529 223.368781 
L 428.000668 226.768503 
L 435.077807 236.603247 
L 442.154947 251.827591 
L 449.232086 262.510957 
L 456.309225 238.824877 
L 463.386364 216.984557 
L 470.463503 223.268012 
L 477.540642 237.366957 
L 484.617781 248.146027 
L 491.69492 237.893391 
L 498.772059 247.684646 
L 505.849198 252.208858 
L 512.926337 251.277486 
L 520.003476 252.786494 
L 527.080615 251.950773 
L 534.157754 252.661807 
L 541.234893 252.200631 
L 548.312032 250.526727 
L 555.389171 253.854527 
L 562.46631 254.715249 
L 569.543449 253.213934 
L 576.620588 254.346354 
L 583.697727 260.101296 
" clip-path="url(#p37ea5c20b3)" style="fill: none; stroke-dasharray: 7.4,3.2; stroke-dashoffset: 0; stroke: #00008b; stroke-width: 2"/>
   </g>
   <g id="line2d_3">
    <path d="M 137.837968 378.18 
L 137.837968 27.6 
" clip-path="url(#p37ea5c20b3)" style="fill: none; stroke-dasharray: 5.55,2.4; stroke-dashoffset: 0; stroke: #1a1a1a; stroke-width: 1.5"/>
   </g>
   <g id="line2d_4">
    <path d="M 314.766444 378.18 
L 314.766444 27.6 
" clip-path="url(#p37ea5c20b3)" style="fill: none; stroke-dasharray: 5.55,2.4; stroke-dashoffset: 0; stroke: #1a1a1a; stroke-width: 1.5"/>
   </g>
   <g id="line2d_5">
    <path d="M 102.452273 275.649511 
L 109.529412 260.997337 
L 116.606551 279.88428 
L 123.68369 259.209469 
L 130.760829 267.598527 
L 137.837968 261.68709 
L 144.915107 256.275425 
L 151.992246 245.423842 
L 159.069385 208.624566 
L 166.146524 170.518127 
L 173.223663 180.712994 
L 180.300802 169.580715 
L 187.377941 162.565398 
L 194.45508 161.764971 
L 201.532219 164.087732 
L 208.609358 165.497778 
L 215.686497 172.974448 
L 222.763636 168.683573 
L 229.840775 147.227683 
L 236.917914 109.689621 
L 243.995053 99.078512 
L 251.072193 111.066078 
L 258.149332 138.26961 
L 265.226471 123.718398 
L 272.30361 122.255787 
L 279.380749 109.93142 
L 286.457888 107.313231 
L 293.535027 91.534425 
L 300.612166 75.439188 
L 307.689305 88.793773 
L 314.766444 96.133031 
L 321.843583 91.299438 
L 328.920722 98.350001 
L 335.997861 90.429337 
L 343.075 90.776968 
L 350.152139 90.966564 
L 357.229278 98.476744 
L 364.306417 92.813701 
L 371.383556 96.671056 
L 378.460695 102.356254 
L 385.537834 87.061713 
L 392.614973 90.701285 
L 399.692112 96.868522 
L 406.769251 88.857869 
L 413.84639 75.98619 
L 420.923529 94.444301 
L 428.000668 86.434221 
L 435.077807 89.080777 
L 442.154947 99.801617 
L 449.232086 117.20531 
L 456.309225 124.362247 
L 463.386364 128.261401 
L 470.463503 106.786585 
L 477.540642 105.177447 
L 484.617781 109.558039 
L 491.69492 111.578094 
L 498.772059 112.199777 
L 505.849198 139.184396 
L 512.926337 153.444538 
L 520.003476 149.736539 
L 527.080615 157.696504 
L 534.157754 169.271379 
L 541.234893 192.650592 
L 548.312032 195.606033 
L 555.389171 182.830713 
L 562.46631 174.061621 
L 569.543449 179.860264 
L 576.620588 214.555333 
L 583.697727 236.445374 
" clip-path="url(#p37ea5c20b3)" style="fill: none; stroke: #6060eb; stroke-width: 2; stroke-linecap: round"/>
   </g>
   <g id="line2d_6">
    <path d="M 102.452273 268.628983 
L 109.529412 271.075461 
L 116.606551 270.38489 
L 123.68369 271.075621 
L 130.760829 266.953822 
L 137.837968 257.368273 
L 144.915107 239.590308 
L 151.992246 220.784436 
L 159.069385 204.656365 
L 166.146524 190.92295 
L 173.223663 178.232894 
L 180.300802 162.452841 
L 187.377941 150.795812 
L 194.45508 150.955157 
L 201.532219 153.546899 
L 208.609358 155.623537 
L 215.686497 155.786701 
L 222.763636 157.640443 
L 229.840775 157.63329 
L 236.917914 158.191437 
L 243.995053 158.755636 
L 251.072193 155.104047 
L 258.149332 152.503341 
L 265.226471 153.522131 
L 272.30361 153.090106 
L 279.380749 152.23882 
L 286.457888 152.873033 
L 293.535027 157.366655 
L 300.612166 159.142325 
L 307.689305 156.616646 
L 314.766444 154.863646 
L 321.843583 152.798911 
L 328.920722 147.802981 
L 335.997861 148.799706 
L 343.075 158.035327 
L 350.152139 157.59984 
L 357.229278 149.78354 
L 364.306417 144.681053 
L 371.383556 145.571495 
L 378.460695 145.044491 
L 385.537834 144.770176 
L 392.614973 144.86341 
L 399.692112 148.085383 
L 406.769251 146.961254 
L 413.84639 141.107129 
L 420.923529 143.158578 
L 428.000668 148.131465 
L 435.077807 148.973397 
L 442.154947 150.158005 
L 449.232086 151.089322 
L 456.309225 152.039713 
L 463.386364 151.97743 
L 470.463503 151.419511 
L 477.540642 156.17036 
L 484.617781 155.418683 
L 491.69492 157.778657 
L 498.772059 163.84691 
L 505.849198 163.81235 
L 512.926337 165.354464 
L 520.003476 172.971093 
L 527.080615 180.684582 
L 534.157754 180.470267 
L 541.234893 184.551937 
L 548.312032 188.918936 
L 555.389171 188.566551 
L 562.46631 193.043254 
L 569.543449 193.982438 
L 576.620588 191.728613 
L 583.697727 222.653498 
" clip-path="url(#p37ea5c20b3)" style="fill: none; stroke-dasharray: 7.4,3.2; stroke-dashoffset: 0; stroke: #6060eb; stroke-width: 2"/>
   </g>
   <g id="line2d_7">
    <path d="M 137.837968 378.18 
L 137.837968 27.6 
" clip-path="url(#p37ea5c20b3)" style="fill: none; stroke-dasharray: 5.55,2.4; stroke-dashoffset: 0; stroke: #1a1a1a; stroke-width: 1.5"/>
   </g>
   <g id="line2d_8">
    <path d="M 314.766444 378.18 
L 314.766444 27.6 
" clip-path="url(#p37ea5c20b3)" style="fill: none; stroke-dasharray: 5.55,2.4; stroke-dashoffset: 0; stroke: #1a1a1a; stroke-width: 1.5"/>
   </g>
   <g id="patch_3">
    <path d="M 78.39 378.18 
L 78.39 27.6 
" style="fill: none; stroke: #cccccc; stroke-width: 1.5; stroke-linejoin: miter; stroke-linecap: square"/>
   </g>
   <g id="patch_4">
    <path d="M 78.39 378.18 
L 607.76 378.18 
" style="fill: none; stroke: #cccccc; stroke-width: 1.5; stroke-linejoin: miter; stroke-linecap: square"/>
   </g>
   <g id="text_17">
    <!-- Divergence Comparison: Original vs Shuffled -->
    <g style="fill: #262626" transform="translate(223.465 21.6) scale(0.12 -0.12)">
     <defs>
      <path id="ArialMT-43" d="M 3763 1606 
L 4369 1453 
Q 4178 706 3683 314 
Q 3188 -78 2472 -78 
Q 1731 -78 1267 223 
Q 803 525 561 1097 
Q 319 1669 319 2325 
Q 319 3041 592 3573 
Q 866 4106 1370 4382 
Q 1875 4659 2481 4659 
Q 3169 4659 3637 4309 
Q 4106 3959 4291 3325 
L 3694 3184 
Q 3534 3684 3231 3912 
Q 2928 4141 2469 4141 
Q 1941 4141 1586 3887 
Q 1231 3634 1087 3207 
Q 944 2781 944 2328 
Q 944 1744 1114 1308 
Q 1284 872 1643 656 
Q 2003 441 2422 441 
Q 2931 441 3284 734 
Q 3638 1028 3763 1606 
z
" transform="scale(0.015625)"/>
      <path id="ArialMT-6f" d="M 213 1659 
Q 213 2581 725 3025 
Q 1153 3394 1769 3394 
Q 2453 3394 2887 2945 
Q 3322 2497 3322 1706 
Q 3322 1066 3130 698 
Q 2938 331 2570 128 
Q 2203 -75 1769 -75 
Q 1072 -75 642 372 
Q 213 819 213 1659 
z
M 791 1659 
Q 791 1022 1069 705 
Q 1347 388 1769 388 
Q 2188 388 2466 706 
Q 2744 1025 2744 1678 
Q 2744 2294 2464 2611 
Q 2184 2928 1769 2928 
Q 1347 2928 1069 2612 
Q 791 2297 791 1659 
z
" transform="scale(0.015625)"/>
      <path id="ArialMT-70" d="M 422 -1272 
L 422 3319 
L 934 3319 
L 934 2888 
Q 1116 3141 1344 3267 
Q 1572 3394 1897 3394 
Q 2322 3394 2647 3175 
Q 2972 2956 3137 2557 
Q 3303 2159 3303 1684 
Q 3303 1175 3120 767 
Q 2938 359 2589 142 
Q 2241 -75 1856 -75 
Q 1575 -75 1351 44 
Q 1128 163 984 344 
L 984 -1272 
L 422 -1272 
z
M 931 1641 
Q 931 1000 1190 694 
Q 1450 388 1819 388 
Q 2194 388 2461 705 
Q 2728 1022 2728 1688 
Q 2728 2322 2467 2637 
Q 2206 2953 1844 2953 
Q 1484 2953 1207 2617 
Q 931 2281 931 1641 
z
" transform="scale(0.015625)"/>
      <path id="ArialMT-61" d="M 2588 409 
Q 2275 144 1986 34 
Q 1697 -75 1366 -75 
Q 819 -75 525 192 
Q 231 459 231 875 
Q 231 1119 342 1320 
Q 453 1522 633 1644 
Q 813 1766 1038 1828 
Q 1203 1872 1538 1913 
Q 2219 1994 2541 2106 
Q 2544 2222 2544 2253 
Q 2544 2597 2384 2738 
Q 2169 2928 1744 2928 
Q 1347 2928 1158 2789 
Q 969 2650 878 2297 
L 328 2372 
Q 403 2725 575 2942 
Q 747 3159 1072 3276 
Q 1397 3394 1825 3394 
Q 2250 3394 2515 3294 
Q 2781 3194 2906 3042 
Q 3031 2891 3081 2659 
Q 3109 2516 3109 2141 
L 3109 1391 
Q 3109 606 3145 398 
Q 3181 191 3288 0 
L 2700 0 
Q 2613 175 2588 409 
z
M 2541 1666 
Q 2234 1541 1622 1453 
Q 1275 1403 1131 1340 
Q 988 1278 909 1158 
Q 831 1038 831 891 
Q 831 666 1001 516 
Q 1172 366 1500 366 
Q 1825 366 2078 508 
Q 2331 650 2450 897 
Q 2541 1088 2541 1459 
L 2541 1666 
z
" transform="scale(0.015625)"/>
      <path id="ArialMT-3a" d="M 578 2678 
L 578 3319 
L 1219 3319 
L 1219 2678 
L 578 2678 
z
M 578 0 
L 578 641 
L 1219 641 
L 1219 0 
L 578 0 
z
" transform="scale(0.015625)"/>
      <path id="ArialMT-4f" d="M 309 2231 
Q 309 3372 921 4017 
Q 1534 4663 2503 4663 
Q 3138 4663 3647 4359 
Q 4156 4056 4423 3514 
Q 4691 2972 4691 2284 
Q 4691 1588 4409 1038 
Q 4128 488 3612 205 
Q 3097 -78 2500 -78 
Q 1853 -78 1343 234 
Q 834 547 571 1087 
Q 309 1628 309 2231 
z
M 934 2222 
Q 934 1394 1379 917 
Q 1825 441 2497 441 
Q 3181 441 3623 922 
Q 4066 1403 4066 2288 
Q 4066 2847 3877 3264 
Q 3688 3681 3323 3911 
Q 2959 4141 2506 4141 
Q 1863 4141 1398 3698 
Q 934 3256 934 2222 
z
" transform="scale(0.015625)"/>
      <path id="ArialMT-6c" d="M 409 0 
L 409 4581 
L 972 4581 
L 972 0 
L 409 0 
z
" transform="scale(0.015625)"/>
      <path id="ArialMT-53" d="M 288 1472 
L 859 1522 
Q 900 1178 1048 958 
Q 1197 738 1509 602 
Q 1822 466 2213 466 
Q 2559 466 2825 569 
Q 3091 672 3220 851 
Q 3350 1031 3350 1244 
Q 3350 1459 3225 1620 
Q 3100 1781 2813 1891 
Q 2628 1963 1997 2114 
Q 1366 2266 1113 2400 
Q 784 2572 623 2826 
Q 463 3081 463 3397 
Q 463 3744 659 4045 
Q 856 4347 1234 4503 
Q 1613 4659 2075 4659 
Q 2584 4659 2973 4495 
Q 3363 4331 3572 4012 
Q 3781 3694 3797 3291 
L 3216 3247 
Q 3169 3681 2898 3903 
Q 2628 4125 2100 4125 
Q 1550 4125 1298 3923 
Q 1047 3722 1047 3438 
Q 1047 3191 1225 3031 
Q 1400 2872 2139 2705 
Q 2878 2538 3153 2413 
Q 3553 2228 3743 1945 
Q 3934 1663 3934 1294 
Q 3934 928 3725 604 
Q 3516 281 3123 101 
Q 2731 -78 2241 -78 
Q 1619 -78 1198 103 
Q 778 284 539 648 
Q 300 1013 288 1472 
z
" transform="scale(0.015625)"/>
      <path id="ArialMT-68" d="M 422 0 
L 422 4581 
L 984 4581 
L 984 2938 
Q 1378 3394 1978 3394 
Q 2347 3394 2619 3248 
Q 2891 3103 3008 2847 
Q 3125 2591 3125 2103 
L 3125 0 
L 2563 0 
L 2563 2103 
Q 2563 2525 2380 2717 
Q 2197 2909 1863 2909 
Q 1613 2909 1392 2779 
Q 1172 2650 1078 2428 
Q 984 2206 984 1816 
L 984 0 
L 422 0 
z
" transform="scale(0.015625)"/>
      <path id="ArialMT-75" d="M 2597 0 
L 2597 488 
Q 2209 -75 1544 -75 
Q 1250 -75 995 37 
Q 741 150 617 320 
Q 494 491 444 738 
Q 409 903 409 1263 
L 409 3319 
L 972 3319 
L 972 1478 
Q 972 1038 1006 884 
Q 1059 663 1231 536 
Q 1403 409 1656 409 
Q 1909 409 2131 539 
Q 2353 669 2445 892 
Q 2538 1116 2538 1541 
L 2538 3319 
L 3100 3319 
L 3100 0 
L 2597 0 
z
" transform="scale(0.015625)"/>
      <path id="ArialMT-66" d="M 556 0 
L 556 2881 
L 59 2881 
L 59 3319 
L 556 3319 
L 556 3672 
Q 556 4006 616 4169 
Q 697 4388 901 4523 
Q 1106 4659 1475 4659 
Q 1713 4659 2000 4603 
L 1916 4113 
Q 1741 4144 1584 4144 
Q 1328 4144 1222 4034 
Q 1116 3925 1116 3625 
L 1116 3319 
L 1763 3319 
L 1763 2881 
L 1116 2881 
L 1116 0 
L 556 0 
z
" transform="scale(0.015625)"/>
      <path id="ArialMT-64" d="M 2575 0 
L 2575 419 
Q 2259 -75 1647 -75 
Q 1250 -75 917 144 
Q 584 363 401 755 
Q 219 1147 219 1656 
Q 219 2153 384 2558 
Q 550 2963 881 3178 
Q 1213 3394 1622 3394 
Q 1922 3394 2156 3267 
Q 2391 3141 2538 2938 
L 2538 4581 
L 3097 4581 
L 3097 0 
L 2575 0 
z
M 797 1656 
Q 797 1019 1065 703 
Q 1334 388 1700 388 
Q 2069 388 2326 689 
Q 2584 991 2584 1609 
Q 2584 2291 2321 2609 
Q 2059 2928 1675 2928 
Q 1300 2928 1048 2622 
Q 797 2316 797 1656 
z
" transform="scale(0.015625)"/>
     </defs>
     <use xlink:href="#ArialMT-44"/>
     <use xlink:href="#ArialMT-69" x="72.216797"/>
     <use xlink:href="#ArialMT-76" x="94.433594"/>
     <use xlink:href="#ArialMT-65" x="144.433594"/>
     <use xlink:href="#ArialMT-72" x="200.048828"/>
     <use xlink:href="#ArialMT-67" x="233.349609"/>
     <use xlink:href="#ArialMT-65" x="288.964844"/>
     <use xlink:href="#ArialMT-6e" x="344.580078"/>
     <use xlink:href="#ArialMT-63" x="400.195312"/>
     <use xlink:href="#ArialMT-65" x="450.195312"/>
     <use xlink:href="#ArialMT-20" x="505.810547"/>
     <use xlink:href="#ArialMT-43" x="533.59375"/>
     <use xlink:href="#ArialMT-6f" x="605.810547"/>
     <use xlink:href="#ArialMT-6d" x="661.425781"/>
     <use xlink:href="#ArialMT-70" x="744.726562"/>
     <use xlink:href="#ArialMT-61" x="800.341797"/>
     <use xlink:href="#ArialMT-72" x="855.957031"/>
     <use xlink:href="#ArialMT-69" x="889.257812"/>
     <use xlink:href="#ArialMT-73" x="911.474609"/>
     <use xlink:href="#ArialMT-6f" x="961.474609"/>
     <use xlink:href="#ArialMT-6e" x="1017.089844"/>
     <use xlink:href="#ArialMT-3a" x="1072.705078"/>
     <use xlink:href="#ArialMT-20" x="1100.488281"/>
     <use xlink:href="#ArialMT-4f" x="1128.271484"/>
     <use xlink:href="#ArialMT-72" x="1206.054688"/>
     <use xlink:href="#ArialMT-69" x="1239.355469"/>
     <use xlink:href="#ArialMT-67" x="1261.572266"/>
     <use xlink:href="#ArialMT-69" x="1317.1875"/>
     <use xlink:href="#ArialMT-6e" x="1339.404297"/>
     <use xlink:href="#ArialMT-61" x="1395.019531"/>
     <use xlink:href="#ArialMT-6c" x="1450.634766"/>
     <use xlink:href="#ArialMT-20" x="1472.851562"/>
     <use xlink:href="#ArialMT-76" x="1500.634766"/>
     <use xlink:href="#ArialMT-73" x="1550.634766"/>
     <use xlink:href="#ArialMT-20" x="1600.634766"/>
     <use xlink:href="#ArialMT-53" x="1628.417969"/>
     <use xlink:href="#ArialMT-68" x="1695.117188"/>
     <use xlink:href="#ArialMT-75" x="1750.732422"/>
     <use xlink:href="#ArialMT-66" x="1806.347656"/>
     <use xlink:href="#ArialMT-66" x="1832.380859"/>
     <use xlink:href="#ArialMT-6c" x="1860.164062"/>
     <use xlink:href="#ArialMT-65" x="1882.380859"/>
     <use xlink:href="#ArialMT-64" x="1937.996094"/>
    </g>
   </g>
   <g id="legend_1">
    <g id="patch_5">
     <path d="M 615.46 259.555469 
L 705.061875 259.555469 
Q 707.261875 259.555469 707.261875 257.355469 
L 707.261875 148.424531 
Q 707.261875 146.224531 705.061875 146.224531 
L 615.46 146.224531 
Q 613.26 146.224531 613.26 148.424531 
L 613.26 257.355469 
Q 613.26 259.555469 615.46 259.555469 
z
" style="fill: #ffffff; opacity: 0.8; stroke: #cccccc; stroke-linejoin: miter"/>
    </g>
    <g id="line2d_9">
     <path d="M 617.66 154.789062 
L 628.66 154.789062 
L 639.66 154.789062 
" style="fill: none; stroke: #00008b; stroke-width: 2; stroke-linecap: round"/>
    </g>
    <g id="text_18">
     <!-- Original -->
     <g style="fill: #262626" transform="translate(648.46 158.639062) scale(0.11 -0.11)">
      <use xlink:href="#ArialMT-4f"/>
      <use xlink:href="#ArialMT-72" x="77.783203"/>
      <use xlink:href="#ArialMT-69" x="111.083984"/>
      <use xlink:href="#ArialMT-67" x="133.300781"/>
      <use xlink:href="#ArialMT-69" x="188.916016"/>
      <use xlink:href="#ArialMT-6e" x="211.132812"/>
      <use xlink:href="#ArialMT-61" x="266.748047"/>
      <use xlink:href="#ArialMT-6c" x="322.363281"/>
     </g>
    </g>
    <g id="line2d_10">
     <path d="M 617.66 170.61875 
L 628.66 170.61875 
L 639.66 170.61875 
" style="fill: none; stroke-dasharray: 7.4,3.2; stroke-dashoffset: 0; stroke: #00008b; stroke-width: 2"/>
    </g>
    <g id="text_19">
     <!-- Original -->
     <g style="fill: #262626" transform="translate(648.46 174.46875) scale(0.11 -0.11)">
      <use xlink:href="#ArialMT-4f"/>
      <use xlink:href="#ArialMT-72" x="77.783203"/>
      <use xlink:href="#ArialMT-69" x="111.083984"/>
      <use xlink:href="#ArialMT-67" x="133.300781"/>
      <use xlink:href="#ArialMT-69" x="188.916016"/>
      <use xlink:href="#ArialMT-6e" x="211.132812"/>
      <use xlink:href="#ArialMT-61" x="266.748047"/>
      <use xlink:href="#ArialMT-6c" x="322.363281"/>
     </g>
    </g>
    <g id="PathCollection_3">
     <g>
      <use xlink:href="#md1b5b47695" x="628.66" y="187.302656" style="fill: #00008b; stroke: #00008b"/>
     </g>
    </g>
    <g id="text_20">
     <!-- p &lt; 0.001 -->
     <g style="fill: #262626" transform="translate(648.46 190.190156) scale(0.11 -0.11)">
      <defs>
       <path id="ArialMT-3c" d="M 350 2003 
L 350 2528 
L 3384 3809 
L 3384 3250 
L 978 2263 
L 3384 1266 
L 3384 706 
L 350 2003 
z
" transform="scale(0.015625)"/>
      </defs>
      <use xlink:href="#ArialMT-70"/>
      <use xlink:href="#ArialMT-20" x="55.615234"/>
      <use xlink:href="#ArialMT-3c" x="83.398438"/>
      <use xlink:href="#ArialMT-20" x="141.796875"/>
      <use xlink:href="#ArialMT-30" x="169.580078"/>
      <use xlink:href="#ArialMT-2e" x="225.195312"/>
      <use xlink:href="#ArialMT-30" x="252.978516"/>
      <use xlink:href="#ArialMT-30" x="308.59375"/>
      <use xlink:href="#ArialMT-31" x="364.208984"/>
     </g>
    </g>
    <g id="line2d_11">
     <path d="M 617.66 201.9 
L 628.66 201.9 
L 639.66 201.9 
" style="fill: none; stroke-dasharray: 5.55,2.4; stroke-dashoffset: 0; stroke: #1a1a1a; stroke-width: 1.5"/>
    </g>
    <g id="text_21">
     <!-- Stim Onset -->
     <g style="fill: #262626" transform="translate(648.46 205.75) scale(0.11 -0.11)">
      <defs>
       <path id="ArialMT-74" d="M 1650 503 
L 1731 6 
Q 1494 -44 1306 -44 
Q 1000 -44 831 53 
Q 663 150 594 308 
Q 525 466 525 972 
L 525 2881 
L 113 2881 
L 113 3319 
L 525 3319 
L 525 4141 
L 1084 4478 
L 1084 3319 
L 1650 3319 
L 1650 2881 
L 1084 2881 
L 1084 941 
Q 1084 700 1114 631 
Q 1144 563 1211 522 
Q 1278 481 1403 481 
Q 1497 481 1650 503 
z
" transform="scale(0.015625)"/>
      </defs>
      <use xlink:href="#ArialMT-53"/>
      <use xlink:href="#ArialMT-74" x="66.699219"/>
      <use xlink:href="#ArialMT-69" x="94.482422"/>
      <use xlink:href="#ArialMT-6d" x="116.699219"/>
      <use xlink:href="#ArialMT-20" x="200"/>
      <use xlink:href="#ArialMT-4f" x="227.783203"/>
      <use xlink:href="#ArialMT-6e" x="305.566406"/>
      <use xlink:href="#ArialMT-73" x="361.181641"/>
      <use xlink:href="#ArialMT-65" x="411.181641"/>
      <use xlink:href="#ArialMT-74" x="466.796875"/>
     </g>
    </g>
    <g id="line2d_12">
     <path d="M 617.66 217.459844 
L 628.66 217.459844 
L 639.66 217.459844 
" style="fill: none; stroke-dasharray: 5.55,2.4; stroke-dashoffset: 0; stroke: #1a1a1a; stroke-width: 1.5"/>
    </g>
    <g id="text_22">
     <!-- Stim End -->
     <g style="fill: #262626" transform="translate(648.46 221.309844) scale(0.11 -0.11)">
      <defs>
       <path id="ArialMT-45" d="M 506 0 
L 506 4581 
L 3819 4581 
L 3819 4041 
L 1113 4041 
L 1113 2638 
L 3647 2638 
L 3647 2100 
L 1113 2100 
L 1113 541 
L 3925 541 
L 3925 0 
L 506 0 
z
" transform="scale(0.015625)"/>
      </defs>
      <use xlink:href="#ArialMT-53"/>
      <use xlink:href="#ArialMT-74" x="66.699219"/>
      <use xlink:href="#ArialMT-69" x="94.482422"/>
      <use xlink:href="#ArialMT-6d" x="116.699219"/>
      <use xlink:href="#ArialMT-20" x="200"/>
      <use xlink:href="#ArialMT-45" x="227.783203"/>
      <use xlink:href="#ArialMT-6e" x="294.482422"/>
      <use xlink:href="#ArialMT-64" x="350.097656"/>
     </g>
    </g>
    <g id="line2d_13">
     <path d="M 617.66 233.160625 
L 628.66 233.160625 
L 639.66 233.160625 
" style="fill: none; stroke: #6060eb; stroke-width: 2; stroke-linecap: round"/>
    </g>
    <g id="text_23">
     <!-- Original -->
     <g style="fill: #262626" transform="translate(648.46 237.010625) scale(0.11 -0.11)">
      <use xlink:href="#ArialMT-4f"/>
      <use xlink:href="#ArialMT-72" x="77.783203"/>
      <use xlink:href="#ArialMT-69" x="111.083984"/>
      <use xlink:href="#ArialMT-67" x="133.300781"/>
      <use xlink:href="#ArialMT-69" x="188.916016"/>
      <use xlink:href="#ArialMT-6e" x="211.132812"/>
      <use xlink:href="#ArialMT-61" x="266.748047"/>
      <use xlink:href="#ArialMT-6c" x="322.363281"/>
     </g>
    </g>
    <g id="line2d_14">
     <path d="M 617.66 248.990312 
L 628.66 248.990312 
L 639.66 248.990312 
" style="fill: none; stroke-dasharray: 7.4,3.2; stroke-dashoffset: 0; stroke: #6060eb; stroke-width: 2"/>
    </g>
    <g id="text_24">
     <!-- Original -->
     <g style="fill: #262626" transform="translate(648.46 252.840312) scale(0.11 -0.11)">
      <use xlink:href="#ArialMT-4f"/>
      <use xlink:href="#ArialMT-72" x="77.783203"/>
      <use xlink:href="#ArialMT-69" x="111.083984"/>
      <use xlink:href="#ArialMT-67" x="133.300781"/>
      <use xlink:href="#ArialMT-69" x="188.916016"/>
      <use xlink:href="#ArialMT-6e" x="211.132812"/>
      <use xlink:href="#ArialMT-61" x="266.748047"/>
      <use xlink:href="#ArialMT-6c" x="322.363281"/>
     </g>
    </g>
   </g>
  </g>
 </g>
 <defs>
  <clipPath id="p37ea5c20b3">
   <rect x="78.39" y="27.6" width="529.37" height="350.58"/>
  </clipPath>
 </defs>
</svg>
