<?xml version="1.0" encoding="utf-8" standalone="no"?>
<!DOCTYPE svg PUBLIC "-//W3C//DTD SVG 1.1//EN"
  "http://www.w3.org/Graphics/SVG/1.1/DTD/svg11.dtd">
<svg xmlns:xlink="http://www.w3.org/1999/xlink" width="720pt" height="432pt" viewBox="0 0 720 432" xmlns="http://www.w3.org/2000/svg" version="1.1">
 <metadata>
  <rdf:RDF xmlns:dc="http://purl.org/dc/elements/1.1/" xmlns:cc="http://creativecommons.org/ns#" xmlns:rdf="http://www.w3.org/1999/02/22-rdf-syntax-ns#">
   <cc:Work>
    <dc:type rdf:resource="http://purl.org/dc/dcmitype/StillImage"/>
    <dc:date>2025-10-03T16:13:27.582737</dc:date>
    <dc:format>image/svg+xml</dc:format>
    <dc:creator>
     <cc:Agent>
      <dc:title>Matplotlib v3.9.4, https://matplotlib.org/</dc:title>
     </cc:Agent>
    </dc:creator>
   </cc:Work>
  </rdf:RDF>
 </metadata>
 <defs>
  <style type="text/css">*{stroke-linejoin: round; stroke-linecap: butt}</style>
 </defs>
 <g id="figure_1">
  <g id="patch_1">
   <path d="M 0 432 
L 720 432 
L 720 0 
L 0 0 
z
" style="fill: #ffffff"/>
  </g>
  <g id="axes_1">
   <g id="patch_2">
    <path d="M 69.71 377.54 
L 607.44 377.54 
L 607.44 26.96 
L 69.71 26.96 
L 69.71 377.54 
z
" style="fill: none"/>
   </g>
   <g id="matplotlib.axis_1">
    <g id="xtick_1">
     <g id="text_1">
      <!-- −250 -->
      <g style="fill: #262626" transform="translate(90.689515 397.776719) scale(0.15 -0.15)">
       <defs>
        <path id="ArialMT-2212" d="M 3381 1997 
L 356 1997 
L 356 2522 
L 3381 2522 
L 3381 1997 
z
" transform="scale(0.015625)"/>
        <path id="ArialMT-32" d="M 3222 541 
L 3222 0 
L 194 0 
Q 188 203 259 391 
Q 375 700 629 1000 
Q 884 1300 1366 1694 
Q 2113 2306 2375 2664 
Q 2638 3022 2638 3341 
Q 2638 3675 2398 3904 
Q 2159 4134 1775 4134 
Q 1369 4134 1125 3890 
Q 881 3647 878 3216 
L 300 3275 
Q 359 3922 746 4261 
Q 1134 4600 1788 4600 
Q 2447 4600 2831 4234 
Q 3216 3869 3216 3328 
Q 3216 3053 3103 2787 
Q 2991 2522 2730 2228 
Q 2469 1934 1863 1422 
Q 1356 997 1212 845 
Q 1069 694 975 541 
L 3222 541 
z
" transform="scale(0.015625)"/>
        <path id="ArialMT-35" d="M 266 1200 
L 856 1250 
Q 922 819 1161 601 
Q 1400 384 1738 384 
Q 2144 384 2425 690 
Q 2706 997 2706 1503 
Q 2706 1984 2436 2262 
Q 2166 2541 1728 2541 
Q 1456 2541 1237 2417 
Q 1019 2294 894 2097 
L 366 2166 
L 809 4519 
L 3088 4519 
L 3088 3981 
L 1259 3981 
L 1013 2750 
Q 1425 3038 1878 3038 
Q 2478 3038 2890 2622 
Q 3303 2206 3303 1553 
Q 3303 931 2941 478 
Q 2500 -78 1738 -78 
Q 1113 -78 717 272 
Q 322 622 266 1200 
z
" transform="scale(0.015625)"/>
        <path id="ArialMT-30" d="M 266 2259 
Q 266 3072 433 3567 
Q 600 4063 929 4331 
Q 1259 4600 1759 4600 
Q 2128 4600 2406 4451 
Q 2684 4303 2865 4023 
Q 3047 3744 3150 3342 
Q 3253 2941 3253 2259 
Q 3253 1453 3087 958 
Q 2922 463 2592 192 
Q 2263 -78 1759 -78 
Q 1097 -78 719 397 
Q 266 969 266 2259 
z
M 844 2259 
Q 844 1131 1108 757 
Q 1372 384 1759 384 
Q 2147 384 2411 759 
Q 2675 1134 2675 2259 
Q 2675 3391 2411 3762 
Q 2147 4134 1753 4134 
Q 1366 4134 1134 3806 
Q 844 3388 844 2259 
z
" transform="scale(0.015625)"/>
       </defs>
       <use xlink:href="#ArialMT-2212"/>
       <use xlink:href="#ArialMT-32" x="58.398438"/>
       <use xlink:href="#ArialMT-35" x="114.013672"/>
       <use xlink:href="#ArialMT-30" x="169.628906"/>
      </g>
     </g>
    </g>
    <g id="xtick_2">
     <g id="text_2">
      <!-- 0 -->
      <g style="fill: #262626" transform="translate(170.560491 397.776719) scale(0.15 -0.15)">
       <use xlink:href="#ArialMT-30"/>
      </g>
     </g>
    </g>
    <g id="xtick_3">
     <g id="text_3">
      <!-- 250 -->
      <g style="fill: #262626" transform="translate(229.368185 397.776719) scale(0.15 -0.15)">
       <use xlink:href="#ArialMT-32"/>
       <use xlink:href="#ArialMT-35" x="55.615234"/>
       <use xlink:href="#ArialMT-30" x="111.230469"/>
      </g>
     </g>
    </g>
    <g id="xtick_4">
     <g id="text_4">
      <!-- 500 -->
      <g style="fill: #262626" transform="translate(296.517286 397.776719) scale(0.15 -0.15)">
       <use xlink:href="#ArialMT-35"/>
       <use xlink:href="#ArialMT-30" x="55.615234"/>
       <use xlink:href="#ArialMT-30" x="111.230469"/>
      </g>
     </g>
    </g>
    <g id="xtick_5">
     <g id="text_5">
      <!-- 750 -->
      <g style="fill: #262626" transform="translate(363.666387 397.776719) scale(0.15 -0.15)">
       <defs>
        <path id="ArialMT-37" d="M 303 3981 
L 303 4522 
L 3269 4522 
L 3269 4084 
Q 2831 3619 2401 2847 
Q 1972 2075 1738 1259 
Q 1569 684 1522 0 
L 944 0 
Q 953 541 1156 1306 
Q 1359 2072 1739 2783 
Q 2119 3494 2547 3981 
L 303 3981 
z
" transform="scale(0.015625)"/>
       </defs>
       <use xlink:href="#ArialMT-37"/>
       <use xlink:href="#ArialMT-35" x="55.615234"/>
       <use xlink:href="#ArialMT-30" x="111.230469"/>
      </g>
     </g>
    </g>
    <g id="xtick_6">
     <g id="text_6">
      <!-- 1000 -->
      <g style="fill: #262626" transform="translate(426.644785 397.776719) scale(0.15 -0.15)">
       <defs>
        <path id="ArialMT-31" d="M 2384 0 
L 1822 0 
L 1822 3584 
Q 1619 3391 1289 3197 
Q 959 3003 697 2906 
L 697 3450 
Q 1169 3672 1522 3987 
Q 1875 4303 2022 4600 
L 2384 4600 
L 2384 0 
z
" transform="scale(0.015625)"/>
       </defs>
       <use xlink:href="#ArialMT-31"/>
       <use xlink:href="#ArialMT-30" x="55.615234"/>
       <use xlink:href="#ArialMT-30" x="111.230469"/>
       <use xlink:href="#ArialMT-30" x="166.845703"/>
      </g>
     </g>
    </g>
    <g id="xtick_7">
     <g id="text_7">
      <!-- 1250 -->
      <g style="fill: #262626" transform="translate(493.793886 397.776719) scale(0.15 -0.15)">
       <use xlink:href="#ArialMT-31"/>
       <use xlink:href="#ArialMT-32" x="55.615234"/>
       <use xlink:href="#ArialMT-35" x="111.230469"/>
       <use xlink:href="#ArialMT-30" x="166.845703"/>
      </g>
     </g>
    </g>
    <g id="xtick_8">
     <g id="text_8">
      <!-- 1500 -->
      <g style="fill: #262626" transform="translate(560.942987 397.776719) scale(0.15 -0.15)">
       <use xlink:href="#ArialMT-31"/>
       <use xlink:href="#ArialMT-35" x="55.615234"/>
       <use xlink:href="#ArialMT-30" x="111.230469"/>
       <use xlink:href="#ArialMT-30" x="166.845703"/>
      </g>
     </g>
    </g>
    <g id="text_9">
     <!-- Time (s) -->
     <g style="fill: #262626" transform="translate(311.362891 415.6775) scale(0.15 -0.15)">
      <defs>
       <path id="ArialMT-54" d="M 1659 0 
L 1659 4041 
L 150 4041 
L 150 4581 
L 3781 4581 
L 3781 4041 
L 2266 4041 
L 2266 0 
L 1659 0 
z
" transform="scale(0.015625)"/>
       <path id="ArialMT-69" d="M 425 3934 
L 425 4581 
L 988 4581 
L 988 3934 
L 425 3934 
z
M 425 0 
L 425 3319 
L 988 3319 
L 988 0 
L 425 0 
z
" transform="scale(0.015625)"/>
       <path id="ArialMT-6d" d="M 422 0 
L 422 3319 
L 925 3319 
L 925 2853 
Q 1081 3097 1340 3245 
Q 1600 3394 1931 3394 
Q 2300 3394 2536 3241 
Q 2772 3088 2869 2813 
Q 3263 3394 3894 3394 
Q 4388 3394 4653 3120 
Q 4919 2847 4919 2278 
L 4919 0 
L 4359 0 
L 4359 2091 
Q 4359 2428 4304 2576 
Q 4250 2725 4106 2815 
Q 3963 2906 3769 2906 
Q 3419 2906 3187 2673 
Q 2956 2441 2956 1928 
L 2956 0 
L 2394 0 
L 2394 2156 
Q 2394 2531 2256 2718 
Q 2119 2906 1806 2906 
Q 1569 2906 1367 2781 
Q 1166 2656 1075 2415 
Q 984 2175 984 1722 
L 984 0 
L 422 0 
z
" transform="scale(0.015625)"/>
       <path id="ArialMT-65" d="M 2694 1069 
L 3275 997 
Q 3138 488 2766 206 
Q 2394 -75 1816 -75 
Q 1088 -75 661 373 
Q 234 822 234 1631 
Q 234 2469 665 2931 
Q 1097 3394 1784 3394 
Q 2450 3394 2872 2941 
Q 3294 2488 3294 1666 
Q 3294 1616 3291 1516 
L 816 1516 
Q 847 969 1125 678 
Q 1403 388 1819 388 
Q 2128 388 2347 550 
Q 2566 713 2694 1069 
z
M 847 1978 
L 2700 1978 
Q 2663 2397 2488 2606 
Q 2219 2931 1791 2931 
Q 1403 2931 1139 2672 
Q 875 2413 847 1978 
z
" transform="scale(0.015625)"/>
       <path id="ArialMT-20" transform="scale(0.015625)"/>
       <path id="ArialMT-28" d="M 1497 -1347 
Q 1031 -759 709 28 
Q 388 816 388 1659 
Q 388 2403 628 3084 
Q 909 3875 1497 4659 
L 1900 4659 
Q 1522 4009 1400 3731 
Q 1209 3300 1100 2831 
Q 966 2247 966 1656 
Q 966 153 1900 -1347 
L 1497 -1347 
z
" transform="scale(0.015625)"/>
       <path id="ArialMT-73" d="M 197 991 
L 753 1078 
Q 800 744 1014 566 
Q 1228 388 1613 388 
Q 2000 388 2187 545 
Q 2375 703 2375 916 
Q 2375 1106 2209 1216 
Q 2094 1291 1634 1406 
Q 1016 1563 777 1677 
Q 538 1791 414 1992 
Q 291 2194 291 2438 
Q 291 2659 392 2848 
Q 494 3038 669 3163 
Q 800 3259 1026 3326 
Q 1253 3394 1513 3394 
Q 1903 3394 2198 3281 
Q 2494 3169 2634 2976 
Q 2775 2784 2828 2463 
L 2278 2388 
Q 2241 2644 2061 2787 
Q 1881 2931 1553 2931 
Q 1166 2931 1000 2803 
Q 834 2675 834 2503 
Q 834 2394 903 2306 
Q 972 2216 1119 2156 
Q 1203 2125 1616 2013 
Q 2213 1853 2448 1751 
Q 2684 1650 2818 1456 
Q 2953 1263 2953 975 
Q 2953 694 2789 445 
Q 2625 197 2315 61 
Q 2006 -75 1616 -75 
Q 969 -75 630 194 
Q 291 463 197 991 
z
" transform="scale(0.015625)"/>
       <path id="ArialMT-29" d="M 791 -1347 
L 388 -1347 
Q 1322 153 1322 1656 
Q 1322 2244 1188 2822 
Q 1081 3291 891 3722 
Q 769 4003 388 4659 
L 791 4659 
Q 1378 3875 1659 3084 
Q 1900 2403 1900 1659 
Q 1900 816 1576 28 
Q 1253 -759 791 -1347 
z
" transform="scale(0.015625)"/>
      </defs>
      <use xlink:href="#ArialMT-54"/>
      <use xlink:href="#ArialMT-69" x="57.333984"/>
      <use xlink:href="#ArialMT-6d" x="79.550781"/>
      <use xlink:href="#ArialMT-65" x="162.851562"/>
      <use xlink:href="#ArialMT-20" x="218.466797"/>
      <use xlink:href="#ArialMT-28" x="246.25"/>
      <use xlink:href="#ArialMT-73" x="279.550781"/>
      <use xlink:href="#ArialMT-29" x="329.550781"/>
     </g>
    </g>
   </g>
   <g id="matplotlib.axis_2">
    <g id="ytick_1">
     <g id="text_10">
      <!-- 0.00 -->
      <g style="fill: #262626" transform="translate(31.018594 346.385351) scale(0.15 -0.15)">
       <defs>
        <path id="ArialMT-2e" d="M 581 0 
L 581 641 
L 1222 641 
L 1222 0 
L 581 0 
z
" transform="scale(0.015625)"/>
       </defs>
       <use xlink:href="#ArialMT-30"/>
       <use xlink:href="#ArialMT-2e" x="55.615234"/>
       <use xlink:href="#ArialMT-30" x="83.398438"/>
       <use xlink:href="#ArialMT-30" x="139.013672"/>
      </g>
     </g>
    </g>
    <g id="ytick_2">
     <g id="text_11">
      <!-- 0.05 -->
      <g style="fill: #262626" transform="translate(31.018594 305.192008) scale(0.15 -0.15)">
       <use xlink:href="#ArialMT-30"/>
       <use xlink:href="#ArialMT-2e" x="55.615234"/>
       <use xlink:href="#ArialMT-30" x="83.398438"/>
       <use xlink:href="#ArialMT-35" x="139.013672"/>
      </g>
     </g>
    </g>
    <g id="ytick_3">
     <g id="text_12">
      <!-- 0.10 -->
      <g style="fill: #262626" transform="translate(31.018594 263.998665) scale(0.15 -0.15)">
       <use xlink:href="#ArialMT-30"/>
       <use xlink:href="#ArialMT-2e" x="55.615234"/>
       <use xlink:href="#ArialMT-31" x="83.398438"/>
       <use xlink:href="#ArialMT-30" x="139.013672"/>
      </g>
     </g>
    </g>
    <g id="ytick_4">
     <g id="text_13">
      <!-- 0.15 -->
      <g style="fill: #262626" transform="translate(31.018594 222.805323) scale(0.15 -0.15)">
       <use xlink:href="#ArialMT-30"/>
       <use xlink:href="#ArialMT-2e" x="55.615234"/>
       <use xlink:href="#ArialMT-31" x="83.398438"/>
       <use xlink:href="#ArialMT-35" x="139.013672"/>
      </g>
     </g>
    </g>
    <g id="ytick_5">
     <g id="text_14">
      <!-- 0.20 -->
      <g style="fill: #262626" transform="translate(31.018594 181.61198) scale(0.15 -0.15)">
       <use xlink:href="#ArialMT-30"/>
       <use xlink:href="#ArialMT-2e" x="55.615234"/>
       <use xlink:href="#ArialMT-32" x="83.398438"/>
       <use xlink:href="#ArialMT-30" x="139.013672"/>
      </g>
     </g>
    </g>
    <g id="ytick_6">
     <g id="text_15">
      <!-- 0.25 -->
      <g style="fill: #262626" transform="translate(31.018594 140.418637) scale(0.15 -0.15)">
       <use xlink:href="#ArialMT-30"/>
       <use xlink:href="#ArialMT-2e" x="55.615234"/>
       <use xlink:href="#ArialMT-32" x="83.398438"/>
       <use xlink:href="#ArialMT-35" x="139.013672"/>
      </g>
     </g>
    </g>
    <g id="ytick_7">
     <g id="text_16">
      <!-- 0.30 -->
      <g style="fill: #262626" transform="translate(31.018594 99.225294) scale(0.15 -0.15)">
       <defs>
        <path id="ArialMT-33" d="M 269 1209 
L 831 1284 
Q 928 806 1161 595 
Q 1394 384 1728 384 
Q 2125 384 2398 659 
Q 2672 934 2672 1341 
Q 2672 1728 2419 1979 
Q 2166 2231 1775 2231 
Q 1616 2231 1378 2169 
L 1441 2663 
Q 1497 2656 1531 2656 
Q 1891 2656 2178 2843 
Q 2466 3031 2466 3422 
Q 2466 3731 2256 3934 
Q 2047 4138 1716 4138 
Q 1388 4138 1169 3931 
Q 950 3725 888 3313 
L 325 3413 
Q 428 3978 793 4289 
Q 1159 4600 1703 4600 
Q 2078 4600 2393 4439 
Q 2709 4278 2876 4000 
Q 3044 3722 3044 3409 
Q 3044 3113 2884 2869 
Q 2725 2625 2413 2481 
Q 2819 2388 3044 2092 
Q 3269 1797 3269 1353 
Q 3269 753 2831 336 
Q 2394 -81 1725 -81 
Q 1122 -81 723 278 
Q 325 638 269 1209 
z
" transform="scale(0.015625)"/>
       </defs>
       <use xlink:href="#ArialMT-30"/>
       <use xlink:href="#ArialMT-2e" x="55.615234"/>
       <use xlink:href="#ArialMT-33" x="83.398438"/>
       <use xlink:href="#ArialMT-30" x="139.013672"/>
      </g>
     </g>
    </g>
    <g id="ytick_8">
     <g id="text_17">
      <!-- 0.35 -->
      <g style="fill: #262626" transform="translate(31.018594 58.031952) scale(0.15 -0.15)">
       <use xlink:href="#ArialMT-30"/>
       <use xlink:href="#ArialMT-2e" x="55.615234"/>
       <use xlink:href="#ArialMT-33" x="83.398438"/>
       <use xlink:href="#ArialMT-35" x="139.013672"/>
      </g>
     </g>
    </g>
    <g id="text_18">
     <!-- Divergence -->
     <g style="fill: #262626" transform="translate(23.861562 240.183594) rotate(-90) scale(0.15 -0.15)">
      <defs>
       <path id="ArialMT-44" d="M 494 0 
L 494 4581 
L 2072 4581 
Q 2606 4581 2888 4516 
Q 3281 4425 3559 4188 
Q 3922 3881 4101 3404 
Q 4281 2928 4281 2316 
Q 4281 1794 4159 1391 
Q 4038 988 3847 723 
Q 3656 459 3429 307 
Q 3203 156 2883 78 
Q 2563 0 2147 0 
L 494 0 
z
M 1100 541 
L 2078 541 
Q 2531 541 2789 625 
Q 3047 709 3200 863 
Q 3416 1078 3536 1442 
Q 3656 1806 3656 2325 
Q 3656 3044 3420 3430 
Q 3184 3816 2847 3947 
Q 2603 4041 2063 4041 
L 1100 4041 
L 1100 541 
z
" transform="scale(0.015625)"/>
       <path id="ArialMT-76" d="M 1344 0 
L 81 3319 
L 675 3319 
L 1388 1331 
Q 1503 1009 1600 663 
Q 1675 925 1809 1294 
L 2547 3319 
L 3125 3319 
L 1869 0 
L 1344 0 
z
" transform="scale(0.015625)"/>
       <path id="ArialMT-72" d="M 416 0 
L 416 3319 
L 922 3319 
L 922 2816 
Q 1116 3169 1280 3281 
Q 1444 3394 1641 3394 
Q 1925 3394 2219 3213 
L 2025 2691 
Q 1819 2813 1613 2813 
Q 1428 2813 1281 2702 
Q 1134 2591 1072 2394 
Q 978 2094 978 1738 
L 978 0 
L 416 0 
z
" transform="scale(0.015625)"/>
       <path id="ArialMT-67" d="M 319 -275 
L 866 -356 
Q 900 -609 1056 -725 
Q 1266 -881 1628 -881 
Q 2019 -881 2231 -725 
Q 2444 -569 2519 -288 
Q 2563 -116 2559 434 
Q 2191 0 1641 0 
Q 956 0 581 494 
Q 206 988 206 1678 
Q 206 2153 378 2554 
Q 550 2956 876 3175 
Q 1203 3394 1644 3394 
Q 2231 3394 2613 2919 
L 2613 3319 
L 3131 3319 
L 3131 450 
Q 3131 -325 2973 -648 
Q 2816 -972 2473 -1159 
Q 2131 -1347 1631 -1347 
Q 1038 -1347 672 -1080 
Q 306 -813 319 -275 
z
M 784 1719 
Q 784 1066 1043 766 
Q 1303 466 1694 466 
Q 2081 466 2343 764 
Q 2606 1063 2606 1700 
Q 2606 2309 2336 2618 
Q 2066 2928 1684 2928 
Q 1309 2928 1046 2623 
Q 784 2319 784 1719 
z
" transform="scale(0.015625)"/>
       <path id="ArialMT-6e" d="M 422 0 
L 422 3319 
L 928 3319 
L 928 2847 
Q 1294 3394 1984 3394 
Q 2284 3394 2536 3286 
Q 2788 3178 2913 3003 
Q 3038 2828 3088 2588 
Q 3119 2431 3119 2041 
L 3119 0 
L 2556 0 
L 2556 2019 
Q 2556 2363 2490 2533 
Q 2425 2703 2258 2804 
Q 2091 2906 1866 2906 
Q 1506 2906 1245 2678 
Q 984 2450 984 1813 
L 984 0 
L 422 0 
z
" transform="scale(0.015625)"/>
       <path id="ArialMT-63" d="M 2588 1216 
L 3141 1144 
Q 3050 572 2676 248 
Q 2303 -75 1759 -75 
Q 1078 -75 664 370 
Q 250 816 250 1647 
Q 250 2184 428 2587 
Q 606 2991 970 3192 
Q 1334 3394 1763 3394 
Q 2303 3394 2647 3120 
Q 2991 2847 3088 2344 
L 2541 2259 
Q 2463 2594 2264 2762 
Q 2066 2931 1784 2931 
Q 1359 2931 1093 2626 
Q 828 2322 828 1663 
Q 828 994 1084 691 
Q 1341 388 1753 388 
Q 2084 388 2306 591 
Q 2528 794 2588 1216 
z
" transform="scale(0.015625)"/>
      </defs>
      <use xlink:href="#ArialMT-44"/>
      <use xlink:href="#ArialMT-69" x="72.216797"/>
      <use xlink:href="#ArialMT-76" x="94.433594"/>
      <use xlink:href="#ArialMT-65" x="144.433594"/>
      <use xlink:href="#ArialMT-72" x="200.048828"/>
      <use xlink:href="#ArialMT-67" x="233.349609"/>
      <use xlink:href="#ArialMT-65" x="288.964844"/>
      <use xlink:href="#ArialMT-6e" x="344.580078"/>
      <use xlink:href="#ArialMT-63" x="400.195312"/>
      <use xlink:href="#ArialMT-65" x="450.195312"/>
     </g>
    </g>
   </g>
   <g id="PolyCollection_1">
    <defs>
     <path id="m28fdac2e06" d="M 94.152273 -104.044017 
L 94.152273 -87.417052 
L 99.524201 -86.790603 
L 104.896129 -91.192845 
L 110.268057 -86.826368 
L 115.639985 -86.293113 
L 121.011913 -89.135907 
L 126.383841 -89.358599 
L 131.755769 -92.979841 
L 137.127697 -89.705214 
L 142.499625 -89.508869 
L 147.871553 -85.395612 
L 153.243482 -88.199712 
L 158.61541 -87.372785 
L 163.987338 -90.104696 
L 169.359266 -84.607025 
L 174.731194 -93.693417 
L 180.103122 -102.861666 
L 185.47505 -102.392578 
L 190.846978 -106.707902 
L 196.218906 -99.114229 
L 201.590834 -104.543093 
L 206.962762 -104.338141 
L 212.33469 -101.597173 
L 217.706618 -100.928308 
L 223.078546 -106.412959 
L 228.450475 -108.745774 
L 233.822403 -112.662853 
L 239.194331 -116.867554 
L 244.566259 -108.691855 
L 249.938187 -111.125922 
L 255.310115 -106.342492 
L 260.682043 -107.076415 
L 266.053971 -109.719092 
L 271.425899 -111.633095 
L 276.797827 -110.698171 
L 282.169755 -107.833033 
L 287.541683 -104.134596 
L 292.913611 -106.502012 
L 298.285539 -110.951855 
L 303.657468 -102.033134 
L 309.029396 -104.419005 
L 314.401324 -111.186155 
L 319.773252 -114.304197 
L 325.14518 -116.323013 
L 330.517108 -114.247399 
L 335.889036 -112.80534 
L 341.260964 -114.001363 
L 346.632892 -116.235622 
L 352.00482 -124.089671 
L 357.376748 -124.536034 
L 362.748676 -120.581677 
L 368.120604 -121.066603 
L 373.492532 -125.162064 
L 378.864461 -122.586721 
L 384.236389 -121.496439 
L 389.608317 -119.042194 
L 394.980245 -119.525451 
L 400.352173 -125.87405 
L 405.724101 -127.448881 
L 411.096029 -127.695889 
L 416.467957 -134.646076 
L 421.839885 -131.505882 
L 427.211813 -127.30178 
L 432.583741 -130.780293 
L 437.955669 -121.761182 
L 443.327597 -121.047571 
L 448.699525 -146.766962 
L 454.071454 -145.402189 
L 459.443382 -112.180798 
L 464.81531 -107.195551 
L 470.187238 -120.731602 
L 475.559166 -127.259073 
L 480.931094 -127.698325 
L 486.303022 -123.329579 
L 491.67495 -118.451715 
L 497.046878 -123.461294 
L 502.418806 -124.287182 
L 507.790734 -125.921866 
L 513.162662 -130.453031 
L 518.53459 -120.080385 
L 523.906518 -122.072718 
L 529.278447 -124.735445 
L 534.650375 -124.649121 
L 540.022303 -129.668607 
L 545.394231 -123.70016 
L 550.766159 -129.221218 
L 556.138087 -130.339043 
L 561.510015 -126.172615 
L 566.881943 -127.495489 
L 572.253871 -128.921928 
L 577.625799 -130.269148 
L 582.997727 -128.19169 
L 582.997727 -142.028006 
L 582.997727 -142.028006 
L 577.625799 -144.682539 
L 572.253871 -143.840722 
L 566.881943 -141.344963 
L 561.510015 -139.982621 
L 556.138087 -145.03208 
L 550.766159 -143.63279 
L 545.394231 -136.855353 
L 540.022303 -143.832219 
L 534.650375 -137.81786 
L 529.278447 -139.346021 
L 523.906518 -135.446041 
L 518.53459 -133.482301 
L 513.162662 -144.913839 
L 507.790734 -139.338718 
L 502.418806 -136.738278 
L 497.046878 -135.682223 
L 491.67495 -131.794086 
L 486.303022 -137.485157 
L 480.931094 -141.633093 
L 475.559166 -140.153447 
L 470.187238 -132.532675 
L 464.81531 -121.891828 
L 459.443382 -139.634796 
L 454.071454 -170.074042 
L 448.699525 -163.515327 
L 443.327597 -131.976284 
L 437.955669 -133.654428 
L 432.583741 -142.803655 
L 427.211813 -140.177262 
L 421.839885 -143.776786 
L 416.467957 -147.894019 
L 411.096029 -141.411975 
L 405.724101 -140.370443 
L 400.352173 -137.665934 
L 394.980245 -131.493533 
L 389.608317 -130.705436 
L 384.236389 -132.227122 
L 378.864461 -132.385038 
L 373.492532 -134.849749 
L 368.120604 -130.81368 
L 362.748676 -131.036895 
L 357.376748 -135.094192 
L 352.00482 -134.73136 
L 346.632892 -127.138463 
L 341.260964 -124.361859 
L 335.889036 -122.777686 
L 330.517108 -124.405645 
L 325.14518 -126.524593 
L 319.773252 -123.828093 
L 314.401324 -120.869273 
L 309.029396 -114.083171 
L 303.657468 -113.111595 
L 298.285539 -121.978955 
L 292.913611 -115.28164 
L 287.541683 -112.697356 
L 282.169755 -117.219988 
L 276.797827 -121.314465 
L 271.425899 -123.233925 
L 266.053971 -120.161233 
L 260.682043 -116.241774 
L 255.310115 -114.844857 
L 249.938187 -120.705143 
L 244.566259 -118.569393 
L 239.194331 -126.501696 
L 233.822403 -122.537423 
L 228.450475 -118.261501 
L 223.078546 -114.657917 
L 217.706618 -109.218724 
L 212.33469 -109.425217 
L 206.962762 -112.182475 
L 201.590834 -112.476059 
L 196.218906 -106.811483 
L 190.846978 -115.704463 
L 185.47505 -111.092429 
L 180.103122 -110.194229 
L 174.731194 -104.263554 
L 169.359266 -89.781557 
L 163.987338 -94.897044 
L 158.61541 -91.95505 
L 153.243482 -92.401264 
L 147.871553 -89.675193 
L 142.499625 -93.237535 
L 137.127697 -95.424182 
L 131.755769 -97.426889 
L 126.383841 -93.325824 
L 121.011913 -93.082096 
L 115.639985 -91.815431 
L 110.268057 -91.717577 
L 104.896129 -94.460739 
L 99.524201 -91.584244 
L 94.152273 -104.044017 
z
" style="stroke: #6060eb; stroke-opacity: 0.1"/>
    </defs>
    <g clip-path="url(#pff9ff9739d)">
     <use xlink:href="#m28fdac2e06" x="0" y="432" style="fill: #6060eb; fill-opacity: 0.1; stroke: #6060eb; stroke-opacity: 0.1"/>
    </g>
   </g>
   <g id="PolyCollection_2">
    <defs>
     <path id="me2b28b5b86" d="M 94.152273 -91.368013 
L 94.152273 -87.396522 
L 99.524201 -90.909398 
L 104.896129 -90.675673 
L 110.268057 -90.743452 
L 115.639985 -89.909846 
L 121.011913 -90.502257 
L 126.383841 -90.914912 
L 131.755769 -91.517216 
L 137.127697 -91.369251 
L 142.499625 -90.801091 
L 147.871553 -91.028913 
L 153.243482 -90.891263 
L 158.61541 -91.194683 
L 163.987338 -90.498289 
L 169.359266 -90.72058 
L 174.731194 -98.724939 
L 180.103122 -98.184256 
L 185.47505 -96.678669 
L 190.846978 -98.100925 
L 196.218906 -98.059266 
L 201.590834 -97.983876 
L 206.962762 -100.48447 
L 212.33469 -102.079663 
L 217.706618 -103.340227 
L 223.078546 -102.029553 
L 228.450475 -101.561185 
L 233.822403 -100.813998 
L 239.194331 -99.217903 
L 244.566259 -100.132645 
L 249.938187 -99.382006 
L 255.310115 -96.8184 
L 260.682043 -95.623951 
L 266.053971 -97.524244 
L 271.425899 -99.232584 
L 276.797827 -98.856712 
L 282.169755 -97.391358 
L 287.541683 -97.498516 
L 292.913611 -98.859261 
L 298.285539 -97.722018 
L 303.657468 -97.254211 
L 309.029396 -99.932338 
L 314.401324 -101.457497 
L 319.773252 -100.685428 
L 325.14518 -98.775575 
L 330.517108 -98.697505 
L 335.889036 -96.611326 
L 341.260964 -97.289507 
L 346.632892 -95.97294 
L 352.00482 -95.876508 
L 357.376748 -98.024225 
L 362.748676 -99.289923 
L 368.120604 -100.838403 
L 373.492532 -103.617055 
L 378.864461 -107.183605 
L 384.236389 -106.783187 
L 389.608317 -104.31781 
L 394.980245 -103.736611 
L 400.352173 -104.755441 
L 405.724101 -104.849099 
L 411.096029 -103.36277 
L 416.467957 -103.456502 
L 421.839885 -104.545129 
L 427.211813 -101.779403 
L 432.583741 -97.875125 
L 437.955669 -96.525551 
L 443.327597 -93.753167 
L 448.699525 -93.806571 
L 454.071454 -91.046037 
L 459.443382 -85.855911 
L 464.81531 -88.919022 
L 470.187238 -90.325878 
L 475.559166 -89.780111 
L 480.931094 -91.527895 
L 486.303022 -91.889523 
L 491.67495 -91.869953 
L 497.046878 -89.801455 
L 502.418806 -89.169315 
L 507.790734 -89.995885 
L 513.162662 -91.17477 
L 518.53459 -91.592889 
L 523.906518 -90.735645 
L 529.278447 -88.54331 
L 534.650375 -90.426404 
L 540.022303 -91.586373 
L 545.394231 -91.425881 
L 550.766159 -90.442832 
L 556.138087 -90.887772 
L 561.510015 -90.596663 
L 566.881943 -91.419989 
L 572.253871 -92.799172 
L 577.625799 -92.235012 
L 582.997727 -91.198024 
L 582.997727 -92.134298 
L 582.997727 -92.134298 
L 577.625799 -93.074857 
L 572.253871 -93.75232 
L 566.881943 -92.138897 
L 561.510015 -91.613384 
L 556.138087 -91.958316 
L 550.766159 -91.284903 
L 545.394231 -92.315875 
L 540.022303 -92.719368 
L 534.650375 -91.411526 
L 529.278447 -90.644323 
L 523.906518 -91.741647 
L 518.53459 -92.607744 
L 513.162662 -92.138261 
L 507.790734 -90.892128 
L 502.418806 -89.993473 
L 497.046878 -90.963987 
L 491.67495 -92.896008 
L 486.303022 -93.243449 
L 480.931094 -92.605821 
L 475.559166 -91.063887 
L 470.187238 -91.43747 
L 464.81531 -90.481276 
L 459.443382 -88.23812 
L 454.071454 -93.395726 
L 448.699525 -95.451875 
L 443.327597 -94.86295 
L 437.955669 -98.513434 
L 432.583741 -100.091499 
L 427.211813 -103.980568 
L 421.839885 -106.808211 
L 416.467957 -106.039722 
L 411.096029 -105.975766 
L 405.724101 -107.25784 
L 400.352173 -107.264384 
L 394.980245 -106.452897 
L 389.608317 -106.873534 
L 384.236389 -109.314091 
L 378.864461 -109.818455 
L 373.492532 -106.034384 
L 368.120604 -103.023281 
L 362.748676 -101.448102 
L 357.376748 -100.213526 
L 352.00482 -97.986343 
L 346.632892 -98.247328 
L 341.260964 -99.513573 
L 335.889036 -98.727331 
L 330.517108 -100.757582 
L 325.14518 -100.916893 
L 319.773252 -102.830348 
L 314.401324 -103.654043 
L 309.029396 -102.077124 
L 303.657468 -99.370199 
L 298.285539 -99.809897 
L 292.913611 -101.502508 
L 287.541683 -99.689788 
L 282.169755 -99.483762 
L 276.797827 -100.780685 
L 271.425899 -101.325294 
L 266.053971 -99.429129 
L 260.682043 -97.566636 
L 255.310115 -98.989398 
L 249.938187 -101.629323 
L 244.566259 -103.004575 
L 239.194331 -101.695953 
L 233.822403 -103.193509 
L 228.450475 -103.752774 
L 223.078546 -104.311345 
L 217.706618 -105.708398 
L 212.33469 -104.33035 
L 206.962762 -102.734356 
L 201.590834 -100.203377 
L 196.218906 -100.153608 
L 190.846978 -103.031287 
L 185.47505 -99.267206 
L 180.103122 -101.55081 
L 174.731194 -102.153264 
L 169.359266 -91.803287 
L 163.987338 -91.742559 
L 158.61541 -92.220974 
L 153.243482 -92.18231 
L 147.871553 -92.209481 
L 142.499625 -92.026318 
L 137.127697 -92.632778 
L 131.755769 -92.360438 
L 126.383841 -92.375079 
L 121.011913 -91.735908 
L 115.639985 -91.100468 
L 110.268057 -91.928625 
L 104.896129 -91.455571 
L 99.524201 -92.206836 
L 94.152273 -91.368013 
z
" style="stroke: #6060eb; stroke-opacity: 0.1"/>
    </defs>
    <g clip-path="url(#pff9ff9739d)">
     <use xlink:href="#me2b28b5b86" x="0" y="432" style="fill: #6060eb; fill-opacity: 0.1; stroke: #6060eb; stroke-opacity: 0.1"/>
    </g>
   </g>
   <g id="PathCollection_1">
    <defs>
     <path id="m84db5be355" d="M 0 -3 
L -0.673542 -0.927051 
L -2.85317 -0.927051 
L -1.089814 0.354102 
L -1.763356 2.427051 
L -0 1.145898 
L 1.763356 2.427051 
L 1.089814 0.354102 
L 2.85317 -0.927051 
L 0.673542 -0.927051 
z
" style="stroke: #6060eb"/>
    </defs>
    <g clip-path="url(#pff9ff9739d)">
     <use xlink:href="#m84db5be355" x="239.194331" y="349.25566" style="fill: #6060eb; stroke: #6060eb"/>
     <use xlink:href="#m84db5be355" x="249.938187" y="349.25566" style="fill: #6060eb; stroke: #6060eb"/>
     <use xlink:href="#m84db5be355" x="260.682043" y="349.25566" style="fill: #6060eb; stroke: #6060eb"/>
     <use xlink:href="#m84db5be355" x="298.285539" y="349.25566" style="fill: #6060eb; stroke: #6060eb"/>
     <use xlink:href="#m84db5be355" x="319.773252" y="349.25566" style="fill: #6060eb; stroke: #6060eb"/>
     <use xlink:href="#m84db5be355" x="325.14518" y="349.25566" style="fill: #6060eb; stroke: #6060eb"/>
     <use xlink:href="#m84db5be355" x="330.517108" y="349.25566" style="fill: #6060eb; stroke: #6060eb"/>
     <use xlink:href="#m84db5be355" x="335.889036" y="349.25566" style="fill: #6060eb; stroke: #6060eb"/>
     <use xlink:href="#m84db5be355" x="341.260964" y="349.25566" style="fill: #6060eb; stroke: #6060eb"/>
     <use xlink:href="#m84db5be355" x="346.632892" y="349.25566" style="fill: #6060eb; stroke: #6060eb"/>
     <use xlink:href="#m84db5be355" x="352.00482" y="349.25566" style="fill: #6060eb; stroke: #6060eb"/>
     <use xlink:href="#m84db5be355" x="357.376748" y="349.25566" style="fill: #6060eb; stroke: #6060eb"/>
     <use xlink:href="#m84db5be355" x="362.748676" y="349.25566" style="fill: #6060eb; stroke: #6060eb"/>
     <use xlink:href="#m84db5be355" x="368.120604" y="349.25566" style="fill: #6060eb; stroke: #6060eb"/>
     <use xlink:href="#m84db5be355" x="373.492532" y="349.25566" style="fill: #6060eb; stroke: #6060eb"/>
     <use xlink:href="#m84db5be355" x="378.864461" y="349.25566" style="fill: #6060eb; stroke: #6060eb"/>
     <use xlink:href="#m84db5be355" x="384.236389" y="349.25566" style="fill: #6060eb; stroke: #6060eb"/>
     <use xlink:href="#m84db5be355" x="389.608317" y="349.25566" style="fill: #6060eb; stroke: #6060eb"/>
     <use xlink:href="#m84db5be355" x="394.980245" y="349.25566" style="fill: #6060eb; stroke: #6060eb"/>
     <use xlink:href="#m84db5be355" x="400.352173" y="349.25566" style="fill: #6060eb; stroke: #6060eb"/>
     <use xlink:href="#m84db5be355" x="405.724101" y="349.25566" style="fill: #6060eb; stroke: #6060eb"/>
     <use xlink:href="#m84db5be355" x="411.096029" y="349.25566" style="fill: #6060eb; stroke: #6060eb"/>
     <use xlink:href="#m84db5be355" x="416.467957" y="349.25566" style="fill: #6060eb; stroke: #6060eb"/>
     <use xlink:href="#m84db5be355" x="421.839885" y="349.25566" style="fill: #6060eb; stroke: #6060eb"/>
     <use xlink:href="#m84db5be355" x="427.211813" y="349.25566" style="fill: #6060eb; stroke: #6060eb"/>
     <use xlink:href="#m84db5be355" x="432.583741" y="349.25566" style="fill: #6060eb; stroke: #6060eb"/>
     <use xlink:href="#m84db5be355" x="437.955669" y="349.25566" style="fill: #6060eb; stroke: #6060eb"/>
     <use xlink:href="#m84db5be355" x="443.327597" y="349.25566" style="fill: #6060eb; stroke: #6060eb"/>
     <use xlink:href="#m84db5be355" x="448.699525" y="349.25566" style="fill: #6060eb; stroke: #6060eb"/>
     <use xlink:href="#m84db5be355" x="454.071454" y="349.25566" style="fill: #6060eb; stroke: #6060eb"/>
     <use xlink:href="#m84db5be355" x="464.81531" y="349.25566" style="fill: #6060eb; stroke: #6060eb"/>
     <use xlink:href="#m84db5be355" x="470.187238" y="349.25566" style="fill: #6060eb; stroke: #6060eb"/>
     <use xlink:href="#m84db5be355" x="475.559166" y="349.25566" style="fill: #6060eb; stroke: #6060eb"/>
     <use xlink:href="#m84db5be355" x="480.931094" y="349.25566" style="fill: #6060eb; stroke: #6060eb"/>
     <use xlink:href="#m84db5be355" x="486.303022" y="349.25566" style="fill: #6060eb; stroke: #6060eb"/>
     <use xlink:href="#m84db5be355" x="491.67495" y="349.25566" style="fill: #6060eb; stroke: #6060eb"/>
     <use xlink:href="#m84db5be355" x="497.046878" y="349.25566" style="fill: #6060eb; stroke: #6060eb"/>
     <use xlink:href="#m84db5be355" x="502.418806" y="349.25566" style="fill: #6060eb; stroke: #6060eb"/>
     <use xlink:href="#m84db5be355" x="507.790734" y="349.25566" style="fill: #6060eb; stroke: #6060eb"/>
     <use xlink:href="#m84db5be355" x="513.162662" y="349.25566" style="fill: #6060eb; stroke: #6060eb"/>
     <use xlink:href="#m84db5be355" x="518.53459" y="349.25566" style="fill: #6060eb; stroke: #6060eb"/>
     <use xlink:href="#m84db5be355" x="523.906518" y="349.25566" style="fill: #6060eb; stroke: #6060eb"/>
     <use xlink:href="#m84db5be355" x="529.278447" y="349.25566" style="fill: #6060eb; stroke: #6060eb"/>
     <use xlink:href="#m84db5be355" x="534.650375" y="349.25566" style="fill: #6060eb; stroke: #6060eb"/>
     <use xlink:href="#m84db5be355" x="540.022303" y="349.25566" style="fill: #6060eb; stroke: #6060eb"/>
     <use xlink:href="#m84db5be355" x="545.394231" y="349.25566" style="fill: #6060eb; stroke: #6060eb"/>
     <use xlink:href="#m84db5be355" x="550.766159" y="349.25566" style="fill: #6060eb; stroke: #6060eb"/>
     <use xlink:href="#m84db5be355" x="556.138087" y="349.25566" style="fill: #6060eb; stroke: #6060eb"/>
     <use xlink:href="#m84db5be355" x="561.510015" y="349.25566" style="fill: #6060eb; stroke: #6060eb"/>
     <use xlink:href="#m84db5be355" x="566.881943" y="349.25566" style="fill: #6060eb; stroke: #6060eb"/>
     <use xlink:href="#m84db5be355" x="572.253871" y="349.25566" style="fill: #6060eb; stroke: #6060eb"/>
     <use xlink:href="#m84db5be355" x="577.625799" y="349.25566" style="fill: #6060eb; stroke: #6060eb"/>
     <use xlink:href="#m84db5be355" x="582.997727" y="349.25566" style="fill: #6060eb; stroke: #6060eb"/>
    </g>
   </g>
   <g id="PolyCollection_3">
    <defs>
     <path id="ma662da5e38" d="M 94.152273 -96.753362 
L 94.152273 -84.256443 
L 99.524201 -84.976678 
L 104.896129 -86.835144 
L 110.268057 -84.282836 
L 115.639985 -80.703006 
L 121.011913 -81.857673 
L 126.383841 -90.893208 
L 131.755769 -86.741861 
L 137.127697 -88.904493 
L 142.499625 -78.638576 
L 147.871553 -73.434863 
L 153.243482 -70.395455 
L 158.61541 -81.382966 
L 163.987338 -76.132028 
L 169.359266 -72.624136 
L 174.731194 -112.178127 
L 180.103122 -153.410578 
L 185.47505 -172.966454 
L 190.846978 -195.677675 
L 196.218906 -217.998637 
L 201.590834 -232.695268 
L 206.962762 -241.416847 
L 212.33469 -250.625601 
L 217.706618 -261.096986 
L 223.078546 -268.216219 
L 228.450475 -275.690629 
L 233.822403 -283.444734 
L 239.194331 -280.290144 
L 244.566259 -279.714498 
L 249.938187 -287.830151 
L 255.310115 -294.114558 
L 260.682043 -297.584042 
L 266.053971 -301.936344 
L 271.425899 -306.424661 
L 276.797827 -304.184232 
L 282.169755 -313.338805 
L 287.541683 -315.714388 
L 292.913611 -315.83851 
L 298.285539 -319.356599 
L 303.657468 -316.200869 
L 309.029396 -316.933071 
L 314.401324 -317.776246 
L 319.773252 -313.962393 
L 325.14518 -312.622289 
L 330.517108 -314.696705 
L 335.889036 -318.953315 
L 341.260964 -316.948206 
L 346.632892 -316.572236 
L 352.00482 -317.1203 
L 357.376748 -312.950729 
L 362.748676 -314.367724 
L 368.120604 -318.934023 
L 373.492532 -321.140825 
L 378.864461 -316.681634 
L 384.236389 -314.232504 
L 389.608317 -311.673752 
L 394.980245 -318.385125 
L 400.352173 -314.058879 
L 405.724101 -318.647674 
L 411.096029 -317.483054 
L 416.467957 -317.670336 
L 421.839885 -311.727235 
L 427.211813 -306.323706 
L 432.583741 -308.488495 
L 437.955669 -304.374417 
L 443.327597 -306.609593 
L 448.699525 -307.452537 
L 454.071454 -305.271121 
L 459.443382 -304.036272 
L 464.81531 -301.525971 
L 470.187238 -303.919762 
L 475.559166 -304.346266 
L 480.931094 -305.845423 
L 486.303022 -312.420048 
L 491.67495 -314.177903 
L 497.046878 -317.200963 
L 502.418806 -318.824847 
L 507.790734 -314.518764 
L 513.162662 -311.125299 
L 518.53459 -306.610975 
L 523.906518 -303.688737 
L 529.278447 -304.545283 
L 534.650375 -314.036908 
L 540.022303 -308.838902 
L 545.394231 -308.053547 
L 550.766159 -308.058497 
L 556.138087 -308.881393 
L 561.510015 -306.272603 
L 566.881943 -310.530423 
L 572.253871 -308.867559 
L 577.625799 -308.924421 
L 582.997727 -306.847349 
L 582.997727 -380.515484 
L 582.997727 -380.515484 
L 577.625799 -382.19321 
L 572.253871 -382.559121 
L 566.881943 -383.711616 
L 561.510015 -379.27563 
L 556.138087 -381.795033 
L 550.766159 -380.625796 
L 545.394231 -380.012123 
L 540.022303 -380.833814 
L 534.650375 -386.22409 
L 529.278447 -376.968828 
L 523.906518 -376.225075 
L 518.53459 -378.277167 
L 513.162662 -382.169377 
L 507.790734 -385.336768 
L 502.418806 -389.104545 
L 497.046878 -386.664953 
L 491.67495 -383.055217 
L 486.303022 -381.682921 
L 480.931094 -374.708653 
L 475.559166 -372.392235 
L 470.187238 -372.043438 
L 464.81531 -369.299516 
L 459.443382 -371.447223 
L 454.071454 -371.839844 
L 448.699525 -373.808603 
L 443.327597 -373.169116 
L 437.955669 -371.070331 
L 432.583741 -375.529362 
L 427.211813 -373.147047 
L 421.839885 -378.418379 
L 416.467957 -383.991427 
L 411.096029 -383.465209 
L 405.724101 -383.804686 
L 400.352173 -378.684843 
L 394.980245 -381.370949 
L 389.608317 -374.258642 
L 384.236389 -375.670363 
L 378.864461 -377.479234 
L 373.492532 -382.080693 
L 368.120604 -379.009771 
L 362.748676 -373.665093 
L 357.376748 -372.211002 
L 352.00482 -375.916626 
L 346.632892 -375.516094 
L 341.260964 -374.868636 
L 335.889036 -376.977887 
L 330.517108 -372.895416 
L 325.14518 -370.205172 
L 319.773252 -370.109341 
L 314.401324 -373.446882 
L 309.029396 -370.961902 
L 303.657468 -370.230125 
L 298.285539 -372.684457 
L 292.913611 -368.82327 
L 287.541683 -368.371324 
L 282.169755 -365.712695 
L 276.797827 -356.048045 
L 271.425899 -357.17871 
L 266.053971 -351.484271 
L 260.682043 -346.848059 
L 255.310115 -341.759139 
L 249.938187 -335.017168 
L 244.566259 -325.953498 
L 239.194331 -326.944796 
L 233.822403 -328.376585 
L 228.450475 -318.779454 
L 223.078546 -310.933924 
L 217.706618 -302.313667 
L 212.33469 -289.429982 
L 206.962762 -278.201678 
L 201.590834 -265.599552 
L 196.218906 -247.208828 
L 190.846978 -221.917564 
L 185.47505 -197.149482 
L 180.103122 -174.180885 
L 174.731194 -130.468389 
L 169.359266 -89.683555 
L 163.987338 -92.690662 
L 158.61541 -96.806298 
L 153.243482 -87.974955 
L 147.871553 -90.676292 
L 142.499625 -94.904173 
L 137.127697 -106.46826 
L 131.755769 -103.629653 
L 126.383841 -108.149493 
L 121.011913 -101.043093 
L 115.639985 -98.385485 
L 110.268057 -104.272067 
L 104.896129 -106.23997 
L 99.524201 -101.02492 
L 94.152273 -96.753362 
z
" style="stroke: #00008b; stroke-opacity: 0.1"/>
    </defs>
    <g clip-path="url(#pff9ff9739d)">
     <use xlink:href="#ma662da5e38" x="0" y="432" style="fill: #00008b; fill-opacity: 0.1; stroke: #00008b; stroke-opacity: 0.1"/>
    </g>
   </g>
   <g id="PolyCollection_4">
    <defs>
     <path id="me81015d473" d="M 94.152273 -93.969838 
L 94.152273 -91.155883 
L 99.524201 -92.089402 
L 104.896129 -92.973793 
L 110.268057 -94.128264 
L 115.639985 -93.88723 
L 121.011913 -94.590344 
L 126.383841 -96.263072 
L 131.755769 -98.448472 
L 137.127697 -100.090021 
L 142.499625 -102.298658 
L 147.871553 -105.944845 
L 153.243482 -107.380819 
L 158.61541 -111.615856 
L 163.987338 -111.480108 
L 169.359266 -113.626865 
L 174.731194 -117.717083 
L 180.103122 -119.321286 
L 185.47505 -119.176247 
L 190.846978 -120.504781 
L 196.218906 -120.887152 
L 201.590834 -121.972969 
L 206.962762 -121.751891 
L 212.33469 -122.550087 
L 217.706618 -121.396605 
L 223.078546 -119.734303 
L 228.450475 -118.861472 
L 233.822403 -119.005599 
L 239.194331 -119.109549 
L 244.566259 -118.580353 
L 249.938187 -118.856042 
L 255.310115 -119.402028 
L 260.682043 -120.207466 
L 266.053971 -120.744782 
L 271.425899 -119.589843 
L 276.797827 -119.344756 
L 282.169755 -118.692615 
L 287.541683 -117.840792 
L 292.913611 -117.518786 
L 298.285539 -117.264628 
L 303.657468 -116.477633 
L 309.029396 -117.270303 
L 314.401324 -116.980081 
L 319.773252 -115.934517 
L 325.14518 -116.075043 
L 330.517108 -115.296431 
L 335.889036 -115.067546 
L 341.260964 -113.701989 
L 346.632892 -113.780419 
L 352.00482 -113.840081 
L 357.376748 -113.612719 
L 362.748676 -114.110478 
L 368.120604 -112.973883 
L 373.492532 -113.672885 
L 378.864461 -111.637222 
L 384.236389 -110.94002 
L 389.608317 -110.641865 
L 394.980245 -109.452817 
L 400.352173 -109.353586 
L 405.724101 -109.936129 
L 411.096029 -110.737515 
L 416.467957 -109.800724 
L 421.839885 -107.872176 
L 427.211813 -106.84571 
L 432.583741 -105.880083 
L 437.955669 -104.233972 
L 443.327597 -102.513089 
L 448.699525 -101.35281 
L 454.071454 -100.314334 
L 459.443382 -99.28737 
L 464.81531 -97.934104 
L 470.187238 -97.981767 
L 475.559166 -97.586056 
L 480.931094 -96.866384 
L 486.303022 -97.098625 
L 491.67495 -97.700775 
L 497.046878 -97.941042 
L 502.418806 -97.339349 
L 507.790734 -97.823678 
L 513.162662 -95.88044 
L 518.53459 -95.358737 
L 523.906518 -94.396052 
L 529.278447 -94.700103 
L 534.650375 -94.851324 
L 540.022303 -95.759367 
L 545.394231 -96.01287 
L 550.766159 -95.90739 
L 556.138087 -95.765038 
L 561.510015 -95.225045 
L 566.881943 -94.734149 
L 572.253871 -92.531516 
L 577.625799 -92.579995 
L 582.997727 -93.516229 
L 582.997727 -96.773559 
L 582.997727 -96.773559 
L 577.625799 -95.844052 
L 572.253871 -95.664778 
L 566.881943 -97.834874 
L 561.510015 -98.349783 
L 556.138087 -99.024645 
L 550.766159 -99.052038 
L 545.394231 -99.046213 
L 540.022303 -98.937346 
L 534.650375 -98.101607 
L 529.278447 -97.964358 
L 523.906518 -97.701985 
L 518.53459 -98.595953 
L 513.162662 -99.067106 
L 507.790734 -101.055743 
L 502.418806 -100.756984 
L 497.046878 -101.474701 
L 491.67495 -101.328994 
L 486.303022 -100.765785 
L 480.931094 -100.466936 
L 475.559166 -100.945827 
L 470.187238 -101.257766 
L 464.81531 -101.31409 
L 459.443382 -102.489634 
L 454.071454 -103.366637 
L 448.699525 -104.45444 
L 443.327597 -105.548345 
L 437.955669 -107.3145 
L 432.583741 -108.966306 
L 427.211813 -109.900523 
L 421.839885 -111.010757 
L 416.467957 -113.017795 
L 411.096029 -114.112722 
L 405.724101 -113.346926 
L 400.352173 -112.763682 
L 394.980245 -112.72473 
L 389.608317 -113.948749 
L 384.236389 -114.406465 
L 378.864461 -115.123214 
L 373.492532 -117.136946 
L 368.120604 -116.386606 
L 362.748676 -117.604608 
L 357.376748 -116.974489 
L 352.00482 -117.159516 
L 346.632892 -116.995089 
L 341.260964 -116.86075 
L 335.889036 -118.654266 
L 330.517108 -118.942554 
L 325.14518 -119.66566 
L 319.773252 -119.462241 
L 314.401324 -120.385336 
L 309.029396 -120.494511 
L 303.657468 -119.680989 
L 298.285539 -120.660528 
L 292.913611 -120.967458 
L 287.541683 -121.236456 
L 282.169755 -122.181984 
L 276.797827 -122.57132 
L 271.425899 -122.685421 
L 266.053971 -123.885546 
L 260.682043 -123.323566 
L 255.310115 -122.366021 
L 249.938187 -122.066334 
L 244.566259 -121.915045 
L 239.194331 -122.665509 
L 233.822403 -122.446145 
L 228.450475 -122.125434 
L 223.078546 -123.311835 
L 217.706618 -125.025552 
L 212.33469 -126.171969 
L 206.962762 -125.409816 
L 201.590834 -125.725664 
L 196.218906 -124.704496 
L 190.846978 -124.676087 
L 185.47505 -123.519482 
L 180.103122 -124.196698 
L 174.731194 -122.572316 
L 169.359266 -118.836959 
L 163.987338 -116.193624 
L 158.61541 -116.44378 
L 153.243482 -112.123847 
L 147.871553 -110.373893 
L 142.499625 -106.667076 
L 137.127697 -104.086189 
L 131.755769 -102.664416 
L 126.383841 -100.233256 
L 121.011913 -98.518305 
L 115.639985 -98.185766 
L 110.268057 -97.968635 
L 104.896129 -96.469126 
L 99.524201 -95.470711 
L 94.152273 -93.969838 
z
" style="stroke: #00008b; stroke-opacity: 0.1"/>
    </defs>
    <g clip-path="url(#pff9ff9739d)">
     <use xlink:href="#me81015d473" x="0" y="432" style="fill: #00008b; fill-opacity: 0.1; stroke: #00008b; stroke-opacity: 0.1"/>
    </g>
   </g>
   <g id="PathCollection_2">
    <defs>
     <path id="mf22a68beb1" d="M 0 -3 
L -0.673542 -0.927051 
L -2.85317 -0.927051 
L -1.089814 0.354102 
L -1.763356 2.427051 
L -0 1.145898 
L 1.763356 2.427051 
L 1.089814 0.354102 
L 2.85317 -0.927051 
L 0.673542 -0.927051 
z
" style="stroke: #00008b"/>
    </defs>
    <g clip-path="url(#pff9ff9739d)">
     <use xlink:href="#mf22a68beb1" x="180.103122" y="357.494328" style="fill: #00008b; stroke: #00008b"/>
     <use xlink:href="#mf22a68beb1" x="185.47505" y="357.494328" style="fill: #00008b; stroke: #00008b"/>
     <use xlink:href="#mf22a68beb1" x="190.846978" y="357.494328" style="fill: #00008b; stroke: #00008b"/>
     <use xlink:href="#mf22a68beb1" x="196.218906" y="357.494328" style="fill: #00008b; stroke: #00008b"/>
     <use xlink:href="#mf22a68beb1" x="201.590834" y="357.494328" style="fill: #00008b; stroke: #00008b"/>
     <use xlink:href="#mf22a68beb1" x="206.962762" y="357.494328" style="fill: #00008b; stroke: #00008b"/>
     <use xlink:href="#mf22a68beb1" x="212.33469" y="357.494328" style="fill: #00008b; stroke: #00008b"/>
     <use xlink:href="#mf22a68beb1" x="217.706618" y="357.494328" style="fill: #00008b; stroke: #00008b"/>
     <use xlink:href="#mf22a68beb1" x="223.078546" y="357.494328" style="fill: #00008b; stroke: #00008b"/>
     <use xlink:href="#mf22a68beb1" x="228.450475" y="357.494328" style="fill: #00008b; stroke: #00008b"/>
     <use xlink:href="#mf22a68beb1" x="233.822403" y="357.494328" style="fill: #00008b; stroke: #00008b"/>
     <use xlink:href="#mf22a68beb1" x="239.194331" y="357.494328" style="fill: #00008b; stroke: #00008b"/>
     <use xlink:href="#mf22a68beb1" x="244.566259" y="357.494328" style="fill: #00008b; stroke: #00008b"/>
     <use xlink:href="#mf22a68beb1" x="249.938187" y="357.494328" style="fill: #00008b; stroke: #00008b"/>
     <use xlink:href="#mf22a68beb1" x="255.310115" y="357.494328" style="fill: #00008b; stroke: #00008b"/>
     <use xlink:href="#mf22a68beb1" x="260.682043" y="357.494328" style="fill: #00008b; stroke: #00008b"/>
     <use xlink:href="#mf22a68beb1" x="266.053971" y="357.494328" style="fill: #00008b; stroke: #00008b"/>
     <use xlink:href="#mf22a68beb1" x="271.425899" y="357.494328" style="fill: #00008b; stroke: #00008b"/>
     <use xlink:href="#mf22a68beb1" x="276.797827" y="357.494328" style="fill: #00008b; stroke: #00008b"/>
     <use xlink:href="#mf22a68beb1" x="282.169755" y="357.494328" style="fill: #00008b; stroke: #00008b"/>
     <use xlink:href="#mf22a68beb1" x="287.541683" y="357.494328" style="fill: #00008b; stroke: #00008b"/>
     <use xlink:href="#mf22a68beb1" x="292.913611" y="357.494328" style="fill: #00008b; stroke: #00008b"/>
     <use xlink:href="#mf22a68beb1" x="298.285539" y="357.494328" style="fill: #00008b; stroke: #00008b"/>
     <use xlink:href="#mf22a68beb1" x="303.657468" y="357.494328" style="fill: #00008b; stroke: #00008b"/>
     <use xlink:href="#mf22a68beb1" x="309.029396" y="357.494328" style="fill: #00008b; stroke: #00008b"/>
     <use xlink:href="#mf22a68beb1" x="314.401324" y="357.494328" style="fill: #00008b; stroke: #00008b"/>
     <use xlink:href="#mf22a68beb1" x="319.773252" y="357.494328" style="fill: #00008b; stroke: #00008b"/>
     <use xlink:href="#mf22a68beb1" x="325.14518" y="357.494328" style="fill: #00008b; stroke: #00008b"/>
     <use xlink:href="#mf22a68beb1" x="330.517108" y="357.494328" style="fill: #00008b; stroke: #00008b"/>
     <use xlink:href="#mf22a68beb1" x="335.889036" y="357.494328" style="fill: #00008b; stroke: #00008b"/>
     <use xlink:href="#mf22a68beb1" x="341.260964" y="357.494328" style="fill: #00008b; stroke: #00008b"/>
     <use xlink:href="#mf22a68beb1" x="346.632892" y="357.494328" style="fill: #00008b; stroke: #00008b"/>
     <use xlink:href="#mf22a68beb1" x="352.00482" y="357.494328" style="fill: #00008b; stroke: #00008b"/>
     <use xlink:href="#mf22a68beb1" x="357.376748" y="357.494328" style="fill: #00008b; stroke: #00008b"/>
     <use xlink:href="#mf22a68beb1" x="362.748676" y="357.494328" style="fill: #00008b; stroke: #00008b"/>
     <use xlink:href="#mf22a68beb1" x="368.120604" y="357.494328" style="fill: #00008b; stroke: #00008b"/>
     <use xlink:href="#mf22a68beb1" x="373.492532" y="357.494328" style="fill: #00008b; stroke: #00008b"/>
     <use xlink:href="#mf22a68beb1" x="378.864461" y="357.494328" style="fill: #00008b; stroke: #00008b"/>
     <use xlink:href="#mf22a68beb1" x="384.236389" y="357.494328" style="fill: #00008b; stroke: #00008b"/>
     <use xlink:href="#mf22a68beb1" x="389.608317" y="357.494328" style="fill: #00008b; stroke: #00008b"/>
     <use xlink:href="#mf22a68beb1" x="394.980245" y="357.494328" style="fill: #00008b; stroke: #00008b"/>
     <use xlink:href="#mf22a68beb1" x="400.352173" y="357.494328" style="fill: #00008b; stroke: #00008b"/>
     <use xlink:href="#mf22a68beb1" x="405.724101" y="357.494328" style="fill: #00008b; stroke: #00008b"/>
     <use xlink:href="#mf22a68beb1" x="411.096029" y="357.494328" style="fill: #00008b; stroke: #00008b"/>
     <use xlink:href="#mf22a68beb1" x="416.467957" y="357.494328" style="fill: #00008b; stroke: #00008b"/>
     <use xlink:href="#mf22a68beb1" x="421.839885" y="357.494328" style="fill: #00008b; stroke: #00008b"/>
     <use xlink:href="#mf22a68beb1" x="427.211813" y="357.494328" style="fill: #00008b; stroke: #00008b"/>
     <use xlink:href="#mf22a68beb1" x="432.583741" y="357.494328" style="fill: #00008b; stroke: #00008b"/>
     <use xlink:href="#mf22a68beb1" x="437.955669" y="357.494328" style="fill: #00008b; stroke: #00008b"/>
     <use xlink:href="#mf22a68beb1" x="443.327597" y="357.494328" style="fill: #00008b; stroke: #00008b"/>
     <use xlink:href="#mf22a68beb1" x="448.699525" y="357.494328" style="fill: #00008b; stroke: #00008b"/>
     <use xlink:href="#mf22a68beb1" x="454.071454" y="357.494328" style="fill: #00008b; stroke: #00008b"/>
     <use xlink:href="#mf22a68beb1" x="459.443382" y="357.494328" style="fill: #00008b; stroke: #00008b"/>
     <use xlink:href="#mf22a68beb1" x="464.81531" y="357.494328" style="fill: #00008b; stroke: #00008b"/>
     <use xlink:href="#mf22a68beb1" x="470.187238" y="357.494328" style="fill: #00008b; stroke: #00008b"/>
     <use xlink:href="#mf22a68beb1" x="475.559166" y="357.494328" style="fill: #00008b; stroke: #00008b"/>
     <use xlink:href="#mf22a68beb1" x="480.931094" y="357.494328" style="fill: #00008b; stroke: #00008b"/>
     <use xlink:href="#mf22a68beb1" x="486.303022" y="357.494328" style="fill: #00008b; stroke: #00008b"/>
     <use xlink:href="#mf22a68beb1" x="491.67495" y="357.494328" style="fill: #00008b; stroke: #00008b"/>
     <use xlink:href="#mf22a68beb1" x="497.046878" y="357.494328" style="fill: #00008b; stroke: #00008b"/>
     <use xlink:href="#mf22a68beb1" x="502.418806" y="357.494328" style="fill: #00008b; stroke: #00008b"/>
     <use xlink:href="#mf22a68beb1" x="507.790734" y="357.494328" style="fill: #00008b; stroke: #00008b"/>
     <use xlink:href="#mf22a68beb1" x="513.162662" y="357.494328" style="fill: #00008b; stroke: #00008b"/>
     <use xlink:href="#mf22a68beb1" x="518.53459" y="357.494328" style="fill: #00008b; stroke: #00008b"/>
     <use xlink:href="#mf22a68beb1" x="523.906518" y="357.494328" style="fill: #00008b; stroke: #00008b"/>
     <use xlink:href="#mf22a68beb1" x="529.278447" y="357.494328" style="fill: #00008b; stroke: #00008b"/>
     <use xlink:href="#mf22a68beb1" x="534.650375" y="357.494328" style="fill: #00008b; stroke: #00008b"/>
     <use xlink:href="#mf22a68beb1" x="540.022303" y="357.494328" style="fill: #00008b; stroke: #00008b"/>
     <use xlink:href="#mf22a68beb1" x="545.394231" y="357.494328" style="fill: #00008b; stroke: #00008b"/>
     <use xlink:href="#mf22a68beb1" x="550.766159" y="357.494328" style="fill: #00008b; stroke: #00008b"/>
     <use xlink:href="#mf22a68beb1" x="556.138087" y="357.494328" style="fill: #00008b; stroke: #00008b"/>
     <use xlink:href="#mf22a68beb1" x="561.510015" y="357.494328" style="fill: #00008b; stroke: #00008b"/>
     <use xlink:href="#mf22a68beb1" x="566.881943" y="357.494328" style="fill: #00008b; stroke: #00008b"/>
     <use xlink:href="#mf22a68beb1" x="572.253871" y="357.494328" style="fill: #00008b; stroke: #00008b"/>
     <use xlink:href="#mf22a68beb1" x="577.625799" y="357.494328" style="fill: #00008b; stroke: #00008b"/>
     <use xlink:href="#mf22a68beb1" x="582.997727" y="357.494328" style="fill: #00008b; stroke: #00008b"/>
    </g>
   </g>
   <g id="line2d_1">
    <path d="M 94.152273 336.269465 
L 99.524201 342.812577 
L 104.896129 339.173208 
L 110.268057 342.728027 
L 115.639985 342.945728 
L 121.011913 340.890999 
L 126.383841 340.657789 
L 131.755769 336.796635 
L 137.127697 339.435302 
L 142.499625 340.626798 
L 147.871553 344.464598 
L 153.243482 341.699512 
L 158.61541 342.336082 
L 163.987338 339.49913 
L 169.359266 344.805709 
L 174.731194 333.021514 
L 180.103122 325.472052 
L 185.47505 325.257497 
L 190.846978 320.793818 
L 196.218906 329.037144 
L 201.590834 323.490424 
L 206.962762 323.739692 
L 212.33469 326.488805 
L 217.706618 326.926484 
L 223.078546 321.464562 
L 228.450475 318.496363 
L 233.822403 314.399862 
L 239.194331 310.315375 
L 244.566259 318.369376 
L 249.938187 316.084468 
L 255.310115 321.406325 
L 260.682043 320.340906 
L 266.053971 317.059838 
L 271.425899 314.56649 
L 276.797827 315.993682 
L 282.169755 319.47349 
L 287.541683 323.584024 
L 292.913611 321.108174 
L 298.285539 315.534595 
L 303.657468 324.427636 
L 309.029396 322.748912 
L 314.401324 315.972286 
L 319.773252 312.933855 
L 325.14518 310.576197 
L 330.517108 312.673478 
L 335.889036 314.208487 
L 341.260964 312.818389 
L 346.632892 310.312958 
L 352.00482 302.589485 
L 357.376748 302.184887 
L 362.748676 306.190714 
L 368.120604 306.059859 
L 373.492532 301.994094 
L 378.864461 304.51412 
L 384.236389 305.138219 
L 389.608317 307.126185 
L 394.980245 306.490508 
L 400.352173 300.230008 
L 405.724101 298.090338 
L 411.096029 297.446068 
L 416.467957 290.729953 
L 421.839885 294.358666 
L 427.211813 298.260479 
L 432.583741 295.208026 
L 437.955669 304.292195 
L 443.327597 305.488072 
L 448.699525 276.858855 
L 454.071454 274.261885 
L 459.443382 306.092203 
L 464.81531 317.45631 
L 470.187238 305.367862 
L 475.559166 298.29374 
L 480.931094 297.334291 
L 486.303022 301.592632 
L 491.67495 306.8771 
L 497.046878 302.428242 
L 502.418806 301.48727 
L 507.790734 299.369708 
L 513.162662 294.316565 
L 518.53459 305.218657 
L 523.906518 303.24062 
L 529.278447 299.959267 
L 534.650375 300.76651 
L 540.022303 295.249587 
L 545.394231 301.722244 
L 550.766159 295.572996 
L 556.138087 294.314439 
L 561.510015 298.922382 
L 566.881943 297.579774 
L 572.253871 295.618675 
L 577.625799 294.524157 
L 582.997727 296.890152 
" clip-path="url(#pff9ff9739d)" style="fill: none; stroke: #6060eb; stroke-width: 2; stroke-linecap: round"/>
   </g>
   <g id="line2d_2">
    <path d="M 94.152273 342.617733 
L 99.524201 340.441883 
L 104.896129 340.934378 
L 110.268057 340.663962 
L 115.639985 341.494843 
L 121.011913 340.880917 
L 126.383841 340.355004 
L 131.755769 340.061173 
L 137.127697 339.998985 
L 142.499625 340.586296 
L 147.871553 340.380803 
L 153.243482 340.463214 
L 158.61541 340.292172 
L 163.987338 340.879576 
L 169.359266 340.738067 
L 174.731194 331.560898 
L 180.103122 332.132467 
L 185.47505 334.027062 
L 190.846978 331.433894 
L 196.218906 332.893563 
L 201.590834 332.906373 
L 206.962762 330.390587 
L 212.33469 328.794994 
L 217.706618 327.475687 
L 223.078546 328.829551 
L 228.450475 329.34302 
L 233.822403 329.996246 
L 239.194331 331.543072 
L 244.566259 330.43139 
L 249.938187 331.494335 
L 255.310115 334.096101 
L 260.682043 335.404706 
L 266.053971 333.523313 
L 271.425899 331.721061 
L 276.797827 332.181302 
L 282.169755 333.56244 
L 287.541683 333.405848 
L 292.913611 331.819116 
L 298.285539 333.234043 
L 303.657468 333.687795 
L 309.029396 330.995269 
L 314.401324 329.44423 
L 319.773252 330.242112 
L 325.14518 332.153766 
L 330.517108 332.272456 
L 335.889036 334.330672 
L 341.260964 333.59846 
L 346.632892 334.889866 
L 352.00482 335.068575 
L 357.376748 332.881125 
L 362.748676 331.630988 
L 368.120604 330.069158 
L 373.492532 327.17428 
L 378.864461 323.49897 
L 384.236389 323.951361 
L 389.608317 326.404328 
L 394.980245 326.905246 
L 400.352173 325.990087 
L 405.724101 325.94653 
L 411.096029 327.330732 
L 416.467957 327.251888 
L 421.839885 326.32333 
L 427.211813 329.120014 
L 432.583741 333.016688 
L 437.955669 334.480507 
L 443.327597 337.691942 
L 448.699525 337.370777 
L 454.071454 339.779118 
L 459.443382 344.952985 
L 464.81531 342.299851 
L 470.187238 341.118326 
L 475.559166 341.578001 
L 480.931094 339.933142 
L 486.303022 339.433514 
L 491.67495 339.61702 
L 497.046878 341.617279 
L 502.418806 342.418606 
L 507.790734 341.555994 
L 513.162662 340.343484 
L 518.53459 339.899683 
L 523.906518 340.761354 
L 529.278447 342.406183 
L 534.650375 341.081035 
L 540.022303 339.84713 
L 545.394231 340.129122 
L 550.766159 341.136133 
L 556.138087 340.576956 
L 561.510015 340.894977 
L 566.881943 340.220557 
L 572.253871 338.724254 
L 577.625799 339.345065 
L 582.997727 340.333839 
" clip-path="url(#pff9ff9739d)" style="fill: none; stroke-dasharray: 7.4,3.2; stroke-dashoffset: 0; stroke: #6060eb; stroke-width: 2"/>
   </g>
   <g id="line2d_3">
    <path d="M 174.731194 377.54 
L 174.731194 26.96 
" clip-path="url(#pff9ff9739d)" style="fill: none; stroke-dasharray: 5.55,2.4; stroke-dashoffset: 0; stroke: #1a1a1a; stroke-width: 1.5"/>
   </g>
   <g id="line2d_4">
    <path d="M 443.327597 377.54 
L 443.327597 26.96 
" clip-path="url(#pff9ff9739d)" style="fill: none; stroke-dasharray: 5.55,2.4; stroke-dashoffset: 0; stroke: #1a1a1a; stroke-width: 1.5"/>
   </g>
   <g id="line2d_5">
    <path d="M 94.152273 341.495098 
L 99.524201 338.999201 
L 104.896129 335.462443 
L 110.268057 337.722548 
L 115.639985 342.455755 
L 121.011913 340.549617 
L 126.383841 332.478649 
L 131.755769 336.814243 
L 137.127697 334.313623 
L 142.499625 345.228625 
L 147.871553 349.944423 
L 153.243482 352.814795 
L 158.61541 342.905368 
L 163.987338 347.588655 
L 169.359266 350.846155 
L 174.731194 310.676742 
L 180.103122 268.204269 
L 185.47505 246.942032 
L 190.846978 223.20238 
L 196.218906 199.396268 
L 201.590834 182.85259 
L 206.962762 172.190738 
L 212.33469 161.972208 
L 217.706618 150.294674 
L 223.078546 142.424929 
L 228.450475 134.764958 
L 233.822403 126.08934 
L 239.194331 128.38253 
L 244.566259 129.166002 
L 249.938187 120.576341 
L 255.310115 114.063151 
L 260.682043 109.783949 
L 266.053971 105.289693 
L 271.425899 100.198315 
L 276.797827 101.883861 
L 282.169755 92.47425 
L 287.541683 89.957144 
L 292.913611 89.66911 
L 298.285539 85.979472 
L 303.657468 88.784503 
L 309.029396 88.052514 
L 314.401324 86.388436 
L 319.773252 89.964133 
L 325.14518 90.58627 
L 330.517108 88.20394 
L 335.889036 84.034399 
L 341.260964 86.091579 
L 346.632892 85.955835 
L 352.00482 85.481537 
L 357.376748 89.419135 
L 362.748676 87.983592 
L 368.120604 83.028103 
L 373.492532 80.389241 
L 378.864461 84.919566 
L 384.236389 87.048567 
L 389.608317 89.033803 
L 394.980245 82.121963 
L 400.352173 85.628139 
L 405.724101 80.77382 
L 411.096029 81.525869 
L 416.467957 81.169119 
L 421.839885 86.927193 
L 427.211813 92.264624 
L 432.583741 89.991072 
L 437.955669 94.277626 
L 443.327597 92.110646 
L 448.699525 91.36943 
L 454.071454 93.444518 
L 459.443382 94.258253 
L 464.81531 96.587256 
L 470.187238 94.0184 
L 475.559166 93.630749 
L 480.931094 91.722962 
L 486.303022 84.948516 
L 491.67495 83.38344 
L 497.046878 80.067042 
L 502.418806 78.035304 
L 507.790734 82.072234 
L 513.162662 85.352662 
L 518.53459 89.555929 
L 523.906518 92.043094 
L 529.278447 91.242945 
L 534.650375 81.869501 
L 540.022303 87.163642 
L 545.394231 87.967165 
L 550.766159 87.657853 
L 556.138087 86.661787 
L 561.510015 89.225884 
L 566.881943 84.878981 
L 572.253871 86.28666 
L 577.625799 86.441184 
L 582.997727 88.318584 
" clip-path="url(#pff9ff9739d)" style="fill: none; stroke: #00008b; stroke-width: 2; stroke-linecap: round"/>
   </g>
   <g id="line2d_6">
    <path d="M 94.152273 339.43714 
L 99.524201 338.219943 
L 104.896129 337.27854 
L 110.268057 335.951551 
L 115.639985 335.963502 
L 121.011913 335.445676 
L 126.383841 333.751836 
L 131.755769 331.443556 
L 137.127697 329.911895 
L 142.499625 327.517133 
L 147.871553 323.840631 
L 153.243482 322.247667 
L 158.61541 317.970182 
L 163.987338 318.163134 
L 169.359266 315.768088 
L 174.731194 311.855301 
L 180.103122 310.241008 
L 185.47505 310.652136 
L 190.846978 309.409566 
L 196.218906 309.204176 
L 201.590834 308.150684 
L 206.962762 308.419147 
L 212.33469 307.638972 
L 217.706618 308.788921 
L 223.078546 310.476931 
L 228.450475 311.506547 
L 233.822403 311.274128 
L 239.194331 311.112471 
L 244.566259 311.752301 
L 249.938187 311.538812 
L 255.310115 311.115975 
L 260.682043 310.234484 
L 266.053971 309.684836 
L 271.425899 310.862368 
L 276.797827 311.041962 
L 282.169755 311.562701 
L 287.541683 312.461376 
L 292.913611 312.756878 
L 298.285539 313.037422 
L 303.657468 313.920689 
L 309.029396 313.117593 
L 314.401324 313.317292 
L 319.773252 314.301621 
L 325.14518 314.129649 
L 330.517108 314.880508 
L 335.889036 315.139094 
L 341.260964 316.718631 
L 346.632892 316.612246 
L 352.00482 316.500201 
L 357.376748 316.706396 
L 362.748676 316.142457 
L 368.120604 317.319756 
L 373.492532 316.595085 
L 378.864461 318.619782 
L 384.236389 319.326758 
L 389.608317 319.704693 
L 394.980245 320.911226 
L 400.352173 320.941366 
L 405.724101 320.358472 
L 411.096029 319.574881 
L 416.467957 320.59074 
L 421.839885 322.558534 
L 427.211813 323.626884 
L 432.583741 324.576805 
L 437.955669 326.225764 
L 443.327597 327.969283 
L 448.699525 329.096375 
L 454.071454 330.159514 
L 459.443382 331.111498 
L 464.81531 332.375903 
L 470.187238 332.380233 
L 475.559166 332.734059 
L 480.931094 333.33334 
L 486.303022 333.067795 
L 491.67495 332.485115 
L 497.046878 332.292129 
L 502.418806 332.951833 
L 507.790734 332.56029 
L 513.162662 334.526227 
L 518.53459 335.022655 
L 523.906518 335.950981 
L 529.278447 335.66777 
L 534.650375 335.523534 
L 540.022303 334.651643 
L 545.394231 334.470459 
L 550.766159 334.520286 
L 556.138087 334.605158 
L 561.510015 335.212586 
L 566.881943 335.715489 
L 572.253871 337.901853 
L 577.625799 337.787977 
L 582.997727 336.855106 
" clip-path="url(#pff9ff9739d)" style="fill: none; stroke-dasharray: 7.4,3.2; stroke-dashoffset: 0; stroke: #00008b; stroke-width: 2"/>
   </g>
   <g id="line2d_7">
    <path d="M 174.731194 377.54 
L 174.731194 26.96 
" clip-path="url(#pff9ff9739d)" style="fill: none; stroke-dasharray: 5.55,2.4; stroke-dashoffset: 0; stroke: #1a1a1a; stroke-width: 1.5"/>
   </g>
   <g id="line2d_8">
    <path d="M 443.327597 377.54 
L 443.327597 26.96 
" clip-path="url(#pff9ff9739d)" style="fill: none; stroke-dasharray: 5.55,2.4; stroke-dashoffset: 0; stroke: #1a1a1a; stroke-width: 1.5"/>
   </g>
   <g id="patch_3">
    <path d="M 69.71 377.54 
L 69.71 26.96 
" style="fill: none; stroke: #cccccc; stroke-width: 1.5; stroke-linejoin: miter; stroke-linecap: square"/>
   </g>
   <g id="patch_4">
    <path d="M 69.71 377.54 
L 607.44 377.54 
" style="fill: none; stroke: #cccccc; stroke-width: 1.5; stroke-linejoin: miter; stroke-linecap: square"/>
   </g>
   <g id="text_19">
    <!-- Divergence Comparison: Original vs Shuffled -->
    <g style="fill: #262626" transform="translate(218.965 20.96) scale(0.12 -0.12)">
     <defs>
      <path id="ArialMT-43" d="M 3763 1606 
L 4369 1453 
Q 4178 706 3683 314 
Q 3188 -78 2472 -78 
Q 1731 -78 1267 223 
Q 803 525 561 1097 
Q 319 1669 319 2325 
Q 319 3041 592 3573 
Q 866 4106 1370 4382 
Q 1875 4659 2481 4659 
Q 3169 4659 3637 4309 
Q 4106 3959 4291 3325 
L 3694 3184 
Q 3534 3684 3231 3912 
Q 2928 4141 2469 4141 
Q 1941 4141 1586 3887 
Q 1231 3634 1087 3207 
Q 944 2781 944 2328 
Q 944 1744 1114 1308 
Q 1284 872 1643 656 
Q 2003 441 2422 441 
Q 2931 441 3284 734 
Q 3638 1028 3763 1606 
z
" transform="scale(0.015625)"/>
      <path id="ArialMT-6f" d="M 213 1659 
Q 213 2581 725 3025 
Q 1153 3394 1769 3394 
Q 2453 3394 2887 2945 
Q 3322 2497 3322 1706 
Q 3322 1066 3130 698 
Q 2938 331 2570 128 
Q 2203 -75 1769 -75 
Q 1072 -75 642 372 
Q 213 819 213 1659 
z
M 791 1659 
Q 791 1022 1069 705 
Q 1347 388 1769 388 
Q 2188 388 2466 706 
Q 2744 1025 2744 1678 
Q 2744 2294 2464 2611 
Q 2184 2928 1769 2928 
Q 1347 2928 1069 2612 
Q 791 2297 791 1659 
z
" transform="scale(0.015625)"/>
      <path id="ArialMT-70" d="M 422 -1272 
L 422 3319 
L 934 3319 
L 934 2888 
Q 1116 3141 1344 3267 
Q 1572 3394 1897 3394 
Q 2322 3394 2647 3175 
Q 2972 2956 3137 2557 
Q 3303 2159 3303 1684 
Q 3303 1175 3120 767 
Q 2938 359 2589 142 
Q 2241 -75 1856 -75 
Q 1575 -75 1351 44 
Q 1128 163 984 344 
L 984 -1272 
L 422 -1272 
z
M 931 1641 
Q 931 1000 1190 694 
Q 1450 388 1819 388 
Q 2194 388 2461 705 
Q 2728 1022 2728 1688 
Q 2728 2322 2467 2637 
Q 2206 2953 1844 2953 
Q 1484 2953 1207 2617 
Q 931 2281 931 1641 
z
" transform="scale(0.015625)"/>
      <path id="ArialMT-61" d="M 2588 409 
Q 2275 144 1986 34 
Q 1697 -75 1366 -75 
Q 819 -75 525 192 
Q 231 459 231 875 
Q 231 1119 342 1320 
Q 453 1522 633 1644 
Q 813 1766 1038 1828 
Q 1203 1872 1538 1913 
Q 2219 1994 2541 2106 
Q 2544 2222 2544 2253 
Q 2544 2597 2384 2738 
Q 2169 2928 1744 2928 
Q 1347 2928 1158 2789 
Q 969 2650 878 2297 
L 328 2372 
Q 403 2725 575 2942 
Q 747 3159 1072 3276 
Q 1397 3394 1825 3394 
Q 2250 3394 2515 3294 
Q 2781 3194 2906 3042 
Q 3031 2891 3081 2659 
Q 3109 2516 3109 2141 
L 3109 1391 
Q 3109 606 3145 398 
Q 3181 191 3288 0 
L 2700 0 
Q 2613 175 2588 409 
z
M 2541 1666 
Q 2234 1541 1622 1453 
Q 1275 1403 1131 1340 
Q 988 1278 909 1158 
Q 831 1038 831 891 
Q 831 666 1001 516 
Q 1172 366 1500 366 
Q 1825 366 2078 508 
Q 2331 650 2450 897 
Q 2541 1088 2541 1459 
L 2541 1666 
z
" transform="scale(0.015625)"/>
      <path id="ArialMT-3a" d="M 578 2678 
L 578 3319 
L 1219 3319 
L 1219 2678 
L 578 2678 
z
M 578 0 
L 578 641 
L 1219 641 
L 1219 0 
L 578 0 
z
" transform="scale(0.015625)"/>
      <path id="ArialMT-4f" d="M 309 2231 
Q 309 3372 921 4017 
Q 1534 4663 2503 4663 
Q 3138 4663 3647 4359 
Q 4156 4056 4423 3514 
Q 4691 2972 4691 2284 
Q 4691 1588 4409 1038 
Q 4128 488 3612 205 
Q 3097 -78 2500 -78 
Q 1853 -78 1343 234 
Q 834 547 571 1087 
Q 309 1628 309 2231 
z
M 934 2222 
Q 934 1394 1379 917 
Q 1825 441 2497 441 
Q 3181 441 3623 922 
Q 4066 1403 4066 2288 
Q 4066 2847 3877 3264 
Q 3688 3681 3323 3911 
Q 2959 4141 2506 4141 
Q 1863 4141 1398 3698 
Q 934 3256 934 2222 
z
" transform="scale(0.015625)"/>
      <path id="ArialMT-6c" d="M 409 0 
L 409 4581 
L 972 4581 
L 972 0 
L 409 0 
z
" transform="scale(0.015625)"/>
      <path id="ArialMT-53" d="M 288 1472 
L 859 1522 
Q 900 1178 1048 958 
Q 1197 738 1509 602 
Q 1822 466 2213 466 
Q 2559 466 2825 569 
Q 3091 672 3220 851 
Q 3350 1031 3350 1244 
Q 3350 1459 3225 1620 
Q 3100 1781 2813 1891 
Q 2628 1963 1997 2114 
Q 1366 2266 1113 2400 
Q 784 2572 623 2826 
Q 463 3081 463 3397 
Q 463 3744 659 4045 
Q 856 4347 1234 4503 
Q 1613 4659 2075 4659 
Q 2584 4659 2973 4495 
Q 3363 4331 3572 4012 
Q 3781 3694 3797 3291 
L 3216 3247 
Q 3169 3681 2898 3903 
Q 2628 4125 2100 4125 
Q 1550 4125 1298 3923 
Q 1047 3722 1047 3438 
Q 1047 3191 1225 3031 
Q 1400 2872 2139 2705 
Q 2878 2538 3153 2413 
Q 3553 2228 3743 1945 
Q 3934 1663 3934 1294 
Q 3934 928 3725 604 
Q 3516 281 3123 101 
Q 2731 -78 2241 -78 
Q 1619 -78 1198 103 
Q 778 284 539 648 
Q 300 1013 288 1472 
z
" transform="scale(0.015625)"/>
      <path id="ArialMT-68" d="M 422 0 
L 422 4581 
L 984 4581 
L 984 2938 
Q 1378 3394 1978 3394 
Q 2347 3394 2619 3248 
Q 2891 3103 3008 2847 
Q 3125 2591 3125 2103 
L 3125 0 
L 2563 0 
L 2563 2103 
Q 2563 2525 2380 2717 
Q 2197 2909 1863 2909 
Q 1613 2909 1392 2779 
Q 1172 2650 1078 2428 
Q 984 2206 984 1816 
L 984 0 
L 422 0 
z
" transform="scale(0.015625)"/>
      <path id="ArialMT-75" d="M 2597 0 
L 2597 488 
Q 2209 -75 1544 -75 
Q 1250 -75 995 37 
Q 741 150 617 320 
Q 494 491 444 738 
Q 409 903 409 1263 
L 409 3319 
L 972 3319 
L 972 1478 
Q 972 1038 1006 884 
Q 1059 663 1231 536 
Q 1403 409 1656 409 
Q 1909 409 2131 539 
Q 2353 669 2445 892 
Q 2538 1116 2538 1541 
L 2538 3319 
L 3100 3319 
L 3100 0 
L 2597 0 
z
" transform="scale(0.015625)"/>
      <path id="ArialMT-66" d="M 556 0 
L 556 2881 
L 59 2881 
L 59 3319 
L 556 3319 
L 556 3672 
Q 556 4006 616 4169 
Q 697 4388 901 4523 
Q 1106 4659 1475 4659 
Q 1713 4659 2000 4603 
L 1916 4113 
Q 1741 4144 1584 4144 
Q 1328 4144 1222 4034 
Q 1116 3925 1116 3625 
L 1116 3319 
L 1763 3319 
L 1763 2881 
L 1116 2881 
L 1116 0 
L 556 0 
z
" transform="scale(0.015625)"/>
      <path id="ArialMT-64" d="M 2575 0 
L 2575 419 
Q 2259 -75 1647 -75 
Q 1250 -75 917 144 
Q 584 363 401 755 
Q 219 1147 219 1656 
Q 219 2153 384 2558 
Q 550 2963 881 3178 
Q 1213 3394 1622 3394 
Q 1922 3394 2156 3267 
Q 2391 3141 2538 2938 
L 2538 4581 
L 3097 4581 
L 3097 0 
L 2575 0 
z
M 797 1656 
Q 797 1019 1065 703 
Q 1334 388 1700 388 
Q 2069 388 2326 689 
Q 2584 991 2584 1609 
Q 2584 2291 2321 2609 
Q 2059 2928 1675 2928 
Q 1300 2928 1048 2622 
Q 797 2316 797 1656 
z
" transform="scale(0.015625)"/>
     </defs>
     <use xlink:href="#ArialMT-44"/>
     <use xlink:href="#ArialMT-69" x="72.216797"/>
     <use xlink:href="#ArialMT-76" x="94.433594"/>
     <use xlink:href="#ArialMT-65" x="144.433594"/>
     <use xlink:href="#ArialMT-72" x="200.048828"/>
     <use xlink:href="#ArialMT-67" x="233.349609"/>
     <use xlink:href="#ArialMT-65" x="288.964844"/>
     <use xlink:href="#ArialMT-6e" x="344.580078"/>
     <use xlink:href="#ArialMT-63" x="400.195312"/>
     <use xlink:href="#ArialMT-65" x="450.195312"/>
     <use xlink:href="#ArialMT-20" x="505.810547"/>
     <use xlink:href="#ArialMT-43" x="533.59375"/>
     <use xlink:href="#ArialMT-6f" x="605.810547"/>
     <use xlink:href="#ArialMT-6d" x="661.425781"/>
     <use xlink:href="#ArialMT-70" x="744.726562"/>
     <use xlink:href="#ArialMT-61" x="800.341797"/>
     <use xlink:href="#ArialMT-72" x="855.957031"/>
     <use xlink:href="#ArialMT-69" x="889.257812"/>
     <use xlink:href="#ArialMT-73" x="911.474609"/>
     <use xlink:href="#ArialMT-6f" x="961.474609"/>
     <use xlink:href="#ArialMT-6e" x="1017.089844"/>
     <use xlink:href="#ArialMT-3a" x="1072.705078"/>
     <use xlink:href="#ArialMT-20" x="1100.488281"/>
     <use xlink:href="#ArialMT-4f" x="1128.271484"/>
     <use xlink:href="#ArialMT-72" x="1206.054688"/>
     <use xlink:href="#ArialMT-69" x="1239.355469"/>
     <use xlink:href="#ArialMT-67" x="1261.572266"/>
     <use xlink:href="#ArialMT-69" x="1317.1875"/>
     <use xlink:href="#ArialMT-6e" x="1339.404297"/>
     <use xlink:href="#ArialMT-61" x="1395.019531"/>
     <use xlink:href="#ArialMT-6c" x="1450.634766"/>
     <use xlink:href="#ArialMT-20" x="1472.851562"/>
     <use xlink:href="#ArialMT-76" x="1500.634766"/>
     <use xlink:href="#ArialMT-73" x="1550.634766"/>
     <use xlink:href="#ArialMT-20" x="1600.634766"/>
     <use xlink:href="#ArialMT-53" x="1628.417969"/>
     <use xlink:href="#ArialMT-68" x="1695.117188"/>
     <use xlink:href="#ArialMT-75" x="1750.732422"/>
     <use xlink:href="#ArialMT-66" x="1806.347656"/>
     <use xlink:href="#ArialMT-66" x="1832.380859"/>
     <use xlink:href="#ArialMT-6c" x="1860.164062"/>
     <use xlink:href="#ArialMT-65" x="1882.380859"/>
     <use xlink:href="#ArialMT-64" x="1937.996094"/>
    </g>
   </g>
   <g id="legend_1">
    <g id="patch_5">
     <path d="M 615.14 258.915469 
L 704.741875 258.915469 
Q 706.941875 258.915469 706.941875 256.715469 
L 706.941875 147.784531 
Q 706.941875 145.584531 704.741875 145.584531 
L 615.14 145.584531 
Q 612.94 145.584531 612.94 147.784531 
L 612.94 256.715469 
Q 612.94 258.915469 615.14 258.915469 
z
" style="fill: #ffffff; opacity: 0.8; stroke: #cccccc; stroke-linejoin: miter"/>
    </g>
    <g id="line2d_9">
     <path d="M 617.34 154.149062 
L 628.34 154.149062 
L 639.34 154.149062 
" style="fill: none; stroke: #6060eb; stroke-width: 2; stroke-linecap: round"/>
    </g>
    <g id="text_20">
     <!-- Original -->
     <g style="fill: #262626" transform="translate(648.14 157.999062) scale(0.11 -0.11)">
      <use xlink:href="#ArialMT-4f"/>
      <use xlink:href="#ArialMT-72" x="77.783203"/>
      <use xlink:href="#ArialMT-69" x="111.083984"/>
      <use xlink:href="#ArialMT-67" x="133.300781"/>
      <use xlink:href="#ArialMT-69" x="188.916016"/>
      <use xlink:href="#ArialMT-6e" x="211.132812"/>
      <use xlink:href="#ArialMT-61" x="266.748047"/>
      <use xlink:href="#ArialMT-6c" x="322.363281"/>
     </g>
    </g>
    <g id="line2d_10">
     <path d="M 617.34 169.97875 
L 628.34 169.97875 
L 639.34 169.97875 
" style="fill: none; stroke-dasharray: 7.4,3.2; stroke-dashoffset: 0; stroke: #6060eb; stroke-width: 2"/>
    </g>
    <g id="text_21">
     <!-- Original -->
     <g style="fill: #262626" transform="translate(648.14 173.82875) scale(0.11 -0.11)">
      <use xlink:href="#ArialMT-4f"/>
      <use xlink:href="#ArialMT-72" x="77.783203"/>
      <use xlink:href="#ArialMT-69" x="111.083984"/>
      <use xlink:href="#ArialMT-67" x="133.300781"/>
      <use xlink:href="#ArialMT-69" x="188.916016"/>
      <use xlink:href="#ArialMT-6e" x="211.132812"/>
      <use xlink:href="#ArialMT-61" x="266.748047"/>
      <use xlink:href="#ArialMT-6c" x="322.363281"/>
     </g>
    </g>
    <g id="PathCollection_3">
     <g>
      <use xlink:href="#m84db5be355" x="628.34" y="186.662656" style="fill: #6060eb; stroke: #6060eb"/>
     </g>
    </g>
    <g id="text_22">
     <!-- p &lt; 0.001 -->
     <g style="fill: #262626" transform="translate(648.14 189.550156) scale(0.11 -0.11)">
      <defs>
       <path id="ArialMT-3c" d="M 350 2003 
L 350 2528 
L 3384 3809 
L 3384 3250 
L 978 2263 
L 3384 1266 
L 3384 706 
L 350 2003 
z
" transform="scale(0.015625)"/>
      </defs>
      <use xlink:href="#ArialMT-70"/>
      <use xlink:href="#ArialMT-20" x="55.615234"/>
      <use xlink:href="#ArialMT-3c" x="83.398438"/>
      <use xlink:href="#ArialMT-20" x="141.796875"/>
      <use xlink:href="#ArialMT-30" x="169.580078"/>
      <use xlink:href="#ArialMT-2e" x="225.195312"/>
      <use xlink:href="#ArialMT-30" x="252.978516"/>
      <use xlink:href="#ArialMT-30" x="308.59375"/>
      <use xlink:href="#ArialMT-31" x="364.208984"/>
     </g>
    </g>
    <g id="line2d_11">
     <path d="M 617.34 201.26 
L 628.34 201.26 
L 639.34 201.26 
" style="fill: none; stroke-dasharray: 5.55,2.4; stroke-dashoffset: 0; stroke: #1a1a1a; stroke-width: 1.5"/>
    </g>
    <g id="text_23">
     <!-- Stim Onset -->
     <g style="fill: #262626" transform="translate(648.14 205.11) scale(0.11 -0.11)">
      <defs>
       <path id="ArialMT-74" d="M 1650 503 
L 1731 6 
Q 1494 -44 1306 -44 
Q 1000 -44 831 53 
Q 663 150 594 308 
Q 525 466 525 972 
L 525 2881 
L 113 2881 
L 113 3319 
L 525 3319 
L 525 4141 
L 1084 4478 
L 1084 3319 
L 1650 3319 
L 1650 2881 
L 1084 2881 
L 1084 941 
Q 1084 700 1114 631 
Q 1144 563 1211 522 
Q 1278 481 1403 481 
Q 1497 481 1650 503 
z
" transform="scale(0.015625)"/>
      </defs>
      <use xlink:href="#ArialMT-53"/>
      <use xlink:href="#ArialMT-74" x="66.699219"/>
      <use xlink:href="#ArialMT-69" x="94.482422"/>
      <use xlink:href="#ArialMT-6d" x="116.699219"/>
      <use xlink:href="#ArialMT-20" x="200"/>
      <use xlink:href="#ArialMT-4f" x="227.783203"/>
      <use xlink:href="#ArialMT-6e" x="305.566406"/>
      <use xlink:href="#ArialMT-73" x="361.181641"/>
      <use xlink:href="#ArialMT-65" x="411.181641"/>
      <use xlink:href="#ArialMT-74" x="466.796875"/>
     </g>
    </g>
    <g id="line2d_12">
     <path d="M 617.34 216.819844 
L 628.34 216.819844 
L 639.34 216.819844 
" style="fill: none; stroke-dasharray: 5.55,2.4; stroke-dashoffset: 0; stroke: #1a1a1a; stroke-width: 1.5"/>
    </g>
    <g id="text_24">
     <!-- Stim End -->
     <g style="fill: #262626" transform="translate(648.14 220.669844) scale(0.11 -0.11)">
      <defs>
       <path id="ArialMT-45" d="M 506 0 
L 506 4581 
L 3819 4581 
L 3819 4041 
L 1113 4041 
L 1113 2638 
L 3647 2638 
L 3647 2100 
L 1113 2100 
L 1113 541 
L 3925 541 
L 3925 0 
L 506 0 
z
" transform="scale(0.015625)"/>
      </defs>
      <use xlink:href="#ArialMT-53"/>
      <use xlink:href="#ArialMT-74" x="66.699219"/>
      <use xlink:href="#ArialMT-69" x="94.482422"/>
      <use xlink:href="#ArialMT-6d" x="116.699219"/>
      <use xlink:href="#ArialMT-20" x="200"/>
      <use xlink:href="#ArialMT-45" x="227.783203"/>
      <use xlink:href="#ArialMT-6e" x="294.482422"/>
      <use xlink:href="#ArialMT-64" x="350.097656"/>
     </g>
    </g>
    <g id="line2d_13">
     <path d="M 617.34 232.520625 
L 628.34 232.520625 
L 639.34 232.520625 
" style="fill: none; stroke: #00008b; stroke-width: 2; stroke-linecap: round"/>
    </g>
    <g id="text_25">
     <!-- Original -->
     <g style="fill: #262626" transform="translate(648.14 236.370625) scale(0.11 -0.11)">
      <use xlink:href="#ArialMT-4f"/>
      <use xlink:href="#ArialMT-72" x="77.783203"/>
      <use xlink:href="#ArialMT-69" x="111.083984"/>
      <use xlink:href="#ArialMT-67" x="133.300781"/>
      <use xlink:href="#ArialMT-69" x="188.916016"/>
      <use xlink:href="#ArialMT-6e" x="211.132812"/>
      <use xlink:href="#ArialMT-61" x="266.748047"/>
      <use xlink:href="#ArialMT-6c" x="322.363281"/>
     </g>
    </g>
    <g id="line2d_14">
     <path d="M 617.34 248.350313 
L 628.34 248.350313 
L 639.34 248.350313 
" style="fill: none; stroke-dasharray: 7.4,3.2; stroke-dashoffset: 0; stroke: #00008b; stroke-width: 2"/>
    </g>
    <g id="text_26">
     <!-- Original -->
     <g style="fill: #262626" transform="translate(648.14 252.200312) scale(0.11 -0.11)">
      <use xlink:href="#ArialMT-4f"/>
      <use xlink:href="#ArialMT-72" x="77.783203"/>
      <use xlink:href="#ArialMT-69" x="111.083984"/>
      <use xlink:href="#ArialMT-67" x="133.300781"/>
      <use xlink:href="#ArialMT-69" x="188.916016"/>
      <use xlink:href="#ArialMT-6e" x="211.132812"/>
      <use xlink:href="#ArialMT-61" x="266.748047"/>
      <use xlink:href="#ArialMT-6c" x="322.363281"/>
     </g>
    </g>
   </g>
  </g>
 </g>
 <defs>
  <clipPath id="pff9ff9739d">
   <rect x="69.71" y="26.96" width="537.73" height="350.58"/>
  </clipPath>
 </defs>
</svg>
