<?xml version="1.0" encoding="utf-8" standalone="no"?>
<!DOCTYPE svg PUBLIC "-//W3C//DTD SVG 1.1//EN"
  "http://www.w3.org/Graphics/SVG/1.1/DTD/svg11.dtd">
<svg xmlns:xlink="http://www.w3.org/1999/xlink" width="720pt" height="432pt" viewBox="0 0 720 432" xmlns="http://www.w3.org/2000/svg" version="1.1">
 <metadata>
  <rdf:RDF xmlns:dc="http://purl.org/dc/elements/1.1/" xmlns:cc="http://creativecommons.org/ns#" xmlns:rdf="http://www.w3.org/1999/02/22-rdf-syntax-ns#">
   <cc:Work>
    <dc:type rdf:resource="http://purl.org/dc/dcmitype/StillImage"/>
    <dc:date>2025-11-05T09:48:16.382265</dc:date>
    <dc:format>image/svg+xml</dc:format>
    <dc:creator>
     <cc:Agent>
      <dc:title>Matplotlib v3.9.4, https://matplotlib.org/</dc:title>
     </cc:Agent>
    </dc:creator>
   </cc:Work>
  </rdf:RDF>
 </metadata>
 <defs>
  <style type="text/css">*{stroke-linejoin: round; stroke-linecap: butt}</style>
 </defs>
 <g id="figure_1">
  <g id="patch_1">
   <path d="M 0 432 
L 720 432 
L 720 0 
L 0 0 
z
" style="fill: #ffffff"/>
  </g>
  <g id="axes_1">
   <g id="patch_2">
    <path d="M 60.335 378.54 
L 607.44 378.54 
L 607.44 26.96 
L 60.335 26.96 
L 60.335 378.54 
z
" style="fill: none"/>
   </g>
   <g id="matplotlib.axis_1">
    <g id="xtick_1">
     <g id="line2d_1">
      <defs>
       <path id="md32c0cc41d" d="M 0 0 
L 0 5 
" style="stroke: #262626; stroke-width: 1.5"/>
      </defs>
      <g>
       <use xlink:href="#md32c0cc41d" x="70.745032" y="378.54" style="fill: #262626; stroke: #262626; stroke-width: 1.5"/>
      </g>
     </g>
     <g id="text_1">
      <!-- −250 -->
      <g style="fill: #262626" transform="translate(53.852454 397.776719) scale(0.15 -0.15)">
       <defs>
        <path id="ArialMT-2212" d="M 3381 1997 
L 356 1997 
L 356 2522 
L 3381 2522 
L 3381 1997 
z
" transform="scale(0.015625)"/>
        <path id="ArialMT-32" d="M 3222 541 
L 3222 0 
L 194 0 
Q 188 203 259 391 
Q 375 700 629 1000 
Q 884 1300 1366 1694 
Q 2113 2306 2375 2664 
Q 2638 3022 2638 3341 
Q 2638 3675 2398 3904 
Q 2159 4134 1775 4134 
Q 1369 4134 1125 3890 
Q 881 3647 878 3216 
L 300 3275 
Q 359 3922 746 4261 
Q 1134 4600 1788 4600 
Q 2447 4600 2831 4234 
Q 3216 3869 3216 3328 
Q 3216 3053 3103 2787 
Q 2991 2522 2730 2228 
Q 2469 1934 1863 1422 
Q 1356 997 1212 845 
Q 1069 694 975 541 
L 3222 541 
z
" transform="scale(0.015625)"/>
        <path id="ArialMT-35" d="M 266 1200 
L 856 1250 
Q 922 819 1161 601 
Q 1400 384 1738 384 
Q 2144 384 2425 690 
Q 2706 997 2706 1503 
Q 2706 1984 2436 2262 
Q 2166 2541 1728 2541 
Q 1456 2541 1237 2417 
Q 1019 2294 894 2097 
L 366 2166 
L 809 4519 
L 3088 4519 
L 3088 3981 
L 1259 3981 
L 1013 2750 
Q 1425 3038 1878 3038 
Q 2478 3038 2890 2622 
Q 3303 2206 3303 1553 
Q 3303 931 2941 478 
Q 2500 -78 1738 -78 
Q 1113 -78 717 272 
Q 322 622 266 1200 
z
" transform="scale(0.015625)"/>
        <path id="ArialMT-30" d="M 266 2259 
Q 266 3072 433 3567 
Q 600 4063 929 4331 
Q 1259 4600 1759 4600 
Q 2128 4600 2406 4451 
Q 2684 4303 2865 4023 
Q 3047 3744 3150 3342 
Q 3253 2941 3253 2259 
Q 3253 1453 3087 958 
Q 2922 463 2592 192 
Q 2263 -78 1759 -78 
Q 1097 -78 719 397 
Q 266 969 266 2259 
z
M 844 2259 
Q 844 1131 1108 757 
Q 1372 384 1759 384 
Q 2147 384 2411 759 
Q 2675 1134 2675 2259 
Q 2675 3391 2411 3762 
Q 2147 4134 1753 4134 
Q 1366 4134 1134 3806 
Q 844 3388 844 2259 
z
" transform="scale(0.015625)"/>
       </defs>
       <use xlink:href="#ArialMT-2212"/>
       <use xlink:href="#ArialMT-32" x="58.398438"/>
       <use xlink:href="#ArialMT-35" x="114.013672"/>
       <use xlink:href="#ArialMT-30" x="169.628906"/>
      </g>
     </g>
    </g>
    <g id="xtick_2">
     <g id="line2d_2">
      <g>
       <use xlink:href="#md32c0cc41d" x="143.036919" y="378.54" style="fill: #262626; stroke: #262626; stroke-width: 1.5"/>
      </g>
     </g>
     <g id="text_2">
      <!-- 0 -->
      <g style="fill: #262626" transform="translate(138.866215 397.776719) scale(0.15 -0.15)">
       <use xlink:href="#ArialMT-30"/>
      </g>
     </g>
    </g>
    <g id="xtick_3">
     <g id="line2d_3">
      <g>
       <use xlink:href="#md32c0cc41d" x="215.328805" y="378.54" style="fill: #262626; stroke: #262626; stroke-width: 1.5"/>
      </g>
     </g>
     <g id="text_3">
      <!-- 250 -->
      <g style="fill: #262626" transform="translate(202.816696 397.776719) scale(0.15 -0.15)">
       <use xlink:href="#ArialMT-32"/>
       <use xlink:href="#ArialMT-35" x="55.615234"/>
       <use xlink:href="#ArialMT-30" x="111.230469"/>
      </g>
     </g>
    </g>
    <g id="xtick_4">
     <g id="line2d_4">
      <g>
       <use xlink:href="#md32c0cc41d" x="287.620692" y="378.54" style="fill: #262626; stroke: #262626; stroke-width: 1.5"/>
      </g>
     </g>
     <g id="text_4">
      <!-- 500 -->
      <g style="fill: #262626" transform="translate(275.108583 397.776719) scale(0.15 -0.15)">
       <use xlink:href="#ArialMT-35"/>
       <use xlink:href="#ArialMT-30" x="55.615234"/>
       <use xlink:href="#ArialMT-30" x="111.230469"/>
      </g>
     </g>
    </g>
    <g id="xtick_5">
     <g id="line2d_5">
      <g>
       <use xlink:href="#md32c0cc41d" x="359.912579" y="378.54" style="fill: #262626; stroke: #262626; stroke-width: 1.5"/>
      </g>
     </g>
     <g id="text_5">
      <!-- 750 -->
      <g style="fill: #262626" transform="translate(347.40047 397.776719) scale(0.15 -0.15)">
       <defs>
        <path id="ArialMT-37" d="M 303 3981 
L 303 4522 
L 3269 4522 
L 3269 4084 
Q 2831 3619 2401 2847 
Q 1972 2075 1738 1259 
Q 1569 684 1522 0 
L 944 0 
Q 953 541 1156 1306 
Q 1359 2072 1739 2783 
Q 2119 3494 2547 3981 
L 303 3981 
z
" transform="scale(0.015625)"/>
       </defs>
       <use xlink:href="#ArialMT-37"/>
       <use xlink:href="#ArialMT-35" x="55.615234"/>
       <use xlink:href="#ArialMT-30" x="111.230469"/>
      </g>
     </g>
    </g>
    <g id="xtick_6">
     <g id="line2d_6">
      <g>
       <use xlink:href="#md32c0cc41d" x="432.204466" y="378.54" style="fill: #262626; stroke: #262626; stroke-width: 1.5"/>
      </g>
     </g>
     <g id="text_6">
      <!-- 1000 -->
      <g style="fill: #262626" transform="translate(415.521654 397.776719) scale(0.15 -0.15)">
       <defs>
        <path id="ArialMT-31" d="M 2384 0 
L 1822 0 
L 1822 3584 
Q 1619 3391 1289 3197 
Q 959 3003 697 2906 
L 697 3450 
Q 1169 3672 1522 3987 
Q 1875 4303 2022 4600 
L 2384 4600 
L 2384 0 
z
" transform="scale(0.015625)"/>
       </defs>
       <use xlink:href="#ArialMT-31"/>
       <use xlink:href="#ArialMT-30" x="55.615234"/>
       <use xlink:href="#ArialMT-30" x="111.230469"/>
       <use xlink:href="#ArialMT-30" x="166.845703"/>
      </g>
     </g>
    </g>
    <g id="xtick_7">
     <g id="line2d_7">
      <g>
       <use xlink:href="#md32c0cc41d" x="504.496353" y="378.54" style="fill: #262626; stroke: #262626; stroke-width: 1.5"/>
      </g>
     </g>
     <g id="text_7">
      <!-- 1250 -->
      <g style="fill: #262626" transform="translate(487.813541 397.776719) scale(0.15 -0.15)">
       <use xlink:href="#ArialMT-31"/>
       <use xlink:href="#ArialMT-32" x="55.615234"/>
       <use xlink:href="#ArialMT-35" x="111.230469"/>
       <use xlink:href="#ArialMT-30" x="166.845703"/>
      </g>
     </g>
    </g>
    <g id="xtick_8">
     <g id="line2d_8">
      <g>
       <use xlink:href="#md32c0cc41d" x="576.78824" y="378.54" style="fill: #262626; stroke: #262626; stroke-width: 1.5"/>
      </g>
     </g>
     <g id="text_8">
      <!-- 1500 -->
      <g style="fill: #262626" transform="translate(560.105427 397.776719) scale(0.15 -0.15)">
       <use xlink:href="#ArialMT-31"/>
       <use xlink:href="#ArialMT-35" x="55.615234"/>
       <use xlink:href="#ArialMT-30" x="111.230469"/>
       <use xlink:href="#ArialMT-30" x="166.845703"/>
      </g>
     </g>
    </g>
    <g id="text_9">
     <!-- Time (s) -->
     <g style="fill: #262626" transform="translate(306.675391 415.6775) scale(0.15 -0.15)">
      <defs>
       <path id="ArialMT-54" d="M 1659 0 
L 1659 4041 
L 150 4041 
L 150 4581 
L 3781 4581 
L 3781 4041 
L 2266 4041 
L 2266 0 
L 1659 0 
z
" transform="scale(0.015625)"/>
       <path id="ArialMT-69" d="M 425 3934 
L 425 4581 
L 988 4581 
L 988 3934 
L 425 3934 
z
M 425 0 
L 425 3319 
L 988 3319 
L 988 0 
L 425 0 
z
" transform="scale(0.015625)"/>
       <path id="ArialMT-6d" d="M 422 0 
L 422 3319 
L 925 3319 
L 925 2853 
Q 1081 3097 1340 3245 
Q 1600 3394 1931 3394 
Q 2300 3394 2536 3241 
Q 2772 3088 2869 2813 
Q 3263 3394 3894 3394 
Q 4388 3394 4653 3120 
Q 4919 2847 4919 2278 
L 4919 0 
L 4359 0 
L 4359 2091 
Q 4359 2428 4304 2576 
Q 4250 2725 4106 2815 
Q 3963 2906 3769 2906 
Q 3419 2906 3187 2673 
Q 2956 2441 2956 1928 
L 2956 0 
L 2394 0 
L 2394 2156 
Q 2394 2531 2256 2718 
Q 2119 2906 1806 2906 
Q 1569 2906 1367 2781 
Q 1166 2656 1075 2415 
Q 984 2175 984 1722 
L 984 0 
L 422 0 
z
" transform="scale(0.015625)"/>
       <path id="ArialMT-65" d="M 2694 1069 
L 3275 997 
Q 3138 488 2766 206 
Q 2394 -75 1816 -75 
Q 1088 -75 661 373 
Q 234 822 234 1631 
Q 234 2469 665 2931 
Q 1097 3394 1784 3394 
Q 2450 3394 2872 2941 
Q 3294 2488 3294 1666 
Q 3294 1616 3291 1516 
L 816 1516 
Q 847 969 1125 678 
Q 1403 388 1819 388 
Q 2128 388 2347 550 
Q 2566 713 2694 1069 
z
M 847 1978 
L 2700 1978 
Q 2663 2397 2488 2606 
Q 2219 2931 1791 2931 
Q 1403 2931 1139 2672 
Q 875 2413 847 1978 
z
" transform="scale(0.015625)"/>
       <path id="ArialMT-20" transform="scale(0.015625)"/>
       <path id="ArialMT-28" d="M 1497 -1347 
Q 1031 -759 709 28 
Q 388 816 388 1659 
Q 388 2403 628 3084 
Q 909 3875 1497 4659 
L 1900 4659 
Q 1522 4009 1400 3731 
Q 1209 3300 1100 2831 
Q 966 2247 966 1656 
Q 966 153 1900 -1347 
L 1497 -1347 
z
" transform="scale(0.015625)"/>
       <path id="ArialMT-73" d="M 197 991 
L 753 1078 
Q 800 744 1014 566 
Q 1228 388 1613 388 
Q 2000 388 2187 545 
Q 2375 703 2375 916 
Q 2375 1106 2209 1216 
Q 2094 1291 1634 1406 
Q 1016 1563 777 1677 
Q 538 1791 414 1992 
Q 291 2194 291 2438 
Q 291 2659 392 2848 
Q 494 3038 669 3163 
Q 800 3259 1026 3326 
Q 1253 3394 1513 3394 
Q 1903 3394 2198 3281 
Q 2494 3169 2634 2976 
Q 2775 2784 2828 2463 
L 2278 2388 
Q 2241 2644 2061 2787 
Q 1881 2931 1553 2931 
Q 1166 2931 1000 2803 
Q 834 2675 834 2503 
Q 834 2394 903 2306 
Q 972 2216 1119 2156 
Q 1203 2125 1616 2013 
Q 2213 1853 2448 1751 
Q 2684 1650 2818 1456 
Q 2953 1263 2953 975 
Q 2953 694 2789 445 
Q 2625 197 2315 61 
Q 2006 -75 1616 -75 
Q 969 -75 630 194 
Q 291 463 197 991 
z
" transform="scale(0.015625)"/>
       <path id="ArialMT-29" d="M 791 -1347 
L 388 -1347 
Q 1322 153 1322 1656 
Q 1322 2244 1188 2822 
Q 1081 3291 891 3722 
Q 769 4003 388 4659 
L 791 4659 
Q 1378 3875 1659 3084 
Q 1900 2403 1900 1659 
Q 1900 816 1576 28 
Q 1253 -759 791 -1347 
z
" transform="scale(0.015625)"/>
      </defs>
      <use xlink:href="#ArialMT-54"/>
      <use xlink:href="#ArialMT-69" x="57.333984"/>
      <use xlink:href="#ArialMT-6d" x="79.550781"/>
      <use xlink:href="#ArialMT-65" x="162.851562"/>
      <use xlink:href="#ArialMT-20" x="218.466797"/>
      <use xlink:href="#ArialMT-28" x="246.25"/>
      <use xlink:href="#ArialMT-73" x="279.550781"/>
      <use xlink:href="#ArialMT-29" x="329.550781"/>
     </g>
    </g>
   </g>
   <g id="matplotlib.axis_2">
    <g id="ytick_1">
     <g id="line2d_9">
      <defs>
       <path id="m07012f46de" d="M 0 0 
L -5 0 
" style="stroke: #262626; stroke-width: 1.5"/>
      </defs>
      <g>
       <use xlink:href="#m07012f46de" x="60.335" y="349.439426" style="fill: #262626; stroke: #262626; stroke-width: 1.5"/>
      </g>
     </g>
     <g id="text_10">
      <!-- 0.0 -->
      <g style="fill: #262626" transform="translate(30.985 354.807786) scale(0.15 -0.15)">
       <defs>
        <path id="ArialMT-2e" d="M 581 0 
L 581 641 
L 1222 641 
L 1222 0 
L 581 0 
z
" transform="scale(0.015625)"/>
       </defs>
       <use xlink:href="#ArialMT-30"/>
       <use xlink:href="#ArialMT-2e" x="55.615234"/>
       <use xlink:href="#ArialMT-30" x="83.398438"/>
      </g>
     </g>
    </g>
    <g id="ytick_2">
     <g id="line2d_10">
      <g>
       <use xlink:href="#m07012f46de" x="60.335" y="283.841103" style="fill: #262626; stroke: #262626; stroke-width: 1.5"/>
      </g>
     </g>
     <g id="text_11">
      <!-- 0.1 -->
      <g style="fill: #262626" transform="translate(30.985 289.209462) scale(0.15 -0.15)">
       <use xlink:href="#ArialMT-30"/>
       <use xlink:href="#ArialMT-2e" x="55.615234"/>
       <use xlink:href="#ArialMT-31" x="83.398438"/>
      </g>
     </g>
    </g>
    <g id="ytick_3">
     <g id="line2d_11">
      <g>
       <use xlink:href="#m07012f46de" x="60.335" y="218.24278" style="fill: #262626; stroke: #262626; stroke-width: 1.5"/>
      </g>
     </g>
     <g id="text_12">
      <!-- 0.2 -->
      <g style="fill: #262626" transform="translate(30.985 223.611139) scale(0.15 -0.15)">
       <use xlink:href="#ArialMT-30"/>
       <use xlink:href="#ArialMT-2e" x="55.615234"/>
       <use xlink:href="#ArialMT-32" x="83.398438"/>
      </g>
     </g>
    </g>
    <g id="ytick_4">
     <g id="line2d_12">
      <g>
       <use xlink:href="#m07012f46de" x="60.335" y="152.644456" style="fill: #262626; stroke: #262626; stroke-width: 1.5"/>
      </g>
     </g>
     <g id="text_13">
      <!-- 0.3 -->
      <g style="fill: #262626" transform="translate(30.985 158.012816) scale(0.15 -0.15)">
       <defs>
        <path id="ArialMT-33" d="M 269 1209 
L 831 1284 
Q 928 806 1161 595 
Q 1394 384 1728 384 
Q 2125 384 2398 659 
Q 2672 934 2672 1341 
Q 2672 1728 2419 1979 
Q 2166 2231 1775 2231 
Q 1616 2231 1378 2169 
L 1441 2663 
Q 1497 2656 1531 2656 
Q 1891 2656 2178 2843 
Q 2466 3031 2466 3422 
Q 2466 3731 2256 3934 
Q 2047 4138 1716 4138 
Q 1388 4138 1169 3931 
Q 950 3725 888 3313 
L 325 3413 
Q 428 3978 793 4289 
Q 1159 4600 1703 4600 
Q 2078 4600 2393 4439 
Q 2709 4278 2876 4000 
Q 3044 3722 3044 3409 
Q 3044 3113 2884 2869 
Q 2725 2625 2413 2481 
Q 2819 2388 3044 2092 
Q 3269 1797 3269 1353 
Q 3269 753 2831 336 
Q 2394 -81 1725 -81 
Q 1122 -81 723 278 
Q 325 638 269 1209 
z
" transform="scale(0.015625)"/>
       </defs>
       <use xlink:href="#ArialMT-30"/>
       <use xlink:href="#ArialMT-2e" x="55.615234"/>
       <use xlink:href="#ArialMT-33" x="83.398438"/>
      </g>
     </g>
    </g>
    <g id="ytick_5">
     <g id="line2d_13">
      <g>
       <use xlink:href="#m07012f46de" x="60.335" y="87.046133" style="fill: #262626; stroke: #262626; stroke-width: 1.5"/>
      </g>
     </g>
     <g id="text_14">
      <!-- 0.4 -->
      <g style="fill: #262626" transform="translate(30.985 92.414492) scale(0.15 -0.15)">
       <defs>
        <path id="ArialMT-34" d="M 2069 0 
L 2069 1097 
L 81 1097 
L 81 1613 
L 2172 4581 
L 2631 4581 
L 2631 1613 
L 3250 1613 
L 3250 1097 
L 2631 1097 
L 2631 0 
L 2069 0 
z
M 2069 1613 
L 2069 3678 
L 634 1613 
L 2069 1613 
z
" transform="scale(0.015625)"/>
       </defs>
       <use xlink:href="#ArialMT-30"/>
       <use xlink:href="#ArialMT-2e" x="55.615234"/>
       <use xlink:href="#ArialMT-34" x="83.398438"/>
      </g>
     </g>
    </g>
    <g id="text_15">
     <!-- Divergence -->
     <g style="fill: #262626" transform="translate(23.827969 240.683594) rotate(-90) scale(0.15 -0.15)">
      <defs>
       <path id="ArialMT-44" d="M 494 0 
L 494 4581 
L 2072 4581 
Q 2606 4581 2888 4516 
Q 3281 4425 3559 4188 
Q 3922 3881 4101 3404 
Q 4281 2928 4281 2316 
Q 4281 1794 4159 1391 
Q 4038 988 3847 723 
Q 3656 459 3429 307 
Q 3203 156 2883 78 
Q 2563 0 2147 0 
L 494 0 
z
M 1100 541 
L 2078 541 
Q 2531 541 2789 625 
Q 3047 709 3200 863 
Q 3416 1078 3536 1442 
Q 3656 1806 3656 2325 
Q 3656 3044 3420 3430 
Q 3184 3816 2847 3947 
Q 2603 4041 2063 4041 
L 1100 4041 
L 1100 541 
z
" transform="scale(0.015625)"/>
       <path id="ArialMT-76" d="M 1344 0 
L 81 3319 
L 675 3319 
L 1388 1331 
Q 1503 1009 1600 663 
Q 1675 925 1809 1294 
L 2547 3319 
L 3125 3319 
L 1869 0 
L 1344 0 
z
" transform="scale(0.015625)"/>
       <path id="ArialMT-72" d="M 416 0 
L 416 3319 
L 922 3319 
L 922 2816 
Q 1116 3169 1280 3281 
Q 1444 3394 1641 3394 
Q 1925 3394 2219 3213 
L 2025 2691 
Q 1819 2813 1613 2813 
Q 1428 2813 1281 2702 
Q 1134 2591 1072 2394 
Q 978 2094 978 1738 
L 978 0 
L 416 0 
z
" transform="scale(0.015625)"/>
       <path id="ArialMT-67" d="M 319 -275 
L 866 -356 
Q 900 -609 1056 -725 
Q 1266 -881 1628 -881 
Q 2019 -881 2231 -725 
Q 2444 -569 2519 -288 
Q 2563 -116 2559 434 
Q 2191 0 1641 0 
Q 956 0 581 494 
Q 206 988 206 1678 
Q 206 2153 378 2554 
Q 550 2956 876 3175 
Q 1203 3394 1644 3394 
Q 2231 3394 2613 2919 
L 2613 3319 
L 3131 3319 
L 3131 450 
Q 3131 -325 2973 -648 
Q 2816 -972 2473 -1159 
Q 2131 -1347 1631 -1347 
Q 1038 -1347 672 -1080 
Q 306 -813 319 -275 
z
M 784 1719 
Q 784 1066 1043 766 
Q 1303 466 1694 466 
Q 2081 466 2343 764 
Q 2606 1063 2606 1700 
Q 2606 2309 2336 2618 
Q 2066 2928 1684 2928 
Q 1309 2928 1046 2623 
Q 784 2319 784 1719 
z
" transform="scale(0.015625)"/>
       <path id="ArialMT-6e" d="M 422 0 
L 422 3319 
L 928 3319 
L 928 2847 
Q 1294 3394 1984 3394 
Q 2284 3394 2536 3286 
Q 2788 3178 2913 3003 
Q 3038 2828 3088 2588 
Q 3119 2431 3119 2041 
L 3119 0 
L 2556 0 
L 2556 2019 
Q 2556 2363 2490 2533 
Q 2425 2703 2258 2804 
Q 2091 2906 1866 2906 
Q 1506 2906 1245 2678 
Q 984 2450 984 1813 
L 984 0 
L 422 0 
z
" transform="scale(0.015625)"/>
       <path id="ArialMT-63" d="M 2588 1216 
L 3141 1144 
Q 3050 572 2676 248 
Q 2303 -75 1759 -75 
Q 1078 -75 664 370 
Q 250 816 250 1647 
Q 250 2184 428 2587 
Q 606 2991 970 3192 
Q 1334 3394 1763 3394 
Q 2303 3394 2647 3120 
Q 2991 2847 3088 2344 
L 2541 2259 
Q 2463 2594 2264 2762 
Q 2066 2931 1784 2931 
Q 1359 2931 1093 2626 
Q 828 2322 828 1663 
Q 828 994 1084 691 
Q 1341 388 1753 388 
Q 2084 388 2306 591 
Q 2528 794 2588 1216 
z
" transform="scale(0.015625)"/>
      </defs>
      <use xlink:href="#ArialMT-44"/>
      <use xlink:href="#ArialMT-69" x="72.216797"/>
      <use xlink:href="#ArialMT-76" x="94.433594"/>
      <use xlink:href="#ArialMT-65" x="144.433594"/>
      <use xlink:href="#ArialMT-72" x="200.048828"/>
      <use xlink:href="#ArialMT-67" x="233.349609"/>
      <use xlink:href="#ArialMT-65" x="288.964844"/>
      <use xlink:href="#ArialMT-6e" x="344.580078"/>
      <use xlink:href="#ArialMT-63" x="400.195312"/>
      <use xlink:href="#ArialMT-65" x="450.195312"/>
     </g>
    </g>
   </g>
   <g id="PolyCollection_1">
    <defs>
     <path id="m71717489ee" d="M 85.203409 -104.001994 
L 85.203409 -86.538431 
L 90.98676 -80.143375 
L 96.770111 -82.176734 
L 102.553462 -82.269175 
L 108.336813 -79.818787 
L 114.120164 -79.51629 
L 119.903515 -80.784125 
L 125.686866 -82.307332 
L 131.470217 -80.65893 
L 137.253568 -81.753734 
L 143.036919 -90.480691 
L 148.82027 -85.809273 
L 154.603621 -79.82369 
L 160.386971 -81.842948 
L 166.170322 -83.294151 
L 171.953673 -81.718477 
L 177.737024 -82.595303 
L 183.520375 -80.822905 
L 189.303726 -84.548876 
L 195.087077 -86.206044 
L 200.870428 -90.904296 
L 206.653779 -89.098283 
L 212.43713 -83.793575 
L 218.220481 -84.032107 
L 224.003832 -80.172087 
L 229.787183 -78.09481 
L 235.570534 -85.128935 
L 241.353885 -84.191741 
L 247.137236 -81.006854 
L 252.920587 -83.002875 
L 258.703938 -89.664451 
L 264.487289 -95.60154 
L 270.27064 -94.375473 
L 276.05399 -93.350762 
L 281.837341 -88.204039 
L 287.620692 -88.16565 
L 293.404043 -89.477642 
L 299.187394 -88.494269 
L 304.970745 -90.366717 
L 310.754096 -85.378981 
L 316.537447 -89.938109 
L 322.320798 -88.991922 
L 328.104149 -91.57241 
L 333.8875 -97.773301 
L 339.670851 -100.435676 
L 345.454202 -104.237538 
L 351.237553 -103.061337 
L 357.020904 -106.71987 
L 362.804255 -103.439666 
L 368.587606 -106.438503 
L 374.370957 -107.415315 
L 380.154308 -108.824503 
L 385.937659 -109.246939 
L 391.72101 -116.223606 
L 397.50436 -112.714837 
L 403.287711 -99.238224 
L 409.071062 -96.08373 
L 414.854413 -104.420658 
L 420.637764 -116.280772 
L 426.421115 -118.605276 
L 432.204466 -110.05893 
L 437.987817 -108.244985 
L 443.771168 -97.000759 
L 449.554519 -91.257702 
L 455.33787 -80.327971 
L 461.121221 -95.069219 
L 466.904572 -109.253349 
L 472.687923 -109.533951 
L 478.471274 -109.531653 
L 484.254625 -111.863483 
L 490.037976 -108.32649 
L 495.821327 -107.572594 
L 501.604678 -113.446374 
L 507.388029 -114.596241 
L 513.171379 -115.085283 
L 518.95473 -114.283766 
L 524.738081 -117.513988 
L 530.521432 -118.016283 
L 536.304783 -116.71913 
L 542.088134 -123.716876 
L 547.871485 -120.447874 
L 553.654836 -118.151782 
L 559.438187 -119.868246 
L 565.221538 -122.022882 
L 571.004889 -122.008314 
L 576.78824 -125.789059 
L 582.571591 -124.613267 
L 582.571591 -143.925947 
L 582.571591 -143.925947 
L 576.78824 -144.622319 
L 571.004889 -139.774808 
L 565.221538 -139.892879 
L 559.438187 -137.747129 
L 553.654836 -135.878638 
L 547.871485 -138.137658 
L 542.088134 -141.233388 
L 536.304783 -133.189997 
L 530.521432 -134.165788 
L 524.738081 -134.102785 
L 518.95473 -130.793917 
L 513.171379 -131.021905 
L 507.388029 -129.719464 
L 501.604678 -127.49017 
L 495.821327 -120.870279 
L 490.037976 -122.008026 
L 484.254625 -127.626826 
L 478.471274 -125.544834 
L 472.687923 -124.061427 
L 466.904572 -122.170899 
L 461.121221 -106.358063 
L 455.33787 -94.629137 
L 449.554519 -112.093887 
L 443.771168 -116.561463 
L 437.987817 -119.245546 
L 432.204466 -116.402361 
L 426.421115 -126.372525 
L 420.637764 -124.282986 
L 414.854413 -112.95651 
L 409.071062 -104.75746 
L 403.287711 -108.040445 
L 397.50436 -120.302654 
L 391.72101 -123.355405 
L 385.937659 -116.4312 
L 380.154308 -116.391488 
L 374.370957 -115.547308 
L 368.587606 -114.697606 
L 362.804255 -111.572587 
L 357.020904 -114.115315 
L 351.237553 -110.760277 
L 345.454202 -112.079412 
L 339.670851 -107.779707 
L 333.8875 -105.928665 
L 328.104149 -99.201293 
L 322.320798 -96.765289 
L 316.537447 -97.317147 
L 310.754096 -93.174562 
L 304.970745 -97.949549 
L 299.187394 -95.286795 
L 293.404043 -96.062826 
L 287.620692 -94.654063 
L 281.837341 -95.389194 
L 276.05399 -100.705477 
L 270.27064 -101.885081 
L 264.487289 -102.69259 
L 258.703938 -96.17311 
L 252.920587 -89.91991 
L 247.137236 -87.955529 
L 241.353885 -90.733116 
L 235.570534 -91.33949 
L 229.787183 -85.164017 
L 224.003832 -87.940287 
L 218.220481 -91.480007 
L 212.43713 -91.474526 
L 206.653779 -96.545368 
L 200.870428 -98.167383 
L 195.087077 -93.560887 
L 189.303726 -91.235149 
L 183.520375 -87.29565 
L 177.737024 -88.940375 
L 171.953673 -87.474268 
L 166.170322 -89.214658 
L 160.386971 -87.646966 
L 154.603621 -86.810477 
L 148.82027 -93.288797 
L 143.036919 -98.382862 
L 137.253568 -86.290436 
L 131.470217 -85.932337 
L 125.686866 -87.129843 
L 119.903515 -84.556107 
L 114.120164 -82.980542 
L 108.336813 -83.417908 
L 102.553462 -85.5429 
L 96.770111 -84.757135 
L 90.98676 -82.573509 
L 85.203409 -104.001994 
z
" style="stroke: #6060eb; stroke-opacity: 0.1"/>
    </defs>
    <g clip-path="url(#pee8a542713)">
     <use xlink:href="#m71717489ee" x="0" y="432" style="fill: #6060eb; fill-opacity: 0.1; stroke: #6060eb; stroke-opacity: 0.1"/>
    </g>
   </g>
   <g id="PolyCollection_2">
    <defs>
     <path id="m18a2a56dae" d="M 85.203409 -81.932819 
L 85.203409 -78.966848 
L 90.98676 -81.794904 
L 96.770111 -81.884665 
L 102.553462 -81.816857 
L 108.336813 -81.931417 
L 114.120164 -82.884887 
L 119.903515 -81.448101 
L 125.686866 -82.875133 
L 131.470217 -82.634288 
L 137.253568 -82.606593 
L 143.036919 -87.886908 
L 148.82027 -87.249121 
L 154.603621 -88.525759 
L 160.386971 -88.737894 
L 166.170322 -88.678842 
L 171.953673 -90.172457 
L 177.737024 -91.11447 
L 183.520375 -91.574864 
L 189.303726 -89.874701 
L 195.087077 -90.348864 
L 200.870428 -90.20559 
L 206.653779 -88.482041 
L 212.43713 -88.594435 
L 218.220481 -89.303122 
L 224.003832 -90.25415 
L 229.787183 -91.613128 
L 235.570534 -92.579547 
L 241.353885 -94.06164 
L 247.137236 -92.297804 
L 252.920587 -92.512309 
L 258.703938 -92.041536 
L 264.487289 -90.720847 
L 270.27064 -88.62768 
L 276.05399 -90.041845 
L 281.837341 -91.094328 
L 287.620692 -91.905252 
L 293.404043 -92.34255 
L 299.187394 -90.996422 
L 304.970745 -90.951608 
L 310.754096 -90.763167 
L 316.537447 -90.223686 
L 322.320798 -89.771791 
L 328.104149 -89.871978 
L 333.8875 -89.502574 
L 339.670851 -89.400348 
L 345.454202 -89.899534 
L 351.237553 -89.4655 
L 357.020904 -89.127618 
L 362.804255 -88.643411 
L 368.587606 -87.356461 
L 374.370957 -88.554369 
L 380.154308 -88.903905 
L 385.937659 -89.544772 
L 391.72101 -89.797928 
L 397.50436 -90.149887 
L 403.287711 -89.313387 
L 409.071062 -89.677797 
L 414.854413 -90.906707 
L 420.637764 -89.72142 
L 426.421115 -88.129257 
L 432.204466 -85.081582 
L 437.987817 -86.221266 
L 443.771168 -86.182714 
L 449.554519 -83.507605 
L 455.33787 -83.268755 
L 461.121221 -84.347233 
L 466.904572 -85.252352 
L 472.687923 -85.252845 
L 478.471274 -84.191347 
L 484.254625 -83.898268 
L 490.037976 -84.109226 
L 495.821327 -83.675628 
L 501.604678 -83.756202 
L 507.388029 -84.490149 
L 513.171379 -83.990669 
L 518.95473 -84.354765 
L 524.738081 -83.096832 
L 530.521432 -84.425896 
L 536.304783 -84.932192 
L 542.088134 -84.732317 
L 547.871485 -83.565494 
L 553.654836 -82.832387 
L 559.438187 -84.371892 
L 565.221538 -83.751674 
L 571.004889 -83.99469 
L 576.78824 -83.67424 
L 582.571591 -84.047851 
L 582.571591 -84.863081 
L 582.571591 -84.863081 
L 576.78824 -84.521297 
L 571.004889 -84.844566 
L 565.221538 -84.607158 
L 559.438187 -85.225851 
L 553.654836 -83.632018 
L 547.871485 -84.340887 
L 542.088134 -85.563371 
L 536.304783 -86.06263 
L 530.521432 -85.373657 
L 524.738081 -84.01983 
L 518.95473 -85.284267 
L 513.171379 -84.808412 
L 507.388029 -85.368277 
L 501.604678 -84.716726 
L 495.821327 -84.551728 
L 490.037976 -84.961109 
L 484.254625 -84.970017 
L 478.471274 -85.064434 
L 472.687923 -86.218648 
L 466.904572 -86.279692 
L 461.121221 -85.375971 
L 455.33787 -84.322344 
L 449.554519 -84.717705 
L 443.771168 -88.288738 
L 437.987817 -87.671926 
L 432.204466 -86.061258 
L 426.421115 -89.666088 
L 420.637764 -91.422828 
L 414.854413 -92.572461 
L 409.071062 -91.314352 
L 403.287711 -90.930162 
L 397.50436 -91.878376 
L 391.72101 -91.538039 
L 385.937659 -91.208223 
L 380.154308 -90.609712 
L 374.370957 -90.221119 
L 368.587606 -89.013873 
L 362.804255 -90.382286 
L 357.020904 -90.739415 
L 351.237553 -91.063017 
L 345.454202 -93.634559 
L 339.670851 -90.986604 
L 333.8875 -91.78406 
L 328.104149 -91.466937 
L 322.320798 -91.318891 
L 316.537447 -91.742496 
L 310.754096 -92.42813 
L 304.970745 -92.524277 
L 299.187394 -92.654287 
L 293.404043 -94.259702 
L 287.620692 -93.761596 
L 281.837341 -92.913266 
L 276.05399 -91.624088 
L 270.27064 -90.280763 
L 264.487289 -92.389765 
L 258.703938 -93.736848 
L 252.920587 -94.296347 
L 247.137236 -94.092896 
L 241.353885 -96.116372 
L 235.570534 -94.350198 
L 229.787183 -93.277255 
L 224.003832 -91.754249 
L 218.220481 -91.11506 
L 212.43713 -90.55262 
L 206.653779 -90.32715 
L 200.870428 -92.038947 
L 195.087077 -92.300777 
L 189.303726 -91.739128 
L 183.520375 -93.495092 
L 177.737024 -93.26598 
L 171.953673 -92.559019 
L 166.170322 -90.492004 
L 160.386971 -90.743399 
L 154.603621 -90.733945 
L 148.82027 -89.486409 
L 143.036919 -90.966183 
L 137.253568 -83.641639 
L 131.470217 -83.572379 
L 125.686866 -83.739087 
L 119.903515 -82.489631 
L 114.120164 -83.652836 
L 108.336813 -82.731619 
L 102.553462 -82.63449 
L 96.770111 -82.580833 
L 90.98676 -82.42722 
L 85.203409 -81.932819 
z
" style="stroke: #6060eb; stroke-opacity: 0.1"/>
    </defs>
    <g clip-path="url(#pee8a542713)">
     <use xlink:href="#m18a2a56dae" x="0" y="432" style="fill: #6060eb; fill-opacity: 0.1; stroke: #6060eb; stroke-opacity: 0.1"/>
    </g>
   </g>
   <g id="PathCollection_1">
    <defs>
     <path id="mfdfc3708b7" d="M 0 -3 
L -0.673542 -0.927051 
L -2.85317 -0.927051 
L -1.089814 0.354102 
L -1.763356 2.427051 
L -0 1.145898 
L 1.763356 2.427051 
L 1.089814 0.354102 
L 2.85317 -0.927051 
L 0.673542 -0.927051 
z
" style="stroke: #6060eb"/>
    </defs>
    <g clip-path="url(#pee8a542713)">
     <use xlink:href="#mfdfc3708b7" x="339.670851" y="355.999259" style="fill: #6060eb; stroke: #6060eb"/>
     <use xlink:href="#mfdfc3708b7" x="345.454202" y="355.999259" style="fill: #6060eb; stroke: #6060eb"/>
     <use xlink:href="#mfdfc3708b7" x="351.237553" y="355.999259" style="fill: #6060eb; stroke: #6060eb"/>
     <use xlink:href="#mfdfc3708b7" x="357.020904" y="355.999259" style="fill: #6060eb; stroke: #6060eb"/>
     <use xlink:href="#mfdfc3708b7" x="362.804255" y="355.999259" style="fill: #6060eb; stroke: #6060eb"/>
     <use xlink:href="#mfdfc3708b7" x="368.587606" y="355.999259" style="fill: #6060eb; stroke: #6060eb"/>
     <use xlink:href="#mfdfc3708b7" x="374.370957" y="355.999259" style="fill: #6060eb; stroke: #6060eb"/>
     <use xlink:href="#mfdfc3708b7" x="380.154308" y="355.999259" style="fill: #6060eb; stroke: #6060eb"/>
     <use xlink:href="#mfdfc3708b7" x="385.937659" y="355.999259" style="fill: #6060eb; stroke: #6060eb"/>
     <use xlink:href="#mfdfc3708b7" x="391.72101" y="355.999259" style="fill: #6060eb; stroke: #6060eb"/>
     <use xlink:href="#mfdfc3708b7" x="397.50436" y="355.999259" style="fill: #6060eb; stroke: #6060eb"/>
     <use xlink:href="#mfdfc3708b7" x="414.854413" y="355.999259" style="fill: #6060eb; stroke: #6060eb"/>
     <use xlink:href="#mfdfc3708b7" x="420.637764" y="355.999259" style="fill: #6060eb; stroke: #6060eb"/>
     <use xlink:href="#mfdfc3708b7" x="426.421115" y="355.999259" style="fill: #6060eb; stroke: #6060eb"/>
     <use xlink:href="#mfdfc3708b7" x="432.204466" y="355.999259" style="fill: #6060eb; stroke: #6060eb"/>
     <use xlink:href="#mfdfc3708b7" x="437.987817" y="355.999259" style="fill: #6060eb; stroke: #6060eb"/>
     <use xlink:href="#mfdfc3708b7" x="466.904572" y="355.999259" style="fill: #6060eb; stroke: #6060eb"/>
     <use xlink:href="#mfdfc3708b7" x="472.687923" y="355.999259" style="fill: #6060eb; stroke: #6060eb"/>
     <use xlink:href="#mfdfc3708b7" x="478.471274" y="355.999259" style="fill: #6060eb; stroke: #6060eb"/>
     <use xlink:href="#mfdfc3708b7" x="484.254625" y="355.999259" style="fill: #6060eb; stroke: #6060eb"/>
     <use xlink:href="#mfdfc3708b7" x="490.037976" y="355.999259" style="fill: #6060eb; stroke: #6060eb"/>
     <use xlink:href="#mfdfc3708b7" x="495.821327" y="355.999259" style="fill: #6060eb; stroke: #6060eb"/>
     <use xlink:href="#mfdfc3708b7" x="501.604678" y="355.999259" style="fill: #6060eb; stroke: #6060eb"/>
     <use xlink:href="#mfdfc3708b7" x="507.388029" y="355.999259" style="fill: #6060eb; stroke: #6060eb"/>
     <use xlink:href="#mfdfc3708b7" x="513.171379" y="355.999259" style="fill: #6060eb; stroke: #6060eb"/>
     <use xlink:href="#mfdfc3708b7" x="518.95473" y="355.999259" style="fill: #6060eb; stroke: #6060eb"/>
     <use xlink:href="#mfdfc3708b7" x="524.738081" y="355.999259" style="fill: #6060eb; stroke: #6060eb"/>
     <use xlink:href="#mfdfc3708b7" x="530.521432" y="355.999259" style="fill: #6060eb; stroke: #6060eb"/>
     <use xlink:href="#mfdfc3708b7" x="536.304783" y="355.999259" style="fill: #6060eb; stroke: #6060eb"/>
     <use xlink:href="#mfdfc3708b7" x="542.088134" y="355.999259" style="fill: #6060eb; stroke: #6060eb"/>
     <use xlink:href="#mfdfc3708b7" x="547.871485" y="355.999259" style="fill: #6060eb; stroke: #6060eb"/>
     <use xlink:href="#mfdfc3708b7" x="553.654836" y="355.999259" style="fill: #6060eb; stroke: #6060eb"/>
     <use xlink:href="#mfdfc3708b7" x="559.438187" y="355.999259" style="fill: #6060eb; stroke: #6060eb"/>
     <use xlink:href="#mfdfc3708b7" x="565.221538" y="355.999259" style="fill: #6060eb; stroke: #6060eb"/>
     <use xlink:href="#mfdfc3708b7" x="571.004889" y="355.999259" style="fill: #6060eb; stroke: #6060eb"/>
     <use xlink:href="#mfdfc3708b7" x="576.78824" y="355.999259" style="fill: #6060eb; stroke: #6060eb"/>
     <use xlink:href="#mfdfc3708b7" x="582.571591" y="355.999259" style="fill: #6060eb; stroke: #6060eb"/>
    </g>
   </g>
   <g id="PolyCollection_3">
    <defs>
     <path id="m26eb2eafd7" d="M 85.203409 -85.319606 
L 85.203409 -75.039914 
L 90.98676 -69.711363 
L 96.770111 -81.304879 
L 102.553462 -83.656942 
L 108.336813 -92.790533 
L 114.120164 -92.827825 
L 119.903515 -95.864084 
L 125.686866 -94.553023 
L 131.470217 -95.136072 
L 137.253568 -96.663169 
L 143.036919 -101.714676 
L 148.82027 -104.680931 
L 154.603621 -107.436554 
L 160.386971 -107.961095 
L 166.170322 -101.774197 
L 171.953673 -104.200691 
L 177.737024 -105.155146 
L 183.520375 -102.764639 
L 189.303726 -102.285894 
L 195.087077 -102.251307 
L 200.870428 -99.865995 
L 206.653779 -96.153379 
L 212.43713 -94.763638 
L 218.220481 -94.82933 
L 224.003832 -94.402437 
L 229.787183 -93.747339 
L 235.570534 -96.919257 
L 241.353885 -99.579275 
L 247.137236 -99.431541 
L 252.920587 -103.290476 
L 258.703938 -105.714536 
L 264.487289 -110.24679 
L 270.27064 -112.987908 
L 276.05399 -117.442298 
L 281.837341 -119.397492 
L 287.620692 -125.240116 
L 293.404043 -128.344433 
L 299.187394 -132.60309 
L 304.970745 -136.591526 
L 310.754096 -140.28692 
L 316.537447 -146.580295 
L 322.320798 -154.105457 
L 328.104149 -156.598568 
L 333.8875 -164.094211 
L 339.670851 -169.045302 
L 345.454202 -172.542366 
L 351.237553 -176.423982 
L 357.020904 -179.323406 
L 362.804255 -183.093349 
L 368.587606 -187.759019 
L 374.370957 -191.881133 
L 380.154308 -194.834302 
L 385.937659 -198.781474 
L 391.72101 -203.538274 
L 397.50436 -207.161048 
L 403.287711 -210.410801 
L 409.071062 -213.975543 
L 414.854413 -216.750164 
L 420.637764 -220.739328 
L 426.421115 -224.862432 
L 432.204466 -225.42915 
L 437.987817 -227.189439 
L 443.771168 -235.888573 
L 449.554519 -243.625009 
L 455.33787 -249.41063 
L 461.121221 -255.840841 
L 466.904572 -259.872266 
L 472.687923 -261.442212 
L 478.471274 -264.232094 
L 484.254625 -265.831622 
L 490.037976 -270.87827 
L 495.821327 -275.769018 
L 501.604678 -278.745911 
L 507.388029 -282.33199 
L 513.171379 -286.424566 
L 518.95473 -289.00162 
L 524.738081 -291.522028 
L 530.521432 -297.494242 
L 536.304783 -297.336737 
L 542.088134 -298.46808 
L 547.871485 -301.885783 
L 553.654836 -303.872179 
L 559.438187 -306.366823 
L 565.221538 -308.333079 
L 571.004889 -310.599045 
L 576.78824 -310.45571 
L 582.571591 -312.96441 
L 582.571591 -389.059091 
L 582.571591 -389.059091 
L 576.78824 -386.296142 
L 571.004889 -385.617331 
L 565.221538 -382.66764 
L 559.438187 -380.028529 
L 553.654836 -376.793682 
L 547.871485 -373.724695 
L 542.088134 -369.544889 
L 536.304783 -367.142988 
L 530.521432 -366.046739 
L 524.738081 -359.336638 
L 518.95473 -355.72907 
L 513.171379 -352.056823 
L 507.388029 -346.569973 
L 501.604678 -341.503464 
L 495.821327 -337.474366 
L 490.037976 -331.365561 
L 484.254625 -324.719973 
L 478.471274 -321.207495 
L 472.687923 -317.071665 
L 466.904572 -314.303258 
L 461.121221 -309.375566 
L 455.33787 -301.60171 
L 449.554519 -293.539121 
L 443.771168 -281.946201 
L 437.987817 -271.142589 
L 432.204466 -268.969298 
L 426.421115 -267.94523 
L 420.637764 -262.603057 
L 414.854413 -257.65699 
L 409.071062 -254.24901 
L 403.287711 -249.630073 
L 397.50436 -245.107124 
L 391.72101 -240.348068 
L 385.937659 -234.6673 
L 380.154308 -229.4209 
L 374.370957 -225.507637 
L 368.587606 -220.222203 
L 362.804255 -214.353767 
L 357.020904 -209.635774 
L 351.237553 -205.624682 
L 345.454202 -200.800332 
L 339.670851 -196.102587 
L 333.8875 -189.812401 
L 328.104149 -180.806565 
L 322.320798 -177.228405 
L 316.537447 -168.606515 
L 310.754096 -160.826903 
L 304.970745 -156.137218 
L 299.187394 -150.672017 
L 293.404043 -144.600969 
L 287.620692 -140.541679 
L 281.837341 -133.425966 
L 276.05399 -129.828097 
L 270.27064 -124.189492 
L 264.487289 -120.487289 
L 258.703938 -115.462247 
L 252.920587 -112.322437 
L 247.137236 -107.531895 
L 241.353885 -107.403279 
L 235.570534 -104.913201 
L 229.787183 -101.642381 
L 224.003832 -102.276608 
L 218.220481 -102.117103 
L 212.43713 -101.795536 
L 206.653779 -102.990249 
L 200.870428 -107.412745 
L 195.087077 -110.72031 
L 189.303726 -111.412978 
L 183.520375 -112.622412 
L 177.737024 -114.992384 
L 171.953673 -114.956519 
L 166.170322 -112.620608 
L 160.386971 -120.16786 
L 154.603621 -119.509554 
L 148.82027 -118.057729 
L 143.036919 -115.586607 
L 137.253568 -111.982826 
L 131.470217 -111.122197 
L 125.686866 -111.657104 
L 119.903515 -111.810302 
L 114.120164 -109.566322 
L 108.336813 -110.645227 
L 102.553462 -100.677034 
L 96.770111 -95.759668 
L 90.98676 -84.621886 
L 85.203409 -85.319606 
z
" style="stroke: #00008b; stroke-opacity: 0.1"/>
    </defs>
    <g clip-path="url(#pee8a542713)">
     <use xlink:href="#m26eb2eafd7" x="0" y="432" style="fill: #00008b; fill-opacity: 0.1; stroke: #00008b; stroke-opacity: 0.1"/>
    </g>
   </g>
   <g id="PolyCollection_4">
    <defs>
     <path id="mdcac646250" d="M 85.203409 -84.590844 
L 85.203409 -81.922821 
L 90.98676 -84.110266 
L 96.770111 -88.088048 
L 102.553462 -91.99131 
L 108.336813 -94.314944 
L 114.120164 -95.539527 
L 119.903515 -97.629887 
L 125.686866 -100.801327 
L 131.470217 -103.914412 
L 137.253568 -108.392782 
L 143.036919 -110.287984 
L 148.82027 -112.067056 
L 154.603621 -112.051675 
L 160.386971 -111.117055 
L 166.170322 -110.698576 
L 171.953673 -110.393783 
L 177.737024 -109.957551 
L 183.520375 -108.095689 
L 189.303726 -105.31915 
L 195.087077 -103.679443 
L 200.870428 -102.452772 
L 206.653779 -101.411856 
L 212.43713 -100.565977 
L 218.220481 -100.324254 
L 224.003832 -99.330732 
L 229.787183 -97.819787 
L 235.570534 -97.152906 
L 241.353885 -97.454557 
L 247.137236 -96.554613 
L 252.920587 -97.024367 
L 258.703938 -96.428875 
L 264.487289 -95.940318 
L 270.27064 -96.176564 
L 276.05399 -95.979001 
L 281.837341 -94.687372 
L 287.620692 -94.482507 
L 293.404043 -94.550093 
L 299.187394 -94.021304 
L 304.970745 -93.581394 
L 310.754096 -94.079335 
L 316.537447 -94.419402 
L 322.320798 -93.676043 
L 328.104149 -93.255199 
L 333.8875 -94.216668 
L 339.670851 -93.813946 
L 345.454202 -93.878645 
L 351.237553 -93.508546 
L 357.020904 -92.970506 
L 362.804255 -92.77401 
L 368.587606 -92.766902 
L 374.370957 -92.918039 
L 380.154308 -92.209091 
L 385.937659 -92.517016 
L 391.72101 -92.885509 
L 397.50436 -92.983028 
L 403.287711 -93.019058 
L 409.071062 -92.38158 
L 414.854413 -92.211751 
L 420.637764 -92.087367 
L 426.421115 -91.589743 
L 432.204466 -91.411556 
L 437.987817 -90.899941 
L 443.771168 -91.08518 
L 449.554519 -90.984302 
L 455.33787 -90.487212 
L 461.121221 -90.166427 
L 466.904572 -90.144282 
L 472.687923 -90.013045 
L 478.471274 -89.611841 
L 484.254625 -89.510979 
L 490.037976 -89.172465 
L 495.821327 -89.037848 
L 501.604678 -88.952401 
L 507.388029 -88.73254 
L 513.171379 -88.941445 
L 518.95473 -88.581143 
L 524.738081 -88.132767 
L 530.521432 -88.318481 
L 536.304783 -88.525339 
L 542.088134 -88.966327 
L 547.871485 -88.738819 
L 553.654836 -88.39547 
L 559.438187 -88.555964 
L 565.221538 -88.874791 
L 571.004889 -88.66609 
L 576.78824 -88.977591 
L 582.571591 -89.29929 
L 582.571591 -91.918026 
L 582.571591 -91.918026 
L 576.78824 -91.626973 
L 571.004889 -91.32485 
L 565.221538 -91.473345 
L 559.438187 -91.035619 
L 553.654836 -90.880303 
L 547.871485 -91.291768 
L 542.088134 -91.417018 
L 536.304783 -90.975989 
L 530.521432 -90.822392 
L 524.738081 -90.692285 
L 518.95473 -91.088677 
L 513.171379 -91.434275 
L 507.388029 -91.215442 
L 501.604678 -91.455365 
L 495.821327 -91.507848 
L 490.037976 -91.57977 
L 484.254625 -91.831269 
L 478.471274 -91.972271 
L 472.687923 -92.401773 
L 466.904572 -92.512852 
L 461.121221 -92.534227 
L 455.33787 -92.831344 
L 449.554519 -93.443566 
L 443.771168 -93.480814 
L 437.987817 -93.24402 
L 432.204466 -93.748287 
L 426.421115 -94.011237 
L 420.637764 -94.64624 
L 414.854413 -94.746296 
L 409.071062 -94.952834 
L 403.287711 -95.535068 
L 397.50436 -95.445786 
L 391.72101 -95.333622 
L 385.937659 -94.903297 
L 380.154308 -94.706545 
L 374.370957 -95.386119 
L 368.587606 -95.157801 
L 362.804255 -95.13786 
L 357.020904 -95.299305 
L 351.237553 -95.854496 
L 345.454202 -96.197046 
L 339.670851 -96.12888 
L 333.8875 -96.578402 
L 328.104149 -95.564395 
L 322.320798 -95.950773 
L 316.537447 -96.64838 
L 310.754096 -96.184005 
L 304.970745 -95.742536 
L 299.187394 -96.15992 
L 293.404043 -96.675967 
L 287.620692 -96.604294 
L 281.837341 -96.900239 
L 276.05399 -98.122147 
L 270.27064 -98.274583 
L 264.487289 -97.968533 
L 258.703938 -98.613612 
L 252.920587 -99.362057 
L 247.137236 -98.823845 
L 241.353885 -99.594862 
L 235.570534 -99.289041 
L 229.787183 -99.907006 
L 224.003832 -101.481092 
L 218.220481 -102.487755 
L 212.43713 -102.811929 
L 206.653779 -103.868825 
L 200.870428 -105.138565 
L 195.087077 -106.642492 
L 189.303726 -108.362993 
L 183.520375 -111.644113 
L 177.737024 -113.917286 
L 171.953673 -114.679622 
L 166.170322 -115.031052 
L 160.386971 -115.756113 
L 154.603621 -116.862537 
L 148.82027 -117.05114 
L 143.036919 -115.466219 
L 137.253568 -113.687713 
L 131.470217 -108.64022 
L 125.686866 -105.280448 
L 119.903515 -101.807998 
L 114.120164 -99.690571 
L 108.336813 -98.31386 
L 102.553462 -95.815774 
L 96.770111 -91.286319 
L 90.98676 -87.032342 
L 85.203409 -84.590844 
z
" style="stroke: #00008b; stroke-opacity: 0.1"/>
    </defs>
    <g clip-path="url(#pee8a542713)">
     <use xlink:href="#mdcac646250" x="0" y="432" style="fill: #00008b; fill-opacity: 0.1; stroke: #00008b; stroke-opacity: 0.1"/>
    </g>
   </g>
   <g id="PathCollection_2">
    <defs>
     <path id="mdb7eadbe3b" d="M 0 -3 
L -0.673542 -0.927051 
L -2.85317 -0.927051 
L -1.089814 0.354102 
L -1.763356 2.427051 
L -0 1.145898 
L 1.763356 2.427051 
L 1.089814 0.354102 
L 2.85317 -0.927051 
L 0.673542 -0.927051 
z
" style="stroke: #00008b"/>
    </defs>
    <g clip-path="url(#pee8a542713)">
     <use xlink:href="#mdb7eadbe3b" x="264.487289" y="362.559091" style="fill: #00008b; stroke: #00008b"/>
     <use xlink:href="#mdb7eadbe3b" x="270.27064" y="362.559091" style="fill: #00008b; stroke: #00008b"/>
     <use xlink:href="#mdb7eadbe3b" x="276.05399" y="362.559091" style="fill: #00008b; stroke: #00008b"/>
     <use xlink:href="#mdb7eadbe3b" x="281.837341" y="362.559091" style="fill: #00008b; stroke: #00008b"/>
     <use xlink:href="#mdb7eadbe3b" x="287.620692" y="362.559091" style="fill: #00008b; stroke: #00008b"/>
     <use xlink:href="#mdb7eadbe3b" x="293.404043" y="362.559091" style="fill: #00008b; stroke: #00008b"/>
     <use xlink:href="#mdb7eadbe3b" x="299.187394" y="362.559091" style="fill: #00008b; stroke: #00008b"/>
     <use xlink:href="#mdb7eadbe3b" x="304.970745" y="362.559091" style="fill: #00008b; stroke: #00008b"/>
     <use xlink:href="#mdb7eadbe3b" x="310.754096" y="362.559091" style="fill: #00008b; stroke: #00008b"/>
     <use xlink:href="#mdb7eadbe3b" x="316.537447" y="362.559091" style="fill: #00008b; stroke: #00008b"/>
     <use xlink:href="#mdb7eadbe3b" x="322.320798" y="362.559091" style="fill: #00008b; stroke: #00008b"/>
     <use xlink:href="#mdb7eadbe3b" x="328.104149" y="362.559091" style="fill: #00008b; stroke: #00008b"/>
     <use xlink:href="#mdb7eadbe3b" x="333.8875" y="362.559091" style="fill: #00008b; stroke: #00008b"/>
     <use xlink:href="#mdb7eadbe3b" x="339.670851" y="362.559091" style="fill: #00008b; stroke: #00008b"/>
     <use xlink:href="#mdb7eadbe3b" x="345.454202" y="362.559091" style="fill: #00008b; stroke: #00008b"/>
     <use xlink:href="#mdb7eadbe3b" x="351.237553" y="362.559091" style="fill: #00008b; stroke: #00008b"/>
     <use xlink:href="#mdb7eadbe3b" x="357.020904" y="362.559091" style="fill: #00008b; stroke: #00008b"/>
     <use xlink:href="#mdb7eadbe3b" x="362.804255" y="362.559091" style="fill: #00008b; stroke: #00008b"/>
     <use xlink:href="#mdb7eadbe3b" x="368.587606" y="362.559091" style="fill: #00008b; stroke: #00008b"/>
     <use xlink:href="#mdb7eadbe3b" x="374.370957" y="362.559091" style="fill: #00008b; stroke: #00008b"/>
     <use xlink:href="#mdb7eadbe3b" x="380.154308" y="362.559091" style="fill: #00008b; stroke: #00008b"/>
     <use xlink:href="#mdb7eadbe3b" x="385.937659" y="362.559091" style="fill: #00008b; stroke: #00008b"/>
     <use xlink:href="#mdb7eadbe3b" x="391.72101" y="362.559091" style="fill: #00008b; stroke: #00008b"/>
     <use xlink:href="#mdb7eadbe3b" x="397.50436" y="362.559091" style="fill: #00008b; stroke: #00008b"/>
     <use xlink:href="#mdb7eadbe3b" x="403.287711" y="362.559091" style="fill: #00008b; stroke: #00008b"/>
     <use xlink:href="#mdb7eadbe3b" x="409.071062" y="362.559091" style="fill: #00008b; stroke: #00008b"/>
     <use xlink:href="#mdb7eadbe3b" x="414.854413" y="362.559091" style="fill: #00008b; stroke: #00008b"/>
     <use xlink:href="#mdb7eadbe3b" x="420.637764" y="362.559091" style="fill: #00008b; stroke: #00008b"/>
     <use xlink:href="#mdb7eadbe3b" x="426.421115" y="362.559091" style="fill: #00008b; stroke: #00008b"/>
     <use xlink:href="#mdb7eadbe3b" x="432.204466" y="362.559091" style="fill: #00008b; stroke: #00008b"/>
     <use xlink:href="#mdb7eadbe3b" x="437.987817" y="362.559091" style="fill: #00008b; stroke: #00008b"/>
     <use xlink:href="#mdb7eadbe3b" x="443.771168" y="362.559091" style="fill: #00008b; stroke: #00008b"/>
     <use xlink:href="#mdb7eadbe3b" x="449.554519" y="362.559091" style="fill: #00008b; stroke: #00008b"/>
     <use xlink:href="#mdb7eadbe3b" x="455.33787" y="362.559091" style="fill: #00008b; stroke: #00008b"/>
     <use xlink:href="#mdb7eadbe3b" x="461.121221" y="362.559091" style="fill: #00008b; stroke: #00008b"/>
     <use xlink:href="#mdb7eadbe3b" x="466.904572" y="362.559091" style="fill: #00008b; stroke: #00008b"/>
     <use xlink:href="#mdb7eadbe3b" x="472.687923" y="362.559091" style="fill: #00008b; stroke: #00008b"/>
     <use xlink:href="#mdb7eadbe3b" x="478.471274" y="362.559091" style="fill: #00008b; stroke: #00008b"/>
     <use xlink:href="#mdb7eadbe3b" x="484.254625" y="362.559091" style="fill: #00008b; stroke: #00008b"/>
     <use xlink:href="#mdb7eadbe3b" x="490.037976" y="362.559091" style="fill: #00008b; stroke: #00008b"/>
     <use xlink:href="#mdb7eadbe3b" x="495.821327" y="362.559091" style="fill: #00008b; stroke: #00008b"/>
     <use xlink:href="#mdb7eadbe3b" x="501.604678" y="362.559091" style="fill: #00008b; stroke: #00008b"/>
     <use xlink:href="#mdb7eadbe3b" x="507.388029" y="362.559091" style="fill: #00008b; stroke: #00008b"/>
     <use xlink:href="#mdb7eadbe3b" x="513.171379" y="362.559091" style="fill: #00008b; stroke: #00008b"/>
     <use xlink:href="#mdb7eadbe3b" x="518.95473" y="362.559091" style="fill: #00008b; stroke: #00008b"/>
     <use xlink:href="#mdb7eadbe3b" x="524.738081" y="362.559091" style="fill: #00008b; stroke: #00008b"/>
     <use xlink:href="#mdb7eadbe3b" x="530.521432" y="362.559091" style="fill: #00008b; stroke: #00008b"/>
     <use xlink:href="#mdb7eadbe3b" x="536.304783" y="362.559091" style="fill: #00008b; stroke: #00008b"/>
     <use xlink:href="#mdb7eadbe3b" x="542.088134" y="362.559091" style="fill: #00008b; stroke: #00008b"/>
     <use xlink:href="#mdb7eadbe3b" x="547.871485" y="362.559091" style="fill: #00008b; stroke: #00008b"/>
     <use xlink:href="#mdb7eadbe3b" x="553.654836" y="362.559091" style="fill: #00008b; stroke: #00008b"/>
     <use xlink:href="#mdb7eadbe3b" x="559.438187" y="362.559091" style="fill: #00008b; stroke: #00008b"/>
     <use xlink:href="#mdb7eadbe3b" x="565.221538" y="362.559091" style="fill: #00008b; stroke: #00008b"/>
     <use xlink:href="#mdb7eadbe3b" x="571.004889" y="362.559091" style="fill: #00008b; stroke: #00008b"/>
     <use xlink:href="#mdb7eadbe3b" x="576.78824" y="362.559091" style="fill: #00008b; stroke: #00008b"/>
     <use xlink:href="#mdb7eadbe3b" x="582.571591" y="362.559091" style="fill: #00008b; stroke: #00008b"/>
    </g>
   </g>
   <g id="line2d_14">
    <path d="M 85.203409 336.729787 
L 90.98676 350.641558 
L 96.770111 348.533065 
L 102.553462 348.093963 
L 108.336813 350.381653 
L 114.120164 350.751584 
L 119.903515 349.329884 
L 125.686866 347.281412 
L 131.470217 348.704366 
L 137.253568 347.977915 
L 143.036919 337.568223 
L 148.82027 342.450965 
L 154.603621 348.682917 
L 160.386971 347.255043 
L 166.170322 345.745596 
L 171.953673 347.403628 
L 177.737024 346.232161 
L 183.520375 347.940723 
L 189.303726 344.107988 
L 195.087077 342.116534 
L 200.870428 337.46416 
L 206.653779 339.178175 
L 212.43713 344.365949 
L 218.220481 344.243943 
L 224.003832 347.943813 
L 229.787183 350.370587 
L 235.570534 343.765787 
L 241.353885 344.537572 
L 247.137236 347.518809 
L 252.920587 345.538607 
L 258.703938 339.08122 
L 264.487289 332.852935 
L 270.27064 333.869723 
L 276.05399 334.97188 
L 281.837341 340.203384 
L 287.620692 340.590143 
L 293.404043 339.229766 
L 299.187394 340.109468 
L 304.970745 337.841867 
L 310.754096 342.723229 
L 316.537447 338.372372 
L 322.320798 339.121395 
L 328.104149 336.613149 
L 333.8875 330.149017 
L 339.670851 327.892308 
L 345.454202 323.841525 
L 351.237553 325.089193 
L 357.020904 321.582407 
L 362.804255 324.493874 
L 368.587606 321.431946 
L 374.370957 320.518689 
L 380.154308 319.392004 
L 385.937659 319.160931 
L 391.72101 312.210494 
L 397.50436 315.491254 
L 403.287711 328.360665 
L 409.071062 331.579405 
L 414.854413 323.311416 
L 420.637764 311.718121 
L 426.421115 309.5111 
L 432.204466 318.769354 
L 437.987817 318.254735 
L 443.771168 325.218889 
L 449.554519 330.324205 
L 455.33787 344.521446 
L 461.121221 331.286359 
L 466.904572 316.287876 
L 472.687923 315.202311 
L 478.471274 314.461757 
L 484.254625 312.254845 
L 490.037976 316.832742 
L 495.821327 317.778564 
L 501.604678 311.531728 
L 507.388029 309.842148 
L 513.171379 308.946406 
L 518.95473 309.461158 
L 524.738081 306.191614 
L 530.521432 305.908964 
L 536.304783 307.045437 
L 542.088134 299.524868 
L 547.871485 302.707234 
L 553.654836 304.98479 
L 559.438187 303.192313 
L 565.221538 301.042119 
L 571.004889 301.108439 
L 576.78824 296.794311 
L 582.571591 297.730393 
" clip-path="url(#pee8a542713)" style="fill: none; stroke: #6060eb; stroke-width: 2; stroke-linecap: round"/>
   </g>
   <g id="line2d_15">
    <path d="M 85.203409 351.550167 
L 90.98676 349.888938 
L 96.770111 349.767251 
L 102.553462 349.774326 
L 108.336813 349.668482 
L 114.120164 348.731138 
L 119.903515 350.031134 
L 125.686866 348.69289 
L 131.470217 348.896666 
L 137.253568 348.875884 
L 143.036919 342.573455 
L 148.82027 343.632235 
L 154.603621 342.370148 
L 160.386971 342.259354 
L 166.170322 342.414577 
L 171.953673 340.634262 
L 177.737024 339.809775 
L 183.520375 339.465022 
L 189.303726 341.193085 
L 195.087077 340.675179 
L 200.870428 340.877731 
L 206.653779 342.595404 
L 212.43713 342.426472 
L 218.220481 341.790909 
L 224.003832 340.9958 
L 229.787183 339.554809 
L 235.570534 338.535128 
L 241.353885 336.910994 
L 247.137236 338.80465 
L 252.920587 338.595672 
L 258.703938 339.110808 
L 264.487289 340.444694 
L 270.27064 342.545779 
L 276.05399 341.167033 
L 281.837341 339.996203 
L 287.620692 339.166576 
L 293.404043 338.698874 
L 299.187394 340.174646 
L 304.970745 340.262058 
L 310.754096 340.404352 
L 316.537447 341.016909 
L 322.320798 341.454659 
L 328.104149 341.330542 
L 333.8875 341.356683 
L 339.670851 341.806524 
L 345.454202 340.232953 
L 351.237553 341.735742 
L 357.020904 342.066484 
L 362.804255 342.487152 
L 368.587606 343.814833 
L 374.370957 342.612256 
L 380.154308 342.243191 
L 385.937659 341.623502 
L 391.72101 341.332016 
L 397.50436 340.985869 
L 403.287711 341.878225 
L 409.071062 341.503926 
L 414.854413 340.260416 
L 420.637764 341.427876 
L 426.421115 343.102328 
L 432.204466 346.42858 
L 437.987817 345.053404 
L 443.771168 344.764274 
L 449.554519 347.887345 
L 455.33787 348.20445 
L 461.121221 347.138398 
L 466.904572 346.233978 
L 472.687923 346.264253 
L 478.471274 347.372109 
L 484.254625 347.565858 
L 490.037976 347.464832 
L 495.821327 347.886322 
L 501.604678 347.763536 
L 507.388029 347.070787 
L 513.171379 347.60046 
L 518.95473 347.180484 
L 524.738081 348.441669 
L 530.521432 347.100224 
L 536.304783 346.502589 
L 542.088134 346.852156 
L 547.871485 348.046809 
L 553.654836 348.767797 
L 559.438187 347.201128 
L 565.221538 347.820584 
L 571.004889 347.580372 
L 576.78824 347.902232 
L 582.571591 347.544534 
" clip-path="url(#pee8a542713)" style="fill: none; stroke-dasharray: 7.4,3.2; stroke-dashoffset: 0; stroke: #6060eb; stroke-width: 2"/>
   </g>
   <g id="line2d_16">
    <path d="M 143.036919 378.54 
L 143.036919 26.96 
" clip-path="url(#pee8a542713)" style="fill: none; stroke-dasharray: 5.55,2.4; stroke-dashoffset: 0; stroke: #1a1a1a; stroke-width: 1.5"/>
   </g>
   <g id="line2d_17">
    <path d="M 432.204466 378.54 
L 432.204466 26.96 
" clip-path="url(#pee8a542713)" style="fill: none; stroke-dasharray: 5.55,2.4; stroke-dashoffset: 0; stroke: #1a1a1a; stroke-width: 1.5"/>
   </g>
   <g id="line2d_18">
    <path d="M 85.203409 351.82024 
L 90.98676 354.833376 
L 96.770111 343.467727 
L 102.553462 339.833012 
L 108.336813 330.28212 
L 114.120164 330.802927 
L 119.903515 328.162807 
L 125.686866 328.894936 
L 131.470217 328.870866 
L 137.253568 327.677003 
L 143.036919 323.349358 
L 148.82027 320.63067 
L 154.603621 318.526946 
L 160.386971 317.935523 
L 166.170322 324.802598 
L 171.953673 322.421395 
L 177.737024 321.926235 
L 183.520375 324.306475 
L 189.303726 325.150564 
L 195.087077 325.514191 
L 200.870428 328.36063 
L 206.653779 332.428186 
L 212.43713 333.720413 
L 218.220481 333.526784 
L 224.003832 333.660478 
L 229.787183 334.30514 
L 235.570534 331.083771 
L 241.353885 328.508723 
L 247.137236 328.518282 
L 252.920587 324.193544 
L 258.703938 321.411609 
L 264.487289 316.63296 
L 270.27064 313.4113 
L 276.05399 308.364803 
L 281.837341 305.588271 
L 287.620692 299.109103 
L 293.404043 295.527299 
L 299.187394 290.362447 
L 304.970745 285.635628 
L 310.754096 281.443088 
L 316.537447 274.406595 
L 322.320798 266.333069 
L 328.104149 263.297434 
L 333.8875 255.046694 
L 339.670851 249.426055 
L 345.454202 245.328651 
L 351.237553 240.975668 
L 357.020904 237.52041 
L 362.804255 233.276442 
L 368.587606 228.009389 
L 374.370957 223.305615 
L 380.154308 219.872399 
L 385.937659 215.275613 
L 391.72101 210.056829 
L 397.50436 205.865914 
L 403.287711 201.979563 
L 409.071062 197.887724 
L 414.854413 194.796423 
L 420.637764 190.328808 
L 426.421115 185.596169 
L 432.204466 184.800776 
L 437.987817 182.833986 
L 443.771168 173.082613 
L 449.554519 163.417935 
L 455.33787 156.49383 
L 461.121221 149.391797 
L 466.904572 144.912238 
L 472.687923 142.743061 
L 478.471274 139.280205 
L 484.254625 136.724203 
L 490.037976 130.878085 
L 495.821327 125.378308 
L 501.604678 121.875312 
L 507.388029 117.549019 
L 513.171379 112.759305 
L 518.95473 109.634655 
L 524.738081 106.570667 
L 530.521432 100.229509 
L 536.304783 99.760138 
L 542.088134 97.993515 
L 547.871485 94.194761 
L 553.654836 91.66707 
L 559.438187 88.802324 
L 565.221538 86.499641 
L 571.004889 83.891812 
L 576.78824 83.624074 
L 582.571591 80.98825 
" clip-path="url(#pee8a542713)" style="fill: none; stroke: #00008b; stroke-width: 2; stroke-linecap: round"/>
   </g>
   <g id="line2d_19">
    <path d="M 85.203409 348.743167 
L 90.98676 346.428696 
L 96.770111 342.312817 
L 102.553462 338.096458 
L 108.336813 335.685598 
L 114.120164 334.384951 
L 119.903515 332.281057 
L 125.686866 328.959113 
L 131.470217 325.722684 
L 137.253568 320.959753 
L 143.036919 319.122898 
L 148.82027 317.440902 
L 154.603621 317.542894 
L 160.386971 318.563416 
L 166.170322 319.135186 
L 171.953673 319.463298 
L 177.737024 320.062582 
L 183.520375 322.130099 
L 189.303726 325.158928 
L 195.087077 326.839032 
L 200.870428 328.204331 
L 206.653779 329.35966 
L 212.43713 330.311047 
L 218.220481 330.593995 
L 224.003832 331.594088 
L 229.787183 333.136604 
L 235.570534 333.779026 
L 241.353885 333.47529 
L 247.137236 334.310771 
L 252.920587 333.806788 
L 258.703938 334.478757 
L 264.487289 335.045575 
L 270.27064 334.774426 
L 276.05399 334.949426 
L 281.837341 336.206194 
L 287.620692 336.456599 
L 293.404043 336.38697 
L 299.187394 336.909388 
L 304.970745 337.338035 
L 310.754096 336.86833 
L 316.537447 336.466109 
L 322.320798 337.186592 
L 328.104149 337.590203 
L 333.8875 336.602465 
L 339.670851 337.028587 
L 345.454202 336.962154 
L 351.237553 337.318479 
L 357.020904 337.865095 
L 362.804255 338.044065 
L 368.587606 338.037648 
L 374.370957 337.847921 
L 380.154308 338.542182 
L 385.937659 338.289844 
L 391.72101 337.890434 
L 397.50436 337.785593 
L 403.287711 337.722937 
L 409.071062 338.332793 
L 414.854413 338.520976 
L 420.637764 338.633196 
L 426.421115 339.19951 
L 432.204466 339.420079 
L 437.987817 339.928019 
L 443.771168 339.717003 
L 449.554519 339.786066 
L 455.33787 340.340722 
L 461.121221 340.649673 
L 466.904572 340.671433 
L 472.687923 340.792591 
L 478.471274 341.207944 
L 484.254625 341.328876 
L 490.037976 341.623882 
L 495.821327 341.727152 
L 501.604678 341.796117 
L 507.388029 342.026009 
L 513.171379 341.81214 
L 518.95473 342.16509 
L 524.738081 342.587474 
L 530.521432 342.429564 
L 536.304783 342.249336 
L 542.088134 341.808327 
L 547.871485 341.984707 
L 553.654836 342.362114 
L 559.438187 342.204209 
L 565.221538 341.825932 
L 571.004889 342.00453 
L 576.78824 341.697718 
L 582.571591 341.391342 
" clip-path="url(#pee8a542713)" style="fill: none; stroke-dasharray: 7.4,3.2; stroke-dashoffset: 0; stroke: #00008b; stroke-width: 2"/>
   </g>
   <g id="line2d_20">
    <path d="M 143.036919 378.54 
L 143.036919 26.96 
" clip-path="url(#pee8a542713)" style="fill: none; stroke-dasharray: 5.55,2.4; stroke-dashoffset: 0; stroke: #1a1a1a; stroke-width: 1.5"/>
   </g>
   <g id="line2d_21">
    <path d="M 432.204466 378.54 
L 432.204466 26.96 
" clip-path="url(#pee8a542713)" style="fill: none; stroke-dasharray: 5.55,2.4; stroke-dashoffset: 0; stroke: #1a1a1a; stroke-width: 1.5"/>
   </g>
   <g id="patch_3">
    <path d="M 60.335 378.54 
L 60.335 26.96 
" style="fill: none; stroke: #000000; stroke-width: 1.5; stroke-linejoin: miter; stroke-linecap: square"/>
   </g>
   <g id="patch_4">
    <path d="M 60.335 378.54 
L 607.44 378.54 
" style="fill: none; stroke: #000000; stroke-width: 1.5; stroke-linejoin: miter; stroke-linecap: square"/>
   </g>
   <g id="text_16">
    <!-- Divergence Comparison: Original vs Shuffled -->
    <g style="fill: #262626" transform="translate(214.2775 20.96) scale(0.12 -0.12)">
     <defs>
      <path id="ArialMT-43" d="M 3763 1606 
L 4369 1453 
Q 4178 706 3683 314 
Q 3188 -78 2472 -78 
Q 1731 -78 1267 223 
Q 803 525 561 1097 
Q 319 1669 319 2325 
Q 319 3041 592 3573 
Q 866 4106 1370 4382 
Q 1875 4659 2481 4659 
Q 3169 4659 3637 4309 
Q 4106 3959 4291 3325 
L 3694 3184 
Q 3534 3684 3231 3912 
Q 2928 4141 2469 4141 
Q 1941 4141 1586 3887 
Q 1231 3634 1087 3207 
Q 944 2781 944 2328 
Q 944 1744 1114 1308 
Q 1284 872 1643 656 
Q 2003 441 2422 441 
Q 2931 441 3284 734 
Q 3638 1028 3763 1606 
z
" transform="scale(0.015625)"/>
      <path id="ArialMT-6f" d="M 213 1659 
Q 213 2581 725 3025 
Q 1153 3394 1769 3394 
Q 2453 3394 2887 2945 
Q 3322 2497 3322 1706 
Q 3322 1066 3130 698 
Q 2938 331 2570 128 
Q 2203 -75 1769 -75 
Q 1072 -75 642 372 
Q 213 819 213 1659 
z
M 791 1659 
Q 791 1022 1069 705 
Q 1347 388 1769 388 
Q 2188 388 2466 706 
Q 2744 1025 2744 1678 
Q 2744 2294 2464 2611 
Q 2184 2928 1769 2928 
Q 1347 2928 1069 2612 
Q 791 2297 791 1659 
z
" transform="scale(0.015625)"/>
      <path id="ArialMT-70" d="M 422 -1272 
L 422 3319 
L 934 3319 
L 934 2888 
Q 1116 3141 1344 3267 
Q 1572 3394 1897 3394 
Q 2322 3394 2647 3175 
Q 2972 2956 3137 2557 
Q 3303 2159 3303 1684 
Q 3303 1175 3120 767 
Q 2938 359 2589 142 
Q 2241 -75 1856 -75 
Q 1575 -75 1351 44 
Q 1128 163 984 344 
L 984 -1272 
L 422 -1272 
z
M 931 1641 
Q 931 1000 1190 694 
Q 1450 388 1819 388 
Q 2194 388 2461 705 
Q 2728 1022 2728 1688 
Q 2728 2322 2467 2637 
Q 2206 2953 1844 2953 
Q 1484 2953 1207 2617 
Q 931 2281 931 1641 
z
" transform="scale(0.015625)"/>
      <path id="ArialMT-61" d="M 2588 409 
Q 2275 144 1986 34 
Q 1697 -75 1366 -75 
Q 819 -75 525 192 
Q 231 459 231 875 
Q 231 1119 342 1320 
Q 453 1522 633 1644 
Q 813 1766 1038 1828 
Q 1203 1872 1538 1913 
Q 2219 1994 2541 2106 
Q 2544 2222 2544 2253 
Q 2544 2597 2384 2738 
Q 2169 2928 1744 2928 
Q 1347 2928 1158 2789 
Q 969 2650 878 2297 
L 328 2372 
Q 403 2725 575 2942 
Q 747 3159 1072 3276 
Q 1397 3394 1825 3394 
Q 2250 3394 2515 3294 
Q 2781 3194 2906 3042 
Q 3031 2891 3081 2659 
Q 3109 2516 3109 2141 
L 3109 1391 
Q 3109 606 3145 398 
Q 3181 191 3288 0 
L 2700 0 
Q 2613 175 2588 409 
z
M 2541 1666 
Q 2234 1541 1622 1453 
Q 1275 1403 1131 1340 
Q 988 1278 909 1158 
Q 831 1038 831 891 
Q 831 666 1001 516 
Q 1172 366 1500 366 
Q 1825 366 2078 508 
Q 2331 650 2450 897 
Q 2541 1088 2541 1459 
L 2541 1666 
z
" transform="scale(0.015625)"/>
      <path id="ArialMT-3a" d="M 578 2678 
L 578 3319 
L 1219 3319 
L 1219 2678 
L 578 2678 
z
M 578 0 
L 578 641 
L 1219 641 
L 1219 0 
L 578 0 
z
" transform="scale(0.015625)"/>
      <path id="ArialMT-4f" d="M 309 2231 
Q 309 3372 921 4017 
Q 1534 4663 2503 4663 
Q 3138 4663 3647 4359 
Q 4156 4056 4423 3514 
Q 4691 2972 4691 2284 
Q 4691 1588 4409 1038 
Q 4128 488 3612 205 
Q 3097 -78 2500 -78 
Q 1853 -78 1343 234 
Q 834 547 571 1087 
Q 309 1628 309 2231 
z
M 934 2222 
Q 934 1394 1379 917 
Q 1825 441 2497 441 
Q 3181 441 3623 922 
Q 4066 1403 4066 2288 
Q 4066 2847 3877 3264 
Q 3688 3681 3323 3911 
Q 2959 4141 2506 4141 
Q 1863 4141 1398 3698 
Q 934 3256 934 2222 
z
" transform="scale(0.015625)"/>
      <path id="ArialMT-6c" d="M 409 0 
L 409 4581 
L 972 4581 
L 972 0 
L 409 0 
z
" transform="scale(0.015625)"/>
      <path id="ArialMT-53" d="M 288 1472 
L 859 1522 
Q 900 1178 1048 958 
Q 1197 738 1509 602 
Q 1822 466 2213 466 
Q 2559 466 2825 569 
Q 3091 672 3220 851 
Q 3350 1031 3350 1244 
Q 3350 1459 3225 1620 
Q 3100 1781 2813 1891 
Q 2628 1963 1997 2114 
Q 1366 2266 1113 2400 
Q 784 2572 623 2826 
Q 463 3081 463 3397 
Q 463 3744 659 4045 
Q 856 4347 1234 4503 
Q 1613 4659 2075 4659 
Q 2584 4659 2973 4495 
Q 3363 4331 3572 4012 
Q 3781 3694 3797 3291 
L 3216 3247 
Q 3169 3681 2898 3903 
Q 2628 4125 2100 4125 
Q 1550 4125 1298 3923 
Q 1047 3722 1047 3438 
Q 1047 3191 1225 3031 
Q 1400 2872 2139 2705 
Q 2878 2538 3153 2413 
Q 3553 2228 3743 1945 
Q 3934 1663 3934 1294 
Q 3934 928 3725 604 
Q 3516 281 3123 101 
Q 2731 -78 2241 -78 
Q 1619 -78 1198 103 
Q 778 284 539 648 
Q 300 1013 288 1472 
z
" transform="scale(0.015625)"/>
      <path id="ArialMT-68" d="M 422 0 
L 422 4581 
L 984 4581 
L 984 2938 
Q 1378 3394 1978 3394 
Q 2347 3394 2619 3248 
Q 2891 3103 3008 2847 
Q 3125 2591 3125 2103 
L 3125 0 
L 2563 0 
L 2563 2103 
Q 2563 2525 2380 2717 
Q 2197 2909 1863 2909 
Q 1613 2909 1392 2779 
Q 1172 2650 1078 2428 
Q 984 2206 984 1816 
L 984 0 
L 422 0 
z
" transform="scale(0.015625)"/>
      <path id="ArialMT-75" d="M 2597 0 
L 2597 488 
Q 2209 -75 1544 -75 
Q 1250 -75 995 37 
Q 741 150 617 320 
Q 494 491 444 738 
Q 409 903 409 1263 
L 409 3319 
L 972 3319 
L 972 1478 
Q 972 1038 1006 884 
Q 1059 663 1231 536 
Q 1403 409 1656 409 
Q 1909 409 2131 539 
Q 2353 669 2445 892 
Q 2538 1116 2538 1541 
L 2538 3319 
L 3100 3319 
L 3100 0 
L 2597 0 
z
" transform="scale(0.015625)"/>
      <path id="ArialMT-66" d="M 556 0 
L 556 2881 
L 59 2881 
L 59 3319 
L 556 3319 
L 556 3672 
Q 556 4006 616 4169 
Q 697 4388 901 4523 
Q 1106 4659 1475 4659 
Q 1713 4659 2000 4603 
L 1916 4113 
Q 1741 4144 1584 4144 
Q 1328 4144 1222 4034 
Q 1116 3925 1116 3625 
L 1116 3319 
L 1763 3319 
L 1763 2881 
L 1116 2881 
L 1116 0 
L 556 0 
z
" transform="scale(0.015625)"/>
      <path id="ArialMT-64" d="M 2575 0 
L 2575 419 
Q 2259 -75 1647 -75 
Q 1250 -75 917 144 
Q 584 363 401 755 
Q 219 1147 219 1656 
Q 219 2153 384 2558 
Q 550 2963 881 3178 
Q 1213 3394 1622 3394 
Q 1922 3394 2156 3267 
Q 2391 3141 2538 2938 
L 2538 4581 
L 3097 4581 
L 3097 0 
L 2575 0 
z
M 797 1656 
Q 797 1019 1065 703 
Q 1334 388 1700 388 
Q 2069 388 2326 689 
Q 2584 991 2584 1609 
Q 2584 2291 2321 2609 
Q 2059 2928 1675 2928 
Q 1300 2928 1048 2622 
Q 797 2316 797 1656 
z
" transform="scale(0.015625)"/>
     </defs>
     <use xlink:href="#ArialMT-44"/>
     <use xlink:href="#ArialMT-69" x="72.216797"/>
     <use xlink:href="#ArialMT-76" x="94.433594"/>
     <use xlink:href="#ArialMT-65" x="144.433594"/>
     <use xlink:href="#ArialMT-72" x="200.048828"/>
     <use xlink:href="#ArialMT-67" x="233.349609"/>
     <use xlink:href="#ArialMT-65" x="288.964844"/>
     <use xlink:href="#ArialMT-6e" x="344.580078"/>
     <use xlink:href="#ArialMT-63" x="400.195312"/>
     <use xlink:href="#ArialMT-65" x="450.195312"/>
     <use xlink:href="#ArialMT-20" x="505.810547"/>
     <use xlink:href="#ArialMT-43" x="533.59375"/>
     <use xlink:href="#ArialMT-6f" x="605.810547"/>
     <use xlink:href="#ArialMT-6d" x="661.425781"/>
     <use xlink:href="#ArialMT-70" x="744.726562"/>
     <use xlink:href="#ArialMT-61" x="800.341797"/>
     <use xlink:href="#ArialMT-72" x="855.957031"/>
     <use xlink:href="#ArialMT-69" x="889.257812"/>
     <use xlink:href="#ArialMT-73" x="911.474609"/>
     <use xlink:href="#ArialMT-6f" x="961.474609"/>
     <use xlink:href="#ArialMT-6e" x="1017.089844"/>
     <use xlink:href="#ArialMT-3a" x="1072.705078"/>
     <use xlink:href="#ArialMT-20" x="1100.488281"/>
     <use xlink:href="#ArialMT-4f" x="1128.271484"/>
     <use xlink:href="#ArialMT-72" x="1206.054688"/>
     <use xlink:href="#ArialMT-69" x="1239.355469"/>
     <use xlink:href="#ArialMT-67" x="1261.572266"/>
     <use xlink:href="#ArialMT-69" x="1317.1875"/>
     <use xlink:href="#ArialMT-6e" x="1339.404297"/>
     <use xlink:href="#ArialMT-61" x="1395.019531"/>
     <use xlink:href="#ArialMT-6c" x="1450.634766"/>
     <use xlink:href="#ArialMT-20" x="1472.851562"/>
     <use xlink:href="#ArialMT-76" x="1500.634766"/>
     <use xlink:href="#ArialMT-73" x="1550.634766"/>
     <use xlink:href="#ArialMT-20" x="1600.634766"/>
     <use xlink:href="#ArialMT-53" x="1628.417969"/>
     <use xlink:href="#ArialMT-68" x="1695.117188"/>
     <use xlink:href="#ArialMT-75" x="1750.732422"/>
     <use xlink:href="#ArialMT-66" x="1806.347656"/>
     <use xlink:href="#ArialMT-66" x="1832.380859"/>
     <use xlink:href="#ArialMT-6c" x="1860.164062"/>
     <use xlink:href="#ArialMT-65" x="1882.380859"/>
     <use xlink:href="#ArialMT-64" x="1937.996094"/>
    </g>
   </g>
   <g id="legend_1">
    <g id="patch_5">
     <path d="M 615.14 259.415469 
L 704.741875 259.415469 
Q 706.941875 259.415469 706.941875 257.215469 
L 706.941875 148.284531 
Q 706.941875 146.084531 704.741875 146.084531 
L 615.14 146.084531 
Q 612.94 146.084531 612.94 148.284531 
L 612.94 257.215469 
Q 612.94 259.415469 615.14 259.415469 
z
" style="fill: #ffffff; opacity: 0.8; stroke: #cccccc; stroke-linejoin: miter"/>
    </g>
    <g id="line2d_22">
     <path d="M 617.34 154.649062 
L 628.34 154.649062 
L 639.34 154.649062 
" style="fill: none; stroke: #6060eb; stroke-width: 2; stroke-linecap: round"/>
    </g>
    <g id="text_17">
     <!-- Original -->
     <g style="fill: #262626" transform="translate(648.14 158.499062) scale(0.11 -0.11)">
      <use xlink:href="#ArialMT-4f"/>
      <use xlink:href="#ArialMT-72" x="77.783203"/>
      <use xlink:href="#ArialMT-69" x="111.083984"/>
      <use xlink:href="#ArialMT-67" x="133.300781"/>
      <use xlink:href="#ArialMT-69" x="188.916016"/>
      <use xlink:href="#ArialMT-6e" x="211.132812"/>
      <use xlink:href="#ArialMT-61" x="266.748047"/>
      <use xlink:href="#ArialMT-6c" x="322.363281"/>
     </g>
    </g>
    <g id="line2d_23">
     <path d="M 617.34 170.47875 
L 628.34 170.47875 
L 639.34 170.47875 
" style="fill: none; stroke-dasharray: 7.4,3.2; stroke-dashoffset: 0; stroke: #6060eb; stroke-width: 2"/>
    </g>
    <g id="text_18">
     <!-- Original -->
     <g style="fill: #262626" transform="translate(648.14 174.32875) scale(0.11 -0.11)">
      <use xlink:href="#ArialMT-4f"/>
      <use xlink:href="#ArialMT-72" x="77.783203"/>
      <use xlink:href="#ArialMT-69" x="111.083984"/>
      <use xlink:href="#ArialMT-67" x="133.300781"/>
      <use xlink:href="#ArialMT-69" x="188.916016"/>
      <use xlink:href="#ArialMT-6e" x="211.132812"/>
      <use xlink:href="#ArialMT-61" x="266.748047"/>
      <use xlink:href="#ArialMT-6c" x="322.363281"/>
     </g>
    </g>
    <g id="PathCollection_3">
     <g>
      <use xlink:href="#mfdfc3708b7" x="628.34" y="187.162656" style="fill: #6060eb; stroke: #6060eb"/>
     </g>
    </g>
    <g id="text_19">
     <!-- p &lt; 0.001 -->
     <g style="fill: #262626" transform="translate(648.14 190.050156) scale(0.11 -0.11)">
      <defs>
       <path id="ArialMT-3c" d="M 350 2003 
L 350 2528 
L 3384 3809 
L 3384 3250 
L 978 2263 
L 3384 1266 
L 3384 706 
L 350 2003 
z
" transform="scale(0.015625)"/>
      </defs>
      <use xlink:href="#ArialMT-70"/>
      <use xlink:href="#ArialMT-20" x="55.615234"/>
      <use xlink:href="#ArialMT-3c" x="83.398438"/>
      <use xlink:href="#ArialMT-20" x="141.796875"/>
      <use xlink:href="#ArialMT-30" x="169.580078"/>
      <use xlink:href="#ArialMT-2e" x="225.195312"/>
      <use xlink:href="#ArialMT-30" x="252.978516"/>
      <use xlink:href="#ArialMT-30" x="308.59375"/>
      <use xlink:href="#ArialMT-31" x="364.208984"/>
     </g>
    </g>
    <g id="line2d_24">
     <path d="M 617.34 201.76 
L 628.34 201.76 
L 639.34 201.76 
" style="fill: none; stroke-dasharray: 5.55,2.4; stroke-dashoffset: 0; stroke: #1a1a1a; stroke-width: 1.5"/>
    </g>
    <g id="text_20">
     <!-- Stim Onset -->
     <g style="fill: #262626" transform="translate(648.14 205.61) scale(0.11 -0.11)">
      <defs>
       <path id="ArialMT-74" d="M 1650 503 
L 1731 6 
Q 1494 -44 1306 -44 
Q 1000 -44 831 53 
Q 663 150 594 308 
Q 525 466 525 972 
L 525 2881 
L 113 2881 
L 113 3319 
L 525 3319 
L 525 4141 
L 1084 4478 
L 1084 3319 
L 1650 3319 
L 1650 2881 
L 1084 2881 
L 1084 941 
Q 1084 700 1114 631 
Q 1144 563 1211 522 
Q 1278 481 1403 481 
Q 1497 481 1650 503 
z
" transform="scale(0.015625)"/>
      </defs>
      <use xlink:href="#ArialMT-53"/>
      <use xlink:href="#ArialMT-74" x="66.699219"/>
      <use xlink:href="#ArialMT-69" x="94.482422"/>
      <use xlink:href="#ArialMT-6d" x="116.699219"/>
      <use xlink:href="#ArialMT-20" x="200"/>
      <use xlink:href="#ArialMT-4f" x="227.783203"/>
      <use xlink:href="#ArialMT-6e" x="305.566406"/>
      <use xlink:href="#ArialMT-73" x="361.181641"/>
      <use xlink:href="#ArialMT-65" x="411.181641"/>
      <use xlink:href="#ArialMT-74" x="466.796875"/>
     </g>
    </g>
    <g id="line2d_25">
     <path d="M 617.34 217.319844 
L 628.34 217.319844 
L 639.34 217.319844 
" style="fill: none; stroke-dasharray: 5.55,2.4; stroke-dashoffset: 0; stroke: #1a1a1a; stroke-width: 1.5"/>
    </g>
    <g id="text_21">
     <!-- Stim End -->
     <g style="fill: #262626" transform="translate(648.14 221.169844) scale(0.11 -0.11)">
      <defs>
       <path id="ArialMT-45" d="M 506 0 
L 506 4581 
L 3819 4581 
L 3819 4041 
L 1113 4041 
L 1113 2638 
L 3647 2638 
L 3647 2100 
L 1113 2100 
L 1113 541 
L 3925 541 
L 3925 0 
L 506 0 
z
" transform="scale(0.015625)"/>
      </defs>
      <use xlink:href="#ArialMT-53"/>
      <use xlink:href="#ArialMT-74" x="66.699219"/>
      <use xlink:href="#ArialMT-69" x="94.482422"/>
      <use xlink:href="#ArialMT-6d" x="116.699219"/>
      <use xlink:href="#ArialMT-20" x="200"/>
      <use xlink:href="#ArialMT-45" x="227.783203"/>
      <use xlink:href="#ArialMT-6e" x="294.482422"/>
      <use xlink:href="#ArialMT-64" x="350.097656"/>
     </g>
    </g>
    <g id="line2d_26">
     <path d="M 617.34 233.020625 
L 628.34 233.020625 
L 639.34 233.020625 
" style="fill: none; stroke: #00008b; stroke-width: 2; stroke-linecap: round"/>
    </g>
    <g id="text_22">
     <!-- Original -->
     <g style="fill: #262626" transform="translate(648.14 236.870625) scale(0.11 -0.11)">
      <use xlink:href="#ArialMT-4f"/>
      <use xlink:href="#ArialMT-72" x="77.783203"/>
      <use xlink:href="#ArialMT-69" x="111.083984"/>
      <use xlink:href="#ArialMT-67" x="133.300781"/>
      <use xlink:href="#ArialMT-69" x="188.916016"/>
      <use xlink:href="#ArialMT-6e" x="211.132812"/>
      <use xlink:href="#ArialMT-61" x="266.748047"/>
      <use xlink:href="#ArialMT-6c" x="322.363281"/>
     </g>
    </g>
    <g id="line2d_27">
     <path d="M 617.34 248.850313 
L 628.34 248.850313 
L 639.34 248.850313 
" style="fill: none; stroke-dasharray: 7.4,3.2; stroke-dashoffset: 0; stroke: #00008b; stroke-width: 2"/>
    </g>
    <g id="text_23">
     <!-- Original -->
     <g style="fill: #262626" transform="translate(648.14 252.700312) scale(0.11 -0.11)">
      <use xlink:href="#ArialMT-4f"/>
      <use xlink:href="#ArialMT-72" x="77.783203"/>
      <use xlink:href="#ArialMT-69" x="111.083984"/>
      <use xlink:href="#ArialMT-67" x="133.300781"/>
      <use xlink:href="#ArialMT-69" x="188.916016"/>
      <use xlink:href="#ArialMT-6e" x="211.132812"/>
      <use xlink:href="#ArialMT-61" x="266.748047"/>
      <use xlink:href="#ArialMT-6c" x="322.363281"/>
     </g>
    </g>
   </g>
  </g>
 </g>
 <defs>
  <clipPath id="pee8a542713">
   <rect x="60.335" y="26.96" width="547.105" height="351.58"/>
  </clipPath>
 </defs>
</svg>
