<?xml version="1.0" encoding="utf-8" standalone="no"?>
<!DOCTYPE svg PUBLIC "-//W3C//DTD SVG 1.1//EN"
  "http://www.w3.org/Graphics/SVG/1.1/DTD/svg11.dtd">
<svg xmlns:xlink="http://www.w3.org/1999/xlink" width="576pt" height="432pt" viewBox="0 0 576 432" xmlns="http://www.w3.org/2000/svg" version="1.1">
 <metadata>
  <rdf:RDF xmlns:dc="http://purl.org/dc/elements/1.1/" xmlns:cc="http://creativecommons.org/ns#" xmlns:rdf="http://www.w3.org/1999/02/22-rdf-syntax-ns#">
   <cc:Work>
    <dc:type rdf:resource="http://purl.org/dc/dcmitype/StillImage"/>
    <dc:date>2025-11-30T10:10:00.969065</dc:date>
    <dc:format>image/svg+xml</dc:format>
    <dc:creator>
     <cc:Agent>
      <dc:title>Matplotlib v3.9.4, https://matplotlib.org/</dc:title>
     </cc:Agent>
    </dc:creator>
   </cc:Work>
  </rdf:RDF>
 </metadata>
 <defs>
  <style type="text/css">*{stroke-linejoin: round; stroke-linecap: butt}</style>
 </defs>
 <g id="figure_1">
  <g id="patch_1">
   <path d="M 0 432 
L 576 432 
L 576 0 
L 0 0 
z
" style="fill: #ffffff"/>
  </g>
  <g id="axes_1">
   <g id="patch_2">
    <path d="M 72 378 
L 518.4 378 
L 518.4 51.84 
L 72 51.84 
L 72 378 
z
" style="fill: none"/>
   </g>
   <g id="matplotlib.axis_1">
    <g id="xtick_1">
     <g id="line2d_1">
      <defs>
       <path id="me724a9b0c5" d="M 0 0 
L 0 5 
" style="stroke: #262626; stroke-width: 1.5"/>
      </defs>
      <g>
       <use xlink:href="#me724a9b0c5" x="80.493869" y="378" style="fill: #262626; stroke: #262626; stroke-width: 1.5"/>
      </g>
     </g>
     <g id="text_1">
      <!-- −250 -->
      <g style="fill: #262626" transform="translate(63.601291 397.236719) scale(0.15 -0.15)">
       <defs>
        <path id="ArialMT-2212" d="M 3381 1997 
L 356 1997 
L 356 2522 
L 3381 2522 
L 3381 1997 
z
" transform="scale(0.015625)"/>
        <path id="ArialMT-32" d="M 3222 541 
L 3222 0 
L 194 0 
Q 188 203 259 391 
Q 375 700 629 1000 
Q 884 1300 1366 1694 
Q 2113 2306 2375 2664 
Q 2638 3022 2638 3341 
Q 2638 3675 2398 3904 
Q 2159 4134 1775 4134 
Q 1369 4134 1125 3890 
Q 881 3647 878 3216 
L 300 3275 
Q 359 3922 746 4261 
Q 1134 4600 1788 4600 
Q 2447 4600 2831 4234 
Q 3216 3869 3216 3328 
Q 3216 3053 3103 2787 
Q 2991 2522 2730 2228 
Q 2469 1934 1863 1422 
Q 1356 997 1212 845 
Q 1069 694 975 541 
L 3222 541 
z
" transform="scale(0.015625)"/>
        <path id="ArialMT-35" d="M 266 1200 
L 856 1250 
Q 922 819 1161 601 
Q 1400 384 1738 384 
Q 2144 384 2425 690 
Q 2706 997 2706 1503 
Q 2706 1984 2436 2262 
Q 2166 2541 1728 2541 
Q 1456 2541 1237 2417 
Q 1019 2294 894 2097 
L 366 2166 
L 809 4519 
L 3088 4519 
L 3088 3981 
L 1259 3981 
L 1013 2750 
Q 1425 3038 1878 3038 
Q 2478 3038 2890 2622 
Q 3303 2206 3303 1553 
Q 3303 931 2941 478 
Q 2500 -78 1738 -78 
Q 1113 -78 717 272 
Q 322 622 266 1200 
z
" transform="scale(0.015625)"/>
        <path id="ArialMT-30" d="M 266 2259 
Q 266 3072 433 3567 
Q 600 4063 929 4331 
Q 1259 4600 1759 4600 
Q 2128 4600 2406 4451 
Q 2684 4303 2865 4023 
Q 3047 3744 3150 3342 
Q 3253 2941 3253 2259 
Q 3253 1453 3087 958 
Q 2922 463 2592 192 
Q 2263 -78 1759 -78 
Q 1097 -78 719 397 
Q 266 969 266 2259 
z
M 844 2259 
Q 844 1131 1108 757 
Q 1372 384 1759 384 
Q 2147 384 2411 759 
Q 2675 1134 2675 2259 
Q 2675 3391 2411 3762 
Q 2147 4134 1753 4134 
Q 1366 4134 1134 3806 
Q 844 3388 844 2259 
z
" transform="scale(0.015625)"/>
       </defs>
       <use xlink:href="#ArialMT-2212"/>
       <use xlink:href="#ArialMT-32" x="58.398438"/>
       <use xlink:href="#ArialMT-35" x="114.013672"/>
       <use xlink:href="#ArialMT-30" x="169.628906"/>
      </g>
     </g>
    </g>
    <g id="xtick_2">
     <g id="line2d_2">
      <g>
       <use xlink:href="#me724a9b0c5" x="139.47907" y="378" style="fill: #262626; stroke: #262626; stroke-width: 1.5"/>
      </g>
     </g>
     <g id="text_2">
      <!-- 0 -->
      <g style="fill: #262626" transform="translate(135.308367 397.236719) scale(0.15 -0.15)">
       <use xlink:href="#ArialMT-30"/>
      </g>
     </g>
    </g>
    <g id="xtick_3">
     <g id="line2d_3">
      <g>
       <use xlink:href="#me724a9b0c5" x="198.464271" y="378" style="fill: #262626; stroke: #262626; stroke-width: 1.5"/>
      </g>
     </g>
     <g id="text_3">
      <!-- 250 -->
      <g style="fill: #262626" transform="translate(185.952161 397.236719) scale(0.15 -0.15)">
       <use xlink:href="#ArialMT-32"/>
       <use xlink:href="#ArialMT-35" x="55.615234"/>
       <use xlink:href="#ArialMT-30" x="111.230469"/>
      </g>
     </g>
    </g>
    <g id="xtick_4">
     <g id="line2d_4">
      <g>
       <use xlink:href="#me724a9b0c5" x="257.449471" y="378" style="fill: #262626; stroke: #262626; stroke-width: 1.5"/>
      </g>
     </g>
     <g id="text_4">
      <!-- 500 -->
      <g style="fill: #262626" transform="translate(244.937362 397.236719) scale(0.15 -0.15)">
       <use xlink:href="#ArialMT-35"/>
       <use xlink:href="#ArialMT-30" x="55.615234"/>
       <use xlink:href="#ArialMT-30" x="111.230469"/>
      </g>
     </g>
    </g>
    <g id="xtick_5">
     <g id="line2d_5">
      <g>
       <use xlink:href="#me724a9b0c5" x="316.434672" y="378" style="fill: #262626; stroke: #262626; stroke-width: 1.5"/>
      </g>
     </g>
     <g id="text_5">
      <!-- 750 -->
      <g style="fill: #262626" transform="translate(303.922563 397.236719) scale(0.15 -0.15)">
       <defs>
        <path id="ArialMT-37" d="M 303 3981 
L 303 4522 
L 3269 4522 
L 3269 4084 
Q 2831 3619 2401 2847 
Q 1972 2075 1738 1259 
Q 1569 684 1522 0 
L 944 0 
Q 953 541 1156 1306 
Q 1359 2072 1739 2783 
Q 2119 3494 2547 3981 
L 303 3981 
z
" transform="scale(0.015625)"/>
       </defs>
       <use xlink:href="#ArialMT-37"/>
       <use xlink:href="#ArialMT-35" x="55.615234"/>
       <use xlink:href="#ArialMT-30" x="111.230469"/>
      </g>
     </g>
    </g>
    <g id="xtick_6">
     <g id="line2d_6">
      <g>
       <use xlink:href="#me724a9b0c5" x="375.419873" y="378" style="fill: #262626; stroke: #262626; stroke-width: 1.5"/>
      </g>
     </g>
     <g id="text_6">
      <!-- 1000 -->
      <g style="fill: #262626" transform="translate(358.737061 397.236719) scale(0.15 -0.15)">
       <defs>
        <path id="ArialMT-31" d="M 2384 0 
L 1822 0 
L 1822 3584 
Q 1619 3391 1289 3197 
Q 959 3003 697 2906 
L 697 3450 
Q 1169 3672 1522 3987 
Q 1875 4303 2022 4600 
L 2384 4600 
L 2384 0 
z
" transform="scale(0.015625)"/>
       </defs>
       <use xlink:href="#ArialMT-31"/>
       <use xlink:href="#ArialMT-30" x="55.615234"/>
       <use xlink:href="#ArialMT-30" x="111.230469"/>
       <use xlink:href="#ArialMT-30" x="166.845703"/>
      </g>
     </g>
    </g>
    <g id="xtick_7">
     <g id="line2d_7">
      <g>
       <use xlink:href="#me724a9b0c5" x="434.405074" y="378" style="fill: #262626; stroke: #262626; stroke-width: 1.5"/>
      </g>
     </g>
     <g id="text_7">
      <!-- 1250 -->
      <g style="fill: #262626" transform="translate(417.722261 397.236719) scale(0.15 -0.15)">
       <use xlink:href="#ArialMT-31"/>
       <use xlink:href="#ArialMT-32" x="55.615234"/>
       <use xlink:href="#ArialMT-35" x="111.230469"/>
       <use xlink:href="#ArialMT-30" x="166.845703"/>
      </g>
     </g>
    </g>
    <g id="xtick_8">
     <g id="line2d_8">
      <g>
       <use xlink:href="#me724a9b0c5" x="493.390275" y="378" style="fill: #262626; stroke: #262626; stroke-width: 1.5"/>
      </g>
     </g>
     <g id="text_8">
      <!-- 1500 -->
      <g style="fill: #262626" transform="translate(476.707462 397.236719) scale(0.15 -0.15)">
       <use xlink:href="#ArialMT-31"/>
       <use xlink:href="#ArialMT-35" x="55.615234"/>
       <use xlink:href="#ArialMT-30" x="111.230469"/>
       <use xlink:href="#ArialMT-30" x="166.845703"/>
      </g>
     </g>
    </g>
    <g id="text_9">
     <!-- time -->
     <g style="fill: #262626" transform="translate(281.032031 414.954687) scale(0.15 -0.15)">
      <defs>
       <path id="ArialMT-74" d="M 1650 503 
L 1731 6 
Q 1494 -44 1306 -44 
Q 1000 -44 831 53 
Q 663 150 594 308 
Q 525 466 525 972 
L 525 2881 
L 113 2881 
L 113 3319 
L 525 3319 
L 525 4141 
L 1084 4478 
L 1084 3319 
L 1650 3319 
L 1650 2881 
L 1084 2881 
L 1084 941 
Q 1084 700 1114 631 
Q 1144 563 1211 522 
Q 1278 481 1403 481 
Q 1497 481 1650 503 
z
" transform="scale(0.015625)"/>
       <path id="ArialMT-69" d="M 425 3934 
L 425 4581 
L 988 4581 
L 988 3934 
L 425 3934 
z
M 425 0 
L 425 3319 
L 988 3319 
L 988 0 
L 425 0 
z
" transform="scale(0.015625)"/>
       <path id="ArialMT-6d" d="M 422 0 
L 422 3319 
L 925 3319 
L 925 2853 
Q 1081 3097 1340 3245 
Q 1600 3394 1931 3394 
Q 2300 3394 2536 3241 
Q 2772 3088 2869 2813 
Q 3263 3394 3894 3394 
Q 4388 3394 4653 3120 
Q 4919 2847 4919 2278 
L 4919 0 
L 4359 0 
L 4359 2091 
Q 4359 2428 4304 2576 
Q 4250 2725 4106 2815 
Q 3963 2906 3769 2906 
Q 3419 2906 3187 2673 
Q 2956 2441 2956 1928 
L 2956 0 
L 2394 0 
L 2394 2156 
Q 2394 2531 2256 2718 
Q 2119 2906 1806 2906 
Q 1569 2906 1367 2781 
Q 1166 2656 1075 2415 
Q 984 2175 984 1722 
L 984 0 
L 422 0 
z
" transform="scale(0.015625)"/>
       <path id="ArialMT-65" d="M 2694 1069 
L 3275 997 
Q 3138 488 2766 206 
Q 2394 -75 1816 -75 
Q 1088 -75 661 373 
Q 234 822 234 1631 
Q 234 2469 665 2931 
Q 1097 3394 1784 3394 
Q 2450 3394 2872 2941 
Q 3294 2488 3294 1666 
Q 3294 1616 3291 1516 
L 816 1516 
Q 847 969 1125 678 
Q 1403 388 1819 388 
Q 2128 388 2347 550 
Q 2566 713 2694 1069 
z
M 847 1978 
L 2700 1978 
Q 2663 2397 2488 2606 
Q 2219 2931 1791 2931 
Q 1403 2931 1139 2672 
Q 875 2413 847 1978 
z
" transform="scale(0.015625)"/>
      </defs>
      <use xlink:href="#ArialMT-74"/>
      <use xlink:href="#ArialMT-69" x="27.783203"/>
      <use xlink:href="#ArialMT-6d" x="50"/>
      <use xlink:href="#ArialMT-65" x="133.300781"/>
     </g>
    </g>
   </g>
   <g id="matplotlib.axis_2">
    <g id="ytick_1">
     <g id="line2d_9">
      <defs>
       <path id="m9800ac8f1b" d="M 0 0 
L -5 0 
" style="stroke: #262626; stroke-width: 1.5"/>
      </defs>
      <g>
       <use xlink:href="#m9800ac8f1b" x="72" y="342.291031" style="fill: #262626; stroke: #262626; stroke-width: 1.5"/>
      </g>
     </g>
     <g id="text_10">
      <!-- 0.00 -->
      <g style="fill: #262626" transform="translate(34.308594 347.65939) scale(0.15 -0.15)">
       <defs>
        <path id="ArialMT-2e" d="M 581 0 
L 581 641 
L 1222 641 
L 1222 0 
L 581 0 
z
" transform="scale(0.015625)"/>
       </defs>
       <use xlink:href="#ArialMT-30"/>
       <use xlink:href="#ArialMT-2e" x="55.615234"/>
       <use xlink:href="#ArialMT-30" x="83.398438"/>
       <use xlink:href="#ArialMT-30" x="139.013672"/>
      </g>
     </g>
    </g>
    <g id="ytick_2">
     <g id="line2d_10">
      <g>
       <use xlink:href="#m9800ac8f1b" x="72" y="238.418851" style="fill: #262626; stroke: #262626; stroke-width: 1.5"/>
      </g>
     </g>
     <g id="text_11">
      <!-- 0.15 -->
      <g style="fill: #262626" transform="translate(34.308594 243.78721) scale(0.15 -0.15)">
       <use xlink:href="#ArialMT-30"/>
       <use xlink:href="#ArialMT-2e" x="55.615234"/>
       <use xlink:href="#ArialMT-31" x="83.398438"/>
       <use xlink:href="#ArialMT-35" x="139.013672"/>
      </g>
     </g>
    </g>
    <g id="ytick_3">
     <g id="line2d_11">
      <g>
       <use xlink:href="#m9800ac8f1b" x="72" y="134.546672" style="fill: #262626; stroke: #262626; stroke-width: 1.5"/>
      </g>
     </g>
     <g id="text_12">
      <!-- 0.30 -->
      <g style="fill: #262626" transform="translate(34.308594 139.915031) scale(0.15 -0.15)">
       <defs>
        <path id="ArialMT-33" d="M 269 1209 
L 831 1284 
Q 928 806 1161 595 
Q 1394 384 1728 384 
Q 2125 384 2398 659 
Q 2672 934 2672 1341 
Q 2672 1728 2419 1979 
Q 2166 2231 1775 2231 
Q 1616 2231 1378 2169 
L 1441 2663 
Q 1497 2656 1531 2656 
Q 1891 2656 2178 2843 
Q 2466 3031 2466 3422 
Q 2466 3731 2256 3934 
Q 2047 4138 1716 4138 
Q 1388 4138 1169 3931 
Q 950 3725 888 3313 
L 325 3413 
Q 428 3978 793 4289 
Q 1159 4600 1703 4600 
Q 2078 4600 2393 4439 
Q 2709 4278 2876 4000 
Q 3044 3722 3044 3409 
Q 3044 3113 2884 2869 
Q 2725 2625 2413 2481 
Q 2819 2388 3044 2092 
Q 3269 1797 3269 1353 
Q 3269 753 2831 336 
Q 2394 -81 1725 -81 
Q 1122 -81 723 278 
Q 325 638 269 1209 
z
" transform="scale(0.015625)"/>
       </defs>
       <use xlink:href="#ArialMT-30"/>
       <use xlink:href="#ArialMT-2e" x="55.615234"/>
       <use xlink:href="#ArialMT-33" x="83.398438"/>
       <use xlink:href="#ArialMT-30" x="139.013672"/>
      </g>
     </g>
    </g>
    <g id="text_13">
     <!-- firing rate -->
     <g style="fill: #262626" transform="translate(27.151562 246.180937) rotate(-90) scale(0.15 -0.15)">
      <defs>
       <path id="ArialMT-66" d="M 556 0 
L 556 2881 
L 59 2881 
L 59 3319 
L 556 3319 
L 556 3672 
Q 556 4006 616 4169 
Q 697 4388 901 4523 
Q 1106 4659 1475 4659 
Q 1713 4659 2000 4603 
L 1916 4113 
Q 1741 4144 1584 4144 
Q 1328 4144 1222 4034 
Q 1116 3925 1116 3625 
L 1116 3319 
L 1763 3319 
L 1763 2881 
L 1116 2881 
L 1116 0 
L 556 0 
z
" transform="scale(0.015625)"/>
       <path id="ArialMT-72" d="M 416 0 
L 416 3319 
L 922 3319 
L 922 2816 
Q 1116 3169 1280 3281 
Q 1444 3394 1641 3394 
Q 1925 3394 2219 3213 
L 2025 2691 
Q 1819 2813 1613 2813 
Q 1428 2813 1281 2702 
Q 1134 2591 1072 2394 
Q 978 2094 978 1738 
L 978 0 
L 416 0 
z
" transform="scale(0.015625)"/>
       <path id="ArialMT-6e" d="M 422 0 
L 422 3319 
L 928 3319 
L 928 2847 
Q 1294 3394 1984 3394 
Q 2284 3394 2536 3286 
Q 2788 3178 2913 3003 
Q 3038 2828 3088 2588 
Q 3119 2431 3119 2041 
L 3119 0 
L 2556 0 
L 2556 2019 
Q 2556 2363 2490 2533 
Q 2425 2703 2258 2804 
Q 2091 2906 1866 2906 
Q 1506 2906 1245 2678 
Q 984 2450 984 1813 
L 984 0 
L 422 0 
z
" transform="scale(0.015625)"/>
       <path id="ArialMT-67" d="M 319 -275 
L 866 -356 
Q 900 -609 1056 -725 
Q 1266 -881 1628 -881 
Q 2019 -881 2231 -725 
Q 2444 -569 2519 -288 
Q 2563 -116 2559 434 
Q 2191 0 1641 0 
Q 956 0 581 494 
Q 206 988 206 1678 
Q 206 2153 378 2554 
Q 550 2956 876 3175 
Q 1203 3394 1644 3394 
Q 2231 3394 2613 2919 
L 2613 3319 
L 3131 3319 
L 3131 450 
Q 3131 -325 2973 -648 
Q 2816 -972 2473 -1159 
Q 2131 -1347 1631 -1347 
Q 1038 -1347 672 -1080 
Q 306 -813 319 -275 
z
M 784 1719 
Q 784 1066 1043 766 
Q 1303 466 1694 466 
Q 2081 466 2343 764 
Q 2606 1063 2606 1700 
Q 2606 2309 2336 2618 
Q 2066 2928 1684 2928 
Q 1309 2928 1046 2623 
Q 784 2319 784 1719 
z
" transform="scale(0.015625)"/>
       <path id="ArialMT-20" transform="scale(0.015625)"/>
       <path id="ArialMT-61" d="M 2588 409 
Q 2275 144 1986 34 
Q 1697 -75 1366 -75 
Q 819 -75 525 192 
Q 231 459 231 875 
Q 231 1119 342 1320 
Q 453 1522 633 1644 
Q 813 1766 1038 1828 
Q 1203 1872 1538 1913 
Q 2219 1994 2541 2106 
Q 2544 2222 2544 2253 
Q 2544 2597 2384 2738 
Q 2169 2928 1744 2928 
Q 1347 2928 1158 2789 
Q 969 2650 878 2297 
L 328 2372 
Q 403 2725 575 2942 
Q 747 3159 1072 3276 
Q 1397 3394 1825 3394 
Q 2250 3394 2515 3294 
Q 2781 3194 2906 3042 
Q 3031 2891 3081 2659 
Q 3109 2516 3109 2141 
L 3109 1391 
Q 3109 606 3145 398 
Q 3181 191 3288 0 
L 2700 0 
Q 2613 175 2588 409 
z
M 2541 1666 
Q 2234 1541 1622 1453 
Q 1275 1403 1131 1340 
Q 988 1278 909 1158 
Q 831 1038 831 891 
Q 831 666 1001 516 
Q 1172 366 1500 366 
Q 1825 366 2078 508 
Q 2331 650 2450 897 
Q 2541 1088 2541 1459 
L 2541 1666 
z
" transform="scale(0.015625)"/>
      </defs>
      <use xlink:href="#ArialMT-66"/>
      <use xlink:href="#ArialMT-69" x="27.783203"/>
      <use xlink:href="#ArialMT-72" x="50"/>
      <use xlink:href="#ArialMT-69" x="83.300781"/>
      <use xlink:href="#ArialMT-6e" x="105.517578"/>
      <use xlink:href="#ArialMT-67" x="161.132812"/>
      <use xlink:href="#ArialMT-20" x="216.748047"/>
      <use xlink:href="#ArialMT-72" x="244.53125"/>
      <use xlink:href="#ArialMT-61" x="277.832031"/>
      <use xlink:href="#ArialMT-74" x="333.447266"/>
      <use xlink:href="#ArialMT-65" x="361.230469"/>
     </g>
    </g>
   </g>
   <g id="PolyCollection_1">
    <defs>
     <path id="m6e606776e2" d="M 92.290909 -94.113798 
L 92.290909 -89.977905 
L 97.009725 -89.157761 
L 101.728541 -90.043356 
L 106.447357 -89.448775 
L 111.166173 -89.574071 
L 115.884989 -89.490696 
L 120.603805 -89.429152 
L 125.322622 -89.052637 
L 130.041438 -89.269641 
L 134.760254 -89.378756 
L 139.47907 -92.465231 
L 144.197886 -92.253834 
L 148.916702 -93.228645 
L 153.635518 -94.75296 
L 158.354334 -95.874725 
L 163.07315 -96.36622 
L 167.791966 -95.888429 
L 172.510782 -96.894469 
L 177.229598 -97.155231 
L 181.948414 -97.43524 
L 186.66723 -99.541467 
L 191.386047 -100.066036 
L 196.104863 -101.310096 
L 200.823679 -101.605248 
L 205.542495 -103.326395 
L 210.261311 -106.258546 
L 214.980127 -106.058852 
L 219.698943 -108.456635 
L 224.417759 -113.422671 
L 229.136575 -120.507404 
L 233.855391 -124.654274 
L 238.574207 -127.094941 
L 243.293023 -130.420894 
L 248.011839 -133.996222 
L 252.730655 -134.362604 
L 257.449471 -136.36112 
L 262.168288 -137.205306 
L 266.887104 -139.177952 
L 271.60592 -140.797462 
L 276.324736 -142.947721 
L 281.043552 -142.601312 
L 285.762368 -142.968842 
L 290.481184 -143.40003 
L 295.2 -145.617704 
L 299.918816 -146.390898 
L 304.637632 -145.35679 
L 309.356448 -146.151303 
L 314.075264 -146.334201 
L 318.79408 -148.546496 
L 323.512896 -150.620031 
L 328.231712 -152.879846 
L 332.950529 -151.920705 
L 337.669345 -153.757333 
L 342.388161 -155.805554 
L 347.106977 -158.234804 
L 351.825793 -157.263092 
L 356.544609 -157.203961 
L 361.263425 -162.290167 
L 365.982241 -167.035181 
L 370.701057 -166.851026 
L 375.419873 -160.788247 
L 380.138689 -175.071259 
L 384.857505 -167.856647 
L 389.576321 -157.186412 
L 394.295137 -154.514135 
L 399.013953 -154.647199 
L 403.73277 -161.096965 
L 408.451586 -166.948993 
L 413.170402 -168.475812 
L 417.889218 -169.101603 
L 422.608034 -169.846523 
L 427.32685 -170.08061 
L 432.045666 -171.133203 
L 436.764482 -172.060052 
L 441.483298 -172.885974 
L 446.202114 -172.164927 
L 450.92093 -173.482393 
L 455.639746 -174.177378 
L 460.358562 -174.112121 
L 465.077378 -177.171625 
L 469.796195 -177.891825 
L 474.515011 -178.88335 
L 479.233827 -179.201627 
L 483.952643 -181.009838 
L 488.671459 -179.350618 
L 493.390275 -179.452671 
L 498.109091 -179.726301 
L 498.109091 -215.493617 
L 498.109091 -215.493617 
L 493.390275 -214.955133 
L 488.671459 -214.600798 
L 483.952643 -215.874882 
L 479.233827 -212.763948 
L 474.515011 -212.796436 
L 469.796195 -210.635409 
L 465.077378 -209.691972 
L 460.358562 -206.399117 
L 455.639746 -205.909697 
L 450.92093 -204.691966 
L 446.202114 -203.667088 
L 441.483298 -204.357741 
L 436.764482 -202.653463 
L 432.045666 -201.228533 
L 427.32685 -199.306091 
L 422.608034 -197.448427 
L 417.889218 -197.791657 
L 413.170402 -195.481481 
L 408.451586 -193.597476 
L 403.73277 -185.665094 
L 399.013953 -178.516962 
L 394.295137 -179.876584 
L 389.576321 -182.443258 
L 384.857505 -194.765596 
L 380.138689 -205.192518 
L 375.419873 -179.006981 
L 370.701057 -184.193277 
L 365.982241 -184.549697 
L 361.263425 -179.409935 
L 356.544609 -174.382814 
L 351.825793 -174.162845 
L 347.106977 -174.928232 
L 342.388161 -172.49284 
L 337.669345 -169.305026 
L 332.950529 -168.003304 
L 328.231712 -168.155512 
L 323.512896 -166.679984 
L 318.79408 -165.389373 
L 314.075264 -163.015035 
L 309.356448 -160.608161 
L 304.637632 -158.412384 
L 299.918816 -159.249909 
L 295.2 -157.935923 
L 290.481184 -155.850508 
L 285.762368 -155.196689 
L 281.043552 -154.05734 
L 276.324736 -153.094343 
L 271.60592 -150.899613 
L 266.887104 -148.997332 
L 262.168288 -147.836159 
L 257.449471 -147.078164 
L 252.730655 -145.496943 
L 248.011839 -143.271262 
L 243.293023 -138.498251 
L 238.574207 -134.53108 
L 233.855391 -131.929068 
L 229.136575 -127.283663 
L 224.417759 -120.431858 
L 219.698943 -114.545941 
L 214.980127 -111.940012 
L 210.261311 -111.642653 
L 205.542495 -108.019998 
L 200.823679 -106.59026 
L 196.104863 -105.478896 
L 191.386047 -104.048807 
L 186.66723 -102.589633 
L 181.948414 -100.068923 
L 177.229598 -100.877186 
L 172.510782 -99.74373 
L 167.791966 -98.963343 
L 163.07315 -98.538085 
L 158.354334 -98.790037 
L 153.635518 -97.205941 
L 148.916702 -95.404512 
L 144.197886 -94.96897 
L 139.47907 -94.937425 
L 134.760254 -90.249017 
L 130.041438 -90.862285 
L 125.322622 -90.230916 
L 120.603805 -90.184564 
L 115.884989 -90.297003 
L 111.166173 -90.883384 
L 106.447357 -90.404317 
L 101.728541 -90.775118 
L 97.009725 -90.40632 
L 92.290909 -94.113798 
z
" style="stroke: #1e72ff; stroke-opacity: 0.1"/>
    </defs>
    <g clip-path="url(#p320ff32f64)">
     <use xlink:href="#m6e606776e2" x="0" y="432" style="fill: #1e72ff; fill-opacity: 0.1; stroke: #1e72ff; stroke-opacity: 0.1"/>
    </g>
   </g>
   <g id="PolyCollection_2">
    <defs>
     <path id="mbca0c4d0c8" d="M 92.290909 -92.96028 
L 92.290909 -90.413295 
L 97.009725 -89.86997 
L 101.728541 -89.996584 
L 106.447357 -95.37029 
L 111.166173 -103.646803 
L 115.884989 -103.691982 
L 120.603805 -106.620012 
L 125.322622 -108.065578 
L 130.041438 -109.772414 
L 134.760254 -113.903608 
L 139.47907 -118.864537 
L 144.197886 -123.625626 
L 148.916702 -125.883205 
L 153.635518 -124.337275 
L 158.354334 -124.54149 
L 163.07315 -125.390489 
L 167.791966 -124.317126 
L 172.510782 -123.510565 
L 177.229598 -121.929067 
L 181.948414 -119.228267 
L 186.66723 -116.866083 
L 191.386047 -117.608989 
L 196.104863 -117.503734 
L 200.823679 -116.622051 
L 205.542495 -117.224638 
L 210.261311 -117.778392 
L 214.980127 -119.16029 
L 219.698943 -120.001728 
L 224.417759 -122.964409 
L 229.136575 -124.996145 
L 233.855391 -127.632624 
L 238.574207 -131.02789 
L 243.293023 -134.586386 
L 248.011839 -138.016865 
L 252.730655 -142.977451 
L 257.449471 -146.775304 
L 262.168288 -150.940228 
L 266.887104 -155.920962 
L 271.60592 -160.850822 
L 276.324736 -165.578828 
L 281.043552 -170.061534 
L 285.762368 -175.407956 
L 290.481184 -180.244159 
L 295.2 -185.722239 
L 299.918816 -190.538746 
L 304.637632 -196.197625 
L 309.356448 -201.426123 
L 314.075264 -206.196519 
L 318.79408 -211.546181 
L 323.512896 -216.245522 
L 328.231712 -220.841419 
L 332.950529 -225.598285 
L 337.669345 -230.055233 
L 342.388161 -234.302724 
L 347.106977 -237.560527 
L 351.825793 -241.946489 
L 356.544609 -245.794292 
L 361.263425 -249.53999 
L 365.982241 -253.217937 
L 370.701057 -256.786198 
L 375.419873 -260.51191 
L 380.138689 -262.484497 
L 384.857505 -266.214501 
L 389.576321 -272.163606 
L 394.295137 -277.138675 
L 399.013953 -281.289585 
L 403.73277 -284.425339 
L 408.451586 -287.624461 
L 413.170402 -291.274662 
L 417.889218 -294.296862 
L 422.608034 -296.847403 
L 427.32685 -299.563729 
L 432.045666 -302.265416 
L 436.764482 -305.35261 
L 441.483298 -309.062905 
L 446.202114 -311.476499 
L 450.92093 -313.905066 
L 455.639746 -315.828673 
L 460.358562 -317.799465 
L 465.077378 -319.223064 
L 469.796195 -321.550527 
L 474.515011 -324.19901 
L 479.233827 -326.321679 
L 483.952643 -327.601605 
L 488.671459 -328.898462 
L 493.390275 -329.689495 
L 498.109091 -330.200983 
L 498.109091 -365.334545 
L 498.109091 -365.334545 
L 493.390275 -364.356716 
L 488.671459 -363.179812 
L 483.952643 -361.719843 
L 479.233827 -359.733944 
L 474.515011 -357.008872 
L 469.796195 -353.860062 
L 465.077378 -351.105878 
L 460.358562 -349.19236 
L 455.639746 -346.737447 
L 450.92093 -344.195811 
L 446.202114 -341.209565 
L 441.483298 -338.323081 
L 436.764482 -334.050237 
L 432.045666 -330.772539 
L 427.32685 -327.171769 
L 422.608034 -324.07618 
L 417.889218 -321.00367 
L 413.170402 -317.467171 
L 408.451586 -313.533823 
L 403.73277 -309.764217 
L 399.013953 -305.939537 
L 394.295137 -301.058039 
L 389.576321 -295.591533 
L 384.857505 -288.985487 
L 380.138689 -283.562975 
L 375.419873 -280.865691 
L 370.701057 -276.895941 
L 365.982241 -272.416352 
L 361.263425 -268.277398 
L 356.544609 -263.557542 
L 351.825793 -259.025839 
L 347.106977 -254.151051 
L 342.388161 -250.421448 
L 337.669345 -245.764881 
L 332.950529 -240.458251 
L 328.231712 -235.392527 
L 323.512896 -230.316363 
L 318.79408 -225.217138 
L 314.075264 -219.725511 
L 309.356448 -214.077025 
L 304.637632 -208.194871 
L 299.918816 -201.760272 
L 295.2 -196.571548 
L 290.481184 -191.131871 
L 285.762368 -186.256605 
L 281.043552 -180.686901 
L 276.324736 -176.101876 
L 271.60592 -171.114469 
L 266.887104 -166.021132 
L 262.168288 -161.486342 
L 257.449471 -157.224286 
L 252.730655 -153.045872 
L 248.011839 -148.574851 
L 243.293023 -144.986179 
L 238.574207 -141.504758 
L 233.855391 -138.076639 
L 229.136575 -135.437836 
L 224.417759 -133.484911 
L 219.698943 -130.820247 
L 214.980127 -129.791604 
L 210.261311 -128.799314 
L 205.542495 -128.701293 
L 200.823679 -127.604495 
L 196.104863 -127.962074 
L 191.386047 -127.826173 
L 186.66723 -127.313292 
L 181.948414 -128.634151 
L 177.229598 -130.535633 
L 172.510782 -130.938633 
L 167.791966 -132.079934 
L 163.07315 -132.240256 
L 158.354334 -130.841705 
L 153.635518 -128.895896 
L 148.916702 -129.726551 
L 144.197886 -128.08077 
L 139.47907 -123.110334 
L 134.760254 -117.433668 
L 130.041438 -114.150952 
L 125.322622 -112.09552 
L 120.603805 -110.987011 
L 115.884989 -108.438733 
L 111.166173 -107.940958 
L 106.447357 -99.811595 
L 101.728541 -94.716982 
L 97.009725 -94.616904 
L 92.290909 -92.96028 
z
" style="stroke: #1e408b; stroke-opacity: 0.2"/>
    </defs>
    <g clip-path="url(#p320ff32f64)">
     <use xlink:href="#mbca0c4d0c8" x="0" y="432" style="fill: #1e408b; fill-opacity: 0.2; stroke: #1e408b; stroke-opacity: 0.2"/>
    </g>
   </g>
   <g id="PathCollection_1">
    <defs>
     <path id="m51a4c185bb" d="M -2.5 2.5 
L 2.5 2.5 
L 2.5 -2.5 
L -2.5 -2.5 
z
" style="stroke: #1e72ff"/>
    </defs>
    <g clip-path="url(#p320ff32f64)">
     <use xlink:href="#m51a4c185bb" x="210.261311" y="355.426148" style="fill: #1e72ff; stroke: #1e72ff"/>
     <use xlink:href="#m51a4c185bb" x="219.698943" y="355.426148" style="fill: #1e72ff; stroke: #1e72ff"/>
     <use xlink:href="#m51a4c185bb" x="224.417759" y="355.426148" style="fill: #1e72ff; stroke: #1e72ff"/>
     <use xlink:href="#m51a4c185bb" x="229.136575" y="355.426148" style="fill: #1e72ff; stroke: #1e72ff"/>
     <use xlink:href="#m51a4c185bb" x="233.855391" y="355.426148" style="fill: #1e72ff; stroke: #1e72ff"/>
     <use xlink:href="#m51a4c185bb" x="238.574207" y="355.426148" style="fill: #1e72ff; stroke: #1e72ff"/>
     <use xlink:href="#m51a4c185bb" x="243.293023" y="355.426148" style="fill: #1e72ff; stroke: #1e72ff"/>
     <use xlink:href="#m51a4c185bb" x="248.011839" y="355.426148" style="fill: #1e72ff; stroke: #1e72ff"/>
     <use xlink:href="#m51a4c185bb" x="252.730655" y="355.426148" style="fill: #1e72ff; stroke: #1e72ff"/>
     <use xlink:href="#m51a4c185bb" x="257.449471" y="355.426148" style="fill: #1e72ff; stroke: #1e72ff"/>
     <use xlink:href="#m51a4c185bb" x="262.168288" y="355.426148" style="fill: #1e72ff; stroke: #1e72ff"/>
     <use xlink:href="#m51a4c185bb" x="266.887104" y="355.426148" style="fill: #1e72ff; stroke: #1e72ff"/>
     <use xlink:href="#m51a4c185bb" x="271.60592" y="355.426148" style="fill: #1e72ff; stroke: #1e72ff"/>
     <use xlink:href="#m51a4c185bb" x="276.324736" y="355.426148" style="fill: #1e72ff; stroke: #1e72ff"/>
     <use xlink:href="#m51a4c185bb" x="281.043552" y="355.426148" style="fill: #1e72ff; stroke: #1e72ff"/>
     <use xlink:href="#m51a4c185bb" x="285.762368" y="355.426148" style="fill: #1e72ff; stroke: #1e72ff"/>
     <use xlink:href="#m51a4c185bb" x="290.481184" y="355.426148" style="fill: #1e72ff; stroke: #1e72ff"/>
     <use xlink:href="#m51a4c185bb" x="295.2" y="355.426148" style="fill: #1e72ff; stroke: #1e72ff"/>
     <use xlink:href="#m51a4c185bb" x="299.918816" y="355.426148" style="fill: #1e72ff; stroke: #1e72ff"/>
     <use xlink:href="#m51a4c185bb" x="304.637632" y="355.426148" style="fill: #1e72ff; stroke: #1e72ff"/>
     <use xlink:href="#m51a4c185bb" x="309.356448" y="355.426148" style="fill: #1e72ff; stroke: #1e72ff"/>
     <use xlink:href="#m51a4c185bb" x="314.075264" y="355.426148" style="fill: #1e72ff; stroke: #1e72ff"/>
     <use xlink:href="#m51a4c185bb" x="318.79408" y="355.426148" style="fill: #1e72ff; stroke: #1e72ff"/>
     <use xlink:href="#m51a4c185bb" x="323.512896" y="355.426148" style="fill: #1e72ff; stroke: #1e72ff"/>
     <use xlink:href="#m51a4c185bb" x="328.231712" y="355.426148" style="fill: #1e72ff; stroke: #1e72ff"/>
     <use xlink:href="#m51a4c185bb" x="332.950529" y="355.426148" style="fill: #1e72ff; stroke: #1e72ff"/>
     <use xlink:href="#m51a4c185bb" x="337.669345" y="355.426148" style="fill: #1e72ff; stroke: #1e72ff"/>
     <use xlink:href="#m51a4c185bb" x="342.388161" y="355.426148" style="fill: #1e72ff; stroke: #1e72ff"/>
     <use xlink:href="#m51a4c185bb" x="347.106977" y="355.426148" style="fill: #1e72ff; stroke: #1e72ff"/>
     <use xlink:href="#m51a4c185bb" x="351.825793" y="355.426148" style="fill: #1e72ff; stroke: #1e72ff"/>
     <use xlink:href="#m51a4c185bb" x="356.544609" y="355.426148" style="fill: #1e72ff; stroke: #1e72ff"/>
     <use xlink:href="#m51a4c185bb" x="361.263425" y="355.426148" style="fill: #1e72ff; stroke: #1e72ff"/>
     <use xlink:href="#m51a4c185bb" x="365.982241" y="355.426148" style="fill: #1e72ff; stroke: #1e72ff"/>
     <use xlink:href="#m51a4c185bb" x="370.701057" y="355.426148" style="fill: #1e72ff; stroke: #1e72ff"/>
     <use xlink:href="#m51a4c185bb" x="375.419873" y="355.426148" style="fill: #1e72ff; stroke: #1e72ff"/>
     <use xlink:href="#m51a4c185bb" x="380.138689" y="355.426148" style="fill: #1e72ff; stroke: #1e72ff"/>
     <use xlink:href="#m51a4c185bb" x="384.857505" y="355.426148" style="fill: #1e72ff; stroke: #1e72ff"/>
     <use xlink:href="#m51a4c185bb" x="389.576321" y="355.426148" style="fill: #1e72ff; stroke: #1e72ff"/>
     <use xlink:href="#m51a4c185bb" x="394.295137" y="355.426148" style="fill: #1e72ff; stroke: #1e72ff"/>
     <use xlink:href="#m51a4c185bb" x="399.013953" y="355.426148" style="fill: #1e72ff; stroke: #1e72ff"/>
     <use xlink:href="#m51a4c185bb" x="403.73277" y="355.426148" style="fill: #1e72ff; stroke: #1e72ff"/>
     <use xlink:href="#m51a4c185bb" x="408.451586" y="355.426148" style="fill: #1e72ff; stroke: #1e72ff"/>
     <use xlink:href="#m51a4c185bb" x="413.170402" y="355.426148" style="fill: #1e72ff; stroke: #1e72ff"/>
     <use xlink:href="#m51a4c185bb" x="417.889218" y="355.426148" style="fill: #1e72ff; stroke: #1e72ff"/>
     <use xlink:href="#m51a4c185bb" x="422.608034" y="355.426148" style="fill: #1e72ff; stroke: #1e72ff"/>
     <use xlink:href="#m51a4c185bb" x="427.32685" y="355.426148" style="fill: #1e72ff; stroke: #1e72ff"/>
     <use xlink:href="#m51a4c185bb" x="432.045666" y="355.426148" style="fill: #1e72ff; stroke: #1e72ff"/>
     <use xlink:href="#m51a4c185bb" x="436.764482" y="355.426148" style="fill: #1e72ff; stroke: #1e72ff"/>
     <use xlink:href="#m51a4c185bb" x="441.483298" y="355.426148" style="fill: #1e72ff; stroke: #1e72ff"/>
     <use xlink:href="#m51a4c185bb" x="446.202114" y="355.426148" style="fill: #1e72ff; stroke: #1e72ff"/>
     <use xlink:href="#m51a4c185bb" x="450.92093" y="355.426148" style="fill: #1e72ff; stroke: #1e72ff"/>
     <use xlink:href="#m51a4c185bb" x="455.639746" y="355.426148" style="fill: #1e72ff; stroke: #1e72ff"/>
     <use xlink:href="#m51a4c185bb" x="460.358562" y="355.426148" style="fill: #1e72ff; stroke: #1e72ff"/>
     <use xlink:href="#m51a4c185bb" x="465.077378" y="355.426148" style="fill: #1e72ff; stroke: #1e72ff"/>
     <use xlink:href="#m51a4c185bb" x="469.796195" y="355.426148" style="fill: #1e72ff; stroke: #1e72ff"/>
     <use xlink:href="#m51a4c185bb" x="474.515011" y="355.426148" style="fill: #1e72ff; stroke: #1e72ff"/>
     <use xlink:href="#m51a4c185bb" x="479.233827" y="355.426148" style="fill: #1e72ff; stroke: #1e72ff"/>
     <use xlink:href="#m51a4c185bb" x="483.952643" y="355.426148" style="fill: #1e72ff; stroke: #1e72ff"/>
     <use xlink:href="#m51a4c185bb" x="488.671459" y="355.426148" style="fill: #1e72ff; stroke: #1e72ff"/>
     <use xlink:href="#m51a4c185bb" x="493.390275" y="355.426148" style="fill: #1e72ff; stroke: #1e72ff"/>
     <use xlink:href="#m51a4c185bb" x="498.109091" y="355.426148" style="fill: #1e72ff; stroke: #1e72ff"/>
    </g>
   </g>
   <g id="PathCollection_2">
    <defs>
     <path id="m6d9caf7f6a" d="M -2.5 2.5 
L 2.5 2.5 
L 2.5 -2.5 
L -2.5 -2.5 
z
" style="stroke: #1e408b"/>
    </defs>
    <g clip-path="url(#p320ff32f64)">
     <use xlink:href="#m6d9caf7f6a" x="134.760254" y="363.174545" style="fill: #1e408b; stroke: #1e408b"/>
     <use xlink:href="#m6d9caf7f6a" x="163.07315" y="363.174545" style="fill: #1e408b; stroke: #1e408b"/>
     <use xlink:href="#m6d9caf7f6a" x="167.791966" y="363.174545" style="fill: #1e408b; stroke: #1e408b"/>
     <use xlink:href="#m6d9caf7f6a" x="172.510782" y="363.174545" style="fill: #1e408b; stroke: #1e408b"/>
     <use xlink:href="#m6d9caf7f6a" x="177.229598" y="363.174545" style="fill: #1e408b; stroke: #1e408b"/>
     <use xlink:href="#m6d9caf7f6a" x="181.948414" y="363.174545" style="fill: #1e408b; stroke: #1e408b"/>
     <use xlink:href="#m6d9caf7f6a" x="191.386047" y="363.174545" style="fill: #1e408b; stroke: #1e408b"/>
     <use xlink:href="#m6d9caf7f6a" x="196.104863" y="363.174545" style="fill: #1e408b; stroke: #1e408b"/>
     <use xlink:href="#m6d9caf7f6a" x="200.823679" y="363.174545" style="fill: #1e408b; stroke: #1e408b"/>
     <use xlink:href="#m6d9caf7f6a" x="205.542495" y="363.174545" style="fill: #1e408b; stroke: #1e408b"/>
     <use xlink:href="#m6d9caf7f6a" x="210.261311" y="363.174545" style="fill: #1e408b; stroke: #1e408b"/>
     <use xlink:href="#m6d9caf7f6a" x="214.980127" y="363.174545" style="fill: #1e408b; stroke: #1e408b"/>
     <use xlink:href="#m6d9caf7f6a" x="219.698943" y="363.174545" style="fill: #1e408b; stroke: #1e408b"/>
     <use xlink:href="#m6d9caf7f6a" x="224.417759" y="363.174545" style="fill: #1e408b; stroke: #1e408b"/>
     <use xlink:href="#m6d9caf7f6a" x="229.136575" y="363.174545" style="fill: #1e408b; stroke: #1e408b"/>
     <use xlink:href="#m6d9caf7f6a" x="233.855391" y="363.174545" style="fill: #1e408b; stroke: #1e408b"/>
     <use xlink:href="#m6d9caf7f6a" x="238.574207" y="363.174545" style="fill: #1e408b; stroke: #1e408b"/>
     <use xlink:href="#m6d9caf7f6a" x="243.293023" y="363.174545" style="fill: #1e408b; stroke: #1e408b"/>
     <use xlink:href="#m6d9caf7f6a" x="248.011839" y="363.174545" style="fill: #1e408b; stroke: #1e408b"/>
     <use xlink:href="#m6d9caf7f6a" x="252.730655" y="363.174545" style="fill: #1e408b; stroke: #1e408b"/>
     <use xlink:href="#m6d9caf7f6a" x="257.449471" y="363.174545" style="fill: #1e408b; stroke: #1e408b"/>
     <use xlink:href="#m6d9caf7f6a" x="262.168288" y="363.174545" style="fill: #1e408b; stroke: #1e408b"/>
     <use xlink:href="#m6d9caf7f6a" x="266.887104" y="363.174545" style="fill: #1e408b; stroke: #1e408b"/>
     <use xlink:href="#m6d9caf7f6a" x="271.60592" y="363.174545" style="fill: #1e408b; stroke: #1e408b"/>
     <use xlink:href="#m6d9caf7f6a" x="276.324736" y="363.174545" style="fill: #1e408b; stroke: #1e408b"/>
     <use xlink:href="#m6d9caf7f6a" x="281.043552" y="363.174545" style="fill: #1e408b; stroke: #1e408b"/>
     <use xlink:href="#m6d9caf7f6a" x="285.762368" y="363.174545" style="fill: #1e408b; stroke: #1e408b"/>
     <use xlink:href="#m6d9caf7f6a" x="290.481184" y="363.174545" style="fill: #1e408b; stroke: #1e408b"/>
     <use xlink:href="#m6d9caf7f6a" x="295.2" y="363.174545" style="fill: #1e408b; stroke: #1e408b"/>
     <use xlink:href="#m6d9caf7f6a" x="299.918816" y="363.174545" style="fill: #1e408b; stroke: #1e408b"/>
     <use xlink:href="#m6d9caf7f6a" x="304.637632" y="363.174545" style="fill: #1e408b; stroke: #1e408b"/>
     <use xlink:href="#m6d9caf7f6a" x="309.356448" y="363.174545" style="fill: #1e408b; stroke: #1e408b"/>
     <use xlink:href="#m6d9caf7f6a" x="314.075264" y="363.174545" style="fill: #1e408b; stroke: #1e408b"/>
     <use xlink:href="#m6d9caf7f6a" x="318.79408" y="363.174545" style="fill: #1e408b; stroke: #1e408b"/>
     <use xlink:href="#m6d9caf7f6a" x="323.512896" y="363.174545" style="fill: #1e408b; stroke: #1e408b"/>
     <use xlink:href="#m6d9caf7f6a" x="328.231712" y="363.174545" style="fill: #1e408b; stroke: #1e408b"/>
     <use xlink:href="#m6d9caf7f6a" x="332.950529" y="363.174545" style="fill: #1e408b; stroke: #1e408b"/>
     <use xlink:href="#m6d9caf7f6a" x="337.669345" y="363.174545" style="fill: #1e408b; stroke: #1e408b"/>
     <use xlink:href="#m6d9caf7f6a" x="342.388161" y="363.174545" style="fill: #1e408b; stroke: #1e408b"/>
     <use xlink:href="#m6d9caf7f6a" x="347.106977" y="363.174545" style="fill: #1e408b; stroke: #1e408b"/>
     <use xlink:href="#m6d9caf7f6a" x="351.825793" y="363.174545" style="fill: #1e408b; stroke: #1e408b"/>
     <use xlink:href="#m6d9caf7f6a" x="356.544609" y="363.174545" style="fill: #1e408b; stroke: #1e408b"/>
     <use xlink:href="#m6d9caf7f6a" x="361.263425" y="363.174545" style="fill: #1e408b; stroke: #1e408b"/>
     <use xlink:href="#m6d9caf7f6a" x="365.982241" y="363.174545" style="fill: #1e408b; stroke: #1e408b"/>
     <use xlink:href="#m6d9caf7f6a" x="370.701057" y="363.174545" style="fill: #1e408b; stroke: #1e408b"/>
     <use xlink:href="#m6d9caf7f6a" x="375.419873" y="363.174545" style="fill: #1e408b; stroke: #1e408b"/>
     <use xlink:href="#m6d9caf7f6a" x="380.138689" y="363.174545" style="fill: #1e408b; stroke: #1e408b"/>
     <use xlink:href="#m6d9caf7f6a" x="384.857505" y="363.174545" style="fill: #1e408b; stroke: #1e408b"/>
     <use xlink:href="#m6d9caf7f6a" x="389.576321" y="363.174545" style="fill: #1e408b; stroke: #1e408b"/>
     <use xlink:href="#m6d9caf7f6a" x="394.295137" y="363.174545" style="fill: #1e408b; stroke: #1e408b"/>
     <use xlink:href="#m6d9caf7f6a" x="399.013953" y="363.174545" style="fill: #1e408b; stroke: #1e408b"/>
     <use xlink:href="#m6d9caf7f6a" x="403.73277" y="363.174545" style="fill: #1e408b; stroke: #1e408b"/>
     <use xlink:href="#m6d9caf7f6a" x="408.451586" y="363.174545" style="fill: #1e408b; stroke: #1e408b"/>
     <use xlink:href="#m6d9caf7f6a" x="413.170402" y="363.174545" style="fill: #1e408b; stroke: #1e408b"/>
     <use xlink:href="#m6d9caf7f6a" x="417.889218" y="363.174545" style="fill: #1e408b; stroke: #1e408b"/>
     <use xlink:href="#m6d9caf7f6a" x="422.608034" y="363.174545" style="fill: #1e408b; stroke: #1e408b"/>
     <use xlink:href="#m6d9caf7f6a" x="427.32685" y="363.174545" style="fill: #1e408b; stroke: #1e408b"/>
     <use xlink:href="#m6d9caf7f6a" x="432.045666" y="363.174545" style="fill: #1e408b; stroke: #1e408b"/>
     <use xlink:href="#m6d9caf7f6a" x="436.764482" y="363.174545" style="fill: #1e408b; stroke: #1e408b"/>
     <use xlink:href="#m6d9caf7f6a" x="441.483298" y="363.174545" style="fill: #1e408b; stroke: #1e408b"/>
     <use xlink:href="#m6d9caf7f6a" x="446.202114" y="363.174545" style="fill: #1e408b; stroke: #1e408b"/>
     <use xlink:href="#m6d9caf7f6a" x="450.92093" y="363.174545" style="fill: #1e408b; stroke: #1e408b"/>
     <use xlink:href="#m6d9caf7f6a" x="455.639746" y="363.174545" style="fill: #1e408b; stroke: #1e408b"/>
     <use xlink:href="#m6d9caf7f6a" x="460.358562" y="363.174545" style="fill: #1e408b; stroke: #1e408b"/>
     <use xlink:href="#m6d9caf7f6a" x="465.077378" y="363.174545" style="fill: #1e408b; stroke: #1e408b"/>
     <use xlink:href="#m6d9caf7f6a" x="469.796195" y="363.174545" style="fill: #1e408b; stroke: #1e408b"/>
     <use xlink:href="#m6d9caf7f6a" x="474.515011" y="363.174545" style="fill: #1e408b; stroke: #1e408b"/>
     <use xlink:href="#m6d9caf7f6a" x="479.233827" y="363.174545" style="fill: #1e408b; stroke: #1e408b"/>
     <use xlink:href="#m6d9caf7f6a" x="483.952643" y="363.174545" style="fill: #1e408b; stroke: #1e408b"/>
     <use xlink:href="#m6d9caf7f6a" x="488.671459" y="363.174545" style="fill: #1e408b; stroke: #1e408b"/>
     <use xlink:href="#m6d9caf7f6a" x="493.390275" y="363.174545" style="fill: #1e408b; stroke: #1e408b"/>
     <use xlink:href="#m6d9caf7f6a" x="498.109091" y="363.174545" style="fill: #1e408b; stroke: #1e408b"/>
    </g>
   </g>
   <g id="line2d_12">
    <path d="M 92.290909 339.954148 
L 97.009725 342.217959 
L 101.728541 341.590763 
L 106.447357 342.073454 
L 111.166173 341.771272 
L 115.884989 342.10615 
L 120.603805 342.193142 
L 125.322622 342.358224 
L 130.041438 341.934037 
L 134.760254 342.186113 
L 139.47907 338.298672 
L 144.197886 338.388598 
L 148.916702 337.683422 
L 153.635518 336.020549 
L 158.354334 334.667619 
L 163.07315 334.547847 
L 167.791966 334.574114 
L 172.510782 333.680901 
L 177.229598 332.983792 
L 181.948414 333.247918 
L 186.66723 330.93445 
L 191.386047 329.942578 
L 196.104863 328.605504 
L 200.823679 327.902246 
L 205.542495 326.326804 
L 210.261311 323.0494 
L 214.980127 323.000568 
L 219.698943 320.498712 
L 224.417759 315.072736 
L 229.136575 308.104466 
L 233.855391 303.708329 
L 238.574207 301.18699 
L 243.293023 297.540427 
L 248.011839 293.366258 
L 252.730655 292.070226 
L 257.449471 290.280358 
L 262.168288 289.479267 
L 266.887104 287.912358 
L 271.60592 286.151462 
L 276.324736 283.978968 
L 281.043552 283.670674 
L 285.762368 282.917234 
L 290.481184 282.374731 
L 295.2 280.223186 
L 299.918816 279.179596 
L 304.637632 280.115413 
L 309.356448 278.620268 
L 314.075264 277.325382 
L 318.79408 275.032066 
L 323.512896 273.349993 
L 328.231712 271.482321 
L 332.950529 272.037996 
L 337.669345 270.46882 
L 342.388161 267.850803 
L 347.106977 265.418482 
L 351.825793 266.287031 
L 356.544609 266.206613 
L 361.263425 261.149949 
L 365.982241 256.207561 
L 370.701057 256.477849 
L 375.419873 262.102386 
L 380.138689 241.868112 
L 384.857505 250.688878 
L 389.576321 262.185165 
L 394.295137 264.80464 
L 399.013953 265.417919 
L 403.73277 258.618971 
L 408.451586 251.726765 
L 413.170402 250.021353 
L 417.889218 248.55337 
L 422.608034 248.352525 
L 427.32685 247.30665 
L 432.045666 245.819132 
L 436.764482 244.643242 
L 441.483298 243.378142 
L 446.202114 244.083993 
L 450.92093 242.912821 
L 455.639746 241.956463 
L 460.358562 241.744381 
L 465.077378 238.568202 
L 469.796195 237.736383 
L 474.515011 236.160107 
L 479.233827 236.017212 
L 483.952643 233.55764 
L 488.671459 235.024292 
L 493.390275 234.796098 
L 498.109091 234.390041 
" clip-path="url(#p320ff32f64)" style="fill: none; stroke: #1e72ff; stroke-width: 2; stroke-linecap: round"/>
   </g>
   <g id="line2d_13">
    <path d="M 92.290909 341.500711 
L 97.009725 342.512152 
L 101.728541 342.207005 
L 106.447357 342.253114 
L 111.166173 342.188553 
L 115.884989 342.260898 
L 120.603805 342.004947 
L 125.322622 342.029156 
L 130.041438 341.966061 
L 134.760254 341.843009 
L 139.47907 337.777009 
L 144.197886 337.075226 
L 148.916702 336.980503 
L 153.635518 336.833974 
L 158.354334 336.523956 
L 163.07315 335.704453 
L 167.791966 335.727918 
L 172.510782 335.329854 
L 177.229598 334.921457 
L 181.948414 334.592404 
L 186.66723 334.261173 
L 191.386047 333.594545 
L 196.104863 332.46271 
L 200.823679 331.453755 
L 205.542495 330.18659 
L 210.261311 329.165987 
L 214.980127 328.17542 
L 219.698943 327.356699 
L 224.417759 325.59872 
L 229.136575 324.089584 
L 233.855391 322.716075 
L 238.574207 321.280999 
L 243.293023 320.388224 
L 248.011839 319.384994 
L 252.730655 318.00248 
L 257.449471 317.458767 
L 262.168288 317.680857 
L 266.887104 317.667612 
L 271.60592 317.49321 
L 276.324736 317.445109 
L 281.043552 318.198844 
L 285.762368 318.621306 
L 290.481184 318.830886 
L 295.2 319.468979 
L 299.918816 320.649937 
L 304.637632 321.872055 
L 309.356448 322.530966 
L 314.075264 324.081644 
L 318.79408 325.289372 
L 323.512896 325.39156 
L 328.231712 325.106292 
L 332.950529 324.974118 
L 337.669345 324.802584 
L 342.388161 325.209913 
L 347.106977 325.602758 
L 351.825793 324.79435 
L 356.544609 324.498013 
L 361.263425 324.97154 
L 365.982241 325.561405 
L 370.701057 326.871556 
L 375.419873 330.751476 
L 380.138689 330.442998 
L 384.857505 330.514142 
L 389.576321 330.737083 
L 394.295137 331.368815 
L 399.013953 331.859029 
L 403.73277 332.028765 
L 408.451586 331.430438 
L 413.170402 331.417818 
L 417.889218 331.634838 
L 422.608034 331.619618 
L 427.32685 331.657404 
L 432.045666 331.847843 
L 436.764482 331.900703 
L 441.483298 332.000119 
L 446.202114 331.911561 
L 450.92093 331.784916 
L 455.639746 331.873229 
L 460.358562 331.713313 
L 465.077378 331.90011 
L 469.796195 331.947581 
L 474.515011 332.25088 
L 479.233827 332.239428 
L 483.952643 332.128714 
L 488.671459 332.057664 
L 493.390275 331.795878 
L 498.109091 331.806534 
" clip-path="url(#p320ff32f64)" style="fill: none; stroke-dasharray: 5.55,2.4; stroke-dashoffset: 0; stroke: #1e72ff; stroke-opacity: 0.8; stroke-width: 1.5"/>
   </g>
   <g id="line2d_14">
    <path d="M 92.290909 340.313212 
L 97.009725 339.756563 
L 101.728541 339.643217 
L 106.447357 334.409057 
L 111.166173 326.20612 
L 115.884989 325.934643 
L 120.603805 323.196488 
L 125.322622 321.919451 
L 130.041438 320.038317 
L 134.760254 316.331362 
L 139.47907 311.012565 
L 144.197886 306.146802 
L 148.916702 304.195122 
L 153.635518 305.383414 
L 158.354334 304.308403 
L 163.07315 303.184627 
L 167.791966 303.80147 
L 172.510782 304.775401 
L 177.229598 305.76765 
L 181.948414 308.068791 
L 186.66723 309.910312 
L 191.386047 309.282419 
L 196.104863 309.267096 
L 200.823679 309.886727 
L 205.542495 309.037034 
L 210.261311 308.711147 
L 214.980127 307.524053 
L 219.698943 306.589013 
L 224.417759 303.77534 
L 229.136575 301.78301 
L 233.855391 299.145368 
L 238.574207 295.733676 
L 243.293023 292.213718 
L 248.011839 288.704142 
L 252.730655 283.988338 
L 257.449471 280.000205 
L 262.168288 275.786715 
L 266.887104 271.028953 
L 271.60592 266.017354 
L 276.324736 261.159648 
L 281.043552 256.625782 
L 285.762368 251.167719 
L 290.481184 246.311985 
L 295.2 240.853106 
L 299.918816 235.850491 
L 304.637632 229.803752 
L 309.356448 224.248426 
L 314.075264 219.038985 
L 318.79408 213.61834 
L 323.512896 208.719057 
L 328.231712 203.883027 
L 332.950529 198.971732 
L 337.669345 194.089943 
L 342.388161 189.637914 
L 347.106977 186.144211 
L 351.825793 181.513836 
L 356.544609 177.324083 
L 361.263425 173.091306 
L 365.982241 169.182855 
L 370.701057 165.15893 
L 375.419873 161.311199 
L 380.138689 158.976264 
L 384.857505 154.400006 
L 389.576321 148.122431 
L 394.295137 142.901643 
L 399.013953 138.385439 
L 403.73277 134.905222 
L 408.451586 131.420858 
L 413.170402 127.629084 
L 417.889218 124.349734 
L 422.608034 121.538208 
L 427.32685 118.632251 
L 432.045666 115.481023 
L 436.764482 112.298577 
L 441.483298 108.307007 
L 446.202114 105.656968 
L 450.92093 102.949561 
L 455.639746 100.71694 
L 460.358562 98.504088 
L 465.077378 96.835529 
L 469.796195 94.294706 
L 474.515011 91.396059 
L 479.233827 88.972189 
L 483.952643 87.339276 
L 488.671459 85.960863 
L 493.390275 84.976895 
L 498.109091 84.232236 
" clip-path="url(#p320ff32f64)" style="fill: none; stroke: #1e408b; stroke-width: 2; stroke-linecap: round"/>
   </g>
   <g id="line2d_15">
    <path d="M 92.290909 339.964361 
L 97.009725 337.452617 
L 101.728541 334.882162 
L 106.447357 331.741251 
L 111.166173 328.384499 
L 115.884989 325.474283 
L 120.603805 322.829708 
L 125.322622 319.464558 
L 130.041438 316.296255 
L 134.760254 311.576469 
L 139.47907 308.06316 
L 144.197886 306.572078 
L 148.916702 306.782224 
L 153.635518 307.939761 
L 158.354334 309.77701 
L 163.07315 311.529041 
L 167.791966 313.544648 
L 172.510782 315.418861 
L 177.229598 317.474545 
L 181.948414 319.26788 
L 186.66723 320.717414 
L 191.386047 321.991943 
L 196.104863 323.25138 
L 200.823679 324.422764 
L 205.542495 325.256536 
L 210.261311 326.06573 
L 214.980127 326.668776 
L 219.698943 326.754569 
L 224.417759 327.174404 
L 229.136575 327.233804 
L 233.855391 327.468484 
L 238.574207 327.610693 
L 243.293023 327.560276 
L 248.011839 327.539952 
L 252.730655 327.57562 
L 257.449471 327.478975 
L 262.168288 327.148911 
L 266.887104 326.822466 
L 271.60592 326.605765 
L 276.324736 326.50784 
L 281.043552 326.462666 
L 285.762368 326.406143 
L 290.481184 326.201125 
L 295.2 326.129173 
L 299.918816 325.924182 
L 304.637632 325.740388 
L 309.356448 325.695865 
L 314.075264 325.602905 
L 318.79408 325.453265 
L 323.512896 325.526928 
L 328.231712 325.442048 
L 332.950529 325.552117 
L 337.669345 325.562674 
L 342.388161 325.484284 
L 347.106977 325.490775 
L 351.825793 325.552196 
L 356.544609 325.787361 
L 361.263425 326.090417 
L 365.982241 326.306066 
L 370.701057 326.569245 
L 375.419873 327.049047 
L 380.138689 327.298377 
L 384.857505 327.520281 
L 389.576321 327.711016 
L 394.295137 327.760162 
L 399.013953 327.937504 
L 403.73277 328.327674 
L 408.451586 328.460561 
L 413.170402 328.570761 
L 417.889218 328.719962 
L 422.608034 328.808363 
L 427.32685 328.873586 
L 432.045666 328.838679 
L 436.764482 328.973855 
L 441.483298 329.044893 
L 446.202114 329.080694 
L 450.92093 329.16045 
L 455.639746 329.285773 
L 460.358562 329.483418 
L 465.077378 329.671092 
L 469.796195 329.672264 
L 474.515011 329.751761 
L 479.233827 329.739829 
L 483.952643 329.812754 
L 488.671459 329.866592 
L 493.390275 329.922057 
L 498.109091 330.06345 
" clip-path="url(#p320ff32f64)" style="fill: none; stroke-dasharray: 5.55,2.4; stroke-dashoffset: 0; stroke: #1e408b; stroke-opacity: 0.8; stroke-width: 1.5"/>
   </g>
   <g id="line2d_16">
    <path d="M 139.47907 378 
L 139.47907 51.84 
" clip-path="url(#p320ff32f64)" style="fill: none; stroke-dasharray: 5.55,2.4; stroke-dashoffset: 0; stroke: #808080; stroke-opacity: 0.7; stroke-width: 1.5"/>
   </g>
   <g id="line2d_17">
    <path d="M 375.419873 378 
L 375.419873 51.84 
" clip-path="url(#p320ff32f64)" style="fill: none; stroke-dasharray: 5.55,2.4; stroke-dashoffset: 0; stroke: #808080; stroke-opacity: 0.7; stroke-width: 1.5"/>
   </g>
   <g id="patch_3">
    <path d="M 72 378 
L 72 51.84 
" style="fill: none; stroke: #000000; stroke-width: 1.5; stroke-linejoin: miter; stroke-linecap: square"/>
   </g>
   <g id="patch_4">
    <path d="M 72 378 
L 518.4 378 
" style="fill: none; stroke: #000000; stroke-width: 1.5; stroke-linejoin: miter; stroke-linecap: square"/>
   </g>
   <g id="text_14">
    <!-- L1_sactemporal -->
    <g style="fill: #262626" transform="translate(238.093359 45.84) scale(0.15 -0.15)">
     <defs>
      <path id="Arial-BoldMT-4c" d="M 491 0 
L 491 4544 
L 1416 4544 
L 1416 772 
L 3716 772 
L 3716 0 
L 491 0 
z
" transform="scale(0.015625)"/>
      <path id="Arial-BoldMT-31" d="M 2519 0 
L 1641 0 
L 1641 3309 
Q 1159 2859 506 2644 
L 506 3441 
Q 850 3553 1253 3867 
Q 1656 4181 1806 4600 
L 2519 4600 
L 2519 0 
z
" transform="scale(0.015625)"/>
      <path id="Arial-BoldMT-5f" d="M -59 -1266 
L -59 -697 
L 3591 -697 
L 3591 -1266 
L -59 -1266 
z
" transform="scale(0.015625)"/>
      <path id="Arial-BoldMT-73" d="M 150 947 
L 1031 1081 
Q 1088 825 1259 692 
Q 1431 559 1741 559 
Q 2081 559 2253 684 
Q 2369 772 2369 919 
Q 2369 1019 2306 1084 
Q 2241 1147 2013 1200 
Q 950 1434 666 1628 
Q 272 1897 272 2375 
Q 272 2806 612 3100 
Q 953 3394 1669 3394 
Q 2350 3394 2681 3172 
Q 3013 2950 3138 2516 
L 2309 2363 
Q 2256 2556 2107 2659 
Q 1959 2763 1684 2763 
Q 1338 2763 1188 2666 
Q 1088 2597 1088 2488 
Q 1088 2394 1175 2328 
Q 1294 2241 1995 2081 
Q 2697 1922 2975 1691 
Q 3250 1456 3250 1038 
Q 3250 581 2869 253 
Q 2488 -75 1741 -75 
Q 1063 -75 667 200 
Q 272 475 150 947 
z
" transform="scale(0.015625)"/>
      <path id="Arial-BoldMT-61" d="M 1116 2306 
L 319 2450 
Q 453 2931 781 3162 
Q 1109 3394 1756 3394 
Q 2344 3394 2631 3255 
Q 2919 3116 3036 2902 
Q 3153 2688 3153 2116 
L 3144 1091 
Q 3144 653 3186 445 
Q 3228 238 3344 0 
L 2475 0 
Q 2441 88 2391 259 
Q 2369 338 2359 363 
Q 2134 144 1878 34 
Q 1622 -75 1331 -75 
Q 819 -75 523 203 
Q 228 481 228 906 
Q 228 1188 362 1408 
Q 497 1628 739 1745 
Q 981 1863 1438 1950 
Q 2053 2066 2291 2166 
L 2291 2253 
Q 2291 2506 2166 2614 
Q 2041 2722 1694 2722 
Q 1459 2722 1328 2630 
Q 1197 2538 1116 2306 
z
M 2291 1594 
Q 2122 1538 1756 1459 
Q 1391 1381 1278 1306 
Q 1106 1184 1106 997 
Q 1106 813 1243 678 
Q 1381 544 1594 544 
Q 1831 544 2047 700 
Q 2206 819 2256 991 
Q 2291 1103 2291 1419 
L 2291 1594 
z
" transform="scale(0.015625)"/>
      <path id="Arial-BoldMT-63" d="M 3353 2338 
L 2488 2181 
Q 2444 2441 2289 2572 
Q 2134 2703 1888 2703 
Q 1559 2703 1364 2476 
Q 1169 2250 1169 1719 
Q 1169 1128 1367 884 
Q 1566 641 1900 641 
Q 2150 641 2309 783 
Q 2469 925 2534 1272 
L 3397 1125 
Q 3263 531 2881 228 
Q 2500 -75 1859 -75 
Q 1131 -75 698 384 
Q 266 844 266 1656 
Q 266 2478 700 2936 
Q 1134 3394 1875 3394 
Q 2481 3394 2839 3133 
Q 3197 2872 3353 2338 
z
" transform="scale(0.015625)"/>
      <path id="Arial-BoldMT-74" d="M 1981 3319 
L 1981 2619 
L 1381 2619 
L 1381 1281 
Q 1381 875 1398 808 
Q 1416 741 1477 697 
Q 1538 653 1625 653 
Q 1747 653 1978 738 
L 2053 56 
Q 1747 -75 1359 -75 
Q 1122 -75 931 4 
Q 741 84 652 211 
Q 563 338 528 553 
Q 500 706 500 1172 
L 500 2619 
L 97 2619 
L 97 3319 
L 500 3319 
L 500 3978 
L 1381 4491 
L 1381 3319 
L 1981 3319 
z
" transform="scale(0.015625)"/>
      <path id="Arial-BoldMT-65" d="M 2381 1056 
L 3256 909 
Q 3088 428 2723 176 
Q 2359 -75 1813 -75 
Q 947 -75 531 491 
Q 203 944 203 1634 
Q 203 2459 634 2926 
Q 1066 3394 1725 3394 
Q 2466 3394 2894 2905 
Q 3322 2416 3303 1406 
L 1103 1406 
Q 1113 1016 1316 798 
Q 1519 581 1822 581 
Q 2028 581 2168 693 
Q 2309 806 2381 1056 
z
M 2431 1944 
Q 2422 2325 2234 2523 
Q 2047 2722 1778 2722 
Q 1491 2722 1303 2513 
Q 1116 2303 1119 1944 
L 2431 1944 
z
" transform="scale(0.015625)"/>
      <path id="Arial-BoldMT-6d" d="M 394 3319 
L 1203 3319 
L 1203 2866 
Q 1638 3394 2238 3394 
Q 2556 3394 2790 3262 
Q 3025 3131 3175 2866 
Q 3394 3131 3647 3262 
Q 3900 3394 4188 3394 
Q 4553 3394 4806 3245 
Q 5059 3097 5184 2809 
Q 5275 2597 5275 2122 
L 5275 0 
L 4397 0 
L 4397 1897 
Q 4397 2391 4306 2534 
Q 4184 2722 3931 2722 
Q 3747 2722 3584 2609 
Q 3422 2497 3350 2280 
Q 3278 2063 3278 1594 
L 3278 0 
L 2400 0 
L 2400 1819 
Q 2400 2303 2353 2443 
Q 2306 2584 2207 2653 
Q 2109 2722 1941 2722 
Q 1738 2722 1575 2612 
Q 1413 2503 1342 2297 
Q 1272 2091 1272 1613 
L 1272 0 
L 394 0 
L 394 3319 
z
" transform="scale(0.015625)"/>
      <path id="Arial-BoldMT-70" d="M 434 3319 
L 1253 3319 
L 1253 2831 
Q 1413 3081 1684 3237 
Q 1956 3394 2288 3394 
Q 2866 3394 3269 2941 
Q 3672 2488 3672 1678 
Q 3672 847 3265 386 
Q 2859 -75 2281 -75 
Q 2006 -75 1782 34 
Q 1559 144 1313 409 
L 1313 -1263 
L 434 -1263 
L 434 3319 
z
M 1303 1716 
Q 1303 1156 1525 889 
Q 1747 622 2066 622 
Q 2372 622 2575 867 
Q 2778 1113 2778 1672 
Q 2778 2194 2568 2447 
Q 2359 2700 2050 2700 
Q 1728 2700 1515 2451 
Q 1303 2203 1303 1716 
z
" transform="scale(0.015625)"/>
      <path id="Arial-BoldMT-6f" d="M 256 1706 
Q 256 2144 472 2553 
Q 688 2963 1083 3178 
Q 1478 3394 1966 3394 
Q 2719 3394 3200 2905 
Q 3681 2416 3681 1669 
Q 3681 916 3195 420 
Q 2709 -75 1972 -75 
Q 1516 -75 1102 131 
Q 688 338 472 736 
Q 256 1134 256 1706 
z
M 1156 1659 
Q 1156 1166 1390 903 
Q 1625 641 1969 641 
Q 2313 641 2545 903 
Q 2778 1166 2778 1666 
Q 2778 2153 2545 2415 
Q 2313 2678 1969 2678 
Q 1625 2678 1390 2415 
Q 1156 2153 1156 1659 
z
" transform="scale(0.015625)"/>
      <path id="Arial-BoldMT-72" d="M 1300 0 
L 422 0 
L 422 3319 
L 1238 3319 
L 1238 2847 
Q 1447 3181 1614 3287 
Q 1781 3394 1994 3394 
Q 2294 3394 2572 3228 
L 2300 2463 
Q 2078 2606 1888 2606 
Q 1703 2606 1575 2504 
Q 1447 2403 1373 2137 
Q 1300 1872 1300 1025 
L 1300 0 
z
" transform="scale(0.015625)"/>
      <path id="Arial-BoldMT-6c" d="M 459 0 
L 459 4581 
L 1338 4581 
L 1338 0 
L 459 0 
z
" transform="scale(0.015625)"/>
     </defs>
     <use xlink:href="#Arial-BoldMT-4c"/>
     <use xlink:href="#Arial-BoldMT-31" x="61.083984"/>
     <use xlink:href="#Arial-BoldMT-5f" x="116.699219"/>
     <use xlink:href="#Arial-BoldMT-73" x="172.314453"/>
     <use xlink:href="#Arial-BoldMT-61" x="227.929688"/>
     <use xlink:href="#Arial-BoldMT-63" x="283.544922"/>
     <use xlink:href="#Arial-BoldMT-74" x="339.160156"/>
     <use xlink:href="#Arial-BoldMT-65" x="372.460938"/>
     <use xlink:href="#Arial-BoldMT-6d" x="428.076172"/>
     <use xlink:href="#Arial-BoldMT-70" x="516.992188"/>
     <use xlink:href="#Arial-BoldMT-6f" x="578.076172"/>
     <use xlink:href="#Arial-BoldMT-72" x="639.160156"/>
     <use xlink:href="#Arial-BoldMT-61" x="678.076172"/>
     <use xlink:href="#Arial-BoldMT-6c" x="733.691406"/>
    </g>
   </g>
  </g>
 </g>
 <defs>
  <clipPath id="p320ff32f64">
   <rect x="72" y="51.84" width="446.4" height="326.16"/>
  </clipPath>
 </defs>
</svg>
