<?xml version="1.0" encoding="utf-8" standalone="no"?>
<!DOCTYPE svg PUBLIC "-//W3C//DTD SVG 1.1//EN"
  "http://www.w3.org/Graphics/SVG/1.1/DTD/svg11.dtd">
<svg xmlns:xlink="http://www.w3.org/1999/xlink" width="576pt" height="432pt" viewBox="0 0 576 432" xmlns="http://www.w3.org/2000/svg" version="1.1">
 <metadata>
  <rdf:RDF xmlns:dc="http://purl.org/dc/elements/1.1/" xmlns:cc="http://creativecommons.org/ns#" xmlns:rdf="http://www.w3.org/1999/02/22-rdf-syntax-ns#">
   <cc:Work>
    <dc:type rdf:resource="http://purl.org/dc/dcmitype/StillImage"/>
    <dc:date>2025-11-05T12:12:14.322980</dc:date>
    <dc:format>image/svg+xml</dc:format>
    <dc:creator>
     <cc:Agent>
      <dc:title>Matplotlib v3.9.4, https://matplotlib.org/</dc:title>
     </cc:Agent>
    </dc:creator>
   </cc:Work>
  </rdf:RDF>
 </metadata>
 <defs>
  <style type="text/css">*{stroke-linejoin: round; stroke-linecap: butt}</style>
 </defs>
 <g id="figure_1">
  <g id="patch_1">
   <path d="M 0 432 
L 576 432 
L 576 0 
L 0 0 
z
" style="fill: #ffffff"/>
  </g>
  <g id="axes_1">
   <g id="patch_2">
    <path d="M 72 378 
L 518.4 378 
L 518.4 51.84 
L 72 51.84 
L 72 378 
z
" style="fill: none"/>
   </g>
   <g id="matplotlib.axis_1">
    <g id="xtick_1">
     <g id="line2d_1">
      <defs>
       <path id="m9626e9f671" d="M 0 0 
L 0 5 
" style="stroke: #262626; stroke-width: 1.5"/>
      </defs>
      <g>
       <use xlink:href="#m9626e9f671" x="80.493869" y="378" style="fill: #262626; stroke: #262626; stroke-width: 1.5"/>
      </g>
     </g>
     <g id="text_1">
      <!-- −250 -->
      <g style="fill: #262626" transform="translate(63.601291 397.236719) scale(0.15 -0.15)">
       <defs>
        <path id="ArialMT-2212" d="M 3381 1997 
L 356 1997 
L 356 2522 
L 3381 2522 
L 3381 1997 
z
" transform="scale(0.015625)"/>
        <path id="ArialMT-32" d="M 3222 541 
L 3222 0 
L 194 0 
Q 188 203 259 391 
Q 375 700 629 1000 
Q 884 1300 1366 1694 
Q 2113 2306 2375 2664 
Q 2638 3022 2638 3341 
Q 2638 3675 2398 3904 
Q 2159 4134 1775 4134 
Q 1369 4134 1125 3890 
Q 881 3647 878 3216 
L 300 3275 
Q 359 3922 746 4261 
Q 1134 4600 1788 4600 
Q 2447 4600 2831 4234 
Q 3216 3869 3216 3328 
Q 3216 3053 3103 2787 
Q 2991 2522 2730 2228 
Q 2469 1934 1863 1422 
Q 1356 997 1212 845 
Q 1069 694 975 541 
L 3222 541 
z
" transform="scale(0.015625)"/>
        <path id="ArialMT-35" d="M 266 1200 
L 856 1250 
Q 922 819 1161 601 
Q 1400 384 1738 384 
Q 2144 384 2425 690 
Q 2706 997 2706 1503 
Q 2706 1984 2436 2262 
Q 2166 2541 1728 2541 
Q 1456 2541 1237 2417 
Q 1019 2294 894 2097 
L 366 2166 
L 809 4519 
L 3088 4519 
L 3088 3981 
L 1259 3981 
L 1013 2750 
Q 1425 3038 1878 3038 
Q 2478 3038 2890 2622 
Q 3303 2206 3303 1553 
Q 3303 931 2941 478 
Q 2500 -78 1738 -78 
Q 1113 -78 717 272 
Q 322 622 266 1200 
z
" transform="scale(0.015625)"/>
        <path id="ArialMT-30" d="M 266 2259 
Q 266 3072 433 3567 
Q 600 4063 929 4331 
Q 1259 4600 1759 4600 
Q 2128 4600 2406 4451 
Q 2684 4303 2865 4023 
Q 3047 3744 3150 3342 
Q 3253 2941 3253 2259 
Q 3253 1453 3087 958 
Q 2922 463 2592 192 
Q 2263 -78 1759 -78 
Q 1097 -78 719 397 
Q 266 969 266 2259 
z
M 844 2259 
Q 844 1131 1108 757 
Q 1372 384 1759 384 
Q 2147 384 2411 759 
Q 2675 1134 2675 2259 
Q 2675 3391 2411 3762 
Q 2147 4134 1753 4134 
Q 1366 4134 1134 3806 
Q 844 3388 844 2259 
z
" transform="scale(0.015625)"/>
       </defs>
       <use xlink:href="#ArialMT-2212"/>
       <use xlink:href="#ArialMT-32" x="58.398438"/>
       <use xlink:href="#ArialMT-35" x="114.013672"/>
       <use xlink:href="#ArialMT-30" x="169.628906"/>
      </g>
     </g>
    </g>
    <g id="xtick_2">
     <g id="line2d_2">
      <g>
       <use xlink:href="#m9626e9f671" x="139.47907" y="378" style="fill: #262626; stroke: #262626; stroke-width: 1.5"/>
      </g>
     </g>
     <g id="text_2">
      <!-- 0 -->
      <g style="fill: #262626" transform="translate(135.308367 397.236719) scale(0.15 -0.15)">
       <use xlink:href="#ArialMT-30"/>
      </g>
     </g>
    </g>
    <g id="xtick_3">
     <g id="line2d_3">
      <g>
       <use xlink:href="#m9626e9f671" x="198.464271" y="378" style="fill: #262626; stroke: #262626; stroke-width: 1.5"/>
      </g>
     </g>
     <g id="text_3">
      <!-- 250 -->
      <g style="fill: #262626" transform="translate(185.952161 397.236719) scale(0.15 -0.15)">
       <use xlink:href="#ArialMT-32"/>
       <use xlink:href="#ArialMT-35" x="55.615234"/>
       <use xlink:href="#ArialMT-30" x="111.230469"/>
      </g>
     </g>
    </g>
    <g id="xtick_4">
     <g id="line2d_4">
      <g>
       <use xlink:href="#m9626e9f671" x="257.449471" y="378" style="fill: #262626; stroke: #262626; stroke-width: 1.5"/>
      </g>
     </g>
     <g id="text_4">
      <!-- 500 -->
      <g style="fill: #262626" transform="translate(244.937362 397.236719) scale(0.15 -0.15)">
       <use xlink:href="#ArialMT-35"/>
       <use xlink:href="#ArialMT-30" x="55.615234"/>
       <use xlink:href="#ArialMT-30" x="111.230469"/>
      </g>
     </g>
    </g>
    <g id="xtick_5">
     <g id="line2d_5">
      <g>
       <use xlink:href="#m9626e9f671" x="316.434672" y="378" style="fill: #262626; stroke: #262626; stroke-width: 1.5"/>
      </g>
     </g>
     <g id="text_5">
      <!-- 750 -->
      <g style="fill: #262626" transform="translate(303.922563 397.236719) scale(0.15 -0.15)">
       <defs>
        <path id="ArialMT-37" d="M 303 3981 
L 303 4522 
L 3269 4522 
L 3269 4084 
Q 2831 3619 2401 2847 
Q 1972 2075 1738 1259 
Q 1569 684 1522 0 
L 944 0 
Q 953 541 1156 1306 
Q 1359 2072 1739 2783 
Q 2119 3494 2547 3981 
L 303 3981 
z
" transform="scale(0.015625)"/>
       </defs>
       <use xlink:href="#ArialMT-37"/>
       <use xlink:href="#ArialMT-35" x="55.615234"/>
       <use xlink:href="#ArialMT-30" x="111.230469"/>
      </g>
     </g>
    </g>
    <g id="xtick_6">
     <g id="line2d_6">
      <g>
       <use xlink:href="#m9626e9f671" x="375.419873" y="378" style="fill: #262626; stroke: #262626; stroke-width: 1.5"/>
      </g>
     </g>
     <g id="text_6">
      <!-- 1000 -->
      <g style="fill: #262626" transform="translate(358.737061 397.236719) scale(0.15 -0.15)">
       <defs>
        <path id="ArialMT-31" d="M 2384 0 
L 1822 0 
L 1822 3584 
Q 1619 3391 1289 3197 
Q 959 3003 697 2906 
L 697 3450 
Q 1169 3672 1522 3987 
Q 1875 4303 2022 4600 
L 2384 4600 
L 2384 0 
z
" transform="scale(0.015625)"/>
       </defs>
       <use xlink:href="#ArialMT-31"/>
       <use xlink:href="#ArialMT-30" x="55.615234"/>
       <use xlink:href="#ArialMT-30" x="111.230469"/>
       <use xlink:href="#ArialMT-30" x="166.845703"/>
      </g>
     </g>
    </g>
    <g id="xtick_7">
     <g id="line2d_7">
      <g>
       <use xlink:href="#m9626e9f671" x="434.405074" y="378" style="fill: #262626; stroke: #262626; stroke-width: 1.5"/>
      </g>
     </g>
     <g id="text_7">
      <!-- 1250 -->
      <g style="fill: #262626" transform="translate(417.722261 397.236719) scale(0.15 -0.15)">
       <use xlink:href="#ArialMT-31"/>
       <use xlink:href="#ArialMT-32" x="55.615234"/>
       <use xlink:href="#ArialMT-35" x="111.230469"/>
       <use xlink:href="#ArialMT-30" x="166.845703"/>
      </g>
     </g>
    </g>
    <g id="xtick_8">
     <g id="line2d_8">
      <g>
       <use xlink:href="#m9626e9f671" x="493.390275" y="378" style="fill: #262626; stroke: #262626; stroke-width: 1.5"/>
      </g>
     </g>
     <g id="text_8">
      <!-- 1500 -->
      <g style="fill: #262626" transform="translate(476.707462 397.236719) scale(0.15 -0.15)">
       <use xlink:href="#ArialMT-31"/>
       <use xlink:href="#ArialMT-35" x="55.615234"/>
       <use xlink:href="#ArialMT-30" x="111.230469"/>
       <use xlink:href="#ArialMT-30" x="166.845703"/>
      </g>
     </g>
    </g>
    <g id="text_9">
     <!-- time -->
     <g style="fill: #262626" transform="translate(281.032031 414.954687) scale(0.15 -0.15)">
      <defs>
       <path id="ArialMT-74" d="M 1650 503 
L 1731 6 
Q 1494 -44 1306 -44 
Q 1000 -44 831 53 
Q 663 150 594 308 
Q 525 466 525 972 
L 525 2881 
L 113 2881 
L 113 3319 
L 525 3319 
L 525 4141 
L 1084 4478 
L 1084 3319 
L 1650 3319 
L 1650 2881 
L 1084 2881 
L 1084 941 
Q 1084 700 1114 631 
Q 1144 563 1211 522 
Q 1278 481 1403 481 
Q 1497 481 1650 503 
z
" transform="scale(0.015625)"/>
       <path id="ArialMT-69" d="M 425 3934 
L 425 4581 
L 988 4581 
L 988 3934 
L 425 3934 
z
M 425 0 
L 425 3319 
L 988 3319 
L 988 0 
L 425 0 
z
" transform="scale(0.015625)"/>
       <path id="ArialMT-6d" d="M 422 0 
L 422 3319 
L 925 3319 
L 925 2853 
Q 1081 3097 1340 3245 
Q 1600 3394 1931 3394 
Q 2300 3394 2536 3241 
Q 2772 3088 2869 2813 
Q 3263 3394 3894 3394 
Q 4388 3394 4653 3120 
Q 4919 2847 4919 2278 
L 4919 0 
L 4359 0 
L 4359 2091 
Q 4359 2428 4304 2576 
Q 4250 2725 4106 2815 
Q 3963 2906 3769 2906 
Q 3419 2906 3187 2673 
Q 2956 2441 2956 1928 
L 2956 0 
L 2394 0 
L 2394 2156 
Q 2394 2531 2256 2718 
Q 2119 2906 1806 2906 
Q 1569 2906 1367 2781 
Q 1166 2656 1075 2415 
Q 984 2175 984 1722 
L 984 0 
L 422 0 
z
" transform="scale(0.015625)"/>
       <path id="ArialMT-65" d="M 2694 1069 
L 3275 997 
Q 3138 488 2766 206 
Q 2394 -75 1816 -75 
Q 1088 -75 661 373 
Q 234 822 234 1631 
Q 234 2469 665 2931 
Q 1097 3394 1784 3394 
Q 2450 3394 2872 2941 
Q 3294 2488 3294 1666 
Q 3294 1616 3291 1516 
L 816 1516 
Q 847 969 1125 678 
Q 1403 388 1819 388 
Q 2128 388 2347 550 
Q 2566 713 2694 1069 
z
M 847 1978 
L 2700 1978 
Q 2663 2397 2488 2606 
Q 2219 2931 1791 2931 
Q 1403 2931 1139 2672 
Q 875 2413 847 1978 
z
" transform="scale(0.015625)"/>
      </defs>
      <use xlink:href="#ArialMT-74"/>
      <use xlink:href="#ArialMT-69" x="27.783203"/>
      <use xlink:href="#ArialMT-6d" x="50"/>
      <use xlink:href="#ArialMT-65" x="133.300781"/>
     </g>
    </g>
   </g>
   <g id="matplotlib.axis_2">
    <g id="ytick_1">
     <g id="line2d_9">
      <defs>
       <path id="m9b6c0f80e1" d="M 0 0 
L -5 0 
" style="stroke: #262626; stroke-width: 1.5"/>
      </defs>
      <g>
       <use xlink:href="#m9b6c0f80e1" x="72" y="342.34714" style="fill: #262626; stroke: #262626; stroke-width: 1.5"/>
      </g>
     </g>
     <g id="text_10">
      <!-- 0.00 -->
      <g style="fill: #262626" transform="translate(34.308594 347.7155) scale(0.15 -0.15)">
       <defs>
        <path id="ArialMT-2e" d="M 581 0 
L 581 641 
L 1222 641 
L 1222 0 
L 581 0 
z
" transform="scale(0.015625)"/>
       </defs>
       <use xlink:href="#ArialMT-30"/>
       <use xlink:href="#ArialMT-2e" x="55.615234"/>
       <use xlink:href="#ArialMT-30" x="83.398438"/>
       <use xlink:href="#ArialMT-30" x="139.013672"/>
      </g>
     </g>
    </g>
    <g id="ytick_2">
     <g id="line2d_10">
      <g>
       <use xlink:href="#m9b6c0f80e1" x="72" y="227.957869" style="fill: #262626; stroke: #262626; stroke-width: 1.5"/>
      </g>
     </g>
     <g id="text_11">
      <!-- 0.15 -->
      <g style="fill: #262626" transform="translate(34.308594 233.326229) scale(0.15 -0.15)">
       <use xlink:href="#ArialMT-30"/>
       <use xlink:href="#ArialMT-2e" x="55.615234"/>
       <use xlink:href="#ArialMT-31" x="83.398438"/>
       <use xlink:href="#ArialMT-35" x="139.013672"/>
      </g>
     </g>
    </g>
    <g id="ytick_3">
     <g id="line2d_11">
      <g>
       <use xlink:href="#m9b6c0f80e1" x="72" y="113.568598" style="fill: #262626; stroke: #262626; stroke-width: 1.5"/>
      </g>
     </g>
     <g id="text_12">
      <!-- 0.30 -->
      <g style="fill: #262626" transform="translate(34.308594 118.936958) scale(0.15 -0.15)">
       <defs>
        <path id="ArialMT-33" d="M 269 1209 
L 831 1284 
Q 928 806 1161 595 
Q 1394 384 1728 384 
Q 2125 384 2398 659 
Q 2672 934 2672 1341 
Q 2672 1728 2419 1979 
Q 2166 2231 1775 2231 
Q 1616 2231 1378 2169 
L 1441 2663 
Q 1497 2656 1531 2656 
Q 1891 2656 2178 2843 
Q 2466 3031 2466 3422 
Q 2466 3731 2256 3934 
Q 2047 4138 1716 4138 
Q 1388 4138 1169 3931 
Q 950 3725 888 3313 
L 325 3413 
Q 428 3978 793 4289 
Q 1159 4600 1703 4600 
Q 2078 4600 2393 4439 
Q 2709 4278 2876 4000 
Q 3044 3722 3044 3409 
Q 3044 3113 2884 2869 
Q 2725 2625 2413 2481 
Q 2819 2388 3044 2092 
Q 3269 1797 3269 1353 
Q 3269 753 2831 336 
Q 2394 -81 1725 -81 
Q 1122 -81 723 278 
Q 325 638 269 1209 
z
" transform="scale(0.015625)"/>
       </defs>
       <use xlink:href="#ArialMT-30"/>
       <use xlink:href="#ArialMT-2e" x="55.615234"/>
       <use xlink:href="#ArialMT-33" x="83.398438"/>
       <use xlink:href="#ArialMT-30" x="139.013672"/>
      </g>
     </g>
    </g>
    <g id="text_13">
     <!-- firing rate -->
     <g style="fill: #262626" transform="translate(27.151562 246.180937) rotate(-90) scale(0.15 -0.15)">
      <defs>
       <path id="ArialMT-66" d="M 556 0 
L 556 2881 
L 59 2881 
L 59 3319 
L 556 3319 
L 556 3672 
Q 556 4006 616 4169 
Q 697 4388 901 4523 
Q 1106 4659 1475 4659 
Q 1713 4659 2000 4603 
L 1916 4113 
Q 1741 4144 1584 4144 
Q 1328 4144 1222 4034 
Q 1116 3925 1116 3625 
L 1116 3319 
L 1763 3319 
L 1763 2881 
L 1116 2881 
L 1116 0 
L 556 0 
z
" transform="scale(0.015625)"/>
       <path id="ArialMT-72" d="M 416 0 
L 416 3319 
L 922 3319 
L 922 2816 
Q 1116 3169 1280 3281 
Q 1444 3394 1641 3394 
Q 1925 3394 2219 3213 
L 2025 2691 
Q 1819 2813 1613 2813 
Q 1428 2813 1281 2702 
Q 1134 2591 1072 2394 
Q 978 2094 978 1738 
L 978 0 
L 416 0 
z
" transform="scale(0.015625)"/>
       <path id="ArialMT-6e" d="M 422 0 
L 422 3319 
L 928 3319 
L 928 2847 
Q 1294 3394 1984 3394 
Q 2284 3394 2536 3286 
Q 2788 3178 2913 3003 
Q 3038 2828 3088 2588 
Q 3119 2431 3119 2041 
L 3119 0 
L 2556 0 
L 2556 2019 
Q 2556 2363 2490 2533 
Q 2425 2703 2258 2804 
Q 2091 2906 1866 2906 
Q 1506 2906 1245 2678 
Q 984 2450 984 1813 
L 984 0 
L 422 0 
z
" transform="scale(0.015625)"/>
       <path id="ArialMT-67" d="M 319 -275 
L 866 -356 
Q 900 -609 1056 -725 
Q 1266 -881 1628 -881 
Q 2019 -881 2231 -725 
Q 2444 -569 2519 -288 
Q 2563 -116 2559 434 
Q 2191 0 1641 0 
Q 956 0 581 494 
Q 206 988 206 1678 
Q 206 2153 378 2554 
Q 550 2956 876 3175 
Q 1203 3394 1644 3394 
Q 2231 3394 2613 2919 
L 2613 3319 
L 3131 3319 
L 3131 450 
Q 3131 -325 2973 -648 
Q 2816 -972 2473 -1159 
Q 2131 -1347 1631 -1347 
Q 1038 -1347 672 -1080 
Q 306 -813 319 -275 
z
M 784 1719 
Q 784 1066 1043 766 
Q 1303 466 1694 466 
Q 2081 466 2343 764 
Q 2606 1063 2606 1700 
Q 2606 2309 2336 2618 
Q 2066 2928 1684 2928 
Q 1309 2928 1046 2623 
Q 784 2319 784 1719 
z
" transform="scale(0.015625)"/>
       <path id="ArialMT-20" transform="scale(0.015625)"/>
       <path id="ArialMT-61" d="M 2588 409 
Q 2275 144 1986 34 
Q 1697 -75 1366 -75 
Q 819 -75 525 192 
Q 231 459 231 875 
Q 231 1119 342 1320 
Q 453 1522 633 1644 
Q 813 1766 1038 1828 
Q 1203 1872 1538 1913 
Q 2219 1994 2541 2106 
Q 2544 2222 2544 2253 
Q 2544 2597 2384 2738 
Q 2169 2928 1744 2928 
Q 1347 2928 1158 2789 
Q 969 2650 878 2297 
L 328 2372 
Q 403 2725 575 2942 
Q 747 3159 1072 3276 
Q 1397 3394 1825 3394 
Q 2250 3394 2515 3294 
Q 2781 3194 2906 3042 
Q 3031 2891 3081 2659 
Q 3109 2516 3109 2141 
L 3109 1391 
Q 3109 606 3145 398 
Q 3181 191 3288 0 
L 2700 0 
Q 2613 175 2588 409 
z
M 2541 1666 
Q 2234 1541 1622 1453 
Q 1275 1403 1131 1340 
Q 988 1278 909 1158 
Q 831 1038 831 891 
Q 831 666 1001 516 
Q 1172 366 1500 366 
Q 1825 366 2078 508 
Q 2331 650 2450 897 
Q 2541 1088 2541 1459 
L 2541 1666 
z
" transform="scale(0.015625)"/>
      </defs>
      <use xlink:href="#ArialMT-66"/>
      <use xlink:href="#ArialMT-69" x="27.783203"/>
      <use xlink:href="#ArialMT-72" x="50"/>
      <use xlink:href="#ArialMT-69" x="83.300781"/>
      <use xlink:href="#ArialMT-6e" x="105.517578"/>
      <use xlink:href="#ArialMT-67" x="161.132812"/>
      <use xlink:href="#ArialMT-20" x="216.748047"/>
      <use xlink:href="#ArialMT-72" x="244.53125"/>
      <use xlink:href="#ArialMT-61" x="277.832031"/>
      <use xlink:href="#ArialMT-74" x="333.447266"/>
      <use xlink:href="#ArialMT-65" x="361.230469"/>
     </g>
    </g>
   </g>
   <g id="PolyCollection_1">
    <defs>
     <path id="m66de5c55ed" d="M 92.290909 -96.950961 
L 92.290909 -90.577654 
L 97.009725 -89.187491 
L 101.728541 -89.228642 
L 106.447357 -89.801665 
L 111.166173 -89.674341 
L 115.884989 -89.661118 
L 120.603805 -88.918841 
L 125.322622 -89.999691 
L 130.041438 -89.060205 
L 134.760254 -89.363924 
L 139.47907 -95.100614 
L 144.197886 -95.820224 
L 148.916702 -94.777842 
L 153.635518 -94.73437 
L 158.354334 -95.202084 
L 163.07315 -94.701264 
L 167.791966 -94.918338 
L 172.510782 -96.645306 
L 177.229598 -96.598454 
L 181.948414 -96.523904 
L 186.66723 -95.335242 
L 191.386047 -94.292904 
L 196.104863 -94.984839 
L 200.823679 -93.432987 
L 205.542495 -92.295037 
L 210.261311 -95.119459 
L 214.980127 -97.484525 
L 219.698943 -95.757005 
L 224.417759 -94.124258 
L 229.136575 -95.946137 
L 233.855391 -99.919122 
L 238.574207 -99.646909 
L 243.293023 -98.867109 
L 248.011839 -100.134004 
L 252.730655 -102.418207 
L 257.449471 -104.661827 
L 262.168288 -104.510646 
L 266.887104 -102.998434 
L 271.60592 -104.923058 
L 276.324736 -105.08604 
L 281.043552 -104.62048 
L 285.762368 -104.501928 
L 290.481184 -104.389745 
L 295.2 -107.194776 
L 299.918816 -107.237674 
L 304.637632 -107.948552 
L 309.356448 -112.164738 
L 314.075264 -114.301379 
L 318.79408 -114.407283 
L 323.512896 -118.251946 
L 328.231712 -120.406408 
L 332.950529 -118.843627 
L 337.669345 -117.470118 
L 342.388161 -116.455887 
L 347.106977 -116.545742 
L 351.825793 -115.361584 
L 356.544609 -116.775183 
L 361.263425 -118.165853 
L 365.982241 -120.584084 
L 370.701057 -120.311908 
L 375.419873 -115.312824 
L 380.138689 -131.299038 
L 384.857505 -132.59481 
L 389.576321 -114.521581 
L 394.295137 -107.410144 
L 399.013953 -113.789782 
L 403.73277 -118.590406 
L 408.451586 -125.165911 
L 413.170402 -131.641852 
L 417.889218 -128.948154 
L 422.608034 -123.24414 
L 427.32685 -121.26465 
L 432.045666 -122.918506 
L 436.764482 -127.065126 
L 441.483298 -127.737476 
L 446.202114 -127.676758 
L 450.92093 -125.734624 
L 455.639746 -126.055934 
L 460.358562 -127.557616 
L 465.077378 -127.689449 
L 469.796195 -125.78113 
L 474.515011 -125.521126 
L 479.233827 -126.030653 
L 483.952643 -130.566734 
L 488.671459 -129.196158 
L 493.390275 -128.578095 
L 498.109091 -127.816379 
L 498.109091 -147.186007 
L 498.109091 -147.186007 
L 493.390275 -147.989725 
L 488.671459 -148.773921 
L 483.952643 -148.501291 
L 479.233827 -144.706493 
L 474.515011 -144.853818 
L 469.796195 -144.413642 
L 465.077378 -146.284139 
L 460.358562 -145.391885 
L 455.639746 -144.012183 
L 450.92093 -142.952494 
L 446.202114 -144.220944 
L 441.483298 -144.735841 
L 436.764482 -144.346734 
L 432.045666 -139.812697 
L 427.32685 -138.311639 
L 422.608034 -138.907152 
L 417.889218 -144.388151 
L 413.170402 -146.592575 
L 408.451586 -139.3637 
L 403.73277 -131.5654 
L 399.013953 -126.728349 
L 394.295137 -120.924687 
L 389.576321 -128.445103 
L 384.857505 -148.117793 
L 380.138689 -147.428893 
L 375.419873 -121.026628 
L 370.701057 -126.664163 
L 365.982241 -128.145818 
L 361.263425 -125.738356 
L 356.544609 -123.725148 
L 351.825793 -121.611765 
L 347.106977 -121.851875 
L 342.388161 -122.249605 
L 337.669345 -123.259595 
L 332.950529 -125.562607 
L 328.231712 -126.382784 
L 323.512896 -124.164624 
L 318.79408 -121.428895 
L 314.075264 -121.456314 
L 309.356448 -119.64649 
L 304.637632 -115.437628 
L 299.918816 -113.701741 
L 295.2 -113.389747 
L 290.481184 -109.956164 
L 285.762368 -109.752474 
L 281.043552 -109.368554 
L 276.324736 -109.897316 
L 271.60592 -109.482955 
L 266.887104 -108.630455 
L 262.168288 -110.252445 
L 257.449471 -110.558504 
L 252.730655 -108.298602 
L 248.011839 -105.963211 
L 243.293023 -105.275495 
L 238.574207 -105.525926 
L 233.855391 -104.398362 
L 229.136575 -100.462807 
L 224.417759 -98.289897 
L 219.698943 -99.005252 
L 214.980127 -99.833858 
L 210.261311 -97.437835 
L 205.542495 -95.443507 
L 200.823679 -96.695291 
L 196.104863 -98.337765 
L 191.386047 -98.897921 
L 186.66723 -99.808879 
L 181.948414 -99.318204 
L 177.229598 -100.085548 
L 172.510782 -99.579851 
L 167.791966 -98.040956 
L 163.07315 -98.204819 
L 158.354334 -98.340223 
L 153.635518 -96.745483 
L 148.916702 -97.216036 
L 144.197886 -97.762375 
L 139.47907 -97.996989 
L 134.760254 -90.594042 
L 130.041438 -89.874091 
L 125.322622 -90.927263 
L 120.603805 -89.74637 
L 115.884989 -90.468579 
L 111.166173 -90.587201 
L 106.447357 -90.644521 
L 101.728541 -90.134616 
L 97.009725 -90.123707 
L 92.290909 -96.950961 
z
" style="stroke: #7373fe; stroke-opacity: 0.1"/>
    </defs>
    <g clip-path="url(#p25caee5ab4)">
     <use xlink:href="#m66de5c55ed" x="0" y="432" style="fill: #7373fe; fill-opacity: 0.1; stroke: #7373fe; stroke-opacity: 0.1"/>
    </g>
   </g>
   <g id="PolyCollection_2">
    <defs>
     <path id="m5a909f4cdf" d="M 92.290909 -94.042588 
L 92.290909 -89.23252 
L 97.009725 -92.11837 
L 101.728541 -93.273753 
L 106.447357 -99.751782 
L 111.166173 -104.158931 
L 115.884989 -102.675148 
L 120.603805 -106.349909 
L 125.322622 -108.768945 
L 130.041438 -111.066881 
L 134.760254 -113.72927 
L 139.47907 -120.214271 
L 144.197886 -123.57215 
L 148.916702 -125.187533 
L 153.635518 -123.497275 
L 158.354334 -122.39365 
L 163.07315 -122.139373 
L 167.791966 -121.394496 
L 172.510782 -120.155941 
L 177.229598 -119.366696 
L 181.948414 -116.907575 
L 186.66723 -114.944313 
L 191.386047 -113.969229 
L 196.104863 -113.649279 
L 200.823679 -114.208905 
L 205.542495 -114.900215 
L 210.261311 -115.509554 
L 214.980127 -116.652629 
L 219.698943 -118.230959 
L 224.417759 -120.122311 
L 229.136575 -122.736036 
L 233.855391 -126.537735 
L 238.574207 -130.209235 
L 243.293023 -134.605227 
L 248.011839 -138.599893 
L 252.730655 -144.332136 
L 257.449471 -149.232295 
L 262.168288 -153.78028 
L 266.887104 -159.313544 
L 271.60592 -163.914926 
L 276.324736 -168.963141 
L 281.043552 -173.452384 
L 285.762368 -177.745825 
L 290.481184 -181.862009 
L 295.2 -186.907142 
L 299.918816 -191.459059 
L 304.637632 -196.110379 
L 309.356448 -200.308831 
L 314.075264 -204.446495 
L 318.79408 -207.939822 
L 323.512896 -211.849448 
L 328.231712 -215.524286 
L 332.950529 -220.385087 
L 337.669345 -224.31488 
L 342.388161 -227.7247 
L 347.106977 -229.963305 
L 351.825793 -233.567498 
L 356.544609 -236.496755 
L 361.263425 -238.836773 
L 365.982241 -241.553279 
L 370.701057 -244.367721 
L 375.419873 -246.560019 
L 380.138689 -247.498694 
L 384.857505 -252.614297 
L 389.576321 -261.616637 
L 394.295137 -269.658104 
L 399.013953 -275.294511 
L 403.73277 -278.836518 
L 408.451586 -281.664247 
L 413.170402 -285.254833 
L 417.889218 -289.571101 
L 422.608034 -292.996155 
L 427.32685 -296.139079 
L 432.045666 -300.109309 
L 436.764482 -303.347974 
L 441.483298 -306.695415 
L 446.202114 -309.195403 
L 450.92093 -311.48544 
L 455.639746 -312.945897 
L 460.358562 -315.000126 
L 465.077378 -316.887896 
L 469.796195 -318.522087 
L 474.515011 -320.221181 
L 479.233827 -322.403076 
L 483.952643 -324.110733 
L 488.671459 -324.872481 
L 493.390275 -325.110195 
L 498.109091 -326.00943 
L 498.109091 -365.334545 
L 498.109091 -365.334545 
L 493.390275 -364.021626 
L 488.671459 -363.449457 
L 483.952643 -362.002108 
L 479.233827 -359.424978 
L 474.515011 -356.534447 
L 469.796195 -353.682305 
L 465.077378 -351.951543 
L 460.358562 -349.337265 
L 455.639746 -346.959465 
L 450.92093 -344.247346 
L 446.202114 -341.317932 
L 441.483298 -338.122543 
L 436.764482 -333.775339 
L 432.045666 -330.270892 
L 427.32685 -325.260428 
L 422.608034 -320.962392 
L 417.889218 -316.464978 
L 413.170402 -311.542933 
L 408.451586 -307.606779 
L 403.73277 -304.139325 
L 399.013953 -299.749505 
L 394.295137 -293.582968 
L 389.576321 -284.840084 
L 384.857505 -274.262052 
L 380.138689 -267.244901 
L 375.419873 -265.508418 
L 370.701057 -263.131185 
L 365.982241 -259.827145 
L 361.263425 -256.547093 
L 356.544609 -253.27604 
L 351.825793 -249.988737 
L 347.106977 -246.254583 
L 342.388161 -243.014935 
L 337.669345 -239.055255 
L 332.950529 -234.236536 
L 328.231712 -228.883865 
L 323.512896 -224.987117 
L 318.79408 -220.312324 
L 314.075264 -216.190429 
L 309.356448 -211.503118 
L 304.637632 -206.308777 
L 299.918816 -200.854849 
L 295.2 -195.813988 
L 290.481184 -190.111229 
L 285.762368 -185.216134 
L 281.043552 -180.730125 
L 276.324736 -175.72775 
L 271.60592 -170.300554 
L 266.887104 -165.62946 
L 262.168288 -160.177201 
L 257.449471 -155.510512 
L 252.730655 -150.516817 
L 248.011839 -145.09193 
L 243.293023 -141.035717 
L 238.574207 -136.74761 
L 233.855391 -133.344957 
L 229.136575 -129.418514 
L 224.417759 -126.251531 
L 219.698943 -124.207976 
L 214.980127 -122.549495 
L 210.261311 -121.767277 
L 205.542495 -121.439672 
L 200.823679 -120.355192 
L 196.104863 -119.508006 
L 191.386047 -119.432463 
L 186.66723 -120.709457 
L 181.948414 -121.584547 
L 177.229598 -124.556862 
L 172.510782 -124.851789 
L 167.791966 -126.98449 
L 163.07315 -127.907028 
L 158.354334 -127.584958 
L 153.635518 -129.158688 
L 148.916702 -130.917971 
L 144.197886 -129.119843 
L 139.47907 -125.900585 
L 134.760254 -119.629059 
L 130.041438 -116.744345 
L 125.322622 -113.638035 
L 120.603805 -112.415614 
L 115.884989 -107.977264 
L 111.166173 -108.16762 
L 106.447357 -103.879081 
L 101.728541 -99.163588 
L 97.009725 -98.281232 
L 92.290909 -94.042588 
z
" style="stroke: #00008b; stroke-opacity: 0.2"/>
    </defs>
    <g clip-path="url(#p25caee5ab4)">
     <use xlink:href="#m5a909f4cdf" x="0" y="432" style="fill: #00008b; fill-opacity: 0.2; stroke: #00008b; stroke-opacity: 0.2"/>
    </g>
   </g>
   <g id="PathCollection_1">
    <defs>
     <path id="m3eaf0258c0" d="M -2.5 2.5 
L 2.5 2.5 
L 2.5 -2.5 
L -2.5 -2.5 
z
" style="stroke: #7373fe"/>
    </defs>
    <g clip-path="url(#p25caee5ab4)">
     <use xlink:href="#m3eaf0258c0" x="205.542495" y="355.484364" style="fill: #7373fe; stroke: #7373fe"/>
     <use xlink:href="#m3eaf0258c0" x="252.730655" y="355.484364" style="fill: #7373fe; stroke: #7373fe"/>
     <use xlink:href="#m3eaf0258c0" x="257.449471" y="355.484364" style="fill: #7373fe; stroke: #7373fe"/>
     <use xlink:href="#m3eaf0258c0" x="262.168288" y="355.484364" style="fill: #7373fe; stroke: #7373fe"/>
     <use xlink:href="#m3eaf0258c0" x="266.887104" y="355.484364" style="fill: #7373fe; stroke: #7373fe"/>
     <use xlink:href="#m3eaf0258c0" x="271.60592" y="355.484364" style="fill: #7373fe; stroke: #7373fe"/>
     <use xlink:href="#m3eaf0258c0" x="276.324736" y="355.484364" style="fill: #7373fe; stroke: #7373fe"/>
     <use xlink:href="#m3eaf0258c0" x="281.043552" y="355.484364" style="fill: #7373fe; stroke: #7373fe"/>
     <use xlink:href="#m3eaf0258c0" x="285.762368" y="355.484364" style="fill: #7373fe; stroke: #7373fe"/>
     <use xlink:href="#m3eaf0258c0" x="290.481184" y="355.484364" style="fill: #7373fe; stroke: #7373fe"/>
     <use xlink:href="#m3eaf0258c0" x="295.2" y="355.484364" style="fill: #7373fe; stroke: #7373fe"/>
     <use xlink:href="#m3eaf0258c0" x="299.918816" y="355.484364" style="fill: #7373fe; stroke: #7373fe"/>
     <use xlink:href="#m3eaf0258c0" x="304.637632" y="355.484364" style="fill: #7373fe; stroke: #7373fe"/>
     <use xlink:href="#m3eaf0258c0" x="309.356448" y="355.484364" style="fill: #7373fe; stroke: #7373fe"/>
     <use xlink:href="#m3eaf0258c0" x="314.075264" y="355.484364" style="fill: #7373fe; stroke: #7373fe"/>
     <use xlink:href="#m3eaf0258c0" x="318.79408" y="355.484364" style="fill: #7373fe; stroke: #7373fe"/>
     <use xlink:href="#m3eaf0258c0" x="323.512896" y="355.484364" style="fill: #7373fe; stroke: #7373fe"/>
     <use xlink:href="#m3eaf0258c0" x="328.231712" y="355.484364" style="fill: #7373fe; stroke: #7373fe"/>
     <use xlink:href="#m3eaf0258c0" x="332.950529" y="355.484364" style="fill: #7373fe; stroke: #7373fe"/>
     <use xlink:href="#m3eaf0258c0" x="337.669345" y="355.484364" style="fill: #7373fe; stroke: #7373fe"/>
     <use xlink:href="#m3eaf0258c0" x="342.388161" y="355.484364" style="fill: #7373fe; stroke: #7373fe"/>
     <use xlink:href="#m3eaf0258c0" x="347.106977" y="355.484364" style="fill: #7373fe; stroke: #7373fe"/>
     <use xlink:href="#m3eaf0258c0" x="351.825793" y="355.484364" style="fill: #7373fe; stroke: #7373fe"/>
     <use xlink:href="#m3eaf0258c0" x="356.544609" y="355.484364" style="fill: #7373fe; stroke: #7373fe"/>
     <use xlink:href="#m3eaf0258c0" x="361.263425" y="355.484364" style="fill: #7373fe; stroke: #7373fe"/>
     <use xlink:href="#m3eaf0258c0" x="365.982241" y="355.484364" style="fill: #7373fe; stroke: #7373fe"/>
     <use xlink:href="#m3eaf0258c0" x="370.701057" y="355.484364" style="fill: #7373fe; stroke: #7373fe"/>
     <use xlink:href="#m3eaf0258c0" x="375.419873" y="355.484364" style="fill: #7373fe; stroke: #7373fe"/>
     <use xlink:href="#m3eaf0258c0" x="380.138689" y="355.484364" style="fill: #7373fe; stroke: #7373fe"/>
     <use xlink:href="#m3eaf0258c0" x="384.857505" y="355.484364" style="fill: #7373fe; stroke: #7373fe"/>
     <use xlink:href="#m3eaf0258c0" x="389.576321" y="355.484364" style="fill: #7373fe; stroke: #7373fe"/>
     <use xlink:href="#m3eaf0258c0" x="394.295137" y="355.484364" style="fill: #7373fe; stroke: #7373fe"/>
     <use xlink:href="#m3eaf0258c0" x="399.013953" y="355.484364" style="fill: #7373fe; stroke: #7373fe"/>
     <use xlink:href="#m3eaf0258c0" x="403.73277" y="355.484364" style="fill: #7373fe; stroke: #7373fe"/>
     <use xlink:href="#m3eaf0258c0" x="408.451586" y="355.484364" style="fill: #7373fe; stroke: #7373fe"/>
     <use xlink:href="#m3eaf0258c0" x="413.170402" y="355.484364" style="fill: #7373fe; stroke: #7373fe"/>
     <use xlink:href="#m3eaf0258c0" x="417.889218" y="355.484364" style="fill: #7373fe; stroke: #7373fe"/>
     <use xlink:href="#m3eaf0258c0" x="422.608034" y="355.484364" style="fill: #7373fe; stroke: #7373fe"/>
     <use xlink:href="#m3eaf0258c0" x="427.32685" y="355.484364" style="fill: #7373fe; stroke: #7373fe"/>
     <use xlink:href="#m3eaf0258c0" x="432.045666" y="355.484364" style="fill: #7373fe; stroke: #7373fe"/>
     <use xlink:href="#m3eaf0258c0" x="436.764482" y="355.484364" style="fill: #7373fe; stroke: #7373fe"/>
     <use xlink:href="#m3eaf0258c0" x="441.483298" y="355.484364" style="fill: #7373fe; stroke: #7373fe"/>
     <use xlink:href="#m3eaf0258c0" x="446.202114" y="355.484364" style="fill: #7373fe; stroke: #7373fe"/>
     <use xlink:href="#m3eaf0258c0" x="450.92093" y="355.484364" style="fill: #7373fe; stroke: #7373fe"/>
     <use xlink:href="#m3eaf0258c0" x="455.639746" y="355.484364" style="fill: #7373fe; stroke: #7373fe"/>
     <use xlink:href="#m3eaf0258c0" x="460.358562" y="355.484364" style="fill: #7373fe; stroke: #7373fe"/>
     <use xlink:href="#m3eaf0258c0" x="465.077378" y="355.484364" style="fill: #7373fe; stroke: #7373fe"/>
     <use xlink:href="#m3eaf0258c0" x="469.796195" y="355.484364" style="fill: #7373fe; stroke: #7373fe"/>
     <use xlink:href="#m3eaf0258c0" x="474.515011" y="355.484364" style="fill: #7373fe; stroke: #7373fe"/>
     <use xlink:href="#m3eaf0258c0" x="479.233827" y="355.484364" style="fill: #7373fe; stroke: #7373fe"/>
     <use xlink:href="#m3eaf0258c0" x="483.952643" y="355.484364" style="fill: #7373fe; stroke: #7373fe"/>
     <use xlink:href="#m3eaf0258c0" x="488.671459" y="355.484364" style="fill: #7373fe; stroke: #7373fe"/>
     <use xlink:href="#m3eaf0258c0" x="493.390275" y="355.484364" style="fill: #7373fe; stroke: #7373fe"/>
     <use xlink:href="#m3eaf0258c0" x="498.109091" y="355.484364" style="fill: #7373fe; stroke: #7373fe"/>
    </g>
   </g>
   <g id="PathCollection_2">
    <defs>
     <path id="m209b5230f9" d="M -2.5 2.5 
L 2.5 2.5 
L 2.5 -2.5 
L -2.5 -2.5 
z
" style="stroke: #00008b"/>
    </defs>
    <g clip-path="url(#p25caee5ab4)">
     <use xlink:href="#m209b5230f9" x="134.760254" y="363.174545" style="fill: #00008b; stroke: #00008b"/>
     <use xlink:href="#m209b5230f9" x="196.104863" y="363.174545" style="fill: #00008b; stroke: #00008b"/>
     <use xlink:href="#m209b5230f9" x="200.823679" y="363.174545" style="fill: #00008b; stroke: #00008b"/>
     <use xlink:href="#m209b5230f9" x="205.542495" y="363.174545" style="fill: #00008b; stroke: #00008b"/>
     <use xlink:href="#m209b5230f9" x="210.261311" y="363.174545" style="fill: #00008b; stroke: #00008b"/>
     <use xlink:href="#m209b5230f9" x="214.980127" y="363.174545" style="fill: #00008b; stroke: #00008b"/>
     <use xlink:href="#m209b5230f9" x="219.698943" y="363.174545" style="fill: #00008b; stroke: #00008b"/>
     <use xlink:href="#m209b5230f9" x="224.417759" y="363.174545" style="fill: #00008b; stroke: #00008b"/>
     <use xlink:href="#m209b5230f9" x="229.136575" y="363.174545" style="fill: #00008b; stroke: #00008b"/>
     <use xlink:href="#m209b5230f9" x="233.855391" y="363.174545" style="fill: #00008b; stroke: #00008b"/>
     <use xlink:href="#m209b5230f9" x="238.574207" y="363.174545" style="fill: #00008b; stroke: #00008b"/>
     <use xlink:href="#m209b5230f9" x="243.293023" y="363.174545" style="fill: #00008b; stroke: #00008b"/>
     <use xlink:href="#m209b5230f9" x="248.011839" y="363.174545" style="fill: #00008b; stroke: #00008b"/>
     <use xlink:href="#m209b5230f9" x="252.730655" y="363.174545" style="fill: #00008b; stroke: #00008b"/>
     <use xlink:href="#m209b5230f9" x="257.449471" y="363.174545" style="fill: #00008b; stroke: #00008b"/>
     <use xlink:href="#m209b5230f9" x="262.168288" y="363.174545" style="fill: #00008b; stroke: #00008b"/>
     <use xlink:href="#m209b5230f9" x="266.887104" y="363.174545" style="fill: #00008b; stroke: #00008b"/>
     <use xlink:href="#m209b5230f9" x="271.60592" y="363.174545" style="fill: #00008b; stroke: #00008b"/>
     <use xlink:href="#m209b5230f9" x="276.324736" y="363.174545" style="fill: #00008b; stroke: #00008b"/>
     <use xlink:href="#m209b5230f9" x="281.043552" y="363.174545" style="fill: #00008b; stroke: #00008b"/>
     <use xlink:href="#m209b5230f9" x="285.762368" y="363.174545" style="fill: #00008b; stroke: #00008b"/>
     <use xlink:href="#m209b5230f9" x="290.481184" y="363.174545" style="fill: #00008b; stroke: #00008b"/>
     <use xlink:href="#m209b5230f9" x="295.2" y="363.174545" style="fill: #00008b; stroke: #00008b"/>
     <use xlink:href="#m209b5230f9" x="299.918816" y="363.174545" style="fill: #00008b; stroke: #00008b"/>
     <use xlink:href="#m209b5230f9" x="304.637632" y="363.174545" style="fill: #00008b; stroke: #00008b"/>
     <use xlink:href="#m209b5230f9" x="309.356448" y="363.174545" style="fill: #00008b; stroke: #00008b"/>
     <use xlink:href="#m209b5230f9" x="314.075264" y="363.174545" style="fill: #00008b; stroke: #00008b"/>
     <use xlink:href="#m209b5230f9" x="318.79408" y="363.174545" style="fill: #00008b; stroke: #00008b"/>
     <use xlink:href="#m209b5230f9" x="323.512896" y="363.174545" style="fill: #00008b; stroke: #00008b"/>
     <use xlink:href="#m209b5230f9" x="328.231712" y="363.174545" style="fill: #00008b; stroke: #00008b"/>
     <use xlink:href="#m209b5230f9" x="332.950529" y="363.174545" style="fill: #00008b; stroke: #00008b"/>
     <use xlink:href="#m209b5230f9" x="337.669345" y="363.174545" style="fill: #00008b; stroke: #00008b"/>
     <use xlink:href="#m209b5230f9" x="342.388161" y="363.174545" style="fill: #00008b; stroke: #00008b"/>
     <use xlink:href="#m209b5230f9" x="347.106977" y="363.174545" style="fill: #00008b; stroke: #00008b"/>
     <use xlink:href="#m209b5230f9" x="351.825793" y="363.174545" style="fill: #00008b; stroke: #00008b"/>
     <use xlink:href="#m209b5230f9" x="356.544609" y="363.174545" style="fill: #00008b; stroke: #00008b"/>
     <use xlink:href="#m209b5230f9" x="361.263425" y="363.174545" style="fill: #00008b; stroke: #00008b"/>
     <use xlink:href="#m209b5230f9" x="365.982241" y="363.174545" style="fill: #00008b; stroke: #00008b"/>
     <use xlink:href="#m209b5230f9" x="370.701057" y="363.174545" style="fill: #00008b; stroke: #00008b"/>
     <use xlink:href="#m209b5230f9" x="375.419873" y="363.174545" style="fill: #00008b; stroke: #00008b"/>
     <use xlink:href="#m209b5230f9" x="380.138689" y="363.174545" style="fill: #00008b; stroke: #00008b"/>
     <use xlink:href="#m209b5230f9" x="384.857505" y="363.174545" style="fill: #00008b; stroke: #00008b"/>
     <use xlink:href="#m209b5230f9" x="389.576321" y="363.174545" style="fill: #00008b; stroke: #00008b"/>
     <use xlink:href="#m209b5230f9" x="394.295137" y="363.174545" style="fill: #00008b; stroke: #00008b"/>
     <use xlink:href="#m209b5230f9" x="399.013953" y="363.174545" style="fill: #00008b; stroke: #00008b"/>
     <use xlink:href="#m209b5230f9" x="403.73277" y="363.174545" style="fill: #00008b; stroke: #00008b"/>
     <use xlink:href="#m209b5230f9" x="408.451586" y="363.174545" style="fill: #00008b; stroke: #00008b"/>
     <use xlink:href="#m209b5230f9" x="413.170402" y="363.174545" style="fill: #00008b; stroke: #00008b"/>
     <use xlink:href="#m209b5230f9" x="417.889218" y="363.174545" style="fill: #00008b; stroke: #00008b"/>
     <use xlink:href="#m209b5230f9" x="422.608034" y="363.174545" style="fill: #00008b; stroke: #00008b"/>
     <use xlink:href="#m209b5230f9" x="427.32685" y="363.174545" style="fill: #00008b; stroke: #00008b"/>
     <use xlink:href="#m209b5230f9" x="432.045666" y="363.174545" style="fill: #00008b; stroke: #00008b"/>
     <use xlink:href="#m209b5230f9" x="436.764482" y="363.174545" style="fill: #00008b; stroke: #00008b"/>
     <use xlink:href="#m209b5230f9" x="441.483298" y="363.174545" style="fill: #00008b; stroke: #00008b"/>
     <use xlink:href="#m209b5230f9" x="446.202114" y="363.174545" style="fill: #00008b; stroke: #00008b"/>
     <use xlink:href="#m209b5230f9" x="450.92093" y="363.174545" style="fill: #00008b; stroke: #00008b"/>
     <use xlink:href="#m209b5230f9" x="455.639746" y="363.174545" style="fill: #00008b; stroke: #00008b"/>
     <use xlink:href="#m209b5230f9" x="460.358562" y="363.174545" style="fill: #00008b; stroke: #00008b"/>
     <use xlink:href="#m209b5230f9" x="465.077378" y="363.174545" style="fill: #00008b; stroke: #00008b"/>
     <use xlink:href="#m209b5230f9" x="469.796195" y="363.174545" style="fill: #00008b; stroke: #00008b"/>
     <use xlink:href="#m209b5230f9" x="474.515011" y="363.174545" style="fill: #00008b; stroke: #00008b"/>
     <use xlink:href="#m209b5230f9" x="479.233827" y="363.174545" style="fill: #00008b; stroke: #00008b"/>
     <use xlink:href="#m209b5230f9" x="483.952643" y="363.174545" style="fill: #00008b; stroke: #00008b"/>
     <use xlink:href="#m209b5230f9" x="488.671459" y="363.174545" style="fill: #00008b; stroke: #00008b"/>
     <use xlink:href="#m209b5230f9" x="493.390275" y="363.174545" style="fill: #00008b; stroke: #00008b"/>
     <use xlink:href="#m209b5230f9" x="498.109091" y="363.174545" style="fill: #00008b; stroke: #00008b"/>
    </g>
   </g>
   <g id="line2d_12">
    <path d="M 92.290909 338.235692 
L 97.009725 342.344401 
L 101.728541 342.318371 
L 106.447357 341.776907 
L 111.166173 341.869229 
L 115.884989 341.935152 
L 120.603805 342.667395 
L 125.322622 341.536523 
L 130.041438 342.532852 
L 134.760254 342.021017 
L 139.47907 335.451198 
L 144.197886 335.208701 
L 148.916702 336.003061 
L 153.635518 336.260074 
L 158.354334 335.228846 
L 163.07315 335.546959 
L 167.791966 335.520353 
L 172.510782 333.887421 
L 177.229598 333.657999 
L 181.948414 334.078946 
L 186.66723 334.42794 
L 191.386047 335.404588 
L 196.104863 335.338698 
L 200.823679 336.935861 
L 205.542495 338.130728 
L 210.261311 335.721353 
L 214.980127 333.340809 
L 219.698943 334.618872 
L 224.417759 335.792922 
L 229.136575 333.795528 
L 233.855391 329.841258 
L 238.574207 329.413582 
L 243.293023 329.928698 
L 248.011839 328.951393 
L 252.730655 326.641596 
L 257.449471 324.389834 
L 262.168288 324.618455 
L 266.887104 326.185556 
L 271.60592 324.796994 
L 276.324736 324.508322 
L 281.043552 325.005483 
L 285.762368 324.872799 
L 290.481184 324.827045 
L 295.2 321.707739 
L 299.918816 321.530293 
L 304.637632 320.30691 
L 309.356448 316.094386 
L 314.075264 314.121153 
L 318.79408 314.081911 
L 323.512896 310.791715 
L 328.231712 308.605404 
L 332.950529 309.796883 
L 337.669345 311.635143 
L 342.388161 312.647254 
L 347.106977 312.801191 
L 351.825793 313.513325 
L 356.544609 311.749834 
L 361.263425 310.047896 
L 365.982241 307.635049 
L 370.701057 308.511965 
L 375.419873 313.830274 
L 380.138689 292.636034 
L 384.857505 291.643698 
L 389.576321 310.516658 
L 394.295137 317.832585 
L 399.013953 311.740935 
L 403.73277 306.922097 
L 408.451586 299.735195 
L 413.170402 292.882786 
L 417.889218 295.331847 
L 422.608034 300.924354 
L 427.32685 302.211855 
L 432.045666 300.634399 
L 436.764482 296.29407 
L 441.483298 295.763341 
L 446.202114 296.051149 
L 450.92093 297.656441 
L 455.639746 296.965942 
L 460.358562 295.525249 
L 465.077378 295.013206 
L 469.796195 296.902614 
L 474.515011 296.812528 
L 479.233827 296.631427 
L 483.952643 292.465987 
L 488.671459 293.014961 
L 493.390275 293.71609 
L 498.109091 294.498807 
" clip-path="url(#p25caee5ab4)" style="fill: none; stroke: #7373fe; stroke-width: 2; stroke-linecap: round"/>
   </g>
   <g id="line2d_13">
    <path d="M 92.290909 341.587636 
L 97.009725 342.285554 
L 101.728541 342.44022 
L 106.447357 342.373002 
L 111.166173 342.446419 
L 115.884989 342.298216 
L 120.603805 342.057646 
L 125.322622 342.236779 
L 130.041438 342.304584 
L 134.760254 342.206962 
L 139.47907 334.939217 
L 144.197886 335.125067 
L 148.916702 335.427893 
L 153.635518 335.778437 
L 158.354334 335.018388 
L 163.07315 334.099769 
L 167.791966 334.322555 
L 172.510782 334.123541 
L 177.229598 334.184389 
L 181.948414 334.05948 
L 186.66723 333.587016 
L 191.386047 333.806112 
L 196.104863 333.876703 
L 200.823679 334.371283 
L 205.542495 334.314628 
L 210.261311 333.543061 
L 214.980127 333.593615 
L 219.698943 333.610303 
L 224.417759 333.706004 
L 229.136575 333.487373 
L 233.855391 334.080785 
L 238.574207 333.956884 
L 243.293023 333.876579 
L 248.011839 333.929123 
L 252.730655 333.730674 
L 257.449471 333.629966 
L 262.168288 334.104237 
L 266.887104 334.040355 
L 271.60592 334.044176 
L 276.324736 334.587726 
L 281.043552 334.305838 
L 285.762368 333.587711 
L 290.481184 333.120616 
L 295.2 332.867681 
L 299.918816 333.203394 
L 304.637632 333.524303 
L 309.356448 333.180773 
L 314.075264 333.179765 
L 318.79408 332.321952 
L 323.512896 332.12059 
L 328.231712 332.048763 
L 332.950529 331.736524 
L 337.669345 331.826749 
L 342.388161 331.36015 
L 347.106977 331.047031 
L 351.825793 331.731199 
L 356.544609 332.267153 
L 361.263425 332.507688 
L 365.982241 333.56563 
L 370.701057 335.460921 
L 375.419873 339.871775 
L 380.138689 340.458579 
L 384.857505 341.167592 
L 389.576321 340.381658 
L 394.295137 340.576285 
L 399.013953 340.522339 
L 403.73277 340.405192 
L 408.451586 340.025876 
L 413.170402 339.969781 
L 417.889218 340.104966 
L 422.608034 340.67463 
L 427.32685 340.724636 
L 432.045666 340.624062 
L 436.764482 340.340615 
L 441.483298 339.993658 
L 446.202114 340.197616 
L 450.92093 340.526811 
L 455.639746 340.147414 
L 460.358562 340.328535 
L 465.077378 340.180836 
L 469.796195 340.117613 
L 474.515011 340.472944 
L 479.233827 340.59846 
L 483.952643 340.054665 
L 488.671459 340.044509 
L 493.390275 340.399129 
L 498.109091 340.58945 
" clip-path="url(#p25caee5ab4)" style="fill: none; stroke-dasharray: 5.55,2.4; stroke-dashoffset: 0; stroke: #7373fe; stroke-opacity: 0.8; stroke-width: 1.5"/>
   </g>
   <g id="line2d_14">
    <path d="M 92.290909 340.362446 
L 97.009725 336.800199 
L 101.728541 335.78133 
L 106.447357 330.184568 
L 111.166173 325.836724 
L 115.884989 326.673794 
L 120.603805 322.617238 
L 125.322622 320.79651 
L 130.041438 318.094387 
L 134.760254 315.320835 
L 139.47907 308.942572 
L 144.197886 305.654004 
L 148.916702 303.947248 
L 153.635518 305.672018 
L 158.354334 307.010696 
L 163.07315 306.9768 
L 167.791966 307.810507 
L 172.510782 309.496135 
L 177.229598 310.038221 
L 181.948414 312.753939 
L 186.66723 314.173115 
L 191.386047 315.299154 
L 196.104863 315.421357 
L 200.823679 314.717951 
L 205.542495 313.830057 
L 210.261311 313.361585 
L 214.980127 312.398938 
L 219.698943 310.780532 
L 224.417759 308.813079 
L 229.136575 305.922725 
L 233.855391 302.058654 
L 238.574207 298.521577 
L 243.293023 294.179528 
L 248.011839 290.154089 
L 252.730655 284.575524 
L 257.449471 279.628597 
L 262.168288 275.021259 
L 266.887104 269.528498 
L 271.60592 264.89226 
L 276.324736 259.654554 
L 281.043552 254.908745 
L 285.762368 250.519021 
L 290.481184 246.013381 
L 295.2 240.639435 
L 299.918816 235.843046 
L 304.637632 230.790422 
L 309.356448 226.094025 
L 314.075264 221.681538 
L 318.79408 217.873927 
L 323.512896 213.581717 
L 328.231712 209.795924 
L 332.950529 204.689188 
L 337.669345 200.314932 
L 342.388161 196.630182 
L 347.106977 193.891056 
L 351.825793 190.221883 
L 356.544609 187.113603 
L 361.263425 184.308067 
L 365.982241 181.309788 
L 370.701057 178.250547 
L 375.419873 175.965781 
L 380.138689 174.628202 
L 384.857505 168.561826 
L 389.576321 158.77164 
L 394.295137 150.379464 
L 399.013953 144.477992 
L 403.73277 140.512079 
L 408.451586 137.364487 
L 413.170402 133.601117 
L 417.889218 128.98196 
L 422.608034 125.020727 
L 427.32685 121.300247 
L 432.045666 116.8099 
L 436.764482 113.438344 
L 441.483298 109.591021 
L 446.202114 106.743332 
L 450.92093 104.133607 
L 455.639746 102.047319 
L 460.358562 99.831305 
L 465.077378 97.580281 
L 469.796195 95.897804 
L 474.515011 93.622186 
L 479.233827 91.085973 
L 483.952643 88.94358 
L 488.671459 87.839031 
L 493.390275 87.434089 
L 498.109091 86.328012 
" clip-path="url(#p25caee5ab4)" style="fill: none; stroke: #00008b; stroke-width: 2; stroke-linecap: round"/>
   </g>
   <g id="line2d_15">
    <path d="M 92.290909 339.994287 
L 97.009725 336.862817 
L 101.728541 332.940889 
L 106.447357 330.194491 
L 111.166173 327.43422 
L 115.884989 323.895515 
L 120.603805 320.606166 
L 125.322622 316.643227 
L 130.041438 312.820141 
L 134.760254 308.297665 
L 139.47907 304.577653 
L 144.197886 303.066579 
L 148.916702 303.077385 
L 153.635518 304.05123 
L 158.354334 305.847196 
L 163.07315 307.999056 
L 167.791966 310.456365 
L 172.510782 313.1563 
L 177.229598 315.457541 
L 181.948414 317.541346 
L 186.66723 319.210103 
L 191.386047 320.856782 
L 196.104863 322.16687 
L 200.823679 323.241806 
L 205.542495 324.319845 
L 210.261311 324.996395 
L 214.980127 325.872806 
L 219.698943 326.297323 
L 224.417759 326.639953 
L 229.136575 327.029449 
L 233.855391 327.53675 
L 238.574207 327.700071 
L 243.293023 327.81274 
L 248.011839 327.860789 
L 252.730655 327.775033 
L 257.449471 327.863298 
L 262.168288 328.069546 
L 266.887104 328.151915 
L 271.60592 328.01542 
L 276.324736 327.989881 
L 281.043552 328.129346 
L 285.762368 328.202183 
L 290.481184 328.19296 
L 295.2 328.15551 
L 299.918816 328.209471 
L 304.637632 327.932271 
L 309.356448 327.980683 
L 314.075264 327.891348 
L 318.79408 327.837953 
L 323.512896 327.973426 
L 328.231712 328.280669 
L 332.950529 328.383517 
L 337.669345 328.585742 
L 342.388161 328.72188 
L 347.106977 328.719581 
L 351.825793 328.823851 
L 356.544609 329.243393 
L 361.263425 329.480847 
L 365.982241 329.736976 
L 370.701057 330.13163 
L 375.419873 330.762721 
L 380.138689 331.34625 
L 384.857505 331.631311 
L 389.576321 331.771397 
L 394.295137 331.936973 
L 399.013953 332.17624 
L 403.73277 332.436285 
L 408.451586 332.750953 
L 413.170402 332.874702 
L 417.889218 332.918144 
L 422.608034 332.967335 
L 427.32685 333.10153 
L 432.045666 333.104995 
L 436.764482 333.027867 
L 441.483298 333.140926 
L 446.202114 333.307304 
L 450.92093 333.403817 
L 455.639746 333.542128 
L 460.358562 333.823368 
L 465.077378 333.741954 
L 469.796195 333.49578 
L 474.515011 333.566704 
L 479.233827 333.625351 
L 483.952643 333.796195 
L 488.671459 333.859216 
L 493.390275 333.976999 
L 498.109091 333.68302 
" clip-path="url(#p25caee5ab4)" style="fill: none; stroke-dasharray: 5.55,2.4; stroke-dashoffset: 0; stroke: #00008b; stroke-opacity: 0.8; stroke-width: 1.5"/>
   </g>
   <g id="line2d_16">
    <path d="M 139.47907 378 
L 139.47907 51.84 
" clip-path="url(#p25caee5ab4)" style="fill: none; stroke-dasharray: 5.55,2.4; stroke-dashoffset: 0; stroke: #808080; stroke-opacity: 0.7; stroke-width: 1.5"/>
   </g>
   <g id="line2d_17">
    <path d="M 375.419873 378 
L 375.419873 51.84 
" clip-path="url(#p25caee5ab4)" style="fill: none; stroke-dasharray: 5.55,2.4; stroke-dashoffset: 0; stroke: #808080; stroke-opacity: 0.7; stroke-width: 1.5"/>
   </g>
   <g id="patch_3">
    <path d="M 72 378 
L 72 51.84 
" style="fill: none; stroke: #000000; stroke-width: 1.5; stroke-linejoin: miter; stroke-linecap: square"/>
   </g>
   <g id="patch_4">
    <path d="M 72 378 
L 518.4 378 
" style="fill: none; stroke: #000000; stroke-width: 1.5; stroke-linejoin: miter; stroke-linecap: square"/>
   </g>
   <g id="text_14">
    <!-- L1_sactemporal -->
    <g style="fill: #262626" transform="translate(238.093359 45.84) scale(0.15 -0.15)">
     <defs>
      <path id="Arial-BoldMT-4c" d="M 491 0 
L 491 4544 
L 1416 4544 
L 1416 772 
L 3716 772 
L 3716 0 
L 491 0 
z
" transform="scale(0.015625)"/>
      <path id="Arial-BoldMT-31" d="M 2519 0 
L 1641 0 
L 1641 3309 
Q 1159 2859 506 2644 
L 506 3441 
Q 850 3553 1253 3867 
Q 1656 4181 1806 4600 
L 2519 4600 
L 2519 0 
z
" transform="scale(0.015625)"/>
      <path id="Arial-BoldMT-5f" d="M -59 -1266 
L -59 -697 
L 3591 -697 
L 3591 -1266 
L -59 -1266 
z
" transform="scale(0.015625)"/>
      <path id="Arial-BoldMT-73" d="M 150 947 
L 1031 1081 
Q 1088 825 1259 692 
Q 1431 559 1741 559 
Q 2081 559 2253 684 
Q 2369 772 2369 919 
Q 2369 1019 2306 1084 
Q 2241 1147 2013 1200 
Q 950 1434 666 1628 
Q 272 1897 272 2375 
Q 272 2806 612 3100 
Q 953 3394 1669 3394 
Q 2350 3394 2681 3172 
Q 3013 2950 3138 2516 
L 2309 2363 
Q 2256 2556 2107 2659 
Q 1959 2763 1684 2763 
Q 1338 2763 1188 2666 
Q 1088 2597 1088 2488 
Q 1088 2394 1175 2328 
Q 1294 2241 1995 2081 
Q 2697 1922 2975 1691 
Q 3250 1456 3250 1038 
Q 3250 581 2869 253 
Q 2488 -75 1741 -75 
Q 1063 -75 667 200 
Q 272 475 150 947 
z
" transform="scale(0.015625)"/>
      <path id="Arial-BoldMT-61" d="M 1116 2306 
L 319 2450 
Q 453 2931 781 3162 
Q 1109 3394 1756 3394 
Q 2344 3394 2631 3255 
Q 2919 3116 3036 2902 
Q 3153 2688 3153 2116 
L 3144 1091 
Q 3144 653 3186 445 
Q 3228 238 3344 0 
L 2475 0 
Q 2441 88 2391 259 
Q 2369 338 2359 363 
Q 2134 144 1878 34 
Q 1622 -75 1331 -75 
Q 819 -75 523 203 
Q 228 481 228 906 
Q 228 1188 362 1408 
Q 497 1628 739 1745 
Q 981 1863 1438 1950 
Q 2053 2066 2291 2166 
L 2291 2253 
Q 2291 2506 2166 2614 
Q 2041 2722 1694 2722 
Q 1459 2722 1328 2630 
Q 1197 2538 1116 2306 
z
M 2291 1594 
Q 2122 1538 1756 1459 
Q 1391 1381 1278 1306 
Q 1106 1184 1106 997 
Q 1106 813 1243 678 
Q 1381 544 1594 544 
Q 1831 544 2047 700 
Q 2206 819 2256 991 
Q 2291 1103 2291 1419 
L 2291 1594 
z
" transform="scale(0.015625)"/>
      <path id="Arial-BoldMT-63" d="M 3353 2338 
L 2488 2181 
Q 2444 2441 2289 2572 
Q 2134 2703 1888 2703 
Q 1559 2703 1364 2476 
Q 1169 2250 1169 1719 
Q 1169 1128 1367 884 
Q 1566 641 1900 641 
Q 2150 641 2309 783 
Q 2469 925 2534 1272 
L 3397 1125 
Q 3263 531 2881 228 
Q 2500 -75 1859 -75 
Q 1131 -75 698 384 
Q 266 844 266 1656 
Q 266 2478 700 2936 
Q 1134 3394 1875 3394 
Q 2481 3394 2839 3133 
Q 3197 2872 3353 2338 
z
" transform="scale(0.015625)"/>
      <path id="Arial-BoldMT-74" d="M 1981 3319 
L 1981 2619 
L 1381 2619 
L 1381 1281 
Q 1381 875 1398 808 
Q 1416 741 1477 697 
Q 1538 653 1625 653 
Q 1747 653 1978 738 
L 2053 56 
Q 1747 -75 1359 -75 
Q 1122 -75 931 4 
Q 741 84 652 211 
Q 563 338 528 553 
Q 500 706 500 1172 
L 500 2619 
L 97 2619 
L 97 3319 
L 500 3319 
L 500 3978 
L 1381 4491 
L 1381 3319 
L 1981 3319 
z
" transform="scale(0.015625)"/>
      <path id="Arial-BoldMT-65" d="M 2381 1056 
L 3256 909 
Q 3088 428 2723 176 
Q 2359 -75 1813 -75 
Q 947 -75 531 491 
Q 203 944 203 1634 
Q 203 2459 634 2926 
Q 1066 3394 1725 3394 
Q 2466 3394 2894 2905 
Q 3322 2416 3303 1406 
L 1103 1406 
Q 1113 1016 1316 798 
Q 1519 581 1822 581 
Q 2028 581 2168 693 
Q 2309 806 2381 1056 
z
M 2431 1944 
Q 2422 2325 2234 2523 
Q 2047 2722 1778 2722 
Q 1491 2722 1303 2513 
Q 1116 2303 1119 1944 
L 2431 1944 
z
" transform="scale(0.015625)"/>
      <path id="Arial-BoldMT-6d" d="M 394 3319 
L 1203 3319 
L 1203 2866 
Q 1638 3394 2238 3394 
Q 2556 3394 2790 3262 
Q 3025 3131 3175 2866 
Q 3394 3131 3647 3262 
Q 3900 3394 4188 3394 
Q 4553 3394 4806 3245 
Q 5059 3097 5184 2809 
Q 5275 2597 5275 2122 
L 5275 0 
L 4397 0 
L 4397 1897 
Q 4397 2391 4306 2534 
Q 4184 2722 3931 2722 
Q 3747 2722 3584 2609 
Q 3422 2497 3350 2280 
Q 3278 2063 3278 1594 
L 3278 0 
L 2400 0 
L 2400 1819 
Q 2400 2303 2353 2443 
Q 2306 2584 2207 2653 
Q 2109 2722 1941 2722 
Q 1738 2722 1575 2612 
Q 1413 2503 1342 2297 
Q 1272 2091 1272 1613 
L 1272 0 
L 394 0 
L 394 3319 
z
" transform="scale(0.015625)"/>
      <path id="Arial-BoldMT-70" d="M 434 3319 
L 1253 3319 
L 1253 2831 
Q 1413 3081 1684 3237 
Q 1956 3394 2288 3394 
Q 2866 3394 3269 2941 
Q 3672 2488 3672 1678 
Q 3672 847 3265 386 
Q 2859 -75 2281 -75 
Q 2006 -75 1782 34 
Q 1559 144 1313 409 
L 1313 -1263 
L 434 -1263 
L 434 3319 
z
M 1303 1716 
Q 1303 1156 1525 889 
Q 1747 622 2066 622 
Q 2372 622 2575 867 
Q 2778 1113 2778 1672 
Q 2778 2194 2568 2447 
Q 2359 2700 2050 2700 
Q 1728 2700 1515 2451 
Q 1303 2203 1303 1716 
z
" transform="scale(0.015625)"/>
      <path id="Arial-BoldMT-6f" d="M 256 1706 
Q 256 2144 472 2553 
Q 688 2963 1083 3178 
Q 1478 3394 1966 3394 
Q 2719 3394 3200 2905 
Q 3681 2416 3681 1669 
Q 3681 916 3195 420 
Q 2709 -75 1972 -75 
Q 1516 -75 1102 131 
Q 688 338 472 736 
Q 256 1134 256 1706 
z
M 1156 1659 
Q 1156 1166 1390 903 
Q 1625 641 1969 641 
Q 2313 641 2545 903 
Q 2778 1166 2778 1666 
Q 2778 2153 2545 2415 
Q 2313 2678 1969 2678 
Q 1625 2678 1390 2415 
Q 1156 2153 1156 1659 
z
" transform="scale(0.015625)"/>
      <path id="Arial-BoldMT-72" d="M 1300 0 
L 422 0 
L 422 3319 
L 1238 3319 
L 1238 2847 
Q 1447 3181 1614 3287 
Q 1781 3394 1994 3394 
Q 2294 3394 2572 3228 
L 2300 2463 
Q 2078 2606 1888 2606 
Q 1703 2606 1575 2504 
Q 1447 2403 1373 2137 
Q 1300 1872 1300 1025 
L 1300 0 
z
" transform="scale(0.015625)"/>
      <path id="Arial-BoldMT-6c" d="M 459 0 
L 459 4581 
L 1338 4581 
L 1338 0 
L 459 0 
z
" transform="scale(0.015625)"/>
     </defs>
     <use xlink:href="#Arial-BoldMT-4c"/>
     <use xlink:href="#Arial-BoldMT-31" x="61.083984"/>
     <use xlink:href="#Arial-BoldMT-5f" x="116.699219"/>
     <use xlink:href="#Arial-BoldMT-73" x="172.314453"/>
     <use xlink:href="#Arial-BoldMT-61" x="227.929688"/>
     <use xlink:href="#Arial-BoldMT-63" x="283.544922"/>
     <use xlink:href="#Arial-BoldMT-74" x="339.160156"/>
     <use xlink:href="#Arial-BoldMT-65" x="372.460938"/>
     <use xlink:href="#Arial-BoldMT-6d" x="428.076172"/>
     <use xlink:href="#Arial-BoldMT-70" x="516.992188"/>
     <use xlink:href="#Arial-BoldMT-6f" x="578.076172"/>
     <use xlink:href="#Arial-BoldMT-72" x="639.160156"/>
     <use xlink:href="#Arial-BoldMT-61" x="678.076172"/>
     <use xlink:href="#Arial-BoldMT-6c" x="733.691406"/>
    </g>
   </g>
  </g>
 </g>
 <defs>
  <clipPath id="p25caee5ab4">
   <rect x="72" y="51.84" width="446.4" height="326.16"/>
  </clipPath>
 </defs>
</svg>
