<?xml version="1.0" encoding="utf-8" standalone="no"?>
<!DOCTYPE svg PUBLIC "-//W3C//DTD SVG 1.1//EN"
  "http://www.w3.org/Graphics/SVG/1.1/DTD/svg11.dtd">
<svg xmlns:xlink="http://www.w3.org/1999/xlink" width="576pt" height="432pt" viewBox="0 0 576 432" xmlns="http://www.w3.org/2000/svg" version="1.1">
 <metadata>
  <rdf:RDF xmlns:dc="http://purl.org/dc/elements/1.1/" xmlns:cc="http://creativecommons.org/ns#" xmlns:rdf="http://www.w3.org/1999/02/22-rdf-syntax-ns#">
   <cc:Work>
    <dc:type rdf:resource="http://purl.org/dc/dcmitype/StillImage"/>
    <dc:date>2025-11-30T10:11:19.387621</dc:date>
    <dc:format>image/svg+xml</dc:format>
    <dc:creator>
     <cc:Agent>
      <dc:title>Matplotlib v3.9.4, https://matplotlib.org/</dc:title>
     </cc:Agent>
    </dc:creator>
   </cc:Work>
  </rdf:RDF>
 </metadata>
 <defs>
  <style type="text/css">*{stroke-linejoin: round; stroke-linecap: butt}</style>
 </defs>
 <g id="figure_1">
  <g id="patch_1">
   <path d="M 0 432 
L 576 432 
L 576 0 
L 0 0 
z
" style="fill: #ffffff"/>
  </g>
  <g id="axes_1">
   <g id="patch_2">
    <path d="M 72 378 
L 518.4 378 
L 518.4 51.84 
L 72 51.84 
L 72 378 
z
" style="fill: none"/>
   </g>
   <g id="matplotlib.axis_1">
    <g id="xtick_1">
     <g id="line2d_1">
      <defs>
       <path id="mc8a8c4aaa4" d="M 0 0 
L 0 5 
" style="stroke: #262626; stroke-width: 1.5"/>
      </defs>
      <g>
       <use xlink:href="#mc8a8c4aaa4" x="80.493869" y="378" style="fill: #262626; stroke: #262626; stroke-width: 1.5"/>
      </g>
     </g>
     <g id="text_1">
      <!-- −250 -->
      <g style="fill: #262626" transform="translate(63.601291 397.236719) scale(0.15 -0.15)">
       <defs>
        <path id="ArialMT-2212" d="M 3381 1997 
L 356 1997 
L 356 2522 
L 3381 2522 
L 3381 1997 
z
" transform="scale(0.015625)"/>
        <path id="ArialMT-32" d="M 3222 541 
L 3222 0 
L 194 0 
Q 188 203 259 391 
Q 375 700 629 1000 
Q 884 1300 1366 1694 
Q 2113 2306 2375 2664 
Q 2638 3022 2638 3341 
Q 2638 3675 2398 3904 
Q 2159 4134 1775 4134 
Q 1369 4134 1125 3890 
Q 881 3647 878 3216 
L 300 3275 
Q 359 3922 746 4261 
Q 1134 4600 1788 4600 
Q 2447 4600 2831 4234 
Q 3216 3869 3216 3328 
Q 3216 3053 3103 2787 
Q 2991 2522 2730 2228 
Q 2469 1934 1863 1422 
Q 1356 997 1212 845 
Q 1069 694 975 541 
L 3222 541 
z
" transform="scale(0.015625)"/>
        <path id="ArialMT-35" d="M 266 1200 
L 856 1250 
Q 922 819 1161 601 
Q 1400 384 1738 384 
Q 2144 384 2425 690 
Q 2706 997 2706 1503 
Q 2706 1984 2436 2262 
Q 2166 2541 1728 2541 
Q 1456 2541 1237 2417 
Q 1019 2294 894 2097 
L 366 2166 
L 809 4519 
L 3088 4519 
L 3088 3981 
L 1259 3981 
L 1013 2750 
Q 1425 3038 1878 3038 
Q 2478 3038 2890 2622 
Q 3303 2206 3303 1553 
Q 3303 931 2941 478 
Q 2500 -78 1738 -78 
Q 1113 -78 717 272 
Q 322 622 266 1200 
z
" transform="scale(0.015625)"/>
        <path id="ArialMT-30" d="M 266 2259 
Q 266 3072 433 3567 
Q 600 4063 929 4331 
Q 1259 4600 1759 4600 
Q 2128 4600 2406 4451 
Q 2684 4303 2865 4023 
Q 3047 3744 3150 3342 
Q 3253 2941 3253 2259 
Q 3253 1453 3087 958 
Q 2922 463 2592 192 
Q 2263 -78 1759 -78 
Q 1097 -78 719 397 
Q 266 969 266 2259 
z
M 844 2259 
Q 844 1131 1108 757 
Q 1372 384 1759 384 
Q 2147 384 2411 759 
Q 2675 1134 2675 2259 
Q 2675 3391 2411 3762 
Q 2147 4134 1753 4134 
Q 1366 4134 1134 3806 
Q 844 3388 844 2259 
z
" transform="scale(0.015625)"/>
       </defs>
       <use xlink:href="#ArialMT-2212"/>
       <use xlink:href="#ArialMT-32" x="58.398438"/>
       <use xlink:href="#ArialMT-35" x="114.013672"/>
       <use xlink:href="#ArialMT-30" x="169.628906"/>
      </g>
     </g>
    </g>
    <g id="xtick_2">
     <g id="line2d_2">
      <g>
       <use xlink:href="#mc8a8c4aaa4" x="139.47907" y="378" style="fill: #262626; stroke: #262626; stroke-width: 1.5"/>
      </g>
     </g>
     <g id="text_2">
      <!-- 0 -->
      <g style="fill: #262626" transform="translate(135.308367 397.236719) scale(0.15 -0.15)">
       <use xlink:href="#ArialMT-30"/>
      </g>
     </g>
    </g>
    <g id="xtick_3">
     <g id="line2d_3">
      <g>
       <use xlink:href="#mc8a8c4aaa4" x="198.464271" y="378" style="fill: #262626; stroke: #262626; stroke-width: 1.5"/>
      </g>
     </g>
     <g id="text_3">
      <!-- 250 -->
      <g style="fill: #262626" transform="translate(185.952161 397.236719) scale(0.15 -0.15)">
       <use xlink:href="#ArialMT-32"/>
       <use xlink:href="#ArialMT-35" x="55.615234"/>
       <use xlink:href="#ArialMT-30" x="111.230469"/>
      </g>
     </g>
    </g>
    <g id="xtick_4">
     <g id="line2d_4">
      <g>
       <use xlink:href="#mc8a8c4aaa4" x="257.449471" y="378" style="fill: #262626; stroke: #262626; stroke-width: 1.5"/>
      </g>
     </g>
     <g id="text_4">
      <!-- 500 -->
      <g style="fill: #262626" transform="translate(244.937362 397.236719) scale(0.15 -0.15)">
       <use xlink:href="#ArialMT-35"/>
       <use xlink:href="#ArialMT-30" x="55.615234"/>
       <use xlink:href="#ArialMT-30" x="111.230469"/>
      </g>
     </g>
    </g>
    <g id="xtick_5">
     <g id="line2d_5">
      <g>
       <use xlink:href="#mc8a8c4aaa4" x="316.434672" y="378" style="fill: #262626; stroke: #262626; stroke-width: 1.5"/>
      </g>
     </g>
     <g id="text_5">
      <!-- 750 -->
      <g style="fill: #262626" transform="translate(303.922563 397.236719) scale(0.15 -0.15)">
       <defs>
        <path id="ArialMT-37" d="M 303 3981 
L 303 4522 
L 3269 4522 
L 3269 4084 
Q 2831 3619 2401 2847 
Q 1972 2075 1738 1259 
Q 1569 684 1522 0 
L 944 0 
Q 953 541 1156 1306 
Q 1359 2072 1739 2783 
Q 2119 3494 2547 3981 
L 303 3981 
z
" transform="scale(0.015625)"/>
       </defs>
       <use xlink:href="#ArialMT-37"/>
       <use xlink:href="#ArialMT-35" x="55.615234"/>
       <use xlink:href="#ArialMT-30" x="111.230469"/>
      </g>
     </g>
    </g>
    <g id="xtick_6">
     <g id="line2d_6">
      <g>
       <use xlink:href="#mc8a8c4aaa4" x="375.419873" y="378" style="fill: #262626; stroke: #262626; stroke-width: 1.5"/>
      </g>
     </g>
     <g id="text_6">
      <!-- 1000 -->
      <g style="fill: #262626" transform="translate(358.737061 397.236719) scale(0.15 -0.15)">
       <defs>
        <path id="ArialMT-31" d="M 2384 0 
L 1822 0 
L 1822 3584 
Q 1619 3391 1289 3197 
Q 959 3003 697 2906 
L 697 3450 
Q 1169 3672 1522 3987 
Q 1875 4303 2022 4600 
L 2384 4600 
L 2384 0 
z
" transform="scale(0.015625)"/>
       </defs>
       <use xlink:href="#ArialMT-31"/>
       <use xlink:href="#ArialMT-30" x="55.615234"/>
       <use xlink:href="#ArialMT-30" x="111.230469"/>
       <use xlink:href="#ArialMT-30" x="166.845703"/>
      </g>
     </g>
    </g>
    <g id="xtick_7">
     <g id="line2d_7">
      <g>
       <use xlink:href="#mc8a8c4aaa4" x="434.405074" y="378" style="fill: #262626; stroke: #262626; stroke-width: 1.5"/>
      </g>
     </g>
     <g id="text_7">
      <!-- 1250 -->
      <g style="fill: #262626" transform="translate(417.722261 397.236719) scale(0.15 -0.15)">
       <use xlink:href="#ArialMT-31"/>
       <use xlink:href="#ArialMT-32" x="55.615234"/>
       <use xlink:href="#ArialMT-35" x="111.230469"/>
       <use xlink:href="#ArialMT-30" x="166.845703"/>
      </g>
     </g>
    </g>
    <g id="xtick_8">
     <g id="line2d_8">
      <g>
       <use xlink:href="#mc8a8c4aaa4" x="493.390275" y="378" style="fill: #262626; stroke: #262626; stroke-width: 1.5"/>
      </g>
     </g>
     <g id="text_8">
      <!-- 1500 -->
      <g style="fill: #262626" transform="translate(476.707462 397.236719) scale(0.15 -0.15)">
       <use xlink:href="#ArialMT-31"/>
       <use xlink:href="#ArialMT-35" x="55.615234"/>
       <use xlink:href="#ArialMT-30" x="111.230469"/>
       <use xlink:href="#ArialMT-30" x="166.845703"/>
      </g>
     </g>
    </g>
    <g id="text_9">
     <!-- time -->
     <g style="fill: #262626" transform="translate(281.032031 414.954687) scale(0.15 -0.15)">
      <defs>
       <path id="ArialMT-74" d="M 1650 503 
L 1731 6 
Q 1494 -44 1306 -44 
Q 1000 -44 831 53 
Q 663 150 594 308 
Q 525 466 525 972 
L 525 2881 
L 113 2881 
L 113 3319 
L 525 3319 
L 525 4141 
L 1084 4478 
L 1084 3319 
L 1650 3319 
L 1650 2881 
L 1084 2881 
L 1084 941 
Q 1084 700 1114 631 
Q 1144 563 1211 522 
Q 1278 481 1403 481 
Q 1497 481 1650 503 
z
" transform="scale(0.015625)"/>
       <path id="ArialMT-69" d="M 425 3934 
L 425 4581 
L 988 4581 
L 988 3934 
L 425 3934 
z
M 425 0 
L 425 3319 
L 988 3319 
L 988 0 
L 425 0 
z
" transform="scale(0.015625)"/>
       <path id="ArialMT-6d" d="M 422 0 
L 422 3319 
L 925 3319 
L 925 2853 
Q 1081 3097 1340 3245 
Q 1600 3394 1931 3394 
Q 2300 3394 2536 3241 
Q 2772 3088 2869 2813 
Q 3263 3394 3894 3394 
Q 4388 3394 4653 3120 
Q 4919 2847 4919 2278 
L 4919 0 
L 4359 0 
L 4359 2091 
Q 4359 2428 4304 2576 
Q 4250 2725 4106 2815 
Q 3963 2906 3769 2906 
Q 3419 2906 3187 2673 
Q 2956 2441 2956 1928 
L 2956 0 
L 2394 0 
L 2394 2156 
Q 2394 2531 2256 2718 
Q 2119 2906 1806 2906 
Q 1569 2906 1367 2781 
Q 1166 2656 1075 2415 
Q 984 2175 984 1722 
L 984 0 
L 422 0 
z
" transform="scale(0.015625)"/>
       <path id="ArialMT-65" d="M 2694 1069 
L 3275 997 
Q 3138 488 2766 206 
Q 2394 -75 1816 -75 
Q 1088 -75 661 373 
Q 234 822 234 1631 
Q 234 2469 665 2931 
Q 1097 3394 1784 3394 
Q 2450 3394 2872 2941 
Q 3294 2488 3294 1666 
Q 3294 1616 3291 1516 
L 816 1516 
Q 847 969 1125 678 
Q 1403 388 1819 388 
Q 2128 388 2347 550 
Q 2566 713 2694 1069 
z
M 847 1978 
L 2700 1978 
Q 2663 2397 2488 2606 
Q 2219 2931 1791 2931 
Q 1403 2931 1139 2672 
Q 875 2413 847 1978 
z
" transform="scale(0.015625)"/>
      </defs>
      <use xlink:href="#ArialMT-74"/>
      <use xlink:href="#ArialMT-69" x="27.783203"/>
      <use xlink:href="#ArialMT-6d" x="50"/>
      <use xlink:href="#ArialMT-65" x="133.300781"/>
     </g>
    </g>
   </g>
   <g id="matplotlib.axis_2">
    <g id="ytick_1">
     <g id="line2d_9">
      <defs>
       <path id="m3ea590471d" d="M 0 0 
L -5 0 
" style="stroke: #262626; stroke-width: 1.5"/>
      </defs>
      <g>
       <use xlink:href="#m3ea590471d" x="72" y="342.1605" style="fill: #262626; stroke: #262626; stroke-width: 1.5"/>
      </g>
     </g>
     <g id="text_10">
      <!-- 0.00 -->
      <g style="fill: #262626" transform="translate(34.308594 347.528859) scale(0.15 -0.15)">
       <defs>
        <path id="ArialMT-2e" d="M 581 0 
L 581 641 
L 1222 641 
L 1222 0 
L 581 0 
z
" transform="scale(0.015625)"/>
       </defs>
       <use xlink:href="#ArialMT-30"/>
       <use xlink:href="#ArialMT-2e" x="55.615234"/>
       <use xlink:href="#ArialMT-30" x="83.398438"/>
       <use xlink:href="#ArialMT-30" x="139.013672"/>
      </g>
     </g>
    </g>
    <g id="ytick_2">
     <g id="line2d_10">
      <g>
       <use xlink:href="#m3ea590471d" x="72" y="197.00025" style="fill: #262626; stroke: #262626; stroke-width: 1.5"/>
      </g>
     </g>
     <g id="text_11">
      <!-- 0.15 -->
      <g style="fill: #262626" transform="translate(34.308594 202.368609) scale(0.15 -0.15)">
       <use xlink:href="#ArialMT-30"/>
       <use xlink:href="#ArialMT-2e" x="55.615234"/>
       <use xlink:href="#ArialMT-31" x="83.398438"/>
       <use xlink:href="#ArialMT-35" x="139.013672"/>
      </g>
     </g>
    </g>
    <g id="ytick_3">
     <g id="line2d_11">
      <g>
       <use xlink:href="#m3ea590471d" x="72" y="51.84" style="fill: #262626; stroke: #262626; stroke-width: 1.5"/>
      </g>
     </g>
     <g id="text_12">
      <!-- 0.30 -->
      <g style="fill: #262626" transform="translate(34.308594 57.208359) scale(0.15 -0.15)">
       <defs>
        <path id="ArialMT-33" d="M 269 1209 
L 831 1284 
Q 928 806 1161 595 
Q 1394 384 1728 384 
Q 2125 384 2398 659 
Q 2672 934 2672 1341 
Q 2672 1728 2419 1979 
Q 2166 2231 1775 2231 
Q 1616 2231 1378 2169 
L 1441 2663 
Q 1497 2656 1531 2656 
Q 1891 2656 2178 2843 
Q 2466 3031 2466 3422 
Q 2466 3731 2256 3934 
Q 2047 4138 1716 4138 
Q 1388 4138 1169 3931 
Q 950 3725 888 3313 
L 325 3413 
Q 428 3978 793 4289 
Q 1159 4600 1703 4600 
Q 2078 4600 2393 4439 
Q 2709 4278 2876 4000 
Q 3044 3722 3044 3409 
Q 3044 3113 2884 2869 
Q 2725 2625 2413 2481 
Q 2819 2388 3044 2092 
Q 3269 1797 3269 1353 
Q 3269 753 2831 336 
Q 2394 -81 1725 -81 
Q 1122 -81 723 278 
Q 325 638 269 1209 
z
" transform="scale(0.015625)"/>
       </defs>
       <use xlink:href="#ArialMT-30"/>
       <use xlink:href="#ArialMT-2e" x="55.615234"/>
       <use xlink:href="#ArialMT-33" x="83.398438"/>
       <use xlink:href="#ArialMT-30" x="139.013672"/>
      </g>
     </g>
    </g>
    <g id="text_13">
     <!-- firing rate -->
     <g style="fill: #262626" transform="translate(27.151562 246.180937) rotate(-90) scale(0.15 -0.15)">
      <defs>
       <path id="ArialMT-66" d="M 556 0 
L 556 2881 
L 59 2881 
L 59 3319 
L 556 3319 
L 556 3672 
Q 556 4006 616 4169 
Q 697 4388 901 4523 
Q 1106 4659 1475 4659 
Q 1713 4659 2000 4603 
L 1916 4113 
Q 1741 4144 1584 4144 
Q 1328 4144 1222 4034 
Q 1116 3925 1116 3625 
L 1116 3319 
L 1763 3319 
L 1763 2881 
L 1116 2881 
L 1116 0 
L 556 0 
z
" transform="scale(0.015625)"/>
       <path id="ArialMT-72" d="M 416 0 
L 416 3319 
L 922 3319 
L 922 2816 
Q 1116 3169 1280 3281 
Q 1444 3394 1641 3394 
Q 1925 3394 2219 3213 
L 2025 2691 
Q 1819 2813 1613 2813 
Q 1428 2813 1281 2702 
Q 1134 2591 1072 2394 
Q 978 2094 978 1738 
L 978 0 
L 416 0 
z
" transform="scale(0.015625)"/>
       <path id="ArialMT-6e" d="M 422 0 
L 422 3319 
L 928 3319 
L 928 2847 
Q 1294 3394 1984 3394 
Q 2284 3394 2536 3286 
Q 2788 3178 2913 3003 
Q 3038 2828 3088 2588 
Q 3119 2431 3119 2041 
L 3119 0 
L 2556 0 
L 2556 2019 
Q 2556 2363 2490 2533 
Q 2425 2703 2258 2804 
Q 2091 2906 1866 2906 
Q 1506 2906 1245 2678 
Q 984 2450 984 1813 
L 984 0 
L 422 0 
z
" transform="scale(0.015625)"/>
       <path id="ArialMT-67" d="M 319 -275 
L 866 -356 
Q 900 -609 1056 -725 
Q 1266 -881 1628 -881 
Q 2019 -881 2231 -725 
Q 2444 -569 2519 -288 
Q 2563 -116 2559 434 
Q 2191 0 1641 0 
Q 956 0 581 494 
Q 206 988 206 1678 
Q 206 2153 378 2554 
Q 550 2956 876 3175 
Q 1203 3394 1644 3394 
Q 2231 3394 2613 2919 
L 2613 3319 
L 3131 3319 
L 3131 450 
Q 3131 -325 2973 -648 
Q 2816 -972 2473 -1159 
Q 2131 -1347 1631 -1347 
Q 1038 -1347 672 -1080 
Q 306 -813 319 -275 
z
M 784 1719 
Q 784 1066 1043 766 
Q 1303 466 1694 466 
Q 2081 466 2343 764 
Q 2606 1063 2606 1700 
Q 2606 2309 2336 2618 
Q 2066 2928 1684 2928 
Q 1309 2928 1046 2623 
Q 784 2319 784 1719 
z
" transform="scale(0.015625)"/>
       <path id="ArialMT-20" transform="scale(0.015625)"/>
       <path id="ArialMT-61" d="M 2588 409 
Q 2275 144 1986 34 
Q 1697 -75 1366 -75 
Q 819 -75 525 192 
Q 231 459 231 875 
Q 231 1119 342 1320 
Q 453 1522 633 1644 
Q 813 1766 1038 1828 
Q 1203 1872 1538 1913 
Q 2219 1994 2541 2106 
Q 2544 2222 2544 2253 
Q 2544 2597 2384 2738 
Q 2169 2928 1744 2928 
Q 1347 2928 1158 2789 
Q 969 2650 878 2297 
L 328 2372 
Q 403 2725 575 2942 
Q 747 3159 1072 3276 
Q 1397 3394 1825 3394 
Q 2250 3394 2515 3294 
Q 2781 3194 2906 3042 
Q 3031 2891 3081 2659 
Q 3109 2516 3109 2141 
L 3109 1391 
Q 3109 606 3145 398 
Q 3181 191 3288 0 
L 2700 0 
Q 2613 175 2588 409 
z
M 2541 1666 
Q 2234 1541 1622 1453 
Q 1275 1403 1131 1340 
Q 988 1278 909 1158 
Q 831 1038 831 891 
Q 831 666 1001 516 
Q 1172 366 1500 366 
Q 1825 366 2078 508 
Q 2331 650 2450 897 
Q 2541 1088 2541 1459 
L 2541 1666 
z
" transform="scale(0.015625)"/>
      </defs>
      <use xlink:href="#ArialMT-66"/>
      <use xlink:href="#ArialMT-69" x="27.783203"/>
      <use xlink:href="#ArialMT-72" x="50"/>
      <use xlink:href="#ArialMT-69" x="83.300781"/>
      <use xlink:href="#ArialMT-6e" x="105.517578"/>
      <use xlink:href="#ArialMT-67" x="161.132812"/>
      <use xlink:href="#ArialMT-20" x="216.748047"/>
      <use xlink:href="#ArialMT-72" x="244.53125"/>
      <use xlink:href="#ArialMT-61" x="277.832031"/>
      <use xlink:href="#ArialMT-74" x="333.447266"/>
      <use xlink:href="#ArialMT-65" x="361.230469"/>
     </g>
    </g>
   </g>
   <g id="PolyCollection_1">
    <defs>
     <path id="md799946bc8" d="M 92.290909 -93.941197 
L 92.290909 -89.02327 
L 97.009725 -88.945616 
L 101.728541 -88.079905 
L 106.447357 -88.78266 
L 111.166173 -89.474204 
L 115.884989 -89.891943 
L 120.603805 -88.709011 
L 125.322622 -88.526557 
L 130.041438 -89.12186 
L 134.760254 -87.85834 
L 139.47907 -101.227841 
L 144.197886 -99.514505 
L 148.916702 -100.320295 
L 153.635518 -98.706723 
L 158.354334 -99.289402 
L 163.07315 -97.460328 
L 167.791966 -97.280314 
L 172.510782 -95.908433 
L 177.229598 -96.803801 
L 181.948414 -98.116311 
L 186.66723 -99.79432 
L 191.386047 -102.587135 
L 196.104863 -103.836758 
L 200.823679 -106.503102 
L 205.542495 -108.289603 
L 210.261311 -110.812736 
L 214.980127 -113.015831 
L 219.698943 -116.979423 
L 224.417759 -119.798221 
L 229.136575 -122.75547 
L 233.855391 -129.465795 
L 238.574207 -132.534756 
L 243.293023 -132.776528 
L 248.011839 -133.728017 
L 252.730655 -131.446809 
L 257.449471 -131.796905 
L 262.168288 -135.13612 
L 266.887104 -135.223325 
L 271.60592 -134.205797 
L 276.324736 -133.509324 
L 281.043552 -131.769195 
L 285.762368 -132.674457 
L 290.481184 -130.555187 
L 295.2 -128.318064 
L 299.918816 -124.332098 
L 304.637632 -122.474601 
L 309.356448 -121.098229 
L 314.075264 -119.259219 
L 318.79408 -114.629722 
L 323.512896 -115.500704 
L 328.231712 -112.473307 
L 332.950529 -108.837591 
L 337.669345 -105.283295 
L 342.388161 -102.545927 
L 347.106977 -101.546345 
L 351.825793 -101.316953 
L 356.544609 -100.967476 
L 361.263425 -100.595202 
L 365.982241 -99.228871 
L 370.701057 -97.114582 
L 375.419873 -91.911279 
L 380.138689 -91.854045 
L 384.857505 -88.865274 
L 389.576321 -92.180345 
L 394.295137 -88.030342 
L 399.013953 -89.123184 
L 403.73277 -88.284339 
L 408.451586 -89.473075 
L 413.170402 -89.128658 
L 417.889218 -90.825229 
L 422.608034 -89.133238 
L 427.32685 -88.247619 
L 432.045666 -89.29218 
L 436.764482 -88.117025 
L 441.483298 -89.659966 
L 446.202114 -88.223701 
L 450.92093 -89.032813 
L 455.639746 -87.607447 
L 460.358562 -87.925038 
L 465.077378 -88.47336 
L 469.796195 -89.231 
L 474.515011 -91.22934 
L 479.233827 -88.896673 
L 483.952643 -88.501786 
L 488.671459 -87.9474 
L 493.390275 -88.438602 
L 498.109091 -88.758952 
L 498.109091 -91.529403 
L 498.109091 -91.529403 
L 493.390275 -90.692724 
L 488.671459 -89.945139 
L 483.952643 -90.8209 
L 479.233827 -91.024386 
L 474.515011 -93.356804 
L 469.796195 -92.13788 
L 465.077378 -90.48843 
L 460.358562 -89.800258 
L 455.639746 -89.297615 
L 450.92093 -91.486898 
L 446.202114 -91.47267 
L 441.483298 -91.421887 
L 436.764482 -90.019153 
L 432.045666 -91.179459 
L 427.32685 -91.054903 
L 422.608034 -93.039071 
L 417.889218 -92.992053 
L 413.170402 -91.379285 
L 408.451586 -91.209456 
L 403.73277 -90.568417 
L 399.013953 -93.000229 
L 394.295137 -93.186856 
L 389.576321 -97.115735 
L 384.857505 -96.380409 
L 380.138689 -98.818005 
L 375.419873 -99.533481 
L 370.701057 -107.615464 
L 365.982241 -109.763735 
L 361.263425 -110.355187 
L 356.544609 -111.327325 
L 351.825793 -111.447407 
L 347.106977 -110.740594 
L 342.388161 -110.765632 
L 337.669345 -112.842178 
L 332.950529 -116.069211 
L 328.231712 -120.270351 
L 323.512896 -124.207046 
L 318.79408 -124.943459 
L 314.075264 -131.480491 
L 309.356448 -135.22237 
L 304.637632 -138.653394 
L 299.918816 -140.759844 
L 295.2 -144.708661 
L 290.481184 -146.562565 
L 285.762368 -148.718837 
L 281.043552 -148.898841 
L 276.324736 -150.331709 
L 271.60592 -151.285137 
L 266.887104 -150.712305 
L 262.168288 -151.35737 
L 257.449471 -149.02137 
L 252.730655 -148.082244 
L 248.011839 -149.36388 
L 243.293023 -147.152826 
L 238.574207 -146.631182 
L 233.855391 -142.780395 
L 229.136575 -136.475535 
L 224.417759 -131.218302 
L 219.698943 -125.916808 
L 214.980127 -121.18492 
L 210.261311 -118.104819 
L 205.542495 -114.909987 
L 200.823679 -114.115141 
L 196.104863 -111.019841 
L 191.386047 -109.253611 
L 186.66723 -106.265846 
L 181.948414 -104.966147 
L 177.229598 -102.738384 
L 172.510782 -101.972138 
L 167.791966 -103.211784 
L 163.07315 -104.053217 
L 158.354334 -105.641559 
L 153.635518 -103.326027 
L 148.916702 -103.896596 
L 144.197886 -103.878048 
L 139.47907 -106.210093 
L 134.760254 -89.17701 
L 130.041438 -90.804017 
L 125.322622 -89.856298 
L 120.603805 -90.321619 
L 115.884989 -91.950221 
L 111.166173 -90.604098 
L 106.447357 -90.129144 
L 101.728541 -89.621702 
L 97.009725 -90.608381 
L 92.290909 -93.941197 
z
" style="stroke: #1e72ff; stroke-opacity: 0.1"/>
    </defs>
    <g clip-path="url(#p97a949e74e)">
     <use xlink:href="#md799946bc8" x="0" y="432" style="fill: #1e72ff; fill-opacity: 0.1; stroke: #1e72ff; stroke-opacity: 0.1"/>
    </g>
   </g>
   <g id="PolyCollection_2">
    <defs>
     <path id="mbbfda4b855" d="M 92.290909 -95.492268 
L 92.290909 -91.928319 
L 97.009725 -94.85727 
L 101.728541 -97.905083 
L 106.447357 -100.991048 
L 111.166173 -108.89391 
L 115.884989 -107.948492 
L 120.603805 -109.770026 
L 125.322622 -118.944272 
L 130.041438 -122.478148 
L 134.760254 -124.755935 
L 139.47907 -133.456382 
L 144.197886 -141.085409 
L 148.916702 -144.439118 
L 153.635518 -143.15901 
L 158.354334 -140.152502 
L 163.07315 -140.818823 
L 167.791966 -138.617234 
L 172.510782 -136.164479 
L 177.229598 -134.259693 
L 181.948414 -131.529196 
L 186.66723 -130.324829 
L 191.386047 -130.249554 
L 196.104863 -130.59385 
L 200.823679 -131.285917 
L 205.542495 -131.592416 
L 210.261311 -132.06389 
L 214.980127 -133.030553 
L 219.698943 -136.159817 
L 224.417759 -138.601978 
L 229.136575 -140.843281 
L 233.855391 -144.560839 
L 238.574207 -148.349277 
L 243.293023 -153.454777 
L 248.011839 -157.411403 
L 252.730655 -163.761919 
L 257.449471 -168.704437 
L 262.168288 -173.972066 
L 266.887104 -180.128957 
L 271.60592 -184.903849 
L 276.324736 -189.099581 
L 281.043552 -193.111861 
L 285.762368 -198.410555 
L 290.481184 -203.045026 
L 295.2 -208.452861 
L 299.918816 -213.181335 
L 304.637632 -216.903062 
L 309.356448 -220.33801 
L 314.075264 -224.555469 
L 318.79408 -227.603798 
L 323.512896 -230.600907 
L 328.231712 -233.904894 
L 332.950529 -237.773788 
L 337.669345 -239.682809 
L 342.388161 -241.853462 
L 347.106977 -243.545165 
L 351.825793 -246.515528 
L 356.544609 -248.330859 
L 361.263425 -251.30184 
L 365.982241 -253.360648 
L 370.701057 -255.667252 
L 375.419873 -256.257437 
L 380.138689 -254.231228 
L 384.857505 -256.950396 
L 389.576321 -261.88094 
L 394.295137 -269.553262 
L 399.013953 -277.28646 
L 403.73277 -282.181741 
L 408.451586 -285.473346 
L 413.170402 -288.248238 
L 417.889218 -292.415463 
L 422.608034 -296.100429 
L 427.32685 -299.687453 
L 432.045666 -303.053601 
L 436.764482 -306.061902 
L 441.483298 -308.229805 
L 446.202114 -308.958448 
L 450.92093 -310.320242 
L 455.639746 -312.102902 
L 460.358562 -312.689093 
L 465.077378 -314.090266 
L 469.796195 -314.350374 
L 474.515011 -315.948662 
L 479.233827 -316.112014 
L 483.952643 -316.95135 
L 488.671459 -316.563968 
L 493.390275 -316.353721 
L 498.109091 -318.015779 
L 498.109091 -358.135948 
L 498.109091 -358.135948 
L 493.390275 -357.037152 
L 488.671459 -356.80359 
L 483.952643 -357.100993 
L 479.233827 -355.779662 
L 474.515011 -354.668964 
L 469.796195 -352.812987 
L 465.077378 -352.218401 
L 460.358562 -350.271679 
L 455.639746 -349.429447 
L 450.92093 -347.085456 
L 446.202114 -344.972535 
L 441.483298 -343.782597 
L 436.764482 -340.630139 
L 432.045666 -337.163561 
L 427.32685 -332.833489 
L 422.608034 -327.915211 
L 417.889218 -321.998447 
L 413.170402 -316.387778 
L 408.451586 -313.612153 
L 403.73277 -309.658152 
L 399.013953 -303.934842 
L 394.295137 -294.755711 
L 389.576321 -285.806883 
L 384.857505 -279.903639 
L 380.138689 -276.713508 
L 375.419873 -277.745484 
L 370.701057 -277.141545 
L 365.982241 -274.56364 
L 361.263425 -272.184799 
L 356.544609 -268.512512 
L 351.825793 -266.217325 
L 347.106977 -263.21616 
L 342.388161 -261.291637 
L 337.669345 -258.103582 
L 332.950529 -255.183927 
L 328.231712 -250.525613 
L 323.512896 -246.374526 
L 318.79408 -242.703004 
L 314.075264 -239.02992 
L 309.356448 -234.108331 
L 304.637632 -229.767324 
L 299.918816 -225.658662 
L 295.2 -220.859343 
L 290.481184 -214.936154 
L 285.762368 -209.992392 
L 281.043552 -204.528194 
L 276.324736 -200.141799 
L 271.60592 -195.768202 
L 266.887104 -190.699274 
L 262.168288 -184.245684 
L 257.449471 -179.033437 
L 252.730655 -174.348258 
L 248.011839 -168.34201 
L 243.293023 -164.955285 
L 238.574207 -160.05108 
L 233.855391 -156.725242 
L 229.136575 -153.538144 
L 224.417759 -151.546208 
L 219.698943 -149.209893 
L 214.980127 -146.39527 
L 210.261311 -145.208274 
L 205.542495 -144.919324 
L 200.823679 -144.378053 
L 196.104863 -143.425142 
L 191.386047 -143.076099 
L 186.66723 -142.474832 
L 181.948414 -143.275752 
L 177.229598 -146.445057 
L 172.510782 -147.359627 
L 167.791966 -149.690585 
L 163.07315 -152.200623 
L 158.354334 -151.163705 
L 153.635518 -153.24813 
L 148.916702 -152.682178 
L 144.197886 -147.993431 
L 139.47907 -141.379433 
L 134.760254 -134.190506 
L 130.041438 -131.176793 
L 125.322622 -125.751275 
L 120.603805 -115.966055 
L 115.884989 -114.019233 
L 111.166173 -113.627516 
L 106.447357 -107.884696 
L 101.728541 -104.694298 
L 97.009725 -102.157369 
L 92.290909 -95.492268 
z
" style="stroke: #1e408b; stroke-opacity: 0.2"/>
    </defs>
    <g clip-path="url(#p97a949e74e)">
     <use xlink:href="#mbbfda4b855" x="0" y="432" style="fill: #1e408b; fill-opacity: 0.2; stroke: #1e408b; stroke-opacity: 0.2"/>
    </g>
   </g>
   <g id="PathCollection_1">
    <defs>
     <path id="m5a94921685" d="M -2.5 2.5 
L 2.5 2.5 
L 2.5 -2.5 
L -2.5 -2.5 
z
" style="stroke: #1e72ff"/>
    </defs>
    <g clip-path="url(#p97a949e74e)">
     <use xlink:href="#m5a94921685" x="134.760254" y="356.028636" style="fill: #1e72ff; stroke: #1e72ff"/>
     <use xlink:href="#m5a94921685" x="219.698943" y="356.028636" style="fill: #1e72ff; stroke: #1e72ff"/>
     <use xlink:href="#m5a94921685" x="224.417759" y="356.028636" style="fill: #1e72ff; stroke: #1e72ff"/>
     <use xlink:href="#m5a94921685" x="229.136575" y="356.028636" style="fill: #1e72ff; stroke: #1e72ff"/>
     <use xlink:href="#m5a94921685" x="233.855391" y="356.028636" style="fill: #1e72ff; stroke: #1e72ff"/>
     <use xlink:href="#m5a94921685" x="238.574207" y="356.028636" style="fill: #1e72ff; stroke: #1e72ff"/>
     <use xlink:href="#m5a94921685" x="243.293023" y="356.028636" style="fill: #1e72ff; stroke: #1e72ff"/>
     <use xlink:href="#m5a94921685" x="248.011839" y="356.028636" style="fill: #1e72ff; stroke: #1e72ff"/>
     <use xlink:href="#m5a94921685" x="252.730655" y="356.028636" style="fill: #1e72ff; stroke: #1e72ff"/>
     <use xlink:href="#m5a94921685" x="257.449471" y="356.028636" style="fill: #1e72ff; stroke: #1e72ff"/>
     <use xlink:href="#m5a94921685" x="262.168288" y="356.028636" style="fill: #1e72ff; stroke: #1e72ff"/>
     <use xlink:href="#m5a94921685" x="266.887104" y="356.028636" style="fill: #1e72ff; stroke: #1e72ff"/>
     <use xlink:href="#m5a94921685" x="271.60592" y="356.028636" style="fill: #1e72ff; stroke: #1e72ff"/>
     <use xlink:href="#m5a94921685" x="276.324736" y="356.028636" style="fill: #1e72ff; stroke: #1e72ff"/>
     <use xlink:href="#m5a94921685" x="281.043552" y="356.028636" style="fill: #1e72ff; stroke: #1e72ff"/>
     <use xlink:href="#m5a94921685" x="285.762368" y="356.028636" style="fill: #1e72ff; stroke: #1e72ff"/>
     <use xlink:href="#m5a94921685" x="290.481184" y="356.028636" style="fill: #1e72ff; stroke: #1e72ff"/>
     <use xlink:href="#m5a94921685" x="295.2" y="356.028636" style="fill: #1e72ff; stroke: #1e72ff"/>
     <use xlink:href="#m5a94921685" x="299.918816" y="356.028636" style="fill: #1e72ff; stroke: #1e72ff"/>
     <use xlink:href="#m5a94921685" x="304.637632" y="356.028636" style="fill: #1e72ff; stroke: #1e72ff"/>
     <use xlink:href="#m5a94921685" x="309.356448" y="356.028636" style="fill: #1e72ff; stroke: #1e72ff"/>
     <use xlink:href="#m5a94921685" x="314.075264" y="356.028636" style="fill: #1e72ff; stroke: #1e72ff"/>
     <use xlink:href="#m5a94921685" x="323.512896" y="356.028636" style="fill: #1e72ff; stroke: #1e72ff"/>
     <use xlink:href="#m5a94921685" x="328.231712" y="356.028636" style="fill: #1e72ff; stroke: #1e72ff"/>
     <use xlink:href="#m5a94921685" x="474.515011" y="356.028636" style="fill: #1e72ff; stroke: #1e72ff"/>
    </g>
   </g>
   <g id="PathCollection_2">
    <defs>
     <path id="m0355807595" d="M -2.5 2.5 
L 2.5 2.5 
L 2.5 -2.5 
L -2.5 -2.5 
z
" style="stroke: #1e408b"/>
    </defs>
    <g clip-path="url(#p97a949e74e)">
     <use xlink:href="#m0355807595" x="167.791966" y="363.517336" style="fill: #1e408b; stroke: #1e408b"/>
     <use xlink:href="#m0355807595" x="172.510782" y="363.517336" style="fill: #1e408b; stroke: #1e408b"/>
     <use xlink:href="#m0355807595" x="177.229598" y="363.517336" style="fill: #1e408b; stroke: #1e408b"/>
     <use xlink:href="#m0355807595" x="181.948414" y="363.517336" style="fill: #1e408b; stroke: #1e408b"/>
     <use xlink:href="#m0355807595" x="186.66723" y="363.517336" style="fill: #1e408b; stroke: #1e408b"/>
     <use xlink:href="#m0355807595" x="191.386047" y="363.517336" style="fill: #1e408b; stroke: #1e408b"/>
     <use xlink:href="#m0355807595" x="196.104863" y="363.517336" style="fill: #1e408b; stroke: #1e408b"/>
     <use xlink:href="#m0355807595" x="200.823679" y="363.517336" style="fill: #1e408b; stroke: #1e408b"/>
     <use xlink:href="#m0355807595" x="205.542495" y="363.517336" style="fill: #1e408b; stroke: #1e408b"/>
     <use xlink:href="#m0355807595" x="210.261311" y="363.517336" style="fill: #1e408b; stroke: #1e408b"/>
     <use xlink:href="#m0355807595" x="214.980127" y="363.517336" style="fill: #1e408b; stroke: #1e408b"/>
     <use xlink:href="#m0355807595" x="219.698943" y="363.517336" style="fill: #1e408b; stroke: #1e408b"/>
     <use xlink:href="#m0355807595" x="224.417759" y="363.517336" style="fill: #1e408b; stroke: #1e408b"/>
     <use xlink:href="#m0355807595" x="229.136575" y="363.517336" style="fill: #1e408b; stroke: #1e408b"/>
     <use xlink:href="#m0355807595" x="233.855391" y="363.517336" style="fill: #1e408b; stroke: #1e408b"/>
     <use xlink:href="#m0355807595" x="238.574207" y="363.517336" style="fill: #1e408b; stroke: #1e408b"/>
     <use xlink:href="#m0355807595" x="243.293023" y="363.517336" style="fill: #1e408b; stroke: #1e408b"/>
     <use xlink:href="#m0355807595" x="248.011839" y="363.517336" style="fill: #1e408b; stroke: #1e408b"/>
     <use xlink:href="#m0355807595" x="252.730655" y="363.517336" style="fill: #1e408b; stroke: #1e408b"/>
     <use xlink:href="#m0355807595" x="257.449471" y="363.517336" style="fill: #1e408b; stroke: #1e408b"/>
     <use xlink:href="#m0355807595" x="262.168288" y="363.517336" style="fill: #1e408b; stroke: #1e408b"/>
     <use xlink:href="#m0355807595" x="266.887104" y="363.517336" style="fill: #1e408b; stroke: #1e408b"/>
     <use xlink:href="#m0355807595" x="271.60592" y="363.517336" style="fill: #1e408b; stroke: #1e408b"/>
     <use xlink:href="#m0355807595" x="276.324736" y="363.517336" style="fill: #1e408b; stroke: #1e408b"/>
     <use xlink:href="#m0355807595" x="281.043552" y="363.517336" style="fill: #1e408b; stroke: #1e408b"/>
     <use xlink:href="#m0355807595" x="285.762368" y="363.517336" style="fill: #1e408b; stroke: #1e408b"/>
     <use xlink:href="#m0355807595" x="290.481184" y="363.517336" style="fill: #1e408b; stroke: #1e408b"/>
     <use xlink:href="#m0355807595" x="295.2" y="363.517336" style="fill: #1e408b; stroke: #1e408b"/>
     <use xlink:href="#m0355807595" x="299.918816" y="363.517336" style="fill: #1e408b; stroke: #1e408b"/>
     <use xlink:href="#m0355807595" x="304.637632" y="363.517336" style="fill: #1e408b; stroke: #1e408b"/>
     <use xlink:href="#m0355807595" x="309.356448" y="363.517336" style="fill: #1e408b; stroke: #1e408b"/>
     <use xlink:href="#m0355807595" x="314.075264" y="363.517336" style="fill: #1e408b; stroke: #1e408b"/>
     <use xlink:href="#m0355807595" x="318.79408" y="363.517336" style="fill: #1e408b; stroke: #1e408b"/>
     <use xlink:href="#m0355807595" x="323.512896" y="363.517336" style="fill: #1e408b; stroke: #1e408b"/>
     <use xlink:href="#m0355807595" x="328.231712" y="363.517336" style="fill: #1e408b; stroke: #1e408b"/>
     <use xlink:href="#m0355807595" x="332.950529" y="363.517336" style="fill: #1e408b; stroke: #1e408b"/>
     <use xlink:href="#m0355807595" x="337.669345" y="363.517336" style="fill: #1e408b; stroke: #1e408b"/>
     <use xlink:href="#m0355807595" x="342.388161" y="363.517336" style="fill: #1e408b; stroke: #1e408b"/>
     <use xlink:href="#m0355807595" x="347.106977" y="363.517336" style="fill: #1e408b; stroke: #1e408b"/>
     <use xlink:href="#m0355807595" x="351.825793" y="363.517336" style="fill: #1e408b; stroke: #1e408b"/>
     <use xlink:href="#m0355807595" x="356.544609" y="363.517336" style="fill: #1e408b; stroke: #1e408b"/>
     <use xlink:href="#m0355807595" x="361.263425" y="363.517336" style="fill: #1e408b; stroke: #1e408b"/>
     <use xlink:href="#m0355807595" x="365.982241" y="363.517336" style="fill: #1e408b; stroke: #1e408b"/>
     <use xlink:href="#m0355807595" x="370.701057" y="363.517336" style="fill: #1e408b; stroke: #1e408b"/>
     <use xlink:href="#m0355807595" x="375.419873" y="363.517336" style="fill: #1e408b; stroke: #1e408b"/>
     <use xlink:href="#m0355807595" x="380.138689" y="363.517336" style="fill: #1e408b; stroke: #1e408b"/>
     <use xlink:href="#m0355807595" x="384.857505" y="363.517336" style="fill: #1e408b; stroke: #1e408b"/>
     <use xlink:href="#m0355807595" x="389.576321" y="363.517336" style="fill: #1e408b; stroke: #1e408b"/>
     <use xlink:href="#m0355807595" x="394.295137" y="363.517336" style="fill: #1e408b; stroke: #1e408b"/>
     <use xlink:href="#m0355807595" x="399.013953" y="363.517336" style="fill: #1e408b; stroke: #1e408b"/>
     <use xlink:href="#m0355807595" x="403.73277" y="363.517336" style="fill: #1e408b; stroke: #1e408b"/>
     <use xlink:href="#m0355807595" x="408.451586" y="363.517336" style="fill: #1e408b; stroke: #1e408b"/>
     <use xlink:href="#m0355807595" x="413.170402" y="363.517336" style="fill: #1e408b; stroke: #1e408b"/>
     <use xlink:href="#m0355807595" x="417.889218" y="363.517336" style="fill: #1e408b; stroke: #1e408b"/>
     <use xlink:href="#m0355807595" x="422.608034" y="363.517336" style="fill: #1e408b; stroke: #1e408b"/>
     <use xlink:href="#m0355807595" x="427.32685" y="363.517336" style="fill: #1e408b; stroke: #1e408b"/>
     <use xlink:href="#m0355807595" x="432.045666" y="363.517336" style="fill: #1e408b; stroke: #1e408b"/>
     <use xlink:href="#m0355807595" x="436.764482" y="363.517336" style="fill: #1e408b; stroke: #1e408b"/>
     <use xlink:href="#m0355807595" x="441.483298" y="363.517336" style="fill: #1e408b; stroke: #1e408b"/>
     <use xlink:href="#m0355807595" x="446.202114" y="363.517336" style="fill: #1e408b; stroke: #1e408b"/>
     <use xlink:href="#m0355807595" x="450.92093" y="363.517336" style="fill: #1e408b; stroke: #1e408b"/>
     <use xlink:href="#m0355807595" x="455.639746" y="363.517336" style="fill: #1e408b; stroke: #1e408b"/>
     <use xlink:href="#m0355807595" x="460.358562" y="363.517336" style="fill: #1e408b; stroke: #1e408b"/>
     <use xlink:href="#m0355807595" x="465.077378" y="363.517336" style="fill: #1e408b; stroke: #1e408b"/>
     <use xlink:href="#m0355807595" x="469.796195" y="363.517336" style="fill: #1e408b; stroke: #1e408b"/>
     <use xlink:href="#m0355807595" x="474.515011" y="363.517336" style="fill: #1e408b; stroke: #1e408b"/>
     <use xlink:href="#m0355807595" x="479.233827" y="363.517336" style="fill: #1e408b; stroke: #1e408b"/>
     <use xlink:href="#m0355807595" x="483.952643" y="363.517336" style="fill: #1e408b; stroke: #1e408b"/>
     <use xlink:href="#m0355807595" x="488.671459" y="363.517336" style="fill: #1e408b; stroke: #1e408b"/>
     <use xlink:href="#m0355807595" x="493.390275" y="363.517336" style="fill: #1e408b; stroke: #1e408b"/>
     <use xlink:href="#m0355807595" x="498.109091" y="363.517336" style="fill: #1e408b; stroke: #1e408b"/>
    </g>
   </g>
   <g id="line2d_12">
    <path d="M 92.290909 340.517766 
L 97.009725 342.223002 
L 101.728541 343.149196 
L 106.447357 342.544098 
L 111.166173 341.960849 
L 115.884989 341.078918 
L 120.603805 342.484685 
L 125.322622 342.808572 
L 130.041438 342.037061 
L 134.760254 343.482325 
L 139.47907 328.281033 
L 144.197886 330.303723 
L 148.916702 329.891554 
L 153.635518 330.983625 
L 158.354334 329.534519 
L 163.07315 331.243227 
L 167.791966 331.753951 
L 172.510782 333.059715 
L 177.229598 332.228907 
L 181.948414 330.458771 
L 186.66723 328.969917 
L 191.386047 326.079627 
L 196.104863 324.5717 
L 200.823679 321.690878 
L 205.542495 320.400205 
L 210.261311 317.541222 
L 214.980127 314.899624 
L 219.698943 310.551884 
L 224.417759 306.491739 
L 229.136575 302.384498 
L 233.855391 295.876905 
L 238.574207 292.417031 
L 243.293023 292.035323 
L 248.011839 290.454051 
L 252.730655 292.235473 
L 257.449471 291.590863 
L 262.168288 288.753255 
L 266.887104 289.032185 
L 271.60592 289.254533 
L 276.324736 290.079484 
L 281.043552 291.665982 
L 285.762368 291.303353 
L 290.481184 293.441124 
L 295.2 295.486637 
L 299.918816 299.454029 
L 304.637632 301.436002 
L 309.356448 303.839701 
L 314.075264 306.630145 
L 318.79408 312.21341 
L 323.512896 312.146125 
L 328.231712 315.628171 
L 332.950529 319.546599 
L 337.669345 322.937263 
L 342.388161 325.344221 
L 347.106977 325.85653 
L 351.825793 325.61782 
L 356.544609 325.8526 
L 361.263425 326.524805 
L 365.982241 327.503697 
L 370.701057 329.634977 
L 375.419873 336.27762 
L 380.138689 336.663975 
L 384.857505 339.377158 
L 389.576321 337.35196 
L 394.295137 341.391401 
L 399.013953 340.938294 
L 403.73277 342.573622 
L 408.451586 341.658734 
L 413.170402 341.746029 
L 417.889218 340.091359 
L 422.608034 340.913846 
L 427.32685 342.348739 
L 432.045666 341.764181 
L 436.764482 342.931911 
L 441.483298 341.459074 
L 446.202114 342.151814 
L 450.92093 341.740144 
L 455.639746 343.547469 
L 460.358562 343.137352 
L 465.077378 342.519105 
L 469.796195 341.31556 
L 474.515011 339.706928 
L 479.233827 342.03947 
L 483.952643 342.338657 
L 488.671459 343.05373 
L 493.390275 342.434337 
L 498.109091 341.855823 
" clip-path="url(#p97a949e74e)" style="fill: none; stroke: #1e72ff; stroke-width: 2; stroke-linecap: round"/>
   </g>
   <g id="line2d_13">
    <path d="M 92.290909 342.300759 
L 97.009725 342.19269 
L 101.728541 342.271477 
L 106.447357 342.554626 
L 111.166173 342.488729 
L 115.884989 342.447781 
L 120.603805 342.163644 
L 125.322622 342.043172 
L 130.041438 342.162735 
L 134.760254 342.018191 
L 139.47907 327.423094 
L 144.197886 329.522374 
L 148.916702 332.016841 
L 153.635518 332.061093 
L 158.354334 329.889879 
L 163.07315 329.016757 
L 167.791966 330.079733 
L 172.510782 329.718797 
L 177.229598 329.062296 
L 181.948414 328.862918 
L 186.66723 328.5743 
L 191.386047 327.877191 
L 196.104863 327.179434 
L 200.823679 325.939564 
L 205.542495 325.256274 
L 210.261311 324.828152 
L 214.980127 323.475723 
L 219.698943 322.075352 
L 224.417759 321.049153 
L 229.136575 320.154366 
L 233.855391 318.743828 
L 238.574207 316.352824 
L 243.293023 315.834436 
L 248.011839 315.602974 
L 252.730655 314.868992 
L 257.449471 314.437532 
L 262.168288 314.47976 
L 266.887104 314.614709 
L 271.60592 315.258858 
L 276.324736 315.96439 
L 281.043552 316.114433 
L 285.762368 316.768401 
L 290.481184 317.335923 
L 295.2 317.890029 
L 299.918816 318.941537 
L 304.637632 320.428566 
L 309.356448 321.418336 
L 314.075264 322.368093 
L 318.79408 322.918454 
L 323.512896 323.719988 
L 328.231712 324.58841 
L 332.950529 325.251211 
L 337.669345 326.107247 
L 342.388161 326.687467 
L 347.106977 327.744849 
L 351.825793 328.64993 
L 356.544609 328.80373 
L 361.263425 329.210851 
L 365.982241 330.757195 
L 370.701057 334.384575 
L 375.419873 340.288445 
L 380.138689 340.624792 
L 384.857505 341.292299 
L 389.576321 342.306555 
L 394.295137 342.330335 
L 399.013953 341.878182 
L 403.73277 341.773359 
L 408.451586 341.467029 
L 413.170402 341.630855 
L 417.889218 341.711594 
L 422.608034 341.615232 
L 427.32685 341.907091 
L 432.045666 341.919429 
L 436.764482 342.188623 
L 441.483298 341.661832 
L 446.202114 341.93179 
L 450.92093 342.042345 
L 455.639746 341.999812 
L 460.358562 342.065385 
L 465.077378 341.630527 
L 469.796195 342.263493 
L 474.515011 342.295299 
L 479.233827 342.36709 
L 483.952643 342.104273 
L 488.671459 341.70475 
L 493.390275 342.0383 
L 498.109091 342.462401 
" clip-path="url(#p97a949e74e)" style="fill: none; stroke-dasharray: 5.55,2.4; stroke-dashoffset: 0; stroke: #1e72ff; stroke-opacity: 0.8; stroke-width: 1.5"/>
   </g>
   <g id="line2d_14">
    <path d="M 92.290909 338.289707 
L 97.009725 333.492681 
L 101.728541 330.700309 
L 106.447357 327.562128 
L 111.166173 320.739287 
L 115.884989 321.016137 
L 120.603805 319.131959 
L 125.322622 309.652227 
L 130.041438 305.17253 
L 134.760254 302.52678 
L 139.47907 294.582093 
L 144.197886 287.46058 
L 148.916702 283.439352 
L 153.635518 283.79643 
L 158.354334 286.341897 
L 163.07315 285.490277 
L 167.791966 287.846091 
L 172.510782 290.237947 
L 177.229598 291.647625 
L 181.948414 294.597526 
L 186.66723 295.600169 
L 191.386047 295.337174 
L 196.104863 294.990504 
L 200.823679 294.168015 
L 205.542495 293.74413 
L 210.261311 293.363918 
L 214.980127 292.287088 
L 219.698943 289.315145 
L 224.417759 286.925907 
L 229.136575 284.809287 
L 233.855391 281.356959 
L 238.574207 277.799821 
L 243.293023 272.794969 
L 248.011839 269.123294 
L 252.730655 262.944912 
L 257.449471 258.131063 
L 262.168288 252.891125 
L 266.887104 246.585885 
L 271.60592 241.663975 
L 276.324736 237.37931 
L 281.043552 233.179973 
L 285.762368 227.798526 
L 290.481184 223.00941 
L 295.2 217.343898 
L 299.918816 212.580001 
L 304.637632 208.664807 
L 309.356448 204.77683 
L 314.075264 200.207306 
L 318.79408 196.846599 
L 323.512896 193.512284 
L 328.231712 189.784747 
L 332.950529 185.521142 
L 337.669345 183.106805 
L 342.388161 180.42745 
L 347.106977 178.619337 
L 351.825793 175.633574 
L 356.544609 173.578314 
L 361.263425 170.256681 
L 365.982241 168.037856 
L 370.701057 165.595602 
L 375.419873 164.998539 
L 380.138689 166.527632 
L 384.857505 163.572983 
L 389.576321 158.156089 
L 394.295137 149.845513 
L 399.013953 141.389349 
L 403.73277 136.080053 
L 408.451586 132.45725 
L 413.170402 129.681992 
L 417.889218 124.793045 
L 422.608034 119.99218 
L 427.32685 115.739529 
L 432.045666 111.891419 
L 436.764482 108.65398 
L 441.483298 105.993799 
L 446.202114 105.034508 
L 450.92093 103.297151 
L 455.639746 101.233826 
L 460.358562 100.519614 
L 465.077378 98.845667 
L 469.796195 98.41832 
L 474.515011 96.691187 
L 479.233827 96.054162 
L 483.952643 94.973829 
L 488.671459 95.316221 
L 493.390275 95.304563 
L 498.109091 93.924137 
" clip-path="url(#p97a949e74e)" style="fill: none; stroke: #1e408b; stroke-width: 2; stroke-linecap: round"/>
   </g>
   <g id="line2d_15">
    <path d="M 92.290909 339.068372 
L 97.009725 334.691021 
L 101.728541 330.682006 
L 106.447357 327.285745 
L 111.166173 322.694762 
L 115.884989 317.780059 
L 120.603805 313.917435 
L 125.322622 308.413776 
L 130.041438 302.387637 
L 134.760254 296.503238 
L 139.47907 290.830697 
L 144.197886 288.576286 
L 148.916702 288.720335 
L 153.635518 290.782439 
L 158.354334 294.201664 
L 163.07315 297.77585 
L 167.791966 301.379085 
L 172.510782 305.323583 
L 177.229598 308.721846 
L 181.948414 311.517501 
L 186.66723 313.434136 
L 191.386047 315.139287 
L 196.104863 316.582281 
L 200.823679 317.631511 
L 205.542495 318.533437 
L 210.261311 319.324457 
L 214.980127 320.002987 
L 219.698943 320.012528 
L 224.417759 320.500799 
L 229.136575 320.350483 
L 233.855391 320.357738 
L 238.574207 320.201245 
L 243.293023 319.97536 
L 248.011839 319.48181 
L 252.730655 319.483114 
L 257.449471 319.275675 
L 262.168288 318.792321 
L 266.887104 318.478135 
L 271.60592 318.04247 
L 276.324736 317.566082 
L 281.043552 317.431734 
L 285.762368 317.405161 
L 290.481184 317.379731 
L 295.2 317.279072 
L 299.918816 317.378878 
L 304.637632 317.357319 
L 309.356448 317.326873 
L 314.075264 317.174009 
L 318.79408 317.125557 
L 323.512896 317.259161 
L 328.231712 317.760958 
L 332.950529 318.094395 
L 337.669345 318.104161 
L 342.388161 318.342672 
L 347.106977 318.716237 
L 351.825793 319.080824 
L 356.544609 319.762085 
L 361.263425 320.304932 
L 365.982241 321.103021 
L 370.701057 321.866431 
L 375.419873 323.095618 
L 380.138689 324.147157 
L 384.857505 324.974205 
L 389.576321 325.668681 
L 394.295137 325.934207 
L 399.013953 326.190159 
L 403.73277 326.412482 
L 408.451586 326.937943 
L 413.170402 327.324546 
L 417.889218 327.787068 
L 422.608034 327.998116 
L 427.32685 328.131541 
L 432.045666 328.256132 
L 436.764482 328.423985 
L 441.483298 328.526409 
L 446.202114 328.668623 
L 450.92093 328.816739 
L 455.639746 328.960626 
L 460.358562 329.153391 
L 465.077378 329.201702 
L 469.796195 329.317794 
L 474.515011 329.41246 
L 479.233827 329.558035 
L 483.952643 329.632845 
L 488.671459 329.75354 
L 493.390275 329.761819 
L 498.109091 329.900343 
" clip-path="url(#p97a949e74e)" style="fill: none; stroke-dasharray: 5.55,2.4; stroke-dashoffset: 0; stroke: #1e408b; stroke-opacity: 0.8; stroke-width: 1.5"/>
   </g>
   <g id="line2d_16">
    <path d="M 139.47907 378 
L 139.47907 51.84 
" clip-path="url(#p97a949e74e)" style="fill: none; stroke-dasharray: 5.55,2.4; stroke-dashoffset: 0; stroke: #808080; stroke-opacity: 0.7; stroke-width: 1.5"/>
   </g>
   <g id="line2d_17">
    <path d="M 375.419873 378 
L 375.419873 51.84 
" clip-path="url(#p97a949e74e)" style="fill: none; stroke-dasharray: 5.55,2.4; stroke-dashoffset: 0; stroke: #808080; stroke-opacity: 0.7; stroke-width: 1.5"/>
   </g>
   <g id="patch_3">
    <path d="M 72 378 
L 72 51.84 
" style="fill: none; stroke: #000000; stroke-width: 1.5; stroke-linejoin: miter; stroke-linecap: square"/>
   </g>
   <g id="patch_4">
    <path d="M 72 378 
L 518.4 378 
" style="fill: none; stroke: #000000; stroke-width: 1.5; stroke-linejoin: miter; stroke-linecap: square"/>
   </g>
   <g id="text_14">
    <!-- L1_sactemporal -->
    <g style="fill: #262626" transform="translate(238.093359 45.84) scale(0.15 -0.15)">
     <defs>
      <path id="Arial-BoldMT-4c" d="M 491 0 
L 491 4544 
L 1416 4544 
L 1416 772 
L 3716 772 
L 3716 0 
L 491 0 
z
" transform="scale(0.015625)"/>
      <path id="Arial-BoldMT-31" d="M 2519 0 
L 1641 0 
L 1641 3309 
Q 1159 2859 506 2644 
L 506 3441 
Q 850 3553 1253 3867 
Q 1656 4181 1806 4600 
L 2519 4600 
L 2519 0 
z
" transform="scale(0.015625)"/>
      <path id="Arial-BoldMT-5f" d="M -59 -1266 
L -59 -697 
L 3591 -697 
L 3591 -1266 
L -59 -1266 
z
" transform="scale(0.015625)"/>
      <path id="Arial-BoldMT-73" d="M 150 947 
L 1031 1081 
Q 1088 825 1259 692 
Q 1431 559 1741 559 
Q 2081 559 2253 684 
Q 2369 772 2369 919 
Q 2369 1019 2306 1084 
Q 2241 1147 2013 1200 
Q 950 1434 666 1628 
Q 272 1897 272 2375 
Q 272 2806 612 3100 
Q 953 3394 1669 3394 
Q 2350 3394 2681 3172 
Q 3013 2950 3138 2516 
L 2309 2363 
Q 2256 2556 2107 2659 
Q 1959 2763 1684 2763 
Q 1338 2763 1188 2666 
Q 1088 2597 1088 2488 
Q 1088 2394 1175 2328 
Q 1294 2241 1995 2081 
Q 2697 1922 2975 1691 
Q 3250 1456 3250 1038 
Q 3250 581 2869 253 
Q 2488 -75 1741 -75 
Q 1063 -75 667 200 
Q 272 475 150 947 
z
" transform="scale(0.015625)"/>
      <path id="Arial-BoldMT-61" d="M 1116 2306 
L 319 2450 
Q 453 2931 781 3162 
Q 1109 3394 1756 3394 
Q 2344 3394 2631 3255 
Q 2919 3116 3036 2902 
Q 3153 2688 3153 2116 
L 3144 1091 
Q 3144 653 3186 445 
Q 3228 238 3344 0 
L 2475 0 
Q 2441 88 2391 259 
Q 2369 338 2359 363 
Q 2134 144 1878 34 
Q 1622 -75 1331 -75 
Q 819 -75 523 203 
Q 228 481 228 906 
Q 228 1188 362 1408 
Q 497 1628 739 1745 
Q 981 1863 1438 1950 
Q 2053 2066 2291 2166 
L 2291 2253 
Q 2291 2506 2166 2614 
Q 2041 2722 1694 2722 
Q 1459 2722 1328 2630 
Q 1197 2538 1116 2306 
z
M 2291 1594 
Q 2122 1538 1756 1459 
Q 1391 1381 1278 1306 
Q 1106 1184 1106 997 
Q 1106 813 1243 678 
Q 1381 544 1594 544 
Q 1831 544 2047 700 
Q 2206 819 2256 991 
Q 2291 1103 2291 1419 
L 2291 1594 
z
" transform="scale(0.015625)"/>
      <path id="Arial-BoldMT-63" d="M 3353 2338 
L 2488 2181 
Q 2444 2441 2289 2572 
Q 2134 2703 1888 2703 
Q 1559 2703 1364 2476 
Q 1169 2250 1169 1719 
Q 1169 1128 1367 884 
Q 1566 641 1900 641 
Q 2150 641 2309 783 
Q 2469 925 2534 1272 
L 3397 1125 
Q 3263 531 2881 228 
Q 2500 -75 1859 -75 
Q 1131 -75 698 384 
Q 266 844 266 1656 
Q 266 2478 700 2936 
Q 1134 3394 1875 3394 
Q 2481 3394 2839 3133 
Q 3197 2872 3353 2338 
z
" transform="scale(0.015625)"/>
      <path id="Arial-BoldMT-74" d="M 1981 3319 
L 1981 2619 
L 1381 2619 
L 1381 1281 
Q 1381 875 1398 808 
Q 1416 741 1477 697 
Q 1538 653 1625 653 
Q 1747 653 1978 738 
L 2053 56 
Q 1747 -75 1359 -75 
Q 1122 -75 931 4 
Q 741 84 652 211 
Q 563 338 528 553 
Q 500 706 500 1172 
L 500 2619 
L 97 2619 
L 97 3319 
L 500 3319 
L 500 3978 
L 1381 4491 
L 1381 3319 
L 1981 3319 
z
" transform="scale(0.015625)"/>
      <path id="Arial-BoldMT-65" d="M 2381 1056 
L 3256 909 
Q 3088 428 2723 176 
Q 2359 -75 1813 -75 
Q 947 -75 531 491 
Q 203 944 203 1634 
Q 203 2459 634 2926 
Q 1066 3394 1725 3394 
Q 2466 3394 2894 2905 
Q 3322 2416 3303 1406 
L 1103 1406 
Q 1113 1016 1316 798 
Q 1519 581 1822 581 
Q 2028 581 2168 693 
Q 2309 806 2381 1056 
z
M 2431 1944 
Q 2422 2325 2234 2523 
Q 2047 2722 1778 2722 
Q 1491 2722 1303 2513 
Q 1116 2303 1119 1944 
L 2431 1944 
z
" transform="scale(0.015625)"/>
      <path id="Arial-BoldMT-6d" d="M 394 3319 
L 1203 3319 
L 1203 2866 
Q 1638 3394 2238 3394 
Q 2556 3394 2790 3262 
Q 3025 3131 3175 2866 
Q 3394 3131 3647 3262 
Q 3900 3394 4188 3394 
Q 4553 3394 4806 3245 
Q 5059 3097 5184 2809 
Q 5275 2597 5275 2122 
L 5275 0 
L 4397 0 
L 4397 1897 
Q 4397 2391 4306 2534 
Q 4184 2722 3931 2722 
Q 3747 2722 3584 2609 
Q 3422 2497 3350 2280 
Q 3278 2063 3278 1594 
L 3278 0 
L 2400 0 
L 2400 1819 
Q 2400 2303 2353 2443 
Q 2306 2584 2207 2653 
Q 2109 2722 1941 2722 
Q 1738 2722 1575 2612 
Q 1413 2503 1342 2297 
Q 1272 2091 1272 1613 
L 1272 0 
L 394 0 
L 394 3319 
z
" transform="scale(0.015625)"/>
      <path id="Arial-BoldMT-70" d="M 434 3319 
L 1253 3319 
L 1253 2831 
Q 1413 3081 1684 3237 
Q 1956 3394 2288 3394 
Q 2866 3394 3269 2941 
Q 3672 2488 3672 1678 
Q 3672 847 3265 386 
Q 2859 -75 2281 -75 
Q 2006 -75 1782 34 
Q 1559 144 1313 409 
L 1313 -1263 
L 434 -1263 
L 434 3319 
z
M 1303 1716 
Q 1303 1156 1525 889 
Q 1747 622 2066 622 
Q 2372 622 2575 867 
Q 2778 1113 2778 1672 
Q 2778 2194 2568 2447 
Q 2359 2700 2050 2700 
Q 1728 2700 1515 2451 
Q 1303 2203 1303 1716 
z
" transform="scale(0.015625)"/>
      <path id="Arial-BoldMT-6f" d="M 256 1706 
Q 256 2144 472 2553 
Q 688 2963 1083 3178 
Q 1478 3394 1966 3394 
Q 2719 3394 3200 2905 
Q 3681 2416 3681 1669 
Q 3681 916 3195 420 
Q 2709 -75 1972 -75 
Q 1516 -75 1102 131 
Q 688 338 472 736 
Q 256 1134 256 1706 
z
M 1156 1659 
Q 1156 1166 1390 903 
Q 1625 641 1969 641 
Q 2313 641 2545 903 
Q 2778 1166 2778 1666 
Q 2778 2153 2545 2415 
Q 2313 2678 1969 2678 
Q 1625 2678 1390 2415 
Q 1156 2153 1156 1659 
z
" transform="scale(0.015625)"/>
      <path id="Arial-BoldMT-72" d="M 1300 0 
L 422 0 
L 422 3319 
L 1238 3319 
L 1238 2847 
Q 1447 3181 1614 3287 
Q 1781 3394 1994 3394 
Q 2294 3394 2572 3228 
L 2300 2463 
Q 2078 2606 1888 2606 
Q 1703 2606 1575 2504 
Q 1447 2403 1373 2137 
Q 1300 1872 1300 1025 
L 1300 0 
z
" transform="scale(0.015625)"/>
      <path id="Arial-BoldMT-6c" d="M 459 0 
L 459 4581 
L 1338 4581 
L 1338 0 
L 459 0 
z
" transform="scale(0.015625)"/>
     </defs>
     <use xlink:href="#Arial-BoldMT-4c"/>
     <use xlink:href="#Arial-BoldMT-31" x="61.083984"/>
     <use xlink:href="#Arial-BoldMT-5f" x="116.699219"/>
     <use xlink:href="#Arial-BoldMT-73" x="172.314453"/>
     <use xlink:href="#Arial-BoldMT-61" x="227.929688"/>
     <use xlink:href="#Arial-BoldMT-63" x="283.544922"/>
     <use xlink:href="#Arial-BoldMT-74" x="339.160156"/>
     <use xlink:href="#Arial-BoldMT-65" x="372.460938"/>
     <use xlink:href="#Arial-BoldMT-6d" x="428.076172"/>
     <use xlink:href="#Arial-BoldMT-70" x="516.992188"/>
     <use xlink:href="#Arial-BoldMT-6f" x="578.076172"/>
     <use xlink:href="#Arial-BoldMT-72" x="639.160156"/>
     <use xlink:href="#Arial-BoldMT-61" x="678.076172"/>
     <use xlink:href="#Arial-BoldMT-6c" x="733.691406"/>
    </g>
   </g>
  </g>
 </g>
 <defs>
  <clipPath id="p97a949e74e">
   <rect x="72" y="51.84" width="446.4" height="326.16"/>
  </clipPath>
 </defs>
</svg>
