<?xml version="1.0" encoding="utf-8" standalone="no"?>
<!DOCTYPE svg PUBLIC "-//W3C//DTD SVG 1.1//EN"
  "http://www.w3.org/Graphics/SVG/1.1/DTD/svg11.dtd">
<svg xmlns:xlink="http://www.w3.org/1999/xlink" width="576pt" height="432pt" viewBox="0 0 576 432" xmlns="http://www.w3.org/2000/svg" version="1.1">
 <metadata>
  <rdf:RDF xmlns:dc="http://purl.org/dc/elements/1.1/" xmlns:cc="http://creativecommons.org/ns#" xmlns:rdf="http://www.w3.org/1999/02/22-rdf-syntax-ns#">
   <cc:Work>
    <dc:type rdf:resource="http://purl.org/dc/dcmitype/StillImage"/>
    <dc:date>2025-11-15T11:09:03.463171</dc:date>
    <dc:format>image/svg+xml</dc:format>
    <dc:creator>
     <cc:Agent>
      <dc:title>Matplotlib v3.9.4, https://matplotlib.org/</dc:title>
     </cc:Agent>
    </dc:creator>
   </cc:Work>
  </rdf:RDF>
 </metadata>
 <defs>
  <style type="text/css">*{stroke-linejoin: round; stroke-linecap: butt}</style>
 </defs>
 <g id="figure_1">
  <g id="patch_1">
   <path d="M 0 432 
L 576 432 
L 576 0 
L 0 0 
z
" style="fill: #ffffff"/>
  </g>
  <g id="axes_1">
   <g id="patch_2">
    <path d="M 72 378 
L 518.4 378 
L 518.4 51.84 
L 72 51.84 
L 72 378 
z
" style="fill: none"/>
   </g>
   <g id="PolyCollection_1">
    <defs>
     <path id="m938a1e06cb" d="M 92.290909 -91.461877 
L 92.290909 -90.557224 
L 97.009725 -91.691711 
L 101.728541 -89.851593 
L 106.447357 -89.191649 
L 111.166173 -89.99414 
L 115.884989 -90.598599 
L 120.603805 -90.544065 
L 125.322622 -89.545392 
L 130.041438 -89.623991 
L 134.760254 -88.768351 
L 139.47907 -90.965993 
L 144.197886 -92.863055 
L 148.916702 -94.524028 
L 153.635518 -90.471282 
L 158.354334 -88.907855 
L 163.07315 -88.495922 
L 167.791966 -91.429248 
L 172.510782 -91.112272 
L 177.229598 -95.578365 
L 181.948414 -96.00856 
L 186.66723 -98.510883 
L 191.386047 -101.811743 
L 196.104863 -104.057184 
L 200.823679 -105.057958 
L 205.542495 -107.046175 
L 210.261311 -107.932758 
L 214.980127 -107.922854 
L 219.698943 -108.884504 
L 224.417759 -110.014843 
L 229.136575 -112.093271 
L 233.855391 -114.989254 
L 238.574207 -117.387048 
L 243.293023 -118.81783 
L 248.011839 -123.929393 
L 252.730655 -128.429325 
L 257.449471 -133.718266 
L 262.168288 -138.691197 
L 266.887104 -143.082641 
L 271.60592 -146.984836 
L 276.324736 -149.186966 
L 281.043552 -149.984568 
L 285.762368 -152.049176 
L 290.481184 -153.751681 
L 295.2 -156.239868 
L 299.918816 -159.391958 
L 304.637632 -162.130284 
L 309.356448 -163.482546 
L 314.075264 -166.840438 
L 318.79408 -170.798043 
L 323.512896 -173.476558 
L 328.231712 -172.045259 
L 332.950529 -171.588795 
L 337.669345 -177.464077 
L 342.388161 -183.716247 
L 347.106977 -189.223781 
L 351.825793 -191.334811 
L 356.544609 -186.459912 
L 361.263425 -186.110451 
L 365.982241 -188.030945 
L 370.701057 -190.660395 
L 375.419873 -187.369033 
L 380.138689 -193.038731 
L 384.857505 -202.651514 
L 389.576321 -201.10244 
L 394.295137 -197.531835 
L 399.013953 -198.131239 
L 403.73277 -199.319042 
L 408.451586 -200.70554 
L 413.170402 -204.75159 
L 417.889218 -207.592399 
L 422.608034 -209.803917 
L 427.32685 -210.79154 
L 432.045666 -211.448385 
L 436.764482 -211.673786 
L 441.483298 -213.388804 
L 446.202114 -214.479848 
L 450.92093 -216.228998 
L 455.639746 -217.51372 
L 460.358562 -217.343654 
L 465.077378 -217.902384 
L 469.796195 -218.194972 
L 474.515011 -218.479849 
L 479.233827 -219.000712 
L 483.952643 -219.621184 
L 488.671459 -220.203873 
L 493.390275 -221.187021 
L 498.109091 -221.006301 
L 498.109091 -293.564167 
L 498.109091 -293.564167 
L 493.390275 -293.343394 
L 488.671459 -292.173966 
L 483.952643 -292.111189 
L 479.233827 -291.643229 
L 474.515011 -290.949856 
L 469.796195 -291.033766 
L 465.077378 -291.463509 
L 460.358562 -290.629558 
L 455.639746 -290.474926 
L 450.92093 -289.422261 
L 446.202114 -288.007816 
L 441.483298 -286.733131 
L 436.764482 -285.254449 
L 432.045666 -284.318745 
L 427.32685 -282.854031 
L 422.608034 -281.014215 
L 417.889218 -278.179138 
L 413.170402 -274.598505 
L 408.451586 -270.901929 
L 403.73277 -270.719279 
L 399.013953 -271.235348 
L 394.295137 -273.12892 
L 389.576321 -276.617994 
L 384.857505 -272.939675 
L 380.138689 -249.108617 
L 375.419873 -233.387878 
L 370.701057 -236.672964 
L 365.982241 -236.582662 
L 361.263425 -232.345749 
L 356.544609 -230.863806 
L 351.825793 -236.655077 
L 347.106977 -235.575712 
L 342.388161 -229.38865 
L 337.669345 -222.443099 
L 332.950529 -215.703716 
L 328.231712 -215.417823 
L 323.512896 -215.007245 
L 318.79408 -209.033578 
L 314.075264 -201.574758 
L 309.356448 -194.868889 
L 304.637632 -191.338554 
L 299.918816 -187.396774 
L 295.2 -181.78838 
L 290.481184 -177.86014 
L 285.762368 -175.064017 
L 281.043552 -171.440571 
L 276.324736 -168.651097 
L 271.60592 -164.244426 
L 266.887104 -160.453651 
L 262.168288 -156.562899 
L 257.449471 -151.248754 
L 252.730655 -145.01168 
L 248.011839 -139.642669 
L 243.293023 -134.913202 
L 238.574207 -131.573052 
L 233.855391 -128.857702 
L 229.136575 -124.328138 
L 224.417759 -120.617307 
L 219.698943 -118.044641 
L 214.980127 -115.777521 
L 210.261311 -114.743899 
L 205.542495 -113.832825 
L 200.823679 -112.600182 
L 196.104863 -111.563903 
L 191.386047 -109.751248 
L 186.66723 -108.842569 
L 181.948414 -106.569156 
L 177.229598 -104.518106 
L 172.510782 -98.851971 
L 167.791966 -96.537603 
L 163.07315 -92.946141 
L 158.354334 -94.255967 
L 153.635518 -94.52736 
L 148.916702 -97.649939 
L 144.197886 -97.37245 
L 139.47907 -94.549849 
L 134.760254 -89.761825 
L 130.041438 -91.136898 
L 125.322622 -91.136827 
L 120.603805 -91.867985 
L 115.884989 -91.437249 
L 111.166173 -91.134024 
L 106.447357 -90.577226 
L 101.728541 -90.882239 
L 97.009725 -92.636525 
L 92.290909 -91.461877 
z
" style="stroke: #1e72ff; stroke-opacity: 0.1"/>
    </defs>
    <g clip-path="url(#p3b2e0d5faa)">
     <use xlink:href="#m938a1e06cb" x="0" y="432" style="fill: #1e72ff; fill-opacity: 0.1; stroke: #1e72ff; stroke-opacity: 0.1"/>
    </g>
   </g>
   <g id="PolyCollection_2">
    <defs>
     <path id="m429d0b2206" d="M 92.290909 -94.6113 
L 92.290909 -92.379721 
L 97.009725 -92.604757 
L 101.728541 -93.181963 
L 106.447357 -96.47138 
L 111.166173 -98.057258 
L 115.884989 -102.219181 
L 120.603805 -104.912323 
L 125.322622 -107.176074 
L 130.041438 -111.634891 
L 134.760254 -117.232428 
L 139.47907 -119.515679 
L 144.197886 -124.081758 
L 148.916702 -124.408659 
L 153.635518 -123.766433 
L 158.354334 -123.890764 
L 163.07315 -123.19198 
L 167.791966 -118.74124 
L 172.510782 -118.524227 
L 177.229598 -116.801733 
L 181.948414 -115.373317 
L 186.66723 -112.449705 
L 191.386047 -111.863199 
L 196.104863 -112.582581 
L 200.823679 -112.090218 
L 205.542495 -113.228013 
L 210.261311 -114.875915 
L 214.980127 -116.270421 
L 219.698943 -118.766384 
L 224.417759 -120.835593 
L 229.136575 -124.772693 
L 233.855391 -129.008109 
L 238.574207 -133.427447 
L 243.293023 -137.358779 
L 248.011839 -142.403064 
L 252.730655 -147.875977 
L 257.449471 -153.255369 
L 262.168288 -159.427926 
L 266.887104 -164.978255 
L 271.60592 -170.830825 
L 276.324736 -176.139347 
L 281.043552 -181.695708 
L 285.762368 -187.144498 
L 290.481184 -192.878734 
L 295.2 -198.007835 
L 299.918816 -202.41864 
L 304.637632 -206.170043 
L 309.356448 -210.762245 
L 314.075264 -214.074226 
L 318.79408 -218.347924 
L 323.512896 -223.221526 
L 328.231712 -226.55858 
L 332.950529 -230.503445 
L 337.669345 -234.05789 
L 342.388161 -236.829414 
L 347.106977 -241.265106 
L 351.825793 -244.920186 
L 356.544609 -249.052771 
L 361.263425 -251.692196 
L 365.982241 -254.951292 
L 370.701057 -258.82496 
L 375.419873 -260.419062 
L 380.138689 -260.28656 
L 384.857505 -260.261422 
L 389.576321 -263.535825 
L 394.295137 -268.4516 
L 399.013953 -273.309841 
L 403.73277 -277.801958 
L 408.451586 -282.246634 
L 413.170402 -286.431776 
L 417.889218 -290.730215 
L 422.608034 -294.292524 
L 427.32685 -297.037036 
L 432.045666 -299.806004 
L 436.764482 -302.680716 
L 441.483298 -304.793806 
L 446.202114 -308.587824 
L 450.92093 -310.580404 
L 455.639746 -312.217884 
L 460.358562 -314.081263 
L 465.077378 -315.210681 
L 469.796195 -316.977109 
L 474.515011 -318.827432 
L 479.233827 -321.098754 
L 483.952643 -322.332708 
L 488.671459 -323.713573 
L 493.390275 -324.186475 
L 498.109091 -323.638008 
L 498.109091 -364.851223 
L 498.109091 -364.851223 
L 493.390275 -365.334545 
L 488.671459 -365.007594 
L 483.952643 -363.588259 
L 479.233827 -362.594043 
L 474.515011 -359.965989 
L 469.796195 -358.024984 
L 465.077378 -356.39595 
L 460.358562 -355.333133 
L 455.639746 -353.048926 
L 450.92093 -351.231963 
L 446.202114 -349.179538 
L 441.483298 -345.462664 
L 436.764482 -343.328243 
L 432.045666 -340.297308 
L 427.32685 -336.450338 
L 422.608034 -333.399652 
L 417.889218 -329.810429 
L 413.170402 -325.291844 
L 408.451586 -321.056634 
L 403.73277 -315.744923 
L 399.013953 -310.714034 
L 394.295137 -304.911276 
L 389.576321 -299.581902 
L 384.857505 -297.365625 
L 380.138689 -298.231459 
L 375.419873 -300.163821 
L 370.701057 -298.004699 
L 365.982241 -293.731723 
L 361.263425 -289.664557 
L 356.544609 -286.371484 
L 351.825793 -281.380131 
L 347.106977 -276.582945 
L 342.388161 -271.552845 
L 337.669345 -267.463719 
L 332.950529 -262.875286 
L 328.231712 -257.989378 
L 323.512896 -253.456429 
L 318.79408 -247.529109 
L 314.075264 -241.689258 
L 309.356448 -236.901167 
L 304.637632 -231.202728 
L 299.918816 -225.51784 
L 295.2 -219.513369 
L 290.481184 -213.206359 
L 285.762368 -205.913824 
L 281.043552 -199.49492 
L 276.324736 -192.672841 
L 271.60592 -185.796335 
L 266.887104 -178.498264 
L 262.168288 -171.372958 
L 257.449471 -163.767653 
L 252.730655 -156.973321 
L 248.011839 -150.360602 
L 243.293023 -143.996854 
L 238.574207 -139.238882 
L 233.855391 -134.038834 
L 229.136575 -129.378517 
L 224.417759 -125.716307 
L 219.698943 -123.20463 
L 214.980127 -120.740889 
L 210.261311 -119.769265 
L 205.542495 -118.448426 
L 200.823679 -117.011985 
L 196.104863 -117.457187 
L 191.386047 -116.493872 
L 186.66723 -117.550057 
L 181.948414 -119.487547 
L 177.229598 -120.990963 
L 172.510782 -122.646614 
L 167.791966 -122.172436 
L 163.07315 -126.279495 
L 158.354334 -126.796914 
L 153.635518 -126.51693 
L 148.916702 -129.163787 
L 144.197886 -129.077178 
L 139.47907 -124.11745 
L 134.760254 -122.527922 
L 130.041438 -117.63092 
L 125.322622 -113.637293 
L 120.603805 -110.834014 
L 115.884989 -108.069853 
L 111.166173 -104.727785 
L 106.447357 -103.361152 
L 101.728541 -98.531902 
L 97.009725 -96.644366 
L 92.290909 -94.6113 
z
" style="stroke: #1e408b; stroke-opacity: 0.2"/>
    </defs>
    <g clip-path="url(#p3b2e0d5faa)">
     <use xlink:href="#m429d0b2206" x="0" y="432" style="fill: #1e408b; fill-opacity: 0.2; stroke: #1e408b; stroke-opacity: 0.2"/>
    </g>
   </g>
   <g id="PathCollection_1">
    <defs>
     <path id="md91f1f41e8" d="M -2.5 2.5 
L 2.5 2.5 
L 2.5 -2.5 
L -2.5 -2.5 
z
" style="stroke: #1e72ff"/>
    </defs>
    <g clip-path="url(#p3b2e0d5faa)">
     <use xlink:href="#md91f1f41e8" x="97.009725" y="355.509683" style="fill: #1e72ff; stroke: #1e72ff"/>
     <use xlink:href="#md91f1f41e8" x="134.760254" y="355.509683" style="fill: #1e72ff; stroke: #1e72ff"/>
     <use xlink:href="#md91f1f41e8" x="163.07315" y="355.509683" style="fill: #1e72ff; stroke: #1e72ff"/>
     <use xlink:href="#md91f1f41e8" x="205.542495" y="355.509683" style="fill: #1e72ff; stroke: #1e72ff"/>
     <use xlink:href="#md91f1f41e8" x="210.261311" y="355.509683" style="fill: #1e72ff; stroke: #1e72ff"/>
     <use xlink:href="#md91f1f41e8" x="214.980127" y="355.509683" style="fill: #1e72ff; stroke: #1e72ff"/>
     <use xlink:href="#md91f1f41e8" x="219.698943" y="355.509683" style="fill: #1e72ff; stroke: #1e72ff"/>
     <use xlink:href="#md91f1f41e8" x="224.417759" y="355.509683" style="fill: #1e72ff; stroke: #1e72ff"/>
     <use xlink:href="#md91f1f41e8" x="229.136575" y="355.509683" style="fill: #1e72ff; stroke: #1e72ff"/>
     <use xlink:href="#md91f1f41e8" x="233.855391" y="355.509683" style="fill: #1e72ff; stroke: #1e72ff"/>
     <use xlink:href="#md91f1f41e8" x="238.574207" y="355.509683" style="fill: #1e72ff; stroke: #1e72ff"/>
     <use xlink:href="#md91f1f41e8" x="243.293023" y="355.509683" style="fill: #1e72ff; stroke: #1e72ff"/>
     <use xlink:href="#md91f1f41e8" x="248.011839" y="355.509683" style="fill: #1e72ff; stroke: #1e72ff"/>
     <use xlink:href="#md91f1f41e8" x="252.730655" y="355.509683" style="fill: #1e72ff; stroke: #1e72ff"/>
     <use xlink:href="#md91f1f41e8" x="257.449471" y="355.509683" style="fill: #1e72ff; stroke: #1e72ff"/>
     <use xlink:href="#md91f1f41e8" x="262.168288" y="355.509683" style="fill: #1e72ff; stroke: #1e72ff"/>
     <use xlink:href="#md91f1f41e8" x="266.887104" y="355.509683" style="fill: #1e72ff; stroke: #1e72ff"/>
     <use xlink:href="#md91f1f41e8" x="271.60592" y="355.509683" style="fill: #1e72ff; stroke: #1e72ff"/>
     <use xlink:href="#md91f1f41e8" x="276.324736" y="355.509683" style="fill: #1e72ff; stroke: #1e72ff"/>
     <use xlink:href="#md91f1f41e8" x="281.043552" y="355.509683" style="fill: #1e72ff; stroke: #1e72ff"/>
     <use xlink:href="#md91f1f41e8" x="285.762368" y="355.509683" style="fill: #1e72ff; stroke: #1e72ff"/>
     <use xlink:href="#md91f1f41e8" x="290.481184" y="355.509683" style="fill: #1e72ff; stroke: #1e72ff"/>
     <use xlink:href="#md91f1f41e8" x="295.2" y="355.509683" style="fill: #1e72ff; stroke: #1e72ff"/>
     <use xlink:href="#md91f1f41e8" x="299.918816" y="355.509683" style="fill: #1e72ff; stroke: #1e72ff"/>
     <use xlink:href="#md91f1f41e8" x="304.637632" y="355.509683" style="fill: #1e72ff; stroke: #1e72ff"/>
     <use xlink:href="#md91f1f41e8" x="309.356448" y="355.509683" style="fill: #1e72ff; stroke: #1e72ff"/>
     <use xlink:href="#md91f1f41e8" x="314.075264" y="355.509683" style="fill: #1e72ff; stroke: #1e72ff"/>
     <use xlink:href="#md91f1f41e8" x="318.79408" y="355.509683" style="fill: #1e72ff; stroke: #1e72ff"/>
     <use xlink:href="#md91f1f41e8" x="323.512896" y="355.509683" style="fill: #1e72ff; stroke: #1e72ff"/>
     <use xlink:href="#md91f1f41e8" x="328.231712" y="355.509683" style="fill: #1e72ff; stroke: #1e72ff"/>
     <use xlink:href="#md91f1f41e8" x="332.950529" y="355.509683" style="fill: #1e72ff; stroke: #1e72ff"/>
     <use xlink:href="#md91f1f41e8" x="337.669345" y="355.509683" style="fill: #1e72ff; stroke: #1e72ff"/>
     <use xlink:href="#md91f1f41e8" x="342.388161" y="355.509683" style="fill: #1e72ff; stroke: #1e72ff"/>
     <use xlink:href="#md91f1f41e8" x="347.106977" y="355.509683" style="fill: #1e72ff; stroke: #1e72ff"/>
     <use xlink:href="#md91f1f41e8" x="351.825793" y="355.509683" style="fill: #1e72ff; stroke: #1e72ff"/>
     <use xlink:href="#md91f1f41e8" x="356.544609" y="355.509683" style="fill: #1e72ff; stroke: #1e72ff"/>
     <use xlink:href="#md91f1f41e8" x="361.263425" y="355.509683" style="fill: #1e72ff; stroke: #1e72ff"/>
     <use xlink:href="#md91f1f41e8" x="365.982241" y="355.509683" style="fill: #1e72ff; stroke: #1e72ff"/>
     <use xlink:href="#md91f1f41e8" x="370.701057" y="355.509683" style="fill: #1e72ff; stroke: #1e72ff"/>
     <use xlink:href="#md91f1f41e8" x="375.419873" y="355.509683" style="fill: #1e72ff; stroke: #1e72ff"/>
     <use xlink:href="#md91f1f41e8" x="380.138689" y="355.509683" style="fill: #1e72ff; stroke: #1e72ff"/>
     <use xlink:href="#md91f1f41e8" x="384.857505" y="355.509683" style="fill: #1e72ff; stroke: #1e72ff"/>
     <use xlink:href="#md91f1f41e8" x="389.576321" y="355.509683" style="fill: #1e72ff; stroke: #1e72ff"/>
     <use xlink:href="#md91f1f41e8" x="394.295137" y="355.509683" style="fill: #1e72ff; stroke: #1e72ff"/>
     <use xlink:href="#md91f1f41e8" x="399.013953" y="355.509683" style="fill: #1e72ff; stroke: #1e72ff"/>
     <use xlink:href="#md91f1f41e8" x="403.73277" y="355.509683" style="fill: #1e72ff; stroke: #1e72ff"/>
     <use xlink:href="#md91f1f41e8" x="408.451586" y="355.509683" style="fill: #1e72ff; stroke: #1e72ff"/>
     <use xlink:href="#md91f1f41e8" x="413.170402" y="355.509683" style="fill: #1e72ff; stroke: #1e72ff"/>
     <use xlink:href="#md91f1f41e8" x="417.889218" y="355.509683" style="fill: #1e72ff; stroke: #1e72ff"/>
     <use xlink:href="#md91f1f41e8" x="422.608034" y="355.509683" style="fill: #1e72ff; stroke: #1e72ff"/>
     <use xlink:href="#md91f1f41e8" x="427.32685" y="355.509683" style="fill: #1e72ff; stroke: #1e72ff"/>
     <use xlink:href="#md91f1f41e8" x="432.045666" y="355.509683" style="fill: #1e72ff; stroke: #1e72ff"/>
     <use xlink:href="#md91f1f41e8" x="436.764482" y="355.509683" style="fill: #1e72ff; stroke: #1e72ff"/>
     <use xlink:href="#md91f1f41e8" x="441.483298" y="355.509683" style="fill: #1e72ff; stroke: #1e72ff"/>
     <use xlink:href="#md91f1f41e8" x="446.202114" y="355.509683" style="fill: #1e72ff; stroke: #1e72ff"/>
     <use xlink:href="#md91f1f41e8" x="450.92093" y="355.509683" style="fill: #1e72ff; stroke: #1e72ff"/>
     <use xlink:href="#md91f1f41e8" x="455.639746" y="355.509683" style="fill: #1e72ff; stroke: #1e72ff"/>
     <use xlink:href="#md91f1f41e8" x="460.358562" y="355.509683" style="fill: #1e72ff; stroke: #1e72ff"/>
     <use xlink:href="#md91f1f41e8" x="465.077378" y="355.509683" style="fill: #1e72ff; stroke: #1e72ff"/>
     <use xlink:href="#md91f1f41e8" x="469.796195" y="355.509683" style="fill: #1e72ff; stroke: #1e72ff"/>
     <use xlink:href="#md91f1f41e8" x="474.515011" y="355.509683" style="fill: #1e72ff; stroke: #1e72ff"/>
     <use xlink:href="#md91f1f41e8" x="479.233827" y="355.509683" style="fill: #1e72ff; stroke: #1e72ff"/>
     <use xlink:href="#md91f1f41e8" x="483.952643" y="355.509683" style="fill: #1e72ff; stroke: #1e72ff"/>
     <use xlink:href="#md91f1f41e8" x="488.671459" y="355.509683" style="fill: #1e72ff; stroke: #1e72ff"/>
     <use xlink:href="#md91f1f41e8" x="493.390275" y="355.509683" style="fill: #1e72ff; stroke: #1e72ff"/>
     <use xlink:href="#md91f1f41e8" x="498.109091" y="355.509683" style="fill: #1e72ff; stroke: #1e72ff"/>
    </g>
   </g>
   <g id="PathCollection_2">
    <defs>
     <path id="m8591a4dfce" d="M -2.5 2.5 
L 2.5 2.5 
L 2.5 -2.5 
L -2.5 -2.5 
z
" style="stroke: #1e408b"/>
    </defs>
    <g clip-path="url(#p3b2e0d5faa)">
     <use xlink:href="#m8591a4dfce" x="139.47907" y="363.174545" style="fill: #1e408b; stroke: #1e408b"/>
     <use xlink:href="#m8591a4dfce" x="153.635518" y="363.174545" style="fill: #1e408b; stroke: #1e408b"/>
     <use xlink:href="#m8591a4dfce" x="158.354334" y="363.174545" style="fill: #1e408b; stroke: #1e408b"/>
     <use xlink:href="#m8591a4dfce" x="167.791966" y="363.174545" style="fill: #1e408b; stroke: #1e408b"/>
     <use xlink:href="#m8591a4dfce" x="210.261311" y="363.174545" style="fill: #1e408b; stroke: #1e408b"/>
     <use xlink:href="#m8591a4dfce" x="214.980127" y="363.174545" style="fill: #1e408b; stroke: #1e408b"/>
     <use xlink:href="#m8591a4dfce" x="219.698943" y="363.174545" style="fill: #1e408b; stroke: #1e408b"/>
     <use xlink:href="#m8591a4dfce" x="224.417759" y="363.174545" style="fill: #1e408b; stroke: #1e408b"/>
     <use xlink:href="#m8591a4dfce" x="229.136575" y="363.174545" style="fill: #1e408b; stroke: #1e408b"/>
     <use xlink:href="#m8591a4dfce" x="233.855391" y="363.174545" style="fill: #1e408b; stroke: #1e408b"/>
     <use xlink:href="#m8591a4dfce" x="238.574207" y="363.174545" style="fill: #1e408b; stroke: #1e408b"/>
     <use xlink:href="#m8591a4dfce" x="243.293023" y="363.174545" style="fill: #1e408b; stroke: #1e408b"/>
     <use xlink:href="#m8591a4dfce" x="248.011839" y="363.174545" style="fill: #1e408b; stroke: #1e408b"/>
     <use xlink:href="#m8591a4dfce" x="252.730655" y="363.174545" style="fill: #1e408b; stroke: #1e408b"/>
     <use xlink:href="#m8591a4dfce" x="257.449471" y="363.174545" style="fill: #1e408b; stroke: #1e408b"/>
     <use xlink:href="#m8591a4dfce" x="262.168288" y="363.174545" style="fill: #1e408b; stroke: #1e408b"/>
     <use xlink:href="#m8591a4dfce" x="266.887104" y="363.174545" style="fill: #1e408b; stroke: #1e408b"/>
     <use xlink:href="#m8591a4dfce" x="271.60592" y="363.174545" style="fill: #1e408b; stroke: #1e408b"/>
     <use xlink:href="#m8591a4dfce" x="276.324736" y="363.174545" style="fill: #1e408b; stroke: #1e408b"/>
     <use xlink:href="#m8591a4dfce" x="281.043552" y="363.174545" style="fill: #1e408b; stroke: #1e408b"/>
     <use xlink:href="#m8591a4dfce" x="285.762368" y="363.174545" style="fill: #1e408b; stroke: #1e408b"/>
     <use xlink:href="#m8591a4dfce" x="290.481184" y="363.174545" style="fill: #1e408b; stroke: #1e408b"/>
     <use xlink:href="#m8591a4dfce" x="295.2" y="363.174545" style="fill: #1e408b; stroke: #1e408b"/>
     <use xlink:href="#m8591a4dfce" x="299.918816" y="363.174545" style="fill: #1e408b; stroke: #1e408b"/>
     <use xlink:href="#m8591a4dfce" x="304.637632" y="363.174545" style="fill: #1e408b; stroke: #1e408b"/>
     <use xlink:href="#m8591a4dfce" x="309.356448" y="363.174545" style="fill: #1e408b; stroke: #1e408b"/>
     <use xlink:href="#m8591a4dfce" x="314.075264" y="363.174545" style="fill: #1e408b; stroke: #1e408b"/>
     <use xlink:href="#m8591a4dfce" x="318.79408" y="363.174545" style="fill: #1e408b; stroke: #1e408b"/>
     <use xlink:href="#m8591a4dfce" x="323.512896" y="363.174545" style="fill: #1e408b; stroke: #1e408b"/>
     <use xlink:href="#m8591a4dfce" x="328.231712" y="363.174545" style="fill: #1e408b; stroke: #1e408b"/>
     <use xlink:href="#m8591a4dfce" x="332.950529" y="363.174545" style="fill: #1e408b; stroke: #1e408b"/>
     <use xlink:href="#m8591a4dfce" x="337.669345" y="363.174545" style="fill: #1e408b; stroke: #1e408b"/>
     <use xlink:href="#m8591a4dfce" x="342.388161" y="363.174545" style="fill: #1e408b; stroke: #1e408b"/>
     <use xlink:href="#m8591a4dfce" x="347.106977" y="363.174545" style="fill: #1e408b; stroke: #1e408b"/>
     <use xlink:href="#m8591a4dfce" x="351.825793" y="363.174545" style="fill: #1e408b; stroke: #1e408b"/>
     <use xlink:href="#m8591a4dfce" x="356.544609" y="363.174545" style="fill: #1e408b; stroke: #1e408b"/>
     <use xlink:href="#m8591a4dfce" x="361.263425" y="363.174545" style="fill: #1e408b; stroke: #1e408b"/>
     <use xlink:href="#m8591a4dfce" x="365.982241" y="363.174545" style="fill: #1e408b; stroke: #1e408b"/>
     <use xlink:href="#m8591a4dfce" x="370.701057" y="363.174545" style="fill: #1e408b; stroke: #1e408b"/>
     <use xlink:href="#m8591a4dfce" x="375.419873" y="363.174545" style="fill: #1e408b; stroke: #1e408b"/>
     <use xlink:href="#m8591a4dfce" x="380.138689" y="363.174545" style="fill: #1e408b; stroke: #1e408b"/>
     <use xlink:href="#m8591a4dfce" x="384.857505" y="363.174545" style="fill: #1e408b; stroke: #1e408b"/>
     <use xlink:href="#m8591a4dfce" x="389.576321" y="363.174545" style="fill: #1e408b; stroke: #1e408b"/>
     <use xlink:href="#m8591a4dfce" x="394.295137" y="363.174545" style="fill: #1e408b; stroke: #1e408b"/>
     <use xlink:href="#m8591a4dfce" x="399.013953" y="363.174545" style="fill: #1e408b; stroke: #1e408b"/>
     <use xlink:href="#m8591a4dfce" x="403.73277" y="363.174545" style="fill: #1e408b; stroke: #1e408b"/>
     <use xlink:href="#m8591a4dfce" x="408.451586" y="363.174545" style="fill: #1e408b; stroke: #1e408b"/>
     <use xlink:href="#m8591a4dfce" x="413.170402" y="363.174545" style="fill: #1e408b; stroke: #1e408b"/>
     <use xlink:href="#m8591a4dfce" x="417.889218" y="363.174545" style="fill: #1e408b; stroke: #1e408b"/>
     <use xlink:href="#m8591a4dfce" x="422.608034" y="363.174545" style="fill: #1e408b; stroke: #1e408b"/>
     <use xlink:href="#m8591a4dfce" x="427.32685" y="363.174545" style="fill: #1e408b; stroke: #1e408b"/>
     <use xlink:href="#m8591a4dfce" x="432.045666" y="363.174545" style="fill: #1e408b; stroke: #1e408b"/>
     <use xlink:href="#m8591a4dfce" x="436.764482" y="363.174545" style="fill: #1e408b; stroke: #1e408b"/>
     <use xlink:href="#m8591a4dfce" x="441.483298" y="363.174545" style="fill: #1e408b; stroke: #1e408b"/>
     <use xlink:href="#m8591a4dfce" x="446.202114" y="363.174545" style="fill: #1e408b; stroke: #1e408b"/>
     <use xlink:href="#m8591a4dfce" x="450.92093" y="363.174545" style="fill: #1e408b; stroke: #1e408b"/>
     <use xlink:href="#m8591a4dfce" x="455.639746" y="363.174545" style="fill: #1e408b; stroke: #1e408b"/>
     <use xlink:href="#m8591a4dfce" x="460.358562" y="363.174545" style="fill: #1e408b; stroke: #1e408b"/>
     <use xlink:href="#m8591a4dfce" x="465.077378" y="363.174545" style="fill: #1e408b; stroke: #1e408b"/>
     <use xlink:href="#m8591a4dfce" x="469.796195" y="363.174545" style="fill: #1e408b; stroke: #1e408b"/>
     <use xlink:href="#m8591a4dfce" x="474.515011" y="363.174545" style="fill: #1e408b; stroke: #1e408b"/>
     <use xlink:href="#m8591a4dfce" x="479.233827" y="363.174545" style="fill: #1e408b; stroke: #1e408b"/>
     <use xlink:href="#m8591a4dfce" x="483.952643" y="363.174545" style="fill: #1e408b; stroke: #1e408b"/>
     <use xlink:href="#m8591a4dfce" x="488.671459" y="363.174545" style="fill: #1e408b; stroke: #1e408b"/>
     <use xlink:href="#m8591a4dfce" x="493.390275" y="363.174545" style="fill: #1e408b; stroke: #1e408b"/>
     <use xlink:href="#m8591a4dfce" x="498.109091" y="363.174545" style="fill: #1e408b; stroke: #1e408b"/>
    </g>
   </g>
   <g id="matplotlib.axis_1">
    <g id="xtick_1">
     <g id="line2d_1">
      <defs>
       <path id="m48034b9ba2" d="M 0 0 
L 0 5 
" style="stroke: #000000; stroke-width: 1.5"/>
      </defs>
      <g>
       <use xlink:href="#m48034b9ba2" x="80.493869" y="378" style="stroke: #000000; stroke-width: 1.5"/>
      </g>
     </g>
     <g id="text_1">
      <!-- −250 -->
      <g transform="translate(59.893478 397.897656) scale(0.15 -0.15)">
       <defs>
        <path id="DejaVuSans-2212" d="M 678 2272 
L 4684 2272 
L 4684 1741 
L 678 1741 
L 678 2272 
z
" transform="scale(0.015625)"/>
        <path id="DejaVuSans-32" d="M 1228 531 
L 3431 531 
L 3431 0 
L 469 0 
L 469 531 
Q 828 903 1448 1529 
Q 2069 2156 2228 2338 
Q 2531 2678 2651 2914 
Q 2772 3150 2772 3378 
Q 2772 3750 2511 3984 
Q 2250 4219 1831 4219 
Q 1534 4219 1204 4116 
Q 875 4013 500 3803 
L 500 4441 
Q 881 4594 1212 4672 
Q 1544 4750 1819 4750 
Q 2544 4750 2975 4387 
Q 3406 4025 3406 3419 
Q 3406 3131 3298 2873 
Q 3191 2616 2906 2266 
Q 2828 2175 2409 1742 
Q 1991 1309 1228 531 
z
" transform="scale(0.015625)"/>
        <path id="DejaVuSans-35" d="M 691 4666 
L 3169 4666 
L 3169 4134 
L 1269 4134 
L 1269 2991 
Q 1406 3038 1543 3061 
Q 1681 3084 1819 3084 
Q 2600 3084 3056 2656 
Q 3513 2228 3513 1497 
Q 3513 744 3044 326 
Q 2575 -91 1722 -91 
Q 1428 -91 1123 -41 
Q 819 9 494 109 
L 494 744 
Q 775 591 1075 516 
Q 1375 441 1709 441 
Q 2250 441 2565 725 
Q 2881 1009 2881 1497 
Q 2881 1984 2565 2268 
Q 2250 2553 1709 2553 
Q 1456 2553 1204 2497 
Q 953 2441 691 2322 
L 691 4666 
z
" transform="scale(0.015625)"/>
        <path id="DejaVuSans-30" d="M 2034 4250 
Q 1547 4250 1301 3770 
Q 1056 3291 1056 2328 
Q 1056 1369 1301 889 
Q 1547 409 2034 409 
Q 2525 409 2770 889 
Q 3016 1369 3016 2328 
Q 3016 3291 2770 3770 
Q 2525 4250 2034 4250 
z
M 2034 4750 
Q 2819 4750 3233 4129 
Q 3647 3509 3647 2328 
Q 3647 1150 3233 529 
Q 2819 -91 2034 -91 
Q 1250 -91 836 529 
Q 422 1150 422 2328 
Q 422 3509 836 4129 
Q 1250 4750 2034 4750 
z
" transform="scale(0.015625)"/>
       </defs>
       <use xlink:href="#DejaVuSans-2212"/>
       <use xlink:href="#DejaVuSans-32" x="83.789062"/>
       <use xlink:href="#DejaVuSans-35" x="147.412109"/>
       <use xlink:href="#DejaVuSans-30" x="211.035156"/>
      </g>
     </g>
    </g>
    <g id="xtick_2">
     <g id="line2d_2">
      <g>
       <use xlink:href="#m48034b9ba2" x="139.47907" y="378" style="stroke: #000000; stroke-width: 1.5"/>
      </g>
     </g>
     <g id="text_2">
      <!-- 0 -->
      <g transform="translate(134.707195 397.897656) scale(0.15 -0.15)">
       <use xlink:href="#DejaVuSans-30"/>
      </g>
     </g>
    </g>
    <g id="xtick_3">
     <g id="line2d_3">
      <g>
       <use xlink:href="#m48034b9ba2" x="198.464271" y="378" style="stroke: #000000; stroke-width: 1.5"/>
      </g>
     </g>
     <g id="text_3">
      <!-- 250 -->
      <g transform="translate(184.148646 397.897656) scale(0.15 -0.15)">
       <use xlink:href="#DejaVuSans-32"/>
       <use xlink:href="#DejaVuSans-35" x="63.623047"/>
       <use xlink:href="#DejaVuSans-30" x="127.246094"/>
      </g>
     </g>
    </g>
    <g id="xtick_4">
     <g id="line2d_4">
      <g>
       <use xlink:href="#m48034b9ba2" x="257.449471" y="378" style="stroke: #000000; stroke-width: 1.5"/>
      </g>
     </g>
     <g id="text_4">
      <!-- 500 -->
      <g transform="translate(243.133846 397.897656) scale(0.15 -0.15)">
       <use xlink:href="#DejaVuSans-35"/>
       <use xlink:href="#DejaVuSans-30" x="63.623047"/>
       <use xlink:href="#DejaVuSans-30" x="127.246094"/>
      </g>
     </g>
    </g>
    <g id="xtick_5">
     <g id="line2d_5">
      <g>
       <use xlink:href="#m48034b9ba2" x="316.434672" y="378" style="stroke: #000000; stroke-width: 1.5"/>
      </g>
     </g>
     <g id="text_5">
      <!-- 750 -->
      <g transform="translate(302.119047 397.897656) scale(0.15 -0.15)">
       <defs>
        <path id="DejaVuSans-37" d="M 525 4666 
L 3525 4666 
L 3525 4397 
L 1831 0 
L 1172 0 
L 2766 4134 
L 525 4134 
L 525 4666 
z
" transform="scale(0.015625)"/>
       </defs>
       <use xlink:href="#DejaVuSans-37"/>
       <use xlink:href="#DejaVuSans-35" x="63.623047"/>
       <use xlink:href="#DejaVuSans-30" x="127.246094"/>
      </g>
     </g>
    </g>
    <g id="xtick_6">
     <g id="line2d_6">
      <g>
       <use xlink:href="#m48034b9ba2" x="375.419873" y="378" style="stroke: #000000; stroke-width: 1.5"/>
      </g>
     </g>
     <g id="text_6">
      <!-- 1000 -->
      <g transform="translate(356.332373 397.897656) scale(0.15 -0.15)">
       <defs>
        <path id="DejaVuSans-31" d="M 794 531 
L 1825 531 
L 1825 4091 
L 703 3866 
L 703 4441 
L 1819 4666 
L 2450 4666 
L 2450 531 
L 3481 531 
L 3481 0 
L 794 0 
L 794 531 
z
" transform="scale(0.015625)"/>
       </defs>
       <use xlink:href="#DejaVuSans-31"/>
       <use xlink:href="#DejaVuSans-30" x="63.623047"/>
       <use xlink:href="#DejaVuSans-30" x="127.246094"/>
       <use xlink:href="#DejaVuSans-30" x="190.869141"/>
      </g>
     </g>
    </g>
    <g id="xtick_7">
     <g id="line2d_7">
      <g>
       <use xlink:href="#m48034b9ba2" x="434.405074" y="378" style="stroke: #000000; stroke-width: 1.5"/>
      </g>
     </g>
     <g id="text_7">
      <!-- 1250 -->
      <g transform="translate(415.317574 397.897656) scale(0.15 -0.15)">
       <use xlink:href="#DejaVuSans-31"/>
       <use xlink:href="#DejaVuSans-32" x="63.623047"/>
       <use xlink:href="#DejaVuSans-35" x="127.246094"/>
       <use xlink:href="#DejaVuSans-30" x="190.869141"/>
      </g>
     </g>
    </g>
    <g id="xtick_8">
     <g id="line2d_8">
      <g>
       <use xlink:href="#m48034b9ba2" x="493.390275" y="378" style="stroke: #000000; stroke-width: 1.5"/>
      </g>
     </g>
     <g id="text_8">
      <!-- 1500 -->
      <g transform="translate(474.302775 397.897656) scale(0.15 -0.15)">
       <use xlink:href="#DejaVuSans-31"/>
       <use xlink:href="#DejaVuSans-35" x="63.623047"/>
       <use xlink:href="#DejaVuSans-30" x="127.246094"/>
       <use xlink:href="#DejaVuSans-30" x="190.869141"/>
      </g>
     </g>
    </g>
    <g id="text_9">
     <!-- time -->
     <g transform="translate(278.255859 416.414844) scale(0.15 -0.15)">
      <defs>
       <path id="DejaVuSans-74" d="M 1172 4494 
L 1172 3500 
L 2356 3500 
L 2356 3053 
L 1172 3053 
L 1172 1153 
Q 1172 725 1289 603 
Q 1406 481 1766 481 
L 2356 481 
L 2356 0 
L 1766 0 
Q 1100 0 847 248 
Q 594 497 594 1153 
L 594 3053 
L 172 3053 
L 172 3500 
L 594 3500 
L 594 4494 
L 1172 4494 
z
" transform="scale(0.015625)"/>
       <path id="DejaVuSans-69" d="M 603 3500 
L 1178 3500 
L 1178 0 
L 603 0 
L 603 3500 
z
M 603 4863 
L 1178 4863 
L 1178 4134 
L 603 4134 
L 603 4863 
z
" transform="scale(0.015625)"/>
       <path id="DejaVuSans-6d" d="M 3328 2828 
Q 3544 3216 3844 3400 
Q 4144 3584 4550 3584 
Q 5097 3584 5394 3201 
Q 5691 2819 5691 2113 
L 5691 0 
L 5113 0 
L 5113 2094 
Q 5113 2597 4934 2840 
Q 4756 3084 4391 3084 
Q 3944 3084 3684 2787 
Q 3425 2491 3425 1978 
L 3425 0 
L 2847 0 
L 2847 2094 
Q 2847 2600 2669 2842 
Q 2491 3084 2119 3084 
Q 1678 3084 1418 2786 
Q 1159 2488 1159 1978 
L 1159 0 
L 581 0 
L 581 3500 
L 1159 3500 
L 1159 2956 
Q 1356 3278 1631 3431 
Q 1906 3584 2284 3584 
Q 2666 3584 2933 3390 
Q 3200 3197 3328 2828 
z
" transform="scale(0.015625)"/>
       <path id="DejaVuSans-65" d="M 3597 1894 
L 3597 1613 
L 953 1613 
Q 991 1019 1311 708 
Q 1631 397 2203 397 
Q 2534 397 2845 478 
Q 3156 559 3463 722 
L 3463 178 
Q 3153 47 2828 -22 
Q 2503 -91 2169 -91 
Q 1331 -91 842 396 
Q 353 884 353 1716 
Q 353 2575 817 3079 
Q 1281 3584 2069 3584 
Q 2775 3584 3186 3129 
Q 3597 2675 3597 1894 
z
M 3022 2063 
Q 3016 2534 2758 2815 
Q 2500 3097 2075 3097 
Q 1594 3097 1305 2825 
Q 1016 2553 972 2059 
L 3022 2063 
z
" transform="scale(0.015625)"/>
      </defs>
      <use xlink:href="#DejaVuSans-74"/>
      <use xlink:href="#DejaVuSans-69" x="39.208984"/>
      <use xlink:href="#DejaVuSans-6d" x="66.992188"/>
      <use xlink:href="#DejaVuSans-65" x="164.404297"/>
     </g>
    </g>
   </g>
   <g id="matplotlib.axis_2">
    <g id="ytick_1">
     <g id="line2d_9">
      <defs>
       <path id="m0ba3b0e9b8" d="M 0 0 
L -5 0 
" style="stroke: #000000; stroke-width: 1.5"/>
      </defs>
      <g>
       <use xlink:href="#m0ba3b0e9b8" x="72" y="341.389923" style="stroke: #000000; stroke-width: 1.5"/>
      </g>
     </g>
     <g id="text_10">
      <!-- 0.00 -->
      <g transform="translate(30.101562 347.088752) scale(0.15 -0.15)">
       <defs>
        <path id="DejaVuSans-2e" d="M 684 794 
L 1344 794 
L 1344 0 
L 684 0 
L 684 794 
z
" transform="scale(0.015625)"/>
       </defs>
       <use xlink:href="#DejaVuSans-30"/>
       <use xlink:href="#DejaVuSans-2e" x="63.623047"/>
       <use xlink:href="#DejaVuSans-30" x="95.410156"/>
       <use xlink:href="#DejaVuSans-30" x="159.033203"/>
      </g>
     </g>
    </g>
    <g id="ytick_2">
     <g id="line2d_10">
      <g>
       <use xlink:href="#m0ba3b0e9b8" x="72" y="222.021718" style="stroke: #000000; stroke-width: 1.5"/>
      </g>
     </g>
     <g id="text_11">
      <!-- 0.15 -->
      <g transform="translate(30.101562 227.720546) scale(0.15 -0.15)">
       <use xlink:href="#DejaVuSans-30"/>
       <use xlink:href="#DejaVuSans-2e" x="63.623047"/>
       <use xlink:href="#DejaVuSans-31" x="95.410156"/>
       <use xlink:href="#DejaVuSans-35" x="159.033203"/>
      </g>
     </g>
    </g>
    <g id="ytick_3">
     <g id="line2d_11">
      <g>
       <use xlink:href="#m0ba3b0e9b8" x="72" y="102.653512" style="stroke: #000000; stroke-width: 1.5"/>
      </g>
     </g>
     <g id="text_12">
      <!-- 0.30 -->
      <g transform="translate(30.101562 108.35234) scale(0.15 -0.15)">
       <defs>
        <path id="DejaVuSans-33" d="M 2597 2516 
Q 3050 2419 3304 2112 
Q 3559 1806 3559 1356 
Q 3559 666 3084 287 
Q 2609 -91 1734 -91 
Q 1441 -91 1130 -33 
Q 819 25 488 141 
L 488 750 
Q 750 597 1062 519 
Q 1375 441 1716 441 
Q 2309 441 2620 675 
Q 2931 909 2931 1356 
Q 2931 1769 2642 2001 
Q 2353 2234 1838 2234 
L 1294 2234 
L 1294 2753 
L 1863 2753 
Q 2328 2753 2575 2939 
Q 2822 3125 2822 3475 
Q 2822 3834 2567 4026 
Q 2313 4219 1838 4219 
Q 1578 4219 1281 4162 
Q 984 4106 628 3988 
L 628 4550 
Q 988 4650 1302 4700 
Q 1616 4750 1894 4750 
Q 2613 4750 3031 4423 
Q 3450 4097 3450 3541 
Q 3450 3153 3228 2886 
Q 3006 2619 2597 2516 
z
" transform="scale(0.015625)"/>
       </defs>
       <use xlink:href="#DejaVuSans-30"/>
       <use xlink:href="#DejaVuSans-2e" x="63.623047"/>
       <use xlink:href="#DejaVuSans-33" x="95.410156"/>
       <use xlink:href="#DejaVuSans-30" x="159.033203"/>
      </g>
     </g>
    </g>
    <g id="text_13">
     <!-- firing rate -->
     <g transform="translate(22.982031 251.943047) rotate(-90) scale(0.15 -0.15)">
      <defs>
       <path id="DejaVuSans-66" d="M 2375 4863 
L 2375 4384 
L 1825 4384 
Q 1516 4384 1395 4259 
Q 1275 4134 1275 3809 
L 1275 3500 
L 2222 3500 
L 2222 3053 
L 1275 3053 
L 1275 0 
L 697 0 
L 697 3053 
L 147 3053 
L 147 3500 
L 697 3500 
L 697 3744 
Q 697 4328 969 4595 
Q 1241 4863 1831 4863 
L 2375 4863 
z
" transform="scale(0.015625)"/>
       <path id="DejaVuSans-72" d="M 2631 2963 
Q 2534 3019 2420 3045 
Q 2306 3072 2169 3072 
Q 1681 3072 1420 2755 
Q 1159 2438 1159 1844 
L 1159 0 
L 581 0 
L 581 3500 
L 1159 3500 
L 1159 2956 
Q 1341 3275 1631 3429 
Q 1922 3584 2338 3584 
Q 2397 3584 2469 3576 
Q 2541 3569 2628 3553 
L 2631 2963 
z
" transform="scale(0.015625)"/>
       <path id="DejaVuSans-6e" d="M 3513 2113 
L 3513 0 
L 2938 0 
L 2938 2094 
Q 2938 2591 2744 2837 
Q 2550 3084 2163 3084 
Q 1697 3084 1428 2787 
Q 1159 2491 1159 1978 
L 1159 0 
L 581 0 
L 581 3500 
L 1159 3500 
L 1159 2956 
Q 1366 3272 1645 3428 
Q 1925 3584 2291 3584 
Q 2894 3584 3203 3211 
Q 3513 2838 3513 2113 
z
" transform="scale(0.015625)"/>
       <path id="DejaVuSans-67" d="M 2906 1791 
Q 2906 2416 2648 2759 
Q 2391 3103 1925 3103 
Q 1463 3103 1205 2759 
Q 947 2416 947 1791 
Q 947 1169 1205 825 
Q 1463 481 1925 481 
Q 2391 481 2648 825 
Q 2906 1169 2906 1791 
z
M 3481 434 
Q 3481 -459 3084 -895 
Q 2688 -1331 1869 -1331 
Q 1566 -1331 1297 -1286 
Q 1028 -1241 775 -1147 
L 775 -588 
Q 1028 -725 1275 -790 
Q 1522 -856 1778 -856 
Q 2344 -856 2625 -561 
Q 2906 -266 2906 331 
L 2906 616 
Q 2728 306 2450 153 
Q 2172 0 1784 0 
Q 1141 0 747 490 
Q 353 981 353 1791 
Q 353 2603 747 3093 
Q 1141 3584 1784 3584 
Q 2172 3584 2450 3431 
Q 2728 3278 2906 2969 
L 2906 3500 
L 3481 3500 
L 3481 434 
z
" transform="scale(0.015625)"/>
       <path id="DejaVuSans-20" transform="scale(0.015625)"/>
       <path id="DejaVuSans-61" d="M 2194 1759 
Q 1497 1759 1228 1600 
Q 959 1441 959 1056 
Q 959 750 1161 570 
Q 1363 391 1709 391 
Q 2188 391 2477 730 
Q 2766 1069 2766 1631 
L 2766 1759 
L 2194 1759 
z
M 3341 1997 
L 3341 0 
L 2766 0 
L 2766 531 
Q 2569 213 2275 61 
Q 1981 -91 1556 -91 
Q 1019 -91 701 211 
Q 384 513 384 1019 
Q 384 1609 779 1909 
Q 1175 2209 1959 2209 
L 2766 2209 
L 2766 2266 
Q 2766 2663 2505 2880 
Q 2244 3097 1772 3097 
Q 1472 3097 1187 3025 
Q 903 2953 641 2809 
L 641 3341 
Q 956 3463 1253 3523 
Q 1550 3584 1831 3584 
Q 2591 3584 2966 3190 
Q 3341 2797 3341 1997 
z
" transform="scale(0.015625)"/>
      </defs>
      <use xlink:href="#DejaVuSans-66"/>
      <use xlink:href="#DejaVuSans-69" x="35.205078"/>
      <use xlink:href="#DejaVuSans-72" x="62.988281"/>
      <use xlink:href="#DejaVuSans-69" x="104.101562"/>
      <use xlink:href="#DejaVuSans-6e" x="131.884766"/>
      <use xlink:href="#DejaVuSans-67" x="195.263672"/>
      <use xlink:href="#DejaVuSans-20" x="258.740234"/>
      <use xlink:href="#DejaVuSans-72" x="290.527344"/>
      <use xlink:href="#DejaVuSans-61" x="331.640625"/>
      <use xlink:href="#DejaVuSans-74" x="392.919922"/>
      <use xlink:href="#DejaVuSans-65" x="432.128906"/>
     </g>
    </g>
   </g>
   <g id="line2d_12">
    <path d="M 92.290909 340.990449 
L 97.009725 339.835882 
L 101.728541 341.633084 
L 106.447357 342.115562 
L 111.166173 341.435918 
L 115.884989 340.982076 
L 120.603805 340.793975 
L 125.322622 341.658891 
L 130.041438 341.619556 
L 134.760254 342.734912 
L 139.47907 339.242079 
L 144.197886 336.882248 
L 148.916702 335.913016 
L 153.635518 339.500679 
L 158.354334 340.418089 
L 163.07315 341.278969 
L 167.791966 338.016575 
L 172.510782 337.017878 
L 177.229598 331.951765 
L 181.948414 330.711142 
L 186.66723 328.323274 
L 191.386047 326.218504 
L 196.104863 324.189456 
L 200.823679 323.17093 
L 205.542495 321.5605 
L 210.261311 320.661671 
L 214.980127 320.149813 
L 219.698943 318.535427 
L 224.417759 316.683925 
L 229.136575 313.789296 
L 233.855391 310.076522 
L 238.574207 307.51995 
L 243.293023 305.134484 
L 248.011839 300.213969 
L 252.730655 295.279498 
L 257.449471 289.51649 
L 262.168288 284.372952 
L 266.887104 280.231854 
L 271.60592 276.385369 
L 276.324736 273.080969 
L 281.043552 271.287431 
L 285.762368 268.443404 
L 290.481184 266.194089 
L 295.2 262.985876 
L 299.918816 258.605634 
L 304.637632 255.265581 
L 309.356448 252.824282 
L 314.075264 247.792402 
L 318.79408 242.08419 
L 323.512896 237.758099 
L 328.231712 238.268459 
L 332.950529 238.353744 
L 337.669345 232.046412 
L 342.388161 225.447552 
L 347.106977 219.600253 
L 351.825793 218.005056 
L 356.544609 223.338141 
L 361.263425 222.7719 
L 365.982241 219.693197 
L 370.701057 218.33332 
L 375.419873 221.621544 
L 380.138689 210.926326 
L 384.857505 194.204406 
L 389.576321 193.139783 
L 394.295137 196.669622 
L 399.013953 197.316706 
L 403.73277 196.98084 
L 408.451586 196.196265 
L 413.170402 192.324952 
L 417.889218 189.114232 
L 422.608034 186.590934 
L 427.32685 185.177214 
L 432.045666 184.116435 
L 436.764482 183.535883 
L 441.483298 181.939032 
L 446.202114 180.756168 
L 450.92093 179.174371 
L 455.639746 178.005677 
L 460.358562 178.013394 
L 465.077378 177.317054 
L 469.796195 177.385631 
L 474.515011 177.285148 
L 479.233827 176.67803 
L 483.952643 176.133813 
L 488.671459 175.811081 
L 493.390275 174.734792 
L 498.109091 174.714766 
" clip-path="url(#p3b2e0d5faa)" style="fill: none; stroke: #1e72ff; stroke-width: 2; stroke-linecap: square"/>
   </g>
   <g id="line2d_13">
    <path d="M 92.290909 341.172829 
L 97.009725 341.215784 
L 101.728541 341.236366 
L 106.447357 341.569903 
L 111.166173 341.26891 
L 115.884989 341.127307 
L 120.603805 341.436625 
L 125.322622 341.304405 
L 130.041438 341.274112 
L 134.760254 341.194324 
L 139.47907 337.521667 
L 144.197886 336.286907 
L 148.916702 335.866786 
L 153.635518 335.713185 
L 158.354334 335.178524 
L 163.07315 334.576262 
L 167.791966 333.735244 
L 172.510782 332.662957 
L 177.229598 331.612109 
L 181.948414 330.919959 
L 186.66723 330.427034 
L 191.386047 329.755451 
L 196.104863 328.71985 
L 200.823679 328.606571 
L 205.542495 329.582887 
L 210.261311 329.900006 
L 214.980127 329.213847 
L 219.698943 329.117726 
L 224.417759 328.981192 
L 229.136575 329.893182 
L 233.855391 330.363767 
L 238.574207 329.69095 
L 243.293023 329.301303 
L 248.011839 329.034667 
L 252.730655 329.101238 
L 257.449471 329.04823 
L 262.168288 328.684615 
L 266.887104 328.548927 
L 271.60592 329.177324 
L 276.324736 329.719937 
L 281.043552 329.828968 
L 285.762368 329.764156 
L 290.481184 329.785183 
L 295.2 329.086836 
L 299.918816 328.285915 
L 304.637632 327.97806 
L 309.356448 328.597243 
L 314.075264 328.69244 
L 318.79408 328.668223 
L 323.512896 328.734915 
L 328.231712 328.947319 
L 332.950529 328.297065 
L 337.669345 327.18038 
L 342.388161 326.797193 
L 347.106977 327.038468 
L 351.825793 327.831434 
L 356.544609 328.075556 
L 361.263425 327.995568 
L 365.982241 328.380346 
L 370.701057 330.777612 
L 375.419873 335.443894 
L 380.138689 335.690217 
L 384.857505 335.301623 
L 389.576321 335.517292 
L 394.295137 335.712155 
L 399.013953 336.087823 
L 403.73277 335.857175 
L 408.451586 335.603365 
L 413.170402 335.64038 
L 417.889218 335.913223 
L 422.608034 335.704047 
L 427.32685 335.811378 
L 432.045666 335.564708 
L 436.764482 335.592596 
L 441.483298 335.658828 
L 446.202114 335.757684 
L 450.92093 335.832273 
L 455.639746 335.855926 
L 460.358562 335.700726 
L 465.077378 335.792855 
L 469.796195 335.729603 
L 474.515011 335.862682 
L 479.233827 335.703832 
L 483.952643 335.943539 
L 488.671459 335.977263 
L 493.390275 336.215616 
L 498.109091 335.682076 
" clip-path="url(#p3b2e0d5faa)" style="fill: none; stroke-dasharray: 5.55,2.4; stroke-dashoffset: 0; stroke: #1e72ff; stroke-opacity: 0.8; stroke-width: 1.5"/>
   </g>
   <g id="line2d_14">
    <path d="M 92.290909 338.504489 
L 97.009725 337.375438 
L 101.728541 336.143067 
L 106.447357 332.083734 
L 111.166173 330.607478 
L 115.884989 326.855483 
L 120.603805 324.126832 
L 125.322622 321.593317 
L 130.041438 317.367095 
L 134.760254 312.119825 
L 139.47907 310.183435 
L 144.197886 305.420532 
L 148.916702 305.213777 
L 153.635518 306.858318 
L 158.354334 306.656161 
L 163.07315 307.264262 
L 167.791966 311.543162 
L 172.510782 311.414579 
L 177.229598 313.103652 
L 181.948414 314.569568 
L 186.66723 317.000119 
L 191.386047 317.821465 
L 196.104863 316.980116 
L 200.823679 317.448898 
L 205.542495 316.161781 
L 210.261311 314.67741 
L 214.980127 313.494345 
L 219.698943 311.014493 
L 224.417759 308.72405 
L 229.136575 304.924395 
L 233.855391 300.476529 
L 238.574207 295.666836 
L 243.293023 291.322183 
L 248.011839 285.618167 
L 252.730655 279.575351 
L 257.449471 273.488489 
L 262.168288 266.599558 
L 266.887104 260.261741 
L 271.60592 253.68642 
L 276.324736 247.593906 
L 281.043552 241.404686 
L 285.762368 235.470839 
L 290.481184 228.957453 
L 295.2 223.239398 
L 299.918816 218.03176 
L 304.637632 213.313614 
L 309.356448 208.168294 
L 314.075264 204.118258 
L 318.79408 199.061483 
L 323.512896 193.661023 
L 328.231712 189.726021 
L 332.950529 185.310635 
L 337.669345 181.239196 
L 342.388161 177.808871 
L 347.106977 173.075974 
L 351.825793 168.849841 
L 356.544609 164.287872 
L 361.263425 161.321624 
L 365.982241 157.658493 
L 370.701057 153.58517 
L 375.419873 151.708558 
L 380.138689 152.74099 
L 384.857505 153.186477 
L 389.576321 150.441136 
L 394.295137 145.318562 
L 399.013953 139.988062 
L 403.73277 135.22656 
L 408.451586 130.348366 
L 413.170402 126.13819 
L 417.889218 121.729678 
L 422.608034 118.153912 
L 427.32685 115.256313 
L 432.045666 111.948344 
L 436.764482 108.995521 
L 441.483298 106.871765 
L 446.202114 103.116319 
L 450.92093 101.093817 
L 455.639746 99.366595 
L 460.358562 97.292802 
L 465.077378 96.196684 
L 469.796195 94.498953 
L 474.515011 92.603289 
L 479.233827 90.153601 
L 483.952643 89.039516 
L 488.671459 87.639416 
L 493.390275 87.23949 
L 498.109091 87.755385 
" clip-path="url(#p3b2e0d5faa)" style="fill: none; stroke: #1e408b; stroke-width: 2; stroke-linecap: square"/>
   </g>
   <g id="line2d_15">
    <path d="M 92.290909 338.929789 
L 97.009725 336.596227 
L 101.728541 334.570393 
L 106.447357 331.666463 
L 111.166173 328.710384 
L 115.884989 325.34703 
L 120.603805 321.951961 
L 125.322622 317.740605 
L 130.041438 313.662581 
L 134.760254 308.262015 
L 139.47907 303.733175 
L 144.197886 301.2046 
L 148.916702 300.724348 
L 153.635518 301.105433 
L 158.354334 302.828153 
L 163.07315 304.392574 
L 167.791966 306.054026 
L 172.510782 308.267339 
L 177.229598 310.601208 
L 181.948414 312.55921 
L 186.66723 314.499201 
L 191.386047 315.958483 
L 196.104863 317.552057 
L 200.823679 318.512453 
L 205.542495 319.469615 
L 210.261311 320.304551 
L 214.980127 320.890545 
L 219.698943 321.349702 
L 224.417759 322.035476 
L 229.136575 322.497469 
L 233.855391 322.754665 
L 238.574207 322.96689 
L 243.293023 323.195891 
L 248.011839 323.462217 
L 252.730655 323.377651 
L 257.449471 323.341509 
L 262.168288 323.340237 
L 266.887104 323.208709 
L 271.60592 323.368896 
L 276.324736 323.430253 
L 281.043552 323.471202 
L 285.762368 323.455432 
L 290.481184 323.497534 
L 295.2 323.537072 
L 299.918816 323.511147 
L 304.637632 323.51661 
L 309.356448 323.31399 
L 314.075264 323.362638 
L 318.79408 323.489504 
L 323.512896 323.643058 
L 328.231712 323.804111 
L 332.950529 323.838263 
L 337.669345 324.030846 
L 342.388161 324.323027 
L 347.106977 324.552572 
L 351.825793 324.758809 
L 356.544609 325.188094 
L 361.263425 325.491021 
L 365.982241 325.795102 
L 370.701057 326.409844 
L 375.419873 327.10796 
L 380.138689 327.798464 
L 384.857505 328.603483 
L 389.576321 329.043304 
L 394.295137 329.391423 
L 399.013953 329.683359 
L 403.73277 329.93216 
L 408.451586 330.08823 
L 413.170402 330.324699 
L 417.889218 330.427144 
L 422.608034 330.414423 
L 427.32685 330.51203 
L 432.045666 330.819648 
L 436.764482 330.979712 
L 441.483298 330.928139 
L 446.202114 330.859017 
L 450.92093 330.966589 
L 455.639746 330.917731 
L 460.358562 330.979357 
L 465.077378 330.98815 
L 469.796195 331.102752 
L 474.515011 331.276922 
L 479.233827 331.261334 
L 483.952643 331.332988 
L 488.671459 331.371369 
L 493.390275 331.470401 
L 498.109091 331.499379 
" clip-path="url(#p3b2e0d5faa)" style="fill: none; stroke-dasharray: 5.55,2.4; stroke-dashoffset: 0; stroke: #1e408b; stroke-opacity: 0.8; stroke-width: 1.5"/>
   </g>
   <g id="line2d_16">
    <path d="M 139.47907 378 
L 139.47907 51.84 
" clip-path="url(#p3b2e0d5faa)" style="fill: none; stroke-dasharray: 5.55,2.4; stroke-dashoffset: 0; stroke: #808080; stroke-opacity: 0.7; stroke-width: 1.5"/>
   </g>
   <g id="line2d_17">
    <path d="M 375.419873 378 
L 375.419873 51.84 
" clip-path="url(#p3b2e0d5faa)" style="fill: none; stroke-dasharray: 5.55,2.4; stroke-dashoffset: 0; stroke: #808080; stroke-opacity: 0.7; stroke-width: 1.5"/>
   </g>
   <g id="patch_3">
    <path d="M 72 378 
L 72 51.84 
" style="fill: none; stroke: #000000; stroke-width: 1.5; stroke-linejoin: miter; stroke-linecap: square"/>
   </g>
   <g id="patch_4">
    <path d="M 72 378 
L 518.4 378 
" style="fill: none; stroke: #000000; stroke-width: 1.5; stroke-linejoin: miter; stroke-linecap: square"/>
   </g>
   <g id="text_14">
    <!-- L1_sactemporal -->
    <g transform="translate(229.142578 45.84) scale(0.15 -0.15)">
     <defs>
      <path id="DejaVuSans-Bold-4c" d="M 588 4666 
L 1791 4666 
L 1791 909 
L 3903 909 
L 3903 0 
L 588 0 
L 588 4666 
z
" transform="scale(0.015625)"/>
      <path id="DejaVuSans-Bold-31" d="M 750 831 
L 1813 831 
L 1813 3847 
L 722 3622 
L 722 4441 
L 1806 4666 
L 2950 4666 
L 2950 831 
L 4013 831 
L 4013 0 
L 750 0 
L 750 831 
z
" transform="scale(0.015625)"/>
      <path id="DejaVuSans-Bold-5f" d="M 3200 -916 
L 3200 -1509 
L 0 -1509 
L 0 -916 
L 3200 -916 
z
" transform="scale(0.015625)"/>
      <path id="DejaVuSans-Bold-73" d="M 3272 3391 
L 3272 2541 
Q 2913 2691 2578 2766 
Q 2244 2841 1947 2841 
Q 1628 2841 1473 2761 
Q 1319 2681 1319 2516 
Q 1319 2381 1436 2309 
Q 1553 2238 1856 2203 
L 2053 2175 
Q 2913 2066 3209 1816 
Q 3506 1566 3506 1031 
Q 3506 472 3093 190 
Q 2681 -91 1863 -91 
Q 1516 -91 1145 -36 
Q 775 19 384 128 
L 384 978 
Q 719 816 1070 734 
Q 1422 653 1784 653 
Q 2113 653 2278 743 
Q 2444 834 2444 1013 
Q 2444 1163 2330 1236 
Q 2216 1309 1875 1350 
L 1678 1375 
Q 931 1469 631 1722 
Q 331 1975 331 2491 
Q 331 3047 712 3315 
Q 1094 3584 1881 3584 
Q 2191 3584 2531 3537 
Q 2872 3491 3272 3391 
z
" transform="scale(0.015625)"/>
      <path id="DejaVuSans-Bold-61" d="M 2106 1575 
Q 1756 1575 1579 1456 
Q 1403 1338 1403 1106 
Q 1403 894 1545 773 
Q 1688 653 1941 653 
Q 2256 653 2472 879 
Q 2688 1106 2688 1447 
L 2688 1575 
L 2106 1575 
z
M 3816 1997 
L 3816 0 
L 2688 0 
L 2688 519 
Q 2463 200 2181 54 
Q 1900 -91 1497 -91 
Q 953 -91 614 226 
Q 275 544 275 1050 
Q 275 1666 698 1953 
Q 1122 2241 2028 2241 
L 2688 2241 
L 2688 2328 
Q 2688 2594 2478 2717 
Q 2269 2841 1825 2841 
Q 1466 2841 1156 2769 
Q 847 2697 581 2553 
L 581 3406 
Q 941 3494 1303 3539 
Q 1666 3584 2028 3584 
Q 2975 3584 3395 3211 
Q 3816 2838 3816 1997 
z
" transform="scale(0.015625)"/>
      <path id="DejaVuSans-Bold-63" d="M 3366 3391 
L 3366 2478 
Q 3138 2634 2908 2709 
Q 2678 2784 2431 2784 
Q 1963 2784 1702 2511 
Q 1441 2238 1441 1747 
Q 1441 1256 1702 982 
Q 1963 709 2431 709 
Q 2694 709 2930 787 
Q 3166 866 3366 1019 
L 3366 103 
Q 3103 6 2833 -42 
Q 2563 -91 2291 -91 
Q 1344 -91 809 395 
Q 275 881 275 1747 
Q 275 2613 809 3098 
Q 1344 3584 2291 3584 
Q 2566 3584 2833 3536 
Q 3100 3488 3366 3391 
z
" transform="scale(0.015625)"/>
      <path id="DejaVuSans-Bold-74" d="M 1759 4494 
L 1759 3500 
L 2913 3500 
L 2913 2700 
L 1759 2700 
L 1759 1216 
Q 1759 972 1856 886 
Q 1953 800 2241 800 
L 2816 800 
L 2816 0 
L 1856 0 
Q 1194 0 917 276 
Q 641 553 641 1216 
L 641 2700 
L 84 2700 
L 84 3500 
L 641 3500 
L 641 4494 
L 1759 4494 
z
" transform="scale(0.015625)"/>
      <path id="DejaVuSans-Bold-65" d="M 4031 1759 
L 4031 1441 
L 1416 1441 
Q 1456 1047 1700 850 
Q 1944 653 2381 653 
Q 2734 653 3104 758 
Q 3475 863 3866 1075 
L 3866 213 
Q 3469 63 3072 -14 
Q 2675 -91 2278 -91 
Q 1328 -91 801 392 
Q 275 875 275 1747 
Q 275 2603 792 3093 
Q 1309 3584 2216 3584 
Q 3041 3584 3536 3087 
Q 4031 2591 4031 1759 
z
M 2881 2131 
Q 2881 2450 2695 2645 
Q 2509 2841 2209 2841 
Q 1884 2841 1681 2658 
Q 1478 2475 1428 2131 
L 2881 2131 
z
" transform="scale(0.015625)"/>
      <path id="DejaVuSans-Bold-6d" d="M 3781 2919 
Q 3994 3244 4286 3414 
Q 4578 3584 4928 3584 
Q 5531 3584 5847 3212 
Q 6163 2841 6163 2131 
L 6163 0 
L 5038 0 
L 5038 1825 
Q 5041 1866 5042 1909 
Q 5044 1953 5044 2034 
Q 5044 2406 4934 2573 
Q 4825 2741 4581 2741 
Q 4263 2741 4089 2478 
Q 3916 2216 3909 1719 
L 3909 0 
L 2784 0 
L 2784 1825 
Q 2784 2406 2684 2573 
Q 2584 2741 2328 2741 
Q 2006 2741 1831 2477 
Q 1656 2213 1656 1722 
L 1656 0 
L 531 0 
L 531 3500 
L 1656 3500 
L 1656 2988 
Q 1863 3284 2130 3434 
Q 2397 3584 2719 3584 
Q 3081 3584 3359 3409 
Q 3638 3234 3781 2919 
z
" transform="scale(0.015625)"/>
      <path id="DejaVuSans-Bold-70" d="M 1656 506 
L 1656 -1331 
L 538 -1331 
L 538 3500 
L 1656 3500 
L 1656 2988 
Q 1888 3294 2169 3439 
Q 2450 3584 2816 3584 
Q 3463 3584 3878 3070 
Q 4294 2556 4294 1747 
Q 4294 938 3878 423 
Q 3463 -91 2816 -91 
Q 2450 -91 2169 54 
Q 1888 200 1656 506 
z
M 2400 2772 
Q 2041 2772 1848 2508 
Q 1656 2244 1656 1747 
Q 1656 1250 1848 986 
Q 2041 722 2400 722 
Q 2759 722 2948 984 
Q 3138 1247 3138 1747 
Q 3138 2247 2948 2509 
Q 2759 2772 2400 2772 
z
" transform="scale(0.015625)"/>
      <path id="DejaVuSans-Bold-6f" d="M 2203 2784 
Q 1831 2784 1636 2517 
Q 1441 2250 1441 1747 
Q 1441 1244 1636 976 
Q 1831 709 2203 709 
Q 2569 709 2762 976 
Q 2956 1244 2956 1747 
Q 2956 2250 2762 2517 
Q 2569 2784 2203 2784 
z
M 2203 3584 
Q 3106 3584 3614 3096 
Q 4122 2609 4122 1747 
Q 4122 884 3614 396 
Q 3106 -91 2203 -91 
Q 1297 -91 786 396 
Q 275 884 275 1747 
Q 275 2609 786 3096 
Q 1297 3584 2203 3584 
z
" transform="scale(0.015625)"/>
      <path id="DejaVuSans-Bold-72" d="M 3138 2547 
Q 2991 2616 2845 2648 
Q 2700 2681 2553 2681 
Q 2122 2681 1889 2404 
Q 1656 2128 1656 1613 
L 1656 0 
L 538 0 
L 538 3500 
L 1656 3500 
L 1656 2925 
Q 1872 3269 2151 3426 
Q 2431 3584 2822 3584 
Q 2878 3584 2943 3579 
Q 3009 3575 3134 3559 
L 3138 2547 
z
" transform="scale(0.015625)"/>
      <path id="DejaVuSans-Bold-6c" d="M 538 4863 
L 1656 4863 
L 1656 0 
L 538 0 
L 538 4863 
z
" transform="scale(0.015625)"/>
     </defs>
     <use xlink:href="#DejaVuSans-Bold-4c"/>
     <use xlink:href="#DejaVuSans-Bold-31" x="63.720703"/>
     <use xlink:href="#DejaVuSans-Bold-5f" x="133.300781"/>
     <use xlink:href="#DejaVuSans-Bold-73" x="183.300781"/>
     <use xlink:href="#DejaVuSans-Bold-61" x="242.822266"/>
     <use xlink:href="#DejaVuSans-Bold-63" x="310.302734"/>
     <use xlink:href="#DejaVuSans-Bold-74" x="369.580078"/>
     <use xlink:href="#DejaVuSans-Bold-65" x="417.382812"/>
     <use xlink:href="#DejaVuSans-Bold-6d" x="485.205078"/>
     <use xlink:href="#DejaVuSans-Bold-70" x="589.404297"/>
     <use xlink:href="#DejaVuSans-Bold-6f" x="660.986328"/>
     <use xlink:href="#DejaVuSans-Bold-72" x="729.6875"/>
     <use xlink:href="#DejaVuSans-Bold-61" x="779.003906"/>
     <use xlink:href="#DejaVuSans-Bold-6c" x="846.484375"/>
    </g>
   </g>
  </g>
 </g>
 <defs>
  <clipPath id="p3b2e0d5faa">
   <rect x="72" y="51.84" width="446.4" height="326.16"/>
  </clipPath>
 </defs>
</svg>
