<?xml version="1.0" encoding="utf-8" standalone="no"?>
<!DOCTYPE svg PUBLIC "-//W3C//DTD SVG 1.1//EN"
  "http://www.w3.org/Graphics/SVG/1.1/DTD/svg11.dtd">
<svg xmlns:xlink="http://www.w3.org/1999/xlink" width="720pt" height="432pt" viewBox="0 0 720 432" xmlns="http://www.w3.org/2000/svg" version="1.1">
 <metadata>
  <rdf:RDF xmlns:dc="http://purl.org/dc/elements/1.1/" xmlns:cc="http://creativecommons.org/ns#" xmlns:rdf="http://www.w3.org/1999/02/22-rdf-syntax-ns#">
   <cc:Work>
    <dc:type rdf:resource="http://purl.org/dc/dcmitype/StillImage"/>
    <dc:date>2025-09-21T18:37:54.682638</dc:date>
    <dc:format>image/svg+xml</dc:format>
    <dc:creator>
     <cc:Agent>
      <dc:title>Matplotlib v3.9.4, https://matplotlib.org/</dc:title>
     </cc:Agent>
    </dc:creator>
   </cc:Work>
  </rdf:RDF>
 </metadata>
 <defs>
  <style type="text/css">*{stroke-linejoin: round; stroke-linecap: butt}</style>
 </defs>
 <g id="figure_1">
  <g id="patch_1">
   <path d="M 0 432 
L 720 432 
L 720 0 
L 0 0 
z
" style="fill: #ffffff"/>
  </g>
  <g id="axes_1">
   <g id="patch_2">
    <path d="M 78.46 377.54 
L 607.44 377.54 
L 607.44 26.96 
L 78.46 26.96 
L 78.46 377.54 
z
" style="fill: none"/>
   </g>
   <g id="matplotlib.axis_1">
    <g id="xtick_1">
     <g id="text_1">
      <!-- −500 -->
      <g style="fill: #262626" transform="translate(80.803058 397.776719) scale(0.15 -0.15)">
       <defs>
        <path id="ArialMT-2212" d="M 3381 1997 
L 356 1997 
L 356 2522 
L 3381 2522 
L 3381 1997 
z
" transform="scale(0.015625)"/>
        <path id="ArialMT-35" d="M 266 1200 
L 856 1250 
Q 922 819 1161 601 
Q 1400 384 1738 384 
Q 2144 384 2425 690 
Q 2706 997 2706 1503 
Q 2706 1984 2436 2262 
Q 2166 2541 1728 2541 
Q 1456 2541 1237 2417 
Q 1019 2294 894 2097 
L 366 2166 
L 809 4519 
L 3088 4519 
L 3088 3981 
L 1259 3981 
L 1013 2750 
Q 1425 3038 1878 3038 
Q 2478 3038 2890 2622 
Q 3303 2206 3303 1553 
Q 3303 931 2941 478 
Q 2500 -78 1738 -78 
Q 1113 -78 717 272 
Q 322 622 266 1200 
z
" transform="scale(0.015625)"/>
        <path id="ArialMT-30" d="M 266 2259 
Q 266 3072 433 3567 
Q 600 4063 929 4331 
Q 1259 4600 1759 4600 
Q 2128 4600 2406 4451 
Q 2684 4303 2865 4023 
Q 3047 3744 3150 3342 
Q 3253 2941 3253 2259 
Q 3253 1453 3087 958 
Q 2922 463 2592 192 
Q 2263 -78 1759 -78 
Q 1097 -78 719 397 
Q 266 969 266 2259 
z
M 844 2259 
Q 844 1131 1108 757 
Q 1372 384 1759 384 
Q 2147 384 2411 759 
Q 2675 1134 2675 2259 
Q 2675 3391 2411 3762 
Q 2147 4134 1753 4134 
Q 1366 4134 1134 3806 
Q 844 3388 844 2259 
z
" transform="scale(0.015625)"/>
       </defs>
       <use xlink:href="#ArialMT-2212"/>
       <use xlink:href="#ArialMT-35" x="58.398438"/>
       <use xlink:href="#ArialMT-30" x="114.013672"/>
       <use xlink:href="#ArialMT-30" x="169.628906"/>
      </g>
     </g>
    </g>
    <g id="xtick_2">
     <g id="text_2">
      <!-- −250 -->
      <g style="fill: #262626" transform="translate(140.914422 397.776719) scale(0.15 -0.15)">
       <defs>
        <path id="ArialMT-32" d="M 3222 541 
L 3222 0 
L 194 0 
Q 188 203 259 391 
Q 375 700 629 1000 
Q 884 1300 1366 1694 
Q 2113 2306 2375 2664 
Q 2638 3022 2638 3341 
Q 2638 3675 2398 3904 
Q 2159 4134 1775 4134 
Q 1369 4134 1125 3890 
Q 881 3647 878 3216 
L 300 3275 
Q 359 3922 746 4261 
Q 1134 4600 1788 4600 
Q 2447 4600 2831 4234 
Q 3216 3869 3216 3328 
Q 3216 3053 3103 2787 
Q 2991 2522 2730 2228 
Q 2469 1934 1863 1422 
Q 1356 997 1212 845 
Q 1069 694 975 541 
L 3222 541 
z
" transform="scale(0.015625)"/>
       </defs>
       <use xlink:href="#ArialMT-2212"/>
       <use xlink:href="#ArialMT-32" x="58.398438"/>
       <use xlink:href="#ArialMT-35" x="114.013672"/>
       <use xlink:href="#ArialMT-30" x="169.628906"/>
      </g>
     </g>
    </g>
    <g id="xtick_3">
     <g id="text_3">
      <!-- 0 -->
      <g style="fill: #262626" transform="translate(213.747661 397.776719) scale(0.15 -0.15)">
       <use xlink:href="#ArialMT-30"/>
      </g>
     </g>
    </g>
    <g id="xtick_4">
     <g id="text_4">
      <!-- 250 -->
      <g style="fill: #262626" transform="translate(265.517618 397.776719) scale(0.15 -0.15)">
       <use xlink:href="#ArialMT-32"/>
       <use xlink:href="#ArialMT-35" x="55.615234"/>
       <use xlink:href="#ArialMT-30" x="111.230469"/>
      </g>
     </g>
    </g>
    <g id="xtick_5">
     <g id="text_5">
      <!-- 500 -->
      <g style="fill: #262626" transform="translate(325.628982 397.776719) scale(0.15 -0.15)">
       <use xlink:href="#ArialMT-35"/>
       <use xlink:href="#ArialMT-30" x="55.615234"/>
       <use xlink:href="#ArialMT-30" x="111.230469"/>
      </g>
     </g>
    </g>
    <g id="xtick_6">
     <g id="text_6">
      <!-- 750 -->
      <g style="fill: #262626" transform="translate(385.740345 397.776719) scale(0.15 -0.15)">
       <defs>
        <path id="ArialMT-37" d="M 303 3981 
L 303 4522 
L 3269 4522 
L 3269 4084 
Q 2831 3619 2401 2847 
Q 1972 2075 1738 1259 
Q 1569 684 1522 0 
L 944 0 
Q 953 541 1156 1306 
Q 1359 2072 1739 2783 
Q 2119 3494 2547 3981 
L 303 3981 
z
" transform="scale(0.015625)"/>
       </defs>
       <use xlink:href="#ArialMT-37"/>
       <use xlink:href="#ArialMT-35" x="55.615234"/>
       <use xlink:href="#ArialMT-30" x="111.230469"/>
      </g>
     </g>
    </g>
    <g id="xtick_7">
     <g id="text_7">
      <!-- 1000 -->
      <g style="fill: #262626" transform="translate(441.681006 397.776719) scale(0.15 -0.15)">
       <defs>
        <path id="ArialMT-31" d="M 2384 0 
L 1822 0 
L 1822 3584 
Q 1619 3391 1289 3197 
Q 959 3003 697 2906 
L 697 3450 
Q 1169 3672 1522 3987 
Q 1875 4303 2022 4600 
L 2384 4600 
L 2384 0 
z
" transform="scale(0.015625)"/>
       </defs>
       <use xlink:href="#ArialMT-31"/>
       <use xlink:href="#ArialMT-30" x="55.615234"/>
       <use xlink:href="#ArialMT-30" x="111.230469"/>
       <use xlink:href="#ArialMT-30" x="166.845703"/>
      </g>
     </g>
    </g>
    <g id="xtick_8">
     <g id="text_8">
      <!-- 1250 -->
      <g style="fill: #262626" transform="translate(501.792369 397.776719) scale(0.15 -0.15)">
       <use xlink:href="#ArialMT-31"/>
       <use xlink:href="#ArialMT-32" x="55.615234"/>
       <use xlink:href="#ArialMT-35" x="111.230469"/>
       <use xlink:href="#ArialMT-30" x="166.845703"/>
      </g>
     </g>
    </g>
    <g id="xtick_9">
     <g id="text_9">
      <!-- 1500 -->
      <g style="fill: #262626" transform="translate(561.903733 397.776719) scale(0.15 -0.15)">
       <use xlink:href="#ArialMT-31"/>
       <use xlink:href="#ArialMT-35" x="55.615234"/>
       <use xlink:href="#ArialMT-30" x="111.230469"/>
       <use xlink:href="#ArialMT-30" x="166.845703"/>
      </g>
     </g>
    </g>
    <g id="text_10">
     <!-- Time (s) -->
     <g style="fill: #262626" transform="translate(315.737891 415.6775) scale(0.15 -0.15)">
      <defs>
       <path id="ArialMT-54" d="M 1659 0 
L 1659 4041 
L 150 4041 
L 150 4581 
L 3781 4581 
L 3781 4041 
L 2266 4041 
L 2266 0 
L 1659 0 
z
" transform="scale(0.015625)"/>
       <path id="ArialMT-69" d="M 425 3934 
L 425 4581 
L 988 4581 
L 988 3934 
L 425 3934 
z
M 425 0 
L 425 3319 
L 988 3319 
L 988 0 
L 425 0 
z
" transform="scale(0.015625)"/>
       <path id="ArialMT-6d" d="M 422 0 
L 422 3319 
L 925 3319 
L 925 2853 
Q 1081 3097 1340 3245 
Q 1600 3394 1931 3394 
Q 2300 3394 2536 3241 
Q 2772 3088 2869 2813 
Q 3263 3394 3894 3394 
Q 4388 3394 4653 3120 
Q 4919 2847 4919 2278 
L 4919 0 
L 4359 0 
L 4359 2091 
Q 4359 2428 4304 2576 
Q 4250 2725 4106 2815 
Q 3963 2906 3769 2906 
Q 3419 2906 3187 2673 
Q 2956 2441 2956 1928 
L 2956 0 
L 2394 0 
L 2394 2156 
Q 2394 2531 2256 2718 
Q 2119 2906 1806 2906 
Q 1569 2906 1367 2781 
Q 1166 2656 1075 2415 
Q 984 2175 984 1722 
L 984 0 
L 422 0 
z
" transform="scale(0.015625)"/>
       <path id="ArialMT-65" d="M 2694 1069 
L 3275 997 
Q 3138 488 2766 206 
Q 2394 -75 1816 -75 
Q 1088 -75 661 373 
Q 234 822 234 1631 
Q 234 2469 665 2931 
Q 1097 3394 1784 3394 
Q 2450 3394 2872 2941 
Q 3294 2488 3294 1666 
Q 3294 1616 3291 1516 
L 816 1516 
Q 847 969 1125 678 
Q 1403 388 1819 388 
Q 2128 388 2347 550 
Q 2566 713 2694 1069 
z
M 847 1978 
L 2700 1978 
Q 2663 2397 2488 2606 
Q 2219 2931 1791 2931 
Q 1403 2931 1139 2672 
Q 875 2413 847 1978 
z
" transform="scale(0.015625)"/>
       <path id="ArialMT-20" transform="scale(0.015625)"/>
       <path id="ArialMT-28" d="M 1497 -1347 
Q 1031 -759 709 28 
Q 388 816 388 1659 
Q 388 2403 628 3084 
Q 909 3875 1497 4659 
L 1900 4659 
Q 1522 4009 1400 3731 
Q 1209 3300 1100 2831 
Q 966 2247 966 1656 
Q 966 153 1900 -1347 
L 1497 -1347 
z
" transform="scale(0.015625)"/>
       <path id="ArialMT-73" d="M 197 991 
L 753 1078 
Q 800 744 1014 566 
Q 1228 388 1613 388 
Q 2000 388 2187 545 
Q 2375 703 2375 916 
Q 2375 1106 2209 1216 
Q 2094 1291 1634 1406 
Q 1016 1563 777 1677 
Q 538 1791 414 1992 
Q 291 2194 291 2438 
Q 291 2659 392 2848 
Q 494 3038 669 3163 
Q 800 3259 1026 3326 
Q 1253 3394 1513 3394 
Q 1903 3394 2198 3281 
Q 2494 3169 2634 2976 
Q 2775 2784 2828 2463 
L 2278 2388 
Q 2241 2644 2061 2787 
Q 1881 2931 1553 2931 
Q 1166 2931 1000 2803 
Q 834 2675 834 2503 
Q 834 2394 903 2306 
Q 972 2216 1119 2156 
Q 1203 2125 1616 2013 
Q 2213 1853 2448 1751 
Q 2684 1650 2818 1456 
Q 2953 1263 2953 975 
Q 2953 694 2789 445 
Q 2625 197 2315 61 
Q 2006 -75 1616 -75 
Q 969 -75 630 194 
Q 291 463 197 991 
z
" transform="scale(0.015625)"/>
       <path id="ArialMT-29" d="M 791 -1347 
L 388 -1347 
Q 1322 153 1322 1656 
Q 1322 2244 1188 2822 
Q 1081 3291 891 3722 
Q 769 4003 388 4659 
L 791 4659 
Q 1378 3875 1659 3084 
Q 1900 2403 1900 1659 
Q 1900 816 1576 28 
Q 1253 -759 791 -1347 
z
" transform="scale(0.015625)"/>
      </defs>
      <use xlink:href="#ArialMT-54"/>
      <use xlink:href="#ArialMT-69" x="57.333984"/>
      <use xlink:href="#ArialMT-6d" x="79.550781"/>
      <use xlink:href="#ArialMT-65" x="162.851562"/>
      <use xlink:href="#ArialMT-20" x="218.466797"/>
      <use xlink:href="#ArialMT-28" x="246.25"/>
      <use xlink:href="#ArialMT-73" x="279.550781"/>
      <use xlink:href="#ArialMT-29" x="329.550781"/>
     </g>
    </g>
   </g>
   <g id="matplotlib.axis_2">
    <g id="ytick_1">
     <g id="text_11">
      <!-- −0.05 -->
      <g style="fill: #262626" transform="translate(31.007656 359.09479) scale(0.15 -0.15)">
       <defs>
        <path id="ArialMT-2e" d="M 581 0 
L 581 641 
L 1222 641 
L 1222 0 
L 581 0 
z
" transform="scale(0.015625)"/>
       </defs>
       <use xlink:href="#ArialMT-2212"/>
       <use xlink:href="#ArialMT-30" x="58.398438"/>
       <use xlink:href="#ArialMT-2e" x="114.013672"/>
       <use xlink:href="#ArialMT-30" x="141.796875"/>
       <use xlink:href="#ArialMT-35" x="197.412109"/>
      </g>
     </g>
    </g>
    <g id="ytick_2">
     <g id="text_12">
      <!-- 0.00 -->
      <g style="fill: #262626" transform="translate(39.768594 311.667537) scale(0.15 -0.15)">
       <use xlink:href="#ArialMT-30"/>
       <use xlink:href="#ArialMT-2e" x="55.615234"/>
       <use xlink:href="#ArialMT-30" x="83.398438"/>
       <use xlink:href="#ArialMT-30" x="139.013672"/>
      </g>
     </g>
    </g>
    <g id="ytick_3">
     <g id="text_13">
      <!-- 0.05 -->
      <g style="fill: #262626" transform="translate(39.768594 264.240284) scale(0.15 -0.15)">
       <use xlink:href="#ArialMT-30"/>
       <use xlink:href="#ArialMT-2e" x="55.615234"/>
       <use xlink:href="#ArialMT-30" x="83.398438"/>
       <use xlink:href="#ArialMT-35" x="139.013672"/>
      </g>
     </g>
    </g>
    <g id="ytick_4">
     <g id="text_14">
      <!-- 0.10 -->
      <g style="fill: #262626" transform="translate(39.768594 216.813032) scale(0.15 -0.15)">
       <use xlink:href="#ArialMT-30"/>
       <use xlink:href="#ArialMT-2e" x="55.615234"/>
       <use xlink:href="#ArialMT-31" x="83.398438"/>
       <use xlink:href="#ArialMT-30" x="139.013672"/>
      </g>
     </g>
    </g>
    <g id="ytick_5">
     <g id="text_15">
      <!-- 0.15 -->
      <g style="fill: #262626" transform="translate(39.768594 169.385779) scale(0.15 -0.15)">
       <use xlink:href="#ArialMT-30"/>
       <use xlink:href="#ArialMT-2e" x="55.615234"/>
       <use xlink:href="#ArialMT-31" x="83.398438"/>
       <use xlink:href="#ArialMT-35" x="139.013672"/>
      </g>
     </g>
    </g>
    <g id="ytick_6">
     <g id="text_16">
      <!-- 0.20 -->
      <g style="fill: #262626" transform="translate(39.768594 121.958526) scale(0.15 -0.15)">
       <use xlink:href="#ArialMT-30"/>
       <use xlink:href="#ArialMT-2e" x="55.615234"/>
       <use xlink:href="#ArialMT-32" x="83.398438"/>
       <use xlink:href="#ArialMT-30" x="139.013672"/>
      </g>
     </g>
    </g>
    <g id="ytick_7">
     <g id="text_17">
      <!-- 0.25 -->
      <g style="fill: #262626" transform="translate(39.768594 74.531274) scale(0.15 -0.15)">
       <use xlink:href="#ArialMT-30"/>
       <use xlink:href="#ArialMT-2e" x="55.615234"/>
       <use xlink:href="#ArialMT-32" x="83.398438"/>
       <use xlink:href="#ArialMT-35" x="139.013672"/>
      </g>
     </g>
    </g>
    <g id="text_18">
     <!-- Divergence -->
     <g style="fill: #262626" transform="translate(23.850625 240.183594) rotate(-90) scale(0.15 -0.15)">
      <defs>
       <path id="ArialMT-44" d="M 494 0 
L 494 4581 
L 2072 4581 
Q 2606 4581 2888 4516 
Q 3281 4425 3559 4188 
Q 3922 3881 4101 3404 
Q 4281 2928 4281 2316 
Q 4281 1794 4159 1391 
Q 4038 988 3847 723 
Q 3656 459 3429 307 
Q 3203 156 2883 78 
Q 2563 0 2147 0 
L 494 0 
z
M 1100 541 
L 2078 541 
Q 2531 541 2789 625 
Q 3047 709 3200 863 
Q 3416 1078 3536 1442 
Q 3656 1806 3656 2325 
Q 3656 3044 3420 3430 
Q 3184 3816 2847 3947 
Q 2603 4041 2063 4041 
L 1100 4041 
L 1100 541 
z
" transform="scale(0.015625)"/>
       <path id="ArialMT-76" d="M 1344 0 
L 81 3319 
L 675 3319 
L 1388 1331 
Q 1503 1009 1600 663 
Q 1675 925 1809 1294 
L 2547 3319 
L 3125 3319 
L 1869 0 
L 1344 0 
z
" transform="scale(0.015625)"/>
       <path id="ArialMT-72" d="M 416 0 
L 416 3319 
L 922 3319 
L 922 2816 
Q 1116 3169 1280 3281 
Q 1444 3394 1641 3394 
Q 1925 3394 2219 3213 
L 2025 2691 
Q 1819 2813 1613 2813 
Q 1428 2813 1281 2702 
Q 1134 2591 1072 2394 
Q 978 2094 978 1738 
L 978 0 
L 416 0 
z
" transform="scale(0.015625)"/>
       <path id="ArialMT-67" d="M 319 -275 
L 866 -356 
Q 900 -609 1056 -725 
Q 1266 -881 1628 -881 
Q 2019 -881 2231 -725 
Q 2444 -569 2519 -288 
Q 2563 -116 2559 434 
Q 2191 0 1641 0 
Q 956 0 581 494 
Q 206 988 206 1678 
Q 206 2153 378 2554 
Q 550 2956 876 3175 
Q 1203 3394 1644 3394 
Q 2231 3394 2613 2919 
L 2613 3319 
L 3131 3319 
L 3131 450 
Q 3131 -325 2973 -648 
Q 2816 -972 2473 -1159 
Q 2131 -1347 1631 -1347 
Q 1038 -1347 672 -1080 
Q 306 -813 319 -275 
z
M 784 1719 
Q 784 1066 1043 766 
Q 1303 466 1694 466 
Q 2081 466 2343 764 
Q 2606 1063 2606 1700 
Q 2606 2309 2336 2618 
Q 2066 2928 1684 2928 
Q 1309 2928 1046 2623 
Q 784 2319 784 1719 
z
" transform="scale(0.015625)"/>
       <path id="ArialMT-6e" d="M 422 0 
L 422 3319 
L 928 3319 
L 928 2847 
Q 1294 3394 1984 3394 
Q 2284 3394 2536 3286 
Q 2788 3178 2913 3003 
Q 3038 2828 3088 2588 
Q 3119 2431 3119 2041 
L 3119 0 
L 2556 0 
L 2556 2019 
Q 2556 2363 2490 2533 
Q 2425 2703 2258 2804 
Q 2091 2906 1866 2906 
Q 1506 2906 1245 2678 
Q 984 2450 984 1813 
L 984 0 
L 422 0 
z
" transform="scale(0.015625)"/>
       <path id="ArialMT-63" d="M 2588 1216 
L 3141 1144 
Q 3050 572 2676 248 
Q 2303 -75 1759 -75 
Q 1078 -75 664 370 
Q 250 816 250 1647 
Q 250 2184 428 2587 
Q 606 2991 970 3192 
Q 1334 3394 1763 3394 
Q 2303 3394 2647 3120 
Q 2991 2847 3088 2344 
L 2541 2259 
Q 2463 2594 2264 2762 
Q 2066 2931 1784 2931 
Q 1359 2931 1093 2626 
Q 828 2322 828 1663 
Q 828 994 1084 691 
Q 1341 388 1753 388 
Q 2084 388 2306 591 
Q 2528 794 2588 1216 
z
" transform="scale(0.015625)"/>
      </defs>
      <use xlink:href="#ArialMT-44"/>
      <use xlink:href="#ArialMT-69" x="72.216797"/>
      <use xlink:href="#ArialMT-76" x="94.433594"/>
      <use xlink:href="#ArialMT-65" x="144.433594"/>
      <use xlink:href="#ArialMT-72" x="200.048828"/>
      <use xlink:href="#ArialMT-67" x="233.349609"/>
      <use xlink:href="#ArialMT-65" x="288.964844"/>
      <use xlink:href="#ArialMT-6e" x="344.580078"/>
      <use xlink:href="#ArialMT-63" x="400.195312"/>
      <use xlink:href="#ArialMT-65" x="450.195312"/>
     </g>
    </g>
   </g>
   <g id="PolyCollection_1">
    <defs>
     <path id="m627bc782cf" d="M 102.504545 -132.759901 
L 102.504545 -107.951168 
L 107.313455 -102.890153 
L 112.122364 -122.901254 
L 116.931273 -113.796021 
L 121.740182 -122.685636 
L 126.549091 -128.261063 
L 131.358 -124.75489 
L 136.166909 -128.673296 
L 140.975818 -130.726068 
L 145.784727 -120.93329 
L 150.593636 -114.018869 
L 155.402545 -108.226256 
L 160.211455 -117.679144 
L 165.020364 -120.439194 
L 169.829273 -111.525854 
L 174.638182 -120.02316 
L 179.447091 -128.443193 
L 184.256 -113.472798 
L 189.064909 -112.529729 
L 193.873818 -127.753488 
L 198.682727 -136.493759 
L 203.491636 -117.779085 
L 208.300545 -118.693236 
L 213.109455 -137.923166 
L 217.918364 -121.921589 
L 222.727273 -100.143505 
L 227.536182 -113.460934 
L 232.345091 -122.180054 
L 237.154 -171.580301 
L 241.962909 -202.363685 
L 246.771818 -210.236747 
L 251.580727 -200.311574 
L 256.389636 -243.417038 
L 261.198545 -222.632308 
L 266.007455 -249.856475 
L 270.816364 -246.825955 
L 275.625273 -223.657969 
L 280.434182 -221.471212 
L 285.243091 -244.466339 
L 290.052 -236.250899 
L 294.860909 -257.288329 
L 299.669818 -274.679128 
L 304.478727 -272.181569 
L 309.287636 -265.500301 
L 314.096545 -242.041447 
L 318.905455 -224.699872 
L 323.714364 -220.710823 
L 328.523273 -229.349464 
L 333.332182 -255.196372 
L 338.141091 -256.504763 
L 342.95 -233.461634 
L 347.758909 -205.917526 
L 352.567818 -231.939949 
L 357.376727 -258.042012 
L 362.185636 -235.531906 
L 366.994545 -230.585669 
L 371.803455 -227.721848 
L 376.612364 -204.475695 
L 381.421273 -192.309292 
L 386.230182 -171.284637 
L 391.039091 -164.169932 
L 395.848 -185.188828 
L 400.656909 -185.742852 
L 405.465818 -206.713275 
L 410.274727 -185.277487 
L 415.083636 -194.543041 
L 419.892545 -181.364555 
L 424.701455 -212.721181 
L 429.510364 -229.892719 
L 434.319273 -238.259286 
L 439.128182 -237.37181 
L 443.937091 -237.659484 
L 448.746 -275.357191 
L 453.554909 -273.330041 
L 458.363818 -240.581886 
L 463.172727 -218.886898 
L 467.981636 -194.798733 
L 472.790545 -163.720504 
L 477.599455 -131.911689 
L 482.408364 -109.52827 
L 487.217273 -128.965793 
L 492.026182 -136.601865 
L 496.835091 -153.169187 
L 501.644 -141.509795 
L 506.452909 -163.927531 
L 511.261818 -135.168221 
L 516.070727 -151.294746 
L 520.879636 -116.465345 
L 525.688545 -144.971282 
L 530.497455 -131.560738 
L 535.306364 -143.952414 
L 540.115273 -128.884005 
L 544.924182 -120.899293 
L 549.733091 -149.07463 
L 554.542 -119.297044 
L 559.350909 -126.841191 
L 564.159818 -137.329993 
L 568.968727 -132.99864 
L 573.777636 -128.193454 
L 578.586545 -113.711515 
L 583.395455 -121.487325 
L 583.395455 -139.530147 
L 583.395455 -139.530147 
L 578.586545 -136.450034 
L 573.777636 -146.542787 
L 568.968727 -154.128556 
L 564.159818 -157.077181 
L 559.350909 -147.858682 
L 554.542 -141.153169 
L 549.733091 -167.801472 
L 544.924182 -141.246585 
L 540.115273 -148.651184 
L 535.306364 -165.416537 
L 530.497455 -153.283062 
L 525.688545 -164.168879 
L 520.879636 -139.852697 
L 516.070727 -172.692849 
L 511.261818 -157.688283 
L 506.452909 -183.631357 
L 501.644 -160.64296 
L 496.835091 -169.242964 
L 492.026182 -153.887601 
L 487.217273 -152.935498 
L 482.408364 -138.184813 
L 477.599455 -175.214844 
L 472.790545 -188.407529 
L 467.981636 -216.29856 
L 463.172727 -238.852724 
L 458.363818 -263.906576 
L 453.554909 -304.798349 
L 448.746 -308.639484 
L 443.937091 -266.748562 
L 439.128182 -262.459134 
L 434.319273 -265.396664 
L 429.510364 -257.849862 
L 424.701455 -238.299209 
L 419.892545 -204.249354 
L 415.083636 -213.736936 
L 410.274727 -210.284515 
L 405.465818 -232.229928 
L 400.656909 -208.807448 
L 395.848 -205.531921 
L 391.039091 -189.976148 
L 386.230182 -196.869571 
L 381.421273 -219.138825 
L 376.612364 -232.954932 
L 371.803455 -253.124391 
L 366.994545 -256.980879 
L 362.185636 -264.931573 
L 357.376727 -284.76369 
L 352.567818 -256.814958 
L 347.758909 -235.019547 
L 342.95 -262.777774 
L 338.141091 -283.691651 
L 333.332182 -279.460147 
L 328.523273 -254.715108 
L 323.714364 -248.786809 
L 318.905455 -254.750372 
L 314.096545 -268.732306 
L 309.287636 -291.381613 
L 304.478727 -298.050771 
L 299.669818 -300.575413 
L 294.860909 -284.895172 
L 290.052 -262.426904 
L 285.243091 -268.475875 
L 280.434182 -248.175007 
L 275.625273 -251.47651 
L 270.816364 -274.241935 
L 266.007455 -276.098472 
L 261.198545 -251.813577 
L 256.389636 -273.413194 
L 251.580727 -231.252704 
L 246.771818 -238.451649 
L 241.962909 -227.940253 
L 237.154 -192.488738 
L 232.345091 -138.105457 
L 227.536182 -129.459989 
L 222.727273 -118.692974 
L 217.918364 -139.840171 
L 213.109455 -150.431951 
L 208.300545 -131.457105 
L 203.491636 -130.403604 
L 198.682727 -149.221954 
L 193.873818 -139.682257 
L 189.064909 -125.020461 
L 184.256 -125.246806 
L 179.447091 -141.225974 
L 174.638182 -133.153353 
L 169.829273 -122.34876 
L 165.020364 -132.848222 
L 160.211455 -131.699885 
L 155.402545 -120.180538 
L 150.593636 -126.193091 
L 145.784727 -135.775739 
L 140.975818 -147.941155 
L 136.166909 -140.735736 
L 131.358 -136.29021 
L 126.549091 -142.378028 
L 121.740182 -135.462849 
L 116.931273 -124.82277 
L 112.122364 -134.60032 
L 107.313455 -121.916477 
L 102.504545 -132.759901 
z
" style="stroke: #eb6ab0; stroke-opacity: 0.1"/>
    </defs>
    <g clip-path="url(#pc637a7ba01)">
     <use xlink:href="#m627bc782cf" x="0" y="432" style="fill: #eb6ab0; fill-opacity: 0.1; stroke: #eb6ab0; stroke-opacity: 0.1"/>
    </g>
   </g>
   <g id="PolyCollection_2">
    <defs>
     <path id="mc5e0dc9fac" d="M 102.504545 -129.36665 
L 102.504545 -124.934676 
L 107.313455 -124.050267 
L 112.122364 -125.392506 
L 116.931273 -125.146984 
L 121.740182 -124.818804 
L 126.549091 -123.992176 
L 131.358 -125.294753 
L 136.166909 -125.960262 
L 140.975818 -125.505392 
L 145.784727 -126.629078 
L 150.593636 -127.039694 
L 155.402545 -124.900715 
L 160.211455 -124.127551 
L 165.020364 -126.189578 
L 169.829273 -126.49148 
L 174.638182 -125.62114 
L 179.447091 -125.677366 
L 184.256 -124.656307 
L 189.064909 -125.501794 
L 193.873818 -125.716534 
L 198.682727 -125.734237 
L 203.491636 -124.186766 
L 208.300545 -124.842831 
L 213.109455 -125.423409 
L 217.918364 -132.991558 
L 222.727273 -135.032618 
L 227.536182 -133.778848 
L 232.345091 -133.330129 
L 237.154 -134.613964 
L 241.962909 -138.89104 
L 246.771818 -137.868612 
L 251.580727 -138.511924 
L 256.389636 -138.018674 
L 261.198545 -141.221816 
L 266.007455 -141.709202 
L 270.816364 -138.580651 
L 275.625273 -138.012961 
L 280.434182 -136.425773 
L 285.243091 -137.006995 
L 290.052 -134.141878 
L 294.860909 -131.61743 
L 299.669818 -134.549586 
L 304.478727 -137.300395 
L 309.287636 -138.627569 
L 314.096545 -137.242916 
L 318.905455 -135.011566 
L 323.714364 -135.345493 
L 328.523273 -136.643499 
L 333.332182 -134.489208 
L 338.141091 -136.352845 
L 342.95 -135.715484 
L 347.758909 -132.324159 
L 352.567818 -134.625762 
L 357.376727 -135.541266 
L 362.185636 -136.537617 
L 366.994545 -135.477978 
L 371.803455 -135.870566 
L 376.612364 -136.663609 
L 381.421273 -137.473918 
L 386.230182 -137.703173 
L 391.039091 -137.883157 
L 395.848 -135.755415 
L 400.656909 -132.766345 
L 405.465818 -134.970062 
L 410.274727 -133.490096 
L 415.083636 -130.211115 
L 419.892545 -130.210527 
L 424.701455 -134.318897 
L 429.510364 -133.260607 
L 434.319273 -134.587677 
L 439.128182 -134.358146 
L 443.937091 -135.1313 
L 448.746 -134.794914 
L 453.554909 -132.658439 
L 458.363818 -125.564886 
L 463.172727 -125.536564 
L 467.981636 -125.0485 
L 472.790545 -126.76374 
L 477.599455 -126.78738 
L 482.408364 -124.816831 
L 487.217273 -124.881223 
L 492.026182 -124.133331 
L 496.835091 -125.952787 
L 501.644 -124.228217 
L 506.452909 -124.477569 
L 511.261818 -125.351039 
L 516.070727 -124.299512 
L 520.879636 -124.645806 
L 525.688545 -123.928929 
L 530.497455 -127.465793 
L 535.306364 -128.053584 
L 540.115273 -124.692929 
L 544.924182 -126.005894 
L 549.733091 -125.416918 
L 554.542 -123.421914 
L 559.350909 -126.741531 
L 564.159818 -126.030164 
L 568.968727 -123.959232 
L 573.777636 -125.19081 
L 578.586545 -124.338106 
L 583.395455 -126.247505 
L 583.395455 -128.290509 
L 583.395455 -128.290509 
L 578.586545 -126.236195 
L 573.777636 -127.170299 
L 568.968727 -125.969336 
L 564.159818 -128.172439 
L 559.350909 -128.415803 
L 554.542 -125.6139 
L 549.733091 -127.427419 
L 544.924182 -127.878092 
L 540.115273 -126.505178 
L 535.306364 -129.976569 
L 530.497455 -129.450229 
L 525.688545 -125.782143 
L 520.879636 -126.764611 
L 516.070727 -126.39537 
L 511.261818 -127.510884 
L 506.452909 -126.66872 
L 501.644 -126.032489 
L 496.835091 -127.796894 
L 492.026182 -126.137063 
L 487.217273 -126.739756 
L 482.408364 -126.888835 
L 477.599455 -128.816689 
L 472.790545 -129.161254 
L 467.981636 -127.456919 
L 463.172727 -127.051585 
L 458.363818 -127.19281 
L 453.554909 -134.907317 
L 448.746 -137.289935 
L 443.937091 -137.527358 
L 439.128182 -136.689522 
L 434.319273 -137.08658 
L 429.510364 -135.930243 
L 424.701455 -136.916084 
L 419.892545 -132.58594 
L 415.083636 -132.73391 
L 410.274727 -136.507404 
L 405.465818 -137.860851 
L 400.656909 -135.467477 
L 395.848 -138.26982 
L 391.039091 -140.364507 
L 386.230182 -140.119677 
L 381.421273 -139.946777 
L 376.612364 -139.428169 
L 371.803455 -138.527631 
L 366.994545 -137.94953 
L 362.185636 -139.344093 
L 357.376727 -138.102223 
L 352.567818 -137.125734 
L 347.758909 -134.907934 
L 342.95 -138.268379 
L 338.141091 -138.861292 
L 333.332182 -137.10351 
L 328.523273 -139.235941 
L 323.714364 -137.859138 
L 318.905455 -137.766143 
L 314.096545 -140.061503 
L 309.287636 -140.968203 
L 304.478727 -139.886701 
L 299.669818 -137.001768 
L 294.860909 -134.603573 
L 290.052 -136.648803 
L 285.243091 -139.600356 
L 280.434182 -138.754942 
L 275.625273 -140.392975 
L 270.816364 -140.931033 
L 266.007455 -144.314274 
L 261.198545 -143.771582 
L 256.389636 -140.657799 
L 251.580727 -140.960184 
L 246.771818 -140.558978 
L 241.962909 -141.525079 
L 237.154 -136.937386 
L 232.345091 -135.396506 
L 227.536182 -136.145437 
L 222.727273 -137.856489 
L 217.918364 -135.793042 
L 213.109455 -126.87551 
L 208.300545 -126.32937 
L 203.491636 -125.420046 
L 198.682727 -127.174975 
L 193.873818 -127.275234 
L 189.064909 -126.896979 
L 184.256 -126.039607 
L 179.447091 -127.252345 
L 174.638182 -127.042322 
L 169.829273 -128.016657 
L 165.020364 -127.526597 
L 160.211455 -125.421259 
L 155.402545 -126.355999 
L 150.593636 -128.510084 
L 145.784727 -128.007729 
L 140.975818 -126.870073 
L 136.166909 -127.280479 
L 131.358 -126.51274 
L 126.549091 -125.554498 
L 121.740182 -126.458273 
L 116.931273 -126.35537 
L 112.122364 -126.631396 
L 107.313455 -125.701665 
L 102.504545 -129.36665 
z
" style="stroke: #eb6ab0; stroke-opacity: 0.1"/>
    </defs>
    <g clip-path="url(#pc637a7ba01)">
     <use xlink:href="#mc5e0dc9fac" x="0" y="432" style="fill: #eb6ab0; fill-opacity: 0.1; stroke: #eb6ab0; stroke-opacity: 0.1"/>
    </g>
   </g>
   <g id="PathCollection_1">
    <defs>
     <path id="me56768d434" d="M 0 -3 
L -0.673542 -0.927051 
L -2.85317 -0.927051 
L -1.089814 0.354102 
L -1.763356 2.427051 
L -0 1.145898 
L 1.763356 2.427051 
L 1.089814 0.354102 
L 2.85317 -0.927051 
L 0.673542 -0.927051 
z
" style="stroke: #eb6ab0"/>
    </defs>
    <g clip-path="url(#pc637a7ba01)">
     <use xlink:href="#me56768d434" x="237.154" y="315.784628" style="fill: #eb6ab0; stroke: #eb6ab0"/>
     <use xlink:href="#me56768d434" x="241.962909" y="315.784628" style="fill: #eb6ab0; stroke: #eb6ab0"/>
     <use xlink:href="#me56768d434" x="246.771818" y="315.784628" style="fill: #eb6ab0; stroke: #eb6ab0"/>
     <use xlink:href="#me56768d434" x="251.580727" y="315.784628" style="fill: #eb6ab0; stroke: #eb6ab0"/>
     <use xlink:href="#me56768d434" x="256.389636" y="315.784628" style="fill: #eb6ab0; stroke: #eb6ab0"/>
     <use xlink:href="#me56768d434" x="261.198545" y="315.784628" style="fill: #eb6ab0; stroke: #eb6ab0"/>
     <use xlink:href="#me56768d434" x="266.007455" y="315.784628" style="fill: #eb6ab0; stroke: #eb6ab0"/>
     <use xlink:href="#me56768d434" x="270.816364" y="315.784628" style="fill: #eb6ab0; stroke: #eb6ab0"/>
     <use xlink:href="#me56768d434" x="275.625273" y="315.784628" style="fill: #eb6ab0; stroke: #eb6ab0"/>
     <use xlink:href="#me56768d434" x="280.434182" y="315.784628" style="fill: #eb6ab0; stroke: #eb6ab0"/>
     <use xlink:href="#me56768d434" x="285.243091" y="315.784628" style="fill: #eb6ab0; stroke: #eb6ab0"/>
     <use xlink:href="#me56768d434" x="290.052" y="315.784628" style="fill: #eb6ab0; stroke: #eb6ab0"/>
     <use xlink:href="#me56768d434" x="294.860909" y="315.784628" style="fill: #eb6ab0; stroke: #eb6ab0"/>
     <use xlink:href="#me56768d434" x="299.669818" y="315.784628" style="fill: #eb6ab0; stroke: #eb6ab0"/>
     <use xlink:href="#me56768d434" x="304.478727" y="315.784628" style="fill: #eb6ab0; stroke: #eb6ab0"/>
     <use xlink:href="#me56768d434" x="309.287636" y="315.784628" style="fill: #eb6ab0; stroke: #eb6ab0"/>
     <use xlink:href="#me56768d434" x="314.096545" y="315.784628" style="fill: #eb6ab0; stroke: #eb6ab0"/>
     <use xlink:href="#me56768d434" x="318.905455" y="315.784628" style="fill: #eb6ab0; stroke: #eb6ab0"/>
     <use xlink:href="#me56768d434" x="323.714364" y="315.784628" style="fill: #eb6ab0; stroke: #eb6ab0"/>
     <use xlink:href="#me56768d434" x="328.523273" y="315.784628" style="fill: #eb6ab0; stroke: #eb6ab0"/>
     <use xlink:href="#me56768d434" x="333.332182" y="315.784628" style="fill: #eb6ab0; stroke: #eb6ab0"/>
     <use xlink:href="#me56768d434" x="338.141091" y="315.784628" style="fill: #eb6ab0; stroke: #eb6ab0"/>
     <use xlink:href="#me56768d434" x="342.95" y="315.784628" style="fill: #eb6ab0; stroke: #eb6ab0"/>
     <use xlink:href="#me56768d434" x="347.758909" y="315.784628" style="fill: #eb6ab0; stroke: #eb6ab0"/>
     <use xlink:href="#me56768d434" x="352.567818" y="315.784628" style="fill: #eb6ab0; stroke: #eb6ab0"/>
     <use xlink:href="#me56768d434" x="357.376727" y="315.784628" style="fill: #eb6ab0; stroke: #eb6ab0"/>
     <use xlink:href="#me56768d434" x="362.185636" y="315.784628" style="fill: #eb6ab0; stroke: #eb6ab0"/>
     <use xlink:href="#me56768d434" x="366.994545" y="315.784628" style="fill: #eb6ab0; stroke: #eb6ab0"/>
     <use xlink:href="#me56768d434" x="371.803455" y="315.784628" style="fill: #eb6ab0; stroke: #eb6ab0"/>
     <use xlink:href="#me56768d434" x="376.612364" y="315.784628" style="fill: #eb6ab0; stroke: #eb6ab0"/>
     <use xlink:href="#me56768d434" x="381.421273" y="315.784628" style="fill: #eb6ab0; stroke: #eb6ab0"/>
     <use xlink:href="#me56768d434" x="386.230182" y="315.784628" style="fill: #eb6ab0; stroke: #eb6ab0"/>
     <use xlink:href="#me56768d434" x="395.848" y="315.784628" style="fill: #eb6ab0; stroke: #eb6ab0"/>
     <use xlink:href="#me56768d434" x="400.656909" y="315.784628" style="fill: #eb6ab0; stroke: #eb6ab0"/>
     <use xlink:href="#me56768d434" x="405.465818" y="315.784628" style="fill: #eb6ab0; stroke: #eb6ab0"/>
     <use xlink:href="#me56768d434" x="410.274727" y="315.784628" style="fill: #eb6ab0; stroke: #eb6ab0"/>
     <use xlink:href="#me56768d434" x="415.083636" y="315.784628" style="fill: #eb6ab0; stroke: #eb6ab0"/>
     <use xlink:href="#me56768d434" x="419.892545" y="315.784628" style="fill: #eb6ab0; stroke: #eb6ab0"/>
     <use xlink:href="#me56768d434" x="424.701455" y="315.784628" style="fill: #eb6ab0; stroke: #eb6ab0"/>
     <use xlink:href="#me56768d434" x="429.510364" y="315.784628" style="fill: #eb6ab0; stroke: #eb6ab0"/>
     <use xlink:href="#me56768d434" x="434.319273" y="315.784628" style="fill: #eb6ab0; stroke: #eb6ab0"/>
     <use xlink:href="#me56768d434" x="439.128182" y="315.784628" style="fill: #eb6ab0; stroke: #eb6ab0"/>
     <use xlink:href="#me56768d434" x="443.937091" y="315.784628" style="fill: #eb6ab0; stroke: #eb6ab0"/>
     <use xlink:href="#me56768d434" x="448.746" y="315.784628" style="fill: #eb6ab0; stroke: #eb6ab0"/>
     <use xlink:href="#me56768d434" x="453.554909" y="315.784628" style="fill: #eb6ab0; stroke: #eb6ab0"/>
     <use xlink:href="#me56768d434" x="458.363818" y="315.784628" style="fill: #eb6ab0; stroke: #eb6ab0"/>
     <use xlink:href="#me56768d434" x="463.172727" y="315.784628" style="fill: #eb6ab0; stroke: #eb6ab0"/>
     <use xlink:href="#me56768d434" x="467.981636" y="315.784628" style="fill: #eb6ab0; stroke: #eb6ab0"/>
     <use xlink:href="#me56768d434" x="472.790545" y="315.784628" style="fill: #eb6ab0; stroke: #eb6ab0"/>
     <use xlink:href="#me56768d434" x="496.835091" y="315.784628" style="fill: #eb6ab0; stroke: #eb6ab0"/>
     <use xlink:href="#me56768d434" x="506.452909" y="315.784628" style="fill: #eb6ab0; stroke: #eb6ab0"/>
     <use xlink:href="#me56768d434" x="516.070727" y="315.784628" style="fill: #eb6ab0; stroke: #eb6ab0"/>
     <use xlink:href="#me56768d434" x="549.733091" y="315.784628" style="fill: #eb6ab0; stroke: #eb6ab0"/>
    </g>
   </g>
   <g id="PolyCollection_3">
    <defs>
     <path id="m6e602bc9c1" d="M 102.504545 -109.519074 
L 102.504545 -82.268913 
L 107.313455 -82.051482 
L 112.122364 -75.101905 
L 116.931273 -70.395455 
L 121.740182 -75.14837 
L 126.549091 -91.503067 
L 131.358 -93.529191 
L 136.166909 -79.442001 
L 140.975818 -77.463381 
L 145.784727 -94.30484 
L 150.593636 -119.229623 
L 155.402545 -127.350219 
L 160.211455 -142.254265 
L 165.020364 -122.277403 
L 169.829273 -121.325548 
L 174.638182 -125.871339 
L 179.447091 -131.120246 
L 184.256 -131.531592 
L 189.064909 -130.747435 
L 193.873818 -148.180575 
L 198.682727 -142.288247 
L 203.491636 -128.665917 
L 208.300545 -149.802182 
L 213.109455 -149.109502 
L 217.918364 -166.216529 
L 222.727273 -166.705104 
L 227.536182 -165.212959 
L 232.345091 -152.359983 
L 237.154 -147.677818 
L 241.962909 -152.849861 
L 246.771818 -156.511168 
L 251.580727 -152.126032 
L 256.389636 -152.529371 
L 261.198545 -149.672813 
L 266.007455 -154.427509 
L 270.816364 -168.433376 
L 275.625273 -178.365105 
L 280.434182 -180.45352 
L 285.243091 -184.253358 
L 290.052 -189.258739 
L 294.860909 -190.829638 
L 299.669818 -205.674705 
L 304.478727 -219.233403 
L 309.287636 -233.80501 
L 314.096545 -237.803105 
L 318.905455 -240.379754 
L 323.714364 -246.026344 
L 328.523273 -253.677316 
L 333.332182 -255.500697 
L 338.141091 -262.001875 
L 342.95 -258.893664 
L 347.758909 -273.395899 
L 352.567818 -280.17765 
L 357.376727 -287.042142 
L 362.185636 -292.45604 
L 366.994545 -290.476086 
L 371.803455 -289.37435 
L 376.612364 -294.160434 
L 381.421273 -304.315434 
L 386.230182 -303.204415 
L 391.039091 -299.801258 
L 395.848 -300.508295 
L 400.656909 -304.282422 
L 405.465818 -298.527848 
L 410.274727 -303.520654 
L 415.083636 -301.680256 
L 419.892545 -305.259512 
L 424.701455 -306.694065 
L 429.510364 -307.112177 
L 434.319273 -311.959974 
L 439.128182 -314.37866 
L 443.937091 -317.559229 
L 448.746 -323.982489 
L 453.554909 -324.110553 
L 458.363818 -321.621611 
L 463.172727 -324.297241 
L 467.981636 -330.946503 
L 472.790545 -321.743039 
L 477.599455 -314.705095 
L 482.408364 -308.709248 
L 487.217273 -304.395339 
L 492.026182 -303.691157 
L 496.835091 -300.680928 
L 501.644 -297.529992 
L 506.452909 -291.882077 
L 511.261818 -290.545643 
L 516.070727 -285.762887 
L 520.879636 -284.045422 
L 525.688545 -275.56508 
L 530.497455 -283.403133 
L 535.306364 -274.706696 
L 540.115273 -272.581059 
L 544.924182 -275.211146 
L 549.733091 -267.541644 
L 554.542 -261.38277 
L 559.350909 -259.541269 
L 564.159818 -260.46956 
L 568.968727 -270.889297 
L 573.777636 -260.804587 
L 578.586545 -251.459068 
L 583.395455 -255.178611 
L 583.395455 -310.317599 
L 583.395455 -310.317599 
L 578.586545 -306.061689 
L 573.777636 -314.580173 
L 568.968727 -324.525671 
L 564.159818 -313.211151 
L 559.350909 -314.216132 
L 554.542 -315.656715 
L 549.733091 -322.299877 
L 544.924182 -330.463361 
L 540.115273 -326.725186 
L 535.306364 -328.614089 
L 530.497455 -338.194743 
L 525.688545 -329.801699 
L 520.879636 -338.477873 
L 516.070727 -340.811198 
L 511.261818 -345.72502 
L 506.452909 -346.614936 
L 501.644 -353.40612 
L 496.835091 -355.589637 
L 492.026182 -359.317717 
L 487.217273 -361.752628 
L 482.408364 -365.522783 
L 477.599455 -371.550304 
L 472.790545 -379.57392 
L 467.981636 -389.104545 
L 463.172727 -384.27171 
L 458.363818 -381.913495 
L 453.554909 -382.141986 
L 448.746 -380.542683 
L 443.937091 -372.540432 
L 439.128182 -368.774429 
L 434.319273 -365.076932 
L 429.510364 -360.350714 
L 424.701455 -360.369566 
L 419.892545 -358.070383 
L 415.083636 -354.007881 
L 410.274727 -356.14792 
L 405.465818 -351.330978 
L 400.656909 -357.886287 
L 395.848 -354.723126 
L 391.039091 -352.793323 
L 386.230182 -354.483221 
L 381.421273 -355.122241 
L 376.612364 -344.289347 
L 371.803455 -339.321708 
L 366.994545 -339.379519 
L 362.185636 -340.323082 
L 357.376727 -333.721935 
L 352.567818 -326.383876 
L 347.758909 -319.691506 
L 342.95 -304.205745 
L 338.141091 -305.306921 
L 333.332182 -295.415545 
L 328.523273 -291.985761 
L 323.714364 -284.377915 
L 318.905455 -278.728885 
L 314.096545 -273.44122 
L 309.287636 -268.11405 
L 304.478727 -251.651851 
L 299.669818 -236.345665 
L 294.860909 -218.992863 
L 290.052 -216.964454 
L 285.243091 -209.864021 
L 280.434182 -206.075648 
L 275.625273 -205.120816 
L 270.816364 -193.440105 
L 266.007455 -178.827191 
L 261.198545 -173.718526 
L 256.389636 -178.509629 
L 251.580727 -175.68899 
L 246.771818 -179.032188 
L 241.962909 -175.980028 
L 237.154 -169.369322 
L 232.345091 -173.861652 
L 227.536182 -196.598412 
L 222.727273 -199.102264 
L 217.918364 -198.167107 
L 213.109455 -182.071273 
L 208.300545 -181.725565 
L 203.491636 -159.264074 
L 198.682727 -173.65527 
L 193.873818 -178.321599 
L 189.064909 -162.135726 
L 184.256 -162.229389 
L 179.447091 -167.693411 
L 174.638182 -162.060451 
L 169.829273 -155.996735 
L 165.020364 -157.511872 
L 160.211455 -181.215646 
L 155.402545 -164.635968 
L 150.593636 -157.612024 
L 145.784727 -133.367721 
L 140.975818 -116.376864 
L 136.166909 -115.816668 
L 131.358 -132.535852 
L 126.549091 -126.325433 
L 121.740182 -113.13986 
L 116.931273 -103.992822 
L 112.122364 -109.406909 
L 107.313455 -113.785011 
L 102.504545 -109.519074 
z
" style="stroke: #8b0a50; stroke-opacity: 0.1"/>
    </defs>
    <g clip-path="url(#pc637a7ba01)">
     <use xlink:href="#m6e602bc9c1" x="0" y="432" style="fill: #8b0a50; fill-opacity: 0.1; stroke: #8b0a50; stroke-opacity: 0.1"/>
    </g>
   </g>
   <g id="PolyCollection_4">
    <defs>
     <path id="m4f7bf5ea01" d="M 102.504545 -130.162002 
L 102.504545 -127.420262 
L 107.313455 -126.362314 
L 112.122364 -124.375584 
L 116.931273 -125.657448 
L 121.740182 -123.951545 
L 126.549091 -122.695015 
L 131.358 -125.648446 
L 136.166909 -123.876112 
L 140.975818 -122.950513 
L 145.784727 -125.701243 
L 150.593636 -126.688312 
L 155.402545 -129.055206 
L 160.211455 -129.231854 
L 165.020364 -130.48873 
L 169.829273 -130.056102 
L 174.638182 -131.052584 
L 179.447091 -131.10194 
L 184.256 -132.452644 
L 189.064909 -132.769982 
L 193.873818 -136.308629 
L 198.682727 -138.609419 
L 203.491636 -140.052972 
L 208.300545 -144.404562 
L 213.109455 -147.231077 
L 217.918364 -152.042555 
L 222.727273 -152.91791 
L 227.536182 -155.583933 
L 232.345091 -154.945898 
L 237.154 -156.583137 
L 241.962909 -156.31674 
L 246.771818 -154.203759 
L 251.580727 -154.020527 
L 256.389636 -153.004911 
L 261.198545 -152.278254 
L 266.007455 -151.110801 
L 270.816364 -150.585496 
L 275.625273 -150.024222 
L 280.434182 -149.164045 
L 285.243091 -148.966377 
L 290.052 -149.055041 
L 294.860909 -149.527005 
L 299.669818 -148.84547 
L 304.478727 -149.239688 
L 309.287636 -148.742274 
L 314.096545 -148.843822 
L 318.905455 -149.305243 
L 323.714364 -149.413712 
L 328.523273 -150.70877 
L 333.332182 -150.343161 
L 338.141091 -149.668613 
L 342.95 -149.299427 
L 347.758909 -149.765928 
L 352.567818 -150.525919 
L 357.376727 -150.925401 
L 362.185636 -149.643704 
L 366.994545 -149.498653 
L 371.803455 -148.627208 
L 376.612364 -149.213181 
L 381.421273 -150.106003 
L 386.230182 -150.474388 
L 391.039091 -150.886913 
L 395.848 -151.082228 
L 400.656909 -150.853259 
L 405.465818 -150.126643 
L 410.274727 -150.88156 
L 415.083636 -150.235896 
L 419.892545 -149.922297 
L 424.701455 -149.089834 
L 429.510364 -149.538123 
L 434.319273 -148.529803 
L 439.128182 -148.658284 
L 443.937091 -148.640978 
L 448.746 -147.826251 
L 453.554909 -145.87466 
L 458.363818 -145.36629 
L 463.172727 -144.294501 
L 467.981636 -143.829835 
L 472.790545 -142.688122 
L 477.599455 -142.20574 
L 482.408364 -141.342918 
L 487.217273 -141.376566 
L 492.026182 -141.775589 
L 496.835091 -142.61871 
L 501.644 -141.837475 
L 506.452909 -142.181222 
L 511.261818 -141.615121 
L 516.070727 -140.467274 
L 520.879636 -140.706514 
L 525.688545 -140.932116 
L 530.497455 -140.335913 
L 535.306364 -140.017869 
L 540.115273 -140.139283 
L 544.924182 -139.244249 
L 549.733091 -140.158889 
L 554.542 -140.769991 
L 559.350909 -140.82815 
L 564.159818 -140.249644 
L 568.968727 -139.955158 
L 573.777636 -140.199121 
L 578.586545 -139.819325 
L 583.395455 -139.359225 
L 583.395455 -144.585589 
L 583.395455 -144.585589 
L 578.586545 -144.998089 
L 573.777636 -145.266627 
L 568.968727 -145.043156 
L 564.159818 -145.476454 
L 559.350909 -146.071823 
L 554.542 -146.038674 
L 549.733091 -145.383824 
L 544.924182 -144.414983 
L 540.115273 -145.211561 
L 535.306364 -145.042134 
L 530.497455 -145.460768 
L 525.688545 -145.9918 
L 520.879636 -145.905972 
L 516.070727 -145.809597 
L 511.261818 -146.829001 
L 506.452909 -147.306696 
L 501.644 -146.941836 
L 496.835091 -147.725948 
L 492.026182 -146.740808 
L 487.217273 -146.339543 
L 482.408364 -146.355443 
L 477.599455 -147.159549 
L 472.790545 -147.647371 
L 467.981636 -148.816489 
L 463.172727 -149.325287 
L 458.363818 -150.422108 
L 453.554909 -150.883804 
L 448.746 -152.753147 
L 443.937091 -153.68892 
L 439.128182 -153.594643 
L 434.319273 -153.320001 
L 429.510364 -154.40107 
L 424.701455 -154.068329 
L 419.892545 -155.004193 
L 415.083636 -155.173971 
L 410.274727 -155.935055 
L 405.465818 -155.066352 
L 400.656909 -155.874134 
L 395.848 -156.080019 
L 391.039091 -155.869759 
L 386.230182 -155.53647 
L 381.421273 -155.119479 
L 376.612364 -154.149584 
L 371.803455 -153.48283 
L 366.994545 -154.363146 
L 362.185636 -154.471446 
L 357.376727 -155.805028 
L 352.567818 -155.155654 
L 347.758909 -154.325134 
L 342.95 -153.892857 
L 338.141091 -154.043244 
L 333.332182 -154.629346 
L 328.523273 -154.798194 
L 323.714364 -153.435297 
L 318.905455 -153.259594 
L 314.096545 -152.77549 
L 309.287636 -152.513687 
L 304.478727 -152.855845 
L 299.669818 -152.319319 
L 294.860909 -152.945403 
L 290.052 -152.383649 
L 285.243091 -152.09723 
L 280.434182 -152.120281 
L 275.625273 -152.919762 
L 270.816364 -153.368682 
L 266.007455 -154.02065 
L 261.198545 -155.422198 
L 256.389636 -156.195563 
L 251.580727 -157.184385 
L 246.771818 -157.611695 
L 241.962909 -160.34235 
L 237.154 -160.716373 
L 232.345091 -159.017251 
L 227.536182 -160.145966 
L 222.727273 -157.448843 
L 217.918364 -156.979399 
L 213.109455 -152.08388 
L 208.300545 -149.052498 
L 203.491636 -144.594061 
L 198.682727 -142.875115 
L 193.873818 -140.478659 
L 189.064909 -136.737402 
L 184.256 -136.184865 
L 179.447091 -134.761499 
L 174.638182 -135.019921 
L 169.829273 -134.21875 
L 165.020364 -134.951051 
L 160.211455 -133.791113 
L 155.402545 -133.833383 
L 150.593636 -131.501623 
L 145.784727 -130.43854 
L 140.975818 -127.512595 
L 136.166909 -128.655362 
L 131.358 -129.978812 
L 126.549091 -126.939832 
L 121.740182 -128.112737 
L 116.931273 -130.047586 
L 112.122364 -128.301769 
L 107.313455 -130.692799 
L 102.504545 -130.162002 
z
" style="stroke: #8b0a50; stroke-opacity: 0.1"/>
    </defs>
    <g clip-path="url(#pc637a7ba01)">
     <use xlink:href="#m4f7bf5ea01" x="0" y="432" style="fill: #8b0a50; fill-opacity: 0.1; stroke: #8b0a50; stroke-opacity: 0.1"/>
    </g>
   </g>
   <g id="PathCollection_2">
    <defs>
     <path id="m5b6b0af2d8" d="M 0 -3 
L -0.673542 -0.927051 
L -2.85317 -0.927051 
L -1.089814 0.354102 
L -1.763356 2.427051 
L -0 1.145898 
L 1.763356 2.427051 
L 1.089814 0.354102 
L 2.85317 -0.927051 
L 0.673542 -0.927051 
z
" style="stroke: #8b0a50"/>
    </defs>
    <g clip-path="url(#pc637a7ba01)">
     <use xlink:href="#m5b6b0af2d8" x="280.434182" y="325.270079" style="fill: #8b0a50; stroke: #8b0a50"/>
     <use xlink:href="#m5b6b0af2d8" x="285.243091" y="325.270079" style="fill: #8b0a50; stroke: #8b0a50"/>
     <use xlink:href="#m5b6b0af2d8" x="290.052" y="325.270079" style="fill: #8b0a50; stroke: #8b0a50"/>
     <use xlink:href="#m5b6b0af2d8" x="294.860909" y="325.270079" style="fill: #8b0a50; stroke: #8b0a50"/>
     <use xlink:href="#m5b6b0af2d8" x="299.669818" y="325.270079" style="fill: #8b0a50; stroke: #8b0a50"/>
     <use xlink:href="#m5b6b0af2d8" x="304.478727" y="325.270079" style="fill: #8b0a50; stroke: #8b0a50"/>
     <use xlink:href="#m5b6b0af2d8" x="309.287636" y="325.270079" style="fill: #8b0a50; stroke: #8b0a50"/>
     <use xlink:href="#m5b6b0af2d8" x="314.096545" y="325.270079" style="fill: #8b0a50; stroke: #8b0a50"/>
     <use xlink:href="#m5b6b0af2d8" x="318.905455" y="325.270079" style="fill: #8b0a50; stroke: #8b0a50"/>
     <use xlink:href="#m5b6b0af2d8" x="323.714364" y="325.270079" style="fill: #8b0a50; stroke: #8b0a50"/>
     <use xlink:href="#m5b6b0af2d8" x="328.523273" y="325.270079" style="fill: #8b0a50; stroke: #8b0a50"/>
     <use xlink:href="#m5b6b0af2d8" x="333.332182" y="325.270079" style="fill: #8b0a50; stroke: #8b0a50"/>
     <use xlink:href="#m5b6b0af2d8" x="338.141091" y="325.270079" style="fill: #8b0a50; stroke: #8b0a50"/>
     <use xlink:href="#m5b6b0af2d8" x="342.95" y="325.270079" style="fill: #8b0a50; stroke: #8b0a50"/>
     <use xlink:href="#m5b6b0af2d8" x="347.758909" y="325.270079" style="fill: #8b0a50; stroke: #8b0a50"/>
     <use xlink:href="#m5b6b0af2d8" x="352.567818" y="325.270079" style="fill: #8b0a50; stroke: #8b0a50"/>
     <use xlink:href="#m5b6b0af2d8" x="357.376727" y="325.270079" style="fill: #8b0a50; stroke: #8b0a50"/>
     <use xlink:href="#m5b6b0af2d8" x="362.185636" y="325.270079" style="fill: #8b0a50; stroke: #8b0a50"/>
     <use xlink:href="#m5b6b0af2d8" x="366.994545" y="325.270079" style="fill: #8b0a50; stroke: #8b0a50"/>
     <use xlink:href="#m5b6b0af2d8" x="371.803455" y="325.270079" style="fill: #8b0a50; stroke: #8b0a50"/>
     <use xlink:href="#m5b6b0af2d8" x="376.612364" y="325.270079" style="fill: #8b0a50; stroke: #8b0a50"/>
     <use xlink:href="#m5b6b0af2d8" x="381.421273" y="325.270079" style="fill: #8b0a50; stroke: #8b0a50"/>
     <use xlink:href="#m5b6b0af2d8" x="386.230182" y="325.270079" style="fill: #8b0a50; stroke: #8b0a50"/>
     <use xlink:href="#m5b6b0af2d8" x="391.039091" y="325.270079" style="fill: #8b0a50; stroke: #8b0a50"/>
     <use xlink:href="#m5b6b0af2d8" x="395.848" y="325.270079" style="fill: #8b0a50; stroke: #8b0a50"/>
     <use xlink:href="#m5b6b0af2d8" x="400.656909" y="325.270079" style="fill: #8b0a50; stroke: #8b0a50"/>
     <use xlink:href="#m5b6b0af2d8" x="405.465818" y="325.270079" style="fill: #8b0a50; stroke: #8b0a50"/>
     <use xlink:href="#m5b6b0af2d8" x="410.274727" y="325.270079" style="fill: #8b0a50; stroke: #8b0a50"/>
     <use xlink:href="#m5b6b0af2d8" x="415.083636" y="325.270079" style="fill: #8b0a50; stroke: #8b0a50"/>
     <use xlink:href="#m5b6b0af2d8" x="419.892545" y="325.270079" style="fill: #8b0a50; stroke: #8b0a50"/>
     <use xlink:href="#m5b6b0af2d8" x="424.701455" y="325.270079" style="fill: #8b0a50; stroke: #8b0a50"/>
     <use xlink:href="#m5b6b0af2d8" x="429.510364" y="325.270079" style="fill: #8b0a50; stroke: #8b0a50"/>
     <use xlink:href="#m5b6b0af2d8" x="434.319273" y="325.270079" style="fill: #8b0a50; stroke: #8b0a50"/>
     <use xlink:href="#m5b6b0af2d8" x="439.128182" y="325.270079" style="fill: #8b0a50; stroke: #8b0a50"/>
     <use xlink:href="#m5b6b0af2d8" x="443.937091" y="325.270079" style="fill: #8b0a50; stroke: #8b0a50"/>
     <use xlink:href="#m5b6b0af2d8" x="448.746" y="325.270079" style="fill: #8b0a50; stroke: #8b0a50"/>
     <use xlink:href="#m5b6b0af2d8" x="453.554909" y="325.270079" style="fill: #8b0a50; stroke: #8b0a50"/>
     <use xlink:href="#m5b6b0af2d8" x="458.363818" y="325.270079" style="fill: #8b0a50; stroke: #8b0a50"/>
     <use xlink:href="#m5b6b0af2d8" x="463.172727" y="325.270079" style="fill: #8b0a50; stroke: #8b0a50"/>
     <use xlink:href="#m5b6b0af2d8" x="467.981636" y="325.270079" style="fill: #8b0a50; stroke: #8b0a50"/>
     <use xlink:href="#m5b6b0af2d8" x="472.790545" y="325.270079" style="fill: #8b0a50; stroke: #8b0a50"/>
     <use xlink:href="#m5b6b0af2d8" x="477.599455" y="325.270079" style="fill: #8b0a50; stroke: #8b0a50"/>
     <use xlink:href="#m5b6b0af2d8" x="482.408364" y="325.270079" style="fill: #8b0a50; stroke: #8b0a50"/>
     <use xlink:href="#m5b6b0af2d8" x="487.217273" y="325.270079" style="fill: #8b0a50; stroke: #8b0a50"/>
     <use xlink:href="#m5b6b0af2d8" x="492.026182" y="325.270079" style="fill: #8b0a50; stroke: #8b0a50"/>
     <use xlink:href="#m5b6b0af2d8" x="496.835091" y="325.270079" style="fill: #8b0a50; stroke: #8b0a50"/>
     <use xlink:href="#m5b6b0af2d8" x="501.644" y="325.270079" style="fill: #8b0a50; stroke: #8b0a50"/>
     <use xlink:href="#m5b6b0af2d8" x="506.452909" y="325.270079" style="fill: #8b0a50; stroke: #8b0a50"/>
     <use xlink:href="#m5b6b0af2d8" x="511.261818" y="325.270079" style="fill: #8b0a50; stroke: #8b0a50"/>
     <use xlink:href="#m5b6b0af2d8" x="516.070727" y="325.270079" style="fill: #8b0a50; stroke: #8b0a50"/>
     <use xlink:href="#m5b6b0af2d8" x="520.879636" y="325.270079" style="fill: #8b0a50; stroke: #8b0a50"/>
     <use xlink:href="#m5b6b0af2d8" x="525.688545" y="325.270079" style="fill: #8b0a50; stroke: #8b0a50"/>
     <use xlink:href="#m5b6b0af2d8" x="530.497455" y="325.270079" style="fill: #8b0a50; stroke: #8b0a50"/>
     <use xlink:href="#m5b6b0af2d8" x="535.306364" y="325.270079" style="fill: #8b0a50; stroke: #8b0a50"/>
     <use xlink:href="#m5b6b0af2d8" x="540.115273" y="325.270079" style="fill: #8b0a50; stroke: #8b0a50"/>
     <use xlink:href="#m5b6b0af2d8" x="544.924182" y="325.270079" style="fill: #8b0a50; stroke: #8b0a50"/>
     <use xlink:href="#m5b6b0af2d8" x="549.733091" y="325.270079" style="fill: #8b0a50; stroke: #8b0a50"/>
     <use xlink:href="#m5b6b0af2d8" x="554.542" y="325.270079" style="fill: #8b0a50; stroke: #8b0a50"/>
     <use xlink:href="#m5b6b0af2d8" x="559.350909" y="325.270079" style="fill: #8b0a50; stroke: #8b0a50"/>
     <use xlink:href="#m5b6b0af2d8" x="564.159818" y="325.270079" style="fill: #8b0a50; stroke: #8b0a50"/>
     <use xlink:href="#m5b6b0af2d8" x="568.968727" y="325.270079" style="fill: #8b0a50; stroke: #8b0a50"/>
     <use xlink:href="#m5b6b0af2d8" x="573.777636" y="325.270079" style="fill: #8b0a50; stroke: #8b0a50"/>
     <use xlink:href="#m5b6b0af2d8" x="578.586545" y="325.270079" style="fill: #8b0a50; stroke: #8b0a50"/>
     <use xlink:href="#m5b6b0af2d8" x="583.395455" y="325.270079" style="fill: #8b0a50; stroke: #8b0a50"/>
    </g>
   </g>
   <g id="line2d_1">
    <path d="M 102.504545 311.644466 
L 107.313455 319.596685 
L 112.122364 303.249213 
L 116.931273 312.690605 
L 121.740182 302.925757 
L 126.549091 296.680455 
L 131.358 301.47745 
L 136.166909 297.295484 
L 140.975818 292.666388 
L 145.784727 303.645485 
L 150.593636 311.89402 
L 155.402545 317.796603 
L 160.211455 307.310486 
L 165.020364 305.356292 
L 169.829273 315.062693 
L 174.638182 305.411744 
L 179.447091 297.165417 
L 184.256 312.640198 
L 189.064909 313.224905 
L 193.873818 298.282128 
L 198.682727 289.142144 
L 203.491636 307.908655 
L 208.300545 306.924829 
L 213.109455 287.822442 
L 217.918364 301.11912 
L 222.727273 322.581761 
L 227.536182 310.539538 
L 232.345091 301.857245 
L 237.154 249.96548 
L 241.962909 216.848031 
L 246.771818 207.655802 
L 251.580727 216.217861 
L 256.389636 173.584884 
L 261.198545 194.777058 
L 266.007455 169.022527 
L 270.816364 171.466055 
L 275.625273 194.432761 
L 280.434182 197.176891 
L 285.243091 175.528893 
L 290.052 182.661099 
L 294.860909 160.90825 
L 299.669818 144.37273 
L 304.478727 146.88383 
L 309.287636 153.559043 
L 314.096545 176.613124 
L 318.905455 192.274878 
L 323.714364 197.251184 
L 328.523273 189.967714 
L 333.332182 164.671741 
L 338.141091 161.901793 
L 342.95 183.880296 
L 347.758909 211.531464 
L 352.567818 187.622546 
L 357.376727 160.597149 
L 362.185636 181.76826 
L 366.994545 188.216726 
L 371.803455 191.576881 
L 376.612364 213.284687 
L 381.421273 226.275941 
L 386.230182 247.922896 
L 391.039091 254.92696 
L 395.848 236.639626 
L 400.656909 234.72485 
L 405.465818 212.528399 
L 410.274727 234.218999 
L 415.083636 227.860012 
L 419.892545 239.193045 
L 424.701455 206.489805 
L 429.510364 188.12871 
L 434.319273 180.172025 
L 439.128182 182.084528 
L 443.937091 179.795977 
L 448.746 140.001662 
L 453.554909 142.935805 
L 458.363818 179.755769 
L 463.172727 203.130189 
L 467.981636 226.451353 
L 472.790545 255.935984 
L 477.599455 278.436734 
L 482.408364 308.143458 
L 487.217273 291.049355 
L 492.026182 286.755267 
L 496.835091 270.793925 
L 501.644 280.923623 
L 506.452909 258.220556 
L 511.261818 285.571748 
L 516.070727 270.006202 
L 520.879636 303.840979 
L 525.688545 277.42992 
L 530.497455 289.5781 
L 535.306364 277.315525 
L 540.115273 293.232406 
L 544.924182 300.927061 
L 549.733091 273.561949 
L 554.542 301.774893 
L 559.350909 294.650063 
L 564.159818 284.796413 
L 568.968727 288.436402 
L 573.777636 294.631879 
L 578.586545 306.919226 
L 583.395455 301.491264 
" clip-path="url(#pc637a7ba01)" style="fill: none; stroke: #eb6ab0; stroke-width: 2; stroke-linecap: round"/>
   </g>
   <g id="line2d_2">
    <path d="M 102.504545 304.849337 
L 107.313455 307.124034 
L 112.122364 305.988049 
L 116.931273 306.248823 
L 121.740182 306.361461 
L 126.549091 307.226663 
L 131.358 306.096254 
L 136.166909 305.37963 
L 140.975818 305.812268 
L 145.784727 304.681597 
L 150.593636 304.225111 
L 155.402545 306.371643 
L 160.211455 307.225595 
L 165.020364 305.141913 
L 169.829273 304.745931 
L 174.638182 305.668269 
L 179.447091 305.535144 
L 184.256 306.652043 
L 189.064909 305.800613 
L 193.873818 305.504116 
L 198.682727 305.545394 
L 203.491636 307.196594 
L 208.300545 306.4139 
L 213.109455 305.850541 
L 217.918364 297.6077 
L 222.727273 295.555447 
L 227.536182 297.037857 
L 232.345091 297.636682 
L 237.154 296.224325 
L 241.962909 291.791941 
L 246.771818 292.786205 
L 251.580727 292.263946 
L 256.389636 292.661763 
L 261.198545 289.503301 
L 266.007455 288.988262 
L 270.816364 292.244158 
L 275.625273 292.797032 
L 280.434182 294.409643 
L 285.243091 293.696325 
L 290.052 296.60466 
L 294.860909 298.889498 
L 299.669818 296.224323 
L 304.478727 293.406452 
L 309.287636 292.202114 
L 314.096545 293.34779 
L 318.905455 295.611145 
L 323.714364 295.397685 
L 328.523273 294.06028 
L 333.332182 296.203641 
L 338.141091 294.392931 
L 342.95 295.008068 
L 347.758909 298.383954 
L 352.567818 296.124252 
L 357.376727 295.178256 
L 362.185636 294.059145 
L 366.994545 295.286246 
L 371.803455 294.800901 
L 376.612364 293.954111 
L 381.421273 293.289653 
L 386.230182 293.088575 
L 391.039091 292.876168 
L 395.848 294.987382 
L 400.656909 297.883089 
L 405.465818 295.584543 
L 410.274727 297.00125 
L 415.083636 300.527488 
L 419.892545 300.601767 
L 424.701455 296.382509 
L 429.510364 297.404575 
L 434.319273 296.162871 
L 439.128182 296.476166 
L 443.937091 295.670671 
L 448.746 295.957576 
L 453.554909 298.217122 
L 458.363818 305.621152 
L 463.172727 305.705925 
L 467.981636 305.747291 
L 472.790545 304.037503 
L 477.599455 304.197965 
L 482.408364 306.147167 
L 487.217273 306.189511 
L 492.026182 306.864803 
L 496.835091 305.12516 
L 501.644 306.869647 
L 506.452909 306.426856 
L 511.261818 305.569039 
L 516.070727 306.652559 
L 520.879636 306.294792 
L 525.688545 307.144464 
L 530.497455 303.541989 
L 535.306364 302.984923 
L 540.115273 306.400947 
L 544.924182 305.058007 
L 549.733091 305.577831 
L 554.542 307.482093 
L 559.350909 304.421333 
L 564.159818 304.898699 
L 568.968727 307.035716 
L 573.777636 305.819445 
L 578.586545 306.71285 
L 583.395455 304.730993 
" clip-path="url(#pc637a7ba01)" style="fill: none; stroke-dasharray: 7.4,3.2; stroke-dashoffset: 0; stroke: #eb6ab0; stroke-width: 2"/>
   </g>
   <g id="line2d_3">
    <path d="M 217.918364 377.54 
L 217.918364 26.96 
" clip-path="url(#pc637a7ba01)" style="fill: none; stroke-dasharray: 5.55,2.4; stroke-dashoffset: 0; stroke: #1a1a1a; stroke-width: 1.5"/>
   </g>
   <g id="line2d_4">
    <path d="M 458.363818 377.54 
L 458.363818 26.96 
" clip-path="url(#pc637a7ba01)" style="fill: none; stroke-dasharray: 5.55,2.4; stroke-dashoffset: 0; stroke: #1a1a1a; stroke-width: 1.5"/>
   </g>
   <g id="line2d_5">
    <path d="M 102.504545 336.106007 
L 107.313455 334.081753 
L 112.122364 339.745593 
L 116.931273 344.805862 
L 121.740182 337.855885 
L 126.549091 323.08575 
L 131.358 318.967478 
L 136.166909 334.370665 
L 140.975818 335.079878 
L 145.784727 318.163719 
L 150.593636 293.579176 
L 155.402545 286.006907 
L 160.211455 270.265045 
L 165.020364 292.105362 
L 169.829273 293.338859 
L 174.638182 288.034105 
L 179.447091 282.593171 
L 184.256 285.119509 
L 189.064909 285.55842 
L 193.873818 268.748913 
L 198.682727 274.028242 
L 203.491636 288.035005 
L 208.300545 266.236126 
L 213.109455 266.409613 
L 217.918364 249.808182 
L 222.727273 249.096316 
L 227.536182 251.094315 
L 232.345091 268.889182 
L 237.154 273.47643 
L 241.962909 267.585056 
L 246.771818 264.228322 
L 251.580727 268.092489 
L 256.389636 266.4805 
L 261.198545 270.304331 
L 266.007455 265.37265 
L 270.816364 251.063259 
L 275.625273 240.257039 
L 280.434182 238.735416 
L 285.243091 234.941311 
L 290.052 228.888403 
L 294.860909 227.088749 
L 299.669818 210.989815 
L 304.478727 196.557373 
L 309.287636 181.04047 
L 314.096545 176.377838 
L 318.905455 172.44568 
L 323.714364 166.797871 
L 328.523273 159.168462 
L 333.332182 156.541879 
L 338.141091 148.345602 
L 342.95 150.450296 
L 347.758909 135.456298 
L 352.567818 128.719237 
L 357.376727 121.617962 
L 362.185636 115.610439 
L 366.994545 117.072198 
L 371.803455 117.651971 
L 376.612364 112.775109 
L 381.421273 102.281163 
L 386.230182 103.156182 
L 391.039091 105.702709 
L 395.848 104.38429 
L 400.656909 100.915646 
L 405.465818 107.070587 
L 410.274727 102.165713 
L 415.083636 104.155931 
L 419.892545 100.335052 
L 424.701455 98.468184 
L 429.510364 98.268554 
L 434.319273 93.481547 
L 439.128182 90.423455 
L 443.937091 86.95017 
L 448.746 79.737414 
L 453.554909 78.873731 
L 458.363818 80.232447 
L 463.172727 77.715524 
L 467.981636 71.974476 
L 472.790545 81.34152 
L 477.599455 88.872301 
L 482.408364 94.883984 
L 487.217273 98.926016 
L 492.026182 100.495563 
L 496.835091 103.864717 
L 501.644 106.531944 
L 506.452909 112.751494 
L 511.261818 113.864669 
L 516.070727 118.712958 
L 520.879636 120.738352 
L 525.688545 129.316611 
L 530.497455 121.201062 
L 535.306364 130.339608 
L 540.115273 132.346878 
L 544.924182 129.162746 
L 549.733091 137.07924 
L 554.542 143.480258 
L 559.350909 145.1213 
L 564.159818 145.159645 
L 568.968727 134.292516 
L 573.777636 144.30762 
L 578.586545 153.239622 
L 583.395455 149.251895 
" clip-path="url(#pc637a7ba01)" style="fill: none; stroke: #8b0a50; stroke-width: 2; stroke-linecap: round"/>
   </g>
   <g id="line2d_6">
    <path d="M 102.504545 303.208868 
L 107.313455 303.472444 
L 112.122364 305.661323 
L 116.931273 304.147483 
L 121.740182 305.967859 
L 126.549091 307.182577 
L 131.358 304.186371 
L 136.166909 305.734263 
L 140.975818 306.768446 
L 145.784727 303.930108 
L 150.593636 302.905032 
L 155.402545 300.555705 
L 160.211455 300.488516 
L 165.020364 299.28011 
L 169.829273 299.862574 
L 174.638182 298.963748 
L 179.447091 299.06828 
L 184.256 297.681245 
L 189.064909 297.246308 
L 193.873818 293.606356 
L 198.682727 291.257733 
L 203.491636 289.676483 
L 208.300545 285.27147 
L 213.109455 282.342521 
L 217.918364 277.489023 
L 222.727273 276.816623 
L 227.536182 274.13505 
L 232.345091 275.018426 
L 237.154 273.350245 
L 241.962909 273.670455 
L 246.771818 276.092273 
L 251.580727 276.397544 
L 256.389636 277.399763 
L 261.198545 278.149774 
L 266.007455 279.434275 
L 270.816364 280.022911 
L 275.625273 280.528008 
L 280.434182 281.357837 
L 285.243091 281.468196 
L 290.052 281.280655 
L 294.860909 280.763796 
L 299.669818 281.417606 
L 304.478727 280.952233 
L 309.287636 281.37202 
L 314.096545 281.190344 
L 318.905455 280.717581 
L 323.714364 280.575496 
L 328.523273 279.246518 
L 333.332182 279.513746 
L 338.141091 280.144072 
L 342.95 280.403858 
L 347.758909 279.954469 
L 352.567818 279.159213 
L 357.376727 278.634786 
L 362.185636 279.942425 
L 366.994545 280.0691 
L 371.803455 280.944981 
L 376.612364 280.318617 
L 381.421273 279.387259 
L 386.230182 278.994571 
L 391.039091 278.621664 
L 395.848 278.418877 
L 400.656909 278.636303 
L 405.465818 279.403503 
L 410.274727 278.591692 
L 415.083636 279.295066 
L 419.892545 279.536755 
L 424.701455 280.420918 
L 429.510364 280.030403 
L 434.319273 281.075098 
L 439.128182 280.873536 
L 443.937091 280.835051 
L 448.746 281.710301 
L 453.554909 283.620768 
L 458.363818 284.105801 
L 463.172727 285.190106 
L 467.981636 285.676838 
L 472.790545 286.832254 
L 477.599455 287.317356 
L 482.408364 288.150819 
L 487.217273 288.141945 
L 492.026182 287.741802 
L 496.835091 286.827671 
L 501.644 287.610344 
L 506.452909 287.256041 
L 511.261818 287.777939 
L 516.070727 288.861564 
L 520.879636 288.693757 
L 525.688545 288.538042 
L 530.497455 289.101659 
L 535.306364 289.469999 
L 540.115273 289.324578 
L 544.924182 290.170384 
L 549.733091 289.228644 
L 554.542 288.595668 
L 559.350909 288.550014 
L 564.159818 289.136951 
L 568.968727 289.500843 
L 573.777636 289.267126 
L 578.586545 289.591293 
L 583.395455 290.027593 
" clip-path="url(#pc637a7ba01)" style="fill: none; stroke-dasharray: 7.4,3.2; stroke-dashoffset: 0; stroke: #8b0a50; stroke-width: 2"/>
   </g>
   <g id="line2d_7">
    <path d="M 217.918364 377.54 
L 217.918364 26.96 
" clip-path="url(#pc637a7ba01)" style="fill: none; stroke-dasharray: 5.55,2.4; stroke-dashoffset: 0; stroke: #1a1a1a; stroke-width: 1.5"/>
   </g>
   <g id="line2d_8">
    <path d="M 458.363818 377.54 
L 458.363818 26.96 
" clip-path="url(#pc637a7ba01)" style="fill: none; stroke-dasharray: 5.55,2.4; stroke-dashoffset: 0; stroke: #1a1a1a; stroke-width: 1.5"/>
   </g>
   <g id="patch_3">
    <path d="M 78.46 377.54 
L 78.46 26.96 
" style="fill: none; stroke: #cccccc; stroke-width: 1.5; stroke-linejoin: miter; stroke-linecap: square"/>
   </g>
   <g id="patch_4">
    <path d="M 78.46 377.54 
L 607.44 377.54 
" style="fill: none; stroke: #cccccc; stroke-width: 1.5; stroke-linejoin: miter; stroke-linecap: square"/>
   </g>
   <g id="text_19">
    <!-- Divergence Comparison: Original vs Shuffled -->
    <g style="fill: #262626" transform="translate(193.4375 20.96) scale(0.15 -0.15)">
     <defs>
      <path id="ArialMT-43" d="M 3763 1606 
L 4369 1453 
Q 4178 706 3683 314 
Q 3188 -78 2472 -78 
Q 1731 -78 1267 223 
Q 803 525 561 1097 
Q 319 1669 319 2325 
Q 319 3041 592 3573 
Q 866 4106 1370 4382 
Q 1875 4659 2481 4659 
Q 3169 4659 3637 4309 
Q 4106 3959 4291 3325 
L 3694 3184 
Q 3534 3684 3231 3912 
Q 2928 4141 2469 4141 
Q 1941 4141 1586 3887 
Q 1231 3634 1087 3207 
Q 944 2781 944 2328 
Q 944 1744 1114 1308 
Q 1284 872 1643 656 
Q 2003 441 2422 441 
Q 2931 441 3284 734 
Q 3638 1028 3763 1606 
z
" transform="scale(0.015625)"/>
      <path id="ArialMT-6f" d="M 213 1659 
Q 213 2581 725 3025 
Q 1153 3394 1769 3394 
Q 2453 3394 2887 2945 
Q 3322 2497 3322 1706 
Q 3322 1066 3130 698 
Q 2938 331 2570 128 
Q 2203 -75 1769 -75 
Q 1072 -75 642 372 
Q 213 819 213 1659 
z
M 791 1659 
Q 791 1022 1069 705 
Q 1347 388 1769 388 
Q 2188 388 2466 706 
Q 2744 1025 2744 1678 
Q 2744 2294 2464 2611 
Q 2184 2928 1769 2928 
Q 1347 2928 1069 2612 
Q 791 2297 791 1659 
z
" transform="scale(0.015625)"/>
      <path id="ArialMT-70" d="M 422 -1272 
L 422 3319 
L 934 3319 
L 934 2888 
Q 1116 3141 1344 3267 
Q 1572 3394 1897 3394 
Q 2322 3394 2647 3175 
Q 2972 2956 3137 2557 
Q 3303 2159 3303 1684 
Q 3303 1175 3120 767 
Q 2938 359 2589 142 
Q 2241 -75 1856 -75 
Q 1575 -75 1351 44 
Q 1128 163 984 344 
L 984 -1272 
L 422 -1272 
z
M 931 1641 
Q 931 1000 1190 694 
Q 1450 388 1819 388 
Q 2194 388 2461 705 
Q 2728 1022 2728 1688 
Q 2728 2322 2467 2637 
Q 2206 2953 1844 2953 
Q 1484 2953 1207 2617 
Q 931 2281 931 1641 
z
" transform="scale(0.015625)"/>
      <path id="ArialMT-61" d="M 2588 409 
Q 2275 144 1986 34 
Q 1697 -75 1366 -75 
Q 819 -75 525 192 
Q 231 459 231 875 
Q 231 1119 342 1320 
Q 453 1522 633 1644 
Q 813 1766 1038 1828 
Q 1203 1872 1538 1913 
Q 2219 1994 2541 2106 
Q 2544 2222 2544 2253 
Q 2544 2597 2384 2738 
Q 2169 2928 1744 2928 
Q 1347 2928 1158 2789 
Q 969 2650 878 2297 
L 328 2372 
Q 403 2725 575 2942 
Q 747 3159 1072 3276 
Q 1397 3394 1825 3394 
Q 2250 3394 2515 3294 
Q 2781 3194 2906 3042 
Q 3031 2891 3081 2659 
Q 3109 2516 3109 2141 
L 3109 1391 
Q 3109 606 3145 398 
Q 3181 191 3288 0 
L 2700 0 
Q 2613 175 2588 409 
z
M 2541 1666 
Q 2234 1541 1622 1453 
Q 1275 1403 1131 1340 
Q 988 1278 909 1158 
Q 831 1038 831 891 
Q 831 666 1001 516 
Q 1172 366 1500 366 
Q 1825 366 2078 508 
Q 2331 650 2450 897 
Q 2541 1088 2541 1459 
L 2541 1666 
z
" transform="scale(0.015625)"/>
      <path id="ArialMT-3a" d="M 578 2678 
L 578 3319 
L 1219 3319 
L 1219 2678 
L 578 2678 
z
M 578 0 
L 578 641 
L 1219 641 
L 1219 0 
L 578 0 
z
" transform="scale(0.015625)"/>
      <path id="ArialMT-4f" d="M 309 2231 
Q 309 3372 921 4017 
Q 1534 4663 2503 4663 
Q 3138 4663 3647 4359 
Q 4156 4056 4423 3514 
Q 4691 2972 4691 2284 
Q 4691 1588 4409 1038 
Q 4128 488 3612 205 
Q 3097 -78 2500 -78 
Q 1853 -78 1343 234 
Q 834 547 571 1087 
Q 309 1628 309 2231 
z
M 934 2222 
Q 934 1394 1379 917 
Q 1825 441 2497 441 
Q 3181 441 3623 922 
Q 4066 1403 4066 2288 
Q 4066 2847 3877 3264 
Q 3688 3681 3323 3911 
Q 2959 4141 2506 4141 
Q 1863 4141 1398 3698 
Q 934 3256 934 2222 
z
" transform="scale(0.015625)"/>
      <path id="ArialMT-6c" d="M 409 0 
L 409 4581 
L 972 4581 
L 972 0 
L 409 0 
z
" transform="scale(0.015625)"/>
      <path id="ArialMT-53" d="M 288 1472 
L 859 1522 
Q 900 1178 1048 958 
Q 1197 738 1509 602 
Q 1822 466 2213 466 
Q 2559 466 2825 569 
Q 3091 672 3220 851 
Q 3350 1031 3350 1244 
Q 3350 1459 3225 1620 
Q 3100 1781 2813 1891 
Q 2628 1963 1997 2114 
Q 1366 2266 1113 2400 
Q 784 2572 623 2826 
Q 463 3081 463 3397 
Q 463 3744 659 4045 
Q 856 4347 1234 4503 
Q 1613 4659 2075 4659 
Q 2584 4659 2973 4495 
Q 3363 4331 3572 4012 
Q 3781 3694 3797 3291 
L 3216 3247 
Q 3169 3681 2898 3903 
Q 2628 4125 2100 4125 
Q 1550 4125 1298 3923 
Q 1047 3722 1047 3438 
Q 1047 3191 1225 3031 
Q 1400 2872 2139 2705 
Q 2878 2538 3153 2413 
Q 3553 2228 3743 1945 
Q 3934 1663 3934 1294 
Q 3934 928 3725 604 
Q 3516 281 3123 101 
Q 2731 -78 2241 -78 
Q 1619 -78 1198 103 
Q 778 284 539 648 
Q 300 1013 288 1472 
z
" transform="scale(0.015625)"/>
      <path id="ArialMT-68" d="M 422 0 
L 422 4581 
L 984 4581 
L 984 2938 
Q 1378 3394 1978 3394 
Q 2347 3394 2619 3248 
Q 2891 3103 3008 2847 
Q 3125 2591 3125 2103 
L 3125 0 
L 2563 0 
L 2563 2103 
Q 2563 2525 2380 2717 
Q 2197 2909 1863 2909 
Q 1613 2909 1392 2779 
Q 1172 2650 1078 2428 
Q 984 2206 984 1816 
L 984 0 
L 422 0 
z
" transform="scale(0.015625)"/>
      <path id="ArialMT-75" d="M 2597 0 
L 2597 488 
Q 2209 -75 1544 -75 
Q 1250 -75 995 37 
Q 741 150 617 320 
Q 494 491 444 738 
Q 409 903 409 1263 
L 409 3319 
L 972 3319 
L 972 1478 
Q 972 1038 1006 884 
Q 1059 663 1231 536 
Q 1403 409 1656 409 
Q 1909 409 2131 539 
Q 2353 669 2445 892 
Q 2538 1116 2538 1541 
L 2538 3319 
L 3100 3319 
L 3100 0 
L 2597 0 
z
" transform="scale(0.015625)"/>
      <path id="ArialMT-66" d="M 556 0 
L 556 2881 
L 59 2881 
L 59 3319 
L 556 3319 
L 556 3672 
Q 556 4006 616 4169 
Q 697 4388 901 4523 
Q 1106 4659 1475 4659 
Q 1713 4659 2000 4603 
L 1916 4113 
Q 1741 4144 1584 4144 
Q 1328 4144 1222 4034 
Q 1116 3925 1116 3625 
L 1116 3319 
L 1763 3319 
L 1763 2881 
L 1116 2881 
L 1116 0 
L 556 0 
z
" transform="scale(0.015625)"/>
      <path id="ArialMT-64" d="M 2575 0 
L 2575 419 
Q 2259 -75 1647 -75 
Q 1250 -75 917 144 
Q 584 363 401 755 
Q 219 1147 219 1656 
Q 219 2153 384 2558 
Q 550 2963 881 3178 
Q 1213 3394 1622 3394 
Q 1922 3394 2156 3267 
Q 2391 3141 2538 2938 
L 2538 4581 
L 3097 4581 
L 3097 0 
L 2575 0 
z
M 797 1656 
Q 797 1019 1065 703 
Q 1334 388 1700 388 
Q 2069 388 2326 689 
Q 2584 991 2584 1609 
Q 2584 2291 2321 2609 
Q 2059 2928 1675 2928 
Q 1300 2928 1048 2622 
Q 797 2316 797 1656 
z
" transform="scale(0.015625)"/>
     </defs>
     <use xlink:href="#ArialMT-44"/>
     <use xlink:href="#ArialMT-69" x="72.216797"/>
     <use xlink:href="#ArialMT-76" x="94.433594"/>
     <use xlink:href="#ArialMT-65" x="144.433594"/>
     <use xlink:href="#ArialMT-72" x="200.048828"/>
     <use xlink:href="#ArialMT-67" x="233.349609"/>
     <use xlink:href="#ArialMT-65" x="288.964844"/>
     <use xlink:href="#ArialMT-6e" x="344.580078"/>
     <use xlink:href="#ArialMT-63" x="400.195312"/>
     <use xlink:href="#ArialMT-65" x="450.195312"/>
     <use xlink:href="#ArialMT-20" x="505.810547"/>
     <use xlink:href="#ArialMT-43" x="533.59375"/>
     <use xlink:href="#ArialMT-6f" x="605.810547"/>
     <use xlink:href="#ArialMT-6d" x="661.425781"/>
     <use xlink:href="#ArialMT-70" x="744.726562"/>
     <use xlink:href="#ArialMT-61" x="800.341797"/>
     <use xlink:href="#ArialMT-72" x="855.957031"/>
     <use xlink:href="#ArialMT-69" x="889.257812"/>
     <use xlink:href="#ArialMT-73" x="911.474609"/>
     <use xlink:href="#ArialMT-6f" x="961.474609"/>
     <use xlink:href="#ArialMT-6e" x="1017.089844"/>
     <use xlink:href="#ArialMT-3a" x="1072.705078"/>
     <use xlink:href="#ArialMT-20" x="1100.488281"/>
     <use xlink:href="#ArialMT-4f" x="1128.271484"/>
     <use xlink:href="#ArialMT-72" x="1206.054688"/>
     <use xlink:href="#ArialMT-69" x="1239.355469"/>
     <use xlink:href="#ArialMT-67" x="1261.572266"/>
     <use xlink:href="#ArialMT-69" x="1317.1875"/>
     <use xlink:href="#ArialMT-6e" x="1339.404297"/>
     <use xlink:href="#ArialMT-61" x="1395.019531"/>
     <use xlink:href="#ArialMT-6c" x="1450.634766"/>
     <use xlink:href="#ArialMT-20" x="1472.851562"/>
     <use xlink:href="#ArialMT-76" x="1500.634766"/>
     <use xlink:href="#ArialMT-73" x="1550.634766"/>
     <use xlink:href="#ArialMT-20" x="1600.634766"/>
     <use xlink:href="#ArialMT-53" x="1628.417969"/>
     <use xlink:href="#ArialMT-68" x="1695.117188"/>
     <use xlink:href="#ArialMT-75" x="1750.732422"/>
     <use xlink:href="#ArialMT-66" x="1806.347656"/>
     <use xlink:href="#ArialMT-66" x="1832.380859"/>
     <use xlink:href="#ArialMT-6c" x="1860.164062"/>
     <use xlink:href="#ArialMT-65" x="1882.380859"/>
     <use xlink:href="#ArialMT-64" x="1937.996094"/>
    </g>
   </g>
   <g id="legend_1">
    <g id="patch_5">
     <path d="M 615.14 258.915469 
L 704.741875 258.915469 
Q 706.941875 258.915469 706.941875 256.715469 
L 706.941875 147.784531 
Q 706.941875 145.584531 704.741875 145.584531 
L 615.14 145.584531 
Q 612.94 145.584531 612.94 147.784531 
L 612.94 256.715469 
Q 612.94 258.915469 615.14 258.915469 
z
" style="fill: #ffffff; opacity: 0.8; stroke: #cccccc; stroke-linejoin: miter"/>
    </g>
    <g id="line2d_9">
     <path d="M 617.34 154.149062 
L 628.34 154.149062 
L 639.34 154.149062 
" style="fill: none; stroke: #eb6ab0; stroke-width: 2; stroke-linecap: round"/>
    </g>
    <g id="text_20">
     <!-- Original -->
     <g style="fill: #262626" transform="translate(648.14 157.999062) scale(0.11 -0.11)">
      <use xlink:href="#ArialMT-4f"/>
      <use xlink:href="#ArialMT-72" x="77.783203"/>
      <use xlink:href="#ArialMT-69" x="111.083984"/>
      <use xlink:href="#ArialMT-67" x="133.300781"/>
      <use xlink:href="#ArialMT-69" x="188.916016"/>
      <use xlink:href="#ArialMT-6e" x="211.132812"/>
      <use xlink:href="#ArialMT-61" x="266.748047"/>
      <use xlink:href="#ArialMT-6c" x="322.363281"/>
     </g>
    </g>
    <g id="line2d_10">
     <path d="M 617.34 169.97875 
L 628.34 169.97875 
L 639.34 169.97875 
" style="fill: none; stroke-dasharray: 7.4,3.2; stroke-dashoffset: 0; stroke: #eb6ab0; stroke-width: 2"/>
    </g>
    <g id="text_21">
     <!-- Original -->
     <g style="fill: #262626" transform="translate(648.14 173.82875) scale(0.11 -0.11)">
      <use xlink:href="#ArialMT-4f"/>
      <use xlink:href="#ArialMT-72" x="77.783203"/>
      <use xlink:href="#ArialMT-69" x="111.083984"/>
      <use xlink:href="#ArialMT-67" x="133.300781"/>
      <use xlink:href="#ArialMT-69" x="188.916016"/>
      <use xlink:href="#ArialMT-6e" x="211.132812"/>
      <use xlink:href="#ArialMT-61" x="266.748047"/>
      <use xlink:href="#ArialMT-6c" x="322.363281"/>
     </g>
    </g>
    <g id="PathCollection_3">
     <g>
      <use xlink:href="#me56768d434" x="628.34" y="186.662656" style="fill: #eb6ab0; stroke: #eb6ab0"/>
     </g>
    </g>
    <g id="text_22">
     <!-- p &lt; 0.001 -->
     <g style="fill: #262626" transform="translate(648.14 189.550156) scale(0.11 -0.11)">
      <defs>
       <path id="ArialMT-3c" d="M 350 2003 
L 350 2528 
L 3384 3809 
L 3384 3250 
L 978 2263 
L 3384 1266 
L 3384 706 
L 350 2003 
z
" transform="scale(0.015625)"/>
      </defs>
      <use xlink:href="#ArialMT-70"/>
      <use xlink:href="#ArialMT-20" x="55.615234"/>
      <use xlink:href="#ArialMT-3c" x="83.398438"/>
      <use xlink:href="#ArialMT-20" x="141.796875"/>
      <use xlink:href="#ArialMT-30" x="169.580078"/>
      <use xlink:href="#ArialMT-2e" x="225.195312"/>
      <use xlink:href="#ArialMT-30" x="252.978516"/>
      <use xlink:href="#ArialMT-30" x="308.59375"/>
      <use xlink:href="#ArialMT-31" x="364.208984"/>
     </g>
    </g>
    <g id="line2d_11">
     <path d="M 617.34 201.26 
L 628.34 201.26 
L 639.34 201.26 
" style="fill: none; stroke-dasharray: 5.55,2.4; stroke-dashoffset: 0; stroke: #1a1a1a; stroke-width: 1.5"/>
    </g>
    <g id="text_23">
     <!-- Stim Onset -->
     <g style="fill: #262626" transform="translate(648.14 205.11) scale(0.11 -0.11)">
      <defs>
       <path id="ArialMT-74" d="M 1650 503 
L 1731 6 
Q 1494 -44 1306 -44 
Q 1000 -44 831 53 
Q 663 150 594 308 
Q 525 466 525 972 
L 525 2881 
L 113 2881 
L 113 3319 
L 525 3319 
L 525 4141 
L 1084 4478 
L 1084 3319 
L 1650 3319 
L 1650 2881 
L 1084 2881 
L 1084 941 
Q 1084 700 1114 631 
Q 1144 563 1211 522 
Q 1278 481 1403 481 
Q 1497 481 1650 503 
z
" transform="scale(0.015625)"/>
      </defs>
      <use xlink:href="#ArialMT-53"/>
      <use xlink:href="#ArialMT-74" x="66.699219"/>
      <use xlink:href="#ArialMT-69" x="94.482422"/>
      <use xlink:href="#ArialMT-6d" x="116.699219"/>
      <use xlink:href="#ArialMT-20" x="200"/>
      <use xlink:href="#ArialMT-4f" x="227.783203"/>
      <use xlink:href="#ArialMT-6e" x="305.566406"/>
      <use xlink:href="#ArialMT-73" x="361.181641"/>
      <use xlink:href="#ArialMT-65" x="411.181641"/>
      <use xlink:href="#ArialMT-74" x="466.796875"/>
     </g>
    </g>
    <g id="line2d_12">
     <path d="M 617.34 216.819844 
L 628.34 216.819844 
L 639.34 216.819844 
" style="fill: none; stroke-dasharray: 5.55,2.4; stroke-dashoffset: 0; stroke: #1a1a1a; stroke-width: 1.5"/>
    </g>
    <g id="text_24">
     <!-- Stim End -->
     <g style="fill: #262626" transform="translate(648.14 220.669844) scale(0.11 -0.11)">
      <defs>
       <path id="ArialMT-45" d="M 506 0 
L 506 4581 
L 3819 4581 
L 3819 4041 
L 1113 4041 
L 1113 2638 
L 3647 2638 
L 3647 2100 
L 1113 2100 
L 1113 541 
L 3925 541 
L 3925 0 
L 506 0 
z
" transform="scale(0.015625)"/>
      </defs>
      <use xlink:href="#ArialMT-53"/>
      <use xlink:href="#ArialMT-74" x="66.699219"/>
      <use xlink:href="#ArialMT-69" x="94.482422"/>
      <use xlink:href="#ArialMT-6d" x="116.699219"/>
      <use xlink:href="#ArialMT-20" x="200"/>
      <use xlink:href="#ArialMT-45" x="227.783203"/>
      <use xlink:href="#ArialMT-6e" x="294.482422"/>
      <use xlink:href="#ArialMT-64" x="350.097656"/>
     </g>
    </g>
    <g id="line2d_13">
     <path d="M 617.34 232.520625 
L 628.34 232.520625 
L 639.34 232.520625 
" style="fill: none; stroke: #8b0a50; stroke-width: 2; stroke-linecap: round"/>
    </g>
    <g id="text_25">
     <!-- Original -->
     <g style="fill: #262626" transform="translate(648.14 236.370625) scale(0.11 -0.11)">
      <use xlink:href="#ArialMT-4f"/>
      <use xlink:href="#ArialMT-72" x="77.783203"/>
      <use xlink:href="#ArialMT-69" x="111.083984"/>
      <use xlink:href="#ArialMT-67" x="133.300781"/>
      <use xlink:href="#ArialMT-69" x="188.916016"/>
      <use xlink:href="#ArialMT-6e" x="211.132812"/>
      <use xlink:href="#ArialMT-61" x="266.748047"/>
      <use xlink:href="#ArialMT-6c" x="322.363281"/>
     </g>
    </g>
    <g id="line2d_14">
     <path d="M 617.34 248.350313 
L 628.34 248.350313 
L 639.34 248.350313 
" style="fill: none; stroke-dasharray: 7.4,3.2; stroke-dashoffset: 0; stroke: #8b0a50; stroke-width: 2"/>
    </g>
    <g id="text_26">
     <!-- Original -->
     <g style="fill: #262626" transform="translate(648.14 252.200312) scale(0.11 -0.11)">
      <use xlink:href="#ArialMT-4f"/>
      <use xlink:href="#ArialMT-72" x="77.783203"/>
      <use xlink:href="#ArialMT-69" x="111.083984"/>
      <use xlink:href="#ArialMT-67" x="133.300781"/>
      <use xlink:href="#ArialMT-69" x="188.916016"/>
      <use xlink:href="#ArialMT-6e" x="211.132812"/>
      <use xlink:href="#ArialMT-61" x="266.748047"/>
      <use xlink:href="#ArialMT-6c" x="322.363281"/>
     </g>
    </g>
   </g>
  </g>
 </g>
 <defs>
  <clipPath id="pc637a7ba01">
   <rect x="78.46" y="26.96" width="528.98" height="350.58"/>
  </clipPath>
 </defs>
</svg>
