<?xml version="1.0" encoding="utf-8" standalone="no"?>
<!DOCTYPE svg PUBLIC "-//W3C//DTD SVG 1.1//EN"
  "http://www.w3.org/Graphics/SVG/1.1/DTD/svg11.dtd">
<svg xmlns:xlink="http://www.w3.org/1999/xlink" width="720pt" height="432pt" viewBox="0 0 720 432" xmlns="http://www.w3.org/2000/svg" version="1.1">
 <metadata>
  <rdf:RDF xmlns:dc="http://purl.org/dc/elements/1.1/" xmlns:cc="http://creativecommons.org/ns#" xmlns:rdf="http://www.w3.org/1999/02/22-rdf-syntax-ns#">
   <cc:Work>
    <dc:type rdf:resource="http://purl.org/dc/dcmitype/StillImage"/>
    <dc:date>2025-08-23T23:18:26.510401</dc:date>
    <dc:format>image/svg+xml</dc:format>
    <dc:creator>
     <cc:Agent>
      <dc:title>Matplotlib v3.9.4, https://matplotlib.org/</dc:title>
     </cc:Agent>
    </dc:creator>
   </cc:Work>
  </rdf:RDF>
 </metadata>
 <defs>
  <style type="text/css">*{stroke-linejoin: round; stroke-linecap: butt}</style>
 </defs>
 <g id="figure_1">
  <g id="patch_1">
   <path d="M 0 432 
L 720 432 
L 720 0 
L 0 0 
z
" style="fill: #ffffff"/>
  </g>
  <g id="axes_1">
   <g id="patch_2">
    <path d="M 78.3 378.18 
L 607.76 378.18 
L 607.76 27.6 
L 78.3 27.6 
L 78.3 378.18 
z
" style="fill: none"/>
   </g>
   <g id="matplotlib.axis_1">
    <g id="xtick_1">
     <g id="text_1">
      <!-- 0 -->
      <g style="fill: #262626" transform="translate(133.414729 398.416719) scale(0.15 -0.15)">
       <defs>
        <path id="ArialMT-30" d="M 266 2259 
Q 266 3072 433 3567 
Q 600 4063 929 4331 
Q 1259 4600 1759 4600 
Q 2128 4600 2406 4451 
Q 2684 4303 2865 4023 
Q 3047 3744 3150 3342 
Q 3253 2941 3253 2259 
Q 3253 1453 3087 958 
Q 2922 463 2592 192 
Q 2263 -78 1759 -78 
Q 1097 -78 719 397 
Q 266 969 266 2259 
z
M 844 2259 
Q 844 1131 1108 757 
Q 1372 384 1759 384 
Q 2147 384 2411 759 
Q 2675 1134 2675 2259 
Q 2675 3391 2411 3762 
Q 2147 4134 1753 4134 
Q 1366 4134 1134 3806 
Q 844 3388 844 2259 
z
" transform="scale(0.015625)"/>
       </defs>
       <use xlink:href="#ArialMT-30"/>
      </g>
     </g>
    </g>
    <g id="xtick_2">
     <g id="text_2">
      <!-- 250 -->
      <g style="fill: #262626" transform="translate(198.446383 398.416719) scale(0.15 -0.15)">
       <defs>
        <path id="ArialMT-32" d="M 3222 541 
L 3222 0 
L 194 0 
Q 188 203 259 391 
Q 375 700 629 1000 
Q 884 1300 1366 1694 
Q 2113 2306 2375 2664 
Q 2638 3022 2638 3341 
Q 2638 3675 2398 3904 
Q 2159 4134 1775 4134 
Q 1369 4134 1125 3890 
Q 881 3647 878 3216 
L 300 3275 
Q 359 3922 746 4261 
Q 1134 4600 1788 4600 
Q 2447 4600 2831 4234 
Q 3216 3869 3216 3328 
Q 3216 3053 3103 2787 
Q 2991 2522 2730 2228 
Q 2469 1934 1863 1422 
Q 1356 997 1212 845 
Q 1069 694 975 541 
L 3222 541 
z
" transform="scale(0.015625)"/>
        <path id="ArialMT-35" d="M 266 1200 
L 856 1250 
Q 922 819 1161 601 
Q 1400 384 1738 384 
Q 2144 384 2425 690 
Q 2706 997 2706 1503 
Q 2706 1984 2436 2262 
Q 2166 2541 1728 2541 
Q 1456 2541 1237 2417 
Q 1019 2294 894 2097 
L 366 2166 
L 809 4519 
L 3088 4519 
L 3088 3981 
L 1259 3981 
L 1013 2750 
Q 1425 3038 1878 3038 
Q 2478 3038 2890 2622 
Q 3303 2206 3303 1553 
Q 3303 931 2941 478 
Q 2500 -78 1738 -78 
Q 1113 -78 717 272 
Q 322 622 266 1200 
z
" transform="scale(0.015625)"/>
       </defs>
       <use xlink:href="#ArialMT-32"/>
       <use xlink:href="#ArialMT-35" x="55.615234"/>
       <use xlink:href="#ArialMT-30" x="111.230469"/>
      </g>
     </g>
    </g>
    <g id="xtick_3">
     <g id="text_3">
      <!-- 500 -->
      <g style="fill: #262626" transform="translate(271.819443 398.416719) scale(0.15 -0.15)">
       <use xlink:href="#ArialMT-35"/>
       <use xlink:href="#ArialMT-30" x="55.615234"/>
       <use xlink:href="#ArialMT-30" x="111.230469"/>
      </g>
     </g>
    </g>
    <g id="xtick_4">
     <g id="text_4">
      <!-- 750 -->
      <g style="fill: #262626" transform="translate(345.192503 398.416719) scale(0.15 -0.15)">
       <defs>
        <path id="ArialMT-37" d="M 303 3981 
L 303 4522 
L 3269 4522 
L 3269 4084 
Q 2831 3619 2401 2847 
Q 1972 2075 1738 1259 
Q 1569 684 1522 0 
L 944 0 
Q 953 541 1156 1306 
Q 1359 2072 1739 2783 
Q 2119 3494 2547 3981 
L 303 3981 
z
" transform="scale(0.015625)"/>
       </defs>
       <use xlink:href="#ArialMT-37"/>
       <use xlink:href="#ArialMT-35" x="55.615234"/>
       <use xlink:href="#ArialMT-30" x="111.230469"/>
      </g>
     </g>
    </g>
    <g id="xtick_5">
     <g id="text_5">
      <!-- 1000 -->
      <g style="fill: #262626" transform="translate(414.394859 398.416719) scale(0.15 -0.15)">
       <defs>
        <path id="ArialMT-31" d="M 2384 0 
L 1822 0 
L 1822 3584 
Q 1619 3391 1289 3197 
Q 959 3003 697 2906 
L 697 3450 
Q 1169 3672 1522 3987 
Q 1875 4303 2022 4600 
L 2384 4600 
L 2384 0 
z
" transform="scale(0.015625)"/>
       </defs>
       <use xlink:href="#ArialMT-31"/>
       <use xlink:href="#ArialMT-30" x="55.615234"/>
       <use xlink:href="#ArialMT-30" x="111.230469"/>
       <use xlink:href="#ArialMT-30" x="166.845703"/>
      </g>
     </g>
    </g>
    <g id="xtick_6">
     <g id="text_6">
      <!-- 1250 -->
      <g style="fill: #262626" transform="translate(487.767919 398.416719) scale(0.15 -0.15)">
       <use xlink:href="#ArialMT-31"/>
       <use xlink:href="#ArialMT-32" x="55.615234"/>
       <use xlink:href="#ArialMT-35" x="111.230469"/>
       <use xlink:href="#ArialMT-30" x="166.845703"/>
      </g>
     </g>
    </g>
    <g id="xtick_7">
     <g id="text_7">
      <!-- 1500 -->
      <g style="fill: #262626" transform="translate(561.140979 398.416719) scale(0.15 -0.15)">
       <use xlink:href="#ArialMT-31"/>
       <use xlink:href="#ArialMT-35" x="55.615234"/>
       <use xlink:href="#ArialMT-30" x="111.230469"/>
       <use xlink:href="#ArialMT-30" x="166.845703"/>
      </g>
     </g>
    </g>
    <g id="text_8">
     <!-- Time (s) -->
     <g style="fill: #262626" transform="translate(315.817891 416.3175) scale(0.15 -0.15)">
      <defs>
       <path id="ArialMT-54" d="M 1659 0 
L 1659 4041 
L 150 4041 
L 150 4581 
L 3781 4581 
L 3781 4041 
L 2266 4041 
L 2266 0 
L 1659 0 
z
" transform="scale(0.015625)"/>
       <path id="ArialMT-69" d="M 425 3934 
L 425 4581 
L 988 4581 
L 988 3934 
L 425 3934 
z
M 425 0 
L 425 3319 
L 988 3319 
L 988 0 
L 425 0 
z
" transform="scale(0.015625)"/>
       <path id="ArialMT-6d" d="M 422 0 
L 422 3319 
L 925 3319 
L 925 2853 
Q 1081 3097 1340 3245 
Q 1600 3394 1931 3394 
Q 2300 3394 2536 3241 
Q 2772 3088 2869 2813 
Q 3263 3394 3894 3394 
Q 4388 3394 4653 3120 
Q 4919 2847 4919 2278 
L 4919 0 
L 4359 0 
L 4359 2091 
Q 4359 2428 4304 2576 
Q 4250 2725 4106 2815 
Q 3963 2906 3769 2906 
Q 3419 2906 3187 2673 
Q 2956 2441 2956 1928 
L 2956 0 
L 2394 0 
L 2394 2156 
Q 2394 2531 2256 2718 
Q 2119 2906 1806 2906 
Q 1569 2906 1367 2781 
Q 1166 2656 1075 2415 
Q 984 2175 984 1722 
L 984 0 
L 422 0 
z
" transform="scale(0.015625)"/>
       <path id="ArialMT-65" d="M 2694 1069 
L 3275 997 
Q 3138 488 2766 206 
Q 2394 -75 1816 -75 
Q 1088 -75 661 373 
Q 234 822 234 1631 
Q 234 2469 665 2931 
Q 1097 3394 1784 3394 
Q 2450 3394 2872 2941 
Q 3294 2488 3294 1666 
Q 3294 1616 3291 1516 
L 816 1516 
Q 847 969 1125 678 
Q 1403 388 1819 388 
Q 2128 388 2347 550 
Q 2566 713 2694 1069 
z
M 847 1978 
L 2700 1978 
Q 2663 2397 2488 2606 
Q 2219 2931 1791 2931 
Q 1403 2931 1139 2672 
Q 875 2413 847 1978 
z
" transform="scale(0.015625)"/>
       <path id="ArialMT-20" transform="scale(0.015625)"/>
       <path id="ArialMT-28" d="M 1497 -1347 
Q 1031 -759 709 28 
Q 388 816 388 1659 
Q 388 2403 628 3084 
Q 909 3875 1497 4659 
L 1900 4659 
Q 1522 4009 1400 3731 
Q 1209 3300 1100 2831 
Q 966 2247 966 1656 
Q 966 153 1900 -1347 
L 1497 -1347 
z
" transform="scale(0.015625)"/>
       <path id="ArialMT-73" d="M 197 991 
L 753 1078 
Q 800 744 1014 566 
Q 1228 388 1613 388 
Q 2000 388 2187 545 
Q 2375 703 2375 916 
Q 2375 1106 2209 1216 
Q 2094 1291 1634 1406 
Q 1016 1563 777 1677 
Q 538 1791 414 1992 
Q 291 2194 291 2438 
Q 291 2659 392 2848 
Q 494 3038 669 3163 
Q 800 3259 1026 3326 
Q 1253 3394 1513 3394 
Q 1903 3394 2198 3281 
Q 2494 3169 2634 2976 
Q 2775 2784 2828 2463 
L 2278 2388 
Q 2241 2644 2061 2787 
Q 1881 2931 1553 2931 
Q 1166 2931 1000 2803 
Q 834 2675 834 2503 
Q 834 2394 903 2306 
Q 972 2216 1119 2156 
Q 1203 2125 1616 2013 
Q 2213 1853 2448 1751 
Q 2684 1650 2818 1456 
Q 2953 1263 2953 975 
Q 2953 694 2789 445 
Q 2625 197 2315 61 
Q 2006 -75 1616 -75 
Q 969 -75 630 194 
Q 291 463 197 991 
z
" transform="scale(0.015625)"/>
       <path id="ArialMT-29" d="M 791 -1347 
L 388 -1347 
Q 1322 153 1322 1656 
Q 1322 2244 1188 2822 
Q 1081 3291 891 3722 
Q 769 4003 388 4659 
L 791 4659 
Q 1378 3875 1659 3084 
Q 1900 2403 1900 1659 
Q 1900 816 1576 28 
Q 1253 -759 791 -1347 
z
" transform="scale(0.015625)"/>
      </defs>
      <use xlink:href="#ArialMT-54"/>
      <use xlink:href="#ArialMT-69" x="57.333984"/>
      <use xlink:href="#ArialMT-6d" x="79.550781"/>
      <use xlink:href="#ArialMT-65" x="162.851562"/>
      <use xlink:href="#ArialMT-20" x="218.466797"/>
      <use xlink:href="#ArialMT-28" x="246.25"/>
      <use xlink:href="#ArialMT-73" x="279.550781"/>
      <use xlink:href="#ArialMT-29" x="329.550781"/>
     </g>
    </g>
   </g>
   <g id="matplotlib.axis_2">
    <g id="ytick_1">
     <g id="text_9">
      <!-- −0.02 -->
      <g style="fill: #262626" transform="translate(30.847656 367.612905) scale(0.15 -0.15)">
       <defs>
        <path id="ArialMT-2212" d="M 3381 1997 
L 356 1997 
L 356 2522 
L 3381 2522 
L 3381 1997 
z
" transform="scale(0.015625)"/>
        <path id="ArialMT-2e" d="M 581 0 
L 581 641 
L 1222 641 
L 1222 0 
L 581 0 
z
" transform="scale(0.015625)"/>
       </defs>
       <use xlink:href="#ArialMT-2212"/>
       <use xlink:href="#ArialMT-30" x="58.398438"/>
       <use xlink:href="#ArialMT-2e" x="114.013672"/>
       <use xlink:href="#ArialMT-30" x="141.796875"/>
       <use xlink:href="#ArialMT-32" x="197.412109"/>
      </g>
     </g>
    </g>
    <g id="ytick_2">
     <g id="text_10">
      <!-- 0.00 -->
      <g style="fill: #262626" transform="translate(39.608594 324.862092) scale(0.15 -0.15)">
       <use xlink:href="#ArialMT-30"/>
       <use xlink:href="#ArialMT-2e" x="55.615234"/>
       <use xlink:href="#ArialMT-30" x="83.398438"/>
       <use xlink:href="#ArialMT-30" x="139.013672"/>
      </g>
     </g>
    </g>
    <g id="ytick_3">
     <g id="text_11">
      <!-- 0.02 -->
      <g style="fill: #262626" transform="translate(39.608594 282.11128) scale(0.15 -0.15)">
       <use xlink:href="#ArialMT-30"/>
       <use xlink:href="#ArialMT-2e" x="55.615234"/>
       <use xlink:href="#ArialMT-30" x="83.398438"/>
       <use xlink:href="#ArialMT-32" x="139.013672"/>
      </g>
     </g>
    </g>
    <g id="ytick_4">
     <g id="text_12">
      <!-- 0.04 -->
      <g style="fill: #262626" transform="translate(39.608594 239.360467) scale(0.15 -0.15)">
       <defs>
        <path id="ArialMT-34" d="M 2069 0 
L 2069 1097 
L 81 1097 
L 81 1613 
L 2172 4581 
L 2631 4581 
L 2631 1613 
L 3250 1613 
L 3250 1097 
L 2631 1097 
L 2631 0 
L 2069 0 
z
M 2069 1613 
L 2069 3678 
L 634 1613 
L 2069 1613 
z
" transform="scale(0.015625)"/>
       </defs>
       <use xlink:href="#ArialMT-30"/>
       <use xlink:href="#ArialMT-2e" x="55.615234"/>
       <use xlink:href="#ArialMT-30" x="83.398438"/>
       <use xlink:href="#ArialMT-34" x="139.013672"/>
      </g>
     </g>
    </g>
    <g id="ytick_5">
     <g id="text_13">
      <!-- 0.06 -->
      <g style="fill: #262626" transform="translate(39.608594 196.609655) scale(0.15 -0.15)">
       <defs>
        <path id="ArialMT-36" d="M 3184 3459 
L 2625 3416 
Q 2550 3747 2413 3897 
Q 2184 4138 1850 4138 
Q 1581 4138 1378 3988 
Q 1113 3794 959 3422 
Q 806 3050 800 2363 
Q 1003 2672 1297 2822 
Q 1591 2972 1913 2972 
Q 2475 2972 2870 2558 
Q 3266 2144 3266 1488 
Q 3266 1056 3080 686 
Q 2894 316 2569 119 
Q 2244 -78 1831 -78 
Q 1128 -78 684 439 
Q 241 956 241 2144 
Q 241 3472 731 4075 
Q 1159 4600 1884 4600 
Q 2425 4600 2770 4297 
Q 3116 3994 3184 3459 
z
M 888 1484 
Q 888 1194 1011 928 
Q 1134 663 1356 523 
Q 1578 384 1822 384 
Q 2178 384 2434 671 
Q 2691 959 2691 1453 
Q 2691 1928 2437 2201 
Q 2184 2475 1800 2475 
Q 1419 2475 1153 2201 
Q 888 1928 888 1484 
z
" transform="scale(0.015625)"/>
       </defs>
       <use xlink:href="#ArialMT-30"/>
       <use xlink:href="#ArialMT-2e" x="55.615234"/>
       <use xlink:href="#ArialMT-30" x="83.398438"/>
       <use xlink:href="#ArialMT-36" x="139.013672"/>
      </g>
     </g>
    </g>
    <g id="ytick_6">
     <g id="text_14">
      <!-- 0.08 -->
      <g style="fill: #262626" transform="translate(39.608594 153.858842) scale(0.15 -0.15)">
       <defs>
        <path id="ArialMT-38" d="M 1131 2484 
Q 781 2613 612 2850 
Q 444 3088 444 3419 
Q 444 3919 803 4259 
Q 1163 4600 1759 4600 
Q 2359 4600 2725 4251 
Q 3091 3903 3091 3403 
Q 3091 3084 2923 2848 
Q 2756 2613 2416 2484 
Q 2838 2347 3058 2040 
Q 3278 1734 3278 1309 
Q 3278 722 2862 322 
Q 2447 -78 1769 -78 
Q 1091 -78 675 323 
Q 259 725 259 1325 
Q 259 1772 486 2073 
Q 713 2375 1131 2484 
z
M 1019 3438 
Q 1019 3113 1228 2906 
Q 1438 2700 1772 2700 
Q 2097 2700 2305 2904 
Q 2513 3109 2513 3406 
Q 2513 3716 2298 3927 
Q 2084 4138 1766 4138 
Q 1444 4138 1231 3931 
Q 1019 3725 1019 3438 
z
M 838 1322 
Q 838 1081 952 856 
Q 1066 631 1291 507 
Q 1516 384 1775 384 
Q 2178 384 2440 643 
Q 2703 903 2703 1303 
Q 2703 1709 2433 1975 
Q 2163 2241 1756 2241 
Q 1359 2241 1098 1978 
Q 838 1716 838 1322 
z
" transform="scale(0.015625)"/>
       </defs>
       <use xlink:href="#ArialMT-30"/>
       <use xlink:href="#ArialMT-2e" x="55.615234"/>
       <use xlink:href="#ArialMT-30" x="83.398438"/>
       <use xlink:href="#ArialMT-38" x="139.013672"/>
      </g>
     </g>
    </g>
    <g id="ytick_7">
     <g id="text_15">
      <!-- 0.10 -->
      <g style="fill: #262626" transform="translate(39.608594 111.10803) scale(0.15 -0.15)">
       <use xlink:href="#ArialMT-30"/>
       <use xlink:href="#ArialMT-2e" x="55.615234"/>
       <use xlink:href="#ArialMT-31" x="83.398438"/>
       <use xlink:href="#ArialMT-30" x="139.013672"/>
      </g>
     </g>
    </g>
    <g id="ytick_8">
     <g id="text_16">
      <!-- 0.12 -->
      <g style="fill: #262626" transform="translate(39.608594 68.357217) scale(0.15 -0.15)">
       <use xlink:href="#ArialMT-30"/>
       <use xlink:href="#ArialMT-2e" x="55.615234"/>
       <use xlink:href="#ArialMT-31" x="83.398438"/>
       <use xlink:href="#ArialMT-32" x="139.013672"/>
      </g>
     </g>
    </g>
    <g id="text_17">
     <!-- Divergence -->
     <g style="fill: #262626" transform="translate(23.690625 240.823594) rotate(-90) scale(0.15 -0.15)">
      <defs>
       <path id="ArialMT-44" d="M 494 0 
L 494 4581 
L 2072 4581 
Q 2606 4581 2888 4516 
Q 3281 4425 3559 4188 
Q 3922 3881 4101 3404 
Q 4281 2928 4281 2316 
Q 4281 1794 4159 1391 
Q 4038 988 3847 723 
Q 3656 459 3429 307 
Q 3203 156 2883 78 
Q 2563 0 2147 0 
L 494 0 
z
M 1100 541 
L 2078 541 
Q 2531 541 2789 625 
Q 3047 709 3200 863 
Q 3416 1078 3536 1442 
Q 3656 1806 3656 2325 
Q 3656 3044 3420 3430 
Q 3184 3816 2847 3947 
Q 2603 4041 2063 4041 
L 1100 4041 
L 1100 541 
z
" transform="scale(0.015625)"/>
       <path id="ArialMT-76" d="M 1344 0 
L 81 3319 
L 675 3319 
L 1388 1331 
Q 1503 1009 1600 663 
Q 1675 925 1809 1294 
L 2547 3319 
L 3125 3319 
L 1869 0 
L 1344 0 
z
" transform="scale(0.015625)"/>
       <path id="ArialMT-72" d="M 416 0 
L 416 3319 
L 922 3319 
L 922 2816 
Q 1116 3169 1280 3281 
Q 1444 3394 1641 3394 
Q 1925 3394 2219 3213 
L 2025 2691 
Q 1819 2813 1613 2813 
Q 1428 2813 1281 2702 
Q 1134 2591 1072 2394 
Q 978 2094 978 1738 
L 978 0 
L 416 0 
z
" transform="scale(0.015625)"/>
       <path id="ArialMT-67" d="M 319 -275 
L 866 -356 
Q 900 -609 1056 -725 
Q 1266 -881 1628 -881 
Q 2019 -881 2231 -725 
Q 2444 -569 2519 -288 
Q 2563 -116 2559 434 
Q 2191 0 1641 0 
Q 956 0 581 494 
Q 206 988 206 1678 
Q 206 2153 378 2554 
Q 550 2956 876 3175 
Q 1203 3394 1644 3394 
Q 2231 3394 2613 2919 
L 2613 3319 
L 3131 3319 
L 3131 450 
Q 3131 -325 2973 -648 
Q 2816 -972 2473 -1159 
Q 2131 -1347 1631 -1347 
Q 1038 -1347 672 -1080 
Q 306 -813 319 -275 
z
M 784 1719 
Q 784 1066 1043 766 
Q 1303 466 1694 466 
Q 2081 466 2343 764 
Q 2606 1063 2606 1700 
Q 2606 2309 2336 2618 
Q 2066 2928 1684 2928 
Q 1309 2928 1046 2623 
Q 784 2319 784 1719 
z
" transform="scale(0.015625)"/>
       <path id="ArialMT-6e" d="M 422 0 
L 422 3319 
L 928 3319 
L 928 2847 
Q 1294 3394 1984 3394 
Q 2284 3394 2536 3286 
Q 2788 3178 2913 3003 
Q 3038 2828 3088 2588 
Q 3119 2431 3119 2041 
L 3119 0 
L 2556 0 
L 2556 2019 
Q 2556 2363 2490 2533 
Q 2425 2703 2258 2804 
Q 2091 2906 1866 2906 
Q 1506 2906 1245 2678 
Q 984 2450 984 1813 
L 984 0 
L 422 0 
z
" transform="scale(0.015625)"/>
       <path id="ArialMT-63" d="M 2588 1216 
L 3141 1144 
Q 3050 572 2676 248 
Q 2303 -75 1759 -75 
Q 1078 -75 664 370 
Q 250 816 250 1647 
Q 250 2184 428 2587 
Q 606 2991 970 3192 
Q 1334 3394 1763 3394 
Q 2303 3394 2647 3120 
Q 2991 2847 3088 2344 
L 2541 2259 
Q 2463 2594 2264 2762 
Q 2066 2931 1784 2931 
Q 1359 2931 1093 2626 
Q 828 2322 828 1663 
Q 828 994 1084 691 
Q 1341 388 1753 388 
Q 2084 388 2306 591 
Q 2528 794 2588 1216 
z
" transform="scale(0.015625)"/>
      </defs>
      <use xlink:href="#ArialMT-44"/>
      <use xlink:href="#ArialMT-69" x="72.216797"/>
      <use xlink:href="#ArialMT-76" x="94.433594"/>
      <use xlink:href="#ArialMT-65" x="144.433594"/>
      <use xlink:href="#ArialMT-72" x="200.048828"/>
      <use xlink:href="#ArialMT-67" x="233.349609"/>
      <use xlink:href="#ArialMT-65" x="288.964844"/>
      <use xlink:href="#ArialMT-6e" x="344.580078"/>
      <use xlink:href="#ArialMT-63" x="400.195312"/>
      <use xlink:href="#ArialMT-65" x="450.195312"/>
     </g>
    </g>
   </g>
   <g id="PolyCollection_1">
    <defs>
     <path id="m224f5f6d0e" d="M 102.366364 -111.428329 
L 102.366364 -101.964426 
L 114.106053 -108.321653 
L 125.845743 -111.673765 
L 137.585432 -127.112606 
L 149.325122 -159.180241 
L 161.064812 -177.454706 
L 172.804501 -189.556657 
L 184.544191 -192.041142 
L 196.28388 -250.0796 
L 208.02357 -275.310732 
L 219.763259 -190.291422 
L 231.502949 -171.354921 
L 243.242639 -221.165909 
L 254.982328 -269.298883 
L 266.722018 -227.886386 
L 278.461707 -190.598524 
L 290.201397 -247.969016 
L 301.941086 -314.891724 
L 313.680776 -332.819288 
L 325.420466 -344.715812 
L 337.160155 -319.860654 
L 348.899845 -232.809959 
L 360.639534 -260.691654 
L 372.379224 -295.922109 
L 384.118914 -323.732514 
L 395.858603 -243.328299 
L 407.598293 -177.771668 
L 419.337982 -212.255136 
L 431.077672 -219.519414 
L 442.817361 -175.340752 
L 454.557051 -159.543011 
L 466.296741 -152.970705 
L 478.03643 -156.527961 
L 489.77612 -158.484854 
L 501.515809 -154.9803 
L 513.255499 -150.143317 
L 524.995188 -157.527615 
L 536.734878 -162.206546 
L 548.474568 -157.750494 
L 560.214257 -157.311363 
L 571.953947 -155.507209 
L 583.693636 -133.098809 
L 583.693636 -142.702773 
L 583.693636 -142.702773 
L 571.953947 -168.94872 
L 560.214257 -170.757823 
L 548.474568 -171.424955 
L 536.734878 -175.67708 
L 524.995188 -170.653049 
L 513.255499 -163.487914 
L 501.515809 -169.025382 
L 489.77612 -172.964769 
L 478.03643 -170.606529 
L 466.296741 -167.748839 
L 454.557051 -173.016057 
L 442.817361 -190.090072 
L 431.077672 -240.144296 
L 419.337982 -241.832531 
L 407.598293 -203.118733 
L 395.858603 -273.547095 
L 384.118914 -360.236069 
L 372.379224 -327.333356 
L 360.639534 -290.271193 
L 348.899845 -267.088655 
L 337.160155 -360.278161 
L 325.420466 -386.138749 
L 313.680776 -375.41646 
L 301.941086 -356.474235 
L 290.201397 -291.744251 
L 278.461707 -243.96962 
L 266.722018 -285.500604 
L 254.982328 -321.187138 
L 243.242639 -249.703782 
L 231.502949 -206.232649 
L 219.763259 -232.312926 
L 208.02357 -326.224073 
L 196.28388 -296.529233 
L 184.544191 -232.596909 
L 172.804501 -219.73458 
L 161.064812 -200.533016 
L 149.325122 -178.680719 
L 137.585432 -138.547548 
L 125.845743 -117.157776 
L 114.106053 -115.659584 
L 102.366364 -111.428329 
z
" style="stroke: #8b0a50; stroke-opacity: 0.1"/>
    </defs>
    <g clip-path="url(#p49e3faae6c)">
     <use xlink:href="#m224f5f6d0e" x="0" y="432" style="fill: #8b0a50; fill-opacity: 0.1; stroke: #8b0a50; stroke-opacity: 0.1"/>
    </g>
   </g>
   <g id="PolyCollection_2">
    <defs>
     <path id="m73a079f9dc" d="M 102.366364 -114.130625 
L 102.366364 -112.969072 
L 114.106053 -113.061053 
L 125.845743 -112.874897 
L 137.585432 -109.672836 
L 149.325122 -111.558064 
L 161.064812 -119.656969 
L 172.804501 -121.183503 
L 184.544191 -119.888207 
L 196.28388 -131.757951 
L 208.02357 -134.541496 
L 219.763259 -129.501568 
L 231.502949 -135.374214 
L 243.242639 -132.329546 
L 254.982328 -126.16849 
L 266.722018 -121.001656 
L 278.461707 -119.668852 
L 290.201397 -138.012645 
L 301.941086 -154.880226 
L 313.680776 -149.853654 
L 325.420466 -130.142497 
L 337.160155 -121.877786 
L 348.899845 -120.273276 
L 360.639534 -125.214257 
L 372.379224 -129.386249 
L 384.118914 -135.798533 
L 395.858603 -134.148846 
L 407.598293 -125.88631 
L 419.337982 -127.490348 
L 431.077672 -121.217489 
L 442.817361 -115.21526 
L 454.557051 -114.709353 
L 466.296741 -115.321379 
L 478.03643 -116.310674 
L 489.77612 -116.237443 
L 501.515809 -115.70764 
L 513.255499 -115.669259 
L 524.995188 -115.463991 
L 536.734878 -114.836283 
L 548.474568 -115.457799 
L 560.214257 -115.539811 
L 571.953947 -115.219955 
L 583.693636 -113.562222 
L 583.693636 -114.344274 
L 583.693636 -114.344274 
L 571.953947 -116.220215 
L 560.214257 -116.582821 
L 548.474568 -116.456835 
L 536.734878 -115.993633 
L 524.995188 -116.818672 
L 513.255499 -116.868642 
L 501.515809 -116.813215 
L 489.77612 -117.454677 
L 478.03643 -117.457431 
L 466.296741 -116.485968 
L 454.557051 -115.804571 
L 442.817361 -116.481242 
L 431.077672 -123.212102 
L 419.337982 -131.671293 
L 407.598293 -129.74949 
L 395.858603 -137.663082 
L 384.118914 -139.400764 
L 372.379224 -133.311634 
L 360.639534 -129.177236 
L 348.899845 -125.204114 
L 337.160155 -126.671552 
L 325.420466 -134.198798 
L 313.680776 -153.633943 
L 301.941086 -158.818318 
L 290.201397 -141.700396 
L 278.461707 -124.327871 
L 266.722018 -126.1164 
L 254.982328 -130.604914 
L 243.242639 -135.994222 
L 231.502949 -139.127094 
L 219.763259 -133.277417 
L 208.02357 -138.130079 
L 196.28388 -135.244499 
L 184.544191 -123.220286 
L 172.804501 -124.568747 
L 161.064812 -122.31605 
L 149.325122 -113.736131 
L 137.585432 -111.359711 
L 125.845743 -113.896904 
L 114.106053 -114.275426 
L 102.366364 -114.130625 
z
" style="stroke: #8b0a50; stroke-opacity: 0.1"/>
    </defs>
    <g clip-path="url(#p49e3faae6c)">
     <use xlink:href="#m73a079f9dc" x="0" y="432" style="fill: #8b0a50; fill-opacity: 0.1; stroke: #8b0a50; stroke-opacity: 0.1"/>
    </g>
   </g>
   <g id="PathCollection_1">
    <defs>
     <path id="mf051fb2dfc" d="M 0 -3 
L -0.673542 -0.927051 
L -2.85317 -0.927051 
L -1.089814 0.354102 
L -1.763356 2.427051 
L -0 1.145898 
L 1.763356 2.427051 
L 1.089814 0.354102 
L 2.85317 -0.927051 
L 0.673542 -0.927051 
z
" style="stroke: #8b0a50"/>
    </defs>
    <g clip-path="url(#p49e3faae6c)">
     <use xlink:href="#mf051fb2dfc" x="137.585432" y="340.869139" style="fill: #8b0a50; stroke: #8b0a50"/>
     <use xlink:href="#mf051fb2dfc" x="149.325122" y="340.869139" style="fill: #8b0a50; stroke: #8b0a50"/>
     <use xlink:href="#mf051fb2dfc" x="161.064812" y="340.869139" style="fill: #8b0a50; stroke: #8b0a50"/>
     <use xlink:href="#mf051fb2dfc" x="172.804501" y="340.869139" style="fill: #8b0a50; stroke: #8b0a50"/>
     <use xlink:href="#mf051fb2dfc" x="184.544191" y="340.869139" style="fill: #8b0a50; stroke: #8b0a50"/>
     <use xlink:href="#mf051fb2dfc" x="196.28388" y="340.869139" style="fill: #8b0a50; stroke: #8b0a50"/>
     <use xlink:href="#mf051fb2dfc" x="208.02357" y="340.869139" style="fill: #8b0a50; stroke: #8b0a50"/>
     <use xlink:href="#mf051fb2dfc" x="219.763259" y="340.869139" style="fill: #8b0a50; stroke: #8b0a50"/>
     <use xlink:href="#mf051fb2dfc" x="231.502949" y="340.869139" style="fill: #8b0a50; stroke: #8b0a50"/>
     <use xlink:href="#mf051fb2dfc" x="243.242639" y="340.869139" style="fill: #8b0a50; stroke: #8b0a50"/>
     <use xlink:href="#mf051fb2dfc" x="254.982328" y="340.869139" style="fill: #8b0a50; stroke: #8b0a50"/>
     <use xlink:href="#mf051fb2dfc" x="266.722018" y="340.869139" style="fill: #8b0a50; stroke: #8b0a50"/>
     <use xlink:href="#mf051fb2dfc" x="278.461707" y="340.869139" style="fill: #8b0a50; stroke: #8b0a50"/>
     <use xlink:href="#mf051fb2dfc" x="290.201397" y="340.869139" style="fill: #8b0a50; stroke: #8b0a50"/>
     <use xlink:href="#mf051fb2dfc" x="301.941086" y="340.869139" style="fill: #8b0a50; stroke: #8b0a50"/>
     <use xlink:href="#mf051fb2dfc" x="313.680776" y="340.869139" style="fill: #8b0a50; stroke: #8b0a50"/>
     <use xlink:href="#mf051fb2dfc" x="325.420466" y="340.869139" style="fill: #8b0a50; stroke: #8b0a50"/>
     <use xlink:href="#mf051fb2dfc" x="337.160155" y="340.869139" style="fill: #8b0a50; stroke: #8b0a50"/>
     <use xlink:href="#mf051fb2dfc" x="348.899845" y="340.869139" style="fill: #8b0a50; stroke: #8b0a50"/>
     <use xlink:href="#mf051fb2dfc" x="360.639534" y="340.869139" style="fill: #8b0a50; stroke: #8b0a50"/>
     <use xlink:href="#mf051fb2dfc" x="372.379224" y="340.869139" style="fill: #8b0a50; stroke: #8b0a50"/>
     <use xlink:href="#mf051fb2dfc" x="384.118914" y="340.869139" style="fill: #8b0a50; stroke: #8b0a50"/>
     <use xlink:href="#mf051fb2dfc" x="395.858603" y="340.869139" style="fill: #8b0a50; stroke: #8b0a50"/>
     <use xlink:href="#mf051fb2dfc" x="407.598293" y="340.869139" style="fill: #8b0a50; stroke: #8b0a50"/>
     <use xlink:href="#mf051fb2dfc" x="419.337982" y="340.869139" style="fill: #8b0a50; stroke: #8b0a50"/>
     <use xlink:href="#mf051fb2dfc" x="431.077672" y="340.869139" style="fill: #8b0a50; stroke: #8b0a50"/>
     <use xlink:href="#mf051fb2dfc" x="442.817361" y="340.869139" style="fill: #8b0a50; stroke: #8b0a50"/>
     <use xlink:href="#mf051fb2dfc" x="454.557051" y="340.869139" style="fill: #8b0a50; stroke: #8b0a50"/>
     <use xlink:href="#mf051fb2dfc" x="466.296741" y="340.869139" style="fill: #8b0a50; stroke: #8b0a50"/>
     <use xlink:href="#mf051fb2dfc" x="478.03643" y="340.869139" style="fill: #8b0a50; stroke: #8b0a50"/>
     <use xlink:href="#mf051fb2dfc" x="489.77612" y="340.869139" style="fill: #8b0a50; stroke: #8b0a50"/>
     <use xlink:href="#mf051fb2dfc" x="501.515809" y="340.869139" style="fill: #8b0a50; stroke: #8b0a50"/>
     <use xlink:href="#mf051fb2dfc" x="513.255499" y="340.869139" style="fill: #8b0a50; stroke: #8b0a50"/>
     <use xlink:href="#mf051fb2dfc" x="524.995188" y="340.869139" style="fill: #8b0a50; stroke: #8b0a50"/>
     <use xlink:href="#mf051fb2dfc" x="536.734878" y="340.869139" style="fill: #8b0a50; stroke: #8b0a50"/>
     <use xlink:href="#mf051fb2dfc" x="548.474568" y="340.869139" style="fill: #8b0a50; stroke: #8b0a50"/>
     <use xlink:href="#mf051fb2dfc" x="560.214257" y="340.869139" style="fill: #8b0a50; stroke: #8b0a50"/>
     <use xlink:href="#mf051fb2dfc" x="571.953947" y="340.869139" style="fill: #8b0a50; stroke: #8b0a50"/>
     <use xlink:href="#mf051fb2dfc" x="583.693636" y="340.869139" style="fill: #8b0a50; stroke: #8b0a50"/>
    </g>
   </g>
   <g id="PolyCollection_3">
    <defs>
     <path id="ma434351c93" d="M 102.366364 -147.933748 
L 102.366364 -90.376472 
L 114.106053 -81.808732 
L 125.845743 -92.430981 
L 137.585432 -99.420979 
L 149.325122 -106.55506 
L 161.064812 -105.203717 
L 172.804501 -107.860736 
L 184.544191 -139.280525 
L 196.28388 -157.192228 
L 208.02357 -155.647545 
L 219.763259 -179.045343 
L 231.502949 -199.026979 
L 243.242639 -213.679155 
L 254.982328 -233.317344 
L 266.722018 -249.399267 
L 278.461707 -266.27338 
L 290.201397 -284.338133 
L 301.941086 -294.770245 
L 313.680776 -301.823049 
L 325.420466 -310.803604 
L 337.160155 -322.819361 
L 348.899845 -328.726565 
L 360.639534 -328.164802 
L 372.379224 -324.213218 
L 384.118914 -325.491314 
L 395.858603 -324.454773 
L 407.598293 -313.066947 
L 419.337982 -309.643188 
L 431.077672 -317.350333 
L 442.817361 -312.361115 
L 454.557051 -307.648055 
L 466.296741 -303.345271 
L 478.03643 -302.929443 
L 489.77612 -299.490071 
L 501.515809 -295.210876 
L 513.255499 -295.184369 
L 524.995188 -288.2948 
L 536.734878 -273.874116 
L 548.474568 -267.810799 
L 560.214257 -270.530227 
L 571.953947 -264.783573 
L 583.693636 -216.040843 
L 583.693636 -258.612361 
L 583.693636 -258.612361 
L 571.953947 -328.54012 
L 560.214257 -333.738769 
L 548.474568 -329.992955 
L 536.734878 -334.763005 
L 524.995188 -349.388437 
L 513.255499 -355.985655 
L 501.515809 -355.631535 
L 489.77612 -361.267726 
L 478.03643 -364.056101 
L 466.296741 -362.958708 
L 454.557051 -367.236642 
L 442.817361 -374.434814 
L 431.077672 -381.244938 
L 419.337982 -371.76107 
L 407.598293 -374.140961 
L 395.858603 -384.309314 
L 384.118914 -385.282713 
L 372.379224 -383.230761 
L 360.639534 -387.004261 
L 348.899845 -388.464545 
L 337.160155 -382.718824 
L 325.420466 -368.56799 
L 313.680776 -357.288701 
L 301.941086 -348.337787 
L 290.201397 -335.937467 
L 278.461707 -315.060038 
L 266.722018 -293.605688 
L 254.982328 -272.385825 
L 243.242639 -249.367813 
L 231.502949 -230.778535 
L 219.763259 -210.16803 
L 208.02357 -188.504658 
L 196.28388 -189.585116 
L 184.544191 -171.331537 
L 172.804501 -142.40213 
L 161.064812 -140.023253 
L 149.325122 -141.967122 
L 137.585432 -153.411654 
L 125.845743 -169.165793 
L 114.106053 -157.361671 
L 102.366364 -147.933748 
z
" style="stroke: #eb6ab0; stroke-opacity: 0.1"/>
    </defs>
    <g clip-path="url(#p49e3faae6c)">
     <use xlink:href="#ma434351c93" x="0" y="432" style="fill: #eb6ab0; fill-opacity: 0.1; stroke: #eb6ab0; stroke-opacity: 0.1"/>
    </g>
   </g>
   <g id="PolyCollection_4">
    <defs>
     <path id="m5dd0603177" d="M 102.366364 -122.841309 
L 102.366364 -115.462474 
L 114.106053 -119.503227 
L 125.845743 -118.504936 
L 137.585432 -127.455694 
L 149.325122 -137.253365 
L 161.064812 -138.771109 
L 172.804501 -143.320348 
L 184.544191 -147.55699 
L 196.28388 -144.978399 
L 208.02357 -140.441638 
L 219.763259 -137.554856 
L 231.502949 -135.909393 
L 243.242639 -135.162537 
L 254.982328 -134.972989 
L 266.722018 -136.465855 
L 278.461707 -137.359875 
L 290.201397 -138.974512 
L 301.941086 -141.657157 
L 313.680776 -143.393619 
L 325.420466 -145.21163 
L 337.160155 -146.89295 
L 348.899845 -148.249609 
L 360.639534 -148.405341 
L 372.379224 -147.219023 
L 384.118914 -147.574508 
L 395.858603 -147.551596 
L 407.598293 -146.669181 
L 419.337982 -146.660985 
L 431.077672 -146.534009 
L 442.817361 -145.416774 
L 454.557051 -144.465057 
L 466.296741 -144.833445 
L 478.03643 -144.851281 
L 489.77612 -144.23074 
L 501.515809 -143.157182 
L 513.255499 -143.176514 
L 524.995188 -143.27943 
L 536.734878 -143.053986 
L 548.474568 -143.000625 
L 560.214257 -143.414724 
L 571.953947 -142.983911 
L 583.693636 -131.939901 
L 583.693636 -137.67079 
L 583.693636 -137.67079 
L 571.953947 -151.67956 
L 560.214257 -152.232899 
L 548.474568 -151.716152 
L 536.734878 -151.724367 
L 524.995188 -151.84723 
L 513.255499 -151.72033 
L 501.515809 -151.410713 
L 489.77612 -152.251521 
L 478.03643 -152.742917 
L 466.296741 -152.629722 
L 454.557051 -151.99739 
L 442.817361 -152.734188 
L 431.077672 -153.900726 
L 419.337982 -154.050856 
L 407.598293 -154.009082 
L 395.858603 -155.051623 
L 384.118914 -155.070841 
L 372.379224 -154.582456 
L 360.639534 -155.882456 
L 348.899845 -155.646643 
L 337.160155 -153.978479 
L 325.420466 -152.01775 
L 313.680776 -149.985944 
L 301.941086 -147.907639 
L 290.201397 -144.797182 
L 278.461707 -142.95277 
L 266.722018 -142.261805 
L 254.982328 -140.626101 
L 243.242639 -140.644183 
L 231.502949 -141.143762 
L 219.763259 -142.964858 
L 208.02357 -145.911973 
L 196.28388 -151.208738 
L 184.544191 -155.08494 
L 172.804501 -150.624665 
L 161.064812 -146.130921 
L 149.325122 -145.517951 
L 137.585432 -136.226663 
L 125.845743 -128.516974 
L 114.106053 -128.970588 
L 102.366364 -122.841309 
z
" style="stroke: #eb6ab0; stroke-opacity: 0.1"/>
    </defs>
    <g clip-path="url(#p49e3faae6c)">
     <use xlink:href="#m5dd0603177" x="0" y="432" style="fill: #eb6ab0; fill-opacity: 0.1; stroke: #eb6ab0; stroke-opacity: 0.1"/>
    </g>
   </g>
   <g id="PathCollection_2">
    <defs>
     <path id="m8a5442aee4" d="M 0 -3 
L -0.673542 -0.927051 
L -2.85317 -0.927051 
L -1.089814 0.354102 
L -1.763356 2.427051 
L -0 1.145898 
L 1.763356 2.427051 
L 1.089814 0.354102 
L 2.85317 -0.927051 
L 0.673542 -0.927051 
z
" style="stroke: #eb6ab0"/>
    </defs>
    <g clip-path="url(#p49e3faae6c)">
     <use xlink:href="#m8a5442aee4" x="208.02357" y="362.244545" style="fill: #eb6ab0; stroke: #eb6ab0"/>
     <use xlink:href="#m8a5442aee4" x="219.763259" y="362.244545" style="fill: #eb6ab0; stroke: #eb6ab0"/>
     <use xlink:href="#m8a5442aee4" x="231.502949" y="362.244545" style="fill: #eb6ab0; stroke: #eb6ab0"/>
     <use xlink:href="#m8a5442aee4" x="243.242639" y="362.244545" style="fill: #eb6ab0; stroke: #eb6ab0"/>
     <use xlink:href="#m8a5442aee4" x="254.982328" y="362.244545" style="fill: #eb6ab0; stroke: #eb6ab0"/>
     <use xlink:href="#m8a5442aee4" x="266.722018" y="362.244545" style="fill: #eb6ab0; stroke: #eb6ab0"/>
     <use xlink:href="#m8a5442aee4" x="278.461707" y="362.244545" style="fill: #eb6ab0; stroke: #eb6ab0"/>
     <use xlink:href="#m8a5442aee4" x="290.201397" y="362.244545" style="fill: #eb6ab0; stroke: #eb6ab0"/>
     <use xlink:href="#m8a5442aee4" x="301.941086" y="362.244545" style="fill: #eb6ab0; stroke: #eb6ab0"/>
     <use xlink:href="#m8a5442aee4" x="313.680776" y="362.244545" style="fill: #eb6ab0; stroke: #eb6ab0"/>
     <use xlink:href="#m8a5442aee4" x="325.420466" y="362.244545" style="fill: #eb6ab0; stroke: #eb6ab0"/>
     <use xlink:href="#m8a5442aee4" x="337.160155" y="362.244545" style="fill: #eb6ab0; stroke: #eb6ab0"/>
     <use xlink:href="#m8a5442aee4" x="348.899845" y="362.244545" style="fill: #eb6ab0; stroke: #eb6ab0"/>
     <use xlink:href="#m8a5442aee4" x="360.639534" y="362.244545" style="fill: #eb6ab0; stroke: #eb6ab0"/>
     <use xlink:href="#m8a5442aee4" x="372.379224" y="362.244545" style="fill: #eb6ab0; stroke: #eb6ab0"/>
     <use xlink:href="#m8a5442aee4" x="384.118914" y="362.244545" style="fill: #eb6ab0; stroke: #eb6ab0"/>
     <use xlink:href="#m8a5442aee4" x="395.858603" y="362.244545" style="fill: #eb6ab0; stroke: #eb6ab0"/>
     <use xlink:href="#m8a5442aee4" x="407.598293" y="362.244545" style="fill: #eb6ab0; stroke: #eb6ab0"/>
     <use xlink:href="#m8a5442aee4" x="419.337982" y="362.244545" style="fill: #eb6ab0; stroke: #eb6ab0"/>
     <use xlink:href="#m8a5442aee4" x="431.077672" y="362.244545" style="fill: #eb6ab0; stroke: #eb6ab0"/>
     <use xlink:href="#m8a5442aee4" x="442.817361" y="362.244545" style="fill: #eb6ab0; stroke: #eb6ab0"/>
     <use xlink:href="#m8a5442aee4" x="454.557051" y="362.244545" style="fill: #eb6ab0; stroke: #eb6ab0"/>
     <use xlink:href="#m8a5442aee4" x="466.296741" y="362.244545" style="fill: #eb6ab0; stroke: #eb6ab0"/>
     <use xlink:href="#m8a5442aee4" x="478.03643" y="362.244545" style="fill: #eb6ab0; stroke: #eb6ab0"/>
     <use xlink:href="#m8a5442aee4" x="489.77612" y="362.244545" style="fill: #eb6ab0; stroke: #eb6ab0"/>
     <use xlink:href="#m8a5442aee4" x="501.515809" y="362.244545" style="fill: #eb6ab0; stroke: #eb6ab0"/>
     <use xlink:href="#m8a5442aee4" x="513.255499" y="362.244545" style="fill: #eb6ab0; stroke: #eb6ab0"/>
     <use xlink:href="#m8a5442aee4" x="524.995188" y="362.244545" style="fill: #eb6ab0; stroke: #eb6ab0"/>
     <use xlink:href="#m8a5442aee4" x="536.734878" y="362.244545" style="fill: #eb6ab0; stroke: #eb6ab0"/>
     <use xlink:href="#m8a5442aee4" x="548.474568" y="362.244545" style="fill: #eb6ab0; stroke: #eb6ab0"/>
     <use xlink:href="#m8a5442aee4" x="560.214257" y="362.244545" style="fill: #eb6ab0; stroke: #eb6ab0"/>
     <use xlink:href="#m8a5442aee4" x="571.953947" y="362.244545" style="fill: #eb6ab0; stroke: #eb6ab0"/>
     <use xlink:href="#m8a5442aee4" x="583.693636" y="362.244545" style="fill: #eb6ab0; stroke: #eb6ab0"/>
    </g>
   </g>
   <g id="line2d_1">
    <path d="M 102.366364 325.303622 
L 114.106053 320.009381 
L 125.845743 317.584229 
L 137.585432 299.169923 
L 149.325122 263.06952 
L 161.064812 243.006139 
L 172.804501 227.354382 
L 184.544191 219.680974 
L 196.28388 158.695584 
L 208.02357 131.232598 
L 219.763259 220.697826 
L 231.502949 243.206215 
L 243.242639 196.565154 
L 254.982328 136.75699 
L 266.722018 175.306505 
L 278.461707 214.715928 
L 290.201397 162.143367 
L 301.941086 96.317021 
L 313.680776 77.882126 
L 325.420466 66.57272 
L 337.160155 91.930593 
L 348.899845 182.050693 
L 360.639534 156.518577 
L 372.379224 120.372267 
L 384.118914 90.015709 
L 395.858603 173.562303 
L 407.598293 241.554799 
L 419.337982 204.956166 
L 431.077672 202.168145 
L 442.817361 249.284588 
L 454.557051 265.720466 
L 466.296741 271.640228 
L 478.03643 268.432755 
L 489.77612 266.275188 
L 501.515809 269.997159 
L 513.255499 275.184384 
L 524.995188 267.909668 
L 536.734878 263.058187 
L 548.474568 267.412275 
L 560.214257 267.965407 
L 571.953947 269.772035 
L 583.693636 294.099209 
" clip-path="url(#p49e3faae6c)" style="fill: none; stroke: #8b0a50; stroke-width: 2; stroke-linecap: round"/>
   </g>
   <g id="line2d_2">
    <path d="M 102.366364 318.450151 
L 114.106053 318.33176 
L 125.845743 318.6141 
L 137.585432 321.483727 
L 149.325122 319.352902 
L 161.064812 311.013491 
L 172.804501 309.123875 
L 184.544191 310.445754 
L 196.28388 298.498775 
L 208.02357 295.664213 
L 219.763259 300.610507 
L 231.502949 294.749346 
L 243.242639 297.838116 
L 254.982328 303.613298 
L 266.722018 308.440972 
L 278.461707 310.001638 
L 290.201397 292.143479 
L 301.941086 275.150728 
L 313.680776 280.256202 
L 325.420466 299.829353 
L 337.160155 307.725331 
L 348.899845 309.261305 
L 360.639534 304.804254 
L 372.379224 300.651059 
L 384.118914 294.400352 
L 395.858603 296.094036 
L 407.598293 304.1821 
L 419.337982 302.41918 
L 431.077672 309.785204 
L 442.817361 316.151749 
L 454.557051 316.743038 
L 466.296741 316.096326 
L 478.03643 315.115948 
L 489.77612 315.15394 
L 501.515809 315.739572 
L 513.255499 315.731049 
L 524.995188 315.858668 
L 536.734878 316.585042 
L 548.474568 316.042683 
L 560.214257 315.938684 
L 571.953947 316.279915 
L 583.693636 318.046752 
" clip-path="url(#p49e3faae6c)" style="fill: none; stroke-dasharray: 7.4,3.2; stroke-dashoffset: 0; stroke: #8b0a50; stroke-width: 2"/>
   </g>
   <g id="line2d_3">
    <path d="M 137.585432 378.18 
L 137.585432 27.6 
" clip-path="url(#p49e3faae6c)" style="fill: none; stroke-dasharray: 5.55,2.4; stroke-dashoffset: 0; stroke: #1a1a1a; stroke-width: 1.5"/>
   </g>
   <g id="line2d_4">
    <path d="M 431.077672 378.18 
L 431.077672 27.6 
" clip-path="url(#p49e3faae6c)" style="fill: none; stroke-dasharray: 5.55,2.4; stroke-dashoffset: 0; stroke: #1a1a1a; stroke-width: 1.5"/>
   </g>
   <g id="line2d_5">
    <path d="M 102.366364 312.84489 
L 114.106053 312.414798 
L 125.845743 301.201613 
L 137.585432 305.583684 
L 149.325122 307.738909 
L 161.064812 309.386515 
L 172.804501 306.868567 
L 184.544191 276.693969 
L 196.28388 258.611328 
L 208.02357 259.923898 
L 219.763259 237.393313 
L 231.502949 217.097243 
L 243.242639 200.476516 
L 254.982328 179.148415 
L 266.722018 160.497523 
L 278.461707 141.333291 
L 290.201397 121.8622 
L 301.941086 110.445984 
L 313.680776 102.444125 
L 325.420466 92.314203 
L 337.160155 79.230907 
L 348.899845 73.404445 
L 360.639534 74.415469 
L 372.379224 78.278011 
L 384.118914 76.612987 
L 395.858603 77.617956 
L 407.598293 88.396046 
L 419.337982 91.297871 
L 431.077672 82.702364 
L 442.817361 88.602036 
L 454.557051 94.557652 
L 466.296741 98.848011 
L 478.03643 98.507228 
L 489.77612 101.621102 
L 501.515809 106.578794 
L 513.255499 106.414988 
L 524.995188 113.158381 
L 536.734878 127.681439 
L 548.474568 133.098123 
L 560.214257 129.865502 
L 571.953947 135.338153 
L 583.693636 194.673398 
" clip-path="url(#p49e3faae6c)" style="fill: none; stroke: #eb6ab0; stroke-width: 2; stroke-linecap: round"/>
   </g>
   <g id="line2d_6">
    <path d="M 102.366364 312.848108 
L 114.106053 307.763092 
L 125.845743 308.489045 
L 137.585432 300.158822 
L 149.325122 290.614342 
L 161.064812 289.548985 
L 172.804501 285.027494 
L 184.544191 280.679035 
L 196.28388 283.906431 
L 208.02357 288.823195 
L 219.763259 291.740143 
L 231.502949 293.473423 
L 243.242639 294.09664 
L 254.982328 294.200455 
L 266.722018 292.63617 
L 278.461707 291.843677 
L 290.201397 290.114153 
L 301.941086 287.217602 
L 313.680776 285.310219 
L 325.420466 283.38531 
L 337.160155 281.564285 
L 348.899845 280.051874 
L 360.639534 279.856102 
L 372.379224 281.099261 
L 384.118914 280.677326 
L 395.858603 280.69839 
L 407.598293 281.660868 
L 419.337982 281.64408 
L 431.077672 281.782633 
L 442.817361 282.924519 
L 454.557051 283.768776 
L 466.296741 283.268417 
L 478.03643 283.202901 
L 489.77612 283.758869 
L 501.515809 284.716052 
L 513.255499 284.551578 
L 524.995188 284.43667 
L 536.734878 284.610824 
L 548.474568 284.641611 
L 560.214257 284.176189 
L 571.953947 284.668264 
L 583.693636 297.194654 
" clip-path="url(#p49e3faae6c)" style="fill: none; stroke-dasharray: 7.4,3.2; stroke-dashoffset: 0; stroke: #eb6ab0; stroke-width: 2"/>
   </g>
   <g id="line2d_7">
    <path d="M 137.585432 378.18 
L 137.585432 27.6 
" clip-path="url(#p49e3faae6c)" style="fill: none; stroke-dasharray: 5.55,2.4; stroke-dashoffset: 0; stroke: #1a1a1a; stroke-width: 1.5"/>
   </g>
   <g id="line2d_8">
    <path d="M 431.077672 378.18 
L 431.077672 27.6 
" clip-path="url(#p49e3faae6c)" style="fill: none; stroke-dasharray: 5.55,2.4; stroke-dashoffset: 0; stroke: #1a1a1a; stroke-width: 1.5"/>
   </g>
   <g id="patch_3">
    <path d="M 78.3 378.18 
L 78.3 27.6 
" style="fill: none; stroke: #cccccc; stroke-width: 1.5; stroke-linejoin: miter; stroke-linecap: square"/>
   </g>
   <g id="patch_4">
    <path d="M 78.3 378.18 
L 607.76 378.18 
" style="fill: none; stroke: #cccccc; stroke-width: 1.5; stroke-linejoin: miter; stroke-linecap: square"/>
   </g>
   <g id="text_18">
    <!-- Divergence Comparison: Original vs Shuffled -->
    <g style="fill: #262626" transform="translate(193.5175 21.6) scale(0.15 -0.15)">
     <defs>
      <path id="ArialMT-43" d="M 3763 1606 
L 4369 1453 
Q 4178 706 3683 314 
Q 3188 -78 2472 -78 
Q 1731 -78 1267 223 
Q 803 525 561 1097 
Q 319 1669 319 2325 
Q 319 3041 592 3573 
Q 866 4106 1370 4382 
Q 1875 4659 2481 4659 
Q 3169 4659 3637 4309 
Q 4106 3959 4291 3325 
L 3694 3184 
Q 3534 3684 3231 3912 
Q 2928 4141 2469 4141 
Q 1941 4141 1586 3887 
Q 1231 3634 1087 3207 
Q 944 2781 944 2328 
Q 944 1744 1114 1308 
Q 1284 872 1643 656 
Q 2003 441 2422 441 
Q 2931 441 3284 734 
Q 3638 1028 3763 1606 
z
" transform="scale(0.015625)"/>
      <path id="ArialMT-6f" d="M 213 1659 
Q 213 2581 725 3025 
Q 1153 3394 1769 3394 
Q 2453 3394 2887 2945 
Q 3322 2497 3322 1706 
Q 3322 1066 3130 698 
Q 2938 331 2570 128 
Q 2203 -75 1769 -75 
Q 1072 -75 642 372 
Q 213 819 213 1659 
z
M 791 1659 
Q 791 1022 1069 705 
Q 1347 388 1769 388 
Q 2188 388 2466 706 
Q 2744 1025 2744 1678 
Q 2744 2294 2464 2611 
Q 2184 2928 1769 2928 
Q 1347 2928 1069 2612 
Q 791 2297 791 1659 
z
" transform="scale(0.015625)"/>
      <path id="ArialMT-70" d="M 422 -1272 
L 422 3319 
L 934 3319 
L 934 2888 
Q 1116 3141 1344 3267 
Q 1572 3394 1897 3394 
Q 2322 3394 2647 3175 
Q 2972 2956 3137 2557 
Q 3303 2159 3303 1684 
Q 3303 1175 3120 767 
Q 2938 359 2589 142 
Q 2241 -75 1856 -75 
Q 1575 -75 1351 44 
Q 1128 163 984 344 
L 984 -1272 
L 422 -1272 
z
M 931 1641 
Q 931 1000 1190 694 
Q 1450 388 1819 388 
Q 2194 388 2461 705 
Q 2728 1022 2728 1688 
Q 2728 2322 2467 2637 
Q 2206 2953 1844 2953 
Q 1484 2953 1207 2617 
Q 931 2281 931 1641 
z
" transform="scale(0.015625)"/>
      <path id="ArialMT-61" d="M 2588 409 
Q 2275 144 1986 34 
Q 1697 -75 1366 -75 
Q 819 -75 525 192 
Q 231 459 231 875 
Q 231 1119 342 1320 
Q 453 1522 633 1644 
Q 813 1766 1038 1828 
Q 1203 1872 1538 1913 
Q 2219 1994 2541 2106 
Q 2544 2222 2544 2253 
Q 2544 2597 2384 2738 
Q 2169 2928 1744 2928 
Q 1347 2928 1158 2789 
Q 969 2650 878 2297 
L 328 2372 
Q 403 2725 575 2942 
Q 747 3159 1072 3276 
Q 1397 3394 1825 3394 
Q 2250 3394 2515 3294 
Q 2781 3194 2906 3042 
Q 3031 2891 3081 2659 
Q 3109 2516 3109 2141 
L 3109 1391 
Q 3109 606 3145 398 
Q 3181 191 3288 0 
L 2700 0 
Q 2613 175 2588 409 
z
M 2541 1666 
Q 2234 1541 1622 1453 
Q 1275 1403 1131 1340 
Q 988 1278 909 1158 
Q 831 1038 831 891 
Q 831 666 1001 516 
Q 1172 366 1500 366 
Q 1825 366 2078 508 
Q 2331 650 2450 897 
Q 2541 1088 2541 1459 
L 2541 1666 
z
" transform="scale(0.015625)"/>
      <path id="ArialMT-3a" d="M 578 2678 
L 578 3319 
L 1219 3319 
L 1219 2678 
L 578 2678 
z
M 578 0 
L 578 641 
L 1219 641 
L 1219 0 
L 578 0 
z
" transform="scale(0.015625)"/>
      <path id="ArialMT-4f" d="M 309 2231 
Q 309 3372 921 4017 
Q 1534 4663 2503 4663 
Q 3138 4663 3647 4359 
Q 4156 4056 4423 3514 
Q 4691 2972 4691 2284 
Q 4691 1588 4409 1038 
Q 4128 488 3612 205 
Q 3097 -78 2500 -78 
Q 1853 -78 1343 234 
Q 834 547 571 1087 
Q 309 1628 309 2231 
z
M 934 2222 
Q 934 1394 1379 917 
Q 1825 441 2497 441 
Q 3181 441 3623 922 
Q 4066 1403 4066 2288 
Q 4066 2847 3877 3264 
Q 3688 3681 3323 3911 
Q 2959 4141 2506 4141 
Q 1863 4141 1398 3698 
Q 934 3256 934 2222 
z
" transform="scale(0.015625)"/>
      <path id="ArialMT-6c" d="M 409 0 
L 409 4581 
L 972 4581 
L 972 0 
L 409 0 
z
" transform="scale(0.015625)"/>
      <path id="ArialMT-53" d="M 288 1472 
L 859 1522 
Q 900 1178 1048 958 
Q 1197 738 1509 602 
Q 1822 466 2213 466 
Q 2559 466 2825 569 
Q 3091 672 3220 851 
Q 3350 1031 3350 1244 
Q 3350 1459 3225 1620 
Q 3100 1781 2813 1891 
Q 2628 1963 1997 2114 
Q 1366 2266 1113 2400 
Q 784 2572 623 2826 
Q 463 3081 463 3397 
Q 463 3744 659 4045 
Q 856 4347 1234 4503 
Q 1613 4659 2075 4659 
Q 2584 4659 2973 4495 
Q 3363 4331 3572 4012 
Q 3781 3694 3797 3291 
L 3216 3247 
Q 3169 3681 2898 3903 
Q 2628 4125 2100 4125 
Q 1550 4125 1298 3923 
Q 1047 3722 1047 3438 
Q 1047 3191 1225 3031 
Q 1400 2872 2139 2705 
Q 2878 2538 3153 2413 
Q 3553 2228 3743 1945 
Q 3934 1663 3934 1294 
Q 3934 928 3725 604 
Q 3516 281 3123 101 
Q 2731 -78 2241 -78 
Q 1619 -78 1198 103 
Q 778 284 539 648 
Q 300 1013 288 1472 
z
" transform="scale(0.015625)"/>
      <path id="ArialMT-68" d="M 422 0 
L 422 4581 
L 984 4581 
L 984 2938 
Q 1378 3394 1978 3394 
Q 2347 3394 2619 3248 
Q 2891 3103 3008 2847 
Q 3125 2591 3125 2103 
L 3125 0 
L 2563 0 
L 2563 2103 
Q 2563 2525 2380 2717 
Q 2197 2909 1863 2909 
Q 1613 2909 1392 2779 
Q 1172 2650 1078 2428 
Q 984 2206 984 1816 
L 984 0 
L 422 0 
z
" transform="scale(0.015625)"/>
      <path id="ArialMT-75" d="M 2597 0 
L 2597 488 
Q 2209 -75 1544 -75 
Q 1250 -75 995 37 
Q 741 150 617 320 
Q 494 491 444 738 
Q 409 903 409 1263 
L 409 3319 
L 972 3319 
L 972 1478 
Q 972 1038 1006 884 
Q 1059 663 1231 536 
Q 1403 409 1656 409 
Q 1909 409 2131 539 
Q 2353 669 2445 892 
Q 2538 1116 2538 1541 
L 2538 3319 
L 3100 3319 
L 3100 0 
L 2597 0 
z
" transform="scale(0.015625)"/>
      <path id="ArialMT-66" d="M 556 0 
L 556 2881 
L 59 2881 
L 59 3319 
L 556 3319 
L 556 3672 
Q 556 4006 616 4169 
Q 697 4388 901 4523 
Q 1106 4659 1475 4659 
Q 1713 4659 2000 4603 
L 1916 4113 
Q 1741 4144 1584 4144 
Q 1328 4144 1222 4034 
Q 1116 3925 1116 3625 
L 1116 3319 
L 1763 3319 
L 1763 2881 
L 1116 2881 
L 1116 0 
L 556 0 
z
" transform="scale(0.015625)"/>
      <path id="ArialMT-64" d="M 2575 0 
L 2575 419 
Q 2259 -75 1647 -75 
Q 1250 -75 917 144 
Q 584 363 401 755 
Q 219 1147 219 1656 
Q 219 2153 384 2558 
Q 550 2963 881 3178 
Q 1213 3394 1622 3394 
Q 1922 3394 2156 3267 
Q 2391 3141 2538 2938 
L 2538 4581 
L 3097 4581 
L 3097 0 
L 2575 0 
z
M 797 1656 
Q 797 1019 1065 703 
Q 1334 388 1700 388 
Q 2069 388 2326 689 
Q 2584 991 2584 1609 
Q 2584 2291 2321 2609 
Q 2059 2928 1675 2928 
Q 1300 2928 1048 2622 
Q 797 2316 797 1656 
z
" transform="scale(0.015625)"/>
     </defs>
     <use xlink:href="#ArialMT-44"/>
     <use xlink:href="#ArialMT-69" x="72.216797"/>
     <use xlink:href="#ArialMT-76" x="94.433594"/>
     <use xlink:href="#ArialMT-65" x="144.433594"/>
     <use xlink:href="#ArialMT-72" x="200.048828"/>
     <use xlink:href="#ArialMT-67" x="233.349609"/>
     <use xlink:href="#ArialMT-65" x="288.964844"/>
     <use xlink:href="#ArialMT-6e" x="344.580078"/>
     <use xlink:href="#ArialMT-63" x="400.195312"/>
     <use xlink:href="#ArialMT-65" x="450.195312"/>
     <use xlink:href="#ArialMT-20" x="505.810547"/>
     <use xlink:href="#ArialMT-43" x="533.59375"/>
     <use xlink:href="#ArialMT-6f" x="605.810547"/>
     <use xlink:href="#ArialMT-6d" x="661.425781"/>
     <use xlink:href="#ArialMT-70" x="744.726562"/>
     <use xlink:href="#ArialMT-61" x="800.341797"/>
     <use xlink:href="#ArialMT-72" x="855.957031"/>
     <use xlink:href="#ArialMT-69" x="889.257812"/>
     <use xlink:href="#ArialMT-73" x="911.474609"/>
     <use xlink:href="#ArialMT-6f" x="961.474609"/>
     <use xlink:href="#ArialMT-6e" x="1017.089844"/>
     <use xlink:href="#ArialMT-3a" x="1072.705078"/>
     <use xlink:href="#ArialMT-20" x="1100.488281"/>
     <use xlink:href="#ArialMT-4f" x="1128.271484"/>
     <use xlink:href="#ArialMT-72" x="1206.054688"/>
     <use xlink:href="#ArialMT-69" x="1239.355469"/>
     <use xlink:href="#ArialMT-67" x="1261.572266"/>
     <use xlink:href="#ArialMT-69" x="1317.1875"/>
     <use xlink:href="#ArialMT-6e" x="1339.404297"/>
     <use xlink:href="#ArialMT-61" x="1395.019531"/>
     <use xlink:href="#ArialMT-6c" x="1450.634766"/>
     <use xlink:href="#ArialMT-20" x="1472.851562"/>
     <use xlink:href="#ArialMT-76" x="1500.634766"/>
     <use xlink:href="#ArialMT-73" x="1550.634766"/>
     <use xlink:href="#ArialMT-20" x="1600.634766"/>
     <use xlink:href="#ArialMT-53" x="1628.417969"/>
     <use xlink:href="#ArialMT-68" x="1695.117188"/>
     <use xlink:href="#ArialMT-75" x="1750.732422"/>
     <use xlink:href="#ArialMT-66" x="1806.347656"/>
     <use xlink:href="#ArialMT-66" x="1832.380859"/>
     <use xlink:href="#ArialMT-6c" x="1860.164062"/>
     <use xlink:href="#ArialMT-65" x="1882.380859"/>
     <use xlink:href="#ArialMT-64" x="1937.996094"/>
    </g>
   </g>
   <g id="legend_1">
    <g id="patch_5">
     <path d="M 615.46 259.555469 
L 705.061875 259.555469 
Q 707.261875 259.555469 707.261875 257.355469 
L 707.261875 148.424531 
Q 707.261875 146.224531 705.061875 146.224531 
L 615.46 146.224531 
Q 613.26 146.224531 613.26 148.424531 
L 613.26 257.355469 
Q 613.26 259.555469 615.46 259.555469 
z
" style="fill: #ffffff; opacity: 0.8; stroke: #cccccc; stroke-linejoin: miter"/>
    </g>
    <g id="line2d_9">
     <path d="M 617.66 154.789062 
L 628.66 154.789062 
L 639.66 154.789062 
" style="fill: none; stroke: #8b0a50; stroke-width: 2; stroke-linecap: round"/>
    </g>
    <g id="text_19">
     <!-- Original -->
     <g style="fill: #262626" transform="translate(648.46 158.639062) scale(0.11 -0.11)">
      <use xlink:href="#ArialMT-4f"/>
      <use xlink:href="#ArialMT-72" x="77.783203"/>
      <use xlink:href="#ArialMT-69" x="111.083984"/>
      <use xlink:href="#ArialMT-67" x="133.300781"/>
      <use xlink:href="#ArialMT-69" x="188.916016"/>
      <use xlink:href="#ArialMT-6e" x="211.132812"/>
      <use xlink:href="#ArialMT-61" x="266.748047"/>
      <use xlink:href="#ArialMT-6c" x="322.363281"/>
     </g>
    </g>
    <g id="line2d_10">
     <path d="M 617.66 170.61875 
L 628.66 170.61875 
L 639.66 170.61875 
" style="fill: none; stroke-dasharray: 7.4,3.2; stroke-dashoffset: 0; stroke: #8b0a50; stroke-width: 2"/>
    </g>
    <g id="text_20">
     <!-- Original -->
     <g style="fill: #262626" transform="translate(648.46 174.46875) scale(0.11 -0.11)">
      <use xlink:href="#ArialMT-4f"/>
      <use xlink:href="#ArialMT-72" x="77.783203"/>
      <use xlink:href="#ArialMT-69" x="111.083984"/>
      <use xlink:href="#ArialMT-67" x="133.300781"/>
      <use xlink:href="#ArialMT-69" x="188.916016"/>
      <use xlink:href="#ArialMT-6e" x="211.132812"/>
      <use xlink:href="#ArialMT-61" x="266.748047"/>
      <use xlink:href="#ArialMT-6c" x="322.363281"/>
     </g>
    </g>
    <g id="PathCollection_3">
     <g>
      <use xlink:href="#mf051fb2dfc" x="628.66" y="187.302656" style="fill: #8b0a50; stroke: #8b0a50"/>
     </g>
    </g>
    <g id="text_21">
     <!-- p &lt; 0.001 -->
     <g style="fill: #262626" transform="translate(648.46 190.190156) scale(0.11 -0.11)">
      <defs>
       <path id="ArialMT-3c" d="M 350 2003 
L 350 2528 
L 3384 3809 
L 3384 3250 
L 978 2263 
L 3384 1266 
L 3384 706 
L 350 2003 
z
" transform="scale(0.015625)"/>
      </defs>
      <use xlink:href="#ArialMT-70"/>
      <use xlink:href="#ArialMT-20" x="55.615234"/>
      <use xlink:href="#ArialMT-3c" x="83.398438"/>
      <use xlink:href="#ArialMT-20" x="141.796875"/>
      <use xlink:href="#ArialMT-30" x="169.580078"/>
      <use xlink:href="#ArialMT-2e" x="225.195312"/>
      <use xlink:href="#ArialMT-30" x="252.978516"/>
      <use xlink:href="#ArialMT-30" x="308.59375"/>
      <use xlink:href="#ArialMT-31" x="364.208984"/>
     </g>
    </g>
    <g id="line2d_11">
     <path d="M 617.66 201.9 
L 628.66 201.9 
L 639.66 201.9 
" style="fill: none; stroke-dasharray: 5.55,2.4; stroke-dashoffset: 0; stroke: #1a1a1a; stroke-width: 1.5"/>
    </g>
    <g id="text_22">
     <!-- Stim Onset -->
     <g style="fill: #262626" transform="translate(648.46 205.75) scale(0.11 -0.11)">
      <defs>
       <path id="ArialMT-74" d="M 1650 503 
L 1731 6 
Q 1494 -44 1306 -44 
Q 1000 -44 831 53 
Q 663 150 594 308 
Q 525 466 525 972 
L 525 2881 
L 113 2881 
L 113 3319 
L 525 3319 
L 525 4141 
L 1084 4478 
L 1084 3319 
L 1650 3319 
L 1650 2881 
L 1084 2881 
L 1084 941 
Q 1084 700 1114 631 
Q 1144 563 1211 522 
Q 1278 481 1403 481 
Q 1497 481 1650 503 
z
" transform="scale(0.015625)"/>
      </defs>
      <use xlink:href="#ArialMT-53"/>
      <use xlink:href="#ArialMT-74" x="66.699219"/>
      <use xlink:href="#ArialMT-69" x="94.482422"/>
      <use xlink:href="#ArialMT-6d" x="116.699219"/>
      <use xlink:href="#ArialMT-20" x="200"/>
      <use xlink:href="#ArialMT-4f" x="227.783203"/>
      <use xlink:href="#ArialMT-6e" x="305.566406"/>
      <use xlink:href="#ArialMT-73" x="361.181641"/>
      <use xlink:href="#ArialMT-65" x="411.181641"/>
      <use xlink:href="#ArialMT-74" x="466.796875"/>
     </g>
    </g>
    <g id="line2d_12">
     <path d="M 617.66 217.459844 
L 628.66 217.459844 
L 639.66 217.459844 
" style="fill: none; stroke-dasharray: 5.55,2.4; stroke-dashoffset: 0; stroke: #1a1a1a; stroke-width: 1.5"/>
    </g>
    <g id="text_23">
     <!-- Stim End -->
     <g style="fill: #262626" transform="translate(648.46 221.309844) scale(0.11 -0.11)">
      <defs>
       <path id="ArialMT-45" d="M 506 0 
L 506 4581 
L 3819 4581 
L 3819 4041 
L 1113 4041 
L 1113 2638 
L 3647 2638 
L 3647 2100 
L 1113 2100 
L 1113 541 
L 3925 541 
L 3925 0 
L 506 0 
z
" transform="scale(0.015625)"/>
      </defs>
      <use xlink:href="#ArialMT-53"/>
      <use xlink:href="#ArialMT-74" x="66.699219"/>
      <use xlink:href="#ArialMT-69" x="94.482422"/>
      <use xlink:href="#ArialMT-6d" x="116.699219"/>
      <use xlink:href="#ArialMT-20" x="200"/>
      <use xlink:href="#ArialMT-45" x="227.783203"/>
      <use xlink:href="#ArialMT-6e" x="294.482422"/>
      <use xlink:href="#ArialMT-64" x="350.097656"/>
     </g>
    </g>
    <g id="line2d_13">
     <path d="M 617.66 233.160625 
L 628.66 233.160625 
L 639.66 233.160625 
" style="fill: none; stroke: #eb6ab0; stroke-width: 2; stroke-linecap: round"/>
    </g>
    <g id="text_24">
     <!-- Original -->
     <g style="fill: #262626" transform="translate(648.46 237.010625) scale(0.11 -0.11)">
      <use xlink:href="#ArialMT-4f"/>
      <use xlink:href="#ArialMT-72" x="77.783203"/>
      <use xlink:href="#ArialMT-69" x="111.083984"/>
      <use xlink:href="#ArialMT-67" x="133.300781"/>
      <use xlink:href="#ArialMT-69" x="188.916016"/>
      <use xlink:href="#ArialMT-6e" x="211.132812"/>
      <use xlink:href="#ArialMT-61" x="266.748047"/>
      <use xlink:href="#ArialMT-6c" x="322.363281"/>
     </g>
    </g>
    <g id="line2d_14">
     <path d="M 617.66 248.990312 
L 628.66 248.990312 
L 639.66 248.990312 
" style="fill: none; stroke-dasharray: 7.4,3.2; stroke-dashoffset: 0; stroke: #eb6ab0; stroke-width: 2"/>
    </g>
    <g id="text_25">
     <!-- Original -->
     <g style="fill: #262626" transform="translate(648.46 252.840312) scale(0.11 -0.11)">
      <use xlink:href="#ArialMT-4f"/>
      <use xlink:href="#ArialMT-72" x="77.783203"/>
      <use xlink:href="#ArialMT-69" x="111.083984"/>
      <use xlink:href="#ArialMT-67" x="133.300781"/>
      <use xlink:href="#ArialMT-69" x="188.916016"/>
      <use xlink:href="#ArialMT-6e" x="211.132812"/>
      <use xlink:href="#ArialMT-61" x="266.748047"/>
      <use xlink:href="#ArialMT-6c" x="322.363281"/>
     </g>
    </g>
   </g>
  </g>
 </g>
 <defs>
  <clipPath id="p49e3faae6c">
   <rect x="78.3" y="27.6" width="529.46" height="350.58"/>
  </clipPath>
 </defs>
</svg>
