<?xml version="1.0" encoding="utf-8" standalone="no"?>
<!DOCTYPE svg PUBLIC "-//W3C//DTD SVG 1.1//EN"
  "http://www.w3.org/Graphics/SVG/1.1/DTD/svg11.dtd">
<svg xmlns:xlink="http://www.w3.org/1999/xlink" width="720pt" height="432pt" viewBox="0 0 720 432" xmlns="http://www.w3.org/2000/svg" version="1.1">
 <metadata>
  <rdf:RDF xmlns:dc="http://purl.org/dc/elements/1.1/" xmlns:cc="http://creativecommons.org/ns#" xmlns:rdf="http://www.w3.org/1999/02/22-rdf-syntax-ns#">
   <cc:Work>
    <dc:type rdf:resource="http://purl.org/dc/dcmitype/StillImage"/>
    <dc:date>2025-10-17T15:32:17.978705</dc:date>
    <dc:format>image/svg+xml</dc:format>
    <dc:creator>
     <cc:Agent>
      <dc:title>Matplotlib v3.9.4, https://matplotlib.org/</dc:title>
     </cc:Agent>
    </dc:creator>
   </cc:Work>
  </rdf:RDF>
 </metadata>
 <defs>
  <style type="text/css">*{stroke-linejoin: round; stroke-linecap: butt}</style>
 </defs>
 <g id="figure_1">
  <g id="patch_1">
   <path d="M 0 432 
L 720 432 
L 720 0 
L 0 0 
z
" style="fill: #ffffff"/>
  </g>
  <g id="axes_1">
   <g id="patch_2">
    <path d="M 60.335 378.54 
L 607.44 378.54 
L 607.44 26.96 
L 60.335 26.96 
L 60.335 378.54 
z
" style="fill: none"/>
   </g>
   <g id="matplotlib.axis_1">
    <g id="xtick_1">
     <g id="line2d_1">
      <defs>
       <path id="mf7085d6d03" d="M 0 0 
L 0 5 
" style="stroke: #262626; stroke-width: 1.5"/>
      </defs>
      <g>
       <use xlink:href="#mf7085d6d03" x="70.745032" y="378.54" style="fill: #262626; stroke: #262626; stroke-width: 1.5"/>
      </g>
     </g>
     <g id="text_1">
      <!-- −250 -->
      <g style="fill: #262626" transform="translate(53.852454 397.776719) scale(0.15 -0.15)">
       <defs>
        <path id="ArialMT-2212" d="M 3381 1997 
L 356 1997 
L 356 2522 
L 3381 2522 
L 3381 1997 
z
" transform="scale(0.015625)"/>
        <path id="ArialMT-32" d="M 3222 541 
L 3222 0 
L 194 0 
Q 188 203 259 391 
Q 375 700 629 1000 
Q 884 1300 1366 1694 
Q 2113 2306 2375 2664 
Q 2638 3022 2638 3341 
Q 2638 3675 2398 3904 
Q 2159 4134 1775 4134 
Q 1369 4134 1125 3890 
Q 881 3647 878 3216 
L 300 3275 
Q 359 3922 746 4261 
Q 1134 4600 1788 4600 
Q 2447 4600 2831 4234 
Q 3216 3869 3216 3328 
Q 3216 3053 3103 2787 
Q 2991 2522 2730 2228 
Q 2469 1934 1863 1422 
Q 1356 997 1212 845 
Q 1069 694 975 541 
L 3222 541 
z
" transform="scale(0.015625)"/>
        <path id="ArialMT-35" d="M 266 1200 
L 856 1250 
Q 922 819 1161 601 
Q 1400 384 1738 384 
Q 2144 384 2425 690 
Q 2706 997 2706 1503 
Q 2706 1984 2436 2262 
Q 2166 2541 1728 2541 
Q 1456 2541 1237 2417 
Q 1019 2294 894 2097 
L 366 2166 
L 809 4519 
L 3088 4519 
L 3088 3981 
L 1259 3981 
L 1013 2750 
Q 1425 3038 1878 3038 
Q 2478 3038 2890 2622 
Q 3303 2206 3303 1553 
Q 3303 931 2941 478 
Q 2500 -78 1738 -78 
Q 1113 -78 717 272 
Q 322 622 266 1200 
z
" transform="scale(0.015625)"/>
        <path id="ArialMT-30" d="M 266 2259 
Q 266 3072 433 3567 
Q 600 4063 929 4331 
Q 1259 4600 1759 4600 
Q 2128 4600 2406 4451 
Q 2684 4303 2865 4023 
Q 3047 3744 3150 3342 
Q 3253 2941 3253 2259 
Q 3253 1453 3087 958 
Q 2922 463 2592 192 
Q 2263 -78 1759 -78 
Q 1097 -78 719 397 
Q 266 969 266 2259 
z
M 844 2259 
Q 844 1131 1108 757 
Q 1372 384 1759 384 
Q 2147 384 2411 759 
Q 2675 1134 2675 2259 
Q 2675 3391 2411 3762 
Q 2147 4134 1753 4134 
Q 1366 4134 1134 3806 
Q 844 3388 844 2259 
z
" transform="scale(0.015625)"/>
       </defs>
       <use xlink:href="#ArialMT-2212"/>
       <use xlink:href="#ArialMT-32" x="58.398438"/>
       <use xlink:href="#ArialMT-35" x="114.013672"/>
       <use xlink:href="#ArialMT-30" x="169.628906"/>
      </g>
     </g>
    </g>
    <g id="xtick_2">
     <g id="line2d_2">
      <g>
       <use xlink:href="#mf7085d6d03" x="143.036919" y="378.54" style="fill: #262626; stroke: #262626; stroke-width: 1.5"/>
      </g>
     </g>
     <g id="text_2">
      <!-- 0 -->
      <g style="fill: #262626" transform="translate(138.866215 397.776719) scale(0.15 -0.15)">
       <use xlink:href="#ArialMT-30"/>
      </g>
     </g>
    </g>
    <g id="xtick_3">
     <g id="line2d_3">
      <g>
       <use xlink:href="#mf7085d6d03" x="215.328805" y="378.54" style="fill: #262626; stroke: #262626; stroke-width: 1.5"/>
      </g>
     </g>
     <g id="text_3">
      <!-- 250 -->
      <g style="fill: #262626" transform="translate(202.816696 397.776719) scale(0.15 -0.15)">
       <use xlink:href="#ArialMT-32"/>
       <use xlink:href="#ArialMT-35" x="55.615234"/>
       <use xlink:href="#ArialMT-30" x="111.230469"/>
      </g>
     </g>
    </g>
    <g id="xtick_4">
     <g id="line2d_4">
      <g>
       <use xlink:href="#mf7085d6d03" x="287.620692" y="378.54" style="fill: #262626; stroke: #262626; stroke-width: 1.5"/>
      </g>
     </g>
     <g id="text_4">
      <!-- 500 -->
      <g style="fill: #262626" transform="translate(275.108583 397.776719) scale(0.15 -0.15)">
       <use xlink:href="#ArialMT-35"/>
       <use xlink:href="#ArialMT-30" x="55.615234"/>
       <use xlink:href="#ArialMT-30" x="111.230469"/>
      </g>
     </g>
    </g>
    <g id="xtick_5">
     <g id="line2d_5">
      <g>
       <use xlink:href="#mf7085d6d03" x="359.912579" y="378.54" style="fill: #262626; stroke: #262626; stroke-width: 1.5"/>
      </g>
     </g>
     <g id="text_5">
      <!-- 750 -->
      <g style="fill: #262626" transform="translate(347.40047 397.776719) scale(0.15 -0.15)">
       <defs>
        <path id="ArialMT-37" d="M 303 3981 
L 303 4522 
L 3269 4522 
L 3269 4084 
Q 2831 3619 2401 2847 
Q 1972 2075 1738 1259 
Q 1569 684 1522 0 
L 944 0 
Q 953 541 1156 1306 
Q 1359 2072 1739 2783 
Q 2119 3494 2547 3981 
L 303 3981 
z
" transform="scale(0.015625)"/>
       </defs>
       <use xlink:href="#ArialMT-37"/>
       <use xlink:href="#ArialMT-35" x="55.615234"/>
       <use xlink:href="#ArialMT-30" x="111.230469"/>
      </g>
     </g>
    </g>
    <g id="xtick_6">
     <g id="line2d_6">
      <g>
       <use xlink:href="#mf7085d6d03" x="432.204466" y="378.54" style="fill: #262626; stroke: #262626; stroke-width: 1.5"/>
      </g>
     </g>
     <g id="text_6">
      <!-- 1000 -->
      <g style="fill: #262626" transform="translate(415.521654 397.776719) scale(0.15 -0.15)">
       <defs>
        <path id="ArialMT-31" d="M 2384 0 
L 1822 0 
L 1822 3584 
Q 1619 3391 1289 3197 
Q 959 3003 697 2906 
L 697 3450 
Q 1169 3672 1522 3987 
Q 1875 4303 2022 4600 
L 2384 4600 
L 2384 0 
z
" transform="scale(0.015625)"/>
       </defs>
       <use xlink:href="#ArialMT-31"/>
       <use xlink:href="#ArialMT-30" x="55.615234"/>
       <use xlink:href="#ArialMT-30" x="111.230469"/>
       <use xlink:href="#ArialMT-30" x="166.845703"/>
      </g>
     </g>
    </g>
    <g id="xtick_7">
     <g id="line2d_7">
      <g>
       <use xlink:href="#mf7085d6d03" x="504.496353" y="378.54" style="fill: #262626; stroke: #262626; stroke-width: 1.5"/>
      </g>
     </g>
     <g id="text_7">
      <!-- 1250 -->
      <g style="fill: #262626" transform="translate(487.813541 397.776719) scale(0.15 -0.15)">
       <use xlink:href="#ArialMT-31"/>
       <use xlink:href="#ArialMT-32" x="55.615234"/>
       <use xlink:href="#ArialMT-35" x="111.230469"/>
       <use xlink:href="#ArialMT-30" x="166.845703"/>
      </g>
     </g>
    </g>
    <g id="xtick_8">
     <g id="line2d_8">
      <g>
       <use xlink:href="#mf7085d6d03" x="576.78824" y="378.54" style="fill: #262626; stroke: #262626; stroke-width: 1.5"/>
      </g>
     </g>
     <g id="text_8">
      <!-- 1500 -->
      <g style="fill: #262626" transform="translate(560.105427 397.776719) scale(0.15 -0.15)">
       <use xlink:href="#ArialMT-31"/>
       <use xlink:href="#ArialMT-35" x="55.615234"/>
       <use xlink:href="#ArialMT-30" x="111.230469"/>
       <use xlink:href="#ArialMT-30" x="166.845703"/>
      </g>
     </g>
    </g>
    <g id="text_9">
     <!-- Time (s) -->
     <g style="fill: #262626" transform="translate(306.675391 415.6775) scale(0.15 -0.15)">
      <defs>
       <path id="ArialMT-54" d="M 1659 0 
L 1659 4041 
L 150 4041 
L 150 4581 
L 3781 4581 
L 3781 4041 
L 2266 4041 
L 2266 0 
L 1659 0 
z
" transform="scale(0.015625)"/>
       <path id="ArialMT-69" d="M 425 3934 
L 425 4581 
L 988 4581 
L 988 3934 
L 425 3934 
z
M 425 0 
L 425 3319 
L 988 3319 
L 988 0 
L 425 0 
z
" transform="scale(0.015625)"/>
       <path id="ArialMT-6d" d="M 422 0 
L 422 3319 
L 925 3319 
L 925 2853 
Q 1081 3097 1340 3245 
Q 1600 3394 1931 3394 
Q 2300 3394 2536 3241 
Q 2772 3088 2869 2813 
Q 3263 3394 3894 3394 
Q 4388 3394 4653 3120 
Q 4919 2847 4919 2278 
L 4919 0 
L 4359 0 
L 4359 2091 
Q 4359 2428 4304 2576 
Q 4250 2725 4106 2815 
Q 3963 2906 3769 2906 
Q 3419 2906 3187 2673 
Q 2956 2441 2956 1928 
L 2956 0 
L 2394 0 
L 2394 2156 
Q 2394 2531 2256 2718 
Q 2119 2906 1806 2906 
Q 1569 2906 1367 2781 
Q 1166 2656 1075 2415 
Q 984 2175 984 1722 
L 984 0 
L 422 0 
z
" transform="scale(0.015625)"/>
       <path id="ArialMT-65" d="M 2694 1069 
L 3275 997 
Q 3138 488 2766 206 
Q 2394 -75 1816 -75 
Q 1088 -75 661 373 
Q 234 822 234 1631 
Q 234 2469 665 2931 
Q 1097 3394 1784 3394 
Q 2450 3394 2872 2941 
Q 3294 2488 3294 1666 
Q 3294 1616 3291 1516 
L 816 1516 
Q 847 969 1125 678 
Q 1403 388 1819 388 
Q 2128 388 2347 550 
Q 2566 713 2694 1069 
z
M 847 1978 
L 2700 1978 
Q 2663 2397 2488 2606 
Q 2219 2931 1791 2931 
Q 1403 2931 1139 2672 
Q 875 2413 847 1978 
z
" transform="scale(0.015625)"/>
       <path id="ArialMT-20" transform="scale(0.015625)"/>
       <path id="ArialMT-28" d="M 1497 -1347 
Q 1031 -759 709 28 
Q 388 816 388 1659 
Q 388 2403 628 3084 
Q 909 3875 1497 4659 
L 1900 4659 
Q 1522 4009 1400 3731 
Q 1209 3300 1100 2831 
Q 966 2247 966 1656 
Q 966 153 1900 -1347 
L 1497 -1347 
z
" transform="scale(0.015625)"/>
       <path id="ArialMT-73" d="M 197 991 
L 753 1078 
Q 800 744 1014 566 
Q 1228 388 1613 388 
Q 2000 388 2187 545 
Q 2375 703 2375 916 
Q 2375 1106 2209 1216 
Q 2094 1291 1634 1406 
Q 1016 1563 777 1677 
Q 538 1791 414 1992 
Q 291 2194 291 2438 
Q 291 2659 392 2848 
Q 494 3038 669 3163 
Q 800 3259 1026 3326 
Q 1253 3394 1513 3394 
Q 1903 3394 2198 3281 
Q 2494 3169 2634 2976 
Q 2775 2784 2828 2463 
L 2278 2388 
Q 2241 2644 2061 2787 
Q 1881 2931 1553 2931 
Q 1166 2931 1000 2803 
Q 834 2675 834 2503 
Q 834 2394 903 2306 
Q 972 2216 1119 2156 
Q 1203 2125 1616 2013 
Q 2213 1853 2448 1751 
Q 2684 1650 2818 1456 
Q 2953 1263 2953 975 
Q 2953 694 2789 445 
Q 2625 197 2315 61 
Q 2006 -75 1616 -75 
Q 969 -75 630 194 
Q 291 463 197 991 
z
" transform="scale(0.015625)"/>
       <path id="ArialMT-29" d="M 791 -1347 
L 388 -1347 
Q 1322 153 1322 1656 
Q 1322 2244 1188 2822 
Q 1081 3291 891 3722 
Q 769 4003 388 4659 
L 791 4659 
Q 1378 3875 1659 3084 
Q 1900 2403 1900 1659 
Q 1900 816 1576 28 
Q 1253 -759 791 -1347 
z
" transform="scale(0.015625)"/>
      </defs>
      <use xlink:href="#ArialMT-54"/>
      <use xlink:href="#ArialMT-69" x="57.333984"/>
      <use xlink:href="#ArialMT-6d" x="79.550781"/>
      <use xlink:href="#ArialMT-65" x="162.851562"/>
      <use xlink:href="#ArialMT-20" x="218.466797"/>
      <use xlink:href="#ArialMT-28" x="246.25"/>
      <use xlink:href="#ArialMT-73" x="279.550781"/>
      <use xlink:href="#ArialMT-29" x="329.550781"/>
     </g>
    </g>
   </g>
   <g id="matplotlib.axis_2">
    <g id="ytick_1">
     <g id="line2d_9">
      <defs>
       <path id="m5e77d94ed1" d="M 0 0 
L -5 0 
" style="stroke: #262626; stroke-width: 1.5"/>
      </defs>
      <g>
       <use xlink:href="#m5e77d94ed1" x="60.335" y="332.593352" style="fill: #262626; stroke: #262626; stroke-width: 1.5"/>
      </g>
     </g>
     <g id="text_10">
      <!-- 0.0 -->
      <g style="fill: #262626" transform="translate(30.985 337.961711) scale(0.15 -0.15)">
       <defs>
        <path id="ArialMT-2e" d="M 581 0 
L 581 641 
L 1222 641 
L 1222 0 
L 581 0 
z
" transform="scale(0.015625)"/>
       </defs>
       <use xlink:href="#ArialMT-30"/>
       <use xlink:href="#ArialMT-2e" x="55.615234"/>
       <use xlink:href="#ArialMT-30" x="83.398438"/>
      </g>
     </g>
    </g>
    <g id="ytick_2">
     <g id="line2d_10">
      <g>
       <use xlink:href="#m5e77d94ed1" x="60.335" y="258.738615" style="fill: #262626; stroke: #262626; stroke-width: 1.5"/>
      </g>
     </g>
     <g id="text_11">
      <!-- 0.1 -->
      <g style="fill: #262626" transform="translate(30.985 264.106975) scale(0.15 -0.15)">
       <use xlink:href="#ArialMT-30"/>
       <use xlink:href="#ArialMT-2e" x="55.615234"/>
       <use xlink:href="#ArialMT-31" x="83.398438"/>
      </g>
     </g>
    </g>
    <g id="ytick_3">
     <g id="line2d_11">
      <g>
       <use xlink:href="#m5e77d94ed1" x="60.335" y="184.883879" style="fill: #262626; stroke: #262626; stroke-width: 1.5"/>
      </g>
     </g>
     <g id="text_12">
      <!-- 0.2 -->
      <g style="fill: #262626" transform="translate(30.985 190.252238) scale(0.15 -0.15)">
       <use xlink:href="#ArialMT-30"/>
       <use xlink:href="#ArialMT-2e" x="55.615234"/>
       <use xlink:href="#ArialMT-32" x="83.398438"/>
      </g>
     </g>
    </g>
    <g id="ytick_4">
     <g id="line2d_12">
      <g>
       <use xlink:href="#m5e77d94ed1" x="60.335" y="111.029143" style="fill: #262626; stroke: #262626; stroke-width: 1.5"/>
      </g>
     </g>
     <g id="text_13">
      <!-- 0.3 -->
      <g style="fill: #262626" transform="translate(30.985 116.397502) scale(0.15 -0.15)">
       <defs>
        <path id="ArialMT-33" d="M 269 1209 
L 831 1284 
Q 928 806 1161 595 
Q 1394 384 1728 384 
Q 2125 384 2398 659 
Q 2672 934 2672 1341 
Q 2672 1728 2419 1979 
Q 2166 2231 1775 2231 
Q 1616 2231 1378 2169 
L 1441 2663 
Q 1497 2656 1531 2656 
Q 1891 2656 2178 2843 
Q 2466 3031 2466 3422 
Q 2466 3731 2256 3934 
Q 2047 4138 1716 4138 
Q 1388 4138 1169 3931 
Q 950 3725 888 3313 
L 325 3413 
Q 428 3978 793 4289 
Q 1159 4600 1703 4600 
Q 2078 4600 2393 4439 
Q 2709 4278 2876 4000 
Q 3044 3722 3044 3409 
Q 3044 3113 2884 2869 
Q 2725 2625 2413 2481 
Q 2819 2388 3044 2092 
Q 3269 1797 3269 1353 
Q 3269 753 2831 336 
Q 2394 -81 1725 -81 
Q 1122 -81 723 278 
Q 325 638 269 1209 
z
" transform="scale(0.015625)"/>
       </defs>
       <use xlink:href="#ArialMT-30"/>
       <use xlink:href="#ArialMT-2e" x="55.615234"/>
       <use xlink:href="#ArialMT-33" x="83.398438"/>
      </g>
     </g>
    </g>
    <g id="ytick_5">
     <g id="line2d_13">
      <g>
       <use xlink:href="#m5e77d94ed1" x="60.335" y="37.174407" style="fill: #262626; stroke: #262626; stroke-width: 1.5"/>
      </g>
     </g>
     <g id="text_14">
      <!-- 0.4 -->
      <g style="fill: #262626" transform="translate(30.985 42.542766) scale(0.15 -0.15)">
       <defs>
        <path id="ArialMT-34" d="M 2069 0 
L 2069 1097 
L 81 1097 
L 81 1613 
L 2172 4581 
L 2631 4581 
L 2631 1613 
L 3250 1613 
L 3250 1097 
L 2631 1097 
L 2631 0 
L 2069 0 
z
M 2069 1613 
L 2069 3678 
L 634 1613 
L 2069 1613 
z
" transform="scale(0.015625)"/>
       </defs>
       <use xlink:href="#ArialMT-30"/>
       <use xlink:href="#ArialMT-2e" x="55.615234"/>
       <use xlink:href="#ArialMT-34" x="83.398438"/>
      </g>
     </g>
    </g>
    <g id="text_15">
     <!-- Divergence -->
     <g style="fill: #262626" transform="translate(23.827969 240.683594) rotate(-90) scale(0.15 -0.15)">
      <defs>
       <path id="ArialMT-44" d="M 494 0 
L 494 4581 
L 2072 4581 
Q 2606 4581 2888 4516 
Q 3281 4425 3559 4188 
Q 3922 3881 4101 3404 
Q 4281 2928 4281 2316 
Q 4281 1794 4159 1391 
Q 4038 988 3847 723 
Q 3656 459 3429 307 
Q 3203 156 2883 78 
Q 2563 0 2147 0 
L 494 0 
z
M 1100 541 
L 2078 541 
Q 2531 541 2789 625 
Q 3047 709 3200 863 
Q 3416 1078 3536 1442 
Q 3656 1806 3656 2325 
Q 3656 3044 3420 3430 
Q 3184 3816 2847 3947 
Q 2603 4041 2063 4041 
L 1100 4041 
L 1100 541 
z
" transform="scale(0.015625)"/>
       <path id="ArialMT-76" d="M 1344 0 
L 81 3319 
L 675 3319 
L 1388 1331 
Q 1503 1009 1600 663 
Q 1675 925 1809 1294 
L 2547 3319 
L 3125 3319 
L 1869 0 
L 1344 0 
z
" transform="scale(0.015625)"/>
       <path id="ArialMT-72" d="M 416 0 
L 416 3319 
L 922 3319 
L 922 2816 
Q 1116 3169 1280 3281 
Q 1444 3394 1641 3394 
Q 1925 3394 2219 3213 
L 2025 2691 
Q 1819 2813 1613 2813 
Q 1428 2813 1281 2702 
Q 1134 2591 1072 2394 
Q 978 2094 978 1738 
L 978 0 
L 416 0 
z
" transform="scale(0.015625)"/>
       <path id="ArialMT-67" d="M 319 -275 
L 866 -356 
Q 900 -609 1056 -725 
Q 1266 -881 1628 -881 
Q 2019 -881 2231 -725 
Q 2444 -569 2519 -288 
Q 2563 -116 2559 434 
Q 2191 0 1641 0 
Q 956 0 581 494 
Q 206 988 206 1678 
Q 206 2153 378 2554 
Q 550 2956 876 3175 
Q 1203 3394 1644 3394 
Q 2231 3394 2613 2919 
L 2613 3319 
L 3131 3319 
L 3131 450 
Q 3131 -325 2973 -648 
Q 2816 -972 2473 -1159 
Q 2131 -1347 1631 -1347 
Q 1038 -1347 672 -1080 
Q 306 -813 319 -275 
z
M 784 1719 
Q 784 1066 1043 766 
Q 1303 466 1694 466 
Q 2081 466 2343 764 
Q 2606 1063 2606 1700 
Q 2606 2309 2336 2618 
Q 2066 2928 1684 2928 
Q 1309 2928 1046 2623 
Q 784 2319 784 1719 
z
" transform="scale(0.015625)"/>
       <path id="ArialMT-6e" d="M 422 0 
L 422 3319 
L 928 3319 
L 928 2847 
Q 1294 3394 1984 3394 
Q 2284 3394 2536 3286 
Q 2788 3178 2913 3003 
Q 3038 2828 3088 2588 
Q 3119 2431 3119 2041 
L 3119 0 
L 2556 0 
L 2556 2019 
Q 2556 2363 2490 2533 
Q 2425 2703 2258 2804 
Q 2091 2906 1866 2906 
Q 1506 2906 1245 2678 
Q 984 2450 984 1813 
L 984 0 
L 422 0 
z
" transform="scale(0.015625)"/>
       <path id="ArialMT-63" d="M 2588 1216 
L 3141 1144 
Q 3050 572 2676 248 
Q 2303 -75 1759 -75 
Q 1078 -75 664 370 
Q 250 816 250 1647 
Q 250 2184 428 2587 
Q 606 2991 970 3192 
Q 1334 3394 1763 3394 
Q 2303 3394 2647 3120 
Q 2991 2847 3088 2344 
L 2541 2259 
Q 2463 2594 2264 2762 
Q 2066 2931 1784 2931 
Q 1359 2931 1093 2626 
Q 828 2322 828 1663 
Q 828 994 1084 691 
Q 1341 388 1753 388 
Q 2084 388 2306 591 
Q 2528 794 2588 1216 
z
" transform="scale(0.015625)"/>
      </defs>
      <use xlink:href="#ArialMT-44"/>
      <use xlink:href="#ArialMT-69" x="72.216797"/>
      <use xlink:href="#ArialMT-76" x="94.433594"/>
      <use xlink:href="#ArialMT-65" x="144.433594"/>
      <use xlink:href="#ArialMT-72" x="200.048828"/>
      <use xlink:href="#ArialMT-67" x="233.349609"/>
      <use xlink:href="#ArialMT-65" x="288.964844"/>
      <use xlink:href="#ArialMT-6e" x="344.580078"/>
      <use xlink:href="#ArialMT-63" x="400.195312"/>
      <use xlink:href="#ArialMT-65" x="450.195312"/>
     </g>
    </g>
   </g>
   <g id="PolyCollection_1">
    <defs>
     <path id="m11a40838f2" d="M 85.203409 -122.3281 
L 85.203409 -73.94562 
L 90.98676 -92.778185 
L 96.770111 -101.371279 
L 102.553462 -95.048669 
L 108.336813 -98.311096 
L 114.120164 -88.318349 
L 119.903515 -92.288859 
L 125.686866 -100.121956 
L 131.470217 -94.861832 
L 137.253568 -100.115813 
L 143.036919 -73.916079 
L 148.82027 -81.247943 
L 154.603621 -95.861959 
L 160.386971 -99.129921 
L 166.170322 -113.37989 
L 171.953673 -116.075448 
L 177.737024 -143.468284 
L 183.520375 -150.610482 
L 189.303726 -155.740456 
L 195.087077 -175.108313 
L 200.870428 -184.138284 
L 206.653779 -177.9755 
L 212.43713 -186.086561 
L 218.220481 -204.346282 
L 224.003832 -228.325969 
L 229.787183 -227.827093 
L 235.570534 -227.823721 
L 241.353885 -221.611958 
L 247.137236 -224.772099 
L 252.920587 -229.135333 
L 258.703938 -224.433836 
L 264.487289 -228.644578 
L 270.27064 -225.18538 
L 276.05399 -213.472195 
L 281.837341 -217.427859 
L 287.620692 -214.098239 
L 293.404043 -217.954651 
L 299.187394 -208.27886 
L 304.970745 -209.810139 
L 310.754096 -207.461079 
L 316.537447 -198.990405 
L 322.320798 -205.656019 
L 328.104149 -219.471821 
L 333.8875 -238.393931 
L 339.670851 -247.784863 
L 345.454202 -266.008551 
L 351.237553 -296.664497 
L 357.020904 -299.625416 
L 362.804255 -290.785021 
L 368.587606 -288.430353 
L 374.370957 -308.697374 
L 380.154308 -308.781666 
L 385.937659 -319.254443 
L 391.72101 -326.733508 
L 397.50436 -322.183241 
L 403.287711 -314.006449 
L 409.071062 -316.50289 
L 414.854413 -306.311757 
L 420.637764 -292.482132 
L 426.421115 -270.21763 
L 432.204466 -242.523869 
L 437.987817 -322.450257 
L 443.771168 -300.41053 
L 449.554519 -265.213384 
L 455.33787 -225.81901 
L 461.121221 -238.041253 
L 466.904572 -279.936134 
L 472.687923 -278.362143 
L 478.471274 -281.907918 
L 484.254625 -287.864192 
L 490.037976 -278.261763 
L 495.821327 -269.26615 
L 501.604678 -268.18695 
L 507.388029 -269.254901 
L 513.171379 -268.048423 
L 518.95473 -261.188276 
L 524.738081 -266.429902 
L 530.521432 -265.247892 
L 536.304783 -257.930101 
L 542.088134 -248.045236 
L 547.871485 -258.015202 
L 553.654836 -247.710861 
L 559.438187 -245.260423 
L 565.221538 -246.367313 
L 571.004889 -242.93173 
L 576.78824 -233.314425 
L 582.571591 -236.366737 
L 582.571591 -272.104637 
L 582.571591 -272.104637 
L 576.78824 -270.488155 
L 571.004889 -280.565108 
L 565.221538 -284.7464 
L 559.438187 -284.158588 
L 553.654836 -287.026 
L 547.871485 -299.160115 
L 542.088134 -289.579284 
L 536.304783 -300.205179 
L 530.521432 -309.058024 
L 524.738081 -311.342787 
L 518.95473 -305.646947 
L 513.171379 -312.411132 
L 507.388029 -314.536449 
L 501.604678 -311.825718 
L 495.821327 -315.497685 
L 490.037976 -326.523538 
L 484.254625 -338.329085 
L 478.471274 -329.538766 
L 472.687923 -325.336672 
L 466.904572 -327.660215 
L 461.121221 -275.418379 
L 455.33787 -263.075584 
L 449.554519 -311.036612 
L 443.771168 -348.978482 
L 437.987817 -389.059091 
L 432.204466 -270.110469 
L 426.421115 -300.357451 
L 420.637764 -326.286357 
L 414.854413 -340.069674 
L 409.071062 -349.464484 
L 403.287711 -348.207026 
L 397.50436 -355.574125 
L 391.72101 -360.359949 
L 385.937659 -352.788685 
L 380.154308 -343.567766 
L 374.370957 -344.930408 
L 368.587606 -321.073165 
L 362.804255 -321.259755 
L 357.020904 -331.76814 
L 351.237553 -329.502295 
L 345.454202 -297.723451 
L 339.670851 -275.96916 
L 333.8875 -265.090591 
L 328.104149 -245.821263 
L 322.320798 -231.87733 
L 316.537447 -224.632581 
L 310.754096 -228.766259 
L 304.970745 -230.441129 
L 299.187394 -229.536045 
L 293.404043 -240.077071 
L 287.620692 -237.513835 
L 281.837341 -241.574968 
L 276.05399 -237.529665 
L 270.27064 -245.153105 
L 264.487289 -250.952739 
L 258.703938 -249.651749 
L 252.920587 -256.048907 
L 247.137236 -250.091487 
L 241.353885 -244.556453 
L 235.570534 -252.398747 
L 229.787183 -253.916416 
L 224.003832 -254.545605 
L 218.220481 -227.040621 
L 212.43713 -203.751229 
L 206.653779 -196.399539 
L 200.870428 -201.77057 
L 195.087077 -192.970725 
L 189.303726 -173.590928 
L 183.520375 -172.251121 
L 177.737024 -159.917146 
L 171.953673 -129.128431 
L 166.170322 -124.284938 
L 160.386971 -110.71003 
L 154.603621 -106.588236 
L 148.82027 -94.844844 
L 143.036919 -88.175605 
L 137.253568 -106.557051 
L 131.470217 -100.952338 
L 125.686866 -107.01653 
L 119.903515 -99.719631 
L 114.120164 -97.850637 
L 108.336813 -105.652707 
L 102.553462 -102.161845 
L 96.770111 -111.929263 
L 90.98676 -99.093548 
L 85.203409 -122.3281 
z
" style="stroke: #eb6ab0; stroke-opacity: 0.1"/>
    </defs>
    <g clip-path="url(#p0873bb3980)">
     <use xlink:href="#m11a40838f2" x="0" y="432" style="fill: #eb6ab0; fill-opacity: 0.1; stroke: #eb6ab0; stroke-opacity: 0.1"/>
    </g>
   </g>
   <g id="PolyCollection_2">
    <defs>
     <path id="mf3b20bddfc" d="M 85.203409 -99.703784 
L 85.203409 -95.882237 
L 90.98676 -99.262713 
L 96.770111 -99.017114 
L 102.553462 -99.062127 
L 108.336813 -99.083795 
L 114.120164 -98.960391 
L 119.903515 -99.68402 
L 125.686866 -99.822247 
L 131.470217 -100.117852 
L 137.253568 -99.297299 
L 143.036919 -108.306127 
L 148.82027 -107.392211 
L 154.603621 -108.480943 
L 160.386971 -107.225623 
L 166.170322 -107.396668 
L 171.953673 -107.011558 
L 177.737024 -105.477142 
L 183.520375 -105.454091 
L 189.303726 -107.936214 
L 195.087077 -107.397009 
L 200.870428 -106.37342 
L 206.653779 -106.103163 
L 212.43713 -107.812974 
L 218.220481 -107.371394 
L 224.003832 -106.887354 
L 229.787183 -106.710409 
L 235.570534 -107.348152 
L 241.353885 -105.851383 
L 247.137236 -103.972264 
L 252.920587 -102.532314 
L 258.703938 -103.157995 
L 264.487289 -104.99824 
L 270.27064 -105.417847 
L 276.05399 -106.022213 
L 281.837341 -105.88418 
L 287.620692 -106.287115 
L 293.404043 -105.936508 
L 299.187394 -104.38762 
L 304.970745 -102.320119 
L 310.754096 -103.404122 
L 316.537447 -102.014349 
L 322.320798 -100.897439 
L 328.104149 -102.34076 
L 333.8875 -104.35209 
L 339.670851 -105.463711 
L 345.454202 -106.553483 
L 351.237553 -108.452902 
L 357.020904 -107.766516 
L 362.804255 -108.56467 
L 368.587606 -109.175137 
L 374.370957 -112.950453 
L 380.154308 -110.890443 
L 385.937659 -108.763521 
L 391.72101 -109.940287 
L 397.50436 -108.942389 
L 403.287711 -106.940504 
L 409.071062 -106.047891 
L 414.854413 -103.933998 
L 420.637764 -103.632694 
L 426.421115 -102.565669 
L 432.204466 -100.127494 
L 437.987817 -101.190482 
L 443.771168 -98.561666 
L 449.554519 -96.997672 
L 455.33787 -99.778273 
L 461.121221 -101.253322 
L 466.904572 -100.280662 
L 472.687923 -100.781069 
L 478.471274 -100.74585 
L 484.254625 -99.504317 
L 490.037976 -100.052617 
L 495.821327 -101.181917 
L 501.604678 -100.87671 
L 507.388029 -101.605779 
L 513.171379 -101.832329 
L 518.95473 -99.90657 
L 524.738081 -99.009497 
L 530.521432 -100.067348 
L 536.304783 -101.96515 
L 542.088134 -100.890902 
L 547.871485 -100.364701 
L 553.654836 -99.829939 
L 559.438187 -100.275985 
L 565.221538 -100.582617 
L 571.004889 -101.156352 
L 576.78824 -101.075137 
L 582.571591 -100.397141 
L 582.571591 -101.30075 
L 582.571591 -101.30075 
L 576.78824 -102.078609 
L 571.004889 -102.149609 
L 565.221538 -101.641784 
L 559.438187 -101.197356 
L 553.654836 -100.857939 
L 547.871485 -101.362585 
L 542.088134 -102.143776 
L 536.304783 -103.094625 
L 530.521432 -101.088975 
L 524.738081 -99.967807 
L 518.95473 -100.887347 
L 513.171379 -102.904332 
L 507.388029 -102.765832 
L 501.604678 -102.01195 
L 495.821327 -102.17087 
L 490.037976 -101.11095 
L 484.254625 -100.568248 
L 478.471274 -101.870297 
L 472.687923 -101.779839 
L 466.904572 -101.22334 
L 461.121221 -102.560146 
L 455.33787 -101.035467 
L 449.554519 -98.369426 
L 443.771168 -100.436461 
L 437.987817 -102.583095 
L 432.204466 -101.290909 
L 426.421115 -104.555943 
L 420.637764 -105.716 
L 414.854413 -105.859724 
L 409.071062 -107.805407 
L 403.287711 -108.714741 
L 397.50436 -110.876741 
L 391.72101 -111.865238 
L 385.937659 -110.600706 
L 380.154308 -112.880917 
L 374.370957 -115.033265 
L 368.587606 -111.189557 
L 362.804255 -110.629972 
L 357.020904 -109.726441 
L 351.237553 -110.417299 
L 345.454202 -110.549923 
L 339.670851 -107.321719 
L 333.8875 -106.153968 
L 328.104149 -103.964707 
L 322.320798 -102.527164 
L 316.537447 -103.707444 
L 310.754096 -105.294348 
L 304.970745 -104.141554 
L 299.187394 -106.159397 
L 293.404043 -107.594599 
L 287.620692 -108.011158 
L 281.837341 -107.686753 
L 276.05399 -108.173406 
L 270.27064 -107.171658 
L 264.487289 -106.667919 
L 258.703938 -104.662449 
L 252.920587 -104.133611 
L 247.137236 -105.660829 
L 241.353885 -107.668037 
L 235.570534 -108.974118 
L 229.787183 -108.594616 
L 224.003832 -108.916528 
L 218.220481 -109.502367 
L 212.43713 -109.959749 
L 206.653779 -107.938316 
L 200.870428 -108.301132 
L 195.087077 -109.304819 
L 189.303726 -109.871568 
L 183.520375 -107.176713 
L 177.737024 -107.464405 
L 171.953673 -109.753503 
L 166.170322 -109.730438 
L 160.386971 -109.659566 
L 154.603621 -111.121814 
L 148.82027 -109.766748 
L 143.036919 -112.040221 
L 137.253568 -100.516376 
L 131.470217 -101.208145 
L 125.686866 -101.046299 
L 119.903515 -100.625294 
L 114.120164 -99.735248 
L 108.336813 -99.786198 
L 102.553462 -99.800278 
L 96.770111 -99.693267 
L 90.98676 -99.880907 
L 85.203409 -99.703784 
z
" style="stroke: #eb6ab0; stroke-opacity: 0.1"/>
    </defs>
    <g clip-path="url(#p0873bb3980)">
     <use xlink:href="#mf3b20bddfc" x="0" y="432" style="fill: #eb6ab0; fill-opacity: 0.1; stroke: #eb6ab0; stroke-opacity: 0.1"/>
    </g>
   </g>
   <g id="PathCollection_1">
    <defs>
     <path id="m0b8e39960f" d="M 0 -3 
L -0.673542 -0.927051 
L -2.85317 -0.927051 
L -1.089814 0.354102 
L -1.763356 2.427051 
L -0 1.145898 
L 1.763356 2.427051 
L 1.089814 0.354102 
L 2.85317 -0.927051 
L 0.673542 -0.927051 
z
" style="stroke: #eb6ab0"/>
    </defs>
    <g clip-path="url(#p0873bb3980)">
     <use xlink:href="#m0b8e39960f" x="177.737024" y="339.978825" style="fill: #eb6ab0; stroke: #eb6ab0"/>
     <use xlink:href="#m0b8e39960f" x="183.520375" y="339.978825" style="fill: #eb6ab0; stroke: #eb6ab0"/>
     <use xlink:href="#m0b8e39960f" x="189.303726" y="339.978825" style="fill: #eb6ab0; stroke: #eb6ab0"/>
     <use xlink:href="#m0b8e39960f" x="195.087077" y="339.978825" style="fill: #eb6ab0; stroke: #eb6ab0"/>
     <use xlink:href="#m0b8e39960f" x="200.870428" y="339.978825" style="fill: #eb6ab0; stroke: #eb6ab0"/>
     <use xlink:href="#m0b8e39960f" x="206.653779" y="339.978825" style="fill: #eb6ab0; stroke: #eb6ab0"/>
     <use xlink:href="#m0b8e39960f" x="212.43713" y="339.978825" style="fill: #eb6ab0; stroke: #eb6ab0"/>
     <use xlink:href="#m0b8e39960f" x="218.220481" y="339.978825" style="fill: #eb6ab0; stroke: #eb6ab0"/>
     <use xlink:href="#m0b8e39960f" x="224.003832" y="339.978825" style="fill: #eb6ab0; stroke: #eb6ab0"/>
     <use xlink:href="#m0b8e39960f" x="229.787183" y="339.978825" style="fill: #eb6ab0; stroke: #eb6ab0"/>
     <use xlink:href="#m0b8e39960f" x="235.570534" y="339.978825" style="fill: #eb6ab0; stroke: #eb6ab0"/>
     <use xlink:href="#m0b8e39960f" x="241.353885" y="339.978825" style="fill: #eb6ab0; stroke: #eb6ab0"/>
     <use xlink:href="#m0b8e39960f" x="247.137236" y="339.978825" style="fill: #eb6ab0; stroke: #eb6ab0"/>
     <use xlink:href="#m0b8e39960f" x="252.920587" y="339.978825" style="fill: #eb6ab0; stroke: #eb6ab0"/>
     <use xlink:href="#m0b8e39960f" x="258.703938" y="339.978825" style="fill: #eb6ab0; stroke: #eb6ab0"/>
     <use xlink:href="#m0b8e39960f" x="264.487289" y="339.978825" style="fill: #eb6ab0; stroke: #eb6ab0"/>
     <use xlink:href="#m0b8e39960f" x="270.27064" y="339.978825" style="fill: #eb6ab0; stroke: #eb6ab0"/>
     <use xlink:href="#m0b8e39960f" x="276.05399" y="339.978825" style="fill: #eb6ab0; stroke: #eb6ab0"/>
     <use xlink:href="#m0b8e39960f" x="281.837341" y="339.978825" style="fill: #eb6ab0; stroke: #eb6ab0"/>
     <use xlink:href="#m0b8e39960f" x="287.620692" y="339.978825" style="fill: #eb6ab0; stroke: #eb6ab0"/>
     <use xlink:href="#m0b8e39960f" x="293.404043" y="339.978825" style="fill: #eb6ab0; stroke: #eb6ab0"/>
     <use xlink:href="#m0b8e39960f" x="299.187394" y="339.978825" style="fill: #eb6ab0; stroke: #eb6ab0"/>
     <use xlink:href="#m0b8e39960f" x="304.970745" y="339.978825" style="fill: #eb6ab0; stroke: #eb6ab0"/>
     <use xlink:href="#m0b8e39960f" x="310.754096" y="339.978825" style="fill: #eb6ab0; stroke: #eb6ab0"/>
     <use xlink:href="#m0b8e39960f" x="316.537447" y="339.978825" style="fill: #eb6ab0; stroke: #eb6ab0"/>
     <use xlink:href="#m0b8e39960f" x="322.320798" y="339.978825" style="fill: #eb6ab0; stroke: #eb6ab0"/>
     <use xlink:href="#m0b8e39960f" x="328.104149" y="339.978825" style="fill: #eb6ab0; stroke: #eb6ab0"/>
     <use xlink:href="#m0b8e39960f" x="333.8875" y="339.978825" style="fill: #eb6ab0; stroke: #eb6ab0"/>
     <use xlink:href="#m0b8e39960f" x="339.670851" y="339.978825" style="fill: #eb6ab0; stroke: #eb6ab0"/>
     <use xlink:href="#m0b8e39960f" x="345.454202" y="339.978825" style="fill: #eb6ab0; stroke: #eb6ab0"/>
     <use xlink:href="#m0b8e39960f" x="351.237553" y="339.978825" style="fill: #eb6ab0; stroke: #eb6ab0"/>
     <use xlink:href="#m0b8e39960f" x="357.020904" y="339.978825" style="fill: #eb6ab0; stroke: #eb6ab0"/>
     <use xlink:href="#m0b8e39960f" x="362.804255" y="339.978825" style="fill: #eb6ab0; stroke: #eb6ab0"/>
     <use xlink:href="#m0b8e39960f" x="368.587606" y="339.978825" style="fill: #eb6ab0; stroke: #eb6ab0"/>
     <use xlink:href="#m0b8e39960f" x="374.370957" y="339.978825" style="fill: #eb6ab0; stroke: #eb6ab0"/>
     <use xlink:href="#m0b8e39960f" x="380.154308" y="339.978825" style="fill: #eb6ab0; stroke: #eb6ab0"/>
     <use xlink:href="#m0b8e39960f" x="385.937659" y="339.978825" style="fill: #eb6ab0; stroke: #eb6ab0"/>
     <use xlink:href="#m0b8e39960f" x="391.72101" y="339.978825" style="fill: #eb6ab0; stroke: #eb6ab0"/>
     <use xlink:href="#m0b8e39960f" x="397.50436" y="339.978825" style="fill: #eb6ab0; stroke: #eb6ab0"/>
     <use xlink:href="#m0b8e39960f" x="403.287711" y="339.978825" style="fill: #eb6ab0; stroke: #eb6ab0"/>
     <use xlink:href="#m0b8e39960f" x="409.071062" y="339.978825" style="fill: #eb6ab0; stroke: #eb6ab0"/>
     <use xlink:href="#m0b8e39960f" x="414.854413" y="339.978825" style="fill: #eb6ab0; stroke: #eb6ab0"/>
     <use xlink:href="#m0b8e39960f" x="420.637764" y="339.978825" style="fill: #eb6ab0; stroke: #eb6ab0"/>
     <use xlink:href="#m0b8e39960f" x="426.421115" y="339.978825" style="fill: #eb6ab0; stroke: #eb6ab0"/>
     <use xlink:href="#m0b8e39960f" x="432.204466" y="339.978825" style="fill: #eb6ab0; stroke: #eb6ab0"/>
     <use xlink:href="#m0b8e39960f" x="437.987817" y="339.978825" style="fill: #eb6ab0; stroke: #eb6ab0"/>
     <use xlink:href="#m0b8e39960f" x="443.771168" y="339.978825" style="fill: #eb6ab0; stroke: #eb6ab0"/>
     <use xlink:href="#m0b8e39960f" x="449.554519" y="339.978825" style="fill: #eb6ab0; stroke: #eb6ab0"/>
     <use xlink:href="#m0b8e39960f" x="455.33787" y="339.978825" style="fill: #eb6ab0; stroke: #eb6ab0"/>
     <use xlink:href="#m0b8e39960f" x="461.121221" y="339.978825" style="fill: #eb6ab0; stroke: #eb6ab0"/>
     <use xlink:href="#m0b8e39960f" x="466.904572" y="339.978825" style="fill: #eb6ab0; stroke: #eb6ab0"/>
     <use xlink:href="#m0b8e39960f" x="472.687923" y="339.978825" style="fill: #eb6ab0; stroke: #eb6ab0"/>
     <use xlink:href="#m0b8e39960f" x="478.471274" y="339.978825" style="fill: #eb6ab0; stroke: #eb6ab0"/>
     <use xlink:href="#m0b8e39960f" x="484.254625" y="339.978825" style="fill: #eb6ab0; stroke: #eb6ab0"/>
     <use xlink:href="#m0b8e39960f" x="490.037976" y="339.978825" style="fill: #eb6ab0; stroke: #eb6ab0"/>
     <use xlink:href="#m0b8e39960f" x="495.821327" y="339.978825" style="fill: #eb6ab0; stroke: #eb6ab0"/>
     <use xlink:href="#m0b8e39960f" x="501.604678" y="339.978825" style="fill: #eb6ab0; stroke: #eb6ab0"/>
     <use xlink:href="#m0b8e39960f" x="507.388029" y="339.978825" style="fill: #eb6ab0; stroke: #eb6ab0"/>
     <use xlink:href="#m0b8e39960f" x="513.171379" y="339.978825" style="fill: #eb6ab0; stroke: #eb6ab0"/>
     <use xlink:href="#m0b8e39960f" x="518.95473" y="339.978825" style="fill: #eb6ab0; stroke: #eb6ab0"/>
     <use xlink:href="#m0b8e39960f" x="524.738081" y="339.978825" style="fill: #eb6ab0; stroke: #eb6ab0"/>
     <use xlink:href="#m0b8e39960f" x="530.521432" y="339.978825" style="fill: #eb6ab0; stroke: #eb6ab0"/>
     <use xlink:href="#m0b8e39960f" x="536.304783" y="339.978825" style="fill: #eb6ab0; stroke: #eb6ab0"/>
     <use xlink:href="#m0b8e39960f" x="542.088134" y="339.978825" style="fill: #eb6ab0; stroke: #eb6ab0"/>
     <use xlink:href="#m0b8e39960f" x="547.871485" y="339.978825" style="fill: #eb6ab0; stroke: #eb6ab0"/>
     <use xlink:href="#m0b8e39960f" x="553.654836" y="339.978825" style="fill: #eb6ab0; stroke: #eb6ab0"/>
     <use xlink:href="#m0b8e39960f" x="559.438187" y="339.978825" style="fill: #eb6ab0; stroke: #eb6ab0"/>
     <use xlink:href="#m0b8e39960f" x="565.221538" y="339.978825" style="fill: #eb6ab0; stroke: #eb6ab0"/>
     <use xlink:href="#m0b8e39960f" x="571.004889" y="339.978825" style="fill: #eb6ab0; stroke: #eb6ab0"/>
     <use xlink:href="#m0b8e39960f" x="576.78824" y="339.978825" style="fill: #eb6ab0; stroke: #eb6ab0"/>
     <use xlink:href="#m0b8e39960f" x="582.571591" y="339.978825" style="fill: #eb6ab0; stroke: #eb6ab0"/>
    </g>
   </g>
   <g id="PolyCollection_3">
    <defs>
     <path id="m24d1dfa1f7" d="M 85.203409 -120.164185 
L 85.203409 -98.704029 
L 90.98676 -82.712454 
L 96.770111 -101.335875 
L 102.553462 -92.75468 
L 108.336813 -90.53892 
L 114.120164 -102.625615 
L 119.903515 -89.339065 
L 125.686866 -70.992298 
L 131.470217 -69.440909 
L 137.253568 -73.384576 
L 143.036919 -76.72293 
L 148.82027 -80.190939 
L 154.603621 -89.88277 
L 160.386971 -93.092419 
L 166.170322 -98.746116 
L 171.953673 -109.587522 
L 177.737024 -96.302681 
L 183.520375 -93.191043 
L 189.303726 -96.342827 
L 195.087077 -98.644008 
L 200.870428 -116.639572 
L 206.653779 -110.527447 
L 212.43713 -118.87476 
L 218.220481 -115.144496 
L 224.003832 -127.158046 
L 229.787183 -134.286678 
L 235.570534 -134.132016 
L 241.353885 -140.064274 
L 247.137236 -146.469468 
L 252.920587 -150.553328 
L 258.703938 -159.693108 
L 264.487289 -162.485095 
L 270.27064 -163.156995 
L 276.05399 -168.062621 
L 281.837341 -177.852672 
L 287.620692 -186.324017 
L 293.404043 -190.969429 
L 299.187394 -191.252749 
L 304.970745 -194.632675 
L 310.754096 -196.885179 
L 316.537447 -204.454646 
L 322.320798 -205.052585 
L 328.104149 -212.047016 
L 333.8875 -210.71551 
L 339.670851 -209.394085 
L 345.454202 -214.795804 
L 351.237553 -221.570316 
L 357.020904 -229.865155 
L 362.804255 -233.948273 
L 368.587606 -245.022743 
L 374.370957 -253.166728 
L 380.154308 -255.146391 
L 385.937659 -253.607302 
L 391.72101 -261.165721 
L 397.50436 -269.771845 
L 403.287711 -272.449328 
L 409.071062 -276.351337 
L 414.854413 -280.170907 
L 420.637764 -285.252134 
L 426.421115 -293.547805 
L 432.204466 -299.279204 
L 437.987817 -298.430502 
L 443.771168 -307.920432 
L 449.554519 -315.506975 
L 455.33787 -317.746436 
L 461.121221 -312.891937 
L 466.904572 -310.337758 
L 472.687923 -303.191642 
L 478.471274 -299.067655 
L 484.254625 -294.860205 
L 490.037976 -294.424624 
L 495.821327 -292.926856 
L 501.604678 -296.829655 
L 507.388029 -293.98537 
L 513.171379 -289.00291 
L 518.95473 -286.408667 
L 524.738081 -279.543312 
L 530.521432 -281.808868 
L 536.304783 -281.20824 
L 542.088134 -280.659845 
L 547.871485 -284.391066 
L 553.654836 -277.278299 
L 559.438187 -279.834505 
L 565.221538 -279.405825 
L 571.004889 -280.086227 
L 576.78824 -280.781309 
L 582.571591 -281.964561 
L 582.571591 -339.914029 
L 582.571591 -339.914029 
L 576.78824 -338.610203 
L 571.004889 -338.535708 
L 565.221538 -338.451768 
L 559.438187 -337.458917 
L 553.654836 -334.546954 
L 547.871485 -340.791235 
L 542.088134 -337.950014 
L 536.304783 -338.467954 
L 530.521432 -340.090421 
L 524.738081 -337.26733 
L 518.95473 -344.164984 
L 513.171379 -345.873383 
L 507.388029 -351.015878 
L 501.604678 -353.813252 
L 495.821327 -348.722395 
L 490.037976 -349.898805 
L 484.254625 -350.2564 
L 478.471274 -355.534619 
L 472.687923 -360.465544 
L 466.904572 -368.620271 
L 461.121221 -372.046889 
L 455.33787 -376.122353 
L 449.554519 -373.334993 
L 443.771168 -365.30624 
L 437.987817 -354.791753 
L 432.204466 -355.699626 
L 426.421115 -350.081075 
L 420.637764 -339.729049 
L 414.854413 -333.38789 
L 409.071062 -328.28778 
L 403.287711 -323.368324 
L 397.50436 -319.224403 
L 391.72101 -309.052981 
L 385.937659 -300.902129 
L 380.154308 -300.611825 
L 374.370957 -297.717199 
L 368.587606 -287.753684 
L 362.804255 -275.104171 
L 357.020904 -269.844653 
L 351.237553 -259.742034 
L 345.454202 -250.979923 
L 339.670851 -245.283453 
L 333.8875 -245.995988 
L 328.104149 -246.155427 
L 322.320798 -239.009632 
L 316.537447 -236.61374 
L 310.754096 -228.29447 
L 304.970745 -225.598501 
L 299.187394 -221.896568 
L 293.404043 -219.533239 
L 287.620692 -214.468382 
L 281.837341 -205.474521 
L 276.05399 -196.287554 
L 270.27064 -190.122104 
L 264.487289 -187.613729 
L 258.703938 -185.143207 
L 252.920587 -173.093137 
L 247.137236 -166.838249 
L 241.353885 -160.743423 
L 235.570534 -152.186847 
L 229.787183 -152.914838 
L 224.003832 -146.749916 
L 218.220481 -138.954238 
L 212.43713 -140.046438 
L 206.653779 -132.264057 
L 200.870428 -139.284412 
L 195.087077 -125.03663 
L 189.303726 -124.420447 
L 183.520375 -121.156018 
L 177.737024 -123.988105 
L 171.953673 -139.896026 
L 166.170322 -129.854523 
L 160.386971 -123.627672 
L 154.603621 -126.396869 
L 148.82027 -115.027534 
L 143.036919 -112.488031 
L 137.253568 -114.689215 
L 131.470217 -113.408386 
L 125.686866 -110.643211 
L 119.903515 -131.171013 
L 114.120164 -145.32173 
L 108.336813 -129.384598 
L 102.553462 -133.130841 
L 96.770111 -133.228473 
L 90.98676 -121.652071 
L 85.203409 -120.164185 
z
" style="stroke: #8b0a50; stroke-opacity: 0.1"/>
    </defs>
    <g clip-path="url(#p0873bb3980)">
     <use xlink:href="#m24d1dfa1f7" x="0" y="432" style="fill: #8b0a50; fill-opacity: 0.1; stroke: #8b0a50; stroke-opacity: 0.1"/>
    </g>
   </g>
   <g id="PolyCollection_4">
    <defs>
     <path id="mdfcda6ff1d" d="M 85.203409 -105.105701 
L 85.203409 -102.252545 
L 90.98676 -106.149993 
L 96.770111 -107.838068 
L 102.553462 -107.639953 
L 108.336813 -109.601233 
L 114.120164 -111.106143 
L 119.903515 -113.629126 
L 125.686866 -118.359273 
L 131.470217 -123.354792 
L 137.253568 -125.391188 
L 143.036919 -129.468688 
L 148.82027 -132.792027 
L 154.603621 -133.352995 
L 160.386971 -132.33957 
L 166.170322 -132.663138 
L 171.953673 -131.046149 
L 177.737024 -129.25191 
L 183.520375 -128.882613 
L 189.303726 -126.491293 
L 195.087077 -123.927906 
L 200.870428 -122.50462 
L 206.653779 -122.473692 
L 212.43713 -120.471392 
L 218.220481 -118.962785 
L 224.003832 -118.111427 
L 229.787183 -115.417918 
L 235.570534 -115.251425 
L 241.353885 -114.504888 
L 247.137236 -114.408244 
L 252.920587 -114.689585 
L 258.703938 -114.638928 
L 264.487289 -114.848299 
L 270.27064 -113.836019 
L 276.05399 -113.613906 
L 281.837341 -114.252747 
L 287.620692 -114.202494 
L 293.404043 -113.469571 
L 299.187394 -113.611941 
L 304.970745 -113.358796 
L 310.754096 -113.514625 
L 316.537447 -113.436339 
L 322.320798 -113.444598 
L 328.104149 -112.640317 
L 333.8875 -112.582162 
L 339.670851 -112.74035 
L 345.454202 -112.674855 
L 351.237553 -112.178878 
L 357.020904 -111.923937 
L 362.804255 -111.5636 
L 368.587606 -112.236854 
L 374.370957 -111.720324 
L 380.154308 -111.26968 
L 385.937659 -111.074698 
L 391.72101 -110.583695 
L 397.50436 -110.304843 
L 403.287711 -110.678888 
L 409.071062 -110.293893 
L 414.854413 -110.38097 
L 420.637764 -110.110456 
L 426.421115 -109.75002 
L 432.204466 -108.937628 
L 437.987817 -108.695423 
L 443.771168 -108.73894 
L 449.554519 -108.614044 
L 455.33787 -108.041569 
L 461.121221 -108.282162 
L 466.904572 -107.731388 
L 472.687923 -108.200368 
L 478.471274 -107.402486 
L 484.254625 -107.582766 
L 490.037976 -107.154273 
L 495.821327 -107.240007 
L 501.604678 -106.833213 
L 507.388029 -107.086825 
L 513.171379 -107.127756 
L 518.95473 -106.409288 
L 524.738081 -106.795124 
L 530.521432 -106.917174 
L 536.304783 -106.956482 
L 542.088134 -107.358371 
L 547.871485 -107.493902 
L 553.654836 -107.523337 
L 559.438187 -107.675827 
L 565.221538 -107.812585 
L 571.004889 -107.042432 
L 576.78824 -106.912978 
L 582.571591 -106.778417 
L 582.571591 -109.559766 
L 582.571591 -109.559766 
L 576.78824 -109.692634 
L 571.004889 -109.832985 
L 565.221538 -110.723247 
L 559.438187 -110.537802 
L 553.654836 -110.191352 
L 547.871485 -110.127355 
L 542.088134 -110.095599 
L 536.304783 -109.715942 
L 530.521432 -109.627566 
L 524.738081 -109.51447 
L 518.95473 -109.214088 
L 513.171379 -109.849209 
L 507.388029 -109.80346 
L 501.604678 -109.526472 
L 495.821327 -110.016504 
L 490.037976 -109.878036 
L 484.254625 -110.404105 
L 478.471274 -110.235663 
L 472.687923 -111.04857 
L 466.904572 -110.587618 
L 461.121221 -111.044404 
L 455.33787 -110.844263 
L 449.554519 -111.381292 
L 443.771168 -111.478355 
L 437.987817 -111.426208 
L 432.204466 -111.666048 
L 426.421115 -112.453483 
L 420.637764 -112.790886 
L 414.854413 -113.106257 
L 409.071062 -113.045042 
L 403.287711 -113.4521 
L 397.50436 -113.191972 
L 391.72101 -113.437681 
L 385.937659 -113.914215 
L 380.154308 -114.119887 
L 374.370957 -114.605154 
L 368.587606 -115.123389 
L 362.804255 -114.321021 
L 357.020904 -114.684007 
L 351.237553 -114.978955 
L 345.454202 -115.638492 
L 339.670851 -115.613555 
L 333.8875 -115.330914 
L 328.104149 -115.383425 
L 322.320798 -116.130582 
L 316.537447 -116.188749 
L 310.754096 -116.214106 
L 304.970745 -115.979107 
L 299.187394 -116.306286 
L 293.404043 -115.925289 
L 287.620692 -116.634168 
L 281.837341 -116.739135 
L 276.05399 -116.070713 
L 270.27064 -116.322353 
L 264.487289 -117.460435 
L 258.703938 -117.240859 
L 252.920587 -117.327538 
L 247.137236 -116.941627 
L 241.353885 -117.172357 
L 235.570534 -118.03345 
L 229.787183 -118.392798 
L 224.003832 -121.141505 
L 218.220481 -121.806076 
L 212.43713 -123.397547 
L 206.653779 -125.689598 
L 200.870428 -125.697116 
L 195.087077 -127.174385 
L 189.303726 -130.100461 
L 183.520375 -132.820239 
L 177.737024 -133.40694 
L 171.953673 -135.744461 
L 166.170322 -137.564869 
L 160.386971 -137.687749 
L 154.603621 -139.073439 
L 148.82027 -138.789925 
L 143.036919 -135.594575 
L 137.253568 -131.785994 
L 131.470217 -129.61835 
L 125.686866 -124.211188 
L 119.903515 -119.516219 
L 114.120164 -116.409671 
L 108.336813 -114.697037 
L 102.553462 -112.520476 
L 96.770111 -112.022213 
L 90.98676 -109.462411 
L 85.203409 -105.105701 
z
" style="stroke: #8b0a50; stroke-opacity: 0.1"/>
    </defs>
    <g clip-path="url(#p0873bb3980)">
     <use xlink:href="#mdfcda6ff1d" x="0" y="432" style="fill: #8b0a50; fill-opacity: 0.1; stroke: #8b0a50; stroke-opacity: 0.1"/>
    </g>
   </g>
   <g id="PathCollection_2">
    <defs>
     <path id="m21ff8faaab" d="M 0 -3 
L -0.673542 -0.927051 
L -2.85317 -0.927051 
L -1.089814 0.354102 
L -1.763356 2.427051 
L -0 1.145898 
L 1.763356 2.427051 
L 1.089814 0.354102 
L 2.85317 -0.927051 
L 0.673542 -0.927051 
z
" style="stroke: #8b0a50"/>
    </defs>
    <g clip-path="url(#p0873bb3980)">
     <use xlink:href="#m21ff8faaab" x="241.353885" y="347.364299" style="fill: #8b0a50; stroke: #8b0a50"/>
     <use xlink:href="#m21ff8faaab" x="247.137236" y="347.364299" style="fill: #8b0a50; stroke: #8b0a50"/>
     <use xlink:href="#m21ff8faaab" x="252.920587" y="347.364299" style="fill: #8b0a50; stroke: #8b0a50"/>
     <use xlink:href="#m21ff8faaab" x="258.703938" y="347.364299" style="fill: #8b0a50; stroke: #8b0a50"/>
     <use xlink:href="#m21ff8faaab" x="264.487289" y="347.364299" style="fill: #8b0a50; stroke: #8b0a50"/>
     <use xlink:href="#m21ff8faaab" x="270.27064" y="347.364299" style="fill: #8b0a50; stroke: #8b0a50"/>
     <use xlink:href="#m21ff8faaab" x="276.05399" y="347.364299" style="fill: #8b0a50; stroke: #8b0a50"/>
     <use xlink:href="#m21ff8faaab" x="281.837341" y="347.364299" style="fill: #8b0a50; stroke: #8b0a50"/>
     <use xlink:href="#m21ff8faaab" x="287.620692" y="347.364299" style="fill: #8b0a50; stroke: #8b0a50"/>
     <use xlink:href="#m21ff8faaab" x="293.404043" y="347.364299" style="fill: #8b0a50; stroke: #8b0a50"/>
     <use xlink:href="#m21ff8faaab" x="299.187394" y="347.364299" style="fill: #8b0a50; stroke: #8b0a50"/>
     <use xlink:href="#m21ff8faaab" x="304.970745" y="347.364299" style="fill: #8b0a50; stroke: #8b0a50"/>
     <use xlink:href="#m21ff8faaab" x="310.754096" y="347.364299" style="fill: #8b0a50; stroke: #8b0a50"/>
     <use xlink:href="#m21ff8faaab" x="316.537447" y="347.364299" style="fill: #8b0a50; stroke: #8b0a50"/>
     <use xlink:href="#m21ff8faaab" x="322.320798" y="347.364299" style="fill: #8b0a50; stroke: #8b0a50"/>
     <use xlink:href="#m21ff8faaab" x="328.104149" y="347.364299" style="fill: #8b0a50; stroke: #8b0a50"/>
     <use xlink:href="#m21ff8faaab" x="333.8875" y="347.364299" style="fill: #8b0a50; stroke: #8b0a50"/>
     <use xlink:href="#m21ff8faaab" x="339.670851" y="347.364299" style="fill: #8b0a50; stroke: #8b0a50"/>
     <use xlink:href="#m21ff8faaab" x="345.454202" y="347.364299" style="fill: #8b0a50; stroke: #8b0a50"/>
     <use xlink:href="#m21ff8faaab" x="351.237553" y="347.364299" style="fill: #8b0a50; stroke: #8b0a50"/>
     <use xlink:href="#m21ff8faaab" x="357.020904" y="347.364299" style="fill: #8b0a50; stroke: #8b0a50"/>
     <use xlink:href="#m21ff8faaab" x="362.804255" y="347.364299" style="fill: #8b0a50; stroke: #8b0a50"/>
     <use xlink:href="#m21ff8faaab" x="368.587606" y="347.364299" style="fill: #8b0a50; stroke: #8b0a50"/>
     <use xlink:href="#m21ff8faaab" x="374.370957" y="347.364299" style="fill: #8b0a50; stroke: #8b0a50"/>
     <use xlink:href="#m21ff8faaab" x="380.154308" y="347.364299" style="fill: #8b0a50; stroke: #8b0a50"/>
     <use xlink:href="#m21ff8faaab" x="385.937659" y="347.364299" style="fill: #8b0a50; stroke: #8b0a50"/>
     <use xlink:href="#m21ff8faaab" x="391.72101" y="347.364299" style="fill: #8b0a50; stroke: #8b0a50"/>
     <use xlink:href="#m21ff8faaab" x="397.50436" y="347.364299" style="fill: #8b0a50; stroke: #8b0a50"/>
     <use xlink:href="#m21ff8faaab" x="403.287711" y="347.364299" style="fill: #8b0a50; stroke: #8b0a50"/>
     <use xlink:href="#m21ff8faaab" x="409.071062" y="347.364299" style="fill: #8b0a50; stroke: #8b0a50"/>
     <use xlink:href="#m21ff8faaab" x="414.854413" y="347.364299" style="fill: #8b0a50; stroke: #8b0a50"/>
     <use xlink:href="#m21ff8faaab" x="420.637764" y="347.364299" style="fill: #8b0a50; stroke: #8b0a50"/>
     <use xlink:href="#m21ff8faaab" x="426.421115" y="347.364299" style="fill: #8b0a50; stroke: #8b0a50"/>
     <use xlink:href="#m21ff8faaab" x="432.204466" y="347.364299" style="fill: #8b0a50; stroke: #8b0a50"/>
     <use xlink:href="#m21ff8faaab" x="437.987817" y="347.364299" style="fill: #8b0a50; stroke: #8b0a50"/>
     <use xlink:href="#m21ff8faaab" x="443.771168" y="347.364299" style="fill: #8b0a50; stroke: #8b0a50"/>
     <use xlink:href="#m21ff8faaab" x="449.554519" y="347.364299" style="fill: #8b0a50; stroke: #8b0a50"/>
     <use xlink:href="#m21ff8faaab" x="455.33787" y="347.364299" style="fill: #8b0a50; stroke: #8b0a50"/>
     <use xlink:href="#m21ff8faaab" x="461.121221" y="347.364299" style="fill: #8b0a50; stroke: #8b0a50"/>
     <use xlink:href="#m21ff8faaab" x="466.904572" y="347.364299" style="fill: #8b0a50; stroke: #8b0a50"/>
     <use xlink:href="#m21ff8faaab" x="472.687923" y="347.364299" style="fill: #8b0a50; stroke: #8b0a50"/>
     <use xlink:href="#m21ff8faaab" x="478.471274" y="347.364299" style="fill: #8b0a50; stroke: #8b0a50"/>
     <use xlink:href="#m21ff8faaab" x="484.254625" y="347.364299" style="fill: #8b0a50; stroke: #8b0a50"/>
     <use xlink:href="#m21ff8faaab" x="490.037976" y="347.364299" style="fill: #8b0a50; stroke: #8b0a50"/>
     <use xlink:href="#m21ff8faaab" x="495.821327" y="347.364299" style="fill: #8b0a50; stroke: #8b0a50"/>
     <use xlink:href="#m21ff8faaab" x="501.604678" y="347.364299" style="fill: #8b0a50; stroke: #8b0a50"/>
     <use xlink:href="#m21ff8faaab" x="507.388029" y="347.364299" style="fill: #8b0a50; stroke: #8b0a50"/>
     <use xlink:href="#m21ff8faaab" x="513.171379" y="347.364299" style="fill: #8b0a50; stroke: #8b0a50"/>
     <use xlink:href="#m21ff8faaab" x="518.95473" y="347.364299" style="fill: #8b0a50; stroke: #8b0a50"/>
     <use xlink:href="#m21ff8faaab" x="524.738081" y="347.364299" style="fill: #8b0a50; stroke: #8b0a50"/>
     <use xlink:href="#m21ff8faaab" x="530.521432" y="347.364299" style="fill: #8b0a50; stroke: #8b0a50"/>
     <use xlink:href="#m21ff8faaab" x="536.304783" y="347.364299" style="fill: #8b0a50; stroke: #8b0a50"/>
     <use xlink:href="#m21ff8faaab" x="542.088134" y="347.364299" style="fill: #8b0a50; stroke: #8b0a50"/>
     <use xlink:href="#m21ff8faaab" x="547.871485" y="347.364299" style="fill: #8b0a50; stroke: #8b0a50"/>
     <use xlink:href="#m21ff8faaab" x="553.654836" y="347.364299" style="fill: #8b0a50; stroke: #8b0a50"/>
     <use xlink:href="#m21ff8faaab" x="559.438187" y="347.364299" style="fill: #8b0a50; stroke: #8b0a50"/>
     <use xlink:href="#m21ff8faaab" x="565.221538" y="347.364299" style="fill: #8b0a50; stroke: #8b0a50"/>
     <use xlink:href="#m21ff8faaab" x="571.004889" y="347.364299" style="fill: #8b0a50; stroke: #8b0a50"/>
     <use xlink:href="#m21ff8faaab" x="576.78824" y="347.364299" style="fill: #8b0a50; stroke: #8b0a50"/>
     <use xlink:href="#m21ff8faaab" x="582.571591" y="347.364299" style="fill: #8b0a50; stroke: #8b0a50"/>
    </g>
   </g>
   <g id="line2d_14">
    <path d="M 85.203409 333.86314 
L 90.98676 336.064134 
L 96.770111 325.349729 
L 102.553462 333.394743 
L 108.336813 330.018098 
L 114.120164 338.915507 
L 119.903515 335.995755 
L 125.686866 328.430757 
L 131.470217 334.092915 
L 137.253568 328.663568 
L 143.036919 350.954158 
L 148.82027 343.953606 
L 154.603621 330.774903 
L 160.386971 327.080025 
L 166.170322 313.167586 
L 171.953673 309.39806 
L 177.737024 280.307285 
L 183.520375 270.569199 
L 189.303726 267.334308 
L 195.087077 247.960481 
L 200.870428 239.045573 
L 206.653779 244.812481 
L 212.43713 237.081105 
L 218.220481 216.306548 
L 224.003832 190.564213 
L 229.787183 191.128245 
L 235.570534 191.888766 
L 241.353885 198.915794 
L 247.137236 194.568207 
L 252.920587 189.40788 
L 258.703938 194.957208 
L 264.487289 192.201341 
L 270.27064 196.830757 
L 276.05399 206.49907 
L 281.837341 202.498586 
L 287.620692 206.193963 
L 293.404043 202.984139 
L 299.187394 213.092548 
L 304.970745 211.874366 
L 310.754096 213.886331 
L 316.537447 220.188507 
L 322.320798 213.233325 
L 328.104149 199.353458 
L 333.8875 180.257739 
L 339.670851 170.122988 
L 345.454202 150.133999 
L 351.237553 118.916604 
L 357.020904 116.303222 
L 362.804255 125.977612 
L 368.587606 127.248241 
L 374.370957 105.186109 
L 380.154308 105.825284 
L 385.937659 95.978436 
L 391.72101 88.453271 
L 397.50436 93.121317 
L 403.287711 100.893262 
L 409.071062 99.016313 
L 414.854413 108.809284 
L 420.637764 122.615755 
L 426.421115 146.71246 
L 432.204466 175.682831 
L 437.987817 76.245326 
L 443.771168 107.305494 
L 449.554519 143.875002 
L 455.33787 187.552703 
L 461.121221 175.270184 
L 466.904572 128.201825 
L 472.687923 130.150593 
L 478.471274 126.276658 
L 484.254625 118.903361 
L 490.037976 129.607349 
L 495.821327 139.618082 
L 501.604678 141.993666 
L 507.388029 140.104325 
L 513.171379 141.770222 
L 518.95473 148.582389 
L 524.738081 143.113655 
L 530.521432 144.847042 
L 536.304783 152.93236 
L 542.088134 163.18774 
L 547.871485 153.412342 
L 553.654836 164.63157 
L 559.438187 167.290495 
L 565.221538 166.443143 
L 571.004889 170.251581 
L 576.78824 180.09871 
L 582.571591 177.764313 
" clip-path="url(#p0873bb3980)" style="fill: none; stroke: #eb6ab0; stroke-width: 2; stroke-linecap: round"/>
   </g>
   <g id="line2d_15">
    <path d="M 85.203409 334.20699 
L 90.98676 332.42819 
L 96.770111 332.64481 
L 102.553462 332.568798 
L 108.336813 332.565003 
L 114.120164 332.65218 
L 119.903515 331.845343 
L 125.686866 331.565727 
L 131.470217 331.337002 
L 137.253568 332.093163 
L 143.036919 321.826826 
L 148.82027 323.420521 
L 154.603621 322.198621 
L 160.386971 323.557406 
L 166.170322 323.436447 
L 171.953673 323.61747 
L 177.737024 325.529227 
L 183.520375 325.684598 
L 189.303726 323.096109 
L 195.087077 323.649086 
L 200.870428 324.662724 
L 206.653779 324.97926 
L 212.43713 323.113638 
L 218.220481 323.56312 
L 224.003832 324.098059 
L 229.787183 324.347488 
L 235.570534 323.838865 
L 241.353885 325.24029 
L 247.137236 327.183454 
L 252.920587 328.667038 
L 258.703938 328.089778 
L 264.487289 326.16692 
L 270.27064 325.705248 
L 276.05399 324.90219 
L 281.837341 325.214534 
L 287.620692 324.850863 
L 293.404043 325.234447 
L 299.187394 326.726492 
L 304.970745 328.769164 
L 310.754096 327.650765 
L 316.537447 329.139103 
L 322.320798 330.287699 
L 328.104149 328.847267 
L 333.8875 326.746971 
L 339.670851 325.607285 
L 345.454202 323.448297 
L 351.237553 322.564899 
L 357.020904 323.253521 
L 362.804255 322.402679 
L 368.587606 321.817653 
L 374.370957 318.008141 
L 380.154308 320.11432 
L 385.937659 322.317887 
L 391.72101 321.097238 
L 397.50436 322.090435 
L 403.287711 324.172377 
L 409.071062 325.073351 
L 414.854413 327.103139 
L 420.637764 327.325653 
L 426.421115 328.439194 
L 432.204466 331.290798 
L 437.987817 330.113212 
L 443.771168 332.500936 
L 449.554519 334.316451 
L 455.33787 331.59313 
L 461.121221 330.093266 
L 466.904572 331.247999 
L 472.687923 330.719546 
L 478.471274 330.691927 
L 484.254625 331.963718 
L 490.037976 331.418217 
L 495.821327 330.323606 
L 501.604678 330.55567 
L 507.388029 329.814194 
L 513.171379 329.631669 
L 518.95473 331.603041 
L 524.738081 332.511348 
L 530.521432 331.421839 
L 536.304783 329.470113 
L 542.088134 330.482661 
L 547.871485 331.136357 
L 553.654836 331.656061 
L 559.438187 331.263329 
L 565.221538 330.887799 
L 571.004889 330.347019 
L 576.78824 330.423127 
L 582.571591 331.151055 
" clip-path="url(#p0873bb3980)" style="fill: none; stroke-dasharray: 7.4,3.2; stroke-dashoffset: 0; stroke: #eb6ab0; stroke-width: 2"/>
   </g>
   <g id="line2d_16">
    <path d="M 143.036919 378.54 
L 143.036919 26.96 
" clip-path="url(#p0873bb3980)" style="fill: none; stroke-dasharray: 5.55,2.4; stroke-dashoffset: 0; stroke: #1a1a1a; stroke-width: 1.5"/>
   </g>
   <g id="line2d_17">
    <path d="M 432.204466 378.54 
L 432.204466 26.96 
" clip-path="url(#p0873bb3980)" style="fill: none; stroke-dasharray: 5.55,2.4; stroke-dashoffset: 0; stroke: #1a1a1a; stroke-width: 1.5"/>
   </g>
   <g id="line2d_18">
    <path d="M 85.203409 322.565893 
L 90.98676 329.817738 
L 96.770111 314.717826 
L 102.553462 319.05724 
L 108.336813 322.038241 
L 114.120164 308.026327 
L 119.903515 321.744961 
L 125.686866 341.182245 
L 131.470217 340.575352 
L 137.253568 337.963105 
L 143.036919 337.39452 
L 148.82027 334.390764 
L 154.603621 323.86018 
L 160.386971 323.639954 
L 166.170322 317.69968 
L 171.953673 307.258226 
L 177.737024 321.854607 
L 183.520375 324.826469 
L 189.303726 321.618363 
L 195.087077 320.159681 
L 200.870428 304.038008 
L 206.653779 310.604248 
L 212.43713 302.539401 
L 218.220481 304.950633 
L 224.003832 295.046019 
L 229.787183 288.399242 
L 235.570534 288.840568 
L 241.353885 281.596151 
L 247.137236 275.346142 
L 252.920587 270.176768 
L 258.703938 259.581842 
L 264.487289 256.950588 
L 270.27064 255.360451 
L 276.05399 249.824912 
L 281.837341 240.336403 
L 287.620692 231.603801 
L 293.404043 226.748666 
L 299.187394 225.425341 
L 304.970745 221.884412 
L 310.754096 219.410175 
L 316.537447 211.465807 
L 322.320798 209.968891 
L 328.104149 202.898778 
L 333.8875 203.644251 
L 339.670851 204.661231 
L 345.454202 199.112136 
L 351.237553 191.343825 
L 357.020904 182.145096 
L 362.804255 177.473778 
L 368.587606 165.611786 
L 374.370957 156.558037 
L 380.154308 154.120892 
L 385.937659 154.745284 
L 391.72101 146.890649 
L 397.50436 137.501876 
L 403.287711 134.091174 
L 409.071062 129.680442 
L 414.854413 125.220602 
L 420.637764 119.509408 
L 426.421115 110.18556 
L 432.204466 104.510585 
L 437.987817 105.388873 
L 443.771168 95.386664 
L 449.554519 87.579016 
L 455.33787 85.065605 
L 461.121221 89.530587 
L 466.904572 92.520986 
L 472.687923 100.171407 
L 478.471274 104.698863 
L 484.254625 109.441697 
L 490.037976 109.838286 
L 495.821327 111.175374 
L 501.604678 106.678546 
L 507.388029 109.499376 
L 513.171379 114.561854 
L 518.95473 116.713175 
L 524.738081 123.594679 
L 530.521432 121.050356 
L 536.304783 122.161903 
L 542.088134 122.69507 
L 547.871485 119.408849 
L 553.654836 126.087373 
L 559.438187 123.353289 
L 565.221538 123.071204 
L 571.004889 122.689033 
L 576.78824 122.304244 
L 582.571591 121.060705 
" clip-path="url(#p0873bb3980)" style="fill: none; stroke: #8b0a50; stroke-width: 2; stroke-linecap: round"/>
   </g>
   <g id="line2d_19">
    <path d="M 85.203409 328.320877 
L 90.98676 324.193798 
L 96.770111 322.06986 
L 102.553462 321.919785 
L 108.336813 319.850865 
L 114.120164 318.242093 
L 119.903515 315.427327 
L 125.686866 310.714769 
L 131.470217 305.513429 
L 137.253568 303.411409 
L 143.036919 299.468368 
L 148.82027 296.209024 
L 154.603621 295.786783 
L 160.386971 296.986341 
L 166.170322 296.885997 
L 171.953673 298.604695 
L 177.737024 300.670575 
L 183.520375 301.148574 
L 189.303726 303.704123 
L 195.087077 306.448855 
L 200.870428 307.899132 
L 206.653779 307.918355 
L 212.43713 310.065531 
L 218.220481 311.61557 
L 224.003832 312.373534 
L 229.787183 315.094642 
L 235.570534 315.357563 
L 241.353885 316.161377 
L 247.137236 316.325064 
L 252.920587 315.991438 
L 258.703938 316.060107 
L 264.487289 315.845633 
L 270.27064 316.920814 
L 276.05399 317.15769 
L 281.837341 316.504059 
L 287.620692 316.581669 
L 293.404043 317.30257 
L 299.187394 317.040886 
L 304.970745 317.331049 
L 310.754096 317.135635 
L 316.537447 317.187456 
L 322.320798 317.21241 
L 328.104149 317.988129 
L 333.8875 318.043462 
L 339.670851 317.823048 
L 345.454202 317.843327 
L 351.237553 318.421084 
L 357.020904 318.696028 
L 362.804255 319.057689 
L 368.587606 318.319878 
L 374.370957 318.837261 
L 380.154308 319.305217 
L 385.937659 319.505544 
L 391.72101 319.989312 
L 397.50436 320.251592 
L 403.287711 319.934506 
L 409.071062 320.330532 
L 414.854413 320.256387 
L 420.637764 320.549329 
L 426.421115 320.898248 
L 432.204466 321.698162 
L 437.987817 321.939185 
L 443.771168 321.891353 
L 449.554519 322.002332 
L 455.33787 322.557084 
L 461.121221 322.336717 
L 466.904572 322.840497 
L 472.687923 322.375531 
L 478.471274 323.180926 
L 484.254625 323.006565 
L 490.037976 323.483845 
L 495.821327 323.371744 
L 501.604678 323.820157 
L 507.388029 323.554858 
L 513.171379 323.511518 
L 518.95473 324.188312 
L 524.738081 323.845203 
L 530.521432 323.72763 
L 536.304783 323.663788 
L 542.088134 323.273015 
L 547.871485 323.189371 
L 553.654836 323.142655 
L 559.438187 322.893185 
L 565.221538 322.732084 
L 571.004889 323.562291 
L 576.78824 323.697194 
L 582.571591 323.830908 
" clip-path="url(#p0873bb3980)" style="fill: none; stroke-dasharray: 7.4,3.2; stroke-dashoffset: 0; stroke: #8b0a50; stroke-width: 2"/>
   </g>
   <g id="line2d_20">
    <path d="M 143.036919 378.54 
L 143.036919 26.96 
" clip-path="url(#p0873bb3980)" style="fill: none; stroke-dasharray: 5.55,2.4; stroke-dashoffset: 0; stroke: #1a1a1a; stroke-width: 1.5"/>
   </g>
   <g id="line2d_21">
    <path d="M 432.204466 378.54 
L 432.204466 26.96 
" clip-path="url(#p0873bb3980)" style="fill: none; stroke-dasharray: 5.55,2.4; stroke-dashoffset: 0; stroke: #1a1a1a; stroke-width: 1.5"/>
   </g>
   <g id="patch_3">
    <path d="M 60.335 378.54 
L 60.335 26.96 
" style="fill: none; stroke: #000000; stroke-width: 1.5; stroke-linejoin: miter; stroke-linecap: square"/>
   </g>
   <g id="patch_4">
    <path d="M 60.335 378.54 
L 607.44 378.54 
" style="fill: none; stroke: #000000; stroke-width: 1.5; stroke-linejoin: miter; stroke-linecap: square"/>
   </g>
   <g id="text_16">
    <!-- Divergence Comparison: Original vs Shuffled -->
    <g style="fill: #262626" transform="translate(184.375 20.96) scale(0.15 -0.15)">
     <defs>
      <path id="ArialMT-43" d="M 3763 1606 
L 4369 1453 
Q 4178 706 3683 314 
Q 3188 -78 2472 -78 
Q 1731 -78 1267 223 
Q 803 525 561 1097 
Q 319 1669 319 2325 
Q 319 3041 592 3573 
Q 866 4106 1370 4382 
Q 1875 4659 2481 4659 
Q 3169 4659 3637 4309 
Q 4106 3959 4291 3325 
L 3694 3184 
Q 3534 3684 3231 3912 
Q 2928 4141 2469 4141 
Q 1941 4141 1586 3887 
Q 1231 3634 1087 3207 
Q 944 2781 944 2328 
Q 944 1744 1114 1308 
Q 1284 872 1643 656 
Q 2003 441 2422 441 
Q 2931 441 3284 734 
Q 3638 1028 3763 1606 
z
" transform="scale(0.015625)"/>
      <path id="ArialMT-6f" d="M 213 1659 
Q 213 2581 725 3025 
Q 1153 3394 1769 3394 
Q 2453 3394 2887 2945 
Q 3322 2497 3322 1706 
Q 3322 1066 3130 698 
Q 2938 331 2570 128 
Q 2203 -75 1769 -75 
Q 1072 -75 642 372 
Q 213 819 213 1659 
z
M 791 1659 
Q 791 1022 1069 705 
Q 1347 388 1769 388 
Q 2188 388 2466 706 
Q 2744 1025 2744 1678 
Q 2744 2294 2464 2611 
Q 2184 2928 1769 2928 
Q 1347 2928 1069 2612 
Q 791 2297 791 1659 
z
" transform="scale(0.015625)"/>
      <path id="ArialMT-70" d="M 422 -1272 
L 422 3319 
L 934 3319 
L 934 2888 
Q 1116 3141 1344 3267 
Q 1572 3394 1897 3394 
Q 2322 3394 2647 3175 
Q 2972 2956 3137 2557 
Q 3303 2159 3303 1684 
Q 3303 1175 3120 767 
Q 2938 359 2589 142 
Q 2241 -75 1856 -75 
Q 1575 -75 1351 44 
Q 1128 163 984 344 
L 984 -1272 
L 422 -1272 
z
M 931 1641 
Q 931 1000 1190 694 
Q 1450 388 1819 388 
Q 2194 388 2461 705 
Q 2728 1022 2728 1688 
Q 2728 2322 2467 2637 
Q 2206 2953 1844 2953 
Q 1484 2953 1207 2617 
Q 931 2281 931 1641 
z
" transform="scale(0.015625)"/>
      <path id="ArialMT-61" d="M 2588 409 
Q 2275 144 1986 34 
Q 1697 -75 1366 -75 
Q 819 -75 525 192 
Q 231 459 231 875 
Q 231 1119 342 1320 
Q 453 1522 633 1644 
Q 813 1766 1038 1828 
Q 1203 1872 1538 1913 
Q 2219 1994 2541 2106 
Q 2544 2222 2544 2253 
Q 2544 2597 2384 2738 
Q 2169 2928 1744 2928 
Q 1347 2928 1158 2789 
Q 969 2650 878 2297 
L 328 2372 
Q 403 2725 575 2942 
Q 747 3159 1072 3276 
Q 1397 3394 1825 3394 
Q 2250 3394 2515 3294 
Q 2781 3194 2906 3042 
Q 3031 2891 3081 2659 
Q 3109 2516 3109 2141 
L 3109 1391 
Q 3109 606 3145 398 
Q 3181 191 3288 0 
L 2700 0 
Q 2613 175 2588 409 
z
M 2541 1666 
Q 2234 1541 1622 1453 
Q 1275 1403 1131 1340 
Q 988 1278 909 1158 
Q 831 1038 831 891 
Q 831 666 1001 516 
Q 1172 366 1500 366 
Q 1825 366 2078 508 
Q 2331 650 2450 897 
Q 2541 1088 2541 1459 
L 2541 1666 
z
" transform="scale(0.015625)"/>
      <path id="ArialMT-3a" d="M 578 2678 
L 578 3319 
L 1219 3319 
L 1219 2678 
L 578 2678 
z
M 578 0 
L 578 641 
L 1219 641 
L 1219 0 
L 578 0 
z
" transform="scale(0.015625)"/>
      <path id="ArialMT-4f" d="M 309 2231 
Q 309 3372 921 4017 
Q 1534 4663 2503 4663 
Q 3138 4663 3647 4359 
Q 4156 4056 4423 3514 
Q 4691 2972 4691 2284 
Q 4691 1588 4409 1038 
Q 4128 488 3612 205 
Q 3097 -78 2500 -78 
Q 1853 -78 1343 234 
Q 834 547 571 1087 
Q 309 1628 309 2231 
z
M 934 2222 
Q 934 1394 1379 917 
Q 1825 441 2497 441 
Q 3181 441 3623 922 
Q 4066 1403 4066 2288 
Q 4066 2847 3877 3264 
Q 3688 3681 3323 3911 
Q 2959 4141 2506 4141 
Q 1863 4141 1398 3698 
Q 934 3256 934 2222 
z
" transform="scale(0.015625)"/>
      <path id="ArialMT-6c" d="M 409 0 
L 409 4581 
L 972 4581 
L 972 0 
L 409 0 
z
" transform="scale(0.015625)"/>
      <path id="ArialMT-53" d="M 288 1472 
L 859 1522 
Q 900 1178 1048 958 
Q 1197 738 1509 602 
Q 1822 466 2213 466 
Q 2559 466 2825 569 
Q 3091 672 3220 851 
Q 3350 1031 3350 1244 
Q 3350 1459 3225 1620 
Q 3100 1781 2813 1891 
Q 2628 1963 1997 2114 
Q 1366 2266 1113 2400 
Q 784 2572 623 2826 
Q 463 3081 463 3397 
Q 463 3744 659 4045 
Q 856 4347 1234 4503 
Q 1613 4659 2075 4659 
Q 2584 4659 2973 4495 
Q 3363 4331 3572 4012 
Q 3781 3694 3797 3291 
L 3216 3247 
Q 3169 3681 2898 3903 
Q 2628 4125 2100 4125 
Q 1550 4125 1298 3923 
Q 1047 3722 1047 3438 
Q 1047 3191 1225 3031 
Q 1400 2872 2139 2705 
Q 2878 2538 3153 2413 
Q 3553 2228 3743 1945 
Q 3934 1663 3934 1294 
Q 3934 928 3725 604 
Q 3516 281 3123 101 
Q 2731 -78 2241 -78 
Q 1619 -78 1198 103 
Q 778 284 539 648 
Q 300 1013 288 1472 
z
" transform="scale(0.015625)"/>
      <path id="ArialMT-68" d="M 422 0 
L 422 4581 
L 984 4581 
L 984 2938 
Q 1378 3394 1978 3394 
Q 2347 3394 2619 3248 
Q 2891 3103 3008 2847 
Q 3125 2591 3125 2103 
L 3125 0 
L 2563 0 
L 2563 2103 
Q 2563 2525 2380 2717 
Q 2197 2909 1863 2909 
Q 1613 2909 1392 2779 
Q 1172 2650 1078 2428 
Q 984 2206 984 1816 
L 984 0 
L 422 0 
z
" transform="scale(0.015625)"/>
      <path id="ArialMT-75" d="M 2597 0 
L 2597 488 
Q 2209 -75 1544 -75 
Q 1250 -75 995 37 
Q 741 150 617 320 
Q 494 491 444 738 
Q 409 903 409 1263 
L 409 3319 
L 972 3319 
L 972 1478 
Q 972 1038 1006 884 
Q 1059 663 1231 536 
Q 1403 409 1656 409 
Q 1909 409 2131 539 
Q 2353 669 2445 892 
Q 2538 1116 2538 1541 
L 2538 3319 
L 3100 3319 
L 3100 0 
L 2597 0 
z
" transform="scale(0.015625)"/>
      <path id="ArialMT-66" d="M 556 0 
L 556 2881 
L 59 2881 
L 59 3319 
L 556 3319 
L 556 3672 
Q 556 4006 616 4169 
Q 697 4388 901 4523 
Q 1106 4659 1475 4659 
Q 1713 4659 2000 4603 
L 1916 4113 
Q 1741 4144 1584 4144 
Q 1328 4144 1222 4034 
Q 1116 3925 1116 3625 
L 1116 3319 
L 1763 3319 
L 1763 2881 
L 1116 2881 
L 1116 0 
L 556 0 
z
" transform="scale(0.015625)"/>
      <path id="ArialMT-64" d="M 2575 0 
L 2575 419 
Q 2259 -75 1647 -75 
Q 1250 -75 917 144 
Q 584 363 401 755 
Q 219 1147 219 1656 
Q 219 2153 384 2558 
Q 550 2963 881 3178 
Q 1213 3394 1622 3394 
Q 1922 3394 2156 3267 
Q 2391 3141 2538 2938 
L 2538 4581 
L 3097 4581 
L 3097 0 
L 2575 0 
z
M 797 1656 
Q 797 1019 1065 703 
Q 1334 388 1700 388 
Q 2069 388 2326 689 
Q 2584 991 2584 1609 
Q 2584 2291 2321 2609 
Q 2059 2928 1675 2928 
Q 1300 2928 1048 2622 
Q 797 2316 797 1656 
z
" transform="scale(0.015625)"/>
     </defs>
     <use xlink:href="#ArialMT-44"/>
     <use xlink:href="#ArialMT-69" x="72.216797"/>
     <use xlink:href="#ArialMT-76" x="94.433594"/>
     <use xlink:href="#ArialMT-65" x="144.433594"/>
     <use xlink:href="#ArialMT-72" x="200.048828"/>
     <use xlink:href="#ArialMT-67" x="233.349609"/>
     <use xlink:href="#ArialMT-65" x="288.964844"/>
     <use xlink:href="#ArialMT-6e" x="344.580078"/>
     <use xlink:href="#ArialMT-63" x="400.195312"/>
     <use xlink:href="#ArialMT-65" x="450.195312"/>
     <use xlink:href="#ArialMT-20" x="505.810547"/>
     <use xlink:href="#ArialMT-43" x="533.59375"/>
     <use xlink:href="#ArialMT-6f" x="605.810547"/>
     <use xlink:href="#ArialMT-6d" x="661.425781"/>
     <use xlink:href="#ArialMT-70" x="744.726562"/>
     <use xlink:href="#ArialMT-61" x="800.341797"/>
     <use xlink:href="#ArialMT-72" x="855.957031"/>
     <use xlink:href="#ArialMT-69" x="889.257812"/>
     <use xlink:href="#ArialMT-73" x="911.474609"/>
     <use xlink:href="#ArialMT-6f" x="961.474609"/>
     <use xlink:href="#ArialMT-6e" x="1017.089844"/>
     <use xlink:href="#ArialMT-3a" x="1072.705078"/>
     <use xlink:href="#ArialMT-20" x="1100.488281"/>
     <use xlink:href="#ArialMT-4f" x="1128.271484"/>
     <use xlink:href="#ArialMT-72" x="1206.054688"/>
     <use xlink:href="#ArialMT-69" x="1239.355469"/>
     <use xlink:href="#ArialMT-67" x="1261.572266"/>
     <use xlink:href="#ArialMT-69" x="1317.1875"/>
     <use xlink:href="#ArialMT-6e" x="1339.404297"/>
     <use xlink:href="#ArialMT-61" x="1395.019531"/>
     <use xlink:href="#ArialMT-6c" x="1450.634766"/>
     <use xlink:href="#ArialMT-20" x="1472.851562"/>
     <use xlink:href="#ArialMT-76" x="1500.634766"/>
     <use xlink:href="#ArialMT-73" x="1550.634766"/>
     <use xlink:href="#ArialMT-20" x="1600.634766"/>
     <use xlink:href="#ArialMT-53" x="1628.417969"/>
     <use xlink:href="#ArialMT-68" x="1695.117188"/>
     <use xlink:href="#ArialMT-75" x="1750.732422"/>
     <use xlink:href="#ArialMT-66" x="1806.347656"/>
     <use xlink:href="#ArialMT-66" x="1832.380859"/>
     <use xlink:href="#ArialMT-6c" x="1860.164062"/>
     <use xlink:href="#ArialMT-65" x="1882.380859"/>
     <use xlink:href="#ArialMT-64" x="1937.996094"/>
    </g>
   </g>
   <g id="legend_1">
    <g id="patch_5">
     <path d="M 615.14 259.415469 
L 704.741875 259.415469 
Q 706.941875 259.415469 706.941875 257.215469 
L 706.941875 148.284531 
Q 706.941875 146.084531 704.741875 146.084531 
L 615.14 146.084531 
Q 612.94 146.084531 612.94 148.284531 
L 612.94 257.215469 
Q 612.94 259.415469 615.14 259.415469 
z
" style="fill: #ffffff; opacity: 0.8; stroke: #cccccc; stroke-linejoin: miter"/>
    </g>
    <g id="line2d_22">
     <path d="M 617.34 154.649062 
L 628.34 154.649062 
L 639.34 154.649062 
" style="fill: none; stroke: #eb6ab0; stroke-width: 2; stroke-linecap: round"/>
    </g>
    <g id="text_17">
     <!-- Original -->
     <g style="fill: #262626" transform="translate(648.14 158.499062) scale(0.11 -0.11)">
      <use xlink:href="#ArialMT-4f"/>
      <use xlink:href="#ArialMT-72" x="77.783203"/>
      <use xlink:href="#ArialMT-69" x="111.083984"/>
      <use xlink:href="#ArialMT-67" x="133.300781"/>
      <use xlink:href="#ArialMT-69" x="188.916016"/>
      <use xlink:href="#ArialMT-6e" x="211.132812"/>
      <use xlink:href="#ArialMT-61" x="266.748047"/>
      <use xlink:href="#ArialMT-6c" x="322.363281"/>
     </g>
    </g>
    <g id="line2d_23">
     <path d="M 617.34 170.47875 
L 628.34 170.47875 
L 639.34 170.47875 
" style="fill: none; stroke-dasharray: 7.4,3.2; stroke-dashoffset: 0; stroke: #eb6ab0; stroke-width: 2"/>
    </g>
    <g id="text_18">
     <!-- Original -->
     <g style="fill: #262626" transform="translate(648.14 174.32875) scale(0.11 -0.11)">
      <use xlink:href="#ArialMT-4f"/>
      <use xlink:href="#ArialMT-72" x="77.783203"/>
      <use xlink:href="#ArialMT-69" x="111.083984"/>
      <use xlink:href="#ArialMT-67" x="133.300781"/>
      <use xlink:href="#ArialMT-69" x="188.916016"/>
      <use xlink:href="#ArialMT-6e" x="211.132812"/>
      <use xlink:href="#ArialMT-61" x="266.748047"/>
      <use xlink:href="#ArialMT-6c" x="322.363281"/>
     </g>
    </g>
    <g id="PathCollection_3">
     <g>
      <use xlink:href="#m0b8e39960f" x="628.34" y="187.162656" style="fill: #eb6ab0; stroke: #eb6ab0"/>
     </g>
    </g>
    <g id="text_19">
     <!-- p &lt; 0.001 -->
     <g style="fill: #262626" transform="translate(648.14 190.050156) scale(0.11 -0.11)">
      <defs>
       <path id="ArialMT-3c" d="M 350 2003 
L 350 2528 
L 3384 3809 
L 3384 3250 
L 978 2263 
L 3384 1266 
L 3384 706 
L 350 2003 
z
" transform="scale(0.015625)"/>
      </defs>
      <use xlink:href="#ArialMT-70"/>
      <use xlink:href="#ArialMT-20" x="55.615234"/>
      <use xlink:href="#ArialMT-3c" x="83.398438"/>
      <use xlink:href="#ArialMT-20" x="141.796875"/>
      <use xlink:href="#ArialMT-30" x="169.580078"/>
      <use xlink:href="#ArialMT-2e" x="225.195312"/>
      <use xlink:href="#ArialMT-30" x="252.978516"/>
      <use xlink:href="#ArialMT-30" x="308.59375"/>
      <use xlink:href="#ArialMT-31" x="364.208984"/>
     </g>
    </g>
    <g id="line2d_24">
     <path d="M 617.34 201.76 
L 628.34 201.76 
L 639.34 201.76 
" style="fill: none; stroke-dasharray: 5.55,2.4; stroke-dashoffset: 0; stroke: #1a1a1a; stroke-width: 1.5"/>
    </g>
    <g id="text_20">
     <!-- Stim Onset -->
     <g style="fill: #262626" transform="translate(648.14 205.61) scale(0.11 -0.11)">
      <defs>
       <path id="ArialMT-74" d="M 1650 503 
L 1731 6 
Q 1494 -44 1306 -44 
Q 1000 -44 831 53 
Q 663 150 594 308 
Q 525 466 525 972 
L 525 2881 
L 113 2881 
L 113 3319 
L 525 3319 
L 525 4141 
L 1084 4478 
L 1084 3319 
L 1650 3319 
L 1650 2881 
L 1084 2881 
L 1084 941 
Q 1084 700 1114 631 
Q 1144 563 1211 522 
Q 1278 481 1403 481 
Q 1497 481 1650 503 
z
" transform="scale(0.015625)"/>
      </defs>
      <use xlink:href="#ArialMT-53"/>
      <use xlink:href="#ArialMT-74" x="66.699219"/>
      <use xlink:href="#ArialMT-69" x="94.482422"/>
      <use xlink:href="#ArialMT-6d" x="116.699219"/>
      <use xlink:href="#ArialMT-20" x="200"/>
      <use xlink:href="#ArialMT-4f" x="227.783203"/>
      <use xlink:href="#ArialMT-6e" x="305.566406"/>
      <use xlink:href="#ArialMT-73" x="361.181641"/>
      <use xlink:href="#ArialMT-65" x="411.181641"/>
      <use xlink:href="#ArialMT-74" x="466.796875"/>
     </g>
    </g>
    <g id="line2d_25">
     <path d="M 617.34 217.319844 
L 628.34 217.319844 
L 639.34 217.319844 
" style="fill: none; stroke-dasharray: 5.55,2.4; stroke-dashoffset: 0; stroke: #1a1a1a; stroke-width: 1.5"/>
    </g>
    <g id="text_21">
     <!-- Stim End -->
     <g style="fill: #262626" transform="translate(648.14 221.169844) scale(0.11 -0.11)">
      <defs>
       <path id="ArialMT-45" d="M 506 0 
L 506 4581 
L 3819 4581 
L 3819 4041 
L 1113 4041 
L 1113 2638 
L 3647 2638 
L 3647 2100 
L 1113 2100 
L 1113 541 
L 3925 541 
L 3925 0 
L 506 0 
z
" transform="scale(0.015625)"/>
      </defs>
      <use xlink:href="#ArialMT-53"/>
      <use xlink:href="#ArialMT-74" x="66.699219"/>
      <use xlink:href="#ArialMT-69" x="94.482422"/>
      <use xlink:href="#ArialMT-6d" x="116.699219"/>
      <use xlink:href="#ArialMT-20" x="200"/>
      <use xlink:href="#ArialMT-45" x="227.783203"/>
      <use xlink:href="#ArialMT-6e" x="294.482422"/>
      <use xlink:href="#ArialMT-64" x="350.097656"/>
     </g>
    </g>
    <g id="line2d_26">
     <path d="M 617.34 233.020625 
L 628.34 233.020625 
L 639.34 233.020625 
" style="fill: none; stroke: #8b0a50; stroke-width: 2; stroke-linecap: round"/>
    </g>
    <g id="text_22">
     <!-- Original -->
     <g style="fill: #262626" transform="translate(648.14 236.870625) scale(0.11 -0.11)">
      <use xlink:href="#ArialMT-4f"/>
      <use xlink:href="#ArialMT-72" x="77.783203"/>
      <use xlink:href="#ArialMT-69" x="111.083984"/>
      <use xlink:href="#ArialMT-67" x="133.300781"/>
      <use xlink:href="#ArialMT-69" x="188.916016"/>
      <use xlink:href="#ArialMT-6e" x="211.132812"/>
      <use xlink:href="#ArialMT-61" x="266.748047"/>
      <use xlink:href="#ArialMT-6c" x="322.363281"/>
     </g>
    </g>
    <g id="line2d_27">
     <path d="M 617.34 248.850313 
L 628.34 248.850313 
L 639.34 248.850313 
" style="fill: none; stroke-dasharray: 7.4,3.2; stroke-dashoffset: 0; stroke: #8b0a50; stroke-width: 2"/>
    </g>
    <g id="text_23">
     <!-- Original -->
     <g style="fill: #262626" transform="translate(648.14 252.700312) scale(0.11 -0.11)">
      <use xlink:href="#ArialMT-4f"/>
      <use xlink:href="#ArialMT-72" x="77.783203"/>
      <use xlink:href="#ArialMT-69" x="111.083984"/>
      <use xlink:href="#ArialMT-67" x="133.300781"/>
      <use xlink:href="#ArialMT-69" x="188.916016"/>
      <use xlink:href="#ArialMT-6e" x="211.132812"/>
      <use xlink:href="#ArialMT-61" x="266.748047"/>
      <use xlink:href="#ArialMT-6c" x="322.363281"/>
     </g>
    </g>
   </g>
  </g>
 </g>
 <defs>
  <clipPath id="p0873bb3980">
   <rect x="60.335" y="26.96" width="547.105" height="351.58"/>
  </clipPath>
 </defs>
</svg>
