<?xml version="1.0" encoding="utf-8" standalone="no"?>
<!DOCTYPE svg PUBLIC "-//W3C//DTD SVG 1.1//EN"
  "http://www.w3.org/Graphics/SVG/1.1/DTD/svg11.dtd">
<svg xmlns:xlink="http://www.w3.org/1999/xlink" width="460.8pt" height="345.6pt" viewBox="0 0 460.8 345.6" xmlns="http://www.w3.org/2000/svg" version="1.1">
 <metadata>
  <rdf:RDF xmlns:dc="http://purl.org/dc/elements/1.1/" xmlns:cc="http://creativecommons.org/ns#" xmlns:rdf="http://www.w3.org/1999/02/22-rdf-syntax-ns#">
   <cc:Work>
    <dc:type rdf:resource="http://purl.org/dc/dcmitype/StillImage"/>
    <dc:date>2025-08-23T23:21:24.487975</dc:date>
    <dc:format>image/svg+xml</dc:format>
    <dc:creator>
     <cc:Agent>
      <dc:title>Matplotlib v3.9.4, https://matplotlib.org/</dc:title>
     </cc:Agent>
    </dc:creator>
   </cc:Work>
  </rdf:RDF>
 </metadata>
 <defs>
  <style type="text/css">*{stroke-linejoin: round; stroke-linecap: butt}</style>
 </defs>
 <g id="figure_1">
  <g id="patch_1">
   <path d="M 0 345.6 
L 460.8 345.6 
L 460.8 0 
L 0 0 
z
" style="fill: #ffffff"/>
  </g>
  <g id="axes_1">
   <g id="patch_2">
    <path d="M 57.6 307.584 
L 414.72 307.584 
L 414.72 41.472 
L 57.6 41.472 
z
" style="fill: #ffffff"/>
   </g>
   <g id="matplotlib.axis_1">
    <g id="xtick_1">
     <g id="text_1">
      <!-- 0.0 -->
      <g style="fill: #262626" transform="translate(49.955 324.957594) scale(0.11 -0.11)">
       <defs>
        <path id="ArialMT-30" d="M 266 2259 
Q 266 3072 433 3567 
Q 600 4063 929 4331 
Q 1259 4600 1759 4600 
Q 2128 4600 2406 4451 
Q 2684 4303 2865 4023 
Q 3047 3744 3150 3342 
Q 3253 2941 3253 2259 
Q 3253 1453 3087 958 
Q 2922 463 2592 192 
Q 2263 -78 1759 -78 
Q 1097 -78 719 397 
Q 266 969 266 2259 
z
M 844 2259 
Q 844 1131 1108 757 
Q 1372 384 1759 384 
Q 2147 384 2411 759 
Q 2675 1134 2675 2259 
Q 2675 3391 2411 3762 
Q 2147 4134 1753 4134 
Q 1366 4134 1134 3806 
Q 844 3388 844 2259 
z
" transform="scale(0.015625)"/>
        <path id="ArialMT-2e" d="M 581 0 
L 581 641 
L 1222 641 
L 1222 0 
L 581 0 
z
" transform="scale(0.015625)"/>
       </defs>
       <use xlink:href="#ArialMT-30"/>
       <use xlink:href="#ArialMT-2e" x="55.615234"/>
       <use xlink:href="#ArialMT-30" x="83.398438"/>
      </g>
     </g>
    </g>
    <g id="xtick_2">
     <g id="text_2">
      <!-- 0.2 -->
      <g style="fill: #262626" transform="translate(121.379 324.957594) scale(0.11 -0.11)">
       <defs>
        <path id="ArialMT-32" d="M 3222 541 
L 3222 0 
L 194 0 
Q 188 203 259 391 
Q 375 700 629 1000 
Q 884 1300 1366 1694 
Q 2113 2306 2375 2664 
Q 2638 3022 2638 3341 
Q 2638 3675 2398 3904 
Q 2159 4134 1775 4134 
Q 1369 4134 1125 3890 
Q 881 3647 878 3216 
L 300 3275 
Q 359 3922 746 4261 
Q 1134 4600 1788 4600 
Q 2447 4600 2831 4234 
Q 3216 3869 3216 3328 
Q 3216 3053 3103 2787 
Q 2991 2522 2730 2228 
Q 2469 1934 1863 1422 
Q 1356 997 1212 845 
Q 1069 694 975 541 
L 3222 541 
z
" transform="scale(0.015625)"/>
       </defs>
       <use xlink:href="#ArialMT-30"/>
       <use xlink:href="#ArialMT-2e" x="55.615234"/>
       <use xlink:href="#ArialMT-32" x="83.398438"/>
      </g>
     </g>
    </g>
    <g id="xtick_3">
     <g id="text_3">
      <!-- 0.4 -->
      <g style="fill: #262626" transform="translate(192.803 324.957594) scale(0.11 -0.11)">
       <defs>
        <path id="ArialMT-34" d="M 2069 0 
L 2069 1097 
L 81 1097 
L 81 1613 
L 2172 4581 
L 2631 4581 
L 2631 1613 
L 3250 1613 
L 3250 1097 
L 2631 1097 
L 2631 0 
L 2069 0 
z
M 2069 1613 
L 2069 3678 
L 634 1613 
L 2069 1613 
z
" transform="scale(0.015625)"/>
       </defs>
       <use xlink:href="#ArialMT-30"/>
       <use xlink:href="#ArialMT-2e" x="55.615234"/>
       <use xlink:href="#ArialMT-34" x="83.398438"/>
      </g>
     </g>
    </g>
    <g id="xtick_4">
     <g id="text_4">
      <!-- 0.6 -->
      <g style="fill: #262626" transform="translate(264.227 324.957594) scale(0.11 -0.11)">
       <defs>
        <path id="ArialMT-36" d="M 3184 3459 
L 2625 3416 
Q 2550 3747 2413 3897 
Q 2184 4138 1850 4138 
Q 1581 4138 1378 3988 
Q 1113 3794 959 3422 
Q 806 3050 800 2363 
Q 1003 2672 1297 2822 
Q 1591 2972 1913 2972 
Q 2475 2972 2870 2558 
Q 3266 2144 3266 1488 
Q 3266 1056 3080 686 
Q 2894 316 2569 119 
Q 2244 -78 1831 -78 
Q 1128 -78 684 439 
Q 241 956 241 2144 
Q 241 3472 731 4075 
Q 1159 4600 1884 4600 
Q 2425 4600 2770 4297 
Q 3116 3994 3184 3459 
z
M 888 1484 
Q 888 1194 1011 928 
Q 1134 663 1356 523 
Q 1578 384 1822 384 
Q 2178 384 2434 671 
Q 2691 959 2691 1453 
Q 2691 1928 2437 2201 
Q 2184 2475 1800 2475 
Q 1419 2475 1153 2201 
Q 888 1928 888 1484 
z
" transform="scale(0.015625)"/>
       </defs>
       <use xlink:href="#ArialMT-30"/>
       <use xlink:href="#ArialMT-2e" x="55.615234"/>
       <use xlink:href="#ArialMT-36" x="83.398438"/>
      </g>
     </g>
    </g>
    <g id="xtick_5">
     <g id="text_5">
      <!-- 0.8 -->
      <g style="fill: #262626" transform="translate(335.651 324.957594) scale(0.11 -0.11)">
       <defs>
        <path id="ArialMT-38" d="M 1131 2484 
Q 781 2613 612 2850 
Q 444 3088 444 3419 
Q 444 3919 803 4259 
Q 1163 4600 1759 4600 
Q 2359 4600 2725 4251 
Q 3091 3903 3091 3403 
Q 3091 3084 2923 2848 
Q 2756 2613 2416 2484 
Q 2838 2347 3058 2040 
Q 3278 1734 3278 1309 
Q 3278 722 2862 322 
Q 2447 -78 1769 -78 
Q 1091 -78 675 323 
Q 259 725 259 1325 
Q 259 1772 486 2073 
Q 713 2375 1131 2484 
z
M 1019 3438 
Q 1019 3113 1228 2906 
Q 1438 2700 1772 2700 
Q 2097 2700 2305 2904 
Q 2513 3109 2513 3406 
Q 2513 3716 2298 3927 
Q 2084 4138 1766 4138 
Q 1444 4138 1231 3931 
Q 1019 3725 1019 3438 
z
M 838 1322 
Q 838 1081 952 856 
Q 1066 631 1291 507 
Q 1516 384 1775 384 
Q 2178 384 2440 643 
Q 2703 903 2703 1303 
Q 2703 1709 2433 1975 
Q 2163 2241 1756 2241 
Q 1359 2241 1098 1978 
Q 838 1716 838 1322 
z
" transform="scale(0.015625)"/>
       </defs>
       <use xlink:href="#ArialMT-30"/>
       <use xlink:href="#ArialMT-2e" x="55.615234"/>
       <use xlink:href="#ArialMT-38" x="83.398438"/>
      </g>
     </g>
    </g>
    <g id="xtick_6">
     <g id="text_6">
      <!-- 1.0 -->
      <g style="fill: #262626" transform="translate(407.075 324.957594) scale(0.11 -0.11)">
       <defs>
        <path id="ArialMT-31" d="M 2384 0 
L 1822 0 
L 1822 3584 
Q 1619 3391 1289 3197 
Q 959 3003 697 2906 
L 697 3450 
Q 1169 3672 1522 3987 
Q 1875 4303 2022 4600 
L 2384 4600 
L 2384 0 
z
" transform="scale(0.015625)"/>
       </defs>
       <use xlink:href="#ArialMT-31"/>
       <use xlink:href="#ArialMT-2e" x="55.615234"/>
       <use xlink:href="#ArialMT-30" x="83.398438"/>
      </g>
     </g>
    </g>
   </g>
   <g id="matplotlib.axis_2">
    <g id="ytick_1">
     <g id="text_7">
      <!-- 0.0 -->
      <g style="fill: #262626" transform="translate(32.81 311.520797) scale(0.11 -0.11)">
       <use xlink:href="#ArialMT-30"/>
       <use xlink:href="#ArialMT-2e" x="55.615234"/>
       <use xlink:href="#ArialMT-30" x="83.398438"/>
      </g>
     </g>
    </g>
    <g id="ytick_2">
     <g id="text_8">
      <!-- 0.2 -->
      <g style="fill: #262626" transform="translate(32.81 258.298397) scale(0.11 -0.11)">
       <use xlink:href="#ArialMT-30"/>
       <use xlink:href="#ArialMT-2e" x="55.615234"/>
       <use xlink:href="#ArialMT-32" x="83.398438"/>
      </g>
     </g>
    </g>
    <g id="ytick_3">
     <g id="text_9">
      <!-- 0.4 -->
      <g style="fill: #262626" transform="translate(32.81 205.075997) scale(0.11 -0.11)">
       <use xlink:href="#ArialMT-30"/>
       <use xlink:href="#ArialMT-2e" x="55.615234"/>
       <use xlink:href="#ArialMT-34" x="83.398438"/>
      </g>
     </g>
    </g>
    <g id="ytick_4">
     <g id="text_10">
      <!-- 0.6 -->
      <g style="fill: #262626" transform="translate(32.81 151.853597) scale(0.11 -0.11)">
       <use xlink:href="#ArialMT-30"/>
       <use xlink:href="#ArialMT-2e" x="55.615234"/>
       <use xlink:href="#ArialMT-36" x="83.398438"/>
      </g>
     </g>
    </g>
    <g id="ytick_5">
     <g id="text_11">
      <!-- 0.8 -->
      <g style="fill: #262626" transform="translate(32.81 98.631197) scale(0.11 -0.11)">
       <use xlink:href="#ArialMT-30"/>
       <use xlink:href="#ArialMT-2e" x="55.615234"/>
       <use xlink:href="#ArialMT-38" x="83.398438"/>
      </g>
     </g>
    </g>
    <g id="ytick_6">
     <g id="text_12">
      <!-- 1.0 -->
      <g style="fill: #262626" transform="translate(32.81 45.408797) scale(0.11 -0.11)">
       <use xlink:href="#ArialMT-31"/>
       <use xlink:href="#ArialMT-2e" x="55.615234"/>
       <use xlink:href="#ArialMT-30" x="83.398438"/>
      </g>
     </g>
    </g>
   </g>
   <g id="PathCollection_1">
    <defs>
     <path id="m815fe83155" d="M 0 3 
C 0.795609 3 1.55874 2.683901 2.12132 2.12132 
C 2.683901 1.55874 3 0.795609 3 0 
C 3 -0.795609 2.683901 -1.55874 2.12132 -2.12132 
C 1.55874 -2.683901 0.795609 -3 0 -3 
C -0.795609 -3 -1.55874 -2.683901 -2.12132 -2.12132 
C -2.683901 -1.55874 -3 -0.795609 -3 0 
C -3 0.795609 -2.683901 1.55874 -2.12132 2.12132 
C -1.55874 2.683901 -0.795609 3 0 3 
z
" style="stroke: #8080ff"/>
    </defs>
    <g clip-path="url(#p0b2e512dce)">
     <use xlink:href="#m815fe83155" x="311.009045" y="115.017043" style="fill: #8080ff; stroke: #8080ff"/>
     <use xlink:href="#m815fe83155" x="251.808913" y="156.583652" style="fill: #8080ff; stroke: #8080ff"/>
     <use xlink:href="#m815fe83155" x="246.641819" y="154.119652" style="fill: #8080ff; stroke: #8080ff"/>
     <use xlink:href="#m815fe83155" x="293.810004" y="119.19513" style="fill: #8080ff; stroke: #8080ff"/>
     <use xlink:href="#m815fe83155" x="228.55699" y="163.493565" style="fill: #8080ff; stroke: #8080ff"/>
     <use xlink:href="#m815fe83155" x="259.338107" y="166.439652" style="fill: #8080ff; stroke: #8080ff"/>
     <use xlink:href="#m815fe83155" x="251.956544" y="146.29913" style="fill: #8080ff; stroke: #8080ff"/>
     <use xlink:href="#m815fe83155" x="263.545597" y="128.944" style="fill: #8080ff; stroke: #8080ff"/>
     <use xlink:href="#m815fe83155" x="249.446813" y="139.549913" style="fill: #8080ff; stroke: #8080ff"/>
     <use xlink:href="#m815fe83155" x="251.51365" y="139.228522" style="fill: #8080ff; stroke: #8080ff"/>
     <use xlink:href="#m815fe83155" x="298.681835" y="135.478957" style="fill: #8080ff; stroke: #8080ff"/>
     <use xlink:href="#m815fe83155" x="302.815511" y="135.961043" style="fill: #8080ff; stroke: #8080ff"/>
     <use xlink:href="#m815fe83155" x="305.620504" y="119.891478" style="fill: #8080ff; stroke: #8080ff"/>
     <use xlink:href="#m815fe83155" x="199.916527" y="163.225739" style="fill: #8080ff; stroke: #8080ff"/>
     <use xlink:href="#m815fe83155" x="275.65136" y="126.694261" style="fill: #8080ff; stroke: #8080ff"/>
     <use xlink:href="#m815fe83155" x="337.730302" y="147.906087" style="fill: #8080ff; stroke: #8080ff"/>
     <use xlink:href="#m815fe83155" x="268.934138" y="128.140522" style="fill: #8080ff; stroke: #8080ff"/>
     <use xlink:href="#m815fe83155" x="285.764101" y="172.17113" style="fill: #8080ff; stroke: #8080ff"/>
     <use xlink:href="#m815fe83155" x="302.667879" y="129.908174" style="fill: #8080ff; stroke: #8080ff"/>
     <use xlink:href="#m815fe83155" x="267.014932" y="162.957913" style="fill: #8080ff; stroke: #8080ff"/>
     <use xlink:href="#m815fe83155" x="316.028508" y="135.104" style="fill: #8080ff; stroke: #8080ff"/>
     <use xlink:href="#m815fe83155" x="245.829847" y="145.06713" style="fill: #8080ff; stroke: #8080ff"/>
     <use xlink:href="#m815fe83155" x="303.848929" y="129.693913" style="fill: #8080ff; stroke: #8080ff"/>
     <use xlink:href="#m815fe83155" x="300.010517" y="120.052174" style="fill: #8080ff; stroke: #8080ff"/>
     <use xlink:href="#m815fe83155" x="239.481703" y="155.726609" style="fill: #8080ff; stroke: #8080ff"/>
     <use xlink:href="#m815fe83155" x="297.500785" y="126.640696" style="fill: #8080ff; stroke: #8080ff"/>
     <use xlink:href="#m815fe83155" x="230.992906" y="173.40313" style="fill: #8080ff; stroke: #8080ff"/>
     <use xlink:href="#m815fe83155" x="301.413014" y="127.069217" style="fill: #8080ff; stroke: #8080ff"/>
     <use xlink:href="#m815fe83155" x="310.492336" y="109.33913" style="fill: #8080ff; stroke: #8080ff"/>
     <use xlink:href="#m815fe83155" x="305.029979" y="127.390609" style="fill: #8080ff; stroke: #8080ff"/>
     <use xlink:href="#m815fe83155" x="275.872807" y="175.76" style="fill: #8080ff; stroke: #8080ff"/>
     <use xlink:href="#m815fe83155" x="308.05642" y="126.212174" style="fill: #8080ff; stroke: #8080ff"/>
     <use xlink:href="#m815fe83155" x="304.734717" y="121.123478" style="fill: #8080ff; stroke: #8080ff"/>
     <use xlink:href="#m815fe83155" x="320.088367" y="133.818435" style="fill: #8080ff; stroke: #8080ff"/>
     <use xlink:href="#m815fe83155" x="256.090219" y="169.546435" style="fill: #8080ff; stroke: #8080ff"/>
     <use xlink:href="#m815fe83155" x="254.909169" y="160.279652" style="fill: #8080ff; stroke: #8080ff"/>
     <use xlink:href="#m815fe83155" x="279.489773" y="136.818087" style="fill: #8080ff; stroke: #8080ff"/>
     <use xlink:href="#m815fe83155" x="310.713783" y="136.22887" style="fill: #8080ff; stroke: #8080ff"/>
     <use xlink:href="#m815fe83155" x="263.693229" y="129.747478" style="fill: #8080ff; stroke: #8080ff"/>
     <use xlink:href="#m815fe83155" x="331.529789" y="184.919652" style="fill: #8080ff; stroke: #8080ff"/>
     <use xlink:href="#m815fe83155" x="313.371145" y="121.016348" style="fill: #8080ff; stroke: #8080ff"/>
     <use xlink:href="#m815fe83155" x="311.082861" y="181.81287" style="fill: #8080ff; stroke: #8080ff"/>
     <use xlink:href="#m815fe83155" x="220.215825" y="158.994087" style="fill: #8080ff; stroke: #8080ff"/>
     <use xlink:href="#m815fe83155" x="276.610963" y="150.852174" style="fill: #8080ff; stroke: #8080ff"/>
     <use xlink:href="#m815fe83155" x="234.093162" y="172.278261" style="fill: #8080ff; stroke: #8080ff"/>
     <use xlink:href="#m815fe83155" x="242.360513" y="157.226435" style="fill: #8080ff; stroke: #8080ff"/>
     <use xlink:href="#m815fe83155" x="246.420372" y="167.832348" style="fill: #8080ff; stroke: #8080ff"/>
     <use xlink:href="#m815fe83155" x="308.277867" y="127.337043" style="fill: #8080ff; stroke: #8080ff"/>
     <use xlink:href="#m815fe83155" x="300.97012" y="127.337043" style="fill: #8080ff; stroke: #8080ff"/>
     <use xlink:href="#m815fe83155" x="262.807441" y="102.911304" style="fill: #8080ff; stroke: #8080ff"/>
     <use xlink:href="#m815fe83155" x="300.084332" y="122.569739" style="fill: #8080ff; stroke: #8080ff"/>
     <use xlink:href="#m815fe83155" x="308.720761" y="137.300174" style="fill: #8080ff; stroke: #8080ff"/>
     <use xlink:href="#m815fe83155" x="167.363836" y="173.510261" style="fill: #8080ff; stroke: #8080ff"/>
     <use xlink:href="#m815fe83155" x="245.386953" y="155.512348" style="fill: #8080ff; stroke: #8080ff"/>
     <use xlink:href="#m815fe83155" x="294.843423" y="115.124174" style="fill: #8080ff; stroke: #8080ff"/>
     <use xlink:href="#m815fe83155" x="255.647325" y="150.155826" style="fill: #8080ff; stroke: #8080ff"/>
     <use xlink:href="#m815fe83155" x="314.256933" y="128.622609" style="fill: #8080ff; stroke: #8080ff"/>
     <use xlink:href="#m815fe83155" x="324.812567" y="144.531478" style="fill: #8080ff; stroke: #8080ff"/>
     <use xlink:href="#m815fe83155" x="318.169161" y="133.97913" style="fill: #8080ff; stroke: #8080ff"/>
     <use xlink:href="#m815fe83155" x="305.177611" y="122.087652" style="fill: #8080ff; stroke: #8080ff"/>
     <use xlink:href="#m815fe83155" x="250.037338" y="154.976696" style="fill: #8080ff; stroke: #8080ff"/>
     <use xlink:href="#m815fe83155" x="248.930103" y="168.957217" style="fill: #8080ff; stroke: #8080ff"/>
     <use xlink:href="#m815fe83155" x="299.862885" y="128.301217" style="fill: #8080ff; stroke: #8080ff"/>
     <use xlink:href="#m815fe83155" x="280.154113" y="156.315826" style="fill: #8080ff; stroke: #8080ff"/>
     <use xlink:href="#m815fe83155" x="306.506292" y="116.356174" style="fill: #8080ff; stroke: #8080ff"/>
     <use xlink:href="#m815fe83155" x="265.612435" y="143.299478" style="fill: #8080ff; stroke: #8080ff"/>
     <use xlink:href="#m815fe83155" x="248.044316" y="180.527304" style="fill: #8080ff; stroke: #8080ff"/>
     <use xlink:href="#m815fe83155" x="315.216536" y="138.69287" style="fill: #8080ff; stroke: #8080ff"/>
     <use xlink:href="#m815fe83155" x="237.045788" y="167.457391" style="fill: #8080ff; stroke: #8080ff"/>
     <use xlink:href="#m815fe83155" x="298.386573" y="127.551304" style="fill: #8080ff; stroke: #8080ff"/>
     <use xlink:href="#m815fe83155" x="263.84086" y="167.082435" style="fill: #8080ff; stroke: #8080ff"/>
     <use xlink:href="#m815fe83155" x="306.358661" y="152.994783" style="fill: #8080ff; stroke: #8080ff"/>
     <use xlink:href="#m815fe83155" x="239.850781" y="153.69113" style="fill: #8080ff; stroke: #8080ff"/>
     <use xlink:href="#m815fe83155" x="265.760066" y="176.563478" style="fill: #8080ff; stroke: #8080ff"/>
     <use xlink:href="#m815fe83155" x="288.64291" y="121.123478" style="fill: #8080ff; stroke: #8080ff"/>
     <use xlink:href="#m815fe83155" x="260.371525" y="165.475478" style="fill: #8080ff; stroke: #8080ff"/>
     <use xlink:href="#m815fe83155" x="292.259876" y="108.589217" style="fill: #8080ff; stroke: #8080ff"/>
     <use xlink:href="#m815fe83155" x="296.541182" y="122.141217" style="fill: #8080ff; stroke: #8080ff"/>
     <use xlink:href="#m815fe83155" x="297.205523" y="127.069217" style="fill: #8080ff; stroke: #8080ff"/>
     <use xlink:href="#m815fe83155" x="285.09976" y="125.997913" style="fill: #8080ff; stroke: #8080ff"/>
     <use xlink:href="#m815fe83155" x="269.229401" y="148.227478" style="fill: #8080ff; stroke: #8080ff"/>
     <use xlink:href="#m815fe83155" x="313.592592" y="122.355478" style="fill: #8080ff; stroke: #8080ff"/>
     <use xlink:href="#m815fe83155" x="299.27236" y="125.462261" style="fill: #8080ff; stroke: #8080ff"/>
     <use xlink:href="#m815fe83155" x="297.869864" y="132.265043" style="fill: #8080ff; stroke: #8080ff"/>
     <use xlink:href="#m815fe83155" x="301.265382" y="109.928348" style="fill: #8080ff; stroke: #8080ff"/>
     <use xlink:href="#m815fe83155" x="287.240413" y="117.909565" style="fill: #8080ff; stroke: #8080ff"/>
     <use xlink:href="#m815fe83155" x="277.570566" y="162.529391" style="fill: #8080ff; stroke: #8080ff"/>
     <use xlink:href="#m815fe83155" x="246.346556" y="143.460174" style="fill: #8080ff; stroke: #8080ff"/>
     <use xlink:href="#m815fe83155" x="227.671203" y="160.279652" style="fill: #8080ff; stroke: #8080ff"/>
     <use xlink:href="#m815fe83155" x="310.935229" y="123.105391" style="fill: #8080ff; stroke: #8080ff"/>
     <use xlink:href="#m815fe83155" x="278.677801" y="187.062261" style="fill: #8080ff; stroke: #8080ff"/>
     <use xlink:href="#m815fe83155" x="283.475816" y="128.140522" style="fill: #8080ff; stroke: #8080ff"/>
     <use xlink:href="#m815fe83155" x="300.158148" y="126.908522" style="fill: #8080ff; stroke: #8080ff"/>
     <use xlink:href="#m815fe83155" x="256.680744" y="175.86713" style="fill: #8080ff; stroke: #8080ff"/>
     <use xlink:href="#m815fe83155" x="305.546689" y="124.016" style="fill: #8080ff; stroke: #8080ff"/>
     <use xlink:href="#m815fe83155" x="300.231964" y="123.90887" style="fill: #8080ff; stroke: #8080ff"/>
     <use xlink:href="#m815fe83155" x="295.655395" y="108.803478" style="fill: #8080ff; stroke: #8080ff"/>
     <use xlink:href="#m815fe83155" x="301.634461" y="128.890435" style="fill: #8080ff; stroke: #8080ff"/>
     <use xlink:href="#m815fe83155" x="282.294766" y="147.102609" style="fill: #8080ff; stroke: #8080ff"/>
     <use xlink:href="#m815fe83155" x="354.338818" y="167.457391" style="fill: #8080ff; stroke: #8080ff"/>
     <use xlink:href="#m815fe83155" x="294.621976" y="123.855304" style="fill: #8080ff; stroke: #8080ff"/>
     <use xlink:href="#m815fe83155" x="308.05642" y="131.622261" style="fill: #8080ff; stroke: #8080ff"/>
     <use xlink:href="#m815fe83155" x="291.52172" y="120.42713" style="fill: #8080ff; stroke: #8080ff"/>
     <use xlink:href="#m815fe83155" x="248.634841" y="151.655652" style="fill: #8080ff; stroke: #8080ff"/>
     <use xlink:href="#m815fe83155" x="301.339198" y="133.872" style="fill: #8080ff; stroke: #8080ff"/>
     <use xlink:href="#m815fe83155" x="301.929723" y="129.961739" style="fill: #8080ff; stroke: #8080ff"/>
     <use xlink:href="#m815fe83155" x="273.363076" y="153.101913" style="fill: #8080ff; stroke: #8080ff"/>
     <use xlink:href="#m815fe83155" x="261.921654" y="141.103304" style="fill: #8080ff; stroke: #8080ff"/>
     <use xlink:href="#m815fe83155" x="296.836445" y="109.981913" style="fill: #8080ff; stroke: #8080ff"/>
     <use xlink:href="#m815fe83155" x="311.747201" y="109.767652" style="fill: #8080ff; stroke: #8080ff"/>
     <use xlink:href="#m815fe83155" x="308.204051" y="137.996522" style="fill: #8080ff; stroke: #8080ff"/>
     <use xlink:href="#m815fe83155" x="242.212881" y="146.192" style="fill: #8080ff; stroke: #8080ff"/>
     <use xlink:href="#m815fe83155" x="208.036246" y="161.993739" style="fill: #8080ff; stroke: #8080ff"/>
     <use xlink:href="#m815fe83155" x="303.406036" y="109.285565" style="fill: #8080ff; stroke: #8080ff"/>
     <use xlink:href="#m815fe83155" x="306.137214" y="132.372174" style="fill: #8080ff; stroke: #8080ff"/>
     <use xlink:href="#m815fe83155" x="308.05642" y="116.249043" style="fill: #8080ff; stroke: #8080ff"/>
     <use xlink:href="#m815fe83155" x="283.844895" y="132.479304" style="fill: #8080ff; stroke: #8080ff"/>
     <use xlink:href="#m815fe83155" x="227.671203" y="151.066435" style="fill: #8080ff; stroke: #8080ff"/>
     <use xlink:href="#m815fe83155" x="270.262819" y="161.350957" style="fill: #8080ff; stroke: #8080ff"/>
     <use xlink:href="#m815fe83155" x="319.20258" y="142.174609" style="fill: #8080ff; stroke: #8080ff"/>
     <use xlink:href="#m815fe83155" x="270.853344" y="177.206261" style="fill: #8080ff; stroke: #8080ff"/>
     <use xlink:href="#m815fe83155" x="304.144192" y="112.285217" style="fill: #8080ff; stroke: #8080ff"/>
     <use xlink:href="#m815fe83155" x="260.666788" y="167.993043" style="fill: #8080ff; stroke: #8080ff"/>
     <use xlink:href="#m815fe83155" x="261.995469" y="152.780522" style="fill: #8080ff; stroke: #8080ff"/>
     <use xlink:href="#m815fe83155" x="294.179082" y="130.765217" style="fill: #8080ff; stroke: #8080ff"/>
     <use xlink:href="#m815fe83155" x="279.563588" y="149.138087" style="fill: #8080ff; stroke: #8080ff"/>
     <use xlink:href="#m815fe83155" x="262.807441" y="159.476174" style="fill: #8080ff; stroke: #8080ff"/>
     <use xlink:href="#m815fe83155" x="257.93561" y="180.152348" style="fill: #8080ff; stroke: #8080ff"/>
     <use xlink:href="#m815fe83155" x="229.0737" y="134.568348" style="fill: #8080ff; stroke: #8080ff"/>
     <use xlink:href="#m815fe83155" x="254.466275" y="154.494609" style="fill: #8080ff; stroke: #8080ff"/>
     <use xlink:href="#m815fe83155" x="264.579016" y="133.336348" style="fill: #8080ff; stroke: #8080ff"/>
     <use xlink:href="#m815fe83155" x="256.976007" y="172.706783" style="fill: #8080ff; stroke: #8080ff"/>
     <use xlink:href="#m815fe83155" x="297.205523" y="127.069217" style="fill: #8080ff; stroke: #8080ff"/>
     <use xlink:href="#m815fe83155" x="302.15117" y="130.604522" style="fill: #8080ff; stroke: #8080ff"/>
     <use xlink:href="#m815fe83155" x="284.43542" y="100.393739" style="fill: #8080ff; stroke: #8080ff"/>
     <use xlink:href="#m815fe83155" x="309.754179" y="137.835826" style="fill: #8080ff; stroke: #8080ff"/>
     <use xlink:href="#m815fe83155" x="307.392079" y="138.050087" style="fill: #8080ff; stroke: #8080ff"/>
     <use xlink:href="#m815fe83155" x="306.727739" y="113.731478" style="fill: #8080ff; stroke: #8080ff"/>
     <use xlink:href="#m815fe83155" x="299.862885" y="114.427826" style="fill: #8080ff; stroke: #8080ff"/>
     <use xlink:href="#m815fe83155" x="244.205903" y="141.960348" style="fill: #8080ff; stroke: #8080ff"/>
     <use xlink:href="#m815fe83155" x="253.87575" y="161.350957" style="fill: #8080ff; stroke: #8080ff"/>
     <use xlink:href="#m815fe83155" x="292.407507" y="121.123478" style="fill: #8080ff; stroke: #8080ff"/>
     <use xlink:href="#m815fe83155" x="299.419992" y="121.016348" style="fill: #8080ff; stroke: #8080ff"/>
     <use xlink:href="#m815fe83155" x="300.231964" y="119.088" style="fill: #8080ff; stroke: #8080ff"/>
     <use xlink:href="#m815fe83155" x="298.017495" y="111.963826" style="fill: #8080ff; stroke: #8080ff"/>
     <use xlink:href="#m815fe83155" x="312.706804" y="114.856348" style="fill: #8080ff; stroke: #8080ff"/>
     <use xlink:href="#m815fe83155" x="243.024853" y="170.671304" style="fill: #8080ff; stroke: #8080ff"/>
     <use xlink:href="#m815fe83155" x="298.681835" y="131.140174" style="fill: #8080ff; stroke: #8080ff"/>
     <use xlink:href="#m815fe83155" x="297.279339" y="161.029565" style="fill: #8080ff; stroke: #8080ff"/>
     <use xlink:href="#m815fe83155" x="158.505961" y="147.798957" style="fill: #8080ff; stroke: #8080ff"/>
    </g>
   </g>
   <g id="PathCollection_2">
    <defs>
     <path id="mb5b20e02fa" d="M 0 3 
C 0.795609 3 1.55874 2.683901 2.12132 2.12132 
C 2.683901 1.55874 3 0.795609 3 0 
C 3 -0.795609 2.683901 -1.55874 2.12132 -2.12132 
C 1.55874 -2.683901 0.795609 -3 0 -3 
C -0.795609 -3 -1.55874 -2.683901 -2.12132 -2.12132 
C -2.683901 -1.55874 -3 -0.795609 -3 0 
C -3 0.795609 -2.683901 1.55874 -2.12132 2.12132 
C -1.55874 2.683901 -0.795609 3 0 3 
z
" style="stroke: #404080"/>
    </defs>
    <g clip-path="url(#p0b2e512dce)">
     <use xlink:href="#mb5b20e02fa" x="235.790922" y="193.543652" style="fill: #404080; stroke: #404080"/>
     <use xlink:href="#mb5b20e02fa" x="311.451939" y="117.373913" style="fill: #404080; stroke: #404080"/>
     <use xlink:href="#mb5b20e02fa" x="275.282282" y="100.608" style="fill: #404080; stroke: #404080"/>
     <use xlink:href="#mb5b20e02fa" x="245.903663" y="174.528" style="fill: #404080; stroke: #404080"/>
     <use xlink:href="#mb5b20e02fa" x="217.115568" y="166.814609" style="fill: #404080; stroke: #404080"/>
     <use xlink:href="#mb5b20e02fa" x="134.958776" y="106.928696" style="fill: #404080; stroke: #404080"/>
     <use xlink:href="#mb5b20e02fa" x="115.102373" y="80.467478" style="fill: #404080; stroke: #404080"/>
     <use xlink:href="#mb5b20e02fa" x="349.688433" y="241.859478" style="fill: #404080; stroke: #404080"/>
     <use xlink:href="#mb5b20e02fa" x="211.505581" y="210.36313" style="fill: #404080; stroke: #404080"/>
     <use xlink:href="#mb5b20e02fa" x="236.455263" y="155.298087" style="fill: #404080; stroke: #404080"/>
     <use xlink:href="#mb5b20e02fa" x="213.646234" y="98.411826" style="fill: #404080; stroke: #404080"/>
     <use xlink:href="#mb5b20e02fa" x="241.843803" y="171.099826" style="fill: #404080; stroke: #404080"/>
     <use xlink:href="#mb5b20e02fa" x="226.933047" y="169.546435" style="fill: #404080; stroke: #404080"/>
     <use xlink:href="#mb5b20e02fa" x="259.264291" y="96.162087" style="fill: #404080; stroke: #404080"/>
     <use xlink:href="#mb5b20e02fa" x="195.118512" y="225.950609" style="fill: #404080; stroke: #404080"/>
     <use xlink:href="#mb5b20e02fa" x="223.611344" y="93.269565" style="fill: #404080; stroke: #404080"/>
     <use xlink:href="#mb5b20e02fa" x="254.097197" y="159.690435" style="fill: #404080; stroke: #404080"/>
     <use xlink:href="#mb5b20e02fa" x="298.977098" y="92.466087" style="fill: #404080; stroke: #404080"/>
     <use xlink:href="#mb5b20e02fa" x="380.395734" y="277.212522" style="fill: #404080; stroke: #404080"/>
     <use xlink:href="#mb5b20e02fa" x="302.520248" y="107.89287" style="fill: #404080; stroke: #404080"/>
     <use xlink:href="#mb5b20e02fa" x="219.330037" y="180.741565" style="fill: #404080; stroke: #404080"/>
     <use xlink:href="#mb5b20e02fa" x="99.896354" y="87.859478" style="fill: #404080; stroke: #404080"/>
     <use xlink:href="#mb5b20e02fa" x="106.318313" y="70.772174" style="fill: #404080; stroke: #404080"/>
     <use xlink:href="#mb5b20e02fa" x="267.531641" y="178.920348" style="fill: #404080; stroke: #404080"/>
     <use xlink:href="#mb5b20e02fa" x="233.650269" y="177.152696" style="fill: #404080; stroke: #404080"/>
     <use xlink:href="#mb5b20e02fa" x="238.005391" y="164.189913" style="fill: #404080; stroke: #404080"/>
     <use xlink:href="#mb5b20e02fa" x="334.703861" y="237.520696" style="fill: #404080; stroke: #404080"/>
     <use xlink:href="#mb5b20e02fa" x="197.775874" y="157.38713" style="fill: #404080; stroke: #404080"/>
     <use xlink:href="#mb5b20e02fa" x="353.895924" y="241.966609" style="fill: #404080; stroke: #404080"/>
     <use xlink:href="#mb5b20e02fa" x="207.29809" y="173.40313" style="fill: #404080; stroke: #404080"/>
     <use xlink:href="#mb5b20e02fa" x="250.111153" y="164.725565" style="fill: #404080; stroke: #404080"/>
     <use xlink:href="#mb5b20e02fa" x="186.555899" y="189.954783" style="fill: #404080; stroke: #404080"/>
     <use xlink:href="#mb5b20e02fa" x="322.671914" y="201.52487" style="fill: #404080; stroke: #404080"/>
     <use xlink:href="#mb5b20e02fa" x="252.6947" y="196.650435" style="fill: #404080; stroke: #404080"/>
     <use xlink:href="#mb5b20e02fa" x="363.639587" y="239.288348" style="fill: #404080; stroke: #404080"/>
     <use xlink:href="#mb5b20e02fa" x="244.648797" y="186.74087" style="fill: #404080; stroke: #404080"/>
     <use xlink:href="#mb5b20e02fa" x="299.715254" y="129.211826" style="fill: #404080; stroke: #404080"/>
     <use xlink:href="#mb5b20e02fa" x="163.377792" y="122.837565" style="fill: #404080; stroke: #404080"/>
     <use xlink:href="#mb5b20e02fa" x="336.696883" y="181.705739" style="fill: #404080; stroke: #404080"/>
     <use xlink:href="#mb5b20e02fa" x="207.445721" y="196.489739" style="fill: #404080; stroke: #404080"/>
     <use xlink:href="#mb5b20e02fa" x="270.631897" y="198.525217" style="fill: #404080; stroke: #404080"/>
     <use xlink:href="#mb5b20e02fa" x="212.317553" y="182.02713" style="fill: #404080; stroke: #404080"/>
     <use xlink:href="#mb5b20e02fa" x="326.805589" y="217.75513" style="fill: #404080; stroke: #404080"/>
     <use xlink:href="#mb5b20e02fa" x="270.189004" y="157.333565" style="fill: #404080; stroke: #404080"/>
     <use xlink:href="#mb5b20e02fa" x="374.490484" y="271.96313" style="fill: #404080; stroke: #404080"/>
     <use xlink:href="#mb5b20e02fa" x="183.16038" y="89.037913" style="fill: #404080; stroke: #404080"/>
     <use xlink:href="#mb5b20e02fa" x="286.354626" y="100.286609" style="fill: #404080; stroke: #404080"/>
     <use xlink:href="#mb5b20e02fa" x="308.646945" y="117.74887" style="fill: #404080; stroke: #404080"/>
     <use xlink:href="#mb5b20e02fa" x="329.610583" y="144.102957" style="fill: #404080; stroke: #404080"/>
    </g>
   </g>
   <g id="line2d_1">
    <path d="M 236.16 307.584 
L 236.16 41.472 
" clip-path="url(#p0b2e512dce)" style="fill: none; stroke-dasharray: 3.7,1.6; stroke-dashoffset: 0; stroke: #000000"/>
   </g>
   <g id="line2d_2">
    <path d="M 57.6 174.528 
L 414.72 174.528 
" clip-path="url(#p0b2e512dce)" style="fill: none; stroke-dasharray: 3.7,1.6; stroke-dashoffset: 0; stroke: #000000"/>
   </g>
   <g id="patch_3">
    <path d="M 57.6 307.584 
L 57.6 41.472 
" style="fill: none; stroke: #cccccc; stroke-width: 1.25; stroke-linejoin: miter; stroke-linecap: square"/>
   </g>
   <g id="patch_4">
    <path d="M 57.6 307.584 
L 414.72 307.584 
" style="fill: none; stroke: #cccccc; stroke-width: 1.25; stroke-linejoin: miter; stroke-linecap: square"/>
   </g>
   <g id="text_13">
    <g id="patch_5">
     <path d="M 64.7424 99.530865 
L 139.133025 99.530865 
Q 142.733025 99.530865 142.733025 95.930865 
L 142.733025 46.79424 
Q 142.733025 43.19424 139.133025 43.19424 
L 64.7424 43.19424 
Q 61.1424 43.19424 61.1424 46.79424 
L 61.1424 95.930865 
Q 61.1424 99.530865 64.7424 99.530865 
z
" style="fill: #ffffff; opacity: 0.8; stroke: #ffffff; stroke-linejoin: miter"/>
    </g>
    <!-- r1 = 5.25e-1 -->
    <g style="fill: #262626" transform="translate(64.7424 55.383615) scale(0.12 -0.12)">
     <defs>
      <path id="ArialMT-72" d="M 416 0 
L 416 3319 
L 922 3319 
L 922 2816 
Q 1116 3169 1280 3281 
Q 1444 3394 1641 3394 
Q 1925 3394 2219 3213 
L 2025 2691 
Q 1819 2813 1613 2813 
Q 1428 2813 1281 2702 
Q 1134 2591 1072 2394 
Q 978 2094 978 1738 
L 978 0 
L 416 0 
z
" transform="scale(0.015625)"/>
      <path id="ArialMT-20" transform="scale(0.015625)"/>
      <path id="ArialMT-3d" d="M 3381 2694 
L 356 2694 
L 356 3219 
L 3381 3219 
L 3381 2694 
z
M 3381 1303 
L 356 1303 
L 356 1828 
L 3381 1828 
L 3381 1303 
z
" transform="scale(0.015625)"/>
      <path id="ArialMT-35" d="M 266 1200 
L 856 1250 
Q 922 819 1161 601 
Q 1400 384 1738 384 
Q 2144 384 2425 690 
Q 2706 997 2706 1503 
Q 2706 1984 2436 2262 
Q 2166 2541 1728 2541 
Q 1456 2541 1237 2417 
Q 1019 2294 894 2097 
L 366 2166 
L 809 4519 
L 3088 4519 
L 3088 3981 
L 1259 3981 
L 1013 2750 
Q 1425 3038 1878 3038 
Q 2478 3038 2890 2622 
Q 3303 2206 3303 1553 
Q 3303 931 2941 478 
Q 2500 -78 1738 -78 
Q 1113 -78 717 272 
Q 322 622 266 1200 
z
" transform="scale(0.015625)"/>
      <path id="ArialMT-65" d="M 2694 1069 
L 3275 997 
Q 3138 488 2766 206 
Q 2394 -75 1816 -75 
Q 1088 -75 661 373 
Q 234 822 234 1631 
Q 234 2469 665 2931 
Q 1097 3394 1784 3394 
Q 2450 3394 2872 2941 
Q 3294 2488 3294 1666 
Q 3294 1616 3291 1516 
L 816 1516 
Q 847 969 1125 678 
Q 1403 388 1819 388 
Q 2128 388 2347 550 
Q 2566 713 2694 1069 
z
M 847 1978 
L 2700 1978 
Q 2663 2397 2488 2606 
Q 2219 2931 1791 2931 
Q 1403 2931 1139 2672 
Q 875 2413 847 1978 
z
" transform="scale(0.015625)"/>
      <path id="ArialMT-2d" d="M 203 1375 
L 203 1941 
L 1931 1941 
L 1931 1375 
L 203 1375 
z
" transform="scale(0.015625)"/>
     </defs>
     <use xlink:href="#ArialMT-72"/>
     <use xlink:href="#ArialMT-31" x="33.300781"/>
     <use xlink:href="#ArialMT-20" x="88.916016"/>
     <use xlink:href="#ArialMT-3d" x="116.699219"/>
     <use xlink:href="#ArialMT-20" x="175.097656"/>
     <use xlink:href="#ArialMT-35" x="202.880859"/>
     <use xlink:href="#ArialMT-2e" x="258.496094"/>
     <use xlink:href="#ArialMT-32" x="286.279297"/>
     <use xlink:href="#ArialMT-35" x="341.894531"/>
     <use xlink:href="#ArialMT-65" x="397.509766"/>
     <use xlink:href="#ArialMT-2d" x="453.125"/>
     <use xlink:href="#ArialMT-31" x="486.425781"/>
    </g>
    <!-- p1 = 5.45e-12 -->
    <g style="fill: #262626" transform="translate(64.7424 68.118615) scale(0.12 -0.12)">
     <defs>
      <path id="ArialMT-70" d="M 422 -1272 
L 422 3319 
L 934 3319 
L 934 2888 
Q 1116 3141 1344 3267 
Q 1572 3394 1897 3394 
Q 2322 3394 2647 3175 
Q 2972 2956 3137 2557 
Q 3303 2159 3303 1684 
Q 3303 1175 3120 767 
Q 2938 359 2589 142 
Q 2241 -75 1856 -75 
Q 1575 -75 1351 44 
Q 1128 163 984 344 
L 984 -1272 
L 422 -1272 
z
M 931 1641 
Q 931 1000 1190 694 
Q 1450 388 1819 388 
Q 2194 388 2461 705 
Q 2728 1022 2728 1688 
Q 2728 2322 2467 2637 
Q 2206 2953 1844 2953 
Q 1484 2953 1207 2617 
Q 931 2281 931 1641 
z
" transform="scale(0.015625)"/>
     </defs>
     <use xlink:href="#ArialMT-70"/>
     <use xlink:href="#ArialMT-31" x="55.615234"/>
     <use xlink:href="#ArialMT-20" x="111.230469"/>
     <use xlink:href="#ArialMT-3d" x="139.013672"/>
     <use xlink:href="#ArialMT-20" x="197.412109"/>
     <use xlink:href="#ArialMT-35" x="225.195312"/>
     <use xlink:href="#ArialMT-2e" x="280.810547"/>
     <use xlink:href="#ArialMT-34" x="308.59375"/>
     <use xlink:href="#ArialMT-35" x="364.208984"/>
     <use xlink:href="#ArialMT-65" x="419.824219"/>
     <use xlink:href="#ArialMT-2d" x="475.439453"/>
     <use xlink:href="#ArialMT-31" x="508.740234"/>
     <use xlink:href="#ArialMT-32" x="564.355469"/>
    </g>
    <!-- r2 = -5.40e-1 -->
    <g style="fill: #262626" transform="translate(64.7424 80.810865) scale(0.12 -0.12)">
     <use xlink:href="#ArialMT-72"/>
     <use xlink:href="#ArialMT-32" x="33.300781"/>
     <use xlink:href="#ArialMT-20" x="88.916016"/>
     <use xlink:href="#ArialMT-3d" x="116.699219"/>
     <use xlink:href="#ArialMT-20" x="175.097656"/>
     <use xlink:href="#ArialMT-2d" x="202.880859"/>
     <use xlink:href="#ArialMT-35" x="236.181641"/>
     <use xlink:href="#ArialMT-2e" x="291.796875"/>
     <use xlink:href="#ArialMT-34" x="319.580078"/>
     <use xlink:href="#ArialMT-30" x="375.195312"/>
     <use xlink:href="#ArialMT-65" x="430.810547"/>
     <use xlink:href="#ArialMT-2d" x="486.425781"/>
     <use xlink:href="#ArialMT-31" x="519.726562"/>
    </g>
    <!-- p2 = 6.19e-5 -->
    <g style="fill: #262626" transform="translate(64.7424 93.545865) scale(0.12 -0.12)">
     <defs>
      <path id="ArialMT-39" d="M 350 1059 
L 891 1109 
Q 959 728 1153 556 
Q 1347 384 1650 384 
Q 1909 384 2104 503 
Q 2300 622 2425 820 
Q 2550 1019 2634 1356 
Q 2719 1694 2719 2044 
Q 2719 2081 2716 2156 
Q 2547 1888 2255 1720 
Q 1963 1553 1622 1553 
Q 1053 1553 659 1965 
Q 266 2378 266 3053 
Q 266 3750 677 4175 
Q 1088 4600 1706 4600 
Q 2153 4600 2523 4359 
Q 2894 4119 3086 3673 
Q 3278 3228 3278 2384 
Q 3278 1506 3087 986 
Q 2897 466 2520 194 
Q 2144 -78 1638 -78 
Q 1100 -78 759 220 
Q 419 519 350 1059 
z
M 2653 3081 
Q 2653 3566 2395 3850 
Q 2138 4134 1775 4134 
Q 1400 4134 1122 3828 
Q 844 3522 844 3034 
Q 844 2597 1108 2323 
Q 1372 2050 1759 2050 
Q 2150 2050 2401 2323 
Q 2653 2597 2653 3081 
z
" transform="scale(0.015625)"/>
     </defs>
     <use xlink:href="#ArialMT-70"/>
     <use xlink:href="#ArialMT-32" x="55.615234"/>
     <use xlink:href="#ArialMT-20" x="111.230469"/>
     <use xlink:href="#ArialMT-3d" x="139.013672"/>
     <use xlink:href="#ArialMT-20" x="197.412109"/>
     <use xlink:href="#ArialMT-36" x="225.195312"/>
     <use xlink:href="#ArialMT-2e" x="280.810547"/>
     <use xlink:href="#ArialMT-31" x="308.59375"/>
     <use xlink:href="#ArialMT-39" x="364.208984"/>
     <use xlink:href="#ArialMT-65" x="419.824219"/>
     <use xlink:href="#ArialMT-2d" x="475.439453"/>
     <use xlink:href="#ArialMT-35" x="508.740234"/>
    </g>
   </g>
  </g>
 </g>
 <defs>
  <clipPath id="p0b2e512dce">
   <rect x="57.6" y="41.472" width="357.12" height="266.112"/>
  </clipPath>
 </defs>
</svg>
