<?xml version="1.0" encoding="utf-8" standalone="no"?>
<!DOCTYPE svg PUBLIC "-//W3C//DTD SVG 1.1//EN"
  "http://www.w3.org/Graphics/SVG/1.1/DTD/svg11.dtd">
<svg xmlns:xlink="http://www.w3.org/1999/xlink" width="720pt" height="432pt" viewBox="0 0 720 432" xmlns="http://www.w3.org/2000/svg" version="1.1">
 <metadata>
  <rdf:RDF xmlns:dc="http://purl.org/dc/elements/1.1/" xmlns:cc="http://creativecommons.org/ns#" xmlns:rdf="http://www.w3.org/1999/02/22-rdf-syntax-ns#">
   <cc:Work>
    <dc:type rdf:resource="http://purl.org/dc/dcmitype/StillImage"/>
    <dc:date>2025-08-23T23:18:19.146379</dc:date>
    <dc:format>image/svg+xml</dc:format>
    <dc:creator>
     <cc:Agent>
      <dc:title>Matplotlib v3.9.4, https://matplotlib.org/</dc:title>
     </cc:Agent>
    </dc:creator>
   </cc:Work>
  </rdf:RDF>
 </metadata>
 <defs>
  <style type="text/css">*{stroke-linejoin: round; stroke-linecap: butt}</style>
 </defs>
 <g id="figure_1">
  <g id="patch_1">
   <path d="M 0 432 
L 720 432 
L 720 0 
L 0 0 
z
" style="fill: #ffffff"/>
  </g>
  <g id="axes_1">
   <g id="patch_2">
    <path d="M 69.57 378.18 
L 607.76 378.18 
L 607.76 27.6 
L 69.57 27.6 
L 69.57 378.18 
z
" style="fill: none"/>
   </g>
   <g id="matplotlib.axis_1">
    <g id="xtick_1">
     <g id="text_1">
      <!-- 0 -->
      <g style="fill: #262626" transform="translate(125.662257 398.416719) scale(0.15 -0.15)">
       <defs>
        <path id="ArialMT-30" d="M 266 2259 
Q 266 3072 433 3567 
Q 600 4063 929 4331 
Q 1259 4600 1759 4600 
Q 2128 4600 2406 4451 
Q 2684 4303 2865 4023 
Q 3047 3744 3150 3342 
Q 3253 2941 3253 2259 
Q 3253 1453 3087 958 
Q 2922 463 2592 192 
Q 2263 -78 1759 -78 
Q 1097 -78 719 397 
Q 266 969 266 2259 
z
M 844 2259 
Q 844 1131 1108 757 
Q 1372 384 1759 384 
Q 2147 384 2411 759 
Q 2675 1134 2675 2259 
Q 2675 3391 2411 3762 
Q 2147 4134 1753 4134 
Q 1366 4134 1134 3806 
Q 844 3388 844 2259 
z
" transform="scale(0.015625)"/>
       </defs>
       <use xlink:href="#ArialMT-30"/>
      </g>
     </g>
    </g>
    <g id="xtick_2">
     <g id="text_2">
      <!-- 250 -->
      <g style="fill: #262626" transform="translate(191.903722 398.416719) scale(0.15 -0.15)">
       <defs>
        <path id="ArialMT-32" d="M 3222 541 
L 3222 0 
L 194 0 
Q 188 203 259 391 
Q 375 700 629 1000 
Q 884 1300 1366 1694 
Q 2113 2306 2375 2664 
Q 2638 3022 2638 3341 
Q 2638 3675 2398 3904 
Q 2159 4134 1775 4134 
Q 1369 4134 1125 3890 
Q 881 3647 878 3216 
L 300 3275 
Q 359 3922 746 4261 
Q 1134 4600 1788 4600 
Q 2447 4600 2831 4234 
Q 3216 3869 3216 3328 
Q 3216 3053 3103 2787 
Q 2991 2522 2730 2228 
Q 2469 1934 1863 1422 
Q 1356 997 1212 845 
Q 1069 694 975 541 
L 3222 541 
z
" transform="scale(0.015625)"/>
        <path id="ArialMT-35" d="M 266 1200 
L 856 1250 
Q 922 819 1161 601 
Q 1400 384 1738 384 
Q 2144 384 2425 690 
Q 2706 997 2706 1503 
Q 2706 1984 2436 2262 
Q 2166 2541 1728 2541 
Q 1456 2541 1237 2417 
Q 1019 2294 894 2097 
L 366 2166 
L 809 4519 
L 3088 4519 
L 3088 3981 
L 1259 3981 
L 1013 2750 
Q 1425 3038 1878 3038 
Q 2478 3038 2890 2622 
Q 3303 2206 3303 1553 
Q 3303 931 2941 478 
Q 2500 -78 1738 -78 
Q 1113 -78 717 272 
Q 322 622 266 1200 
z
" transform="scale(0.015625)"/>
       </defs>
       <use xlink:href="#ArialMT-32"/>
       <use xlink:href="#ArialMT-35" x="55.615234"/>
       <use xlink:href="#ArialMT-30" x="111.230469"/>
      </g>
     </g>
    </g>
    <g id="xtick_3">
     <g id="text_3">
      <!-- 500 -->
      <g style="fill: #262626" transform="translate(266.486594 398.416719) scale(0.15 -0.15)">
       <use xlink:href="#ArialMT-35"/>
       <use xlink:href="#ArialMT-30" x="55.615234"/>
       <use xlink:href="#ArialMT-30" x="111.230469"/>
      </g>
     </g>
    </g>
    <g id="xtick_4">
     <g id="text_4">
      <!-- 750 -->
      <g style="fill: #262626" transform="translate(341.069465 398.416719) scale(0.15 -0.15)">
       <defs>
        <path id="ArialMT-37" d="M 303 3981 
L 303 4522 
L 3269 4522 
L 3269 4084 
Q 2831 3619 2401 2847 
Q 1972 2075 1738 1259 
Q 1569 684 1522 0 
L 944 0 
Q 953 541 1156 1306 
Q 1359 2072 1739 2783 
Q 2119 3494 2547 3981 
L 303 3981 
z
" transform="scale(0.015625)"/>
       </defs>
       <use xlink:href="#ArialMT-37"/>
       <use xlink:href="#ArialMT-35" x="55.615234"/>
       <use xlink:href="#ArialMT-30" x="111.230469"/>
      </g>
     </g>
    </g>
    <g id="xtick_5">
     <g id="text_5">
      <!-- 1000 -->
      <g style="fill: #262626" transform="translate(411.481633 398.416719) scale(0.15 -0.15)">
       <defs>
        <path id="ArialMT-31" d="M 2384 0 
L 1822 0 
L 1822 3584 
Q 1619 3391 1289 3197 
Q 959 3003 697 2906 
L 697 3450 
Q 1169 3672 1522 3987 
Q 1875 4303 2022 4600 
L 2384 4600 
L 2384 0 
z
" transform="scale(0.015625)"/>
       </defs>
       <use xlink:href="#ArialMT-31"/>
       <use xlink:href="#ArialMT-30" x="55.615234"/>
       <use xlink:href="#ArialMT-30" x="111.230469"/>
       <use xlink:href="#ArialMT-30" x="166.845703"/>
      </g>
     </g>
    </g>
    <g id="xtick_6">
     <g id="text_6">
      <!-- 1250 -->
      <g style="fill: #262626" transform="translate(486.064505 398.416719) scale(0.15 -0.15)">
       <use xlink:href="#ArialMT-31"/>
       <use xlink:href="#ArialMT-32" x="55.615234"/>
       <use xlink:href="#ArialMT-35" x="111.230469"/>
       <use xlink:href="#ArialMT-30" x="166.845703"/>
      </g>
     </g>
    </g>
    <g id="xtick_7">
     <g id="text_7">
      <!-- 1500 -->
      <g style="fill: #262626" transform="translate(560.647376 398.416719) scale(0.15 -0.15)">
       <use xlink:href="#ArialMT-31"/>
       <use xlink:href="#ArialMT-35" x="55.615234"/>
       <use xlink:href="#ArialMT-30" x="111.230469"/>
       <use xlink:href="#ArialMT-30" x="166.845703"/>
      </g>
     </g>
    </g>
    <g id="text_8">
     <!-- Time (s) -->
     <g style="fill: #262626" transform="translate(311.452891 416.3175) scale(0.15 -0.15)">
      <defs>
       <path id="ArialMT-54" d="M 1659 0 
L 1659 4041 
L 150 4041 
L 150 4581 
L 3781 4581 
L 3781 4041 
L 2266 4041 
L 2266 0 
L 1659 0 
z
" transform="scale(0.015625)"/>
       <path id="ArialMT-69" d="M 425 3934 
L 425 4581 
L 988 4581 
L 988 3934 
L 425 3934 
z
M 425 0 
L 425 3319 
L 988 3319 
L 988 0 
L 425 0 
z
" transform="scale(0.015625)"/>
       <path id="ArialMT-6d" d="M 422 0 
L 422 3319 
L 925 3319 
L 925 2853 
Q 1081 3097 1340 3245 
Q 1600 3394 1931 3394 
Q 2300 3394 2536 3241 
Q 2772 3088 2869 2813 
Q 3263 3394 3894 3394 
Q 4388 3394 4653 3120 
Q 4919 2847 4919 2278 
L 4919 0 
L 4359 0 
L 4359 2091 
Q 4359 2428 4304 2576 
Q 4250 2725 4106 2815 
Q 3963 2906 3769 2906 
Q 3419 2906 3187 2673 
Q 2956 2441 2956 1928 
L 2956 0 
L 2394 0 
L 2394 2156 
Q 2394 2531 2256 2718 
Q 2119 2906 1806 2906 
Q 1569 2906 1367 2781 
Q 1166 2656 1075 2415 
Q 984 2175 984 1722 
L 984 0 
L 422 0 
z
" transform="scale(0.015625)"/>
       <path id="ArialMT-65" d="M 2694 1069 
L 3275 997 
Q 3138 488 2766 206 
Q 2394 -75 1816 -75 
Q 1088 -75 661 373 
Q 234 822 234 1631 
Q 234 2469 665 2931 
Q 1097 3394 1784 3394 
Q 2450 3394 2872 2941 
Q 3294 2488 3294 1666 
Q 3294 1616 3291 1516 
L 816 1516 
Q 847 969 1125 678 
Q 1403 388 1819 388 
Q 2128 388 2347 550 
Q 2566 713 2694 1069 
z
M 847 1978 
L 2700 1978 
Q 2663 2397 2488 2606 
Q 2219 2931 1791 2931 
Q 1403 2931 1139 2672 
Q 875 2413 847 1978 
z
" transform="scale(0.015625)"/>
       <path id="ArialMT-20" transform="scale(0.015625)"/>
       <path id="ArialMT-28" d="M 1497 -1347 
Q 1031 -759 709 28 
Q 388 816 388 1659 
Q 388 2403 628 3084 
Q 909 3875 1497 4659 
L 1900 4659 
Q 1522 4009 1400 3731 
Q 1209 3300 1100 2831 
Q 966 2247 966 1656 
Q 966 153 1900 -1347 
L 1497 -1347 
z
" transform="scale(0.015625)"/>
       <path id="ArialMT-73" d="M 197 991 
L 753 1078 
Q 800 744 1014 566 
Q 1228 388 1613 388 
Q 2000 388 2187 545 
Q 2375 703 2375 916 
Q 2375 1106 2209 1216 
Q 2094 1291 1634 1406 
Q 1016 1563 777 1677 
Q 538 1791 414 1992 
Q 291 2194 291 2438 
Q 291 2659 392 2848 
Q 494 3038 669 3163 
Q 800 3259 1026 3326 
Q 1253 3394 1513 3394 
Q 1903 3394 2198 3281 
Q 2494 3169 2634 2976 
Q 2775 2784 2828 2463 
L 2278 2388 
Q 2241 2644 2061 2787 
Q 1881 2931 1553 2931 
Q 1166 2931 1000 2803 
Q 834 2675 834 2503 
Q 834 2394 903 2306 
Q 972 2216 1119 2156 
Q 1203 2125 1616 2013 
Q 2213 1853 2448 1751 
Q 2684 1650 2818 1456 
Q 2953 1263 2953 975 
Q 2953 694 2789 445 
Q 2625 197 2315 61 
Q 2006 -75 1616 -75 
Q 969 -75 630 194 
Q 291 463 197 991 
z
" transform="scale(0.015625)"/>
       <path id="ArialMT-29" d="M 791 -1347 
L 388 -1347 
Q 1322 153 1322 1656 
Q 1322 2244 1188 2822 
Q 1081 3291 891 3722 
Q 769 4003 388 4659 
L 791 4659 
Q 1378 3875 1659 3084 
Q 1900 2403 1900 1659 
Q 1900 816 1576 28 
Q 1253 -759 791 -1347 
z
" transform="scale(0.015625)"/>
      </defs>
      <use xlink:href="#ArialMT-54"/>
      <use xlink:href="#ArialMT-69" x="57.333984"/>
      <use xlink:href="#ArialMT-6d" x="79.550781"/>
      <use xlink:href="#ArialMT-65" x="162.851562"/>
      <use xlink:href="#ArialMT-20" x="218.466797"/>
      <use xlink:href="#ArialMT-28" x="246.25"/>
      <use xlink:href="#ArialMT-73" x="279.550781"/>
      <use xlink:href="#ArialMT-29" x="329.550781"/>
     </g>
    </g>
   </g>
   <g id="matplotlib.axis_2">
    <g id="ytick_1">
     <g id="text_9">
      <!-- 0.00 -->
      <g style="fill: #262626" transform="translate(30.878594 346.594097) scale(0.15 -0.15)">
       <defs>
        <path id="ArialMT-2e" d="M 581 0 
L 581 641 
L 1222 641 
L 1222 0 
L 581 0 
z
" transform="scale(0.015625)"/>
       </defs>
       <use xlink:href="#ArialMT-30"/>
       <use xlink:href="#ArialMT-2e" x="55.615234"/>
       <use xlink:href="#ArialMT-30" x="83.398438"/>
       <use xlink:href="#ArialMT-30" x="139.013672"/>
      </g>
     </g>
    </g>
    <g id="ytick_2">
     <g id="text_10">
      <!-- 0.05 -->
      <g style="fill: #262626" transform="translate(30.878594 294.047078) scale(0.15 -0.15)">
       <use xlink:href="#ArialMT-30"/>
       <use xlink:href="#ArialMT-2e" x="55.615234"/>
       <use xlink:href="#ArialMT-30" x="83.398438"/>
       <use xlink:href="#ArialMT-35" x="139.013672"/>
      </g>
     </g>
    </g>
    <g id="ytick_3">
     <g id="text_11">
      <!-- 0.10 -->
      <g style="fill: #262626" transform="translate(30.878594 241.500059) scale(0.15 -0.15)">
       <use xlink:href="#ArialMT-30"/>
       <use xlink:href="#ArialMT-2e" x="55.615234"/>
       <use xlink:href="#ArialMT-31" x="83.398438"/>
       <use xlink:href="#ArialMT-30" x="139.013672"/>
      </g>
     </g>
    </g>
    <g id="ytick_4">
     <g id="text_12">
      <!-- 0.15 -->
      <g style="fill: #262626" transform="translate(30.878594 188.953039) scale(0.15 -0.15)">
       <use xlink:href="#ArialMT-30"/>
       <use xlink:href="#ArialMT-2e" x="55.615234"/>
       <use xlink:href="#ArialMT-31" x="83.398438"/>
       <use xlink:href="#ArialMT-35" x="139.013672"/>
      </g>
     </g>
    </g>
    <g id="ytick_5">
     <g id="text_13">
      <!-- 0.20 -->
      <g style="fill: #262626" transform="translate(30.878594 136.40602) scale(0.15 -0.15)">
       <use xlink:href="#ArialMT-30"/>
       <use xlink:href="#ArialMT-2e" x="55.615234"/>
       <use xlink:href="#ArialMT-32" x="83.398438"/>
       <use xlink:href="#ArialMT-30" x="139.013672"/>
      </g>
     </g>
    </g>
    <g id="ytick_6">
     <g id="text_14">
      <!-- 0.25 -->
      <g style="fill: #262626" transform="translate(30.878594 83.859001) scale(0.15 -0.15)">
       <use xlink:href="#ArialMT-30"/>
       <use xlink:href="#ArialMT-2e" x="55.615234"/>
       <use xlink:href="#ArialMT-32" x="83.398438"/>
       <use xlink:href="#ArialMT-35" x="139.013672"/>
      </g>
     </g>
    </g>
    <g id="text_15">
     <!-- Divergence -->
     <g style="fill: #262626" transform="translate(23.721563 240.823594) rotate(-90) scale(0.15 -0.15)">
      <defs>
       <path id="ArialMT-44" d="M 494 0 
L 494 4581 
L 2072 4581 
Q 2606 4581 2888 4516 
Q 3281 4425 3559 4188 
Q 3922 3881 4101 3404 
Q 4281 2928 4281 2316 
Q 4281 1794 4159 1391 
Q 4038 988 3847 723 
Q 3656 459 3429 307 
Q 3203 156 2883 78 
Q 2563 0 2147 0 
L 494 0 
z
M 1100 541 
L 2078 541 
Q 2531 541 2789 625 
Q 3047 709 3200 863 
Q 3416 1078 3536 1442 
Q 3656 1806 3656 2325 
Q 3656 3044 3420 3430 
Q 3184 3816 2847 3947 
Q 2603 4041 2063 4041 
L 1100 4041 
L 1100 541 
z
" transform="scale(0.015625)"/>
       <path id="ArialMT-76" d="M 1344 0 
L 81 3319 
L 675 3319 
L 1388 1331 
Q 1503 1009 1600 663 
Q 1675 925 1809 1294 
L 2547 3319 
L 3125 3319 
L 1869 0 
L 1344 0 
z
" transform="scale(0.015625)"/>
       <path id="ArialMT-72" d="M 416 0 
L 416 3319 
L 922 3319 
L 922 2816 
Q 1116 3169 1280 3281 
Q 1444 3394 1641 3394 
Q 1925 3394 2219 3213 
L 2025 2691 
Q 1819 2813 1613 2813 
Q 1428 2813 1281 2702 
Q 1134 2591 1072 2394 
Q 978 2094 978 1738 
L 978 0 
L 416 0 
z
" transform="scale(0.015625)"/>
       <path id="ArialMT-67" d="M 319 -275 
L 866 -356 
Q 900 -609 1056 -725 
Q 1266 -881 1628 -881 
Q 2019 -881 2231 -725 
Q 2444 -569 2519 -288 
Q 2563 -116 2559 434 
Q 2191 0 1641 0 
Q 956 0 581 494 
Q 206 988 206 1678 
Q 206 2153 378 2554 
Q 550 2956 876 3175 
Q 1203 3394 1644 3394 
Q 2231 3394 2613 2919 
L 2613 3319 
L 3131 3319 
L 3131 450 
Q 3131 -325 2973 -648 
Q 2816 -972 2473 -1159 
Q 2131 -1347 1631 -1347 
Q 1038 -1347 672 -1080 
Q 306 -813 319 -275 
z
M 784 1719 
Q 784 1066 1043 766 
Q 1303 466 1694 466 
Q 2081 466 2343 764 
Q 2606 1063 2606 1700 
Q 2606 2309 2336 2618 
Q 2066 2928 1684 2928 
Q 1309 2928 1046 2623 
Q 784 2319 784 1719 
z
" transform="scale(0.015625)"/>
       <path id="ArialMT-6e" d="M 422 0 
L 422 3319 
L 928 3319 
L 928 2847 
Q 1294 3394 1984 3394 
Q 2284 3394 2536 3286 
Q 2788 3178 2913 3003 
Q 3038 2828 3088 2588 
Q 3119 2431 3119 2041 
L 3119 0 
L 2556 0 
L 2556 2019 
Q 2556 2363 2490 2533 
Q 2425 2703 2258 2804 
Q 2091 2906 1866 2906 
Q 1506 2906 1245 2678 
Q 984 2450 984 1813 
L 984 0 
L 422 0 
z
" transform="scale(0.015625)"/>
       <path id="ArialMT-63" d="M 2588 1216 
L 3141 1144 
Q 3050 572 2676 248 
Q 2303 -75 1759 -75 
Q 1078 -75 664 370 
Q 250 816 250 1647 
Q 250 2184 428 2587 
Q 606 2991 970 3192 
Q 1334 3394 1763 3394 
Q 2303 3394 2647 3120 
Q 2991 2847 3088 2344 
L 2541 2259 
Q 2463 2594 2264 2762 
Q 2066 2931 1784 2931 
Q 1359 2931 1093 2626 
Q 828 2322 828 1663 
Q 828 994 1084 691 
Q 1341 388 1753 388 
Q 2084 388 2306 591 
Q 2528 794 2588 1216 
z
" transform="scale(0.015625)"/>
      </defs>
      <use xlink:href="#ArialMT-44"/>
      <use xlink:href="#ArialMT-69" x="72.216797"/>
      <use xlink:href="#ArialMT-76" x="94.433594"/>
      <use xlink:href="#ArialMT-65" x="144.433594"/>
      <use xlink:href="#ArialMT-72" x="200.048828"/>
      <use xlink:href="#ArialMT-67" x="233.349609"/>
      <use xlink:href="#ArialMT-65" x="288.964844"/>
      <use xlink:href="#ArialMT-6e" x="344.580078"/>
      <use xlink:href="#ArialMT-63" x="400.195312"/>
      <use xlink:href="#ArialMT-65" x="450.195312"/>
     </g>
    </g>
   </g>
   <g id="PolyCollection_1">
    <defs>
     <path id="mf0fa132f4c" d="M 94.033182 -93.580383 
L 94.033182 -91.344238 
L 105.966441 -94.133345 
L 117.899701 -89.565013 
L 129.83296 -79.30453 
L 141.76622 -74.166139 
L 153.699479 -85.360247 
L 165.632738 -85.105934 
L 177.565998 -86.072499 
L 189.499257 -103.546628 
L 201.432517 -100.229513 
L 213.365776 -82.964788 
L 225.299035 -91.735637 
L 237.232295 -113.260919 
L 249.165554 -99.045591 
L 261.098814 -91.888727 
L 273.032073 -97.493951 
L 284.965333 -95.780764 
L 296.898592 -99.815899 
L 308.831851 -114.361857 
L 320.765111 -106.561664 
L 332.69837 -116.913212 
L 344.63163 -126.584877 
L 356.564889 -123.508598 
L 368.498149 -123.88827 
L 380.431408 -137.948812 
L 392.364667 -133.067345 
L 404.297927 -119.907639 
L 416.231186 -112.953357 
L 428.164446 -109.091324 
L 440.097705 -107.552266 
L 452.030965 -108.639251 
L 463.964224 -115.715647 
L 475.897483 -121.550938 
L 487.830743 -123.548536 
L 499.764002 -124.992063 
L 511.697262 -124.361578 
L 523.630521 -125.514465 
L 535.56378 -126.198518 
L 547.49704 -127.485806 
L 559.430299 -125.087499 
L 571.363559 -125.292206 
L 583.296818 -114.098811 
L 583.296818 -117.946222 
L 583.296818 -117.946222 
L 571.363559 -130.789061 
L 559.430299 -130.938743 
L 547.49704 -133.378494 
L 535.56378 -131.963644 
L 523.630521 -131.19141 
L 511.697262 -129.827166 
L 499.764002 -130.410733 
L 487.830743 -128.69142 
L 475.897483 -126.391979 
L 463.964224 -120.066721 
L 452.030965 -112.517926 
L 440.097705 -111.851713 
L 428.164446 -114.522094 
L 416.231186 -122.15712 
L 404.297927 -130.104241 
L 392.364667 -142.810235 
L 380.431408 -150.572764 
L 368.498149 -136.149143 
L 356.564889 -131.946448 
L 344.63163 -135.843238 
L 332.69837 -124.728227 
L 320.765111 -115.024592 
L 308.831851 -122.492154 
L 296.898592 -107.506995 
L 284.965333 -103.167705 
L 273.032073 -103.897171 
L 261.098814 -98.519596 
L 249.165554 -105.76096 
L 237.232295 -122.37624 
L 225.299035 -98.861758 
L 213.365776 -90.257628 
L 201.432517 -108.028168 
L 189.499257 -114.994506 
L 177.565998 -97.032365 
L 165.632738 -93.137919 
L 153.699479 -92.017679 
L 141.76622 -81.292796 
L 129.83296 -83.527001 
L 117.899701 -91.105883 
L 105.966441 -96.682482 
L 94.033182 -93.580383 
z
" style="stroke: #00008b; stroke-opacity: 0.1"/>
    </defs>
    <g clip-path="url(#pb131ef23c4)">
     <use xlink:href="#mf0fa132f4c" x="0" y="432" style="fill: #00008b; fill-opacity: 0.1; stroke: #00008b; stroke-opacity: 0.1"/>
    </g>
   </g>
   <g id="PolyCollection_2">
    <defs>
     <path id="m3d6d3a00e0" d="M 94.033182 -90.354962 
L 94.033182 -89.817428 
L 105.966441 -90.934113 
L 117.899701 -90.374879 
L 129.83296 -92.117526 
L 141.76622 -89.09452 
L 153.699479 -86.490345 
L 165.632738 -88.165748 
L 177.565998 -92.347087 
L 189.499257 -102.558967 
L 201.432517 -107.371127 
L 213.365776 -102.245428 
L 225.299035 -106.105509 
L 237.232295 -106.973264 
L 249.165554 -104.305755 
L 261.098814 -101.811075 
L 273.032073 -98.457964 
L 284.965333 -101.496133 
L 296.898592 -101.5141 
L 308.831851 -101.323332 
L 320.765111 -104.910036 
L 332.69837 -107.635205 
L 344.63163 -105.874747 
L 356.564889 -96.97683 
L 368.498149 -98.349117 
L 380.431408 -103.149808 
L 392.364667 -103.136471 
L 404.297927 -101.119957 
L 416.231186 -102.854265 
L 428.164446 -95.842743 
L 440.097705 -92.591693 
L 452.030965 -92.037511 
L 463.964224 -92.369805 
L 475.897483 -92.579415 
L 487.830743 -92.58057 
L 499.764002 -92.185121 
L 511.697262 -92.198558 
L 523.630521 -92.218969 
L 535.56378 -92.284155 
L 547.49704 -91.93497 
L 559.430299 -92.228556 
L 571.363559 -92.34855 
L 583.296818 -91.615369 
L 583.296818 -92.045167 
L 583.296818 -92.045167 
L 571.363559 -92.943033 
L 559.430299 -92.807123 
L 547.49704 -92.527346 
L 535.56378 -92.87046 
L 523.630521 -92.817467 
L 511.697262 -92.800047 
L 499.764002 -92.900186 
L 487.830743 -93.271006 
L 475.897483 -93.199351 
L 463.964224 -92.946303 
L 452.030965 -92.606787 
L 440.097705 -93.125657 
L 428.164446 -96.663872 
L 416.231186 -104.60869 
L 404.297927 -103.153344 
L 392.364667 -104.946606 
L 380.431408 -104.946998 
L 368.498149 -100.322906 
L 356.564889 -98.936243 
L 344.63163 -107.784697 
L 332.69837 -109.624745 
L 320.765111 -106.672646 
L 308.831851 -103.277268 
L 296.898592 -103.488092 
L 284.965333 -103.175291 
L 273.032073 -100.387716 
L 261.098814 -103.650366 
L 249.165554 -106.044185 
L 237.232295 -108.680331 
L 225.299035 -108.011348 
L 213.365776 -104.222352 
L 201.432517 -109.234267 
L 189.499257 -104.386563 
L 177.565998 -94.350467 
L 165.632738 -89.640031 
L 153.699479 -88.08382 
L 141.76622 -90.444996 
L 129.83296 -93.121484 
L 117.899701 -90.786758 
L 105.966441 -91.47351 
L 94.033182 -90.354962 
z
" style="stroke: #00008b; stroke-opacity: 0.1"/>
    </defs>
    <g clip-path="url(#pb131ef23c4)">
     <use xlink:href="#m3d6d3a00e0" x="0" y="432" style="fill: #00008b; fill-opacity: 0.1; stroke: #00008b; stroke-opacity: 0.1"/>
    </g>
   </g>
   <g id="PathCollection_1">
    <defs>
     <path id="mb934d4a88d" d="M 0 -3 
L -0.673542 -0.927051 
L -2.85317 -0.927051 
L -1.089814 0.354102 
L -1.763356 2.427051 
L -0 1.145898 
L 1.763356 2.427051 
L 1.089814 0.354102 
L 2.85317 -0.927051 
L 0.673542 -0.927051 
z
" style="stroke: #00008b"/>
    </defs>
    <g clip-path="url(#pb131ef23c4)">
     <use xlink:href="#mb934d4a88d" x="94.033182" y="351.735142" style="fill: #00008b; stroke: #00008b"/>
     <use xlink:href="#mb934d4a88d" x="105.966441" y="351.735142" style="fill: #00008b; stroke: #00008b"/>
     <use xlink:href="#mb934d4a88d" x="237.232295" y="351.735142" style="fill: #00008b; stroke: #00008b"/>
     <use xlink:href="#mb934d4a88d" x="308.831851" y="351.735142" style="fill: #00008b; stroke: #00008b"/>
     <use xlink:href="#mb934d4a88d" x="332.69837" y="351.735142" style="fill: #00008b; stroke: #00008b"/>
     <use xlink:href="#mb934d4a88d" x="344.63163" y="351.735142" style="fill: #00008b; stroke: #00008b"/>
     <use xlink:href="#mb934d4a88d" x="356.564889" y="351.735142" style="fill: #00008b; stroke: #00008b"/>
     <use xlink:href="#mb934d4a88d" x="368.498149" y="351.735142" style="fill: #00008b; stroke: #00008b"/>
     <use xlink:href="#mb934d4a88d" x="380.431408" y="351.735142" style="fill: #00008b; stroke: #00008b"/>
     <use xlink:href="#mb934d4a88d" x="392.364667" y="351.735142" style="fill: #00008b; stroke: #00008b"/>
     <use xlink:href="#mb934d4a88d" x="404.297927" y="351.735142" style="fill: #00008b; stroke: #00008b"/>
     <use xlink:href="#mb934d4a88d" x="416.231186" y="351.735142" style="fill: #00008b; stroke: #00008b"/>
     <use xlink:href="#mb934d4a88d" x="428.164446" y="351.735142" style="fill: #00008b; stroke: #00008b"/>
     <use xlink:href="#mb934d4a88d" x="440.097705" y="351.735142" style="fill: #00008b; stroke: #00008b"/>
     <use xlink:href="#mb934d4a88d" x="452.030965" y="351.735142" style="fill: #00008b; stroke: #00008b"/>
     <use xlink:href="#mb934d4a88d" x="463.964224" y="351.735142" style="fill: #00008b; stroke: #00008b"/>
     <use xlink:href="#mb934d4a88d" x="475.897483" y="351.735142" style="fill: #00008b; stroke: #00008b"/>
     <use xlink:href="#mb934d4a88d" x="487.830743" y="351.735142" style="fill: #00008b; stroke: #00008b"/>
     <use xlink:href="#mb934d4a88d" x="499.764002" y="351.735142" style="fill: #00008b; stroke: #00008b"/>
     <use xlink:href="#mb934d4a88d" x="511.697262" y="351.735142" style="fill: #00008b; stroke: #00008b"/>
     <use xlink:href="#mb934d4a88d" x="523.630521" y="351.735142" style="fill: #00008b; stroke: #00008b"/>
     <use xlink:href="#mb934d4a88d" x="535.56378" y="351.735142" style="fill: #00008b; stroke: #00008b"/>
     <use xlink:href="#mb934d4a88d" x="547.49704" y="351.735142" style="fill: #00008b; stroke: #00008b"/>
     <use xlink:href="#mb934d4a88d" x="559.430299" y="351.735142" style="fill: #00008b; stroke: #00008b"/>
     <use xlink:href="#mb934d4a88d" x="571.363559" y="351.735142" style="fill: #00008b; stroke: #00008b"/>
     <use xlink:href="#mb934d4a88d" x="583.296818" y="351.735142" style="fill: #00008b; stroke: #00008b"/>
    </g>
   </g>
   <g id="PolyCollection_3">
    <defs>
     <path id="mf398107244" d="M 94.033182 -104.043713 
L 94.033182 -88.792069 
L 105.966441 -91.277357 
L 117.899701 -92.443113 
L 129.83296 -90.065906 
L 141.76622 -90.21787 
L 153.699479 -92.653387 
L 165.632738 -96.619429 
L 177.565998 -101.124805 
L 189.499257 -104.212161 
L 201.432517 -108.050007 
L 213.365776 -117.917776 
L 225.299035 -128.791041 
L 237.232295 -141.547326 
L 249.165554 -155.89232 
L 261.098814 -170.007794 
L 273.032073 -184.61701 
L 284.965333 -197.559866 
L 296.898592 -207.407191 
L 308.831851 -219.291734 
L 320.765111 -231.714026 
L 332.69837 -241.388037 
L 344.63163 -249.916989 
L 356.564889 -257.108244 
L 368.498149 -264.595523 
L 380.431408 -271.443826 
L 392.364667 -275.533769 
L 404.297927 -279.818095 
L 416.231186 -283.844914 
L 428.164446 -287.575503 
L 440.097705 -285.93835 
L 452.030965 -283.484402 
L 463.964224 -285.903411 
L 475.897483 -291.278186 
L 487.830743 -298.236085 
L 499.764002 -304.601098 
L 511.697262 -309.194043 
L 523.630521 -312.550718 
L 535.56378 -314.585584 
L 547.49704 -317.216886 
L 559.430299 -319.781493 
L 571.363559 -317.9927 
L 583.296818 -241.371433 
L 583.296818 -287.545373 
L 583.296818 -287.545373 
L 571.363559 -387.085372 
L 559.430299 -388.464545 
L 547.49704 -384.517561 
L 535.56378 -380.381666 
L 523.630521 -376.47523 
L 511.697262 -371.546798 
L 499.764002 -365.11293 
L 487.830743 -356.11957 
L 475.897483 -346.756293 
L 463.964224 -339.242625 
L 452.030965 -334.560985 
L 440.097705 -335.795479 
L 428.164446 -337.568534 
L 416.231186 -333.204055 
L 404.297927 -328.092575 
L 392.364667 -322.494986 
L 380.431408 -317.017723 
L 368.498149 -308.686399 
L 356.564889 -299.615569 
L 344.63163 -290.725828 
L 332.69837 -280.083803 
L 320.765111 -267.759264 
L 308.831851 -252.117511 
L 296.898592 -237.266127 
L 284.965333 -224.736479 
L 273.032073 -208.423485 
L 261.098814 -189.947407 
L 249.165554 -172.259365 
L 237.232295 -154.602462 
L 225.299035 -138.748913 
L 213.365776 -125.705578 
L 201.432517 -115.569174 
L 189.499257 -113.121119 
L 177.565998 -109.623294 
L 165.632738 -105.900383 
L 153.699479 -103.378307 
L 141.76622 -101.839821 
L 129.83296 -102.817259 
L 117.899701 -107.643524 
L 105.966441 -108.71949 
L 94.033182 -104.043713 
z
" style="stroke: #6060eb; stroke-opacity: 0.1"/>
    </defs>
    <g clip-path="url(#pb131ef23c4)">
     <use xlink:href="#mf398107244" x="0" y="432" style="fill: #6060eb; fill-opacity: 0.1; stroke: #6060eb; stroke-opacity: 0.1"/>
    </g>
   </g>
   <g id="PolyCollection_4">
    <defs>
     <path id="mee3fe58d46" d="M 94.033182 -96.076956 
L 94.033182 -91.644952 
L 105.966441 -93.95384 
L 117.899701 -94.352031 
L 129.83296 -98.011104 
L 141.76622 -101.900925 
L 153.699479 -104.305442 
L 165.632738 -106.975674 
L 177.565998 -108.341834 
L 189.499257 -106.334085 
L 201.432517 -104.341059 
L 213.365776 -103.270942 
L 225.299035 -102.443668 
L 237.232295 -102.247236 
L 249.165554 -103.05921 
L 261.098814 -104.347734 
L 273.032073 -105.526274 
L 284.965333 -106.733413 
L 296.898592 -107.473363 
L 308.831851 -108.648391 
L 320.765111 -110.332992 
L 332.69837 -111.914549 
L 344.63163 -112.649056 
L 356.564889 -112.962069 
L 368.498149 -112.57439 
L 380.431408 -112.509632 
L 392.364667 -112.764775 
L 404.297927 -113.560579 
L 416.231186 -113.774349 
L 428.164446 -113.585232 
L 440.097705 -112.912851 
L 452.030965 -112.250284 
L 463.964224 -112.06337 
L 475.897483 -112.326776 
L 487.830743 -112.476436 
L 499.764002 -112.539593 
L 511.697262 -112.791859 
L 523.630521 -112.811892 
L 535.56378 -112.783086 
L 547.49704 -112.965224 
L 559.430299 -113.423653 
L 571.363559 -112.995664 
L 583.296818 -105.435059 
L 583.296818 -109.505286 
L 583.296818 -109.505286 
L 571.363559 -119.173537 
L 559.430299 -119.779723 
L 547.49704 -119.231798 
L 535.56378 -118.857324 
L 523.630521 -118.813334 
L 511.697262 -118.605366 
L 499.764002 -118.125645 
L 487.830743 -117.969335 
L 475.897483 -117.718099 
L 463.964224 -117.328237 
L 452.030965 -117.373486 
L 440.097705 -117.932529 
L 428.164446 -118.585624 
L 416.231186 -118.755054 
L 404.297927 -118.545855 
L 392.364667 -117.659015 
L 380.431408 -117.326178 
L 368.498149 -117.393185 
L 356.564889 -117.72782 
L 344.63163 -117.263766 
L 332.69837 -116.389471 
L 320.765111 -114.499003 
L 308.831851 -112.453141 
L 296.898592 -110.960831 
L 284.965333 -110.048516 
L 273.032073 -108.553789 
L 261.098814 -107.168961 
L 249.165554 -105.646247 
L 237.232295 -104.642565 
L 225.299035 -104.776348 
L 213.365776 -105.600684 
L 201.432517 -106.778129 
L 189.499257 -109.33909 
L 177.565998 -111.885375 
L 165.632738 -110.448334 
L 153.699479 -107.875941 
L 141.76622 -105.549404 
L 129.83296 -102.115659 
L 117.899701 -98.577298 
L 105.966441 -98.569807 
L 94.033182 -96.076956 
z
" style="stroke: #6060eb; stroke-opacity: 0.1"/>
    </defs>
    <g clip-path="url(#pb131ef23c4)">
     <use xlink:href="#mee3fe58d46" x="0" y="432" style="fill: #6060eb; fill-opacity: 0.1; stroke: #6060eb; stroke-opacity: 0.1"/>
    </g>
   </g>
   <g id="PathCollection_2">
    <defs>
     <path id="m8527f2877f" d="M 0 -3 
L -0.673542 -0.927051 
L -2.85317 -0.927051 
L -1.089814 0.354102 
L -1.763356 2.427051 
L -0 1.145898 
L 1.763356 2.427051 
L 1.089814 0.354102 
L 2.85317 -0.927051 
L 0.673542 -0.927051 
z
" style="stroke: #6060eb"/>
    </defs>
    <g clip-path="url(#pb131ef23c4)">
     <use xlink:href="#m8527f2877f" x="213.365776" y="362.244545" style="fill: #6060eb; stroke: #6060eb"/>
     <use xlink:href="#m8527f2877f" x="225.299035" y="362.244545" style="fill: #6060eb; stroke: #6060eb"/>
     <use xlink:href="#m8527f2877f" x="237.232295" y="362.244545" style="fill: #6060eb; stroke: #6060eb"/>
     <use xlink:href="#m8527f2877f" x="249.165554" y="362.244545" style="fill: #6060eb; stroke: #6060eb"/>
     <use xlink:href="#m8527f2877f" x="261.098814" y="362.244545" style="fill: #6060eb; stroke: #6060eb"/>
     <use xlink:href="#m8527f2877f" x="273.032073" y="362.244545" style="fill: #6060eb; stroke: #6060eb"/>
     <use xlink:href="#m8527f2877f" x="284.965333" y="362.244545" style="fill: #6060eb; stroke: #6060eb"/>
     <use xlink:href="#m8527f2877f" x="296.898592" y="362.244545" style="fill: #6060eb; stroke: #6060eb"/>
     <use xlink:href="#m8527f2877f" x="308.831851" y="362.244545" style="fill: #6060eb; stroke: #6060eb"/>
     <use xlink:href="#m8527f2877f" x="320.765111" y="362.244545" style="fill: #6060eb; stroke: #6060eb"/>
     <use xlink:href="#m8527f2877f" x="332.69837" y="362.244545" style="fill: #6060eb; stroke: #6060eb"/>
     <use xlink:href="#m8527f2877f" x="344.63163" y="362.244545" style="fill: #6060eb; stroke: #6060eb"/>
     <use xlink:href="#m8527f2877f" x="356.564889" y="362.244545" style="fill: #6060eb; stroke: #6060eb"/>
     <use xlink:href="#m8527f2877f" x="368.498149" y="362.244545" style="fill: #6060eb; stroke: #6060eb"/>
     <use xlink:href="#m8527f2877f" x="380.431408" y="362.244545" style="fill: #6060eb; stroke: #6060eb"/>
     <use xlink:href="#m8527f2877f" x="392.364667" y="362.244545" style="fill: #6060eb; stroke: #6060eb"/>
     <use xlink:href="#m8527f2877f" x="404.297927" y="362.244545" style="fill: #6060eb; stroke: #6060eb"/>
     <use xlink:href="#m8527f2877f" x="416.231186" y="362.244545" style="fill: #6060eb; stroke: #6060eb"/>
     <use xlink:href="#m8527f2877f" x="428.164446" y="362.244545" style="fill: #6060eb; stroke: #6060eb"/>
     <use xlink:href="#m8527f2877f" x="440.097705" y="362.244545" style="fill: #6060eb; stroke: #6060eb"/>
     <use xlink:href="#m8527f2877f" x="452.030965" y="362.244545" style="fill: #6060eb; stroke: #6060eb"/>
     <use xlink:href="#m8527f2877f" x="463.964224" y="362.244545" style="fill: #6060eb; stroke: #6060eb"/>
     <use xlink:href="#m8527f2877f" x="475.897483" y="362.244545" style="fill: #6060eb; stroke: #6060eb"/>
     <use xlink:href="#m8527f2877f" x="487.830743" y="362.244545" style="fill: #6060eb; stroke: #6060eb"/>
     <use xlink:href="#m8527f2877f" x="499.764002" y="362.244545" style="fill: #6060eb; stroke: #6060eb"/>
     <use xlink:href="#m8527f2877f" x="511.697262" y="362.244545" style="fill: #6060eb; stroke: #6060eb"/>
     <use xlink:href="#m8527f2877f" x="523.630521" y="362.244545" style="fill: #6060eb; stroke: #6060eb"/>
     <use xlink:href="#m8527f2877f" x="535.56378" y="362.244545" style="fill: #6060eb; stroke: #6060eb"/>
     <use xlink:href="#m8527f2877f" x="547.49704" y="362.244545" style="fill: #6060eb; stroke: #6060eb"/>
     <use xlink:href="#m8527f2877f" x="559.430299" y="362.244545" style="fill: #6060eb; stroke: #6060eb"/>
     <use xlink:href="#m8527f2877f" x="571.363559" y="362.244545" style="fill: #6060eb; stroke: #6060eb"/>
     <use xlink:href="#m8527f2877f" x="583.296818" y="362.244545" style="fill: #6060eb; stroke: #6060eb"/>
    </g>
   </g>
   <g id="line2d_1">
    <path d="M 94.033182 339.537689 
L 105.966441 336.592087 
L 117.899701 341.664552 
L 129.83296 350.584234 
L 141.76622 354.270533 
L 153.699479 343.311037 
L 165.632738 342.878074 
L 177.565998 340.447568 
L 189.499257 322.729433 
L 201.432517 327.871159 
L 213.365776 345.388792 
L 225.299035 336.701302 
L 237.232295 314.18142 
L 249.165554 329.596725 
L 261.098814 336.795839 
L 273.032073 331.304439 
L 284.965333 332.525765 
L 296.898592 328.338553 
L 308.831851 313.572995 
L 320.765111 321.206872 
L 332.69837 311.17928 
L 344.63163 300.785942 
L 356.564889 304.272477 
L 368.498149 301.981294 
L 380.431408 287.739212 
L 392.364667 294.06121 
L 404.297927 306.99406 
L 416.231186 314.444761 
L 428.164446 320.193291 
L 440.097705 322.29801 
L 452.030965 321.421412 
L 463.964224 314.108816 
L 475.897483 308.028541 
L 487.830743 305.880022 
L 499.764002 304.298602 
L 511.697262 304.905628 
L 523.630521 303.647063 
L 535.56378 302.918919 
L 547.49704 301.56785 
L 559.430299 303.986879 
L 571.363559 303.959366 
L 583.296818 315.977483 
" clip-path="url(#pb131ef23c4)" style="fill: none; stroke: #00008b; stroke-width: 2; stroke-linecap: round"/>
   </g>
   <g id="line2d_2">
    <path d="M 94.033182 341.913805 
L 105.966441 340.796188 
L 117.899701 341.419181 
L 129.83296 339.380495 
L 141.76622 342.230242 
L 153.699479 344.712917 
L 165.632738 343.097111 
L 177.565998 338.651223 
L 189.499257 328.527235 
L 201.432517 323.697303 
L 213.365776 328.76611 
L 225.299035 324.941571 
L 237.232295 324.173203 
L 249.165554 326.82503 
L 261.098814 329.269279 
L 273.032073 332.57716 
L 284.965333 329.664288 
L 296.898592 329.498904 
L 308.831851 329.6997 
L 320.765111 326.208659 
L 332.69837 323.370025 
L 344.63163 325.170278 
L 356.564889 334.043463 
L 368.498149 332.663989 
L 380.431408 327.951597 
L 392.364667 327.958462 
L 404.297927 329.86335 
L 416.231186 328.268523 
L 428.164446 335.746693 
L 440.097705 339.141325 
L 452.030965 339.677851 
L 463.964224 339.341946 
L 475.897483 339.110617 
L 487.830743 339.074212 
L 499.764002 339.457347 
L 511.697262 339.500698 
L 523.630521 339.481782 
L 535.56378 339.422692 
L 547.49704 339.768842 
L 559.430299 339.482161 
L 571.363559 339.354208 
L 583.296818 340.169732 
" clip-path="url(#pb131ef23c4)" style="fill: none; stroke-dasharray: 7.4,3.2; stroke-dashoffset: 0; stroke: #00008b; stroke-width: 2"/>
   </g>
   <g id="line2d_3">
    <path d="M 129.83296 378.18 
L 129.83296 27.6 
" clip-path="url(#pb131ef23c4)" style="fill: none; stroke-dasharray: 5.55,2.4; stroke-dashoffset: 0; stroke: #1a1a1a; stroke-width: 1.5"/>
   </g>
   <g id="line2d_4">
    <path d="M 428.164446 378.18 
L 428.164446 27.6 
" clip-path="url(#pb131ef23c4)" style="fill: none; stroke-dasharray: 5.55,2.4; stroke-dashoffset: 0; stroke: #1a1a1a; stroke-width: 1.5"/>
   </g>
   <g id="line2d_5">
    <path d="M 94.033182 335.582109 
L 105.966441 332.001576 
L 117.899701 331.956682 
L 129.83296 335.558418 
L 141.76622 335.971155 
L 153.699479 333.984153 
L 165.632738 330.740094 
L 177.565998 326.62595 
L 189.499257 323.33336 
L 201.432517 320.190409 
L 213.365776 310.188323 
L 225.299035 298.230023 
L 237.232295 283.925106 
L 249.165554 267.924158 
L 261.098814 252.022399 
L 273.032073 235.479752 
L 284.965333 220.851828 
L 296.898592 209.663341 
L 308.831851 196.295378 
L 320.765111 182.263355 
L 332.69837 171.26408 
L 344.63163 161.678591 
L 356.564889 153.638094 
L 368.498149 145.359039 
L 380.431408 137.769225 
L 392.364667 132.985622 
L 404.297927 128.044665 
L 416.231186 123.475515 
L 428.164446 119.427982 
L 440.097705 121.133085 
L 452.030965 122.977306 
L 463.964224 119.426982 
L 475.897483 112.982761 
L 487.830743 104.822172 
L 499.764002 97.142986 
L 511.697262 91.629579 
L 523.630521 87.487026 
L 535.56378 84.516375 
L 547.49704 81.132776 
L 559.430299 77.876981 
L 571.363559 79.460964 
L 583.296818 167.541597 
" clip-path="url(#pb131ef23c4)" style="fill: none; stroke: #6060eb; stroke-width: 2; stroke-linecap: round"/>
   </g>
   <g id="line2d_6">
    <path d="M 94.033182 338.139046 
L 105.966441 335.738177 
L 117.899701 335.535336 
L 129.83296 331.936619 
L 141.76622 328.274836 
L 153.699479 325.909309 
L 165.632738 323.287996 
L 177.565998 321.886395 
L 189.499257 324.163412 
L 201.432517 326.440406 
L 213.365776 327.564187 
L 225.299035 328.389992 
L 237.232295 328.555099 
L 249.165554 327.647272 
L 261.098814 326.241653 
L 273.032073 324.959969 
L 284.965333 323.609035 
L 296.898592 322.782903 
L 308.831851 321.449234 
L 320.765111 319.584003 
L 332.69837 317.84799 
L 344.63163 317.043589 
L 356.564889 316.655056 
L 368.498149 317.016213 
L 380.431408 317.082095 
L 392.364667 316.788105 
L 404.297927 315.946783 
L 416.231186 315.735298 
L 428.164446 315.914572 
L 440.097705 316.57731 
L 452.030965 317.188115 
L 463.964224 317.304197 
L 475.897483 316.977563 
L 487.830743 316.777115 
L 499.764002 316.667381 
L 511.697262 316.301387 
L 523.630521 316.187387 
L 535.56378 316.179795 
L 547.49704 315.901489 
L 559.430299 315.398312 
L 571.363559 315.915399 
L 583.296818 324.529827 
" clip-path="url(#pb131ef23c4)" style="fill: none; stroke-dasharray: 7.4,3.2; stroke-dashoffset: 0; stroke: #6060eb; stroke-width: 2"/>
   </g>
   <g id="line2d_7">
    <path d="M 129.83296 378.18 
L 129.83296 27.6 
" clip-path="url(#pb131ef23c4)" style="fill: none; stroke-dasharray: 5.55,2.4; stroke-dashoffset: 0; stroke: #1a1a1a; stroke-width: 1.5"/>
   </g>
   <g id="line2d_8">
    <path d="M 428.164446 378.18 
L 428.164446 27.6 
" clip-path="url(#pb131ef23c4)" style="fill: none; stroke-dasharray: 5.55,2.4; stroke-dashoffset: 0; stroke: #1a1a1a; stroke-width: 1.5"/>
   </g>
   <g id="patch_3">
    <path d="M 69.57 378.18 
L 69.57 27.6 
" style="fill: none; stroke: #cccccc; stroke-width: 1.5; stroke-linejoin: miter; stroke-linecap: square"/>
   </g>
   <g id="patch_4">
    <path d="M 69.57 378.18 
L 607.76 378.18 
" style="fill: none; stroke: #cccccc; stroke-width: 1.5; stroke-linejoin: miter; stroke-linecap: square"/>
   </g>
   <g id="text_16">
    <!-- Divergence Comparison: Original vs Shuffled -->
    <g style="fill: #262626" transform="translate(219.055 21.6) scale(0.12 -0.12)">
     <defs>
      <path id="ArialMT-43" d="M 3763 1606 
L 4369 1453 
Q 4178 706 3683 314 
Q 3188 -78 2472 -78 
Q 1731 -78 1267 223 
Q 803 525 561 1097 
Q 319 1669 319 2325 
Q 319 3041 592 3573 
Q 866 4106 1370 4382 
Q 1875 4659 2481 4659 
Q 3169 4659 3637 4309 
Q 4106 3959 4291 3325 
L 3694 3184 
Q 3534 3684 3231 3912 
Q 2928 4141 2469 4141 
Q 1941 4141 1586 3887 
Q 1231 3634 1087 3207 
Q 944 2781 944 2328 
Q 944 1744 1114 1308 
Q 1284 872 1643 656 
Q 2003 441 2422 441 
Q 2931 441 3284 734 
Q 3638 1028 3763 1606 
z
" transform="scale(0.015625)"/>
      <path id="ArialMT-6f" d="M 213 1659 
Q 213 2581 725 3025 
Q 1153 3394 1769 3394 
Q 2453 3394 2887 2945 
Q 3322 2497 3322 1706 
Q 3322 1066 3130 698 
Q 2938 331 2570 128 
Q 2203 -75 1769 -75 
Q 1072 -75 642 372 
Q 213 819 213 1659 
z
M 791 1659 
Q 791 1022 1069 705 
Q 1347 388 1769 388 
Q 2188 388 2466 706 
Q 2744 1025 2744 1678 
Q 2744 2294 2464 2611 
Q 2184 2928 1769 2928 
Q 1347 2928 1069 2612 
Q 791 2297 791 1659 
z
" transform="scale(0.015625)"/>
      <path id="ArialMT-70" d="M 422 -1272 
L 422 3319 
L 934 3319 
L 934 2888 
Q 1116 3141 1344 3267 
Q 1572 3394 1897 3394 
Q 2322 3394 2647 3175 
Q 2972 2956 3137 2557 
Q 3303 2159 3303 1684 
Q 3303 1175 3120 767 
Q 2938 359 2589 142 
Q 2241 -75 1856 -75 
Q 1575 -75 1351 44 
Q 1128 163 984 344 
L 984 -1272 
L 422 -1272 
z
M 931 1641 
Q 931 1000 1190 694 
Q 1450 388 1819 388 
Q 2194 388 2461 705 
Q 2728 1022 2728 1688 
Q 2728 2322 2467 2637 
Q 2206 2953 1844 2953 
Q 1484 2953 1207 2617 
Q 931 2281 931 1641 
z
" transform="scale(0.015625)"/>
      <path id="ArialMT-61" d="M 2588 409 
Q 2275 144 1986 34 
Q 1697 -75 1366 -75 
Q 819 -75 525 192 
Q 231 459 231 875 
Q 231 1119 342 1320 
Q 453 1522 633 1644 
Q 813 1766 1038 1828 
Q 1203 1872 1538 1913 
Q 2219 1994 2541 2106 
Q 2544 2222 2544 2253 
Q 2544 2597 2384 2738 
Q 2169 2928 1744 2928 
Q 1347 2928 1158 2789 
Q 969 2650 878 2297 
L 328 2372 
Q 403 2725 575 2942 
Q 747 3159 1072 3276 
Q 1397 3394 1825 3394 
Q 2250 3394 2515 3294 
Q 2781 3194 2906 3042 
Q 3031 2891 3081 2659 
Q 3109 2516 3109 2141 
L 3109 1391 
Q 3109 606 3145 398 
Q 3181 191 3288 0 
L 2700 0 
Q 2613 175 2588 409 
z
M 2541 1666 
Q 2234 1541 1622 1453 
Q 1275 1403 1131 1340 
Q 988 1278 909 1158 
Q 831 1038 831 891 
Q 831 666 1001 516 
Q 1172 366 1500 366 
Q 1825 366 2078 508 
Q 2331 650 2450 897 
Q 2541 1088 2541 1459 
L 2541 1666 
z
" transform="scale(0.015625)"/>
      <path id="ArialMT-3a" d="M 578 2678 
L 578 3319 
L 1219 3319 
L 1219 2678 
L 578 2678 
z
M 578 0 
L 578 641 
L 1219 641 
L 1219 0 
L 578 0 
z
" transform="scale(0.015625)"/>
      <path id="ArialMT-4f" d="M 309 2231 
Q 309 3372 921 4017 
Q 1534 4663 2503 4663 
Q 3138 4663 3647 4359 
Q 4156 4056 4423 3514 
Q 4691 2972 4691 2284 
Q 4691 1588 4409 1038 
Q 4128 488 3612 205 
Q 3097 -78 2500 -78 
Q 1853 -78 1343 234 
Q 834 547 571 1087 
Q 309 1628 309 2231 
z
M 934 2222 
Q 934 1394 1379 917 
Q 1825 441 2497 441 
Q 3181 441 3623 922 
Q 4066 1403 4066 2288 
Q 4066 2847 3877 3264 
Q 3688 3681 3323 3911 
Q 2959 4141 2506 4141 
Q 1863 4141 1398 3698 
Q 934 3256 934 2222 
z
" transform="scale(0.015625)"/>
      <path id="ArialMT-6c" d="M 409 0 
L 409 4581 
L 972 4581 
L 972 0 
L 409 0 
z
" transform="scale(0.015625)"/>
      <path id="ArialMT-53" d="M 288 1472 
L 859 1522 
Q 900 1178 1048 958 
Q 1197 738 1509 602 
Q 1822 466 2213 466 
Q 2559 466 2825 569 
Q 3091 672 3220 851 
Q 3350 1031 3350 1244 
Q 3350 1459 3225 1620 
Q 3100 1781 2813 1891 
Q 2628 1963 1997 2114 
Q 1366 2266 1113 2400 
Q 784 2572 623 2826 
Q 463 3081 463 3397 
Q 463 3744 659 4045 
Q 856 4347 1234 4503 
Q 1613 4659 2075 4659 
Q 2584 4659 2973 4495 
Q 3363 4331 3572 4012 
Q 3781 3694 3797 3291 
L 3216 3247 
Q 3169 3681 2898 3903 
Q 2628 4125 2100 4125 
Q 1550 4125 1298 3923 
Q 1047 3722 1047 3438 
Q 1047 3191 1225 3031 
Q 1400 2872 2139 2705 
Q 2878 2538 3153 2413 
Q 3553 2228 3743 1945 
Q 3934 1663 3934 1294 
Q 3934 928 3725 604 
Q 3516 281 3123 101 
Q 2731 -78 2241 -78 
Q 1619 -78 1198 103 
Q 778 284 539 648 
Q 300 1013 288 1472 
z
" transform="scale(0.015625)"/>
      <path id="ArialMT-68" d="M 422 0 
L 422 4581 
L 984 4581 
L 984 2938 
Q 1378 3394 1978 3394 
Q 2347 3394 2619 3248 
Q 2891 3103 3008 2847 
Q 3125 2591 3125 2103 
L 3125 0 
L 2563 0 
L 2563 2103 
Q 2563 2525 2380 2717 
Q 2197 2909 1863 2909 
Q 1613 2909 1392 2779 
Q 1172 2650 1078 2428 
Q 984 2206 984 1816 
L 984 0 
L 422 0 
z
" transform="scale(0.015625)"/>
      <path id="ArialMT-75" d="M 2597 0 
L 2597 488 
Q 2209 -75 1544 -75 
Q 1250 -75 995 37 
Q 741 150 617 320 
Q 494 491 444 738 
Q 409 903 409 1263 
L 409 3319 
L 972 3319 
L 972 1478 
Q 972 1038 1006 884 
Q 1059 663 1231 536 
Q 1403 409 1656 409 
Q 1909 409 2131 539 
Q 2353 669 2445 892 
Q 2538 1116 2538 1541 
L 2538 3319 
L 3100 3319 
L 3100 0 
L 2597 0 
z
" transform="scale(0.015625)"/>
      <path id="ArialMT-66" d="M 556 0 
L 556 2881 
L 59 2881 
L 59 3319 
L 556 3319 
L 556 3672 
Q 556 4006 616 4169 
Q 697 4388 901 4523 
Q 1106 4659 1475 4659 
Q 1713 4659 2000 4603 
L 1916 4113 
Q 1741 4144 1584 4144 
Q 1328 4144 1222 4034 
Q 1116 3925 1116 3625 
L 1116 3319 
L 1763 3319 
L 1763 2881 
L 1116 2881 
L 1116 0 
L 556 0 
z
" transform="scale(0.015625)"/>
      <path id="ArialMT-64" d="M 2575 0 
L 2575 419 
Q 2259 -75 1647 -75 
Q 1250 -75 917 144 
Q 584 363 401 755 
Q 219 1147 219 1656 
Q 219 2153 384 2558 
Q 550 2963 881 3178 
Q 1213 3394 1622 3394 
Q 1922 3394 2156 3267 
Q 2391 3141 2538 2938 
L 2538 4581 
L 3097 4581 
L 3097 0 
L 2575 0 
z
M 797 1656 
Q 797 1019 1065 703 
Q 1334 388 1700 388 
Q 2069 388 2326 689 
Q 2584 991 2584 1609 
Q 2584 2291 2321 2609 
Q 2059 2928 1675 2928 
Q 1300 2928 1048 2622 
Q 797 2316 797 1656 
z
" transform="scale(0.015625)"/>
     </defs>
     <use xlink:href="#ArialMT-44"/>
     <use xlink:href="#ArialMT-69" x="72.216797"/>
     <use xlink:href="#ArialMT-76" x="94.433594"/>
     <use xlink:href="#ArialMT-65" x="144.433594"/>
     <use xlink:href="#ArialMT-72" x="200.048828"/>
     <use xlink:href="#ArialMT-67" x="233.349609"/>
     <use xlink:href="#ArialMT-65" x="288.964844"/>
     <use xlink:href="#ArialMT-6e" x="344.580078"/>
     <use xlink:href="#ArialMT-63" x="400.195312"/>
     <use xlink:href="#ArialMT-65" x="450.195312"/>
     <use xlink:href="#ArialMT-20" x="505.810547"/>
     <use xlink:href="#ArialMT-43" x="533.59375"/>
     <use xlink:href="#ArialMT-6f" x="605.810547"/>
     <use xlink:href="#ArialMT-6d" x="661.425781"/>
     <use xlink:href="#ArialMT-70" x="744.726562"/>
     <use xlink:href="#ArialMT-61" x="800.341797"/>
     <use xlink:href="#ArialMT-72" x="855.957031"/>
     <use xlink:href="#ArialMT-69" x="889.257812"/>
     <use xlink:href="#ArialMT-73" x="911.474609"/>
     <use xlink:href="#ArialMT-6f" x="961.474609"/>
     <use xlink:href="#ArialMT-6e" x="1017.089844"/>
     <use xlink:href="#ArialMT-3a" x="1072.705078"/>
     <use xlink:href="#ArialMT-20" x="1100.488281"/>
     <use xlink:href="#ArialMT-4f" x="1128.271484"/>
     <use xlink:href="#ArialMT-72" x="1206.054688"/>
     <use xlink:href="#ArialMT-69" x="1239.355469"/>
     <use xlink:href="#ArialMT-67" x="1261.572266"/>
     <use xlink:href="#ArialMT-69" x="1317.1875"/>
     <use xlink:href="#ArialMT-6e" x="1339.404297"/>
     <use xlink:href="#ArialMT-61" x="1395.019531"/>
     <use xlink:href="#ArialMT-6c" x="1450.634766"/>
     <use xlink:href="#ArialMT-20" x="1472.851562"/>
     <use xlink:href="#ArialMT-76" x="1500.634766"/>
     <use xlink:href="#ArialMT-73" x="1550.634766"/>
     <use xlink:href="#ArialMT-20" x="1600.634766"/>
     <use xlink:href="#ArialMT-53" x="1628.417969"/>
     <use xlink:href="#ArialMT-68" x="1695.117188"/>
     <use xlink:href="#ArialMT-75" x="1750.732422"/>
     <use xlink:href="#ArialMT-66" x="1806.347656"/>
     <use xlink:href="#ArialMT-66" x="1832.380859"/>
     <use xlink:href="#ArialMT-6c" x="1860.164062"/>
     <use xlink:href="#ArialMT-65" x="1882.380859"/>
     <use xlink:href="#ArialMT-64" x="1937.996094"/>
    </g>
   </g>
   <g id="legend_1">
    <g id="patch_5">
     <path d="M 615.46 259.555469 
L 705.061875 259.555469 
Q 707.261875 259.555469 707.261875 257.355469 
L 707.261875 148.424531 
Q 707.261875 146.224531 705.061875 146.224531 
L 615.46 146.224531 
Q 613.26 146.224531 613.26 148.424531 
L 613.26 257.355469 
Q 613.26 259.555469 615.46 259.555469 
z
" style="fill: #ffffff; opacity: 0.8; stroke: #cccccc; stroke-linejoin: miter"/>
    </g>
    <g id="line2d_9">
     <path d="M 617.66 154.789062 
L 628.66 154.789062 
L 639.66 154.789062 
" style="fill: none; stroke: #00008b; stroke-width: 2; stroke-linecap: round"/>
    </g>
    <g id="text_17">
     <!-- Original -->
     <g style="fill: #262626" transform="translate(648.46 158.639062) scale(0.11 -0.11)">
      <use xlink:href="#ArialMT-4f"/>
      <use xlink:href="#ArialMT-72" x="77.783203"/>
      <use xlink:href="#ArialMT-69" x="111.083984"/>
      <use xlink:href="#ArialMT-67" x="133.300781"/>
      <use xlink:href="#ArialMT-69" x="188.916016"/>
      <use xlink:href="#ArialMT-6e" x="211.132812"/>
      <use xlink:href="#ArialMT-61" x="266.748047"/>
      <use xlink:href="#ArialMT-6c" x="322.363281"/>
     </g>
    </g>
    <g id="line2d_10">
     <path d="M 617.66 170.61875 
L 628.66 170.61875 
L 639.66 170.61875 
" style="fill: none; stroke-dasharray: 7.4,3.2; stroke-dashoffset: 0; stroke: #00008b; stroke-width: 2"/>
    </g>
    <g id="text_18">
     <!-- Original -->
     <g style="fill: #262626" transform="translate(648.46 174.46875) scale(0.11 -0.11)">
      <use xlink:href="#ArialMT-4f"/>
      <use xlink:href="#ArialMT-72" x="77.783203"/>
      <use xlink:href="#ArialMT-69" x="111.083984"/>
      <use xlink:href="#ArialMT-67" x="133.300781"/>
      <use xlink:href="#ArialMT-69" x="188.916016"/>
      <use xlink:href="#ArialMT-6e" x="211.132812"/>
      <use xlink:href="#ArialMT-61" x="266.748047"/>
      <use xlink:href="#ArialMT-6c" x="322.363281"/>
     </g>
    </g>
    <g id="PathCollection_3">
     <g>
      <use xlink:href="#mb934d4a88d" x="628.66" y="187.302656" style="fill: #00008b; stroke: #00008b"/>
     </g>
    </g>
    <g id="text_19">
     <!-- p &lt; 0.001 -->
     <g style="fill: #262626" transform="translate(648.46 190.190156) scale(0.11 -0.11)">
      <defs>
       <path id="ArialMT-3c" d="M 350 2003 
L 350 2528 
L 3384 3809 
L 3384 3250 
L 978 2263 
L 3384 1266 
L 3384 706 
L 350 2003 
z
" transform="scale(0.015625)"/>
      </defs>
      <use xlink:href="#ArialMT-70"/>
      <use xlink:href="#ArialMT-20" x="55.615234"/>
      <use xlink:href="#ArialMT-3c" x="83.398438"/>
      <use xlink:href="#ArialMT-20" x="141.796875"/>
      <use xlink:href="#ArialMT-30" x="169.580078"/>
      <use xlink:href="#ArialMT-2e" x="225.195312"/>
      <use xlink:href="#ArialMT-30" x="252.978516"/>
      <use xlink:href="#ArialMT-30" x="308.59375"/>
      <use xlink:href="#ArialMT-31" x="364.208984"/>
     </g>
    </g>
    <g id="line2d_11">
     <path d="M 617.66 201.9 
L 628.66 201.9 
L 639.66 201.9 
" style="fill: none; stroke-dasharray: 5.55,2.4; stroke-dashoffset: 0; stroke: #1a1a1a; stroke-width: 1.5"/>
    </g>
    <g id="text_20">
     <!-- Stim Onset -->
     <g style="fill: #262626" transform="translate(648.46 205.75) scale(0.11 -0.11)">
      <defs>
       <path id="ArialMT-74" d="M 1650 503 
L 1731 6 
Q 1494 -44 1306 -44 
Q 1000 -44 831 53 
Q 663 150 594 308 
Q 525 466 525 972 
L 525 2881 
L 113 2881 
L 113 3319 
L 525 3319 
L 525 4141 
L 1084 4478 
L 1084 3319 
L 1650 3319 
L 1650 2881 
L 1084 2881 
L 1084 941 
Q 1084 700 1114 631 
Q 1144 563 1211 522 
Q 1278 481 1403 481 
Q 1497 481 1650 503 
z
" transform="scale(0.015625)"/>
      </defs>
      <use xlink:href="#ArialMT-53"/>
      <use xlink:href="#ArialMT-74" x="66.699219"/>
      <use xlink:href="#ArialMT-69" x="94.482422"/>
      <use xlink:href="#ArialMT-6d" x="116.699219"/>
      <use xlink:href="#ArialMT-20" x="200"/>
      <use xlink:href="#ArialMT-4f" x="227.783203"/>
      <use xlink:href="#ArialMT-6e" x="305.566406"/>
      <use xlink:href="#ArialMT-73" x="361.181641"/>
      <use xlink:href="#ArialMT-65" x="411.181641"/>
      <use xlink:href="#ArialMT-74" x="466.796875"/>
     </g>
    </g>
    <g id="line2d_12">
     <path d="M 617.66 217.459844 
L 628.66 217.459844 
L 639.66 217.459844 
" style="fill: none; stroke-dasharray: 5.55,2.4; stroke-dashoffset: 0; stroke: #1a1a1a; stroke-width: 1.5"/>
    </g>
    <g id="text_21">
     <!-- Stim End -->
     <g style="fill: #262626" transform="translate(648.46 221.309844) scale(0.11 -0.11)">
      <defs>
       <path id="ArialMT-45" d="M 506 0 
L 506 4581 
L 3819 4581 
L 3819 4041 
L 1113 4041 
L 1113 2638 
L 3647 2638 
L 3647 2100 
L 1113 2100 
L 1113 541 
L 3925 541 
L 3925 0 
L 506 0 
z
" transform="scale(0.015625)"/>
      </defs>
      <use xlink:href="#ArialMT-53"/>
      <use xlink:href="#ArialMT-74" x="66.699219"/>
      <use xlink:href="#ArialMT-69" x="94.482422"/>
      <use xlink:href="#ArialMT-6d" x="116.699219"/>
      <use xlink:href="#ArialMT-20" x="200"/>
      <use xlink:href="#ArialMT-45" x="227.783203"/>
      <use xlink:href="#ArialMT-6e" x="294.482422"/>
      <use xlink:href="#ArialMT-64" x="350.097656"/>
     </g>
    </g>
    <g id="line2d_13">
     <path d="M 617.66 233.160625 
L 628.66 233.160625 
L 639.66 233.160625 
" style="fill: none; stroke: #6060eb; stroke-width: 2; stroke-linecap: round"/>
    </g>
    <g id="text_22">
     <!-- Original -->
     <g style="fill: #262626" transform="translate(648.46 237.010625) scale(0.11 -0.11)">
      <use xlink:href="#ArialMT-4f"/>
      <use xlink:href="#ArialMT-72" x="77.783203"/>
      <use xlink:href="#ArialMT-69" x="111.083984"/>
      <use xlink:href="#ArialMT-67" x="133.300781"/>
      <use xlink:href="#ArialMT-69" x="188.916016"/>
      <use xlink:href="#ArialMT-6e" x="211.132812"/>
      <use xlink:href="#ArialMT-61" x="266.748047"/>
      <use xlink:href="#ArialMT-6c" x="322.363281"/>
     </g>
    </g>
    <g id="line2d_14">
     <path d="M 617.66 248.990312 
L 628.66 248.990312 
L 639.66 248.990312 
" style="fill: none; stroke-dasharray: 7.4,3.2; stroke-dashoffset: 0; stroke: #6060eb; stroke-width: 2"/>
    </g>
    <g id="text_23">
     <!-- Original -->
     <g style="fill: #262626" transform="translate(648.46 252.840312) scale(0.11 -0.11)">
      <use xlink:href="#ArialMT-4f"/>
      <use xlink:href="#ArialMT-72" x="77.783203"/>
      <use xlink:href="#ArialMT-69" x="111.083984"/>
      <use xlink:href="#ArialMT-67" x="133.300781"/>
      <use xlink:href="#ArialMT-69" x="188.916016"/>
      <use xlink:href="#ArialMT-6e" x="211.132812"/>
      <use xlink:href="#ArialMT-61" x="266.748047"/>
      <use xlink:href="#ArialMT-6c" x="322.363281"/>
     </g>
    </g>
   </g>
  </g>
 </g>
 <defs>
  <clipPath id="pb131ef23c4">
   <rect x="69.57" y="27.6" width="538.19" height="350.58"/>
  </clipPath>
 </defs>
</svg>
