<?xml version="1.0" encoding="utf-8" standalone="no"?>
<!DOCTYPE svg PUBLIC "-//W3C//DTD SVG 1.1//EN"
  "http://www.w3.org/Graphics/SVG/1.1/DTD/svg11.dtd">
<svg xmlns:xlink="http://www.w3.org/1999/xlink" width="720pt" height="432pt" viewBox="0 0 720 432" xmlns="http://www.w3.org/2000/svg" version="1.1">
 <metadata>
  <rdf:RDF xmlns:dc="http://purl.org/dc/elements/1.1/" xmlns:cc="http://creativecommons.org/ns#" xmlns:rdf="http://www.w3.org/1999/02/22-rdf-syntax-ns#">
   <cc:Work>
    <dc:type rdf:resource="http://purl.org/dc/dcmitype/StillImage"/>
    <dc:date>2025-09-21T18:37:33.917209</dc:date>
    <dc:format>image/svg+xml</dc:format>
    <dc:creator>
     <cc:Agent>
      <dc:title>Matplotlib v3.9.4, https://matplotlib.org/</dc:title>
     </cc:Agent>
    </dc:creator>
   </cc:Work>
  </rdf:RDF>
 </metadata>
 <defs>
  <style type="text/css">*{stroke-linejoin: round; stroke-linecap: butt}</style>
 </defs>
 <g id="figure_1">
  <g id="patch_1">
   <path d="M 0 432 
L 720 432 
L 720 0 
L 0 0 
z
" style="fill: #ffffff"/>
  </g>
  <g id="axes_1">
   <g id="patch_2">
    <path d="M 61.335 377.54 
L 607.44 377.54 
L 607.44 26.96 
L 61.335 26.96 
L 61.335 377.54 
z
" style="fill: none"/>
   </g>
   <g id="matplotlib.axis_1">
    <g id="xtick_1">
     <g id="text_1">
      <!-- −500 -->
      <g style="fill: #262626" transform="translate(64.300786 397.776719) scale(0.15 -0.15)">
       <defs>
        <path id="ArialMT-2212" d="M 3381 1997 
L 356 1997 
L 356 2522 
L 3381 2522 
L 3381 1997 
z
" transform="scale(0.015625)"/>
        <path id="ArialMT-35" d="M 266 1200 
L 856 1250 
Q 922 819 1161 601 
Q 1400 384 1738 384 
Q 2144 384 2425 690 
Q 2706 997 2706 1503 
Q 2706 1984 2436 2262 
Q 2166 2541 1728 2541 
Q 1456 2541 1237 2417 
Q 1019 2294 894 2097 
L 366 2166 
L 809 4519 
L 3088 4519 
L 3088 3981 
L 1259 3981 
L 1013 2750 
Q 1425 3038 1878 3038 
Q 2478 3038 2890 2622 
Q 3303 2206 3303 1553 
Q 3303 931 2941 478 
Q 2500 -78 1738 -78 
Q 1113 -78 717 272 
Q 322 622 266 1200 
z
" transform="scale(0.015625)"/>
        <path id="ArialMT-30" d="M 266 2259 
Q 266 3072 433 3567 
Q 600 4063 929 4331 
Q 1259 4600 1759 4600 
Q 2128 4600 2406 4451 
Q 2684 4303 2865 4023 
Q 3047 3744 3150 3342 
Q 3253 2941 3253 2259 
Q 3253 1453 3087 958 
Q 2922 463 2592 192 
Q 2263 -78 1759 -78 
Q 1097 -78 719 397 
Q 266 969 266 2259 
z
M 844 2259 
Q 844 1131 1108 757 
Q 1372 384 1759 384 
Q 2147 384 2411 759 
Q 2675 1134 2675 2259 
Q 2675 3391 2411 3762 
Q 2147 4134 1753 4134 
Q 1366 4134 1134 3806 
Q 844 3388 844 2259 
z
" transform="scale(0.015625)"/>
       </defs>
       <use xlink:href="#ArialMT-2212"/>
       <use xlink:href="#ArialMT-35" x="58.398438"/>
       <use xlink:href="#ArialMT-30" x="114.013672"/>
       <use xlink:href="#ArialMT-30" x="169.628906"/>
      </g>
     </g>
    </g>
    <g id="xtick_2">
     <g id="text_2">
      <!-- −250 -->
      <g style="fill: #262626" transform="translate(126.358172 397.776719) scale(0.15 -0.15)">
       <defs>
        <path id="ArialMT-32" d="M 3222 541 
L 3222 0 
L 194 0 
Q 188 203 259 391 
Q 375 700 629 1000 
Q 884 1300 1366 1694 
Q 2113 2306 2375 2664 
Q 2638 3022 2638 3341 
Q 2638 3675 2398 3904 
Q 2159 4134 1775 4134 
Q 1369 4134 1125 3890 
Q 881 3647 878 3216 
L 300 3275 
Q 359 3922 746 4261 
Q 1134 4600 1788 4600 
Q 2447 4600 2831 4234 
Q 3216 3869 3216 3328 
Q 3216 3053 3103 2787 
Q 2991 2522 2730 2228 
Q 2469 1934 1863 1422 
Q 1356 997 1212 845 
Q 1069 694 975 541 
L 3222 541 
z
" transform="scale(0.015625)"/>
       </defs>
       <use xlink:href="#ArialMT-2212"/>
       <use xlink:href="#ArialMT-32" x="58.398438"/>
       <use xlink:href="#ArialMT-35" x="114.013672"/>
       <use xlink:href="#ArialMT-30" x="169.628906"/>
      </g>
     </g>
    </g>
    <g id="xtick_3">
     <g id="text_3">
      <!-- 0 -->
      <g style="fill: #262626" transform="translate(201.137433 397.776719) scale(0.15 -0.15)">
       <use xlink:href="#ArialMT-30"/>
      </g>
     </g>
    </g>
    <g id="xtick_4">
     <g id="text_4">
      <!-- 250 -->
      <g style="fill: #262626" transform="translate(254.853413 397.776719) scale(0.15 -0.15)">
       <use xlink:href="#ArialMT-32"/>
       <use xlink:href="#ArialMT-35" x="55.615234"/>
       <use xlink:href="#ArialMT-30" x="111.230469"/>
      </g>
     </g>
    </g>
    <g id="xtick_5">
     <g id="text_5">
      <!-- 500 -->
      <g style="fill: #262626" transform="translate(316.9108 397.776719) scale(0.15 -0.15)">
       <use xlink:href="#ArialMT-35"/>
       <use xlink:href="#ArialMT-30" x="55.615234"/>
       <use xlink:href="#ArialMT-30" x="111.230469"/>
      </g>
     </g>
    </g>
    <g id="xtick_6">
     <g id="text_6">
      <!-- 750 -->
      <g style="fill: #262626" transform="translate(378.968186 397.776719) scale(0.15 -0.15)">
       <defs>
        <path id="ArialMT-37" d="M 303 3981 
L 303 4522 
L 3269 4522 
L 3269 4084 
Q 2831 3619 2401 2847 
Q 1972 2075 1738 1259 
Q 1569 684 1522 0 
L 944 0 
Q 953 541 1156 1306 
Q 1359 2072 1739 2783 
Q 2119 3494 2547 3981 
L 303 3981 
z
" transform="scale(0.015625)"/>
       </defs>
       <use xlink:href="#ArialMT-37"/>
       <use xlink:href="#ArialMT-35" x="55.615234"/>
       <use xlink:href="#ArialMT-30" x="111.230469"/>
      </g>
     </g>
    </g>
    <g id="xtick_7">
     <g id="text_7">
      <!-- 1000 -->
      <g style="fill: #262626" transform="translate(436.854869 397.776719) scale(0.15 -0.15)">
       <defs>
        <path id="ArialMT-31" d="M 2384 0 
L 1822 0 
L 1822 3584 
Q 1619 3391 1289 3197 
Q 959 3003 697 2906 
L 697 3450 
Q 1169 3672 1522 3987 
Q 1875 4303 2022 4600 
L 2384 4600 
L 2384 0 
z
" transform="scale(0.015625)"/>
       </defs>
       <use xlink:href="#ArialMT-31"/>
       <use xlink:href="#ArialMT-30" x="55.615234"/>
       <use xlink:href="#ArialMT-30" x="111.230469"/>
       <use xlink:href="#ArialMT-30" x="166.845703"/>
      </g>
     </g>
    </g>
    <g id="xtick_8">
     <g id="text_8">
      <!-- 1250 -->
      <g style="fill: #262626" transform="translate(498.912256 397.776719) scale(0.15 -0.15)">
       <use xlink:href="#ArialMT-31"/>
       <use xlink:href="#ArialMT-32" x="55.615234"/>
       <use xlink:href="#ArialMT-35" x="111.230469"/>
       <use xlink:href="#ArialMT-30" x="166.845703"/>
      </g>
     </g>
    </g>
    <g id="xtick_9">
     <g id="text_9">
      <!-- 1500 -->
      <g style="fill: #262626" transform="translate(560.969642 397.776719) scale(0.15 -0.15)">
       <use xlink:href="#ArialMT-31"/>
       <use xlink:href="#ArialMT-35" x="55.615234"/>
       <use xlink:href="#ArialMT-30" x="111.230469"/>
       <use xlink:href="#ArialMT-30" x="166.845703"/>
      </g>
     </g>
    </g>
    <g id="text_10">
     <!-- Time (s) -->
     <g style="fill: #262626" transform="translate(307.175391 415.6775) scale(0.15 -0.15)">
      <defs>
       <path id="ArialMT-54" d="M 1659 0 
L 1659 4041 
L 150 4041 
L 150 4581 
L 3781 4581 
L 3781 4041 
L 2266 4041 
L 2266 0 
L 1659 0 
z
" transform="scale(0.015625)"/>
       <path id="ArialMT-69" d="M 425 3934 
L 425 4581 
L 988 4581 
L 988 3934 
L 425 3934 
z
M 425 0 
L 425 3319 
L 988 3319 
L 988 0 
L 425 0 
z
" transform="scale(0.015625)"/>
       <path id="ArialMT-6d" d="M 422 0 
L 422 3319 
L 925 3319 
L 925 2853 
Q 1081 3097 1340 3245 
Q 1600 3394 1931 3394 
Q 2300 3394 2536 3241 
Q 2772 3088 2869 2813 
Q 3263 3394 3894 3394 
Q 4388 3394 4653 3120 
Q 4919 2847 4919 2278 
L 4919 0 
L 4359 0 
L 4359 2091 
Q 4359 2428 4304 2576 
Q 4250 2725 4106 2815 
Q 3963 2906 3769 2906 
Q 3419 2906 3187 2673 
Q 2956 2441 2956 1928 
L 2956 0 
L 2394 0 
L 2394 2156 
Q 2394 2531 2256 2718 
Q 2119 2906 1806 2906 
Q 1569 2906 1367 2781 
Q 1166 2656 1075 2415 
Q 984 2175 984 1722 
L 984 0 
L 422 0 
z
" transform="scale(0.015625)"/>
       <path id="ArialMT-65" d="M 2694 1069 
L 3275 997 
Q 3138 488 2766 206 
Q 2394 -75 1816 -75 
Q 1088 -75 661 373 
Q 234 822 234 1631 
Q 234 2469 665 2931 
Q 1097 3394 1784 3394 
Q 2450 3394 2872 2941 
Q 3294 2488 3294 1666 
Q 3294 1616 3291 1516 
L 816 1516 
Q 847 969 1125 678 
Q 1403 388 1819 388 
Q 2128 388 2347 550 
Q 2566 713 2694 1069 
z
M 847 1978 
L 2700 1978 
Q 2663 2397 2488 2606 
Q 2219 2931 1791 2931 
Q 1403 2931 1139 2672 
Q 875 2413 847 1978 
z
" transform="scale(0.015625)"/>
       <path id="ArialMT-20" transform="scale(0.015625)"/>
       <path id="ArialMT-28" d="M 1497 -1347 
Q 1031 -759 709 28 
Q 388 816 388 1659 
Q 388 2403 628 3084 
Q 909 3875 1497 4659 
L 1900 4659 
Q 1522 4009 1400 3731 
Q 1209 3300 1100 2831 
Q 966 2247 966 1656 
Q 966 153 1900 -1347 
L 1497 -1347 
z
" transform="scale(0.015625)"/>
       <path id="ArialMT-73" d="M 197 991 
L 753 1078 
Q 800 744 1014 566 
Q 1228 388 1613 388 
Q 2000 388 2187 545 
Q 2375 703 2375 916 
Q 2375 1106 2209 1216 
Q 2094 1291 1634 1406 
Q 1016 1563 777 1677 
Q 538 1791 414 1992 
Q 291 2194 291 2438 
Q 291 2659 392 2848 
Q 494 3038 669 3163 
Q 800 3259 1026 3326 
Q 1253 3394 1513 3394 
Q 1903 3394 2198 3281 
Q 2494 3169 2634 2976 
Q 2775 2784 2828 2463 
L 2278 2388 
Q 2241 2644 2061 2787 
Q 1881 2931 1553 2931 
Q 1166 2931 1000 2803 
Q 834 2675 834 2503 
Q 834 2394 903 2306 
Q 972 2216 1119 2156 
Q 1203 2125 1616 2013 
Q 2213 1853 2448 1751 
Q 2684 1650 2818 1456 
Q 2953 1263 2953 975 
Q 2953 694 2789 445 
Q 2625 197 2315 61 
Q 2006 -75 1616 -75 
Q 969 -75 630 194 
Q 291 463 197 991 
z
" transform="scale(0.015625)"/>
       <path id="ArialMT-29" d="M 791 -1347 
L 388 -1347 
Q 1322 153 1322 1656 
Q 1322 2244 1188 2822 
Q 1081 3291 891 3722 
Q 769 4003 388 4659 
L 791 4659 
Q 1378 3875 1659 3084 
Q 1900 2403 1900 1659 
Q 1900 816 1576 28 
Q 1253 -759 791 -1347 
z
" transform="scale(0.015625)"/>
      </defs>
      <use xlink:href="#ArialMT-54"/>
      <use xlink:href="#ArialMT-69" x="57.333984"/>
      <use xlink:href="#ArialMT-6d" x="79.550781"/>
      <use xlink:href="#ArialMT-65" x="162.851562"/>
      <use xlink:href="#ArialMT-20" x="218.466797"/>
      <use xlink:href="#ArialMT-28" x="246.25"/>
      <use xlink:href="#ArialMT-73" x="279.550781"/>
      <use xlink:href="#ArialMT-29" x="329.550781"/>
     </g>
    </g>
   </g>
   <g id="matplotlib.axis_2">
    <g id="ytick_1">
     <g id="text_11">
      <!-- 0.0 -->
      <g style="fill: #262626" transform="translate(30.985 353.018627) scale(0.15 -0.15)">
       <defs>
        <path id="ArialMT-2e" d="M 581 0 
L 581 641 
L 1222 641 
L 1222 0 
L 581 0 
z
" transform="scale(0.015625)"/>
       </defs>
       <use xlink:href="#ArialMT-30"/>
       <use xlink:href="#ArialMT-2e" x="55.615234"/>
       <use xlink:href="#ArialMT-30" x="83.398438"/>
      </g>
     </g>
    </g>
    <g id="ytick_2">
     <g id="text_12">
      <!-- 0.1 -->
      <g style="fill: #262626" transform="translate(30.985 283.24724) scale(0.15 -0.15)">
       <use xlink:href="#ArialMT-30"/>
       <use xlink:href="#ArialMT-2e" x="55.615234"/>
       <use xlink:href="#ArialMT-31" x="83.398438"/>
      </g>
     </g>
    </g>
    <g id="ytick_3">
     <g id="text_13">
      <!-- 0.2 -->
      <g style="fill: #262626" transform="translate(30.985 213.475853) scale(0.15 -0.15)">
       <use xlink:href="#ArialMT-30"/>
       <use xlink:href="#ArialMT-2e" x="55.615234"/>
       <use xlink:href="#ArialMT-32" x="83.398438"/>
      </g>
     </g>
    </g>
    <g id="ytick_4">
     <g id="text_14">
      <!-- 0.3 -->
      <g style="fill: #262626" transform="translate(30.985 143.704467) scale(0.15 -0.15)">
       <defs>
        <path id="ArialMT-33" d="M 269 1209 
L 831 1284 
Q 928 806 1161 595 
Q 1394 384 1728 384 
Q 2125 384 2398 659 
Q 2672 934 2672 1341 
Q 2672 1728 2419 1979 
Q 2166 2231 1775 2231 
Q 1616 2231 1378 2169 
L 1441 2663 
Q 1497 2656 1531 2656 
Q 1891 2656 2178 2843 
Q 2466 3031 2466 3422 
Q 2466 3731 2256 3934 
Q 2047 4138 1716 4138 
Q 1388 4138 1169 3931 
Q 950 3725 888 3313 
L 325 3413 
Q 428 3978 793 4289 
Q 1159 4600 1703 4600 
Q 2078 4600 2393 4439 
Q 2709 4278 2876 4000 
Q 3044 3722 3044 3409 
Q 3044 3113 2884 2869 
Q 2725 2625 2413 2481 
Q 2819 2388 3044 2092 
Q 3269 1797 3269 1353 
Q 3269 753 2831 336 
Q 2394 -81 1725 -81 
Q 1122 -81 723 278 
Q 325 638 269 1209 
z
" transform="scale(0.015625)"/>
       </defs>
       <use xlink:href="#ArialMT-30"/>
       <use xlink:href="#ArialMT-2e" x="55.615234"/>
       <use xlink:href="#ArialMT-33" x="83.398438"/>
      </g>
     </g>
    </g>
    <g id="ytick_5">
     <g id="text_15">
      <!-- 0.4 -->
      <g style="fill: #262626" transform="translate(30.985 73.93308) scale(0.15 -0.15)">
       <defs>
        <path id="ArialMT-34" d="M 2069 0 
L 2069 1097 
L 81 1097 
L 81 1613 
L 2172 4581 
L 2631 4581 
L 2631 1613 
L 3250 1613 
L 3250 1097 
L 2631 1097 
L 2631 0 
L 2069 0 
z
M 2069 1613 
L 2069 3678 
L 634 1613 
L 2069 1613 
z
" transform="scale(0.015625)"/>
       </defs>
       <use xlink:href="#ArialMT-30"/>
       <use xlink:href="#ArialMT-2e" x="55.615234"/>
       <use xlink:href="#ArialMT-34" x="83.398438"/>
      </g>
     </g>
    </g>
    <g id="text_16">
     <!-- Divergence -->
     <g style="fill: #262626" transform="translate(23.827969 240.183594) rotate(-90) scale(0.15 -0.15)">
      <defs>
       <path id="ArialMT-44" d="M 494 0 
L 494 4581 
L 2072 4581 
Q 2606 4581 2888 4516 
Q 3281 4425 3559 4188 
Q 3922 3881 4101 3404 
Q 4281 2928 4281 2316 
Q 4281 1794 4159 1391 
Q 4038 988 3847 723 
Q 3656 459 3429 307 
Q 3203 156 2883 78 
Q 2563 0 2147 0 
L 494 0 
z
M 1100 541 
L 2078 541 
Q 2531 541 2789 625 
Q 3047 709 3200 863 
Q 3416 1078 3536 1442 
Q 3656 1806 3656 2325 
Q 3656 3044 3420 3430 
Q 3184 3816 2847 3947 
Q 2603 4041 2063 4041 
L 1100 4041 
L 1100 541 
z
" transform="scale(0.015625)"/>
       <path id="ArialMT-76" d="M 1344 0 
L 81 3319 
L 675 3319 
L 1388 1331 
Q 1503 1009 1600 663 
Q 1675 925 1809 1294 
L 2547 3319 
L 3125 3319 
L 1869 0 
L 1344 0 
z
" transform="scale(0.015625)"/>
       <path id="ArialMT-72" d="M 416 0 
L 416 3319 
L 922 3319 
L 922 2816 
Q 1116 3169 1280 3281 
Q 1444 3394 1641 3394 
Q 1925 3394 2219 3213 
L 2025 2691 
Q 1819 2813 1613 2813 
Q 1428 2813 1281 2702 
Q 1134 2591 1072 2394 
Q 978 2094 978 1738 
L 978 0 
L 416 0 
z
" transform="scale(0.015625)"/>
       <path id="ArialMT-67" d="M 319 -275 
L 866 -356 
Q 900 -609 1056 -725 
Q 1266 -881 1628 -881 
Q 2019 -881 2231 -725 
Q 2444 -569 2519 -288 
Q 2563 -116 2559 434 
Q 2191 0 1641 0 
Q 956 0 581 494 
Q 206 988 206 1678 
Q 206 2153 378 2554 
Q 550 2956 876 3175 
Q 1203 3394 1644 3394 
Q 2231 3394 2613 2919 
L 2613 3319 
L 3131 3319 
L 3131 450 
Q 3131 -325 2973 -648 
Q 2816 -972 2473 -1159 
Q 2131 -1347 1631 -1347 
Q 1038 -1347 672 -1080 
Q 306 -813 319 -275 
z
M 784 1719 
Q 784 1066 1043 766 
Q 1303 466 1694 466 
Q 2081 466 2343 764 
Q 2606 1063 2606 1700 
Q 2606 2309 2336 2618 
Q 2066 2928 1684 2928 
Q 1309 2928 1046 2623 
Q 784 2319 784 1719 
z
" transform="scale(0.015625)"/>
       <path id="ArialMT-6e" d="M 422 0 
L 422 3319 
L 928 3319 
L 928 2847 
Q 1294 3394 1984 3394 
Q 2284 3394 2536 3286 
Q 2788 3178 2913 3003 
Q 3038 2828 3088 2588 
Q 3119 2431 3119 2041 
L 3119 0 
L 2556 0 
L 2556 2019 
Q 2556 2363 2490 2533 
Q 2425 2703 2258 2804 
Q 2091 2906 1866 2906 
Q 1506 2906 1245 2678 
Q 984 2450 984 1813 
L 984 0 
L 422 0 
z
" transform="scale(0.015625)"/>
       <path id="ArialMT-63" d="M 2588 1216 
L 3141 1144 
Q 3050 572 2676 248 
Q 2303 -75 1759 -75 
Q 1078 -75 664 370 
Q 250 816 250 1647 
Q 250 2184 428 2587 
Q 606 2991 970 3192 
Q 1334 3394 1763 3394 
Q 2303 3394 2647 3120 
Q 2991 2847 3088 2344 
L 2541 2259 
Q 2463 2594 2264 2762 
Q 2066 2931 1784 2931 
Q 1359 2931 1093 2626 
Q 828 2322 828 1663 
Q 828 994 1084 691 
Q 1341 388 1753 388 
Q 2084 388 2306 591 
Q 2528 794 2588 1216 
z
" transform="scale(0.015625)"/>
      </defs>
      <use xlink:href="#ArialMT-44"/>
      <use xlink:href="#ArialMT-69" x="72.216797"/>
      <use xlink:href="#ArialMT-76" x="94.433594"/>
      <use xlink:href="#ArialMT-65" x="144.433594"/>
      <use xlink:href="#ArialMT-72" x="200.048828"/>
      <use xlink:href="#ArialMT-67" x="233.349609"/>
      <use xlink:href="#ArialMT-65" x="288.964844"/>
      <use xlink:href="#ArialMT-6e" x="344.580078"/>
      <use xlink:href="#ArialMT-63" x="400.195312"/>
      <use xlink:href="#ArialMT-65" x="450.195312"/>
     </g>
    </g>
   </g>
   <g id="PolyCollection_1">
    <defs>
     <path id="mf0ab7ed129" d="M 86.157955 -86.742713 
L 86.157955 -77.979581 
L 91.122545 -81.811127 
L 96.087136 -86.305882 
L 101.051727 -80.603401 
L 106.016318 -76.945275 
L 110.980909 -80.753582 
L 115.9455 -75.614081 
L 120.910091 -80.215825 
L 125.874682 -81.283599 
L 130.839273 -80.404632 
L 135.803864 -80.484498 
L 140.768455 -80.908798 
L 145.733045 -80.561062 
L 150.697636 -79.792943 
L 155.662227 -83.641703 
L 160.626818 -81.598659 
L 165.591409 -84.414967 
L 170.556 -80.853456 
L 175.520591 -80.613846 
L 180.485182 -78.111498 
L 185.449773 -79.21988 
L 190.414364 -79.458261 
L 195.378955 -76.957232 
L 200.343545 -78.009174 
L 205.308136 -83.55406 
L 210.272727 -80.051201 
L 215.237318 -88.062124 
L 220.201909 -80.69795 
L 225.1665 -90.28455 
L 230.131091 -95.840814 
L 235.095682 -89.889178 
L 240.060273 -100.557603 
L 245.024864 -106.363078 
L 249.989455 -99.478013 
L 254.954045 -96.658514 
L 259.918636 -90.420199 
L 264.883227 -90.324971 
L 269.847818 -91.131667 
L 274.812409 -92.142727 
L 279.777 -86.575994 
L 284.741591 -89.291546 
L 289.706182 -89.412518 
L 294.670773 -80.553129 
L 299.635364 -84.766495 
L 304.599955 -83.932143 
L 309.564545 -93.996523 
L 314.529136 -90.171617 
L 319.493727 -93.531612 
L 324.458318 -90.128797 
L 329.422909 -99.567755 
L 334.3875 -97.709139 
L 339.352091 -94.162029 
L 344.316682 -102.272496 
L 349.281273 -99.621369 
L 354.245864 -95.969771 
L 359.210455 -98.207025 
L 364.175045 -104.774361 
L 369.139636 -109.07296 
L 374.104227 -106.006076 
L 379.068818 -110.543984 
L 384.033409 -109.463592 
L 388.998 -109.173973 
L 393.962591 -106.730212 
L 398.927182 -107.772263 
L 403.891773 -107.479668 
L 408.856364 -108.896482 
L 413.820955 -102.90395 
L 418.785545 -99.057485 
L 423.750136 -95.742897 
L 428.714727 -101.834875 
L 433.679318 -121.023183 
L 438.643909 -114.190118 
L 443.6085 -108.943397 
L 448.573091 -95.566213 
L 453.537682 -93.355543 
L 458.502273 -103.201464 
L 463.466864 -111.306634 
L 468.431455 -113.595304 
L 473.396045 -109.764776 
L 478.360636 -103.300565 
L 483.325227 -110.791865 
L 488.289818 -110.864088 
L 493.254409 -115.089996 
L 498.219 -119.239164 
L 503.183591 -119.561996 
L 508.148182 -109.186626 
L 513.112773 -107.545246 
L 518.077364 -104.630003 
L 523.041955 -103.105324 
L 528.006545 -108.530094 
L 532.971136 -119.234874 
L 537.935727 -113.874409 
L 542.900318 -110.250181 
L 547.864909 -100.917764 
L 552.8295 -109.299158 
L 557.794091 -98.563068 
L 562.758682 -105.366436 
L 567.723273 -111.038731 
L 572.687864 -109.92546 
L 577.652455 -104.485486 
L 582.617045 -109.235752 
L 582.617045 -122.7068 
L 582.617045 -122.7068 
L 577.652455 -117.518316 
L 572.687864 -124.6049 
L 567.723273 -123.408705 
L 562.758682 -116.993555 
L 557.794091 -109.80239 
L 552.8295 -122.105723 
L 547.864909 -114.143094 
L 542.900318 -126.126065 
L 537.935727 -127.512291 
L 532.971136 -132.317166 
L 528.006545 -119.852082 
L 523.041955 -113.938605 
L 518.077364 -117.491912 
L 513.112773 -121.773545 
L 508.148182 -125.134664 
L 503.183591 -136.547438 
L 498.219 -131.882697 
L 493.254409 -126.07476 
L 488.289818 -121.60254 
L 483.325227 -124.80882 
L 478.360636 -119.199036 
L 473.396045 -126.435587 
L 468.431455 -128.044234 
L 463.466864 -124.95664 
L 458.502273 -111.614446 
L 453.537682 -100.8488 
L 448.573091 -104.287576 
L 443.6085 -118.915162 
L 438.643909 -122.806112 
L 433.679318 -129.936528 
L 428.714727 -111.468796 
L 423.750136 -105.00965 
L 418.785545 -107.679072 
L 413.820955 -112.347164 
L 408.856364 -119.207889 
L 403.891773 -118.75776 
L 398.927182 -118.167768 
L 393.962591 -115.929117 
L 388.998 -117.949242 
L 384.033409 -118.542506 
L 379.068818 -119.380277 
L 374.104227 -113.802686 
L 369.139636 -117.433073 
L 364.175045 -113.180719 
L 359.210455 -107.367243 
L 354.245864 -105.312624 
L 349.281273 -109.339744 
L 344.316682 -112.27268 
L 339.352091 -102.363352 
L 334.3875 -106.071283 
L 329.422909 -107.381486 
L 324.458318 -98.130826 
L 319.493727 -100.286948 
L 314.529136 -97.490197 
L 309.564545 -101.632749 
L 304.599955 -91.508962 
L 299.635364 -93.649358 
L 294.670773 -89.296489 
L 289.706182 -97.677962 
L 284.741591 -97.68919 
L 279.777 -95.132567 
L 274.812409 -100.723445 
L 269.847818 -98.962926 
L 264.883227 -97.454242 
L 259.918636 -96.795065 
L 254.954045 -103.458221 
L 249.989455 -107.145662 
L 245.024864 -114.911071 
L 240.060273 -109.4454 
L 235.095682 -98.312257 
L 230.131091 -105.206027 
L 225.1665 -98.512787 
L 220.201909 -87.555898 
L 215.237318 -95.582423 
L 210.272727 -88.602525 
L 205.308136 -90.985788 
L 200.343545 -82.58038 
L 195.378955 -81.765932 
L 190.414364 -84.106851 
L 185.449773 -83.574934 
L 180.485182 -82.663634 
L 175.520591 -85.055942 
L 170.556 -85.394965 
L 165.591409 -89.017334 
L 160.626818 -86.17233 
L 155.662227 -88.500371 
L 150.697636 -84.671625 
L 145.733045 -85.078607 
L 140.768455 -85.203296 
L 135.803864 -85.128764 
L 130.839273 -84.905093 
L 125.874682 -85.677432 
L 120.910091 -84.865364 
L 115.9455 -79.869517 
L 110.980909 -86.508381 
L 106.016318 -82.22635 
L 101.051727 -84.719187 
L 96.087136 -90.357598 
L 91.122545 -87.370117 
L 86.157955 -86.742713 
z
" style="stroke: #6060eb; stroke-opacity: 0.1"/>
    </defs>
    <g clip-path="url(#pb731614f32)">
     <use xlink:href="#mf0ab7ed129" x="0" y="432" style="fill: #6060eb; fill-opacity: 0.1; stroke: #6060eb; stroke-opacity: 0.1"/>
    </g>
   </g>
   <g id="PolyCollection_2">
    <defs>
     <path id="m4154dbfdb4" d="M 86.157955 -86.445997 
L 86.157955 -83.745204 
L 91.122545 -83.327277 
L 96.087136 -82.656556 
L 101.051727 -84.416276 
L 106.016318 -82.992816 
L 110.980909 -83.635193 
L 115.9455 -83.601396 
L 120.910091 -84.426308 
L 125.874682 -83.734126 
L 130.839273 -83.587671 
L 135.803864 -83.175703 
L 140.768455 -83.724646 
L 145.733045 -83.856604 
L 150.697636 -83.238275 
L 155.662227 -84.269785 
L 160.626818 -83.77602 
L 165.591409 -83.493108 
L 170.556 -83.758904 
L 175.520591 -84.211898 
L 180.485182 -83.687392 
L 185.449773 -83.455966 
L 190.414364 -83.6117 
L 195.378955 -84.372922 
L 200.343545 -83.887861 
L 205.308136 -88.957564 
L 210.272727 -90.329064 
L 215.237318 -90.031411 
L 220.201909 -89.120414 
L 225.1665 -89.711613 
L 230.131091 -91.814373 
L 235.095682 -90.619431 
L 240.060273 -89.559778 
L 245.024864 -90.617199 
L 249.989455 -92.189376 
L 254.954045 -92.225024 
L 259.918636 -93.51258 
L 264.883227 -91.959074 
L 269.847818 -92.533301 
L 274.812409 -91.153022 
L 279.777 -91.455488 
L 284.741591 -90.781381 
L 289.706182 -91.972879 
L 294.670773 -93.299936 
L 299.635364 -94.431828 
L 304.599955 -95.760261 
L 309.564545 -97.170551 
L 314.529136 -93.530482 
L 319.493727 -93.283356 
L 324.458318 -93.839604 
L 329.422909 -94.929341 
L 334.3875 -93.260934 
L 339.352091 -93.71905 
L 344.316682 -94.229762 
L 349.281273 -92.691379 
L 354.245864 -93.64097 
L 359.210455 -95.148254 
L 364.175045 -93.589548 
L 369.139636 -94.219662 
L 374.104227 -93.348364 
L 379.068818 -92.717114 
L 384.033409 -90.841414 
L 388.998 -90.615958 
L 393.962591 -91.225756 
L 398.927182 -92.985526 
L 403.891773 -91.078346 
L 408.856364 -92.882228 
L 413.820955 -94.504048 
L 418.785545 -93.188856 
L 423.750136 -91.062566 
L 428.714727 -91.886371 
L 433.679318 -91.73136 
L 438.643909 -89.53818 
L 443.6085 -91.698001 
L 448.573091 -89.337615 
L 453.537682 -84.116111 
L 458.502273 -83.884895 
L 463.466864 -84.46268 
L 468.431455 -85.603022 
L 473.396045 -84.213071 
L 478.360636 -85.022911 
L 483.325227 -84.995777 
L 488.289818 -85.212663 
L 493.254409 -84.323595 
L 498.219 -84.71864 
L 503.183591 -82.915131 
L 508.148182 -83.364468 
L 513.112773 -86.091733 
L 518.077364 -84.438259 
L 523.041955 -84.348423 
L 528.006545 -85.399749 
L 532.971136 -85.006572 
L 537.935727 -85.193088 
L 542.900318 -86.200268 
L 547.864909 -85.047425 
L 552.8295 -84.309797 
L 557.794091 -84.019401 
L 562.758682 -83.174825 
L 567.723273 -83.582068 
L 572.687864 -84.384366 
L 577.652455 -84.247031 
L 582.617045 -84.158261 
L 582.617045 -85.848479 
L 582.617045 -85.848479 
L 577.652455 -85.75924 
L 572.687864 -85.793681 
L 567.723273 -84.973259 
L 562.758682 -84.501107 
L 557.794091 -85.55108 
L 552.8295 -85.763853 
L 547.864909 -86.472051 
L 542.900318 -87.865819 
L 537.935727 -86.703391 
L 532.971136 -86.490923 
L 528.006545 -86.730171 
L 523.041955 -85.754815 
L 518.077364 -85.848942 
L 513.112773 -87.630276 
L 508.148182 -85.142215 
L 503.183591 -84.55746 
L 498.219 -86.361443 
L 493.254409 -85.76707 
L 488.289818 -86.682696 
L 483.325227 -86.356941 
L 478.360636 -86.54744 
L 473.396045 -85.953373 
L 468.431455 -87.763983 
L 463.466864 -86.098346 
L 458.502273 -85.055272 
L 453.537682 -85.330492 
L 448.573091 -90.90088 
L 443.6085 -93.55574 
L 438.643909 -91.431583 
L 433.679318 -93.757965 
L 428.714727 -93.724636 
L 423.750136 -92.994843 
L 418.785545 -95.193325 
L 413.820955 -96.481989 
L 408.856364 -94.845931 
L 403.891773 -92.85375 
L 398.927182 -95.143911 
L 393.962591 -93.273222 
L 388.998 -92.518163 
L 384.033409 -92.661075 
L 379.068818 -94.640619 
L 374.104227 -95.272454 
L 369.139636 -96.116894 
L 364.175045 -95.372579 
L 359.210455 -97.080112 
L 354.245864 -95.776213 
L 349.281273 -94.611008 
L 344.316682 -96.142851 
L 339.352091 -95.69131 
L 334.3875 -95.35851 
L 329.422909 -97.231044 
L 324.458318 -95.858997 
L 319.493727 -95.106858 
L 314.529136 -95.391151 
L 309.564545 -99.256428 
L 304.599955 -97.644686 
L 299.635364 -96.308977 
L 294.670773 -95.283169 
L 289.706182 -93.90246 
L 284.741591 -92.518125 
L 279.777 -93.274145 
L 274.812409 -93.109526 
L 269.847818 -94.309086 
L 264.883227 -93.693089 
L 259.918636 -95.190957 
L 254.954045 -94.124375 
L 249.989455 -94.009067 
L 245.024864 -92.489964 
L 240.060273 -91.552786 
L 235.095682 -92.590997 
L 230.131091 -93.844043 
L 225.1665 -91.426024 
L 220.201909 -90.908123 
L 215.237318 -91.719211 
L 210.272727 -92.232574 
L 205.308136 -90.988265 
L 200.343545 -84.972513 
L 195.378955 -85.470921 
L 190.414364 -84.76702 
L 185.449773 -84.54671 
L 180.485182 -84.744642 
L 175.520591 -85.216542 
L 170.556 -84.836116 
L 165.591409 -84.573608 
L 160.626818 -84.784701 
L 155.662227 -85.282489 
L 150.697636 -84.199217 
L 145.733045 -84.915829 
L 140.768455 -84.887219 
L 135.803864 -84.112824 
L 130.839273 -84.745009 
L 125.874682 -84.768672 
L 120.910091 -85.395174 
L 115.9455 -84.622196 
L 110.980909 -85.034964 
L 106.016318 -84.072034 
L 101.051727 -85.176071 
L 96.087136 -83.495587 
L 91.122545 -84.695525 
L 86.157955 -86.445997 
z
" style="stroke: #6060eb; stroke-opacity: 0.1"/>
    </defs>
    <g clip-path="url(#pb731614f32)">
     <use xlink:href="#m4154dbfdb4" x="0" y="432" style="fill: #6060eb; fill-opacity: 0.1; stroke: #6060eb; stroke-opacity: 0.1"/>
    </g>
   </g>
   <g id="PathCollection_1">
    <defs>
     <path id="mdeb528c1e3" d="M 0 -3 
L -0.673542 -0.927051 
L -2.85317 -0.927051 
L -1.089814 0.354102 
L -1.763356 2.427051 
L -0 1.145898 
L 1.763356 2.427051 
L 1.089814 0.354102 
L 2.85317 -0.927051 
L 0.673542 -0.927051 
z
" style="stroke: #6060eb"/>
    </defs>
    <g clip-path="url(#pb731614f32)">
     <use xlink:href="#mdeb528c1e3" x="240.060273" y="354.627407" style="fill: #6060eb; stroke: #6060eb"/>
     <use xlink:href="#mdeb528c1e3" x="245.024864" y="354.627407" style="fill: #6060eb; stroke: #6060eb"/>
     <use xlink:href="#mdeb528c1e3" x="364.175045" y="354.627407" style="fill: #6060eb; stroke: #6060eb"/>
     <use xlink:href="#mdeb528c1e3" x="369.139636" y="354.627407" style="fill: #6060eb; stroke: #6060eb"/>
     <use xlink:href="#mdeb528c1e3" x="374.104227" y="354.627407" style="fill: #6060eb; stroke: #6060eb"/>
     <use xlink:href="#mdeb528c1e3" x="379.068818" y="354.627407" style="fill: #6060eb; stroke: #6060eb"/>
     <use xlink:href="#mdeb528c1e3" x="384.033409" y="354.627407" style="fill: #6060eb; stroke: #6060eb"/>
     <use xlink:href="#mdeb528c1e3" x="388.998" y="354.627407" style="fill: #6060eb; stroke: #6060eb"/>
     <use xlink:href="#mdeb528c1e3" x="393.962591" y="354.627407" style="fill: #6060eb; stroke: #6060eb"/>
     <use xlink:href="#mdeb528c1e3" x="398.927182" y="354.627407" style="fill: #6060eb; stroke: #6060eb"/>
     <use xlink:href="#mdeb528c1e3" x="403.891773" y="354.627407" style="fill: #6060eb; stroke: #6060eb"/>
     <use xlink:href="#mdeb528c1e3" x="408.856364" y="354.627407" style="fill: #6060eb; stroke: #6060eb"/>
     <use xlink:href="#mdeb528c1e3" x="433.679318" y="354.627407" style="fill: #6060eb; stroke: #6060eb"/>
     <use xlink:href="#mdeb528c1e3" x="438.643909" y="354.627407" style="fill: #6060eb; stroke: #6060eb"/>
     <use xlink:href="#mdeb528c1e3" x="443.6085" y="354.627407" style="fill: #6060eb; stroke: #6060eb"/>
     <use xlink:href="#mdeb528c1e3" x="453.537682" y="354.627407" style="fill: #6060eb; stroke: #6060eb"/>
     <use xlink:href="#mdeb528c1e3" x="458.502273" y="354.627407" style="fill: #6060eb; stroke: #6060eb"/>
     <use xlink:href="#mdeb528c1e3" x="463.466864" y="354.627407" style="fill: #6060eb; stroke: #6060eb"/>
     <use xlink:href="#mdeb528c1e3" x="468.431455" y="354.627407" style="fill: #6060eb; stroke: #6060eb"/>
     <use xlink:href="#mdeb528c1e3" x="473.396045" y="354.627407" style="fill: #6060eb; stroke: #6060eb"/>
     <use xlink:href="#mdeb528c1e3" x="478.360636" y="354.627407" style="fill: #6060eb; stroke: #6060eb"/>
     <use xlink:href="#mdeb528c1e3" x="483.325227" y="354.627407" style="fill: #6060eb; stroke: #6060eb"/>
     <use xlink:href="#mdeb528c1e3" x="488.289818" y="354.627407" style="fill: #6060eb; stroke: #6060eb"/>
     <use xlink:href="#mdeb528c1e3" x="493.254409" y="354.627407" style="fill: #6060eb; stroke: #6060eb"/>
     <use xlink:href="#mdeb528c1e3" x="498.219" y="354.627407" style="fill: #6060eb; stroke: #6060eb"/>
     <use xlink:href="#mdeb528c1e3" x="503.183591" y="354.627407" style="fill: #6060eb; stroke: #6060eb"/>
     <use xlink:href="#mdeb528c1e3" x="508.148182" y="354.627407" style="fill: #6060eb; stroke: #6060eb"/>
     <use xlink:href="#mdeb528c1e3" x="513.112773" y="354.627407" style="fill: #6060eb; stroke: #6060eb"/>
     <use xlink:href="#mdeb528c1e3" x="518.077364" y="354.627407" style="fill: #6060eb; stroke: #6060eb"/>
     <use xlink:href="#mdeb528c1e3" x="523.041955" y="354.627407" style="fill: #6060eb; stroke: #6060eb"/>
     <use xlink:href="#mdeb528c1e3" x="528.006545" y="354.627407" style="fill: #6060eb; stroke: #6060eb"/>
     <use xlink:href="#mdeb528c1e3" x="532.971136" y="354.627407" style="fill: #6060eb; stroke: #6060eb"/>
     <use xlink:href="#mdeb528c1e3" x="537.935727" y="354.627407" style="fill: #6060eb; stroke: #6060eb"/>
     <use xlink:href="#mdeb528c1e3" x="542.900318" y="354.627407" style="fill: #6060eb; stroke: #6060eb"/>
     <use xlink:href="#mdeb528c1e3" x="547.864909" y="354.627407" style="fill: #6060eb; stroke: #6060eb"/>
     <use xlink:href="#mdeb528c1e3" x="552.8295" y="354.627407" style="fill: #6060eb; stroke: #6060eb"/>
     <use xlink:href="#mdeb528c1e3" x="557.794091" y="354.627407" style="fill: #6060eb; stroke: #6060eb"/>
     <use xlink:href="#mdeb528c1e3" x="562.758682" y="354.627407" style="fill: #6060eb; stroke: #6060eb"/>
     <use xlink:href="#mdeb528c1e3" x="567.723273" y="354.627407" style="fill: #6060eb; stroke: #6060eb"/>
     <use xlink:href="#mdeb528c1e3" x="572.687864" y="354.627407" style="fill: #6060eb; stroke: #6060eb"/>
     <use xlink:href="#mdeb528c1e3" x="577.652455" y="354.627407" style="fill: #6060eb; stroke: #6060eb"/>
     <use xlink:href="#mdeb528c1e3" x="582.617045" y="354.627407" style="fill: #6060eb; stroke: #6060eb"/>
    </g>
   </g>
   <g id="PolyCollection_3">
    <defs>
     <path id="mdf6bc662ee" d="M 86.157955 -97.211579 
L 86.157955 -85.886513 
L 91.122545 -75.923051 
L 96.087136 -73.242607 
L 101.051727 -74.564034 
L 106.016318 -76.236949 
L 110.980909 -81.303489 
L 115.9455 -80.961378 
L 120.910091 -76.65846 
L 125.874682 -80.917261 
L 130.839273 -85.082339 
L 135.803864 -86.725433 
L 140.768455 -87.318221 
L 145.733045 -86.28103 
L 150.697636 -89.274092 
L 155.662227 -91.290679 
L 160.626818 -82.217136 
L 165.591409 -87.811758 
L 170.556 -91.3614 
L 175.520591 -87.823678 
L 180.485182 -88.604068 
L 185.449773 -97.162956 
L 190.414364 -91.976703 
L 195.378955 -93.581773 
L 200.343545 -90.702248 
L 205.308136 -92.618652 
L 210.272727 -94.397695 
L 215.237318 -92.518981 
L 220.201909 -94.214647 
L 225.1665 -92.483643 
L 230.131091 -91.54669 
L 235.095682 -93.444045 
L 240.060273 -94.100223 
L 245.024864 -89.880379 
L 249.989455 -90.806212 
L 254.954045 -90.274724 
L 259.918636 -91.963384 
L 264.883227 -94.64165 
L 269.847818 -96.22795 
L 274.812409 -96.058308 
L 279.777 -92.727462 
L 284.741591 -95.586619 
L 289.706182 -99.889757 
L 294.670773 -103.848866 
L 299.635364 -107.345275 
L 304.599955 -113.796835 
L 309.564545 -119.371247 
L 314.529136 -120.296364 
L 319.493727 -125.95046 
L 324.458318 -133.660953 
L 329.422909 -135.992775 
L 334.3875 -141.531197 
L 339.352091 -147.670255 
L 344.316682 -152.38532 
L 349.281273 -156.224514 
L 354.245864 -164.653018 
L 359.210455 -171.125568 
L 364.175045 -179.720124 
L 369.139636 -188.863986 
L 374.104227 -196.615855 
L 379.068818 -204.221157 
L 384.033409 -209.98386 
L 388.998 -212.885566 
L 393.962591 -219.977905 
L 398.927182 -225.826021 
L 403.891773 -229.092254 
L 408.856364 -233.886478 
L 413.820955 -241.090547 
L 418.785545 -245.527149 
L 423.750136 -246.792029 
L 428.714727 -247.780604 
L 433.679318 -253.470773 
L 438.643909 -258.077389 
L 443.6085 -261.566664 
L 448.573091 -264.162409 
L 453.537682 -268.076426 
L 458.502273 -269.179724 
L 463.466864 -270.873292 
L 468.431455 -273.49334 
L 473.396045 -284.020315 
L 478.360636 -285.793042 
L 483.325227 -291.347532 
L 488.289818 -295.084546 
L 493.254409 -297.246357 
L 498.219 -297.800811 
L 503.183591 -302.840212 
L 508.148182 -305.087911 
L 513.112773 -304.873375 
L 518.077364 -307.825523 
L 523.041955 -307.270379 
L 528.006545 -307.968881 
L 532.971136 -305.384467 
L 537.935727 -304.681568 
L 542.900318 -303.80872 
L 547.864909 -303.157766 
L 552.8295 -304.664679 
L 557.794091 -305.024149 
L 562.758682 -307.161396 
L 567.723273 -310.025853 
L 572.687864 -305.390957 
L 577.652455 -305.90635 
L 582.617045 -308.542748 
L 582.617045 -388.767181 
L 582.617045 -388.767181 
L 577.652455 -385.882751 
L 572.687864 -384.524048 
L 567.723273 -389.104545 
L 562.758682 -385.920603 
L 557.794091 -384.115028 
L 552.8295 -383.176222 
L 547.864909 -380.930546 
L 542.900318 -381.128421 
L 537.935727 -380.880665 
L 532.971136 -380.63266 
L 528.006545 -382.170221 
L 523.041955 -381.588018 
L 518.077364 -381.498627 
L 513.112773 -377.602107 
L 508.148182 -376.27516 
L 503.183591 -372.429785 
L 498.219 -365.832008 
L 493.254409 -364.153228 
L 488.289818 -361.721444 
L 483.325227 -356.105438 
L 478.360636 -348.43872 
L 473.396045 -344.356927 
L 468.431455 -332.158905 
L 463.466864 -328.068904 
L 458.502273 -325.19631 
L 453.537682 -323.291905 
L 448.573091 -318.420319 
L 443.6085 -315.02533 
L 438.643909 -310.59898 
L 433.679318 -304.919369 
L 428.714727 -298.547122 
L 423.750136 -296.939542 
L 418.785545 -294.25552 
L 413.820955 -288.814573 
L 408.856364 -280.181571 
L 403.891773 -274.212509 
L 398.927182 -269.319492 
L 393.962591 -262.029653 
L 388.998 -253.515548 
L 384.033409 -248.982305 
L 379.068818 -241.515247 
L 374.104227 -232.198633 
L 369.139636 -223.025504 
L 364.175045 -211.993736 
L 359.210455 -201.518447 
L 354.245864 -193.007445 
L 349.281273 -182.959067 
L 344.316682 -176.815102 
L 339.352091 -170.441542 
L 334.3875 -162.132242 
L 329.422909 -154.67566 
L 324.458318 -150.581286 
L 319.493727 -141.052528 
L 314.529136 -133.638402 
L 309.564545 -131.506191 
L 304.599955 -124.775804 
L 299.635364 -116.922045 
L 294.670773 -112.854451 
L 289.706182 -108.047191 
L 284.741591 -103.594634 
L 279.777 -100.772087 
L 274.812409 -103.242655 
L 269.847818 -103.626532 
L 264.883227 -102.212498 
L 259.918636 -99.484927 
L 254.954045 -98.10205 
L 249.989455 -98.472637 
L 245.024864 -97.975891 
L 240.060273 -102.878237 
L 235.095682 -103.228303 
L 230.131091 -101.932612 
L 225.1665 -102.528618 
L 220.201909 -105.170148 
L 215.237318 -103.42517 
L 210.272727 -105.802568 
L 205.308136 -104.457962 
L 200.343545 -103.870202 
L 195.378955 -107.427156 
L 190.414364 -105.536109 
L 185.449773 -112.18612 
L 180.485182 -102.827459 
L 175.520591 -102.381764 
L 170.556 -106.033653 
L 165.591409 -101.30171 
L 160.626818 -94.673895 
L 155.662227 -104.37361 
L 150.697636 -101.662262 
L 145.733045 -98.872486 
L 140.768455 -100.865412 
L 135.803864 -100.862982 
L 130.839273 -100.147933 
L 125.874682 -95.040192 
L 120.910091 -91.600046 
L 115.9455 -95.632335 
L 110.980909 -96.480092 
L 106.016318 -91.80811 
L 101.051727 -91.248072 
L 96.087136 -88.246432 
L 91.122545 -91.463804 
L 86.157955 -97.211579 
z
" style="stroke: #00008b; stroke-opacity: 0.1"/>
    </defs>
    <g clip-path="url(#pb731614f32)">
     <use xlink:href="#mdf6bc662ee" x="0" y="432" style="fill: #00008b; fill-opacity: 0.1; stroke: #00008b; stroke-opacity: 0.1"/>
    </g>
   </g>
   <g id="PolyCollection_4">
    <defs>
     <path id="m52c4f63bcc" d="M 86.157955 -85.522746 
L 86.157955 -83.191058 
L 91.122545 -81.481207 
L 96.087136 -82.261561 
L 101.051727 -81.248761 
L 106.016318 -83.323737 
L 110.980909 -83.962824 
L 115.9455 -84.640074 
L 120.910091 -83.874056 
L 125.874682 -83.783438 
L 130.839273 -85.753828 
L 135.803864 -86.022496 
L 140.768455 -87.368089 
L 145.733045 -87.927796 
L 150.697636 -89.903439 
L 155.662227 -90.359261 
L 160.626818 -90.851288 
L 165.591409 -90.440674 
L 170.556 -91.666798 
L 175.520591 -91.497739 
L 180.485182 -93.360829 
L 185.449773 -95.211407 
L 190.414364 -95.816236 
L 195.378955 -98.808381 
L 200.343545 -100.989682 
L 205.308136 -103.06967 
L 210.272727 -105.89094 
L 215.237318 -107.275841 
L 220.201909 -106.715472 
L 225.1665 -106.264922 
L 230.131091 -106.635173 
L 235.095682 -105.654148 
L 240.060273 -105.002533 
L 245.024864 -103.881854 
L 249.989455 -103.25245 
L 254.954045 -102.84386 
L 259.918636 -101.819818 
L 264.883227 -101.518962 
L 269.847818 -101.193717 
L 274.812409 -100.19351 
L 279.777 -99.897532 
L 284.741591 -99.171343 
L 289.706182 -99.250989 
L 294.670773 -99.444017 
L 299.635364 -99.291958 
L 304.599955 -98.758837 
L 309.564545 -98.811634 
L 314.529136 -99.028918 
L 319.493727 -99.434195 
L 324.458318 -99.429365 
L 329.422909 -99.018818 
L 334.3875 -99.175599 
L 339.352091 -99.487927 
L 344.316682 -99.672254 
L 349.281273 -100.309367 
L 354.245864 -100.551269 
L 359.210455 -100.449454 
L 364.175045 -100.248331 
L 369.139636 -100.428218 
L 374.104227 -99.687075 
L 379.068818 -99.749202 
L 384.033409 -100.144987 
L 388.998 -100.017742 
L 393.962591 -100.662043 
L 398.927182 -100.020935 
L 403.891773 -99.332007 
L 408.856364 -99.142776 
L 413.820955 -100.030868 
L 418.785545 -99.453641 
L 423.750136 -99.451756 
L 428.714727 -98.741617 
L 433.679318 -98.767275 
L 438.643909 -98.523738 
L 443.6085 -97.437238 
L 448.573091 -98.01925 
L 453.537682 -97.338161 
L 458.502273 -97.264212 
L 463.466864 -97.285354 
L 468.431455 -96.766193 
L 473.396045 -96.845494 
L 478.360636 -96.570491 
L 483.325227 -96.083204 
L 488.289818 -95.121234 
L 493.254409 -95.234774 
L 498.219 -95.105432 
L 503.183591 -95.052628 
L 508.148182 -94.678199 
L 513.112773 -95.491572 
L 518.077364 -94.79383 
L 523.041955 -94.450824 
L 528.006545 -94.16739 
L 532.971136 -93.23662 
L 537.935727 -93.43376 
L 542.900318 -93.143496 
L 547.864909 -93.136803 
L 552.8295 -92.70673 
L 557.794091 -93.504816 
L 562.758682 -94.168314 
L 567.723273 -92.925802 
L 572.687864 -92.352081 
L 577.652455 -92.008625 
L 582.617045 -92.689196 
L 582.617045 -96.171002 
L 582.617045 -96.171002 
L 577.652455 -95.679228 
L 572.687864 -96.047507 
L 567.723273 -96.428652 
L 562.758682 -97.701815 
L 557.794091 -97.032347 
L 552.8295 -96.315165 
L 547.864909 -96.684733 
L 542.900318 -96.694985 
L 537.935727 -96.973134 
L 532.971136 -96.909876 
L 528.006545 -97.683686 
L 523.041955 -98.111006 
L 518.077364 -98.410973 
L 513.112773 -99.075526 
L 508.148182 -98.410888 
L 503.183591 -98.801304 
L 498.219 -98.836385 
L 493.254409 -98.806453 
L 488.289818 -98.71956 
L 483.325227 -99.646602 
L 478.360636 -100.129782 
L 473.396045 -100.390266 
L 468.431455 -100.276336 
L 463.466864 -100.636494 
L 458.502273 -100.648074 
L 453.537682 -100.732009 
L 448.573091 -101.31971 
L 443.6085 -100.691246 
L 438.643909 -101.715661 
L 433.679318 -102.072903 
L 428.714727 -102.053026 
L 423.750136 -102.741311 
L 418.785545 -102.728908 
L 413.820955 -103.408687 
L 408.856364 -102.479307 
L 403.891773 -102.674619 
L 398.927182 -103.270756 
L 393.962591 -103.77975 
L 388.998 -103.162161 
L 384.033409 -103.329352 
L 379.068818 -102.911653 
L 374.104227 -102.882493 
L 369.139636 -103.592491 
L 364.175045 -103.33124 
L 359.210455 -103.575751 
L 354.245864 -103.663103 
L 349.281273 -103.311005 
L 344.316682 -102.556846 
L 339.352091 -102.258853 
L 334.3875 -101.911296 
L 329.422909 -101.608526 
L 324.458318 -101.957767 
L 319.493727 -101.957871 
L 314.529136 -101.483588 
L 309.564545 -101.239802 
L 304.599955 -101.050261 
L 299.635364 -101.695831 
L 294.670773 -101.866029 
L 289.706182 -101.433881 
L 284.741591 -101.337637 
L 279.777 -102.018643 
L 274.812409 -102.394476 
L 269.847818 -103.166389 
L 264.883227 -103.475712 
L 259.918636 -103.709149 
L 254.954045 -104.768953 
L 249.989455 -105.193854 
L 245.024864 -105.984856 
L 240.060273 -107.258943 
L 235.095682 -108.234102 
L 230.131091 -109.607506 
L 225.1665 -109.273314 
L 220.201909 -110.09978 
L 215.237318 -110.851324 
L 210.272727 -109.541841 
L 205.308136 -106.600579 
L 200.343545 -104.621105 
L 195.378955 -102.564658 
L 190.414364 -99.476562 
L 185.449773 -98.889266 
L 180.485182 -96.543114 
L 175.520591 -94.763931 
L 170.556 -95.115957 
L 165.591409 -93.846112 
L 160.626818 -94.391661 
L 155.662227 -93.695268 
L 150.697636 -93.140074 
L 145.733045 -91.197144 
L 140.768455 -90.905409 
L 135.803864 -89.172932 
L 130.839273 -89.411857 
L 125.874682 -87.428698 
L 120.910091 -87.567192 
L 115.9455 -88.077985 
L 110.980909 -87.732176 
L 106.016318 -87.115695 
L 101.051727 -84.90703 
L 96.087136 -85.550921 
L 91.122545 -84.179936 
L 86.157955 -85.522746 
z
" style="stroke: #00008b; stroke-opacity: 0.1"/>
    </defs>
    <g clip-path="url(#pb731614f32)">
     <use xlink:href="#m52c4f63bcc" x="0" y="432" style="fill: #00008b; fill-opacity: 0.1; stroke: #00008b; stroke-opacity: 0.1"/>
    </g>
   </g>
   <g id="PathCollection_2">
    <defs>
     <path id="m04151467b2" d="M 0 -3 
L -0.673542 -0.927051 
L -2.85317 -0.927051 
L -1.089814 0.354102 
L -1.763356 2.427051 
L -0 1.145898 
L 1.763356 2.427051 
L 1.089814 0.354102 
L 2.85317 -0.927051 
L 0.673542 -0.927051 
z
" style="stroke: #00008b"/>
    </defs>
    <g clip-path="url(#pb731614f32)">
     <use xlink:href="#m04151467b2" x="304.599955" y="361.604545" style="fill: #00008b; stroke: #00008b"/>
     <use xlink:href="#m04151467b2" x="309.564545" y="361.604545" style="fill: #00008b; stroke: #00008b"/>
     <use xlink:href="#m04151467b2" x="314.529136" y="361.604545" style="fill: #00008b; stroke: #00008b"/>
     <use xlink:href="#m04151467b2" x="319.493727" y="361.604545" style="fill: #00008b; stroke: #00008b"/>
     <use xlink:href="#m04151467b2" x="324.458318" y="361.604545" style="fill: #00008b; stroke: #00008b"/>
     <use xlink:href="#m04151467b2" x="329.422909" y="361.604545" style="fill: #00008b; stroke: #00008b"/>
     <use xlink:href="#m04151467b2" x="334.3875" y="361.604545" style="fill: #00008b; stroke: #00008b"/>
     <use xlink:href="#m04151467b2" x="339.352091" y="361.604545" style="fill: #00008b; stroke: #00008b"/>
     <use xlink:href="#m04151467b2" x="344.316682" y="361.604545" style="fill: #00008b; stroke: #00008b"/>
     <use xlink:href="#m04151467b2" x="349.281273" y="361.604545" style="fill: #00008b; stroke: #00008b"/>
     <use xlink:href="#m04151467b2" x="354.245864" y="361.604545" style="fill: #00008b; stroke: #00008b"/>
     <use xlink:href="#m04151467b2" x="359.210455" y="361.604545" style="fill: #00008b; stroke: #00008b"/>
     <use xlink:href="#m04151467b2" x="364.175045" y="361.604545" style="fill: #00008b; stroke: #00008b"/>
     <use xlink:href="#m04151467b2" x="369.139636" y="361.604545" style="fill: #00008b; stroke: #00008b"/>
     <use xlink:href="#m04151467b2" x="374.104227" y="361.604545" style="fill: #00008b; stroke: #00008b"/>
     <use xlink:href="#m04151467b2" x="379.068818" y="361.604545" style="fill: #00008b; stroke: #00008b"/>
     <use xlink:href="#m04151467b2" x="384.033409" y="361.604545" style="fill: #00008b; stroke: #00008b"/>
     <use xlink:href="#m04151467b2" x="388.998" y="361.604545" style="fill: #00008b; stroke: #00008b"/>
     <use xlink:href="#m04151467b2" x="393.962591" y="361.604545" style="fill: #00008b; stroke: #00008b"/>
     <use xlink:href="#m04151467b2" x="398.927182" y="361.604545" style="fill: #00008b; stroke: #00008b"/>
     <use xlink:href="#m04151467b2" x="403.891773" y="361.604545" style="fill: #00008b; stroke: #00008b"/>
     <use xlink:href="#m04151467b2" x="408.856364" y="361.604545" style="fill: #00008b; stroke: #00008b"/>
     <use xlink:href="#m04151467b2" x="413.820955" y="361.604545" style="fill: #00008b; stroke: #00008b"/>
     <use xlink:href="#m04151467b2" x="418.785545" y="361.604545" style="fill: #00008b; stroke: #00008b"/>
     <use xlink:href="#m04151467b2" x="423.750136" y="361.604545" style="fill: #00008b; stroke: #00008b"/>
     <use xlink:href="#m04151467b2" x="428.714727" y="361.604545" style="fill: #00008b; stroke: #00008b"/>
     <use xlink:href="#m04151467b2" x="433.679318" y="361.604545" style="fill: #00008b; stroke: #00008b"/>
     <use xlink:href="#m04151467b2" x="438.643909" y="361.604545" style="fill: #00008b; stroke: #00008b"/>
     <use xlink:href="#m04151467b2" x="443.6085" y="361.604545" style="fill: #00008b; stroke: #00008b"/>
     <use xlink:href="#m04151467b2" x="448.573091" y="361.604545" style="fill: #00008b; stroke: #00008b"/>
     <use xlink:href="#m04151467b2" x="453.537682" y="361.604545" style="fill: #00008b; stroke: #00008b"/>
     <use xlink:href="#m04151467b2" x="458.502273" y="361.604545" style="fill: #00008b; stroke: #00008b"/>
     <use xlink:href="#m04151467b2" x="463.466864" y="361.604545" style="fill: #00008b; stroke: #00008b"/>
     <use xlink:href="#m04151467b2" x="468.431455" y="361.604545" style="fill: #00008b; stroke: #00008b"/>
     <use xlink:href="#m04151467b2" x="473.396045" y="361.604545" style="fill: #00008b; stroke: #00008b"/>
     <use xlink:href="#m04151467b2" x="478.360636" y="361.604545" style="fill: #00008b; stroke: #00008b"/>
     <use xlink:href="#m04151467b2" x="483.325227" y="361.604545" style="fill: #00008b; stroke: #00008b"/>
     <use xlink:href="#m04151467b2" x="488.289818" y="361.604545" style="fill: #00008b; stroke: #00008b"/>
     <use xlink:href="#m04151467b2" x="493.254409" y="361.604545" style="fill: #00008b; stroke: #00008b"/>
     <use xlink:href="#m04151467b2" x="498.219" y="361.604545" style="fill: #00008b; stroke: #00008b"/>
     <use xlink:href="#m04151467b2" x="503.183591" y="361.604545" style="fill: #00008b; stroke: #00008b"/>
     <use xlink:href="#m04151467b2" x="508.148182" y="361.604545" style="fill: #00008b; stroke: #00008b"/>
     <use xlink:href="#m04151467b2" x="513.112773" y="361.604545" style="fill: #00008b; stroke: #00008b"/>
     <use xlink:href="#m04151467b2" x="518.077364" y="361.604545" style="fill: #00008b; stroke: #00008b"/>
     <use xlink:href="#m04151467b2" x="523.041955" y="361.604545" style="fill: #00008b; stroke: #00008b"/>
     <use xlink:href="#m04151467b2" x="528.006545" y="361.604545" style="fill: #00008b; stroke: #00008b"/>
     <use xlink:href="#m04151467b2" x="532.971136" y="361.604545" style="fill: #00008b; stroke: #00008b"/>
     <use xlink:href="#m04151467b2" x="537.935727" y="361.604545" style="fill: #00008b; stroke: #00008b"/>
     <use xlink:href="#m04151467b2" x="542.900318" y="361.604545" style="fill: #00008b; stroke: #00008b"/>
     <use xlink:href="#m04151467b2" x="547.864909" y="361.604545" style="fill: #00008b; stroke: #00008b"/>
     <use xlink:href="#m04151467b2" x="552.8295" y="361.604545" style="fill: #00008b; stroke: #00008b"/>
     <use xlink:href="#m04151467b2" x="557.794091" y="361.604545" style="fill: #00008b; stroke: #00008b"/>
     <use xlink:href="#m04151467b2" x="562.758682" y="361.604545" style="fill: #00008b; stroke: #00008b"/>
     <use xlink:href="#m04151467b2" x="567.723273" y="361.604545" style="fill: #00008b; stroke: #00008b"/>
     <use xlink:href="#m04151467b2" x="572.687864" y="361.604545" style="fill: #00008b; stroke: #00008b"/>
     <use xlink:href="#m04151467b2" x="577.652455" y="361.604545" style="fill: #00008b; stroke: #00008b"/>
     <use xlink:href="#m04151467b2" x="582.617045" y="361.604545" style="fill: #00008b; stroke: #00008b"/>
    </g>
   </g>
   <g id="line2d_1">
    <path d="M 86.157955 349.638853 
L 91.122545 347.409378 
L 96.087136 343.66826 
L 101.051727 349.338706 
L 106.016318 352.414188 
L 110.980909 348.369019 
L 115.9455 354.258201 
L 120.910091 349.459405 
L 125.874682 348.519485 
L 130.839273 349.345138 
L 135.803864 349.193369 
L 140.768455 348.943953 
L 145.733045 349.180165 
L 150.697636 349.767716 
L 155.662227 345.928963 
L 160.626818 348.114505 
L 165.591409 345.28385 
L 170.556 348.87579 
L 175.520591 349.165106 
L 180.485182 351.612434 
L 185.449773 350.602593 
L 190.414364 350.217444 
L 195.378955 352.638418 
L 200.343545 351.705223 
L 205.308136 344.730076 
L 210.272727 347.673137 
L 215.237318 340.177726 
L 220.201909 347.873076 
L 225.1665 337.601332 
L 230.131091 331.47658 
L 235.095682 337.899282 
L 240.060273 326.998498 
L 245.024864 321.362926 
L 249.989455 328.688163 
L 254.954045 331.941632 
L 259.918636 338.392368 
L 264.883227 338.110394 
L 269.847818 336.952704 
L 274.812409 335.566914 
L 279.777 341.14572 
L 284.741591 338.509632 
L 289.706182 338.45476 
L 294.670773 347.075191 
L 299.635364 342.792074 
L 304.599955 344.279448 
L 309.564545 334.185364 
L 314.529136 338.169093 
L 319.493727 335.09072 
L 324.458318 337.870189 
L 329.422909 328.52538 
L 334.3875 330.109789 
L 339.352091 333.73731 
L 344.316682 324.727412 
L 349.281273 327.519444 
L 354.245864 331.358803 
L 359.210455 329.212866 
L 364.175045 323.02246 
L 369.139636 318.746984 
L 374.104227 322.095619 
L 379.068818 317.037869 
L 384.033409 317.996951 
L 388.998 318.438392 
L 393.962591 320.670335 
L 398.927182 319.029984 
L 403.891773 318.881286 
L 408.856364 317.947814 
L 413.820955 324.374443 
L 418.785545 328.631722 
L 423.750136 331.623726 
L 428.714727 325.348164 
L 433.679318 306.520145 
L 438.643909 313.501885 
L 443.6085 318.070721 
L 448.573091 332.073105 
L 453.537682 334.897829 
L 458.502273 324.592045 
L 463.466864 313.868363 
L 468.431455 311.180231 
L 473.396045 313.899818 
L 478.360636 320.7502 
L 483.325227 314.199657 
L 488.289818 315.766686 
L 493.254409 311.417622 
L 498.219 306.439069 
L 503.183591 303.945283 
L 508.148182 314.839355 
L 513.112773 317.340605 
L 518.077364 320.939042 
L 523.041955 323.478035 
L 528.006545 317.808912 
L 532.971136 306.22398 
L 537.935727 311.30665 
L 542.900318 313.811877 
L 547.864909 324.469571 
L 552.8295 316.297559 
L 557.794091 327.817271 
L 562.758682 320.820005 
L 567.723273 314.776282 
L 572.687864 314.73482 
L 577.652455 320.998099 
L 582.617045 316.028724 
" clip-path="url(#pb731614f32)" style="fill: none; stroke: #6060eb; stroke-width: 2; stroke-linecap: round"/>
   </g>
   <g id="line2d_2">
    <path d="M 86.157955 346.9044 
L 91.122545 347.988599 
L 96.087136 348.923928 
L 101.051727 347.203826 
L 106.016318 348.467575 
L 110.980909 347.664921 
L 115.9455 347.888204 
L 120.910091 347.089259 
L 125.874682 347.748601 
L 130.839273 347.83366 
L 135.803864 348.355737 
L 140.768455 347.694068 
L 145.733045 347.613784 
L 150.697636 348.281254 
L 155.662227 347.223863 
L 160.626818 347.71964 
L 165.591409 347.966642 
L 170.556 347.70249 
L 175.520591 347.28578 
L 180.485182 347.783983 
L 185.449773 347.998662 
L 190.414364 347.81064 
L 195.378955 347.078079 
L 200.343545 347.569813 
L 205.308136 342.027085 
L 210.272727 340.719181 
L 215.237318 341.124689 
L 220.201909 341.985731 
L 225.1665 341.431181 
L 230.131091 339.170792 
L 235.095682 340.394786 
L 240.060273 341.443718 
L 245.024864 340.446418 
L 249.989455 338.900779 
L 254.954045 338.825301 
L 259.918636 337.648231 
L 264.883227 339.173918 
L 269.847818 338.578807 
L 274.812409 339.868726 
L 279.777 339.635184 
L 284.741591 340.350247 
L 289.706182 339.06233 
L 294.670773 337.708448 
L 299.635364 336.629597 
L 304.599955 335.297527 
L 309.564545 333.78651 
L 314.529136 337.539184 
L 319.493727 337.804893 
L 324.458318 337.150699 
L 329.422909 335.919807 
L 334.3875 337.690278 
L 339.352091 337.29482 
L 344.316682 336.813694 
L 349.281273 338.348806 
L 354.245864 337.291409 
L 359.210455 335.885817 
L 364.175045 337.518936 
L 369.139636 336.831722 
L 374.104227 337.689591 
L 379.068818 338.321133 
L 384.033409 340.248756 
L 388.998 340.432939 
L 393.962591 339.750511 
L 398.927182 337.935282 
L 403.891773 340.033952 
L 408.856364 338.13592 
L 413.820955 336.506981 
L 418.785545 337.808909 
L 423.750136 339.971295 
L 428.714727 339.194496 
L 433.679318 339.255337 
L 438.643909 341.515118 
L 443.6085 339.373129 
L 448.573091 341.880752 
L 453.537682 347.276699 
L 458.502273 347.529916 
L 463.466864 346.719487 
L 468.431455 345.316497 
L 473.396045 346.916778 
L 478.360636 346.214824 
L 483.325227 346.323641 
L 488.289818 346.05232 
L 493.254409 346.954668 
L 498.219 346.459958 
L 503.183591 348.263704 
L 508.148182 347.746658 
L 513.112773 345.138995 
L 518.077364 346.8564 
L 523.041955 346.948381 
L 528.006545 345.93504 
L 532.971136 346.251253 
L 537.935727 346.05176 
L 542.900318 344.966957 
L 547.864909 346.240262 
L 552.8295 346.963175 
L 557.794091 347.21476 
L 562.758682 348.162034 
L 567.723273 347.722337 
L 572.687864 346.910976 
L 577.652455 346.996864 
L 582.617045 346.99663 
" clip-path="url(#pb731614f32)" style="fill: none; stroke-dasharray: 7.4,3.2; stroke-dashoffset: 0; stroke: #6060eb; stroke-width: 2"/>
   </g>
   <g id="line2d_3">
    <path d="M 205.308136 377.54 
L 205.308136 26.96 
" clip-path="url(#pb731614f32)" style="fill: none; stroke-dasharray: 5.55,2.4; stroke-dashoffset: 0; stroke: #1a1a1a; stroke-width: 1.5"/>
   </g>
   <g id="line2d_4">
    <path d="M 453.537682 377.54 
L 453.537682 26.96 
" clip-path="url(#pb731614f32)" style="fill: none; stroke-dasharray: 5.55,2.4; stroke-dashoffset: 0; stroke: #1a1a1a; stroke-width: 1.5"/>
   </g>
   <g id="line2d_5">
    <path d="M 86.157955 340.450954 
L 91.122545 348.306573 
L 96.087136 351.255481 
L 101.051727 349.093947 
L 106.016318 347.977471 
L 110.980909 343.10821 
L 115.9455 343.703144 
L 120.910091 347.870747 
L 125.874682 344.021273 
L 130.839273 339.384864 
L 135.803864 338.205793 
L 140.768455 337.908183 
L 145.733045 339.423242 
L 150.697636 336.531823 
L 155.662227 334.167855 
L 160.626818 343.554484 
L 165.591409 337.443266 
L 170.556 333.302473 
L 175.520591 336.897279 
L 180.485182 336.284237 
L 185.449773 327.325462 
L 190.414364 333.243594 
L 195.378955 331.495536 
L 200.343545 334.713775 
L 205.308136 333.461693 
L 210.272727 331.899869 
L 215.237318 334.027925 
L 220.201909 332.307603 
L 225.1665 334.49387 
L 230.131091 335.260349 
L 235.095682 333.663826 
L 240.060273 333.51077 
L 245.024864 338.071865 
L 249.989455 337.360575 
L 254.954045 337.811613 
L 259.918636 336.275845 
L 264.883227 333.572926 
L 269.847818 332.072759 
L 274.812409 332.349518 
L 279.777 335.250225 
L 284.741591 332.409374 
L 289.706182 328.031526 
L 294.670773 323.648342 
L 299.635364 319.86634 
L 304.599955 312.71368 
L 309.564545 306.561281 
L 314.529136 305.032617 
L 319.493727 298.498506 
L 324.458318 289.878881 
L 329.422909 286.665783 
L 334.3875 280.168281 
L 339.352091 272.944101 
L 344.316682 267.399789 
L 349.281273 262.40821 
L 354.245864 253.169769 
L 359.210455 245.677993 
L 364.175045 236.14307 
L 369.139636 226.055255 
L 374.104227 217.592756 
L 379.068818 209.131798 
L 384.033409 202.516917 
L 388.998 198.799443 
L 393.962591 190.996221 
L 398.927182 184.427244 
L 403.891773 180.347618 
L 408.856364 174.965976 
L 413.820955 167.04744 
L 418.785545 162.108665 
L 423.750136 160.134215 
L 428.714727 158.836137 
L 433.679318 152.804929 
L 438.643909 147.661815 
L 443.6085 143.704003 
L 448.573091 140.708636 
L 453.537682 136.315834 
L 458.502273 134.811983 
L 463.466864 132.528902 
L 468.431455 129.173878 
L 473.396045 117.811379 
L 478.360636 114.884119 
L 483.325227 108.273515 
L 488.289818 103.597005 
L 493.254409 101.300207 
L 498.219 100.18359 
L 503.183591 94.365002 
L 508.148182 91.318464 
L 513.112773 90.762259 
L 518.077364 87.337925 
L 523.041955 87.570802 
L 528.006545 86.930449 
L 532.971136 88.991437 
L 537.935727 89.218883 
L 542.900318 89.531429 
L 547.864909 89.955844 
L 552.8295 88.079549 
L 557.794091 87.430411 
L 562.758682 85.459 
L 567.723273 82.434801 
L 572.687864 87.042498 
L 577.652455 86.105449 
L 582.617045 83.345035 
" clip-path="url(#pb731614f32)" style="fill: none; stroke: #00008b; stroke-width: 2; stroke-linecap: round"/>
   </g>
   <g id="line2d_6">
    <path d="M 86.157955 347.643098 
L 91.122545 349.169429 
L 96.087136 348.093759 
L 101.051727 348.922104 
L 106.016318 346.780284 
L 110.980909 346.1525 
L 115.9455 345.64097 
L 120.910091 346.279376 
L 125.874682 346.393932 
L 130.839273 344.417158 
L 135.803864 344.402286 
L 140.768455 342.863251 
L 145.733045 342.43753 
L 150.697636 340.478244 
L 155.662227 339.972735 
L 160.626818 339.378525 
L 165.591409 339.856607 
L 170.556 338.608623 
L 175.520591 338.869165 
L 180.485182 337.048029 
L 185.449773 334.949664 
L 190.414364 334.353601 
L 195.378955 331.31348 
L 200.343545 329.194606 
L 205.308136 327.164875 
L 210.272727 324.283609 
L 215.237318 322.936418 
L 220.201909 323.592374 
L 225.1665 324.230882 
L 230.131091 323.87866 
L 235.095682 325.055875 
L 240.060273 325.869262 
L 245.024864 327.066645 
L 249.989455 327.776848 
L 254.954045 328.193594 
L 259.918636 329.235517 
L 264.883227 329.502663 
L 269.847818 329.819947 
L 274.812409 330.706007 
L 279.777 331.041912 
L 284.741591 331.74551 
L 289.706182 331.657565 
L 294.670773 331.344977 
L 299.635364 331.506106 
L 304.599955 332.095451 
L 309.564545 331.974282 
L 314.529136 331.743747 
L 319.493727 331.303967 
L 324.458318 331.306434 
L 329.422909 331.686328 
L 334.3875 331.456552 
L 339.352091 331.12661 
L 344.316682 330.88545 
L 349.281273 330.189814 
L 354.245864 329.892814 
L 359.210455 329.987397 
L 364.175045 330.210215 
L 369.139636 329.989646 
L 374.104227 330.715216 
L 379.068818 330.669573 
L 384.033409 330.262831 
L 388.998 330.410049 
L 393.962591 329.779104 
L 398.927182 330.354155 
L 403.891773 330.996687 
L 408.856364 331.188959 
L 413.820955 330.280222 
L 418.785545 330.908726 
L 423.750136 330.903466 
L 428.714727 331.602679 
L 433.679318 331.579911 
L 438.643909 331.8803 
L 443.6085 332.935758 
L 448.573091 332.33052 
L 453.537682 332.964915 
L 458.502273 333.043857 
L 463.466864 333.039076 
L 468.431455 333.478736 
L 473.396045 333.38212 
L 478.360636 333.649863 
L 483.325227 334.135097 
L 488.289818 335.079603 
L 493.254409 334.979387 
L 498.219 335.029091 
L 503.183591 335.073034 
L 508.148182 335.455456 
L 513.112773 334.716451 
L 518.077364 335.397598 
L 523.041955 335.719085 
L 528.006545 336.074462 
L 532.971136 336.926752 
L 537.935727 336.796553 
L 542.900318 337.080759 
L 547.864909 337.089232 
L 552.8295 337.489053 
L 557.794091 336.731418 
L 562.758682 336.064936 
L 567.723273 337.322773 
L 572.687864 337.800206 
L 577.652455 338.156073 
L 582.617045 337.569901 
" clip-path="url(#pb731614f32)" style="fill: none; stroke-dasharray: 7.4,3.2; stroke-dashoffset: 0; stroke: #00008b; stroke-width: 2"/>
   </g>
   <g id="line2d_7">
    <path d="M 205.308136 377.54 
L 205.308136 26.96 
" clip-path="url(#pb731614f32)" style="fill: none; stroke-dasharray: 5.55,2.4; stroke-dashoffset: 0; stroke: #1a1a1a; stroke-width: 1.5"/>
   </g>
   <g id="line2d_8">
    <path d="M 453.537682 377.54 
L 453.537682 26.96 
" clip-path="url(#pb731614f32)" style="fill: none; stroke-dasharray: 5.55,2.4; stroke-dashoffset: 0; stroke: #1a1a1a; stroke-width: 1.5"/>
   </g>
   <g id="patch_3">
    <path d="M 61.335 377.54 
L 61.335 26.96 
" style="fill: none; stroke: #cccccc; stroke-width: 1.5; stroke-linejoin: miter; stroke-linecap: square"/>
   </g>
   <g id="patch_4">
    <path d="M 61.335 377.54 
L 607.44 377.54 
" style="fill: none; stroke: #cccccc; stroke-width: 1.5; stroke-linejoin: miter; stroke-linecap: square"/>
   </g>
   <g id="text_17">
    <!-- Divergence Comparison: Original vs Shuffled -->
    <g style="fill: #262626" transform="translate(214.7775 20.96) scale(0.12 -0.12)">
     <defs>
      <path id="ArialMT-43" d="M 3763 1606 
L 4369 1453 
Q 4178 706 3683 314 
Q 3188 -78 2472 -78 
Q 1731 -78 1267 223 
Q 803 525 561 1097 
Q 319 1669 319 2325 
Q 319 3041 592 3573 
Q 866 4106 1370 4382 
Q 1875 4659 2481 4659 
Q 3169 4659 3637 4309 
Q 4106 3959 4291 3325 
L 3694 3184 
Q 3534 3684 3231 3912 
Q 2928 4141 2469 4141 
Q 1941 4141 1586 3887 
Q 1231 3634 1087 3207 
Q 944 2781 944 2328 
Q 944 1744 1114 1308 
Q 1284 872 1643 656 
Q 2003 441 2422 441 
Q 2931 441 3284 734 
Q 3638 1028 3763 1606 
z
" transform="scale(0.015625)"/>
      <path id="ArialMT-6f" d="M 213 1659 
Q 213 2581 725 3025 
Q 1153 3394 1769 3394 
Q 2453 3394 2887 2945 
Q 3322 2497 3322 1706 
Q 3322 1066 3130 698 
Q 2938 331 2570 128 
Q 2203 -75 1769 -75 
Q 1072 -75 642 372 
Q 213 819 213 1659 
z
M 791 1659 
Q 791 1022 1069 705 
Q 1347 388 1769 388 
Q 2188 388 2466 706 
Q 2744 1025 2744 1678 
Q 2744 2294 2464 2611 
Q 2184 2928 1769 2928 
Q 1347 2928 1069 2612 
Q 791 2297 791 1659 
z
" transform="scale(0.015625)"/>
      <path id="ArialMT-70" d="M 422 -1272 
L 422 3319 
L 934 3319 
L 934 2888 
Q 1116 3141 1344 3267 
Q 1572 3394 1897 3394 
Q 2322 3394 2647 3175 
Q 2972 2956 3137 2557 
Q 3303 2159 3303 1684 
Q 3303 1175 3120 767 
Q 2938 359 2589 142 
Q 2241 -75 1856 -75 
Q 1575 -75 1351 44 
Q 1128 163 984 344 
L 984 -1272 
L 422 -1272 
z
M 931 1641 
Q 931 1000 1190 694 
Q 1450 388 1819 388 
Q 2194 388 2461 705 
Q 2728 1022 2728 1688 
Q 2728 2322 2467 2637 
Q 2206 2953 1844 2953 
Q 1484 2953 1207 2617 
Q 931 2281 931 1641 
z
" transform="scale(0.015625)"/>
      <path id="ArialMT-61" d="M 2588 409 
Q 2275 144 1986 34 
Q 1697 -75 1366 -75 
Q 819 -75 525 192 
Q 231 459 231 875 
Q 231 1119 342 1320 
Q 453 1522 633 1644 
Q 813 1766 1038 1828 
Q 1203 1872 1538 1913 
Q 2219 1994 2541 2106 
Q 2544 2222 2544 2253 
Q 2544 2597 2384 2738 
Q 2169 2928 1744 2928 
Q 1347 2928 1158 2789 
Q 969 2650 878 2297 
L 328 2372 
Q 403 2725 575 2942 
Q 747 3159 1072 3276 
Q 1397 3394 1825 3394 
Q 2250 3394 2515 3294 
Q 2781 3194 2906 3042 
Q 3031 2891 3081 2659 
Q 3109 2516 3109 2141 
L 3109 1391 
Q 3109 606 3145 398 
Q 3181 191 3288 0 
L 2700 0 
Q 2613 175 2588 409 
z
M 2541 1666 
Q 2234 1541 1622 1453 
Q 1275 1403 1131 1340 
Q 988 1278 909 1158 
Q 831 1038 831 891 
Q 831 666 1001 516 
Q 1172 366 1500 366 
Q 1825 366 2078 508 
Q 2331 650 2450 897 
Q 2541 1088 2541 1459 
L 2541 1666 
z
" transform="scale(0.015625)"/>
      <path id="ArialMT-3a" d="M 578 2678 
L 578 3319 
L 1219 3319 
L 1219 2678 
L 578 2678 
z
M 578 0 
L 578 641 
L 1219 641 
L 1219 0 
L 578 0 
z
" transform="scale(0.015625)"/>
      <path id="ArialMT-4f" d="M 309 2231 
Q 309 3372 921 4017 
Q 1534 4663 2503 4663 
Q 3138 4663 3647 4359 
Q 4156 4056 4423 3514 
Q 4691 2972 4691 2284 
Q 4691 1588 4409 1038 
Q 4128 488 3612 205 
Q 3097 -78 2500 -78 
Q 1853 -78 1343 234 
Q 834 547 571 1087 
Q 309 1628 309 2231 
z
M 934 2222 
Q 934 1394 1379 917 
Q 1825 441 2497 441 
Q 3181 441 3623 922 
Q 4066 1403 4066 2288 
Q 4066 2847 3877 3264 
Q 3688 3681 3323 3911 
Q 2959 4141 2506 4141 
Q 1863 4141 1398 3698 
Q 934 3256 934 2222 
z
" transform="scale(0.015625)"/>
      <path id="ArialMT-6c" d="M 409 0 
L 409 4581 
L 972 4581 
L 972 0 
L 409 0 
z
" transform="scale(0.015625)"/>
      <path id="ArialMT-53" d="M 288 1472 
L 859 1522 
Q 900 1178 1048 958 
Q 1197 738 1509 602 
Q 1822 466 2213 466 
Q 2559 466 2825 569 
Q 3091 672 3220 851 
Q 3350 1031 3350 1244 
Q 3350 1459 3225 1620 
Q 3100 1781 2813 1891 
Q 2628 1963 1997 2114 
Q 1366 2266 1113 2400 
Q 784 2572 623 2826 
Q 463 3081 463 3397 
Q 463 3744 659 4045 
Q 856 4347 1234 4503 
Q 1613 4659 2075 4659 
Q 2584 4659 2973 4495 
Q 3363 4331 3572 4012 
Q 3781 3694 3797 3291 
L 3216 3247 
Q 3169 3681 2898 3903 
Q 2628 4125 2100 4125 
Q 1550 4125 1298 3923 
Q 1047 3722 1047 3438 
Q 1047 3191 1225 3031 
Q 1400 2872 2139 2705 
Q 2878 2538 3153 2413 
Q 3553 2228 3743 1945 
Q 3934 1663 3934 1294 
Q 3934 928 3725 604 
Q 3516 281 3123 101 
Q 2731 -78 2241 -78 
Q 1619 -78 1198 103 
Q 778 284 539 648 
Q 300 1013 288 1472 
z
" transform="scale(0.015625)"/>
      <path id="ArialMT-68" d="M 422 0 
L 422 4581 
L 984 4581 
L 984 2938 
Q 1378 3394 1978 3394 
Q 2347 3394 2619 3248 
Q 2891 3103 3008 2847 
Q 3125 2591 3125 2103 
L 3125 0 
L 2563 0 
L 2563 2103 
Q 2563 2525 2380 2717 
Q 2197 2909 1863 2909 
Q 1613 2909 1392 2779 
Q 1172 2650 1078 2428 
Q 984 2206 984 1816 
L 984 0 
L 422 0 
z
" transform="scale(0.015625)"/>
      <path id="ArialMT-75" d="M 2597 0 
L 2597 488 
Q 2209 -75 1544 -75 
Q 1250 -75 995 37 
Q 741 150 617 320 
Q 494 491 444 738 
Q 409 903 409 1263 
L 409 3319 
L 972 3319 
L 972 1478 
Q 972 1038 1006 884 
Q 1059 663 1231 536 
Q 1403 409 1656 409 
Q 1909 409 2131 539 
Q 2353 669 2445 892 
Q 2538 1116 2538 1541 
L 2538 3319 
L 3100 3319 
L 3100 0 
L 2597 0 
z
" transform="scale(0.015625)"/>
      <path id="ArialMT-66" d="M 556 0 
L 556 2881 
L 59 2881 
L 59 3319 
L 556 3319 
L 556 3672 
Q 556 4006 616 4169 
Q 697 4388 901 4523 
Q 1106 4659 1475 4659 
Q 1713 4659 2000 4603 
L 1916 4113 
Q 1741 4144 1584 4144 
Q 1328 4144 1222 4034 
Q 1116 3925 1116 3625 
L 1116 3319 
L 1763 3319 
L 1763 2881 
L 1116 2881 
L 1116 0 
L 556 0 
z
" transform="scale(0.015625)"/>
      <path id="ArialMT-64" d="M 2575 0 
L 2575 419 
Q 2259 -75 1647 -75 
Q 1250 -75 917 144 
Q 584 363 401 755 
Q 219 1147 219 1656 
Q 219 2153 384 2558 
Q 550 2963 881 3178 
Q 1213 3394 1622 3394 
Q 1922 3394 2156 3267 
Q 2391 3141 2538 2938 
L 2538 4581 
L 3097 4581 
L 3097 0 
L 2575 0 
z
M 797 1656 
Q 797 1019 1065 703 
Q 1334 388 1700 388 
Q 2069 388 2326 689 
Q 2584 991 2584 1609 
Q 2584 2291 2321 2609 
Q 2059 2928 1675 2928 
Q 1300 2928 1048 2622 
Q 797 2316 797 1656 
z
" transform="scale(0.015625)"/>
     </defs>
     <use xlink:href="#ArialMT-44"/>
     <use xlink:href="#ArialMT-69" x="72.216797"/>
     <use xlink:href="#ArialMT-76" x="94.433594"/>
     <use xlink:href="#ArialMT-65" x="144.433594"/>
     <use xlink:href="#ArialMT-72" x="200.048828"/>
     <use xlink:href="#ArialMT-67" x="233.349609"/>
     <use xlink:href="#ArialMT-65" x="288.964844"/>
     <use xlink:href="#ArialMT-6e" x="344.580078"/>
     <use xlink:href="#ArialMT-63" x="400.195312"/>
     <use xlink:href="#ArialMT-65" x="450.195312"/>
     <use xlink:href="#ArialMT-20" x="505.810547"/>
     <use xlink:href="#ArialMT-43" x="533.59375"/>
     <use xlink:href="#ArialMT-6f" x="605.810547"/>
     <use xlink:href="#ArialMT-6d" x="661.425781"/>
     <use xlink:href="#ArialMT-70" x="744.726562"/>
     <use xlink:href="#ArialMT-61" x="800.341797"/>
     <use xlink:href="#ArialMT-72" x="855.957031"/>
     <use xlink:href="#ArialMT-69" x="889.257812"/>
     <use xlink:href="#ArialMT-73" x="911.474609"/>
     <use xlink:href="#ArialMT-6f" x="961.474609"/>
     <use xlink:href="#ArialMT-6e" x="1017.089844"/>
     <use xlink:href="#ArialMT-3a" x="1072.705078"/>
     <use xlink:href="#ArialMT-20" x="1100.488281"/>
     <use xlink:href="#ArialMT-4f" x="1128.271484"/>
     <use xlink:href="#ArialMT-72" x="1206.054688"/>
     <use xlink:href="#ArialMT-69" x="1239.355469"/>
     <use xlink:href="#ArialMT-67" x="1261.572266"/>
     <use xlink:href="#ArialMT-69" x="1317.1875"/>
     <use xlink:href="#ArialMT-6e" x="1339.404297"/>
     <use xlink:href="#ArialMT-61" x="1395.019531"/>
     <use xlink:href="#ArialMT-6c" x="1450.634766"/>
     <use xlink:href="#ArialMT-20" x="1472.851562"/>
     <use xlink:href="#ArialMT-76" x="1500.634766"/>
     <use xlink:href="#ArialMT-73" x="1550.634766"/>
     <use xlink:href="#ArialMT-20" x="1600.634766"/>
     <use xlink:href="#ArialMT-53" x="1628.417969"/>
     <use xlink:href="#ArialMT-68" x="1695.117188"/>
     <use xlink:href="#ArialMT-75" x="1750.732422"/>
     <use xlink:href="#ArialMT-66" x="1806.347656"/>
     <use xlink:href="#ArialMT-66" x="1832.380859"/>
     <use xlink:href="#ArialMT-6c" x="1860.164062"/>
     <use xlink:href="#ArialMT-65" x="1882.380859"/>
     <use xlink:href="#ArialMT-64" x="1937.996094"/>
    </g>
   </g>
   <g id="legend_1">
    <g id="patch_5">
     <path d="M 615.14 258.915469 
L 704.741875 258.915469 
Q 706.941875 258.915469 706.941875 256.715469 
L 706.941875 147.784531 
Q 706.941875 145.584531 704.741875 145.584531 
L 615.14 145.584531 
Q 612.94 145.584531 612.94 147.784531 
L 612.94 256.715469 
Q 612.94 258.915469 615.14 258.915469 
z
" style="fill: #ffffff; opacity: 0.8; stroke: #cccccc; stroke-linejoin: miter"/>
    </g>
    <g id="line2d_9">
     <path d="M 617.34 154.149062 
L 628.34 154.149062 
L 639.34 154.149062 
" style="fill: none; stroke: #6060eb; stroke-width: 2; stroke-linecap: round"/>
    </g>
    <g id="text_18">
     <!-- Original -->
     <g style="fill: #262626" transform="translate(648.14 157.999062) scale(0.11 -0.11)">
      <use xlink:href="#ArialMT-4f"/>
      <use xlink:href="#ArialMT-72" x="77.783203"/>
      <use xlink:href="#ArialMT-69" x="111.083984"/>
      <use xlink:href="#ArialMT-67" x="133.300781"/>
      <use xlink:href="#ArialMT-69" x="188.916016"/>
      <use xlink:href="#ArialMT-6e" x="211.132812"/>
      <use xlink:href="#ArialMT-61" x="266.748047"/>
      <use xlink:href="#ArialMT-6c" x="322.363281"/>
     </g>
    </g>
    <g id="line2d_10">
     <path d="M 617.34 169.97875 
L 628.34 169.97875 
L 639.34 169.97875 
" style="fill: none; stroke-dasharray: 7.4,3.2; stroke-dashoffset: 0; stroke: #6060eb; stroke-width: 2"/>
    </g>
    <g id="text_19">
     <!-- Original -->
     <g style="fill: #262626" transform="translate(648.14 173.82875) scale(0.11 -0.11)">
      <use xlink:href="#ArialMT-4f"/>
      <use xlink:href="#ArialMT-72" x="77.783203"/>
      <use xlink:href="#ArialMT-69" x="111.083984"/>
      <use xlink:href="#ArialMT-67" x="133.300781"/>
      <use xlink:href="#ArialMT-69" x="188.916016"/>
      <use xlink:href="#ArialMT-6e" x="211.132812"/>
      <use xlink:href="#ArialMT-61" x="266.748047"/>
      <use xlink:href="#ArialMT-6c" x="322.363281"/>
     </g>
    </g>
    <g id="PathCollection_3">
     <g>
      <use xlink:href="#mdeb528c1e3" x="628.34" y="186.662656" style="fill: #6060eb; stroke: #6060eb"/>
     </g>
    </g>
    <g id="text_20">
     <!-- p &lt; 0.001 -->
     <g style="fill: #262626" transform="translate(648.14 189.550156) scale(0.11 -0.11)">
      <defs>
       <path id="ArialMT-3c" d="M 350 2003 
L 350 2528 
L 3384 3809 
L 3384 3250 
L 978 2263 
L 3384 1266 
L 3384 706 
L 350 2003 
z
" transform="scale(0.015625)"/>
      </defs>
      <use xlink:href="#ArialMT-70"/>
      <use xlink:href="#ArialMT-20" x="55.615234"/>
      <use xlink:href="#ArialMT-3c" x="83.398438"/>
      <use xlink:href="#ArialMT-20" x="141.796875"/>
      <use xlink:href="#ArialMT-30" x="169.580078"/>
      <use xlink:href="#ArialMT-2e" x="225.195312"/>
      <use xlink:href="#ArialMT-30" x="252.978516"/>
      <use xlink:href="#ArialMT-30" x="308.59375"/>
      <use xlink:href="#ArialMT-31" x="364.208984"/>
     </g>
    </g>
    <g id="line2d_11">
     <path d="M 617.34 201.26 
L 628.34 201.26 
L 639.34 201.26 
" style="fill: none; stroke-dasharray: 5.55,2.4; stroke-dashoffset: 0; stroke: #1a1a1a; stroke-width: 1.5"/>
    </g>
    <g id="text_21">
     <!-- Stim Onset -->
     <g style="fill: #262626" transform="translate(648.14 205.11) scale(0.11 -0.11)">
      <defs>
       <path id="ArialMT-74" d="M 1650 503 
L 1731 6 
Q 1494 -44 1306 -44 
Q 1000 -44 831 53 
Q 663 150 594 308 
Q 525 466 525 972 
L 525 2881 
L 113 2881 
L 113 3319 
L 525 3319 
L 525 4141 
L 1084 4478 
L 1084 3319 
L 1650 3319 
L 1650 2881 
L 1084 2881 
L 1084 941 
Q 1084 700 1114 631 
Q 1144 563 1211 522 
Q 1278 481 1403 481 
Q 1497 481 1650 503 
z
" transform="scale(0.015625)"/>
      </defs>
      <use xlink:href="#ArialMT-53"/>
      <use xlink:href="#ArialMT-74" x="66.699219"/>
      <use xlink:href="#ArialMT-69" x="94.482422"/>
      <use xlink:href="#ArialMT-6d" x="116.699219"/>
      <use xlink:href="#ArialMT-20" x="200"/>
      <use xlink:href="#ArialMT-4f" x="227.783203"/>
      <use xlink:href="#ArialMT-6e" x="305.566406"/>
      <use xlink:href="#ArialMT-73" x="361.181641"/>
      <use xlink:href="#ArialMT-65" x="411.181641"/>
      <use xlink:href="#ArialMT-74" x="466.796875"/>
     </g>
    </g>
    <g id="line2d_12">
     <path d="M 617.34 216.819844 
L 628.34 216.819844 
L 639.34 216.819844 
" style="fill: none; stroke-dasharray: 5.55,2.4; stroke-dashoffset: 0; stroke: #1a1a1a; stroke-width: 1.5"/>
    </g>
    <g id="text_22">
     <!-- Stim End -->
     <g style="fill: #262626" transform="translate(648.14 220.669844) scale(0.11 -0.11)">
      <defs>
       <path id="ArialMT-45" d="M 506 0 
L 506 4581 
L 3819 4581 
L 3819 4041 
L 1113 4041 
L 1113 2638 
L 3647 2638 
L 3647 2100 
L 1113 2100 
L 1113 541 
L 3925 541 
L 3925 0 
L 506 0 
z
" transform="scale(0.015625)"/>
      </defs>
      <use xlink:href="#ArialMT-53"/>
      <use xlink:href="#ArialMT-74" x="66.699219"/>
      <use xlink:href="#ArialMT-69" x="94.482422"/>
      <use xlink:href="#ArialMT-6d" x="116.699219"/>
      <use xlink:href="#ArialMT-20" x="200"/>
      <use xlink:href="#ArialMT-45" x="227.783203"/>
      <use xlink:href="#ArialMT-6e" x="294.482422"/>
      <use xlink:href="#ArialMT-64" x="350.097656"/>
     </g>
    </g>
    <g id="line2d_13">
     <path d="M 617.34 232.520625 
L 628.34 232.520625 
L 639.34 232.520625 
" style="fill: none; stroke: #00008b; stroke-width: 2; stroke-linecap: round"/>
    </g>
    <g id="text_23">
     <!-- Original -->
     <g style="fill: #262626" transform="translate(648.14 236.370625) scale(0.11 -0.11)">
      <use xlink:href="#ArialMT-4f"/>
      <use xlink:href="#ArialMT-72" x="77.783203"/>
      <use xlink:href="#ArialMT-69" x="111.083984"/>
      <use xlink:href="#ArialMT-67" x="133.300781"/>
      <use xlink:href="#ArialMT-69" x="188.916016"/>
      <use xlink:href="#ArialMT-6e" x="211.132812"/>
      <use xlink:href="#ArialMT-61" x="266.748047"/>
      <use xlink:href="#ArialMT-6c" x="322.363281"/>
     </g>
    </g>
    <g id="line2d_14">
     <path d="M 617.34 248.350313 
L 628.34 248.350313 
L 639.34 248.350313 
" style="fill: none; stroke-dasharray: 7.4,3.2; stroke-dashoffset: 0; stroke: #00008b; stroke-width: 2"/>
    </g>
    <g id="text_24">
     <!-- Original -->
     <g style="fill: #262626" transform="translate(648.14 252.200312) scale(0.11 -0.11)">
      <use xlink:href="#ArialMT-4f"/>
      <use xlink:href="#ArialMT-72" x="77.783203"/>
      <use xlink:href="#ArialMT-69" x="111.083984"/>
      <use xlink:href="#ArialMT-67" x="133.300781"/>
      <use xlink:href="#ArialMT-69" x="188.916016"/>
      <use xlink:href="#ArialMT-6e" x="211.132812"/>
      <use xlink:href="#ArialMT-61" x="266.748047"/>
      <use xlink:href="#ArialMT-6c" x="322.363281"/>
     </g>
    </g>
   </g>
  </g>
 </g>
 <defs>
  <clipPath id="pb731614f32">
   <rect x="61.335" y="26.96" width="546.105" height="350.58"/>
  </clipPath>
 </defs>
</svg>
